<svg width="727" height="865" xmlns="http://www.w3.org/2000/svg" xmlns:xlink="http://www.w3.org/1999/xlink" xml:space="preserve" overflow="hidden"><g transform="translate(-775 -827)"><path d="M1137.5 828C1330.98 828 1455.67 838.699 1478.6 983.894 1513 1187.17 1498.67 1448.52 1474.3 1558.56 1451.37 1668.6 1316.65 1690 1137.5 1690 959.782 1690 825.061 1668.6 800.697 1558.56 777.765 1448.52 762 1187.17 796.397 983.894 820.762 838.699 945.45 828 1137.5 828Z" fill="#CD799D" fill-rule="evenodd"/><path d="M812.231 1557.19C789.32 1447.09 775 1187.13 807.935 985.274 830.846 849.175 948.266 840 1137.28 840 1327.73 840 1445.15 849.175 1468.07 985.274 1501 1187.13 1486.68 1447.09 1462.34 1557.19 1440.86 1656.59 1317.71 1678 1137.28 1678 958.29 1678 833.71 1656.59 812.231 1557.19Z" fill="#E3E1E8" fill-rule="evenodd"/><path d="M1480 1327C1478.56 1368.3 1471.39 1571.75 1416.86 1614.58 1363.76 1657.41 1259 1662 1259 1662 1296.31 1658.94 1402.51 1609.99 1421.16 1583.99 1444.12 1547.27 1472.82 1472.32 1480 1327Z" fill="#FFFFFF" fill-rule="evenodd"/><path d="M1468.07 985.274C1445.15 849.175 1327.73 840 1137.28 840 948.266 840 830.846 849.175 807.935 985.274 775 1187.13 789.32 1447.09 812.231 1557.19 833.71 1656.59 958.29 1678 1137.28 1678 1317.71 1678 1440.86 1656.59 1462.34 1557.19 1486.68 1447.09 1501 1187.13 1468.07 985.274ZM1137.28 1665.77C964.018 1665.77 843.734 1645.89 823.687 1554.14 800.775 1444.03 786.456 1187.13 819.391 986.803 839.438 865.996 936.811 852.234 1137.28 852.234 1339.19 852.234 1436.56 865.996 1456.61 986.803 1489.54 1187.13 1475.23 1444.03 1452.31 1554.14 1432.27 1645.89 1311.98 1665.77 1137.28 1665.77Z" fill="#BBB7CB" fill-rule="evenodd"/><path d="M1107 871C1015.4 871 886.596 871 840.798 974.821 795 1078.64 817.899 1384 817.899 1384 815.037 1316.82 829.349 1026.73 892.321 962.607 955.294 898.482 1003.95 874.054 1107 871Z" fill="#FFFFFF" fill-rule="evenodd"/><path d="M1138 828.5C1331.48 828.5 1456.17 839.199 1479.1 984.394 1513.5 1187.67 1499.17 1449.02 1474.8 1559.06 1451.87 1669.1 1317.15 1690.5 1138 1690.5 960.282 1690.5 825.561 1669.1 801.197 1559.06 778.265 1449.02 762.5 1187.67 796.897 984.394 821.261 839.199 945.95 828.5 1138 828.5Z" stroke="#333333" stroke-width="2.86476" stroke-linecap="round" stroke-linejoin="round" stroke-miterlimit="10" fill="none" fill-rule="evenodd"/><path d="M812.731 1557.69C789.82 1447.59 775.5 1187.63 808.435 985.774 831.346 849.675 948.766 840.5 1137.78 840.5 1328.23 840.5 1445.65 849.675 1468.57 985.774 1501.5 1187.63 1487.18 1447.59 1462.84 1557.69 1441.36 1657.09 1318.21 1678.5 1137.78 1678.5 958.79 1678.5 834.21 1657.09 812.731 1557.69Z" stroke="#333333" stroke-width="2.86476" stroke-miterlimit="8" fill="none" fill-rule="evenodd"/></g></svg>