<svg width="1234" height="1320" xmlns="http://www.w3.org/2000/svg" xmlns:xlink="http://www.w3.org/1999/xlink" xml:space="preserve" overflow="hidden"><defs><clipPath id="clip0"><rect x="1513" y="663" width="1234" height="1320"/></clipPath></defs><g clip-path="url(#clip0)" transform="translate(-1513 -663)"><path d="M2703.33 1178.23C2737.58 1129.45 2726.16 1083.73 2717.6 1056.29 2717.6 1056.29 2717.6 1056.29 2717.6 1056.29 2717.6 1053.24 2714.75 1053.24 2714.75 1053.24 2714.75 1053.24 2714.75 1053.24 2714.75 1053.24 2714.75 1047.15 2714.75 1047.15 2714.75 1047.15 2714.75 1047.15 2711.89 1044.1 2711.89 1044.1 2697.62 1022.76 2669.07 998.371 2637.67 989.226 2640.53 980.081 2643.38 967.887 2643.38 958.742 2643.38 934.355 2634.82 909.968 2620.55 891.677 2620.55 891.677 2620.55 891.677 2620.55 891.677 2617.69 888.629 2617.69 888.629 2617.69 888.629 2592 858.145 2552.04 849 2506.37 867.29 2512.08 830.71 2512.08 800.226 2483.53 778.887 2483.53 778.887 2483.53 775.839 2483.53 775.839 2483.53 775.839 2483.53 775.839 2483.53 775.839 2483.53 775.839 2477.82 772.79 2477.82 772.79 2457.84 757.548 2440.71 745.355 2392.19 763.645 2383.62 702.677 2355.08 690.484 2335.1 681.339 2329.39 678.29 2329.39 678.29 2329.39 678.29 2329.39 678.29 2329.39 678.29 2329.39 678.29 2329.39 678.29 2329.39 678.29 2326.53 678.29 2323.68 678.29 2323.68 678.29 2323.68 678.29 2292.28 672.194 2275.15 672.194 2232.33 724.016 2229.48 724.016 2229.48 727.065 2229.48 727.065 2226.63 720.968 2226.63 720.968 2226.63 720.968 2192.37 660 2149.55 663.048 2129.57 663.048 2123.86 663.048 2123.86 663.048 2123.86 663.048 2123.86 663.048 2123.86 663.048 2123.86 663.048 2121.01 663.048 2121.01 663.048 2118.15 663.048 2095.32 669.145 2069.63 684.387 2049.65 708.774 2026.81 684.387 1992.56 678.29 1958.3 687.435 1958.3 687.435 1961.16 687.435 1961.16 687.435 1961.16 687.435 1958.3 687.435 1958.3 687.435 1958.3 687.435 1958.3 687.435 1958.3 687.435 1955.45 687.435 1955.45 690.484 1955.45 690.484 1949.74 690.484 1946.88 693.532 1944.03 696.581 1915.48 711.823 1895.5 745.355 1895.5 788.032 1866.96 772.79 1838.41 760.597 1809.87 778.887 1809.87 778.887 1807.01 778.887 1807.01 778.887 1807.01 778.887 1807.01 778.887 1807.01 778.887 1804.16 781.935 1804.16 781.935 1804.16 781.935 1778.47 797.177 1764.2 809.371 1761.34 861.194 1704.25 849 1681.42 873.387 1667.14 888.629 1664.29 891.677 1664.29 891.677 1664.29 891.677 1664.29 891.677 1664.29 894.726 1661.43 894.726 1661.43 897.774 1661.43 897.774 1661.43 897.774 1652.87 909.968 1630.03 949.597 1652.87 1001.42 1652.87 1001.42 1652.87 1001.42 1652.87 1001.42 1652.87 1001.42 1652.87 1001.42 1652.87 1001.42 1587.22 1010.56 1572.94 1053.24 1564.38 1074.58 1561.53 1080.68 1561.53 1080.68 1561.53 1080.68 1561.53 1080.68 1561.53 1080.68 1561.53 1080.68 1552.96 1105.06 1552.96 1141.65 1570.09 1178.23 1538.69 1190.42 1518.71 1220.9 1513 1257.48 1513 1260.53 1513 1260.53 1513 1260.53 1513 1260.53 1513 1260.53 1513 1260.53 1513 1263.58 1513 1266.63 1513 1269.68 1513 1306.26 1535.84 1342.84 1572.94 1361.13 1550.11 1382.47 1527.27 1403.81 1530.13 1437.34 1530.13 1437.34 1530.13 1440.39 1530.13 1440.39 1530.13 1443.44 1530.13 1443.44 1530.13 1443.44 1530.13 1449.53 1530.13 1449.53 1530.13 1449.53 1538.69 1480.02 1544.4 1498.31 1598.64 1519.65 1592.93 1534.89 1592.93 1550.13 1592.93 1562.32 1592.93 1589.76 1604.34 1611.1 1612.91 1623.29 1615.76 1629.39 1615.76 1629.39 1615.76 1629.39 1615.76 1629.39 1615.76 1629.39 1615.76 1629.39 1615.76 1629.39 1615.76 1629.39 1615.76 1629.39 1624.33 1641.58 1624.33 1641.58 1624.33 1641.58 1635.74 1656.82 1650.02 1678.16 1689.98 1678.16 1687.12 1687.31 1687.12 1699.5 1687.12 1708.65 1687.12 1751.32 1709.96 1772.66 1721.38 1784.85 1724.23 1790.95 1724.23 1790.95 1724.23 1790.95 1724.23 1790.95 1724.23 1790.95 1724.23 1790.95 1727.09 1790.95 1727.09 1790.95 1729.94 1794 1747.07 1806.19 1778.47 1815.34 1807.01 1815.34 1809.87 1848.87 1827 1879.35 1858.39 1900.69 1858.39 1900.69 1858.39 1900.69 1858.39 1900.69 1892.65 1918.98 1935.47 1909.84 1969.72 1879.35 1978.28 1909.84 1989.7 1940.32 2021.1 1949.47 2021.1 1952.52 2021.1 1952.52 2023.96 1952.52 2026.81 1952.52 2026.81 1952.52 2026.81 1952.52 2052.5 1961.66 2072.48 1964.71 2112.45 1931.18 2140.99 1983 2172.39 1983 2192.37 1983 2198.08 1983 2198.08 1983 2198.08 1983 2198.08 1983 2200.94 1983 2200.94 1983 2203.79 1983 2203.79 1983 2203.79 1983 2218.06 1979.95 2260.88 1970.81 2278.01 1915.94 2278.01 1915.94 2278.01 1915.94 2278.01 1915.94 2278.01 1915.94 2278.01 1915.94 2278.01 1915.94 2332.24 1958.61 2369.35 1943.37 2389.33 1934.23 2395.04 1931.18 2395.04 1931.18 2395.04 1931.18 2397.9 1931.18 2397.9 1931.18 2400.75 1928.13 2420.73 1915.94 2440.71 1885.45 2449.28 1851.92 2480.68 1861.06 2512.08 1851.92 2540.62 1827.53 2540.62 1827.53 2540.62 1827.53 2540.62 1827.53 2540.62 1827.53 2540.62 1824.48 2540.62 1824.48 2557.75 1809.24 2566.31 1784.85 2566.31 1760.47 2566.31 1742.18 2563.46 1723.89 2554.89 1705.6 2586.29 1708.65 2614.84 1705.6 2634.82 1678.16 2634.82 1675.11 2637.67 1675.11 2637.67 1672.06 2640.53 1669.02 2640.53 1669.02 2640.53 1669.02 2646.24 1653.77 2649.09 1644.63 2649.09 1629.39 2649.09 1617.19 2646.24 1598.9 2634.82 1577.56 2680.49 1553.18 2686.2 1516.6 2691.91 1495.26 2694.76 1486.11 2697.62 1476.97 2697.62 1464.77 2697.62 1449.53 2691.91 1434.29 2680.49 1409.9 2737.58 1376.37 2746.15 1330.65 2746.15 1303.21 2746.15 1300.16 2746.15 1300.16 2746.15 1300.16 2749 1248.34 2734.73 1208.71 2703.33 1178.23ZM1561.53 1083.73C1561.53 1083.73 1561.53 1083.73 1561.53 1083.73 1561.53 1083.73 1561.53 1083.73 1561.53 1083.73 1561.53 1083.73 1561.53 1083.73 1561.53 1083.73 1561.53 1083.73 1561.53 1083.73 1561.53 1083.73 1561.53 1083.73 1561.53 1083.73 1561.53 1083.73ZM2623.4 1022.76C2654.8 1028.85 2686.2 1047.15 2694.76 1059.34 2697.62 1065.44 2697.62 1074.58 2697.62 1086.77 2697.62 1105.06 2691.91 1132.5 2674.78 1159.94 2663.36 1150.79 2663.36 1150.79 2663.36 1150.79 2637.67 1138.6 2620.55 1126.4 2609.13 1102.02 2606.27 1095.92 2606.27 1089.82 2606.27 1083.73 2606.27 1062.39 2614.84 1044.1 2623.4 1022.76ZM2514.93 903.871C2552.04 885.581 2589.15 888.629 2603.42 903.871 2603.42 903.871 2603.42 903.871 2603.42 903.871 2614.84 922.161 2614.84 952.645 2600.57 983.129 2597.71 983.129 2592 983.129 2589.15 983.129 2549.18 986.177 2523.49 980.081 2514.93 967.887 2514.93 967.887 2514.93 967.887 2514.93 967.887 2506.37 949.597 2503.51 928.258 2503.51 906.919 2506.37 906.919 2512.08 903.871 2514.93 903.871ZM2466.4 794.129C2469.26 794.129 2469.26 794.129 2469.26 794.129 2469.26 794.129 2469.26 794.129 2469.26 794.129 2474.97 800.226 2477.82 809.371 2477.82 821.565 2477.82 830.71 2474.97 845.952 2472.11 858.145 2472.11 870.339 2472.11 870.339 2472.11 870.339 2472.11 873.387 2472.11 876.436 2472.11 879.484 2443.57 888.629 2423.59 888.629 2415.02 882.532 2409.31 876.436 2403.6 855.097 2397.9 812.419 2397.9 800.226 2397.9 800.226 2397.9 800.226 2443.57 781.935 2454.99 784.984 2466.4 794.129ZM2258.03 748.403C2297.99 699.629 2306.55 696.581 2323.68 699.629 2323.68 702.677 2323.68 702.677 2323.68 702.677 2337.95 708.774 2355.08 714.871 2360.79 775.839 2340.81 788.032 2340.81 788.032 2340.81 788.032 2317.97 800.226 2297.99 809.371 2280.86 806.323 2272.3 803.274 2260.88 778.887 2249.46 760.597 2249.46 760.597 2249.46 760.597 2249.46 760.597 2252.32 757.548 2255.17 754.5 2258.03 748.403ZM2121.01 687.435C2123.86 687.435 2123.86 687.435 2126.72 687.435 2126.72 687.435 2129.57 687.435 2129.57 687.435 2146.7 687.435 2172.39 699.629 2198.08 739.258 2203.79 751.452 2203.79 751.452 2203.79 751.452 2186.66 766.694 2166.68 778.887 2143.85 778.887 2143.85 778.887 2143.85 778.887 2140.99 778.887 2115.3 781.935 2092.46 760.597 2072.48 736.21 2086.76 711.823 2106.74 693.532 2121.01 687.435ZM1929.76 797.177C1929.76 754.5 1944.03 717.919 1964.01 711.823 1964.01 711.823 1964.01 711.823 1964.01 711.823 1983.99 705.726 2009.68 717.919 2029.67 742.306 2029.67 745.355 2026.81 751.452 2026.81 754.5 2015.39 794.129 2001.12 818.516 1983.99 818.516 1983.99 818.516 1983.99 818.516 1983.99 818.516 1964.01 824.613 1946.88 818.516 1929.76 809.371 1929.76 806.323 1929.76 800.226 1929.76 797.177ZM1815.58 800.226C1815.58 800.226 1815.58 800.226 1815.58 800.226 1829.85 791.081 1852.69 806.323 1875.52 821.565 1884.09 827.661 1884.09 827.661 1884.09 827.661 1886.94 827.661 1889.79 830.71 1892.65 830.71 1889.79 858.145 1881.23 879.484 1875.52 885.581 1864.1 888.629 1844.12 888.629 1804.16 876.436 1795.6 873.387 1795.6 873.387 1795.6 873.387 1795.6 818.516 1804.16 809.371 1815.58 800.226ZM1681.42 909.968C1681.42 906.919 1681.42 906.919 1681.42 906.919 1692.83 894.726 1707.11 882.532 1761.34 900.823 1761.34 925.21 1761.34 925.21 1761.34 925.21 1761.34 934.355 1764.2 946.548 1764.2 955.694 1764.2 967.887 1761.34 980.081 1755.63 989.226 1747.07 992.274 1724.23 995.323 1709.96 995.323 1689.98 995.323 1689.98 995.323 1689.98 995.323 1689.98 992.274 1687.12 986.177 1684.27 983.129 1675.71 964.839 1672.85 949.597 1672.85 937.403 1672.85 925.21 1675.71 916.065 1681.42 909.968ZM1581.51 1089.82C1581.51 1089.82 1581.51 1089.82 1581.51 1089.82 1581.51 1089.82 1581.51 1089.82 1581.51 1089.82 1590.07 1068.48 1610.05 1047.15 1658.58 1038 1670 1038 1670 1038 1670 1038 1681.42 1065.44 1687.12 1095.92 1678.56 1117.26 1678.56 1120.31 1678.56 1120.31 1678.56 1120.31 1678.56 1120.31 1678.56 1120.31 1678.56 1120.31 1667.14 1144.69 1632.89 1156.89 1601.49 1166.03 1601.49 1166.03 1601.49 1166.03 1601.49 1166.03 1587.22 1144.69 1578.65 1120.31 1578.65 1102.02 1578.65 1095.92 1581.51 1092.87 1581.51 1089.82ZM1535.84 1266.63C1535.84 1263.58 1535.84 1263.58 1535.84 1263.58 1535.84 1260.53 1535.84 1260.53 1535.84 1260.53 1538.69 1239.19 1561.53 1217.85 1587.22 1208.71 1590.07 1211.76 1595.78 1214.81 1598.64 1220.9 1627.18 1245.29 1641.45 1269.68 1635.74 1284.92 1635.74 1284.92 1635.74 1287.97 1635.74 1287.97 1632.89 1306.26 1618.62 1321.5 1604.34 1336.74 1601.49 1333.69 1598.64 1333.69 1592.93 1330.65 1558.67 1315.4 1535.84 1287.97 1535.84 1266.63ZM1615.76 1486.11C1564.38 1467.82 1555.82 1458.68 1552.96 1443.44 1552.96 1443.44 1552.96 1443.44 1552.96 1443.44 1552.96 1443.44 1552.96 1443.44 1552.96 1443.44 1552.96 1440.39 1552.96 1440.39 1552.96 1440.39 1552.96 1425.15 1570.09 1409.9 1592.93 1394.66 1601.49 1388.56 1601.49 1388.56 1601.49 1388.56 1604.34 1385.52 1607.2 1382.47 1610.05 1379.42 1638.6 1397.71 1647.16 1406.85 1650.02 1412.95 1650.02 1416 1652.87 1416 1652.87 1416 1652.87 1422.1 1641.45 1437.34 1635.74 1446.48 1618.62 1476.97 1618.62 1476.97 1618.62 1476.97L1615.76 1486.11ZM1698.54 1638.53C1658.58 1644.63 1650.02 1635.48 1635.74 1620.24 1632.89 1614.15 1632.89 1614.15 1632.89 1614.15 1624.33 1598.9 1615.76 1571.47 1632.89 1528.79 1641.45 1528.79 1647.16 1531.84 1655.73 1531.84 1684.27 1534.89 1701.4 1537.94 1709.96 1550.13 1709.96 1550.13 1712.82 1553.18 1712.82 1553.18 1712.82 1553.18 1712.82 1559.27 1712.82 1562.32 1712.82 1583.66 1704.25 1620.24 1698.54 1638.53ZM1809.87 1778.76C1781.32 1784.85 1749.92 1778.76 1738.51 1769.61 1729.94 1757.42 1721.38 1742.18 1721.38 1717.79 1721.38 1705.6 1721.38 1693.4 1727.09 1681.21 1727.09 1672.06 1727.09 1672.06 1727.09 1672.06 1752.78 1669.02 1772.76 1678.16 1795.6 1696.45 1795.6 1696.45 1795.6 1696.45 1798.45 1696.45 1807.01 1708.65 1809.87 1726.94 1809.87 1745.23 1809.87 1757.42 1809.87 1766.56 1809.87 1778.76ZM1949.74 1845.82C1921.19 1876.31 1886.94 1891.55 1869.81 1879.35 1866.96 1879.35 1866.96 1879.35 1866.96 1879.35 1852.69 1870.21 1841.27 1842.77 1841.27 1812.29 1841.27 1812.29 1841.27 1809.24 1841.27 1806.19 1846.98 1806.19 1849.83 1803.15 1855.54 1800.1 1889.79 1781.81 1915.48 1778.76 1926.9 1787.9 1926.9 1787.9 1926.9 1787.9 1926.9 1787.9 1944.03 1800.1 1952.59 1818.39 1958.3 1839.73 1955.45 1839.73 1952.59 1842.77 1949.74 1845.82ZM2032.52 1931.18C2032.52 1931.18 2032.52 1931.18 2029.67 1931.18 2029.67 1931.18 2029.67 1931.18 2029.67 1931.18 2015.39 1928.13 2009.68 1900.69 2003.97 1873.26 2001.12 1861.06 2001.12 1861.06 2001.12 1861.06 2001.12 1858.02 2001.12 1854.97 1998.27 1851.92 2021.1 1833.63 2038.23 1824.48 2049.65 1827.53 2058.21 1830.58 2072.48 1848.87 2089.61 1888.5 2095.32 1897.65 2095.32 1897.65 2095.32 1897.65 2058.21 1931.18 2046.79 1934.23 2032.52 1931.18ZM2246.61 1903.74C2235.19 1940.32 2215.21 1955.56 2198.08 1961.66 2198.08 1961.66 2198.08 1961.66 2198.08 1961.66 2180.95 1958.61 2163.83 1958.61 2138.14 1903.74 2149.55 1888.5 2149.55 1888.5 2149.55 1888.5 2169.54 1867.16 2180.95 1854.97 2198.08 1851.92 2206.64 1851.92 2229.48 1873.26 2243.75 1885.45 2249.46 1891.55 2249.46 1891.55 2249.46 1891.55 2249.46 1894.6 2246.61 1900.69 2246.61 1903.74ZM2386.48 1909.84C2383.62 1909.84 2383.62 1912.89 2383.62 1912.89 2366.5 1918.98 2337.95 1918.98 2300.84 1888.5 2292.28 1879.35 2292.28 1879.35 2292.28 1879.35 2303.7 1851.92 2317.97 1827.53 2337.95 1818.39 2360.79 1812.29 2389.33 1824.48 2415.02 1839.73 2417.88 1839.73 2417.88 1839.73 2417.88 1839.73 2412.17 1873.26 2397.9 1903.74 2386.48 1909.84ZM2415.02 1775.71C2415.02 1781.81 2415.02 1790.95 2415.02 1800.1 2386.48 1787.9 2352.22 1781.81 2320.82 1803.15 2320.82 1803.15 2320.82 1803.15 2320.82 1803.15 2297.99 1815.34 2280.86 1833.63 2266.59 1858.02 2246.61 1839.73 2223.77 1827.53 2200.94 1827.53 2166.68 1824.48 2143.85 1845.82 2121.01 1870.21 2103.88 1839.73 2083.9 1818.39 2063.92 1809.24 2061.06 1806.19 2061.06 1806.19 2058.21 1806.19 2058.21 1806.19 2058.21 1806.19 2058.21 1806.19 2058.21 1806.19 2058.21 1806.19 2058.21 1806.19 2058.21 1806.19 2055.36 1806.19 2055.36 1806.19 2055.36 1806.19 2055.36 1806.19 2055.36 1806.19 2055.36 1806.19 2055.36 1806.19 2055.36 1806.19 2052.5 1803.15 2049.65 1803.15 2049.65 1803.15 2049.65 1803.15 2049.65 1803.15 2049.65 1803.15 2046.79 1803.15 2046.79 1803.15 2046.79 1803.15 2026.81 1800.1 2006.83 1806.19 1986.85 1818.39 1972.57 1794 1955.45 1778.76 1932.61 1763.52 1906.92 1745.23 1881.23 1748.27 1844.12 1766.56 1844.12 1739.13 1838.41 1708.65 1815.58 1684.26 1815.58 1681.21 1812.72 1678.16 1809.87 1675.11 1789.89 1656.82 1767.05 1638.53 1735.65 1635.48 1738.51 1623.29 1741.36 1605 1741.36 1589.76 1741.36 1577.56 1738.51 1565.37 1735.65 1553.18 1735.65 1553.18 1735.65 1553.18 1735.65 1553.18 1735.65 1553.18 1735.65 1550.13 1735.65 1550.13 1721.38 1510.5 1689.98 1504.4 1655.73 1495.26 1650.02 1495.26 1650.02 1495.26 1650.02 1495.26 1650.02 1492.21 1658.58 1480.02 1658.58 1480.02 1670 1452.58 1681.42 1431.24 1672.85 1409.9 1670 1388.56 1655.73 1370.27 1632.89 1355.03 1647.16 1333.69 1655.73 1309.31 1658.58 1281.87 1661.43 1275.77 1661.43 1272.73 1661.43 1266.63 1661.43 1242.24 1650.02 1217.85 1624.33 1196.52 1655.73 1184.32 1684.27 1166.03 1695.69 1129.45 1695.69 1129.45 1698.54 1129.45 1698.54 1129.45 1698.54 1129.45 1698.54 1129.45 1698.54 1129.45 1704.25 1111.16 1709.96 1092.87 1709.96 1071.53 1709.96 1059.34 1707.11 1047.15 1704.25 1031.9 1724.23 1028.85 1744.21 1025.81 1758.49 1016.66 1758.49 1016.66 1761.34 1016.66 1761.34 1016.66 1761.34 1016.66 1761.34 1016.66 1761.34 1016.66 1764.2 1013.61 1764.2 1013.61 1764.2 1013.61 1769.91 1010.56 1775.61 1004.47 1778.47 998.371 1778.47 998.371 1778.47 998.371 1778.47 998.371 1778.47 998.371 1778.47 998.371 1778.47 998.371 1778.47 995.323 1778.47 995.323 1778.47 995.323 1792.74 973.984 1795.6 946.548 1795.6 919.113 1795.6 916.065 1795.6 913.016 1795.6 909.968 1827 919.113 1855.54 919.113 1875.52 909.968 1878.38 909.968 1878.38 909.968 1881.23 909.968 1881.23 909.968 1881.23 909.968 1881.23 909.968 1881.23 909.968 1881.23 909.968 1881.23 909.968 1884.09 906.919 1884.09 906.919 1886.94 903.871 1886.94 903.871 1889.79 903.871 1889.79 903.871 1906.92 891.677 1918.34 870.339 1924.05 842.903 1946.88 849 1972.57 849 1995.41 839.855 2026.81 833.758 2043.94 812.419 2058.21 769.742 2078.19 788.032 2101.03 800.226 2132.43 803.274 2132.43 803.274 2132.43 803.274 2135.28 803.274 2166.68 803.274 2198.08 797.177 2220.92 781.935 2238.04 806.323 2252.32 821.565 2272.3 827.661 2303.7 842.903 2332.24 827.661 2363.64 815.468 2369.35 849 2380.77 876.436 2397.9 894.726 2397.9 897.774 2397.9 897.774 2400.75 897.774 2400.75 900.823 2403.6 900.823 2403.6 903.871 2403.6 903.871 2406.46 903.871 2406.46 903.871 2423.59 916.065 2446.42 919.113 2472.11 916.065 2474.97 943.5 2486.39 964.839 2503.51 986.177 2520.64 1013.61 2546.33 1022.76 2586.29 1019.71 2577.73 1050.19 2574.88 1080.68 2592 1117.26 2592 1117.26 2592 1117.26 2592 1117.26 2606.27 1150.79 2620.55 1169.08 2649.09 1190.42 2643.38 1196.52 2640.53 1199.56 2640.53 1199.56 2623.4 1217.85 2609.13 1236.15 2603.42 1254.44 2603.42 1254.44 2603.42 1254.44 2603.42 1254.44 2603.42 1254.44 2603.42 1254.44 2603.42 1257.48 2600.57 1257.48 2600.57 1260.53 2600.57 1260.53 2597.71 1272.73 2597.71 1281.87 2597.71 1291.02 2597.71 1324.55 2611.98 1355.03 2631.97 1391.61 2626.26 1394.66 2620.55 1397.71 2620.55 1397.71 2589.15 1412.95 2566.31 1425.15 2560.6 1455.63 2560.6 1458.68 2560.6 1458.68 2560.6 1458.68 2560.6 1458.68 2560.6 1458.68 2560.6 1461.73 2560.6 1467.82 2560.6 1476.97 2560.6 1486.11 2560.6 1510.5 2569.17 1534.89 2580.58 1559.27 2580.58 1559.27 2580.58 1559.27 2580.58 1559.27 2580.58 1559.27 2563.46 1562.32 2563.46 1562.32 2537.77 1571.47 2517.79 1580.61 2509.22 1598.9 2500.66 1611.1 2497.8 1623.29 2497.8 1635.48 2497.8 1647.68 2500.66 1659.87 2503.51 1672.06 2480.68 1678.16 2460.7 1690.35 2443.57 1708.65 2423.59 1723.89 2415.02 1745.23 2415.02 1775.71ZM2526.35 1809.24C2526.35 1809.24 2526.35 1809.24 2523.49 1809.24 2509.22 1824.48 2480.68 1824.48 2452.13 1815.34 2452.13 1809.24 2452.13 1803.15 2452.13 1800.1 2452.13 1800.1 2452.13 1800.1 2452.13 1800.1 2449.28 1784.85 2449.28 1772.66 2449.28 1763.52 2449.28 1742.18 2452.13 1726.94 2460.7 1720.84 2460.7 1720.84 2460.7 1720.84 2460.7 1720.84 2477.82 1708.65 2494.95 1705.6 2514.93 1705.6 2517.79 1708.65 2517.79 1711.69 2520.64 1717.79 2529.2 1736.08 2534.91 1757.42 2534.91 1775.71 2534.91 1790.95 2532.06 1803.15 2526.35 1809.24ZM2620.55 1659.87C2611.98 1675.11 2586.29 1672.06 2560.6 1669.02 2549.18 1669.02 2549.18 1669.02 2549.18 1669.02 2546.33 1669.02 2540.62 1669.02 2537.77 1669.02 2526.35 1635.48 2523.49 1620.24 2526.35 1614.15 2529.2 1608.05 2546.33 1605 2557.75 1601.95 2592 1592.81 2592 1592.81 2592 1592.81 2600.57 1589.76 2600.57 1589.76 2600.57 1589.76 2617.69 1620.24 2623.4 1635.48 2623.4 1644.63 2623.4 1650.73 2620.55 1653.77 2620.55 1659.87ZM2666.22 1501.35C2657.66 1516.6 2643.38 1531.84 2614.84 1544.03 2611.98 1540.98 2611.98 1540.98 2611.98 1540.98 2594.86 1513.55 2583.44 1495.26 2583.44 1473.92 2583.44 1467.82 2583.44 1461.73 2586.29 1455.63 2586.29 1455.63 2586.29 1455.63 2586.29 1455.63 2592 1449.53 2606.27 1443.44 2617.69 1440.39 2649.09 1428.19 2649.09 1428.19 2649.09 1428.19 2663.36 1455.63 2669.07 1470.87 2669.07 1483.06 2669.07 1489.16 2666.22 1495.26 2666.22 1501.35ZM2663.36 1373.32C2649.09 1351.98 2649.09 1351.98 2649.09 1351.98 2634.82 1324.55 2620.55 1303.21 2620.55 1281.87 2620.55 1278.82 2623.4 1278.82 2623.4 1275.77 2623.4 1275.77 2623.4 1275.77 2623.4 1272.73 2623.4 1272.73 2623.4 1272.73 2623.4 1272.73 2623.4 1266.63 2643.38 1248.34 2654.8 1236.15 2677.64 1211.76 2677.64 1211.76 2677.64 1211.76 2714.75 1242.24 2720.46 1266.63 2726.16 1294.06 2720.46 1318.45 2706.18 1348.94 2663.36 1373.32Z" fill-rule="evenodd"/><path d="M2124.5 676.62C2141.52 676.62 2175.55 682.7 2206.75 734.38 2220.94 758.7 2220.94 758.7 2220.94 758.7 2237.95 795.18 2254.97 816.46 2280.5 819.5 2280.5 819.5 2280.5 819.5 2280.5 819.5 2263.48 816.46 2249.3 783.02 2232.28 752.62 2218.1 728.3 2218.1 728.3 2218.1 728.3 2184.06 667.5 2144.35 676.62 2124.5 676.62Z" stroke="#007E4B" stroke-width="4.58333" stroke-linecap="round" stroke-linejoin="round" stroke-miterlimit="10" fill="#007E4B" fill-rule="evenodd"/><path d="M1960.5 700.677C1960.5 700.677 1960.5 700.677 1960.5 700.677 1983.37 694.559 2017.69 709.853 2040.56 737.382 2066.3 767.971 2097.75 795.5 2143.5 792.441 2143.5 792.441 2143.5 792.441 2143.5 792.441 2103.47 795.5 2074.88 755.735 2049.14 725.147 2026.27 697.618 1991.95 691.5 1960.5 700.677Z" stroke="#007E4B" stroke-width="4.58333" stroke-linecap="round" stroke-linejoin="round" stroke-miterlimit="10" fill="#007E4B" fill-rule="evenodd"/><path d="M1670.5 901.333C1684.77 889.111 1699.03 867.722 1767.51 889.111 1793.19 898.278 1793.19 898.278 1793.19 898.278 1827.43 910.5 1864.53 910.5 1884.5 895.222 1884.5 895.222 1884.5 895.222 1884.5 895.222 1870.23 904.389 1833.14 898.278 1801.75 886.056 1776.07 879.945 1776.07 879.945 1776.07 879.945 1704.74 855.5 1687.62 886.056 1670.5 901.333Z" stroke="#007E4B" stroke-width="4.58333" stroke-linecap="round" stroke-linejoin="round" stroke-miterlimit="10" fill="#007E4B" fill-rule="evenodd"/><path d="M1810.5 791.761C1810.5 791.761 1810.5 791.761 1810.5 791.761 1833.19 776.543 1861.54 797.848 1889.9 816.109 1921.1 837.413 1957.96 843.5 2000.5 828.283 2000.5 828.283 2000.5 828.283 2000.5 828.283 1963.63 843.5 1926.77 825.239 1895.57 803.935 1864.38 785.674 1838.86 773.5 1810.5 791.761Z" stroke="#007E4B" stroke-width="4.58333" stroke-linecap="round" stroke-linejoin="round" stroke-miterlimit="10" fill="#007E4B" fill-rule="evenodd"/><path d="M2703.86 1053.5C2712.45 1071.83 2718.18 1117.65 2680.95 1166.53 2663.77 1187.91 2663.77 1187.91 2663.77 1187.91 2640.86 1221.51 2606.5 1252.06 2612.23 1276.5 2612.23 1276.5 2612.23 1276.5 2612.23 1276.5 2606.5 1258.17 2655.18 1224.57 2675.23 1200.13 2692.41 1175.69 2692.41 1175.69 2692.41 1175.69 2732.5 1120.71 2712.45 1074.88 2703.86 1053.5Z" stroke="#007E4B" stroke-width="4.58333" stroke-linecap="round" stroke-linejoin="round" stroke-miterlimit="10" fill="#007E4B" fill-rule="evenodd"/><path d="M2612.85 898.5C2612.85 898.5 2612.85 898.5 2612.85 898.5 2627.1 919.8 2627.1 959.357 2612.85 989.786 2595.75 1026.3 2581.5 1068.9 2601.45 1111.5 2601.45 1111.5 2601.45 1111.5 2601.45 1111.5 2584.35 1074.99 2607.15 1032.39 2624.25 995.871 2638.5 962.4 2632.8 925.886 2612.85 898.5Z" stroke="#007E4B" stroke-width="4.58333" stroke-linecap="round" stroke-linejoin="round" stroke-miterlimit="10" fill="#007E4B" fill-rule="evenodd"/><path d="M2326.5 691.5C2343.73 697.59 2366.69 706.724 2372.44 779.799 2375.31 807.202 2375.31 807.202 2375.31 807.202 2378.18 846.784 2392.53 883.321 2415.5 895.5 2415.5 895.5 2415.5 895.5 2415.5 895.5 2398.27 886.366 2392.53 846.784 2389.66 813.291 2383.92 785.888 2383.92 785.888 2383.92 785.888 2381.05 706.724 2346.6 700.634 2326.5 691.5Z" stroke="#007E4B" stroke-width="4.58333" stroke-linecap="round" stroke-linejoin="round" stroke-miterlimit="10" fill="#007E4B" fill-rule="evenodd"/><path d="M2475.5 786.5C2475.5 786.5 2475.5 786.5 2475.5 786.5 2495.5 801.727 2486.93 838.273 2484.07 871.773 2478.36 914.409 2484.07 950.955 2515.5 987.5 2515.5 987.5 2515.5 987.5 2515.5 987.5 2489.79 957.046 2489.79 914.409 2495.5 874.818 2501.21 835.227 2504.07 804.773 2475.5 786.5Z" stroke="#007E4B" stroke-width="4.58333" stroke-linecap="round" stroke-linejoin="round" stroke-miterlimit="10" fill="#007E4B" fill-rule="evenodd"/><path d="M1573.5 1084.5C1579.21 1066.3 1599.2 1035.97 1656.3 1026.87 1684.85 1023.83 1684.85 1023.83 1684.85 1023.83 1721.96 1020.8 1759.08 1014.73 1770.5 993.5 1770.5 993.5 1770.5 993.5 1770.5 993.5 1761.93 1008.67 1713.4 1005.63 1681.99 1008.67 1656.3 1014.73 1656.3 1014.73 1656.3 1014.73 1590.63 1023.83 1582.07 1063.27 1573.5 1084.5Z" stroke="#007E4B" stroke-width="4.58333" stroke-linecap="round" stroke-linejoin="round" stroke-miterlimit="10" fill="#007E4B" fill-rule="evenodd"/><path d="M1524.5 1261.5C1524.5 1261.5 1524.5 1261.5 1524.5 1261.5 1527.36 1234.1 1555.96 1209.74 1587.41 1197.57 1624.59 1185.39 1670.34 1170.17 1687.5 1124.5 1687.5 1124.5 1687.5 1124.5 1687.5 1124.5 1673.2 1164.08 1618.87 1173.21 1584.55 1185.39 1547.38 1197.57 1530.22 1224.97 1524.5 1261.5Z" stroke="#007E4B" stroke-width="4.58333" stroke-linecap="round" stroke-linejoin="round" stroke-miterlimit="10" fill="#007E4B" fill-rule="evenodd"/><path d="M1624.33 1623.5C1613 1605.24 1601.67 1571.77 1627.17 1517 1638.5 1489.61 1638.5 1489.61 1638.5 1489.61 1655.5 1453.1 1672.5 1431.8 1661.17 1410.5 1661.17 1410.5 1661.17 1410.5 1661.17 1410.5 1669.67 1425.71 1641.33 1453.1 1627.17 1483.53 1615.83 1507.87 1615.83 1507.87 1615.83 1507.87 1587.5 1571.77 1613 1602.2 1624.33 1623.5Z" stroke="#007E4B" stroke-width="4.58333" stroke-linecap="round" stroke-linejoin="round" stroke-miterlimit="10" fill="#007E4B" fill-rule="evenodd"/><path d="M1541.25 1444.5C1541.25 1444.5 1541.25 1444.5 1541.25 1444.5 1538.38 1417.02 1567.12 1398.7 1595.87 1377.32 1627.5 1355.95 1647.62 1322.36 1650.5 1273.5 1650.5 1273.5 1650.5 1273.5 1650.5 1273.5 1647.62 1316.25 1618.87 1343.73 1587.25 1368.16 1558.5 1389.54 1535.5 1407.86 1541.25 1444.5Z" stroke="#007E4B" stroke-width="4.58333" stroke-linecap="round" stroke-linejoin="round" stroke-miterlimit="10" fill="#007E4B" fill-rule="evenodd"/><path d="M1732.68 1782.5C1718.56 1767.31 1701.62 1736.92 1715.74 1679.19 1721.38 1651.85 1721.38 1651.85 1721.38 1651.85 1732.68 1612.35 1735.5 1566.77 1721.38 1545.5 1721.38 1545.5 1721.38 1545.5 1721.38 1545.5 1732.68 1560.69 1718.56 1612.35 1710.09 1645.77 1701.62 1676.15 1701.62 1676.15 1701.62 1676.15 1687.5 1743 1718.56 1767.31 1732.68 1782.5Z" stroke="#007E4B" stroke-width="4.58333" stroke-linecap="round" stroke-linejoin="round" stroke-miterlimit="10" fill="#007E4B" fill-rule="evenodd"/><path d="M1863.5 1889.5C1863.5 1889.5 1863.5 1889.5 1863.5 1889.5 1841.32 1877.26 1830.23 1840.54 1833 1803.83 1833 1764.05 1835.77 1718.16 1802.5 1684.5 1802.5 1684.5 1802.5 1684.5 1802.5 1684.5 1830.23 1712.04 1821.91 1764.05 1819.14 1803.83 1816.36 1843.6 1833 1871.14 1863.5 1889.5Z" stroke="#007E4B" stroke-width="4.58333" stroke-linecap="round" stroke-linejoin="round" stroke-miterlimit="10" fill="#007E4B" fill-rule="evenodd"/><path d="M2200.5 1971.33C2180.54 1971.33 2157.72 1974.39 2126.35 1907.17 2112.09 1882.72 2112.09 1882.72 2112.09 1882.72 2094.98 1846.06 2072.17 1818.56 2046.5 1815.5 2046.5 1815.5 2046.5 1815.5 2046.5 1815.5 2063.61 1815.5 2083.57 1852.17 2097.83 1882.72 2112.09 1907.17 2112.09 1907.17 2112.09 1907.17 2143.46 1980.5 2180.54 1971.33 2200.5 1971.33Z" stroke="#007E4B" stroke-width="4.58333" stroke-linecap="round" stroke-linejoin="round" stroke-miterlimit="10" fill="#007E4B" fill-rule="evenodd"/><path d="M2029.5 1940.5C2029.5 1940.5 2029.5 1940.5 2029.5 1940.5 2003.68 1934.43 1997.95 1898 1992.21 1864.61 1980.74 1825.14 1960.66 1791.75 1920.5 1770.5 1920.5 1770.5 1920.5 1770.5 1920.5 1770.5 1954.92 1788.71 1969.26 1828.18 1977.87 1867.64 1986.47 1904.07 1995.08 1934.43 2029.5 1940.5Z" stroke="#007E4B" stroke-width="4.58333" stroke-linecap="round" stroke-linejoin="round" stroke-miterlimit="10" fill="#007E4B" fill-rule="evenodd"/><path d="M2392.5 1922.26C2372.5 1928.32 2341.07 1934.37 2295.36 1898.05 2272.5 1879.89 2272.5 1879.89 2272.5 1879.89 2243.93 1852.66 2215.36 1834.5 2192.5 1840.55 2192.5 1840.55 2192.5 1840.55 2192.5 1840.55 2209.64 1837.53 2241.07 1867.79 2263.93 1888.97 2286.79 1907.13 2286.79 1907.13 2286.79 1907.13 2338.21 1949.5 2372.5 1928.32 2392.5 1922.26Z" stroke="#007E4B" stroke-width="4.58333" stroke-linecap="round" stroke-linejoin="round" stroke-miterlimit="10" fill="#007E4B" fill-rule="evenodd"/><path d="M2532.5 1818.98C2532.5 1818.98 2532.5 1818.98 2532.5 1818.98 2515.33 1837.26 2478.14 1837.26 2446.67 1825.07 2409.47 1809.83 2363.69 1788.5 2326.5 1812.88 2326.5 1812.88 2326.5 1812.88 2326.5 1812.88 2357.97 1791.55 2406.61 1825.07 2440.94 1837.26 2475.28 1852.5 2506.75 1843.36 2532.5 1818.98Z" stroke="#007E4B" stroke-width="4.58333" stroke-linecap="round" stroke-linejoin="round" stroke-miterlimit="10" fill="#007E4B" fill-rule="evenodd"/><path d="M2680.5 1486.5C2677.66 1507.84 2663.43 1538.33 2609.38 1559.67 2583.78 1568.82 2583.78 1568.82 2583.78 1568.82 2549.64 1581.01 2524.03 1587.11 2515.5 1611.5 2515.5 1611.5 2515.5 1611.5 2515.5 1611.5 2521.19 1593.21 2558.17 1593.21 2589.47 1584.06 2615.07 1574.91 2615.07 1574.91 2615.07 1574.91 2674.81 1550.52 2677.66 1507.84 2680.5 1486.5Z" stroke="#007E4B" stroke-width="4.58333" stroke-linecap="round" stroke-linejoin="round" stroke-miterlimit="10" fill="#007E4B" fill-rule="evenodd"/><path d="M2629.5 1666.5C2629.5 1666.5 2629.5 1666.5 2629.5 1666.5 2615.27 1687.87 2581.12 1681.76 2549.81 1681.76 2509.96 1675.66 2475.81 1687.87 2444.5 1724.5 2444.5 1724.5 2444.5 1724.5 2444.5 1724.5 2470.12 1693.97 2509.96 1690.92 2546.96 1693.97 2583.96 1697.03 2612.42 1697.03 2629.5 1666.5Z" stroke="#007E4B" stroke-width="4.58333" stroke-linecap="round" stroke-linejoin="round" stroke-miterlimit="10" fill="#007E4B" fill-rule="evenodd"/><path d="M2737.5 1289.5C2734.66 1310.75 2723.28 1353.25 2669.22 1386.64 2640.78 1401.82 2640.78 1401.82 2640.78 1401.82 2603.79 1420.04 2578.19 1429.14 2572.5 1459.5 2572.5 1459.5 2572.5 1459.5 2572.5 1459.5 2575.34 1438.25 2615.17 1432.18 2649.31 1417 2674.91 1401.82 2674.91 1401.82 2674.91 1401.82 2737.5 1365.39 2734.66 1313.79 2737.5 1289.5Z" stroke="#007E4B" stroke-width="4.58333" stroke-linecap="round" stroke-linejoin="round" stroke-miterlimit="10" fill="#007E4B" fill-rule="evenodd"/><path d="M2326.5 690.816C2297.99 684.658 2283.74 678.5 2238.13 733.921 2209.62 770.868 2172.56 795.5 2135.5 792.421 2135.5 792.421 2135.5 792.421 2135.5 792.421 2178.26 795.5 2218.17 783.184 2249.53 743.158 2292.29 690.816 2303.69 684.658 2326.5 690.816Z" stroke="#69B673" stroke-width="4.58333" stroke-linecap="round" stroke-linejoin="round" stroke-miterlimit="10" fill="#69B673" fill-rule="evenodd"/><path d="M2035.83 758.559C2024.46 801.108 2007.4 828.461 1987.5 831.5 1987.5 831.5 1987.5 831.5 1987.5 831.5 2015.93 828.461 2035.83 813.265 2050.05 764.637 2061.42 722.088 2104.07 676.5 2132.5 676.5 2132.5 676.5 2132.5 676.5 2132.5 676.5 2098.38 676.5 2050.05 709.931 2035.83 758.559Z" stroke="#69B673" stroke-width="4.58333" stroke-linecap="round" stroke-linejoin="round" stroke-miterlimit="10" fill="#69B673" fill-rule="evenodd"/><path d="M1812.5 788.5C1790.1 806.75 1773.3 809.792 1770.5 882.792 1770.5 931.458 1787.3 980.125 1756.5 1007.5 1756.5 1007.5 1756.5 1007.5 1756.5 1007.5 1790.1 977.083 1784.5 934.5 1784.5 882.792 1787.3 815.875 1792.9 803.708 1812.5 788.5Z" stroke="#69B673" stroke-width="4.58333" stroke-linecap="round" stroke-linejoin="round" stroke-miterlimit="10" fill="#69B673" fill-rule="evenodd"/><path d="M1903.83 797.977C1903.83 843.669 1895.33 889.362 1875.5 898.5 1875.5 898.5 1875.5 898.5 1875.5 898.5 1901 886.315 1918 849.762 1918 797.977 1918 752.285 1935 709.639 1960.5 700.5 1960.5 700.5 1960.5 700.5 1960.5 700.5 1929.33 709.639 1903.83 746.192 1903.83 797.977Z" stroke="#69B673" stroke-width="4.58333" stroke-linecap="round" stroke-linejoin="round" stroke-miterlimit="10" fill="#69B673" fill-rule="evenodd"/><path d="M2738.64 1298.5C2741.5 1252.79 2727.2 1207.07 2684.3 1179.64 2647.12 1155.26 2612.8 1143.07 2598.5 1106.5 2598.5 1106.5 2598.5 1106.5 2598.5 1106.5 2615.66 1146.12 2629.96 1164.4 2670 1194.88 2727.2 1234.5 2732.92 1264.98 2738.64 1298.5Z" stroke="#69B673" stroke-width="4.58333" stroke-linecap="round" stroke-linejoin="round" stroke-miterlimit="10" fill="#69B673" fill-rule="evenodd"/><path d="M2590.36 996C2547.5 999.071 2518.93 992.929 2507.5 974.5 2507.5 974.5 2507.5 974.5 2507.5 974.5 2521.79 999.071 2541.79 1014.43 2590.36 1008.29 2633.21 1005.21 2698.93 1032.86 2707.5 1060.5 2707.5 1060.5 2707.5 1060.5 2707.5 1060.5 2696.07 1026.71 2636.07 989.857 2590.36 996Z" stroke="#69B673" stroke-width="4.58333" stroke-linecap="round" stroke-linejoin="round" stroke-miterlimit="10" fill="#69B673" fill-rule="evenodd"/><path d="M2478.5 785.87C2455.69 767.648 2444.28 755.5 2381.55 779.796 2338.78 798.018 2301.72 834.463 2267.5 813.204 2267.5 813.204 2267.5 813.204 2267.5 813.204 2304.57 837.5 2338.78 813.204 2384.41 794.981 2444.28 770.685 2458.54 770.685 2478.5 785.87Z" stroke="#69B673" stroke-width="4.58333" stroke-linecap="round" stroke-linejoin="round" stroke-miterlimit="10" fill="#69B673" fill-rule="evenodd"/><path d="M2506.57 880.889C2466.54 899.222 2420.8 908.389 2406.5 893.111 2406.5 893.111 2406.5 893.111 2406.5 893.111 2426.51 911.444 2466.54 914.5 2512.29 893.111 2549.46 877.833 2595.2 874.778 2609.5 899.222 2609.5 899.222 2609.5 899.222 2609.5 899.222 2589.49 871.722 2549.46 859.5 2506.57 880.889Z" stroke="#69B673" stroke-width="4.58333" stroke-linecap="round" stroke-linejoin="round" stroke-miterlimit="10" fill="#69B673" fill-rule="evenodd"/><path d="M1672.93 901.5C1667.2 910.665 1638.5 944.267 1664.33 996.199 1684.41 1038.97 1704.5 1087.84 1687.28 1124.5 1687.28 1124.5 1687.28 1124.5 1687.28 1124.5 1704.5 1081.73 1698.76 1035.91 1675.8 990.089 1658.59 953.432 1658.59 922.884 1672.93 901.5Z" stroke="#69B673" stroke-width="4.58333" stroke-linecap="round" stroke-linejoin="round" stroke-miterlimit="10" fill="#69B673" fill-rule="evenodd"/><path d="M1604.15 1213.01C1635.53 1240.54 1652.65 1268.08 1646.94 1289.5 1646.94 1289.5 1646.94 1289.5 1646.94 1289.5 1655.5 1261.96 1649.79 1234.43 1612.71 1200.77 1581.32 1173.23 1561.35 1112.04 1572.76 1084.5 1572.76 1084.5 1572.76 1084.5 1572.76 1084.5 1558.5 1118.16 1569.91 1179.35 1604.15 1213.01Z" stroke="#69B673" stroke-width="4.58333" stroke-linecap="round" stroke-linejoin="round" stroke-miterlimit="10" fill="#69B673" fill-rule="evenodd"/><path d="M1541.5 1441.5C1547.22 1472.04 1547.22 1490.36 1612.98 1511.74 1655.88 1527.01 1710.2 1514.8 1724.5 1554.5 1724.5 1554.5 1724.5 1554.5 1724.5 1554.5 1710.2 1511.74 1664.45 1514.8 1615.84 1499.53 1555.8 1478.15 1547.22 1465.93 1541.5 1441.5Z" stroke="#69B673" stroke-width="4.58333" stroke-linecap="round" stroke-linejoin="round" stroke-miterlimit="10" fill="#69B673" fill-rule="evenodd"/><path d="M1584.34 1356.32C1624.42 1374.68 1661.64 1396.09 1664.5 1417.5 1664.5 1417.5 1664.5 1417.5 1664.5 1417.5 1661.64 1389.97 1635.87 1362.44 1590.07 1341.03 1552.85 1325.74 1521.36 1292.09 1524.23 1261.5 1524.23 1261.5 1524.23 1261.5 1524.23 1261.5 1518.5 1298.21 1541.4 1334.91 1584.34 1356.32Z" stroke="#69B673" stroke-width="4.58333" stroke-linecap="round" stroke-linejoin="round" stroke-miterlimit="10" fill="#69B673" fill-rule="evenodd"/><path d="M1624.5 1620.5C1644.41 1642.11 1647.25 1676.07 1712.66 1663.72 1749.62 1654.46 1778.06 1666.8 1803.66 1688.41 1806.5 1691.5 1806.5 1691.5 1803.66 1685.33 1775.22 1660.63 1752.47 1639.02 1709.81 1648.28 1650.09 1660.63 1638.72 1639.02 1624.5 1620.5Z" stroke="#69B673" stroke-width="4.58333" stroke-linecap="round" stroke-linejoin="round" stroke-miterlimit="10" fill="#69B673" fill-rule="evenodd"/><path d="M1849.93 1791.5C1886.94 1770.5 1918.26 1767.5 1932.5 1779.5 1932.5 1779.5 1932.5 1779.5 1932.5 1779.5 1912.57 1761.5 1886.94 1755.5 1844.24 1779.5 1807.22 1797.5 1747.43 1797.5 1727.5 1776.5 1727.5 1776.5 1727.5 1776.5 1727.5 1776.5 1750.28 1803.5 1807.22 1815.5 1849.93 1791.5Z" stroke="#69B673" stroke-width="4.58333" stroke-linecap="round" stroke-linejoin="round" stroke-miterlimit="10" fill="#69B673" fill-rule="evenodd"/><path d="M2027.5 1940.35C2053.23 1949.43 2070.39 1958.5 2119 1910.11 2153.31 1876.84 2173.33 1834.5 2210.5 1840.55 2210.5 1840.55 2210.5 1840.55 2210.5 1840.55 2167.61 1834.5 2144.73 1864.74 2110.42 1898.01 2061.81 1943.38 2050.38 1946.4 2027.5 1940.35Z" stroke="#69B673" stroke-width="4.58333" stroke-linecap="round" stroke-linejoin="round" stroke-miterlimit="10" fill="#69B673" fill-rule="evenodd"/><path d="M1966.66 1867.71C1998.19 1834.05 2035.44 1809.56 2055.5 1815.68 2055.5 1815.68 2055.5 1815.68 2055.5 1815.68 2029.71 1806.5 1992.46 1818.74 1958.07 1855.47 1926.54 1886.08 1886.43 1904.44 1863.5 1889.14 1863.5 1889.14 1863.5 1889.14 1863.5 1889.14 1892.16 1907.5 1932.28 1901.38 1966.66 1867.71Z" stroke="#69B673" stroke-width="4.58333" stroke-linecap="round" stroke-linejoin="round" stroke-miterlimit="10" fill="#69B673" fill-rule="evenodd"/><path d="M2198.5 1974.5C2207.06 1971.45 2252.73 1968.39 2269.85 1913.41 2284.12 1867.59 2301.25 1821.77 2335.5 1806.5 2335.5 1806.5 2335.5 1806.5 2335.5 1806.5 2295.54 1824.83 2269.85 1858.43 2255.58 1910.35 2244.17 1947.01 2221.33 1965.34 2198.5 1974.5Z" stroke="#69B673" stroke-width="4.58333" stroke-linecap="round" stroke-linejoin="round" stroke-miterlimit="10" fill="#69B673" fill-rule="evenodd"/><path d="M2441.15 1800.18C2435.41 1757.37 2438.28 1723.73 2455.5 1711.5 2455.5 1711.5 2455.5 1711.5 2455.5 1711.5 2432.54 1729.85 2421.07 1751.25 2426.8 1803.24 2435.41 1846.05 2415.33 1910.27 2389.5 1922.5 2389.5 1922.5 2389.5 1922.5 2389.5 1922.5 2421.07 1907.21 2449.76 1852.17 2441.15 1800.18Z" stroke="#69B673" stroke-width="4.58333" stroke-linecap="round" stroke-linejoin="round" stroke-miterlimit="10" fill="#69B673" fill-rule="evenodd"/><path d="M2629.5 1669.5C2641 1642.12 2652.5 1626.91 2615.12 1566.06 2589.25 1526.51 2563.38 1493.05 2574.88 1453.5 2574.88 1453.5 2574.88 1453.5 2574.88 1453.5 2560.5 1499.13 2577.75 1529.56 2603.62 1572.15 2638.12 1629.95 2638.12 1645.16 2629.5 1669.5Z" stroke="#69B673" stroke-width="4.58333" stroke-linecap="round" stroke-linejoin="round" stroke-miterlimit="10" fill="#69B673" fill-rule="evenodd"/><path d="M2672.04 1510.5C2686.19 1480.14 2697.5 1461.92 2660.73 1389.05 2635.27 1340.48 2598.5 1304.04 2612.64 1258.5 2612.64 1258.5 2612.64 1258.5 2612.64 1258.5 2598.5 1310.11 2621.13 1346.55 2646.59 1398.16 2683.36 1467.99 2683.36 1483.17 2672.04 1510.5Z" stroke="#69B673" stroke-width="4.58333" stroke-linecap="round" stroke-linejoin="round" stroke-miterlimit="10" fill="#69B673" fill-rule="evenodd"/><path d="M2544.45 1706.42C2524.41 1666.68 2507.23 1620.84 2521.55 1602.5 2521.55 1602.5 2521.55 1602.5 2521.55 1602.5 2501.5 1626.95 2510.09 1666.68 2530.14 1712.53 2550.18 1752.26 2553.05 1798.11 2533 1819.5 2533 1819.5 2533 1819.5 2533 1819.5 2558.77 1795.05 2564.5 1752.26 2544.45 1706.42Z" stroke="#69B673" stroke-width="4.58333" stroke-linecap="round" stroke-linejoin="round" stroke-miterlimit="10" fill="#69B673" fill-rule="evenodd"/><path d="M2240.56 733.522C2229.04 748.739 2217.52 757.87 2206 767 2206 767 2206 767 2206 767 2217.52 757.87 2231.92 751.783 2243.44 736.565 2257.84 718.304 2269.36 703.087 2278 697 2278 697 2278 697 2278 697 2269.36 703.087 2254.96 715.261 2240.56 733.522Z" fill="#FFFFFF" fill-rule="evenodd"/><path d="M2038.1 760.571C2032.4 778.743 2026.7 793.886 2021 806 2021 806 2021 806 2021 806 2026.7 793.886 2035.25 784.8 2040.95 760.571 2046.65 739.371 2058.05 715.143 2078 700 2078 700 2078 700 2078 700 2058.05 715.143 2043.8 736.343 2038.1 760.571Z" fill="#FFFFFF" fill-rule="evenodd"/><path d="M1773 882.857C1773 901.143 1781 940.762 1778.33 956 1778.33 956 1778.33 956 1778.33 956 1781 940.762 1775.67 901.143 1775.67 882.857 1775.67 858.476 1775.67 840.191 1778.33 828 1778.33 828 1778.33 828 1778.33 828 1775.67 840.191 1773 858.476 1773 882.857Z" fill="#FFFFFF" fill-rule="evenodd"/><path d="M1907 797.725C1907 816.175 1907 834.625 1907 850 1907 850 1907 850 1907 850 1907 834.625 1909.71 816.175 1909.71 797.725 1909.71 776.2 1912.43 748.525 1926 727 1926 727 1926 727 1926 727 1912.43 748.525 1907 773.125 1907 797.725Z" fill="#FFFFFF" fill-rule="evenodd"/><path d="M2586.27 996C2572.12 999 2555.15 999 2541 999 2541 999 2541 999 2541 999 2555.15 999 2566.46 1002 2589.1 1002 2608.9 999 2634.37 1002 2657 1014 2657 1014 2657 1014 2657 1014 2634.37 1002 2608.9 996 2586.27 996Z" fill="#FFFFFF" fill-rule="evenodd"/><path d="M2380.7 782C2366.45 788 2332.25 812 2318 815 2318 815 2318 815 2318 815 2332.25 812 2366.45 791 2383.55 785 2403.5 776 2417.75 770 2432 767 2432 767 2432 767 2432 767 2417.75 770 2403.5 773 2380.7 782Z" fill="#FFFFFF" fill-rule="evenodd"/><path d="M2506.6 882.4C2489.5 888.6 2475.25 894.8 2461 901 2461 901 2461 901 2461 901 2475.25 894.8 2492.35 891.7 2506.6 885.5 2526.55 876.2 2552.2 870 2575 873.1 2575 873.1 2575 873.1 2575 873.1 2552.2 870 2526.55 873.1 2506.6 882.4Z" fill="#FFFFFF" fill-rule="evenodd"/><path d="M1607.5 1208.64C1621.88 1220.76 1630.5 1235.91 1642 1245 1642 1245 1642 1245 1642 1245 1630.5 1235.91 1627.63 1223.79 1610.38 1208.64 1593.12 1193.48 1578.75 1172.27 1573 1145 1573 1145 1573 1145 1573 1145 1578.75 1172.27 1590.25 1193.48 1607.5 1208.64Z" fill="#FFFFFF" fill-rule="evenodd"/><path d="M1612.57 1507C1626.86 1513 1649.71 1516 1664 1519 1664 1519 1664 1519 1664 1519 1649.71 1513 1629.71 1510 1612.57 1504 1592.57 1498 1575.43 1492 1564 1486 1564 1486 1564 1486 1564 1486 1575.43 1492 1589.71 1501 1612.57 1507Z" fill="#FFFFFF" fill-rule="evenodd"/><path d="M1587.21 1352.33C1601.47 1361.58 1618.59 1367.75 1630 1377 1630 1377 1630 1377 1630 1377 1618.59 1367.75 1604.32 1358.5 1587.21 1349.25 1567.24 1340 1547.26 1327.67 1533 1303 1533 1303 1533 1303 1533 1303 1547.26 1327.67 1564.38 1343.08 1587.21 1352.33Z" fill="#FFFFFF" fill-rule="evenodd"/><path d="M1678.38 1004.89C1669.62 986.579 1657.92 974.368 1655 953 1655 962.158 1655 974.368 1675.46 1014.05 1690.08 1038.47 1693 1069 1693 1069 1693 1053.74 1687.15 1023.21 1678.38 1004.89Z" fill="#FFFFFF" fill-rule="evenodd"/><path d="M1846.8 1785.09C1863.75 1775.55 1877.88 1769.18 1892 1766 1892 1766 1892 1766 1892 1766 1877.88 1769.18 1866.57 1769.18 1846.8 1781.91 1827.02 1791.45 1801.6 1801 1779 1797.82 1779 1797.82 1779 1797.82 1779 1797.82 1804.42 1801 1827.02 1797.82 1846.8 1785.09Z" fill="#FFFFFF" fill-rule="evenodd"/><path d="M2111.74 1904.21C2123.1 1891.93 2148.65 1858.14 2160 1852 2160 1852 2160 1852 2160 1852 2145.81 1858.14 2123.1 1891.93 2108.9 1901.14 2094.71 1919.57 2080.52 1931.86 2072 1938 2072 1938 2072 1938 2072 1938 2083.35 1931.86 2094.71 1922.64 2111.74 1904.21Z" fill="#FFFFFF" fill-rule="evenodd"/><path d="M1963.67 1858.48C1975.06 1846.29 1983.61 1837.14 1995 1828 1995 1828 1995 1828 1995 1828 1983.61 1837.14 1972.21 1843.24 1960.82 1855.43 1943.73 1873.71 1923.79 1888.95 1901 1892 1901 1892 1901 1892 1901 1892 1923.79 1888.95 1946.58 1876.76 1963.67 1858.48Z" fill="#FFFFFF" fill-rule="evenodd"/><path d="M2435 1799.78C2432 1784.54 2429 1766.24 2429 1751 2429 1751 2429 1751 2429 1751 2429 1766.24 2426 1778.44 2429 1802.83 2435 1824.17 2432 1851.61 2423 1876 2423 1876 2423 1876 2423 1876 2432 1851.61 2438 1824.17 2435 1799.78Z" fill="#FFFFFF" fill-rule="evenodd"/><path d="M2609.33 1568.97C2598 1553.65 2583.83 1538.32 2581 1523 2581 1523 2581 1523 2581 1523 2583.83 1538.32 2595.17 1556.71 2606.5 1568.97 2617.83 1590.42 2626.33 1605.74 2632 1618 2632 1618 2632 1618 2632 1618 2626.33 1605.74 2620.67 1587.35 2609.33 1568.97Z" fill="#FFFFFF" fill-rule="evenodd"/><path d="M2651.95 1391.92C2643.26 1373.59 2625.9 1358.32 2623 1340 2623 1340 2623 1340 2623 1340 2625.9 1358.32 2640.37 1376.65 2649.05 1394.97 2660.63 1419.41 2672.21 1437.73 2678 1453 2678 1453 2678 1453 2678 1453 2672.21 1434.68 2666.42 1416.35 2651.95 1391.92Z" fill="#FFFFFF" fill-rule="evenodd"/><path d="M2534.92 1708.75C2529.23 1693.5 2520.69 1678.25 2515 1663 2515 1663 2515 1663 2515 1663 2520.69 1678.25 2526.38 1696.55 2532.08 1711.8 2543.46 1733.15 2552 1757.55 2546.31 1785 2546.31 1785 2546.31 1785 2546.31 1785 2552 1757.55 2546.31 1730.1 2534.92 1708.75Z" fill="#FFFFFF" fill-rule="evenodd"/><path d="M2260.26 1894C2254.47 1915.39 2254.47 1930.67 2240 1949 2248.68 1939.83 2254.47 1930.67 2268.95 1887.89 2277.63 1863.44 2295 1839 2295 1839 2286.32 1848.17 2266.05 1875.67 2260.26 1894Z" fill="#FFFFFF" fill-rule="evenodd"/><path d="M1670 1653.67C1681.5 1657 1704.5 1650.33 1716 1650.33 1727.5 1647 1744.75 1647 1762 1657 1750.5 1650.33 1730.38 1650.33 1716 1653.67 1701.62 1653.67 1678.62 1657 1670 1653.67Z" fill="#FFFFFF" fill-rule="evenodd"/><path d="M2632 1151C2649.09 1166.18 2708.91 1187.43 2726 1236 2714.61 1214.75 2688.97 1193.5 2677.58 1184.39 2666.18 1175.29 2637.7 1160.11 2632 1151Z" fill="#FFFFFF" fill-rule="evenodd"/></g></svg>