<svg width="494" height="485" xmlns="http://www.w3.org/2000/svg" xmlns:xlink="http://www.w3.org/1999/xlink" xml:space="preserve" overflow="hidden"><g transform="translate(-829 -528)"><path d="M1104.41 531.647C972.071 517 902.781 604.217 889.048 620.862 859.085 656.814 837.861 700.756 832.242 750.024 826 807.947 840.982 860.544 870.321 903.154 873.442 906.483 880.309 909.812 889.672 901.822 895.29 897.162 902.781 893.833 910.896 893.833 929.623 893.833 944.605 910.477 944.605 929.785 944.605 937.774 942.108 944.432 938.987 950.424 932.744 961.077 937.114 967.735 941.484 970.398 973.32 991.037 1010.15 1004.35 1048.85 1009.68 1119.39 1019 1187.43 993.7 1239.24 946.43 1259.22 927.122 1307.91 887.175 1320.39 794.631 1336 659.477 1231.13 548.958 1104.41 531.647Z" fill="#FFF5AD" fill-rule="evenodd"/><path d="M874.384 891.251C851.878 856.56 840 817.867 840 776.504 840 768.499 840.625 759.826 841.25 751.153 846.877 706.455 865.632 663.091 895.64 627.066 895.64 627.066 896.265 626.399 896.265 626.399 948.154 563.021 1021.92 533 1102.57 541.673 1169.46 551.013 1230.1 586.371 1269.49 639.742 1297 677.768 1312 721.799 1312 767.832 1312 775.837 1311.38 784.51 1310.12 793.183 1298.87 873.906 1259.49 912.6 1237.61 933.948 1237.61 933.948 1233.23 937.951 1232.6 938.618 1180.72 985.984 1114.45 1008 1049.43 999.327 1014.42 994.657 979.412 981.982 949.404 963.969 947.529 962.635 943.778 959.966 947.529 953.295 951.28 946.624 953.78 938.618 953.78 929.945 953.78 904.594 933.775 883.246 910.019 883.246 900.016 883.246 891.264 887.249 883.762 893.253 878.76 895.921 875.635 893.253 874.384 891.251Z" fill="#F6DEEB" fill-rule="evenodd"/><path d="M1104.41 531.647C972.071 517 902.781 604.217 889.048 620.862 859.085 656.814 837.861 700.756 832.242 750.024 826 807.947 840.982 860.544 870.321 903.154 873.442 906.483 880.309 909.812 889.672 901.822 895.29 897.162 902.781 893.833 910.896 893.833 929.623 893.833 944.605 910.477 944.605 929.785 944.605 937.774 942.108 944.432 938.987 950.424 932.744 961.077 937.114 967.735 941.484 970.398 973.32 991.037 1010.15 1004.35 1048.85 1009.68 1119.39 1019 1187.43 993.7 1239.24 946.43 1259.22 927.122 1307.91 887.175 1320.39 794.631 1336 659.477 1231.13 548.958 1104.41 531.647Z" stroke="#58585A" stroke-width="1.71893" stroke-linecap="round" stroke-linejoin="round" stroke-miterlimit="10" fill="none" fill-rule="evenodd"/><path d="M874.884 891.751C852.378 857.06 840.5 818.367 840.5 777.004 840.5 768.999 841.125 760.326 841.75 751.653 847.377 706.955 866.132 663.591 896.14 627.566 896.14 627.566 896.765 626.899 896.765 626.899 948.654 563.521 1022.42 533.5 1103.07 542.173 1169.96 551.513 1230.6 586.871 1269.99 640.242 1297.5 678.268 1312.5 722.299 1312.5 768.331 1312.5 776.337 1311.87 785.01 1310.62 793.683 1299.37 874.406 1259.99 913.1 1238.11 934.448 1238.11 934.448 1233.73 938.451 1233.1 939.118 1181.22 986.485 1114.95 1008.5 1049.93 999.827 1014.92 995.157 979.912 982.482 949.904 964.469 948.028 963.135 944.277 960.466 948.028 953.795 951.779 947.124 954.28 939.118 954.28 930.445 954.28 905.094 934.275 883.746 910.518 883.746 900.516 883.746 891.763 887.749 884.262 893.753 879.26 896.421 876.134 893.753 874.884 891.751Z" stroke="#58585A" stroke-width="1.14583" stroke-linecap="round" stroke-linejoin="round" stroke-miterlimit="10" fill="none" fill-rule="evenodd"/></g></svg>