<svg width="497" height="486" xmlns="http://www.w3.org/2000/svg" xmlns:xlink="http://www.w3.org/1999/xlink" xml:space="preserve" overflow="hidden"><g transform="translate(-1552 -527)"><path d="M280.046 15.374C146.93 0 77.2325 87.565 63.4186 104.276 33.2791 140.371 11.9302 185.156 6.27907 234.621 0 292.106 15.0698 344.912 44.5814 387.692 46.4651 389.698 47.7209 391.703 49.6046 394.377 55.8837 401.061 62.7907 397.719 65.9302 395.714 69.6977 393.708 74.093 392.371 79.1163 392.371 94.186 392.371 106.116 405.74 106.116 421.782 106.116 425.793 105.488 429.804 104.233 433.146 99.8372 443.841 104.233 447.183 107.372 449.857 110.512 451.862 113.023 453.867 116.163 455.873 148.186 475.926 185.233 489.294 224.163 494.642 295.116 504 363.558 479.268 415.674 431.809 435.767 411.756 484.744 371.65 497.302 279.406 513 143.045 407.512 32.0849 280.046 15.374Z" fill="#FFF5AD" fill-rule="evenodd" transform="matrix(-1 0 0 1 2052 515)"/><path d="M37.6689 364.354C12.5563 328.253 0 287.472 0 244.685 0 235.994 0.627815 227.303 1.25563 219.281 6.90596 173.82 25.7404 131.034 55.8755 94.9325 55.8755 94.9325 56.5033 94.264 56.5033 94.264 108.612 30.0843 182.694 0 263.682 9.35955 330.858 18.0506 391.756 54.1517 431.309 107.635 458.932 145.742 474 189.197 474 235.326 474 244.017 473.372 252.708 472.117 261.399 460.816 342.292 421.264 381.067 399.29 401.792 399.29 401.792 394.895 406.472 394.268 407.14 342.159 453.938 275.611 476 210.318 467.309 173.905 462.629 137.491 449.927 106.728 429.871 103.589 427.865 96.6835 423.185 99.8225 414.494 100.45 411.151 101.078 407.809 101.078 405.135 101.078 383.073 84.1272 365.022 64.0371 365.022 60.2702 365.022 56.5033 365.691 52.7364 367.028 49.5974 368.365 43.3192 371.708 37.6689 364.354Z" fill="#A0C7D7" fill-rule="evenodd" transform="matrix(-1 0 0 1 2037 532)"/><path d="M280.046 15.374C146.93 0 77.2325 87.565 63.4186 104.276 33.2791 140.371 11.9302 185.156 6.27907 234.621 0 292.106 15.0698 344.912 44.5814 387.692 46.4651 389.698 47.7209 391.703 49.6046 394.377 55.8837 401.061 62.7907 397.719 65.9302 395.714 69.6977 393.708 74.093 392.371 79.1163 392.371 94.186 392.371 106.116 405.74 106.116 421.782 106.116 425.793 105.488 429.804 104.233 433.146 99.8372 443.841 104.233 447.183 107.372 449.857 110.512 451.862 113.023 453.867 116.163 455.873 148.186 475.926 185.233 489.294 224.163 494.642 295.116 504 363.558 479.268 415.674 431.809 435.767 411.756 484.744 371.65 497.302 279.406 513 143.045 407.512 32.0849 280.046 15.374Z" stroke="#58585A" stroke-width="1.71893" stroke-linecap="round" stroke-linejoin="round" stroke-miterlimit="10" fill="none" fill-rule="evenodd" transform="matrix(-1 0 0 1 2052 515)"/><path d="M37.6689 364.354C12.5563 328.253 0 287.472 0 244.685 0 235.994 0.627815 227.303 1.25563 219.281 6.90596 173.82 25.7404 131.034 55.8755 94.9326 55.8755 94.9326 56.5033 94.2641 56.5033 94.2641 108.612 30.0843 182.694 0 263.682 9.35955 330.858 18.0506 391.756 54.1517 431.309 107.635 458.932 145.742 474 189.197 474 235.326 474 244.017 473.372 252.708 472.117 261.399 460.816 342.292 421.264 381.067 399.29 401.792 399.29 401.792 394.895 406.472 394.268 407.141 342.159 453.938 275.611 476 210.318 467.309 173.905 462.629 137.491 449.927 106.728 429.871 103.589 427.865 96.6835 423.185 99.8225 414.494 100.45 411.152 101.078 407.809 101.078 405.135 101.078 383.073 84.1272 365.023 64.0371 365.023 60.2702 365.023 56.5033 365.691 52.7364 367.028 49.5974 368.365 43.3192 371.708 37.6689 364.354Z" stroke="#58585A" stroke-width="1.14583" stroke-linecap="round" stroke-linejoin="round" stroke-miterlimit="10" fill="none" fill-rule="evenodd" transform="matrix(-1 0 0 1 2037.5 532.5)"/></g></svg>