<svg width="496" height="487" xmlns="http://www.w3.org/2000/svg" xmlns:xlink="http://www.w3.org/1999/xlink" xml:space="preserve" overflow="hidden"><g transform="translate(-811 -1091)"><path d="M1265.48 1437.32C1257.96 1430.62 1252.95 1420.58 1252.95 1408.52 1252.95 1389.1 1267.99 1372.36 1286.79 1372.36 1293.68 1373.03 1302.45 1371.69 1303.71 1363.65 1303.71 1362.31 1304.33 1360.3 1304.33 1358.29 1320 1222.33 1214.72 1111.15 1087.51 1093.73 954.653 1079 885.093 1166.74 871.307 1183.48 841.227 1219.65 819.92 1263.85 814.28 1313.42 803 1414.55 858.147 1500.28 939.613 1544.48 944 1547.16 951.52 1545.82 954.653 1533.1 959.04 1518.36 972.2 1507.65 987.24 1507.65 1006.04 1507.65 1021.08 1524.39 1021.08 1543.81 1021.08 1547.16 1020.45 1550.51 1019.83 1553.86 1017.32 1562.57 1016.69 1571.27 1031.73 1574.62 1102.55 1584 1170.85 1558.55 1222.87 1511 1233.52 1500.28 1252.95 1484.21 1270.49 1456.08 1273.63 1450.72 1273.63 1444.02 1265.48 1437.32Z" fill="#FFF5AD" fill-rule="evenodd"/><path d="M939.773 1532.17C866.319 1489.99 823 1419.03 823 1340.03 823 1332 823.628 1323.29 824.256 1314.59 829.906 1269.73 848.74 1226.22 878.875 1190.07 878.875 1190.07 879.503 1189.4 879.503 1189.4 931.612 1125.8 1005.69 1095 1086.68 1104.37 1153.86 1113.75 1214.76 1149.23 1254.31 1202.79 1281.93 1240.95 1297 1285.13 1297 1331.33 1297 1339.36 1296.37 1348.06 1295.12 1356.77 1295.12 1356.77 1295.12 1362.79 1287.58 1361.45 1263.1 1361.45 1243.64 1382.88 1243.64 1408.32 1243.64 1421.71 1248.66 1434.43 1258.08 1443.13 1262.47 1446.48 1262.47 1451.16 1259.96 1454.51 1246.15 1474.59 1232.34 1487.98 1222.29 1498.03 1222.29 1498.03 1217.9 1502.04 1217.27 1502.71 1167.04 1548.91 1101.75 1571 1038.34 1564.31 1033.32 1563.64 1027.67 1561.63 1030.18 1555.6 1030.81 1551.59 1031.43 1547.57 1031.43 1543.55 1031.43 1518.11 1011.34 1496.69 987.487 1496.69 968.653 1496.69 952.958 1508.74 946.679 1526.14 945.424 1528.82 942.913 1534.18 939.773 1532.17Z" fill="#F6DEEB" fill-rule="evenodd"/><path d="M1265.48 1437.32C1257.96 1430.62 1252.95 1420.58 1252.95 1408.52 1252.95 1389.1 1267.99 1372.36 1286.79 1372.36 1293.68 1373.03 1302.45 1371.69 1303.71 1363.65 1303.71 1362.31 1304.33 1360.3 1304.33 1358.29 1320 1222.33 1214.72 1111.15 1087.51 1093.73 954.653 1079 885.093 1166.74 871.307 1183.48 841.227 1219.65 819.92 1263.85 814.28 1313.42 803 1414.55 858.147 1500.28 939.613 1544.48 944 1547.16 951.52 1545.82 954.653 1533.1 959.04 1518.36 972.2 1507.65 987.24 1507.65 1006.04 1507.65 1021.08 1524.39 1021.08 1543.81 1021.08 1547.16 1020.45 1550.51 1019.83 1553.86 1017.32 1562.57 1016.69 1571.27 1031.73 1574.62 1102.55 1584 1170.85 1558.55 1222.87 1511 1233.52 1500.28 1252.95 1484.21 1270.49 1456.08 1273.63 1450.72 1273.63 1444.02 1265.48 1437.32Z" stroke="#58585A" stroke-width="2.29167" stroke-linecap="round" stroke-linejoin="round" stroke-miterlimit="10" fill="none" fill-rule="evenodd"/><path d="M939.773 1532.17C866.319 1489.99 823 1419.03 823 1340.03 823 1332 823.628 1323.29 824.256 1314.59 829.906 1269.73 848.74 1226.22 878.875 1190.07 878.875 1190.07 879.503 1189.4 879.503 1189.4 931.612 1125.8 1005.69 1095 1086.68 1104.37 1153.86 1113.75 1214.76 1149.23 1254.31 1202.79 1281.93 1240.95 1297 1285.13 1297 1331.33 1297 1339.36 1296.37 1348.06 1295.12 1356.77 1295.12 1356.77 1295.12 1362.79 1287.58 1361.45 1263.1 1361.45 1243.64 1382.88 1243.64 1408.32 1243.64 1421.71 1248.66 1434.43 1258.08 1443.13 1262.47 1446.48 1262.47 1451.16 1259.96 1454.51 1246.15 1474.59 1232.34 1487.98 1222.29 1498.03 1222.29 1498.03 1217.9 1502.04 1217.27 1502.71 1167.04 1548.91 1101.75 1571 1038.34 1564.31 1033.32 1563.64 1027.67 1561.63 1030.18 1555.6 1030.81 1551.59 1031.43 1547.57 1031.43 1543.55 1031.43 1518.11 1011.34 1496.69 987.487 1496.69 968.653 1496.69 952.958 1508.74 946.679 1526.14 945.424 1528.82 942.913 1534.18 939.773 1532.17Z" stroke="#58585A" stroke-width="1.71893" stroke-linecap="round" stroke-linejoin="round" stroke-miterlimit="10" fill="none" fill-rule="evenodd"/></g></svg>