<svg width="496" height="487" xmlns="http://www.w3.org/2000/svg" xmlns:xlink="http://www.w3.org/1999/xlink" xml:space="preserve" overflow="hidden"><g transform="translate(-3066 -1657)"><path d="M288.606 6.69366C238.414 0 187.594 12.0486 143.048 36.8151 136.774 40.8313 131.127 44.1781 124.853 48.1943 122.971 49.5331 119.834 53.5493 123.599 59.5736 125.481 62.9204 126.736 66.9366 126.736 70.9528 126.736 83.0014 117.325 92.3725 106.031 92.3725 101.012 92.3725 95.9928 90.3644 92.2284 87.0175 90.3462 85.0095 84.0721 81.6626 79.6803 87.0175 77.1707 89.695 74.6611 93.0418 72.7789 95.7193 42.0361 131.865 21.3317 176.713 15.6851 226.246 0 362.127 106.031 469.895 233.394 486.629 303.664 496 372.678 471.234 424.753 423.709 429.144 419.692 431.654 417.684 435.418 414.337 442.32 408.313 431.654 397.603 431.654 385.555 431.654 373.506 441.065 363.466 452.358 363.466 456.75 363.466 460.515 364.804 464.279 367.482 470.553 371.498 473.69 366.143 476.2 362.127 477.454 359.449 479.337 356.103 480.591 353.425 493.767 327.989 502.551 300.545 506.315 271.093 522 134.543 416.596 23.4278 288.606 6.69366Z" fill="#FFF5AD" fill-rule="evenodd" transform="matrix(1 0 0 -1 3053 2147)"/><path d="M115.183 40.1414C118.313 38.1344 120.817 36.1273 123.321 34.7892 166.515 10.0354 215.968 0 262.292 6.02122 262.292 6.02122 262.292 6.02122 262.292 6.02122 329.899 14.7185 390.621 50.8458 430.058 104.368 457.602 142.502 472 185.989 472 232.151 472 240.849 471.374 249.546 470.748 258.243 467.618 285.673 459.48 311.765 446.334 336.519 446.334 336.519 444.456 341.202 440.7 342.54 439.448 343.209 436.944 343.209 435.066 342.54 432.562 341.871 430.058 341.202 426.928 341.202 410.026 341.202 396.255 355.921 396.255 373.984 396.255 377.999 396.881 382.013 398.133 385.358 399.385 388.703 403.141 394.724 397.507 399.407 395.629 400.745 394.377 402.752 392.499 404.091 341.167 450.922 274.812 473 209.708 464.303 148.987 456.274 92.6472 426.837 53.8355 382.013 18.1538 341.871 0 292.363 0 240.849 0 232.82 0 224.123 1.25199 216.095 6.25995 170.601 25.0398 127.784 55.0875 91.6563 55.7135 91.6563 55.7135 91.6563 55.7135 90.9873 60.7215 83.628 66.3554 87.6422 68.2334 88.9802 72.6154 90.9873 76.9973 91.6563 81.3793 91.6563 98.2812 91.6563 112.053 76.9378 112.053 59.5431 112.053 56.867 111.427 54.1909 111.427 51.5149 108.297 43.4866 112.679 41.4795 115.183 40.1414Z" fill="#FCDA6F" fill-rule="evenodd" transform="matrix(1 0 0 -1 3078 2136)"/><path d="M288.606 6.69366C238.414 0 187.594 12.0486 143.048 36.8151 136.774 40.8313 131.127 44.1781 124.853 48.1943 122.971 49.5331 119.834 53.5493 123.599 59.5736 125.481 62.9204 126.736 66.9366 126.736 70.9528 126.736 83.0014 117.325 92.3725 106.031 92.3725 101.012 92.3725 95.9928 90.3644 92.2284 87.0175 90.3462 85.0095 84.0721 81.6626 79.6803 87.0175 77.1707 89.695 74.6611 93.0418 72.7789 95.7193 42.0361 131.865 21.3317 176.713 15.6851 226.246 0 362.127 106.031 469.895 233.394 486.629 303.664 496 372.678 471.234 424.753 423.709 429.144 419.692 431.654 417.684 435.418 414.337 442.32 408.313 431.654 397.603 431.654 385.555 431.654 373.506 441.065 363.466 452.358 363.466 456.75 363.466 460.515 364.804 464.279 367.482 470.553 371.498 473.69 366.143 476.2 362.127 477.454 359.449 479.337 356.103 480.591 353.425 493.767 327.989 502.551 300.545 506.315 271.093 522 134.543 416.596 23.4278 288.606 6.69366Z" stroke="#58585A" stroke-width="2.29167" stroke-linecap="round" stroke-linejoin="round" stroke-miterlimit="10" fill="none" fill-rule="evenodd" transform="matrix(1 0 0 -1 3053 2147)"/><path d="M115.183 40.1414C118.313 38.1344 120.817 36.1273 123.321 34.7892 166.515 10.0354 215.968 0 262.292 6.02122 262.292 6.02122 262.292 6.02122 262.292 6.02122 329.899 14.7185 390.621 50.8458 430.058 104.368 457.602 142.502 472 185.989 472 232.151 472 240.849 471.374 249.546 470.748 258.243 467.618 285.673 459.48 311.765 446.334 336.519 446.334 336.519 444.456 341.202 440.7 342.54 439.448 343.209 436.944 343.209 435.066 342.54 432.562 341.871 430.058 341.202 426.928 341.202 410.026 341.202 396.255 355.921 396.255 373.984 396.255 377.999 396.881 382.013 398.133 385.358 399.385 388.703 403.141 394.724 397.507 399.407 395.629 400.745 394.377 402.752 392.499 404.091 341.167 450.922 274.812 473 209.708 464.303 148.987 456.274 92.6472 426.837 53.8355 382.013 18.1538 341.871 0 292.363 0 240.849 0 232.82 0 224.123 1.25199 216.095 6.25995 170.601 25.0398 127.784 55.0875 91.6563 55.7135 91.6563 55.7135 91.6563 55.7135 90.9873 60.7215 83.628 66.3554 87.6422 68.2334 88.9802 72.6154 90.9873 76.9973 91.6563 81.3793 91.6563 98.2812 91.6563 112.053 76.9378 112.053 59.5431 112.053 56.867 111.427 54.1909 111.427 51.5149 108.297 43.4866 112.679 41.4795 115.183 40.1414Z" stroke="#58585A" stroke-width="1.71893" stroke-linecap="round" stroke-linejoin="round" stroke-miterlimit="10" fill="none" fill-rule="evenodd" transform="matrix(1 0 0 -1 3078 2136)"/></g></svg>