<svg width="942" height="967" xmlns="http://www.w3.org/2000/svg" xmlns:xlink="http://www.w3.org/1999/xlink" xml:space="preserve" overflow="hidden"><g transform="translate(-852 -621)"><path d="M1634.53 1456.64C1534.46 1550.52 1404.61 1600 1271.18 1582.24 1028.14 1549.25 828 1333.59 857.784 1063.37 868.506 965.681 907.82 875.608 965.004 804.564 1001.94 757.625 1044.82 717.028 1099.62 686.581 1183.02 637.104 1279.52 613 1376.01 626.955 1617.86 659.939 1818 881.951 1788.22 1152.17 1760.82 1327.24 1672.66 1413.51 1634.53 1456.64Z" fill="#FFF5AD" fill-rule="evenodd"/><path d="M1273.9 1560.51C1144.28 1541.48 1027.73 1470.44 954.003 1365.15 892.163 1277.62 866 1173.6 877.892 1065.77 888.595 975.704 923.083 890.711 981.355 819.672 1020.6 768.93 1062.22 732.142 1108.6 706.771 1109.79 706.771 1109.79 706.771 1109.79 706.771 1191.85 657.297 1285.8 637 1373.8 648.417 1501.05 666.177 1616.4 737.216 1691.32 843.775 1743.65 919.888 1771 1007.42 1771 1098.75 1771 1115.25 1769.81 1131.74 1768.62 1149.5 1743.65 1308.07 1667.54 1389.25 1625.91 1433.65 1625.91 1433.65 1621.16 1438.73 1619.97 1440 1522.45 1532.6 1396.39 1577 1273.9 1560.51Z" fill="#D7E8CE" fill-rule="evenodd"/><path d="M1634.53 1456.64C1534.46 1550.52 1404.61 1600 1271.18 1582.24 1028.14 1549.25 828 1333.59 857.784 1063.37 868.506 965.681 907.82 875.608 965.004 804.564 1001.94 757.625 1044.82 717.028 1099.62 686.581 1183.02 637.104 1279.52 613 1376.01 626.955 1617.86 659.939 1818 881.951 1788.22 1152.17 1760.82 1327.24 1672.66 1413.51 1634.53 1456.64Z" stroke="#58585A" stroke-width="4.0106" stroke-linecap="round" stroke-linejoin="round" stroke-miterlimit="10" fill="none" fill-rule="evenodd"/><path d="M1273.9 1560.51C1144.28 1541.48 1027.73 1470.44 954.003 1365.15 892.163 1277.62 866 1173.6 877.892 1065.77 888.595 975.704 923.083 890.711 981.355 819.672 1020.6 768.93 1062.22 732.142 1108.6 706.771 1109.79 706.771 1109.79 706.771 1109.79 706.771 1191.85 657.297 1285.8 637 1373.8 648.417 1501.05 666.177 1616.4 737.216 1691.32 843.775 1743.65 919.888 1771 1007.42 1771 1098.75 1771 1115.25 1769.81 1131.74 1768.62 1149.5 1743.65 1308.07 1667.54 1389.25 1625.91 1433.65 1625.91 1433.65 1621.16 1438.73 1619.97 1440 1522.45 1532.6 1396.39 1577 1273.9 1560.51Z" stroke="#58585A" stroke-width="2.29167" stroke-linecap="round" stroke-linejoin="round" stroke-miterlimit="10" fill="none" fill-rule="evenodd"/></g></svg>