<svg width="942" height="968" xmlns="http://www.w3.org/2000/svg" xmlns:xlink="http://www.w3.org/1999/xlink" xml:space="preserve" overflow="hidden"><g transform="translate(-2612 -621)"><path d="M3393.56 1457.5C3294.8 1551.47 3165.1 1601 3030.64 1583.22 2789.09 1550.2 2588 1334.32 2617.75 1063.82 2628.46 966.038 2668.91 875.874 2726.03 804.758 2761.73 757.771 2805.75 717.134 2860.49 686.655 2943.78 637.128 3040.16 613 3136.55 626.969 3378.1 659.987 3578 882.224 3548.25 1152.72 3520.88 1327.97 3432.83 1414.32 3393.56 1457.5Z" fill="#FFF5AD" fill-rule="evenodd"/><path d="M3033.71 1561.51C2904.09 1542.48 2787.55 1471.44 2713.81 1366.15 2653.16 1278.62 2627 1174.6 2638.89 1066.77 2648.41 976.705 2684.08 891.711 2741.17 820.672 2780.41 769.93 2822.03 733.142 2869.6 707.771 2869.6 707.771 2869.6 707.771 2870.79 707.771 2952.85 658.297 3046.8 638 3134.8 649.417 3262.05 667.177 3377.4 738.216 3451.13 844.775 3504.65 920.888 3532 1008.42 3532 1099.75 3532 1116.25 3530.81 1132.74 3528.43 1150.5 3503.46 1309.07 3427.35 1390.25 3386.91 1434.65 3386.91 1434.65 3382.16 1439.73 3380.97 1441 3283.45 1533.6 3157.39 1578 3033.71 1561.51Z" fill="#D8EEF1" fill-rule="evenodd"/><path d="M3393.56 1457.5C3294.8 1551.47 3165.1 1601 3030.64 1583.22 2789.09 1550.2 2588 1334.32 2617.75 1063.82 2628.46 966.038 2668.91 875.874 2726.03 804.758 2761.73 757.771 2805.75 717.134 2860.49 686.655 2943.78 637.128 3040.16 613 3136.55 626.969 3378.1 659.987 3578 882.224 3548.25 1152.72 3520.88 1327.97 3432.83 1414.32 3393.56 1457.5Z" stroke="#58585A" stroke-width="4.0106" stroke-linecap="round" stroke-linejoin="round" stroke-miterlimit="10" fill="none" fill-rule="evenodd"/><path d="M3033.71 1561.51C2904.09 1542.48 2787.55 1471.44 2713.81 1366.15 2653.16 1278.62 2627 1174.6 2638.89 1066.77 2648.41 976.705 2684.08 891.711 2741.17 820.672 2780.41 769.93 2822.03 733.142 2869.6 707.771 2869.6 707.771 2869.6 707.771 2870.79 707.771 2952.85 658.297 3046.8 638 3134.8 649.417 3262.05 667.177 3377.4 738.216 3451.13 844.775 3504.65 920.888 3532 1008.42 3532 1099.75 3532 1116.25 3530.81 1132.74 3528.43 1150.5 3503.46 1309.07 3427.35 1390.25 3386.91 1434.65 3386.91 1434.65 3382.16 1439.73 3380.97 1441 3283.45 1533.6 3157.39 1578 3033.71 1561.51Z" stroke="#58585A" stroke-width="2.29167" stroke-linecap="round" stroke-linejoin="round" stroke-miterlimit="10" fill="none" fill-rule="evenodd"/></g></svg>