<svg width="877" height="690" xmlns="http://www.w3.org/2000/svg" xmlns:xlink="http://www.w3.org/1999/xlink" xml:space="preserve" overflow="hidden"><g transform="translate(-1317 -1145)"><path d="M1932.81 1550C1930.58 1540.04 1920.98 1534.35 1913.47 1534.62 1911.59 1534.68 1909.78 1536.75 1909.78 1536.75 1572.02 1771.61 1572.02 1771.61 1572.02 1771.61 1606 1828.66 1606 1828.66 1606 1828.66 1924.2 1572.4 1924.2 1572.4 1924.2 1572.4 1929.69 1568.19 1933.17 1560.03 1932.81 1550Z" fill="#69F4AE" fill-rule="evenodd"/><path d="M1612.03 1786.11C1620.09 1801.94 1617.06 1822.19 1604.15 1828.69 1591.32 1837.2 1574.17 1829.75 1566.04 1811.91 1557.97 1796.08 1561.08 1777.84 1573.92 1769.33 1586.82 1762.83 1603.97 1770.29 1612.03 1786.11Z" fill="#4E936F" fill-rule="evenodd"/><path d="M1604.86 1790.29C1574.39 1787.35 1574.33 1839.52 1565.27 1797.7 1561.05 1785.81 1570.17 1775.46 1581.41 1771.05 1596.43 1766.51 1616.3 1791.89 1604.86 1790.29Z" fill="#296042" fill-rule="evenodd"/><path d="M1573.71 1819.61C1573.71 1819.61 1589.41 1834.97 1604.26 1826.49 1617.22 1818.08 1612.81 1800.33 1612.81 1800.33 1612.81 1800.33 1611.55 1818.28 1602.23 1822.59 1591.09 1828.95 1573.71 1819.61 1573.71 1819.61Z" fill="#69F4AE" fill-rule="evenodd"/><path d="M1599.93 1766.64C1599.93 1766.64 1617.28 1778.08 1617.92 1796.13 1929.52 1554.13 1929.52 1554.13 1929.52 1554.13 1929.52 1554.13 1927.22 1542.16 1919.69 1542.42L1599.93 1766.64Z" fill="#85F9BB" fill-rule="evenodd"/><path d="M1607.72 1776.14C1926.81 1542.17 1926.81 1542.17 1926.81 1542.17 1926.81 1542.17 1926.81 1542.17 1926.88 1544.18 1611.69 1782.02 1611.69 1782.02 1611.69 1782.02 1611.69 1782.02 1609.74 1780.08 1607.72 1776.14Z" fill="#FFFFFF" fill-rule="evenodd"/><path d="M1565.49 1797.98C1565.49 1797.98 1568.12 1819.96 1583.09 1825.45 1583.09 1825.45 1570.03 1821.9 1565.49 1797.98Z" fill="#FFFFFF" fill-rule="evenodd"/><path d="M1612.03 1786.11C1620.09 1801.94 1617.06 1822.19 1604.15 1828.69 1591.32 1837.2 1574.17 1829.75 1566.04 1811.91 1557.97 1796.08 1561.01 1775.83 1573.92 1769.33 1586.82 1762.83 1603.97 1770.29 1612.03 1786.11Z" stroke="#333333" stroke-width="4.0106" stroke-miterlimit="8" fill="none" fill-rule="evenodd"/><path d="M1604.12 1828.72C1924.2 1572.4 1924.2 1572.4 1924.2 1572.4 1929.69 1568.19 1933.17 1560.03 1932.81 1550 1930.58 1540.04 1920.98 1534.35 1913.47 1534.62 1911.59 1534.68 1909.78 1536.75 1909.78 1536.75 1572.02 1771.61 1572.02 1771.61 1572.02 1771.61" stroke="#333333" stroke-width="4.0106" stroke-linecap="round" stroke-miterlimit="8" fill="none" fill-rule="evenodd"/><path d="M1618.59 1808.15 1614.93 1818.02 1926.08 1570.29 1929.88 1564.42 1618.59 1808.15Z" fill="#4DC184" fill-rule="evenodd"/><path d="M1961.37 1502.85C1959.07 1490.88 1951.35 1485.13 1941.95 1485.46 1941.95 1485.46 1938.27 1487.59 1938.27 1487.59 1602.38 1722.38 1602.38 1722.38 1602.38 1722.38 1634.49 1779.5 1634.49 1779.5 1634.49 1779.5 1954.57 1523.17 1954.57 1523.17 1954.57 1523.17 1960.06 1518.96 1963.54 1510.81 1961.37 1502.85Z" fill="#69F4AE" fill-rule="evenodd"/><path d="M1640.52 1736.96C1650.53 1754.73 1645.55 1773.03 1632.65 1779.53 1621.69 1787.97 1604.54 1780.52 1596.4 1762.68 1588.34 1746.85 1591.45 1728.61 1604.28 1720.11 1617.19 1713.61 1632.46 1721.13 1640.52 1736.96Z" fill="#4E936F" fill-rule="evenodd"/><path d="M1632.9 1741.24C1604.62 1738.21 1604.66 1792.59 1593.72 1748.66 1591.42 1736.66 1598.57 1726.33 1611.56 1721.85 1626.42 1717.3 1646.1 1742.79 1632.9 1741.24Z" fill="#296042" fill-rule="evenodd"/><path d="M1604.08 1770.39C1604.08 1770.39 1619.57 1785.76 1632.36 1777.35 1647.02 1768.87 1640.79 1751.18 1640.79 1751.18 1640.79 1751.18 1641.42 1769.07 1630.35 1773.44 1621.23 1779.73 1604.08 1770.39 1604.08 1770.39Z" fill="#69F4AE" fill-rule="evenodd"/><path d="M1630.3 1717.41C1630.3 1717.41 1647.63 1728.85 1648.27 1746.91 1957.6 1504.98 1957.6 1504.98 1957.6 1504.98 1957.6 1504.98 1957.17 1492.95 1949.66 1493.21L1630.3 1717.41Z" fill="#85F9BB" fill-rule="evenodd"/><path d="M1638.09 1726.92C1955.29 1493.01 1955.29 1493.01 1955.29 1493.01 1955.29 1493.01 1957.17 1492.95 1957.24 1494.95 1642.06 1732.8 1642.06 1732.8 1642.06 1732.8 1642.06 1732.8 1640.11 1730.86 1638.09 1726.92Z" fill="#FFFFFF" fill-rule="evenodd"/><path d="M1593.57 1748.84C1593.57 1748.84 1596.24 1770.81 1613.45 1776.23 1613.45 1776.23 1600.09 1772.68 1593.57 1748.84Z" fill="#FFFFFF" fill-rule="evenodd"/><path d="M1640.66 1736.95C1648.81 1754.79 1645.7 1773.03 1632.76 1779.53 1621.77 1787.97 1604.58 1780.52 1596.42 1762.68 1588.34 1746.85 1591.46 1728.61 1604.33 1720.1 1617.27 1713.61 1632.58 1721.12 1640.66 1736.95Z" stroke="#333333" stroke-width="4.0106" stroke-miterlimit="8" fill="none" fill-rule="evenodd"/><path d="M1634.49 1779.5C1954.57 1523.17 1954.57 1523.17 1954.57 1523.17 1960.06 1518.96 1963.54 1510.81 1961.37 1502.85 1959.07 1490.88 1951.35 1485.13 1941.95 1485.46 1941.95 1485.46 1938.27 1487.59 1938.27 1487.59 1602.38 1722.38 1602.38 1722.38 1602.38 1722.38" stroke="#333333" stroke-width="4.0106" stroke-linecap="round" stroke-miterlimit="8" fill="none" fill-rule="evenodd"/><path d="M1646.67 1759 1645.3 1768.8 1954.73 1521.12 1960.25 1515.19 1646.67 1759Z" fill="#4DC184" fill-rule="evenodd"/><path d="M1757.35 1325.66C1758.87 1315.6 1754.76 1305.73 1745.23 1302.07 1745.23 1302.07 1741.48 1302.2 1741.48 1302.2 1343.1 1360.28 1343.1 1360.28 1343.1 1360.28 1349.19 1426.1 1349.19 1426.1 1349.19 1426.1 1740.94 1340.24 1740.94 1340.24 1740.94 1340.24 1748.45 1339.98 1755.75 1333.72 1757.35 1325.66Z" fill="#69F4AE" fill-rule="evenodd"/><path d="M1372.29 1391.33C1372.99 1411.28 1362.2 1425.65 1349.03 1426.11 1333.98 1426.64 1322.2 1413.07 1319.68 1395.18 1318.98 1375.23 1329.78 1360.86 1344.83 1360.33 1359.88 1359.8 1371.66 1373.37 1372.29 1391.33Z" fill="#4E936F" fill-rule="evenodd"/><path d="M1362.81 1391.51C1337.99 1376.34 1317.23 1423.22 1325.08 1380.81 1326.52 1368.72 1339.36 1362.24 1350.63 1363.85 1365.69 1367.34 1374.29 1399.14 1362.81 1391.51Z" fill="#296042" fill-rule="evenodd"/><path d="M1325.77 1405.15C1325.77 1405.15 1334.03 1426.64 1348.95 1424.13 1365.75 1421.56 1367.06 1405.67 1367.06 1405.67 1367.06 1405.67 1360.06 1419.78 1348.81 1420.18 1335.7 1420.64 1325.77 1405.15 1325.77 1405.15Z" fill="#69F4AE" fill-rule="evenodd"/><path d="M1369.8 1369.48C1369.8 1369.48 1381.71 1387.12 1374.76 1403.42 1752.03 1325.91 1752.03 1325.91 1752.03 1325.91 1752.03 1325.91 1755.37 1313.75 1749.59 1309.94L1369.8 1369.48Z" fill="#85F9BB" fill-rule="evenodd"/><path d="M1373.65 1381.14C1755.2 1313.75 1755.2 1313.75 1755.2 1313.75 1755.2 1313.75 1757.15 1315.68 1755.28 1315.75 1373.93 1389.12 1373.93 1389.12 1373.93 1389.12 1373.93 1389.12 1373.79 1385.13 1373.65 1381.14Z" fill="#FFFFFF" fill-rule="evenodd"/><path d="M1324.92 1381.1C1324.92 1381.1 1319.97 1403.16 1331.84 1414.68 1331.84 1414.68 1321.94 1405.08 1324.92 1381.1Z" fill="#FFFFFF" fill-rule="evenodd"/><path d="M1372.29 1391.33C1372.92 1409.29 1362.2 1425.65 1347.15 1426.18 1333.98 1426.64 1322.2 1413.07 1319.68 1395.18 1318.98 1375.23 1329.78 1360.86 1344.83 1360.33 1359.88 1359.8 1371.66 1373.37 1372.29 1391.33Z" stroke="#333333" stroke-width="4.0106" stroke-miterlimit="8" fill="none" fill-rule="evenodd"/><path d="M1349.19 1426.1C1740.94 1340.24 1740.94 1340.24 1740.94 1340.24 1748.45 1339.98 1755.75 1333.72 1757.35 1325.66 1758.87 1315.6 1754.76 1305.73 1745.23 1302.07 1745.23 1302.07 1741.48 1302.2 1741.48 1302.2 1343.1 1360.28 1343.1 1360.28 1343.1 1360.28" stroke="#333333" stroke-width="4.0106" stroke-linecap="round" stroke-miterlimit="8" fill="none" fill-rule="evenodd"/><path d="M1369.63 1413.34 1361.89 1421.64 1743.05 1338.26 1748.69 1335.77 1369.63 1413.34Z" fill="#4DC184" fill-rule="evenodd"/><path d="M1790.88 1354.58C1794.29 1344.45 1788.36 1336.65 1780.7 1332.92 1778.82 1332.99 1775.06 1333.12 1775.06 1333.12 1378.65 1409.16 1378.65 1409.16 1378.65 1409.16 1388.57 1476.88 1388.57 1476.88 1388.57 1476.88 1776.4 1371.11 1776.4 1371.11 1776.4 1371.11 1783.85 1368.85 1789.35 1364.65 1790.88 1354.58Z" fill="#69F4AE" fill-rule="evenodd"/><path d="M1409.97 1440.01C1412.48 1457.98 1401.79 1474.41 1386.85 1476.94 1373.72 1477.41 1360.1 1463.84 1357.59 1445.87 1356.88 1425.83 1367.64 1411.41 1380.7 1408.94 1395.71 1408.41 1407.45 1422.04 1409.97 1440.01Z" fill="#4E936F" fill-rule="evenodd"/><path d="M1400.51 1440.49C1375.45 1427.4 1356.29 1474.01 1362.37 1431.85 1363.84 1419.82 1374.89 1411.44 1386.37 1415.03 1403.44 1416.42 1412.13 1448.07 1400.51 1440.49Z" fill="#296042" fill-rule="evenodd"/><path d="M1363.1 1455.74C1363.1 1455.74 1371.41 1475.77 1388.44 1473.14 1403.57 1470.57 1404.82 1452.23 1404.82 1452.23 1404.82 1452.23 1399.7 1468.67 1386.4 1469.14 1375.07 1471.57 1363.1 1455.74 1363.1 1455.74Z" fill="#69F4AE" fill-rule="evenodd"/><path d="M1407.07 1418.33C1407.07 1418.33 1418.98 1435.97 1411.96 1450.26 1786.94 1356.78 1786.94 1356.78 1786.94 1356.78 1786.94 1356.78 1790.28 1344.62 1782.62 1340.88L1407.07 1418.33Z" fill="#85F9BB" fill-rule="evenodd"/><path d="M1409.2 1430.03C1788.4 1344.69 1788.4 1344.69 1788.4 1344.69 1788.4 1344.69 1790.35 1346.62 1788.47 1346.68 1411.29 1435.95 1411.29 1435.95 1411.29 1435.95 1411.29 1435.95 1411.22 1433.96 1409.2 1430.03Z" fill="#FFFFFF" fill-rule="evenodd"/><path d="M1362.54 1431.94C1362.54 1431.94 1357.88 1453.99 1369.17 1465.53 1369.17 1465.53 1359.76 1455.91 1362.54 1431.94Z" fill="#FFFFFF" fill-rule="evenodd"/><path d="M1409.97 1440.01C1412.48 1457.98 1401.79 1474.41 1386.85 1476.94 1373.72 1477.41 1360.1 1463.84 1357.59 1445.87 1356.88 1425.83 1367.57 1409.4 1380.7 1408.94 1395.71 1408.41 1407.45 1422.04 1409.97 1440.01Z" stroke="#333333" stroke-width="4.0106" stroke-miterlimit="8" fill="none" fill-rule="evenodd"/><path d="M1388.51 1475.17C1776.4 1371.19 1776.4 1371.19 1776.4 1371.19 1783.85 1368.93 1789.35 1364.72 1790.88 1354.63 1794.29 1344.48 1788.36 1336.66 1780.7 1332.92 1778.82 1332.99 1775.06 1333.12 1775.06 1333.12 1378.66 1409.3 1378.66 1409.3 1378.66 1409.3" stroke="#333333" stroke-width="4.0106" stroke-linecap="round" stroke-miterlimit="8" fill="none" fill-rule="evenodd"/><path d="M1408.62 1462.42 1401.46 1470.7 1777.96 1369.13 1783.6 1366.64 1408.62 1462.42Z" fill="#4DC184" fill-rule="evenodd"/><path d="M1817.79 1381.53C1819.24 1369.42 1813.32 1361.59 1803.86 1359.91 1801.91 1357.97 1800.1 1360.04 1800.1 1360.04 1408.69 1464.3 1408.69 1464.3 1408.69 1464.3 1424.18 1530.09 1424.18 1530.09 1424.18 1530.09 1803.32 1398.12 1803.32 1398.12 1803.32 1398.12 1810.77 1395.85 1816.19 1389.63 1817.79 1381.53Z" fill="#69F4AE" fill-rule="evenodd"/><path d="M1441.65 1493.23C1444.16 1511.12 1435.35 1527.42 1422.29 1529.88 1407.35 1532.4 1393.73 1518.89 1391.22 1501 1388.71 1483.1 1397.53 1466.81 1410.59 1464.35 1425.52 1461.82 1439.14 1475.33 1441.65 1493.23Z" fill="#4E936F" fill-rule="evenodd"/><path d="M1434.15 1493.62C1407.4 1480.52 1390.41 1531.28 1394.55 1489 1394.06 1474.97 1405.03 1466.56 1418.23 1468.1 1433.31 1469.57 1443.74 1499.3 1434.15 1493.62Z" fill="#296042" fill-rule="evenodd"/><path d="M1397.15 1510.98C1397.15 1510.98 1407.22 1530.69 1422.14 1528.15 1436.99 1523.62 1438.23 1505.52 1438.23 1505.52 1438.23 1505.52 1433.18 1521.75 1420.13 1524.21 1408.96 1526.61 1397.15 1510.98 1397.15 1510.98Z" fill="#69F4AE" fill-rule="evenodd"/><path d="M1437.02 1471.24C1437.02 1471.24 1450.75 1486.77 1445.68 1502.96 1812.48 1381.93 1812.48 1381.93 1812.48 1381.93 1812.48 1381.93 1815.82 1369.8 1808.22 1368.07L1437.02 1471.24Z" fill="#85F9BB" fill-rule="evenodd"/><path d="M1441.39 1481.3C1813.93 1369.58 1813.93 1369.58 1813.93 1369.58 1813.93 1369.58 1815.88 1371.53 1814 1371.59 1443.55 1489.28 1443.55 1489.28 1443.55 1489.28 1443.55 1489.28 1443.48 1487.27 1441.39 1481.3Z" fill="#FFFFFF" fill-rule="evenodd"/><path d="M1394.56 1488.71C1394.56 1488.71 1389.62 1508.95 1403.22 1520.51 1403.22 1520.51 1391.65 1512.89 1394.56 1488.71Z" fill="#FFFFFF" fill-rule="evenodd"/><path d="M1441.65 1493.23C1444.16 1511.12 1435.35 1527.42 1422.29 1529.88 1407.35 1532.4 1393.73 1518.89 1391.22 1501 1388.71 1483.1 1397.53 1466.81 1410.59 1464.35 1425.52 1461.82 1439.07 1473.33 1441.65 1493.23Z" stroke="#333333" stroke-width="4.0106" stroke-miterlimit="8" fill="none" fill-rule="evenodd"/><path d="M1422.3 1530.16C1803.32 1398.12 1803.32 1398.12 1803.32 1398.12 1810.77 1395.85 1816.19 1389.63 1817.79 1381.53 1819.24 1369.42 1813.32 1361.59 1803.86 1359.91 1801.91 1357.97 1800.1 1360.04 1800.1 1360.04 1408.69 1464.3 1408.69 1464.3 1408.69 1464.3" stroke="#333333" stroke-width="4.0106" stroke-linecap="round" stroke-miterlimit="8" fill="none" fill-rule="evenodd"/><path d="M1440.86 1515.17 1435.42 1523.39 1805.29 1396.26 1810.87 1392.05 1440.86 1515.17Z" fill="#4DC184" fill-rule="evenodd"/><path d="M1756.09 1448.12C1755.74 1438.12 1749.82 1430.31 1740.35 1428.64 1738.4 1426.71 1736.59 1428.78 1736.59 1428.78 1353.75 1564.49 1353.75 1564.49 1353.75 1564.49 1372.99 1629.92 1372.99 1629.92 1372.99 1629.92 1743.57 1466.6 1743.57 1466.6 1743.57 1466.6 1749.14 1464.4 1754.57 1458.19 1756.09 1448.12Z" fill="#69F4AE" fill-rule="evenodd"/><path d="M1388.72 1589.53C1393.17 1609.43 1386.25 1625.73 1371.43 1630.27 1358.41 1632.73 1343.02 1621.23 1338.64 1603.33 1336.14 1585.36 1342.98 1567.06 1357.88 1564.53 1370.83 1560.06 1386.21 1571.56 1388.72 1589.53Z" fill="#4E936F" fill-rule="evenodd"/><path d="M1381.24 1591.8C1352.67 1582.77 1341.27 1633.34 1341.6 1589.18 1341.17 1577.16 1352.18 1568.74 1363.46 1568.35 1378.51 1567.82 1392.74 1597.41 1381.24 1591.8Z" fill="#296042" fill-rule="evenodd"/><path d="M1346.22 1611.02C1346.22 1611.02 1356.28 1630.51 1373.01 1625.95 1387.86 1621.46 1387.23 1603.62 1387.23 1603.62 1387.23 1603.62 1382.17 1619.68 1370.99 1622.06 1359.89 1626.42 1346.22 1611.02 1346.22 1611.02Z" fill="#69F4AE" fill-rule="evenodd"/><path d="M1382.51 1567.39C1382.51 1567.39 1398.11 1582.89 1393.11 1601.12 1750.84 1450.06 1750.84 1450.06 1750.84 1450.06 1750.84 1450.06 1752.3 1437.97 1744.71 1436.23L1382.51 1567.39Z" fill="#85F9BB" fill-rule="evenodd"/><path d="M1388.67 1579.5C1752.15 1438.26 1752.15 1438.26 1752.15 1438.26 1752.15 1438.26 1754.02 1438.2 1752.22 1440.27 1390.83 1587.45 1390.83 1587.45 1390.83 1587.45 1390.83 1587.45 1390.69 1583.44 1388.67 1579.5Z" fill="#FFFFFF" fill-rule="evenodd"/><path d="M1341.72 1589.18C1341.72 1589.18 1338.77 1611.35 1354.01 1620.85 1354.01 1620.85 1340.71 1613.29 1341.72 1589.18Z" fill="#FFFFFF" fill-rule="evenodd"/><path d="M1388.69 1589.53C1393.1 1607.43 1386.2 1625.73 1371.27 1630.27 1358.15 1632.74 1342.66 1621.25 1338.25 1603.34 1333.85 1585.44 1342.63 1567.07 1357.63 1564.54 1370.68 1560.07 1386.17 1571.56 1388.69 1589.53Z" stroke="#333333" stroke-width="4.0106" stroke-miterlimit="8" fill="none" fill-rule="evenodd"/><path d="M1372.93 1628.21C1743.57 1466.66 1743.57 1466.66 1743.57 1466.66 1749.14 1464.45 1754.57 1458.24 1756.09 1448.16 1755.74 1438.14 1749.82 1430.32 1740.35 1428.65 1738.4 1426.71 1736.59 1428.78 1736.59 1428.78 1353.75 1564.68 1353.75 1564.68 1353.75 1564.68" stroke="#333333" stroke-width="4.0106" stroke-linecap="round" stroke-miterlimit="8" fill="none" fill-rule="evenodd"/><path d="M1391.58 1613.22 1384.42 1621.49 1743.48 1464.37 1749.06 1460.16 1391.58 1613.22Z" fill="#4DC184" fill-rule="evenodd"/><path d="M1797.96 1448.69C1797.54 1436.66 1791.62 1428.85 1782.22 1429.18 1780.34 1429.24 1778.46 1429.31 1778.46 1429.31 1403.98 1590.99 1403.98 1590.99 1403.98 1590.99 1426.92 1654.39 1426.92 1654.39 1426.92 1654.39 1787.32 1467.12 1787.32 1467.12 1787.32 1467.12 1792.89 1464.92 1798.24 1456.7 1797.96 1448.69Z" fill="#69F4AE" fill-rule="evenodd"/><path d="M1440.42 1613.79C1446.69 1631.62 1439.81 1649.92 1424.92 1654.46 1411.91 1658.93 1396.46 1647.44 1392.07 1629.54 1385.8 1611.7 1392.74 1595.4 1407.63 1590.87 1420.64 1586.39 1436.03 1595.88 1440.42 1613.79Z" fill="#4E936F" fill-rule="evenodd"/><path d="M1433.11 1615.87C1404.54 1606.8 1395.1 1659.53 1393.54 1615.25 1391.23 1603.24 1402.16 1592.78 1413.45 1592.38 1428.5 1591.85 1444.54 1619.5 1433.11 1615.87Z" fill="#296042" fill-rule="evenodd"/><path d="M1398.23 1639.07C1398.23 1639.07 1410.06 1656.71 1424.79 1650.17 1441.45 1645.57 1438.95 1627.6 1438.95 1627.6 1438.95 1627.6 1435.78 1643.76 1424.72 1648.16 1413.59 1650.56 1398.23 1639.07 1398.23 1639.07Z" fill="#69F4AE" fill-rule="evenodd"/><path d="M1433.82 1591.71C1433.82 1591.71 1449.42 1607.19 1446.23 1623.33 1793.95 1448.81 1793.95 1448.81 1793.95 1448.81 1793.95 1448.81 1793.6 1438.8 1786.01 1437.07L1433.82 1591.71Z" fill="#85F9BB" fill-rule="evenodd"/><path d="M1438.26 1603.82C1793.43 1438.53 1793.43 1438.53 1793.43 1438.53 1793.43 1438.53 1795.31 1438.46 1793.5 1440.53 1442.23 1609.71 1442.23 1609.71 1442.23 1609.71 1442.23 1609.71 1440.28 1607.77 1438.26 1603.82Z" fill="#FFFFFF" fill-rule="evenodd"/><path d="M1393.54 1615.44C1393.54 1615.44 1392.44 1637.55 1405.96 1647.11 1405.96 1647.11 1394.39 1639.49 1393.54 1615.44Z" fill="#FFFFFF" fill-rule="evenodd"/><path d="M1440.41 1613.62C1446.69 1631.52 1439.81 1649.89 1424.92 1654.45 1411.91 1658.93 1396.46 1647.39 1392.06 1629.42 1385.79 1611.51 1392.67 1593.14 1405.67 1588.66 1420.56 1584.1 1436.02 1595.64 1440.41 1613.62Z" stroke="#333333" stroke-width="4.0106" stroke-miterlimit="8" fill="none" fill-rule="evenodd"/><path d="M1426.92 1654.39C1787.32 1467.12 1787.32 1467.12 1787.32 1467.12 1792.89 1464.92 1798.24 1456.7 1797.96 1448.69 1797.54 1436.66 1791.69 1430.85 1782.22 1429.18 1780.34 1429.24 1778.46 1429.31 1778.46 1429.31 1403.98 1590.99 1403.98 1590.99 1403.98 1590.99" stroke="#333333" stroke-width="4.0106" stroke-linecap="round" stroke-miterlimit="8" fill="none" fill-rule="evenodd"/><path d="M1442.81 1635.49 1438.03 1645.97 1787.08 1465.12 1792.66 1460.91 1442.81 1635.49Z" fill="#4DC184" fill-rule="evenodd"/><path d="M1844.97 1448.75C1844.62 1438.73 1836.82 1430.98 1829.3 1431.24 1827.35 1429.3 1823.66 1431.44 1823.66 1431.44 1457.36 1608.89 1457.36 1608.89 1457.36 1608.89 1482.1 1670.22 1482.1 1670.22 1482.1 1670.22 1834.4 1469.19 1834.4 1469.19 1834.4 1469.19 1839.9 1464.98 1845.33 1458.77 1844.97 1448.75Z" fill="#69F4AE" fill-rule="evenodd"/><path d="M1493.72 1629.68C1499.99 1647.52 1493.11 1665.82 1480.1 1670.29 1467.1 1674.76 1451.71 1665.27 1445.44 1647.43 1439.17 1629.6 1446.05 1611.3 1459.06 1606.82 1472.07 1602.35 1487.45 1611.84 1493.72 1629.68Z" fill="#4E936F" fill-rule="evenodd"/><path d="M1486.5 1634.23C1457.93 1625.21 1450.36 1677.64 1446.93 1633.62 1444.62 1621.66 1453.67 1611.31 1466.84 1610.85 1481.82 1608.31 1497.86 1635.84 1486.5 1634.23Z" fill="#296042" fill-rule="evenodd"/><path d="M1453.26 1655.37C1453.26 1655.37 1465.2 1674.83 1479.99 1668.34 1494.77 1661.86 1492.26 1644.06 1492.26 1644.06 1492.26 1644.06 1489.07 1660.07 1477.97 1664.44 1466.87 1668.81 1453.26 1655.37 1453.26 1655.37Z" fill="#69F4AE" fill-rule="evenodd"/><path d="M1485.42 1608.14C1485.42 1608.14 1500.94 1621.66 1499.7 1639.79 1841.04 1450.91 1841.04 1450.91 1841.04 1450.91 1841.04 1450.91 1840.61 1438.87 1833.03 1437.13L1485.42 1608.14Z" fill="#85F9BB" fill-rule="evenodd"/><path d="M1491.56 1619.73C1840.62 1439.16 1840.62 1439.16 1840.62 1439.16 1840.62 1439.16 1840.69 1441.16 1840.69 1441.16 1495.53 1625.6 1495.53 1625.6 1495.53 1625.6 1495.53 1625.6 1493.58 1623.67 1491.56 1619.73Z" fill="#FFFFFF" fill-rule="evenodd"/><path d="M1446.91 1633.62C1446.91 1633.62 1445.82 1655.73 1461.06 1665.23 1461.06 1665.23 1447.75 1657.67 1446.91 1633.62Z" fill="#FFFFFF" fill-rule="evenodd"/><path d="M1493.72 1629.68C1499.99 1647.52 1493.11 1665.82 1480.1 1670.29 1467.1 1674.76 1451.71 1665.27 1445.44 1647.43 1439.17 1629.6 1446.05 1611.3 1459.06 1606.82 1472.07 1602.35 1487.45 1611.84 1493.72 1629.68Z" stroke="#333333" stroke-width="4.0106" stroke-miterlimit="8" fill="none" fill-rule="evenodd"/><path d="M1482.1 1670.22C1834.4 1469.19 1834.4 1469.19 1834.4 1469.19 1839.9 1464.98 1845.33 1458.77 1844.97 1448.75 1844.62 1438.73 1836.82 1430.98 1829.3 1431.24 1827.35 1429.3 1823.66 1431.44 1823.66 1431.44 1457.36 1608.89 1457.36 1608.89 1457.36 1608.89" stroke="#333333" stroke-width="4.0106" stroke-linecap="round" stroke-miterlimit="8" fill="none" fill-rule="evenodd"/><path d="M1496.14 1651.95 1493.04 1661.81 1835.89 1467.41 1839.67 1460.97 1496.14 1651.95Z" fill="#4DC184" fill-rule="evenodd"/><path d="M1815.32 1518.3C1814.97 1508.28 1805.29 1500.6 1797.78 1500.86 1795.9 1500.93 1794.02 1500.99 1794.02 1500.99 1440.22 1708.1 1440.22 1708.1 1440.22 1708.1 1468.71 1769.29 1468.71 1769.29 1468.71 1769.29 1804.76 1538.74 1804.76 1538.74 1804.76 1538.74 1812.13 1534.46 1815.6 1526.32 1815.32 1518.3Z" fill="#69F4AE" fill-rule="evenodd"/><path d="M1478.08 1726.73C1486.21 1744.43 1481.22 1762.59 1468.32 1769.04 1455.41 1775.49 1438.2 1766.11 1431.94 1748.34 1423.88 1732.63 1428.87 1714.47 1441.78 1708.02 1454.68 1701.57 1471.9 1710.95 1478.08 1726.73Z" fill="#4E936F" fill-rule="evenodd"/><path d="M1470.99 1730.9C1442.56 1725.86 1438.76 1778.37 1431.56 1734.31 1429.25 1722.3 1438.3 1711.91 1449.52 1709.5 1464.5 1706.95 1482.35 1732.52 1470.99 1730.9Z" fill="#296042" fill-rule="evenodd"/><path d="M1439.62 1756.27C1439.62 1756.27 1453.38 1773.85 1468.08 1765.3 1480.99 1758.83 1478.48 1740.86 1478.48 1740.86 1478.48 1740.86 1477.17 1756.96 1466.14 1763.36 1455.04 1767.77 1439.62 1756.27 1439.62 1756.27Z" fill="#69F4AE" fill-rule="evenodd"/><path d="M1468.27 1707.07C1468.27 1707.07 1485.59 1718.51 1484.35 1736.64 1811.38 1520.18 1811.38 1520.18 1811.38 1520.18 1811.38 1520.18 1810.95 1508.14 1803.37 1506.4L1468.27 1707.07Z" fill="#85F9BB" fill-rule="evenodd"/><path d="M1476.06 1716.59C1809.08 1508.49 1809.08 1508.49 1809.08 1508.49 1809.08 1508.49 1810.96 1508.42 1811.03 1510.42 1480.03 1722.46 1480.03 1722.46 1480.03 1722.46 1480.03 1722.46 1478.08 1720.52 1476.06 1716.59Z" fill="#FFFFFF" fill-rule="evenodd"/><path d="M1431.4 1734.49C1431.4 1734.49 1432.17 1756.33 1447.34 1763.74 1447.34 1763.74 1435.96 1758.18 1431.4 1734.49Z" fill="#FFFFFF" fill-rule="evenodd"/><path d="M1478.08 1726.73C1486.21 1744.43 1481.22 1762.59 1468.32 1769.04 1453.54 1775.56 1438.2 1766.11 1431.94 1748.34 1423.88 1732.63 1428.8 1712.47 1441.78 1708.02 1454.68 1701.57 1471.83 1708.96 1478.08 1726.73Z" stroke="#333333" stroke-width="4.0106" stroke-miterlimit="8" fill="none" fill-rule="evenodd"/><path d="M1468.62 1767C1804.76 1538.69 1804.76 1538.69 1804.76 1538.69 1812.13 1534.43 1815.6 1526.29 1815.32 1518.28 1814.97 1508.27 1805.29 1500.6 1797.78 1500.86 1795.9 1500.93 1794.02 1500.99 1794.02 1500.99 1440.21 1707.88 1440.21 1707.88 1440.21 1707.88" stroke="#333333" stroke-width="4.0106" stroke-linecap="round" stroke-miterlimit="8" fill="none" fill-rule="evenodd"/><path d="M1482.92 1748.73 1479.26 1758.6 1806.22 1536.68 1811.73 1530.18 1482.92 1748.73Z" fill="#4DC184" fill-rule="evenodd"/><path d="M1861.33 1494.34C1860.9 1482.3 1853.18 1476.55 1843.79 1476.88 1841.91 1476.95 1840.03 1477.01 1840.03 1477.01 1486.39 1684.33 1486.39 1684.33 1486.39 1684.33 1516.67 1743.52 1516.67 1743.52 1516.67 1743.52 1852.64 1514.73 1852.64 1514.73 1852.64 1514.73 1858.14 1510.52 1863.49 1502.3 1861.33 1494.34Z" fill="#69F4AE" fill-rule="evenodd"/><path d="M1526.11 1702.88C1532.39 1720.78 1527.39 1739.09 1514.45 1745.59 1501.51 1752.08 1484.25 1742.62 1477.98 1724.72 1471.77 1708.82 1476.7 1688.5 1489.71 1684.02 1502.65 1677.52 1517.96 1685.04 1526.11 1702.88Z" fill="#4E936F" fill-rule="evenodd"/><path d="M1517.05 1707.3C1488.7 1702.3 1484.9 1754.39 1477.73 1710.68 1475.43 1698.77 1484.46 1688.46 1495.64 1686.07 1512.45 1683.48 1530.25 1708.83 1517.05 1707.3Z" fill="#296042" fill-rule="evenodd"/><path d="M1485.78 1732.29C1485.78 1732.29 1499.66 1749.86 1514.52 1741.31 1529.37 1732.76 1525.02 1716.86 1525.02 1716.86 1525.02 1716.86 1523.69 1732.96 1512.55 1739.37 1501.34 1743.78 1485.78 1732.29 1485.78 1732.29Z" fill="#69F4AE" fill-rule="evenodd"/><path d="M1516.15 1683.1C1516.15 1683.1 1533.48 1694.51 1532.24 1712.59 1857.56 1496.73 1857.56 1496.73 1857.56 1496.73 1857.56 1496.73 1857.13 1484.72 1849.55 1482.98L1516.15 1683.1Z" fill="#85F9BB" fill-rule="evenodd"/><path d="M1522.24 1693.16C1857.53 1484.42 1857.53 1484.42 1857.53 1484.42 1857.53 1484.42 1859.41 1484.35 1857.6 1486.43 1526.21 1699.04 1526.21 1699.04 1526.21 1699.04 1526.21 1699.04 1524.26 1697.1 1522.24 1693.16Z" fill="#FFFFFF" fill-rule="evenodd"/><path d="M1477.56 1710.51C1477.56 1710.51 1480.26 1732.69 1495.81 1740.25 1495.81 1740.25 1482.24 1734.65 1477.56 1710.51Z" fill="#FFFFFF" fill-rule="evenodd"/><path d="M1526.11 1702.78C1532.31 1718.61 1527.38 1738.85 1514.44 1745.32 1501.43 1749.79 1484.24 1742.37 1477.97 1724.54 1471.77 1708.7 1476.7 1688.47 1489.64 1681.99 1502.65 1677.52 1517.96 1685 1526.11 1702.78Z" stroke="#333333" stroke-width="4.0106" stroke-miterlimit="8" fill="none" fill-rule="evenodd"/><path d="M1516.67 1743.52C1852.64 1514.73 1852.64 1514.73 1852.64 1514.73 1858.14 1510.52 1863.49 1502.3 1861.33 1494.34 1860.9 1482.3 1853.18 1476.55 1843.79 1476.88 1841.91 1476.95 1840.03 1477.01 1840.03 1477.01 1486.39 1684.33 1486.39 1684.33 1486.39 1684.33" stroke="#333333" stroke-width="4.0106" stroke-linecap="round" stroke-miterlimit="8" fill="none" fill-rule="evenodd"/><path d="M1530.8 1724.68 1527.73 1735.11 1854.68 1512.61 1857.91 1506.77 1530.8 1724.68Z" fill="#4DC184" fill-rule="evenodd"/><path d="M1907.53 1466.89C1905.29 1456.94 1897.57 1451.19 1889.98 1449.45 1888.11 1449.52 1884.42 1451.66 1884.42 1451.66 1532.49 1658.69 1532.49 1658.69 1532.49 1658.69 1560.91 1717.89 1560.91 1717.89 1560.91 1717.89 1896.96 1487.33 1896.96 1487.33 1896.96 1487.33 1904.33 1483.06 1907.88 1476.91 1907.53 1466.89Z" fill="#69F4AE" fill-rule="evenodd"/><path d="M1570.5 1677.31C1576.7 1693.08 1571.77 1713.24 1558.76 1717.7 1545.82 1724.15 1530.44 1714.7 1522.36 1698.99 1516.09 1681.23 1521.09 1663.06 1534.03 1656.61 1546.97 1650.16 1564.23 1659.54 1570.5 1677.31Z" fill="#4E936F" fill-rule="evenodd"/><path d="M1563.2 1679.49C1532.88 1674.52 1530.97 1726.97 1523.83 1684.91 1521.53 1672.91 1530.51 1660.5 1541.72 1658.09 1556.7 1655.55 1574.63 1683.12 1563.2 1679.49Z" fill="#296042" fill-rule="evenodd"/><path d="M1530.17 1706.78C1530.17 1706.78 1545.88 1722.43 1558.91 1715.89 1573.76 1707.27 1569.41 1691.22 1569.41 1691.22 1569.41 1691.22 1568.08 1707.47 1556.88 1711.91 1547.56 1716.29 1530.17 1706.78 1530.17 1706.78Z" fill="#69F4AE" fill-rule="evenodd"/><path d="M1560.48 1655.7C1560.48 1655.7 1577.87 1669.13 1576.56 1685.23 1903.59 1469.04 1903.59 1469.04 1903.59 1469.04 1903.59 1469.04 1901.36 1459.08 1893.78 1457.35L1560.48 1655.7Z" fill="#85F9BB" fill-rule="evenodd"/><path d="M1568.34 1667.45C1901.35 1458.8 1901.35 1458.8 1901.35 1458.8 1901.35 1458.8 1903.23 1458.73 1901.42 1460.8 1570.43 1673.41 1570.43 1673.41 1570.43 1673.41 1570.43 1673.41 1570.29 1669.39 1568.34 1667.45Z" fill="#FFFFFF" fill-rule="evenodd"/><path d="M1523.67 1684.8C1523.67 1684.8 1524.44 1706.85 1540.11 1712.31 1540.11 1712.31 1526.45 1708.78 1523.67 1684.8Z" fill="#FFFFFF" fill-rule="evenodd"/><path d="M1570.5 1677.31C1576.7 1693.08 1571.7 1711.25 1558.76 1717.7 1545.82 1724.15 1530.44 1714.7 1522.36 1698.99 1516.09 1681.23 1521.09 1663.06 1534.03 1656.61 1546.97 1650.16 1564.23 1659.54 1570.5 1677.31Z" stroke="#333333" stroke-width="4.0106" stroke-miterlimit="8" fill="none" fill-rule="evenodd"/><path d="M1560.91 1717.89C1896.96 1487.33 1896.96 1487.33 1896.96 1487.33 1904.33 1483.06 1907.88 1476.91 1907.53 1466.89 1905.29 1456.94 1897.57 1451.19 1889.98 1449.45 1888.11 1449.52 1884.42 1451.66 1884.42 1451.66 1532.49 1658.69 1532.49 1658.69 1532.49 1658.69" stroke="#333333" stroke-width="4.0106" stroke-linecap="round" stroke-miterlimit="8" fill="none" fill-rule="evenodd"/><path d="M1575.19 1699.04 1571.54 1709.48 1899 1485.25 1902.3 1481.12 1575.19 1699.04Z" fill="#4DC184" fill-rule="evenodd"/><path d="M1991.75 1453.87C1989.51 1443.93 1981.78 1438.19 1972.38 1438.52 1970.5 1438.59 1968.69 1440.66 1968.69 1440.66 1630.53 1675.07 1630.53 1675.07 1630.53 1675.07 1664.54 1732 1664.54 1732 1664.54 1732 1983.12 1476.23 1983.12 1476.23 1983.12 1476.23 1990.5 1471.96 1993.98 1463.82 1991.75 1453.87Z" fill="#69F4AE" fill-rule="evenodd"/><path d="M1670.55 1689.85C1678.68 1707.55 1675.56 1725.65 1662.66 1732.1 1649.82 1740.55 1634.55 1733.09 1624.55 1715.46 1616.49 1699.75 1621.48 1681.59 1632.44 1673.2 1645.34 1666.75 1662.49 1674.14 1670.55 1689.85Z" fill="#4E936F" fill-rule="evenodd"/><path d="M1663.47 1694.2C1635.11 1691.19 1635.06 1743.36 1624.17 1701.61 1621.87 1689.65 1629.04 1679.37 1640.18 1674.96 1655.09 1670.42 1674.82 1695.81 1663.47 1694.2Z" fill="#296042" fill-rule="evenodd"/><path d="M1634.51 1723.18C1634.51 1723.18 1650.02 1738.82 1662.81 1730.28 1677.46 1721.67 1671.21 1703.68 1671.21 1703.68 1671.21 1703.68 1671.86 1721.86 1660.8 1726.3 1649.81 1732.76 1634.51 1723.18 1634.51 1723.18Z" fill="#69F4AE" fill-rule="evenodd"/><path d="M1660.73 1669.97C1660.73 1669.97 1678.06 1681.39 1676.82 1699.47 1988.04 1458.02 1988.04 1458.02 1988.04 1458.02 1988.04 1458.02 1985.74 1446.08 1978.23 1446.34L1660.73 1669.97Z" fill="#85F9BB" fill-rule="evenodd"/><path d="M1666.82 1680.04C1985.74 1446.08 1985.74 1446.08 1985.74 1446.08 1985.74 1446.08 1987.62 1446.01 1985.81 1448.08 1672.66 1685.85 1672.66 1685.85 1672.66 1685.85 1672.66 1685.85 1670.71 1683.92 1666.82 1680.04Z" fill="#FFFFFF" fill-rule="evenodd"/><path d="M1624 1701.33C1624 1701.33 1626.67 1723.31 1643.88 1728.72 1643.88 1728.72 1630.51 1725.18 1624 1701.33Z" fill="#FFFFFF" fill-rule="evenodd"/><path d="M1670.55 1689.85C1678.61 1705.55 1675.56 1725.65 1662.66 1732.1 1649.82 1740.55 1632.68 1733.16 1624.55 1715.46 1616.49 1699.75 1621.41 1679.59 1632.44 1673.2 1645.34 1666.75 1662.49 1674.14 1670.55 1689.85Z" stroke="#333333" stroke-width="4.0106" stroke-miterlimit="8" fill="none" fill-rule="evenodd"/><path d="M1664.54 1732C1983.12 1476.23 1983.12 1476.23 1983.12 1476.23 1990.5 1471.96 1993.98 1463.82 1991.75 1453.87 1989.51 1443.93 1981.78 1438.19 1972.38 1438.52 1970.5 1438.59 1968.69 1440.66 1968.69 1440.66 1630.53 1675.07 1630.53 1675.07 1630.53 1675.07" stroke="#333333" stroke-width="4.0106" stroke-linecap="round" stroke-miterlimit="8" fill="none" fill-rule="evenodd"/><path d="M1677.1 1711.49 1674.03 1721.92 1984.6 1474.21 1988.39 1467.77 1677.1 1711.49Z" fill="#4DC184" fill-rule="evenodd"/><path d="M2095.96 1417.85C2095.61 1407.81 2087.8 1400.05 2078.41 1400.39 2076.53 1400.45 2074.65 1400.52 2074.65 1400.52 1718.45 1599.9 1718.45 1599.9 1718.45 1599.9 1745.01 1659.22 1745.01 1659.22 1745.01 1659.22 2087.27 1438.24 2087.27 1438.24 2087.27 1438.24 2092.77 1434.03 2098.19 1427.81 2095.96 1417.85Z" fill="#69F4AE" fill-rule="evenodd"/><path d="M1756.47 1618.4C1762.73 1636.24 1757.74 1654.48 1742.96 1661.02 1729.99 1665.49 1714.72 1658 1708.46 1640.16 1700.33 1622.39 1707.19 1604.09 1720.09 1597.62 1733.07 1593.15 1748.41 1602.64 1756.47 1618.4Z" fill="#4E936F" fill-rule="evenodd"/><path d="M1747.52 1623.02C1719.02 1616 1715.21 1668.3 1708.08 1626.42 1705.78 1614.46 1714.83 1604.11 1726.05 1601.71 1742.91 1599.11 1758.88 1624.63 1747.52 1623.02Z" fill="#296042" fill-rule="evenodd"/><path d="M1716.13 1647.92C1716.13 1647.92 1730.07 1665.48 1744.98 1656.93 1758.07 1650.45 1755.53 1632.48 1755.53 1632.48 1755.53 1632.48 1754.2 1648.58 1743.01 1655 1731.75 1659.41 1716.13 1647.92 1716.13 1647.92Z" fill="#69F4AE" fill-rule="evenodd"/><path d="M1746.5 1598.73C1746.5 1598.73 1763.84 1610.14 1760.72 1628.29 2092.19 1420.23 2092.19 1420.23 2092.19 1420.23 2092.19 1420.23 2091.77 1408.22 2084.18 1406.49L1746.5 1598.73Z" fill="#85F9BB" fill-rule="evenodd"/><path d="M1752.59 1608.79C2091.6 1407.95 2091.6 1407.95 2091.6 1407.95 2091.6 1407.95 2093.48 1407.88 2091.67 1409.95 1756.56 1614.68 1756.56 1614.68 1756.56 1614.68 1756.56 1614.68 1754.61 1612.73 1752.59 1608.79Z" fill="#FFFFFF" fill-rule="evenodd"/><path d="M1707.91 1626.14C1707.91 1626.14 1708.7 1648.39 1723.87 1655.96 1723.87 1655.96 1712.49 1650.28 1707.91 1626.14Z" fill="#FFFFFF" fill-rule="evenodd"/><path d="M1754.6 1618.47C1762.73 1636.24 1757.74 1654.48 1742.96 1661.02 1729.99 1665.49 1714.64 1656 1708.46 1640.16 1700.33 1622.39 1707.19 1604.09 1720.09 1597.62 1733.07 1593.15 1748.34 1600.63 1754.6 1618.47Z" stroke="#333333" stroke-width="4.0106" stroke-miterlimit="8" fill="none" fill-rule="evenodd"/><path d="M1745.01 1659.22C2087.27 1438.24 2087.27 1438.24 2087.27 1438.24 2092.77 1434.03 2098.19 1427.81 2095.96 1417.85 2095.61 1407.81 2087.8 1400.05 2078.41 1400.39 2076.53 1400.45 2074.65 1400.52 2074.65 1400.52 1718.45 1599.9 1718.45 1599.9 1718.45 1599.9" stroke="#333333" stroke-width="4.0106" stroke-linecap="round" stroke-miterlimit="8" fill="none" fill-rule="evenodd"/><path d="M1759.43 1640.37 1755.79 1650.82 2087.02 1436.2 2092.55 1430.27 1759.43 1640.37Z" fill="#4DC184" fill-rule="evenodd"/><path d="M2123.02 1437.22C2122.66 1427.2 2113.06 1421.52 2105.54 1421.79 2103.66 1421.85 2101.78 1421.92 2101.78 1421.92 1758.01 1648.73 1758.01 1648.73 1758.01 1648.73 1790.12 1705.79 1790.12 1705.79 1790.12 1705.79 2114.4 1459.6 2114.4 1459.6 2114.4 1459.6 2121.7 1453.32 2125.25 1447.18 2123.02 1437.22Z" fill="#69F4AE" fill-rule="evenodd"/><path d="M1798.02 1665.19C1806.16 1681.02 1801.12 1699.33 1788.17 1707.84 1775.14 1714.34 1759.73 1706.83 1751.52 1688.99 1743.39 1673.16 1746.47 1652.91 1759.49 1646.41 1772.52 1639.91 1789.82 1647.36 1798.02 1665.19Z" fill="#4E936F" fill-rule="evenodd"/><path d="M1788.6 1669.63C1760.25 1664.63 1760.2 1716.59 1749.35 1675.01 1747.05 1663.1 1756.08 1652.79 1767.19 1648.4 1782.12 1645.88 1801.8 1671.16 1788.6 1669.63Z" fill="#296042" fill-rule="evenodd"/><path d="M1759.7 1696.54C1759.7 1696.54 1775.2 1712.05 1787.98 1703.57 1802.64 1695.03 1796.47 1679.19 1796.47 1679.19 1796.47 1679.19 1797.04 1695.23 1786.05 1701.63 1774.98 1706.04 1759.7 1696.54 1759.7 1696.54Z" fill="#69F4AE" fill-rule="evenodd"/><path d="M1785.99 1645.71C1785.99 1645.71 1803.33 1657.15 1803.89 1673.2 2119.23 1439.09 2119.23 1439.09 2119.23 1439.09 2119.23 1439.09 2118.88 1429.06 2111.29 1427.32L1785.99 1645.71Z" fill="#85F9BB" fill-rule="evenodd"/><path d="M1793.79 1655.5C2117.01 1429.41 2117.01 1429.41 2117.01 1429.41 2117.01 1429.41 2118.89 1429.34 2118.96 1431.35 1797.76 1661.38 1797.76 1661.38 1797.76 1661.38 1797.76 1661.38 1795.74 1657.44 1793.79 1655.5Z" fill="#FFFFFF" fill-rule="evenodd"/><path d="M1749.19 1675.13C1749.19 1675.13 1751.86 1697.11 1769.08 1702.52 1769.08 1702.52 1755.71 1698.98 1749.19 1675.13Z" fill="#FFFFFF" fill-rule="evenodd"/><path d="M1798.02 1665.19C1806.16 1681.02 1801.12 1699.33 1788.17 1707.84 1775.14 1714.34 1757.77 1704.88 1751.52 1688.99 1743.39 1673.16 1746.47 1652.91 1759.49 1646.41 1772.52 1639.91 1789.82 1647.36 1798.02 1665.19Z" stroke="#333333" stroke-width="4.0106" stroke-miterlimit="8" fill="none" fill-rule="evenodd"/><path d="M1790.12 1705.79C2114.4 1459.6 2114.4 1459.6 2114.4 1459.6 2121.7 1453.32 2125.25 1447.18 2123.02 1437.22 2122.66 1427.2 2113.06 1421.52 2105.54 1421.79 2103.66 1421.85 2101.85 1423.92 2101.85 1423.92 1758.01 1648.73 1758.01 1648.73 1758.01 1648.73" stroke="#333333" stroke-width="4.0106" stroke-linecap="round" stroke-miterlimit="8" fill="none" fill-rule="evenodd"/><path d="M1802.29 1685.29 1798.71 1697.46 2115.79 1455.25 2119.65 1451.1 1802.29 1685.29Z" fill="#4DC184" fill-rule="evenodd"/><path d="M2146.19 1460.48C2143.96 1450.53 2136.23 1444.78 2126.83 1445.11 2125.02 1447.18 2123.14 1447.25 2123.14 1447.25 1797.06 1699.52 1797.06 1699.52 1797.06 1699.52 1832.94 1756.45 1832.94 1756.45 1832.94 1756.45 2139.45 1482.79 2139.45 1482.79 2139.45 1482.79 2144.88 1476.58 2148.43 1470.43 2146.19 1460.48Z" fill="#69F4AE" fill-rule="evenodd"/><path d="M1836.92 1713.98C1846.86 1729.74 1843.75 1747.98 1830.91 1756.49 1819.96 1764.93 1802.81 1757.48 1792.87 1741.71 1784.81 1725.89 1785.97 1705.7 1798.88 1699.2 1811.71 1690.7 1828.79 1696.14 1836.92 1713.98Z" fill="#4E936F" fill-rule="evenodd"/><path d="M1829.99 1718.23C1801.7 1717.22 1803.54 1769.52 1790.77 1727.67 1788.46 1715.67 1795.56 1703.33 1806.71 1698.91 1821.61 1694.36 1841.28 1717.84 1829.99 1718.23Z" fill="#296042" fill-rule="evenodd"/><path d="M1802.76 1747.33C1802.76 1747.33 1818.31 1762.7 1831.08 1752.3 1843.92 1743.89 1837.73 1728.19 1837.73 1728.19 1837.73 1728.19 1840.17 1744.02 1829.14 1750.38 1818.1 1756.73 1802.76 1747.33 1802.76 1747.33Z" fill="#69F4AE" fill-rule="evenodd"/><path d="M1824.97 1694.27C1824.97 1694.27 1844.12 1703.62 1844.76 1721.63 2142.42 1462.61 2142.42 1462.61 2142.42 1462.61 2142.42 1462.61 2140.18 1452.67 2132.66 1452.93L1824.97 1694.27Z" fill="#85F9BB" fill-rule="evenodd"/><path d="M1833.34 1703.98C2140.19 1452.67 2140.19 1452.67 2140.19 1452.67 2140.19 1452.67 2142.06 1452.6 2140.26 1454.67 1837.3 1709.86 1837.3 1709.86 1837.3 1709.86 1837.3 1709.86 1835.28 1705.92 1833.34 1703.98Z" fill="#FFFFFF" fill-rule="evenodd"/><path d="M1790.6 1727.56C1790.6 1727.56 1795.13 1749.71 1812.14 1753.17 1812.14 1753.17 1798.95 1751.6 1790.6 1727.56Z" fill="#FFFFFF" fill-rule="evenodd"/><path d="M1836.92 1713.98C1846.86 1729.74 1843.75 1747.98 1830.91 1756.49 1819.96 1764.93 1800.93 1757.54 1792.87 1741.71 1784.81 1725.89 1785.97 1705.7 1798.88 1699.2 1811.71 1690.7 1828.79 1696.14 1836.92 1713.98Z" stroke="#333333" stroke-width="4.0106" stroke-miterlimit="8" fill="none" fill-rule="evenodd"/><path d="M1832.94 1756.45C2139.45 1482.79 2139.45 1482.79 2139.45 1482.79 2144.88 1476.58 2148.43 1470.43 2146.19 1460.48 2143.96 1450.53 2136.23 1444.78 2126.83 1445.11 2125.02 1447.18 2123.14 1447.25 2123.14 1447.25 1797.06 1699.52 1797.06 1699.52 1797.06 1699.52" stroke="#333333" stroke-width="4.0106" stroke-linecap="round" stroke-miterlimit="8" fill="none" fill-rule="evenodd"/><path d="M1845.28 1733.65 1842.2 1744.08 2141.34 1480.72 2144.55 1474.3 1845.28 1733.65Z" fill="#4DC184" fill-rule="evenodd"/><path d="M2100.44 1333.65C2101.97 1323.58 2094.17 1315.84 2084.7 1314.17 2084.7 1314.17 2080.94 1314.31 2080.94 1314.31 1701.98 1457.9 1701.98 1457.9 1701.98 1457.9 1721.16 1521.33 1721.16 1521.33 1721.16 1521.33 2087.92 1352.13 2087.92 1352.13 2087.92 1352.13 2095.37 1349.86 2100.8 1343.66 2100.44 1333.65Z" fill="#69F4AE" fill-rule="evenodd"/><path d="M1736.91 1482.66C1741.32 1500.56 1734.35 1516.86 1719.42 1521.4 1706.37 1525.87 1690.88 1514.38 1686.47 1496.47 1682.07 1478.57 1688.97 1460.27 1703.9 1455.73 1717.01 1453.26 1732.51 1464.75 1736.91 1482.66Z" fill="#4E936F" fill-rule="evenodd"/><path d="M1727.72 1485.27C1700.87 1474.18 1689.43 1524.75 1687.95 1482.66 1687.52 1470.64 1698.49 1460.22 1709.82 1459.82 1726.8 1459.22 1739.19 1488.88 1727.72 1485.27Z" fill="#296042" fill-rule="evenodd"/><path d="M1692.16 1504.59C1692.16 1504.59 1704.22 1524.22 1719.21 1519.68 1736.03 1513.07 1733.5 1495.1 1733.5 1495.1 1733.5 1495.1 1730.35 1513.27 1719.07 1515.67 1705.9 1518.15 1692.16 1504.59 1692.16 1504.59Z" fill="#69F4AE" fill-rule="evenodd"/><path d="M1730.17 1460.88C1730.17 1460.88 1743.82 1474.42 1740.7 1492.55 2096.51 1335.8 2096.51 1335.8 2096.51 1335.8 2096.51 1335.8 2097.96 1323.73 2090.37 1322L1730.17 1460.88Z" fill="#85F9BB" fill-rule="evenodd"/><path d="M1734.54 1470.97C2096.07 1323.52 2096.07 1323.52 2096.07 1323.52 2096.07 1323.52 2097.95 1323.45 2096.15 1325.53 1738.58 1478.87 1738.58 1478.87 1738.58 1478.87 1738.58 1478.87 1736.56 1474.92 1734.54 1470.97Z" fill="#FFFFFF" fill-rule="evenodd"/><path d="M1688.1 1482.37C1688.1 1482.37 1686.99 1504.48 1700.52 1514.04 1700.52 1514.04 1688.95 1506.42 1688.1 1482.37Z" fill="#FFFFFF" fill-rule="evenodd"/><path d="M1736.91 1482.66C1741.32 1500.56 1732.46 1516.92 1719.42 1521.4 1706.37 1525.87 1690.88 1514.38 1686.47 1496.47 1682.07 1478.57 1688.97 1460.27 1703.9 1455.73 1717.01 1453.26 1732.51 1464.75 1736.91 1482.66Z" stroke="#333333" stroke-width="4.0106" stroke-miterlimit="8" fill="none" fill-rule="evenodd"/><path d="M1721.16 1521.33C2087.92 1352.13 2087.92 1352.13 2087.92 1352.13 2095.37 1349.86 2100.8 1343.66 2100.44 1333.65 2101.97 1323.58 2094.17 1315.84 2084.7 1314.17 2084.7 1314.17 2080.94 1314.31 2080.94 1314.31 1701.98 1457.9 1701.98 1457.9 1701.98 1457.9" stroke="#333333" stroke-width="4.0106" stroke-linecap="round" stroke-miterlimit="8" fill="none" fill-rule="evenodd"/><path d="M1737.45 1504.71 1732.01 1512.93 2089.72 1350.11 2095.3 1345.9 1737.45 1504.71Z" fill="#4DC184" fill-rule="evenodd"/><path d="M2143.41 1328.13C2143.05 1318.12 2137.14 1310.31 2127.68 1308.64 2125.8 1308.71 2123.99 1310.78 2123.99 1310.78 1751.92 1476.19 1751.92 1476.19 1751.92 1476.19 1774.84 1539.51 1774.84 1539.51 1774.84 1539.51 2132.85 1348.54 2132.85 1348.54 2132.85 1348.54 2138.34 1344.34 2143.76 1338.13 2143.41 1328.13Z" fill="#69F4AE" fill-rule="evenodd"/><path d="M1788.36 1498.9C1794.63 1516.74 1787.75 1535.04 1774.74 1539.51 1759.85 1544.05 1744.4 1532.55 1740.08 1516.65 1733.8 1498.82 1740.68 1480.52 1753.69 1476.04 1768.58 1471.51 1783.96 1481 1788.36 1498.9Z" fill="#4E936F" fill-rule="evenodd"/><path d="M1780.62 1501.36C1752.42 1494.36 1743.02 1544.64 1741.54 1502.74 1739.18 1488.84 1750.07 1480.46 1761.16 1478.07 1776.05 1477.55 1791.92 1504.96 1780.62 1501.36Z" fill="#296042" fill-rule="evenodd"/><path d="M1745.61 1524.77C1745.61 1524.77 1759.49 1542.34 1774.41 1535.79 1789.41 1531.25 1786.88 1513.28 1786.88 1513.28 1786.88 1513.28 1783.66 1529.45 1772.45 1533.86 1761.17 1536.26 1745.61 1524.77 1745.61 1524.77Z" fill="#69F4AE" fill-rule="evenodd"/><path d="M1780.06 1477.41C1780.06 1477.41 1797.45 1490.84 1794.33 1509.01 2139.47 1330.3 2139.47 1330.3 2139.47 1330.3 2139.47 1330.3 2139.05 1318.28 2131.47 1316.54L1780.06 1477.41Z" fill="#85F9BB" fill-rule="evenodd"/><path d="M1786.2 1488.94C2139.45 1317.97 2139.45 1317.97 2139.45 1317.97 2139.45 1317.97 2141.4 1319.91 2139.52 1319.98 1790.17 1494.82 1790.17 1494.82 1790.17 1494.82 1790.17 1494.82 1788.22 1492.89 1786.2 1488.94Z" fill="#FFFFFF" fill-rule="evenodd"/><path d="M1741.54 1502.84C1741.54 1502.84 1740.38 1522.76 1755.62 1532.16 1755.62 1532.16 1742.38 1526.66 1741.54 1502.84Z" fill="#FFFFFF" fill-rule="evenodd"/><path d="M1788.36 1499.07C1794.63 1516.84 1787.75 1535.07 1772.86 1539.59 1759.85 1544.05 1744.4 1532.6 1740.01 1514.77 1733.81 1498.99 1740.69 1480.76 1753.7 1476.31 1768.52 1469.79 1783.97 1481.24 1788.36 1499.07Z" stroke="#333333" stroke-width="4.0106" stroke-miterlimit="8" fill="none" fill-rule="evenodd"/><path d="M1774.84 1539.51C2132.85 1348.54 2132.85 1348.54 2132.85 1348.54 2138.34 1344.34 2143.76 1338.13 2143.41 1328.13 2143.05 1318.12 2137.14 1310.31 2127.68 1308.64 2125.8 1308.71 2123.99 1310.78 2123.99 1310.78 1751.92 1476.19 1751.92 1476.19 1751.92 1476.19" stroke="#333333" stroke-width="4.0106" stroke-linecap="round" stroke-miterlimit="8" fill="none" fill-rule="evenodd"/><path d="M1790.77 1521.17 1785.39 1531.11 2134.87 1346.23 2138.11 1340.38 1790.77 1521.17Z" fill="#4DC184" fill-rule="evenodd"/><path d="M2190.43 1328.5C2190.07 1318.48 2182.27 1310.73 2172.87 1311.06 2170.99 1311.13 2169.11 1311.2 2169.11 1311.2 1804.74 1494.6 1804.74 1494.6 1804.74 1494.6 1831.37 1555.86 1831.37 1555.86 1831.37 1555.86 2179.85 1348.94 2179.85 1348.94 2179.85 1348.94 2185.35 1344.73 2190.78 1338.52 2190.43 1328.5Z" fill="#69F4AE" fill-rule="evenodd"/><path d="M1841.67 1515.26C1847.94 1533.02 1842.94 1551.19 1829.93 1555.64 1815.11 1562.16 1799.73 1552.71 1793.46 1534.94 1787.19 1517.18 1794.07 1498.95 1807.08 1494.49 1820.02 1488.04 1837.28 1497.42 1841.67 1515.26Z" fill="#4E936F" fill-rule="evenodd"/><path d="M1833.87 1519.37C1805.3 1510.34 1799.61 1562.71 1794.36 1520.76 1792.06 1508.8 1802.99 1498.38 1814.21 1495.98 1829.19 1493.45 1845.23 1520.97 1833.87 1519.37Z" fill="#296042" fill-rule="evenodd"/><path d="M1801.28 1542.7C1801.28 1542.7 1814.99 1560.45 1829.71 1553.85 1844.43 1547.26 1840.06 1529.18 1840.06 1529.18 1840.06 1529.18 1838.76 1545.43 1827.7 1549.87 1816.64 1554.31 1801.28 1542.7 1801.28 1542.7Z" fill="#69F4AE" fill-rule="evenodd"/><path d="M1833.36 1493.3C1833.36 1493.3 1850.77 1506.73 1847.65 1524.9 2187.05 1330.34 2187.05 1330.34 2187.05 1330.34 2187.05 1330.34 2186.63 1318.32 2179.04 1316.58L1833.36 1493.3Z" fill="#85F9BB" fill-rule="evenodd"/><path d="M1838.95 1505.43C2184.76 1318.67 2184.76 1318.67 2184.76 1318.67 2184.76 1318.67 2186.71 1320.61 2186.71 1320.61 1842.92 1511.31 1842.92 1511.31 1842.92 1511.31 1842.92 1511.31 1840.97 1509.37 1838.95 1505.43Z" fill="#FFFFFF" fill-rule="evenodd"/><path d="M1794.78 1521.03C1794.78 1521.03 1795.55 1542.86 1809 1550.34 1809 1550.34 1797.5 1544.78 1794.78 1521.03Z" fill="#FFFFFF" fill-rule="evenodd"/><path d="M1841.67 1515.26C1847.94 1533.02 1842.94 1551.19 1829.93 1555.64 1815.11 1562.16 1799.66 1550.72 1793.46 1534.94 1787.19 1517.18 1794.07 1498.95 1807.01 1492.49 1820.02 1488.04 1837.28 1497.42 1841.67 1515.26Z" stroke="#333333" stroke-width="4.0106" stroke-miterlimit="8" fill="none" fill-rule="evenodd"/><path d="M1829.49 1555.92C2179.85 1348.94 2179.85 1348.94 2179.85 1348.94 2185.35 1344.73 2190.78 1338.52 2190.43 1328.5 2190.07 1318.48 2182.27 1310.73 2172.87 1311.06 2170.99 1311.13 2169.11 1311.2 2169.11 1311.2 1804.74 1494.6 1804.74 1494.6 1804.74 1494.6" stroke="#333333" stroke-width="4.0106" stroke-linecap="round" stroke-miterlimit="8" fill="none" fill-rule="evenodd"/><path d="M1845.79 1537 1840.43 1547.51 2181.9 1346.86 2185.12 1340.44 1845.79 1537Z" fill="#4DC184" fill-rule="evenodd"/><path d="M1865.81 1247.55C1867.33 1237.51 1863.22 1227.66 1855.56 1223.93 1853.61 1222 1851.73 1222.07 1851.73 1222.07 1447.87 1242.31 1447.87 1242.31 1447.87 1242.31 1450.26 1310.18 1450.26 1310.18 1450.26 1310.18 1847.43 1260.19 1847.43 1260.19 1847.43 1260.19 1854.95 1259.93 1862.33 1255.67 1865.81 1247.55Z" fill="#69F4AE" fill-rule="evenodd"/><path d="M1475.31 1277.32C1474.07 1295.35 1463.31 1309.72 1448.23 1308.25 1435.11 1308.71 1423.29 1293.15 1424.53 1275.12 1423.9 1257.15 1436.46 1240.73 1451.54 1242.19 1464.74 1243.72 1476.56 1259.29 1475.31 1277.32Z" fill="#4E936F" fill-rule="evenodd"/><path d="M1466.05 1277.64C1442.74 1258.49 1417.91 1303.29 1429.69 1262.95 1433.04 1250.85 1444.13 1244.47 1455.58 1248.06 1470.79 1251.51 1475.68 1283.29 1466.05 1277.64Z" fill="#296042" fill-rule="evenodd"/><path d="M1428.74 1285.14C1428.74 1285.14 1433.25 1306.77 1450.12 1306.17 1465.11 1305.64 1470.17 1289.62 1470.17 1289.62 1470.17 1289.62 1461.29 1303.8 1449.98 1302.21 1436.86 1302.68 1428.74 1285.14 1428.74 1285.14Z" fill="#69F4AE" fill-rule="evenodd"/><path d="M1474.62 1253.19C1474.62 1253.19 1484.73 1273.04 1477.71 1287.43 1860.32 1247.67 1860.32 1247.67 1860.32 1247.67 1860.32 1247.67 1865.54 1235.37 1857.87 1231.6L1474.62 1253.19Z" fill="#85F9BB" fill-rule="evenodd"/><path d="M1476.83 1267.11C1863.66 1235.4 1863.66 1235.4 1863.66 1235.4 1863.66 1235.4 1865.61 1237.34 1863.73 1237.41 1477.04 1273.12 1477.04 1273.12 1477.04 1273.12 1477.04 1273.12 1476.97 1271.11 1476.83 1267.11Z" fill="#FFFFFF" fill-rule="evenodd"/><path d="M1430.05 1262.74C1430.05 1262.74 1421.14 1281.11 1433.09 1294.73 1433.09 1294.73 1423.19 1285.05 1430.05 1262.74Z" fill="#FFFFFF" fill-rule="evenodd"/><path d="M1475.31 1277.32C1474.07 1295.35 1463.31 1309.72 1448.23 1308.25 1435.11 1308.71 1423.29 1293.15 1424.53 1275.12 1423.83 1255.16 1436.46 1240.73 1451.54 1242.19 1464.74 1243.72 1476.49 1257.3 1475.31 1277.32Z" stroke="#333333" stroke-width="4.0106" stroke-miterlimit="8" fill="none" fill-rule="evenodd"/><path d="M1450.2 1308.46C1847.44 1260.34 1847.44 1260.34 1847.44 1260.34 1854.96 1260.08 1862.33 1255.8 1865.81 1247.65 1867.33 1237.57 1863.22 1227.68 1855.56 1223.94 1853.61 1222 1851.73 1222.07 1851.73 1222.07 1447.87 1242.33 1447.87 1242.33 1447.87 1242.33" stroke="#333333" stroke-width="4.0106" stroke-linecap="round" stroke-miterlimit="8" fill="none" fill-rule="evenodd"/><path d="M1470.53 1299.72 1463.29 1305.71 1849.21 1259.99 1856.59 1258.01 1470.53 1299.72Z" fill="#4DC184" fill-rule="evenodd"/><path d="M1883.74 1273.04C1887.15 1262.92 1881.16 1253.12 1873.5 1249.39 1871.62 1249.46 1869.74 1249.52 1869.74 1249.52 1468.95 1303.68 1468.95 1303.68 1468.95 1303.68 1475.03 1369.5 1475.03 1369.5 1475.03 1369.5 1867.32 1287.63 1867.32 1287.63 1867.32 1287.63 1874.77 1285.36 1882.14 1281.1 1883.74 1273.04Z" fill="#69F4AE" fill-rule="evenodd"/><path d="M1498.2 1336.72C1498.84 1354.67 1488.04 1369.04 1472.99 1369.57 1459.82 1370.04 1448.04 1356.47 1447.41 1338.51 1444.82 1318.62 1457.5 1304.19 1470.67 1303.73 1485.72 1303.2 1497.5 1316.76 1498.2 1336.72Z" fill="#4E936F" fill-rule="evenodd"/><path d="M1489.19 1336.9C1464.06 1319.72 1443.08 1366.61 1451.01 1324.2 1454.36 1312.04 1465.45 1305.63 1476.82 1307.23 1492.03 1310.71 1500.7 1342.51 1489.19 1336.9Z" fill="#296042" fill-rule="evenodd"/><path d="M1451.61 1348.54C1451.61 1348.54 1458 1370.1 1474.8 1367.53 1489.72 1365.02 1492.91 1349.06 1492.91 1349.06 1492.91 1349.06 1485.9 1363.17 1474.66 1363.57 1461.54 1364.03 1451.61 1348.54 1451.61 1348.54Z" fill="#69F4AE" fill-rule="evenodd"/><path d="M1495.64 1312.88C1495.64 1312.88 1507.55 1330.52 1500.6 1346.81 1879.74 1273.25 1879.74 1273.25 1879.74 1273.25 1879.74 1273.25 1883.07 1261.09 1875.42 1257.35L1495.64 1312.88Z" fill="#85F9BB" fill-rule="evenodd"/><path d="M1500.07 1324.51C1881.19 1261.16 1881.19 1261.16 1881.19 1261.16 1881.19 1261.16 1883.14 1263.08 1881.26 1263.15 1500.35 1332.49 1500.35 1332.49 1500.35 1332.49 1500.35 1332.49 1500.21 1328.5 1500.07 1324.51Z" fill="#FFFFFF" fill-rule="evenodd"/><path d="M1450.76 1324.49C1450.76 1324.49 1445.81 1346.55 1457.68 1358.07 1457.68 1358.07 1447.79 1348.47 1450.76 1324.49Z" fill="#FFFFFF" fill-rule="evenodd"/><path d="M1498.13 1334.72C1498.84 1354.67 1488.04 1369.04 1472.99 1369.57 1459.82 1370.04 1448.04 1356.47 1445.53 1338.57 1444.82 1318.62 1457.5 1304.19 1470.67 1303.73 1485.72 1303.2 1497.5 1316.76 1498.13 1334.72Z" stroke="#333333" stroke-width="4.0106" stroke-miterlimit="8" fill="none" fill-rule="evenodd"/><path d="M1475.03 1369.5C1867.32 1287.63 1867.32 1287.63 1867.32 1287.63 1874.77 1285.36 1882.14 1281.1 1883.74 1273.04 1887.15 1262.92 1881.16 1253.12 1873.5 1249.39 1871.62 1249.46 1869.74 1249.52 1869.74 1249.52 1468.95 1303.68 1468.95 1303.68 1468.95 1303.68" stroke="#333333" stroke-width="4.0106" stroke-linecap="round" stroke-miterlimit="8" fill="none" fill-rule="evenodd"/><path d="M1495.47 1356.74 1488.31 1365.02 1869.03 1285.66 1876.39 1283.11 1495.47 1356.74Z" fill="#4DC184" fill-rule="evenodd"/><path d="M1899.84 1302.35C1901.37 1292.26 1895.38 1282.44 1887.79 1280.7 1885.85 1278.76 1884.04 1280.83 1884.04 1280.83 1488.31 1365.02 1488.31 1365.02 1488.31 1365.02 1500.1 1432.82 1500.1 1432.82 1500.1 1432.82 1885.38 1318.91 1885.38 1318.91 1885.38 1318.91 1892.82 1316.64 1898.32 1312.43 1899.84 1302.35Z" fill="#69F4AE" fill-rule="evenodd"/><path d="M1519.06 1396.04C1521.57 1414.01 1512.76 1430.37 1497.82 1432.9 1482.82 1433.43 1471.07 1419.8 1468.56 1401.83 1466.04 1383.86 1476.73 1367.43 1489.79 1364.96 1504.8 1364.44 1518.42 1378 1519.06 1396.04Z" fill="#4E936F" fill-rule="evenodd"/><path d="M1511.56 1396.43C1484.8 1383.26 1467.75 1432.24 1471.81 1387.75 1473.26 1375.61 1484.31 1369.17 1497.43 1368.71 1512.58 1372.21 1521.15 1402.14 1511.56 1396.43Z" fill="#296042" fill-rule="evenodd"/><path d="M1474.48 1411.68C1474.48 1411.68 1482.79 1431.71 1497.92 1429.15 1514.95 1426.51 1516.2 1408.18 1516.2 1408.18 1516.2 1408.18 1509.18 1424.68 1497.78 1425.09 1486.45 1427.52 1474.48 1411.68 1474.48 1411.68Z" fill="#69F4AE" fill-rule="evenodd"/><path d="M1516.66 1372.33C1516.66 1372.33 1528.56 1389.97 1523.49 1406.2 1895.84 1302.78 1895.84 1302.78 1895.84 1302.78 1895.84 1302.78 1897.37 1292.69 1891.59 1288.88L1516.66 1372.33Z" fill="#85F9BB" fill-rule="evenodd"/><path d="M1520.51 1383.97C1897.78 1292.68 1897.78 1292.68 1897.78 1292.68 1897.78 1292.68 1899.66 1292.61 1897.85 1294.67 1520.79 1391.96 1520.79 1391.96 1520.79 1391.96 1520.79 1391.96 1520.72 1389.96 1520.51 1383.97Z" fill="#FFFFFF" fill-rule="evenodd"/><path d="M1471.84 1387.96C1471.84 1387.96 1466.97 1410.01 1480.56 1421.47 1480.56 1421.47 1468.92 1411.93 1471.84 1387.96Z" fill="#FFFFFF" fill-rule="evenodd"/><path d="M1519.06 1396.18C1521.57 1414.08 1512.76 1430.38 1497.75 1430.91 1482.82 1433.43 1471.07 1419.86 1468.56 1401.96 1466.05 1384.07 1476.74 1367.7 1489.8 1365.24 1504.74 1362.72 1518.36 1376.23 1519.06 1396.18Z" stroke="#333333" stroke-width="4.0106" stroke-miterlimit="8" fill="none" fill-rule="evenodd"/><path d="M1500.04 1431.1C1885.38 1318.99 1885.38 1318.99 1885.38 1318.99 1892.83 1316.72 1898.32 1312.5 1899.84 1302.4 1901.37 1292.29 1895.38 1282.45 1887.79 1280.71 1885.85 1278.76 1884.04 1280.84 1884.04 1280.84 1488.32 1365.17 1488.32 1365.17 1488.32 1365.17" stroke="#333333" stroke-width="4.0106" stroke-linecap="round" stroke-miterlimit="8" fill="none" fill-rule="evenodd"/><path d="M1518.28 1418.42 1512.84 1426.64 1887.34 1317.12 1892.92 1312.91 1518.28 1418.42Z" fill="#4DC184" fill-rule="evenodd"/><path d="M1987.83 1245.31C1989.36 1235.24 1983.37 1225.44 1973.92 1223.77 1973.85 1221.77 1970.09 1221.91 1970.09 1221.91 1574.44 1303.93 1574.44 1303.93 1574.44 1303.93 1586.15 1369.59 1586.15 1369.59 1586.15 1369.59 1971.5 1261.9 1971.5 1261.9 1971.5 1261.9 1978.94 1259.63 1986.24 1253.37 1987.83 1245.31Z" fill="#69F4AE" fill-rule="evenodd"/><path d="M1605.67 1332.92C1608.27 1352.97 1597.47 1369.47 1584.2 1369.94 1569.11 1372.49 1555.34 1358.87 1554.63 1338.75 1552.1 1320.71 1562.9 1304.21 1576.17 1303.74 1591.26 1301.19 1605.03 1314.81 1605.67 1332.92Z" fill="#4E936F" fill-rule="evenodd"/><path d="M1598.16 1335.2C1571.05 1320.03 1553.8 1369.01 1558 1326.54 1559.47 1314.39 1570.56 1305.94 1583.9 1307.48 1599.13 1308.96 1607.85 1340.9 1598.16 1335.2Z" fill="#296042" fill-rule="evenodd"/><path d="M1561.11 1348.69C1561.11 1348.69 1569.38 1370.18 1584.3 1367.68 1601.09 1365.1 1602.34 1347.24 1602.34 1347.24 1602.34 1347.24 1595.4 1363.32 1584.16 1363.72 1572.91 1364.12 1561.11 1348.69 1561.11 1348.69Z" fill="#69F4AE" fill-rule="evenodd"/><path d="M1602.77 1310.82C1602.77 1310.82 1614.69 1328.46 1609.61 1344.69 1982.51 1245.26 1982.51 1245.26 1982.51 1245.26 1982.51 1245.26 1985.92 1235.11 1978.26 1231.36L1602.77 1310.82Z" fill="#85F9BB" fill-rule="evenodd"/><path d="M1607.21 1322.96C1984.04 1235.17 1984.04 1235.17 1984.04 1235.17 1984.04 1235.17 1985.92 1235.11 1984.11 1237.18 1607.5 1331 1607.5 1331 1607.5 1331 1607.5 1331 1607.36 1326.98 1607.21 1322.96Z" fill="#FFFFFF" fill-rule="evenodd"/><path d="M1557.95 1326.44C1557.95 1326.44 1553.02 1346.68 1566.61 1358.24 1566.61 1358.24 1555.04 1350.62 1557.95 1326.44Z" fill="#FFFFFF" fill-rule="evenodd"/><path d="M1605.67 1332.92C1608.27 1352.97 1597.4 1367.46 1584.2 1369.94 1569.11 1372.49 1555.27 1356.86 1554.63 1338.75 1552.1 1320.71 1562.9 1304.21 1576.17 1303.74 1591.26 1301.19 1605.03 1314.81 1605.67 1332.92Z" stroke="#333333" stroke-width="4.0106" stroke-miterlimit="8" fill="none" fill-rule="evenodd"/><path d="M1584.28 1369.66C1971.5 1261.9 1971.5 1261.9 1971.5 1261.9 1978.94 1259.63 1986.24 1253.37 1985.96 1245.37 1989.36 1235.24 1983.37 1225.44 1973.92 1223.77 1971.97 1221.84 1970.09 1221.91 1970.09 1221.91 1574.44 1303.93 1574.44 1303.93 1574.44 1303.93" stroke="#333333" stroke-width="4.0106" stroke-linecap="round" stroke-miterlimit="8" fill="none" fill-rule="evenodd"/><path d="M1604.34 1355.19 1597.24 1365.19 1973.59 1259.62 1979.18 1255.41 1604.34 1355.19Z" fill="#4DC184" fill-rule="evenodd"/><path d="M1986.97 1209.2C1990.38 1199.08 1984.39 1189.29 1976.73 1185.56 1974.85 1185.62 1972.97 1185.69 1972.97 1185.69 1572.04 1235.84 1572.04 1235.84 1572.04 1235.84 1578.12 1301.66 1578.12 1301.66 1578.12 1301.66 1972.43 1223.72 1972.43 1223.72 1972.43 1223.72 1979.95 1223.46 1985.37 1217.26 1986.97 1209.2Z" fill="#69F4AE" fill-rule="evenodd"/><path d="M1601.29 1268.87C1601.93 1286.83 1591.1 1301.2 1576 1301.73 1562.79 1302.2 1550.97 1288.63 1550.27 1268.68 1549.63 1250.72 1560.46 1236.35 1573.67 1235.89 1588.77 1235.35 1600.59 1248.92 1601.29 1268.87Z" fill="#4E936F" fill-rule="evenodd"/><path d="M1591.81 1269.07C1568.79 1251.82 1546.17 1298.77 1554.01 1256.36 1557.32 1244.2 1568.3 1237.8 1579.56 1239.41 1594.63 1242.89 1603.22 1274.69 1591.81 1269.07Z" fill="#296042" fill-rule="evenodd"/><path d="M1554.62 1278.41C1554.62 1278.41 1561.03 1300.54 1577.89 1299.94 1592.81 1297.39 1595.99 1281.01 1595.99 1281.01 1595.99 1281.01 1588.99 1295.49 1577.75 1295.88 1564.63 1296.35 1554.62 1278.41 1554.62 1278.41Z" fill="#69F4AE" fill-rule="evenodd"/><path d="M1600.45 1244.97C1600.45 1244.97 1610.48 1262.68 1603.53 1278.98 1982.97 1209.41 1982.97 1209.41 1982.97 1209.41 1982.97 1209.41 1986.3 1197.26 1978.64 1193.51L1600.45 1244.97Z" fill="#85F9BB" fill-rule="evenodd"/><path d="M1602.58 1256.65C1986.36 1198.97 1986.36 1198.97 1986.36 1198.97 1986.36 1198.97 1986.36 1198.97 1986.36 1198.97 1602.86 1264.67 1602.86 1264.67 1602.86 1264.67 1602.86 1264.67 1602.72 1260.66 1602.58 1256.65Z" fill="#FFFFFF" fill-rule="evenodd"/><path d="M1553.85 1256.65C1553.85 1256.65 1548.83 1276.72 1560.77 1290.23 1560.77 1290.23 1550.88 1280.63 1553.85 1256.65Z" fill="#FFFFFF" fill-rule="evenodd"/><path d="M1601.22 1266.88C1601.93 1286.83 1591.13 1301.2 1576.08 1301.73 1562.91 1302.19 1549.25 1288.69 1550.43 1268.67 1549.8 1250.71 1560.59 1236.35 1573.76 1235.88 1588.81 1235.35 1600.59 1248.92 1601.22 1266.88Z" stroke="#333333" stroke-width="4.0106" stroke-miterlimit="8" fill="none" fill-rule="evenodd"/><path d="M1578.12 1301.66C1972.43 1223.72 1972.43 1223.72 1972.43 1223.72 1979.95 1223.46 1985.37 1217.26 1986.97 1209.2 1990.38 1199.08 1984.39 1189.29 1976.73 1185.56 1974.85 1185.62 1972.97 1185.69 1972.97 1185.69 1572.04 1235.84 1572.04 1235.84 1572.04 1235.84" stroke="#333333" stroke-width="4.0106" stroke-linecap="round" stroke-miterlimit="8" fill="none" fill-rule="evenodd"/><path d="M1598.56 1288.9 1590.83 1297.2 1973.98 1221.77 1979.62 1219.28 1598.56 1288.9Z" fill="#4DC184" fill-rule="evenodd"/><path d="M1987.41 1172.95C1990.82 1162.76 1984.83 1152.9 1977.17 1149.14 1975.22 1147.2 1973.34 1147.27 1973.34 1147.27 1571.51 1167.48 1571.51 1167.48 1571.51 1167.48 1572.04 1235.94 1572.04 1235.94 1572.04 1235.94 1969.12 1187.7 1969.12 1187.7 1969.12 1187.7 1976.57 1185.42 1983.94 1181.13 1987.41 1172.95Z" fill="#69F4AE" fill-rule="evenodd"/><path d="M1597.09 1202.96C1597.73 1220.99 1585.09 1235.48 1570.09 1236.01 1556.89 1234.47 1545.07 1218.84 1546.31 1200.74 1547.55 1182.63 1558.31 1168.21 1573.31 1167.68 1586.51 1169.22 1598.33 1184.86 1597.09 1202.96Z" fill="#4E936F" fill-rule="evenodd"/><path d="M1589.57 1203.1C1564.44 1183.83 1539.7 1229.06 1551.43 1188.32 1554.76 1176.1 1567.7 1169.6 1579.11 1173.23 1592.4 1176.79 1599.18 1208.81 1589.57 1203.1Z" fill="#296042" fill-rule="evenodd"/><path d="M1550.5 1210.33C1550.5 1210.33 1555.04 1232.53 1571.9 1231.94 1588.76 1231.34 1591.94 1214.97 1591.94 1214.97 1591.94 1214.97 1583.07 1229.51 1571.76 1227.88 1560.51 1228.27 1550.5 1210.33 1550.5 1210.33Z" fill="#69F4AE" fill-rule="evenodd"/><path d="M1598.12 1178.79C1598.12 1178.79 1608.21 1198.36 1599.31 1212.62 1981.53 1173.24 1981.53 1173.24 1981.53 1173.24 1981.53 1173.24 1986.81 1163.09 1979.09 1157.38L1598.12 1178.79Z" fill="#85F9BB" fill-rule="evenodd"/><path d="M1598.61 1192.79C1984.93 1162.91 1984.93 1162.91 1984.93 1162.91 1984.93 1162.91 1986.81 1162.84 1985 1164.94 1600.7 1198.82 1600.7 1198.82 1600.7 1198.82 1600.7 1198.82 1598.75 1196.85 1598.61 1192.79Z" fill="#FFFFFF" fill-rule="evenodd"/><path d="M1551.34 1188.52C1551.34 1188.52 1544.64 1206.81 1554.3 1220.52 1554.3 1220.52 1544.79 1210.82 1551.34 1188.52Z" fill="#FFFFFF" fill-rule="evenodd"/><path d="M1597.09 1202.83C1597.72 1220.94 1585.09 1235.48 1570.02 1234 1556.89 1234.46 1545.07 1218.76 1546.3 1200.59 1545.59 1180.47 1558.23 1165.92 1573.3 1167.4 1586.5 1168.95 1598.32 1184.65 1597.09 1202.83Z" stroke="#333333" stroke-width="4.0106" stroke-miterlimit="8" fill="none" fill-rule="evenodd"/><path d="M1571.96 1233.65C1969.12 1187.54 1969.12 1187.54 1969.12 1187.54 1976.56 1185.27 1983.94 1181 1987.41 1172.85 1990.81 1162.7 1984.82 1152.88 1977.17 1149.14 1975.22 1147.2 1973.34 1147.27 1973.34 1147.27 1571.51 1167.46 1571.51 1167.46 1571.51 1167.46" stroke="#333333" stroke-width="4.0106" stroke-linecap="round" stroke-miterlimit="8" fill="none" fill-rule="evenodd"/><path d="M1592.29 1224.91 1585.07 1231.47 1972.71 1185.7 1978.35 1183.2 1592.29 1224.91Z" fill="#4DC184" fill-rule="evenodd"/><path d="M2083.88 1237.92C2085.41 1227.85 2079.48 1220.05 2070.01 1218.38 2068.13 1218.45 2066.25 1218.51 2066.25 1218.51 1678.98 1342.35 1678.98 1342.35 1678.98 1342.35 1696.29 1405.84 1696.29 1405.84 1696.29 1405.84 2071.35 1256.39 2071.35 1256.39 2071.35 1256.39 2078.8 1254.13 2084.23 1247.93 2083.88 1237.92Z" fill="#69F4AE" fill-rule="evenodd"/><path d="M1713.99 1369.1C1718.39 1387 1709.54 1403.36 1694.54 1405.9 1681.49 1410.37 1667.81 1396.81 1663.41 1378.91 1659 1361 1667.86 1344.64 1682.79 1340.1 1695.9 1337.63 1711.4 1349.12 1713.99 1369.1Z" fill="#4E936F" fill-rule="evenodd"/><path d="M1706.64 1369.64C1678 1358.61 1664.72 1409.24 1666.93 1365.02 1666.5 1353 1677.51 1344.59 1688.79 1344.19 1703.91 1345.66 1716.26 1375.32 1706.64 1369.64Z" fill="#296042" fill-rule="evenodd"/><path d="M1669.73 1388.78C1669.73 1388.78 1679.81 1408.71 1696.53 1404.06 1711.38 1399.48 1710.74 1381.25 1710.74 1381.25 1710.74 1381.25 1705.69 1397.66 1694.52 1400.08 1683.35 1402.5 1669.73 1388.78 1669.73 1388.78Z" fill="#69F4AE" fill-rule="evenodd"/><path d="M1709.48 1345.46C1709.48 1345.46 1723.19 1361.03 1718.19 1379.27 2079.95 1240.1 2079.95 1240.1 2079.95 1240.1 2079.95 1240.1 2081.4 1228.01 2073.82 1226.27L1709.48 1345.46Z" fill="#85F9BB" fill-rule="evenodd"/><path d="M1713.33 1357.08C2081.39 1227.73 2081.39 1227.73 2081.39 1227.73 2081.39 1227.73 2081.46 1229.73 2081.46 1229.73 1715.49 1365.03 1715.49 1365.03 1715.49 1365.03 1715.49 1365.03 1715.35 1361.02 1713.33 1357.08Z" fill="#FFFFFF" fill-rule="evenodd"/><path d="M1666.93 1365.02C1666.93 1365.02 1663.94 1387.2 1677.46 1396.76 1677.46 1396.76 1665.89 1389.14 1666.93 1365.02Z" fill="#FFFFFF" fill-rule="evenodd"/><path d="M1713.92 1367.09C1718.39 1387 1709.54 1403.36 1694.54 1405.9 1681.49 1410.37 1667.81 1396.81 1663.41 1378.91 1659 1361 1667.86 1344.64 1682.79 1340.1 1695.9 1337.63 1711.4 1349.12 1713.92 1367.09Z" stroke="#333333" stroke-width="4.0106" stroke-miterlimit="8" fill="none" fill-rule="evenodd"/><path d="M1696.29 1405.84C2071.35 1256.39 2071.35 1256.39 2071.35 1256.39 2078.8 1254.13 2084.23 1247.93 2083.88 1237.92 2085.41 1227.85 2079.48 1220.05 2070.01 1218.38 2068.13 1218.45 2066.25 1218.51 2066.25 1218.51 1678.98 1342.35 1678.98 1342.35 1678.98 1342.35" stroke="#333333" stroke-width="4.0106" stroke-linecap="round" stroke-miterlimit="8" fill="none" fill-rule="evenodd"/><path d="M1714.54 1391.43 1709.67 1399.63 2073.16 1254.39 2078.74 1250.18 1714.54 1391.43Z" fill="#4DC184" fill-rule="evenodd"/><path d="M2136.77 1242.11C2138.3 1232.02 2132.37 1224.21 2122.9 1222.53 2120.95 1220.6 2119.14 1222.67 2119.14 1222.67 1731.81 1344.68 1731.81 1344.68 1731.81 1344.68 1749.18 1410.28 1749.18 1410.28 1749.18 1410.28 2124.24 1260.61 2124.24 1260.61 2124.24 1260.61 2131.69 1258.34 2137.12 1252.13 2136.77 1242.11Z" fill="#69F4AE" fill-rule="evenodd"/><path d="M1766.81 1371.41C1771.21 1389.24 1762.43 1407.53 1747.43 1410.06 1734.31 1412.52 1718.82 1401.08 1716.3 1383.18 1711.9 1365.35 1720.68 1347.06 1735.69 1344.53 1748.8 1342.07 1764.3 1353.51 1766.81 1371.41Z" fill="#4E936F" fill-rule="evenodd"/><path d="M1759.52 1373.51C1730.88 1362.48 1717.6 1413.11 1717.92 1368.96 1719.38 1356.87 1730.38 1348.45 1741.67 1348.06 1756.79 1349.53 1769.14 1379.19 1759.52 1373.51Z" fill="#296042" fill-rule="evenodd"/><path d="M1722.55 1391.11C1722.55 1391.11 1732.69 1412.58 1749.42 1408.02 1764.27 1403.53 1763.64 1385.69 1763.64 1385.69 1763.64 1385.69 1758.57 1401.74 1747.4 1404.12 1736.23 1406.5 1722.55 1391.11 1722.55 1391.11Z" fill="#69F4AE" fill-rule="evenodd"/><path d="M1762.36 1349.55C1762.36 1349.55 1776.07 1365.15 1771.01 1381.42 2132.83 1244 2132.83 1244 2132.83 1244 2132.83 1244 2134.28 1231.88 2126.7 1230.14L1762.36 1349.55Z" fill="#85F9BB" fill-rule="evenodd"/><path d="M1766.21 1361.25C2134.29 1232.17 2134.29 1232.17 2134.29 1232.17 2134.29 1232.17 2134.29 1232.17 2134.36 1234.16 1768.31 1367.18 1768.31 1367.18 1768.31 1367.18 1768.31 1367.18 1766.36 1365.25 1766.21 1361.25Z" fill="#FFFFFF" fill-rule="evenodd"/><path d="M1717.92 1368.96C1717.92 1368.96 1716.82 1391.07 1730.34 1400.62 1730.34 1400.62 1718.77 1393.01 1717.92 1368.96Z" fill="#FFFFFF" fill-rule="evenodd"/><path d="M1766.81 1371.41C1771.21 1389.24 1762.43 1407.53 1747.43 1410.06 1734.31 1412.52 1718.82 1401.08 1716.3 1383.18 1711.9 1365.35 1720.68 1347.06 1735.69 1344.53 1748.8 1342.07 1762.41 1353.58 1766.81 1371.41Z" stroke="#333333" stroke-width="4.0106" stroke-miterlimit="8" fill="none" fill-rule="evenodd"/><path d="M1749.18 1410.28C2124.24 1260.61 2124.24 1260.61 2124.24 1260.61 2131.69 1258.34 2137.12 1252.13 2136.77 1242.11 2138.3 1232.02 2132.37 1224.21 2122.9 1222.53 2120.95 1220.6 2119.14 1222.67 2119.14 1222.67 1731.81 1344.68 1731.81 1344.68 1731.81 1344.68" stroke="#333333" stroke-width="4.0106" stroke-linecap="round" stroke-miterlimit="8" fill="none" fill-rule="evenodd"/><path d="M1767.35 1393.58 1761.97 1403.52 2126.04 1258.25 2131.62 1254.04 1767.35 1393.58Z" fill="#4DC184" fill-rule="evenodd"/><path d="M2191.47 1244.19C2191.04 1232.17 2185.12 1224.35 2175.64 1222.68 2173.76 1222.75 2171.88 1222.81 2171.88 1222.81 1786.34 1346.77 1786.34 1346.77 1786.34 1346.77 1801.84 1412.43 1801.84 1412.43 1801.84 1412.43 2176.98 1260.76 2176.98 1260.76 2176.98 1260.76 2184.44 1258.49 2189.87 1252.28 2191.47 1244.19Z" fill="#69F4AE" fill-rule="evenodd"/><path d="M1819.61 1373.4C1824.03 1391.3 1815.15 1407.66 1802.06 1412.14 1787.02 1414.68 1773.37 1403.12 1768.88 1383.21 1766.36 1365.24 1773.35 1348.94 1788.39 1346.41 1801.48 1341.93 1817.09 1355.43 1819.61 1373.4Z" fill="#4E936F" fill-rule="evenodd"/><path d="M1812.35 1375.95C1783.64 1362.91 1770.35 1413.54 1772.63 1371.33 1772.14 1357.3 1783.14 1348.89 1794.5 1350.49 1809.55 1349.96 1821.9 1379.62 1812.35 1375.95Z" fill="#296042" fill-rule="evenodd"/><path d="M1774.79 1393.1C1774.79 1393.1 1786.9 1412.96 1801.96 1408.37 1817.02 1403.78 1816.37 1385.55 1816.37 1385.55 1816.37 1385.55 1813.15 1401.89 1799.92 1404.39 1788.59 1406.81 1774.79 1393.1 1774.79 1393.1Z" fill="#69F4AE" fill-rule="evenodd"/><path d="M1815.18 1351.77C1815.18 1351.77 1828.89 1367.34 1823.82 1383.57 2185.58 1244.4 2185.58 1244.4 2185.58 1244.4 2185.58 1244.4 2187.11 1234.32 2179.45 1230.57L1815.18 1351.77Z" fill="#85F9BB" fill-rule="evenodd"/><path d="M1818.96 1361.4C2186.95 1234.32 2186.95 1234.32 2186.95 1234.32 2186.95 1234.32 2188.82 1234.26 2187.02 1236.32 1821.12 1369.33 1821.12 1369.33 1821.12 1369.33 1821.12 1369.33 1821.05 1367.33 1818.96 1361.4Z" fill="#FFFFFF" fill-rule="evenodd"/><path d="M1772.62 1371.04C1772.62 1371.04 1769.56 1391.21 1783.16 1402.77 1783.16 1402.77 1771.59 1395.16 1772.62 1371.04Z" fill="#FFFFFF" fill-rule="evenodd"/><path d="M1819.62 1373.4C1824.03 1391.3 1815.17 1407.66 1800.24 1412.2 1787.13 1414.67 1773.52 1403.11 1769.04 1383.21 1764.64 1365.3 1773.49 1348.94 1788.49 1346.4 1801.54 1341.93 1817.1 1355.43 1819.62 1373.4Z" stroke="#333333" stroke-width="4.0106" stroke-miterlimit="8" fill="none" fill-rule="evenodd"/><path d="M1801.76 1410.14C2176.98 1260.69 2176.98 1260.69 2176.98 1260.69 2184.44 1258.43 2189.87 1252.23 2191.47 1244.16 2191.04 1232.15 2185.12 1224.35 2175.64 1222.68 2173.76 1222.75 2171.88 1222.81 2171.88 1222.81 1786.34 1346.59 1786.34 1346.59 1786.34 1346.59" stroke="#333333" stroke-width="4.0106" stroke-linecap="round" stroke-miterlimit="8" fill="none" fill-rule="evenodd"/><path d="M1820.17 1395.73 1814.73 1403.95 2178.79 1258.69 2184.44 1256.19 1820.17 1395.73Z" fill="#4DC184" fill-rule="evenodd"/></g></svg>