<svg width="650" height="932" xmlns="http://www.w3.org/2000/svg" xmlns:xlink="http://www.w3.org/1999/xlink" xml:space="preserve" overflow="hidden"><g transform="translate(-2238 -747)"><path d="M2397.08 1323.75C2407.18 1325.23 2415.93 1318.3 2418.38 1311.19 2418.99 1309.41 2417.7 1306.98 2417.7 1306.98 2319.41 907.508 2319.41 907.508 2319.41 907.508 2253.98 918.803 2253.98 918.803 2253.98 918.803 2379.26 1307.68 2379.26 1307.68 2379.26 1307.68 2381.22 1314.32 2387.59 1320.48 2397.08 1323.75Z" fill="#69F4AE" fill-rule="evenodd"/><path d="M2291.54 939.673C2273.87 941.531 2256.05 931.441 2254.61 917.066 2251.26 902.036 2264.36 888.695 2283.93 887.491 2301.6 885.633 2317.51 895.069 2320.86 910.098 2322.3 924.474 2309.2 937.815 2291.54 939.673Z" fill="#4E936F" fill-rule="evenodd"/><path d="M2290.21 931.48C2303.87 904.086 2255.18 885.346 2297.47 891.86 2310.08 892.183 2316.48 904.41 2316.57 916.475 2315.43 932.127 2284.62 941.589 2290.21 931.48Z" fill="#296042" fill-rule="evenodd"/><path d="M2273.99 891.895C2273.99 891.895 2254.02 901.047 2256.62 917.955 2259.84 933.072 2277.99 935.309 2277.99 935.309 2277.99 935.309 2261.68 927.701 2261 917.457 2259.05 904.776 2273.99 891.895 2273.99 891.895Z" fill="#69F4AE" fill-rule="evenodd"/><path d="M2314.06 935.353C2314.06 935.353 2297.16 947.455 2280.07 941.582 2394.41 1319.19 2394.41 1319.19 2394.41 1319.19 2394.41 1319.19 2406.41 1321.33 2408.86 1314.21L2314.06 935.353Z" fill="#85F9BB" fill-rule="evenodd"/><path d="M2302.39 939.218C2406.55 1320.94 2406.55 1320.94 2406.55 1320.94 2406.55 1320.94 2406.55 1320.94 2404.65 1320.29 2295.48 940.819 2295.48 940.819 2295.48 940.819 2295.48 940.819 2297.99 939.693 2302.39 939.218Z" fill="#FFFFFF" fill-rule="evenodd"/><path d="M2297.13 891.972C2297.13 891.972 2275.67 886.548 2265.18 898.559 2265.18 898.559 2273.17 887.642 2297.13 891.972Z" fill="#FFFFFF" fill-rule="evenodd"/><path d="M2291.54 939.673C2273.87 941.531 2256.05 931.441 2254.61 917.066 2251.26 902.036 2264.36 888.695 2283.93 887.491 2301.6 885.633 2319.42 895.723 2320.86 910.098 2322.3 924.474 2309.2 937.815 2291.54 939.673Z" stroke="#333333" stroke-width="4.0106" stroke-miterlimit="8" fill="none" fill-rule="evenodd"/><path d="M2254.59 917.025C2379.26 1307.68 2379.26 1307.68 2379.26 1307.68 2381.22 1314.32 2387.59 1320.48 2397.08 1323.75 2407.18 1325.23 2415.93 1318.3 2418.38 1311.19 2418.99 1309.41 2417.7 1306.98 2417.7 1306.98 2319.41 907.508 2319.41 907.508 2319.41 907.508" stroke="#333333" stroke-width="4.0106" stroke-linecap="round" stroke-miterlimit="8" fill="none" fill-rule="evenodd"/><path d="M2268.62 937.907 2260.71 930.949 2380.56 1310.19 2384.67 1315.84 2268.62 937.907Z" fill="#4DC184" fill-rule="evenodd"/><path d="M2430.88 1367.3C2442.88 1369.44 2451.02 1364.29 2454.07 1355.4 2454.07 1355.4 2453.39 1351.19 2453.39 1351.19 2354.5 953.493 2354.5 953.493 2354.5 953.493 2289.67 963.01 2289.67 963.01 2289.67 963.01 2414.34 1353.67 2414.34 1353.67 2414.34 1353.67 2416.3 1360.3 2422.67 1366.47 2430.88 1367.3Z" fill="#69F4AE" fill-rule="evenodd"/><path d="M2327.23 983.884C2307.05 986.861 2291.75 975.653 2290.3 961.277 2286.34 948.021 2299.44 934.68 2319.01 933.476 2336.68 931.618 2352.59 941.053 2355.94 956.083 2357.39 970.458 2344.9 982.026 2327.23 983.884Z" fill="#4E936F" fill-rule="evenodd"/><path d="M2325.96 975.23C2338.92 949.915 2288.13 930.473 2333.06 935.994 2345.1 938.145 2352.17 948.517 2351.71 962.249 2350.64 977.757 2319.79 987 2325.96 975.23Z" fill="#296042" fill-rule="evenodd"/><path d="M2309.07 937.879C2309.07 937.879 2289.17 946.843 2292.44 961.795 2295.11 978.515 2313.85 979.032 2313.85 979.032 2313.85 979.032 2296.93 973.215 2296.81 961.321 2294.21 950.548 2309.07 937.879 2309.07 937.879Z" fill="#69F4AE" fill-rule="evenodd"/><path d="M2349.14 981.337C2349.14 981.337 2332.25 993.42 2315.16 987.547 2430.24 1363.01 2430.24 1363.01 2430.24 1363.01 2430.24 1363.01 2441.63 1366.92 2444.07 1359.81L2349.14 981.337Z" fill="#85F9BB" fill-rule="evenodd"/><path d="M2337.48 985.203C2442.24 1365.15 2442.24 1365.15 2442.24 1365.15 2442.24 1365.15 2441.63 1366.92 2439.73 1366.27 2330.57 986.803 2330.57 986.803 2330.57 986.803 2330.57 986.803 2333.07 985.677 2337.48 985.203Z" fill="#FFFFFF" fill-rule="evenodd"/><path d="M2332.95 935.789C2332.95 935.789 2311.48 930.407 2300.26 944.544 2300.26 944.544 2308.36 933.331 2332.95 935.789Z" fill="#FFFFFF" fill-rule="evenodd"/><path d="M2327.19 984.014C2307.61 985.236 2291.7 975.791 2290.26 961.384 2286.32 948.099 2299.43 934.717 2319.01 933.494 2336.68 931.618 2352.59 941.062 2355.93 956.124 2357.36 970.532 2344.86 982.137 2327.19 984.014Z" stroke="#333333" stroke-width="4.0106" stroke-miterlimit="8" fill="none" fill-rule="evenodd"/><path d="M2289.67 963.01C2414.34 1353.67 2414.34 1353.67 2414.34 1353.67 2416.3 1360.3 2422.67 1366.47 2430.88 1367.3 2442.88 1369.44 2451.02 1364.29 2454.07 1355.4 2454.07 1355.4 2453.39 1351.19 2453.39 1351.19 2354.5 953.493 2354.5 953.493 2354.5 953.493" stroke="#333333" stroke-width="4.0106" stroke-linecap="round" stroke-miterlimit="8" fill="none" fill-rule="evenodd"/><path d="M2304.44 981.725 2295.79 976.933 2416.2 1354.55 2419.75 1361.83 2304.44 981.725Z" fill="#4DC184" fill-rule="evenodd"/><path d="M2669.39 1240.28C2678.24 1245.31 2688.92 1245 2695.75 1237.42 2695.75 1237.42 2696.98 1233.87 2696.98 1233.87 2785.45 841.122 2785.45 841.122 2785.45 841.122 2721.81 823.221 2721.81 823.221 2721.81 823.221 2661.65 1219.74 2661.65 1219.74 2661.65 1219.74 2659.21 1226.84 2662.44 1235.9 2669.39 1240.28Z" fill="#69F4AE" fill-rule="evenodd"/><path d="M2746 857.249C2727.12 850.759 2717.58 835.535 2721.86 823.073 2726.76 808.832 2743.64 802.693 2761.25 806.754 2780.13 813.244 2789.68 828.468 2784.78 842.71 2779.88 856.952 2763 863.09 2746 857.249Z" fill="#4E936F" fill-rule="evenodd"/><path d="M2749.23 848.331C2772.28 830.598 2735.95 794.423 2772.74 816.937 2783.51 822.613 2784.95 836.926 2779.41 846.865 2770.77 859.683 2738 856.315 2749.23 848.331Z" fill="#296042" fill-rule="evenodd"/><path d="M2749.77 808.865C2749.77 808.865 2726.74 808.881 2723.73 823.71 2720.12 840.312 2734.49 847.232 2734.49 847.232 2734.49 847.232 2723.82 835.635 2727.48 824.996 2731.74 812.584 2749.77 808.865 2749.77 808.865Z" fill="#69F4AE" fill-rule="evenodd"/><path d="M2767.29 862.748C2767.29 862.748 2746.56 867.55 2733.83 855.223 2671.06 1235.23 2671.06 1235.23 2671.06 1235.23 2671.06 1235.23 2681.22 1242.7 2686.84 1238.67L2767.29 862.748Z" fill="#85F9BB" fill-rule="evenodd"/><path d="M2755.03 862.169C2681.27 1242.54 2681.27 1242.54 2681.27 1242.54 2681.27 1242.54 2678.77 1243.67 2679.38 1241.89 2747.48 859.574 2747.48 859.574 2747.48 859.574 2747.48 859.574 2751.26 860.872 2755.03 862.169Z" fill="#FFFFFF" fill-rule="evenodd"/><path d="M2772.52 816.687C2772.52 816.687 2753.7 804.159 2738.69 811.117 2738.69 811.117 2751.2 805.319 2772.52 816.687Z" fill="#FFFFFF" fill-rule="evenodd"/><path d="M2746 857.249C2729.01 851.408 2717.58 835.535 2722.47 821.293 2726.76 808.832 2743.64 802.693 2761.25 806.754 2780.13 813.244 2789.68 828.468 2784.78 842.71 2779.88 856.952 2763 863.09 2746 857.249Z" stroke="#333333" stroke-width="4.0106" stroke-miterlimit="8" fill="none" fill-rule="evenodd"/><path d="M2721.81 823.221C2661.65 1219.74 2661.65 1219.74 2661.65 1219.74 2659.21 1226.84 2662.44 1235.9 2669.39 1240.28 2678.24 1245.31 2688.92 1245 2695.75 1237.42 2695.75 1237.42 2696.98 1233.87 2696.98 1233.87 2785.45 841.122 2785.45 841.122 2785.45 841.122" stroke="#333333" stroke-width="4.0106" stroke-linecap="round" stroke-miterlimit="8" fill="none" fill-rule="evenodd"/><path d="M2726.4 846.876 2721.42 836.684 2662.75 1222.41 2663.05 1228.58 2726.4 846.876Z" fill="#4DC184" fill-rule="evenodd"/><path d="M2630.37 1261.22C2638.61 1268.03 2648.02 1265.3 2654.25 1259.48 2654.86 1257.7 2656.08 1254.14 2656.08 1254.14 2727.07 856.8 2727.07 856.8 2727.07 856.8 2660.29 841.803 2660.29 841.803 2660.29 841.803 2620.13 1241.79 2620.13 1241.79 2620.13 1241.79 2619.58 1249.55 2621.53 1256.19 2630.37 1261.22Z" fill="#69F4AE" fill-rule="evenodd"/><path d="M2687.05 874.986C2669.38 870.894 2657.87 855.03 2660.85 840.18 2665.12 827.755 2682.67 819.894 2700.34 823.986 2719.31 830.504 2728.92 845.716 2726.55 858.792 2721.67 872.991 2704.73 879.077 2687.05 874.986Z" fill="#4E936F" fill-rule="evenodd"/><path d="M2689.99 865.985C2711.19 847.283 2674.54 812.693 2711.72 833.47 2722.43 839.151 2726.29 852.474 2718.83 861.904 2711.41 877.346 2678.75 874.117 2689.99 865.985Z" fill="#296042" fill-rule="evenodd"/><path d="M2689.16 825.594C2689.16 825.594 2667.48 826.183 2663.84 843.023 2660.82 858.066 2677.49 865.806 2677.49 865.806 2677.49 865.806 2663.97 855.131 2668.3 842.546 2670.09 831.099 2689.16 825.594 2689.16 825.594Z" fill="#69F4AE" fill-rule="evenodd"/><path d="M2708.34 880.045C2708.34 880.045 2687.6 884.85 2676.77 873.173 2629.74 1256.76 2629.74 1256.76 2629.74 1256.76 2629.74 1256.76 2639.89 1264.23 2646.13 1258.42L2708.34 880.045Z" fill="#85F9BB" fill-rule="evenodd"/><path d="M2696.65 877.845C2640.5 1262.45 2640.5 1262.45 2640.5 1262.45 2640.5 1262.45 2638 1263.58 2638.61 1261.8 2690.37 877.677 2690.37 877.677 2690.37 877.677 2690.37 877.677 2692.26 878.326 2696.65 877.845Z" fill="#FFFFFF" fill-rule="evenodd"/><path d="M2711.58 833.602C2711.58 833.602 2692.66 821.345 2677.84 827.762 2677.84 827.762 2690.19 822.415 2711.58 833.602Z" fill="#FFFFFF" fill-rule="evenodd"/><path d="M2687.05 874.986C2669.38 870.894 2657.87 855.03 2660.85 840.18 2665.12 827.755 2682.67 819.894 2700.34 823.986 2719.31 830.504 2730.82 846.368 2726.55 858.792 2721.67 872.991 2704.73 879.077 2687.05 874.986Z" stroke="#333333" stroke-width="4.0106" stroke-miterlimit="8" fill="none" fill-rule="evenodd"/><path d="M2661.92 842.362C2620.05 1241.76 2620.05 1241.76 2620.05 1241.76 2619.5 1249.53 2621.46 1256.17 2630.33 1261.21 2638.59 1268.03 2648.01 1265.3 2654.25 1259.48 2654.86 1257.7 2656.08 1254.14 2656.08 1254.14 2726.94 856.755 2726.94 856.755 2726.94 856.755" stroke="#333333" stroke-width="4.0106" stroke-linecap="round" stroke-miterlimit="8" fill="none" fill-rule="evenodd"/><path d="M2666.62 865.705 2661.45 856.054 2621.42 1243.95 2621.72 1250.11 2666.62 865.705Z" fill="#4DC184" fill-rule="evenodd"/><path d="M2595.58 1276.7C2606.36 1282.39 2615.8 1279.67 2620.75 1271.43 2623.26 1270.31 2621.97 1267.88 2621.97 1267.88 2664.83 865.092 2664.83 865.092 2664.83 865.092 2597.86 855.99 2597.86 855.99 2597.86 855.99 2585.27 1257.25 2585.27 1257.25 2585.27 1257.25 2584.72 1265.01 2588.59 1272.31 2595.58 1276.7Z" fill="#69F4AE" fill-rule="evenodd"/><path d="M2626.02 885.51C2608.42 881.442 2596.36 867.375 2598.74 854.301 2601.73 839.453 2619.22 831.573 2636.83 835.641 2654.44 839.708 2666.49 853.776 2664.11 866.849 2661.12 881.697 2643.63 889.577 2626.02 885.51Z" fill="#4E936F" fill-rule="evenodd"/><path d="M2628.34 878.368C2650.15 858.082 2608.85 824.038 2646.84 843.051 2660.11 847.614 2664.04 860.87 2657.87 872.642 2651.09 886.19 2619.6 885.287 2628.34 878.368Z" fill="#296042" fill-rule="evenodd"/><path d="M2625.39 837.6C2625.39 837.6 2603.38 839.947 2600.4 854.785 2599.32 870.274 2615.77 877.913 2615.77 877.913 2615.77 877.913 2602.43 867.379 2604.8 854.315 2606.56 843.024 2625.39 837.6 2625.39 837.6Z" fill="#69F4AE" fill-rule="evenodd"/><path d="M2648.21 889.063C2648.21 889.063 2628.79 896.322 2615.49 885.779 2597.11 1271.6 2597.11 1271.6 2597.11 1271.6 2597.11 1271.6 2607.23 1279.06 2611.57 1272.59L2648.21 889.063Z" fill="#85F9BB" fill-rule="evenodd"/><path d="M2637.25 889.535C2608.11 1277.37 2608.11 1277.37 2608.11 1277.37 2608.11 1277.37 2605.6 1278.5 2606.21 1276.72 2629.03 888.699 2629.03 888.699 2629.03 888.699 2629.03 888.699 2630.93 889.353 2637.25 889.535Z" fill="#FFFFFF" fill-rule="evenodd"/><path d="M2647.1 843.16C2647.1 843.16 2629.98 831.301 2614.32 839.852 2614.32 839.852 2625.57 831.778 2647.1 843.16Z" fill="#FFFFFF" fill-rule="evenodd"/><path d="M2626.02 885.51C2608.42 881.442 2596.36 867.375 2598.74 854.301 2601.73 839.453 2619.22 831.573 2636.83 835.641 2654.44 839.708 2666.49 853.776 2664.11 866.849 2661.12 881.697 2645.52 890.226 2626.02 885.51Z" stroke="#333333" stroke-width="4.0106" stroke-miterlimit="8" fill="none" fill-rule="evenodd"/><path d="M2598.48 854.212C2585.27 1257.25 2585.27 1257.25 2585.27 1257.25 2584.72 1265.01 2588.59 1272.31 2595.58 1276.7 2606.36 1282.39 2615.8 1279.67 2620.75 1271.43 2623.26 1270.31 2621.97 1267.88 2621.97 1267.88 2664.83 865.092 2664.83 865.092 2664.83 865.092" stroke="#333333" stroke-width="4.0106" stroke-linecap="round" stroke-miterlimit="8" fill="none" fill-rule="evenodd"/><path d="M2605.82 876.914 2600.09 868.889 2586.3 1259.75 2588.23 1266.47 2605.82 876.914Z" fill="#4DC184" fill-rule="evenodd"/><path d="M2555.5 1195.24C2564.97 1198.5 2574.38 1195.76 2579.33 1187.52 2581.83 1186.4 2580.55 1183.97 2580.55 1183.97 2590.97 777.911 2590.97 777.911 2590.97 777.911 2522.99 772.439 2522.99 772.439 2522.99 772.439 2542.74 1176.94 2542.74 1176.94 2542.74 1176.94 2542.8 1182.92 2546.65 1190.21 2555.5 1195.24Z" fill="#69F4AE" fill-rule="evenodd"/><path d="M2555.07 801.596C2534.89 798.617 2522.15 786.323 2523.23 770.86 2525.59 757.819 2541.84 747.571 2560.12 749.898 2577.79 753.994 2592.43 766.94 2589.46 781.751 2588.99 795.444 2572.75 805.692 2555.07 801.596Z" fill="#4E936F" fill-rule="evenodd"/><path d="M2555.63 793.802C2574.29 770.358 2531.17 741.601 2572.27 757.721 2583.65 761.632 2587.56 774.921 2583.89 785.602 2579 799.844 2546.27 802.528 2555.63 793.802Z" fill="#296042" fill-rule="evenodd"/><path d="M2550.22 754.211C2550.22 754.211 2528.42 756.63 2526.69 773.878 2525.56 789.353 2542.44 795.155 2542.44 795.155 2542.44 795.155 2529.27 784.678 2531.05 773.394 2530.95 761.466 2550.22 754.211 2550.22 754.211Z" fill="#69F4AE" fill-rule="evenodd"/><path d="M2577.96 803.729C2577.96 803.729 2557.9 812.738 2542.67 801.538 2555.57 1189.64 2555.57 1189.64 2555.57 1189.64 2555.57 1189.64 2566.34 1195.33 2570.68 1188.87L2577.96 803.729Z" fill="#85F9BB" fill-rule="evenodd"/><path d="M2564.45 805.144C2566.12 1195.09 2566.12 1195.09 2566.12 1195.09 2566.12 1195.09 2565.51 1196.86 2564.22 1194.44 2556.26 804.313 2556.26 804.313 2556.26 804.313 2556.26 804.313 2560.05 805.617 2564.45 805.144Z" fill="#FFFFFF" fill-rule="evenodd"/><path d="M2572.23 757.837C2572.23 757.837 2552.58 747.146 2538.26 757.974 2538.26 757.974 2550.08 748.255 2572.23 757.837Z" fill="#FFFFFF" fill-rule="evenodd"/><path d="M2555.08 801.57C2536.79 799.269 2522.17 786.272 2523.28 770.706 2525.67 757.576 2541.95 747.225 2560.25 749.526 2578.54 751.827 2592.54 766.607 2589.54 781.52 2589.04 795.303 2572.76 805.653 2555.08 801.57Z" stroke="#333333" stroke-width="4.0106" stroke-miterlimit="8" fill="none" fill-rule="evenodd"/><path d="M2524.61 772.998C2542.68 1176.92 2542.68 1176.92 2542.68 1176.92 2542.74 1182.9 2546.6 1190.19 2555.47 1195.23 2564.95 1198.49 2574.37 1195.76 2579.32 1187.52 2581.83 1186.4 2580.55 1183.97 2580.55 1183.97 2590.8 777.85 2590.8 777.85 2590.8 777.85" stroke="#333333" stroke-width="4.0106" stroke-linecap="round" stroke-miterlimit="8" fill="none" fill-rule="evenodd"/><path d="M2531.93 795.782 2526.76 786.131 2544.85 1177.65 2546.78 1184.37 2531.93 795.782Z" fill="#4DC184" fill-rule="evenodd"/><path d="M2539.98 1234.13C2551.36 1238.04 2560.78 1235.31 2563.83 1226.42 2564.44 1224.64 2565.06 1222.86 2565.06 1222.86 2548.23 815.32 2548.23 815.32 2548.23 815.32 2480.83 814.028 2480.83 814.028 2480.83 814.028 2526.58 1217.59 2526.58 1217.59 2526.58 1217.59 2526.64 1223.58 2532.39 1231.52 2539.98 1234.13Z" fill="#69F4AE" fill-rule="evenodd"/><path d="M2513.9 841.174C2495 840.641 2480.38 827.664 2481.48 812.138 2481.96 798.39 2498.23 788.078 2516.52 790.389 2535.42 790.922 2548.14 803.247 2547.05 818.773 2546.56 832.522 2532.19 843.485 2513.9 841.174Z" fill="#4E936F" fill-rule="evenodd"/><path d="M2514.57 833.608C2533.28 810.178 2487.43 782.477 2529.33 796.879 2541.37 799.026 2547.22 812.981 2543.55 823.662 2538.65 837.904 2507.09 842.98 2514.57 833.608Z" fill="#296042" fill-rule="evenodd"/><path d="M2505.41 792.726C2505.41 792.726 2484.7 797.46 2485.53 813.549 2483.86 830.754 2501.54 834.853 2501.54 834.853 2501.54 834.853 2487.58 826.105 2487.43 814.201 2489.18 802.949 2505.41 792.726 2505.41 792.726Z" fill="#69F4AE" fill-rule="evenodd"/><path d="M2536.87 842.918C2536.87 842.918 2516.84 851.944 2502.91 843.18 2541.3 1230.34 2541.3 1230.34 2541.3 1230.34 2541.3 1230.34 2550.77 1233.6 2555.11 1227.13L2536.87 842.918Z" fill="#85F9BB" fill-rule="evenodd"/><path d="M2523.98 842.727C2551.09 1233.54 2551.09 1233.54 2551.09 1233.54 2551.09 1233.54 2550.48 1235.32 2549.19 1232.89 2517.06 844.322 2517.06 844.322 2517.06 844.322 2517.06 844.322 2519.57 843.198 2523.98 842.727Z" fill="#FFFFFF" fill-rule="evenodd"/><path d="M2529.15 796.816C2529.15 796.816 2508.9 787.866 2495.14 797.069 2495.14 797.069 2506.39 788.995 2529.15 796.816Z" fill="#FFFFFF" fill-rule="evenodd"/><path d="M2514.06 841.23C2495.1 840.674 2480.41 827.674 2481.49 812.143 2481.96 798.39 2498.27 788.093 2516.63 790.427 2535.59 790.982 2550.28 803.982 2549.81 817.736 2548.73 833.267 2532.42 843.563 2514.06 841.23Z" stroke="#333333" stroke-width="4.0106" stroke-miterlimit="8" fill="none" fill-rule="evenodd"/><path d="M2480.83 814.028C2526.58 1217.59 2526.58 1217.59 2526.58 1217.59 2526.64 1223.58 2532.39 1231.52 2539.98 1234.13 2551.36 1238.04 2558.88 1234.66 2563.83 1226.42 2564.44 1224.64 2565.06 1222.86 2565.06 1222.86 2548.23 815.32 2548.23 815.32 2548.23 815.32" stroke="#333333" stroke-width="4.0106" stroke-linecap="round" stroke-miterlimit="8" fill="none" fill-rule="evenodd"/><path d="M2492.78 835.638 2484.71 827.41 2528.53 1218.08 2530.46 1224.8 2492.78 835.638Z" fill="#4DC184" fill-rule="evenodd"/><path d="M2523.08 1278C2532.56 1281.26 2542.59 1276.75 2545.04 1269.64 2547.55 1268.51 2546.87 1264.3 2546.87 1264.3 2512.41 858.74 2512.41 858.74 2512.41 858.74 2446.29 859.874 2446.29 859.874 2446.29 859.874 2507.79 1260.81 2507.79 1260.81 2507.79 1260.81 2509.75 1267.45 2513.6 1274.74 2523.08 1278Z" fill="#69F4AE" fill-rule="evenodd"/><path d="M2479.97 885.247C2461.07 884.714 2446.45 871.736 2446.94 857.988 2447.42 844.24 2461.79 833.277 2480.69 833.81 2499.59 834.343 2514.21 847.32 2513.73 861.068 2513.24 874.817 2498.87 885.78 2479.97 885.247Z" fill="#4E936F" fill-rule="evenodd"/><path d="M2478.31 876.877C2496.97 853.433 2450.72 827.585 2493.05 840.144 2505.04 842.275 2511.46 854.435 2507.18 866.897 2504.18 881.79 2472.74 886.906 2478.31 876.877Z" fill="#296042" fill-rule="evenodd"/><path d="M2470.47 838.269C2470.47 838.269 2448.03 842.451 2448.79 858.574 2449.55 874.696 2467.07 878.733 2467.07 878.733 2467.07 878.733 2453.26 870.022 2453.16 858.092 2453.06 846.161 2470.47 838.269 2470.47 838.269Z" fill="#69F4AE" fill-rule="evenodd"/><path d="M2503.06 885.212C2503.06 885.212 2484.87 894.864 2468.39 887.211 2522.47 1273.55 2522.47 1273.55 2522.47 1273.55 2522.47 1273.55 2533.86 1277.47 2538.21 1271.01L2503.06 885.212Z" fill="#85F9BB" fill-rule="evenodd"/><path d="M2490.03 886.793C2533.6 1277.37 2533.6 1277.37 2533.6 1277.37 2533.6 1277.37 2531.7 1276.72 2531.7 1276.72 2483.13 888.395 2483.13 888.395 2483.13 888.395 2483.13 888.395 2485.64 887.269 2490.03 886.793Z" fill="#FFFFFF" fill-rule="evenodd"/><path d="M2493.06 840.125C2493.06 840.125 2472.8 831.194 2458.48 842.022 2458.48 842.022 2470.3 832.303 2493.06 840.125Z" fill="#FFFFFF" fill-rule="evenodd"/><path d="M2479.97 885.247C2461.07 884.714 2446.45 871.736 2446.94 857.988 2447.42 844.24 2461.79 833.277 2480.69 833.81 2499.59 834.343 2514.21 847.32 2513.73 861.068 2513.24 874.817 2498.87 885.78 2479.97 885.247Z" stroke="#333333" stroke-width="4.0106" stroke-miterlimit="8" fill="none" fill-rule="evenodd"/><path d="M2446.29 859.874C2507.79 1260.81 2507.79 1260.81 2507.79 1260.81 2509.75 1267.45 2513.6 1274.74 2523.08 1278 2532.56 1281.26 2542.59 1276.75 2545.04 1269.64 2547.55 1268.51 2546.87 1264.3 2546.87 1264.3 2512.41 858.74 2512.41 858.74 2512.41 858.74" stroke="#333333" stroke-width="4.0106" stroke-linecap="round" stroke-miterlimit="8" fill="none" fill-rule="evenodd"/><path d="M2458.31 879.525 2450.22 873.108 2508.91 1262.83 2513.57 1268.67 2458.31 879.525Z" fill="#4DC184" fill-rule="evenodd"/><path d="M2468.77 1225.4C2478.25 1228.66 2488.89 1222.38 2491.33 1215.27 2491.94 1213.5 2492.55 1211.72 2492.55 1211.72 2425.92 807.203 2425.92 807.203 2425.92 807.203 2358.58 811.883 2358.58 811.883 2358.58 811.883 2453.47 1208.22 2453.47 1208.22 2453.47 1208.22 2454.82 1216.63 2461.18 1222.8 2468.77 1225.4Z" fill="#69F4AE" fill-rule="evenodd"/><path d="M2394.97 835.886C2375.53 837.135 2360.35 825.972 2358.95 811.611 2357.55 797.251 2372.48 784.539 2391.31 785.063 2408.86 783.165 2424.04 794.328 2425.44 808.689 2426.84 823.049 2411.91 835.761 2394.97 835.886Z" fill="#4E936F" fill-rule="evenodd"/><path d="M2393.61 827.771C2408.5 803.032 2360.83 780.675 2404.55 789.732 2416.59 791.879 2423.05 804.053 2421.28 815.388 2418.29 830.284 2388.03 837.798 2393.61 827.771Z" fill="#296042" fill-rule="evenodd"/><path d="M2381.16 789.392C2381.16 789.392 2359.82 795.938 2362.53 812.731 2363.95 827.099 2381.63 831.192 2381.63 831.192 2381.63 831.192 2367.07 824.204 2365.04 811.61 2364.9 799.667 2381.16 789.392 2381.16 789.392Z" fill="#69F4AE" fill-rule="evenodd"/><path d="M2416.83 833.764C2416.83 833.764 2399.94 845.84 2383.47 838.189 2468.43 1221.05 2468.43 1221.05 2468.43 1221.05 2468.43 1221.05 2479.82 1224.96 2484.16 1218.51L2416.83 833.764Z" fill="#85F9BB" fill-rule="evenodd"/><path d="M2405.16 837.626C2480.16 1223.09 2480.16 1223.09 2480.16 1223.09 2480.16 1223.09 2479.55 1224.87 2477.66 1224.22 2398.25 839.228 2398.25 839.228 2398.25 839.228 2398.25 839.228 2400.76 838.102 2405.16 837.626Z" fill="#FFFFFF" fill-rule="evenodd"/><path d="M2404.44 789.519C2404.44 789.519 2383.77 782.417 2371.42 793.922 2371.42 793.922 2380.69 785.293 2404.44 789.519Z" fill="#FFFFFF" fill-rule="evenodd"/><path d="M2394.97 835.886C2375.53 837.135 2360.35 825.972 2358.95 811.611 2358.16 795.478 2372.48 784.539 2391.31 785.063 2408.86 783.165 2425.92 794.978 2425.44 808.689 2426.84 823.049 2413.79 836.41 2394.97 835.886Z" stroke="#333333" stroke-width="4.0106" stroke-miterlimit="8" fill="none" fill-rule="evenodd"/><path d="M2360.75 812.628C2453.51 1208.23 2453.51 1208.23 2453.51 1208.23 2454.85 1216.65 2461.21 1222.81 2468.78 1225.41 2478.26 1228.67 2488.89 1222.38 2491.33 1215.27 2491.94 1213.5 2492.55 1211.72 2492.55 1211.72 2426.13 807.274 2426.13 807.274 2426.13 807.274" stroke="#333333" stroke-width="4.0106" stroke-linecap="round" stroke-miterlimit="8" fill="none" fill-rule="evenodd"/><path d="M2372.69 832.525 2364.78 825.566 2454.86 1210.33 2458.96 1217.79 2372.69 832.525Z" fill="#4DC184" fill-rule="evenodd"/><path d="M2474.66 1276.94C2486.05 1280.85 2494.19 1275.7 2497.24 1266.82 2497.85 1265.04 2498.46 1263.27 2498.46 1263.27 2431.57 858.823 2431.57 858.823 2431.57 858.823 2365.46 865.899 2365.46 865.899 2365.46 865.899 2458.73 1261.53 2458.73 1261.53 2458.73 1261.53 2460.69 1268.16 2466.45 1276.1 2474.66 1276.94Z" fill="#69F4AE" fill-rule="evenodd"/><path d="M2400.03 889.271C2381.06 888.715 2365.76 877.493 2364.33 863.085 2362.9 848.677 2377.92 835.949 2396.88 836.505 2413.94 836.406 2431.15 848.283 2430.68 862.036 2432.11 876.443 2419.61 888.048 2400.03 889.271Z" fill="#4E936F" fill-rule="evenodd"/><path d="M2399.15 879.223C2413.97 854.547 2366.69 832.344 2410.07 841.301 2422.01 843.421 2428.41 855.541 2426.64 866.84 2423.03 883.463 2392.99 890.998 2399.15 879.223Z" fill="#296042" fill-rule="evenodd"/><path d="M2387.01 841.084C2387.01 841.084 2365.64 847.749 2368.3 864.679 2370.96 881.609 2387.37 883.243 2387.37 883.243 2387.37 883.243 2372.81 876.238 2370.81 863.541 2370.71 851.495 2387.01 841.084 2387.01 841.084Z" fill="#69F4AE" fill-rule="evenodd"/><path d="M2422.06 887.055C2422.06 887.055 2405.2 899.149 2388.76 891.512 2473.78 1272.56 2473.78 1272.56 2473.78 1272.56 2473.78 1272.56 2485.14 1276.47 2489.48 1270.01L2422.06 887.055Z" fill="#85F9BB" fill-rule="evenodd"/><path d="M2410.49 889.137C2485.28 1276.95 2485.28 1276.95 2485.28 1276.95 2485.28 1276.95 2484.67 1278.73 2483.38 1276.3 2403.57 890.737 2403.57 890.737 2403.57 890.737 2403.57 890.737 2406.08 889.611 2410.49 889.137Z" fill="#FFFFFF" fill-rule="evenodd"/><path d="M2410.29 841.21C2410.29 841.21 2388.62 835.778 2375.99 847.594 2375.99 847.594 2386.08 836.926 2410.29 841.21Z" fill="#FFFFFF" fill-rule="evenodd"/><path d="M2400.12 889.304C2383.12 889.423 2365.99 877.571 2364.58 863.171 2365.06 849.423 2378.15 836.03 2397.05 836.563 2414.05 836.444 2431.18 848.295 2432.59 862.695 2432.11 876.444 2419.64 888.059 2400.12 889.304Z" stroke="#333333" stroke-width="4.0106" stroke-miterlimit="8" fill="none" fill-rule="evenodd"/><path d="M2365.46 865.899C2458.73 1261.53 2458.73 1261.53 2458.73 1261.53 2460.69 1268.16 2466.45 1276.1 2474.66 1276.94 2486.05 1280.85 2494.19 1275.7 2497.24 1266.82 2497.85 1265.04 2498.46 1263.27 2498.46 1263.27 2431.57 858.823 2431.57 858.823 2431.57 858.823" stroke="#333333" stroke-width="4.0106" stroke-linecap="round" stroke-miterlimit="8" fill="none" fill-rule="evenodd"/><path d="M2377.99 885.842 2369.36 879.239 2459.98 1264.19 2464.28 1269.3 2377.99 885.842Z" fill="#4DC184" fill-rule="evenodd"/><path d="M2483.73 1329.9C2493.83 1331.39 2501.96 1326.23 2506.3 1319.77 2506.91 1317.99 2506.24 1313.79 2506.24 1313.79 2438.99 911.051 2438.99 911.051 2438.99 911.051 2373.55 916.382 2373.55 916.382 2373.55 916.382 2468.44 1312.72 2468.44 1312.72 2468.44 1312.72 2469.79 1321.13 2474.25 1326.64 2483.73 1329.9Z" fill="#69F4AE" fill-rule="evenodd"/><path d="M2408 939.87C2391.05 940.009 2374 928.183 2374.5 914.44 2373.11 900.047 2387.44 889.071 2405 887.154 2423.83 887.665 2439 898.842 2440.39 913.234 2441.78 927.627 2426.83 940.38 2408 939.87Z" fill="#4E936F" fill-rule="evenodd"/><path d="M2408.58 932.271C2424.08 905.751 2375.8 885.174 2417.62 893.577 2429.65 895.724 2438.02 908.552 2436.25 919.888 2433.26 934.784 2401.1 941.643 2408.58 932.271Z" fill="#296042" fill-rule="evenodd"/><path d="M2394.93 891.664C2394.93 891.664 2374.69 900.723 2376.13 915.229 2378.86 932.183 2395.41 933.867 2395.41 933.867 2395.41 933.867 2380.71 926.812 2380.57 914.755 2379.82 904.487 2394.93 891.664 2394.93 891.664Z" fill="#69F4AE" fill-rule="evenodd"/><path d="M2431.77 938.251C2431.77 938.251 2412.99 949.68 2398.43 942.689 2483.14 1325.46 2483.14 1325.46 2483.14 1325.46 2483.14 1325.46 2493.23 1326.94 2497.57 1320.49L2431.77 938.251Z" fill="#85F9BB" fill-rule="evenodd"/><path d="M2417.97 941.386C2493.51 1327.03 2493.51 1327.03 2493.51 1327.03 2493.51 1327.03 2492.89 1328.81 2491.61 1326.38 2411.67 941.205 2411.67 941.205 2411.67 941.205 2411.67 941.205 2415.46 942.511 2417.97 941.386Z" fill="#FFFFFF" fill-rule="evenodd"/><path d="M2417.78 893.46C2417.78 893.46 2396.92 886.29 2386.2 898.963 2386.2 898.963 2394.4 887.466 2417.78 893.46Z" fill="#FFFFFF" fill-rule="evenodd"/><path d="M2408 939.87C2391.05 940.009 2375.89 928.832 2374.5 914.44 2373.11 900.047 2387.44 889.071 2405 887.154 2423.83 887.665 2439 898.842 2440.39 913.234 2441.78 927.627 2426.83 940.38 2408 939.87Z" stroke="#333333" stroke-width="4.0106" stroke-miterlimit="8" fill="none" fill-rule="evenodd"/><path d="M2373.55 916.382C2468.44 1312.72 2468.44 1312.72 2468.44 1312.72 2469.79 1321.13 2474.25 1326.64 2483.73 1329.9 2493.83 1331.39 2501.96 1326.23 2506.3 1319.77 2506.91 1317.99 2506.24 1313.79 2506.24 1313.79 2438.99 911.051 2438.99 911.051 2438.99 911.051" stroke="#333333" stroke-width="4.0106" stroke-linecap="round" stroke-miterlimit="8" fill="none" fill-rule="evenodd"/><path d="M2386.03 936.466 2377.59 929.321 2469.65 1315.37 2472.32 1319.92 2386.03 936.466Z" fill="#4DC184" fill-rule="evenodd"/><path d="M2465.72 1413.2C2475.81 1414.68 2483.94 1409.51 2486.99 1400.62 2487.61 1398.84 2486.32 1396.41 2486.32 1396.41 2388.59 996.713 2388.59 996.713 2388.59 996.713 2323.25 1008.08 2323.25 1008.08 2323.25 1008.08 2447.94 1397.14 2447.94 1397.14 2447.94 1397.14 2449.28 1405.56 2455.64 1411.72 2465.72 1413.2Z" fill="#69F4AE" fill-rule="evenodd"/><path d="M2360.46 1028.79C2341.02 1030.04 2325.24 1020.65 2323.83 1006.29 2320.54 991.279 2332.98 979.691 2353.03 976.669 2370.58 974.771 2385.75 985.934 2389.65 999.17 2391.05 1013.53 2378.01 1026.89 2360.46 1028.79Z" fill="#4E936F" fill-rule="evenodd"/><path d="M2358.93 1020.62C2371.9 995.217 2323.21 976.49 2366.09 981.277 2378.08 983.408 2385.11 993.788 2385.23 1005.77 2384.13 1021.32 2353.36 1030.65 2358.93 1020.62Z" fill="#296042" fill-rule="evenodd"/><path d="M2342.24 983.206C2342.24 983.206 2322.09 992.082 2325.48 1007.08 2328.28 1023.84 2347.31 1024.46 2347.31 1024.46 2347.31 1024.46 2330.1 1018.54 2329.92 1006.63 2327.82 994.054 2342.24 983.206 2342.24 983.206Z" fill="#69F4AE" fill-rule="evenodd"/><path d="M2382.53 1026.74C2382.53 1026.74 2365.67 1038.83 2349.23 1031.2 2463.18 1408.26 2463.18 1408.26 2463.18 1408.26 2463.18 1408.26 2475.15 1410.39 2477.6 1403.28L2382.53 1026.74Z" fill="#85F9BB" fill-rule="evenodd"/><path d="M2370.95 1028.82C2475.15 1410.39 2475.15 1410.39 2475.15 1410.39 2475.15 1410.39 2474.54 1412.16 2473.26 1409.74 2363.43 1032.19 2363.43 1032.19 2363.43 1032.19 2363.43 1032.19 2365.94 1031.07 2370.95 1028.82Z" fill="#FFFFFF" fill-rule="evenodd"/><path d="M2366.41 981.215C2366.41 981.215 2344.94 975.833 2333.72 989.969 2333.72 989.969 2341.81 978.757 2366.41 981.215Z" fill="#FFFFFF" fill-rule="evenodd"/><path d="M2360.46 1028.79C2342.91 1030.69 2325.24 1020.65 2323.83 1006.29 2320.54 991.279 2333.59 977.918 2353.03 976.669 2370.58 974.771 2387.64 986.583 2389.65 999.17 2391.05 1013.53 2378.01 1026.89 2360.46 1028.79Z" stroke="#333333" stroke-width="4.0106" stroke-miterlimit="8" fill="none" fill-rule="evenodd"/><path d="M2323.25 1008.08C2447.94 1397.14 2447.94 1397.14 2447.94 1397.14 2449.28 1405.56 2455.64 1411.72 2465.72 1413.2 2475.81 1414.68 2483.94 1409.51 2486.99 1400.62 2487.61 1398.84 2486.32 1396.41 2486.32 1396.41 2388.59 996.713 2388.59 996.713 2388.59 996.713" stroke="#333333" stroke-width="4.0106" stroke-linecap="round" stroke-miterlimit="8" fill="none" fill-rule="evenodd"/><path d="M2337.9 1027.15 2329.27 1020.55 2449.3 1399.25 2453.95 1405.09 2337.9 1027.15Z" fill="#4DC184" fill-rule="evenodd"/><path d="M2462.03 1523.4C2471.52 1526.67 2481.56 1522.16 2484.62 1513.27 2485.23 1511.49 2485.84 1509.71 2485.84 1509.71 2427.28 1105.73 2427.28 1105.73 2427.28 1105.73 2362.38 1109.28 2362.38 1109.28 2362.38 1109.28 2446.1 1507.98 2446.1 1507.98 2446.1 1507.98 2448.07 1514.63 2451.93 1521.92 2462.03 1523.4Z" fill="#69F4AE" fill-rule="evenodd"/><path d="M2396.38 1134.6C2377.49 1134.05 2362.25 1122.87 2361.44 1106.73 2361.91 1093.01 2374.37 1081.43 2393.27 1081.98 2412.77 1080.75 2427.4 1093.71 2428.82 1108.08 2428.35 1121.8 2413.99 1132.72 2396.38 1134.6Z" fill="#4E936F" fill-rule="evenodd"/><path d="M2395.28 1124.59C2412.04 1100.5 2364.58 1078.21 2406.23 1086.55 2418.22 1088.69 2424.65 1100.85 2422.87 1112.18 2419.26 1128.85 2389.71 1134.62 2395.28 1124.59Z" fill="#296042" fill-rule="evenodd"/><path d="M2383.28 1086.37C2383.28 1086.37 2361.88 1093.08 2364.53 1110.07 2365.89 1124.61 2383.57 1128.68 2383.57 1128.68 2383.57 1128.68 2369.02 1121.67 2367.04 1108.93 2366.96 1096.84 2383.28 1086.37 2383.28 1086.37Z" fill="#69F4AE" fill-rule="evenodd"/><path d="M2418.32 1132.34C2418.32 1132.34 2401.45 1144.44 2385.63 1135.03 2461.15 1519.03 2461.15 1519.03 2461.15 1519.03 2461.15 1519.03 2472.52 1522.94 2476.86 1516.47L2418.32 1132.34Z" fill="#85F9BB" fill-rule="evenodd"/><path d="M2406.75 1134.42C2472.84 1522.88 2472.84 1522.88 2472.84 1522.88 2472.84 1522.88 2472.23 1524.66 2470.94 1522.23 2399.83 1136.02 2399.83 1136.02 2399.83 1136.02 2399.83 1136.02 2402.34 1134.89 2406.75 1134.42Z" fill="#FFFFFF" fill-rule="evenodd"/><path d="M2406.56 1086.49C2406.56 1086.49 2385.5 1079.25 2373 1090.71 2373 1090.71 2382.37 1082.12 2406.56 1086.49Z" fill="#FFFFFF" fill-rule="evenodd"/><path d="M2396.99 1132.83C2377.49 1134.05 2362.25 1122.87 2361.44 1106.73 2361.91 1093.01 2376.27 1082.08 2393.27 1081.98 2412.77 1080.75 2427.4 1093.71 2428.82 1108.08 2428.35 1121.8 2415.89 1133.37 2396.99 1132.83Z" stroke="#333333" stroke-width="4.0106" stroke-miterlimit="8" fill="none" fill-rule="evenodd"/><path d="M2362.38 1109.28C2446.1 1507.98 2446.1 1507.98 2446.1 1507.98 2448.07 1514.63 2451.93 1521.92 2462.03 1523.4 2471.52 1526.67 2481.56 1522.16 2484.62 1513.27 2485.23 1511.49 2485.84 1509.71 2485.84 1509.71 2427.28 1105.73 2427.28 1105.73 2427.28 1105.73" stroke="#333333" stroke-width="4.0106" stroke-linecap="round" stroke-miterlimit="8" fill="none" fill-rule="evenodd"/><path d="M2374.81 1129.5 2366.36 1122.35 2448.1 1508.49 2451.65 1515.77 2374.81 1129.5Z" fill="#4DC184" fill-rule="evenodd"/><path d="M2434.25 1541.72C2443.73 1544.98 2452.48 1538.05 2454.92 1530.94 2455.53 1529.16 2456.14 1527.38 2456.14 1527.38 2367.52 1125.17 2367.52 1125.17 2367.52 1125.17 2302.74 1134.72 2302.74 1134.72 2302.74 1134.72 2416.45 1525.66 2416.45 1525.66 2416.45 1525.66 2419.69 1534.73 2424.16 1540.24 2434.25 1541.72Z" fill="#69F4AE" fill-rule="evenodd"/><path d="M2337.81 1156.64C2320.12 1158.56 2304.84 1147.3 2301.53 1132.16 2300.12 1117.67 2312.66 1105.97 2332.25 1104.7 2349.94 1102.78 2367.75 1112.9 2369.15 1127.39 2370.56 1141.88 2357.41 1155.37 2337.81 1156.64Z" fill="#4E936F" fill-rule="evenodd"/><path d="M2337.05 1146.25C2351.87 1121.57 2303.38 1102.92 2346.09 1107.68 2358.03 1109.8 2364.42 1121.92 2364.54 1133.86 2361.54 1148.71 2330.89 1158.02 2337.05 1146.25Z" fill="#296042" fill-rule="evenodd"/><path d="M2322.27 1109.62C2322.27 1109.62 2302.25 1118.54 2305.58 1133.52 2308.31 1150.26 2325.3 1150.17 2325.3 1150.17 2325.3 1150.17 2310.13 1144.96 2308.08 1132.4 2307.93 1120.5 2322.27 1109.62 2322.27 1109.62Z" fill="#69F4AE" fill-rule="evenodd"/><path d="M2360.32 1152.38C2360.32 1152.38 2343.43 1164.47 2328.24 1159.25 2433.86 1537.52 2433.86 1537.52 2433.86 1537.52 2433.86 1537.52 2443.36 1540.78 2447.7 1534.32L2360.32 1152.38Z" fill="#85F9BB" fill-rule="evenodd"/><path d="M2348.38 1156.16C2443.7 1538.91 2443.7 1538.91 2443.7 1538.91 2443.7 1538.91 2443.09 1540.69 2441.19 1540.04 2341.47 1157.76 2341.47 1157.76 2341.47 1157.76 2341.47 1157.76 2345.88 1157.28 2348.38 1156.16Z" fill="#FFFFFF" fill-rule="evenodd"/><path d="M2346.03 1107.49C2346.03 1107.49 2324.55 1102.11 2313.33 1116.24 2313.33 1116.24 2321.43 1105.03 2346.03 1107.49Z" fill="#FFFFFF" fill-rule="evenodd"/><path d="M2337.81 1156.64C2320.12 1158.56 2304.84 1147.3 2301.53 1132.16 2300.12 1117.67 2315.18 1104.83 2332.25 1104.7 2349.94 1102.78 2367.75 1112.9 2369.15 1127.39 2370.56 1141.88 2357.41 1155.37 2337.81 1156.64Z" stroke="#333333" stroke-width="4.0106" stroke-miterlimit="8" fill="none" fill-rule="evenodd"/><path d="M2302.74 1134.72C2416.45 1525.66 2416.45 1525.66 2416.45 1525.66 2419.69 1534.73 2424.16 1540.24 2434.25 1541.72 2443.73 1544.98 2452.48 1538.05 2454.92 1530.94 2455.53 1529.16 2454.25 1526.73 2454.25 1526.73 2367.52 1125.17 2367.52 1125.17 2367.52 1125.17" stroke="#333333" stroke-width="4.0106" stroke-linecap="round" stroke-miterlimit="8" fill="none" fill-rule="evenodd"/><path d="M2317.52 1153.42 2307.44 1145.72 2420.01 1528.52 2422.5 1533.61 2317.52 1153.42Z" fill="#4DC184" fill-rule="evenodd"/><path d="M2404.23 1555.03C2414.32 1556.51 2422.46 1551.35 2425.52 1542.46 2424.23 1540.03 2424.84 1538.25 2424.84 1538.25 2306.11 1143.44 2306.11 1143.44 2306.11 1143.44 2240.11 1156.56 2240.11 1156.56 2240.11 1156.56 2385.82 1540.75 2385.82 1540.75 2385.82 1540.75 2389.67 1548.04 2394.14 1553.55 2404.23 1555.03Z" fill="#69F4AE" fill-rule="evenodd"/><path d="M2278.34 1175.48C2260.06 1179.11 2244.15 1169.67 2240.8 1154.65 2236.84 1141.39 2249.94 1128.05 2268.22 1124.42 2285.88 1122.56 2304.31 1130.88 2305.75 1145.25 2309.1 1160.28 2297.91 1174.28 2278.34 1175.48Z" fill="#4E936F" fill-rule="evenodd"/><path d="M2276.84 1167.48C2287.93 1141.43 2238.43 1124.42 2282.08 1127.48 2294.11 1129.63 2303.09 1140.67 2303.22 1152.66 2302.13 1168.21 2273.17 1178.16 2276.84 1167.48Z" fill="#296042" fill-rule="evenodd"/><path d="M2259.43 1131.64C2259.43 1131.64 2239.51 1140.66 2244.65 1156.3 2247.91 1171.3 2264.78 1171.15 2264.78 1171.15 2264.78 1171.15 2249.12 1167.75 2247.14 1155.17 2245.16 1142.6 2259.43 1131.64 2259.43 1131.64Z" fill="#69F4AE" fill-rule="evenodd"/><path d="M2301.01 1171.38C2301.01 1171.38 2285.43 1185.91 2268.38 1180.05 2403.6 1550.74 2403.6 1550.74 2403.6 1550.74 2403.6 1550.74 2413.68 1552.22 2416.13 1545.1L2301.01 1171.38Z" fill="#85F9BB" fill-rule="evenodd"/><path d="M2288.95 1175.71C2413.68 1552.22 2413.68 1552.22 2413.68 1552.22 2413.68 1552.22 2413.07 1554 2411.78 1551.57 2282.05 1177.31 2282.05 1177.31 2282.05 1177.31 2282.05 1177.31 2286.44 1176.84 2288.95 1175.71Z" fill="#FFFFFF" fill-rule="evenodd"/><path d="M2282.25 1127.37C2282.25 1127.37 2259.94 1123.66 2250.62 1138.31 2250.62 1138.31 2256.81 1126.55 2282.25 1127.37Z" fill="#FFFFFF" fill-rule="evenodd"/><path d="M2278.34 1175.48C2260.06 1179.11 2244.15 1169.67 2240.8 1154.65 2236.84 1141.39 2250.55 1126.27 2268.22 1124.42 2285.88 1122.56 2304.31 1130.88 2305.75 1145.25 2309.1 1160.28 2297.91 1174.28 2278.34 1175.48Z" stroke="#333333" stroke-width="4.0106" stroke-miterlimit="8" fill="none" fill-rule="evenodd"/><path d="M2240.11 1156.56C2385.82 1540.75 2385.82 1540.75 2385.82 1540.75 2389.67 1548.04 2394.14 1553.55 2404.23 1555.03 2414.32 1556.51 2422.46 1551.35 2425.52 1542.46 2424.23 1540.03 2424.84 1538.25 2424.84 1538.25 2306.11 1143.44 2306.11 1143.44 2306.11 1143.44" stroke="#333333" stroke-width="4.0106" stroke-linecap="round" stroke-miterlimit="8" fill="none" fill-rule="evenodd"/><path d="M2256.97 1176.23 2248.34 1169.63 2387.08 1543.25 2391.92 1548.55 2256.97 1176.23Z" fill="#4DC184" fill-rule="evenodd"/><path d="M2539.03 1557.75C2547.89 1562.78 2557.91 1558.27 2562.86 1550.02 2562.86 1550.02 2564.08 1546.46 2564.08 1546.46 2565.76 1141.21 2565.76 1141.21 2565.76 1141.21 2499.66 1136.4 2499.66 1136.4 2499.66 1136.4 2526.27 1539.43 2526.27 1539.43 2526.27 1539.43 2525.72 1547.2 2529.57 1554.49 2539.03 1557.75Z" fill="#69F4AE" fill-rule="evenodd"/><path d="M2530.13 1164.97C2511.84 1162.66 2499.12 1150.32 2500.23 1134.75 2500.72 1120.97 2517 1110.62 2535.3 1112.92 2553.59 1115.22 2568.21 1128.22 2567.1 1143.79 2564.7 1156.92 2548.42 1167.27 2530.13 1164.97Z" fill="#4E936F" fill-rule="evenodd"/><path d="M2530.98 1155.45C2550.95 1134.35 2507.84 1105.56 2547.66 1119.24 2559.04 1123.15 2564.84 1137.13 2561.16 1147.85 2555.63 1163.92 2523.5 1164.86 2530.98 1155.45Z" fill="#296042" fill-rule="evenodd"/><path d="M2525.69 1115.32C2525.69 1115.32 2503.03 1119.55 2501.9 1135.17 2502.05 1153.24 2519.73 1157.32 2519.73 1157.32 2519.73 1157.32 2503.9 1147.87 2505.69 1136.48 2508.1 1123.29 2525.69 1115.32 2525.69 1115.32Z" fill="#69F4AE" fill-rule="evenodd"/><path d="M2552.87 1166.47C2552.87 1166.47 2535.34 1174.37 2519.53 1164.95 2538.44 1553.3 2538.44 1553.3 2538.44 1553.3 2538.44 1553.3 2549.18 1558.98 2553.52 1552.52L2552.87 1166.47Z" fill="#85F9BB" fill-rule="evenodd"/><path d="M2541.89 1166.94C2550.06 1557.3 2550.06 1557.3 2550.06 1557.3 2550.06 1557.3 2549.45 1559.08 2548.16 1556.64 2533.07 1167.88 2533.07 1167.88 2533.07 1167.88 2533.07 1167.88 2537.48 1167.41 2541.89 1166.94Z" fill="#FFFFFF" fill-rule="evenodd"/><path d="M2547.88 1119.49C2547.88 1119.49 2527.63 1110.54 2513.87 1119.74 2513.87 1119.74 2525.13 1111.67 2547.88 1119.49Z" fill="#FFFFFF" fill-rule="evenodd"/><path d="M2530.13 1164.97C2511.84 1162.66 2499.73 1148.54 2500.23 1134.75 2500.72 1120.97 2517 1110.62 2535.3 1112.92 2553.59 1115.22 2568.21 1128.22 2567.1 1143.79 2564.7 1156.92 2548.42 1167.27 2530.13 1164.97Z" stroke="#333333" stroke-width="4.0106" stroke-miterlimit="8" fill="none" fill-rule="evenodd"/><path d="M2499.66 1136.4C2526.27 1539.43 2526.27 1539.43 2526.27 1539.43 2525.72 1547.2 2529.57 1554.49 2539.03 1557.75 2547.89 1562.78 2557.91 1558.27 2562.86 1550.02 2562.86 1550.02 2564.08 1546.46 2564.08 1546.46 2565.76 1141.21 2565.76 1141.21 2565.76 1141.21" stroke="#333333" stroke-width="4.0106" stroke-linecap="round" stroke-miterlimit="8" fill="none" fill-rule="evenodd"/><path d="M2509.35 1157.57 2503.63 1149.54 2527.51 1541.84 2529.44 1548.56 2509.35 1157.57Z" fill="#4DC184" fill-rule="evenodd"/><path d="M2528.8 1599.84C2538.27 1603.09 2547.68 1600.37 2552.63 1592.13 2553.24 1590.36 2551.95 1587.93 2551.95 1587.93 2530.79 1181.3 2530.79 1181.3 2530.79 1181.3 2463.47 1180.01 2463.47 1180.01 2463.47 1180.01 2513.53 1582.67 2513.53 1582.67 2513.53 1582.67 2515.48 1589.3 2519.33 1596.58 2528.8 1599.84Z" fill="#69F4AE" fill-rule="evenodd"/><path d="M2496.54 1207.18C2477.64 1206.64 2463.01 1193.67 2463.5 1179.92 2464.6 1164.39 2480.86 1154.08 2497.25 1155.74 2516.15 1156.27 2530.78 1169.25 2530.29 1183 2529.2 1198.52 2514.83 1209.49 2496.54 1207.18Z" fill="#4E936F" fill-rule="evenodd"/><path d="M2497.01 1199.07C2513.64 1175.25 2470.07 1148.46 2509.72 1162.09 2523.54 1164.87 2527.47 1178.03 2525.72 1189.25 2520.88 1203.33 2489.6 1208.33 2497.01 1199.07Z" fill="#296042" fill-rule="evenodd"/><path d="M2487.69 1158C2487.69 1158 2466.32 1164.67 2467.08 1180.94 2465.95 1196.57 2483.64 1200.65 2483.64 1200.65 2483.64 1200.65 2469.7 1191.85 2469.6 1179.81 2471.39 1168.41 2487.69 1158 2487.69 1158Z" fill="#69F4AE" fill-rule="evenodd"/><path d="M2519.58 1207.13C2519.58 1207.13 2500.81 1218.55 2484.96 1209.13 2528.18 1595.38 2528.18 1595.38 2528.18 1595.38 2528.18 1595.38 2539.56 1599.3 2543.9 1592.84L2519.58 1207.13Z" fill="#85F9BB" fill-rule="evenodd"/><path d="M2506.61 1208.73C2539.7 1599.78 2539.7 1599.78 2539.7 1599.78 2539.7 1599.78 2537.19 1600.9 2537.8 1599.13 2499.7 1210.33 2499.7 1210.33 2499.7 1210.33 2499.7 1210.33 2502.2 1209.2 2506.61 1208.73Z" fill="#FFFFFF" fill-rule="evenodd"/><path d="M2509.62 1162.06C2509.62 1162.06 2491.45 1153.84 2477.21 1164.7 2477.21 1164.7 2487.08 1154.31 2509.62 1162.06Z" fill="#FFFFFF" fill-rule="evenodd"/><path d="M2496.38 1207.12C2477.54 1206.61 2462.99 1193.66 2464.1 1178.14 2464.6 1164.39 2480.82 1154.07 2499.04 1156.35 2515.99 1156.22 2530.54 1169.17 2530.04 1182.91 2530.82 1199.08 2514.6 1209.41 2496.38 1207.12Z" stroke="#333333" stroke-width="4.0106" stroke-miterlimit="8" fill="none" fill-rule="evenodd"/><path d="M2463.47 1180.01C2513.53 1582.67 2513.53 1582.67 2513.53 1582.67 2515.48 1589.3 2519.33 1596.58 2528.8 1599.84 2538.27 1603.09 2547.68 1600.37 2552.63 1592.13 2553.24 1590.36 2551.95 1587.93 2551.95 1587.93 2530.79 1181.3 2530.79 1181.3 2530.79 1181.3" stroke="#333333" stroke-width="4.0106" stroke-linecap="round" stroke-miterlimit="8" fill="none" fill-rule="evenodd"/><path d="M2474.88 1201.46 2467.53 1192.87 2514.96 1585.39 2519.26 1590.5 2474.88 1201.46Z" fill="#4DC184" fill-rule="evenodd"/><path d="M2511.61 1643.61C2521.09 1646.86 2531.12 1642.36 2534.18 1633.46 2534.79 1631.68 2535.4 1629.9 2535.4 1629.9 2494.69 1224.02 2494.69 1224.02 2494.69 1224.02 2427.95 1226.94 2427.95 1226.94 2427.95 1226.94 2496.32 1626.41 2496.32 1626.41 2496.32 1626.41 2498.27 1633.05 2502.13 1640.35 2511.61 1643.61Z" fill="#69F4AE" fill-rule="evenodd"/><path d="M2462.17 1251.1C2443.33 1250.59 2428.17 1239.41 2428.67 1225.67 2427.89 1209.5 2442.22 1198.52 2461.06 1199.03 2479.89 1199.54 2494.45 1212.5 2493.95 1226.24 2495.34 1240.63 2480.39 1253.39 2462.17 1251.1Z" fill="#4E936F" fill-rule="evenodd"/><path d="M2461.13 1242.34C2479.79 1218.89 2432.93 1194.83 2473.98 1204.95 2485.97 1207.08 2491.78 1221.02 2490 1232.36 2487 1247.25 2455.56 1252.37 2461.13 1242.34Z" fill="#296042" fill-rule="evenodd"/><path d="M2451.01 1203.55C2451.01 1203.55 2429.53 1210 2430.42 1226.1 2431.3 1242.21 2449.75 1244.6 2449.75 1244.6 2449.75 1244.6 2435.04 1237.57 2434.86 1225.65 2434.67 1213.74 2451.01 1203.55 2451.01 1203.55Z" fill="#69F4AE" fill-rule="evenodd"/><path d="M2485.65 1251.2C2485.65 1251.2 2466.87 1262.64 2451.03 1253.22 2511.1 1639.8 2511.1 1639.8 2511.1 1639.8 2511.1 1639.8 2522.48 1643.71 2526.82 1637.24L2485.65 1251.2Z" fill="#85F9BB" fill-rule="evenodd"/><path d="M2472.32 1252.07C2522.82 1641.83 2522.82 1641.83 2522.82 1641.83 2522.82 1641.83 2520.31 1642.96 2520.31 1642.96 2465.41 1253.68 2465.41 1253.68 2465.41 1253.68 2465.41 1253.68 2467.92 1252.55 2472.32 1252.07Z" fill="#FFFFFF" fill-rule="evenodd"/><path d="M2473.57 1205.25C2473.57 1205.25 2452.91 1198.15 2441.12 1208.02 2441.12 1208.02 2450.42 1199.28 2473.57 1205.25Z" fill="#FFFFFF" fill-rule="evenodd"/><path d="M2462.17 1251.1C2443.33 1250.59 2428.17 1239.41 2428.67 1225.67 2427.89 1209.5 2444.11 1199.17 2461.06 1199.03 2479.89 1199.54 2494.45 1212.5 2495.84 1226.89 2495.34 1240.63 2480.39 1253.39 2462.17 1251.1Z" stroke="#333333" stroke-width="4.0106" stroke-miterlimit="8" fill="none" fill-rule="evenodd"/><path d="M2428.56 1225.16C2496.32 1626.41 2496.32 1626.41 2496.32 1626.41 2498.27 1633.05 2502.13 1640.35 2511.61 1643.61 2521.09 1646.86 2531.12 1642.36 2534.18 1633.46 2534.79 1631.68 2535.4 1629.9 2535.4 1629.9 2494.69 1224.02 2494.69 1224.02 2494.69 1224.02" stroke="#333333" stroke-width="4.0106" stroke-linecap="round" stroke-miterlimit="8" fill="none" fill-rule="evenodd"/><path d="M2440.39 1247.15 2432.5 1238.38 2497.52 1629.07 2502.36 1634.37 2440.39 1247.15Z" fill="#4DC184" fill-rule="evenodd"/><path d="M2703.46 1369.52C2712.3 1374.54 2722.97 1374.23 2729.19 1368.42 2731.69 1367.29 2732.3 1365.51 2732.3 1365.51 2858.07 981.189 2858.07 981.189 2858.07 981.189 2793.84 959.112 2793.84 959.112 2793.84 959.112 2698.24 1347.84 2698.24 1347.84 2698.24 1347.84 2695.8 1354.95 2697.13 1363.36 2703.46 1369.52Z" fill="#69F4AE" fill-rule="evenodd"/><path d="M2815.54 994.272C2799.15 986.655 2789.6 971.461 2796.36 957.912 2800.64 945.487 2819.4 940.031 2835.79 947.649 2852.79 953.491 2863.63 971.109 2856.86 984.658 2850.7 996.433 2831.93 1001.89 2815.54 994.272Z" fill="#4E936F" fill-rule="evenodd"/><path d="M2818.57 985.512C2844.79 970.606 2811.85 931.379 2845.3 956.83 2855.4 964.287 2857.39 976.929 2849.93 986.328 2841.26 999.292 2809.84 992.48 2818.57 985.512Z" fill="#296042" fill-rule="evenodd"/><path d="M2824.93 947.988C2824.93 947.988 2803.12 944.457 2797.63 960.416 2792.76 974.601 2805.9 985.068 2805.9 985.068 2805.9 985.068 2795.85 971.698 2801.38 961.702 2805.64 949.29 2824.93 947.988 2824.93 947.988Z" fill="#69F4AE" fill-rule="evenodd"/><path d="M2838.32 1002.27C2838.32 1002.27 2816.17 1004.6 2805.25 992.891 2705.32 1364.36 2705.32 1364.36 2705.32 1364.36 2705.32 1364.36 2714.94 1373.63 2721.2 1367.83L2838.32 1002.27Z" fill="#85F9BB" fill-rule="evenodd"/><path d="M2824.54 999.349C2715.58 1371.86 2715.58 1371.86 2715.58 1371.86 2715.58 1371.86 2713.07 1372.99 2713.68 1371.21 2818.85 997.393 2818.85 997.393 2818.85 997.393 2818.85 997.393 2820.74 998.045 2824.54 999.349Z" fill="#FFFFFF" fill-rule="evenodd"/><path d="M2845.37 957.238C2845.37 957.238 2831.41 942.341 2814.41 948.615 2814.41 948.615 2827 942.844 2845.37 957.238Z" fill="#FFFFFF" fill-rule="evenodd"/><path d="M2815.54 994.272C2799.15 986.655 2789.6 971.461 2796.36 957.912 2800.64 945.487 2819.4 940.031 2835.79 947.649 2854.68 954.14 2863.63 971.109 2856.86 984.658 2850.7 996.433 2833.82 1002.54 2815.54 994.272Z" stroke="#333333" stroke-width="4.0106" stroke-miterlimit="8" fill="none" fill-rule="evenodd"/><path d="M2795.47 959.671C2698.1 1347.79 2698.1 1347.79 2698.1 1347.79 2695.66 1354.9 2697.01 1363.32 2703.37 1369.48 2712.24 1374.52 2722.94 1374.22 2729.18 1368.41 2731.69 1367.29 2732.3 1365.51 2732.3 1365.51 2858.04 981.181 2858.04 981.181 2858.04 981.181" stroke="#333333" stroke-width="4.0106" stroke-linecap="round" stroke-miterlimit="8" fill="none" fill-rule="evenodd"/><path d="M2796.35 981.783 2793.35 972.877 2697.8 1349.57 2697 1357.17 2796.35 981.783Z" fill="#4DC184" fill-rule="evenodd"/><path d="M2673.24 1377.13C2681.48 1383.94 2692.77 1381.85 2699 1376.04 2699.61 1374.26 2700.22 1372.48 2700.22 1372.48 2793.21 978.889 2793.21 978.889 2793.21 978.889 2729.58 960.994 2729.58 960.994 2729.58 960.994 2665.51 1356.58 2665.51 1356.58 2665.51 1356.58 2664.95 1364.34 2666.29 1372.75 2673.24 1377.13Z" fill="#69F4AE" fill-rule="evenodd"/><path d="M2751.89 994.37C2734.9 988.529 2725.35 973.304 2730.25 959.063 2734.53 946.601 2751.42 940.463 2768.41 946.304 2787.9 951.014 2796.84 968.018 2792.55 980.479 2787.66 994.721 2770.77 1000.86 2751.89 994.37Z" fill="#4E936F" fill-rule="evenodd"/><path d="M2754.95 985.885C2779.99 968.577 2743.72 932.192 2780.48 954.794 2790.63 962.27 2792.65 974.922 2787.07 984.967 2778.38 997.925 2745.59 994.626 2754.95 985.885Z" fill="#296042" fill-rule="evenodd"/><path d="M2757.54 946.635C2757.54 946.635 2735.12 944.877 2731.51 961.479 2728.5 976.308 2742.26 985.001 2742.26 985.001 2742.26 985.001 2731.59 973.405 2735.25 962.766 2739.52 950.354 2757.54 946.635 2757.54 946.635Z" fill="#69F4AE" fill-rule="evenodd"/><path d="M2775.06 1000.52C2775.06 1000.52 2754.33 1005.32 2741.61 992.992 2674.49 1373.32 2674.49 1373.32 2674.49 1373.32 2674.49 1373.32 2684.64 1380.79 2690.88 1374.98L2775.06 1000.52Z" fill="#85F9BB" fill-rule="evenodd"/><path d="M2762.62 1000.48C2685.25 1379.01 2685.25 1379.01 2685.25 1379.01 2685.25 1379.01 2682.75 1380.14 2683.37 1378.36 2755.07 997.886 2755.07 997.886 2755.07 997.886 2755.07 997.886 2758.84 999.183 2762.62 1000.48Z" fill="#FFFFFF" fill-rule="evenodd"/><path d="M2780.3 954.457C2780.3 954.457 2761.47 941.929 2746.47 948.887 2746.47 948.887 2758.97 943.089 2780.3 954.457Z" fill="#FFFFFF" fill-rule="evenodd"/><path d="M2753.78 995.018C2734.9 988.529 2725.35 973.304 2730.25 959.063 2734.53 946.601 2751.42 940.463 2769.02 944.524 2787.9 951.014 2796.84 968.018 2792.55 980.479 2787.66 994.721 2770.77 1000.86 2753.78 995.018Z" stroke="#333333" stroke-width="4.0106" stroke-miterlimit="8" fill="none" fill-rule="evenodd"/><path d="M2729.58 960.994C2665.51 1356.58 2665.51 1356.58 2665.51 1356.58 2664.95 1364.34 2666.29 1372.75 2673.24 1377.13 2681.48 1383.94 2692.77 1381.85 2699 1376.04 2699.61 1374.26 2700.22 1372.48 2700.22 1372.48 2793.21 978.889 2793.21 978.889 2793.21 978.889" stroke="#333333" stroke-width="4.0106" stroke-linecap="round" stroke-miterlimit="8" fill="none" fill-rule="evenodd"/><path d="M2734.18 984.646 2729.01 974.995 2666.73 1358.88 2666.47 1366.67 2734.18 984.646Z" fill="#4DC184" fill-rule="evenodd"/><path d="M2640.11 1381.67C2648.98 1386.7 2660.3 1384.63 2664.64 1378.17 2667.15 1377.05 2665.86 1374.62 2665.86 1374.62 2729.01 974.995 2729.01 974.995 2729.01 974.995 2661.48 961.72 2661.48 961.72 2661.48 961.72 2629.83 1362.23 2629.83 1362.23 2629.83 1362.23 2629.28 1370 2631.24 1376.63 2640.11 1381.67Z" fill="#69F4AE" fill-rule="evenodd"/><path d="M2689.04 992.59C2671.36 988.499 2659.24 974.41 2662.22 959.559 2667.1 945.36 2684.04 939.274 2701.72 943.365 2719.39 947.457 2730.9 963.32 2728.53 976.396 2723.65 990.595 2706.1 998.457 2689.04 992.59Z" fill="#4E936F" fill-rule="evenodd"/><path d="M2691.35 985.449C2713.23 965.184 2673.61 931.72 2713.69 951.45 2724.51 957.154 2726.57 969.768 2722.3 982.192 2713.61 995.082 2682.59 992.359 2691.35 985.449Z" fill="#296042" fill-rule="evenodd"/><path d="M2690.4 945.366C2690.4 945.366 2668.72 945.954 2665.7 960.997 2662.05 977.838 2678.73 985.578 2678.73 985.578 2678.73 985.578 2665.83 973.105 2669.54 962.318 2671.32 950.871 2690.4 945.366 2690.4 945.366Z" fill="#69F4AE" fill-rule="evenodd"/><path d="M2712.03 998.843C2712.03 998.843 2691.3 1003.64 2677.96 993.092 2641.15 1377.78 2641.15 1377.78 2641.15 1377.78 2641.15 1377.78 2650.02 1382.82 2655.64 1378.79L2712.03 998.843Z" fill="#85F9BB" fill-rule="evenodd"/><path d="M2699.78 998.267C2649.88 1383.21 2649.88 1383.21 2649.88 1383.21 2649.88 1383.21 2649.27 1384.99 2647.99 1382.56 2692.22 995.669 2692.22 995.669 2692.22 995.669 2692.22 995.669 2694.11 996.318 2699.78 998.267Z" fill="#FFFFFF" fill-rule="evenodd"/><path d="M2713.49 951.4C2713.49 951.4 2694.65 938.95 2679.08 947.534 2679.08 947.534 2692.15 940.084 2713.49 951.4Z" fill="#FFFFFF" fill-rule="evenodd"/><path d="M2688.9 992.542C2671.29 988.475 2659.23 974.407 2664.11 960.208 2667.1 945.36 2683.99 939.255 2701.59 943.322 2719.2 947.39 2730.65 963.232 2728.27 976.306 2725.27 991.154 2707.78 999.034 2688.9 992.542Z" stroke="#333333" stroke-width="4.0106" stroke-miterlimit="8" fill="none" fill-rule="evenodd"/><path d="M2663.11 962.279C2629.75 1362.21 2629.75 1362.21 2629.75 1362.21 2629.21 1369.97 2631.18 1376.61 2640.07 1381.65 2648.96 1386.7 2660.29 1384.63 2664.64 1378.17 2667.15 1377.05 2665.86 1374.62 2665.86 1374.62 2728.87 974.946 2728.87 974.946 2728.87 974.946" stroke="#333333" stroke-width="4.0106" stroke-linecap="round" stroke-miterlimit="8" fill="none" fill-rule="evenodd"/><path d="M2668.41 983.851 2662.69 975.826 2630.8 1364.7 2632.73 1371.42 2668.41 983.851Z" fill="#4DC184" fill-rule="evenodd"/><path d="M2661.85 1484.25C2670.7 1489.28 2682 1487.21 2686.94 1478.97 2688.84 1479.62 2690.06 1476.07 2690.06 1476.07 2755.19 1077.29 2755.19 1077.29 2755.19 1077.29 2689.69 1064.71 2689.69 1064.71 2689.69 1064.71 2652.21 1463.06 2652.21 1463.06 2652.21 1463.06 2651.66 1470.82 2654.89 1479.88 2661.85 1484.25Z" fill="#69F4AE" fill-rule="evenodd"/><path d="M2716.94 1096.06C2697.29 1091.31 2685.75 1075.31 2690.07 1062.76 2693.1 1047.76 2710.74 1039.78 2729.78 1046.33 2747.53 1050.42 2759.07 1066.42 2754.75 1078.98 2751.72 1093.98 2734.08 1101.95 2716.94 1096.06Z" fill="#4E936F" fill-rule="evenodd"/><path d="M2717.51 1088.23C2741.38 1068.36 2701.82 1034.71 2739.98 1053.84 2750.79 1059.57 2754.71 1072.95 2748.49 1084.85 2741.65 1098.54 2708.71 1095.24 2717.51 1088.23Z" fill="#296042" fill-rule="evenodd"/><path d="M2718.18 1048.82C2718.18 1048.82 2695.15 1048.83 2692.15 1063.66 2688.53 1080.26 2704.77 1087.83 2704.77 1087.83 2704.77 1087.83 2692.23 1075.59 2695.89 1064.95 2699.55 1054.31 2718.18 1048.82 2718.18 1048.82Z" fill="#69F4AE" fill-rule="evenodd"/><path d="M2738.61 1101.28C2738.61 1101.28 2717.88 1106.08 2704.54 1095.53 2663.8 1479.3 2663.8 1479.3 2663.8 1479.3 2663.8 1479.3 2672.06 1486.12 2678.3 1480.31L2738.61 1101.28Z" fill="#85F9BB" fill-rule="evenodd"/><path d="M2725.69 1101.07C2672.67 1484.34 2672.67 1484.34 2672.67 1484.34 2672.67 1484.34 2672.06 1486.12 2670.77 1483.68 2718.08 1098.46 2718.08 1098.46 2718.08 1098.46 2718.08 1098.46 2721.88 1099.77 2725.69 1101.07Z" fill="#FFFFFF" fill-rule="evenodd"/><path d="M2740.08 1053.83C2740.08 1053.83 2722.95 1041.97 2707.29 1050.53 2707.29 1050.53 2718.55 1042.45 2740.08 1053.83Z" fill="#FFFFFF" fill-rule="evenodd"/><path d="M2716.94 1096.06C2697.29 1091.31 2687.66 1075.97 2690.07 1062.76 2693.1 1047.76 2712.64 1040.44 2729.78 1046.33 2747.53 1050.42 2759.07 1066.42 2754.75 1078.98 2751.72 1093.98 2734.08 1101.95 2716.94 1096.06Z" stroke="#333333" stroke-width="4.0106" stroke-miterlimit="8" fill="none" fill-rule="evenodd"/><path d="M2690.3 1062.93C2652.21 1463.06 2652.21 1463.06 2652.21 1463.06 2651.66 1470.82 2654.89 1479.88 2662.46 1482.48 2670.7 1489.28 2682 1487.21 2686.94 1478.97 2689.45 1477.85 2690.06 1476.07 2690.06 1476.07 2755.19 1077.29 2755.19 1077.29 2755.19 1077.29" stroke="#333333" stroke-width="4.0106" stroke-linecap="round" stroke-miterlimit="8" fill="none" fill-rule="evenodd"/><path d="M2696.62 1086.84 2689.83 1076.63 2653.59 1465.83 2655.52 1472.55 2696.62 1086.84Z" fill="#4DC184" fill-rule="evenodd"/><path d="M2695.87 1496.38C2704.1 1503.19 2715.39 1501.1 2721.62 1495.29 2722.23 1493.51 2722.84 1491.73 2722.84 1491.73 2819.62 1099.44 2819.62 1099.44 2819.62 1099.44 2756 1081.54 2756 1081.54 2756 1081.54 2687.52 1477.6 2687.52 1477.6 2687.52 1477.6 2685.08 1484.72 2688.92 1492 2695.87 1496.38Z" fill="#69F4AE" fill-rule="evenodd"/><path d="M2778.3 1114.92C2761.31 1109.08 2751.78 1093.82 2756.69 1079.53 2760.99 1067.03 2777.89 1060.86 2796.77 1067.35 2813.76 1073.19 2823.29 1088.45 2819 1100.95 2814.09 1115.24 2797.19 1121.41 2778.3 1114.92Z" fill="#4E936F" fill-rule="evenodd"/><path d="M2781.52 1106C2805.87 1090.68 2770.14 1052.74 2806.93 1075.26 2817.09 1082.7 2819.14 1095.25 2813.6 1105.18 2804.96 1118 2772.19 1114.63 2781.52 1106Z" fill="#296042" fill-rule="evenodd"/><path d="M2786.12 1067.93C2786.12 1067.93 2763.16 1065.99 2757.68 1081.94 2754.72 1096.79 2768.87 1105.62 2768.87 1105.62 2768.87 1105.62 2757.86 1093.9 2761.52 1083.27 2765.79 1070.85 2786.12 1067.93 2786.12 1067.93Z" fill="#69F4AE" fill-rule="evenodd"/><path d="M2800.92 1122.69C2800.92 1122.69 2780.8 1125.72 2768.07 1113.39 2697.11 1492.57 2697.11 1492.57 2697.11 1492.57 2697.11 1492.57 2707.26 1500.03 2713.5 1494.22L2800.92 1122.69Z" fill="#85F9BB" fill-rule="evenodd"/><path d="M2789.25 1120.5C2705.64 1499.47 2705.64 1499.47 2705.64 1499.47 2705.64 1499.47 2705.64 1499.47 2705.64 1499.47 2781.67 1117.89 2781.67 1117.89 2781.67 1117.89 2781.67 1117.89 2785.46 1119.2 2789.25 1120.5Z" fill="#FFFFFF" fill-rule="evenodd"/><path d="M2806.71 1075.01C2806.71 1075.01 2789.77 1063.13 2772.88 1069.44 2772.88 1069.44 2785.39 1063.64 2806.71 1075.01Z" fill="#FFFFFF" fill-rule="evenodd"/><path d="M2780.19 1115.57C2761.31 1109.08 2751.77 1093.85 2756.66 1079.61 2760.94 1067.15 2778.44 1059.23 2796.71 1067.5 2813.71 1073.34 2823.25 1088.57 2818.97 1101.03 2814.07 1115.27 2797.19 1121.41 2780.19 1115.57Z" stroke="#333333" stroke-width="4.0106" stroke-miterlimit="8" fill="none" fill-rule="evenodd"/><path d="M2756 1081.54C2687.52 1477.6 2687.52 1477.6 2687.52 1477.6 2685.08 1484.72 2688.92 1492 2695.87 1496.38 2704.1 1503.19 2715.39 1501.1 2721.62 1495.29 2722.23 1493.51 2722.84 1491.73 2722.84 1491.73 2819.62 1099.44 2819.62 1099.44 2819.62 1099.44" stroke="#333333" stroke-width="4.0106" stroke-linecap="round" stroke-miterlimit="8" fill="none" fill-rule="evenodd"/><path d="M2760.59 1105.2 2755.61 1095 2688.79 1479.75 2689.1 1485.91 2760.59 1105.2Z" fill="#4DC184" fill-rule="evenodd"/><path d="M2729.56 1509.78C2737.85 1516.6 2749.2 1514.54 2755.45 1508.74 2757.97 1507.62 2758.58 1505.84 2758.58 1505.84 2883.64 1123.43 2883.64 1123.43 2883.64 1123.43 2819.53 1099.4 2819.53 1099.4 2819.53 1099.4 2722.34 1487.42 2722.34 1487.42 2722.34 1487.42 2721.8 1495.18 2723.16 1503.6 2729.56 1509.78Z" fill="#69F4AE" fill-rule="evenodd"/><path d="M2841.35 1134.61C2824.29 1128.74 2815.28 1111.75 2820.16 1097.55 2826.33 1085.78 2845.16 1080.35 2861.62 1087.99 2878.07 1095.63 2887.69 1110.84 2882.81 1125.04 2876.64 1136.81 2857.81 1142.25 2841.35 1134.61Z" fill="#4E936F" fill-rule="evenodd"/><path d="M2843.91 1127.53C2870.91 1110.97 2837.54 1071.67 2871.38 1097.22 2881.59 1104.7 2883.03 1119.11 2875.55 1128.47 2867.46 1139.6 2835.14 1134.45 2843.91 1127.53Z" fill="#296042" fill-rule="evenodd"/><path d="M2851.16 1088.47C2851.16 1088.47 2828.81 1084.75 2823.32 1100.71 2817.83 1116.67 2831.98 1125.49 2831.98 1125.49 2831.98 1125.49 2821.58 1112.01 2827.16 1102.03 2830.82 1091.39 2851.16 1088.47 2851.16 1088.47Z" fill="#69F4AE" fill-rule="evenodd"/><path d="M2863.55 1144.22C2863.55 1144.22 2841.66 1146.63 2831.53 1133.22 2731.4 1504.18 2731.4 1504.18 2731.4 1504.18 2731.4 1504.18 2738.98 1512.75 2747.07 1507.59L2863.55 1144.22Z" fill="#85F9BB" fill-rule="evenodd"/><path d="M2850.3 1139.67C2739.82 1511.06 2739.82 1511.06 2739.82 1511.06 2739.82 1511.06 2739.21 1512.83 2737.9 1510.4 2843.92 1139.46 2843.92 1139.46 2843.92 1139.46 2843.92 1139.46 2846.46 1138.35 2850.3 1139.67Z" fill="#FFFFFF" fill-rule="evenodd"/><path d="M2871.22 1097.06C2871.22 1097.06 2856.54 1084.26 2840.28 1088.36 2840.28 1088.36 2852.75 1082.95 2871.22 1097.06Z" fill="#FFFFFF" fill-rule="evenodd"/><path d="M2841.48 1134.65C2824.34 1128.76 2815.28 1111.75 2822.07 1098.21 2826.34 1085.78 2845.23 1080.37 2861.76 1088.04 2880.8 1094.58 2889.86 1111.59 2883.07 1125.13 2876.9 1136.9 2858 1142.31 2841.48 1134.65Z" stroke="#333333" stroke-width="4.0106" stroke-miterlimit="8" fill="none" fill-rule="evenodd"/><path d="M2821.69 1100.15C2722.49 1487.47 2722.49 1487.47 2722.49 1487.47 2721.94 1495.23 2723.29 1503.65 2729.65 1509.81 2737.91 1516.62 2749.22 1514.55 2755.46 1508.74 2757.97 1507.62 2758.58 1505.84 2758.58 1505.84 2883.66 1123.44 2883.66 1123.44 2883.66 1123.44" stroke="#333333" stroke-width="4.0106" stroke-linecap="round" stroke-miterlimit="8" fill="none" fill-rule="evenodd"/><path d="M2822.58 1122.26 2819.04 1113.17 2722.93 1491.48 2723.23 1497.65 2822.58 1122.26Z" fill="#4DC184" fill-rule="evenodd"/><path d="M2634.34 1576.57C2643.2 1581.61 2652.6 1578.87 2657.56 1570.62 2658.17 1568.84 2658.78 1567.06 2658.78 1567.06 2681.88 1161.14 2681.88 1161.14 2681.88 1161.14 2616.4 1154.55 2616.4 1154.55 2616.4 1154.55 2621.58 1558.26 2621.58 1558.26 2621.58 1558.26 2621.03 1566.03 2624.88 1573.32 2634.34 1576.57Z" fill="#69F4AE" fill-rule="evenodd"/><path d="M2644.36 1184.24C2626.07 1181.94 2613.97 1167.81 2616.97 1152.9 2617.47 1139.11 2635.03 1131.2 2653.32 1133.5 2671.62 1135.8 2683.72 1149.93 2682.61 1165.49 2680.22 1178.62 2663.94 1188.98 2644.36 1184.24Z" fill="#4E936F" fill-rule="evenodd"/><path d="M2646.49 1177.19C2667.04 1154.39 2624.53 1123.86 2665.03 1141.76 2676.4 1145.67 2680.32 1158.96 2676.65 1169.64 2669.85 1183.23 2637.74 1184.13 2646.49 1177.19Z" fill="#296042" fill-rule="evenodd"/><path d="M2641.84 1135.86C2641.84 1135.86 2619.62 1138.14 2617.97 1155.42 2616.93 1170.92 2634.18 1176.85 2634.18 1176.85 2634.18 1176.85 2620.67 1166.26 2622.41 1154.96 2624.15 1143.66 2641.84 1135.86 2641.84 1135.86Z" fill="#69F4AE" fill-rule="evenodd"/><path d="M2668.05 1188.49C2668.05 1188.49 2648.6 1195.72 2633.36 1184.52 2633.72 1572.12 2633.72 1572.12 2633.72 1572.12 2633.72 1572.12 2644.48 1577.81 2648.82 1571.35L2668.05 1188.49Z" fill="#85F9BB" fill-rule="evenodd"/><path d="M2655.82 1187.92C2644.76 1577.9 2644.76 1577.9 2644.76 1577.9 2644.76 1577.9 2642.86 1577.25 2642.86 1577.25 2647.62 1187.09 2647.62 1187.09 2647.62 1187.09 2647.62 1187.09 2651.42 1188.4 2655.82 1187.92Z" fill="#FFFFFF" fill-rule="evenodd"/><path d="M2665.03 1141.76C2665.03 1141.76 2645.39 1131.03 2631.63 1140.23 2631.63 1140.23 2642.88 1132.15 2665.03 1141.76Z" fill="#FFFFFF" fill-rule="evenodd"/><path d="M2646.26 1184.89C2626.07 1181.94 2613.97 1167.81 2616.97 1152.9 2617.47 1139.11 2635.03 1131.2 2653.32 1133.5 2671.62 1135.8 2683.72 1149.93 2682.61 1165.49 2680.22 1178.62 2663.94 1188.98 2646.26 1184.89Z" stroke="#333333" stroke-width="4.0106" stroke-miterlimit="8" fill="none" fill-rule="evenodd"/><path d="M2616.4 1154.55C2621.58 1558.26 2621.58 1558.26 2621.58 1558.26 2621.03 1566.03 2624.88 1573.32 2634.34 1576.57 2643.2 1581.61 2652.6 1578.87 2657.56 1570.62 2658.17 1568.84 2658.78 1567.06 2658.78 1567.06 2681.88 1161.14 2681.88 1161.14 2681.88 1161.14" stroke="#333333" stroke-width="4.0106" stroke-linecap="round" stroke-miterlimit="8" fill="none" fill-rule="evenodd"/><path d="M2623.31 1176.75 2617.4 1169.27 2622.81 1560.67 2624.74 1567.39 2623.31 1176.75Z" fill="#4DC184" fill-rule="evenodd"/><path d="M2611.49 1624.45C2620.36 1629.49 2629.78 1626.76 2634.73 1618.51 2637.24 1617.39 2635.96 1614.96 2635.96 1614.96 2660.78 1209.62 2660.78 1209.62 2660.78 1209.62 2593.31 1202.35 2593.31 1202.35 2593.31 1202.35 2598.7 1606.13 2598.7 1606.13 2598.7 1606.13 2598.15 1613.9 2602.01 1621.19 2611.49 1624.45Z" fill="#69F4AE" fill-rule="evenodd"/><path d="M2623.28 1232.73C2605.06 1230.45 2591.13 1215.7 2594.14 1200.79 2596.54 1187.66 2612.78 1177.29 2630.39 1181.35 2648.61 1183.63 2662.54 1198.38 2659.53 1213.29 2657.13 1226.42 2640.89 1236.79 2623.28 1232.73Z" fill="#4E936F" fill-rule="evenodd"/><path d="M2623.94 1225.17C2644.49 1202.38 2601.98 1171.84 2643.09 1187.96 2653.85 1193.65 2657.77 1206.94 2654.09 1217.62 2647.3 1231.21 2615.19 1232.11 2623.94 1225.17Z" fill="#296042" fill-rule="evenodd"/><path d="M2620.75 1184.35C2620.75 1184.35 2597.07 1186.12 2595.33 1203.37 2594.21 1218.85 2611.09 1224.65 2611.09 1224.65 2611.09 1224.65 2597.91 1214.17 2599.7 1202.89 2601.48 1191.6 2620.75 1184.35 2620.75 1184.35Z" fill="#69F4AE" fill-rule="evenodd"/><path d="M2645.29 1236.4C2645.29 1236.4 2625.81 1243.62 2612.44 1233.06 2611.14 1620.09 2611.14 1620.09 2611.14 1620.09 2611.14 1620.09 2621.93 1625.79 2626.27 1619.33L2645.29 1236.4Z" fill="#85F9BB" fill-rule="evenodd"/><path d="M2632.99 1235.81C2621.66 1625.7 2621.66 1625.7 2621.66 1625.7 2621.66 1625.7 2621.66 1625.7 2619.77 1625.05 2626.7 1235.64 2626.7 1235.64 2626.7 1235.64 2626.7 1235.64 2629.2 1234.51 2632.99 1235.81Z" fill="#FFFFFF" fill-rule="evenodd"/><path d="M2643.09 1187.96C2643.09 1187.96 2622.84 1179.01 2609.07 1188.21 2609.07 1188.21 2620.33 1180.14 2643.09 1187.96Z" fill="#FFFFFF" fill-rule="evenodd"/><path d="M2623.28 1232.73C2605.06 1230.45 2591.13 1215.7 2594.14 1200.79 2596.54 1187.66 2612.78 1177.29 2630.39 1181.35 2648.61 1183.63 2662.54 1198.38 2659.53 1213.29 2657.13 1226.42 2641.51 1235.01 2623.28 1232.73Z" stroke="#333333" stroke-width="4.0106" stroke-miterlimit="8" fill="none" fill-rule="evenodd"/><path d="M2593.31 1202.35C2598.7 1606.13 2598.7 1606.13 2598.7 1606.13 2598.15 1613.9 2602.01 1621.19 2611.49 1624.45 2620.36 1629.49 2629.78 1626.76 2634.73 1618.51 2637.24 1617.39 2635.96 1614.96 2635.96 1614.96 2660.78 1209.62 2660.78 1209.62 2660.78 1209.62" stroke="#333333" stroke-width="4.0106" stroke-linecap="round" stroke-miterlimit="8" fill="none" fill-rule="evenodd"/><path d="M2602.39 1225.29 2595.04 1216.71 2600.26 1608.65 2602.19 1615.37 2602.39 1225.29Z" fill="#4DC184" fill-rule="evenodd"/><path d="M2589.95 1674.77C2601.33 1678.69 2610.75 1675.95 2615.71 1667.7 2616.32 1665.92 2616.93 1664.14 2616.93 1664.14 2639.3 1259.79 2639.3 1259.79 2639.3 1259.79 2572.44 1250.74 2572.44 1250.74 2572.44 1250.74 2579.68 1655.32 2579.68 1655.32 2579.68 1655.32 2579.12 1663.09 2582.98 1670.39 2589.95 1674.77Z" fill="#69F4AE" fill-rule="evenodd"/><path d="M2602.52 1281.31C2584.22 1279.02 2572.12 1264.87 2572.63 1251.05 2575.65 1236.09 2591.33 1227.49 2611.52 1230.43 2629.21 1234.51 2641.92 1246.88 2638.9 1261.83 2638.39 1275.65 2620.2 1285.39 2602.52 1281.31Z" fill="#4E936F" fill-rule="evenodd"/><path d="M2602.74 1273.62C2625.19 1251.48 2582.68 1220.94 2621.28 1238.19 2634.55 1242.75 2638.47 1256.04 2632.9 1266.07 2628 1280.31 2595.89 1281.22 2602.74 1273.62Z" fill="#296042" fill-rule="evenodd"/><path d="M2600.17 1232.41C2600.17 1232.41 2577.29 1236.6 2576.19 1252.3 2575.08 1268 2592.33 1273.94 2592.33 1273.94 2592.33 1273.94 2578.23 1265.07 2580.64 1251.82 2582.43 1240.38 2600.17 1232.41 2600.17 1232.41Z" fill="#69F4AE" fill-rule="evenodd"/><path d="M2624.3 1284.92C2624.3 1284.92 2604.85 1292.15 2591.51 1281.6 2591.87 1669.2 2591.87 1669.2 2591.87 1669.2 2591.87 1669.2 2600.74 1674.24 2606.97 1668.44L2624.3 1284.92Z" fill="#85F9BB" fill-rule="evenodd"/><path d="M2613.95 1285C2600.79 1674.09 2600.79 1674.09 2600.79 1674.09 2600.79 1674.09 2600.18 1675.87 2598.9 1673.44 2605.77 1284.18 2605.77 1284.18 2605.77 1284.18 2605.77 1284.18 2607.66 1284.83 2613.95 1285Z" fill="#FFFFFF" fill-rule="evenodd"/><path d="M2621.55 1238.28C2621.55 1238.28 2603.81 1228.2 2588.15 1236.75 2588.15 1236.75 2599.4 1228.68 2621.55 1238.28Z" fill="#FFFFFF" fill-rule="evenodd"/><path d="M2602.51 1281.32C2584.22 1279.02 2572.11 1264.9 2573.22 1249.33 2575.62 1236.2 2591.28 1227.63 2611.47 1230.58 2629.76 1232.88 2641.87 1247.01 2638.87 1261.93 2638.37 1275.71 2620.19 1285.41 2602.51 1281.32Z" stroke="#333333" stroke-width="4.0106" stroke-miterlimit="8" fill="none" fill-rule="evenodd"/><path d="M2574.6 1251.48C2579.73 1655.34 2579.73 1655.34 2579.73 1655.34 2579.18 1663.11 2583.02 1670.4 2589.99 1674.79 2601.34 1678.69 2610.75 1675.95 2615.71 1667.7 2616.32 1665.92 2616.93 1664.14 2616.93 1664.14 2639.47 1259.85 2639.47 1259.85 2639.47 1259.85" stroke="#333333" stroke-width="4.0106" stroke-linecap="round" stroke-miterlimit="8" fill="none" fill-rule="evenodd"/><path d="M2581.46 1273.83 2575.74 1265.81 2580.96 1657.75 2581.26 1663.91 2581.46 1273.83Z" fill="#4DC184" fill-rule="evenodd"/></g></svg>