<svg width="329" height="596" xmlns="http://www.w3.org/2000/svg" xmlns:xlink="http://www.w3.org/1999/xlink" xml:space="preserve" overflow="hidden"><g transform="translate(-748 -597)"><path d="M926.191 599.224C849.242 594 783.753 672.366 782.116 715.903 780.479 762.923 805.037 806.46 803.4 855.222 800.125 907.466 769.018 952.744 754.284 1003.25 733 1074.65 783.753 1163.46 877.074 1186.1 960.572 1207 1055.53 1144.31 1068.63 1081.61 1085 998.023 1063.72 914.432 1065.35 832.582 1065.35 785.562 1058.8 602.707 926.191 599.224Z" fill="#488DC0" fill-rule="evenodd"/><path d="M922 609C884.526 614.233 819.353 643.884 798.172 701.442 778.621 759 843.793 779.93 811.207 891.558 780.25 1004.93 733 1045.05 803.06 1134 786.767 1106.09 775.362 1045.05 832.388 952.605 887.784 860.163 878.009 793.884 863.345 745.047 850.31 697.954 858.457 647.372 922 609Z" fill="#7EACD1" fill-rule="evenodd"/><path d="M999.829 641C1019.44 670.626 1042.32 693.28 1048.85 789.127 1055.39 883.231 1053.76 905.886 1057.02 970.365 1060.29 1033.1 1075 1135.92 941 1176 975.317 1158.57 1037.41 1092.35 1032.51 1026.13 1029.24 959.909 1016.17 888.459 1019.44 811.782 1022.71 735.104 1025.98 677.596 999.829 641Z" fill="#076BAD" fill-rule="evenodd"/><path d="M872 625C835.92 640.682 790 689.47 799.84 746.97 809.68 804.47 826.08 825.379 819.52 855 824.44 825.379 819.52 773.106 812.96 745.227 808.04 715.606 826.08 659.848 872 625Z" fill="#FFFFFF" fill-rule="evenodd"/><path d="M772.364 1089C756 1043.59 780.545 984.2 792 958 788.727 978.96 769.091 1054.07 772.364 1089Z" fill="#FFFFFF" fill-rule="evenodd"/><path d="M926.691 599.724C849.742 594.5 784.254 672.866 782.616 716.403 780.979 763.423 805.537 806.96 803.9 855.721 800.626 907.966 769.519 953.244 754.784 1003.75 733.5 1075.15 784.254 1163.96 877.574 1186.6 961.072 1207.5 1056.03 1144.81 1069.13 1082.11 1085.5 998.523 1064.22 914.932 1065.85 833.082 1065.85 786.062 1059.3 603.207 926.691 599.724Z" stroke="#333333" stroke-width="2.86476" stroke-linecap="round" stroke-linejoin="round" stroke-miterlimit="10" fill="none" fill-rule="evenodd"/></g></svg>