<svg width="304" height="621" xmlns="http://www.w3.org/2000/svg" xmlns:xlink="http://www.w3.org/1999/xlink" xml:space="preserve" overflow="hidden"><g transform="translate(-3339 -1430)"><path d="M3527.91 1436.98C3436.15 1416 3368.97 1457.95 3347.66 1506.89 3328 1550.59 3354.22 1632.75 3357.49 1676.44 3360.77 1734.13 3350.94 1763.84 3344.39 1821.52 3334.55 1898.43 3332.92 2033.02 3444.34 2045.26 3509.89 2054 3554.13 2047.01 3604.93 1994.57 3659 1935.14 3637.7 1845.99 3629.5 1797.05 3621.31 1748.11 3614.76 1709.65 3629.5 1660.71 3655.72 1580.31 3619.67 1457.95 3527.91 1436.98Z" fill="#D79641" fill-rule="evenodd"/><path d="M3407.79 1574.96C3416 1625.6 3416 1718.14 3393 1800.21 3368.36 1884.02 3366.71 1971.33 3388.07 2008 3363.43 1971.33 3347 1931.17 3366.71 1798.46 3386.43 1667.5 3368.36 1679.73 3360.14 1576.71 3350.29 1475.43 3435.71 1447.49 3485 1444 3448.86 1449.24 3401.21 1503.37 3407.79 1574.96Z" fill="#E2B16B" fill-rule="evenodd"/><path d="M3582.95 1486C3607.59 1512.19 3635.5 1582.03 3620.72 1639.65 3605.94 1697.27 3597.73 1700.76 3609.23 1767.11 3620.72 1831.71 3647 1920.76 3601.02 1976.63 3555.04 2032.51 3505.77 2036 3468 2036 3500.84 2030.76 3555.04 2006.32 3574.74 1969.65 3594.45 1934.73 3586.24 1835.21 3571.46 1765.37 3556.68 1693.78 3589.52 1653.62 3596.09 1618.7 3602.66 1585.52 3614.16 1534.89 3582.95 1486Z" fill="#C97513" fill-rule="evenodd"/><path d="M3442 1453C3398 1463.49 3367.04 1498.46 3360.52 1542.16 3354 1585.87 3378.44 1673.29 3373.56 1710 3380.07 1676.78 3371.93 1605.1 3375.19 1561.39 3378.44 1517.69 3388.22 1482.72 3442 1453Z" fill="#FFFFFF" fill-rule="evenodd"/><path d="M3361.82 1837C3356.91 1875.36 3352 1938.13 3370 1973" fill="#FFFFFF" fill-rule="evenodd"/><path d="M3528.41 1437.48C3436.65 1416.5 3369.47 1458.45 3348.16 1507.39 3328.5 1551.09 3354.72 1633.25 3358 1676.94 3361.27 1734.63 3351.44 1764.34 3344.89 1822.02 3335.05 1898.93 3333.42 2033.52 3444.84 2045.76 3510.39 2054.5 3554.63 2047.51 3605.43 1995.07 3659.5 1935.64 3638.2 1846.49 3630 1797.55 3621.81 1748.61 3615.26 1710.15 3630 1661.21 3656.22 1580.81 3620.17 1458.45 3528.41 1437.48Z" stroke="#333333" stroke-width="2.86476" stroke-linecap="round" stroke-linejoin="round" stroke-miterlimit="10" fill="none" fill-rule="evenodd"/></g></svg>