<svg width="485" height="495" xmlns="http://www.w3.org/2000/svg" xmlns:xlink="http://www.w3.org/1999/xlink" xml:space="preserve" overflow="hidden"><g transform="translate(-2240 -516)"><path d="M2242.59 713.347C2240 692.65 2254.24 670.574 2259.42 648.497 2262.01 636.079 2247.77 607.104 2252.94 590.546 2258.12 575.369 2282.72 575.369 2290.48 561.571 2302.13 542.254 2316.37 525.697 2333.2 521.557 2387.56 505 2412.16 551.913 2457.46 569.85 2484.65 582.268 2509.24 573.989 2536.42 575.369 2572.67 578.128 2595.97 602.964 2616.68 633.32 2630.92 656.776 2660.69 665.055 2669.75 692.65 2681.4 725.765 2672.34 776.817 2682.69 808.552 2695.64 852.705 2728 912.035 2721.53 958.948 2718.94 974.126 2713.76 985.164 2705.99 993.443 2696.93 1001.72 2685.28 1007.24 2672.34 1008.62 2656.81 1010 2645.16 993.443 2628.33 986.544 2615.38 981.025 2598.56 986.544 2589.5 978.265 2579.14 969.986 2580.43 949.29 2572.67 939.631 2564.9 929.973 2548.07 931.352 2541.6 921.694 2518.3 892.719 2495 870.642 2443.23 883.06 2412.16 891.339 2375.91 912.035 2342.26 905.137 2302.13 895.478 2287.89 847.186 2280.13 808.552 2273.66 779.576 2246.47 747.841 2242.59 713.347Z" fill="#E4954E" fill-rule="evenodd"/><path d="M2532.62 585.735C2505.37 582.971 2483.3 591.265 2456.05 580.206 2414.52 562.235 2391.16 518 2340.55 533.206 2323.68 538.735 2310.7 553.941 2299.02 571.912 2292.53 584.353 2269.17 585.735 2263.98 599.559 2258.79 614.765 2273.06 642.412 2270.47 653.471 2265.28 674.206 2251 694.941 2253.6 715.677 2258.79 747.471 2284.74 777.882 2289.93 805.53 2296.42 838.706 2308.1 881.559 2341.85 894 2327.57 884.324 2310.7 858.059 2306.8 841.471 2269.17 704.618 2376.89 558.088 2454.75 599.559 2482.01 610.618 2531.32 600.941 2557.28 603.706 2571.55 605.088 2593.62 628.588 2604 635.5 2585.83 607.853 2565.07 588.5 2532.62 585.735Z" fill="#F0C499" fill-rule="evenodd"/><path d="M2365 898.373C2406.53 884.548 2457.14 854.134 2489.59 865.194 2522.03 877.636 2529.82 903.903 2549.29 910.816 2568.75 917.728 2577.84 920.493 2588.22 941.23 2597.31 961.968 2594.71 968.88 2614.18 968.88 2633.64 968.88 2640.13 975.793 2655.71 982.705 2672.58 989.618 2705.02 991 2711.51 963.35 2718 935.7 2702.43 891.461 2689.45 862.429 2676.47 833.396 2659.6 802.982 2663.49 758.742 2668.68 713.12 2659.6 697.912 2653.11 691 2660.9 717.267 2654.41 722.797 2650.51 764.272 2647.92 805.747 2660.9 841.691 2663.49 887.313 2667.39 934.318 2628.45 934.318 2601.2 908.051 2573.94 883.166 2528.52 823.719 2486.99 830.631 2446.76 837.544 2380.57 899.756 2365 898.373Z" fill="#DC7721" fill-rule="evenodd"/><path d="M2344.25 552.769C2326.04 558.308 2322.14 577.692 2311.73 590.154 2298.72 604 2284.41 604 2287.01 627.538 2289.61 638.615 2292.21 644.154 2290.91 655.231 2288.31 666.308 2284.41 674.615 2283.11 684.308 2279.2 700.923 2274 735.538 2287.01 748 2285.71 736.923 2281.81 725.846 2283.11 713.385 2284.41 699.538 2292.21 688.462 2297.42 677.385 2306.52 659.385 2313.03 638.615 2326.04 623.385 2345.55 598.462 2376.78 577.692 2408 577.692 2396.29 573.538 2383.28 572.154 2374.17 563.846 2363.77 554.154 2362.47 550 2346.85 550" fill="#F9E3CF" fill-rule="evenodd"/><path d="M2311 611.095C2303.2 619.476 2298 643.222 2303.2 653 2312.3 633.445 2317.5 612.492 2334.4 595.73 2343.5 587.349 2361.7 571.984 2376 570.587 2353.9 565 2330.5 587.349 2316.2 602.714" fill="#FFFFFF" fill-rule="evenodd"/><path d="M2297.87 659C2277 674.231 2307 677 2300.48 663.154" fill="#FFFFFF" fill-rule="evenodd"/><path d="M2582 923.355C2593.66 933.064 2591.07 955.258 2605.31 960.807 2613.09 964.968 2623.45 959.419 2631.22 960.807 2638.99 963.581 2648.06 969.129 2655.83 971.903 2671.37 976.065 2686.91 983 2699.87 970.516 2718 952.484 2706.34 915.032 2695.98 897 2699.87 926.129 2706.34 967.742 2666.19 963.581 2654.53 962.194 2644.17 953.871 2632.51 951.097 2619.56 949.71 2605.31 945.548 2597.54 931.677" fill="#CC6811" fill-rule="evenodd"/><path d="M2242.59 713.347C2240 692.65 2254.24 670.574 2259.42 648.497 2262.01 636.079 2247.77 607.104 2252.94 590.546 2258.12 575.369 2282.72 575.369 2290.48 561.571 2302.13 542.254 2316.37 525.697 2333.2 521.557 2387.56 505 2412.16 551.913 2457.46 569.85 2484.65 582.268 2509.24 573.989 2536.42 575.369 2572.67 578.128 2595.97 602.964 2616.68 633.32 2630.92 656.776 2660.69 665.055 2669.75 692.65 2681.4 725.765 2672.34 776.817 2682.69 808.552 2695.64 852.705 2728 912.035 2721.53 958.948 2718.94 974.126 2713.76 985.164 2705.99 993.443 2696.93 1001.72 2685.28 1007.24 2672.34 1008.62 2656.81 1010 2645.16 993.443 2628.33 986.544 2615.38 981.025 2598.56 986.544 2589.5 978.265 2579.14 969.986 2580.43 949.29 2572.67 939.631 2564.9 929.973 2548.07 931.352 2541.6 921.694 2518.3 892.719 2495 870.642 2443.23 883.06 2412.16 891.339 2375.91 912.035 2342.26 905.137 2302.13 895.478 2287.89 847.186 2280.13 808.552 2273.66 779.576 2246.47 747.841 2242.59 713.347Z" stroke="#000000" stroke-width="4.0106" stroke-linecap="round" stroke-linejoin="round" stroke-miterlimit="10" fill="none" fill-rule="evenodd"/></g></svg>