<svg width="486" height="497" xmlns="http://www.w3.org/2000/svg" xmlns:xlink="http://www.w3.org/1999/xlink" xml:space="preserve" overflow="hidden"><g transform="translate(-2905 -515)"><path d="M2907.89 713.172C2904 692.393 2918.26 670.229 2924.74 648.066 2927.33 635.598 2913.07 606.508 2918.26 589.885 2923.44 574.647 2948.07 574.647 2955.85 560.795 2966.22 541.402 2980.48 524.779 2998.63 520.623 3051.78 504 3077.7 551.098 3121.78 569.107 3150.3 581.574 3174.93 573.262 3202.15 574.647 3238.44 577.418 3261.78 602.352 3282.52 632.828 3296.78 656.377 3326.59 664.688 3335.67 692.393 3347.33 725.639 3338.26 776.893 3348.63 808.754 3361.59 853.082 3394 912.647 3387.52 959.746 3384.93 974.984 3379.74 986.066 3370.67 994.377 3362.89 1002.69 3351.22 1008.23 3338.26 1009.61 3322.7 1011 3311.04 994.377 3294.19 987.451 3281.22 981.91 3264.37 987.451 3255.3 979.139 3244.93 970.828 3246.22 950.049 3238.44 940.352 3230.67 930.656 3213.81 932.041 3207.33 922.344 3184 893.254 3160.67 871.09 3108.81 883.557 3077.7 891.869 3041.41 912.647 3007.7 905.721 2966.22 896.025 2953.26 847.541 2945.48 808.754 2939 779.664 2911.78 747.803 2907.89 713.172Z" fill="#B8B9B7" fill-rule="evenodd"/><path d="M3198.62 585.735C3171.37 582.971 3149.31 591.265 3122.05 580.206 3080.52 562.235 3057.16 518 3005.25 533.206 2989.68 538.735 2975.4 553.941 2965.02 571.912 2958.53 584.353 2935.17 585.735 2929.98 599.559 2924.79 614.765 2939.06 642.412 2936.47 653.471 2931.28 674.206 2917 694.941 2919.6 715.677 2924.79 747.471 2949.44 777.882 2955.93 805.53 2962.42 838.706 2974.1 881.559 3007.85 894 2993.57 884.324 2975.4 858.059 2972.81 841.471 2935.17 704.618 3042.89 558.088 3120.75 599.559 3148.01 610.618 3197.32 600.941 3223.28 603.706 3237.56 605.088 3259.62 628.588 3270 635.5 3251.83 607.853 3231.07 588.5 3198.62 585.735Z" fill="#D9D9D6" fill-rule="evenodd"/><path d="M3031 898.373C3072.53 884.548 3123.14 854.134 3155.59 865.194 3188.03 877.636 3195.82 903.903 3215.29 910.816 3234.75 917.728 3243.84 920.493 3254.22 941.23 3263.3 961.968 3260.71 968.88 3280.18 968.88 3299.64 968.88 3306.13 975.793 3321.71 982.705 3338.58 989.618 3371.02 991 3377.51 963.35 3384 935.7 3368.43 891.461 3355.45 862.429 3342.47 833.396 3325.6 802.982 3329.49 758.742 3334.68 713.12 3325.6 697.912 3319.11 691 3326.9 717.267 3320.41 722.797 3316.51 764.272 3313.92 805.747 3326.9 841.691 3329.49 887.313 3333.39 934.318 3294.45 934.318 3267.2 908.051 3239.94 883.166 3194.52 823.719 3152.99 830.631 3112.76 837.544 3046.57 899.756 3031 898.373Z" fill="#969796" fill-rule="evenodd"/><path d="M3010.25 552.769C2992.04 558.308 2988.14 577.692 2977.73 590.154 2964.72 604 2950.41 604 2953.01 627.538 2955.61 638.615 2958.21 644.154 2956.91 655.231 2954.31 666.308 2950.41 674.615 2949.11 684.308 2945.2 700.923 2940 735.538 2953.01 748 2951.71 736.923 2947.81 725.846 2949.11 713.385 2950.41 699.538 2958.21 688.462 2963.42 677.385 2972.52 659.385 2979.03 638.615 2992.04 623.385 3011.55 598.462 3042.78 577.692 3074 577.692 3062.29 573.538 3049.28 572.154 3040.17 563.846 3029.77 554.154 3028.47 550 3012.85 550" fill="#EBEAE7" fill-rule="evenodd"/><path d="M2977 610.572C2969.2 618.857 2964 642.333 2969.2 652 2978.3 632.667 2983.5 611.953 3000.4 595.381 3009.5 587.095 3027.7 571.905 3042 570.524 3019.9 565 2996.5 587.095 2982.2 602.286" fill="#FFFFFF" fill-rule="evenodd"/><path d="M2963.87 659C2943 674.231 2973 677 2966.48 663.154" fill="#FFFFFF" fill-rule="evenodd"/><path d="M3248 923.355C3259.66 933.064 3257.07 955.258 3271.31 960.807 3279.09 964.968 3289.45 959.419 3297.22 960.807 3304.99 963.581 3314.06 969.129 3321.83 971.903 3337.37 976.065 3352.91 983 3365.87 970.516 3384 952.484 3371.05 915.032 3361.98 897 3365.87 926.129 3372.34 967.742 3330.9 963.581 3320.53 962.194 3310.17 953.871 3298.51 951.097 3285.56 949.71 3271.31 945.548 3263.54 931.677" fill="#646565" fill-rule="evenodd"/><path d="M2907.89 713.172C2904 692.393 2918.26 670.229 2924.74 648.066 2927.33 635.598 2913.07 606.508 2918.26 589.885 2923.44 574.647 2948.07 574.647 2955.85 560.795 2966.22 541.402 2980.48 524.779 2998.63 520.623 3051.78 504 3077.7 551.098 3121.78 569.107 3150.3 581.574 3174.93 573.262 3202.15 574.647 3238.44 577.418 3261.78 602.352 3282.52 632.828 3296.78 656.377 3326.59 664.688 3335.67 692.393 3347.33 725.639 3338.26 776.893 3348.63 808.754 3361.59 853.082 3394 912.647 3387.52 959.746 3384.93 974.984 3379.74 986.066 3370.67 994.377 3362.89 1002.69 3351.22 1008.23 3338.26 1009.61 3322.7 1011 3311.04 994.377 3294.19 987.451 3281.22 981.91 3264.37 987.451 3255.3 979.139 3244.93 970.828 3246.22 950.049 3238.44 940.352 3230.67 930.656 3213.81 932.041 3207.33 922.344 3184 893.254 3160.67 871.09 3108.81 883.557 3077.7 891.869 3041.41 912.647 3007.7 905.721 2966.22 896.025 2953.26 847.541 2945.48 808.754 2939 779.664 2911.78 747.803 2907.89 713.172Z" stroke="#000000" stroke-width="4.0106" stroke-linecap="round" stroke-linejoin="round" stroke-miterlimit="10" fill="none" fill-rule="evenodd"/></g></svg>