<svg width="605" height="407" xmlns="http://www.w3.org/2000/svg" xmlns:xlink="http://www.w3.org/1999/xlink" xml:space="preserve" overflow="hidden"><g transform="translate(-1548 -1103)"><path d="M1643.42 1194.47C1648.11 1205.75 1653.98 1204.5 1656.33 1204.5 1666.89 1201.99 1677.44 1199.48 1688 1195.73 1714.99 1189.46 1745.49 1198.23 1771.31 1208.26 1825.27 1229.56 1872.21 1275.92 1928.52 1289.7 1982.49 1300.98 2037.63 1273.41 2091.6 1288.45 2144.4 1303.49 2162 1346.09 2143.23 1399.97 2135.01 1423.78 2105.68 1418.77 2092.78 1436.31 2077.53 1453.85 2078.7 1493.95 2059.93 1502.72 2043.5 1511.49 2028.25 1495.2 2009.48 1496.46 1989.53 1496.46 1967.24 1514 1946.12 1505.23 1914.44 1493.95 1893.32 1468.89 1865.17 1450.09 1835.83 1431.3 1818.24 1445.08 1790.08 1460.12 1767.79 1471.4 1743.15 1490.19 1717.34 1493.95 1691.52 1496.46 1665.71 1480.17 1641.07 1485.18 1616.44 1491.45 1604.7 1506.48 1577.72 1488.94 1539 1462.62 1555.43 1427.54 1557.77 1383.68 1560.12 1332.31 1567.16 1279.68 1555.43 1228.3 1547.21 1189.46 1540.17 1103 1597.66 1104.25 1635.21 1104.25 1636.38 1164.4 1643.42 1194.47Z" fill="#91678B" fill-rule="evenodd"/><path d="M2051 1300.75C2007.56 1300.75 1965.29 1315.75 1921.85 1305.75 1865.49 1293.25 1818.52 1245.75 1764.52 1224.5 1738.68 1214.5 1708.16 1205.75 1681.15 1213.25 1670.59 1215.75 1660.02 1218.25 1649.45 1220.75 1645.93 1222 1635.36 1223.25 1630.67 1210.75 1623.62 1180.75 1625.97 1119.5 1596.62 1118.25 1552 1117 1562.57 1194.5 1570.79 1233.25 1582.53 1284.5 1569.61 1339.5 1567.26 1392 1577.83 1347 1587.22 1323.25 1613.05 1292 1637.71 1259.5 1683.5 1253.25 1718.72 1242 1753.95 1230.75 1788 1274.5 1857.27 1299.5 1925.37 1323.25 1979.38 1313.25 2051 1300.75Z" fill="#BCA4BA" fill-rule="evenodd"/><path d="M1636 1477.4C1654.75 1468.61 1703.95 1491.21 1721.53 1483.68 1740.27 1476.15 1798.86 1442.25 1824.63 1432.2 1850.41 1423.42 1856.27 1429.69 1879.7 1448.53 1904.3 1466.1 1938.28 1497.49 1955.85 1498.74 1973.43 1500 1983.97 1492.47 2003.89 1487.45 2023.81 1483.68 2044.9 1500 2055.44 1493.72 2064.81 1487.45 2069.5 1451.04 2081.22 1434.72 2091.76 1418.39 2119.88 1413.37 2131.6 1405.84 2148 1393.28 2146.83 1336.79 2137.46 1328 2139.8 1353.11 2138.63 1379.47 2109.34 1392.03 2078.87 1403.33 2051.93 1399.56 2041.38 1425.93 2032.01 1452.29 2020.29 1438.48 1996.86 1449.78 1974.6 1461.08 1968.74 1459.82 1938.28 1433.46 1907.82 1408.35 1859.78 1389.52 1829.32 1405.84 1801.2 1420.91 1776.59 1442.25 1749.65 1457.31 1722.7 1472.38 1687.55 1471.12 1671.15 1469.87 1655.92 1469.87 1636 1477.4 1636 1477.4Z" fill="#7C4976" fill-rule="evenodd"/><path d="M1593.19 1142C1572 1149.49 1576.71 1179.44 1579.06 1196.91 1581.42 1208.14 1584.95 1218.12 1587.3 1229.36 1590.84 1243.08 1588.48 1256.81 1588.48 1270.54 1587.3 1275.53 1583.77 1293 1592.01 1293 1600.25 1293 1606.14 1269.29 1610.85 1264.3 1623.8 1251.82 1660.29 1255.56 1665 1236.84 1650.87 1230.6 1630.86 1253.07 1617.91 1231.85 1613.2 1224.36 1614.38 1208.14 1613.2 1199.4 1612.03 1184.43 1608.49 1173.2 1604.96 1160.72" fill="#D5C4D3" fill-rule="evenodd"/><path d="M1597.83 1255.5C1593.17 1261.82 1592 1270.68 1594.33 1277 1600.17 1275.74 1600.17 1265.62 1606 1260.56 1611.83 1255.5 1621.17 1256.76 1627 1249.18 1623.5 1234 1607.17 1244.12 1601.33 1251.71" fill="#FFFFFF" fill-rule="evenodd"/><path d="M1640.5 1240.57C1637.2 1241.86 1635 1243.14 1635 1245.71 1639.4 1247 1643.8 1244.43 1646 1240.57 1643.8 1238 1641.6 1239.29 1640.5 1240.57" fill="#FFFFFF" fill-rule="evenodd"/><path d="M1939.83 1488.25C1951.48 1502 1970.13 1493.25 1982.95 1488.25 2001.59 1480.75 2016.74 1482 2034.23 1487 2055.2 1493.25 2058.7 1484.5 2063.36 1464.5 2069.19 1445.75 2072.68 1432 2089 1422 2077.35 1423.25 2059.86 1434.5 2054.04 1445.75 2045.88 1464.5 2045.88 1472 2023.74 1475.75 2006.26 1478.25 1991.11 1477 1973.62 1483.25 1960.8 1487 1946.82 1494.5 1934 1483.25" fill="#61245D" fill-rule="evenodd"/><path d="M1643.92 1194.97C1648.61 1206.25 1654.48 1205 1656.83 1205 1667.39 1202.49 1677.94 1199.98 1688.5 1196.23 1715.49 1189.96 1745.99 1198.73 1771.81 1208.76 1825.78 1230.06 1872.71 1276.42 1929.02 1290.2 1982.99 1301.48 2038.13 1273.91 2092.1 1288.95 2144.9 1303.99 2162.5 1346.59 2143.73 1400.47 2135.52 1424.28 2106.18 1419.27 2093.28 1436.81 2078.03 1454.35 2079.2 1494.45 2060.43 1503.22 2044 1511.99 2028.75 1495.7 2009.98 1496.96 1990.03 1496.96 1967.74 1514.5 1946.62 1505.73 1914.94 1494.45 1893.82 1469.39 1865.67 1450.59 1836.33 1431.8 1818.74 1445.58 1790.58 1460.62 1768.29 1471.9 1743.65 1490.69 1717.84 1494.45 1692.02 1496.96 1666.21 1480.67 1641.57 1485.68 1616.94 1491.95 1605.2 1506.98 1578.22 1489.44 1539.5 1463.12 1555.93 1428.04 1558.27 1384.18 1560.62 1332.81 1567.66 1280.18 1555.93 1228.8 1547.71 1189.96 1540.67 1103.5 1598.16 1104.75 1635.71 1104.75 1636.88 1164.9 1643.92 1194.97Z" stroke="#000000" stroke-width="3.4375" stroke-linecap="round" stroke-linejoin="round" stroke-miterlimit="10" fill="none" fill-rule="evenodd"/></g></svg>