<svg width="605" height="407" xmlns="http://www.w3.org/2000/svg" xmlns:xlink="http://www.w3.org/1999/xlink" xml:space="preserve" overflow="hidden"><g transform="translate(-2290 -1103)"><path d="M2385.42 1194.47C2390.11 1205.75 2395.98 1204.5 2398.33 1204.5 2408.89 1201.99 2419.44 1199.48 2430 1195.73 2456.99 1189.46 2487.49 1198.23 2513.31 1208.26 2567.28 1229.56 2614.21 1275.92 2670.52 1289.7 2724.49 1300.98 2779.63 1273.41 2833.6 1288.45 2886.4 1303.49 2904 1346.09 2885.23 1399.97 2877.02 1423.78 2847.68 1418.77 2834.78 1436.31 2819.53 1453.85 2820.7 1493.95 2801.93 1502.72 2785.5 1511.49 2770.25 1495.2 2751.48 1496.46 2731.53 1496.46 2708.07 1514 2688.12 1505.23 2656.44 1493.95 2635.32 1468.89 2607.17 1450.09 2577.83 1431.3 2560.24 1445.08 2532.08 1460.12 2509.79 1471.4 2485.15 1490.19 2459.34 1493.95 2433.52 1496.46 2407.71 1480.17 2383.07 1485.18 2358.44 1491.45 2346.7 1506.48 2319.72 1488.94 2281 1462.62 2297.43 1427.54 2299.77 1383.68 2302.12 1332.31 2307.99 1279.68 2297.43 1228.3 2288.04 1189.46 2282.17 1103 2339.66 1104.25 2377.21 1104.25 2378.38 1164.4 2385.42 1194.47Z" fill="#AF3932" fill-rule="evenodd"/><path d="M2793 1301.42C2749.49 1301.42 2707.15 1316.47 2663.63 1306.44 2607.18 1293.89 2560.14 1246.22 2506.04 1224.89 2480.17 1214.85 2449.59 1206.07 2422.54 1213.6 2411.96 1216.11 2401.37 1218.62 2390.79 1221.13 2387.26 1222.38 2376.68 1223.64 2371.97 1211.09 2364.92 1180.98 2367.27 1119.51 2337.87 1118.25 2292 1117 2303.76 1194.78 2311.99 1233.67 2323.75 1285.11 2310.82 1340.31 2308.47 1393 2319.05 1347.84 2328.46 1324 2354.33 1292.64 2379.03 1260.02 2424.89 1253.75 2460.18 1242.45 2495.46 1231.16 2529.56 1275.07 2598.95 1300.16 2667.16 1324 2721.26 1313.96 2793 1301.42Z" fill="#D2937E" fill-rule="evenodd"/><path d="M2377 1477.53C2395.78 1468.8 2445.09 1491.26 2462.7 1483.77 2481.48 1476.28 2540.17 1442.58 2566 1432.6 2591.83 1423.86 2597.7 1430.1 2621.17 1448.82 2645.83 1466.3 2679.87 1497.5 2697.48 1498.75 2715.09 1500 2725.65 1492.51 2745.61 1487.52 2765.57 1483.77 2786.7 1500 2797.26 1493.76 2806.65 1487.52 2811.35 1451.32 2823.09 1435.09 2833.65 1418.87 2861.83 1413.88 2873.57 1406.39 2890 1393.91 2888.83 1337.74 2879.43 1329 2881.78 1353.96 2880.61 1380.18 2851.26 1392.66 2820.74 1403.89 2793.74 1400.15 2783.17 1426.36 2773.78 1452.57 2762.04 1438.84 2738.57 1450.07 2716.26 1461.31 2710.39 1460.06 2679.87 1433.85 2649.35 1408.88 2601.22 1390.16 2570.7 1406.39 2542.52 1421.36 2517.87 1442.58 2489.7 1457.56 2463.87 1472.54 2428.65 1471.29 2412.22 1470.04 2396.96 1470.04 2377 1477.53 2377 1477.53Z" fill="#9C1B20" fill-rule="evenodd"/><path d="M2334.19 1142C2313 1149.54 2317.71 1179.69 2320.06 1197.27 2322.42 1208.58 2325.95 1218.63 2328.3 1229.93 2331.84 1243.75 2329.48 1257.57 2329.48 1271.39 2328.3 1276.41 2324.77 1294 2333.01 1294 2340.08 1294 2347.14 1270.13 2351.85 1265.11 2364.8 1252.55 2401.29 1256.31 2406 1237.47 2391.87 1231.19 2371.86 1253.8 2358.91 1232.45 2354.2 1224.91 2355.38 1208.58 2354.2 1199.78 2353.03 1184.71 2349.49 1173.4 2345.96 1160.84" fill="#E9CDC1" fill-rule="evenodd"/><path d="M2338.83 1256.5C2334.17 1262.82 2333 1271.68 2335.33 1278 2341.17 1276.74 2341.17 1266.62 2347 1261.56 2352.83 1256.5 2362.17 1257.76 2368 1250.18 2364.5 1235 2348.17 1245.12 2342.33 1252.71" fill="#FFFFFF" fill-rule="evenodd"/><path d="M2380.4 1241.57C2378.2 1242.86 2376 1244.14 2376 1246.71 2380.4 1248 2383.7 1245.43 2387 1241.57 2384.8 1239 2382.6 1240.29 2380.4 1241.57" fill="#FFFFFF" fill-rule="evenodd"/><path d="M2681.83 1489.25C2693.48 1503 2712.13 1494.25 2724.95 1489.25 2743.59 1481.75 2758.74 1483 2776.23 1488 2797.2 1494.25 2800.7 1485.5 2805.36 1465.5 2811.19 1446.75 2814.68 1433 2831 1423 2819.35 1424.25 2801.86 1435.5 2796.04 1446.75 2787.88 1465.5 2787.88 1473 2765.74 1476.75 2748.26 1479.25 2733.11 1478 2715.62 1484.25 2702.8 1488 2687.65 1495.5 2676 1484.25" fill="#82191C" fill-rule="evenodd"/><path d="M2385.92 1194.97C2390.61 1206.25 2396.48 1205 2398.83 1205 2409.39 1202.49 2419.94 1199.98 2430.5 1196.23 2457.49 1189.96 2487.99 1198.73 2513.8 1208.76 2567.77 1230.06 2614.71 1276.42 2671.02 1290.2 2724.99 1301.48 2780.13 1273.91 2834.1 1288.95 2886.9 1303.99 2904.5 1346.59 2885.73 1400.47 2877.51 1424.28 2848.18 1419.27 2835.28 1436.81 2820.03 1454.35 2821.2 1494.45 2802.43 1503.22 2786 1511.99 2770.75 1495.7 2751.98 1496.96 2732.03 1496.96 2708.57 1514.5 2688.62 1505.73 2656.94 1494.45 2635.82 1469.39 2607.67 1450.59 2578.33 1431.8 2560.74 1445.58 2532.58 1460.62 2510.29 1471.9 2485.65 1490.69 2459.84 1494.45 2434.02 1496.96 2408.21 1480.67 2383.57 1485.68 2358.94 1491.95 2347.2 1506.98 2320.22 1489.44 2281.5 1463.12 2297.93 1428.04 2300.27 1384.18 2302.62 1332.81 2308.48 1280.18 2297.93 1228.8 2288.54 1189.96 2282.67 1103.5 2340.16 1104.75 2377.71 1104.75 2378.88 1164.9 2385.92 1194.97Z" stroke="#000000" stroke-width="3.4375" stroke-linecap="round" stroke-linejoin="round" stroke-miterlimit="10" fill="none" fill-rule="evenodd"/></g></svg>