<svg width="607" height="408" xmlns="http://www.w3.org/2000/svg" xmlns:xlink="http://www.w3.org/1999/xlink" xml:space="preserve" overflow="hidden"><g transform="translate(-3024 -1109)"><path d="M3120.59 1201.47C3125.29 1212.75 3129.99 1211.5 3133.51 1211.5 3144.09 1208.99 3154.67 1206.48 3165.24 1202.73 3192.27 1196.46 3222.82 1205.23 3248.68 1215.26 3302.73 1236.56 3349.74 1282.92 3406.15 1296.7 3460.2 1307.98 3515.44 1280.41 3569.49 1295.45 3622.37 1310.49 3640 1353.09 3621.2 1406.97 3612.97 1430.78 3583.59 1425.77 3570.67 1443.31 3555.39 1460.85 3556.56 1500.95 3536.59 1509.72 3521.31 1518.49 3506.03 1502.2 3487.23 1503.46 3467.25 1503.46 3443.75 1521 3422.6 1512.23 3392.05 1500.95 3370.89 1475.89 3342.69 1457.09 3313.31 1438.3 3295.68 1452.08 3267.48 1467.12 3245.15 1478.4 3220.47 1497.19 3194.62 1500.95 3168.77 1503.46 3142.92 1487.17 3118.24 1492.18 3093.56 1498.45 3081.81 1513.48 3054.78 1495.94 3016 1469.63 3031.28 1434.54 3034.8 1390.68 3037.15 1339.31 3043.03 1286.68 3032.45 1235.3 3023.05 1196.46 3017.18 1110 3074.76 1111.25 3112.36 1111.25 3113.54 1171.4 3120.59 1201.47Z" fill="#E9DD37" fill-rule="evenodd"/><path d="M3529 1308.42C3485.49 1308.42 3441.97 1323.47 3399.63 1313.44 3343.18 1300.89 3296.14 1253.22 3242.04 1231.89 3216.17 1221.85 3185.59 1213.07 3158.54 1220.6 3147.96 1223.11 3137.37 1225.62 3126.79 1228.13 3123.26 1229.38 3112.68 1230.64 3107.97 1218.09 3100.92 1187.98 3103.27 1126.51 3073.87 1125.25 3028 1124 3039.76 1201.78 3047.99 1240.67 3059.75 1292.11 3046.82 1347.31 3044.46 1400 3055.05 1354.84 3064.46 1331 3090.33 1299.64 3115.03 1267.02 3160.89 1260.75 3196.18 1249.45 3231.46 1238.16 3265.56 1282.07 3334.95 1307.16 3403.16 1331 3457.26 1320.96 3529 1308.42Z" fill="#F6F0B2" fill-rule="evenodd"/><path d="M3113 1484.53C3131.78 1475.8 3181.09 1498.26 3198.7 1490.77 3217.48 1483.28 3276.17 1449.58 3302 1439.6 3327.83 1430.86 3333.7 1437.1 3357.17 1455.82 3381.83 1473.3 3414.7 1504.5 3433.48 1505.75 3451.09 1507 3461.65 1499.51 3481.61 1494.52 3501.57 1490.77 3522.7 1507 3533.26 1500.76 3542.65 1494.52 3547.35 1458.32 3559.09 1442.09 3569.65 1425.87 3597.83 1420.88 3609.57 1413.39 3626 1400.91 3624.83 1344.74 3615.43 1336 3617.78 1360.96 3616.61 1387.18 3587.26 1399.66 3556.74 1410.89 3528.57 1407.15 3519.17 1433.36 3508.61 1459.57 3498.04 1445.84 3474.57 1457.07 3452.26 1468.31 3446.39 1467.06 3415.87 1440.85 3385.35 1415.88 3337.22 1397.16 3306.7 1413.39 3278.52 1428.36 3253.87 1449.58 3225.7 1464.56 3199.87 1479.54 3164.65 1478.29 3148.22 1477.04 3132.96 1477.04 3113 1484.53 3113 1484.53Z" fill="#D4CA00" fill-rule="evenodd"/><path d="M3070.19 1149C3049 1156.54 3053.71 1186.69 3056.06 1204.27 3057.24 1215.58 3061.95 1225.63 3064.3 1236.93 3067.84 1250.75 3065.48 1264.57 3064.3 1278.39 3064.3 1283.41 3060.77 1301 3067.84 1301 3076.08 1301 3083.14 1277.13 3087.85 1272.11 3100.8 1259.55 3137.29 1263.31 3142 1244.47 3127.87 1238.19 3106.68 1260.8 3094.91 1239.45 3090.2 1231.91 3091.38 1215.58 3090.2 1206.79 3089.03 1191.71 3085.49 1180.41 3081.96 1167.84" fill="#F9F6D2" fill-rule="evenodd"/><path d="M3074.83 1263C3070.17 1269.18 3069 1277.82 3071.33 1284 3077.17 1282.76 3077.17 1272.88 3083 1267.94 3088.83 1263 3098.17 1264.24 3104 1256.82 3100.5 1242 3084.17 1251.88 3078.33 1259.29" fill="#FFFFFF" fill-rule="evenodd"/><path d="M3116.4 1248.57C3114.2 1249.86 3112 1251.14 3112 1253.71 3116.4 1255 3119.7 1252.43 3123 1248.57 3119.7 1246 3118.6 1247.29 3116.4 1248.57" fill="#FFFFFF" fill-rule="evenodd"/><path d="M3415.69 1496.25C3428.59 1510 3447.36 1501.25 3460.26 1496.25 3477.86 1488.75 3494.28 1490 3511.87 1495 3531.81 1501.25 3536.5 1492.5 3541.2 1472.5 3547.06 1453.75 3550.58 1440 3567 1430 3555.27 1431.25 3537.68 1442.5 3531.81 1453.75 3523.6 1472.5 3523.6 1480 3501.32 1483.75 3483.72 1486.25 3468.47 1485 3450.88 1491.25 3437.98 1495 3422.73 1502.5 3411 1491.25" fill="#B7AF00" fill-rule="evenodd"/><path d="M3120.59 1201.47C3125.29 1212.75 3129.99 1211.5 3133.51 1211.5 3144.09 1208.99 3154.67 1206.48 3165.24 1202.73 3192.27 1196.46 3222.82 1205.23 3248.68 1215.26 3302.73 1236.56 3349.74 1282.92 3406.15 1296.7 3460.2 1307.98 3515.44 1280.41 3569.49 1295.45 3622.37 1310.49 3640 1353.09 3621.2 1406.97 3612.97 1430.78 3583.59 1425.77 3570.67 1443.31 3555.39 1460.85 3556.56 1500.95 3536.59 1509.72 3521.31 1518.49 3506.03 1502.2 3487.23 1503.46 3467.25 1503.46 3443.75 1521 3422.6 1512.23 3392.05 1500.95 3370.89 1475.89 3342.69 1457.09 3313.31 1438.3 3295.68 1452.08 3267.48 1467.12 3245.15 1478.4 3220.47 1497.19 3194.62 1500.95 3168.77 1503.46 3142.92 1487.17 3118.24 1492.18 3093.56 1498.45 3081.81 1513.48 3054.78 1495.94 3016 1469.63 3031.28 1434.54 3034.8 1390.68 3037.15 1339.31 3043.03 1286.68 3032.45 1235.3 3023.05 1196.46 3017.18 1110 3074.76 1111.25 3112.36 1111.25 3113.54 1171.4 3120.59 1201.47Z" stroke="#000000" stroke-width="4.0106" stroke-linecap="round" stroke-linejoin="round" stroke-miterlimit="10" fill="none" fill-rule="evenodd"/></g></svg>