<svg width="329" height="733" xmlns="http://www.w3.org/2000/svg" xmlns:xlink="http://www.w3.org/1999/xlink" xml:space="preserve" overflow="hidden"><g transform="translate(-1330 -538)"><path d="M1467.83 548.3C1392.6 584.859 1404.05 671.905 1400.78 706.723 1394.23 778.1 1348.44 832.068 1335.36 899.964 1319 993.973 1353.35 1040.98 1374.61 1124.54 1384.42 1161.1 1394.23 1206.36 1422.04 1235.96 1446.57 1262.07 1484.19 1276 1546.34 1263.81 1616.66 1251.63 1646.1 1152.4 1652.64 1086.24 1665.73 943.486 1636.29 863.405 1649.37 762.432 1669 604.009 1543.07 510 1467.83 548.3Z" fill="#BBE278" fill-rule="evenodd"/><path d="M1638.59 755.008C1646.79 695.712 1633.66 650.368 1609.05 612 1625.46 646.88 1625.46 706.176 1618.89 760.24 1604.12 863.136 1618.89 924.176 1605.76 1065.44 1599.2 1131.71 1587.71 1232.86 1517.14 1245.07 1487.6 1250.3 1467.9 1259.02 1440 1243.33 1461.34 1257.28 1494.16 1266 1535.19 1259.02 1605.76 1246.82 1635.31 1145.66 1641.87 1079.39 1655 938.128 1625.46 857.904 1638.59 755.008Z" fill="#91CD35" fill-rule="evenodd"/><path d="M1399.22 1123.38C1379.55 1039.73 1371.35 1008.36 1387.74 914.255 1399.22 846.289 1435.29 787.037 1441.85 715.586 1445.13 687.703 1422.17 595.339 1473 557 1407.42 597.082 1417.26 678.989 1413.98 712.101 1409.06 781.809 1361.51 837.576 1350.03 905.541 1332 999.647 1368.07 1044.96 1389.38 1128.61 1395.94 1156.49 1402.5 1186.12 1417.26 1214 1409.06 1179.15 1405.78 1144.29 1399.22 1123.38Z" fill="#E5F5C7" fill-rule="evenodd"/><path d="M1471.36 557C1405.76 597.02 1430.36 690.98 1427.08 713.6 1417.24 783.2 1361.48 837.14 1350 905 1361.48 837.14 1409.04 781.46 1413.96 711.86 1417.24 678.8 1407.4 597.02 1473 557" fill="#FFFFFF" fill-rule="evenodd"/><path d="M1468.33 548.8C1393.1 585.359 1404.55 672.404 1401.28 707.223 1394.73 778.6 1348.94 832.568 1335.86 900.464 1319.5 994.473 1353.85 1041.48 1375.11 1125.04 1384.92 1161.6 1394.73 1206.86 1422.54 1236.46 1447.07 1262.57 1484.69 1276.5 1546.84 1264.31 1617.16 1252.13 1646.6 1152.9 1653.14 1086.74 1666.23 943.986 1636.79 863.904 1649.87 762.932 1669.5 604.509 1543.57 510.5 1468.33 548.8Z" stroke="#333333" stroke-width="2.86476" stroke-linecap="round" stroke-linejoin="round" stroke-miterlimit="10" fill="none" fill-rule="evenodd"/></g></svg>