<svg width="573" height="488" xmlns="http://www.w3.org/2000/svg" xmlns:xlink="http://www.w3.org/1999/xlink" xml:space="preserve" overflow="hidden"><g transform="translate(-2313 -1691)"><path d="M2329.27 1968.1C2318.89 1976.39 2329.27 2001.27 2322.79 2012.33 2318.89 2022 2316.3 2033.06 2315 2048.26 2315 2064.85 2338.36 2071.76 2347.44 2085.58 2360.42 2104.93 2363.01 2131.19 2374.69 2140.86 2417.51 2179.56 2462.93 2192 2509.64 2153.3 2549.86 2118.75 2570.63 2067.61 2617.34 2039.97 2667.95 2009.56 2719.85 2023.38 2774.35 2017.85 2885.94 2008.18 2908 1885.17 2858.69 1795.33 2830.14 1742.81 2769.16 1682 2706.87 1695.82 2697.79 1697.2 2693.9 1711.02 2684.81 1715.17 2677.03 1719.32 2665.35 1713.79 2657.56 1717.93 2651.08 1723.46 2648.48 1735.9 2641.99 1738.67 2634.21 1742.81 2621.23 1738.67 2613.45 1741.43 2573.22 1755.25 2542.08 1730.37 2505.75 1720.7 2424 1699.97 2390.26 1769.07 2408.43 1845.09 2416.21 1878.26 2416.21 1907.28 2403.24 1932.16 2399.34 1939.07 2388.96 1939.07 2382.48 1945.98 2378.58 1951.51 2378.58 1962.57 2370.8 1966.72 2357.82 1977.77 2335.76 1962.57 2329.27 1968.1Z" fill="#68C8EE" fill-rule="evenodd"/><path d="M2794.57 1956.96C2759.64 1986.02 2666.5 1968.03 2618.64 1991.56 2570.78 2015.08 2544.91 2074.59 2522.92 2106.41 2500.93 2138.24 2494.46 2147.93 2466 2159 2480.23 2156.23 2494.46 2149.31 2508.69 2136.86 2546.2 2105.03 2565.61 2053.83 2608.29 2027.54 2654.86 1998.47 2720.83 2010.93 2772.58 2005.39 2876.06 1995.71 2889 1875.31 2843.72 1790.9 2835.96 1777.06 2825.61 1761.84 2812.68 1748 2838.55 1803.35 2860.54 1900.22 2794.57 1956.96Z" fill="#00ABE4" fill-rule="evenodd"/><path d="M2377.65 2073.05C2377.65 2059.22 2368.58 2010.83 2390.61 1994.24 2394.5 1990.1 2434.67 1962.45 2461.89 1923.73 2483.92 1893.32 2472.25 1832.49 2494.28 1810.37 2509.83 1793.78 2569.44 1800.69 2610.91 1778.57 2643.31 1760.6 2678.3 1744.01 2708.1 1734.33 2759.94 1716.36 2787.15 1728.8 2804 1738.48 2775.49 1710.83 2745.69 1697 2709.4 1705.3 2701.62 1708.06 2696.44 1720.5 2688.67 1724.65 2680.89 1728.8 2670.52 1723.27 2662.75 1727.42 2656.27 1731.56 2654.97 1742.62 2648.49 1746.77 2640.72 1750.92 2617.39 1750.92 2609.62 1753.68 2572.04 1766.13 2543.53 1742.62 2508.54 1732.95 2433.38 1713.59 2400.98 1778.57 2417.82 1850.46 2425.6 1880.88 2424.3 1914.06 2411.35 1937.56 2408.75 1944.47 2398.39 1944.47 2391.91 1950 2388.02 1955.53 2388.02 1974.89 2381.54 1979.04 2368.58 1988.71 2347.85 1974.89 2341.37 1980.42 2332.3 1987.33 2343.96 1997.01 2338.78 2008.07 2334.89 2016.36 2332.3 2027.42 2331 2041.25 2331 2056.46 2353.03 2061.99 2360.81 2075.81 2373.76 2093.79 2376.36 2118.67 2386.72 2128.35 2400.98 2140.79 2415.23 2150.47 2429.49 2156 2380.24 2120.05 2377.65 2088.26 2377.65 2073.05Z" fill="#B5E1F6" fill-rule="evenodd"/><path d="M2459.25 1748.52C2424.19 1756.81 2428.09 1812.05 2431.98 1839.67 2435.88 1857.62 2437.18 1872.81 2434.58 1892.14 2433.28 1911.48 2422.9 1926.67 2419 1946 2435.88 1928.05 2450.16 1911.48 2452.76 1885.24 2456.65 1857.62 2450.16 1825.86 2457.95 1801 2467.04 1776.14 2489.11 1774.76 2509.89 1774.76 2534.56 1773.38 2556.63 1766.48 2580 1763.71 2560.52 1763.71 2547.54 1762.33 2530.66 1754.05 2511.19 1745.76 2495.6 1743 2474.83 1743" fill="#DDF1FB" fill-rule="evenodd"/><path d="M2462.33 1757C2439 1769.35 2440.3 1791.3 2444.19 1816 2448.07 1803.65 2445.48 1788.56 2453.26 1777.58 2458.44 1770.72 2467.52 1770.72 2474 1763.86 2472.7 1761.12 2471.41 1759.74 2468.81 1758.37" fill="#FFFFFF" fill-rule="evenodd"/><path d="M2491.43 1755.67C2483.71 1753 2476 1757 2478.57 1765 2485 1765 2490.14 1763.67 2494 1761 2494 1758.33 2492.71 1758.33 2491.43 1757" fill="#FFFFFF" fill-rule="evenodd"/><path d="M2443.33 1824.36C2442 1829.82 2443.33 1835.27 2446 1838 2450 1833.91 2450 1828.45 2447.33 1824.36 2446 1823 2446 1825.73 2444.67 1825.73" fill="#FFFFFF" fill-rule="evenodd"/><path d="M2355.5 2003.42C2350.5 2011.92 2348 2027.5 2353 2036 2356.75 2031.75 2359.25 2016.17 2359.25 2010.5 2360.5 2006.25 2368 2002 2358 2003.42" fill="#FFFFFF" fill-rule="evenodd"/><path d="M2363.2 1992.4C2360.4 1995.2 2359 1995.2 2359 1998 2361.8 1996.6 2363.2 1995.2 2366 1992.4 2363.2 1991 2363.2 1993.8 2363.2 1993.8" fill="#FFFFFF" fill-rule="evenodd"/><path d="M2694 2007.96C2726.36 2007.96 2816.98 2019 2850.64 1955.54 2883 1892.08 2857.11 1830 2857.11 1830 2862.29 1876.91 2851.93 1937.61 2820.86 1970.72 2784.62 2007.96 2708.24 2009.34 2694 2007.96Z" fill="#0094D2" fill-rule="evenodd"/><path d="M2329.27 1968.1C2318.89 1976.39 2329.27 2001.27 2322.79 2012.33 2318.89 2022 2316.3 2033.06 2315 2048.26 2315 2064.85 2338.36 2071.76 2347.44 2085.58 2360.42 2104.93 2363.01 2131.19 2374.69 2140.86 2417.51 2179.56 2462.93 2192 2509.64 2153.3 2549.86 2118.75 2570.63 2067.61 2617.34 2039.97 2667.95 2009.56 2719.85 2023.38 2774.35 2017.85 2885.94 2008.18 2908 1885.17 2858.69 1795.33 2830.14 1742.81 2769.16 1682 2706.87 1695.82 2697.79 1697.2 2693.9 1711.02 2684.81 1715.17 2677.03 1719.32 2665.35 1713.79 2657.56 1717.93 2651.08 1723.46 2648.48 1735.9 2641.99 1738.67 2634.21 1742.81 2621.23 1738.67 2613.45 1741.43 2573.22 1755.25 2542.08 1730.37 2505.75 1720.7 2424 1699.97 2390.26 1769.07 2408.43 1845.09 2416.21 1878.26 2416.21 1907.28 2403.24 1932.16 2399.34 1939.07 2388.96 1939.07 2382.48 1945.98 2378.58 1951.51 2378.58 1962.57 2370.8 1966.72 2357.82 1977.77 2335.76 1962.57 2329.27 1968.1Z" stroke="#000000" stroke-width="4.0106" stroke-linecap="round" stroke-linejoin="round" stroke-miterlimit="10" fill="none" fill-rule="evenodd"/></g></svg>