<svg width="573" height="488" xmlns="http://www.w3.org/2000/svg" xmlns:xlink="http://www.w3.org/1999/xlink" xml:space="preserve" overflow="hidden"><g transform="translate(-3014 -1691)"><path d="M3030.27 1968.1C3019.89 1976.39 3030.27 2001.27 3023.79 2012.33 3019.89 2022 3017.3 2033.06 3016 2048.26 3016 2064.85 3039.36 2071.76 3048.44 2085.58 3061.42 2104.93 3064.01 2131.19 3075.69 2140.86 3117.21 2179.56 3163.93 2192 3210.64 2153.3 3250.86 2118.75 3271.63 2067.61 3318.34 2039.97 3368.95 2009.56 3420.85 2023.38 3475.35 2017.85 3586.94 2008.18 3609 1885.17 3559.69 1795.33 3531.14 1742.81 3470.16 1682 3407.87 1695.82 3398.79 1697.2 3394.9 1711.02 3385.81 1715.17 3378.03 1719.32 3366.35 1713.79 3358.56 1717.93 3352.08 1723.46 3349.48 1735.9 3341.7 1738.67 3335.21 1742.81 3322.23 1738.67 3313.15 1741.43 3274.22 1755.25 3243.08 1730.37 3205.45 1720.7 3125 1699.97 3091.26 1769.07 3109.43 1845.09 3117.21 1878.26 3117.21 1907.28 3104.24 1932.16 3100.34 1939.07 3089.96 1939.07 3083.47 1945.98 3078.28 1951.51 3079.58 1962.57 3071.8 1966.72 3058.82 1977.77 3036.76 1962.57 3030.27 1968.1Z" fill="#9DC671" fill-rule="evenodd"/><path d="M3495.57 1956.96C3460.64 1986.02 3367.5 1968.03 3319.64 1991.56 3271.78 2015.08 3244.61 2074.59 3223.92 2106.41 3201.93 2138.24 3195.46 2147.93 3167 2159 3181.23 2156.23 3195.46 2149.31 3209.69 2136.86 3247.2 2105.03 3266.61 2053.83 3309.29 2027.54 3355.86 1998.47 3421.83 2010.93 3472.28 2005.39 3577.06 1995.71 3590 1875.31 3544.72 1790.9 3536.96 1777.06 3525.32 1761.84 3513.68 1748 3539.55 1803.35 3561.54 1900.22 3495.57 1956.96Z" fill="#72B23C" fill-rule="evenodd"/><path d="M3078.68 2073.05C3078.68 2059.22 3068.31 2010.83 3091.65 1994.24 3095.54 1990.1 3135.74 1962.45 3162.97 1923.73 3185.01 1893.32 3173.34 1832.49 3195.38 1810.37 3210.94 1793.78 3270.59 1800.69 3312.09 1778.57 3344.51 1760.6 3379.52 1744.01 3409.34 1734.33 3461.21 1716.36 3488.44 1728.8 3504 1738.48 3476.77 1710.83 3446.94 1697 3410.64 1705.3 3401.56 1708.06 3397.67 1720.5 3389.89 1724.65 3382.11 1728.8 3371.74 1723.27 3363.96 1727.42 3357.47 1731.56 3356.18 1742.62 3349.69 1746.77 3341.91 1750.92 3318.57 1750.92 3310.79 1753.68 3273.19 1766.13 3244.66 1742.62 3209.65 1732.95 3134.44 1713.59 3102.02 1778.57 3118.88 1850.46 3126.66 1880.88 3124.07 1914.06 3112.4 1937.56 3109.8 1944.47 3099.43 1944.47 3092.94 1950 3089.05 1955.53 3089.05 1974.89 3082.57 1979.04 3069.6 1988.71 3048.86 1974.89 3042.37 1980.42 3033.3 1987.33 3044.97 1997.01 3039.78 2008.07 3034.59 2016.36 3032 2027.42 3032 2041.25 3032 2056.46 3052.75 2061.99 3061.82 2075.81 3074.79 2093.79 3077.38 2118.67 3087.76 2128.35 3100.73 2140.79 3114.99 2150.47 3130.55 2156 3081.27 2120.05 3078.68 2088.26 3078.68 2073.05Z" fill="#C1DAA4" fill-rule="evenodd"/><path d="M3160.25 1748.52C3125.19 1756.81 3129.09 1812.05 3132.98 1839.67 3136.88 1857.62 3138.18 1872.81 3135.58 1892.14 3132.98 1911.48 3123.9 1926.67 3120 1946 3136.88 1928.05 3151.16 1911.48 3153.76 1885.24 3157.65 1857.62 3151.16 1825.86 3158.95 1801 3168.04 1776.14 3190.11 1774.76 3210.89 1774.76 3235.56 1773.38 3256.33 1766.48 3281 1763.71 3261.52 1763.71 3248.54 1762.33 3231.66 1754.05 3212.19 1745.76 3196.6 1743 3175.83 1743" fill="#E2EDD4" fill-rule="evenodd"/><path d="M3164.33 1757C3141 1769.35 3141 1791.3 3146.19 1816 3150.07 1803.65 3147.48 1788.56 3155.26 1777.58 3160.44 1770.72 3169.52 1770.72 3176 1763.86 3174.7 1761.12 3173.41 1759.74 3170.81 1758.37" fill="#FFFFFF" fill-rule="evenodd"/><path d="M3192.43 1755.67C3184.71 1753 3177 1757 3179.57 1765 3186 1765 3191.14 1763.67 3195 1761 3195 1758.33 3193.71 1758.33 3192.43 1757" fill="#FFFFFF" fill-rule="evenodd"/><path d="M3143 1824.36C3143 1829.82 3143 1835.27 3147 1838 3151 1833.91 3151 1828.45 3148.33 1824.36 3145.67 1823 3147 1825.73 3145.67 1825.73" fill="#FFFFFF" fill-rule="evenodd"/><path d="M3055.88 2003.42C3050.62 2011.92 3048 2027.5 3053.25 2036 3057.19 2031.75 3059.81 2016.17 3059.81 2010.5 3061.12 2006.25 3069 2002 3058.5 2003.42" fill="#FFFFFF" fill-rule="evenodd"/><path d="M3064.2 1992.4C3061.4 1995.2 3060 1995.2 3060 1998 3062.8 1996.6 3064.2 1995.2 3067 1992.4 3064.2 1991 3064.2 1993.8 3064.2 1993.8" fill="#FFFFFF" fill-rule="evenodd"/><path d="M3395 2007.96C3427.36 2007.96 3517.98 2019 3551.64 1955.54 3584 1892.08 3558.11 1830 3558.11 1830 3563.29 1876.91 3552.93 1937.61 3521.86 1970.72 3485.62 2007.96 3409.24 2009.34 3395 2007.96Z" fill="#509622" fill-rule="evenodd"/><path d="M3030.27 1968.1C3019.89 1976.39 3030.27 2001.27 3023.79 2012.33 3019.89 2022 3017.3 2033.06 3016 2048.26 3016 2064.85 3039.36 2071.76 3048.44 2085.58 3061.42 2104.93 3064.01 2131.19 3075.69 2140.86 3117.21 2179.56 3163.93 2192 3210.64 2153.3 3250.86 2118.75 3271.63 2067.61 3318.34 2039.97 3368.95 2009.56 3420.85 2023.38 3475.35 2017.85 3586.94 2008.18 3609 1885.17 3559.69 1795.33 3531.14 1742.81 3470.16 1682 3407.87 1695.82 3398.79 1697.2 3394.9 1711.02 3385.81 1715.17 3378.03 1719.32 3366.35 1713.79 3358.56 1717.93 3352.08 1723.46 3349.48 1735.9 3341.7 1738.67 3335.21 1742.81 3322.23 1738.67 3313.15 1741.43 3274.22 1755.25 3243.08 1730.37 3205.45 1720.7 3125 1699.97 3091.26 1769.07 3109.43 1845.09 3117.21 1878.26 3117.21 1907.28 3104.24 1932.16 3100.34 1939.07 3089.96 1939.07 3083.47 1945.98 3078.28 1951.51 3079.58 1962.57 3071.8 1966.72 3058.82 1977.77 3036.76 1962.57 3030.27 1968.1Z" stroke="#000000" stroke-width="4.0106" stroke-linecap="round" stroke-linejoin="round" stroke-miterlimit="10" fill="none" fill-rule="evenodd"/></g></svg>