<svg width="591" height="380" xmlns="http://www.w3.org/2000/svg" xmlns:xlink="http://www.w3.org/1999/xlink" xml:space="preserve" overflow="hidden"><g transform="translate(-1556 -566)"><path d="M1601.76 866.308C1592.78 852.654 1597.91 829.442 1591.5 811.692 1583.8 795.308 1563.27 783.019 1558.13 765.269 1554.28 750.25 1565.83 728.404 1563.27 713.385 1553 643.75 1569.68 605.519 1592.78 585.039 1624.86 555 1654.38 567.289 1683.89 594.596 1719.82 627.366 1748.06 660.135 1796.82 638.289 1840.45 617.808 1871.25 589.135 1920.01 587.769 2011.12 585.039 2002.14 699.731 2049.62 755.712 2070.15 780.289 2107.37 778.923 2127.9 803.5 2151 829.442 2147.15 873.135 2135.6 904.539 2107.37 981 2036.79 926.385 1994.44 894.981 1972.63 878.596 1950.81 863.577 1922.58 869.039 1898.2 875.865 1872.53 889.519 1850.72 900.442 1817.35 916.827 1782.7 940.039 1745.49 941.404 1708.27 942.769 1668.49 918.192 1641.55 890.885 1631.28 882.692 1610.75 878.596 1601.76 866.308Z" fill="#D08F9E" fill-rule="evenodd"/><path d="M1920.02 598.105C1873.83 599.474 1844.31 626.842 1803.25 646 1748.07 672 1718.55 636.421 1683.91 606.316 1656.96 580.316 1628.73 568 1597.93 596.737 1577.4 617.263 1562 652.842 1570.98 718.526 1573.55 732.21 1564.57 748.632 1568.42 763.684 1572.27 778.737 1588.95 789.684 1596.65 802 1599.21 793.789 1588.95 774.632 1587.66 767.789 1581.25 730.842 1597.93 691.158 1618.46 672 1653.11 647.368 1685.19 676.105 1721.12 681.579 1759.62 688.421 1800.68 677.474 1823.78 666.526 1864.84 647.368 1887.94 614.526 1934.14 613.158 1963.65 611.789 1994.45 659.684 2006 688.421 1989.32 640.526 1976.49 596.737 1920.02 598.105Z" fill="#E8CBD0" fill-rule="evenodd"/><path d="M1612 866.367C1627.39 873.2 1629.96 867.733 1649.2 885.5 1668.43 903.267 1718.46 947 1768.48 929.233 1819.78 911.467 1895.46 854.067 1942.91 860.9 1989.09 867.733 1982.67 880.033 2022.43 906 2062.2 931.967 2101.96 947 2119.91 916.933 2139.15 888.233 2143 833.567 2126.33 815.8 2108.37 798.033 2095.54 792.567 2072.46 783 2099.39 802.133 2116.07 796.667 2105.8 844.5 2095.54 890.967 2057.07 888.233 2018.59 856.8 1978.83 825.367 1954.46 788.467 1894.17 803.5 1833.89 819.9 1805.67 865 1742.83 882.767 1679.98 900.533 1674.85 878.667 1658.17 873.2 1641.5 867.733 1612 866.367 1612 866.367Z" fill="#BF637C" fill-rule="evenodd"/><path d="M1617.8 598.79C1587.15 619.16 1568 666.691 1583.32 702 1596.09 696.568 1597.37 665.333 1610.14 654.469 1622.91 644.963 1635.68 640.889 1651 643.605 1677.82 649.037 1703.35 670.765 1734 666.691 1707.18 661.259 1700.8 643.605 1682.92 623.234 1667.6 606.938 1645.89 592 1622.91 597.432" fill="#F4E7E9" fill-rule="evenodd"/><path d="M1617.42 619.405C1604.5 626.162 1589 649.135 1591.58 664 1599.33 650.487 1605.79 635.622 1621.29 630.216 1630.33 626.162 1647.12 631.568 1651 626.162 1645.83 618.054 1631.62 614 1622.58 618.054" fill="#FFFFFF" fill-rule="evenodd"/><path d="M1659 627.286C1660.29 633.714 1662.86 635 1668 632.428 1668 626 1664.14 626 1660.29 627.286" fill="#FFFFFF" fill-rule="evenodd"/><path d="M1826 901.622C1860.6 884.054 1918.26 855.676 1940.05 859.73 1960.55 863.784 1966.95 869.189 2005.4 893.513 2043.84 916.486 2072.03 930 2081 930 2057.93 915.135 2009.24 884.054 1990.02 866.487 1970.8 850.27 1949.02 830 1918.26 844.865 1884.94 862.432 1826 901.622 1826 901.622Z" fill="#B43F66" fill-rule="evenodd"/><path d="M1602.26 866.808C1593.28 853.154 1598.41 829.942 1592 812.192 1584.3 795.808 1563.77 783.519 1558.63 765.769 1554.78 750.75 1566.33 728.904 1563.77 713.885 1553.5 644.25 1570.18 606.019 1593.28 585.538 1625.36 555.5 1654.88 567.788 1684.39 595.096 1720.32 627.865 1748.56 660.635 1797.32 638.788 1840.95 618.308 1871.75 589.635 1920.51 588.269 2011.62 585.538 2002.64 700.231 2050.12 756.211 2070.65 780.788 2107.87 779.423 2128.4 804 2151.5 829.942 2147.65 873.635 2136.1 905.038 2107.87 981.5 2037.29 926.885 1994.94 895.481 1973.13 879.096 1951.31 864.077 1923.08 869.538 1898.7 876.365 1873.03 890.019 1851.22 900.942 1817.85 917.327 1783.2 940.538 1745.99 941.904 1708.77 943.269 1668.99 918.692 1642.04 891.385 1631.78 883.192 1611.25 879.096 1602.26 866.808Z" stroke="#000000" stroke-width="3.4375" stroke-linecap="round" stroke-linejoin="round" stroke-miterlimit="10" fill="none" fill-rule="evenodd"/></g></svg>