<svg width="593" height="381" xmlns="http://www.w3.org/2000/svg" xmlns:xlink="http://www.w3.org/1999/xlink" xml:space="preserve" overflow="hidden"><g transform="translate(-2302 -558)"><path d="M2349.76 859.308C2340.78 845.654 2345.91 822.442 2339.5 804.692 2331.8 788.308 2311.27 776.019 2306.13 758.269 2301 743.25 2313.83 721.404 2311.27 706.385 2301 636.75 2317.68 598.519 2339.5 578.038 2372.86 548 2401.09 560.288 2430.61 587.596 2466.54 620.365 2496.06 653.135 2544.82 631.288 2588.45 610.808 2619.25 582.135 2668.01 580.769 2759.12 578.038 2750.14 692.731 2797.62 748.711 2818.15 773.288 2854.09 771.923 2875.9 796.5 2899 822.442 2895.15 866.134 2883.6 897.538 2855.37 974 2784.79 919.384 2742.44 887.981 2720.63 871.596 2698.81 856.577 2670.58 862.038 2646.2 868.865 2620.53 882.519 2598.72 893.442 2565.35 909.827 2530.7 933.038 2493.49 934.404 2456.27 935.769 2416.49 911.192 2388.26 883.884 2379.28 875.692 2357.46 871.596 2349.76 859.308Z" fill="#FEEAD0" fill-rule="evenodd"/><path d="M2668.08 591.105C2621.91 592.474 2592.42 619.842 2551.38 639 2496.23 665 2466.74 629.421 2432.11 599.316 2403.9 573.316 2376.97 561 2346.19 589.737 2325.67 610.263 2309 645.842 2319.26 711.526 2321.82 725.211 2312.85 741.632 2316.69 756.684 2320.54 771.737 2337.21 782.684 2344.91 795 2347.47 786.79 2337.21 767.632 2335.93 760.79 2328.24 723.842 2346.19 684.158 2366.71 665 2401.33 640.368 2433.39 669.105 2469.3 674.579 2507.78 681.421 2548.81 670.474 2571.9 659.526 2612.93 640.368 2636.02 607.526 2682.18 606.158 2711.68 604.789 2742.46 652.684 2754 681.421 2737.33 633.526 2724.5 589.737 2668.08 591.105Z" fill="#FFF4E7" fill-rule="evenodd"/><path d="M2360 859.367C2375.39 866.2 2376.67 860.733 2397.2 878.5 2416.43 896.267 2466.46 940 2516.48 922.233 2567.78 904.467 2643.46 847.067 2689.63 853.9 2737.09 860.733 2730.67 873.033 2770.43 899 2810.2 924.967 2849.96 940 2867.91 909.933 2887.15 881.233 2891 826.567 2873.04 808.8 2856.37 791.033 2842.26 785.567 2820.46 776 2847.39 795.133 2864.06 789.667 2853.8 837.5 2843.54 883.967 2805.06 881.233 2766.59 849.8 2726.83 818.367 2702.46 781.466 2642.17 796.5 2581.89 812.9 2552.39 858 2490.83 875.767 2427.98 893.533 2422.85 871.667 2406.17 866.2 2389.5 860.733 2360 859.367 2360 859.367Z" fill="#FDD9A7" fill-rule="evenodd"/><path d="M2365.8 590.852C2335.15 611.407 2316 659.37 2330.05 695 2344.09 689.519 2345.37 658 2358.14 647.037 2370.91 637.445 2383.68 633.333 2399 636.074 2425.82 641.556 2451.35 663.482 2482 659.37 2455.18 653.889 2448.8 636.074 2430.92 615.519 2415.6 599.074 2393.89 584 2370.91 589.482" fill="#FFFAF4" fill-rule="evenodd"/><path d="M2365.96 611.514C2353.25 618.405 2338 641.838 2340.54 657 2348.17 643.216 2354.52 628.054 2369.77 622.541 2378.67 618.405 2395.19 623.919 2399 618.405 2393.92 610.135 2378.67 606 2371.04 610.135" fill="#FFFFFF" fill-rule="evenodd"/><path d="M2407 620.286C2407 626.714 2410.86 628 2416 625.429 2416 619 2412.14 619 2408.29 620.286" fill="#FFFFFF" fill-rule="evenodd"/><path d="M2575 894.338C2609.6 876.594 2667.26 847.932 2689.05 852.027 2709.55 856.122 2715.95 861.581 2754.4 886.149 2792.84 909.351 2821.03 923 2830 923 2805.65 907.986 2756.96 876.594 2737.74 858.851 2718.52 842.473 2698.02 822 2667.26 837.013 2632.66 854.757 2575 894.338 2575 894.338Z" fill="#ECB15D" fill-rule="evenodd"/><path d="M2349.76 859.308C2340.78 845.654 2345.91 822.442 2339.5 804.692 2331.8 788.308 2311.27 776.019 2306.13 758.269 2301 743.25 2313.83 721.404 2311.27 706.385 2301 636.75 2317.68 598.519 2339.5 578.038 2372.86 548 2401.09 560.288 2430.61 587.596 2466.54 620.365 2496.06 653.135 2544.82 631.288 2588.45 610.808 2619.25 582.135 2668.01 580.769 2759.12 578.038 2750.14 692.731 2797.62 748.711 2818.15 773.288 2854.09 771.923 2875.9 796.5 2899 822.442 2895.15 866.134 2883.6 897.538 2855.37 974 2784.79 919.384 2742.44 887.981 2720.63 871.596 2698.81 856.577 2670.58 862.038 2646.2 868.865 2620.53 882.519 2598.72 893.442 2565.35 909.827 2530.7 933.038 2493.49 934.404 2456.27 935.769 2416.49 911.192 2388.26 883.884 2379.28 875.692 2357.46 871.596 2349.76 859.308Z" stroke="#000000" stroke-width="4.0106" stroke-linecap="round" stroke-linejoin="round" stroke-miterlimit="10" fill="none" fill-rule="evenodd"/></g></svg>