<svg width="427" height="466" xmlns="http://www.w3.org/2000/svg" xmlns:xlink="http://www.w3.org/1999/xlink" xml:space="preserve" overflow="hidden"><g transform="translate(-923 -1121)"><path d="M1124.19 1161.93C1085.74 1151.02 1033.2 1144.2 1022.95 1152.38 1010.14 1163.3 1024.23 1172.85 1013.98 1183.76 1002.45 1196.04 975.539 1182.4 971.695 1191.95 964.006 1205.59 984.509 1219.24 976.82 1228.79 970.413 1236.98 948.629 1224.7 940.94 1246.53 934.533 1266.99 966.569 1276.55 965.287 1288.83 962.724 1313.38 923 1306.56 925.563 1337.94 928.126 1373.42 952.473 1395.25 975.539 1419.81 996.042 1441.64 1011.42 1458.01 1019.11 1486.67 1028.08 1522.14 1037.05 1557.62 1070.37 1573.99 1098.56 1587.64 1130.59 1589 1156.22 1572.63 1193.38 1550.8 1216.45 1482.57 1220.29 1467.57 1231.83 1430.73 1253.61 1367.96 1301.02 1348.86 1327.93 1340.67 1326.65 1318.84 1339.47 1297.01 1348.44 1282 1351 1251.99 1342.03 1234.25 1320.25 1201.5 1313.84 1156.48 1301.02 1155.11 1288.21 1152.38 1270.27 1172.85 1252.33 1166.03 1233.11 1160.57 1238.23 1127.82 1224.14 1123.73 1210.04 1121 1195.95 1134.64 1183.13 1148.29 1166.47 1166.03 1137 1166.03 1124.19 1161.93Z" fill="#ECD6E6" fill-rule="evenodd"/><path d="M1220.5 1136.73C1207.68 1134 1194.87 1146.29 1183.33 1158.57 1166.67 1174.95 1137.2 1177.68 1124.38 1173.59 1088.5 1164.03 1039.8 1158.57 1030.83 1165.4 1018.02 1176.32 1032.11 1184.51 1021.86 1195.43 1011.61 1206.35 985.979 1192.7 982.135 1202.25 975.727 1215.9 993.668 1228.19 985.979 1236.38 980.853 1244.57 959.067 1241.84 953.941 1252.76 948.815 1263.68 977.008 1281.43 975.727 1292.35 974.445 1315.56 936 1308.73 938.563 1338.76 941.126 1371.52 964.193 1392 985.979 1415.21 1005.2 1434.32 1019.3 1449.33 1025.71 1478 1034.68 1509.4 1042.37 1543.52 1074.4 1558.54 1078.25 1559.9 1083.37 1562.64 1087.22 1564 1034.68 1521.68 1046.21 1465.71 1034.68 1439.78 1023.14 1417.94 1002.64 1396.1 1003.92 1367.43 1005.2 1346.95 1016.74 1338.76 1024.42 1319.65 1030.83 1299.17 1026.99 1271.87 1032.11 1265.05 1039.8 1255.49 1052.62 1236.38 1062.87 1225.46 1071.84 1214.54 1065.43 1207.71 1076.97 1198.16 1085.94 1189.97 1119.26 1202.25 1155.14 1191.33 1193.58 1180.41 1215.37 1139.46 1241 1172.22 1229.47 1162.67 1232.03 1139.46 1220.5 1136.73Z" fill="#F8F1F6" fill-rule="evenodd"/><path d="M1101 1570.9C1126.68 1573.63 1172.92 1557.23 1192.18 1512.13 1210.16 1467.02 1207.59 1469.76 1223 1432.85 1238.41 1395.95 1253.82 1361.78 1278.22 1348.11 1302.62 1335.81 1310.33 1342.64 1320.6 1319.41 1330.87 1297.54 1338.58 1286.61 1342.43 1271.57 1345 1257.9 1337.29 1238.77 1327.02 1221 1336.01 1246.97 1329.59 1267.47 1303.91 1296.17 1278.22 1324.88 1239.69 1319.41 1216.58 1352.21 1193.46 1386.38 1193.46 1449.25 1172.92 1494.36 1152.37 1540.83 1117.69 1575 1101 1570.9Z" fill="#DAAFCC" fill-rule="evenodd"/><path d="M998.428 1221.48C1001 1231.04 999.714 1240.59 994.571 1248.78 990.714 1252.87 977.857 1258.33 976.571 1263.79 975.286 1271.98 983 1274.71 985.571 1281.53 988.143 1288.36 988.143 1299.28 986.857 1306.1 981.714 1322.48 966.286 1333.4 966.286 1351.14 965 1374.34 984.286 1392.08 999.714 1403 990.714 1378.43 986.857 1362.06 997.143 1337.49 1007.43 1315.65 1006.14 1300.64 1007.43 1276.08 1008.71 1251.51 1021.57 1248.78 1037 1232.4 1052.43 1214.66 1051.14 1199.65 1073 1188.73 1053.71 1186 1024.14 1202.38 1010 1214.66" fill="#FDFAFC" fill-rule="evenodd"/><path d="M987.739 1310C977.652 1330.45 960 1348.18 980.174 1370 975.13 1356.36 980.174 1353.64 983.957 1342.73 987.739 1333.18 985.217 1322.27 989 1314.09" fill="#FFFFFF" fill-rule="evenodd"/><path d="M988.333 1298.29C988.333 1300.86 987 1303.43 988.333 1306 996.333 1304.71 999 1297 989.667 1297" fill="#FFFFFF" fill-rule="evenodd"/><path d="M1025.56 1209.43C1015.33 1214.86 1000 1242 1019.17 1229.79 1023 1227.07 1029.39 1218.93 1033.22 1214.86 1037.06 1210.79 1046 1210.79 1042.17 1204" fill="#FFFFFF" fill-rule="evenodd"/><path d="M1049.5 1197.33C1049.5 1200 1048 1201.33 1048 1204 1052.5 1201.33 1052.5 1200 1054 1196 1052.5 1196 1051 1197.33 1051 1197.33" fill="#FFFFFF" fill-rule="evenodd"/><path d="M1189 1517C1203.09 1495.12 1224.86 1421.28 1242.79 1388.46 1262 1355.64 1272.25 1352.9 1294.02 1341.96 1317.07 1332.39 1329.88 1305.04 1335 1290 1324.75 1311.88 1311.95 1321.45 1286.33 1332.39 1260.72 1341.96 1242.79 1352.9 1229.98 1392.56 1217.18 1430.85 1189 1517 1189 1517Z" fill="#C792B5" fill-rule="evenodd"/><path d="M1124.19 1161.93C1085.74 1151.02 1033.2 1144.2 1022.95 1152.38 1010.14 1163.3 1024.23 1172.85 1013.98 1183.76 1002.45 1196.04 975.539 1182.4 971.695 1191.95 964.006 1205.59 984.509 1219.24 976.82 1228.79 970.413 1236.98 948.629 1224.7 940.94 1246.53 934.533 1266.99 966.569 1276.55 965.287 1288.83 962.724 1313.38 923 1306.56 925.563 1337.94 928.126 1373.42 952.473 1395.25 975.539 1419.81 996.042 1441.64 1011.42 1458.01 1019.11 1486.67 1028.08 1522.14 1037.05 1557.62 1070.37 1573.99 1098.56 1587.64 1130.59 1589 1156.22 1572.63 1193.38 1550.8 1216.45 1482.57 1220.29 1467.57 1231.83 1430.73 1253.61 1367.96 1301.02 1348.86 1327.93 1340.67 1326.65 1318.84 1339.47 1297.01 1348.44 1282 1351 1251.99 1342.03 1234.25 1320.25 1201.5 1313.84 1156.48 1301.02 1155.11 1288.21 1152.38 1270.27 1172.85 1252.33 1166.03 1233.11 1160.57 1238.23 1127.82 1224.14 1123.73 1210.04 1121 1195.95 1134.64 1183.13 1148.29 1166.47 1166.03 1137 1166.03 1124.19 1161.93Z" stroke="#000000" stroke-width="4.0106" stroke-linecap="round" stroke-linejoin="round" stroke-miterlimit="10" fill="none" fill-rule="evenodd"/></g></svg>