<svg width="428" height="466" xmlns="http://www.w3.org/2000/svg" xmlns:xlink="http://www.w3.org/1999/xlink" xml:space="preserve" overflow="hidden"><g transform="translate(-1632 -1114)"><path d="M1834.19 1154.93C1795.74 1144.02 1743.2 1137.2 1732.95 1145.38 1720.14 1156.3 1734.23 1165.85 1723.98 1176.76 1712.45 1189.04 1685.54 1175.4 1680.41 1184.95 1674.01 1198.59 1694.51 1212.24 1685.54 1221.79 1680.41 1229.98 1657.35 1217.7 1650.94 1239.53 1644.53 1259.99 1676.57 1269.55 1675.29 1281.83 1672.72 1306.38 1633 1299.56 1634.28 1330.94 1636.84 1366.42 1662.47 1388.25 1685.54 1412.81 1706.04 1434.64 1721.42 1451.01 1729.11 1479.67 1738.08 1515.14 1747.05 1550.62 1780.37 1566.99 1807.28 1580.64 1840.59 1582 1866.22 1565.63 1903.38 1543.8 1926.45 1475.57 1930.29 1460.57 1941.83 1423.73 1963.61 1360.96 2011.02 1341.86 2037.93 1333.67 2036.65 1311.84 2049.47 1290.01 2058.44 1275 2061 1244.99 2050.75 1227.25 2028.96 1194.5 2023.84 1149.48 2011.02 1148.11 1998.21 1145.38 1980.27 1165.85 1962.33 1159.03 1943.11 1153.57 1948.23 1120.82 1934.14 1116.73 1920.04 1114 1905.95 1127.64 1893.13 1141.29 1876.47 1159.03 1847 1159.03 1834.19 1154.93Z" fill="#8FAF9F" fill-rule="evenodd"/><path d="M1930.5 1130.73C1917.68 1128 1904.87 1140.29 1893.33 1152.57 1876.67 1168.95 1847.2 1171.68 1834.38 1167.59 1798.5 1158.03 1749.8 1152.57 1740.83 1159.4 1728.02 1170.32 1742.11 1178.51 1731.86 1189.43 1721.61 1200.35 1695.98 1186.7 1692.13 1196.25 1685.73 1209.9 1703.67 1222.19 1695.98 1230.38 1690.85 1238.57 1669.07 1235.84 1663.94 1246.76 1658.82 1257.68 1687.01 1275.43 1685.73 1286.35 1683.16 1309.56 1646 1302.73 1648.56 1332.76 1651.13 1365.52 1674.19 1386 1695.98 1409.21 1713.92 1428.32 1729.3 1443.33 1735.71 1472 1744.68 1503.4 1752.37 1537.52 1784.4 1552.54 1788.25 1553.9 1793.37 1556.63 1797.22 1558 1744.68 1515.68 1756.21 1459.71 1744.68 1433.78 1733.14 1411.94 1712.64 1390.1 1713.92 1361.43 1715.2 1340.95 1726.74 1332.76 1734.42 1313.65 1740.83 1293.17 1735.71 1265.87 1742.11 1259.05 1749.8 1249.49 1762.62 1230.38 1771.59 1219.46 1781.84 1208.54 1775.43 1201.71 1786.97 1192.16 1795.94 1183.97 1829.26 1196.25 1865.14 1185.33 1903.58 1174.41 1925.37 1133.46 1951 1166.22 1939.47 1156.67 1942.03 1133.46 1930.5 1130.73Z" fill="#BECDC3" fill-rule="evenodd"/><path d="M1812 1564.9C1837.58 1567.63 1883.62 1551.23 1902.81 1506.13 1920.71 1461.02 1918.15 1463.76 1933.5 1426.85 1948.85 1389.95 1964.19 1355.78 1988.49 1342.11 2012.79 1329.81 2020.47 1336.64 2030.7 1313.41 2040.93 1291.54 2048.61 1280.61 2052.44 1265.57 2055 1251.9 2047.33 1232.77 2037.09 1215 2046.05 1240.97 2039.65 1261.47 2014.07 1290.17 1988.49 1318.88 1950.13 1313.41 1927.11 1346.21 1904.08 1380.38 1904.08 1443.25 1883.62 1488.36 1863.16 1534.83 1828.63 1569 1812 1564.9Z" fill="#5E947F" fill-rule="evenodd"/><path d="M1709.12 1215.48C1711.67 1225.04 1710.39 1234.59 1705.3 1242.78 1701.48 1246.87 1688.74 1252.33 1687.46 1257.79 1684.92 1265.98 1693.83 1268.71 1696.38 1275.53 1698.93 1282.36 1698.93 1293.28 1696.38 1300.1 1692.56 1316.48 1677.27 1327.4 1676 1345.14 1676 1368.34 1693.83 1386.08 1710.39 1397 1701.48 1372.43 1697.65 1356.06 1707.85 1331.49 1718.04 1309.65 1716.76 1294.64 1718.04 1270.08 1719.31 1245.51 1732.05 1242.78 1746.06 1226.4 1762.62 1208.66 1761.35 1193.65 1783 1182.73 1763.89 1180 1734.6 1196.38 1720.58 1208.66" fill="#E5E9E5" fill-rule="evenodd"/><path d="M1698.74 1304C1688.65 1324.45 1671 1342.18 1691.17 1364 1686.13 1350.36 1691.17 1347.64 1694.96 1336.73 1698.74 1327.18 1696.22 1316.27 1700 1308.09" fill="#FFFFFF" fill-rule="evenodd"/><path d="M1699.22 1291.43C1699.22 1294.29 1698 1297.14 1699.22 1300 1706.56 1298.57 1709 1290 1700.44 1290" fill="#FFFFFF" fill-rule="evenodd"/><path d="M1736.11 1202.57C1725.67 1208.14 1710 1236 1729.58 1223.46 1733.5 1220.68 1740.03 1212.32 1743.94 1208.14 1747.86 1203.96 1757 1203.96 1753.08 1197" fill="#FFFFFF" fill-rule="evenodd"/><path d="M1760.25 1190.33C1760.25 1193 1759 1194.33 1759 1197 1762.75 1194.33 1762.75 1193 1764 1189 1762.75 1189 1761.5 1190.33 1761.5 1190.33" fill="#FFFFFF" fill-rule="evenodd"/><path d="M1900 1510C1914.09 1488.12 1935.86 1414.28 1953.79 1381.46 1973 1348.64 1981.96 1345.9 2005.02 1334.96 2028.07 1325.39 2040.88 1298.04 2046 1283 2035.75 1304.88 2022.95 1314.45 1997.33 1325.39 1971.72 1334.96 1953.79 1345.9 1940.98 1385.56 1928.18 1423.85 1900 1510 1900 1510Z" fill="#067E63" fill-rule="evenodd"/><path d="M1834.19 1154.93C1795.74 1144.02 1743.2 1137.2 1732.95 1145.38 1720.14 1156.3 1734.23 1165.85 1723.98 1176.76 1712.45 1189.04 1685.54 1175.4 1680.41 1184.95 1674.01 1198.59 1694.51 1212.24 1685.54 1221.79 1680.41 1229.98 1657.35 1217.7 1650.94 1239.53 1644.53 1259.99 1676.57 1269.55 1675.29 1281.83 1672.72 1306.38 1633 1299.56 1634.28 1330.94 1636.84 1366.42 1662.47 1388.25 1685.54 1412.81 1706.04 1434.64 1721.42 1451.01 1729.11 1479.67 1738.08 1515.14 1747.05 1550.62 1780.37 1566.99 1807.28 1580.64 1840.59 1582 1866.22 1565.63 1903.38 1543.8 1926.45 1475.57 1930.29 1460.57 1941.83 1423.73 1963.61 1360.96 2011.02 1341.86 2037.93 1333.67 2036.65 1311.84 2049.47 1290.01 2058.44 1275 2061 1244.99 2050.75 1227.25 2028.96 1194.5 2023.84 1149.48 2011.02 1148.11 1998.21 1145.38 1980.27 1165.85 1962.33 1159.03 1943.11 1153.57 1948.23 1120.82 1934.14 1116.73 1920.04 1114 1905.95 1127.64 1893.13 1141.29 1876.47 1159.03 1847 1159.03 1834.19 1154.93Z" stroke="#000000" stroke-width="4.0106" stroke-linecap="round" stroke-linejoin="round" stroke-miterlimit="10" fill="none" fill-rule="evenodd"/></g></svg>