<svg width="427" height="465" xmlns="http://www.w3.org/2000/svg" xmlns:xlink="http://www.w3.org/1999/xlink" xml:space="preserve" overflow="hidden"><g transform="translate(-2427 -1122)"><path d="M2628.19 1161.93C2589.74 1151.02 2537.2 1144.2 2526.95 1152.38 2514.14 1163.3 2528.23 1172.85 2517.98 1183.76 2506.45 1196.04 2479.54 1182.4 2474.41 1191.95 2468.01 1205.59 2488.51 1219.24 2479.54 1228.79 2474.41 1236.98 2451.35 1224.7 2444.94 1246.53 2438.53 1266.99 2470.57 1276.55 2469.29 1288.83 2466.72 1313.38 2427 1306.56 2428.28 1337.94 2430.84 1373.42 2455.19 1395.25 2479.54 1419.81 2500.04 1441.64 2515.42 1458.01 2521.83 1486.67 2532.08 1522.14 2541.05 1557.62 2574.36 1573.99 2601.28 1587.64 2634.59 1589 2660.22 1572.63 2697.38 1550.8 2720.45 1482.57 2724.29 1467.57 2735.83 1430.73 2757.61 1367.96 2805.02 1348.86 2831.93 1340.67 2830.65 1318.84 2843.47 1297.01 2852.44 1282 2855 1251.99 2844.75 1234.25 2822.96 1201.5 2816.56 1156.48 2803.74 1155.11 2790.93 1152.38 2774.27 1172.85 2756.33 1166.03 2737.11 1160.57 2742.23 1127.82 2726.86 1123.73 2714.04 1121 2699.95 1134.64 2687.13 1148.29 2670.47 1166.03 2641 1166.03 2628.19 1161.93Z" fill="#C5B3C1" fill-rule="evenodd"/><path d="M2724.5 1136.73C2711.68 1134 2697.58 1146.29 2686.05 1158.57 2670.67 1174.95 2641.2 1177.68 2628.38 1173.59 2592.5 1164.03 2543.8 1158.57 2533.55 1165.4 2522.02 1176.32 2536.11 1184.51 2525.86 1195.43 2515.61 1206.35 2488.7 1192.7 2486.13 1202.25 2479.73 1215.9 2497.67 1228.19 2489.98 1236.38 2484.85 1244.57 2463.07 1241.84 2457.94 1252.76 2452.82 1263.68 2481.01 1281.43 2479.73 1292.35 2477.16 1315.56 2440 1308.73 2442.56 1338.76 2445.13 1371.52 2468.19 1392 2489.98 1415.21 2507.92 1434.32 2522.02 1449.33 2529.71 1478 2538.68 1509.4 2546.37 1543.52 2578.4 1558.54 2582.25 1559.9 2587.37 1562.64 2591.22 1564 2538.68 1521.68 2550.21 1465.71 2537.4 1439.78 2527.14 1417.94 2506.64 1396.1 2507.92 1367.43 2509.2 1346.95 2520.74 1338.76 2527.14 1319.65 2534.83 1299.17 2529.71 1271.87 2536.11 1265.05 2543.8 1255.49 2556.62 1236.38 2565.59 1225.46 2575.84 1214.54 2569.43 1207.71 2580.97 1198.16 2589.94 1189.97 2623.26 1202.25 2659.14 1191.33 2696.3 1180.41 2719.37 1139.46 2745 1172.22 2733.47 1162.67 2734.75 1139.46 2724.5 1136.73Z" fill="#E7E0E6" fill-rule="evenodd"/><path d="M2604 1570.9C2629.65 1573.63 2677.12 1557.23 2696.36 1512.13 2714.31 1467.02 2711.75 1469.76 2727.14 1432.85 2742.53 1395.95 2757.93 1361.78 2782.3 1348.11 2806.67 1335.81 2814.37 1342.64 2824.63 1319.41 2834.89 1297.54 2842.59 1286.61 2845.15 1271.57 2849 1257.9 2841.3 1238.77 2831.04 1221 2840.02 1246.97 2833.61 1267.47 2807.95 1296.17 2782.3 1324.88 2742.53 1319.41 2720.73 1352.21 2697.64 1386.38 2697.64 1449.25 2677.12 1494.36 2656.59 1540.83 2621.96 1575 2604 1570.9Z" fill="#A18197" fill-rule="evenodd"/><path d="M2503.43 1221.48C2506 1231.04 2504.71 1240.59 2499.57 1248.78 2495.71 1252.87 2482.86 1258.33 2481.57 1263.79 2479 1271.98 2488 1274.71 2490.57 1281.53 2493.14 1288.36 2493.14 1299.28 2490.57 1306.1 2486.71 1322.48 2471.29 1333.4 2470 1351.14 2470 1374.34 2488 1392.08 2504.71 1403 2495.71 1378.43 2491.86 1362.06 2502.14 1337.49 2512.43 1315.65 2511.14 1300.64 2512.43 1276.08 2513.71 1251.51 2526.57 1248.78 2540.71 1232.4 2557.43 1214.66 2556.14 1199.65 2578 1188.73 2558.71 1186 2529.14 1202.38 2515 1214.66" fill="#F4EFF3" fill-rule="evenodd"/><path d="M2492.74 1310C2482.65 1330.45 2465 1348.18 2485.17 1370 2480.13 1356.36 2485.17 1353.64 2488.96 1342.73 2491.48 1333.18 2490.22 1322.27 2494 1314.09" fill="#FFFFFF" fill-rule="evenodd"/><path d="M2493.22 1298.29C2492 1300.86 2492 1303.43 2493.22 1306 2500.56 1304.71 2503 1297 2494.44 1297" fill="#FFFFFF" fill-rule="evenodd"/><path d="M2530.11 1209.43C2519.67 1214.86 2504 1242 2523.58 1229.79 2527.5 1227.07 2534.03 1218.93 2537.94 1214.86 2541.86 1210.79 2551 1210.79 2547.08 1204" fill="#FFFFFF" fill-rule="evenodd"/><path d="M2554.25 1197.33C2553 1200 2553 1201.33 2553 1204 2556.75 1201.33 2556.75 1200 2558 1196 2556.75 1196 2555.5 1197.33 2555.5 1197.33" fill="#FFFFFF" fill-rule="evenodd"/><path d="M2694 1517C2708.09 1495.12 2729.86 1421.28 2747.79 1388.46 2765.72 1355.64 2775.96 1352.9 2799.02 1341.96 2822.07 1332.39 2833.6 1305.04 2840 1290 2829.75 1311.88 2816.95 1321.45 2791.33 1332.39 2765.72 1341.96 2746.51 1352.9 2734.98 1392.56 2722.18 1430.85 2694 1517 2694 1517Z" fill="#8E6881" fill-rule="evenodd"/><path d="M2628.69 1162.43C2590.24 1151.52 2537.7 1144.7 2527.45 1152.88 2514.64 1163.8 2528.73 1173.35 2518.48 1184.26 2506.95 1196.54 2480.04 1182.9 2474.91 1192.45 2468.51 1206.09 2489.01 1219.74 2480.04 1229.29 2474.91 1237.48 2451.85 1225.2 2445.44 1247.03 2439.03 1267.49 2471.07 1277.05 2469.79 1289.33 2467.22 1313.88 2427.5 1307.06 2428.78 1338.44 2431.34 1373.92 2455.69 1395.75 2480.04 1420.31 2500.54 1442.14 2515.92 1458.51 2522.33 1487.17 2532.58 1522.64 2541.55 1558.12 2574.87 1574.49 2601.78 1588.14 2635.09 1589.5 2660.72 1573.13 2697.88 1551.3 2720.95 1483.07 2724.79 1468.07 2736.33 1431.23 2758.11 1368.46 2805.52 1349.36 2832.43 1341.17 2831.15 1319.34 2843.97 1297.51 2852.94 1282.5 2855.5 1252.49 2845.25 1234.75 2823.46 1202 2817.06 1156.98 2804.24 1155.61 2791.43 1152.88 2774.77 1173.35 2756.83 1166.53 2737.61 1161.07 2742.73 1128.32 2727.36 1124.23 2714.54 1121.5 2700.45 1135.14 2687.63 1148.79 2670.97 1166.53 2641.5 1166.53 2628.69 1162.43Z" stroke="#000000" stroke-width="3.4375" stroke-linecap="round" stroke-linejoin="round" stroke-miterlimit="10" fill="none" fill-rule="evenodd"/></g></svg>