<svg width="485" height="429" xmlns="http://www.w3.org/2000/svg" xmlns:xlink="http://www.w3.org/1999/xlink" xml:space="preserve" overflow="hidden"><g transform="translate(-865 -1724)"><path d="M918.309 1814.92C901.633 1820.39 908.047 1780.72 888.806 1788.93 870.848 1798.5 867 1862.81 867 1920.27 867 2014.67 883.675 2110.44 972.183 2144.64 1045.3 2172 1124.83 2088.54 1197.94 2084.44 1276.19 2080.34 1321.08 2109.07 1341.61 2018.77 1351.87 1966.78 1357 1788.93 1274.91 1806.71 1245.4 1813.55 1233.86 1862.81 1201.79 1868.28 1160.74 1877.86 1147.92 1850.49 1128.68 1816.29 1113.28 1788.93 1091.48 1700 1042.73 1734.2 993.99 1769.77 1055.56 1840.92 1009.38 1853.23 964.487 1866.91 985.01 1735.57 949.094 1735.57 910.613 1734.2 933.702 1809.45 918.309 1814.92Z" fill="#7C3D65" fill-rule="evenodd"/><path d="M898.748 1994.08C898.748 1895.8 999.816 1939.48 1043.31 1927.2 1085.53 1916.28 1050.99 1867.14 1081.69 1857.59 1113.68 1849.4 1113.68 1924.47 1209.63 1903.99 1240.33 1897.17 1294.06 1764.77 1335 1880.79 1326.04 1842.57 1314.53 1808.45 1281.27 1815.27 1253.12 1822.1 1235.21 1872.6 1204.51 1879.42 1167.41 1886.25 1137.98 1865.78 1121.35 1833.02 1112.4 1816.64 1080.41 1717 1048.43 1736.11 1001.09 1768.87 1058.66 1852.13 1015.17 1864.41 972.95 1875.33 942.246 1785.25 948.642 1742.93 929.452 1742.93 937.128 1830.29 921.776 1835.75 906.424 1841.21 896.19 1830.29 893.631 1804.35 877 1812.54 878.279 1882.15 878.279 1936.75 878.279 2002.27 891.073 2062.32 928.173 2106 916.659 2069.15 898.748 2036.39 898.748 1994.08Z" fill="#A77E9A" fill-rule="evenodd"/><path d="M956 2119.61C984.181 2140.03 1014.92 2141.39 1058.47 2120.97 1102.03 2100.56 1154.55 2070.61 1199.38 2067.89 1242.93 2066.53 1285.2 2073.33 1304.41 2062.44 1323.63 2052.92 1339 1997.11 1335.16 1910 1336.44 1965.81 1315.94 2010.72 1280.08 2022.97 1242.93 2036.58 1192.97 2002.56 1149.42 2022.97 1105.87 2043.39 988.023 2155 956 2119.61Z" fill="#681E4E" fill-rule="evenodd"/><path d="M1058 2122C1101.65 2101.41 1154.28 2071.22 1199.21 2068.47 1242.86 2067.1 1285.22 2073.96 1304.47 2062.98 1317.31 2056.12 1328.87 2027.29 1334 1982 1330.15 2008.08 1317.31 2052 1291.64 2056.12 1267.25 2061.61 1218.47 2043.76 1183.8 2053.37 1147.86 2061.61 1058 2122 1058 2122Z" fill="#520139" fill-rule="evenodd"/><path d="M1039.96 1763.72C1029.73 1775.97 1045.08 1805.9 1043.8 1822.23 1042.52 1837.2 1042.52 1854.89 1033.57 1868.49 1018.21 1892.98 990.056 1878.02 972.14 1863.05 965.741 1857.61 955.503 1833.11 945.266 1837.2 942.706 1837.2 940.147 1848.08 936.308 1849.44 931.189 1853.52 920.951 1853.52 914.552 1852.16 899.196 1848.08 895.357 1841.28 890.238 1861.69 886.399 1878.02 880 1912.03 890.238 1927 901.755 1899.79 900.476 1869.85 936.308 1882.1 949.105 1886.18 963.182 1888.9 975.979 1894.34 986.217 1898.43 993.895 1905.23 1006.69 1903.87 1032.29 1902.51 1056.6 1871.21 1059.16 1845.36 1063 1818.15 1032.29 1786.85 1045.08 1761" fill="#C8B1C2" fill-rule="evenodd"/><path d="M1046.75 1830C1052 1846.5 1040.19 1872.63 1031 1885 1052 1871.25 1050.69 1854.75 1048.06 1832.75" fill="#FFFFFF" fill-rule="evenodd"/><path d="M1019 1887.43C1019 1891.71 1019 1894.57 1021.5 1896 1027.75 1894.57 1029 1888.86 1025.25 1886" fill="#FFFFFF" fill-rule="evenodd"/><path d="M901.571 1856.43C895.143 1864.57 890 1880.86 895.143 1889 899 1878.14 896.429 1865.93 911.857 1864.57 920.857 1863.21 944 1874.07 942.714 1853.71 936.286 1859.14 935 1861.86 927.286 1861.86 919.571 1861.86 910.571 1851 905.429 1860.5" fill="#FFFFFF" fill-rule="evenodd"/><path d="M953.25 1851C952 1853.67 952 1856.33 952 1857.67 952 1859 953.25 1859 954.5 1859 957 1855 955.75 1856.33 955.75 1852.33 953.25 1851 953.25 1853.67 953.25 1853.67" fill="#FFFFFF" fill-rule="evenodd"/><path d="M918.309 1814.92C901.633 1820.39 908.047 1780.72 888.806 1788.93 870.848 1798.5 867 1862.81 867 1920.27 867 2014.67 883.675 2110.44 972.183 2144.64 1045.3 2172 1124.83 2088.54 1197.94 2084.44 1276.19 2080.34 1321.08 2109.07 1341.61 2018.77 1351.87 1966.78 1357 1788.93 1274.91 1806.71 1245.4 1813.55 1233.86 1862.81 1201.79 1868.28 1160.74 1877.86 1147.92 1850.49 1128.68 1816.29 1113.28 1788.93 1091.48 1700 1042.73 1734.2 993.99 1769.77 1055.56 1840.92 1009.38 1853.23 964.487 1866.91 985.01 1735.57 949.094 1735.57 910.613 1734.2 933.702 1809.45 918.309 1814.92Z" stroke="#000000" stroke-width="4.0106" stroke-linecap="round" stroke-linejoin="round" stroke-miterlimit="10" fill="none" fill-rule="evenodd"/></g></svg>