<svg width="483" height="429" xmlns="http://www.w3.org/2000/svg" xmlns:xlink="http://www.w3.org/1999/xlink" xml:space="preserve" overflow="hidden"><g transform="translate(-1601 -1724)"><path d="M2010.07 1806.71C1980.63 1813.55 1969.11 1862.81 1935.83 1868.28 1896.14 1877.86 1883.34 1850.49 1864.14 1816.29 1848.78 1788.93 1827.02 1700 1777.09 1734.2 1728.45 1769.77 1789.9 1840.92 1745.09 1853.23 1700.29 1866.91 1719.49 1735.57 1684.93 1735.57 1646.52 1734.2 1669.57 1809.45 1654.2 1814.92 1637.56 1820.39 1643.96 1780.72 1624.76 1788.93 1606.84 1798.5 1603 1862.81 1603 1920.27 1603 2014.67 1619.64 2110.44 1707.97 2144.64 1780.93 2172 1860.3 2088.54 1933.27 2084.44 2011.35 2080.34 2056.16 2109.07 2075.36 2018.77 2086.88 1966.78 2092 1788.93 2010.07 1806.71Z" fill="#F1CD81" fill-rule="evenodd"/><path d="M1634.06 1994.08C1634.06 1895.8 1735.29 1939.48 1778.86 1927.2 1821.14 1916.28 1786.54 1867.14 1817.3 1857.59 1849.33 1849.4 1849.33 1924.47 1945.43 1903.99 1976.18 1897.17 2030 1764.77 2071 1880.79 2062.03 1842.57 2050.5 1808.45 2017.18 1815.27 1988.99 1822.1 1971.06 1872.6 1940.3 1879.42 1903.14 1886.25 1873.67 1865.78 1855.74 1833.02 1848.05 1816.64 1816.01 1717 1783.98 1736.11 1736.57 1768.87 1794.23 1852.13 1750.67 1864.41 1707.1 1875.33 1677.63 1785.25 1684.04 1742.93 1664.82 1742.93 1672.5 1830.29 1657.13 1835.75 1641.75 1841.21 1631.5 1830.29 1628.94 1804.35 1611 1812.54 1613.56 1882.15 1613.56 1936.75 1613.56 2002.27 1626.38 2062.32 1663.53 2106 1652 2069.15 1634.06 2036.39 1634.06 1994.08Z" fill="#F9E7C3" fill-rule="evenodd"/><path d="M1692 2119.61C1720.18 2140.03 1750.92 2141.39 1794.47 2120.97 1838.03 2100.56 1890.54 2070.61 1935.38 2067.89 1978.93 2066.53 2021.2 2073.33 2040.41 2062.44 2059.63 2052.92 2075 1997.11 2071.16 1910 2072.44 1965.81 2051.94 2010.72 2014.8 2022.97 1978.93 2036.58 1928.97 2002.56 1885.42 2022.97 1841.87 2043.39 1724.02 2155 1692 2119.61Z" fill="#E9B73F" fill-rule="evenodd"/><path d="M1794 2122C1837.49 2101.41 1889.93 2071.22 1934.7 2068.47 1978.19 2067.1 2020.4 2073.96 2039.58 2062.98 2052.37 2056.12 2063.88 2027.29 2069 1982 2065.16 2008.08 2052.37 2052 2026.79 2056.12 2002.49 2061.61 1953.88 2043.76 1919.35 2053.37 1883.53 2061.61 1794 2122 1794 2122Z" fill="#D49D00" fill-rule="evenodd"/><path d="M1775.96 1763.72C1765.73 1775.97 1781.08 1805.9 1779.8 1822.23 1778.52 1837.2 1778.52 1854.89 1769.57 1868.49 1754.21 1892.98 1726.06 1878.02 1708.14 1863.05 1701.74 1857.61 1691.5 1833.11 1681.27 1837.2 1678.71 1837.2 1676.15 1848.08 1672.31 1849.44 1667.19 1853.52 1656.95 1853.52 1650.55 1852.16 1635.2 1848.08 1631.36 1841.28 1626.24 1861.69 1621.12 1878.02 1616 1912.03 1626.24 1927 1637.76 1899.79 1636.48 1869.85 1672.31 1882.1 1685.1 1886.18 1699.18 1888.9 1711.98 1894.34 1722.22 1898.43 1729.9 1905.23 1742.69 1903.87 1768.29 1902.51 1792.6 1871.21 1795.16 1845.36 1799 1818.15 1768.29 1786.85 1781.08 1761" fill="#FEF9F1" fill-rule="evenodd"/><path d="M1782.75 1830C1788 1846.5 1776.19 1872.63 1767 1885 1788 1871.25 1786.69 1854.75 1784.06 1832.75" fill="#FFFFFF" fill-rule="evenodd"/><path d="M1754 1887.43C1754 1891.71 1754 1894.57 1756.75 1896 1763.63 1894.57 1765 1888.86 1760.88 1886" fill="#FFFFFF" fill-rule="evenodd"/><path d="M1637.15 1856.43C1632.07 1864.57 1627 1880.86 1632.07 1889 1635.88 1878.14 1633.34 1865.93 1648.56 1864.57 1657.44 1863.21 1679 1874.07 1679 1853.71 1672.66 1859.14 1671.39 1861.86 1663.78 1861.86 1656.17 1861.86 1647.29 1851 1642.22 1860.5" fill="#FFFFFF" fill-rule="evenodd"/><path d="M1688.25 1851C1688.25 1853.67 1687 1856.33 1688.25 1857.67 1688.25 1859 1689.5 1859 1689.5 1859 1692 1855 1692 1856.33 1690.75 1852.33 1689.5 1851 1689.5 1853.67 1688.25 1853.67" fill="#FFFFFF" fill-rule="evenodd"/><path d="M1654.2 1814.92C1637.56 1820.39 1643.96 1780.72 1624.76 1788.93 1606.84 1798.5 1603 1862.81 1603 1920.27 1603 2014.67 1619.64 2110.44 1707.97 2144.64 1780.93 2172 1860.3 2088.54 1933.27 2084.44 2011.35 2080.34 2056.16 2109.07 2075.36 2018.77 2086.88 1966.78 2092 1788.93 2010.07 1806.71 1980.63 1813.55 1969.11 1862.81 1935.83 1868.28 1896.14 1877.86 1883.34 1850.49 1864.14 1816.29 1848.78 1788.93 1827.02 1700 1777.09 1734.2 1728.45 1769.77 1789.9 1840.92 1745.09 1853.23 1700.29 1866.91 1719.49 1735.57 1684.93 1735.57 1646.52 1734.2 1669.57 1809.45 1654.2 1814.92Z" stroke="#000000" stroke-width="4.0106" stroke-linecap="round" stroke-linejoin="round" stroke-miterlimit="10" fill="none" fill-rule="evenodd"/></g></svg>