<svg width="483" height="428" xmlns="http://www.w3.org/2000/svg" xmlns:xlink="http://www.w3.org/1999/xlink" xml:space="preserve" overflow="hidden"><g transform="translate(-2373 -1717)"><path d="M2426.2 1807.68C2409.56 1813.14 2415.96 1773.55 2396.76 1781.74 2378.84 1791.3 2375 1855.46 2375 1912.8 2375 2007 2391.64 2102.57 2479.97 2136.7 2552.93 2164 2632.3 2080.72 2705.27 2076.63 2783.35 2072.53 2828.16 2101.2 2847.36 2011.1 2858.88 1959.22 2864 1781.74 2782.07 1799.49 2752.63 1806.31 2739.83 1855.46 2707.83 1860.92 2668.14 1870.48 2655.34 1843.17 2636.14 1809.04 2620.78 1781.74 2597.74 1693 2549.09 1727.13 2500.45 1762.63 2561.9 1833.62 2517.09 1845.9 2472.29 1859.56 2491.49 1728.5 2456.93 1728.5 2418.52 1727.13 2441.57 1802.22 2426.2 1807.68Z" fill="#B0D0EB" fill-rule="evenodd"/><path d="M2405.06 1986.79C2405.06 1888.26 2506.29 1932.05 2549.85 1919.74 2592.14 1908.79 2556.26 1859.53 2588.3 1849.95 2620.33 1841.74 2620.33 1917 2716.43 1896.47 2747.18 1889.63 2801 1756.89 2842 1873.21 2833.03 1834.89 2821.5 1800.68 2786.9 1807.53 2759.99 1814.37 2742.06 1865 2711.3 1871.84 2674.14 1878.68 2644.67 1858.16 2626.74 1825.32 2619.05 1808.89 2587.01 1709 2553.7 1728.16 2507.57 1761 2565.23 1844.47 2521.67 1856.79 2478.1 1867.74 2448.63 1777.42 2455.04 1735 2435.82 1735 2443.5 1822.58 2428.13 1828.05 2412.75 1833.53 2402.5 1822.58 2399.94 1796.58 2382 1804.79 2384.56 1874.58 2384.56 1929.32 2384.56 1995 2397.38 2055.21 2434.53 2099 2421.72 2062.05 2405.06 2029.21 2405.06 1986.79Z" fill="#E0EBF7" fill-rule="evenodd"/><path d="M2463 2112.47C2491.18 2132.97 2520.64 2134.33 2565.47 2113.83 2609.03 2093.33 2661.55 2063.27 2705.1 2060.53 2749.93 2059.17 2792.2 2066 2811.41 2055.07 2830.63 2045.5 2846 1989.47 2842.16 1902 2843.44 1958.03 2822.94 2003.13 2785.8 2015.43 2749.93 2029.1 2699.97 1994.93 2656.42 2015.43 2612.87 2035.93 2495.02 2148 2463 2112.47Z" fill="#5DACDB" fill-rule="evenodd"/><path d="M2566 2113C2609.49 2092.56 2661.93 2062.58 2705.42 2059.85 2750.19 2058.49 2792.4 2065.3 2811.58 2054.4 2824.37 2047.59 2835.88 2018.97 2841 1974 2837.16 1999.89 2824.37 2043.5 2798.79 2047.59 2774.49 2053.04 2725.88 2035.32 2691.35 2044.86 2655.53 2053.04 2566 2113 2566 2113Z" fill="#008ECE" fill-rule="evenodd"/><path d="M2547.84 1755.72C2537.55 1767.97 2552.99 1797.9 2551.7 1814.23 2550.41 1829.2 2549.13 1846.89 2541.41 1860.49 2525.96 1884.98 2497.66 1870.02 2479.64 1855.05 2473.21 1849.61 2462.92 1825.11 2452.62 1829.2 2450.05 1829.2 2447.48 1840.08 2443.62 1841.44 2437.18 1845.52 2428.17 1845.52 2421.74 1844.16 2406.3 1840.08 2402.44 1833.28 2397.29 1853.69 2392.15 1870.02 2387 1904.03 2397.29 1919 2408.87 1891.79 2407.59 1861.85 2443.62 1874.1 2456.48 1878.18 2470.64 1880.9 2483.5 1886.34 2493.8 1890.43 2501.52 1897.23 2514.38 1895.87 2540.12 1894.51 2564.57 1863.21 2567.14 1837.36 2571 1810.15 2540.12 1778.85 2552.99 1753" fill="#F0F6FB" fill-rule="evenodd"/><path d="M2554 1822C2559 1838.5 2547.75 1864.62 2539 1877 2559 1863.25 2557.75 1846.75 2555.25 1824.75" fill="#FFFFFF" fill-rule="evenodd"/><path d="M2526 1880.29C2526 1884.14 2526 1886.71 2528.5 1888 2534.75 1886.71 2536 1881.57 2532.25 1879" fill="#FFFFFF" fill-rule="evenodd"/><path d="M2408.15 1848.43C2403.07 1856.57 2398 1872.86 2403.07 1881 2406.88 1870.14 2404.34 1857.93 2419.56 1856.57 2428.44 1855.21 2450 1866.07 2450 1845.71 2443.66 1851.14 2442.39 1853.86 2434.78 1853.86 2427.17 1853.86 2418.29 1843 2413.22 1852.5" fill="#FFFFFF" fill-rule="evenodd"/><path d="M2459.25 1843C2459.25 1845.67 2458 1848.33 2459.25 1849.67 2459.25 1851 2460.5 1851 2460.5 1851 2463 1847 2463 1848.33 2461.75 1844.33 2460.5 1843 2460.5 1845.67 2459.25 1845.67" fill="#FFFFFF" fill-rule="evenodd"/><path d="M2426.2 1807.68C2409.56 1813.14 2415.96 1773.55 2396.76 1781.74 2378.84 1791.3 2375 1855.46 2375 1912.8 2375 2007 2391.64 2102.57 2479.97 2136.7 2552.93 2164 2632.3 2080.72 2705.27 2076.63 2783.35 2072.53 2828.16 2101.2 2847.36 2011.1 2858.88 1959.22 2864 1781.74 2782.07 1799.49 2752.63 1806.31 2739.83 1855.46 2707.83 1860.92 2668.14 1870.48 2655.34 1843.17 2636.14 1809.04 2620.78 1781.74 2597.74 1693 2549.09 1727.13 2500.45 1762.63 2561.9 1833.62 2517.09 1845.9 2472.29 1859.56 2491.49 1728.5 2456.93 1728.5 2418.52 1727.13 2441.57 1802.22 2426.2 1807.68Z" stroke="#000000" stroke-width="4.0106" stroke-linecap="round" stroke-linejoin="round" stroke-miterlimit="10" fill="none" fill-rule="evenodd"/></g></svg>