<svg width="383" height="707" xmlns="http://www.w3.org/2000/svg" xmlns:xlink="http://www.w3.org/1999/xlink" xml:space="preserve" overflow="hidden"><g transform="translate(-2678 -553)"><path d="M2795.55 599.658C2826.64 554.306 2946.09 495 2991.91 690.361 3000.09 739.201 2991.91 784.553 2996.82 824.671 3003.36 871.767 3019.73 903.164 3034.45 948.516 3052.45 1007.82 3077 1122.95 3037.73 1175.27 3005 1217.14 2926.45 1255.51 2875.73 1257.26 2805.36 1259 2730.09 1199.69 2697.36 1142.13 2663 1077.59 2684.27 972.936 2712.09 908.397 2735 857.813 2777.55 795.018 2782.45 739.201 2784.09 699.082 2762.82 645.009 2795.55 599.658Z" fill="#F19BAA" fill-rule="evenodd"/><path d="M2880 572C2835.99 578.974 2796.87 608.614 2796.87 657.432 2796.87 706.25 2818.06 732.403 2783.83 810.86 2749.61 891.062 2673 992.185 2699.08 1109 2703.97 1002.65 2739.83 960.802 2772.43 899.779 2805.02 838.756 2837.62 775.99 2842.51 713.224 2847.4 650.458 2829.47 598.153 2880 572Z" fill="#F7C7CD" fill-rule="evenodd"/><path d="M2976.91 672C2988.36 703.364 2986.72 769.576 2985.09 800.939 2981.82 830.561 2994.9 870.636 3007.97 912.455 3021.05 952.53 3075 1100.64 3030.86 1165.11 2988.36 1229.58 2908.25 1243.52 2887 1247 2914.79 1236.55 2998.17 1199.95 3014.51 1132 3032.5 1062.3 2976.91 954.273 2968.74 877.606 2962.2 802.682 2988.36 724.273 2976.91 672Z" fill="#ED738F" fill-rule="evenodd"/><path d="M2846 581C2807.19 591.421 2792.64 636.579 2799.11 681.737 2805.57 726.895 2808.81 782.474 2770 845 2797.49 810.263 2816.89 758.158 2815.28 711.263 2813.66 664.368 2802.34 615.737 2846 581Z" fill="#FFFFFF" fill-rule="evenodd"/><path d="M2732 921C2717.27 948.826 2699.27 987.087 2696 1041" fill="#FFFFFF" fill-rule="evenodd"/><path d="M2796.05 600.157C2827.14 554.806 2946.59 495.5 2992.41 690.861 3000.59 739.701 2992.41 785.052 2997.32 825.171 3003.86 872.267 3020.23 903.664 3034.95 949.016 3052.95 1008.32 3077.5 1123.45 3038.23 1175.77 3005.5 1217.64 2926.95 1256.01 2876.23 1257.76 2805.86 1259.5 2730.59 1200.19 2697.86 1142.63 2663.5 1078.09 2684.77 973.436 2712.59 908.897 2735.5 858.313 2778.05 795.518 2782.95 739.701 2784.59 699.582 2763.32 645.509 2796.05 600.157Z" stroke="#333333" stroke-width="2.86476" stroke-linecap="round" stroke-linejoin="round" stroke-miterlimit="10" fill="none" fill-rule="evenodd"/></g></svg>