<svg width="331" height="655" xmlns="http://www.w3.org/2000/svg" xmlns:xlink="http://www.w3.org/1999/xlink" xml:space="preserve" overflow="hidden"><g transform="translate(-3348 -570)"><path d="M3505.59 571.745C3435.21 570 3405.75 585.703 3368.1 646.771 3319 728.776 3394.29 945.13 3374.65 993.984 3359.92 1028.88 3348.46 1053.31 3350.1 1091.69 3350.1 1135.31 3353.37 1170.21 3422.12 1205.1 3490.86 1240 3618.53 1222.55 3656.18 1152.76 3684 1100.42 3677.45 1053.31 3667.63 1000.96 3647.99 903.255 3674.18 737.5 3662.72 690.391 3652.9 648.516 3600.52 575.234 3505.59 571.745Z" fill="#AC5B4C" fill-rule="evenodd"/><path d="M3469 584C3436.22 584 3380.5 646.866 3372.31 695.761 3362.47 744.657 3380.5 828.478 3390.33 889.597 3400.17 950.717 3403.44 983.896 3388.69 1020.57 3372.31 1057.24 3351 1120.1 3390.33 1169 3372.31 1132.33 3390.33 1079.94 3413.28 1024.06 3436.22 969.925 3437.86 838.955 3426.39 784.821 3411.64 707.985 3408.36 629.403 3469 584Z" fill="#C28472" fill-rule="evenodd"/><path d="M3607.46 630C3623.8 645.69 3656.49 687.529 3654.85 731.111 3653.22 772.949 3643.41 917.642 3651.59 996.09 3661.39 1072.79 3681 1182.62 3547 1214 3573.15 1203.54 3633.61 1161.7 3630.34 1098.94 3627.07 1037.93 3602.56 954.251 3609.1 868.83 3615.63 781.666 3661.39 738.084 3607.46 630Z" fill="#9B3D32" fill-rule="evenodd"/><path d="M3456 591C3418.19 603.214 3359 648.582 3370.51 762 3370.51 730.592 3390.24 629.388 3456 591Z" fill="#FFFFFF" fill-rule="evenodd"/><path d="M3391 1015C3378.29 1041.19 3364 1100.57 3370.35 1132" fill="#FFFFFF" fill-rule="evenodd"/><path d="M3506.09 572.245C3435.71 570.5 3406.25 586.203 3368.6 647.271 3319.5 729.276 3394.79 945.63 3375.15 994.484 3360.42 1029.38 3348.96 1053.81 3350.6 1092.19 3350.6 1135.81 3353.87 1170.71 3422.62 1205.6 3491.36 1240.5 3619.03 1223.05 3656.68 1153.26 3684.5 1100.92 3677.95 1053.81 3668.13 1001.46 3648.49 903.755 3674.68 738 3663.22 690.891 3653.4 649.016 3601.02 575.734 3506.09 572.245Z" stroke="#333333" stroke-width="2.86476" stroke-linecap="round" stroke-linejoin="round" stroke-miterlimit="10" fill="none" fill-rule="evenodd"/></g></svg>