<svg width="330" height="590" xmlns="http://www.w3.org/2000/svg" xmlns:xlink="http://www.w3.org/1999/xlink" xml:space="preserve" overflow="hidden"><g transform="translate(-788 -1442)"><path d="M941.527 1444.97C890.659 1451.95 829.946 1499.02 818.459 1546.09 808.614 1584.45 816.818 1626.29 815.177 1664.65 811.896 1704.75 798.768 1744.85 793.846 1784.94 785.641 1840.73 784 1981.95 852.918 2011.59 911.991 2036 998.959 2032.51 1059.67 2015.08 1145 1992.41 1108.9 1842.48 1099.05 1786.69 1087.57 1727.41 1079.36 1685.57 1095.77 1628.03 1112.18 1568.76 1097.41 1516.45 1041.62 1476.36 1018.65 1458.92 990.755 1438 941.527 1444.97Z" fill="#FC583A" fill-rule="evenodd"/><path d="M962 1459.22C929.185 1454 868.476 1494.04 842.223 1535.83 815.971 1577.61 850.427 1601.98 829.097 1709.92 806.126 1817.87 793 1924.07 843.864 1985 822.534 1937.99 822.534 1864.87 855.35 1763.9 888.165 1662.92 884.884 1622.88 884.884 1586.31 884.884 1551.5 911.136 1476.63 962 1459.22Z" fill="#FB9676" fill-rule="evenodd"/><path d="M1031.59 1480C1031.59 1480 1097.02 1542.71 1092.11 1581.04 1087.2 1621.1 1069.21 1645.49 1072.48 1711.69 1075.75 1777.89 1133 1981.71 1054.49 2004.35 974.348 2027 940 2018.29 940 2018.29 985.797 2014.81 1021.78 2006.1 1041.41 1973 1061.03 1938.16 1059.4 1837.12 1043.04 1772.66 1026.69 1709.95 1029.96 1685.56 1044.68 1636.78 1079.03 1540.97 1031.59 1480 1031.59 1480Z" fill="#FE1A0E" fill-rule="evenodd"/><path d="M933 1462C897.25 1474.2 832.25 1510.81 830.625 1568.35 829 1627.62 838.75 1636.34 832.25 1659 840.375 1638.08 843.625 1592.75 846.875 1561.37 850.125 1529.99 882.625 1488.15 933 1462Z" fill="#FFFFFF" fill-rule="evenodd"/><path d="M812.455 1811C801 1838.73 810.818 1916.73 819 1941" fill="#FFFFFF" fill-rule="evenodd"/><path d="M942.027 1445.47C891.159 1452.45 830.445 1499.52 818.959 1546.59 809.114 1584.95 817.318 1626.79 815.677 1665.15 812.395 1705.25 799.268 1745.35 794.345 1785.44 786.141 1841.23 784.5 1982.45 853.418 2012.09 912.491 2036.5 999.459 2033.01 1060.17 2015.58 1145.5 1992.91 1109.4 1842.98 1099.55 1787.19 1088.07 1727.91 1079.86 1686.07 1096.27 1628.54 1112.68 1569.26 1097.91 1516.95 1042.12 1476.86 1019.15 1459.42 991.254 1438.5 942.027 1445.47Z" stroke="#333333" stroke-width="2.86476" stroke-linecap="round" stroke-linejoin="round" stroke-miterlimit="10" fill="none" fill-rule="evenodd"/></g></svg>