<svg width="318" height="679" xmlns="http://www.w3.org/2000/svg" xmlns:xlink="http://www.w3.org/1999/xlink" xml:space="preserve" overflow="hidden"><g transform="translate(-2020 -1405)"><path d="M2206.14 1408.73C2165.18 1400 2129.14 1417.46 2106.21 1450.62 2037.4 1539.65 2088.19 1621.7 2088.19 1674.06 2086.55 1719.45 2065.25 1787.53 2047.23 1827.68 2014.47 1904.49 2003 1990.02 2073.44 2052.87 2127.5 2100 2211.05 2082.54 2266.75 2044.14 2406 1949.88 2286.41 1855.61 2302.79 1658.35 2309.35 1595.51 2279.86 1422.69 2206.14 1408.73Z" fill="#EC5069" fill-rule="evenodd"/><path d="M2193 1423.23C2148.95 1418 2095.11 1459.86 2095.11 1548.8 2095.11 1636.01 2116.32 1636.01 2098.37 1730.18 2082.05 1822.62 2007 1927.26 2055.95 2004 2046.16 1963.89 2059.21 1897.61 2108.16 1789.48 2155.47 1683.1 2134.26 1611.59 2127.74 1559.27 2121.21 1508.69 2148.95 1426.72 2193 1423.23Z" fill="#F18792" fill-rule="evenodd"/><path d="M2258.92 1472C2275.24 1496.39 2296.46 1590.45 2294.83 1646.19 2291.56 1701.94 2286.67 1757.68 2306.25 1827.35 2325.84 1897.03 2334 1951.03 2302.99 1996.32 2271.98 2041.61 2192 2066 2192 2066 2219.75 2055.55 2281.77 2017.23 2293.2 1973.68 2304.62 1928.39 2265.45 1829.1 2265.45 1743.74 2265.45 1656.65 2299.72 1586.97 2258.92 1472Z" fill="#E6003B" fill-rule="evenodd"/><path d="M2149 1434C2106.58 1458.33 2087 1515.68 2095.16 1578.24 2103.32 1640.8 2116.37 1680.77 2100.05 1719 2111.47 1698.15 2111.47 1625.16 2108.21 1574.76 2104.95 1524.37 2118 1453.12 2149 1434Z" fill="#FFFFFF" fill-rule="evenodd"/><path d="M2059 1850C2049.31 1871 2038 1935.75 2044.46 1969" fill="#FFFFFF" fill-rule="evenodd"/><path d="M2206.64 1409.23C2165.68 1400.5 2129.64 1417.96 2106.71 1451.12 2037.9 1540.15 2088.69 1622.2 2088.69 1674.56 2087.05 1719.95 2065.75 1788.03 2047.73 1828.18 2014.97 1904.99 2003.5 1990.53 2073.94 2053.37 2128 2100.5 2211.55 2083.04 2267.25 2044.64 2406.5 1950.38 2286.91 1856.11 2303.29 1658.85 2309.85 1596.01 2280.36 1423.19 2206.64 1409.23Z" stroke="#333333" stroke-width="2.86476" stroke-linecap="round" stroke-linejoin="round" stroke-miterlimit="10" fill="none" fill-rule="evenodd"/></g></svg>