<svg width="389" height="676" xmlns="http://www.w3.org/2000/svg" xmlns:xlink="http://www.w3.org/1999/xlink" xml:space="preserve" overflow="hidden"><g transform="translate(-2677 -1409)"><path d="M2802.65 1430.97C2915.44 1356 2975.92 1509.42 2979.19 1565.21 2979.19 1601.82 2969.38 1634.94 2984.1 1671.56 2995.54 1704.68 3011.88 1743.04 3029.87 1774.42 3074 1849.38 3070.73 1901.69 3044.58 1980.14 3028.23 2027.21 3036.4 2083 2871.31 2083 2706.21 2083 2712.75 2008.03 2720.92 1934.81 2729.1 1866.82 2649 1664.58 2689.87 1577.41 2729.1 1491.99 2761.79 1462.35 2802.65 1430.97Z" fill="#BCC4DF" fill-rule="evenodd"/><path d="M2873 1429C2822.37 1430.74 2739.07 1496.97 2708.03 1592.84 2677 1688.7 2721.1 1768.87 2732.53 1836.85 2743.97 1904.82 2747.23 1950.14 2739.07 1978.03 2730.9 2005.91 2755.4 2040.77 2763.57 2046 2750.5 2028.57 2755.4 1993.71 2766.83 1951.88 2778.27 1910.05 2779.9 1807.22 2760.3 1714.84 2740.7 1622.47 2760.3 1474.32 2873 1429Z" fill="#DBDFEE" fill-rule="evenodd"/><path d="M2936.54 1477C2952.86 1499.66 2969.18 1531.04 2962.66 1607.75 2957.76 1684.46 2987.14 1708.87 3009.98 1755.94 3032.83 1804.75 3072 1874.49 3034.46 1966.89 3019.78 2001.75 3016.51 2024.42 3000.19 2040.11 2974.08 2064.51 2931.65 2068 2868 2068 2910.43 2059.28 2975.71 2031.39 3000.19 1952.94 3026.3 1876.23 2947.97 1787.32 2938.18 1691.43 2928.38 1597.29 2962.66 1538.02 2936.54 1477Z" fill="#99A8D0" fill-rule="evenodd"/><path d="M2792 1467C2762.75 1491.41 2688 1571.63 2699.38 1678 2705.88 1646.61 2728.63 1528.03 2792 1467Z" fill="#FFFFFF" fill-rule="evenodd"/><path d="M2743.4 1948C2735.4 1974.09 2729 2005.39 2745 2028" fill="#FFFFFF" fill-rule="evenodd"/><path d="M2803.15 1431.47C2915.94 1356.5 2976.42 1509.92 2979.69 1565.71 2979.69 1602.32 2969.88 1635.44 2984.6 1672.06 2996.04 1705.18 3012.38 1743.54 3030.37 1774.92 3074.5 1849.88 3071.23 1902.19 3045.08 1980.64 3028.73 2027.71 3036.9 2083.5 2871.81 2083.5 2706.71 2083.5 2713.25 2008.53 2721.42 1935.31 2729.6 1867.32 2649.5 1665.08 2690.37 1577.91 2729.6 1492.49 2762.29 1462.85 2803.15 1431.47Z" stroke="#333333" stroke-width="2.86476" stroke-linecap="round" stroke-linejoin="round" stroke-miterlimit="10" fill="none" fill-rule="evenodd"/></g></svg>