<svg width="783" height="236" xmlns="http://www.w3.org/2000/svg" xmlns:xlink="http://www.w3.org/1999/xlink" xml:space="preserve" overflow="hidden"><g transform="translate(-1182 -690)"><path d="M1183 719C1183 705.193 1193.3 694 1206 694 1218.7 694 1229 705.193 1229 719 1229 732.807 1218.7 744 1206 744 1193.3 744 1183 732.807 1183 719Z" fill="#FFFBC5" fill-rule="evenodd"/><path d="M1183.5 719.5C1183.5 705.693 1193.8 694.5 1206.5 694.5 1219.2 694.5 1229.5 705.693 1229.5 719.5 1229.5 733.307 1219.2 744.5 1206.5 744.5 1193.8 744.5 1183.5 733.307 1183.5 719.5Z" stroke="#333333" stroke-width="2.86476" stroke-miterlimit="8" fill="none" fill-rule="evenodd"/><path d="M1215.03 760.379C1215.03 760.379 1215.69 761.092 1215.69 761.092 1215.69 761.805 1215.69 761.805 1216.34 762.517 1216.34 762.517 1216.34 763.23 1216.34 763.23 1216.34 763.943 1217 763.943 1217 763.943 1217 764.655 1217 765.368 1217 766.08 1217 797.437 1217 797.437 1217 797.437 1217 799.575 1215.69 801 1213.71 801 1211.74 801 1210.43 799.575 1210.43 797.437 1210.43 766.08 1210.43 766.08 1210.43 766.08 1210.43 764.655 1208.46 761.805 1205.83 761.805 1202.54 761.805 1200.57 764.655 1200.57 766.08 1200.57 797.437 1200.57 797.437 1200.57 797.437 1200.57 799.575 1199.26 801 1197.29 801 1195.97 801 1194 799.575 1194 797.437 1194 766.08 1194 766.08 1194 766.08 1194 765.368 1194 764.655 1194.66 763.943 1194.66 763.943 1194.66 763.943 1194.66 763.23 1194.66 763.23 1194.66 762.517 1195.31 762.517 1195.31 761.805 1195.31 761.805 1195.31 761.805 1195.97 761.092 1195.97 760.379 1195.97 760.379 1195.97 760.379 1196.63 759.667 1196.63 759.667 1196.63 758.954 1197.29 758.241 1197.94 758.241 1197.94 757.529 1198.6 757.529 1198.6 756.816 1198.6 756.816 1199.26 756.816 1199.26 756.816 1199.26 756.103 1199.91 756.103 1200.57 756.103 1200.57 755.391 1200.57 755.391 1200.57 755.391 1201.23 755.391 1201.89 754.678 1201.89 754.678 1201.89 742.563 1201.89 742.563 1201.89 742.563 1201.89 741.138 1203.2 739 1205.17 739 1207.14 739 1208.46 741.138 1208.46 742.563 1208.46 754.678 1208.46 754.678 1208.46 754.678 1208.46 754.678 1208.46 754.678 1208.46 754.678 1210.43 755.391 1212.4 756.816 1214.37 758.954 1214.37 758.954 1214.37 758.954 1214.37 759.667 1215.03 759.667 1215.03 760.379 1215.03 760.379Z" fill="#44718A" fill-rule="evenodd"/><path d="M1195 795.8C1195 765 1195 765 1195 765 1195 765 1195 765 1195 765 1195 765 1195.5 775.5 1196 781.1 1196 786 1196 795.1 1196 795.1 1196 795.8 1196 799.3 1196 800 1196 800 1196 800 1196 800 1195.5 798.6 1195 797.2 1195 795.8Z" fill="#FFFFFF" fill-rule="evenodd"/><path d="M1211.75 795.778C1211.75 797.185 1212.38 799.296 1213 800 1211.75 798.593 1211.12 797.185 1211.12 795.778 1211.12 789.444 1211.12 789.444 1211.12 789.444 1211.12 766.222 1211.12 766.222 1211.12 766.222 1211.12 765.519 1209.88 762 1208 762 1211.75 762 1212.38 765.519 1212.38 767.63L1211.75 795.778Z" fill="#FFFFFF" fill-rule="evenodd"/><path d="M1190 712C1190 707.582 1193.36 704 1197.5 704 1201.64 704 1205 707.582 1205 712 1205 716.418 1201.64 720 1197.5 720 1193.36 720 1190 716.418 1190 712Z" fill="#FFFFFF" fill-rule="evenodd"/><path d="M1230 899C1230 912.807 1219.7 924 1207 924 1194.3 924 1184 912.807 1184 899 1184 885.193 1194.3 874 1207 874 1219.7 874 1230 885.193 1230 899Z" fill="#FFFBC5" fill-rule="evenodd"/><path d="M1230.5 899.5C1230.5 913.307 1220.2 924.5 1207.5 924.5 1194.8 924.5 1184.5 913.307 1184.5 899.5 1184.5 885.693 1194.8 874.5 1207.5 874.5 1220.2 874.5 1230.5 885.693 1230.5 899.5Z" stroke="#333333" stroke-width="2.86476" stroke-miterlimit="8" fill="none" fill-rule="evenodd"/><path d="M1197.97 856.621C1197.97 856.621 1197.31 855.908 1197.31 855.908 1197.31 855.195 1197.31 855.195 1196.66 854.483 1196.66 854.483 1196.66 853.77 1196.66 853.77 1196.66 853.057 1196 853.057 1196 853.057 1196 852.345 1196 851.632 1196 850.92 1196 819.563 1196 819.563 1196 819.563 1196 817.425 1197.31 816 1199.29 816 1201.26 816 1202.57 817.425 1202.57 819.563 1202.57 850.92 1202.57 850.92 1202.57 850.92 1202.57 852.345 1204.54 855.195 1207.17 855.195 1210.46 855.195 1212.43 852.345 1212.43 850.92 1212.43 819.563 1212.43 819.563 1212.43 819.563 1212.43 817.425 1213.74 816 1215.71 816 1217.03 816 1219 817.425 1219 819.563 1219 850.92 1219 850.92 1219 850.92 1219 851.632 1219 852.345 1218.34 853.057 1218.34 853.057 1218.34 853.057 1218.34 853.77 1218.34 853.77 1218.34 854.483 1217.69 854.483 1217.69 855.195 1217.69 855.195 1217.69 855.195 1217.03 855.908 1217.03 856.621 1217.03 856.621 1217.03 856.621 1216.37 857.333 1216.37 857.333 1216.37 858.046 1215.71 858.759 1215.06 858.759 1215.06 859.471 1214.4 859.471 1214.4 860.184 1214.4 860.184 1213.74 860.184 1213.74 860.184 1213.74 860.897 1213.09 860.897 1212.43 860.897 1212.43 861.609 1212.43 861.609 1212.43 861.609 1211.77 861.609 1211.11 862.322 1211.11 862.322 1211.11 874.437 1211.11 874.437 1211.11 874.437 1211.11 875.862 1209.8 878 1207.83 878 1205.86 878 1204.54 875.862 1204.54 874.437 1204.54 862.322 1204.54 862.322 1204.54 862.322 1204.54 862.322 1204.54 862.322 1204.54 862.322 1202.57 861.609 1200.6 860.184 1198.63 858.046 1198.63 858.046 1198.63 858.046 1198.63 857.333 1197.97 857.333 1197.97 856.621 1197.97 856.621Z" fill="#44718A" fill-rule="evenodd"/><path d="M1218 821.2C1218 852 1218 852 1218 852 1218 852 1218 852 1218 852 1218 852 1217 841.5 1216 835.9 1216 831 1216 821.9 1216 821.9 1216 821.2 1216 817.7 1216 817 1216 817 1216 817 1216 817 1217 818.4 1218 819.8 1218 821.2Z" fill="#FFFFFF" fill-rule="evenodd"/><path d="M1201.25 821.222C1201.25 819.815 1200.62 817.704 1200 817 1201.25 818.407 1201.88 819.815 1201.88 821.222 1201.88 827.556 1201.88 827.556 1201.88 827.556 1201.88 850.778 1201.88 850.778 1201.88 850.778 1201.88 851.481 1203.12 855 1205 855 1201.25 855 1200.62 851.481 1200.62 849.37L1201.25 821.222Z" fill="#FFFFFF" fill-rule="evenodd"/><path d="M1223 905.5C1223 910.194 1219.64 914 1215.5 914 1211.36 914 1208 910.194 1208 905.5 1208 900.805 1211.36 897 1215.5 897 1219.64 897 1223 900.805 1223 905.5Z" fill="#FFFFFF" fill-rule="evenodd"/><path d="M1232 719C1232 705.193 1242.3 694 1255 694 1267.7 694 1278 705.193 1278 719 1278 732.807 1267.7 744 1255 744 1242.3 744 1232 732.807 1232 719Z" fill="#FFFBC5" fill-rule="evenodd"/><path d="M1232.5 719.5C1232.5 705.693 1242.8 694.5 1255.5 694.5 1268.2 694.5 1278.5 705.693 1278.5 719.5 1278.5 733.307 1268.2 744.5 1255.5 744.5 1242.8 744.5 1232.5 733.307 1232.5 719.5Z" stroke="#333333" stroke-width="2.86476" stroke-miterlimit="8" fill="none" fill-rule="evenodd"/><path d="M1264.03 760.379C1264.03 760.379 1264.69 761.092 1264.69 761.092 1264.69 761.805 1264.69 761.805 1265.34 762.517 1265.34 762.517 1265.34 763.23 1265.34 763.23 1265.34 763.943 1266 763.943 1266 763.943 1266 764.655 1266 765.368 1266 766.08 1266 797.437 1266 797.437 1266 797.437 1266 799.575 1264.69 801 1262.71 801 1260.74 801 1259.43 799.575 1259.43 797.437 1259.43 766.08 1259.43 766.08 1259.43 766.08 1259.43 764.655 1257.46 761.805 1254.83 761.805 1251.54 761.805 1249.57 764.655 1249.57 766.08 1249.57 797.437 1249.57 797.437 1249.57 797.437 1249.57 799.575 1248.26 801 1246.29 801 1244.97 801 1243 799.575 1243 797.437 1243 766.08 1243 766.08 1243 766.08 1243 765.368 1243 764.655 1243.66 763.943 1243.66 763.943 1243.66 763.943 1243.66 763.23 1243.66 763.23 1243.66 762.517 1244.31 762.517 1244.31 761.805 1244.31 761.805 1244.31 761.805 1244.97 761.092 1244.97 760.379 1244.97 760.379 1244.97 760.379 1245.63 759.667 1245.63 759.667 1245.63 758.954 1246.29 758.241 1246.94 758.241 1246.94 757.529 1247.6 757.529 1247.6 756.816 1247.6 756.816 1248.26 756.816 1248.26 756.816 1248.26 756.103 1248.91 756.103 1249.57 756.103 1249.57 755.391 1249.57 755.391 1249.57 755.391 1250.23 755.391 1250.89 754.678 1250.89 754.678 1250.89 742.563 1250.89 742.563 1250.89 742.563 1250.89 741.138 1252.2 739 1254.17 739 1256.14 739 1257.46 741.138 1257.46 742.563 1257.46 754.678 1257.46 754.678 1257.46 754.678 1257.46 754.678 1257.46 754.678 1257.46 754.678 1259.43 755.391 1261.4 756.816 1263.37 758.954 1263.37 758.954 1263.37 758.954 1263.37 759.667 1264.03 759.667 1264.03 760.379 1264.03 760.379Z" fill="#44718A" fill-rule="evenodd"/><path d="M1244 795.8C1244 765 1244 765 1244 765 1244 765 1244 765 1244 765 1244 765 1244.5 775.5 1245 781.1 1245 786 1245 795.1 1245 795.1 1245 795.8 1245 799.3 1245 800 1245 800 1245 800 1245 800 1244.5 798.6 1244 797.2 1244 795.8Z" fill="#FFFFFF" fill-rule="evenodd"/><path d="M1260.75 795.778C1260.75 797.185 1261.38 799.296 1262 800 1260.75 798.593 1260.12 797.185 1260.12 795.778 1260.12 789.444 1260.12 789.444 1260.12 789.444 1260.12 766.222 1260.12 766.222 1260.12 766.222 1260.12 765.519 1258.88 762 1257 762 1260.75 762 1261.38 765.519 1261.38 767.63L1260.75 795.778Z" fill="#FFFFFF" fill-rule="evenodd"/><path d="M1239 712C1239 707.582 1242.36 704 1246.5 704 1250.64 704 1254 707.582 1254 712 1254 716.418 1250.64 720 1246.5 720 1242.36 720 1239 716.418 1239 712Z" fill="#FFFFFF" fill-rule="evenodd"/><path d="M1279 899C1279 912.807 1268.7 924 1256 924 1243.3 924 1233 912.807 1233 899 1233 885.193 1243.3 874 1256 874 1268.7 874 1279 885.193 1279 899Z" fill="#FFFBC5" fill-rule="evenodd"/><path d="M1279.5 899.5C1279.5 913.307 1269.2 924.5 1256.5 924.5 1243.8 924.5 1233.5 913.307 1233.5 899.5 1233.5 885.693 1243.8 874.5 1256.5 874.5 1269.2 874.5 1279.5 885.693 1279.5 899.5Z" stroke="#333333" stroke-width="2.86476" stroke-miterlimit="8" fill="none" fill-rule="evenodd"/><path d="M1246.97 856.621C1246.97 856.621 1246.31 855.908 1246.31 855.908 1246.31 855.195 1246.31 855.195 1245.66 854.483 1245.66 854.483 1245.66 853.77 1245.66 853.77 1245.66 853.057 1245 853.057 1245 853.057 1245 852.345 1245 851.632 1245 850.92 1245 819.563 1245 819.563 1245 819.563 1245 817.425 1246.31 816 1248.29 816 1250.26 816 1251.57 817.425 1251.57 819.563 1251.57 850.92 1251.57 850.92 1251.57 850.92 1251.57 852.345 1253.54 855.195 1256.17 855.195 1259.46 855.195 1261.43 852.345 1261.43 850.92 1261.43 819.563 1261.43 819.563 1261.43 819.563 1261.43 817.425 1262.74 816 1264.71 816 1266.03 816 1268 817.425 1268 819.563 1268 850.92 1268 850.92 1268 850.92 1268 851.632 1268 852.345 1267.34 853.057 1267.34 853.057 1267.34 853.057 1267.34 853.77 1267.34 853.77 1267.34 854.483 1266.69 854.483 1266.69 855.195 1266.69 855.195 1266.69 855.195 1266.03 855.908 1266.03 856.621 1266.03 856.621 1266.03 856.621 1265.37 857.333 1265.37 857.333 1265.37 858.046 1264.71 858.759 1264.06 858.759 1264.06 859.471 1263.4 859.471 1263.4 860.184 1263.4 860.184 1262.74 860.184 1262.74 860.184 1262.74 860.897 1262.09 860.897 1261.43 860.897 1261.43 861.609 1261.43 861.609 1261.43 861.609 1260.77 861.609 1260.11 862.322 1260.11 862.322 1260.11 874.437 1260.11 874.437 1260.11 874.437 1260.11 875.862 1258.8 878 1256.83 878 1254.86 878 1253.54 875.862 1253.54 874.437 1253.54 862.322 1253.54 862.322 1253.54 862.322 1253.54 862.322 1253.54 862.322 1253.54 862.322 1251.57 861.609 1249.6 860.184 1247.63 858.046 1247.63 858.046 1247.63 858.046 1247.63 857.333 1246.97 857.333 1246.97 856.621 1246.97 856.621Z" fill="#44718A" fill-rule="evenodd"/><path d="M1267 821.2C1267 852 1267 852 1267 852 1267 852 1267 852 1267 852 1267 852 1266.5 841.5 1266 835.9 1266 831 1266 821.9 1266 821.9 1266 821.2 1266 817.7 1266 817 1266 817 1266 817 1266 817 1266.5 818.4 1267 819.8 1267 821.2Z" fill="#FFFFFF" fill-rule="evenodd"/><path d="M1250.25 821.222C1250.25 819.815 1249.62 817.704 1249 817 1250.25 818.407 1250.87 819.815 1250.87 821.222 1250.87 827.556 1250.87 827.556 1250.87 827.556 1250.87 850.778 1250.87 850.778 1250.87 850.778 1250.87 851.481 1252.12 855 1254 855 1250.25 855 1249.62 851.481 1249.62 849.37L1250.25 821.222Z" fill="#FFFFFF" fill-rule="evenodd"/><path d="M1272 905.5C1272 910.194 1268.64 914 1264.5 914 1260.36 914 1257 910.194 1257 905.5 1257 900.805 1260.36 897 1264.5 897 1268.64 897 1272 900.805 1272 905.5Z" fill="#FFFFFF" fill-rule="evenodd"/><path d="M1279 719C1279 705.193 1289.3 694 1302 694 1314.7 694 1325 705.193 1325 719 1325 732.807 1314.7 744 1302 744 1289.3 744 1279 732.807 1279 719Z" fill="#FFFBC5" fill-rule="evenodd"/><path d="M1279.5 719.5C1279.5 705.693 1289.8 694.5 1302.5 694.5 1315.2 694.5 1325.5 705.693 1325.5 719.5 1325.5 733.307 1315.2 744.5 1302.5 744.5 1289.8 744.5 1279.5 733.307 1279.5 719.5Z" stroke="#333333" stroke-width="2.86476" stroke-miterlimit="8" fill="none" fill-rule="evenodd"/><path d="M1311.94 760.379C1311.94 760.379 1312.63 761.092 1312.63 761.092 1312.63 761.805 1312.63 761.805 1313.31 762.517 1313.31 762.517 1313.31 763.23 1313.31 763.23 1313.31 763.943 1314 763.943 1314 763.943 1314 764.655 1314 765.368 1314 766.08 1314 797.437 1314 797.437 1314 797.437 1314 799.575 1312.63 801 1310.57 801 1308.51 801 1307.14 799.575 1307.14 797.437 1307.14 766.08 1307.14 766.08 1307.14 766.08 1307.14 764.655 1305.09 761.805 1302.34 761.805 1298.91 761.805 1296.86 764.655 1296.86 766.08 1296.86 797.437 1296.86 797.437 1296.86 797.437 1296.86 799.575 1295.49 801 1293.43 801 1292.06 801 1290 799.575 1290 797.437 1290 766.08 1290 766.08 1290 766.08 1290 765.368 1290 764.655 1290.69 763.943 1290.69 763.943 1290.69 763.943 1290.69 763.23 1290.69 763.23 1290.69 762.517 1291.37 762.517 1291.37 761.805 1291.37 761.805 1291.37 761.805 1292.06 761.092 1292.06 760.379 1292.06 760.379 1292.06 760.379 1292.74 759.667 1292.74 759.667 1292.74 758.954 1293.43 758.241 1294.11 758.241 1294.11 757.529 1294.8 757.529 1294.8 756.816 1294.8 756.816 1295.49 756.816 1295.49 756.816 1295.49 756.103 1296.17 756.103 1296.86 756.103 1296.86 755.391 1296.86 755.391 1296.86 755.391 1297.54 755.391 1298.23 754.678 1298.23 754.678 1298.23 742.563 1298.23 742.563 1298.23 742.563 1298.23 741.138 1299.6 739 1301.66 739 1303.71 739 1305.09 741.138 1305.09 742.563 1305.09 754.678 1305.09 754.678 1305.09 754.678 1305.09 754.678 1305.09 754.678 1305.09 754.678 1307.14 755.391 1309.2 756.816 1311.26 758.954 1311.26 758.954 1311.26 758.954 1311.26 759.667 1311.94 759.667 1311.94 760.379 1311.94 760.379Z" fill="#44718A" fill-rule="evenodd"/><path d="M1292 795.8C1292 765 1292 765 1292 765 1292 765 1292 765 1292 765 1292 765 1292.5 775.5 1293 781.1 1293 786 1293 795.1 1293 795.1 1293 795.8 1293 799.3 1293 800 1293 800 1293 800 1293 800 1292.5 798.6 1292 797.2 1292 795.8Z" fill="#FFFFFF" fill-rule="evenodd"/><path d="M1308.5 795.778C1308.5 797.185 1309.25 799.296 1310 800 1308.5 798.593 1307.75 797.185 1307.75 795.778 1307.75 789.444 1307.75 789.444 1307.75 789.444 1307.75 766.222 1307.75 766.222 1307.75 766.222 1307.75 765.519 1306.25 762 1304 762 1308.5 762 1309.25 765.519 1309.25 767.63L1308.5 795.778Z" fill="#FFFFFF" fill-rule="evenodd"/><path d="M1286 712C1286 707.582 1289.58 704 1294 704 1298.42 704 1302 707.582 1302 712 1302 716.418 1298.42 720 1294 720 1289.58 720 1286 716.418 1286 712Z" fill="#FFFFFF" fill-rule="evenodd"/><path d="M1327 899C1327 912.807 1316.7 924 1304 924 1291.3 924 1281 912.807 1281 899 1281 885.193 1291.3 874 1304 874 1316.7 874 1327 885.193 1327 899Z" fill="#FFFBC5" fill-rule="evenodd"/><path d="M1327.5 899.5C1327.5 913.307 1317.2 924.5 1304.5 924.5 1291.8 924.5 1281.5 913.307 1281.5 899.5 1281.5 885.693 1291.8 874.5 1304.5 874.5 1317.2 874.5 1327.5 885.693 1327.5 899.5Z" stroke="#333333" stroke-width="2.86476" stroke-miterlimit="8" fill="none" fill-rule="evenodd"/><path d="M1294.97 856.621C1294.97 856.621 1294.31 855.908 1294.31 855.908 1294.31 855.195 1294.31 855.195 1293.66 854.483 1293.66 854.483 1293.66 853.77 1293.66 853.77 1293.66 853.057 1293 853.057 1293 853.057 1293 852.345 1293 851.632 1293 850.92 1293 819.563 1293 819.563 1293 819.563 1293 817.425 1294.31 816 1296.29 816 1298.26 816 1299.57 817.425 1299.57 819.563 1299.57 850.92 1299.57 850.92 1299.57 850.92 1299.57 852.345 1301.54 855.195 1304.17 855.195 1307.46 855.195 1309.43 852.345 1309.43 850.92 1309.43 819.563 1309.43 819.563 1309.43 819.563 1309.43 817.425 1310.74 816 1312.71 816 1314.03 816 1316 817.425 1316 819.563 1316 850.92 1316 850.92 1316 850.92 1316 851.632 1316 852.345 1315.34 853.057 1315.34 853.057 1315.34 853.057 1315.34 853.77 1315.34 853.77 1315.34 854.483 1314.69 854.483 1314.69 855.195 1314.69 855.195 1314.69 855.195 1314.03 855.908 1314.03 856.621 1314.03 856.621 1314.03 856.621 1313.37 857.333 1313.37 857.333 1313.37 858.046 1312.71 858.759 1312.06 858.759 1312.06 859.471 1311.4 859.471 1311.4 860.184 1311.4 860.184 1310.74 860.184 1310.74 860.184 1310.74 860.897 1310.09 860.897 1309.43 860.897 1309.43 861.609 1309.43 861.609 1309.43 861.609 1308.77 861.609 1308.11 862.322 1308.11 862.322 1308.11 874.437 1308.11 874.437 1308.11 874.437 1308.11 875.862 1306.8 878 1304.83 878 1302.86 878 1301.54 875.862 1301.54 874.437 1301.54 862.322 1301.54 862.322 1301.54 862.322 1301.54 862.322 1301.54 862.322 1301.54 862.322 1299.57 861.609 1297.6 860.184 1295.63 858.046 1295.63 858.046 1295.63 858.046 1295.63 857.333 1294.97 857.333 1294.97 856.621 1294.97 856.621Z" fill="#44718A" fill-rule="evenodd"/><path d="M1315 821.2C1315 852 1315 852 1315 852 1315 852 1315 852 1315 852 1315 852 1314 841.5 1313 835.9 1313 831 1313 821.9 1313 821.9 1313 821.2 1313 817.7 1313 817 1313 817 1313 817 1313 817 1314 818.4 1315 819.8 1315 821.2Z" fill="#FFFFFF" fill-rule="evenodd"/><path d="M1298.25 821.222C1298.25 819.815 1297.62 817.704 1297 817 1298.25 818.407 1298.88 819.815 1298.88 821.222 1298.88 827.556 1298.88 827.556 1298.88 827.556 1298.88 850.778 1298.88 850.778 1298.88 850.778 1298.88 851.481 1300.12 855 1302 855 1298.25 855 1297.62 851.481 1297.62 849.37L1298.25 821.222Z" fill="#FFFFFF" fill-rule="evenodd"/><path d="M1320 905.5C1320 910.194 1316.64 914 1312.5 914 1308.36 914 1305 910.194 1305 905.5 1305 900.805 1308.36 897 1312.5 897 1316.64 897 1320 900.805 1320 905.5Z" fill="#FFFFFF" fill-rule="evenodd"/><path d="M1328 719C1328 705.193 1338.3 694 1351 694 1363.7 694 1374 705.193 1374 719 1374 732.807 1363.7 744 1351 744 1338.3 744 1328 732.807 1328 719Z" fill="#FFFBC5" fill-rule="evenodd"/><path d="M1328.5 719.5C1328.5 705.693 1338.8 694.5 1351.5 694.5 1364.2 694.5 1374.5 705.693 1374.5 719.5 1374.5 733.307 1364.2 744.5 1351.5 744.5 1338.8 744.5 1328.5 733.307 1328.5 719.5Z" stroke="#333333" stroke-width="2.86476" stroke-miterlimit="8" fill="none" fill-rule="evenodd"/><path d="M1360.03 760.379C1360.03 760.379 1360.69 761.092 1360.69 761.092 1360.69 761.805 1360.69 761.805 1361.34 762.517 1361.34 762.517 1361.34 763.23 1361.34 763.23 1361.34 763.943 1362 763.943 1362 763.943 1362 764.655 1362 765.368 1362 766.08 1362 797.437 1362 797.437 1362 797.437 1362 799.575 1360.69 801 1358.71 801 1356.74 801 1355.43 799.575 1355.43 797.437 1355.43 766.08 1355.43 766.08 1355.43 766.08 1355.43 764.655 1353.46 761.805 1350.83 761.805 1347.54 761.805 1345.57 764.655 1345.57 766.08 1345.57 797.437 1345.57 797.437 1345.57 797.437 1345.57 799.575 1344.26 801 1342.29 801 1340.97 801 1339 799.575 1339 797.437 1339 766.08 1339 766.08 1339 766.08 1339 765.368 1339 764.655 1339.66 763.943 1339.66 763.943 1339.66 763.943 1339.66 763.23 1339.66 763.23 1339.66 762.517 1340.31 762.517 1340.31 761.805 1340.31 761.805 1340.31 761.805 1340.97 761.092 1340.97 760.379 1340.97 760.379 1340.97 760.379 1341.63 759.667 1341.63 759.667 1341.63 758.954 1342.29 758.241 1342.94 758.241 1342.94 757.529 1343.6 757.529 1343.6 756.816 1343.6 756.816 1344.26 756.816 1344.26 756.816 1344.26 756.103 1344.91 756.103 1345.57 756.103 1345.57 755.391 1345.57 755.391 1345.57 755.391 1346.23 755.391 1346.89 754.678 1346.89 754.678 1346.89 742.563 1346.89 742.563 1346.89 742.563 1346.89 741.138 1348.2 739 1350.17 739 1352.14 739 1353.46 741.138 1353.46 742.563 1353.46 754.678 1353.46 754.678 1353.46 754.678 1353.46 754.678 1353.46 754.678 1353.46 754.678 1355.43 755.391 1357.4 756.816 1359.37 758.954 1359.37 758.954 1359.37 758.954 1359.37 759.667 1360.03 759.667 1360.03 760.379 1360.03 760.379Z" fill="#44718A" fill-rule="evenodd"/><path d="M1340 795.8C1340 765 1340 765 1340 765 1340 765 1340 765 1340 765 1340 765 1340.5 775.5 1341 781.1 1341 786 1341 795.1 1341 795.1 1341 795.8 1341 799.3 1341 800 1341 800 1341 800 1341 800 1340.5 798.6 1340 797.2 1340 795.8Z" fill="#FFFFFF" fill-rule="evenodd"/><path d="M1356.75 795.778C1356.75 797.185 1357.38 799.296 1358 800 1356.75 798.593 1356.13 797.185 1356.13 795.778 1356.13 789.444 1356.13 789.444 1356.13 789.444 1356.13 766.222 1356.13 766.222 1356.13 766.222 1356.13 765.519 1354.88 762 1353 762 1356.75 762 1357.38 765.519 1357.38 767.63L1356.75 795.778Z" fill="#FFFFFF" fill-rule="evenodd"/><path d="M1335 712C1335 707.582 1338.36 704 1342.5 704 1346.64 704 1350 707.582 1350 712 1350 716.418 1346.64 720 1342.5 720 1338.36 720 1335 716.418 1335 712Z" fill="#FFFFFF" fill-rule="evenodd"/><path d="M1375 899C1375 912.807 1364.7 924 1352 924 1339.3 924 1329 912.807 1329 899 1329 885.193 1339.3 874 1352 874 1364.7 874 1375 885.193 1375 899Z" fill="#FFFBC5" fill-rule="evenodd"/><path d="M1375.5 899.5C1375.5 913.307 1365.2 924.5 1352.5 924.5 1339.8 924.5 1329.5 913.307 1329.5 899.5 1329.5 885.693 1339.8 874.5 1352.5 874.5 1365.2 874.5 1375.5 885.693 1375.5 899.5Z" stroke="#333333" stroke-width="2.86476" stroke-miterlimit="8" fill="none" fill-rule="evenodd"/><path d="M1342.97 856.621C1342.97 856.621 1342.31 855.908 1342.31 855.908 1342.31 855.195 1342.31 855.195 1341.66 854.483 1341.66 854.483 1341.66 853.77 1341.66 853.77 1341.66 853.057 1341 853.057 1341 853.057 1341 852.345 1341 851.632 1341 850.92 1341 819.563 1341 819.563 1341 819.563 1341 817.425 1342.31 816 1344.29 816 1346.26 816 1347.57 817.425 1347.57 819.563 1347.57 850.92 1347.57 850.92 1347.57 850.92 1347.57 852.345 1349.54 855.195 1352.17 855.195 1355.46 855.195 1357.43 852.345 1357.43 850.92 1357.43 819.563 1357.43 819.563 1357.43 819.563 1357.43 817.425 1358.74 816 1360.71 816 1362.03 816 1364 817.425 1364 819.563 1364 850.92 1364 850.92 1364 850.92 1364 851.632 1364 852.345 1363.34 853.057 1363.34 853.057 1363.34 853.057 1363.34 853.77 1363.34 853.77 1363.34 854.483 1362.69 854.483 1362.69 855.195 1362.69 855.195 1362.69 855.195 1362.03 855.908 1362.03 856.621 1362.03 856.621 1362.03 856.621 1361.37 857.333 1361.37 857.333 1361.37 858.046 1360.71 858.759 1360.06 858.759 1360.06 859.471 1359.4 859.471 1359.4 860.184 1359.4 860.184 1358.74 860.184 1358.74 860.184 1358.74 860.897 1358.09 860.897 1357.43 860.897 1357.43 861.609 1357.43 861.609 1357.43 861.609 1356.77 861.609 1356.11 862.322 1356.11 862.322 1356.11 874.437 1356.11 874.437 1356.11 874.437 1356.11 875.862 1354.8 878 1352.83 878 1350.86 878 1349.54 875.862 1349.54 874.437 1349.54 862.322 1349.54 862.322 1349.54 862.322 1349.54 862.322 1349.54 862.322 1349.54 862.322 1347.57 861.609 1345.6 860.184 1343.63 858.046 1343.63 858.046 1343.63 858.046 1343.63 857.333 1342.97 857.333 1342.97 856.621 1342.97 856.621Z" fill="#44718A" fill-rule="evenodd"/><path d="M1363 821.2C1363 852 1363 852 1363 852 1363 852 1363 852 1363 852 1363 852 1362.5 841.5 1362 835.9 1362 831 1362 821.9 1362 821.9 1362 821.2 1362 817.7 1362 817 1362 817 1362 817 1362 817 1362.5 818.4 1363 819.8 1363 821.2Z" fill="#FFFFFF" fill-rule="evenodd"/><path d="M1346.25 821.222C1346.25 819.815 1345.62 817.704 1345 817 1346.25 818.407 1346.88 819.815 1346.88 821.222 1346.88 827.556 1346.88 827.556 1346.88 827.556 1346.88 850.778 1346.88 850.778 1346.88 850.778 1346.88 851.481 1348.12 855 1350 855 1346.25 855 1345.62 851.481 1345.62 849.37L1346.25 821.222Z" fill="#FFFFFF" fill-rule="evenodd"/><path d="M1368 905.5C1368 910.194 1364.64 914 1360.5 914 1356.36 914 1353 910.194 1353 905.5 1353 900.805 1356.36 897 1360.5 897 1364.64 897 1368 900.805 1368 905.5Z" fill="#FFFFFF" fill-rule="evenodd"/><path d="M1378 717C1378 703.193 1388.3 692 1401 692 1413.7 692 1424 703.193 1424 717 1424 730.807 1413.7 742 1401 742 1388.3 742 1378 730.807 1378 717Z" fill="#FFFBC5" fill-rule="evenodd"/><path d="M1378.5 717.5C1378.5 703.693 1388.8 692.5 1401.5 692.5 1414.2 692.5 1424.5 703.693 1424.5 717.5 1424.5 731.307 1414.2 742.5 1401.5 742.5 1388.8 742.5 1378.5 731.307 1378.5 717.5Z" stroke="#333333" stroke-width="2.86476" stroke-miterlimit="8" fill="none" fill-rule="evenodd"/><path d="M1410.94 759.379C1410.94 759.379 1411.63 760.092 1411.63 760.092 1411.63 760.805 1411.63 760.805 1412.31 761.517 1412.31 761.517 1412.31 762.23 1412.31 762.23 1412.31 762.943 1413 762.943 1413 762.943 1413 763.655 1413 764.368 1413 765.08 1413 796.437 1413 796.437 1413 796.437 1413 798.575 1411.63 800 1409.57 800 1407.51 800 1406.14 798.575 1406.14 796.437 1406.14 765.08 1406.14 765.08 1406.14 765.08 1406.14 763.655 1404.09 760.805 1401.34 760.805 1397.91 760.805 1395.86 763.655 1395.86 765.08 1395.86 796.437 1395.86 796.437 1395.86 796.437 1395.86 798.575 1394.49 800 1392.43 800 1391.06 800 1389 798.575 1389 796.437 1389 765.08 1389 765.08 1389 765.08 1389 764.368 1389 763.655 1389.69 762.943 1389.69 762.943 1389.69 762.943 1389.69 762.23 1389.69 762.23 1389.69 761.517 1390.37 761.517 1390.37 760.805 1390.37 760.805 1390.37 760.805 1391.06 760.092 1391.06 759.379 1391.06 759.379 1391.06 759.379 1391.74 758.667 1391.74 758.667 1391.74 757.954 1392.43 757.241 1393.11 757.241 1393.11 756.529 1393.8 756.529 1393.8 755.816 1393.8 755.816 1394.49 755.816 1394.49 755.816 1394.49 755.103 1395.17 755.103 1395.86 755.103 1395.86 754.391 1395.86 754.391 1395.86 754.391 1396.54 754.391 1397.23 753.678 1397.23 753.678 1397.23 741.563 1397.23 741.563 1397.23 741.563 1397.23 740.138 1398.6 738 1400.66 738 1402.71 738 1404.09 740.138 1404.09 741.563 1404.09 753.678 1404.09 753.678 1404.09 753.678 1404.09 753.678 1404.09 753.678 1404.09 753.678 1406.14 754.391 1408.2 755.816 1410.26 757.954 1410.26 757.954 1410.26 757.954 1410.26 758.667 1410.94 758.667 1410.94 759.379 1410.94 759.379Z" fill="#44718A" fill-rule="evenodd"/><path d="M1391 794.8C1391 764 1391 764 1391 764 1391 764 1391 764 1391 764 1391 764 1391.5 774.5 1392 780.1 1392 785 1392 794.1 1392 794.1 1392 794.8 1392 798.3 1392 799 1392 799 1392 799 1392 799 1391.5 797.6 1391 796.2 1391 794.8Z" fill="#FFFFFF" fill-rule="evenodd"/><path d="M1407.5 794.778C1407.5 796.185 1408.25 798.296 1409 799 1407.5 797.592 1406.75 796.185 1406.75 794.778 1406.75 788.444 1406.75 788.444 1406.75 788.444 1406.75 765.222 1406.75 765.222 1406.75 765.222 1406.75 764.519 1405.25 761 1403 761 1407.5 761 1408.25 764.519 1408.25 766.63L1407.5 794.778Z" fill="#FFFFFF" fill-rule="evenodd"/><path d="M1385 710.5C1385 705.806 1388.58 702 1393 702 1397.42 702 1401 705.806 1401 710.5 1401 715.195 1397.42 719 1393 719 1388.58 719 1385 715.195 1385 710.5Z" fill="#FFFFFF" fill-rule="evenodd"/><path d="M1426 897C1426 910.807 1415.7 922 1403 922 1390.3 922 1380 910.807 1380 897 1380 883.193 1390.3 872 1403 872 1415.7 872 1426 883.193 1426 897Z" fill="#FFFBC5" fill-rule="evenodd"/><path d="M1426.5 897.5C1426.5 911.307 1416.2 922.5 1403.5 922.5 1390.8 922.5 1380.5 911.307 1380.5 897.5 1380.5 883.693 1390.8 872.5 1403.5 872.5 1416.2 872.5 1426.5 883.693 1426.5 897.5Z" stroke="#333333" stroke-width="2.86476" stroke-miterlimit="8" fill="none" fill-rule="evenodd"/><path d="M1393.97 854.965C1393.97 854.965 1393.31 854.264 1393.31 854.264 1393.31 853.563 1393.31 853.563 1392.66 852.862 1392.66 852.862 1392.66 852.161 1392.66 852.161 1392.66 851.46 1392 851.46 1392 851.46 1392 850.759 1392 850.057 1392 849.356 1392 818.506 1392 818.506 1392 818.506 1392 816.402 1393.31 815 1395.29 815 1397.26 815 1398.57 816.402 1398.57 818.506 1398.57 849.356 1398.57 849.356 1398.57 849.356 1398.57 850.759 1400.54 853.563 1403.17 853.563 1406.46 853.563 1408.43 850.759 1408.43 849.356 1408.43 818.506 1408.43 818.506 1408.43 818.506 1408.43 816.402 1409.74 815 1411.71 815 1413.03 815 1415 816.402 1415 818.506 1415 849.356 1415 849.356 1415 849.356 1415 850.057 1415 850.759 1414.34 851.46 1414.34 851.46 1414.34 851.46 1414.34 852.161 1414.34 852.161 1414.34 852.862 1413.69 852.862 1413.69 853.563 1413.69 853.563 1413.69 853.563 1413.03 854.264 1413.03 854.965 1413.03 854.965 1413.03 854.965 1412.37 855.667 1412.37 855.667 1412.37 856.368 1411.71 857.069 1411.06 857.069 1411.06 857.77 1410.4 857.77 1410.4 858.471 1410.4 858.471 1409.74 858.471 1409.74 858.471 1409.74 859.172 1409.09 859.172 1408.43 859.172 1408.43 859.873 1408.43 859.873 1408.43 859.873 1407.77 859.873 1407.11 860.575 1407.11 860.575 1407.11 872.494 1407.11 872.494 1407.11 872.494 1407.11 873.896 1405.8 876 1403.83 876 1401.86 876 1400.54 873.896 1400.54 872.494 1400.54 860.575 1400.54 860.575 1400.54 860.575 1400.54 860.575 1400.54 860.575 1400.54 860.575 1398.57 859.873 1396.6 858.471 1394.63 856.368 1394.63 856.368 1394.63 856.368 1394.63 855.667 1393.97 855.667 1393.97 854.965 1393.97 854.965Z" fill="#44718A" fill-rule="evenodd"/><path d="M1414 819.32C1414 851 1414 851 1414 851 1414 851 1414 851 1414 851 1414 851 1413 840.2 1412 834.44 1412 829.4 1412 820.04 1412 820.04 1412 819.32 1412 815.72 1412 815 1412 815 1412 815 1412 815 1413 816.44 1414 817.88 1414 819.32Z" fill="#FFFFFF" fill-rule="evenodd"/><path d="M1397.25 819.333C1397.25 817.889 1396.62 815.722 1396 815 1397.25 816.444 1397.88 817.889 1397.88 819.333 1397.88 825.833 1397.88 825.833 1397.88 825.833 1397.88 849.667 1397.88 849.667 1397.88 849.667 1397.88 850.389 1399.12 854 1401 854 1397.25 854 1396.62 850.389 1396.62 848.222L1397.25 819.333Z" fill="#FFFFFF" fill-rule="evenodd"/><path d="M1419 904C1419 908.418 1415.64 912 1411.5 912 1407.36 912 1404 908.418 1404 904 1404 899.582 1407.36 896 1411.5 896 1415.64 896 1419 899.582 1419 904Z" fill="#FFFFFF" fill-rule="evenodd"/><path d="M1427 717C1427 703.193 1437.52 692 1450.5 692 1463.48 692 1474 703.193 1474 717 1474 730.807 1463.48 742 1450.5 742 1437.52 742 1427 730.807 1427 717Z" fill="#FFFBC5" fill-rule="evenodd"/><path d="M1427.5 717.5C1427.5 703.693 1438.02 692.5 1451 692.5 1463.98 692.5 1474.5 703.693 1474.5 717.5 1474.5 731.307 1463.98 742.5 1451 742.5 1438.02 742.5 1427.5 731.307 1427.5 717.5Z" stroke="#333333" stroke-width="2.86476" stroke-miterlimit="8" fill="none" fill-rule="evenodd"/><path d="M1460.03 759.379C1460.03 759.379 1460.69 760.092 1460.69 760.092 1460.69 760.805 1460.69 760.805 1461.34 761.517 1461.34 761.517 1461.34 762.23 1461.34 762.23 1461.34 762.943 1462 762.943 1462 762.943 1462 763.655 1462 764.368 1462 765.08 1462 796.437 1462 796.437 1462 796.437 1462 798.575 1460.69 800 1458.71 800 1456.74 800 1455.43 798.575 1455.43 796.437 1455.43 765.08 1455.43 765.08 1455.43 765.08 1455.43 763.655 1453.46 760.805 1450.83 760.805 1447.54 760.805 1445.57 763.655 1445.57 765.08 1445.57 796.437 1445.57 796.437 1445.57 796.437 1445.57 798.575 1444.26 800 1442.29 800 1440.97 800 1439 798.575 1439 796.437 1439 765.08 1439 765.08 1439 765.08 1439 764.368 1439 763.655 1439.66 762.943 1439.66 762.943 1439.66 762.943 1439.66 762.23 1439.66 762.23 1439.66 761.517 1440.31 761.517 1440.31 760.805 1440.31 760.805 1440.31 760.805 1440.97 760.092 1440.97 759.379 1440.97 759.379 1440.97 759.379 1441.63 758.667 1441.63 758.667 1441.63 757.954 1442.29 757.241 1442.94 757.241 1442.94 756.529 1443.6 756.529 1443.6 755.816 1443.6 755.816 1444.26 755.816 1444.26 755.816 1444.26 755.103 1444.91 755.103 1445.57 755.103 1445.57 754.391 1445.57 754.391 1445.57 754.391 1446.23 754.391 1446.89 753.678 1446.89 753.678 1446.89 741.563 1446.89 741.563 1446.89 741.563 1446.89 740.138 1448.2 738 1450.17 738 1452.14 738 1453.46 740.138 1453.46 741.563 1453.46 753.678 1453.46 753.678 1453.46 753.678 1453.46 753.678 1453.46 753.678 1453.46 753.678 1455.43 754.391 1457.4 755.816 1459.37 757.954 1459.37 757.954 1459.37 757.954 1459.37 758.667 1460.03 758.667 1460.03 759.379 1460.03 759.379Z" fill="#44718A" fill-rule="evenodd"/><path d="M1440 794.8C1440 764 1440 764 1440 764 1440 764 1440 764 1440 764 1440 764 1440.5 774.5 1441 780.1 1441 785 1441 794.1 1441 794.1 1441 794.8 1441 798.3 1441 799 1441 799 1441 799 1441 799 1440.5 797.6 1440 796.2 1440 794.8Z" fill="#FFFFFF" fill-rule="evenodd"/><path d="M1456.75 794.778C1456.75 796.185 1457.37 798.296 1458 799 1456.75 797.592 1456.12 796.185 1456.12 794.778 1456.12 788.444 1456.12 788.444 1456.12 788.444 1456.12 765.222 1456.12 765.222 1456.12 765.222 1456.12 764.519 1454.87 761 1453 761 1456.75 761 1457.37 764.519 1457.37 766.63L1456.75 794.778Z" fill="#FFFFFF" fill-rule="evenodd"/><path d="M1435 710.5C1435 705.806 1438.36 702 1442.5 702 1446.64 702 1450 705.806 1450 710.5 1450 715.195 1446.64 719 1442.5 719 1438.36 719 1435 715.195 1435 710.5Z" fill="#FFFFFF" fill-rule="evenodd"/><path d="M1475 897C1475 910.807 1464.7 922 1452 922 1439.3 922 1429 910.807 1429 897 1429 883.193 1439.3 872 1452 872 1464.7 872 1475 883.193 1475 897Z" fill="#FFFBC5" fill-rule="evenodd"/><path d="M1475.5 897.5C1475.5 911.307 1465.2 922.5 1452.5 922.5 1439.8 922.5 1429.5 911.307 1429.5 897.5 1429.5 883.693 1439.8 872.5 1452.5 872.5 1465.2 872.5 1475.5 883.693 1475.5 897.5Z" stroke="#333333" stroke-width="2.86476" stroke-miterlimit="8" fill="none" fill-rule="evenodd"/><path d="M1442.97 854.965C1442.97 854.965 1442.31 854.264 1442.31 854.264 1442.31 853.563 1442.31 853.563 1441.66 852.862 1441.66 852.862 1441.66 852.161 1441.66 852.161 1441.66 851.46 1441 851.46 1441 851.46 1441 850.759 1441 850.057 1441 849.356 1441 818.506 1441 818.506 1441 818.506 1441 816.402 1442.31 815 1444.29 815 1446.26 815 1447.57 816.402 1447.57 818.506 1447.57 849.356 1447.57 849.356 1447.57 849.356 1447.57 850.759 1449.54 853.563 1452.17 853.563 1455.46 853.563 1457.43 850.759 1457.43 849.356 1457.43 818.506 1457.43 818.506 1457.43 818.506 1457.43 816.402 1458.74 815 1460.71 815 1462.03 815 1464 816.402 1464 818.506 1464 849.356 1464 849.356 1464 849.356 1464 850.057 1464 850.759 1463.34 851.46 1463.34 851.46 1463.34 851.46 1463.34 852.161 1463.34 852.161 1463.34 852.862 1462.69 852.862 1462.69 853.563 1462.69 853.563 1462.69 853.563 1462.03 854.264 1462.03 854.965 1462.03 854.965 1462.03 854.965 1461.37 855.667 1461.37 855.667 1461.37 856.368 1460.71 857.069 1460.06 857.069 1460.06 857.77 1459.4 857.77 1459.4 858.471 1459.4 858.471 1458.74 858.471 1458.74 858.471 1458.74 859.172 1458.09 859.172 1457.43 859.172 1457.43 859.873 1457.43 859.873 1457.43 859.873 1456.77 859.873 1456.11 860.575 1456.11 860.575 1456.11 872.494 1456.11 872.494 1456.11 872.494 1456.11 873.896 1454.8 876 1452.83 876 1450.86 876 1449.54 873.896 1449.54 872.494 1449.54 860.575 1449.54 860.575 1449.54 860.575 1449.54 860.575 1449.54 860.575 1449.54 860.575 1447.57 859.873 1445.6 858.471 1443.63 856.368 1443.63 856.368 1443.63 856.368 1443.63 855.667 1442.97 855.667 1442.97 854.965 1442.97 854.965Z" fill="#44718A" fill-rule="evenodd"/><path d="M1463 819.32C1463 851 1463 851 1463 851 1463 851 1463 851 1463 851 1463 851 1462 840.2 1461 834.44 1461 829.4 1461 820.04 1461 820.04 1461 819.32 1461 815.72 1461 815 1461 815 1461 815 1461 815 1462 816.44 1463 817.88 1463 819.32Z" fill="#FFFFFF" fill-rule="evenodd"/><path d="M1446.25 819.333C1446.25 817.889 1445.62 815.722 1445 815 1446.25 816.444 1446.88 817.889 1446.88 819.333 1446.88 825.833 1446.88 825.833 1446.88 825.833 1446.88 849.667 1446.88 849.667 1446.88 849.667 1446.88 850.389 1448.12 854 1450 854 1446.25 854 1445.62 850.389 1445.62 848.222L1446.25 819.333Z" fill="#FFFFFF" fill-rule="evenodd"/><path d="M1468 904C1468 908.418 1464.64 912 1460.5 912 1456.36 912 1453 908.418 1453 904 1453 899.582 1456.36 896 1460.5 896 1464.64 896 1468 899.582 1468 904Z" fill="#FFFFFF" fill-rule="evenodd"/><path d="M1475 717C1475 703.193 1485.3 692 1498 692 1510.7 692 1521 703.193 1521 717 1521 730.807 1510.7 742 1498 742 1485.3 742 1475 730.807 1475 717Z" fill="#FFFBC5" fill-rule="evenodd"/><path d="M1475.5 717.5C1475.5 703.693 1485.8 692.5 1498.5 692.5 1511.2 692.5 1521.5 703.693 1521.5 717.5 1521.5 731.307 1511.2 742.5 1498.5 742.5 1485.8 742.5 1475.5 731.307 1475.5 717.5Z" stroke="#333333" stroke-width="2.86476" stroke-miterlimit="8" fill="none" fill-rule="evenodd"/><path d="M1507.03 759.379C1507.03 759.379 1507.69 760.092 1507.69 760.092 1507.69 760.805 1507.69 760.805 1508.34 761.517 1508.34 761.517 1508.34 762.23 1508.34 762.23 1508.34 762.943 1509 762.943 1509 762.943 1509 763.655 1509 764.368 1509 765.08 1509 796.437 1509 796.437 1509 796.437 1509 798.575 1507.69 800 1505.71 800 1503.74 800 1502.43 798.575 1502.43 796.437 1502.43 765.08 1502.43 765.08 1502.43 765.08 1502.43 763.655 1500.46 760.805 1497.83 760.805 1494.54 760.805 1492.57 763.655 1492.57 765.08 1492.57 796.437 1492.57 796.437 1492.57 796.437 1492.57 798.575 1491.26 800 1489.29 800 1487.97 800 1486 798.575 1486 796.437 1486 765.08 1486 765.08 1486 765.08 1486 764.368 1486 763.655 1486.66 762.943 1486.66 762.943 1486.66 762.943 1486.66 762.23 1486.66 762.23 1486.66 761.517 1487.31 761.517 1487.31 760.805 1487.31 760.805 1487.31 760.805 1487.97 760.092 1487.97 759.379 1487.97 759.379 1487.97 759.379 1488.63 758.667 1488.63 758.667 1488.63 757.954 1489.29 757.241 1489.94 757.241 1489.94 756.529 1490.6 756.529 1490.6 755.816 1490.6 755.816 1491.26 755.816 1491.26 755.816 1491.26 755.103 1491.91 755.103 1492.57 755.103 1492.57 754.391 1492.57 754.391 1492.57 754.391 1493.23 754.391 1493.89 753.678 1493.89 753.678 1493.89 741.563 1493.89 741.563 1493.89 741.563 1493.89 740.138 1495.2 738 1497.17 738 1499.14 738 1500.46 740.138 1500.46 741.563 1500.46 753.678 1500.46 753.678 1500.46 753.678 1500.46 753.678 1500.46 753.678 1500.46 753.678 1502.43 754.391 1504.4 755.816 1506.37 757.954 1506.37 757.954 1506.37 757.954 1506.37 758.667 1507.03 758.667 1507.03 759.379 1507.03 759.379Z" fill="#44718A" fill-rule="evenodd"/><path d="M1488 794.8C1488 764 1488 764 1488 764 1488 764 1488 764 1488 764 1488 764 1488.5 774.5 1489 780.1 1489 785 1489 794.1 1489 794.1 1489 794.8 1489 798.3 1489 799 1489 799 1489 799 1489 799 1488.5 797.6 1488 796.2 1488 794.8Z" fill="#FFFFFF" fill-rule="evenodd"/><path d="M1503.75 794.778C1503.75 796.185 1504.38 798.296 1505 799 1503.75 797.592 1503.12 796.185 1503.12 794.778 1503.12 788.444 1503.12 788.444 1503.12 788.444 1503.12 765.222 1503.12 765.222 1503.12 765.222 1503.12 764.519 1501.88 761 1500 761 1503.75 761 1504.38 764.519 1504.38 766.63L1503.75 794.778Z" fill="#FFFFFF" fill-rule="evenodd"/><path d="M1482 710.5C1482 705.806 1485.58 702 1490 702 1494.42 702 1498 705.806 1498 710.5 1498 715.195 1494.42 719 1490 719 1485.58 719 1482 715.195 1482 710.5Z" fill="#FFFFFF" fill-rule="evenodd"/><path d="M1523 897C1523 910.807 1512.7 922 1500 922 1487.3 922 1477 910.807 1477 897 1477 883.193 1487.3 872 1500 872 1512.7 872 1523 883.193 1523 897Z" fill="#FFFBC5" fill-rule="evenodd"/><path d="M1523.5 897.5C1523.5 911.307 1513.2 922.5 1500.5 922.5 1487.8 922.5 1477.5 911.307 1477.5 897.5 1477.5 883.693 1487.8 872.5 1500.5 872.5 1513.2 872.5 1523.5 883.693 1523.5 897.5Z" stroke="#333333" stroke-width="2.86476" stroke-miterlimit="8" fill="none" fill-rule="evenodd"/><path d="M1490.06 854.965C1490.06 854.965 1489.37 854.264 1489.37 854.264 1489.37 853.563 1489.37 853.563 1488.69 852.862 1488.69 852.862 1488.69 852.161 1488.69 852.161 1488.69 851.46 1488 851.46 1488 851.46 1488 850.759 1488 850.057 1488 849.356 1488 818.506 1488 818.506 1488 818.506 1488 816.402 1489.37 815 1491.43 815 1493.49 815 1494.86 816.402 1494.86 818.506 1494.86 849.356 1494.86 849.356 1494.86 849.356 1494.86 850.759 1496.91 853.563 1499.66 853.563 1503.09 853.563 1505.14 850.759 1505.14 849.356 1505.14 818.506 1505.14 818.506 1505.14 818.506 1505.14 816.402 1506.51 815 1508.57 815 1509.94 815 1512 816.402 1512 818.506 1512 849.356 1512 849.356 1512 849.356 1512 850.057 1512 850.759 1511.31 851.46 1511.31 851.46 1511.31 851.46 1511.31 852.161 1511.31 852.161 1511.31 852.862 1510.63 852.862 1510.63 853.563 1510.63 853.563 1510.63 853.563 1509.94 854.264 1509.94 854.965 1509.94 854.965 1509.94 854.965 1509.26 855.667 1509.26 855.667 1509.26 856.368 1508.57 857.069 1507.89 857.069 1507.89 857.77 1507.2 857.77 1507.2 858.471 1507.2 858.471 1506.51 858.471 1506.51 858.471 1506.51 859.172 1505.83 859.172 1505.14 859.172 1505.14 859.873 1505.14 859.873 1505.14 859.873 1504.46 859.873 1503.77 860.575 1503.77 860.575 1503.77 872.494 1503.77 872.494 1503.77 872.494 1503.77 873.896 1502.4 876 1500.34 876 1498.29 876 1496.91 873.896 1496.91 872.494 1496.91 860.575 1496.91 860.575 1496.91 860.575 1496.91 860.575 1496.91 860.575 1496.91 860.575 1494.86 859.873 1492.8 858.471 1490.74 856.368 1490.74 856.368 1490.74 856.368 1490.74 855.667 1490.06 855.667 1490.06 854.965 1490.06 854.965Z" fill="#44718A" fill-rule="evenodd"/><path d="M1510 819.32C1510 851 1510 851 1510 851 1510 851 1510 851 1510 851 1510 851 1509.5 840.2 1509 834.44 1509 829.4 1509 820.04 1509 820.04 1509 819.32 1509 815.72 1509 815 1509 815 1509 815 1509 815 1509.5 816.44 1510 817.88 1510 819.32Z" fill="#FFFFFF" fill-rule="evenodd"/><path d="M1493.5 819.333C1493.5 817.889 1492.75 815.722 1492 815 1493.5 816.444 1494.25 817.889 1494.25 819.333 1494.25 825.833 1494.25 825.833 1494.25 825.833 1494.25 849.667 1494.25 849.667 1494.25 849.667 1494.25 850.389 1495.75 854 1498 854 1493.5 854 1492.75 850.389 1492.75 848.222L1493.5 819.333Z" fill="#FFFFFF" fill-rule="evenodd"/><path d="M1516 904C1516 908.418 1512.42 912 1508 912 1503.58 912 1500 908.418 1500 904 1500 899.582 1503.58 896 1508 896 1512.42 896 1516 899.582 1516 904Z" fill="#FFFFFF" fill-rule="evenodd"/><path d="M1524 717C1524 703.193 1534.3 692 1547 692 1559.7 692 1570 703.193 1570 717 1570 730.807 1559.7 742 1547 742 1534.3 742 1524 730.807 1524 717Z" fill="#FFFBC5" fill-rule="evenodd"/><path d="M1524.5 717.5C1524.5 703.693 1534.8 692.5 1547.5 692.5 1560.2 692.5 1570.5 703.693 1570.5 717.5 1570.5 731.307 1560.2 742.5 1547.5 742.5 1534.8 742.5 1524.5 731.307 1524.5 717.5Z" stroke="#333333" stroke-width="2.86476" stroke-miterlimit="8" fill="none" fill-rule="evenodd"/><path d="M1556.03 759.379C1556.03 759.379 1556.69 760.092 1556.69 760.092 1556.69 760.805 1556.69 760.805 1557.34 761.517 1557.34 761.517 1557.34 762.23 1557.34 762.23 1557.34 762.943 1558 762.943 1558 762.943 1558 763.655 1558 764.368 1558 765.08 1558 796.437 1558 796.437 1558 796.437 1558 798.575 1556.69 800 1554.71 800 1552.74 800 1551.43 798.575 1551.43 796.437 1551.43 765.08 1551.43 765.08 1551.43 765.08 1551.43 763.655 1549.46 760.805 1546.83 760.805 1543.54 760.805 1541.57 763.655 1541.57 765.08 1541.57 796.437 1541.57 796.437 1541.57 796.437 1541.57 798.575 1540.26 800 1538.29 800 1536.97 800 1535 798.575 1535 796.437 1535 765.08 1535 765.08 1535 765.08 1535 764.368 1535 763.655 1535.66 762.943 1535.66 762.943 1535.66 762.943 1535.66 762.23 1535.66 762.23 1535.66 761.517 1536.31 761.517 1536.31 760.805 1536.31 760.805 1536.31 760.805 1536.97 760.092 1536.97 759.379 1536.97 759.379 1536.97 759.379 1537.63 758.667 1537.63 758.667 1537.63 757.954 1538.29 757.241 1538.94 757.241 1538.94 756.529 1539.6 756.529 1539.6 755.816 1539.6 755.816 1540.26 755.816 1540.26 755.816 1540.26 755.103 1540.91 755.103 1541.57 755.103 1541.57 754.391 1541.57 754.391 1541.57 754.391 1542.23 754.391 1542.89 753.678 1542.89 753.678 1542.89 741.563 1542.89 741.563 1542.89 741.563 1542.89 740.138 1544.2 738 1546.17 738 1548.14 738 1549.46 740.138 1549.46 741.563 1549.46 753.678 1549.46 753.678 1549.46 753.678 1549.46 753.678 1549.46 753.678 1549.46 753.678 1551.43 754.391 1553.4 755.816 1555.37 757.954 1555.37 757.954 1555.37 757.954 1555.37 758.667 1556.03 758.667 1556.03 759.379 1556.03 759.379Z" fill="#44718A" fill-rule="evenodd"/><path d="M1536 794.8C1536 764 1536 764 1536 764 1536 764 1536 764 1536 764 1536 764 1536.5 774.5 1537 780.1 1537 785 1537 794.1 1537 794.1 1537 794.8 1537 798.3 1537 799 1537 799 1537 799 1537 799 1536.5 797.6 1536 796.2 1536 794.8Z" fill="#FFFFFF" fill-rule="evenodd"/><path d="M1552.75 794.778C1552.75 796.185 1553.38 798.296 1554 799 1552.75 797.592 1552.12 796.185 1552.12 794.778 1552.12 788.444 1552.12 788.444 1552.12 788.444 1552.12 765.222 1552.12 765.222 1552.12 765.222 1552.12 764.519 1550.88 761 1549 761 1552.75 761 1553.38 764.519 1553.38 766.63L1552.75 794.778Z" fill="#FFFFFF" fill-rule="evenodd"/><path d="M1531 710.5C1531 705.806 1534.36 702 1538.5 702 1542.64 702 1546 705.806 1546 710.5 1546 715.195 1542.64 719 1538.5 719 1534.36 719 1531 715.195 1531 710.5Z" fill="#FFFFFF" fill-rule="evenodd"/><path d="M1571 897C1571 910.807 1560.7 922 1548 922 1535.3 922 1525 910.807 1525 897 1525 883.193 1535.3 872 1548 872 1560.7 872 1571 883.193 1571 897Z" fill="#FFFBC5" fill-rule="evenodd"/><path d="M1571.5 897.5C1571.5 911.307 1561.2 922.5 1548.5 922.5 1535.8 922.5 1525.5 911.307 1525.5 897.5 1525.5 883.693 1535.8 872.5 1548.5 872.5 1561.2 872.5 1571.5 883.693 1571.5 897.5Z" stroke="#333333" stroke-width="2.86476" stroke-miterlimit="8" fill="none" fill-rule="evenodd"/><path d="M1538.97 854.965C1538.97 854.965 1538.31 854.264 1538.31 854.264 1538.31 853.563 1538.31 853.563 1537.66 852.862 1537.66 852.862 1537.66 852.161 1537.66 852.161 1537.66 851.46 1537 851.46 1537 851.46 1537 850.759 1537 850.057 1537 849.356 1537 818.506 1537 818.506 1537 818.506 1537 816.402 1538.31 815 1540.29 815 1542.26 815 1543.57 816.402 1543.57 818.506 1543.57 849.356 1543.57 849.356 1543.57 849.356 1543.57 850.759 1545.54 853.563 1548.17 853.563 1551.46 853.563 1553.43 850.759 1553.43 849.356 1553.43 818.506 1553.43 818.506 1553.43 818.506 1553.43 816.402 1554.74 815 1556.71 815 1558.03 815 1560 816.402 1560 818.506 1560 849.356 1560 849.356 1560 849.356 1560 850.057 1560 850.759 1559.34 851.46 1559.34 851.46 1559.34 851.46 1559.34 852.161 1559.34 852.161 1559.34 852.862 1558.69 852.862 1558.69 853.563 1558.69 853.563 1558.69 853.563 1558.03 854.264 1558.03 854.965 1558.03 854.965 1558.03 854.965 1557.37 855.667 1557.37 855.667 1557.37 856.368 1556.71 857.069 1556.06 857.069 1556.06 857.77 1555.4 857.77 1555.4 858.471 1555.4 858.471 1554.74 858.471 1554.74 858.471 1554.74 859.172 1554.09 859.172 1553.43 859.172 1553.43 859.873 1553.43 859.873 1553.43 859.873 1552.77 859.873 1552.11 860.575 1552.11 860.575 1552.11 872.494 1552.11 872.494 1552.11 872.494 1552.11 873.896 1550.8 876 1548.83 876 1546.86 876 1545.54 873.896 1545.54 872.494 1545.54 860.575 1545.54 860.575 1545.54 860.575 1545.54 860.575 1545.54 860.575 1545.54 860.575 1543.57 859.873 1541.6 858.471 1539.63 856.368 1539.63 856.368 1539.63 856.368 1539.63 855.667 1538.97 855.667 1538.97 854.965 1538.97 854.965Z" fill="#44718A" fill-rule="evenodd"/><path d="M1559 819.32C1559 851 1559 851 1559 851 1559 851 1559 851 1559 851 1559 851 1558 840.2 1557 834.44 1557 829.4 1557 820.04 1557 820.04 1557 819.32 1557 815.72 1557 815 1557 815 1557 815 1557 815 1558 816.44 1559 817.88 1559 819.32Z" fill="#FFFFFF" fill-rule="evenodd"/><path d="M1542.25 819.333C1542.25 817.889 1541.62 815.722 1541 815 1542.25 816.444 1542.88 817.889 1542.88 819.333 1542.88 825.833 1542.88 825.833 1542.88 825.833 1542.88 849.667 1542.88 849.667 1542.88 849.667 1542.88 850.389 1544.12 854 1546 854 1542.25 854 1541.62 850.389 1541.62 848.222L1542.25 819.333Z" fill="#FFFFFF" fill-rule="evenodd"/><path d="M1564 904C1564 908.418 1560.64 912 1556.5 912 1552.36 912 1549 908.418 1549 904 1549 899.582 1552.36 896 1556.5 896 1560.64 896 1564 899.582 1564 904Z" fill="#FFFFFF" fill-rule="evenodd"/><path d="M1574 717C1574 703.193 1584.3 692 1597 692 1609.7 692 1620 703.193 1620 717 1620 730.807 1609.7 742 1597 742 1584.3 742 1574 730.807 1574 717Z" fill="#FFFBC5" fill-rule="evenodd"/><path d="M1574.5 717.5C1574.5 703.693 1584.8 692.5 1597.5 692.5 1610.2 692.5 1620.5 703.693 1620.5 717.5 1620.5 731.307 1610.2 742.5 1597.5 742.5 1584.8 742.5 1574.5 731.307 1574.5 717.5Z" stroke="#333333" stroke-width="2.86476" stroke-miterlimit="8" fill="none" fill-rule="evenodd"/><path d="M1606.03 759.379C1606.03 759.379 1606.69 760.092 1606.69 760.092 1606.69 760.805 1606.69 760.805 1607.34 761.517 1607.34 761.517 1607.34 762.23 1607.34 762.23 1607.34 762.943 1608 762.943 1608 762.943 1608 763.655 1608 764.368 1608 765.08 1608 796.437 1608 796.437 1608 796.437 1608 798.575 1606.69 800 1604.71 800 1602.74 800 1601.43 798.575 1601.43 796.437 1601.43 765.08 1601.43 765.08 1601.43 765.08 1601.43 763.655 1599.46 760.805 1596.83 760.805 1593.54 760.805 1591.57 763.655 1591.57 765.08 1591.57 796.437 1591.57 796.437 1591.57 796.437 1591.57 798.575 1590.26 800 1588.29 800 1586.97 800 1585 798.575 1585 796.437 1585 765.08 1585 765.08 1585 765.08 1585 764.368 1585 763.655 1585.66 762.943 1585.66 762.943 1585.66 762.943 1585.66 762.23 1585.66 762.23 1585.66 761.517 1586.31 761.517 1586.31 760.805 1586.31 760.805 1586.31 760.805 1586.97 760.092 1586.97 759.379 1586.97 759.379 1586.97 759.379 1587.63 758.667 1587.63 758.667 1587.63 757.954 1588.29 757.241 1588.94 757.241 1588.94 756.529 1589.6 756.529 1589.6 755.816 1589.6 755.816 1590.26 755.816 1590.26 755.816 1590.26 755.103 1590.91 755.103 1591.57 755.103 1591.57 754.391 1591.57 754.391 1591.57 754.391 1592.23 754.391 1592.89 753.678 1592.89 753.678 1592.89 741.563 1592.89 741.563 1592.89 741.563 1592.89 740.138 1594.2 738 1596.17 738 1598.14 738 1599.46 740.138 1599.46 741.563 1599.46 753.678 1599.46 753.678 1599.46 753.678 1599.46 753.678 1599.46 753.678 1599.46 753.678 1601.43 754.391 1603.4 755.816 1605.37 757.954 1605.37 757.954 1605.37 757.954 1605.37 758.667 1606.03 758.667 1606.03 759.379 1606.03 759.379Z" fill="#44718A" fill-rule="evenodd"/><path d="M1587 794.8C1587 764 1587 764 1587 764 1587 764 1587 764 1587 764 1587 764 1587.5 774.5 1588 780.1 1588 785 1588 794.1 1588 794.1 1588 794.8 1588 798.3 1588 799 1588 799 1588 799 1588 799 1587.5 797.6 1587 796.2 1587 794.8Z" fill="#FFFFFF" fill-rule="evenodd"/><path d="M1602.75 794.778C1602.75 796.185 1603.38 798.296 1604 799 1602.75 797.592 1602.12 796.185 1602.12 794.778 1602.12 788.444 1602.12 788.444 1602.12 788.444 1602.12 765.222 1602.12 765.222 1602.12 765.222 1602.12 764.519 1600.88 761 1599 761 1602.75 761 1603.38 764.519 1603.38 766.63L1602.75 794.778Z" fill="#FFFFFF" fill-rule="evenodd"/><path d="M1581 710.5C1581 705.806 1584.58 702 1589 702 1593.42 702 1597 705.806 1597 710.5 1597 715.195 1593.42 719 1589 719 1584.58 719 1581 715.195 1581 710.5Z" fill="#FFFFFF" fill-rule="evenodd"/><path d="M1622 897C1622 910.807 1611.7 922 1599 922 1586.3 922 1576 910.807 1576 897 1576 883.193 1586.3 872 1599 872 1611.7 872 1622 883.193 1622 897Z" fill="#FFFBC5" fill-rule="evenodd"/><path d="M1622.5 897.5C1622.5 911.307 1612.2 922.5 1599.5 922.5 1586.8 922.5 1576.5 911.307 1576.5 897.5 1576.5 883.693 1586.8 872.5 1599.5 872.5 1612.2 872.5 1622.5 883.693 1622.5 897.5Z" stroke="#333333" stroke-width="2.86476" stroke-miterlimit="8" fill="none" fill-rule="evenodd"/><path d="M1589.97 854.965C1589.97 854.965 1589.31 854.264 1589.31 854.264 1589.31 853.563 1589.31 853.563 1588.66 852.862 1588.66 852.862 1588.66 852.161 1588.66 852.161 1588.66 851.46 1588 851.46 1588 851.46 1588 850.759 1588 850.057 1588 849.356 1588 818.506 1588 818.506 1588 818.506 1588 816.402 1589.31 815 1591.29 815 1593.26 815 1594.57 816.402 1594.57 818.506 1594.57 849.356 1594.57 849.356 1594.57 849.356 1594.57 850.759 1596.54 853.563 1599.17 853.563 1602.46 853.563 1604.43 850.759 1604.43 849.356 1604.43 818.506 1604.43 818.506 1604.43 818.506 1604.43 816.402 1605.74 815 1607.71 815 1609.03 815 1611 816.402 1611 818.506 1611 849.356 1611 849.356 1611 849.356 1611 850.057 1611 850.759 1610.34 851.46 1610.34 851.46 1610.34 851.46 1610.34 852.161 1610.34 852.161 1610.34 852.862 1609.69 852.862 1609.69 853.563 1609.69 853.563 1609.69 853.563 1609.03 854.264 1609.03 854.965 1609.03 854.965 1609.03 854.965 1608.37 855.667 1608.37 855.667 1608.37 856.368 1607.71 857.069 1607.06 857.069 1607.06 857.77 1606.4 857.77 1606.4 858.471 1606.4 858.471 1605.74 858.471 1605.74 858.471 1605.74 859.172 1605.09 859.172 1604.43 859.172 1604.43 859.873 1604.43 859.873 1604.43 859.873 1603.77 859.873 1603.11 860.575 1603.11 860.575 1603.11 872.494 1603.11 872.494 1603.11 872.494 1603.11 873.896 1601.8 876 1599.83 876 1597.86 876 1596.54 873.896 1596.54 872.494 1596.54 860.575 1596.54 860.575 1596.54 860.575 1596.54 860.575 1596.54 860.575 1596.54 860.575 1594.57 859.873 1592.6 858.471 1590.63 856.368 1590.63 856.368 1590.63 856.368 1590.63 855.667 1589.97 855.667 1589.97 854.965 1589.97 854.965Z" fill="#44718A" fill-rule="evenodd"/><path d="M1609 819.32C1609 851 1609 851 1609 851 1609 851 1609 851 1609 851 1609 851 1608.5 840.2 1608 834.44 1608 829.4 1608 820.04 1608 820.04 1608 819.32 1608 815.72 1608 815 1608 815 1608 815 1608 815 1608.5 816.44 1609 817.88 1609 819.32Z" fill="#FFFFFF" fill-rule="evenodd"/><path d="M1592.5 819.333C1592.5 817.889 1591.75 815.722 1591 815 1592.5 816.444 1593.25 817.889 1593.25 819.333 1593.25 825.833 1593.25 825.833 1593.25 825.833 1593.25 849.667 1593.25 849.667 1593.25 849.667 1593.25 850.389 1594.75 854 1597 854 1592.5 854 1591.75 850.389 1591.75 848.222L1592.5 819.333Z" fill="#FFFFFF" fill-rule="evenodd"/><path d="M1615 904C1615 908.418 1611.42 912 1607 912 1602.58 912 1599 908.418 1599 904 1599 899.582 1602.58 896 1607 896 1611.42 896 1615 899.582 1615 904Z" fill="#FFFFFF" fill-rule="evenodd"/><path d="M1623 717C1623 703.193 1633.3 692 1646 692 1658.7 692 1669 703.193 1669 717 1669 730.807 1658.7 742 1646 742 1633.3 742 1623 730.807 1623 717Z" fill="#FFFBC5" fill-rule="evenodd"/><path d="M1623.5 717.5C1623.5 703.693 1633.8 692.5 1646.5 692.5 1659.2 692.5 1669.5 703.693 1669.5 717.5 1669.5 731.307 1659.2 742.5 1646.5 742.5 1633.8 742.5 1623.5 731.307 1623.5 717.5Z" stroke="#333333" stroke-width="2.86476" stroke-miterlimit="8" fill="none" fill-rule="evenodd"/><path d="M1655.94 759.379C1655.94 759.379 1656.63 760.092 1656.63 760.092 1656.63 760.805 1656.63 760.805 1657.31 761.517 1657.31 761.517 1657.31 762.23 1657.31 762.23 1657.31 762.943 1658 762.943 1658 762.943 1658 763.655 1658 764.368 1658 765.08 1658 796.437 1658 796.437 1658 796.437 1658 798.575 1656.63 800 1654.57 800 1652.51 800 1651.14 798.575 1651.14 796.437 1651.14 765.08 1651.14 765.08 1651.14 765.08 1651.14 763.655 1649.09 760.805 1646.34 760.805 1642.91 760.805 1640.86 763.655 1640.86 765.08 1640.86 796.437 1640.86 796.437 1640.86 796.437 1640.86 798.575 1639.49 800 1637.43 800 1636.06 800 1634 798.575 1634 796.437 1634 765.08 1634 765.08 1634 765.08 1634 764.368 1634 763.655 1634.69 762.943 1634.69 762.943 1634.69 762.943 1634.69 762.23 1634.69 762.23 1634.69 761.517 1635.37 761.517 1635.37 760.805 1635.37 760.805 1635.37 760.805 1636.06 760.092 1636.06 759.379 1636.06 759.379 1636.06 759.379 1636.74 758.667 1636.74 758.667 1636.74 757.954 1637.43 757.241 1638.11 757.241 1638.11 756.529 1638.8 756.529 1638.8 755.816 1638.8 755.816 1639.49 755.816 1639.49 755.816 1639.49 755.103 1640.17 755.103 1640.86 755.103 1640.86 754.391 1640.86 754.391 1640.86 754.391 1641.54 754.391 1642.23 753.678 1642.23 753.678 1642.23 741.563 1642.23 741.563 1642.23 741.563 1642.23 740.138 1643.6 738 1645.66 738 1647.71 738 1649.09 740.138 1649.09 741.563 1649.09 753.678 1649.09 753.678 1649.09 753.678 1649.09 753.678 1649.09 753.678 1649.09 753.678 1651.14 754.391 1653.2 755.816 1655.26 757.954 1655.26 757.954 1655.26 757.954 1655.26 758.667 1655.94 758.667 1655.94 759.379 1655.94 759.379Z" fill="#44718A" fill-rule="evenodd"/><path d="M1636 794.8C1636 764 1636 764 1636 764 1636 764 1636 764 1636 764 1636 764 1636.5 774.5 1637 780.1 1637 785 1637 794.1 1637 794.1 1637 794.8 1637 798.3 1637 799 1637 799 1637 799 1637 799 1636.5 797.6 1636 796.2 1636 794.8Z" fill="#FFFFFF" fill-rule="evenodd"/><path d="M1652.5 794.778C1652.5 796.185 1653.25 798.296 1654 799 1652.5 797.592 1651.75 796.185 1651.75 794.778 1651.75 788.444 1651.75 788.444 1651.75 788.444 1651.75 765.222 1651.75 765.222 1651.75 765.222 1651.75 764.519 1650.25 761 1648 761 1652.5 761 1653.25 764.519 1653.25 766.63L1652.5 794.778Z" fill="#FFFFFF" fill-rule="evenodd"/><path d="M1630 710.5C1630 705.806 1633.58 702 1638 702 1642.42 702 1646 705.806 1646 710.5 1646 715.195 1642.42 719 1638 719 1633.58 719 1630 715.195 1630 710.5Z" fill="#FFFFFF" fill-rule="evenodd"/><path d="M1671 897C1671 910.807 1660.7 922 1648 922 1635.3 922 1625 910.807 1625 897 1625 883.193 1635.3 872 1648 872 1660.7 872 1671 883.193 1671 897Z" fill="#FFFBC5" fill-rule="evenodd"/><path d="M1671.5 897.5C1671.5 911.307 1661.2 922.5 1648.5 922.5 1635.8 922.5 1625.5 911.307 1625.5 897.5 1625.5 883.693 1635.8 872.5 1648.5 872.5 1661.2 872.5 1671.5 883.693 1671.5 897.5Z" stroke="#333333" stroke-width="2.86476" stroke-miterlimit="8" fill="none" fill-rule="evenodd"/><path d="M1638.97 854.965C1638.97 854.965 1638.31 854.264 1638.31 854.264 1638.31 853.563 1638.31 853.563 1637.66 852.862 1637.66 852.862 1637.66 852.161 1637.66 852.161 1637.66 851.46 1637 851.46 1637 851.46 1637 850.759 1637 850.057 1637 849.356 1637 818.506 1637 818.506 1637 818.506 1637 816.402 1638.31 815 1640.29 815 1642.26 815 1643.57 816.402 1643.57 818.506 1643.57 849.356 1643.57 849.356 1643.57 849.356 1643.57 850.759 1645.54 853.563 1648.17 853.563 1651.46 853.563 1653.43 850.759 1653.43 849.356 1653.43 818.506 1653.43 818.506 1653.43 818.506 1653.43 816.402 1654.74 815 1656.71 815 1658.03 815 1660 816.402 1660 818.506 1660 849.356 1660 849.356 1660 849.356 1660 850.057 1660 850.759 1659.34 851.46 1659.34 851.46 1659.34 851.46 1659.34 852.161 1659.34 852.161 1659.34 852.862 1658.69 852.862 1658.69 853.563 1658.69 853.563 1658.69 853.563 1658.03 854.264 1658.03 854.965 1658.03 854.965 1658.03 854.965 1657.37 855.667 1657.37 855.667 1657.37 856.368 1656.71 857.069 1656.06 857.069 1656.06 857.77 1655.4 857.77 1655.4 858.471 1655.4 858.471 1654.74 858.471 1654.74 858.471 1654.74 859.172 1654.09 859.172 1653.43 859.172 1653.43 859.873 1653.43 859.873 1653.43 859.873 1652.77 859.873 1652.11 860.575 1652.11 860.575 1652.11 872.494 1652.11 872.494 1652.11 872.494 1652.11 873.896 1650.8 876 1648.83 876 1646.86 876 1645.54 873.896 1645.54 872.494 1645.54 860.575 1645.54 860.575 1645.54 860.575 1645.54 860.575 1645.54 860.575 1645.54 860.575 1643.57 859.873 1641.6 858.471 1639.63 856.368 1639.63 856.368 1639.63 856.368 1639.63 855.667 1638.97 855.667 1638.97 854.965 1638.97 854.965Z" fill="#44718A" fill-rule="evenodd"/><path d="M1659 819.32C1659 851 1659 851 1659 851 1659 851 1659 851 1659 851 1659 851 1658 840.2 1657 834.44 1657 829.4 1657 820.04 1657 820.04 1657 819.32 1657 815.72 1657 815 1657 815 1657 815 1657 815 1658 816.44 1659 817.88 1659 819.32Z" fill="#FFFFFF" fill-rule="evenodd"/><path d="M1642.25 819.333C1642.25 817.889 1641.62 815.722 1641 815 1642.25 816.444 1642.88 817.889 1642.88 819.333 1642.88 825.833 1642.88 825.833 1642.88 825.833 1642.88 849.667 1642.88 849.667 1642.88 849.667 1642.88 850.389 1644.12 854 1646 854 1642.25 854 1641.62 850.389 1641.62 848.222L1642.25 819.333Z" fill="#FFFFFF" fill-rule="evenodd"/><path d="M1664 904C1664 908.418 1660.64 912 1656.5 912 1652.36 912 1649 908.418 1649 904 1649 899.582 1652.36 896 1656.5 896 1660.64 896 1664 899.582 1664 904Z" fill="#FFFFFF" fill-rule="evenodd"/><path d="M1671 717C1671 703.193 1681.3 692 1694 692 1706.7 692 1717 703.193 1717 717 1717 730.807 1706.7 742 1694 742 1681.3 742 1671 730.807 1671 717Z" fill="#FFFBC5" fill-rule="evenodd"/><path d="M1671.5 717.5C1671.5 703.693 1681.8 692.5 1694.5 692.5 1707.2 692.5 1717.5 703.693 1717.5 717.5 1717.5 731.307 1707.2 742.5 1694.5 742.5 1681.8 742.5 1671.5 731.307 1671.5 717.5Z" stroke="#333333" stroke-width="2.86476" stroke-miterlimit="8" fill="none" fill-rule="evenodd"/><path d="M1703.03 759.379C1703.03 759.379 1703.69 760.092 1703.69 760.092 1703.69 760.805 1703.69 760.805 1704.34 761.517 1704.34 761.517 1704.34 762.23 1704.34 762.23 1704.34 762.943 1705 762.943 1705 762.943 1705 763.655 1705 764.368 1705 765.08 1705 796.437 1705 796.437 1705 796.437 1705 798.575 1703.69 800 1701.71 800 1699.74 800 1698.43 798.575 1698.43 796.437 1698.43 765.08 1698.43 765.08 1698.43 765.08 1698.43 763.655 1696.46 760.805 1693.83 760.805 1690.54 760.805 1688.57 763.655 1688.57 765.08 1688.57 796.437 1688.57 796.437 1688.57 796.437 1688.57 798.575 1687.26 800 1685.29 800 1683.97 800 1682 798.575 1682 796.437 1682 765.08 1682 765.08 1682 765.08 1682 764.368 1682 763.655 1682.66 762.943 1682.66 762.943 1682.66 762.943 1682.66 762.23 1682.66 762.23 1682.66 761.517 1683.31 761.517 1683.31 760.805 1683.31 760.805 1683.31 760.805 1683.97 760.092 1683.97 759.379 1683.97 759.379 1683.97 759.379 1684.63 758.667 1684.63 758.667 1684.63 757.954 1685.29 757.241 1685.94 757.241 1685.94 756.529 1686.6 756.529 1686.6 755.816 1686.6 755.816 1687.26 755.816 1687.26 755.816 1687.26 755.103 1687.91 755.103 1688.57 755.103 1688.57 754.391 1688.57 754.391 1688.57 754.391 1689.23 754.391 1689.89 753.678 1689.89 753.678 1689.89 741.563 1689.89 741.563 1689.89 741.563 1689.89 740.138 1691.2 738 1693.17 738 1695.14 738 1696.46 740.138 1696.46 741.563 1696.46 753.678 1696.46 753.678 1696.46 753.678 1696.46 753.678 1696.46 753.678 1696.46 753.678 1698.43 754.391 1700.4 755.816 1702.37 757.954 1702.37 757.954 1702.37 757.954 1702.37 758.667 1703.03 758.667 1703.03 759.379 1703.03 759.379Z" fill="#44718A" fill-rule="evenodd"/><path d="M1683 794.8C1683 764 1683 764 1683 764 1683 764 1683 764 1683 764 1683 764 1684 774.5 1685 780.1 1685 785 1685 794.1 1685 794.1 1685 794.8 1685 798.3 1685 799 1685 799 1685 799 1685 799 1684 797.6 1683 796.2 1683 794.8Z" fill="#FFFFFF" fill-rule="evenodd"/><path d="M1699.75 794.778C1699.75 796.185 1700.38 798.296 1701 799 1699.75 797.592 1699.12 796.185 1699.12 794.778 1699.12 788.444 1699.12 788.444 1699.12 788.444 1699.12 765.222 1699.12 765.222 1699.12 765.222 1699.12 764.519 1697.88 761 1696 761 1699.75 761 1700.38 764.519 1700.38 766.63L1699.75 794.778Z" fill="#FFFFFF" fill-rule="evenodd"/><path d="M1678 710.5C1678 705.806 1681.36 702 1685.5 702 1689.64 702 1693 705.806 1693 710.5 1693 715.195 1689.64 719 1685.5 719 1681.36 719 1678 715.195 1678 710.5Z" fill="#FFFFFF" fill-rule="evenodd"/><path d="M1719 897C1719 910.807 1708.48 922 1695.5 922 1682.52 922 1672 910.807 1672 897 1672 883.193 1682.52 872 1695.5 872 1708.48 872 1719 883.193 1719 897Z" fill="#FFFBC5" fill-rule="evenodd"/><path d="M1719.5 897.5C1719.5 911.307 1708.98 922.5 1696 922.5 1683.02 922.5 1672.5 911.307 1672.5 897.5 1672.5 883.693 1683.02 872.5 1696 872.5 1708.98 872.5 1719.5 883.693 1719.5 897.5Z" stroke="#333333" stroke-width="2.86476" stroke-miterlimit="8" fill="none" fill-rule="evenodd"/><path d="M1686.06 854.965C1686.06 854.965 1685.37 854.264 1685.37 854.264 1685.37 853.563 1685.37 853.563 1684.69 852.862 1684.69 852.862 1684.69 852.161 1684.69 852.161 1684.69 851.46 1684 851.46 1684 851.46 1684 850.759 1684 850.057 1684 849.356 1684 818.506 1684 818.506 1684 818.506 1684 816.402 1685.37 815 1687.43 815 1689.49 815 1690.86 816.402 1690.86 818.506 1690.86 849.356 1690.86 849.356 1690.86 849.356 1690.86 850.759 1692.91 853.563 1695.66 853.563 1699.09 853.563 1701.14 850.759 1701.14 849.356 1701.14 818.506 1701.14 818.506 1701.14 818.506 1701.14 816.402 1702.51 815 1704.57 815 1705.94 815 1708 816.402 1708 818.506 1708 849.356 1708 849.356 1708 849.356 1708 850.057 1708 850.759 1707.31 851.46 1707.31 851.46 1707.31 851.46 1707.31 852.161 1707.31 852.161 1707.31 852.862 1706.63 852.862 1706.63 853.563 1706.63 853.563 1706.63 853.563 1705.94 854.264 1705.94 854.965 1705.94 854.965 1705.94 854.965 1705.26 855.667 1705.26 855.667 1705.26 856.368 1704.57 857.069 1703.89 857.069 1703.89 857.77 1703.2 857.77 1703.2 858.471 1703.2 858.471 1702.51 858.471 1702.51 858.471 1702.51 859.172 1701.83 859.172 1701.14 859.172 1701.14 859.873 1701.14 859.873 1701.14 859.873 1700.46 859.873 1699.77 860.575 1699.77 860.575 1699.77 872.494 1699.77 872.494 1699.77 872.494 1699.77 873.896 1698.4 876 1696.34 876 1694.29 876 1692.91 873.896 1692.91 872.494 1692.91 860.575 1692.91 860.575 1692.91 860.575 1692.91 860.575 1692.91 860.575 1692.91 860.575 1690.86 859.873 1688.8 858.471 1686.74 856.368 1686.74 856.368 1686.74 856.368 1686.74 855.667 1686.06 855.667 1686.06 854.965 1686.06 854.965Z" fill="#44718A" fill-rule="evenodd"/><path d="M1706 819.32C1706 851 1706 851 1706 851 1706 851 1706 851 1706 851 1706 851 1705.5 840.2 1705 834.44 1705 829.4 1705 820.04 1705 820.04 1705 819.32 1705 815.72 1705 815 1705 815 1705 815 1705 815 1705.5 816.44 1706 817.88 1706 819.32Z" fill="#FFFFFF" fill-rule="evenodd"/><path d="M1689.5 819.333C1689.5 817.889 1688.75 815.722 1688 815 1689.5 816.444 1690.25 817.889 1690.25 819.333 1690.25 825.833 1690.25 825.833 1690.25 825.833 1690.25 849.667 1690.25 849.667 1690.25 849.667 1690.25 850.389 1691.75 854 1694 854 1689.5 854 1688.75 850.389 1688.75 848.222L1689.5 819.333Z" fill="#FFFFFF" fill-rule="evenodd"/><path d="M1711 904C1711 908.418 1707.64 912 1703.5 912 1699.36 912 1696 908.418 1696 904 1696 899.582 1699.36 896 1703.5 896 1707.64 896 1711 899.582 1711 904Z" fill="#FFFFFF" fill-rule="evenodd"/><path d="M1719 717C1719 703.193 1729.52 692 1742.5 692 1755.48 692 1766 703.193 1766 717 1766 730.807 1755.48 742 1742.5 742 1729.52 742 1719 730.807 1719 717Z" fill="#FFFBC5" fill-rule="evenodd"/><path d="M1719.5 717.5C1719.5 703.693 1730.02 692.5 1743 692.5 1755.98 692.5 1766.5 703.693 1766.5 717.5 1766.5 731.307 1755.98 742.5 1743 742.5 1730.02 742.5 1719.5 731.307 1719.5 717.5Z" stroke="#333333" stroke-width="2.86476" stroke-miterlimit="8" fill="none" fill-rule="evenodd"/><path d="M1751.94 759.379C1751.94 759.379 1752.63 760.092 1752.63 760.092 1752.63 760.805 1752.63 760.805 1753.31 761.517 1753.31 761.517 1753.31 762.23 1753.31 762.23 1753.31 762.943 1754 762.943 1754 762.943 1754 763.655 1754 764.368 1754 765.08 1754 796.437 1754 796.437 1754 796.437 1754 798.575 1752.63 800 1750.57 800 1748.51 800 1747.14 798.575 1747.14 796.437 1747.14 765.08 1747.14 765.08 1747.14 765.08 1747.14 763.655 1745.09 760.805 1742.34 760.805 1738.91 760.805 1736.86 763.655 1736.86 765.08 1736.86 796.437 1736.86 796.437 1736.86 796.437 1736.86 798.575 1735.49 800 1733.43 800 1732.06 800 1730 798.575 1730 796.437 1730 765.08 1730 765.08 1730 765.08 1730 764.368 1730 763.655 1730.69 762.943 1730.69 762.943 1730.69 762.943 1730.69 762.23 1730.69 762.23 1730.69 761.517 1731.37 761.517 1731.37 760.805 1731.37 760.805 1731.37 760.805 1732.06 760.092 1732.06 759.379 1732.06 759.379 1732.06 759.379 1732.74 758.667 1732.74 758.667 1732.74 757.954 1733.43 757.241 1734.11 757.241 1734.11 756.529 1734.8 756.529 1734.8 755.816 1734.8 755.816 1735.49 755.816 1735.49 755.816 1735.49 755.103 1736.17 755.103 1736.86 755.103 1736.86 754.391 1736.86 754.391 1736.86 754.391 1737.54 754.391 1738.23 753.678 1738.23 753.678 1738.23 741.563 1738.23 741.563 1738.23 741.563 1738.23 740.138 1739.6 738 1741.66 738 1743.71 738 1745.09 740.138 1745.09 741.563 1745.09 753.678 1745.09 753.678 1745.09 753.678 1745.09 753.678 1745.09 753.678 1745.09 753.678 1747.14 754.391 1749.2 755.816 1751.26 757.954 1751.26 757.954 1751.26 757.954 1751.26 758.667 1751.94 758.667 1751.94 759.379 1751.94 759.379Z" fill="#44718A" fill-rule="evenodd"/><path d="M1732 794.8C1732 764 1732 764 1732 764 1732 764 1732 764 1732 764 1732 764 1732.5 774.5 1733 780.1 1733 785 1733 794.1 1733 794.1 1733 794.8 1733 798.3 1733 799 1733 799 1733 799 1733 799 1732.5 797.6 1732 796.2 1732 794.8Z" fill="#FFFFFF" fill-rule="evenodd"/><path d="M1748.5 794.778C1748.5 796.185 1749.25 798.296 1750 799 1748.5 797.592 1747.75 796.185 1747.75 794.778 1747.75 788.444 1747.75 788.444 1747.75 788.444 1747.75 765.222 1747.75 765.222 1747.75 765.222 1747.75 764.519 1746.25 761 1744 761 1748.5 761 1749.25 764.519 1749.25 766.63L1748.5 794.778Z" fill="#FFFFFF" fill-rule="evenodd"/><path d="M1726 710.5C1726 705.806 1729.58 702 1734 702 1738.42 702 1742 705.806 1742 710.5 1742 715.195 1738.42 719 1734 719 1729.58 719 1726 715.195 1726 710.5Z" fill="#FFFFFF" fill-rule="evenodd"/><path d="M1767 897C1767 910.807 1756.7 922 1744 922 1731.3 922 1721 910.807 1721 897 1721 883.193 1731.3 872 1744 872 1756.7 872 1767 883.193 1767 897Z" fill="#FFFBC5" fill-rule="evenodd"/><path d="M1767.5 897.5C1767.5 911.307 1757.2 922.5 1744.5 922.5 1731.8 922.5 1721.5 911.307 1721.5 897.5 1721.5 883.693 1731.8 872.5 1744.5 872.5 1757.2 872.5 1767.5 883.693 1767.5 897.5Z" stroke="#333333" stroke-width="2.86476" stroke-miterlimit="8" fill="none" fill-rule="evenodd"/><path d="M1734.97 854.965C1734.97 854.965 1734.31 854.264 1734.31 854.264 1734.31 853.563 1734.31 853.563 1733.66 852.862 1733.66 852.862 1733.66 852.161 1733.66 852.161 1733.66 851.46 1733 851.46 1733 851.46 1733 850.759 1733 850.057 1733 849.356 1733 818.506 1733 818.506 1733 818.506 1733 816.402 1734.31 815 1736.29 815 1738.26 815 1739.57 816.402 1739.57 818.506 1739.57 849.356 1739.57 849.356 1739.57 849.356 1739.57 850.759 1741.54 853.563 1744.17 853.563 1747.46 853.563 1749.43 850.759 1749.43 849.356 1749.43 818.506 1749.43 818.506 1749.43 818.506 1749.43 816.402 1750.74 815 1752.71 815 1754.03 815 1756 816.402 1756 818.506 1756 849.356 1756 849.356 1756 849.356 1756 850.057 1756 850.759 1755.34 851.46 1755.34 851.46 1755.34 851.46 1755.34 852.161 1755.34 852.161 1755.34 852.862 1754.69 852.862 1754.69 853.563 1754.69 853.563 1754.69 853.563 1754.03 854.264 1754.03 854.965 1754.03 854.965 1754.03 854.965 1753.37 855.667 1753.37 855.667 1753.37 856.368 1752.71 857.069 1752.06 857.069 1752.06 857.77 1751.4 857.77 1751.4 858.471 1751.4 858.471 1750.74 858.471 1750.74 858.471 1750.74 859.172 1750.09 859.172 1749.43 859.172 1749.43 859.873 1749.43 859.873 1749.43 859.873 1748.77 859.873 1748.11 860.575 1748.11 860.575 1748.11 872.494 1748.11 872.494 1748.11 872.494 1748.11 873.896 1746.8 876 1744.83 876 1742.86 876 1741.54 873.896 1741.54 872.494 1741.54 860.575 1741.54 860.575 1741.54 860.575 1741.54 860.575 1741.54 860.575 1741.54 860.575 1739.57 859.873 1737.6 858.471 1735.63 856.368 1735.63 856.368 1735.63 856.368 1735.63 855.667 1734.97 855.667 1734.97 854.965 1734.97 854.965Z" fill="#44718A" fill-rule="evenodd"/><path d="M1755 819.32C1755 851 1755 851 1755 851 1755 851 1755 851 1755 851 1755 851 1754 840.2 1753 834.44 1753 829.4 1753 820.04 1753 820.04 1753 819.32 1753 815.72 1753 815 1753 815 1753 815 1753 815 1754 816.44 1755 817.88 1755 819.32Z" fill="#FFFFFF" fill-rule="evenodd"/><path d="M1738.25 819.333C1738.25 817.889 1737.62 815.722 1737 815 1738.25 816.444 1738.88 817.889 1738.88 819.333 1738.88 825.833 1738.88 825.833 1738.88 825.833 1738.88 849.667 1738.88 849.667 1738.88 849.667 1738.88 850.389 1740.12 854 1742 854 1738.25 854 1737.62 850.389 1737.62 848.222L1738.25 819.333Z" fill="#FFFFFF" fill-rule="evenodd"/><path d="M1760 904C1760 908.418 1756.64 912 1752.5 912 1748.36 912 1745 908.418 1745 904 1745 899.582 1748.36 896 1752.5 896 1756.64 896 1760 899.582 1760 904Z" fill="#FFFFFF" fill-rule="evenodd"/><path d="M1770 716C1770 702.193 1780.3 691 1793 691 1805.7 691 1816 702.193 1816 716 1816 729.807 1805.7 741 1793 741 1780.3 741 1770 729.807 1770 716Z" fill="#FFFBC5" fill-rule="evenodd"/><path d="M1770.5 716.5C1770.5 702.693 1780.8 691.5 1793.5 691.5 1806.2 691.5 1816.5 702.693 1816.5 716.5 1816.5 730.307 1806.2 741.5 1793.5 741.5 1780.8 741.5 1770.5 730.307 1770.5 716.5Z" stroke="#333333" stroke-width="2.86476" stroke-miterlimit="8" fill="none" fill-rule="evenodd"/><path d="M1802.03 757.379C1802.03 757.379 1802.69 758.092 1802.69 758.092 1802.69 758.805 1802.69 758.805 1803.34 759.517 1803.34 759.517 1803.34 760.23 1803.34 760.23 1803.34 760.942 1804 760.942 1804 760.942 1804 761.655 1804 762.368 1804 763.08 1804 794.437 1804 794.437 1804 794.437 1804 796.575 1802.69 798 1800.71 798 1798.74 798 1797.43 796.575 1797.43 794.437 1797.43 763.08 1797.43 763.08 1797.43 763.08 1797.43 761.655 1795.46 758.805 1792.83 758.805 1789.54 758.805 1787.57 761.655 1787.57 763.08 1787.57 794.437 1787.57 794.437 1787.57 794.437 1787.57 796.575 1786.26 798 1784.29 798 1782.97 798 1781 796.575 1781 794.437 1781 763.08 1781 763.08 1781 763.08 1781 762.368 1781 761.655 1781.66 760.942 1781.66 760.942 1781.66 760.942 1781.66 760.23 1781.66 760.23 1781.66 759.517 1782.31 759.517 1782.31 758.805 1782.31 758.805 1782.31 758.805 1782.97 758.092 1782.97 757.379 1782.97 757.379 1782.97 757.379 1783.63 756.667 1783.63 756.667 1783.63 755.954 1784.29 755.241 1784.94 755.241 1784.94 754.529 1785.6 754.529 1785.6 753.816 1785.6 753.816 1786.26 753.816 1786.26 753.816 1786.26 753.103 1786.91 753.103 1787.57 753.103 1787.57 752.391 1787.57 752.391 1787.57 752.391 1788.23 752.391 1788.89 751.678 1788.89 751.678 1788.89 739.563 1788.89 739.563 1788.89 739.563 1788.89 738.138 1790.2 736 1792.17 736 1794.14 736 1795.46 738.138 1795.46 739.563 1795.46 751.678 1795.46 751.678 1795.46 751.678 1795.46 751.678 1795.46 751.678 1795.46 751.678 1797.43 752.391 1799.4 753.816 1801.37 755.954 1801.37 755.954 1801.37 755.954 1801.37 756.667 1802.03 756.667 1802.03 757.379 1802.03 757.379Z" fill="#44718A" fill-rule="evenodd"/><path d="M1782 792.8C1782 762 1782 762 1782 762 1782 762 1782 762 1782 762 1782 762 1783 772.5 1784 778.1 1784 783 1784 792.1 1784 792.1 1784 792.8 1784 796.3 1784 797 1784 797 1784 797 1784 797 1783 795.6 1782 794.2 1782 792.8Z" fill="#FFFFFF" fill-rule="evenodd"/><path d="M1798.75 792.778C1798.75 794.185 1799.38 796.296 1800 797 1798.75 795.593 1798.12 794.185 1798.12 792.778 1798.12 786.445 1798.12 786.445 1798.12 786.445 1798.12 763.222 1798.12 763.222 1798.12 763.222 1798.12 762.519 1796.88 759 1795 759 1798.75 759 1799.38 762.519 1799.38 764.63L1798.75 792.778Z" fill="#FFFFFF" fill-rule="evenodd"/><path d="M1777 709C1777 704.582 1780.36 701 1784.5 701 1788.64 701 1792 704.582 1792 709 1792 713.418 1788.64 717 1784.5 717 1780.36 717 1777 713.418 1777 709Z" fill="#FFFFFF" fill-rule="evenodd"/><path d="M1818 896C1818 909.807 1807.48 921 1794.5 921 1781.52 921 1771 909.807 1771 896 1771 882.193 1781.52 871 1794.5 871 1807.48 871 1818 882.193 1818 896Z" fill="#FFFBC5" fill-rule="evenodd"/><path d="M1818.5 896.5C1818.5 910.307 1807.98 921.5 1795 921.5 1782.02 921.5 1771.5 910.307 1771.5 896.5 1771.5 882.693 1782.02 871.5 1795 871.5 1807.98 871.5 1818.5 882.693 1818.5 896.5Z" stroke="#333333" stroke-width="2.86476" stroke-miterlimit="8" fill="none" fill-rule="evenodd"/><path d="M1785.06 853.621C1785.06 853.621 1784.37 852.908 1784.37 852.908 1784.37 852.195 1784.37 852.195 1783.69 851.483 1783.69 851.483 1783.69 850.77 1783.69 850.77 1783.69 850.057 1783 850.057 1783 850.057 1783 849.345 1783 848.632 1783 847.919 1783 816.563 1783 816.563 1783 816.563 1783 814.425 1784.37 813 1786.43 813 1788.49 813 1789.86 814.425 1789.86 816.563 1789.86 847.919 1789.86 847.919 1789.86 847.919 1789.86 849.345 1791.91 852.195 1794.66 852.195 1798.09 852.195 1800.14 849.345 1800.14 847.919 1800.14 816.563 1800.14 816.563 1800.14 816.563 1800.14 814.425 1801.51 813 1803.57 813 1804.94 813 1807 814.425 1807 816.563 1807 847.919 1807 847.919 1807 847.919 1807 848.632 1807 849.345 1806.31 850.057 1806.31 850.057 1806.31 850.057 1806.31 850.77 1806.31 850.77 1806.31 851.483 1805.63 851.483 1805.63 852.195 1805.63 852.195 1805.63 852.195 1804.94 852.908 1804.94 853.621 1804.94 853.621 1804.94 853.621 1804.26 854.333 1804.26 854.333 1804.26 855.046 1803.57 855.758 1802.89 855.758 1802.89 856.471 1802.2 856.471 1802.2 857.184 1802.2 857.184 1801.51 857.184 1801.51 857.184 1801.51 857.896 1800.83 857.896 1800.14 857.896 1800.14 858.609 1800.14 858.609 1800.14 858.609 1799.46 858.609 1798.77 859.322 1798.77 859.322 1798.77 871.437 1798.77 871.437 1798.77 871.437 1798.77 872.862 1797.4 875 1795.34 875 1793.29 875 1791.91 872.862 1791.91 871.437 1791.91 859.322 1791.91 859.322 1791.91 859.322 1791.91 859.322 1791.91 859.322 1791.91 859.322 1789.86 858.609 1787.8 857.184 1785.74 855.046 1785.74 855.046 1785.74 855.046 1785.74 854.333 1785.06 854.333 1785.06 853.621 1785.06 853.621Z" fill="#44718A" fill-rule="evenodd"/><path d="M1805 818.2C1805 849 1805 849 1805 849 1805 849 1805 849 1805 849 1805 849 1804.5 838.5 1804 832.9 1804 828 1804 818.9 1804 818.9 1804 818.2 1804 814.7 1804 814 1804 814 1804 814 1804 814 1804.5 815.4 1805 816.8 1805 818.2Z" fill="#FFFFFF" fill-rule="evenodd"/><path d="M1788.5 818.222C1788.5 816.815 1787.75 814.704 1787 814 1788.5 815.407 1789.25 816.815 1789.25 818.222 1789.25 824.556 1789.25 824.556 1789.25 824.556 1789.25 847.778 1789.25 847.778 1789.25 847.778 1789.25 848.482 1790.75 852 1793 852 1788.5 852 1787.75 848.482 1787.75 846.371L1788.5 818.222Z" fill="#FFFFFF" fill-rule="evenodd"/><path d="M1810 902.5C1810 907.194 1806.64 911 1802.5 911 1798.36 911 1795 907.194 1795 902.5 1795 897.806 1798.36 894 1802.5 894 1806.64 894 1810 897.806 1810 902.5Z" fill="#FFFFFF" fill-rule="evenodd"/><path d="M1819 716C1819 702.193 1829.3 691 1842 691 1854.7 691 1865 702.193 1865 716 1865 729.807 1854.7 741 1842 741 1829.3 741 1819 729.807 1819 716Z" fill="#FFFBC5" fill-rule="evenodd"/><path d="M1819.5 716.5C1819.5 702.693 1829.8 691.5 1842.5 691.5 1855.2 691.5 1865.5 702.693 1865.5 716.5 1865.5 730.307 1855.2 741.5 1842.5 741.5 1829.8 741.5 1819.5 730.307 1819.5 716.5Z" stroke="#333333" stroke-width="2.86476" stroke-miterlimit="8" fill="none" fill-rule="evenodd"/><path d="M1851.03 757.379C1851.03 757.379 1851.69 758.092 1851.69 758.092 1851.69 758.805 1851.69 758.805 1852.34 759.517 1852.34 759.517 1852.34 760.23 1852.34 760.23 1852.34 760.942 1853 760.942 1853 760.942 1853 761.655 1853 762.368 1853 763.08 1853 794.437 1853 794.437 1853 794.437 1853 796.575 1851.69 798 1849.71 798 1847.74 798 1846.43 796.575 1846.43 794.437 1846.43 763.08 1846.43 763.08 1846.43 763.08 1846.43 761.655 1844.46 758.805 1841.83 758.805 1838.54 758.805 1836.57 761.655 1836.57 763.08 1836.57 794.437 1836.57 794.437 1836.57 794.437 1836.57 796.575 1835.26 798 1833.29 798 1831.97 798 1830 796.575 1830 794.437 1830 763.08 1830 763.08 1830 763.08 1830 762.368 1830 761.655 1830.66 760.942 1830.66 760.942 1830.66 760.942 1830.66 760.23 1830.66 760.23 1830.66 759.517 1831.31 759.517 1831.31 758.805 1831.31 758.805 1831.31 758.805 1831.97 758.092 1831.97 757.379 1831.97 757.379 1831.97 757.379 1832.63 756.667 1832.63 756.667 1832.63 755.954 1833.29 755.241 1833.94 755.241 1833.94 754.529 1834.6 754.529 1834.6 753.816 1834.6 753.816 1835.26 753.816 1835.26 753.816 1835.26 753.103 1835.91 753.103 1836.57 753.103 1836.57 752.391 1836.57 752.391 1836.57 752.391 1837.23 752.391 1837.89 751.678 1837.89 751.678 1837.89 739.563 1837.89 739.563 1837.89 739.563 1837.89 738.138 1839.2 736 1841.17 736 1843.14 736 1844.46 738.138 1844.46 739.563 1844.46 751.678 1844.46 751.678 1844.46 751.678 1844.46 751.678 1844.46 751.678 1844.46 751.678 1846.43 752.391 1848.4 753.816 1850.37 755.954 1850.37 755.954 1850.37 755.954 1850.37 756.667 1851.03 756.667 1851.03 757.379 1851.03 757.379Z" fill="#44718A" fill-rule="evenodd"/><path d="M1832 792.8C1832 762 1832 762 1832 762 1832 762 1832 762 1832 762 1832 762 1832.5 772.5 1833 778.1 1833 783 1833 792.1 1833 792.1 1833 792.8 1833 796.3 1833 797 1833 797 1833 797 1833 797 1832.5 795.6 1832 794.2 1832 792.8Z" fill="#FFFFFF" fill-rule="evenodd"/><path d="M1847.75 792.778C1847.75 794.185 1848.38 796.296 1849 797 1847.75 795.593 1847.12 794.185 1847.12 792.778 1847.12 786.445 1847.12 786.445 1847.12 786.445 1847.12 763.222 1847.12 763.222 1847.12 763.222 1847.12 762.519 1845.88 759 1844 759 1847.75 759 1848.38 762.519 1848.38 764.63L1847.75 792.778Z" fill="#FFFFFF" fill-rule="evenodd"/><path d="M1826 709C1826 704.582 1829.58 701 1834 701 1838.42 701 1842 704.582 1842 709 1842 713.418 1838.42 717 1834 717 1829.58 717 1826 713.418 1826 709Z" fill="#FFFFFF" fill-rule="evenodd"/><path d="M1867 896C1867 909.807 1856.7 921 1844 921 1831.3 921 1821 909.807 1821 896 1821 882.193 1831.3 871 1844 871 1856.7 871 1867 882.193 1867 896Z" fill="#FFFBC5" fill-rule="evenodd"/><path d="M1867.5 896.5C1867.5 910.307 1857.2 921.5 1844.5 921.5 1831.8 921.5 1821.5 910.307 1821.5 896.5 1821.5 882.693 1831.8 871.5 1844.5 871.5 1857.2 871.5 1867.5 882.693 1867.5 896.5Z" stroke="#333333" stroke-width="2.86476" stroke-miterlimit="8" fill="none" fill-rule="evenodd"/><path d="M1834.06 853.621C1834.06 853.621 1833.37 852.908 1833.37 852.908 1833.37 852.195 1833.37 852.195 1832.69 851.483 1832.69 851.483 1832.69 850.77 1832.69 850.77 1832.69 850.057 1832 850.057 1832 850.057 1832 849.345 1832 848.632 1832 847.919 1832 816.563 1832 816.563 1832 816.563 1832 814.425 1833.37 813 1835.43 813 1837.49 813 1838.86 814.425 1838.86 816.563 1838.86 847.919 1838.86 847.919 1838.86 847.919 1838.86 849.345 1840.91 852.195 1843.66 852.195 1847.09 852.195 1849.14 849.345 1849.14 847.919 1849.14 816.563 1849.14 816.563 1849.14 816.563 1849.14 814.425 1850.51 813 1852.57 813 1853.94 813 1856 814.425 1856 816.563 1856 847.919 1856 847.919 1856 847.919 1856 848.632 1856 849.345 1855.31 850.057 1855.31 850.057 1855.31 850.057 1855.31 850.77 1855.31 850.77 1855.31 851.483 1854.63 851.483 1854.63 852.195 1854.63 852.195 1854.63 852.195 1853.94 852.908 1853.94 853.621 1853.94 853.621 1853.94 853.621 1853.26 854.333 1853.26 854.333 1853.26 855.046 1852.57 855.758 1851.89 855.758 1851.89 856.471 1851.2 856.471 1851.2 857.184 1851.2 857.184 1850.51 857.184 1850.51 857.184 1850.51 857.896 1849.83 857.896 1849.14 857.896 1849.14 858.609 1849.14 858.609 1849.14 858.609 1848.46 858.609 1847.77 859.322 1847.77 859.322 1847.77 871.437 1847.77 871.437 1847.77 871.437 1847.77 872.862 1846.4 875 1844.34 875 1842.29 875 1840.91 872.862 1840.91 871.437 1840.91 859.322 1840.91 859.322 1840.91 859.322 1840.91 859.322 1840.91 859.322 1840.91 859.322 1838.86 858.609 1836.8 857.184 1834.74 855.046 1834.74 855.046 1834.74 855.046 1834.74 854.333 1834.06 854.333 1834.06 853.621 1834.06 853.621Z" fill="#44718A" fill-rule="evenodd"/><path d="M1854 818.2C1854 849 1854 849 1854 849 1854 849 1854 849 1854 849 1854 849 1853.5 838.5 1853 832.9 1853 828 1853 818.9 1853 818.9 1853 818.2 1853 814.7 1853 814 1853 814 1853 814 1853 814 1853.5 815.4 1854 816.8 1854 818.2Z" fill="#FFFFFF" fill-rule="evenodd"/><path d="M1837.5 818.222C1837.5 816.815 1836.75 814.704 1836 814 1837.5 815.407 1838.25 816.815 1838.25 818.222 1838.25 824.556 1838.25 824.556 1838.25 824.556 1838.25 847.778 1838.25 847.778 1838.25 847.778 1838.25 848.482 1839.75 852 1842 852 1837.5 852 1836.75 848.482 1836.75 846.371L1837.5 818.222Z" fill="#FFFFFF" fill-rule="evenodd"/><path d="M1860 902.5C1860 907.194 1856.42 911 1852 911 1847.58 911 1844 907.194 1844 902.5 1844 897.806 1847.58 894 1852 894 1856.42 894 1860 897.806 1860 902.5Z" fill="#FFFFFF" fill-rule="evenodd"/><path d="M1867 716C1867 702.193 1877.3 691 1890 691 1902.7 691 1913 702.193 1913 716 1913 729.807 1902.7 741 1890 741 1877.3 741 1867 729.807 1867 716Z" fill="#FFFBC5" fill-rule="evenodd"/><path d="M1867.5 716.5C1867.5 702.693 1877.8 691.5 1890.5 691.5 1903.2 691.5 1913.5 702.693 1913.5 716.5 1913.5 730.307 1903.2 741.5 1890.5 741.5 1877.8 741.5 1867.5 730.307 1867.5 716.5Z" stroke="#333333" stroke-width="2.86476" stroke-miterlimit="8" fill="none" fill-rule="evenodd"/><path d="M1899.03 757.379C1899.03 757.379 1899.69 758.092 1899.69 758.092 1899.69 758.805 1899.69 758.805 1900.34 759.517 1900.34 759.517 1900.34 760.23 1900.34 760.23 1900.34 760.942 1901 760.942 1901 760.942 1901 761.655 1901 762.368 1901 763.08 1901 794.437 1901 794.437 1901 794.437 1901 796.575 1899.69 798 1897.71 798 1895.74 798 1894.43 796.575 1894.43 794.437 1894.43 763.08 1894.43 763.08 1894.43 763.08 1894.43 761.655 1892.46 758.805 1889.83 758.805 1886.54 758.805 1884.57 761.655 1884.57 763.08 1884.57 794.437 1884.57 794.437 1884.57 794.437 1884.57 796.575 1883.26 798 1881.29 798 1879.97 798 1878 796.575 1878 794.437 1878 763.08 1878 763.08 1878 763.08 1878 762.368 1878 761.655 1878.66 760.942 1878.66 760.942 1878.66 760.942 1878.66 760.23 1878.66 760.23 1878.66 759.517 1879.31 759.517 1879.31 758.805 1879.31 758.805 1879.31 758.805 1879.97 758.092 1879.97 757.379 1879.97 757.379 1879.97 757.379 1880.63 756.667 1880.63 756.667 1880.63 755.954 1881.29 755.241 1881.94 755.241 1881.94 754.529 1882.6 754.529 1882.6 753.816 1882.6 753.816 1883.26 753.816 1883.26 753.816 1883.26 753.103 1883.91 753.103 1884.57 753.103 1884.57 752.391 1884.57 752.391 1884.57 752.391 1885.23 752.391 1885.89 751.678 1885.89 751.678 1885.89 739.563 1885.89 739.563 1885.89 739.563 1885.89 738.138 1887.2 736 1889.17 736 1891.14 736 1892.46 738.138 1892.46 739.563 1892.46 751.678 1892.46 751.678 1892.46 751.678 1892.46 751.678 1892.46 751.678 1892.46 751.678 1894.43 752.391 1896.4 753.816 1898.37 755.954 1898.37 755.954 1898.37 755.954 1898.37 756.667 1899.03 756.667 1899.03 757.379 1899.03 757.379Z" fill="#44718A" fill-rule="evenodd"/><path d="M1879 792.8C1879 762 1879 762 1879 762 1879 762 1879 762 1879 762 1879 762 1879.5 772.5 1880 778.1 1880 783 1880 792.1 1880 792.1 1880 792.8 1880 796.3 1880 797 1880 797 1880 797 1880 797 1879.5 795.6 1879 794.2 1879 792.8Z" fill="#FFFFFF" fill-rule="evenodd"/><path d="M1895.75 792.778C1895.75 794.185 1896.38 796.296 1897 797 1895.75 795.593 1895.13 794.185 1895.13 792.778 1895.13 786.445 1895.13 786.445 1895.13 786.445 1895.13 763.222 1895.13 763.222 1895.13 763.222 1895.13 762.519 1893.88 759 1892 759 1895.75 759 1896.38 762.519 1896.38 764.63L1895.75 792.778Z" fill="#FFFFFF" fill-rule="evenodd"/><path d="M1874 709C1874 704.582 1877.36 701 1881.5 701 1885.64 701 1889 704.582 1889 709 1889 713.418 1885.64 717 1881.5 717 1877.36 717 1874 713.418 1874 709Z" fill="#FFFFFF" fill-rule="evenodd"/><path d="M1914 896C1914 909.807 1903.7 921 1891 921 1878.3 921 1868 909.807 1868 896 1868 882.193 1878.3 871 1891 871 1903.7 871 1914 882.193 1914 896Z" fill="#FFFBC5" fill-rule="evenodd"/><path d="M1914.5 896.5C1914.5 910.307 1904.2 921.5 1891.5 921.5 1878.8 921.5 1868.5 910.307 1868.5 896.5 1868.5 882.693 1878.8 871.5 1891.5 871.5 1904.2 871.5 1914.5 882.693 1914.5 896.5Z" stroke="#333333" stroke-width="2.86476" stroke-miterlimit="8" fill="none" fill-rule="evenodd"/><path d="M1881.97 853.621C1881.97 853.621 1881.31 852.908 1881.31 852.908 1881.31 852.195 1881.31 852.195 1880.66 851.483 1880.66 851.483 1880.66 850.77 1880.66 850.77 1880.66 850.057 1880 850.057 1880 850.057 1880 849.345 1880 848.632 1880 847.919 1880 816.563 1880 816.563 1880 816.563 1880 814.425 1881.31 813 1883.29 813 1885.26 813 1886.57 814.425 1886.57 816.563 1886.57 847.919 1886.57 847.919 1886.57 847.919 1886.57 849.345 1888.54 852.195 1891.17 852.195 1894.46 852.195 1896.43 849.345 1896.43 847.919 1896.43 816.563 1896.43 816.563 1896.43 816.563 1896.43 814.425 1897.74 813 1899.71 813 1901.03 813 1903 814.425 1903 816.563 1903 847.919 1903 847.919 1903 847.919 1903 848.632 1903 849.345 1902.34 850.057 1902.34 850.057 1902.34 850.057 1902.34 850.77 1902.34 850.77 1902.34 851.483 1901.69 851.483 1901.69 852.195 1901.69 852.195 1901.69 852.195 1901.03 852.908 1901.03 853.621 1901.03 853.621 1901.03 853.621 1900.37 854.333 1900.37 854.333 1900.37 855.046 1899.71 855.758 1899.06 855.758 1899.06 856.471 1898.4 856.471 1898.4 857.184 1898.4 857.184 1897.74 857.184 1897.74 857.184 1897.74 857.896 1897.09 857.896 1896.43 857.896 1896.43 858.609 1896.43 858.609 1896.43 858.609 1895.77 858.609 1895.11 859.322 1895.11 859.322 1895.11 871.437 1895.11 871.437 1895.11 871.437 1895.11 872.862 1893.8 875 1891.83 875 1889.86 875 1888.54 872.862 1888.54 871.437 1888.54 859.322 1888.54 859.322 1888.54 859.322 1888.54 859.322 1888.54 859.322 1888.54 859.322 1886.57 858.609 1884.6 857.184 1882.63 855.046 1882.63 855.046 1882.63 855.046 1882.63 854.333 1881.97 854.333 1881.97 853.621 1881.97 853.621Z" fill="#44718A" fill-rule="evenodd"/><path d="M1902 818.2C1902 849 1902 849 1902 849 1902 849 1902 849 1902 849 1902 849 1901.5 838.5 1901 832.9 1901 828 1901 818.9 1901 818.9 1901 818.2 1901 814.7 1901 814 1901 814 1901 814 1901 814 1901.5 815.4 1902 816.8 1902 818.2Z" fill="#FFFFFF" fill-rule="evenodd"/><path d="M1885.25 818.222C1885.25 816.815 1884.62 814.704 1884 814 1885.25 815.407 1885.88 816.815 1885.88 818.222 1885.88 824.556 1885.88 824.556 1885.88 824.556 1885.88 847.778 1885.88 847.778 1885.88 847.778 1885.88 848.482 1887.12 852 1889 852 1885.25 852 1884.62 848.482 1884.62 846.371L1885.25 818.222Z" fill="#FFFFFF" fill-rule="evenodd"/><path d="M1907 902.5C1907 907.194 1903.64 911 1899.5 911 1895.36 911 1892 907.194 1892 902.5 1892 897.806 1895.36 894 1899.5 894 1903.64 894 1907 897.806 1907 902.5Z" fill="#FFFFFF" fill-rule="evenodd"/><path d="M1915 716C1915 702.193 1925.3 691 1938 691 1950.7 691 1961 702.193 1961 716 1961 729.807 1950.7 741 1938 741 1925.3 741 1915 729.807 1915 716Z" fill="#FFFBC5" fill-rule="evenodd"/><path d="M1915.5 716.5C1915.5 702.693 1925.8 691.5 1938.5 691.5 1951.2 691.5 1961.5 702.693 1961.5 716.5 1961.5 730.307 1951.2 741.5 1938.5 741.5 1925.8 741.5 1915.5 730.307 1915.5 716.5Z" stroke="#333333" stroke-width="2.86476" stroke-miterlimit="8" fill="none" fill-rule="evenodd"/><path d="M1947.03 757.379C1947.03 757.379 1947.69 758.092 1947.69 758.092 1947.69 758.805 1947.69 758.805 1948.34 759.517 1948.34 759.517 1948.34 760.23 1948.34 760.23 1948.34 760.942 1949 760.942 1949 760.942 1949 761.655 1949 762.368 1949 763.08 1949 794.437 1949 794.437 1949 794.437 1949 796.575 1947.69 798 1945.71 798 1943.74 798 1942.43 796.575 1942.43 794.437 1942.43 763.08 1942.43 763.08 1942.43 763.08 1942.43 761.655 1940.46 758.805 1937.83 758.805 1934.54 758.805 1932.57 761.655 1932.57 763.08 1932.57 794.437 1932.57 794.437 1932.57 794.437 1932.57 796.575 1931.26 798 1929.29 798 1927.97 798 1926 796.575 1926 794.437 1926 763.08 1926 763.08 1926 763.08 1926 762.368 1926 761.655 1926.66 760.942 1926.66 760.942 1926.66 760.942 1926.66 760.23 1926.66 760.23 1926.66 759.517 1927.31 759.517 1927.31 758.805 1927.31 758.805 1927.31 758.805 1927.97 758.092 1927.97 757.379 1927.97 757.379 1927.97 757.379 1928.63 756.667 1928.63 756.667 1928.63 755.954 1929.29 755.241 1929.94 755.241 1929.94 754.529 1930.6 754.529 1930.6 753.816 1930.6 753.816 1931.26 753.816 1931.26 753.816 1931.26 753.103 1931.91 753.103 1932.57 753.103 1932.57 752.391 1932.57 752.391 1932.57 752.391 1933.23 752.391 1933.89 751.678 1933.89 751.678 1933.89 739.563 1933.89 739.563 1933.89 739.563 1933.89 738.138 1935.2 736 1937.17 736 1939.14 736 1940.46 738.138 1940.46 739.563 1940.46 751.678 1940.46 751.678 1940.46 751.678 1940.46 751.678 1940.46 751.678 1940.46 751.678 1942.43 752.391 1944.4 753.816 1946.37 755.954 1946.37 755.954 1946.37 755.954 1946.37 756.667 1947.03 756.667 1947.03 757.379 1947.03 757.379Z" fill="#44718A" fill-rule="evenodd"/><path d="M1928 792.8C1928 762 1928 762 1928 762 1928 762 1928 762 1928 762 1928 762 1928.5 772.5 1929 778.1 1929 783 1929 792.1 1929 792.1 1929 792.8 1929 796.3 1929 797 1929 797 1929 797 1929 797 1928.5 795.6 1928 794.2 1928 792.8Z" fill="#FFFFFF" fill-rule="evenodd"/><path d="M1943.75 792.778C1943.75 794.185 1944.38 796.296 1945 797 1943.75 795.593 1943.12 794.185 1943.12 792.778 1943.12 786.445 1943.12 786.445 1943.12 786.445 1943.12 763.222 1943.12 763.222 1943.12 763.222 1943.12 762.519 1941.88 759 1940 759 1943.75 759 1944.38 762.519 1944.38 764.63L1943.75 792.778Z" fill="#FFFFFF" fill-rule="evenodd"/><path d="M1922 709C1922 704.582 1925.58 701 1930 701 1934.42 701 1938 704.582 1938 709 1938 713.418 1934.42 717 1930 717 1925.58 717 1922 713.418 1922 709Z" fill="#FFFFFF" fill-rule="evenodd"/><path d="M1963 896C1963 909.807 1952.7 921 1940 921 1927.3 921 1917 909.807 1917 896 1917 882.193 1927.3 871 1940 871 1952.7 871 1963 882.193 1963 896Z" fill="#FFFBC5" fill-rule="evenodd"/><path d="M1963.5 896.5C1963.5 910.307 1953.2 921.5 1940.5 921.5 1927.8 921.5 1917.5 910.307 1917.5 896.5 1917.5 882.693 1927.8 871.5 1940.5 871.5 1953.2 871.5 1963.5 882.693 1963.5 896.5Z" stroke="#333333" stroke-width="2.86476" stroke-miterlimit="8" fill="none" fill-rule="evenodd"/><path d="M1930.97 853.621C1930.97 853.621 1930.31 852.908 1930.31 852.908 1930.31 852.195 1930.31 852.195 1929.66 851.483 1929.66 851.483 1929.66 850.77 1929.66 850.77 1929.66 850.057 1929 850.057 1929 850.057 1929 849.345 1929 848.632 1929 847.919 1929 816.563 1929 816.563 1929 816.563 1929 814.425 1930.31 813 1932.29 813 1934.26 813 1935.57 814.425 1935.57 816.563 1935.57 847.919 1935.57 847.919 1935.57 847.919 1935.57 849.345 1937.54 852.195 1940.17 852.195 1943.46 852.195 1945.43 849.345 1945.43 847.919 1945.43 816.563 1945.43 816.563 1945.43 816.563 1945.43 814.425 1946.74 813 1948.71 813 1950.03 813 1952 814.425 1952 816.563 1952 847.919 1952 847.919 1952 847.919 1952 848.632 1952 849.345 1951.34 850.057 1951.34 850.057 1951.34 850.057 1951.34 850.77 1951.34 850.77 1951.34 851.483 1950.69 851.483 1950.69 852.195 1950.69 852.195 1950.69 852.195 1950.03 852.908 1950.03 853.621 1950.03 853.621 1950.03 853.621 1949.37 854.333 1949.37 854.333 1949.37 855.046 1948.71 855.758 1948.06 855.758 1948.06 856.471 1947.4 856.471 1947.4 857.184 1947.4 857.184 1946.74 857.184 1946.74 857.184 1946.74 857.896 1946.09 857.896 1945.43 857.896 1945.43 858.609 1945.43 858.609 1945.43 858.609 1944.77 858.609 1944.11 859.322 1944.11 859.322 1944.11 871.437 1944.11 871.437 1944.11 871.437 1944.11 872.862 1942.8 875 1940.83 875 1938.86 875 1937.54 872.862 1937.54 871.437 1937.54 859.322 1937.54 859.322 1937.54 859.322 1937.54 859.322 1937.54 859.322 1937.54 859.322 1935.57 858.609 1933.6 857.184 1931.63 855.046 1931.63 855.046 1931.63 855.046 1931.63 854.333 1930.97 854.333 1930.97 853.621 1930.97 853.621Z" fill="#44718A" fill-rule="evenodd"/><path d="M1950 818.2C1950 849 1950 849 1950 849 1950 849 1950 849 1950 849 1950 849 1949.5 838.5 1949 832.9 1949 828 1949 818.9 1949 818.9 1949 818.2 1949 814.7 1949 814 1949 814 1949 814 1949 814 1949.5 815.4 1950 816.8 1950 818.2Z" fill="#FFFFFF" fill-rule="evenodd"/><path d="M1933.5 818.222C1933.5 816.815 1932.75 814.704 1932 814 1933.5 815.407 1934.25 816.815 1934.25 818.222 1934.25 824.556 1934.25 824.556 1934.25 824.556 1934.25 847.778 1934.25 847.778 1934.25 847.778 1934.25 848.482 1935.75 852 1938 852 1933.5 852 1932.75 848.482 1932.75 846.371L1933.5 818.222Z" fill="#FFFFFF" fill-rule="evenodd"/><path d="M1956 902.5C1956 907.194 1952.42 911 1948 911 1943.58 911 1940 907.194 1940 902.5 1940 897.806 1943.58 894 1948 894 1952.42 894 1956 897.806 1956 902.5Z" fill="#FFFFFF" fill-rule="evenodd"/></g></svg>