<svg width="103" height="232" xmlns="http://www.w3.org/2000/svg" xmlns:xlink="http://www.w3.org/1999/xlink" xml:space="preserve" overflow="hidden"><g transform="translate(-981 -692)"><path d="M982 746.5C982 716.953 1004.39 693 1032 693 1059.61 693 1082 716.953 1082 746.5 1082 776.047 1059.61 800 1032 800 1004.39 800 982 776.047 982 746.5Z" fill="#FFFBC5" fill-rule="evenodd"/><path d="M982.5 747C982.5 717.453 1004.89 693.5 1032.5 693.5 1060.11 693.5 1082.5 717.453 1082.5 747 1082.5 776.547 1060.11 800.5 1032.5 800.5 1004.89 800.5 982.5 776.547 982.5 747Z" stroke="#333333" stroke-width="2.86476" stroke-miterlimit="8" fill="none" fill-rule="evenodd"/><path d="M1051.71 836.862C1051.71 836.862 1053.14 838.391 1053.14 838.391 1053.14 839.919 1053.14 839.919 1054.57 841.448 1054.57 841.448 1054.57 842.977 1054.57 842.977 1054.57 844.506 1056 844.506 1056 844.506 1056 846.034 1056 847.563 1056 849.092 1056 916.356 1056 916.356 1056 916.356 1056 920.943 1053.14 924 1048.86 924 1044.57 924 1041.71 920.943 1041.71 916.356 1041.71 849.092 1041.71 849.092 1041.71 849.092 1041.71 846.034 1037.43 839.919 1031.71 839.919 1024.57 839.919 1020.29 846.034 1020.29 849.092 1020.29 916.356 1020.29 916.356 1020.29 916.356 1020.29 920.943 1017.43 924 1013.14 924 1010.29 924 1006 920.943 1006 916.356 1006 849.092 1006 849.092 1006 849.092 1006 847.563 1006 846.034 1007.43 844.506 1007.43 844.506 1007.43 844.506 1007.43 842.977 1007.43 842.977 1007.43 841.448 1008.86 841.448 1008.86 839.919 1008.86 839.919 1008.86 839.919 1010.29 838.391 1010.29 836.862 1010.29 836.862 1010.29 836.862 1011.71 835.333 1011.71 835.333 1011.71 833.805 1013.14 832.276 1014.57 832.276 1014.57 830.747 1016 830.747 1016 829.218 1016 829.218 1017.43 829.218 1017.43 829.218 1017.43 827.69 1018.86 827.69 1020.29 827.69 1020.29 826.161 1020.29 826.161 1020.29 826.161 1021.71 826.161 1023.14 824.632 1023.14 824.632 1023.14 798.644 1023.14 798.644 1023.14 798.644 1023.14 795.586 1026 791 1030.29 791 1034.57 791 1037.43 795.586 1037.43 798.644 1037.43 824.632 1037.43 824.632 1037.43 824.632 1037.43 824.632 1037.43 824.632 1037.43 824.632 1041.71 826.161 1046 829.218 1050.29 833.805 1050.29 833.805 1050.29 833.805 1050.29 835.333 1051.71 835.333 1051.71 836.862 1051.71 836.862Z" fill="#44718A" fill-rule="evenodd"/><path d="M1009 912.88C1009 846 1009 846 1009 846 1009 846 1009 846 1009 846 1009 846 1010.5 868.8 1012 880.96 1012 891.6 1012 911.36 1012 911.36 1012 912.88 1012 920.48 1012 922 1012 922 1012 922 1012 922 1010.5 918.96 1009 915.92 1009 912.88Z" fill="#FFFFFF" fill-rule="evenodd"/><path d="M1045 912.889C1045 915.926 1046.5 920.481 1048 922 1045 918.963 1043.5 915.926 1043.5 912.889 1043.5 899.222 1043.5 899.222 1043.5 899.222 1043.5 849.111 1043.5 849.111 1043.5 849.111 1043.5 847.593 1040.5 840 1036 840 1045 840 1046.5 847.593 1046.5 852.148L1045 912.889Z" fill="#FFFFFF" fill-rule="evenodd"/><path d="M997 732C997 722.059 1004.61 714 1014 714 1023.39 714 1031 722.059 1031 732 1031 741.941 1023.39 750 1014 750 1004.61 750 997 741.941 997 732Z" fill="#FFFFFF" fill-rule="evenodd"/></g></svg>