<svg width="103" height="232" xmlns="http://www.w3.org/2000/svg" xmlns:xlink="http://www.w3.org/1999/xlink" xml:space="preserve" overflow="hidden"><defs><clipPath id="clip0"><rect x="1002" y="1379" width="103" height="232"/></clipPath></defs><g clip-path="url(#clip0)" transform="translate(-1002 -1379)"><path d="M1003 1433.5C1003 1403.95 1025.39 1380 1053 1380 1080.61 1380 1103 1403.95 1103 1433.5 1103 1463.05 1080.61 1487 1053 1487 1025.39 1487 1003 1463.05 1003 1433.5Z" fill="#00A500" fill-rule="evenodd"/><path d="M1003.5 1434C1003.5 1404.45 1025.89 1380.5 1053.5 1380.5 1081.11 1380.5 1103.5 1404.45 1103.5 1434 1103.5 1463.55 1081.11 1487.5 1053.5 1487.5 1025.89 1487.5 1003.5 1463.55 1003.5 1434Z" stroke="#0F6602" stroke-width="2.86476" stroke-miterlimit="8" fill="none" fill-rule="evenodd"/><path d="M1072.71 1523.86C1074.14 1525.39 1074.14 1525.39 1074.14 1525.39 1074.14 1526.92 1074.14 1526.92 1075.57 1528.45 1075.57 1529.98 1075.57 1529.98 1075.57 1529.98 1075.57 1531.51 1077 1531.51 1077 1531.51 1077 1533.03 1077 1534.56 1077 1536.09 1077 1603.36 1077 1603.36 1077 1603.36 1077 1607.94 1074.14 1611 1069.86 1611 1065.57 1611 1062.71 1607.94 1062.71 1603.36 1062.71 1536.09 1062.71 1536.09 1062.71 1536.09 1062.71 1533.03 1058.43 1526.92 1052.71 1526.92 1045.57 1526.92 1041.29 1533.03 1041.29 1536.09 1041.29 1603.36 1041.29 1603.36 1041.29 1603.36 1041.29 1607.94 1038.43 1611 1034.14 1611 1031.29 1611 1027 1607.94 1027 1603.36 1027 1536.09 1027 1536.09 1027 1536.09 1027 1534.56 1027 1533.03 1028.43 1531.51 1028.43 1531.51 1028.43 1531.51 1028.43 1529.98 1028.43 1529.98 1028.43 1528.45 1029.86 1528.45 1029.86 1526.92 1029.86 1526.92 1029.86 1526.92 1031.29 1525.39 1031.29 1523.86 1031.29 1523.86 1032.71 1522.33 1032.71 1522.33 1032.71 1522.33 1032.71 1520.8 1034.14 1519.28 1035.57 1519.28 1035.57 1517.75 1037 1517.75 1037 1516.22 1038.43 1516.22 1038.43 1516.22 1038.43 1516.22 1038.43 1514.69 1039.86 1514.69 1041.29 1514.69 1041.29 1513.16 1041.29 1513.16 1041.29 1513.16 1042.71 1513.16 1044.14 1511.63 1044.14 1511.63 1044.14 1485.64 1044.14 1485.64 1044.14 1485.64 1044.14 1482.59 1047 1478 1051.29 1478 1055.57 1478 1058.43 1482.59 1058.43 1485.64 1058.43 1511.63 1058.43 1511.63 1058.43 1511.63 1058.43 1511.63 1058.43 1511.63 1058.43 1511.63 1062.71 1513.16 1067 1516.22 1071.29 1520.8 1071.29 1520.8 1071.29 1520.8 1071.29 1522.33 1072.71 1522.33 1072.71 1523.86 1072.71 1523.86Z" fill="#2A7A00" fill-rule="evenodd"/><path d="M1030 1599.88C1030 1533 1030 1533 1030 1533 1030 1533 1030 1533 1030 1533 1030 1533 1031.5 1555.8 1033 1567.96 1033 1578.6 1033 1598.36 1033 1598.36 1033 1599.88 1033 1607.48 1033 1609 1033 1609 1033 1609 1033 1609 1031.5 1605.96 1030 1602.92 1030 1599.88Z" fill="#FFFFFF" fill-rule="evenodd"/><path d="M1065.25 1599.89C1065.25 1602.93 1066.62 1607.48 1068 1609 1065.25 1605.96 1063.88 1602.93 1063.88 1599.89 1063.88 1586.22 1063.88 1586.22 1063.88 1586.22 1063.88 1536.11 1063.88 1536.11 1063.88 1536.11 1063.88 1534.59 1061.12 1527 1057 1527 1065.25 1527 1066.62 1534.59 1066.62 1539.15L1065.25 1599.89Z" fill="#FFFFFF" fill-rule="evenodd"/><path d="M1019 1419.5C1019 1409.84 1026.16 1402 1035 1402 1043.84 1402 1051 1409.84 1051 1419.5 1051 1429.16 1043.84 1437 1035 1437 1026.16 1437 1019 1429.16 1019 1419.5Z" fill="#FFFFFF" fill-rule="evenodd"/></g></svg>