<svg width="103" height="232" xmlns="http://www.w3.org/2000/svg" xmlns:xlink="http://www.w3.org/1999/xlink" xml:space="preserve" overflow="hidden"><defs><clipPath id="clip0"><rect x="936" y="1401" width="103" height="232"/></clipPath></defs><g clip-path="url(#clip0)" transform="translate(-936 -1401)"><path d="M937 1455.5C937 1425.95 959.386 1402 987 1402 1014.61 1402 1037 1425.95 1037 1455.5 1037 1485.05 1014.61 1509 987 1509 959.386 1509 937 1485.05 937 1455.5Z" fill="#F09D00" fill-rule="evenodd"/><path d="M937.5 1456C937.5 1426.45 959.886 1402.5 987.5 1402.5 1015.11 1402.5 1037.5 1426.45 1037.5 1456 1037.5 1485.55 1015.11 1509.5 987.5 1509.5 959.886 1509.5 937.5 1485.55 937.5 1456Z" stroke="#333333" stroke-width="2.86476" stroke-miterlimit="8" fill="none" fill-rule="evenodd"/><path d="M1006.71 1545.86C1008.14 1547.39 1008.14 1547.39 1008.14 1547.39 1008.14 1548.92 1008.14 1548.92 1009.57 1550.45 1009.57 1551.98 1009.57 1551.98 1009.57 1551.98 1009.57 1553.51 1011 1553.51 1011 1553.51 1011 1555.03 1011 1556.56 1011 1558.09 1011 1625.36 1011 1625.36 1011 1625.36 1011 1629.94 1008.14 1633 1003.86 1633 999.571 1633 996.714 1629.94 996.714 1625.36 996.714 1558.09 996.714 1558.09 996.714 1558.09 996.714 1555.03 992.429 1548.92 986.714 1548.92 979.571 1548.92 975.286 1555.03 975.286 1558.09 975.286 1625.36 975.286 1625.36 975.286 1625.36 975.286 1629.94 972.429 1633 968.143 1633 965.286 1633 961 1629.94 961 1625.36 961 1558.09 961 1558.09 961 1558.09 961 1556.56 961 1555.03 962.429 1553.51 962.429 1553.51 962.429 1553.51 962.429 1551.98 962.429 1551.98 962.429 1550.45 963.857 1550.45 963.857 1548.92 963.857 1548.92 963.857 1548.92 965.286 1547.39 965.286 1545.86 965.286 1545.86 966.714 1544.33 966.714 1544.33 966.714 1544.33 966.714 1542.8 968.143 1541.28 969.572 1541.28 969.572 1539.75 971 1539.75 971 1538.22 972.429 1538.22 972.429 1538.22 972.429 1538.22 972.429 1536.69 973.857 1536.69 975.286 1536.69 975.286 1535.16 975.286 1535.16 975.286 1535.16 976.714 1535.16 978.143 1533.63 978.143 1533.63 978.143 1507.64 978.143 1507.64 978.143 1507.64 978.143 1504.59 981 1500 985.286 1500 989.571 1500 992.429 1504.59 992.429 1507.64 992.429 1533.63 992.429 1533.63 992.429 1533.63 992.429 1533.63 992.429 1533.63 992.429 1533.63 996.714 1535.16 1001 1538.22 1005.29 1542.8 1005.29 1542.8 1005.29 1542.8 1005.29 1544.33 1006.71 1544.33 1006.71 1545.86 1006.71 1545.86Z" fill="#7C7C7C" fill-rule="evenodd"/><path d="M964 1621.88C964 1555 964 1555 964 1555 964 1555 964 1555 964 1555 964 1555 965.5 1577.8 967 1589.96 967 1600.6 967 1620.36 967 1620.36 967 1621.88 967 1629.48 967 1631 967 1631 967 1631 967 1631 965.5 1627.96 964 1624.92 964 1621.88Z" fill="#FFFFFF" fill-rule="evenodd"/><path d="M1000 1621.89C1000 1624.93 1001.5 1629.48 1003 1631 1000 1627.96 998.5 1624.93 998.5 1621.89 998.5 1608.22 998.5 1608.22 998.5 1608.22 998.5 1558.11 998.5 1558.11 998.5 1558.11 998.5 1556.59 995.5 1549 991 1549 1000 1549 1001.5 1556.59 1001.5 1561.15L1000 1621.89Z" fill="#FFFFFF" fill-rule="evenodd"/><path d="M953 1441.5C953 1431.84 960.163 1424 969 1424 977.836 1424 985 1431.84 985 1441.5 985 1451.16 977.836 1459 969 1459 960.163 1459 953 1451.16 953 1441.5Z" fill="#FFFFFF" fill-rule="evenodd"/></g></svg>