<svg width="783" height="239" xmlns="http://www.w3.org/2000/svg" xmlns:xlink="http://www.w3.org/1999/xlink" xml:space="preserve" overflow="hidden"><g transform="translate(-1136 -1399)"><path d="M1137 1427.5C1137 1413.97 1147.3 1403 1160 1403 1172.7 1403 1183 1413.97 1183 1427.5 1183 1441.03 1172.7 1452 1160 1452 1147.3 1452 1137 1441.03 1137 1427.5Z" fill="#F09D00" fill-rule="evenodd"/><path d="M1137.5 1428C1137.5 1414.47 1147.8 1403.5 1160.5 1403.5 1173.2 1403.5 1183.5 1414.47 1183.5 1428 1183.5 1441.53 1173.2 1452.5 1160.5 1452.5 1147.8 1452.5 1137.5 1441.53 1137.5 1428Z" stroke="#333333" stroke-width="2.86476" stroke-miterlimit="8" fill="none" fill-rule="evenodd"/><path d="M1170.03 1469.38C1170.69 1470.09 1170.69 1470.09 1170.69 1470.09 1170.69 1470.8 1170.69 1470.8 1171.34 1471.52 1171.34 1472.23 1171.34 1472.23 1171.34 1472.23 1171.34 1472.94 1172 1472.94 1172 1472.94 1172 1473.66 1172 1474.37 1172 1475.08 1172 1506.44 1172 1506.44 1172 1506.44 1172 1508.57 1170.69 1510 1168.71 1510 1166.74 1510 1165.43 1508.57 1165.43 1506.44 1165.43 1475.08 1165.43 1475.08 1165.43 1475.08 1165.43 1473.66 1163.46 1470.8 1160.83 1470.8 1157.54 1470.8 1155.57 1473.66 1155.57 1475.08 1155.57 1506.44 1155.57 1506.44 1155.57 1506.44 1155.57 1508.57 1154.26 1510 1152.29 1510 1150.97 1510 1149 1508.57 1149 1506.44 1149 1475.08 1149 1475.08 1149 1475.08 1149 1474.37 1149 1473.66 1149.66 1472.94 1149.66 1472.94 1149.66 1472.94 1149.66 1472.23 1149.66 1472.23 1149.66 1471.52 1150.31 1471.52 1150.31 1470.8 1150.31 1470.8 1150.31 1470.8 1150.97 1470.09 1150.97 1469.38 1150.97 1469.38 1151.63 1468.67 1151.63 1468.67 1151.63 1468.67 1151.63 1467.95 1152.29 1467.24 1152.94 1467.24 1152.94 1466.53 1153.6 1466.53 1153.6 1465.82 1154.26 1465.82 1154.26 1465.82 1154.26 1465.82 1154.26 1465.1 1154.91 1465.1 1155.57 1465.1 1155.57 1464.39 1155.57 1464.39 1155.57 1464.39 1156.23 1464.39 1156.89 1463.68 1156.89 1463.68 1156.89 1451.56 1156.89 1451.56 1156.89 1451.56 1156.89 1450.14 1158.2 1448 1160.17 1448 1162.14 1448 1163.46 1450.14 1163.46 1451.56 1163.46 1463.68 1163.46 1463.68 1163.46 1463.68 1163.46 1463.68 1163.46 1463.68 1163.46 1463.68 1165.43 1464.39 1167.4 1465.82 1169.37 1467.95 1169.37 1467.95 1169.37 1467.95 1169.37 1468.67 1170.03 1468.67 1170.03 1469.38 1170.03 1469.38Z" fill="#7C7C7C" fill-rule="evenodd"/><path d="M1150 1504.8C1150 1474 1150 1474 1150 1474 1150 1474 1150 1474 1150 1474 1150 1474 1150.5 1484.5 1151 1490.1 1151 1495 1151 1504.1 1151 1504.1 1151 1504.8 1151 1508.3 1151 1509 1151 1509 1151 1509 1151 1509 1150.5 1507.6 1150 1506.2 1150 1504.8Z" fill="#FFFFFF" fill-rule="evenodd"/><path d="M1166.5 1504.78C1166.5 1506.19 1167.25 1508.3 1168 1509 1166.5 1507.59 1165.75 1506.19 1165.75 1504.78 1165.75 1498.44 1165.75 1498.44 1165.75 1498.44 1165.75 1475.22 1165.75 1475.22 1165.75 1475.22 1165.75 1474.52 1164.25 1471 1162 1471 1166.5 1471 1167.25 1474.52 1167.25 1476.63L1166.5 1504.78Z" fill="#FFFFFF" fill-rule="evenodd"/><path d="M1145 1421C1145 1416.58 1148.36 1413 1152.5 1413 1156.64 1413 1160 1416.58 1160 1421 1160 1425.42 1156.64 1429 1152.5 1429 1148.36 1429 1145 1425.42 1145 1421Z" fill="#FFFFFF" fill-rule="evenodd"/><path d="M1184 1611.5C1184 1625.03 1173.7 1636 1161 1636 1148.3 1636 1138 1625.03 1138 1611.5 1138 1597.97 1148.3 1587 1161 1587 1173.7 1587 1184 1597.97 1184 1611.5Z" fill="#F09D00" fill-rule="evenodd"/><path d="M1184.5 1612C1184.5 1625.53 1174.2 1636.5 1161.5 1636.5 1148.8 1636.5 1138.5 1625.53 1138.5 1612 1138.5 1598.47 1148.8 1587.5 1161.5 1587.5 1174.2 1587.5 1184.5 1598.47 1184.5 1612Z" stroke="#333333" stroke-width="2.86476" stroke-miterlimit="8" fill="none" fill-rule="evenodd"/><path d="M1151.97 1569.62C1151.31 1568.91 1151.31 1568.91 1151.31 1568.91 1151.31 1568.2 1151.31 1568.2 1150.66 1567.48 1150.66 1566.77 1150.66 1566.77 1150.66 1566.77 1150.66 1566.06 1150 1566.06 1150 1566.06 1150 1565.34 1150 1564.63 1150 1563.92 1150 1532.56 1150 1532.56 1150 1532.56 1150 1530.43 1151.31 1529 1153.29 1529 1155.26 1529 1156.57 1530.43 1156.57 1532.56 1156.57 1563.92 1156.57 1563.92 1156.57 1563.92 1156.57 1565.34 1158.54 1568.2 1161.17 1568.2 1164.46 1568.2 1166.43 1565.34 1166.43 1563.92 1166.43 1532.56 1166.43 1532.56 1166.43 1532.56 1166.43 1530.43 1167.74 1529 1169.71 1529 1171.03 1529 1173 1530.43 1173 1532.56 1173 1563.92 1173 1563.92 1173 1563.92 1173 1564.63 1173 1565.34 1172.34 1566.06 1172.34 1566.06 1172.34 1566.06 1172.34 1566.77 1172.34 1566.77 1172.34 1567.48 1171.69 1567.48 1171.69 1568.2 1171.69 1568.2 1171.69 1568.2 1171.03 1568.91 1171.03 1569.62 1171.03 1569.62 1170.37 1570.33 1170.37 1570.33 1170.37 1570.33 1170.37 1571.05 1169.71 1571.76 1169.06 1571.76 1169.06 1572.47 1168.4 1572.47 1168.4 1573.18 1167.74 1573.18 1167.74 1573.18 1167.74 1573.18 1167.74 1573.9 1167.09 1573.9 1166.43 1573.9 1166.43 1574.61 1166.43 1574.61 1166.43 1574.61 1165.77 1574.61 1165.11 1575.32 1165.11 1575.32 1165.11 1587.44 1165.11 1587.44 1165.11 1587.44 1165.11 1588.86 1163.8 1591 1161.83 1591 1159.86 1591 1158.54 1588.86 1158.54 1587.44 1158.54 1575.32 1158.54 1575.32 1158.54 1575.32 1158.54 1575.32 1158.54 1575.32 1158.54 1575.32 1156.57 1574.61 1154.6 1573.18 1152.63 1571.05 1152.63 1571.05 1152.63 1571.05 1152.63 1570.33 1151.97 1570.33 1151.97 1569.62 1151.97 1569.62Z" fill="#7C7C7C" fill-rule="evenodd"/><path d="M1171 1534.2C1171 1565 1171 1565 1171 1565 1171 1565 1171 1565 1171 1565 1171 1565 1170.5 1554.5 1170 1548.9 1170 1544 1170 1534.9 1170 1534.9 1170 1534.2 1170 1530.7 1170 1530 1170 1530 1170 1530 1170 1530 1170.5 1531.4 1171 1532.8 1171 1534.2Z" fill="#FFFFFF" fill-rule="evenodd"/><path d="M1155.25 1534.22C1155.25 1532.81 1154.62 1530.7 1154 1530 1155.25 1531.41 1155.88 1532.81 1155.88 1534.22 1155.88 1540.56 1155.88 1540.56 1155.88 1540.56 1155.88 1563.78 1155.88 1563.78 1155.88 1563.78 1155.88 1564.48 1157.12 1568 1159 1568 1155.25 1568 1154.62 1564.48 1154.62 1562.37L1155.25 1534.22Z" fill="#FFFFFF" fill-rule="evenodd"/><path d="M1177 1618C1177 1622.42 1173.64 1626 1169.5 1626 1165.36 1626 1162 1622.42 1162 1618 1162 1613.58 1165.36 1610 1169.5 1610 1173.64 1610 1177 1613.58 1177 1618Z" fill="#FFFFFF" fill-rule="evenodd"/><path d="M1186 1427.5C1186 1413.97 1196.52 1403 1209.5 1403 1222.48 1403 1233 1413.97 1233 1427.5 1233 1441.03 1222.48 1452 1209.5 1452 1196.52 1452 1186 1441.03 1186 1427.5Z" fill="#F09D00" fill-rule="evenodd"/><path d="M1186.5 1428C1186.5 1414.47 1197.02 1403.5 1210 1403.5 1222.98 1403.5 1233.5 1414.47 1233.5 1428 1233.5 1441.53 1222.98 1452.5 1210 1452.5 1197.02 1452.5 1186.5 1441.53 1186.5 1428Z" stroke="#333333" stroke-width="2.86476" stroke-miterlimit="8" fill="none" fill-rule="evenodd"/><path d="M1219.03 1469.38C1219.69 1470.09 1219.69 1470.09 1219.69 1470.09 1219.69 1470.8 1219.69 1470.8 1220.34 1471.52 1220.34 1472.23 1220.34 1472.23 1220.34 1472.23 1220.34 1472.94 1221 1472.94 1221 1472.94 1221 1473.66 1221 1474.37 1221 1475.08 1221 1506.44 1221 1506.44 1221 1506.44 1221 1508.57 1219.69 1510 1217.71 1510 1215.74 1510 1214.43 1508.57 1214.43 1506.44 1214.43 1475.08 1214.43 1475.08 1214.43 1475.08 1214.43 1473.66 1212.46 1470.8 1209.83 1470.8 1206.54 1470.8 1204.57 1473.66 1204.57 1475.08 1204.57 1506.44 1204.57 1506.44 1204.57 1506.44 1204.57 1508.57 1203.26 1510 1201.29 1510 1199.97 1510 1198 1508.57 1198 1506.44 1198 1475.08 1198 1475.08 1198 1475.08 1198 1474.37 1198 1473.66 1198.66 1472.94 1198.66 1472.94 1198.66 1472.94 1198.66 1472.23 1198.66 1472.23 1198.66 1471.52 1199.31 1471.52 1199.31 1470.8 1199.31 1470.8 1199.31 1470.8 1199.97 1470.09 1199.97 1469.38 1199.97 1469.38 1200.63 1468.67 1200.63 1468.67 1200.63 1468.67 1200.63 1467.95 1201.29 1467.24 1201.94 1467.24 1201.94 1466.53 1202.6 1466.53 1202.6 1465.82 1203.26 1465.82 1203.26 1465.82 1203.26 1465.82 1203.26 1465.1 1203.91 1465.1 1204.57 1465.1 1204.57 1464.39 1204.57 1464.39 1204.57 1464.39 1205.23 1464.39 1205.89 1463.68 1205.89 1463.68 1205.89 1451.56 1205.89 1451.56 1205.89 1451.56 1205.89 1450.14 1207.2 1448 1209.17 1448 1211.14 1448 1212.46 1450.14 1212.46 1451.56 1212.46 1463.68 1212.46 1463.68 1212.46 1463.68 1212.46 1463.68 1212.46 1463.68 1212.46 1463.68 1214.43 1464.39 1216.4 1465.82 1218.37 1467.95 1218.37 1467.95 1218.37 1467.95 1218.37 1468.67 1219.03 1468.67 1219.03 1469.38 1219.03 1469.38Z" fill="#7C7C7C" fill-rule="evenodd"/><path d="M1199 1504.8C1199 1474 1199 1474 1199 1474 1199 1474 1199 1474 1199 1474 1199 1474 1199.5 1484.5 1200 1490.1 1200 1495 1200 1504.1 1200 1504.1 1200 1504.8 1200 1508.3 1200 1509 1200 1509 1200 1509 1200 1509 1199.5 1507.6 1199 1506.2 1199 1504.8Z" fill="#FFFFFF" fill-rule="evenodd"/><path d="M1215.5 1504.78C1215.5 1506.19 1216.25 1508.3 1217 1509 1215.5 1507.59 1214.75 1506.19 1214.75 1504.78 1214.75 1498.44 1214.75 1498.44 1214.75 1498.44 1214.75 1475.22 1214.75 1475.22 1214.75 1475.22 1214.75 1474.52 1213.25 1471 1211 1471 1215.5 1471 1216.25 1474.52 1216.25 1476.63L1215.5 1504.78Z" fill="#FFFFFF" fill-rule="evenodd"/><path d="M1194 1421C1194 1416.58 1197.36 1413 1201.5 1413 1205.64 1413 1209 1416.58 1209 1421 1209 1425.42 1205.64 1429 1201.5 1429 1197.36 1429 1194 1425.42 1194 1421Z" fill="#FFFFFF" fill-rule="evenodd"/><path d="M1233 1611.5C1233 1625.03 1222.7 1636 1210 1636 1197.3 1636 1187 1625.03 1187 1611.5 1187 1597.97 1197.3 1587 1210 1587 1222.7 1587 1233 1597.97 1233 1611.5Z" fill="#F09D00" fill-rule="evenodd"/><path d="M1233.5 1612C1233.5 1625.53 1223.2 1636.5 1210.5 1636.5 1197.8 1636.5 1187.5 1625.53 1187.5 1612 1187.5 1598.47 1197.8 1587.5 1210.5 1587.5 1223.2 1587.5 1233.5 1598.47 1233.5 1612Z" stroke="#333333" stroke-width="2.86476" stroke-miterlimit="8" fill="none" fill-rule="evenodd"/><path d="M1200.97 1569.62C1200.31 1568.91 1200.31 1568.91 1200.31 1568.91 1200.31 1568.2 1200.31 1568.2 1199.66 1567.48 1199.66 1566.77 1199.66 1566.77 1199.66 1566.77 1199.66 1566.06 1199 1566.06 1199 1566.06 1199 1565.34 1199 1564.63 1199 1563.92 1199 1532.56 1199 1532.56 1199 1532.56 1199 1530.43 1200.31 1529 1202.29 1529 1204.26 1529 1205.57 1530.43 1205.57 1532.56 1205.57 1563.92 1205.57 1563.92 1205.57 1563.92 1205.57 1565.34 1207.54 1568.2 1210.17 1568.2 1213.46 1568.2 1215.43 1565.34 1215.43 1563.92 1215.43 1532.56 1215.43 1532.56 1215.43 1532.56 1215.43 1530.43 1216.74 1529 1218.71 1529 1220.03 1529 1222 1530.43 1222 1532.56 1222 1563.92 1222 1563.92 1222 1563.92 1222 1564.63 1222 1565.34 1221.34 1566.06 1221.34 1566.06 1221.34 1566.06 1221.34 1566.77 1221.34 1566.77 1221.34 1567.48 1220.69 1567.48 1220.69 1568.2 1220.69 1568.2 1220.69 1568.2 1220.03 1568.91 1220.03 1569.62 1220.03 1569.62 1219.37 1570.33 1219.37 1570.33 1219.37 1570.33 1219.37 1571.05 1218.71 1571.76 1218.06 1571.76 1218.06 1572.47 1217.4 1572.47 1217.4 1573.18 1216.74 1573.18 1216.74 1573.18 1216.74 1573.18 1216.74 1573.9 1216.09 1573.9 1215.43 1573.9 1215.43 1574.61 1215.43 1574.61 1215.43 1574.61 1214.77 1574.61 1214.11 1575.32 1214.11 1575.32 1214.11 1587.44 1214.11 1587.44 1214.11 1587.44 1214.11 1588.86 1212.8 1591 1210.83 1591 1208.86 1591 1207.54 1588.86 1207.54 1587.44 1207.54 1575.32 1207.54 1575.32 1207.54 1575.32 1207.54 1575.32 1207.54 1575.32 1207.54 1575.32 1205.57 1574.61 1203.6 1573.18 1201.63 1571.05 1201.63 1571.05 1201.63 1571.05 1201.63 1570.33 1200.97 1570.33 1200.97 1569.62 1200.97 1569.62Z" fill="#7C7C7C" fill-rule="evenodd"/><path d="M1221 1534.2C1221 1565 1221 1565 1221 1565 1221 1565 1221 1565 1221 1565 1221 1565 1220 1554.5 1219 1548.9 1219 1544 1219 1534.9 1219 1534.9 1219 1534.2 1219 1530.7 1219 1530 1219 1530 1219 1530 1219 1530 1220 1531.4 1221 1532.8 1221 1534.2Z" fill="#FFFFFF" fill-rule="evenodd"/><path d="M1204.25 1534.22C1204.25 1532.81 1203.62 1530.7 1203 1530 1204.25 1531.41 1204.88 1532.81 1204.88 1534.22 1204.88 1540.56 1204.88 1540.56 1204.88 1540.56 1204.88 1563.78 1204.88 1563.78 1204.88 1563.78 1204.88 1564.48 1206.12 1568 1208 1568 1204.25 1568 1203.62 1564.48 1203.62 1562.37L1204.25 1534.22Z" fill="#FFFFFF" fill-rule="evenodd"/><path d="M1226 1618C1226 1622.42 1222.64 1626 1218.5 1626 1214.36 1626 1211 1622.42 1211 1618 1211 1613.58 1214.36 1610 1218.5 1610 1222.64 1610 1226 1613.58 1226 1618Z" fill="#FFFFFF" fill-rule="evenodd"/><path d="M1234 1427.5C1234 1413.97 1244.3 1403 1257 1403 1269.7 1403 1280 1413.97 1280 1427.5 1280 1441.03 1269.7 1452 1257 1452 1244.3 1452 1234 1441.03 1234 1427.5Z" fill="#F09D00" fill-rule="evenodd"/><path d="M1234.5 1428C1234.5 1414.47 1244.8 1403.5 1257.5 1403.5 1270.2 1403.5 1280.5 1414.47 1280.5 1428 1280.5 1441.53 1270.2 1452.5 1257.5 1452.5 1244.8 1452.5 1234.5 1441.53 1234.5 1428Z" stroke="#333333" stroke-width="2.86476" stroke-miterlimit="8" fill="none" fill-rule="evenodd"/><path d="M1266.03 1469.38C1266.69 1470.09 1266.69 1470.09 1266.69 1470.09 1266.69 1470.8 1266.69 1470.8 1267.34 1471.52 1267.34 1472.23 1267.34 1472.23 1267.34 1472.23 1267.34 1472.94 1268 1472.94 1268 1472.94 1268 1473.66 1268 1474.37 1268 1475.08 1268 1506.44 1268 1506.44 1268 1506.44 1268 1508.57 1266.69 1510 1264.71 1510 1262.74 1510 1261.43 1508.57 1261.43 1506.44 1261.43 1475.08 1261.43 1475.08 1261.43 1475.08 1261.43 1473.66 1259.46 1470.8 1256.83 1470.8 1253.54 1470.8 1251.57 1473.66 1251.57 1475.08 1251.57 1506.44 1251.57 1506.44 1251.57 1506.44 1251.57 1508.57 1250.26 1510 1248.29 1510 1246.97 1510 1245 1508.57 1245 1506.44 1245 1475.08 1245 1475.08 1245 1475.08 1245 1474.37 1245 1473.66 1245.66 1472.94 1245.66 1472.94 1245.66 1472.94 1245.66 1472.23 1245.66 1472.23 1245.66 1471.52 1246.31 1471.52 1246.31 1470.8 1246.31 1470.8 1246.31 1470.8 1246.97 1470.09 1246.97 1469.38 1246.97 1469.38 1247.63 1468.67 1247.63 1468.67 1247.63 1468.67 1247.63 1467.95 1248.29 1467.24 1248.94 1467.24 1248.94 1466.53 1249.6 1466.53 1249.6 1465.82 1250.26 1465.82 1250.26 1465.82 1250.26 1465.82 1250.26 1465.1 1250.91 1465.1 1251.57 1465.1 1251.57 1464.39 1251.57 1464.39 1251.57 1464.39 1252.23 1464.39 1252.89 1463.68 1252.89 1463.68 1252.89 1451.56 1252.89 1451.56 1252.89 1451.56 1252.89 1450.14 1254.2 1448 1256.17 1448 1258.14 1448 1259.46 1450.14 1259.46 1451.56 1259.46 1463.68 1259.46 1463.68 1259.46 1463.68 1259.46 1463.68 1259.46 1463.68 1259.46 1463.68 1261.43 1464.39 1263.4 1465.82 1265.37 1467.95 1265.37 1467.95 1265.37 1467.95 1265.37 1468.67 1266.03 1468.67 1266.03 1469.38 1266.03 1469.38Z" fill="#7C7C7C" fill-rule="evenodd"/><path d="M1247 1504.8C1247 1474 1247 1474 1247 1474 1247 1474 1247 1474 1247 1474 1247 1474 1247.5 1484.5 1248 1490.1 1248 1495 1248 1504.1 1248 1504.1 1248 1504.8 1248 1508.3 1248 1509 1248 1509 1248 1509 1248 1509 1247.5 1507.6 1247 1506.2 1247 1504.8Z" fill="#FFFFFF" fill-rule="evenodd"/><path d="M1262.75 1504.78C1262.75 1506.19 1263.38 1508.3 1264 1509 1262.75 1507.59 1262.12 1506.19 1262.12 1504.78 1262.12 1498.44 1262.12 1498.44 1262.12 1498.44 1262.12 1475.22 1262.12 1475.22 1262.12 1475.22 1262.12 1474.52 1260.88 1471 1259 1471 1262.75 1471 1263.38 1474.52 1263.38 1476.63L1262.75 1504.78Z" fill="#FFFFFF" fill-rule="evenodd"/><path d="M1241 1421C1241 1416.58 1244.36 1413 1248.5 1413 1252.64 1413 1256 1416.58 1256 1421 1256 1425.42 1252.64 1429 1248.5 1429 1244.36 1429 1241 1425.42 1241 1421Z" fill="#FFFFFF" fill-rule="evenodd"/><path d="M1281 1611.5C1281 1625.03 1270.7 1636 1258 1636 1245.3 1636 1235 1625.03 1235 1611.5 1235 1597.97 1245.3 1587 1258 1587 1270.7 1587 1281 1597.97 1281 1611.5Z" fill="#F09D00" fill-rule="evenodd"/><path d="M1281.5 1612C1281.5 1625.53 1271.2 1636.5 1258.5 1636.5 1245.8 1636.5 1235.5 1625.53 1235.5 1612 1235.5 1598.47 1245.8 1587.5 1258.5 1587.5 1271.2 1587.5 1281.5 1598.47 1281.5 1612Z" stroke="#333333" stroke-width="2.86476" stroke-miterlimit="8" fill="none" fill-rule="evenodd"/><path d="M1248.97 1569.62C1248.31 1568.91 1248.31 1568.91 1248.31 1568.91 1248.31 1568.2 1248.31 1568.2 1247.66 1567.48 1247.66 1566.77 1247.66 1566.77 1247.66 1566.77 1247.66 1566.06 1247 1566.06 1247 1566.06 1247 1565.34 1247 1564.63 1247 1563.92 1247 1532.56 1247 1532.56 1247 1532.56 1247 1530.43 1248.31 1529 1250.29 1529 1252.26 1529 1253.57 1530.43 1253.57 1532.56 1253.57 1563.92 1253.57 1563.92 1253.57 1563.92 1253.57 1565.34 1255.54 1568.2 1258.17 1568.2 1261.46 1568.2 1263.43 1565.34 1263.43 1563.92 1263.43 1532.56 1263.43 1532.56 1263.43 1532.56 1263.43 1530.43 1264.74 1529 1266.71 1529 1268.03 1529 1270 1530.43 1270 1532.56 1270 1563.92 1270 1563.92 1270 1563.92 1270 1564.63 1270 1565.34 1269.34 1566.06 1269.34 1566.06 1269.34 1566.06 1269.34 1566.77 1269.34 1566.77 1269.34 1567.48 1268.69 1567.48 1268.69 1568.2 1268.69 1568.2 1268.69 1568.2 1268.03 1568.91 1268.03 1569.62 1268.03 1569.62 1267.37 1570.33 1267.37 1570.33 1267.37 1570.33 1267.37 1571.05 1266.71 1571.76 1266.06 1571.76 1266.06 1572.47 1265.4 1572.47 1265.4 1573.18 1264.74 1573.18 1264.74 1573.18 1264.74 1573.18 1264.74 1573.9 1264.09 1573.9 1263.43 1573.9 1263.43 1574.61 1263.43 1574.61 1263.43 1574.61 1262.77 1574.61 1262.11 1575.32 1262.11 1575.32 1262.11 1587.44 1262.11 1587.44 1262.11 1587.44 1262.11 1588.86 1260.8 1591 1258.83 1591 1256.86 1591 1255.54 1588.86 1255.54 1587.44 1255.54 1575.32 1255.54 1575.32 1255.54 1575.32 1255.54 1575.32 1255.54 1575.32 1255.54 1575.32 1253.57 1574.61 1251.6 1573.18 1249.63 1571.05 1249.63 1571.05 1249.63 1571.05 1249.63 1570.33 1248.97 1570.33 1248.97 1569.62 1248.97 1569.62Z" fill="#7C7C7C" fill-rule="evenodd"/><path d="M1268 1534.2C1268 1565 1268 1565 1268 1565 1268 1565 1268 1565 1268 1565 1268 1565 1267.5 1554.5 1267 1548.9 1267 1544 1267 1534.9 1267 1534.9 1267 1534.2 1267 1530.7 1267 1530 1267 1530 1267 1530 1267 1530 1267.5 1531.4 1268 1532.8 1268 1534.2Z" fill="#FFFFFF" fill-rule="evenodd"/><path d="M1252.25 1534.22C1252.25 1532.81 1251.62 1530.7 1251 1530 1252.25 1531.41 1252.88 1532.81 1252.88 1534.22 1252.88 1540.56 1252.88 1540.56 1252.88 1540.56 1252.88 1563.78 1252.88 1563.78 1252.88 1563.78 1252.88 1564.48 1254.12 1568 1256 1568 1252.25 1568 1251.62 1564.48 1251.62 1562.37L1252.25 1534.22Z" fill="#FFFFFF" fill-rule="evenodd"/><path d="M1274 1618C1274 1622.42 1270.64 1626 1266.5 1626 1262.36 1626 1259 1622.42 1259 1618 1259 1613.58 1262.36 1610 1266.5 1610 1270.64 1610 1274 1613.58 1274 1618Z" fill="#FFFFFF" fill-rule="evenodd"/><path d="M1282 1427.5C1282 1413.97 1292.52 1403 1305.5 1403 1318.48 1403 1329 1413.97 1329 1427.5 1329 1441.03 1318.48 1452 1305.5 1452 1292.52 1452 1282 1441.03 1282 1427.5Z" fill="#F09D00" fill-rule="evenodd"/><path d="M1282.5 1428C1282.5 1414.47 1293.02 1403.5 1306 1403.5 1318.98 1403.5 1329.5 1414.47 1329.5 1428 1329.5 1441.53 1318.98 1452.5 1306 1452.5 1293.02 1452.5 1282.5 1441.53 1282.5 1428Z" stroke="#333333" stroke-width="2.86476" stroke-miterlimit="8" fill="none" fill-rule="evenodd"/><path d="M1315.03 1469.38C1315.69 1470.09 1315.69 1470.09 1315.69 1470.09 1315.69 1470.8 1315.69 1470.8 1316.34 1471.52 1316.34 1472.23 1316.34 1472.23 1316.34 1472.23 1316.34 1472.94 1317 1472.94 1317 1472.94 1317 1473.66 1317 1474.37 1317 1475.08 1317 1506.44 1317 1506.44 1317 1506.44 1317 1508.57 1315.69 1510 1313.71 1510 1311.74 1510 1310.43 1508.57 1310.43 1506.44 1310.43 1475.08 1310.43 1475.08 1310.43 1475.08 1310.43 1473.66 1308.46 1470.8 1305.83 1470.8 1302.54 1470.8 1300.57 1473.66 1300.57 1475.08 1300.57 1506.44 1300.57 1506.44 1300.57 1506.44 1300.57 1508.57 1299.26 1510 1297.29 1510 1295.97 1510 1294 1508.57 1294 1506.44 1294 1475.08 1294 1475.08 1294 1475.08 1294 1474.37 1294 1473.66 1294.66 1472.94 1294.66 1472.94 1294.66 1472.94 1294.66 1472.23 1294.66 1472.23 1294.66 1471.52 1295.31 1471.52 1295.31 1470.8 1295.31 1470.8 1295.31 1470.8 1295.97 1470.09 1295.97 1469.38 1295.97 1469.38 1296.63 1468.67 1296.63 1468.67 1296.63 1468.67 1296.63 1467.95 1297.29 1467.24 1297.94 1467.24 1297.94 1466.53 1298.6 1466.53 1298.6 1465.82 1299.26 1465.82 1299.26 1465.82 1299.26 1465.82 1299.26 1465.1 1299.91 1465.1 1300.57 1465.1 1300.57 1464.39 1300.57 1464.39 1300.57 1464.39 1301.23 1464.39 1301.89 1463.68 1301.89 1463.68 1301.89 1451.56 1301.89 1451.56 1301.89 1451.56 1301.89 1450.14 1303.2 1448 1305.17 1448 1307.14 1448 1308.46 1450.14 1308.46 1451.56 1308.46 1463.68 1308.46 1463.68 1308.46 1463.68 1308.46 1463.68 1308.46 1463.68 1308.46 1463.68 1310.43 1464.39 1312.4 1465.82 1314.37 1467.95 1314.37 1467.95 1314.37 1467.95 1314.37 1468.67 1315.03 1468.67 1315.03 1469.38 1315.03 1469.38Z" fill="#7C7C7C" fill-rule="evenodd"/><path d="M1295 1504.8C1295 1474 1295 1474 1295 1474 1295 1474 1295 1474 1295 1474 1295 1474 1295.5 1484.5 1296 1490.1 1296 1495 1296 1504.1 1296 1504.1 1296 1504.8 1296 1508.3 1296 1509 1296 1509 1296 1509 1296 1509 1295.5 1507.6 1295 1506.2 1295 1504.8Z" fill="#FFFFFF" fill-rule="evenodd"/><path d="M1311.75 1504.78C1311.75 1506.19 1312.38 1508.3 1313 1509 1311.75 1507.59 1311.13 1506.19 1311.13 1504.78 1311.13 1498.44 1311.13 1498.44 1311.13 1498.44 1311.13 1475.22 1311.13 1475.22 1311.13 1475.22 1311.13 1474.52 1309.88 1471 1308 1471 1311.75 1471 1312.38 1474.52 1312.38 1476.63L1311.75 1504.78Z" fill="#FFFFFF" fill-rule="evenodd"/><path d="M1290 1421C1290 1416.58 1293.36 1413 1297.5 1413 1301.64 1413 1305 1416.58 1305 1421 1305 1425.42 1301.64 1429 1297.5 1429 1293.36 1429 1290 1425.42 1290 1421Z" fill="#FFFFFF" fill-rule="evenodd"/><path d="M1329 1611.5C1329 1625.03 1318.7 1636 1306 1636 1293.3 1636 1283 1625.03 1283 1611.5 1283 1597.97 1293.3 1587 1306 1587 1318.7 1587 1329 1597.97 1329 1611.5Z" fill="#F09D00" fill-rule="evenodd"/><path d="M1329.5 1612C1329.5 1625.53 1319.2 1636.5 1306.5 1636.5 1293.8 1636.5 1283.5 1625.53 1283.5 1612 1283.5 1598.47 1293.8 1587.5 1306.5 1587.5 1319.2 1587.5 1329.5 1598.47 1329.5 1612Z" stroke="#333333" stroke-width="2.86476" stroke-miterlimit="8" fill="none" fill-rule="evenodd"/><path d="M1296.97 1569.62C1296.31 1568.91 1296.31 1568.91 1296.31 1568.91 1296.31 1568.2 1296.31 1568.2 1295.66 1567.48 1295.66 1566.77 1295.66 1566.77 1295.66 1566.77 1295.66 1566.06 1295 1566.06 1295 1566.06 1295 1565.34 1295 1564.63 1295 1563.92 1295 1532.56 1295 1532.56 1295 1532.56 1295 1530.43 1296.31 1529 1298.29 1529 1300.26 1529 1301.57 1530.43 1301.57 1532.56 1301.57 1563.92 1301.57 1563.92 1301.57 1563.92 1301.57 1565.34 1303.54 1568.2 1306.17 1568.2 1309.46 1568.2 1311.43 1565.34 1311.43 1563.92 1311.43 1532.56 1311.43 1532.56 1311.43 1532.56 1311.43 1530.43 1312.74 1529 1314.71 1529 1316.03 1529 1318 1530.43 1318 1532.56 1318 1563.92 1318 1563.92 1318 1563.92 1318 1564.63 1318 1565.34 1317.34 1566.06 1317.34 1566.06 1317.34 1566.06 1317.34 1566.77 1317.34 1566.77 1317.34 1567.48 1316.69 1567.48 1316.69 1568.2 1316.69 1568.2 1316.69 1568.2 1316.03 1568.91 1316.03 1569.62 1316.03 1569.62 1315.37 1570.33 1315.37 1570.33 1315.37 1570.33 1315.37 1571.05 1314.71 1571.76 1314.06 1571.76 1314.06 1572.47 1313.4 1572.47 1313.4 1573.18 1312.74 1573.18 1312.74 1573.18 1312.74 1573.18 1312.74 1573.9 1312.09 1573.9 1311.43 1573.9 1311.43 1574.61 1311.43 1574.61 1311.43 1574.61 1310.77 1574.61 1310.11 1575.32 1310.11 1575.32 1310.11 1587.44 1310.11 1587.44 1310.11 1587.44 1310.11 1588.86 1308.8 1591 1306.83 1591 1304.86 1591 1303.54 1588.86 1303.54 1587.44 1303.54 1575.32 1303.54 1575.32 1303.54 1575.32 1303.54 1575.32 1303.54 1575.32 1303.54 1575.32 1301.57 1574.61 1299.6 1573.18 1297.63 1571.05 1297.63 1571.05 1297.63 1571.05 1297.63 1570.33 1296.97 1570.33 1296.97 1569.62 1296.97 1569.62Z" fill="#7C7C7C" fill-rule="evenodd"/><path d="M1317 1534.2C1317 1565 1317 1565 1317 1565 1317 1565 1317 1565 1317 1565 1317 1565 1316 1554.5 1315 1548.9 1315 1544 1315 1534.9 1315 1534.9 1315 1534.2 1315 1530.7 1315 1530 1315 1530 1315 1530 1315 1530 1316 1531.4 1317 1532.8 1317 1534.2Z" fill="#FFFFFF" fill-rule="evenodd"/><path d="M1300.25 1534.22C1300.25 1532.81 1299.62 1530.7 1299 1530 1300.25 1531.41 1300.88 1532.81 1300.88 1534.22 1300.88 1540.56 1300.88 1540.56 1300.88 1540.56 1300.88 1563.78 1300.88 1563.78 1300.88 1563.78 1300.88 1564.48 1302.12 1568 1304 1568 1300.25 1568 1299.62 1564.48 1299.62 1562.37L1300.25 1534.22Z" fill="#FFFFFF" fill-rule="evenodd"/><path d="M1322 1618C1322 1622.42 1318.64 1626 1314.5 1626 1310.36 1626 1307 1622.42 1307 1618 1307 1613.58 1310.36 1610 1314.5 1610 1318.64 1610 1322 1613.58 1322 1618Z" fill="#FFFFFF" fill-rule="evenodd"/><path d="M1333 1426C1333 1412.19 1343.3 1401 1356 1401 1368.7 1401 1379 1412.19 1379 1426 1379 1439.81 1368.7 1451 1356 1451 1343.3 1451 1333 1439.81 1333 1426Z" fill="#F09D00" fill-rule="evenodd"/><path d="M1333.5 1426.5C1333.5 1412.69 1343.8 1401.5 1356.5 1401.5 1369.2 1401.5 1379.5 1412.69 1379.5 1426.5 1379.5 1440.31 1369.2 1451.5 1356.5 1451.5 1343.8 1451.5 1333.5 1440.31 1333.5 1426.5Z" stroke="#333333" stroke-width="2.86476" stroke-miterlimit="8" fill="none" fill-rule="evenodd"/><path d="M1365.03 1468.03C1365.69 1468.74 1365.69 1468.74 1365.69 1468.74 1365.69 1469.44 1365.69 1469.44 1366.34 1470.14 1366.34 1470.84 1366.34 1470.84 1366.34 1470.84 1366.34 1471.54 1367 1471.54 1367 1471.54 1367 1472.24 1367 1472.94 1367 1473.64 1367 1504.49 1367 1504.49 1367 1504.49 1367 1506.6 1365.69 1508 1363.71 1508 1361.74 1508 1360.43 1506.6 1360.43 1504.49 1360.43 1473.64 1360.43 1473.64 1360.43 1473.64 1360.43 1472.24 1358.46 1469.44 1355.83 1469.44 1352.54 1469.44 1350.57 1472.24 1350.57 1473.64 1350.57 1504.49 1350.57 1504.49 1350.57 1504.49 1350.57 1506.6 1349.26 1508 1347.29 1508 1345.97 1508 1344 1506.6 1344 1504.49 1344 1473.64 1344 1473.64 1344 1473.64 1344 1472.94 1344 1472.24 1344.66 1471.54 1344.66 1471.54 1344.66 1471.54 1344.66 1470.84 1344.66 1470.84 1344.66 1470.14 1345.31 1470.14 1345.31 1469.44 1345.31 1469.44 1345.31 1469.44 1345.97 1468.74 1345.97 1468.03 1345.97 1468.03 1346.63 1467.33 1346.63 1467.33 1346.63 1467.33 1346.63 1466.63 1347.29 1465.93 1347.94 1465.93 1347.94 1465.23 1348.6 1465.23 1348.6 1464.53 1349.26 1464.53 1349.26 1464.53 1349.26 1464.53 1349.26 1463.83 1349.91 1463.83 1350.57 1463.83 1350.57 1463.13 1350.57 1463.13 1350.57 1463.13 1351.23 1463.13 1351.89 1462.43 1351.89 1462.43 1351.89 1450.51 1351.89 1450.51 1351.89 1450.51 1351.89 1449.1 1353.2 1447 1355.17 1447 1357.14 1447 1358.46 1449.1 1358.46 1450.51 1358.46 1462.43 1358.46 1462.43 1358.46 1462.43 1358.46 1462.43 1358.46 1462.43 1358.46 1462.43 1360.43 1463.13 1362.4 1464.53 1364.37 1466.63 1364.37 1466.63 1364.37 1466.63 1364.37 1467.33 1365.03 1467.33 1365.03 1468.03 1365.03 1468.03Z" fill="#7C7C7C" fill-rule="evenodd"/><path d="M1346 1502.8C1346 1472 1346 1472 1346 1472 1346 1472 1346 1472 1346 1472 1346 1472 1346.5 1482.5 1347 1488.1 1347 1493 1347 1502.1 1347 1502.1 1347 1502.8 1347 1506.3 1347 1507 1347 1507 1347 1507 1347 1507 1346.5 1505.6 1346 1504.2 1346 1502.8Z" fill="#FFFFFF" fill-rule="evenodd"/><path d="M1361.75 1502.78C1361.75 1504.19 1362.38 1506.3 1363 1507 1361.75 1505.59 1361.12 1504.19 1361.12 1502.78 1361.12 1496.44 1361.12 1496.44 1361.12 1496.44 1361.12 1473.22 1361.12 1473.22 1361.12 1473.22 1361.12 1472.52 1359.88 1469 1358 1469 1361.75 1469 1362.38 1472.52 1362.38 1474.63L1361.75 1502.78Z" fill="#FFFFFF" fill-rule="evenodd"/><path d="M1340 1419C1340 1414.58 1343.58 1411 1348 1411 1352.42 1411 1356 1414.58 1356 1419 1356 1423.42 1352.42 1427 1348 1427 1343.58 1427 1340 1423.42 1340 1419Z" fill="#FFFFFF" fill-rule="evenodd"/><path d="M1380 1610C1380 1623.81 1369.7 1635 1357 1635 1344.3 1635 1334 1623.81 1334 1610 1334 1596.19 1344.3 1585 1357 1585 1369.7 1585 1380 1596.19 1380 1610Z" fill="#F09D00" fill-rule="evenodd"/><path d="M1380.5 1610.5C1380.5 1624.31 1370.2 1635.5 1357.5 1635.5 1344.8 1635.5 1334.5 1624.31 1334.5 1610.5 1334.5 1596.69 1344.8 1585.5 1357.5 1585.5 1370.2 1585.5 1380.5 1596.69 1380.5 1610.5Z" stroke="#333333" stroke-width="2.86476" stroke-miterlimit="8" fill="none" fill-rule="evenodd"/><path d="M1347.97 1567.97C1347.31 1567.26 1347.31 1567.26 1347.31 1567.26 1347.31 1566.56 1347.31 1566.56 1346.66 1565.86 1346.66 1565.16 1346.66 1565.16 1346.66 1565.16 1346.66 1564.46 1346 1564.46 1346 1564.46 1346 1563.76 1346 1563.06 1346 1562.36 1346 1531.51 1346 1531.51 1346 1531.51 1346 1529.4 1347.31 1528 1349.29 1528 1351.26 1528 1352.57 1529.4 1352.57 1531.51 1352.57 1562.36 1352.57 1562.36 1352.57 1562.36 1352.57 1563.76 1354.54 1566.56 1357.17 1566.56 1360.46 1566.56 1362.43 1563.76 1362.43 1562.36 1362.43 1531.51 1362.43 1531.51 1362.43 1531.51 1362.43 1529.4 1363.74 1528 1365.71 1528 1367.03 1528 1369 1529.4 1369 1531.51 1369 1562.36 1369 1562.36 1369 1562.36 1369 1563.06 1369 1563.76 1368.34 1564.46 1368.34 1564.46 1368.34 1564.46 1368.34 1565.16 1368.34 1565.16 1368.34 1565.86 1367.69 1565.86 1367.69 1566.56 1367.69 1566.56 1367.69 1566.56 1367.03 1567.26 1367.03 1567.97 1367.03 1567.97 1366.37 1568.67 1366.37 1568.67 1366.37 1568.67 1366.37 1569.37 1365.71 1570.07 1365.06 1570.07 1365.06 1570.77 1364.4 1570.77 1364.4 1571.47 1363.74 1571.47 1363.74 1571.47 1363.74 1571.47 1363.74 1572.17 1363.09 1572.17 1362.43 1572.17 1362.43 1572.87 1362.43 1572.87 1362.43 1572.87 1361.77 1572.87 1361.11 1573.57 1361.11 1573.57 1361.11 1585.49 1361.11 1585.49 1361.11 1585.49 1361.11 1586.9 1359.8 1589 1357.83 1589 1355.86 1589 1354.54 1586.9 1354.54 1585.49 1354.54 1573.57 1354.54 1573.57 1354.54 1573.57 1354.54 1573.57 1354.54 1573.57 1354.54 1573.57 1352.57 1572.87 1350.6 1571.47 1348.63 1569.37 1348.63 1569.37 1348.63 1569.37 1348.63 1568.67 1347.97 1568.67 1347.97 1567.97 1347.97 1567.97Z" fill="#7C7C7C" fill-rule="evenodd"/><path d="M1367 1532.32C1367 1564 1367 1564 1367 1564 1367 1564 1367 1564 1367 1564 1367 1564 1366.5 1553.2 1366 1547.44 1366 1542.4 1366 1533.04 1366 1533.04 1366 1532.32 1366 1528.72 1366 1528 1366 1528 1366 1528 1366 1528 1366.5 1529.44 1367 1530.88 1367 1532.32Z" fill="#FFFFFF" fill-rule="evenodd"/><path d="M1351.25 1532.33C1351.25 1530.89 1350.62 1528.72 1350 1528 1351.25 1529.44 1351.88 1530.89 1351.88 1532.33 1351.88 1538.83 1351.88 1538.83 1351.88 1538.83 1351.88 1562.67 1351.88 1562.67 1351.88 1562.67 1351.88 1563.39 1353.12 1567 1355 1567 1351.25 1567 1350.62 1563.39 1350.62 1561.22L1351.25 1532.33Z" fill="#FFFFFF" fill-rule="evenodd"/><path d="M1373 1616.5C1373 1621.19 1369.64 1625 1365.5 1625 1361.36 1625 1358 1621.19 1358 1616.5 1358 1611.81 1361.36 1608 1365.5 1608 1369.64 1608 1373 1611.81 1373 1616.5Z" fill="#FFFFFF" fill-rule="evenodd"/><path d="M1382 1426C1382 1412.19 1392.3 1401 1405 1401 1417.7 1401 1428 1412.19 1428 1426 1428 1439.81 1417.7 1451 1405 1451 1392.3 1451 1382 1439.81 1382 1426Z" fill="#F09D00" fill-rule="evenodd"/><path d="M1382.5 1426.5C1382.5 1412.69 1392.8 1401.5 1405.5 1401.5 1418.2 1401.5 1428.5 1412.69 1428.5 1426.5 1428.5 1440.31 1418.2 1451.5 1405.5 1451.5 1392.8 1451.5 1382.5 1440.31 1382.5 1426.5Z" stroke="#333333" stroke-width="2.86476" stroke-miterlimit="8" fill="none" fill-rule="evenodd"/><path d="M1415.03 1468.03C1415.69 1468.74 1415.69 1468.74 1415.69 1468.74 1415.69 1469.44 1415.69 1469.44 1416.34 1470.14 1416.34 1470.84 1416.34 1470.84 1416.34 1470.84 1416.34 1471.54 1417 1471.54 1417 1471.54 1417 1472.24 1417 1472.94 1417 1473.64 1417 1504.49 1417 1504.49 1417 1504.49 1417 1506.6 1415.69 1508 1413.71 1508 1411.74 1508 1410.43 1506.6 1410.43 1504.49 1410.43 1473.64 1410.43 1473.64 1410.43 1473.64 1410.43 1472.24 1408.46 1469.44 1405.83 1469.44 1402.54 1469.44 1400.57 1472.24 1400.57 1473.64 1400.57 1504.49 1400.57 1504.49 1400.57 1504.49 1400.57 1506.6 1399.26 1508 1397.29 1508 1395.97 1508 1394 1506.6 1394 1504.49 1394 1473.64 1394 1473.64 1394 1473.64 1394 1472.94 1394 1472.24 1394.66 1471.54 1394.66 1471.54 1394.66 1471.54 1394.66 1470.84 1394.66 1470.84 1394.66 1470.14 1395.31 1470.14 1395.31 1469.44 1395.31 1469.44 1395.31 1469.44 1395.97 1468.74 1395.97 1468.03 1395.97 1468.03 1396.63 1467.33 1396.63 1467.33 1396.63 1467.33 1396.63 1466.63 1397.29 1465.93 1397.94 1465.93 1397.94 1465.23 1398.6 1465.23 1398.6 1464.53 1399.26 1464.53 1399.26 1464.53 1399.26 1464.53 1399.26 1463.83 1399.91 1463.83 1400.57 1463.83 1400.57 1463.13 1400.57 1463.13 1400.57 1463.13 1401.23 1463.13 1401.89 1462.43 1401.89 1462.43 1401.89 1450.51 1401.89 1450.51 1401.89 1450.51 1401.89 1449.1 1403.2 1447 1405.17 1447 1407.14 1447 1408.46 1449.1 1408.46 1450.51 1408.46 1462.43 1408.46 1462.43 1408.46 1462.43 1408.46 1462.43 1408.46 1462.43 1408.46 1462.43 1410.43 1463.13 1412.4 1464.53 1414.37 1466.63 1414.37 1466.63 1414.37 1466.63 1414.37 1467.33 1415.03 1467.33 1415.03 1468.03 1415.03 1468.03Z" fill="#7C7C7C" fill-rule="evenodd"/><path d="M1395 1502.8C1395 1472 1395 1472 1395 1472 1395 1472 1395 1472 1395 1472 1395 1472 1395.5 1482.5 1396 1488.1 1396 1493 1396 1502.1 1396 1502.1 1396 1502.8 1396 1506.3 1396 1507 1396 1507 1396 1507 1396 1507 1395.5 1505.6 1395 1504.2 1395 1502.8Z" fill="#FFFFFF" fill-rule="evenodd"/><path d="M1411.5 1502.78C1411.5 1504.19 1412.25 1506.3 1413 1507 1411.5 1505.59 1410.75 1504.19 1410.75 1502.78 1410.75 1496.44 1410.75 1496.44 1410.75 1496.44 1410.75 1473.22 1410.75 1473.22 1410.75 1473.22 1410.75 1472.52 1409.25 1469 1407 1469 1411.5 1469 1412.25 1472.52 1412.25 1474.63L1411.5 1502.78Z" fill="#FFFFFF" fill-rule="evenodd"/><path d="M1390 1419C1390 1414.58 1393.36 1411 1397.5 1411 1401.64 1411 1405 1414.58 1405 1419 1405 1423.42 1401.64 1427 1397.5 1427 1393.36 1427 1390 1423.42 1390 1419Z" fill="#FFFFFF" fill-rule="evenodd"/><path d="M1429 1610C1429 1623.81 1418.7 1635 1406 1635 1393.3 1635 1383 1623.81 1383 1610 1383 1596.19 1393.3 1585 1406 1585 1418.7 1585 1429 1596.19 1429 1610Z" fill="#F09D00" fill-rule="evenodd"/><path d="M1429.5 1610.5C1429.5 1624.31 1419.2 1635.5 1406.5 1635.5 1393.8 1635.5 1383.5 1624.31 1383.5 1610.5 1383.5 1596.69 1393.8 1585.5 1406.5 1585.5 1419.2 1585.5 1429.5 1596.69 1429.5 1610.5Z" stroke="#333333" stroke-width="2.86476" stroke-miterlimit="8" fill="none" fill-rule="evenodd"/><path d="M1396.97 1567.97C1396.31 1567.26 1396.31 1567.26 1396.31 1567.26 1396.31 1566.56 1396.31 1566.56 1395.66 1565.86 1395.66 1565.16 1395.66 1565.16 1395.66 1565.16 1395.66 1564.46 1395 1564.46 1395 1564.46 1395 1563.76 1395 1563.06 1395 1562.36 1395 1531.51 1395 1531.51 1395 1531.51 1395 1529.4 1396.31 1528 1398.29 1528 1400.26 1528 1401.57 1529.4 1401.57 1531.51 1401.57 1562.36 1401.57 1562.36 1401.57 1562.36 1401.57 1563.76 1403.54 1566.56 1406.17 1566.56 1409.46 1566.56 1411.43 1563.76 1411.43 1562.36 1411.43 1531.51 1411.43 1531.51 1411.43 1531.51 1411.43 1529.4 1412.74 1528 1414.71 1528 1416.03 1528 1418 1529.4 1418 1531.51 1418 1562.36 1418 1562.36 1418 1562.36 1418 1563.06 1418 1563.76 1417.34 1564.46 1417.34 1564.46 1417.34 1564.46 1417.34 1565.16 1417.34 1565.16 1417.34 1565.86 1416.69 1565.86 1416.69 1566.56 1416.69 1566.56 1416.69 1566.56 1416.03 1567.26 1416.03 1567.97 1416.03 1567.97 1415.37 1568.67 1415.37 1568.67 1415.37 1568.67 1415.37 1569.37 1414.71 1570.07 1414.06 1570.07 1414.06 1570.77 1413.4 1570.77 1413.4 1571.47 1412.74 1571.47 1412.74 1571.47 1412.74 1571.47 1412.74 1572.17 1412.09 1572.17 1411.43 1572.17 1411.43 1572.87 1411.43 1572.87 1411.43 1572.87 1410.77 1572.87 1410.11 1573.57 1410.11 1573.57 1410.11 1585.49 1410.11 1585.49 1410.11 1585.49 1410.11 1586.9 1408.8 1589 1406.83 1589 1404.86 1589 1403.54 1586.9 1403.54 1585.49 1403.54 1573.57 1403.54 1573.57 1403.54 1573.57 1403.54 1573.57 1403.54 1573.57 1403.54 1573.57 1401.57 1572.87 1399.6 1571.47 1397.63 1569.37 1397.63 1569.37 1397.63 1569.37 1397.63 1568.67 1396.97 1568.67 1396.97 1567.97 1396.97 1567.97Z" fill="#7C7C7C" fill-rule="evenodd"/><path d="M1417 1532.32C1417 1564 1417 1564 1417 1564 1417 1564 1417 1564 1417 1564 1417 1564 1416 1553.2 1415 1547.44 1415 1542.4 1415 1533.04 1415 1533.04 1415 1532.32 1415 1528.72 1415 1528 1415 1528 1415 1528 1415 1528 1416 1529.44 1417 1530.88 1417 1532.32Z" fill="#FFFFFF" fill-rule="evenodd"/><path d="M1400.25 1532.33C1400.25 1530.89 1399.62 1528.72 1399 1528 1400.25 1529.44 1400.88 1530.89 1400.88 1532.33 1400.88 1538.83 1400.88 1538.83 1400.88 1538.83 1400.88 1562.67 1400.88 1562.67 1400.88 1562.67 1400.88 1563.39 1402.12 1567 1404 1567 1400.25 1567 1399.62 1563.39 1399.62 1561.22L1400.25 1532.33Z" fill="#FFFFFF" fill-rule="evenodd"/><path d="M1422 1616.5C1422 1621.19 1418.64 1625 1414.5 1625 1410.36 1625 1407 1621.19 1407 1616.5 1407 1611.81 1410.36 1608 1414.5 1608 1418.64 1608 1422 1611.81 1422 1616.5Z" fill="#FFFFFF" fill-rule="evenodd"/><path d="M1430 1426C1430 1412.19 1440.3 1401 1453 1401 1465.7 1401 1476 1412.19 1476 1426 1476 1439.81 1465.7 1451 1453 1451 1440.3 1451 1430 1439.81 1430 1426Z" fill="#F09D00" fill-rule="evenodd"/><path d="M1430.5 1426.5C1430.5 1412.69 1440.8 1401.5 1453.5 1401.5 1466.2 1401.5 1476.5 1412.69 1476.5 1426.5 1476.5 1440.31 1466.2 1451.5 1453.5 1451.5 1440.8 1451.5 1430.5 1440.31 1430.5 1426.5Z" stroke="#333333" stroke-width="2.86476" stroke-miterlimit="8" fill="none" fill-rule="evenodd"/><path d="M1462.03 1468.03C1462.69 1468.74 1462.69 1468.74 1462.69 1468.74 1462.69 1469.44 1462.69 1469.44 1463.34 1470.14 1463.34 1470.84 1463.34 1470.84 1463.34 1470.84 1463.34 1471.54 1464 1471.54 1464 1471.54 1464 1472.24 1464 1472.94 1464 1473.64 1464 1504.49 1464 1504.49 1464 1504.49 1464 1506.6 1462.69 1508 1460.71 1508 1458.74 1508 1457.43 1506.6 1457.43 1504.49 1457.43 1473.64 1457.43 1473.64 1457.43 1473.64 1457.43 1472.24 1455.46 1469.44 1452.83 1469.44 1449.54 1469.44 1447.57 1472.24 1447.57 1473.64 1447.57 1504.49 1447.57 1504.49 1447.57 1504.49 1447.57 1506.6 1446.26 1508 1444.29 1508 1442.97 1508 1441 1506.6 1441 1504.49 1441 1473.64 1441 1473.64 1441 1473.64 1441 1472.94 1441 1472.24 1441.66 1471.54 1441.66 1471.54 1441.66 1471.54 1441.66 1470.84 1441.66 1470.84 1441.66 1470.14 1442.31 1470.14 1442.31 1469.44 1442.31 1469.44 1442.31 1469.44 1442.97 1468.74 1442.97 1468.03 1442.97 1468.03 1443.63 1467.33 1443.63 1467.33 1443.63 1467.33 1443.63 1466.63 1444.29 1465.93 1444.94 1465.93 1444.94 1465.23 1445.6 1465.23 1445.6 1464.53 1446.26 1464.53 1446.26 1464.53 1446.26 1464.53 1446.26 1463.83 1446.91 1463.83 1447.57 1463.83 1447.57 1463.13 1447.57 1463.13 1447.57 1463.13 1448.23 1463.13 1448.89 1462.43 1448.89 1462.43 1448.89 1450.51 1448.89 1450.51 1448.89 1450.51 1448.89 1449.1 1450.2 1447 1452.17 1447 1454.14 1447 1455.46 1449.1 1455.46 1450.51 1455.46 1462.43 1455.46 1462.43 1455.46 1462.43 1455.46 1462.43 1455.46 1462.43 1455.46 1462.43 1457.43 1463.13 1459.4 1464.53 1461.37 1466.63 1461.37 1466.63 1461.37 1466.63 1461.37 1467.33 1462.03 1467.33 1462.03 1468.03 1462.03 1468.03Z" fill="#7C7C7C" fill-rule="evenodd"/><path d="M1443 1502.8C1443 1472 1443 1472 1443 1472 1443 1472 1443 1472 1443 1472 1443 1472 1443.5 1482.5 1444 1488.1 1444 1493 1444 1502.1 1444 1502.1 1444 1502.8 1444 1506.3 1444 1507 1444 1507 1444 1507 1444 1507 1443.5 1505.6 1443 1504.2 1443 1502.8Z" fill="#FFFFFF" fill-rule="evenodd"/><path d="M1458.75 1502.78C1458.75 1504.19 1459.38 1506.3 1460 1507 1458.75 1505.59 1458.12 1504.19 1458.12 1502.78 1458.12 1496.44 1458.12 1496.44 1458.12 1496.44 1458.12 1473.22 1458.12 1473.22 1458.12 1473.22 1458.12 1472.52 1456.88 1469 1455 1469 1458.75 1469 1459.38 1472.52 1459.38 1474.63L1458.75 1502.78Z" fill="#FFFFFF" fill-rule="evenodd"/><path d="M1437 1419C1437 1414.58 1440.36 1411 1444.5 1411 1448.64 1411 1452 1414.58 1452 1419 1452 1423.42 1448.64 1427 1444.5 1427 1440.36 1427 1437 1423.42 1437 1419Z" fill="#FFFFFF" fill-rule="evenodd"/><path d="M1477 1610C1477 1623.81 1466.7 1635 1454 1635 1441.3 1635 1431 1623.81 1431 1610 1431 1596.19 1441.3 1585 1454 1585 1466.7 1585 1477 1596.19 1477 1610Z" fill="#F09D00" fill-rule="evenodd"/><path d="M1477.5 1610.5C1477.5 1624.31 1467.2 1635.5 1454.5 1635.5 1441.8 1635.5 1431.5 1624.31 1431.5 1610.5 1431.5 1596.69 1441.8 1585.5 1454.5 1585.5 1467.2 1585.5 1477.5 1596.69 1477.5 1610.5Z" stroke="#333333" stroke-width="2.86476" stroke-miterlimit="8" fill="none" fill-rule="evenodd"/><path d="M1444.89 1567.97C1444.26 1567.26 1444.26 1567.26 1444.26 1567.26 1444.26 1566.56 1444.26 1566.56 1443.63 1565.86 1443.63 1565.16 1443.63 1565.16 1443.63 1565.16 1443.63 1564.46 1443 1564.46 1443 1564.46 1443 1563.76 1443 1563.06 1443 1562.36 1443 1531.51 1443 1531.51 1443 1531.51 1443 1529.4 1444.26 1528 1446.14 1528 1448.03 1528 1449.29 1529.4 1449.29 1531.51 1449.29 1562.36 1449.29 1562.36 1449.29 1562.36 1449.29 1563.76 1451.17 1566.56 1453.69 1566.56 1456.83 1566.56 1458.71 1563.76 1458.71 1562.36 1458.71 1531.51 1458.71 1531.51 1458.71 1531.51 1458.71 1529.4 1459.97 1528 1461.86 1528 1463.11 1528 1465 1529.4 1465 1531.51 1465 1562.36 1465 1562.36 1465 1562.36 1465 1563.06 1465 1563.76 1464.37 1564.46 1464.37 1564.46 1464.37 1564.46 1464.37 1565.16 1464.37 1565.16 1464.37 1565.86 1463.74 1565.86 1463.74 1566.56 1463.74 1566.56 1463.74 1566.56 1463.11 1567.26 1463.11 1567.97 1463.11 1567.97 1462.49 1568.67 1462.49 1568.67 1462.49 1568.67 1462.49 1569.37 1461.86 1570.07 1461.23 1570.07 1461.23 1570.77 1460.6 1570.77 1460.6 1571.47 1459.97 1571.47 1459.97 1571.47 1459.97 1571.47 1459.97 1572.17 1459.34 1572.17 1458.71 1572.17 1458.71 1572.87 1458.71 1572.87 1458.71 1572.87 1458.09 1572.87 1457.46 1573.57 1457.46 1573.57 1457.46 1585.49 1457.46 1585.49 1457.46 1585.49 1457.46 1586.9 1456.2 1589 1454.31 1589 1452.43 1589 1451.17 1586.9 1451.17 1585.49 1451.17 1573.57 1451.17 1573.57 1451.17 1573.57 1451.17 1573.57 1451.17 1573.57 1451.17 1573.57 1449.29 1572.87 1447.4 1571.47 1445.51 1569.37 1445.51 1569.37 1445.51 1569.37 1445.51 1568.67 1444.89 1568.67 1444.89 1567.97 1444.89 1567.97Z" fill="#7C7C7C" fill-rule="evenodd"/><path d="M1464 1532.32C1464 1564 1464 1564 1464 1564 1464 1564 1464 1564 1464 1564 1464 1564 1463.5 1553.2 1463 1547.44 1463 1542.4 1463 1533.04 1463 1533.04 1463 1532.32 1463 1528.72 1463 1528 1463 1528 1463 1528 1463 1528 1463.5 1529.44 1464 1530.88 1464 1532.32Z" fill="#FFFFFF" fill-rule="evenodd"/><path d="M1447.5 1532.33C1447.5 1530.89 1446.75 1528.72 1446 1528 1447.5 1529.44 1448.25 1530.89 1448.25 1532.33 1448.25 1538.83 1448.25 1538.83 1448.25 1538.83 1448.25 1562.67 1448.25 1562.67 1448.25 1562.67 1448.25 1563.39 1449.75 1567 1452 1567 1447.5 1567 1446.75 1563.39 1446.75 1561.22L1447.5 1532.33Z" fill="#FFFFFF" fill-rule="evenodd"/><path d="M1469 1616.5C1469 1621.19 1465.64 1625 1461.5 1625 1457.36 1625 1454 1621.19 1454 1616.5 1454 1611.81 1457.36 1608 1461.5 1608 1465.64 1608 1469 1611.81 1469 1616.5Z" fill="#FFFFFF" fill-rule="evenodd"/><path d="M1478 1426C1478 1412.19 1488.52 1401 1501.5 1401 1514.48 1401 1525 1412.19 1525 1426 1525 1439.81 1514.48 1451 1501.5 1451 1488.52 1451 1478 1439.81 1478 1426Z" fill="#F09D00" fill-rule="evenodd"/><path d="M1478.5 1426.5C1478.5 1412.69 1489.02 1401.5 1502 1401.5 1514.98 1401.5 1525.5 1412.69 1525.5 1426.5 1525.5 1440.31 1514.98 1451.5 1502 1451.5 1489.02 1451.5 1478.5 1440.31 1478.5 1426.5Z" stroke="#333333" stroke-width="2.86476" stroke-miterlimit="8" fill="none" fill-rule="evenodd"/><path d="M1511.03 1468.03C1511.69 1468.74 1511.69 1468.74 1511.69 1468.74 1511.69 1469.44 1511.69 1469.44 1512.34 1470.14 1512.34 1470.84 1512.34 1470.84 1512.34 1470.84 1512.34 1471.54 1513 1471.54 1513 1471.54 1513 1472.24 1513 1472.94 1513 1473.64 1513 1504.49 1513 1504.49 1513 1504.49 1513 1506.6 1511.69 1508 1509.71 1508 1507.74 1508 1506.43 1506.6 1506.43 1504.49 1506.43 1473.64 1506.43 1473.64 1506.43 1473.64 1506.43 1472.24 1504.46 1469.44 1501.83 1469.44 1498.54 1469.44 1496.57 1472.24 1496.57 1473.64 1496.57 1504.49 1496.57 1504.49 1496.57 1504.49 1496.57 1506.6 1495.26 1508 1493.29 1508 1491.97 1508 1490 1506.6 1490 1504.49 1490 1473.64 1490 1473.64 1490 1473.64 1490 1472.94 1490 1472.24 1490.66 1471.54 1490.66 1471.54 1490.66 1471.54 1490.66 1470.84 1490.66 1470.84 1490.66 1470.14 1491.31 1470.14 1491.31 1469.44 1491.31 1469.44 1491.31 1469.44 1491.97 1468.74 1491.97 1468.03 1491.97 1468.03 1492.63 1467.33 1492.63 1467.33 1492.63 1467.33 1492.63 1466.63 1493.29 1465.93 1493.94 1465.93 1493.94 1465.23 1494.6 1465.23 1494.6 1464.53 1495.26 1464.53 1495.26 1464.53 1495.26 1464.53 1495.26 1463.83 1495.91 1463.83 1496.57 1463.83 1496.57 1463.13 1496.57 1463.13 1496.57 1463.13 1497.23 1463.13 1497.89 1462.43 1497.89 1462.43 1497.89 1450.51 1497.89 1450.51 1497.89 1450.51 1497.89 1449.1 1499.2 1447 1501.17 1447 1503.14 1447 1504.46 1449.1 1504.46 1450.51 1504.46 1462.43 1504.46 1462.43 1504.46 1462.43 1504.46 1462.43 1504.46 1462.43 1504.46 1462.43 1506.43 1463.13 1508.4 1464.53 1510.37 1466.63 1510.37 1466.63 1510.37 1466.63 1510.37 1467.33 1511.03 1467.33 1511.03 1468.03 1511.03 1468.03Z" fill="#7C7C7C" fill-rule="evenodd"/><path d="M1491 1502.8C1491 1472 1491 1472 1491 1472 1491 1472 1491 1472 1491 1472 1491 1472 1491.5 1482.5 1492 1488.1 1492 1493 1492 1502.1 1492 1502.1 1492 1502.8 1492 1506.3 1492 1507 1492 1507 1492 1507 1492 1507 1491.5 1505.6 1491 1504.2 1491 1502.8Z" fill="#FFFFFF" fill-rule="evenodd"/><path d="M1507.5 1502.78C1507.5 1504.19 1508.25 1506.3 1509 1507 1507.5 1505.59 1506.75 1504.19 1506.75 1502.78 1506.75 1496.44 1506.75 1496.44 1506.75 1496.44 1506.75 1473.22 1506.75 1473.22 1506.75 1473.22 1506.75 1472.52 1505.25 1469 1503 1469 1507.5 1469 1508.25 1472.52 1508.25 1474.63L1507.5 1502.78Z" fill="#FFFFFF" fill-rule="evenodd"/><path d="M1486 1419C1486 1414.58 1489.36 1411 1493.5 1411 1497.64 1411 1501 1414.58 1501 1419 1501 1423.42 1497.64 1427 1493.5 1427 1489.36 1427 1486 1423.42 1486 1419Z" fill="#FFFFFF" fill-rule="evenodd"/><path d="M1525 1610C1525 1623.81 1514.7 1635 1502 1635 1489.3 1635 1479 1623.81 1479 1610 1479 1596.19 1489.3 1585 1502 1585 1514.7 1585 1525 1596.19 1525 1610Z" fill="#F09D00" fill-rule="evenodd"/><path d="M1525.5 1610.5C1525.5 1624.31 1515.2 1635.5 1502.5 1635.5 1489.8 1635.5 1479.5 1624.31 1479.5 1610.5 1479.5 1596.69 1489.8 1585.5 1502.5 1585.5 1515.2 1585.5 1525.5 1596.69 1525.5 1610.5Z" stroke="#333333" stroke-width="2.86476" stroke-miterlimit="8" fill="none" fill-rule="evenodd"/><path d="M1492.97 1567.97C1492.31 1567.26 1492.31 1567.26 1492.31 1567.26 1492.31 1566.56 1492.31 1566.56 1491.66 1565.86 1491.66 1565.16 1491.66 1565.16 1491.66 1565.16 1491.66 1564.46 1491 1564.46 1491 1564.46 1491 1563.76 1491 1563.06 1491 1562.36 1491 1531.51 1491 1531.51 1491 1531.51 1491 1529.4 1492.31 1528 1494.29 1528 1496.26 1528 1497.57 1529.4 1497.57 1531.51 1497.57 1562.36 1497.57 1562.36 1497.57 1562.36 1497.57 1563.76 1499.54 1566.56 1502.17 1566.56 1505.46 1566.56 1507.43 1563.76 1507.43 1562.36 1507.43 1531.51 1507.43 1531.51 1507.43 1531.51 1507.43 1529.4 1508.74 1528 1510.71 1528 1512.03 1528 1514 1529.4 1514 1531.51 1514 1562.36 1514 1562.36 1514 1562.36 1514 1563.06 1514 1563.76 1513.34 1564.46 1513.34 1564.46 1513.34 1564.46 1513.34 1565.16 1513.34 1565.16 1513.34 1565.86 1512.69 1565.86 1512.69 1566.56 1512.69 1566.56 1512.69 1566.56 1512.03 1567.26 1512.03 1567.97 1512.03 1567.97 1511.37 1568.67 1511.37 1568.67 1511.37 1568.67 1511.37 1569.37 1510.71 1570.07 1510.06 1570.07 1510.06 1570.77 1509.4 1570.77 1509.4 1571.47 1508.74 1571.47 1508.74 1571.47 1508.74 1571.47 1508.74 1572.17 1508.09 1572.17 1507.43 1572.17 1507.43 1572.87 1507.43 1572.87 1507.43 1572.87 1506.77 1572.87 1506.11 1573.57 1506.11 1573.57 1506.11 1585.49 1506.11 1585.49 1506.11 1585.49 1506.11 1586.9 1504.8 1589 1502.83 1589 1500.86 1589 1499.54 1586.9 1499.54 1585.49 1499.54 1573.57 1499.54 1573.57 1499.54 1573.57 1499.54 1573.57 1499.54 1573.57 1499.54 1573.57 1497.57 1572.87 1495.6 1571.47 1493.63 1569.37 1493.63 1569.37 1493.63 1569.37 1493.63 1568.67 1492.97 1568.67 1492.97 1567.97 1492.97 1567.97Z" fill="#7C7C7C" fill-rule="evenodd"/><path d="M1513 1532.32C1513 1564 1513 1564 1513 1564 1513 1564 1513 1564 1513 1564 1513 1564 1512 1553.2 1511 1547.44 1511 1542.4 1511 1533.04 1511 1533.04 1511 1532.32 1511 1528.72 1511 1528 1511 1528 1511 1528 1511 1528 1512 1529.44 1513 1530.88 1513 1532.32Z" fill="#FFFFFF" fill-rule="evenodd"/><path d="M1496.25 1532.33C1496.25 1530.89 1495.62 1528.72 1495 1528 1496.25 1529.44 1496.88 1530.89 1496.88 1532.33 1496.88 1538.83 1496.88 1538.83 1496.88 1538.83 1496.88 1562.67 1496.88 1562.67 1496.88 1562.67 1496.88 1563.39 1498.12 1567 1500 1567 1496.25 1567 1495.62 1563.39 1495.62 1561.22L1496.25 1532.33Z" fill="#FFFFFF" fill-rule="evenodd"/><path d="M1518 1616.5C1518 1621.19 1514.64 1625 1510.5 1625 1506.36 1625 1503 1621.19 1503 1616.5 1503 1611.81 1506.36 1608 1510.5 1608 1514.64 1608 1518 1611.81 1518 1616.5Z" fill="#FFFFFF" fill-rule="evenodd"/><path d="M1529 1426C1529 1412.19 1539.3 1401 1552 1401 1564.7 1401 1575 1412.19 1575 1426 1575 1439.81 1564.7 1451 1552 1451 1539.3 1451 1529 1439.81 1529 1426Z" fill="#F09D00" fill-rule="evenodd"/><path d="M1529.5 1426.5C1529.5 1412.69 1539.8 1401.5 1552.5 1401.5 1565.2 1401.5 1575.5 1412.69 1575.5 1426.5 1575.5 1440.31 1565.2 1451.5 1552.5 1451.5 1539.8 1451.5 1529.5 1440.31 1529.5 1426.5Z" stroke="#333333" stroke-width="2.86476" stroke-miterlimit="8" fill="none" fill-rule="evenodd"/><path d="M1561.03 1468.03C1561.69 1468.74 1561.69 1468.74 1561.69 1468.74 1561.69 1469.44 1561.69 1469.44 1562.34 1470.14 1562.34 1470.84 1562.34 1470.84 1562.34 1470.84 1562.34 1471.54 1563 1471.54 1563 1471.54 1563 1472.24 1563 1472.94 1563 1473.64 1563 1504.49 1563 1504.49 1563 1504.49 1563 1506.6 1561.69 1508 1559.71 1508 1557.74 1508 1556.43 1506.6 1556.43 1504.49 1556.43 1473.64 1556.43 1473.64 1556.43 1473.64 1556.43 1472.24 1554.46 1469.44 1551.83 1469.44 1548.54 1469.44 1546.57 1472.24 1546.57 1473.64 1546.57 1504.49 1546.57 1504.49 1546.57 1504.49 1546.57 1506.6 1545.26 1508 1543.29 1508 1541.97 1508 1540 1506.6 1540 1504.49 1540 1473.64 1540 1473.64 1540 1473.64 1540 1472.94 1540 1472.24 1540.66 1471.54 1540.66 1471.54 1540.66 1471.54 1540.66 1470.84 1540.66 1470.84 1540.66 1470.14 1541.31 1470.14 1541.31 1469.44 1541.31 1469.44 1541.31 1469.44 1541.97 1468.74 1541.97 1468.03 1541.97 1468.03 1542.63 1467.33 1542.63 1467.33 1542.63 1467.33 1542.63 1466.63 1543.29 1465.93 1543.94 1465.93 1543.94 1465.23 1544.6 1465.23 1544.6 1464.53 1545.26 1464.53 1545.26 1464.53 1545.26 1464.53 1545.26 1463.83 1545.91 1463.83 1546.57 1463.83 1546.57 1463.13 1546.57 1463.13 1546.57 1463.13 1547.23 1463.13 1547.89 1462.43 1547.89 1462.43 1547.89 1450.51 1547.89 1450.51 1547.89 1450.51 1547.89 1449.1 1549.2 1447 1551.17 1447 1553.14 1447 1554.46 1449.1 1554.46 1450.51 1554.46 1462.43 1554.46 1462.43 1554.46 1462.43 1554.46 1462.43 1554.46 1462.43 1554.46 1462.43 1556.43 1463.13 1558.4 1464.53 1560.37 1466.63 1560.37 1466.63 1560.37 1466.63 1560.37 1467.33 1561.03 1467.33 1561.03 1468.03 1561.03 1468.03Z" fill="#7C7C7C" fill-rule="evenodd"/><path d="M1542 1502.8C1542 1472 1542 1472 1542 1472 1542 1472 1542 1472 1542 1472 1542 1472 1542.5 1482.5 1543 1488.1 1543 1493 1543 1502.1 1543 1502.1 1543 1502.8 1543 1506.3 1543 1507 1543 1507 1543 1507 1543 1507 1542.5 1505.6 1542 1504.2 1542 1502.8Z" fill="#FFFFFF" fill-rule="evenodd"/><path d="M1557.75 1502.78C1557.75 1504.19 1558.38 1506.3 1559 1507 1557.75 1505.59 1557.12 1504.19 1557.12 1502.78 1557.12 1496.44 1557.12 1496.44 1557.12 1496.44 1557.12 1473.22 1557.12 1473.22 1557.12 1473.22 1557.12 1472.52 1555.88 1469 1554 1469 1557.75 1469 1558.38 1472.52 1558.38 1474.63L1557.75 1502.78Z" fill="#FFFFFF" fill-rule="evenodd"/><path d="M1536 1419C1536 1414.58 1539.36 1411 1543.5 1411 1547.64 1411 1551 1414.58 1551 1419 1551 1423.42 1547.64 1427 1543.5 1427 1539.36 1427 1536 1423.42 1536 1419Z" fill="#FFFFFF" fill-rule="evenodd"/><path d="M1576 1610C1576 1623.81 1565.7 1635 1553 1635 1540.3 1635 1530 1623.81 1530 1610 1530 1596.19 1540.3 1585 1553 1585 1565.7 1585 1576 1596.19 1576 1610Z" fill="#F09D00" fill-rule="evenodd"/><path d="M1576.5 1610.5C1576.5 1624.31 1566.2 1635.5 1553.5 1635.5 1540.8 1635.5 1530.5 1624.31 1530.5 1610.5 1530.5 1596.69 1540.8 1585.5 1553.5 1585.5 1566.2 1585.5 1576.5 1596.69 1576.5 1610.5Z" stroke="#333333" stroke-width="2.86476" stroke-miterlimit="8" fill="none" fill-rule="evenodd"/><path d="M1543.97 1567.97C1543.31 1567.26 1543.31 1567.26 1543.31 1567.26 1543.31 1566.56 1543.31 1566.56 1542.66 1565.86 1542.66 1565.16 1542.66 1565.16 1542.66 1565.16 1542.66 1564.46 1542 1564.46 1542 1564.46 1542 1563.76 1542 1563.06 1542 1562.36 1542 1531.51 1542 1531.51 1542 1531.51 1542 1529.4 1543.31 1528 1545.29 1528 1547.26 1528 1548.57 1529.4 1548.57 1531.51 1548.57 1562.36 1548.57 1562.36 1548.57 1562.36 1548.57 1563.76 1550.54 1566.56 1553.17 1566.56 1556.46 1566.56 1558.43 1563.76 1558.43 1562.36 1558.43 1531.51 1558.43 1531.51 1558.43 1531.51 1558.43 1529.4 1559.74 1528 1561.71 1528 1563.03 1528 1565 1529.4 1565 1531.51 1565 1562.36 1565 1562.36 1565 1562.36 1565 1563.06 1565 1563.76 1564.34 1564.46 1564.34 1564.46 1564.34 1564.46 1564.34 1565.16 1564.34 1565.16 1564.34 1565.86 1563.69 1565.86 1563.69 1566.56 1563.69 1566.56 1563.69 1566.56 1563.03 1567.26 1563.03 1567.97 1563.03 1567.97 1562.37 1568.67 1562.37 1568.67 1562.37 1568.67 1562.37 1569.37 1561.71 1570.07 1561.06 1570.07 1561.06 1570.77 1560.4 1570.77 1560.4 1571.47 1559.74 1571.47 1559.74 1571.47 1559.74 1571.47 1559.74 1572.17 1559.09 1572.17 1558.43 1572.17 1558.43 1572.87 1558.43 1572.87 1558.43 1572.87 1557.77 1572.87 1557.11 1573.57 1557.11 1573.57 1557.11 1585.49 1557.11 1585.49 1557.11 1585.49 1557.11 1586.9 1555.8 1589 1553.83 1589 1551.86 1589 1550.54 1586.9 1550.54 1585.49 1550.54 1573.57 1550.54 1573.57 1550.54 1573.57 1550.54 1573.57 1550.54 1573.57 1550.54 1573.57 1548.57 1572.87 1546.6 1571.47 1544.63 1569.37 1544.63 1569.37 1544.63 1569.37 1544.63 1568.67 1543.97 1568.67 1543.97 1567.97 1543.97 1567.97Z" fill="#7C7C7C" fill-rule="evenodd"/><path d="M1563 1532.32C1563 1564 1563 1564 1563 1564 1563 1564 1563 1564 1563 1564 1563 1564 1562.5 1553.2 1562 1547.44 1562 1542.4 1562 1533.04 1562 1533.04 1562 1532.32 1562 1528.72 1562 1528 1562 1528 1562 1528 1562 1528 1562.5 1529.44 1563 1530.88 1563 1532.32Z" fill="#FFFFFF" fill-rule="evenodd"/><path d="M1547.25 1532.33C1547.25 1530.89 1546.62 1528.72 1546 1528 1547.25 1529.44 1547.87 1530.89 1547.87 1532.33 1547.87 1538.83 1547.87 1538.83 1547.87 1538.83 1547.87 1562.67 1547.87 1562.67 1547.87 1562.67 1547.87 1563.39 1549.12 1567 1551 1567 1547.25 1567 1546.62 1563.39 1546.62 1561.22L1547.25 1532.33Z" fill="#FFFFFF" fill-rule="evenodd"/><path d="M1569 1616.5C1569 1621.19 1565.42 1625 1561 1625 1556.58 1625 1553 1621.19 1553 1616.5 1553 1611.81 1556.58 1608 1561 1608 1565.42 1608 1569 1611.81 1569 1616.5Z" fill="#FFFFFF" fill-rule="evenodd"/><path d="M1578 1426C1578 1412.19 1588.3 1401 1601 1401 1613.7 1401 1624 1412.19 1624 1426 1624 1439.81 1613.7 1451 1601 1451 1588.3 1451 1578 1439.81 1578 1426Z" fill="#F09D00" fill-rule="evenodd"/><path d="M1578.5 1426.5C1578.5 1412.69 1588.8 1401.5 1601.5 1401.5 1614.2 1401.5 1624.5 1412.69 1624.5 1426.5 1624.5 1440.31 1614.2 1451.5 1601.5 1451.5 1588.8 1451.5 1578.5 1440.31 1578.5 1426.5Z" stroke="#333333" stroke-width="2.86476" stroke-miterlimit="8" fill="none" fill-rule="evenodd"/><path d="M1610.03 1468.03C1610.69 1468.74 1610.69 1468.74 1610.69 1468.74 1610.69 1469.44 1610.69 1469.44 1611.34 1470.14 1611.34 1470.84 1611.34 1470.84 1611.34 1470.84 1611.34 1471.54 1612 1471.54 1612 1471.54 1612 1472.24 1612 1472.94 1612 1473.64 1612 1504.49 1612 1504.49 1612 1504.49 1612 1506.6 1610.69 1508 1608.71 1508 1606.74 1508 1605.43 1506.6 1605.43 1504.49 1605.43 1473.64 1605.43 1473.64 1605.43 1473.64 1605.43 1472.24 1603.46 1469.44 1600.83 1469.44 1597.54 1469.44 1595.57 1472.24 1595.57 1473.64 1595.57 1504.49 1595.57 1504.49 1595.57 1504.49 1595.57 1506.6 1594.26 1508 1592.29 1508 1590.97 1508 1589 1506.6 1589 1504.49 1589 1473.64 1589 1473.64 1589 1473.64 1589 1472.94 1589 1472.24 1589.66 1471.54 1589.66 1471.54 1589.66 1471.54 1589.66 1470.84 1589.66 1470.84 1589.66 1470.14 1590.31 1470.14 1590.31 1469.44 1590.31 1469.44 1590.31 1469.44 1590.97 1468.74 1590.97 1468.03 1590.97 1468.03 1591.63 1467.33 1591.63 1467.33 1591.63 1467.33 1591.63 1466.63 1592.29 1465.93 1592.94 1465.93 1592.94 1465.23 1593.6 1465.23 1593.6 1464.53 1594.26 1464.53 1594.26 1464.53 1594.26 1464.53 1594.26 1463.83 1594.91 1463.83 1595.57 1463.83 1595.57 1463.13 1595.57 1463.13 1595.57 1463.13 1596.23 1463.13 1596.89 1462.43 1596.89 1462.43 1596.89 1450.51 1596.89 1450.51 1596.89 1450.51 1596.89 1449.1 1598.2 1447 1600.17 1447 1602.14 1447 1603.46 1449.1 1603.46 1450.51 1603.46 1462.43 1603.46 1462.43 1603.46 1462.43 1603.46 1462.43 1603.46 1462.43 1603.46 1462.43 1605.43 1463.13 1607.4 1464.53 1609.37 1466.63 1609.37 1466.63 1609.37 1466.63 1609.37 1467.33 1610.03 1467.33 1610.03 1468.03 1610.03 1468.03Z" fill="#7C7C7C" fill-rule="evenodd"/><path d="M1591 1502.8C1591 1472 1591 1472 1591 1472 1591 1472 1591 1472 1591 1472 1591 1472 1591.5 1482.5 1592 1488.1 1592 1493 1592 1502.1 1592 1502.1 1592 1502.8 1592 1506.3 1592 1507 1592 1507 1592 1507 1592 1507 1591.5 1505.6 1591 1504.2 1591 1502.8Z" fill="#FFFFFF" fill-rule="evenodd"/><path d="M1606.75 1502.78C1606.75 1504.19 1607.38 1506.3 1608 1507 1606.75 1505.59 1606.12 1504.19 1606.12 1502.78 1606.12 1496.44 1606.12 1496.44 1606.12 1496.44 1606.12 1473.22 1606.12 1473.22 1606.12 1473.22 1606.12 1472.52 1604.88 1469 1603 1469 1606.75 1469 1607.38 1472.52 1607.38 1474.63L1606.75 1502.78Z" fill="#FFFFFF" fill-rule="evenodd"/><path d="M1586 1419C1586 1414.58 1589.36 1411 1593.5 1411 1597.64 1411 1601 1414.58 1601 1419 1601 1423.42 1597.64 1427 1593.5 1427 1589.36 1427 1586 1423.42 1586 1419Z" fill="#FFFFFF" fill-rule="evenodd"/><path d="M1625 1610C1625 1623.81 1614.7 1635 1602 1635 1589.3 1635 1579 1623.81 1579 1610 1579 1596.19 1589.3 1585 1602 1585 1614.7 1585 1625 1596.19 1625 1610Z" fill="#F09D00" fill-rule="evenodd"/><path d="M1625.5 1610.5C1625.5 1624.31 1615.2 1635.5 1602.5 1635.5 1589.8 1635.5 1579.5 1624.31 1579.5 1610.5 1579.5 1596.69 1589.8 1585.5 1602.5 1585.5 1615.2 1585.5 1625.5 1596.69 1625.5 1610.5Z" stroke="#333333" stroke-width="2.86476" stroke-miterlimit="8" fill="none" fill-rule="evenodd"/><path d="M1592.97 1567.97C1592.31 1567.26 1592.31 1567.26 1592.31 1567.26 1592.31 1566.56 1592.31 1566.56 1591.66 1565.86 1591.66 1565.16 1591.66 1565.16 1591.66 1565.16 1591.66 1564.46 1591 1564.46 1591 1564.46 1591 1563.76 1591 1563.06 1591 1562.36 1591 1531.51 1591 1531.51 1591 1531.51 1591 1529.4 1592.31 1528 1594.29 1528 1596.26 1528 1597.57 1529.4 1597.57 1531.51 1597.57 1562.36 1597.57 1562.36 1597.57 1562.36 1597.57 1563.76 1599.54 1566.56 1602.17 1566.56 1605.46 1566.56 1607.43 1563.76 1607.43 1562.36 1607.43 1531.51 1607.43 1531.51 1607.43 1531.51 1607.43 1529.4 1608.74 1528 1610.71 1528 1612.03 1528 1614 1529.4 1614 1531.51 1614 1562.36 1614 1562.36 1614 1562.36 1614 1563.06 1614 1563.76 1613.34 1564.46 1613.34 1564.46 1613.34 1564.46 1613.34 1565.16 1613.34 1565.16 1613.34 1565.86 1612.69 1565.86 1612.69 1566.56 1612.69 1566.56 1612.69 1566.56 1612.03 1567.26 1612.03 1567.97 1612.03 1567.97 1611.37 1568.67 1611.37 1568.67 1611.37 1568.67 1611.37 1569.37 1610.71 1570.07 1610.06 1570.07 1610.06 1570.77 1609.4 1570.77 1609.4 1571.47 1608.74 1571.47 1608.74 1571.47 1608.74 1571.47 1608.74 1572.17 1608.09 1572.17 1607.43 1572.17 1607.43 1572.87 1607.43 1572.87 1607.43 1572.87 1606.77 1572.87 1606.11 1573.57 1606.11 1573.57 1606.11 1585.49 1606.11 1585.49 1606.11 1585.49 1606.11 1586.9 1604.8 1589 1602.83 1589 1600.86 1589 1599.54 1586.9 1599.54 1585.49 1599.54 1573.57 1599.54 1573.57 1599.54 1573.57 1599.54 1573.57 1599.54 1573.57 1599.54 1573.57 1597.57 1572.87 1595.6 1571.47 1593.63 1569.37 1593.63 1569.37 1593.63 1569.37 1593.63 1568.67 1592.97 1568.67 1592.97 1567.97 1592.97 1567.97Z" fill="#7C7C7C" fill-rule="evenodd"/><path d="M1612 1532.32C1612 1564 1612 1564 1612 1564 1612 1564 1612 1564 1612 1564 1612 1564 1611.5 1553.2 1611 1547.44 1611 1542.4 1611 1533.04 1611 1533.04 1611 1532.32 1611 1528.72 1611 1528 1611 1528 1611 1528 1611 1528 1611.5 1529.44 1612 1530.88 1612 1532.32Z" fill="#FFFFFF" fill-rule="evenodd"/><path d="M1596.25 1532.33C1596.25 1530.89 1595.62 1528.72 1595 1528 1596.25 1529.44 1596.88 1530.89 1596.88 1532.33 1596.88 1538.83 1596.88 1538.83 1596.88 1538.83 1596.88 1562.67 1596.88 1562.67 1596.88 1562.67 1596.88 1563.39 1598.12 1567 1600 1567 1596.25 1567 1595.62 1563.39 1595.62 1561.22L1596.25 1532.33Z" fill="#FFFFFF" fill-rule="evenodd"/><path d="M1618 1616.5C1618 1621.19 1614.64 1625 1610.5 1625 1606.36 1625 1603 1621.19 1603 1616.5 1603 1611.81 1606.36 1608 1610.5 1608 1614.64 1608 1618 1611.81 1618 1616.5Z" fill="#FFFFFF" fill-rule="evenodd"/><path d="M1626 1426C1626 1412.19 1636.3 1401 1649 1401 1661.7 1401 1672 1412.19 1672 1426 1672 1439.81 1661.7 1451 1649 1451 1636.3 1451 1626 1439.81 1626 1426Z" fill="#F09D00" fill-rule="evenodd"/><path d="M1626.5 1426.5C1626.5 1412.69 1636.8 1401.5 1649.5 1401.5 1662.2 1401.5 1672.5 1412.69 1672.5 1426.5 1672.5 1440.31 1662.2 1451.5 1649.5 1451.5 1636.8 1451.5 1626.5 1440.31 1626.5 1426.5Z" stroke="#333333" stroke-width="2.86476" stroke-miterlimit="8" fill="none" fill-rule="evenodd"/><path d="M1658.03 1468.03C1658.69 1468.74 1658.69 1468.74 1658.69 1468.74 1658.69 1469.44 1658.69 1469.44 1659.34 1470.14 1659.34 1470.84 1659.34 1470.84 1659.34 1470.84 1659.34 1471.54 1660 1471.54 1660 1471.54 1660 1472.24 1660 1472.94 1660 1473.64 1660 1504.49 1660 1504.49 1660 1504.49 1660 1506.6 1658.69 1508 1656.71 1508 1654.74 1508 1653.43 1506.6 1653.43 1504.49 1653.43 1473.64 1653.43 1473.64 1653.43 1473.64 1653.43 1472.24 1651.46 1469.44 1648.83 1469.44 1645.54 1469.44 1643.57 1472.24 1643.57 1473.64 1643.57 1504.49 1643.57 1504.49 1643.57 1504.49 1643.57 1506.6 1642.26 1508 1640.29 1508 1638.97 1508 1637 1506.6 1637 1504.49 1637 1473.64 1637 1473.64 1637 1473.64 1637 1472.94 1637 1472.24 1637.66 1471.54 1637.66 1471.54 1637.66 1471.54 1637.66 1470.84 1637.66 1470.84 1637.66 1470.14 1638.31 1470.14 1638.31 1469.44 1638.31 1469.44 1638.31 1469.44 1638.97 1468.74 1638.97 1468.03 1638.97 1468.03 1639.63 1467.33 1639.63 1467.33 1639.63 1467.33 1639.63 1466.63 1640.29 1465.93 1640.94 1465.93 1640.94 1465.23 1641.6 1465.23 1641.6 1464.53 1642.26 1464.53 1642.26 1464.53 1642.26 1464.53 1642.26 1463.83 1642.91 1463.83 1643.57 1463.83 1643.57 1463.13 1643.57 1463.13 1643.57 1463.13 1644.23 1463.13 1644.89 1462.43 1644.89 1462.43 1644.89 1450.51 1644.89 1450.51 1644.89 1450.51 1644.89 1449.1 1646.2 1447 1648.17 1447 1650.14 1447 1651.46 1449.1 1651.46 1450.51 1651.46 1462.43 1651.46 1462.43 1651.46 1462.43 1651.46 1462.43 1651.46 1462.43 1651.46 1462.43 1653.43 1463.13 1655.4 1464.53 1657.37 1466.63 1657.37 1466.63 1657.37 1466.63 1657.37 1467.33 1658.03 1467.33 1658.03 1468.03 1658.03 1468.03Z" fill="#7C7C7C" fill-rule="evenodd"/><path d="M1638 1502.8C1638 1472 1638 1472 1638 1472 1638 1472 1638 1472 1638 1472 1638 1472 1639 1482.5 1640 1488.1 1640 1493 1640 1502.1 1640 1502.1 1640 1502.8 1640 1506.3 1640 1507 1640 1507 1640 1507 1640 1507 1639 1505.6 1638 1504.2 1638 1502.8Z" fill="#FFFFFF" fill-rule="evenodd"/><path d="M1654.75 1502.78C1654.75 1504.19 1655.37 1506.3 1656 1507 1654.75 1505.59 1654.12 1504.19 1654.12 1502.78 1654.12 1496.44 1654.12 1496.44 1654.12 1496.44 1654.12 1473.22 1654.12 1473.22 1654.12 1473.22 1654.12 1472.52 1652.87 1469 1651 1469 1654.75 1469 1655.37 1472.52 1655.37 1474.63L1654.75 1502.78Z" fill="#FFFFFF" fill-rule="evenodd"/><path d="M1633 1419C1633 1414.58 1636.36 1411 1640.5 1411 1644.64 1411 1648 1414.58 1648 1419 1648 1423.42 1644.64 1427 1640.5 1427 1636.36 1427 1633 1423.42 1633 1419Z" fill="#FFFFFF" fill-rule="evenodd"/><path d="M1673 1610C1673 1623.81 1662.7 1635 1650 1635 1637.3 1635 1627 1623.81 1627 1610 1627 1596.19 1637.3 1585 1650 1585 1662.7 1585 1673 1596.19 1673 1610Z" fill="#F09D00" fill-rule="evenodd"/><path d="M1673.5 1610.5C1673.5 1624.31 1663.2 1635.5 1650.5 1635.5 1637.8 1635.5 1627.5 1624.31 1627.5 1610.5 1627.5 1596.69 1637.8 1585.5 1650.5 1585.5 1663.2 1585.5 1673.5 1596.69 1673.5 1610.5Z" stroke="#333333" stroke-width="2.86476" stroke-miterlimit="8" fill="none" fill-rule="evenodd"/><path d="M1639.97 1567.97C1639.31 1567.26 1639.31 1567.26 1639.31 1567.26 1639.31 1566.56 1639.31 1566.56 1638.66 1565.86 1638.66 1565.16 1638.66 1565.16 1638.66 1565.16 1638.66 1564.46 1638 1564.46 1638 1564.46 1638 1563.76 1638 1563.06 1638 1562.36 1638 1531.51 1638 1531.51 1638 1531.51 1638 1529.4 1639.31 1528 1641.29 1528 1643.26 1528 1644.57 1529.4 1644.57 1531.51 1644.57 1562.36 1644.57 1562.36 1644.57 1562.36 1644.57 1563.76 1646.54 1566.56 1649.17 1566.56 1652.46 1566.56 1654.43 1563.76 1654.43 1562.36 1654.43 1531.51 1654.43 1531.51 1654.43 1531.51 1654.43 1529.4 1655.74 1528 1657.71 1528 1659.03 1528 1661 1529.4 1661 1531.51 1661 1562.36 1661 1562.36 1661 1562.36 1661 1563.06 1661 1563.76 1660.34 1564.46 1660.34 1564.46 1660.34 1564.46 1660.34 1565.16 1660.34 1565.16 1660.34 1565.86 1659.69 1565.86 1659.69 1566.56 1659.69 1566.56 1659.69 1566.56 1659.03 1567.26 1659.03 1567.97 1659.03 1567.97 1658.37 1568.67 1658.37 1568.67 1658.37 1568.67 1658.37 1569.37 1657.71 1570.07 1657.06 1570.07 1657.06 1570.77 1656.4 1570.77 1656.4 1571.47 1655.74 1571.47 1655.74 1571.47 1655.74 1571.47 1655.74 1572.17 1655.09 1572.17 1654.43 1572.17 1654.43 1572.87 1654.43 1572.87 1654.43 1572.87 1653.77 1572.87 1653.11 1573.57 1653.11 1573.57 1653.11 1585.49 1653.11 1585.49 1653.11 1585.49 1653.11 1586.9 1651.8 1589 1649.83 1589 1647.86 1589 1646.54 1586.9 1646.54 1585.49 1646.54 1573.57 1646.54 1573.57 1646.54 1573.57 1646.54 1573.57 1646.54 1573.57 1646.54 1573.57 1644.57 1572.87 1642.6 1571.47 1640.63 1569.37 1640.63 1569.37 1640.63 1569.37 1640.63 1568.67 1639.97 1568.67 1639.97 1567.97 1639.97 1567.97Z" fill="#7C7C7C" fill-rule="evenodd"/><path d="M1660 1532.32C1660 1564 1660 1564 1660 1564 1660 1564 1660 1564 1660 1564 1660 1564 1659.5 1553.2 1659 1547.44 1659 1542.4 1659 1533.04 1659 1533.04 1659 1532.32 1659 1528.72 1659 1528 1659 1528 1659 1528 1659 1528 1659.5 1529.44 1660 1530.88 1660 1532.32Z" fill="#FFFFFF" fill-rule="evenodd"/><path d="M1643.5 1532.33C1643.5 1530.89 1642.75 1528.72 1642 1528 1643.5 1529.44 1644.25 1530.89 1644.25 1532.33 1644.25 1538.83 1644.25 1538.83 1644.25 1538.83 1644.25 1562.67 1644.25 1562.67 1644.25 1562.67 1644.25 1563.39 1645.75 1567 1648 1567 1643.5 1567 1642.75 1563.39 1642.75 1561.22L1643.5 1532.33Z" fill="#FFFFFF" fill-rule="evenodd"/><path d="M1665 1616.5C1665 1621.19 1661.64 1625 1657.5 1625 1653.36 1625 1650 1621.19 1650 1616.5 1650 1611.81 1653.36 1608 1657.5 1608 1661.64 1608 1665 1611.81 1665 1616.5Z" fill="#FFFFFF" fill-rule="evenodd"/><path d="M1674 1426C1674 1412.19 1684.3 1401 1697 1401 1709.7 1401 1720 1412.19 1720 1426 1720 1439.81 1709.7 1451 1697 1451 1684.3 1451 1674 1439.81 1674 1426Z" fill="#F09D00" fill-rule="evenodd"/><path d="M1674.5 1426.5C1674.5 1412.69 1684.8 1401.5 1697.5 1401.5 1710.2 1401.5 1720.5 1412.69 1720.5 1426.5 1720.5 1440.31 1710.2 1451.5 1697.5 1451.5 1684.8 1451.5 1674.5 1440.31 1674.5 1426.5Z" stroke="#333333" stroke-width="2.86476" stroke-miterlimit="8" fill="none" fill-rule="evenodd"/><path d="M1706.11 1468.03C1706.74 1468.74 1706.74 1468.74 1706.74 1468.74 1706.74 1469.44 1706.74 1469.44 1707.37 1470.14 1707.37 1470.84 1707.37 1470.84 1707.37 1470.84 1707.37 1471.54 1708 1471.54 1708 1471.54 1708 1472.24 1708 1472.94 1708 1473.64 1708 1504.49 1708 1504.49 1708 1504.49 1708 1506.6 1706.74 1508 1704.86 1508 1702.97 1508 1701.71 1506.6 1701.71 1504.49 1701.71 1473.64 1701.71 1473.64 1701.71 1473.64 1701.71 1472.24 1699.83 1469.44 1697.31 1469.44 1694.17 1469.44 1692.29 1472.24 1692.29 1473.64 1692.29 1504.49 1692.29 1504.49 1692.29 1504.49 1692.29 1506.6 1691.03 1508 1689.14 1508 1687.89 1508 1686 1506.6 1686 1504.49 1686 1473.64 1686 1473.64 1686 1473.64 1686 1472.94 1686 1472.24 1686.63 1471.54 1686.63 1471.54 1686.63 1471.54 1686.63 1470.84 1686.63 1470.84 1686.63 1470.14 1687.26 1470.14 1687.26 1469.44 1687.26 1469.44 1687.26 1469.44 1687.89 1468.74 1687.89 1468.03 1687.89 1468.03 1688.51 1467.33 1688.51 1467.33 1688.51 1467.33 1688.51 1466.63 1689.14 1465.93 1689.77 1465.93 1689.77 1465.23 1690.4 1465.23 1690.4 1464.53 1691.03 1464.53 1691.03 1464.53 1691.03 1464.53 1691.03 1463.83 1691.66 1463.83 1692.29 1463.83 1692.29 1463.13 1692.29 1463.13 1692.29 1463.13 1692.91 1463.13 1693.54 1462.43 1693.54 1462.43 1693.54 1450.51 1693.54 1450.51 1693.54 1450.51 1693.54 1449.1 1694.8 1447 1696.69 1447 1698.57 1447 1699.83 1449.1 1699.83 1450.51 1699.83 1462.43 1699.83 1462.43 1699.83 1462.43 1699.83 1462.43 1699.83 1462.43 1699.83 1462.43 1701.71 1463.13 1703.6 1464.53 1705.49 1466.63 1705.49 1466.63 1705.49 1466.63 1705.49 1467.33 1706.11 1467.33 1706.11 1468.03 1706.11 1468.03Z" fill="#7C7C7C" fill-rule="evenodd"/><path d="M1687 1502.8C1687 1472 1687 1472 1687 1472 1687 1472 1687 1472 1687 1472 1687 1472 1687.5 1482.5 1688 1488.1 1688 1493 1688 1502.1 1688 1502.1 1688 1502.8 1688 1506.3 1688 1507 1688 1507 1688 1507 1688 1507 1687.5 1505.6 1687 1504.2 1687 1502.8Z" fill="#FFFFFF" fill-rule="evenodd"/><path d="M1703.5 1502.78C1703.5 1504.19 1704.25 1506.3 1705 1507 1703.5 1505.59 1702.75 1504.19 1702.75 1502.78 1702.75 1496.44 1702.75 1496.44 1702.75 1496.44 1702.75 1473.22 1702.75 1473.22 1702.75 1473.22 1702.75 1472.52 1701.25 1469 1699 1469 1703.5 1469 1704.25 1472.52 1704.25 1474.63L1703.5 1502.78Z" fill="#FFFFFF" fill-rule="evenodd"/><path d="M1682 1419C1682 1414.58 1685.36 1411 1689.5 1411 1693.64 1411 1697 1414.58 1697 1419 1697 1423.42 1693.64 1427 1689.5 1427 1685.36 1427 1682 1423.42 1682 1419Z" fill="#FFFFFF" fill-rule="evenodd"/><path d="M1721 1610C1721 1623.81 1710.7 1635 1698 1635 1685.3 1635 1675 1623.81 1675 1610 1675 1596.19 1685.3 1585 1698 1585 1710.7 1585 1721 1596.19 1721 1610Z" fill="#F09D00" fill-rule="evenodd"/><path d="M1721.5 1610.5C1721.5 1624.31 1711.2 1635.5 1698.5 1635.5 1685.8 1635.5 1675.5 1624.31 1675.5 1610.5 1675.5 1596.69 1685.8 1585.5 1698.5 1585.5 1711.2 1585.5 1721.5 1596.69 1721.5 1610.5Z" stroke="#333333" stroke-width="2.86476" stroke-miterlimit="8" fill="none" fill-rule="evenodd"/><path d="M1688.97 1567.97C1688.31 1567.26 1688.31 1567.26 1688.31 1567.26 1688.31 1566.56 1688.31 1566.56 1687.66 1565.86 1687.66 1565.16 1687.66 1565.16 1687.66 1565.16 1687.66 1564.46 1687 1564.46 1687 1564.46 1687 1563.76 1687 1563.06 1687 1562.36 1687 1531.51 1687 1531.51 1687 1531.51 1687 1529.4 1688.31 1528 1690.29 1528 1692.26 1528 1693.57 1529.4 1693.57 1531.51 1693.57 1562.36 1693.57 1562.36 1693.57 1562.36 1693.57 1563.76 1695.54 1566.56 1698.17 1566.56 1701.46 1566.56 1703.43 1563.76 1703.43 1562.36 1703.43 1531.51 1703.43 1531.51 1703.43 1531.51 1703.43 1529.4 1704.74 1528 1706.71 1528 1708.03 1528 1710 1529.4 1710 1531.51 1710 1562.36 1710 1562.36 1710 1562.36 1710 1563.06 1710 1563.76 1709.34 1564.46 1709.34 1564.46 1709.34 1564.46 1709.34 1565.16 1709.34 1565.16 1709.34 1565.86 1708.69 1565.86 1708.69 1566.56 1708.69 1566.56 1708.69 1566.56 1708.03 1567.26 1708.03 1567.97 1708.03 1567.97 1707.37 1568.67 1707.37 1568.67 1707.37 1568.67 1707.37 1569.37 1706.71 1570.07 1706.06 1570.07 1706.06 1570.77 1705.4 1570.77 1705.4 1571.47 1704.74 1571.47 1704.74 1571.47 1704.74 1571.47 1704.74 1572.17 1704.09 1572.17 1703.43 1572.17 1703.43 1572.87 1703.43 1572.87 1703.43 1572.87 1702.77 1572.87 1702.11 1573.57 1702.11 1573.57 1702.11 1585.49 1702.11 1585.49 1702.11 1585.49 1702.11 1586.9 1700.8 1589 1698.83 1589 1696.86 1589 1695.54 1586.9 1695.54 1585.49 1695.54 1573.57 1695.54 1573.57 1695.54 1573.57 1695.54 1573.57 1695.54 1573.57 1695.54 1573.57 1693.57 1572.87 1691.6 1571.47 1689.63 1569.37 1689.63 1569.37 1689.63 1569.37 1689.63 1568.67 1688.97 1568.67 1688.97 1567.97 1688.97 1567.97Z" fill="#7C7C7C" fill-rule="evenodd"/><path d="M1708 1532.32C1708 1564 1708 1564 1708 1564 1708 1564 1708 1564 1708 1564 1708 1564 1707.5 1553.2 1707 1547.44 1707 1542.4 1707 1533.04 1707 1533.04 1707 1532.32 1707 1528.72 1707 1528 1707 1528 1707 1528 1707 1528 1707.5 1529.44 1708 1530.88 1708 1532.32Z" fill="#FFFFFF" fill-rule="evenodd"/><path d="M1692.25 1532.33C1692.25 1530.89 1691.62 1528.72 1691 1528 1692.25 1529.44 1692.88 1530.89 1692.88 1532.33 1692.88 1538.83 1692.88 1538.83 1692.88 1538.83 1692.88 1562.67 1692.88 1562.67 1692.88 1562.67 1692.88 1563.39 1694.12 1567 1696 1567 1692.25 1567 1691.62 1563.39 1691.62 1561.22L1692.25 1532.33Z" fill="#FFFFFF" fill-rule="evenodd"/><path d="M1714 1616.5C1714 1621.19 1710.64 1625 1706.5 1625 1702.36 1625 1699 1621.19 1699 1616.5 1699 1611.81 1702.36 1608 1706.5 1608 1710.64 1608 1714 1611.81 1714 1616.5Z" fill="#FFFFFF" fill-rule="evenodd"/><path d="M1725 1424.5C1725 1410.97 1735.3 1400 1748 1400 1760.7 1400 1771 1410.97 1771 1424.5 1771 1438.03 1760.7 1449 1748 1449 1735.3 1449 1725 1438.03 1725 1424.5Z" fill="#F09D00" fill-rule="evenodd"/><path d="M1725.5 1425C1725.5 1411.47 1735.8 1400.5 1748.5 1400.5 1761.2 1400.5 1771.5 1411.47 1771.5 1425 1771.5 1438.53 1761.2 1449.5 1748.5 1449.5 1735.8 1449.5 1725.5 1438.53 1725.5 1425Z" stroke="#333333" stroke-width="2.86476" stroke-miterlimit="8" fill="none" fill-rule="evenodd"/><path d="M1757.03 1466.38C1757.69 1467.09 1757.69 1467.09 1757.69 1467.09 1757.69 1467.8 1757.69 1467.8 1758.34 1468.52 1758.34 1469.23 1758.34 1469.23 1758.34 1469.23 1758.34 1469.94 1759 1469.94 1759 1469.94 1759 1470.66 1759 1471.37 1759 1472.08 1759 1503.44 1759 1503.44 1759 1503.44 1759 1505.57 1757.69 1507 1755.71 1507 1753.74 1507 1752.43 1505.57 1752.43 1503.44 1752.43 1472.08 1752.43 1472.08 1752.43 1472.08 1752.43 1470.66 1750.46 1467.8 1747.83 1467.8 1744.54 1467.8 1742.57 1470.66 1742.57 1472.08 1742.57 1503.44 1742.57 1503.44 1742.57 1503.44 1742.57 1505.57 1741.26 1507 1739.29 1507 1737.97 1507 1736 1505.57 1736 1503.44 1736 1472.08 1736 1472.08 1736 1472.08 1736 1471.37 1736 1470.66 1736.66 1469.94 1736.66 1469.94 1736.66 1469.94 1736.66 1469.23 1736.66 1469.23 1736.66 1468.52 1737.31 1468.52 1737.31 1467.8 1737.31 1467.8 1737.31 1467.8 1737.97 1467.09 1737.97 1466.38 1737.97 1466.38 1738.63 1465.67 1738.63 1465.67 1738.63 1465.67 1738.63 1464.95 1739.29 1464.24 1739.94 1464.24 1739.94 1463.53 1740.6 1463.53 1740.6 1462.82 1741.26 1462.82 1741.26 1462.82 1741.26 1462.82 1741.26 1462.1 1741.91 1462.1 1742.57 1462.1 1742.57 1461.39 1742.57 1461.39 1742.57 1461.39 1743.23 1461.39 1743.89 1460.68 1743.89 1460.68 1743.89 1448.56 1743.89 1448.56 1743.89 1448.56 1743.89 1447.14 1745.2 1445 1747.17 1445 1749.14 1445 1750.46 1447.14 1750.46 1448.56 1750.46 1460.68 1750.46 1460.68 1750.46 1460.68 1750.46 1460.68 1750.46 1460.68 1750.46 1460.68 1752.43 1461.39 1754.4 1462.82 1756.37 1464.95 1756.37 1464.95 1756.37 1464.95 1756.37 1465.67 1757.03 1465.67 1757.03 1466.38 1757.03 1466.38Z" fill="#7C7C7C" fill-rule="evenodd"/><path d="M1738 1501.8C1738 1471 1738 1471 1738 1471 1738 1471 1738 1471 1738 1471 1738 1471 1738.5 1481.5 1739 1487.1 1739 1492 1739 1501.1 1739 1501.1 1739 1501.8 1739 1505.3 1739 1506 1739 1506 1739 1506 1739 1506 1738.5 1504.6 1738 1503.2 1738 1501.8Z" fill="#FFFFFF" fill-rule="evenodd"/><path d="M1753.75 1501.78C1753.75 1503.19 1754.37 1505.3 1755 1506 1753.75 1504.59 1753.12 1503.19 1753.12 1501.78 1753.12 1495.44 1753.12 1495.44 1753.12 1495.44 1753.12 1472.22 1753.12 1472.22 1753.12 1472.22 1753.12 1471.52 1751.87 1468 1750 1468 1753.75 1468 1754.37 1471.52 1754.37 1473.63L1753.75 1501.78Z" fill="#FFFFFF" fill-rule="evenodd"/><path d="M1732 1418C1732 1413.58 1735.36 1410 1739.5 1410 1743.64 1410 1747 1413.58 1747 1418 1747 1422.42 1743.64 1426 1739.5 1426 1735.36 1426 1732 1422.42 1732 1418Z" fill="#FFFFFF" fill-rule="evenodd"/><path d="M1772 1608.5C1772 1622.03 1761.7 1633 1749 1633 1736.3 1633 1726 1622.03 1726 1608.5 1726 1594.97 1736.3 1584 1749 1584 1761.7 1584 1772 1594.97 1772 1608.5Z" fill="#F09D00" fill-rule="evenodd"/><path d="M1772.5 1609C1772.5 1622.53 1762.2 1633.5 1749.5 1633.5 1736.8 1633.5 1726.5 1622.53 1726.5 1609 1726.5 1595.47 1736.8 1584.5 1749.5 1584.5 1762.2 1584.5 1772.5 1595.47 1772.5 1609Z" stroke="#333333" stroke-width="2.86476" stroke-miterlimit="8" fill="none" fill-rule="evenodd"/><path d="M1738.97 1566.62C1738.31 1565.91 1738.31 1565.91 1738.31 1565.91 1738.31 1565.2 1738.31 1565.2 1737.66 1564.48 1737.66 1563.77 1737.66 1563.77 1737.66 1563.77 1737.66 1563.06 1737 1563.06 1737 1563.06 1737 1562.34 1737 1561.63 1737 1560.92 1737 1529.56 1737 1529.56 1737 1529.56 1737 1527.43 1738.31 1526 1740.29 1526 1742.26 1526 1743.57 1527.43 1743.57 1529.56 1743.57 1560.92 1743.57 1560.92 1743.57 1560.92 1743.57 1562.34 1745.54 1565.2 1748.17 1565.2 1751.46 1565.2 1753.43 1562.34 1753.43 1560.92 1753.43 1529.56 1753.43 1529.56 1753.43 1529.56 1753.43 1527.43 1754.74 1526 1756.71 1526 1758.03 1526 1760 1527.43 1760 1529.56 1760 1560.92 1760 1560.92 1760 1560.92 1760 1561.63 1760 1562.34 1759.34 1563.06 1759.34 1563.06 1759.34 1563.06 1759.34 1563.77 1759.34 1563.77 1759.34 1564.48 1758.69 1564.48 1758.69 1565.2 1758.69 1565.2 1758.69 1565.2 1758.03 1565.91 1758.03 1566.62 1758.03 1566.62 1757.37 1567.33 1757.37 1567.33 1757.37 1567.33 1757.37 1568.05 1756.71 1568.76 1756.06 1568.76 1756.06 1569.47 1755.4 1569.47 1755.4 1570.18 1754.74 1570.18 1754.74 1570.18 1754.74 1570.18 1754.74 1570.9 1754.09 1570.9 1753.43 1570.9 1753.43 1571.61 1753.43 1571.61 1753.43 1571.61 1752.77 1571.61 1752.11 1572.32 1752.11 1572.32 1752.11 1584.44 1752.11 1584.44 1752.11 1584.44 1752.11 1585.86 1750.8 1588 1748.83 1588 1746.86 1588 1745.54 1585.86 1745.54 1584.44 1745.54 1572.32 1745.54 1572.32 1745.54 1572.32 1745.54 1572.32 1745.54 1572.32 1745.54 1572.32 1743.57 1571.61 1741.6 1570.18 1739.63 1568.05 1739.63 1568.05 1739.63 1568.05 1739.63 1567.33 1738.97 1567.33 1738.97 1566.62 1738.97 1566.62Z" fill="#7C7C7C" fill-rule="evenodd"/><path d="M1759 1531.2C1759 1562 1759 1562 1759 1562 1759 1562 1759 1562 1759 1562 1759 1562 1758.5 1551.5 1758 1545.9 1758 1541 1758 1531.9 1758 1531.9 1758 1531.2 1758 1527.7 1758 1527 1758 1527 1758 1527 1758 1527 1758.5 1528.4 1759 1529.8 1759 1531.2Z" fill="#FFFFFF" fill-rule="evenodd"/><path d="M1742.5 1531.22C1742.5 1529.81 1741.75 1527.7 1741 1527 1742.5 1528.41 1743.25 1529.81 1743.25 1531.22 1743.25 1537.56 1743.25 1537.56 1743.25 1537.56 1743.25 1560.78 1743.25 1560.78 1743.25 1560.78 1743.25 1561.48 1744.75 1565 1747 1565 1742.5 1565 1741.75 1561.48 1741.75 1559.37L1742.5 1531.22Z" fill="#FFFFFF" fill-rule="evenodd"/><path d="M1764 1615C1764 1619.42 1760.64 1623 1756.5 1623 1752.36 1623 1749 1619.42 1749 1615 1749 1610.58 1752.36 1607 1756.5 1607 1760.64 1607 1764 1610.58 1764 1615Z" fill="#FFFFFF" fill-rule="evenodd"/><path d="M1774 1424.5C1774 1410.97 1784.3 1400 1797 1400 1809.7 1400 1820 1410.97 1820 1424.5 1820 1438.03 1809.7 1449 1797 1449 1784.3 1449 1774 1438.03 1774 1424.5Z" fill="#F09D00" fill-rule="evenodd"/><path d="M1774.5 1425C1774.5 1411.47 1784.8 1400.5 1797.5 1400.5 1810.2 1400.5 1820.5 1411.47 1820.5 1425 1820.5 1438.53 1810.2 1449.5 1797.5 1449.5 1784.8 1449.5 1774.5 1438.53 1774.5 1425Z" stroke="#333333" stroke-width="2.86476" stroke-miterlimit="8" fill="none" fill-rule="evenodd"/><path d="M1806.03 1466.38C1806.69 1467.09 1806.69 1467.09 1806.69 1467.09 1806.69 1467.8 1806.69 1467.8 1807.34 1468.52 1807.34 1469.23 1807.34 1469.23 1807.34 1469.23 1807.34 1469.94 1808 1469.94 1808 1469.94 1808 1470.66 1808 1471.37 1808 1472.08 1808 1503.44 1808 1503.44 1808 1503.44 1808 1505.57 1806.69 1507 1804.71 1507 1802.74 1507 1801.43 1505.57 1801.43 1503.44 1801.43 1472.08 1801.43 1472.08 1801.43 1472.08 1801.43 1470.66 1799.46 1467.8 1796.83 1467.8 1793.54 1467.8 1791.57 1470.66 1791.57 1472.08 1791.57 1503.44 1791.57 1503.44 1791.57 1503.44 1791.57 1505.57 1790.26 1507 1788.29 1507 1786.97 1507 1785 1505.57 1785 1503.44 1785 1472.08 1785 1472.08 1785 1472.08 1785 1471.37 1785 1470.66 1785.66 1469.94 1785.66 1469.94 1785.66 1469.94 1785.66 1469.23 1785.66 1469.23 1785.66 1468.52 1786.31 1468.52 1786.31 1467.8 1786.31 1467.8 1786.31 1467.8 1786.97 1467.09 1786.97 1466.38 1786.97 1466.38 1787.63 1465.67 1787.63 1465.67 1787.63 1465.67 1787.63 1464.95 1788.29 1464.24 1788.94 1464.24 1788.94 1463.53 1789.6 1463.53 1789.6 1462.82 1790.26 1462.82 1790.26 1462.82 1790.26 1462.82 1790.26 1462.1 1790.91 1462.1 1791.57 1462.1 1791.57 1461.39 1791.57 1461.39 1791.57 1461.39 1792.23 1461.39 1792.89 1460.68 1792.89 1460.68 1792.89 1448.56 1792.89 1448.56 1792.89 1448.56 1792.89 1447.14 1794.2 1445 1796.17 1445 1798.14 1445 1799.46 1447.14 1799.46 1448.56 1799.46 1460.68 1799.46 1460.68 1799.46 1460.68 1799.46 1460.68 1799.46 1460.68 1799.46 1460.68 1801.43 1461.39 1803.4 1462.82 1805.37 1464.95 1805.37 1464.95 1805.37 1464.95 1805.37 1465.67 1806.03 1465.67 1806.03 1466.38 1806.03 1466.38Z" fill="#7C7C7C" fill-rule="evenodd"/><path d="M1787 1501.8C1787 1471 1787 1471 1787 1471 1787 1471 1787 1471 1787 1471 1787 1471 1787.5 1481.5 1788 1487.1 1788 1492 1788 1501.1 1788 1501.1 1788 1501.8 1788 1505.3 1788 1506 1788 1506 1788 1506 1788 1506 1787.5 1504.6 1787 1503.2 1787 1501.8Z" fill="#FFFFFF" fill-rule="evenodd"/><path d="M1802.75 1501.78C1802.75 1503.19 1803.38 1505.3 1804 1506 1802.75 1504.59 1802.12 1503.19 1802.12 1501.78 1802.12 1495.44 1802.12 1495.44 1802.12 1495.44 1802.12 1472.22 1802.12 1472.22 1802.12 1472.22 1802.12 1471.52 1800.88 1468 1799 1468 1802.75 1468 1803.38 1471.52 1803.38 1473.63L1802.75 1501.78Z" fill="#FFFFFF" fill-rule="evenodd"/><path d="M1781 1418C1781 1413.58 1784.36 1410 1788.5 1410 1792.64 1410 1796 1413.58 1796 1418 1796 1422.42 1792.64 1426 1788.5 1426 1784.36 1426 1781 1422.42 1781 1418Z" fill="#FFFFFF" fill-rule="evenodd"/><path d="M1821 1608.5C1821 1622.03 1810.7 1633 1798 1633 1785.3 1633 1775 1622.03 1775 1608.5 1775 1594.97 1785.3 1584 1798 1584 1810.7 1584 1821 1594.97 1821 1608.5Z" fill="#F09D00" fill-rule="evenodd"/><path d="M1821.5 1609C1821.5 1622.53 1811.2 1633.5 1798.5 1633.5 1785.8 1633.5 1775.5 1622.53 1775.5 1609 1775.5 1595.47 1785.8 1584.5 1798.5 1584.5 1811.2 1584.5 1821.5 1595.47 1821.5 1609Z" stroke="#333333" stroke-width="2.86476" stroke-miterlimit="8" fill="none" fill-rule="evenodd"/><path d="M1788.97 1566.62C1788.31 1565.91 1788.31 1565.91 1788.31 1565.91 1788.31 1565.2 1788.31 1565.2 1787.66 1564.48 1787.66 1563.77 1787.66 1563.77 1787.66 1563.77 1787.66 1563.06 1787 1563.06 1787 1563.06 1787 1562.34 1787 1561.63 1787 1560.92 1787 1529.56 1787 1529.56 1787 1529.56 1787 1527.43 1788.31 1526 1790.29 1526 1792.26 1526 1793.57 1527.43 1793.57 1529.56 1793.57 1560.92 1793.57 1560.92 1793.57 1560.92 1793.57 1562.34 1795.54 1565.2 1798.17 1565.2 1801.46 1565.2 1803.43 1562.34 1803.43 1560.92 1803.43 1529.56 1803.43 1529.56 1803.43 1529.56 1803.43 1527.43 1804.74 1526 1806.71 1526 1808.03 1526 1810 1527.43 1810 1529.56 1810 1560.92 1810 1560.92 1810 1560.92 1810 1561.63 1810 1562.34 1809.34 1563.06 1809.34 1563.06 1809.34 1563.06 1809.34 1563.77 1809.34 1563.77 1809.34 1564.48 1808.69 1564.48 1808.69 1565.2 1808.69 1565.2 1808.69 1565.2 1808.03 1565.91 1808.03 1566.62 1808.03 1566.62 1807.37 1567.33 1807.37 1567.33 1807.37 1567.33 1807.37 1568.05 1806.71 1568.76 1806.06 1568.76 1806.06 1569.47 1805.4 1569.47 1805.4 1570.18 1804.74 1570.18 1804.74 1570.18 1804.74 1570.18 1804.74 1570.9 1804.09 1570.9 1803.43 1570.9 1803.43 1571.61 1803.43 1571.61 1803.43 1571.61 1802.77 1571.61 1802.11 1572.32 1802.11 1572.32 1802.11 1584.44 1802.11 1584.44 1802.11 1584.44 1802.11 1585.86 1800.8 1588 1798.83 1588 1796.86 1588 1795.54 1585.86 1795.54 1584.44 1795.54 1572.32 1795.54 1572.32 1795.54 1572.32 1795.54 1572.32 1795.54 1572.32 1795.54 1572.32 1793.57 1571.61 1791.6 1570.18 1789.63 1568.05 1789.63 1568.05 1789.63 1568.05 1789.63 1567.33 1788.97 1567.33 1788.97 1566.62 1788.97 1566.62Z" fill="#7C7C7C" fill-rule="evenodd"/><path d="M1808 1531.2C1808 1562 1808 1562 1808 1562 1808 1562 1808 1562 1808 1562 1808 1562 1807.5 1551.5 1807 1545.9 1807 1541 1807 1531.9 1807 1531.9 1807 1531.2 1807 1527.7 1807 1527 1807 1527 1807 1527 1807 1527 1807.5 1528.4 1808 1529.8 1808 1531.2Z" fill="#FFFFFF" fill-rule="evenodd"/><path d="M1792.25 1531.22C1792.25 1529.81 1791.62 1527.7 1791 1527 1792.25 1528.41 1792.88 1529.81 1792.88 1531.22 1792.88 1537.56 1792.88 1537.56 1792.88 1537.56 1792.88 1560.78 1792.88 1560.78 1792.88 1560.78 1792.88 1561.48 1794.12 1565 1796 1565 1792.25 1565 1791.62 1561.48 1791.62 1559.37L1792.25 1531.22Z" fill="#FFFFFF" fill-rule="evenodd"/><path d="M1814 1615C1814 1619.42 1810.42 1623 1806 1623 1801.58 1623 1798 1619.42 1798 1615 1798 1610.58 1801.58 1607 1806 1607 1810.42 1607 1814 1610.58 1814 1615Z" fill="#FFFFFF" fill-rule="evenodd"/><path d="M1822 1424.5C1822 1410.97 1832.3 1400 1845 1400 1857.7 1400 1868 1410.97 1868 1424.5 1868 1438.03 1857.7 1449 1845 1449 1832.3 1449 1822 1438.03 1822 1424.5Z" fill="#F09D00" fill-rule="evenodd"/><path d="M1822.5 1425C1822.5 1411.47 1832.8 1400.5 1845.5 1400.5 1858.2 1400.5 1868.5 1411.47 1868.5 1425 1868.5 1438.53 1858.2 1449.5 1845.5 1449.5 1832.8 1449.5 1822.5 1438.53 1822.5 1425Z" stroke="#333333" stroke-width="2.86476" stroke-miterlimit="8" fill="none" fill-rule="evenodd"/><path d="M1854.03 1466.38C1854.69 1467.09 1854.69 1467.09 1854.69 1467.09 1854.69 1467.8 1854.69 1467.8 1855.34 1468.52 1855.34 1469.23 1855.34 1469.23 1855.34 1469.23 1855.34 1469.94 1856 1469.94 1856 1469.94 1856 1470.66 1856 1471.37 1856 1472.08 1856 1503.44 1856 1503.44 1856 1503.44 1856 1505.57 1854.69 1507 1852.71 1507 1850.74 1507 1849.43 1505.57 1849.43 1503.44 1849.43 1472.08 1849.43 1472.08 1849.43 1472.08 1849.43 1470.66 1847.46 1467.8 1844.83 1467.8 1841.54 1467.8 1839.57 1470.66 1839.57 1472.08 1839.57 1503.44 1839.57 1503.44 1839.57 1503.44 1839.57 1505.57 1838.26 1507 1836.29 1507 1834.97 1507 1833 1505.57 1833 1503.44 1833 1472.08 1833 1472.08 1833 1472.08 1833 1471.37 1833 1470.66 1833.66 1469.94 1833.66 1469.94 1833.66 1469.94 1833.66 1469.23 1833.66 1469.23 1833.66 1468.52 1834.31 1468.52 1834.31 1467.8 1834.31 1467.8 1834.31 1467.8 1834.97 1467.09 1834.97 1466.38 1834.97 1466.38 1835.63 1465.67 1835.63 1465.67 1835.63 1465.67 1835.63 1464.95 1836.29 1464.24 1836.94 1464.24 1836.94 1463.53 1837.6 1463.53 1837.6 1462.82 1838.26 1462.82 1838.26 1462.82 1838.26 1462.82 1838.26 1462.1 1838.91 1462.1 1839.57 1462.1 1839.57 1461.39 1839.57 1461.39 1839.57 1461.39 1840.23 1461.39 1840.89 1460.68 1840.89 1460.68 1840.89 1448.56 1840.89 1448.56 1840.89 1448.56 1840.89 1447.14 1842.2 1445 1844.17 1445 1846.14 1445 1847.46 1447.14 1847.46 1448.56 1847.46 1460.68 1847.46 1460.68 1847.46 1460.68 1847.46 1460.68 1847.46 1460.68 1847.46 1460.68 1849.43 1461.39 1851.4 1462.82 1853.37 1464.95 1853.37 1464.95 1853.37 1464.95 1853.37 1465.67 1854.03 1465.67 1854.03 1466.38 1854.03 1466.38Z" fill="#7C7C7C" fill-rule="evenodd"/><path d="M1834 1501.8C1834 1471 1834 1471 1834 1471 1834 1471 1834 1471 1834 1471 1834 1471 1835 1481.5 1836 1487.1 1836 1492 1836 1501.1 1836 1501.1 1836 1501.8 1836 1505.3 1836 1506 1836 1506 1836 1506 1836 1506 1835 1504.6 1834 1503.2 1834 1501.8Z" fill="#FFFFFF" fill-rule="evenodd"/><path d="M1850.75 1501.78C1850.75 1503.19 1851.38 1505.3 1852 1506 1850.75 1504.59 1850.13 1503.19 1850.13 1501.78 1850.13 1495.44 1850.13 1495.44 1850.13 1495.44 1850.13 1472.22 1850.13 1472.22 1850.13 1472.22 1850.13 1471.52 1848.88 1468 1847 1468 1850.75 1468 1851.38 1471.52 1851.38 1473.63L1850.75 1501.78Z" fill="#FFFFFF" fill-rule="evenodd"/><path d="M1829 1418C1829 1413.58 1832.36 1410 1836.5 1410 1840.64 1410 1844 1413.58 1844 1418 1844 1422.42 1840.64 1426 1836.5 1426 1832.36 1426 1829 1422.42 1829 1418Z" fill="#FFFFFF" fill-rule="evenodd"/><path d="M1869 1608.5C1869 1622.03 1858.48 1633 1845.5 1633 1832.52 1633 1822 1622.03 1822 1608.5 1822 1594.97 1832.52 1584 1845.5 1584 1858.48 1584 1869 1594.97 1869 1608.5Z" fill="#F09D00" fill-rule="evenodd"/><path d="M1869.5 1609C1869.5 1622.53 1858.98 1633.5 1846 1633.5 1833.02 1633.5 1822.5 1622.53 1822.5 1609 1822.5 1595.47 1833.02 1584.5 1846 1584.5 1858.98 1584.5 1869.5 1595.47 1869.5 1609Z" stroke="#333333" stroke-width="2.86476" stroke-miterlimit="8" fill="none" fill-rule="evenodd"/><path d="M1835.97 1566.62C1835.31 1565.91 1835.31 1565.91 1835.31 1565.91 1835.31 1565.2 1835.31 1565.2 1834.66 1564.48 1834.66 1563.77 1834.66 1563.77 1834.66 1563.77 1834.66 1563.06 1834 1563.06 1834 1563.06 1834 1562.34 1834 1561.63 1834 1560.92 1834 1529.56 1834 1529.56 1834 1529.56 1834 1527.43 1835.31 1526 1837.29 1526 1839.26 1526 1840.57 1527.43 1840.57 1529.56 1840.57 1560.92 1840.57 1560.92 1840.57 1560.92 1840.57 1562.34 1842.54 1565.2 1845.17 1565.2 1848.46 1565.2 1850.43 1562.34 1850.43 1560.92 1850.43 1529.56 1850.43 1529.56 1850.43 1529.56 1850.43 1527.43 1851.74 1526 1853.71 1526 1855.03 1526 1857 1527.43 1857 1529.56 1857 1560.92 1857 1560.92 1857 1560.92 1857 1561.63 1857 1562.34 1856.34 1563.06 1856.34 1563.06 1856.34 1563.06 1856.34 1563.77 1856.34 1563.77 1856.34 1564.48 1855.69 1564.48 1855.69 1565.2 1855.69 1565.2 1855.69 1565.2 1855.03 1565.91 1855.03 1566.62 1855.03 1566.62 1854.37 1567.33 1854.37 1567.33 1854.37 1567.33 1854.37 1568.05 1853.71 1568.76 1853.06 1568.76 1853.06 1569.47 1852.4 1569.47 1852.4 1570.18 1851.74 1570.18 1851.74 1570.18 1851.74 1570.18 1851.74 1570.9 1851.09 1570.9 1850.43 1570.9 1850.43 1571.61 1850.43 1571.61 1850.43 1571.61 1849.77 1571.61 1849.11 1572.32 1849.11 1572.32 1849.11 1584.44 1849.11 1584.44 1849.11 1584.44 1849.11 1585.86 1847.8 1588 1845.83 1588 1843.86 1588 1842.54 1585.86 1842.54 1584.44 1842.54 1572.32 1842.54 1572.32 1842.54 1572.32 1842.54 1572.32 1842.54 1572.32 1842.54 1572.32 1840.57 1571.61 1838.6 1570.18 1836.63 1568.05 1836.63 1568.05 1836.63 1568.05 1836.63 1567.33 1835.97 1567.33 1835.97 1566.62 1835.97 1566.62Z" fill="#7C7C7C" fill-rule="evenodd"/><path d="M1856 1531.2C1856 1562 1856 1562 1856 1562 1856 1562 1856 1562 1856 1562 1856 1562 1855.5 1551.5 1855 1545.9 1855 1541 1855 1531.9 1855 1531.9 1855 1531.2 1855 1527.7 1855 1527 1855 1527 1855 1527 1855 1527 1855.5 1528.4 1856 1529.8 1856 1531.2Z" fill="#FFFFFF" fill-rule="evenodd"/><path d="M1839.5 1531.22C1839.5 1529.81 1838.75 1527.7 1838 1527 1839.5 1528.41 1840.25 1529.81 1840.25 1531.22 1840.25 1537.56 1840.25 1537.56 1840.25 1537.56 1840.25 1560.78 1840.25 1560.78 1840.25 1560.78 1840.25 1561.48 1841.75 1565 1844 1565 1839.5 1565 1838.75 1561.48 1838.75 1559.37L1839.5 1531.22Z" fill="#FFFFFF" fill-rule="evenodd"/><path d="M1861 1615C1861 1619.42 1857.64 1623 1853.5 1623 1849.36 1623 1846 1619.42 1846 1615 1846 1610.58 1849.36 1607 1853.5 1607 1857.64 1607 1861 1610.58 1861 1615Z" fill="#FFFFFF" fill-rule="evenodd"/><path d="M1870 1424.5C1870 1410.97 1880.3 1400 1893 1400 1905.7 1400 1916 1410.97 1916 1424.5 1916 1438.03 1905.7 1449 1893 1449 1880.3 1449 1870 1438.03 1870 1424.5Z" fill="#F09D00" fill-rule="evenodd"/><path d="M1870.5 1425C1870.5 1411.47 1880.8 1400.5 1893.5 1400.5 1906.2 1400.5 1916.5 1411.47 1916.5 1425 1916.5 1438.53 1906.2 1449.5 1893.5 1449.5 1880.8 1449.5 1870.5 1438.53 1870.5 1425Z" stroke="#333333" stroke-width="2.86476" stroke-miterlimit="8" fill="none" fill-rule="evenodd"/><path d="M1902.03 1466.38C1902.69 1467.09 1902.69 1467.09 1902.69 1467.09 1902.69 1467.8 1902.69 1467.8 1903.34 1468.52 1903.34 1469.23 1903.34 1469.23 1903.34 1469.23 1903.34 1469.94 1904 1469.94 1904 1469.94 1904 1470.66 1904 1471.37 1904 1472.08 1904 1503.44 1904 1503.44 1904 1503.44 1904 1505.57 1902.69 1507 1900.71 1507 1898.74 1507 1897.43 1505.57 1897.43 1503.44 1897.43 1472.08 1897.43 1472.08 1897.43 1472.08 1897.43 1470.66 1895.46 1467.8 1892.83 1467.8 1889.54 1467.8 1887.57 1470.66 1887.57 1472.08 1887.57 1503.44 1887.57 1503.44 1887.57 1503.44 1887.57 1505.57 1886.26 1507 1884.29 1507 1882.97 1507 1881 1505.57 1881 1503.44 1881 1472.08 1881 1472.08 1881 1472.08 1881 1471.37 1881 1470.66 1881.66 1469.94 1881.66 1469.94 1881.66 1469.94 1881.66 1469.23 1881.66 1469.23 1881.66 1468.52 1882.31 1468.52 1882.31 1467.8 1882.31 1467.8 1882.31 1467.8 1882.97 1467.09 1882.97 1466.38 1882.97 1466.38 1883.63 1465.67 1883.63 1465.67 1883.63 1465.67 1883.63 1464.95 1884.29 1464.24 1884.94 1464.24 1884.94 1463.53 1885.6 1463.53 1885.6 1462.82 1886.26 1462.82 1886.26 1462.82 1886.26 1462.82 1886.26 1462.1 1886.91 1462.1 1887.57 1462.1 1887.57 1461.39 1887.57 1461.39 1887.57 1461.39 1888.23 1461.39 1888.89 1460.68 1888.89 1460.68 1888.89 1448.56 1888.89 1448.56 1888.89 1448.56 1888.89 1447.14 1890.2 1445 1892.17 1445 1894.14 1445 1895.46 1447.14 1895.46 1448.56 1895.46 1460.68 1895.46 1460.68 1895.46 1460.68 1895.46 1460.68 1895.46 1460.68 1895.46 1460.68 1897.43 1461.39 1899.4 1462.82 1901.37 1464.95 1901.37 1464.95 1901.37 1464.95 1901.37 1465.67 1902.03 1465.67 1902.03 1466.38 1902.03 1466.38Z" fill="#7C7C7C" fill-rule="evenodd"/><path d="M1883 1501.8C1883 1471 1883 1471 1883 1471 1883 1471 1883 1471 1883 1471 1883 1471 1883.5 1481.5 1884 1487.1 1884 1492 1884 1501.1 1884 1501.1 1884 1501.8 1884 1505.3 1884 1506 1884 1506 1884 1506 1884 1506 1883.5 1504.6 1883 1503.2 1883 1501.8Z" fill="#FFFFFF" fill-rule="evenodd"/><path d="M1898.75 1501.78C1898.75 1503.19 1899.38 1505.3 1900 1506 1898.75 1504.59 1898.12 1503.19 1898.12 1501.78 1898.12 1495.44 1898.12 1495.44 1898.12 1495.44 1898.12 1472.22 1898.12 1472.22 1898.12 1472.22 1898.12 1471.52 1896.88 1468 1895 1468 1898.75 1468 1899.38 1471.52 1899.38 1473.63L1898.75 1501.78Z" fill="#FFFFFF" fill-rule="evenodd"/><path d="M1877 1418C1877 1413.58 1880.36 1410 1884.5 1410 1888.64 1410 1892 1413.58 1892 1418 1892 1422.42 1888.64 1426 1884.5 1426 1880.36 1426 1877 1422.42 1877 1418Z" fill="#FFFFFF" fill-rule="evenodd"/><path d="M1917 1608.5C1917 1622.03 1906.7 1633 1894 1633 1881.3 1633 1871 1622.03 1871 1608.5 1871 1594.97 1881.3 1584 1894 1584 1906.7 1584 1917 1594.97 1917 1608.5Z" fill="#F09D00" fill-rule="evenodd"/><path d="M1917.5 1609C1917.5 1622.53 1907.2 1633.5 1894.5 1633.5 1881.8 1633.5 1871.5 1622.53 1871.5 1609 1871.5 1595.47 1881.8 1584.5 1894.5 1584.5 1907.2 1584.5 1917.5 1595.47 1917.5 1609Z" stroke="#333333" stroke-width="2.86476" stroke-miterlimit="8" fill="none" fill-rule="evenodd"/><path d="M1884.97 1566.62C1884.31 1565.91 1884.31 1565.91 1884.31 1565.91 1884.31 1565.2 1884.31 1565.2 1883.66 1564.48 1883.66 1563.77 1883.66 1563.77 1883.66 1563.77 1883.66 1563.06 1883 1563.06 1883 1563.06 1883 1562.34 1883 1561.63 1883 1560.92 1883 1529.56 1883 1529.56 1883 1529.56 1883 1527.43 1884.31 1526 1886.29 1526 1888.26 1526 1889.57 1527.43 1889.57 1529.56 1889.57 1560.92 1889.57 1560.92 1889.57 1560.92 1889.57 1562.34 1891.54 1565.2 1894.17 1565.2 1897.46 1565.2 1899.43 1562.34 1899.43 1560.92 1899.43 1529.56 1899.43 1529.56 1899.43 1529.56 1899.43 1527.43 1900.74 1526 1902.71 1526 1904.03 1526 1906 1527.43 1906 1529.56 1906 1560.92 1906 1560.92 1906 1560.92 1906 1561.63 1906 1562.34 1905.34 1563.06 1905.34 1563.06 1905.34 1563.06 1905.34 1563.77 1905.34 1563.77 1905.34 1564.48 1904.69 1564.48 1904.69 1565.2 1904.69 1565.2 1904.69 1565.2 1904.03 1565.91 1904.03 1566.62 1904.03 1566.62 1903.37 1567.33 1903.37 1567.33 1903.37 1567.33 1903.37 1568.05 1902.71 1568.76 1902.06 1568.76 1902.06 1569.47 1901.4 1569.47 1901.4 1570.18 1900.74 1570.18 1900.74 1570.18 1900.74 1570.18 1900.74 1570.9 1900.09 1570.9 1899.43 1570.9 1899.43 1571.61 1899.43 1571.61 1899.43 1571.61 1898.77 1571.61 1898.11 1572.32 1898.11 1572.32 1898.11 1584.44 1898.11 1584.44 1898.11 1584.44 1898.11 1585.86 1896.8 1588 1894.83 1588 1892.86 1588 1891.54 1585.86 1891.54 1584.44 1891.54 1572.32 1891.54 1572.32 1891.54 1572.32 1891.54 1572.32 1891.54 1572.32 1891.54 1572.32 1889.57 1571.61 1887.6 1570.18 1885.63 1568.05 1885.63 1568.05 1885.63 1568.05 1885.63 1567.33 1884.97 1567.33 1884.97 1566.62 1884.97 1566.62Z" fill="#7C7C7C" fill-rule="evenodd"/><path d="M1904 1531.2C1904 1562 1904 1562 1904 1562 1904 1562 1904 1562 1904 1562 1904 1562 1903.5 1551.5 1903 1545.9 1903 1541 1903 1531.9 1903 1531.9 1903 1531.2 1903 1527.7 1903 1527 1903 1527 1903 1527 1903 1527 1903.5 1528.4 1904 1529.8 1904 1531.2Z" fill="#FFFFFF" fill-rule="evenodd"/><path d="M1888.25 1531.22C1888.25 1529.81 1887.62 1527.7 1887 1527 1888.25 1528.41 1888.87 1529.81 1888.87 1531.22 1888.87 1537.56 1888.87 1537.56 1888.87 1537.56 1888.87 1560.78 1888.87 1560.78 1888.87 1560.78 1888.87 1561.48 1890.12 1565 1892 1565 1888.25 1565 1887.62 1561.48 1887.62 1559.37L1888.25 1531.22Z" fill="#FFFFFF" fill-rule="evenodd"/><path d="M1910 1615C1910 1619.42 1906.64 1623 1902.5 1623 1898.36 1623 1895 1619.42 1895 1615 1895 1610.58 1898.36 1607 1902.5 1607 1906.64 1607 1910 1610.58 1910 1615Z" fill="#FFFFFF" fill-rule="evenodd"/></g></svg>