<svg width="409" height="436" xmlns="http://www.w3.org/2000/svg" xmlns:xlink="http://www.w3.org/1999/xlink" xml:space="preserve" overflow="hidden"><g transform="translate(-1181 -1066)"><path d="M1183 1284C1183 1164.71 1273.66 1068 1385.5 1068 1497.34 1068 1588 1164.71 1588 1284 1588 1403.29 1497.34 1500 1385.5 1500 1273.66 1500 1183 1403.29 1183 1284Z" fill="#FBE5E8" fill-rule="evenodd"/><path d="M1540.5 1258.89C1540.5 1368.68 1457.45 1457.13 1354.35 1457.13 1322.85 1457.13 1292.77 1449.5 1267 1434.25 1282.75 1447.98 1299.93 1460.18 1318.55 1467.8 1340.03 1475.43 1362.94 1480 1385.85 1480 1488.95 1480 1572 1391.56 1572 1281.76 1572 1228.39 1551.95 1179.6 1520.45 1143 1534.77 1175.02 1540.5 1197.9 1540.5 1258.89Z" fill="#F8CFD6" fill-rule="evenodd"/><path d="M1267.51 1174.7C1301.76 1127.35 1357.42 1102.91 1417.37 1102.91 1448.77 1102.91 1477.31 1112.07 1503 1125.82 1471.6 1098.33 1430.21 1080 1384.54 1080 1281.78 1080 1199 1170.11 1199 1280.08 1199 1319.8 1208.99 1356.45 1227.54 1387 1199 1281.61 1241.82 1208.3 1267.51 1174.7Z" fill="#FEF4F5" fill-rule="evenodd"/><path d="M1183 1284C1183 1164.71 1273.66 1068 1385.5 1068 1497.34 1068 1588 1164.71 1588 1284 1588 1403.29 1497.34 1500 1385.5 1500 1273.66 1500 1183 1403.29 1183 1284Z" stroke="#58585A" stroke-width="4.0106" stroke-linecap="round" stroke-linejoin="round" stroke-miterlimit="10" fill="none" fill-rule="evenodd"/><path d="M1309 1130.5C1309 1126.36 1312.13 1123 1316 1123 1319.87 1123 1323 1126.36 1323 1130.5 1323 1134.64 1319.87 1138 1316 1138 1312.13 1138 1309 1134.64 1309 1130.5Z" fill="#FFFFFF" fill-rule="evenodd"/><path d="M1282 1145C1282 1137.82 1287.37 1132 1294 1132 1300.63 1132 1306 1137.82 1306 1145 1306 1152.18 1300.63 1158 1294 1158 1287.37 1158 1282 1152.18 1282 1145Z" fill="#FFFFFF" fill-rule="evenodd"/><path d="M1265 1157.5C1265 1153.36 1268.13 1150 1272 1150 1275.87 1150 1279 1153.36 1279 1157.5 1279 1161.64 1275.87 1165 1272 1165 1268.13 1165 1265 1161.64 1265 1157.5Z" fill="#FFFFFF" fill-rule="evenodd"/></g></svg>