<svg width="47" height="200" xmlns="http://www.w3.org/2000/svg" xmlns:xlink="http://www.w3.org/1999/xlink" xml:space="preserve" overflow="hidden"><g transform="translate(-1255 -1151)"><path d="M1280.63 1255.87C1277.79 1295.76 1301.95 1351 1270.68 1347.93 1238 1344.86 1270.68 1295.76 1273.53 1254.34 1276.37 1214.44 1250.79 1150 1284.89 1153.07 1319 1156.14 1284.89 1215.98 1280.63 1255.87Z" fill="#9E087D" fill-rule="evenodd"/><path d="M1276.05 1230C1273.21 1194.8 1259 1155 1286 1158.06 1278.89 1161.12 1270.37 1165.71 1276.05 1230Z" fill="#DBBAD6" fill-rule="evenodd"/><path d="M1269.23 1343C1254 1336.89 1263.69 1312.47 1272 1285 1269.23 1297.21 1260.92 1336.89 1269.23 1343Z" fill="#DBBAD6" fill-rule="evenodd"/><path d="M1278 1273C1278 1285.17 1291 1332.35 1279.44 1343 1285.22 1333.87 1279.44 1324.74 1278 1306.48 1278 1285.17 1278 1285.17 1278 1273Z" fill="#7F0566" fill-rule="evenodd"/><path d="M1281.13 1256.37C1278.29 1296.26 1302.45 1351.5 1271.18 1348.43 1238.5 1345.36 1271.18 1296.26 1274.03 1254.84 1276.87 1214.94 1251.29 1150.5 1285.39 1153.57 1319.5 1156.64 1285.39 1216.48 1281.13 1256.37Z" stroke="#58585A" stroke-width="2.86476" stroke-linecap="round" stroke-linejoin="round" stroke-miterlimit="10" fill="none" fill-rule="evenodd"/></g></svg>