<svg width="37" height="164" xmlns="http://www.w3.org/2000/svg" xmlns:xlink="http://www.w3.org/1999/xlink" xml:space="preserve" overflow="hidden"><g transform="translate(-1331 -1236)"><path d="M1351.72 1315.7C1351.72 1350.93 1382 1392.28 1353.16 1396.87 1324.33 1403 1337.3 1344.8 1337.3 1308.04 1337.3 1272.82 1320 1233 1350.28 1237.59 1380.56 1242.19 1351.72 1280.48 1351.72 1315.7Z" fill="#9ACB9A" fill-rule="evenodd"/><path d="M1350 1242.53C1338.36 1241 1334 1245.58 1335.45 1260.84 1336.91 1277.63 1342.73 1303.58 1339.82 1328 1342.73 1308.16 1342.73 1282.21 1341.27 1266.95 1339.82 1251.68 1341.27 1242.53 1350 1242.53Z" fill="#ECF5EB" fill-rule="evenodd"/><path d="M1354 1393.9C1336 1397 1337.38 1373.72 1338.77 1352 1338.77 1365.97 1342.92 1392.34 1354 1393.9Z" fill="#ECF5EB" fill-rule="evenodd"/><path d="M1359 1248C1363.2 1252.62 1357.6 1268 1354.8 1280.31 1352 1292.62 1347.8 1303.38 1349.2 1321.85 1350.6 1340.31 1366 1375.69 1361.8 1388 1363.2 1375.69 1350.6 1351.08 1347.8 1332.62 1345 1315.69 1345 1301.85 1352 1280.31 1359 1257.23 1360.4 1252.62 1359 1248Z" fill="#47AC61" fill-rule="evenodd"/><path d="M1352.22 1316.2C1352.22 1351.43 1382.5 1392.78 1353.66 1397.37 1324.83 1403.5 1337.8 1345.3 1337.8 1308.55 1337.8 1273.32 1320.5 1233.5 1350.78 1238.09 1381.06 1242.69 1352.22 1280.98 1352.22 1316.2Z" stroke="#58585A" stroke-width="2.86476" stroke-linecap="round" stroke-linejoin="round" stroke-miterlimit="10" fill="none" fill-rule="evenodd"/></g></svg>