<svg width="106" height="136" xmlns="http://www.w3.org/2000/svg" xmlns:xlink="http://www.w3.org/1999/xlink" xml:space="preserve" overflow="hidden"><g transform="translate(-1444 -1292)"><path d="M1508.66 1358.14C1530.11 1332.22 1563 1300.2 1540.12 1294.1 1514.38 1288 1512.95 1335.27 1491.49 1361.19 1468.61 1385.58 1430 1399.31 1451.45 1420.65 1472.9 1442 1485.77 1382.53 1508.66 1358.14Z" fill="#9ACB9A" fill-rule="evenodd"/><path d="M1543 1298.63C1535.86 1294 1527.29 1298.63 1518.71 1315.6 1510.14 1334.11 1507.29 1341.83 1503 1348 1511.57 1335.66 1520.14 1321.77 1524.43 1314.06 1528.71 1304.8 1535.86 1297.09 1543 1298.63Z" fill="#ECF5EB" fill-rule="evenodd"/><path d="M1453.69 1417C1445 1409.5 1450.79 1402 1456.59 1394.5 1463.83 1388.5 1479.76 1376.5 1487 1369 1479.76 1379.5 1466.72 1391.5 1460.93 1397.5 1456.59 1403.5 1449.34 1409.5 1453.69 1417Z" fill="#ECF5EB" fill-rule="evenodd"/><path d="M1537 1318C1532.75 1325.69 1512.94 1347.21 1504.45 1359.51 1494.55 1370.27 1494.55 1374.88 1486.06 1390.25 1476.15 1404.09 1470.49 1421 1462 1421 1470.49 1419.46 1477.57 1401.01 1486.06 1385.64 1493.13 1368.73 1497.38 1361.04 1505.87 1351.82 1512.94 1342.6 1531.34 1324.15 1537 1318Z" fill="#47AC61" fill-rule="evenodd"/><path d="M1509.16 1358.64C1530.61 1332.72 1563.5 1300.7 1540.62 1294.6 1514.88 1288.5 1513.45 1335.77 1491.99 1361.69 1469.11 1386.08 1430.5 1399.81 1451.95 1421.15 1473.4 1442.5 1486.27 1383.03 1509.16 1358.64Z" stroke="#58585A" stroke-width="2.86476" stroke-linecap="round" stroke-linejoin="round" stroke-miterlimit="10" fill="none" fill-rule="evenodd"/></g></svg>