<svg width="409" height="436" xmlns="http://www.w3.org/2000/svg" xmlns:xlink="http://www.w3.org/1999/xlink" xml:space="preserve" overflow="hidden"><g transform="translate(-1181 -1066)"><path d="M1183 1284C1183 1164.71 1273.66 1068 1385.5 1068 1497.34 1068 1588 1164.71 1588 1284 1588 1403.29 1497.34 1500 1385.5 1500 1273.66 1500 1183 1403.29 1183 1284Z" fill="#FBE5E8" fill-rule="evenodd"/><path d="M1540.5 1258.89C1540.5 1368.68 1457.45 1457.13 1354.35 1457.13 1322.85 1457.13 1292.77 1449.5 1267 1434.25 1282.75 1447.98 1299.93 1460.18 1318.55 1467.8 1340.03 1475.43 1362.94 1480 1385.85 1480 1488.95 1480 1572 1391.56 1572 1281.76 1572 1228.39 1551.95 1179.6 1520.45 1143 1534.77 1175.02 1540.5 1197.9 1540.5 1258.89Z" fill="#F8CFD6" fill-rule="evenodd"/><path d="M1267.51 1174.7C1301.76 1127.35 1357.42 1102.91 1417.37 1102.91 1448.77 1102.91 1477.31 1112.07 1503 1125.82 1471.6 1098.33 1430.21 1080 1384.54 1080 1281.78 1080 1199 1170.11 1199 1280.08 1199 1319.8 1208.99 1356.45 1227.54 1387 1199 1281.61 1241.82 1208.3 1267.51 1174.7Z" fill="#FEF4F5" fill-rule="evenodd"/><path d="M1183 1284C1183 1164.71 1273.66 1068 1385.5 1068 1497.34 1068 1588 1164.71 1588 1284 1588 1403.29 1497.34 1500 1385.5 1500 1273.66 1500 1183 1403.29 1183 1284Z" stroke="#58585A" stroke-width="4.0106" stroke-linecap="round" stroke-linejoin="round" stroke-miterlimit="10" fill="none" fill-rule="evenodd"/><path d="M1309 1130.5C1309 1126.36 1312.13 1123 1316 1123 1319.87 1123 1323 1126.36 1323 1130.5 1323 1134.64 1319.87 1138 1316 1138 1312.13 1138 1309 1134.64 1309 1130.5Z" fill="#FFFFFF" fill-rule="evenodd"/><path d="M1282 1145C1282 1137.82 1287.37 1132 1294 1132 1300.63 1132 1306 1137.82 1306 1145 1306 1152.18 1300.63 1158 1294 1158 1287.37 1158 1282 1152.18 1282 1145Z" fill="#FFFFFF" fill-rule="evenodd"/><path d="M1265 1157.5C1265 1153.36 1268.13 1150 1272 1150 1275.87 1150 1279 1153.36 1279 1157.5 1279 1161.64 1275.87 1165 1272 1165 1268.13 1165 1265 1161.64 1265 1157.5Z" fill="#FFFFFF" fill-rule="evenodd"/><path d="M1351.72 1315.7C1351.72 1350.93 1382 1392.28 1353.16 1396.87 1324.33 1403 1337.3 1344.8 1337.3 1308.04 1337.3 1272.82 1320 1233 1350.28 1237.59 1380.56 1242.19 1351.72 1280.48 1351.72 1315.7Z" fill="#9ACB9A" fill-rule="evenodd"/><path d="M1350 1242.53C1338.36 1241 1334 1245.58 1335.45 1260.84 1336.91 1277.63 1342.73 1303.58 1339.82 1328 1342.73 1308.16 1342.73 1282.21 1341.27 1266.95 1339.82 1251.68 1341.27 1242.53 1350 1242.53Z" fill="#ECF5EB" fill-rule="evenodd"/><path d="M1354 1393.9C1336 1397 1337.38 1373.72 1338.77 1352 1338.77 1365.97 1342.92 1392.34 1354 1393.9Z" fill="#ECF5EB" fill-rule="evenodd"/><path d="M1359 1248C1363.2 1252.62 1357.6 1268 1354.8 1280.31 1352 1292.62 1347.8 1303.38 1349.2 1321.85 1350.6 1340.31 1366 1375.69 1361.8 1388 1363.2 1375.69 1350.6 1351.08 1347.8 1332.62 1345 1315.69 1345 1301.85 1352 1280.31 1359 1257.23 1360.4 1252.62 1359 1248Z" fill="#47AC61" fill-rule="evenodd"/><path d="M1352.22 1316.2C1352.22 1351.43 1382.5 1392.78 1353.66 1397.37 1324.83 1403.5 1337.8 1345.3 1337.8 1308.55 1337.8 1273.32 1320.5 1233.5 1350.78 1238.09 1381.06 1242.69 1352.22 1280.98 1352.22 1316.2Z" stroke="#58585A" stroke-width="2.86476" stroke-linecap="round" stroke-linejoin="round" stroke-miterlimit="10" fill="none" fill-rule="evenodd"/><path d="M1436.85 1188.8C1434.03 1214.81 1442.49 1250 1422.74 1242.35 1403 1236.23 1428.38 1204.1 1431.2 1178.08 1435.44 1153.6 1417.1 1127.59 1436.85 1124.53 1458 1123 1441.08 1164.31 1436.85 1188.8Z" fill="#9E087D" fill-rule="evenodd"/><path d="M1437 1128C1430.6 1129.53 1429 1132.59 1430.6 1141.78 1432.2 1152.5 1435.4 1169.34 1433.8 1177 1435.4 1166.28 1433.8 1147.91 1433.8 1141.78 1433.8 1134.12 1433.8 1129.53 1437 1128Z" fill="#DBBAD6" fill-rule="evenodd"/><path d="M1429 1196C1425 1205.2 1417 1223.6 1418.33 1232.8 1418.33 1242 1427.67 1238.93 1427.67 1238.93 1422.33 1237.4 1421 1232.8 1422.33 1220.53 1423.67 1209.8 1429 1196 1429 1196Z" fill="#DBBAD6" fill-rule="evenodd"/><path d="M1437.35 1189.3C1434.53 1215.31 1442.99 1250.5 1423.24 1242.85 1403.5 1236.73 1428.88 1204.6 1431.71 1178.58 1435.94 1154.1 1417.6 1128.09 1437.35 1125.03 1458.5 1123.5 1441.58 1164.81 1437.35 1189.3Z" stroke="#58585A" stroke-width="2.86476" stroke-linecap="round" stroke-linejoin="round" stroke-miterlimit="10" fill="none" fill-rule="evenodd"/><path d="M1508.66 1358.14C1530.11 1332.22 1563 1300.2 1540.12 1294.1 1514.38 1288 1512.95 1335.27 1491.49 1361.19 1468.61 1385.58 1430 1399.31 1451.45 1420.65 1472.9 1442 1485.77 1382.53 1508.66 1358.14Z" fill="#9ACB9A" fill-rule="evenodd"/><path d="M1543 1298.63C1535.86 1294 1527.29 1298.63 1518.71 1315.6 1510.14 1334.11 1507.29 1341.83 1503 1348 1511.57 1335.66 1520.14 1321.77 1524.43 1314.06 1528.71 1304.8 1535.86 1297.09 1543 1298.63Z" fill="#ECF5EB" fill-rule="evenodd"/><path d="M1453.69 1417C1445 1409.5 1450.79 1402 1456.59 1394.5 1463.83 1388.5 1479.76 1376.5 1487 1369 1479.76 1379.5 1466.72 1391.5 1460.93 1397.5 1456.59 1403.5 1449.34 1409.5 1453.69 1417Z" fill="#ECF5EB" fill-rule="evenodd"/><path d="M1537 1318C1532.75 1325.69 1512.94 1347.21 1504.45 1359.51 1494.55 1370.27 1494.55 1374.88 1486.06 1390.25 1476.15 1404.09 1470.49 1421 1462 1421 1470.49 1419.46 1477.57 1401.01 1486.06 1385.64 1493.13 1368.73 1497.38 1361.04 1505.87 1351.82 1512.94 1342.6 1531.34 1324.15 1537 1318Z" fill="#47AC61" fill-rule="evenodd"/><path d="M1509.16 1358.64C1530.61 1332.72 1563.5 1300.7 1540.62 1294.6 1514.88 1288.5 1513.45 1335.77 1491.99 1361.69 1469.11 1386.08 1430.5 1399.81 1451.95 1421.15 1473.4 1442.5 1486.27 1383.03 1509.16 1358.64Z" stroke="#58585A" stroke-width="2.86476" stroke-linecap="round" stroke-linejoin="round" stroke-miterlimit="10" fill="none" fill-rule="evenodd"/><path d="M1280.63 1255.87C1277.79 1295.76 1301.95 1351 1270.68 1347.93 1238 1344.86 1270.68 1295.76 1273.53 1254.34 1276.37 1214.44 1250.79 1150 1284.89 1153.07 1319 1156.14 1284.89 1215.98 1280.63 1255.87Z" fill="#9E087D" fill-rule="evenodd"/><path d="M1276.05 1230C1273.21 1194.8 1259 1155 1286 1158.06 1278.89 1161.12 1270.37 1165.71 1276.05 1230Z" fill="#DBBAD6" fill-rule="evenodd"/><path d="M1269.23 1343C1254 1336.89 1263.69 1312.47 1272 1285 1269.23 1297.21 1260.92 1336.89 1269.23 1343Z" fill="#DBBAD6" fill-rule="evenodd"/><path d="M1278 1273C1278 1285.17 1291 1332.35 1279.44 1343 1285.22 1333.87 1279.44 1324.74 1278 1306.48 1278 1285.17 1278 1285.17 1278 1273Z" fill="#7F0566" fill-rule="evenodd"/><path d="M1281.13 1256.37C1278.29 1296.26 1302.45 1351.5 1271.18 1348.43 1238.5 1345.36 1271.18 1296.26 1274.03 1254.84 1276.87 1214.94 1251.29 1150.5 1285.39 1153.57 1319.5 1156.64 1285.39 1216.48 1281.13 1256.37Z" stroke="#58585A" stroke-width="2.86476" stroke-linecap="round" stroke-linejoin="round" stroke-miterlimit="10" fill="none" fill-rule="evenodd"/></g></svg>