<svg width="126" height="192" xmlns="http://www.w3.org/2000/svg" xmlns:xlink="http://www.w3.org/1999/xlink" xml:space="preserve" overflow="hidden"><g transform="translate(-1759 -1149)"><path d="M1835.8 1251.13C1835.8 1249.6 1835.8 1248.06 1838.66 1246.53 1862.98 1237.34 1868.7 1217.42 1878.71 1192.9 1881.57 1183.71 1881.57 1183.71 1881.57 1183.71 1883 1180.65 1881.57 1177.58 1878.71 1176.05 1875.85 1174.52 1871.56 1176.05 1870.13 1179.11 1867.27 1186.77 1867.27 1186.77 1867.27 1186.77 1858.69 1211.29 1851.53 1223.55 1835.8 1229.68 1832.94 1231.21 1825.79 1231.21 1822.93 1225.08 1815.78 1206.69 1820.07 1192.9 1828.65 1168.39 1832.94 1160.73 1832.94 1160.73 1832.94 1160.73 1834.37 1157.66 1832.94 1153.06 1828.65 1151.53 1825.79 1150 1822.93 1151.53 1821.5 1154.6 1817.21 1163.79 1817.21 1163.79 1817.21 1163.79 1807.2 1189.84 1798.62 1208.23 1808.63 1232.74 1810.06 1234.27 1810.06 1237.34 1807.2 1238.87 1800.05 1240.4 1794.33 1245 1788.6 1252.66 1774.3 1267.98 1764.29 1297.1 1761.43 1304.76 1760 1309.35 1761.43 1313.95 1764.29 1315.48 1768.58 1317.02 1772.87 1313.95 1774.3 1310.89 1777.16 1303.23 1788.6 1277.18 1800.05 1263.39 1804.34 1257.26 1808.63 1255.73 1815.78 1252.66 1818.64 1252.66 1820.07 1254.19 1821.5 1255.73 1824.36 1261.85 1825.79 1267.98 1824.36 1274.11 1824.36 1294.03 1814.35 1320.08 1811.49 1327.74 1810.06 1332.34 1811.49 1335.4 1814.35 1336.94 1818.64 1340 1822.93 1336.94 1824.36 1333.87 1827.22 1324.68 1838.66 1297.1 1840.09 1275.65 1841.52 1266.45 1840.09 1258.79 1835.8 1251.13Z" fill="#9E087D" fill-rule="evenodd"/><path d="M1878.69 1176.5C1875.81 1175 1871.5 1176.5 1870.06 1179.5 1867.19 1187 1867.19 1187 1867.19 1187 1865.75 1191.5 1864.31 1194.5 1862.88 1197.5 1862.88 1197.5 1862.88 1197.5 1862.88 1197.5 1860 1206.5 1868.62 1208 1874.38 1203.5 1875.81 1199 1877.25 1196 1878.69 1193 1881.56 1184 1881.56 1184 1881.56 1184 1883 1181 1881.56 1178 1878.69 1176.5Z" fill="#9ACB9A" fill-rule="evenodd"/><path d="M1813.25 1249.57C1806.13 1251.1 1801.86 1254.16 1797.59 1258.76 1786.2 1274.09 1774.81 1298.61 1771.96 1306.28 1770.54 1310.88 1766.27 1312.41 1763.42 1310.88 1762 1310.88 1762 1309.34 1762 1309.34 1762 1312.41 1763.42 1313.94 1764.85 1315.48 1769.12 1317.01 1773.39 1313.94 1774.81 1310.88 1777.66 1303.21 1789.05 1277.16 1800.44 1263.36 1804.71 1257.23 1808.98 1255.7 1816.09 1252.63 1817.52 1252.63 1818.94 1254.16 1820.36 1254.16 1820.36 1254.16 1818.94 1252.63 1818.94 1252.63 1818.94 1251.1 1816.09 1248.03 1813.25 1249.57ZM1827.48 1165.26C1817.52 1188.25 1813.25 1203.58 1820.36 1220.44 1821.79 1221.98 1821.79 1221.98 1821.79 1223.51 1816.09 1206.65 1820.36 1191.32 1828.91 1168.33 1833.18 1160.66 1833.18 1160.66 1833.18 1160.66 1834.6 1157.6 1833.18 1154.53 1830.33 1153 1831.75 1154.53 1830.33 1154.53 1830.33 1156.07L1827.48 1165.26ZM1840.29 1275.62C1841.72 1266.43 1840.29 1258.76 1836.02 1251.1 1836.02 1249.57 1836.02 1248.03 1838.87 1246.5 1863.07 1237.3 1868.76 1217.38 1878.73 1192.85 1881.58 1183.66 1881.58 1183.66 1881.58 1183.66 1883 1180.59 1881.58 1177.52 1880.15 1175.99 1880.15 1177.52 1883 1180.59 1883 1182.12 1880.15 1191.32 1880.15 1191.32 1880.15 1191.32 1870.19 1217.38 1860.22 1232.7 1837.45 1241.9 1833.18 1243.43 1833.18 1246.5 1834.6 1246.5 1837.45 1254.16 1838.87 1261.83 1838.87 1272.56 1836.02 1294.02 1824.64 1321.61 1821.79 1329.27 1820.36 1333.87 1816.09 1335.4 1813.25 1333.87 1811.82 1333.87 1811.82 1332.34 1810.4 1332.34 1811.82 1335.4 1813.25 1336.93 1814.67 1336.93 1818.94 1340 1823.21 1336.93 1824.64 1333.87 1827.48 1324.67 1838.87 1297.08 1840.29 1275.62Z" fill="#7F0566" fill-rule="evenodd"/><path d="M1822.92 1258C1825.75 1262.5 1827.17 1268.5 1827.17 1274.5 1825.75 1295.5 1814.42 1324 1813 1327 1813 1327 1813 1327 1813 1327 1814.42 1324 1827.17 1298.5 1828.58 1277.5 1830 1270 1827.17 1262.5 1822.92 1258Z" fill="#FFFFFF" fill-rule="evenodd"/><path d="M1817.58 1170.57C1807.63 1193.4 1801.95 1210.14 1811.89 1232.98 1811.89 1234.5 1811.89 1236.02 1811.89 1237.54 1811.89 1239.07 1810.47 1239.07 1809.05 1239.07 1801.95 1242.11 1796.26 1246.68 1789.16 1254.29 1777.79 1269.51 1767.84 1292.34 1765 1303 1765 1303 1765 1303 1765 1303 1767.84 1292.34 1779.21 1271.03 1792 1255.81 1797.68 1248.2 1803.37 1245.16 1810.47 1242.11 1811.89 1240.59 1813.32 1239.07 1813.32 1237.54 1814.74 1236.02 1814.74 1232.98 1813.32 1232.98 1806.21 1216.23 1807.63 1204.06 1810.47 1188.83 1811.89 1184.27 1816.16 1173.61 1817.58 1169.04 1819 1166 1817.58 1170.57 1817.58 1170.57Z" fill="#FFFFFF" fill-rule="evenodd"/><path d="M1869 1190C1858.82 1212.78 1853 1224.93 1837 1231 1837 1231 1837 1231 1837 1231 1845.73 1227.96 1853 1223.41 1858.82 1215.81 1863.18 1208.22 1864.64 1199.11 1869 1190Z" fill="#FFFFFF" fill-rule="evenodd"/><path d="M1836.3 1251.63C1836.3 1250.1 1836.3 1248.56 1839.16 1247.03 1863.48 1237.84 1869.2 1217.92 1879.21 1193.4 1882.07 1184.21 1882.07 1184.21 1882.07 1184.21 1883.5 1181.15 1882.07 1178.08 1879.21 1176.55 1876.35 1175.02 1872.06 1176.55 1870.63 1179.61 1867.77 1187.27 1867.77 1187.27 1867.77 1187.27 1859.19 1211.79 1852.03 1224.05 1836.3 1230.18 1833.44 1231.71 1826.29 1231.71 1823.43 1225.58 1816.28 1207.19 1820.57 1193.4 1829.15 1168.89 1833.44 1161.23 1833.44 1161.23 1833.44 1161.23 1834.87 1158.16 1833.44 1153.56 1829.15 1152.03 1826.29 1150.5 1823.43 1152.03 1822 1155.1 1817.71 1164.29 1817.71 1164.29 1817.71 1164.29 1807.7 1190.34 1799.12 1208.73 1809.13 1233.24 1810.56 1234.77 1810.56 1237.84 1807.7 1239.37 1800.55 1240.9 1794.83 1245.5 1789.1 1253.16 1774.8 1268.48 1764.79 1297.6 1761.93 1305.26 1760.5 1309.85 1761.93 1314.45 1764.79 1315.98 1769.08 1317.52 1773.37 1314.45 1774.8 1311.39 1777.66 1303.73 1789.1 1277.68 1800.55 1263.89 1804.84 1257.76 1809.13 1256.23 1816.28 1253.16 1819.14 1253.16 1820.57 1254.69 1822 1256.23 1824.86 1262.35 1826.29 1268.48 1824.86 1274.61 1824.86 1294.53 1814.85 1320.58 1811.99 1328.24 1810.56 1332.84 1811.99 1335.9 1814.85 1337.44 1819.14 1340.5 1823.43 1337.44 1824.86 1334.37 1827.72 1325.18 1839.16 1297.6 1840.59 1276.15 1842.02 1266.95 1840.59 1259.29 1836.3 1251.63Z" stroke="#58585A" stroke-width="2.86476" stroke-linecap="round" stroke-linejoin="round" stroke-miterlimit="10" fill="none" fill-rule="evenodd"/></g></svg>