<svg width="128" height="191" xmlns="http://www.w3.org/2000/svg" xmlns:xlink="http://www.w3.org/1999/xlink" xml:space="preserve" overflow="hidden"><g transform="translate(-1869 -1122)"><path d="M1947.59 1223.88C1946.15 1222.35 1946.15 1220.82 1950.46 1219.29 1974.89 1210.12 1980.63 1191.78 1990.69 1165.8 1993.56 1158.15 1993.56 1158.15 1993.56 1158.15 1995 1155.1 1993.56 1150.51 1990.69 1148.98 1987.82 1147.46 1983.51 1148.98 1982.07 1152.04 1979.2 1161.21 1979.2 1161.21 1979.2 1161.21 1970.57 1184.14 1963.39 1196.37 1947.59 1202.48 1944.71 1204.01 1937.53 1204.01 1934.66 1197.89 1927.47 1179.55 1931.78 1165.8 1941.84 1141.34 1944.71 1133.7 1944.71 1133.7 1944.71 1133.7 1946.15 1130.64 1944.71 1126.06 1941.84 1124.53 1938.97 1123 1934.66 1124.53 1933.22 1127.59 1930.34 1136.76 1930.34 1136.76 1930.34 1136.76 1918.85 1161.21 1910.23 1181.08 1920.29 1205.54 1920.29 1207.07 1921.72 1208.59 1918.85 1210.12 1911.67 1213.18 1904.48 1216.24 1898.74 1223.88 1885.8 1240.69 1874.31 1268.2 1871.44 1275.85 1870 1280.43 1871.44 1285.02 1874.31 1286.54 1878.62 1288.07 1882.93 1286.54 1884.37 1281.96 1887.24 1274.32 1898.74 1249.86 1910.23 1236.11 1914.54 1229.99 1920.29 1226.93 1926.03 1225.41 1928.91 1225.41 1931.78 1226.93 1931.78 1228.46 1934.66 1234.58 1936.09 1239.16 1936.09 1246.8 1934.66 1266.67 1924.6 1292.66 1920.29 1300.3 1918.85 1303.36 1920.29 1307.94 1924.6 1309.47 1927.47 1311 1931.78 1309.47 1933.22 1306.41 1937.53 1297.24 1949.02 1269.73 1951.9 1248.33 1951.9 1239.16 1950.46 1231.52 1947.59 1223.88Z" fill="#9ACB9A" fill-rule="evenodd"/><path d="M1924.92 1220.79C1917.77 1223.85 1913.48 1225.38 1907.76 1231.5 1896.31 1245.26 1884.87 1269.72 1882.01 1278.89 1880.58 1281.95 1876.29 1283.48 1873.43 1281.95 1872 1281.95 1872 1281.95 1872 1280.42 1872 1283.48 1873.43 1285.01 1874.86 1286.54 1879.15 1288.07 1883.44 1286.54 1884.87 1281.95 1887.73 1274.31 1899.17 1249.84 1910.62 1236.08 1914.91 1229.97 1920.63 1226.91 1926.35 1225.38 1929.21 1225.38 1930.64 1225.38 1930.64 1226.91 1930.64 1225.38 1930.64 1225.38 1930.64 1223.85 1929.21 1222.32 1927.78 1220.79 1924.92 1220.79ZM1939.22 1138.23C1929.21 1161.17 1924.92 1174.93 1932.07 1193.27 1932.07 1194.8 1933.5 1194.8 1933.5 1196.33 1927.78 1177.98 1932.07 1164.22 1942.08 1141.29 1944.94 1133.64 1944.94 1133.64 1944.94 1133.64 1946.37 1130.59 1944.94 1127.53 1943.51 1126 1943.51 1126 1943.51 1127.53 1942.08 1129.06L1939.22 1138.23ZM1952.09 1248.31C1952.09 1239.14 1950.66 1231.5 1947.8 1223.85 1946.37 1222.32 1946.37 1220.79 1950.66 1219.26 1974.98 1210.09 1980.7 1191.74 1990.71 1165.75 1993.57 1158.11 1993.57 1158.11 1993.57 1158.11 1995 1155.05 1995 1151.99 1992.14 1150.46 1992.14 1150.46 1992.14 1151.99 1992.14 1153.52 1987.85 1161.17 1987.85 1161.17 1987.85 1161.17 1977.84 1187.16 1972.12 1205.5 1947.8 1214.68 1944.94 1216.21 1944.94 1219.26 1944.94 1219.26 1947.8 1226.91 1949.23 1234.55 1949.23 1245.26 1947.8 1266.66 1934.93 1292.65 1932.07 1301.83 1930.64 1304.88 1926.35 1307.94 1922.06 1304.88 1922.06 1304.88 1922.06 1304.88 1920.63 1304.88 1920.63 1306.41 1922.06 1309.47 1924.92 1309.47 1927.78 1311 1932.07 1309.47 1933.5 1306.41 1937.79 1297.24 1949.23 1269.72 1952.09 1248.31Z" fill="#47AC61" fill-rule="evenodd"/><path d="M1934.33 1228C1937.17 1234.13 1938.58 1238.72 1937.17 1246.38 1935.75 1267.83 1924.42 1295.4 1923 1300 1923 1300 1923 1300 1923 1300 1924.42 1295.4 1937.17 1269.36 1938.58 1249.45 1940 1240.26 1937.17 1234.13 1934.33 1228Z" fill="#FFFFFF" fill-rule="evenodd"/><path d="M1981 1162C1970.82 1186.89 1963.55 1197.78 1949 1204 1949 1204 1949 1204 1949 1204 1957.73 1200.89 1965 1196.22 1970.82 1188.44 1975.18 1182.22 1976.64 1171.33 1981 1162Z" fill="#FFFFFF" fill-rule="evenodd"/><path d="M1928.67 1164.46C1930.11 1164.46 1931.56 1166 1933 1166 1934.44 1158.32 1937.33 1150.64 1941.67 1141.43 1944.56 1133.75 1944.56 1133.75 1944.56 1133.75 1946 1130.68 1944.56 1126.07 1941.67 1124.54 1938.78 1123 1934.44 1124.54 1933 1127.61 1930.11 1136.82 1930.11 1136.82 1930.11 1136.82 1925.78 1144.5 1922.89 1152.18 1920 1159.86 1922.89 1162.93 1925.78 1162.93 1928.67 1164.46Z" fill="#9E087D" fill-rule="evenodd"/><path d="M1928.59 1141.06C1918.72 1165.51 1911.67 1180.79 1921.54 1205.24 1922.95 1205.24 1922.95 1206.76 1921.54 1208.29 1921.54 1209.82 1921.54 1211.35 1920.13 1211.35 1913.08 1214.4 1906.03 1218.99 1900.38 1225.1 1887.69 1240.38 1879.23 1264.83 1875 1274 1875 1274 1875 1274 1875 1274 1879.23 1264.83 1890.51 1241.91 1901.8 1226.63 1907.44 1220.52 1913.08 1215.93 1921.54 1212.88 1922.95 1212.88 1924.36 1211.35 1924.36 1209.82 1924.36 1208.29 1924.36 1205.24 1924.36 1203.71 1917.31 1188.43 1917.31 1174.67 1921.54 1160.92 1922.95 1156.34 1927.18 1145.64 1930 1141.06 1930 1138 1928.59 1141.06 1928.59 1141.06Z" fill="#FFFFFF" fill-rule="evenodd"/><path d="M1948.09 1224.38C1946.65 1222.85 1946.65 1221.32 1950.96 1219.79 1975.39 1210.62 1981.13 1192.28 1991.19 1166.3 1994.06 1158.65 1994.06 1158.65 1994.06 1158.65 1995.5 1155.6 1994.06 1151.01 1991.19 1149.48 1988.32 1147.96 1984.01 1149.48 1982.57 1152.54 1979.7 1161.71 1979.7 1161.71 1979.7 1161.71 1971.07 1184.64 1963.89 1196.87 1948.09 1202.98 1945.21 1204.51 1938.03 1204.51 1935.16 1198.39 1927.97 1180.05 1932.28 1166.3 1942.34 1141.84 1945.21 1134.2 1945.21 1134.2 1945.21 1134.2 1946.65 1131.14 1945.21 1126.56 1942.34 1125.03 1939.47 1123.5 1935.16 1125.03 1933.72 1128.09 1930.84 1137.26 1930.84 1137.26 1930.84 1137.26 1919.35 1161.71 1910.73 1181.58 1920.79 1206.04 1920.79 1207.56 1922.22 1209.09 1919.35 1210.62 1912.17 1213.68 1904.98 1216.74 1899.24 1224.38 1886.3 1241.19 1874.81 1268.7 1871.94 1276.35 1870.5 1280.93 1871.94 1285.52 1874.81 1287.04 1879.12 1288.57 1883.43 1287.04 1884.87 1282.46 1887.74 1274.82 1899.24 1250.36 1910.73 1236.61 1915.04 1230.49 1920.79 1227.43 1926.53 1225.91 1929.41 1225.91 1932.28 1227.43 1932.28 1228.96 1935.16 1235.08 1936.59 1239.66 1936.59 1247.3 1935.16 1267.17 1925.1 1293.16 1920.79 1300.8 1919.35 1303.86 1920.79 1308.44 1925.1 1309.97 1927.97 1311.5 1932.28 1309.97 1933.72 1306.91 1938.03 1297.74 1949.52 1270.23 1952.4 1248.83 1952.4 1239.66 1950.96 1232.02 1948.09 1224.38Z" stroke="#58585A" stroke-width="2.86476" stroke-linecap="round" stroke-linejoin="round" stroke-miterlimit="10" fill="none" fill-rule="evenodd"/></g></svg>