<svg width="118" height="141" xmlns="http://www.w3.org/2000/svg" xmlns:xlink="http://www.w3.org/1999/xlink" xml:space="preserve" overflow="hidden"><g transform="translate(-1924 -1314)"><path d="M1992.56 1376.33C1991.13 1376.33 1989.69 1374.8 1991.13 1371.73 1994 1351.8 1983.94 1339.53 1972.44 1322.67 1968.12 1318.07 1968.12 1318.07 1968.12 1318.07 1966.69 1315 1963.81 1315 1962.38 1316.53 1959.5 1318.07 1959.5 1321.13 1960.94 1324.2 1965.25 1328.8 1965.25 1328.8 1965.25 1328.8 1975.31 1344.13 1981.06 1353.33 1979.63 1367.13 1978.19 1370.2 1975.31 1374.8 1971 1374.8 1956.62 1373.27 1949.44 1364.07 1939.38 1348.73 1935.06 1342.6 1935.06 1342.6 1935.06 1342.6 1933.62 1341.07 1930.75 1341.07 1927.88 1342.6 1926.44 1344.13 1925 1347.2 1926.44 1348.73 1930.75 1354.87 1930.75 1354.87 1930.75 1354.87 1942.25 1371.73 1950.88 1385.53 1971 1388.6 1971 1388.6 1973.88 1388.6 1973.88 1391.67 1972.44 1397.8 1972.44 1402.4 1973.88 1410.07 1979.63 1425.4 1992.56 1443.8 1996.88 1449.93 1998.31 1451.47 2001.19 1453 2004.06 1451.47 2006.94 1448.4 2006.94 1445.33 2005.5 1442.27 2001.19 1437.67 1989.69 1419.27 1985.38 1407 1983.94 1400.87 1983.94 1396.27 1985.38 1391.67 1986.81 1388.6 1988.25 1388.6 1989.69 1388.6 1994 1388.6 1998.31 1390.13 2002.63 1393.2 2014.13 1400.87 2025.63 1417.73 2029.94 1423.87 2031.38 1425.4 2035.69 1426.93 2037.13 1423.87 2040 1422.33 2040 1419.27 2038.56 1416.2 2034.25 1410.07 2022.75 1391.67 2009.81 1382.47 2004.06 1377.87 1998.31 1376.33 1992.56 1376.33Z" fill="#9E087D" fill-rule="evenodd"/><path d="M2024.47 1398C2020.24 1398 2018.82 1401.05 2016 1405.63 2021.65 1411.74 2027.29 1419.37 2030.12 1423.95 2031.53 1425.47 2035.76 1427 2037.18 1423.95 2040 1422.42 2040 1419.37 2038.59 1416.32 2035.76 1413.26 2031.53 1405.63 2024.47 1398Z" fill="#9ACB9A" fill-rule="evenodd"/><path d="M1982.65 1391.4C1981.23 1395.99 1981.23 1400.57 1982.65 1406.69 1986.92 1418.91 1998.31 1437.25 2001.15 1441.83 2004 1444.89 2002.58 1447.94 2001.15 1451 1999.73 1451 1999.73 1451 1999.73 1451 2001.15 1451 2002.58 1451 2004 1451 2006.85 1447.94 2006.85 1444.89 2005.42 1441.83 2001.15 1437.25 1989.77 1418.91 1985.5 1406.69 1984.08 1400.57 1984.08 1395.99 1985.5 1391.4 1985.5 1389.88 1986.92 1388.35 1988.35 1388.35 1986.92 1388.35 1986.92 1388.35 1985.5 1388.35 1985.5 1388.35 1982.65 1388.35 1982.65 1391.4ZM1935.69 1348.62C1947.08 1363.9 1954.19 1373.07 1968.42 1374.6 1968.42 1374.6 1969.85 1374.6 1969.85 1374.6 1957.04 1373.07 1949.92 1363.9 1939.96 1348.62 1935.69 1342.51 1935.69 1342.51 1935.69 1342.51 1934.27 1340.98 1931.42 1340.98 1930 1340.98 1931.42 1342.51 1931.42 1342.51 1931.42 1342.51L1935.69 1348.62ZM2009.69 1382.24C2004 1377.65 1998.31 1376.12 1992.62 1376.12 1991.19 1376.12 1989.77 1374.6 1991.19 1371.54 1994.04 1351.67 1984.08 1339.45 1972.69 1322.64 1968.42 1318.06 1968.42 1318.06 1968.42 1318.06 1967 1315 1965.58 1315 1962.73 1316.53 1964.15 1316.53 1965.58 1316.53 1965.58 1318.06 1969.85 1322.64 1969.85 1322.64 1969.85 1322.64 1981.23 1339.45 1991.19 1351.67 1986.92 1371.54 1986.92 1374.6 1988.35 1376.12 1989.77 1376.12 1995.46 1376.12 2002.58 1376.12 2008.27 1380.71 2021.08 1389.88 2035.31 1411.27 2039.58 1415.85 2041 1418.91 2036.73 1421.97 2033.88 1423.49 2033.88 1425.02 2032.46 1425.02 2032.46 1425.02 2033.88 1425.02 2035.31 1425.02 2036.73 1423.49 2039.58 1421.97 2039.58 1418.91 2038.15 1415.85 2033.88 1409.74 2022.5 1391.4 2009.69 1382.24Z" fill="#7F0566" fill-rule="evenodd"/><path d="M1991 1387C1995.29 1387 1999.57 1387 2003.86 1391.64 2015.29 1400.91 2028.14 1419.45 2031 1421 2031 1421 2031 1421 2031 1421 2028.14 1419.45 2018.14 1400.91 2005.29 1391.64 2001 1387 1995.29 1387 1991 1387Z" fill="#FFFFFF" fill-rule="evenodd"/><path d="M1934.89 1358.07C1945 1373.4 1952.22 1384.13 1971 1387.2 1972.44 1387.2 1973.89 1387.2 1973.89 1387.2 1973.89 1388.73 1975.33 1390.27 1973.89 1390.27 1973.89 1396.4 1973.89 1402.53 1975.33 1410.2 1981.11 1424 1991.22 1440.87 1997 1447 1997 1447 1997 1447 1997 1447 1991.22 1440.87 1982.56 1424 1978.22 1410.2 1975.33 1402.53 1975.33 1396.4 1976.78 1390.27 1976.78 1388.73 1975.33 1387.2 1975.33 1387.2 1973.89 1385.67 1972.44 1384.13 1972.44 1384.13 1959.44 1384.13 1950.78 1378 1943.56 1370.33 1940.67 1367.27 1936.33 1359.6 1933.44 1356.53 1932 1355 1934.89 1358.07 1934.89 1358.07Z" fill="#FFFFFF" fill-rule="evenodd"/><path d="M1967 1329C1977.91 1346.16 1982 1353.96 1980.64 1368 1980.64 1368 1980.64 1368 1980.64 1368 1982 1360.2 1982 1353.96 1979.27 1346.16 1976.55 1341.48 1971.09 1335.24 1967 1329Z" fill="#FFFFFF" fill-rule="evenodd"/><path d="M1993.06 1376.83C1991.62 1376.83 1990.19 1375.3 1991.62 1372.23 1994.5 1352.3 1984.44 1340.03 1972.94 1323.17 1968.62 1318.57 1968.62 1318.57 1968.62 1318.57 1967.19 1315.5 1964.31 1315.5 1962.87 1317.03 1960 1318.57 1960 1321.63 1961.44 1324.7 1965.75 1329.3 1965.75 1329.3 1965.75 1329.3 1975.81 1344.63 1981.56 1353.83 1980.12 1367.63 1978.69 1370.7 1975.81 1375.3 1971.5 1375.3 1957.12 1373.77 1949.94 1364.57 1939.87 1349.23 1935.56 1343.1 1935.56 1343.1 1935.56 1343.1 1934.12 1341.57 1931.25 1341.57 1928.37 1343.1 1926.94 1344.63 1925.5 1347.7 1926.94 1349.23 1931.25 1355.37 1931.25 1355.37 1931.25 1355.37 1942.75 1372.23 1951.37 1386.03 1971.5 1389.1 1971.5 1389.1 1974.38 1389.1 1974.38 1392.17 1972.94 1398.3 1972.94 1402.9 1974.38 1410.57 1980.12 1425.9 1993.06 1444.3 1997.38 1450.43 1998.81 1451.97 2001.69 1453.5 2004.56 1451.97 2007.44 1448.9 2007.44 1445.83 2006 1442.77 2001.69 1438.17 1990.19 1419.77 1985.88 1407.5 1984.44 1401.37 1984.44 1396.77 1985.88 1392.17 1987.31 1389.1 1988.75 1389.1 1990.19 1389.1 1994.5 1389.1 1998.81 1390.63 2003.12 1393.7 2014.62 1401.37 2026.12 1418.23 2030.44 1424.37 2031.88 1425.9 2036.19 1427.43 2037.62 1424.37 2040.5 1422.83 2040.5 1419.77 2039.06 1416.7 2034.75 1410.57 2023.25 1392.17 2010.31 1382.97 2004.56 1378.37 1998.81 1376.83 1993.06 1376.83Z" stroke="#58585A" stroke-width="2.86476" stroke-linecap="round" stroke-linejoin="round" stroke-miterlimit="10" fill="none" fill-rule="evenodd"/></g></svg>