<svg width="408" height="436" xmlns="http://www.w3.org/2000/svg" xmlns:xlink="http://www.w3.org/1999/xlink" xml:space="preserve" overflow="hidden"><g transform="translate(-1736 -1063)"><path d="M1738 1281C1738 1161.71 1828.44 1065 1940 1065 2051.56 1065 2142 1161.71 2142 1281 2142 1400.29 2051.56 1497 1940 1497 1828.44 1497 1738 1400.29 1738 1281Z" fill="#FBE5E8" fill-rule="evenodd"/><path d="M2093.44 1258.89C2093.44 1368.68 2008.8 1457.13 1905.51 1457.13 1873.95 1457.13 1845.26 1449.5 1818 1434.25 1833.78 1447.98 1852.43 1460.18 1871.08 1467.8 1891.16 1475.43 1914.12 1480 1937.07 1480 2041.79 1480 2125 1391.56 2125 1281.76 2125 1228.39 2104.92 1179.6 2071.92 1143 2087.7 1175.02 2093.44 1197.9 2093.44 1258.89Z" fill="#F8CFD6" fill-rule="evenodd"/><path d="M1818.64 1174.7C1852.95 1127.35 1908.72 1102.91 1968.78 1102.91 2000.23 1102.91 2030.26 1112.07 2056 1125.82 2023.11 1098.33 1981.64 1080 1937.32 1080 1834.36 1080 1750 1170.11 1750 1280.08 1750 1319.8 1761.44 1356.45 1780.03 1387 1751.43 1281.61 1794.33 1208.3 1818.64 1174.7Z" fill="#FEF4F5" fill-rule="evenodd"/><path d="M1738 1281C1738 1161.71 1828.44 1065 1940 1065 2051.56 1065 2142 1161.71 2142 1281 2142 1400.29 2051.56 1497 1940 1497 1828.44 1497 1738 1400.29 1738 1281Z" stroke="#58585A" stroke-width="4.0106" stroke-linecap="round" stroke-linejoin="round" stroke-miterlimit="10" fill="none" fill-rule="evenodd"/><path d="M1834 1145C1834 1137.82 1839.6 1132 1846.5 1132 1853.4 1132 1859 1137.82 1859 1145 1859 1152.18 1853.4 1158 1846.5 1158 1839.6 1158 1834 1152.18 1834 1145Z" fill="#FFFFFF" fill-rule="evenodd"/><path d="M1860 1130.5C1860 1126.36 1863.36 1123 1867.5 1123 1871.64 1123 1875 1126.36 1875 1130.5 1875 1134.64 1871.64 1138 1867.5 1138 1863.36 1138 1860 1134.64 1860 1130.5Z" fill="#FFFFFF" fill-rule="evenodd"/><path d="M1815 1157.5C1815 1153.36 1817.91 1150 1821.5 1150 1825.09 1150 1828 1153.36 1828 1157.5 1828 1161.64 1825.09 1165 1821.5 1165 1817.91 1165 1815 1161.64 1815 1157.5Z" fill="#FFFFFF" fill-rule="evenodd"/><path d="M1835.8 1251.13C1835.8 1249.6 1835.8 1248.06 1838.66 1246.53 1862.98 1237.34 1868.7 1217.42 1878.71 1192.9 1881.57 1183.71 1881.57 1183.71 1881.57 1183.71 1883 1180.65 1881.57 1177.58 1878.71 1176.05 1875.85 1174.52 1871.56 1176.05 1870.13 1179.11 1867.27 1186.77 1867.27 1186.77 1867.27 1186.77 1858.69 1211.29 1851.53 1223.55 1835.8 1229.68 1832.94 1231.21 1825.79 1231.21 1822.93 1225.08 1815.78 1206.69 1820.07 1192.9 1828.65 1168.39 1832.94 1160.73 1832.94 1160.73 1832.94 1160.73 1834.37 1157.66 1832.94 1153.06 1828.65 1151.53 1825.79 1150 1822.93 1151.53 1821.5 1154.6 1817.21 1163.79 1817.21 1163.79 1817.21 1163.79 1807.2 1189.84 1798.62 1208.23 1808.63 1232.74 1810.06 1234.27 1810.06 1237.34 1807.2 1238.87 1800.05 1240.4 1794.33 1245 1788.6 1252.66 1774.3 1267.98 1764.29 1297.1 1761.43 1304.76 1760 1309.35 1761.43 1313.95 1764.29 1315.48 1768.58 1317.02 1772.87 1313.95 1774.3 1310.89 1777.16 1303.23 1788.6 1277.18 1800.05 1263.39 1804.34 1257.26 1808.63 1255.73 1815.78 1252.66 1818.64 1252.66 1820.07 1254.19 1821.5 1255.73 1824.36 1261.85 1825.79 1267.98 1824.36 1274.11 1824.36 1294.03 1814.35 1320.08 1811.49 1327.74 1810.06 1332.34 1811.49 1335.4 1814.35 1336.94 1818.64 1340 1822.93 1336.94 1824.36 1333.87 1827.22 1324.68 1838.66 1297.1 1840.09 1275.65 1841.52 1266.45 1840.09 1258.79 1835.8 1251.13Z" fill="#9E087D" fill-rule="evenodd"/><path d="M1878.69 1176.5C1875.81 1175 1871.5 1176.5 1870.06 1179.5 1867.19 1187 1867.19 1187 1867.19 1187 1865.75 1191.5 1864.31 1194.5 1862.88 1197.5 1862.88 1197.5 1862.88 1197.5 1862.88 1197.5 1860 1206.5 1868.62 1208 1874.38 1203.5 1875.81 1199 1877.25 1196 1878.69 1193 1881.56 1184 1881.56 1184 1881.56 1184 1883 1181 1881.56 1178 1878.69 1176.5Z" fill="#9ACB9A" fill-rule="evenodd"/><path d="M1813.25 1249.57C1806.13 1251.1 1801.86 1254.16 1797.59 1258.76 1786.2 1274.09 1774.81 1298.61 1771.96 1306.28 1770.54 1310.88 1766.27 1312.41 1763.42 1310.88 1762 1310.88 1762 1309.34 1762 1309.34 1762 1312.41 1763.42 1313.94 1764.85 1315.48 1769.12 1317.01 1773.39 1313.94 1774.81 1310.88 1777.66 1303.21 1789.05 1277.16 1800.44 1263.36 1804.71 1257.23 1808.98 1255.7 1816.09 1252.63 1817.52 1252.63 1818.94 1254.16 1820.36 1254.16 1820.36 1254.16 1818.94 1252.63 1818.94 1252.63 1818.94 1251.1 1816.09 1248.03 1813.25 1249.57ZM1827.48 1165.26C1817.52 1188.25 1813.25 1203.58 1820.36 1220.44 1821.79 1221.98 1821.79 1221.98 1821.79 1223.51 1816.09 1206.65 1820.36 1191.32 1828.91 1168.33 1833.18 1160.66 1833.18 1160.66 1833.18 1160.66 1834.6 1157.6 1833.18 1154.53 1830.33 1153 1831.75 1154.53 1830.33 1154.53 1830.33 1156.07L1827.48 1165.26ZM1840.29 1275.62C1841.72 1266.43 1840.29 1258.76 1836.02 1251.1 1836.02 1249.57 1836.02 1248.03 1838.87 1246.5 1863.07 1237.3 1868.76 1217.38 1878.73 1192.85 1881.58 1183.66 1881.58 1183.66 1881.58 1183.66 1883 1180.59 1881.58 1177.52 1880.15 1175.99 1880.15 1177.52 1883 1180.59 1883 1182.12 1880.15 1191.32 1880.15 1191.32 1880.15 1191.32 1870.19 1217.38 1860.22 1232.7 1837.45 1241.9 1833.18 1243.43 1833.18 1246.5 1834.6 1246.5 1837.45 1254.16 1838.87 1261.83 1838.87 1272.56 1836.02 1294.02 1824.64 1321.61 1821.79 1329.27 1820.36 1333.87 1816.09 1335.4 1813.25 1333.87 1811.82 1333.87 1811.82 1332.34 1810.4 1332.34 1811.82 1335.4 1813.25 1336.93 1814.67 1336.93 1818.94 1340 1823.21 1336.93 1824.64 1333.87 1827.48 1324.67 1838.87 1297.08 1840.29 1275.62Z" fill="#7F0566" fill-rule="evenodd"/><path d="M1822.92 1258C1825.75 1262.5 1827.17 1268.5 1827.17 1274.5 1825.75 1295.5 1814.42 1324 1813 1327 1813 1327 1813 1327 1813 1327 1814.42 1324 1827.17 1298.5 1828.58 1277.5 1830 1270 1827.17 1262.5 1822.92 1258Z" fill="#FFFFFF" fill-rule="evenodd"/><path d="M1817.58 1170.57C1807.63 1193.4 1801.95 1210.14 1811.89 1232.98 1811.89 1234.5 1811.89 1236.02 1811.89 1237.54 1811.89 1239.07 1810.47 1239.07 1809.05 1239.07 1801.95 1242.11 1796.26 1246.68 1789.16 1254.29 1777.79 1269.51 1767.84 1292.34 1765 1303 1765 1303 1765 1303 1765 1303 1767.84 1292.34 1779.21 1271.03 1792 1255.81 1797.68 1248.2 1803.37 1245.16 1810.47 1242.11 1811.89 1240.59 1813.32 1239.07 1813.32 1237.54 1814.74 1236.02 1814.74 1232.98 1813.32 1232.98 1806.21 1216.23 1807.63 1204.06 1810.47 1188.83 1811.89 1184.27 1816.16 1173.61 1817.58 1169.04 1819 1166 1817.58 1170.57 1817.58 1170.57Z" fill="#FFFFFF" fill-rule="evenodd"/><path d="M1869 1190C1858.82 1212.78 1853 1224.93 1837 1231 1837 1231 1837 1231 1837 1231 1845.73 1227.96 1853 1223.41 1858.82 1215.81 1863.18 1208.22 1864.64 1199.11 1869 1190Z" fill="#FFFFFF" fill-rule="evenodd"/><path d="M1836.3 1251.63C1836.3 1250.1 1836.3 1248.56 1839.16 1247.03 1863.48 1237.84 1869.2 1217.92 1879.21 1193.4 1882.07 1184.21 1882.07 1184.21 1882.07 1184.21 1883.5 1181.15 1882.07 1178.08 1879.21 1176.55 1876.35 1175.02 1872.06 1176.55 1870.63 1179.61 1867.77 1187.27 1867.77 1187.27 1867.77 1187.27 1859.19 1211.79 1852.03 1224.05 1836.3 1230.18 1833.44 1231.71 1826.29 1231.71 1823.43 1225.58 1816.28 1207.19 1820.57 1193.4 1829.15 1168.89 1833.44 1161.23 1833.44 1161.23 1833.44 1161.23 1834.87 1158.16 1833.44 1153.56 1829.15 1152.03 1826.29 1150.5 1823.43 1152.03 1822 1155.1 1817.71 1164.29 1817.71 1164.29 1817.71 1164.29 1807.7 1190.34 1799.12 1208.73 1809.13 1233.24 1810.56 1234.77 1810.56 1237.84 1807.7 1239.37 1800.55 1240.9 1794.83 1245.5 1789.1 1253.16 1774.8 1268.48 1764.79 1297.6 1761.93 1305.26 1760.5 1309.85 1761.93 1314.45 1764.79 1315.98 1769.08 1317.52 1773.37 1314.45 1774.8 1311.39 1777.66 1303.73 1789.1 1277.68 1800.55 1263.89 1804.84 1257.76 1809.13 1256.23 1816.28 1253.16 1819.14 1253.16 1820.57 1254.69 1822 1256.23 1824.86 1262.35 1826.29 1268.48 1824.86 1274.61 1824.86 1294.53 1814.85 1320.58 1811.99 1328.24 1810.56 1332.84 1811.99 1335.9 1814.85 1337.44 1819.14 1340.5 1823.43 1337.44 1824.86 1334.37 1827.72 1325.18 1839.16 1297.6 1840.59 1276.15 1842.02 1266.95 1840.59 1259.29 1836.3 1251.63Z" stroke="#58585A" stroke-width="2.86476" stroke-linecap="round" stroke-linejoin="round" stroke-miterlimit="10" fill="none" fill-rule="evenodd"/><path d="M1947.59 1223.88C1946.15 1222.35 1946.15 1220.82 1950.46 1219.29 1974.89 1210.12 1980.63 1191.78 1990.69 1165.8 1993.56 1158.15 1993.56 1158.15 1993.56 1158.15 1995 1155.1 1993.56 1150.51 1990.69 1148.98 1987.82 1147.46 1983.51 1148.98 1982.07 1152.04 1979.2 1161.21 1979.2 1161.21 1979.2 1161.21 1970.57 1184.14 1963.39 1196.37 1947.59 1202.48 1944.71 1204.01 1937.53 1204.01 1934.66 1197.89 1927.47 1179.55 1931.78 1165.8 1941.84 1141.34 1944.71 1133.7 1944.71 1133.7 1944.71 1133.7 1946.15 1130.64 1944.71 1126.06 1941.84 1124.53 1938.97 1123 1934.66 1124.53 1933.22 1127.59 1930.34 1136.76 1930.34 1136.76 1930.34 1136.76 1918.85 1161.21 1910.23 1181.08 1920.29 1205.54 1920.29 1207.07 1921.72 1208.59 1918.85 1210.12 1911.67 1213.18 1904.48 1216.24 1898.74 1223.88 1885.8 1240.69 1874.31 1268.2 1871.44 1275.85 1870 1280.43 1871.44 1285.02 1874.31 1286.54 1878.62 1288.07 1882.93 1286.54 1884.37 1281.96 1887.24 1274.32 1898.74 1249.86 1910.23 1236.11 1914.54 1229.99 1920.29 1226.93 1926.03 1225.41 1928.91 1225.41 1931.78 1226.93 1931.78 1228.46 1934.66 1234.58 1936.09 1239.16 1936.09 1246.8 1934.66 1266.67 1924.6 1292.66 1920.29 1300.3 1918.85 1303.36 1920.29 1307.94 1924.6 1309.47 1927.47 1311 1931.78 1309.47 1933.22 1306.41 1937.53 1297.24 1949.02 1269.73 1951.9 1248.33 1951.9 1239.16 1950.46 1231.52 1947.59 1223.88Z" fill="#9ACB9A" fill-rule="evenodd"/><path d="M1924.92 1220.79C1917.77 1223.85 1913.48 1225.38 1907.76 1231.5 1896.31 1245.26 1884.87 1269.72 1882.01 1278.89 1880.58 1281.95 1876.29 1283.48 1873.43 1281.95 1872 1281.95 1872 1281.95 1872 1280.42 1872 1283.48 1873.43 1285.01 1874.86 1286.54 1879.15 1288.07 1883.44 1286.54 1884.87 1281.95 1887.73 1274.31 1899.17 1249.84 1910.62 1236.08 1914.91 1229.97 1920.63 1226.91 1926.35 1225.38 1929.21 1225.38 1930.64 1225.38 1930.64 1226.91 1930.64 1225.38 1930.64 1225.38 1930.64 1223.85 1929.21 1222.32 1927.78 1220.79 1924.92 1220.79ZM1939.22 1138.23C1929.21 1161.17 1924.92 1174.93 1932.07 1193.27 1932.07 1194.8 1933.5 1194.8 1933.5 1196.33 1927.78 1177.98 1932.07 1164.22 1942.08 1141.29 1944.94 1133.64 1944.94 1133.64 1944.94 1133.64 1946.37 1130.59 1944.94 1127.53 1943.51 1126 1943.51 1126 1943.51 1127.53 1942.08 1129.06L1939.22 1138.23ZM1952.09 1248.31C1952.09 1239.14 1950.66 1231.5 1947.8 1223.85 1946.37 1222.32 1946.37 1220.79 1950.66 1219.26 1974.98 1210.09 1980.7 1191.74 1990.71 1165.75 1993.57 1158.11 1993.57 1158.11 1993.57 1158.11 1995 1155.05 1995 1151.99 1992.14 1150.46 1992.14 1150.46 1992.14 1151.99 1992.14 1153.52 1987.85 1161.17 1987.85 1161.17 1987.85 1161.17 1977.84 1187.16 1972.12 1205.5 1947.8 1214.68 1944.94 1216.21 1944.94 1219.26 1944.94 1219.26 1947.8 1226.91 1949.23 1234.55 1949.23 1245.26 1947.8 1266.66 1934.93 1292.65 1932.07 1301.83 1930.64 1304.88 1926.35 1307.94 1922.06 1304.88 1922.06 1304.88 1922.06 1304.88 1920.63 1304.88 1920.63 1306.41 1922.06 1309.47 1924.92 1309.47 1927.78 1311 1932.07 1309.47 1933.5 1306.41 1937.79 1297.24 1949.23 1269.72 1952.09 1248.31Z" fill="#47AC61" fill-rule="evenodd"/><path d="M1934.33 1228C1937.17 1234.13 1938.58 1238.72 1937.17 1246.38 1935.75 1267.83 1924.42 1295.4 1923 1300 1923 1300 1923 1300 1923 1300 1924.42 1295.4 1937.17 1269.36 1938.58 1249.45 1940 1240.26 1937.17 1234.13 1934.33 1228Z" fill="#FFFFFF" fill-rule="evenodd"/><path d="M1981 1162C1970.82 1186.89 1963.55 1197.78 1949 1204 1949 1204 1949 1204 1949 1204 1957.73 1200.89 1965 1196.22 1970.82 1188.44 1975.18 1182.22 1976.64 1171.33 1981 1162Z" fill="#FFFFFF" fill-rule="evenodd"/><path d="M1928.67 1164.46C1930.11 1164.46 1931.56 1166 1933 1166 1934.44 1158.32 1937.33 1150.64 1941.67 1141.43 1944.56 1133.75 1944.56 1133.75 1944.56 1133.75 1946 1130.68 1944.56 1126.07 1941.67 1124.54 1938.78 1123 1934.44 1124.54 1933 1127.61 1930.11 1136.82 1930.11 1136.82 1930.11 1136.82 1925.78 1144.5 1922.89 1152.18 1920 1159.86 1922.89 1162.93 1925.78 1162.93 1928.67 1164.46Z" fill="#9E087D" fill-rule="evenodd"/><path d="M1928.59 1141.06C1918.72 1165.51 1911.67 1180.79 1921.54 1205.24 1922.95 1205.24 1922.95 1206.76 1921.54 1208.29 1921.54 1209.82 1921.54 1211.35 1920.13 1211.35 1913.08 1214.4 1906.03 1218.99 1900.38 1225.1 1887.69 1240.38 1879.23 1264.83 1875 1274 1875 1274 1875 1274 1875 1274 1879.23 1264.83 1890.51 1241.91 1901.8 1226.63 1907.44 1220.52 1913.08 1215.93 1921.54 1212.88 1922.95 1212.88 1924.36 1211.35 1924.36 1209.82 1924.36 1208.29 1924.36 1205.24 1924.36 1203.71 1917.31 1188.43 1917.31 1174.67 1921.54 1160.92 1922.95 1156.34 1927.18 1145.64 1930 1141.06 1930 1138 1928.59 1141.06 1928.59 1141.06Z" fill="#FFFFFF" fill-rule="evenodd"/><path d="M1948.09 1224.38C1946.65 1222.85 1946.65 1221.32 1950.96 1219.79 1975.39 1210.62 1981.13 1192.28 1991.19 1166.3 1994.06 1158.65 1994.06 1158.65 1994.06 1158.65 1995.5 1155.6 1994.06 1151.01 1991.19 1149.48 1988.32 1147.96 1984.01 1149.48 1982.57 1152.54 1979.7 1161.71 1979.7 1161.71 1979.7 1161.71 1971.07 1184.64 1963.89 1196.87 1948.09 1202.98 1945.21 1204.51 1938.03 1204.51 1935.16 1198.39 1927.97 1180.05 1932.28 1166.3 1942.34 1141.84 1945.21 1134.2 1945.21 1134.2 1945.21 1134.2 1946.65 1131.14 1945.21 1126.56 1942.34 1125.03 1939.47 1123.5 1935.16 1125.03 1933.72 1128.09 1930.84 1137.26 1930.84 1137.26 1930.84 1137.26 1919.35 1161.71 1910.73 1181.58 1920.79 1206.04 1920.79 1207.56 1922.22 1209.09 1919.35 1210.62 1912.17 1213.68 1904.98 1216.74 1899.24 1224.38 1886.3 1241.19 1874.81 1268.7 1871.94 1276.35 1870.5 1280.93 1871.94 1285.52 1874.81 1287.04 1879.12 1288.57 1883.43 1287.04 1884.87 1282.46 1887.74 1274.82 1899.24 1250.36 1910.73 1236.61 1915.04 1230.49 1920.79 1227.43 1926.53 1225.91 1929.41 1225.91 1932.28 1227.43 1932.28 1228.96 1935.16 1235.08 1936.59 1239.66 1936.59 1247.3 1935.16 1267.17 1925.1 1293.16 1920.79 1300.8 1919.35 1303.86 1920.79 1308.44 1925.1 1309.97 1927.97 1311.5 1932.28 1309.97 1933.72 1306.91 1938.03 1297.74 1949.52 1270.23 1952.4 1248.83 1952.4 1239.66 1950.96 1232.02 1948.09 1224.38Z" stroke="#58585A" stroke-width="2.86476" stroke-linecap="round" stroke-linejoin="round" stroke-miterlimit="10" fill="none" fill-rule="evenodd"/><path d="M1992.56 1376.33C1991.13 1376.33 1989.69 1374.8 1991.13 1371.73 1994 1351.8 1983.94 1339.53 1972.44 1322.67 1968.12 1318.07 1968.12 1318.07 1968.12 1318.07 1966.69 1315 1963.81 1315 1962.38 1316.53 1959.5 1318.07 1959.5 1321.13 1960.94 1324.2 1965.25 1328.8 1965.25 1328.8 1965.25 1328.8 1975.31 1344.13 1981.06 1353.33 1979.63 1367.13 1978.19 1370.2 1975.31 1374.8 1971 1374.8 1956.62 1373.27 1949.44 1364.07 1939.38 1348.73 1935.06 1342.6 1935.06 1342.6 1935.06 1342.6 1933.62 1341.07 1930.75 1341.07 1927.88 1342.6 1926.44 1344.13 1925 1347.2 1926.44 1348.73 1930.75 1354.87 1930.75 1354.87 1930.75 1354.87 1942.25 1371.73 1950.88 1385.53 1971 1388.6 1971 1388.6 1973.88 1388.6 1973.88 1391.67 1972.44 1397.8 1972.44 1402.4 1973.88 1410.07 1979.63 1425.4 1992.56 1443.8 1996.88 1449.93 1998.31 1451.47 2001.19 1453 2004.06 1451.47 2006.94 1448.4 2006.94 1445.33 2005.5 1442.27 2001.19 1437.67 1989.69 1419.27 1985.38 1407 1983.94 1400.87 1983.94 1396.27 1985.38 1391.67 1986.81 1388.6 1988.25 1388.6 1989.69 1388.6 1994 1388.6 1998.31 1390.13 2002.63 1393.2 2014.13 1400.87 2025.63 1417.73 2029.94 1423.87 2031.38 1425.4 2035.69 1426.93 2037.13 1423.87 2040 1422.33 2040 1419.27 2038.56 1416.2 2034.25 1410.07 2022.75 1391.67 2009.81 1382.47 2004.06 1377.87 1998.31 1376.33 1992.56 1376.33Z" fill="#9E087D" fill-rule="evenodd"/><path d="M2024.47 1398C2020.24 1398 2018.82 1401.05 2016 1405.63 2021.65 1411.74 2027.29 1419.37 2030.12 1423.95 2031.53 1425.47 2035.76 1427 2037.18 1423.95 2040 1422.42 2040 1419.37 2038.59 1416.32 2035.76 1413.26 2031.53 1405.63 2024.47 1398Z" fill="#9ACB9A" fill-rule="evenodd"/><path d="M1982.65 1391.4C1981.23 1395.99 1981.23 1400.57 1982.65 1406.69 1986.92 1418.91 1998.31 1437.25 2001.15 1441.83 2004 1444.89 2002.58 1447.94 2001.15 1451 1999.73 1451 1999.73 1451 1999.73 1451 2001.15 1451 2002.58 1451 2004 1451 2006.85 1447.94 2006.85 1444.89 2005.42 1441.83 2001.15 1437.25 1989.77 1418.91 1985.5 1406.69 1984.08 1400.57 1984.08 1395.99 1985.5 1391.4 1985.5 1389.88 1986.92 1388.35 1988.35 1388.35 1986.92 1388.35 1986.92 1388.35 1985.5 1388.35 1985.5 1388.35 1982.65 1388.35 1982.65 1391.4ZM1935.69 1348.62C1947.08 1363.9 1954.19 1373.07 1968.42 1374.6 1968.42 1374.6 1969.85 1374.6 1969.85 1374.6 1957.04 1373.07 1949.92 1363.9 1939.96 1348.62 1935.69 1342.51 1935.69 1342.51 1935.69 1342.51 1934.27 1340.98 1931.42 1340.98 1930 1340.98 1931.42 1342.51 1931.42 1342.51 1931.42 1342.51L1935.69 1348.62ZM2009.69 1382.24C2004 1377.65 1998.31 1376.12 1992.62 1376.12 1991.19 1376.12 1989.77 1374.6 1991.19 1371.54 1994.04 1351.67 1984.08 1339.45 1972.69 1322.64 1968.42 1318.06 1968.42 1318.06 1968.42 1318.06 1967 1315 1965.58 1315 1962.73 1316.53 1964.15 1316.53 1965.58 1316.53 1965.58 1318.06 1969.85 1322.64 1969.85 1322.64 1969.85 1322.64 1981.23 1339.45 1991.19 1351.67 1986.92 1371.54 1986.92 1374.6 1988.35 1376.12 1989.77 1376.12 1995.46 1376.12 2002.58 1376.12 2008.27 1380.71 2021.08 1389.88 2035.31 1411.27 2039.58 1415.85 2041 1418.91 2036.73 1421.97 2033.88 1423.49 2033.88 1425.02 2032.46 1425.02 2032.46 1425.02 2033.88 1425.02 2035.31 1425.02 2036.73 1423.49 2039.58 1421.97 2039.58 1418.91 2038.15 1415.85 2033.88 1409.74 2022.5 1391.4 2009.69 1382.24Z" fill="#7F0566" fill-rule="evenodd"/><path d="M1991 1387C1995.29 1387 1999.57 1387 2003.86 1391.64 2015.29 1400.91 2028.14 1419.45 2031 1421 2031 1421 2031 1421 2031 1421 2028.14 1419.45 2018.14 1400.91 2005.29 1391.64 2001 1387 1995.29 1387 1991 1387Z" fill="#FFFFFF" fill-rule="evenodd"/><path d="M1934.89 1358.07C1945 1373.4 1952.22 1384.13 1971 1387.2 1972.44 1387.2 1973.89 1387.2 1973.89 1387.2 1973.89 1388.73 1975.33 1390.27 1973.89 1390.27 1973.89 1396.4 1973.89 1402.53 1975.33 1410.2 1981.11 1424 1991.22 1440.87 1997 1447 1997 1447 1997 1447 1997 1447 1991.22 1440.87 1982.56 1424 1978.22 1410.2 1975.33 1402.53 1975.33 1396.4 1976.78 1390.27 1976.78 1388.73 1975.33 1387.2 1975.33 1387.2 1973.89 1385.67 1972.44 1384.13 1972.44 1384.13 1959.44 1384.13 1950.78 1378 1943.56 1370.33 1940.67 1367.27 1936.33 1359.6 1933.44 1356.53 1932 1355 1934.89 1358.07 1934.89 1358.07Z" fill="#FFFFFF" fill-rule="evenodd"/><path d="M1967 1329C1977.91 1346.16 1982 1353.96 1980.64 1368 1980.64 1368 1980.64 1368 1980.64 1368 1982 1360.2 1982 1353.96 1979.27 1346.16 1976.55 1341.48 1971.09 1335.24 1967 1329Z" fill="#FFFFFF" fill-rule="evenodd"/><path d="M1993.06 1376.83C1991.62 1376.83 1990.19 1375.3 1991.62 1372.23 1994.5 1352.3 1984.44 1340.03 1972.94 1323.17 1968.62 1318.57 1968.62 1318.57 1968.62 1318.57 1967.19 1315.5 1964.31 1315.5 1962.87 1317.03 1960 1318.57 1960 1321.63 1961.44 1324.7 1965.75 1329.3 1965.75 1329.3 1965.75 1329.3 1975.81 1344.63 1981.56 1353.83 1980.12 1367.63 1978.69 1370.7 1975.81 1375.3 1971.5 1375.3 1957.12 1373.77 1949.94 1364.57 1939.87 1349.23 1935.56 1343.1 1935.56 1343.1 1935.56 1343.1 1934.12 1341.57 1931.25 1341.57 1928.37 1343.1 1926.94 1344.63 1925.5 1347.7 1926.94 1349.23 1931.25 1355.37 1931.25 1355.37 1931.25 1355.37 1942.75 1372.23 1951.37 1386.03 1971.5 1389.1 1971.5 1389.1 1974.38 1389.1 1974.38 1392.17 1972.94 1398.3 1972.94 1402.9 1974.38 1410.57 1980.12 1425.9 1993.06 1444.3 1997.38 1450.43 1998.81 1451.97 2001.69 1453.5 2004.56 1451.97 2007.44 1448.9 2007.44 1445.83 2006 1442.77 2001.69 1438.17 1990.19 1419.77 1985.88 1407.5 1984.44 1401.37 1984.44 1396.77 1985.88 1392.17 1987.31 1389.1 1988.75 1389.1 1990.19 1389.1 1994.5 1389.1 1998.81 1390.63 2003.12 1393.7 2014.62 1401.37 2026.12 1418.23 2030.44 1424.37 2031.88 1425.9 2036.19 1427.43 2037.62 1424.37 2040.5 1422.83 2040.5 1419.77 2039.06 1416.7 2034.75 1410.57 2023.25 1392.17 2010.31 1382.97 2004.56 1378.37 1998.81 1376.83 1993.06 1376.83Z" stroke="#58585A" stroke-width="2.86476" stroke-linecap="round" stroke-linejoin="round" stroke-miterlimit="10" fill="none" fill-rule="evenodd"/><path d="M2055.24 1301.71C2055.24 1300.18 2053.8 1298.66 2055.24 1297.13 2066.69 1280.33 2063.82 1265.06 2059.53 1245.22 2058.1 1237.58 2058.1 1237.58 2058.1 1237.58 2058.1 1236.05 2055.24 1233 2052.37 1234.53 2049.51 1234.53 2048.08 1237.58 2049.51 1240.63 2049.51 1246.74 2049.51 1246.74 2049.51 1246.74 2053.8 1265.06 2053.8 1275.75 2046.65 1287.97 2045.22 1289.49 2040.92 1292.55 2036.63 1291.02 2025.18 1283.39 2022.31 1271.17 2018.02 1252.85 2018.02 1245.22 2018.02 1245.22 2018.02 1245.22 2016.59 1242.16 2013.73 1240.63 2012.29 1240.63 2009.43 1242.16 2008 1243.69 2008 1246.74 2009.43 1254.38 2009.43 1254.38 2009.43 1254.38 2012.29 1274.23 2013.73 1291.02 2030.9 1301.71 2032.33 1303.24 2033.76 1303.24 2032.33 1306.29 2028.04 1310.87 2026.61 1316.98 2025.18 1323.09 2022.31 1339.88 2028.04 1362.78 2028.04 1368.89 2029.47 1371.95 2032.33 1375 2035.2 1373.47 2038.06 1373.47 2039.49 1370.42 2039.49 1367.37 2038.06 1361.26 2035.2 1339.88 2036.63 1326.14 2038.06 1320.03 2039.49 1315.45 2042.35 1312.4 2043.78 1310.87 2046.65 1310.87 2048.08 1310.87 2052.37 1313.92 2055.24 1316.98 2058.1 1321.56 2063.82 1333.77 2068.12 1355.15 2069.55 1361.26 2069.55 1364.31 2072.41 1365.84 2075.27 1365.84 2078.14 1365.84 2081 1362.78 2079.57 1359.73 2078.14 1352.1 2075.27 1329.19 2068.12 1315.45 2063.82 1307.82 2060.96 1304.76 2055.24 1301.71Z" fill="#9ACB9A" fill-rule="evenodd"/><path d="M2027.8 1340C2026.4 1341.52 2025 1341.52 2025 1341.52 2025 1353.7 2027.8 1364.35 2027.8 1368.91 2029.2 1371.96 2032 1375 2034.8 1373.48 2037.6 1373.48 2039 1370.43 2039 1367.39 2037.6 1362.83 2036.2 1350.65 2036.2 1340 2033.4 1340 2030.6 1340 2027.8 1340Z" fill="#9E087D" fill-rule="evenodd"/><path d="M2014.88 1251.76C2017.75 1270.04 2022.06 1282.22 2033.56 1289.84 2033.56 1289.84 2035 1289.84 2035 1289.84 2024.94 1282.22 2022.06 1271.56 2017.75 1253.28 2017.75 1245.66 2017.75 1245.66 2017.75 1245.66 2016.31 1244.14 2014.88 1241.09 2012 1241.09 2013.44 1242.62 2013.44 1242.62 2013.44 1244.14L2014.88 1251.76ZM2068.06 1315.73C2063.75 1308.12 2060.88 1305.07 2055.12 1302.02 2055.12 1300.5 2053.69 1298.98 2055.12 1297.45 2066.62 1280.7 2063.75 1265.47 2059.44 1245.66 2058 1238.05 2058 1238.05 2058 1238.05 2058 1236.52 2056.56 1235 2053.69 1235 2053.69 1235 2055.12 1236.52 2055.12 1236.52 2056.56 1244.14 2056.56 1244.14 2056.56 1244.14 2059.44 1263.94 2063.75 1279.17 2052.25 1295.93 2050.81 1297.45 2050.81 1298.98 2052.25 1300.5 2056.56 1303.55 2060.88 1306.59 2065.19 1314.21 2072.38 1327.92 2075.25 1350.77 2076.69 1358.38 2076.69 1361.43 2075.25 1364.48 2072.38 1364.48 2072.38 1364.48 2070.94 1364.48 2070.94 1364.48 2072.38 1366 2073.81 1366 2075.25 1366 2078.12 1366 2081 1362.95 2079.56 1359.91 2078.12 1352.29 2075.25 1329.44 2068.06 1315.73Z" fill="#47AC61" fill-rule="evenodd"/><path d="M2049 1311C2053.4 1312.53 2056.33 1315.59 2059.27 1320.19 2066.6 1333.97 2071 1358.47 2071 1360 2071 1360 2071 1360 2071 1360 2071 1358.47 2068.07 1335.5 2060.73 1321.72 2057.8 1315.59 2053.4 1312.53 2049 1311Z" fill="#FFFFFF" fill-rule="evenodd"/><path d="M2010 1257.08C2012.94 1277.11 2015.88 1290.97 2032.06 1301.76 2032.06 1301.76 2033.53 1301.76 2033.53 1303.3 2033.53 1304.84 2033.53 1304.84 2033.53 1306.38 2029.12 1311 2027.65 1317.16 2026.18 1324.86 2024.71 1340.27 2027.65 1358.76 2029.12 1368 2029.12 1368 2029.12 1368 2029.12 1368 2027.65 1358.76 2026.18 1340.27 2027.65 1324.86 2029.12 1317.16 2030.59 1312.54 2035 1306.38 2035 1306.38 2035 1304.84 2035 1303.3 2035 1301.76 2033.53 1300.22 2033.53 1300.22 2021.76 1292.51 2017.35 1283.27 2012.94 1272.49 2012.94 1269.41 2011.47 1261.7 2010 1257.08 2010 1254 2010 1257.08 2010 1257.08Z" fill="#FFFFFF" fill-rule="evenodd"/><path d="M2050.8 1248C2055 1266.46 2055 1277.23 2048 1288 2048 1288 2048 1288 2048 1288 2052.2 1281.85 2055 1275.69 2055 1268 2055 1261.85 2053.6 1255.69 2050.8 1248Z" fill="#FFFFFF" fill-rule="evenodd"/><path d="M2055.74 1302.21C2055.74 1300.68 2054.3 1299.16 2055.74 1297.63 2067.19 1280.83 2064.32 1265.56 2060.03 1245.71 2058.6 1238.08 2058.6 1238.08 2058.6 1238.08 2058.6 1236.55 2055.74 1233.5 2052.87 1235.03 2050.01 1235.03 2048.58 1238.08 2050.01 1241.13 2050.01 1247.24 2050.01 1247.24 2050.01 1247.24 2054.3 1265.56 2054.3 1276.25 2047.15 1288.47 2045.72 1289.99 2041.42 1293.05 2037.13 1291.52 2025.68 1283.89 2022.81 1271.67 2018.52 1253.35 2018.52 1245.71 2018.52 1245.71 2018.52 1245.71 2017.09 1242.66 2014.23 1241.13 2012.79 1241.13 2009.93 1242.66 2008.5 1244.19 2008.5 1247.24 2009.93 1254.88 2009.93 1254.88 2009.93 1254.88 2012.79 1274.73 2014.23 1291.52 2031.4 1302.21 2032.83 1303.74 2034.26 1303.74 2032.83 1306.79 2028.54 1311.37 2027.11 1317.48 2025.68 1323.59 2022.81 1340.38 2028.54 1363.28 2028.54 1369.39 2029.97 1372.45 2032.83 1375.5 2035.7 1373.97 2038.56 1373.97 2039.99 1370.92 2039.99 1367.87 2038.56 1361.76 2035.7 1340.38 2037.13 1326.64 2038.56 1320.53 2039.99 1315.95 2042.85 1312.9 2044.28 1311.37 2047.15 1311.37 2048.58 1311.37 2052.87 1314.42 2055.74 1317.48 2058.6 1322.06 2064.32 1334.27 2068.62 1355.65 2070.05 1361.76 2070.05 1364.81 2072.91 1366.34 2075.77 1366.34 2078.64 1366.34 2081.5 1363.28 2080.07 1360.23 2078.64 1352.6 2075.77 1329.69 2068.62 1315.95 2064.32 1308.32 2061.46 1305.26 2055.74 1302.21Z" stroke="#58585A" stroke-width="2.86476" stroke-linecap="round" stroke-linejoin="round" stroke-miterlimit="10" fill="none" fill-rule="evenodd"/></g></svg>