<svg width="328" height="349" xmlns="http://www.w3.org/2000/svg" xmlns:xlink="http://www.w3.org/1999/xlink" xml:space="preserve" overflow="hidden"><g transform="translate(-2328 -916)"><path d="M2330 1090.5C2330 995.231 2402.53 918 2492 918 2581.47 918 2654 995.231 2654 1090.5 2654 1185.77 2581.47 1263 2492 1263 2402.53 1263 2330 1185.77 2330 1090.5Z" fill="#FBE5E8" fill-rule="evenodd"/><path d="M2615.21 1072.7C2615.21 1161.35 2547.87 1231.66 2466.2 1231.66 2440.42 1231.66 2416.06 1225.55 2396 1213.32 2407.46 1225.55 2421.79 1233.19 2437.55 1239.3 2454.74 1246.94 2471.94 1250 2490.56 1250 2573.66 1250 2641 1179.69 2641 1091.05 2641 1048.25 2623.81 1008.51 2598.02 981 2610.91 1005.45 2615.21 1023.8 2615.21 1072.7Z" fill="#F8CFD6" fill-rule="evenodd"/><path d="M2395.88 1005.03C2423.1 968.281 2467.51 948.375 2516.23 948.375 2540.58 948.375 2564.94 954.5 2585 966.75 2559.21 943.781 2526.26 930 2490.44 930 2407.34 930 2340 1001.97 2340 1089.25 2340 1121.41 2348.6 1150.5 2364.36 1175 2341.43 1090.78 2375.82 1032.59 2395.88 1005.03Z" fill="#FEF4F5" fill-rule="evenodd"/><path d="M2330 1090.5C2330 995.231 2402.53 918 2492 918 2581.47 918 2654 995.231 2654 1090.5 2654 1185.77 2581.47 1263 2492 1263 2402.53 1263 2330 1185.77 2330 1090.5Z" stroke="#58585A" stroke-width="4.0106" stroke-linecap="round" stroke-linejoin="round" stroke-miterlimit="10" fill="none" fill-rule="evenodd"/><path d="M2406 987C2406 981.477 2410.48 977 2416 977 2421.52 977 2426 981.477 2426 987 2426 992.523 2421.52 997 2416 997 2410.48 997 2406 992.523 2406 987Z" fill="#FFFFFF" fill-rule="evenodd"/><path d="M2427 976C2427 972.686 2429.46 970 2432.5 970 2435.54 970 2438 972.686 2438 976 2438 979.314 2435.54 982 2432.5 982 2429.46 982 2427 979.314 2427 976Z" fill="#FFFFFF" fill-rule="evenodd"/><path d="M2393 1002.5C2393 999.462 2395.46 997 2398.5 997 2401.54 997 2404 999.462 2404 1002.5 2404 1005.54 2401.54 1008 2398.5 1008 2395.46 1008 2393 1005.54 2393 1002.5Z" fill="#FFFFFF" fill-rule="evenodd"/><path d="M2444.43 1101.5C2443 1099.97 2441.57 1098.45 2444.43 1095.4 2463 1077.09 2461.57 1057.25 2461.57 1029.78 2461.57 1020.63 2461.57 1020.63 2461.57 1020.63 2461.57 1017.58 2458.71 1014.53 2454.43 1014.53 2451.57 1014.53 2448.71 1017.58 2448.71 1020.63 2448.71 1029.78 2448.71 1029.78 2448.71 1029.78 2448.71 1054.2 2447.29 1069.46 2435.86 1081.66 2433 1083.19 2427.29 1086.24 2421.57 1083.19 2408.71 1069.46 2407.29 1054.2 2407.29 1028.26 2407.29 1019.1 2407.29 1019.1 2407.29 1019.1 2407.29 1016.05 2404.43 1013 2400.14 1013 2397.29 1013 2394.43 1016.05 2394.43 1019.1 2394.43 1028.26 2394.43 1028.26 2394.43 1028.26 2394.43 1055.72 2393 1077.09 2411.57 1095.4 2413 1096.92 2414.43 1098.45 2413 1101.5 2407.29 1107.6 2403 1113.71 2400.14 1122.86 2394.43 1142.7 2394.43 1173.22 2394.43 1182.37 2394.43 1185.42 2397.29 1190 2401.57 1190 2405.86 1190 2408.71 1185.42 2408.71 1182.37 2408.71 1173.22 2408.71 1145.75 2414.43 1127.44 2417.29 1119.81 2420.14 1116.76 2425.86 1112.18 2427.29 1109.13 2430.14 1110.66 2431.57 1112.18 2437.29 1116.76 2440.14 1119.81 2441.57 1127.44 2447.29 1145.75 2448.71 1173.22 2448.71 1182.37 2448.71 1185.42 2451.57 1190 2455.86 1190 2460.14 1188.47 2463 1185.42 2463 1182.37 2463 1173.22 2463 1142.7 2457.29 1122.86 2454.43 1112.18 2448.71 1106.08 2444.43 1101.5Z" fill="#9E087D" fill-rule="evenodd"/><path d="M2421.04 1109.13C2415.26 1113.71 2412.36 1118.28 2410.91 1124.39 2405.13 1142.7 2403.68 1170.16 2403.68 1179.32 2403.68 1183.9 2400.79 1186.95 2397.89 1186.95 2396.45 1186.95 2396.45 1186.95 2395 1186.95 2396.45 1188.47 2399.34 1190 2400.79 1190 2405.13 1190 2408.02 1185.42 2408.02 1182.37 2408.02 1173.22 2408.02 1145.75 2413.81 1127.44 2416.7 1119.81 2419.6 1116.76 2425.38 1112.18 2426.83 1110.66 2428.28 1110.66 2429.72 1110.66 2428.28 1110.66 2428.28 1109.13 2426.83 1109.13 2426.83 1107.6 2423.94 1107.6 2421.04 1109.13ZM2402.23 1026.73C2402.23 1051.15 2403.68 1066.41 2418.15 1080.14 2418.15 1080.14 2419.6 1081.66 2419.6 1081.66 2408.02 1067.93 2406.57 1054.2 2406.57 1028.26 2406.57 1019.1 2406.57 1019.1 2406.57 1019.1 2406.57 1016.05 2403.68 1014.53 2400.79 1013 2402.23 1014.53 2402.23 1016.05 2402.23 1017.58L2402.23 1026.73ZM2457.21 1122.86C2454.32 1112.18 2448.53 1106.08 2444.19 1101.5 2442.74 1099.97 2441.3 1098.45 2444.19 1095.4 2463 1077.09 2461.55 1057.25 2461.55 1029.78 2461.55 1020.63 2461.55 1020.63 2461.55 1020.63 2461.55 1017.58 2458.66 1014.53 2455.77 1014.53 2457.21 1014.53 2460.11 1016.05 2460.11 1017.58 2461.55 1028.26 2461.55 1028.26 2461.55 1028.26 2461.55 1055.72 2460.11 1074.03 2439.85 1092.34 2438.4 1095.4 2438.4 1096.92 2439.85 1098.45 2445.64 1104.55 2449.98 1110.66 2452.87 1119.81 2460.11 1139.65 2458.66 1170.16 2458.66 1179.32 2458.66 1183.9 2455.77 1186.95 2451.43 1186.95 2451.43 1186.95 2449.98 1186.95 2449.98 1186.95 2451.43 1188.47 2452.87 1190 2455.77 1190 2460.11 1188.47 2463 1185.42 2463 1182.37 2463 1173.22 2463 1142.7 2457.21 1122.86Z" fill="#7F0566" fill-rule="evenodd"/><path d="M2395 1034.59C2395 1060.61 2395 1078.98 2414.07 1095.82 2414.07 1095.82 2415.53 1097.35 2415.53 1098.88 2415.53 1100.41 2415.53 1101.94 2414.07 1101.94 2408.2 1108.06 2403.8 1115.71 2400.87 1123.37 2395 1143.27 2395 1169.29 2395 1180 2395 1180 2395 1180 2395 1180 2395 1169.29 2397.93 1143.27 2403.8 1124.9 2405.27 1115.71 2409.67 1109.59 2415.53 1103.47 2417 1101.94 2417 1100.41 2417 1098.88 2417 1097.35 2415.53 1094.29 2415.53 1094.29 2402.33 1082.04 2397.93 1069.8 2396.47 1054.49 2396.47 1049.9 2395 1039.18 2395 1033.06 2395 1030 2395 1034.59 2395 1034.59Z" fill="#FFFFFF" fill-rule="evenodd"/><path d="M2450.09 1031C2450.09 1057.27 2448.64 1069.64 2437 1082 2437 1082 2437 1082 2437 1082 2444.27 1075.82 2450.09 1068.09 2451.55 1058.82 2453 1051.09 2451.55 1041.82 2450.09 1031Z" fill="#FFFFFF" fill-rule="evenodd"/><path d="M2463 1182.41C2463 1176.34 2463 1162.69 2461.55 1147.52 2455.73 1146 2451.36 1147.52 2447 1152.07 2448.45 1164.21 2448.45 1176.34 2448.45 1182.41 2448.45 1185.45 2451.36 1190 2455.73 1190 2460.09 1188.48 2463 1185.45 2463 1182.41Z" fill="#9ACB9A" fill-rule="evenodd"/><path d="M2434 1111C2438.38 1115.57 2441.31 1120.13 2444.23 1126.22 2450.08 1146 2450.08 1176.43 2450.08 1181 2450.08 1181 2450.08 1181 2450.08 1181 2450.08 1176.43 2453 1147.52 2445.69 1127.74 2444.23 1120.13 2438.38 1115.57 2434 1111Z" fill="#FFFFFF" fill-rule="evenodd"/><path d="M2444.93 1102C2443.5 1100.47 2442.07 1098.95 2444.93 1095.9 2463.5 1077.59 2462.07 1057.75 2462.07 1030.28 2462.07 1021.13 2462.07 1021.13 2462.07 1021.13 2462.07 1018.08 2459.21 1015.03 2454.93 1015.03 2452.07 1015.03 2449.21 1018.08 2449.21 1021.13 2449.21 1030.28 2449.21 1030.28 2449.21 1030.28 2449.21 1054.7 2447.79 1069.96 2436.36 1082.16 2433.5 1083.69 2427.79 1086.74 2422.07 1083.69 2409.21 1069.96 2407.79 1054.7 2407.79 1028.76 2407.79 1019.6 2407.79 1019.6 2407.79 1019.6 2407.79 1016.55 2404.93 1013.5 2400.64 1013.5 2397.79 1013.5 2394.93 1016.55 2394.93 1019.6 2394.93 1028.76 2394.93 1028.76 2394.93 1028.76 2394.93 1056.22 2393.5 1077.59 2412.07 1095.9 2413.5 1097.42 2414.93 1098.95 2413.5 1102 2407.79 1108.1 2403.5 1114.21 2400.64 1123.36 2394.93 1143.2 2394.93 1173.72 2394.93 1182.87 2394.93 1185.92 2397.79 1190.5 2402.07 1190.5 2406.36 1190.5 2409.21 1185.92 2409.21 1182.87 2409.21 1173.72 2409.21 1146.25 2414.93 1127.94 2417.79 1120.31 2420.64 1117.26 2426.36 1112.68 2427.79 1109.63 2430.64 1111.16 2432.07 1112.68 2437.79 1117.26 2440.64 1120.31 2442.07 1127.94 2447.79 1146.25 2449.21 1173.72 2449.21 1182.87 2449.21 1185.92 2452.07 1190.5 2456.36 1190.5 2460.64 1188.97 2463.5 1185.92 2463.5 1182.87 2463.5 1173.72 2463.5 1143.2 2457.79 1123.36 2454.93 1112.68 2449.21 1106.58 2444.93 1102Z" stroke="#58585A" stroke-width="2.86476" stroke-linecap="round" stroke-linejoin="round" stroke-miterlimit="10" fill="none" fill-rule="evenodd"/><path d="M2549.47 1084.41C2548.04 1084.41 2546.6 1081.35 2549.47 1078.29 2565.22 1052.29 2558.06 1030.88 2552.33 1001.82 2549.47 991.117 2549.47 991.117 2549.47 991.117 2548.04 988.059 2545.17 985 2540.88 986.529 2536.58 986.529 2535.15 991.117 2536.58 995.706 2538.01 1004.88 2538.01 1004.88 2538.01 1004.88 2543.74 1032.41 2546.6 1047.71 2536.58 1066.06 2535.15 1067.59 2527.99 1073.71 2520.83 1070.65 2503.64 1059.94 2497.91 1043.12 2492.19 1015.59 2490.75 1004.88 2490.75 1004.88 2490.75 1004.88 2489.32 1001.82 2485.02 998.765 2482.16 1000.29 2477.86 1000.29 2475 1004.88 2476.43 1009.47 2479.3 1018.65 2479.3 1018.65 2479.3 1018.65 2485.02 1049.24 2489.32 1072.18 2513.67 1087.47 2515.1 1087.47 2517.96 1090.53 2516.53 1093.59 2510.8 1101.24 2507.94 1108.88 2506.51 1119.59 2505.07 1144.06 2513.67 1176.18 2515.1 1186.88 2516.53 1189.94 2520.83 1193 2525.12 1193 2529.42 1191.47 2532.28 1186.88 2530.85 1182.29 2527.99 1173.12 2522.26 1142.53 2523.69 1121.12 2525.12 1113.47 2527.99 1107.35 2532.28 1101.24 2533.72 1098.18 2538.01 1098.18 2539.44 1099.71 2546.6 1102.76 2550.9 1105.82 2553.77 1113.47 2565.22 1131.82 2572.38 1162.41 2575.25 1171.59 2575.25 1176.18 2579.54 1179.24 2583.84 1177.71 2588.14 1176.18 2591 1171.59 2589.57 1167 2588.14 1157.82 2580.98 1124.18 2569.52 1104.29 2563.79 1093.59 2556.63 1089 2549.47 1084.41Z" fill="#9ACB9A" fill-rule="evenodd"/><path d="M2528.23 1098.39C2522.52 1106.02 2521.09 1110.6 2519.67 1119.76 2518.24 1141.12 2523.95 1170.11 2526.8 1180.79 2526.8 1185.37 2525.37 1189.95 2521.09 1189.95 2519.67 1189.95 2519.67 1189.95 2518.24 1189.95 2519.67 1191.47 2522.52 1193 2525.37 1193 2529.65 1191.47 2532.51 1186.9 2531.08 1182.32 2528.23 1173.16 2522.52 1142.64 2523.95 1121.28 2525.37 1113.65 2528.23 1107.55 2532.51 1101.44 2533.93 1099.92 2535.36 1098.39 2536.79 1099.92 2536.79 1098.39 2535.36 1098.39 2535.36 1098.39 2533.93 1096.87 2529.65 1096.87 2528.23 1098.39ZM2488.28 1014.47C2493.99 1041.93 2499.69 1058.72 2516.81 1069.4 2518.24 1069.4 2518.24 1069.4 2519.67 1069.4 2503.97 1058.72 2498.27 1043.46 2492.56 1015.99 2491.13 1005.31 2491.13 1005.31 2491.13 1005.31 2489.71 1002.26 2486.85 1000.73 2484 1000.73 2485.43 1000.73 2485.43 1002.26 2485.43 1003.79L2488.28 1014.47ZM2569.6 1104.5C2563.89 1093.81 2556.76 1089.24 2549.63 1084.66 2548.2 1084.66 2546.77 1081.61 2549.63 1078.56 2565.32 1052.61 2558.19 1031.25 2552.48 1002.26 2549.63 991.578 2549.63 991.578 2549.63 991.578 2549.63 988.526 2546.77 987 2542.49 987 2543.92 987 2545.35 988.526 2545.35 990.052 2546.77 1000.73 2546.77 1000.73 2546.77 1000.73 2553.91 1029.73 2561.04 1051.09 2545.35 1077.03 2542.49 1080.08 2543.92 1081.61 2545.35 1083.13 2552.48 1087.71 2559.61 1092.29 2563.89 1101.44 2576.73 1122.81 2582.44 1154.85 2585.29 1165.53 2586.72 1170.11 2583.87 1174.69 2579.59 1176.21 2578.16 1176.21 2578.16 1176.21 2576.73 1176.21 2579.59 1177.74 2581.01 1177.74 2583.87 1177.74 2588.15 1176.21 2591 1171.64 2589.57 1167.06 2588.15 1157.9 2581.01 1124.33 2569.6 1104.5Z" fill="#47AC61" fill-rule="evenodd"/><path d="M2542.44 1098C2548.2 1101.09 2552.52 1104.17 2556.84 1111.89 2568.36 1131.96 2575.56 1165.91 2577 1169 2577 1169 2577 1169 2577 1169 2575.56 1165.91 2571.24 1133.5 2559.72 1113.43 2555.4 1105.72 2548.2 1101.09 2541 1098L2542.44 1098Z" fill="#FFFFFF" fill-rule="evenodd"/><path d="M2540.86 1007C2546.57 1034 2548 1049 2538 1064 2538 1064 2538 1064 2538 1064 2545.14 1056.5 2548 1047.5 2548 1037 2548 1028 2543.71 1017.5 2540.86 1007Z" fill="#FFFFFF" fill-rule="evenodd"/><path d="M2495.59 1044.94C2497.06 1044.94 2498.53 1043.41 2500 1043.41 2497.06 1035.75 2495.59 1026.56 2492.65 1015.84 2491.18 1005.12 2491.18 1005.12 2491.18 1005.12 2489.71 1002.06 2485.29 999 2482.35 1000.53 2477.94 1000.53 2475 1005.12 2476.47 1009.72 2479.41 1018.91 2479.41 1018.91 2479.41 1018.91 2480.88 1029.62 2483.82 1038.81 2485.29 1048 2489.71 1046.47 2492.65 1046.47 2495.59 1044.94Z" fill="#9E087D" fill-rule="evenodd"/><path d="M2482.43 1024.61C2488.14 1052.29 2492.43 1072.28 2516.71 1086.12 2516.71 1086.12 2518.14 1087.66 2518.14 1089.2 2519.57 1090.74 2518.14 1092.27 2518.14 1093.81 2512.43 1101.5 2509.57 1110.73 2509.57 1121.49 2508.14 1143.02 2513.86 1170.7 2516.71 1183 2516.71 1183 2516.71 1183 2516.71 1183 2513.86 1170.7 2509.57 1143.02 2512.43 1121.49 2512.43 1110.73 2515.29 1103.04 2521 1095.35 2521 1092.27 2521 1090.74 2521 1089.2 2521 1086.12 2518.14 1084.58 2518.14 1084.58 2501 1073.82 2493.86 1061.52 2488.14 1046.14 2486.71 1041.53 2483.86 1029.23 2482.43 1023.08 2481 1020 2482.43 1024.61 2482.43 1024.61Z" fill="#FFFFFF" fill-rule="evenodd"/><path d="M2549.97 1084.91C2548.54 1084.91 2547.1 1081.85 2549.97 1078.79 2565.72 1052.79 2558.56 1031.38 2552.83 1002.32 2549.97 991.618 2549.97 991.618 2549.97 991.618 2548.54 988.559 2545.67 985.5 2541.38 987.029 2537.08 987.029 2535.65 991.618 2537.08 996.206 2538.51 1005.38 2538.51 1005.38 2538.51 1005.38 2544.24 1032.91 2547.1 1048.21 2537.08 1066.56 2535.65 1068.09 2528.49 1074.21 2521.33 1071.15 2504.14 1060.44 2498.41 1043.62 2492.69 1016.09 2491.25 1005.38 2491.25 1005.38 2491.25 1005.38 2489.82 1002.32 2485.52 999.265 2482.66 1000.79 2478.36 1000.79 2475.5 1005.38 2476.93 1009.97 2479.8 1019.15 2479.8 1019.15 2479.8 1019.15 2485.52 1049.74 2489.82 1072.68 2514.17 1087.97 2515.6 1087.97 2518.46 1091.03 2517.03 1094.09 2511.3 1101.74 2508.44 1109.38 2507.01 1120.09 2505.57 1144.56 2514.17 1176.68 2515.6 1187.38 2517.03 1190.44 2521.33 1193.5 2525.62 1193.5 2529.92 1191.97 2532.78 1187.38 2531.35 1182.79 2528.49 1173.62 2522.76 1143.03 2524.19 1121.62 2525.62 1113.97 2528.49 1107.85 2532.78 1101.74 2534.22 1098.68 2538.51 1098.68 2539.94 1100.21 2547.1 1103.26 2551.4 1106.32 2554.27 1113.97 2565.72 1132.32 2572.88 1162.91 2575.75 1172.09 2575.75 1176.68 2580.04 1179.74 2584.34 1178.21 2588.64 1176.68 2591.5 1172.09 2590.07 1167.5 2588.64 1158.32 2581.48 1124.68 2570.02 1104.79 2564.29 1094.09 2557.13 1089.5 2549.97 1084.91Z" stroke="#58585A" stroke-width="2.86476" stroke-linecap="round" stroke-linejoin="round" stroke-miterlimit="10" fill="none" fill-rule="evenodd"/></g></svg>