<svg width="328" height="349" xmlns="http://www.w3.org/2000/svg" xmlns:xlink="http://www.w3.org/1999/xlink" xml:space="preserve" overflow="hidden"><g transform="translate(-2328 -1297)"><path d="M2330 1471.5C2330 1376.23 2402.53 1299 2492 1299 2581.47 1299 2654 1376.23 2654 1471.5 2654 1566.77 2581.47 1644 2492 1644 2402.53 1644 2330 1566.77 2330 1471.5Z" fill="#FBE5E8" fill-rule="evenodd"/><path d="M2615.21 1454.4C2615.21 1541.67 2547.87 1613.63 2466.2 1613.63 2440.42 1613.63 2416.06 1607.5 2396 1595.25 2407.46 1605.97 2421.79 1615.16 2437.55 1621.28 2454.74 1627.41 2471.94 1632 2490.56 1632 2573.66 1632 2641 1560.04 2641 1471.24 2641 1428.37 2623.81 1390.09 2598.02 1361 2610.91 1387.03 2615.21 1403.87 2615.21 1454.4Z" fill="#F8CFD6" fill-rule="evenodd"/><path d="M2395.88 1385.87C2423.1 1349.2 2467.51 1329.34 2516.23 1329.34 2540.58 1329.34 2564.94 1336.98 2585 1347.67 2559.21 1324.75 2526.26 1311 2490.44 1311 2407.34 1311 2340 1382.81 2340 1471.43 2340 1501.99 2348.6 1531.02 2364.36 1557 2341.43 1472.96 2375.82 1413.37 2395.88 1385.87Z" fill="#FEF4F5" fill-rule="evenodd"/><path d="M2330 1471.5C2330 1376.23 2402.53 1299 2492 1299 2581.47 1299 2654 1376.23 2654 1471.5 2654 1566.77 2581.47 1644 2492 1644 2402.53 1644 2330 1566.77 2330 1471.5Z" stroke="#58585A" stroke-width="4.0106" stroke-linecap="round" stroke-linejoin="round" stroke-miterlimit="10" fill="none" fill-rule="evenodd"/><path d="M2407 1362.5C2407 1356.7 2411.48 1352 2417 1352 2422.52 1352 2427 1356.7 2427 1362.5 2427 1368.3 2422.52 1373 2417 1373 2411.48 1373 2407 1368.3 2407 1362.5Z" fill="#FFFFFF" fill-rule="evenodd"/><path d="M2429 1352C2429 1348.69 2431.46 1346 2434.5 1346 2437.54 1346 2440 1348.69 2440 1352 2440 1355.31 2437.54 1358 2434.5 1358 2431.46 1358 2429 1355.31 2429 1352Z" fill="#FFFFFF" fill-rule="evenodd"/><path d="M2393 1376C2393 1372.69 2395.46 1370 2398.5 1370 2401.54 1370 2404 1372.69 2404 1376 2404 1379.31 2401.54 1382 2398.5 1382 2395.46 1382 2393 1379.31 2393 1376Z" fill="#FFFFFF" fill-rule="evenodd"/><path d="M2456.95 1464.66C2455.52 1464.66 2454.09 1461.6 2456.95 1458.55 2471.25 1434.12 2464.1 1414.27 2458.38 1385.27 2455.52 1376.11 2455.52 1376.11 2455.52 1376.11 2454.09 1371.53 2451.23 1370 2446.94 1371.53 2444.08 1371.53 2441.22 1376.11 2442.65 1379.16 2444.08 1388.32 2444.08 1388.32 2444.08 1388.32 2451.23 1414.27 2452.66 1429.54 2444.08 1446.34 2442.65 1449.39 2435.49 1455.5 2429.77 1452.44 2412.61 1441.76 2406.89 1426.49 2401.16 1399.01 2398.3 1389.85 2398.3 1389.85 2398.3 1389.85 2398.3 1386.79 2394.01 1383.74 2391.15 1385.27 2386.86 1385.27 2384 1389.85 2385.43 1392.9 2388.29 1403.59 2388.29 1403.59 2388.29 1403.59 2394.01 1432.6 2398.3 1453.97 2422.62 1467.71 2424.05 1469.24 2425.48 1470.76 2424.05 1473.82 2419.76 1481.45 2416.9 1489.08 2415.47 1499.77 2414.04 1522.67 2422.62 1553.21 2425.48 1563.89 2425.48 1566.95 2429.77 1570 2434.06 1568.47 2438.35 1568.47 2441.22 1563.89 2439.78 1559.31 2436.92 1550.15 2431.2 1521.15 2432.63 1501.3 2434.06 1492.14 2435.49 1487.56 2439.78 1481.45 2442.65 1478.4 2445.51 1478.4 2446.94 1479.92 2454.09 1482.98 2456.95 1486.03 2461.24 1493.66 2471.25 1510.46 2479.84 1539.47 2481.27 1548.63 2482.7 1553.21 2486.99 1554.73 2491.28 1554.73 2495.57 1553.21 2497 1548.63 2495.57 1544.05 2494.14 1534.89 2486.99 1502.82 2475.54 1482.98 2469.82 1473.82 2464.1 1469.24 2456.95 1464.66Z" fill="#9E087D" fill-rule="evenodd"/><path d="M2446.71 1371.56C2443.86 1371.56 2441 1376.22 2442.43 1379.33 2443.86 1388.67 2443.86 1388.67 2443.86 1388.67 2445.29 1393.33 2446.71 1398 2446.71 1401.11 2446.71 1401.11 2448.14 1401.11 2448.14 1401.11 2451 1412 2459.57 1405.78 2461 1398 2459.57 1393.33 2458.14 1390.22 2458.14 1385.56 2455.29 1376.22 2455.29 1376.22 2455.29 1376.22 2453.86 1371.56 2451 1370 2446.71 1371.56Z" fill="#9ACB9A" fill-rule="evenodd"/><path d="M2435.74 1478.4C2431.47 1486.03 2428.62 1490.61 2428.62 1499.77 2427.19 1519.62 2432.89 1548.63 2435.74 1557.79 2435.74 1562.37 2434.31 1565.42 2430.04 1566.95 2428.62 1566.95 2428.62 1566.95 2427.19 1566.95 2430.04 1568.47 2431.47 1570 2434.31 1568.47 2438.59 1568.47 2441.44 1563.89 2440.01 1559.31 2437.16 1550.15 2431.47 1521.15 2432.89 1501.3 2434.31 1492.14 2435.74 1487.56 2440.01 1481.45 2441.44 1479.92 2442.86 1478.4 2445.71 1479.92 2444.29 1478.4 2442.86 1478.4 2442.86 1478.4 2441.44 1476.87 2437.16 1476.87 2435.74 1478.4ZM2397.27 1397.48C2402.97 1424.96 2408.67 1440.23 2425.77 1450.92 2425.77 1450.92 2427.19 1450.92 2427.19 1450.92 2412.95 1440.23 2407.25 1424.96 2401.55 1399.01 2398.7 1389.85 2398.7 1389.85 2398.7 1389.85 2398.7 1386.79 2395.85 1385.27 2393 1385.27 2393 1385.27 2394.42 1386.79 2394.42 1388.32L2397.27 1397.48ZM2475.63 1482.98C2469.93 1473.82 2464.23 1469.24 2457.11 1464.66 2455.68 1464.66 2454.26 1461.6 2457.11 1458.55 2471.36 1434.12 2464.23 1414.27 2458.53 1385.27 2455.68 1376.11 2455.68 1376.11 2455.68 1376.11 2454.26 1373.05 2452.84 1370 2448.56 1370 2449.99 1371.53 2454.26 1371.53 2454.26 1373.05 2458.53 1383.74 2458.53 1383.74 2458.53 1383.74 2465.66 1412.75 2467.08 1432.6 2451.41 1457.02 2449.99 1460.08 2451.41 1463.13 2452.84 1463.13 2459.96 1467.71 2465.66 1472.29 2471.36 1481.45 2482.75 1501.3 2489.88 1533.36 2491.3 1542.52 2492.73 1547.1 2489.88 1551.68 2487.03 1551.68 2485.6 1551.68 2485.6 1553.21 2484.18 1551.68 2485.6 1554.73 2488.45 1554.73 2491.3 1554.73 2495.58 1553.21 2497 1548.63 2495.58 1544.05 2494.15 1534.89 2487.03 1502.82 2475.63 1482.98Z" fill="#7F0566" fill-rule="evenodd"/><path d="M2450 1479C2455.67 1482.05 2459.92 1485.09 2464.17 1492.7 2474.08 1510.98 2482.58 1542.95 2484 1546 2484 1546 2484 1546 2484 1546 2482.58 1542.95 2476.92 1512.5 2465.58 1492.7 2461.33 1485.09 2455.67 1480.52 2450 1479Z" fill="#FFFFFF" fill-rule="evenodd"/><path d="M2391.43 1408.59C2397.14 1434.59 2401.43 1454.47 2424.29 1468.24 2425.71 1468.24 2427.14 1469.76 2427.14 1471.29 2427.14 1471.29 2427.14 1472.82 2427.14 1474.35 2421.43 1482 2418.57 1491.18 2418.57 1500.35 2417.14 1521.76 2422.86 1549.29 2425.71 1560 2427.14 1560 2427.14 1560 2427.14 1560 2424.29 1549.29 2420 1521.76 2421.43 1500.35 2421.43 1491.18 2424.29 1483.53 2428.57 1475.88 2430 1474.35 2430 1471.29 2430 1469.76 2428.57 1468.24 2427.14 1466.71 2425.71 1465.18 2410 1456 2402.86 1445.29 2397.14 1430 2395.71 1425.41 2392.86 1413.18 2391.43 1407.06 2390 1404 2391.43 1408.59 2391.43 1408.59Z" fill="#FFFFFF" fill-rule="evenodd"/><path d="M2446.57 1390C2454.43 1417.73 2454.43 1431.59 2445 1447 2445 1447 2445 1447 2445 1447 2451.29 1439.3 2456 1430.05 2454.43 1419.27 2454.43 1410.03 2449.71 1400.78 2446.57 1390Z" fill="#FFFFFF" fill-rule="evenodd"/><path d="M2457.45 1465.16C2456.02 1465.16 2454.59 1462.1 2457.45 1459.05 2471.75 1434.62 2464.6 1414.77 2458.88 1385.77 2456.02 1376.61 2456.02 1376.61 2456.02 1376.61 2454.59 1372.03 2451.73 1370.5 2447.44 1372.03 2444.58 1372.03 2441.72 1376.61 2443.15 1379.66 2444.58 1388.82 2444.58 1388.82 2444.58 1388.82 2451.73 1414.77 2453.16 1430.04 2444.58 1446.84 2443.15 1449.89 2435.99 1456 2430.27 1452.94 2413.11 1442.26 2407.39 1426.99 2401.66 1399.51 2398.8 1390.35 2398.8 1390.35 2398.8 1390.35 2398.8 1387.29 2394.51 1384.24 2391.65 1385.77 2387.36 1385.77 2384.5 1390.35 2385.93 1393.4 2388.79 1404.09 2388.79 1404.09 2388.79 1404.09 2394.51 1433.1 2398.8 1454.47 2423.12 1468.21 2424.55 1469.74 2425.98 1471.26 2424.55 1474.32 2420.26 1481.95 2417.4 1489.58 2415.97 1500.27 2414.54 1523.17 2423.12 1553.71 2425.98 1564.39 2425.98 1567.45 2430.27 1570.5 2434.56 1568.97 2438.85 1568.97 2441.72 1564.39 2440.28 1559.81 2437.42 1550.65 2431.7 1521.65 2433.13 1501.8 2434.56 1492.64 2435.99 1488.06 2440.28 1481.95 2443.15 1478.9 2446.01 1478.9 2447.44 1480.42 2454.59 1483.48 2457.45 1486.53 2461.74 1494.16 2471.75 1510.96 2480.34 1539.97 2481.77 1549.13 2483.2 1553.71 2487.49 1555.23 2491.78 1555.23 2496.07 1553.71 2497.5 1549.13 2496.07 1544.55 2494.64 1535.39 2487.49 1503.32 2476.04 1483.48 2470.32 1474.32 2464.6 1469.74 2457.45 1465.16Z" stroke="#58585A" stroke-width="2.86476" stroke-linecap="round" stroke-linejoin="round" stroke-miterlimit="10" fill="none" fill-rule="evenodd"/><path d="M2573.09 1516.61C2571.66 1516.61 2571.66 1513.55 2575.95 1512.03 2597.4 1504.39 2603.13 1487.6 2611.71 1464.7 2614.57 1457.06 2614.57 1457.06 2614.57 1457.06 2616 1454.01 2614.57 1449.43 2611.71 1449.43 2608.85 1447.9 2605.99 1449.43 2604.56 1452.48 2601.7 1460.12 2601.7 1460.12 2601.7 1460.12 2593.11 1479.96 2587.39 1492.18 2573.09 1498.29 2570.23 1498.29 2563.08 1498.29 2560.22 1493.71 2554.49 1476.91 2558.78 1463.17 2567.37 1441.79 2570.23 1434.16 2570.23 1434.16 2570.23 1434.16 2571.66 1431.11 2570.23 1428.05 2567.37 1426.53 2564.51 1425 2560.22 1426.53 2560.22 1429.58 2555.92 1437.21 2555.92 1437.21 2555.92 1437.21 2547.34 1460.12 2538.76 1478.44 2548.77 1499.81 2548.77 1501.34 2548.77 1504.39 2547.34 1505.92 2540.19 1507.45 2534.47 1510.5 2528.75 1518.13 2517.3 1531.88 2507.29 1557.83 2504.43 1565.46 2503 1568.52 2504.43 1573.1 2507.29 1574.62 2511.58 1576.15 2514.44 1574.62 2515.87 1570.04 2518.73 1563.94 2528.75 1541.04 2540.19 1527.29 2544.48 1522.71 2547.34 1519.66 2554.49 1518.13 2555.92 1518.13 2558.78 1519.66 2558.78 1521.19 2561.65 1527.29 2563.08 1531.88 2563.08 1537.98 2561.65 1554.78 2553.06 1579.21 2548.77 1585.31 2548.77 1589.89 2550.2 1592.95 2553.06 1594.47 2555.92 1596 2560.22 1594.47 2561.65 1591.42 2564.51 1583.79 2574.52 1559.36 2575.95 1539.51 2577.38 1530.35 2575.95 1524.24 2573.09 1516.61Z" fill="#9ACB9A" fill-rule="evenodd"/><path d="M2551.38 1515.05C2545.64 1516.58 2541.33 1518.11 2537.03 1524.22 2526.97 1536.44 2516.92 1559.35 2514.05 1566.98 2512.62 1570.04 2508.31 1571.56 2505.44 1570.04 2504 1570.04 2504 1570.04 2504 1568.51 2504 1571.56 2505.44 1573.09 2506.87 1574.62 2511.18 1576.15 2514.05 1574.62 2515.49 1570.04 2518.36 1563.93 2528.41 1541.02 2539.9 1527.27 2544.2 1522.69 2547.08 1519.64 2554.26 1518.11 2555.69 1518.11 2557.13 1518.11 2557.13 1519.64 2557.13 1519.64 2557.13 1518.11 2557.13 1518.11 2555.69 1516.58 2554.26 1513.53 2551.38 1515.05ZM2564.31 1438.69C2555.69 1460.07 2551.38 1473.82 2558.56 1489.09 2558.56 1490.62 2558.56 1490.62 2560 1492.15 2554.26 1475.35 2558.56 1463.13 2567.18 1441.75 2570.05 1434.11 2570.05 1434.11 2570.05 1434.11 2571.49 1432.58 2570.05 1429.53 2568.62 1428 2568.62 1429.53 2568.62 1429.53 2567.18 1431.05L2564.31 1438.69ZM2575.79 1539.49C2577.23 1530.33 2575.79 1524.22 2572.92 1516.58 2571.49 1516.58 2571.49 1513.53 2575.79 1512 2597.33 1504.36 2603.08 1487.56 2611.69 1464.65 2614.56 1457.02 2614.56 1457.02 2614.56 1457.02 2616 1453.96 2614.56 1450.91 2613.13 1449.38 2613.13 1450.91 2613.13 1452.44 2613.13 1452.44 2610.26 1460.07 2610.26 1460.07 2610.26 1460.07 2600.2 1482.98 2594.46 1501.31 2572.92 1508.95 2570.05 1510.47 2570.05 1512 2570.05 1513.53 2572.92 1519.64 2574.36 1527.27 2574.36 1536.44 2572.92 1554.76 2561.44 1579.2 2558.56 1588.36 2557.13 1591.42 2554.26 1592.95 2549.95 1591.42 2549.95 1591.42 2549.95 1589.89 2548.51 1589.89 2549.95 1592.95 2549.95 1594.47 2552.82 1594.47 2555.69 1596 2560 1594.47 2561.44 1591.42 2564.31 1583.78 2574.36 1559.35 2575.79 1539.49Z" fill="#47AC61" fill-rule="evenodd"/><path d="M2561.5 1522C2563 1528.1 2564.5 1532.67 2564.5 1538.76 2563 1557.05 2552.5 1582.95 2551 1586 2551 1586 2551 1586 2551 1586 2552.5 1582.95 2564.5 1560.1 2566 1540.29 2566 1534.19 2564.5 1526.57 2561.5 1522Z" fill="#FFFFFF" fill-rule="evenodd"/><path d="M2602 1462C2593.16 1483.58 2587.26 1492.83 2574 1499 2574 1499 2574 1499 2574 1499 2581.37 1495.92 2588.74 1492.83 2593.16 1485.13 2597.58 1478.96 2599.05 1469.71 2602 1462Z" fill="#FFFFFF" fill-rule="evenodd"/><path d="M2514.11 1541.54C2509.94 1550.79 2505.78 1561.58 2504.39 1566.21 2503 1569.29 2504.39 1573.92 2507.17 1575.46 2511.33 1577 2514.11 1575.46 2515.5 1570.83 2516.89 1566.21 2522.44 1555.42 2528 1546.17 2523.83 1541.54 2519.67 1540 2514.11 1541.54Z" fill="#9E087D" fill-rule="evenodd"/><path d="M2555.57 1443.06C2547 1462.96 2541.29 1478.27 2549.86 1499.7 2549.86 1501.23 2549.86 1502.77 2549.86 1504.3 2549.86 1504.3 2548.43 1505.83 2548.43 1505.83 2541.29 1508.89 2535.57 1511.95 2529.86 1519.6 2518.43 1531.85 2509.86 1554.81 2507 1564 2507 1564 2507 1564 2507 1564 2509.86 1554.81 2519.86 1533.38 2531.29 1521.14 2537 1515.01 2541.29 1510.42 2548.43 1507.36 2549.86 1507.36 2551.29 1505.83 2551.29 1504.3 2552.71 1502.77 2552.71 1501.23 2551.29 1499.7 2545.57 1484.4 2545.57 1472.15 2549.86 1459.9 2551.29 1455.31 2554.14 1446.12 2555.57 1441.53 2557 1440 2555.57 1443.06 2555.57 1443.06Z" fill="#FFFFFF" fill-rule="evenodd"/><path d="M2573.59 1517.11C2572.16 1517.11 2572.16 1514.05 2576.45 1512.53 2597.91 1504.89 2603.63 1488.1 2612.21 1465.2 2615.07 1457.56 2615.07 1457.56 2615.07 1457.56 2616.5 1454.51 2615.07 1449.93 2612.21 1449.93 2609.35 1448.4 2606.49 1449.93 2605.06 1452.98 2602.2 1460.62 2602.2 1460.62 2602.2 1460.62 2593.61 1480.46 2587.89 1492.68 2573.59 1498.79 2570.73 1498.79 2563.58 1498.79 2560.72 1494.21 2554.99 1477.41 2559.28 1463.67 2567.87 1442.29 2570.73 1434.66 2570.73 1434.66 2570.73 1434.66 2572.16 1431.61 2570.73 1428.55 2567.87 1427.03 2565.01 1425.5 2560.72 1427.03 2560.72 1430.08 2556.42 1437.71 2556.42 1437.71 2556.42 1437.71 2547.84 1460.62 2539.26 1478.94 2549.27 1500.31 2549.27 1501.84 2549.27 1504.89 2547.84 1506.42 2540.69 1507.95 2534.97 1511 2529.25 1518.63 2517.8 1532.37 2507.79 1558.33 2504.93 1565.96 2503.5 1569.02 2504.93 1573.6 2507.79 1575.12 2512.08 1576.65 2514.94 1575.12 2516.37 1570.54 2519.23 1564.44 2529.25 1541.54 2540.69 1527.79 2544.98 1523.21 2547.84 1520.16 2554.99 1518.63 2556.42 1518.63 2559.28 1520.16 2559.28 1521.69 2562.15 1527.79 2563.58 1532.37 2563.58 1538.48 2562.15 1555.28 2553.56 1579.71 2549.27 1585.81 2549.27 1590.39 2550.7 1593.45 2553.56 1594.97 2556.42 1596.5 2560.72 1594.97 2562.15 1591.92 2565.01 1584.29 2575.02 1559.86 2576.45 1540.01 2577.88 1530.85 2576.45 1524.74 2573.59 1517.11Z" stroke="#58585A" stroke-width="2.86476" stroke-linecap="round" stroke-linejoin="round" stroke-miterlimit="10" fill="none" fill-rule="evenodd"/></g></svg>