<svg width="263" height="280" xmlns="http://www.w3.org/2000/svg" xmlns:xlink="http://www.w3.org/1999/xlink" xml:space="preserve" overflow="hidden"><g transform="translate(-2884 -686)"><path d="M2886 826C2886 749.785 2943.98 688 3015.5 688 3087.02 688 3145 749.785 3145 826 3145 902.215 3087.02 964 3015.5 964 2943.98 964 2886 902.215 2886 826Z" fill="#FBE5E8" fill-rule="evenodd"/><path d="M3113.87 810.88C3113.87 881.176 3059.23 937.718 2993.08 937.718 2972.95 937.718 2954.26 933.134 2937 923.965 2947.07 931.605 2958.57 939.246 2971.51 943.831 2984.45 949.943 2998.83 953 3014.65 953 3080.8 953 3134 894.929 3134 824.634 3134 791.014 3121.06 758.922 3100.93 736 3109.55 757.394 3113.87 771.148 3113.87 810.88Z" fill="#F8CFD6" fill-rule="evenodd"/><path d="M2937.01 757.938C2959.96 727.469 2995.8 712.234 3033.08 712.234 3053.15 712.234 3073.23 716.805 3089 725.945 3068.93 707.664 3041.68 697 3013.01 697 2947.05 697 2894 754.891 2894 824.969 2894 849.344 2899.74 873.719 2912.64 892 2894 826.492 2921.24 779.266 2937.01 757.938Z" fill="#FEF4F5" fill-rule="evenodd"/><path d="M2886 826C2886 749.785 2943.98 688 3015.5 688 3087.02 688 3145 749.785 3145 826 3145 902.215 3087.02 964 3015.5 964 2943.98 964 2886 902.215 2886 826Z" stroke="#58585A" stroke-width="4.0106" stroke-linecap="round" stroke-linejoin="round" stroke-miterlimit="10" fill="none" fill-rule="evenodd"/><path d="M2951 736.5C2951 732.358 2954.58 729 2959 729 2963.42 729 2967 732.358 2967 736.5 2967 740.642 2963.42 744 2959 744 2954.58 744 2951 740.642 2951 736.5Z" fill="#FFFFFF" fill-rule="evenodd"/><path d="M2968 727.5C2968 725.015 2970.01 723 2972.5 723 2974.99 723 2977 725.015 2977 727.5 2977 729.985 2974.99 732 2972.5 732 2970.01 732 2968 729.985 2968 727.5Z" fill="#FFFFFF" fill-rule="evenodd"/><path d="M2937 750C2937 747.238 2939.01 745 2941.5 745 2943.99 745 2946 747.238 2946 750 2946 752.761 2943.99 755 2941.5 755 2939.01 755 2937 752.761 2937 750Z" fill="#FFFFFF" fill-rule="evenodd"/><path d="M3004.5 803.603C2990.2 834.293 2993.06 888 2967.31 874.19 2943 860.379 2984.48 831.224 2998.78 800.534 3013.08 769.845 3013.08 710 3038.83 723.81 3066 739.155 3018.8 772.914 3004.5 803.603Z" fill="#9E087D" fill-rule="evenodd"/><path d="M2992 841.886C2973.62 844.972 2979.28 828 2976.45 832.629 2962.31 849.6 2951 865.029 2966.55 874.286 2982.1 882 2987.76 863.486 2992 841.886Z" fill="#9ACB9A" fill-rule="evenodd"/><path d="M3008 783C3016.57 753.837 3018 717 3038 729.279 3030.86 729.279 3023.71 730.814 3008 783Z" fill="#DBBAD6" fill-rule="evenodd"/><path d="M2967 870C2957 859.267 2972.71 843.933 2987 824 2981.29 833.2 2962.71 862.333 2967 870Z" fill="#ECF5EB" fill-rule="evenodd"/><path d="M3005 804.104C2990.7 834.793 2993.56 888.5 2967.81 874.69 2943.5 860.879 2984.98 831.724 2999.28 801.035 3013.58 770.345 3013.58 710.5 3039.33 724.31 3066.5 739.655 3019.3 773.414 3005 804.104Z" stroke="#58585A" stroke-width="2.86476" stroke-linecap="round" stroke-linejoin="round" stroke-miterlimit="10" fill="none" fill-rule="evenodd"/><path d="M3081.11 835.21C3081.11 865.737 3105 902.368 3081.11 905.421 3057.22 910 3068.46 861.158 3068.46 830.631 3068.46 800.105 3053 765 3078.3 769.579 3105 772.631 3081.11 804.684 3081.11 835.21Z" fill="#9ACB9A" fill-rule="evenodd"/><path d="M3079 772.531C3067.8 771 3065 775.592 3066.4 789.367 3067.8 803.143 3073.4 826.102 3070.6 846 3072 830.694 3072 806.204 3070.6 793.959 3070.6 780.184 3070.6 772.531 3079 772.531Z" fill="#ECF5EB" fill-rule="evenodd"/><path d="M3082 902.917C3067 906 3068.36 885.958 3069.73 869 3069.73 879.792 3072.45 901.375 3082 902.917Z" fill="#ECF5EB" fill-rule="evenodd"/><path d="M3087.15 779C3090.08 782.051 3085.69 795.782 3082.77 806.461 3079.85 815.615 3076.92 826.295 3078.38 841.551 3078.38 858.333 3093 887.32 3088.62 898 3091.54 887.32 3078.38 865.961 3076.92 850.705 3074 835.449 3074 824.769 3079.85 806.461 3087.15 786.628 3087.15 782.051 3087.15 779Z" fill="#47AC61" fill-rule="evenodd"/><path d="M3081.61 835.711C3081.61 866.237 3105.5 902.869 3081.61 905.921 3057.72 910.5 3068.96 861.658 3068.96 831.132 3068.96 800.605 3053.5 765.5 3078.8 770.079 3105.5 773.132 3081.61 805.184 3081.61 835.711Z" stroke="#58585A" stroke-width="2.86476" stroke-linecap="round" stroke-linejoin="round" stroke-miterlimit="10" fill="none" fill-rule="evenodd"/></g></svg>