<svg width="92" height="159" xmlns="http://www.w3.org/2000/svg" xmlns:xlink="http://www.w3.org/1999/xlink" xml:space="preserve" overflow="hidden"><g transform="translate(-2958 -720)"><path d="M3004.5 803.603C2990.2 834.293 2993.06 888 2967.31 874.19 2943 860.379 2984.48 831.224 2998.78 800.534 3013.08 769.845 3013.08 710 3038.83 723.81 3066 739.155 3018.8 772.914 3004.5 803.603Z" fill="#9E087D" fill-rule="evenodd"/><path d="M2992 841.886C2973.62 844.972 2979.28 828 2976.45 832.629 2962.31 849.6 2951 865.029 2966.55 874.286 2982.1 882 2987.76 863.486 2992 841.886Z" fill="#9ACB9A" fill-rule="evenodd"/><path d="M3008 783C3016.57 753.837 3018 717 3038 729.279 3030.86 729.279 3023.71 730.814 3008 783Z" fill="#DBBAD6" fill-rule="evenodd"/><path d="M2967 870C2957 859.267 2972.71 843.933 2987 824 2981.29 833.2 2962.71 862.333 2967 870Z" fill="#ECF5EB" fill-rule="evenodd"/><path d="M3005 804.104C2990.7 834.793 2993.56 888.5 2967.81 874.69 2943.5 860.879 2984.98 831.724 2999.28 801.035 3013.58 770.345 3013.58 710.5 3039.33 724.31 3066.5 739.655 3019.3 773.414 3005 804.104Z" stroke="#58585A" stroke-width="2.86476" stroke-linecap="round" stroke-linejoin="round" stroke-miterlimit="10" fill="none" fill-rule="evenodd"/></g></svg>