<svg width="59" height="182" xmlns="http://www.w3.org/2000/svg" xmlns:xlink="http://www.w3.org/1999/xlink" xml:space="preserve" overflow="hidden"><g transform="translate(-3042 -1050)"><path d="M3082.42 1145.73C3088.16 1184.03 3114 1230 3083.85 1230 3052.27 1230 3075.24 1170.24 3069.5 1131.94 3063.76 1095.16 3025 1067.58 3053.71 1053.79 3082.42 1040 3075.24 1108.95 3082.42 1145.73Z" fill="#9E087D" fill-rule="evenodd"/><path d="M3054.67 1058C3046 1062.53 3046 1068.57 3051.78 1082.17 3057.56 1094.26 3069.11 1116.91 3072 1129 3069.11 1113.89 3059 1089.72 3056.11 1079.15 3053.22 1070.09 3050.33 1062.53 3054.67 1058Z" fill="#DBBAD6" fill-rule="evenodd"/><path d="M3073.75 1160C3072.31 1175.32 3068 1205.96 3072.31 1218.21 3078.06 1232 3091 1222.81 3091 1222.81 3080.94 1222.81 3076.62 1216.68 3075.19 1199.83 3072.31 1182.98 3073.75 1160 3073.75 1160Z" fill="#DBBAD6" fill-rule="evenodd"/><path d="M3082.92 1146.23C3088.66 1184.53 3114.5 1230.5 3084.35 1230.5 3052.77 1230.5 3075.74 1170.74 3070 1132.44 3064.26 1095.66 3025.5 1068.08 3054.21 1054.29 3082.92 1040.5 3075.74 1109.45 3082.92 1146.23Z" stroke="#58585A" stroke-width="2.86476" stroke-linecap="round" stroke-linejoin="round" stroke-miterlimit="10" fill="none" fill-rule="evenodd"/></g></svg>