<svg width="263" height="280" xmlns="http://www.w3.org/2000/svg" xmlns:xlink="http://www.w3.org/1999/xlink" xml:space="preserve" overflow="hidden"><g transform="translate(-2884 -990)"><path d="M2886 1130C2886 1053.78 2943.98 992 3015.5 992 3087.02 992 3145 1053.78 3145 1130 3145 1206.22 3087.02 1268 3015.5 1268 2943.98 1268 2886 1206.22 2886 1130Z" fill="#FBE5E8" fill-rule="evenodd"/><path d="M3113.87 1115.53C3113.87 1187.53 3059.23 1244.21 2993.08 1244.21 2972.95 1244.21 2954.26 1238.09 2937 1228.89 2947.07 1238.09 2958.57 1245.74 2971.51 1250.34 2984.45 1254.94 2998.83 1258 3014.65 1258 3080.8 1258 3134 1201.32 3134 1130.85 3134 1095.62 3121.06 1064.98 3100.93 1042 3109.55 1061.91 3113.87 1077.23 3113.87 1115.53Z" fill="#F8CFD6" fill-rule="evenodd"/><path d="M2937.01 1061.72C2959.96 1032.62 2995.8 1015.78 3033.08 1015.78 3053.15 1015.78 3073.23 1021.91 3089 1031.09 3068.93 1012.72 3041.68 1002 3013.01 1002 2947.05 1002 2894 1058.66 2894 1129.09 2894 1155.12 2899.74 1178.09 2912.64 1198 2894 1130.62 2921.24 1083.16 2937.01 1061.72Z" fill="#FEF4F5" fill-rule="evenodd"/><path d="M2886 1130C2886 1053.78 2943.98 992 3015.5 992 3087.02 992 3145 1053.78 3145 1130 3145 1206.22 3087.02 1268 3015.5 1268 2943.98 1268 2886 1206.22 2886 1130Z" stroke="#58585A" stroke-width="4.0106" stroke-linecap="round" stroke-linejoin="round" stroke-miterlimit="10" fill="none" fill-rule="evenodd"/><path d="M2943 1049C2943 1044.03 2946.36 1040 2950.5 1040 2954.64 1040 2958 1044.03 2958 1049 2958 1053.97 2954.64 1058 2950.5 1058 2946.36 1058 2943 1053.97 2943 1049Z" fill="#FFFFFF" fill-rule="evenodd"/><path d="M2960 1040.5C2960 1038.01 2961.79 1036 2964 1036 2966.21 1036 2968 1038.01 2968 1040.5 2968 1042.99 2966.21 1045 2964 1045 2961.79 1045 2960 1042.99 2960 1040.5Z" fill="#FFFFFF" fill-rule="evenodd"/><path d="M2932 1062.5C2932 1060.01 2934.01 1058 2936.5 1058 2938.99 1058 2941 1060.01 2941 1062.5 2941 1064.99 2938.99 1067 2936.5 1067 2934.01 1067 2932 1064.99 2932 1062.5Z" fill="#FFFFFF" fill-rule="evenodd"/></g></svg>