<svg width="263" height="280" xmlns="http://www.w3.org/2000/svg" xmlns:xlink="http://www.w3.org/1999/xlink" xml:space="preserve" overflow="hidden"><g transform="translate(-2884 -1292)"><path d="M2886 1432C2886 1355.78 2943.98 1294 3015.5 1294 3087.02 1294 3145 1355.78 3145 1432 3145 1508.22 3087.02 1570 3015.5 1570 2943.98 1570 2886 1508.22 2886 1432Z" fill="#FBE5E8" fill-rule="evenodd"/><path d="M3113.87 1417.88C3113.87 1488.18 3059.23 1544.72 2993.08 1544.72 2972.95 1544.72 2954.26 1540.13 2937 1530.96 2947.07 1538.61 2958.57 1546.25 2971.51 1550.83 2984.45 1556.94 2998.83 1560 3014.65 1560 3080.8 1560 3134 1501.93 3134 1431.63 3134 1398.01 3121.06 1365.92 3100.93 1343 3109.55 1364.39 3113.87 1378.15 3113.87 1417.88Z" fill="#F8CFD6" fill-rule="evenodd"/><path d="M2937.01 1362.72C2959.96 1333.63 2995.8 1318.31 3033.08 1318.31 3053.15 1318.31 3073.23 1322.91 3089 1332.09 3068.93 1313.72 3041.68 1303 3013.01 1303 2947.05 1303 2894 1361.19 2894 1431.63 2894 1456.13 2899.74 1479.09 2912.64 1499 2894 1433.16 2921.24 1385.69 2937.01 1362.72Z" fill="#FEF4F5" fill-rule="evenodd"/><path d="M2886 1432C2886 1355.78 2943.98 1294 3015.5 1294 3087.02 1294 3145 1355.78 3145 1432 3145 1508.22 3087.02 1570 3015.5 1570 2943.98 1570 2886 1508.22 2886 1432Z" stroke="#58585A" stroke-width="4.0106" stroke-linecap="round" stroke-linejoin="round" stroke-miterlimit="10" fill="none" fill-rule="evenodd"/><path d="M2943 1350.5C2943 1346.36 2946.36 1343 2950.5 1343 2954.64 1343 2958 1346.36 2958 1350.5 2958 1354.64 2954.64 1358 2950.5 1358 2946.36 1358 2943 1354.64 2943 1350.5Z" fill="#FFFFFF" fill-rule="evenodd"/><path d="M2963 1342.5C2963 1340.01 2965.01 1338 2967.5 1338 2969.99 1338 2972 1340.01 2972 1342.5 2972 1344.99 2969.99 1347 2967.5 1347 2965.01 1347 2963 1344.99 2963 1342.5Z" fill="#FFFFFF" fill-rule="evenodd"/><path d="M2937 1363C2937 1360.24 2939.01 1358 2941.5 1358 2943.99 1358 2946 1360.24 2946 1363 2946 1365.76 2943.99 1368 2941.5 1368 2939.01 1368 2937 1365.76 2937 1363Z" fill="#FFFFFF" fill-rule="evenodd"/><path d="M2966.33 1422.56C2967.76 1456.22 2992 1494.47 2962.06 1496 2932.11 1496 2956.35 1462.34 2954.93 1427.15 2952.07 1393.49 2915 1353.71 2946.37 1347.59 2976.31 1343 2963.48 1387.37 2966.33 1422.56Z" fill="#9E087D" fill-rule="evenodd"/><path d="M2950.54 1464C2946.27 1482.29 2942 1496 2961.92 1496 2979 1494.48 2979 1482.29 2974.73 1465.52 2973.31 1465.52 2971.88 1467.05 2970.46 1467.05 2961.92 1468.57 2957.65 1464 2950.54 1464Z" fill="#9ACB9A" fill-rule="evenodd"/><path d="M2950.81 1350C2939.31 1351.55 2935 1354.64 2942.19 1376.27 2950.81 1396.36 2958 1411.82 2958 1418 2953.69 1401 2943.62 1371.64 2943.62 1363.91 2945.06 1354.64 2946.5 1351.55 2950.81 1350Z" fill="#DBBAD6" fill-rule="evenodd"/><path d="M2958.13 1455C2955.2 1467 2942 1491 2964 1491 2958.13 1491 2952.27 1474.5 2958.13 1455Z" fill="#ECF5EB" fill-rule="evenodd"/><path d="M2966.83 1423.06C2968.26 1456.72 2992.5 1494.97 2962.56 1496.5 2932.61 1496.5 2956.85 1462.84 2955.43 1427.65 2952.57 1393.99 2915.5 1354.21 2946.87 1348.09 2976.81 1343.5 2963.98 1387.87 2966.83 1423.06Z" stroke="#58585A" stroke-width="2.86476" stroke-linecap="round" stroke-linejoin="round" stroke-miterlimit="10" fill="none" fill-rule="evenodd"/><path d="M3037.28 1448.14C3051.6 1475.72 3106 1474.18 3084.53 1506.36 3063.05 1537 3044.44 1489.5 3030.13 1463.46 3014.38 1437.41 2970 1408.3 2997.2 1388.39 3025.83 1370 3022.97 1422.09 3037.28 1448.14Z" fill="#9ACB9A" fill-rule="evenodd"/><path d="M3024 1448C3019.7 1441.89 3002.48 1423.56 2996.74 1414.39 2991 1405.22 2992.43 1397.58 3001.04 1393 2996.74 1397.58 3001.04 1415.92 3024 1448Z" fill="#ECF5EB" fill-rule="evenodd"/><path d="M3039 1468C3046.14 1483.52 3057.57 1509.9 3069 1513" fill="#ECF5EB" fill-rule="evenodd"/><path d="M3063 1476C3077.29 1482.1 3093 1486.67 3077.29 1508 3080.14 1497.33 3081.57 1491.24 3063 1476Z" fill="#47AC61" fill-rule="evenodd"/><path d="M3037.78 1448.64C3052.1 1476.22 3106.5 1474.68 3085.03 1506.86 3063.55 1537.5 3044.94 1490 3030.63 1463.96 3014.88 1437.91 2970.5 1408.8 2997.7 1388.89 3026.33 1370.5 3023.47 1422.59 3037.78 1448.64Z" stroke="#58585A" stroke-width="2.86476" stroke-linecap="round" stroke-linejoin="round" stroke-miterlimit="10" fill="none" fill-rule="evenodd"/></g></svg>