<svg width="105" height="136" xmlns="http://www.w3.org/2000/svg" xmlns:xlink="http://www.w3.org/1999/xlink" xml:space="preserve" overflow="hidden"><g transform="translate(-2987 -1383)"><path d="M3037.28 1448.14C3051.6 1475.72 3106 1474.18 3084.53 1506.36 3063.05 1537 3044.44 1489.5 3030.13 1463.46 3014.38 1437.41 2970 1408.3 2997.2 1388.39 3025.83 1370 3022.97 1422.09 3037.28 1448.14Z" fill="#9ACB9A" fill-rule="evenodd"/><path d="M3024 1448C3019.7 1441.89 3002.48 1423.56 2996.74 1414.39 2991 1405.22 2992.43 1397.58 3001.04 1393 2996.74 1397.58 3001.04 1415.92 3024 1448Z" fill="#ECF5EB" fill-rule="evenodd"/><path d="M3039 1468C3046.14 1483.52 3057.57 1509.9 3069 1513" fill="#ECF5EB" fill-rule="evenodd"/><path d="M3063 1476C3077.29 1482.1 3093 1486.67 3077.29 1508 3080.14 1497.33 3081.57 1491.24 3063 1476Z" fill="#47AC61" fill-rule="evenodd"/><path d="M3037.78 1448.64C3052.1 1476.22 3106.5 1474.68 3085.03 1506.86 3063.55 1537.5 3044.94 1490 3030.63 1463.96 3014.88 1437.91 2970.5 1408.8 2997.7 1388.89 3026.33 1370.5 3023.47 1422.59 3037.78 1448.64Z" stroke="#58585A" stroke-width="2.86476" stroke-linecap="round" stroke-linejoin="round" stroke-miterlimit="10" fill="none" fill-rule="evenodd"/></g></svg>