<svg width="263" height="281" xmlns="http://www.w3.org/2000/svg" xmlns:xlink="http://www.w3.org/1999/xlink" xml:space="preserve" overflow="hidden"><g transform="translate(-2884 -1596)"><path d="M2886 1736.5C2886 1660.01 2943.98 1598 3015.5 1598 3087.02 1598 3145 1660.01 3145 1736.5 3145 1812.99 3087.02 1875 3015.5 1875 2943.98 1875 2886 1812.99 2886 1736.5Z" fill="#FBE5E8" fill-rule="evenodd"/><path d="M3113.87 1721.53C3113.87 1792 3059.23 1850.21 2993.08 1850.21 2972.95 1850.21 2954.26 1844.09 2937 1834.89 2947.07 1844.09 2958.57 1851.74 2971.51 1856.34 2984.45 1860.94 2998.83 1864 3014.65 1864 3080.8 1864 3134 1807.32 3134 1736.85 3134 1701.62 3121.06 1670.98 3100.93 1648 3109.55 1667.91 3113.87 1681.7 3113.87 1721.53Z" fill="#F8CFD6" fill-rule="evenodd"/><path d="M2937.01 1668.72C2959.96 1639.63 2995.8 1622.78 3033.08 1622.78 3053.15 1622.78 3073.23 1628.91 3089 1638.09 3068.93 1619.72 3041.68 1609 3013.01 1609 2947.05 1609 2894 1665.66 2894 1736.09 2894 1762.13 2899.74 1785.09 2912.64 1805 2894 1737.63 2921.24 1690.16 2937.01 1668.72Z" fill="#FEF4F5" fill-rule="evenodd"/><path d="M2886 1736.5C2886 1660.01 2943.98 1598 3015.5 1598 3087.02 1598 3145 1660.01 3145 1736.5 3145 1812.99 3087.02 1875 3015.5 1875 2943.98 1875 2886 1812.99 2886 1736.5Z" stroke="#58585A" stroke-width="4.0106" stroke-linecap="round" stroke-linejoin="round" stroke-miterlimit="10" fill="none" fill-rule="evenodd"/><path d="M2948 1649C2948 1644.58 2951.36 1641 2955.5 1641 2959.64 1641 2963 1644.58 2963 1649 2963 1653.42 2959.64 1657 2955.5 1657 2951.36 1657 2948 1653.42 2948 1649Z" fill="#FFFFFF" fill-rule="evenodd"/><path d="M2965 1640.5C2965 1638.01 2966.79 1636 2969 1636 2971.21 1636 2973 1638.01 2973 1640.5 2973 1642.99 2971.21 1645 2969 1645 2966.79 1645 2965 1642.99 2965 1640.5Z" fill="#FFFFFF" fill-rule="evenodd"/><path d="M2939 1662C2939 1659.24 2941.01 1657 2943.5 1657 2945.99 1657 2948 1659.24 2948 1662 2948 1664.76 2945.99 1667 2943.5 1667 2941.01 1667 2939 1664.76 2939 1662Z" fill="#FFFFFF" fill-rule="evenodd"/><path d="M2994.52 1646.53C2963.03 1645 2984.5 1701.66 2980.21 1723.09 2975.91 1744.53 2943 1743 2953.02 1767.5 2961.6 1792 2985.93 1761.38 2990.22 1723.09 2995.95 1684.81 3026 1648.06 2994.52 1646.53Z" fill="#9ACB9A" fill-rule="evenodd"/><path d="M2977.55 1765.11C2976.09 1758.96 2979 1746.68 2974.64 1742.07 2973.18 1739 2968.82 1739 2964.45 1742.07 2955.73 1748.21 2947 1754.36 2952.82 1768.18 2957.18 1782 2968.82 1778.93 2977.55 1765.11Z" fill="#9E087D" fill-rule="evenodd"/><path d="M3004 1658.85C2999.83 1652.69 2997.06 1649.62 2990.11 1651.15 2983.17 1652.69 2979 1660.38 2983.17 1685 2983.17 1671.15 2991.5 1645 3004 1658.85Z" fill="#ECF5EB" fill-rule="evenodd"/><path d="M2968 1743C2962.67 1750.89 2957.33 1749.32 2956 1757.21 2956 1765.11 2960 1771.42 2964 1773 2957.33 1766.68 2960 1752.47 2968 1743Z" fill="#DBBAD6" fill-rule="evenodd"/><path d="M2995.02 1647.03C2963.53 1645.5 2985 1702.16 2980.71 1723.59 2976.41 1745.03 2943.5 1743.5 2953.52 1768 2962.1 1792.5 2986.43 1761.88 2990.72 1723.59 2996.45 1685.31 3026.5 1648.56 2995.02 1647.03Z" stroke="#58585A" stroke-width="2.86476" stroke-linecap="round" stroke-linejoin="round" stroke-miterlimit="10" fill="none" fill-rule="evenodd"/><path d="M3060.85 1652.63C3084 1660.26 3063.74 1693.83 3050.72 1715.19 3036.26 1738.08 3042.04 1748.76 3046.38 1768.59 3050.72 1793.01 3050.72 1806.74 3037.7 1814.37 3023.23 1822 3016 1805.22 3016 1780.8 3017.45 1754.86 3033.36 1731.97 3033.36 1715.19 3034.81 1698.41 3036.26 1645 3060.85 1652.63Z" fill="#9E087D" fill-rule="evenodd"/><path d="M3064 1660.57C3056.63 1656 3044.84 1657.52 3040.42 1683.45 3038.95 1698.7 3037.47 1709.38 3036 1717 3043.37 1695.65 3052.21 1659.05 3064 1660.57Z" fill="#DBBAD6" fill-rule="evenodd"/><path d="M3028.06 1755C3021 1774.86 3022.41 1806.94 3030.88 1808.47 3039.35 1810 3043.59 1802.36 3045 1796.25 3037.94 1803.89 3030.88 1800.83 3029.47 1787.08 3026.65 1771.81 3028.06 1755 3028.06 1755Z" fill="#DBBAD6" fill-rule="evenodd"/><path d="M3061.35 1653.13C3084.5 1660.76 3064.24 1694.33 3051.22 1715.69 3036.76 1738.58 3042.54 1749.26 3046.88 1769.09 3051.22 1793.51 3051.22 1807.24 3038.2 1814.87 3023.73 1822.5 3016.5 1805.72 3016.5 1781.3 3017.95 1755.36 3033.86 1732.47 3033.86 1715.69 3035.31 1698.91 3036.76 1645.5 3061.35 1653.13Z" stroke="#58585A" stroke-width="2.86476" stroke-linecap="round" stroke-linejoin="round" stroke-miterlimit="10" fill="none" fill-rule="evenodd"/></g></svg>