<svg width="2042" height="1891" xmlns="http://www.w3.org/2000/svg" xmlns:xlink="http://www.w3.org/1999/xlink" xml:space="preserve" overflow="hidden"><g transform="translate(-1191 -414)"><path d="M2381.23 595.73C2182.75 533 1927.91 661.073 1798.04 642.777 1408.43 593.116 1212.4 1060.97 1197.7 1249.16 1183 1419.05 1192.8 1528.83 1232.01 1664.74 1271.21 1803.27 1344.72 1928.73 1464.79 2020.21 1704.93 2203.17 2089.63 2080.33 2334.67 2216.24 2824.74 2475 3030.57 2109.08 3133.49 1832.02 3207 1633.38 3170.24 1400.76 3172.69 1340.64 3187.4 1094.95 2949.71 870.171 2790.44 799.6 2631.16 729.03 2579.71 658.459 2381.23 595.73Z" fill="#8290C3" fill-rule="evenodd"/><path d="M3228.65 1223.18C3236 1079.44 3223.75 933.081 3128.23 831.156 3057.2 757.979 2912.7 710.936 2846.57 682.188 2731.45 629.918 2731.45 564.581 2631.03 514.925 2594.29 496.631 2491.42 494.018 2437.54 478.337 2386.1 462.656 2312.62 413 2258.74 415.613 2182.81 420.84 2128.93 480.95 2057.9 496.631 1977.07 514.925 1937.88 467.883 1886.45 465.269 1712.55 460.042 1692.96 527.993 1626.83 559.354 1541.1 595.943 1487.22 679.574 1430.88 755.365 1411.29 778.886 1394.15 805.021 1377 831.156 1477.42 710.936 1617.03 622.078 1798.28 642.986 1928.09 661.28 2182.81 533.22 2381.2 595.943 2579.59 658.667 2631.03 729.23 2790.23 799.794 2949.44 870.358 3187.01 1095.12 3172.32 1340.78 3169.87 1400.89 3206.61 1633.49 3133.13 1832.12 3125.78 1850.41 3118.44 1868.71 3111.09 1887 3142.93 1829.5 3167.42 1769.39 3189.46 1714.51 3218.86 1636.11 3199.26 1555.09 3204.16 1479.3 3211.51 1361.69 3226.2 1259.77 3228.65 1223.18Z" fill="#BCC4DF" fill-rule="evenodd"/><path d="M3133.63 1832.62C3126.28 1850.91 3118.93 1869.21 3111.59 1887.5 3143.43 1830 3167.92 1769.89 3189.96 1715.01 3219.35 1636.61 3199.76 1555.59 3204.66 1479.8 3212.01 1362.19 3226.7 1260.27 3229.15 1223.68 3236.5 1079.94 3224.25 933.582 3128.73 831.656 3057.7 758.479 2913.2 711.436 2847.06 682.688 2731.95 630.418 2731.95 565.082 2631.53 515.426 2594.79 497.131 2491.92 494.518 2438.04 478.837 2386.6 463.156 2313.12 413.5 2259.24 416.113 2183.31 421.34 2129.43 481.45 2058.4 497.131 1977.57 515.426 1938.38 468.383 1886.95 465.77 1713.05 460.543 1693.46 528.493 1627.33 559.855 1541.6 596.443 1487.72 680.074 1431.38 755.865 1411.79 779.387 1394.64 805.521 1377.5 831.656" stroke="#333333" stroke-width="3.4375" stroke-linecap="round" stroke-linejoin="round" stroke-miterlimit="10" fill="none" fill-rule="evenodd"/><path d="M2006.33 653.512C2123.99 627.37 2258.81 596 2371.58 632.599 2371.58 632.599 2371.58 632.599 2371.58 632.599 2486.79 669.198 2550.52 705.796 2616.71 747.624 2663.28 776.38 2712.31 805.136 2778.5 833.892 2937.83 904.475 3153.55 1118.84 3138.84 1338.43 3138.84 1354.12 3138.84 1377.65 3141.29 1406.4 3146.19 1505.74 3156 1673.05 3102.07 1819.44 3016.27 2049.49 2910.87 2188.05 2778.5 2242.94 2658.38 2290 2516.2 2271.7 2351.96 2182.82 2231.85 2117.46 2082.32 2109.62 1937.69 2101.78 1775.9 2093.94 1606.76 2083.48 1484.19 1991.98 1381.24 1913.56 1305.25 1801.15 1266.03 1654.75 1231.71 1539.73 1217 1450.84 1231.71 1252.16 1241.51 1137.14 1319.96 914.932 1471.94 784.222 1567.54 700.568 1675.4 666.583 1793.06 679.654 1849.44 687.497 1922.98 671.812 2006.33 653.512Z" fill="#FAFDA8" fill-rule="evenodd"/><path d="M2160 1740.5C2160 1477.89 2359.91 1265 2606.5 1265 2853.1 1265 3053 1477.89 3053 1740.5 3053 2003.11 2853.1 2216 2606.5 2216 2359.91 2216 2160 2003.11 2160 1740.5Z" fill="#FAFDA8" fill-rule="evenodd"/><path d="M2170 1743C2170 1484.53 2366.55 1275 2609 1275 2851.45 1275 3048 1484.53 3048 1743 3048 2001.47 2851.45 2211 2609 2211 2366.55 2211 2170 2001.47 2170 1743Z" fill="#FAFDA9" fill-rule="evenodd"/><path d="M2180 1748.5C2180 1494.17 2373.19 1288 2611.5 1288 2849.81 1288 3043 1494.17 3043 1748.5 3043 2002.83 2849.81 2209 2611.5 2209 2373.19 2209 2180 2002.83 2180 1748.5Z" fill="#FAFDAA" fill-rule="evenodd"/><path d="M2188 1751C2188 1501.37 2377.61 1299 2611.5 1299 2845.39 1299 3035 1501.37 3035 1751 3035 2000.63 2845.39 2203 2611.5 2203 2377.61 2203 2188 2000.63 2188 1751Z" fill="#FAFDAB" fill-rule="evenodd"/><path d="M2197 1753.5C2197 1508.01 2383.7 1309 2614 1309 2844.3 1309 3031 1508.01 3031 1753.5 3031 1998.99 2844.3 2198 2614 2198 2383.7 2198 2197 1998.99 2197 1753.5Z" fill="#FAFDAC" fill-rule="evenodd"/><path d="M2207 1757.5C2207 1516.98 2389.67 1322 2615 1322 2840.33 1322 3023 1516.98 3023 1757.5 3023 1998.02 2840.33 2193 2615 2193 2389.67 2193 2207 1998.02 2207 1757.5Z" fill="#FAFDAD" fill-rule="evenodd"/><path d="M2215 1760.5C2215 1524.4 2394.76 1333 2616.5 1333 2838.24 1333 3018 1524.4 3018 1760.5 3018 1996.6 2838.24 2188 2616.5 2188 2394.76 2188 2215 1996.6 2215 1760.5Z" fill="#FAFDAE" fill-rule="evenodd"/><path d="M2224 1764.5C2224 1532.26 2400.18 1344 2617.5 1344 2834.82 1344 3011 1532.26 3011 1764.5 3011 1996.74 2834.82 2185 2617.5 2185 2400.18 2185 2224 1996.74 2224 1764.5Z" fill="#FAFDAF" fill-rule="evenodd"/><path d="M2232 1768.5C2232 1541.23 2405.27 1357 2619 1357 2832.73 1357 3006 1541.23 3006 1768.5 3006 1995.77 2832.73 2180 2619 2180 2405.27 2180 2232 1995.77 2232 1768.5Z" fill="#FAFDB0" fill-rule="evenodd"/><path d="M2242 1771C2242 1547.88 2411.24 1367 2620 1367 2828.76 1367 2998 1547.88 2998 1771 2998 1994.12 2828.76 2175 2620 2175 2411.24 2175 2242 1994.12 2242 1771Z" fill="#FBFDB1" fill-rule="evenodd"/><path d="M2252 1773.5C2252 1554.52 2418.1 1377 2623 1377 2827.9 1377 2994 1554.52 2994 1773.5 2994 1992.48 2827.9 2170 2623 2170 2418.1 2170 2252 1992.48 2252 1773.5Z" fill="#FBFDB2" fill-rule="evenodd"/><path d="M2259 1778C2259 1563.71 2421.74 1390 2622.5 1390 2823.26 1390 2986 1563.71 2986 1778 2986 1992.29 2823.26 2166 2622.5 2166 2421.74 2166 2259 1992.29 2259 1778Z" fill="#FBFDB3" fill-rule="evenodd"/><path d="M2269 1781.5C2269 1571.36 2428.61 1401 2625.5 1401 2822.39 1401 2982 1571.36 2982 1781.5 2982 1991.64 2822.39 2162 2625.5 2162 2428.61 2162 2269 1991.64 2269 1781.5Z" fill="#FBFDB4" fill-rule="evenodd"/><path d="M2279 1783.5C2279 1577.77 2434.58 1411 2626.5 1411 2818.42 1411 2974 1577.77 2974 1783.5 2974 1989.23 2818.42 2156 2626.5 2156 2434.58 2156 2279 1989.23 2279 1783.5Z" fill="#FBFDB5" fill-rule="evenodd"/><path d="M2285 1787.5C2285 1586.74 2438.12 1424 2627 1424 2815.88 1424 2969 1586.74 2969 1787.5 2969 1988.26 2815.88 2151 2627 2151 2438.12 2151 2285 1988.26 2285 1787.5Z" fill="#FBFDB6" fill-rule="evenodd"/><path d="M2295 1790.5C2295 1594.16 2444.31 1435 2628.5 1435 2812.69 1435 2962 1594.16 2962 1790.5 2962 1986.84 2812.69 2146 2628.5 2146 2444.31 2146 2295 1986.84 2295 1790.5Z" fill="#FBFDB7" fill-rule="evenodd"/><path d="M2303 1794C2303 1601.25 2449.4 1445 2630 1445 2810.6 1445 2957 1601.25 2957 1794 2957 1986.75 2810.6 2143 2630 2143 2449.4 2143 2303 1986.75 2303 1794Z" fill="#FBFDB8" fill-rule="evenodd"/><path d="M2312 1797C2312 1608.67 2454.6 1456 2630.5 1456 2806.4 1456 2949 1608.67 2949 1797 2949 1985.33 2806.4 2138 2630.5 2138 2454.6 2138 2312 1985.33 2312 1797Z" fill="#FBFDB9" fill-rule="evenodd"/><path d="M2322 1801C2322 1617.64 2461.46 1469 2633.5 1469 2805.54 1469 2945 1617.64 2945 1801 2945 1984.36 2805.54 2133 2633.5 2133 2461.46 2133 2322 1984.36 2322 1801Z" fill="#FBFDBA" fill-rule="evenodd"/><path d="M2330 1803C2330 1624.06 2466.55 1479 2635 1479 2803.45 1479 2940 1624.06 2940 1803 2940 1981.94 2803.45 2127 2635 2127 2466.55 2127 2330 1981.94 2330 1803Z" fill="#FBFDBB" fill-rule="evenodd"/><path d="M2339 1807C2339 1631.37 2471.75 1489 2635.5 1489 2799.25 1489 2932 1631.37 2932 1807 2932 1982.63 2799.25 2125 2635.5 2125 2471.75 2125 2339 1982.63 2339 1807Z" fill="#FBFDBC" fill-rule="evenodd"/><path d="M2349 1811C2349 1640.34 2478.61 1502 2638.5 1502 2798.39 1502 2928 1640.34 2928 1811 2928 1981.66 2798.39 2120 2638.5 2120 2478.61 2120 2349 1981.66 2349 1811Z" fill="#FBFDBD" fill-rule="evenodd"/><path d="M2357 1813.5C2357 1647.54 2483.03 1513 2638.5 1513 2793.97 1513 2920 1647.54 2920 1813.5 2920 1979.46 2793.97 2114 2638.5 2114 2483.03 2114 2357 1979.46 2357 1813.5Z" fill="#FBFDBE" fill-rule="evenodd"/><path d="M2367 1817C2367 1655.18 2489.9 1524 2641.5 1524 2793.1 1524 2916 1655.18 2916 1817 2916 1978.82 2793.1 2110 2641.5 2110 2489.9 2110 2367 1978.82 2367 1817Z" fill="#FBFDBF" fill-rule="evenodd"/><path d="M2374 1820.5C2374 1663.93 2493.54 1537 2641 1537 2788.46 1537 2908 1663.93 2908 1820.5 2908 1977.07 2788.46 2104 2641 2104 2493.54 2104 2374 1977.07 2374 1820.5Z" fill="#FBFDC0" fill-rule="evenodd"/><path d="M2384 1824C2384 1671.02 2500.18 1547 2643.5 1547 2786.82 1547 2903 1671.02 2903 1824 2903 1976.98 2786.82 2101 2643.5 2101 2500.18 2101 2384 1976.98 2384 1824Z" fill="#FCFEC0" fill-rule="evenodd"/><path d="M2394 1827.5C2394 1678.66 2506.38 1558 2645 1558 2783.62 1558 2896 1678.66 2896 1827.5 2896 1976.34 2783.62 2097 2645 2097 2506.38 2097 2394 1976.34 2394 1827.5Z" fill="#FCFEC1" fill-rule="evenodd"/><path d="M2401 1831C2401 1687.41 2510.69 1571 2646 1571 2781.31 1571 2891 1687.41 2891 1831 2891 1974.59 2781.31 2091 2646 2091 2510.69 2091 2401 1974.59 2401 1831Z" fill="#FCFEC2" fill-rule="evenodd"/><path d="M2411 1834C2411 1694.82 2516.66 1582 2647 1582 2777.34 1582 2883 1694.82 2883 1834 2883 1973.18 2777.34 2086 2647 2086 2516.66 2086 2411 1973.18 2411 1834Z" fill="#FCFEC3" fill-rule="evenodd"/><path d="M2418 1837.5C2418 1701.91 2521.2 1592 2648.5 1592 2775.8 1592 2879 1701.91 2879 1837.5 2879 1973.09 2775.8 2083 2648.5 2083 2521.2 2083 2418 1973.09 2418 1837.5Z" fill="#FCFEC4" fill-rule="evenodd"/><path d="M2427 1841.5C2427 1710.88 2526.39 1605 2649 1605 2771.61 1605 2871 1710.88 2871 1841.5 2871 1972.12 2771.61 2078 2649 2078 2526.39 2078 2427 1972.12 2427 1841.5Z" fill="#FCFEC5" fill-rule="evenodd"/><path d="M2437 1844C2437 1717.53 2533.03 1615 2651.5 1615 2769.96 1615 2866 1717.53 2866 1844 2866 1970.47 2769.96 2073 2651.5 2073 2533.03 2073 2437 1970.47 2437 1844Z" fill="#FCFEC6" fill-rule="evenodd"/><path d="M2445 1846C2445 1723.94 2537.68 1625 2652 1625 2766.32 1625 2859 1723.94 2859 1846 2859 1968.05 2766.32 2067 2652 2067 2537.68 2067 2445 1968.05 2445 1846Z" fill="#FCFEC7" fill-rule="evenodd"/><path d="M2455 1850C2455 1732.92 2544.32 1638 2654.5 1638 2764.68 1638 2854 1732.92 2854 1850 2854 1967.08 2764.68 2062 2654.5 2062 2544.32 2062 2455 1967.08 2455 1850Z" fill="#FCFEC8" fill-rule="evenodd"/><path d="M2464 1854.5C2464 1741.01 2549.74 1649 2655.5 1649 2761.26 1649 2847 1741.01 2847 1854.5 2847 1967.99 2761.26 2060 2655.5 2060 2549.74 2060 2464 1967.99 2464 1854.5Z" fill="#FCFEC9" fill-rule="evenodd"/><path d="M2472 1857C2472 1748.2 2554.83 1660 2657 1660 2759.17 1660 2842 1748.2 2842 1857 2842 1965.8 2759.17 2054 2657 2054 2554.83 2054 2472 1965.8 2472 1857Z" fill="#FCFECA" fill-rule="evenodd"/><path d="M2482 1859.5C2482 1754.84 2561.47 1670 2659.5 1670 2757.53 1670 2837 1754.84 2837 1859.5 2837 1964.16 2757.53 2049 2659.5 2049 2561.47 2049 2482 1964.16 2482 1859.5Z" fill="#FCFECB" fill-rule="evenodd"/><path d="M2489 1863.5C2489 1763.81 2565.34 1683 2659.5 1683 2753.66 1683 2830 1763.81 2830 1863.5 2830 1963.19 2753.66 2044 2659.5 2044 2565.34 2044 2489 1963.19 2489 1863.5Z" fill="#FCFECC" fill-rule="evenodd"/><path d="M2499 1867.5C2499 1771.68 2571.98 1694 2662 1694 2752.02 1694 2825 1771.68 2825 1867.5 2825 1963.32 2752.02 2041 2662 2041 2571.98 2041 2499 1963.32 2499 1867.5Z" fill="#FCFECD" fill-rule="evenodd"/><path d="M2509 1870C2509 1778.32 2577.95 1704 2663 1704 2748.05 1704 2817 1778.32 2817 1870 2817 1961.68 2748.05 2036 2663 2036 2577.95 2036 2509 1961.68 2509 1870Z" fill="#FCFECE" fill-rule="evenodd"/><path d="M2516 1874C2516 1787.29 2582.49 1717 2664.5 1717 2746.51 1717 2813 1787.29 2813 1874 2813 1960.71 2746.51 2031 2664.5 2031 2582.49 2031 2516 1960.71 2516 1874Z" fill="#FCFECF" fill-rule="evenodd"/><path d="M2526 1876.5C2526 1793.93 2588.46 1727 2665.5 1727 2742.54 1727 2805 1793.93 2805 1876.5 2805 1959.07 2742.54 2026 2665.5 2026 2588.46 2026 2526 1959.07 2526 1876.5Z" fill="#FDFED0" fill-rule="evenodd"/><path d="M2536 1880.5C2536 1801.8 2595.1 1738 2668 1738 2740.9 1738 2800 1801.8 2800 1880.5 2800 1959.2 2740.9 2023 2668 2023 2595.1 2023 2536 1959.2 2536 1880.5Z" fill="#FDFED1" fill-rule="evenodd"/><path d="M2543 1884.5C2543 1810.77 2598.96 1751 2668 1751 2737.04 1751 2793 1810.77 2793 1884.5 2793 1958.23 2737.04 2018 2668 2018 2598.96 2018 2543 1958.23 2543 1884.5Z" fill="#FDFED2" fill-rule="evenodd"/><path d="M2553 1887.5C2553 1818.19 2605.61 1762 2670.5 1762 2735.39 1762 2788 1818.19 2788 1887.5 2788 1956.81 2735.39 2013 2670.5 2013 2605.61 2013 2553 1956.81 2553 1887.5Z" fill="#FDFED3" fill-rule="evenodd"/><path d="M2560 1890C2560 1824.83 2609.25 1772 2670 1772 2730.75 1772 2780 1824.83 2780 1890 2780 1955.17 2730.75 2008 2670 2008 2609.25 2008 2560 1955.17 2560 1890Z" fill="#FDFED4" fill-rule="evenodd"/><path d="M2570 1893.5C2570 1833.58 2616.11 1785 2673 1785 2729.89 1785 2776 1833.58 2776 1893.5 2776 1953.42 2729.89 2002 2673 2002 2616.11 2002 2570 1953.42 2570 1893.5Z" fill="#FDFED5" fill-rule="evenodd"/><path d="M2579 1898C2579 1841.67 2621.31 1796 2673.5 1796 2725.69 1796 2768 1841.67 2768 1898 2768 1954.33 2725.69 2000 2673.5 2000 2621.31 2000 2579 1954.33 2579 1898Z" fill="#FDFED6" fill-rule="evenodd"/><path d="M2587 1900C2587 1848.09 2626.62 1806 2675.5 1806 2724.38 1806 2764 1848.09 2764 1900 2764 1951.91 2724.38 1994 2675.5 1994 2626.62 1994 2587 1951.91 2587 1900Z" fill="#FDFED7" fill-rule="evenodd"/><path d="M2597 1904C2597 1857.06 2632.59 1819 2676.5 1819 2720.41 1819 2756 1857.06 2756 1904 2756 1950.94 2720.41 1989 2676.5 1989 2632.59 1989 2597 1950.94 2597 1904Z" fill="#FDFED8" fill-rule="evenodd"/><path d="M1617.5 564.5C1641.96 551.5 1678.64 541.1 1707.99 541.1 1732.45 538.5 1756.9 541.1 1778.91 543.7 1803.37 543.7 1820.49 530.7 1842.5 525.5" stroke="#333333" stroke-width="3.4375" stroke-linecap="round" stroke-linejoin="round" stroke-miterlimit="10" fill="none" fill-rule="evenodd"/><path d="M2001.5 528.5C2021.08 525.812 2035.76 512.375 2055.34 504.312 2067.58 498.937 2079.82 490.875 2094.5 485.5" stroke="#333333" stroke-width="3.4375" stroke-linecap="round" stroke-linejoin="round" stroke-miterlimit="10" fill="none" fill-rule="evenodd"/><path d="M2355.5 472.5C2367.66 475.25 2374.95 478 2387.11 478 2399.27 478 2411.43 478 2423.59 480.75 2435.75 480.75 2447.91 483.5 2462.5 483.5" stroke="#333333" stroke-width="3.4375" stroke-linecap="round" stroke-linejoin="round" stroke-miterlimit="10" fill="none" fill-rule="evenodd"/><path d="M2751.5 617.5C2800.59 677.623 2861.95 735.132 2913.5 766.5" stroke="#333333" stroke-width="3.4375" stroke-linecap="round" stroke-linejoin="round" stroke-miterlimit="10" fill="none" fill-rule="evenodd"/><path d="M3197.5 1361.5C3197.5 1390.31 3202.83 1484.6 3205.5 1526.5" stroke="#333333" stroke-width="3.4375" stroke-linecap="round" stroke-linejoin="round" stroke-miterlimit="10" fill="none" fill-rule="evenodd"/><path d="M1842.5 530.717C1840.07 528.152 1820.6 502.5 1823.03 520.457 1825.47 528.152 1835.2 533.283 1832.77 538.413 1832.77 546.109 1825.47 546.109 1820.6 543.543 1806 538.413 1801.13 512.761 1786.53 520.457 1769.5 528.152 1784.1 548.674 1784.1 561.5" stroke="#BCC4DF" stroke-width="6.875" stroke-miterlimit="8" fill="none" fill-rule="evenodd"/><path d="M2001.5 520.167C2004 528.167 2016.5 541.5 2024 533.5 2031.5 528.167 2019 512.167 2014 509.5" stroke="#BCC4DF" stroke-width="6.875" stroke-miterlimit="8" fill="none" fill-rule="evenodd"/><path d="M2362.33 468.5C2367.17 476.3 2357.5 491.9 2369.58 491.9 2381.67 494.5 2386.5 481.5 2384.08 471.1" stroke="#BCC4DF" stroke-width="6.875" stroke-miterlimit="8" fill="none" fill-rule="evenodd"/><path d="M2910.5 753.036C2910.5 760.857 2888.78 776.5 2881.53 771.286 2883.95 758.25 2891.19 747.822 2896.02 734.786 2888.78 745.214 2859.81 768.679 2847.74 758.25 2840.5 750.429 2847.74 711.322 2854.98 703.5" stroke="#BCC4DF" stroke-width="6.875" stroke-miterlimit="8" fill="none" fill-rule="evenodd"/><path d="M3202.5 1370.5C3197.7 1370.5 3190.5 1375.7 3190.5 1383.5 3190.5 1388.7 3197.7 1396.5 3202.5 1393.9" stroke="#BCC4DF" stroke-width="6.875" stroke-miterlimit="8" fill="none" fill-rule="evenodd"/><path d="M2425 493.25C2454.47 493.25 2623.89 509 2673 551 2643.53 540.5 2596.88 527.375 2564.96 524.75 2530.58 519.5 2437.28 488 2425 493.25Z" fill="#EAECF4" fill-rule="evenodd"/><path d="M1509 674C1528.64 645.304 1550.73 619.217 1580.18 600.957 1594.91 587.913 1614.55 580.087 1631.73 572.261 1651.36 561.826 1678.36 561.826 1698 554 1656.27 559.218 1624.36 585.304 1590 608.783 1572.82 621.826 1538.45 634.87 1526.18 655.739" fill="#EAECF4" fill-rule="evenodd"/><path d="M1702 517.353C1731.51 504.118 1761.03 488.235 1793 482.941 1822.51 477.647 1854.49 477.647 1884 477.647 1859.41 475 1822.51 482.941 1797.92 496.177 1790.54 498.824 1785.62 504.118 1775.78 506.765 1761.03 512.059 1719.22 506.765 1704.46 520" fill="#EAECF4" fill-rule="evenodd"/><path d="M2094 507C2108.73 488.676 2135.73 478.206 2155.36 467.735 2175 457.265 2194.64 446.794 2214.27 438.941 2241.27 425.853 2285.45 418 2310 436.324 2270.73 433.706 2246.18 428.471 2211.82 446.794 2194.64 454.647 2167.64 483.441 2148 488.676 2130.82 491.294 2111.18 499.147 2094 504.382" fill="#EAECF4" fill-rule="evenodd"/><path d="M2932 734C2978.8 749.782 3094.59 799.761 3134 855" fill="#EAECF4" fill-rule="evenodd"/><path d="M2795 658C2814.54 684.154 2887.81 746.923 2907.35 760 2887.81 744.308 2904.9 718.154 2922 720.769 2897.58 712.923 2809.65 673.692 2795 658Z" fill="#95A5CE" fill-rule="evenodd"/><path d="M3193 961C3209.69 995.062 3224 1115.59 3219.23 1217.77 3212.08 1319.96 3202.54 1411.66 3202.54 1430 3204.92 1406.42 3202.54 1259.69 3204.92 1220.39 3209.69 1181.09 3216.85 1052.7 3193 961Z" fill="#95A5CE" fill-rule="evenodd"/><path d="M3197 1537C3199.5 1570.84 3212 1648.92 3177 1727" fill="#95A5CE" fill-rule="evenodd"/><path d="M2635.9 690.425C2665.31 713.883 2753.55 750.372 2785.41 768.617 2812.37 784.255 2836.88 799.894 2863.84 812.926 2888.35 828.564 2917.76 838.989 2939.82 859.84 2959.43 878.085 2993.75 898.936 3006 925 2993.75 914.575 2986.39 898.936 2976.59 885.904 2966.78 872.872 2954.53 862.447 2947.18 846.809 2939.82 833.777 2939.82 815.532 2927.57 810.319 2917.76 802.5 2900.61 805.106 2888.35 797.287 2866.29 786.862 2849.14 768.617 2829.53 755.585 2809.92 745.16 2787.86 737.34 2765.8 732.128 2748.65 729.521 2724.14 716.489 2709.43 713.883 2677.57 711.277 2655.51 700.851 2631 680" fill="#95A5CE" fill-rule="evenodd"/><path d="M1790.19 611.111C1829.49 619 1844.23 616.37 1883.53 613.741 1910.54 613.741 1962.12 597.963 1989.14 595.333 2006.33 592.704 2038.26 590.074 2053 579.556 2021.07 582.185 1991.6 587.444 1959.67 587.444 1947.39 590.074 1930.19 595.333 1917.91 587.444 1905.63 579.556 1910.54 566.407 1903.18 558.518 1893.35 548 1854.05 553.259 1839.32 555.889 1817.21 555.889 1792.65 553.259 1773 558.518 1795.11 566.407 1834.4 563.778 1854.05 582.185 1876.16 605.852 1836.86 605.852 1824.58 613.741" fill="#95A5CE" fill-rule="evenodd"/><path d="M1922.52 485C1934.73 492.923 1946.94 498.205 1961.6 503.487 1976.25 508.769 1993.35 508.769 2008 514.051 1976.25 527.256 1956.71 529.898 1937.17 561.59 1927.4 574.795 1922.52 588 1905.42 588 1883.44 588 1885.88 572.154 1881 553.667 1900.54 551.026 1917.63 543.103 1934.73 532.539 1964.04 514.051 1942.06 506.128 1927.4 487.641" fill="#95A5CE" fill-rule="evenodd"/><path d="M3163.67 1173.58C3175.75 1186.65 3173.33 1204.94 3178.17 1223.23 3180.58 1241.52 3185.42 1257.19 3187.83 1275.48 3195.08 1309.45 3197.5 1346.03 3204.75 1380 3209.58 1366.94 3207.17 1346.03 3207.17 1330.35 3207.17 1309.45 3209.58 1291.16 3209.58 1270.26 3209.58 1236.29 3212 1202.32 3212 1170.97 3207.17 1184.03 3207.17 1202.32 3197.5 1215.39 3190.25 1210.16 3192.67 1202.32 3187.83 1194.48 3183 1186.65 3178.17 1184.03 3173.33 1178.81 3161.25 1165.74 3166.08 1147.45 3154 1137" fill="#95A5CE" fill-rule="evenodd"/><path d="M3050 1827C3032.85 1897.62 2831.93 2303 2533 2201 2611.41 2208.85 2822.13 2221.92 3050 1827Z" fill="#FFFFFF" fill-rule="evenodd"/><path d="M2777.81 833.78C2711.66 805.037 2662.65 776.295 2616.1 747.552 2549.94 705.745 2486.23 669.163 2371.07 632.582 2258.36 596 2123.59 627.356 2005.98 653.485 1922.67 671.776 1849.17 687.454 1792.81 679.615 1675.2 666.55 1567.39 700.519 1471.83 784.134 1319.91 914.782 1241.5 1136.88 1231.7 1251.85 1217 1450.44 1231.7 1539.28 1266.01 1654.25 1295.41 1764 1344.41 1852.84 1413.02 1926 1371.37 1837.16 1324.81 1669.93 1317.46 1617.67 1288.06 1382.5 1327.26 1325.02 1386.07 1160.4 1408.12 1102.92 1422.82 1037.59 1464.48 993.171 1511.03 940.912 1567.39 906.943 1626.19 875.587 1724.2 825.941 1829.56 818.102 1934.92 812.876 2005.98 810.263 2064.79 776.295 2135.85 771.069 2211.8 768.456 2304.91 773.682 2375.97 802.424 2444.58 828.554 2510.73 791.973 2581.79 815.489 2662.65 844.232 2723.91 867.749 2794.96 922.621 2848.87 967.041 2900.33 1001.01 2961.58 1034.98 3042.44 1079.4 3079.19 1233.56 3138 1304.11 3130.65 1097.69 2929.73 901.717 2777.81 833.78Z" fill="#F9F390" fill-rule="evenodd"/><path d="M2371 595.5C2371 588.044 2376.6 582 2383.5 582 2390.4 582 2396 588.044 2396 595.5 2396 602.956 2390.4 609 2383.5 609 2376.6 609 2371 602.956 2371 595.5Z" fill="#FFFA8E" fill-rule="evenodd"/><path d="M2371 595.5C2371 588.044 2376.6 582 2383.5 582 2390.4 582 2396 588.044 2396 595.5 2396 602.956 2390.4 609 2383.5 609 2376.6 609 2371 602.956 2371 595.5Z" stroke="#333333" stroke-width="1.71893" stroke-linecap="round" stroke-linejoin="round" stroke-miterlimit="10" fill="none" fill-rule="evenodd"/><path d="M2406 609C2406 601.82 2411.6 596 2418.5 596 2425.4 596 2431 601.82 2431 609 2431 616.18 2425.4 622 2418.5 622 2411.6 622 2406 616.18 2406 609Z" fill="#FFFA8E" fill-rule="evenodd"/><path d="M2406 609C2406 601.82 2411.6 596 2418.5 596 2425.4 596 2431 601.82 2431 609 2431 616.18 2425.4 622 2418.5 622 2411.6 622 2406 616.18 2406 609Z" stroke="#333333" stroke-width="1.71893" stroke-linecap="round" stroke-linejoin="round" stroke-miterlimit="10" fill="none" fill-rule="evenodd"/><path d="M2435 619C2435 611.82 2440.6 606 2447.5 606 2454.4 606 2460 611.82 2460 619 2460 626.18 2454.4 632 2447.5 632 2440.6 632 2435 626.18 2435 619Z" fill="#FFFA8E" fill-rule="evenodd"/><path d="M2435 619C2435 611.82 2440.6 606 2447.5 606 2454.4 606 2460 611.82 2460 619 2460 626.18 2454.4 632 2447.5 632 2440.6 632 2435 626.18 2435 619Z" stroke="#333333" stroke-width="1.71893" stroke-linecap="round" stroke-linejoin="round" stroke-miterlimit="10" fill="none" fill-rule="evenodd"/><path d="M2464 632C2464 624.82 2469.6 619 2476.5 619 2483.4 619 2489 624.82 2489 632 2489 639.18 2483.4 645 2476.5 645 2469.6 645 2464 639.18 2464 632Z" fill="#FFFA8E" fill-rule="evenodd"/><path d="M2464 632C2464 624.82 2469.6 619 2476.5 619 2483.4 619 2489 624.82 2489 632 2489 639.18 2483.4 645 2476.5 645 2469.6 645 2464 639.18 2464 632Z" stroke="#333333" stroke-width="1.71893" stroke-linecap="round" stroke-linejoin="round" stroke-miterlimit="10" fill="none" fill-rule="evenodd"/><path d="M2494 644C2494 636.268 2499.6 630 2506.5 630 2513.4 630 2519 636.268 2519 644 2519 651.732 2513.4 658 2506.5 658 2499.6 658 2494 651.732 2494 644Z" fill="#FFFA8E" fill-rule="evenodd"/><path d="M2494 644C2494 636.268 2499.6 630 2506.5 630 2513.4 630 2519 636.268 2519 644 2519 651.732 2513.4 658 2506.5 658 2499.6 658 2494 651.732 2494 644Z" stroke="#333333" stroke-width="1.71893" stroke-linecap="round" stroke-linejoin="round" stroke-miterlimit="10" fill="none" fill-rule="evenodd"/><path d="M2521 658C2521 650.82 2526.6 645 2533.5 645 2540.4 645 2546 650.82 2546 658 2546 665.18 2540.4 671 2533.5 671 2526.6 671 2521 665.18 2521 658Z" fill="#FFFA8E" fill-rule="evenodd"/><path d="M2521 658C2521 650.82 2526.6 645 2533.5 645 2540.4 645 2546 650.82 2546 658 2546 665.18 2540.4 671 2533.5 671 2526.6 671 2521 665.18 2521 658Z" stroke="#333333" stroke-width="1.71893" stroke-linecap="round" stroke-linejoin="round" stroke-miterlimit="10" fill="none" fill-rule="evenodd"/><path d="M2550 674C2550 666.82 2555.6 661 2562.5 661 2569.4 661 2575 666.82 2575 674 2575 681.18 2569.4 687 2562.5 687 2555.6 687 2550 681.18 2550 674Z" fill="#FFFA8E" fill-rule="evenodd"/><path d="M2550 674C2550 666.82 2555.6 661 2562.5 661 2569.4 661 2575 666.82 2575 674 2575 681.18 2569.4 687 2562.5 687 2555.6 687 2550 681.18 2550 674Z" stroke="#333333" stroke-width="1.71893" stroke-linecap="round" stroke-linejoin="round" stroke-miterlimit="10" fill="none" fill-rule="evenodd"/><path d="M2577 690C2577 682.82 2582.6 677 2589.5 677 2596.4 677 2602 682.82 2602 690 2602 697.18 2596.4 703 2589.5 703 2582.6 703 2577 697.18 2577 690Z" fill="#FFFA8E" fill-rule="evenodd"/><path d="M2577 690C2577 682.82 2582.6 677 2589.5 677 2596.4 677 2602 682.82 2602 690 2602 697.18 2596.4 703 2589.5 703 2582.6 703 2577 697.18 2577 690Z" stroke="#333333" stroke-width="1.71893" stroke-linecap="round" stroke-linejoin="round" stroke-miterlimit="10" fill="none" fill-rule="evenodd"/><path d="M2604 706C2604 698.82 2609.6 693 2616.5 693 2623.4 693 2629 698.82 2629 706 2629 713.18 2623.4 719 2616.5 719 2609.6 719 2604 713.18 2604 706Z" fill="#FFFA8E" fill-rule="evenodd"/><path d="M2604 706C2604 698.82 2609.6 693 2616.5 693 2623.4 693 2629 698.82 2629 706 2629 713.18 2623.4 719 2616.5 719 2609.6 719 2604 713.18 2604 706Z" stroke="#333333" stroke-width="1.71893" stroke-linecap="round" stroke-linejoin="round" stroke-miterlimit="10" fill="none" fill-rule="evenodd"/><path d="M2634 721C2634 713.82 2639.37 708 2646 708 2652.63 708 2658 713.82 2658 721 2658 728.18 2652.63 734 2646 734 2639.37 734 2634 728.18 2634 721Z" fill="#FFFA8E" fill-rule="evenodd"/><path d="M2634 721C2634 713.82 2639.37 708 2646 708 2652.63 708 2658 713.82 2658 721 2658 728.18 2652.63 734 2646 734 2639.37 734 2634 728.18 2634 721Z" stroke="#333333" stroke-width="1.71893" stroke-linecap="round" stroke-linejoin="round" stroke-miterlimit="10" fill="none" fill-rule="evenodd"/><path d="M2661 736C2661 728.82 2666.37 723 2673 723 2679.63 723 2685 728.82 2685 736 2685 743.18 2679.63 749 2673 749 2666.37 749 2661 743.18 2661 736Z" fill="#FFFA8E" fill-rule="evenodd"/><path d="M2661 736C2661 728.82 2666.37 723 2673 723 2679.63 723 2685 728.82 2685 736 2685 743.18 2679.63 749 2673 749 2666.37 749 2661 743.18 2661 736Z" stroke="#333333" stroke-width="1.71893" stroke-linecap="round" stroke-linejoin="round" stroke-miterlimit="10" fill="none" fill-rule="evenodd"/><path d="M2690 752.5C2690 745.044 2695.37 739 2702 739 2708.63 739 2714 745.044 2714 752.5 2714 759.956 2708.63 766 2702 766 2695.37 766 2690 759.956 2690 752.5Z" fill="#FFFA8E" fill-rule="evenodd"/><path d="M2690 752.5C2690 745.044 2695.37 739 2702 739 2708.63 739 2714 745.044 2714 752.5 2714 759.956 2708.63 766 2702 766 2695.37 766 2690 759.956 2690 752.5Z" stroke="#333333" stroke-width="1.71893" stroke-linecap="round" stroke-linejoin="round" stroke-miterlimit="10" fill="none" fill-rule="evenodd"/><path d="M2717 768C2717 760.82 2722.37 755 2729 755 2735.63 755 2741 760.82 2741 768 2741 775.18 2735.63 781 2729 781 2722.37 781 2717 775.18 2717 768Z" fill="#FFFA8E" fill-rule="evenodd"/><path d="M2717 768C2717 760.82 2722.37 755 2729 755 2735.63 755 2741 760.82 2741 768 2741 775.18 2735.63 781 2729 781 2722.37 781 2717 775.18 2717 768Z" stroke="#333333" stroke-width="1.71893" stroke-linecap="round" stroke-linejoin="round" stroke-miterlimit="10" fill="none" fill-rule="evenodd"/><path d="M2746 782.5C2746 774.492 2751.6 768 2758.5 768 2765.4 768 2771 774.492 2771 782.5 2771 790.508 2765.4 797 2758.5 797 2751.6 797 2746 790.508 2746 782.5Z" fill="#FFFA8E" fill-rule="evenodd"/><path d="M2746 782.5C2746 774.492 2751.6 768 2758.5 768 2765.4 768 2771 774.492 2771 782.5 2771 790.508 2765.4 797 2758.5 797 2751.6 797 2746 790.508 2746 782.5Z" stroke="#333333" stroke-width="1.71893" stroke-linecap="round" stroke-linejoin="round" stroke-miterlimit="10" fill="none" fill-rule="evenodd"/><path d="M2774 797C2774 789.82 2779.37 784 2786 784 2792.63 784 2798 789.82 2798 797 2798 804.18 2792.63 810 2786 810 2779.37 810 2774 804.18 2774 797Z" fill="#FFFA8E" fill-rule="evenodd"/><path d="M2774 797C2774 789.82 2779.37 784 2786 784 2792.63 784 2798 789.82 2798 797 2798 804.18 2792.63 810 2786 810 2779.37 810 2774 804.18 2774 797Z" stroke="#333333" stroke-width="1.71893" stroke-linecap="round" stroke-linejoin="round" stroke-miterlimit="10" fill="none" fill-rule="evenodd"/><path d="M2800 815.5C2800 808.044 2805.6 802 2812.5 802 2819.4 802 2825 808.044 2825 815.5 2825 822.956 2819.4 829 2812.5 829 2805.6 829 2800 822.956 2800 815.5Z" fill="#FFFA8E" fill-rule="evenodd"/><path d="M2800 815.5C2800 808.044 2805.6 802 2812.5 802 2819.4 802 2825 808.044 2825 815.5 2825 822.956 2819.4 829 2812.5 829 2805.6 829 2800 822.956 2800 815.5Z" stroke="#333333" stroke-width="1.71893" stroke-linecap="round" stroke-linejoin="round" stroke-miterlimit="10" fill="none" fill-rule="evenodd"/><path d="M2832 828.5C2832 821.044 2837.37 815 2844 815 2850.63 815 2856 821.044 2856 828.5 2856 835.956 2850.63 842 2844 842 2837.37 842 2832 835.956 2832 828.5Z" fill="#FFFA8E" fill-rule="evenodd"/><path d="M2832 828.5C2832 821.044 2837.37 815 2844 815 2850.63 815 2856 821.044 2856 828.5 2856 835.956 2850.63 842 2844 842 2837.37 842 2832 835.956 2832 828.5Z" stroke="#333333" stroke-width="1.71893" stroke-linecap="round" stroke-linejoin="round" stroke-miterlimit="10" fill="none" fill-rule="evenodd"/><path d="M2859 844C2859 836.82 2864.37 831 2871 831 2877.63 831 2883 836.82 2883 844 2883 851.18 2877.63 857 2871 857 2864.37 857 2859 851.18 2859 844Z" fill="#FFFA8E" fill-rule="evenodd"/><path d="M2859 844C2859 836.82 2864.37 831 2871 831 2877.63 831 2883 836.82 2883 844 2883 851.18 2877.63 857 2871 857 2864.37 857 2859 851.18 2859 844Z" stroke="#333333" stroke-width="1.71893" stroke-linecap="round" stroke-linejoin="round" stroke-miterlimit="10" fill="none" fill-rule="evenodd"/><path d="M2883 865C2883 857.82 2888.6 852 2895.5 852 2902.4 852 2908 857.82 2908 865 2908 872.18 2902.4 878 2895.5 878 2888.6 878 2883 872.18 2883 865Z" fill="#FFFA8E" fill-rule="evenodd"/><path d="M2883 865C2883 857.82 2888.6 852 2895.5 852 2902.4 852 2908 857.82 2908 865 2908 872.18 2902.4 878 2895.5 878 2888.6 878 2883 872.18 2883 865Z" stroke="#333333" stroke-width="1.71893" stroke-linecap="round" stroke-linejoin="round" stroke-miterlimit="10" fill="none" fill-rule="evenodd"/><path d="M2910 881C2910 873.82 2915.6 868 2922.5 868 2929.4 868 2935 873.82 2935 881 2935 888.18 2929.4 894 2922.5 894 2915.6 894 2910 888.18 2910 881Z" fill="#FFFA8E" fill-rule="evenodd"/><path d="M2910 881C2910 873.82 2915.6 868 2922.5 868 2929.4 868 2935 873.82 2935 881 2935 888.18 2929.4 894 2922.5 894 2915.6 894 2910 888.18 2910 881Z" stroke="#333333" stroke-width="1.71893" stroke-linecap="round" stroke-linejoin="round" stroke-miterlimit="10" fill="none" fill-rule="evenodd"/><path d="M2935 901.5C2935 894.044 2940.37 888 2947 888 2953.63 888 2959 894.044 2959 901.5 2959 908.956 2953.63 915 2947 915 2940.37 915 2935 908.956 2935 901.5Z" fill="#FFFA8E" fill-rule="evenodd"/><path d="M2935 901.5C2935 894.044 2940.37 888 2947 888 2953.63 888 2959 894.044 2959 901.5 2959 908.956 2953.63 915 2947 915 2940.37 915 2935 908.956 2935 901.5Z" stroke="#333333" stroke-width="1.71893" stroke-linecap="round" stroke-linejoin="round" stroke-miterlimit="10" fill="none" fill-rule="evenodd"/><path d="M2959 922C2959 914.82 2964.6 909 2971.5 909 2978.4 909 2984 914.82 2984 922 2984 929.18 2978.4 935 2971.5 935 2964.6 935 2959 929.18 2959 922Z" fill="#FFFA8E" fill-rule="evenodd"/><path d="M2959 922C2959 914.82 2964.6 909 2971.5 909 2978.4 909 2984 914.82 2984 922 2984 929.18 2978.4 935 2971.5 935 2964.6 935 2959 929.18 2959 922Z" stroke="#333333" stroke-width="1.71893" stroke-linecap="round" stroke-linejoin="round" stroke-miterlimit="10" fill="none" fill-rule="evenodd"/><path d="M2982 946C2982 938.82 2987.37 933 2994 933 3000.63 933 3006 938.82 3006 946 3006 953.18 3000.63 959 2994 959 2987.37 959 2982 953.18 2982 946Z" fill="#FFFA8E" fill-rule="evenodd"/><path d="M2982 946C2982 938.82 2987.37 933 2994 933 3000.63 933 3006 938.82 3006 946 3006 953.18 3000.63 959 2994 959 2987.37 959 2982 953.18 2982 946Z" stroke="#333333" stroke-width="1.71893" stroke-linecap="round" stroke-linejoin="round" stroke-miterlimit="10" fill="none" fill-rule="evenodd"/><path d="M3006 970C3006 962.82 3011.6 957 3018.5 957 3025.4 957 3031 962.82 3031 970 3031 977.18 3025.4 983 3018.5 983 3011.6 983 3006 977.18 3006 970Z" fill="#FFFA8E" fill-rule="evenodd"/><path d="M3006 970C3006 962.82 3011.6 957 3018.5 957 3025.4 957 3031 962.82 3031 970 3031 977.18 3025.4 983 3018.5 983 3011.6 983 3006 977.18 3006 970Z" stroke="#333333" stroke-width="1.71893" stroke-linecap="round" stroke-linejoin="round" stroke-miterlimit="10" fill="none" fill-rule="evenodd"/><path d="M3025 996C3025 988.82 3030.6 983 3037.5 983 3044.4 983 3050 988.82 3050 996 3050 1003.18 3044.4 1009 3037.5 1009 3030.6 1009 3025 1003.18 3025 996Z" fill="#FFFA8E" fill-rule="evenodd"/><path d="M3025 996C3025 988.82 3030.6 983 3037.5 983 3044.4 983 3050 988.82 3050 996 3050 1003.18 3044.4 1009 3037.5 1009 3030.6 1009 3025 1003.18 3025 996Z" stroke="#333333" stroke-width="1.71893" stroke-linecap="round" stroke-linejoin="round" stroke-miterlimit="10" fill="none" fill-rule="evenodd"/><path d="M3045 1022C3045 1014.82 3050.6 1009 3057.5 1009 3064.4 1009 3070 1014.82 3070 1022 3070 1029.18 3064.4 1035 3057.5 1035 3050.6 1035 3045 1029.18 3045 1022Z" fill="#FFFA8E" fill-rule="evenodd"/><path d="M3045 1022C3045 1014.82 3050.6 1009 3057.5 1009 3064.4 1009 3070 1014.82 3070 1022 3070 1029.18 3064.4 1035 3057.5 1035 3050.6 1035 3045 1029.18 3045 1022Z" stroke="#333333" stroke-width="1.71893" stroke-linecap="round" stroke-linejoin="round" stroke-miterlimit="10" fill="none" fill-rule="evenodd"/><path d="M3065 1048C3065 1040.82 3070.37 1035 3077 1035 3083.63 1035 3089 1040.82 3089 1048 3089 1055.18 3083.63 1061 3077 1061 3070.37 1061 3065 1055.18 3065 1048Z" fill="#FFFA8E" fill-rule="evenodd"/><path d="M3065 1048C3065 1040.82 3070.37 1035 3077 1035 3083.63 1035 3089 1040.82 3089 1048 3089 1055.18 3083.63 1061 3077 1061 3070.37 1061 3065 1055.18 3065 1048Z" stroke="#333333" stroke-width="1.71893" stroke-linecap="round" stroke-linejoin="round" stroke-miterlimit="10" fill="none" fill-rule="evenodd"/><path d="M3082 1076.5C3082 1069.04 3087.6 1063 3094.5 1063 3101.4 1063 3107 1069.04 3107 1076.5 3107 1083.96 3101.4 1090 3094.5 1090 3087.6 1090 3082 1083.96 3082 1076.5Z" fill="#FFFA8E" fill-rule="evenodd"/><path d="M3082 1076.5C3082 1069.04 3087.6 1063 3094.5 1063 3101.4 1063 3107 1069.04 3107 1076.5 3107 1083.96 3101.4 1090 3094.5 1090 3087.6 1090 3082 1083.96 3082 1076.5Z" stroke="#333333" stroke-width="1.71893" stroke-linecap="round" stroke-linejoin="round" stroke-miterlimit="10" fill="none" fill-rule="evenodd"/><path d="M3099 1106C3099 1098.82 3104.6 1093 3111.5 1093 3118.4 1093 3124 1098.82 3124 1106 3124 1113.18 3118.4 1119 3111.5 1119 3104.6 1119 3099 1113.18 3099 1106Z" fill="#FFFA8E" fill-rule="evenodd"/><path d="M3099 1106C3099 1098.82 3104.6 1093 3111.5 1093 3118.4 1093 3124 1098.82 3124 1106 3124 1113.18 3118.4 1119 3111.5 1119 3104.6 1119 3099 1113.18 3099 1106Z" stroke="#333333" stroke-width="1.71893" stroke-linecap="round" stroke-linejoin="round" stroke-miterlimit="10" fill="none" fill-rule="evenodd"/><path d="M3117 1132C3117 1124.82 3122.37 1119 3129 1119 3135.63 1119 3141 1124.82 3141 1132 3141 1139.18 3135.63 1145 3129 1145 3122.37 1145 3117 1139.18 3117 1132Z" fill="#FFFA8E" fill-rule="evenodd"/><path d="M3117 1132C3117 1124.82 3122.37 1119 3129 1119 3135.63 1119 3141 1124.82 3141 1132 3141 1139.18 3135.63 1145 3129 1145 3122.37 1145 3117 1139.18 3117 1132Z" stroke="#333333" stroke-width="1.71893" stroke-linecap="round" stroke-linejoin="round" stroke-miterlimit="10" fill="none" fill-rule="evenodd"/><path d="M3131 1163C3131 1155.82 3136.6 1150 3143.5 1150 3150.4 1150 3156 1155.82 3156 1163 3156 1170.18 3150.4 1176 3143.5 1176 3136.6 1176 3131 1170.18 3131 1163Z" fill="#FFFA8E" fill-rule="evenodd"/><path d="M3131 1163C3131 1155.82 3136.6 1150 3143.5 1150 3150.4 1150 3156 1155.82 3156 1163 3156 1170.18 3150.4 1176 3143.5 1176 3136.6 1176 3131 1170.18 3131 1163Z" stroke="#333333" stroke-width="1.71893" stroke-linecap="round" stroke-linejoin="round" stroke-miterlimit="10" fill="none" fill-rule="evenodd"/><path d="M3141 1194.5C3141 1187.04 3146.37 1181 3153 1181 3159.63 1181 3165 1187.04 3165 1194.5 3165 1201.96 3159.63 1208 3153 1208 3146.37 1208 3141 1201.96 3141 1194.5Z" fill="#FFFA8E" fill-rule="evenodd"/><path d="M3141 1194.5C3141 1187.04 3146.37 1181 3153 1181 3159.63 1181 3165 1187.04 3165 1194.5 3165 1201.96 3159.63 1208 3153 1208 3146.37 1208 3141 1201.96 3141 1194.5Z" stroke="#333333" stroke-width="1.71893" stroke-linecap="round" stroke-linejoin="round" stroke-miterlimit="10" fill="none" fill-rule="evenodd"/><path d="M3150 1228C3150 1220.82 3155.6 1215 3162.5 1215 3169.4 1215 3175 1220.82 3175 1228 3175 1235.18 3169.4 1241 3162.5 1241 3155.6 1241 3150 1235.18 3150 1228Z" fill="#FFFA8E" fill-rule="evenodd"/><path d="M3150 1228C3150 1220.82 3155.6 1215 3162.5 1215 3169.4 1215 3175 1220.82 3175 1228 3175 1235.18 3169.4 1241 3162.5 1241 3155.6 1241 3150 1235.18 3150 1228Z" stroke="#333333" stroke-width="1.71893" stroke-linecap="round" stroke-linejoin="round" stroke-miterlimit="10" fill="none" fill-rule="evenodd"/><path d="M3156 1262C3156 1254.82 3161.37 1249 3168 1249 3174.63 1249 3180 1254.82 3180 1262 3180 1269.18 3174.63 1275 3168 1275 3161.37 1275 3156 1269.18 3156 1262Z" fill="#FFFA8E" fill-rule="evenodd"/><path d="M3156 1262C3156 1254.82 3161.37 1249 3168 1249 3174.63 1249 3180 1254.82 3180 1262 3180 1269.18 3174.63 1275 3168 1275 3161.37 1275 3156 1269.18 3156 1262Z" stroke="#333333" stroke-width="1.71893" stroke-linecap="round" stroke-linejoin="round" stroke-miterlimit="10" fill="none" fill-rule="evenodd"/><path d="M3160 1295C3160 1287.27 3165.6 1281 3172.5 1281 3179.4 1281 3185 1287.27 3185 1295 3185 1302.73 3179.4 1309 3172.5 1309 3165.6 1309 3160 1302.73 3160 1295Z" fill="#FFFA8E" fill-rule="evenodd"/><path d="M3160 1295C3160 1287.27 3165.6 1281 3172.5 1281 3179.4 1281 3185 1287.27 3185 1295 3185 1302.73 3179.4 1309 3172.5 1309 3165.6 1309 3160 1302.73 3160 1295Z" stroke="#333333" stroke-width="1.71893" stroke-linecap="round" stroke-linejoin="round" stroke-miterlimit="10" fill="none" fill-rule="evenodd"/><path d="M3163 1330.5C3163 1323.04 3168.37 1317 3175 1317 3181.63 1317 3187 1323.04 3187 1330.5 3187 1337.96 3181.63 1344 3175 1344 3168.37 1344 3163 1337.96 3163 1330.5Z" fill="#FFFA8E" fill-rule="evenodd"/><path d="M3163 1330.5C3163 1323.04 3168.37 1317 3175 1317 3181.63 1317 3187 1323.04 3187 1330.5 3187 1337.96 3181.63 1344 3175 1344 3168.37 1344 3163 1337.96 3163 1330.5Z" stroke="#333333" stroke-width="1.71893" stroke-linecap="round" stroke-linejoin="round" stroke-miterlimit="10" fill="none" fill-rule="evenodd"/><path d="M3163 1361C3163 1353.82 3168.37 1348 3175 1348 3181.63 1348 3187 1353.82 3187 1361 3187 1368.18 3181.63 1374 3175 1374 3168.37 1374 3163 1368.18 3163 1361Z" fill="#FFFA8E" fill-rule="evenodd"/><path d="M3163 1361C3163 1353.82 3168.37 1348 3175 1348 3181.63 1348 3187 1353.82 3187 1361 3187 1368.18 3181.63 1374 3175 1374 3168.37 1374 3163 1368.18 3163 1361Z" stroke="#333333" stroke-width="1.71893" stroke-linecap="round" stroke-linejoin="round" stroke-miterlimit="10" fill="none" fill-rule="evenodd"/><path d="M3163 1396C3163 1388.82 3168.37 1383 3175 1383 3181.63 1383 3187 1388.82 3187 1396 3187 1403.18 3181.63 1409 3175 1409 3168.37 1409 3163 1403.18 3163 1396Z" fill="#FFFA8E" fill-rule="evenodd"/><path d="M3163 1396C3163 1388.82 3168.37 1383 3175 1383 3181.63 1383 3187 1388.82 3187 1396 3187 1403.18 3181.63 1409 3175 1409 3168.37 1409 3163 1403.18 3163 1396Z" stroke="#333333" stroke-width="1.71893" stroke-linecap="round" stroke-linejoin="round" stroke-miterlimit="10" fill="none" fill-rule="evenodd"/><path d="M3165 1430C3165 1422.82 3170.6 1417 3177.5 1417 3184.4 1417 3190 1422.82 3190 1430 3190 1437.18 3184.4 1443 3177.5 1443 3170.6 1443 3165 1437.18 3165 1430Z" fill="#FFFA8E" fill-rule="evenodd"/><path d="M3165 1430C3165 1422.82 3170.6 1417 3177.5 1417 3184.4 1417 3190 1422.82 3190 1430 3190 1437.18 3184.4 1443 3177.5 1443 3170.6 1443 3165 1437.18 3165 1430Z" stroke="#333333" stroke-width="1.71893" stroke-linecap="round" stroke-linejoin="round" stroke-miterlimit="10" fill="none" fill-rule="evenodd"/><path d="M3165 1463C3165 1455.82 3170.6 1450 3177.5 1450 3184.4 1450 3190 1455.82 3190 1463 3190 1470.18 3184.4 1476 3177.5 1476 3170.6 1476 3165 1470.18 3165 1463Z" fill="#FFFA8E" fill-rule="evenodd"/><path d="M3165 1463C3165 1455.82 3170.6 1450 3177.5 1450 3184.4 1450 3190 1455.82 3190 1463 3190 1470.18 3184.4 1476 3177.5 1476 3170.6 1476 3165 1470.18 3165 1463Z" stroke="#333333" stroke-width="1.71893" stroke-linecap="round" stroke-linejoin="round" stroke-miterlimit="10" fill="none" fill-rule="evenodd"/><path d="M3165 1498C3165 1490.82 3170.6 1485 3177.5 1485 3184.4 1485 3190 1490.82 3190 1498 3190 1505.18 3184.4 1511 3177.5 1511 3170.6 1511 3165 1505.18 3165 1498Z" fill="#FFFA8E" fill-rule="evenodd"/><path d="M3165 1498C3165 1490.82 3170.6 1485 3177.5 1485 3184.4 1485 3190 1490.82 3190 1498 3190 1505.18 3184.4 1511 3177.5 1511 3170.6 1511 3165 1505.18 3165 1498Z" stroke="#333333" stroke-width="1.71893" stroke-linecap="round" stroke-linejoin="round" stroke-miterlimit="10" fill="none" fill-rule="evenodd"/><path d="M3165 1532C3165 1524.82 3170.6 1519 3177.5 1519 3184.4 1519 3190 1524.82 3190 1532 3190 1539.18 3184.4 1545 3177.5 1545 3170.6 1545 3165 1539.18 3165 1532Z" fill="#FFFA8E" fill-rule="evenodd"/><path d="M3165 1532C3165 1524.82 3170.6 1519 3177.5 1519 3184.4 1519 3190 1524.82 3190 1532 3190 1539.18 3184.4 1545 3177.5 1545 3170.6 1545 3165 1539.18 3165 1532Z" stroke="#333333" stroke-width="1.71893" stroke-linecap="round" stroke-linejoin="round" stroke-miterlimit="10" fill="none" fill-rule="evenodd"/><path d="M3165 1563C3165 1555.82 3170.6 1550 3177.5 1550 3184.4 1550 3190 1555.82 3190 1563 3190 1570.18 3184.4 1576 3177.5 1576 3170.6 1576 3165 1570.18 3165 1563Z" fill="#FFFA8E" fill-rule="evenodd"/><path d="M3165 1563C3165 1555.82 3170.6 1550 3177.5 1550 3184.4 1550 3190 1555.82 3190 1563 3190 1570.18 3184.4 1576 3177.5 1576 3170.6 1576 3165 1570.18 3165 1563Z" stroke="#333333" stroke-width="1.71893" stroke-linecap="round" stroke-linejoin="round" stroke-miterlimit="10" fill="none" fill-rule="evenodd"/><path d="M3163 1597C3163 1589.82 3169.04 1584 3176.5 1584 3183.96 1584 3190 1589.82 3190 1597 3190 1604.18 3183.96 1610 3176.5 1610 3169.04 1610 3163 1604.18 3163 1597Z" fill="#FFFA8E" fill-rule="evenodd"/><path d="M3163 1597C3163 1589.82 3169.04 1584 3176.5 1584 3183.96 1584 3190 1589.82 3190 1597 3190 1604.18 3183.96 1610 3176.5 1610 3169.04 1610 3163 1604.18 3163 1597Z" stroke="#333333" stroke-width="1.71893" stroke-linecap="round" stroke-linejoin="round" stroke-miterlimit="10" fill="none" fill-rule="evenodd"/><path d="M3163 1631C3163 1623.82 3168.37 1618 3175 1618 3181.63 1618 3187 1623.82 3187 1631 3187 1638.18 3181.63 1644 3175 1644 3168.37 1644 3163 1638.18 3163 1631Z" fill="#FFFA8E" fill-rule="evenodd"/><path d="M3163 1631C3163 1623.82 3168.37 1618 3175 1618 3181.63 1618 3187 1623.82 3187 1631 3187 1638.18 3181.63 1644 3175 1644 3168.37 1644 3163 1638.18 3163 1631Z" stroke="#333333" stroke-width="1.71893" stroke-linecap="round" stroke-linejoin="round" stroke-miterlimit="10" fill="none" fill-rule="evenodd"/><path d="M3160 1665C3160 1657.82 3165.6 1652 3172.5 1652 3179.4 1652 3185 1657.82 3185 1665 3185 1672.18 3179.4 1678 3172.5 1678 3165.6 1678 3160 1672.18 3160 1665Z" fill="#FFFA8E" fill-rule="evenodd"/><path d="M3160 1665C3160 1657.82 3165.6 1652 3172.5 1652 3179.4 1652 3185 1657.82 3185 1665 3185 1672.18 3179.4 1678 3172.5 1678 3165.6 1678 3160 1672.18 3160 1665Z" stroke="#333333" stroke-width="1.71893" stroke-linecap="round" stroke-linejoin="round" stroke-miterlimit="10" fill="none" fill-rule="evenodd"/><path d="M3154 1696C3154 1688.82 3159.15 1683 3165.5 1683 3171.85 1683 3177 1688.82 3177 1696 3177 1703.18 3171.85 1709 3165.5 1709 3159.15 1709 3154 1703.18 3154 1696Z" fill="#FFFA8E" fill-rule="evenodd"/><path d="M3154 1696C3154 1688.82 3159.15 1683 3165.5 1683 3171.85 1683 3177 1688.82 3177 1696 3177 1703.18 3171.85 1709 3165.5 1709 3159.15 1709 3154 1703.18 3154 1696Z" stroke="#333333" stroke-width="1.71893" stroke-linecap="round" stroke-linejoin="round" stroke-miterlimit="10" fill="none" fill-rule="evenodd"/><path d="M3148 1730C3148 1722.82 3153.6 1717 3160.5 1717 3167.4 1717 3173 1722.82 3173 1730 3173 1737.18 3167.4 1743 3160.5 1743 3153.6 1743 3148 1737.18 3148 1730Z" fill="#FFFA8E" fill-rule="evenodd"/><path d="M3148 1730C3148 1722.82 3153.6 1717 3160.5 1717 3167.4 1717 3173 1722.82 3173 1730 3173 1737.18 3167.4 1743 3160.5 1743 3153.6 1743 3148 1737.18 3148 1730Z" stroke="#333333" stroke-width="1.71893" stroke-linecap="round" stroke-linejoin="round" stroke-miterlimit="10" fill="none" fill-rule="evenodd"/><path d="M3141 1762C3141 1754.82 3146.37 1749 3153 1749 3159.63 1749 3165 1754.82 3165 1762 3165 1769.18 3159.63 1775 3153 1775 3146.37 1775 3141 1769.18 3141 1762Z" fill="#FFFA8E" fill-rule="evenodd"/><path d="M3141 1762C3141 1754.82 3146.37 1749 3153 1749 3159.63 1749 3165 1754.82 3165 1762 3165 1769.18 3159.63 1775 3153 1775 3146.37 1775 3141 1769.18 3141 1762Z" stroke="#333333" stroke-width="1.71893" stroke-linecap="round" stroke-linejoin="round" stroke-miterlimit="10" fill="none" fill-rule="evenodd"/><path d="M3134 1796C3134 1788.82 3139.37 1783 3146 1783 3152.63 1783 3158 1788.82 3158 1796 3158 1803.18 3152.63 1809 3146 1809 3139.37 1809 3134 1803.18 3134 1796Z" fill="#FFFA8E" fill-rule="evenodd"/><path d="M3134 1796C3134 1788.82 3139.37 1783 3146 1783 3152.63 1783 3158 1788.82 3158 1796 3158 1803.18 3152.63 1809 3146 1809 3139.37 1809 3134 1803.18 3134 1796Z" stroke="#333333" stroke-width="1.71893" stroke-linecap="round" stroke-linejoin="round" stroke-miterlimit="10" fill="none" fill-rule="evenodd"/><path d="M3124 1828.5C3124 1820.49 3129.37 1814 3136 1814 3142.63 1814 3148 1820.49 3148 1828.5 3148 1836.51 3142.63 1843 3136 1843 3129.37 1843 3124 1836.51 3124 1828.5Z" fill="#FFFA8E" fill-rule="evenodd"/><path d="M3124 1828.5C3124 1820.49 3129.37 1814 3136 1814 3142.63 1814 3148 1820.49 3148 1828.5 3148 1836.51 3142.63 1843 3136 1843 3129.37 1843 3124 1836.51 3124 1828.5Z" stroke="#333333" stroke-width="1.71893" stroke-linecap="round" stroke-linejoin="round" stroke-miterlimit="10" fill="none" fill-rule="evenodd"/><path d="M3109 1859C3109 1851.82 3114.6 1846 3121.5 1846 3128.4 1846 3134 1851.82 3134 1859 3134 1866.18 3128.4 1872 3121.5 1872 3114.6 1872 3109 1866.18 3109 1859Z" fill="#FFFA8E" fill-rule="evenodd"/><path d="M3109 1859C3109 1851.82 3114.6 1846 3121.5 1846 3128.4 1846 3134 1851.82 3134 1859 3134 1866.18 3128.4 1872 3121.5 1872 3114.6 1872 3109 1866.18 3109 1859Z" stroke="#333333" stroke-width="1.71893" stroke-linecap="round" stroke-linejoin="round" stroke-miterlimit="10" fill="none" fill-rule="evenodd"/><path d="M3097 1889C3097 1881.82 3102.37 1876 3109 1876 3115.63 1876 3121 1881.82 3121 1889 3121 1896.18 3115.63 1902 3109 1902 3102.37 1902 3097 1896.18 3097 1889Z" fill="#FFFA8E" fill-rule="evenodd"/><path d="M3097 1889C3097 1881.82 3102.37 1876 3109 1876 3115.63 1876 3121 1881.82 3121 1889 3121 1896.18 3115.63 1902 3109 1902 3102.37 1902 3097 1896.18 3097 1889Z" stroke="#333333" stroke-width="1.71893" stroke-linecap="round" stroke-linejoin="round" stroke-miterlimit="10" fill="none" fill-rule="evenodd"/><path d="M3082 1921C3082 1913.82 3087.6 1908 3094.5 1908 3101.4 1908 3107 1913.82 3107 1921 3107 1928.18 3101.4 1934 3094.5 1934 3087.6 1934 3082 1928.18 3082 1921Z" fill="#FFFA8E" fill-rule="evenodd"/><path d="M3082 1921C3082 1913.82 3087.6 1908 3094.5 1908 3101.4 1908 3107 1913.82 3107 1921 3107 1928.18 3101.4 1934 3094.5 1934 3087.6 1934 3082 1928.18 3082 1921Z" stroke="#333333" stroke-width="1.71893" stroke-linecap="round" stroke-linejoin="round" stroke-miterlimit="10" fill="none" fill-rule="evenodd"/><path d="M3070 1950C3070 1942.82 3075.37 1937 3082 1937 3088.63 1937 3094 1942.82 3094 1950 3094 1957.18 3088.63 1963 3082 1963 3075.37 1963 3070 1957.18 3070 1950Z" fill="#FFFA8E" fill-rule="evenodd"/><path d="M3070 1950C3070 1942.82 3075.37 1937 3082 1937 3088.63 1937 3094 1942.82 3094 1950 3094 1957.18 3088.63 1963 3082 1963 3075.37 1963 3070 1957.18 3070 1950Z" stroke="#333333" stroke-width="1.71893" stroke-linecap="round" stroke-linejoin="round" stroke-miterlimit="10" fill="none" fill-rule="evenodd"/><path d="M3055 1981C3055 1973.82 3060.6 1968 3067.5 1968 3074.4 1968 3080 1973.82 3080 1981 3080 1988.18 3074.4 1994 3067.5 1994 3060.6 1994 3055 1988.18 3055 1981Z" fill="#FFFA8E" fill-rule="evenodd"/><path d="M3055 1981C3055 1973.82 3060.6 1968 3067.5 1968 3074.4 1968 3080 1973.82 3080 1981 3080 1988.18 3074.4 1994 3067.5 1994 3060.6 1994 3055 1988.18 3055 1981Z" stroke="#333333" stroke-width="1.71893" stroke-linecap="round" stroke-linejoin="round" stroke-miterlimit="10" fill="none" fill-rule="evenodd"/><path d="M3041 2010C3041 2002.82 3046.37 1997 3053 1997 3059.63 1997 3065 2002.82 3065 2010 3065 2017.18 3059.63 2023 3053 2023 3046.37 2023 3041 2017.18 3041 2010Z" fill="#FFFA8E" fill-rule="evenodd"/><path d="M3041 2010C3041 2002.82 3046.37 1997 3053 1997 3059.63 1997 3065 2002.82 3065 2010 3065 2017.18 3059.63 2023 3053 2023 3046.37 2023 3041 2017.18 3041 2010Z" stroke="#333333" stroke-width="1.71893" stroke-linecap="round" stroke-linejoin="round" stroke-miterlimit="10" fill="none" fill-rule="evenodd"/><path d="M3023 2037.5C3023 2029.49 3028.6 2023 3035.5 2023 3042.4 2023 3048 2029.49 3048 2037.5 3048 2045.51 3042.4 2052 3035.5 2052 3028.6 2052 3023 2045.51 3023 2037.5Z" fill="#FFFA8E" fill-rule="evenodd"/><path d="M3023 2037.5C3023 2029.49 3028.6 2023 3035.5 2023 3042.4 2023 3048 2029.49 3048 2037.5 3048 2045.51 3042.4 2052 3035.5 2052 3028.6 2052 3023 2045.51 3023 2037.5Z" stroke="#333333" stroke-width="1.71893" stroke-linecap="round" stroke-linejoin="round" stroke-miterlimit="10" fill="none" fill-rule="evenodd"/><path d="M3004 2065C3004 2057.82 3009.37 2052 3016 2052 3022.63 2052 3028 2057.82 3028 2065 3028 2072.18 3022.63 2078 3016 2078 3009.37 2078 3004 2072.18 3004 2065Z" fill="#FFFA8E" fill-rule="evenodd"/><path d="M3004 2065C3004 2057.82 3009.37 2052 3016 2052 3022.63 2052 3028 2057.82 3028 2065 3028 2072.18 3022.63 2078 3016 2078 3009.37 2078 3004 2072.18 3004 2065Z" stroke="#333333" stroke-width="1.71893" stroke-linecap="round" stroke-linejoin="round" stroke-miterlimit="10" fill="none" fill-rule="evenodd"/><path d="M2984 2091C2984 2083.82 2990.04 2078 2997.5 2078 3004.96 2078 3011 2083.82 3011 2091 3011 2098.18 3004.96 2104 2997.5 2104 2990.04 2104 2984 2098.18 2984 2091Z" fill="#FFFA8E" fill-rule="evenodd"/><path d="M2984 2091C2984 2083.82 2990.04 2078 2997.5 2078 3004.96 2078 3011 2083.82 3011 2091 3011 2098.18 3004.96 2104 2997.5 2104 2990.04 2104 2984 2098.18 2984 2091Z" stroke="#333333" stroke-width="1.71893" stroke-linecap="round" stroke-linejoin="round" stroke-miterlimit="10" fill="none" fill-rule="evenodd"/><path d="M2967 2120C2967 2112.82 2972.6 2107 2979.5 2107 2986.4 2107 2992 2112.82 2992 2120 2992 2127.18 2986.4 2133 2979.5 2133 2972.6 2133 2967 2127.18 2967 2120Z" fill="#FFFA8E" fill-rule="evenodd"/><path d="M2967 2120C2967 2112.82 2972.6 2107 2979.5 2107 2986.4 2107 2992 2112.82 2992 2120 2992 2127.18 2986.4 2133 2979.5 2133 2972.6 2133 2967 2127.18 2967 2120Z" stroke="#333333" stroke-width="1.71893" stroke-linecap="round" stroke-linejoin="round" stroke-miterlimit="10" fill="none" fill-rule="evenodd"/></g></svg>