<svg width="603" height="1416" xmlns="http://www.w3.org/2000/svg" xmlns:xlink="http://www.w3.org/1999/xlink" xml:space="preserve" overflow="hidden"><g transform="translate(-1128 -639)"><path d="M1346.99 2033.21C1175.36 1991.98 1111 1839.31 1155.34 1578.23 1179.65 1428.6 1209.69 1205.69 1179.65 991.944 1163.92 878.963 1181.08 782.776 1229.71 721.705 1266.9 677.429 1318.39 653 1379.89 653 1439.96 653 1518.62 665.214 1584.42 758.348 1657.36 859.115 1701.7 1040.8 1716 1298.83 1716 1307.99 1716 1318.67 1716 1327.84 1716 1648.46 1650.21 1888.16 1535.79 1987.4 1481.44 2034.73 1418.51 2050 1346.99 2033.21Z" fill="#7FB679" fill-rule="evenodd"/><path d="M1221.27 713.366C1171.1 777.562 1151.04 876.912 1168.24 993.075 1198.34 1205.53 1168.24 1427.16 1143.87 1576.95 1098 1844.43 1165.37 2001.86 1344.55 2044.66 1420.52 2063 1486.45 2047.72 1543.79 1997.28 1665.63 1891.81 1733 1636.56 1728.7 1297.24 1728.7 1297.24 1728.7 1297.24 1728.7 1297.24 1714.37 1037.4 1669.93 852.457 1593.96 750.049 1523.72 652.228 1439.15 640 1380.38 640 1314.44 640 1259.97 665.984 1221.27 713.366ZM1347.41 2033.96C1175.4 1992.69 1110.9 1839.84 1155.34 1578.48 1179.7 1428.69 1209.81 1205.53 1179.7 991.547 1163.94 878.44 1181.14 782.147 1229.87 721.009 1267.14 676.683 1318.74 652.228 1380.38 652.228 1440.58 652.228 1519.42 664.456 1585.36 757.692 1658.46 858.57 1702.9 1040.46 1717.23 1298.77 1717.23 1307.94 1717.23 1318.64 1717.23 1327.81 1717.23 1648.79 1651.3 1888.75 1536.62 1988.1 1482.15 2035.49 1419.08 2050.77 1347.41 2033.96Z" fill="#D2E6C8" fill-rule="evenodd"/><path d="M1266.47 714.891C1230.61 742.392 1187.59 795.866 1191.89 899.759 1191.89 899.759 1191.89 899.759 1191.89 899.759 1191.89 905.871 1194.76 910.454 1199.06 915.038 1217.71 930.316 1269.33 927.26 1361.12 904.343 1424.22 887.537 1424.22 887.537 1424.22 887.537 1462.94 876.842 1527.47 860.035 1534.64 867.675 1527.47 878.37 1454.33 895.176 1415.61 904.343 1392.67 908.926 1372.59 915.038 1356.81 919.621 1341.04 922.677 1320.96 927.26 1299.45 931.844 1243.52 944.067 1210.54 951.706 1201.93 965.456 1199.06 971.568 1199.06 977.679 1199.06 983.791 1199.06 992.958 1200.5 1002.12 1201.93 1015.88 1204.8 1032.68 1207.67 1055.6 1209.1 1086.16 1211.97 1125.88 1211.97 1125.88 1211.97 1125.88 1211.97 1165.6 1213.4 1176.3 1227.74 1183.94 1234.91 1188.52 1263.6 1183.94 1338.17 1171.71 1388.36 1164.08 1460.07 1153.38 1481.58 1154.91 1460.07 1167.13 1366.85 1182.41 1320.96 1190.05 1267.9 1197.69 1267.9 1197.69 1267.9 1197.69 1244.95 1202.27 1244.95 1202.27 1244.95 1202.27 1219.14 1206.86 1216.27 1208.38 1211.97 1240.47 1210.54 1252.69 1210.54 1252.69 1210.54 1252.69 1206.23 1280.19 1204.8 1297 1204.8 1310.75 1204.8 1318.39 1204.8 1324.5 1206.23 1332.14 1206.23 1338.25 1207.67 1352 1217.71 1359.64 1217.71 1359.64 1217.71 1359.64 1217.71 1359.64 1237.78 1370.33 1286.54 1373.39 1335.3 1376.45 1369.72 1377.97 1417.05 1381.03 1427.09 1387.14 1412.74 1396.31 1313.79 1390.2 1270.77 1387.14 1226.31 1384.08 1226.31 1384.08 1226.31 1384.08 1224.88 1384.08 1224.88 1384.08 1224.88 1384.08 1216.27 1382.56 1206.23 1382.56 1197.63 1400.89 1186.16 1432.98 1174.68 1504.78 1173.25 1542.98 1168.95 1567.43 1181.85 1575.06 1186.16 1576.59 1186.16 1576.59 1186.16 1576.59 1186.16 1576.59 1239.22 1602.57 1398.4 1628.54 1514.57 1648.4 1524.6 1649.93 1527.47 1652.98 1527.47 1656.04 1527.47 1657.57 1521.74 1662.15 1510.26 1660.62 1494.49 1659.1 1417.05 1645.35 1342.47 1631.59 1282.24 1620.9 1220.57 1610.2 1191.89 1605.62 1167.51 1601.04 1163.21 1616.32 1161.78 1623.96 1161.78 1625.48 1161.78 1625.48 1161.78 1625.48 1146 1678.96 1148.87 1857.71 1209.1 1928 1275.07 2004.39 1362.55 2038 1448.6 2018.14 1514.57 2004.39 1551.85 1964.66 1556.16 1934.11 1556.16 1931.05 1556.16 1929.52 1556.16 1928 1556.16 1918.83 1551.85 1911.19 1544.68 1906.61 1527.47 1897.44 1488.75 1880.63 1445.73 1862.3 1399.84 1840.91 1346.78 1817.99 1319.53 1804.24 1299.45 1795.07 1292.28 1787.43 1289.41 1784.38 1293.71 1784.38 1302.32 1784.38 1319.53 1792.02 1362.55 1811.88 1362.55 1811.88 1362.55 1811.88 1464.37 1860.77 1566.19 1905.08 1592.01 1885.22 1626.43 1857.71 1676.62 1691.18 1689.53 1564.37 1689.53 1561.31 1689.53 1559.79 1689.53 1556.73 1689.53 1539.92 1683.79 1529.23 1672.32 1527.7 1619.26 1517.01 1472.98 1495.62 1386.93 1483.39 1320.96 1472.7 1320.96 1472.7 1320.96 1472.7 1306.62 1471.17 1300.88 1468.12 1299.45 1465.06 1300.88 1465.06 1308.05 1462 1319.53 1463.53 1399.84 1474.23 1399.84 1474.23 1399.84 1474.23 1490.19 1486.45 1627.86 1506.31 1670.88 1509.37 1670.88 1509.37 1672.32 1509.37 1672.32 1509.37 1676.62 1510.9 1682.36 1510.9 1688.09 1506.31 1692.4 1503.26 1695.26 1495.62 1696.7 1484.92 1698.13 1463.53 1699.57 1429.92 1699.57 1396.31 1699.57 1371.86 1699.57 1347.42 1698.13 1329.08 1698.13 1309.22 1685.22 1304.64 1678.05 1303.11 1668.02 1301.58 1653.67 1300.05 1637.9 1300.05 1613.52 1298.53 1559.02 1293.94 1556.16 1284.77 1563.33 1280.19 1594.88 1283.25 1617.82 1284.77 1642.2 1287.83 1668.02 1289.36 1682.36 1286.3 1695.26 1284.77 1701 1272.55 1701 1255.75 1699.57 1202.27 1685.22 1072.41 1666.58 1014.35 1666.58 1014.35 1666.58 1014.35 1666.58 1014.35 1665.15 1009.76 1662.28 996.013 1643.64 996.013 1627.86 996.013 1597.74 1002.12 1567.63 1006.71 1530.34 1012.82 1452.9 1025.04 1444.29 1015.88 1451.47 1008.24 1503.09 1000.6 1537.51 996.013 1579.1 988.374 1623.56 982.263 1640.77 973.096 1647.94 968.512 1650.81 962.401 1650.81 954.762 1650.81 948.65 1647.94 942.539 1646.5 939.483 1640.77 918.093 1581.97 734.753 1478.71 691.973 1422.78 667.528 1332.43 666 1266.47 714.891Z" fill="#FA8FA1" fill-rule="evenodd"/><path d="M1203.89 887.31C1203.89 815.503 1228.26 760.502 1274.15 725.362 1337.25 678 1421.85 681.055 1476.34 702.445 1573.85 743.696 1631.21 922.449 1636.94 942.311 1639.81 953.006 1639.81 960.645 1636.94 962.172 1619.74 971.339 1578.15 977.451 1536.57 983.562 1470.6 992.729 1440.49 998.84 1433.32 1009.53 1431.89 1012.59 1431.89 1015.65 1431.89 1017.17 1436.19 1037.04 1479.21 1032.45 1569.55 1018.7 1599.66 1012.59 1629.77 1008.01 1645.55 1008.01 1654.15 1008.01 1655.58 1012.59 1657.02 1017.17 1657.02 1018.7 1657.02 1018.7 1657.02 1018.7 1674.23 1073.7 1688.57 1205.09 1690 1255.51 1690 1266.21 1687.13 1273.85 1681.4 1273.85 1667.06 1276.9 1642.68 1275.37 1618.3 1272.32 1579.58 1269.26 1556.64 1267.73 1548.04 1275.37 1546.6 1278.43 1545.17 1281.48 1545.17 1284.54 1546.6 1304.4 1582.45 1307.46 1636.94 1312.04 1652.72 1312.04 1667.06 1313.57 1677.09 1315.1 1684.26 1316.62 1687.13 1321.21 1687.13 1330.37 1688.57 1371.63 1690 1446.49 1685.7 1483.16 1684.26 1493.85 1681.4 1496.91 1681.4 1496.91 1679.96 1498.43 1677.09 1498.43 1674.23 1496.91 1671.36 1496.91 1671.36 1496.91 1671.36 1496.91 1628.34 1493.85 1492.11 1475.52 1401.77 1461.77 1321.47 1451.07 1321.47 1451.07 1321.47 1451.07 1301.4 1449.54 1288.49 1454.13 1287.06 1463.29 1285.62 1473.99 1298.53 1481.63 1318.6 1484.68 1386 1495.38 1386 1495.38 1386 1495.38 1472.04 1507.6 1618.3 1527.46 1669.92 1539.68 1679.96 1541.21 1679.96 1554.96 1678.53 1562.6 1665.62 1693.99 1614 1852.89 1586.75 1874.27 1562.38 1892.61 1430.45 1829.97 1367.36 1799.41 1324.34 1779.55 1324.34 1779.55 1324.34 1779.55 1314.3 1776.49 1282.75 1764.27 1277.02 1778.02 1272.72 1788.72 1285.62 1800.94 1314.3 1814.69 1342.98 1829.97 1396.04 1852.89 1441.92 1872.75 1483.51 1891.08 1523.66 1907.89 1539.43 1917.05 1545.17 1920.11 1546.6 1926.22 1545.17 1932.33 1542.3 1952.19 1513.62 1991.92 1446.23 2005.67 1364.49 2024 1281.32 1991.92 1218.23 1918.58 1160.87 1852.89 1158 1680.24 1172.34 1628.3 1172.34 1628.3 1173.77 1626.77 1173.77 1626.77 1175.21 1619.13 1176.64 1614.55 1190.98 1617.6 1219.66 1622.19 1281.32 1632.88 1341.55 1643.58 1418.98 1657.33 1493.55 1671.08 1509.32 1672.6 1529.4 1674.13 1539.43 1664.96 1539.43 1655.8 1539.43 1655.8 1539.43 1655.8 1539.43 1655.8 1539.43 1646.63 1532.26 1638.99 1516.49 1635.94 1401.77 1617.6 1242.6 1590.1 1192.42 1565.66 1192.42 1565.66 1190.98 1565.66 1190.98 1565.66 1188.11 1564.13 1183.81 1561.07 1183.81 1550.38 1183.81 1548.85 1183.81 1545.8 1185.25 1542.74 1186.68 1507.6 1198.15 1435.79 1209.62 1405.24 1213.92 1394.54 1218.23 1394.54 1223.96 1396.07 1226.83 1396.07 1226.83 1396.07 1226.83 1396.07 1226.83 1396.07 1269.85 1399.13 1269.85 1399.13 1388.87 1406.77 1439.06 1408.29 1441.92 1388.43 1439.06 1380.79 1439.06 1380.79 1439.06 1380.79 1430.45 1370.1 1396.04 1367.04 1335.81 1363.99 1291.36 1360.93 1241.17 1357.88 1223.96 1348.71 1219.66 1344.12 1218.23 1334.96 1218.23 1331.9 1216.79 1324.26 1216.79 1318.15 1216.79 1310.51 1216.79 1296.76 1218.23 1281.48 1222.53 1253.98 1223.96 1241.76 1223.96 1241.76 1223.96 1241.76 1225.4 1229.54 1226.83 1221.9 1229.7 1218.84 1231.13 1215.79 1236.87 1215.79 1246.91 1214.26 1269.85 1209.68 1269.85 1209.68 1269.85 1209.68 1322.91 1200.51 1322.91 1200.51 1322.91 1200.51 1459.13 1179.12 1496.42 1168.43 1496.42 1153.15 1496.42 1153.15 1496.42 1153.15 1496.42 1153.15 1493.55 1147.04 1493.55 1147.04 1493.55 1147.04 1483.51 1137.87 1436.19 1143.98 1337.25 1160.79 1294.23 1166.9 1241.17 1174.54 1234 1173.01 1225.4 1168.43 1223.96 1163.84 1222.53 1125.65 1221.09 1085.93 1221.09 1085.93 1221.09 1085.93 1219.66 1053.84 1216.79 1029.4 1213.92 1012.59 1211.06 991.201 1208.19 978.978 1212.49 971.339 1218.23 960.645 1266.98 951.478 1302.83 943.839 1324.34 939.255 1344.42 934.672 1360.19 930.088 1374.53 925.505 1396.04 920.922 1418.98 916.338 1489.25 899.532 1536.57 887.31 1545.17 873.559 1546.6 868.976 1546.6 865.92 1546.6 864.393 1540.87 844.531 1500.72 855.226 1421.85 876.615 1358.75 893.421 1358.75 893.421 1358.75 893.421 1252.64 917.866 1216.79 913.283 1206.75 905.643 1205.32 902.588 1203.89 901.06 1203.89 898.004 1203.89 894.949 1203.89 891.893 1203.89 887.31Z" fill="#FDDBDF" fill-rule="evenodd"/><path d="M1191.17 1566.34C1191.17 1566.34 1192.61 1566.34 1192.61 1566.34 1215.56 1577.05 1258.59 1589.29 1310.23 1600 1284.41 1586.23 1260.03 1558.69 1258.59 1534.22 1255.72 1505.15 1265.77 1482.2 1288.72 1462.31 1290.15 1457.72 1293.02 1454.66 1297.32 1453.13 1297.32 1453.13 1298.76 1453.13 1298.76 1453.13 1327.45 1430.19 1370.48 1413.36 1392 1405.71 1387.7 1404.18 1387.7 1404.18 1387.7 1404.18 1360.44 1404.18 1321.71 1402.65 1270.07 1399.59 1270.07 1399.59 1227.03 1396.53 1227.03 1396.53 1224.17 1396.53 1224.17 1396.53 1224.17 1396.53 1218.43 1395 1214.12 1395 1209.82 1405.71 1198.34 1436.31 1186.87 1508.21 1185.43 1543.4 1184 1546.46 1184 1549.52 1184 1551.04 1184 1561.75 1188.3 1564.81 1191.17 1566.34Z" fill="#FCC3C9" fill-rule="evenodd"/><path d="M1224.16 1241.68C1222.73 1253.91 1222.73 1253.91 1222.73 1253.91 1218.43 1281.43 1217 1296.72 1217 1310.49 1217 1318.13 1217 1324.25 1218.43 1331.89 1218.43 1334.95 1219.87 1344.12 1224.16 1348.71 1241.36 1357.88 1291.5 1360.94 1335.92 1364 1305.83 1353.3 1258.55 1354.83 1258.55 1312.01 1258.55 1269.2 1311.56 1250.85 1386.07 1230.98 1460.57 1209.57 1533.64 1195.81 1558 1189.7 1530.78 1189.7 1504.99 1171.35 1496.39 1153 1496.39 1168.29 1459.14 1178.99 1323.03 1200.4 1270.01 1209.57 1270.01 1209.57 1270.01 1209.57 1247.09 1214.16 1247.09 1214.16 1247.09 1214.16 1237.06 1215.69 1231.33 1215.69 1229.89 1218.75 1227.03 1221.8 1225.6 1229.45 1224.16 1241.68Z" fill="#FCC3C9" fill-rule="evenodd"/><path d="M1450.1 1404.43C1475.79 1396.81 1527.17 1354.14 1550 1345 1492.91 1345 1461.51 1375.48 1441.53 1389.19 1438.68 1398.33 1427.26 1402.9 1403 1404.43 1418.7 1407.48 1438.68 1409 1450.1 1404.43Z" fill="#FCC3C9" fill-rule="evenodd"/><path d="M1687.13 1330.87C1687.13 1321.7 1684.26 1317.11 1677.08 1315.59 1667.04 1314.06 1652.69 1312.53 1636.9 1312.53 1631.16 1311 1625.42 1311 1619.68 1311 1632.6 1315.59 1664.17 1332.4 1662.73 1359.91 1661.3 1393.54 1665.6 1447.03 1615.38 1463.85 1575.2 1476.07 1496.27 1469.96 1436 1468.43 1523.54 1479.13 1634.03 1494.41 1671.34 1497.47 1674.21 1497.47 1674.21 1497.47 1674.21 1497.47 1677.08 1499 1679.95 1499 1681.39 1497.47 1681.39 1497.47 1684.26 1494.41 1685.69 1483.72 1690 1447.03 1688.56 1372.14 1687.13 1330.87Z" fill="#FCC3C9" fill-rule="evenodd"/><path d="M1540.63 1827.04C1456.07 1831.64 1354.3 1771.82 1307 1774.89 1314.17 1776.42 1319.9 1777.96 1324.2 1779.49 1367.2 1799.43 1367.2 1799.43 1367.2 1799.43 1430.27 1830.11 1562.13 1893 1586.5 1874.59 1593.67 1868.46 1603.7 1850.05 1615.17 1823.97 1640.97 1748.81 1640.97 1748.81 1640.97 1748.81 1643.83 1738.08 1648.13 1725.8 1651 1712 1630.93 1761.08 1597.97 1825.51 1540.63 1827.04Z" fill="#FCC3C9" fill-rule="evenodd"/><path d="M1539 1656.33C1539 1656.33 1556.2 1664 1596.32 1624.13 1624.98 1593.47 1659.37 1596.53 1673.7 1599.6 1675.13 1588.87 1676.57 1578.13 1678 1567.4 1614.95 1549 1566.23 1621.07 1539 1656.33Z" fill="#FCC3C9" fill-rule="evenodd"/><path d="M1206.77 1689.9C1226.85 1656.27 1275.61 1665.44 1267.01 1717.42 1262.7 1751.05 1269.87 1773.98 1277.05 1781.62 1277.05 1780.09 1277.05 1780.09 1277.05 1778.56 1278.48 1775.51 1274.18 1781.62 1278.48 1780.09 1282.78 1754.11 1305.73 1737.29 1354.5 1714.36 1403.26 1689.9 1409 1671.56 1398.96 1654.74 1383.18 1651.69 1383.18 1651.69 1383.18 1651.69 1370.27 1650.16 1355.93 1647.1 1341.59 1644.04 1281.35 1633.34 1219.67 1622.64 1190.99 1618.06 1176.65 1615 1175.21 1619.59 1173.78 1627.23 1173.78 1627.23 1172.34 1628.76 1172.34 1628.76 1158 1680.73 1160.87 1853.47 1218.24 1919.2 1231.15 1936.01 1246.93 1949.77 1261.27 1962 1192.42 1874.87 1188.12 1715.89 1206.77 1689.9Z" fill="#FCC3C9" fill-rule="evenodd"/><path d="M1538.83 1917.45C1523.07 1908.26 1482.94 1891.41 1441.38 1873.04 1424.18 1865.38 1406.99 1857.72 1391.22 1850.06 1389.79 1850.06 1389.79 1850.06 1389.79 1850.06 1392.66 1851.59 1395.52 1854.66 1398.39 1856.19 1412.72 1866.91 1425.62 1877.63 1437.08 1889.88 1448.55 1903.67 1460.01 1918.98 1464.31 1937.36 1468.61 1951.14 1462.88 1958.8 1454.28 1971.05 1437.08 1994.03 1409.85 2001.68 1384.06 2001.68 1366.86 2003.22 1348.23 2001.68 1332.46 1998.62 1328.17 1998.62 1325.3 1997.09 1321 1995.56 1361.13 2012.41 1404.12 2017 1445.68 2006.28 1513.04 1992.5 1541.7 1952.68 1544.57 1932.77 1546 1926.64 1544.57 1920.51 1538.83 1917.45ZM1389.79 1850.06C1385.49 1848.53 1381.19 1847 1376.89 1847L1389.79 1850.06Z" fill="#FCC3C9" fill-rule="evenodd"/><path d="M1212.3 971.896C1208 979.532 1210.87 991.749 1213.73 1013.13 1216.6 1029.93 1219.47 1054.36 1220.9 1086.43 1222.33 1126.13 1222.33 1126.13 1222.33 1126.13 1223.77 1164.31 1225.2 1168.89 1233.8 1173.47 1238.1 1175 1258.16 1171.95 1282.53 1168.89 1262.46 1165.84 1248.13 1132.24 1251 1092.54 1253.86 1051.31 1235.23 993.276 1321.22 971.896 1405.78 950.517 1494.64 913.867 1530.47 915.394 1564.87 916.921 1590.67 913.867 1605 913.867 1584.93 912.34 1560.57 903.177 1546.24 865 1546.24 866.527 1546.24 869.581 1544.8 874.162 1536.21 887.906 1488.91 900.123 1418.68 916.921 1395.75 921.502 1374.25 926.084 1359.92 930.665 1344.16 935.246 1324.09 939.827 1302.59 944.409 1266.76 952.044 1218.03 961.207 1212.3 971.896Z" fill="#FCC3C9" fill-rule="evenodd"/><path d="M1431.61 1018C1441.65 1039.23 1456 1093.83 1390 1109 1408.65 1096.87 1437.35 1080.18 1431.61 1018Z" fill="#FCC3C9" fill-rule="evenodd"/><path d="M1645.23 1008C1629.49 1008 1599.45 1012.61 1569.4 1018.75 1539.35 1023.35 1515.03 1026.42 1496.43 1029.49 1495 1029.49 1495 1029.49 1495 1029.49 1520.75 1032.57 1593.72 1027.96 1628.06 1038.71 1653.82 1046.38 1672.42 1118.55 1681 1160 1675.28 1107.8 1666.69 1050.99 1656.68 1018.75 1656.68 1017.21 1656.68 1017.21 1656.68 1017.21 1655.25 1012.61 1653.82 1008 1645.23 1008Z" fill="#FCC3C9" fill-rule="evenodd"/><path d="M1204 898.68C1204 901.733 1205.43 903.26 1206.86 906.313 1215.44 912.42 1238.31 917 1301.21 904.787 1268.33 900.207 1241.17 881.887 1246.89 834.56 1256.9 765.86 1336.96 698.687 1397 688 1355.54 688 1311.22 697.16 1274.05 726.167 1228.3 761.28 1204 816.24 1204 887.993 1204 892.573 1204 895.627 1204 898.68Z" fill="#FCC3C9" fill-rule="evenodd"/><path d="M1385.92 1495.55C1318.52 1484.84 1318.52 1484.84 1318.52 1484.84 1299.87 1481.78 1286.97 1475.66 1286.97 1464.95 1284.1 1463.42 1282.67 1460.36 1284.1 1455.77 1262.59 1442 1229.6 1481.78 1221 1498.61 1265.46 1569 1265.46 1569 1265.46 1569 1238.21 1483.31 1430.38 1515.45 1466.23 1518.51 1533.63 1524.63 1599.6 1536.87 1667 1538.4 1612.5 1527.69 1470.53 1507.8 1385.92 1495.55Z" fill="#FCC3C9" fill-rule="evenodd"/><path d="M1549.37 1651.69C1546.5 1654.75 1542.19 1657.81 1539.31 1659.34 1536.44 1667 1527.81 1674.66 1509.12 1673.12 1497.62 1673.12 1453.06 1663.94 1397 1654.75 1408.5 1673.12 1408.5 1673.12 1408.5 1673.12 1477.5 1671.59 1558 1716 1581 1618 1568.06 1619.53 1559.44 1644.03 1549.37 1651.69Z" fill="#FA9EAC" fill-rule="evenodd"/><path d="M1550.65 1270C1549.19 1256.15 1537.58 1237.69 1510 1236.15 1531.77 1230 1555 1242.31 1550.65 1270Z" fill="#FFFFFF" fill-rule="evenodd"/><path d="M1448.53 1047C1454.16 1063.63 1447.12 1095.39 1419 1109 1444.31 1101.44 1464 1084.8 1448.53 1047Z" fill="#FFFFFF" fill-rule="evenodd"/><path d="M1443 1373C1470.18 1345.67 1508.82 1335.04 1536 1338.07 1508.82 1332 1475.91 1332 1443 1373Z" fill="#FFFFFF" fill-rule="evenodd"/><path d="M1542 1635C1562.11 1590.46 1613.83 1552.07 1644 1553.61 1615.27 1549 1562.11 1570.5 1542 1635Z" fill="#FFFFFF" fill-rule="evenodd"/><path d="M1295 1763C1310.78 1743.24 1343.76 1726.52 1365.28 1715.88 1386.79 1705.24 1398.26 1696.12 1404 1687 1395.39 1705.24 1369.58 1721.96 1353.8 1731.08 1338.03 1740.2 1303.61 1752.36 1295 1763Z" fill="#FFFFFF" fill-rule="evenodd"/><path d="M1324 1445C1342.53 1430 1358.2 1419.5 1381 1418" fill="#FFFFFF" fill-rule="evenodd"/><path d="M1221.77 713.866C1171.6 778.062 1151.54 877.412 1168.74 993.575 1198.84 1206.03 1168.74 1427.66 1144.37 1577.45 1098.5 1844.93 1165.87 2002.36 1345.05 2045.16 1421.02 2063.5 1486.95 2048.22 1544.29 1997.78 1666.13 1892.31 1733.5 1637.06 1729.2 1297.74 1729.2 1297.74 1729.2 1297.74 1729.2 1297.74 1714.87 1037.9 1670.43 852.956 1594.46 750.549 1524.22 652.728 1439.65 640.5 1380.88 640.5 1314.94 640.5 1260.48 666.484 1221.77 713.866Z" stroke="#333333" stroke-width="2.86476" stroke-linecap="round" stroke-linejoin="round" stroke-miterlimit="10" fill="none" fill-rule="evenodd"/><path d="M1266.97 715.391C1231.11 742.892 1188.09 796.366 1192.39 900.26 1192.39 900.26 1192.39 900.26 1192.39 900.26 1192.39 906.371 1195.26 910.954 1199.56 915.538 1218.21 930.816 1269.83 927.761 1361.62 904.843 1424.72 888.037 1424.72 888.037 1424.72 888.037 1463.44 877.342 1527.97 860.536 1535.14 868.175 1527.97 878.87 1454.83 895.676 1416.11 904.843 1393.17 909.427 1373.09 915.538 1357.31 920.121 1341.54 923.177 1321.46 927.761 1299.95 932.344 1244.02 944.567 1211.03 952.206 1202.43 965.957 1199.56 972.068 1199.56 978.179 1199.56 984.291 1199.56 993.458 1201 1002.62 1202.43 1016.38 1205.3 1033.18 1208.17 1056.1 1209.6 1086.66 1212.47 1126.38 1212.47 1126.38 1212.47 1126.38 1212.47 1166.1 1213.9 1176.8 1228.24 1184.44 1235.41 1189.02 1264.1 1184.44 1338.67 1172.21 1388.86 1164.58 1460.57 1153.88 1482.08 1155.41 1460.57 1167.63 1367.35 1182.91 1321.46 1190.55 1268.4 1198.19 1268.4 1198.19 1268.4 1198.19 1245.45 1202.77 1245.45 1202.77 1245.45 1202.77 1219.64 1207.36 1216.77 1208.88 1212.47 1240.97 1211.03 1253.19 1211.03 1253.19 1211.03 1253.19 1206.73 1280.69 1205.3 1297.5 1205.3 1311.25 1205.3 1318.89 1205.3 1325 1206.73 1332.64 1206.73 1338.75 1208.17 1352.5 1218.21 1360.14 1218.21 1360.14 1218.21 1360.14 1218.21 1360.14 1238.28 1370.83 1287.04 1373.89 1335.8 1376.95 1370.22 1378.47 1417.55 1381.53 1427.59 1387.64 1413.24 1396.81 1314.29 1390.7 1271.27 1387.64 1226.81 1384.58 1226.81 1384.58 1226.81 1384.58 1225.38 1384.58 1225.38 1384.58 1225.38 1384.58 1216.77 1383.06 1206.73 1383.06 1198.13 1401.39 1186.65 1433.48 1175.18 1505.28 1173.75 1543.48 1169.45 1567.93 1182.35 1575.56 1186.65 1577.09 1186.65 1577.09 1186.65 1577.09 1186.65 1577.09 1239.72 1603.07 1398.9 1629.04 1515.07 1648.9 1525.1 1650.43 1527.97 1653.48 1527.97 1656.54 1527.97 1658.07 1522.24 1662.65 1510.76 1661.12 1494.99 1659.6 1417.55 1645.85 1342.97 1632.09 1282.74 1621.4 1221.07 1610.7 1192.39 1606.12 1168.01 1601.54 1163.71 1616.82 1162.28 1624.46 1162.28 1625.98 1162.28 1625.98 1162.28 1625.98 1146.5 1679.46 1149.37 1858.21 1209.6 1928.5 1275.57 2004.89 1363.05 2038.5 1449.1 2018.64 1515.07 2004.89 1552.35 1965.16 1556.66 1934.61 1556.66 1931.55 1556.66 1930.02 1556.66 1928.5 1556.66 1919.33 1552.35 1911.69 1545.18 1907.11 1527.97 1897.94 1489.25 1881.13 1446.23 1862.8 1400.34 1841.41 1347.28 1818.49 1320.03 1804.74 1299.95 1795.57 1292.78 1787.93 1289.91 1784.88 1294.21 1784.88 1302.82 1784.88 1320.03 1792.52 1363.05 1812.38 1363.05 1812.38 1363.05 1812.38 1464.87 1861.27 1566.69 1905.58 1592.51 1885.72 1626.93 1858.21 1677.12 1691.68 1690.03 1564.87 1690.03 1561.81 1690.03 1560.29 1690.03 1557.23 1690.03 1540.42 1684.29 1529.73 1672.82 1528.2 1619.76 1517.51 1473.48 1496.12 1387.43 1483.89 1321.46 1473.2 1321.46 1473.2 1321.46 1473.2 1307.12 1471.67 1301.38 1468.62 1299.95 1465.56 1301.38 1465.56 1308.55 1462.5 1320.03 1464.03 1400.34 1474.73 1400.34 1474.73 1400.34 1474.73 1490.69 1486.95 1628.36 1506.81 1671.38 1509.87 1671.38 1509.87 1672.82 1509.87 1672.82 1509.87 1677.12 1511.4 1682.86 1511.4 1688.59 1506.81 1692.9 1503.76 1695.76 1496.12 1697.2 1485.42 1698.63 1464.03 1700.07 1430.42 1700.07 1396.81 1700.07 1372.36 1700.07 1347.92 1698.63 1329.58 1698.63 1309.72 1685.72 1305.14 1678.55 1303.61 1668.52 1302.08 1654.17 1300.55 1638.4 1300.55 1614.02 1299.03 1559.52 1294.44 1556.66 1285.28 1563.83 1280.69 1595.38 1283.75 1618.32 1285.28 1642.7 1288.33 1668.52 1289.86 1682.86 1286.8 1695.76 1285.28 1701.5 1273.05 1701.5 1256.25 1700.07 1202.77 1685.72 1072.91 1667.08 1014.85 1667.08 1014.85 1667.08 1014.85 1667.08 1014.85 1665.65 1010.26 1662.78 996.513 1644.14 996.513 1628.36 996.513 1598.24 1002.62 1568.13 1007.21 1530.84 1013.32 1453.4 1025.54 1444.79 1016.38 1451.97 1008.74 1503.59 1001.1 1538.01 996.513 1579.6 988.874 1624.06 982.763 1641.27 973.596 1648.44 969.012 1651.31 962.901 1651.31 955.262 1651.31 949.15 1648.44 943.039 1647 939.983 1641.27 918.594 1582.47 735.253 1479.21 692.473 1423.28 668.028 1332.93 666.5 1266.97 715.391Z" stroke="#333333" stroke-width="2.86476" stroke-linecap="round" stroke-linejoin="round" stroke-miterlimit="10" fill="none" fill-rule="evenodd"/><path d="M1436.5 1396.5C1459.46 1377 1475.25 1348.5 1558.5 1345.5" stroke="#333333" stroke-width="2.86476" stroke-linecap="round" stroke-linejoin="round" stroke-miterlimit="10" fill="none" fill-rule="evenodd"/><path d="M1287.5 1460.5C1313.25 1439.11 1360.46 1411.61 1390.5 1405.5" stroke="#333333" stroke-width="2.86476" stroke-linecap="round" stroke-linejoin="round" stroke-miterlimit="10" fill="none" fill-rule="evenodd"/><path d="M1539.5 1659.5C1559.56 1626.04 1609.72 1551.5 1678.5 1563.67" stroke="#333333" stroke-width="2.86476" stroke-linecap="round" stroke-linejoin="round" stroke-miterlimit="10" fill="none" fill-rule="evenodd"/><path d="M1546.5 865.5C1557.88 906.844 1586.32 914.5 1610.5 914.5" stroke="#333333" stroke-width="2.86476" stroke-linecap="round" stroke-linejoin="round" stroke-miterlimit="10" fill="none" fill-rule="evenodd"/><path d="M1431.99 1018.5C1447.5 1058.14 1444.68 1097.78 1392.5 1111.5" stroke="#333333" stroke-width="2.86476" stroke-linecap="round" stroke-linejoin="round" stroke-miterlimit="10" fill="none" fill-rule="evenodd"/><path d="M1504.5 1246.02C1529.39 1244.5 1544.04 1261.2 1545.5 1285.5" stroke="#333333" stroke-width="2.86476" stroke-linecap="round" stroke-linejoin="round" stroke-miterlimit="10" fill="none" fill-rule="evenodd"/><path d="M1495.5 1150.5C1504.07 1165.83 1526.93 1196.5 1565.5 1188.83" stroke="#333333" stroke-width="2.86476" stroke-linecap="round" stroke-linejoin="round" stroke-miterlimit="10" fill="none" fill-rule="evenodd"/><path d="M1277.5 1778.5C1296.03 1739.02 1340.23 1720.8 1373.02 1704.09 1421.5 1678.28 1400.11 1661.57 1398.69 1655.5" stroke="#333333" stroke-width="2.86476" stroke-linecap="round" stroke-linejoin="round" stroke-miterlimit="10" fill="none" fill-rule="evenodd"/><path d="M1347.49 2033.71C1175.86 1992.48 1111.5 1839.8 1155.84 1578.73 1180.15 1429.1 1210.19 1206.19 1180.15 992.444 1164.42 879.463 1181.58 783.276 1230.21 722.205 1267.4 677.928 1318.89 653.5 1380.39 653.5 1440.46 653.5 1519.12 665.714 1584.92 758.847 1657.86 859.615 1702.2 1041.3 1716.5 1299.33 1716.5 1308.49 1716.5 1319.17 1716.5 1328.33 1716.5 1648.96 1650.71 1888.66 1536.29 1987.9 1481.94 2035.23 1419.01 2050.5 1347.49 2033.71Z" stroke="#333333" stroke-width="2.86476" stroke-linecap="round" stroke-linejoin="round" stroke-miterlimit="10" fill="none" fill-rule="evenodd"/><path d="M1204.39 887.81C1204.39 816.003 1228.76 761.002 1274.65 725.862 1337.75 678.5 1422.35 681.556 1476.84 702.945 1574.35 744.196 1631.71 922.95 1637.44 942.811 1640.31 953.506 1640.31 961.145 1637.44 962.673 1620.24 971.839 1578.65 977.951 1537.07 984.062 1471.1 993.229 1440.99 999.34 1433.82 1010.03 1432.39 1013.09 1432.39 1016.15 1432.39 1017.67 1436.69 1037.54 1479.71 1032.95 1570.05 1019.2 1600.16 1013.09 1630.27 1008.51 1646.05 1008.51 1654.65 1008.51 1656.08 1013.09 1657.52 1017.67 1657.52 1019.2 1657.52 1019.2 1657.52 1019.2 1674.73 1074.2 1689.07 1205.59 1690.5 1256.01 1690.5 1266.71 1687.63 1274.35 1681.9 1274.35 1667.56 1277.4 1643.18 1275.87 1618.8 1272.82 1580.08 1269.76 1557.14 1268.23 1548.54 1275.87 1547.1 1278.93 1545.67 1281.98 1545.67 1285.04 1547.1 1304.9 1582.95 1307.96 1637.44 1312.54 1653.22 1312.54 1667.56 1314.07 1677.59 1315.6 1684.76 1317.12 1687.63 1321.71 1687.63 1330.87 1689.07 1372.13 1690.5 1446.99 1686.2 1483.66 1684.76 1494.35 1681.9 1497.41 1681.9 1497.41 1680.46 1498.93 1677.59 1498.93 1674.73 1497.41 1671.86 1497.41 1671.86 1497.41 1671.86 1497.41 1628.84 1494.35 1492.61 1476.02 1402.27 1462.27 1321.97 1451.57 1321.97 1451.57 1321.97 1451.57 1301.9 1450.04 1288.99 1454.63 1287.56 1463.79 1286.12 1474.49 1299.03 1482.13 1319.1 1485.18 1386.5 1495.88 1386.5 1495.88 1386.5 1495.88 1472.54 1508.1 1618.8 1527.96 1670.42 1540.18 1680.46 1541.71 1680.46 1555.46 1679.03 1563.1 1666.12 1694.49 1614.5 1853.39 1587.25 1874.77 1562.88 1893.11 1430.95 1830.47 1367.86 1799.91 1324.84 1780.05 1324.84 1780.05 1324.84 1780.05 1314.8 1776.99 1283.25 1764.77 1277.52 1778.52 1273.22 1789.22 1286.12 1801.44 1314.8 1815.19 1343.48 1830.47 1396.54 1853.39 1442.42 1873.25 1484.01 1891.58 1524.16 1908.39 1539.93 1917.55 1545.67 1920.61 1547.1 1926.72 1545.67 1932.83 1542.8 1952.69 1514.12 1992.42 1446.73 2006.17 1364.99 2024.5 1281.82 1992.42 1218.73 1919.08 1161.37 1853.39 1158.5 1680.74 1172.84 1628.8 1172.84 1628.8 1174.27 1627.27 1174.27 1627.27 1175.71 1619.63 1177.14 1615.05 1191.48 1618.1 1220.16 1622.69 1281.82 1633.38 1342.05 1644.08 1419.48 1657.83 1494.05 1671.58 1509.82 1673.1 1529.9 1674.63 1539.93 1665.46 1539.93 1656.3 1539.93 1656.3 1539.93 1656.3 1539.93 1656.3 1539.93 1647.13 1532.76 1639.49 1516.99 1636.44 1402.27 1618.1 1243.1 1590.6 1192.92 1566.16 1192.92 1566.16 1191.48 1566.16 1191.48 1566.16 1188.61 1564.63 1184.31 1561.57 1184.31 1550.88 1184.31 1549.35 1184.31 1546.3 1185.75 1543.24 1187.18 1508.1 1198.65 1436.29 1210.12 1405.74 1214.42 1395.04 1218.73 1395.04 1224.46 1396.57 1227.33 1396.57 1227.33 1396.57 1227.33 1396.57 1227.33 1396.57 1270.35 1399.63 1270.35 1399.63 1389.37 1407.27 1439.56 1408.79 1442.42 1388.93 1439.56 1381.29 1439.56 1381.29 1439.56 1381.29 1430.95 1370.6 1396.54 1367.54 1336.31 1364.49 1291.86 1361.43 1241.67 1358.38 1224.46 1349.21 1220.16 1344.62 1218.73 1335.46 1218.73 1332.4 1217.29 1324.76 1217.29 1318.65 1217.29 1311.01 1217.29 1297.26 1218.73 1281.98 1223.03 1254.48 1224.46 1242.26 1224.46 1242.26 1224.46 1242.26 1225.9 1230.04 1227.33 1222.4 1230.2 1219.34 1231.63 1216.29 1237.37 1216.29 1247.41 1214.76 1270.35 1210.18 1270.35 1210.18 1270.35 1210.18 1323.41 1201.01 1323.41 1201.01 1323.41 1201.01 1459.63 1179.62 1496.92 1168.93 1496.92 1153.65 1496.92 1153.65 1496.92 1153.65 1496.92 1153.65 1494.05 1147.54 1494.05 1147.54 1494.05 1147.54 1484.01 1138.37 1436.69 1144.48 1337.75 1161.29 1294.73 1167.4 1241.67 1175.04 1234.5 1173.51 1225.9 1168.93 1224.46 1164.34 1223.03 1126.15 1221.59 1086.43 1221.59 1086.43 1221.59 1086.43 1220.16 1054.34 1217.29 1029.9 1214.42 1013.09 1211.56 991.701 1208.69 979.478 1212.99 971.839 1218.73 961.145 1267.48 951.978 1303.33 944.339 1324.84 939.755 1344.92 935.172 1360.69 930.589 1375.03 926.005 1396.54 921.422 1419.48 916.838 1489.75 900.032 1537.07 887.81 1545.67 874.06 1547.1 869.476 1547.1 866.421 1547.1 864.893 1541.37 845.031 1501.22 855.726 1422.35 877.115 1359.25 893.921 1359.25 893.921 1359.25 893.921 1253.14 918.366 1217.29 913.783 1207.25 906.144 1205.82 903.088 1204.39 901.56 1204.39 898.505 1204.39 895.449 1204.39 892.393 1204.39 887.81Z" stroke="#333333" stroke-width="2.86476" stroke-linecap="round" stroke-linejoin="round" stroke-miterlimit="10" fill="none" fill-rule="evenodd"/><path d="M1392.5 1106.5C1392.5 1108 1395.07 1118.5 1398.93 1114 1401.5 1111 1396.36 1103.5 1395.07 1100.5" stroke="#FDDBDF" stroke-width="2.86476" stroke-miterlimit="8" fill="none" fill-rule="evenodd"/><path d="M1506.5 1241.07C1503.5 1242.64 1506.5 1250.5 1509.5 1250.5 1512.5 1248.93 1512.5 1242.64 1511 1239.5" stroke="#FDDBDF" stroke-width="2.86476" stroke-miterlimit="8" fill="none" fill-rule="evenodd"/><path d="M1564 1187.83C1564 1186.39 1562.5 1186.39 1562.5 1186.39 1562.5 1187.83 1565.5 1196.5 1561 1196.5 1556.5 1196.5 1558 1184.94 1558 1183.5" stroke="#FDDBDF" stroke-width="2.86476" stroke-miterlimit="8" fill="none" fill-rule="evenodd"/><path d="M1555 1350.94C1556.5 1347.83 1556.5 1340.06 1552 1338.5 1547.5 1338.5 1549 1349.39 1549 1352.5" stroke="#FDDBDF" stroke-width="2.86476" stroke-miterlimit="8" fill="none" fill-rule="evenodd"/><path d="M1607.83 917C1610.5 912.5 1609.17 908 1606.5 906.5 1602.5 908 1603.83 914 1602.5 918.5" stroke="#FDDBDF" stroke-width="2.86476" stroke-miterlimit="8" fill="none" fill-rule="evenodd"/></g></svg>