<svg width="908" height="519" xmlns="http://www.w3.org/2000/svg" xmlns:xlink="http://www.w3.org/1999/xlink" xml:space="preserve" overflow="hidden"><g transform="translate(-2748 -1480)"><path d="M2750 1696.85C2750 1880.74 2920.09 1992.67 3201.5 1995.33 3482.9 1998 3663 1891.4 3651.74 1690.19 3637.99 1445 3344.08 1503.63 3167.73 1487.64 2940.1 1466.32 2750 1512.96 2750 1696.85Z" fill="#CEDFCB" fill-rule="evenodd"/><path d="M3628.25 1691.67C3623.25 1591.67 3566.98 1547.67 3478.21 1529 3460.7 1525 3456.95 1543.67 3458.2 1555.67 3460.7 1602.33 3458.2 1666.33 3454.45 1689 3453.2 1693 3449.45 1695.67 3444.45 1695.67 3440.69 1694.33 3436.94 1690.33 3438.19 1685 3443.2 1657 3445.7 1590.33 3441.94 1550.33 3440.69 1538.33 3433.19 1521 3409.44 1519.67 3371.92 1517 3329.41 1515.67 3283.15 1515.67 3241.89 1514.33 3201.87 1514.33 3166.86 1511.67 3110.6 1506.33 3059.33 1505 3014.32 1509 3001.82 1509 2971.81 1511.67 2968.06 1547.67 2963.06 1586.33 2969.31 1635.67 2975.56 1662.33 2975.56 1666.33 2973.06 1671.67 2969.31 1673 2964.31 1673 2960.55 1670.33 2959.3 1666.33 2959.3 1662.33 2946.8 1602.33 2951.8 1551.67 2953.05 1538.33 2950.55 1515.67 2926.79 1522.33 2880.53 1534.33 2844.27 1553 2818.01 1578.33 2788 1609 2773 1647.67 2773 1697 2773 1830.33 2871.78 1922.33 3044.33 1957 3068.09 1961 3073.09 1941 3073.09 1927.67 3070.59 1879.67 3075.59 1811.67 3084.34 1785 3085.59 1779.67 3089.34 1777 3094.34 1778.33 3098.09 1781 3100.6 1785 3099.34 1790.33 3089.34 1819.67 3085.59 1899.67 3089.34 1941 3089.34 1951.67 3094.34 1963.67 3120.6 1967.67 3145.61 1970.33 3173.12 1971.67 3201.87 1971.67 3374.43 1973 3506.96 1933 3575.73 1855.67 3614.49 1811.67 3632 1757 3628.25 1691.67Z" fill="#FCE6E6" fill-rule="evenodd"/><path d="M2951.75 1551.67C2953 1538.33 2950.5 1515.67 2926.75 1522.33 2880.5 1534.33 2844.25 1553 2818 1578.33 2788 1609 2773 1647.67 2773 1697 2773 1798.33 2830.5 1875.67 2934.25 1922.33 2885.5 1895.67 2806.75 1806.33 2808 1714.33 2809.25 1613 2935.5 1551.67 2953 1629 2950.5 1606.33 2949.25 1578.33 2951.75 1551.67ZM3409.25 1519.67C3371.75 1517 3329.25 1515.67 3283 1515.67 3241.75 1514.33 3201.75 1514.33 3166.75 1511.67 3110.5 1506.33 3059.25 1505 3014.25 1509 3001.75 1509 2971.75 1511.67 2968 1547.67 2963 1585 2969.25 1633 2974.25 1659.67 2985.5 1627.67 3000.5 1621 3048 1618.33 3026.75 1614.33 3038 1570.33 3073 1561 3108 1551.67 3131.75 1571.67 3236.75 1563.67 3341.75 1555.67 3379.25 1554.33 3395.5 1582.33 3413 1609 3405.5 1639.67 3366.75 1651.67 3395.5 1647.67 3423 1667.67 3438 1686.33 3438 1685 3438 1685 3438 1685 3443 1657 3445.5 1590.33 3441.75 1550.33 3440.5 1538.33 3433 1521 3409.25 1519.67ZM2950.5 1929C2950.5 1929 2950.5 1929 2950.5 1929 2950.5 1929 2950.5 1929 2950.5 1929 2950.5 1929 2950.5 1929 2950.5 1929ZM3628 1691.67C3623 1591.67 3566.75 1547.67 3478 1529 3460.5 1525 3456.75 1543.67 3458 1555.67 3460.5 1602.33 3458 1666.33 3454.25 1689 3454.25 1689 3478 1658.33 3480.5 1621 3484.25 1583.67 3524.25 1578.33 3556.75 1622.33 3586.75 1663.67 3643 1725 3583 1846.33 3616.75 1803.67 3631.75 1753 3628 1691.67Z" fill="#FBDCDD" fill-rule="evenodd"/><path d="M3028.89 1894.2C2976.36 1922.24 2863.79 1856.8 2823.76 1792.69 2805 1816.73 2805 1816.73 2805 1816.73 2847.53 1884.85 2930.08 1934.27 3043.9 1956.97 3067.66 1960.98 3072.66 1940.94 3072.66 1927.59 3071.41 1902.21 3072.66 1871.49 3073.92 1844.78 3065.16 1862.14 3051.4 1880.84 3028.89 1894.2ZM3613 1790.01C3520.44 1938.27 3211.5 1902.21 3155.22 1891.52 3098.93 1882.17 3105.18 1819.4 3098.93 1790.01 3088.92 1819.4 3085.17 1899.54 3088.92 1940.94 3088.92 1951.63 3093.93 1963.65 3120.19 1967.66 3145.21 1970.33 3172.73 1971.66 3201.49 1971.66 3374.1 1973 3506.68 1932.93 3575.47 1855.46 3594.24 1834.09 3609.24 1808.71 3618 1782 3615.5 1784.67 3614.25 1787.34 3613 1790.01Z" fill="#FBDCDD" fill-rule="evenodd"/><path d="M2848.14 1587C2914.3 1551 2943.01 1547 2950.5 1587 2950.5 1575 2950.5 1561.67 2951.75 1551 2953 1537.67 2950.5 1515 2926.79 1521.67 2880.6 1533.67 2844.4 1552.33 2818.18 1577.67 2788.22 1608.33 2773.24 1647 2773.24 1696.33 2773.24 1715 2774.49 1733.67 2779.48 1751 2767 1681.67 2793.21 1616.33 2848.14 1587Z" fill="#F8CED0" fill-rule="evenodd"/><path d="M2934 1520.96C2950.26 1572.83 2950.26 1572.83 2950.26 1572.83 2950.26 1564.85 2950.26 1558.2 2951.51 1551.55 2952.76 1539.58 2950.26 1519.63 2934 1520.96ZM3441.75 1550.22C3440.5 1538.25 3433 1520.96 3409.23 1519.63 3371.72 1516.97 3329.19 1515.64 3282.92 1515.64 3241.65 1514.31 3201.63 1514.31 3166.61 1511.65 3110.34 1506.33 3059.06 1505 3014.04 1508.99 3001.53 1508.99 2971.52 1511.65 2967.77 1547.56 2964.01 1575.49 2966.52 1608.74 2970.27 1635.34 2971.52 1638 2971.52 1638 2971.52 1638 2965.27 1591.45 2975.27 1547.56 3009.04 1536.92 3042.8 1526.28 3067.82 1524.95 3125.34 1530.27 3181.62 1536.92 3204.13 1539.58 3267.91 1536.92 3332.95 1534.26 3385.47 1542.24 3411.73 1543.57 3430.49 1544.9 3439.25 1568.84 3443 1598.1 3443 1580.81 3443 1563.52 3441.75 1550.22Z" fill="#F8CED0" fill-rule="evenodd"/><path d="M3629 1701C3629 1698.33 3629 1695.67 3627.75 1691.67 3622.73 1591.67 3566.32 1547.67 3477.31 1529 3459.76 1525 3456 1543.67 3457.25 1555.67 3458.51 1573 3458.51 1591.67 3458.51 1610.33 3462.27 1582.33 3466.03 1557 3481.07 1554.33 3501.13 1551.67 3595.15 1565 3629 1701Z" fill="#F8CED0" fill-rule="evenodd"/><path d="M3153.61 1947.41C3088.58 1940.75 3087.33 1875.58 3091.08 1837 3091.08 1837 3091.08 1837 3091.08 1837 3087.33 1871.58 3086.08 1914.15 3088.58 1940.75 3088.58 1951.4 3093.58 1963.37 3119.84 1967.36 3144.85 1970.02 3172.36 1971.35 3201.12 1971.35 3373.68 1972.68 3506.23 1932.77 3575 1855.62 3442.45 1978 3218.63 1954.06 3153.61 1947.41ZM3071.08 1875.58C3064.83 1902.18 3064.83 1912.82 3017.31 1922.13 2973.54 1931.44 2893.52 1890.21 2846 1866.26 2892.27 1908.83 2959.79 1939.42 3043.57 1956.72 3067.33 1960.71 3072.33 1940.75 3072.33 1927.45 3071.08 1911.49 3071.08 1892.87 3072.33 1874.25L3071.08 1875.58Z" fill="#F8CED0" fill-rule="evenodd"/><path d="M2877 1522C2900.72 1509.88 2963.13 1491.04 3060.5 1489.69 3156.62 1487 3190.32 1497.77 3244 1496.42 3201.56 1503.15 3074.23 1493.73 3051.76 1496.42 3028.04 1499.12 2928.18 1501.81 2877 1522Z" fill="#FFFFFF" fill-rule="evenodd"/><path d="M3093 1782C3086.67 1782 3084.13 1787.36 3081.6 1808.8 3077.8 1830.24 3074 1891.88 3076.53 1916 3077.8 1889.2 3084.13 1812.82 3086.67 1802.1 3089.2 1787.36 3090.47 1782 3093 1782Z" fill="#FFFFFF" fill-rule="evenodd"/><path d="M3447.4 1582C3451 1603.49 3446.2 1659.91 3445 1672" fill="#FFFFFF" fill-rule="evenodd"/><path d="M3385 1959C3420.11 1951.01 3606.92 1915.07 3632 1742 3624.48 1823.21 3581.85 1927.05 3385 1959Z" fill="#FFFFFF" fill-rule="evenodd"/><path d="M2750.5 1697.35C2750.5 1881.24 2920.59 1993.17 3202 1995.83 3483.4 1998.5 3663.5 1891.9 3652.24 1690.69 3638.49 1445.5 3344.58 1504.13 3168.23 1488.14 2940.6 1466.82 2750.5 1513.46 2750.5 1697.35Z" stroke="#58585A" stroke-width="5.15643" stroke-linecap="round" stroke-linejoin="round" stroke-miterlimit="10" fill="none" fill-rule="evenodd"/><path d="M3628.25 1691.67C3623.25 1591.67 3566.98 1547.67 3478.21 1529 3460.7 1525 3456.95 1543.67 3458.2 1555.67 3460.7 1602.33 3458.2 1666.33 3454.45 1689 3453.2 1693 3449.45 1695.67 3444.45 1695.67 3440.69 1694.33 3436.94 1690.33 3438.19 1685 3443.2 1657 3445.7 1590.33 3441.94 1550.33 3440.69 1538.33 3433.19 1521 3409.44 1519.67 3371.92 1517 3329.41 1515.67 3283.15 1515.67 3241.89 1514.33 3201.87 1514.33 3166.86 1511.67 3110.6 1506.33 3059.33 1505 3014.32 1509 3001.82 1509 2971.81 1511.67 2968.06 1547.67 2963.06 1586.33 2969.31 1635.67 2975.56 1662.33 2975.56 1666.33 2973.06 1671.67 2969.31 1673 2964.31 1673 2960.55 1670.33 2959.3 1666.33 2959.3 1662.33 2946.8 1602.33 2951.8 1551.67 2953.05 1538.33 2950.55 1515.67 2926.79 1522.33 2880.53 1534.33 2844.27 1553 2818.01 1578.33 2788 1609 2773 1647.67 2773 1697 2773 1830.33 2871.78 1922.33 3044.33 1957 3068.09 1961 3073.09 1941 3073.09 1927.67 3070.59 1879.67 3075.59 1811.67 3084.34 1785 3085.59 1779.67 3089.34 1777 3094.34 1778.33 3098.09 1781 3100.6 1785 3099.34 1790.33 3089.34 1819.67 3085.59 1899.67 3089.34 1941 3089.34 1951.67 3094.34 1963.67 3120.6 1967.67 3145.61 1970.33 3173.12 1971.67 3201.87 1971.67 3374.43 1973 3506.96 1933 3575.73 1855.67 3614.49 1811.67 3632 1757 3628.25 1691.67Z" stroke="#58585A" stroke-width="2.29167" stroke-linecap="round" stroke-linejoin="round" stroke-miterlimit="10" fill="none" fill-rule="evenodd"/><path d="M2975 1665C2976.26 1623.67 3025.34 1617 3048 1618.33" stroke="#58585A" stroke-width="2.29167" stroke-linecap="round" stroke-linejoin="round" stroke-miterlimit="10" fill="none" fill-rule="evenodd"/><path d="M3359 1654.67C3381.5 1640 3430.25 1670.67 3439 1692" stroke="#58585A" stroke-width="2.29167" stroke-linecap="round" stroke-linejoin="round" stroke-miterlimit="10" fill="none" fill-rule="evenodd"/><path d="M3099 1785C3105.14 1805 3111.29 1889 3142 1882.33" stroke="#58585A" stroke-width="2.29167" stroke-linecap="round" stroke-linejoin="round" stroke-miterlimit="10" fill="none" fill-rule="evenodd"/><path d="M3044 1613C3041.33 1617.09 3040 1622.55 3041.33 1628" stroke="#FCE6E6" stroke-width="4.0106" stroke-linecap="round" stroke-linejoin="round" stroke-miterlimit="10" fill="none" fill-rule="evenodd"/><path d="M3364 1646.67C3364 1650.67 3366.46 1654.67 3367.69 1657.33 3367.69 1654.67 3370.15 1646.67 3370.15 1644 3380 1645.33 3380 1658.67 3378.77 1668" stroke="#FCE6E6" stroke-width="4.0106" stroke-linecap="round" stroke-linejoin="round" stroke-miterlimit="10" fill="none" fill-rule="evenodd"/><path d="M3141 1884C3141 1879.71 3141 1878.29 3138.75 1874 3135.38 1875.43 3134.25 1878.29 3132 1882.57" stroke="#FCE6E6" stroke-width="4.0106" stroke-linecap="round" stroke-linejoin="round" stroke-miterlimit="10" fill="none" fill-rule="evenodd"/></g></svg>