<svg width="760" height="1460" xmlns="http://www.w3.org/2000/svg" xmlns:xlink="http://www.w3.org/1999/xlink" xml:space="preserve" overflow="hidden"><g transform="translate(-1934 -572)"><path d="M2624.14 1519.08C2618.7 1493.93 2600.55 1488.13 2580.58 1490.06 2527.94 1492 2428.11 1501.67 2362.77 1544.23 2357.32 1548.1 2348.25 1546.17 2344.62 1540.36 2340.99 1532.62 2344.62 1524.88 2350.06 1521.02 2415.41 1478.45 2509.79 1466.85 2566.06 1462.98 2586.03 1462.98 2607.81 1451.37 2600.55 1420.41 2589.66 1372.05 2580.58 1321.75 2576.95 1267.58 2573.32 1225.02 2578.77 1168.91 2584.21 1105.07 2589.66 1045.1 2593.29 985.122 2593.29 930.953 2593.29 917.41 2591.47 888.391 2567.88 882.587 2533.39 870.979 2489.83 859.371 2471.67 865.175 2464.41 867.11 2457.15 863.241 2455.34 855.502 2453.52 847.764 2457.15 840.025 2464.41 838.09 2486.2 832.286 2529.76 841.96 2560.61 851.633 2573.32 855.502 2591.47 845.829 2587.84 822.613 2575.14 720.078 2535.2 646.562 2442.63 623.346 2362.77 604 2286.53 619.477 2219.38 667.843 2137.7 727.816 2070.54 836.156 2026.97 971.58 2019.71 996.73 2041.49 1004.47 2056.02 1002.53 2141.33 996.73 2241.16 1019.95 2262.94 1027.68 2270.2 1029.62 2273.83 1037.36 2270.2 1043.16 2268.38 1050.9 2261.12 1054.77 2255.68 1052.83 2230.27 1043.16 2128.62 1023.82 2048.76 1031.55 2021.53 1033.49 2005.19 1048.97 1997.93 1087.66 1992.49 1110.87 1988.86 1134.09 1987.04 1159.24 1958 1370.11 1974.34 1642.9 2065.09 1817.01 2077.8 1842.16 2099.58 1844.1 2121.36 1840.23 2174 1824.75 2270.2 1784.13 2311.95 1758.98 2317.39 1755.11 2324.65 1757.04 2328.28 1762.84 2331.91 1768.65 2330.1 1778.32 2324.65 1782.19 2290.16 1803.47 2195.78 1847.97 2134.07 1863.45 2115.91 1869.25 2106.84 1884.73 2124.99 1904.07 2170.37 1952.44 2226.64 1981.46 2288.35 1985.33 2424.48 1995 2522.5 1973.72 2578.77 1919.55 2624.14 1876.99 2645.92 1817.01 2651.37 1731.89 2655 1656.44 2640.48 1588.73 2624.14 1519.08Z" fill="#FCE6E6" fill-rule="evenodd"/><path d="M2452.15 585.785C2181.3 518 1995.89 808.506 1950.44 1153.24 1905 1497.97 1974.08 2001.52 2286.73 2024.76 2599.39 2048 2679.37 1902.75 2688.46 1734.25 2697.55 1567.7 2624.84 1439.87 2613.93 1265.57 2603.03 1091.27 2723 653.57 2452.15 585.785Z" fill="#CEDFCB" fill-rule="evenodd"/><path d="M2624.14 1519.08C2618.7 1493.93 2600.55 1488.13 2580.58 1490.06 2527.94 1492 2428.11 1501.67 2362.77 1544.23 2357.32 1548.1 2348.25 1546.17 2344.62 1540.36 2340.99 1532.62 2344.62 1524.88 2350.06 1521.02 2415.41 1478.45 2509.79 1466.85 2566.06 1462.98 2586.03 1462.98 2607.81 1451.37 2600.55 1420.41 2589.66 1372.05 2580.58 1321.75 2576.95 1267.58 2573.32 1225.02 2578.77 1168.91 2584.21 1105.07 2589.66 1045.1 2593.29 985.122 2593.29 930.953 2593.29 917.41 2591.47 888.391 2567.88 882.587 2533.39 870.979 2489.83 859.371 2471.67 865.175 2464.41 867.11 2457.15 863.241 2455.34 855.502 2453.52 847.764 2457.15 840.025 2464.41 838.09 2486.2 832.286 2529.76 841.96 2560.61 851.633 2573.32 855.502 2591.47 845.829 2587.84 822.613 2575.14 720.078 2535.2 646.562 2442.63 623.346 2362.77 604 2286.53 619.477 2219.38 667.843 2137.7 727.816 2070.54 836.156 2026.97 971.58 2019.71 996.73 2041.49 1004.47 2056.02 1002.53 2141.33 996.73 2241.16 1019.95 2262.94 1027.68 2270.2 1029.62 2273.83 1037.36 2270.2 1043.16 2268.38 1050.9 2261.12 1054.77 2255.68 1052.83 2230.27 1043.16 2128.62 1023.82 2048.76 1031.55 2021.53 1033.49 2005.19 1048.97 1997.93 1087.66 1992.49 1110.87 1988.86 1134.09 1987.04 1159.24 1958 1370.11 1974.34 1642.9 2065.09 1817.01 2077.8 1842.16 2099.58 1844.1 2121.36 1840.23 2174 1824.75 2270.2 1784.13 2311.95 1758.98 2317.39 1755.11 2324.65 1757.04 2328.28 1762.84 2331.91 1768.65 2330.1 1778.32 2324.65 1782.19 2290.16 1803.47 2195.78 1847.97 2134.07 1863.45 2115.91 1869.25 2106.84 1884.73 2124.99 1904.07 2170.37 1952.44 2226.64 1981.46 2288.35 1985.33 2424.48 1995 2522.5 1973.72 2578.77 1919.55 2624.14 1876.99 2645.92 1817.01 2651.37 1731.89 2655 1656.44 2640.48 1588.73 2624.14 1519.08Z" fill="#FCE6E6" fill-rule="evenodd"/><path d="M2155.74 1207.6C2155.74 1207.6 2155.74 1207.6 2155.74 1207.6 2155.74 1207.6 2155.74 1207.6 2155.74 1207.6ZM2181.14 925.149C2181.14 882.587 2210.17 766.509 2329.9 708.47 2438.75 656.235 2554.85 720.078 2583.88 805.202 2569.36 712.339 2529.45 646.562 2442.37 623.346 2362.55 604 2286.36 619.477 2219.24 667.843 2137.6 727.816 2070.48 836.156 2026.94 971.58 2019.68 996.73 2041.45 1004.47 2055.96 1002.53 2141.23 996.73 2241.01 1019.95 2262.77 1027.68 2270.03 1029.62 2273.66 1037.36 2270.03 1043.16 2280.92 1012.21 2181.14 967.711 2181.14 925.149ZM2230.12 1799.6C2201.09 1803.47 2168.44 1799.6 2133.97 1780.26 2043.26 1729.96 2043.26 1292.73 2057.78 1230.82 2072.29 1168.91 2144.86 1126.35 2155.74 1207.6 2153.93 1201.8 2152.11 1172.78 2199.28 1137.96 2250.08 1099.27 2260.96 1076.05 2270.03 1043.16 2268.22 1050.9 2260.96 1054.77 2255.52 1052.83 2230.12 1043.16 2128.53 1023.82 2048.71 1031.55 2021.49 1033.49 2005.17 1048.97 1997.91 1087.66 1992.47 1110.87 1988.84 1134.09 1987.03 1159.24 1958 1370.11 1974.33 1642.9 2065.03 1817.01 2077.73 1842.16 2099.5 1844.1 2121.27 1840.23 2150.3 1832.49 2192.02 1817.01 2230.12 1799.6ZM2522.2 1900.2C2431.49 1950.5 2286.36 1938.9 2308.13 1904.07 2349.85 1834.43 2335.34 1793.8 2326.27 1778.32 2326.27 1780.26 2324.46 1780.26 2324.46 1782.19 2289.99 1803.47 2195.65 1847.97 2133.97 1863.45 2115.83 1869.25 2106.76 1884.73 2124.9 1904.07 2170.25 1952.44 2226.49 1981.46 2288.17 1985.33 2424.23 1995 2522.2 1973.72 2578.43 1919.55 2623.79 1876.99 2645.56 1817.01 2651 1731.89 2651 1728.02 2651 1724.15 2651 1720.28 2632.86 1817.01 2600.2 1857.64 2522.2 1900.2Z" fill="#FBDCDD" fill-rule="evenodd"/><path d="M2455.59 850C2455.59 851.933 2455.59 853.866 2455.59 855.799 2455.59 853.866 2455.59 851.933 2455.59 850ZM2600.74 1420.27C2589.86 1371.95 2580.78 1321.68 2577.15 1267.56 2573.53 1225.03 2578.97 1168.97 2584.41 1105.17 2589.86 1045.25 2593.48 985.319 2593.48 931.192 2593.48 917.66 2591.67 888.663 2568.08 882.863 2533.61 871.265 2490.06 859.666 2471.92 865.465 2464.66 867.398 2457.4 863.532 2455.59 855.799 2464.66 886.73 2479.18 933.125 2464.66 956.322 2497.32 964.055 2519.09 933.125 2544.49 971.787 2569.9 1010.45 2529.98 1107.11 2526.35 1211.5 2522.72 1315.88 2548.12 1408.67 2519.09 1431.87 2500.95 1447.34 2464.66 1464.74 2432 1486 2480.99 1470.53 2529.98 1464.74 2566.27 1462.8 2586.23 1462.8 2608 1451.2 2600.74 1420.27Z" fill="#FBDCDD" fill-rule="evenodd"/><path d="M2651 1680C2647.37 1625.71 2636.49 1573.37 2623.8 1519.08 2623.8 1517.14 2621.99 1515.2 2621.99 1513.27 2616.55 1503.57 2616.55 1503.57 2616.55 1503.57 2607.48 1491.94 2594.79 1490 2580.28 1490 2527.7 1491.94 2427.97 1501.63 2362.69 1544.29 2359.07 1546.22 2355.44 1546.22 2351.81 1544.29 2350 1546.22 2350 1546.22 2350 1546.22 2398.96 1581.12 2411.65 1596.63 2406.21 1641.22 2431.6 1563.67 2504.13 1536.53 2551.27 1536.53 2594.79 1536.53 2631.05 1600.51 2651 1680Z" fill="#FBDCDD" fill-rule="evenodd"/><path d="M2183.29 1818.95C2168.76 1820.88 2139.69 1822.82 2108.8 1813.14 2063.38 1801.54 2017.96 1611.94 2010.69 1426.22 2003.42 1240.49 2021.59 1139.89 2043.39 1091.53 2065.19 1045.1 2146.95 1047.03 2203.28 1041.23 2159.67 1033.49 2099.72 1025.75 2048.84 1031.55 2021.59 1033.49 2005.24 1048.97 1997.97 1087.66 1992.52 1110.87 1988.89 1134.09 1987.07 1159.24 1958 1370.11 1974.35 1642.9 2065.19 1817.01 2077.91 1842.16 2099.72 1844.1 2121.52 1840.23 2139.69 1834.43 2161.49 1826.69 2183.29 1818.95ZM2056.11 1002.53C2114.25 998.665 2179.66 1008.34 2221.44 1016.08 2186.92 994.796 2117.88 973.515 2101.53 958.038 2085.18 938.691 2123.33 820.679 2214.18 722.012 2303.2 625.281 2470.35 611.738 2535.76 681.385 2535.76 681.385 2535.76 681.385 2535.76 681.385 2513.96 654.3 2483.07 634.954 2443.1 623.346 2363.16 604 2286.85 619.477 2219.63 667.843 2137.87 727.816 2070.65 836.156 2027.04 971.58 2019.77 996.73 2041.58 1004.47 2056.11 1002.53ZM2417.67 1971.78C2312.29 1981.46 2221.44 1964.05 2199.64 1906.01 2177.84 1849.9 2259.6 1817.01 2259.6 1817.01 2259.6 1815.08 2259.6 1815.08 2259.6 1815.08 2219.63 1834.43 2170.57 1853.77 2134.24 1863.45 2116.07 1869.25 2106.98 1884.73 2125.15 1904.07 2170.57 1952.44 2226.9 1981.46 2288.67 1985.33 2424.93 1995 2523.04 1973.72 2579.37 1919.55 2581.18 1917.61 2583 1915.68 2583 1915.68 2553.93 1933.09 2492.16 1964.05 2417.67 1971.78Z" fill="#F8CED0" fill-rule="evenodd"/><path d="M2573.97 942.112C2579.43 980.769 2577.61 1075.48 2583.07 1118 2583.07 1114.13 2584.9 1110.27 2584.9 1104.47 2590.36 1044.55 2594 984.634 2594 930.515 2594 916.985 2592.18 887.993 2568.51 882.194 2533.91 870.597 2490.21 859 2472 864.799 2521.16 860.933 2570.33 899.59 2573.97 942.112Z" fill="#F8CED0" fill-rule="evenodd"/><path d="M2600.74 1420.55C2589.86 1377.97 2582.6 1333.45 2578.98 1287 2571.72 1325.71 2578.98 1391.52 2569.91 1426.35 2562.65 1449.58 2549.95 1461.19 2530 1467 2544.51 1465.06 2555.4 1465.06 2566.28 1463.13 2586.23 1463.13 2608 1451.52 2600.74 1420.55Z" fill="#F8CED0" fill-rule="evenodd"/><path d="M1964.97 1550C1903 1178.3 2023.3 895.654 2047 855 1995.96 986.643 1935.81 1228.64 1964.97 1550Z" fill="#FFFFFF" fill-rule="evenodd"/><path d="M2421 1498C2446.41 1480.53 2558.96 1465 2588 1468.88" fill="#FFFFFF" fill-rule="evenodd"/><path d="M2602.51 1395C2613.34 1426.2 2620.56 1469.1 2561 1473 2602.51 1471.05 2635 1463.25 2602.51 1395Z" fill="#FFFFFF" fill-rule="evenodd"/><path d="M2527 849.706C2546.9 851.647 2559.57 861.353 2572.24 859.412 2584.9 857.471 2599.38 853.588 2592.14 807 2603 834.177 2597.57 861.353 2586.71 867.177 2575.86 873 2537.86 857.471 2527 849.706Z" fill="#FFFFFF" fill-rule="evenodd"/><path d="M2165 1837C2186.76 1831.18 2270.17 1805.97 2301 1773" fill="#FFFFFF" fill-rule="evenodd"/><path d="M2452.65 586.285C2181.8 518.5 1996.39 809.006 1950.94 1153.74 1905.5 1498.47 1974.58 2002.02 2287.23 2025.26 2599.89 2048.5 2679.87 1903.25 2688.96 1734.75 2698.05 1568.2 2625.34 1440.37 2614.43 1266.07 2603.53 1091.77 2723.5 654.07 2452.65 586.285Z" stroke="#58585A" stroke-width="7.4481" stroke-linecap="round" stroke-linejoin="round" stroke-miterlimit="10" fill="none" fill-rule="evenodd"/><path d="M2624.14 1519.08C2618.7 1493.93 2600.55 1488.13 2580.58 1490.06 2527.94 1492 2428.11 1501.67 2362.77 1544.23 2357.32 1548.1 2348.25 1546.17 2344.62 1540.36 2340.99 1532.62 2344.62 1524.88 2350.06 1521.02 2415.41 1478.45 2509.79 1466.85 2566.06 1462.98 2586.03 1462.98 2607.81 1451.37 2600.55 1420.41 2589.66 1372.05 2580.58 1321.75 2576.95 1267.58 2573.32 1225.02 2578.77 1168.91 2584.21 1105.07 2589.66 1045.1 2593.29 985.122 2593.29 930.953 2593.29 917.41 2591.47 888.391 2567.88 882.587 2533.39 870.979 2489.83 859.371 2471.67 865.175 2464.41 867.11 2457.15 863.241 2455.34 855.502 2453.52 847.764 2457.15 840.025 2464.41 838.09 2486.2 832.286 2529.76 841.96 2560.61 851.633 2573.32 855.502 2591.47 845.829 2587.84 822.613 2575.14 720.078 2535.2 646.562 2442.63 623.346 2362.77 604 2286.53 619.477 2219.38 667.843 2137.7 727.816 2070.54 836.156 2026.97 971.58 2019.71 996.73 2041.49 1004.47 2056.02 1002.53 2141.33 996.73 2241.16 1019.95 2262.94 1027.68 2270.2 1029.62 2273.83 1037.36 2270.2 1043.16 2268.38 1050.9 2261.12 1054.77 2255.68 1052.83 2230.27 1043.16 2128.62 1023.82 2048.76 1031.55 2021.53 1033.49 2005.19 1048.97 1997.93 1087.66 1992.49 1110.87 1988.86 1134.09 1987.04 1159.24 1958 1370.11 1974.34 1642.9 2065.09 1817.01 2077.8 1842.16 2099.58 1844.1 2121.36 1840.23 2174 1824.75 2270.2 1784.13 2311.95 1758.98 2317.39 1755.11 2324.65 1757.04 2328.28 1762.84 2331.91 1768.65 2330.1 1778.32 2324.65 1782.19 2290.16 1803.47 2195.78 1847.97 2134.07 1863.45 2115.91 1869.25 2106.84 1884.73 2124.99 1904.07 2170.37 1952.44 2226.64 1981.46 2288.35 1985.33 2424.48 1995 2522.5 1973.72 2578.77 1919.55 2624.14 1876.99 2645.92 1817.01 2651.37 1731.89 2655 1656.44 2640.48 1588.73 2624.14 1519.08Z" stroke="#58585A" stroke-width="4.0106" stroke-linecap="round" stroke-linejoin="round" stroke-miterlimit="10" fill="none" fill-rule="evenodd"/><path d="M2345 1541C2366.71 1569.8 2421 1575.56 2406.52 1637" stroke="#58585A" stroke-width="4.0106" stroke-linecap="round" stroke-linejoin="round" stroke-miterlimit="10" fill="none" fill-rule="evenodd"/><path d="M2328 1763C2342.55 1786.13 2348 1849.74 2308 1896" stroke="#58585A" stroke-width="4.0106" stroke-linecap="round" stroke-linejoin="round" stroke-miterlimit="10" fill="none" fill-rule="evenodd"/><path d="M2270.19 1043C2272 1095.14 2219.44 1124.1 2197.69 1141.48 2175.94 1158.86 2156 1183.97 2156 1211" stroke="#58585A" stroke-width="4.0106" stroke-linecap="round" stroke-linejoin="round" stroke-miterlimit="10" fill="none" fill-rule="evenodd"/><path d="M2456 855C2472.31 893.965 2485 917.345 2461.44 968" stroke="#58585A" stroke-width="4.0106" stroke-linecap="round" stroke-linejoin="round" stroke-miterlimit="10" fill="none" fill-rule="evenodd"/><path d="M2308 1891C2310 1892.67 2314 1894.33 2316 1896" stroke="#FCE6E6" stroke-width="5.72917" stroke-linecap="round" stroke-linejoin="round" stroke-miterlimit="10" fill="none" fill-rule="evenodd"/><path d="M2316 1883C2317.8 1887 2321.4 1889 2325 1887" stroke="#FCE6E6" stroke-width="5.72917" stroke-linecap="round" stroke-linejoin="round" stroke-miterlimit="10" fill="none" fill-rule="evenodd"/><path d="M2412 1633C2408.29 1631.14 2402.71 1629.29 2399 1627.43 2400.86 1623.71 2404.57 1620 2410.14 1620" stroke="#FCE6E6" stroke-width="5.72917" stroke-linecap="round" stroke-linejoin="round" stroke-miterlimit="10" fill="none" fill-rule="evenodd"/><path d="M2150 1208C2157.27 1206 2164.55 1204 2170 1202" stroke="#FCE6E6" stroke-width="5.72917" stroke-linecap="round" stroke-linejoin="round" stroke-miterlimit="10" fill="none" fill-rule="evenodd"/><path d="M2466.67 965C2461.33 965 2456 961.25 2456 955.625 2461.33 950 2468.44 950 2472 957.5" stroke="#FCE6E6" stroke-width="5.72917" stroke-linecap="round" stroke-linejoin="round" stroke-miterlimit="10" fill="none" fill-rule="evenodd"/></g></svg>