<svg width="331" height="778" xmlns="http://www.w3.org/2000/svg" xmlns:xlink="http://www.w3.org/1999/xlink" xml:space="preserve" overflow="hidden"><g transform="translate(-2492 -1313)"><path d="M2611.89 2079.74C2517.43 2057.02 2482 1972.87 2506.4 1828.97 2519.79 1746.5 2536.32 1623.63 2519.79 1505.82 2511.13 1443.55 2520.57 1390.53 2547.34 1356.87 2567.81 1332.46 2596.15 1319 2630 1319 2663.06 1319 2706.36 1325.73 2742.57 1377.07 2782.72 1432.61 2807.13 1532.75 2815 1674.97 2815 1680.02 2815 1685.91 2815 1690.96 2815 1867.68 2778.79 1999.8 2715.81 2054.5 2685.89 2080.58 2651.26 2089 2611.89 2079.74Z" fill="#35B679" fill-rule="evenodd"/><path d="M2542.75 1353.32C2515.18 1388.6 2504.15 1443.19 2513.6 1507.03 2530.15 1623.78 2513.6 1745.58 2500.21 1827.89 2475 1974.89 2512.03 2061.4 2610.5 2084.92 2652.26 2095 2688.5 2086.6 2720.01 2058.88 2786.97 2000.93 2824 1860.65 2821.64 1674.18 2821.64 1674.18 2821.64 1674.18 2821.64 1674.18 2813.76 1531.39 2789.34 1429.75 2747.58 1373.48 2708.98 1319.72 2662.5 1313 2630.2 1313 2593.96 1313 2564.02 1327.28 2542.75 1353.32ZM2612.08 2079.04C2517.54 2056.36 2482.09 1972.37 2506.51 1828.73 2519.91 1746.42 2536.45 1623.78 2519.91 1506.19 2511.24 1444.03 2520.69 1391.12 2547.48 1357.52 2567.96 1333.16 2596.32 1319.72 2630.2 1319.72 2663.29 1319.72 2706.62 1326.44 2742.86 1377.68 2783.03 1433.11 2807.46 1533.07 2815.33 1675.02 2815.33 1680.06 2815.33 1685.94 2815.33 1690.98 2815.33 1867.37 2779.09 1999.25 2716.07 2053.84 2686.13 2079.88 2651.47 2088.28 2612.08 2079.04Z" fill="#88E6C8" fill-rule="evenodd"/><path d="M2568.2 1353.9C2548.5 1369.04 2524.86 1398.46 2527.22 1455.64 2527.22 1455.64 2527.22 1455.64 2527.22 1455.64 2527.22 1459 2528.8 1461.52 2531.16 1464.04 2541.41 1472.45 2569.78 1470.77 2620.22 1458.16 2654.89 1448.91 2654.89 1448.91 2654.89 1448.91 2676.17 1443.02 2711.64 1433.78 2715.58 1437.98 2711.64 1443.87 2671.44 1453.11 2650.17 1458.16 2637.56 1460.68 2626.52 1464.04 2617.85 1466.57 2609.18 1468.25 2598.15 1470.77 2586.33 1473.29 2555.59 1480.02 2537.47 1484.22 2532.74 1491.79 2531.16 1495.15 2531.16 1498.51 2531.16 1501.88 2531.16 1506.92 2531.95 1511.97 2532.74 1519.53 2534.31 1528.78 2535.89 1541.39 2536.68 1558.21 2538.25 1580.07 2538.25 1580.07 2538.25 1580.07 2538.25 1601.93 2539.04 1607.81 2546.92 1612.02 2550.86 1614.54 2566.63 1612.02 2607.61 1605.29 2635.19 1601.09 2674.6 1595.2 2686.42 1596.04 2674.6 1602.77 2623.37 1611.18 2598.15 1615.38 2568.99 1619.58 2568.99 1619.58 2568.99 1619.58 2556.38 1622.11 2556.38 1622.11 2556.38 1622.11 2542.19 1624.63 2540.62 1625.47 2538.25 1643.12 2537.47 1649.85 2537.47 1649.85 2537.47 1649.85 2535.1 1664.98 2534.31 1674.23 2534.31 1681.8 2534.31 1686 2534.31 1689.37 2535.1 1693.57 2535.1 1696.93 2535.89 1704.5 2541.41 1708.7 2541.41 1708.7 2541.41 1708.7 2541.41 1708.7 2552.44 1714.59 2579.24 1716.27 2606.03 1717.95 2624.95 1718.79 2650.95 1720.47 2656.47 1723.84 2648.59 1728.88 2594.21 1725.52 2570.57 1723.84 2546.13 1722.16 2546.13 1722.16 2546.13 1722.16 2545.35 1722.16 2545.35 1722.16 2545.35 1722.16 2540.62 1721.32 2535.1 1721.32 2530.37 1731.4 2524.07 1749.06 2517.76 1788.58 2516.97 1809.59 2514.61 1823.05 2521.7 1827.25 2524.07 1828.09 2524.07 1828.09 2524.07 1828.09 2524.07 1828.09 2553.23 1842.38 2640.71 1856.68 2704.55 1867.61 2710.06 1868.45 2711.64 1870.13 2711.64 1871.81 2711.64 1872.65 2708.49 1875.17 2702.18 1874.33 2693.51 1873.49 2650.95 1865.93 2609.97 1858.36 2576.87 1852.47 2542.98 1846.59 2527.22 1844.07 2513.82 1841.54 2511.46 1849.95 2510.67 1854.15 2510.67 1855 2510.67 1855 2510.67 1855 2502 1884.42 2503.58 1982.79 2536.68 2021.47 2572.93 2063.5 2621.01 2082 2668.29 2071.07 2704.55 2063.5 2725.04 2041.64 2727.4 2024.83 2727.4 2023.15 2727.4 2022.31 2727.4 2021.47 2727.4 2016.42 2725.04 2012.22 2721.1 2009.69 2711.64 2004.65 2690.36 1995.4 2666.72 1985.31 2641.5 1973.54 2612.34 1960.93 2597.36 1953.36 2586.33 1948.32 2582.39 1944.12 2580.81 1942.43 2583.18 1942.43 2587.9 1942.43 2597.36 1946.64 2621.01 1957.57 2621.01 1957.57 2621.01 1957.57 2676.96 1984.47 2732.92 2008.85 2747.1 1997.92 2766.02 1982.79 2793.6 1891.15 2800.7 1821.37 2800.7 1819.68 2800.7 1818.84 2800.7 1817.16 2800.7 1807.91 2797.54 1802.03 2791.24 1801.19 2762.08 1795.3 2681.69 1783.53 2634.4 1776.81 2598.15 1770.92 2598.15 1770.92 2598.15 1770.92 2590.27 1770.08 2587.12 1768.4 2586.33 1766.72 2587.12 1766.72 2591.06 1765.03 2597.36 1765.88 2641.5 1771.76 2641.5 1771.76 2641.5 1771.76 2691.15 1778.49 2766.81 1789.42 2790.45 1791.1 2791.24 1791.1 2791.24 1791.1 2791.24 1791.1 2793.6 1791.94 2796.75 1791.94 2799.91 1789.42 2802.27 1787.73 2803.85 1783.53 2804.64 1777.65 2805.42 1765.88 2806.21 1747.38 2806.21 1728.88 2806.21 1715.43 2806.21 1701.98 2805.42 1691.89 2805.42 1680.96 2798.33 1678.44 2794.39 1677.6 2788.87 1676.76 2780.99 1675.91 2772.32 1675.91 2758.93 1675.07 2728.98 1672.55 2727.4 1667.51 2731.34 1664.98 2748.68 1666.67 2761.29 1667.51 2774.69 1669.19 2788.87 1670.03 2796.75 1668.35 2803.85 1667.51 2807 1660.78 2807 1651.53 2806.21 1622.11 2798.33 1550.64 2788.09 1518.69 2788.09 1518.69 2788.09 1518.69 2788.09 1518.69 2787.3 1516.17 2785.72 1508.6 2775.48 1508.6 2766.81 1508.6 2750.26 1511.97 2733.71 1514.49 2713.21 1517.85 2670.66 1524.58 2665.93 1519.53 2669.87 1515.33 2698.24 1511.13 2717.16 1508.6 2740.01 1504.4 2764.44 1501.04 2773.9 1495.99 2777.84 1493.47 2779.42 1490.11 2779.42 1485.9 2779.42 1482.54 2777.84 1479.18 2777.05 1477.5 2773.9 1465.72 2741.59 1364.83 2684.84 1341.29 2654.11 1327.84 2604.46 1327 2568.2 1353.9Z" fill="#B08FA1" fill-rule="evenodd"/><path d="M2533.19 1449.23C2533.19 1409.7 2546.57 1379.42 2571.75 1360.07 2606.38 1334 2652.82 1335.68 2682.73 1347.46 2736.25 1370.17 2767.73 1468.57 2770.88 1479.51 2772.45 1485.4 2772.45 1489.6 2770.88 1490.44 2761.43 1495.49 2738.61 1498.85 2715.78 1502.22 2679.58 1507.26 2663.05 1510.63 2659.12 1516.52 2658.33 1518.2 2658.33 1519.88 2658.33 1520.72 2660.69 1531.66 2684.3 1529.13 2733.89 1521.56 2750.42 1518.2 2766.94 1515.68 2775.6 1515.68 2780.32 1515.68 2781.11 1518.2 2781.9 1520.72 2781.9 1521.56 2781.9 1521.56 2781.9 1521.56 2791.34 1551.84 2799.21 1624.18 2800 1651.93 2800 1657.82 2798.43 1662.03 2795.28 1662.03 2787.41 1663.71 2774.03 1662.87 2760.65 1661.18 2739.4 1659.5 2726.8 1658.66 2722.08 1662.87 2721.29 1664.55 2720.51 1666.23 2720.51 1667.91 2721.29 1678.85 2740.97 1680.53 2770.88 1683.05 2779.54 1683.05 2787.41 1683.89 2792.92 1684.73 2796.85 1685.58 2798.43 1688.1 2798.43 1693.15 2799.21 1715.85 2800 1757.07 2797.64 1777.25 2796.85 1783.14 2795.28 1784.82 2795.28 1784.82 2794.49 1785.67 2792.92 1785.67 2791.34 1784.82 2789.77 1784.82 2789.77 1784.82 2789.77 1784.82 2766.16 1783.14 2691.39 1773.05 2641.8 1765.48 2597.73 1759.59 2597.73 1759.59 2597.73 1759.59 2586.71 1758.75 2579.62 1761.27 2578.84 1766.32 2578.05 1772.21 2585.13 1776.41 2596.15 1778.1 2633.14 1783.98 2633.14 1783.98 2633.14 1783.98 2680.37 1790.71 2760.65 1801.65 2788.98 1808.37 2794.49 1809.22 2794.49 1816.79 2793.7 1820.99 2786.62 1893.32 2758.29 1980.8 2743.33 1992.57 2729.95 2002.67 2657.54 1968.18 2622.91 1951.36 2599.3 1940.43 2599.3 1940.43 2599.3 1940.43 2593.79 1938.74 2576.47 1932.01 2573.33 1939.58 2570.96 1945.47 2578.05 1952.2 2593.79 1959.77 2609.53 1968.18 2638.65 1980.8 2663.84 1991.73 2686.66 2001.83 2708.7 2011.08 2717.36 2016.12 2720.51 2017.81 2721.29 2021.17 2720.51 2024.53 2718.93 2035.47 2703.19 2057.34 2666.2 2064.91 2621.34 2075 2575.69 2057.34 2541.06 2016.96 2509.57 1980.8 2508 1885.75 2515.87 1857.16 2516.66 1856.32 2516.66 1856.32 2516.66 1856.32 2517.44 1852.11 2518.23 1849.59 2526.1 1851.27 2541.84 1853.79 2575.69 1859.68 2608.74 1865.57 2651.25 1873.14 2692.17 1880.71 2700.83 1881.55 2711.85 1882.39 2717.36 1877.34 2717.36 1872.3 2717.36 1872.3 2717.36 1872.3 2717.36 1872.3 2717.36 1867.25 2713.42 1863.05 2704.77 1861.36 2641.8 1851.27 2554.44 1836.13 2526.89 1822.67 2526.1 1822.67 2526.1 1822.67 2526.1 1822.67 2524.53 1821.83 2522.17 1820.15 2522.17 1814.26 2522.17 1813.42 2522.17 1811.74 2522.95 1810.06 2523.74 1790.71 2530.04 1751.18 2536.33 1734.36 2538.7 1728.47 2541.06 1728.47 2544.2 1729.31 2545.78 1729.31 2545.78 1729.31 2545.78 1729.31 2569.39 1730.99 2569.39 1730.99 2569.39 1730.99 2634.72 1735.2 2662.26 1736.04 2663.84 1725.11 2662.26 1720.9 2662.26 1720.9 2662.26 1720.9 2657.54 1715.01 2638.65 1713.33 2605.6 1711.65 2581.2 1709.97 2553.65 1708.28 2544.2 1703.24 2541.84 1700.72 2541.06 1695.67 2541.06 1693.99 2540.27 1689.78 2540.27 1686.42 2540.27 1682.21 2540.27 1674.64 2541.06 1666.23 2543.42 1651.09 2544.2 1644.36 2544.2 1644.36 2544.2 1644.36 2544.99 1637.63 2545.78 1633.43 2547.35 1631.75 2548.14 1630.06 2551.29 1630.06 2556.8 1629.22 2569.39 1626.7 2569.39 1626.7 2569.39 1626.7 2598.51 1621.65 2598.51 1621.65 2598.51 1621.65 2673.28 1609.88 2693.75 1603.99 2693.75 1595.58 2693.75 1595.58 2693.75 1595.58 2693.75 1595.58 2692.17 1592.21 2692.17 1592.21 2692.17 1592.21 2686.66 1587.17 2660.69 1590.53 2606.38 1599.78 2582.77 1603.15 2553.65 1607.35 2549.71 1606.51 2544.99 1603.99 2544.2 1601.47 2543.42 1580.44 2542.63 1558.57 2542.63 1558.57 2542.63 1558.57 2541.84 1540.91 2540.27 1527.45 2538.7 1518.2 2537.12 1506.42 2535.55 1499.69 2537.91 1495.49 2541.06 1489.6 2567.82 1484.56 2587.49 1480.35 2599.3 1477.83 2610.32 1475.3 2618.98 1472.78 2626.85 1470.26 2638.65 1467.73 2651.25 1465.21 2689.81 1455.96 2715.78 1449.23 2720.51 1441.66 2721.29 1439.14 2721.29 1437.45 2721.29 1436.61 2718.15 1425.68 2696.11 1431.57 2652.82 1443.34 2618.19 1452.59 2618.19 1452.59 2618.19 1452.59 2559.95 1466.05 2540.27 1463.53 2534.76 1459.32 2533.97 1457.64 2533.19 1456.8 2533.19 1455.12 2533.19 1453.43 2533.19 1451.75 2533.19 1449.23Z" fill="#B3DBDF" fill-rule="evenodd"/><path d="M2525.97 1822.45C2526.76 1822.45 2526.76 1822.45 2526.76 1822.45 2539.45 1828.35 2563.24 1835.1 2591.79 1841 2577.52 1833.41 2564.03 1818.23 2563.24 1804.74 2561.66 1788.72 2567.21 1776.07 2579.9 1765.1 2580.69 1762.57 2582.28 1760.89 2584.66 1760.04 2585.45 1760.04 2585.45 1760.04 2585.45 1760.04 2601.31 1747.4 2625.1 1738.12 2637 1733.9 2634.62 1733.06 2634.62 1733.06 2634.62 1733.06 2619.55 1733.06 2598.14 1732.22 2569.59 1730.53 2545.79 1728.84 2545.79 1728.84 2545.79 1728.84 2544.21 1728.84 2544.21 1728.84 2544.21 1728.84 2541.03 1728 2538.66 1728 2536.28 1733.9 2529.93 1750.77 2523.59 1790.4 2522.79 1809.8 2522 1811.49 2522 1813.17 2522 1814.02 2522 1819.92 2524.38 1821.6 2525.97 1822.45Z" fill="#B2C3C9" fill-rule="evenodd"/><path d="M2543.95 1643.75C2543.16 1650.48 2543.16 1650.48 2543.16 1650.48 2540.79 1665.61 2540 1674.01 2540 1681.58 2540 1685.78 2540 1689.14 2540.79 1693.35 2540.79 1695.03 2541.58 1700.07 2543.95 1702.59 2553.43 1707.64 2581.08 1709.32 2605.56 1711 2588.97 1705.12 2562.91 1705.96 2562.91 1682.42 2562.91 1658.88 2592.13 1648.8 2633.21 1637.87 2674.29 1626.1 2714.57 1618.54 2728 1615.17 2712.99 1615.17 2698.77 1605.09 2694.03 1595 2694.03 1603.41 2673.5 1609.29 2598.45 1621.06 2569.23 1626.1 2569.23 1626.1 2569.23 1626.1 2556.59 1628.62 2556.59 1628.62 2556.59 1628.62 2551.06 1629.46 2547.9 1629.46 2547.11 1631.14 2545.53 1632.83 2544.74 1637.03 2543.95 1643.75Z" fill="#B2C3C9" fill-rule="evenodd"/><path d="M2668.95 1732.5C2683.11 1728.33 2711.42 1705 2724 1700 2692.54 1700 2675.24 1716.67 2664.23 1724.17 2662.66 1729.17 2656.37 1731.67 2643 1732.5 2651.65 1734.17 2662.66 1735 2668.95 1732.5Z" fill="#B2C3C9" fill-rule="evenodd"/><path d="M2798.43 1692.89C2798.43 1687.86 2796.86 1685.35 2792.93 1684.51 2787.43 1683.67 2779.58 1682.84 2770.94 1682.84 2767.8 1682 2764.66 1682 2761.52 1682 2768.59 1684.51 2785.86 1693.72 2785.08 1708.8 2784.29 1727.22 2786.65 1756.53 2759.16 1765.74 2737.18 1772.44 2693.98 1769.09 2661 1768.25 2708.9 1774.11 2769.37 1782.49 2789.79 1784.16 2791.36 1784.16 2791.36 1784.16 2791.36 1784.16 2792.93 1785 2794.5 1785 2795.29 1784.16 2795.29 1784.16 2796.86 1782.49 2797.64 1776.63 2800 1756.53 2799.21 1715.5 2798.43 1692.89Z" fill="#B2C3C9" fill-rule="evenodd"/><path d="M2718.36 1965.92C2671.9 1968.44 2615.99 1935.72 2590 1937.4 2593.94 1938.24 2597.09 1939.08 2599.45 1939.92 2623.08 1950.82 2623.08 1950.82 2623.08 1950.82 2657.73 1967.6 2730.18 2002 2743.56 1991.93 2747.5 1988.58 2753.01 1978.51 2759.31 1964.25 2773.49 1923.14 2773.49 1923.14 2773.49 1923.14 2775.06 1917.26 2777.43 1910.55 2779 1903 2767.97 1929.85 2749.86 1965.08 2718.36 1965.92Z" fill="#B2C3C9" fill-rule="evenodd"/><path d="M2718 1871.8C2718 1871.8 2727.4 1876 2749.34 1854.16 2765.01 1837.36 2783.81 1839.04 2791.65 1840.72 2792.43 1834.84 2793.22 1828.96 2794 1823.08 2759.53 1813 2732.89 1852.48 2718 1871.8Z" fill="#B2C3C9" fill-rule="evenodd"/><path d="M2534.81 1890.23C2545.85 1871.72 2572.66 1876.77 2567.93 1905.37 2565.57 1923.89 2569.51 1936.51 2573.45 1940.71 2573.45 1939.87 2573.45 1939.87 2573.45 1939.03 2574.24 1937.35 2571.87 1940.71 2574.24 1939.87 2576.61 1925.57 2589.22 1916.31 2616.03 1903.69 2642.85 1890.23 2646 1880.13 2640.48 1870.88 2631.81 1869.19 2631.81 1869.19 2631.81 1869.19 2624.71 1868.35 2616.82 1866.67 2608.94 1864.99 2575.82 1859.1 2541.91 1853.21 2526.14 1850.68 2518.25 1849 2517.46 1851.52 2516.67 1855.73 2515.89 1856.57 2515.89 1856.57 2515.89 1856.57 2508 1885.18 2509.58 1980.26 2541.12 2016.44 2548.22 2025.7 2556.89 2033.27 2564.78 2040 2526.93 1992.04 2524.56 1904.53 2534.81 1890.23Z" fill="#B2C3C9" fill-rule="evenodd"/><path d="M2717.08 2015.54C2708.47 2010.51 2686.53 2001.3 2663.81 1991.24 2654.41 1987.05 2645.01 1982.86 2636.39 1978.68 2635.61 1978.68 2635.61 1978.68 2635.61 1978.68 2637.17 1979.51 2638.74 1981.19 2640.31 1982.03 2648.14 1987.89 2655.19 1993.76 2661.46 2000.46 2667.73 2008 2673.99 2016.38 2676.34 2026.43 2678.69 2033.97 2675.56 2038.16 2670.86 2044.86 2661.46 2057.43 2646.57 2061.62 2632.47 2061.62 2623.07 2062.46 2612.89 2061.62 2604.27 2059.95 2601.92 2059.95 2600.35 2059.11 2598 2058.27 2619.94 2067.49 2643.44 2070 2666.16 2064.14 2702.98 2056.59 2718.65 2034.81 2720.22 2023.92 2721 2020.57 2720.22 2017.22 2717.08 2015.54ZM2635.61 1978.68C2633.25 1977.84 2630.9 1977 2628.55 1977L2635.61 1978.68Z" fill="#B2C3C9" fill-rule="evenodd"/><path d="M2538.36 1494.97C2536 1499.18 2537.57 1505.92 2539.15 1517.71 2540.72 1526.98 2542.3 1540.45 2543.08 1558.14 2543.87 1580.04 2543.87 1580.04 2543.87 1580.04 2544.66 1601.1 2545.44 1603.63 2550.17 1606.16 2552.53 1607 2563.54 1605.32 2576.92 1603.63 2565.91 1601.95 2558.04 1583.41 2559.61 1561.51 2561.18 1538.77 2550.95 1506.76 2598.17 1494.97 2644.61 1483.17 2693.4 1462.96 2713.08 1463.8 2731.96 1464.64 2746.13 1462.96 2754 1462.96 2742.98 1462.11 2729.6 1457.06 2721.73 1436 2721.73 1436.84 2721.73 1438.53 2720.95 1441.05 2716.22 1448.64 2690.25 1455.37 2651.69 1464.64 2639.1 1467.17 2627.29 1469.69 2619.42 1472.22 2610.77 1474.75 2599.75 1477.28 2587.94 1479.8 2568.27 1484.01 2541.51 1489.07 2538.36 1494.97Z" fill="#B2C3C9" fill-rule="evenodd"/><path d="M2658.33 1521C2663.96 1532.67 2672 1562.67 2635 1571 2645.46 1564.33 2661.54 1555.17 2658.33 1521Z" fill="#B2C3C9" fill-rule="evenodd"/><path d="M2776.19 1515C2767.48 1515 2750.84 1517.52 2734.2 1520.87 2717.56 1523.38 2704.09 1525.06 2693.79 1526.74 2693 1526.74 2693 1526.74 2693 1526.74 2707.26 1528.41 2747.67 1525.9 2766.68 1531.77 2780.95 1535.96 2791.25 1575.36 2796 1598 2792.83 1569.49 2788.08 1538.47 2782.53 1520.87 2782.53 1520.03 2782.53 1520.03 2782.53 1520.03 2781.74 1517.52 2780.95 1515 2776.19 1515Z" fill="#B2C3C9" fill-rule="evenodd"/><path d="M2533 1454.92C2533 1456.6 2533.79 1457.44 2534.57 1459.12 2539.28 1462.48 2551.84 1465 2586.39 1458.28 2568.33 1455.76 2553.41 1445.68 2556.56 1419.64 2562.05 1381.84 2606.02 1344.88 2639 1339 2616.23 1339 2591.89 1344.04 2571.47 1360 2546.35 1379.32 2533 1409.56 2533 1449.04 2533 1451.56 2533 1453.24 2533 1454.92Z" fill="#B2C3C9" fill-rule="evenodd"/><path d="M2633.59 1783.52C2596.57 1777.61 2596.57 1777.61 2596.57 1777.61 2586.33 1775.93 2579.24 1772.55 2579.24 1766.65 2577.66 1765.81 2576.87 1764.12 2577.66 1761.59 2565.85 1754 2547.73 1775.93 2543 1785.2 2567.42 1824 2567.42 1824 2567.42 1824 2552.45 1776.77 2658.02 1794.48 2677.71 1796.17 2714.74 1799.54 2750.97 1806.29 2788 1807.13 2758.06 1801.23 2680.07 1790.27 2633.59 1783.52Z" fill="#B2C3C9" fill-rule="evenodd"/><path d="M2722.64 1869.22C2721.06 1870.88 2718.7 1872.53 2717.12 1873.36 2715.54 1877.5 2710.8 1881.64 2700.55 1880.81 2694.23 1880.81 2669.77 1875.84 2639 1870.88 2645.31 1880.81 2645.31 1880.81 2645.31 1880.81 2683.19 1879.98 2727.38 1904 2740 1851 2732.9 1851.83 2728.16 1865.08 2722.64 1869.22Z" fill="#B09EAC" fill-rule="evenodd"/><path d="M2724.58 1659C2723.77 1651.38 2717.32 1641.23 2702 1640.38 2714.1 1637 2727 1643.77 2724.58 1659Z" fill="#B5FFFF" fill-rule="evenodd"/><path d="M2668.06 1536C2671.31 1545.39 2667.25 1563.32 2651 1571 2665.62 1566.73 2677 1557.34 2668.06 1536Z" fill="#B5FFFF" fill-rule="evenodd"/><path d="M2665 1716C2679.91 1701.33 2701.09 1695.63 2716 1697.26 2701.09 1694 2683.05 1694 2665 1716Z" fill="#B5FFFF" fill-rule="evenodd"/><path d="M2719 1860C2730.04 1835.66 2758.44 1814.68 2775 1815.52 2759.23 1813 2730.04 1824.75 2719 1860Z" fill="#B5FFFF" fill-rule="evenodd"/><path d="M2584 1931C2592.54 1919.82 2610.39 1910.36 2622.04 1904.34 2633.68 1898.32 2639.89 1893.16 2643 1888 2638.34 1898.32 2624.37 1907.78 2615.83 1912.94 2607.29 1918.1 2588.66 1924.98 2584 1931Z" fill="#B5FFFF" fill-rule="evenodd"/><path d="M2599 1755C2609.4 1747.22 2618.2 1741.78 2631 1741" fill="#B5FFFF" fill-rule="evenodd"/><path d="M2543.25 1353.82C2515.68 1389.1 2504.65 1443.69 2514.1 1507.53 2530.65 1624.28 2514.1 1746.08 2500.71 1828.39 2475.5 1975.39 2512.53 2061.9 2611 2085.42 2652.76 2095.5 2689 2087.1 2720.51 2059.38 2787.47 2001.42 2824.5 1861.15 2822.14 1674.68 2822.14 1674.68 2822.14 1674.68 2822.14 1674.68 2814.26 1531.89 2789.84 1430.25 2748.08 1373.98 2709.48 1320.22 2663 1313.5 2630.7 1313.5 2594.46 1313.5 2564.52 1327.78 2543.25 1353.82Z" stroke="#333333" stroke-width="1.14583" stroke-linecap="round" stroke-linejoin="round" stroke-miterlimit="10" fill="none" fill-rule="evenodd"/><path d="M2568.7 1354.4C2549 1369.54 2525.36 1398.96 2527.72 1456.14 2527.72 1456.14 2527.72 1456.14 2527.72 1456.14 2527.72 1459.5 2529.3 1462.02 2531.66 1464.54 2541.91 1472.95 2570.28 1471.27 2620.72 1458.66 2655.39 1449.41 2655.39 1449.41 2655.39 1449.41 2676.67 1443.52 2712.14 1434.28 2716.08 1438.48 2712.14 1444.37 2671.94 1453.61 2650.67 1458.66 2638.06 1461.18 2627.02 1464.54 2618.35 1467.07 2609.68 1468.75 2598.65 1471.27 2586.83 1473.79 2556.09 1480.52 2537.97 1484.72 2533.24 1492.29 2531.66 1495.65 2531.66 1499.01 2531.66 1502.38 2531.66 1507.42 2532.45 1512.47 2533.24 1520.03 2534.81 1529.28 2536.39 1541.89 2537.18 1558.71 2538.75 1580.57 2538.75 1580.57 2538.75 1580.57 2538.75 1602.43 2539.54 1608.31 2547.42 1612.52 2551.36 1615.04 2567.13 1612.52 2608.11 1605.79 2635.69 1601.59 2675.1 1595.7 2686.92 1596.54 2675.1 1603.27 2623.87 1611.68 2598.65 1615.88 2569.49 1620.08 2569.49 1620.08 2569.49 1620.08 2556.88 1622.61 2556.88 1622.61 2556.88 1622.61 2542.69 1625.13 2541.12 1625.97 2538.75 1643.62 2537.97 1650.35 2537.97 1650.35 2537.97 1650.35 2535.6 1665.48 2534.81 1674.73 2534.81 1682.3 2534.81 1686.5 2534.81 1689.87 2535.6 1694.07 2535.6 1697.43 2536.39 1705 2541.91 1709.2 2541.91 1709.2 2541.91 1709.2 2541.91 1709.2 2552.94 1715.09 2579.74 1716.77 2606.53 1718.45 2625.45 1719.29 2651.45 1720.97 2656.97 1724.34 2649.09 1729.38 2594.71 1726.02 2571.07 1724.34 2546.63 1722.66 2546.63 1722.66 2546.63 1722.66 2545.85 1722.66 2545.85 1722.66 2545.85 1722.66 2541.12 1721.82 2535.6 1721.82 2530.87 1731.9 2524.57 1749.56 2518.26 1789.08 2517.47 1810.09 2515.11 1823.55 2522.2 1827.75 2524.57 1828.59 2524.57 1828.59 2524.57 1828.59 2524.57 1828.59 2553.73 1842.88 2641.21 1857.18 2705.05 1868.11 2710.56 1868.95 2712.14 1870.63 2712.14 1872.31 2712.14 1873.15 2708.99 1875.67 2702.68 1874.83 2694.01 1873.99 2651.45 1866.43 2610.47 1858.86 2577.37 1852.97 2543.48 1847.09 2527.72 1844.57 2514.32 1842.04 2511.96 1850.45 2511.17 1854.65 2511.17 1855.5 2511.17 1855.5 2511.17 1855.5 2502.5 1884.92 2504.08 1983.29 2537.18 2021.97 2573.43 2064 2621.51 2082.5 2668.79 2071.57 2705.05 2064 2725.54 2042.14 2727.9 2025.33 2727.9 2023.65 2727.9 2022.81 2727.9 2021.97 2727.9 2016.92 2725.54 2012.72 2721.6 2010.19 2712.14 2005.15 2690.86 1995.9 2667.22 1985.81 2642 1974.04 2612.84 1961.43 2597.86 1953.86 2586.83 1948.82 2582.89 1944.62 2581.31 1942.93 2583.68 1942.93 2588.4 1942.93 2597.86 1947.14 2621.51 1958.07 2621.51 1958.07 2621.51 1958.07 2677.46 1984.97 2733.42 2009.35 2747.6 1998.42 2766.52 1983.29 2794.1 1891.65 2801.2 1821.87 2801.2 1820.18 2801.2 1819.34 2801.2 1817.66 2801.2 1808.41 2798.04 1802.53 2791.74 1801.69 2762.58 1795.8 2682.19 1784.03 2634.9 1777.31 2598.65 1771.42 2598.65 1771.42 2598.65 1771.42 2590.77 1770.58 2587.62 1768.9 2586.83 1767.22 2587.62 1767.22 2591.56 1765.53 2597.86 1766.38 2642 1772.26 2642 1772.26 2642 1772.26 2691.65 1778.99 2767.31 1789.92 2790.95 1791.6 2791.74 1791.6 2791.74 1791.6 2791.74 1791.6 2794.1 1792.44 2797.25 1792.44 2800.41 1789.92 2802.77 1788.23 2804.35 1784.03 2805.14 1778.15 2805.92 1766.38 2806.71 1747.88 2806.71 1729.38 2806.71 1715.93 2806.71 1702.48 2805.92 1692.39 2805.92 1681.46 2798.83 1678.94 2794.89 1678.1 2789.37 1677.26 2781.49 1676.41 2772.82 1676.41 2759.43 1675.57 2729.48 1673.05 2727.9 1668.01 2731.84 1665.48 2749.18 1667.17 2761.79 1668.01 2775.19 1669.69 2789.37 1670.53 2797.25 1668.85 2804.35 1668.01 2807.5 1661.28 2807.5 1652.03 2806.71 1622.61 2798.83 1551.14 2788.59 1519.19 2788.59 1519.19 2788.59 1519.19 2788.59 1519.19 2787.8 1516.67 2786.22 1509.1 2775.98 1509.1 2767.31 1509.1 2750.76 1512.47 2734.21 1514.99 2713.71 1518.35 2671.16 1525.08 2666.43 1520.03 2670.37 1515.83 2698.74 1511.63 2717.66 1509.1 2740.51 1504.9 2764.94 1501.54 2774.4 1496.49 2778.34 1493.97 2779.92 1490.61 2779.92 1486.4 2779.92 1483.04 2778.34 1479.68 2777.55 1478 2774.4 1466.23 2742.09 1365.33 2685.34 1341.79 2654.61 1328.34 2604.95 1327.5 2568.7 1354.4Z" stroke="#333333" stroke-width="1.14583" stroke-linecap="round" stroke-linejoin="round" stroke-miterlimit="10" fill="none" fill-rule="evenodd"/><path d="M2661.5 1729.5C2674.11 1718.41 2682.78 1702.21 2728.5 1700.5" stroke="#333333" stroke-width="1.14583" stroke-linecap="round" stroke-linejoin="round" stroke-miterlimit="10" fill="none" fill-rule="evenodd"/><path d="M2579.5 1764.5C2593.5 1752.83 2619.17 1737.83 2635.5 1734.5" stroke="#333333" stroke-width="1.14583" stroke-linecap="round" stroke-linejoin="round" stroke-miterlimit="10" fill="none" fill-rule="evenodd"/><path d="M2718.5 1873.5C2729.47 1855.22 2756.89 1814.5 2794.5 1821.15" stroke="#333333" stroke-width="1.14583" stroke-linecap="round" stroke-linejoin="round" stroke-miterlimit="10" fill="none" fill-rule="evenodd"/><path d="M2721.5 1436.5C2727.9 1459.28 2743.9 1463.5 2757.5 1463.5" stroke="#333333" stroke-width="1.14583" stroke-linecap="round" stroke-linejoin="round" stroke-miterlimit="10" fill="none" fill-rule="evenodd"/><path d="M2659.76 1521.5C2668.5 1543.24 2666.91 1564.98 2637.5 1572.5" stroke="#333333" stroke-width="1.14583" stroke-linecap="round" stroke-linejoin="round" stroke-miterlimit="10" fill="none" fill-rule="evenodd"/><path d="M2699.5 1646.31C2712.86 1645.5 2720.71 1654.46 2721.5 1667.5" stroke="#333333" stroke-width="1.14583" stroke-linecap="round" stroke-linejoin="round" stroke-miterlimit="10" fill="none" fill-rule="evenodd"/><path d="M2693.5 1593.5C2698.28 1601.83 2711.01 1618.5 2732.5 1614.33" stroke="#333333" stroke-width="1.14583" stroke-linecap="round" stroke-linejoin="round" stroke-miterlimit="10" fill="none" fill-rule="evenodd"/><path d="M2574.5 1939.5C2584.67 1917.67 2608.92 1907.6 2626.91 1898.36 2653.5 1884.09 2641.77 1874.86 2640.98 1871.5" stroke="#333333" stroke-width="1.14583" stroke-linecap="round" stroke-linejoin="round" stroke-miterlimit="10" fill="none" fill-rule="evenodd"/><path d="M2612.39 2080.24C2517.93 2057.52 2482.5 1973.37 2506.9 1829.47 2520.29 1747 2536.82 1624.13 2520.29 1506.32 2511.63 1444.05 2521.07 1391.03 2547.84 1357.37 2568.31 1332.96 2596.65 1319.5 2630.5 1319.5 2663.56 1319.5 2706.86 1326.23 2743.07 1377.57 2783.22 1433.11 2807.63 1533.25 2815.5 1675.47 2815.5 1680.52 2815.5 1686.41 2815.5 1691.46 2815.5 1868.18 2779.29 2000.3 2716.31 2055 2686.39 2081.08 2651.76 2089.5 2612.39 2080.24Z" stroke="#333333" stroke-width="1.14583" stroke-linecap="round" stroke-linejoin="round" stroke-miterlimit="10" fill="none" fill-rule="evenodd"/><path d="M2533.69 1449.73C2533.69 1410.2 2547.07 1379.92 2572.25 1360.57 2606.88 1334.5 2653.32 1336.18 2683.23 1347.96 2736.75 1370.67 2768.23 1469.07 2771.38 1480.01 2772.95 1485.9 2772.95 1490.1 2771.38 1490.94 2761.93 1495.99 2739.11 1499.35 2716.28 1502.72 2680.08 1507.76 2663.55 1511.13 2659.62 1517.02 2658.83 1518.7 2658.83 1520.38 2658.83 1521.22 2661.19 1532.16 2684.8 1529.63 2734.39 1522.06 2750.92 1518.7 2767.44 1516.18 2776.1 1516.18 2780.82 1516.18 2781.61 1518.7 2782.4 1521.22 2782.4 1522.06 2782.4 1522.06 2782.4 1522.06 2791.84 1552.34 2799.71 1624.68 2800.5 1652.43 2800.5 1658.32 2798.93 1662.52 2795.78 1662.52 2787.91 1664.21 2774.53 1663.37 2761.15 1661.68 2739.9 1660 2727.3 1659.16 2722.58 1663.37 2721.79 1665.05 2721.01 1666.73 2721.01 1668.41 2721.79 1679.35 2741.47 1681.03 2771.38 1683.55 2780.04 1683.55 2787.91 1684.39 2793.42 1685.23 2797.35 1686.08 2798.93 1688.6 2798.93 1693.65 2799.71 1716.35 2800.5 1757.57 2798.14 1777.75 2797.35 1783.64 2795.78 1785.32 2795.78 1785.32 2794.99 1786.17 2793.42 1786.17 2791.84 1785.32 2790.27 1785.32 2790.27 1785.32 2790.27 1785.32 2766.66 1783.64 2691.89 1773.55 2642.3 1765.98 2598.22 1760.09 2598.22 1760.09 2598.22 1760.09 2587.21 1759.25 2580.12 1761.77 2579.34 1766.82 2578.55 1772.71 2585.63 1776.91 2596.65 1778.6 2633.64 1784.48 2633.64 1784.48 2633.64 1784.48 2680.87 1791.21 2761.15 1802.15 2789.48 1808.87 2794.99 1809.72 2794.99 1817.29 2794.2 1821.49 2787.12 1893.82 2758.79 1981.3 2743.83 1993.07 2730.45 2003.17 2658.04 1968.68 2623.41 1951.86 2599.8 1940.93 2599.8 1940.93 2599.8 1940.93 2594.29 1939.24 2576.97 1932.51 2573.83 1940.08 2571.46 1945.97 2578.55 1952.7 2594.29 1960.27 2610.03 1968.68 2639.15 1981.3 2664.34 1992.23 2687.16 2002.33 2709.2 2011.58 2717.86 2016.62 2721.01 2018.31 2721.79 2021.67 2721.01 2025.03 2719.43 2035.97 2703.69 2057.84 2666.7 2065.41 2621.84 2075.5 2576.19 2057.84 2541.56 2017.46 2510.07 1981.3 2508.5 1886.25 2516.37 1857.66 2517.16 1856.82 2517.16 1856.82 2517.16 1856.82 2517.94 1852.61 2518.73 1850.09 2526.6 1851.77 2542.34 1854.29 2576.19 1860.18 2609.24 1866.07 2651.75 1873.64 2692.67 1881.21 2701.33 1882.05 2712.35 1882.89 2717.86 1877.84 2717.86 1872.8 2717.86 1872.8 2717.86 1872.8 2717.86 1872.8 2717.86 1867.75 2713.92 1863.55 2705.27 1861.86 2642.3 1851.77 2554.94 1836.63 2527.39 1823.17 2526.6 1823.17 2526.6 1823.17 2526.6 1823.17 2525.03 1822.33 2522.67 1820.65 2522.67 1814.76 2522.67 1813.92 2522.67 1812.24 2523.45 1810.56 2524.24 1791.21 2530.54 1751.68 2536.83 1734.86 2539.2 1728.97 2541.56 1728.97 2544.7 1729.81 2546.28 1729.81 2546.28 1729.81 2546.28 1729.81 2569.89 1731.49 2569.89 1731.49 2569.89 1731.49 2635.22 1735.7 2662.76 1736.54 2664.34 1725.61 2662.76 1721.4 2662.76 1721.4 2662.76 1721.4 2658.04 1715.51 2639.15 1713.83 2606.1 1712.15 2581.7 1710.47 2554.15 1708.78 2544.7 1703.74 2542.34 1701.22 2541.56 1696.17 2541.56 1694.49 2540.77 1690.28 2540.77 1686.92 2540.77 1682.71 2540.77 1675.14 2541.56 1666.73 2543.92 1651.59 2544.7 1644.86 2544.7 1644.86 2544.7 1644.86 2545.49 1638.13 2546.28 1633.93 2547.85 1632.25 2548.64 1630.56 2551.79 1630.56 2557.3 1629.72 2569.89 1627.2 2569.89 1627.2 2569.89 1627.2 2599.01 1622.15 2599.01 1622.15 2599.01 1622.15 2673.78 1610.38 2694.25 1604.49 2694.25 1596.08 2694.25 1596.08 2694.25 1596.08 2694.25 1596.08 2692.67 1592.71 2692.67 1592.71 2692.67 1592.71 2687.16 1587.67 2661.19 1591.03 2606.88 1600.28 2583.27 1603.65 2554.15 1607.85 2550.21 1607.01 2545.49 1604.49 2544.7 1601.97 2543.92 1580.94 2543.13 1559.07 2543.13 1559.07 2543.13 1559.07 2542.34 1541.41 2540.77 1527.95 2539.2 1518.7 2537.62 1506.92 2536.05 1500.19 2538.41 1495.99 2541.56 1490.1 2568.32 1485.05 2587.99 1480.85 2599.8 1478.33 2610.82 1475.8 2619.48 1473.28 2627.35 1470.76 2639.15 1468.23 2651.75 1465.71 2690.31 1456.46 2716.28 1449.73 2721.01 1442.16 2721.79 1439.64 2721.79 1437.95 2721.79 1437.11 2718.65 1426.18 2696.61 1432.07 2653.32 1443.84 2618.69 1453.09 2618.69 1453.09 2618.69 1453.09 2560.45 1466.55 2540.77 1464.03 2535.26 1459.82 2534.47 1458.14 2533.69 1457.3 2533.69 1455.62 2533.69 1453.93 2533.69 1452.25 2533.69 1449.73Z" stroke="#333333" stroke-width="1.14583" stroke-linecap="round" stroke-linejoin="round" stroke-miterlimit="10" fill="none" fill-rule="evenodd"/><path d="M2637.5 1569.83C2637.5 1570.67 2638.93 1576.5 2641.07 1574 2642.5 1572.33 2639.64 1568.17 2638.93 1566.5" stroke="#FDDBDF" stroke-width="1.14583" stroke-miterlimit="8" fill="none" fill-rule="evenodd"/><path d="M2699.83 1643.36C2698.5 1644.21 2699.83 1648.5 2701.17 1648.5 2702.5 1647.64 2702.5 1644.21 2701.83 1642.5" stroke="#FDDBDF" stroke-width="1.14583" stroke-miterlimit="8" fill="none" fill-rule="evenodd"/><path d="M2731.67 1613.83C2731.67 1613.06 2730.83 1613.06 2730.83 1613.06 2730.83 1613.83 2732.5 1618.5 2730 1618.5 2727.5 1618.5 2728.33 1612.28 2728.33 1611.5" stroke="#FDDBDF" stroke-width="1.14583" stroke-miterlimit="8" fill="none" fill-rule="evenodd"/><path d="M2726.83 1703.72C2727.5 1702.17 2727.5 1698.28 2725.5 1697.5 2723.5 1697.5 2724.17 1702.94 2724.17 1704.5" stroke="#FDDBDF" stroke-width="1.14583" stroke-miterlimit="8" fill="none" fill-rule="evenodd"/><path d="M2755.83 1465.62C2757.5 1463 2756.67 1460.38 2755 1459.5 2752.5 1460.38 2753.33 1463.88 2752.5 1466.5" stroke="#FDDBDF" stroke-width="1.14583" stroke-miterlimit="8" fill="none" fill-rule="evenodd"/></g></svg>