<svg width="909" height="563" xmlns="http://www.w3.org/2000/svg" xmlns:xlink="http://www.w3.org/1999/xlink" xml:space="preserve" overflow="hidden"><g transform="translate(-2699 -735)"><path d="M2925.59 759.333C3011.13 743.881 3099.31 748.095 3224.33 738.262 3465.18 720 3631 868.905 3602.05 1034.67 3575.73 1190.6 3453.33 1270.67 3236.18 1290.33 3020.34 1310 2886.1 1277.69 2763.71 1163.9 2640 1051.52 2701.86 795.857 2925.59 759.333Z" fill="#CEDFCB" fill-rule="evenodd"/><path d="M2930.44 762.612C2873.87 772.422 2823.88 796.245 2785.72 831.279 2750.2 863.51 2725.21 905.551 2712.05 950.395 2691 1031.67 2713.36 1111.55 2768.62 1162 2768.62 1162 2768.62 1162 2768.62 1162 2714.68 1112.95 2697.58 1030.27 2719.94 951.796 2731.78 906.952 2755.46 866.313 2790.99 834.082 2829.14 800.449 2877.82 773.823 2933.07 765.415 2973.85 757.007 3013.32 751.401 3062 750 3062 750 3062 750 3062 750 3012.01 752.803 2971.22 755.606 2930.44 762.612Z" fill="#FFFFFF" fill-rule="evenodd"/><path d="M2887.13 1086.54C2873.98 1113.23 2852.95 1146.95 2837.18 1173.64 2829.29 1183.47 2822.72 1186.28 2814.84 1179.26 2803.01 1169.42 2791.18 1159.59 2779.35 1149.76 2729.4 1103.4 2711 1028.94 2730.72 954.485 2742.55 912.34 2766.2 874.41 2797.75 843.504 2833.24 809.788 2879.24 788.716 2931.81 780.287 2931.81 780.287 2931.81 780.287 2931.81 780.287 2977.82 771.858 3026.45 769.048 3080.34 766.238 3105.31 766.238 3111.88 781.692 3111.88 795.74 3114.51 850.528 3109.25 950.271 3101.37 989.606 3101.37 993.82 3102.68 998.035 3106.63 998.035 3110.57 999.44 3114.51 996.63 3114.51 992.416 3121.08 955.89 3131.6 851.933 3128.97 792.93 3127.66 769.048 3142.11 764.834 3151.31 763.429 3173.66 763.429 3198.63 762.024 3223.6 759.214 3290.64 755 3353.73 763.429 3407.62 783.096 3426.02 790.121 3424.7 805.574 3424.7 816.812 3422.07 854.743 3420.76 910.936 3423.39 929.198 3423.39 933.413 3427.33 936.222 3429.96 934.818 3433.9 934.818 3435.22 932.008 3435.22 927.794 3433.9 910.936 3436.53 860.362 3439.16 823.836 3439.16 812.598 3444.42 799.954 3457.56 806.978 3487.79 822.432 3512.77 843.504 3532.48 867.386 3571.91 915.15 3589 974.153 3579.8 1031.75 3566.66 1103.4 3533.8 1156.78 3475.96 1196.12 3440.48 1220 3395.79 1239.66 3340.58 1252.31 3328.75 1255.12 3320.87 1243.88 3319.55 1235.45 3311.67 1201.73 3302.47 1146.95 3301.15 1135.71 3301.15 1131.49 3298.52 1127.28 3294.58 1127.28 3290.64 1127.28 3289.32 1131.49 3289.32 1135.71 3289.32 1144.14 3295.9 1194.71 3302.47 1232.64 3305.1 1243.88 3307.72 1256.52 3286.69 1262.14 3269.61 1264.95 3251.21 1267.76 3232.81 1269.17 3125.03 1279 3042.22 1274.79 2971.25 1256.52 2929.19 1245.28 2891.07 1229.83 2854.27 1207.35 2850.32 1204.54 2842.44 1196.12 2849.01 1184.88 2856.9 1173.64 2900.27 1093.56 2906.84 1065.47 2908.16 1061.25 2906.84 1058.44 2902.9 1057.04 2900.27 1057.04 2897.64 1057.04 2896.33 1062.66 2893.7 1068.28 2892.38 1075.3 2887.13 1086.54Z" fill="#FCE6E6" fill-rule="evenodd"/><path d="M3533.23 867.453C3513.49 843.557 3488.5 822.472 3458.24 807.009 3445.08 799.981 3439.82 812.632 3439.82 823.877 3437.19 854.802 3434.56 894.16 3435.88 916.651 3441.14 899.783 3454.29 874.481 3476.66 875.887 3512.18 877.292 3624 1054.41 3481.92 1189.35 3476.66 1193.57 3472.71 1197.78 3468.76 1202 3471.4 1200.59 3474.03 1197.78 3476.66 1196.38 3534.54 1157.02 3567.43 1103.6 3580.59 1031.92 3589.8 974.283 3572.69 915.245 3533.23 867.453ZM3112.25 795.764C3112.25 781.707 3105.67 766.245 3080.67 766.245 3026.74 769.057 2978.06 771.868 2932.01 780.302 2932.01 780.302 2932.01 780.302 2932.01 780.302 2879.39 788.736 2833.35 809.821 2797.83 843.557 2766.25 874.481 2742.57 912.434 2730.73 954.604 2711 1029.1 2729.42 1103.6 2779.41 1149.99 2791.25 1159.83 2803.09 1169.67 2814.93 1179.51 2822.82 1186.54 2829.4 1183.73 2837.29 1173.89 2853.08 1147.18 2874.13 1113.44 2887.29 1086.74 2892.55 1075.49 2893.86 1068.46 2896.49 1062.84 2897.81 1057.22 2900.44 1057.22 2903.07 1057.22 2901.76 1038.94 2901.76 1029.1 2910.97 1017.86 2885.97 1034.73 2803.09 1061.43 2797.83 1006.61 2792.57 948.981 2870.18 884.321 2975.43 873.075 3070.15 864.641 3099.09 896.972 3106.98 951.792 3110.93 905.406 3113.56 837.934 3112.25 795.764ZM3424.03 929.302C3421.4 911.028 3422.72 854.802 3425.35 816.849 3425.35 805.604 3426.67 790.141 3408.25 783.113 3354.31 763.434 3291.16 755 3224.07 759.217 3199.07 762.028 3174.08 763.434 3151.71 763.434 3142.5 764.839 3128.03 769.057 3129.35 792.953 3131.98 851.99 3121.46 956.009 3114.88 992.557 3114.88 995.368 3113.56 996.774 3110.93 998.179 3121.46 996.774 3146.45 999.585 3149.08 1038.94 3149.08 967.255 3164.87 888.538 3212.23 846.368 3263.54 804.198 3325.37 814.038 3370.1 833.717 3416.14 853.396 3412.19 911.028 3391.15 956.009 3402.99 937.736 3424.03 934.924 3429.3 934.924 3426.67 934.924 3424.03 932.113 3424.03 929.302ZM2910.97 1017.86C2912.28 1016.45 2913.6 1016.45 2913.6 1015.05 2913.6 1016.45 2912.28 1016.45 2910.97 1017.86Z" fill="#FBDCDD" fill-rule="evenodd"/><path d="M3294.63 1186.51C3294.63 1186.51 3294.63 1187.91 3294.63 1187.91 3294.63 1210.34 3272.26 1250.97 3190.68 1253.78 3110.42 1256.58 2917 1246.77 2898.58 1089.82 2882.79 1124.86 2855.16 1175.3 2848.58 1185.11 2842 1196.32 2849.9 1204.73 2853.84 1207.53 2890.68 1229.95 2928.84 1245.37 2970.95 1256.58 3042 1274.8 3124.9 1279 3232.79 1269.19 3251.21 1267.79 3269.63 1264.99 3286.74 1262.18 3307.79 1256.58 3305.16 1243.97 3302.53 1232.76 3299.89 1218.74 3297.26 1201.93 3294.63 1186.51ZM3351.21 1203.33C3331.47 1171.1 3347.26 1112.24 3331.47 1066 3335.42 1085.62 3318.32 1119.25 3294.63 1127.66 3298.58 1127.66 3301.21 1131.86 3301.21 1136.07 3302.53 1147.28 3311.74 1201.93 3319.63 1235.56 3320.95 1243.97 3328.84 1255.18 3340.68 1252.38 3378.84 1242.57 3413.05 1231.36 3442 1215.94 3415.68 1222.95 3368.32 1231.36 3351.21 1203.33Z" fill="#FBDCDD" fill-rule="evenodd"/><path d="M3408.57 783.143C3354.61 763.443 3291.43 755 3224.31 759.221 3199.3 762.036 3174.29 763.443 3151.92 763.443 3142.71 764.85 3128.23 769.072 3129.54 792.993 3132.18 846.466 3124.28 937.932 3117.7 981.554 3136.12 942.153 3137.44 856.316 3163.76 811.287 3190.09 767.664 3324.34 781.736 3371.72 788.772 3415.15 795.808 3421.74 819.73 3424.37 838.023 3424.37 830.987 3424.37 823.951 3425.68 816.915 3425.68 805.658 3427 790.179 3408.57 783.143ZM3080.85 766.257C3026.88 769.072 2978.18 771.886 2932.12 780.329 2932.12 780.329 2932.12 780.329 2932.12 780.329 2879.47 788.772 2833.4 809.879 2797.87 843.651 2766.28 874.609 2742.59 912.603 2730.74 954.818 2711 1029.4 2729.43 1103.98 2779.44 1150.41 2791.29 1160.26 2803.13 1170.11 2814.98 1179.96 2822.88 1187 2829.46 1184.19 2837.35 1174.34 2850.51 1150.41 2868.94 1122.27 2882.1 1096.94 2874.21 1103.98 2858.41 1116.64 2845.25 1129.31 2825.51 1147.6 2762.33 1087.09 2757.07 1046.28 2751.8 1005.48 2757.07 928.081 2841.3 866.166 2925.54 805.658 3040.04 804.251 3075.58 812.694 3107.17 819.73 3111.12 859.13 3111.12 897.124 3112.43 860.537 3113.75 823.951 3112.43 795.808 3112.43 781.736 3105.85 766.257 3080.85 766.257Z" fill="#F8CED0" fill-rule="evenodd"/><path d="M3583 995C3581.69 950.108 3564.62 905.216 3533.12 867.338 3513.44 843.489 3488.5 822.446 3458.31 807.014 3445.19 800 3439.94 812.626 3439.94 823.849 3438.63 837.878 3437.31 854.712 3436 870.144 3443.88 837.878 3463.56 835.072 3484.56 846.295 3504.25 856.115 3569.88 902.41 3583 995Z" fill="#F8CED0" fill-rule="evenodd"/><path d="M3357.08 1238.2C3323.03 1239.6 3312.55 1180.8 3306 1157 3307.31 1165.4 3307.31 1165.4 3307.31 1165.4 3309.93 1186.4 3315.17 1214.4 3320.41 1235.4 3321.72 1243.8 3329.58 1255 3341.37 1252.2 3362.32 1246.6 3380.66 1241 3399 1235.4 3395.07 1235.4 3383.28 1236.8 3357.08 1238.2Z" fill="#F8CED0" fill-rule="evenodd"/><path d="M2881.55 1191.95C2867.05 1172.23 2873.64 1138.41 2890.77 1106 2889.45 1108.82 2889.45 1108.82 2889.45 1108.82 2873.64 1141.23 2853.86 1177.86 2848.59 1184.91 2842 1196.18 2849.91 1204.64 2853.86 1207.45 2890.77 1230 2929 1245.5 2971.18 1256.77 2976.45 1258.18 2981.73 1259.59 2987 1261 2930.32 1239.86 2890.77 1206.05 2881.55 1191.95Z" fill="#F8CED0" fill-rule="evenodd"/><path d="M3419 1234C3453.1 1218.58 3546.21 1176.53 3579 1063 3563.26 1114.86 3543.59 1193.35 3419 1234Z" fill="#FFFFFF" fill-rule="evenodd"/><path d="M3300 1203C3291 1142.96 3291 1134.58 3292.29 1131.79 3294.86 1129 3296.14 1130.4 3298.71 1131.79 3294.86 1131.79 3293.57 1140.17 3294.86 1147.15 3296.14 1155.53 3300 1203 3300 1203Z" fill="#FFFFFF" fill-rule="evenodd"/><path d="M2904 1061.41C2900.07 1060 2898.76 1061.41 2897.45 1068.47 2894.83 1074.12 2880.41 1109.41 2866 1132 2873.86 1120.71 2892.21 1088.24 2896.14 1075.53 2901.38 1062.82 2901.38 1061.41 2904 1061.41Z" fill="#FFFFFF" fill-rule="evenodd"/><path d="M3103 771C3109.43 773.805 3117.14 780.818 3115.86 824.299 3115.86 866.377 3110.71 947.727 3105.57 987 3110.71 956.143 3121 849.545 3121 811.675 3119.71 772.403 3109.43 771 3103 771Z" fill="#FFFFFF" fill-rule="evenodd"/><path d="M3428.2 830C3426.8 838.433 3424 896.054 3426.8 921.351 3428.2 931.189 3428.2 934 3431 932.595 3429.6 931.189 3429.6 919.946 3428.2 912.919 3428.2 905.892 3428.2 830 3428.2 830Z" fill="#FFFFFF" fill-rule="evenodd"/><path d="M2926.09 759.833C3011.63 744.381 3099.81 748.595 3224.83 738.762 3465.68 720.5 3631.5 869.405 3602.55 1035.17 3576.22 1191.1 3453.83 1271.17 3236.68 1290.83 3020.84 1310.5 2886.6 1278.19 2764.21 1164.4 2640.5 1052.02 2702.35 796.357 2926.09 759.833Z" stroke="#58585A" stroke-width="3.4375" stroke-linecap="round" stroke-linejoin="round" stroke-miterlimit="10" fill="none" fill-rule="evenodd"/><path d="M2887.13 1086.54C2873.98 1113.23 2852.95 1146.95 2837.18 1173.64 2829.29 1183.47 2822.72 1186.28 2814.84 1179.26 2803.01 1169.42 2791.18 1159.59 2779.35 1149.76 2729.4 1103.4 2711 1028.94 2730.72 954.485 2742.55 912.34 2766.2 874.41 2797.75 843.504 2833.24 809.788 2879.24 788.716 2931.81 780.287 2931.81 780.287 2931.81 780.287 2931.81 780.287 2977.82 771.858 3026.45 769.048 3080.34 766.238 3105.31 766.238 3111.88 781.692 3111.88 795.74 3114.51 850.528 3109.25 950.271 3101.37 989.606 3101.37 993.82 3102.68 998.035 3106.63 998.035 3110.57 999.44 3114.51 996.63 3114.51 992.416 3121.08 955.89 3131.6 851.933 3128.97 792.93 3127.66 769.048 3142.11 764.834 3151.31 763.429 3173.66 763.429 3198.63 762.024 3223.6 759.214 3290.64 755 3353.73 763.429 3407.62 783.096 3426.02 790.121 3424.7 805.574 3424.7 816.812 3422.07 854.743 3420.76 910.936 3423.39 929.198 3423.39 933.413 3427.33 936.222 3429.96 934.818 3433.9 934.818 3435.22 932.008 3435.22 927.794 3433.9 910.936 3436.53 860.362 3439.16 823.836 3439.16 812.598 3444.42 799.954 3457.56 806.978 3487.79 822.432 3512.77 843.504 3532.48 867.386 3571.91 915.15 3589 974.153 3579.8 1031.75 3566.66 1103.4 3533.8 1156.78 3475.96 1196.12 3440.48 1220 3395.79 1239.66 3340.58 1252.31 3328.75 1255.12 3320.87 1243.88 3319.55 1235.45 3311.67 1201.73 3302.47 1146.95 3301.15 1135.71 3301.15 1131.49 3298.52 1127.28 3294.58 1127.28 3290.64 1127.28 3289.32 1131.49 3289.32 1135.71 3289.32 1144.14 3295.9 1194.71 3302.47 1232.64 3305.1 1243.88 3307.72 1256.52 3286.69 1262.14 3269.61 1264.95 3251.21 1267.76 3232.81 1269.17 3125.03 1279 3042.22 1274.79 2971.25 1256.52 2929.19 1245.28 2891.07 1229.83 2854.27 1207.35 2850.32 1204.54 2842.44 1196.12 2849.01 1184.88 2856.9 1173.64 2900.27 1093.56 2906.84 1065.47 2908.16 1061.25 2906.84 1058.44 2902.9 1057.04 2900.27 1057.04 2897.64 1057.04 2896.33 1062.66 2893.7 1068.28 2892.38 1075.3 2887.13 1086.54Z" stroke="#58585A" stroke-width="2.29167" stroke-linecap="round" stroke-linejoin="round" stroke-miterlimit="10" fill="none" fill-rule="evenodd"/><path d="M3112 998C3133.33 998 3156 1012.05 3148 1050" stroke="#58585A" stroke-width="2.29167" stroke-linecap="round" stroke-linejoin="round" stroke-miterlimit="10" fill="none" fill-rule="evenodd"/><path d="M3295 1128C3311.97 1122.34 3342 1094.07 3326.33 1046" stroke="#58585A" stroke-width="2.29167" stroke-linecap="round" stroke-linejoin="round" stroke-miterlimit="10" fill="none" fill-rule="evenodd"/><path d="M2917 1013C2899 1024.53 2900.29 1043.26 2906.71 1062" stroke="#58585A" stroke-width="2.29167" stroke-linecap="round" stroke-linejoin="round" stroke-miterlimit="10" fill="none" fill-rule="evenodd"/><path d="M3429 935.4C3415.76 934 3390.62 946.6 3384 969" stroke="#58585A" stroke-width="2.29167" stroke-linecap="round" stroke-linejoin="round" stroke-miterlimit="10" fill="none" fill-rule="evenodd"/><path d="M3331.94 1050.5C3328 1050.5 3325.38 1051.93 3324.06 1056.21 3328 1054.79 3331.94 1053.36 3337.19 1054.79 3338.5 1063.36 3325.38 1070.5 3317.5 1070.5" stroke="#FCE6E6" stroke-width="3.4375" stroke-linecap="round" stroke-linejoin="round" stroke-miterlimit="10" fill="none" fill-rule="evenodd"/><path d="M3382.5 966.667C3385.1 966.667 3387.7 969.5 3389 968.083 3391.6 963.833 3383.8 961 3383.8 959.583 3382.5 952.5 3392.9 956.75 3395.5 959.583" stroke="#FCE6E6" stroke-width="3.4375" stroke-linecap="round" stroke-linejoin="round" stroke-miterlimit="10" fill="none" fill-rule="evenodd"/><path d="M3144.23 1048.12C3146.95 1048.12 3152.41 1049.5 3152.41 1046.73 3149.68 1045.35 3144.23 1046.73 3141.5 1043.96 3144.23 1041.19 3153.77 1039.81 3155.14 1037.04 3156.5 1031.5 3144.23 1034.27 3141.5 1035.65" stroke="#FCE6E6" stroke-width="3.4375" stroke-linecap="round" stroke-linejoin="round" stroke-miterlimit="10" fill="none" fill-rule="evenodd"/><path d="M2914.3 1011.5C2915.6 1012.93 2919.5 1017.21 2916.9 1020.07 2914.3 1021.5 2906.5 1017.21 2906.5 1014.36" stroke="#FCE6E6" stroke-width="3.4375" stroke-linecap="round" stroke-linejoin="round" stroke-miterlimit="10" fill="none" fill-rule="evenodd"/></g></svg>