<svg width="865" height="425" xmlns="http://www.w3.org/2000/svg" xmlns:xlink="http://www.w3.org/1999/xlink" xml:space="preserve" overflow="hidden"><g transform="translate(-2382 -1110)"><path d="M2386.4 1296.53C2372 1490.06 2475.65 1508.49 2651.29 1520.78 2798.13 1529.99 3155.16 1573 3230.02 1385.61 3302 1201.3 3071.66 1127.58 2838.44 1118.36 2619.62 1106.07 2400.79 1103 2386.4 1296.53Z" fill="#6CAC69" fill-rule="evenodd"/><path d="M2836.12 1136.3C3032.12 1145.52 3167.59 1191.63 3210.82 1265.41 3231 1299.22 3231 1336.11 3213.71 1379.15 3150.29 1539 2839 1514.41 2689.12 1505.19 2651.65 1502.11 2651.65 1502.11 2651.65 1502.11 2547.88 1492.89 2470.06 1486.74 2429.71 1437.56 2406.65 1409.89 2398 1363.78 2403.76 1299.22 2403.76 1299.22 2403.76 1299.22 2403.76 1299.22 2418.18 1127.07 2599.76 1124 2836.12 1136.3Z" fill="#C2DDB7" fill-rule="evenodd"/><path d="M3111.82 1231.75C3103.19 1225.6 3103.19 1237.9 3103.19 1244.06 3106.06 1290.2 3114.69 1317.89 3108.94 1339.42 3106.06 1357.88 3097.43 1364.03 3085.93 1364.03 3077.29 1364.03 3068.66 1357.88 3065.79 1327.11 3062.91 1299.43 3068.66 1284.05 3065.79 1247.13 3065.79 1200.99 3028.39 1194.84 3019.76 1191.76 2956.47 1173.3 2979.48 1225.6 2979.48 1234.83 2982.36 1265.59 2985.24 1280.97 2982.36 1320.96 2982.36 1345.57 2982.36 1373.26 2965.1 1373.26 2950.71 1373.26 2950.71 1351.72 2950.71 1324.04 2953.59 1308.66 2953.59 1293.28 2953.59 1277.9 2953.59 1262.51 2953.59 1182.53 2904.68 1176.38 2855.78 1173.3 2861.53 1250.21 2861.53 1271.74 2858.65 1327.11 2858.65 1382.49 2855.78 1397.87 2855.78 1410.17 2844.27 1416.32 2835.64 1413.25 2827.01 1413.25 2818.38 1400.94 2821.25 1391.71 2824.13 1379.41 2824.13 1296.35 2824.13 1219.45 2824.13 1207.14 2827.01 1161 2778.1 1161 2763.72 1161 2746.46 1161 2729.19 1161 2674.53 1161 2680.29 1213.3 2680.29 1213.3 2680.29 1213.3 2691.79 1287.12 2663.03 1287.12 2634.26 1287.12 2645.76 1237.9 2645.76 1210.22 2645.76 1164.08 2576.72 1161 2576.72 1216.37 2576.72 1274.82 2573.84 1345.57 2573.84 1351.72 2573.84 1360.95 2565.21 1370.18 2556.58 1370.18 2547.95 1370.18 2542.2 1360.95 2542.2 1348.65 2542.2 1348.65 2545.07 1265.59 2545.07 1200.99 2545.07 1194.84 2542.2 1179.46 2524.94 1188.69 2470.28 1210.22 2435.75 1247.13 2432.88 1311.73 2430 1345.57 2435.75 1373.26 2447.26 1394.79 2458.77 1413.25 2484.66 1419.4 2484.66 1385.56 2484.66 1348.65 2484.66 1311.73 2484.66 1308.66 2484.66 1299.43 2490.41 1290.2 2501.92 1290.2 2510.55 1290.2 2519.18 1299.43 2519.18 1308.66 2519.18 1339.42 2522.06 1394.79 2522.06 1428.63 2522.06 1434.78 2522.06 1465.54 2559.46 1465.54 2596.86 1465.54 2602.61 1434.78 2602.61 1434.78 2602.61 1400.94 2602.61 1354.8 2599.74 1317.89 2599.74 1305.58 2605.49 1293.28 2617 1293.28 2625.63 1293.28 2628.5 1305.58 2631.38 1317.89 2631.38 1354.8 2631.38 1413.25 2631.38 1450.16 2631.38 1484 2665.9 1477.85 2665.9 1453.24 2665.9 1431.7 2663.03 1404.02 2663.03 1404.02 2665.9 1391.71 2663.03 1370.18 2686.04 1370.18 2711.93 1370.18 2697.55 1416.32 2697.55 1447.09 2697.55 1462.47 2706.18 1474.77 2714.81 1477.85 2729.19 1477.85 2729.19 1462.47 2729.19 1453.24 2729.19 1397.87 2720.56 1311.73 2723.44 1277.9 2723.44 1247.13 2734.95 1234.83 2743.58 1234.83 2755.09 1234.83 2766.59 1240.98 2769.47 1274.82 2775.22 1302.5 2766.59 1379.41 2766.59 1434.78 2766.59 1444.01 2766.59 1484 2824.13 1484 2884.54 1484 2887.42 1437.86 2887.42 1425.55 2887.42 1376.33 2890.3 1314.81 2890.3 1290.2 2890.3 1280.97 2898.93 1271.74 2907.56 1271.74 2916.19 1271.74 2924.82 1280.97 2924.82 1290.2 2924.82 1317.89 2924.82 1379.41 2921.94 1428.63 2921.94 1440.93 2919.07 1480.92 2965.1 1480.92 3014 1480.92 3008.25 1434.78 3011.13 1425.55 3011.13 1404.02 3011.13 1379.41 3008.25 1354.8 3008.25 1345.57 3016.88 1336.34 3025.51 1336.34 3037.02 1336.34 3045.65 1342.5 3045.65 1354.8 3045.65 1385.56 3045.65 1422.48 3045.65 1447.09 3045.65 1456.31 3048.53 1468.62 3062.91 1462.47 3117.57 1447.09 3157.85 1419.4 3175.11 1376.33 3201 1311.73 3172.23 1265.59 3111.82 1231.75Z" fill="#FCBEC5" fill-rule="evenodd"/><path d="M2576.71 1216.17C2576.71 1253.05 2576.71 1296.07 2573.84 1323.73 2576.71 1320.66 2576.71 1320.66 2576.71 1317.59 2579.59 1329.88 2579.59 1339.1 2573.84 1351.39 2573.84 1351.39 2573.84 1351.39 2573.84 1351.39 2573.84 1360.61 2565.21 1369.83 2556.58 1369.83 2553.7 1369.83 2550.82 1366.76 2550.82 1366.76 2550.82 1366.76 2550.82 1366.76 2550.82 1366.76 2553.7 1369.83 2553.7 1372.9 2553.7 1372.9 2553.7 1372.9 2553.7 1372.9 2553.7 1372.9 2553.7 1372.9 2553.7 1372.9 2553.7 1372.9 2556.58 1375.98 2556.58 1375.98 2559.45 1375.98 2559.45 1375.98 2562.33 1372.9 2562.33 1369.83 2591.1 1357.54 2593.97 1302.22 2593.97 1274.56 2593.97 1256.12 2593.97 1240.76 2599.73 1225.39 2602.6 1216.17 2602.6 1203.88 2611.23 1197.73 2616.99 1194.66 2631.37 1188.51 2640 1191.59 2622.74 1167 2576.71 1170.07 2576.71 1216.17ZM2524.93 1188.51C2470.27 1210.02 2435.75 1246.9 2432.88 1311.44 2430 1345.24 2435.75 1372.9 2447.26 1394.41 2458.77 1412.85 2484.66 1419 2484.66 1385.2 2484.66 1366.76 2484.66 1351.39 2484.66 1336.02 2481.78 1329.88 2478.9 1323.73 2476.03 1317.59 2473.15 1311.44 2467.4 1302.22 2467.4 1296.07 2467.4 1289.93 2473.15 1280.71 2476.03 1274.56 2484.66 1262.27 2501.92 1246.9 2516.3 1246.9 2522.05 1246.9 2530.69 1249.98 2533.56 1256.12 2539.32 1265.34 2536.44 1271.49 2539.32 1280.71 2545.07 1314.51 2545.07 1314.51 2545.07 1314.51 2545.07 1283.78 2545.07 1237.68 2545.07 1200.8 2545.07 1194.66 2542.19 1179.29 2524.93 1188.51Z" fill="#FA9BAA" fill-rule="evenodd"/><path d="M2565.44 1407.57C2568.33 1401.39 2568.33 1395.22 2568.33 1385.96 2568.33 1373.61 2577 1364.35 2577 1352 2574.11 1352 2574.11 1352 2574.11 1352 2574.11 1361.26 2565.44 1370.52 2556.78 1370.52 2553.89 1370.52 2553.89 1367.43 2551 1367.43 2553.89 1373.61 2556.78 1376.7 2556.78 1382.87 2562.56 1395.22 2562.56 1410.65 2556.78 1423 2562.56 1419.91 2562.56 1413.74 2565.44 1407.57Z" fill="#FA9BAA" fill-rule="evenodd"/><path d="M2573.96 1447.33C2568.18 1447.33 2562.39 1447.33 2553.71 1444.22 2545.04 1444.22 2533.46 1438 2527.68 1431.78 2519 1416.22 2524.79 1397.56 2521.89 1382 2521.89 1385.11 2521.89 1385.11 2521.89 1385.11 2521.89 1400.67 2521.89 1416.22 2521.89 1428.67 2521.89 1434.89 2521.89 1466 2559.5 1466 2582.64 1466 2594.21 1456.67 2597.11 1444.22 2600 1434.89 2600 1425.56 2600 1416.22 2600 1428.67 2585.54 1444.22 2573.96 1447.33Z" fill="#FA9BAA" fill-rule="evenodd"/><path d="M2643.23 1376.63C2643.23 1361.29 2643.23 1349.02 2640.38 1333.68 2640.38 1321.41 2637.54 1312.2 2629 1303 2629 1306.07 2629 1306.07 2629 1306.07 2629 1309.14 2631.85 1312.2 2631.85 1318.34 2631.85 1355.15 2631.85 1413.44 2631.85 1450.25 2631.85 1484 2666 1477.86 2666 1453.32 2666 1447.19 2666 1437.98 2666 1428.78 2646.08 1422.64 2643.23 1395.03 2643.23 1376.63Z" fill="#FA9BAA" fill-rule="evenodd"/><path d="M2709.27 1385.27C2706.45 1379.09 2703.64 1376 2698 1376 2706.45 1388.36 2698 1422.36 2698 1447.09 2698 1462.55 2706.45 1474.91 2714.91 1478 2729 1478 2729 1462.55 2729 1453.27 2729 1447.09 2729 1444 2729 1437.82 2729 1437.82 2726.18 1437.82 2726.18 1437.82 2706.45 1428.55 2714.91 1403.82 2709.27 1385.27Z" fill="#FA9BAA" fill-rule="evenodd"/><path d="M2666.03 1302.6C2660.29 1296.48 2657.42 1290.35 2657.42 1284.22 2637.32 1278.1 2645.94 1235.21 2645.94 1210.7 2645.94 1192.32 2631.58 1180.06 2617.23 1177 2611.48 1183.13 2608.61 1189.25 2602.87 1195.38 2600 1198.44 2600 1216.83 2600 1222.95 2611.48 1201.51 2617.23 1204.57 2622.97 1213.76 2631.58 1222.95 2625.84 1238.27 2628.71 1250.52 2628.71 1259.71 2631.58 1275.03 2634.45 1284.22 2637.32 1293.41 2640.19 1296.48 2645.94 1302.6 2651.68 1308.73 2654.55 1317.92 2660.29 1324.05 2663.16 1330.17 2668.9 1330.17 2674.65 1336.3 2683.26 1348.56 2680.39 1357.75 2674.65 1370 2686.13 1360.81 2689 1336.3 2680.39 1320.98 2677.52 1314.86 2671.77 1308.73 2666.03 1302.6Z" fill="#FA9BAA" fill-rule="evenodd"/><path d="M2806.92 1231.89C2809.79 1250.38 2812.66 1268.87 2812.66 1287.36 2812.66 1296.61 2815.53 1308.93 2818.4 1318.18 2818.4 1330.51 2818.4 1339.75 2818.4 1349 2821.26 1339.75 2821.26 1333.59 2824.13 1324.34 2824.13 1293.52 2824.13 1253.46 2824.13 1219.56 2824.13 1207.23 2827 1161 2778.25 1161 2763.91 1161 2746.7 1161 2729.49 1161 2675 1161 2680.74 1213.39 2680.74 1213.39 2680.74 1213.39 2686.47 1244.21 2680.74 1265.79 2686.47 1271.95 2686.47 1271.95 2686.47 1271.95 2692.21 1259.62 2697.94 1250.38 2700.81 1234.97 2700.81 1219.56 2703.68 1204.15 2712.28 1194.9 2726.62 1182.57 2752.43 1188.74 2766.77 1188.74 2789.72 1191.82 2801.19 1207.23 2806.92 1231.89Z" fill="#FA9BAA" fill-rule="evenodd"/><path d="M2824.58 1484C2838.97 1484 2850.48 1480.92 2859.12 1477.84 2862 1468.59 2859.12 1456.27 2859.12 1450.1 2862 1440.86 2862 1431.61 2856.24 1425.45 2853.36 1419.29 2847.61 1416.2 2841.85 1413.12 2841.85 1413.12 2841.85 1413.12 2838.97 1413.12 2838.97 1419.29 2838.97 1425.45 2838.97 1428.53 2836.09 1434.69 2833.21 1440.86 2830.33 1443.94 2824.58 1453.18 2807.3 1453.18 2795.79 1447.02 2784.27 1437.78 2781.39 1422.37 2778.51 1410.04 2775.64 1385.39 2772.76 1357.65 2772.76 1333 2769.88 1339.16 2769.88 1339.16 2769.88 1339.16 2769.88 1369.98 2767 1403.88 2767 1434.69 2767 1443.94 2767 1484 2824.58 1484Z" fill="#FA9BAA" fill-rule="evenodd"/><path d="M2948.24 1305.82C2948.24 1302.73 2951.12 1299.64 2954 1293.47 2954 1290.38 2954 1284.2 2954 1278.02 2954 1262.58 2954 1182.27 2905 1176.09 2856 1173 2861.76 1250.22 2861.76 1271.84 2861.76 1284.2 2861.76 1293.47 2858.88 1302.73 2864.65 1312 2864.65 1312 2864.65 1312 2870.41 1284.2 2867.53 1213.16 2907.88 1222.42 2922.29 1225.51 2933.82 1237.87 2939.59 1250.22 2945.35 1265.67 2951.12 1287.29 2948.24 1305.82Z" fill="#FA9BAA" fill-rule="evenodd"/><path d="M2879 1229.29C2881.87 1229.29 2884.74 1229.29 2890.48 1229.29 2899.09 1229.29 2899.09 1232.33 2904.83 1238.43 2913.43 1253.67 2910.57 1259.76 2904.83 1275 2913.43 1268.9 2916.3 1262.81 2919.17 1250.62 2919.17 1238.43 2927.78 1232.33 2939.26 1241.48 2945 1226.24 2913.43 1211 2901.96 1211" fill="#FA9BAA" fill-rule="evenodd"/><path d="M3066.13 1246.88C3066.13 1200.71 3028.79 1194.55 3020.18 1191.47 2957 1173 2979.97 1225.33 2979.97 1234.57 2982.85 1259.2 2985.72 1274.59 2985.72 1305.37 2988.59 1330 2988.59 1330 2988.59 1330 2988.59 1317.69 2991.46 1305.37 2994.33 1293.06 2997.21 1277.67 2997.21 1262.27 3002.95 1249.96 3008.69 1234.57 3020.18 1237.65 3028.79 1246.88 3040.28 1253.04 3048.9 1256.12 3054.64 1268.43 3054.64 1277.67 3057.51 1283.82 3060.38 1293.06 3060.38 1299.22 3057.51 1311.53 3060.38 1317.69 3063.26 1314.61 3063.26 1314.61 3066.13 1311.53 3066.13 1293.06 3069 1274.59 3066.13 1246.88Z" fill="#FA9BAA" fill-rule="evenodd"/><path d="M3111.97 1231.16C3103.36 1225 3103.36 1237.33 3103.36 1243.49 3106.23 1289.72 3114.85 1317.46 3109.1 1339.03 3106.23 1357.52 3097.62 1363.69 3089 1363.69 3089 1366.77 3089 1366.77 3089 1366.77 3094.74 1369.85 3109.1 1363.69 3114.85 1360.61 3129.21 1348.28 3126.33 1329.79 3146.44 1335.95 3160.79 1339.03 3172.28 1357.52 3172.28 1372.93 3169.41 1379.1 3166.54 1385.26 3163.67 1391.43 3160.79 1397.59 3155.05 1406.84 3152.18 1413 3163.67 1400.67 3169.41 1388.34 3175.15 1376.02 3201 1311.3 3172.28 1265.07 3111.97 1231.16Z" fill="#FA9BAA" fill-rule="evenodd"/><path d="M3060.42 1373.24C3069.17 1382.41 3080.83 1382.41 3089.58 1388.53 3095.42 1394.65 3104.17 1403.82 3098.33 1413 3110 1400.76 3098.33 1376.29 3086.67 1367.12 3086.67 1364.06 3086.67 1364.06 3086.67 1364.06 3077.92 1364.06 3069.17 1354.88 3066.25 1327.35 3066.25 1321.24 3066.25 1315.12 3066.25 1309 3054.58 1333.47 3040 1357.94 3060.42 1373.24Z" fill="#FA9BAA" fill-rule="evenodd"/><path d="M3060.23 1400.84C3063.08 1394.74 3063.08 1385.58 3068.77 1382.53 3074.46 1382.53 3077.31 1385.58 3080.15 1385.58 3060.23 1352 3060.23 1352 3060.23 1352 3054.54 1352 3048.85 1355.05 3046 1361.16 3046 1391.68 3046 1422.21 3046 1446.63 3046 1455.79 3048.85 1468 3063.08 1461.89 3068.77 1461.89 3077.31 1458.84 3083 1455.79 3065.92 1443.58 3057.38 1425.26 3060.23 1400.84Z" fill="#FA9BAA" fill-rule="evenodd"/><path d="M2982.19 1419C2982.19 1409.83 2985 1403.72 2979.38 1394.56 2976.56 1388.44 2973.75 1382.33 2968.12 1376.22 2968.12 1373.17 2968.12 1373.17 2968.12 1373.17 2968.12 1373.17 2968.12 1373.17 2965.31 1373.17 2951.25 1373.17 2951.25 1351.78 2951.25 1324.28 2951.25 1318.17 2954.06 1312.06 2954.06 1309 2948.44 1318.17 2942.81 1330.39 2942.81 1342.61 2940 1354.83 2940 1382.33 2951.25 1391.5 2965.31 1400.67 2982.19 1397.61 2982.19 1419Z" fill="#FA9BAA" fill-rule="evenodd"/><path d="M2965.94 1481C3000.39 1481 3009 1456.33 3009 1440.92 3000.39 1453.25 2988.9 1459.42 2974.55 1459.42 2957.32 1456.33 2948.71 1453.25 2942.97 1434.75 2934.35 1416.25 2928.61 1394.67 2928.61 1370 2928.61 1360.75 2925.74 1345.33 2928.61 1333 2925.74 1333 2925.74 1333 2925.74 1333 2925.74 1360.75 2925.74 1397.75 2922.87 1428.58 2922.87 1440.92 2920 1481 2965.94 1481Z" fill="#FA9BAA" fill-rule="evenodd"/><path d="M2386.4 1296.53C2372 1490.06 2475.65 1508.49 2651.29 1520.78 2798.13 1529.99 3155.16 1573 3230.02 1385.61 3302 1201.3 3071.66 1127.58 2838.44 1118.36 2619.62 1106.07 2400.79 1103 2386.4 1296.53Z" stroke="#333333" stroke-width="5.72917" stroke-linecap="round" stroke-linejoin="round" stroke-miterlimit="10" fill="none" fill-rule="evenodd"/><path d="M2836.12 1136.3C3032.12 1145.52 3167.59 1191.63 3210.82 1265.41 3231 1299.22 3231 1336.11 3213.71 1379.15 3150.29 1539 2839 1514.41 2689.12 1505.19 2651.65 1502.11 2651.65 1502.11 2651.65 1502.11 2547.88 1492.89 2470.06 1486.74 2429.71 1437.56 2406.65 1409.89 2398 1363.78 2403.76 1299.22 2403.76 1299.22 2403.76 1299.22 2403.76 1299.22 2418.18 1127.07 2599.76 1124 2836.12 1136.3Z" stroke="#FFFFFF" stroke-width="5.72917" stroke-linecap="round" stroke-linejoin="round" stroke-miterlimit="10" fill="none" fill-rule="evenodd"/><path d="M2836.5 1413.5C2859.61 1416.59 2862.5 1432.05 2862.5 1447.5" stroke="#FFFFFF" stroke-width="2.86476" stroke-linecap="round" stroke-linejoin="round" stroke-miterlimit="10" fill="none" fill-rule="evenodd"/><path d="M2960.5 1370.5C2982.72 1382.77 2985.5 1401.17 2985.5 1416.5" stroke="#FFFFFF" stroke-width="2.86476" stroke-linecap="round" stroke-linejoin="round" stroke-miterlimit="10" fill="none" fill-rule="evenodd"/><path d="M3081.5 1364.5C3104.61 1382.9 3107.5 1389.03 3101.72 1410.5" stroke="#FFFFFF" stroke-width="2.86476" stroke-linecap="round" stroke-linejoin="round" stroke-miterlimit="10" fill="none" fill-rule="evenodd"/><path d="M2545.5 1364.5C2566.5 1385.94 2557.5 1401.25 2557.5 1413.5" stroke="#FFFFFF" stroke-width="2.86476" stroke-linecap="round" stroke-linejoin="round" stroke-miterlimit="10" fill="none" fill-rule="evenodd"/><path d="M2651.5 1278.5C2663.19 1303 2683.65 1315.25 2686.58 1336.69 2689.5 1352 2686.58 1364.25 2671.96 1376.5" stroke="#FFFFFF" stroke-width="2.86476" stroke-linecap="round" stroke-linejoin="round" stroke-miterlimit="10" fill="none" fill-rule="evenodd"/><path d="M2735.5 1235.5C2749.88 1235.5 2758.5 1229.21 2758.5 1213.5" stroke="#FFFFFF" stroke-width="2.86476" stroke-linecap="round" stroke-linejoin="round" stroke-miterlimit="10" fill="none" fill-rule="evenodd"/><path d="M2897.5 1275.5C2911.88 1272.38 2920.5 1266.13 2920.5 1250.5" stroke="#FFFFFF" stroke-width="2.86476" stroke-linecap="round" stroke-linejoin="round" stroke-miterlimit="10" fill="none" fill-rule="evenodd"/><path d="M2688.97 1170.37C2671.69 1188.81 2674.57 1213.39 2674.57 1216.47 2677.45 1228.76 2680.33 1265.64 2668.81 1277.94 2668.81 1277.94 2665.93 1281.01 2663.05 1281.01 2660.17 1281.01 2657.29 1277.94 2654.41 1277.94 2648.65 1268.72 2648.65 1247.2 2651.53 1228.76 2651.53 1210.32 2651.53 1210.32 2651.53 1210.32 2651.53 1182.66 2631.37 1170.37 2611.21 1170.37 2599.69 1170.37 2591.05 1173.44 2582.41 1179.59 2573.77 1188.81 2570.89 1201.1 2570.89 1216.47 2570.89 1216.47 2568.01 1351.7 2568.01 1351.7 2568.01 1357.84 2562.25 1363.99 2556.49 1363.99 2553.61 1363.99 2547.85 1363.99 2547.85 1348.62 2547.85 1348.62 2550.73 1265.64 2550.73 1201.1 2550.73 1191.88 2544.97 1185.73 2542.09 1182.66 2536.33 1179.59 2530.57 1179.59 2521.93 1182.66 2461.44 1207.25 2429.76 1250.28 2426.88 1311.74 2424 1345.55 2429.76 1373.21 2444.16 1397.8 2449.92 1410.09 2464.32 1419.31 2475.84 1416.24 2481.6 1413.17 2490.24 1407.02 2490.24 1385.5 2490.24 1385.5 2490.24 1308.67 2490.24 1308.67 2490.24 1302.52 2493.12 1296.38 2501.76 1296.38 2507.52 1296.38 2513.28 1302.52 2513.28 1308.67 2516.17 1428.53 2516.17 1428.53 2516.17 1428.53 2516.17 1456.19 2530.57 1471.56 2559.37 1471.56 2599.69 1471.56 2608.33 1440.83 2608.33 1434.68 2605.45 1317.89 2605.45 1317.89 2605.45 1317.89 2605.45 1308.67 2611.21 1299.45 2616.97 1299.45 2619.85 1299.45 2622.73 1308.67 2625.61 1317.89 2625.61 1450.05 2625.61 1450.05 2625.61 1450.05 2625.61 1459.27 2628.49 1465.41 2631.37 1471.56 2637.13 1477.71 2640.01 1480.78 2648.65 1480.78 2660.17 1480.78 2671.69 1468.49 2671.69 1453.12 2668.81 1403.95 2668.81 1403.95 2668.81 1403.95 2668.81 1403.95 2668.81 1400.87 2668.81 1400.87 2668.81 1394.72 2668.81 1385.5 2674.57 1379.36 2677.45 1379.36 2680.33 1376.28 2686.09 1376.28 2691.85 1376.28 2691.85 1379.36 2691.85 1379.36 2697.61 1385.5 2697.61 1407.02 2694.73 1422.39 2691.85 1446.97 2691.85 1446.97 2691.85 1446.97 2691.85 1465.41 2700.49 1477.71 2714.9 1480.78 2720.66 1483.85 2726.42 1480.78 2729.3 1477.71 2732.18 1474.63 2735.06 1465.41 2735.06 1453.12 2735.06 1425.46 2732.18 1391.65 2732.18 1360.92 2729.3 1327.11 2726.42 1296.38 2729.3 1277.94 2729.3 1250.28 2737.94 1241.06 2743.7 1241.06 2758.1 1241.06 2763.86 1259.5 2763.86 1274.86 2766.74 1293.3 2763.86 1336.33 2763.86 1379.36 2760.98 1431.61 2760.98 1431.61 2760.98 1431.61 2760.98 1453.12 2766.74 1465.41 2772.5 1471.56 2784.02 1483.85 2801.3 1490 2824.34 1490 2884.82 1490 2893.46 1443.9 2893.46 1425.46 2896.34 1290.23 2896.34 1290.23 2896.34 1290.23 2896.34 1284.08 2902.1 1277.94 2907.87 1277.94 2913.63 1277.94 2919.39 1284.08 2919.39 1290.23 2916.51 1428.53 2916.51 1428.53 2916.51 1428.53 2916.51 1431.61 2916.51 1431.61 2916.51 1431.61 2916.51 1440.83 2916.51 1459.27 2928.03 1471.56 2936.67 1480.78 2948.19 1486.93 2965.47 1486.93 2982.75 1486.93 2994.27 1480.78 3002.91 1471.56 3017.31 1459.27 3017.31 1437.75 3017.31 1428.53 3014.43 1354.77 3014.43 1354.77 3014.43 1354.77 3014.43 1348.62 3020.19 1342.48 3025.95 1342.48 3031.71 1342.48 3034.59 1342.48 3034.59 1345.55 3037.47 1348.62 3040.35 1351.7 3040.35 1354.77 3040.35 1385.5 3040.35 1422.39 3040.35 1446.97 3040.35 1453.12 3040.35 1462.34 3048.99 1468.49 3051.87 1468.49 3057.63 1471.56 3066.27 1468.49 3126.76 1450.05 3164.2 1419.31 3181.48 1379.36 3187.24 1363.99 3190.12 1348.62 3190.12 1333.26 3190.12 1290.23 3167.08 1253.35 3115.24 1225.69 3109.48 1222.61 3106.6 1222.61 3103.72 1225.69 3097.96 1228.76 3097.96 1241.06 3097.96 1244.13 3100.84 1293.3 3100.84 1293.3 3100.84 1293.3 3103.72 1311.74 3106.6 1327.11 3103.72 1336.33 3100.84 1357.84 3095.08 1357.84 3086.43 1357.84 3083.55 1357.84 3074.91 1357.84 3072.03 1327.11 3069.15 1311.74 3072.03 1302.52 3072.03 1287.16 3072.03 1247.2 3072.03 1247.2 3072.03 1247.2 3069.15 1201.1 3034.59 1188.81 3023.07 1185.73 3020.19 1185.73 3020.19 1185.73 3020.19 1185.73 3000.03 1179.59 2985.63 1179.59 2976.99 1188.81 2965.47 1201.1 2971.23 1219.54 2971.23 1231.83 2974.11 1234.91 2974.11 1234.91 2974.11 1234.91 2976.99 1256.42 2976.99 1256.42 2976.99 1256.42 2976.99 1274.86 2979.87 1290.23 2976.99 1320.96 2976.99 1330.18 2976.99 1330.18 2976.99 1330.18 2976.99 1345.55 2976.99 1367.06 2965.47 1367.06 2965.47 1367.06 2962.59 1367.06 2962.59 1367.06 2956.83 1360.92 2956.83 1342.48 2956.83 1324.04 2956.83 1324.04 2959.71 1277.94 2959.71 1277.94 2959.71 1259.5 2959.71 1176.51 2904.99 1170.37 2893.46 1170.37 2881.94 1173.44 2873.3 1182.66 2853.14 1201.1 2853.14 1244.13 2856.02 1265.64 2856.02 1271.79 2856.02 1271.79 2856.02 1271.79 2853.14 1360.92 2853.14 1388.58 2850.26 1397.8 2850.26 1400.87 2847.38 1403.95 2844.5 1407.02 2844.5 1407.02 2838.74 1407.02 2835.86 1407.02 2832.98 1407.02 2830.1 1403.95 2830.1 1403.95 2827.22 1400.87 2827.22 1394.72 2827.22 1391.65 2830.1 1376.28 2830.1 1265.64 2830.1 1219.54 2830.1 1207.25 2830.1 1185.73 2815.7 1170.37 2807.06 1161.15 2795.54 1155 2778.26 1155 2778.26 1155 2729.3 1155 2729.3 1155 2712.02 1155 2697.61 1161.15 2688.97 1170.37ZM2680.33 1284.08C2694.73 1265.64 2688.97 1219.54 2686.09 1213.39 2686.09 1213.39 2686.09 1191.88 2697.61 1179.59 2703.37 1170.37 2714.9 1167.29 2729.3 1167.29 2778.26 1167.29 2778.26 1167.29 2778.26 1167.29 2792.66 1167.29 2801.3 1170.37 2809.94 1179.59 2818.58 1188.81 2818.58 1210.32 2818.58 1216.47 2818.58 1314.82 2818.58 1379.36 2815.7 1391.65 2815.7 1397.8 2815.7 1403.95 2818.58 1410.09 2824.34 1416.24 2827.22 1419.31 2835.86 1419.31 2841.62 1422.39 2847.38 1419.31 2853.14 1416.24 2858.9 1413.17 2861.78 1407.02 2861.78 1400.87 2864.66 1385.5 2864.66 1345.55 2867.54 1271.79 2867.54 1265.64 2867.54 1265.64 2867.54 1265.64 2864.66 1247.2 2864.66 1207.25 2881.94 1188.81 2887.7 1185.73 2893.46 1182.66 2904.99 1182.66 2948.19 1185.73 2948.19 1262.57 2948.19 1277.94 2945.31 1320.96 2945.31 1320.96 2945.31 1320.96 2945.31 1345.55 2945.31 1363.99 2953.95 1373.21 2956.83 1379.36 2962.59 1379.36 2965.47 1379.36 2985.63 1379.36 2988.51 1351.7 2988.51 1330.18 2988.51 1320.96 2988.51 1320.96 2988.51 1320.96 2991.39 1290.23 2988.51 1271.79 2988.51 1253.35 2985.63 1234.91 2985.63 1234.91 2985.63 1234.91 2982.75 1228.76 2982.75 1228.76 2982.75 1228.76 2982.75 1219.54 2976.99 1204.17 2982.75 1198.03 2988.51 1191.88 3000.03 1191.88 3017.31 1198.03 3017.31 1198.03 3020.19 1198.03 3020.19 1198.03 3031.71 1201.1 3060.51 1210.32 3060.51 1247.2 3060.51 1247.2 3060.51 1287.16 3060.51 1287.16 3060.51 1299.45 3057.63 1311.74 3060.51 1327.11 3060.51 1345.55 3066.27 1370.14 3086.43 1370.14 3103.72 1370.14 3109.48 1360.92 3115.24 1339.4 3115.24 1336.33 3115.24 1330.18 3115.24 1324.04 3115.24 1314.82 3115.24 1305.6 3112.36 1290.23 3109.48 1244.13 3109.48 1244.13 3109.48 1244.13 3109.48 1244.13 3109.48 1241.06 3109.48 1241.06 3109.48 1237.98 3109.48 1234.91 3109.48 1234.91 3109.48 1234.91 3112.36 1234.91 3112.36 1234.91 3112.36 1234.91 3112.36 1234.91 3112.36 1234.91 3172.84 1271.79 3193 1317.89 3172.84 1373.21 3155.56 1413.17 3118.12 1440.83 3063.39 1456.19 3057.63 1459.27 3054.75 1459.27 3054.75 1456.19 3051.87 1456.19 3051.87 1450.05 3051.87 1446.97 3051.87 1422.39 3051.87 1385.5 3051.87 1354.77 3051.87 1345.55 3048.99 1339.4 3043.23 1336.33 3040.35 1333.26 3031.71 1330.18 3025.95 1330.18 3020.19 1330.18 3014.43 1333.26 3011.55 1336.33 3005.79 1342.48 3002.91 1348.62 3002.91 1354.77 3005.79 1428.53 3005.79 1428.53 3005.79 1428.53 3005.79 1437.75 3005.79 1453.12 2994.27 1465.41 2988.51 1471.56 2979.87 1474.63 2965.47 1474.63 2951.07 1474.63 2942.43 1471.56 2936.67 1465.41 2928.03 1456.19 2928.03 1440.83 2928.03 1431.61 2928.03 1428.53 2928.03 1428.53 2928.03 1428.53 2930.91 1290.23 2930.91 1290.23 2930.91 1290.23 2930.91 1277.94 2919.39 1265.64 2907.87 1265.64 2893.46 1265.64 2884.82 1277.94 2884.82 1290.23 2881.94 1425.46 2881.94 1425.46 2881.94 1425.46 2881.94 1443.9 2873.3 1477.71 2824.34 1477.71 2804.18 1477.71 2789.78 1471.56 2781.14 1462.34 2775.38 1456.19 2772.5 1446.97 2772.5 1434.68 2775.38 1379.36 2775.38 1379.36 2775.38 1379.36 2775.38 1336.33 2778.26 1293.3 2775.38 1271.79 2772.5 1234.91 2755.22 1228.76 2743.7 1228.76 2735.06 1228.76 2717.78 1234.91 2717.78 1277.94 2714.9 1296.38 2717.78 1327.11 2720.66 1360.92 2720.66 1391.65 2723.54 1425.46 2723.54 1453.12 2723.54 1465.41 2720.66 1468.49 2720.66 1468.49 2720.66 1468.49 2717.78 1471.56 2717.78 1471.56 2709.14 1468.49 2703.37 1459.27 2703.37 1446.97 2703.37 1446.97 2706.25 1422.39 2706.25 1422.39 2709.14 1400.87 2712.02 1382.43 2700.49 1370.14 2697.61 1367.06 2691.85 1363.99 2686.09 1363.99 2677.45 1363.99 2671.69 1367.06 2665.93 1373.21 2657.29 1379.36 2657.29 1391.65 2657.29 1400.87 2657.29 1403.95 2657.29 1403.95 2657.29 1403.95 2657.29 1403.95 2660.17 1453.12 2660.17 1453.12 2660.17 1462.34 2654.41 1468.49 2648.65 1468.49 2645.77 1468.49 2642.89 1465.41 2640.01 1462.34 2637.13 1459.27 2637.13 1456.19 2637.13 1450.05 2637.13 1317.89 2637.13 1317.89 2637.13 1317.89 2634.25 1308.67 2634.25 1302.52 2631.37 1296.38 2628.49 1290.23 2622.73 1287.16 2614.09 1287.16 2602.57 1287.16 2593.93 1305.6 2593.93 1317.89 2596.81 1434.68 2596.81 1434.68 2596.81 1434.68 2596.81 1434.68 2591.05 1459.27 2559.37 1459.27 2539.21 1459.27 2527.69 1450.05 2527.69 1428.53 2527.69 1428.53 2524.81 1308.67 2524.81 1308.67 2524.81 1296.38 2513.28 1284.08 2501.76 1284.08 2487.36 1284.08 2478.72 1296.38 2478.72 1311.74 2478.72 1311.74 2478.72 1385.5 2478.72 1385.5 2478.72 1391.65 2478.72 1400.87 2472.96 1403.95 2467.2 1403.95 2458.56 1400.87 2452.8 1391.65 2441.28 1370.14 2435.52 1345.55 2438.4 1311.74 2441.28 1256.42 2467.2 1219.54 2524.81 1194.95 2530.57 1191.88 2533.45 1191.88 2536.33 1191.88 2536.33 1194.95 2539.21 1198.03 2539.21 1201.1 2539.21 1265.64 2536.33 1348.62 2536.33 1348.62 2536.33 1363.99 2544.97 1376.28 2556.49 1376.28 2570.89 1376.28 2579.53 1363.99 2579.53 1351.7 2579.53 1351.7 2582.41 1216.47 2582.41 1216.47 2582.41 1204.17 2585.29 1194.95 2591.05 1188.81 2596.81 1185.73 2602.57 1182.66 2611.21 1182.66 2625.61 1182.66 2640.01 1191.88 2640.01 1210.32 2640.01 1228.76 2640.01 1228.76 2640.01 1228.76 2637.13 1250.28 2637.13 1271.79 2645.77 1284.08 2651.53 1290.23 2657.29 1293.3 2663.05 1293.3 2668.81 1293.3 2674.57 1290.23 2680.33 1284.08ZM3115.24 1225.69C3115.24 1225.69 3115.24 1225.69 3115.24 1225.69 3115.24 1225.69 3115.24 1225.69 3115.24 1225.69 3115.24 1225.69 3115.24 1225.69 3115.24 1225.69Z" fill="#FDCFC2" fill-rule="evenodd"/><path d="M2689.43 1170.87C2672.15 1189.31 2675.03 1213.89 2675.03 1216.97 2677.91 1229.26 2680.79 1266.14 2669.27 1278.44 2669.27 1278.44 2666.39 1281.51 2663.51 1281.51 2660.64 1281.51 2657.76 1278.44 2654.88 1278.44 2649.12 1269.22 2649.12 1247.7 2652 1229.26 2652 1210.82 2652 1210.82 2652 1210.82 2652 1183.16 2631.84 1170.87 2611.68 1170.87 2600.16 1170.87 2591.52 1173.94 2582.88 1180.09 2574.24 1189.31 2571.36 1201.6 2571.36 1216.97 2571.36 1216.97 2568.48 1352.2 2568.48 1352.2 2568.48 1358.34 2562.73 1364.49 2556.97 1364.49 2554.09 1364.49 2548.33 1364.49 2548.33 1349.12 2548.33 1349.12 2551.21 1266.14 2551.21 1201.6 2551.21 1192.38 2545.45 1186.23 2542.57 1183.16 2536.81 1180.09 2531.05 1180.09 2522.41 1183.16 2461.94 1207.75 2430.26 1250.78 2427.38 1312.24 2424.5 1346.05 2430.26 1373.71 2444.66 1398.3 2450.42 1410.59 2464.82 1419.81 2476.33 1416.74 2482.09 1413.67 2490.73 1407.52 2490.73 1386 2490.73 1386 2490.73 1309.17 2490.73 1309.17 2490.73 1303.02 2493.61 1296.88 2502.25 1296.88 2508.01 1296.88 2513.77 1303.02 2513.77 1309.17 2516.65 1429.03 2516.65 1429.03 2516.65 1429.03 2516.65 1456.69 2531.05 1472.06 2559.85 1472.06 2600.16 1472.06 2608.8 1441.33 2608.8 1435.18 2605.92 1318.39 2605.92 1318.39 2605.92 1318.39 2605.92 1309.17 2611.68 1299.95 2617.44 1299.95 2620.32 1299.95 2623.2 1309.17 2626.08 1318.39 2626.08 1450.55 2626.08 1450.55 2626.08 1450.55 2626.08 1459.77 2628.96 1465.91 2631.84 1472.06 2637.6 1478.21 2640.48 1481.28 2649.12 1481.28 2660.64 1481.28 2672.15 1468.99 2672.15 1453.62 2669.27 1404.44 2669.27 1404.44 2669.27 1404.44 2669.27 1404.44 2669.27 1401.37 2669.27 1401.37 2669.27 1395.22 2669.27 1386 2675.03 1379.86 2677.91 1379.86 2680.79 1376.78 2686.55 1376.78 2692.31 1376.78 2692.31 1379.86 2692.31 1379.86 2698.07 1386 2698.07 1407.52 2695.19 1422.89 2692.31 1447.47 2692.31 1447.47 2692.31 1447.47 2692.31 1465.91 2700.95 1478.21 2715.35 1481.28 2721.11 1484.35 2726.87 1481.28 2729.75 1478.21 2732.63 1475.13 2735.51 1465.91 2735.51 1453.62 2735.51 1425.96 2732.63 1392.15 2732.63 1361.42 2729.75 1327.61 2726.87 1296.88 2729.75 1278.44 2729.75 1250.78 2738.39 1241.55 2744.15 1241.55 2758.55 1241.55 2764.3 1260 2764.3 1275.36 2767.18 1293.8 2764.3 1336.83 2764.3 1379.86 2761.42 1432.11 2761.42 1432.11 2761.42 1432.11 2761.42 1453.62 2767.18 1465.91 2772.94 1472.06 2784.46 1484.35 2801.74 1490.5 2824.78 1490.5 2885.25 1490.5 2893.89 1444.4 2893.89 1425.96 2896.77 1290.73 2896.77 1290.73 2896.77 1290.73 2896.77 1284.58 2902.53 1278.44 2908.29 1278.44 2914.05 1278.44 2919.81 1284.58 2919.81 1290.73 2916.93 1429.03 2916.93 1429.03 2916.93 1429.03 2916.93 1432.11 2916.93 1432.11 2916.93 1432.11 2916.93 1441.33 2916.93 1459.77 2928.45 1472.06 2937.09 1481.28 2948.61 1487.43 2965.88 1487.43 2983.16 1487.43 2994.68 1481.28 3003.32 1472.06 3017.72 1459.77 3017.72 1438.25 3017.72 1429.03 3014.84 1355.27 3014.84 1355.27 3014.84 1355.27 3014.84 1349.12 3020.6 1342.98 3026.36 1342.98 3032.12 1342.98 3035 1342.98 3035 1346.05 3037.88 1349.12 3040.76 1352.2 3040.76 1355.27 3040.76 1386 3040.76 1422.89 3040.76 1447.47 3040.76 1453.62 3040.76 1462.84 3049.39 1468.99 3052.27 1468.99 3058.03 1472.06 3066.67 1468.99 3127.15 1450.55 3164.58 1419.81 3181.86 1379.86 3187.62 1364.49 3190.5 1349.12 3190.5 1333.76 3190.5 1290.73 3167.46 1253.85 3115.63 1226.19 3109.87 1223.11 3106.99 1223.11 3104.11 1226.19 3098.35 1229.26 3098.35 1241.55 3098.35 1244.63 3101.23 1293.8 3101.23 1293.8 3101.23 1293.8 3104.11 1312.24 3106.99 1327.61 3104.11 1336.83 3101.23 1358.34 3095.47 1358.34 3086.83 1358.34 3083.95 1358.34 3075.31 1358.34 3072.43 1327.61 3069.55 1312.24 3072.43 1303.02 3072.43 1287.66 3072.43 1247.7 3072.43 1247.7 3072.43 1247.7 3069.55 1201.6 3035 1189.31 3023.48 1186.23 3020.6 1186.23 3020.6 1186.23 3020.6 1186.23 3000.44 1180.09 2986.04 1180.09 2977.4 1189.31 2965.88 1201.6 2971.64 1220.04 2971.64 1232.33 2974.52 1235.41 2974.52 1235.41 2974.52 1235.41 2977.4 1256.92 2977.4 1256.92 2977.4 1256.92 2977.4 1275.36 2980.28 1290.73 2977.4 1321.46 2977.4 1330.68 2977.4 1330.68 2977.4 1330.68 2977.4 1346.05 2977.4 1367.56 2965.88 1367.56 2965.88 1367.56 2963 1367.56 2963 1367.56 2957.24 1361.42 2957.24 1342.98 2957.24 1324.54 2957.24 1324.54 2960.12 1278.44 2960.12 1278.44 2960.12 1260 2960.12 1177.01 2905.41 1170.87 2893.89 1170.87 2882.37 1173.94 2873.73 1183.16 2853.58 1201.6 2853.58 1244.63 2856.45 1266.14 2856.45 1272.29 2856.45 1272.29 2856.45 1272.29 2853.58 1361.42 2853.58 1389.08 2850.7 1398.3 2850.7 1401.37 2847.82 1404.44 2844.94 1407.52 2844.94 1407.52 2839.18 1407.52 2836.3 1407.52 2833.42 1407.52 2830.54 1404.44 2830.54 1404.44 2827.66 1401.37 2827.66 1395.22 2827.66 1392.15 2830.54 1376.78 2830.54 1266.14 2830.54 1220.04 2830.54 1207.75 2830.54 1186.23 2816.14 1170.87 2807.5 1161.65 2795.98 1155.5 2778.7 1155.5 2778.7 1155.5 2729.75 1155.5 2729.75 1155.5 2712.47 1155.5 2698.07 1161.65 2689.43 1170.87Z" stroke="#333333" stroke-width="2.86476" stroke-linecap="round" stroke-linejoin="round" stroke-miterlimit="10" fill="none" fill-rule="evenodd"/><path d="M3112.32 1232.25C3103.69 1226.1 3103.69 1238.4 3103.69 1244.56 3106.56 1290.7 3115.19 1318.39 3109.44 1339.92 3106.56 1358.38 3097.93 1364.53 3086.43 1364.53 3077.79 1364.53 3069.16 1358.38 3066.29 1327.61 3063.41 1299.93 3069.16 1284.55 3066.29 1247.63 3066.29 1201.49 3028.89 1195.34 3020.26 1192.26 2956.97 1173.8 2979.98 1226.1 2979.98 1235.33 2982.86 1266.09 2985.74 1281.47 2982.86 1321.46 2982.86 1346.07 2982.86 1373.76 2965.6 1373.76 2951.21 1373.76 2951.21 1352.22 2951.21 1324.54 2954.09 1309.16 2954.09 1293.78 2954.09 1278.4 2954.09 1263.01 2954.09 1183.03 2905.18 1176.88 2856.28 1173.8 2862.03 1250.71 2862.03 1272.24 2859.15 1327.61 2859.15 1382.99 2856.28 1398.37 2856.28 1410.67 2844.77 1416.82 2836.14 1413.75 2827.51 1413.75 2818.88 1401.44 2821.75 1392.21 2824.63 1379.91 2824.63 1296.85 2824.63 1219.95 2824.63 1207.64 2827.51 1161.5 2778.6 1161.5 2764.22 1161.5 2746.96 1161.5 2729.69 1161.5 2675.03 1161.5 2680.79 1213.8 2680.79 1213.8 2680.79 1213.8 2692.29 1287.62 2663.53 1287.62 2634.76 1287.62 2646.27 1238.4 2646.27 1210.72 2646.27 1164.58 2577.22 1161.5 2577.22 1216.87 2577.22 1275.32 2574.34 1346.07 2574.34 1352.22 2574.34 1361.45 2565.71 1370.68 2557.08 1370.68 2548.45 1370.68 2542.7 1361.45 2542.7 1349.15 2542.7 1349.15 2545.57 1266.09 2545.57 1201.49 2545.57 1195.34 2542.7 1179.96 2525.44 1189.19 2470.78 1210.72 2436.25 1247.63 2433.38 1312.23 2430.5 1346.07 2436.25 1373.76 2447.76 1395.29 2459.27 1413.75 2485.16 1419.9 2485.16 1386.06 2485.16 1349.15 2485.16 1312.23 2485.16 1309.16 2485.16 1299.93 2490.91 1290.7 2502.42 1290.7 2511.05 1290.7 2519.68 1299.93 2519.68 1309.16 2519.68 1339.92 2522.56 1395.29 2522.56 1429.13 2522.56 1435.28 2522.56 1466.04 2559.96 1466.04 2597.36 1466.04 2603.11 1435.28 2603.11 1435.28 2603.11 1401.44 2603.11 1355.3 2600.24 1318.39 2600.24 1306.08 2605.99 1293.78 2617.5 1293.78 2626.13 1293.78 2629 1306.08 2631.88 1318.39 2631.88 1355.3 2631.88 1413.75 2631.88 1450.66 2631.88 1484.5 2666.4 1478.35 2666.4 1453.74 2666.4 1432.2 2663.53 1404.52 2663.53 1404.52 2666.4 1392.21 2663.53 1370.68 2686.54 1370.68 2712.43 1370.68 2698.05 1416.82 2698.05 1447.59 2698.05 1462.97 2706.68 1475.27 2715.31 1478.35 2729.69 1478.35 2729.69 1462.97 2729.69 1453.74 2729.69 1398.37 2721.06 1312.23 2723.94 1278.4 2723.94 1247.63 2735.45 1235.33 2744.08 1235.33 2755.59 1235.33 2767.09 1241.48 2769.97 1275.32 2775.72 1303 2767.09 1379.91 2767.09 1435.28 2767.09 1444.51 2767.09 1484.5 2824.63 1484.5 2885.04 1484.5 2887.92 1438.36 2887.92 1426.05 2887.92 1376.83 2890.8 1315.31 2890.8 1290.7 2890.8 1281.47 2899.43 1272.24 2908.06 1272.24 2916.69 1272.24 2925.32 1281.47 2925.32 1290.7 2925.32 1318.39 2925.32 1379.91 2922.44 1429.13 2922.44 1441.43 2919.57 1481.42 2965.6 1481.42 3014.5 1481.42 3008.75 1435.28 3011.63 1426.05 3011.63 1404.52 3011.63 1379.91 3008.75 1355.3 3008.75 1346.07 3017.38 1336.84 3026.01 1336.84 3037.52 1336.84 3046.15 1343 3046.15 1355.3 3046.15 1386.06 3046.15 1422.98 3046.15 1447.59 3046.15 1456.81 3049.03 1469.12 3063.41 1462.97 3118.07 1447.59 3158.35 1419.9 3175.61 1376.83 3201.5 1312.23 3172.73 1266.09 3112.32 1232.25Z" stroke="#FFFFFF" stroke-width="2.86476" stroke-linecap="round" stroke-linejoin="round" stroke-miterlimit="10" fill="none" fill-rule="evenodd"/></g></svg>