<svg width="911" height="516" xmlns="http://www.w3.org/2000/svg" xmlns:xlink="http://www.w3.org/1999/xlink" xml:space="preserve" overflow="hidden"><g transform="translate(-2383 -1640)"><path d="M3290.37 1864.99C3278.86 1754.39 3206.93 1699.09 3088.96 1723.67 2970.99 1748.25 2890.43 1769.76 2783.97 1748.25 2680.39 1726.74 2573.93 1610 2478.98 1653.01 2384.04 1696.02 2338 1877.28 2461.72 1981.74 2585.44 2086.19 2755.2 2163 2973.87 2150.71 3140.75 2138.42 3299 2064.69 3290.37 1864.99Z" fill="#6CAC69" fill-rule="evenodd"/><path d="M2472.93 1966.06C2421.06 1923.11 2398 1861.75 2403.76 1797.33 2412.41 1739.04 2444.11 1689.95 2484.46 1668.48 2536.33 1647 2593.97 1677.68 2657.38 1711.43 2697.72 1732.9 2740.95 1757.44 2781.3 1766.65 2879.29 1785.06 2957.1 1769.72 3060.85 1748.24 3092.55 1742.1 3092.55 1742.1 3092.55 1742.1 3150.19 1729.83 3193.42 1735.97 3225.12 1760.51 3253.94 1781.99 3271.24 1818.8 3274.12 1867.89 3274.12 1870.96 3277 1874.02 3277 1880.16 3277 2079.57 3086.79 2122.52 2971.51 2131.73 2784.18 2144 2617.03 2088.78 2472.93 1966.06Z" fill="#C2DDB7" fill-rule="evenodd"/><path d="M3242 1871.6C3236.24 1828.58 3221.83 1797.85 3198.77 1776.34 3193 1773.26 3190.12 1773.26 3184.36 1770.19 3158.42 1760.97 3158.42 1797.85 3164.18 1828.58 3169.95 1859.31 3184.36 1948.42 3155.54 1954.57 3126.71 1963.79 3129.6 1813.21 3120.95 1788.63 3112.3 1773.26 3109.42 1767.12 3095.01 1770.19 3089.25 1770.19 3086.36 1770.19 3080.6 1770.19 3048.9 1776.34 3048.9 1776.34 3048.9 1776.34 3040.25 1779.41 3028.72 1782.48 3017.19 1785.55 2994.14 1788.63 2991.25 1797.85 2988.37 1807.07 2979.73 1834.72 2985.49 1877.74 2988.37 1917.69 2991.25 1976.08 2991.25 2025.25 2973.96 2028.32 2956.67 2031.39 2953.79 1997.59 2953.79 1939.2 2950.9 1880.82 2962.43 1794.77 2936.49 1797.85 2936.49 1797.85 2936.49 1797.85 2936.49 1797.85 2916.32 1800.92 2896.14 1800.92 2875.97 1803.99 2873.09 1803.99 2861.56 1803.99 2861.56 1803.99 2829.85 1810.14 2841.38 1960.72 2812.56 1954.57 2786.62 1951.5 2806.8 1862.38 2803.91 1819.36 2801.03 1813.21 2798.15 1800.92 2783.74 1803.99 2766.45 1810.14 2760.68 1831.65 2754.92 1859.31 2746.27 1890.04 2734.74 1951.5 2723.21 1979.15 2711.69 2003.74 2688.63 2012.96 2677.1 1991.45 2662.69 1973.01 2688.63 1902.33 2700.16 1868.53 2708.8 1843.94 2720.33 1807.07 2720.33 1785.55 2720.33 1776.34 2708.8 1767.12 2705.92 1764.04 2703.04 1764.04 2697.28 1760.97 2694.39 1760.97 2691.51 1757.9 2688.63 1757.9 2688.63 1757.9 2682.86 1754.82 2677.1 1754.82 2671.34 1757.9 2659.81 1760.97 2654.04 1776.34 2645.4 1788.63 2628.1 1816.28 2602.16 1807.07 2605.05 1782.48 2605.05 1767.12 2613.69 1748.68 2616.58 1733.31 2619.46 1727.17 2613.69 1714.88 2599.28 1708.73 2567.58 1690.29 2535.88 1678 2507.05 1693.36 2472.47 1708.73 2440.76 1751.75 2435 1800.92 2435 1803.99 2435 1807.07 2435 1813.21 2435 1816.28 2435 1828.58 2446.53 1825.5 2463.82 1819.36 2492.64 1785.55 2501.29 1767.12 2509.94 1745.61 2521.46 1727.17 2541.64 1736.39 2564.7 1751.75 2509.94 1803.99 2492.64 1834.72 2478.23 1856.23 2472.47 1886.96 2472.47 1908.47 2472.47 1926.91 2492.64 1933.06 2498.41 1923.84 2512.82 1905.4 2521.46 1874.67 2530.11 1853.16 2544.52 1825.5 2544.52 1807.07 2561.81 1813.21 2579.11 1822.43 2541.64 1877.74 2535.88 1917.69 2532.99 1936.13 2532.99 1951.5 2532.99 1960.72 2530.11 1973.01 2541.64 1991.45 2570.46 1979.15 2596.4 1960.72 2639.63 1788.63 2677.1 1807.07 2694.39 1816.28 2688.63 1840.87 2677.1 1868.53 2665.57 1896.18 2645.4 1969.93 2642.51 1997.59 2639.63 2025.25 2636.75 2031.39 2651.16 2043.69 2682.86 2059.05 2717.45 2068.27 2749.15 2077.49 2757.8 2080.56 2780.86 2083.64 2789.5 2083.64 2809.68 2083.64 2835.62 2080.56 2844.26 2068.27 2861.56 2049.83 2864.44 1960.72 2867.32 1923.84 2867.32 1883.89 2875.97 1868.53 2893.26 1871.6 2927.85 1880.82 2913.44 1939.2 2913.44 1979.15 2910.55 2006.81 2904.79 2062.12 2916.32 2086.71 2919.2 2092.85 2939.38 2099 2945.14 2099 2950.9 2099 2959.55 2099 2965.31 2099 2973.96 2099 2982.61 2099 2994.14 2095.93 2999.9 2095.93 3017.19 2089.78 3020.08 2086.71 3034.49 2071.34 3046.01 2052.91 3043.13 2028.32 3040.25 1979.15 3037.37 1945.35 3031.6 1908.47 3025.84 1877.74 3025.84 1868.53 3043.13 1859.31 3054.66 1856.23 3071.95 1868.53 3077.72 1890.04 3086.36 1923.84 3089.25 1976.08 3095.01 1994.52 3100.78 2019.1 3112.3 2046.76 3129.6 2052.91 3141.12 2055.98 3149.77 2052.91 3152.65 2049.83 3204.53 2019.1 3242 1966.86 3242 1880.82 3242 1877.74 3242 1874.67 3242 1871.6Z" fill="#FCBEC5" fill-rule="evenodd"/><path d="M2599.77 1708.6C2567.97 1690.24 2536.17 1678 2507.27 1693.3 2472.58 1708.6 2440.78 1751.45 2435 1800.41 2435 1803.47 2435 1806.53 2435 1812.65 2435 1815.71 2435 1827.95 2446.56 1824.89 2461.02 1818.77 2481.25 1797.35 2492.81 1778.99 2487.03 1785.11 2487.03 1785.11 2487.03 1785.11 2475.47 1791.23 2475.47 1766.75 2475.47 1760.63 2478.36 1751.45 2484.14 1739.2 2489.92 1730.02 2501.48 1714.72 2518.83 1711.66 2539.06 1711.66 2562.19 1714.72 2585.31 1726.96 2582.42 1754.51 2576.64 1775.93 2588.2 1800.41 2588.2 1824.89 2585.31 1843.25 2588.2 1858.55 2576.64 1876.92 2567.97 1873.86 2565.08 1861.61 2565.08 1852.43 2556.41 1861.61 2556.41 1864.67 2556.41 1876.92 2556.41 1883.04 2556.41 1901.4 2565.08 1904.46 2576.64 1910.58 2585.31 1886.1 2588.2 1879.98 2593.98 1864.67 2602.66 1855.49 2608.44 1840.19 2611.33 1827.95 2611.33 1815.71 2614.22 1803.47 2608.44 1800.41 2602.66 1794.29 2605.55 1782.05 2605.55 1766.75 2614.22 1748.39 2617.11 1733.08 2620 1726.96 2614.22 1714.72 2599.77 1708.6ZM2492.81 1834.07C2478.36 1855.49 2472.58 1886.1 2472.58 1907.52 2472.58 1925.88 2492.81 1932 2498.59 1922.82 2504.38 1916.7 2507.27 1907.52 2513.05 1898.34 2510.16 1892.22 2513.05 1883.04 2510.16 1876.92 2510.16 1864.67 2504.38 1827.95 2521.72 1821.83 2524.61 1824.89 2527.5 1831.01 2527.5 1837.13 2533.28 1824.89 2539.06 1806.53 2539.06 1794.29 2541.95 1785.11 2541.95 1772.87 2541.95 1763.69 2530.39 1788.17 2501.48 1815.71 2492.81 1834.07Z" fill="#FA9BAA" fill-rule="evenodd"/><path d="M2577.12 1944.64C2565.59 1953.91 2551.18 1941.55 2548.29 1929.18 2542.53 1913.73 2551.18 1904.45 2551.18 1889 2539.65 1904.45 2539.65 1904.45 2539.65 1904.45 2539.65 1910.64 2536.76 1913.73 2536.76 1916.82 2533.88 1935.36 2533.88 1950.82 2533.88 1960.09 2531 1972.45 2542.53 1991 2571.35 1978.64 2574.24 1975.55 2577.12 1972.45 2580 1966.27 2580 1957 2580 1950.82 2577.12 1944.64Z" fill="#FA9BAA" fill-rule="evenodd"/><path d="M2674.55 1784.87C2694.87 1791.04 2691.97 1803.39 2686.16 1821.91 2689.06 1831.17 2686.16 1846.61 2680.35 1862.04 2683.26 1868.22 2686.16 1874.39 2689.06 1880.57 2689.06 1886.74 2691.97 1889.83 2691.97 1896 2694.87 1886.74 2697.77 1877.48 2700.68 1868.22 2709.39 1843.52 2721 1806.48 2721 1784.87 2721 1775.61 2709.39 1766.35 2706.48 1763.26 2703.58 1763.26 2697.77 1760.17 2694.87 1760.17 2691.97 1757.09 2689.06 1757.09 2689.06 1757.09 2683.26 1754 2677.45 1754 2671.65 1757.09 2660.03 1760.17 2654.23 1775.61 2645.52 1787.96 2642.61 1794.13 2636.81 1800.3 2633.9 1803.39 2631 1812.65 2631 1812.65 2631 1812.65 2645.52 1800.3 2654.23 1778.7 2674.55 1784.87Z" fill="#FA9BAA" fill-rule="evenodd"/><path d="M2695.19 2051.83C2701 2039.48 2695.19 2030.22 2689.38 2017.87 2686.48 2014.78 2680.67 2002.43 2677.76 1993.17 2677.76 1993.17 2677.76 1993.17 2677.76 1990.09 2674.86 1990.09 2674.86 1990.09 2674.86 1987 2666.14 1993.17 2663.24 2002.43 2657.43 2011.7 2651.62 2024.04 2645.81 2024.04 2640 2024.04 2640 2030.22 2642.9 2036.39 2651.62 2042.57 2666.14 2048.74 2680.67 2054.91 2692.29 2058 2695.19 2058 2695.19 2054.91 2695.19 2051.83Z" fill="#FA9BAA" fill-rule="evenodd"/><path d="M2801.14 1898.67C2801.14 1870.92 2804 1840.08 2804 1818.5 2801.14 1812.33 2798.29 1800 2784 1803.08 2766.86 1809.25 2761.14 1830.83 2755.43 1858.58 2746.86 1889.42 2738.29 1948 2726.86 1975.75 2724 1985 2724 1985 2724 1985 2749.71 1963.42 2746.86 1926.42 2764 1898.67 2778.29 1877.08 2792.57 1883.25 2801.14 1898.67Z" fill="#FA9BAA" fill-rule="evenodd"/><path d="M2936.59 1797C2936.59 1797 2936.59 1797 2936.59 1797 2916.41 1800.07 2896.24 1800.07 2876.06 1803.15 2873.18 1803.15 2861.65 1803.15 2861.65 1803.15 2829.94 1809.3 2841.47 1959.96 2812.65 1953.81 2809.76 1953.81 2809.76 1953.81 2809.76 1953.81 2809.76 1956.88 2809.76 1956.88 2809.76 1956.88 2804 1966.1 2804 1990.7 2804 2003 2815.53 1984.55 2829.94 1969.18 2841.47 1950.73 2855.88 1926.13 2847.24 1886.16 2864.53 1864.64 2876.06 1846.19 2927.94 1843.12 2904.88 1873.87 2919.29 1870.79 2925.06 1867.72 2927.94 1855.42 2930.82 1840.04 2945.24 1830.82 2951 1818.52 2948.12 1803.15 2945.24 1797 2936.59 1797Z" fill="#FA9BAA" fill-rule="evenodd"/><path d="M3123.14 1858.42C3123.14 1855.34 3126 1852.26 3126 1849.18 3126 1821.45 3123.14 1796.81 3120.28 1787.57 3111.69 1772.16 3108.83 1766 3094.52 1769.08 3088.79 1769.08 3085.93 1769.08 3080.21 1769.08 3048.72 1775.24 3048.72 1775.24 3048.72 1775.24 3040.14 1778.32 3028.69 1781.4 3017.24 1784.48 2994.34 1787.57 2991.48 1796.81 2988.62 1806.05 2980.03 1833.78 2985.76 1876.91 2988.62 1916.96 2991.48 1975.49 2991.48 2024.79 2974.31 2027.87 2971.45 2027.87 2968.59 2027.87 2965.72 2024.79 2965.72 2030.95 2965.72 2030.95 2965.72 2030.95 2962.86 2043.27 2965.72 2058.68 2960 2071 2965.72 2058.68 2971.45 2052.52 2980.03 2043.27 2991.48 2034.03 2997.21 2021.71 3002.93 2006.3 3020.1 1966.25 3008.66 1926.2 3008.66 1883.07 3008.66 1843.02 3034.41 1812.21 3071.62 1806.05 3103.1 1802.97 3114.55 1830.7 3123.14 1858.42Z" fill="#FA9BAA" fill-rule="evenodd"/><path d="M3198.58 1776.31C3192.82 1773.25 3189.94 1773.25 3184.18 1770.19 3158.27 1761 3158.27 1797.75 3164.03 1828.38 3169.79 1859 3184.18 1947.81 3155.39 1953.94 3149.64 1957 3146.76 1953.94 3143.88 1947.81 3143.88 1957 3143.88 1957 3143.88 1957 3146.76 1972.31 3141 1990.69 3141 2006 3146.76 1996.81 3146.76 1987.63 3155.39 1978.44 3166.91 1966.19 3181.3 1963.13 3187.06 1947.81 3198.58 1929.44 3201.45 1908 3198.58 1889.62 3195.7 1871.25 3198.58 1831.44 3227.36 1840.62 3230.24 1840.62 3236 1843.69 3236 1846.75 3230.24 1816.12 3218.73 1791.62 3198.58 1776.31Z" fill="#FA9BAA" fill-rule="evenodd"/><path d="M2533.88 1711C2554 1720.23 2548.25 1747.92 2542.5 1763.31 2536.75 1781.77 2531 1812.54 2533.88 1831 2539.62 1827.92 2548.25 1809.46 2551.12 1800.23 2559.75 1787.92 2554 1772.54 2562.62 1757.15 2565.5 1751 2571.25 1747.92 2577 1744.85 2582.75 1744.85 2585.62 1751 2588.5 1744.85 2600 1735.62 2568.38 1711 2559.75 1711" fill="#FA9BAA" fill-rule="evenodd"/><path d="M3029 1812.72C3057.64 1812.72 3069.09 1837.36 3057.64 1862 3071.95 1862 3077.68 1862 3083.41 1846.6 3089.14 1825.04 3092 1785 3063.36 1791.16" fill="#FA9BAA" fill-rule="evenodd"/><path d="M3083.29 1837C3091.86 1827.77 3094.71 1809.31 3109 1824.69 3106.14 1818.54 3106.14 1809.31 3100.43 1803.15 3094.71 1797 3077.57 1800.08 3069 1800.08" fill="#FA9BAA" fill-rule="evenodd"/><path d="M3094.77 1966C3089 1981.33 3109.2 2005.87 3120.74 2015.07 3140.94 2027.33 3172.69 2030.4 3190 2015.07 3184.23 2030.4 3155.37 2048.8 3140.94 2051.87 3123.63 2058 3117.86 2039.6 3109.2 2027.33 3106.31 2018.13 3094.77 2005.87 3097.66 1996.67" fill="#FA9BAA" fill-rule="evenodd"/><path d="M2916.43 1991C2916.43 2018.49 2919.29 2049.03 2933.57 2070.41 2947.86 2088.73 2965 2088.73 2985 2094.84 2973.57 2104 2942.14 2100.95 2930.71 2097.89 2905 2088.73 2905 2049.03 2910.71 2024.59" fill="#FA9BAA" fill-rule="evenodd"/><path d="M3141.5 1948.5C3150.5 1972.94 3141.5 1991.28 3141.5 2003.5" stroke="#FFFFFF" stroke-width="2.86476" stroke-linecap="round" stroke-linejoin="round" stroke-miterlimit="10" fill="none" fill-rule="evenodd"/><path d="M2963.5 2016.5C2971.5 2040.94 2963.5 2059.28 2963.5 2071.5" stroke="#FFFFFF" stroke-width="2.86476" stroke-linecap="round" stroke-linejoin="round" stroke-miterlimit="10" fill="none" fill-rule="evenodd"/><path d="M2802.5 1944.5C2813.5 1966.32 2802.5 1985.03 2802.5 1997.5" stroke="#FFFFFF" stroke-width="2.86476" stroke-linecap="round" stroke-linejoin="round" stroke-miterlimit="10" fill="none" fill-rule="evenodd"/><path d="M2689.5 1825.5C2683.5 1843.79 2689.5 1874.26 2692.5 1889.5" stroke="#FFFFFF" stroke-width="2.86476" stroke-linecap="round" stroke-linejoin="round" stroke-miterlimit="10" fill="none" fill-rule="evenodd"/><path d="M2677.5 1991.5C2683.35 2018.91 2715.5 2028.05 2692.12 2058.5" stroke="#FFFFFF" stroke-width="2.86476" stroke-linecap="round" stroke-linejoin="round" stroke-miterlimit="10" fill="none" fill-rule="evenodd"/><path d="M2548.5 1748.5C2548.5 1773.05 2525.5 1837.5 2537 1837.5" stroke="#FFFFFF" stroke-width="2.86476" stroke-linecap="round" stroke-linejoin="round" stroke-miterlimit="10" fill="none" fill-rule="evenodd"/><path d="M2565.82 1825.25C2560.09 1856.08 2551.5 1905.42 2565.82 1908.5 2580.14 1908.5 2594.45 1871.5 2605.91 1846.83 2614.5 1825.25 2611.64 1812.92 2608.77 1797.5" stroke="#FFFFFF" stroke-width="2.86476" stroke-linecap="round" stroke-linejoin="round" stroke-miterlimit="10" fill="none" fill-rule="evenodd"/><path d="M3061.5 1862.36C3072.5 1862.36 3083.5 1865.5 3083.5 1843.5" stroke="#FFFFFF" stroke-width="2.86476" stroke-linecap="round" stroke-linejoin="round" stroke-miterlimit="10" fill="none" fill-rule="evenodd"/><path d="M2893.5 1871.5C2911 1877.5 2928.5 1871.5 2928.5 1856.5" stroke="#FFFFFF" stroke-width="2.86476" stroke-linecap="round" stroke-linejoin="round" stroke-miterlimit="10" fill="none" fill-rule="evenodd"/><path d="M3290.37 1864.99C3278.86 1754.39 3206.93 1699.09 3088.96 1723.67 2970.99 1748.25 2890.43 1769.76 2783.97 1748.25 2680.39 1726.74 2573.93 1610 2478.98 1653.01 2384.04 1696.02 2338 1877.28 2461.72 1981.74 2585.44 2086.19 2755.2 2163 2973.87 2150.71 3140.75 2138.42 3299 2064.69 3290.37 1864.99Z" stroke="#333333" stroke-width="5.72917" stroke-linecap="round" stroke-linejoin="round" stroke-miterlimit="10" fill="none" fill-rule="evenodd"/><path d="M2472.93 1966.06C2421.06 1923.11 2398 1861.75 2403.76 1797.33 2412.41 1739.04 2444.11 1689.95 2484.46 1668.48 2536.33 1647 2593.97 1677.68 2657.38 1711.43 2697.72 1732.9 2740.95 1757.44 2781.3 1766.65 2879.29 1785.06 2957.1 1769.72 3060.85 1748.24 3092.55 1742.1 3092.55 1742.1 3092.55 1742.1 3150.19 1729.83 3193.42 1735.97 3225.12 1760.51 3253.94 1781.99 3271.24 1818.8 3274.12 1867.89 3274.12 1870.96 3277 1874.02 3277 1880.16 3277 2079.57 3086.79 2122.52 2971.51 2131.73 2784.18 2144 2617.03 2088.78 2472.93 1966.06Z" stroke="#FFFFFF" stroke-width="5.72917" stroke-linecap="round" stroke-linejoin="round" stroke-miterlimit="10" fill="none" fill-rule="evenodd"/><path d="M2507.77 1686.35C2467.44 1704.78 2435.76 1750.84 2430 1799.98 2430 1799.98 2430 1812.26 2430 1812.26 2430 1812.26 2430 1821.48 2435.76 1827.62 2438.64 1827.62 2441.52 1830.69 2450.16 1830.69 2470.32 1821.48 2499.13 1787.7 2507.77 1769.27 2519.29 1741.63 2527.93 1735.49 2539.45 1741.63 2539.45 1741.63 2542.33 1741.63 2542.33 1744.7 2542.33 1744.7 2542.33 1744.7 2542.33 1744.7 2542.33 1756.99 2522.17 1781.55 2507.77 1799.98 2487.61 1827.62 2487.61 1827.62 2487.61 1827.62 2476.08 1849.11 2467.44 1882.89 2467.44 1904.39 2467.44 1904.39 2467.44 1907.46 2467.44 1907.46 2467.44 1922.82 2476.08 1928.96 2484.73 1932.03 2493.37 1935.1 2502.01 1932.03 2504.89 1925.89 2513.53 1913.6 2522.17 1895.18 2527.93 1876.75 2536.57 1855.26 2536.57 1855.26 2536.57 1855.26 2545.21 1833.76 2545.21 1833.76 2545.21 1833.76 2550.97 1815.33 2553.85 1815.33 2559.61 1818.4 2565.37 1821.48 2556.73 1842.97 2548.09 1861.4 2542.33 1879.82 2533.69 1898.25 2530.81 1916.67 2527.93 1959.67 2527.93 1959.67 2527.93 1959.67 2525.05 1968.88 2530.81 1978.09 2536.57 1984.23 2545.21 1987.31 2553.85 1990.38 2571.13 1981.16 2585.54 1975.02 2599.94 1941.24 2614.34 1904.39 2631.62 1867.54 2651.78 1818.4 2669.06 1812.26 2669.06 1809.19 2671.94 1809.19 2674.82 1812.26 2686.35 1818.4 2686.35 1833.76 2671.94 1864.47 2660.42 1895.18 2643.14 1968.88 2637.38 1996.52 2637.38 1999.59 2637.38 1999.59 2637.38 1999.59 2634.5 2024.16 2631.62 2033.37 2648.9 2045.65 2680.58 2061.01 2715.15 2073.29 2749.71 2082.5 2755.47 2085.57 2781.39 2088.65 2792.92 2088.65 2821.72 2088.65 2841.88 2082.5 2850.52 2073.29 2864.92 2054.87 2867.8 1990.38 2870.68 1925.89 2873.56 1922.82 2873.56 1922.82 2873.56 1922.82 2873.56 1898.25 2876.44 1882.89 2882.2 1879.82 2885.08 1876.75 2887.96 1876.75 2893.73 1876.75 2913.89 1882.89 2913.89 1913.6 2908.13 1953.52 2908.13 1978.09 2908.13 1978.09 2908.13 1978.09 2905.25 1993.45 2905.25 1993.45 2905.25 1993.45 2902.37 2027.23 2902.37 2064.08 2911.01 2088.65 2916.77 2097.86 2939.81 2104 2945.57 2104 2965.73 2104 2965.73 2104 2965.73 2104 2994.54 2100.93 2994.54 2100.93 2994.54 2100.93 3000.3 2100.93 3020.46 2094.79 3026.22 2088.65 3034.86 2079.43 3052.14 2054.87 3049.26 2027.23 3046.38 1978.09 3043.5 1944.31 3037.74 1904.39 3031.98 1876.75 3034.86 1870.61 3046.38 1864.47 3049.26 1864.47 3055.02 1864.47 3055.02 1867.54 3063.66 1870.61 3069.42 1879.82 3072.3 1889.04 3078.06 1910.53 3080.94 1935.1 3083.82 1956.6 3089.58 1996.52 3089.58 1996.52 3089.58 1996.52 3098.23 2030.3 3109.75 2051.79 3127.03 2057.94 3141.43 2064.08 3150.07 2057.94 3155.83 2054.87 3216.32 2014.94 3248 1956.6 3248 1879.82 3248 1870.61 3248 1870.61 3248 1870.61 3248 1870.61 3248 1870.61 3248 1870.61 3242.24 1824.55 3227.84 1790.77 3201.92 1772.34 3201.92 1772.34 3187.51 1763.13 3187.51 1763.13 3175.99 1760.06 3170.23 1763.13 3164.47 1766.2 3155.83 1775.41 3152.95 1793.84 3158.71 1827.62 3178.87 1932.03 3158.71 1947.38 3152.95 1947.38 3152.95 1947.38 3152.95 1947.38 3152.95 1947.38 3141.43 1938.17 3135.67 1882.89 3132.79 1846.04 3129.91 1815.33 3129.91 1793.84 3127.03 1787.7 3118.39 1769.27 3112.63 1760.06 3095.35 1763.13 3092.46 1763.13 3078.06 1763.13 3078.06 1763.13 3017.58 1778.48 3017.58 1778.48 3017.58 1778.48 2991.66 1781.55 2985.89 1793.84 2983.01 1803.05 2974.37 1827.62 2977.25 1858.33 2980.13 1892.11 2983.01 1916.67 2983.01 1916.67 2983.01 1916.67 2988.77 2002.66 2980.13 2021.09 2974.37 2021.09 2971.49 2021.09 2971.49 2021.09 2971.49 2018.01 2962.85 2011.87 2959.97 1975.02 2959.97 1938.17 2959.97 1892.11 2959.97 1892.11 2959.97 1892.11 2959.97 1839.9 2959.97 1806.12 2948.45 1793.84 2945.57 1790.77 2939.81 1790.77 2934.05 1790.77 2913.89 1793.84 2893.73 1793.84 2876.44 1796.91 2859.16 1796.91 2859.16 1796.91 2859.16 1796.91 2841.88 1799.98 2836.12 1836.83 2830.36 1879.82 2827.48 1907.46 2821.72 1950.45 2813.08 1947.38 2804.44 1947.38 2807.32 1904.39 2807.32 1876.75 2810.2 1855.26 2810.2 1833.76 2810.2 1815.33 2807.32 1815.33 2807.32 1803.05 2798.68 1799.98 2795.8 1796.91 2790.04 1793.84 2781.39 1796.91 2764.11 1806.12 2758.35 1827.62 2749.71 1852.18 2749.71 1855.26 2749.71 1855.26 2749.71 1855.26 2743.95 1889.04 2743.95 1889.04 2743.95 1889.04 2735.31 1916.67 2726.67 1956.6 2720.91 1975.02 2715.15 1987.31 2706.51 1996.52 2697.87 1996.52 2689.23 1996.52 2686.35 1993.45 2680.58 1987.31 2671.94 1971.95 2689.23 1919.74 2700.75 1885.96 2706.51 1870.61 2706.51 1870.61 2706.51 1870.61 2709.39 1867.54 2709.39 1867.54 2709.39 1867.54 2715.15 1839.9 2726.67 1806.12 2726.67 1781.55 2723.79 1772.34 2712.27 1760.06 2709.39 1760.06 2709.39 1760.06 2697.87 1753.91 2697.87 1753.91 2689.23 1750.84 2689.23 1750.84 2689.23 1750.84 2683.46 1747.77 2677.7 1747.77 2669.06 1750.84 2660.42 1753.91 2654.66 1766.2 2648.9 1775.41 2643.14 1784.62 2643.14 1784.62 2643.14 1784.62 2634.5 1799.98 2622.98 1799.98 2617.22 1799.98 2611.46 1796.91 2608.58 1790.77 2611.46 1784.62 2611.46 1775.41 2614.34 1766.2 2617.22 1753.91 2622.98 1732.42 2622.98 1732.42 2622.98 1732.42 2625.86 1726.28 2620.1 1710.92 2602.82 1701.71 2574.01 1686.35 2536.57 1671 2507.77 1686.35ZM2441.52 1818.4C2441.52 1815.33 2441.52 1812.26 2441.52 1812.26 2441.52 1799.98 2441.52 1799.98 2441.52 1799.98 2447.28 1753.91 2476.08 1713.99 2510.65 1695.57 2539.45 1683.28 2571.13 1698.64 2599.94 1710.92 2611.46 1717.06 2614.34 1726.28 2611.46 1732.42 2605.7 1750.84 2605.7 1750.84 2605.7 1750.84 2602.82 1760.06 2599.94 1772.34 2599.94 1781.55 2597.06 1796.91 2602.82 1806.12 2614.34 1809.19 2625.86 1815.33 2640.26 1809.19 2651.78 1793.84 2657.54 1781.55 2657.54 1781.55 2657.54 1781.55 2663.3 1772.34 2669.06 1763.13 2674.82 1760.06 2677.7 1760.06 2680.58 1760.06 2686.35 1760.06 2686.35 1763.13 2692.11 1763.13 2692.11 1763.13 2703.63 1769.27 2703.63 1769.27 2703.63 1769.27 2706.51 1772.34 2715.15 1778.48 2715.15 1784.62 2715.15 1806.12 2706.51 1836.83 2697.87 1861.4 2694.99 1864.47 2694.99 1864.47 2694.99 1864.47 2694.99 1864.47 2689.23 1882.89 2689.23 1882.89 2671.94 1932.03 2660.42 1975.02 2671.94 1996.52 2677.7 2005.73 2686.35 2008.8 2697.87 2008.8 2709.39 2008.8 2723.79 1996.52 2729.55 1981.16 2738.19 1959.67 2746.83 1922.82 2755.47 1889.04 2761.23 1858.33 2761.23 1858.33 2761.23 1858.33 2761.23 1855.26 2761.23 1855.26 2761.23 1855.26 2766.99 1833.76 2772.75 1815.33 2784.27 1809.19 2790.04 1809.19 2790.04 1809.19 2792.92 1809.19 2795.8 1812.26 2798.68 1815.33 2798.68 1818.4 2798.68 1833.76 2798.68 1855.26 2795.8 1876.75 2792.92 1919.74 2790.04 1956.6 2810.2 1959.67 2833.24 1962.74 2839 1925.89 2841.88 1879.82 2847.64 1852.18 2850.52 1812.26 2862.04 1809.19 2862.04 1809.19 2876.44 1809.19 2876.44 1809.19 2893.73 1806.12 2913.89 1806.12 2936.93 1803.05 2939.81 1803.05 2939.81 1803.05 2939.81 1803.05 2948.45 1812.26 2948.45 1855.26 2948.45 1892.11 2948.45 1938.17 2948.45 1938.17 2948.45 1938.17 2948.45 1987.31 2951.33 2018.01 2962.85 2030.3 2965.73 2033.37 2971.49 2033.37 2974.37 2033.37 2997.42 2030.3 3000.3 1987.31 2994.54 1916.67 2991.66 1892.11 2991.66 1892.11 2991.66 1892.11 2988.77 1861.4 2985.89 1827.62 2994.54 1809.19 2997.42 1799.98 2997.42 1793.84 3020.46 1790.77 3020.46 1787.7 3080.94 1775.41 3080.94 1775.41 3095.35 1772.34 3095.35 1772.34 3095.35 1772.34 3103.99 1772.34 3106.87 1775.41 3115.51 1790.77 3118.39 1796.91 3121.27 1821.48 3121.27 1846.04 3127.03 1904.39 3129.91 1947.38 3144.31 1956.6 3147.19 1959.67 3152.95 1962.74 3155.83 1959.67 3181.75 1953.52 3184.63 1910.53 3170.23 1824.55 3167.35 1799.98 3167.35 1781.55 3173.11 1775.41 3173.11 1775.41 3175.99 1772.34 3184.63 1775.41 3184.63 1775.41 3196.16 1781.55 3196.16 1781.55 3216.32 1799.98 3230.72 1830.69 3236.48 1870.61 3236.48 1870.61 3236.48 1879.82 3236.48 1879.82 3236.48 1953.52 3207.68 2008.8 3150.07 2042.58 3144.31 2045.65 3138.55 2048.72 3129.91 2045.65 3118.39 2042.58 3109.75 2024.16 3101.11 1993.45 3095.35 1956.6 3095.35 1956.6 3095.35 1956.6 3092.46 1935.1 3086.7 1907.46 3083.82 1885.96 3078.06 1873.68 3072.3 1861.4 3060.78 1855.26 3055.02 1852.18 3049.26 1852.18 3043.5 1852.18 3020.46 1861.4 3020.46 1879.82 3026.22 1907.46 3031.98 1947.38 3034.86 1981.16 3037.74 2027.23 3040.62 2051.79 3026.22 2070.22 3017.58 2079.43 3014.7 2082.5 2997.42 2088.65 2994.54 2088.65 2965.73 2091.72 2965.73 2091.72 2965.73 2091.72 2965.73 2091.72 2945.57 2091.72 2945.57 2091.72 2939.81 2091.72 2922.53 2085.57 2922.53 2082.5 2913.89 2064.08 2916.77 2024.16 2916.77 1996.52 2919.65 1978.09 2919.65 1978.09 2919.65 1978.09 2919.65 1953.52 2919.65 1953.52 2919.65 1953.52 2925.41 1919.74 2928.29 1873.68 2893.73 1864.47 2887.96 1864.47 2879.32 1864.47 2876.44 1870.61 2867.8 1876.75 2862.04 1892.11 2862.04 1919.74 2859.16 1925.89 2859.16 1925.89 2859.16 1925.89 2859.16 1959.67 2853.4 2048.72 2841.88 2064.08 2833.24 2070.22 2815.96 2076.36 2790.04 2076.36 2781.39 2076.36 2758.35 2073.29 2752.59 2070.22 2718.03 2064.08 2686.35 2051.79 2654.66 2036.44 2646.02 2030.3 2646.02 2027.23 2648.9 2002.66 2648.9 1999.59 2648.9 1999.59 2648.9 1999.59 2651.78 1971.95 2671.94 1898.25 2683.46 1870.61 2694.99 1846.04 2703.63 1815.33 2680.58 1799.98 2674.82 1796.91 2669.06 1796.91 2663.3 1799.98 2643.14 1806.12 2622.98 1855.26 2602.82 1901.32 2591.3 1932.03 2576.89 1965.81 2565.37 1971.95 2556.73 1978.09 2548.09 1978.09 2545.21 1975.02 2539.45 1971.95 2539.45 1962.74 2539.45 1959.67 2539.45 1959.67 2542.33 1916.67 2542.33 1916.67 2545.21 1901.32 2553.85 1882.89 2559.61 1864.47 2571.13 1839.9 2579.77 1815.33 2565.37 1806.12 2545.21 1799.98 2539.45 1815.33 2533.69 1830.69 2525.05 1849.11 2525.05 1849.11 2525.05 1849.11 2516.41 1873.68 2516.41 1873.68 2516.41 1873.68 2510.65 1889.04 2504.89 1907.46 2496.25 1919.74 2493.37 1919.74 2490.49 1919.74 2487.61 1919.74 2487.61 1919.74 2478.96 1916.67 2478.96 1907.46 2478.96 1885.96 2484.73 1855.26 2496.25 1836.83 2516.41 1809.19 2516.41 1809.19 2516.41 1809.19 2536.57 1784.62 2553.85 1760.06 2553.85 1741.63 2553.85 1738.56 2550.97 1732.42 2545.21 1729.35 2545.21 1729.35 2545.21 1729.35 2545.21 1729.35 2516.41 1717.06 2502.01 1750.84 2496.25 1763.13 2490.49 1781.55 2461.68 1812.26 2447.28 1818.4 2444.4 1818.4 2444.4 1818.4 2441.52 1818.4Z" fill="#FDCFC2" fill-rule="evenodd"/><path d="M2508.27 1686.85C2467.94 1705.28 2436.26 1751.34 2430.5 1800.48 2430.5 1800.48 2430.5 1812.76 2430.5 1812.76 2430.5 1812.76 2430.5 1821.98 2436.26 1828.12 2439.14 1828.12 2442.02 1831.19 2450.66 1831.19 2470.82 1821.98 2499.63 1788.2 2508.27 1769.77 2519.79 1742.13 2528.43 1735.99 2539.95 1742.13 2539.95 1742.13 2542.83 1742.13 2542.83 1745.2 2542.83 1745.2 2542.83 1745.2 2542.83 1745.2 2542.83 1757.49 2522.67 1782.05 2508.27 1800.48 2488.11 1828.12 2488.11 1828.12 2488.11 1828.12 2476.58 1849.61 2467.94 1883.39 2467.94 1904.89 2467.94 1904.89 2467.94 1907.96 2467.94 1907.96 2467.94 1923.32 2476.58 1929.46 2485.23 1932.53 2493.87 1935.6 2502.51 1932.53 2505.39 1926.39 2514.03 1914.1 2522.67 1895.68 2528.43 1877.25 2537.07 1855.76 2537.07 1855.76 2537.07 1855.76 2545.71 1834.26 2545.71 1834.26 2545.71 1834.26 2551.47 1815.83 2554.35 1815.83 2560.11 1818.9 2565.87 1821.98 2557.23 1843.47 2548.59 1861.9 2542.83 1880.32 2534.19 1898.75 2531.31 1917.17 2528.43 1960.17 2528.43 1960.17 2528.43 1960.17 2525.55 1969.38 2531.31 1978.59 2537.07 1984.73 2545.71 1987.8 2554.35 1990.88 2571.63 1981.66 2586.04 1975.52 2600.44 1941.74 2614.84 1904.89 2632.12 1868.04 2652.28 1818.9 2669.56 1812.76 2669.56 1809.69 2672.44 1809.69 2675.32 1812.76 2686.85 1818.9 2686.85 1834.26 2672.44 1864.97 2660.92 1895.68 2643.64 1969.38 2637.88 1997.02 2637.88 2000.09 2637.88 2000.09 2637.88 2000.09 2635 2024.66 2632.12 2033.87 2649.4 2046.15 2681.08 2061.51 2715.65 2073.79 2750.21 2083 2755.97 2086.07 2781.89 2089.15 2793.42 2089.15 2822.22 2089.15 2842.38 2083 2851.02 2073.79 2865.42 2055.37 2868.3 1990.88 2871.18 1926.39 2874.06 1923.32 2874.06 1923.32 2874.06 1923.32 2874.06 1898.75 2876.94 1883.39 2882.7 1880.32 2885.58 1877.25 2888.46 1877.25 2894.23 1877.25 2914.39 1883.39 2914.39 1914.1 2908.63 1954.02 2908.63 1978.59 2908.63 1978.59 2908.63 1978.59 2905.75 1993.95 2905.75 1993.95 2905.75 1993.95 2902.87 2027.73 2902.87 2064.58 2911.51 2089.15 2917.27 2098.36 2940.31 2104.5 2946.07 2104.5 2966.23 2104.5 2966.23 2104.5 2966.23 2104.5 2995.04 2101.43 2995.04 2101.43 2995.04 2101.43 3000.8 2101.43 3020.96 2095.29 3026.72 2089.15 3035.36 2079.93 3052.64 2055.37 3049.76 2027.73 3046.88 1978.59 3044 1944.81 3038.24 1904.89 3032.48 1877.25 3035.36 1871.11 3046.88 1864.97 3049.76 1864.97 3055.52 1864.97 3055.52 1868.04 3064.16 1871.11 3069.92 1880.32 3072.8 1889.54 3078.56 1911.03 3081.44 1935.6 3084.32 1957.1 3090.08 1997.02 3090.08 1997.02 3090.08 1997.02 3098.73 2030.8 3110.25 2052.29 3127.53 2058.44 3141.93 2064.58 3150.57 2058.44 3156.33 2055.37 3216.82 2015.44 3248.5 1957.1 3248.5 1880.32 3248.5 1871.11 3248.5 1871.11 3248.5 1871.11 3248.5 1871.11 3248.5 1871.11 3248.5 1871.11 3242.74 1825.05 3228.34 1791.27 3202.42 1772.84 3202.42 1772.84 3188.01 1763.63 3188.01 1763.63 3176.49 1760.56 3170.73 1763.63 3164.97 1766.7 3156.33 1775.91 3153.45 1794.34 3159.21 1828.12 3179.37 1932.53 3159.21 1947.88 3153.45 1947.88 3153.45 1947.88 3153.45 1947.88 3153.45 1947.88 3141.93 1938.67 3136.17 1883.39 3133.29 1846.54 3130.41 1815.83 3130.41 1794.34 3127.53 1788.2 3118.89 1769.77 3113.13 1760.56 3095.85 1763.63 3092.96 1763.63 3078.56 1763.63 3078.56 1763.63 3018.08 1778.98 3018.08 1778.98 3018.08 1778.98 2992.16 1782.05 2986.39 1794.34 2983.51 1803.55 2974.87 1828.12 2977.75 1858.83 2980.63 1892.61 2983.51 1917.17 2983.51 1917.17 2983.51 1917.17 2989.27 2003.16 2980.63 2021.59 2974.87 2021.59 2971.99 2021.59 2971.99 2021.59 2971.99 2018.51 2963.35 2012.37 2960.47 1975.52 2960.47 1938.67 2960.47 1892.61 2960.47 1892.61 2960.47 1892.61 2960.47 1840.4 2960.47 1806.62 2948.95 1794.34 2946.07 1791.27 2940.31 1791.27 2934.55 1791.27 2914.39 1794.34 2894.23 1794.34 2876.94 1797.41 2859.66 1797.41 2859.66 1797.41 2859.66 1797.41 2842.38 1800.48 2836.62 1837.33 2830.86 1880.32 2827.98 1907.96 2822.22 1950.95 2813.58 1947.88 2804.94 1947.88 2807.82 1904.89 2807.82 1877.25 2810.7 1855.76 2810.7 1834.26 2810.7 1815.83 2807.82 1815.83 2807.82 1803.55 2799.18 1800.48 2796.3 1797.41 2790.54 1794.34 2781.89 1797.41 2764.61 1806.62 2758.85 1828.12 2750.21 1852.68 2750.21 1855.76 2750.21 1855.76 2750.21 1855.76 2744.45 1889.54 2744.45 1889.54 2744.45 1889.54 2735.81 1917.17 2727.17 1957.1 2721.41 1975.52 2715.65 1987.8 2707.01 1997.02 2698.37 1997.02 2689.73 1997.02 2686.85 1993.95 2681.08 1987.8 2672.44 1972.45 2689.73 1920.24 2701.25 1886.46 2707.01 1871.11 2707.01 1871.11 2707.01 1871.11 2709.89 1868.04 2709.89 1868.04 2709.89 1868.04 2715.65 1840.4 2727.17 1806.62 2727.17 1782.05 2724.29 1772.84 2712.77 1760.56 2709.89 1760.56 2709.89 1760.56 2698.37 1754.41 2698.37 1754.41 2689.73 1751.34 2689.73 1751.34 2689.73 1751.34 2683.96 1748.27 2678.2 1748.27 2669.56 1751.34 2660.92 1754.41 2655.16 1766.7 2649.4 1775.91 2643.64 1785.12 2643.64 1785.12 2643.64 1785.12 2635 1800.48 2623.48 1800.48 2617.72 1800.48 2611.96 1797.41 2609.08 1791.27 2611.96 1785.12 2611.96 1775.91 2614.84 1766.7 2617.72 1754.41 2623.48 1732.92 2623.48 1732.92 2623.48 1732.92 2626.36 1726.78 2620.6 1711.42 2603.32 1702.21 2574.51 1686.85 2537.07 1671.5 2508.27 1686.85Z" stroke="#333333" stroke-width="2.86476" stroke-linecap="round" stroke-linejoin="round" stroke-miterlimit="10" fill="none" fill-rule="evenodd"/><path d="M2441.5 1818.81C2441.5 1815.73 2441.5 1812.66 2441.5 1812.66 2441.5 1800.36 2441.5 1800.36 2441.5 1800.36 2447.26 1754.23 2476.07 1714.25 2510.63 1695.8 2539.44 1683.5 2571.12 1698.88 2599.92 1711.18 2611.45 1717.33 2614.33 1726.55 2611.45 1732.7 2605.69 1751.15 2605.69 1751.15 2605.69 1751.15 2602.8 1760.38 2599.92 1772.68 2599.92 1781.91 2597.04 1797.28 2602.8 1806.51 2614.33 1809.58 2625.85 1815.73 2640.25 1809.58 2651.77 1794.21 2657.53 1781.91 2657.53 1781.91 2657.53 1781.91 2663.29 1772.68 2669.05 1763.45 2674.82 1760.38 2677.7 1760.38 2680.58 1760.38 2686.34 1760.38 2686.34 1763.45 2692.1 1763.45 2692.1 1763.45 2703.62 1769.61 2703.62 1769.61 2703.62 1769.61 2706.5 1772.68 2715.14 1778.83 2715.14 1784.98 2715.14 1806.51 2706.5 1837.26 2697.86 1861.86 2694.98 1864.94 2694.98 1864.94 2694.98 1864.94 2694.98 1864.94 2689.22 1883.39 2689.22 1883.39 2671.94 1932.59 2660.41 1975.64 2671.94 1997.17 2677.7 2006.39 2686.34 2009.47 2697.86 2009.47 2709.38 2009.47 2723.78 1997.17 2729.54 1981.79 2738.19 1960.27 2746.83 1923.36 2755.47 1889.54 2761.23 1858.79 2761.23 1858.79 2761.23 1858.79 2761.23 1855.71 2761.23 1855.71 2761.23 1855.71 2766.99 1834.18 2772.75 1815.73 2784.27 1809.58 2790.03 1809.58 2790.03 1809.58 2792.91 1809.58 2795.79 1812.66 2798.67 1815.73 2798.67 1818.81 2798.67 1834.18 2798.67 1855.71 2795.79 1877.24 2792.91 1920.29 2790.03 1957.19 2810.2 1960.27 2833.24 1963.34 2839 1926.44 2841.88 1880.31 2847.64 1852.64 2850.52 1812.66 2862.04 1809.58 2862.04 1809.58 2876.45 1809.58 2876.45 1809.58 2893.73 1806.51 2913.89 1806.51 2936.93 1803.43 2939.82 1803.43 2939.82 1803.43 2939.82 1803.43 2948.46 1812.66 2948.46 1855.71 2948.46 1892.61 2948.46 1938.74 2948.46 1938.74 2948.46 1938.74 2948.46 1987.94 2951.34 2018.7 2962.86 2031 2965.74 2034.07 2971.5 2034.07 2974.38 2034.07 2997.42 2031 3000.3 1987.94 2994.54 1917.21 2991.66 1892.61 2991.66 1892.61 2991.66 1892.61 2988.78 1861.86 2985.9 1828.03 2994.54 1809.58 2997.42 1800.36 2997.42 1794.21 3020.47 1791.13 3020.47 1788.06 3080.96 1775.76 3080.96 1775.76 3095.36 1772.68 3095.36 1772.68 3095.36 1772.68 3104 1772.68 3106.88 1775.76 3115.52 1791.13 3118.4 1797.28 3121.28 1821.88 3121.28 1846.48 3127.04 1904.91 3129.92 1947.97 3144.33 1957.19 3147.21 1960.27 3152.97 1963.34 3155.85 1960.27 3181.77 1954.12 3184.65 1911.06 3170.25 1824.96 3167.37 1800.36 3167.37 1781.91 3173.13 1775.76 3173.13 1775.76 3176.01 1772.68 3184.65 1775.76 3184.65 1775.76 3196.17 1781.91 3196.17 1781.91 3216.34 1800.36 3230.74 1831.11 3236.5 1871.09 3236.5 1871.09 3236.5 1880.31 3236.5 1880.31 3236.5 1954.12 3207.7 2009.47 3150.09 2043.3 3144.33 2046.37 3138.57 2049.45 3129.92 2046.37 3118.4 2043.3 3109.76 2024.85 3101.12 1994.09 3095.36 1957.19 3095.36 1957.19 3095.36 1957.19 3092.48 1935.67 3086.72 1907.99 3083.84 1886.46 3078.08 1874.16 3072.32 1861.86 3060.79 1855.71 3055.03 1852.64 3049.27 1852.64 3043.51 1852.64 3020.47 1861.86 3020.47 1880.31 3026.23 1907.99 3031.99 1947.97 3034.87 1981.79 3037.75 2027.92 3040.63 2052.52 3026.23 2070.97 3017.59 2080.2 3014.71 2083.27 2997.42 2089.42 2994.54 2089.42 2965.74 2092.5 2965.74 2092.5 2965.74 2092.5 2965.74 2092.5 2945.58 2092.5 2945.58 2092.5 2939.82 2092.5 2922.53 2086.35 2922.53 2083.27 2913.89 2064.82 2916.77 2024.85 2916.77 1997.17 2919.65 1978.72 2919.65 1978.72 2919.65 1978.72 2919.65 1954.12 2919.65 1954.12 2919.65 1954.12 2925.41 1920.29 2928.29 1874.16 2893.73 1864.94 2887.97 1864.94 2879.33 1864.94 2876.45 1871.09 2867.8 1877.24 2862.04 1892.61 2862.04 1920.29 2859.16 1926.44 2859.16 1926.44 2859.16 1926.44 2859.16 1960.27 2853.4 2049.45 2841.88 2064.82 2833.24 2070.97 2815.96 2077.12 2790.03 2077.12 2781.39 2077.12 2758.35 2074.05 2752.59 2070.97 2718.02 2064.82 2686.34 2052.52 2654.65 2037.15 2646.01 2031 2646.01 2027.92 2648.89 2003.32 2648.89 2000.24 2648.89 2000.24 2648.89 2000.24 2651.77 1972.57 2671.94 1898.76 2683.46 1871.09 2694.98 1846.48 2703.62 1815.73 2680.58 1800.36 2674.82 1797.28 2669.05 1797.28 2663.29 1800.36 2643.13 1806.51 2622.97 1855.71 2602.8 1901.84 2591.28 1932.59 2576.88 1966.42 2565.36 1972.57 2556.72 1978.72 2548.08 1978.72 2545.2 1975.64 2539.44 1972.57 2539.44 1963.34 2539.44 1960.27 2539.44 1960.27 2542.32 1917.21 2542.32 1917.21 2545.2 1901.84 2553.84 1883.39 2559.6 1864.94 2571.12 1840.33 2579.76 1815.73 2565.36 1806.51 2545.2 1800.36 2539.44 1815.73 2533.67 1831.11 2525.03 1849.56 2525.03 1849.56 2525.03 1849.56 2516.39 1874.16 2516.39 1874.16 2516.39 1874.16 2510.63 1889.54 2504.87 1907.99 2496.23 1920.29 2493.35 1920.29 2490.47 1920.29 2487.59 1920.29 2487.59 1920.29 2478.95 1917.21 2478.95 1907.99 2478.95 1886.46 2484.71 1855.71 2496.23 1837.26 2516.39 1809.58 2516.39 1809.58 2516.39 1809.58 2536.55 1784.98 2553.84 1760.38 2553.84 1741.93 2553.84 1738.85 2550.96 1732.7 2545.2 1729.63 2545.2 1729.63 2545.2 1729.63 2545.2 1729.63 2516.39 1717.33 2501.99 1751.15 2496.23 1763.45 2490.47 1781.91 2461.66 1812.66 2447.26 1818.81 2444.38 1818.81 2444.38 1818.81 2441.5 1818.81Z" stroke="#FFFFFF" stroke-width="2.86476" stroke-linecap="round" stroke-linejoin="round" stroke-miterlimit="10" fill="none" fill-rule="evenodd"/></g></svg>