<svg width="731" height="360" xmlns="http://www.w3.org/2000/svg" xmlns:xlink="http://www.w3.org/1999/xlink" xml:space="preserve" overflow="hidden"><g transform="translate(-1506 -548)"><path d="M1510.15 706.471C1498 869.941 1585.49 885.51 1733.74 895.889 1857.69 903.673 2159.05 940 2222.24 781.719 2283 626.033 2088.57 563.758 1891.72 555.974 1707.01 545.595 1522.3 543 1510.15 706.471Z" fill="#FFFB73" fill-rule="evenodd"/><path d="M1889.22 572.37C2054.39 580.148 2168.56 619.037 2205 681.259 2222 709.778 2222 740.889 2207.43 777.185 2153.99 912 1891.65 891.259 1765.34 883.481 1733.76 880.889 1733.76 880.889 1733.76 880.889 1646.31 873.111 1580.73 867.926 1546.72 826.444 1527.29 803.111 1520 764.222 1524.86 709.778 1524.86 709.778 1524.86 709.778 1524.86 709.778 1537 564.593 1690.03 562 1889.22 572.37Z" fill="#FFFFC1" fill-rule="evenodd"/><path d="M2121.7 651.8C2114.41 646.6 2114.41 657 2114.41 662.2 2116.84 701.2 2124.13 724.6 2119.27 742.8 2116.84 758.4 2109.55 763.6 2099.84 763.6 2092.55 763.6 2085.26 758.4 2082.83 732.4 2080.4 709 2085.26 696 2082.83 664.8 2082.83 625.8 2051.25 620.6 2043.97 618 1990.53 602.4 2009.96 646.6 2009.96 654.4 2012.39 680.4 2014.82 693.4 2012.39 727.2 2012.39 748 2012.39 771.4 1997.81 771.4 1985.67 771.4 1985.67 753.2 1985.67 729.8 1988.1 716.8 1988.1 703.8 1988.1 690.8 1988.1 677.8 1988.1 610.2 1946.8 605 1905.51 602.4 1910.37 667.4 1910.37 685.6 1907.94 732.4 1907.94 779.2 1905.51 792.2 1905.51 802.6 1895.79 807.8 1888.5 805.2 1881.22 805.2 1873.93 794.8 1876.36 787 1878.79 776.6 1878.79 706.4 1878.79 641.4 1878.79 631 1881.22 592 1839.92 592 1827.78 592 1813.2 592 1798.63 592 1752.47 592 1757.33 636.2 1757.33 636.2 1757.33 636.2 1767.05 698.6 1742.76 698.6 1718.47 698.6 1728.18 657 1728.18 633.6 1728.18 594.6 1669.88 592 1669.88 638.8 1669.88 688.2 1667.46 748 1667.46 753.2 1667.46 761 1660.17 768.8 1652.88 768.8 1645.59 768.8 1640.73 761 1640.73 750.6 1640.73 750.6 1643.16 680.4 1643.16 625.8 1643.16 620.6 1640.73 607.6 1626.16 615.4 1580.01 633.6 1550.86 664.8 1548.43 719.4 1546 748 1550.86 771.4 1560.57 789.6 1570.29 805.2 1592.15 810.4 1592.15 781.8 1592.15 750.6 1592.15 719.4 1592.15 716.8 1592.15 709 1597.01 701.2 1606.73 701.2 1614.01 701.2 1621.3 709 1621.3 716.8 1621.3 742.8 1623.73 789.6 1623.73 818.2 1623.73 823.4 1623.73 849.4 1655.31 849.4 1686.89 849.4 1691.75 823.4 1691.75 823.4 1691.75 794.8 1691.75 755.8 1689.32 724.6 1689.32 714.2 1694.18 703.8 1703.89 703.8 1711.18 703.8 1713.61 714.2 1716.04 724.6 1716.04 755.8 1716.04 805.2 1716.04 836.4 1716.04 865 1745.19 859.8 1745.19 839 1745.19 820.8 1742.76 797.4 1742.76 797.4 1745.19 787 1742.76 768.8 1762.19 768.8 1784.05 768.8 1771.91 807.8 1771.91 833.8 1771.91 846.8 1779.19 857.2 1786.48 859.8 1798.63 859.8 1798.63 846.8 1798.63 839 1798.63 792.2 1791.34 719.4 1793.77 690.8 1793.77 664.8 1803.48 654.4 1810.77 654.4 1820.49 654.4 1830.21 659.6 1832.63 688.2 1837.49 711.6 1830.21 776.6 1830.21 823.4 1830.21 831.2 1830.21 865 1878.79 865 1929.8 865 1932.23 826 1932.23 815.6 1932.23 774 1934.66 722 1934.66 701.2 1934.66 693.4 1941.94 685.6 1949.23 685.6 1956.52 685.6 1963.81 693.4 1963.81 701.2 1963.81 724.6 1963.81 776.6 1961.38 818.2 1961.38 828.6 1958.95 862.4 1997.81 862.4 2039.11 862.4 2034.25 823.4 2036.68 815.6 2036.68 797.4 2036.68 776.6 2034.25 755.8 2034.25 748 2041.54 740.2 2048.82 740.2 2058.54 740.2 2065.83 745.4 2065.83 755.8 2065.83 781.8 2065.83 813 2065.83 833.8 2065.83 841.6 2068.26 852 2080.4 846.8 2126.56 833.8 2160.56 810.4 2175.14 774 2197 719.4 2172.71 680.4 2121.7 651.8Z" fill="#FFFFCF" fill-rule="evenodd"/><path d="M1670.36 639.366C1670.36 670.39 1670.36 706.585 1667.92 729.854 1670.36 727.268 1670.36 727.268 1670.36 724.683 1672.79 735.024 1672.79 742.78 1667.92 753.122 1667.92 753.122 1667.92 753.122 1667.92 753.122 1667.92 760.878 1660.6 768.634 1653.29 768.634 1650.85 768.634 1648.41 766.049 1648.41 766.049 1648.41 766.049 1648.41 766.049 1648.41 766.049 1650.85 768.634 1650.85 771.219 1650.85 771.219 1650.85 771.219 1650.85 771.219 1650.85 771.219 1650.85 771.219 1650.85 771.219 1650.85 771.219 1653.29 773.805 1653.29 773.805 1655.73 773.805 1655.73 773.805 1658.16 771.219 1658.16 768.634 1682.55 758.293 1684.99 711.756 1684.99 688.488 1684.99 672.976 1684.99 660.049 1689.86 647.122 1692.3 639.366 1692.3 629.024 1699.62 623.854 1704.49 621.268 1716.68 616.098 1724 618.683 1709.37 598 1670.36 600.586 1670.36 639.366ZM1626.47 616.098C1580.14 634.195 1550.88 665.22 1548.44 719.512 1546 747.951 1550.88 771.219 1560.63 789.317 1570.38 804.829 1592.33 810 1592.33 781.561 1592.33 766.049 1592.33 753.122 1592.33 740.195 1589.89 735.024 1587.45 729.854 1585.01 724.683 1582.58 719.512 1577.7 711.756 1577.7 706.585 1577.7 701.415 1582.58 693.659 1585.01 688.488 1592.33 678.146 1606.96 665.22 1619.15 665.22 1624.03 665.22 1631.34 667.805 1633.78 672.976 1638.66 680.732 1636.22 685.902 1638.66 693.659 1643.53 722.098 1643.53 722.098 1643.53 722.098 1643.53 696.244 1643.53 657.463 1643.53 626.439 1643.53 621.268 1641.1 608.342 1626.47 616.098Z" fill="#FFEAB4" fill-rule="evenodd"/><path d="M1661.22 799.957C1663.67 794.739 1663.67 789.522 1663.67 781.696 1663.67 771.261 1671 763.435 1671 753 1668.56 753 1668.56 753 1668.56 753 1668.56 760.826 1661.22 768.652 1653.89 768.652 1651.44 768.652 1651.44 766.044 1649 766.044 1651.44 771.261 1653.89 773.87 1653.89 779.087 1658.78 789.522 1658.78 802.565 1653.89 813 1658.78 810.391 1658.78 805.174 1661.22 799.957Z" fill="#FFEAB4" fill-rule="evenodd"/><path d="M1668.14 833.444C1663.29 833.444 1658.43 833.444 1651.14 830.852 1643.86 830.852 1634.14 825.667 1629.29 820.482 1622 807.518 1626.86 791.963 1624.43 779 1624.43 781.593 1624.43 781.593 1624.43 781.593 1624.43 794.556 1624.43 807.518 1624.43 817.889 1624.43 823.074 1624.43 849 1656 849 1675.43 849 1685.14 841.222 1687.57 830.852 1690 823.074 1690 815.296 1690 807.518 1690 817.889 1677.86 830.852 1668.14 833.444Z" fill="#FFEAB4" fill-rule="evenodd"/><path d="M1726.31 774.237C1726.31 761.271 1726.31 750.898 1723.85 737.932 1723.85 727.559 1721.38 719.78 1714 712 1714 714.593 1714 714.593 1714 714.593 1714 717.186 1716.46 719.78 1716.46 724.966 1716.46 756.085 1716.46 805.356 1716.46 836.474 1716.46 865 1746 859.813 1746 839.068 1746 833.881 1746 826.102 1746 818.322 1728.77 813.135 1726.31 789.796 1726.31 774.237Z" fill="#FFEAB4" fill-rule="evenodd"/><path d="M1782.45 781.818C1780.09 776.606 1777.73 774 1773 774 1780.09 784.424 1773 813.091 1773 833.939 1773 846.97 1780.09 857.394 1787.18 860 1799 860 1799 846.97 1799 839.152 1799 833.939 1799 831.333 1799 826.121 1796.64 826.121 1796.64 826.121 1796.64 826.121 1780.09 818.303 1787.18 797.455 1782.45 781.818Z" fill="#FFEAB4" fill-rule="evenodd"/><path d="M1745.65 712.079C1740.81 706.905 1738.39 701.73 1738.39 696.556 1721.45 691.381 1728.71 655.159 1728.71 634.46 1728.71 618.937 1716.61 608.587 1704.52 606 1699.68 611.175 1697.26 616.349 1692.42 621.524 1690 624.111 1690 639.635 1690 644.81 1699.68 626.698 1704.52 629.286 1709.35 637.048 1716.61 644.81 1711.77 657.746 1714.19 668.095 1714.19 675.857 1716.61 688.794 1719.03 696.556 1721.45 704.318 1723.87 706.905 1728.71 712.079 1733.55 717.254 1735.97 725.016 1740.81 730.19 1743.23 735.365 1748.06 735.365 1752.9 740.54 1760.16 750.889 1757.74 758.651 1752.9 769 1762.58 761.238 1765 740.54 1757.74 727.603 1755.32 722.429 1750.48 717.254 1745.65 712.079Z" fill="#FFEAB4" fill-rule="evenodd"/><path d="M1864.96 651.951C1867.4 667.59 1869.83 683.23 1869.83 698.869 1869.83 706.689 1872.26 717.115 1874.7 724.935 1874.7 735.361 1874.7 743.18 1874.7 751 1877.13 743.18 1877.13 737.967 1879.57 730.148 1879.57 704.082 1879.57 670.197 1879.57 641.525 1879.57 631.098 1882 592 1840.62 592 1828.45 592 1813.85 592 1799.25 592 1753 592 1757.87 636.311 1757.87 636.311 1757.87 636.311 1762.74 662.377 1757.87 680.623 1762.74 685.836 1762.74 685.836 1762.74 685.836 1767.6 675.41 1772.47 667.59 1774.91 654.557 1774.91 641.525 1777.34 628.492 1784.64 620.672 1796.81 610.246 1818.72 615.459 1830.89 615.459 1850.36 618.066 1860.09 631.098 1864.96 651.951Z" fill="#FFEAB4" fill-rule="evenodd"/><path d="M1879.48 865C1891.61 865 1901.3 862.408 1908.58 859.816 1911 852.041 1908.58 841.673 1908.58 836.49 1911 828.714 1911 820.939 1906.15 815.755 1903.73 810.571 1898.88 807.98 1894.03 805.388 1894.03 805.388 1894.03 805.388 1891.61 805.388 1891.61 810.571 1891.61 815.755 1891.61 818.347 1889.18 823.531 1886.76 828.714 1884.33 831.306 1879.48 839.082 1864.94 839.082 1855.24 833.898 1845.55 826.122 1843.12 813.163 1840.7 802.796 1838.27 782.061 1835.85 758.735 1835.85 738 1833.42 743.184 1833.42 743.184 1833.42 743.184 1833.42 769.102 1831 797.612 1831 823.531 1831 831.306 1831 865 1879.48 865Z" fill="#FFEAB4" fill-rule="evenodd"/><path d="M1984.12 714.8C1984.12 712.2 1986.56 709.6 1989 704.4 1989 701.8 1989 696.6 1989 691.4 1989 678.4 1989 610.8 1947.5 605.6 1906 603 1910.88 668 1910.88 686.2 1910.88 696.6 1910.88 704.4 1908.44 712.2 1913.32 720 1913.32 720 1913.32 720 1918.21 696.6 1915.76 636.8 1949.94 644.6 1962.15 647.2 1971.91 657.6 1976.79 668 1981.68 681 1986.56 699.2 1984.12 714.8Z" fill="#FFEAB4" fill-rule="evenodd"/><path d="M1926 649.714C1928.39 649.714 1930.78 649.714 1935.57 649.714 1942.74 649.714 1942.74 652.333 1947.52 657.571 1954.7 670.667 1952.3 675.905 1947.52 689 1954.7 683.762 1957.09 678.524 1959.48 668.047 1959.48 657.571 1966.65 652.333 1976.22 660.19 1981 647.095 1954.7 634 1945.13 634" fill="#FFEAB4" fill-rule="evenodd"/><path d="M2083.56 665.118C2083.56 626.294 2051.9 621.118 2044.59 618.529 1991 603 2010.49 647 2010.49 654.765 2012.92 675.471 2015.36 688.412 2015.36 714.294 2017.79 735 2017.79 735 2017.79 735 2017.79 724.647 2020.23 714.294 2022.67 703.941 2025.1 691 2025.1 678.059 2029.97 667.706 2034.85 654.765 2044.59 657.353 2051.9 665.118 2061.64 670.294 2068.95 672.882 2073.82 683.235 2073.82 691 2076.26 696.176 2078.69 703.941 2078.69 709.118 2076.26 719.471 2078.69 724.647 2081.13 722.059 2081.13 722.059 2083.56 719.471 2083.56 703.941 2086 688.412 2083.56 665.118Z" fill="#FFEAB4" fill-rule="evenodd"/><path d="M2122.28 652.18C2115.05 647 2115.05 657.361 2115.05 662.541 2117.46 701.393 2124.69 724.705 2119.87 742.836 2117.46 758.377 2110.23 763.557 2103 763.557 2103 766.148 2103 766.148 2103 766.148 2107.82 768.738 2119.87 763.557 2124.69 760.967 2136.74 750.607 2134.33 735.066 2151.21 740.246 2163.26 742.836 2172.9 758.377 2172.9 771.328 2170.49 776.508 2168.08 781.689 2165.67 786.869 2163.26 792.049 2158.44 799.82 2156.03 805 2165.67 794.639 2170.49 784.279 2175.31 773.918 2197 719.525 2172.9 680.672 2122.28 652.18Z" fill="#FFEAB4" fill-rule="evenodd"/><path d="M2078.21 771.353C2085.58 779.118 2095.42 779.118 2102.79 784.294 2107.71 789.471 2115.08 797.235 2110.17 805 2120 794.647 2110.17 773.941 2100.33 766.177 2100.33 763.588 2100.33 763.588 2100.33 763.588 2092.96 763.588 2085.58 755.824 2083.13 732.529 2083.13 727.353 2083.13 722.177 2083.13 717 2073.29 737.706 2061 758.412 2078.21 771.353Z" fill="#FFEAB4" fill-rule="evenodd"/><path d="M2078.31 794.684C2080.77 789.474 2080.77 781.658 2085.69 779.053 2090.62 779.053 2093.08 781.658 2095.54 781.658 2078.31 753 2078.31 753 2078.31 753 2073.38 753 2068.46 755.605 2066 760.816 2066 786.869 2066 812.921 2066 833.763 2066 841.579 2068.46 852 2080.77 846.79 2085.69 846.79 2093.08 844.184 2098 841.579 2083.23 831.158 2075.85 815.526 2078.31 794.684Z" fill="#FFEAB4" fill-rule="evenodd"/><path d="M2012.56 810C2012.56 802.25 2015 797.083 2010.12 789.333 2007.69 784.167 2005.25 779 2000.38 773.833 2000.38 771.25 2000.38 771.25 2000.38 771.25 2000.38 771.25 2000.38 771.25 1997.94 771.25 1985.75 771.25 1985.75 753.167 1985.75 729.917 1985.75 724.75 1988.19 719.583 1988.19 717 1983.31 724.75 1978.44 735.083 1978.44 745.417 1976 755.75 1976 779 1985.75 786.75 1997.94 794.5 2012.56 791.917 2012.56 810Z" fill="#FFEAB4" fill-rule="evenodd"/><path d="M1998.23 862C2027.65 862 2035 841.333 2035 828.417 2027.65 838.75 2017.84 843.917 2005.58 843.917 1990.87 841.333 1983.52 838.75 1978.61 823.25 1971.26 807.75 1966.35 789.667 1966.35 769 1966.35 761.25 1963.9 748.333 1966.35 738 1963.9 738 1963.9 738 1963.9 738 1963.9 761.25 1963.9 792.25 1961.45 818.083 1961.45 828.417 1959 862 1998.23 862Z" fill="#FFEAB4" fill-rule="evenodd"/><path d="M1510.15 706.471C1498 869.941 1585.49 885.51 1733.74 895.889 1857.69 903.673 2159.05 940 2222.24 781.719 2283 626.033 2088.57 563.758 1891.72 555.974 1707.01 545.595 1522.3 543 1510.15 706.471Z" stroke="#333333" stroke-width="6.30226" stroke-linecap="round" stroke-linejoin="round" stroke-miterlimit="10" fill="none" fill-rule="evenodd"/><path d="M1889.22 572.37C2054.39 580.148 2168.56 619.037 2205 681.259 2222 709.778 2222 740.889 2207.43 777.185 2153.99 912 1891.65 891.259 1765.34 883.481 1733.76 880.889 1733.76 880.889 1733.76 880.889 1646.31 873.111 1580.73 867.926 1546.72 826.444 1527.29 803.111 1520 764.222 1524.86 709.778 1524.86 709.778 1524.86 709.778 1524.86 709.778 1537 564.593 1690.03 562 1889.22 572.37Z" stroke="#FFFFFF" stroke-width="6.30226" stroke-linecap="round" stroke-linejoin="round" stroke-miterlimit="10" fill="none" fill-rule="evenodd"/><path d="M1889.5 805.5C1909.06 808.045 1911.5 820.773 1911.5 833.5" stroke="#FFFFFF" stroke-width="3.4375" stroke-linecap="round" stroke-linejoin="round" stroke-miterlimit="10" fill="none" fill-rule="evenodd"/><path d="M1993.5 769.5C2013.06 779.9 2015.5 795.5 2015.5 808.5" stroke="#FFFFFF" stroke-width="3.4375" stroke-linecap="round" stroke-linejoin="round" stroke-miterlimit="10" fill="none" fill-rule="evenodd"/><path d="M2095.5 763.5C2115.06 779.5 2117.5 784.833 2112.61 803.5" stroke="#FFFFFF" stroke-width="3.4375" stroke-linecap="round" stroke-linejoin="round" stroke-miterlimit="10" fill="none" fill-rule="evenodd"/><path d="M1644.5 763.5C1661.5 781.875 1654.21 795 1654.21 805.5" stroke="#FFFFFF" stroke-width="3.4375" stroke-linecap="round" stroke-linejoin="round" stroke-miterlimit="10" fill="none" fill-rule="evenodd"/><path d="M1734.5 691.5C1744.04 712.25 1760.73 722.625 1763.12 740.781 1765.5 753.75 1763.12 764.125 1751.19 774.5" stroke="#FFFFFF" stroke-width="3.4375" stroke-linecap="round" stroke-linejoin="round" stroke-miterlimit="10" fill="none" fill-rule="evenodd"/><path d="M1804.5 655.5C1817 655.5 1824.5 650.357 1824.5 637.5" stroke="#FFFFFF" stroke-width="3.4375" stroke-linecap="round" stroke-linejoin="round" stroke-miterlimit="10" fill="none" fill-rule="evenodd"/><path d="M1940.5 689.5C1952.37 686.875 1959.5 681.625 1959.5 668.5" stroke="#FFFFFF" stroke-width="3.4375" stroke-linecap="round" stroke-linejoin="round" stroke-miterlimit="10" fill="none" fill-rule="evenodd"/><path d="M1765.28 599.982C1750.72 615.56 1753.15 636.33 1753.15 638.927 1755.57 649.312 1758 680.468 1748.29 690.853 1748.29 690.853 1745.87 693.45 1743.44 693.45 1741.01 693.45 1738.58 690.853 1736.16 690.853 1731.3 683.064 1731.3 664.89 1733.73 649.312 1733.73 633.734 1733.73 633.734 1733.73 633.734 1733.73 610.367 1716.74 599.982 1699.75 599.982 1690.05 599.982 1682.76 602.578 1675.48 607.771 1668.2 615.56 1665.78 625.945 1665.78 638.927 1663.35 753.165 1663.35 753.165 1663.35 753.165 1663.35 758.358 1658.49 763.551 1653.64 763.551 1651.21 763.551 1646.36 763.551 1646.36 750.569 1646.36 750.569 1648.79 680.468 1648.79 625.945 1648.79 618.156 1643.93 612.963 1641.51 610.367 1636.65 607.771 1631.8 607.771 1624.52 610.367 1573.55 631.138 1546.85 667.486 1544.43 719.413 1542 747.973 1546.85 771.339 1558.99 792.11 1563.84 802.495 1575.98 810.284 1585.69 807.688 1590.54 805.092 1597.82 799.899 1597.82 781.725 1597.82 716.817 1597.82 716.817 1597.82 716.817 1597.82 711.624 1600.25 706.431 1607.53 706.431 1612.38 706.431 1617.24 711.624 1617.24 716.817 1619.66 818.073 1619.66 818.073 1619.66 818.073 1619.66 841.44 1631.8 854.422 1656.07 854.422 1690.05 854.422 1697.33 828.459 1697.33 823.266 1694.9 724.606 1694.9 724.606 1694.9 724.606 1694.9 716.817 1699.75 709.028 1704.61 709.028 1707.03 709.028 1709.46 716.817 1711.89 724.606 1711.89 836.248 1711.89 836.248 1711.89 836.248 1711.89 844.037 1714.31 849.229 1716.74 854.422 1721.6 859.615 1724.02 862.211 1731.3 862.211 1741.01 862.211 1750.72 851.826 1750.72 838.844 1748.29 797.303 1748.29 797.303 1748.29 797.303 1748.29 794.706 1748.29 794.706 1748.29 794.706 1748.29 789.514 1748.29 781.725 1753.15 776.532 1755.57 776.532 1758 773.936 1762.85 773.936 1767.71 773.936 1767.71 776.532 1767.71 776.532 1772.56 781.725 1772.56 799.899 1770.14 812.881 1767.71 833.651 1767.71 833.651 1767.71 833.651 1767.71 849.229 1774.99 859.615 1787.12 862.211 1791.98 864.807 1796.83 862.211 1799.26 859.615 1801.69 857.018 1804.11 849.229 1804.11 838.844 1804.11 815.477 1801.69 786.917 1801.69 760.954 1799.26 732.395 1796.83 706.431 1799.26 690.853 1799.26 667.486 1806.54 659.697 1811.39 659.697 1823.53 659.697 1828.38 675.275 1828.38 688.257 1830.81 703.835 1828.38 740.184 1828.38 776.532 1825.96 820.67 1825.96 820.67 1825.96 820.67 1825.96 838.844 1830.81 849.229 1835.66 854.422 1845.37 864.807 1859.93 870 1879.35 870 1930.31 870 1937.6 831.055 1937.6 815.477 1940.02 701.239 1940.02 701.239 1940.02 701.239 1940.02 696.046 1944.88 690.853 1949.73 690.853 1954.58 690.853 1959.44 696.046 1959.44 701.239 1957.01 818.073 1957.01 818.073 1957.01 818.073 1957.01 820.67 1957.01 820.67 1957.01 820.67 1957.01 828.459 1957.01 844.037 1966.72 854.422 1974 862.211 1983.71 867.404 1998.27 867.404 2012.83 867.404 2022.54 862.211 2029.82 854.422 2041.96 844.037 2041.96 825.862 2041.96 818.073 2039.53 755.762 2039.53 755.762 2039.53 755.762 2039.53 750.569 2044.38 745.376 2049.24 745.376 2054.09 745.376 2056.52 745.376 2056.52 747.973 2058.94 750.569 2061.37 753.165 2061.37 755.762 2061.37 781.725 2061.37 812.881 2061.37 833.651 2061.37 838.844 2061.37 846.633 2068.65 851.826 2071.08 851.826 2075.93 854.422 2083.21 851.826 2134.18 836.248 2165.73 810.284 2180.29 776.532 2185.15 763.551 2187.57 750.569 2187.57 737.587 2187.57 701.239 2168.16 670.083 2124.47 646.716 2119.62 644.119 2117.19 644.119 2114.76 646.716 2109.91 649.312 2109.91 659.697 2109.91 662.294 2112.34 703.835 2112.34 703.835 2112.34 703.835 2114.76 719.413 2117.19 732.395 2114.76 740.184 2112.34 758.358 2107.48 758.358 2100.2 758.358 2097.78 758.358 2090.49 758.358 2088.07 732.395 2085.64 719.413 2088.07 711.624 2088.07 698.642 2088.07 664.89 2088.07 664.89 2088.07 664.89 2085.64 625.945 2056.52 615.56 2046.81 612.963 2044.38 612.963 2044.38 612.963 2044.38 612.963 2027.39 607.771 2015.26 607.771 2007.98 615.56 1998.27 625.945 2003.12 641.523 2003.12 651.908 2005.55 654.505 2005.55 654.505 2005.55 654.505 2007.98 672.679 2007.98 672.679 2007.98 672.679 2007.98 688.257 2010.4 701.239 2007.98 727.202 2007.98 734.991 2007.98 734.991 2007.98 734.991 2007.98 747.973 2007.98 766.147 1998.27 766.147 1995.84 766.147 1995.84 766.147 1995.84 766.147 1990.99 760.954 1990.99 745.376 1990.99 729.798 1993.42 690.853 1993.42 690.853 1993.42 690.853 1993.42 675.275 1993.42 605.174 1947.3 599.982 1937.6 599.982 1927.89 602.578 1920.61 610.367 1903.62 625.945 1903.62 662.294 1906.05 680.468 1906.05 685.661 1906.05 685.661 1906.05 685.661 1903.62 760.954 1903.62 784.321 1901.19 792.11 1901.19 794.706 1898.76 797.303 1896.34 799.899 1896.34 799.899 1891.48 799.899 1889.06 799.899 1886.63 799.899 1884.2 797.303 1884.2 797.303 1881.78 794.706 1881.78 789.514 1881.78 786.917 1884.2 773.936 1884.2 680.468 1884.2 641.523 1884.2 631.138 1884.2 612.963 1872.07 599.982 1864.79 592.193 1855.08 587 1840.52 587 1799.26 587 1799.26 587 1799.26 587 1784.7 587 1772.56 592.193 1765.28 599.982ZM1758 696.046C1770.14 680.468 1765.28 641.523 1762.85 636.33 1762.85 636.33 1762.85 618.156 1772.56 607.771 1777.42 599.982 1787.12 597.385 1799.26 597.385 1840.52 597.385 1840.52 597.385 1840.52 597.385 1852.65 597.385 1859.93 599.982 1867.21 607.771 1874.49 615.56 1874.49 633.734 1874.49 638.927 1874.49 722.009 1874.49 776.532 1872.07 786.917 1872.07 792.11 1872.07 797.303 1874.49 802.495 1879.35 807.688 1881.78 810.284 1889.06 810.284 1893.91 812.881 1898.76 810.284 1903.62 807.688 1908.47 805.092 1910.9 799.899 1910.9 794.706 1913.33 781.725 1913.33 747.973 1915.75 685.661 1915.75 680.468 1915.75 680.468 1915.75 680.468 1913.33 664.89 1913.33 631.138 1927.89 615.56 1932.74 612.963 1937.6 610.367 1947.3 610.367 1983.71 612.963 1983.71 677.872 1983.71 690.853 1981.28 727.202 1981.28 727.202 1981.28 727.202 1981.28 747.973 1981.28 763.551 1988.56 771.339 1990.99 776.532 1995.84 776.532 1998.27 776.532 2015.26 776.532 2017.69 753.165 2017.69 734.991 2017.69 727.202 2017.69 727.202 2017.69 727.202 2020.11 701.239 2017.69 685.661 2017.69 670.083 2015.26 654.505 2015.26 654.505 2015.26 654.505 2012.83 649.312 2012.83 649.312 2012.83 649.312 2012.83 641.523 2007.98 628.541 2012.83 623.349 2017.69 618.156 2027.39 618.156 2041.96 623.349 2044.38 623.349 2044.38 623.349 2044.38 623.349 2054.09 625.945 2078.36 633.734 2078.36 664.89 2078.36 698.642 2078.36 698.642 2078.36 698.642 2078.36 709.028 2075.93 719.413 2078.36 732.395 2078.36 747.973 2083.21 768.743 2100.2 768.743 2114.76 768.743 2119.62 760.954 2124.47 742.78 2124.47 740.184 2124.47 734.991 2124.47 729.798 2124.47 722.009 2124.47 714.22 2122.04 701.239 2119.62 662.294 2119.62 662.294 2119.62 662.294 2119.62 659.697 2119.62 659.697 2119.62 659.697 2119.62 657.101 2119.62 654.505 2119.62 654.505 2122.04 654.505 2122.04 654.505 2122.04 654.505 2122.04 654.505 2122.04 654.505 2122.04 654.505 2173.01 685.661 2190 724.606 2173.01 771.339 2158.45 805.092 2126.9 828.459 2080.79 841.44 2075.93 844.037 2073.51 844.037 2073.51 841.44 2071.08 841.44 2071.08 836.248 2071.08 833.651 2071.08 812.881 2071.08 781.725 2071.08 755.762 2071.08 747.973 2068.65 742.78 2063.8 740.184 2061.37 737.587 2054.09 734.991 2049.24 734.991 2044.38 734.991 2039.53 737.587 2037.1 740.184 2032.25 745.376 2029.82 750.569 2029.82 755.762 2032.25 818.073 2032.25 818.073 2032.25 818.073 2032.25 825.862 2032.25 838.844 2022.54 849.229 2017.69 854.422 2010.4 857.018 1998.27 857.018 1986.13 857.018 1978.85 854.422 1974 849.229 1966.72 841.44 1966.72 828.459 1966.72 820.67 1966.72 818.073 1966.72 818.073 1966.72 818.073 1969.15 701.239 1969.15 701.239 1969.15 701.239 1969.15 690.853 1959.44 680.468 1949.73 680.468 1937.6 680.468 1930.31 690.853 1930.31 701.239 1927.89 815.477 1927.89 815.477 1927.89 815.477 1927.89 831.055 1920.61 859.615 1879.35 859.615 1862.36 859.615 1850.22 854.422 1842.94 846.633 1838.09 841.44 1835.66 833.651 1835.66 823.266 1838.09 776.532 1838.09 776.532 1838.09 776.532 1838.09 740.184 1840.52 703.835 1838.09 685.661 1835.66 654.505 1821.1 649.312 1811.39 649.312 1804.11 649.312 1789.55 654.505 1789.55 690.853 1787.12 706.431 1789.55 732.395 1791.98 760.954 1791.98 786.917 1794.4 815.477 1794.4 838.844 1794.4 849.229 1791.98 851.826 1791.98 851.826 1789.55 854.422 1789.55 854.422 1789.55 854.422 1782.27 851.826 1777.42 844.037 1777.42 833.651 1779.84 812.881 1779.84 812.881 1779.84 812.881 1782.27 794.706 1784.7 779.128 1774.99 768.743 1772.56 766.147 1767.71 763.551 1762.85 763.551 1755.57 763.551 1750.72 766.147 1745.87 771.339 1738.58 776.532 1738.58 786.917 1738.58 794.706 1738.58 797.303 1738.58 797.303 1738.58 797.303 1741.01 838.844 1741.01 838.844 1741.01 838.844 1741.01 846.633 1736.16 851.826 1731.3 851.826 1728.88 851.826 1726.45 849.229 1724.02 846.633 1721.6 844.037 1721.6 841.44 1721.6 836.248 1721.6 724.606 1721.6 724.606 1721.6 724.606 1719.17 716.817 1719.17 711.624 1716.74 706.431 1714.31 701.239 1709.46 698.642 1702.18 698.642 1692.47 698.642 1685.19 714.22 1685.19 724.606 1687.62 823.266 1687.62 823.266 1687.62 823.266 1687.62 823.266 1682.76 844.037 1656.07 844.037 1639.08 844.037 1629.37 836.248 1629.37 818.073 1626.94 716.817 1626.94 716.817 1626.94 716.817 1626.94 706.431 1617.24 696.046 1607.53 696.046 1595.39 696.046 1588.11 706.431 1588.11 719.413 1588.11 781.725 1588.11 781.725 1588.11 781.725 1588.11 786.917 1588.11 794.706 1583.26 797.303 1578.4 797.303 1571.12 794.706 1566.27 786.917 1556.56 768.743 1551.71 747.973 1554.14 719.413 1556.56 672.679 1578.4 641.523 1626.94 620.752 1631.8 618.156 1634.22 618.156 1636.65 618.156 1636.65 620.752 1639.08 623.349 1639.08 625.945 1639.08 680.468 1636.65 750.569 1636.65 750.569 1636.65 763.551 1643.93 773.936 1653.64 773.936 1665.78 773.936 1673.06 763.551 1673.06 753.165 1675.48 638.927 1675.48 638.927 1675.48 638.927 1675.48 628.541 1677.91 620.752 1682.76 615.56 1687.62 612.963 1692.47 610.367 1699.75 610.367 1711.89 610.367 1724.02 618.156 1724.02 633.734 1724.02 649.312 1724.02 649.312 1724.02 649.312 1721.6 667.486 1721.6 685.661 1728.88 696.046 1733.73 701.239 1738.58 703.835 1743.44 703.835 1748.29 703.835 1753.15 701.239 1758 696.046ZM2124.47 646.716C2124.47 646.716 2124.47 646.716 2124.47 646.716 2124.47 646.716 2124.47 646.716 2124.47 646.716 2124.47 646.716 2124.47 646.716 2124.47 646.716Z" fill="#FFFFCC" fill-rule="evenodd"/><path d="M1765.93 600.482C1751.36 616.06 1753.79 636.83 1753.79 639.427 1756.21 649.812 1758.64 680.968 1748.93 691.353 1748.93 691.353 1746.5 693.949 1744.07 693.949 1741.64 693.949 1739.21 691.353 1736.79 691.353 1731.93 683.564 1731.93 665.39 1734.36 649.812 1734.36 634.234 1734.36 634.234 1734.36 634.234 1734.36 610.867 1717.36 600.482 1700.36 600.482 1690.64 600.482 1683.36 603.078 1676.07 608.271 1668.79 616.06 1666.36 626.445 1666.36 639.427 1663.93 753.665 1663.93 753.665 1663.93 753.665 1663.93 758.858 1659.07 764.05 1654.21 764.05 1651.79 764.05 1646.93 764.05 1646.93 751.069 1646.93 751.069 1649.36 680.968 1649.36 626.445 1649.36 618.656 1644.5 613.463 1642.07 610.867 1637.21 608.271 1632.36 608.271 1625.07 610.867 1574.07 631.638 1547.36 667.986 1544.93 719.913 1542.5 748.472 1547.36 771.839 1559.5 792.61 1564.36 802.995 1576.5 810.784 1586.21 808.188 1591.07 805.592 1598.36 800.399 1598.36 782.225 1598.36 717.316 1598.36 717.316 1598.36 717.316 1598.36 712.124 1600.79 706.931 1608.07 706.931 1612.93 706.931 1617.79 712.124 1617.79 717.316 1620.21 818.573 1620.21 818.573 1620.21 818.573 1620.21 841.94 1632.36 854.922 1656.64 854.922 1690.64 854.922 1697.93 828.959 1697.93 823.766 1695.5 725.105 1695.5 725.105 1695.5 725.105 1695.5 717.316 1700.36 709.527 1705.21 709.527 1707.64 709.527 1710.07 717.316 1712.5 725.105 1712.5 836.748 1712.5 836.748 1712.5 836.748 1712.5 844.536 1714.93 849.729 1717.36 854.922 1722.21 860.115 1724.64 862.711 1731.93 862.711 1741.64 862.711 1751.36 852.326 1751.36 839.344 1748.93 797.803 1748.93 797.803 1748.93 797.803 1748.93 795.206 1748.93 795.206 1748.93 795.206 1748.93 790.014 1748.93 782.225 1753.79 777.032 1756.21 777.032 1758.64 774.436 1763.5 774.436 1768.36 774.436 1768.36 777.032 1768.36 777.032 1773.21 782.225 1773.21 800.399 1770.79 813.381 1768.36 834.151 1768.36 834.151 1768.36 834.151 1768.36 849.729 1775.64 860.115 1787.79 862.711 1792.64 865.307 1797.5 862.711 1799.93 860.115 1802.36 857.518 1804.79 849.729 1804.79 839.344 1804.79 815.977 1802.36 787.417 1802.36 761.454 1799.93 732.894 1797.5 706.931 1799.93 691.353 1799.93 667.986 1807.21 660.197 1812.07 660.197 1824.21 660.197 1829.07 675.775 1829.07 688.757 1831.5 704.335 1829.07 740.683 1829.07 777.032 1826.64 821.17 1826.64 821.17 1826.64 821.17 1826.64 839.344 1831.5 849.729 1836.36 854.922 1846.07 865.307 1860.64 870.5 1880.07 870.5 1931.07 870.5 1938.36 831.555 1938.36 815.977 1940.79 701.738 1940.79 701.738 1940.79 701.738 1940.79 696.546 1945.64 691.353 1950.5 691.353 1955.36 691.353 1960.21 696.546 1960.21 701.738 1957.79 818.573 1957.79 818.573 1957.79 818.573 1957.79 821.17 1957.79 821.17 1957.79 821.17 1957.79 828.959 1957.79 844.536 1967.5 854.922 1974.79 862.711 1984.5 867.904 1999.07 867.904 2013.64 867.904 2023.36 862.711 2030.64 854.922 2042.79 844.536 2042.79 826.362 2042.79 818.573 2040.36 756.261 2040.36 756.261 2040.36 756.261 2040.36 751.069 2045.21 745.876 2050.07 745.876 2054.93 745.876 2057.36 745.876 2057.36 748.472 2059.79 751.069 2062.21 753.665 2062.21 756.261 2062.21 782.225 2062.21 813.381 2062.21 834.151 2062.21 839.344 2062.21 847.133 2069.5 852.326 2071.93 852.326 2076.79 854.922 2084.07 852.326 2135.07 836.748 2166.64 810.784 2181.21 777.032 2186.07 764.05 2188.5 751.069 2188.5 738.087 2188.5 701.738 2169.07 670.582 2125.36 647.216 2120.5 644.619 2118.07 644.619 2115.64 647.216 2110.79 649.812 2110.79 660.197 2110.79 662.794 2113.21 704.335 2113.21 704.335 2113.21 704.335 2115.64 719.913 2118.07 732.894 2115.64 740.683 2113.21 758.858 2108.36 758.858 2101.07 758.858 2098.64 758.858 2091.36 758.858 2088.93 732.894 2086.5 719.913 2088.93 712.124 2088.93 699.142 2088.93 665.39 2088.93 665.39 2088.93 665.39 2086.5 626.445 2057.36 616.06 2047.64 613.463 2045.21 613.463 2045.21 613.463 2045.21 613.463 2028.21 608.271 2016.07 608.271 2008.79 616.06 1999.07 626.445 2003.93 642.023 2003.93 652.408 2006.36 655.005 2006.36 655.005 2006.36 655.005 2008.79 673.179 2008.79 673.179 2008.79 673.179 2008.79 688.757 2011.21 701.738 2008.79 727.702 2008.79 735.491 2008.79 735.491 2008.79 735.491 2008.79 748.472 2008.79 766.647 1999.07 766.647 1996.64 766.647 1996.64 766.647 1996.64 766.647 1991.79 761.454 1991.79 745.876 1991.79 730.298 1994.21 691.353 1994.21 691.353 1994.21 691.353 1994.21 675.775 1994.21 605.674 1948.07 600.482 1938.36 600.482 1928.64 603.078 1921.36 610.867 1904.36 626.445 1904.36 662.794 1906.79 680.968 1906.79 686.16 1906.79 686.16 1906.79 686.16 1904.36 761.454 1904.36 784.821 1901.93 792.61 1901.93 795.206 1899.5 797.803 1897.07 800.399 1897.07 800.399 1892.21 800.399 1889.79 800.399 1887.36 800.399 1884.93 797.803 1884.93 797.803 1882.5 795.206 1882.5 790.014 1882.5 787.417 1884.93 774.436 1884.93 680.968 1884.93 642.023 1884.93 631.638 1884.93 613.463 1872.79 600.482 1865.5 592.693 1855.79 587.5 1841.21 587.5 1799.93 587.5 1799.93 587.5 1799.93 587.5 1785.36 587.5 1773.21 592.693 1765.93 600.482Z" stroke="#333333" stroke-width="3.4375" stroke-linecap="round" stroke-linejoin="round" stroke-miterlimit="10" fill="none" fill-rule="evenodd"/><path d="M2122.2 652.3C2114.91 647.1 2114.91 657.5 2114.91 662.7 2117.34 701.7 2124.63 725.1 2119.77 743.3 2117.34 758.9 2110.05 764.1 2100.34 764.1 2093.05 764.1 2085.76 758.9 2083.33 732.9 2080.9 709.5 2085.76 696.5 2083.33 665.3 2083.33 626.3 2051.75 621.1 2044.47 618.5 1991.03 602.9 2010.46 647.1 2010.46 654.9 2012.89 680.9 2015.32 693.9 2012.89 727.7 2012.89 748.5 2012.89 771.9 1998.31 771.9 1986.17 771.9 1986.17 753.7 1986.17 730.3 1988.6 717.3 1988.6 704.3 1988.6 691.3 1988.6 678.3 1988.6 610.7 1947.3 605.5 1906.01 602.9 1910.87 667.9 1910.87 686.1 1908.44 732.9 1908.44 779.7 1906.01 792.7 1906.01 803.1 1896.29 808.3 1889 805.7 1881.72 805.7 1874.43 795.3 1876.86 787.5 1879.29 777.1 1879.29 706.9 1879.29 641.9 1879.29 631.5 1881.72 592.5 1840.42 592.5 1828.28 592.5 1813.7 592.5 1799.13 592.5 1752.97 592.5 1757.83 636.7 1757.83 636.7 1757.83 636.7 1767.55 699.1 1743.26 699.1 1718.97 699.1 1728.68 657.5 1728.68 634.1 1728.68 595.1 1670.38 592.5 1670.38 639.3 1670.38 688.7 1667.96 748.5 1667.96 753.7 1667.96 761.5 1660.67 769.3 1653.38 769.3 1646.09 769.3 1641.24 761.5 1641.24 751.1 1641.24 751.1 1643.66 680.9 1643.66 626.3 1643.66 621.1 1641.24 608.1 1626.66 615.9 1580.51 634.1 1551.36 665.3 1548.93 719.9 1546.5 748.5 1551.36 771.9 1561.07 790.1 1570.79 805.7 1592.65 810.9 1592.65 782.3 1592.65 751.1 1592.65 719.9 1592.65 717.3 1592.65 709.5 1597.51 701.7 1607.23 701.7 1614.51 701.7 1621.8 709.5 1621.8 717.3 1621.8 743.3 1624.23 790.1 1624.23 818.7 1624.23 823.9 1624.23 849.9 1655.81 849.9 1687.39 849.9 1692.25 823.9 1692.25 823.9 1692.25 795.3 1692.25 756.3 1689.82 725.1 1689.82 714.7 1694.68 704.3 1704.39 704.3 1711.68 704.3 1714.11 714.7 1716.54 725.1 1716.54 756.3 1716.54 805.7 1716.54 836.9 1716.54 865.5 1745.69 860.3 1745.69 839.5 1745.69 821.3 1743.26 797.9 1743.26 797.9 1745.69 787.5 1743.26 769.3 1762.69 769.3 1784.55 769.3 1772.41 808.3 1772.41 834.3 1772.41 847.3 1779.69 857.7 1786.98 860.3 1799.13 860.3 1799.13 847.3 1799.13 839.5 1799.13 792.7 1791.84 719.9 1794.27 691.3 1794.27 665.3 1803.99 654.9 1811.27 654.9 1820.99 654.9 1830.71 660.1 1833.13 688.7 1837.99 712.1 1830.71 777.1 1830.71 823.9 1830.71 831.7 1830.71 865.5 1879.29 865.5 1930.3 865.5 1932.73 826.5 1932.73 816.1 1932.73 774.5 1935.16 722.5 1935.16 701.7 1935.16 693.9 1942.44 686.1 1949.73 686.1 1957.02 686.1 1964.31 693.9 1964.31 701.7 1964.31 725.1 1964.31 777.1 1961.88 818.7 1961.88 829.1 1959.45 862.9 1998.31 862.9 2039.61 862.9 2034.75 823.9 2037.18 816.1 2037.18 797.9 2037.18 777.1 2034.75 756.3 2034.75 748.5 2042.04 740.7 2049.32 740.7 2059.04 740.7 2066.33 745.9 2066.33 756.3 2066.33 782.3 2066.33 813.5 2066.33 834.3 2066.33 842.1 2068.76 852.5 2080.9 847.3 2127.06 834.3 2161.06 810.9 2175.64 774.5 2197.5 719.9 2173.21 680.9 2122.2 652.3Z" stroke="#FFFFFF" stroke-width="3.4375" stroke-linecap="round" stroke-linejoin="round" stroke-miterlimit="10" fill="none" fill-rule="evenodd"/></g></svg>