<svg width="730" height="360" xmlns="http://www.w3.org/2000/svg" xmlns:xlink="http://www.w3.org/1999/xlink" xml:space="preserve" overflow="hidden"><g transform="translate(-2937 -560)"><path d="M2941.14 718.059C2929 881.118 3016.38 896.647 3164.44 907 3288.23 914.765 3589.21 951 3652.32 793.118 3713 637.824 3518.82 575.706 3322.21 567.941 3137.74 557.588 2953.27 555 2941.14 718.059Z" fill="#2FA78F" fill-rule="evenodd"/><path d="M3319.69 584.341C3484.63 592.096 3598.64 630.874 3635.02 692.919 3652 721.356 3652 752.378 3637.45 788.57 3584.08 923 3322.12 902.318 3195.99 894.563 3164.45 891.978 3164.45 891.978 3164.45 891.978 3077.13 884.222 3011.64 879.052 2977.68 837.689 2958.28 814.422 2951 775.644 2955.85 721.356 2955.85 721.356 2955.85 721.356 2955.85 721.356 2967.98 576.585 3120.79 574 3319.69 584.341Z" fill="#85D8DD" fill-rule="evenodd"/><path d="M3551.93 663.581C3544.66 658.4 3544.66 668.762 3544.66 673.943 3547.09 712.8 3554.35 736.114 3549.51 754.247 3547.09 769.79 3539.82 774.971 3530.13 774.971 3522.87 774.971 3515.6 769.79 3513.18 743.886 3510.76 720.571 3515.6 707.619 3513.18 676.533 3513.18 637.676 3481.7 632.495 3474.44 629.905 3421.16 614.362 3440.53 658.4 3440.53 666.171 3442.96 692.076 3445.38 705.028 3442.96 738.705 3442.96 759.428 3442.96 782.743 3428.43 782.743 3416.32 782.743 3416.32 764.609 3416.32 741.295 3418.74 728.343 3418.74 715.39 3418.74 702.438 3418.74 689.486 3418.74 622.133 3377.57 616.952 3336.4 614.362 3341.25 679.124 3341.25 697.257 3338.82 743.886 3338.82 790.514 3336.4 803.467 3336.4 813.828 3326.72 819.009 3319.45 816.419 3312.19 816.419 3304.92 806.057 3307.34 798.286 3309.76 787.924 3309.76 717.981 3309.76 653.219 3309.76 642.857 3312.19 604 3271.02 604 3258.91 604 3244.38 604 3229.85 604 3183.84 604 3188.68 648.038 3188.68 648.038 3188.68 648.038 3198.37 710.209 3174.15 710.209 3149.94 710.209 3159.62 668.762 3159.62 645.448 3159.62 606.59 3101.5 604 3101.5 650.628 3101.5 699.848 3099.08 759.428 3099.08 764.609 3099.08 772.381 3091.82 780.152 3084.55 780.152 3077.29 780.152 3072.44 772.381 3072.44 762.019 3072.44 762.019 3074.87 692.076 3074.87 637.676 3074.87 632.495 3072.44 619.543 3057.91 627.314 3011.9 645.448 2982.84 676.533 2980.42 730.933 2978 759.428 2982.84 782.743 2992.53 800.876 3002.22 816.419 3024.01 821.6 3024.01 793.105 3024.01 762.019 3024.01 730.933 3024.01 728.343 3024.01 720.571 3028.85 712.8 3038.54 712.8 3045.81 712.8 3053.07 720.571 3053.07 728.343 3053.07 754.247 3055.49 800.876 3055.49 829.371 3055.49 834.552 3055.49 860.457 3086.97 860.457 3118.46 860.457 3123.3 834.552 3123.3 834.552 3123.3 806.057 3123.3 767.2 3120.88 736.114 3120.88 725.752 3125.72 715.39 3135.41 715.39 3142.67 715.39 3145.09 725.752 3147.51 736.114 3147.51 767.2 3147.51 816.419 3147.51 847.505 3147.51 876 3176.57 870.819 3176.57 850.095 3176.57 831.962 3174.15 808.647 3174.15 808.647 3176.57 798.286 3174.15 780.152 3193.53 780.152 3215.32 780.152 3203.21 819.009 3203.21 844.914 3203.21 857.867 3210.48 868.228 3217.74 870.819 3229.85 870.819 3229.85 857.867 3229.85 850.095 3229.85 803.467 3222.59 730.933 3225.01 702.438 3225.01 676.533 3234.69 666.171 3241.96 666.171 3251.65 666.171 3261.33 671.352 3263.75 699.848 3268.6 723.162 3261.33 787.924 3261.33 834.552 3261.33 842.324 3261.33 876 3309.76 876 3360.62 876 3363.04 837.143 3363.04 826.781 3363.04 785.333 3365.46 733.524 3365.46 712.8 3365.46 705.028 3372.73 697.257 3379.99 697.257 3387.26 697.257 3394.52 705.028 3394.52 712.8 3394.52 736.114 3394.52 787.924 3392.1 829.371 3392.1 839.733 3389.68 873.409 3428.43 873.409 3469.59 873.409 3464.75 834.552 3467.17 826.781 3467.17 808.647 3467.17 787.924 3464.75 767.2 3464.75 759.428 3472.01 751.657 3479.28 751.657 3488.97 751.657 3496.23 756.838 3496.23 767.2 3496.23 793.105 3496.23 824.19 3496.23 844.914 3496.23 852.686 3498.65 863.047 3510.76 857.867 3556.77 844.914 3590.68 821.6 3605.21 785.333 3627 730.933 3602.78 692.076 3551.93 663.581Z" fill="#33B98A" fill-rule="evenodd"/><path d="M3101.66 650.561C3101.66 681.732 3101.66 718.098 3099.23 741.476 3101.66 738.878 3101.66 738.878 3101.66 736.28 3104.08 746.671 3104.08 754.463 3099.23 764.854 3099.23 764.854 3099.23 764.854 3099.23 764.854 3099.23 772.646 3091.96 780.439 3084.69 780.439 3082.26 780.439 3079.84 777.841 3079.84 777.841 3079.84 777.841 3079.84 777.841 3079.84 777.841 3082.26 780.439 3082.26 783.036 3082.26 783.036 3082.26 783.036 3082.26 783.036 3082.26 783.036 3082.26 783.036 3082.26 783.036 3082.26 783.036 3084.69 785.634 3084.69 785.634 3087.11 785.634 3087.11 785.634 3089.53 783.036 3089.53 780.439 3113.78 770.049 3116.21 723.293 3116.21 699.915 3116.21 684.329 3116.21 671.341 3121.05 658.354 3123.48 650.561 3123.48 640.171 3130.75 634.976 3135.6 632.378 3147.73 627.183 3155 629.781 3140.45 609 3101.66 611.598 3101.66 650.561ZM3058.01 627.183C3011.95 645.366 2982.85 676.537 2980.42 731.085 2978 759.659 2982.85 783.036 2992.55 801.219 3002.25 816.805 3024.07 822 3024.07 793.427 3024.07 777.841 3024.07 764.854 3024.07 751.866 3021.64 746.671 3019.22 741.476 3016.79 736.28 3014.37 731.085 3009.52 723.293 3009.52 718.098 3009.52 712.902 3014.37 705.11 3016.79 699.915 3024.07 689.524 3038.62 676.537 3050.74 676.537 3055.59 676.537 3062.86 679.134 3065.29 684.329 3070.14 692.122 3067.71 697.317 3070.14 705.11 3074.99 733.683 3074.99 733.683 3074.99 733.683 3074.99 707.707 3074.99 668.744 3074.99 637.573 3074.99 632.378 3072.56 619.39 3058.01 627.183Z" fill="#31966F" fill-rule="evenodd"/><path d="M3091.67 811.174C3094 806.043 3094 800.913 3094 793.217 3094 782.956 3101 775.261 3101 765 3098.67 765 3098.67 765 3098.67 765 3098.67 772.695 3091.67 780.391 3084.67 780.391 3082.33 780.391 3082.33 777.826 3080 777.826 3082.33 782.956 3084.67 785.522 3084.67 790.652 3089.33 800.913 3089.33 813.739 3084.67 824 3089.33 821.435 3089.33 816.304 3091.67 811.174Z" fill="#31966F" fill-rule="evenodd"/><path d="M3099.14 844.667C3094.29 844.667 3089.43 844.667 3082.14 842.111 3074.86 842.111 3065.14 837 3060.29 831.889 3053 819.111 3057.86 803.778 3055.43 791 3055.43 793.555 3055.43 793.555 3055.43 793.555 3055.43 806.333 3055.43 819.111 3055.43 829.333 3055.43 834.444 3055.43 860 3087 860 3106.43 860 3116.14 852.333 3118.57 842.111 3121 834.444 3121 826.778 3121 819.111 3121 829.333 3108.86 842.111 3099.14 844.667Z" fill="#31966F" fill-rule="evenodd"/><path d="M3157.31 785.237C3157.31 772.271 3157.31 761.898 3154.85 748.932 3154.85 738.559 3152.38 730.78 3145 723 3145 725.593 3145 725.593 3145 725.593 3145 728.186 3147.46 730.78 3147.46 735.966 3147.46 767.085 3147.46 816.356 3147.46 847.474 3147.46 876 3177 870.813 3177 850.068 3177 844.881 3177 837.102 3177 829.322 3159.77 824.135 3157.31 800.796 3157.31 785.237Z" fill="#31966F" fill-rule="evenodd"/><path d="M3212.82 793.727C3210.36 788.576 3207.91 786 3203 786 3210.36 796.303 3203 824.636 3203 845.243 3203 858.121 3210.36 868.424 3217.73 871 3230 871 3230 858.121 3230 850.394 3230 845.243 3230 842.667 3230 837.515 3227.55 837.515 3227.55 837.515 3227.55 837.515 3210.36 829.788 3217.73 809.182 3212.82 793.727Z" fill="#31966F" fill-rule="evenodd"/><path d="M3176.65 723.079C3171.81 717.905 3169.39 712.73 3169.39 707.556 3152.45 702.381 3159.71 666.159 3159.71 645.46 3159.71 629.937 3147.61 619.587 3135.52 617 3130.68 622.175 3128.26 627.349 3123.42 632.524 3121 635.111 3121 650.635 3121 655.81 3130.68 637.698 3135.52 640.286 3140.35 648.048 3147.61 655.81 3142.77 668.746 3145.19 679.095 3145.19 686.857 3147.61 699.794 3150.03 707.556 3152.45 715.318 3154.87 717.905 3159.71 723.079 3164.55 728.254 3166.97 736.016 3171.81 741.19 3174.23 746.365 3179.06 746.365 3183.9 751.54 3191.16 761.889 3188.74 769.651 3183.9 780 3193.58 772.238 3196 751.54 3188.74 738.603 3186.32 733.429 3181.48 728.254 3176.65 723.079Z" fill="#31966F" fill-rule="evenodd"/><path d="M3295.09 663.574C3297.51 679.115 3299.92 694.656 3299.92 710.197 3299.92 717.967 3302.34 728.328 3304.75 736.098 3304.75 746.459 3304.75 754.23 3304.75 762 3307.17 754.23 3307.17 749.049 3309.58 741.279 3309.58 715.377 3309.58 681.705 3309.58 653.213 3309.58 642.852 3312 604 3270.94 604 3258.87 604 3244.38 604 3229.89 604 3184 604 3188.83 648.033 3188.83 648.033 3188.83 648.033 3193.66 673.934 3188.83 692.066 3193.66 697.246 3193.66 697.246 3193.66 697.246 3198.49 686.885 3203.32 679.115 3205.74 666.164 3205.74 653.213 3208.15 640.262 3215.4 632.492 3227.47 622.131 3249.21 627.311 3261.28 627.311 3280.6 629.902 3290.26 642.852 3295.09 663.574Z" fill="#31966F" fill-rule="evenodd"/><path d="M3309.48 876C3321.61 876 3331.3 873.408 3338.58 870.816 3341 863.041 3338.58 852.673 3338.58 847.49 3341 839.714 3341 831.939 3336.15 826.755 3333.73 821.571 3328.88 818.98 3324.03 816.388 3324.03 816.388 3324.03 816.388 3321.61 816.388 3321.61 821.571 3321.61 826.755 3321.61 829.347 3319.18 834.531 3316.76 839.714 3314.33 842.306 3309.48 850.082 3294.94 850.082 3285.24 844.898 3275.55 837.122 3273.12 824.163 3270.7 813.796 3268.27 793.061 3265.85 769.735 3265.85 749 3263.42 754.184 3263.42 754.184 3263.42 754.184 3263.42 780.102 3261 808.612 3261 834.531 3261 842.306 3261 876 3309.48 876Z" fill="#31966F" fill-rule="evenodd"/><path d="M3414.18 725.845C3414.18 723.267 3416.59 720.689 3419 715.533 3419 712.956 3419 707.8 3419 702.645 3419 689.756 3419 622.733 3378 617.578 3337 615 3341.82 679.445 3341.82 697.489 3341.82 707.8 3341.82 715.533 3339.41 723.267 3344.24 731 3344.24 731 3344.24 731 3349.06 707.8 3346.65 648.511 3380.41 656.244 3392.47 658.822 3402.12 669.133 3406.94 679.445 3411.76 692.333 3416.59 710.378 3414.18 725.845Z" fill="#31966F" fill-rule="evenodd"/><path d="M3356 661.428C3358.43 661.428 3360.87 661.428 3365.74 661.428 3373.04 661.428 3373.04 664 3377.91 669.143 3385.22 682 3382.78 687.143 3377.91 700 3385.22 694.857 3387.65 689.714 3390.09 679.428 3390.09 669.143 3397.39 664 3407.13 671.714 3412 658.857 3385.22 646 3375.48 646" fill="#31966F" fill-rule="evenodd"/><path d="M3513.56 677.118C3513.56 638.294 3481.9 633.118 3474.59 630.529 3421 615 3440.49 659 3440.49 666.765 3442.92 687.471 3445.36 700.412 3445.36 726.294 3447.79 747 3447.79 747 3447.79 747 3447.79 736.647 3450.23 726.294 3452.67 715.941 3455.1 703 3455.1 690.059 3459.97 679.706 3464.85 666.765 3474.59 669.353 3481.9 677.118 3491.64 682.294 3498.95 684.882 3503.82 695.235 3503.82 703 3506.26 708.176 3508.69 715.941 3508.69 721.118 3506.26 731.471 3508.69 736.647 3511.13 734.059 3511.13 734.059 3513.56 731.471 3513.56 715.941 3516 700.412 3513.56 677.118Z" fill="#31966F" fill-rule="evenodd"/><path d="M3552.28 664.147C3545.05 659 3545.05 669.295 3545.05 674.443 3547.46 713.049 3554.69 736.213 3549.87 754.229 3547.46 769.672 3540.23 774.82 3533 774.82 3533 777.393 3533 777.393 3533 777.393 3537.82 779.967 3549.87 774.82 3554.69 772.246 3566.74 761.951 3564.33 746.508 3581.21 751.656 3593.26 754.229 3602.9 769.672 3602.9 782.541 3600.49 787.689 3598.08 792.836 3595.67 797.984 3593.26 803.131 3588.44 810.852 3586.03 816 3595.67 805.705 3600.49 795.41 3605.31 785.115 3627 731.066 3602.9 692.459 3552.28 664.147Z" fill="#31966F" fill-rule="evenodd"/><path d="M3508.92 782.353C3516.17 790.118 3525.83 790.118 3533.08 795.294 3537.92 800.471 3545.17 808.235 3540.33 816 3550 805.647 3540.33 784.941 3530.67 777.177 3530.67 774.588 3530.67 774.588 3530.67 774.588 3523.42 774.588 3516.17 766.824 3513.75 743.529 3513.75 738.353 3513.75 733.177 3513.75 728 3504.08 748.706 3492 769.412 3508.92 782.353Z" fill="#31966F" fill-rule="evenodd"/><path d="M3508.92 806.263C3511.31 801.105 3511.31 793.368 3516.08 790.789 3520.85 790.789 3523.23 793.368 3525.62 793.368 3508.92 765 3508.92 765 3508.92 765 3504.15 765 3499.38 767.579 3497 772.737 3497 798.526 3497 824.316 3497 844.947 3497 852.684 3499.38 863 3511.31 857.842 3516.08 857.842 3523.23 855.263 3528 852.684 3513.69 842.369 3506.54 826.895 3508.92 806.263Z" fill="#31966F" fill-rule="evenodd"/><path d="M3443.56 822C3443.56 814.167 3446 808.944 3441.13 801.111 3438.69 795.889 3436.25 790.667 3431.38 785.444 3431.38 782.833 3431.38 782.833 3431.38 782.833 3431.38 782.833 3431.38 782.833 3428.94 782.833 3416.75 782.833 3416.75 764.556 3416.75 741.056 3416.75 735.833 3419.19 730.611 3419.19 728 3414.31 735.833 3409.44 746.278 3409.44 756.722 3407 767.167 3407 790.667 3416.75 798.5 3428.94 806.333 3443.56 803.722 3443.56 822Z" fill="#31966F" fill-rule="evenodd"/><path d="M3428.71 873C3457.74 873 3465 852.333 3465 839.417 3457.74 849.75 3448.06 854.917 3435.97 854.917 3421.45 852.333 3414.19 849.75 3409.35 834.25 3402.1 818.75 3397.26 800.667 3397.26 780 3397.26 772.25 3394.84 759.333 3397.26 749 3394.84 749 3394.84 749 3394.84 749 3394.84 772.25 3394.84 803.25 3392.42 829.083 3392.42 839.417 3390 873 3428.71 873Z" fill="#31966F" fill-rule="evenodd"/><path d="M2941.14 718.059C2929 881.118 3016.38 896.647 3164.44 907 3288.23 914.765 3589.21 951 3652.32 793.118 3713 637.824 3518.82 575.706 3322.21 567.941 3137.74 557.588 2953.27 555 2941.14 718.059Z" stroke="#333333" stroke-width="6.30226" stroke-linecap="round" stroke-linejoin="round" stroke-miterlimit="10" fill="none" fill-rule="evenodd"/><path d="M3319.69 584.341C3484.63 592.096 3598.64 630.874 3635.02 692.919 3652 721.356 3652 752.378 3637.45 788.57 3584.08 923 3322.12 902.318 3195.99 894.563 3164.45 891.978 3164.45 891.978 3164.45 891.978 3077.13 884.222 3011.64 879.052 2977.68 837.689 2958.28 814.422 2951 775.644 2955.85 721.356 2955.85 721.356 2955.85 721.356 2955.85 721.356 2967.98 576.585 3120.79 574 3319.69 584.341Z" stroke="#FFFFFF" stroke-width="6.30226" stroke-linecap="round" stroke-linejoin="round" stroke-miterlimit="10" fill="none" fill-rule="evenodd"/><path d="M3320.5 816.5C3339.17 819.136 3341.5 832.318 3341.5 845.5" stroke="#FFFFFF" stroke-width="2.86476" stroke-linecap="round" stroke-linejoin="round" stroke-miterlimit="10" fill="none" fill-rule="evenodd"/><path d="M3424.5 780.5C3444.06 790.9 3446.5 806.5 3446.5 819.5" stroke="#FFFFFF" stroke-width="2.86476" stroke-linecap="round" stroke-linejoin="round" stroke-miterlimit="10" fill="none" fill-rule="evenodd"/><path d="M3526.5 775.5C3545.17 791.1 3547.5 796.3 3542.83 814.5" stroke="#FFFFFF" stroke-width="2.86476" stroke-linecap="round" stroke-linejoin="round" stroke-miterlimit="10" fill="none" fill-rule="evenodd"/><path d="M3075.5 775.5C3092.5 793.437 3085.21 806.25 3085.21 816.5" stroke="#FFFFFF" stroke-width="2.86476" stroke-linecap="round" stroke-linejoin="round" stroke-miterlimit="10" fill="none" fill-rule="evenodd"/><path d="M3164.5 703.5C3174.35 724.25 3191.58 734.625 3194.04 752.781 3196.5 765.75 3194.04 776.125 3181.73 786.5" stroke="#FFFFFF" stroke-width="2.86476" stroke-linecap="round" stroke-linejoin="round" stroke-miterlimit="10" fill="none" fill-rule="evenodd"/><path d="M3235.5 666.5C3247.38 666.5 3254.5 661.357 3254.5 648.5" stroke="#FFFFFF" stroke-width="2.86476" stroke-linecap="round" stroke-linejoin="round" stroke-miterlimit="10" fill="none" fill-rule="evenodd"/><path d="M3370.5 700.5C3383 697.875 3390.5 692.625 3390.5 679.5" stroke="#FFFFFF" stroke-width="2.86476" stroke-linecap="round" stroke-linejoin="round" stroke-miterlimit="10" fill="none" fill-rule="evenodd"/><path d="M3196.28 611.936C3181.72 627.459 3184.15 648.156 3184.15 650.743 3186.57 661.092 3189 692.138 3179.29 702.486 3179.29 702.486 3176.87 705.074 3174.44 705.074 3172.01 705.074 3169.58 702.486 3167.16 702.486 3162.3 694.725 3162.3 676.615 3164.73 661.092 3164.73 645.569 3164.73 645.569 3164.73 645.569 3164.73 622.285 3147.74 611.936 3130.75 611.936 3121.04 611.936 3113.76 614.523 3106.48 619.697 3099.2 627.459 3096.78 637.807 3096.78 650.743 3094.35 764.578 3094.35 764.578 3094.35 764.578 3094.35 769.752 3089.49 774.927 3084.64 774.927 3082.21 774.927 3077.36 774.927 3077.36 761.991 3077.36 761.991 3079.79 692.138 3079.79 637.807 3079.79 630.046 3074.93 624.872 3072.51 622.285 3067.65 619.697 3062.8 619.697 3055.52 622.285 3004.55 642.982 2977.85 679.202 2975.43 730.945 2973 759.404 2977.85 782.688 2989.99 803.385 2994.84 813.734 3006.98 821.495 3016.69 818.908 3021.54 816.321 3028.82 811.147 3028.82 793.037 3028.82 728.358 3028.82 728.358 3028.82 728.358 3028.82 723.184 3031.25 718.009 3038.53 718.009 3043.38 718.009 3048.24 723.184 3048.24 728.358 3050.66 829.257 3050.66 829.257 3050.66 829.257 3050.66 852.541 3062.8 865.477 3087.07 865.477 3121.04 865.477 3128.33 839.606 3128.33 834.431 3125.9 736.119 3125.9 736.119 3125.9 736.119 3125.9 728.358 3130.75 720.596 3135.61 720.596 3138.03 720.596 3140.46 728.358 3142.89 736.119 3142.89 847.367 3142.89 847.367 3142.89 847.367 3142.89 855.129 3145.31 860.303 3147.74 865.477 3152.6 870.651 3155.02 873.239 3162.3 873.239 3172.01 873.239 3181.72 862.89 3181.72 849.954 3179.29 808.56 3179.29 808.56 3179.29 808.56 3179.29 805.973 3179.29 805.973 3179.29 805.973 3179.29 800.798 3179.29 793.037 3184.15 787.862 3186.57 787.862 3189 785.275 3193.85 785.275 3198.71 785.275 3198.71 787.862 3198.71 787.862 3203.56 793.037 3203.56 811.147 3201.13 824.083 3198.71 844.78 3198.71 844.78 3198.71 844.78 3198.71 860.303 3205.99 870.651 3218.12 873.239 3222.98 875.826 3227.83 873.239 3230.26 870.651 3232.69 868.064 3235.11 860.303 3235.11 849.954 3235.11 826.67 3232.69 798.211 3232.69 772.34 3230.26 743.881 3227.83 718.009 3230.26 702.486 3230.26 679.202 3237.54 671.44 3242.39 671.44 3254.53 671.44 3259.38 686.963 3259.38 699.899 3261.81 715.422 3259.38 751.642 3259.38 787.862 3256.96 831.844 3256.96 831.844 3256.96 831.844 3256.96 849.954 3261.81 860.303 3266.66 865.477 3276.37 875.826 3290.93 881 3310.35 881 3361.31 881 3368.6 842.193 3368.6 826.67 3371.02 712.835 3371.02 712.835 3371.02 712.835 3371.02 707.661 3375.88 702.486 3380.73 702.486 3385.58 702.486 3390.44 707.661 3390.44 712.835 3388.01 829.257 3388.01 829.257 3388.01 829.257 3388.01 831.844 3388.01 831.844 3388.01 831.844 3388.01 839.606 3388.01 855.129 3397.72 865.477 3405 873.239 3414.71 878.413 3429.27 878.413 3443.83 878.413 3453.54 873.239 3460.82 865.477 3472.96 855.129 3472.96 837.018 3472.96 829.257 3470.53 767.165 3470.53 767.165 3470.53 767.165 3470.53 761.991 3475.38 756.817 3480.24 756.817 3485.09 756.817 3487.52 756.817 3487.52 759.404 3489.94 761.991 3492.37 764.578 3492.37 767.165 3492.37 793.037 3492.37 824.083 3492.37 844.78 3492.37 849.954 3492.37 857.716 3499.65 862.89 3502.08 862.89 3506.93 865.477 3514.21 862.89 3565.18 847.367 3596.73 821.495 3611.29 787.862 3616.15 774.927 3618.57 761.991 3618.57 749.055 3618.57 712.835 3599.16 681.789 3555.47 658.505 3550.62 655.918 3548.19 655.918 3545.76 658.505 3540.91 661.092 3540.91 671.44 3540.91 674.028 3543.34 715.422 3543.34 715.422 3543.34 715.422 3545.76 730.945 3548.19 743.881 3545.76 751.642 3543.34 769.752 3538.48 769.752 3531.2 769.752 3528.78 769.752 3521.49 769.752 3519.07 743.881 3516.64 730.945 3519.07 723.184 3519.07 710.248 3519.07 676.615 3519.07 676.615 3519.07 676.615 3516.64 637.807 3487.52 627.459 3477.81 624.872 3475.38 624.872 3475.38 624.872 3475.38 624.872 3458.39 619.697 3446.26 619.697 3438.98 627.459 3429.27 637.807 3434.12 653.33 3434.12 663.679 3436.55 666.266 3436.55 666.266 3436.55 666.266 3438.98 684.376 3438.98 684.376 3438.98 684.376 3438.98 699.899 3441.4 712.835 3438.98 738.707 3438.98 746.468 3438.98 746.468 3438.98 746.468 3438.98 759.404 3438.98 777.514 3429.27 777.514 3426.84 777.514 3426.84 777.514 3426.84 777.514 3421.99 772.34 3421.99 756.817 3421.99 741.294 3424.42 702.486 3424.42 702.486 3424.42 702.486 3424.42 686.963 3424.42 617.11 3378.3 611.936 3368.6 611.936 3358.89 614.523 3351.61 622.285 3334.62 637.807 3334.62 674.028 3337.04 692.138 3337.04 697.312 3337.04 697.312 3337.04 697.312 3334.62 772.34 3334.62 795.624 3332.19 803.385 3332.19 805.973 3329.76 808.56 3327.34 811.147 3327.34 811.147 3322.48 811.147 3320.06 811.147 3317.63 811.147 3315.2 808.56 3315.2 808.56 3312.78 805.973 3312.78 800.798 3312.78 798.211 3315.2 785.275 3315.2 692.138 3315.2 653.33 3315.2 642.982 3315.2 624.872 3303.07 611.936 3295.79 604.174 3286.08 599 3271.52 599 3230.26 599 3230.26 599 3230.26 599 3215.7 599 3203.56 604.174 3196.28 611.936ZM3189 707.661C3201.13 692.138 3196.28 653.33 3193.85 648.156 3193.85 648.156 3193.85 630.046 3203.56 619.697 3208.42 611.936 3218.12 609.349 3230.26 609.349 3271.52 609.349 3271.52 609.349 3271.52 609.349 3283.65 609.349 3290.93 611.936 3298.21 619.697 3305.49 627.459 3305.49 645.569 3305.49 650.743 3305.49 733.532 3305.49 787.862 3303.07 798.211 3303.07 803.385 3303.07 808.56 3305.49 813.734 3310.35 818.908 3312.78 821.495 3320.06 821.495 3324.91 824.083 3329.76 821.495 3334.62 818.908 3339.47 816.321 3341.9 811.147 3341.9 805.973 3344.33 793.037 3344.33 759.404 3346.75 697.312 3346.75 692.138 3346.75 692.138 3346.75 692.138 3344.33 676.615 3344.33 642.982 3358.89 627.459 3363.74 624.872 3368.6 622.285 3378.3 622.285 3414.71 624.872 3414.71 689.551 3414.71 702.486 3412.28 738.707 3412.28 738.707 3412.28 738.707 3412.28 759.404 3412.28 774.927 3419.56 782.688 3421.99 787.862 3426.84 787.862 3429.27 787.862 3446.26 787.862 3448.69 764.578 3448.69 746.468 3448.69 738.707 3448.69 738.707 3448.69 738.707 3451.11 712.835 3448.69 697.312 3448.69 681.789 3446.26 666.266 3446.26 666.266 3446.26 666.266 3443.83 661.092 3443.83 661.092 3443.83 661.092 3443.83 653.33 3438.98 640.395 3443.83 635.22 3448.69 630.046 3458.39 630.046 3472.96 635.22 3475.38 635.22 3475.38 635.22 3475.38 635.22 3485.09 637.807 3509.36 645.569 3509.36 676.615 3509.36 710.248 3509.36 710.248 3509.36 710.248 3509.36 720.596 3506.93 730.945 3509.36 743.881 3509.36 759.404 3514.21 780.101 3531.2 780.101 3545.76 780.101 3550.62 772.34 3555.47 754.229 3555.47 751.642 3555.47 746.468 3555.47 741.294 3555.47 733.532 3555.47 725.771 3553.04 712.835 3550.62 674.028 3550.62 674.028 3550.62 674.028 3550.62 671.44 3550.62 671.44 3550.62 671.44 3550.62 668.853 3550.62 666.266 3550.62 666.266 3553.04 666.266 3553.04 666.266 3553.04 666.266 3553.04 666.266 3553.04 666.266 3553.04 666.266 3604.01 697.312 3621 736.119 3604.01 782.688 3589.45 816.321 3557.9 839.606 3511.79 852.541 3506.93 855.129 3504.51 855.129 3504.51 852.541 3502.08 852.541 3502.08 847.367 3502.08 844.78 3502.08 824.083 3502.08 793.037 3502.08 767.165 3502.08 759.404 3499.65 754.229 3494.8 751.642 3492.37 749.055 3485.09 746.468 3480.24 746.468 3475.38 746.468 3470.53 749.055 3468.1 751.642 3463.25 756.817 3460.82 761.991 3460.82 767.165 3463.25 829.257 3463.25 829.257 3463.25 829.257 3463.25 837.018 3463.25 849.954 3453.54 860.303 3448.69 865.477 3441.4 868.064 3429.27 868.064 3417.13 868.064 3409.85 865.477 3405 860.303 3397.72 852.541 3397.72 839.606 3397.72 831.844 3397.72 829.257 3397.72 829.257 3397.72 829.257 3400.15 712.835 3400.15 712.835 3400.15 712.835 3400.15 702.486 3390.44 692.138 3380.73 692.138 3368.6 692.138 3361.31 702.486 3361.31 712.835 3358.89 826.67 3358.89 826.67 3358.89 826.67 3358.89 842.193 3351.61 870.651 3310.35 870.651 3293.36 870.651 3281.22 865.477 3273.94 857.716 3269.09 852.541 3266.66 844.78 3266.66 834.431 3269.09 787.862 3269.09 787.862 3269.09 787.862 3269.09 751.642 3271.52 715.422 3269.09 697.312 3266.66 666.266 3252.1 661.092 3242.39 661.092 3235.11 661.092 3220.55 666.266 3220.55 702.486 3218.12 718.009 3220.55 743.881 3222.98 772.34 3222.98 798.211 3225.4 826.67 3225.4 849.954 3225.4 860.303 3222.98 862.89 3222.98 862.89 3220.55 865.477 3220.55 865.477 3220.55 865.477 3213.27 862.89 3208.42 855.129 3208.42 844.78 3210.84 824.083 3210.84 824.083 3210.84 824.083 3213.27 805.973 3215.7 790.45 3205.99 780.101 3203.56 777.514 3198.71 774.927 3193.85 774.927 3186.57 774.927 3181.72 777.514 3176.87 782.688 3169.58 787.862 3169.58 798.211 3169.58 805.973 3169.58 808.56 3169.58 808.56 3169.58 808.56 3172.01 849.954 3172.01 849.954 3172.01 849.954 3172.01 857.716 3167.16 862.89 3162.3 862.89 3159.88 862.89 3157.45 860.303 3155.02 857.716 3152.6 855.129 3152.6 852.541 3152.6 847.367 3152.6 736.119 3152.6 736.119 3152.6 736.119 3150.17 728.358 3150.17 723.184 3147.74 718.009 3145.31 712.835 3140.46 710.248 3133.18 710.248 3123.47 710.248 3116.19 725.771 3116.19 736.119 3118.62 834.431 3118.62 834.431 3118.62 834.431 3118.62 834.431 3113.76 855.129 3087.07 855.129 3070.08 855.129 3060.37 847.367 3060.37 829.257 3057.94 728.358 3057.94 728.358 3057.94 728.358 3057.94 718.009 3048.24 707.661 3038.53 707.661 3026.39 707.661 3019.11 718.009 3019.11 730.945 3019.11 793.037 3019.11 793.037 3019.11 793.037 3019.11 798.211 3019.11 805.973 3014.26 808.56 3009.4 808.56 3002.12 805.973 2997.27 798.211 2987.56 780.101 2982.71 759.404 2985.13 730.945 2987.56 684.376 3009.4 653.33 3057.94 632.633 3062.8 630.046 3065.22 630.046 3067.65 630.046 3067.65 632.633 3070.08 635.22 3070.08 637.807 3070.08 692.138 3067.65 761.991 3067.65 761.991 3067.65 774.927 3074.93 785.275 3084.64 785.275 3096.78 785.275 3104.06 774.927 3104.06 764.578 3106.48 650.743 3106.48 650.743 3106.48 650.743 3106.48 640.395 3108.91 632.633 3113.76 627.459 3118.62 624.872 3123.47 622.285 3130.75 622.285 3142.89 622.285 3155.02 630.046 3155.02 645.569 3155.02 661.092 3155.02 661.092 3155.02 661.092 3152.6 679.202 3152.6 697.312 3159.88 707.661 3164.73 712.835 3169.58 715.422 3174.44 715.422 3179.29 715.422 3184.15 712.835 3189 707.661ZM3555.47 658.505C3555.47 658.505 3555.47 658.505 3555.47 658.505 3555.47 658.505 3555.47 658.505 3555.47 658.505 3555.47 658.505 3555.47 658.505 3555.47 658.505Z" fill="#C0CAE8" fill-rule="evenodd"/><path d="M3196.58 612.436C3182.03 627.959 3184.46 648.656 3184.46 651.243 3186.88 661.592 3189.31 692.638 3179.61 702.986 3179.61 702.986 3177.18 705.573 3174.76 705.573 3172.33 705.573 3169.91 702.986 3167.49 702.986 3162.64 695.225 3162.64 677.115 3165.06 661.592 3165.06 646.069 3165.06 646.069 3165.06 646.069 3165.06 622.784 3148.09 612.436 3131.11 612.436 3121.41 612.436 3114.14 615.023 3106.86 620.197 3099.59 627.959 3097.17 638.307 3097.17 651.243 3094.74 765.078 3094.74 765.078 3094.74 765.078 3094.74 770.252 3089.89 775.427 3085.04 775.427 3082.62 775.427 3077.77 775.427 3077.77 762.491 3077.77 762.491 3080.19 692.638 3080.19 638.307 3080.19 630.546 3075.34 625.372 3072.92 622.784 3068.07 620.197 3063.22 620.197 3055.94 622.784 3005.02 643.482 2978.35 679.702 2975.92 731.445 2973.5 759.904 2978.35 783.188 2990.47 803.885 2995.32 814.234 3007.45 821.995 3017.15 819.408 3022 816.821 3029.27 811.647 3029.27 793.537 3029.27 728.858 3029.27 728.858 3029.27 728.858 3029.27 723.683 3031.7 718.509 3038.97 718.509 3043.82 718.509 3048.67 723.683 3048.67 728.858 3051.09 829.757 3051.09 829.757 3051.09 829.757 3051.09 853.041 3063.22 865.977 3087.47 865.977 3121.41 865.977 3128.69 840.105 3128.69 834.931 3126.26 736.619 3126.26 736.619 3126.26 736.619 3126.26 728.858 3131.11 721.096 3135.96 721.096 3138.39 721.096 3140.81 728.858 3143.24 736.619 3143.24 847.867 3143.24 847.867 3143.24 847.867 3143.24 855.628 3145.66 860.803 3148.09 865.977 3152.94 871.151 3155.36 873.738 3162.64 873.738 3172.33 873.738 3182.03 863.39 3182.03 850.454 3179.61 809.06 3179.61 809.06 3179.61 809.06 3179.61 806.472 3179.61 806.472 3179.61 806.472 3179.61 801.298 3179.61 793.537 3184.46 788.362 3186.88 788.362 3189.31 785.775 3194.16 785.775 3199.01 785.775 3199.01 788.362 3199.01 788.362 3203.86 793.537 3203.86 811.647 3201.43 824.582 3199.01 845.28 3199.01 845.28 3199.01 845.28 3199.01 860.803 3206.28 871.151 3218.41 873.738 3223.26 876.326 3228.11 873.738 3230.53 871.151 3232.96 868.564 3235.38 860.803 3235.38 850.454 3235.38 827.17 3232.96 798.711 3232.96 772.839 3230.53 744.381 3228.11 718.509 3230.53 702.986 3230.53 679.702 3237.8 671.94 3242.65 671.94 3254.78 671.94 3259.63 687.463 3259.63 700.399 3262.05 715.922 3259.63 752.142 3259.63 788.362 3257.2 832.344 3257.2 832.344 3257.2 832.344 3257.2 850.454 3262.05 860.803 3266.9 865.977 3276.6 876.326 3291.15 881.5 3310.55 881.5 3361.47 881.5 3368.74 842.693 3368.74 827.17 3371.17 713.335 3371.17 713.335 3371.17 713.335 3371.17 708.161 3376.02 702.986 3380.87 702.986 3385.72 702.986 3390.57 708.161 3390.57 713.335 3388.14 829.757 3388.14 829.757 3388.14 829.757 3388.14 832.344 3388.14 832.344 3388.14 832.344 3388.14 840.105 3388.14 855.628 3397.84 865.977 3405.12 873.738 3414.82 878.913 3429.36 878.913 3443.91 878.913 3453.61 873.738 3460.89 865.977 3473.01 855.628 3473.01 837.518 3473.01 829.757 3470.59 767.665 3470.59 767.665 3470.59 767.665 3470.59 762.491 3475.44 757.316 3480.29 757.316 3485.14 757.316 3487.56 757.316 3487.56 759.904 3489.99 762.491 3492.41 765.078 3492.41 767.665 3492.41 793.537 3492.41 824.582 3492.41 845.28 3492.41 850.454 3492.41 858.215 3499.68 863.39 3502.11 863.39 3506.96 865.977 3514.23 863.39 3565.15 847.867 3596.68 821.995 3611.23 788.362 3616.08 775.427 3618.5 762.491 3618.5 749.555 3618.5 713.335 3599.1 682.289 3555.46 659.005 3550.61 656.417 3548.18 656.417 3545.76 659.005 3540.91 661.592 3540.91 671.94 3540.91 674.527 3543.33 715.922 3543.33 715.922 3543.33 715.922 3545.76 731.445 3548.18 744.381 3545.76 752.142 3543.33 770.252 3538.48 770.252 3531.21 770.252 3528.78 770.252 3521.51 770.252 3519.08 744.381 3516.66 731.445 3519.08 723.683 3519.08 710.748 3519.08 677.115 3519.08 677.115 3519.08 677.115 3516.66 638.307 3487.56 627.959 3477.86 625.372 3475.44 625.372 3475.44 625.372 3475.44 625.372 3458.46 620.197 3446.34 620.197 3439.06 627.959 3429.36 638.307 3434.21 653.83 3434.21 664.179 3436.64 666.766 3436.64 666.766 3436.64 666.766 3439.06 684.876 3439.06 684.876 3439.06 684.876 3439.06 700.399 3441.49 713.335 3439.06 739.206 3439.06 746.968 3439.06 746.968 3439.06 746.968 3439.06 759.904 3439.06 778.014 3429.36 778.014 3426.94 778.014 3426.94 778.014 3426.94 778.014 3422.09 772.839 3422.09 757.316 3422.09 741.794 3424.52 702.986 3424.52 702.986 3424.52 702.986 3424.52 687.463 3424.52 617.61 3378.44 612.436 3368.74 612.436 3359.05 615.023 3351.77 622.784 3334.8 638.307 3334.8 674.527 3337.22 692.638 3337.22 697.812 3337.22 697.812 3337.22 697.812 3334.8 772.839 3334.8 796.124 3332.37 803.885 3332.37 806.472 3329.95 809.06 3327.52 811.647 3327.52 811.647 3322.67 811.647 3320.25 811.647 3317.82 811.647 3315.4 809.06 3315.4 809.06 3312.97 806.472 3312.97 801.298 3312.97 798.711 3315.4 785.775 3315.4 692.638 3315.4 653.83 3315.4 643.482 3315.4 625.372 3303.27 612.436 3296 604.674 3286.3 599.5 3271.75 599.5 3230.53 599.5 3230.53 599.5 3230.53 599.5 3215.98 599.5 3203.86 604.674 3196.58 612.436Z" stroke="#333333" stroke-width="2.86476" stroke-linecap="round" stroke-linejoin="round" stroke-miterlimit="10" fill="none" fill-rule="evenodd"/><path d="M3552.43 664.081C3545.16 658.9 3545.16 669.262 3545.16 674.443 3547.59 713.3 3554.85 736.614 3550.01 754.748 3547.59 770.291 3540.32 775.472 3530.63 775.472 3523.37 775.472 3516.1 770.291 3513.68 744.386 3511.26 721.072 3516.1 708.119 3513.68 677.034 3513.68 638.176 3482.2 632.995 3474.94 630.405 3421.66 614.862 3441.03 658.9 3441.03 666.672 3443.46 692.576 3445.88 705.529 3443.46 739.205 3443.46 759.929 3443.46 783.243 3428.93 783.243 3416.82 783.243 3416.82 765.11 3416.82 741.795 3419.24 728.843 3419.24 715.891 3419.24 702.938 3419.24 689.986 3419.24 622.633 3378.07 617.453 3336.9 614.862 3341.75 679.624 3341.75 697.757 3339.32 744.386 3339.32 791.014 3336.9 803.967 3336.9 814.329 3327.22 819.51 3319.95 816.919 3312.69 816.919 3305.42 806.557 3307.84 798.786 3310.26 788.424 3310.26 718.481 3310.26 653.719 3310.26 643.357 3312.69 604.5 3271.52 604.5 3259.41 604.5 3244.88 604.5 3230.35 604.5 3184.34 604.5 3189.18 648.538 3189.18 648.538 3189.18 648.538 3198.87 710.71 3174.65 710.71 3150.44 710.71 3160.12 669.262 3160.12 645.948 3160.12 607.091 3102 604.5 3102 651.129 3102 700.348 3099.58 759.929 3099.58 765.11 3099.58 772.881 3092.32 780.652 3085.05 780.652 3077.79 780.652 3072.94 772.881 3072.94 762.519 3072.94 762.519 3075.37 692.576 3075.37 638.176 3075.37 632.995 3072.94 620.043 3058.41 627.814 3012.4 645.948 2983.34 677.034 2980.92 731.433 2978.5 759.929 2983.34 783.243 2993.03 801.376 3002.72 816.919 3024.51 822.1 3024.51 793.605 3024.51 762.519 3024.51 731.433 3024.51 728.843 3024.51 721.072 3029.35 713.3 3039.04 713.3 3046.31 713.3 3053.57 721.072 3053.57 728.843 3053.57 754.748 3055.99 801.376 3055.99 829.872 3055.99 835.052 3055.99 860.957 3087.47 860.957 3118.96 860.957 3123.8 835.052 3123.8 835.052 3123.8 806.557 3123.8 767.7 3121.38 736.614 3121.38 726.253 3126.22 715.891 3135.91 715.891 3143.17 715.891 3145.59 726.253 3148.01 736.614 3148.01 767.7 3148.01 816.919 3148.01 848.005 3148.01 876.5 3177.07 871.319 3177.07 850.595 3177.07 832.462 3174.65 809.148 3174.65 809.148 3177.07 798.786 3174.65 780.652 3194.03 780.652 3215.82 780.652 3203.71 819.51 3203.71 845.414 3203.71 858.367 3210.98 868.729 3218.24 871.319 3230.35 871.319 3230.35 858.367 3230.35 850.595 3230.35 803.967 3223.09 731.433 3225.51 702.938 3225.51 677.034 3235.19 666.672 3242.46 666.672 3252.15 666.672 3261.83 671.853 3264.25 700.348 3269.1 723.662 3261.83 788.424 3261.83 835.052 3261.83 842.824 3261.83 876.5 3310.26 876.5 3361.12 876.5 3363.54 837.643 3363.54 827.281 3363.54 785.833 3365.96 734.024 3365.96 713.3 3365.96 705.529 3373.23 697.757 3380.49 697.757 3387.76 697.757 3395.02 705.529 3395.02 713.3 3395.02 736.614 3395.02 788.424 3392.6 829.872 3392.6 840.233 3390.18 873.91 3428.93 873.91 3470.09 873.91 3465.25 835.052 3467.67 827.281 3467.67 809.148 3467.67 788.424 3465.25 767.7 3465.25 759.929 3472.51 752.157 3479.78 752.157 3489.47 752.157 3496.73 757.338 3496.73 767.7 3496.73 793.605 3496.73 824.691 3496.73 845.414 3496.73 853.186 3499.15 863.548 3511.26 858.367 3557.27 845.414 3591.18 822.1 3605.71 785.833 3627.5 731.433 3603.28 692.576 3552.43 664.081Z" stroke="#FFFFFF" stroke-width="2.86476" stroke-linecap="round" stroke-linejoin="round" stroke-miterlimit="10" fill="none" fill-rule="evenodd"/></g></svg>