<svg width="77" height="82" xmlns="http://www.w3.org/2000/svg" xmlns:xlink="http://www.w3.org/1999/xlink" xml:space="preserve" overflow="hidden"><g transform="translate(-3535 -1631)"><rect x="3536" y="1648" width="58.9998" height="62.9999" fill="#B6CFE4"/><path d="M3569 1654C3540 1654 3540 1654 3540 1654 3540 1690 3540 1690 3540 1690 3540 1690 3540 1656.88 3569 1654Z" fill="#FFFFFF" fill-rule="evenodd"/><path d="M3561 1706C3591 1706 3591 1706 3591 1706 3591 1670 3591 1670 3591 1670 3591 1670 3589.64 1703.12 3561 1706Z" fill="#7FACD1" fill-rule="evenodd"/><rect x="3536.5" y="1648.5" width="59.0002" height="62.9999" stroke="#333333" stroke-width="2.86476" stroke-linecap="round" stroke-linejoin="round" stroke-miterlimit="10" fill="none"/><path d="M3610 1694.54 3610 1632 3551.35 1632 3536 1647.91 3595.2 1647.91 3595.2 1711 3610 1694.54Z" fill="#5695C4" fill-rule="evenodd"/><path d="M3551.37 1632 3536 1648 3592.53 1648 3609 1632 3551.37 1632Z" fill="#D2E0EE" fill-rule="evenodd"/><path d="M3610.5 1695.04 3610.5 1632.5 3551.85 1632.5 3536.5 1648.41 3595.7 1648.41 3595.7 1711.5 3610.5 1695.04Z" stroke="#333333" stroke-width="2.86476" stroke-linecap="round" stroke-linejoin="round" stroke-miterlimit="10" fill="none" fill-rule="evenodd"/><path d="M0 0 14.9998 16.0002" stroke="#333333" stroke-width="2.86476" stroke-linecap="round" stroke-linejoin="round" stroke-miterlimit="10" fill="none" fill-rule="evenodd" transform="matrix(1 0 0 -1 3595.5 1648.5)"/></g></svg>