<svg width="106" height="99" xmlns="http://www.w3.org/2000/svg" xmlns:xlink="http://www.w3.org/1999/xlink" xml:space="preserve" overflow="hidden"><g transform="translate(-946 -1084)"><path d="M1033 1102 990.544 1181 947 1102 1033 1102Z" fill="#E69502" fill-rule="evenodd"/><path d="M1009 1106C958 1106 958 1106 958 1106 984.189 1160 984.189 1160 984.189 1160 981.432 1145.41 959.378 1106 1009 1106Z" fill="#EDB749" fill-rule="evenodd"/><path d="M1033.5 1102.5 991.044 1181.5 947.5 1102.5 1033.5 1102.5Z" stroke="#333333" stroke-width="2.86476" stroke-linecap="round" stroke-linejoin="round" stroke-miterlimit="10" fill="none" fill-rule="evenodd"/><path d="M990.83 1181 1033.56 1100.82 947 1100.82 962.341 1085 1050 1085 1006.17 1164.64 990.83 1181Z" fill="#F27A01" fill-rule="evenodd"/><path d="M962.341 1085 947 1100 1033.56 1100 1048.9 1085 1050 1085 962.341 1085Z" fill="#F2BA02" fill-rule="evenodd"/><path d="M0 0 14.9998 16.9998" stroke="#333333" stroke-width="2.86476" stroke-linecap="round" stroke-linejoin="round" stroke-miterlimit="10" fill="none" fill-rule="evenodd" transform="matrix(-1 0 0 1 1047.5 1085.5)"/><path d="M991.33 1181.5 1034.06 1101.32 947.5 1101.32 962.84 1085.5 1050.5 1085.5 1006.67 1165.14 991.33 1181.5Z" stroke="#333333" stroke-width="2.86476" stroke-linecap="round" stroke-linejoin="round" stroke-miterlimit="10" fill="none" fill-rule="evenodd"/></g></svg>