<svg width="105" height="100" xmlns="http://www.w3.org/2000/svg" xmlns:xlink="http://www.w3.org/1999/xlink" xml:space="preserve" overflow="hidden"><g transform="translate(-1970 -1094)"><path d="M2014.95 1192 2058.35 1110.98 1971 1110.98 1987.28 1095 2073 1095 2029.6 1176.02 2014.95 1192Z" fill="#BF0000" fill-rule="evenodd"/><path d="M1987.28 1095 1971 1111 2056.72 1111 2073 1095 1987.28 1095Z" fill="#E78466" fill-rule="evenodd"/><path d="M2059 1111 2015.27 1192 1971 1111 2059 1111Z" fill="#CF0000" fill-rule="evenodd"/><path d="M2032 1117C1982 1117 1982 1117 1982 1117 2009.03 1171 2009.03 1171 2009.03 1171 2004.97 1156.41 1984.7 1117 2032 1117Z" fill="#DD5338" fill-rule="evenodd"/><path d="M2059.5 1111.5 2015.77 1192.5 1971.5 1111.5 2059.5 1111.5Z" stroke="#333333" stroke-width="2.86476" stroke-linecap="round" stroke-linejoin="round" stroke-miterlimit="10" fill="none" fill-rule="evenodd"/><path d="M0 0 14.9998 15.9998" stroke="#333333" stroke-width="2.86476" stroke-linecap="round" stroke-linejoin="round" stroke-miterlimit="10" fill="none" fill-rule="evenodd" transform="matrix(-1 0 0 1 2071.5 1095.5)"/><path d="M2015.45 1192.5 2058.85 1111.48 1971.5 1111.48 1987.78 1095.5 2073.5 1095.5 2030.1 1176.52 2015.45 1192.5Z" stroke="#333333" stroke-width="2.86476" stroke-linecap="round" stroke-linejoin="round" stroke-miterlimit="10" fill="none" fill-rule="evenodd"/></g></svg>