<svg width="84" height="80" xmlns="http://www.w3.org/2000/svg" xmlns:xlink="http://www.w3.org/1999/xlink" xml:space="preserve" overflow="hidden"><g transform="translate(-1561 -1636)"><path d="M1626.73 1698.16 1643 1667.58 1626.73 1637 1595.27 1637 1579 1654.48 1611.54 1654.48 1627.81 1683.42 1611.54 1714 1626.73 1698.16Z" fill="#DF4375" fill-rule="evenodd"/><path d="M1626.45 1637 1626.45 1637 1611 1654.32 1627.55 1683 1643 1667.31 1626.45 1637Z" fill="#F97DA1" fill-rule="evenodd"/><path d="M1627 1637 1595.36 1637 1579 1654 1611.73 1654 1627 1637Z" fill="#FCCAD6" fill-rule="evenodd"/><path d="M1578.5 1714 1562 1683.17 1578.5 1654 1611.5 1654 1628 1683.17 1611.5 1714 1578.5 1714Z" fill="#F98CAB" fill-rule="evenodd"/><path d="M1583.28 1659 1569 1685.18 1580.54 1707 1577.79 1683.55 1588.77 1661.73 1608 1659 1583.28 1659Z" fill="#FFFFFF" fill-rule="evenodd"/><path d="M1579 1714.5 1562.5 1683.67 1579 1654.5 1612 1654.5 1628.5 1683.67 1612 1714.5 1579 1714.5Z" stroke="#333333" stroke-width="2.86476" stroke-linecap="round" stroke-linejoin="round" stroke-miterlimit="10" fill="none" fill-rule="evenodd"/><path d="M1627.23 1698.66 1643.5 1668.08 1627.23 1637.5 1595.77 1637.5 1579.5 1654.98 1612.04 1654.98 1628.31 1683.92 1612.04 1714.5 1627.23 1698.66Z" stroke="#333333" stroke-width="2.86476" stroke-linecap="round" stroke-linejoin="round" stroke-miterlimit="10" fill="none" fill-rule="evenodd"/><path d="M0 0 16.0002 16.9998" stroke="#333333" stroke-width="2.86476" stroke-linecap="round" stroke-linejoin="round" stroke-miterlimit="10" fill="none" fill-rule="evenodd" transform="matrix(-1 0 0 1 1627.5 1637.5)"/><path d="M0 0 15.0001 17.9999" stroke="#333333" stroke-width="2.86476" stroke-linecap="round" stroke-linejoin="round" stroke-miterlimit="10" fill="none" fill-rule="evenodd" transform="matrix(-1 0 0 1 1643.5 1667.5)"/></g></svg>