<svg width="104" height="101" xmlns="http://www.w3.org/2000/svg" xmlns:xlink="http://www.w3.org/1999/xlink" xml:space="preserve" overflow="hidden"><g transform="translate(-907 -1599)"><path d="M994 1618 950.178 1698 908 1618 994 1618Z" fill="#4679A6" fill-rule="evenodd"/><path d="M968 1622C917 1622 917 1622 917 1622 944.568 1676 944.568 1676 944.568 1676 940.432 1661.41 919.757 1622 968 1622Z" fill="#B3C5D7" fill-rule="evenodd"/><path d="M994.5 1618.5 950.678 1698.5 908.5 1618.5 994.5 1618.5Z" stroke="#333333" stroke-width="2.86476" stroke-linecap="round" stroke-linejoin="round" stroke-miterlimit="10" fill="none" fill-rule="evenodd"/><path d="M950.038 1698 993.713 1617.52 908 1617.52 922.74 1600 1009 1600 965.324 1680.48 950.038 1698Z" fill="#075D93" fill-rule="evenodd"/><path d="M922.74 1600 908 1618 993.713 1618 1009 1601.69 1009 1600 922.74 1600Z" fill="#87A4C1" fill-rule="evenodd"/><path d="M0 0 17.0002 15.9998" stroke="#333333" stroke-width="2.86476" stroke-linecap="round" stroke-linejoin="round" stroke-miterlimit="10" fill="none" fill-rule="evenodd" transform="matrix(-1 0 0 1 1008.5 1602.5)"/><path d="M950.538 1698.5 994.214 1618.02 908.5 1618.02 923.241 1600.5 1009.5 1600.5 965.824 1680.98 950.538 1698.5Z" stroke="#333333" stroke-width="2.86476" stroke-linecap="round" stroke-linejoin="round" stroke-miterlimit="10" fill="none" fill-rule="evenodd"/></g></svg>