<svg width="84" height="80" xmlns="http://www.w3.org/2000/svg" xmlns:xlink="http://www.w3.org/1999/xlink" xml:space="preserve" overflow="hidden"><g transform="translate(-2494 -1103)"><path d="M2559.47 1165.16 2576 1134.58 2559.47 1104 2526.42 1104 2511 1121.48 2544.05 1121.48 2560.58 1150.42 2544.05 1181 2559.47 1165.16Z" fill="#670051" fill-rule="evenodd"/><path d="M2559.45 1104 2559.45 1104 2544 1121.32 2560.55 1150 2576 1134.31 2559.45 1104Z" fill="#873C73" fill-rule="evenodd"/><path d="M2559 1104 2526.27 1104 2511 1121 2543.73 1121 2559 1104Z" fill="#B55586" fill-rule="evenodd"/><path d="M2511.5 1181 2495 1150.17 2511.5 1121 2544.5 1121 2561 1150.17 2544.5 1181 2511.5 1181Z" fill="#742161" fill-rule="evenodd"/><path d="M2515.92 1126 2502 1152.18 2513.24 1174 2510.56 1150.55 2521.27 1128.73 2540 1126 2515.92 1126Z" fill="#8F487A" fill-rule="evenodd"/><path d="M2512 1181.5 2495.5 1150.67 2512 1121.5 2545 1121.5 2561.5 1150.67 2545 1181.5 2512 1181.5Z" stroke="#333333" stroke-width="2.86476" stroke-linecap="round" stroke-linejoin="round" stroke-miterlimit="10" fill="none" fill-rule="evenodd"/><path d="M2559.97 1165.66 2576.5 1135.08 2559.97 1104.5 2526.92 1104.5 2511.5 1121.98 2544.55 1121.98 2561.08 1150.92 2544.55 1181.5 2559.97 1165.66Z" stroke="#333333" stroke-width="2.86476" stroke-linecap="round" stroke-linejoin="round" stroke-miterlimit="10" fill="none" fill-rule="evenodd"/><path d="M0 0 15.0001 17.0002" stroke="#333333" stroke-width="2.86476" stroke-linecap="round" stroke-linejoin="round" stroke-miterlimit="10" fill="none" fill-rule="evenodd" transform="matrix(-1 0 0 1 2559.5 1104.5)"/><path d="M0 0 14.9998 15.0001" stroke="#333333" stroke-width="2.86476" stroke-linecap="round" stroke-linejoin="round" stroke-miterlimit="10" fill="none" fill-rule="evenodd" transform="matrix(-1 0 0 1 2576.5 1135.5)"/></g></svg>