<svg width="114" height="190" xmlns="http://www.w3.org/2000/svg" xmlns:xlink="http://www.w3.org/1999/xlink" xml:space="preserve" overflow="hidden"><g transform="translate(-1411 -1695)"><path d="M1479.68 1793.34C1498.63 1780.32 1523 1742.72 1523 1700.78 1523 1695 1518.94 1696.45 1513.52 1696.45 1508.11 1696.45 1502.7 1695 1502.7 1700.78 1502.7 1732.6 1487.81 1758.63 1475.62 1770.2 1471.56 1775.98 1463.44 1774.54 1459.38 1770.2 1447.2 1758.63 1430.95 1732.6 1430.95 1700.78 1430.95 1695 1426.89 1696.45 1421.48 1696.45 1416.06 1696.45 1412 1695 1412 1700.78 1412 1742.72 1435.01 1780.32 1453.96 1793.34 1458.02 1796.23 1458.02 1800.57 1458.02 1800.57 1458.02 1872.88 1458.02 1872.88 1458.02 1872.88 1458.02 1878.66 1462.09 1883 1467.5 1883 1472.91 1883 1476.98 1878.66 1476.98 1872.88 1476.98 1799.12 1476.98 1799.12 1476.98 1799.12 1476.98 1799.12 1476.98 1796.23 1479.68 1793.34Z" fill="#00FF85" fill-rule="evenodd"/><path d="M1459 1792C1439.75 1779.06 1415 1741.69 1415 1700 1416.37 1715.81 1434.25 1771.88 1459 1792Z" fill="#FFFFFF" fill-rule="evenodd"/><path d="M1506.29 1704C1506.29 1734.47 1491.36 1759.14 1480.5 1770.74 1477.79 1773.65 1473.71 1776.55 1471 1776.55 1481.86 1778 1509 1750.43 1506.29 1704Z" fill="#FFFFFF" fill-rule="evenodd"/><path d="M1480.18 1793.84C1499.13 1780.82 1523.5 1743.22 1523.5 1701.28 1523.5 1695.5 1519.44 1696.95 1514.02 1696.95 1508.61 1696.95 1503.2 1695.5 1503.2 1701.28 1503.2 1733.1 1488.3 1759.13 1476.12 1770.7 1472.06 1776.48 1463.94 1775.04 1459.88 1770.7 1447.7 1759.13 1431.45 1733.1 1431.45 1701.28 1431.45 1695.5 1427.39 1696.95 1421.98 1696.95 1416.56 1696.95 1412.5 1695.5 1412.5 1701.28 1412.5 1743.22 1435.51 1780.82 1454.46 1793.84 1458.52 1796.73 1458.52 1801.07 1458.52 1801.07 1458.52 1873.38 1458.52 1873.38 1458.52 1873.38 1458.52 1879.16 1462.59 1883.5 1468 1883.5 1473.41 1883.5 1477.48 1879.16 1477.48 1873.38 1477.48 1799.62 1477.48 1799.62 1477.48 1799.62 1477.48 1799.62 1477.48 1796.73 1480.18 1793.84Z" stroke="#333333" stroke-width="2.86476" stroke-linecap="round" stroke-linejoin="round" stroke-miterlimit="10" fill="none" fill-rule="evenodd"/></g></svg>