<svg width="186" height="144" xmlns="http://www.w3.org/2000/svg" xmlns:xlink="http://www.w3.org/1999/xlink" xml:space="preserve" overflow="hidden"><g transform="translate(-1342 -583)"><path d="M1495.96 584C1482.3 584 1482.3 584 1482.3 584 1482.3 585.454 1483.66 586.907 1483.66 588.361 1483.66 617.433 1461.81 640.691 1434.5 640.691 1407.19 640.691 1386.7 617.433 1386.7 588.361 1386.7 586.907 1386.7 585.454 1386.7 584 1373.04 584 1373.04 584 1373.04 584 1356.66 584 1343 598.536 1343 615.979 1343 650.866 1343 650.866 1343 650.866 1343 668.309 1356.66 682.845 1373.04 682.845 1416.75 682.845 1416.75 682.845 1416.75 682.845 1416.75 682.845 1416.75 682.845 1416.75 682.845 1416.75 706.103 1416.75 706.103 1416.75 706.103 1416.75 716.278 1424.94 725 1434.5 725 1444.06 725 1452.25 716.278 1452.25 706.103 1452.25 682.845 1452.25 682.845 1452.25 682.845 1452.25 682.845 1452.25 682.845 1452.25 682.845 1495.96 682.845 1495.96 682.845 1495.96 682.845 1512.34 682.845 1526 668.309 1526 650.866 1526 615.979 1526 615.979 1526 615.979 1526 598.536 1512.34 584 1495.96 584Z" fill="#631AB0" fill-rule="evenodd"/><path d="M1438 645.528C1465.22 645.528 1487 621.972 1487 594 1485.64 624.917 1477.47 647 1438 645.528Z" fill="#FFFFFF" fill-rule="evenodd"/><path d="M1397.82 621.794C1391 613.072 1386.91 601.443 1386.91 588.361 1386.91 586.907 1386.91 585.454 1386.91 584 1376 584 1376 584 1376 584 1377.36 599.99 1385.55 613.072 1397.82 621.794ZM1511 588.361C1513.73 592.722 1516.45 599.99 1516.45 605.804 1516.45 640.691 1516.45 640.691 1516.45 640.691 1516.45 658.134 1502.82 672.67 1486.45 672.67 1441.45 672.67 1441.45 672.67 1441.45 672.67 1441.45 672.67 1441.45 672.67 1441.45 674.124 1441.45 695.928 1441.45 695.928 1441.45 695.928 1441.45 706.103 1434.64 714.825 1425.09 714.825 1422.36 714.825 1421 714.825 1419.64 713.371 1422.36 719.186 1427.82 725 1434.64 725 1444.18 725 1452.36 716.278 1452.36 706.103 1452.36 682.845 1452.36 682.845 1452.36 682.845 1452.36 682.845 1452.36 682.845 1452.36 682.845 1496 682.845 1496 682.845 1496 682.845 1512.36 682.845 1526 668.309 1526 650.866 1526 615.979 1526 615.979 1526 615.979 1526 604.351 1520.55 594.175 1511 588.361Z" fill="#55029E" fill-rule="evenodd"/><path d="M1347 651C1347 616.091 1347 616.091 1347 616.091 1347 598.636 1360.64 587 1377 587 1370.18 589.909 1352.45 600.091 1351.09 620.455 1348.36 640.818 1347 651 1347 651Z" fill="#FFFFFF" fill-rule="evenodd"/><path d="M1496.46 584.5C1482.8 584.5 1482.8 584.5 1482.8 584.5 1482.8 585.953 1484.16 587.407 1484.16 588.861 1484.16 617.933 1462.31 641.191 1435 641.191 1407.69 641.191 1387.2 617.933 1387.2 588.861 1387.2 587.407 1387.2 585.953 1387.2 584.5 1373.54 584.5 1373.54 584.5 1373.54 584.5 1357.16 584.5 1343.5 599.036 1343.5 616.479 1343.5 651.366 1343.5 651.366 1343.5 651.366 1343.5 668.809 1357.16 683.345 1373.54 683.345 1417.25 683.345 1417.25 683.345 1417.25 683.345 1417.25 683.345 1417.25 683.345 1417.25 683.345 1417.25 706.603 1417.25 706.603 1417.25 706.603 1417.25 716.779 1425.44 725.5 1435 725.5 1444.56 725.5 1452.75 716.779 1452.75 706.603 1452.75 683.345 1452.75 683.345 1452.75 683.345 1452.75 683.345 1452.75 683.345 1452.75 683.345 1496.46 683.345 1496.46 683.345 1496.46 683.345 1512.84 683.345 1526.5 668.809 1526.5 651.366 1526.5 616.479 1526.5 616.479 1526.5 616.479 1526.5 599.036 1512.84 584.5 1496.46 584.5Z" stroke="#333333" stroke-width="2.86476" stroke-linecap="round" stroke-linejoin="round" stroke-miterlimit="10" fill="none" fill-rule="evenodd"/></g></svg>