<svg width="159" height="145" xmlns="http://www.w3.org/2000/svg" xmlns:xlink="http://www.w3.org/1999/xlink" xml:space="preserve" overflow="hidden"><g transform="translate(-2456 -1120)"><path d="M2613 1121C2581.87 1121 2581.87 1121 2581.87 1121 2581.87 1122.43 2581.87 1122.43 2581.87 1123.87 2581.87 1151.12 2560.22 1174.07 2534.5 1174.07 2507.43 1174.07 2485.78 1151.12 2485.78 1123.87 2485.78 1122.43 2485.78 1122.43 2485.78 1121 2456 1121 2456 1121 2456 1121 2477.66 1224.27 2477.66 1224.27 2477.66 1224.27 2516.91 1224.27 2516.91 1224.27 2516.91 1224.27 2516.91 1244.35 2516.91 1244.35 2516.91 1244.35 2516.91 1254.39 2525.03 1263 2534.5 1263 2543.97 1263 2550.74 1254.39 2550.74 1244.35 2550.74 1224.27 2550.74 1224.27 2550.74 1224.27 2591.34 1224.27 2591.34 1224.27 2591.34 1224.27L2613 1121Z" fill="#615299" fill-rule="evenodd"/><path d="M2485.23 1123.87C2485.23 1122.43 2485.23 1122.43 2485.23 1121 2478.44 1121 2478.44 1121 2478.44 1121 2479.8 1128.17 2483.87 1135.34 2487.95 1141.08 2486.59 1135.34 2485.23 1129.61 2485.23 1123.87ZM2599.41 1121C2581.74 1207.06 2581.74 1207.06 2581.74 1207.06 2581.74 1207.06 2564.07 1207.06 2554.55 1207.06 2543.68 1207.06 2540.96 1227.14 2540.96 1227.14 2540.96 1237.18 2532.81 1245.79 2523.29 1245.79 2521.93 1245.79 2519.21 1244.35 2516.5 1244.35 2516.5 1244.35 2516.5 1244.35 2516.5 1244.35 2516.5 1254.39 2524.65 1263 2534.17 1263 2543.68 1263 2550.48 1254.39 2550.48 1244.35 2550.48 1224.27 2550.48 1224.27 2550.48 1224.27 2591.25 1224.27 2591.25 1224.27 2591.25 1224.27 2613 1121 2613 1121 2613 1121L2599.41 1121ZM2477.08 1224.27C2506.98 1224.27 2506.98 1224.27 2506.98 1224.27 2505.62 1218.54 2505.62 1218.54 2505.62 1218.54 2473 1207.06 2473 1207.06 2473 1207.06L2477.08 1224.27Z" fill="#514290" fill-rule="evenodd"/><path d="M2538 1178C2565.22 1178 2587 1154.89 2587 1126 2585.64 1156.33 2576.11 1178 2538 1178Z" fill="#FFFFFF" fill-rule="evenodd"/><path d="M2473 1126.44C2461 1126.44 2461 1126.44 2461 1126.44 2471.67 1181 2471.67 1181 2471.67 1181 2467.67 1160.9 2463.67 1125 2473 1126.44Z" fill="#FFFFFF" fill-rule="evenodd"/><path d="M2613.5 1121.5C2582.37 1121.5 2582.37 1121.5 2582.37 1121.5 2582.37 1122.93 2582.37 1122.93 2582.37 1124.37 2582.37 1151.62 2560.72 1174.57 2535 1174.57 2507.93 1174.57 2486.28 1151.62 2486.28 1124.37 2486.28 1122.93 2486.28 1122.93 2486.28 1121.5 2456.5 1121.5 2456.5 1121.5 2456.5 1121.5 2478.16 1224.77 2478.16 1224.77 2478.16 1224.77 2517.41 1224.77 2517.41 1224.77 2517.41 1224.77 2517.41 1244.85 2517.41 1244.85 2517.41 1244.85 2517.41 1254.89 2525.53 1263.5 2535 1263.5 2544.47 1263.5 2551.24 1254.89 2551.24 1244.85 2551.24 1224.77 2551.24 1224.77 2551.24 1224.77 2591.84 1224.77 2591.84 1224.77 2591.84 1224.77L2613.5 1121.5Z" stroke="#333333" stroke-width="2.86476" stroke-linecap="round" stroke-linejoin="round" stroke-miterlimit="10" fill="none" fill-rule="evenodd"/></g></svg>