<svg width="210" height="493" xmlns="http://www.w3.org/2000/svg" xmlns:xlink="http://www.w3.org/1999/xlink" xml:space="preserve" overflow="hidden"><g transform="translate(-3456 -1708)"><path d="M3487.24 1725.86C3507.76 1725.86 3507.76 1725.86 3507.76 1725.86 3507.76 1772 3507.76 1772 3507.76 1772 3598 1772 3598 1772 3598 1772 3598 1756.14 3598 1756.14 3598 1756.14 3522.8 1756.14 3522.8 1756.14 3522.8 1756.14 3522.8 1710 3522.8 1710 3522.8 1710 3502.29 1710 3502.29 1710 3502.29 1710 3479.04 1710 3469.47 1725.86 3464 1735.95 3464 1735.95 3464 1735.95 3464 1735.95 3469.47 1730.19 3477.67 1725.86 3487.24 1725.86Z" fill="#D2E0EE" fill-rule="evenodd"/><path d="M3634.37 1709.46C3614.16 1709.46 3614.16 1709.46 3614.16 1709.46 3614.16 1708 3614.16 1708 3614.16 1708 3598 1725.52 3598 1725.52 3598 1725.52 3599.35 1725.52 3599.35 1725.52 3599.35 1725.52 3619.55 1725.52 3619.55 1725.52 3619.55 1725.52 3635.71 1725.52 3649.18 1740.13 3649.18 1757.65 3633.02 2166.55 3633.02 2166.55 3633.02 2166.55 3633.02 2173.86 3630.33 2181.16 3626.29 2187 3626.29 2187 3626.29 2187 3626.29 2187 3637.06 2182.62 3649.18 2162.17 3649.18 2149.03 3664 1741.59 3664 1741.59 3664 1741.59 3664 1722.6 3650.53 1709.46 3634.37 1709.46Z" fill="#5695C4" fill-rule="evenodd"/><path d="M3633.58 1730C3650 1712.4 3650 1712.4 3650 1712.4 3645.89 1710.93 3640.42 1709.47 3634.95 1709.47 3614.42 1709.47 3614.42 1709.47 3614.42 1709.47 3614.42 1708 3614.42 1708 3614.42 1708 3598 1725.6 3598 1725.6 3598 1725.6 3599.37 1725.6 3599.37 1725.6 3599.37 1725.6 3619.89 1725.6 3619.89 1725.6 3619.89 1725.6 3625.37 1725.6 3629.47 1727.07 3633.58 1730Z" fill="#D2E0EE" fill-rule="evenodd"/><path d="M3501.4 2199C3534.43 2199 3534.43 2199 3534.43 2199 3570.2 2199 3570.2 2199 3570.2 2199 3603.22 2199 3603.22 2199 3603.22 2199 3619.73 2199 3633.49 2184.4 3633.49 2166.88 3650 1758.12 3650 1758.12 3650 1758.12 3650 1740.6 3636.24 1726 3619.73 1726 3597.72 1726 3597.72 1726 3597.72 1726 3597.72 1772.72 3597.72 1772.72 3597.72 1772.72 3506.91 1772.72 3506.91 1772.72 3506.91 1772.72 3506.91 1726 3506.91 1726 3506.91 1726 3486.27 1726 3486.27 1726 3486.27 1726 3469.76 1726 3456 1740.6 3456 1758.12 3471.13 2166.88 3471.13 2166.88 3471.13 2166.88 3471.13 2184.4 3484.89 2199 3501.4 2199Z" fill="#B6CFE4" fill-rule="evenodd"/><path d="M3604.84 1742C3604.84 1777.14 3604.84 1777.14 3604.84 1777.14 3566 1777.14 3566 1777.14 3566 1777.14 3581.26 1781.54 3609 1783 3609 1783L3604.84 1742Z" fill="#FFFFFF" fill-rule="evenodd"/><path d="M3522 1710 3522 1710 3507 1726.34 3507 1771 3522 1755.21 3522 1710Z" fill="#5695C4" fill-rule="evenodd"/><path d="M3570.68 2199C3603.5 2199 3603.5 2199 3603.5 2199 3619.91 2199 3633.59 2184.39 3633.59 2166.85 3650 1757.69 3650 1757.69 3650 1757.69 3650 1743.07 3641.79 1731.38 3629.49 1727 3633.59 1732.85 3636.32 1740.15 3636.32 1747.46 3619.91 2156.62 3619.91 2156.62 3619.91 2156.62 3618.54 2199 3557 2199 3557 2199L3570.68 2199Z" fill="#7FACD1" fill-rule="evenodd"/><path d="M3507 1726 3494 1726 3507 1762 3507 1726Z" fill="#7FACD1" fill-rule="evenodd"/><path d="M3507.56 1765.37 3507.56 1727 3494 1727 3502.13 1784 3571 1775.23 3507.56 1775.23 3507.56 1765.37Z" fill="#7FACD1" fill-rule="evenodd"/><path d="M3478.36 2162C3462 1762.18 3462 1762.18 3462 1762.18 3462 1744.67 3475.64 1733 3492 1733 3485.18 1734.46 3470.18 1744.67 3467.45 1765.1 3466.09 1785.53 3478.36 2162 3478.36 2162Z" fill="#FFFFFF" fill-rule="evenodd"/><path d="M3501.9 2199.5C3534.93 2199.5 3534.93 2199.5 3534.93 2199.5 3570.7 2199.5 3570.7 2199.5 3570.7 2199.5 3603.72 2199.5 3603.72 2199.5 3603.72 2199.5 3620.23 2199.5 3633.99 2184.9 3633.99 2167.38 3650.5 1758.62 3650.5 1758.62 3650.5 1758.62 3650.5 1741.1 3636.74 1726.5 3620.23 1726.5 3598.22 1726.5 3598.22 1726.5 3598.22 1726.5 3598.22 1773.22 3598.22 1773.22 3598.22 1773.22 3507.41 1773.22 3507.41 1773.22 3507.41 1773.22 3507.41 1726.5 3507.41 1726.5 3507.41 1726.5 3486.77 1726.5 3486.77 1726.5 3486.77 1726.5 3470.26 1726.5 3456.5 1741.1 3456.5 1758.62 3471.63 2167.38 3471.63 2167.38 3471.63 2167.38 3471.63 2184.9 3485.39 2199.5 3501.9 2199.5Z" stroke="#333333" stroke-width="2.86476" stroke-linecap="round" stroke-linejoin="round" stroke-miterlimit="10" fill="none" fill-rule="evenodd"/><path d="M3487.75 1726.36C3508.26 1726.36 3508.26 1726.36 3508.26 1726.36 3508.26 1772.5 3508.26 1772.5 3508.26 1772.5 3598.5 1772.5 3598.5 1772.5 3598.5 1772.5 3598.5 1756.64 3598.5 1756.64 3598.5 1756.64 3523.3 1756.64 3523.3 1756.64 3523.3 1756.64 3523.3 1710.5 3523.3 1710.5 3523.3 1710.5 3502.79 1710.5 3502.79 1710.5 3502.79 1710.5 3479.54 1710.5 3469.97 1726.36 3464.5 1736.45 3464.5 1736.45 3464.5 1736.45 3464.5 1736.45 3469.97 1730.69 3478.17 1726.36 3487.75 1726.36Z" stroke="#333333" stroke-width="2.86476" stroke-linecap="round" stroke-linejoin="round" stroke-miterlimit="10" fill="none" fill-rule="evenodd"/><path d="M0 0 14.9998 16.0002" stroke="#333333" stroke-width="2.86476" stroke-linecap="round" stroke-linejoin="round" stroke-miterlimit="10" fill="none" fill-rule="evenodd" transform="matrix(1 0 0 -1 3507.5 1726.5)"/><path d="M0 0 14.9998 14.9998" stroke="#333333" stroke-width="2.86476" stroke-linecap="round" stroke-linejoin="round" stroke-miterlimit="10" fill="none" fill-rule="evenodd" transform="matrix(1 0 0 -1 3507.5 1772.5)"/><path d="M3634.87 1709.96C3614.66 1709.96 3614.66 1709.96 3614.66 1709.96 3614.66 1708.5 3614.66 1708.5 3614.66 1708.5 3598.5 1726.02 3598.5 1726.02 3598.5 1726.02 3599.85 1726.02 3599.85 1726.02 3599.85 1726.02 3620.05 1726.02 3620.05 1726.02 3620.05 1726.02 3636.21 1726.02 3649.68 1740.63 3649.68 1758.15 3633.52 2167.05 3633.52 2167.05 3633.52 2167.05 3633.52 2174.36 3630.83 2181.66 3626.79 2187.5 3626.79 2187.5 3626.79 2187.5 3626.79 2187.5 3637.56 2183.12 3649.68 2162.67 3649.68 2149.53 3664.5 1742.09 3664.5 1742.09 3664.5 1742.09 3664.5 1723.1 3651.03 1709.96 3634.87 1709.96Z" stroke="#333333" stroke-width="2.86476" stroke-linecap="round" stroke-linejoin="round" stroke-miterlimit="10" fill="none" fill-rule="evenodd"/></g></svg>