<svg width="176" height="163" xmlns="http://www.w3.org/2000/svg" xmlns:xlink="http://www.w3.org/1999/xlink" xml:space="preserve" overflow="hidden"><g transform="translate(-1420 -1133)"><path d="M1450 1151.5C1450 1180.67 1471.82 1204 1499.09 1204 1515.45 1204 1530.45 1193.79 1540 1180.67 1540 1179.21 1540 1179.21 1540 1179.21 1531.82 1185.04 1523.64 1187.96 1514.09 1187.96 1488.18 1187.96 1466.36 1164.62 1466.36 1135.46 1466.36 1135.46 1466.36 1134 1466.36 1134 1435 1134 1435 1134 1435 1134 1420 1150.04 1420 1150.04 1420 1150.04 1450 1150.04 1450 1150.04 1450 1150.04 1450 1151.5 1450 1151.5 1450 1151.5Z" fill="#8D7CB1" fill-rule="evenodd"/><path d="M1571.88 1236.62 1594 1134 1563.59 1134 1547 1149.75 1578.52 1149.75 1556.4 1254 1571.88 1236.62Z" fill="#C8BDD8" fill-rule="evenodd"/><path d="M1516.21 1254C1516.21 1274.72 1516.21 1274.72 1516.21 1274.72 1516.21 1282.12 1513.58 1288.04 1507 1291 1516.21 1289.52 1532 1267.32 1532 1258.44 1532 1254 1532 1254 1532 1254L1516.21 1254Z" fill="#3A2F84" fill-rule="evenodd"/><path d="M1579 1150C1547.47 1150 1547.47 1150 1547.47 1150 1547.47 1151.45 1547.47 1151.45 1547.47 1151.45 1547.47 1180.55 1525.54 1203.82 1499.5 1203.82 1472.09 1203.82 1450.16 1180.55 1450.16 1151.45 1450.16 1151.45 1450.16 1151.45 1450.16 1150 1420 1150 1420 1150 1420 1150 1441.93 1254.73 1441.93 1254.73 1441.93 1254.73 1481.68 1254.73 1481.68 1254.73 1481.68 1254.73 1481.68 1275.09 1481.68 1275.09 1481.68 1275.09 1481.68 1285.27 1489.91 1294 1499.5 1294 1509.09 1294 1515.95 1285.27 1515.95 1275.09 1515.95 1254.73 1515.95 1254.73 1515.95 1254.73 1557.07 1254.73 1557.07 1254.73 1557.07 1254.73L1579 1150Z" fill="#615299" fill-rule="evenodd"/><path d="M1450.32 1151.45C1450.32 1151.45 1450.32 1151.45 1450.32 1150 1443.48 1150 1443.48 1150 1443.48 1150 1444.84 1157.27 1448.95 1164.55 1453.06 1170.36 1451.69 1164.55 1450.32 1158.73 1450.32 1151.45ZM1565.31 1150C1547.51 1237.27 1547.51 1237.27 1547.51 1237.27 1547.51 1237.27 1529.72 1237.27 1520.14 1237.27 1509.18 1237.27 1506.45 1257.64 1506.45 1257.64 1506.45 1267.82 1498.23 1276.55 1488.65 1276.55 1487.28 1276.55 1484.54 1275.09 1481.81 1273.64 1481.81 1275.09 1481.81 1275.09 1481.81 1275.09 1481.81 1285.27 1490.02 1294 1499.6 1294 1509.18 1294 1516.03 1285.27 1516.03 1275.09 1516.03 1254.73 1516.03 1254.73 1516.03 1254.73 1557.1 1254.73 1557.1 1254.73 1557.1 1254.73 1579 1150 1579 1150 1579 1150L1565.31 1150ZM1442.11 1254.73C1472.22 1254.73 1472.22 1254.73 1472.22 1254.73 1470.85 1248.91 1470.85 1248.91 1470.85 1248.91 1438 1237.27 1438 1237.27 1438 1237.27L1442.11 1254.73Z" fill="#4B418F" fill-rule="evenodd"/><path d="M1504 1208C1531.22 1208 1553 1184.89 1553 1156 1551.64 1186.33 1542.11 1208 1504 1208Z" fill="#FFFFFF" fill-rule="evenodd"/><path d="M1438 1154C1426 1154 1426 1154 1426 1154 1436.67 1210 1436.67 1210 1436.67 1210 1432.67 1189.37 1428.67 1154 1438 1154Z" fill="#FFFFFF" fill-rule="evenodd"/><path d="M1577.68 1149.75 1578.76 1149.75 1557 1254 1572.24 1236.62 1594 1134 1577.68 1149.75Z" fill="#3A2F84" fill-rule="evenodd"/><path d="M1420 1150C1450.41 1150 1450.41 1150 1450.41 1150 1450.41 1150 1450.41 1150 1450.41 1150 1467 1134 1467 1134 1467 1134 1467 1134 1467 1134 1467 1134 1435.21 1134 1435.21 1134 1435.21 1134L1420 1150Z" fill="#C8BDD8" fill-rule="evenodd"/><path d="M1579.5 1150.5C1547.97 1150.5 1547.97 1150.5 1547.97 1150.5 1547.97 1151.95 1547.97 1151.95 1547.97 1151.95 1547.97 1181.05 1526.04 1204.32 1500 1204.32 1472.59 1204.32 1450.66 1181.05 1450.66 1151.95 1450.66 1151.95 1450.66 1151.95 1450.66 1150.5 1420.5 1150.5 1420.5 1150.5 1420.5 1150.5 1442.43 1255.23 1442.43 1255.23 1442.43 1255.23 1482.18 1255.23 1482.18 1255.23 1482.18 1255.23 1482.18 1275.59 1482.18 1275.59 1482.18 1275.59 1482.18 1285.77 1490.41 1294.5 1500 1294.5 1509.59 1294.5 1516.45 1285.77 1516.45 1275.59 1516.45 1255.23 1516.45 1255.23 1516.45 1255.23 1557.57 1255.23 1557.57 1255.23 1557.57 1255.23L1579.5 1150.5Z" stroke="#333333" stroke-width="2.86476" stroke-linecap="round" stroke-linejoin="round" stroke-miterlimit="10" fill="none" fill-rule="evenodd"/><path d="M1450.5 1152C1450.5 1181.17 1472.32 1204.5 1499.59 1204.5 1515.95 1204.5 1530.95 1194.29 1540.5 1181.17 1540.5 1179.71 1540.5 1179.71 1540.5 1179.71 1532.32 1185.54 1524.14 1188.46 1514.59 1188.46 1488.68 1188.46 1466.86 1165.12 1466.86 1135.96 1466.86 1135.96 1466.86 1134.5 1466.86 1134.5 1435.5 1134.5 1435.5 1134.5 1435.5 1134.5 1420.5 1150.54 1420.5 1150.54 1420.5 1150.54 1450.5 1150.54 1450.5 1150.54 1450.5 1150.54 1450.5 1152 1450.5 1152 1450.5 1152Z" stroke="#333333" stroke-width="2.86476" stroke-linecap="round" stroke-linejoin="round" stroke-miterlimit="10" fill="none" fill-rule="evenodd"/><path d="M1572.38 1237.12 1594.5 1134.5 1564.09 1134.5 1547.5 1150.25 1579.02 1150.25 1556.9 1254.5 1572.38 1237.12Z" stroke="#333333" stroke-width="2.86476" stroke-linecap="round" stroke-linejoin="round" stroke-miterlimit="10" fill="none" fill-rule="evenodd"/><path d="M1516.71 1254.5C1516.71 1275.22 1516.71 1275.22 1516.71 1275.22 1516.71 1282.62 1514.08 1288.54 1507.5 1291.5 1516.71 1290.02 1532.5 1267.82 1532.5 1258.94 1532.5 1254.5 1532.5 1254.5 1532.5 1254.5L1516.71 1254.5Z" stroke="#333333" stroke-width="2.86476" stroke-linecap="round" stroke-linejoin="round" stroke-miterlimit="10" fill="none" fill-rule="evenodd"/><path d="M0 0 16.9998 16.0002" stroke="#333333" stroke-width="2.86476" stroke-linecap="round" stroke-linejoin="round" stroke-miterlimit="10" fill="none" fill-rule="evenodd" transform="matrix(-1 0 0 1 1467.5 1134.5)"/><path d="M0 0 15.0001 16.0002" stroke="#333333" stroke-width="2.86476" stroke-linecap="round" stroke-linejoin="round" stroke-miterlimit="10" fill="none" fill-rule="evenodd" transform="matrix(-1 0 0 1 1594.5 1134.5)"/></g></svg>