<svg width="188" height="151" xmlns="http://www.w3.org/2000/svg" xmlns:xlink="http://www.w3.org/1999/xlink" xml:space="preserve" overflow="hidden"><g transform="translate(-1458 -1116)"><path d="M1644 1167.78C1644 1146.02 1626.32 1127.16 1599.11 1117 1599.11 1119.9 1599.11 1122.8 1599.11 1124.25 1599.11 1153.27 1577.35 1176.49 1551.5 1176.49 1524.29 1176.49 1502.53 1153.27 1502.53 1124.25 1502.53 1122.8 1502.53 1119.9 1503.89 1117 1476.68 1127.16 1459 1146.02 1459 1167.78 1459 1196.8 1491.65 1220.02 1533.82 1225.82 1533.82 1247.59 1533.82 1247.59 1533.82 1247.59 1533.82 1257.75 1541.98 1265 1551.5 1265 1561.02 1265 1569.18 1257.75 1569.18 1247.59 1569.18 1225.82 1569.18 1225.82 1569.18 1225.82 1611.35 1220.02 1644 1196.8 1644 1167.78Z" fill="#50A5C2" fill-rule="evenodd"/><path d="M1615.36 1125.71C1624.91 1134.41 1629 1144.57 1629 1156.18 1629 1182.29 1603.09 1204.06 1566.27 1211.31 1562.18 1212.76 1554 1224.37 1554 1224.37 1554 1235.98 1554 1235.98 1554 1235.98 1554 1246.14 1545.82 1253.39 1536.27 1253.39 1536.27 1253.39 1534.91 1253.39 1534.91 1253.39 1537.64 1260.65 1543.09 1265 1551.27 1265 1560.82 1265 1569 1257.75 1569 1247.59 1569 1225.82 1569 1225.82 1569 1225.82 1611.27 1220.02 1644 1196.8 1644 1167.78 1644 1151.82 1633.09 1135.86 1615.36 1125.71ZM1515.82 1159.08C1507.64 1150.37 1502.18 1137.31 1502.18 1124.25 1502.18 1122.8 1502.18 1119.9 1503.55 1117 1498.09 1119.9 1498.09 1121.35 1494 1122.8 1496.73 1138.76 1502.18 1151.82 1515.82 1159.08Z" fill="#0182AA" fill-rule="evenodd"/><path d="M1556 1178.56C1583.22 1178.56 1605 1156.89 1605 1128 1603.64 1158.33 1594.11 1180 1556 1178.56Z" fill="#FFFFFF" fill-rule="evenodd"/><path d="M1465.43 1174C1460 1152.44 1481.71 1130.87 1498 1128 1489.86 1130.87 1469.5 1151 1465.43 1174Z" fill="#FFFFFF" fill-rule="evenodd"/><path d="M1644.5 1168.28C1644.5 1146.52 1626.82 1127.66 1599.61 1117.5 1599.61 1120.4 1599.61 1123.3 1599.61 1124.75 1599.61 1153.77 1577.85 1176.99 1552 1176.99 1524.79 1176.99 1503.03 1153.77 1503.03 1124.75 1503.03 1123.3 1503.03 1120.4 1504.39 1117.5 1477.18 1127.66 1459.5 1146.52 1459.5 1168.28 1459.5 1197.3 1492.15 1220.52 1534.32 1226.32 1534.32 1248.09 1534.32 1248.09 1534.32 1248.09 1534.32 1258.24 1542.48 1265.5 1552 1265.5 1561.52 1265.5 1569.68 1258.24 1569.68 1248.09 1569.68 1226.32 1569.68 1226.32 1569.68 1226.32 1611.85 1220.52 1644.5 1197.3 1644.5 1168.28Z" stroke="#333333" stroke-width="2.86476" stroke-linecap="round" stroke-linejoin="round" stroke-miterlimit="10" fill="none" fill-rule="evenodd"/></g></svg>