<svg width="161" height="113" xmlns="http://www.w3.org/2000/svg" xmlns:xlink="http://www.w3.org/1999/xlink" xml:space="preserve" overflow="hidden"><g transform="translate(-2924 -1131)"><path d="M3083 1132 3053.03 1132 3028.52 1176.98 2978.39 1176.98 2953.88 1132 2925 1132 2971.31 1214.36 2971.31 1242 3036.69 1242 3036.69 1214.36 3083 1132Z" fill="#B785A3" fill-rule="evenodd"/><path d="M2953.73 1132 2951 1132 2976.64 1178.6 2972.82 1166.68 2953.73 1132ZM3077.55 1132 3027.36 1202.99 3027.36 1230.62 2971.18 1230.62 2971.18 1242 3036.64 1242 3036.64 1214.36 3083 1132 3077.55 1132Z" fill="#9E5E88" fill-rule="evenodd"/><path d="M3048 1151 3030.44 1179.67 3003 1179.67 3033.18 1184 3048 1151Z" fill="#FFFFFF" fill-rule="evenodd"/><path d="M2940.31 1136 2933 1136 2960 1183 2940.31 1136Z" fill="#FFFFFF" fill-rule="evenodd"/><path d="M3083.5 1132.5 3053.53 1132.5 3029.02 1177.48 2978.89 1177.48 2954.38 1132.5 2925.5 1132.5 2971.81 1214.86 2971.81 1242.5 3037.19 1242.5 3037.19 1214.86 3083.5 1132.5Z" stroke="#333333" stroke-width="2.86476" stroke-linecap="round" stroke-linejoin="round" stroke-miterlimit="10" fill="none" fill-rule="evenodd"/></g></svg>