<svg width="176" height="129" xmlns="http://www.w3.org/2000/svg" xmlns:xlink="http://www.w3.org/1999/xlink" xml:space="preserve" overflow="hidden"><g transform="translate(-2445 -1161)"><path d="M2558 1288 2558 1260.3 2604.29 1177.75 2574.34 1177.75 2590.68 1162 2619 1162 2572.71 1244.55 2572.71 1271.71 2558 1288Z" fill="#9E5E88" fill-rule="evenodd"/><path d="M2559 1206.66 2549.76 1223 2500.87 1223 2476.42 1177.79 2446 1177.79 2461.21 1162 2491.09 1162 2515.54 1206.66 2559 1206.66Z" fill="#DBB3C2" fill-rule="evenodd"/><path d="M2575 1178 2575 1178ZM2619 1162 2591.1 1162 2575 1178 2604.51 1178 2619 1162Z" fill="#DBB3C2" fill-rule="evenodd"/><path d="M2573 1243 2558 1261 2573 1243Z" fill="#B785A3" fill-rule="evenodd"/><path d="M2605 1178 2574.95 1178 2550.36 1222.98 2501.19 1222.98 2476.6 1178 2446 1178 2492.99 1260.36 2492.99 1288 2558.56 1288 2558.56 1260.36 2605 1178Z" fill="#B785A3" fill-rule="evenodd"/><path d="M2600.63 1178 2548.73 1250.07 2548.73 1277.7 2493 1277.7 2493 1288 2558.56 1288 2558.56 1260.36 2605 1178 2600.63 1178Z" fill="#A76C92" fill-rule="evenodd"/><path d="M2570 1197 2552.68 1225.67 2524 1225.67 2555.39 1230 2570 1197Z" fill="#FFFFFF" fill-rule="evenodd"/><path d="M2461.33 1182 2456 1182 2480 1228 2461.33 1182Z" fill="#FFFFFF" fill-rule="evenodd"/><path d="M2491 1162 2476 1177.79 2501 1223 2516 1206.66 2491 1162Z" fill="#9E5E88" fill-rule="evenodd"/><path d="M2605.5 1178.5 2575.45 1178.5 2550.86 1223.48 2501.69 1223.48 2477.1 1178.5 2446.5 1178.5 2493.49 1260.86 2493.49 1288.5 2559.06 1288.5 2559.06 1260.86 2605.5 1178.5Z" stroke="#333333" stroke-width="2.86476" stroke-linecap="round" stroke-linejoin="round" stroke-miterlimit="10" fill="none" fill-rule="evenodd"/><path d="M2558.5 1288.5 2558.5 1260.8 2604.79 1178.25 2574.84 1178.25 2591.18 1162.5 2619.5 1162.5 2573.21 1245.05 2573.21 1272.21 2558.5 1288.5Z" stroke="#333333" stroke-width="2.86476" stroke-linecap="round" stroke-linejoin="round" stroke-miterlimit="10" fill="none" fill-rule="evenodd"/><path d="M2559.5 1207.16 2550.26 1223.5 2501.37 1223.5 2476.92 1178.29 2446.5 1178.29 2461.71 1162.5 2491.59 1162.5 2516.04 1207.16 2559.5 1207.16" stroke="#333333" stroke-width="2.86476" stroke-linecap="round" stroke-linejoin="round" stroke-miterlimit="10" fill="none" fill-rule="evenodd"/><path d="M0 0 16.0002 15.9998" stroke="#333333" stroke-width="2.86476" stroke-linecap="round" stroke-linejoin="round" stroke-miterlimit="10" fill="none" fill-rule="evenodd" transform="matrix(-1 0 0 1 2491.5 1162.5)"/><path d="M0 0 13.9997 15.9998" stroke="#333333" stroke-width="2.86476" stroke-linecap="round" stroke-linejoin="round" stroke-miterlimit="10" fill="none" fill-rule="evenodd" transform="matrix(-1 0 0 1 2619.5 1162.5)"/><path d="M0 0 15.0001 18.0002" stroke="#333333" stroke-width="2.86476" stroke-linecap="round" stroke-linejoin="round" stroke-miterlimit="10" fill="none" fill-rule="evenodd" transform="matrix(-1 0 0 1 2573.5 1243.5)"/><path d="M0 0 15.0001 15.9998" stroke="#333333" stroke-width="2.86476" stroke-linecap="round" stroke-linejoin="round" stroke-miterlimit="10" fill="none" fill-rule="evenodd" transform="matrix(-1 0 0 1 2516.5 1207.5)"/></g></svg>