<svg width="114" height="190" xmlns="http://www.w3.org/2000/svg" xmlns:xlink="http://www.w3.org/1999/xlink" xml:space="preserve" overflow="hidden"><g transform="translate(-2628 -1695)"><path d="M2696.68 1793.34C2715.63 1780.32 2740 1742.72 2740 1700.78 2740 1695 2735.94 1696.45 2730.52 1696.45 2725.11 1696.45 2719.7 1695 2719.7 1700.78 2719.7 1732.6 2704.8 1758.63 2692.62 1770.2 2688.56 1775.98 2680.44 1774.54 2676.38 1770.2 2664.2 1758.63 2647.95 1732.6 2647.95 1700.78 2647.95 1695 2643.89 1696.45 2638.48 1696.45 2633.06 1696.45 2629 1695 2629 1700.78 2629 1742.72 2652.01 1780.32 2670.96 1793.34 2675.02 1796.23 2675.02 1800.57 2675.02 1800.57 2675.02 1872.88 2675.02 1872.88 2675.02 1872.88 2675.02 1878.66 2679.09 1883 2684.5 1883 2689.91 1883 2693.98 1878.66 2693.98 1872.88 2693.98 1799.12 2693.98 1799.12 2693.98 1799.12 2693.98 1799.12 2693.98 1796.23 2696.68 1793.34Z" fill="#F3F900" fill-rule="evenodd"/><path d="M2676 1792C2656.75 1779.06 2632 1741.69 2632 1700 2633.38 1715.81 2651.25 1771.88 2676 1792Z" fill="#FFFFFF" fill-rule="evenodd"/><path d="M2723.29 1704C2723.29 1734.47 2708.36 1759.14 2697.5 1770.74 2694.79 1773.65 2690.71 1776.55 2688 1776.55 2698.86 1778 2726 1750.43 2723.29 1704Z" fill="#FFFFFF" fill-rule="evenodd"/><path d="M2697.18 1793.84C2716.13 1780.82 2740.5 1743.22 2740.5 1701.28 2740.5 1695.5 2736.44 1696.95 2731.02 1696.95 2725.61 1696.95 2720.19 1695.5 2720.19 1701.28 2720.19 1733.1 2705.3 1759.13 2693.12 1770.7 2689.06 1776.48 2680.94 1775.04 2676.88 1770.7 2664.69 1759.13 2648.45 1733.1 2648.45 1701.28 2648.45 1695.5 2644.39 1696.95 2638.98 1696.95 2633.56 1696.95 2629.5 1695.5 2629.5 1701.28 2629.5 1743.22 2652.51 1780.82 2671.46 1793.84 2675.52 1796.73 2675.52 1801.07 2675.52 1801.07 2675.52 1873.38 2675.52 1873.38 2675.52 1873.38 2675.52 1879.16 2679.59 1883.5 2685 1883.5 2690.41 1883.5 2694.48 1879.16 2694.48 1873.38 2694.48 1799.62 2694.48 1799.62 2694.48 1799.62 2694.48 1799.62 2694.48 1796.73 2697.18 1793.84Z" stroke="#333333" stroke-width="2.86476" stroke-linecap="round" stroke-linejoin="round" stroke-miterlimit="10" fill="none" fill-rule="evenodd"/></g></svg>