<svg width="114" height="190" xmlns="http://www.w3.org/2000/svg" xmlns:xlink="http://www.w3.org/1999/xlink" xml:space="preserve" overflow="hidden"><g transform="translate(-3233 -1695)"><path d="M3301.68 1793.34C3320.63 1780.32 3345 1742.72 3345 1700.78 3345 1695 3340.94 1696.45 3335.52 1696.45 3330.11 1696.45 3324.7 1695 3324.7 1700.78 3324.7 1732.6 3309.8 1758.63 3297.62 1770.2 3293.56 1775.98 3285.44 1774.54 3281.38 1770.2 3269.2 1758.63 3252.95 1732.6 3252.95 1700.78 3252.95 1695 3248.89 1696.45 3243.48 1696.45 3238.06 1696.45 3234 1695 3234 1700.78 3234 1742.72 3257.01 1780.32 3275.96 1793.34 3280.02 1796.23 3280.02 1800.57 3280.02 1800.57 3280.02 1872.88 3280.02 1872.88 3280.02 1872.88 3280.02 1878.66 3284.09 1883 3289.5 1883 3294.91 1883 3298.98 1878.66 3298.98 1872.88 3298.98 1799.12 3298.98 1799.12 3298.98 1799.12 3298.98 1799.12 3298.98 1796.23 3301.68 1793.34Z" fill="#F7A500" fill-rule="evenodd"/><path d="M3281 1792C3261.75 1779.06 3237 1741.69 3237 1700 3238.38 1715.81 3256.25 1771.88 3281 1792Z" fill="#FFFFFF" fill-rule="evenodd"/><path d="M3328.29 1704C3328.29 1734.47 3313.36 1759.14 3302.5 1770.74 3299.79 1773.65 3295.71 1776.55 3293 1776.55 3303.86 1778 3331 1750.43 3328.29 1704Z" fill="#FFFFFF" fill-rule="evenodd"/><path d="M3302.18 1793.84C3321.13 1780.82 3345.5 1743.22 3345.5 1701.28 3345.5 1695.5 3341.44 1696.95 3336.02 1696.95 3330.61 1696.95 3325.19 1695.5 3325.19 1701.28 3325.19 1733.1 3310.3 1759.13 3298.12 1770.7 3294.06 1776.48 3285.94 1775.04 3281.88 1770.7 3269.69 1759.13 3253.45 1733.1 3253.45 1701.28 3253.45 1695.5 3249.39 1696.95 3243.98 1696.95 3238.56 1696.95 3234.5 1695.5 3234.5 1701.28 3234.5 1743.22 3257.51 1780.82 3276.46 1793.84 3280.52 1796.73 3280.52 1801.07 3280.52 1801.07 3280.52 1873.38 3280.52 1873.38 3280.52 1873.38 3280.52 1879.16 3284.59 1883.5 3290 1883.5 3295.41 1883.5 3299.48 1879.16 3299.48 1873.38 3299.48 1799.62 3299.48 1799.62 3299.48 1799.62 3299.48 1799.62 3299.48 1796.73 3302.18 1793.84Z" stroke="#333333" stroke-width="2.86476" stroke-linecap="round" stroke-linejoin="round" stroke-miterlimit="10" fill="none" fill-rule="evenodd"/></g></svg>