<svg width="195" height="129" xmlns="http://www.w3.org/2000/svg" xmlns:xlink="http://www.w3.org/1999/xlink" xml:space="preserve" overflow="hidden"><g transform="translate(-2418 -582)"><path d="M2581.04 583C2560.62 583 2560.62 583 2560.62 583 2560.62 630.793 2560.62 630.793 2560.62 630.793 2470.74 630.793 2470.74 630.793 2470.74 630.793 2470.74 583 2470.74 583 2470.74 583 2448.96 583 2448.96 583 2448.96 583 2432.62 583 2419 597.483 2419 614.862 2419 649.621 2419 649.621 2419 649.621 2419 668.448 2432.62 681.483 2448.96 681.483 2497.98 681.483 2497.98 681.483 2497.98 681.483 2497.98 709 2497.98 709 2497.98 709 2533.38 709 2533.38 709 2533.38 709 2533.38 681.483 2533.38 681.483 2533.38 681.483 2581.04 681.483 2581.04 681.483 2581.04 681.483 2597.38 681.483 2611 668.448 2611 649.621 2611 614.862 2611 614.862 2611 614.862 2611 597.483 2597.38 583 2581.04 583Z" fill="#FF9A70" fill-rule="evenodd"/><path d="M2470.63 583C2457 583 2457 583 2457 583 2470.63 620.655 2470.63 620.655 2470.63 620.655 2470.63 620.655 2470.63 620.655 2470.63 620.655L2470.63 583ZM2591.92 585.897C2596.01 590.241 2597.37 597.483 2597.37 604.724 2597.37 639.483 2597.37 639.483 2597.37 639.483 2597.37 656.862 2583.74 671.345 2567.39 671.345 2519.69 671.345 2519.69 671.345 2519.69 671.345 2519.69 697.414 2519.69 697.414 2519.69 697.414 2497.89 697.414 2497.89 697.414 2497.89 697.414 2497.89 709 2497.89 709 2497.89 709 2533.32 709 2533.32 709 2533.32 709 2533.32 681.483 2533.32 681.483 2533.32 681.483 2581.02 681.483 2581.02 681.483 2581.02 681.483 2597.37 681.483 2611 668.448 2611 649.621 2611 614.862 2611 614.862 2611 614.862 2611 601.828 2602.82 590.241 2591.92 585.897Z" fill="#FF854B" fill-rule="evenodd"/><path d="M2424 651C2424 616.091 2424 616.091 2424 616.091 2424 598.636 2437.64 587 2454 587 2447.18 588.455 2430.82 598.636 2428.09 619 2426.73 639.364 2424 651 2424 651Z" fill="#FFFFFF" fill-rule="evenodd"/><path d="M2565.58 600C2565.58 634.286 2565.58 634.286 2565.58 634.286 2529 634.286 2529 634.286 2529 634.286 2542.55 638.571 2571 640 2571 640L2565.58 600Z" fill="#FFFFFF" fill-rule="evenodd"/><path d="M2581.54 583.5C2561.12 583.5 2561.12 583.5 2561.12 583.5 2561.12 631.293 2561.12 631.293 2561.12 631.293 2471.24 631.293 2471.24 631.293 2471.24 631.293 2471.24 583.5 2471.24 583.5 2471.24 583.5 2449.46 583.5 2449.46 583.5 2449.46 583.5 2433.12 583.5 2419.5 597.983 2419.5 615.362 2419.5 650.121 2419.5 650.121 2419.5 650.121 2419.5 668.948 2433.12 681.983 2449.46 681.983 2498.48 681.983 2498.48 681.983 2498.48 681.983 2498.48 709.5 2498.48 709.5 2498.48 709.5 2533.88 709.5 2533.88 709.5 2533.88 709.5 2533.88 681.983 2533.88 681.983 2533.88 681.983 2581.54 681.983 2581.54 681.983 2581.54 681.983 2597.88 681.983 2611.5 668.948 2611.5 650.121 2611.5 615.362 2611.5 615.362 2611.5 615.362 2611.5 597.983 2597.88 583.5 2581.54 583.5Z" stroke="#333333" stroke-width="2.86476" stroke-linecap="round" stroke-linejoin="round" stroke-miterlimit="10" fill="none" fill-rule="evenodd"/></g></svg>