<svg width="201" height="492" xmlns="http://www.w3.org/2000/svg" xmlns:xlink="http://www.w3.org/1999/xlink" xml:space="preserve" overflow="hidden"><g transform="translate(-851 -1708)"><path d="M1019.8 1710C996.471 1710 996.471 1710 996.471 1710 980 1726.03 980 1726.03 980 1726.03 1003.33 1726.03 1003.33 1726.03 1003.33 1726.03 1019.8 1726.03 1033.53 1740.6 1033.53 1758.09 1018.43 2166.14 1018.43 2166.14 1018.43 2166.14 1018.43 2174.88 1015.69 2182.17 1010.2 2188 1022.55 2179.26 1033.53 2161.77 1033.53 2150.11 1050 1742.06 1050 1742.06 1050 1742.06 1050 1724.57 1036.27 1710 1019.8 1710Z" fill="#075D93" fill-rule="evenodd"/><path d="M880.75 1725.95C904.125 1725.95 904.125 1725.95 904.125 1725.95 942.625 1797 942.625 1797 942.625 1797 955 1773.8 955 1773.8 955 1773.8 920.625 1710 920.625 1710 920.625 1710 897.25 1710 897.25 1710 897.25 1710 880.75 1710 860.125 1724.5 856 1741.9 860.125 1731.75 869.75 1725.95 880.75 1725.95Z" fill="#87A4C1" fill-rule="evenodd"/><path d="M1017.84 1729C1033 1712.5 1033 1712.5 1033 1712.5 1028.86 1709.5 1024.73 1708 1019.22 1708 997.162 1708 997.162 1708 997.162 1708 997.162 1708 997.162 1708 997.162 1708 982 1724.5 982 1724.5 982 1724.5 982 1726 982 1726 982 1726 1002.68 1726 1002.68 1726 1002.68 1726 1008.19 1726 1013.7 1727.5 1017.84 1729Z" fill="#87A4C1" fill-rule="evenodd"/><path d="M897.433 2198C924.746 2198 924.746 2198 924.746 2198 961.619 2198 961.619 2198 961.619 2198 988.933 2198 988.933 2198 988.933 2198 1005.32 2198 1018.98 2183.43 1018.98 2165.95 1034 1758.05 1034 1758.05 1034 1758.05 1034 1740.57 1020.34 1726 1003.96 1726 980.739 1726 980.739 1726 980.739 1726 942.5 1797.38 942.5 1797.38 942.5 1797.38 904.261 1726 904.261 1726 904.261 1726 881.045 1726 881.045 1726 881.045 1726 864.657 1726 851 1740.57 851 1758.05 867.388 2165.95 867.388 2165.95 867.388 2165.95 867.388 2183.43 879.679 2198 897.433 2198Z" fill="#4679A6" fill-rule="evenodd"/><path d="M904 1725.77 904 1725.77 942.387 1797 955 1773.62 920.452 1710 904 1725.77Z" fill="#075D93" fill-rule="evenodd"/><path d="M960.81 2198C988.429 2198 988.429 2198 988.429 2198 1005 2198 1018.81 2183.43 1018.81 2165.96 1034 1758.13 1034 1758.13 1034 1758.13 1034 1745.02 1025.71 1733.37 1014.67 1729 1018.81 1733.37 1020.19 1740.65 1020.19 1747.93 1005 2155.76 1005 2155.76 1005 2155.76 1003.62 2195.09 947 2198 947 2198L960.81 2198Z" fill="#2F6B9D" fill-rule="evenodd"/><path d="M932.329 1778.36 904.014 1726 896 1726 935 1786 932.329 1778.36Z" fill="#2F6B9D" fill-rule="evenodd"/><path d="M946 1805C946 1805 976.311 1747.04 980.444 1741.24 984.578 1734 988.711 1734 988.711 1734 1008 1734 1008 1734 1008 1734 999.733 1735.45 988.711 1736.9 980.444 1748.49 973.555 1760.08 946 1805 946 1805Z" fill="#FFFFFF" fill-rule="evenodd"/><path d="M873.364 2162C857 1763.12 857 1763.12 857 1763.12 857 1745.65 870.636 1734 887 1734 880.182 1735.46 865.182 1745.65 862.454 1766.03 861.091 1786.41 873.364 2162 873.364 2162Z" fill="#FFFFFF" fill-rule="evenodd"/><path d="M897.933 2198.5C925.246 2198.5 925.246 2198.5 925.246 2198.5 962.119 2198.5 962.119 2198.5 962.119 2198.5 989.433 2198.5 989.433 2198.5 989.433 2198.5 1005.82 2198.5 1019.48 2183.93 1019.48 2166.45 1034.5 1758.55 1034.5 1758.55 1034.5 1758.55 1034.5 1741.07 1020.84 1726.5 1004.46 1726.5 981.239 1726.5 981.239 1726.5 981.239 1726.5 943 1797.88 943 1797.88 943 1797.88 904.761 1726.5 904.761 1726.5 904.761 1726.5 881.545 1726.5 881.545 1726.5 881.545 1726.5 865.157 1726.5 851.5 1741.07 851.5 1758.55 867.888 2166.45 867.888 2166.45 867.888 2166.45 867.888 2183.93 880.179 2198.5 897.933 2198.5Z" stroke="#333333" stroke-width="2.86476" stroke-linecap="round" stroke-linejoin="round" stroke-miterlimit="10" fill="none" fill-rule="evenodd"/><path d="M881.25 1726.45C904.625 1726.45 904.625 1726.45 904.625 1726.45 943.125 1797.5 943.125 1797.5 943.125 1797.5 955.5 1774.3 955.5 1774.3 955.5 1774.3 921.125 1710.5 921.125 1710.5 921.125 1710.5 897.75 1710.5 897.75 1710.5 897.75 1710.5 881.25 1710.5 860.625 1725 856.5 1742.4 860.625 1732.25 870.25 1726.45 881.25 1726.45Z" stroke="#333333" stroke-width="2.86476" stroke-linecap="round" stroke-linejoin="round" stroke-miterlimit="10" fill="none" fill-rule="evenodd"/><path d="M1020.3 1710.5C996.971 1710.5 996.971 1710.5 996.971 1710.5 980.5 1726.53 980.5 1726.53 980.5 1726.53 1003.83 1726.53 1003.83 1726.53 1003.83 1726.53 1020.3 1726.53 1034.03 1741.1 1034.03 1758.59 1018.93 2166.64 1018.93 2166.64 1018.93 2166.64 1018.93 2175.38 1016.19 2182.67 1010.7 2188.5 1023.05 2179.76 1034.03 2162.27 1034.03 2150.61 1050.5 1742.56 1050.5 1742.56 1050.5 1742.56 1050.5 1725.07 1036.77 1710.5 1020.3 1710.5Z" stroke="#333333" stroke-width="2.86476" stroke-linecap="round" stroke-linejoin="round" stroke-miterlimit="10" fill="none" fill-rule="evenodd"/><path d="M0 0 16.0002 16.0002" stroke="#333333" stroke-width="2.86476" stroke-linecap="round" stroke-linejoin="round" stroke-miterlimit="10" fill="none" fill-rule="evenodd" transform="matrix(-1 0 0 1 919.5 1710.5)"/></g></svg>