<svg width="201" height="161" xmlns="http://www.w3.org/2000/svg" xmlns:xlink="http://www.w3.org/1999/xlink" xml:space="preserve" overflow="hidden"><g transform="translate(-1535 -581)"><path d="M1645.33 699.423C1645.33 720.769 1645.33 720.769 1645.33 720.769 1645.33 726.462 1642.67 730.731 1640 735 1649.33 726.462 1660 712.231 1660 705.116 1660 698 1660 698 1660 698 1645.33 698 1645.33 698 1645.33 698 1645.33 699.423 1645.33 699.423 1645.33 699.423Z" fill="#FF8D5C" fill-rule="evenodd"/><path d="M1703.81 582C1691.47 582 1691.47 582 1691.47 582 1675 598.123 1675 598.123 1675 598.123 1688.72 598.123 1688.72 598.123 1688.72 598.123 1705.19 598.123 1718.91 612.781 1718.91 630.37 1718.91 665.548 1718.91 665.548 1718.91 665.548 1718.91 674.342 1716.16 683.137 1710.67 689 1723.02 680.205 1734 662.616 1734 649.425 1734 614.246 1734 614.246 1734 614.246 1734 596.657 1721.65 582 1703.81 582Z" fill="#B785A3" fill-rule="evenodd"/><path d="M1566.5 598.06C1580.17 598.06 1580.17 598.06 1580.17 598.06 1580.17 599.52 1580.17 602.44 1580.17 603.9 1580.17 631.64 1600.67 655 1628 655 1655.33 655 1669 631.64 1669 631.64 1662.17 636.02 1652.6 638.94 1643.03 638.94 1617.07 638.94 1595.2 615.58 1595.2 586.38 1595.2 584.92 1595.2 583.46 1595.2 582 1581.53 582 1581.53 582 1581.53 582 1569.23 582 1551.47 593.68 1546 606.82 1551.47 602.44 1558.3 598.06 1566.5 598.06Z" fill="#B785A3" fill-rule="evenodd"/><path d="M1703.81 582C1691.47 582 1691.47 582 1691.47 582 1675 598.123 1675 598.123 1675 598.123 1688.72 598.123 1688.72 598.123 1688.72 598.123 1705.19 598.123 1718.91 612.781 1718.91 630.37 1718.91 665.548 1718.91 665.548 1718.91 665.548 1718.91 674.342 1716.16 683.137 1710.67 689 1723.02 680.205 1734 662.616 1734 649.425 1734 614.246 1734 614.246 1734 614.246 1734 596.657 1721.65 582 1703.81 582Z" fill="#FF8D5C" fill-rule="evenodd"/><path d="M1566.5 598.06C1580.17 598.06 1580.17 598.06 1580.17 598.06 1580.17 599.52 1580.17 602.44 1580.17 603.9 1580.17 631.64 1600.67 655 1628 655 1655.33 655 1669 631.64 1669 631.64 1662.17 636.02 1652.6 638.94 1643.03 638.94 1617.07 638.94 1595.2 615.58 1595.2 586.38 1595.2 584.92 1595.2 583.46 1595.2 582 1581.53 582 1581.53 582 1581.53 582 1569.23 582 1551.47 593.68 1546 606.82 1551.47 602.44 1558.3 598.06 1566.5 598.06Z" fill="#FFCC8E" fill-rule="evenodd"/><path d="M1688.96 598C1675.3 598 1675.3 598 1675.3 598 1675.3 599.464 1676.66 602.392 1676.66 603.856 1676.66 631.67 1654.81 655.093 1627.5 655.093 1600.19 655.093 1579.7 631.67 1579.7 603.856 1579.7 602.392 1579.7 599.464 1579.7 598 1566.04 598 1566.04 598 1566.04 598 1549.66 598 1536 612.639 1536 630.206 1536 665.34 1536 665.34 1536 665.34 1536 682.907 1549.66 697.547 1566.04 697.547 1609.75 697.547 1609.75 697.547 1609.75 697.547 1609.75 699.01 1609.75 699.01 1609.75 699.01 1609.75 720.969 1609.75 720.969 1609.75 720.969 1609.75 731.217 1617.94 740 1627.5 740 1637.06 740 1645.25 731.217 1645.25 720.969 1645.25 699.01 1645.25 699.01 1645.25 699.01 1645.25 697.547 1645.25 697.547 1645.25 697.547 1688.96 697.547 1688.96 697.547 1688.96 697.547 1705.34 697.547 1719 682.907 1719 665.34 1719 630.206 1719 630.206 1719 630.206 1719 612.639 1705.34 598 1688.96 598Z" fill="#FFA770" fill-rule="evenodd"/><path d="M1632 661C1659.22 661 1681 637.445 1681 608 1679.64 638.917 1671.47 661 1632 661Z" fill="#FFFFFF" fill-rule="evenodd"/><path d="M1590.82 636.062C1584 627.278 1579.91 615.567 1579.91 603.856 1579.91 602.392 1579.91 599.464 1579.91 598 1569 598 1569 598 1569 598 1570.36 614.103 1578.55 628.742 1590.82 636.062ZM1704 602.392C1706.73 608.248 1709.45 614.103 1709.45 621.423 1709.45 656.557 1709.45 656.557 1709.45 656.557 1709.45 674.124 1695.82 688.763 1679.45 688.763 1634.45 688.763 1634.45 688.763 1634.45 688.763 1634.45 688.763 1634.45 688.763 1634.45 688.763 1634.45 712.186 1634.45 712.186 1634.45 712.186 1634.45 722.433 1627.64 729.753 1618.09 729.753 1615.36 729.753 1614 729.753 1612.64 728.289 1615.36 735.608 1620.82 740 1627.64 740 1637.18 740 1645.36 731.217 1645.36 720.969 1645.36 699.01 1645.36 699.01 1645.36 699.01 1645.36 697.547 1645.36 697.547 1645.36 697.547 1689 697.547 1689 697.547 1689 697.547 1705.36 697.547 1719 682.907 1719 665.34 1719 630.206 1719 630.206 1719 630.206 1719 618.495 1713.55 608.248 1704 602.392Z" fill="#FF9C67" fill-rule="evenodd"/><path d="M1540 665C1540 631.837 1540 631.837 1540 631.837 1540 613.093 1553.64 603 1570 603 1563.18 604.442 1545.45 614.535 1544.09 634.721 1541.36 654.907 1540 665 1540 665Z" fill="#FFFFFF" fill-rule="evenodd"/><path d="M1581.39 582C1569.14 582 1551.44 593.765 1546 607 1551.44 602.588 1558.25 598.176 1566.42 598.176 1580.03 598.176 1580.03 598.176 1580.03 598.176 1595 582 1595 582 1595 582L1581.39 582Z" fill="#FFF4B0" fill-rule="evenodd"/><path d="M1723 589.5C1717.51 585 1710.66 582 1703.8 582 1691.46 582 1691.46 582 1691.46 582 1675 598.5 1675 598.5 1675 598.5 1688.71 598.5 1688.71 598.5 1688.71 598.5 1695.57 598.5 1702.43 601.5 1707.91 606L1723 589.5Z" fill="#FFF4B0" fill-rule="evenodd"/><path d="M1689.46 598.5C1675.8 598.5 1675.8 598.5 1675.8 598.5 1675.8 599.964 1677.16 602.892 1677.16 604.356 1677.16 632.17 1655.31 655.593 1628 655.593 1600.69 655.593 1580.2 632.17 1580.2 604.356 1580.2 602.892 1580.2 599.964 1580.2 598.5 1566.54 598.5 1566.54 598.5 1566.54 598.5 1550.16 598.5 1536.5 613.139 1536.5 630.706 1536.5 665.84 1536.5 665.84 1536.5 665.84 1536.5 683.407 1550.16 698.046 1566.54 698.046 1610.25 698.046 1610.25 698.046 1610.25 698.046 1610.25 699.51 1610.25 699.51 1610.25 699.51 1610.25 721.469 1610.25 721.469 1610.25 721.469 1610.25 731.716 1618.44 740.5 1628 740.5 1637.56 740.5 1645.75 731.716 1645.75 721.469 1645.75 699.51 1645.75 699.51 1645.75 699.51 1645.75 698.046 1645.75 698.046 1645.75 698.046 1689.46 698.046 1689.46 698.046 1689.46 698.046 1705.84 698.046 1719.5 683.407 1719.5 665.84 1719.5 630.706 1719.5 630.706 1719.5 630.706 1719.5 613.139 1705.84 598.5 1689.46 598.5Z" stroke="#333333" stroke-width="2.86476" stroke-linecap="round" stroke-linejoin="round" stroke-miterlimit="10" fill="none" fill-rule="evenodd"/><path d="M0 0 14.9998 15.9998" stroke="#333333" stroke-width="2.86476" stroke-linecap="round" stroke-linejoin="round" stroke-miterlimit="10" fill="none" fill-rule="evenodd" transform="matrix(-1 0 0 1 1595.5 582.5)"/><path d="M1704.31 582.5C1691.97 582.5 1691.97 582.5 1691.97 582.5 1675.5 598.623 1675.5 598.623 1675.5 598.623 1689.22 598.623 1689.22 598.623 1689.22 598.623 1705.69 598.623 1719.41 613.281 1719.41 630.87 1719.41 666.048 1719.41 666.048 1719.41 666.048 1719.41 674.843 1716.66 683.637 1711.17 689.5 1723.52 680.706 1734.5 663.117 1734.5 649.925 1734.5 614.747 1734.5 614.747 1734.5 614.747 1734.5 597.158 1722.15 582.5 1704.31 582.5Z" stroke="#333333" stroke-width="2.86476" stroke-linecap="round" stroke-linejoin="round" stroke-miterlimit="10" fill="none" fill-rule="evenodd"/><path d="M1567 598.56C1580.67 598.56 1580.67 598.56 1580.67 598.56 1580.67 600.02 1580.67 602.94 1580.67 604.4 1580.67 632.14 1601.17 655.5 1628.5 655.5 1655.83 655.5 1669.5 632.14 1669.5 632.14 1662.67 636.52 1653.1 639.44 1643.53 639.44 1617.57 639.44 1595.7 616.08 1595.7 586.88 1595.7 585.42 1595.7 583.96 1595.7 582.5 1582.03 582.5 1582.03 582.5 1582.03 582.5 1569.73 582.5 1551.97 594.18 1546.5 607.32 1551.97 602.94 1558.8 598.56 1567 598.56Z" stroke="#333333" stroke-width="2.86476" stroke-linecap="round" stroke-linejoin="round" stroke-miterlimit="10" fill="none" fill-rule="evenodd"/><path d="M1645.83 699.923C1645.83 721.269 1645.83 721.269 1645.83 721.269 1645.83 726.962 1643.17 731.231 1640.5 735.5 1649.83 726.962 1660.5 712.731 1660.5 705.615 1660.5 698.5 1660.5 698.5 1660.5 698.5 1645.83 698.5 1645.83 698.5 1645.83 698.5 1645.83 699.923 1645.83 699.923 1645.83 699.923Z" stroke="#333333" stroke-width="2.86476" stroke-linecap="round" stroke-linejoin="round" stroke-miterlimit="10" fill="none" fill-rule="evenodd"/></g></svg>