<svg width="160" height="469" xmlns="http://www.w3.org/2000/svg" xmlns:xlink="http://www.w3.org/1999/xlink" xml:space="preserve" overflow="hidden"><g transform="translate(-3500 -1694)"><path d="M3658 1695 3629.85 1695 3603.86 1740.03 3555.14 1740.03 3530.78 1695 3501 1695 3547.02 2161 3611.98 2161 3658 1695Z" fill="#F98CAB" fill-rule="evenodd"/><path d="M3652.59 1695 3602.77 2149.07 3548.62 2157.75 3547 2161 3611.98 2161 3658 1695 3652.59 1695Z" fill="#E45D87" fill-rule="evenodd"/><path d="M3624 1714 3606.14 1742.67 3578 1742.67 3608.85 1747 3624 1714Z" fill="#FFFFFF" fill-rule="evenodd"/><path d="M3521 1695 3548.42 1740 3555 1740 3530.32 1695 3521 1695Z" fill="#E45D87" fill-rule="evenodd"/><path d="M3658.5 1695.5 3630.35 1695.5 3604.36 1740.53 3555.64 1740.53 3531.28 1695.5 3501.5 1695.5 3547.52 2161.5 3612.48 2161.5 3658.5 1695.5Z" stroke="#333333" stroke-width="2.86476" stroke-linecap="round" stroke-linejoin="round" stroke-miterlimit="10" fill="none" fill-rule="evenodd"/></g></svg>