<svg width="204" height="168" xmlns="http://www.w3.org/2000/svg" xmlns:xlink="http://www.w3.org/1999/xlink" xml:space="preserve" overflow="hidden"><g transform="translate(-2943 -1127)"><path d="M2989.05 1143.96C2987.68 1146.86 2987.68 1148.31 2987.68 1151.22 2987.68 1180.24 3009.58 1202 3036.95 1202 3054.74 1202 3069.79 1193.29 3078 1178.78 3069.79 1183.14 3061.58 1186.04 3052 1186.04 3026 1186.04 3004.11 1162.82 3004.11 1135.25 3004.11 1132.35 3004.11 1129.45 3004.11 1128 2979.47 1136.71 2950.74 1158.47 2948 1177.33 2948 1177.33 2948 1177.33 2948 1177.33 2954.84 1162.82 2968.53 1151.22 2989.05 1143.96Z" fill="#9CCDDE" fill-rule="evenodd"/><path d="M3100 1128C3085 1143.95 3085 1143.95 3085 1143.95 3112.27 1154.1 3130 1172.95 3130 1194.7 3130 1201.95 3127.27 1209.2 3123.18 1215 3136.82 1204.85 3145 1191.8 3145 1177.3 3145 1157 3127.27 1138.15 3100 1128Z" fill="#0182AA" fill-rule="evenodd"/><path d="M3056.47 1251.86C3055.12 1253.29 3055.12 1253.29 3055.12 1253.29 3055.12 1273.29 3055.12 1273.29 3055.12 1273.29 3055.12 1280.43 3051.06 1284.71 3047 1289 3056.47 1286.14 3070 1267.57 3070 1257.57 3070 1249 3070 1249 3070 1249 3065.94 1250.43 3060.53 1251.86 3056.47 1251.86Z" fill="#0182AA" fill-rule="evenodd"/><path d="M3130 1195.13C3130 1173.22 3112.22 1154.23 3084.87 1144 3084.87 1146.92 3084.87 1148.38 3084.87 1151.3 3084.87 1180.52 3062.99 1202.43 3037 1202.43 3009.65 1202.43 2987.76 1180.52 2987.76 1151.3 2987.76 1148.38 2987.76 1146.92 2989.13 1144 2961.78 1154.23 2944 1173.22 2944 1195.13 2944 1222.88 2976.82 1247.72 3019.22 1252.1 3019.22 1274.01 3019.22 1274.01 3019.22 1274.01 3019.22 1284.24 3027.43 1293 3037 1293 3046.57 1293 3054.78 1284.24 3054.78 1274.01 3054.78 1252.1 3054.78 1252.1 3054.78 1252.1 3097.18 1247.72 3130 1222.88 3130 1195.13Z" fill="#50A5C2" fill-rule="evenodd"/><path d="M3101.36 1152.76C3110.91 1161.53 3115 1171.75 3115 1183.44 3115 1208.27 3089.09 1230.19 3052.27 1238.95 3048.18 1238.95 3040 1250.64 3040 1250.64 3040 1262.32 3040 1262.32 3040 1262.32 3040 1272.55 3031.82 1281.31 3022.27 1281.31 3022.27 1281.31 3020.91 1281.31 3020.91 1281.31 3023.64 1288.62 3029.09 1293 3037.27 1293 3046.82 1293 3055 1284.24 3055 1274.01 3055 1252.1 3055 1252.1 3055 1252.1 3097.27 1247.72 3130 1222.88 3130 1195.13 3130 1177.6 3119.09 1162.99 3101.36 1152.76ZM3001.82 1186.36C2993.64 1177.6 2988.18 1164.45 2988.18 1151.3 2988.18 1148.38 2988.18 1146.92 2989.55 1144 2984.09 1145.46 2984.09 1146.92 2980 1149.84 2982.73 1165.91 2988.18 1179.06 3001.82 1186.36Z" fill="#3497B8" fill-rule="evenodd"/><path d="M3041 1206.53C3068.78 1206.53 3091 1182.97 3091 1155 3089.61 1185.92 3079.89 1208 3041 1206.53Z" fill="#FFFFFF" fill-rule="evenodd"/><path d="M2950.57 1201C2945 1180.44 2967.29 1158.41 2984 1154 2975.64 1158.41 2954.75 1178.97 2950.57 1201Z" fill="#FFFFFF" fill-rule="evenodd"/><path d="M2989.25 1145.29C3003 1128 3003 1128 3003 1128 2978.25 1138.09 2950.75 1158.26 2948 1177 2948 1177 2948 1177 2948 1177 2954.88 1162.59 2968.62 1151.06 2989.25 1143.85 2989.25 1143.85 2989.25 1143.85 2989.25 1145.29Z" fill="#D2E7EF" fill-rule="evenodd"/><path d="M3130.5 1195.63C3130.5 1173.72 3112.72 1154.73 3085.37 1144.5 3085.37 1147.42 3085.37 1148.88 3085.37 1151.8 3085.37 1181.02 3063.49 1202.93 3037.5 1202.93 3010.15 1202.93 2988.26 1181.02 2988.26 1151.8 2988.26 1148.88 2988.26 1147.42 2989.63 1144.5 2962.28 1154.73 2944.5 1173.72 2944.5 1195.63 2944.5 1223.38 2977.32 1248.22 3019.72 1252.6 3019.72 1274.51 3019.72 1274.51 3019.72 1274.51 3019.72 1284.74 3027.93 1293.5 3037.5 1293.5 3047.07 1293.5 3055.28 1284.74 3055.28 1274.51 3055.28 1252.6 3055.28 1252.6 3055.28 1252.6 3097.68 1248.22 3130.5 1223.38 3130.5 1195.63Z" stroke="#333333" stroke-width="2.86476" stroke-linecap="round" stroke-linejoin="round" stroke-miterlimit="10" fill="none" fill-rule="evenodd"/><path d="M2989.55 1144.46C2988.18 1147.36 2988.18 1148.81 2988.18 1151.72 2988.18 1180.74 3010.08 1202.5 3037.45 1202.5 3055.24 1202.5 3070.29 1193.79 3078.5 1179.28 3070.29 1183.64 3062.08 1186.54 3052.5 1186.54 3026.5 1186.54 3004.61 1163.32 3004.61 1135.75 3004.61 1132.85 3004.61 1129.95 3004.61 1128.5 2979.97 1137.21 2951.24 1158.97 2948.5 1177.83 2948.5 1177.83 2948.5 1177.83 2948.5 1177.83 2955.34 1163.32 2969.03 1151.72 2989.55 1144.46Z" stroke="#333333" stroke-width="2.86476" stroke-linecap="round" stroke-linejoin="round" stroke-miterlimit="10" fill="none" fill-rule="evenodd"/><path d="M3100.5 1128.5C3085.5 1144.45 3085.5 1144.45 3085.5 1144.45 3112.77 1154.6 3130.5 1173.45 3130.5 1195.2 3130.5 1202.45 3127.77 1209.7 3123.68 1215.5 3137.32 1205.35 3145.5 1192.3 3145.5 1177.8 3145.5 1157.5 3127.77 1138.65 3100.5 1128.5Z" stroke="#333333" stroke-width="2.86476" stroke-linecap="round" stroke-linejoin="round" stroke-miterlimit="10" fill="none" fill-rule="evenodd"/><path d="M0 0 14.9998 15.9998" stroke="#333333" stroke-width="2.86476" stroke-linecap="round" stroke-linejoin="round" stroke-miterlimit="10" fill="none" fill-rule="evenodd" transform="matrix(-1 0 0 1 3003.5 1128.5)"/><path d="M3056.97 1252.36C3055.62 1253.79 3055.62 1253.79 3055.62 1253.79 3055.62 1273.79 3055.62 1273.79 3055.62 1273.79 3055.62 1280.93 3051.56 1285.21 3047.5 1289.5 3056.97 1286.64 3070.5 1268.07 3070.5 1258.07 3070.5 1249.5 3070.5 1249.5 3070.5 1249.5 3066.44 1250.93 3061.03 1252.36 3056.97 1252.36Z" stroke="#333333" stroke-width="2.86476" stroke-linecap="round" stroke-linejoin="round" stroke-miterlimit="10" fill="none" fill-rule="evenodd"/></g></svg>