<svg width="195" height="129" xmlns="http://www.w3.org/2000/svg" xmlns:xlink="http://www.w3.org/1999/xlink" xml:space="preserve" overflow="hidden"><g transform="translate(-3073 -585)"><path d="M3236.04 586C3215.62 586 3215.62 586 3215.62 586 3215.62 633.793 3215.62 633.793 3215.62 633.793 3125.74 633.793 3125.74 633.793 3125.74 633.793 3125.74 586 3125.74 586 3125.74 586 3103.96 586 3103.96 586 3103.96 586 3087.62 586 3074 600.483 3074 617.862 3074 652.621 3074 652.621 3074 652.621 3074 671.448 3087.62 684.483 3103.96 684.483 3152.98 684.483 3152.98 684.483 3152.98 684.483 3152.98 712 3152.98 712 3152.98 712 3188.38 712 3188.38 712 3188.38 712 3188.38 684.483 3188.38 684.483 3188.38 684.483 3236.04 684.483 3236.04 684.483 3236.04 684.483 3252.38 684.483 3266 671.448 3266 652.621 3266 617.862 3266 617.862 3266 617.862 3266 600.483 3252.38 586 3236.04 586Z" fill="#40DA31" fill-rule="evenodd"/><path d="M3125.63 586C3112 586 3112 586 3112 586 3125.63 623.655 3125.63 623.655 3125.63 623.655 3125.63 623.655 3125.63 623.655 3125.63 623.655L3125.63 586ZM3246.92 588.897C3251.01 593.242 3252.37 600.483 3252.37 607.724 3252.37 642.483 3252.37 642.483 3252.37 642.483 3252.37 659.862 3238.74 674.345 3222.39 674.345 3174.69 674.345 3174.69 674.345 3174.69 674.345 3174.69 700.414 3174.69 700.414 3174.69 700.414 3152.89 700.414 3152.89 700.414 3152.89 700.414 3152.89 712 3152.89 712 3152.89 712 3188.32 712 3188.32 712 3188.32 712 3188.32 684.483 3188.32 684.483 3188.32 684.483 3236.02 684.483 3236.02 684.483 3236.02 684.483 3252.37 684.483 3266 671.448 3266 652.621 3266 617.862 3266 617.862 3266 617.862 3266 604.828 3257.82 593.242 3246.92 588.897Z" fill="#1CC50C" fill-rule="evenodd"/><path d="M3079 654C3079 619.091 3079 619.091 3079 619.091 3079 601.636 3092.64 590 3109 590 3102.18 591.454 3085.82 601.636 3083.09 622 3081.73 642.364 3079 654 3079 654Z" fill="#FFFFFF" fill-rule="evenodd"/><path d="M3220.58 603C3220.58 638.143 3220.58 638.143 3220.58 638.143 3184 638.143 3184 638.143 3184 638.143 3197.55 642.536 3226 644 3226 644L3220.58 603Z" fill="#FFFFFF" fill-rule="evenodd"/><path d="M3236.54 586.5C3216.12 586.5 3216.12 586.5 3216.12 586.5 3216.12 634.293 3216.12 634.293 3216.12 634.293 3126.24 634.293 3126.24 634.293 3126.24 634.293 3126.24 586.5 3126.24 586.5 3126.24 586.5 3104.46 586.5 3104.46 586.5 3104.46 586.5 3088.12 586.5 3074.5 600.983 3074.5 618.362 3074.5 653.121 3074.5 653.121 3074.5 653.121 3074.5 671.948 3088.12 684.983 3104.46 684.983 3153.48 684.983 3153.48 684.983 3153.48 684.983 3153.48 712.5 3153.48 712.5 3153.48 712.5 3188.88 712.5 3188.88 712.5 3188.88 712.5 3188.88 684.983 3188.88 684.983 3188.88 684.983 3236.54 684.983 3236.54 684.983 3236.54 684.983 3252.88 684.983 3266.5 671.948 3266.5 653.121 3266.5 618.362 3266.5 618.362 3266.5 618.362 3266.5 600.983 3252.88 586.5 3236.54 586.5Z" stroke="#333333" stroke-width="2.86476" stroke-linecap="round" stroke-linejoin="round" stroke-miterlimit="10" fill="none" fill-rule="evenodd"/></g></svg>