<svg width="212" height="145" xmlns="http://www.w3.org/2000/svg" xmlns:xlink="http://www.w3.org/1999/xlink" xml:space="preserve" overflow="hidden"><g transform="translate(-3251 -579)"><path d="M3281.88 597.454C3303.76 597.454 3303.76 597.454 3303.76 597.454 3303.76 644 3303.76 644 3303.76 644 3394 644 3394 644 3394 644 3394 628 3394 628 3394 628 3318.8 628 3318.8 628 3318.8 628 3318.8 580 3318.8 580 3318.8 580 3298.29 580 3298.29 580 3298.29 580 3275.04 580 3264.1 597.454 3260 607.636 3260 607.636 3260 607.636 3260 607.636 3265.47 601.818 3273.67 597.454 3281.88 597.454Z" fill="#D400C0" fill-rule="evenodd"/><path d="M3430.92 580C3409.04 580 3409.04 580 3409.04 580 3409.04 580 3409.04 580 3409.04 580 3394 596.042 3394 596.042 3394 596.042 3394 597.5 3394 597.5 3394 597.5 3414.51 597.5 3414.51 597.5 3414.51 597.5 3430.92 597.5 3444.59 612.083 3444.59 629.583 3444.59 664.583 3444.59 664.583 3444.59 664.583 3444.59 671.875 3441.86 679.167 3437.75 685 3437.75 685 3437.75 685 3437.75 685 3448.69 680.625 3461 660.208 3461 647.083 3461 613.542 3461 613.542 3461 613.542 3461 594.583 3447.33 580 3430.92 580Z" fill="#840076" fill-rule="evenodd"/><path d="M3429.84 602C3445 584.4 3445 584.4 3445 584.4 3440.86 582.933 3436.73 580 3431.22 580 3409.16 580 3409.16 580 3409.16 580 3409.16 580 3409.16 580 3409.16 580 3394 596.133 3394 596.133 3394 596.133 3394 597.6 3394 597.6 3394 597.6 3414.68 597.6 3414.68 597.6 3414.68 597.6 3420.19 597.6 3425.7 599.067 3429.84 602Z" fill="#D400C0" fill-rule="evenodd"/><path d="M3414.89 597C3394.35 597 3394.35 597 3394.35 597 3394.35 643.512 3394.35 643.512 3394.35 643.512 3304.01 643.512 3304.01 643.512 3304.01 643.512 3304.01 597 3304.01 597 3304.01 597 3282.11 597 3282.11 597 3282.11 597 3265.69 597 3252 611.535 3252 628.977 3252 663.86 3252 663.86 3252 663.86 3252 681.302 3265.69 695.837 3282.11 695.837 3331.39 695.837 3331.39 695.837 3331.39 695.837 3331.39 722 3331.39 722 3331.39 722 3366.98 722 3366.98 722 3366.98 722 3366.98 695.837 3366.98 695.837 3366.98 695.837 3414.89 695.837 3414.89 695.837 3414.89 695.837 3431.31 695.837 3445 681.302 3445 663.86 3445 628.977 3445 628.977 3445 628.977 3445 611.535 3431.31 597 3414.89 597Z" fill="#BF00B0" fill-rule="evenodd"/><path d="M3303.72 597C3290 597 3290 597 3290 597 3303.72 633.337 3303.72 633.337 3303.72 633.337 3303.72 633.337 3303.72 633.337 3303.72 633.337L3303.72 597ZM3425.8 598.454C3429.91 604.268 3431.28 611.535 3431.28 618.802 3431.28 652.233 3431.28 652.233 3431.28 652.233 3431.28 671.128 3417.57 684.209 3401.11 684.209 3353.1 684.209 3353.1 684.209 3353.1 684.209 3353.1 711.826 3353.1 711.826 3353.1 711.826 3331.15 711.826 3331.15 711.826 3331.15 711.826 3331.15 722 3331.15 722 3331.15 722 3366.81 722 3366.81 722 3366.81 722 3366.81 695.837 3366.81 695.837 3366.81 695.837 3414.82 695.837 3414.82 695.837 3414.82 695.837 3431.28 695.837 3445 681.302 3445 663.86 3445 628.977 3445 628.977 3445 628.977 3445 614.442 3436.77 602.814 3425.8 598.454Z" fill="#9B008B" fill-rule="evenodd"/><path d="M3257 664C3257 629.091 3257 629.091 3257 629.091 3257 611.636 3270.64 600 3287 600 3280.18 601.454 3263.82 611.636 3261.09 632 3259.73 652.364 3257 664 3257 664Z" fill="#FFFFFF" fill-rule="evenodd"/><path d="M3399.58 613C3399.58 648.143 3399.58 648.143 3399.58 648.143 3363 648.143 3363 648.143 3363 648.143 3376.55 652.536 3405 654 3405 654L3399.58 613Z" fill="#FFFFFF" fill-rule="evenodd"/><path d="M3319 580 3319 580 3304 597.403 3304 642 3319 626.228 3319 580Z" fill="#840076" fill-rule="evenodd"/><path d="M3415.39 597.5C3394.85 597.5 3394.85 597.5 3394.85 597.5 3394.85 644.012 3394.85 644.012 3394.85 644.012 3304.51 644.012 3304.51 644.012 3304.51 644.012 3304.51 597.5 3304.51 597.5 3304.51 597.5 3282.61 597.5 3282.61 597.5 3282.61 597.5 3266.19 597.5 3252.5 612.035 3252.5 629.477 3252.5 664.36 3252.5 664.36 3252.5 664.36 3252.5 681.802 3266.19 696.337 3282.61 696.337 3331.89 696.337 3331.89 696.337 3331.89 696.337 3331.89 722.5 3331.89 722.5 3331.89 722.5 3367.48 722.5 3367.48 722.5 3367.48 722.5 3367.48 696.337 3367.48 696.337 3367.48 696.337 3415.39 696.337 3415.39 696.337 3415.39 696.337 3431.81 696.337 3445.5 681.802 3445.5 664.36 3445.5 629.477 3445.5 629.477 3445.5 629.477 3445.5 612.035 3431.81 597.5 3415.39 597.5Z" stroke="#333333" stroke-width="2.86476" stroke-linecap="round" stroke-linejoin="round" stroke-miterlimit="10" fill="none" fill-rule="evenodd"/><path d="M3282.38 597.955C3304.26 597.955 3304.26 597.955 3304.26 597.955 3304.26 644.5 3304.26 644.5 3304.26 644.5 3394.5 644.5 3394.5 644.5 3394.5 644.5 3394.5 628.5 3394.5 628.5 3394.5 628.5 3319.3 628.5 3319.3 628.5 3319.3 628.5 3319.3 580.5 3319.3 580.5 3319.3 580.5 3298.79 580.5 3298.79 580.5 3298.79 580.5 3275.54 580.5 3264.6 597.955 3260.5 608.136 3260.5 608.136 3260.5 608.136 3260.5 608.136 3265.97 602.318 3274.17 597.955 3282.38 597.955Z" stroke="#333333" stroke-width="2.86476" stroke-linecap="round" stroke-linejoin="round" stroke-miterlimit="10" fill="none" fill-rule="evenodd"/><path d="M0 0 15.0001 16.9998" stroke="#333333" stroke-width="2.86476" stroke-linecap="round" stroke-linejoin="round" stroke-miterlimit="10" fill="none" fill-rule="evenodd" transform="matrix(1 0 0 -1 3304.5 597.5)"/><path d="M0 0 15.0001 17.9999" stroke="#333333" stroke-width="2.86476" stroke-linecap="round" stroke-linejoin="round" stroke-miterlimit="10" fill="none" fill-rule="evenodd" transform="matrix(1 0 0 -1 3304.5 644.5)"/><path d="M3431.42 580.5C3409.54 580.5 3409.54 580.5 3409.54 580.5 3409.54 580.5 3409.54 580.5 3409.54 580.5 3394.5 596.542 3394.5 596.542 3394.5 596.542 3394.5 598 3394.5 598 3394.5 598 3415.01 598 3415.01 598 3415.01 598 3431.42 598 3445.09 612.583 3445.09 630.083 3445.09 665.083 3445.09 665.083 3445.09 665.083 3445.09 672.375 3442.36 679.667 3438.26 685.5 3438.26 685.5 3438.26 685.5 3438.26 685.5 3449.19 681.125 3461.5 660.708 3461.5 647.583 3461.5 614.042 3461.5 614.042 3461.5 614.042 3461.5 595.083 3447.83 580.5 3431.42 580.5Z" stroke="#333333" stroke-width="2.86476" stroke-linecap="round" stroke-linejoin="round" stroke-miterlimit="10" fill="none" fill-rule="evenodd"/></g></svg>