<svg width="195" height="129" xmlns="http://www.w3.org/2000/svg" xmlns:xlink="http://www.w3.org/1999/xlink" xml:space="preserve" overflow="hidden"><g transform="translate(-2636 -582)"><path d="M2799.04 583C2778.62 583 2778.62 583 2778.62 583 2778.62 630.793 2778.62 630.793 2778.62 630.793 2688.74 630.793 2688.74 630.793 2688.74 630.793 2688.74 583 2688.74 583 2688.74 583 2666.96 583 2666.96 583 2666.96 583 2650.62 583 2637 597.483 2637 614.862 2637 649.621 2637 649.621 2637 649.621 2637 668.448 2650.62 681.483 2666.96 681.483 2715.98 681.483 2715.98 681.483 2715.98 681.483 2715.98 709 2715.98 709 2715.98 709 2751.38 709 2751.38 709 2751.38 709 2751.38 681.483 2751.38 681.483 2751.38 681.483 2799.04 681.483 2799.04 681.483 2799.04 681.483 2815.38 681.483 2829 668.448 2829 649.621 2829 614.862 2829 614.862 2829 614.862 2829 597.483 2815.38 583 2799.04 583Z" fill="#FF0000" fill-rule="evenodd"/><path d="M2688.63 583C2675 583 2675 583 2675 583 2688.63 620.655 2688.63 620.655 2688.63 620.655 2688.63 620.655 2688.63 620.655 2688.63 620.655L2688.63 583ZM2809.92 585.897C2814.01 590.241 2815.37 597.483 2815.37 604.724 2815.37 639.483 2815.37 639.483 2815.37 639.483 2815.37 656.862 2801.74 671.345 2785.39 671.345 2737.69 671.345 2737.69 671.345 2737.69 671.345 2737.69 697.414 2737.69 697.414 2737.69 697.414 2715.89 697.414 2715.89 697.414 2715.89 697.414 2715.89 709 2715.89 709 2715.89 709 2751.32 709 2751.32 709 2751.32 709 2751.32 681.483 2751.32 681.483 2751.32 681.483 2799.02 681.483 2799.02 681.483 2799.02 681.483 2815.37 681.483 2829 668.448 2829 649.621 2829 614.862 2829 614.862 2829 614.862 2829 601.828 2820.82 590.241 2809.92 585.897Z" fill="#FF0000" fill-rule="evenodd"/><path d="M2643 651C2643 616.091 2643 616.091 2643 616.091 2643 598.636 2656.18 587 2672 587 2665.41 588.455 2649.59 598.636 2646.95 619 2645.64 639.364 2643 651 2643 651Z" fill="#FFFFFF" fill-rule="evenodd"/><path d="M2783.71 600C2783.71 634.286 2783.71 634.286 2783.71 634.286 2748 634.286 2748 634.286 2748 634.286 2761.23 638.571 2789 640 2789 640L2783.71 600Z" fill="#FFFFFF" fill-rule="evenodd"/><path d="M2799.54 583.5C2779.12 583.5 2779.12 583.5 2779.12 583.5 2779.12 631.293 2779.12 631.293 2779.12 631.293 2689.24 631.293 2689.24 631.293 2689.24 631.293 2689.24 583.5 2689.24 583.5 2689.24 583.5 2667.46 583.5 2667.46 583.5 2667.46 583.5 2651.12 583.5 2637.5 597.983 2637.5 615.362 2637.5 650.121 2637.5 650.121 2637.5 650.121 2637.5 668.948 2651.12 681.983 2667.46 681.983 2716.48 681.983 2716.48 681.983 2716.48 681.983 2716.48 709.5 2716.48 709.5 2716.48 709.5 2751.88 709.5 2751.88 709.5 2751.88 709.5 2751.88 681.983 2751.88 681.983 2751.88 681.983 2799.54 681.983 2799.54 681.983 2799.54 681.983 2815.88 681.983 2829.5 668.948 2829.5 650.121 2829.5 615.362 2829.5 615.362 2829.5 615.362 2829.5 597.983 2815.88 583.5 2799.54 583.5Z" stroke="#333333" stroke-width="2.86476" stroke-linecap="round" stroke-linejoin="round" stroke-miterlimit="10" fill="none" fill-rule="evenodd"/></g></svg>