<svg width="186" height="144" xmlns="http://www.w3.org/2000/svg" xmlns:xlink="http://www.w3.org/1999/xlink" xml:space="preserve" overflow="hidden"><g transform="translate(-1132 -580)"><path d="M1285.96 581C1272.3 581 1272.3 581 1272.3 581 1272.3 582.454 1273.66 583.907 1273.66 585.361 1273.66 614.433 1251.81 637.691 1224.5 637.691 1197.19 637.691 1176.7 614.433 1176.7 585.361 1176.7 583.907 1176.7 582.454 1176.7 581 1163.04 581 1163.04 581 1163.04 581 1146.66 581 1133 595.536 1133 612.979 1133 647.866 1133 647.866 1133 647.866 1133 665.309 1146.66 679.845 1163.04 679.845 1206.75 679.845 1206.75 679.845 1206.75 679.845 1206.75 679.845 1206.75 679.845 1206.75 679.845 1206.75 703.103 1206.75 703.103 1206.75 703.103 1206.75 713.278 1214.94 722 1224.5 722 1234.06 722 1242.25 713.278 1242.25 703.103 1242.25 679.845 1242.25 679.845 1242.25 679.845 1242.25 679.845 1242.25 679.845 1242.25 679.845 1285.96 679.845 1285.96 679.845 1285.96 679.845 1302.34 679.845 1316 665.309 1316 647.866 1316 612.979 1316 612.979 1316 612.979 1316 595.536 1302.34 581 1285.96 581Z" fill="#639A70" fill-rule="evenodd"/><path d="M1229 642.528C1256.22 642.528 1278 618.972 1278 591 1276.64 621.917 1268.47 644 1229 642.528Z" fill="#FFFFFF" fill-rule="evenodd"/><path d="M1187.82 618.794C1181 610.072 1176.91 598.443 1176.91 585.361 1176.91 583.907 1176.91 582.454 1176.91 581 1166 581 1166 581 1166 581 1167.36 596.99 1175.55 610.072 1187.82 618.794ZM1301 585.361C1303.73 589.722 1306.45 596.99 1306.45 602.804 1306.45 637.691 1306.45 637.691 1306.45 637.691 1306.45 655.134 1292.82 669.67 1276.45 669.67 1231.45 669.67 1231.45 669.67 1231.45 669.67 1231.45 669.67 1231.45 669.67 1231.45 671.124 1231.45 692.928 1231.45 692.928 1231.45 692.928 1231.45 703.103 1224.64 711.825 1215.09 711.825 1212.36 711.825 1211 711.825 1209.64 710.371 1212.36 716.185 1217.82 722 1224.64 722 1234.18 722 1242.36 713.278 1242.36 703.103 1242.36 679.845 1242.36 679.845 1242.36 679.845 1242.36 679.845 1242.36 679.845 1242.36 679.845 1286 679.845 1286 679.845 1286 679.845 1302.36 679.845 1316 665.309 1316 647.866 1316 612.979 1316 612.979 1316 612.979 1316 601.35 1310.55 591.175 1301 585.361Z" fill="#55825E" fill-rule="evenodd"/><path d="M1137 648C1137 613.091 1137 613.091 1137 613.091 1137 595.636 1150.64 584 1167 584 1160.18 586.909 1142.45 597.091 1141.09 617.455 1138.36 637.818 1137 648 1137 648Z" fill="#FFFFFF" fill-rule="evenodd"/><path d="M1286.46 581.5C1272.8 581.5 1272.8 581.5 1272.8 581.5 1272.8 582.954 1274.16 584.407 1274.16 585.861 1274.16 614.933 1252.31 638.191 1225 638.191 1197.69 638.191 1177.2 614.933 1177.2 585.861 1177.2 584.407 1177.2 582.954 1177.2 581.5 1163.54 581.5 1163.54 581.5 1163.54 581.5 1147.16 581.5 1133.5 596.036 1133.5 613.479 1133.5 648.366 1133.5 648.366 1133.5 648.366 1133.5 665.809 1147.16 680.345 1163.54 680.345 1207.25 680.345 1207.25 680.345 1207.25 680.345 1207.25 680.345 1207.25 680.345 1207.25 680.345 1207.25 703.603 1207.25 703.603 1207.25 703.603 1207.25 713.778 1215.44 722.5 1225 722.5 1234.56 722.5 1242.75 713.778 1242.75 703.603 1242.75 680.345 1242.75 680.345 1242.75 680.345 1242.75 680.345 1242.75 680.345 1242.75 680.345 1286.46 680.345 1286.46 680.345 1286.46 680.345 1302.84 680.345 1316.5 665.809 1316.5 648.366 1316.5 613.479 1316.5 613.479 1316.5 613.479 1316.5 596.036 1302.84 581.5 1286.46 581.5Z" stroke="#333333" stroke-width="2.86476" stroke-linecap="round" stroke-linejoin="round" stroke-miterlimit="10" fill="none" fill-rule="evenodd"/></g></svg>