<svg width="195" height="129" xmlns="http://www.w3.org/2000/svg" xmlns:xlink="http://www.w3.org/1999/xlink" xml:space="preserve" overflow="hidden"><g transform="translate(-2854 -585)"><path d="M3017.04 586C2996.62 586 2996.62 586 2996.62 586 2996.62 633.793 2996.62 633.793 2996.62 633.793 2906.74 633.793 2906.74 633.793 2906.74 633.793 2906.74 586 2906.74 586 2906.74 586 2884.96 586 2884.96 586 2884.96 586 2868.62 586 2855 600.483 2855 617.862 2855 652.621 2855 652.621 2855 652.621 2855 671.448 2868.62 684.483 2884.96 684.483 2933.98 684.483 2933.98 684.483 2933.98 684.483 2933.98 712 2933.98 712 2933.98 712 2969.38 712 2969.38 712 2969.38 712 2969.38 684.483 2969.38 684.483 2969.38 684.483 3017.04 684.483 3017.04 684.483 3017.04 684.483 3033.38 684.483 3047 671.448 3047 652.621 3047 617.862 3047 617.862 3047 617.862 3047 600.483 3033.38 586 3017.04 586Z" fill="#FFFF57" fill-rule="evenodd"/><path d="M2906.63 586C2893 586 2893 586 2893 586 2906.63 623.655 2906.63 623.655 2906.63 623.655 2906.63 623.655 2906.63 623.655 2906.63 623.655L2906.63 586ZM3027.92 588.897C3032.01 593.242 3033.37 600.483 3033.37 607.724 3033.37 642.483 3033.37 642.483 3033.37 642.483 3033.37 659.862 3019.74 674.345 3003.39 674.345 2955.69 674.345 2955.69 674.345 2955.69 674.345 2955.69 700.414 2955.69 700.414 2955.69 700.414 2933.89 700.414 2933.89 700.414 2933.89 700.414 2933.89 712 2933.89 712 2933.89 712 2969.32 712 2969.32 712 2969.32 712 2969.32 684.483 2969.32 684.483 2969.32 684.483 3017.02 684.483 3017.02 684.483 3017.02 684.483 3033.37 684.483 3047 671.448 3047 652.621 3047 617.862 3047 617.862 3047 617.862 3047 604.828 3038.82 593.242 3027.92 588.897Z" fill="#FFFF32" fill-rule="evenodd"/><path d="M2861 654C2861 619.091 2861 619.091 2861 619.091 2861 601.636 2874.64 590 2891 590 2884.18 591.454 2867.82 601.636 2865.09 622 2863.73 642.364 2861 654 2861 654Z" fill="#FFFFFF" fill-rule="evenodd"/><path d="M3002.58 603C3002.58 638.143 3002.58 638.143 3002.58 638.143 2966 638.143 2966 638.143 2966 638.143 2979.55 642.536 3008 644 3008 644L3002.58 603Z" fill="#FFFFFF" fill-rule="evenodd"/><path d="M3017.54 586.5C2997.12 586.5 2997.12 586.5 2997.12 586.5 2997.12 634.293 2997.12 634.293 2997.12 634.293 2907.24 634.293 2907.24 634.293 2907.24 634.293 2907.24 586.5 2907.24 586.5 2907.24 586.5 2885.46 586.5 2885.46 586.5 2885.46 586.5 2869.12 586.5 2855.5 600.983 2855.5 618.362 2855.5 653.121 2855.5 653.121 2855.5 653.121 2855.5 671.948 2869.12 684.983 2885.46 684.983 2934.48 684.983 2934.48 684.983 2934.48 684.983 2934.48 712.5 2934.48 712.5 2934.48 712.5 2969.88 712.5 2969.88 712.5 2969.88 712.5 2969.88 684.983 2969.88 684.983 2969.88 684.983 3017.54 684.983 3017.54 684.983 3017.54 684.983 3033.88 684.983 3047.5 671.948 3047.5 653.121 3047.5 618.362 3047.5 618.362 3047.5 618.362 3047.5 600.983 3033.88 586.5 3017.54 586.5Z" stroke="#333333" stroke-width="2.86476" stroke-linecap="round" stroke-linejoin="round" stroke-miterlimit="10" fill="none" fill-rule="evenodd"/></g></svg>