<svg width="204" height="169" xmlns="http://www.w3.org/2000/svg" xmlns:xlink="http://www.w3.org/1999/xlink" xml:space="preserve" overflow="hidden"><g transform="translate(-1918 -1141)"><path d="M2029.6 1268.46C2029.6 1288.88 2029.6 1288.88 2029.6 1288.88 2029.6 1293.25 2026.8 1297.63 2024 1302 2033.8 1300.54 2045 1281.58 2045 1272.83 2045 1267 2045 1267 2045 1267 2039.4 1267 2033.8 1268.46 2029.6 1268.46Z" fill="#D42414" fill-rule="evenodd"/><path d="M2068.04 1142C2053 1157.87 2053 1157.87 2053 1157.87 2083.08 1167.97 2104.96 1188.17 2104.96 1211.26 2104.96 1222.8 2099.49 1234.34 2088.55 1243 2103.59 1232.9 2120 1209.81 2120 1193.94 2120 1170.86 2099.49 1152.1 2068.04 1142Z" fill="#D42414" fill-rule="evenodd"/><path d="M1970.77 1158.06C2011.72 1234 2011.72 1234 2011.72 1234 2024 1212.1 2024 1212.1 2024 1212.1 1985.78 1142 1985.78 1142 1985.78 1142 1957.12 1150.76 1925.73 1174.13 1923 1196.03 1929.82 1179.97 1947.57 1165.36 1970.77 1158.06Z" fill="#E78466" fill-rule="evenodd"/><path d="M2105 1211.88C2105 1188.58 2083.12 1168.19 2053.03 1158 2012 1233.73 2012 1233.73 2012 1233.73 1970.97 1158 1970.97 1158 1970.97 1158 1939.51 1168.19 1919 1188.58 1919 1211.88 1919 1239.55 1951.82 1264.31 1994.22 1268.68 1994.22 1289.07 1994.22 1289.07 1994.22 1289.07 1994.22 1299.26 2002.43 1308 2012 1308 2021.57 1308 2029.78 1299.26 2029.78 1289.07 2029.78 1268.68 2029.78 1268.68 2029.78 1268.68 2072.18 1264.31 2105 1239.55 2105 1211.88Z" fill="#DB482F" fill-rule="evenodd"/><path d="M2002.18 1216.25C1970.65 1158 1970.65 1158 1970.65 1158 1967.9 1159.46 1966.53 1160.91 1963.79 1160.91 2003.55 1222.08 2003.55 1222.08 2003.55 1222.08L2002.18 1216.25ZM1980.24 1267.22C1992.58 1264.31 1992.58 1264.31 1992.58 1264.31 1974.76 1261.4 1947.34 1252.66 1935 1245.38 1945.97 1255.57 1962.42 1262.85 1980.24 1267.22ZM2073.47 1168.19C2084.44 1176.93 2091.29 1188.58 2091.29 1201.69 2091.29 1227.9 2062.5 1251.2 2025.48 1258.49 2021.37 1258.49 2015.89 1265.77 2015.89 1265.77 2015.89 1278.87 2015.89 1278.87 2015.89 1278.87 2015.89 1289.07 2007.66 1297.81 1998.06 1297.81 1998.06 1297.81 1996.69 1297.81 1996.69 1297.81 1999.44 1303.63 2004.92 1308 2011.77 1308 2021.37 1308 2029.6 1299.26 2029.6 1289.07 2029.6 1268.68 2029.6 1268.68 2029.6 1268.68 2072.1 1264.31 2105 1239.55 2105 1211.88 2105 1194.41 2092.66 1178.39 2073.47 1168.19Z" fill="#D8331E" fill-rule="evenodd"/><path d="M1925.57 1217C1920 1196.88 1943.68 1175.31 1959 1171 1950.64 1175.31 1929.75 1195.44 1925.57 1217Z" fill="#FFFFFF" fill-rule="evenodd"/><path d="M2055.89 1165.44C2023 1226 2023 1226 2023 1226 2060 1166.88 2060 1166.88 2060 1166.88 2060 1166.88 2058.63 1164 2055.89 1165.44Z" fill="#FFFFFF" fill-rule="evenodd"/><path d="M1970 1159.52C1971.35 1159.52 1971.35 1158.06 1971.35 1158.06 2011.85 1234 2011.85 1234 2011.85 1234 2024 1212.1 2024 1212.1 2024 1212.1 1986.2 1142 1986.2 1142 1986.2 1142L1970 1159.52Z" fill="#E47557" fill-rule="evenodd"/><path d="M2105.5 1212.38C2105.5 1189.08 2083.62 1168.69 2053.53 1158.5 2012.5 1234.23 2012.5 1234.23 2012.5 1234.23 1971.47 1158.5 1971.47 1158.5 1971.47 1158.5 1940.01 1168.69 1919.5 1189.08 1919.5 1212.38 1919.5 1240.05 1952.32 1264.81 1994.72 1269.18 1994.72 1289.57 1994.72 1289.57 1994.72 1289.57 1994.72 1299.76 2002.93 1308.5 2012.5 1308.5 2022.07 1308.5 2030.28 1299.76 2030.28 1289.57 2030.28 1269.18 2030.28 1269.18 2030.28 1269.18 2072.68 1264.81 2105.5 1240.05 2105.5 1212.38Z" stroke="#333333" stroke-width="2.86476" stroke-linecap="round" stroke-linejoin="round" stroke-miterlimit="10" fill="none" fill-rule="evenodd"/><path d="M2030.1 1268.96C2030.1 1289.37 2030.1 1289.37 2030.1 1289.37 2030.1 1293.75 2027.3 1298.12 2024.5 1302.5 2034.3 1301.04 2045.5 1282.08 2045.5 1273.33 2045.5 1267.5 2045.5 1267.5 2045.5 1267.5 2039.9 1267.5 2034.3 1268.96 2030.1 1268.96Z" stroke="#333333" stroke-width="2.86476" stroke-linecap="round" stroke-linejoin="round" stroke-miterlimit="10" fill="none" fill-rule="evenodd"/><path d="M0 0 15.0001 16.9998" stroke="#333333" stroke-width="2.86476" stroke-linecap="round" stroke-linejoin="round" stroke-miterlimit="10" fill="none" fill-rule="evenodd" transform="matrix(-1 0 0 1 1986.5 1142.5)"/><path d="M2068.54 1142.5C2053.5 1158.37 2053.5 1158.37 2053.5 1158.37 2083.58 1168.47 2105.46 1188.67 2105.46 1211.76 2105.46 1223.3 2099.99 1234.84 2089.05 1243.5 2104.09 1233.4 2120.5 1210.31 2120.5 1194.44 2120.5 1171.36 2099.99 1152.6 2068.54 1142.5Z" stroke="#333333" stroke-width="2.86476" stroke-linecap="round" stroke-linejoin="round" stroke-miterlimit="10" fill="none" fill-rule="evenodd"/><path d="M1971.27 1158.56C2012.22 1234.5 2012.22 1234.5 2012.22 1234.5 2024.5 1212.6 2024.5 1212.6 2024.5 1212.6 1986.28 1142.5 1986.28 1142.5 1986.28 1142.5 1957.62 1151.26 1926.23 1174.63 1923.5 1196.53 1930.32 1180.47 1948.07 1165.87 1971.27 1158.56Z" stroke="#333333" stroke-width="2.86476" stroke-linecap="round" stroke-linejoin="round" stroke-miterlimit="10" fill="none" fill-rule="evenodd"/></g></svg>