<svg width="114" height="190" xmlns="http://www.w3.org/2000/svg" xmlns:xlink="http://www.w3.org/1999/xlink" xml:space="preserve" overflow="hidden"><g transform="translate(-797 -1695)"><path d="M865.683 1793.34C884.634 1780.32 909 1742.72 909 1700.78 909 1695 904.939 1696.45 899.524 1696.45 894.11 1696.45 888.695 1695 888.695 1700.78 888.695 1732.6 873.805 1758.63 861.622 1770.2 857.561 1775.98 849.439 1774.54 845.378 1770.2 833.195 1758.63 816.951 1732.6 816.951 1700.78 816.951 1695 812.89 1696.45 807.475 1696.45 802.061 1696.45 798 1695 798 1700.78 798 1742.72 821.012 1780.32 839.963 1793.34 844.024 1796.23 844.024 1800.57 844.024 1800.57 844.024 1872.88 844.024 1872.88 844.024 1872.88 844.024 1878.66 848.085 1883 853.5 1883 858.914 1883 862.975 1878.66 862.975 1872.88 862.975 1799.12 862.975 1799.12 862.975 1799.12 862.975 1799.12 862.975 1796.23 865.683 1793.34Z" fill="#F46300" fill-rule="evenodd"/><path d="M845 1792C825.75 1779.06 801 1741.69 801 1700 802.375 1715.81 820.25 1771.88 845 1792Z" fill="#FFFFFF" fill-rule="evenodd"/><path d="M892.286 1704C892.286 1734.47 877.357 1759.14 866.5 1770.74 863.786 1773.65 859.714 1776.55 857 1776.55 867.857 1778 895 1750.43 892.286 1704Z" fill="#FFFFFF" fill-rule="evenodd"/><path d="M866.183 1793.84C885.134 1780.82 909.5 1743.22 909.5 1701.28 909.5 1695.5 905.439 1696.95 900.024 1696.95 894.61 1696.95 889.195 1695.5 889.195 1701.28 889.195 1733.1 874.305 1759.13 862.122 1770.7 858.061 1776.48 849.939 1775.04 845.878 1770.7 833.695 1759.13 817.451 1733.1 817.451 1701.28 817.451 1695.5 813.39 1696.95 807.976 1696.95 802.561 1696.95 798.5 1695.5 798.5 1701.28 798.5 1743.22 821.512 1780.82 840.464 1793.84 844.524 1796.73 844.524 1801.07 844.524 1801.07 844.524 1873.38 844.524 1873.38 844.524 1873.38 844.524 1879.16 848.585 1883.5 854 1883.5 859.415 1883.5 863.476 1879.16 863.476 1873.38 863.476 1799.62 863.476 1799.62 863.476 1799.62 863.476 1799.62 863.476 1796.73 866.183 1793.84Z" stroke="#333333" stroke-width="2.86476" stroke-linecap="round" stroke-linejoin="round" stroke-miterlimit="10" fill="none" fill-rule="evenodd"/></g></svg>