<svg width="638" height="658" xmlns="http://www.w3.org/2000/svg" xmlns:xlink="http://www.w3.org/1999/xlink" xml:space="preserve" overflow="hidden"><g transform="translate(-3047 -539)"><path d="M3437.55 655.392C3432.42 654.475 3427.3 655.392 3423.88 655.392 3420.46 656.31 3417.9 657.228 3416.19 656.31 3409.36 656.31 3405.09 651.721 3399.97 646.215 3397.41 643.462 3397.41 643.462 3397.41 643.462 3381.18 627.861 3356.41 604 3329.08 626.943 3317.98 635.203 3312 646.215 3312 656.31 3312 663.652 3313.71 673.747 3324.81 682.924 3331.64 688.43 3331.64 688.43 3331.64 688.43 3341.89 696.69 3350.43 703.114 3353.85 715.044 3356.41 725.139 3357.26 737.07 3357.26 749 3359.83 749 3362.39 749 3364.95 749 3367.51 749 3369.22 749 3370.93 749 3370.93 736.152 3370.08 722.386 3366.66 710.456 3361.54 693.937 3350.43 684.759 3340.18 676.5 3333.35 670.994 3333.35 670.994 3333.35 670.994 3328.23 666.405 3325.66 661.816 3325.66 657.228 3325.66 650.804 3329.94 644.38 3336.77 638.873 3354.7 624.19 3369.22 636.12 3388.01 654.475 3388.01 654.475 3390.57 657.228 3390.57 657.228 3396.55 663.652 3403.38 670.076 3414.49 670.994 3418.76 671.911 3423.03 670.994 3426.44 670.076 3429.86 669.158 3432.42 669.158 3434.98 669.158 3447.79 671.911 3454.63 696.69 3455.48 712.291 3456.34 717.797 3456.34 724.221 3455.48 732.481 3455.48 749 3455.48 749 3455.48 749 3457.19 749 3459.75 749 3462.31 749 3464.02 749 3466.58 749 3469.15 749 3469.15 732.481 3469.15 732.481 3469.15 732.481 3470 724.221 3470 717.797 3469.15 710.456 3467.44 687.513 3458.04 659.063 3437.55 655.392Z" fill="#C1E339" fill-rule="evenodd"/><path d="M3643.24 660.099C3647.53 656.43 3652.68 654.595 3656.97 655.512 3660.4 656.43 3662.97 658.265 3665.55 661.934 3672.41 673.86 3668.12 686.703 3662.97 700.463 3661.26 704.132 3661.26 704.132 3661.26 704.132 3656.11 716.058 3651.82 727.984 3650.96 742.661 3650.96 749.083 3650.96 749.083 3650.96 749.083 3652.68 749.083 3654.39 749.083 3656.97 749.083 3659.54 749.083 3662.12 749.083 3664.69 749.083 3664.69 742.661 3664.69 742.661 3664.69 742.661 3664.69 731.653 3668.98 721.562 3673.27 710.554 3674.99 705.967 3674.99 705.967 3674.99 705.967 3681.85 690.372 3687 672.025 3676.7 654.595 3673.27 647.256 3667.26 642.669 3659.54 640.835 3651.82 639 3642.38 641.752 3634.66 648.174 3629.51 652.76 3626.94 658.265 3623.5 662.851 3620.93 668.355 3617.5 672.942 3614.06 674.777 3610.63 675.694 3606.34 675.694 3602.05 674.777 3597.76 674.777 3593.47 674.777 3588.32 675.694 3558.29 681.198 3554.86 717.893 3554 749.083 3555.72 749.083 3557.43 749.083 3559.15 749.083 3562.58 749.083 3565.15 749.083 3567.73 750 3567.73 722.479 3570.3 694.041 3590.9 689.455 3593.47 689.455 3596.9 689.455 3601.19 689.455 3606.34 690.372 3613.21 691.289 3619.21 688.537 3626.94 684.868 3631.23 677.529 3635.52 671.107 3638.09 666.521 3639.81 661.934 3643.24 660.099Z" fill="#C1E339" fill-rule="evenodd"/><path d="M3232.25 700.091C3227.09 701.939 3227.09 701.939 3227.09 701.939 3220.21 704.712 3215.05 701.939 3207.31 697.318 3201.29 692.697 3194.41 689 3184.94 689 3178.06 689.924 3172.04 692.697 3168.6 697.318 3160 707.485 3160.86 724.121 3161.72 742.606 3162.58 749.076 3162.58 749.076 3162.58 749.076 3165.16 749.076 3167.74 749.076 3171.18 749.076 3172.9 749.076 3174.62 749.076 3176.34 749.076 3175.48 741.682 3175.48 741.682 3175.48 741.682 3174.62 726.894 3173.76 713.03 3178.92 707.485 3179.78 705.636 3181.5 704.712 3185.8 703.788 3190.97 703.788 3195.27 706.561 3200.43 710.258 3208.17 714.879 3217.63 720.424 3231.39 715.803 3236.55 713.955 3236.55 713.955 3236.55 713.955 3249.45 709.333 3255.48 706.561 3263.22 719.5 3268.38 726.894 3267.52 732.439 3265.8 741.682 3264.94 744.455 3264.94 746.303 3264.08 749.076 3265.8 749.076 3266.66 749.076 3268.38 749.076 3271.82 749.076 3275.26 749.076 3277.84 750 3278.7 748.152 3278.7 746.303 3278.7 745.379 3281.28 734.288 3283 724.121 3274.4 711.182 3260.64 689 3246.01 695.47 3232.25 700.091Z" fill="#C1E339" fill-rule="evenodd"/><path d="M3126.61 541.739C3123.22 539 3118.97 539.913 3116.43 542.652 3113.04 549.043 3106.25 552.696 3099.47 556.348 3090.14 561.826 3079.96 568.217 3074.03 581.913 3063 607.478 3068.94 632.13 3074.03 656.783 3076.57 666.826 3076.57 666.826 3076.57 666.826 3079.96 681.435 3076.57 696.044 3072.33 711.565 3069.78 722.522 3069.78 722.522 3069.78 722.522 3068.09 731.652 3067.24 740.783 3067.24 749 3069.78 749 3071.48 749 3074.03 749 3076.57 749 3079.11 749 3080.81 749 3080.81 741.696 3081.66 733.478 3083.35 726.174 3085.9 715.217 3085.9 715.217 3085.9 715.217 3090.14 698.783 3094.38 682.348 3090.14 663.174 3087.59 653.13 3087.59 653.13 3087.59 653.13 3082.51 630.304 3077.42 609.304 3086.75 587.391 3090.14 579.174 3097.77 574.609 3106.25 569.13 3113.89 564.565 3121.52 560 3127.46 551.783 3130 549.043 3129.15 544.478 3126.61 541.739Z" fill="#C1E339" fill-rule="evenodd"/><path d="M3179.88 1048C3176.46 1048.92 3173.9 1048.92 3171.34 1048.92 3168.78 1048.92 3167.08 1048.92 3165.37 1048.92 3166.22 1051.67 3166.22 1054.42 3167.08 1057.17 3168.78 1080.08 3170.49 1093.83 3151.71 1104.83 3145.74 1107.58 3132.94 1108.5 3123.55 1108.5 3116.72 1108.5 3116.72 1108.5 3116.72 1108.5 3111.6 1108.5 3111.6 1108.5 3111.6 1108.5 3097.94 1109.42 3081.73 1110.33 3074.9 1100.25 3067.22 1090.17 3069.78 1082.83 3075.75 1068.17 3079.17 1061.75 3080.02 1057.17 3080.02 1048.92 3078.31 1048.92 3075.75 1048.92 3074.04 1048.92 3071.48 1048.92 3068.92 1048.92 3066.36 1048 3066.36 1055.33 3065.51 1057.17 3063.8 1061.75 3063.8 1061.75 3063.8 1062.67 3063.8 1062.67 3056.97 1077.33 3051 1092 3063.8 1109.42 3075.75 1125 3096.24 1124.08 3112.45 1123.17 3117.57 1123.17 3117.57 1123.17 3117.57 1123.17 3117.57 1123.17 3124.4 1123.17 3124.4 1123.17 3135.5 1123.17 3149.15 1122.25 3157.69 1117.67 3185 1102.08 3182.44 1078.25 3179.88 1055.33 3179.88 1053.5 3179.88 1050.75 3179.88 1048Z" fill="#C1E339" fill-rule="evenodd"/><path d="M3374.47 1089.43C3365.88 1085.75 3360.72 1082.99 3359 1074.7 3358.14 1070.1 3362.44 1063.65 3366.74 1056.29 3368.46 1054.45 3370.18 1051.68 3371.89 1048.92 3370.18 1048.92 3367.6 1048.92 3365.02 1048.92 3361.58 1048.92 3359 1048.92 3355.56 1048 3349.54 1057.21 3343.53 1066.41 3346.11 1078.38 3348.68 1093.12 3359.86 1098.64 3369.32 1103.24 3376.19 1106.01 3382.21 1109.69 3384.79 1117.05 3392.53 1137.31 3373.61 1161.25 3356.42 1172.3 3349.54 1177.82 3331.49 1187.03 3316.02 1169.54 3301.4 1153.88 3300.54 1142.84 3299.68 1129.02 3298.82 1118.9 3297.97 1107.85 3292.81 1094.96 3290.23 1089.43 3286.79 1085.75 3284.21 1082.07 3280.77 1077.46 3278.19 1074.7 3276.47 1069.18 3274.75 1059.05 3274.75 1055.37 3274.75 1048.92 3273.04 1048.92 3270.46 1048.92 3267.88 1048.92 3265.3 1048.92 3263.58 1048.92 3261 1048.92 3261 1055.37 3261 1060.89 3263.58 1071.94 3265.3 1081.15 3270.46 1087.59 3273.9 1092.2 3276.47 1094.96 3279.05 1097.72 3279.91 1100.48 3284.21 1111.53 3285.07 1120.74 3285.93 1129.95 3286.79 1144.68 3288.51 1160.33 3305.7 1180.59 3321.18 1197.16 3343.53 1199 3364.16 1185.19 3385.65 1170.46 3408 1139.15 3397.68 1111.53 3392.53 1098.64 3383.07 1093.12 3374.47 1089.43Z" fill="#C1E339" fill-rule="evenodd"/><path d="M3558.99 1048.92C3556.42 1048.92 3553.84 1048.92 3551.27 1048 3551.27 1059.08 3551.27 1077.54 3548.69 1078.46 3541.83 1081.23 3533.25 1082.15 3522.95 1082.15 3515.22 1083.08 3508.36 1083.08 3502.35 1084 3492.91 1085.85 3492.91 1085.85 3492.91 1085.85 3477.46 1089.54 3472.31 1091.38 3466.31 1074.77 3463.73 1067.38 3463.73 1064.62 3464.59 1055.38 3464.59 1053.54 3465.45 1051.69 3465.45 1048.92 3464.59 1048.92 3462.87 1048.92 3462.01 1048.92 3458.58 1048.92 3455.15 1048.92 3451.72 1048 3451.72 1050.77 3451.72 1052.62 3450.86 1054.46 3450 1063.69 3450 1069.23 3453.43 1079.38 3463.73 1108 3480.9 1104.31 3496.34 1100.62 3504.93 1098.77 3504.93 1098.77 3504.93 1098.77 3509.22 1097.85 3516.08 1097.85 3523.81 1096.92 3535.82 1096.92 3544.4 1096 3552.98 1092.31 3565 1087.69 3565 1071.08 3565 1048.92 3563.28 1048.92 3560.71 1048.92 3558.99 1048.92Z" fill="#C1E339" fill-rule="evenodd"/><path d="M3662.83 1070.1C3661.14 1061.81 3661.14 1058.13 3661.14 1049.84 3661.98 1048.92 3661.98 1048.92 3661.98 1048.92 3660.29 1048.92 3658.59 1048.92 3656.9 1048.92 3653.51 1048.92 3650.97 1048.92 3648.42 1048 3648.42 1048.92 3648.42 1048.92 3648.42 1048.92 3647.58 1058.13 3647.58 1063.65 3650.12 1073.78 3650.12 1073.78 3651.81 1080.23 3651.81 1080.23 3656.05 1092.2 3657.75 1100.49 3652.66 1107.85 3650.12 1111.53 3645.88 1114.3 3640.8 1117.06 3635.71 1118.9 3629.78 1121.66 3625.54 1127.19 3623 1130.87 3623 1135.48 3626.39 1138.24 3628.93 1141 3633.17 1140.08 3635.71 1137.32 3638.25 1134.55 3642.49 1131.79 3646.73 1129.95 3652.66 1127.19 3659.44 1123.5 3664.53 1116.14 3673 1101.41 3668.76 1086.67 3664.53 1075.62L3662.83 1070.1Z" fill="#C1E339" fill-rule="evenodd"/><path d="M3065 1108C3053 1091.6 3059.86 1075.2 3064.14 1067 3061.57 1072.47 3057.29 1095.24 3065 1108Z" fill="#FFFFFF" fill-rule="evenodd"/><path d="M3170.2 1070C3171.9 1080.91 3171.05 1106.36 3143 1110 3158.3 1109.09 3177 1100.91 3170.2 1070Z" fill="#FFFFFF" fill-rule="evenodd"/><path d="M3353.11 1057C3346.89 1065.23 3346 1078.94 3354 1089 3350.44 1079.86 3348.67 1067.97 3353.11 1057Z" fill="#FFFFFF" fill-rule="evenodd"/><path d="M3342 1182C3378.86 1173.8 3388.29 1144.66 3390 1131 3387.43 1139.2 3375.43 1173.8 3342 1182Z" fill="#FFFFFF" fill-rule="evenodd"/><path d="M3287 1119C3287.83 1128.15 3287 1155.61 3302 1173 3295.33 1162.93 3289.5 1144.63 3287 1119Z" fill="#FFFFFF" fill-rule="evenodd"/><path d="M3532.71 1087.12C3538.76 1087.12 3547.41 1085.38 3550 1081 3550 1081 3548.27 1082.75 3535.3 1084.5 3521.47 1086.25 3508.51 1084.5 3499 1088 3504.19 1087.12 3522.34 1087.12 3532.71 1087.12Z" fill="#FFFFFF" fill-rule="evenodd"/><path d="M3651.57 1069C3654.06 1078.9 3664 1099.6 3654.89 1109.5 3645.77 1118.5 3635 1123 3635 1123 3643.29 1119.4 3653.23 1115.8 3657.37 1110.4 3661.51 1104.1 3663.17 1097.8 3659.86 1087.9 3656.54 1078 3650.74 1074.4 3651.57 1069Z" fill="#FFFFFF" fill-rule="evenodd"/><path d="M3080 576C3070.65 588.775 3063 612.5 3075.75 649 3071.5 631.663 3067.25 599.725 3080 576Z" fill="#FFFFFF" fill-rule="evenodd"/><path d="M3198 695.613C3186.95 690.935 3168.25 690 3164 719 3168.25 708.71 3171.65 690.935 3198 695.613Z" fill="#FFFFFF" fill-rule="evenodd"/><path d="M3228 704C3238.98 702.143 3249.96 691 3266 704 3260.93 700.286 3252.49 700.286 3245.73 701.214 3238.98 702.143 3228 704 3228 704Z" fill="#FFFFFF" fill-rule="evenodd"/><path d="M3316 648C3319.42 637.029 3339.93 616 3363 621.486 3354.45 619.657 3332.24 626.057 3316 648Z" fill="#FFFFFF" fill-rule="evenodd"/><path d="M3450 665C3437.43 654 3427.38 657.667 3419 660.417 3428.22 659.5 3442.46 659.5 3450 665Z" fill="#FFFFFF" fill-rule="evenodd"/><path d="M3559 717C3562.47 700.532 3567.67 685.894 3583.27 680.404 3599.73 674 3611 678.575 3611 678.575 3602.33 677.66 3588.47 675.83 3575.47 688.638 3562.47 702.362 3559 717 3559 717Z" fill="#FFFFFF" fill-rule="evenodd"/><path d="M3670.41 669C3673 674.463 3672.14 687.209 3666.95 699.045 3661.77 711.791 3654.86 724.537 3654 730 3654.86 721.806 3666.09 699.045 3667.82 688.119 3670.41 677.194 3670.41 669 3670.41 669Z" fill="#FFFFFF" fill-rule="evenodd"/><path d="M3438.05 655.892C3432.92 654.975 3427.8 655.892 3424.38 655.892 3420.96 656.81 3418.4 657.728 3416.69 656.81 3409.86 656.81 3405.59 652.222 3400.47 646.715 3397.91 643.962 3397.91 643.962 3397.91 643.962 3381.68 628.361 3356.91 604.5 3329.58 627.443 3318.48 635.703 3312.5 646.715 3312.5 656.81 3312.5 664.152 3314.21 674.247 3325.31 683.424 3332.14 688.93 3332.14 688.93 3332.14 688.93 3342.39 697.19 3350.93 703.614 3354.35 715.544 3356.91 725.639 3357.76 737.57 3357.76 749.5 3360.33 749.5 3362.89 749.5 3365.45 749.5 3368.01 749.5 3369.72 749.5 3371.43 749.5 3371.43 736.652 3370.58 722.886 3367.16 710.956 3362.03 694.437 3350.93 685.26 3340.68 677 3333.85 671.494 3333.85 671.494 3333.85 671.494 3328.73 666.905 3326.16 662.317 3326.16 657.728 3326.16 651.304 3330.43 644.88 3337.27 639.374 3355.2 624.69 3369.72 636.62 3388.51 654.975 3388.51 654.975 3391.07 657.728 3391.07 657.728 3397.05 664.152 3403.88 670.576 3414.99 671.494 3419.26 672.411 3423.53 671.494 3426.94 670.576 3430.36 669.658 3432.92 669.658 3435.48 669.658 3448.29 672.411 3455.13 697.19 3455.98 712.791 3456.83 718.297 3456.83 724.721 3455.98 732.981 3455.98 749.5 3455.98 749.5 3455.98 749.5 3457.69 749.5 3460.25 749.5 3462.81 749.5 3464.52 749.5 3467.08 749.5 3469.65 749.5 3469.65 732.981 3469.65 732.981 3469.65 732.981 3470.5 724.721 3470.5 718.297 3469.65 710.956 3467.94 688.013 3458.54 659.563 3438.05 655.892Z" stroke="#333333" stroke-width="2.86476" stroke-linecap="round" stroke-linejoin="round" stroke-miterlimit="10" fill="none" fill-rule="evenodd"/><path d="M3643.74 660.599C3648.03 656.93 3653.18 655.095 3657.47 656.012 3660.9 656.93 3663.47 658.764 3666.05 662.434 3672.91 674.359 3668.62 687.202 3663.47 700.963 3661.76 704.632 3661.76 704.632 3661.76 704.632 3656.61 716.558 3652.32 728.483 3651.46 743.161 3651.46 749.583 3651.46 749.583 3651.46 749.583 3653.18 749.583 3654.89 749.583 3657.47 749.583 3660.04 749.583 3662.62 749.583 3665.19 749.583 3665.19 743.161 3665.19 743.161 3665.19 743.161 3665.19 732.153 3669.48 722.062 3673.77 711.054 3675.49 706.467 3675.49 706.467 3675.49 706.467 3682.35 690.872 3687.5 672.525 3677.2 655.095 3673.77 647.756 3667.76 643.169 3660.04 641.335 3652.32 639.5 3642.88 642.252 3635.16 648.673 3630.01 653.26 3627.44 658.764 3624 663.351 3621.43 668.855 3618 673.442 3614.56 675.277 3611.13 676.194 3606.84 676.194 3602.55 675.277 3598.26 675.277 3593.97 675.277 3588.82 676.194 3558.79 681.698 3555.36 718.392 3554.5 749.583 3556.22 749.583 3557.93 749.583 3559.65 749.583 3563.08 749.583 3565.65 749.583 3568.23 750.5 3568.23 722.979 3570.8 694.541 3591.4 689.954 3593.97 689.954 3597.4 689.954 3601.69 689.954 3606.84 690.872 3613.71 691.789 3619.71 689.037 3627.44 685.368 3631.73 678.029 3636.02 671.607 3638.59 667.021 3640.31 662.434 3643.74 660.599Z" stroke="#333333" stroke-width="2.86476" stroke-linecap="round" stroke-linejoin="round" stroke-miterlimit="10" fill="none" fill-rule="evenodd"/><path d="M3232.75 700.591C3227.59 702.439 3227.59 702.439 3227.59 702.439 3220.71 705.212 3215.55 702.439 3207.81 697.818 3201.79 693.197 3194.91 689.5 3185.44 689.5 3178.56 690.424 3172.54 693.197 3169.1 697.818 3160.5 707.985 3161.36 724.621 3162.22 743.106 3163.08 749.576 3163.08 749.576 3163.08 749.576 3165.66 749.576 3168.24 749.576 3171.68 749.576 3173.4 749.576 3175.12 749.576 3176.84 749.576 3175.98 742.182 3175.98 742.182 3175.98 742.182 3175.12 727.394 3174.26 713.53 3179.42 707.985 3180.28 706.136 3182 705.212 3186.3 704.288 3191.47 704.288 3195.77 707.061 3200.93 710.758 3208.67 715.379 3218.13 720.924 3231.89 716.303 3237.05 714.455 3237.05 714.455 3237.05 714.455 3249.95 709.833 3255.98 707.061 3263.72 720 3268.88 727.394 3268.02 732.939 3266.3 742.182 3265.44 744.954 3265.44 746.803 3264.58 749.576 3266.3 749.576 3267.16 749.576 3268.88 749.576 3272.32 749.576 3275.76 749.576 3278.34 750.5 3279.2 748.651 3279.2 746.803 3279.2 745.879 3281.78 734.788 3283.5 724.621 3274.9 711.682 3261.14 689.5 3246.51 695.97 3232.75 700.591Z" stroke="#333333" stroke-width="2.86476" stroke-linecap="round" stroke-linejoin="round" stroke-miterlimit="10" fill="none" fill-rule="evenodd"/><path d="M3127.11 542.239C3123.72 539.5 3119.47 540.413 3116.93 543.152 3113.54 549.543 3106.75 553.195 3099.97 556.848 3090.64 562.326 3080.46 568.717 3074.53 582.413 3063.5 607.978 3069.44 632.63 3074.53 657.282 3077.07 667.326 3077.07 667.326 3077.07 667.326 3080.46 681.935 3077.07 696.543 3072.83 712.065 3070.28 723.022 3070.28 723.022 3070.28 723.022 3068.59 732.152 3067.74 741.282 3067.74 749.5 3070.28 749.5 3071.98 749.5 3074.53 749.5 3077.07 749.5 3079.61 749.5 3081.31 749.5 3081.31 742.195 3082.16 733.978 3083.85 726.674 3086.4 715.717 3086.4 715.717 3086.4 715.717 3090.64 699.282 3094.88 682.848 3090.64 663.674 3088.09 653.63 3088.09 653.63 3088.09 653.63 3083.01 630.804 3077.92 609.804 3087.25 587.891 3090.64 579.674 3098.27 575.109 3106.75 569.63 3114.39 565.065 3122.02 560.5 3127.96 552.282 3130.5 549.543 3129.65 544.978 3127.11 542.239Z" stroke="#333333" stroke-width="2.86476" stroke-linecap="round" stroke-linejoin="round" stroke-miterlimit="10" fill="none" fill-rule="evenodd"/><path d="M3180.38 1048.5C3176.97 1049.42 3174.4 1049.42 3171.84 1049.42 3169.28 1049.42 3167.58 1049.42 3165.87 1049.42 3166.72 1052.17 3166.72 1054.92 3167.58 1057.67 3169.28 1080.58 3170.99 1094.33 3152.21 1105.33 3146.24 1108.08 3133.44 1109 3124.05 1109 3117.22 1109 3117.22 1109 3117.22 1109 3112.1 1109 3112.1 1109 3112.1 1109 3098.44 1109.92 3082.23 1110.83 3075.4 1100.75 3067.72 1090.67 3070.28 1083.33 3076.25 1068.67 3079.67 1062.25 3080.52 1057.67 3080.52 1049.42 3078.81 1049.42 3076.25 1049.42 3074.54 1049.42 3071.98 1049.42 3069.42 1049.42 3066.86 1048.5 3066.86 1055.83 3066.01 1057.67 3064.3 1062.25 3064.3 1062.25 3064.3 1063.17 3064.3 1063.17 3057.47 1077.83 3051.5 1092.5 3064.3 1109.92 3076.25 1125.5 3096.74 1124.58 3112.95 1123.67 3118.07 1123.67 3118.07 1123.67 3118.07 1123.67 3118.07 1123.67 3124.9 1123.67 3124.9 1123.67 3136 1123.67 3149.65 1122.75 3158.19 1118.17 3185.5 1102.58 3182.94 1078.75 3180.38 1055.83 3180.38 1054 3180.38 1051.25 3180.38 1048.5Z" stroke="#333333" stroke-width="2.86476" stroke-linecap="round" stroke-linejoin="round" stroke-miterlimit="10" fill="none" fill-rule="evenodd"/><path d="M3374.97 1089.93C3366.38 1086.25 3361.22 1083.49 3359.5 1075.2 3358.64 1070.6 3362.94 1064.15 3367.24 1056.79 3368.96 1054.94 3370.68 1052.18 3372.39 1049.42 3370.68 1049.42 3368.1 1049.42 3365.52 1049.42 3362.08 1049.42 3359.5 1049.42 3356.06 1048.5 3350.04 1057.71 3344.03 1066.91 3346.61 1078.88 3349.18 1093.62 3360.36 1099.14 3369.82 1103.74 3376.69 1106.51 3382.71 1110.19 3385.29 1117.55 3393.03 1137.81 3374.11 1161.75 3356.92 1172.8 3350.04 1178.32 3331.99 1187.53 3316.52 1170.04 3301.9 1154.38 3301.04 1143.34 3300.18 1129.52 3299.32 1119.4 3298.46 1108.35 3293.31 1095.46 3290.73 1089.93 3287.29 1086.25 3284.71 1082.57 3281.27 1077.96 3278.69 1075.2 3276.97 1069.68 3275.25 1059.55 3275.25 1055.87 3275.25 1049.42 3273.54 1049.42 3270.96 1049.42 3268.38 1049.42 3265.8 1049.42 3264.08 1049.42 3261.5 1049.42 3261.5 1055.87 3261.5 1061.39 3264.08 1072.44 3265.8 1081.65 3270.96 1088.09 3274.39 1092.69 3276.97 1095.46 3279.55 1098.22 3280.41 1100.98 3284.71 1112.03 3285.57 1121.24 3286.43 1130.44 3287.29 1145.18 3289.01 1160.83 3306.2 1181.09 3321.68 1197.66 3344.03 1199.5 3364.66 1185.69 3386.15 1170.96 3408.5 1139.65 3398.18 1112.03 3393.03 1099.14 3383.57 1093.62 3374.97 1089.93Z" stroke="#333333" stroke-width="2.86476" stroke-linecap="round" stroke-linejoin="round" stroke-miterlimit="10" fill="none" fill-rule="evenodd"/><path d="M3559.49 1049.42C3556.92 1049.42 3554.34 1049.42 3551.77 1048.5 3551.77 1059.58 3551.77 1078.04 3549.19 1078.96 3542.33 1081.73 3533.75 1082.65 3523.45 1082.65 3515.72 1083.58 3508.86 1083.58 3502.85 1084.5 3493.41 1086.35 3493.41 1086.35 3493.41 1086.35 3477.96 1090.04 3472.81 1091.88 3466.81 1075.27 3464.23 1067.88 3464.23 1065.12 3465.09 1055.88 3465.09 1054.04 3465.95 1052.19 3465.95 1049.42 3465.09 1049.42 3463.37 1049.42 3462.51 1049.42 3459.08 1049.42 3455.65 1049.42 3452.22 1048.5 3452.22 1051.27 3452.22 1053.12 3451.36 1054.96 3450.5 1064.19 3450.5 1069.73 3453.93 1079.88 3464.23 1108.5 3481.4 1104.81 3496.84 1101.12 3505.43 1099.27 3505.43 1099.27 3505.43 1099.27 3509.72 1098.35 3516.58 1098.35 3524.31 1097.42 3536.32 1097.42 3544.9 1096.5 3553.48 1092.81 3565.5 1088.19 3565.5 1071.58 3565.5 1049.42 3563.78 1049.42 3561.21 1049.42 3559.49 1049.42Z" stroke="#333333" stroke-width="2.86476" stroke-linecap="round" stroke-linejoin="round" stroke-miterlimit="10" fill="none" fill-rule="evenodd"/><path d="M3663.33 1070.6C3661.64 1062.31 3661.64 1058.63 3661.64 1050.34 3662.48 1049.42 3662.48 1049.42 3662.48 1049.42 3660.79 1049.42 3659.09 1049.42 3657.4 1049.42 3654.01 1049.42 3651.47 1049.42 3648.92 1048.5 3648.92 1049.42 3648.92 1049.42 3648.92 1049.42 3648.08 1058.63 3648.08 1064.15 3650.62 1074.28 3650.62 1074.28 3652.31 1080.73 3652.31 1080.73 3656.55 1092.7 3658.25 1100.99 3653.16 1108.35 3650.62 1112.03 3646.38 1114.8 3641.3 1117.56 3636.21 1119.4 3630.28 1122.16 3626.04 1127.69 3623.5 1131.37 3623.5 1135.98 3626.89 1138.74 3629.43 1141.5 3633.67 1140.58 3636.21 1137.82 3638.75 1135.05 3642.99 1132.29 3647.23 1130.45 3653.16 1127.69 3659.94 1124.01 3665.03 1116.64 3673.5 1101.91 3669.26 1087.17 3665.03 1076.12L3663.33 1070.6Z" stroke="#333333" stroke-width="2.86476" stroke-linecap="round" stroke-linejoin="round" stroke-miterlimit="10" fill="none" fill-rule="evenodd"/><path d="M3099 1026.2C3099 1044.44 3087.95 1049 3073.5 1049 3073.5 1049 3073.5 1049 3073.5 1049 3059.05 1049 3048 1044.44 3048 1026.2 3048 770.885 3048 770.885 3048 770.885 3048 753.559 3059.05 749 3073.5 749 3073.5 749 3073.5 749 3073.5 749 3087.95 749 3099 753.559 3099 770.885L3099 1026.2Z" fill="#D6EE76" fill-rule="evenodd"/><path d="M3197 1026.2C3197 1044.44 3185.07 1049 3171.43 1049 3171.43 1049 3171.43 1049 3171.43 1049 3156.93 1049 3145 1044.44 3145 1026.2 3145 770.885 3145 770.885 3145 770.885 3145 753.559 3156.93 749 3171.43 749 3171.43 749 3171.43 749 3171.43 749 3185.07 749 3197 753.559 3197 770.885L3197 1026.2Z" fill="#D6EE76" fill-rule="evenodd"/><path d="M3294 1026.2C3294 1044.44 3282.73 1049 3268 1049 3268 1049 3268 1049 3268 1049 3253.27 1049 3242 1044.44 3242 1026.2 3242 770.885 3242 770.885 3242 770.885 3242 753.559 3253.27 749 3268 749 3268 749 3268 749 3268 749 3282.73 749 3294 753.559 3294 770.885L3294 1026.2Z" fill="#D6EE76" fill-rule="evenodd"/><path d="M3391 1026.2C3391 1044.44 3379.07 1049 3364.57 1049 3364.57 1049 3364.57 1049 3364.57 1049 3350.93 1049 3339 1044.44 3339 1026.2 3339 770.885 3339 770.885 3339 770.885 3339 753.559 3350.93 749 3364.57 749 3364.57 749 3364.57 749 3364.57 749 3379.07 749 3391 753.559 3391 770.885L3391 1026.2Z" fill="#D6EE76" fill-rule="evenodd"/><path d="M3488 1026.2C3488 1044.44 3476.07 1049 3462.43 1049 3462.43 1049 3462.43 1049 3462.43 1049 3447.93 1049 3436 1044.44 3436 1026.2 3436 770.885 3436 770.885 3436 770.885 3436 753.559 3447.93 749 3462.43 749 3462.43 749 3462.43 749 3462.43 749 3476.07 749 3488 753.559 3488 770.885L3488 1026.2Z" fill="#D6EE76" fill-rule="evenodd"/><path d="M3585 1026.2C3585 1044.44 3573.95 1049 3559.5 1049 3559.5 1049 3559.5 1049 3559.5 1049 3545.05 1049 3534 1044.44 3534 1026.2 3534 770.885 3534 770.885 3534 770.885 3534 753.559 3545.05 749 3559.5 749 3559.5 749 3559.5 749 3559.5 749 3573.95 749 3585 753.559 3585 770.885L3585 1026.2Z" fill="#D6EE76" fill-rule="evenodd"/><path d="M3683 1026.2C3683 1044.44 3670.84 1049 3656.93 1049 3656.93 1049 3656.93 1049 3656.93 1049 3642.16 1049 3630 1044.44 3630 1026.2 3630 770.885 3630 770.885 3630 770.885 3630 753.559 3642.16 749 3656.93 749 3656.93 749 3656.93 749 3656.93 749 3670.84 749 3683 753.559 3683 770.885L3683 1026.2Z" fill="#D6EE76" fill-rule="evenodd"/><path d="M3057.06 1030.31C3057.06 779.375 3057.06 779.375 3057.06 779.375 3057.06 761.125 3065.71 754.738 3079.56 754.738 3086.48 754.738 3091.67 756.563 3096 760.213 3091.67 753.825 3083.88 752 3076.96 752 3062.25 752 3051 753.825 3051 771.163 3051 1024.84 3051 1024.84 3051 1024.84 3051 1034.88 3054.46 1040.35 3060.52 1044 3057.92 1040.35 3057.06 1035.79 3057.06 1030.31Z" fill="#EEF8C4" fill-rule="evenodd"/><path d="M3051 1025C3052.73 773 3052.73 773 3052.73 773 3052.73 755.652 3062.27 752 3077 752 3062.27 752 3051 753.826 3051 771.174 3051 1025 3051 1025 3051 1025" fill="#FFFFFF" fill-rule="evenodd"/><path d="M3098 772.042C3091.9 1017.61 3091.9 1017.61 3091.9 1017.61 3091.9 1035.87 3085.79 1045 3071.85 1045 3064.87 1045 3064 1045 3071.85 1045 3085.79 1045 3098 1043.17 3098 1025.83 3098 772.042 3098 772.042 3098 772.042 3098 762 3098 766.565 3098 772.042Z" fill="#B3DC10" fill-rule="evenodd"/><path d="M3153.08 1030.31C3153.08 779.375 3153.08 779.375 3153.08 779.375 3153.08 761.125 3161.75 754.738 3176.51 754.738 3182.58 754.738 3188.66 756.563 3193 760.213 3188.66 753.825 3180.85 752 3173.91 752 3159.15 752 3147 753.825 3147 771.163 3147 1024.84 3147 1024.84 3147 1024.84 3147 1034.88 3151.34 1040.35 3156.55 1044 3154.81 1040.35 3153.08 1035.79 3153.08 1030.31Z" fill="#EEF8C4" fill-rule="evenodd"/><path d="M3147 1025C3149.61 773 3149.61 773 3149.61 773 3149.61 755.652 3159.19 752 3174 752 3159.19 752 3147 753.826 3147 771.174 3147 1025 3147 1025 3147 1025" fill="#FFFFFF" fill-rule="evenodd"/><path d="M3195 772.042C3188.9 1017.61 3188.9 1017.61 3188.9 1017.61 3188.9 1035.87 3182.8 1045 3167.97 1045 3161.87 1045 3161 1045 3167.97 1045 3182.8 1045 3195 1043.17 3195 1025.83 3195 772.042 3195 772.042 3195 772.042 3195 762 3195 766.565 3195 772.042Z" fill="#B3DC10" fill-rule="evenodd"/><path d="M3250.94 1030.31C3250.94 779.375 3250.94 779.375 3250.94 779.375 3250.94 761.125 3259.43 754.738 3273.87 754.738 3279.81 754.738 3285.75 756.563 3290 760.213 3285.75 753.825 3278.11 752 3271.32 752 3256.89 752 3245 753.825 3245 771.163 3245 1024.84 3245 1024.84 3245 1024.84 3245 1034.88 3249.25 1040.35 3254.34 1044 3252.64 1040.35 3250.94 1035.79 3250.94 1030.31Z" fill="#EEF8C4" fill-rule="evenodd"/><path d="M3245 1025C3247.61 773 3247.61 773 3247.61 773 3247.61 755.652 3257.19 752 3272 752 3257.19 752 3245 753.826 3245 771.174 3245 1025 3245 1025 3245 1025" fill="#FFFFFF" fill-rule="evenodd"/><path d="M3292 772.042C3286.08 1017.61 3286.08 1017.61 3286.08 1017.61 3286.08 1035.87 3280.15 1045 3265.77 1045 3259.85 1045 3259 1045 3265.77 1045 3280.15 1045 3292 1043.17 3292 1025.83 3292 772.042 3292 772.042 3292 772.042 3292 762 3292 766.565 3292 772.042Z" fill="#B3DC10" fill-rule="evenodd"/><path d="M3347.94 1030.31C3347.94 779.375 3347.94 779.375 3347.94 779.375 3347.94 761.125 3356.43 754.738 3370.87 754.738 3376.81 754.738 3382.75 756.563 3387 760.213 3382.75 753.825 3375.11 752 3367.47 752 3353.89 752 3342 753.825 3342 771.163 3342 1024.84 3342 1024.84 3342 1024.84 3342 1034.88 3345.4 1040.35 3351.34 1044 3349.64 1040.35 3347.94 1035.79 3347.94 1030.31Z" fill="#EEF8C4" fill-rule="evenodd"/><path d="M3342 1025C3344.5 773 3344.5 773 3344.5 773 3344.5 755.652 3353.67 752 3367 752 3353.67 752 3342 753.826 3342 771.174 3342 1025 3342 1025 3342 1025" fill="#FFFFFF" fill-rule="evenodd"/><path d="M3388 772.042C3382.11 1017.61 3382.11 1017.61 3382.11 1017.61 3382.11 1035.87 3377.05 1045 3362.74 1045 3356.84 1045 3356 1045 3362.74 1045 3377.05 1045 3388 1043.17 3388 1025.83 3388 772.042 3388 772.042 3388 772.042 3388 762 3388 766.565 3388 772.042Z" fill="#B3DC10" fill-rule="evenodd"/><path d="M3445.08 1030.31C3445.08 779.375 3445.08 779.375 3445.08 779.375 3445.08 761.125 3453.75 754.738 3468.51 754.738 3474.58 754.738 3480.66 756.563 3485 760.213 3480.66 753.825 3472.85 752 3465.04 752 3451.15 752 3439 753.825 3439 771.163 3439 1024.84 3439 1024.84 3439 1024.84 3439 1034.88 3442.47 1040.35 3448.55 1044 3446.81 1040.35 3445.08 1035.79 3445.08 1030.31Z" fill="#EEF8C4" fill-rule="evenodd"/><path d="M3439 1025C3441.6 773 3441.6 773 3441.6 773 3441.6 755.652 3451.13 752 3465 752 3451.13 752 3439 753.826 3439 771.174 3439 1025 3439 1025 3439 1025" fill="#FFFFFF" fill-rule="evenodd"/><path d="M3486 772.042C3479.92 1017.61 3479.92 1017.61 3479.92 1017.61 3479.92 1035.87 3474.71 1045 3459.95 1045 3453.87 1045 3453 1045 3459.95 1045 3474.71 1045 3486 1043.17 3486 1025.83 3486 772.042 3486 772.042 3486 772.042 3486 762 3486 766.565 3486 772.042Z" fill="#B3DC10" fill-rule="evenodd"/><path d="M3542.08 1030.31C3542.08 779.375 3542.08 779.375 3542.08 779.375 3542.08 761.125 3550.75 754.738 3564.64 754.738 3571.58 754.738 3576.79 756.563 3582 760.213 3576.79 753.825 3568.98 752 3562.04 752 3547.28 752 3536 753.825 3536 771.163 3536 1024.84 3536 1024.84 3536 1024.84 3536 1034.88 3539.47 1040.35 3545.55 1044 3542.94 1040.35 3542.08 1035.79 3542.08 1030.31Z" fill="#EEF8C4" fill-rule="evenodd"/><path d="M3536 1025C3537.73 773 3537.73 773 3537.73 773 3537.73 755.652 3547.27 752 3562 752 3547.27 752 3536 753.826 3536 771.174 3536 1025 3536 1025 3536 1025" fill="#FFFFFF" fill-rule="evenodd"/><path d="M3582 772.042C3576.11 1017.61 3576.11 1017.61 3576.11 1017.61 3576.11 1035.87 3570.21 1045 3556.74 1045 3550 1045 3550 1045 3556.74 1045 3570.21 1045 3582 1043.17 3582 1025.83 3582 772.042 3582 772.042 3582 772.042 3582 762 3582 766.565 3582 772.042Z" fill="#B3DC10" fill-rule="evenodd"/><path d="M3639.94 1030.31C3639.94 779.375 3639.94 779.375 3639.94 779.375 3639.94 761.125 3648.43 754.738 3662.87 754.738 3668.81 754.738 3674.75 756.563 3679 760.213 3673.91 753.825 3666.26 752 3659.47 752 3645.04 752 3634 753.825 3634 771.163 3634 1024.84 3634 1024.84 3634 1024.84 3634 1034.88 3637.4 1040.35 3643.34 1044 3640.79 1040.35 3639.94 1035.79 3639.94 1030.31Z" fill="#EEF8C4" fill-rule="evenodd"/><path d="M3634 1025C3635.67 773 3635.67 773 3635.67 773 3635.67 755.652 3644.83 752 3659 752 3644.83 752 3634 753.826 3634 771.174 3634 1025 3634 1025 3634 1025" fill="#FFFFFF" fill-rule="evenodd"/><path d="M3680 772.042C3673.92 1017.61 3673.92 1017.61 3673.92 1017.61 3673.92 1035.87 3668.71 1045 3653.95 1045 3647 1045 3647 1045 3653.95 1045 3668.71 1045 3680 1043.17 3680 1025.83 3680 772.042 3680 772.042 3680 772.042 3680 762 3680 766.565 3680 772.042Z" fill="#B3DC10" fill-rule="evenodd"/><path d="M3099.5 1026.7C3099.5 1044.94 3088.45 1049.5 3074 1049.5 3074 1049.5 3074 1049.5 3074 1049.5 3059.55 1049.5 3048.5 1044.94 3048.5 1026.7 3048.5 771.384 3048.5 771.384 3048.5 771.384 3048.5 754.059 3059.55 749.5 3074 749.5 3074 749.5 3074 749.5 3074 749.5 3088.45 749.5 3099.5 754.059 3099.5 771.384L3099.5 1026.7Z" stroke="#333333" stroke-width="2.86476" stroke-linecap="round" stroke-linejoin="round" stroke-miterlimit="10" fill="none" fill-rule="evenodd"/><path d="M3197.5 1026.7C3197.5 1044.94 3185.57 1049.5 3171.93 1049.5 3171.93 1049.5 3171.93 1049.5 3171.93 1049.5 3157.43 1049.5 3145.5 1044.94 3145.5 1026.7 3145.5 771.384 3145.5 771.384 3145.5 771.384 3145.5 754.059 3157.43 749.5 3171.93 749.5 3171.93 749.5 3171.93 749.5 3171.93 749.5 3185.57 749.5 3197.5 754.059 3197.5 771.384L3197.5 1026.7Z" stroke="#333333" stroke-width="2.86476" stroke-linecap="round" stroke-linejoin="round" stroke-miterlimit="10" fill="none" fill-rule="evenodd"/><path d="M3294.5 1026.7C3294.5 1044.94 3283.23 1049.5 3268.5 1049.5 3268.5 1049.5 3268.5 1049.5 3268.5 1049.5 3253.77 1049.5 3242.5 1044.94 3242.5 1026.7 3242.5 771.384 3242.5 771.384 3242.5 771.384 3242.5 754.059 3253.77 749.5 3268.5 749.5 3268.5 749.5 3268.5 749.5 3268.5 749.5 3283.23 749.5 3294.5 754.059 3294.5 771.384L3294.5 1026.7Z" stroke="#333333" stroke-width="2.86476" stroke-linecap="round" stroke-linejoin="round" stroke-miterlimit="10" fill="none" fill-rule="evenodd"/><path d="M3391.5 1026.7C3391.5 1044.94 3379.57 1049.5 3365.07 1049.5 3365.07 1049.5 3365.07 1049.5 3365.07 1049.5 3351.43 1049.5 3339.5 1044.94 3339.5 1026.7 3339.5 771.384 3339.5 771.384 3339.5 771.384 3339.5 754.059 3351.43 749.5 3365.07 749.5 3365.07 749.5 3365.07 749.5 3365.07 749.5 3379.57 749.5 3391.5 754.059 3391.5 771.384L3391.5 1026.7Z" stroke="#333333" stroke-width="2.86476" stroke-linecap="round" stroke-linejoin="round" stroke-miterlimit="10" fill="none" fill-rule="evenodd"/><path d="M3488.5 1026.7C3488.5 1044.94 3476.57 1049.5 3462.93 1049.5 3462.93 1049.5 3462.93 1049.5 3462.93 1049.5 3448.43 1049.5 3436.5 1044.94 3436.5 1026.7 3436.5 771.384 3436.5 771.384 3436.5 771.384 3436.5 754.059 3448.43 749.5 3462.93 749.5 3462.93 749.5 3462.93 749.5 3462.93 749.5 3476.57 749.5 3488.5 754.059 3488.5 771.384L3488.5 1026.7Z" stroke="#333333" stroke-width="2.86476" stroke-linecap="round" stroke-linejoin="round" stroke-miterlimit="10" fill="none" fill-rule="evenodd"/><path d="M3585.5 1026.7C3585.5 1044.94 3574.45 1049.5 3560 1049.5 3560 1049.5 3560 1049.5 3560 1049.5 3545.55 1049.5 3534.5 1044.94 3534.5 1026.7 3534.5 771.384 3534.5 771.384 3534.5 771.384 3534.5 754.059 3545.55 749.5 3560 749.5 3560 749.5 3560 749.5 3560 749.5 3574.45 749.5 3585.5 754.059 3585.5 771.384L3585.5 1026.7Z" stroke="#333333" stroke-width="2.86476" stroke-linecap="round" stroke-linejoin="round" stroke-miterlimit="10" fill="none" fill-rule="evenodd"/><path d="M3683.5 1026.7C3683.5 1044.94 3671.34 1049.5 3657.43 1049.5 3657.43 1049.5 3657.43 1049.5 3657.43 1049.5 3642.66 1049.5 3630.5 1044.94 3630.5 1026.7 3630.5 771.384 3630.5 771.384 3630.5 771.384 3630.5 754.059 3642.66 749.5 3657.43 749.5 3657.43 749.5 3657.43 749.5 3657.43 749.5 3671.34 749.5 3683.5 754.059 3683.5 771.384L3683.5 1026.7Z" stroke="#333333" stroke-width="2.86476" stroke-linecap="round" stroke-linejoin="round" stroke-miterlimit="10" fill="none" fill-rule="evenodd"/></g></svg>