<svg width="185" height="144" xmlns="http://www.w3.org/2000/svg" xmlns:xlink="http://www.w3.org/1999/xlink" xml:space="preserve" overflow="hidden"><g transform="translate(-1552 -583)"><path d="M1705.12 584C1691.54 584 1691.54 584 1691.54 584 1691.54 585.454 1692.9 586.907 1692.9 588.361 1692.9 617.433 1671.16 640.691 1644 640.691 1616.84 640.691 1596.46 617.433 1596.46 588.361 1596.46 586.907 1596.46 585.454 1596.46 584 1582.88 584 1582.88 584 1582.88 584 1566.58 584 1553 598.536 1553 615.979 1553 650.866 1553 650.866 1553 650.866 1553 668.309 1566.58 682.845 1582.88 682.845 1626.34 682.845 1626.34 682.845 1626.34 682.845 1626.34 682.845 1626.34 682.845 1626.34 682.845 1626.34 706.103 1626.34 706.103 1626.34 706.103 1626.34 716.278 1634.49 725 1644 725 1653.51 725 1661.66 716.278 1661.66 706.103 1661.66 682.845 1661.66 682.845 1661.66 682.845 1661.66 682.845 1661.66 682.845 1661.66 682.845 1705.12 682.845 1705.12 682.845 1705.12 682.845 1721.42 682.845 1735 668.309 1735 650.866 1735 615.979 1735 615.979 1735 615.979 1735 598.536 1721.42 584 1705.12 584Z" fill="#FFA770" fill-rule="evenodd"/><path d="M1648 645.528C1675.22 645.528 1697 621.972 1697 594 1695.64 624.917 1687.47 647 1648 645.528Z" fill="#FFFFFF" fill-rule="evenodd"/><path d="M1606.82 621.794C1600 613.072 1595.91 601.443 1595.91 588.361 1595.91 586.907 1595.91 585.454 1595.91 584 1585 584 1585 584 1585 584 1586.36 599.99 1594.55 613.072 1606.82 621.794ZM1720 588.361C1722.73 592.722 1725.45 599.99 1725.45 605.804 1725.45 640.691 1725.45 640.691 1725.45 640.691 1725.45 658.134 1711.82 672.67 1695.45 672.67 1650.45 672.67 1650.45 672.67 1650.45 672.67 1650.45 672.67 1650.45 672.67 1650.45 674.124 1650.45 695.928 1650.45 695.928 1650.45 695.928 1650.45 706.103 1643.64 714.825 1634.09 714.825 1631.36 714.825 1630 714.825 1628.64 713.371 1631.36 719.186 1636.82 725 1643.64 725 1653.18 725 1661.36 716.278 1661.36 706.103 1661.36 682.845 1661.36 682.845 1661.36 682.845 1661.36 682.845 1661.36 682.845 1661.36 682.845 1705 682.845 1705 682.845 1705 682.845 1721.36 682.845 1735 668.309 1735 650.866 1735 615.979 1735 615.979 1735 615.979 1735 604.351 1729.55 594.175 1720 588.361Z" fill="#FF8F5E" fill-rule="evenodd"/><path d="M1556 651C1556 616.091 1556 616.091 1556 616.091 1556 598.636 1569.64 587 1586 587 1579.18 589.909 1561.45 600.091 1560.09 620.455 1557.36 640.818 1556 651 1556 651Z" fill="#FFFFFF" fill-rule="evenodd"/><path d="M1705.62 584.5C1692.04 584.5 1692.04 584.5 1692.04 584.5 1692.04 585.953 1693.4 587.407 1693.4 588.861 1693.4 617.933 1671.66 641.191 1644.5 641.191 1617.34 641.191 1596.96 617.933 1596.96 588.861 1596.96 587.407 1596.96 585.953 1596.96 584.5 1583.38 584.5 1583.38 584.5 1583.38 584.5 1567.08 584.5 1553.5 599.036 1553.5 616.479 1553.5 651.366 1553.5 651.366 1553.5 651.366 1553.5 668.809 1567.08 683.345 1583.38 683.345 1626.84 683.345 1626.84 683.345 1626.84 683.345 1626.84 683.345 1626.84 683.345 1626.84 683.345 1626.84 706.603 1626.84 706.603 1626.84 706.603 1626.84 716.779 1634.99 725.5 1644.5 725.5 1654.01 725.5 1662.16 716.779 1662.16 706.603 1662.16 683.345 1662.16 683.345 1662.16 683.345 1662.16 683.345 1662.16 683.345 1662.16 683.345 1705.62 683.345 1705.62 683.345 1705.62 683.345 1721.92 683.345 1735.5 668.809 1735.5 651.366 1735.5 616.479 1735.5 616.479 1735.5 616.479 1735.5 599.036 1721.92 584.5 1705.62 584.5Z" stroke="#333333" stroke-width="2.86476" stroke-linecap="round" stroke-linejoin="round" stroke-miterlimit="10" fill="none" fill-rule="evenodd"/></g></svg>