<svg width="213" height="145" xmlns="http://www.w3.org/2000/svg" xmlns:xlink="http://www.w3.org/1999/xlink" xml:space="preserve" overflow="hidden"><g transform="translate(-2147 -579)"><path d="M2178.71 597.454C2200.43 597.454 2200.43 597.454 2200.43 597.454 2200.43 644 2200.43 644 2200.43 644 2290 644 2290 644 2290 644 2290 628 2290 628 2290 628 2215.36 628 2215.36 628 2215.36 628 2215.36 580 2215.36 580 2215.36 580 2195 580 2195 580 2195 580 2171.93 580 2161.07 597.454 2157 607.636 2157 607.636 2157 607.636 2157 607.636 2162.43 601.818 2170.57 597.454 2178.71 597.454Z" fill="#D4E5C0" fill-rule="evenodd"/><path d="M2327.47 580C2305.27 580 2305.27 580 2305.27 580 2305.27 580 2305.27 580 2305.27 580 2290 595.889 2290 595.889 2290 595.889 2290 597.333 2290 597.333 2290 597.333 2310.82 597.333 2310.82 597.333 2310.82 597.333 2327.47 597.333 2341.35 611.778 2341.35 629.111 2341.35 663.778 2341.35 663.778 2341.35 663.778 2341.35 671 2338.57 678.222 2334.41 684 2334.41 684 2334.41 684 2334.41 684 2345.51 679.667 2358 659.444 2358 646.444 2358 613.222 2358 613.222 2358 613.222 2358 594.444 2344.12 580 2327.47 580Z" fill="#84B776" fill-rule="evenodd"/><path d="M2325.84 601C2341 584.2 2341 584.2 2341 584.2 2336.86 582.8 2332.73 580 2327.22 580 2305.16 580 2305.16 580 2305.16 580 2305.16 580 2305.16 580 2305.16 580 2290 595.4 2290 595.4 2290 595.4 2290 596.8 2290 596.8 2290 596.8 2310.68 596.8 2310.68 596.8 2310.68 596.8 2316.19 596.8 2321.7 598.2 2325.84 601Z" fill="#D4E5C0" fill-rule="evenodd"/><path d="M2310.89 597C2290.35 597 2290.35 597 2290.35 597 2290.35 643.512 2290.35 643.512 2290.35 643.512 2200.01 643.512 2200.01 643.512 2200.01 643.512 2200.01 597 2200.01 597 2200.01 597 2178.11 597 2178.11 597 2178.11 597 2161.69 597 2148 611.535 2148 628.977 2148 663.86 2148 663.86 2148 663.86 2148 681.302 2161.69 695.837 2178.11 695.837 2227.39 695.837 2227.39 695.837 2227.39 695.837 2227.39 722 2227.39 722 2227.39 722 2262.98 722 2262.98 722 2262.98 722 2262.98 695.837 2262.98 695.837 2262.98 695.837 2310.89 695.837 2310.89 695.837 2310.89 695.837 2327.31 695.837 2341 681.302 2341 663.86 2341 628.977 2341 628.977 2341 628.977 2341 611.535 2327.31 597 2310.89 597Z" fill="#BFDAB0" fill-rule="evenodd"/><path d="M2200.63 597C2187 597 2187 597 2187 597 2200.63 633.337 2200.63 633.337 2200.63 633.337 2200.63 633.337 2200.63 633.337 2200.63 633.337L2200.63 597ZM2321.92 598.454C2326.01 604.268 2327.37 611.535 2327.37 618.802 2327.37 652.233 2327.37 652.233 2327.37 652.233 2327.37 671.128 2313.74 684.209 2297.39 684.209 2249.69 684.209 2249.69 684.209 2249.69 684.209 2249.69 711.826 2249.69 711.826 2249.69 711.826 2227.89 711.826 2227.89 711.826 2227.89 711.826 2227.89 722 2227.89 722 2227.89 722 2263.32 722 2263.32 722 2263.32 722 2263.32 695.837 2263.32 695.837 2263.32 695.837 2311.02 695.837 2311.02 695.837 2311.02 695.837 2327.37 695.837 2341 681.302 2341 663.86 2341 628.977 2341 628.977 2341 628.977 2341 614.442 2332.82 602.814 2321.92 598.454Z" fill="#9BC58B" fill-rule="evenodd"/><path d="M2154 664C2154 629.091 2154 629.091 2154 629.091 2154 611.636 2167.64 600 2184 600 2177.18 601.454 2160.82 611.636 2158.09 632 2156.73 652.364 2154 664 2154 664Z" fill="#FFFFFF" fill-rule="evenodd"/><path d="M2295.58 613C2295.58 648.143 2295.58 648.143 2295.58 648.143 2259 648.143 2259 648.143 2259 648.143 2272.55 652.536 2301 654 2301 654L2295.58 613Z" fill="#FFFFFF" fill-rule="evenodd"/><path d="M2216 580 2216 580 2200 596.86 2200 642 2216 626.228 2216 580Z" fill="#84B776" fill-rule="evenodd"/><path d="M2311.39 597.5C2290.85 597.5 2290.85 597.5 2290.85 597.5 2290.85 644.012 2290.85 644.012 2290.85 644.012 2200.51 644.012 2200.51 644.012 2200.51 644.012 2200.51 597.5 2200.51 597.5 2200.51 597.5 2178.61 597.5 2178.61 597.5 2178.61 597.5 2162.19 597.5 2148.5 612.035 2148.5 629.477 2148.5 664.36 2148.5 664.36 2148.5 664.36 2148.5 681.802 2162.19 696.337 2178.61 696.337 2227.89 696.337 2227.89 696.337 2227.89 696.337 2227.89 722.5 2227.89 722.5 2227.89 722.5 2263.48 722.5 2263.48 722.5 2263.48 722.5 2263.48 696.337 2263.48 696.337 2263.48 696.337 2311.39 696.337 2311.39 696.337 2311.39 696.337 2327.81 696.337 2341.5 681.802 2341.5 664.36 2341.5 629.477 2341.5 629.477 2341.5 629.477 2341.5 612.035 2327.81 597.5 2311.39 597.5Z" stroke="#333333" stroke-width="2.86476" stroke-linecap="round" stroke-linejoin="round" stroke-miterlimit="10" fill="none" fill-rule="evenodd"/><path d="M2179.21 597.955C2200.93 597.955 2200.93 597.955 2200.93 597.955 2200.93 644.5 2200.93 644.5 2200.93 644.5 2290.5 644.5 2290.5 644.5 2290.5 644.5 2290.5 628.5 2290.5 628.5 2290.5 628.5 2215.86 628.5 2215.86 628.5 2215.86 628.5 2215.86 580.5 2215.86 580.5 2215.86 580.5 2195.5 580.5 2195.5 580.5 2195.5 580.5 2172.43 580.5 2161.57 597.955 2157.5 608.136 2157.5 608.136 2157.5 608.136 2157.5 608.136 2162.93 602.318 2171.07 597.955 2179.21 597.955Z" stroke="#333333" stroke-width="2.86476" stroke-linecap="round" stroke-linejoin="round" stroke-miterlimit="10" fill="none" fill-rule="evenodd"/><path d="M0 0 16.0002 16.9998" stroke="#333333" stroke-width="2.86476" stroke-linecap="round" stroke-linejoin="round" stroke-miterlimit="10" fill="none" fill-rule="evenodd" transform="matrix(1 0 0 -1 2200.5 597.5)"/><path d="M0 0 16.0002 17.9999" stroke="#333333" stroke-width="2.86476" stroke-linecap="round" stroke-linejoin="round" stroke-miterlimit="10" fill="none" fill-rule="evenodd" transform="matrix(1 0 0 -1 2200.5 644.5)"/><path d="M2327.97 580.5C2305.77 580.5 2305.77 580.5 2305.77 580.5 2305.77 580.5 2305.77 580.5 2305.77 580.5 2290.5 596.389 2290.5 596.389 2290.5 596.389 2290.5 597.833 2290.5 597.833 2290.5 597.833 2311.32 597.833 2311.32 597.833 2311.32 597.833 2327.97 597.833 2341.85 612.278 2341.85 629.611 2341.85 664.278 2341.85 664.278 2341.85 664.278 2341.85 671.5 2339.07 678.722 2334.91 684.5 2334.91 684.5 2334.91 684.5 2334.91 684.5 2346.01 680.167 2358.5 659.944 2358.5 646.944 2358.5 613.722 2358.5 613.722 2358.5 613.722 2358.5 594.945 2344.62 580.5 2327.97 580.5Z" stroke="#333333" stroke-width="2.86476" stroke-linecap="round" stroke-linejoin="round" stroke-miterlimit="10" fill="none" fill-rule="evenodd"/></g></svg>