<svg width="193" height="473" xmlns="http://www.w3.org/2000/svg" xmlns:xlink="http://www.w3.org/1999/xlink" xml:space="preserve" overflow="hidden"><defs><clipPath id="clip0"><rect x="1064" y="1725" width="193" height="473"/></clipPath></defs><g clip-path="url(#clip0)" transform="translate(-1064 -1725)"><path d="M1108.7 2196C1141.21 2196 1141.21 2196 1141.21 2196 1176.43 2196 1176.43 2196 1176.43 2196 1208.94 2196 1208.94 2196 1208.94 2196 1225.2 2196 1238.74 2181.49 1238.74 2164.09 1255 1757.91 1255 1757.91 1255 1757.91 1255 1740.51 1241.45 1726 1225.2 1726 1203.52 1726 1203.52 1726 1203.52 1726 1203.52 1773.87 1203.52 1773.87 1203.52 1773.87 1114.12 1773.87 1114.12 1773.87 1114.12 1773.87 1114.12 1726 1114.12 1726 1114.12 1726 1093.8 1726 1093.8 1726 1093.8 1726 1077.55 1726 1064 1740.51 1064 1757.91 1078.9 2164.09 1078.9 2164.09 1078.9 2164.09 1078.9 2181.49 1092.45 2196 1108.7 2196Z" fill="#B6CFE4" fill-rule="evenodd"/><path d="M1176.53 2195.55C1209 2195.55 1209 2195.55 1209 2195.55 1225.24 2195.55 1238.76 2181.06 1238.76 2163.67 1255 1757.98 1255 1757.98 1255 1757.98 1255 1744.94 1246.88 1733.35 1234.71 1729 1238.76 1733.35 1241.47 1740.59 1241.47 1747.84 1225.24 2153.53 1225.24 2153.53 1225.24 2153.53 1223.88 2197 1163 2195.55 1163 2195.55L1176.53 2195.55Z" fill="#7FACD1" fill-rule="evenodd"/><path d="M1113.64 1763.82 1113.64 1726 1100 1726 1108.18 1783 1178 1774.23 1113.64 1774.23 1113.64 1763.82Z" fill="#7FACD1" fill-rule="evenodd"/><path d="M1085.36 2158C1069 1760.98 1069 1760.98 1069 1760.98 1069 1743.59 1082.64 1732 1099 1732 1092.18 1733.45 1077.18 1743.59 1074.45 1763.88 1073.09 1784.16 1085.36 2158 1085.36 2158Z" fill="#FFFFFF" fill-rule="evenodd"/><path d="M1210.03 1744C1210.03 1778.67 1210.03 1778.67 1210.03 1778.67 1173 1778.67 1173 1778.67 1173 1778.67 1187.55 1781.56 1214 1783 1214 1783L1210.03 1744Z" fill="#FFFFFF" fill-rule="evenodd"/><path d="M1109.2 2196.5C1141.71 2196.5 1141.71 2196.5 1141.71 2196.5 1176.93 2196.5 1176.93 2196.5 1176.93 2196.5 1209.44 2196.5 1209.44 2196.5 1209.44 2196.5 1225.7 2196.5 1239.24 2181.99 1239.24 2164.59 1255.5 1758.41 1255.5 1758.41 1255.5 1758.41 1255.5 1741.01 1241.95 1726.5 1225.7 1726.5 1204.02 1726.5 1204.02 1726.5 1204.02 1726.5 1204.02 1774.37 1204.02 1774.37 1204.02 1774.37 1114.62 1774.37 1114.62 1774.37 1114.62 1774.37 1114.62 1726.5 1114.62 1726.5 1114.62 1726.5 1094.3 1726.5 1094.3 1726.5 1094.3 1726.5 1078.05 1726.5 1064.5 1741.01 1064.5 1758.41 1079.4 2164.59 1079.4 2164.59 1079.4 2164.59 1079.4 2181.99 1092.95 2196.5 1109.2 2196.5Z" stroke="#333333" stroke-width="2.86476" stroke-linecap="round" stroke-linejoin="round" stroke-miterlimit="10" fill="none" fill-rule="evenodd"/></g></svg>