<svg width="114" height="190" xmlns="http://www.w3.org/2000/svg" xmlns:xlink="http://www.w3.org/1999/xlink" xml:space="preserve" overflow="hidden"><g transform="translate(-1744 -1113)"><path d="M1812.68 1211.34C1831.63 1198.32 1856 1160.72 1856 1118.78 1856 1113 1851.94 1114.45 1846.52 1114.45 1841.11 1114.45 1835.7 1113 1835.7 1118.78 1835.7 1150.6 1820.8 1176.63 1808.62 1188.2 1804.56 1193.98 1796.44 1192.54 1792.38 1188.2 1780.2 1176.63 1763.95 1150.6 1763.95 1118.78 1763.95 1113 1759.89 1114.45 1754.48 1114.45 1749.06 1114.45 1745 1113 1745 1118.78 1745 1160.72 1768.01 1198.32 1786.96 1211.34 1791.02 1214.23 1791.02 1218.57 1791.02 1218.57 1791.02 1290.88 1791.02 1290.88 1791.02 1290.88 1791.02 1296.66 1795.09 1301 1800.5 1301 1805.91 1301 1809.98 1296.66 1809.98 1290.88 1809.98 1217.12 1809.98 1217.12 1809.98 1217.12 1809.98 1217.12 1809.98 1214.23 1812.68 1211.34Z" fill="#FF00ED" fill-rule="evenodd"/><path d="M1792 1210C1773.19 1196.92 1749 1159.14 1749 1117 1750.34 1132.98 1767.81 1189.66 1792 1210Z" fill="#FFFFFF" fill-rule="evenodd"/><path d="M1840.29 1121C1840.29 1151.47 1825.36 1176.14 1814.5 1187.74 1811.79 1190.65 1807.71 1193.55 1805 1193.55 1815.86 1195 1843 1167.43 1840.29 1121Z" fill="#FFFFFF" fill-rule="evenodd"/><path d="M1813.18 1211.84C1832.13 1198.82 1856.5 1161.22 1856.5 1119.28 1856.5 1113.5 1852.44 1114.95 1847.02 1114.95 1841.61 1114.95 1836.2 1113.5 1836.2 1119.28 1836.2 1151.1 1821.31 1177.13 1809.12 1188.7 1805.06 1194.48 1796.94 1193.04 1792.88 1188.7 1780.7 1177.13 1764.45 1151.1 1764.45 1119.28 1764.45 1113.5 1760.39 1114.95 1754.98 1114.95 1749.56 1114.95 1745.5 1113.5 1745.5 1119.28 1745.5 1161.22 1768.51 1198.82 1787.46 1211.84 1791.52 1214.73 1791.52 1219.07 1791.52 1219.07 1791.52 1291.38 1791.52 1291.38 1791.52 1291.38 1791.52 1297.16 1795.59 1301.5 1801 1301.5 1806.41 1301.5 1810.48 1297.16 1810.48 1291.38 1810.48 1217.62 1810.48 1217.62 1810.48 1217.62 1810.48 1217.62 1810.48 1214.73 1813.18 1211.84Z" stroke="#333333" stroke-width="2.86476" stroke-linecap="round" stroke-linejoin="round" stroke-miterlimit="10" fill="none" fill-rule="evenodd"/></g></svg>