<svg width="114" height="190" xmlns="http://www.w3.org/2000/svg" xmlns:xlink="http://www.w3.org/1999/xlink" xml:space="preserve" overflow="hidden"><g transform="translate(-750 -1110)"><path d="M818.683 1208.34C837.634 1195.32 862 1157.72 862 1115.78 862 1110 857.939 1111.45 852.525 1111.45 847.11 1111.45 841.695 1110 841.695 1115.78 841.695 1147.6 826.805 1173.63 814.622 1185.2 810.561 1190.98 802.439 1189.54 798.378 1185.2 786.195 1173.63 769.951 1147.6 769.951 1115.78 769.951 1110 765.89 1111.45 760.476 1111.45 755.061 1111.45 751 1110 751 1115.78 751 1157.72 774.012 1195.32 792.964 1208.34 797.025 1211.23 797.025 1215.57 797.025 1215.57 797.025 1287.88 797.025 1287.88 797.025 1287.88 797.025 1293.66 801.086 1298 806.5 1298 811.915 1298 815.976 1293.66 815.976 1287.88 815.976 1214.12 815.976 1214.12 815.976 1214.12 815.976 1214.12 815.976 1211.23 818.683 1208.34Z" fill="#765DAA" fill-rule="evenodd"/><path d="M798 1207C778.75 1193.92 754 1156.14 754 1114 755.375 1129.98 773.25 1186.66 798 1207Z" fill="#FFFFFF" fill-rule="evenodd"/><path d="M845.286 1118C845.286 1148.47 830.357 1173.14 819.5 1184.75 816.786 1187.65 812.714 1190.55 810 1190.55 820.857 1192 848 1164.43 845.286 1118Z" fill="#FFFFFF" fill-rule="evenodd"/><path d="M819.183 1208.84C838.134 1195.82 862.5 1158.22 862.5 1116.28 862.5 1110.5 858.439 1111.95 853.024 1111.95 847.61 1111.95 842.195 1110.5 842.195 1116.28 842.195 1148.1 827.305 1174.13 815.122 1185.7 811.061 1191.48 802.939 1190.04 798.878 1185.7 786.695 1174.13 770.451 1148.1 770.451 1116.28 770.451 1110.5 766.39 1111.95 760.976 1111.95 755.561 1111.95 751.5 1110.5 751.5 1116.28 751.5 1158.22 774.512 1195.82 793.463 1208.84 797.524 1211.73 797.524 1216.07 797.524 1216.07 797.524 1288.38 797.524 1288.38 797.524 1288.38 797.524 1294.16 801.585 1298.5 807 1298.5 812.415 1298.5 816.476 1294.16 816.476 1288.38 816.476 1214.62 816.476 1214.62 816.476 1214.62 816.476 1214.62 816.476 1211.73 819.183 1208.84Z" stroke="#333333" stroke-width="2.86476" stroke-linecap="round" stroke-linejoin="round" stroke-miterlimit="10" fill="none" fill-rule="evenodd"/></g></svg>