<svg width="201" height="161" xmlns="http://www.w3.org/2000/svg" xmlns:xlink="http://www.w3.org/1999/xlink" xml:space="preserve" overflow="hidden"><g transform="translate(-1734 -581)"><path d="M1844.33 699.423C1844.33 720.769 1844.33 720.769 1844.33 720.769 1844.33 726.462 1841.67 730.731 1839 735 1848.33 726.462 1859 712.231 1859 705.116 1859 698 1859 698 1859 698 1844.33 698 1844.33 698 1844.33 698 1844.33 699.423 1844.33 699.423 1844.33 699.423Z" fill="#327BBD" fill-rule="evenodd"/><path d="M1902.81 582C1890.47 582 1890.47 582 1890.47 582 1874 598.123 1874 598.123 1874 598.123 1887.72 598.123 1887.72 598.123 1887.72 598.123 1904.19 598.123 1917.91 612.781 1917.91 630.37 1917.91 665.548 1917.91 665.548 1917.91 665.548 1917.91 674.342 1915.16 683.137 1909.67 689 1922.02 680.205 1933 662.616 1933 649.425 1933 614.246 1933 614.246 1933 614.246 1933 596.657 1920.65 582 1902.81 582Z" fill="#B785A3" fill-rule="evenodd"/><path d="M1765.33 598.06C1778.89 598.06 1778.89 598.06 1778.89 598.06 1778.89 599.52 1778.89 602.44 1778.89 603.9 1778.89 631.64 1799.22 655 1826.33 655 1853.44 655 1867 631.64 1867 631.64 1860.22 636.02 1850.73 638.94 1841.24 638.94 1815.49 638.94 1793.8 615.58 1793.8 586.38 1793.8 584.92 1793.8 583.46 1793.8 582 1780.24 582 1780.24 582 1780.24 582 1768.04 582 1750.42 593.68 1745 606.82 1750.42 602.44 1757.2 598.06 1765.33 598.06Z" fill="#B785A3" fill-rule="evenodd"/><path d="M1902.81 582C1890.47 582 1890.47 582 1890.47 582 1874 598.123 1874 598.123 1874 598.123 1887.72 598.123 1887.72 598.123 1887.72 598.123 1904.19 598.123 1917.91 612.781 1917.91 630.37 1917.91 665.548 1917.91 665.548 1917.91 665.548 1917.91 674.342 1915.16 683.137 1909.67 689 1922.02 680.205 1933 662.616 1933 649.425 1933 614.246 1933 614.246 1933 614.246 1933 596.657 1920.65 582 1902.81 582Z" fill="#327BBD" fill-rule="evenodd"/><path d="M1765.33 598.06C1778.89 598.06 1778.89 598.06 1778.89 598.06 1778.89 599.52 1778.89 602.44 1778.89 603.9 1778.89 631.64 1799.22 655 1826.33 655 1853.44 655 1867 631.64 1867 631.64 1860.22 636.02 1850.73 638.94 1841.24 638.94 1815.49 638.94 1793.8 615.58 1793.8 586.38 1793.8 584.92 1793.8 583.46 1793.8 582 1780.24 582 1780.24 582 1780.24 582 1768.04 582 1750.42 593.68 1745 606.82 1750.42 602.44 1757.2 598.06 1765.33 598.06Z" fill="#58BAEF" fill-rule="evenodd"/><path d="M1887.96 598C1874.3 598 1874.3 598 1874.3 598 1874.3 599.464 1875.66 602.392 1875.66 603.856 1875.66 631.67 1853.81 655.093 1826.5 655.093 1799.19 655.093 1778.7 631.67 1778.7 603.856 1778.7 602.392 1778.7 599.464 1778.7 598 1765.04 598 1765.04 598 1765.04 598 1748.66 598 1735 612.639 1735 630.206 1735 665.34 1735 665.34 1735 665.34 1735 682.907 1748.66 697.547 1765.04 697.547 1808.75 697.547 1808.75 697.547 1808.75 697.547 1808.75 699.01 1808.75 699.01 1808.75 699.01 1808.75 720.969 1808.75 720.969 1808.75 720.969 1808.75 731.217 1816.94 740 1826.5 740 1836.06 740 1844.25 731.217 1844.25 720.969 1844.25 699.01 1844.25 699.01 1844.25 699.01 1844.25 697.547 1844.25 697.547 1844.25 697.547 1887.96 697.547 1887.96 697.547 1887.96 697.547 1904.34 697.547 1918 682.907 1918 665.34 1918 630.206 1918 630.206 1918 630.206 1918 612.639 1904.34 598 1887.96 598Z" fill="#4295D1" fill-rule="evenodd"/><path d="M1830 661C1857.78 661 1880 637.445 1880 608 1878.61 638.917 1870.28 661 1830 661Z" fill="#FFFFFF" fill-rule="evenodd"/><path d="M1789.82 636.062C1783 627.278 1778.91 615.567 1778.91 603.856 1778.91 602.392 1778.91 599.464 1778.91 598 1768 598 1768 598 1768 598 1769.36 614.103 1777.55 628.742 1789.82 636.062ZM1903 602.392C1905.73 608.248 1908.45 614.103 1908.45 621.423 1908.45 656.557 1908.45 656.557 1908.45 656.557 1908.45 674.124 1894.82 688.763 1878.45 688.763 1833.45 688.763 1833.45 688.763 1833.45 688.763 1833.45 688.763 1833.45 688.763 1833.45 688.763 1833.45 712.186 1833.45 712.186 1833.45 712.186 1833.45 722.433 1826.64 729.753 1817.09 729.753 1814.36 729.753 1813 729.753 1811.64 728.289 1814.36 735.608 1819.82 740 1826.64 740 1836.18 740 1844.36 731.217 1844.36 720.969 1844.36 699.01 1844.36 699.01 1844.36 699.01 1844.36 697.547 1844.36 697.547 1844.36 697.547 1888 697.547 1888 697.547 1888 697.547 1904.36 697.547 1918 682.907 1918 665.34 1918 630.206 1918 630.206 1918 630.206 1918 618.495 1912.55 608.248 1903 602.392Z" fill="#3B8AC8" fill-rule="evenodd"/><path d="M1739 665C1739 631.837 1739 631.837 1739 631.837 1739 613.093 1752.64 603 1769 603 1762.18 604.442 1744.45 614.535 1743.09 634.721 1740.36 654.907 1739 665 1739 665Z" fill="#FFFFFF" fill-rule="evenodd"/><path d="M1780.39 582C1768.14 582 1750.44 593.765 1745 607 1750.44 602.588 1757.25 598.176 1765.42 598.176 1779.03 598.176 1779.03 598.176 1779.03 598.176 1794 582 1794 582 1794 582L1780.39 582Z" fill="#6FE2FF" fill-rule="evenodd"/><path d="M1922 589.5C1916.51 585 1909.66 582 1902.8 582 1890.46 582 1890.46 582 1890.46 582 1874 598.5 1874 598.5 1874 598.5 1887.71 598.5 1887.71 598.5 1887.71 598.5 1894.57 598.5 1901.43 601.5 1906.91 606L1922 589.5Z" fill="#6FE2FF" fill-rule="evenodd"/><path d="M1888.46 598.5C1874.8 598.5 1874.8 598.5 1874.8 598.5 1874.8 599.964 1876.16 602.892 1876.16 604.356 1876.16 632.17 1854.31 655.593 1827 655.593 1799.69 655.593 1779.2 632.17 1779.2 604.356 1779.2 602.892 1779.2 599.964 1779.2 598.5 1765.54 598.5 1765.54 598.5 1765.54 598.5 1749.16 598.5 1735.5 613.139 1735.5 630.706 1735.5 665.84 1735.5 665.84 1735.5 665.84 1735.5 683.407 1749.16 698.046 1765.54 698.046 1809.25 698.046 1809.25 698.046 1809.25 698.046 1809.25 699.51 1809.25 699.51 1809.25 699.51 1809.25 721.469 1809.25 721.469 1809.25 721.469 1809.25 731.716 1817.44 740.5 1827 740.5 1836.56 740.5 1844.75 731.716 1844.75 721.469 1844.75 699.51 1844.75 699.51 1844.75 699.51 1844.75 698.046 1844.75 698.046 1844.75 698.046 1888.46 698.046 1888.46 698.046 1888.46 698.046 1904.84 698.046 1918.5 683.407 1918.5 665.84 1918.5 630.706 1918.5 630.706 1918.5 630.706 1918.5 613.139 1904.84 598.5 1888.46 598.5Z" stroke="#333333" stroke-width="2.86476" stroke-linecap="round" stroke-linejoin="round" stroke-miterlimit="10" fill="none" fill-rule="evenodd"/><path d="M0 0 15.9998 15.9998" stroke="#333333" stroke-width="2.86476" stroke-linecap="round" stroke-linejoin="round" stroke-miterlimit="10" fill="none" fill-rule="evenodd" transform="matrix(-1 0 0 1 1794.5 582.5)"/><path d="M1903.31 582.5C1890.97 582.5 1890.97 582.5 1890.97 582.5 1874.5 598.623 1874.5 598.623 1874.5 598.623 1888.22 598.623 1888.22 598.623 1888.22 598.623 1904.69 598.623 1918.41 613.281 1918.41 630.87 1918.41 666.048 1918.41 666.048 1918.41 666.048 1918.41 674.843 1915.66 683.637 1910.17 689.5 1922.52 680.706 1933.5 663.117 1933.5 649.925 1933.5 614.747 1933.5 614.747 1933.5 614.747 1933.5 597.158 1921.15 582.5 1903.31 582.5Z" stroke="#333333" stroke-width="2.86476" stroke-linecap="round" stroke-linejoin="round" stroke-miterlimit="10" fill="none" fill-rule="evenodd"/><path d="M1765.83 598.56C1779.39 598.56 1779.39 598.56 1779.39 598.56 1779.39 600.02 1779.39 602.94 1779.39 604.4 1779.39 632.14 1799.72 655.5 1826.83 655.5 1853.94 655.5 1867.5 632.14 1867.5 632.14 1860.72 636.52 1851.23 639.44 1841.74 639.44 1815.99 639.44 1794.3 616.08 1794.3 586.88 1794.3 585.42 1794.3 583.96 1794.3 582.5 1780.74 582.5 1780.74 582.5 1780.74 582.5 1768.54 582.5 1750.92 594.18 1745.5 607.32 1750.92 602.94 1757.7 598.56 1765.83 598.56Z" stroke="#333333" stroke-width="2.86476" stroke-linecap="round" stroke-linejoin="round" stroke-miterlimit="10" fill="none" fill-rule="evenodd"/><path d="M1844.83 699.923C1844.83 721.269 1844.83 721.269 1844.83 721.269 1844.83 726.962 1842.17 731.231 1839.5 735.5 1848.83 726.962 1859.5 712.731 1859.5 705.615 1859.5 698.5 1859.5 698.5 1859.5 698.5 1844.83 698.5 1844.83 698.5 1844.83 698.5 1844.83 699.923 1844.83 699.923 1844.83 699.923Z" stroke="#333333" stroke-width="2.86476" stroke-linecap="round" stroke-linejoin="round" stroke-miterlimit="10" fill="none" fill-rule="evenodd"/></g></svg>