<svg width="202" height="492" xmlns="http://www.w3.org/2000/svg" xmlns:xlink="http://www.w3.org/1999/xlink" xml:space="preserve" overflow="hidden"><g transform="translate(-2791 -1707)"><path d="M2961.33 1708C2947.84 1708 2947.84 1708 2947.84 1708 2933 1724.05 2933 1724.05 2933 1724.05 2945.14 1724.05 2945.14 1724.05 2945.14 1724.05 2962.67 1724.05 2974.81 1738.64 2974.81 1756.15 2974.81 2164.66 2974.81 2164.66 2974.81 2164.66 2974.81 2173.41 2972.12 2182.16 2966.72 2188 2978.86 2179.25 2991 2161.74 2991 2148.61 2991 1740.1 2991 1740.1 2991 1740.1 2991 1722.59 2977.51 1708 2961.33 1708Z" fill="#B785A3" fill-rule="evenodd"/><path d="M2821.67 1724.28C2835.44 1724.28 2835.44 1724.28 2835.44 1724.28 2835.44 1727.24 2835.44 1728.72 2835.44 1730.2 2835.44 1758.32 2857.49 1782 2883.67 1782 2911.22 1782 2925 1758.32 2925 1758.32 2918.11 1762.76 2909.84 1765.72 2900.2 1765.72 2872.64 1765.72 2850.6 1742.04 2850.6 1712.44 2850.6 1710.96 2850.6 1709.48 2850.6 1708 2838.2 1708 2838.2 1708 2838.2 1708 2824.42 1708 2807.89 1719.84 2801 1733.16 2806.51 1728.72 2814.78 1724.28 2821.67 1724.28Z" fill="#B785A3" fill-rule="evenodd"/><path d="M2961.33 1708C2947.84 1708 2947.84 1708 2947.84 1708 2933 1724.05 2933 1724.05 2933 1724.05 2945.14 1724.05 2945.14 1724.05 2945.14 1724.05 2962.67 1724.05 2974.81 1738.64 2974.81 1756.15 2974.81 2164.66 2974.81 2164.66 2974.81 2164.66 2974.81 2173.41 2972.12 2182.16 2966.72 2188 2978.86 2179.25 2991 2161.74 2991 2148.61 2991 1740.1 2991 1740.1 2991 1740.1 2991 1722.59 2977.51 1708 2961.33 1708Z" fill="#C72E3A" fill-rule="evenodd"/><path d="M2821.67 1724.28C2835.44 1724.28 2835.44 1724.28 2835.44 1724.28 2835.44 1727.24 2835.44 1728.72 2835.44 1730.2 2835.44 1758.32 2857.49 1782 2883.67 1782 2911.22 1782 2925 1758.32 2925 1758.32 2918.11 1762.76 2909.84 1765.72 2900.2 1765.72 2872.64 1765.72 2850.6 1742.04 2850.6 1712.44 2850.6 1710.96 2850.6 1709.48 2850.6 1708 2838.2 1708 2838.2 1708 2838.2 1708 2824.42 1708 2807.89 1719.84 2801 1733.16 2806.51 1728.72 2814.78 1724.28 2821.67 1724.28Z" fill="#EF908A" fill-rule="evenodd"/><path d="M2961.33 1708C2947.84 1708 2947.84 1708 2947.84 1708 2933 1724.05 2933 1724.05 2933 1724.05 2945.14 1724.05 2945.14 1724.05 2945.14 1724.05 2962.67 1724.05 2974.81 1738.64 2974.81 1756.15 2974.81 2164.66 2974.81 2164.66 2974.81 2164.66 2974.81 2173.41 2972.12 2182.16 2966.72 2188 2978.86 2179.25 2991 2161.74 2991 2148.61 2991 1740.1 2991 1740.1 2991 1740.1 2991 1722.59 2977.51 1708 2961.33 1708Z" fill="#B785A3" fill-rule="evenodd"/><path d="M2821.67 1724.28C2835.44 1724.28 2835.44 1724.28 2835.44 1724.28 2835.44 1727.24 2835.44 1728.72 2835.44 1730.2 2835.44 1758.32 2857.49 1782 2883.67 1782 2911.22 1782 2925 1758.32 2925 1758.32 2918.11 1762.76 2909.84 1765.72 2900.2 1765.72 2872.64 1765.72 2850.6 1742.04 2850.6 1712.44 2850.6 1710.96 2850.6 1709.48 2850.6 1708 2838.2 1708 2838.2 1708 2838.2 1708 2824.42 1708 2807.89 1719.84 2801 1733.16 2806.51 1728.72 2814.78 1724.28 2821.67 1724.28Z" fill="#B785A3" fill-rule="evenodd"/><path d="M2961.33 1708C2947.84 1708 2947.84 1708 2947.84 1708 2933 1724.05 2933 1724.05 2933 1724.05 2945.14 1724.05 2945.14 1724.05 2945.14 1724.05 2962.67 1724.05 2974.81 1738.64 2974.81 1756.15 2974.81 2164.66 2974.81 2164.66 2974.81 2164.66 2974.81 2173.41 2972.12 2182.16 2966.72 2188 2978.86 2179.25 2991 2161.74 2991 2148.61 2991 1740.1 2991 1740.1 2991 1740.1 2991 1722.59 2977.51 1708 2961.33 1708Z" fill="#C72E3A" fill-rule="evenodd"/><path d="M2821.67 1724.28C2835.44 1724.28 2835.44 1724.28 2835.44 1724.28 2835.44 1727.24 2835.44 1728.72 2835.44 1730.2 2835.44 1758.32 2857.49 1782 2883.67 1782 2911.22 1782 2925 1758.32 2925 1758.32 2918.11 1762.76 2909.84 1765.72 2900.2 1765.72 2872.64 1765.72 2850.6 1742.04 2850.6 1712.44 2850.6 1710.96 2850.6 1709.48 2850.6 1708 2838.2 1708 2838.2 1708 2838.2 1708 2824.42 1708 2807.89 1719.84 2801 1733.16 2806.51 1728.72 2814.78 1724.28 2821.67 1724.28Z" fill="#EF908A" fill-rule="evenodd"/><path d="M2822.04 2197C2867.11 2197 2867.11 2197 2867.11 2197 2901.25 2197 2901.25 2197 2901.25 2197 2944.96 2197 2944.96 2197 2944.96 2197 2962.71 2197 2975 2182.43 2975 2164.95 2975 1757.05 2975 1757.05 2975 1757.05 2975 1739.57 2962.71 1725 2944.96 1725 2932.66 1725 2932.66 1725 2932.66 1725 2932.66 1727.91 2932.66 1729.37 2932.66 1730.83 2932.66 1758.51 2910.81 1781.81 2883.5 1781.81 2857.55 1781.81 2835.7 1758.51 2835.7 1730.83 2835.7 1729.37 2835.7 1727.91 2835.7 1725 2822.04 1725 2822.04 1725 2822.04 1725 2805.66 1725 2792 1739.57 2792 1757.05 2792 2164.95 2792 2164.95 2792 2164.95 2792 2182.43 2805.66 2197 2822.04 2197Z" fill="#EB6868" fill-rule="evenodd"/><path d="M2889 1787C2915.06 1787 2937 1763.89 2937 1735 2937 1765.33 2927.4 1787 2889 1787Z" fill="#FFFFFF" fill-rule="evenodd"/><path d="M2837.75 1708C2824.14 1708 2807.81 1720.24 2801 1734 2806.44 1729.41 2814.61 1724.82 2821.42 1724.82 2835.03 1724.82 2835.03 1724.82 2835.03 1724.82 2850 1708 2850 1708 2850 1708L2837.75 1708Z" fill="#F5C1BA" fill-rule="evenodd"/><path d="M2979 1715.5C2973.59 1711 2968.18 1708 2961.41 1708 2947.88 1708 2947.88 1708 2947.88 1708 2933 1724.5 2933 1724.5 2933 1724.5 2945.18 1724.5 2945.18 1724.5 2945.18 1724.5 2951.94 1724.5 2958.71 1727.5 2964.12 1732L2979 1715.5Z" fill="#F5C1BA" fill-rule="evenodd"/><path d="M2892 2196.54C2901.52 2196.54 2901.52 2196.54 2901.52 2196.54 2945.07 2196.54 2945.07 2196.54 2945.07 2196.54 2962.75 2196.54 2975 2183.43 2975 2164.5 2975 1756.67 2975 1756.67 2975 1756.67 2975 1745.02 2969.56 1734.83 2960.03 1729 2964.11 1734.83 2965.48 1740.65 2965.48 1747.93 2965.48 2155.76 2965.48 2155.76 2965.48 2155.76 2965.48 2173.24 2951.87 2187.8 2935.54 2187.8 2892 2196.54 2892 2196.54 2892 2196.54 2892 2198 2892 2187.8 2892 2187.8L2892 2196.54Z" fill="#DC3442" fill-rule="evenodd"/><path d="M2846 1764C2839.33 1753.89 2835.33 1742.33 2835.33 1730.78 2835.33 1729.33 2835.33 1727.89 2835.33 1725 2826 1725 2826 1725 2826 1725 2827.33 1740.89 2835.33 1755.33 2846 1764Z" fill="#DC3442" fill-rule="evenodd"/><path d="M2796 2169C2796 1761.13 2796 1761.13 2796 1761.13 2796 1743.65 2809.64 1732 2826 1732 2819.18 1733.46 2802.82 1743.65 2800.09 1764.05 2798.73 1784.44 2796 2169 2796 2169Z" fill="#FFFFFF" fill-rule="evenodd"/><path d="M2822.54 2197.5C2867.61 2197.5 2867.61 2197.5 2867.61 2197.5 2901.75 2197.5 2901.75 2197.5 2901.75 2197.5 2945.46 2197.5 2945.46 2197.5 2945.46 2197.5 2963.21 2197.5 2975.5 2182.93 2975.5 2165.45 2975.5 1757.55 2975.5 1757.55 2975.5 1757.55 2975.5 1740.07 2963.21 1725.5 2945.46 1725.5 2933.16 1725.5 2933.16 1725.5 2933.16 1725.5 2933.16 1728.41 2933.16 1729.87 2933.16 1731.33 2933.16 1759.01 2911.31 1782.31 2884 1782.31 2858.05 1782.31 2836.2 1759.01 2836.2 1731.33 2836.2 1729.87 2836.2 1728.41 2836.2 1725.5 2822.54 1725.5 2822.54 1725.5 2822.54 1725.5 2806.16 1725.5 2792.5 1740.07 2792.5 1757.55 2792.5 2165.45 2792.5 2165.45 2792.5 2165.45 2792.5 2182.93 2806.16 2197.5 2822.54 2197.5Z" stroke="#333333" stroke-width="2.86476" stroke-linecap="round" stroke-linejoin="round" stroke-miterlimit="10" fill="none" fill-rule="evenodd"/><path d="M0 0 13.9997 17.0002" stroke="#333333" stroke-width="2.86476" stroke-linecap="round" stroke-linejoin="round" stroke-miterlimit="10" fill="none" fill-rule="evenodd" transform="matrix(-1 0 0 1 2850.5 1708.5)"/><path d="M2961.83 1708.5C2948.34 1708.5 2948.34 1708.5 2948.34 1708.5 2933.5 1724.55 2933.5 1724.55 2933.5 1724.55 2945.64 1724.55 2945.64 1724.55 2945.64 1724.55 2963.17 1724.55 2975.31 1739.14 2975.31 1756.65 2975.31 2165.16 2975.31 2165.16 2975.31 2165.16 2975.31 2173.91 2972.62 2182.66 2967.22 2188.5 2979.36 2179.75 2991.5 2162.24 2991.5 2149.11 2991.5 1740.6 2991.5 1740.6 2991.5 1740.6 2991.5 1723.09 2978.01 1708.5 2961.83 1708.5Z" stroke="#333333" stroke-width="2.86476" stroke-linecap="round" stroke-linejoin="round" stroke-miterlimit="10" fill="none" fill-rule="evenodd"/><path d="M2822.17 1724.78C2835.94 1724.78 2835.94 1724.78 2835.94 1724.78 2835.94 1727.74 2835.94 1729.22 2835.94 1730.7 2835.94 1758.82 2857.99 1782.5 2884.17 1782.5 2911.72 1782.5 2925.5 1758.82 2925.5 1758.82 2918.61 1763.26 2910.34 1766.22 2900.7 1766.22 2873.14 1766.22 2851.1 1742.54 2851.1 1712.94 2851.1 1711.46 2851.1 1709.98 2851.1 1708.5 2838.7 1708.5 2838.7 1708.5 2838.7 1708.5 2824.92 1708.5 2808.39 1720.34 2801.5 1733.66 2807.01 1729.22 2815.28 1724.78 2822.17 1724.78Z" stroke="#333333" stroke-width="2.86476" stroke-linecap="round" stroke-linejoin="round" stroke-miterlimit="10" fill="none" fill-rule="evenodd"/></g></svg>