<svg width="201" height="161" xmlns="http://www.w3.org/2000/svg" xmlns:xlink="http://www.w3.org/1999/xlink" xml:space="preserve" overflow="hidden"><g transform="translate(-911 -581)"><path d="M1021.6 699.423C1021.6 720.769 1021.6 720.769 1021.6 720.769 1021.6 726.462 1018.8 730.731 1016 735 1025.8 726.462 1037 712.231 1037 705.116 1037 698 1037 698 1037 698 1021.6 698 1021.6 698 1021.6 698 1021.6 699.423 1021.6 699.423 1021.6 699.423Z" fill="#D3001C" fill-rule="evenodd"/><path d="M1079.81 582C1067.47 582 1067.47 582 1067.47 582 1051 598.123 1051 598.123 1051 598.123 1064.72 598.123 1064.72 598.123 1064.72 598.123 1081.19 598.123 1094.91 612.781 1094.91 630.37 1094.91 665.548 1094.91 665.548 1094.91 665.548 1094.91 674.342 1092.16 683.137 1086.67 689 1099.02 680.205 1110 662.616 1110 649.425 1110 614.246 1110 614.246 1110 614.246 1110 596.657 1097.65 582 1079.81 582Z" fill="#B785A3" fill-rule="evenodd"/><path d="M942.5 598.06C956.167 598.06 956.167 598.06 956.167 598.06 956.167 599.52 956.167 602.44 956.167 603.9 956.167 631.64 976.667 655 1004 655 1031.33 655 1045 631.64 1045 631.64 1038.17 636.02 1028.6 638.94 1019.03 638.94 993.067 638.94 971.2 615.58 971.2 586.38 971.2 584.92 971.2 583.46 971.2 582 957.533 582 957.533 582 957.533 582 945.233 582 927.467 593.68 922 606.82 927.467 602.44 934.3 598.06 942.5 598.06Z" fill="#B785A3" fill-rule="evenodd"/><path d="M1079.81 582C1067.47 582 1067.47 582 1067.47 582 1051 598.123 1051 598.123 1051 598.123 1064.72 598.123 1064.72 598.123 1064.72 598.123 1081.19 598.123 1094.91 612.781 1094.91 630.37 1094.91 665.548 1094.91 665.548 1094.91 665.548 1094.91 674.342 1092.16 683.137 1086.67 689 1099.02 680.205 1110 662.616 1110 649.425 1110 614.246 1110 614.246 1110 614.246 1110 596.657 1097.65 582 1079.81 582Z" fill="#D3001C" fill-rule="evenodd"/><path d="M942.5 598.06C956.167 598.06 956.167 598.06 956.167 598.06 956.167 599.52 956.167 602.44 956.167 603.9 956.167 631.64 976.667 655 1004 655 1031.33 655 1045 631.64 1045 631.64 1038.17 636.02 1028.6 638.94 1019.03 638.94 993.067 638.94 971.2 615.58 971.2 586.38 971.2 584.92 971.2 583.46 971.2 582 957.533 582 957.533 582 957.533 582 945.233 582 927.467 593.68 922 606.82 927.467 602.44 934.3 598.06 942.5 598.06Z" fill="#F93F4E" fill-rule="evenodd"/><path d="M1065.79 598C1052.06 598 1052.06 598 1052.06 598 1052.06 599.464 1053.43 602.392 1053.43 603.856 1053.43 631.67 1031.46 655.093 1004 655.093 976.537 655.093 955.94 631.67 955.94 603.856 955.94 602.392 955.94 599.464 955.94 598 942.209 598 942.209 598 942.209 598 925.731 598 912 612.639 912 630.206 912 665.34 912 665.34 912 665.34 912 682.907 925.731 697.547 942.209 697.547 986.149 697.547 986.149 697.547 986.149 697.547 986.149 699.01 986.149 699.01 986.149 699.01 986.149 720.969 986.149 720.969 986.149 720.969 986.149 731.217 994.388 740 1004 740 1013.61 740 1021.85 731.217 1021.85 720.969 1021.85 699.01 1021.85 699.01 1021.85 699.01 1021.85 697.547 1021.85 697.547 1021.85 697.547 1065.79 697.547 1065.79 697.547 1065.79 697.547 1082.27 697.547 1096 682.907 1096 665.34 1096 630.206 1096 630.206 1096 630.206 1096 612.639 1082.27 598 1065.79 598Z" fill="#E31A30" fill-rule="evenodd"/><path d="M1008 661C1035.22 661 1057 637.445 1057 608 1055.64 638.917 1047.47 661 1008 661Z" fill="#FFFFFF" fill-rule="evenodd"/><path d="M966.964 636.062C960.1 627.278 955.982 615.567 955.982 603.856 955.982 602.392 955.982 599.464 955.982 598 945 598 945 598 945 598 946.373 614.103 954.609 628.742 966.964 636.062ZM1080.9 602.392C1083.65 608.248 1086.39 614.103 1086.39 621.423 1086.39 656.557 1086.39 656.557 1086.39 656.557 1086.39 674.124 1072.66 688.763 1056.19 688.763 1010.89 688.763 1010.89 688.763 1010.89 688.763 1010.89 688.763 1010.89 688.763 1010.89 688.763 1010.89 712.186 1010.89 712.186 1010.89 712.186 1010.89 722.433 1004.03 729.753 994.418 729.753 991.673 729.753 990.3 729.753 988.927 728.289 991.673 735.608 997.164 740 1004.03 740 1013.64 740 1021.87 731.217 1021.87 720.969 1021.87 699.01 1021.87 699.01 1021.87 699.01 1021.87 697.547 1021.87 697.547 1021.87 697.547 1065.8 697.547 1065.8 697.547 1065.8 697.547 1082.27 697.547 1096 682.907 1096 665.34 1096 630.206 1096 630.206 1096 630.206 1096 618.495 1090.51 608.248 1080.9 602.392Z" fill="#DC0F27" fill-rule="evenodd"/><path d="M916 665C916 631.837 916 631.837 916 631.837 916 613.093 929.636 603 946 603 939.182 604.442 921.455 614.535 920.091 634.721 917.364 654.907 916 665 916 665Z" fill="#FFFFFF" fill-rule="evenodd"/><path d="M957.389 582C945.139 582 927.444 593.765 922 607 927.444 602.588 934.25 598.176 942.417 598.176 956.028 598.176 956.028 598.176 956.028 598.176 971 582 971 582 971 582L957.389 582Z" fill="#FF6770" fill-rule="evenodd"/><path d="M1099 589.5C1093.51 585 1086.66 582 1079.8 582 1067.46 582 1067.46 582 1067.46 582 1051 598.5 1051 598.5 1051 598.5 1064.71 598.5 1064.71 598.5 1064.71 598.5 1071.57 598.5 1078.43 601.5 1083.91 606L1099 589.5Z" fill="#FF6770" fill-rule="evenodd"/><path d="M1066.29 598.5C1052.56 598.5 1052.56 598.5 1052.56 598.5 1052.56 599.964 1053.93 602.892 1053.93 604.356 1053.93 632.17 1031.96 655.593 1004.5 655.593 977.037 655.593 956.44 632.17 956.44 604.356 956.44 602.892 956.44 599.964 956.44 598.5 942.709 598.5 942.709 598.5 942.709 598.5 926.232 598.5 912.5 613.139 912.5 630.706 912.5 665.84 912.5 665.84 912.5 665.84 912.5 683.407 926.232 698.046 942.709 698.046 986.649 698.046 986.649 698.046 986.649 698.046 986.649 699.51 986.649 699.51 986.649 699.51 986.649 721.469 986.649 721.469 986.649 721.469 986.649 731.716 994.888 740.5 1004.5 740.5 1014.11 740.5 1022.35 731.716 1022.35 721.469 1022.35 699.51 1022.35 699.51 1022.35 699.51 1022.35 698.046 1022.35 698.046 1022.35 698.046 1066.29 698.046 1066.29 698.046 1066.29 698.046 1082.77 698.046 1096.5 683.407 1096.5 665.84 1096.5 630.706 1096.5 630.706 1096.5 630.706 1096.5 613.139 1082.77 598.5 1066.29 598.5Z" stroke="#333333" stroke-width="2.86476" stroke-linecap="round" stroke-linejoin="round" stroke-miterlimit="10" fill="none" fill-rule="evenodd"/><path d="M0 0 14.9998 15.9998" stroke="#333333" stroke-width="2.86476" stroke-linecap="round" stroke-linejoin="round" stroke-miterlimit="10" fill="none" fill-rule="evenodd" transform="matrix(-1 0 0 1 971.5 582.5)"/><path d="M1080.31 582.5C1067.97 582.5 1067.97 582.5 1067.97 582.5 1051.5 598.623 1051.5 598.623 1051.5 598.623 1065.22 598.623 1065.22 598.623 1065.22 598.623 1081.69 598.623 1095.41 613.281 1095.41 630.87 1095.41 666.048 1095.41 666.048 1095.41 666.048 1095.41 674.843 1092.66 683.637 1087.17 689.5 1099.52 680.706 1110.5 663.117 1110.5 649.925 1110.5 614.747 1110.5 614.747 1110.5 614.747 1110.5 597.158 1098.15 582.5 1080.31 582.5Z" stroke="#333333" stroke-width="2.86476" stroke-linecap="round" stroke-linejoin="round" stroke-miterlimit="10" fill="none" fill-rule="evenodd"/><path d="M943 598.56C956.667 598.56 956.667 598.56 956.667 598.56 956.667 600.02 956.667 602.94 956.667 604.4 956.667 632.14 977.167 655.5 1004.5 655.5 1031.83 655.5 1045.5 632.14 1045.5 632.14 1038.67 636.52 1029.1 639.44 1019.53 639.44 993.567 639.44 971.7 616.08 971.7 586.88 971.7 585.42 971.7 583.96 971.7 582.5 958.033 582.5 958.033 582.5 958.033 582.5 945.733 582.5 927.967 594.18 922.5 607.32 927.967 602.94 934.8 598.56 943 598.56Z" stroke="#333333" stroke-width="2.86476" stroke-linecap="round" stroke-linejoin="round" stroke-miterlimit="10" fill="none" fill-rule="evenodd"/><path d="M1022.1 699.923C1022.1 721.269 1022.1 721.269 1022.1 721.269 1022.1 726.962 1019.3 731.231 1016.5 735.5 1026.3 726.962 1037.5 712.731 1037.5 705.615 1037.5 698.5 1037.5 698.5 1037.5 698.5 1022.1 698.5 1022.1 698.5 1022.1 698.5 1022.1 699.923 1022.1 699.923 1022.1 699.923Z" stroke="#333333" stroke-width="2.86476" stroke-linecap="round" stroke-linejoin="round" stroke-miterlimit="10" fill="none" fill-rule="evenodd"/></g></svg>