<svg width="185" height="475" xmlns="http://www.w3.org/2000/svg" xmlns:xlink="http://www.w3.org/1999/xlink" xml:space="preserve" overflow="hidden"><g transform="translate(-2895 -1726)"><path d="M2925.88 2199C2970.7 2199 2970.7 2199 2970.7 2199 3004.66 2199 3004.66 2199 3004.66 2199 3048.12 2199 3048.12 2199 3048.12 2199 3065.78 2199 3078 2184.43 3078 2166.95 3078 1759.05 3078 1759.05 3078 1759.05 3078 1741.57 3065.78 1727 3048.12 1727 3035.9 1727 3035.9 1727 3035.9 1727 3035.9 1728.46 3035.9 1729.91 3035.9 1731.37 3035.9 1760.51 3014.16 1783.81 2987 1783.81 2961.19 1783.81 2939.46 1760.51 2939.46 1731.37 2939.46 1729.91 2939.46 1728.46 2939.46 1727 2925.88 1727 2925.88 1727 2925.88 1727 2909.58 1727 2896 1741.57 2896 1759.05 2896 2166.95 2896 2166.95 2896 2166.95 2896 2184.43 2909.58 2199 2925.88 2199Z" fill="#EB6868" fill-rule="evenodd"/><path d="M2993 1788.56C3018.51 1788.56 3040 1765.44 3040 1738 3040 1768.33 3030.6 1790 2993 1788.56Z" fill="#FFFFFF" fill-rule="evenodd"/><path d="M2995 2199C3004.52 2199 3004.52 2199 3004.52 2199 3048.07 2199 3048.07 2199 3048.07 2199 3065.75 2199 3078 2184.45 3078 2166.99 3078 1759.64 3078 1759.64 3078 1759.64 3078 1748 3072.56 1736.36 3063.03 1732 3067.11 1736.36 3068.48 1743.64 3068.48 1749.46 3068.48 2156.81 3068.48 2156.81 3068.48 2156.81 3068.48 2174.27 3054.87 2188.82 3038.54 2188.82 2995 2199 2995 2199 2995 2199 2995 2199 2995 2188.82 2995 2190.27L2995 2199Z" fill="#C72E3A" fill-rule="evenodd"/><path d="M2950 1766C2943.33 1757 2939.33 1745 2939.33 1731.5 2939.33 1730 2939.33 1728.5 2939.33 1727 2930 1727 2930 1727 2930 1727 2931.33 1743.5 2939.33 1757 2950 1766Z" fill="#C72E3A" fill-rule="evenodd"/><path d="M2900 2167C2900 1760.07 2900 1760.07 2900 1760.07 2900 1742.63 2913.64 1731 2930 1731 2923.18 1732.45 2906.82 1742.63 2904.09 1762.97 2902.73 1783.32 2900 2167 2900 2167Z" fill="#FFFFFF" fill-rule="evenodd"/><path d="M2926.38 2199.5C2971.2 2199.5 2971.2 2199.5 2971.2 2199.5 3005.16 2199.5 3005.16 2199.5 3005.16 2199.5 3048.62 2199.5 3048.62 2199.5 3048.62 2199.5 3066.28 2199.5 3078.5 2184.93 3078.5 2167.45 3078.5 1759.55 3078.5 1759.55 3078.5 1759.55 3078.5 1742.07 3066.28 1727.5 3048.62 1727.5 3036.4 1727.5 3036.4 1727.5 3036.4 1727.5 3036.4 1728.96 3036.4 1730.41 3036.4 1731.87 3036.4 1761.01 3014.66 1784.31 2987.5 1784.31 2961.69 1784.31 2939.96 1761.01 2939.96 1731.87 2939.96 1730.41 2939.96 1728.96 2939.96 1727.5 2926.38 1727.5 2926.38 1727.5 2926.38 1727.5 2910.08 1727.5 2896.5 1742.07 2896.5 1759.55 2896.5 2167.45 2896.5 2167.45 2896.5 2167.45 2896.5 2184.93 2910.08 2199.5 2926.38 2199.5Z" stroke="#333333" stroke-width="2.86476" stroke-linecap="round" stroke-linejoin="round" stroke-miterlimit="10" fill="none" fill-rule="evenodd"/></g></svg>