<svg width="114" height="190" xmlns="http://www.w3.org/2000/svg" xmlns:xlink="http://www.w3.org/1999/xlink" xml:space="preserve" overflow="hidden"><g transform="translate(-2712 -1113)"><path d="M2780.68 1211.34C2799.63 1198.32 2824 1160.72 2824 1118.78 2824 1113 2819.94 1114.45 2814.52 1114.45 2809.11 1114.45 2803.69 1113 2803.69 1118.78 2803.69 1150.6 2788.8 1176.63 2776.62 1188.2 2772.56 1193.98 2764.44 1192.54 2760.38 1188.2 2748.19 1176.63 2731.95 1150.6 2731.95 1118.78 2731.95 1113 2727.89 1114.45 2722.48 1114.45 2717.06 1114.45 2713 1113 2713 1118.78 2713 1160.72 2736.01 1198.32 2754.96 1211.34 2759.02 1214.23 2759.02 1218.57 2759.02 1218.57 2759.02 1290.88 2759.02 1290.88 2759.02 1290.88 2759.02 1296.66 2763.09 1301 2768.5 1301 2773.91 1301 2777.98 1296.66 2777.98 1290.88 2777.98 1217.12 2777.98 1217.12 2777.98 1217.12 2777.98 1217.12 2777.98 1214.23 2780.68 1211.34Z" fill="#0080FF" fill-rule="evenodd"/><path d="M2761 1210C2741.75 1196.92 2717 1159.14 2717 1117 2718.38 1132.98 2736.25 1189.66 2761 1210Z" fill="#FFFFFF" fill-rule="evenodd"/><path d="M2808.29 1121C2808.29 1151.47 2793.36 1176.14 2782.5 1187.74 2779.79 1190.65 2775.71 1193.55 2773 1193.55 2783.86 1195 2811 1167.43 2808.29 1121Z" fill="#FFFFFF" fill-rule="evenodd"/><path d="M2781.18 1211.84C2800.13 1198.82 2824.5 1161.22 2824.5 1119.28 2824.5 1113.5 2820.44 1114.95 2815.02 1114.95 2809.61 1114.95 2804.2 1113.5 2804.2 1119.28 2804.2 1151.1 2789.3 1177.13 2777.12 1188.7 2773.06 1194.48 2764.94 1193.04 2760.88 1188.7 2748.7 1177.13 2732.45 1151.1 2732.45 1119.28 2732.45 1113.5 2728.39 1114.95 2722.98 1114.95 2717.56 1114.95 2713.5 1113.5 2713.5 1119.28 2713.5 1161.22 2736.51 1198.82 2755.46 1211.84 2759.52 1214.73 2759.52 1219.07 2759.52 1219.07 2759.52 1291.38 2759.52 1291.38 2759.52 1291.38 2759.52 1297.16 2763.59 1301.5 2769 1301.5 2774.41 1301.5 2778.48 1297.16 2778.48 1291.38 2778.48 1217.62 2778.48 1217.62 2778.48 1217.62 2778.48 1217.62 2778.48 1214.73 2781.18 1211.84Z" stroke="#333333" stroke-width="2.86476" stroke-linecap="round" stroke-linejoin="round" stroke-miterlimit="10" fill="none" fill-rule="evenodd"/></g></svg>