<svg width="114" height="190" xmlns="http://www.w3.org/2000/svg" xmlns:xlink="http://www.w3.org/1999/xlink" xml:space="preserve" overflow="hidden"><g transform="translate(-2243 -1113)"><path d="M2311.68 1211.34C2330.63 1198.32 2355 1160.72 2355 1118.78 2355 1113 2350.94 1114.45 2345.52 1114.45 2340.11 1114.45 2334.7 1113 2334.7 1118.78 2334.7 1150.6 2319.8 1176.63 2307.62 1188.2 2303.56 1193.98 2295.44 1192.54 2291.38 1188.2 2279.2 1176.63 2262.95 1150.6 2262.95 1118.78 2262.95 1113 2258.89 1114.45 2253.48 1114.45 2248.06 1114.45 2244 1113 2244 1118.78 2244 1160.72 2267.01 1198.32 2285.96 1211.34 2290.02 1214.23 2290.02 1218.57 2290.02 1218.57 2290.02 1290.88 2290.02 1290.88 2290.02 1290.88 2290.02 1296.66 2294.09 1301 2299.5 1301 2304.91 1301 2308.98 1296.66 2308.98 1290.88 2308.98 1217.12 2308.98 1217.12 2308.98 1217.12 2308.98 1217.12 2308.98 1214.23 2311.68 1211.34Z" fill="#0C00FF" fill-rule="evenodd"/><path d="M2291 1210C2271.75 1196.92 2247 1159.14 2247 1117 2248.38 1132.98 2266.25 1189.66 2291 1210Z" fill="#FFFFFF" fill-rule="evenodd"/><path d="M2338.29 1121C2338.29 1151.47 2323.36 1176.14 2312.5 1187.74 2309.79 1190.65 2305.71 1193.55 2303 1193.55 2313.86 1195 2341 1167.43 2338.29 1121Z" fill="#FFFFFF" fill-rule="evenodd"/><path d="M2312.18 1211.84C2331.13 1198.82 2355.5 1161.22 2355.5 1119.28 2355.5 1113.5 2351.44 1114.95 2346.02 1114.95 2340.61 1114.95 2335.19 1113.5 2335.19 1119.28 2335.19 1151.1 2320.3 1177.13 2308.12 1188.7 2304.06 1194.48 2295.94 1193.04 2291.88 1188.7 2279.69 1177.13 2263.45 1151.1 2263.45 1119.28 2263.45 1113.5 2259.39 1114.95 2253.98 1114.95 2248.56 1114.95 2244.5 1113.5 2244.5 1119.28 2244.5 1161.22 2267.51 1198.82 2286.46 1211.84 2290.52 1214.73 2290.52 1219.07 2290.52 1219.07 2290.52 1291.38 2290.52 1291.38 2290.52 1291.38 2290.52 1297.16 2294.59 1301.5 2300 1301.5 2305.41 1301.5 2309.48 1297.16 2309.48 1291.38 2309.48 1217.62 2309.48 1217.62 2309.48 1217.62 2309.48 1217.62 2309.48 1214.73 2312.18 1211.84Z" stroke="#333333" stroke-width="2.86476" stroke-linecap="round" stroke-linejoin="round" stroke-miterlimit="10" fill="none" fill-rule="evenodd"/></g></svg>