<svg width="202" height="161" xmlns="http://www.w3.org/2000/svg" xmlns:xlink="http://www.w3.org/1999/xlink" xml:space="preserve" overflow="hidden"><g transform="translate(-705 -581)"><path d="M815.333 699.423C815.333 720.769 815.333 720.769 815.333 720.769 815.333 726.462 812.667 730.731 810 735 819.333 726.462 830 712.231 830 705.116 830 698 830 698 830 698 815.333 698 815.333 698 815.333 698 815.333 698 815.333 699.423 815.333 699.423Z" fill="#93405C" fill-rule="evenodd"/><path d="M874.814 582C862.465 582 862.465 582 862.465 582 846 598.123 846 598.123 846 598.123 859.721 598.123 859.721 598.123 859.721 598.123 876.186 598.123 889.907 612.781 889.907 630.37 889.907 665.548 889.907 665.548 889.907 665.548 889.907 674.342 887.163 683.137 881.674 689 894.023 680.205 905 662.616 905 649.425 905 614.246 905 614.246 905 614.246 905 596.657 892.651 582 874.814 582Z" fill="#B785A3" fill-rule="evenodd"/><path d="M736.5 598.06C750.167 598.06 750.167 598.06 750.167 598.06 750.167 599.52 750.167 602.44 750.167 603.9 750.167 631.64 770.667 655 798 655 825.333 655 839 631.64 839 631.64 832.167 636.02 822.6 638.94 813.033 638.94 787.067 638.94 765.2 615.58 765.2 586.38 765.2 584.92 765.2 583.46 765.2 582 751.533 582 751.533 582 751.533 582 739.233 582 721.467 593.68 716 606.82 721.467 602.44 728.3 598.06 736.5 598.06Z" fill="#B785A3" fill-rule="evenodd"/><path d="M874.814 582C862.465 582 862.465 582 862.465 582 846 598.123 846 598.123 846 598.123 859.721 598.123 859.721 598.123 859.721 598.123 876.186 598.123 889.907 612.781 889.907 630.37 889.907 665.548 889.907 665.548 889.907 665.548 889.907 674.342 887.163 683.137 881.674 689 894.023 680.205 905 662.616 905 649.425 905 614.246 905 614.246 905 614.246 905 596.657 892.651 582 874.814 582Z" fill="#93405C" fill-rule="evenodd"/><path d="M736.5 598.06C750.167 598.06 750.167 598.06 750.167 598.06 750.167 599.52 750.167 602.44 750.167 603.9 750.167 631.64 770.667 655 798 655 825.333 655 839 631.64 839 631.64 832.167 636.02 822.6 638.94 813.033 638.94 787.067 638.94 765.2 615.58 765.2 586.38 765.2 584.92 765.2 583.46 765.2 582 751.533 582 751.533 582 751.533 582 739.233 582 721.467 593.68 716 606.82 721.467 602.44 728.3 598.06 736.5 598.06Z" fill="#B97F8E" fill-rule="evenodd"/><path d="M858.955 598C845.298 598 845.298 598 845.298 598 845.298 599.464 846.664 602.392 846.664 603.856 846.664 631.67 824.813 655.093 797.5 655.093 770.187 655.093 749.702 631.67 749.702 603.856 749.702 602.392 749.702 599.464 749.702 598 736.045 598 736.045 598 736.045 598 719.657 598 706 612.639 706 630.206 706 665.34 706 665.34 706 665.34 706 682.907 719.657 697.547 736.045 697.547 779.746 697.547 779.746 697.547 779.746 697.547 779.746 697.547 779.746 699.01 779.746 699.01 779.746 720.969 779.746 720.969 779.746 720.969 779.746 731.217 787.94 740 797.5 740 807.06 740 815.254 731.217 815.254 720.969 815.254 699.01 815.254 699.01 815.254 699.01 815.254 699.01 815.254 697.547 815.254 697.547 858.955 697.547 858.955 697.547 858.955 697.547 875.343 697.547 889 682.907 889 665.34 889 630.206 889 630.206 889 630.206 889 612.639 875.343 598 858.955 598Z" fill="#A35A70" fill-rule="evenodd"/><path d="M802 661C829.222 661 851 637.445 851 608 849.639 638.917 841.472 661 802 661Z" fill="#FFFFFF" fill-rule="evenodd"/><path d="M760.818 636.062C754 627.278 749.909 615.567 749.909 603.856 749.909 602.392 749.909 599.464 749.909 598 739 598 739 598 739 598 740.364 614.103 748.546 628.742 760.818 636.062ZM874 602.392C876.727 608.248 879.454 614.103 879.454 621.423 879.454 656.557 879.454 656.557 879.454 656.557 879.454 674.124 865.818 688.763 849.455 688.763 804.455 688.763 804.455 688.763 804.455 688.763 804.455 688.763 804.455 688.763 804.455 688.763 804.455 712.186 804.455 712.186 804.455 712.186 804.455 722.433 797.636 729.753 788.091 729.753 785.364 729.753 784 729.753 782.636 728.289 785.364 735.608 790.818 740 797.636 740 807.182 740 815.364 731.217 815.364 720.969 815.364 699.01 815.364 699.01 815.364 699.01 815.364 699.01 815.364 697.547 815.364 697.547 859 697.547 859 697.547 859 697.547 875.364 697.547 889 682.907 889 665.34 889 630.206 889 630.206 889 630.206 889 618.495 883.545 608.248 874 602.392Z" fill="#9C4F67" fill-rule="evenodd"/><path d="M710 665C710 631.302 710 631.302 710 631.302 710 612.256 723.636 602 740 602 733.182 603.465 715.454 613.721 714.091 634.233 711.363 654.744 710 665 710 665Z" fill="#FFFFFF" fill-rule="evenodd"/><path d="M751.389 582C739.139 582 721.444 593.765 716 607 721.444 602.588 728.25 598.176 736.417 598.176 750.028 598.176 750.028 598.176 750.028 598.176 765 582 765 582 765 582L751.389 582Z" fill="#D0A7B0" fill-rule="evenodd"/><path d="M894 589.5C888.514 585 881.657 582 874.8 582 862.457 582 862.457 582 862.457 582 846 598.5 846 598.5 846 598.5 859.714 598.5 859.714 598.5 859.714 598.5 866.571 598.5 873.429 601.5 878.914 606L894 589.5Z" fill="#D0A7B0" fill-rule="evenodd"/><path d="M859.455 598.5C845.799 598.5 845.799 598.5 845.799 598.5 845.799 599.964 847.164 602.892 847.164 604.356 847.164 632.17 825.313 655.593 798 655.593 770.687 655.593 750.201 632.17 750.201 604.356 750.201 602.892 750.201 599.964 750.201 598.5 736.545 598.5 736.545 598.5 736.545 598.5 720.157 598.5 706.5 613.139 706.5 630.706 706.5 665.84 706.5 665.84 706.5 665.84 706.5 683.407 720.157 698.046 736.545 698.046 780.246 698.046 780.246 698.046 780.246 698.046 780.246 698.046 780.246 699.51 780.246 699.51 780.246 721.469 780.246 721.469 780.246 721.469 780.246 731.716 788.44 740.5 798 740.5 807.56 740.5 815.754 731.716 815.754 721.469 815.754 699.51 815.754 699.51 815.754 699.51 815.754 699.51 815.754 698.046 815.754 698.046 859.455 698.046 859.455 698.046 859.455 698.046 875.843 698.046 889.5 683.407 889.5 665.84 889.5 630.706 889.5 630.706 889.5 630.706 889.5 613.139 875.843 598.5 859.455 598.5Z" stroke="#333333" stroke-width="2.86476" stroke-linecap="round" stroke-linejoin="round" stroke-miterlimit="10" fill="none" fill-rule="evenodd"/><path d="M0 0 15.0001 15.9998" stroke="#333333" stroke-width="2.86476" stroke-linecap="round" stroke-linejoin="round" stroke-miterlimit="10" fill="none" fill-rule="evenodd" transform="matrix(-1 0 0 1 765.5 582.5)"/><path d="M875.314 582.5C862.965 582.5 862.965 582.5 862.965 582.5 846.5 598.623 846.5 598.623 846.5 598.623 860.221 598.623 860.221 598.623 860.221 598.623 876.686 598.623 890.407 613.281 890.407 630.87 890.407 666.048 890.407 666.048 890.407 666.048 890.407 674.843 887.663 683.637 882.174 689.5 894.523 680.706 905.5 663.117 905.5 649.925 905.5 614.747 905.5 614.747 905.5 614.747 905.5 597.158 893.151 582.5 875.314 582.5Z" stroke="#333333" stroke-width="2.86476" stroke-linecap="round" stroke-linejoin="round" stroke-miterlimit="10" fill="none" fill-rule="evenodd"/><path d="M737 598.56C750.667 598.56 750.667 598.56 750.667 598.56 750.667 600.02 750.667 602.94 750.667 604.4 750.667 632.14 771.167 655.5 798.5 655.5 825.833 655.5 839.5 632.14 839.5 632.14 832.667 636.52 823.1 639.44 813.533 639.44 787.567 639.44 765.7 616.08 765.7 586.88 765.7 585.42 765.7 583.96 765.7 582.5 752.033 582.5 752.033 582.5 752.033 582.5 739.733 582.5 721.967 594.18 716.5 607.32 721.967 602.94 728.8 598.56 737 598.56Z" stroke="#333333" stroke-width="2.86476" stroke-linecap="round" stroke-linejoin="round" stroke-miterlimit="10" fill="none" fill-rule="evenodd"/><path d="M815.833 699.923C815.833 721.269 815.833 721.269 815.833 721.269 815.833 726.962 813.167 731.231 810.5 735.5 819.833 726.962 830.5 712.731 830.5 705.615 830.5 698.5 830.5 698.5 830.5 698.5 815.833 698.5 815.833 698.5 815.833 698.5 815.833 698.5 815.833 699.923 815.833 699.923Z" stroke="#333333" stroke-width="2.86476" stroke-linecap="round" stroke-linejoin="round" stroke-miterlimit="10" fill="none" fill-rule="evenodd"/></g></svg>