<svg width="114" height="190" xmlns="http://www.w3.org/2000/svg" xmlns:xlink="http://www.w3.org/1999/xlink" xml:space="preserve" overflow="hidden"><g transform="translate(-3182 -1113)"><path d="M3250.68 1211.34C3269.63 1198.32 3294 1160.72 3294 1118.78 3294 1113 3289.94 1114.45 3284.52 1114.45 3279.11 1114.45 3273.7 1113 3273.7 1118.78 3273.7 1150.6 3258.81 1176.63 3246.62 1188.2 3242.56 1193.98 3234.44 1192.54 3230.38 1188.2 3218.2 1176.63 3201.95 1150.6 3201.95 1118.78 3201.95 1113 3197.89 1114.45 3192.48 1114.45 3187.06 1114.45 3183 1113 3183 1118.78 3183 1160.72 3206.01 1198.32 3224.96 1211.34 3229.02 1214.23 3229.02 1218.57 3229.02 1218.57 3229.02 1290.88 3229.02 1290.88 3229.02 1290.88 3229.02 1296.66 3233.09 1301 3238.5 1301 3243.91 1301 3247.98 1296.66 3247.98 1290.88 3247.98 1217.12 3247.98 1217.12 3247.98 1217.12 3247.98 1217.12 3247.98 1214.23 3250.68 1211.34Z" fill="#00FFFF" fill-rule="evenodd"/><path d="M3230 1210C3211.19 1196.92 3187 1159.14 3187 1117 3188.34 1132.98 3205.81 1189.66 3230 1210Z" fill="#FFFFFF" fill-rule="evenodd"/><path d="M3278.29 1121C3278.29 1151.47 3263.36 1176.14 3252.5 1187.74 3249.79 1190.65 3245.71 1193.55 3243 1193.55 3253.86 1195 3281 1167.43 3278.29 1121Z" fill="#FFFFFF" fill-rule="evenodd"/><path d="M3251.18 1211.84C3270.13 1198.82 3294.5 1161.22 3294.5 1119.28 3294.5 1113.5 3290.44 1114.95 3285.02 1114.95 3279.61 1114.95 3274.2 1113.5 3274.2 1119.28 3274.2 1151.1 3259.3 1177.13 3247.12 1188.7 3243.06 1194.48 3234.94 1193.04 3230.88 1188.7 3218.7 1177.13 3202.45 1151.1 3202.45 1119.28 3202.45 1113.5 3198.39 1114.95 3192.98 1114.95 3187.56 1114.95 3183.5 1113.5 3183.5 1119.28 3183.5 1161.22 3206.51 1198.82 3225.46 1211.84 3229.52 1214.73 3229.52 1219.07 3229.52 1219.07 3229.52 1291.38 3229.52 1291.38 3229.52 1291.38 3229.52 1297.16 3233.59 1301.5 3239 1301.5 3244.41 1301.5 3248.48 1297.16 3248.48 1291.38 3248.48 1217.62 3248.48 1217.62 3248.48 1217.62 3248.48 1217.62 3248.48 1214.73 3251.18 1211.84Z" stroke="#333333" stroke-width="2.86476" stroke-linecap="round" stroke-linejoin="round" stroke-miterlimit="10" fill="none" fill-rule="evenodd"/></g></svg>