<svg width="178" height="494" xmlns="http://www.w3.org/2000/svg" xmlns:xlink="http://www.w3.org/1999/xlink" xml:space="preserve" overflow="hidden"><g transform="translate(-1514 -1706)"><path d="M1627 2198 1627 1806.4 1673.57 1723.39 1644.53 1723.39 1659.87 1707 1690 1707 1641.79 2182.16 1627 2198Z" fill="#DF4375" fill-rule="evenodd"/><path d="M1628 1752.21 1618.76 1768 1569.87 1768 1545.42 1723.34 1515 1723.34 1530.21 1707 1560.09 1707 1584.54 1752.21 1628 1752.21Z" fill="#FCCAD6" fill-rule="evenodd"/><path d="M1645 1723 1645 1723ZM1690 1707 1660.18 1707 1645 1723 1673.73 1723 1690 1707Z" fill="#FCCAD6" fill-rule="evenodd"/><path d="M1674 1723 1645.04 1723 1619.36 1767.82 1570.19 1767.82 1545.6 1723 1515 1723 1561.99 2198 1627.56 2198 1674 1723Z" fill="#F98CAB" fill-rule="evenodd"/><path d="M1639 1742 1621.68 1771.61 1593 1771.61 1624.39 1776 1639 1742Z" fill="#FFFFFF" fill-rule="evenodd"/><path d="M1560 1707 1545 1723.34 1570 1768 1585 1752.21 1560 1707Z" fill="#DF4375" fill-rule="evenodd"/><path d="M1668.54 1723 1617.73 2186.52 1563.09 2195.27 1562 2198 1627.56 2198 1674 1723 1668.54 1723Z" fill="#E45D87" fill-rule="evenodd"/><path d="M1536 1726 1562.98 1769.37 1570 1771 1545.71 1726 1536 1726Z" fill="#E45D87" fill-rule="evenodd"/><path d="M1674.5 1723.5 1645.54 1723.5 1619.86 1768.32 1570.69 1768.32 1546.1 1723.5 1515.5 1723.5 1562.49 2198.5 1628.06 2198.5 1674.5 1723.5Z" stroke="#333333" stroke-width="2.86476" stroke-linecap="round" stroke-linejoin="round" stroke-miterlimit="10" fill="none" fill-rule="evenodd"/><path d="M1627.5 2198.5 1674.07 1723.88 1645.03 1723.88 1660.37 1707.5 1690.5 1707.5 1642.29 2182.66 1627.5 2198.5Z" stroke="#333333" stroke-width="2.86476" stroke-linecap="round" stroke-linejoin="round" stroke-miterlimit="10" fill="none" fill-rule="evenodd"/><path d="M1628.5 1752.71 1619.26 1768.5 1570.37 1768.5 1545.92 1723.84 1515.5 1723.84 1530.71 1707.5 1560.59 1707.5 1585.04 1752.71 1628.5 1752.71" stroke="#333333" stroke-width="2.86476" stroke-linecap="round" stroke-linejoin="round" stroke-miterlimit="10" fill="none" fill-rule="evenodd"/><path d="M0 0 16.0002 16.0002" stroke="#333333" stroke-width="2.86476" stroke-linecap="round" stroke-linejoin="round" stroke-miterlimit="10" fill="none" fill-rule="evenodd" transform="matrix(-1 0 0 1 1560.5 1707.5)"/><path d="M0 0 16.0002 16.0002" stroke="#333333" stroke-width="2.86476" stroke-linecap="round" stroke-linejoin="round" stroke-miterlimit="10" fill="none" fill-rule="evenodd" transform="matrix(-1 0 0 1 1690.5 1708.5)"/><path d="M0 0 14.9998 16.0002" stroke="#333333" stroke-width="2.86476" stroke-linecap="round" stroke-linejoin="round" stroke-miterlimit="10" fill="none" fill-rule="evenodd" transform="matrix(-1 0 0 1 1585.5 1752.5)"/></g></svg>