<svg width="201" height="149" xmlns="http://www.w3.org/2000/svg" xmlns:xlink="http://www.w3.org/1999/xlink" xml:space="preserve" overflow="hidden"><defs><clipPath id="clip0"><rect x="895" y="1152" width="201" height="149"/></clipPath></defs><g clip-path="url(#clip0)" transform="translate(-895 -1152)"><path d="M1005 1268 1005 1299 1022 1283.5 1022 1268 1005 1268Z" fill="#F29A01" fill-rule="evenodd"/><path d="M1063.64 1153C1040.18 1153 1040.18 1153 1040.18 1153 1025 1168.89 1025 1168.89 1025 1168.89 1048.46 1168.89 1048.46 1168.89 1048.46 1168.89 1065.02 1168.89 1078.82 1183.33 1078.82 1200.67 1078.82 1235.33 1078.82 1235.33 1078.82 1235.33 1078.82 1244 1076.06 1251.22 1070.54 1257 1082.96 1248.33 1094 1231 1094 1219.44 1094 1184.78 1094 1184.78 1094 1184.78 1094 1167.44 1080.2 1153 1063.64 1153Z" fill="#F29A01" fill-rule="evenodd"/><path d="M926.027 1168.95C949.315 1168.95 949.315 1168.95 949.315 1168.95 987.671 1240 987.671 1240 987.671 1240 1000 1216.8 1000 1216.8 1000 1216.8 964.384 1153 964.384 1153 964.384 1153 941.096 1153 941.096 1153 941.096 1153 926.027 1153 905.479 1167.5 900 1183.45 905.479 1174.75 915.068 1168.95 926.027 1168.95Z" fill="#F7DA6B" fill-rule="evenodd"/><path d="M1062.84 1172C1078 1156.29 1078 1156.29 1078 1156.29 1073.86 1153.43 1068.35 1152 1062.84 1152 1042.16 1152 1042.16 1152 1042.16 1152 1042.16 1152 1042.16 1152 1042.16 1152 1027 1167.71 1027 1167.71 1027 1167.71 1027 1167.71 1027 1167.71 1027 1167.71 1047.68 1167.71 1047.68 1167.71 1047.68 1167.71 1053.19 1167.71 1058.7 1170.57 1062.84 1172Z" fill="#F7DA6B" fill-rule="evenodd"/><path d="M1048.96 1168C1025.74 1168 1025.74 1168 1025.74 1168 987.5 1239.32 987.5 1239.32 987.5 1239.32 949.261 1168 949.261 1168 949.261 1168 926.045 1168 926.045 1168 926.045 1168 909.657 1168 896 1182.56 896 1200.02 896 1234.96 896 1234.96 896 1234.96 896 1252.42 909.657 1266.98 926.045 1266.98 968.381 1266.98 968.381 1266.98 968.381 1266.98 968.381 1299 968.381 1299 968.381 1299 1005.25 1299 1005.25 1299 1005.25 1299 1005.25 1266.98 1005.25 1266.98 1005.25 1266.98 1048.96 1266.98 1048.96 1266.98 1048.96 1266.98 1065.34 1266.98 1079 1252.42 1079 1234.96 1079 1200.02 1079 1200.02 1079 1200.02 1079 1182.56 1065.34 1168 1048.96 1168Z" fill="#F2BA02" fill-rule="evenodd"/><path d="M902 1237C902 1203.3 902 1203.3 902 1203.3 902 1184.26 915.636 1174 932 1174 925.182 1175.46 908.818 1185.72 906.091 1206.23 904.727 1226.74 902 1237 902 1237Z" fill="#FFFFFF" fill-rule="evenodd"/><path d="M977.891 1220.4C949.198 1168 949.198 1168 949.198 1168 941 1168 941 1168 941 1168 980.624 1227.68 980.624 1227.68 980.624 1227.68L977.891 1220.4ZM1058.5 1169.46C1062.6 1175.28 1065.34 1182.56 1065.34 1189.83 1065.34 1224.77 1065.34 1224.77 1065.34 1224.77 1065.34 1242.23 1051.67 1256.79 1035.28 1256.79 991.554 1256.79 991.554 1256.79 991.554 1256.79 991.554 1288.81 991.554 1288.81 991.554 1288.81 968.327 1288.81 968.327 1288.81 968.327 1288.81 968.327 1299 968.327 1299 968.327 1299 1005.22 1299 1005.22 1299 1005.22 1299 1005.22 1266.98 1005.22 1266.98 1005.22 1266.98 1048.94 1266.98 1048.94 1266.98 1048.94 1266.98 1065.34 1266.98 1079 1252.42 1079 1234.96 1079 1200.02 1079 1200.02 1079 1200.02 1079 1186.92 1070.8 1173.82 1058.5 1169.46Z" fill="#F2A701" fill-rule="evenodd"/><path d="M1028.48 1174C994 1236 994 1236 994 1236 1034 1178.43 1034 1178.43 1034 1178.43 1034 1178.43 1031.24 1174 1028.48 1174Z" fill="#FFFFFF" fill-rule="evenodd"/><path d="M948 1168.77 949.095 1168.77 987.411 1240 1000 1216.62 965.516 1153 948 1168.77Z" fill="#F4C92F" fill-rule="evenodd"/><path d="M1049.46 1168.5C1026.24 1168.5 1026.24 1168.5 1026.24 1168.5 988 1239.82 988 1239.82 988 1239.82 949.761 1168.5 949.761 1168.5 949.761 1168.5 926.545 1168.5 926.545 1168.5 926.545 1168.5 910.157 1168.5 896.5 1183.06 896.5 1200.52 896.5 1235.46 896.5 1235.46 896.5 1235.46 896.5 1252.92 910.157 1267.48 926.545 1267.48 968.881 1267.48 968.881 1267.48 968.881 1267.48 968.881 1299.5 968.881 1299.5 968.881 1299.5 1005.75 1299.5 1005.75 1299.5 1005.75 1299.5 1005.75 1267.48 1005.75 1267.48 1005.75 1267.48 1049.46 1267.48 1049.46 1267.48 1049.46 1267.48 1065.84 1267.48 1079.5 1252.92 1079.5 1235.46 1079.5 1200.52 1079.5 1200.52 1079.5 1200.52 1079.5 1183.06 1065.84 1168.5 1049.46 1168.5Z" stroke="#333333" stroke-width="2.86476" stroke-linecap="round" stroke-linejoin="round" stroke-miterlimit="10" fill="none" fill-rule="evenodd"/><path d="M1005.5 1268.5 1005.5 1299.5 1022.5 1284 1022.5 1268.5 1005.5 1268.5Z" stroke="#333333" stroke-width="2.86476" stroke-linecap="round" stroke-linejoin="round" stroke-miterlimit="10" fill="none" fill-rule="evenodd"/><path d="M926.528 1169.45C949.815 1169.45 949.815 1169.45 949.815 1169.45 988.171 1240.5 988.171 1240.5 988.171 1240.5 1000.5 1217.3 1000.5 1217.3 1000.5 1217.3 964.884 1153.5 964.884 1153.5 964.884 1153.5 941.596 1153.5 941.596 1153.5 941.596 1153.5 926.528 1153.5 905.98 1168 900.5 1183.95 905.98 1175.25 915.569 1169.45 926.528 1169.45Z" stroke="#333333" stroke-width="2.86476" stroke-linecap="round" stroke-linejoin="round" stroke-miterlimit="10" fill="none" fill-rule="evenodd"/><path d="M1064.14 1153.5C1040.68 1153.5 1040.68 1153.5 1040.68 1153.5 1025.5 1169.39 1025.5 1169.39 1025.5 1169.39 1048.96 1169.39 1048.96 1169.39 1048.96 1169.39 1065.52 1169.39 1079.32 1183.83 1079.32 1201.17 1079.32 1235.83 1079.32 1235.83 1079.32 1235.83 1079.32 1244.5 1076.56 1251.72 1071.04 1257.5 1083.46 1248.83 1094.5 1231.5 1094.5 1219.94 1094.5 1185.28 1094.5 1185.28 1094.5 1185.28 1094.5 1167.94 1080.7 1153.5 1064.14 1153.5Z" stroke="#333333" stroke-width="2.86476" stroke-linecap="round" stroke-linejoin="round" stroke-miterlimit="10" fill="none" fill-rule="evenodd"/><path d="M0 0 15.0001 14.9998" stroke="#333333" stroke-width="2.86476" stroke-linecap="round" stroke-linejoin="round" stroke-miterlimit="10" fill="none" fill-rule="evenodd" transform="matrix(-1 0 0 1 963.5 1153.5)"/></g></svg>