<svg width="201" height="161" xmlns="http://www.w3.org/2000/svg" xmlns:xlink="http://www.w3.org/1999/xlink" xml:space="preserve" overflow="hidden"><g transform="translate(-1933 -581)"><path d="M2043.6 699.423C2043.6 720.769 2043.6 720.769 2043.6 720.769 2043.6 726.462 2040.8 730.731 2038 735 2047.8 726.462 2059 712.231 2059 705.116 2059 698 2059 698 2059 698 2043.6 698 2043.6 698 2043.6 698 2043.6 699.423 2043.6 699.423 2043.6 699.423Z" fill="#FCD900" fill-rule="evenodd"/><path d="M2101.81 582C2089.47 582 2089.47 582 2089.47 582 2073 598.123 2073 598.123 2073 598.123 2086.72 598.123 2086.72 598.123 2086.72 598.123 2103.19 598.123 2116.91 612.781 2116.91 630.37 2116.91 665.548 2116.91 665.548 2116.91 665.548 2116.91 674.342 2114.16 683.137 2108.67 689 2121.02 680.205 2132 662.616 2132 649.425 2132 614.246 2132 614.246 2132 614.246 2132 596.657 2119.65 582 2101.81 582Z" fill="#B785A3" fill-rule="evenodd"/><path d="M1964.5 598.06C1978.17 598.06 1978.17 598.06 1978.17 598.06 1978.17 599.52 1978.17 602.44 1978.17 603.9 1978.17 631.64 1998.67 655 2026 655 2053.33 655 2067 631.64 2067 631.64 2060.17 636.02 2050.6 638.94 2041.03 638.94 2015.07 638.94 1993.2 615.58 1993.2 586.38 1993.2 584.92 1993.2 583.46 1993.2 582 1979.53 582 1979.53 582 1979.53 582 1967.23 582 1949.47 593.68 1944 606.82 1949.47 602.44 1956.3 598.06 1964.5 598.06Z" fill="#B785A3" fill-rule="evenodd"/><path d="M2101.81 582C2089.47 582 2089.47 582 2089.47 582 2073 598.123 2073 598.123 2073 598.123 2086.72 598.123 2086.72 598.123 2086.72 598.123 2103.19 598.123 2116.91 612.781 2116.91 630.37 2116.91 665.548 2116.91 665.548 2116.91 665.548 2116.91 674.342 2114.16 683.137 2108.67 689 2121.02 680.205 2132 662.616 2132 649.425 2132 614.246 2132 614.246 2132 614.246 2132 596.657 2119.65 582 2101.81 582Z" fill="#FCD900" fill-rule="evenodd"/><path d="M1964.5 598.06C1978.17 598.06 1978.17 598.06 1978.17 598.06 1978.17 599.52 1978.17 602.44 1978.17 603.9 1978.17 631.64 1998.67 655 2026 655 2053.33 655 2067 631.64 2067 631.64 2060.17 636.02 2050.6 638.94 2041.03 638.94 2015.07 638.94 1993.2 615.58 1993.2 586.38 1993.2 584.92 1993.2 583.46 1993.2 582 1979.53 582 1979.53 582 1979.53 582 1967.23 582 1949.47 593.68 1944 606.82 1949.47 602.44 1956.3 598.06 1964.5 598.06Z" fill="#FFFF25" fill-rule="evenodd"/><path d="M2087.79 598C2074.06 598 2074.06 598 2074.06 598 2074.06 599.464 2075.43 602.392 2075.43 603.856 2075.43 631.67 2053.46 655.093 2026 655.093 1998.54 655.093 1977.94 631.67 1977.94 603.856 1977.94 602.392 1977.94 599.464 1977.94 598 1964.21 598 1964.21 598 1964.21 598 1947.73 598 1934 612.639 1934 630.206 1934 665.34 1934 665.34 1934 665.34 1934 682.907 1947.73 697.547 1964.21 697.547 2008.15 697.547 2008.15 697.547 2008.15 697.547 2008.15 699.01 2008.15 699.01 2008.15 699.01 2008.15 720.969 2008.15 720.969 2008.15 720.969 2008.15 731.217 2016.39 740 2026 740 2035.61 740 2043.85 731.217 2043.85 720.969 2043.85 699.01 2043.85 699.01 2043.85 699.01 2043.85 697.547 2043.85 697.547 2043.85 697.547 2087.79 697.547 2087.79 697.547 2087.79 697.547 2104.27 697.547 2118 682.907 2118 665.34 2118 630.206 2118 630.206 2118 630.206 2118 612.639 2104.27 598 2087.79 598Z" fill="#FFF307" fill-rule="evenodd"/><path d="M2030 661C2057.22 661 2079 637.445 2079 608 2077.64 638.917 2069.47 661 2030 661Z" fill="#FFFFFF" fill-rule="evenodd"/><path d="M1988.96 636.062C1982.1 627.278 1977.98 615.567 1977.98 603.856 1977.98 602.392 1977.98 599.464 1977.98 598 1967 598 1967 598 1967 598 1968.37 614.103 1976.61 628.742 1988.96 636.062ZM2102.9 602.392C2105.65 608.248 2108.39 614.103 2108.39 621.423 2108.39 656.557 2108.39 656.557 2108.39 656.557 2108.39 674.124 2094.66 688.763 2078.19 688.763 2032.89 688.763 2032.89 688.763 2032.89 688.763 2032.89 688.763 2032.89 688.763 2032.89 688.763 2032.89 712.186 2032.89 712.186 2032.89 712.186 2032.89 722.433 2026.03 729.753 2016.42 729.753 2013.67 729.753 2012.3 729.753 2010.93 728.289 2013.67 735.608 2019.16 740 2026.03 740 2035.64 740 2043.87 731.217 2043.87 720.969 2043.87 699.01 2043.87 699.01 2043.87 699.01 2043.87 697.547 2043.87 697.547 2043.87 697.547 2087.8 697.547 2087.8 697.547 2087.8 697.547 2104.27 697.547 2118 682.907 2118 665.34 2118 630.206 2118 630.206 2118 630.206 2118 618.495 2112.51 608.248 2102.9 602.392Z" fill="#FFE800" fill-rule="evenodd"/><path d="M1939 665C1939 631.837 1939 631.837 1939 631.837 1939 613.093 1952.64 603 1969 603 1962.18 604.442 1944.45 614.535 1943.09 634.721 1940.36 654.907 1939 665 1939 665Z" fill="#FFFFFF" fill-rule="evenodd"/><path d="M1979.39 582C1967.14 582 1949.44 593.765 1944 607 1949.44 602.588 1956.25 598.176 1964.42 598.176 1978.03 598.176 1978.03 598.176 1978.03 598.176 1993 582 1993 582 1993 582L1979.39 582Z" fill="#FFFF47" fill-rule="evenodd"/><path d="M2121 589.5C2115.51 585 2108.66 582 2101.8 582 2089.46 582 2089.46 582 2089.46 582 2073 598.5 2073 598.5 2073 598.5 2086.71 598.5 2086.71 598.5 2086.71 598.5 2093.57 598.5 2100.43 601.5 2105.91 606L2121 589.5Z" fill="#FFFF47" fill-rule="evenodd"/><path d="M2088.29 598.5C2074.56 598.5 2074.56 598.5 2074.56 598.5 2074.56 599.964 2075.93 602.892 2075.93 604.356 2075.93 632.17 2053.96 655.593 2026.5 655.593 1999.04 655.593 1978.44 632.17 1978.44 604.356 1978.44 602.892 1978.44 599.964 1978.44 598.5 1964.71 598.5 1964.71 598.5 1964.71 598.5 1948.23 598.5 1934.5 613.139 1934.5 630.706 1934.5 665.84 1934.5 665.84 1934.5 665.84 1934.5 683.407 1948.23 698.046 1964.71 698.046 2008.65 698.046 2008.65 698.046 2008.65 698.046 2008.65 699.51 2008.65 699.51 2008.65 699.51 2008.65 721.469 2008.65 721.469 2008.65 721.469 2008.65 731.716 2016.89 740.5 2026.5 740.5 2036.11 740.5 2044.35 731.716 2044.35 721.469 2044.35 699.51 2044.35 699.51 2044.35 699.51 2044.35 698.046 2044.35 698.046 2044.35 698.046 2088.29 698.046 2088.29 698.046 2088.29 698.046 2104.77 698.046 2118.5 683.407 2118.5 665.84 2118.5 630.706 2118.5 630.706 2118.5 630.706 2118.5 613.139 2104.77 598.5 2088.29 598.5Z" stroke="#333333" stroke-width="2.86476" stroke-linecap="round" stroke-linejoin="round" stroke-miterlimit="10" fill="none" fill-rule="evenodd"/><path d="M0 0 14.9998 15.9998" stroke="#333333" stroke-width="2.86476" stroke-linecap="round" stroke-linejoin="round" stroke-miterlimit="10" fill="none" fill-rule="evenodd" transform="matrix(-1 0 0 1 1993.5 582.5)"/><path d="M2102.31 582.5C2089.97 582.5 2089.97 582.5 2089.97 582.5 2073.5 598.623 2073.5 598.623 2073.5 598.623 2087.22 598.623 2087.22 598.623 2087.22 598.623 2103.69 598.623 2117.41 613.281 2117.41 630.87 2117.41 666.048 2117.41 666.048 2117.41 666.048 2117.41 674.843 2114.66 683.637 2109.17 689.5 2121.52 680.706 2132.5 663.117 2132.5 649.925 2132.5 614.747 2132.5 614.747 2132.5 614.747 2132.5 597.158 2120.15 582.5 2102.31 582.5Z" stroke="#333333" stroke-width="2.86476" stroke-linecap="round" stroke-linejoin="round" stroke-miterlimit="10" fill="none" fill-rule="evenodd"/><path d="M1965 598.56C1978.67 598.56 1978.67 598.56 1978.67 598.56 1978.67 600.02 1978.67 602.94 1978.67 604.4 1978.67 632.14 1999.17 655.5 2026.5 655.5 2053.83 655.5 2067.5 632.14 2067.5 632.14 2060.67 636.52 2051.1 639.44 2041.53 639.44 2015.57 639.44 1993.7 616.08 1993.7 586.88 1993.7 585.42 1993.7 583.96 1993.7 582.5 1980.03 582.5 1980.03 582.5 1980.03 582.5 1967.73 582.5 1949.97 594.18 1944.5 607.32 1949.97 602.94 1956.8 598.56 1965 598.56Z" stroke="#333333" stroke-width="2.86476" stroke-linecap="round" stroke-linejoin="round" stroke-miterlimit="10" fill="none" fill-rule="evenodd"/><path d="M2044.1 699.923C2044.1 721.269 2044.1 721.269 2044.1 721.269 2044.1 726.962 2041.3 731.231 2038.5 735.5 2048.3 726.962 2059.5 712.731 2059.5 705.615 2059.5 698.5 2059.5 698.5 2059.5 698.5 2044.1 698.5 2044.1 698.5 2044.1 698.5 2044.1 699.923 2044.1 699.923 2044.1 699.923Z" stroke="#333333" stroke-width="2.86476" stroke-linecap="round" stroke-linejoin="round" stroke-miterlimit="10" fill="none" fill-rule="evenodd"/></g></svg>