<svg width="1141" height="823" xmlns="http://www.w3.org/2000/svg" xmlns:xlink="http://www.w3.org/1999/xlink" xml:space="preserve" overflow="hidden"><g transform="translate(-1017 -500)"><path d="M2156 1321C2156 624 2156 624 2156 624 1589.98 624 1130 937.344 1130 1321 2156 1321 2156 1321 2156 1321" fill="#FA9191" fill-rule="evenodd"/><path d="M2156 623.846C2156 526 2156 526 2156 526 1865.29 526 1590.34 603.971 1382.69 746.154 1160.72 895.981 1039 1100.85 1039 1321 1130.65 1321 1130.65 1321 1130.65 1321 1130.65 937.26 1590.34 623.846 2156 623.846Z" fill="#F94A5B" fill-rule="evenodd"/><path d="M1382.69 746.495C1587.48 607.453 1858.13 529.528 2144.54 528 2144.54 528 2144.54 528 2144.54 528 2144.54 534.112 2150.27 540.224 2156 543.279 2156 561.615 2156 561.615 2156 561.615 2156 561.615 2156 561.615 2154.57 561.615 2145.98 560.087 2138.82 555.503 2134.52 547.863 2128.79 557.031 2118.77 563.143 2108.74 563.143 2098.72 563.143 2088.69 557.031 2082.97 549.391 2077.24 558.559 2067.21 564.671 2055.76 564.671 2045.73 564.671 2037.14 560.087 2031.41 552.447 2025.68 563.143 2015.66 569.254 2002.77 569.254 1994.18 569.254 1985.59 566.198 1979.86 560.087 1974.13 569.254 1964.11 576.894 1952.65 576.894 1944.06 576.894 1935.46 572.31 1929.74 566.198 1924.01 576.894 1913.98 583.006 1902.53 583.006 1893.93 583.006 1886.77 578.422 1881.05 572.31 1875.32 584.534 1863.86 592.173 1850.97 592.173 1843.81 592.173 1836.65 589.118 1830.92 584.534 1825.2 595.229 1815.17 602.869 1802.28 602.869 1795.12 602.869 1787.96 599.813 1782.23 595.229 1777.94 605.925 1766.48 615.092 1753.59 615.092 1746.43 615.092 1739.27 612.037 1733.54 607.453 1729.25 619.676 1717.79 627.316 1704.9 627.316 1697.74 627.316 1690.58 625.788 1684.86 621.204 1680.56 634.956 1669.1 645.651 1654.78 645.651 1646.19 645.651 1640.46 642.595 1634.73 638.012 1630.44 653.291 1618.98 663.987 1603.23 663.987 1596.07 663.987 1590.34 662.459 1584.61 657.875 1581.75 673.154 1568.86 685.378 1553.11 685.378 1547.38 685.378 1541.65 683.85 1535.92 680.794 1534.49 697.601 1520.17 711.353 1504.42 711.353 1498.69 711.353 1491.53 708.297 1487.23 705.241 1484.37 722.048 1471.48 734.272 1455.73 734.272 1451.43 734.272 1447.13 732.744 1442.84 731.216 1441.41 749.551 1428.52 761.775 1411.33 761.775 1407.04 761.775 1401.31 761.775 1397.01 758.719 1397.01 777.054 1382.69 792.333 1365.51 792.333 1361.21 792.333 1358.35 792.333 1355.48 790.805 1354.05 809.141 1339.73 822.892 1322.55 822.892 1319.68 822.892 1316.82 822.892 1313.95 821.364 1313.95 822.892 1313.95 822.892 1313.95 824.42 1313.95 842.755 1299.63 858.035 1281.02 858.035 1279.58 858.035 1278.15 858.035 1275.29 858.035 1275.29 858.035 1275.29 859.563 1275.29 859.563 1275.29 879.426 1260.97 894.705 1243.78 894.705 1240.92 894.705 1239.49 894.705 1236.62 893.177 1238.06 896.233 1238.06 899.289 1238.06 902.345 1238.06 920.68 1223.73 935.96 1205.12 935.96 1202.25 935.96 1197.96 935.96 1195.09 934.432 1197.96 939.015 1199.39 945.127 1199.39 951.239 1199.39 969.574 1185.07 984.854 1166.45 984.854 1163.59 984.854 1160.72 984.854 1157.86 983.326 1160.72 989.437 1163.59 995.549 1163.59 1003.19 1163.59 1021.52 1147.84 1036.8 1130.65 1036.8 1129.22 1036.8 1127.79 1036.8 1126.36 1036.8 1130.65 1042.92 1133.52 1050.55 1133.52 1058.19 1133.52 1076.53 1120.63 1091.81 1103.44 1091.81 1107.74 1097.92 1109.17 1105.56 1109.17 1113.2 1109.17 1130.01 1097.71 1143.76 1083.39 1146.82 1089.12 1152.93 1091.99 1160.57 1091.99 1169.73 1091.99 1185.01 1083.39 1197.24 1070.51 1201.82 1076.23 1209.46 1079.1 1217.1 1079.1 1226.27 1079.1 1240.02 1071.94 1252.24 1061.91 1256.83 1069.07 1264.47 1073.37 1273.63 1073.37 1284.33 1073.37 1296.55 1066.21 1307.25 1057.62 1313.36 1057.62 1313.36 1059.05 1314.89 1059.05 1314.89 1060.48 1316.42 1061.91 1319.47 1061.91 1321 1039 1321 1039 1321 1039 1321 1039 1100.98 1160.72 896.233 1382.69 746.495Z" fill="#D6002D" fill-rule="evenodd"/><path d="M1942.71 662.302C1936.98 671.472 1926.96 677.585 1915.51 677.585 1908.35 677.585 1901.2 674.528 1895.47 669.943 1889.74 679.113 1879.72 686.755 1868.27 686.755 1861.12 686.755 1853.96 683.698 1849.66 679.113 1843.94 689.811 1833.92 695.924 1821.03 695.924 1815.31 695.924 1808.15 694.396 1802.42 689.811 1798.13 700.509 1786.68 708.151 1775.23 708.151 1768.07 708.151 1762.34 705.094 1756.62 702.038 1752.32 712.736 1740.87 721.906 1727.99 721.906 1722.26 721.906 1716.54 720.377 1710.81 715.792 1706.52 728.019 1695.06 737.189 1682.18 737.189 1676.45 737.189 1670.73 735.66 1666.43 732.604 1662.14 744.83 1650.69 754 1636.37 754 1630.65 754 1626.35 752.472 1622.06 749.415 1617.76 763.17 1606.31 773.868 1592 773.868 1586.27 773.868 1581.98 772.34 1577.68 769.283 1574.82 784.566 1561.94 793.736 1547.62 793.736 1543.33 793.736 1539.03 793.736 1534.74 790.679 1531.88 805.962 1518.99 816.66 1504.68 816.66 1500.38 816.66 1496.09 816.66 1493.23 815.132 1490.36 830.415 1477.48 842.641 1461.73 842.641 1458.87 842.641 1456.01 841.113 1451.71 841.113 1450.28 856.396 1437.4 868.623 1421.65 868.623 1418.79 868.623 1415.93 868.623 1413.06 867.094 1411.63 885.434 1398.75 897.66 1381.57 897.66 1378.71 897.66 1377.28 897.66 1374.41 897.66 1374.41 916 1360.1 929.755 1344.35 929.755 1341.49 929.755 1340.06 929.755 1338.63 929.755 1338.63 929.755 1338.63 931.283 1338.63 931.283 1338.63 949.623 1324.31 964.906 1307.13 964.906 1307.13 964.906 1305.7 964.906 1304.27 964.906 1304.27 964.906 1304.27 966.434 1304.27 967.962 1304.27 986.302 1291.39 1000.06 1274.21 1000.06 1272.78 1000.06 1272.78 1000.06 1272.78 1000.06 1272.78 1003.11 1272.78 1004.64 1272.78 1006.17 1272.78 1024.51 1259.89 1038.26 1242.72 1039.79 1244.15 1042.85 1244.15 1045.91 1244.15 1048.96 1244.15 1065.77 1232.7 1079.53 1216.95 1081.06 1218.38 1084.11 1219.81 1088.7 1219.81 1091.75 1219.81 1107.04 1209.79 1120.79 1195.48 1123.85 1196.91 1128.43 1198.34 1133.02 1198.34 1137.6 1198.34 1152.89 1189.75 1165.11 1176.87 1169.7 1179.73 1175.81 1181.16 1181.92 1181.16 1188.04 1181.16 1200.26 1174.01 1212.49 1163.99 1217.08 1168.28 1223.19 1169.71 1230.83 1169.71 1236.94 1169.71 1249.17 1163.99 1259.87 1155.4 1265.98 1159.69 1272.09 1163.99 1279.74 1163.99 1288.91 1163.99 1299.6 1158.26 1310.3 1149.67 1316.42 1151.1 1317.94 1152.53 1319.47 1152.53 1321 1109.59 1321 1109.59 1321 1109.59 1321 1109.59 1319.47 1109.59 1316.42 1112.45 1314.89 1105.29 1308.77 1101 1299.6 1101 1288.91 1101 1276.68 1106.73 1265.98 1116.75 1259.87 1111.02 1255.28 1108.16 1246.11 1108.16 1236.94 1108.16 1224.72 1115.31 1212.49 1125.34 1207.91 1121.04 1201.79 1119.61 1195.68 1119.61 1188.04 1119.61 1172.75 1128.2 1160.53 1141.08 1155.94 1138.22 1151.36 1135.36 1145.25 1135.36 1137.6 1135.36 1122.32 1145.38 1110.09 1159.69 1105.51 1158.26 1102.45 1156.83 1096.34 1156.83 1091.75 1156.83 1074.94 1168.28 1061.19 1184.03 1059.66 1182.59 1055.08 1182.59 1052.02 1182.59 1048.96 1182.59 1030.62 1195.48 1015.34 1211.22 1015.34 1211.22 1012.28 1211.22 1009.23 1211.22 1006.17 1211.22 987.83 1224.11 972.547 1241.28 972.547 1242.72 972.547 1242.72 972.547 1242.72 972.547 1242.72 971.019 1242.72 969.491 1242.72 967.962 1242.72 949.623 1255.6 934.34 1274.21 934.34 1274.21 934.34 1275.64 934.34 1277.07 934.34 1277.07 932.811 1275.64 932.811 1275.64 931.283 1275.64 912.943 1289.96 897.66 1307.13 897.66 1308.56 897.66 1311.43 897.66 1312.86 897.66 1312.86 897.66 1312.86 897.66 1312.86 896.132 1312.86 877.792 1327.17 864.038 1344.35 864.038 1345.78 864.038 1348.65 864.038 1350.08 864.038 1351.51 845.698 1364.39 831.943 1381.57 831.943 1384.43 831.943 1387.3 831.943 1390.16 833.472 1391.59 816.66 1405.91 802.906 1421.65 802.906 1424.51 802.906 1428.81 802.906 1431.67 804.434 1433.1 787.623 1445.99 775.396 1461.73 775.396 1466.03 775.396 1470.32 776.924 1473.18 778.453 1476.05 763.17 1488.93 750.943 1504.68 750.943 1508.97 750.943 1513.27 750.943 1517.56 754 1520.42 738.717 1533.31 728.019 1547.62 728.019 1553.35 728.019 1557.64 729.547 1561.94 731.075 1564.8 717.321 1577.68 706.623 1592 706.623 1597.72 706.623 1602.02 708.151 1607.74 711.208 1610.61 697.453 1623.49 688.283 1636.37 688.283 1642.1 688.283 1647.82 689.811 1653.55 692.868 1657.85 679.113 1669.3 671.472 1682.18 671.472 1687.91 671.472 1695.06 673 1699.36 676.057 1703.65 663.83 1715.1 654.66 1727.99 654.66 1735.15 654.66 1740.87 657.717 1746.6 660.774 1750.89 650.075 1762.34 640.906 1775.23 640.906 1782.38 640.906 1788.11 643.962 1793.84 648.547 1798.13 637.849 1809.58 630.208 1821.03 630.208 1829.62 630.208 1835.35 633.264 1841.07 637.849 1846.8 627.151 1856.82 619.509 1868.27 619.509 1876.86 619.509 1884.02 622.566 1889.74 627.151 1894.04 617.981 1904.06 611.868 1915.51 611.868 1924.1 611.868 1931.26 614.924 1936.98 619.509 1942.71 610.34 1952.73 604.226 1962.75 604.226 1971.34 604.226 1979.93 607.283 1985.65 613.396 1991.38 604.226 1999.97 598.113 2011.42 598.113 2020.01 598.113 2028.6 602.698 2034.32 608.811 2040.05 599.641 2048.64 595.057 2058.66 595.057 2068.68 595.057 2077.27 599.641 2082.99 605.755 2088.72 598.113 2097.31 593.528 2108.76 593.528 2117.35 593.528 2125.94 596.585 2131.66 604.226 2137.39 596.585 2145.98 592 2156 592 2156 592 2156 592 2156 592 2156 610.34 2156 610.34 2156 610.34 2156 610.34 2156 610.34 2156 610.34 2148.84 610.34 2141.69 616.453 2141.69 624.094 2141.69 633.264 2148.84 639.377 2156 639.377 2156 639.377 2156 639.377 2156 639.377 2156 657.717 2156 657.717 2156 657.717 2147.41 657.717 2138.82 653.132 2133.1 647.019 2127.37 654.66 2118.78 659.245 2108.76 659.245 2098.74 659.245 2090.15 654.66 2084.43 647.019 2078.7 656.189 2070.11 660.774 2058.66 660.774 2050.07 660.774 2042.91 657.717 2037.19 651.604 2031.46 659.245 2021.44 665.358 2011.42 665.358 2002.83 665.358 1995.67 660.774 1989.95 656.189 1984.22 665.358 1974.2 669.943 1962.75 669.943 1955.59 669.943 1948.44 666.887 1942.71 662.302Z" fill="#D6002D" fill-rule="evenodd"/><path d="M2141.67 625C2141.67 632.648 2148.84 638.767 2156 638.767 2156 638.767 2156 638.767 2156 638.767 2156 657.123 2156 657.123 2156 657.123 2147.4 657.123 2138.8 652.534 2133.07 646.415 2127.34 654.064 2118.74 658.653 2108.71 658.653 2098.68 658.653 2090.08 654.064 2084.35 646.415 2078.62 655.593 2070.02 660.182 2058.56 660.182 2049.96 660.182 2042.8 657.123 2037.06 651.004 2031.33 658.653 2021.3 664.771 2011.27 664.771 2002.67 664.771 1995.51 660.182 1989.78 655.593 1984.04 664.771 1974.01 669.36 1962.55 669.36 1955.39 669.36 1948.22 666.301 1942.49 661.712 1936.76 670.89 1926.73 677.009 1915.26 677.009 1908.1 677.009 1900.93 673.949 1895.2 669.36 1889.47 678.538 1879.44 686.187 1867.97 686.187 1860.81 686.187 1853.65 683.127 1849.35 678.538 1843.61 689.246 1833.58 695.365 1820.69 695.365 1814.96 695.365 1807.79 693.835 1802.06 689.246 1797.76 699.954 1786.3 707.602 1774.83 707.602 1767.67 707.602 1761.94 704.543 1756.2 701.483 1751.91 712.191 1740.44 721.369 1727.54 721.369 1721.81 721.369 1716.08 719.84 1710.35 715.25 1706.05 727.488 1694.59 736.666 1681.69 736.666 1675.96 736.666 1670.23 735.136 1665.93 732.077 1661.63 744.314 1650.16 753.492 1635.84 753.492 1630.1 753.492 1625.8 751.963 1621.51 748.903 1617.21 762.67 1605.74 773.378 1591.41 773.378 1585.68 773.378 1581.38 771.848 1577.08 768.789 1574.22 784.086 1561.32 793.264 1546.99 793.264 1542.69 793.264 1538.39 793.264 1534.09 790.204 1531.23 805.501 1518.33 816.209 1504 816.209 1499.7 816.209 1495.4 816.209 1492.54 814.679 1489.67 829.976 1476.78 842.213 1461.01 842.213 1458.15 842.213 1455.28 840.683 1450.98 840.683 1449.55 855.98 1436.65 868.218 1420.89 868.218 1418.03 868.218 1415.16 868.218 1412.29 866.688 1410.86 885.044 1397.96 897.281 1380.77 897.281 1377.9 897.281 1376.47 897.281 1373.6 897.281 1373.6 915.637 1359.27 929.404 1343.51 929.404 1340.65 929.404 1339.21 929.404 1337.78 929.404 1337.78 929.404 1337.78 930.934 1337.78 930.934 1337.78 949.29 1323.45 964.587 1306.25 964.587 1306.25 964.587 1304.82 964.587 1303.39 964.587 1303.39 964.587 1303.39 966.116 1303.39 967.646 1303.39 986.002 1290.49 999.769 1273.3 999.769 1271.86 999.769 1271.86 999.769 1271.86 999.769 1271.86 1002.83 1271.86 1004.36 1271.86 1005.89 1271.86 1024.24 1258.97 1038.01 1241.77 1039.54 1243.2 1042.6 1243.2 1045.66 1243.2 1048.72 1243.2 1065.55 1231.74 1079.31 1215.98 1080.84 1217.41 1083.9 1218.84 1088.49 1218.84 1091.55 1218.84 1106.85 1208.81 1120.61 1194.48 1123.67 1195.92 1128.26 1197.35 1132.85 1197.35 1137.44 1197.35 1152.74 1188.75 1164.97 1175.85 1169.56 1178.72 1175.68 1180.15 1181.8 1180.15 1187.92 1180.15 1200.16 1172.99 1212.39 1162.96 1216.98 1167.26 1223.1 1168.69 1230.75 1168.69 1236.87 1168.69 1249.11 1162.96 1259.81 1154.36 1265.93 1158.66 1272.05 1162.96 1279.7 1162.96 1288.88 1162.96 1299.58 1157.23 1310.29 1148.63 1316.41 1150.06 1317.94 1151.49 1319.47 1151.49 1321 1130 1321 1130 1321 1130 1321 1130 940.112 1581.38 629.589 2141.67 625Z" fill="#F9505F" fill-rule="evenodd"/><path d="M2134.51 645.057C2140.24 651.17 2147.41 657.284 2156 657.284 2156 657.284 2156 657.284 2156 657.284 2147.41 657.284 2138.81 657.284 2133.08 651.17 2125.92 658.812 2117.32 663.397 2108.73 663.397 2098.7 663.397 2091.54 658.812 2084.38 652.699 2078.65 660.34 2068.62 664.925 2058.59 664.925 2051.43 664.925 2042.84 661.869 2037.11 655.755 2031.38 663.397 2021.35 669.51 2011.32 669.51 2011.32 669.51 2011.32 669.51 2011.32 669.51 2002.73 669.51 1995.57 664.925 1989.84 660.34 1984.11 669.51 1974.08 674.095 1962.62 674.095 1955.46 674.095 1948.3 671.039 1942.57 666.454 1936.84 675.624 1926.81 681.737 1915.35 681.737 1908.19 681.737 1901.03 678.68 1895.3 674.095 1889.57 683.265 1879.54 689.379 1868.08 689.379 1862.35 689.379 1855.19 687.85 1849.46 683.265 1843.73 693.964 1832.27 700.077 1820.81 700.077 1815.08 700.077 1809.35 698.549 1803.62 693.964 1797.89 704.662 1786.43 712.304 1774.97 712.304 1769.24 712.304 1763.51 709.247 1757.78 706.191 1752.05 718.417 1740.59 726.059 1727.7 726.059 1721.97 726.059 1717.68 723.002 1711.95 719.946 1706.22 732.172 1694.76 741.342 1681.86 741.342 1676.14 741.342 1671.84 739.814 1667.54 736.757 1661.81 748.984 1650.35 758.154 1636.03 758.154 1631.73 758.154 1627.43 756.626 1623.14 755.098 1617.41 767.324 1604.51 776.494 1591.62 776.494 1587.32 776.494 1583.03 776.494 1578.73 773.438 1574.43 788.721 1561.54 797.891 1547.22 797.891 1542.92 797.891 1540.05 796.363 1535.76 796.363 1531.46 810.118 1518.57 820.816 1504.24 820.816 1501.38 820.816 1497.08 819.288 1494.22 819.288 1489.92 834.571 1477.03 845.27 1461.27 845.27 1458.41 845.27 1456.97 845.27 1454.11 845.27 1449.81 860.553 1436.92 872.78 1421.16 872.78 1418.3 872.78 1416.86 872.78 1414 871.252 1411.14 889.592 1398.24 901.819 1381.05 901.819 1381.05 901.819 1378.19 901.819 1376.76 901.819 1373.89 920.159 1361 933.914 1343.81 933.914 1343.81 933.914 1342.38 933.914 1340.95 933.914 1339.51 952.254 1325.19 967.537 1306.57 967.537 1306.57 987.406 1292.24 1002.69 1275.05 1004.22 1275.05 1005.75 1275.05 1007.27 1275.05 1007.27 1275.05 1025.61 1262.16 1039.37 1246.41 1042.43 1246.41 1045.48 1246.41 1048.54 1246.41 1048.54 1246.41 1065.35 1234.95 1080.63 1220.62 1083.69 1220.62 1086.75 1222.05 1089.8 1222.05 1092.86 1222.05 1108.15 1212.03 1121.9 1197.7 1126.49 1199.14 1131.07 1200.57 1134.13 1200.57 1138.71 1200.57 1154 1191.97 1166.22 1179.08 1172.34 1181.95 1176.92 1183.38 1183.03 1183.38 1187.62 1183.38 1187.62 1183.38 1187.62 1183.38 1187.62 1183.38 1201.37 1177.65 1212.07 1166.19 1219.71 1170.49 1224.3 1171.92 1231.94 1171.92 1238.05 1171.92 1250.28 1166.19 1260.98 1157.59 1267.09 1163.32 1273.21 1166.19 1280.85 1166.19 1290.02 1166.19 1290.02 1166.19 1290.02 1166.19 1290.02 1166.19 1302.24 1159.03 1309.89 1149 1316 1150.43 1316 1150.43 1316 1150.43 1316 1157.59 1309.89 1160.46 1299.19 1160.46 1290.02 1160.46 1282.38 1157.59 1274.73 1151.86 1268.62 1149 1265.56 1149 1265.56 1149 1265.56 1153.3 1264.04 1153.3 1264.04 1153.3 1264.04 1161.89 1257.92 1166.19 1248.75 1166.19 1238.05 1166.19 1231.94 1164.76 1225.83 1160.46 1219.71 1159.03 1216.66 1159.03 1216.66 1159.03 1216.66 1161.89 1215.13 1161.89 1215.13 1161.89 1215.13 1171.92 1210.54 1177.65 1199.85 1177.65 1187.62 1177.65 1183.03 1176.22 1176.92 1173.35 1172.34 1171.92 1169.28 1171.92 1169.28 1171.92 1169.28 1174.78 1167.75 1174.78 1167.75 1174.78 1167.75 1186.24 1163.17 1194.84 1152.47 1194.84 1138.71 1194.84 1134.13 1193.41 1131.07 1191.97 1126.49 1190.54 1123.43 1190.54 1123.43 1190.54 1123.43 1194.84 1121.9 1194.84 1121.9 1194.84 1121.9 1206.3 1118.84 1216.32 1106.62 1216.32 1092.86 1216.32 1089.8 1214.89 1086.75 1214.89 1082.16 1213.46 1079.11 1213.46 1079.11 1213.46 1079.11 1216.32 1079.11 1216.32 1079.11 1216.32 1079.11 1230.65 1076.05 1240.68 1063.82 1240.68 1048.54 1239.24 1037.84 1239.24 1037.84 1239.24 1037.84 1242.11 1037.84 1242.11 1037.84 1242.11 1037.84 1257.86 1036.31 1269.32 1022.56 1269.32 1007.27 1269.32 998.104 1269.32 998.104 1269.32 998.104 1272.19 998.104 1272.19 998.104 1272.19 998.104 1273.62 998.104 1273.62 998.104 1273.62 998.104 1287.95 998.104 1300.84 984.349 1300.84 967.537 1300.84 961.424 1300.84 961.424 1300.84 961.424 1303.7 961.424 1303.7 961.424 1303.7 961.424 1306.57 961.424 1306.57 961.424 1306.57 961.424 1322.32 961.424 1335.22 947.669 1335.22 932.385 1335.22 927.8 1335.22 927.8 1335.22 927.8 1338.08 927.8 1338.08 927.8 1338.08 927.8 1343.81 927.8 1343.81 927.8 1343.81 927.8 1358.14 927.8 1371.03 914.045 1371.03 898.762 1371.03 894.177 1371.03 894.177 1371.03 894.177 1375.32 895.705 1375.32 895.705 1375.32 895.705 1381.05 895.705 1381.05 895.705 1381.05 895.705 1395.38 895.705 1408.27 883.479 1409.7 868.195 1409.7 865.138 1409.7 865.138 1409.7 865.138 1412.57 865.138 1412.57 865.138 1412.57 865.138 1415.43 866.667 1418.3 866.667 1421.16 866.667 1435.49 866.667 1446.95 855.968 1449.81 840.685 1449.81 837.628 1449.81 837.628 1449.81 837.628 1452.68 837.628 1452.68 837.628 1452.68 837.628 1455.54 839.156 1458.41 839.156 1461.27 839.156 1475.59 839.156 1487.05 829.986 1489.92 814.703 1489.92 811.646 1489.92 811.646 1489.92 811.646 1494.22 813.175 1494.22 813.175 1494.22 813.175 1497.08 814.703 1499.95 814.703 1504.24 814.703 1517.14 814.703 1528.59 805.533 1531.46 791.778 1532.89 787.193 1532.89 787.193 1532.89 787.193 1535.76 788.721 1535.76 788.721 1535.76 788.721 1540.05 790.25 1542.92 791.778 1547.22 791.778 1560.11 791.778 1571.57 782.608 1574.43 768.853 1575.86 765.796 1575.86 765.796 1575.86 765.796 1578.73 767.324 1578.73 767.324 1578.73 767.324 1583.03 770.381 1587.32 770.381 1591.62 770.381 1603.08 770.381 1614.54 762.739 1618.84 748.984 1618.84 745.927 1618.84 745.927 1618.84 745.927 1623.14 747.456 1623.14 747.456 1623.14 747.456 1627.43 750.513 1631.73 752.041 1636.03 752.041 1648.92 752.041 1658.95 744.399 1663.24 732.172 1664.68 729.116 1664.68 729.116 1664.68 729.116 1667.54 730.644 1667.54 730.644 1667.54 730.644 1671.84 733.701 1676.14 735.229 1681.86 735.229 1693.32 735.229 1703.35 727.587 1707.65 715.361 1709.08 712.304 1709.08 712.304 1709.08 712.304 1711.95 713.832 1711.95 713.832 1711.95 713.832 1717.68 716.889 1721.97 719.946 1727.7 719.946 1739.16 719.946 1749.19 712.304 1753.49 701.606 1754.92 697.021 1754.92 697.021 1754.92 697.021 1757.78 700.077 1757.78 700.077 1757.78 700.077 1763.51 703.134 1769.24 706.191 1774.97 706.191 1785 706.191 1795.03 700.077 1800.76 689.379 1802.19 686.322 1802.19 686.322 1802.19 686.322 1805.05 687.85 1805.05 687.85 1805.05 687.85 1809.35 692.435 1815.08 693.964 1820.81 693.964 1832.27 693.964 1840.86 687.85 1846.59 677.152 1848.03 674.095 1848.03 674.095 1848.03 674.095 1850.89 677.152 1850.89 677.152 1850.89 677.152 1855.19 681.737 1862.35 683.265 1868.08 683.265 1878.11 683.265 1888.14 678.68 1892.43 669.51 1893.86 666.454 1893.86 666.454 1893.86 666.454 1896.73 667.982 1896.73 667.982 1896.73 667.982 1902.46 672.567 1908.19 675.624 1915.35 675.624 1925.38 675.624 1935.41 669.51 1939.7 660.34 1941.14 657.284 1941.14 657.284 1941.14 657.284 1944 660.34 1944 660.34 1944 660.34 1949.73 664.925 1956.89 667.982 1962.62 667.982 1972.65 667.982 1981.24 663.397 1986.97 654.227 1988.41 651.17 1988.41 651.17 1988.41 651.17 1991.27 654.227 1991.27 654.227 1991.27 654.227 1997 660.34 2004.16 663.397 2011.32 663.397 2019.92 663.397 2028.51 657.284 2034.24 649.642 2037.11 646.585 2037.11 646.585 2037.11 646.585 2038.54 649.642 2038.54 649.642 2038.54 649.642 2044.27 655.755 2051.43 658.812 2058.59 658.812 2068.62 658.812 2077.22 654.227 2081.51 646.585 2084.38 643.528 2084.38 643.528 2084.38 643.528 2087.24 646.585 2087.24 646.585 2087.24 646.585 2091.54 652.699 2100.14 657.284 2108.73 657.284 2117.32 657.284 2124.49 652.699 2130.22 645.057 2133.08 642 2133.08 642 2133.08 642L2134.51 645.057Z" fill="#FFFFFF" fill-rule="evenodd"/><path d="M1125 1275.71 1123.85 1301 1039 1296.29 1040.72 1271 1125 1275.71Z" stroke="#FFFFFF" stroke-width="5.72917" stroke-miterlimit="8" fill="none" fill-rule="evenodd"/><path d="M1138 1222.55 1136.28 1247 1052 1242.45 1053.15 1218 1138 1222.55Z" stroke="#FFFFFF" stroke-width="5.72917" stroke-miterlimit="8" fill="none" fill-rule="evenodd"/><path d="M1148 1176.43 1143.95 1201 1060 1183.86 1062.89 1161 1148 1176.43Z" stroke="#FFFFFF" stroke-width="5.72917" stroke-miterlimit="8" fill="none" fill-rule="evenodd"/><path d="M1166 1126 1160.32 1149 1078 1126 1083.68 1103 1166 1126Z" stroke="#FFFFFF" stroke-width="5.72917" stroke-miterlimit="8" fill="none" fill-rule="evenodd"/><path d="M1189 1083.08 1180.4 1106 1107 1073.92 1115.6 1051 1189 1083.08Z" stroke="#FFFFFF" stroke-width="5.72917" stroke-miterlimit="8" fill="none" fill-rule="evenodd"/><path d="M1209 1031.65 1198.71 1053 1129 1016.08 1138.71 993 1209 1031.65Z" stroke="#FFFFFF" stroke-width="5.72917" stroke-miterlimit="8" fill="none" fill-rule="evenodd"/><path d="M1242 993.167 1229.45 1013 1165 965.967 1178.12 945 1242 993.167Z" stroke="#FFFFFF" stroke-width="5.72917" stroke-miterlimit="8" fill="none" fill-rule="evenodd"/><path d="M1275 952.039 1260.77 972 1201 917.25 1216.37 899 1275 952.039Z" stroke="#FFFFFF" stroke-width="5.72917" stroke-miterlimit="8" fill="none" fill-rule="evenodd"/><path d="M1311 915.679 1295.48 934 1238 877.321 1253.52 859 1311 915.679Z" stroke="#FFFFFF" stroke-width="5.72917" stroke-miterlimit="8" fill="none" fill-rule="evenodd"/><path d="M1347 881.794 1330.84 899 1276 837.632 1292.16 821 1347 881.794Z" stroke="#FFFFFF" stroke-width="5.72917" stroke-miterlimit="8" fill="none" fill-rule="evenodd"/><path d="M1385 849.734 1367.79 867 1315 802.539 1333.36 787 1385 849.734Z" stroke="#FFFFFF" stroke-width="5.72917" stroke-miterlimit="8" fill="none" fill-rule="evenodd"/><path d="M1423 821.014 1404.43 836 1358 768.563 1375.41 753 1423 821.014Z" stroke="#FFFFFF" stroke-width="5.72917" stroke-miterlimit="8" fill="none" fill-rule="evenodd"/><path d="M1471 802.89 1452.68 815 1404 734.84 1422.32 721 1471 802.89Z" stroke="#FFFFFF" stroke-width="5.72917" stroke-miterlimit="8" fill="none" fill-rule="evenodd"/><path d="M1508 771.468 1487.95 784 1445 706.532 1465.05 694 1508 771.468Z" stroke="#FFFFFF" stroke-width="5.72917" stroke-miterlimit="8" fill="none" fill-rule="evenodd"/><path d="M1553 750.127 1533 761 1493 676.873 1513 666 1553 750.127Z" stroke="#FFFFFF" stroke-width="5.72917" stroke-miterlimit="8" fill="none" fill-rule="evenodd"/><path d="M1597 736.857 1575.97 746 1543 659.143 1564.6 650 1597 736.857Z" stroke="#FFFFFF" stroke-width="5.72917" stroke-miterlimit="8" fill="none" fill-rule="evenodd"/><path d="M1648 721 1625.94 729 1594 640.428 1616.06 633 1648 721Z" stroke="#FFFFFF" stroke-width="5.72917" stroke-miterlimit="8" fill="none" fill-rule="evenodd"/><path d="M1695 707.977 1673.79 716 1648 624.304 1669.21 618 1695 707.977Z" stroke="#FFFFFF" stroke-width="5.72917" stroke-miterlimit="8" fill="none" fill-rule="evenodd"/><path d="M1741 703.398 1719.73 708 1695 606.753 1716.85 601 1741 703.398Z" stroke="#FFFFFF" stroke-width="5.72917" stroke-miterlimit="8" fill="none" fill-rule="evenodd"/><path d="M1786 675.696 1763.07 682 1743 588.585 1765.93 584 1786 675.696Z" stroke="#FFFFFF" stroke-width="5.72917" stroke-miterlimit="8" fill="none" fill-rule="evenodd"/><path d="M1832 661.435 1809.31 666 1794 573.565 1816.69 569 1832 661.435Z" stroke="#FFFFFF" stroke-width="5.72917" stroke-miterlimit="8" fill="none" fill-rule="evenodd"/><path d="M1878 647.588 1855.42 651 1843 562.844 1865.58 560 1878 647.588Z" stroke="#FFFFFF" stroke-width="5.72917" stroke-miterlimit="8" fill="none" fill-rule="evenodd"/><path d="M1927 642.429 1903.67 647 1892 553.857 1915.33 551 1927 642.429Z" stroke="#FFFFFF" stroke-width="5.72917" stroke-miterlimit="8" fill="none" fill-rule="evenodd"/><path d="M1973 638.562 1949.79 642 1943 546.866 1965.64 544 1973 638.562Z" stroke="#FFFFFF" stroke-width="5.72917" stroke-miterlimit="8" fill="none" fill-rule="evenodd"/><path d="M2023 636.118 1999.92 639 1993 543.882 2016.08 541 2023 636.118Z" stroke="#FFFFFF" stroke-width="5.72917" stroke-miterlimit="8" fill="none" fill-rule="evenodd"/><path d="M2071 629.286 2047.89 631 2045 535 2068.11 535 2071 629.286Z" stroke="#FFFFFF" stroke-width="5.72917" stroke-miterlimit="8" fill="none" fill-rule="evenodd"/><path d="M2120 630 2097.14 630 2096 535 2118.86 535 2120 630Z" stroke="#FFFFFF" stroke-width="5.72917" stroke-miterlimit="8" fill="none" fill-rule="evenodd"/><path d="M0 0 1.00003 77" stroke="#FFFFFF" stroke-width="5.72917" stroke-miterlimit="8" fill="none" fill-rule="evenodd" transform="matrix(1 0 0 -1 2145 608)"/><path d="M1085.5 1321.5C1085.5 1118.18 1200.05 928.627 1407.66 787.988 1608.11 651.934 1874.43 575.5 2156.5 575.5" stroke="#F94A5B" stroke-width="11.4583" stroke-miterlimit="8" fill="none" fill-rule="evenodd"/><path d="M1109.5 1289C1109.5 1275.47 1119.8 1264.5 1132.5 1264.5 1145.2 1264.5 1155.5 1275.47 1155.5 1289 1155.5 1302.53 1145.2 1313.5 1132.5 1313.5 1119.8 1313.5 1109.5 1302.53 1109.5 1289Z" stroke="#333333" stroke-width="2.86476" stroke-miterlimit="8" fill="#86D2E4" fill-rule="evenodd"/><path d="M1118.5 1321.5C1121.39 1319.5 1125.72 1317.5 1131.5 1317.5 1135.83 1317.5 1140.17 1319.5 1144.5 1321.5" stroke="#333333" stroke-width="2.86476" stroke-linecap="round" stroke-linejoin="round" stroke-miterlimit="10" fill="#86D2E4" fill-rule="evenodd"/><path d="M1118.5 1321.5C1121.39 1319.5 1125.72 1317.5 1131.5 1317.5 1135.83 1317.5 1140.17 1319.5 1144.5 1321.5" stroke="#333333" stroke-width="2.86476" stroke-linecap="round" stroke-linejoin="round" stroke-miterlimit="10" fill="none" fill-rule="evenodd"/><path d="M1116.5 1237.5C1116.5 1224.25 1126.57 1213.5 1139 1213.5 1151.43 1213.5 1161.5 1224.25 1161.5 1237.5 1161.5 1250.75 1151.43 1261.5 1139 1261.5 1126.57 1261.5 1116.5 1250.75 1116.5 1237.5Z" stroke="#333333" stroke-width="2.86476" stroke-miterlimit="8" fill="#86D2E4" fill-rule="evenodd"/><path d="M1128.5 1188C1128.5 1174.47 1138.35 1163.5 1150.5 1163.5 1162.65 1163.5 1172.5 1174.47 1172.5 1188 1172.5 1201.53 1162.65 1212.5 1150.5 1212.5 1138.35 1212.5 1128.5 1201.53 1128.5 1188Z" stroke="#333333" stroke-width="2.86476" stroke-miterlimit="8" fill="#86D2E4" fill-rule="evenodd"/><path d="M1144.5 1138C1144.5 1125.02 1154.57 1114.5 1167 1114.5 1179.43 1114.5 1189.5 1125.02 1189.5 1138 1189.5 1150.98 1179.43 1161.5 1167 1161.5 1154.57 1161.5 1144.5 1150.98 1144.5 1138Z" stroke="#333333" stroke-width="2.86476" stroke-miterlimit="8" fill="#86D2E4" fill-rule="evenodd"/><path d="M1165.5 1091.5C1165.5 1078.25 1175.8 1067.5 1188.5 1067.5 1201.2 1067.5 1211.5 1078.25 1211.5 1091.5 1211.5 1104.75 1201.2 1115.5 1188.5 1115.5 1175.8 1115.5 1165.5 1104.75 1165.5 1091.5Z" stroke="#333333" stroke-width="2.86476" stroke-miterlimit="8" fill="#86D2E4" fill-rule="evenodd"/><path d="M1191.5 1048C1191.5 1035.02 1201.35 1024.5 1213.5 1024.5 1225.65 1024.5 1235.5 1035.02 1235.5 1048 1235.5 1060.98 1225.65 1071.5 1213.5 1071.5 1201.35 1071.5 1191.5 1060.98 1191.5 1048Z" stroke="#333333" stroke-width="2.86476" stroke-miterlimit="8" fill="#86D2E4" fill-rule="evenodd"/><path d="M1219.5 1006C1219.5 992.469 1229.57 981.5 1242 981.5 1254.43 981.5 1264.5 992.469 1264.5 1006 1264.5 1019.53 1254.43 1030.5 1242 1030.5 1229.57 1030.5 1219.5 1019.53 1219.5 1006Z" stroke="#333333" stroke-width="2.86476" stroke-miterlimit="8" fill="#86D2E4" fill-rule="evenodd"/><path d="M1251.5 967.5C1251.5 954.245 1261.35 943.5 1273.5 943.5 1285.65 943.5 1295.5 954.245 1295.5 967.5 1295.5 980.755 1285.65 991.5 1273.5 991.5 1261.35 991.5 1251.5 980.755 1251.5 967.5Z" stroke="#333333" stroke-width="2.86476" stroke-miterlimit="8" fill="#86D2E4" fill-rule="evenodd"/><path d="M1284.5 931C1284.5 917.469 1294.8 906.5 1307.5 906.5 1320.2 906.5 1330.5 917.469 1330.5 931 1330.5 944.531 1320.2 955.5 1307.5 955.5 1294.8 955.5 1284.5 944.531 1284.5 931Z" stroke="#333333" stroke-width="2.86476" stroke-miterlimit="8" fill="#86D2E4" fill-rule="evenodd"/><path d="M1321.5 897C1321.5 884.021 1331.35 873.5 1343.5 873.5 1355.65 873.5 1365.5 884.021 1365.5 897 1365.5 909.979 1355.65 920.5 1343.5 920.5 1331.35 920.5 1321.5 909.979 1321.5 897Z" stroke="#333333" stroke-width="2.86476" stroke-miterlimit="8" fill="#86D2E4" fill-rule="evenodd"/><path d="M1358.5 864.5C1358.5 851.245 1368.8 840.5 1381.5 840.5 1394.2 840.5 1404.5 851.245 1404.5 864.5 1404.5 877.755 1394.2 888.5 1381.5 888.5 1368.8 888.5 1358.5 877.755 1358.5 864.5Z" stroke="#333333" stroke-width="2.86476" stroke-miterlimit="8" fill="#86D2E4" fill-rule="evenodd"/><path d="M1398.5 836C1398.5 823.021 1408.8 812.5 1421.5 812.5 1434.2 812.5 1444.5 823.021 1444.5 836 1444.5 848.979 1434.2 859.5 1421.5 859.5 1408.8 859.5 1398.5 848.979 1398.5 836Z" stroke="#333333" stroke-width="2.86476" stroke-miterlimit="8" fill="#86D2E4" fill-rule="evenodd"/><path d="M1439.5 809C1439.5 795.469 1449.57 784.5 1462 784.5 1474.43 784.5 1484.5 795.469 1484.5 809 1484.5 822.531 1474.43 833.5 1462 833.5 1449.57 833.5 1439.5 822.531 1439.5 809Z" stroke="#333333" stroke-width="2.86476" stroke-miterlimit="8" fill="#86D2E4" fill-rule="evenodd"/><path d="M1482.5 784C1482.5 771.021 1492.57 760.5 1505 760.5 1517.43 760.5 1527.5 771.021 1527.5 784 1527.5 796.979 1517.43 807.5 1505 807.5 1492.57 807.5 1482.5 796.979 1482.5 784Z" stroke="#333333" stroke-width="2.86476" stroke-miterlimit="8" fill="#86D2E4" fill-rule="evenodd"/><path d="M1525.5 761C1525.5 748.021 1535.57 737.5 1548 737.5 1560.43 737.5 1570.5 748.021 1570.5 761 1570.5 773.979 1560.43 784.5 1548 784.5 1535.57 784.5 1525.5 773.979 1525.5 761Z" stroke="#333333" stroke-width="2.86476" stroke-miterlimit="8" fill="#86D2E4" fill-rule="evenodd"/><path d="M1569.5 740.5C1569.5 727.245 1579.57 716.5 1592 716.5 1604.43 716.5 1614.5 727.245 1614.5 740.5 1614.5 753.755 1604.43 764.5 1592 764.5 1579.57 764.5 1569.5 753.755 1569.5 740.5Z" stroke="#333333" stroke-width="2.86476" stroke-miterlimit="8" fill="#86D2E4" fill-rule="evenodd"/><path d="M1614.5 721C1614.5 708.021 1624.57 697.5 1637 697.5 1649.43 697.5 1659.5 708.021 1659.5 721 1659.5 733.979 1649.43 744.5 1637 744.5 1624.57 744.5 1614.5 733.979 1614.5 721Z" stroke="#333333" stroke-width="2.86476" stroke-miterlimit="8" fill="#86D2E4" fill-rule="evenodd"/><path d="M1659.5 704.5C1659.5 691.245 1669.8 680.5 1682.5 680.5 1695.2 680.5 1705.5 691.245 1705.5 704.5 1705.5 717.755 1695.2 728.5 1682.5 728.5 1669.8 728.5 1659.5 717.755 1659.5 704.5Z" stroke="#333333" stroke-width="2.86476" stroke-miterlimit="8" fill="#86D2E4" fill-rule="evenodd"/><path d="M1705.5 688C1705.5 674.469 1715.8 663.5 1728.5 663.5 1741.2 663.5 1751.5 674.469 1751.5 688 1751.5 701.531 1741.2 712.5 1728.5 712.5 1715.8 712.5 1705.5 701.531 1705.5 688Z" stroke="#333333" stroke-width="2.86476" stroke-miterlimit="8" fill="#86D2E4" fill-rule="evenodd"/><path d="M1752.5 674.5C1752.5 661.245 1762.8 650.5 1775.5 650.5 1788.2 650.5 1798.5 661.245 1798.5 674.5 1798.5 687.755 1788.2 698.5 1775.5 698.5 1762.8 698.5 1752.5 687.755 1752.5 674.5Z" stroke="#333333" stroke-width="2.86476" stroke-miterlimit="8" fill="#86D2E4" fill-rule="evenodd"/><path d="M1800.5 663C1800.5 650.021 1810.35 639.5 1822.5 639.5 1834.65 639.5 1844.5 650.021 1844.5 663 1844.5 675.979 1834.65 686.5 1822.5 686.5 1810.35 686.5 1800.5 675.979 1800.5 663Z" stroke="#333333" stroke-width="2.86476" stroke-miterlimit="8" fill="#86D2E4" fill-rule="evenodd"/><path d="M1847.5 653C1847.5 639.469 1857.35 628.5 1869.5 628.5 1881.65 628.5 1891.5 639.469 1891.5 653 1891.5 666.531 1881.65 677.5 1869.5 677.5 1857.35 677.5 1847.5 666.531 1847.5 653Z" stroke="#333333" stroke-width="2.86476" stroke-miterlimit="8" fill="#86D2E4" fill-rule="evenodd"/><path d="M1892.5 644.5C1892.5 631.245 1902.8 620.5 1915.5 620.5 1928.2 620.5 1938.5 631.245 1938.5 644.5 1938.5 657.755 1928.2 668.5 1915.5 668.5 1902.8 668.5 1892.5 657.755 1892.5 644.5Z" stroke="#333333" stroke-width="2.86476" stroke-miterlimit="8" fill="#86D2E4" fill-rule="evenodd"/><path d="M1941.5 637.5C1941.5 624.245 1951.57 613.5 1964 613.5 1976.43 613.5 1986.5 624.245 1986.5 637.5 1986.5 650.755 1976.43 661.5 1964 661.5 1951.57 661.5 1941.5 650.755 1941.5 637.5Z" stroke="#333333" stroke-width="2.86476" stroke-miterlimit="8" fill="#86D2E4" fill-rule="evenodd"/><path d="M1989.5 632C1989.5 618.469 1999.57 607.5 2012 607.5 2024.43 607.5 2034.5 618.469 2034.5 632 2034.5 645.531 2024.43 656.5 2012 656.5 1999.57 656.5 1989.5 645.531 1989.5 632Z" stroke="#333333" stroke-width="2.86476" stroke-miterlimit="8" fill="#86D2E4" fill-rule="evenodd"/><path d="M2037.5 628C2037.5 615.021 2047.57 604.5 2060 604.5 2072.43 604.5 2082.5 615.021 2082.5 628 2082.5 640.979 2072.43 651.5 2060 651.5 2047.57 651.5 2037.5 640.979 2037.5 628Z" stroke="#333333" stroke-width="2.86476" stroke-miterlimit="8" fill="#86D2E4" fill-rule="evenodd"/><path d="M2086.5 626.5C2086.5 613.245 2096.57 602.5 2109 602.5 2121.43 602.5 2131.5 613.245 2131.5 626.5 2131.5 639.755 2121.43 650.5 2109 650.5 2096.57 650.5 2086.5 639.755 2086.5 626.5Z" stroke="#333333" stroke-width="2.86476" stroke-miterlimit="8" fill="#86D2E4" fill-rule="evenodd"/><path d="M2156.5 648.5C2156.5 648.5 2156.5 648.5 2156.5 648.5 2144.12 648.5 2134.5 637.887 2134.5 624.242 2134.5 612.113 2144.12 601.5 2156.5 601.5 2156.5 601.5 2156.5 601.5 2156.5 601.5" stroke="#333333" stroke-width="2.86476" stroke-linecap="round" stroke-linejoin="round" stroke-miterlimit="10" fill="#86D2E4" fill-rule="evenodd"/><path d="M2156.5 648.5C2156.5 648.5 2156.5 648.5 2156.5 648.5 2144.12 648.5 2134.5 637.887 2134.5 624.242 2134.5 612.113 2144.12 601.5 2156.5 601.5 2156.5 601.5 2156.5 601.5 2156.5 601.5" stroke="#333333" stroke-width="2.86476" stroke-linecap="round" stroke-linejoin="round" stroke-miterlimit="10" fill="none" fill-rule="evenodd"/><path d="M1023.5 1227C1023.5 1212.92 1034.02 1201.5 1047 1201.5 1059.98 1201.5 1070.5 1212.92 1070.5 1227 1070.5 1241.08 1059.98 1252.5 1047 1252.5 1034.02 1252.5 1023.5 1241.08 1023.5 1227Z" stroke="#333333" stroke-width="2.86476" stroke-miterlimit="8" fill="#86D2E4" fill-rule="evenodd"/><path d="M1018.5 1283.5C1018.5 1269.69 1028.8 1258.5 1041.5 1258.5 1054.2 1258.5 1064.5 1269.69 1064.5 1283.5 1064.5 1297.31 1054.2 1308.5 1041.5 1308.5 1028.8 1308.5 1018.5 1297.31 1018.5 1283.5Z" stroke="#333333" stroke-width="2.86476" stroke-miterlimit="8" fill="#86D2E4" fill-rule="evenodd"/><path d="M1023.5 1321.5C1027.79 1318 1032.07 1314.5 1037.79 1314.5 1044.93 1314.5 1049.21 1318 1053.5 1321.5" stroke="#333333" stroke-width="2.86476" stroke-linecap="round" stroke-linejoin="round" stroke-miterlimit="10" fill="#86D2E4" fill-rule="evenodd"/><path d="M1023.5 1321.5C1027.79 1318 1032.07 1314.5 1037.79 1314.5 1044.93 1314.5 1049.21 1318 1053.5 1321.5" stroke="#333333" stroke-width="2.86476" stroke-linecap="round" stroke-linejoin="round" stroke-miterlimit="10" fill="none" fill-rule="evenodd"/><path d="M1036.5 1170.5C1036.5 1156.69 1047.02 1145.5 1060 1145.5 1072.98 1145.5 1083.5 1156.69 1083.5 1170.5 1083.5 1184.31 1072.98 1195.5 1060 1195.5 1047.02 1195.5 1036.5 1184.31 1036.5 1170.5Z" stroke="#333333" stroke-width="2.86476" stroke-miterlimit="8" fill="#86D2E4" fill-rule="evenodd"/><path d="M1053.5 1112.5C1053.5 1098.69 1064.25 1087.5 1077.5 1087.5 1090.75 1087.5 1101.5 1098.69 1101.5 1112.5 1101.5 1126.31 1090.75 1137.5 1077.5 1137.5 1064.25 1137.5 1053.5 1126.31 1053.5 1112.5Z" stroke="#333333" stroke-width="2.86476" stroke-miterlimit="8" fill="#86D2E4" fill-rule="evenodd"/><path d="M1078.5 1058C1078.5 1043.92 1089.02 1032.5 1102 1032.5 1114.98 1032.5 1125.5 1043.92 1125.5 1058 1125.5 1072.08 1114.98 1083.5 1102 1083.5 1089.02 1083.5 1078.5 1072.08 1078.5 1058Z" stroke="#333333" stroke-width="2.86476" stroke-miterlimit="8" fill="#86D2E4" fill-rule="evenodd"/><path d="M1107.5 1002.5C1107.5 988.693 1118.25 977.5 1131.5 977.5 1144.75 977.5 1155.5 988.693 1155.5 1002.5 1155.5 1016.31 1144.75 1027.5 1131.5 1027.5 1118.25 1027.5 1107.5 1016.31 1107.5 1002.5Z" stroke="#333333" stroke-width="2.86476" stroke-miterlimit="8" fill="#86D2E4" fill-rule="evenodd"/><path d="M1144.5 950.5C1144.5 936.693 1155.02 925.5 1168 925.5 1180.98 925.5 1191.5 936.693 1191.5 950.5 1191.5 964.307 1180.98 975.5 1168 975.5 1155.02 975.5 1144.5 964.307 1144.5 950.5Z" stroke="#333333" stroke-width="2.86476" stroke-miterlimit="8" fill="#86D2E4" fill-rule="evenodd"/><path d="M1182.5 901.5C1182.5 887.693 1193.02 876.5 1206 876.5 1218.98 876.5 1229.5 887.693 1229.5 901.5 1229.5 915.307 1218.98 926.5 1206 926.5 1193.02 926.5 1182.5 915.307 1182.5 901.5Z" stroke="#333333" stroke-width="2.86476" stroke-miterlimit="8" fill="#86D2E4" fill-rule="evenodd"/><path d="M1219.5 860.5C1219.5 846.693 1230.25 835.5 1243.5 835.5 1256.75 835.5 1267.5 846.693 1267.5 860.5 1267.5 874.307 1256.75 885.5 1243.5 885.5 1230.25 885.5 1219.5 874.307 1219.5 860.5Z" stroke="#333333" stroke-width="2.86476" stroke-miterlimit="8" fill="#86D2E4" fill-rule="evenodd"/><path d="M1258.5 823.5C1258.5 809.693 1269.02 798.5 1282 798.5 1294.98 798.5 1305.5 809.693 1305.5 823.5 1305.5 837.307 1294.98 848.5 1282 848.5 1269.02 848.5 1258.5 837.307 1258.5 823.5Z" stroke="#333333" stroke-width="2.86476" stroke-miterlimit="8" fill="#86D2E4" fill-rule="evenodd"/><path d="M1299.5 788.5C1299.5 774.693 1310.25 763.5 1323.5 763.5 1336.75 763.5 1347.5 774.693 1347.5 788.5 1347.5 802.307 1336.75 813.5 1323.5 813.5 1310.25 813.5 1299.5 802.307 1299.5 788.5Z" stroke="#333333" stroke-width="2.86476" stroke-miterlimit="8" fill="#86D2E4" fill-rule="evenodd"/><path d="M1341.5 758C1341.5 743.917 1352.02 732.5 1365 732.5 1377.98 732.5 1388.5 743.917 1388.5 758 1388.5 772.083 1377.98 783.5 1365 783.5 1352.02 783.5 1341.5 772.083 1341.5 758Z" stroke="#333333" stroke-width="2.86476" stroke-miterlimit="8" fill="#86D2E4" fill-rule="evenodd"/><path d="M1388.5 727.5C1388.5 713.693 1399.25 702.5 1412.5 702.5 1425.75 702.5 1436.5 713.693 1436.5 727.5 1436.5 741.307 1425.75 752.5 1412.5 752.5 1399.25 752.5 1388.5 741.307 1388.5 727.5Z" stroke="#333333" stroke-width="2.86476" stroke-miterlimit="8" fill="#86D2E4" fill-rule="evenodd"/><path d="M1431.5 700C1431.5 685.917 1442.25 674.5 1455.5 674.5 1468.75 674.5 1479.5 685.917 1479.5 700 1479.5 714.083 1468.75 725.5 1455.5 725.5 1442.25 725.5 1431.5 714.083 1431.5 700Z" stroke="#333333" stroke-width="2.86476" stroke-miterlimit="8" fill="#86D2E4" fill-rule="evenodd"/><path d="M1480.5 676.5C1480.5 662.141 1491.02 650.5 1504 650.5 1516.98 650.5 1527.5 662.141 1527.5 676.5 1527.5 690.859 1516.98 702.5 1504 702.5 1491.02 702.5 1480.5 690.859 1480.5 676.5Z" stroke="#333333" stroke-width="2.86476" stroke-miterlimit="8" fill="#86D2E4" fill-rule="evenodd"/><path d="M1530.5 650.5C1530.5 636.693 1541.02 625.5 1554 625.5 1566.98 625.5 1577.5 636.693 1577.5 650.5 1577.5 664.307 1566.98 675.5 1554 675.5 1541.02 675.5 1530.5 664.307 1530.5 650.5Z" stroke="#333333" stroke-width="2.86476" stroke-miterlimit="8" fill="#86D2E4" fill-rule="evenodd"/><path d="M1579.5 629.5C1579.5 615.693 1590.02 604.5 1603 604.5 1615.98 604.5 1626.5 615.693 1626.5 629.5 1626.5 643.307 1615.98 654.5 1603 654.5 1590.02 654.5 1579.5 643.307 1579.5 629.5Z" stroke="#333333" stroke-width="2.86476" stroke-miterlimit="8" fill="#86D2E4" fill-rule="evenodd"/><path d="M1631.5 611.5C1631.5 597.693 1642.02 586.5 1655 586.5 1667.98 586.5 1678.5 597.693 1678.5 611.5 1678.5 625.307 1667.98 636.5 1655 636.5 1642.02 636.5 1631.5 625.307 1631.5 611.5Z" stroke="#333333" stroke-width="2.86476" stroke-miterlimit="8" fill="#86D2E4" fill-rule="evenodd"/><path d="M1680.5 593C1680.5 578.917 1691.25 567.5 1704.5 567.5 1717.75 567.5 1728.5 578.917 1728.5 593 1728.5 607.083 1717.75 618.5 1704.5 618.5 1691.25 618.5 1680.5 607.083 1680.5 593Z" stroke="#333333" stroke-width="2.86476" stroke-miterlimit="8" fill="#86D2E4" fill-rule="evenodd"/><path d="M1729.5 580C1729.5 565.364 1740.25 553.5 1753.5 553.5 1766.75 553.5 1777.5 565.364 1777.5 580 1777.5 594.635 1766.75 606.5 1753.5 606.5 1740.25 606.5 1729.5 594.635 1729.5 580Z" stroke="#333333" stroke-width="2.86476" stroke-miterlimit="8" fill="#86D2E4" fill-rule="evenodd"/><path d="M1779.5 568.5C1779.5 554.693 1790.02 543.5 1803 543.5 1815.98 543.5 1826.5 554.693 1826.5 568.5 1826.5 582.307 1815.98 593.5 1803 593.5 1790.02 593.5 1779.5 582.307 1779.5 568.5Z" stroke="#333333" stroke-width="2.86476" stroke-miterlimit="8" fill="#86D2E4" fill-rule="evenodd"/><path d="M1828.5 558C1828.5 543.917 1839.02 532.5 1852 532.5 1864.98 532.5 1875.5 543.917 1875.5 558 1875.5 572.083 1864.98 583.5 1852 583.5 1839.02 583.5 1828.5 572.083 1828.5 558Z" stroke="#333333" stroke-width="2.86476" stroke-miterlimit="8" fill="#86D2E4" fill-rule="evenodd"/><path d="M1880.5 548.5C1880.5 534.693 1891.02 523.5 1904 523.5 1916.98 523.5 1927.5 534.693 1927.5 548.5 1927.5 562.307 1916.98 573.5 1904 573.5 1891.02 573.5 1880.5 562.307 1880.5 548.5Z" stroke="#333333" stroke-width="2.86476" stroke-miterlimit="8" fill="#86D2E4" fill-rule="evenodd"/><path d="M1928.5 542.5C1928.5 528.693 1939.25 517.5 1952.5 517.5 1965.75 517.5 1976.5 528.693 1976.5 542.5 1976.5 556.307 1965.75 567.5 1952.5 567.5 1939.25 567.5 1928.5 556.307 1928.5 542.5Z" stroke="#333333" stroke-width="2.86476" stroke-miterlimit="8" fill="#86D2E4" fill-rule="evenodd"/><path d="M1980.5 535C1980.5 520.917 1991.25 509.5 2004.5 509.5 2017.75 509.5 2028.5 520.917 2028.5 535 2028.5 549.083 2017.75 560.5 2004.5 560.5 1991.25 560.5 1980.5 549.083 1980.5 535Z" stroke="#333333" stroke-width="2.86476" stroke-miterlimit="8" fill="#86D2E4" fill-rule="evenodd"/><path d="M2033.5 530.5C2033.5 516.693 2044.02 505.5 2057 505.5 2069.98 505.5 2080.5 516.693 2080.5 530.5 2080.5 544.307 2069.98 555.5 2057 555.5 2044.02 555.5 2033.5 544.307 2033.5 530.5Z" stroke="#333333" stroke-width="2.86476" stroke-miterlimit="8" fill="#86D2E4" fill-rule="evenodd"/><path d="M2085.5 528.5C2085.5 514.693 2096.02 503.5 2109 503.5 2121.98 503.5 2132.5 514.693 2132.5 528.5 2132.5 542.307 2121.98 553.5 2109 553.5 2096.02 553.5 2085.5 542.307 2085.5 528.5Z" stroke="#333333" stroke-width="2.86476" stroke-miterlimit="8" fill="#86D2E4" fill-rule="evenodd"/><path d="M2156.5 552.5C2145.07 550.954 2136.5 540.136 2136.5 527.773 2136.5 513.864 2145.07 504.591 2156.5 501.5" stroke="#333333" stroke-width="2.86476" stroke-linecap="round" stroke-linejoin="round" stroke-miterlimit="10" fill="#86D2E4" fill-rule="evenodd"/><path d="M2156.5 552.5C2145.07 550.954 2136.5 540.136 2136.5 527.773 2136.5 513.864 2145.07 504.591 2156.5 501.5" stroke="#333333" stroke-width="2.86476" stroke-linecap="round" stroke-linejoin="round" stroke-miterlimit="10" fill="none" fill-rule="evenodd"/><path d="M2099 518.5C2099 513.253 2102.81 509 2107.5 509 2112.19 509 2116 513.253 2116 518.5 2116 523.747 2112.19 528 2107.5 528 2102.81 528 2099 523.747 2099 518.5Z" fill="#FFFFFF" fill-rule="evenodd"/><path d="M2049 518.5C2049 513.253 2052.81 509 2057.5 509 2062.19 509 2066 513.253 2066 518.5 2066 523.747 2062.19 528 2057.5 528 2052.81 528 2049 523.747 2049 518.5Z" fill="#FFFFFF" fill-rule="evenodd"/><path d="M1996 524C1996 519.029 1999.81 515 2004.5 515 2009.19 515 2013 519.029 2013 524 2013 528.971 2009.19 533 2004.5 533 1999.81 533 1996 528.971 1996 524Z" fill="#FFFFFF" fill-rule="evenodd"/><path d="M1943 532C1943 527.029 1946.81 523 1951.5 523 1956.19 523 1960 527.029 1960 532 1960 536.971 1956.19 541 1951.5 541 1946.81 541 1943 536.971 1943 532Z" fill="#FFFFFF" fill-rule="evenodd"/><path d="M1891 538C1891 533.029 1894.81 529 1899.5 529 1904.19 529 1908 533.029 1908 538 1908 542.971 1904.19 547 1899.5 547 1894.81 547 1891 542.971 1891 538Z" fill="#FFFFFF" fill-rule="evenodd"/><path d="M1840 547C1840 542.029 1843.81 538 1848.5 538 1853.19 538 1857 542.029 1857 547 1857 551.97 1853.19 556 1848.5 556 1843.81 556 1840 551.97 1840 547Z" fill="#FFFFFF" fill-rule="evenodd"/><path d="M1791 558C1791 553.029 1794.81 549 1799.5 549 1804.19 549 1808 553.029 1808 558 1808 562.97 1804.19 567 1799.5 567 1794.81 567 1791 562.97 1791 558Z" fill="#FFFFFF" fill-rule="evenodd"/><path d="M1742 570C1742 565.029 1745.81 561 1750.5 561 1755.19 561 1759 565.029 1759 570 1759 574.97 1755.19 579 1750.5 579 1745.81 579 1742 574.97 1742 570Z" fill="#FFFFFF" fill-rule="evenodd"/><path d="M1694 584C1694 579.03 1697.81 575 1702.5 575 1707.19 575 1711 579.03 1711 584 1711 588.971 1707.19 593 1702.5 593 1697.81 593 1694 588.971 1694 584Z" fill="#FFFFFF" fill-rule="evenodd"/><path d="M1639 602C1639 597.029 1642.81 593 1647.5 593 1652.19 593 1656 597.029 1656 602 1656 606.97 1652.19 611 1647.5 611 1642.81 611 1639 606.97 1639 602Z" fill="#FFFFFF" fill-rule="evenodd"/><path d="M1590 619C1590 614.03 1594.03 610 1599 610 1603.97 610 1608 614.03 1608 619 1608 623.971 1603.97 628 1599 628 1594.03 628 1590 623.971 1590 619Z" fill="#FFFFFF" fill-rule="evenodd"/><path d="M1539 642C1539 637.029 1542.81 633 1547.5 633 1552.19 633 1556 637.029 1556 642 1556 646.971 1552.19 651 1547.5 651 1542.81 651 1539 646.971 1539 642Z" fill="#FFFFFF" fill-rule="evenodd"/><path d="M1490 666C1490 661.029 1493.81 657 1498.5 657 1503.19 657 1507 661.029 1507 666 1507 670.971 1503.19 675 1498.5 675 1493.81 675 1490 670.971 1490 666Z" fill="#FFFFFF" fill-rule="evenodd"/><path d="M1445 689C1445 684.029 1449.03 680 1454 680 1458.97 680 1463 684.029 1463 689 1463 693.971 1458.97 698 1454 698 1449.03 698 1445 693.971 1445 689Z" fill="#FFFFFF" fill-rule="evenodd"/><path d="M1400 715.5C1400 710.253 1403.81 706 1408.5 706 1413.19 706 1417 710.253 1417 715.5 1417 720.747 1413.19 725 1408.5 725 1403.81 725 1400 720.747 1400 715.5Z" fill="#FFFFFF" fill-rule="evenodd"/><path d="M1353 749C1353 744.03 1356.81 740 1361.5 740 1366.19 740 1370 744.03 1370 749 1370 753.971 1366.19 758 1361.5 758 1356.81 758 1353 753.971 1353 749Z" fill="#FFFFFF" fill-rule="evenodd"/><path d="M1308 781C1308 776.029 1311.81 772 1316.5 772 1321.19 772 1325 776.029 1325 781 1325 785.971 1321.19 790 1316.5 790 1311.81 790 1308 785.971 1308 781Z" fill="#FFFFFF" fill-rule="evenodd"/><path d="M1270 813C1270 808.029 1273.81 804 1278.5 804 1283.19 804 1287 808.029 1287 813 1287 817.971 1283.19 822 1278.5 822 1273.81 822 1270 817.971 1270 813Z" fill="#FFFFFF" fill-rule="evenodd"/><path d="M1228 853C1228 848.029 1231.81 844 1236.5 844 1241.19 844 1245 848.029 1245 853 1245 857.971 1241.19 862 1236.5 862 1231.81 862 1228 857.971 1228 853Z" fill="#FFFFFF" fill-rule="evenodd"/><path d="M1453 799C1453 794.029 1456.81 790 1461.5 790 1466.19 790 1470 794.029 1470 799 1470 803.971 1466.19 808 1461.5 808 1456.81 808 1453 803.971 1453 799Z" fill="#FFFFFF" fill-rule="evenodd"/><path d="M1413 825.5C1413 820.253 1416.81 816 1421.5 816 1426.19 816 1430 820.253 1430 825.5 1430 830.747 1426.19 835 1421.5 835 1416.81 835 1413 830.747 1413 825.5Z" fill="#FFFFFF" fill-rule="evenodd"/><path d="M1367 860.5C1367 855.253 1370.81 851 1375.5 851 1380.19 851 1384 855.253 1384 860.5 1384 865.747 1380.19 870 1375.5 870 1370.81 870 1367 865.747 1367 860.5Z" fill="#FFFFFF" fill-rule="evenodd"/><path d="M1328 890C1328 885.029 1331.81 881 1336.5 881 1341.19 881 1345 885.029 1345 890 1345 894.971 1341.19 899 1336.5 899 1331.81 899 1328 894.971 1328 890Z" fill="#FFFFFF" fill-rule="evenodd"/><path d="M1295 926.5C1295 921.253 1299.03 917 1304 917 1308.97 917 1313 921.253 1313 926.5 1313 931.747 1308.97 936 1304 936 1299.03 936 1295 931.747 1295 926.5Z" fill="#FFFFFF" fill-rule="evenodd"/><path d="M1259 959.5C1259 954.253 1262.81 950 1267.5 950 1272.19 950 1276 954.253 1276 959.5 1276 964.747 1272.19 969 1267.5 969 1262.81 969 1259 964.747 1259 959.5Z" fill="#FFFFFF" fill-rule="evenodd"/><path d="M1193 892.5C1193 887.253 1197.03 883 1202 883 1206.97 883 1211 887.253 1211 892.5 1211 897.747 1206.97 902 1202 902 1197.03 902 1193 897.747 1193 892.5Z" fill="#FFFFFF" fill-rule="evenodd"/><path d="M1153 940C1153 935.029 1156.81 931 1161.5 931 1166.19 931 1170 935.029 1170 940 1170 944.971 1166.19 949 1161.5 949 1156.81 949 1153 944.971 1153 940Z" fill="#FFFFFF" fill-rule="evenodd"/><path d="M1231 998C1231 993.029 1234.81 989 1239.5 989 1244.19 989 1248 993.029 1248 998 1248 1002.97 1244.19 1007 1239.5 1007 1234.81 1007 1231 1002.97 1231 998Z" fill="#FFFFFF" fill-rule="evenodd"/><path d="M1199 1041C1199 1036.03 1202.81 1032 1207.5 1032 1212.19 1032 1216 1036.03 1216 1041 1216 1045.97 1212.19 1050 1207.5 1050 1202.81 1050 1199 1045.97 1199 1041Z" fill="#FFFFFF" fill-rule="evenodd"/><path d="M1116 993.5C1116 988.253 1119.81 984 1124.5 984 1129.19 984 1133 988.253 1133 993.5 1133 998.747 1129.19 1003 1124.5 1003 1119.81 1003 1116 998.747 1116 993.5Z" fill="#FFFFFF" fill-rule="evenodd"/><path d="M1087 1048.5C1087 1043.25 1091.03 1039 1096 1039 1100.97 1039 1105 1043.25 1105 1048.5 1105 1053.75 1100.97 1058 1096 1058 1091.03 1058 1087 1053.75 1087 1048.5Z" fill="#FFFFFF" fill-rule="evenodd"/><path d="M1173 1085C1173 1080.03 1177.03 1076 1182 1076 1186.97 1076 1191 1080.03 1191 1085 1191 1089.97 1186.97 1094 1182 1094 1177.03 1094 1173 1089.97 1173 1085Z" fill="#FFFFFF" fill-rule="evenodd"/><path d="M1152 1132.5C1152 1127.25 1155.81 1123 1160.5 1123 1165.19 1123 1169 1127.25 1169 1132.5 1169 1137.75 1165.19 1142 1160.5 1142 1155.81 1142 1152 1137.75 1152 1132.5Z" fill="#FFFFFF" fill-rule="evenodd"/><path d="M1135 1183C1135 1178.03 1138.81 1174 1143.5 1174 1148.19 1174 1152 1178.03 1152 1183 1152 1187.97 1148.19 1192 1143.5 1192 1138.81 1192 1135 1187.97 1135 1183Z" fill="#FFFFFF" fill-rule="evenodd"/><path d="M1123 1232C1123 1227.03 1127.03 1223 1132 1223 1136.97 1223 1141 1227.03 1141 1232 1141 1236.97 1136.97 1241 1132 1241 1127.03 1241 1123 1236.97 1123 1232Z" fill="#FFFFFF" fill-rule="evenodd"/><path d="M1118 1284C1118 1279.03 1121.81 1275 1126.5 1275 1131.19 1275 1135 1279.03 1135 1284 1135 1288.97 1131.19 1293 1126.5 1293 1121.81 1293 1118 1288.97 1118 1284Z" fill="#FFFFFF" fill-rule="evenodd"/><path d="M1023 1280.5C1023 1275.25 1026.81 1271 1031.5 1271 1036.19 1271 1040 1275.25 1040 1280.5 1040 1285.75 1036.19 1290 1031.5 1290 1026.81 1290 1023 1285.75 1023 1280.5Z" fill="#FFFFFF" fill-rule="evenodd"/><path d="M1035 1222.5C1035 1217.25 1038.81 1213 1043.5 1213 1048.19 1213 1052 1217.25 1052 1222.5 1052 1227.75 1048.19 1232 1043.5 1232 1038.81 1232 1035 1227.75 1035 1222.5Z" fill="#FFFFFF" fill-rule="evenodd"/><path d="M1044 1163C1044 1158.03 1048.03 1154 1053 1154 1057.97 1154 1062 1158.03 1062 1163 1062 1167.97 1057.97 1172 1053 1172 1048.03 1172 1044 1167.97 1044 1163Z" fill="#FFFFFF" fill-rule="evenodd"/><path d="M1062 1106C1062 1101.03 1065.81 1097 1070.5 1097 1075.19 1097 1079 1101.03 1079 1106 1079 1110.97 1075.19 1115 1070.5 1115 1065.81 1115 1062 1110.97 1062 1106Z" fill="#FFFFFF" fill-rule="evenodd"/><path d="M1491 775C1491 770.029 1494.81 766 1499.5 766 1504.19 766 1508 770.029 1508 775 1508 779.971 1504.19 784 1499.5 784 1494.81 784 1491 779.971 1491 775Z" fill="#FFFFFF" fill-rule="evenodd"/><path d="M1537 750.5C1537 745.253 1540.81 741 1545.5 741 1550.19 741 1554 745.253 1554 750.5 1554 755.747 1550.19 760 1545.5 760 1540.81 760 1537 755.747 1537 750.5Z" fill="#FFFFFF" fill-rule="evenodd"/><path d="M1579 732C1579 727.029 1582.81 723 1587.5 723 1592.19 723 1596 727.029 1596 732 1596 736.971 1592.19 741 1587.5 741 1582.81 741 1579 736.971 1579 732Z" fill="#FFFFFF" fill-rule="evenodd"/><path d="M1623 715.5C1623 710.253 1626.81 706 1631.5 706 1636.19 706 1640 710.253 1640 715.5 1640 720.747 1636.19 725 1631.5 725 1626.81 725 1623 720.747 1623 715.5Z" fill="#FFFFFF" fill-rule="evenodd"/><path d="M1671 698.5C1671 693.253 1674.81 689 1679.5 689 1684.19 689 1688 693.253 1688 698.5 1688 703.747 1684.19 708 1679.5 708 1674.81 708 1671 703.747 1671 698.5Z" fill="#FFFFFF" fill-rule="evenodd"/><path d="M1718 682C1718 677.029 1721.81 673 1726.5 673 1731.19 673 1735 677.029 1735 682 1735 686.971 1731.19 691 1726.5 691 1721.81 691 1718 686.971 1718 682Z" fill="#FFFFFF" fill-rule="evenodd"/><path d="M1765 668C1765 663.029 1768.81 659 1773.5 659 1778.19 659 1782 663.029 1782 668 1782 672.97 1778.19 677 1773.5 677 1768.81 677 1765 672.97 1765 668Z" fill="#FFFFFF" fill-rule="evenodd"/><path d="M1811 656C1811 651.029 1814.81 647 1819.5 647 1824.19 647 1828 651.029 1828 656 1828 660.971 1824.19 665 1819.5 665 1814.81 665 1811 660.971 1811 656Z" fill="#FFFFFF" fill-rule="evenodd"/><path d="M1858 645C1858 640.029 1861.81 636 1866.5 636 1871.19 636 1875 640.029 1875 645 1875 649.971 1871.19 654 1866.5 654 1861.81 654 1858 649.971 1858 645Z" fill="#FFFFFF" fill-rule="evenodd"/><path d="M1907 637.5C1907 632.253 1910.81 628 1915.5 628 1920.19 628 1924 632.253 1924 637.5 1924 642.747 1920.19 647 1915.5 647 1910.81 647 1907 642.747 1907 637.5Z" fill="#FFFFFF" fill-rule="evenodd"/><path d="M1951 629.5C1951 624.253 1955.03 620 1960 620 1964.97 620 1969 624.253 1969 629.5 1969 634.747 1964.97 639 1960 639 1955.03 639 1951 634.747 1951 629.5Z" fill="#FFFFFF" fill-rule="evenodd"/><path d="M1997 624C1997 619.029 2000.81 615 2005.5 615 2010.19 615 2014 619.029 2014 624 2014 628.97 2010.19 633 2005.5 633 2000.81 633 1997 628.97 1997 624Z" fill="#FFFFFF" fill-rule="evenodd"/><path d="M2048 620.5C2048 615.253 2051.81 611 2056.5 611 2061.19 611 2065 615.253 2065 620.5 2065 625.747 2061.19 630 2056.5 630 2051.81 630 2048 625.747 2048 620.5Z" fill="#FFFFFF" fill-rule="evenodd"/><path d="M2096 619C2096 614.03 2099.81 610 2104.5 610 2109.19 610 2113 614.03 2113 619 2113 623.971 2109.19 628 2104.5 628 2099.81 628 2096 623.971 2096 619Z" fill="#FFFFFF" fill-rule="evenodd"/><path d="M2140 617.5C2140 612.253 2144.03 608 2149 608 2153.97 608 2158 612.253 2158 617.5 2158 622.747 2153.97 627 2149 627 2144.03 627 2140 622.747 2140 617.5Z" fill="#FFFFFF" fill-rule="evenodd"/></g></svg>