<svg width="1141" height="822" xmlns="http://www.w3.org/2000/svg" xmlns:xlink="http://www.w3.org/1999/xlink" xml:space="preserve" overflow="hidden"><g transform="translate(-1017 -1353)"><path d="M2156 1354C2156 2050 2156 2050 2156 2050 1589.98 2050 1130 1738.63 1130 1354 2156 1354 2156 1354 2156 1354" fill="#FDC169" fill-rule="evenodd"/><path d="M1130.65 1354C1039 1354 1039 1354 1039 1354 1039 1575.4 1160.72 1778.48 1382.69 1929.65 1590.34 2070.13 1865.29 2148 2156 2148 2156 2050.28 2156 2050.28 2156 2050.28 1590.34 2050.28 1130.65 1738.78 1130.65 1354Z" fill="#FF8B00" fill-rule="evenodd"/><path d="M1382.69 1929.65C1587.48 2068.6 1858.13 2146.47 2144.54 2148 2144.54 2148 2144.54 2148 2144.54 2148 2144.54 2140.37 2150.27 2134.26 2156 2132.73 2156 2114.41 2156 2114.41 2156 2114.41 2156 2114.41 2156 2114.41 2154.57 2114.41 2145.98 2115.93 2140.25 2120.52 2134.52 2126.62 2128.79 2118.99 2118.77 2112.88 2108.74 2112.88 2098.72 2112.88 2088.69 2117.46 2082.97 2126.62 2077.24 2117.46 2067.21 2111.35 2055.76 2111.35 2045.73 2111.35 2037.14 2115.93 2031.41 2123.57 2025.68 2112.88 2015.66 2105.25 2002.77 2105.25 1994.18 2105.25 1985.59 2109.83 1979.86 2115.93 1974.13 2105.25 1964.11 2099.14 1952.65 2099.14 1944.06 2099.14 1935.46 2102.19 1929.74 2108.3 1924.01 2099.14 1913.98 2093.03 1902.53 2093.03 1893.93 2093.03 1886.77 2096.08 1881.05 2102.19 1875.32 2091.5 1863.86 2083.87 1852.41 2083.87 1843.81 2083.87 1836.65 2086.92 1830.92 2091.5 1825.2 2080.82 1815.17 2073.18 1802.28 2073.18 1795.12 2073.18 1787.96 2076.23 1782.23 2080.82 1777.94 2068.6 1766.48 2060.97 1753.59 2060.97 1746.43 2060.97 1739.27 2064.02 1733.54 2068.6 1729.25 2056.38 1717.79 2047.22 1704.9 2047.22 1697.74 2047.22 1690.58 2050.28 1684.86 2054.86 1680.56 2041.12 1669.1 2030.43 1654.78 2030.43 1647.62 2030.43 1640.46 2033.48 1634.73 2038.06 1630.44 2022.79 1618.98 2012.1 1603.23 2012.1 1596.07 2012.1 1590.34 2013.63 1584.61 2018.21 1581.75 2001.42 1568.86 1990.73 1553.11 1990.73 1547.38 1990.73 1541.65 1992.25 1535.92 1995.31 1534.49 1978.51 1520.17 1964.77 1504.42 1964.77 1498.69 1964.77 1492.96 1966.3 1487.23 1970.88 1484.37 1954.08 1471.48 1941.87 1455.73 1941.87 1451.43 1941.87 1447.13 1941.87 1442.84 1943.39 1441.41 1926.6 1428.52 1912.85 1411.33 1912.85 1407.04 1912.85 1401.31 1914.38 1398.44 1917.43 1397.01 1897.58 1382.69 1882.32 1365.51 1882.32 1362.64 1882.32 1358.35 1883.84 1355.48 1883.84 1354.05 1867.05 1339.73 1853.3 1323.98 1853.3 1319.68 1853.3 1316.82 1853.3 1313.95 1854.83 1313.95 1853.3 1313.95 1851.78 1313.95 1851.78 1313.95 1831.93 1299.63 1816.66 1281.02 1816.66 1279.58 1816.66 1278.15 1818.18 1276.72 1818.18 1276.72 1816.66 1276.72 1816.66 1276.72 1816.66 1276.72 1796.81 1260.97 1781.54 1243.78 1781.54 1240.92 1781.54 1239.49 1781.54 1236.62 1781.54 1238.06 1780.01 1238.06 1776.96 1238.06 1773.9 1238.06 1755.58 1223.73 1740.31 1206.55 1740.31 1202.25 1740.31 1197.96 1740.31 1195.09 1741.84 1197.96 1737.26 1199.39 1731.15 1199.39 1725.04 1199.39 1706.72 1185.07 1689.92 1166.45 1689.92 1163.59 1689.92 1160.72 1691.45 1157.86 1691.45 1160.72 1686.87 1163.59 1680.76 1163.59 1673.13 1163.59 1654.8 1149.27 1639.53 1130.65 1639.53 1129.22 1639.53 1127.79 1639.53 1126.36 1639.53 1130.65 1633.43 1133.52 1625.79 1133.52 1618.16 1133.52 1599.83 1120.63 1584.57 1103.44 1583.04 1107.74 1578.46 1109.17 1570.82 1109.17 1563.19 1109.17 1546.39 1097.71 1532.65 1083.39 1529.6 1089.12 1523.49 1091.99 1515.85 1091.99 1506.69 1091.99 1491.42 1083.39 1477.68 1070.51 1473.1 1076.23 1466.99 1079.1 1459.36 1079.1 1448.67 1079.1 1436.45 1071.94 1424.24 1061.91 1418.13 1069.07 1412.02 1073.37 1402.86 1073.37 1392.17 1073.37 1379.96 1066.21 1369.27 1057.62 1363.16 1057.62 1361.63 1059.05 1361.63 1059.05 1361.63 1060.48 1360.11 1061.91 1357.05 1061.91 1354 1039 1354 1039 1354 1039 1354 1039 1575.4 1160.72 1778.48 1382.69 1929.65Z" fill="#E84D00" fill-rule="evenodd"/><path d="M1942.71 2013.75C1936.98 2004.59 1926.96 1996.95 1915.51 1996.95 1908.35 1996.95 1901.2 2000 1895.47 2006.11 1889.74 1995.42 1879.72 1989.31 1868.27 1989.31 1861.12 1989.31 1853.96 1992.37 1849.66 1996.95 1843.94 1986.26 1833.92 1978.62 1821.03 1978.62 1815.31 1978.62 1808.15 1981.68 1803.86 1986.26 1798.13 1975.57 1788.11 1967.93 1775.23 1967.93 1768.07 1967.93 1762.34 1969.46 1756.62 1974.04 1752.32 1961.82 1740.87 1954.19 1727.99 1954.19 1722.26 1954.19 1716.54 1955.72 1710.81 1960.3 1706.52 1946.55 1695.06 1938.92 1682.18 1938.92 1676.45 1938.92 1670.73 1940.44 1666.43 1943.5 1662.14 1929.75 1650.69 1920.59 1636.37 1920.59 1632.08 1920.59 1626.35 1923.64 1622.06 1925.17 1617.76 1912.95 1606.31 1902.26 1592 1902.26 1586.27 1902.26 1581.98 1903.79 1577.68 1905.32 1574.82 1891.57 1561.94 1880.88 1547.62 1880.88 1543.33 1880.88 1539.03 1882.41 1534.74 1883.94 1531.88 1870.19 1518.99 1857.97 1504.68 1857.97 1500.38 1857.97 1496.09 1859.5 1493.23 1861.03 1490.36 1845.76 1477.48 1833.54 1461.73 1833.54 1458.87 1833.54 1456.01 1833.54 1453.14 1835.07 1450.28 1819.8 1437.4 1806.05 1421.65 1806.05 1418.79 1806.05 1415.93 1807.58 1413.06 1807.58 1411.63 1790.78 1398.75 1777.03 1381.57 1777.03 1380.14 1777.03 1377.28 1777.03 1374.41 1778.56 1374.41 1760.23 1360.1 1746.49 1344.35 1746.49 1341.49 1746.49 1340.06 1746.49 1338.63 1746.49 1338.63 1746.49 1338.63 1744.96 1338.63 1744.96 1338.63 1726.64 1324.31 1711.36 1307.13 1711.36 1307.13 1711.36 1305.7 1711.36 1304.27 1711.36 1304.27 1711.36 1304.27 1709.84 1304.27 1708.31 1304.27 1689.98 1291.39 1674.71 1274.21 1674.71 1272.78 1674.71 1272.78 1674.71 1272.78 1674.71 1272.78 1673.18 1272.78 1671.66 1272.78 1670.13 1272.78 1651.8 1259.89 1636.53 1244.15 1636.53 1244.15 1633.48 1244.15 1630.42 1244.15 1627.37 1244.15 1610.57 1232.7 1596.82 1218.38 1595.3 1218.38 1590.72 1219.81 1587.66 1219.81 1584.61 1219.81 1567.81 1209.79 1555.59 1195.48 1551.01 1196.91 1547.95 1198.34 1543.37 1198.34 1537.26 1198.34 1523.52 1189.75 1509.77 1176.87 1506.72 1179.73 1500.61 1181.16 1494.5 1181.16 1488.39 1181.16 1474.65 1174.01 1463.96 1163.99 1457.85 1168.28 1453.27 1169.71 1445.63 1169.71 1438 1169.71 1425.78 1163.99 1416.62 1155.4 1410.51 1159.69 1404.4 1163.99 1395.23 1163.99 1387.6 1163.99 1375.38 1158.26 1366.22 1149.67 1360.11 1151.1 1358.58 1152.53 1357.05 1152.53 1354 1109.59 1354 1109.59 1354 1109.59 1354 1109.59 1357.05 1109.59 1360.11 1112.45 1361.64 1105.29 1367.74 1101 1376.91 1101 1387.6 1101 1399.82 1106.73 1408.98 1116.75 1415.09 1111.02 1421.2 1108.16 1430.36 1108.16 1438 1108.16 1451.74 1115.31 1462.43 1125.34 1468.54 1121.04 1474.65 1119.61 1480.76 1119.61 1488.39 1119.61 1503.67 1128.2 1515.88 1141.08 1520.46 1138.22 1525.05 1135.36 1531.15 1135.36 1537.26 1135.36 1554.06 1146.81 1566.28 1159.69 1569.33 1158.26 1573.92 1156.83 1578.5 1156.83 1584.61 1156.83 1601.41 1168.28 1615.15 1184.03 1616.68 1182.59 1619.73 1182.59 1624.31 1182.59 1627.37 1182.59 1645.69 1195.48 1659.44 1211.22 1660.97 1211.22 1664.02 1211.22 1667.08 1211.22 1670.13 1211.22 1688.46 1224.11 1702.2 1241.28 1702.2 1242.72 1702.2 1242.72 1702.2 1242.72 1702.2 1242.72 1705.26 1242.72 1706.78 1242.72 1708.31 1242.72 1726.64 1257.03 1741.91 1274.21 1741.91 1274.21 1741.91 1275.64 1741.91 1277.07 1741.91 1277.07 1743.44 1277.07 1743.44 1277.07 1744.96 1277.07 1763.29 1289.96 1778.56 1307.13 1778.56 1310 1778.56 1311.43 1778.56 1312.86 1777.03 1312.86 1778.56 1312.86 1778.56 1312.86 1778.56 1312.86 1796.89 1327.17 1812.16 1344.35 1812.16 1345.78 1812.16 1348.65 1812.16 1350.08 1812.16 1351.51 1828.96 1364.39 1844.23 1381.57 1844.23 1384.43 1844.23 1387.3 1844.23 1390.16 1842.7 1391.59 1859.5 1405.91 1873.25 1421.65 1873.25 1424.51 1873.25 1428.81 1873.25 1431.67 1871.72 1433.1 1886.99 1445.99 1900.74 1461.73 1900.74 1466.03 1900.74 1470.32 1899.21 1474.62 1897.68 1476.05 1912.95 1488.93 1925.17 1504.68 1925.17 1508.97 1925.17 1513.27 1923.64 1517.56 1922.12 1520.42 1937.39 1533.31 1948.08 1547.62 1948.08 1553.35 1948.08 1557.64 1946.55 1561.94 1945.03 1564.8 1958.77 1577.68 1969.46 1592 1969.46 1597.72 1969.46 1602.02 1967.93 1607.74 1964.88 1610.61 1978.62 1623.49 1987.79 1636.37 1987.79 1643.53 1987.79 1647.82 1986.26 1653.55 1983.21 1657.85 1995.42 1669.3 2004.59 1682.18 2004.59 1687.91 2004.59 1695.06 2003.06 1699.36 2000 1703.65 2012.22 1715.1 2021.39 1727.99 2021.39 1735.15 2021.39 1742.3 2018.33 1746.6 2013.75 1752.32 2025.97 1762.34 2033.6 1775.23 2033.6 1782.38 2033.6 1788.11 2032.08 1793.84 2027.49 1799.56 2038.18 1809.58 2045.82 1821.03 2045.82 1829.62 2045.82 1835.35 2042.77 1841.07 2038.18 1846.8 2048.87 1856.82 2056.51 1868.27 2056.51 1876.86 2056.51 1884.02 2053.46 1889.74 2047.35 1894.04 2058.04 1904.06 2064.15 1915.51 2064.15 1924.1 2064.15 1931.26 2061.09 1936.98 2054.98 1942.71 2065.67 1952.73 2071.78 1964.18 2071.78 1971.34 2071.78 1979.93 2067.2 1985.65 2062.62 1991.38 2071.78 1999.97 2076.36 2011.42 2076.36 2020.01 2076.36 2028.6 2073.31 2034.32 2067.2 2040.05 2074.84 2048.64 2080.95 2060.09 2080.95 2068.68 2080.95 2077.27 2076.36 2082.99 2068.73 2088.72 2077.89 2098.74 2082.47 2108.76 2082.47 2117.35 2082.47 2125.94 2077.89 2131.66 2071.78 2137.39 2079.42 2145.98 2084 2156 2084 2156 2084 2156 2084 2156 2084 2156 2065.67 2156 2065.67 2156 2065.67 2156 2065.67 2156 2065.67 2156 2065.67 2148.84 2065.67 2141.69 2059.56 2141.69 2050.4 2141.69 2042.77 2148.84 2035.13 2156 2035.13 2156 2035.13 2156 2035.13 2156 2035.13 2156 2016.8 2156 2016.8 2156 2016.8 2147.41 2016.8 2138.82 2021.39 2133.1 2029.02 2127.37 2021.39 2118.78 2016.8 2108.76 2016.8 2098.74 2016.8 2090.15 2021.39 2084.43 2027.49 2078.7 2019.86 2070.11 2013.75 2060.09 2013.75 2050.07 2013.75 2042.91 2018.33 2037.19 2024.44 2031.46 2016.8 2021.44 2010.69 2011.42 2010.69 2002.83 2010.69 1995.67 2013.75 1989.95 2019.86 1984.22 2010.69 1974.2 2004.59 1964.18 2004.59 1955.59 2004.59 1948.44 2007.64 1942.71 2013.75Z" fill="#E84D00" fill-rule="evenodd"/><path d="M2141.67 2050C2143.1 2042.37 2148.84 2034.74 2156 2034.74 2156 2034.74 2156 2034.74 2156 2034.74 2156 2016.42 2156 2016.42 2156 2016.42 2147.4 2016.42 2138.8 2021 2133.07 2028.63 2127.34 2021 2118.74 2016.42 2108.71 2016.42 2098.68 2016.42 2090.08 2021 2084.35 2027.11 2078.62 2019.47 2070.02 2013.37 2059.99 2013.37 2049.96 2013.37 2042.8 2017.95 2037.06 2024.05 2031.33 2016.42 2021.3 2010.32 2011.27 2010.32 2002.67 2010.32 1995.51 2013.37 1989.78 2019.47 1984.04 2010.32 1974.01 2004.21 1963.98 2004.21 1955.39 2004.21 1948.22 2007.26 1942.49 2013.37 1936.76 2004.21 1926.73 1996.58 1915.26 1996.58 1908.1 1996.58 1900.93 1999.63 1895.2 2005.74 1889.47 1995.05 1879.44 1988.95 1867.97 1988.95 1860.81 1988.95 1853.65 1992 1849.35 1996.58 1843.61 1985.89 1833.58 1978.26 1820.69 1978.26 1814.96 1978.26 1807.79 1981.32 1803.49 1985.89 1797.76 1975.21 1787.73 1967.58 1774.83 1967.58 1767.67 1967.58 1761.94 1969.11 1756.2 1973.68 1751.91 1961.47 1740.44 1953.84 1727.54 1953.84 1721.81 1953.84 1716.08 1955.37 1710.35 1959.95 1706.05 1946.21 1694.59 1938.58 1681.69 1938.58 1675.96 1938.58 1670.23 1940.11 1665.93 1943.16 1661.63 1929.42 1650.16 1920.26 1635.84 1920.26 1631.54 1920.26 1625.8 1923.32 1621.51 1924.84 1617.21 1912.63 1605.74 1901.95 1591.41 1901.95 1585.68 1901.95 1581.38 1903.47 1577.08 1905 1574.22 1891.26 1561.32 1880.58 1546.99 1880.58 1542.69 1880.58 1538.39 1882.11 1534.09 1883.63 1531.23 1869.89 1518.33 1857.68 1504 1857.68 1499.7 1857.68 1495.4 1859.21 1492.54 1860.74 1489.67 1845.47 1476.78 1833.26 1461.01 1833.26 1458.15 1833.26 1455.28 1833.26 1452.42 1834.79 1449.55 1819.53 1436.65 1805.79 1420.89 1805.79 1418.03 1805.79 1415.16 1807.32 1412.29 1807.32 1410.86 1790.53 1397.96 1776.79 1380.77 1776.79 1379.34 1776.79 1376.47 1776.79 1373.6 1778.32 1373.6 1760 1359.27 1746.26 1343.51 1746.26 1340.65 1746.26 1339.21 1746.26 1337.78 1746.26 1337.78 1746.26 1337.78 1744.74 1337.78 1744.74 1337.78 1726.42 1323.45 1711.16 1306.25 1711.16 1306.25 1711.16 1304.82 1711.16 1303.39 1711.16 1303.39 1711.16 1303.39 1709.63 1303.39 1708.11 1303.39 1689.79 1290.49 1674.53 1273.3 1674.53 1271.86 1674.53 1271.86 1674.53 1271.86 1674.53 1271.86 1673 1271.86 1671.47 1271.86 1669.95 1271.86 1651.63 1258.97 1636.37 1243.2 1636.37 1243.2 1633.32 1243.2 1630.26 1243.2 1627.21 1243.2 1610.42 1231.74 1596.68 1217.41 1595.16 1217.41 1590.58 1218.84 1587.53 1218.84 1584.47 1218.84 1567.68 1208.81 1555.47 1194.48 1550.89 1195.92 1547.84 1197.35 1543.26 1197.35 1537.16 1197.35 1523.42 1188.75 1509.68 1175.85 1506.63 1178.72 1500.53 1180.15 1494.42 1180.15 1488.32 1180.15 1474.58 1172.99 1463.89 1162.96 1457.79 1167.26 1453.21 1168.69 1445.58 1168.69 1437.95 1168.69 1425.74 1162.96 1416.58 1154.36 1410.47 1158.66 1404.37 1162.96 1395.21 1162.96 1387.58 1162.96 1375.37 1157.23 1366.21 1148.63 1360.11 1150.06 1358.58 1151.49 1357.05 1151.49 1354 1130 1354 1130 1354 1130 1354 1130 1735.58 1582.82 2045.42 2141.67 2050Z" fill="#FF7000" fill-rule="evenodd"/><path d="M2134.5 2030.47C2140.24 2022.83 2148.83 2018.24 2156 2018.24 2156 2018.24 2156 2018.24 2156 2018.24 2147.4 2018.24 2138.8 2016.72 2133.07 2022.83 2125.91 2016.72 2117.31 2012.13 2108.71 2012.13 2098.68 2012.13 2091.51 2016.72 2084.35 2022.83 2078.62 2015.19 2068.58 2010.6 2059.99 2010.6 2051.39 2010.6 2044.22 2013.66 2037.06 2019.77 2031.32 2010.6 2021.29 2006.02 2011.26 2006.02 2011.26 2006.02 2011.26 2006.02 2011.26 2006.02 2004.1 2006.02 1995.5 2009.07 1989.77 2015.19 1984.03 2006.02 1974 2001.43 1963.97 2001.43 1955.37 2001.43 1949.64 2004.49 1942.48 2009.07 1936.74 1998.38 1926.71 1993.79 1915.25 1993.79 1908.08 1993.79 1902.35 1996.85 1896.62 1999.9 1889.45 1990.73 1879.42 1984.62 1867.96 1984.62 1862.23 1984.62 1855.06 1987.68 1849.33 1992.26 1843.6 1981.56 1833.56 1975.45 1820.67 1975.45 1814.93 1975.45 1809.2 1976.98 1803.47 1980.04 1797.74 1969.34 1786.27 1963.22 1774.81 1963.22 1769.08 1963.22 1763.34 1964.75 1757.61 1969.34 1751.88 1957.11 1740.42 1949.47 1727.52 1949.47 1721.79 1949.47 1717.49 1951 1711.75 1954.05 1706.02 1941.83 1694.56 1934.19 1681.66 1934.19 1675.93 1934.19 1671.63 1935.71 1667.33 1938.77 1661.6 1925.02 1650.13 1917.37 1635.8 1917.37 1631.5 1917.37 1627.21 1918.9 1622.91 1920.43 1617.17 1906.68 1605.71 1897.51 1591.38 1897.51 1587.08 1897.51 1582.78 1899.03 1578.48 1900.56 1574.18 1886.81 1561.28 1877.64 1546.95 1877.64 1544.09 1877.64 1539.79 1877.64 1535.49 1879.17 1531.19 1863.88 1518.29 1854.71 1503.96 1854.71 1501.1 1854.71 1496.8 1854.71 1493.93 1856.24 1489.63 1840.96 1476.73 1828.73 1460.97 1828.73 1459.54 1828.73 1456.67 1830.26 1453.81 1830.26 1449.51 1814.97 1436.61 1802.75 1420.85 1802.75 1417.98 1802.75 1416.55 1802.75 1413.68 1802.75 1410.81 1785.94 1397.92 1773.71 1380.72 1773.71 1380.72 1773.71 1377.85 1773.71 1376.42 1773.71 1374.99 1755.37 1360.66 1741.61 1343.46 1741.61 1343.46 1741.61 1342.03 1741.61 1340.6 1741.61 1339.16 1721.75 1324.83 1706.46 1306.2 1706.46 1306.2 1688.12 1291.87 1672.84 1274.68 1671.31 1274.68 1669.78 1274.68 1668.25 1274.68 1668.25 1274.68 1649.91 1261.78 1634.63 1246.01 1633.1 1246.01 1630.05 1246.01 1626.99 1246.01 1626.99 1246.01 1608.65 1234.55 1594.89 1220.22 1591.84 1220.22 1588.78 1221.65 1585.72 1221.65 1582.67 1221.65 1567.38 1211.62 1553.63 1198.72 1549.04 1198.72 1544.46 1200.16 1539.87 1200.16 1536.82 1200.16 1521.53 1191.56 1509.31 1180.09 1503.19 1181.53 1498.61 1182.96 1492.49 1182.96 1486.38 1182.96 1486.38 1182.96 1486.38 1182.96 1486.38 1182.96 1474.15 1177.23 1461.93 1167.2 1455.81 1170.06 1449.7 1171.5 1443.59 1171.5 1437.47 1171.5 1425.25 1167.2 1414.55 1157.17 1408.44 1162.9 1400.79 1165.76 1393.15 1165.76 1385.51 1165.76 1385.51 1165.76 1385.51 1165.76 1385.51 1165.76 1373.28 1158.6 1365.64 1150 1358 1150 1359.53 1150 1359.53 1150 1359.53 1157.17 1364.11 1160.03 1376.34 1160.03 1385.51 1160.03 1393.15 1157.17 1400.79 1151.43 1406.91 1150 1408.44 1150 1408.44 1150 1408.44 1152.87 1411.49 1152.87 1411.49 1152.87 1411.49 1161.46 1416.08 1165.76 1426.78 1165.76 1437.47 1165.76 1443.59 1164.33 1449.7 1160.03 1455.81 1158.6 1457.34 1158.6 1457.34 1158.6 1457.34 1161.46 1460.4 1161.46 1460.4 1161.46 1460.4 1171.5 1464.98 1177.23 1475.68 1177.23 1486.38 1177.23 1492.49 1175.79 1498.61 1172.93 1503.19 1171.5 1506.25 1171.5 1506.25 1171.5 1506.25 1174.36 1507.78 1174.36 1507.78 1174.36 1507.78 1187.26 1510.83 1194.42 1523.06 1194.42 1536.82 1194.42 1539.87 1192.99 1544.46 1191.56 1549.04 1190.13 1552.1 1190.13 1552.1 1190.13 1552.1 1194.42 1553.63 1194.42 1553.63 1194.42 1553.63 1207.32 1556.68 1215.92 1568.91 1215.92 1582.67 1215.92 1585.72 1214.49 1588.78 1214.49 1591.84 1213.05 1596.42 1213.05 1596.42 1213.05 1596.42 1215.92 1596.42 1215.92 1596.42 1215.92 1596.42 1230.25 1597.95 1240.28 1611.71 1240.28 1626.99 1238.85 1637.69 1238.85 1637.69 1238.85 1637.69 1241.71 1637.69 1241.71 1637.69 1241.71 1637.69 1257.48 1639.22 1268.94 1651.44 1268.94 1668.25 1268.94 1677.42 1268.94 1677.42 1268.94 1677.42 1271.81 1677.42 1271.81 1677.42 1271.81 1677.42 1273.24 1677.42 1273.24 1677.42 1273.24 1677.42 1289.01 1677.42 1300.47 1691.18 1300.47 1706.46 1300.47 1714.1 1300.47 1714.1 1300.47 1714.1 1303.34 1714.1 1303.34 1714.1 1303.34 1714.1 1306.2 1712.58 1306.2 1712.58 1306.2 1712.58 1321.97 1712.58 1334.86 1726.33 1334.86 1743.14 1334.86 1747.73 1334.86 1747.73 1334.86 1747.73 1337.73 1747.73 1337.73 1747.73 1337.73 1747.73 1343.46 1747.73 1343.46 1747.73 1343.46 1747.73 1357.79 1747.73 1370.69 1761.48 1370.69 1776.77 1370.69 1779.82 1370.69 1779.82 1370.69 1779.82 1374.99 1779.82 1374.99 1779.82 1374.99 1779.82 1380.72 1779.82 1380.72 1779.82 1380.72 1779.82 1395.05 1779.82 1407.95 1792.05 1409.38 1807.33 1409.38 1810.39 1409.38 1810.39 1409.38 1810.39 1413.68 1810.39 1413.68 1810.39 1413.68 1810.39 1415.11 1808.86 1417.98 1808.86 1420.85 1808.86 1435.18 1808.86 1446.64 1819.56 1449.51 1834.84 1449.51 1837.9 1449.51 1837.9 1449.51 1837.9 1452.37 1836.37 1452.37 1836.37 1452.37 1836.37 1455.24 1836.37 1458.11 1834.84 1460.97 1834.84 1475.3 1834.84 1486.77 1845.54 1489.63 1860.83 1489.63 1863.88 1489.63 1863.88 1489.63 1863.88 1493.93 1862.35 1493.93 1862.35 1493.93 1862.35 1496.8 1860.83 1499.66 1860.83 1503.96 1860.83 1516.86 1860.83 1528.32 1870 1531.19 1883.75 1532.62 1888.34 1532.62 1888.34 1532.62 1888.34 1535.49 1885.28 1535.49 1885.28 1535.49 1885.28 1539.79 1883.75 1542.66 1883.75 1546.95 1883.75 1559.85 1883.75 1571.32 1892.92 1574.18 1905.15 1575.62 1909.73 1575.62 1909.73 1575.62 1909.73 1578.48 1908.2 1578.48 1908.2 1578.48 1908.2 1582.78 1905.15 1587.08 1903.62 1591.38 1903.62 1604.28 1903.62 1614.31 1912.79 1618.61 1925.02 1620.04 1929.6 1620.04 1929.6 1620.04 1929.6 1622.91 1926.54 1622.91 1926.54 1622.91 1926.54 1627.21 1925.02 1631.5 1923.49 1635.8 1923.49 1648.7 1923.49 1658.73 1931.13 1663.03 1943.36 1664.46 1946.41 1664.46 1946.41 1664.46 1946.41 1667.33 1944.88 1667.33 1944.88 1667.33 1944.88 1671.63 1941.83 1675.93 1940.3 1681.66 1940.3 1693.13 1940.3 1704.59 1947.94 1707.46 1960.17 1708.89 1963.22 1708.89 1963.22 1708.89 1963.22 1711.75 1961.7 1711.75 1961.7 1711.75 1961.7 1717.49 1957.11 1721.79 1955.58 1727.52 1955.58 1738.98 1955.58 1749.01 1963.22 1753.31 1973.92 1754.75 1976.98 1754.75 1976.98 1754.75 1976.98 1757.61 1975.45 1757.61 1975.45 1757.61 1975.45 1763.34 1970.87 1769.08 1969.34 1774.81 1969.34 1786.27 1969.34 1794.87 1975.45 1800.6 1986.15 1802.04 1989.21 1802.04 1989.21 1802.04 1989.21 1804.9 1987.68 1804.9 1987.68 1804.9 1987.68 1809.2 1983.09 1814.93 1981.56 1820.67 1981.56 1832.13 1981.56 1840.73 1987.68 1846.46 1996.85 1847.89 1999.9 1847.89 1999.9 1847.89 1999.9 1850.76 1998.38 1850.76 1998.38 1850.76 1998.38 1856.49 1993.79 1862.23 1990.73 1867.96 1990.73 1877.99 1990.73 1888.02 1996.85 1892.32 2006.02 1895.19 2009.07 1895.19 2009.07 1895.19 2009.07 1896.62 2007.55 1896.62 2007.55 1896.62 2007.55 1902.35 2001.43 1909.52 1999.9 1915.25 1999.9 1925.28 1999.9 1935.31 2004.49 1939.61 2013.66 1941.04 2016.72 1941.04 2016.72 1941.04 2016.72 1943.91 2015.19 1943.91 2015.19 1943.91 2015.19 1949.64 2009.07 1956.81 2007.55 1963.97 2007.55 1972.57 2007.55 1981.17 2012.13 1986.9 2021.3 1988.33 2024.36 1988.33 2024.36 1988.33 2024.36 1991.2 2021.3 1991.2 2021.3 1991.2 2021.3 1996.93 2015.19 2004.1 2012.13 2011.26 2012.13 2019.86 2012.13 2029.89 2016.72 2034.19 2025.89 2037.06 2028.94 2037.06 2028.94 2037.06 2028.94 2038.49 2025.89 2038.49 2025.89 2038.49 2025.89 2044.22 2019.77 2051.39 2016.72 2059.99 2016.72 2068.58 2016.72 2077.18 2021.3 2081.48 2028.94 2084.35 2032 2084.35 2032 2084.35 2032 2087.21 2028.94 2087.21 2028.94 2087.21 2028.94 2091.51 2022.83 2100.11 2018.24 2108.71 2018.24 2117.31 2018.24 2125.91 2022.83 2130.21 2028.94 2133.07 2032 2133.07 2032 2133.07 2032L2134.5 2030.47Z" fill="#FFFFFF" fill-rule="evenodd"/><path d="M1125 1399.52 1123.85 1376 1039 1380.48 1040.72 1404 1125 1399.52Z" stroke="#FFFFFF" stroke-width="5.72917" stroke-miterlimit="8" fill="none" fill-rule="evenodd"/><path d="M1138 1453.45 1136.28 1429 1052 1433.55 1053.15 1458 1138 1453.45Z" stroke="#FFFFFF" stroke-width="5.72917" stroke-miterlimit="8" fill="none" fill-rule="evenodd"/><path d="M1148 1499.3 1143.95 1475 1060 1490.26 1064.05 1514 1148 1499.3Z" stroke="#FFFFFF" stroke-width="5.72917" stroke-miterlimit="8" fill="none" fill-rule="evenodd"/><path d="M1166 1550 1160.32 1527 1078 1550 1083.68 1573 1166 1550Z" stroke="#FFFFFF" stroke-width="5.72917" stroke-miterlimit="8" fill="none" fill-rule="evenodd"/><path d="M1189 1591.98 1180.4 1569 1107 1601.17 1117.32 1623 1189 1591.98Z" stroke="#FFFFFF" stroke-width="5.72917" stroke-miterlimit="8" fill="none" fill-rule="evenodd"/><path d="M1209 1644.25 1198.71 1623 1129 1659.75 1138.71 1681 1209 1644.25Z" stroke="#FFFFFF" stroke-width="5.72917" stroke-miterlimit="8" fill="none" fill-rule="evenodd"/><path d="M1242 1683.04 1229.45 1663 1165 1710.53 1178.12 1730 1242 1683.04Z" stroke="#FFFFFF" stroke-width="5.72917" stroke-miterlimit="8" fill="none" fill-rule="evenodd"/><path d="M1275 1722.25 1260.77 1704 1201 1758.75 1216.37 1777 1275 1722.25Z" stroke="#FFFFFF" stroke-width="5.72917" stroke-miterlimit="8" fill="none" fill-rule="evenodd"/><path d="M1311 1758.73 1295.48 1742 1238 1798.54 1253.52 1817 1311 1758.73Z" stroke="#FFFFFF" stroke-width="5.72917" stroke-miterlimit="8" fill="none" fill-rule="evenodd"/><path d="M1347 1793.63 1330.84 1777 1276 1838.37 1292.16 1855 1347 1793.63Z" stroke="#FFFFFF" stroke-width="5.72917" stroke-miterlimit="8" fill="none" fill-rule="evenodd"/><path d="M1385 1825.69 1368 1809 1317 1873.46 1334 1889 1385 1825.69Z" stroke="#FFFFFF" stroke-width="5.72917" stroke-miterlimit="8" fill="none" fill-rule="evenodd"/><path d="M1423 1855.38 1404.43 1840 1358 1907.19 1376.57 1922 1423 1855.38Z" stroke="#FFFFFF" stroke-width="5.72917" stroke-miterlimit="8" fill="none" fill-rule="evenodd"/><path d="M1471 1873.69 1452.68 1860 1404 1940.45 1422.32 1953 1471 1873.69Z" stroke="#FFFFFF" stroke-width="5.72917" stroke-miterlimit="8" fill="none" fill-rule="evenodd"/><path d="M1508 1902.65 1487.95 1890 1445 1969.93 1465.05 1982 1508 1902.65Z" stroke="#FFFFFF" stroke-width="5.72917" stroke-miterlimit="8" fill="none" fill-rule="evenodd"/><path d="M1553 1925.57 1533 1913 1493 1998.71 1513 2009 1553 1925.57Z" stroke="#FFFFFF" stroke-width="5.72917" stroke-miterlimit="8" fill="none" fill-rule="evenodd"/><path d="M1597 1939.14 1575.97 1930 1543 2016.86 1564.6 2026 1597 1939.14Z" stroke="#FFFFFF" stroke-width="5.72917" stroke-miterlimit="8" fill="none" fill-rule="evenodd"/><path d="M1648 1954.17 1625.94 1945 1594 2033.83 1616.06 2043 1648 1954.17Z" stroke="#FFFFFF" stroke-width="5.72917" stroke-miterlimit="8" fill="none" fill-rule="evenodd"/><path d="M1695 1967.24 1673.79 1961 1648 2050.06 1669.21 2058 1695 1967.24Z" stroke="#FFFFFF" stroke-width="5.72917" stroke-miterlimit="8" fill="none" fill-rule="evenodd"/><path d="M1741 1972.71 1719.73 1967 1695 2068.71 1718 2075 1741 1972.71Z" stroke="#FFFFFF" stroke-width="5.72917" stroke-miterlimit="8" fill="none" fill-rule="evenodd"/><path d="M1786 1998.61 1763.07 1994 1743 2086.24 1765.93 2092 1786 1998.61Z" stroke="#FFFFFF" stroke-width="5.72917" stroke-miterlimit="8" fill="none" fill-rule="evenodd"/><path d="M1832 2013.58 1811.01 2009 1794 2102.42 1816.69 2107 1832 2013.58Z" stroke="#FFFFFF" stroke-width="5.72917" stroke-miterlimit="8" fill="none" fill-rule="evenodd"/><path d="M1878 2027.84 1855.42 2025 1843 2113.16 1865.58 2116 1878 2027.84Z" stroke="#FFFFFF" stroke-width="5.72917" stroke-miterlimit="8" fill="none" fill-rule="evenodd"/><path d="M1927 2031.89 1903.67 2029 1892 2123.11 1915.33 2126 1927 2031.89Z" stroke="#FFFFFF" stroke-width="5.72917" stroke-miterlimit="8" fill="none" fill-rule="evenodd"/><path d="M1973 2035.71 1949.79 2034 1943 2128.29 1965.64 2130 1973 2035.71Z" stroke="#FFFFFF" stroke-width="5.72917" stroke-miterlimit="8" fill="none" fill-rule="evenodd"/><path d="M2023 2038.71 1999.92 2037 1993 2131.86 2016.08 2133 2023 2038.71Z" stroke="#FFFFFF" stroke-width="5.72917" stroke-miterlimit="8" fill="none" fill-rule="evenodd"/><path d="M2071 2046.14 2047.89 2045 2045 2139.29 2068.11 2141 2071 2046.14Z" stroke="#FFFFFF" stroke-width="5.72917" stroke-miterlimit="8" fill="none" fill-rule="evenodd"/><path d="M2120 2046 2097.14 2046 2096 2141 2118.86 2141 2120 2046Z" stroke="#FFFFFF" stroke-width="5.72917" stroke-miterlimit="8" fill="none" fill-rule="evenodd"/><path d="M2145 2068 2146 2144" stroke="#FFFFFF" stroke-width="5.72917" stroke-miterlimit="8" fill="none" fill-rule="evenodd"/><path d="M1085.5 1354.5C1085.5 1557.82 1200.05 1747.37 1407.66 1889.54 1608.11 2025.59 1874.43 2100.5 2156.5 2100.5" stroke="#FF8B00" stroke-width="11.4583" stroke-miterlimit="8" fill="none" fill-rule="evenodd"/><path d="M1109.5 1387.5C1109.5 1374.25 1119.8 1363.5 1132.5 1363.5 1145.2 1363.5 1155.5 1374.25 1155.5 1387.5 1155.5 1400.75 1145.2 1411.5 1132.5 1411.5 1119.8 1411.5 1109.5 1400.75 1109.5 1387.5Z" stroke="#333333" stroke-width="2.86476" stroke-miterlimit="8" fill="#BA6EB4" fill-rule="evenodd"/><path d="M1118.5 1354.5C1121.39 1357.17 1125.72 1358.5 1131.5 1358.5 1135.83 1358.5 1140.17 1357.17 1144.5 1354.5" stroke="#333333" stroke-width="2.86476" stroke-linecap="round" stroke-linejoin="round" stroke-miterlimit="10" fill="#BA6EB4" fill-rule="evenodd"/><path d="M1118.5 1354.5C1121.39 1357.17 1125.72 1358.5 1131.5 1358.5 1135.83 1358.5 1140.17 1357.17 1144.5 1354.5" stroke="#333333" stroke-width="2.86476" stroke-linecap="round" stroke-linejoin="round" stroke-miterlimit="10" fill="none" fill-rule="evenodd"/><path d="M1116.5 1439.5C1116.5 1426.25 1126.57 1415.5 1139 1415.5 1151.43 1415.5 1161.5 1426.25 1161.5 1439.5 1161.5 1452.75 1151.43 1463.5 1139 1463.5 1126.57 1463.5 1116.5 1452.75 1116.5 1439.5Z" stroke="#333333" stroke-width="2.86476" stroke-miterlimit="8" fill="#BA6EB4" fill-rule="evenodd"/><path d="M1128.5 1489C1128.5 1475.47 1138.35 1464.5 1150.5 1464.5 1162.65 1464.5 1172.5 1475.47 1172.5 1489 1172.5 1502.53 1162.65 1513.5 1150.5 1513.5 1138.35 1513.5 1128.5 1502.53 1128.5 1489Z" stroke="#333333" stroke-width="2.86476" stroke-miterlimit="8" fill="#BA6EB4" fill-rule="evenodd"/><path d="M1144.5 1538C1144.5 1524.47 1154.57 1513.5 1167 1513.5 1179.43 1513.5 1189.5 1524.47 1189.5 1538 1189.5 1551.53 1179.43 1562.5 1167 1562.5 1154.57 1562.5 1144.5 1551.53 1144.5 1538Z" stroke="#333333" stroke-width="2.86476" stroke-miterlimit="8" fill="#BA6EB4" fill-rule="evenodd"/><path d="M1165.5 1584.5C1165.5 1571.25 1175.8 1560.5 1188.5 1560.5 1201.2 1560.5 1211.5 1571.25 1211.5 1584.5 1211.5 1597.75 1201.2 1608.5 1188.5 1608.5 1175.8 1608.5 1165.5 1597.75 1165.5 1584.5Z" stroke="#333333" stroke-width="2.86476" stroke-miterlimit="8" fill="#BA6EB4" fill-rule="evenodd"/><path d="M1191.5 1628C1191.5 1614.47 1201.35 1603.5 1213.5 1603.5 1225.65 1603.5 1235.5 1614.47 1235.5 1628 1235.5 1641.53 1225.65 1652.5 1213.5 1652.5 1201.35 1652.5 1191.5 1641.53 1191.5 1628Z" stroke="#333333" stroke-width="2.86476" stroke-miterlimit="8" fill="#BA6EB4" fill-rule="evenodd"/><path d="M1219.5 1670C1219.5 1657.02 1229.57 1646.5 1242 1646.5 1254.43 1646.5 1264.5 1657.02 1264.5 1670 1264.5 1682.98 1254.43 1693.5 1242 1693.5 1229.57 1693.5 1219.5 1682.98 1219.5 1670Z" stroke="#333333" stroke-width="2.86476" stroke-miterlimit="8" fill="#BA6EB4" fill-rule="evenodd"/><path d="M1251.5 1709C1251.5 1695.47 1261.35 1684.5 1273.5 1684.5 1285.65 1684.5 1295.5 1695.47 1295.5 1709 1295.5 1722.53 1285.65 1733.5 1273.5 1733.5 1261.35 1733.5 1251.5 1722.53 1251.5 1709Z" stroke="#333333" stroke-width="2.86476" stroke-miterlimit="8" fill="#BA6EB4" fill-rule="evenodd"/><path d="M1285.5 1745.5C1285.5 1731.69 1295.57 1720.5 1308 1720.5 1320.43 1720.5 1330.5 1731.69 1330.5 1745.5 1330.5 1759.31 1320.43 1770.5 1308 1770.5 1295.57 1770.5 1285.5 1759.31 1285.5 1745.5Z" stroke="#333333" stroke-width="2.86476" stroke-miterlimit="8" fill="#BA6EB4" fill-rule="evenodd"/><path d="M1321.5 1780C1321.5 1767.02 1331.35 1756.5 1343.5 1756.5 1355.65 1756.5 1365.5 1767.02 1365.5 1780 1365.5 1792.98 1355.65 1803.5 1343.5 1803.5 1331.35 1803.5 1321.5 1792.98 1321.5 1780Z" stroke="#333333" stroke-width="2.86476" stroke-miterlimit="8" fill="#BA6EB4" fill-rule="evenodd"/><path d="M1358.5 1811C1358.5 1797.47 1368.8 1786.5 1381.5 1786.5 1394.2 1786.5 1404.5 1797.47 1404.5 1811 1404.5 1824.53 1394.2 1835.5 1381.5 1835.5 1368.8 1835.5 1358.5 1824.53 1358.5 1811Z" stroke="#333333" stroke-width="2.86476" stroke-miterlimit="8" fill="#BA6EB4" fill-rule="evenodd"/><path d="M1398.5 1840.5C1398.5 1827.25 1408.8 1816.5 1421.5 1816.5 1434.2 1816.5 1444.5 1827.25 1444.5 1840.5 1444.5 1853.75 1434.2 1864.5 1421.5 1864.5 1408.8 1864.5 1398.5 1853.75 1398.5 1840.5Z" stroke="#333333" stroke-width="2.86476" stroke-miterlimit="8" fill="#BA6EB4" fill-rule="evenodd"/><path d="M1440.5 1868C1440.5 1854.47 1450.35 1843.5 1462.5 1843.5 1474.65 1843.5 1484.5 1854.47 1484.5 1868 1484.5 1881.53 1474.65 1892.5 1462.5 1892.5 1450.35 1892.5 1440.5 1881.53 1440.5 1868Z" stroke="#333333" stroke-width="2.86476" stroke-miterlimit="8" fill="#BA6EB4" fill-rule="evenodd"/><path d="M1482.5 1892C1482.5 1878.47 1492.57 1867.5 1505 1867.5 1517.43 1867.5 1527.5 1878.47 1527.5 1892 1527.5 1905.53 1517.43 1916.5 1505 1916.5 1492.57 1916.5 1482.5 1905.53 1482.5 1892Z" stroke="#333333" stroke-width="2.86476" stroke-miterlimit="8" fill="#BA6EB4" fill-rule="evenodd"/><path d="M1525.5 1915C1525.5 1901.47 1535.57 1890.5 1548 1890.5 1560.43 1890.5 1570.5 1901.47 1570.5 1915 1570.5 1928.53 1560.43 1939.5 1548 1939.5 1535.57 1939.5 1525.5 1928.53 1525.5 1915Z" stroke="#333333" stroke-width="2.86476" stroke-miterlimit="8" fill="#BA6EB4" fill-rule="evenodd"/><path d="M1569.5 1937C1569.5 1923.47 1579.57 1912.5 1592 1912.5 1604.43 1912.5 1614.5 1923.47 1614.5 1937 1614.5 1950.53 1604.43 1961.5 1592 1961.5 1579.57 1961.5 1569.5 1950.53 1569.5 1937Z" stroke="#333333" stroke-width="2.86476" stroke-miterlimit="8" fill="#BA6EB4" fill-rule="evenodd"/><path d="M1614.5 1955C1614.5 1941.47 1624.57 1930.5 1637 1930.5 1649.43 1930.5 1659.5 1941.47 1659.5 1955 1659.5 1968.53 1649.43 1979.5 1637 1979.5 1624.57 1979.5 1614.5 1968.53 1614.5 1955Z" stroke="#333333" stroke-width="2.86476" stroke-miterlimit="8" fill="#BA6EB4" fill-rule="evenodd"/><path d="M1659.5 1972C1659.5 1959.02 1669.8 1948.5 1682.5 1948.5 1695.2 1948.5 1705.5 1959.02 1705.5 1972 1705.5 1984.98 1695.2 1995.5 1682.5 1995.5 1669.8 1995.5 1659.5 1984.98 1659.5 1972Z" stroke="#333333" stroke-width="2.86476" stroke-miterlimit="8" fill="#BA6EB4" fill-rule="evenodd"/><path d="M1706.5 1988.5C1706.5 1974.69 1716.57 1963.5 1729 1963.5 1741.43 1963.5 1751.5 1974.69 1751.5 1988.5 1751.5 2002.31 1741.43 2013.5 1729 2013.5 1716.57 2013.5 1706.5 2002.31 1706.5 1988.5Z" stroke="#333333" stroke-width="2.86476" stroke-miterlimit="8" fill="#BA6EB4" fill-rule="evenodd"/><path d="M1752.5 2001.5C1752.5 1988.25 1762.8 1977.5 1775.5 1977.5 1788.2 1977.5 1798.5 1988.25 1798.5 2001.5 1798.5 2014.75 1788.2 2025.5 1775.5 2025.5 1762.8 2025.5 1752.5 2014.75 1752.5 2001.5Z" stroke="#333333" stroke-width="2.86476" stroke-miterlimit="8" fill="#BA6EB4" fill-rule="evenodd"/><path d="M1800.5 2013C1800.5 1999.47 1810.35 1988.5 1822.5 1988.5 1834.65 1988.5 1844.5 1999.47 1844.5 2013 1844.5 2026.53 1834.65 2037.5 1822.5 2037.5 1810.35 2037.5 1800.5 2026.53 1800.5 2013Z" stroke="#333333" stroke-width="2.86476" stroke-miterlimit="8" fill="#BA6EB4" fill-rule="evenodd"/><path d="M1847.5 2024C1847.5 2010.47 1857.35 1999.5 1869.5 1999.5 1881.65 1999.5 1891.5 2010.47 1891.5 2024 1891.5 2037.53 1881.65 2048.5 1869.5 2048.5 1857.35 2048.5 1847.5 2037.53 1847.5 2024Z" stroke="#333333" stroke-width="2.86476" stroke-miterlimit="8" fill="#BA6EB4" fill-rule="evenodd"/><path d="M1894.5 2031C1894.5 2017.47 1904.35 2006.5 1916.5 2006.5 1928.65 2006.5 1938.5 2017.47 1938.5 2031 1938.5 2044.53 1928.65 2055.5 1916.5 2055.5 1904.35 2055.5 1894.5 2044.53 1894.5 2031Z" stroke="#333333" stroke-width="2.86476" stroke-miterlimit="8" fill="#BA6EB4" fill-rule="evenodd"/><path d="M1941.5 2039C1941.5 2025.47 1951.57 2014.5 1964 2014.5 1976.43 2014.5 1986.5 2025.47 1986.5 2039 1986.5 2052.53 1976.43 2063.5 1964 2063.5 1951.57 2063.5 1941.5 2052.53 1941.5 2039Z" stroke="#333333" stroke-width="2.86476" stroke-miterlimit="8" fill="#BA6EB4" fill-rule="evenodd"/><path d="M1989.5 2044.5C1989.5 2031.25 1999.57 2020.5 2012 2020.5 2024.43 2020.5 2034.5 2031.25 2034.5 2044.5 2034.5 2057.75 2024.43 2068.5 2012 2068.5 1999.57 2068.5 1989.5 2057.75 1989.5 2044.5Z" stroke="#333333" stroke-width="2.86476" stroke-miterlimit="8" fill="#BA6EB4" fill-rule="evenodd"/><path d="M2037.5 2048C2037.5 2034.47 2047.57 2023.5 2060 2023.5 2072.43 2023.5 2082.5 2034.47 2082.5 2048 2082.5 2061.53 2072.43 2072.5 2060 2072.5 2047.57 2072.5 2037.5 2061.53 2037.5 2048Z" stroke="#333333" stroke-width="2.86476" stroke-miterlimit="8" fill="#BA6EB4" fill-rule="evenodd"/><path d="M2086.5 2050C2086.5 2037.02 2096.8 2026.5 2109.5 2026.5 2122.2 2026.5 2132.5 2037.02 2132.5 2050 2132.5 2062.98 2122.2 2073.5 2109.5 2073.5 2096.8 2073.5 2086.5 2062.98 2086.5 2050Z" stroke="#333333" stroke-width="2.86476" stroke-miterlimit="8" fill="#BA6EB4" fill-rule="evenodd"/><path d="M2156.5 2026.5C2156.5 2026.5 2156.5 2026.5 2156.5 2026.5 2145.5 2026.5 2134.5 2038.75 2134.5 2051 2134.5 2064.78 2145.5 2075.5 2156.5 2075.5 2156.5 2075.5 2156.5 2075.5 2156.5 2075.5" stroke="#333333" stroke-width="2.86476" stroke-linecap="round" stroke-linejoin="round" stroke-miterlimit="10" fill="#BA6EB4" fill-rule="evenodd"/><path d="M2156.5 2026.5C2156.5 2026.5 2156.5 2026.5 2156.5 2026.5 2145.5 2026.5 2134.5 2038.75 2134.5 2051 2134.5 2064.78 2145.5 2075.5 2156.5 2075.5 2156.5 2075.5 2156.5 2075.5 2156.5 2075.5" stroke="#333333" stroke-width="2.86476" stroke-linecap="round" stroke-linejoin="round" stroke-miterlimit="10" fill="none" fill-rule="evenodd"/><path d="M1023.5 1450C1023.5 1435.92 1034.02 1424.5 1047 1424.5 1059.98 1424.5 1070.5 1435.92 1070.5 1450 1070.5 1464.08 1059.98 1475.5 1047 1475.5 1034.02 1475.5 1023.5 1464.08 1023.5 1450Z" stroke="#333333" stroke-width="2.86476" stroke-miterlimit="8" fill="#BA6EB4" fill-rule="evenodd"/><path d="M1018.5 1393.5C1018.5 1379.69 1028.8 1368.5 1041.5 1368.5 1054.2 1368.5 1064.5 1379.69 1064.5 1393.5 1064.5 1407.31 1054.2 1418.5 1041.5 1418.5 1028.8 1418.5 1018.5 1407.31 1018.5 1393.5Z" stroke="#333333" stroke-width="2.86476" stroke-miterlimit="8" fill="#BA6EB4" fill-rule="evenodd"/><path d="M1023.5 1354.5C1027.79 1359 1032.07 1360.5 1039.21 1360.5 1044.93 1360.5 1049.21 1359 1053.5 1354.5" stroke="#333333" stroke-width="2.86476" stroke-linecap="round" stroke-linejoin="round" stroke-miterlimit="10" fill="#BA6EB4" fill-rule="evenodd"/><path d="M1023.5 1354.5C1027.79 1359 1032.07 1360.5 1039.21 1360.5 1044.93 1360.5 1049.21 1359 1053.5 1354.5" stroke="#333333" stroke-width="2.86476" stroke-linecap="round" stroke-linejoin="round" stroke-miterlimit="10" fill="none" fill-rule="evenodd"/><path d="M1036.5 1506.5C1036.5 1492.69 1047.02 1481.5 1060 1481.5 1072.98 1481.5 1083.5 1492.69 1083.5 1506.5 1083.5 1520.31 1072.98 1531.5 1060 1531.5 1047.02 1531.5 1036.5 1520.31 1036.5 1506.5Z" stroke="#333333" stroke-width="2.86476" stroke-miterlimit="8" fill="#BA6EB4" fill-rule="evenodd"/><path d="M1053.5 1564.5C1053.5 1550.69 1064.25 1539.5 1077.5 1539.5 1090.75 1539.5 1101.5 1550.69 1101.5 1564.5 1101.5 1578.31 1090.75 1589.5 1077.5 1589.5 1064.25 1589.5 1053.5 1578.31 1053.5 1564.5Z" stroke="#333333" stroke-width="2.86476" stroke-miterlimit="8" fill="#BA6EB4" fill-rule="evenodd"/><path d="M1078.5 1618C1078.5 1603.92 1089.02 1592.5 1102 1592.5 1114.98 1592.5 1125.5 1603.92 1125.5 1618 1125.5 1632.08 1114.98 1643.5 1102 1643.5 1089.02 1643.5 1078.5 1632.08 1078.5 1618Z" stroke="#333333" stroke-width="2.86476" stroke-miterlimit="8" fill="#BA6EB4" fill-rule="evenodd"/><path d="M1107.5 1674.5C1107.5 1660.69 1118.25 1649.5 1131.5 1649.5 1144.75 1649.5 1155.5 1660.69 1155.5 1674.5 1155.5 1688.31 1144.75 1699.5 1131.5 1699.5 1118.25 1699.5 1107.5 1688.31 1107.5 1674.5Z" stroke="#333333" stroke-width="2.86476" stroke-miterlimit="8" fill="#BA6EB4" fill-rule="evenodd"/><path d="M1144.5 1725C1144.5 1710.92 1155.02 1699.5 1168 1699.5 1180.98 1699.5 1191.5 1710.92 1191.5 1725 1191.5 1739.08 1180.98 1750.5 1168 1750.5 1155.02 1750.5 1144.5 1739.08 1144.5 1725Z" stroke="#333333" stroke-width="2.86476" stroke-miterlimit="8" fill="#BA6EB4" fill-rule="evenodd"/><path d="M1182.5 1775.5C1182.5 1761.69 1193.02 1750.5 1206 1750.5 1218.98 1750.5 1229.5 1761.69 1229.5 1775.5 1229.5 1789.31 1218.98 1800.5 1206 1800.5 1193.02 1800.5 1182.5 1789.31 1182.5 1775.5Z" stroke="#333333" stroke-width="2.86476" stroke-miterlimit="8" fill="#BA6EB4" fill-rule="evenodd"/><path d="M1221.5 1816.5C1221.5 1802.69 1232.02 1791.5 1245 1791.5 1257.98 1791.5 1268.5 1802.69 1268.5 1816.5 1268.5 1830.31 1257.98 1841.5 1245 1841.5 1232.02 1841.5 1221.5 1830.31 1221.5 1816.5Z" stroke="#333333" stroke-width="2.86476" stroke-miterlimit="8" fill="#BA6EB4" fill-rule="evenodd"/><path d="M1258.5 1851.5C1258.5 1837.69 1269.02 1826.5 1282 1826.5 1294.98 1826.5 1305.5 1837.69 1305.5 1851.5 1305.5 1865.31 1294.98 1876.5 1282 1876.5 1269.02 1876.5 1258.5 1865.31 1258.5 1851.5Z" stroke="#333333" stroke-width="2.86476" stroke-miterlimit="8" fill="#BA6EB4" fill-rule="evenodd"/><path d="M1299.5 1888.5C1299.5 1874.69 1310.25 1863.5 1323.5 1863.5 1336.75 1863.5 1347.5 1874.69 1347.5 1888.5 1347.5 1902.31 1336.75 1913.5 1323.5 1913.5 1310.25 1913.5 1299.5 1902.31 1299.5 1888.5Z" stroke="#333333" stroke-width="2.86476" stroke-miterlimit="8" fill="#BA6EB4" fill-rule="evenodd"/><path d="M1342.5 1917.5C1342.5 1903.69 1353.25 1892.5 1366.5 1892.5 1379.75 1892.5 1390.5 1903.69 1390.5 1917.5 1390.5 1931.31 1379.75 1942.5 1366.5 1942.5 1353.25 1942.5 1342.5 1931.31 1342.5 1917.5Z" stroke="#333333" stroke-width="2.86476" stroke-miterlimit="8" fill="#BA6EB4" fill-rule="evenodd"/><path d="M1388.5 1948C1388.5 1933.92 1399.25 1922.5 1412.5 1922.5 1425.75 1922.5 1436.5 1933.92 1436.5 1948 1436.5 1962.08 1425.75 1973.5 1412.5 1973.5 1399.25 1973.5 1388.5 1962.08 1388.5 1948Z" stroke="#333333" stroke-width="2.86476" stroke-miterlimit="8" fill="#BA6EB4" fill-rule="evenodd"/><path d="M1431.5 1977C1431.5 1962.92 1442.25 1951.5 1455.5 1951.5 1468.75 1951.5 1479.5 1962.92 1479.5 1977 1479.5 1991.08 1468.75 2002.5 1455.5 2002.5 1442.25 2002.5 1431.5 1991.08 1431.5 1977Z" stroke="#333333" stroke-width="2.86476" stroke-miterlimit="8" fill="#BA6EB4" fill-rule="evenodd"/><path d="M1480.5 2000C1480.5 1985.92 1491.02 1974.5 1504 1974.5 1516.98 1974.5 1527.5 1985.92 1527.5 2000 1527.5 2014.08 1516.98 2025.5 1504 2025.5 1491.02 2025.5 1480.5 2014.08 1480.5 2000Z" stroke="#333333" stroke-width="2.86476" stroke-miterlimit="8" fill="#BA6EB4" fill-rule="evenodd"/><path d="M1530.5 2025.5C1530.5 2011.69 1541.02 2000.5 1554 2000.5 1566.98 2000.5 1577.5 2011.69 1577.5 2025.5 1577.5 2039.31 1566.98 2050.5 1554 2050.5 1541.02 2050.5 1530.5 2039.31 1530.5 2025.5Z" stroke="#333333" stroke-width="2.86476" stroke-miterlimit="8" fill="#BA6EB4" fill-rule="evenodd"/><path d="M1580.5 2047.5C1580.5 2033.69 1591.25 2022.5 1604.5 2022.5 1617.75 2022.5 1628.5 2033.69 1628.5 2047.5 1628.5 2061.31 1617.75 2072.5 1604.5 2072.5 1591.25 2072.5 1580.5 2061.31 1580.5 2047.5Z" stroke="#333333" stroke-width="2.86476" stroke-miterlimit="8" fill="#BA6EB4" fill-rule="evenodd"/><path d="M1631.5 2066C1631.5 2051.92 1642.02 2040.5 1655 2040.5 1667.98 2040.5 1678.5 2051.92 1678.5 2066 1678.5 2080.08 1667.98 2091.5 1655 2091.5 1642.02 2091.5 1631.5 2080.08 1631.5 2066Z" stroke="#333333" stroke-width="2.86476" stroke-miterlimit="8" fill="#BA6EB4" fill-rule="evenodd"/><path d="M1680.5 2082.5C1680.5 2068.69 1691.25 2057.5 1704.5 2057.5 1717.75 2057.5 1728.5 2068.69 1728.5 2082.5 1728.5 2096.31 1717.75 2107.5 1704.5 2107.5 1691.25 2107.5 1680.5 2096.31 1680.5 2082.5Z" stroke="#333333" stroke-width="2.86476" stroke-miterlimit="8" fill="#BA6EB4" fill-rule="evenodd"/><path d="M1731.5 2096.5C1731.5 2082.69 1742.02 2071.5 1755 2071.5 1767.98 2071.5 1778.5 2082.69 1778.5 2096.5 1778.5 2110.31 1767.98 2121.5 1755 2121.5 1742.02 2121.5 1731.5 2110.31 1731.5 2096.5Z" stroke="#333333" stroke-width="2.86476" stroke-miterlimit="8" fill="#BA6EB4" fill-rule="evenodd"/><path d="M1779.5 2108.5C1779.5 2094.69 1790.02 2083.5 1803 2083.5 1815.98 2083.5 1826.5 2094.69 1826.5 2108.5 1826.5 2122.31 1815.98 2133.5 1803 2133.5 1790.02 2133.5 1779.5 2122.31 1779.5 2108.5Z" stroke="#333333" stroke-width="2.86476" stroke-miterlimit="8" fill="#BA6EB4" fill-rule="evenodd"/><path d="M1828.5 2119C1828.5 2104.92 1839.02 2093.5 1852 2093.5 1864.98 2093.5 1875.5 2104.92 1875.5 2119 1875.5 2133.08 1864.98 2144.5 1852 2144.5 1839.02 2144.5 1828.5 2133.08 1828.5 2119Z" stroke="#333333" stroke-width="2.86476" stroke-miterlimit="8" fill="#BA6EB4" fill-rule="evenodd"/><path d="M1880.5 2128.5C1880.5 2114.69 1891.02 2103.5 1904 2103.5 1916.98 2103.5 1927.5 2114.69 1927.5 2128.5 1927.5 2142.31 1916.98 2153.5 1904 2153.5 1891.02 2153.5 1880.5 2142.31 1880.5 2128.5Z" stroke="#333333" stroke-width="2.86476" stroke-miterlimit="8" fill="#BA6EB4" fill-rule="evenodd"/><path d="M1928.5 2134.5C1928.5 2120.69 1939.25 2109.5 1952.5 2109.5 1965.75 2109.5 1976.5 2120.69 1976.5 2134.5 1976.5 2148.31 1965.75 2159.5 1952.5 2159.5 1939.25 2159.5 1928.5 2148.31 1928.5 2134.5Z" stroke="#333333" stroke-width="2.86476" stroke-miterlimit="8" fill="#BA6EB4" fill-rule="evenodd"/><path d="M1980.5 2140.5C1980.5 2126.69 1991.25 2115.5 2004.5 2115.5 2017.75 2115.5 2028.5 2126.69 2028.5 2140.5 2028.5 2154.31 2017.75 2165.5 2004.5 2165.5 1991.25 2165.5 1980.5 2154.31 1980.5 2140.5Z" stroke="#333333" stroke-width="2.86476" stroke-miterlimit="8" fill="#BA6EB4" fill-rule="evenodd"/><path d="M2033.5 2146.5C2033.5 2132.69 2044.02 2121.5 2057 2121.5 2069.98 2121.5 2080.5 2132.69 2080.5 2146.5 2080.5 2160.31 2069.98 2171.5 2057 2171.5 2044.02 2171.5 2033.5 2160.31 2033.5 2146.5Z" stroke="#333333" stroke-width="2.86476" stroke-miterlimit="8" fill="#BA6EB4" fill-rule="evenodd"/><path d="M2085.5 2148.5C2085.5 2134.69 2096.02 2123.5 2109 2123.5 2121.98 2123.5 2132.5 2134.69 2132.5 2148.5 2132.5 2162.31 2121.98 2173.5 2109 2173.5 2096.02 2173.5 2085.5 2162.31 2085.5 2148.5Z" stroke="#333333" stroke-width="2.86476" stroke-miterlimit="8" fill="#BA6EB4" fill-rule="evenodd"/><path d="M2156.5 2124.5C2145.07 2126.03 2136.5 2136.75 2136.5 2149 2136.5 2161.25 2145.07 2171.97 2156.5 2173.5" stroke="#333333" stroke-width="2.86476" stroke-linecap="round" stroke-linejoin="round" stroke-miterlimit="10" fill="#BA6EB4" fill-rule="evenodd"/><path d="M2156.5 2124.5C2145.07 2126.03 2136.5 2136.75 2136.5 2149 2136.5 2161.25 2145.07 2171.97 2156.5 2173.5" stroke="#333333" stroke-width="2.86476" stroke-linecap="round" stroke-linejoin="round" stroke-miterlimit="10" fill="none" fill-rule="evenodd"/><path d="M2100 2144C2100 2139.03 2104.03 2135 2109 2135 2113.97 2135 2118 2139.03 2118 2144 2118 2148.97 2113.97 2153 2109 2153 2104.03 2153 2100 2148.97 2100 2144Z" fill="#FFFFFF" fill-rule="evenodd"/><path d="M2050 2144C2050 2139.03 2054.03 2135 2059 2135 2063.97 2135 2068 2139.03 2068 2144 2068 2148.97 2063.97 2153 2059 2153 2054.03 2153 2050 2148.97 2050 2144Z" fill="#FFFFFF" fill-rule="evenodd"/><path d="M1997 2137.5C1997 2132.25 2000.81 2128 2005.5 2128 2010.19 2128 2014 2132.25 2014 2137.5 2014 2142.75 2010.19 2147 2005.5 2147 2000.81 2147 1997 2142.75 1997 2137.5Z" fill="#FFFFFF" fill-rule="evenodd"/><path d="M1944 2130C1944 2125.03 1948.03 2121 1953 2121 1957.97 2121 1962 2125.03 1962 2130 1962 2134.97 1957.97 2139 1953 2139 1948.03 2139 1944 2134.97 1944 2130Z" fill="#FFFFFF" fill-rule="evenodd"/><path d="M1892 2122.5C1892 2117.25 1896.03 2113 1901 2113 1905.97 2113 1910 2117.25 1910 2122.5 1910 2127.75 1905.97 2132 1901 2132 1896.03 2132 1892 2127.75 1892 2122.5Z" fill="#FFFFFF" fill-rule="evenodd"/><path d="M1843 2113.5C1843 2108.25 1846.81 2104 1851.5 2104 1856.19 2104 1860 2108.25 1860 2113.5 1860 2118.75 1856.19 2123 1851.5 2123 1846.81 2123 1843 2118.75 1843 2113.5Z" fill="#FFFFFF" fill-rule="evenodd"/><path d="M1795 2101C1795 2096.03 1798.81 2092 1803.5 2092 1808.19 2092 1812 2096.03 1812 2101 1812 2105.97 1808.19 2110 1803.5 2110 1798.81 2110 1795 2105.97 1795 2101Z" fill="#FFFFFF" fill-rule="evenodd"/><path d="M1745 2090.5C1745 2085.25 1748.81 2081 1753.5 2081 1758.19 2081 1762 2085.25 1762 2090.5 1762 2095.75 1758.19 2100 1753.5 2100 1748.81 2100 1745 2095.75 1745 2090.5Z" fill="#FFFFFF" fill-rule="evenodd"/><path d="M1698 2077C1698 2072.03 1701.81 2068 1706.5 2068 1711.19 2068 1715 2072.03 1715 2077 1715 2081.97 1711.19 2086 1706.5 2086 1701.81 2086 1698 2081.97 1698 2077Z" fill="#FFFFFF" fill-rule="evenodd"/><path d="M1642 2058.5C1642 2053.25 1645.81 2049 1650.5 2049 1655.19 2049 1659 2053.25 1659 2058.5 1659 2063.75 1655.19 2068 1650.5 2068 1645.81 2068 1642 2063.75 1642 2058.5Z" fill="#FFFFFF" fill-rule="evenodd"/><path d="M1593 2040C1593 2035.03 1596.81 2031 1601.5 2031 1606.19 2031 1610 2035.03 1610 2040 1610 2044.97 1606.19 2049 1601.5 2049 1596.81 2049 1593 2044.97 1593 2040Z" fill="#FFFFFF" fill-rule="evenodd"/><path d="M1542 2018.5C1542 2013.25 1545.81 2009 1550.5 2009 1555.19 2009 1559 2013.25 1559 2018.5 1559 2023.75 1555.19 2028 1550.5 2028 1545.81 2028 1542 2023.75 1542 2018.5Z" fill="#FFFFFF" fill-rule="evenodd"/><path d="M1493 1994C1493 1989.03 1496.81 1985 1501.5 1985 1506.19 1985 1510 1989.03 1510 1994 1510 1998.97 1506.19 2003 1501.5 2003 1496.81 2003 1493 1998.97 1493 1994Z" fill="#FFFFFF" fill-rule="evenodd"/><path d="M1443 1974C1443 1969.03 1446.81 1965 1451.5 1965 1456.19 1965 1460 1969.03 1460 1974 1460 1978.97 1456.19 1983 1451.5 1983 1446.81 1983 1443 1978.97 1443 1974Z" fill="#FFFFFF" fill-rule="evenodd"/><path d="M1394 1948.5C1394 1943.25 1397.81 1939 1402.5 1939 1407.19 1939 1411 1943.25 1411 1948.5 1411 1953.75 1407.19 1958 1402.5 1958 1397.81 1958 1394 1953.75 1394 1948.5Z" fill="#FFFFFF" fill-rule="evenodd"/><path d="M1347 1921C1347 1916.03 1350.81 1912 1355.5 1912 1360.19 1912 1364 1916.03 1364 1921 1364 1925.97 1360.19 1930 1355.5 1930 1350.81 1930 1347 1925.97 1347 1921Z" fill="#FFFFFF" fill-rule="evenodd"/><path d="M1305 1887C1305 1882.03 1308.81 1878 1313.5 1878 1318.19 1878 1322 1882.03 1322 1887 1322 1891.97 1318.19 1896 1313.5 1896 1308.81 1896 1305 1891.97 1305 1887Z" fill="#FFFFFF" fill-rule="evenodd"/><path d="M1267 1852C1267 1847.03 1270.81 1843 1275.5 1843 1280.19 1843 1284 1847.03 1284 1852 1284 1856.97 1280.19 1861 1275.5 1861 1270.81 1861 1267 1856.97 1267 1852Z" fill="#FFFFFF" fill-rule="evenodd"/><path d="M1227 1814C1227 1809.03 1230.81 1805 1235.5 1805 1240.19 1805 1244 1809.03 1244 1814 1244 1818.97 1240.19 1823 1235.5 1823 1230.81 1823 1227 1818.97 1227 1814Z" fill="#FFFFFF" fill-rule="evenodd"/><path d="M1445 1864C1445 1859.03 1449.03 1855 1454 1855 1458.97 1855 1463 1859.03 1463 1864 1463 1868.97 1458.97 1873 1454 1873 1449.03 1873 1445 1868.97 1445 1864Z" fill="#FFFFFF" fill-rule="evenodd"/><path d="M1404 1835C1404 1830.03 1407.81 1826 1412.5 1826 1417.19 1826 1421 1830.03 1421 1835 1421 1839.97 1417.19 1844 1412.5 1844 1407.81 1844 1404 1839.97 1404 1835Z" fill="#FFFFFF" fill-rule="evenodd"/><path d="M1367 1811C1367 1806.03 1370.81 1802 1375.5 1802 1380.19 1802 1384 1806.03 1384 1811 1384 1815.97 1380.19 1820 1375.5 1820 1370.81 1820 1367 1815.97 1367 1811Z" fill="#FFFFFF" fill-rule="evenodd"/><path d="M1325 1779C1325 1774.03 1328.81 1770 1333.5 1770 1338.19 1770 1342 1774.03 1342 1779 1342 1783.97 1338.19 1788 1333.5 1788 1328.81 1788 1325 1783.97 1325 1779Z" fill="#FFFFFF" fill-rule="evenodd"/><path d="M1291 1747C1291 1742.03 1294.81 1738 1299.5 1738 1304.19 1738 1308 1742.03 1308 1747 1308 1751.97 1304.19 1756 1299.5 1756 1294.81 1756 1291 1751.97 1291 1747Z" fill="#FFFFFF" fill-rule="evenodd"/><path d="M1256 1710C1256 1705.03 1260.03 1701 1265 1701 1269.97 1701 1274 1705.03 1274 1710 1274 1714.97 1269.97 1719 1265 1719 1260.03 1719 1256 1714.97 1256 1710Z" fill="#FFFFFF" fill-rule="evenodd"/><path d="M1189 1777C1189 1772.03 1193.03 1768 1198 1768 1202.97 1768 1207 1772.03 1207 1777 1207 1781.97 1202.97 1786 1198 1786 1193.03 1786 1189 1781.97 1189 1777Z" fill="#FFFFFF" fill-rule="evenodd"/><path d="M1149 1724C1149 1719.03 1152.81 1715 1157.5 1715 1162.19 1715 1166 1719.03 1166 1724 1166 1728.97 1162.19 1733 1157.5 1733 1152.81 1733 1149 1728.97 1149 1724Z" fill="#FFFFFF" fill-rule="evenodd"/><path d="M1228 1672C1228 1667.03 1231.81 1663 1236.5 1663 1241.19 1663 1245 1667.03 1245 1672 1245 1676.97 1241.19 1681 1236.5 1681 1231.81 1681 1228 1676.97 1228 1672Z" fill="#FFFFFF" fill-rule="evenodd"/><path d="M1199 1627.5C1199 1622.25 1202.81 1618 1207.5 1618 1212.19 1618 1216 1622.25 1216 1627.5 1216 1632.75 1212.19 1637 1207.5 1637 1202.81 1637 1199 1632.75 1199 1627.5Z" fill="#FFFFFF" fill-rule="evenodd"/><path d="M1115 1672C1115 1667.03 1118.81 1663 1123.5 1663 1128.19 1663 1132 1667.03 1132 1672 1132 1676.97 1128.19 1681 1123.5 1681 1118.81 1681 1115 1676.97 1115 1672Z" fill="#FFFFFF" fill-rule="evenodd"/><path d="M1085 1615C1085 1610.03 1088.81 1606 1093.5 1606 1098.19 1606 1102 1610.03 1102 1615 1102 1619.97 1098.19 1624 1093.5 1624 1088.81 1624 1085 1619.97 1085 1615Z" fill="#FFFFFF" fill-rule="evenodd"/><path d="M1172 1583C1172 1578.03 1175.81 1574 1180.5 1574 1185.19 1574 1189 1578.03 1189 1583 1189 1587.97 1185.19 1592 1180.5 1592 1175.81 1592 1172 1587.97 1172 1583Z" fill="#FFFFFF" fill-rule="evenodd"/><path d="M1150 1534C1150 1529.03 1154.03 1525 1159 1525 1163.97 1525 1168 1529.03 1168 1534 1168 1538.97 1163.97 1543 1159 1543 1154.03 1543 1150 1538.97 1150 1534Z" fill="#FFFFFF" fill-rule="evenodd"/><path d="M1133 1485.5C1133 1480.25 1136.81 1476 1141.5 1476 1146.19 1476 1150 1480.25 1150 1485.5 1150 1490.75 1146.19 1495 1141.5 1495 1136.81 1495 1133 1490.75 1133 1485.5Z" fill="#FFFFFF" fill-rule="evenodd"/><path d="M1122 1436C1122 1431.03 1125.81 1427 1130.5 1427 1135.19 1427 1139 1431.03 1139 1436 1139 1440.97 1135.19 1445 1130.5 1445 1125.81 1445 1122 1440.97 1122 1436Z" fill="#FFFFFF" fill-rule="evenodd"/><path d="M1116 1381C1116 1376.03 1119.81 1372 1124.5 1372 1129.19 1372 1133 1376.03 1133 1381 1133 1385.97 1129.19 1390 1124.5 1390 1119.81 1390 1116 1385.97 1116 1381Z" fill="#FFFFFF" fill-rule="evenodd"/><path d="M1024 1387.5C1024 1382.25 1028.03 1378 1033 1378 1037.97 1378 1042 1382.25 1042 1387.5 1042 1392.75 1037.97 1397 1033 1397 1028.03 1397 1024 1392.75 1024 1387.5Z" fill="#FFFFFF" fill-rule="evenodd"/><path d="M1032 1447C1032 1442.03 1035.81 1438 1040.5 1438 1045.19 1438 1049 1442.03 1049 1447 1049 1451.97 1045.19 1456 1040.5 1456 1035.81 1456 1032 1451.97 1032 1447Z" fill="#FFFFFF" fill-rule="evenodd"/><path d="M1043 1507C1043 1502.03 1046.81 1498 1051.5 1498 1056.19 1498 1060 1502.03 1060 1507 1060 1511.97 1056.19 1516 1051.5 1516 1046.81 1516 1043 1511.97 1043 1507Z" fill="#FFFFFF" fill-rule="evenodd"/><path d="M1060 1563.5C1060 1558.25 1064.03 1554 1069 1554 1073.97 1554 1078 1558.25 1078 1563.5 1078 1568.75 1073.97 1573 1069 1573 1064.03 1573 1060 1568.75 1060 1563.5Z" fill="#FFFFFF" fill-rule="evenodd"/><path d="M1490 1889C1490 1884.03 1493.81 1880 1498.5 1880 1503.19 1880 1507 1884.03 1507 1889 1507 1893.97 1503.19 1898 1498.5 1898 1493.81 1898 1490 1893.97 1490 1889Z" fill="#FFFFFF" fill-rule="evenodd"/><path d="M1539 1912C1539 1907.03 1542.81 1903 1547.5 1903 1552.19 1903 1556 1907.03 1556 1912 1556 1916.97 1552.19 1921 1547.5 1921 1542.81 1921 1539 1916.97 1539 1912Z" fill="#FFFFFF" fill-rule="evenodd"/><path d="M1582 1931C1582 1926.03 1585.81 1922 1590.5 1922 1595.19 1922 1599 1926.03 1599 1931 1599 1935.97 1595.19 1940 1590.5 1940 1585.81 1940 1582 1935.97 1582 1931Z" fill="#FFFFFF" fill-rule="evenodd"/><path d="M1625 1948.5C1625 1943.25 1628.81 1939 1633.5 1939 1638.19 1939 1642 1943.25 1642 1948.5 1642 1953.75 1638.19 1958 1633.5 1958 1628.81 1958 1625 1953.75 1625 1948.5Z" fill="#FFFFFF" fill-rule="evenodd"/><path d="M1672 1965C1672 1960.03 1675.81 1956 1680.5 1956 1685.19 1956 1689 1960.03 1689 1965 1689 1969.97 1685.19 1974 1680.5 1974 1675.81 1974 1672 1969.97 1672 1965Z" fill="#FFFFFF" fill-rule="evenodd"/><path d="M1718 1982C1718 1977.03 1721.81 1973 1726.5 1973 1731.19 1973 1735 1977.03 1735 1982 1735 1986.97 1731.19 1991 1726.5 1991 1721.81 1991 1718 1986.97 1718 1982Z" fill="#FFFFFF" fill-rule="evenodd"/><path d="M1766 1991C1766 1986.03 1769.81 1982 1774.5 1982 1779.19 1982 1783 1986.03 1783 1991 1783 1995.97 1779.19 2000 1774.5 2000 1769.81 2000 1766 1995.97 1766 1991Z" fill="#FFFFFF" fill-rule="evenodd"/><path d="M1811 2006.5C1811 2001.25 1814.81 1997 1819.5 1997 1824.19 1997 1828 2001.25 1828 2006.5 1828 2011.75 1824.19 2016 1819.5 2016 1814.81 2016 1811 2011.75 1811 2006.5Z" fill="#FFFFFF" fill-rule="evenodd"/><path d="M1857 2020C1857 2015.03 1860.81 2011 1865.5 2011 1870.19 2011 1874 2015.03 1874 2020 1874 2024.97 1870.19 2029 1865.5 2029 1860.81 2029 1857 2024.97 1857 2020Z" fill="#FFFFFF" fill-rule="evenodd"/><path d="M1906 2027.5C1906 2022.25 1909.81 2018 1914.5 2018 1919.19 2018 1923 2022.25 1923 2027.5 1923 2032.75 1919.19 2037 1914.5 2037 1909.81 2037 1906 2032.75 1906 2027.5Z" fill="#FFFFFF" fill-rule="evenodd"/><path d="M1950 2035.5C1950 2030.25 1953.81 2026 1958.5 2026 1963.19 2026 1967 2030.25 1967 2035.5 1967 2040.75 1963.19 2045 1958.5 2045 1953.81 2045 1950 2040.75 1950 2035.5Z" fill="#FFFFFF" fill-rule="evenodd"/><path d="M1997 2041C1997 2036.03 2000.81 2032 2005.5 2032 2010.19 2032 2014 2036.03 2014 2041 2014 2045.97 2010.19 2050 2005.5 2050 2000.81 2050 1997 2045.97 1997 2041Z" fill="#FFFFFF" fill-rule="evenodd"/><path d="M2048 2045C2048 2040.03 2051.81 2036 2056.5 2036 2061.19 2036 2065 2040.03 2065 2045 2065 2049.97 2061.19 2054 2056.5 2054 2051.81 2054 2048 2049.97 2048 2045Z" fill="#FFFFFF" fill-rule="evenodd"/><path d="M2095 2046C2095 2041.03 2098.81 2037 2103.5 2037 2108.19 2037 2112 2041.03 2112 2046 2112 2050.97 2108.19 2055 2103.5 2055 2098.81 2055 2095 2050.97 2095 2046Z" fill="#FFFFFF" fill-rule="evenodd"/><path d="M2139 2046C2139 2041.03 2142.81 2037 2147.5 2037 2152.19 2037 2156 2041.03 2156 2046 2156 2050.97 2152.19 2055 2147.5 2055 2142.81 2055 2139 2050.97 2139 2046Z" fill="#FFFFFF" fill-rule="evenodd"/></g></svg>