<svg width="1142" height="822" xmlns="http://www.w3.org/2000/svg" xmlns:xlink="http://www.w3.org/1999/xlink" xml:space="preserve" overflow="hidden"><g transform="translate(-2188 -1353)"><path d="M2189 1354C2189 2050 2189 2050 2189 2050 2754.47 2050 3214 1738.63 3214 1354 2189 1354 2189 1354 2189 1354" fill="#D9EE52" fill-rule="evenodd"/><path d="M2189 2050.28C2189 2148 2189 2148 2189 2148 2479.71 2148 2754.66 2070.13 2962.31 1929.65 3184.28 1778.48 3306 1575.4 3306 1354 3214.35 1354 3214.35 1354 3214.35 1354 3214.35 1738.78 2754.66 2050.28 2189 2050.28Z" fill="#ABD812" fill-rule="evenodd"/><path d="M2962.31 1929.65C2757.52 2068.6 2486.87 2146.47 2200.46 2148 2200.46 2148 2200.46 2148 2200.46 2148 2200.46 2140.37 2194.73 2134.26 2189 2132.73 2189 2114.41 2189 2114.41 2189 2114.41 2189 2114.41 2189 2114.41 2190.43 2114.41 2197.59 2115.93 2204.75 2120.52 2210.48 2126.62 2216.21 2118.99 2226.23 2112.88 2236.26 2112.88 2246.28 2112.88 2256.31 2117.46 2262.03 2126.62 2267.76 2117.46 2277.79 2111.35 2289.24 2111.35 2299.27 2111.35 2307.86 2115.93 2313.59 2123.57 2319.32 2112.88 2329.34 2105.25 2342.23 2105.25 2350.82 2105.25 2359.41 2109.83 2365.14 2115.93 2370.87 2105.25 2380.89 2099.14 2392.35 2099.14 2400.94 2099.14 2409.54 2102.19 2415.26 2108.3 2420.99 2099.14 2431.02 2093.03 2442.47 2093.03 2451.07 2093.03 2458.23 2096.08 2463.95 2102.19 2469.68 2091.5 2481.14 2083.87 2492.59 2083.87 2501.19 2083.87 2508.35 2086.92 2514.08 2091.5 2518.37 2080.82 2529.83 2073.18 2542.72 2073.18 2549.88 2073.18 2557.04 2076.23 2562.77 2080.82 2567.06 2068.6 2578.52 2060.97 2591.41 2060.97 2598.57 2060.97 2605.73 2064.02 2611.46 2068.6 2615.75 2056.38 2627.21 2047.22 2640.1 2047.22 2647.26 2047.22 2654.42 2050.28 2660.14 2054.86 2664.44 2041.12 2675.9 2030.43 2690.22 2030.43 2697.38 2030.43 2704.54 2033.48 2710.27 2038.06 2713.13 2022.79 2726.02 2012.1 2741.77 2012.1 2748.93 2012.1 2754.66 2013.63 2760.39 2018.21 2763.25 2001.42 2776.14 1990.73 2791.89 1990.73 2797.62 1990.73 2803.35 1992.25 2809.08 1995.31 2810.51 1978.51 2823.4 1964.77 2840.58 1964.77 2846.31 1964.77 2852.04 1966.3 2857.77 1970.88 2860.63 1954.08 2873.52 1941.87 2889.27 1941.87 2893.57 1941.87 2897.87 1941.87 2900.73 1943.39 2903.59 1926.6 2916.48 1912.85 2933.67 1912.85 2937.96 1912.85 2943.69 1914.38 2946.55 1917.43 2947.99 1897.58 2962.31 1882.32 2979.49 1882.32 2982.36 1882.32 2986.65 1883.84 2989.52 1883.84 2990.95 1867.05 3003.84 1853.3 3021.02 1853.3 3025.32 1853.3 3028.18 1853.3 3031.05 1854.83 3031.05 1853.3 3031.05 1851.78 3031.05 1851.78 3031.05 1831.93 3045.37 1816.66 3062.55 1816.66 3065.42 1816.66 3066.85 1818.18 3068.28 1818.18 3068.28 1816.66 3068.28 1816.66 3068.28 1816.66 3068.28 1796.81 3082.6 1781.54 3101.22 1781.54 3104.08 1781.54 3105.51 1781.54 3108.38 1781.54 3106.94 1780.01 3106.94 1776.96 3106.94 1773.9 3106.94 1755.58 3121.27 1740.31 3138.45 1740.31 3142.75 1740.31 3147.04 1740.31 3149.91 1741.84 3147.04 1737.26 3145.61 1731.15 3145.61 1725.04 3145.61 1706.72 3159.93 1689.92 3178.55 1689.92 3181.41 1689.92 3184.28 1691.45 3187.14 1691.45 3184.28 1686.87 3181.41 1680.76 3181.41 1673.13 3181.41 1654.8 3195.73 1639.53 3214.35 1639.53 3215.78 1639.53 3217.21 1639.53 3218.64 1639.53 3214.35 1633.43 3211.48 1625.79 3211.48 1618.16 3211.48 1599.83 3224.37 1584.57 3241.56 1583.04 3237.26 1578.46 3235.83 1570.82 3235.83 1563.19 3235.83 1546.39 3247.29 1532.65 3261.61 1529.6 3255.88 1523.49 3253.01 1515.85 3253.01 1506.69 3253.01 1491.42 3261.61 1477.68 3274.49 1473.1 3268.77 1466.99 3265.9 1459.36 3265.9 1448.67 3265.9 1436.45 3273.06 1424.24 3283.09 1418.13 3275.93 1412.02 3271.63 1402.86 3271.63 1392.17 3271.63 1379.96 3278.79 1369.27 3287.38 1363.16 3287.38 1361.63 3285.95 1361.63 3285.95 1361.63 3283.09 1360.11 3283.09 1357.05 3283.09 1354 3306 1354 3306 1354 3306 1354 3306 1575.4 3184.28 1778.48 2962.31 1929.65Z" fill="#54AF25" fill-rule="evenodd"/><path d="M2402.29 2013.75C2408.02 2004.59 2418.04 1996.95 2429.49 1996.95 2436.65 1996.95 2443.8 2000 2449.53 2006.11 2455.26 1995.42 2465.28 1989.31 2476.73 1989.31 2483.88 1989.31 2491.04 1992.37 2495.34 1996.95 2501.06 1986.26 2511.08 1978.62 2523.97 1978.62 2529.69 1978.62 2536.85 1981.68 2541.14 1986.26 2546.87 1975.57 2556.89 1967.93 2569.77 1967.93 2576.93 1967.93 2582.66 1969.46 2588.38 1974.04 2592.68 1961.82 2604.13 1954.19 2617.01 1954.19 2622.74 1954.19 2628.46 1955.72 2634.19 1960.3 2638.48 1946.55 2649.94 1938.92 2662.82 1938.92 2668.55 1938.92 2674.27 1940.44 2678.57 1943.5 2682.86 1929.75 2694.31 1920.59 2708.63 1920.59 2712.92 1920.59 2718.65 1923.64 2722.94 1925.17 2727.24 1912.95 2738.69 1902.26 2753 1902.26 2758.73 1902.26 2763.02 1903.79 2767.32 1905.32 2770.18 1891.57 2783.06 1880.88 2797.38 1880.88 2801.67 1880.88 2805.97 1882.41 2810.26 1883.94 2813.12 1870.19 2826.01 1857.97 2840.32 1857.97 2844.62 1857.97 2848.91 1859.5 2851.77 1861.03 2854.64 1845.76 2867.52 1833.54 2883.27 1833.54 2886.13 1833.54 2888.99 1833.54 2891.86 1835.07 2894.72 1819.8 2907.6 1806.05 2923.35 1806.05 2926.21 1806.05 2929.07 1807.58 2931.94 1807.58 2933.37 1790.78 2946.25 1777.03 2963.43 1777.03 2964.86 1777.03 2967.72 1777.03 2970.59 1778.56 2970.59 1760.23 2983.47 1746.49 3000.65 1746.49 3003.51 1746.49 3004.94 1746.49 3006.37 1746.49 3006.37 1746.49 3006.37 1744.96 3006.37 1744.96 3006.37 1726.64 3020.69 1711.36 3037.87 1711.36 3037.87 1711.36 3039.3 1711.36 3040.73 1711.36 3040.73 1711.36 3040.73 1709.84 3040.73 1708.31 3040.73 1689.98 3053.61 1674.71 3070.79 1674.71 3072.22 1674.71 3072.22 1674.71 3072.22 1674.71 3072.22 1673.18 3072.22 1671.66 3072.22 1670.13 3072.22 1651.8 3085.11 1636.53 3100.85 1636.53 3100.85 1633.48 3100.85 1630.42 3100.85 1627.37 3100.85 1610.57 3112.3 1596.82 3126.62 1595.3 3126.62 1590.72 3125.19 1587.66 3125.19 1584.61 3125.19 1567.81 3135.21 1555.59 3149.52 1551.01 3148.09 1547.95 3146.66 1543.37 3146.66 1537.26 3146.66 1523.52 3155.25 1509.77 3168.13 1506.72 3165.27 1500.61 3163.84 1494.5 3163.84 1488.39 3163.84 1474.65 3170.99 1463.96 3181.01 1457.85 3176.72 1453.27 3175.29 1445.63 3175.29 1438 3175.29 1425.78 3181.01 1416.62 3189.6 1410.51 3183.88 1404.4 3181.01 1395.23 3181.01 1387.6 3181.01 1375.38 3186.74 1366.22 3193.9 1360.11 3193.9 1358.58 3192.47 1357.05 3192.47 1354 3235.41 1354 3235.41 1354 3235.41 1354 3235.41 1357.05 3233.98 1360.11 3232.55 1361.64 3239.71 1367.74 3244 1376.91 3244 1387.6 3244 1399.82 3236.84 1408.98 3228.25 1415.09 3233.98 1421.2 3236.84 1430.36 3236.84 1438 3236.84 1451.74 3229.69 1462.43 3219.66 1468.54 3223.96 1474.65 3225.39 1480.76 3225.39 1488.39 3225.39 1503.67 3216.8 1515.88 3203.92 1520.46 3206.78 1525.05 3209.64 1531.15 3209.64 1537.26 3209.64 1554.06 3198.19 1566.28 3185.31 1569.33 3186.74 1573.92 3188.17 1578.5 3188.17 1584.61 3188.17 1601.41 3176.72 1615.15 3160.97 1616.68 3162.41 1619.73 3162.41 1624.31 3162.41 1627.37 3162.41 1645.69 3149.52 1659.44 3132.34 1660.97 3133.78 1664.02 3133.78 1667.08 3133.78 1670.13 3133.78 1688.46 3119.46 1702.2 3102.28 1702.2 3102.28 1702.2 3102.28 1702.2 3102.28 1702.2 3102.28 1705.26 3102.28 1706.78 3102.28 1708.31 3102.28 1726.64 3087.97 1741.91 3070.79 1741.91 3070.79 1741.91 3069.36 1741.91 3067.93 1741.91 3067.93 1743.44 3067.93 1743.44 3067.93 1744.96 3067.93 1763.29 3055.04 1778.56 3037.87 1778.56 3035 1778.56 3033.57 1778.56 3032.14 1777.03 3032.14 1778.56 3032.14 1778.56 3032.14 1778.56 3032.14 1796.89 3017.83 1812.16 3000.65 1812.16 2999.22 1812.16 2996.35 1812.16 2993.49 1812.16 2993.49 1828.96 2980.61 1844.23 2963.43 1844.23 2960.57 1844.23 2957.7 1844.23 2954.84 1842.7 2953.41 1859.5 2939.09 1873.25 2923.35 1873.25 2920.49 1873.25 2916.19 1873.25 2913.33 1871.72 2911.9 1886.99 2899.01 1900.74 2883.27 1900.74 2878.97 1900.74 2874.68 1899.21 2870.38 1897.68 2868.95 1912.95 2856.07 1925.17 2840.32 1925.17 2836.03 1925.17 2831.73 1923.64 2827.44 1922.12 2824.58 1937.39 2811.69 1948.08 2797.38 1948.08 2791.65 1948.08 2787.36 1946.55 2783.06 1945.03 2780.2 1958.77 2767.32 1969.46 2753 1969.46 2747.28 1969.46 2741.55 1967.93 2737.26 1964.88 2732.96 1978.62 2721.51 1987.79 2708.63 1987.79 2701.47 1987.79 2697.18 1986.26 2691.45 1983.21 2687.15 1995.42 2675.7 2004.59 2662.82 2004.59 2655.66 2004.59 2649.94 2003.06 2645.64 2000 2641.35 2012.22 2629.9 2021.39 2617.01 2021.39 2609.85 2021.39 2602.7 2018.33 2598.4 2013.75 2592.68 2025.97 2582.66 2033.6 2569.77 2033.6 2562.62 2033.6 2556.89 2032.08 2551.16 2027.49 2545.44 2038.18 2535.42 2045.82 2523.97 2045.82 2515.38 2045.82 2509.65 2042.77 2503.93 2038.18 2498.2 2048.87 2488.18 2056.51 2476.73 2056.51 2468.14 2056.51 2460.98 2053.46 2455.26 2047.35 2449.53 2058.04 2440.94 2064.15 2429.49 2064.15 2420.9 2064.15 2413.74 2061.09 2408.02 2054.98 2402.29 2065.67 2392.27 2071.78 2380.82 2071.78 2372.23 2071.78 2365.07 2067.2 2359.35 2062.62 2353.62 2071.78 2345.03 2076.36 2333.58 2076.36 2324.99 2076.36 2316.4 2073.31 2310.68 2067.2 2304.95 2074.84 2296.36 2080.95 2284.91 2080.95 2276.32 2080.95 2267.73 2076.36 2262.01 2068.73 2256.28 2077.89 2246.26 2082.47 2236.24 2082.47 2227.65 2082.47 2219.06 2077.89 2213.34 2071.78 2207.61 2079.42 2199.02 2084 2189 2084 2189 2084 2189 2084 2189 2084 2189 2065.67 2189 2065.67 2189 2065.67 2189 2065.67 2189 2065.67 2189 2065.67 2196.16 2065.67 2201.88 2059.56 2201.88 2050.4 2201.88 2042.77 2196.16 2035.13 2189 2035.13 2189 2035.13 2189 2035.13 2189 2035.13 2189 2016.8 2189 2016.8 2189 2016.8 2197.59 2016.8 2206.18 2021.39 2211.9 2029.02 2217.63 2021.39 2226.22 2016.8 2236.24 2016.8 2246.26 2016.8 2254.85 2021.39 2260.57 2027.49 2266.3 2019.86 2274.89 2013.75 2284.91 2013.75 2294.93 2013.75 2302.09 2018.33 2307.81 2024.44 2313.54 2016.8 2323.56 2010.69 2333.58 2010.69 2342.17 2010.69 2349.33 2013.75 2355.05 2019.86 2360.78 2010.69 2370.8 2004.59 2380.82 2004.59 2389.41 2004.59 2396.56 2007.64 2402.29 2013.75Z" fill="#54AF25" fill-rule="evenodd"/><path d="M2201.88 2050C2201.88 2042.37 2196.16 2034.74 2189 2034.74 2189 2034.74 2189 2034.74 2189 2034.74 2189 2016.42 2189 2016.42 2189 2016.42 2197.59 2016.42 2206.18 2021 2211.91 2028.63 2217.63 2021 2226.22 2016.42 2236.24 2016.42 2246.26 2016.42 2254.85 2021 2260.58 2027.11 2266.3 2019.47 2274.89 2013.37 2284.91 2013.37 2294.94 2013.37 2302.09 2017.95 2307.82 2024.05 2313.55 2016.42 2323.57 2010.32 2333.59 2010.32 2342.18 2010.32 2349.34 2013.37 2355.06 2019.47 2360.79 2010.32 2370.81 2004.21 2380.83 2004.21 2389.42 2004.21 2396.58 2007.26 2402.3 2013.37 2408.03 2004.21 2418.05 1996.58 2429.5 1996.58 2436.66 1996.58 2443.82 1999.63 2449.54 2005.74 2455.27 1995.05 2465.29 1988.95 2476.74 1988.95 2483.9 1988.95 2491.06 1992 2495.35 1996.58 2501.08 1985.89 2511.1 1978.26 2523.99 1978.26 2529.71 1978.26 2536.87 1981.32 2541.16 1985.89 2546.89 1975.21 2556.91 1967.58 2569.8 1967.58 2576.95 1967.58 2582.68 1969.11 2588.41 1973.68 2592.7 1961.47 2604.15 1953.84 2617.04 1953.84 2622.76 1953.84 2628.49 1955.37 2634.22 1959.95 2638.51 1946.21 2649.96 1938.58 2662.85 1938.58 2668.57 1938.58 2674.3 1940.11 2678.59 1943.16 2682.89 1929.42 2694.34 1920.26 2708.66 1920.26 2712.95 1920.26 2718.68 1923.32 2722.97 1924.84 2727.27 1912.63 2738.72 1901.95 2753.04 1901.95 2758.76 1901.95 2763.06 1903.47 2767.35 1905 2770.22 1891.26 2783.1 1880.58 2797.41 1880.58 2801.71 1880.58 2806 1882.11 2810.3 1883.63 2813.16 1869.89 2826.05 1857.68 2840.36 1857.68 2844.66 1857.68 2848.95 1859.21 2851.81 1860.74 2854.68 1845.47 2867.56 1833.26 2883.31 1833.26 2886.17 1833.26 2889.03 1833.26 2891.9 1834.79 2894.76 1819.53 2907.65 1805.79 2923.39 1805.79 2926.26 1805.79 2929.12 1807.32 2931.98 1807.32 2933.41 1790.53 2946.3 1776.79 2963.48 1776.79 2964.91 1776.79 2967.77 1776.79 2970.63 1778.32 2970.63 1760 2983.52 1746.26 3000.7 1746.26 3003.56 1746.26 3004.99 1746.26 3006.42 1746.26 3006.42 1746.26 3006.42 1744.74 3006.42 1744.74 3006.42 1726.42 3020.74 1711.16 3037.92 1711.16 3037.92 1711.16 3039.35 1711.16 3040.78 1711.16 3040.78 1711.16 3040.78 1709.63 3040.78 1708.11 3040.78 1689.79 3053.66 1674.53 3070.84 1674.53 3072.28 1674.53 3072.28 1674.53 3072.28 1674.53 3072.28 1673 3072.28 1671.47 3072.28 1669.95 3072.28 1651.63 3085.16 1636.37 3100.91 1636.37 3100.91 1633.32 3100.91 1630.26 3100.91 1627.21 3100.91 1610.42 3112.36 1596.68 3126.67 1595.16 3126.67 1590.58 3125.24 1587.53 3125.24 1584.47 3125.24 1567.68 3135.26 1555.47 3149.58 1550.89 3148.15 1547.84 3146.72 1543.26 3146.72 1537.16 3146.72 1523.42 3155.31 1509.68 3168.19 1506.63 3165.33 1500.53 3163.9 1494.42 3163.9 1488.32 3163.9 1474.58 3171.05 1463.89 3181.07 1457.79 3176.78 1453.21 3175.35 1445.58 3175.35 1437.95 3175.35 1425.74 3181.07 1416.58 3189.66 1410.47 3183.94 1404.37 3181.07 1395.21 3181.07 1387.58 3181.07 1375.37 3186.8 1366.21 3193.96 1360.11 3193.96 1358.58 3192.53 1357.05 3192.53 1354 3214 1354 3214 1354 3214 1354 3214 1735.58 2761.63 2045.42 2201.88 2050Z" fill="#9CD115" fill-rule="evenodd"/><path d="M2210.47 2030.47C2204.75 2022.83 2196.16 2018.24 2189 2018.24 2189 2018.24 2189 2018.24 2189 2018.24 2197.59 2018.24 2206.18 2016.72 2211.91 2022.83 2217.63 2016.72 2227.65 2012.13 2236.24 2012.13 2244.83 2012.13 2253.42 2016.72 2260.58 2022.83 2266.31 2015.19 2276.33 2010.6 2284.92 2010.6 2293.51 2010.6 2300.67 2013.66 2307.82 2019.77 2313.55 2010.6 2323.57 2006.02 2333.59 2006.02 2333.59 2006.02 2333.59 2006.02 2333.59 2006.02 2340.75 2006.02 2349.34 2009.07 2355.07 2015.19 2360.79 2006.02 2370.82 2001.43 2380.84 2001.43 2389.43 2001.43 2395.15 2004.49 2402.31 2009.07 2408.04 1998.38 2418.06 1993.79 2429.51 1993.79 2436.67 1993.79 2442.4 1996.85 2448.12 1999.9 2455.28 1990.73 2465.3 1984.62 2476.76 1984.62 2482.48 1984.62 2489.64 1987.68 2495.37 1992.26 2501.09 1981.56 2511.12 1975.45 2524 1975.45 2529.73 1975.45 2535.45 1976.98 2541.18 1980.04 2546.91 1969.34 2558.36 1963.22 2569.81 1963.22 2575.54 1963.22 2581.26 1964.75 2586.99 1969.34 2592.72 1957.11 2604.17 1949.47 2617.06 1949.47 2622.78 1949.47 2627.08 1951 2632.8 1954.05 2638.53 1941.83 2649.98 1934.19 2662.87 1934.19 2667.16 1934.19 2672.89 1935.71 2677.18 1938.77 2682.91 1925.02 2694.36 1917.37 2708.68 1917.37 2712.97 1917.37 2717.27 1918.9 2721.56 1920.43 2727.29 1906.68 2738.74 1897.51 2753.06 1897.51 2757.35 1897.51 2761.65 1899.03 2765.94 1900.56 2770.24 1886.81 2783.12 1877.64 2797.44 1877.64 2800.3 1877.64 2804.6 1877.64 2808.89 1879.17 2813.19 1863.88 2826.07 1854.71 2840.39 1854.71 2843.25 1854.71 2847.55 1854.71 2850.41 1856.24 2854.71 1840.96 2867.59 1828.73 2883.34 1828.73 2884.77 1828.73 2887.63 1830.26 2890.5 1830.26 2894.79 1814.97 2907.68 1802.75 2923.42 1802.75 2924.85 1802.75 2927.72 1802.75 2930.58 1802.75 2933.44 1785.94 2946.33 1773.71 2963.51 1773.71 2963.51 1773.71 2964.94 1773.71 2967.8 1773.71 2969.24 1755.37 2983.55 1741.61 3000.73 1741.61 3000.73 1741.61 3002.16 1741.61 3003.59 1741.61 3005.03 1721.75 3019.34 1706.46 3037.95 1706.46 3037.95 1688.12 3050.84 1672.84 3069.45 1671.31 3069.45 1669.78 3069.45 1668.25 3069.45 1668.25 3069.45 1649.91 3082.33 1634.63 3098.08 1633.1 3098.08 1630.05 3098.08 1626.99 3098.08 1626.99 3098.08 1608.65 3109.53 1594.89 3123.85 1591.84 3123.85 1588.78 3122.42 1585.72 3122.42 1582.67 3122.42 1567.38 3132.44 1553.63 3145.32 1549.04 3143.89 1544.46 3143.89 1539.87 3143.89 1536.82 3143.89 1521.53 3152.48 1509.31 3163.94 1503.19 3162.5 1498.61 3161.07 1492.49 3161.07 1486.38 3161.07 1486.38 3161.07 1486.38 3161.07 1486.38 3161.07 1474.15 3166.8 1461.93 3176.82 1455.81 3173.96 1449.7 3172.53 1443.59 3172.53 1437.47 3172.53 1425.25 3176.82 1414.55 3186.84 1408.44 3181.12 1400.79 3178.25 1393.15 3178.25 1385.51 3178.25 1385.51 3178.25 1385.51 3178.25 1385.51 3178.25 1373.28 3185.41 1365.64 3194 1358 3194 1359.53 3194 1359.53 3194 1359.53 3186.84 1364.11 3183.98 1376.34 3183.98 1385.51 3183.98 1393.15 3186.84 1400.79 3192.57 1406.91 3194 1408.44 3194 1408.44 3194 1408.44 3191.14 1411.49 3191.14 1411.49 3191.14 1411.49 3182.55 1416.08 3178.25 1426.78 3178.25 1437.47 3178.25 1443.59 3179.68 1449.7 3183.98 1455.81 3185.41 1457.34 3185.41 1457.34 3185.41 1457.34 3182.55 1460.4 3182.55 1460.4 3182.55 1460.4 3172.53 1464.98 3166.8 1475.68 3166.8 1486.38 3166.8 1492.49 3168.23 1498.61 3171.09 1503.19 3172.53 1506.25 3172.53 1506.25 3172.53 1506.25 3169.66 1507.78 3169.66 1507.78 3169.66 1507.78 3156.78 1510.83 3149.62 1523.06 3149.62 1536.82 3149.62 1539.87 3151.05 1544.46 3152.48 1549.04 3153.91 1552.1 3153.91 1552.1 3153.91 1552.1 3149.62 1553.63 3149.62 1553.63 3149.62 1553.63 3136.74 1556.68 3128.15 1568.91 3128.15 1582.67 3128.15 1585.72 3129.58 1588.78 3129.58 1591.84 3131.01 1596.42 3131.01 1596.42 3131.01 1596.42 3128.15 1596.42 3128.15 1596.42 3128.15 1596.42 3113.83 1597.95 3103.81 1611.71 3103.81 1626.99 3105.24 1637.69 3105.24 1637.69 3105.24 1637.69 3102.38 1637.69 3102.38 1637.69 3102.38 1637.69 3086.63 1639.22 3075.18 1651.44 3075.18 1668.25 3075.18 1677.42 3075.18 1677.42 3075.18 1677.42 3072.31 1677.42 3072.31 1677.42 3072.31 1677.42 3070.88 1677.42 3070.88 1677.42 3070.88 1677.42 3055.13 1677.42 3043.68 1691.18 3043.68 1706.46 3043.68 1714.1 3043.68 1714.1 3043.68 1714.1 3039.38 1714.1 3039.38 1714.1 3039.38 1714.1 3037.95 1712.58 3037.95 1712.58 3037.95 1712.58 3022.21 1712.58 3009.32 1726.33 3009.32 1743.14 3009.32 1747.73 3009.32 1747.73 3009.32 1747.73 3006.46 1747.73 3006.46 1747.73 3006.46 1747.73 3000.73 1747.73 3000.73 1747.73 3000.73 1747.73 2986.41 1747.73 2973.53 1761.48 2973.53 1776.77 2972.1 1779.82 2972.1 1779.82 2972.1 1779.82 2969.24 1779.82 2969.24 1779.82 2969.24 1779.82 2963.51 1779.82 2963.51 1779.82 2963.51 1779.82 2947.76 1779.82 2936.31 1792.05 2934.88 1807.33 2934.88 1810.39 2934.88 1810.39 2934.88 1810.39 2930.58 1810.39 2930.58 1810.39 2930.58 1810.39 2929.15 1808.86 2926.29 1808.86 2923.42 1808.86 2909.11 1808.86 2897.65 1819.56 2894.79 1834.84 2894.79 1837.9 2894.79 1837.9 2894.79 1837.9 2891.93 1836.37 2891.93 1836.37 2891.93 1836.37 2889.06 1836.37 2886.2 1834.84 2883.34 1834.84 2869.02 1834.84 2857.57 1845.54 2854.71 1860.83 2854.71 1863.88 2854.71 1863.88 2854.71 1863.88 2850.41 1862.35 2850.41 1862.35 2850.41 1862.35 2847.55 1860.83 2844.68 1860.83 2840.39 1860.83 2827.5 1860.83 2816.05 1870 2813.19 1883.75 2811.76 1888.34 2811.76 1888.34 2811.76 1888.34 2808.89 1885.28 2808.89 1885.28 2808.89 1885.28 2804.6 1883.75 2801.74 1883.75 2797.44 1883.75 2784.56 1883.75 2773.1 1892.92 2770.24 1905.15 2768.81 1909.73 2768.81 1909.73 2768.81 1909.73 2765.94 1908.2 2765.94 1908.2 2765.94 1908.2 2761.65 1905.15 2757.35 1903.62 2753.06 1903.62 2740.18 1903.62 2730.15 1912.79 2725.86 1925.02 2724.43 1929.6 2724.43 1929.6 2724.43 1929.6 2721.56 1926.54 2721.56 1926.54 2721.56 1926.54 2717.27 1925.02 2712.97 1923.49 2708.68 1923.49 2695.79 1923.49 2685.77 1931.13 2681.48 1943.36 2680.05 1946.41 2680.05 1946.41 2680.05 1946.41 2677.18 1944.88 2677.18 1944.88 2677.18 1944.88 2672.89 1941.83 2667.16 1940.3 2662.87 1940.3 2651.41 1940.3 2639.96 1947.94 2635.67 1960.17 2635.67 1963.22 2635.67 1963.22 2635.67 1963.22 2631.37 1961.7 2631.37 1961.7 2631.37 1961.7 2627.08 1957.11 2621.35 1955.58 2617.06 1955.58 2605.6 1955.58 2595.58 1963.22 2591.29 1973.92 2588.42 1976.98 2588.42 1976.98 2588.42 1976.98 2585.56 1975.45 2585.56 1975.45 2585.56 1975.45 2581.26 1970.87 2575.54 1969.34 2569.81 1969.34 2558.36 1969.34 2549.77 1975.45 2544.04 1986.15 2542.61 1989.21 2542.61 1989.21 2542.61 1989.21 2539.75 1987.68 2539.75 1987.68 2539.75 1987.68 2535.45 1983.09 2529.73 1981.56 2524 1981.56 2512.55 1981.56 2502.53 1987.68 2498.23 1996.85 2496.8 1999.9 2496.8 1999.9 2496.8 1999.9 2493.94 1998.38 2493.94 1998.38 2493.94 1998.38 2488.21 1993.79 2482.48 1990.73 2476.76 1990.73 2466.74 1990.73 2456.71 1996.85 2452.42 2006.02 2449.56 2009.07 2449.56 2009.07 2449.56 2009.07 2448.12 2007.55 2448.12 2007.55 2448.12 2007.55 2442.4 2001.43 2435.24 1999.9 2429.51 1999.9 2419.49 1999.9 2409.47 2004.49 2405.18 2013.66 2402.31 2016.72 2402.31 2016.72 2402.31 2016.72 2400.88 2015.19 2400.88 2015.19 2400.88 2015.19 2395.15 2009.07 2388 2007.55 2380.84 2007.55 2372.25 2007.55 2363.66 2012.13 2357.93 2021.3 2356.5 2024.36 2356.5 2024.36 2356.5 2024.36 2353.64 2021.3 2353.64 2021.3 2353.64 2021.3 2347.91 2015.19 2340.75 2012.13 2333.59 2012.13 2323.57 2012.13 2314.98 2016.72 2310.69 2025.89 2307.82 2028.94 2307.82 2028.94 2307.82 2028.94 2306.39 2025.89 2306.39 2025.89 2306.39 2025.89 2300.67 2019.77 2293.51 2016.72 2284.92 2016.72 2276.33 2016.72 2267.74 2021.3 2262.01 2028.94 2260.58 2032 2260.58 2032 2260.58 2032 2257.72 2028.94 2257.72 2028.94 2257.72 2028.94 2253.42 2022.83 2244.83 2018.24 2236.24 2018.24 2227.65 2018.24 2219.06 2022.83 2214.77 2028.94 2211.91 2032 2211.91 2032 2211.91 2032L2210.47 2030.47Z" fill="#FFFFFF" fill-rule="evenodd"/><path d="M3220 1399.52 3221.72 1376 3306 1380.48 3304.85 1404 3220 1399.52Z" stroke="#FFFFFF" stroke-width="5.72917" stroke-miterlimit="8" fill="none" fill-rule="evenodd"/><path d="M3207 1453.45 3208.15 1429 3293 1433.55 3291.28 1458 3207 1453.45Z" stroke="#FFFFFF" stroke-width="5.72917" stroke-miterlimit="8" fill="none" fill-rule="evenodd"/><path d="M3197 1499.3 3201.6 1475 3285 1490.26 3280.4 1514 3197 1499.3Z" stroke="#FFFFFF" stroke-width="5.72917" stroke-miterlimit="8" fill="none" fill-rule="evenodd"/><path d="M3179 1550 3184.68 1527 3267 1550 3261.32 1573 3179 1550Z" stroke="#FFFFFF" stroke-width="5.72917" stroke-miterlimit="8" fill="none" fill-rule="evenodd"/><path d="M3156 1591.98 3164.57 1569 3236 1601.17 3227.43 1623 3156 1591.98Z" stroke="#FFFFFF" stroke-width="5.72917" stroke-miterlimit="8" fill="none" fill-rule="evenodd"/><path d="M3136 1644.25 3145.71 1623 3216 1659.75 3205.71 1681 3136 1644.25Z" stroke="#FFFFFF" stroke-width="5.72917" stroke-miterlimit="8" fill="none" fill-rule="evenodd"/><path d="M3102 1683.04 3114.71 1663 3180 1710.53 3167.29 1730 3102 1683.04Z" stroke="#FFFFFF" stroke-width="5.72917" stroke-miterlimit="8" fill="none" fill-rule="evenodd"/><path d="M3068 1722.25 3083.43 1704 3144 1758.75 3128 1777 3068 1722.25Z" stroke="#FFFFFF" stroke-width="5.72917" stroke-miterlimit="8" fill="none" fill-rule="evenodd"/><path d="M3034 1758.73 3049.31 1742 3106 1798.54 3090.69 1817 3034 1758.73Z" stroke="#FFFFFF" stroke-width="5.72917" stroke-miterlimit="8" fill="none" fill-rule="evenodd"/><path d="M2998 1793.63 3013.93 1777 3068 1838.37 3052.06 1855 2998 1793.63Z" stroke="#FFFFFF" stroke-width="5.72917" stroke-miterlimit="8" fill="none" fill-rule="evenodd"/><path d="M2959 1825.69 2976.25 1809 3028 1873.46 3010.75 1889 2959 1825.69Z" stroke="#FFFFFF" stroke-width="5.72917" stroke-miterlimit="8" fill="none" fill-rule="evenodd"/><path d="M2922 1855.38 2940.29 1840 2986 1907.19 2967.71 1922 2922 1855.38Z" stroke="#FFFFFF" stroke-width="5.72917" stroke-miterlimit="8" fill="none" fill-rule="evenodd"/><path d="M2873 1873.69 2891.32 1860 2940 1940.45 2921.68 1953 2873 1873.69Z" stroke="#FFFFFF" stroke-width="5.72917" stroke-miterlimit="8" fill="none" fill-rule="evenodd"/><path d="M2836 1902.65 2856.05 1890 2899 1969.93 2878.95 1982 2836 1902.65Z" stroke="#FFFFFF" stroke-width="5.72917" stroke-miterlimit="8" fill="none" fill-rule="evenodd"/><path d="M2791 1925.57 2811 1913 2851 1998.71 2831 2009 2791 1925.57Z" stroke="#FFFFFF" stroke-width="5.72917" stroke-miterlimit="8" fill="none" fill-rule="evenodd"/><path d="M2747 1939.14 2768.42 1930 2802 2016.86 2780 2026 2747 1939.14Z" stroke="#FFFFFF" stroke-width="5.72917" stroke-miterlimit="8" fill="none" fill-rule="evenodd"/><path d="M2697 1954.17 2718.66 1945 2750 2033.83 2728.34 2043 2697 1954.17Z" stroke="#FFFFFF" stroke-width="5.72917" stroke-miterlimit="8" fill="none" fill-rule="evenodd"/><path d="M2650 1967.24 2671.21 1961 2697 2050.06 2675.79 2058 2650 1967.24Z" stroke="#FFFFFF" stroke-width="5.72917" stroke-miterlimit="8" fill="none" fill-rule="evenodd"/><path d="M2604 1972.71 2625.28 1967 2650 2068.71 2627 2075 2604 1972.71Z" stroke="#FFFFFF" stroke-width="5.72917" stroke-miterlimit="8" fill="none" fill-rule="evenodd"/><path d="M2558 1998.61 2580.93 1994 2601 2086.24 2578.07 2092 2558 1998.61Z" stroke="#FFFFFF" stroke-width="5.72917" stroke-miterlimit="8" fill="none" fill-rule="evenodd"/><path d="M2512 2013.58 2533.54 2009 2551 2102.42 2527.72 2107 2512 2013.58Z" stroke="#FFFFFF" stroke-width="5.72917" stroke-miterlimit="8" fill="none" fill-rule="evenodd"/><path d="M2466 2027.84 2487.48 2025 2502 2113.16 2478.77 2116 2466 2027.84Z" stroke="#FFFFFF" stroke-width="5.72917" stroke-miterlimit="8" fill="none" fill-rule="evenodd"/><path d="M2418 2031.89 2438.97 2029 2452 2123.11 2429.33 2126 2418 2031.89Z" stroke="#FFFFFF" stroke-width="5.72917" stroke-miterlimit="8" fill="none" fill-rule="evenodd"/><path d="M2372 2035.71 2395.08 2034 2402 2128.29 2378.92 2130 2372 2035.71Z" stroke="#FFFFFF" stroke-width="5.72917" stroke-miterlimit="8" fill="none" fill-rule="evenodd"/><path d="M2321 2038.71 2344.4 2037 2352 2131.86 2328.6 2133 2321 2038.71Z" stroke="#FFFFFF" stroke-width="5.72917" stroke-miterlimit="8" fill="none" fill-rule="evenodd"/><path d="M2273 2046.14 2295.5 2045 2300 2139.29 2277.5 2141 2273 2046.14Z" stroke="#FFFFFF" stroke-width="5.72917" stroke-miterlimit="8" fill="none" fill-rule="evenodd"/><path d="M2224 2046 2247.26 2046 2249 2141 2225.74 2141 2224 2046Z" stroke="#FFFFFF" stroke-width="5.72917" stroke-miterlimit="8" fill="none" fill-rule="evenodd"/><path d="M2200 2068 2201 2144" stroke="#FFFFFF" stroke-width="5.72917" stroke-miterlimit="8" fill="none" fill-rule="evenodd"/><path d="M3260.5 1354.5C3260.5 1557.82 3145.95 1747.37 2938.34 1889.54 2737.89 2025.59 2471.57 2100.5 2189.5 2100.5" stroke="#ABD812" stroke-width="11.4583" stroke-miterlimit="8" fill="none" fill-rule="evenodd"/><path d="M3190.5 1387.5C3190.5 1374.25 3200.8 1363.5 3213.5 1363.5 3226.2 1363.5 3236.5 1374.25 3236.5 1387.5 3236.5 1400.75 3226.2 1411.5 3213.5 1411.5 3200.8 1411.5 3190.5 1400.75 3190.5 1387.5Z" stroke="#333333" stroke-width="2.86476" stroke-miterlimit="8" fill="#FF8C00" fill-rule="evenodd"/><path d="M3227.5 1354.5C3224.61 1357.17 3220.28 1358.5 3214.5 1358.5 3210.17 1358.5 3205.83 1357.17 3201.5 1354.5" stroke="#333333" stroke-width="2.86476" stroke-linecap="round" stroke-linejoin="round" stroke-miterlimit="10" fill="#FF8C00" fill-rule="evenodd"/><path d="M3227.5 1354.5C3224.61 1357.17 3220.28 1358.5 3214.5 1358.5 3210.17 1358.5 3205.83 1357.17 3201.5 1354.5" stroke="#333333" stroke-width="2.86476" stroke-linecap="round" stroke-linejoin="round" stroke-miterlimit="10" fill="none" fill-rule="evenodd"/><path d="M3184.5 1439.5C3184.5 1426.25 3194.35 1415.5 3206.5 1415.5 3218.65 1415.5 3228.5 1426.25 3228.5 1439.5 3228.5 1452.75 3218.65 1463.5 3206.5 1463.5 3194.35 1463.5 3184.5 1452.75 3184.5 1439.5Z" stroke="#333333" stroke-width="2.86476" stroke-miterlimit="8" fill="#FF8C00" fill-rule="evenodd"/><path d="M3173.5 1489C3173.5 1475.47 3183.35 1464.5 3195.5 1464.5 3207.65 1464.5 3217.5 1475.47 3217.5 1489 3217.5 1502.53 3207.65 1513.5 3195.5 1513.5 3183.35 1513.5 3173.5 1502.53 3173.5 1489Z" stroke="#333333" stroke-width="2.86476" stroke-miterlimit="8" fill="#FF8C00" fill-rule="evenodd"/><path d="M3156.5 1538C3156.5 1524.47 3166.57 1513.5 3179 1513.5 3191.43 1513.5 3201.5 1524.47 3201.5 1538 3201.5 1551.53 3191.43 1562.5 3179 1562.5 3166.57 1562.5 3156.5 1551.53 3156.5 1538Z" stroke="#333333" stroke-width="2.86476" stroke-miterlimit="8" fill="#FF8C00" fill-rule="evenodd"/><path d="M3134.5 1584.5C3134.5 1571.25 3144.8 1560.5 3157.5 1560.5 3170.2 1560.5 3180.5 1571.25 3180.5 1584.5 3180.5 1597.75 3170.2 1608.5 3157.5 1608.5 3144.8 1608.5 3134.5 1597.75 3134.5 1584.5Z" stroke="#333333" stroke-width="2.86476" stroke-miterlimit="8" fill="#FF8C00" fill-rule="evenodd"/><path d="M3109.5 1628C3109.5 1614.47 3119.57 1603.5 3132 1603.5 3144.43 1603.5 3154.5 1614.47 3154.5 1628 3154.5 1641.53 3144.43 1652.5 3132 1652.5 3119.57 1652.5 3109.5 1641.53 3109.5 1628Z" stroke="#333333" stroke-width="2.86476" stroke-miterlimit="8" fill="#FF8C00" fill-rule="evenodd"/><path d="M3081.5 1670C3081.5 1657.02 3091.35 1646.5 3103.5 1646.5 3115.65 1646.5 3125.5 1657.02 3125.5 1670 3125.5 1682.98 3115.65 1693.5 3103.5 1693.5 3091.35 1693.5 3081.5 1682.98 3081.5 1670Z" stroke="#333333" stroke-width="2.86476" stroke-miterlimit="8" fill="#FF8C00" fill-rule="evenodd"/><path d="M3049.5 1709C3049.5 1695.47 3059.57 1684.5 3072 1684.5 3084.43 1684.5 3094.5 1695.47 3094.5 1709 3094.5 1722.53 3084.43 1733.5 3072 1733.5 3059.57 1733.5 3049.5 1722.53 3049.5 1709Z" stroke="#333333" stroke-width="2.86476" stroke-miterlimit="8" fill="#FF8C00" fill-rule="evenodd"/><path d="M3015.5 1745.5C3015.5 1731.69 3025.35 1720.5 3037.5 1720.5 3049.65 1720.5 3059.5 1731.69 3059.5 1745.5 3059.5 1759.31 3049.65 1770.5 3037.5 1770.5 3025.35 1770.5 3015.5 1759.31 3015.5 1745.5Z" stroke="#333333" stroke-width="2.86476" stroke-miterlimit="8" fill="#FF8C00" fill-rule="evenodd"/><path d="M2979.5 1780C2979.5 1767.02 2989.35 1756.5 3001.5 1756.5 3013.65 1756.5 3023.5 1767.02 3023.5 1780 3023.5 1792.98 3013.65 1803.5 3001.5 1803.5 2989.35 1803.5 2979.5 1792.98 2979.5 1780Z" stroke="#333333" stroke-width="2.86476" stroke-miterlimit="8" fill="#FF8C00" fill-rule="evenodd"/><path d="M2940.5 1811C2940.5 1797.47 2950.8 1786.5 2963.5 1786.5 2976.2 1786.5 2986.5 1797.47 2986.5 1811 2986.5 1824.53 2976.2 1835.5 2963.5 1835.5 2950.8 1835.5 2940.5 1824.53 2940.5 1811Z" stroke="#333333" stroke-width="2.86476" stroke-miterlimit="8" fill="#FF8C00" fill-rule="evenodd"/><path d="M2900.5 1840.5C2900.5 1827.25 2910.8 1816.5 2923.5 1816.5 2936.2 1816.5 2946.5 1827.25 2946.5 1840.5 2946.5 1853.75 2936.2 1864.5 2923.5 1864.5 2910.8 1864.5 2900.5 1853.75 2900.5 1840.5Z" stroke="#333333" stroke-width="2.86476" stroke-miterlimit="8" fill="#FF8C00" fill-rule="evenodd"/><path d="M2860.5 1868C2860.5 1854.47 2870.57 1843.5 2883 1843.5 2895.43 1843.5 2905.5 1854.47 2905.5 1868 2905.5 1881.53 2895.43 1892.5 2883 1892.5 2870.57 1892.5 2860.5 1881.53 2860.5 1868Z" stroke="#333333" stroke-width="2.86476" stroke-miterlimit="8" fill="#FF8C00" fill-rule="evenodd"/><path d="M2817.5 1892C2817.5 1878.47 2827.8 1867.5 2840.5 1867.5 2853.2 1867.5 2863.5 1878.47 2863.5 1892 2863.5 1905.53 2853.2 1916.5 2840.5 1916.5 2827.8 1916.5 2817.5 1905.53 2817.5 1892Z" stroke="#333333" stroke-width="2.86476" stroke-miterlimit="8" fill="#FF8C00" fill-rule="evenodd"/><path d="M2774.5 1915C2774.5 1901.47 2784.57 1890.5 2797 1890.5 2809.43 1890.5 2819.5 1901.47 2819.5 1915 2819.5 1928.53 2809.43 1939.5 2797 1939.5 2784.57 1939.5 2774.5 1928.53 2774.5 1915Z" stroke="#333333" stroke-width="2.86476" stroke-miterlimit="8" fill="#FF8C00" fill-rule="evenodd"/><path d="M2730.5 1937C2730.5 1923.47 2740.8 1912.5 2753.5 1912.5 2766.2 1912.5 2776.5 1923.47 2776.5 1937 2776.5 1950.53 2766.2 1961.5 2753.5 1961.5 2740.8 1961.5 2730.5 1950.53 2730.5 1937Z" stroke="#333333" stroke-width="2.86476" stroke-miterlimit="8" fill="#FF8C00" fill-rule="evenodd"/><path d="M2685.5 1955C2685.5 1941.47 2695.57 1930.5 2708 1930.5 2720.43 1930.5 2730.5 1941.47 2730.5 1955 2730.5 1968.53 2720.43 1979.5 2708 1979.5 2695.57 1979.5 2685.5 1968.53 2685.5 1955Z" stroke="#333333" stroke-width="2.86476" stroke-miterlimit="8" fill="#FF8C00" fill-rule="evenodd"/><path d="M2639.5 1972C2639.5 1959.02 2649.8 1948.5 2662.5 1948.5 2675.2 1948.5 2685.5 1959.02 2685.5 1972 2685.5 1984.98 2675.2 1995.5 2662.5 1995.5 2649.8 1995.5 2639.5 1984.98 2639.5 1972Z" stroke="#333333" stroke-width="2.86476" stroke-miterlimit="8" fill="#FF8C00" fill-rule="evenodd"/><path d="M2594.5 1988.5C2594.5 1974.69 2604.35 1963.5 2616.5 1963.5 2628.65 1963.5 2638.5 1974.69 2638.5 1988.5 2638.5 2002.31 2628.65 2013.5 2616.5 2013.5 2604.35 2013.5 2594.5 2002.31 2594.5 1988.5Z" stroke="#333333" stroke-width="2.86476" stroke-miterlimit="8" fill="#FF8C00" fill-rule="evenodd"/><path d="M2547.5 2001.5C2547.5 1988.25 2557.57 1977.5 2570 1977.5 2582.43 1977.5 2592.5 1988.25 2592.5 2001.5 2592.5 2014.75 2582.43 2025.5 2570 2025.5 2557.57 2025.5 2547.5 2014.75 2547.5 2001.5Z" stroke="#333333" stroke-width="2.86476" stroke-miterlimit="8" fill="#FF8C00" fill-rule="evenodd"/><path d="M2501.5 2013C2501.5 1999.47 2511.35 1988.5 2523.5 1988.5 2535.65 1988.5 2545.5 1999.47 2545.5 2013 2545.5 2026.53 2535.65 2037.5 2523.5 2037.5 2511.35 2037.5 2501.5 2026.53 2501.5 2013Z" stroke="#333333" stroke-width="2.86476" stroke-miterlimit="8" fill="#FF8C00" fill-rule="evenodd"/><path d="M2453.5 2024C2453.5 2010.47 2463.57 1999.5 2476 1999.5 2488.43 1999.5 2498.5 2010.47 2498.5 2024 2498.5 2037.53 2488.43 2048.5 2476 2048.5 2463.57 2048.5 2453.5 2037.53 2453.5 2024Z" stroke="#333333" stroke-width="2.86476" stroke-miterlimit="8" fill="#FF8C00" fill-rule="evenodd"/><path d="M2406.5 2031C2406.5 2017.47 2416.35 2006.5 2428.5 2006.5 2440.65 2006.5 2450.5 2017.47 2450.5 2031 2450.5 2044.53 2440.65 2055.5 2428.5 2055.5 2416.35 2055.5 2406.5 2044.53 2406.5 2031Z" stroke="#333333" stroke-width="2.86476" stroke-miterlimit="8" fill="#FF8C00" fill-rule="evenodd"/><path d="M2359.5 2039C2359.5 2025.47 2369.35 2014.5 2381.5 2014.5 2393.65 2014.5 2403.5 2025.47 2403.5 2039 2403.5 2052.53 2393.65 2063.5 2381.5 2063.5 2369.35 2063.5 2359.5 2052.53 2359.5 2039Z" stroke="#333333" stroke-width="2.86476" stroke-miterlimit="8" fill="#FF8C00" fill-rule="evenodd"/><path d="M2310.5 2044.5C2310.5 2031.25 2320.8 2020.5 2333.5 2020.5 2346.2 2020.5 2356.5 2031.25 2356.5 2044.5 2356.5 2057.75 2346.2 2068.5 2333.5 2068.5 2320.8 2068.5 2310.5 2057.75 2310.5 2044.5Z" stroke="#333333" stroke-width="2.86476" stroke-miterlimit="8" fill="#FF8C00" fill-rule="evenodd"/><path d="M2263.5 2048C2263.5 2034.47 2273.35 2023.5 2285.5 2023.5 2297.65 2023.5 2307.5 2034.47 2307.5 2048 2307.5 2061.53 2297.65 2072.5 2285.5 2072.5 2273.35 2072.5 2263.5 2061.53 2263.5 2048Z" stroke="#333333" stroke-width="2.86476" stroke-miterlimit="8" fill="#FF8C00" fill-rule="evenodd"/><path d="M2213.5 2050C2213.5 2037.02 2223.57 2026.5 2236 2026.5 2248.43 2026.5 2258.5 2037.02 2258.5 2050 2258.5 2062.98 2248.43 2073.5 2236 2073.5 2223.57 2073.5 2213.5 2062.98 2213.5 2050Z" stroke="#333333" stroke-width="2.86476" stroke-miterlimit="8" fill="#FF8C00" fill-rule="evenodd"/><path d="M2189.5 2026.5C2189.5 2026.5 2189.5 2026.5 2189.5 2026.5 2200.7 2026.5 2210.5 2038.75 2210.5 2051 2210.5 2064.78 2200.7 2075.5 2189.5 2075.5 2189.5 2075.5 2189.5 2075.5 2189.5 2075.5" stroke="#333333" stroke-width="2.86476" stroke-linecap="round" stroke-linejoin="round" stroke-miterlimit="10" fill="#FF8C00" fill-rule="evenodd"/><path d="M2189.5 2026.5C2189.5 2026.5 2189.5 2026.5 2189.5 2026.5 2200.7 2026.5 2210.5 2038.75 2210.5 2051 2210.5 2064.78 2200.7 2075.5 2189.5 2075.5 2189.5 2075.5 2189.5 2075.5 2189.5 2075.5" stroke="#333333" stroke-width="2.86476" stroke-linecap="round" stroke-linejoin="round" stroke-miterlimit="10" fill="none" fill-rule="evenodd"/><path d="M3274.5 1450C3274.5 1435.92 3285.25 1424.5 3298.5 1424.5 3311.75 1424.5 3322.5 1435.92 3322.5 1450 3322.5 1464.08 3311.75 1475.5 3298.5 1475.5 3285.25 1475.5 3274.5 1464.08 3274.5 1450Z" stroke="#333333" stroke-width="2.86476" stroke-miterlimit="8" fill="#FF8C00" fill-rule="evenodd"/><path d="M3280.5 1393.5C3280.5 1379.69 3291.25 1368.5 3304.5 1368.5 3317.75 1368.5 3328.5 1379.69 3328.5 1393.5 3328.5 1407.31 3317.75 1418.5 3304.5 1418.5 3291.25 1418.5 3280.5 1407.31 3280.5 1393.5Z" stroke="#333333" stroke-width="2.86476" stroke-miterlimit="8" fill="#FF8C00" fill-rule="evenodd"/><path d="M3322.5 1354.5C3318.07 1359 3313.64 1360.5 3306.26 1360.5 3300.36 1360.5 3295.93 1359 3291.5 1354.5" stroke="#333333" stroke-width="2.86476" stroke-linecap="round" stroke-linejoin="round" stroke-miterlimit="10" fill="#FF8C00" fill-rule="evenodd"/><path d="M3322.5 1354.5C3318.07 1359 3313.64 1360.5 3306.26 1360.5 3300.36 1360.5 3295.93 1359 3291.5 1354.5" stroke="#333333" stroke-width="2.86476" stroke-linecap="round" stroke-linejoin="round" stroke-miterlimit="10" fill="none" fill-rule="evenodd"/><path d="M3262.5 1506.5C3262.5 1492.69 3273.02 1481.5 3286 1481.5 3298.98 1481.5 3309.5 1492.69 3309.5 1506.5 3309.5 1520.31 3298.98 1531.5 3286 1531.5 3273.02 1531.5 3262.5 1520.31 3262.5 1506.5Z" stroke="#333333" stroke-width="2.86476" stroke-miterlimit="8" fill="#FF8C00" fill-rule="evenodd"/><path d="M3244.5 1564.5C3244.5 1550.69 3255.02 1539.5 3268 1539.5 3280.98 1539.5 3291.5 1550.69 3291.5 1564.5 3291.5 1578.31 3280.98 1589.5 3268 1589.5 3255.02 1589.5 3244.5 1578.31 3244.5 1564.5Z" stroke="#333333" stroke-width="2.86476" stroke-miterlimit="8" fill="#FF8C00" fill-rule="evenodd"/><path d="M3220.5 1618C3220.5 1603.92 3231.02 1592.5 3244 1592.5 3256.98 1592.5 3267.5 1603.92 3267.5 1618 3267.5 1632.08 3256.98 1643.5 3244 1643.5 3231.02 1643.5 3220.5 1632.08 3220.5 1618Z" stroke="#333333" stroke-width="2.86476" stroke-miterlimit="8" fill="#FF8C00" fill-rule="evenodd"/><path d="M3190.5 1674.5C3190.5 1660.69 3201.02 1649.5 3214 1649.5 3226.98 1649.5 3237.5 1660.69 3237.5 1674.5 3237.5 1688.31 3226.98 1699.5 3214 1699.5 3201.02 1699.5 3190.5 1688.31 3190.5 1674.5Z" stroke="#333333" stroke-width="2.86476" stroke-miterlimit="8" fill="#FF8C00" fill-rule="evenodd"/><path d="M3154.5 1725C3154.5 1710.92 3165.02 1699.5 3178 1699.5 3190.98 1699.5 3201.5 1710.92 3201.5 1725 3201.5 1739.08 3190.98 1750.5 3178 1750.5 3165.02 1750.5 3154.5 1739.08 3154.5 1725Z" stroke="#333333" stroke-width="2.86476" stroke-miterlimit="8" fill="#FF8C00" fill-rule="evenodd"/><path d="M3115.5 1775.5C3115.5 1761.69 3126.25 1750.5 3139.5 1750.5 3152.75 1750.5 3163.5 1761.69 3163.5 1775.5 3163.5 1789.31 3152.75 1800.5 3139.5 1800.5 3126.25 1800.5 3115.5 1789.31 3115.5 1775.5Z" stroke="#333333" stroke-width="2.86476" stroke-miterlimit="8" fill="#FF8C00" fill-rule="evenodd"/><path d="M3077.5 1816.5C3077.5 1802.69 3088.02 1791.5 3101 1791.5 3113.98 1791.5 3124.5 1802.69 3124.5 1816.5 3124.5 1830.31 3113.98 1841.5 3101 1841.5 3088.02 1841.5 3077.5 1830.31 3077.5 1816.5Z" stroke="#333333" stroke-width="2.86476" stroke-miterlimit="8" fill="#FF8C00" fill-rule="evenodd"/><path d="M3039.5 1851.5C3039.5 1837.69 3050.02 1826.5 3063 1826.5 3075.98 1826.5 3086.5 1837.69 3086.5 1851.5 3086.5 1865.31 3075.98 1876.5 3063 1876.5 3050.02 1876.5 3039.5 1865.31 3039.5 1851.5Z" stroke="#333333" stroke-width="2.86476" stroke-miterlimit="8" fill="#FF8C00" fill-rule="evenodd"/><path d="M2998.5 1888.5C2998.5 1874.69 3009.02 1863.5 3022 1863.5 3034.98 1863.5 3045.5 1874.69 3045.5 1888.5 3045.5 1902.31 3034.98 1913.5 3022 1913.5 3009.02 1913.5 2998.5 1902.31 2998.5 1888.5Z" stroke="#333333" stroke-width="2.86476" stroke-miterlimit="8" fill="#FF8C00" fill-rule="evenodd"/><path d="M2955.5 1917.5C2955.5 1903.69 2966.02 1892.5 2979 1892.5 2991.98 1892.5 3002.5 1903.69 3002.5 1917.5 3002.5 1931.31 2991.98 1942.5 2979 1942.5 2966.02 1942.5 2955.5 1931.31 2955.5 1917.5Z" stroke="#333333" stroke-width="2.86476" stroke-miterlimit="8" fill="#FF8C00" fill-rule="evenodd"/><path d="M2909.5 1948C2909.5 1933.92 2920.02 1922.5 2933 1922.5 2945.98 1922.5 2956.5 1933.92 2956.5 1948 2956.5 1962.08 2945.98 1973.5 2933 1973.5 2920.02 1973.5 2909.5 1962.08 2909.5 1948Z" stroke="#333333" stroke-width="2.86476" stroke-miterlimit="8" fill="#FF8C00" fill-rule="evenodd"/><path d="M2866.5 1977C2866.5 1962.92 2877.02 1951.5 2890 1951.5 2902.98 1951.5 2913.5 1962.92 2913.5 1977 2913.5 1991.08 2902.98 2002.5 2890 2002.5 2877.02 2002.5 2866.5 1991.08 2866.5 1977Z" stroke="#333333" stroke-width="2.86476" stroke-miterlimit="8" fill="#FF8C00" fill-rule="evenodd"/><path d="M2816.5 2000C2816.5 1985.92 2827.02 1974.5 2840 1974.5 2852.98 1974.5 2863.5 1985.92 2863.5 2000 2863.5 2014.08 2852.98 2025.5 2840 2025.5 2827.02 2025.5 2816.5 2014.08 2816.5 2000Z" stroke="#333333" stroke-width="2.86476" stroke-miterlimit="8" fill="#FF8C00" fill-rule="evenodd"/><path d="M2767.5 2025.5C2767.5 2011.69 2778.02 2000.5 2791 2000.5 2803.98 2000.5 2814.5 2011.69 2814.5 2025.5 2814.5 2039.31 2803.98 2050.5 2791 2050.5 2778.02 2050.5 2767.5 2039.31 2767.5 2025.5Z" stroke="#333333" stroke-width="2.86476" stroke-miterlimit="8" fill="#FF8C00" fill-rule="evenodd"/><path d="M2717.5 2047.5C2717.5 2033.69 2728.02 2022.5 2741 2022.5 2753.98 2022.5 2764.5 2033.69 2764.5 2047.5 2764.5 2061.31 2753.98 2072.5 2741 2072.5 2728.02 2072.5 2717.5 2061.31 2717.5 2047.5Z" stroke="#333333" stroke-width="2.86476" stroke-miterlimit="8" fill="#FF8C00" fill-rule="evenodd"/><path d="M2667.5 2066C2667.5 2051.92 2678.02 2040.5 2691 2040.5 2703.98 2040.5 2714.5 2051.92 2714.5 2066 2714.5 2080.08 2703.98 2091.5 2691 2091.5 2678.02 2091.5 2667.5 2080.08 2667.5 2066Z" stroke="#333333" stroke-width="2.86476" stroke-miterlimit="8" fill="#FF8C00" fill-rule="evenodd"/><path d="M2617.5 2082.5C2617.5 2068.69 2628.02 2057.5 2641 2057.5 2653.98 2057.5 2664.5 2068.69 2664.5 2082.5 2664.5 2096.31 2653.98 2107.5 2641 2107.5 2628.02 2107.5 2617.5 2096.31 2617.5 2082.5Z" stroke="#333333" stroke-width="2.86476" stroke-miterlimit="8" fill="#FF8C00" fill-rule="evenodd"/><path d="M2567.5 2096.5C2567.5 2082.69 2578.02 2071.5 2591 2071.5 2603.98 2071.5 2614.5 2082.69 2614.5 2096.5 2614.5 2110.31 2603.98 2121.5 2591 2121.5 2578.02 2121.5 2567.5 2110.31 2567.5 2096.5Z" stroke="#333333" stroke-width="2.86476" stroke-miterlimit="8" fill="#FF8C00" fill-rule="evenodd"/><path d="M2518.5 2108.5C2518.5 2094.69 2529.02 2083.5 2542 2083.5 2554.98 2083.5 2565.5 2094.69 2565.5 2108.5 2565.5 2122.31 2554.98 2133.5 2542 2133.5 2529.02 2133.5 2518.5 2122.31 2518.5 2108.5Z" stroke="#333333" stroke-width="2.86476" stroke-miterlimit="8" fill="#FF8C00" fill-rule="evenodd"/><path d="M2469.5 2119C2469.5 2104.92 2480.02 2093.5 2493 2093.5 2505.98 2093.5 2516.5 2104.92 2516.5 2119 2516.5 2133.08 2505.98 2144.5 2493 2144.5 2480.02 2144.5 2469.5 2133.08 2469.5 2119Z" stroke="#333333" stroke-width="2.86476" stroke-miterlimit="8" fill="#FF8C00" fill-rule="evenodd"/><path d="M2418.5 2128.5C2418.5 2114.69 2429.02 2103.5 2442 2103.5 2454.98 2103.5 2465.5 2114.69 2465.5 2128.5 2465.5 2142.31 2454.98 2153.5 2442 2153.5 2429.02 2153.5 2418.5 2142.31 2418.5 2128.5Z" stroke="#333333" stroke-width="2.86476" stroke-miterlimit="8" fill="#FF8C00" fill-rule="evenodd"/><path d="M2367.5 2134.5C2367.5 2120.69 2378.47 2109.5 2392 2109.5 2405.53 2109.5 2416.5 2120.69 2416.5 2134.5 2416.5 2148.31 2405.53 2159.5 2392 2159.5 2378.47 2159.5 2367.5 2148.31 2367.5 2134.5Z" stroke="#333333" stroke-width="2.86476" stroke-miterlimit="8" fill="#FF8C00" fill-rule="evenodd"/><path d="M2317.5 2140.5C2317.5 2126.69 2328.02 2115.5 2341 2115.5 2353.98 2115.5 2364.5 2126.69 2364.5 2140.5 2364.5 2154.31 2353.98 2165.5 2341 2165.5 2328.02 2165.5 2317.5 2154.31 2317.5 2140.5Z" stroke="#333333" stroke-width="2.86476" stroke-miterlimit="8" fill="#FF8C00" fill-rule="evenodd"/><path d="M2264.5 2146.5C2264.5 2132.69 2275.25 2121.5 2288.5 2121.5 2301.75 2121.5 2312.5 2132.69 2312.5 2146.5 2312.5 2160.31 2301.75 2171.5 2288.5 2171.5 2275.25 2171.5 2264.5 2160.31 2264.5 2146.5Z" stroke="#333333" stroke-width="2.86476" stroke-miterlimit="8" fill="#FF8C00" fill-rule="evenodd"/><path d="M2213.5 2148.5C2213.5 2134.69 2224.02 2123.5 2237 2123.5 2249.98 2123.5 2260.5 2134.69 2260.5 2148.5 2260.5 2162.31 2249.98 2173.5 2237 2173.5 2224.02 2173.5 2213.5 2162.31 2213.5 2148.5Z" stroke="#333333" stroke-width="2.86476" stroke-miterlimit="8" fill="#FF8C00" fill-rule="evenodd"/><path d="M2189.5 2124.5C2200.93 2126.03 2209.5 2136.75 2209.5 2149 2209.5 2161.25 2200.93 2171.97 2189.5 2173.5" stroke="#333333" stroke-width="2.86476" stroke-linecap="round" stroke-linejoin="round" stroke-miterlimit="10" fill="#FF8C00" fill-rule="evenodd"/><path d="M2189.5 2124.5C2200.93 2126.03 2209.5 2136.75 2209.5 2149 2209.5 2161.25 2200.93 2171.97 2189.5 2173.5" stroke="#333333" stroke-width="2.86476" stroke-linecap="round" stroke-linejoin="round" stroke-miterlimit="10" fill="none" fill-rule="evenodd"/><path d="M2221 2139C2221 2134.03 2224.81 2130 2229.5 2130 2234.19 2130 2238 2134.03 2238 2139 2238 2143.97 2234.19 2148 2229.5 2148 2224.81 2148 2221 2143.97 2221 2139Z" fill="#FFFFFF" fill-rule="evenodd"/><path d="M2272 2141C2272 2136.03 2275.81 2132 2280.5 2132 2285.19 2132 2289 2136.03 2289 2141 2289 2145.97 2285.19 2150 2280.5 2150 2275.81 2150 2272 2145.97 2272 2141Z" fill="#FFFFFF" fill-rule="evenodd"/><path d="M2324 2135C2324 2130.03 2328.03 2126 2333 2126 2337.97 2126 2342 2130.03 2342 2135 2342 2139.97 2337.97 2144 2333 2144 2328.03 2144 2324 2139.97 2324 2135Z" fill="#FFFFFF" fill-rule="evenodd"/><path d="M2376 2128.5C2376 2123.25 2379.81 2119 2384.5 2119 2389.19 2119 2393 2123.25 2393 2128.5 2393 2133.75 2389.19 2138 2384.5 2138 2379.81 2138 2376 2133.75 2376 2128.5Z" fill="#FFFFFF" fill-rule="evenodd"/><path d="M2429 2121C2429 2116.03 2432.81 2112 2437.5 2112 2442.19 2112 2446 2116.03 2446 2121 2446 2125.97 2442.19 2130 2437.5 2130 2432.81 2130 2429 2125.97 2429 2121Z" fill="#FFFFFF" fill-rule="evenodd"/><path d="M2481 2114.5C2481 2109.25 2484.81 2105 2489.5 2105 2494.19 2105 2498 2109.25 2498 2114.5 2498 2119.75 2494.19 2124 2489.5 2124 2484.81 2124 2481 2119.75 2481 2114.5Z" fill="#FFFFFF" fill-rule="evenodd"/><path d="M2528 2102.5C2528 2097.25 2531.81 2093 2536.5 2093 2541.19 2093 2545 2097.25 2545 2102.5 2545 2107.75 2541.19 2112 2536.5 2112 2531.81 2112 2528 2107.75 2528 2102.5Z" fill="#FFFFFF" fill-rule="evenodd"/><path d="M2576 2092C2576 2087.03 2580.03 2083 2585 2083 2589.97 2083 2594 2087.03 2594 2092 2594 2096.97 2589.97 2101 2585 2101 2580.03 2101 2576 2096.97 2576 2092Z" fill="#FFFFFF" fill-rule="evenodd"/><path d="M2628 2078C2628 2073.03 2631.81 2069 2636.5 2069 2641.19 2069 2645 2073.03 2645 2078 2645 2082.97 2641.19 2087 2636.5 2087 2631.81 2087 2628 2082.97 2628 2078Z" fill="#FFFFFF" fill-rule="evenodd"/><path d="M2677 2061.5C2677 2056.25 2680.81 2052 2685.5 2052 2690.19 2052 2694 2056.25 2694 2061.5 2694 2066.75 2690.19 2071 2685.5 2071 2680.81 2071 2677 2066.75 2677 2061.5Z" fill="#FFFFFF" fill-rule="evenodd"/><path d="M2725 2043C2725 2038.03 2729.03 2034 2734 2034 2738.97 2034 2743 2038.03 2743 2043 2743 2047.97 2738.97 2052 2734 2052 2729.03 2052 2725 2047.97 2725 2043Z" fill="#FFFFFF" fill-rule="evenodd"/><path d="M2776 2022C2776 2017.03 2779.81 2013 2784.5 2013 2789.19 2013 2793 2017.03 2793 2022 2793 2026.97 2789.19 2031 2784.5 2031 2779.81 2031 2776 2026.97 2776 2022Z" fill="#FFFFFF" fill-rule="evenodd"/><path d="M2828 1995.5C2828 1990.25 2832.03 1986 2837 1986 2841.97 1986 2846 1990.25 2846 1995.5 2846 2000.75 2841.97 2005 2837 2005 2832.03 2005 2828 2000.75 2828 1995.5Z" fill="#FFFFFF" fill-rule="evenodd"/><path d="M2876 1974C2876 1969.03 2879.81 1965 2884.5 1965 2889.19 1965 2893 1969.03 2893 1974 2893 1978.97 2889.19 1983 2884.5 1983 2879.81 1983 2876 1978.97 2876 1974Z" fill="#FFFFFF" fill-rule="evenodd"/><path d="M2920 1945C2920 1940.03 2923.81 1936 2928.5 1936 2933.19 1936 2937 1940.03 2937 1945 2937 1949.97 2933.19 1954 2928.5 1954 2923.81 1954 2920 1949.97 2920 1945Z" fill="#FFFFFF" fill-rule="evenodd"/><path d="M2969 1913C2969 1908.03 2972.81 1904 2977.5 1904 2982.19 1904 2986 1908.03 2986 1913 2986 1917.97 2982.19 1922 2977.5 1922 2972.81 1922 2969 1917.97 2969 1913Z" fill="#FFFFFF" fill-rule="evenodd"/><path d="M3008 1881C3008 1876.03 3011.81 1872 3016.5 1872 3021.19 1872 3025 1876.03 3025 1881 3025 1885.97 3021.19 1890 3016.5 1890 3011.81 1890 3008 1885.97 3008 1881Z" fill="#FFFFFF" fill-rule="evenodd"/><path d="M3051 1846C3051 1841.03 3054.81 1837 3059.5 1837 3064.19 1837 3068 1841.03 3068 1846 3068 1850.97 3064.19 1855 3059.5 1855 3054.81 1855 3051 1850.97 3051 1846Z" fill="#FFFFFF" fill-rule="evenodd"/><path d="M3091 1807.5C3091 1802.25 3094.81 1798 3099.5 1798 3104.19 1798 3108 1802.25 3108 1807.5 3108 1812.75 3104.19 1817 3099.5 1817 3094.81 1817 3091 1812.75 3091 1807.5Z" fill="#FFFFFF" fill-rule="evenodd"/><path d="M2870 1866C2870 1861.03 2874.03 1857 2879 1857 2883.97 1857 2888 1861.03 2888 1866 2888 1870.97 2883.97 1875 2879 1875 2874.03 1875 2870 1870.97 2870 1866Z" fill="#FFFFFF" fill-rule="evenodd"/><path d="M2908 1837C2908 1832.03 2911.81 1828 2916.5 1828 2921.19 1828 2925 1832.03 2925 1837 2925 1841.97 2921.19 1846 2916.5 1846 2911.81 1846 2908 1841.97 2908 1837Z" fill="#FFFFFF" fill-rule="evenodd"/><path d="M2948 1807.5C2948 1802.25 2951.81 1798 2956.5 1798 2961.19 1798 2965 1802.25 2965 1807.5 2965 1812.75 2961.19 1817 2956.5 1817 2951.81 1817 2948 1812.75 2948 1807.5Z" fill="#FFFFFF" fill-rule="evenodd"/><path d="M2986 1779C2986 1774.03 2989.81 1770 2994.5 1770 2999.19 1770 3003 1774.03 3003 1779 3003 1783.97 2999.19 1788 2994.5 1788 2989.81 1788 2986 1783.97 2986 1779Z" fill="#FFFFFF" fill-rule="evenodd"/><path d="M3019 1743.5C3019 1738.25 3022.81 1734 3027.5 1734 3032.19 1734 3036 1738.25 3036 1743.5 3036 1748.75 3032.19 1753 3027.5 1753 3022.81 1753 3019 1748.75 3019 1743.5Z" fill="#FFFFFF" fill-rule="evenodd"/><path d="M3058 1708.5C3058 1703.25 3061.81 1699 3066.5 1699 3071.19 1699 3075 1703.25 3075 1708.5 3075 1713.75 3071.19 1718 3066.5 1718 3061.81 1718 3058 1713.75 3058 1708.5Z" fill="#FFFFFF" fill-rule="evenodd"/><path d="M3125 1768C3125 1763.03 3128.81 1759 3133.5 1759 3138.19 1759 3142 1763.03 3142 1768 3142 1772.97 3138.19 1777 3133.5 1777 3128.81 1777 3125 1772.97 3125 1768Z" fill="#FFFFFF" fill-rule="evenodd"/><path d="M3165 1722C3165 1717.03 3169.03 1713 3174 1713 3178.97 1713 3183 1717.03 3183 1722 3183 1726.97 3178.97 1731 3174 1731 3169.03 1731 3165 1726.97 3165 1722Z" fill="#FFFFFF" fill-rule="evenodd"/><path d="M3088 1670C3088 1665.03 3091.81 1661 3096.5 1661 3101.19 1661 3105 1665.03 3105 1670 3105 1674.97 3101.19 1679 3096.5 1679 3091.81 1679 3088 1674.97 3088 1670Z" fill="#FFFFFF" fill-rule="evenodd"/><path d="M3118 1627.5C3118 1622.25 3122.03 1618 3127 1618 3131.97 1618 3136 1622.25 3136 1627.5 3136 1632.75 3131.97 1637 3127 1637 3122.03 1637 3118 1632.75 3118 1627.5Z" fill="#FFFFFF" fill-rule="evenodd"/><path d="M3204 1669C3204 1664.03 3208.03 1660 3213 1660 3217.97 1660 3222 1664.03 3222 1669 3222 1673.97 3217.97 1678 3213 1678 3208.03 1678 3204 1673.97 3204 1669Z" fill="#FFFFFF" fill-rule="evenodd"/><path d="M3231 1615C3231 1610.03 3234.81 1606 3239.5 1606 3244.19 1606 3248 1610.03 3248 1615 3248 1619.97 3244.19 1624 3239.5 1624 3234.81 1624 3231 1619.97 3231 1615Z" fill="#FFFFFF" fill-rule="evenodd"/><path d="M3142 1586.5C3142 1581.25 3146.03 1577 3151 1577 3155.97 1577 3160 1581.25 3160 1586.5 3160 1591.75 3155.97 1596 3151 1596 3146.03 1596 3142 1591.75 3142 1586.5Z" fill="#FFFFFF" fill-rule="evenodd"/><path d="M3164 1539C3164 1534.03 3167.81 1530 3172.5 1530 3177.19 1530 3181 1534.03 3181 1539 3181 1543.97 3177.19 1548 3172.5 1548 3167.81 1548 3164 1543.97 3164 1539Z" fill="#FFFFFF" fill-rule="evenodd"/><path d="M3180 1490C3180 1485.03 3183.81 1481 3188.5 1481 3193.19 1481 3197 1485.03 3197 1490 3197 1494.97 3193.19 1499 3188.5 1499 3183.81 1499 3180 1494.97 3180 1490Z" fill="#FFFFFF" fill-rule="evenodd"/><path d="M3191 1440C3191 1435.03 3194.81 1431 3199.5 1431 3204.19 1431 3208 1435.03 3208 1440 3208 1444.97 3204.19 1449 3199.5 1449 3194.81 1449 3191 1444.97 3191 1440Z" fill="#FFFFFF" fill-rule="evenodd"/><path d="M3197 1387.5C3197 1382.25 3200.81 1378 3205.5 1378 3210.19 1378 3214 1382.25 3214 1387.5 3214 1392.75 3210.19 1397 3205.5 1397 3200.81 1397 3197 1392.75 3197 1387.5Z" fill="#FFFFFF" fill-rule="evenodd"/><path d="M3287 1392C3287 1387.03 3291.03 1383 3296 1383 3300.97 1383 3305 1387.03 3305 1392 3305 1396.97 3300.97 1401 3296 1401 3291.03 1401 3287 1396.97 3287 1392Z" fill="#FFFFFF" fill-rule="evenodd"/><path d="M3277 1444C3277 1439.03 3280.81 1435 3285.5 1435 3290.19 1435 3294 1439.03 3294 1444 3294 1448.97 3290.19 1453 3285.5 1453 3280.81 1453 3277 1448.97 3277 1444Z" fill="#FFFFFF" fill-rule="evenodd"/><path d="M3268 1502C3268 1497.03 3272.03 1493 3277 1493 3281.97 1493 3286 1497.03 3286 1502 3286 1506.97 3281.97 1511 3277 1511 3272.03 1511 3268 1506.97 3268 1502Z" fill="#FFFFFF" fill-rule="evenodd"/><path d="M3251 1559C3251 1554.03 3254.81 1550 3259.5 1550 3264.19 1550 3268 1554.03 3268 1559 3268 1563.97 3264.19 1568 3259.5 1568 3254.81 1568 3251 1563.97 3251 1559Z" fill="#FFFFFF" fill-rule="evenodd"/><path d="M2831 1890C2831 1885.03 2835.03 1881 2840 1881 2844.97 1881 2849 1885.03 2849 1890 2849 1894.97 2844.97 1899 2840 1899 2835.03 1899 2831 1894.97 2831 1890Z" fill="#FFFFFF" fill-rule="evenodd"/><path d="M2787 1915C2787 1910.03 2790.81 1906 2795.5 1906 2800.19 1906 2804 1910.03 2804 1915 2804 1919.97 2800.19 1924 2795.5 1924 2790.81 1924 2787 1919.97 2787 1915Z" fill="#FFFFFF" fill-rule="evenodd"/><path d="M2741 1933C2741 1928.03 2745.03 1924 2750 1924 2754.97 1924 2759 1928.03 2759 1933 2759 1937.97 2754.97 1942 2750 1942 2745.03 1942 2741 1937.97 2741 1933Z" fill="#FFFFFF" fill-rule="evenodd"/><path d="M2698 1949.5C2698 1944.25 2702.03 1940 2707 1940 2711.97 1940 2716 1944.25 2716 1949.5 2716 1954.75 2711.97 1959 2707 1959 2702.03 1959 2698 1954.75 2698 1949.5Z" fill="#FFFFFF" fill-rule="evenodd"/><path d="M2651 1968C2651 1963.03 2654.81 1959 2659.5 1959 2664.19 1959 2668 1963.03 2668 1968 2668 1972.97 2664.19 1977 2659.5 1977 2654.81 1977 2651 1972.97 2651 1968Z" fill="#FFFFFF" fill-rule="evenodd"/><path d="M2602 1983.5C2602 1978.25 2605.81 1974 2610.5 1974 2615.19 1974 2619 1978.25 2619 1983.5 2619 1988.75 2615.19 1993 2610.5 1993 2605.81 1993 2602 1988.75 2602 1983.5Z" fill="#FFFFFF" fill-rule="evenodd"/><path d="M2556 1997C2556 1992.03 2560.03 1988 2565 1988 2569.97 1988 2574 1992.03 2574 1997 2574 2001.97 2569.97 2006 2565 2006 2560.03 2006 2556 2001.97 2556 1997Z" fill="#FFFFFF" fill-rule="evenodd"/><path d="M2509 2011C2509 2006.03 2513.03 2002 2518 2002 2522.97 2002 2527 2006.03 2527 2011 2527 2015.97 2522.97 2020 2518 2020 2513.03 2020 2509 2015.97 2509 2011Z" fill="#FFFFFF" fill-rule="evenodd"/><path d="M2464 2022C2464 2017.03 2467.81 2013 2472.5 2013 2477.19 2013 2481 2017.03 2481 2022 2481 2026.97 2477.19 2031 2472.5 2031 2467.81 2031 2464 2026.97 2464 2022Z" fill="#FFFFFF" fill-rule="evenodd"/><path d="M2413 2029C2413 2024.03 2416.81 2020 2421.5 2020 2426.19 2020 2430 2024.03 2430 2029 2430 2033.97 2426.19 2038 2421.5 2038 2416.81 2038 2413 2033.97 2413 2029Z" fill="#FFFFFF" fill-rule="evenodd"/><path d="M2369 2034C2369 2029.03 2372.81 2025 2377.5 2025 2382.19 2025 2386 2029.03 2386 2034 2386 2038.97 2382.19 2043 2377.5 2043 2372.81 2043 2369 2038.97 2369 2034Z" fill="#FFFFFF" fill-rule="evenodd"/><path d="M2321 2040C2321 2035.03 2325.03 2031 2330 2031 2334.97 2031 2339 2035.03 2339 2040 2339 2044.97 2334.97 2049 2330 2049 2325.03 2049 2321 2044.97 2321 2040Z" fill="#FFFFFF" fill-rule="evenodd"/><path d="M2272 2043C2272 2038.03 2275.81 2034 2280.5 2034 2285.19 2034 2289 2038.03 2289 2043 2289 2047.97 2285.19 2052 2280.5 2052 2275.81 2052 2272 2047.97 2272 2043Z" fill="#FFFFFF" fill-rule="evenodd"/><path d="M2224 2045C2224 2040.03 2227.81 2036 2232.5 2036 2237.19 2036 2241 2040.03 2241 2045 2241 2049.97 2237.19 2054 2232.5 2054 2227.81 2054 2224 2049.97 2224 2045Z" fill="#FFFFFF" fill-rule="evenodd"/></g></svg>