<svg width="397" height="263" xmlns="http://www.w3.org/2000/svg" xmlns:xlink="http://www.w3.org/1999/xlink" xml:space="preserve" overflow="hidden"><g transform="translate(-1590 -1040)"><path d="M1592 1171.5C1592 1099.98 1679.98 1042 1788.5 1042 1897.02 1042 1985 1099.98 1985 1171.5 1985 1243.02 1897.02 1301 1788.5 1301 1679.98 1301 1592 1243.02 1592 1171.5Z" fill="#FBE5E8" fill-rule="evenodd"/><path d="M1947.34 1164.6C1947.34 1231.52 1861.78 1279.85 1762.34 1279.85 1732.28 1279.85 1696.44 1272.41 1671 1263.74 1686.03 1272.41 1703.38 1278.61 1721.88 1283.56 1742.69 1288.52 1763.5 1291 1786.62 1291 1886.06 1291 1967 1237.71 1967 1172.03 1967 1139.81 1948.5 1110.07 1917.28 1089 1931.16 1108.83 1947.34 1128.66 1947.34 1164.6Z" fill="#F8CFD6" fill-rule="evenodd"/><path d="M1670.13 1107.64C1703.77 1080.44 1758.3 1065.6 1816.31 1065.6 1846.47 1065.6 1875.48 1070.55 1901 1079.2 1869.68 1061.89 1829.07 1052 1784.98 1052 1685.21 1052 1604 1105.17 1604 1170.7 1604 1194.2 1614.44 1216.45 1631.84 1235 1604 1171.94 1645.77 1128.66 1670.13 1107.64Z" fill="#FEF4F5" fill-rule="evenodd"/><path d="M1661 1109.5C1661 1101.49 1666.82 1095 1674 1095 1681.18 1095 1687 1101.49 1687 1109.5 1687 1117.51 1681.18 1124 1674 1124 1666.82 1124 1661 1117.51 1661 1109.5Z" fill="#FFFFFF" fill-rule="evenodd"/><path d="M1692 1093C1692 1088.58 1695.36 1085 1699.5 1085 1703.64 1085 1707 1088.58 1707 1093 1707 1097.42 1703.64 1101 1699.5 1101 1695.36 1101 1692 1097.42 1692 1093Z" fill="#FFFFFF" fill-rule="evenodd"/><path d="M1645 1130C1645 1126.13 1648.13 1123 1652 1123 1655.87 1123 1659 1126.13 1659 1130 1659 1133.87 1655.87 1137 1652 1137 1648.13 1137 1645 1133.87 1645 1130Z" fill="#FFFFFF" fill-rule="evenodd"/><path d="M1592 1171.5C1592 1099.98 1679.98 1042 1788.5 1042 1897.02 1042 1985 1099.98 1985 1171.5 1985 1243.02 1897.02 1301 1788.5 1301 1679.98 1301 1592 1243.02 1592 1171.5Z" stroke="#58585A" stroke-width="4.0106" stroke-linecap="round" stroke-linejoin="round" stroke-miterlimit="10" fill="none" fill-rule="evenodd"/><path d="M1699 1174.5C1699 1121.2 1739.97 1078 1790.5 1078 1841.03 1078 1882 1121.2 1882 1174.5 1882 1227.8 1841.03 1271 1790.5 1271 1739.97 1271 1699 1227.8 1699 1174.5Z" fill="#FDE0BC" fill-rule="evenodd"/><path d="M1858.92 1165.4C1858.92 1215.08 1821.82 1254.82 1775.43 1254.82 1760.35 1254.82 1747.6 1251.1 1736 1244.89 1742.96 1251.1 1751.08 1256.06 1759.19 1259.79 1768.47 1263.52 1778.91 1266 1789.34 1266 1835.73 1266 1874 1225.02 1874 1175.34 1874 1150.5 1864.72 1128.15 1849.65 1112 1856.61 1126.9 1858.92 1136.84 1858.92 1165.4Z" fill="#FCD29D" fill-rule="evenodd"/><path d="M1734.37 1127.12C1750.72 1106.18 1776.42 1095.09 1803.29 1095.09 1817.3 1095.09 1831.32 1098.79 1843 1104.95 1827.81 1092.62 1809.13 1084 1789.27 1084 1741.38 1084 1704 1124.66 1704 1173.95 1704 1192.43 1708.67 1208.45 1716.85 1222 1704 1175.18 1723.86 1141.91 1734.37 1127.12Z" fill="#FFF2E4" fill-rule="evenodd"/><path d="M1699.5 1175C1699.5 1121.7 1740.47 1078.5 1791 1078.5 1841.53 1078.5 1882.5 1121.7 1882.5 1175 1882.5 1228.3 1841.53 1271.5 1791 1271.5 1740.47 1271.5 1699.5 1228.3 1699.5 1175Z" stroke="#FFFFFF" stroke-width="2.86476" stroke-linecap="round" stroke-linejoin="round" stroke-miterlimit="10" fill="none" fill-rule="evenodd"/><path d="M1733 1116C1733 1108.82 1738.37 1103 1745 1103 1751.63 1103 1757 1108.82 1757 1116 1757 1123.18 1751.63 1129 1745 1129 1738.37 1129 1733 1123.18 1733 1116Z" fill="#FFFFFF" fill-rule="evenodd"/><path d="M1758 1107.5C1758 1103.36 1761.36 1100 1765.5 1100 1769.64 1100 1773 1103.36 1773 1107.5 1773 1111.64 1769.64 1115 1765.5 1115 1761.36 1115 1758 1111.64 1758 1107.5Z" fill="#FFFFFF" fill-rule="evenodd"/><path d="M1726 1138.5C1726 1134.36 1728.91 1131 1732.5 1131 1736.09 1131 1739 1134.36 1739 1138.5 1739 1142.64 1736.09 1146 1732.5 1146 1728.91 1146 1726 1142.64 1726 1138.5Z" fill="#FFFFFF" fill-rule="evenodd"/><path d="M1760.58 1177.93C1758.27 1185.33 1752.5 1206.3 1765.19 1201.37 1770.96 1198.9 1779.04 1191.5 1783.65 1198.9 1788.27 1203.83 1782.5 1212.47 1784.81 1218.63 1788.27 1228.5 1797.5 1228.5 1805.58 1224.8 1813.65 1222.33 1822.88 1216.17 1824.04 1206.3 1825.19 1202.6 1826.35 1193.97 1832.12 1195.2 1837.88 1195.2 1835.58 1203.83 1841.35 1203.83 1847.12 1203.83 1849.42 1197.67 1851.73 1195.2 1856.35 1190.27 1860.96 1190.27 1863.27 1184.1 1872.5 1165.6 1851.73 1163.13 1839.04 1159.43 1820.58 1154.5 1802.12 1173 1782.5 1164.37 1779.04 1163.13 1779.04 1156.97 1773.27 1158.2 1770.96 1159.43 1764.04 1165.6 1764.04 1169.3" stroke="#C5A9C2" stroke-width="2.86476" stroke-linecap="round" stroke-linejoin="round" stroke-miterlimit="10" fill="none" fill-rule="evenodd"/><path d="M1734.82 1196.44C1727.88 1202.62 1720.93 1221.15 1733.67 1223.62 1741.78 1224.85 1747.57 1210.03 1754.52 1219.91 1760.31 1228.56 1742.93 1254.5 1767.26 1248.32 1774.21 1245.85 1778.84 1239.68 1785.79 1237.21 1793.9 1233.5 1805.48 1234.74 1812.43 1228.56 1830.97 1212.5 1782.32 1208.79 1782.32 1198.91 1783.47 1177.91 1821.7 1190.26 1830.97 1177.91 1843.71 1161.85 1790.42 1149.5 1825.17 1140.85 1829.81 1139.62 1843.71 1143.32 1846.02 1138.38 1849.5 1132.21 1839.07 1123.56 1834.44 1121.09 1822.86 1112.44 1803.17 1107.5 1789.27 1114.91 1790.42 1121.09 1804.32 1132.21 1797.37 1138.38 1789.27 1148.26 1782.32 1130.97 1778.84 1127.26 1773.05 1118.62 1764.94 1111.21 1755.67 1117.38 1741.78 1129.74 1757.99 1135.91 1763.78 1144.56 1778.84 1168.03 1745.25 1156.91 1734.82 1163.09 1710.5 1179.15 1746.41 1176.68 1734.82 1196.44" stroke="#CEB6CC" stroke-width="2.86476" stroke-linecap="round" stroke-linejoin="round" stroke-miterlimit="10" fill="none" fill-rule="evenodd"/><path d="M1758.51 1140.25C1751.61 1147.68 1735.5 1153.87 1742.4 1167.48 1751.61 1183.57 1791.87 1167.48 1805.68 1183.57 1810.28 1188.52 1813.73 1199.66 1807.98 1204.61 1802.23 1210.8 1790.72 1204.61 1783.82 1208.33 1775.77 1212.04 1773.46 1218.23 1776.92 1226.89 1781.52 1235.56 1782.67 1230.61 1790.72 1234.32 1810.28 1240.51 1789.57 1245.46 1798.77 1256.6 1807.98 1266.5 1828.69 1249.17 1833.29 1242.98 1836.74 1236.8 1836.74 1230.61 1840.19 1226.89 1844.79 1220.7 1854 1219.47 1856.3 1213.28 1864.35 1191 1826.39 1186.05 1852.85 1162.53 1862.05 1152.63 1865.5 1142.73 1855.15 1136.54 1842.49 1130.35 1833.29 1141.49 1820.63 1130.35 1814.88 1124.16 1813.73 1115.5 1802.23 1117.98 1796.47 1119.21 1786.12 1126.64 1784.97 1134.07 1783.82 1142.73 1799.92 1161.3 1784.97 1163.77 1780.37 1165.01 1767.71 1181.1 1764.26 1172.43" stroke="#B895B2" stroke-width="2.86476" stroke-linecap="round" stroke-linejoin="round" stroke-miterlimit="10" fill="none" fill-rule="evenodd"/></g></svg>