<svg width="397" height="262" xmlns="http://www.w3.org/2000/svg" xmlns:xlink="http://www.w3.org/1999/xlink" xml:space="preserve" overflow="hidden"><g transform="translate(-2389 -1033)"><path d="M2391 1164C2391 1092.76 2478.98 1035 2587.5 1035 2696.02 1035 2784 1092.76 2784 1164 2784 1235.24 2696.02 1293 2587.5 1293 2478.98 1293 2391 1235.24 2391 1164Z" fill="#FBE5E8" fill-rule="evenodd"/><path d="M2748.34 1157.22C2748.34 1223.81 2662.78 1271.9 2562.19 1271.9 2532.12 1271.9 2497.44 1264.5 2472 1255.87 2487.03 1264.5 2503.22 1270.67 2521.72 1275.6 2542.53 1280.53 2564.5 1283 2586.47 1283 2687.06 1283 2768 1229.98 2768 1164.62 2768 1132.56 2748.34 1102.96 2717.12 1082 2731 1101.73 2748.34 1121.46 2748.34 1157.22Z" fill="#F8CFD6" fill-rule="evenodd"/><path d="M2470.91 1100.64C2504.44 1073.44 2558.78 1058.6 2616.59 1058.6 2647.81 1058.6 2675.56 1063.55 2701 1072.2 2669.78 1054.89 2629.31 1045 2586.53 1045 2485.94 1045 2405 1098.17 2405 1163.7 2405 1187.2 2415.41 1209.45 2433.91 1228 2405 1164.94 2446.62 1121.66 2470.91 1100.64Z" fill="#FEF4F5" fill-rule="evenodd"/><path d="M2461 1102.5C2461 1094.49 2466.6 1088 2473.5 1088 2480.4 1088 2486 1094.49 2486 1102.5 2486 1110.51 2480.4 1117 2473.5 1117 2466.6 1117 2461 1110.51 2461 1102.5Z" fill="#FFFFFF" fill-rule="evenodd"/><path d="M2490 1087C2490 1082.58 2493.13 1079 2497 1079 2500.87 1079 2504 1082.58 2504 1087 2504 1091.42 2500.87 1095 2497 1095 2493.13 1095 2490 1091.42 2490 1087Z" fill="#FFFFFF" fill-rule="evenodd"/><path d="M2445 1122.5C2445 1118.36 2448.13 1115 2452 1115 2455.87 1115 2459 1118.36 2459 1122.5 2459 1126.64 2455.87 1130 2452 1130 2448.13 1130 2445 1126.64 2445 1122.5Z" fill="#FFFFFF" fill-rule="evenodd"/><path d="M2391 1164C2391 1092.76 2478.98 1035 2587.5 1035 2696.02 1035 2784 1092.76 2784 1164 2784 1235.24 2696.02 1293 2587.5 1293 2478.98 1293 2391 1235.24 2391 1164Z" stroke="#58585A" stroke-width="4.0106" stroke-linecap="round" stroke-linejoin="round" stroke-miterlimit="10" fill="none" fill-rule="evenodd"/><path d="M2489 1174.5C2489 1121.2 2530.19 1078 2581 1078 2631.81 1078 2673 1121.2 2673 1174.5 2673 1227.8 2631.81 1271 2581 1271 2530.19 1271 2489 1227.8 2489 1174.5Z" fill="#FDE0BC" fill-rule="evenodd"/><path d="M2651.08 1165.4C2651.08 1215.08 2612.82 1254.82 2566.43 1254.82 2552.51 1254.82 2538.6 1251.1 2527 1244.89 2533.96 1251.1 2542.08 1256.06 2550.19 1259.79 2559.47 1263.52 2569.91 1266 2580.34 1266 2626.73 1266 2665 1225.02 2665 1175.34 2665 1150.5 2655.72 1128.15 2641.81 1112 2647.61 1126.9 2651.08 1136.84 2651.08 1165.4Z" fill="#FCD29D" fill-rule="evenodd"/><path d="M2527.08 1127.12C2542.05 1106.18 2567.38 1095.09 2593.86 1095.09 2608.82 1095.09 2621.49 1098.79 2633 1104.95 2619.19 1092.62 2600.76 1084 2580.04 1084 2533.99 1084 2496 1124.66 2496 1173.95 2496 1192.43 2500.6 1208.45 2508.66 1222 2496 1175.18 2515.57 1141.91 2527.08 1127.12Z" fill="#FFF2E4" fill-rule="evenodd"/><path d="M2489.5 1175C2489.5 1121.7 2530.69 1078.5 2581.5 1078.5 2632.31 1078.5 2673.5 1121.7 2673.5 1175 2673.5 1228.3 2632.31 1271.5 2581.5 1271.5 2530.69 1271.5 2489.5 1228.3 2489.5 1175Z" stroke="#FFFFFF" stroke-width="2.86476" stroke-linecap="round" stroke-linejoin="round" stroke-miterlimit="10" fill="none" fill-rule="evenodd"/><path d="M2528 1113.5C2528 1108.81 2531.58 1105 2536 1105 2540.42 1105 2544 1108.81 2544 1113.5 2544 1118.19 2540.42 1122 2536 1122 2531.58 1122 2528 1118.19 2528 1113.5Z" fill="#FFFFFF" fill-rule="evenodd"/><path d="M2547 1105C2547 1102.24 2549.01 1100 2551.5 1100 2553.99 1100 2556 1102.24 2556 1105 2556 1107.76 2553.99 1110 2551.5 1110 2549.01 1110 2547 1107.76 2547 1105Z" fill="#FFFFFF" fill-rule="evenodd"/><path d="M2517 1127C2517 1124.24 2519.24 1122 2522 1122 2524.76 1122 2527 1124.24 2527 1127 2527 1129.76 2524.76 1132 2522 1132 2519.24 1132 2517 1129.76 2517 1127Z" fill="#FFFFFF" fill-rule="evenodd"/><path d="M2548.8 1118C2544 1133.79 2544 1155.64 2556 1169" stroke="#690254" stroke-width="4.0106" stroke-linecap="round" stroke-linejoin="round" stroke-miterlimit="10" fill="none" fill-rule="evenodd"/><path d="M2532 1124C2548.33 1136.42 2550.67 1161.27 2574 1165" stroke="#690254" stroke-width="4.0106" stroke-linecap="round" stroke-linejoin="round" stroke-miterlimit="10" fill="none" fill-rule="evenodd"/><path d="M2514 1176C2524.54 1195.66 2544.44 1207.94 2562 1219" stroke="#690254" stroke-width="4.0106" stroke-linecap="round" stroke-linejoin="round" stroke-miterlimit="10" fill="none" fill-rule="evenodd"/><path d="M2512 1199C2521.22 1201.67 2531.59 1199 2539.65 1201.67 2548.87 1203 2556.94 1208.33 2565 1211" stroke="#690254" stroke-width="4.0106" stroke-linecap="round" stroke-linejoin="round" stroke-miterlimit="10" fill="none" fill-rule="evenodd"/><path d="M2645 1208C2639.27 1231.29 2617.49 1239.87 2598 1246" stroke="#690254" stroke-width="4.0106" stroke-linecap="round" stroke-linejoin="round" stroke-miterlimit="10" fill="none" fill-rule="evenodd"/><path d="M2598 1230.38C2614.18 1234.88 2634.98 1236 2650 1227" stroke="#690254" stroke-width="4.0106" stroke-linecap="round" stroke-linejoin="round" stroke-miterlimit="10" fill="none" fill-rule="evenodd"/><path d="M2621 1115C2641 1133.61 2634.33 1155.94 2632.11 1182" stroke="#690254" stroke-width="4.0106" stroke-linecap="round" stroke-linejoin="round" stroke-miterlimit="10" fill="none" fill-rule="evenodd"/><path d="M2613 1125C2619.94 1129.97 2629.19 1132.45 2634.97 1138.67 2645.37 1147.36 2645.37 1154.82 2650 1166" stroke="#690254" stroke-width="4.0106" stroke-linecap="round" stroke-linejoin="round" stroke-miterlimit="10" fill="none" fill-rule="evenodd"/><path d="M2609.48 1150C2613 1172.15 2597.76 1202.92 2579 1214" stroke="#690254" stroke-width="4.0106" stroke-linecap="round" stroke-linejoin="round" stroke-miterlimit="10" fill="none" fill-rule="evenodd"/><path d="M2579 1197C2597.53 1193.22 2613.74 1186.91 2623 1168" stroke="#690254" stroke-width="4.0106" stroke-linecap="round" stroke-linejoin="round" stroke-miterlimit="10" fill="none" fill-rule="evenodd"/><path d="M2530 1238C2547.5 1250 2566.17 1248.8 2586 1246.4" stroke="#690254" stroke-width="4.0106" stroke-linecap="round" stroke-linejoin="round" stroke-miterlimit="10" fill="none" fill-rule="evenodd"/><path d="M2540 1234C2548.2 1249.71 2565.77 1258.17 2581 1263" stroke="#690254" stroke-width="4.0106" stroke-linecap="round" stroke-linejoin="round" stroke-miterlimit="10" fill="none" fill-rule="evenodd"/><path d="M2581 1101C2594 1112.06 2589.27 1130.49 2583.36 1144" stroke="#690254" stroke-width="4.0106" stroke-linecap="round" stroke-linejoin="round" stroke-miterlimit="10" fill="none" fill-rule="evenodd"/><path d="M2574 1142C2584.64 1126.07 2598.82 1111.38 2600 1093" stroke="#690254" stroke-width="4.0106" stroke-linecap="round" stroke-linejoin="round" stroke-miterlimit="10" fill="none" fill-rule="evenodd"/></g></svg>