<svg width="319" height="210" xmlns="http://www.w3.org/2000/svg" xmlns:xlink="http://www.w3.org/1999/xlink" xml:space="preserve" overflow="hidden"><g transform="translate(-1483 -1510)"><path d="M1485 1615C1485 1558.11 1555.52 1512 1642.5 1512 1729.48 1512 1800 1558.11 1800 1615 1800 1671.89 1729.48 1718 1642.5 1718 1555.52 1718 1485 1671.89 1485 1615Z" fill="#FBE5E8" fill-rule="evenodd"/><path d="M1769.81 1609.6C1769.81 1662.77 1701.6 1701.11 1621.83 1701.11 1597.56 1701.11 1568.65 1696.16 1549 1688.74 1560.56 1696.16 1574.43 1701.11 1589.46 1704.82 1605.65 1708.53 1622.99 1711 1641.49 1711 1721.26 1711 1786 1667.72 1786 1615.78 1786 1589.81 1769.81 1566.31 1745.54 1549 1757.1 1565.08 1769.81 1579.92 1769.81 1609.6Z" fill="#F8CFD6" fill-rule="evenodd"/><path d="M1548.4 1565.02C1575.11 1542.63 1618.06 1530.19 1664.5 1530.19 1688.88 1530.19 1712.1 1533.92 1733 1541.39 1707.46 1527.71 1674.95 1519 1640.12 1519 1560.01 1519 1495 1562.53 1495 1614.76 1495 1634.66 1503.13 1652.08 1517.06 1667 1495 1616.01 1528.67 1581.18 1548.4 1565.02Z" fill="#FEF4F5" fill-rule="evenodd"/><path d="M1541 1565.5C1541 1559.7 1545.7 1555 1551.5 1555 1557.3 1555 1562 1559.7 1562 1565.5 1562 1571.3 1557.3 1576 1551.5 1576 1545.7 1576 1541 1571.3 1541 1565.5Z" fill="#FFFFFF" fill-rule="evenodd"/><path d="M1565 1553C1565 1549.69 1567.46 1547 1570.5 1547 1573.54 1547 1576 1549.69 1576 1553 1576 1556.31 1573.54 1559 1570.5 1559 1567.46 1559 1565 1556.31 1565 1553Z" fill="#FFFFFF" fill-rule="evenodd"/><path d="M1528 1582.5C1528 1578.91 1530.46 1576 1533.5 1576 1536.54 1576 1539 1578.91 1539 1582.5 1539 1586.09 1536.54 1589 1533.5 1589 1530.46 1589 1528 1586.09 1528 1582.5Z" fill="#FFFFFF" fill-rule="evenodd"/><path d="M1485 1615C1485 1558.11 1555.52 1512 1642.5 1512 1729.48 1512 1800 1558.11 1800 1615 1800 1671.89 1729.48 1718 1642.5 1718 1555.52 1718 1485 1671.89 1485 1615Z" stroke="#58585A" stroke-width="4.0106" stroke-linecap="round" stroke-linejoin="round" stroke-miterlimit="10" fill="none" fill-rule="evenodd"/><path d="M1573 1617.5C1573 1574.7 1605.68 1540 1646 1540 1686.32 1540 1719 1574.7 1719 1617.5 1719 1660.3 1686.32 1695 1646 1695 1605.68 1695 1573 1660.3 1573 1617.5Z" fill="#FDE0BC" fill-rule="evenodd"/><path d="M1700.42 1609.08C1700.42 1650.16 1670.32 1682.53 1633.26 1682.53 1621.68 1682.53 1611.26 1678.8 1602 1673.82 1607.79 1678.8 1613.58 1682.53 1620.53 1685.02 1628.63 1688.76 1636.74 1690 1644.84 1690 1681.89 1690 1712 1657.63 1712 1617.8 1712 1597.88 1705.05 1580.45 1693.47 1568 1699.26 1579.2 1700.42 1586.67 1700.42 1609.08Z" fill="#FCD29D" fill-rule="evenodd"/><path d="M1602.32 1579.53C1615.05 1562.27 1634.74 1553.63 1656.74 1553.63 1668.32 1553.63 1678.74 1556.1 1688 1562.27 1676.42 1551.17 1661.37 1545 1645.16 1545 1608.11 1545 1578 1578.3 1578 1617.77 1578 1631.33 1581.47 1644.9 1588.42 1656 1578 1617.77 1593.05 1591.87 1602.32 1579.53Z" fill="#FFF2E4" fill-rule="evenodd"/><path d="M1573.5 1618C1573.5 1575.2 1606.18 1540.5 1646.5 1540.5 1686.82 1540.5 1719.5 1575.2 1719.5 1618 1719.5 1660.8 1686.82 1695.5 1646.5 1695.5 1606.18 1695.5 1573.5 1660.8 1573.5 1618Z" stroke="#FFFFFF" stroke-width="2.86476" stroke-linecap="round" stroke-linejoin="round" stroke-miterlimit="10" fill="none" fill-rule="evenodd"/><path d="M1602 1567.5C1602 1561.7 1606.48 1557 1612 1557 1617.52 1557 1622 1561.7 1622 1567.5 1622 1573.3 1617.52 1578 1612 1578 1606.48 1578 1602 1573.3 1602 1567.5Z" fill="#FFFFFF" fill-rule="evenodd"/><path d="M1624 1556C1624 1552.69 1626.46 1550 1629.5 1550 1632.54 1550 1635 1552.69 1635 1556 1635 1559.31 1632.54 1562 1629.5 1562 1626.46 1562 1624 1559.31 1624 1556Z" fill="#FFFFFF" fill-rule="evenodd"/><path d="M1594 1584C1594 1580.69 1596.46 1578 1599.5 1578 1602.54 1578 1605 1580.69 1605 1584 1605 1587.31 1602.54 1590 1599.5 1590 1596.46 1590 1594 1587.31 1594 1584Z" fill="#FFFFFF" fill-rule="evenodd"/><path d="M1600 1650.25C1604.65 1650.25 1609.3 1651.37 1613.95 1651.37 1618.6 1651.37 1625.58 1648 1631.4 1648 1638.37 1650.25 1640.7 1657 1650 1655.87" stroke="#690254" stroke-width="4.0106" stroke-linecap="round" stroke-linejoin="round" stroke-miterlimit="10" fill="none" fill-rule="evenodd"/><path d="M1642 1572C1644.2 1581.96 1647.5 1589.42 1650.8 1599.38 1653 1609.33 1648.6 1616.8 1649.7 1628" stroke="#690254" stroke-width="4.0106" stroke-linecap="round" stroke-linejoin="round" stroke-miterlimit="10" fill="none" fill-rule="evenodd"/><path d="M1690 1600C1687.57 1606.03 1679.07 1609.66 1673 1614.48 1674.21 1621.72 1674.21 1627.76 1673 1635" stroke="#690254" stroke-width="4.0106" stroke-linecap="round" stroke-linejoin="round" stroke-miterlimit="10" fill="none" fill-rule="evenodd"/><path d="M1592 1628C1596.71 1625.57 1601.41 1624.35 1607.29 1621.91 1609.65 1621.91 1621.41 1621.91 1623.76 1619.48 1627.29 1615.83 1627.29 1606.09 1632 1600" stroke="#690254" stroke-width="4.0106" stroke-linecap="round" stroke-linejoin="round" stroke-miterlimit="10" fill="none" fill-rule="evenodd"/><path d="M1659 1566C1668.54 1569.67 1669.73 1578.22 1673.31 1585.56 1679.27 1581.89 1685.23 1584.33 1690 1588" stroke="#690254" stroke-width="4.0106" stroke-linecap="round" stroke-linejoin="round" stroke-miterlimit="10" fill="none" fill-rule="evenodd"/><path d="M1659 1679C1669.5 1675.25 1664.83 1664 1669.5 1659 1670.67 1657.75 1676.5 1656.5 1677.67 1655.25 1684.67 1652.75 1688.17 1649 1694 1644" stroke="#690254" stroke-width="4.0106" stroke-linecap="round" stroke-linejoin="round" stroke-miterlimit="10" fill="none" fill-rule="evenodd"/></g></svg>