<svg width="151" height="517" xmlns="http://www.w3.org/2000/svg" xmlns:xlink="http://www.w3.org/1999/xlink" xml:space="preserve" overflow="hidden"><g transform="translate(-1426 -675)"><path d="M1531 817.703C1531 675 1531 675 1531 675 1529.55 679.324 1528.11 687.973 1512.18 690.856 1517.97 693.739 1522.32 699.505 1522.32 706.712 1522.32 718.243 1513.63 726.892 1503.5 726.892 1491.92 726.892 1484.68 718.243 1484.68 706.712 1484.68 699.505 1487.58 693.739 1494.82 690.856 1477.45 687.973 1476 679.324 1476 675 1476 817.703 1476 817.703 1476 817.703 1476 827.793 1481.79 835 1503.5 835 1525.21 835 1531 827.793 1531 817.703Z" fill="#F7AD36" fill-rule="evenodd"/><path d="M1531 817.703C1531 675 1531 675 1531 675 1531 676.442 1529.55 682.207 1526.65 683.649 1526.65 817.703 1526.65 817.703 1526.65 817.703 1526.65 826.351 1522.3 835 1502 835 1502 835 1502 835 1503.45 835 1525.2 835 1531 827.793 1531 817.703Z" fill="#FACF71" fill-rule="evenodd"/><path d="M1512.18 690.856C1517.97 693.739 1522.32 699.505 1522.32 706.712 1522.32 716.802 1516.53 724.009 1507.84 726.892 1507.84 726.892 1509.29 726.892 1510.74 726.892 1520.87 725.451 1526.66 718.243 1526.66 706.712 1526.66 699.505 1523.76 693.739 1517.97 690.856 1526.66 689.415 1531 682.207 1531 676.442 1531 675 1531 675 1531 675 1529.55 679.324 1528.11 687.973 1512.18 690.856ZM1507.84 835C1487.58 833.559 1483.24 826.351 1483.24 817.703 1483.24 686.532 1483.24 686.532 1483.24 686.532 1477.45 683.649 1476 677.883 1476 675 1476 817.703 1476 817.703 1476 817.703 1476 827.793 1481.79 835 1503.5 835 1504.95 835 1506.39 835 1507.84 835Z" fill="#F08B37" fill-rule="evenodd"/><path d="M1531 817.703C1531 675 1531 675 1531 675 1529.55 679.324 1528.11 687.973 1512.18 690.856 1517.97 693.739 1522.32 699.505 1522.32 706.712 1522.32 718.243 1513.63 726.892 1503.5 726.892 1491.92 726.892 1484.68 718.243 1484.68 706.712 1484.68 699.505 1487.58 693.739 1494.82 690.856 1477.45 687.973 1476 679.324 1476 675 1476 817.703 1476 817.703 1476 817.703 1476 827.793 1481.79 835 1503.5 835 1525.21 835 1531 827.793 1531 817.703Z" stroke="#343434" stroke-width="1.71893" stroke-miterlimit="8" fill="none" fill-rule="evenodd"/><path d="M1533 1173.86C1533 1011 1533 1011 1533 1011 1531.55 1015.29 1531.55 1022.43 1514.18 1025.29 1519.97 1028.14 1524.32 1035.29 1524.32 1042.43 1524.32 1052.43 1515.63 1061 1505.5 1061 1495.37 1061 1486.68 1052.43 1486.68 1042.43 1486.68 1035.29 1491.03 1028.14 1496.82 1025.29 1479.45 1022.43 1479.45 1015.29 1478 1011 1478 1173.86 1478 1173.86 1478 1173.86 1478 1183.86 1483.79 1191 1505.5 1191 1527.21 1191 1533 1183.86 1533 1173.86Z" fill="#F7AD36" fill-rule="evenodd"/><path d="M1533 1173.86C1533 1011 1533 1011 1533 1011 1533 1012.43 1531.55 1016.71 1528.65 1019.57 1528.65 1173.86 1528.65 1173.86 1528.65 1173.86 1528.65 1183.86 1524.3 1191 1504 1191 1504 1191 1505.45 1191 1505.45 1191 1527.2 1191 1533 1183.86 1533 1173.86Z" fill="#FACF71" fill-rule="evenodd"/><path d="M1514.18 1025.29C1519.97 1028.14 1524.32 1035.29 1524.32 1042.43 1524.32 1051 1518.53 1059.57 1509.84 1061 1511.29 1061 1511.29 1061 1512.74 1061 1522.87 1061 1528.66 1052.43 1528.66 1042.43 1528.66 1035.29 1525.76 1028.14 1519.97 1025.29 1528.66 1023.86 1533 1016.71 1533 1011 1533 1011 1533 1011 1533 1011 1531.55 1015.29 1531.55 1022.43 1514.18 1025.29ZM1509.84 1191C1489.58 1191 1485.24 1182.43 1485.24 1173.86 1485.24 1022.43 1485.24 1022.43 1485.24 1022.43 1479.45 1019.57 1478 1012.43 1478 1011 1478 1173.86 1478 1173.86 1478 1173.86 1478 1183.86 1483.79 1191 1505.5 1191 1506.95 1191 1508.39 1191 1509.84 1191Z" fill="#F08B37" fill-rule="evenodd"/><path d="M1533.5 1174.36C1533.5 1011.5 1533.5 1011.5 1533.5 1011.5 1532.05 1015.79 1532.05 1022.93 1514.68 1025.79 1520.47 1028.64 1524.82 1035.79 1524.82 1042.93 1524.82 1052.93 1516.13 1061.5 1506 1061.5 1495.87 1061.5 1487.18 1052.93 1487.18 1042.93 1487.18 1035.79 1491.53 1028.64 1497.32 1025.79 1479.95 1022.93 1479.95 1015.79 1478.5 1011.5 1478.5 1174.36 1478.5 1174.36 1478.5 1174.36 1478.5 1184.36 1484.29 1191.5 1506 1191.5 1527.71 1191.5 1533.5 1184.36 1533.5 1174.36Z" stroke="#343434" stroke-width="1.14583" stroke-miterlimit="8" fill="none" fill-rule="evenodd"/><text fill="#FE8002" font-family="Arial,Arial_MSFontService,sans-serif" font-weight="400" font-size="83" transform="matrix(1 0 0 1 1476.18 948)">T</text></g></svg>