<svg width="54" height="58" xmlns="http://www.w3.org/2000/svg" xmlns:xlink="http://www.w3.org/1999/xlink" xml:space="preserve" overflow="hidden"><g transform="translate(-1627 -2059)"><path d="M1628 2088C1628 2072.54 1639.64 2060 1654 2060 1668.36 2060 1680 2072.54 1680 2088 1680 2103.46 1668.36 2116 1654 2116 1639.64 2116 1628 2103.46 1628 2088Z" fill="#31BDEA" fill-rule="evenodd"/><path d="M1675 2080.77C1673.54 2076 1673.54 2079.18 1673.54 2083.95 1673.54 2096.68 1661.85 2106.23 1650.15 2106.23 1647.23 2106.23 1642.85 2104.64 1639.92 2103.05 1638.46 2103.05 1637 2103.05 1638.46 2104.64 1642.85 2109.41 1647.23 2111 1654.54 2111 1666.23 2111 1675 2101.45 1675 2088.73 1675 2085.55 1675 2082.36 1675 2080.77Z" fill="#009EE0" fill-rule="evenodd"/><path d="M1655 2111C1666.43 2111 1675 2101.57 1675 2089 1675 2092.14 1670.71 2109.43 1655 2111Z" fill="#007FB5" fill-rule="evenodd"/><path d="M1657.7 2066.57C1641.41 2065 1635.48 2076 1634 2083.86 1634 2085.43 1634 2088.57 1635.48 2090.14 1635.48 2093.29 1638.44 2098 1645.85 2094.86 1653.26 2093.29 1651.78 2085.43 1656.22 2087 1666.59 2088.57 1674 2080.71 1669.56 2072.86 1668.07 2069.71 1665.11 2068.14 1659.19 2066.57" fill="#ABDDF5" fill-rule="evenodd"/><path d="M1638 2079C1638 2076.24 1640.46 2074 1643.5 2074 1646.54 2074 1649 2076.24 1649 2079 1649 2081.76 1646.54 2084 1643.5 2084 1640.46 2084 1638 2081.76 1638 2079Z" fill="#FFFFFF" fill-rule="evenodd"/><path d="M1649 2075.5C1649 2074.12 1649.9 2073 1651 2073 1652.1 2073 1653 2074.12 1653 2075.5 1653 2076.88 1652.1 2078 1651 2078 1649.9 2078 1649 2076.88 1649 2075.5Z" fill="#FFFFFF" fill-rule="evenodd"/><path d="M1640 2088.5C1640 2087.67 1640.67 2087 1641.5 2087 1642.33 2087 1643 2087.67 1643 2088.5 1643 2089.33 1642.33 2090 1641.5 2090 1640.67 2090 1640 2089.33 1640 2088.5Z" fill="#FFFFFF" fill-rule="evenodd"/><path d="M1628 2088C1628 2072.54 1639.64 2060 1654 2060 1668.36 2060 1680 2072.54 1680 2088 1680 2103.46 1668.36 2116 1654 2116 1639.64 2116 1628 2103.46 1628 2088Z" stroke="#000000" stroke-width="2.29167" stroke-linecap="round" stroke-linejoin="round" stroke-miterlimit="10" fill="none" fill-rule="evenodd"/></g></svg>