<svg width="367" height="391" xmlns="http://www.w3.org/2000/svg" xmlns:xlink="http://www.w3.org/1999/xlink" xml:space="preserve" overflow="hidden"><g transform="translate(-1775 -540)"><path d="M1874.78 898.807C1874.78 876.974 1864.53 850.29 1861.11 843.013 1856.56 835.736 1854.28 822.394 1856.56 813.903 1857.69 805.413 1861.11 799.349 1866.81 795.71 1870.22 793.284 1872.5 789.645 1873.64 786.007 1874.78 779.942 1872.5 776.303 1870.22 772.665 1864.53 766.6 1861.11 758.11 1861.11 748.407 1862.25 737.49 1866.81 729 1874.78 722.936 1878.19 720.51 1880.47 718.084 1881.61 714.445 1882.75 710.807 1881.61 705.955 1879.33 701.103 1875.92 693.826 1874.78 686.548 1875.92 678.058 1878.19 669.568 1882.75 662.29 1888.44 658.652 1899.83 647.736 1902.11 633.181 1902.11 612.561 1902.11 579.813 1886.17 562.832 1865.67 562.832 1861.11 562.832 1856.56 564.045 1852 566.471 1852 565.258 1852 565.258 1852 565.258 1873.64 553.129 1905.53 541 1953.36 541 1954.5 541 1954.5 541 1954.5 541 2002.33 541 2035.36 553.129 2057 565.258 2057 565.258 2057 565.258 2057 565.258 2052.44 564.045 2047.89 562.832 2042.19 562.832 2021.69 562.832 2005.75 579.813 2005.75 612.561 2005.75 701.103 2005.75 701.103 2005.75 701.103 2005.75 705.955 2006.89 719.297 2010.31 725.361 2011.44 727.787 2022.83 737.49 2025.11 758.11 2027.39 776.303 2020.56 788.432 2022.83 800.561 2023.97 809.052 2029.67 811.478 2030.81 811.478 2039.92 816.329 2046.75 824.819 2047.89 838.161 2049.03 845.439 2047.89 852.716 2044.47 858.781 2043.33 859.994 2038.78 872.123 2039.92 881.826 2041.06 893.955 2046.75 904.871 2055.86 910.936 2041.06 907.297 2023.97 902.445 2006.89 902.445 1989.81 902.445 1969.31 907.297 1953.36 912.148 1957.92 903.658 1960.19 893.955 1962.47 885.465 1963.61 876.974 1960.19 869.697 1959.06 868.484 1955.64 861.207 1954.5 852.716 1956.78 844.226 1959.06 833.31 1964.75 826.032 1971.58 821.181 1976.14 818.755 1978.42 815.116 1979.56 807.839 1980.69 799.349 1977.28 792.071 1976.14 789.645 1972.72 782.368 1971.58 772.665 1972.72 764.174 1975 752.045 1979.56 745.981 1987.53 738.703 2004.61 721.723 2004.61 701.103 2004.61 688.974 2004.61 612.561 2004.61 612.561 2004.61 612.561 2004.61 579.813 1992.08 562.832 1954.5 562.832 1954.5 562.832 1954.5 562.832 1954.5 562.832 1954.5 562.832 1954.5 562.832 1954.5 562.832 1953.36 562.832 1953.36 562.832 1953.36 562.832 1916.92 562.832 1907.81 581.026 1907.81 613.774 1907.81 639.245 1911.22 646.523 1916.92 655.013 1922.61 661.078 1924.89 669.568 1924.89 679.271 1923.75 687.761 1921.47 695.039 1916.92 701.103 1912.36 704.742 1911.22 709.594 1911.22 715.658 1911.22 721.723 1912.36 725.361 1914.64 730.213 1920.33 737.49 1922.61 748.407 1920.33 760.536 1919.19 770.239 1913.5 777.516 1906.67 781.155 1905.53 782.368 1900.97 786.007 1899.83 790.858 1898.69 795.71 1900.97 805.413 1903.25 807.839 1907.81 813.903 1908.94 826.032 1908.94 834.523 1907.81 844.226 1904.39 852.716 1897.56 858.781 1891.86 866.058 1885.03 891.529 1890.72 908.51 1891.86 912.148 1894.14 914.574 1896.42 917 1891.86 915.787 1887.31 914.574 1882.75 914.574 1878.19 914.574 1872.5 915.787 1867.94 917 1872.5 913.361 1874.78 907.297 1874.78 898.807Z" fill="#009C31" fill-rule="evenodd"/><path d="M2042.5 563C2064.17 563 2080.13 579.97 2080.13 612.697 2080.13 650.273 2073.29 714.515 2106.36 778.758 2129.17 812.697 2137.16 822.394 2139.44 849.061 2144 881.788 2123.47 913.303 2089.26 918.151 2061.88 923 2042.5 904.818 2040.21 881.788 2039.07 872.091 2043.64 859.97 2044.78 858.758 2048.2 852.697 2049.34 845.424 2048.2 838.151 2047.06 824.818 2040.21 816.333 2031.09 811.485 2029.95 811.485 2024.25 809.061 2023.11 800.576 2020.83 788.455 2027.67 776.333 2025.39 758.151 2023.11 737.545 2011.7 727.849 2010.56 725.424 2007.14 719.364 2006 706.03 2006 701.182 2006 612.697 2006 612.697 2006 612.697 2006 579.97 2021.97 563 2042.5 563Z" fill="#80BE78" fill-rule="evenodd"/><path d="M1890.71 908.937C1895.29 921.076 1909 932 1931.86 928.358 1953.57 925.931 1959.29 902.868 1962.71 885.875 1963.86 877.378 1960.43 870.095 1959.29 868.881 1955.86 861.599 1954.71 853.102 1957 844.605 1959.29 833.681 1965 826.398 1971.86 821.543 1976.43 819.115 1978.71 815.474 1979.86 808.191 1981 799.694 1977.57 792.411 1976.43 789.984 1973 782.701 1971.86 772.99 1973 764.493 1975.29 752.355 1979.86 746.286 1987.86 739.003 2005 722.01 2005 701.375 2005 689.237 2005 612.766 2005 612.766 2005 612.766 2005 579.993 1992.43 563 1954.71 563 1954.71 563 1954.71 563 1954.71 563 1954.71 563 1954.71 563 1954.71 563 1953.57 563 1953.57 563 1953.57 563 1917 563 1907.86 581.207 1907.86 613.98 1907.86 639.47 1911.29 646.753 1917 655.25 1922.71 661.319 1925 669.816 1925 679.526 1923.86 688.023 1921.57 695.306 1917 701.375 1912.43 705.016 1911.29 709.872 1911.29 715.941 1911.29 722.01 1912.43 725.651 1914.71 730.507 1920.43 737.789 1922.71 748.714 1920.43 760.852 1919.29 770.562 1913.57 777.845 1906.71 781.487 1905.57 782.701 1901 786.342 1899.86 791.197 1898.71 796.053 1901 805.763 1903.29 808.191 1907.86 814.26 1909 826.398 1909 834.895 1907.86 844.605 1904.43 853.102 1897.57 859.171 1891.86 866.454 1885 891.944 1890.71 908.937Z" fill="#80BE78" fill-rule="evenodd"/><path d="M1889.24 658.91C1883.51 662.552 1878.93 669.836 1876.63 678.335 1875.49 686.833 1876.63 694.117 1880.07 701.401 1882.37 706.258 1883.51 711.114 1882.37 714.756 1881.22 718.398 1878.93 720.826 1875.49 723.254 1867.46 729.324 1862.88 737.823 1861.73 748.749 1861.73 758.462 1865.17 766.96 1870.9 773.03 1873.2 776.672 1875.49 780.314 1874.34 786.385 1873.2 790.027 1870.9 793.669 1867.46 796.097 1861.73 799.739 1858.29 805.809 1857.15 814.308 1854.85 822.806 1857.15 836.161 1861.73 843.445 1865.17 850.729 1875.49 877.438 1875.49 899.291 1875.49 919.93 1860.59 926 1841.1 926 1830.78 926 1790.66 922.358 1779.2 875.01 1762 809.452 1830.78 711.114 1831.93 688.047 1834.22 658.91 1831.93 651.625 1831.93 613.99 1831.93 579.997 1845.68 563 1866.32 563 1886.95 563 1903 579.997 1903 612.776 1903 633.415 1900.71 647.983 1889.24 658.91Z" fill="#80BE78" fill-rule="evenodd"/><path d="M1845.85 919.575C1835.55 919.575 1797.77 922 1785.17 874.709 1768 809.228 1837.84 711.008 1840.13 687.968 1841.28 658.866 1838.99 651.591 1838.99 614 1842.42 632.189 1847 675.842 1845.85 694.031 1843.57 712.22 1797.77 781.339 1796.62 833.48 1796.62 884.409 1812.65 919.575 1845.85 919.575Z" fill="#00A03E" fill-rule="evenodd"/><path d="M1845 919.575C1834.86 919.575 1797.67 922 1785.27 874.712 1774 829.85 1803.3 769.225 1822.46 728 1813.44 748.613 1780.76 826.213 1793.16 873.5 1803.3 911.087 1833.73 922 1845 919.575Z" fill="#008C2D" fill-rule="evenodd"/><path d="M1862.74 797C1858.11 800.643 1855.79 805.5 1854.63 812.786 1852.32 821.286 1854.63 835.857 1858.11 841.929 1862.74 849.214 1872 877.143 1872 899 1872 899 1872 899 1872 899 1869.68 865 1859.26 851.643 1854.63 845.571 1851.16 837.072 1850 823.714 1851.16 814 1853.47 805.5 1858.11 801.857 1862.74 797Z" fill="#E0EEDB" fill-rule="evenodd"/><path d="M1868.71 726C1863 730.93 1859.57 739.558 1859.57 748.186 1859.57 758.046 1861.86 766.674 1866.43 772.837 1868.71 775.302 1869.86 776.535 1871 779 1871 779 1871 779 1871 779 1869.86 777.767 1866.43 775.302 1865.29 772.837 1859.57 766.674 1855 759.279 1855 748.186 1856.14 738.326 1863 729.698 1868.71 726Z" fill="#E0EEDB" fill-rule="evenodd"/><path d="M1900 611.454C1900 629.648 1898.85 645.417 1886.22 657.546 1880.48 661.185 1874.74 669.676 1873.59 676.954 1871.3 684.231 1872.44 693.935 1875.89 700 1875.89 700 1875.89 700 1875.89 700 1872.44 692.722 1869 684.231 1871.3 675.741 1873.59 666.037 1878.19 658.759 1885.07 653.907 1895.41 644.204 1895.41 632.074 1895.41 611.454 1895.41 593.259 1891.96 576.278 1880.48 569 1880.48 569 1880.48 569 1880.48 569 1893.11 577.491 1900 590.833 1900 611.454Z" fill="#E0EEDB" fill-rule="evenodd"/><path d="M2136 855C2133.73 828.339 2130.31 824.703 2109.85 790.771 2087.11 754.415 2075.74 714.424 2076.88 691.398 2076.88 667.161 2075.74 640.5 2074.6 607.78 2073.47 584.754 2065.51 573.847 2053 569 2065.51 572.635 2068.92 594.449 2070.05 617.474 2072.33 647.771 2066.64 688.974 2071.19 721.695 2075.74 753.203 2090.52 771.381 2101.89 785.924 2113.26 801.678 2132.59 829.551 2136 855Z" fill="#E0EEDB" fill-rule="evenodd"/><path d="M2106 785C2084.47 749.644 2077.67 711.849 2076.53 688.685 2074.27 660.644 2077.67 643.575 2074.27 607 2074.27 628.945 2072 670.397 2074.27 694.781 2075.4 716.726 2083.33 753.302 2106 785Z" fill="#FFFFFF" fill-rule="evenodd"/><path d="M1991 729C1986.5 731.424 1978.62 741.121 1975.25 747.182 1970.75 758.091 1968.5 777.485 1971.87 785.97 1975.25 792.03 1978.62 802.939 1976.38 807.788 1976.38 809 1976.38 809 1976.38 807.788 1977.5 801.727 1971.87 789.606 1969.62 784.758 1964 772.636 1964 760.515 1970.75 747.182 1976.38 738.697 1984.25 731.424 1991 729Z" fill="#E0EEDB" fill-rule="evenodd"/><path d="M1982 737C1977.47 741.923 1965 761.615 1971.8 785 1966.13 772.692 1965 751.769 1982 737Z" fill="#FFFFFF" fill-rule="evenodd"/><path d="M1919.2 731.222C1922.5 736.111 1924.7 744.667 1924.7 752 1924.7 764.222 1919.2 777.667 1912.6 781.333 1906 785 1906 792.333 1906 794.778 1906 796 1906 794.778 1906 794.778 1906 789.889 1911.5 786.222 1913.7 785 1923.6 778.889 1928 770.333 1928 755.667 1928 744.667 1923.6 737.333 1919.2 730L1919.2 731.222Z" fill="#E0EEDB" fill-rule="evenodd"/><path d="M2039 814.21C2043.47 816.632 2047.94 823.895 2050.18 832.368 2052.41 843.263 2050.18 855.368 2046.82 863.842 2043.47 869.895 2042.35 878.368 2043.47 880.789 2043.47 882 2043.47 880.789 2043.47 880.789 2042.35 875.947 2046.82 869.895 2049.06 867.474 2055.76 855.368 2058 848.105 2053.53 833.579 2051.29 823.895 2045.71 817.842 2039 813L2039 814.21Z" fill="#E0EEDB" fill-rule="evenodd"/><path d="M1920.13 650C1924.4 654.909 1927.6 663.5 1928.67 670.864 1929.73 683.136 1925.47 696.636 1919.07 702.773 1918 702.773 1919.07 704 1921.2 701.545 1929.73 694.182 1934 688.045 1931.87 673.318 1930.8 662.273 1925.47 656.136 1920.13 650Z" fill="#E0EEDB" fill-rule="evenodd"/><path d="M1907.95 810.207C1911.4 813.827 1912.55 823.483 1912.55 831.931 1912.55 842.793 1907.95 854.862 1899.9 860.896 1896.45 864.517 1893 876.586 1893 879 1894.15 879 1894.15 879 1894.15 879 1894.15 874.172 1898.75 865.724 1901.05 864.517 1911.4 858.483 1916 850.034 1916 834.345 1916 824.69 1913.7 816.241 1907.95 809L1907.95 810.207Z" fill="#E0EEDB" fill-rule="evenodd"/><path d="M2018 730C2026.24 741.093 2033.29 755.884 2027.41 783 2034.47 770.674 2038 742.326 2018 730Z" fill="#E0EEDB" fill-rule="evenodd"/><path d="M1861.67 737C1859.44 743.111 1856.11 756.556 1865 770 1858.33 759 1855 750.444 1861.67 737Z" fill="#FFFFFF" fill-rule="evenodd"/><path d="M1853.17 819C1853.17 828.647 1855.5 835.883 1857.83 841.912 1861.33 847.941 1863.67 852.765 1866 860 1861.33 851.559 1857.83 846.735 1855.5 839.5 1853.17 832.265 1852 821.412 1853.17 819Z" fill="#FFFFFF" fill-rule="evenodd"/><path d="M1884 658C1879.6 661.682 1873 672.727 1873 685 1873 676.409 1874.1 664.136 1884 658Z" fill="#FFFFFF" fill-rule="evenodd"/><path d="M2044 569C2033.84 569 2015.77 578.704 2012.39 600.537 2010.13 621.157 2010.13 685.444 2011.26 700 2012.39 674.528 2009 581.13 2044 569Z" fill="#00A03E" fill-rule="evenodd"/><path d="M1958 568C1941.21 568 1921.07 572.839 1916.6 587.355 1912.12 601.871 1911 629.694 1916.6 643 1912.12 626.065 1911 577.677 1958 568Z" fill="#00A03E" fill-rule="evenodd"/><path d="M1959.5 868.163C1959.5 868.163 1960.62 870.582 1961.75 873 1956.12 850.023 1966.25 829.465 1973 821 1973 821 1973 821 1973 821 1973 821 1973 821 1971.88 821 1965.12 825.837 1959.5 833.093 1957.25 843.977 1955 852.442 1956.12 860.907 1959.5 868.163Z" fill="#00882C" fill-rule="evenodd"/><path d="M1956.27 907.16C1982.33 890.22 2014.07 891.43 2026.53 886.59 2028.8 875.7 1994.8 869.65 1980.07 869.65 1990.27 864.81 2011.8 861.18 2026.53 867.23 2027.67 867.23 2032.2 863.6 2032.2 861.18 2033.33 857.55 2034.47 852.71 2034.47 841.82 2034.47 826.09 2017.47 815.2 2015.2 813.99 2005 804.31 1991.4 805.52 1986.87 807.94 1995.93 801.89 2005 800.68 2012.93 803.1 2007.27 782.53 2018.6 774.06 2012.93 761.96 2008.4 748.65 1997.07 749.86 1988 755.91 1978.93 761.96 1974.4 786.16 1980.07 795.84 1978.93 795.84 1978.93 795.84 1978.93 795.84 1978.93 793.42 1977.8 791 1976.67 789.79 1973.27 782.53 1972.13 772.85 1973.27 764.38 1975.53 752.28 1980.07 746.23 1988 738.97 2005 722.03 2005 701.46 2005 689.36 2005 671.21 2005 671.21 2005 671.21 2006.13 670 2006.13 670 2006.13 670 2006.13 701.46 2006.13 701.46 2006.13 701.46 2006.13 706.3 2007.27 719.61 2010.67 725.66 2011.8 728.08 2023.13 737.76 2025.4 758.33 2027.67 776.48 2020.87 788.58 2023.13 800.68 2024.27 809.15 2029.93 811.57 2031.07 811.57 2040.13 816.41 2046.93 824.88 2048.07 838.19 2049.2 845.45 2048.07 852.71 2044.67 858.76 2043.53 859.97 2039 872.07 2040.13 881.75 2041.27 893.85 2046.93 904.74 2056 910.79 2041.27 907.16 2024.27 902.32 2007.27 902.32 1990.27 902.32 1969.87 907.16 1954 912 1955.13 910.79 1956.27 908.37 1956.27 907.16Z" fill="#00882C" fill-rule="evenodd"/><path d="M2028 565.053C2016.44 575.947 2006.03 588.053 2004.88 605 2004.88 590.474 2000.25 571.105 1991 559 2001.41 559 2012.97 561.421 2021.06 567.474" fill="#00882C" fill-rule="evenodd"/><path d="M1880.54 878.143C1882.82 866 1887.38 857.5 1891.94 849 1895.36 840.5 1898.78 824.714 1895.36 812.571 1891.94 799.214 1889.66 790.714 1895.36 779.786 1902.2 768.857 1910.18 750.643 1906.76 736.071 1903.34 721.5 1901.06 710.571 1906.76 699.643 1911.32 688.714 1911.32 662 1898.78 662 1888.52 662 1877.12 682.643 1878.26 698.429 1875.98 692.357 1874.84 685.071 1875.98 677.786 1878.26 669.286 1882.82 662 1888.52 658.357 1899.92 647.429 1902.2 632.857 1902.2 612.214 1902.2 592.786 1896.5 578.214 1887.38 570.929 1894.22 566.071 1905.62 560 1919.3 560 1917.02 566.071 1913.6 574.571 1912.46 584.286 1909.04 591.571 1907.9 601.286 1907.9 613.429 1907.9 638.929 1911.32 646.214 1917.02 654.714 1922.72 660.786 1925 669.286 1925 679 1923.86 687.5 1921.58 694.786 1917.02 700.857 1912.46 704.5 1911.32 709.357 1911.32 715.429 1911.32 721.5 1912.46 725.143 1914.74 730 1920.44 737.286 1922.72 748.214 1920.44 760.357 1919.3 770.071 1913.6 777.357 1906.76 781 1905.62 782.214 1901.06 785.857 1899.92 790.714 1898.78 795.571 1901.06 805.286 1903.34 807.714 1907.9 813.786 1909.04 825.929 1909.04 834.429 1907.9 844.143 1904.48 852.643 1897.64 858.714 1891.94 866 1885.1 891.5 1890.8 908.5 1891.94 912.143 1894.22 914.572 1896.5 917 1891.94 915.786 1887.38 914.572 1882.82 914.572 1878.26 914.572 1872.56 915.786 1868 917 1872.56 913.357 1874.84 907.286 1874.84 898.786 1874.84 895.143 1874.84 892.714 1873.7 890.286 1877.12 889.072 1879.4 885.429 1880.54 878.143Z" fill="#00882C" fill-rule="evenodd"/><path d="M1874.85 723.213C1874.85 723.213 1876 723.213 1876 722 1870.23 730.489 1862.15 752.319 1871.38 771.723 1872.54 775.362 1873.69 777.787 1873.69 779 1872.54 776.574 1871.38 775.362 1870.23 772.936 1864.46 766.872 1861 758.383 1861 748.681 1862.15 737.766 1866.77 729.276 1874.85 723.213Z" fill="#00882C" fill-rule="evenodd"/><path d="M1866.92 854.17C1866.92 856.585 1866.92 857.792 1866.92 859 1864.75 851.755 1862.58 846.925 1861.5 843.302 1857.17 836.057 1855 822.774 1857.17 814.321 1858.25 805.868 1861.5 799.83 1866.92 796.208 1866.92 796.208 1866.92 796.208 1868 796.208 1868 795 1868 795 1868 795 1860.42 802.245 1861.5 830.019 1866.92 854.17Z" fill="#00882C" fill-rule="evenodd"/><path d="M1863.6 808C1861.2 817.539 1860 830.654 1866 839 1863.6 831.846 1863.6 808 1863.6 808Z" fill="#FFFFFF" fill-rule="evenodd"/><path d="M1869.6 737C1866 746.846 1866 760.385 1872 769 1869.6 761.615 1869.6 737 1869.6 737Z" fill="#FFFFFF" fill-rule="evenodd"/><path d="M1967 834C1962.43 842.4 1959 854.4 1962.43 864 1961.29 856.8 1967 834 1967 834Z" fill="#FFFFFF" fill-rule="evenodd"/><path d="M1918 548C1901.73 548 1881.97 555.333 1875 559" fill="#FFFFFF" fill-rule="evenodd"/><path d="M1967 569.207C1979.83 568 1996.17 578.862 1999.67 592.138 2002 605.414 2002 629.552 2002 662.138 2002 694.724 2000.83 704.379 2000.83 708 1999.67 695.931 1998.5 633.172 1996.17 613.862 1993.83 593.345 1985.67 571.621 1967 569.207Z" fill="#E0EEDB" fill-rule="evenodd"/><path d="M1981.55 572.421C1992.91 578.474 2002 595.421 2002 662 2002 629.316 2002 605.105 1999.73 591.789 1997.45 583.316 1990.64 576.053 1982.68 572.421 1978.14 570 1977 570 1981.55 572.421Z" fill="#FFFFFF" fill-rule="evenodd"/><path d="M2042.5 563C2064.17 563 2080.13 579.97 2080.13 612.697 2080.13 650.273 2073.29 714.515 2106.36 778.758 2129.17 812.697 2137.16 822.394 2139.44 849.061 2144 881.788 2123.47 913.303 2089.26 918.151 2061.88 923 2042.5 904.818 2040.21 881.788 2039.07 872.091 2043.64 859.97 2044.78 858.758 2048.2 852.697 2049.34 845.424 2048.2 838.151 2047.06 824.818 2040.21 816.333 2031.09 811.485 2029.95 811.485 2024.25 809.061 2023.11 800.576 2020.83 788.455 2027.67 776.333 2025.39 758.151 2023.11 737.545 2011.7 727.849 2010.56 725.424 2007.14 719.364 2006 706.03 2006 701.182 2006 612.697 2006 612.697 2006 612.697 2006 579.97 2021.97 563 2042.5 563Z" stroke="#000000" stroke-width="2.29167" stroke-linecap="round" stroke-linejoin="round" stroke-miterlimit="10" fill="none" fill-rule="evenodd"/><path d="M1890.71 908.937C1895.29 921.076 1909 932 1931.86 928.358 1953.57 925.931 1959.29 902.868 1962.71 885.875 1963.86 877.378 1960.43 870.095 1959.29 868.881 1955.86 861.599 1954.71 853.102 1957 844.605 1959.29 833.681 1965 826.398 1971.86 821.543 1976.43 819.115 1978.71 815.474 1979.86 808.191 1981 799.694 1977.57 792.411 1976.43 789.984 1973 782.701 1971.86 772.99 1973 764.493 1975.29 752.355 1979.86 746.286 1987.86 739.003 2005 722.01 2005 701.375 2005 689.237 2005 612.766 2005 612.766 2005 612.766 2005 579.993 1992.43 563 1954.71 563 1954.71 563 1954.71 563 1954.71 563 1954.71 563 1954.71 563 1954.71 563 1953.57 563 1953.57 563 1953.57 563 1917 563 1907.86 581.207 1907.86 613.98 1907.86 639.47 1911.29 646.753 1917 655.25 1922.71 661.319 1925 669.816 1925 679.526 1923.86 688.023 1921.57 695.306 1917 701.375 1912.43 705.016 1911.29 709.872 1911.29 715.941 1911.29 722.01 1912.43 725.651 1914.71 730.507 1920.43 737.789 1922.71 748.714 1920.43 760.852 1919.29 770.562 1913.57 777.845 1906.71 781.487 1905.57 782.701 1901 786.342 1899.86 791.197 1898.71 796.053 1901 805.763 1903.29 808.191 1907.86 814.26 1909 826.398 1909 834.895 1907.86 844.605 1904.43 853.102 1897.57 859.171 1891.86 866.454 1885 891.944 1890.71 908.937Z" stroke="#000000" stroke-width="2.29167" stroke-linecap="round" stroke-linejoin="round" stroke-miterlimit="10" fill="none" fill-rule="evenodd"/><path d="M1889.24 658.91C1883.51 662.552 1878.93 669.836 1876.63 678.335 1875.49 686.833 1876.63 694.117 1880.07 701.401 1882.37 706.258 1883.51 711.114 1882.37 714.756 1881.22 718.398 1878.93 720.826 1875.49 723.254 1867.46 729.324 1862.88 737.823 1861.73 748.749 1861.73 758.462 1865.17 766.96 1870.9 773.03 1873.2 776.672 1875.49 780.314 1874.34 786.385 1873.2 790.027 1870.9 793.669 1867.46 796.097 1861.73 799.739 1858.29 805.809 1857.15 814.308 1854.85 822.806 1857.15 836.161 1861.73 843.445 1865.17 850.729 1875.49 877.438 1875.49 899.291 1875.49 919.93 1860.59 926 1841.1 926 1830.78 926 1790.66 922.358 1779.2 875.01 1762 809.452 1830.78 711.114 1831.93 688.047 1834.22 658.91 1831.93 651.625 1831.93 613.99 1831.93 579.997 1845.68 563 1866.32 563 1886.95 563 1903 579.997 1903 612.776 1903 633.415 1900.71 647.983 1889.24 658.91Z" stroke="#000000" stroke-width="2.29167" stroke-linecap="round" stroke-linejoin="round" stroke-miterlimit="10" fill="none" fill-rule="evenodd"/><path d="M1993 563C1998.5 571.25 2002.9 583.036 2004 596" stroke="#000000" stroke-width="2.29167" stroke-linecap="round" stroke-linejoin="round" stroke-miterlimit="10" fill="none" fill-rule="evenodd"/><path d="M1988 554C1988 554 1988 555 1989 555" stroke="#000000" stroke-width="2.29167" stroke-linecap="round" stroke-linejoin="round" stroke-miterlimit="10" fill="none" fill-rule="evenodd"/><path d="M1922 559C1916.55 568.548 1911.09 580.484 1910 596" stroke="#000000" stroke-width="2.29167" stroke-linecap="round" stroke-linejoin="round" stroke-miterlimit="10" fill="none" fill-rule="evenodd"/><path d="M1925 554C1925 554 1925 554 1925 554" stroke="#000000" stroke-width="2.29167" stroke-linecap="round" stroke-linejoin="round" stroke-miterlimit="10" fill="none" fill-rule="evenodd"/><path d="M1874.78 898.807C1874.78 876.974 1864.53 850.29 1861.11 843.013 1856.56 835.736 1854.28 822.394 1856.56 813.903 1857.69 805.413 1861.11 799.349 1866.81 795.71 1870.22 793.284 1872.5 789.645 1873.64 786.007 1874.78 779.942 1872.5 776.303 1870.22 772.665 1864.53 766.6 1861.11 758.11 1861.11 748.407 1862.25 737.49 1866.81 729 1874.78 722.936 1878.19 720.51 1880.47 718.084 1881.61 714.445 1882.75 710.807 1881.61 705.955 1879.33 701.103 1875.92 693.826 1874.78 686.548 1875.92 678.058 1878.19 669.568 1882.75 662.29 1888.44 658.652 1899.83 647.736 1902.11 633.181 1902.11 612.561 1902.11 579.813 1886.17 562.832 1865.67 562.832 1861.11 562.832 1856.56 564.045 1852 566.471 1852 565.258 1852 565.258 1852 565.258 1873.64 553.129 1905.53 541 1953.36 541 1954.5 541 1954.5 541 1954.5 541 2002.33 541 2035.36 553.129 2057 565.258 2057 565.258 2057 565.258 2057 565.258 2052.44 564.045 2047.89 562.832 2042.19 562.832 2021.69 562.832 2005.75 579.813 2005.75 612.561 2005.75 701.103 2005.75 701.103 2005.75 701.103 2005.75 705.955 2006.89 719.297 2010.31 725.361 2011.44 727.787 2022.83 737.49 2025.11 758.11 2027.39 776.303 2020.56 788.432 2022.83 800.561 2023.97 809.052 2029.67 811.478 2030.81 811.478 2039.92 816.329 2046.75 824.819 2047.89 838.161 2049.03 845.439 2047.89 852.716 2044.47 858.781 2043.33 859.994 2038.78 872.123 2039.92 881.826 2041.06 893.955 2046.75 904.871 2055.86 910.936 2041.06 907.297 2023.97 902.445 2006.89 902.445 1989.81 902.445 1969.31 907.297 1953.36 912.148 1957.92 903.658 1960.19 893.955 1962.47 885.465 1963.61 876.974 1960.19 869.697 1959.06 868.484 1955.64 861.207 1954.5 852.716 1956.78 844.226 1959.06 833.31 1964.75 826.032 1971.58 821.181 1976.14 818.755 1978.42 815.116 1979.56 807.839 1980.69 799.349 1977.28 792.071 1976.14 789.645 1972.72 782.368 1971.58 772.665 1972.72 764.174 1975 752.045 1979.56 745.981 1987.53 738.703 2004.61 721.723 2004.61 701.103 2004.61 688.974 2004.61 612.561 2004.61 612.561 2004.61 612.561 2004.61 579.813 1992.08 562.832 1954.5 562.832 1954.5 562.832 1954.5 562.832 1954.5 562.832 1954.5 562.832 1954.5 562.832 1954.5 562.832 1953.36 562.832 1953.36 562.832 1953.36 562.832 1916.92 562.832 1907.81 581.026 1907.81 613.774 1907.81 639.245 1911.22 646.523 1916.92 655.013 1922.61 661.078 1924.89 669.568 1924.89 679.271 1923.75 687.761 1921.47 695.039 1916.92 701.103 1912.36 704.742 1911.22 709.594 1911.22 715.658 1911.22 721.723 1912.36 725.361 1914.64 730.213 1920.33 737.49 1922.61 748.407 1920.33 760.536 1919.19 770.239 1913.5 777.516 1906.67 781.155 1905.53 782.368 1900.97 786.007 1899.83 790.858 1898.69 795.71 1900.97 805.413 1903.25 807.839 1907.81 813.903 1908.94 826.032 1908.94 834.523 1907.81 844.226 1904.39 852.716 1897.56 858.781 1891.86 866.058 1885.03 891.529 1890.72 908.51 1891.86 912.148 1894.14 914.574 1896.42 917 1891.86 915.787 1887.31 914.574 1882.75 914.574 1878.19 914.574 1872.5 915.787 1867.94 917 1872.5 913.361 1874.78 907.297 1874.78 898.807Z" stroke="#000000" stroke-width="2.29167" stroke-linecap="round" stroke-linejoin="round" stroke-miterlimit="10" fill="none" fill-rule="evenodd"/><path d="M1988 807C1988 808 1987 808 1987 809" stroke="#000000" stroke-width="2.29167" stroke-linecap="round" stroke-linejoin="round" stroke-miterlimit="10" fill="none" fill-rule="evenodd"/><path d="M2010 803C2004.33 802 1997.53 803 1993 804" stroke="#000000" stroke-width="2.29167" stroke-linecap="round" stroke-linejoin="round" stroke-miterlimit="10" fill="none" fill-rule="evenodd"/><path d="M2017 806C2016 806 2015 804 2015 804" stroke="#000000" stroke-width="2.29167" stroke-linecap="round" stroke-linejoin="round" stroke-miterlimit="10" fill="none" fill-rule="evenodd"/><path d="M1881 789C1880 789 1880 789 1879 789" stroke="#000000" stroke-width="2.29167" stroke-linecap="round" stroke-linejoin="round" stroke-miterlimit="10" fill="none" fill-rule="evenodd"/><path d="M1888 791C1886.75 791 1884.25 789 1883 789" stroke="#000000" stroke-width="2.29167" stroke-linecap="round" stroke-linejoin="round" stroke-miterlimit="10" fill="none" fill-rule="evenodd"/><path d="M1893 795C1893 795 1892 795 1891 793" stroke="#000000" stroke-width="2.29167" stroke-linecap="round" stroke-linejoin="round" stroke-miterlimit="10" fill="none" fill-rule="evenodd"/><path d="M1888 717C1886.5 717 1886.5 717 1885 717" stroke="#000000" stroke-width="2.29167" stroke-linecap="round" stroke-linejoin="round" stroke-miterlimit="10" fill="none" fill-rule="evenodd"/><path d="M1899 717C1896.67 716 1894.33 716 1892 716" stroke="#000000" stroke-width="2.29167" stroke-linecap="round" stroke-linejoin="round" stroke-miterlimit="10" fill="none" fill-rule="evenodd"/><path d="M1907 721C1906 719.5 1906 719.5 1905 718" stroke="#000000" stroke-width="2.29167" stroke-linecap="round" stroke-linejoin="round" stroke-miterlimit="10" fill="none" fill-rule="evenodd"/><path d="M1974 872C1973 873.5 1972 875 1971 875" stroke="#000000" stroke-width="2.29167" stroke-linecap="round" stroke-linejoin="round" stroke-miterlimit="10" fill="none" fill-rule="evenodd"/><path d="M2024 866.333C2013.88 864 1993.62 865.167 1979 871" stroke="#000000" stroke-width="2.29167" stroke-linecap="round" stroke-linejoin="round" stroke-miterlimit="10" fill="none" fill-rule="evenodd"/><path d="M2032 871C2031 870 2030 869 2029 869" stroke="#000000" stroke-width="2.29167" stroke-linecap="round" stroke-linejoin="round" stroke-miterlimit="10" fill="none" fill-rule="evenodd"/></g></svg>