<svg width="324" height="385" xmlns="http://www.w3.org/2000/svg" xmlns:xlink="http://www.w3.org/1999/xlink" xml:space="preserve" overflow="hidden"><g transform="translate(-2610 -537)"><path d="M2714.14 859.659C2714.14 832.81 2715.18 786.944 2698.41 773.519 2693.17 767.926 2690.03 758.976 2690.03 750.027 2690.03 739.958 2694.22 731.009 2699.46 725.415 2704.7 722.059 2703.65 716.466 2703.65 711.991 2703.65 709.754 2703.65 705.279 2699.46 703.042 2691.07 698.567 2687.93 682.905 2687.93 675.074 2687.93 668.362 2691.07 656.056 2696.32 650.463 2700.51 645.988 2702.6 643.751 2702.6 635.92 2702.6 631.445 2696.32 623.614 2688.98 611.309 2679.54 593.41 2669.06 571.036 2668.01 569.917 2661.72 560.968 2654.39 555.374 2646 559.849 2646 559.849 2646 559.849 2646 559.849 2663.82 552.018 2726.71 533 2782.27 539.712 2783.32 540.831 2783.32 540.831 2783.32 540.831 2837.83 547.543 2871.37 574.392 2885 591.172 2885 591.172 2885 591.172 2885 591.172 2881.86 587.816 2878.71 586.697 2874.52 586.697 2860.89 586.697 2861.94 596.766 2859.84 602.359 2858.79 609.071 2859.84 610.19 2853.55 616.902 2848.31 621.377 2844.12 626.97 2844.12 633.683 2844.12 639.276 2847.26 645.988 2848.31 647.107 2851.46 652.7 2852.5 658.294 2852.5 665.006 2852.5 677.312 2846.21 687.38 2837.83 691.855 2832.59 695.211 2820.01 707.516 2820.01 727.653 2820.01 727.653 2820.01 727.653 2820.01 727.653 2820.01 725.415 2820.01 723.178 2820.01 722.059 2820.01 719.822 2818.96 714.229 2814.77 709.754 2807.43 703.042 2800.09 691.855 2800.09 676.193 2800.09 659.413 2803.24 652.7 2808.48 643.751 2814.77 635.92 2811.62 595.647 2810.57 590.054 2808.48 576.629 2802.19 564.324 2788.56 557.611 2765.5 545.306 2740.34 556.493 2735.1 558.73 2729.86 560.968 2729.86 568.798 2735.1 572.154 2742.44 577.748 2744.53 587.816 2744.53 599.003 2744.53 611.309 2741.39 620.258 2734.05 625.852 2733 626.97 2730.91 628.089 2729.86 630.327 2728.81 631.445 2727.76 634.801 2727.76 637.039 2727.76 641.513 2728.81 645.988 2730.91 647.107 2730.91 647.107 2733 648.226 2734.05 649.344 2741.39 653.819 2743.49 668.362 2743.49 675.074 2743.49 682.905 2741.39 698.567 2733 703.042 2728.81 705.279 2727.76 709.754 2727.76 711.991 2727.76 716.466 2726.71 722.059 2731.96 725.415 2738.25 731.009 2741.39 739.958 2741.39 750.027 2741.39 758.976 2738.25 767.926 2733 773.519 2716.23 786.944 2717.28 832.81 2717.28 859.659 2717.28 878.677 2720.43 898.813 2733 910 2727.76 908.881 2721.47 906.644 2715.18 906.644 2708.89 906.644 2703.65 908.881 2698.41 910 2710.99 898.813 2714.14 878.677 2714.14 859.659Z" fill="#4EA928" fill-rule="evenodd"/><path d="M2820 727.749C2820 727.749 2820 727.749 2820 727.749 2820 707.642 2832.56 695.355 2837.79 692.003 2846.16 687.535 2852.44 677.482 2852.44 665.194 2852.44 658.492 2851.39 652.906 2848.25 647.321 2847.2 646.204 2844.06 639.502 2844.06 633.917 2844.06 627.214 2848.25 621.629 2853.48 617.161 2859.76 610.458 2858.71 609.341 2859.76 602.639 2861.85 597.054 2860.81 587 2874.41 587 2888.01 587 2895.33 605.99 2895.33 629.448 2895.33 664.077 2891.15 684.184 2889.06 705.408 2885.92 726.632 2893.24 760.144 2909.98 795.89 2926.72 830.518 2933 840.572 2933 865.147 2933 896.425 2912.07 921 2880.69 921 2849.3 921 2820 896.425 2820 865.147 2820 865.147 2820 865.147 2820 865.147L2820 727.749Z" fill="#E0E278" fill-rule="evenodd"/><path d="M2873.51 592.352C2879.78 591.235 2887.11 602.409 2887.11 629.227 2888.15 652.692 2878.74 680.627 2878.74 728.676 2879.78 775.607 2902.8 801.307 2913.26 816.951 2922.68 832.595 2928.95 851.591 2930 865 2930 840.417 2923.72 830.36 2906.98 795.72 2890.25 759.963 2882.92 726.441 2886.06 705.21 2888.15 683.98 2891.29 663.866 2891.29 629.227 2891.29 605.761 2887.11 589 2873.51 589 2864.09 589 2863.05 600.174 2862 605.761 2865.14 596.822 2868.28 593.469 2873.51 592.352Z" fill="#F3F4D2" fill-rule="evenodd"/><path d="M2731.76 725.167C2726.51 721.809 2727.56 716.214 2727.56 711.738 2727.56 709.5 2728.61 705.024 2732.81 702.786 2741.21 698.309 2743.31 682.643 2743.31 674.809 2743.31 668.095 2741.21 653.547 2733.86 649.071 2732.81 647.952 2730.71 646.833 2730.71 646.833 2728.61 645.714 2727.56 641.238 2727.56 636.762 2727.56 634.524 2728.61 631.167 2729.66 630.047 2730.71 627.809 2732.81 626.69 2733.86 625.571 2741.21 619.976 2744.36 611.024 2744.36 598.714 2744.36 587.524 2742.26 577.452 2734.91 571.857 2729.66 568.5 2729.66 560.667 2734.91 558.428 2740.16 556.19 2765.37 545 2788.48 557.309 2802.14 564.024 2808.44 576.333 2810.55 589.762 2811.6 595.357 2814.75 635.643 2808.44 643.476 2803.19 652.428 2800.04 659.143 2800.04 675.928 2800.04 691.595 2807.39 702.786 2814.75 709.5 2818.95 713.976 2820 719.571 2820 721.809 2820 731.881 2820 780 2820 807.976 2820 837.071 2820 854.976 2820 865.047 2820 896.381 2806.34 921 2766.42 921 2766.42 921 2766.42 921 2766.42 921 2725.45 921 2717.05 890.786 2717.05 859.452 2717.05 832.595 2716 786.714 2732.81 773.286 2738.06 767.69 2741.21 758.738 2741.21 749.786 2741.21 739.714 2738.06 730.762 2731.76 725.167Z" fill="#E0E278" fill-rule="evenodd"/><path d="M2800.26 702.867C2796.09 696.133 2794 687.156 2794 674.811 2794 664.711 2798.17 655.733 2802.35 649 2802.35 649 2802.35 649 2802.35 649 2799.22 654.611 2797.13 663.589 2797.13 672.567 2797.13 684.911 2801.3 700.622 2807.57 706.233 2810.7 709.6 2814.87 712.967 2815.91 717.456 2816.96 719.7 2816.96 719.7 2818 724.189 2818 728.678 2818 851 2818 851 2816.96 827.433 2814.87 736.533 2812.78 726.433 2811.74 718.578 2807.57 712.967 2805.48 709.6 2804.43 708.478 2801.3 703.989 2800.26 702.867Z" fill="#F3F4D2" fill-rule="evenodd"/><path d="M2625.71 597.532C2628.86 580.743 2634.11 568.431 2643.57 560.596 2654.07 555 2661.42 560.596 2667.73 569.551 2668.78 570.67 2679.28 593.055 2688.74 610.963 2696.09 623.275 2702.39 631.11 2702.39 635.587 2702.39 643.422 2700.29 645.661 2696.09 650.138 2690.84 655.734 2687.69 668.046 2687.69 674.762 2687.69 682.596 2690.84 698.266 2699.24 702.743 2703.44 704.982 2703.44 709.459 2703.44 711.697 2703.44 716.174 2704.5 721.771 2699.24 725.128 2693.99 730.725 2689.79 739.679 2689.79 749.752 2689.79 758.706 2692.94 767.661 2698.19 773.257 2715 786.688 2713.95 832.578 2713.95 859.44 2713.95 890.78 2705.55 921 2665.63 921 2665.63 921 2665.63 921 2665.63 921 2624.66 921 2611 896.376 2611 865.037 2611 843.771 2616.25 821.385 2626.76 799 2637.26 776.615 2638.31 750.872 2630.96 721.771 2622.56 690.431 2618.35 641.184 2625.71 597.532Z" fill="#E0E278" fill-rule="evenodd"/><path d="M2669 916C2628.72 916 2616 896.965 2616 865.613 2616 844.338 2620.24 821.944 2630.84 799.549 2641.44 777.155 2642.5 751.401 2635.08 722.289 2626.6 690.937 2622.36 641.669 2629.78 598 2627.66 618.155 2627.66 685.338 2642.5 724.528 2657.34 762.599 2648.86 781.634 2642.5 805.148 2636.14 828.662 2620.24 882.409 2634.02 900.324 2642.5 910.401 2660.52 914.88 2669 916Z" fill="#AEC700" fill-rule="evenodd"/><path d="M2616.07 865C2616.07 843.773 2620.34 821.43 2631.03 799.086 2641.72 776.742 2642.79 751.047 2635.31 722 2637.45 735.406 2646 758.867 2642.79 778.976 2638.52 800.203 2615 838.187 2616.07 865Z" fill="#4EA928" fill-rule="evenodd"/><path d="M2819.81 865C2819.81 865 2819.81 865 2819.81 865 2819.81 865 2819.81 865 2819.81 865 2819.81 884.488 2830.29 901.683 2846 912 2839.71 909.707 2831.33 907.415 2824 907.415 2816.67 907.415 2808.29 909.707 2802 912 2802 912 2802 912 2802 912 2814.57 901.683 2819.81 884.488 2819.81 865Z" fill="#00882C" fill-rule="evenodd"/><path d="M2692.35 730C2689.22 734.459 2687.13 742.262 2687.13 750.066 2687.13 761.213 2692.35 774.59 2698.61 779.049 2703.83 781.279 2706.96 791.311 2708 796.885 2708 798 2708 798 2708 796.885 2705.91 792.426 2701.74 784.623 2697.57 782.393 2688.17 776.82 2684 766.787 2684 752.295 2684 743.377 2688.17 735.574 2692.35 730Z" fill="#F3F4D2" fill-rule="evenodd"/><path d="M2686.32 742C2685.26 748.686 2684.21 766.514 2700 781 2690.53 774.314 2680 763.172 2686.32 742Z" fill="#FFFFFF" fill-rule="evenodd"/><path d="M2798.35 664C2796.24 671.875 2796.24 693.25 2810 709 2801.53 702.25 2792 688.75 2798.35 664Z" fill="#FFFFFF" fill-rule="evenodd"/><path d="M2742.62 656.105C2745.76 659.421 2747.86 668.263 2747.86 674.895 2747.86 685.947 2742.62 700.316 2736.33 704.737 2729 709.158 2731.1 715.79 2730.05 718 2730.05 718 2730.05 718 2731.1 716.895 2730.05 712.474 2733.19 710.263 2737.38 706.947 2746.81 701.421 2751 691.474 2751 678.21 2751 668.263 2746.81 661.631 2742.62 655L2742.62 656.105Z" fill="#F3F4D2" fill-rule="evenodd"/><path d="M2743.57 579C2746.71 583.5 2749.86 591.375 2749.86 599.25 2749.86 609.375 2744.62 624 2737.29 628.5 2731 634.125 2732.05 640.875 2732.05 642 2732.05 642 2732.05 642 2732.05 642 2732.05 636.375 2735.19 634.125 2739.38 631.875 2748.81 625.125 2753 616.125 2753 601.5 2753 592.5 2748.81 584.625 2744.62 579L2743.57 579Z" fill="#F3F4D2" fill-rule="evenodd"/><path d="M2668.71 576.589C2674.94 587.723 2684.29 612.22 2692.61 623.355 2697.8 631.149 2701.96 634.489 2696.76 643.397 2690.53 653.419 2689.49 654.532 2686.37 661.213 2685.33 665.667 2684.29 670.121 2684.29 674.575 2684.29 685.709 2689.49 700.185 2695.73 704.638 2703 709.092 2700.92 715.773 2700.92 716.887 2700.92 716.887 2700.92 718 2700.92 716.887 2700.92 711.319 2698.84 710.206 2694.69 706.865 2685.33 701.298 2679.1 691.277 2679.1 677.915 2678.06 652.305 2693.65 646.738 2691.57 636.716 2689.49 625.582 2670.78 585.496 2666.63 577.702 2662.47 569.908 2655.2 561 2650 562.113 2655.2 561 2662.47 565.454 2668.71 576.589Z" fill="#F3F4D2" fill-rule="evenodd"/><path d="M2684.35 669C2683.3 675.529 2682.25 692.941 2698 706 2688.55 700.559 2677 688.588 2684.35 669Z" fill="#FFFFFF" fill-rule="evenodd"/><path d="M2739.68 731.115C2742.79 735.575 2745.89 743.379 2745.89 750.069 2745.89 761.219 2740.71 773.483 2733.46 777.943 2729.32 779.058 2727.25 785.747 2726.21 789.092 2726.21 790.207 2720 816.966 2720 827 2720 827 2720 827 2720 827 2720 815.851 2730.36 785.747 2734.5 782.402 2743.82 776.828 2749 766.793 2749 753.414 2749 743.379 2744.86 736.69 2739.68 730L2739.68 731.115Z" fill="#F3F4D2" fill-rule="evenodd"/><path d="M2850.69 646C2853.79 650.509 2855.86 659.527 2855.86 666.291 2855.86 677.564 2850.69 688.836 2844.48 693.346 2838.28 696.727 2830 704.618 2830 706.873 2831.03 708 2831.03 706.873 2831.03 706.873 2831.03 702.364 2843.45 697.855 2845.52 696.727 2854.83 691.091 2860 683.2 2860 668.545 2860 659.527 2854.83 651.636 2850.69 646Z" fill="#F3F4D2" fill-rule="evenodd"/><path d="M2757 556.364C2772.88 553 2798.29 564.212 2804.65 579.909 2811 595.606 2809.94 627 2809.94 627 2805.71 604.576 2804.65 561.97 2757 556.364Z" fill="#F3F4D2" fill-rule="evenodd"/><path d="M2720.14 836C2720.14 860.75 2717 919.25 2768.33 918.125 2787.19 918.125 2801.86 909.125 2805 903.5 2798.71 910.25 2727.48 944 2720.14 836Z" fill="#AEC700" fill-rule="evenodd"/><path d="M2924 893.459C2917.69 905.802 2887.2 926 2860.91 914.779 2836.72 904.68 2826.21 883.36 2824.1 872.14 2822 859.797 2823.05 741.977 2823.05 733 2826.21 755.442 2823.05 866.529 2845.13 890.093 2871.42 921.512 2913.48 910.291 2924 893.459Z" fill="#AEC700" fill-rule="evenodd"/><path d="M2713.88 859.594C2713.88 832.711 2714.92 786.786 2698.31 773.344 2693.12 767.743 2690 758.782 2690 749.821 2690 743.101 2691.04 737.5 2694.15 733.02 2694.15 733.02 2694.15 734.14 2694.15 735.26 2690 754.302 2700.38 769.984 2706.62 776.705 2711.81 783.425 2714.92 784.545 2717 775.584 2719.08 765.503 2726.35 762.143 2726.35 750.942 2726.35 739.74 2719.08 733.02 2718.04 727.419 2718.04 721.818 2715.96 713.977 2718.04 703.896 2721.15 692.695 2728.42 685.974 2728.42 679.253 2728.42 671.412 2728.42 663.571 2724.27 659.091 2720.12 654.61 2714.92 652.37 2717 631.088 2719.08 609.805 2736.73 610.925 2735.69 595.244 2733.62 580.682 2726.35 575.081 2730.5 565 2730.5 568.361 2731.54 570.601 2734.65 571.721 2741.92 577.322 2744 587.403 2744 598.604 2744 610.925 2740.88 619.886 2733.62 625.487 2732.58 626.607 2730.5 627.727 2729.46 629.968 2728.42 631.088 2727.38 634.448 2727.38 636.688 2727.38 641.169 2728.42 645.649 2730.5 646.77 2730.5 646.77 2732.58 647.89 2733.62 649.01 2740.88 653.49 2742.96 668.052 2742.96 674.773 2742.96 682.614 2740.88 698.295 2732.58 702.776 2728.42 705.016 2727.38 709.497 2727.38 711.737 2727.38 716.218 2726.35 721.818 2731.54 725.179 2737.77 730.779 2740.88 739.74 2740.88 749.821 2740.88 758.782 2737.77 767.743 2732.58 773.344 2715.96 786.786 2717 832.711 2717 859.594 2717 878.636 2720.12 898.799 2732.58 910 2727.38 908.88 2721.15 906.64 2714.92 906.64 2708.69 906.64 2703.5 908.88 2698.31 910 2710.77 898.799 2713.88 878.636 2713.88 859.594Z" fill="#3B8723" fill-rule="evenodd"/><path d="M2695.56 650.491C2696.62 649.368 2697.69 647.123 2698.75 646 2698.75 646 2698.75 646 2698.75 646 2691.31 656.105 2686 685.298 2698.75 701.017 2703 705.509 2703 707.754 2703 710 2701.94 707.754 2700.87 704.386 2698.75 703.263 2690.25 698.772 2687.06 683.052 2687.06 675.193 2687.06 668.456 2690.25 656.105 2695.56 650.491Z" fill="#3B8723" fill-rule="evenodd"/><path d="M2801.19 661.579C2800.14 672.836 2800.14 688.598 2803.29 694.226 2803.29 694.226 2803.29 694.226 2803.29 693.101 2806.43 700.981 2810.62 706.61 2814.81 709.987 2819 714.491 2820.05 720.12 2820.05 722.371 2820.05 728 2820.05 728 2820.05 728 2820.05 728 2820.05 728 2820.05 728 2820.05 707.736 2832.62 695.352 2837.86 691.975 2846.24 687.472 2852.52 677.34 2852.52 664.956 2852.52 658.201 2851.48 652.572 2848.33 646.943 2847.29 645.818 2844.14 639.063 2844.14 633.434 2844.14 626.679 2848.33 621.05 2853.57 616.547 2859.86 609.792 2858.81 608.667 2859.86 601.912 2860.9 599.66 2860.9 594.031 2863 590.654 2861.95 590.654 2860.9 589.528 2858.81 588.402 2851.48 583.899 2835.76 568.138 2821.1 564.761 2819 564.761 2819 565.887 2821.1 568.138 2830.52 574.893 2843.1 587.277 2842.05 600.786 2842.05 616.547 2836.81 618.799 2825.29 615.421 2824.24 615.421 2824.24 614.296 2823.19 614.296 2817.95 613.17 2817.95 607.541 2816.9 604.164 2814.81 583.899 2810.62 561.384 2797 549 2802.24 556.88 2807.48 572.641 2809.57 583.899 2811.67 596.283 2812.71 626.679 2811.67 636.811 2809.57 648.069 2802.24 650.321 2801.19 661.579ZM2807.48 667.208C2814.81 653.698 2820.05 644.692 2817.95 621.05 2817.95 619.924 2820.05 618.799 2821.1 619.924 2824.24 623.302 2827.38 626.679 2830.52 631.182 2839.95 643.566 2842.05 657.075 2837.86 671.711 2833.67 685.22 2826.33 685.22 2821.1 696.478 2815.86 706.61 2810.62 702.107 2803.29 691.975 2801.19 686.346 2801.19 678.465 2807.48 667.208Z" fill="#3B8723" fill-rule="evenodd"/><path d="M2669 571.05C2672.13 567.7 2698.22 561 2717 561 2706.57 562.117 2687.78 567.7 2684.65 578.867 2680.48 588.917 2699.26 628 2699.26 628 2699.26 628 2699.26 628 2699.26 628 2697.17 623.533 2693 617.95 2688.83 611.25 2681.52 595.617 2672.13 577.75 2669 571.05 2669 571.05 2669 571.05 2669 571.05Z" fill="#3B8723" fill-rule="evenodd"/><path d="M2695 664C2693 672.889 2693 686.222 2698 694 2696 688.444 2695 664 2695 664Z" fill="#FFFFFF" fill-rule="evenodd"/><path d="M2694 742C2693 752.174 2695 762.348 2701 768 2698 762.348 2694 742 2694 742Z" fill="#FFFFFF" fill-rule="evenodd"/><path d="M2708 547C2692.21 547 2674.32 552.625 2668 556" fill="#FFFFFF" fill-rule="evenodd"/><path d="M2820 727.749C2820 727.749 2820 727.749 2820 727.749 2820 707.642 2832.56 695.355 2837.79 692.003 2846.16 687.535 2852.44 677.482 2852.44 665.194 2852.44 658.492 2851.39 652.906 2848.25 647.321 2847.2 646.204 2844.06 639.502 2844.06 633.917 2844.06 627.214 2848.25 621.629 2853.48 617.161 2859.76 610.458 2858.71 609.341 2859.76 602.639 2861.85 597.054 2860.81 587 2874.41 587 2888.01 587 2895.33 605.99 2895.33 629.448 2895.33 664.077 2891.15 684.184 2889.06 705.408 2885.92 726.632 2893.24 760.144 2909.98 795.89 2926.72 830.518 2933 840.572 2933 865.147 2933 896.425 2912.07 921 2880.69 921 2849.3 921 2820 896.425 2820 865.147 2820 865.147 2820 865.147 2820 865.147L2820 727.749Z" stroke="#000000" stroke-width="2.29167" stroke-linecap="round" stroke-linejoin="round" stroke-miterlimit="10" fill="none" fill-rule="evenodd"/><path d="M2731.76 725.167C2726.51 721.809 2727.56 716.214 2727.56 711.738 2727.56 709.5 2728.61 705.024 2732.81 702.786 2741.21 698.309 2743.31 682.643 2743.31 674.809 2743.31 668.095 2741.21 653.547 2733.86 649.071 2732.81 647.952 2730.71 646.833 2730.71 646.833 2728.61 645.714 2727.56 641.238 2727.56 636.762 2727.56 634.524 2728.61 631.167 2729.66 630.047 2730.71 627.809 2732.81 626.69 2733.86 625.571 2741.21 619.976 2744.36 611.024 2744.36 598.714 2744.36 587.524 2742.26 577.452 2734.91 571.857 2729.66 568.5 2729.66 560.667 2734.91 558.428 2740.16 556.19 2765.37 545 2788.48 557.309 2802.14 564.024 2808.44 576.333 2810.55 589.762 2811.6 595.357 2814.75 635.643 2808.44 643.476 2803.19 652.428 2800.04 659.143 2800.04 675.928 2800.04 691.595 2807.39 702.786 2814.75 709.5 2818.95 713.976 2820 719.571 2820 721.809 2820 731.881 2820 780 2820 807.976 2820 837.071 2820 854.976 2820 865.047 2820 896.381 2806.34 921 2766.42 921 2766.42 921 2766.42 921 2766.42 921 2725.45 921 2717.05 890.786 2717.05 859.452 2717.05 832.595 2716 786.714 2732.81 773.286 2738.06 767.69 2741.21 758.738 2741.21 749.786 2741.21 739.714 2738.06 730.762 2731.76 725.167Z" stroke="#000000" stroke-width="2.29167" stroke-linecap="round" stroke-linejoin="round" stroke-miterlimit="10" fill="none" fill-rule="evenodd"/><path d="M2625.71 597.532C2628.86 580.743 2634.11 568.431 2643.57 560.596 2654.07 555 2661.42 560.596 2667.73 569.551 2668.78 570.67 2679.28 593.055 2688.74 610.963 2696.09 623.275 2702.39 631.11 2702.39 635.587 2702.39 643.422 2700.29 645.661 2696.09 650.138 2690.84 655.734 2687.69 668.046 2687.69 674.762 2687.69 682.596 2690.84 698.266 2699.24 702.743 2703.44 704.982 2703.44 709.459 2703.44 711.697 2703.44 716.174 2704.5 721.771 2699.24 725.128 2693.99 730.725 2689.79 739.679 2689.79 749.752 2689.79 758.706 2692.94 767.661 2698.19 773.257 2715 786.688 2713.95 832.578 2713.95 859.44 2713.95 890.78 2705.55 921 2665.63 921 2665.63 921 2665.63 921 2665.63 921 2624.66 921 2611 896.376 2611 865.037 2611 843.771 2616.25 821.385 2626.76 799 2637.26 776.615 2638.31 750.872 2630.96 721.771 2622.56 690.431 2618.35 641.184 2625.71 597.532Z" stroke="#000000" stroke-width="2.29167" stroke-linecap="round" stroke-linejoin="round" stroke-miterlimit="10" fill="none" fill-rule="evenodd"/><path d="M2799 553C2803.4 560.933 2808.9 573.4 2810 587" stroke="#000000" stroke-width="2.29167" stroke-linecap="round" stroke-linejoin="round" stroke-miterlimit="10" fill="none" fill-rule="evenodd"/><path d="M2795 547C2795 547.5 2796 547.5 2796 548" stroke="#000000" stroke-width="2.29167" stroke-linecap="round" stroke-linejoin="round" stroke-miterlimit="10" fill="none" fill-rule="evenodd"/><path d="M2740 547C2738 551.308 2735 555.615 2732 561" stroke="#000000" stroke-width="2.29167" stroke-linecap="round" stroke-linejoin="round" stroke-miterlimit="10" fill="none" fill-rule="evenodd"/><path d="M2823 567C2822 567 2822 567 2821 567" stroke="#000000" stroke-width="2.29167" stroke-linecap="round" stroke-linejoin="round" stroke-miterlimit="10" fill="none" fill-rule="evenodd"/><path d="M2860 591C2850.4 581.1 2837.6 573.4 2828 569" stroke="#000000" stroke-width="2.29167" stroke-linecap="round" stroke-linejoin="round" stroke-miterlimit="10" fill="none" fill-rule="evenodd"/><path d="M2835 621C2830.5 619 2828.25 618 2826 617" stroke="#000000" stroke-width="2.29167" stroke-linecap="round" stroke-linejoin="round" stroke-miterlimit="10" fill="none" fill-rule="evenodd"/><path d="M2842 630C2841 629 2840 628 2839 626" stroke="#000000" stroke-width="2.29167" stroke-linecap="round" stroke-linejoin="round" stroke-miterlimit="10" fill="none" fill-rule="evenodd"/><path d="M2819.81 865C2819.81 865 2819.81 865 2819.81 865 2819.81 865 2819.81 865 2819.81 865 2819.81 884.488 2830.29 901.683 2846 912 2839.71 909.707 2831.33 907.415 2824 907.415 2816.67 907.415 2808.29 909.707 2802 912 2802 912 2802 912 2802 912 2814.57 901.683 2819.81 884.488 2819.81 865Z" stroke="#000000" stroke-width="2.29167" stroke-linecap="round" stroke-linejoin="round" stroke-miterlimit="10" fill="none" fill-rule="evenodd"/><path d="M2714.14 859.659C2714.14 832.81 2715.18 786.944 2698.41 773.519 2693.17 767.926 2690.03 758.976 2690.03 750.027 2690.03 739.958 2694.22 731.009 2699.46 725.415 2704.7 722.059 2703.65 716.466 2703.65 711.991 2703.65 709.754 2703.65 705.279 2699.46 703.042 2691.07 698.567 2687.93 682.905 2687.93 675.074 2687.93 668.362 2691.07 656.056 2696.32 650.463 2700.51 645.988 2702.6 643.751 2702.6 635.92 2702.6 631.445 2696.32 623.614 2688.98 611.309 2679.54 593.41 2669.06 571.036 2668.01 569.917 2661.72 560.968 2654.39 555.374 2646 559.849 2646 559.849 2646 559.849 2646 559.849 2663.82 552.018 2726.71 533 2782.27 539.712 2783.32 540.831 2783.32 540.831 2783.32 540.831 2837.83 547.543 2871.37 574.392 2885 591.172 2885 591.172 2885 591.172 2885 591.172 2881.86 587.816 2878.71 586.697 2874.52 586.697 2860.89 586.697 2861.94 596.766 2859.84 602.359 2858.79 609.071 2859.84 610.19 2853.55 616.902 2848.31 621.377 2844.12 626.97 2844.12 633.683 2844.12 639.276 2847.26 645.988 2848.31 647.107 2851.46 652.7 2852.5 658.294 2852.5 665.006 2852.5 677.312 2846.21 687.38 2837.83 691.855 2832.59 695.211 2820.01 707.516 2820.01 727.653 2820.01 727.653 2820.01 727.653 2820.01 727.653 2820.01 725.415 2820.01 723.178 2820.01 722.059 2820.01 719.822 2818.96 714.229 2814.77 709.754 2807.43 703.042 2800.09 691.855 2800.09 676.193 2800.09 659.413 2803.24 652.7 2808.48 643.751 2814.77 635.92 2811.62 595.647 2810.57 590.054 2808.48 576.629 2802.19 564.324 2788.56 557.611 2765.5 545.306 2740.34 556.493 2735.1 558.73 2729.86 560.968 2729.86 568.798 2735.1 572.154 2742.44 577.748 2744.53 587.816 2744.53 599.003 2744.53 611.309 2741.39 620.258 2734.05 625.852 2733 626.97 2730.91 628.089 2729.86 630.327 2728.81 631.445 2727.76 634.801 2727.76 637.039 2727.76 641.513 2728.81 645.988 2730.91 647.107 2730.91 647.107 2733 648.226 2734.05 649.344 2741.39 653.819 2743.49 668.362 2743.49 675.074 2743.49 682.905 2741.39 698.567 2733 703.042 2728.81 705.279 2727.76 709.754 2727.76 711.991 2727.76 716.466 2726.71 722.059 2731.96 725.415 2738.25 731.009 2741.39 739.958 2741.39 750.027 2741.39 758.976 2738.25 767.926 2733 773.519 2716.23 786.944 2717.28 832.81 2717.28 859.659 2717.28 878.677 2720.43 898.813 2733 910 2727.76 908.881 2721.47 906.644 2715.18 906.644 2708.89 906.644 2703.65 908.881 2698.41 910 2710.99 898.813 2714.14 878.677 2714.14 859.659Z" stroke="#000000" stroke-width="2.29167" stroke-linecap="round" stroke-linejoin="round" stroke-miterlimit="10" fill="none" fill-rule="evenodd"/></g></svg>