<svg width="319" height="390" xmlns="http://www.w3.org/2000/svg" xmlns:xlink="http://www.w3.org/1999/xlink" xml:space="preserve" overflow="hidden"><g transform="translate(-2269 -533)"><path d="M2343.06 898.63C2346.47 893.768 2346.47 890.122 2344.19 886.476 2341.92 881.614 2340.78 876.752 2340.78 870.675 2340.78 858.521 2346.47 847.582 2355.58 842.72 2355.58 841.505 2357.86 840.289 2359 840.289 2362.42 836.643 2361.28 829.35 2361.28 826.92 2361.28 823.273 2361.28 819.627 2356.72 817.196 2347.61 811.119 2340.78 800.18 2340.78 786.81 2340.78 774.656 2346.47 763.717 2355.58 758.855 2355.58 757.64 2357.86 756.424 2359 756.424 2360.14 753.993 2361.28 750.347 2361.28 745.485 2361.28 743.055 2361.28 739.408 2360.14 736.977 2359 735.762 2355.58 733.331 2355.58 733.331 2346.47 727.254 2340.78 716.315 2340.78 704.161 2340.78 692.006 2346.47 681.067 2355.58 674.99 2355.58 674.99 2356.72 673.775 2356.72 673.775 2368.11 664.051 2368.11 653.112 2368.11 645.82 2368.11 605.71 2368.11 605.71 2368.11 605.71 2368.11 571.678 2352.17 555.878 2331.67 555.878 2327.11 555.878 2322.56 557.093 2318 558.309 2339.64 546.154 2371.53 534 2419.36 534 2420.5 534 2420.5 534 2420.5 534 2468.33 534 2501.36 546.154 2523 558.309 2518.44 557.093 2513.89 555.878 2509.33 555.878 2487.69 555.878 2471.75 571.678 2471.75 605.71 2471.75 681.067 2471.75 681.067 2471.75 681.067 2471.75 689.575 2471.75 700.514 2483.14 709.022 2484.28 710.238 2484.28 710.238 2485.42 711.453 2493.39 717.53 2499.08 728.469 2499.08 740.624 2499.08 752.778 2493.39 763.717 2485.42 769.794 2484.28 769.794 2482 771.01 2480.86 773.44 2479.72 775.871 2478.58 778.302 2478.58 781.948 2478.58 786.81 2479.72 790.456 2482 791.672 2482 792.887 2484.28 794.103 2485.42 794.103 2493.39 800.18 2499.08 811.119 2499.08 823.273 2499.08 836.643 2493.39 847.582 2484.28 853.659 2479.72 854.875 2478.58 859.736 2478.58 862.167 2478.58 882.829 2485.42 899.846 2496.81 912 2489.97 909.569 2482 907.138 2474.03 907.138 2467.19 907.138 2458.08 909.569 2451.25 912 2450.11 912 2450.11 912 2450.11 912 2460.36 901.061 2463.78 882.829 2463.78 862.167 2463.78 859.736 2463.78 854.875 2459.22 853.659 2450.11 847.582 2443.28 836.643 2443.28 823.273 2443.28 811.119 2448.97 800.18 2458.08 794.103 2458.08 794.103 2460.36 792.887 2460.36 791.672 2462.64 790.456 2463.78 786.81 2463.78 781.948 2463.78 778.302 2463.78 775.871 2462.64 773.44 2461.5 771.01 2458.08 769.794 2458.08 769.794 2448.97 763.717 2443.28 752.778 2443.28 740.624 2443.28 728.469 2448.97 717.53 2458.08 711.453 2458.08 710.238 2459.22 710.238 2459.22 709.022 2470.61 700.514 2470.61 689.575 2470.61 681.067 2470.61 605.71 2470.61 605.71 2470.61 605.71 2470.61 571.678 2458.08 555.878 2420.5 555.878 2420.5 555.878 2420.5 555.878 2420.5 555.878 2420.5 555.878 2420.5 555.878 2420.5 555.878 2420.5 555.878 2419.36 555.878 2419.36 555.878 2382.92 555.878 2369.25 571.678 2369.25 605.71 2369.25 645.82 2369.25 645.82 2369.25 645.82 2369.25 653.112 2370.39 664.051 2380.64 673.775 2381.78 673.775 2381.78 674.99 2382.92 674.99 2390.89 681.067 2396.58 692.006 2396.58 704.161 2396.58 716.315 2390.89 727.254 2382.92 733.331 2381.78 733.331 2379.5 735.762 2378.36 736.977 2377.22 739.408 2376.08 743.055 2376.08 745.485 2376.08 750.347 2378.36 753.993 2379.5 756.424 2379.5 756.424 2381.78 757.64 2382.92 758.855 2390.89 763.717 2396.58 774.656 2396.58 786.81 2396.58 800.18 2390.89 811.119 2381.78 817.196 2377.22 819.627 2376.08 824.489 2376.08 826.92 2376.08 831.781 2377.22 836.643 2381.78 837.858 2390.89 841.505 2397.72 851.228 2400 863.383 2401.14 873.106 2398.86 882.829 2394.31 890.122 2393.17 892.553 2389.75 899.846 2393.17 904.707 2394.31 908.354 2396.58 909.569 2397.72 912 2388.61 909.569 2377.22 905.923 2366.97 905.923 2355.58 905.923 2343.06 909.569 2333.94 912 2333.94 912 2333.94 912 2333.94 912 2337.36 908.354 2340.78 903.492 2343.06 898.63Z" fill="#4EA928" fill-rule="evenodd"/><path d="M2509.57 556C2530.07 556 2546.01 571.755 2546.01 605.689 2546.01 643.258 2541.46 665.073 2539.18 688.099 2536.9 711.126 2543.73 747.483 2563.09 786.265 2580.17 823.834 2587 834.742 2587 861.404 2587 895.338 2564.23 922 2530.07 922 2495.91 922 2478.83 895.338 2478.83 861.404 2478.83 858.98 2479.97 854.132 2484.52 852.92 2493.63 846.861 2499.33 835.954 2499.33 822.622 2499.33 810.503 2493.63 799.596 2485.66 793.536 2484.52 793.536 2482.25 792.324 2482.25 791.112 2479.97 789.901 2478.83 786.265 2478.83 781.417 2478.83 777.781 2479.97 775.357 2481.11 772.934 2482.25 770.51 2484.52 769.298 2485.66 769.298 2493.63 763.238 2499.33 752.331 2499.33 740.212 2499.33 728.093 2493.63 717.185 2485.66 711.126 2484.52 709.914 2484.52 709.914 2483.39 708.702 2472 700.218 2472 689.311 2472 680.828 2472 605.689 2472 605.689 2472 605.689 2472 571.755 2487.94 556 2509.57 556Z" fill="#E0E278" fill-rule="evenodd"/><path d="M2581 862C2581 835.241 2574.22 824.294 2556.15 786.588 2538.07 747.665 2531.3 711.176 2533.56 688.065 2535.81 664.955 2540.33 643.061 2540.33 605.355 2540.33 582.245 2532.43 568.865 2521.13 564 2532.43 568.865 2533.56 590.759 2533.56 613.87 2532.43 644.278 2520 672.253 2522.26 703.878 2523.39 736.719 2540.33 770.776 2550.5 786.588 2559.54 802.4 2579.87 836.457 2581 862Z" fill="#F3F4D2" fill-rule="evenodd"/><path d="M2556 787C2538.15 748.127 2531.46 711.685 2533.69 688.604 2535.92 665.523 2540.38 643.658 2540.38 606 2538.15 629.081 2532.58 666.738 2530.35 688.604 2527 710.47 2533.69 749.342 2556 787Z" fill="#FFFFFF" fill-rule="evenodd"/><path d="M2342.99 897.761C2346.4 892.914 2346.4 889.278 2344.13 885.642 2341.85 880.795 2340.72 875.947 2340.72 869.887 2340.72 857.768 2346.4 846.861 2355.49 842.013 2355.49 840.801 2357.77 839.589 2358.91 839.589 2362.32 835.954 2361.18 828.682 2361.18 826.258 2361.18 822.622 2361.18 818.987 2356.63 816.563 2347.54 810.503 2340.72 799.596 2340.72 786.265 2340.72 774.146 2346.4 763.238 2355.49 758.391 2355.49 757.179 2357.77 755.967 2358.91 755.967 2360.04 753.543 2361.18 749.907 2361.18 745.059 2361.18 742.636 2361.18 739 2360.04 736.576 2358.91 735.364 2355.49 732.94 2355.49 732.94 2346.4 726.881 2340.72 715.973 2340.72 703.854 2340.72 691.735 2346.4 680.828 2355.49 674.768 2355.49 674.768 2356.63 673.556 2356.63 673.556 2368 663.861 2368 652.953 2368 645.682 2368 605.689 2368 605.689 2368 605.689 2368 571.755 2352.08 556 2331.62 556 2311.16 556 2295.24 571.755 2295.24 605.689 2295.24 643.258 2298.65 665.073 2300.93 688.099 2304.34 711.126 2296.38 747.483 2278.19 786.265 2260 823.834 2275.92 922 2310.02 922 2323.66 922 2335.03 912.305 2342.99 897.761" fill="#E0E278" fill-rule="evenodd"/><path d="M2314.28 917C2279.56 917 2265 823.821 2282.92 786.307 2300.84 747.584 2308.68 711.28 2305.32 688.288 2303.08 665.296 2299.72 643.514 2299.72 606 2299.72 621.732 2301.96 649.564 2310.92 688.288 2321 728.222 2303.08 768.156 2291.88 797.199 2279.56 827.452 2280.68 906.109 2314.28 917Z" fill="#AEC700" fill-rule="evenodd"/><path d="M2393.6 903.821C2390.22 898.973 2393.6 891.702 2394.72 889.278 2399.21 882.007 2401.46 872.311 2400.34 862.616 2398.09 850.497 2391.35 840.801 2382.36 837.165 2377.87 835.954 2376.74 831.106 2376.74 826.258 2376.74 823.834 2377.87 818.987 2382.36 816.563 2391.35 810.503 2396.97 799.596 2396.97 786.265 2396.97 774.146 2391.35 763.238 2383.48 758.391 2382.36 757.179 2380.11 755.967 2380.11 755.967 2378.99 753.543 2376.74 749.907 2376.74 745.059 2376.74 742.636 2377.87 739 2378.99 736.576 2380.11 735.364 2382.36 732.94 2383.48 732.94 2391.35 726.881 2396.97 715.973 2396.97 703.854 2396.97 691.735 2391.35 680.828 2383.48 674.768 2382.36 674.768 2382.36 673.556 2381.24 673.556 2371.12 663.861 2370 652.953 2370 645.682 2370 605.689 2370 605.689 2370 605.689 2370 571.755 2383.48 556 2419.44 556 2419.44 556 2420.56 556 2420.56 556 2420.56 556 2420.56 556 2420.56 556 2420.56 556 2420.56 556 2420.56 556 2457.64 556 2470 571.755 2470 605.689 2470 680.828 2470 680.828 2470 680.828 2470 689.311 2470 700.218 2458.76 708.702 2458.76 709.914 2457.64 709.914 2457.64 711.126 2448.65 717.185 2443.03 728.093 2443.03 740.212 2443.03 752.331 2448.65 763.238 2457.64 769.298 2457.64 769.298 2461.01 770.51 2462.13 772.934 2463.26 775.357 2463.26 777.781 2463.26 781.417 2463.26 786.265 2462.13 789.901 2459.89 791.112 2459.89 792.324 2457.64 793.536 2457.64 793.536 2448.65 799.596 2443.03 810.503 2443.03 822.622 2443.03 835.954 2449.78 846.861 2458.76 852.92 2463.26 854.132 2463.26 858.98 2463.26 861.404 2463.26 895.338 2454.27 922 2420.56 922 2420.56 922 2420.56 922 2420.56 922 2420.56 922 2420.56 922 2420.56 922 2420.56 922 2419.44 922 2419.44 922 2408.2 922 2400.34 914.728 2393.6 903.821Z" fill="#E0E278" fill-rule="evenodd"/><path d="M2448.93 566.523C2463.72 572.612 2466 590.876 2466 605.488 2466 676.112 2466 676.112 2466 676.112 2466 683.417 2466 696.812 2452.34 707.77 2451.21 708.988 2451.21 708.988 2451.21 708.988 2450.07 710.206 2450.07 710.206 2450.07 710.206 2443.24 715.076 2438.69 729.688 2438.69 740.647 2438.69 750.388 2442.1 760.129 2445.52 765 2445.52 765 2445.52 765 2445.52 765 2438.69 757.694 2434.14 745.517 2434.14 734.559 2434.14 721.165 2436.41 707.77 2446.66 701.682 2445.52 701.682 2445.52 701.682 2445.52 701.682 2447.79 699.247 2447.79 699.247 2447.79 699.247 2456.9 691.941 2462.59 690.723 2462.59 674.894 2458.03 605.488 2458.03 605.488 2458.03 605.488 2458.03 588.441 2454.62 576.265 2446.66 571.394 2438.69 566.523 2421.62 559.218 2401.14 565.306 2400 565.306 2400 565.306 2400 565.306 2422.76 558 2438.69 562.87 2448.93 566.523Z" fill="#F3F4D2" fill-rule="evenodd"/><path d="M2466 606C2466 591.375 2463.73 573.094 2449 567 2452.4 569.437 2464.87 582.844 2466 606Z" fill="#FFFFFF" fill-rule="evenodd"/><path d="M2345.68 729C2345.68 729 2345.68 729 2345.68 729 2345.68 729 2345.68 729 2345.68 729ZM2315 564.268C2315 563.056 2315 563.056 2315 563.056 2334.32 560.634 2344.55 565.479 2347.95 569.113 2353.64 575.169 2357.05 580.014 2359.32 596.972 2361.59 639.366 2361.59 639.366 2361.59 639.366 2361.59 655.113 2357.05 657.535 2347.95 664.803 2345.68 667.225 2345.68 667.225 2345.68 667.225 2335.45 674.493 2333.18 685.394 2333.18 698.718 2333.18 709.62 2338.86 721.732 2345.68 729 2341.14 724.155 2337.73 714.465 2337.73 704.775 2337.73 693.873 2343.41 679.338 2350.23 674.493 2350.23 674.493 2350.23 674.493 2350.23 674.493 2351.36 672.07 2351.36 672.07 2351.36 672.07 2365 662.38 2365 647.845 2365 640.577 2365 599.394 2365 599.394 2365 599.394 2365 598.183 2365 598.183 2365 598.183 2363.86 586.07 2360.45 575.169 2349.09 565.479 2343.41 561.845 2337.73 557 2315 564.268Z" fill="#F3F4D2" fill-rule="evenodd"/><path d="M2444.52 803C2440.95 807.867 2438.57 817.602 2438.57 824.904 2438.57 837.072 2444.52 849.241 2451.67 854.108 2458.81 857.759 2460 865.06 2460 867.494 2460 884.53 2456.43 894.265 2452.86 904 2451.67 904 2451.67 904 2451.67 904 2456.43 894.265 2457.62 878.446 2456.43 871.145 2456.43 866.277 2452.86 861.41 2450.48 860.193 2439.76 854.108 2435 843.157 2435 827.337 2435 817.602 2439.76 809.084 2444.52 803Z" fill="#F3F4D2" fill-rule="evenodd"/><path d="M2344.23 765C2340.82 769.852 2338.55 779.557 2338.55 786.836 2338.55 798.967 2344.23 813.525 2351.05 818.377 2357.86 822.016 2359 826.869 2359 829.295 2359 834.148 2359 839 2357.86 830.508 2357.86 825.656 2352.18 823.23 2349.91 822.016 2339.68 815.951 2334 805.033 2334 789.262 2334 779.557 2339.68 771.065 2344.23 765Z" fill="#F3F4D2" fill-rule="evenodd"/><path d="M2336.53 887.073C2334.27 880.982 2334.27 873.673 2335.4 865.145 2336.53 854.182 2342.2 848.091 2349 842 2349 843.218 2349 843.218 2349 843.218 2344.47 846.873 2339.93 855.4 2338.8 862.709 2337.67 870.018 2338.8 880.982 2342.2 888.291 2343.33 891.945 2344.47 895.6 2332 909 2335.4 905.345 2339.93 894.382 2336.53 887.073Z" fill="#F3F4D2" fill-rule="evenodd"/><path d="M2456 704C2450.21 708.82 2434 723.282 2439.79 751 2435.16 736.539 2435.16 711.231 2456 704Z" fill="#FFFFFF" fill-rule="evenodd"/><path d="M2440.17 815C2437.83 822.273 2436.67 840.455 2453 855 2442.5 848.939 2432 836.818 2440.17 815Z" fill="#FFFFFF" fill-rule="evenodd"/><path d="M2339.05 778C2337.9 785.2 2336.75 804.4 2354 820 2342.5 812.8 2331 800.8 2339.05 778Z" fill="#FFFFFF" fill-rule="evenodd"/><path d="M2496.86 802C2500.29 806.85 2502.57 815.337 2502.57 823.825 2502.57 834.737 2496.86 848.075 2490 852.925 2483.14 855.35 2482 863.837 2482 866.262 2482 882.025 2487.71 890.512 2491.14 899 2491.14 899 2491.14 899 2491.14 899 2487.71 889.3 2484.29 877.175 2485.43 869.9 2485.43 865.05 2488.86 860.2 2491.14 858.987 2501.43 851.712 2506 842.012 2506 826.25 2506 815.337 2501.43 808.062 2496.86 802Z" fill="#F3F4D2" fill-rule="evenodd"/><path d="M2496.91 718C2500.32 722.889 2502.59 732.667 2502.59 740 2502.59 752.222 2496.91 765.667 2490.09 769.333 2483.27 773 2481 780.333 2481 782.778 2482.14 784 2482.14 784 2482.14 782.778 2482.14 777.889 2488.95 774.222 2491.23 773 2501.45 766.889 2506 758.333 2506 743.667 2506 732.667 2501.45 725.333 2496.91 718Z" fill="#F3F4D2" fill-rule="evenodd"/><path d="M2394.83 682C2398.22 686.889 2400.48 696.667 2400.48 704 2400.48 716.222 2394.83 729.667 2388.04 733.333 2381.26 737 2379 744.333 2379 746.778 2380.13 748 2380.13 748 2380.13 746.778 2380.13 741.889 2386.91 738.222 2389.17 737 2399.35 730.889 2405 722.333 2405 707.667 2405 696.667 2399.35 689.333 2394.83 682Z" fill="#F3F4D2" fill-rule="evenodd"/><path d="M2394.24 763C2397.52 767.867 2399.71 776.383 2399.71 784.9 2399.71 795.85 2394.24 811.667 2387.67 816.533 2381.1 820.183 2380 825.05 2380 827.483 2380 832.35 2380 836 2381.1 828.7 2381.1 823.833 2386.57 821.4 2388.76 820.183 2398.62 812.883 2403 803.15 2403 787.333 2403 776.383 2398.62 769.083 2394.24 763Z" fill="#F3F4D2" fill-rule="evenodd"/><path d="M2402.27 891.895C2405.82 885.754 2407 878.386 2407 869.789 2407 858.737 2402.27 851.368 2396.36 844 2396.36 845.228 2396.36 845.228 2396.36 845.228 2399.91 850.14 2403.45 858.737 2403.45 866.105 2403.45 874.702 2401.09 884.526 2396.36 891.895 2395.18 895.579 2394 898.035 2404.64 914 2401.09 910.316 2398.73 898.035 2402.27 891.895Z" fill="#F3F4D2" fill-rule="evenodd"/><path d="M2355 670C2349.17 674.82 2334 689.282 2339.83 717 2334 701.333 2334 677.231 2355 670Z" fill="#FFFFFF" fill-rule="evenodd"/><path d="M2286.24 791.352C2307.74 747.579 2310 707.454 2305.47 688 2308.87 711.102 2300.95 747.579 2282.84 786.489 2269.26 814.454 2274.92 874.034 2291.89 902 2285.11 880.114 2267 831.477 2286.24 791.352Z" fill="#4EA928" fill-rule="evenodd"/><path d="M2486.44 587.475C2489.92 572.918 2493.4 566.853 2505 562 2495.72 563.213 2479.48 571.705 2477.16 592.328 2476 612.951 2476 676.033 2476 685.738 2476 695.443 2482.96 701.508 2489.92 710 2484.12 699.082 2479.48 693.016 2479.48 669.967 2479.48 654.197 2479.48 612.951 2486.44 587.475Z" fill="#AEC700" fill-rule="evenodd"/><path d="M2388 569C2380.5 575.084 2376.21 581.169 2375.14 590.904 2374.07 601.855 2374.07 628.626 2373 640.795 2373 652.964 2376.21 663.916 2382.64 670 2377.29 659.048 2378.36 654.181 2378.36 632.277 2379.43 611.59 2377.29 587.253 2388 569Z" fill="#AEC700" fill-rule="evenodd"/><path d="M2493 558.143C2487.39 549.643 2462.73 546 2456 549.643 2460.48 556.929 2464.97 566.643 2467.21 575.143 2469.45 582.429 2469.45 590.929 2471.7 597 2475.06 582.429 2480.67 567.857 2489.64 559.357" fill="#3B8723" fill-rule="evenodd"/><path d="M2386 549C2379.04 565.162 2372.08 577.595 2369.76 595 2368.6 587.541 2359.32 570.135 2357 562.676 2368.6 552.73 2380.2 551.486 2386 549" fill="#3B8723" fill-rule="evenodd"/><path d="M2402 552.692C2394.3 555.154 2385.5 558.846 2380 565 2381.1 558.846 2384.4 553.923 2387.7 549 2388.8 555.154 2395.4 553.923 2399.8 553.923" fill="#3B8723" fill-rule="evenodd"/><path d="M2450.2 802C2444.45 810.555 2441 833.778 2452.5 844.778 2464 857 2462.85 855.778 2462.85 855.778 2462.85 855.778 2441 825.222 2450.2 802Z" fill="#3B8723" fill-rule="evenodd"/><path d="M2346.8 767C2341.3 775.432 2338 797.113 2349 809.159 2360 820 2360 818.795 2360 818.795 2360 818.795 2338 788.682 2346.8 767Z" fill="#3B8723" fill-rule="evenodd"/><path d="M2341.95 902.288C2364.66 907.144 2381.69 892.576 2381.69 868.297 2381.69 844.017 2369.2 851.301 2370.34 833.092 2370.34 814.882 2382.83 810.026 2382.83 790.603 2382.83 772.393 2372.61 777.249 2370.34 749.327 2368.07 721.406 2376.02 729.904 2381.69 712.908 2386.24 694.699 2378.29 687.415 2369.2 686.201 2366.93 684.987 2363.53 684.987 2360.12 686.201 2354.44 686.201 2344.22 697.127 2347.63 712.908 2352.17 726.262 2360.12 738.402 2360.12 738.402 2360.12 738.402 2360.12 739.616 2348.76 727.476 2341.95 720.192 2340.81 708.052 2341.95 698.341 2341.95 699.555 2341.95 699.555 2341.95 700.768 2341.95 700.768 2341.95 700.768 2341.95 700.768 2343.08 689.843 2347.63 680.131 2355.58 675.275 2355.58 675.275 2356.71 674.061 2356.71 674.061 2368.07 664.349 2368.07 653.423 2368.07 646.14 2368.07 634 2368.07 634 2368.07 634 2369.2 634 2369.2 634 2369.2 634 2369.2 646.14 2369.2 646.14 2369.2 646.14 2369.2 653.423 2370.34 664.349 2380.56 674.061 2381.69 674.061 2381.69 675.275 2382.83 675.275 2390.78 681.345 2396.46 692.271 2396.46 704.41 2396.46 716.55 2390.78 727.476 2382.83 733.546 2381.69 733.546 2379.42 735.974 2378.29 737.188 2377.15 739.616 2376.02 743.258 2376.02 745.685 2376.02 750.541 2378.29 754.183 2379.42 756.611 2379.42 756.611 2381.69 757.825 2382.83 759.039 2390.78 763.895 2396.46 774.821 2396.46 786.961 2396.46 800.314 2390.78 811.24 2381.69 817.31 2377.15 819.738 2376.02 824.594 2376.02 827.022 2376.02 831.878 2377.15 836.734 2381.69 837.948 2390.78 841.589 2397.59 851.301 2399.86 863.441 2401 873.153 2398.73 882.865 2394.19 890.148 2393.05 892.576 2389.64 899.86 2393.05 904.716 2394.19 908.358 2396.46 909.572 2397.59 912 2388.51 909.572 2377.15 905.93 2366.93 905.93 2355.58 905.93 2343.08 909.572 2334 912 2334 912 2334 912 2334 912 2336.27 909.572 2338.54 905.93 2341.95 902.288Z" fill="#3B8723" fill-rule="evenodd"/><path d="M2445.29 729.703C2445.29 730.919 2444.14 730.919 2444.14 732.134 2444.14 732.134 2444.14 732.134 2444.14 732.134 2447.57 722.411 2447.57 722.411 2447.57 722.411 2449.86 717.55 2453.29 713.904 2457.86 711.474 2457.86 710.258 2459 710.258 2459 709.043 2470.43 700.536 2470.43 689.598 2470.43 681.091 2470.43 658 2470.43 658 2470.43 658 2471.57 658 2471.57 658 2471.57 658 2471.57 681.091 2471.57 681.091 2471.57 681.091 2471.57 689.598 2471.57 700.536 2483 709.043 2484.14 710.258 2484.14 710.258 2485.29 711.474 2493.29 717.55 2499 728.488 2499 740.641 2499 752.794 2493.29 763.732 2485.29 769.809 2484.14 769.809 2481.86 771.024 2480.71 773.454 2479.57 775.885 2478.43 778.316 2478.43 781.962 2478.43 786.823 2479.57 790.469 2481.86 791.684 2481.86 792.899 2484.14 794.115 2485.29 794.115 2493.29 800.191 2499 811.129 2499 823.282 2499 836.651 2493.29 847.589 2484.14 853.665 2479.57 854.88 2478.43 859.742 2478.43 862.172 2478.43 882.833 2485.29 899.847 2496.71 912 2489.86 909.569 2481.86 907.139 2473.86 907.139 2469.29 907.139 2462.43 908.354 2456.71 909.569 2475 899.847 2471.57 879.187 2471.57 868.249 2471.57 856.096 2469.29 853.665 2477.29 845.158 2485.29 836.651 2485.29 819.636 2480.71 812.344 2476.14 805.053 2472.71 795.33 2472.71 784.392 2472.71 774.67 2470.43 767.378 2480.71 756.44 2489.86 746.718 2486.43 732.134 2479.57 723.627 2475 719.981 2468.14 717.55 2461.29 718.766 2456.71 719.981 2444.14 734.565 2448.71 749.148 2453.29 763.732 2462.43 773.454 2462.43 773.454 2462.43 773.454 2463.57 774.67 2452.14 762.517 2443 754.01 2443 740.641 2445.29 729.703Z" fill="#3B8723" fill-rule="evenodd"/><path d="M2465 541.385C2444.61 536.769 2393.64 531 2354 546 2375.52 540.231 2441.21 535.615 2465 541.385Z" fill="#FFFFFF" fill-rule="evenodd"/><path d="M2346 780C2346 791.25 2349.33 803.75 2356 810 2352.67 803.75 2346 780 2346 780Z" fill="#FFFFFF" fill-rule="evenodd"/><path d="M2448 815C2448 824.739 2451.33 838.13 2458 843 2454.67 838.13 2448 815 2448 815Z" fill="#FFFFFF" fill-rule="evenodd"/><path d="M2350 694C2347 703.667 2347 714.542 2351 723 2350 715.75 2350 694 2350 694Z" fill="#FFFFFF" fill-rule="evenodd"/><path d="M2451.6 729C2449.2 739 2448 750.25 2454 759 2451.6 752.75 2451.6 729 2451.6 729Z" fill="#FFFFFF" fill-rule="evenodd"/><path d="M2347.6 858C2345.2 867.667 2344 878.542 2350 887 2347.6 880.958 2347.6 858 2347.6 858Z" fill="#FFFFFF" fill-rule="evenodd"/><path d="M2509.57 556C2530.07 556 2546.01 571.755 2546.01 605.689 2546.01 643.258 2541.46 665.073 2539.18 688.099 2536.9 711.126 2543.73 747.483 2563.09 786.265 2580.17 823.834 2587 834.742 2587 861.404 2587 895.338 2564.23 922 2530.07 922 2495.91 922 2478.83 895.338 2478.83 861.404 2478.83 858.98 2479.97 854.132 2484.52 852.92 2493.63 846.861 2499.33 835.954 2499.33 822.622 2499.33 810.503 2493.63 799.596 2485.66 793.536 2484.52 793.536 2482.25 792.324 2482.25 791.112 2479.97 789.901 2478.83 786.265 2478.83 781.417 2478.83 777.781 2479.97 775.357 2481.11 772.934 2482.25 770.51 2484.52 769.298 2485.66 769.298 2493.63 763.238 2499.33 752.331 2499.33 740.212 2499.33 728.093 2493.63 717.185 2485.66 711.126 2484.52 709.914 2484.52 709.914 2483.39 708.702 2472 700.218 2472 689.311 2472 680.828 2472 605.689 2472 605.689 2472 605.689 2472 571.755 2487.94 556 2509.57 556Z" stroke="#000000" stroke-width="2.29167" stroke-linecap="round" stroke-linejoin="round" stroke-miterlimit="10" fill="none" fill-rule="evenodd"/><path d="M2342.99 897.761C2346.4 892.914 2346.4 889.278 2344.13 885.642 2341.85 880.795 2340.72 875.947 2340.72 869.887 2340.72 857.768 2346.4 846.861 2355.49 842.013 2355.49 840.801 2357.77 839.589 2358.91 839.589 2362.32 835.954 2361.18 828.682 2361.18 826.258 2361.18 822.622 2361.18 818.987 2356.63 816.563 2347.54 810.503 2340.72 799.596 2340.72 786.265 2340.72 774.146 2346.4 763.238 2355.49 758.391 2355.49 757.179 2357.77 755.967 2358.91 755.967 2360.04 753.543 2361.18 749.907 2361.18 745.059 2361.18 742.636 2361.18 739 2360.04 736.576 2358.91 735.364 2355.49 732.94 2355.49 732.94 2346.4 726.881 2340.72 715.973 2340.72 703.854 2340.72 691.735 2346.4 680.828 2355.49 674.768 2355.49 674.768 2356.63 673.556 2356.63 673.556 2368 663.861 2368 652.953 2368 645.682 2368 605.689 2368 605.689 2368 605.689 2368 571.755 2352.08 556 2331.62 556 2311.16 556 2295.24 571.755 2295.24 605.689 2295.24 643.258 2298.65 665.073 2300.93 688.099 2304.34 711.126 2296.38 747.483 2278.19 786.265 2260 823.834 2275.92 922 2310.02 922 2323.66 922 2335.03 912.305 2342.99 897.761" stroke="#000000" stroke-width="2.29167" stroke-linecap="round" stroke-linejoin="round" stroke-miterlimit="10" fill="none" fill-rule="evenodd"/><path d="M2393.6 903.821C2390.22 898.973 2393.6 891.702 2394.72 889.278 2399.21 882.007 2401.46 872.311 2400.34 862.616 2398.09 850.497 2391.35 840.801 2382.36 837.165 2377.87 835.954 2376.74 831.106 2376.74 826.258 2376.74 823.834 2377.87 818.987 2382.36 816.563 2391.35 810.503 2396.97 799.596 2396.97 786.265 2396.97 774.146 2391.35 763.238 2383.48 758.391 2382.36 757.179 2380.11 755.967 2380.11 755.967 2378.99 753.543 2376.74 749.907 2376.74 745.059 2376.74 742.636 2377.87 739 2378.99 736.576 2380.11 735.364 2382.36 732.94 2383.48 732.94 2391.35 726.881 2396.97 715.973 2396.97 703.854 2396.97 691.735 2391.35 680.828 2383.48 674.768 2382.36 674.768 2382.36 673.556 2381.24 673.556 2371.12 663.861 2370 652.953 2370 645.682 2370 605.689 2370 605.689 2370 605.689 2370 571.755 2383.48 556 2419.44 556 2419.44 556 2420.56 556 2420.56 556 2420.56 556 2420.56 556 2420.56 556 2420.56 556 2420.56 556 2420.56 556 2457.64 556 2470 571.755 2470 605.689 2470 680.828 2470 680.828 2470 680.828 2470 689.311 2470 700.218 2458.76 708.702 2458.76 709.914 2457.64 709.914 2457.64 711.126 2448.65 717.185 2443.03 728.093 2443.03 740.212 2443.03 752.331 2448.65 763.238 2457.64 769.298 2457.64 769.298 2461.01 770.51 2462.13 772.934 2463.26 775.357 2463.26 777.781 2463.26 781.417 2463.26 786.265 2462.13 789.901 2459.89 791.112 2459.89 792.324 2457.64 793.536 2457.64 793.536 2448.65 799.596 2443.03 810.503 2443.03 822.622 2443.03 835.954 2449.78 846.861 2458.76 852.92 2463.26 854.132 2463.26 858.98 2463.26 861.404 2463.26 895.338 2454.27 922 2420.56 922 2420.56 922 2420.56 922 2420.56 922 2420.56 922 2420.56 922 2420.56 922 2420.56 922 2419.44 922 2419.44 922 2408.2 922 2400.34 914.728 2393.6 903.821Z" stroke="#000000" stroke-width="2.29167" stroke-linecap="round" stroke-linejoin="round" stroke-miterlimit="10" fill="none" fill-rule="evenodd"/><path d="M2343.06 898.63C2346.47 893.768 2346.47 890.122 2344.19 886.476 2341.92 881.614 2340.78 876.752 2340.78 870.675 2340.78 858.521 2346.47 847.582 2355.58 842.72 2355.58 841.505 2357.86 840.289 2359 840.289 2362.42 836.643 2361.28 829.35 2361.28 826.92 2361.28 823.273 2361.28 819.627 2356.72 817.196 2347.61 811.119 2340.78 800.18 2340.78 786.81 2340.78 774.656 2346.47 763.717 2355.58 758.855 2355.58 757.64 2357.86 756.424 2359 756.424 2360.14 753.993 2361.28 750.347 2361.28 745.485 2361.28 743.055 2361.28 739.408 2360.14 736.977 2359 735.762 2355.58 733.331 2355.58 733.331 2346.47 727.254 2340.78 716.315 2340.78 704.161 2340.78 692.006 2346.47 681.067 2355.58 674.99 2355.58 674.99 2356.72 673.775 2356.72 673.775 2368.11 664.051 2368.11 653.112 2368.11 645.82 2368.11 605.71 2368.11 605.71 2368.11 605.71 2368.11 571.678 2352.17 555.878 2331.67 555.878 2327.11 555.878 2322.56 557.093 2318 558.309 2339.64 546.154 2371.53 534 2419.36 534 2420.5 534 2420.5 534 2420.5 534 2468.33 534 2501.36 546.154 2523 558.309 2518.44 557.093 2513.89 555.878 2509.33 555.878 2487.69 555.878 2471.75 571.678 2471.75 605.71 2471.75 681.067 2471.75 681.067 2471.75 681.067 2471.75 689.575 2471.75 700.514 2483.14 709.022 2484.28 710.238 2484.28 710.238 2485.42 711.453 2493.39 717.53 2499.08 728.469 2499.08 740.624 2499.08 752.778 2493.39 763.717 2485.42 769.794 2484.28 769.794 2482 771.01 2480.86 773.44 2479.72 775.871 2478.58 778.302 2478.58 781.948 2478.58 786.81 2479.72 790.456 2482 791.672 2482 792.887 2484.28 794.103 2485.42 794.103 2493.39 800.18 2499.08 811.119 2499.08 823.273 2499.08 836.643 2493.39 847.582 2484.28 853.659 2479.72 854.875 2478.58 859.736 2478.58 862.167 2478.58 882.829 2485.42 899.846 2496.81 912 2489.97 909.569 2482 907.138 2474.03 907.138 2467.19 907.138 2458.08 909.569 2451.25 912 2450.11 912 2450.11 912 2450.11 912 2460.36 901.061 2463.78 882.829 2463.78 862.167 2463.78 859.736 2463.78 854.875 2459.22 853.659 2450.11 847.582 2443.28 836.643 2443.28 823.273 2443.28 811.119 2448.97 800.18 2458.08 794.103 2458.08 794.103 2460.36 792.887 2460.36 791.672 2462.64 790.456 2463.78 786.81 2463.78 781.948 2463.78 778.302 2463.78 775.871 2462.64 773.44 2461.5 771.01 2458.08 769.794 2458.08 769.794 2448.97 763.717 2443.28 752.778 2443.28 740.624 2443.28 728.469 2448.97 717.53 2458.08 711.453 2458.08 710.238 2459.22 710.238 2459.22 709.022 2470.61 700.514 2470.61 689.575 2470.61 681.067 2470.61 605.71 2470.61 605.71 2470.61 605.71 2470.61 571.678 2458.08 555.878 2420.5 555.878 2420.5 555.878 2420.5 555.878 2420.5 555.878 2420.5 555.878 2420.5 555.878 2420.5 555.878 2420.5 555.878 2419.36 555.878 2419.36 555.878 2382.92 555.878 2369.25 571.678 2369.25 605.71 2369.25 645.82 2369.25 645.82 2369.25 645.82 2369.25 653.112 2370.39 664.051 2380.64 673.775 2381.78 673.775 2381.78 674.99 2382.92 674.99 2390.89 681.067 2396.58 692.006 2396.58 704.161 2396.58 716.315 2390.89 727.254 2382.92 733.331 2381.78 733.331 2379.5 735.762 2378.36 736.977 2377.22 739.408 2376.08 743.055 2376.08 745.485 2376.08 750.347 2378.36 753.993 2379.5 756.424 2379.5 756.424 2381.78 757.64 2382.92 758.855 2390.89 763.717 2396.58 774.656 2396.58 786.81 2396.58 800.18 2390.89 811.119 2381.78 817.196 2377.22 819.627 2376.08 824.489 2376.08 826.92 2376.08 831.781 2377.22 836.643 2381.78 837.858 2390.89 841.505 2397.72 851.228 2400 863.383 2401.14 873.106 2398.86 882.829 2394.31 890.122 2393.17 892.553 2389.75 899.846 2393.17 904.707 2394.31 908.354 2396.58 909.569 2397.72 912 2388.61 909.569 2377.22 905.923 2366.97 905.923 2355.58 905.923 2343.06 909.569 2333.94 912 2333.94 912 2333.94 912 2333.94 912 2337.36 908.354 2340.78 903.492 2343.06 898.63Z" stroke="#000000" stroke-width="2.29167" stroke-linecap="round" stroke-linejoin="round" stroke-miterlimit="10" fill="none" fill-rule="evenodd"/><path d="M2460 556C2464 564.5 2468 576.643 2469 590" stroke="#000000" stroke-width="2.29167" stroke-linecap="round" stroke-linejoin="round" stroke-miterlimit="10" fill="none" fill-rule="evenodd"/><path d="M2454 547C2454 548.333 2455 549.667 2456 551" stroke="#000000" stroke-width="2.29167" stroke-linecap="round" stroke-linejoin="round" stroke-miterlimit="10" fill="none" fill-rule="evenodd"/><path d="M2387 547C2380.6 555.6 2373.13 570.343 2371 590" stroke="#000000" stroke-width="2.29167" stroke-linecap="round" stroke-linejoin="round" stroke-miterlimit="10" fill="none" fill-rule="evenodd"/></g></svg>