<svg width="319" height="391" xmlns="http://www.w3.org/2000/svg" xmlns:xlink="http://www.w3.org/1999/xlink" xml:space="preserve" overflow="hidden"><g transform="translate(-748 -1089)"><path d="M822.056 1454.63C825.472 1449.77 825.472 1446.12 823.195 1442.48 820.917 1437.61 819.778 1432.75 819.778 1426.68 819.778 1414.52 825.472 1403.58 834.583 1398.72 834.583 1397.5 836.861 1396.29 838 1396.29 841.417 1392.64 840.278 1385.35 840.278 1382.92 840.278 1379.27 840.278 1375.63 835.722 1373.2 826.611 1367.12 819.778 1356.18 819.778 1342.81 819.778 1330.66 825.472 1319.72 834.583 1314.86 834.583 1313.64 836.861 1312.42 838 1312.42 839.139 1309.99 840.278 1306.35 840.278 1301.49 840.278 1299.05 840.278 1295.41 839.139 1292.98 838 1291.76 834.583 1289.33 834.583 1289.33 825.472 1283.25 819.778 1272.32 819.778 1260.16 819.778 1248.01 825.472 1237.07 834.583 1230.99 834.583 1230.99 835.722 1229.77 835.722 1229.77 847.111 1220.05 847.111 1209.11 847.111 1201.82 847.111 1161.71 847.111 1161.71 847.111 1161.71 847.111 1127.68 831.167 1111.88 810.667 1111.88 806.111 1111.88 801.556 1113.09 797 1114.31 818.639 1102.15 850.528 1090 898.361 1090 899.5 1090 899.5 1090 899.5 1090 947.333 1090 980.361 1102.15 1002 1114.31 997.445 1113.09 992.889 1111.88 988.333 1111.88 966.695 1111.88 950.75 1127.68 950.75 1161.71 950.75 1237.07 950.75 1237.07 950.75 1237.07 950.75 1245.58 950.75 1256.51 962.139 1265.02 963.278 1266.24 963.278 1266.24 964.417 1267.45 972.389 1273.53 978.083 1284.47 978.083 1296.62 978.083 1308.78 972.389 1319.72 964.417 1325.79 963.278 1325.79 961 1327.01 959.861 1329.44 958.722 1331.87 957.583 1334.3 957.583 1337.95 957.583 1342.81 958.722 1346.46 961 1347.67 961 1348.89 963.278 1350.1 964.417 1350.1 972.389 1356.18 978.083 1367.12 978.083 1379.27 978.083 1392.64 972.389 1403.58 963.278 1409.66 958.722 1410.87 957.583 1415.74 957.583 1418.17 957.583 1438.83 964.417 1455.85 975.806 1468 968.972 1465.57 961 1463.14 953.028 1463.14 946.195 1463.14 937.083 1465.57 930.25 1468 929.111 1468 929.111 1468 929.111 1468 939.361 1457.06 942.778 1438.83 942.778 1418.17 942.778 1415.74 942.778 1410.87 938.222 1409.66 929.111 1403.58 922.278 1392.64 922.278 1379.27 922.278 1367.12 927.972 1356.18 937.083 1350.1 937.083 1350.1 939.361 1348.89 939.361 1347.67 941.639 1346.46 942.778 1342.81 942.778 1337.95 942.778 1334.3 942.778 1331.87 941.639 1329.44 940.5 1327.01 937.083 1325.79 937.083 1325.79 927.972 1319.72 922.278 1308.78 922.278 1296.62 922.278 1284.47 927.972 1273.53 937.083 1267.45 937.083 1266.24 938.222 1266.24 938.222 1265.02 949.611 1256.51 949.611 1245.58 949.611 1237.07 949.611 1161.71 949.611 1161.71 949.611 1161.71 949.611 1127.68 937.083 1111.88 899.5 1111.88 899.5 1111.88 899.5 1111.88 899.5 1111.88 899.5 1111.88 899.5 1111.88 899.5 1111.88 899.5 1111.88 898.361 1111.88 898.361 1111.88 861.917 1111.88 848.25 1127.68 848.25 1161.71 848.25 1201.82 848.25 1201.82 848.25 1201.82 848.25 1209.11 849.389 1220.05 859.639 1229.77 860.778 1229.77 860.778 1230.99 861.917 1230.99 869.889 1237.07 875.583 1248.01 875.583 1260.16 875.583 1272.32 869.889 1283.25 861.917 1289.33 860.778 1289.33 858.5 1291.76 857.361 1292.98 856.222 1295.41 855.083 1299.05 855.083 1301.49 855.083 1306.35 857.361 1309.99 858.5 1312.42 858.5 1312.42 860.778 1313.64 861.917 1314.86 869.889 1319.72 875.583 1330.66 875.583 1342.81 875.583 1356.18 869.889 1367.12 860.778 1373.2 856.222 1375.63 855.083 1380.49 855.083 1382.92 855.083 1387.78 856.222 1392.64 860.778 1393.86 869.889 1397.5 876.722 1407.23 879 1419.38 880.139 1429.11 877.861 1438.83 873.306 1446.12 872.167 1448.55 868.75 1455.85 872.167 1460.71 873.306 1464.35 875.583 1465.57 876.722 1468 867.611 1465.57 856.222 1461.92 845.972 1461.92 834.583 1461.92 822.056 1465.57 812.945 1468 812.945 1468 812.945 1468 812.945 1468 816.361 1464.35 819.778 1459.49 822.056 1454.63Z" fill="#A90D66" fill-rule="evenodd"/><path d="M987.901 1112C1008.57 1112 1024.65 1127.8 1024.65 1161.82 1024.65 1199.5 1020.06 1221.37 1017.76 1244.46 1015.47 1267.55 1022.36 1304.01 1041.88 1342.89 1059.11 1380.57 1066 1391.5 1066 1418.24 1066 1452.27 1043.03 1479 1008.57 1479 974.119 1479 956.891 1452.27 956.891 1418.24 956.891 1415.81 958.04 1410.95 962.634 1409.73 971.822 1403.66 977.564 1392.72 977.564 1379.35 977.564 1367.2 971.822 1356.26 963.782 1350.19 962.634 1350.19 960.337 1348.97 960.337 1347.76 958.04 1346.54 956.891 1342.89 956.891 1338.03 956.891 1334.39 958.04 1331.96 959.188 1329.53 960.337 1327.1 962.634 1325.88 963.782 1325.88 971.822 1319.8 977.564 1308.87 977.564 1296.72 977.564 1284.56 971.822 1273.63 963.782 1267.55 962.634 1266.33 962.634 1266.33 961.485 1265.12 950 1256.61 950 1245.68 950 1237.17 950 1161.82 950 1161.82 950 1161.82 950 1127.8 966.079 1112 987.901 1112Z" fill="#D39EB4" fill-rule="evenodd"/><path d="M1060 1418C1060 1391.33 1053.22 1380.42 1035.15 1342.84 1017.07 1304.05 1010.3 1267.68 1012.56 1244.65 1014.81 1221.62 1019.33 1199.8 1019.33 1162.22 1019.33 1139.18 1011.43 1125.85 1000.13 1121 1011.43 1125.85 1012.56 1147.67 1012.56 1170.7 1011.43 1201.01 999 1228.89 1001.26 1260.41 1002.39 1293.14 1019.33 1327.08 1029.5 1342.84 1038.54 1358.6 1058.87 1392.54 1060 1418Z" fill="#F0E1E7" fill-rule="evenodd"/><path d="M1035 1343C1016.54 1304.13 1009.62 1267.68 1011.92 1244.6 1014.23 1221.52 1018.85 1199.66 1018.85 1162 1016.54 1185.08 1010.77 1222.74 1008.46 1244.6 1005 1266.47 1011.92 1305.34 1035 1343Z" fill="#FFFFFF" fill-rule="evenodd"/><path d="M821.99 1454.7C825.4 1449.83 825.4 1446.19 823.126 1442.54 820.853 1437.68 819.716 1432.82 819.716 1426.75 819.716 1414.59 825.4 1403.66 834.495 1398.79 834.495 1397.58 836.768 1396.36 837.905 1396.36 841.316 1392.72 840.179 1385.43 840.179 1383 840.179 1379.35 840.179 1375.71 835.632 1373.27 826.537 1367.2 819.716 1356.26 819.716 1342.89 819.716 1330.74 825.4 1319.8 834.495 1314.94 834.495 1313.73 836.768 1312.51 837.905 1312.51 839.042 1310.08 840.179 1306.44 840.179 1301.58 840.179 1299.15 840.179 1295.5 839.042 1293.07 837.905 1291.85 834.495 1289.42 834.495 1289.42 825.4 1283.35 819.716 1272.41 819.716 1260.26 819.716 1248.11 825.4 1237.17 834.495 1231.09 834.495 1231.09 835.632 1229.88 835.632 1229.88 847 1220.16 847 1209.22 847 1201.93 847 1161.82 847 1161.82 847 1161.82 847 1127.8 831.084 1112 810.621 1112 790.158 1112 774.242 1127.8 774.242 1161.82 774.242 1199.5 777.653 1221.37 779.926 1244.46 783.337 1267.55 775.379 1304.01 757.19 1342.89 739 1380.57 754.916 1479 789.021 1479 802.663 1479 814.032 1469.28 821.99 1454.7" fill="#D39EB4" fill-rule="evenodd"/><path d="M793.28 1474C758.56 1474 744 1380.52 761.92 1342.89 779.84 1304.04 787.68 1267.62 784.32 1244.55 782.08 1221.49 778.72 1199.63 778.72 1162 778.72 1177.78 780.96 1205.7 789.92 1244.55 800 1284.61 782.08 1324.68 770.88 1353.81 758.56 1384.16 759.68 1463.07 793.28 1474Z" fill="#BF698E" fill-rule="evenodd"/><path d="M871.832 1460.77C868.427 1455.91 871.832 1448.62 872.966 1446.19 877.506 1438.9 879.775 1429.18 878.641 1419.45 876.371 1407.3 869.562 1397.58 860.483 1393.93 855.944 1392.72 854.809 1387.86 854.809 1383 854.809 1380.57 855.944 1375.71 860.483 1373.27 869.562 1367.2 875.236 1356.26 875.236 1342.89 875.236 1330.74 869.562 1319.8 861.618 1314.94 860.483 1313.73 858.214 1312.51 858.214 1312.51 857.079 1310.08 854.809 1306.44 854.809 1301.58 854.809 1299.15 855.944 1295.5 857.079 1293.07 858.214 1291.85 860.483 1289.42 861.618 1289.42 869.562 1283.35 875.236 1272.41 875.236 1260.26 875.236 1248.11 869.562 1237.17 861.618 1231.09 860.483 1231.09 860.483 1229.88 859.348 1229.88 849.135 1220.16 848 1209.22 848 1201.93 848 1161.82 848 1161.82 848 1161.82 848 1127.8 861.618 1112 897.933 1112 897.933 1112 899.068 1112 899.068 1112 899.068 1112 899.068 1112 899.068 1112 899.068 1112 899.068 1112 899.068 1112 936.517 1112 949 1127.8 949 1161.82 949 1237.17 949 1237.17 949 1237.17 949 1245.68 949 1256.61 937.652 1265.12 937.652 1266.33 936.517 1266.33 936.517 1267.55 927.438 1273.63 921.764 1284.56 921.764 1296.72 921.764 1308.87 927.438 1319.8 936.517 1325.88 936.517 1325.88 939.921 1327.1 941.056 1329.53 942.191 1331.96 942.191 1334.39 942.191 1338.03 942.191 1342.89 941.056 1346.54 938.787 1347.76 938.787 1348.97 936.517 1350.19 936.517 1350.19 927.438 1356.26 921.764 1367.2 921.764 1379.35 921.764 1392.72 928.573 1403.66 937.652 1409.73 942.191 1410.95 942.191 1415.81 942.191 1418.24 942.191 1452.27 933.112 1479 899.068 1479 899.068 1479 899.068 1479 899.068 1479 899.068 1479 899.068 1479 899.068 1479 899.068 1479 897.933 1479 897.933 1479 886.584 1479 878.641 1471.71 871.832 1460.77Z" fill="#D39EB4" fill-rule="evenodd"/><path d="M927.931 1122.52C942.724 1128.61 945 1146.88 945 1161.49 945 1232.11 945 1232.11 945 1232.11 945 1239.42 945 1252.81 931.345 1263.77 930.207 1264.99 930.207 1264.99 930.207 1264.99 929.069 1266.21 929.069 1266.21 929.069 1266.21 922.241 1271.08 917.69 1285.69 917.69 1296.65 917.69 1306.39 921.103 1316.13 924.517 1321 924.517 1321 924.517 1321 924.517 1321 917.69 1313.69 913.138 1301.52 913.138 1290.56 913.138 1277.16 915.414 1263.77 925.655 1257.68 924.517 1257.68 924.517 1257.68 924.517 1257.68 926.793 1255.25 926.793 1255.25 926.793 1255.25 935.896 1247.94 941.586 1246.72 941.586 1230.89 937.034 1161.49 937.034 1161.49 937.034 1161.49 937.034 1144.44 933.621 1132.26 925.655 1127.39 917.69 1122.52 900.621 1115.22 880.138 1121.31 879 1121.31 879 1121.31 879 1121.31 901.759 1114 917.69 1118.87 927.931 1122.52Z" fill="#F0E1E7" fill-rule="evenodd"/><path d="M945 1162C945 1147.37 942.733 1129.09 928 1123 931.4 1125.44 943.867 1138.84 945 1162Z" fill="#FFFFFF" fill-rule="evenodd"/><path d="M824.295 1286C824.295 1286 824.295 1286 824.295 1286 824.295 1286 824.295 1286 824.295 1286ZM793 1120.31C793 1119.09 793 1119.09 793 1119.09 812.705 1116.66 823.136 1121.53 826.614 1125.18 832.409 1131.27 835.886 1136.15 838.204 1153.2 840.523 1195.85 840.523 1195.85 840.523 1195.85 840.523 1211.68 835.886 1214.12 826.614 1221.43 824.295 1223.87 824.295 1223.87 824.295 1223.87 813.864 1231.18 811.545 1242.14 811.545 1255.54 811.545 1266.51 817.341 1278.69 824.295 1286 819.659 1281.13 816.182 1271.38 816.182 1261.63 816.182 1250.67 821.977 1236.05 828.932 1231.18 828.932 1231.18 828.932 1231.18 828.932 1231.18 830.091 1228.74 830.091 1228.74 830.091 1228.74 844 1218.99 844 1204.37 844 1197.06 844 1155.64 844 1155.64 844 1155.64 844 1154.42 844 1154.42 844 1154.42 842.841 1142.24 839.364 1131.27 827.773 1121.53 821.977 1117.87 816.182 1113 793 1120.31Z" fill="#F0E1E7" fill-rule="evenodd"/><path d="M923.143 1360C919.714 1364.82 917.429 1374.46 917.429 1381.69 917.429 1393.73 923.143 1405.78 930 1410.6 936.857 1414.22 938 1421.45 938 1423.86 938 1440.72 934.572 1450.36 931.143 1460 930 1460 930 1460 930 1460 934.572 1450.36 935.714 1434.7 934.572 1427.47 934.572 1422.65 931.143 1417.83 928.857 1416.63 918.571 1410.6 914 1399.76 914 1384.1 914 1374.46 918.571 1366.02 923.143 1360Z" fill="#F0E1E7" fill-rule="evenodd"/><path d="M823.227 1321C819.818 1325.85 817.545 1335.56 817.545 1342.84 817.545 1354.97 823.227 1369.52 830.045 1374.38 836.864 1378.02 838 1382.87 838 1385.3 838 1390.15 838 1395 836.864 1386.51 836.864 1381.66 831.182 1379.23 828.909 1378.02 818.682 1371.95 813 1361.03 813 1345.26 813 1335.56 818.682 1327.07 823.227 1321Z" fill="#F0E1E7" fill-rule="evenodd"/><path d="M815.533 1443.75C813.267 1437.56 813.267 1430.15 814.4 1421.49 815.533 1410.36 821.2 1404.18 828 1398 828 1399.24 828 1399.24 828 1399.24 823.467 1402.95 818.933 1411.6 817.8 1419.02 816.667 1426.44 817.8 1437.56 821.2 1444.98 822.333 1448.69 823.467 1452.4 811 1466 814.4 1462.29 818.933 1451.16 815.533 1443.75Z" fill="#F0E1E7" fill-rule="evenodd"/><path d="M935 1260C929.211 1264.82 913 1279.28 918.789 1307 914.158 1292.54 914.158 1267.23 935 1260Z" fill="#FFFFFF" fill-rule="evenodd"/><path d="M919.167 1372C916.833 1379.27 915.667 1397.45 932 1412 921.5 1405.94 911 1393.82 919.167 1372Z" fill="#FFFFFF" fill-rule="evenodd"/><path d="M817.7 1334C816.6 1341.37 815.5 1361.03 832 1377 821 1369.63 810 1357.34 817.7 1334Z" fill="#FFFFFF" fill-rule="evenodd"/><path d="M975.857 1358C979.286 1362.9 981.571 1371.48 981.571 1380.05 981.571 1391.08 975.857 1404.55 969 1409.45 962.143 1411.9 961 1420.48 961 1422.93 961 1438.85 966.714 1447.43 970.143 1456 970.143 1456 970.143 1456 970.143 1456 966.714 1446.2 963.286 1433.95 964.429 1426.6 964.429 1421.7 967.857 1416.8 970.143 1415.58 980.428 1408.23 985 1398.43 985 1382.5 985 1371.48 980.428 1364.13 975.857 1358Z" fill="#F0E1E7" fill-rule="evenodd"/><path d="M975.909 1275C979.318 1279.81 981.591 1289.44 981.591 1296.67 981.591 1308.7 975.909 1321.94 969.091 1325.56 962.273 1329.17 960 1336.39 960 1338.8 961.136 1340 961.136 1340 961.136 1338.8 961.136 1333.98 967.955 1330.37 970.227 1329.17 980.454 1323.15 985 1314.72 985 1300.28 985 1289.44 980.454 1282.22 975.909 1275Z" fill="#F0E1E7" fill-rule="evenodd"/><path d="M873.217 1239C876.478 1243.81 878.652 1253.44 878.652 1260.67 878.652 1272.7 873.217 1285.94 866.696 1289.56 860.174 1293.17 858 1300.39 858 1302.8 859.087 1304 859.087 1304 859.087 1302.8 859.087 1297.98 865.609 1294.37 867.783 1293.17 877.565 1287.15 883 1278.72 883 1264.28 883 1253.44 877.565 1246.22 873.217 1239Z" fill="#F0E1E7" fill-rule="evenodd"/><path d="M873.238 1319C876.524 1323.93 878.714 1332.57 878.714 1341.2 878.714 1352.3 873.238 1368.33 866.667 1373.27 860.095 1376.97 859 1381.9 859 1384.37 859 1389.3 859 1393 860.095 1385.6 860.095 1380.67 865.571 1378.2 867.762 1376.97 877.619 1369.57 882 1359.7 882 1343.67 882 1332.57 877.619 1325.17 873.238 1319Z" fill="#F0E1E7" fill-rule="evenodd"/><path d="M881.273 1448.21C884.818 1442.16 886 1434.89 886 1426.42 886 1415.53 881.273 1408.26 875.364 1401 875.364 1402.21 875.364 1402.21 875.364 1402.21 878.909 1407.05 882.454 1415.53 882.454 1422.79 882.454 1431.26 880.091 1440.95 875.364 1448.21 874.182 1451.84 873 1454.26 883.636 1470 880.091 1466.37 877.727 1454.26 881.273 1448.21Z" fill="#F0E1E7" fill-rule="evenodd"/><path d="M834 1226C828.167 1230.92 813 1245.69 818.833 1274 813 1258 813 1233.38 834 1226Z" fill="#FFFFFF" fill-rule="evenodd"/><path d="M765.237 1347.35C786.737 1303.58 789 1263.45 784.474 1244 787.868 1267.1 779.947 1303.58 761.842 1342.49 748.263 1370.45 753.921 1430.03 770.895 1458 764.105 1436.11 746 1387.48 765.237 1347.35Z" fill="#A90D66" fill-rule="evenodd"/><path d="M965.44 1143.48C968.92 1128.92 972.4 1122.85 984 1118 974.72 1119.21 958.48 1127.7 956.16 1148.33 955 1168.95 955 1232.03 955 1241.74 955 1251.44 961.96 1257.51 968.92 1266 963.12 1255.08 958.48 1249.02 958.48 1225.97 958.48 1210.2 958.48 1168.95 965.44 1143.48Z" fill="#BF698E" fill-rule="evenodd"/><path d="M867 1126C859.5 1132.02 855.214 1138.05 854.143 1147.69 853.072 1158.53 853.072 1185.04 852 1197.08 852 1209.13 855.214 1219.98 861.643 1226 856.286 1215.16 857.357 1210.34 857.357 1188.65 858.429 1168.17 856.286 1144.07 867 1126Z" fill="#BF698E" fill-rule="evenodd"/><path d="M972 1114.14C966.394 1105.64 941.727 1102 935 1105.64 939.485 1112.93 943.97 1122.64 946.212 1131.14 948.455 1138.43 948.455 1146.93 950.697 1153 954.061 1138.43 959.667 1123.86 968.636 1115.36" fill="#800B4E" fill-rule="evenodd"/><path d="M865 1106C858.04 1121.81 851.08 1133.97 848.76 1151 847.6 1143.7 838.32 1126.68 836 1119.38 847.6 1109.65 859.2 1108.43 865 1106" fill="#800B4E" fill-rule="evenodd"/><path d="M881 1109.69C873.3 1112.15 864.5 1115.85 859 1122 860.1 1115.85 863.4 1110.92 866.7 1106 867.8 1112.15 874.4 1110.92 878.8 1110.92" fill="#800B4E" fill-rule="evenodd"/><path d="M929.2 1358C923.45 1366.56 920 1389.78 931.5 1400.78 943 1413 941.85 1411.78 941.85 1411.78 941.85 1411.78 920 1381.22 929.2 1358Z" fill="#800B4E" fill-rule="evenodd"/><path d="M825.2 1323C819.45 1331.59 816 1353.68 827.5 1365.95 839 1377 839 1375.77 839 1375.77 839 1375.77 816 1345.09 825.2 1323Z" fill="#800B4E" fill-rule="evenodd"/><path d="M820.949 1458.29C843.661 1463.14 860.695 1448.58 860.695 1424.3 860.695 1400.02 848.203 1407.3 849.339 1389.09 849.339 1370.88 861.83 1366.03 861.83 1346.6 861.83 1328.39 851.61 1333.25 849.339 1305.33 847.068 1277.41 855.017 1285.9 860.695 1268.91 865.237 1250.7 857.288 1243.42 848.203 1242.2 845.932 1240.99 842.525 1240.99 839.119 1242.2 833.441 1242.2 823.22 1253.13 826.627 1268.91 831.169 1282.26 839.119 1294.4 839.119 1294.4 839.119 1294.4 839.119 1295.62 827.763 1283.48 820.949 1276.19 819.813 1264.05 820.949 1254.34 820.949 1255.55 820.949 1255.55 820.949 1256.77 820.949 1256.77 820.949 1256.77 820.949 1256.77 822.085 1245.84 826.627 1236.13 834.576 1231.28 834.576 1231.28 835.712 1230.06 835.712 1230.06 847.068 1220.35 847.068 1209.42 847.068 1202.14 847.068 1190 847.068 1190 847.068 1190 848.203 1190 848.203 1190 848.203 1190 848.203 1202.14 848.203 1202.14 848.203 1202.14 848.203 1209.42 849.339 1220.35 859.559 1230.06 860.695 1230.06 860.695 1231.28 861.83 1231.28 869.78 1237.35 875.458 1248.27 875.458 1260.41 875.458 1272.55 869.78 1283.48 861.83 1289.55 860.695 1289.55 858.424 1291.97 857.288 1293.19 856.153 1295.62 855.017 1299.26 855.017 1301.69 855.017 1306.54 857.288 1310.18 858.424 1312.61 858.424 1312.61 860.695 1313.83 861.83 1315.04 869.78 1319.9 875.458 1330.82 875.458 1342.96 875.458 1356.31 869.78 1367.24 860.695 1373.31 856.153 1375.74 855.017 1380.59 855.017 1383.02 855.017 1387.88 856.153 1392.73 860.695 1393.95 869.78 1397.59 876.593 1407.3 878.864 1419.44 880 1429.15 877.729 1438.86 873.186 1446.15 872.051 1448.58 868.644 1455.86 872.051 1460.72 873.186 1464.36 875.458 1465.57 876.593 1468 867.508 1465.57 856.153 1461.93 845.932 1461.93 834.576 1461.93 822.085 1465.57 813 1468 813 1468 813 1468 813 1468 815.271 1465.57 817.542 1461.93 820.949 1458.29Z" fill="#800B4E" fill-rule="evenodd"/><path d="M924.286 1285.7C924.286 1286.92 923.143 1286.92 923.143 1288.13 923.143 1288.13 923.143 1288.13 923.143 1288.13 926.571 1278.41 926.571 1278.41 926.571 1278.41 928.857 1273.55 932.286 1269.9 936.857 1267.47 936.857 1266.26 938 1266.26 938 1265.04 949.429 1256.54 949.429 1245.6 949.429 1237.09 949.429 1214 949.429 1214 949.429 1214 950.571 1214 950.571 1214 950.571 1214 950.571 1237.09 950.571 1237.09 950.571 1237.09 950.571 1245.6 950.571 1256.54 962 1265.04 963.143 1266.26 963.143 1266.26 964.286 1267.47 972.286 1273.55 978 1284.49 978 1296.64 978 1308.79 972.286 1319.73 964.286 1325.81 963.143 1325.81 960.857 1327.02 959.714 1329.45 958.571 1331.89 957.429 1334.32 957.429 1337.96 957.429 1342.82 958.571 1346.47 960.857 1347.68 960.857 1348.9 963.143 1350.11 964.286 1350.11 972.286 1356.19 978 1367.13 978 1379.28 978 1392.65 972.286 1403.59 963.143 1409.67 958.571 1410.88 957.429 1415.74 957.429 1418.17 957.429 1438.83 964.286 1455.85 975.714 1468 968.857 1465.57 960.857 1463.14 952.857 1463.14 948.286 1463.14 941.429 1464.35 935.714 1465.57 954 1455.85 950.571 1435.19 950.571 1424.25 950.571 1412.1 948.286 1409.67 956.286 1401.16 964.286 1392.65 964.286 1375.64 959.714 1368.34 955.143 1361.05 951.714 1351.33 951.714 1340.39 951.714 1330.67 949.429 1323.38 959.714 1312.44 968.857 1302.72 965.429 1288.13 958.571 1279.63 954 1275.98 947.143 1273.55 940.286 1274.77 935.714 1275.98 923.143 1290.56 927.714 1305.15 932.286 1319.73 941.429 1329.45 941.429 1329.45 941.429 1329.45 942.571 1330.67 931.143 1318.52 922 1310.01 922 1296.64 924.286 1285.7Z" fill="#800B4E" fill-rule="evenodd"/><path d="M944 1097.38C923.429 1092.77 872 1087 832 1102 853.714 1096.23 920 1091.62 944 1097.38Z" fill="#FFFFFF" fill-rule="evenodd"/><path d="M824 1337C824 1347.88 827.667 1359.96 835 1366 831.333 1359.96 824 1337 824 1337Z" fill="#FFFFFF" fill-rule="evenodd"/><path d="M927 1372C927 1381.74 930.333 1395.13 937 1400 933.667 1395.13 927 1372 927 1372Z" fill="#FFFFFF" fill-rule="evenodd"/><path d="M829 1251C826 1260.67 826 1271.54 830 1280 829 1272.75 829 1251 829 1251Z" fill="#FFFFFF" fill-rule="evenodd"/><path d="M930.6 1286C928.2 1295.67 927 1306.54 933 1315 930.6 1308.96 930.6 1286 930.6 1286Z" fill="#FFFFFF" fill-rule="evenodd"/><path d="M826.6 1415C824.2 1424.67 823 1435.54 829 1444 826.6 1437.96 826.6 1415 826.6 1415Z" fill="#FFFFFF" fill-rule="evenodd"/><path d="M987.901 1112C1008.57 1112 1024.65 1127.8 1024.65 1161.82 1024.65 1199.5 1020.06 1221.37 1017.76 1244.46 1015.47 1267.55 1022.36 1304.01 1041.88 1342.89 1059.11 1380.57 1066 1391.5 1066 1418.24 1066 1452.27 1043.03 1479 1008.57 1479 974.119 1479 956.891 1452.27 956.891 1418.24 956.891 1415.81 958.04 1410.95 962.634 1409.73 971.822 1403.66 977.564 1392.72 977.564 1379.35 977.564 1367.2 971.822 1356.26 963.782 1350.19 962.634 1350.19 960.337 1348.97 960.337 1347.76 958.04 1346.54 956.891 1342.89 956.891 1338.03 956.891 1334.39 958.04 1331.96 959.188 1329.53 960.337 1327.1 962.634 1325.88 963.782 1325.88 971.822 1319.8 977.564 1308.87 977.564 1296.72 977.564 1284.56 971.822 1273.63 963.782 1267.55 962.634 1266.33 962.634 1266.33 961.485 1265.12 950 1256.61 950 1245.68 950 1237.17 950 1161.82 950 1161.82 950 1161.82 950 1127.8 966.079 1112 987.901 1112Z" stroke="#000000" stroke-width="2.29167" stroke-linecap="round" stroke-linejoin="round" stroke-miterlimit="10" fill="none" fill-rule="evenodd"/><path d="M821.99 1454.7C825.4 1449.83 825.4 1446.19 823.126 1442.54 820.853 1437.68 819.716 1432.82 819.716 1426.75 819.716 1414.59 825.4 1403.66 834.495 1398.79 834.495 1397.58 836.768 1396.36 837.905 1396.36 841.316 1392.72 840.179 1385.43 840.179 1383 840.179 1379.35 840.179 1375.71 835.632 1373.27 826.537 1367.2 819.716 1356.26 819.716 1342.89 819.716 1330.74 825.4 1319.8 834.495 1314.94 834.495 1313.73 836.768 1312.51 837.905 1312.51 839.042 1310.08 840.179 1306.44 840.179 1301.58 840.179 1299.15 840.179 1295.5 839.042 1293.07 837.905 1291.85 834.495 1289.42 834.495 1289.42 825.4 1283.35 819.716 1272.41 819.716 1260.26 819.716 1248.11 825.4 1237.17 834.495 1231.09 834.495 1231.09 835.632 1229.88 835.632 1229.88 847 1220.16 847 1209.22 847 1201.93 847 1161.82 847 1161.82 847 1161.82 847 1127.8 831.084 1112 810.621 1112 790.158 1112 774.242 1127.8 774.242 1161.82 774.242 1199.5 777.653 1221.37 779.926 1244.46 783.337 1267.55 775.379 1304.01 757.19 1342.89 739 1380.57 754.916 1479 789.021 1479 802.663 1479 814.032 1469.28 821.99 1454.7" stroke="#000000" stroke-width="2.29167" stroke-linecap="round" stroke-linejoin="round" stroke-miterlimit="10" fill="none" fill-rule="evenodd"/><path d="M871.832 1460.77C868.427 1455.91 871.832 1448.62 872.966 1446.19 877.506 1438.9 879.775 1429.18 878.641 1419.45 876.371 1407.3 869.562 1397.58 860.483 1393.93 855.944 1392.72 854.809 1387.86 854.809 1383 854.809 1380.57 855.944 1375.71 860.483 1373.27 869.562 1367.2 875.236 1356.26 875.236 1342.89 875.236 1330.74 869.562 1319.8 861.618 1314.94 860.483 1313.73 858.214 1312.51 858.214 1312.51 857.079 1310.08 854.809 1306.44 854.809 1301.58 854.809 1299.15 855.944 1295.5 857.079 1293.07 858.214 1291.85 860.483 1289.42 861.618 1289.42 869.562 1283.35 875.236 1272.41 875.236 1260.26 875.236 1248.11 869.562 1237.17 861.618 1231.09 860.483 1231.09 860.483 1229.88 859.348 1229.88 849.135 1220.16 848 1209.22 848 1201.93 848 1161.82 848 1161.82 848 1161.82 848 1127.8 861.618 1112 897.933 1112 897.933 1112 899.068 1112 899.068 1112 899.068 1112 899.068 1112 899.068 1112 899.068 1112 899.068 1112 899.068 1112 936.517 1112 949 1127.8 949 1161.82 949 1237.17 949 1237.17 949 1237.17 949 1245.68 949 1256.61 937.652 1265.12 937.652 1266.33 936.517 1266.33 936.517 1267.55 927.438 1273.63 921.764 1284.56 921.764 1296.72 921.764 1308.87 927.438 1319.8 936.517 1325.88 936.517 1325.88 939.921 1327.1 941.056 1329.53 942.191 1331.96 942.191 1334.39 942.191 1338.03 942.191 1342.89 941.056 1346.54 938.787 1347.76 938.787 1348.97 936.517 1350.19 936.517 1350.19 927.438 1356.26 921.764 1367.2 921.764 1379.35 921.764 1392.72 928.573 1403.66 937.652 1409.73 942.191 1410.95 942.191 1415.81 942.191 1418.24 942.191 1452.27 933.112 1479 899.068 1479 899.068 1479 899.068 1479 899.068 1479 899.068 1479 899.068 1479 899.068 1479 899.068 1479 897.933 1479 897.933 1479 886.584 1479 878.641 1471.71 871.832 1460.77Z" stroke="#000000" stroke-width="2.29167" stroke-linecap="round" stroke-linejoin="round" stroke-miterlimit="10" fill="none" fill-rule="evenodd"/><path d="M822.056 1454.63C825.472 1449.77 825.472 1446.12 823.195 1442.48 820.917 1437.61 819.778 1432.75 819.778 1426.68 819.778 1414.52 825.472 1403.58 834.583 1398.72 834.583 1397.5 836.861 1396.29 838 1396.29 841.417 1392.64 840.278 1385.35 840.278 1382.92 840.278 1379.27 840.278 1375.63 835.722 1373.2 826.611 1367.12 819.778 1356.18 819.778 1342.81 819.778 1330.66 825.472 1319.72 834.583 1314.86 834.583 1313.64 836.861 1312.42 838 1312.42 839.139 1309.99 840.278 1306.35 840.278 1301.49 840.278 1299.05 840.278 1295.41 839.139 1292.98 838 1291.76 834.583 1289.33 834.583 1289.33 825.472 1283.25 819.778 1272.32 819.778 1260.16 819.778 1248.01 825.472 1237.07 834.583 1230.99 834.583 1230.99 835.722 1229.77 835.722 1229.77 847.111 1220.05 847.111 1209.11 847.111 1201.82 847.111 1161.71 847.111 1161.71 847.111 1161.71 847.111 1127.68 831.167 1111.88 810.667 1111.88 806.111 1111.88 801.556 1113.09 797 1114.31 818.639 1102.15 850.528 1090 898.361 1090 899.5 1090 899.5 1090 899.5 1090 947.333 1090 980.361 1102.15 1002 1114.31 997.445 1113.09 992.889 1111.88 988.333 1111.88 966.695 1111.88 950.75 1127.68 950.75 1161.71 950.75 1237.07 950.75 1237.07 950.75 1237.07 950.75 1245.58 950.75 1256.51 962.139 1265.02 963.278 1266.24 963.278 1266.24 964.417 1267.45 972.389 1273.53 978.083 1284.47 978.083 1296.62 978.083 1308.78 972.389 1319.72 964.417 1325.79 963.278 1325.79 961 1327.01 959.861 1329.44 958.722 1331.87 957.583 1334.3 957.583 1337.95 957.583 1342.81 958.722 1346.46 961 1347.67 961 1348.89 963.278 1350.1 964.417 1350.1 972.389 1356.18 978.083 1367.12 978.083 1379.27 978.083 1392.64 972.389 1403.58 963.278 1409.66 958.722 1410.87 957.583 1415.74 957.583 1418.17 957.583 1438.83 964.417 1455.85 975.806 1468 968.972 1465.57 961 1463.14 953.028 1463.14 946.195 1463.14 937.083 1465.57 930.25 1468 929.111 1468 929.111 1468 929.111 1468 939.361 1457.06 942.778 1438.83 942.778 1418.17 942.778 1415.74 942.778 1410.87 938.222 1409.66 929.111 1403.58 922.278 1392.64 922.278 1379.27 922.278 1367.12 927.972 1356.18 937.083 1350.1 937.083 1350.1 939.361 1348.89 939.361 1347.67 941.639 1346.46 942.778 1342.81 942.778 1337.95 942.778 1334.3 942.778 1331.87 941.639 1329.44 940.5 1327.01 937.083 1325.79 937.083 1325.79 927.972 1319.72 922.278 1308.78 922.278 1296.62 922.278 1284.47 927.972 1273.53 937.083 1267.45 937.083 1266.24 938.222 1266.24 938.222 1265.02 949.611 1256.51 949.611 1245.58 949.611 1237.07 949.611 1161.71 949.611 1161.71 949.611 1161.71 949.611 1127.68 937.083 1111.88 899.5 1111.88 899.5 1111.88 899.5 1111.88 899.5 1111.88 899.5 1111.88 899.5 1111.88 899.5 1111.88 899.5 1111.88 898.361 1111.88 898.361 1111.88 861.917 1111.88 848.25 1127.68 848.25 1161.71 848.25 1201.82 848.25 1201.82 848.25 1201.82 848.25 1209.11 849.389 1220.05 859.639 1229.77 860.778 1229.77 860.778 1230.99 861.917 1230.99 869.889 1237.07 875.583 1248.01 875.583 1260.16 875.583 1272.32 869.889 1283.25 861.917 1289.33 860.778 1289.33 858.5 1291.76 857.361 1292.98 856.222 1295.41 855.083 1299.05 855.083 1301.49 855.083 1306.35 857.361 1309.99 858.5 1312.42 858.5 1312.42 860.778 1313.64 861.917 1314.86 869.889 1319.72 875.583 1330.66 875.583 1342.81 875.583 1356.18 869.889 1367.12 860.778 1373.2 856.222 1375.63 855.083 1380.49 855.083 1382.92 855.083 1387.78 856.222 1392.64 860.778 1393.86 869.889 1397.5 876.722 1407.23 879 1419.38 880.139 1429.11 877.861 1438.83 873.306 1446.12 872.167 1448.55 868.75 1455.85 872.167 1460.71 873.306 1464.35 875.583 1465.57 876.722 1468 867.611 1465.57 856.222 1461.92 845.972 1461.92 834.583 1461.92 822.056 1465.57 812.945 1468 812.945 1468 812.945 1468 812.945 1468 816.361 1464.35 819.778 1459.49 822.056 1454.63Z" stroke="#000000" stroke-width="2.29167" stroke-linecap="round" stroke-linejoin="round" stroke-miterlimit="10" fill="none" fill-rule="evenodd"/><path d="M938 1112C942.445 1120.5 946.889 1132.64 948 1146" stroke="#000000" stroke-width="2.29167" stroke-linecap="round" stroke-linejoin="round" stroke-miterlimit="10" fill="none" fill-rule="evenodd"/><path d="M933 1103C933 1104.33 934 1105.67 935 1107" stroke="#000000" stroke-width="2.29167" stroke-linecap="round" stroke-linejoin="round" stroke-miterlimit="10" fill="none" fill-rule="evenodd"/><path d="M867 1103C860.2 1111.6 852.267 1126.34 850 1146" stroke="#000000" stroke-width="2.29167" stroke-linecap="round" stroke-linejoin="round" stroke-miterlimit="10" fill="none" fill-rule="evenodd"/></g></svg>