<svg width="319" height="391" xmlns="http://www.w3.org/2000/svg" xmlns:xlink="http://www.w3.org/1999/xlink" xml:space="preserve" overflow="hidden"><g transform="translate(-1554 -1721)"><path d="M1629.06 2086.63C1632.47 2081.77 1632.47 2078.12 1630.19 2074.48 1627.92 2069.61 1626.78 2064.75 1626.78 2058.68 1626.78 2046.52 1632.47 2035.58 1641.58 2030.72 1641.58 2029.5 1643.86 2028.29 1645 2028.29 1648.42 2024.64 1647.28 2017.35 1647.28 2014.92 1647.28 2011.27 1647.28 2007.63 1642.72 2005.2 1633.61 1999.12 1626.78 1988.18 1626.78 1974.81 1626.78 1962.66 1632.47 1951.72 1641.58 1946.86 1641.58 1945.64 1643.86 1944.42 1645 1944.42 1646.14 1941.99 1647.28 1938.35 1647.28 1933.49 1647.28 1931.05 1647.28 1927.41 1646.14 1924.98 1645 1923.76 1641.58 1921.33 1641.58 1921.33 1632.47 1915.25 1626.78 1904.32 1626.78 1892.16 1626.78 1880.01 1632.47 1869.07 1641.58 1862.99 1641.58 1862.99 1642.72 1861.77 1642.72 1861.77 1654.11 1852.05 1654.11 1841.11 1654.11 1833.82 1654.11 1793.71 1654.11 1793.71 1654.11 1793.71 1654.11 1759.68 1638.17 1743.88 1617.67 1743.88 1613.11 1743.88 1608.56 1745.09 1604 1746.31 1625.64 1734.15 1657.53 1722 1705.36 1722 1706.5 1722 1706.5 1722 1706.5 1722 1754.33 1722 1787.36 1734.15 1809 1746.31 1804.44 1745.09 1799.89 1743.88 1795.33 1743.88 1773.69 1743.88 1757.75 1759.68 1757.75 1793.71 1757.75 1869.07 1757.75 1869.07 1757.75 1869.07 1757.75 1877.58 1757.75 1888.51 1769.14 1897.02 1770.28 1898.24 1770.28 1898.24 1771.42 1899.45 1779.39 1905.53 1785.08 1916.47 1785.08 1928.62 1785.08 1940.78 1779.39 1951.72 1771.42 1957.79 1770.28 1957.79 1768 1959.01 1766.86 1961.44 1765.72 1963.87 1764.58 1966.3 1764.58 1969.95 1764.58 1974.81 1765.72 1978.46 1768 1979.67 1768 1980.89 1770.28 1982.1 1771.42 1982.1 1779.39 1988.18 1785.08 1999.12 1785.08 2011.27 1785.08 2024.64 1779.39 2035.58 1770.28 2041.66 1765.72 2042.87 1764.58 2047.74 1764.58 2050.17 1764.58 2070.83 1771.42 2087.85 1782.81 2100 1775.97 2097.57 1768 2095.14 1760.03 2095.14 1753.19 2095.14 1744.08 2097.57 1737.25 2100 1736.11 2100 1736.11 2100 1736.11 2100 1746.36 2089.06 1749.78 2070.83 1749.78 2050.17 1749.78 2047.74 1749.78 2042.87 1745.22 2041.66 1736.11 2035.58 1729.28 2024.64 1729.28 2011.27 1729.28 1999.12 1734.97 1988.18 1744.08 1982.1 1744.08 1982.1 1746.36 1980.89 1746.36 1979.67 1748.64 1978.46 1749.78 1974.81 1749.78 1969.95 1749.78 1966.3 1749.78 1963.87 1748.64 1961.44 1747.5 1959.01 1744.08 1957.79 1744.08 1957.79 1734.97 1951.72 1729.28 1940.78 1729.28 1928.62 1729.28 1916.47 1734.97 1905.53 1744.08 1899.45 1744.08 1898.24 1745.22 1898.24 1745.22 1897.02 1756.61 1888.51 1756.61 1877.58 1756.61 1869.07 1756.61 1793.71 1756.61 1793.71 1756.61 1793.71 1756.61 1759.68 1744.08 1743.88 1706.5 1743.88 1706.5 1743.88 1706.5 1743.88 1706.5 1743.88 1706.5 1743.88 1706.5 1743.88 1706.5 1743.88 1706.5 1743.88 1705.36 1743.88 1705.36 1743.88 1668.92 1743.88 1655.25 1759.68 1655.25 1793.71 1655.25 1833.82 1655.25 1833.82 1655.25 1833.82 1655.25 1841.11 1656.39 1852.05 1666.64 1861.77 1667.78 1861.77 1667.78 1862.99 1668.92 1862.99 1676.89 1869.07 1682.58 1880.01 1682.58 1892.16 1682.58 1904.32 1676.89 1915.25 1668.92 1921.33 1667.78 1921.33 1665.5 1923.76 1664.36 1924.98 1663.22 1927.41 1662.08 1931.05 1662.08 1933.49 1662.08 1938.35 1664.36 1941.99 1665.5 1944.42 1665.5 1944.42 1667.78 1945.64 1668.92 1946.86 1676.89 1951.72 1682.58 1962.66 1682.58 1974.81 1682.58 1988.18 1676.89 1999.12 1667.78 2005.2 1663.22 2007.63 1662.08 2012.49 1662.08 2014.92 1662.08 2019.78 1663.22 2024.64 1667.78 2025.86 1676.89 2029.5 1683.72 2039.23 1686 2051.38 1687.14 2061.11 1684.86 2070.83 1680.31 2078.12 1679.17 2080.55 1675.75 2087.85 1679.17 2092.71 1680.31 2096.35 1682.58 2097.57 1683.72 2100 1674.61 2097.57 1663.22 2093.92 1652.97 2093.92 1641.58 2093.92 1629.06 2097.57 1619.94 2100 1619.94 2100 1619.94 2100 1619.94 2100 1623.36 2096.35 1626.78 2091.49 1629.06 2086.63Z" fill="#D04B5D" fill-rule="evenodd"/><path d="M1794.57 1744C1815.07 1744 1831.01 1759.8 1831.01 1793.82 1831.01 1831.5 1826.46 1853.37 1824.18 1876.46 1821.9 1899.55 1828.73 1936.01 1848.09 1974.89 1865.17 2012.57 1872 2023.5 1872 2050.24 1872 2084.26 1849.23 2111 1815.07 2111 1780.91 2111 1763.83 2084.26 1763.83 2050.24 1763.83 2047.81 1764.97 2042.95 1769.52 2041.73 1778.63 2035.66 1784.33 2024.72 1784.33 2011.35 1784.33 1999.2 1778.63 1988.26 1770.66 1982.19 1769.52 1982.19 1767.25 1980.97 1767.25 1979.75 1764.97 1978.54 1763.83 1974.89 1763.83 1970.03 1763.83 1966.39 1764.97 1963.96 1766.11 1961.53 1767.25 1959.1 1769.52 1957.88 1770.66 1957.88 1778.63 1951.8 1784.33 1940.87 1784.33 1928.72 1784.33 1916.56 1778.63 1905.63 1770.66 1899.55 1769.52 1898.33 1769.52 1898.33 1768.39 1897.12 1757 1888.61 1757 1877.68 1757 1869.17 1757 1793.82 1757 1793.82 1757 1793.82 1757 1759.8 1772.94 1744 1794.57 1744Z" fill="#F19C9D" fill-rule="evenodd"/><path d="M1867 2050C1867 2023.33 1860.11 2012.42 1841.74 1974.84 1823.37 1936.05 1816.48 1899.68 1818.78 1876.65 1821.07 1853.62 1825.67 1831.8 1825.67 1794.22 1825.67 1771.18 1817.63 1757.85 1806.15 1753 1817.63 1757.85 1818.78 1779.67 1818.78 1802.7 1817.63 1833.01 1805 1860.89 1807.3 1892.41 1808.44 1925.14 1825.67 1959.08 1836 1974.84 1845.19 1990.6 1865.85 2024.54 1867 2050Z" fill="#EC777F" fill-rule="evenodd"/><path d="M1841 1975C1823.15 1936.13 1816.46 1899.68 1818.69 1876.6 1820.92 1853.52 1825.38 1831.66 1825.38 1794 1823.15 1817.08 1817.58 1854.74 1815.35 1876.6 1812 1898.47 1818.69 1937.34 1841 1975Z" fill="#FFFFFF" fill-rule="evenodd"/><path d="M1627.99 2086.7C1631.4 2081.83 1631.4 2078.19 1629.13 2074.54 1626.85 2069.68 1625.72 2064.82 1625.72 2058.75 1625.72 2046.59 1631.4 2035.66 1640.49 2030.79 1640.49 2029.58 1642.77 2028.36 1643.91 2028.36 1647.32 2024.72 1646.18 2017.43 1646.18 2015 1646.18 2011.35 1646.18 2007.71 1641.63 2005.27 1632.54 1999.2 1625.72 1988.26 1625.72 1974.89 1625.72 1962.74 1631.4 1951.8 1640.49 1946.94 1640.49 1945.73 1642.77 1944.51 1643.91 1944.51 1645.04 1942.08 1646.18 1938.44 1646.18 1933.58 1646.18 1931.15 1646.18 1927.5 1645.04 1925.07 1643.91 1923.85 1640.49 1921.42 1640.49 1921.42 1631.4 1915.35 1625.72 1904.41 1625.72 1892.26 1625.72 1880.11 1631.4 1869.17 1640.49 1863.09 1640.49 1863.09 1641.63 1861.88 1641.63 1861.88 1653 1852.16 1653 1841.22 1653 1833.93 1653 1793.82 1653 1793.82 1653 1793.82 1653 1759.8 1637.08 1744 1616.62 1744 1596.16 1744 1580.24 1759.8 1580.24 1793.82 1580.24 1831.5 1583.65 1853.37 1585.93 1876.46 1589.34 1899.55 1581.38 1936.01 1563.19 1974.89 1545 2012.57 1560.92 2111 1595.02 2111 1608.66 2111 1620.03 2101.28 1627.99 2086.7" fill="#F19C9D" fill-rule="evenodd"/><path d="M1600.16 2106C1564.82 2106 1550 2012.52 1568.24 1974.89 1586.48 1936.04 1594.46 1899.62 1591.04 1876.55 1588.76 1853.49 1585.34 1831.63 1585.34 1794 1585.34 1809.78 1587.62 1837.7 1596.74 1876.55 1607 1916.61 1588.76 1956.68 1577.36 1985.81 1564.82 2016.16 1565.96 2095.07 1600.16 2106Z" fill="#E85368" fill-rule="evenodd"/><path d="M1678.83 2092.77C1675.43 2087.91 1678.83 2080.62 1679.97 2078.19 1684.51 2070.9 1686.78 2061.18 1685.64 2051.45 1683.37 2039.3 1676.56 2029.58 1667.48 2025.93 1662.94 2024.72 1661.81 2019.86 1661.81 2015 1661.81 2012.57 1662.94 2007.71 1667.48 2005.27 1676.56 1999.2 1682.24 1988.26 1682.24 1974.89 1682.24 1962.74 1676.56 1951.8 1668.62 1946.94 1667.48 1945.73 1665.21 1944.51 1665.21 1944.51 1664.08 1942.08 1661.81 1938.44 1661.81 1933.58 1661.81 1931.15 1662.94 1927.5 1664.08 1925.07 1665.21 1923.85 1667.48 1921.42 1668.62 1921.42 1676.56 1915.35 1682.24 1904.41 1682.24 1892.26 1682.24 1880.11 1676.56 1869.17 1668.62 1863.09 1667.48 1863.09 1667.48 1861.88 1666.35 1861.88 1656.14 1852.16 1655 1841.22 1655 1833.93 1655 1793.82 1655 1793.82 1655 1793.82 1655 1759.8 1668.62 1744 1704.93 1744 1704.93 1744 1706.07 1744 1706.07 1744 1706.07 1744 1706.07 1744 1706.07 1744 1706.07 1744 1706.07 1744 1706.07 1744 1743.52 1744 1756 1759.8 1756 1793.82 1756 1869.17 1756 1869.17 1756 1869.17 1756 1877.68 1756 1888.61 1744.65 1897.12 1744.65 1898.33 1743.52 1898.33 1743.52 1899.55 1734.44 1905.63 1728.76 1916.56 1728.76 1928.72 1728.76 1940.87 1734.44 1951.8 1743.52 1957.88 1743.52 1957.88 1746.92 1959.1 1748.06 1961.53 1749.19 1963.96 1749.19 1966.39 1749.19 1970.03 1749.19 1974.89 1748.06 1978.54 1745.79 1979.75 1745.79 1980.97 1743.52 1982.19 1743.52 1982.19 1734.44 1988.26 1728.76 1999.2 1728.76 2011.35 1728.76 2024.72 1735.57 2035.66 1744.65 2041.73 1749.19 2042.95 1749.19 2047.81 1749.19 2050.24 1749.19 2084.26 1740.11 2111 1706.07 2111 1706.07 2111 1706.07 2111 1706.07 2111 1706.07 2111 1706.07 2111 1706.07 2111 1706.07 2111 1704.93 2111 1704.93 2111 1693.58 2111 1685.64 2103.71 1678.83 2092.77Z" fill="#F19C9D" fill-rule="evenodd"/><path d="M1734.19 1755.48C1748.76 1761.54 1751 1779.72 1751 1794.26 1751 1864.54 1751 1864.54 1751 1864.54 1751 1871.81 1751 1885.14 1737.55 1896.05 1736.43 1897.26 1736.43 1897.26 1736.43 1897.26 1735.31 1898.47 1735.31 1898.47 1735.31 1898.47 1728.59 1903.32 1724.1 1917.86 1724.1 1928.76 1724.1 1938.46 1727.47 1948.15 1730.83 1953 1730.83 1953 1730.83 1953 1730.83 1953 1724.1 1945.73 1719.62 1933.61 1719.62 1922.71 1719.62 1909.38 1721.86 1896.05 1731.95 1889.99 1730.83 1889.99 1730.83 1889.99 1730.83 1889.99 1733.07 1887.56 1733.07 1887.56 1733.07 1887.56 1742.03 1880.29 1747.64 1879.08 1747.64 1863.33 1743.16 1794.26 1743.16 1794.26 1743.16 1794.26 1743.16 1777.29 1739.79 1765.18 1731.95 1760.33 1724.1 1755.48 1707.29 1748.21 1687.12 1754.27 1686 1754.27 1686 1754.27 1686 1754.27 1708.41 1747 1724.1 1751.85 1734.19 1755.48Z" fill="#EC777F" fill-rule="evenodd"/><path d="M1751 1794C1751 1779.38 1748.73 1761.09 1734 1755 1737.4 1757.44 1749.87 1770.84 1751 1794Z" fill="#FFFFFF" fill-rule="evenodd"/><path d="M1630.68 1918C1630.68 1918 1630.68 1918 1630.68 1918 1630.68 1918 1630.68 1918 1630.68 1918ZM1600 1753.27C1600 1752.06 1600 1752.06 1600 1752.06 1619.32 1749.63 1629.55 1754.48 1632.95 1758.11 1638.64 1764.17 1642.05 1769.01 1644.32 1785.97 1646.59 1828.37 1646.59 1828.37 1646.59 1828.37 1646.59 1844.11 1642.05 1846.54 1632.95 1853.8 1630.68 1856.23 1630.68 1856.23 1630.68 1856.23 1620.45 1863.49 1618.18 1874.39 1618.18 1887.72 1618.18 1898.62 1623.86 1910.73 1630.68 1918 1626.14 1913.16 1622.73 1903.46 1622.73 1893.77 1622.73 1882.87 1628.41 1868.34 1635.23 1863.49 1635.23 1863.49 1635.23 1863.49 1635.23 1863.49 1636.36 1861.07 1636.36 1861.07 1636.36 1861.07 1650 1851.38 1650 1836.85 1650 1829.58 1650 1788.39 1650 1788.39 1650 1788.39 1650 1787.18 1650 1787.18 1650 1787.18 1648.86 1775.07 1645.45 1764.17 1634.09 1754.48 1628.41 1750.84 1622.73 1746 1600 1753.27Z" fill="#EC777F" fill-rule="evenodd"/><path d="M1729.52 1992C1725.95 1996.87 1723.57 2006.6 1723.57 2013.9 1723.57 2026.07 1729.52 2038.24 1736.67 2043.11 1743.81 2046.76 1745 2054.06 1745 2056.49 1745 2073.53 1741.43 2083.27 1737.86 2093 1736.67 2093 1736.67 2093 1736.67 2093 1741.43 2083.27 1742.62 2067.45 1741.43 2060.14 1741.43 2055.28 1737.86 2050.41 1735.48 2049.19 1724.76 2043.11 1720 2032.16 1720 2016.34 1720 2006.6 1724.76 1998.08 1729.52 1992Z" fill="#EC777F" fill-rule="evenodd"/><path d="M1629.23 1953C1625.82 1957.85 1623.55 1967.56 1623.55 1974.84 1623.55 1986.97 1629.23 2001.52 1636.05 2006.38 1642.86 2010.02 1644 2014.87 1644 2017.3 1644 2022.15 1644 2027 1642.86 2018.51 1642.86 2013.66 1637.18 2011.23 1634.91 2010.02 1624.68 2003.95 1619 1993.03 1619 1977.26 1619 1967.56 1624.68 1959.07 1629.23 1953Z" fill="#EC777F" fill-rule="evenodd"/><path d="M1621.53 2075.4C1619.27 2069.4 1619.27 2062.2 1620.4 2053.8 1621.53 2043 1627.2 2037 1634 2031 1634 2032.2 1634 2032.2 1634 2032.2 1629.47 2035.8 1624.93 2044.2 1623.8 2051.4 1622.67 2058.6 1623.8 2069.4 1627.2 2076.6 1628.33 2080.2 1629.47 2083.8 1617 2097 1620.4 2093.4 1624.93 2082.6 1621.53 2075.4Z" fill="#EC777F" fill-rule="evenodd"/><path d="M1741 1892C1735.21 1896.92 1719 1911.69 1724.79 1940 1720.16 1925.23 1720.16 1899.38 1741 1892Z" fill="#FFFFFF" fill-rule="evenodd"/><path d="M1725.17 2004C1722.83 2011.27 1721.67 2029.45 1738 2044 1727.5 2037.94 1717 2025.82 1725.17 2004Z" fill="#FFFFFF" fill-rule="evenodd"/><path d="M1624.05 1966C1622.9 1973.37 1621.75 1993.03 1639 2009 1627.5 2001.63 1616 1989.34 1624.05 1966Z" fill="#FFFFFF" fill-rule="evenodd"/><path d="M1782.48 1991C1786.05 1995.85 1788.43 2004.34 1788.43 2012.82 1788.43 2023.74 1782.48 2037.07 1775.33 2041.92 1768.19 2044.35 1767 2052.84 1767 2055.26 1767 2071.02 1772.95 2079.51 1776.52 2088 1776.52 2088 1776.52 2088 1776.52 2088 1772.95 2078.3 1769.38 2066.18 1770.57 2058.9 1770.57 2054.05 1774.14 2049.2 1776.52 2047.99 1787.24 2040.71 1792 2031.01 1792 2015.25 1792 2004.34 1787.24 1997.06 1782.48 1991Z" fill="#EC777F" fill-rule="evenodd"/><path d="M1782.55 1907C1786.09 1911.89 1788.45 1921.67 1788.45 1929 1788.45 1941.22 1782.55 1954.67 1775.45 1958.33 1768.36 1962 1766 1969.33 1766 1971.78 1767.18 1973 1767.18 1973 1767.18 1971.78 1767.18 1966.89 1774.27 1963.22 1776.64 1962 1787.27 1955.89 1792 1947.33 1792 1932.67 1792 1921.67 1787.27 1914.33 1782.55 1907Z" fill="#EC777F" fill-rule="evenodd"/><path d="M1679.83 1871C1683.22 1875.81 1685.48 1885.44 1685.48 1892.67 1685.48 1904.7 1679.83 1917.94 1673.04 1921.56 1666.26 1925.17 1664 1932.39 1664 1934.8 1665.13 1936 1665.13 1936 1665.13 1934.8 1665.13 1929.98 1671.91 1926.37 1674.17 1925.17 1684.35 1919.15 1690 1910.72 1690 1896.28 1690 1885.44 1684.35 1878.22 1679.83 1871Z" fill="#EC777F" fill-rule="evenodd"/><path d="M1679.86 1952C1683.29 1956.87 1685.57 1965.38 1685.57 1973.9 1685.57 1984.85 1679.86 2000.67 1673 2005.53 1666.14 2009.18 1665 2014.05 1665 2016.48 1665 2021.35 1665 2025 1666.14 2017.7 1666.14 2012.83 1671.86 2010.4 1674.14 2009.18 1684.43 2001.88 1689 1992.15 1689 1976.33 1689 1965.38 1684.43 1958.08 1679.86 1952Z" fill="#EC777F" fill-rule="evenodd"/><path d="M1687.64 2080.89C1690.91 2074.75 1692 2067.39 1692 2058.79 1692 2047.74 1687.64 2040.37 1682.18 2033 1682.18 2034.23 1682.18 2034.23 1682.18 2034.23 1685.45 2039.14 1688.73 2047.74 1688.73 2055.11 1688.73 2063.7 1686.55 2073.53 1682.18 2080.89 1681.09 2084.58 1680 2087.04 1689.82 2103 1686.55 2099.32 1684.36 2087.04 1687.64 2080.89Z" fill="#EC777F" fill-rule="evenodd"/><path d="M1640 1859C1634.17 1863.82 1619 1878.28 1624.83 1906 1619 1890.33 1619 1866.23 1640 1859Z" fill="#FFFFFF" fill-rule="evenodd"/><path d="M1571.68 1980.35C1593.68 1936.58 1596 1896.45 1591.37 1877 1594.84 1900.1 1586.74 1936.58 1568.21 1975.49 1554.32 2003.45 1560.11 2063.03 1577.47 2091 1570.53 2069.11 1552 2020.48 1571.68 1980.35Z" fill="#D04B5D" fill-rule="evenodd"/><path d="M1772.08 1775.65C1775.44 1760.99 1778.8 1754.89 1790 1750 1781.04 1751.22 1765.36 1759.77 1763.12 1780.53 1762 1801.3 1762 1864.8 1762 1874.57 1762 1884.34 1768.72 1890.45 1775.44 1899 1769.84 1888.01 1765.36 1881.9 1765.36 1858.7 1765.36 1842.82 1765.36 1801.3 1772.08 1775.65Z" fill="#E85368" fill-rule="evenodd"/><path d="M1674 1758C1666 1764.08 1661.43 1770.17 1660.29 1779.9 1659.14 1790.86 1659.14 1817.63 1658 1829.8 1658 1841.96 1661.43 1852.92 1668.29 1859 1662.57 1848.05 1663.71 1843.18 1663.71 1821.28 1664.86 1800.59 1662.57 1776.25 1674 1758Z" fill="#E85368" fill-rule="evenodd"/><path d="M1779 1746.38C1773.24 1737.71 1747.91 1734 1741 1737.71 1745.61 1745.14 1750.21 1755.05 1752.52 1763.71 1754.82 1771.14 1754.82 1779.81 1757.12 1786 1760.58 1771.14 1766.33 1756.29 1775.55 1747.62" fill="#9B3846" fill-rule="evenodd"/><path d="M1671 1738C1664.04 1753.81 1657.08 1765.97 1654.76 1783 1653.6 1775.7 1644.32 1758.68 1642 1751.38 1653.6 1741.65 1665.2 1740.43 1671 1738" fill="#9B3846" fill-rule="evenodd"/><path d="M1688 1741.69C1679.95 1744.15 1670.75 1747.85 1665 1754 1666.15 1747.85 1669.6 1742.92 1673.05 1738 1674.2 1744.15 1681.1 1742.92 1685.7 1742.92" fill="#9B3846" fill-rule="evenodd"/><path d="M1735.2 1991C1729.45 1999.4 1726 2022.2 1737.5 2033 1749 2045 1747.85 2043.8 1747.85 2043.8 1747.85 2043.8 1726 2013.8 1735.2 1991Z" fill="#9B3846" fill-rule="evenodd"/><path d="M1631.8 1955C1626.3 1963.59 1623 1985.68 1634 1997.95 1645 2009 1645 2007.77 1645 2007.77 1645 2007.77 1623 1977.09 1631.8 1955Z" fill="#9B3846" fill-rule="evenodd"/><path d="M1627.07 2090.29C1650.12 2095.14 1667.41 2080.58 1667.41 2056.3 1667.41 2032.02 1654.73 2039.3 1655.88 2021.09 1655.88 2002.88 1668.56 1998.03 1668.56 1978.6 1668.56 1960.39 1658.19 1965.25 1655.88 1937.33 1653.58 1909.41 1661.64 1917.9 1667.41 1900.91 1672.02 1882.7 1663.95 1875.41 1654.73 1874.2 1652.42 1872.99 1648.97 1872.99 1645.51 1874.2 1639.75 1874.2 1629.37 1885.13 1632.83 1900.91 1637.44 1914.26 1645.51 1926.4 1645.51 1926.4 1645.51 1926.4 1645.51 1927.62 1633.98 1915.48 1627.07 1908.19 1625.92 1896.05 1627.07 1886.34 1627.07 1887.55 1627.07 1887.55 1627.07 1888.77 1627.07 1888.77 1627.07 1888.77 1627.07 1888.77 1628.22 1877.84 1632.83 1868.13 1640.9 1863.28 1640.9 1863.28 1642.05 1862.06 1642.05 1862.06 1653.58 1852.35 1653.58 1841.42 1653.58 1834.14 1653.58 1822 1653.58 1822 1653.58 1822 1654.73 1822 1654.73 1822 1654.73 1822 1654.73 1834.14 1654.73 1834.14 1654.73 1834.14 1654.73 1841.42 1655.88 1852.35 1666.25 1862.06 1667.41 1862.06 1667.41 1863.28 1668.56 1863.28 1676.63 1869.34 1682.39 1880.27 1682.39 1892.41 1682.39 1904.55 1676.63 1915.48 1668.56 1921.55 1667.41 1921.55 1665.1 1923.97 1663.95 1925.19 1662.8 1927.62 1661.64 1931.26 1661.64 1933.69 1661.64 1938.54 1663.95 1942.18 1665.1 1944.61 1665.1 1944.61 1667.41 1945.83 1668.56 1947.04 1676.63 1951.9 1682.39 1962.82 1682.39 1974.96 1682.39 1988.31 1676.63 1999.24 1667.41 2005.31 1662.8 2007.74 1661.64 2012.59 1661.64 2015.02 1661.64 2019.88 1662.8 2024.73 1667.41 2025.95 1676.63 2029.59 1683.54 2039.3 1685.85 2051.44 1687 2061.15 1684.7 2070.86 1680.08 2078.15 1678.93 2080.58 1675.47 2087.86 1678.93 2092.72 1680.08 2096.36 1682.39 2097.57 1683.54 2100 1674.32 2097.57 1662.8 2093.93 1652.42 2093.93 1640.9 2093.93 1628.22 2097.57 1619 2100 1619 2100 1619 2100 1619 2100 1621.31 2097.57 1623.61 2093.93 1627.07 2090.29Z" fill="#9B3846" fill-rule="evenodd"/><path d="M1730.33 1918.42C1730.33 1919.63 1729.16 1919.63 1729.16 1920.84 1729.16 1920.84 1729.16 1920.84 1729.16 1920.84 1732.65 1911.16 1732.65 1911.16 1732.65 1911.16 1734.98 1906.32 1738.47 1902.68 1743.12 1900.26 1743.12 1899.05 1744.29 1899.05 1744.29 1897.84 1755.92 1889.37 1755.92 1878.47 1755.92 1870 1755.92 1847 1755.92 1847 1755.92 1847 1757.08 1847 1757.08 1847 1757.08 1847 1757.08 1870 1757.08 1870 1757.08 1870 1757.08 1878.47 1757.08 1889.37 1768.71 1897.84 1769.88 1899.05 1769.88 1899.05 1771.04 1900.26 1779.18 1906.32 1785 1917.21 1785 1929.32 1785 1941.42 1779.18 1952.32 1771.04 1958.37 1769.88 1958.37 1767.55 1959.58 1766.39 1962 1765.22 1964.42 1764.06 1966.84 1764.06 1970.47 1764.06 1975.32 1765.22 1978.95 1767.55 1980.16 1767.55 1981.37 1769.88 1982.58 1771.04 1982.58 1779.18 1988.63 1785 1999.53 1785 2011.63 1785 2024.95 1779.18 2035.84 1769.88 2041.89 1765.22 2043.11 1764.06 2047.95 1764.06 2050.37 1764.06 2070.95 1771.04 2087.89 1782.67 2100 1775.69 2097.58 1767.55 2095.16 1759.41 2095.16 1754.76 2095.16 1747.78 2096.37 1741.96 2097.58 1760.57 2087.89 1757.08 2067.32 1757.08 2056.42 1757.08 2044.32 1754.76 2041.89 1762.9 2033.42 1771.04 2024.95 1771.04 2008 1766.39 2000.74 1761.73 1993.47 1758.24 1983.79 1758.24 1972.89 1758.24 1963.21 1755.92 1955.95 1766.39 1945.05 1775.69 1935.37 1772.2 1920.84 1765.22 1912.37 1760.57 1908.74 1753.59 1906.32 1746.61 1907.53 1741.96 1908.74 1729.16 1923.26 1733.82 1937.79 1738.47 1952.32 1747.78 1962 1747.78 1962 1747.78 1962 1748.94 1963.21 1737.31 1951.11 1728 1942.63 1728 1929.32 1730.33 1918.42Z" fill="#9B3846" fill-rule="evenodd"/><path d="M1750 1729.38C1729.61 1724.77 1678.64 1719 1639 1734 1660.52 1728.23 1726.21 1723.62 1750 1729.38Z" fill="#FFFFFF" fill-rule="evenodd"/><path d="M1631 1969C1631 1979.88 1634.33 1991.96 1641 1998 1637.67 1991.96 1631 1969 1631 1969Z" fill="#FFFFFF" fill-rule="evenodd"/><path d="M1733 2004C1733 2013.74 1736.33 2027.13 1743 2032 1739.67 2027.13 1733 2004 1733 2004Z" fill="#FFFFFF" fill-rule="evenodd"/><path d="M1635 1883C1632 1892.67 1632 1903.54 1636 1912 1635 1904.75 1635 1883 1635 1883Z" fill="#FFFFFF" fill-rule="evenodd"/><path d="M1736.6 1918C1734.2 1927.67 1733 1938.54 1739 1947 1736.6 1940.96 1736.6 1918 1736.6 1918Z" fill="#FFFFFF" fill-rule="evenodd"/><path d="M1632.6 2046C1630.2 2056 1629 2067.25 1635 2076 1632.6 2069.75 1632.6 2046 1632.6 2046Z" fill="#FFFFFF" fill-rule="evenodd"/><path d="M1794.57 1744C1815.07 1744 1831.01 1759.8 1831.01 1793.82 1831.01 1831.5 1826.46 1853.37 1824.18 1876.46 1821.9 1899.55 1828.73 1936.01 1848.09 1974.89 1865.17 2012.57 1872 2023.5 1872 2050.24 1872 2084.26 1849.23 2111 1815.07 2111 1780.91 2111 1763.83 2084.26 1763.83 2050.24 1763.83 2047.81 1764.97 2042.95 1769.52 2041.73 1778.63 2035.66 1784.33 2024.72 1784.33 2011.35 1784.33 1999.2 1778.63 1988.26 1770.66 1982.19 1769.52 1982.19 1767.25 1980.97 1767.25 1979.75 1764.97 1978.54 1763.83 1974.89 1763.83 1970.03 1763.83 1966.39 1764.97 1963.96 1766.11 1961.53 1767.25 1959.1 1769.52 1957.88 1770.66 1957.88 1778.63 1951.8 1784.33 1940.87 1784.33 1928.72 1784.33 1916.56 1778.63 1905.63 1770.66 1899.55 1769.52 1898.33 1769.52 1898.33 1768.39 1897.12 1757 1888.61 1757 1877.68 1757 1869.17 1757 1793.82 1757 1793.82 1757 1793.82 1757 1759.8 1772.94 1744 1794.57 1744Z" stroke="#000000" stroke-width="2.29167" stroke-linecap="round" stroke-linejoin="round" stroke-miterlimit="10" fill="none" fill-rule="evenodd"/><path d="M1627.99 2086.7C1631.4 2081.83 1631.4 2078.19 1629.13 2074.54 1626.85 2069.68 1625.72 2064.82 1625.72 2058.75 1625.72 2046.59 1631.4 2035.66 1640.49 2030.79 1640.49 2029.58 1642.77 2028.36 1643.91 2028.36 1647.32 2024.72 1646.18 2017.43 1646.18 2015 1646.18 2011.35 1646.18 2007.71 1641.63 2005.27 1632.54 1999.2 1625.72 1988.26 1625.72 1974.89 1625.72 1962.74 1631.4 1951.8 1640.49 1946.94 1640.49 1945.73 1642.77 1944.51 1643.91 1944.51 1645.04 1942.08 1646.18 1938.44 1646.18 1933.58 1646.18 1931.15 1646.18 1927.5 1645.04 1925.07 1643.91 1923.85 1640.49 1921.42 1640.49 1921.42 1631.4 1915.35 1625.72 1904.41 1625.72 1892.26 1625.72 1880.11 1631.4 1869.17 1640.49 1863.09 1640.49 1863.09 1641.63 1861.88 1641.63 1861.88 1653 1852.16 1653 1841.22 1653 1833.93 1653 1793.82 1653 1793.82 1653 1793.82 1653 1759.8 1637.08 1744 1616.62 1744 1596.16 1744 1580.24 1759.8 1580.24 1793.82 1580.24 1831.5 1583.65 1853.37 1585.93 1876.46 1589.34 1899.55 1581.38 1936.01 1563.19 1974.89 1545 2012.57 1560.92 2111 1595.02 2111 1608.66 2111 1620.03 2101.28 1627.99 2086.7" stroke="#000000" stroke-width="2.29167" stroke-linecap="round" stroke-linejoin="round" stroke-miterlimit="10" fill="none" fill-rule="evenodd"/><path d="M1678.83 2092.77C1675.43 2087.91 1678.83 2080.62 1679.97 2078.19 1684.51 2070.9 1686.78 2061.18 1685.64 2051.45 1683.37 2039.3 1676.56 2029.58 1667.48 2025.93 1662.94 2024.72 1661.81 2019.86 1661.81 2015 1661.81 2012.57 1662.94 2007.71 1667.48 2005.27 1676.56 1999.2 1682.24 1988.26 1682.24 1974.89 1682.24 1962.74 1676.56 1951.8 1668.62 1946.94 1667.48 1945.73 1665.21 1944.51 1665.21 1944.51 1664.08 1942.08 1661.81 1938.44 1661.81 1933.58 1661.81 1931.15 1662.94 1927.5 1664.08 1925.07 1665.21 1923.85 1667.48 1921.42 1668.62 1921.42 1676.56 1915.35 1682.24 1904.41 1682.24 1892.26 1682.24 1880.11 1676.56 1869.17 1668.62 1863.09 1667.48 1863.09 1667.48 1861.88 1666.35 1861.88 1656.14 1852.16 1655 1841.22 1655 1833.93 1655 1793.82 1655 1793.82 1655 1793.82 1655 1759.8 1668.62 1744 1704.93 1744 1704.93 1744 1706.07 1744 1706.07 1744 1706.07 1744 1706.07 1744 1706.07 1744 1706.07 1744 1706.07 1744 1706.07 1744 1743.52 1744 1756 1759.8 1756 1793.82 1756 1869.17 1756 1869.17 1756 1869.17 1756 1877.68 1756 1888.61 1744.65 1897.12 1744.65 1898.33 1743.52 1898.33 1743.52 1899.55 1734.44 1905.63 1728.76 1916.56 1728.76 1928.72 1728.76 1940.87 1734.44 1951.8 1743.52 1957.88 1743.52 1957.88 1746.92 1959.1 1748.06 1961.53 1749.19 1963.96 1749.19 1966.39 1749.19 1970.03 1749.19 1974.89 1748.06 1978.54 1745.79 1979.75 1745.79 1980.97 1743.52 1982.19 1743.52 1982.19 1734.44 1988.26 1728.76 1999.2 1728.76 2011.35 1728.76 2024.72 1735.57 2035.66 1744.65 2041.73 1749.19 2042.95 1749.19 2047.81 1749.19 2050.24 1749.19 2084.26 1740.11 2111 1706.07 2111 1706.07 2111 1706.07 2111 1706.07 2111 1706.07 2111 1706.07 2111 1706.07 2111 1706.07 2111 1704.93 2111 1704.93 2111 1693.58 2111 1685.64 2103.71 1678.83 2092.77Z" stroke="#000000" stroke-width="2.29167" stroke-linecap="round" stroke-linejoin="round" stroke-miterlimit="10" fill="none" fill-rule="evenodd"/><path d="M1629.06 2086.63C1632.47 2081.77 1632.47 2078.12 1630.19 2074.48 1627.92 2069.61 1626.78 2064.75 1626.78 2058.68 1626.78 2046.52 1632.47 2035.58 1641.58 2030.72 1641.58 2029.5 1643.86 2028.29 1645 2028.29 1648.42 2024.64 1647.28 2017.35 1647.28 2014.92 1647.28 2011.27 1647.28 2007.63 1642.72 2005.2 1633.61 1999.12 1626.78 1988.18 1626.78 1974.81 1626.78 1962.66 1632.47 1951.72 1641.58 1946.86 1641.58 1945.64 1643.86 1944.42 1645 1944.42 1646.14 1941.99 1647.28 1938.35 1647.28 1933.49 1647.28 1931.05 1647.28 1927.41 1646.14 1924.98 1645 1923.76 1641.58 1921.33 1641.58 1921.33 1632.47 1915.25 1626.78 1904.32 1626.78 1892.16 1626.78 1880.01 1632.47 1869.07 1641.58 1862.99 1641.58 1862.99 1642.72 1861.77 1642.72 1861.77 1654.11 1852.05 1654.11 1841.11 1654.11 1833.82 1654.11 1793.71 1654.11 1793.71 1654.11 1793.71 1654.11 1759.68 1638.17 1743.88 1617.67 1743.88 1613.11 1743.88 1608.56 1745.09 1604 1746.31 1625.64 1734.15 1657.53 1722 1705.36 1722 1706.5 1722 1706.5 1722 1706.5 1722 1754.33 1722 1787.36 1734.15 1809 1746.31 1804.44 1745.09 1799.89 1743.88 1795.33 1743.88 1773.69 1743.88 1757.75 1759.68 1757.75 1793.71 1757.75 1869.07 1757.75 1869.07 1757.75 1869.07 1757.75 1877.58 1757.75 1888.51 1769.14 1897.02 1770.28 1898.24 1770.28 1898.24 1771.42 1899.45 1779.39 1905.53 1785.08 1916.47 1785.08 1928.62 1785.08 1940.78 1779.39 1951.72 1771.42 1957.79 1770.28 1957.79 1768 1959.01 1766.86 1961.44 1765.72 1963.87 1764.58 1966.3 1764.58 1969.95 1764.58 1974.81 1765.72 1978.46 1768 1979.67 1768 1980.89 1770.28 1982.1 1771.42 1982.1 1779.39 1988.18 1785.08 1999.12 1785.08 2011.27 1785.08 2024.64 1779.39 2035.58 1770.28 2041.66 1765.72 2042.87 1764.58 2047.74 1764.58 2050.17 1764.58 2070.83 1771.42 2087.85 1782.81 2100 1775.97 2097.57 1768 2095.14 1760.03 2095.14 1753.19 2095.14 1744.08 2097.57 1737.25 2100 1736.11 2100 1736.11 2100 1736.11 2100 1746.36 2089.06 1749.78 2070.83 1749.78 2050.17 1749.78 2047.74 1749.78 2042.87 1745.22 2041.66 1736.11 2035.58 1729.28 2024.64 1729.28 2011.27 1729.28 1999.12 1734.97 1988.18 1744.08 1982.1 1744.08 1982.1 1746.36 1980.89 1746.36 1979.67 1748.64 1978.46 1749.78 1974.81 1749.78 1969.95 1749.78 1966.3 1749.78 1963.87 1748.64 1961.44 1747.5 1959.01 1744.08 1957.79 1744.08 1957.79 1734.97 1951.72 1729.28 1940.78 1729.28 1928.62 1729.28 1916.47 1734.97 1905.53 1744.08 1899.45 1744.08 1898.24 1745.22 1898.24 1745.22 1897.02 1756.61 1888.51 1756.61 1877.58 1756.61 1869.07 1756.61 1793.71 1756.61 1793.71 1756.61 1793.71 1756.61 1759.68 1744.08 1743.88 1706.5 1743.88 1706.5 1743.88 1706.5 1743.88 1706.5 1743.88 1706.5 1743.88 1706.5 1743.88 1706.5 1743.88 1706.5 1743.88 1705.36 1743.88 1705.36 1743.88 1668.92 1743.88 1655.25 1759.68 1655.25 1793.71 1655.25 1833.82 1655.25 1833.82 1655.25 1833.82 1655.25 1841.11 1656.39 1852.05 1666.64 1861.77 1667.78 1861.77 1667.78 1862.99 1668.92 1862.99 1676.89 1869.07 1682.58 1880.01 1682.58 1892.16 1682.58 1904.32 1676.89 1915.25 1668.92 1921.33 1667.78 1921.33 1665.5 1923.76 1664.36 1924.98 1663.22 1927.41 1662.08 1931.05 1662.08 1933.49 1662.08 1938.35 1664.36 1941.99 1665.5 1944.42 1665.5 1944.42 1667.78 1945.64 1668.92 1946.86 1676.89 1951.72 1682.58 1962.66 1682.58 1974.81 1682.58 1988.18 1676.89 1999.12 1667.78 2005.2 1663.22 2007.63 1662.08 2012.49 1662.08 2014.92 1662.08 2019.78 1663.22 2024.64 1667.78 2025.86 1676.89 2029.5 1683.72 2039.23 1686 2051.38 1687.14 2061.11 1684.86 2070.83 1680.31 2078.12 1679.17 2080.55 1675.75 2087.85 1679.17 2092.71 1680.31 2096.35 1682.58 2097.57 1683.72 2100 1674.61 2097.57 1663.22 2093.92 1652.97 2093.92 1641.58 2093.92 1629.06 2097.57 1619.94 2100 1619.94 2100 1619.94 2100 1619.94 2100 1623.36 2096.35 1626.78 2091.49 1629.06 2086.63Z" stroke="#000000" stroke-width="2.29167" stroke-linecap="round" stroke-linejoin="round" stroke-miterlimit="10" fill="none" fill-rule="evenodd"/><path d="M1745 1744C1749.44 1752.5 1753.89 1764.64 1755 1778" stroke="#000000" stroke-width="2.29167" stroke-linecap="round" stroke-linejoin="round" stroke-miterlimit="10" fill="none" fill-rule="evenodd"/><path d="M1739 1736C1739 1737 1740 1738 1741 1739" stroke="#000000" stroke-width="2.29167" stroke-linecap="round" stroke-linejoin="round" stroke-miterlimit="10" fill="none" fill-rule="evenodd"/><path d="M1673 1736C1666.2 1744.4 1658.27 1758.8 1656 1778" stroke="#000000" stroke-width="2.29167" stroke-linecap="round" stroke-linejoin="round" stroke-miterlimit="10" fill="none" fill-rule="evenodd"/></g></svg>