<svg width="324" height="385" xmlns="http://www.w3.org/2000/svg" xmlns:xlink="http://www.w3.org/1999/xlink" xml:space="preserve" overflow="hidden"><g transform="translate(-1093 -537)"><path d="M1197.14 859.659C1197.14 832.81 1198.18 786.944 1181.41 773.519 1176.17 767.926 1173.03 758.976 1173.03 750.027 1173.03 739.958 1177.22 731.009 1182.46 725.415 1187.7 722.059 1186.65 716.466 1186.65 711.991 1186.65 709.754 1186.65 705.279 1182.46 703.042 1174.07 698.567 1170.93 682.905 1170.93 675.074 1170.93 668.362 1174.07 656.056 1179.32 650.463 1183.51 645.988 1185.61 643.751 1185.61 635.92 1185.61 631.445 1179.32 623.614 1171.98 611.309 1162.54 593.41 1152.06 571.036 1151.01 569.917 1144.72 560.968 1137.39 555.374 1129 559.849 1129 559.849 1129 559.849 1129 559.849 1146.82 552.018 1209.71 533 1265.27 539.712 1266.32 539.712 1266.32 539.712 1266.32 539.712 1320.83 547.543 1354.37 574.392 1368 591.172 1368 591.172 1368 591.172 1368 591.172 1364.86 587.816 1361.71 586.697 1357.52 586.697 1343.89 586.697 1344.94 596.766 1342.84 602.359 1341.79 609.071 1342.84 610.19 1336.55 616.902 1331.31 621.377 1327.12 626.97 1327.12 633.683 1327.12 639.276 1330.26 645.988 1331.31 647.107 1334.46 652.7 1335.5 658.294 1335.5 665.006 1335.5 677.312 1329.21 687.38 1320.83 691.855 1315.59 695.211 1303.01 707.516 1303.01 727.653 1303.01 727.653 1303.01 727.653 1303.01 727.653 1303.01 725.415 1303.01 723.178 1303.01 722.059 1303.01 719.822 1301.96 714.229 1297.77 709.754 1290.43 703.042 1283.09 691.855 1283.09 676.193 1283.09 659.413 1286.24 652.7 1291.48 643.751 1297.77 635.92 1294.62 595.647 1293.57 590.054 1291.48 576.629 1285.19 564.324 1271.56 557.611 1248.5 545.306 1223.34 556.493 1218.1 558.73 1212.86 560.968 1212.86 568.798 1218.1 572.154 1225.44 577.748 1227.54 587.816 1227.54 599.003 1227.54 611.309 1224.39 620.258 1217.05 625.852 1216 626.97 1213.91 628.089 1212.86 630.327 1211.81 631.445 1210.76 634.801 1210.76 637.039 1210.76 641.513 1211.81 645.988 1213.91 647.107 1213.91 647.107 1216 648.226 1217.05 649.344 1224.39 653.819 1226.49 668.362 1226.49 675.074 1226.49 682.905 1224.39 698.567 1216 703.042 1211.81 705.279 1210.76 709.754 1210.76 711.991 1210.76 716.466 1209.71 722.059 1214.96 725.415 1221.25 731.009 1224.39 739.958 1224.39 750.027 1224.39 758.976 1221.25 767.926 1216 773.519 1199.23 786.944 1200.28 832.81 1200.28 859.659 1200.28 878.677 1203.43 898.813 1216 910 1210.76 908.881 1204.47 906.644 1198.18 906.644 1191.89 906.644 1186.65 908.881 1181.41 910 1193.99 898.813 1197.14 878.677 1197.14 859.659Z" fill="#009C31" fill-rule="evenodd"/><path d="M1303 727.749C1303 727.749 1303 727.749 1303 727.749 1303 707.642 1315.56 695.355 1320.79 692.003 1329.16 687.535 1335.44 677.482 1335.44 665.194 1335.44 658.492 1334.39 652.906 1331.25 647.321 1330.2 646.204 1327.06 639.502 1327.06 633.917 1327.06 627.214 1331.25 621.629 1336.48 617.161 1342.76 610.458 1341.71 609.341 1342.76 602.639 1344.85 597.054 1343.81 587 1357.41 587 1371.01 587 1378.33 605.99 1378.33 629.448 1378.33 664.077 1374.15 684.184 1372.06 705.408 1368.92 726.632 1376.24 760.144 1392.98 795.89 1409.72 830.518 1416 840.572 1416 865.147 1416 896.425 1395.07 921 1363.69 921 1332.3 921 1303 896.425 1303 865.147 1303 865.147 1303 865.147 1303 865.147L1303 727.749Z" fill="#80BE78" fill-rule="evenodd"/><path d="M1356.51 592.352C1362.78 591.235 1370.11 602.409 1370.11 629.227 1371.15 652.692 1361.74 680.627 1361.74 728.676 1362.78 775.607 1385.8 801.307 1396.26 816.951 1405.68 832.595 1411.95 851.591 1413 865 1413 840.417 1406.72 830.36 1389.98 795.72 1373.25 759.963 1365.92 726.441 1369.06 705.21 1371.15 683.98 1374.29 663.866 1374.29 629.227 1374.29 605.761 1370.11 589 1356.51 589 1347.09 589 1346.05 600.174 1345 605.761 1348.14 596.822 1351.28 593.469 1356.51 592.352Z" fill="#E0EEDB" fill-rule="evenodd"/><path d="M1214.76 725.167C1209.51 721.809 1210.56 716.214 1210.56 711.738 1210.56 709.5 1211.61 705.024 1215.81 702.786 1224.21 698.309 1226.31 682.643 1226.31 674.809 1226.31 668.095 1224.21 653.547 1216.86 649.071 1215.81 647.952 1213.71 646.833 1213.71 646.833 1211.61 645.714 1210.56 641.238 1210.56 636.762 1210.56 634.524 1211.61 631.167 1212.66 630.047 1213.71 627.809 1215.81 626.69 1216.86 625.571 1224.21 619.976 1227.36 611.024 1227.36 598.714 1227.36 587.524 1225.26 577.452 1217.91 571.857 1212.66 568.5 1212.66 560.667 1217.91 558.428 1223.16 556.19 1248.37 545 1271.48 557.309 1285.14 564.024 1291.44 576.333 1293.55 589.762 1294.6 595.357 1297.75 635.643 1291.44 643.476 1286.19 652.428 1283.04 659.143 1283.04 675.928 1283.04 691.595 1290.39 702.786 1297.75 709.5 1301.95 713.976 1303 719.571 1303 721.809 1303 731.881 1303 780 1303 807.976 1303 837.071 1303 854.976 1303 865.047 1303 896.381 1289.34 921 1249.42 921 1249.42 921 1249.42 921 1249.42 921 1208.45 921 1200.05 890.786 1200.05 859.452 1200.05 832.595 1199 786.714 1215.81 773.286 1221.06 767.69 1224.21 758.738 1224.21 749.786 1224.21 739.714 1221.06 730.762 1214.76 725.167Z" fill="#80BE78" fill-rule="evenodd"/><path d="M1282.52 702.867C1278.17 696.133 1276 687.156 1276 674.811 1276 664.711 1280.35 655.733 1284.7 649 1284.7 649 1284.7 649 1284.7 649 1281.43 654.611 1279.26 663.589 1279.26 672.567 1279.26 684.911 1283.61 700.622 1290.13 706.233 1293.39 709.6 1297.74 712.967 1298.83 717.456 1299.91 719.7 1299.91 719.7 1301 724.189 1301 728.678 1301 851 1301 851 1299.91 827.433 1297.74 736.533 1295.57 726.433 1294.48 718.578 1290.13 712.967 1287.96 709.6 1286.87 708.478 1283.61 703.989 1282.52 702.867Z" fill="#E0EEDB" fill-rule="evenodd"/><path d="M1108.71 597.532C1111.86 580.743 1117.11 568.431 1126.57 560.596 1137.07 555 1144.42 560.596 1150.73 569.551 1151.78 570.67 1162.28 593.055 1171.74 610.963 1179.09 623.275 1185.39 631.11 1185.39 635.587 1185.39 643.422 1183.29 645.661 1179.09 650.138 1173.84 655.734 1170.69 668.046 1170.69 674.762 1170.69 682.596 1173.84 698.266 1182.24 702.743 1186.44 704.982 1186.44 709.459 1186.44 711.697 1186.44 716.174 1187.49 721.771 1182.24 725.128 1176.99 730.725 1172.79 739.679 1172.79 749.752 1172.79 758.706 1175.94 767.661 1181.19 773.257 1198 786.688 1196.95 832.578 1196.95 859.44 1196.95 890.78 1188.55 921 1148.63 921 1148.63 921 1148.63 921 1148.63 921 1107.66 921 1094 896.376 1094 865.037 1094 843.771 1099.25 821.385 1109.76 799 1120.26 776.615 1121.31 750.872 1113.96 721.771 1105.56 690.431 1101.35 641.184 1108.71 597.532Z" fill="#80BE78" fill-rule="evenodd"/><path d="M1152 916C1111.72 916 1099 896.965 1099 865.613 1099 844.338 1103.24 821.944 1113.84 799.549 1124.44 777.155 1125.5 751.401 1118.08 722.289 1109.6 690.937 1105.36 641.669 1112.78 598 1110.66 618.155 1110.66 685.338 1125.5 724.528 1140.34 762.599 1131.86 781.634 1125.5 805.148 1119.14 828.662 1103.24 882.409 1117.02 900.324 1125.5 910.401 1143.52 914.88 1152 916Z" fill="#00A03E" fill-rule="evenodd"/><path d="M1099.07 865C1099.07 843.773 1103.34 821.43 1114.03 799.086 1124.72 776.742 1125.79 751.047 1118.31 722 1120.45 735.406 1129 758.867 1125.79 778.976 1121.52 800.203 1098 838.187 1099.07 865Z" fill="#008C2D" fill-rule="evenodd"/><path d="M1302.81 865C1302.81 865 1302.81 865 1302.81 865 1302.81 865 1302.81 865 1302.81 865 1302.81 884.488 1313.29 901.683 1329 912 1322.71 909.707 1314.33 907.415 1307 907.415 1299.67 907.415 1291.29 909.707 1285 912 1285 912 1285 912 1285 912 1297.57 901.683 1302.81 884.488 1302.81 865Z" fill="#00882C" fill-rule="evenodd"/><path d="M1174.7 730C1171.43 734.459 1169.26 742.262 1169.26 750.066 1169.26 761.213 1174.7 774.59 1181.22 779.049 1186.65 781.279 1189.91 791.311 1191 796.885 1191 798 1191 798 1191 796.885 1188.83 792.426 1184.48 784.623 1180.13 782.393 1170.35 776.82 1166 766.787 1166 752.295 1166 743.377 1170.35 735.574 1174.7 730Z" fill="#E0EEDB" fill-rule="evenodd"/><path d="M1169.32 743C1168.26 749.514 1167.21 766.886 1183 781 1173.53 774.486 1163 763.628 1169.32 743Z" fill="#FFFFFF" fill-rule="evenodd"/><path d="M1281.35 664C1279.24 671.875 1279.24 693.25 1293 709 1284.53 702.25 1275 688.75 1281.35 664Z" fill="#FFFFFF" fill-rule="evenodd"/><path d="M1225 656.123C1228 659.491 1230 668.474 1230 675.21 1230 686.439 1225 701.035 1219 705.526 1212 710.018 1214 716.755 1213 719 1213 719 1213 719 1214 717.877 1213 713.386 1216 711.14 1220 707.772 1229 702.158 1233 692.053 1233 678.579 1233 668.474 1229 661.737 1225 655L1225 656.123Z" fill="#E0EEDB" fill-rule="evenodd"/><path d="M1226.14 579C1229.43 583.5 1232.71 591.375 1232.71 599.25 1232.71 609.375 1227.24 624 1219.57 628.5 1213 634.125 1214.1 640.875 1214.1 642 1214.1 642 1214.1 642 1214.1 642 1214.1 636.375 1217.38 634.125 1221.76 631.875 1231.62 625.125 1236 616.125 1236 601.5 1236 592.5 1231.62 584.625 1227.24 579L1226.14 579Z" fill="#E0EEDB" fill-rule="evenodd"/><path d="M1151.71 576.688C1157.94 587.894 1167.29 612.546 1175.61 623.752 1180.8 631.596 1184.96 634.958 1179.76 643.922 1173.53 654.007 1172.49 655.128 1169.37 661.851 1168.33 666.333 1167.29 670.816 1167.29 675.298 1167.29 686.504 1172.49 701.071 1178.73 705.553 1186 710.036 1183.92 716.759 1183.92 717.88 1183.92 717.88 1183.92 719 1183.92 717.88 1183.92 712.277 1181.84 711.156 1177.69 707.794 1168.33 702.192 1162.1 692.107 1162.1 678.66 1161.06 652.887 1176.65 647.284 1174.57 637.199 1172.49 625.993 1153.78 585.653 1149.63 577.809 1145.47 569.965 1138.2 561 1133 562.121 1138.2 561 1145.47 565.482 1151.71 576.688Z" fill="#E0EEDB" fill-rule="evenodd"/><path d="M1167.35 669C1166.3 675.529 1165.25 692.941 1181 706 1171.55 700.559 1160 688.588 1167.35 669Z" fill="#FFFFFF" fill-rule="evenodd"/><path d="M1222.68 731.115C1225.79 735.575 1228.89 743.379 1228.89 750.069 1228.89 761.219 1223.71 773.483 1216.46 777.943 1212.32 779.058 1210.25 785.747 1209.21 789.092 1209.21 790.207 1203 816.966 1203 827 1203 827 1203 827 1203 827 1203 815.851 1213.36 785.747 1217.5 782.402 1226.82 776.828 1232 766.793 1232 753.414 1232 743.379 1227.86 736.69 1222.68 730L1222.68 731.115Z" fill="#E0EEDB" fill-rule="evenodd"/><path d="M1333.69 646C1336.79 650.509 1338.86 659.527 1338.86 666.291 1338.86 677.564 1333.69 688.836 1327.48 693.346 1321.28 696.727 1313 704.618 1313 706.873 1314.03 708 1314.03 706.873 1314.03 706.873 1314.03 702.364 1326.45 697.855 1328.52 696.727 1337.83 691.091 1343 683.2 1343 668.545 1343 659.527 1337.83 651.636 1333.69 646Z" fill="#E0EEDB" fill-rule="evenodd"/><path d="M1240 556.364C1255.88 553 1281.29 564.212 1287.65 579.909 1294 595.606 1292.94 627 1292.94 627 1288.71 604.576 1287.65 561.97 1240 556.364Z" fill="#E0EEDB" fill-rule="evenodd"/><path d="M1203.14 836C1203.14 860.75 1200 919.25 1251.33 918.125 1270.19 918.125 1284.86 909.125 1288 903.5 1281.71 910.25 1210.48 944 1203.14 836Z" fill="#00A03E" fill-rule="evenodd"/><path d="M1407 893.459C1400.69 905.802 1370.2 926 1343.91 914.779 1319.72 904.68 1309.21 883.36 1307.1 872.14 1305 859.797 1306.05 741.977 1306.05 733 1309.21 755.442 1306.05 866.529 1328.13 890.093 1354.42 921.512 1396.48 910.291 1407 893.459Z" fill="#00A03E" fill-rule="evenodd"/><path d="M1196.88 859.594C1196.88 832.711 1197.92 786.786 1181.31 773.344 1176.12 767.743 1173 758.782 1173 749.821 1173 743.101 1174.04 737.5 1177.15 733.02 1177.15 733.02 1177.15 734.14 1177.15 735.26 1173 754.302 1183.38 769.984 1189.62 776.705 1194.81 783.425 1197.92 784.545 1200 775.584 1202.08 765.503 1209.35 762.143 1209.35 750.942 1209.35 739.74 1202.08 733.02 1201.04 727.419 1201.04 721.818 1198.96 713.977 1201.04 703.896 1204.15 692.695 1211.42 685.974 1211.42 679.253 1211.42 671.412 1211.42 663.571 1207.27 659.091 1203.12 654.61 1197.92 652.37 1200 631.088 1202.08 609.805 1219.73 610.925 1218.69 595.244 1216.62 580.682 1209.35 575.081 1213.5 565 1213.5 568.361 1214.54 570.601 1217.65 571.721 1224.92 577.322 1227 587.403 1227 598.604 1227 610.925 1223.88 619.886 1216.62 625.487 1215.58 626.607 1213.5 627.727 1212.46 629.968 1211.42 631.088 1210.38 634.448 1210.38 636.688 1210.38 641.169 1211.42 645.649 1213.5 646.77 1213.5 646.77 1215.58 647.89 1216.62 649.01 1223.88 653.49 1225.96 668.052 1225.96 674.773 1225.96 682.614 1223.88 698.295 1215.58 702.776 1211.42 705.016 1210.38 709.497 1210.38 711.737 1210.38 716.218 1209.35 721.818 1214.54 725.179 1220.77 730.779 1223.88 739.74 1223.88 749.821 1223.88 758.782 1220.77 767.743 1215.58 773.344 1198.96 786.786 1200 832.711 1200 859.594 1200 878.636 1203.12 898.799 1215.58 910 1210.38 908.88 1204.15 906.64 1197.92 906.64 1191.69 906.64 1186.5 908.88 1181.31 910 1193.77 898.799 1196.88 878.636 1196.88 859.594Z" fill="#00882C" fill-rule="evenodd"/><path d="M1178.56 650.491C1179.62 649.368 1180.69 647.123 1181.75 646 1181.75 646 1181.75 646 1181.75 646 1174.31 656.105 1169 685.298 1181.75 701.017 1186 705.509 1186 707.754 1186 710 1184.94 707.754 1183.88 704.386 1181.75 703.263 1173.25 698.772 1170.06 683.052 1170.06 675.193 1170.06 668.456 1173.25 656.105 1178.56 650.491Z" fill="#00882C" fill-rule="evenodd"/><path d="M1284.19 661.95C1283.14 673.145 1283.14 688.818 1286.29 694.415 1286.29 694.415 1286.29 694.415 1286.29 693.296 1289.43 701.132 1293.62 706.73 1297.81 710.088 1302 714.566 1303.05 720.164 1303.05 722.403 1303.05 728 1303.05 728 1303.05 728 1303.05 728 1303.05 728 1303.05 728 1303.05 707.849 1315.62 695.535 1320.86 692.176 1329.24 687.698 1335.52 677.623 1335.52 665.308 1335.52 658.591 1334.48 652.994 1331.33 647.396 1330.29 646.277 1327.14 639.56 1327.14 633.962 1327.14 627.245 1331.33 621.648 1336.57 617.17 1342.86 610.453 1341.81 609.333 1342.86 602.616 1343.9 600.377 1343.9 594.78 1346 591.421 1344.95 591.421 1343.9 590.302 1341.81 589.182 1334.48 584.704 1318.76 569.031 1304.1 565.673 1302 565.673 1302 566.792 1304.1 569.031 1313.52 575.748 1326.1 588.063 1325.05 601.497 1325.05 617.17 1319.81 619.409 1308.29 616.05 1307.24 616.05 1307.24 614.931 1306.19 614.931 1300.95 613.811 1300.95 608.214 1299.9 604.855 1297.81 584.704 1293.62 562.314 1280 550 1285.24 557.836 1290.48 573.509 1292.57 584.704 1294.67 597.019 1295.71 627.245 1294.67 637.321 1292.57 648.516 1285.24 650.755 1284.19 661.95ZM1290.48 667.547C1297.81 654.113 1303.05 645.157 1300.95 621.648 1300.95 620.528 1303.05 619.409 1304.1 620.528 1307.24 623.887 1310.38 627.245 1313.52 631.723 1322.95 644.038 1325.05 657.472 1320.86 672.025 1316.67 685.459 1309.33 685.459 1304.1 696.654 1298.86 706.73 1293.62 702.252 1286.29 692.176 1284.19 686.579 1284.19 678.742 1290.48 667.547Z" fill="#00882C" fill-rule="evenodd"/><path d="M1152 571.05C1155.13 567.7 1181.22 561 1200 561 1189.57 562.117 1170.78 567.7 1167.65 578.867 1163.48 588.917 1182.26 628 1182.26 628 1182.26 628 1182.26 628 1182.26 628 1180.17 623.533 1176 617.95 1171.83 611.25 1164.52 595.617 1155.13 577.75 1152 571.05 1152 571.05 1152 571.05 1152 571.05Z" fill="#00882C" fill-rule="evenodd"/><path d="M1178 664C1176 672.889 1176 686.222 1181 694 1179 688.444 1178 664 1178 664Z" fill="#FFFFFF" fill-rule="evenodd"/><path d="M1177 743C1176 752.782 1178 762.565 1184 768 1181 762.565 1177 743 1177 743Z" fill="#FFFFFF" fill-rule="evenodd"/><path d="M1191 548C1174.82 548 1156.47 553 1150 556" fill="#FFFFFF" fill-rule="evenodd"/><path d="M1303 727.749C1303 727.749 1303 727.749 1303 727.749 1303 707.642 1315.56 695.355 1320.79 692.003 1329.16 687.535 1335.44 677.482 1335.44 665.194 1335.44 658.492 1334.39 652.906 1331.25 647.321 1330.2 646.204 1327.06 639.502 1327.06 633.917 1327.06 627.214 1331.25 621.629 1336.48 617.161 1342.76 610.458 1341.71 609.341 1342.76 602.639 1344.85 597.054 1343.81 587 1357.41 587 1371.01 587 1378.33 605.99 1378.33 629.448 1378.33 664.077 1374.15 684.184 1372.06 705.408 1368.92 726.632 1376.24 760.144 1392.98 795.89 1409.72 830.518 1416 840.572 1416 865.147 1416 896.425 1395.07 921 1363.69 921 1332.3 921 1303 896.425 1303 865.147 1303 865.147 1303 865.147 1303 865.147L1303 727.749Z" stroke="#000000" stroke-width="2.29167" stroke-linecap="round" stroke-linejoin="round" stroke-miterlimit="10" fill="none" fill-rule="evenodd"/><path d="M1214.76 725.167C1209.51 721.809 1210.56 716.214 1210.56 711.738 1210.56 709.5 1211.61 705.024 1215.81 702.786 1224.21 698.309 1226.31 682.643 1226.31 674.809 1226.31 668.095 1224.21 653.547 1216.86 649.071 1215.81 647.952 1213.71 646.833 1213.71 646.833 1211.61 645.714 1210.56 641.238 1210.56 636.762 1210.56 634.524 1211.61 631.167 1212.66 630.047 1213.71 627.809 1215.81 626.69 1216.86 625.571 1224.21 619.976 1227.36 611.024 1227.36 598.714 1227.36 587.524 1225.26 577.452 1217.91 571.857 1212.66 568.5 1212.66 560.667 1217.91 558.428 1223.16 556.19 1248.37 545 1271.48 557.309 1285.14 564.024 1291.44 576.333 1293.55 589.762 1294.6 595.357 1297.75 635.643 1291.44 643.476 1286.19 652.428 1283.04 659.143 1283.04 675.928 1283.04 691.595 1290.39 702.786 1297.75 709.5 1301.95 713.976 1303 719.571 1303 721.809 1303 731.881 1303 780 1303 807.976 1303 837.071 1303 854.976 1303 865.047 1303 896.381 1289.34 921 1249.42 921 1249.42 921 1249.42 921 1249.42 921 1208.45 921 1200.05 890.786 1200.05 859.452 1200.05 832.595 1199 786.714 1215.81 773.286 1221.06 767.69 1224.21 758.738 1224.21 749.786 1224.21 739.714 1221.06 730.762 1214.76 725.167Z" stroke="#000000" stroke-width="2.29167" stroke-linecap="round" stroke-linejoin="round" stroke-miterlimit="10" fill="none" fill-rule="evenodd"/><path d="M1108.71 597.532C1111.86 580.743 1117.11 568.431 1126.57 560.596 1137.07 555 1144.42 560.596 1150.73 569.551 1151.78 570.67 1162.28 593.055 1171.74 610.963 1179.09 623.275 1185.39 631.11 1185.39 635.587 1185.39 643.422 1183.29 645.661 1179.09 650.138 1173.84 655.734 1170.69 668.046 1170.69 674.762 1170.69 682.596 1173.84 698.266 1182.24 702.743 1186.44 704.982 1186.44 709.459 1186.44 711.697 1186.44 716.174 1187.49 721.771 1182.24 725.128 1176.99 730.725 1172.79 739.679 1172.79 749.752 1172.79 758.706 1175.94 767.661 1181.19 773.257 1198 786.688 1196.95 832.578 1196.95 859.44 1196.95 890.78 1188.55 921 1148.63 921 1148.63 921 1148.63 921 1148.63 921 1107.66 921 1094 896.376 1094 865.037 1094 843.771 1099.25 821.385 1109.76 799 1120.26 776.615 1121.31 750.872 1113.96 721.771 1105.56 690.431 1101.35 641.184 1108.71 597.532Z" stroke="#000000" stroke-width="2.29167" stroke-linecap="round" stroke-linejoin="round" stroke-miterlimit="10" fill="none" fill-rule="evenodd"/><path d="M1282 553C1286.4 560.933 1291.9 573.4 1293 587" stroke="#000000" stroke-width="2.29167" stroke-linecap="round" stroke-linejoin="round" stroke-miterlimit="10" fill="none" fill-rule="evenodd"/><path d="M1278 547C1278 548 1279 548 1279 549" stroke="#000000" stroke-width="2.29167" stroke-linecap="round" stroke-linejoin="round" stroke-miterlimit="10" fill="none" fill-rule="evenodd"/><path d="M1223 547C1221 551.308 1218 555.615 1215 561" stroke="#000000" stroke-width="2.29167" stroke-linecap="round" stroke-linejoin="round" stroke-miterlimit="10" fill="none" fill-rule="evenodd"/><path d="M1306 567C1305 567 1305 567 1304 567" stroke="#000000" stroke-width="2.29167" stroke-linecap="round" stroke-linejoin="round" stroke-miterlimit="10" fill="none" fill-rule="evenodd"/><path d="M1343 591C1333.4 581.1 1320.6 572.3 1311 569" stroke="#000000" stroke-width="2.29167" stroke-linecap="round" stroke-linejoin="round" stroke-miterlimit="10" fill="none" fill-rule="evenodd"/><path d="M1318 622C1313.5 619.5 1311.25 618.25 1309 617" stroke="#000000" stroke-width="2.29167" stroke-linecap="round" stroke-linejoin="round" stroke-miterlimit="10" fill="none" fill-rule="evenodd"/><path d="M1325 630C1324 629 1323 628 1322 626" stroke="#000000" stroke-width="2.29167" stroke-linecap="round" stroke-linejoin="round" stroke-miterlimit="10" fill="none" fill-rule="evenodd"/><path d="M1302.81 865C1302.81 865 1302.81 865 1302.81 865 1302.81 865 1302.81 865 1302.81 865 1302.81 884.488 1313.29 901.683 1329 912 1322.71 909.707 1314.33 907.415 1307 907.415 1299.67 907.415 1291.29 909.707 1285 912 1285 912 1285 912 1285 912 1297.57 901.683 1302.81 884.488 1302.81 865Z" stroke="#000000" stroke-width="2.29167" stroke-linecap="round" stroke-linejoin="round" stroke-miterlimit="10" fill="none" fill-rule="evenodd"/><path d="M1197.14 859.659C1197.14 832.81 1198.18 786.944 1181.41 773.519 1176.17 767.926 1173.03 758.976 1173.03 750.027 1173.03 739.958 1177.22 731.009 1182.46 725.415 1187.7 722.059 1186.65 716.466 1186.65 711.991 1186.65 709.754 1186.65 705.279 1182.46 703.042 1174.07 698.567 1170.93 682.905 1170.93 675.074 1170.93 668.362 1174.07 656.056 1179.32 650.463 1183.51 645.988 1185.61 643.751 1185.61 635.92 1185.61 631.445 1179.32 623.614 1171.98 611.309 1162.54 593.41 1152.06 571.036 1151.01 569.917 1144.72 560.968 1137.39 555.374 1129 559.849 1129 559.849 1129 559.849 1129 559.849 1146.82 552.018 1209.71 533 1265.27 539.712 1266.32 539.712 1266.32 539.712 1266.32 539.712 1320.83 547.543 1354.37 574.392 1368 591.172 1368 591.172 1368 591.172 1368 591.172 1364.86 587.816 1361.71 586.697 1357.52 586.697 1343.89 586.697 1344.94 596.766 1342.84 602.359 1341.79 609.071 1342.84 610.19 1336.55 616.902 1331.31 621.377 1327.12 626.97 1327.12 633.683 1327.12 639.276 1330.26 645.988 1331.31 647.107 1334.46 652.7 1335.5 658.294 1335.5 665.006 1335.5 677.312 1329.21 687.38 1320.83 691.855 1315.59 695.211 1303.01 707.516 1303.01 727.653 1303.01 727.653 1303.01 727.653 1303.01 727.653 1303.01 725.415 1303.01 723.178 1303.01 722.059 1303.01 719.822 1301.96 714.229 1297.77 709.754 1290.43 703.042 1283.09 691.855 1283.09 676.193 1283.09 659.413 1286.24 652.7 1291.48 643.751 1297.77 635.92 1294.62 595.647 1293.57 590.054 1291.48 576.629 1285.19 564.324 1271.56 557.611 1248.5 545.306 1223.34 556.493 1218.1 558.73 1212.86 560.968 1212.86 568.798 1218.1 572.154 1225.44 577.748 1227.54 587.816 1227.54 599.003 1227.54 611.309 1224.39 620.258 1217.05 625.852 1216 626.97 1213.91 628.089 1212.86 630.327 1211.81 631.445 1210.76 634.801 1210.76 637.039 1210.76 641.513 1211.81 645.988 1213.91 647.107 1213.91 647.107 1216 648.226 1217.05 649.344 1224.39 653.819 1226.49 668.362 1226.49 675.074 1226.49 682.905 1224.39 698.567 1216 703.042 1211.81 705.279 1210.76 709.754 1210.76 711.991 1210.76 716.466 1209.71 722.059 1214.96 725.415 1221.25 731.009 1224.39 739.958 1224.39 750.027 1224.39 758.976 1221.25 767.926 1216 773.519 1199.23 786.944 1200.28 832.81 1200.28 859.659 1200.28 878.677 1203.43 898.813 1216 910 1210.76 908.881 1204.47 906.644 1198.18 906.644 1191.89 906.644 1186.65 908.881 1181.41 910 1193.99 898.813 1197.14 878.677 1197.14 859.659Z" stroke="#000000" stroke-width="2.29167" stroke-linecap="round" stroke-linejoin="round" stroke-miterlimit="10" fill="none" fill-rule="evenodd"/></g></svg>