<svg width="325" height="385" xmlns="http://www.w3.org/2000/svg" xmlns:xlink="http://www.w3.org/1999/xlink" xml:space="preserve" overflow="hidden"><g transform="translate(-2617 -1086)"><path d="M2721.42 1408.66C2721.42 1381.81 2722.47 1335.94 2705.63 1322.52 2700.37 1316.93 2697.21 1307.98 2697.21 1299.03 2697.21 1288.96 2701.42 1280.01 2706.68 1274.42 2711.95 1271.06 2710.89 1265.47 2710.89 1260.99 2710.89 1258.75 2710.89 1254.28 2706.68 1252.04 2698.26 1247.57 2695.11 1231.91 2695.11 1224.07 2695.11 1217.36 2698.26 1205.06 2703.53 1199.46 2707.74 1194.99 2709.84 1192.75 2709.84 1184.92 2709.84 1180.45 2703.53 1172.61 2696.16 1160.31 2686.68 1142.41 2676.16 1120.04 2675.11 1118.92 2668.79 1109.97 2661.42 1104.37 2653 1108.85 2653 1108.85 2653 1108.85 2653 1108.85 2670.89 1101.02 2734.05 1082 2789.84 1088.71 2790.89 1088.71 2790.89 1088.71 2790.89 1088.71 2845.63 1096.54 2879.32 1123.39 2893 1140.17 2893 1140.17 2893 1140.17 2893 1140.17 2889.84 1136.82 2886.68 1135.7 2882.47 1135.7 2868.79 1135.7 2869.84 1145.77 2867.74 1151.36 2866.68 1158.07 2867.74 1159.19 2861.42 1165.9 2856.16 1170.38 2851.95 1175.97 2851.95 1182.68 2851.95 1188.28 2855.11 1194.99 2856.16 1196.11 2859.32 1201.7 2860.37 1207.29 2860.37 1214.01 2860.37 1226.31 2854.05 1236.38 2845.63 1240.85 2840.37 1244.21 2827.74 1256.52 2827.74 1276.65 2827.74 1276.65 2827.74 1276.65 2827.74 1276.65 2827.74 1274.42 2827.74 1272.18 2827.74 1271.06 2827.74 1268.82 2826.68 1263.23 2822.47 1258.75 2815.11 1252.04 2807.74 1240.85 2807.74 1225.19 2807.74 1208.41 2810.89 1201.7 2816.16 1192.75 2822.47 1184.92 2819.32 1144.65 2818.26 1139.05 2816.16 1125.63 2809.84 1113.32 2796.16 1106.61 2773 1094.31 2747.74 1105.49 2742.47 1107.73 2737.21 1109.97 2737.21 1117.8 2742.47 1121.15 2749.84 1126.75 2751.95 1136.82 2751.95 1148 2751.95 1160.31 2748.79 1169.26 2741.42 1174.85 2740.37 1175.97 2738.26 1177.09 2737.21 1179.33 2736.16 1180.45 2735.11 1183.8 2735.11 1186.04 2735.11 1190.51 2736.16 1194.99 2738.26 1196.11 2738.26 1196.11 2740.37 1197.23 2741.42 1198.34 2748.79 1202.82 2750.89 1217.36 2750.89 1224.07 2750.89 1231.91 2748.79 1247.57 2740.37 1252.04 2736.16 1254.28 2735.11 1258.75 2735.11 1260.99 2735.11 1265.47 2734.05 1271.06 2739.32 1274.42 2745.63 1280.01 2748.79 1288.96 2748.79 1299.03 2748.79 1307.98 2745.63 1316.93 2740.37 1322.52 2723.53 1335.94 2724.58 1381.81 2724.58 1408.66 2724.58 1427.68 2727.74 1447.81 2740.37 1459 2735.11 1457.88 2728.79 1455.64 2722.47 1455.64 2716.16 1455.64 2710.89 1457.88 2705.63 1459 2718.26 1447.81 2721.42 1427.68 2721.42 1408.66Z" fill="#BA582E" fill-rule="evenodd"/><path d="M2827 1276.75C2827 1276.75 2827 1276.75 2827 1276.75 2827 1256.64 2839.67 1244.35 2844.94 1241 2853.39 1236.54 2859.72 1226.48 2859.72 1214.19 2859.72 1207.49 2858.67 1201.91 2855.5 1196.32 2854.44 1195.2 2851.28 1188.5 2851.28 1182.92 2851.28 1176.21 2855.5 1170.63 2860.78 1166.16 2867.11 1159.46 2866.06 1158.34 2867.11 1151.64 2869.22 1146.05 2868.17 1136 2881.89 1136 2895.61 1136 2903 1154.99 2903 1178.45 2903 1213.08 2898.78 1233.18 2896.67 1254.41 2893.5 1275.63 2900.89 1309.14 2917.78 1344.89 2934.67 1379.52 2941 1389.57 2941 1414.15 2941 1445.42 2919.89 1470 2888.22 1470 2856.56 1470 2827 1445.42 2827 1414.15 2827 1414.15 2827 1414.15 2827 1414.15L2827 1276.75Z" fill="#D59973" fill-rule="evenodd"/><path d="M2880.68 1141.35C2887.05 1140.23 2894.48 1151.41 2894.48 1178.23 2895.54 1201.69 2885.98 1229.63 2885.98 1277.68 2887.05 1324.61 2910.4 1350.31 2921.02 1365.95 2930.57 1381.59 2936.94 1400.59 2938 1414 2938 1389.42 2931.63 1379.36 2914.65 1344.72 2897.66 1308.96 2890.23 1275.44 2893.42 1254.21 2895.54 1232.98 2898.72 1212.87 2898.72 1178.23 2898.72 1154.76 2894.48 1138 2880.68 1138 2871.12 1138 2870.06 1149.17 2869 1154.76 2872.18 1145.82 2875.37 1142.47 2880.68 1141.35Z" fill="#ECD1BE" fill-rule="evenodd"/><path d="M2738.76 1274.17C2733.5 1270.81 2734.56 1265.21 2734.56 1260.74 2734.56 1258.5 2735.61 1254.02 2739.81 1251.79 2748.21 1247.31 2750.31 1231.64 2750.31 1223.81 2750.31 1217.1 2748.21 1202.55 2740.86 1198.07 2739.81 1196.95 2737.71 1195.83 2737.71 1195.83 2735.61 1194.71 2734.56 1190.24 2734.56 1185.76 2734.56 1183.52 2735.61 1180.17 2736.66 1179.05 2737.71 1176.81 2739.81 1175.69 2740.86 1174.57 2748.21 1168.98 2751.36 1160.02 2751.36 1147.71 2751.36 1136.52 2749.26 1126.45 2741.91 1120.86 2736.66 1117.5 2736.66 1109.67 2741.91 1107.43 2747.16 1105.19 2772.37 1094 2795.48 1106.31 2809.14 1113.02 2815.44 1125.33 2817.55 1138.76 2818.6 1144.36 2821.75 1184.64 2815.44 1192.48 2810.19 1201.43 2807.04 1208.14 2807.04 1224.93 2807.04 1240.6 2814.39 1251.79 2821.75 1258.5 2825.95 1262.98 2827 1268.57 2827 1270.81 2827 1280.88 2827 1329 2827 1356.98 2827 1386.07 2827 1403.98 2827 1414.05 2827 1445.38 2813.34 1470 2773.42 1470 2773.42 1470 2773.42 1470 2773.42 1470 2732.45 1470 2724.05 1439.79 2724.05 1408.45 2724.05 1381.6 2723 1335.71 2739.81 1322.29 2745.06 1316.69 2748.21 1307.74 2748.21 1298.79 2748.21 1288.71 2745.06 1279.76 2738.76 1274.17Z" fill="#D59973" fill-rule="evenodd"/><path d="M2807.26 1251.87C2803.09 1245.13 2801 1236.16 2801 1223.81 2801 1213.71 2805.17 1204.73 2809.35 1198 2809.35 1198 2809.35 1198 2809.35 1198 2806.22 1203.61 2804.13 1212.59 2804.13 1221.57 2804.13 1233.91 2808.3 1249.62 2814.56 1255.23 2817.7 1258.6 2821.87 1261.97 2822.91 1266.46 2823.96 1268.7 2823.96 1268.7 2825 1273.19 2825 1277.68 2825 1400 2825 1400 2823.96 1376.43 2821.87 1285.53 2819.78 1275.43 2818.74 1267.58 2814.56 1261.97 2812.48 1258.6 2811.43 1257.48 2808.3 1252.99 2807.26 1251.87Z" fill="#ECD1BE" fill-rule="evenodd"/><path d="M2632.85 1146.53C2636.03 1129.74 2641.33 1117.43 2650.88 1109.6 2661.48 1104 2668.91 1109.6 2675.27 1118.55 2676.33 1119.67 2686.94 1142.06 2696.48 1159.96 2703.91 1172.28 2710.27 1180.11 2710.27 1184.59 2710.27 1192.42 2708.15 1194.66 2703.91 1199.14 2698.61 1204.73 2695.42 1217.05 2695.42 1223.76 2695.42 1231.6 2698.61 1247.27 2707.09 1251.74 2711.33 1253.98 2711.33 1258.46 2711.33 1260.7 2711.33 1265.17 2712.39 1270.77 2707.09 1274.13 2701.79 1279.72 2697.55 1288.68 2697.55 1298.75 2697.55 1307.71 2700.73 1316.66 2706.03 1322.26 2723 1335.69 2721.94 1381.58 2721.94 1408.44 2721.94 1439.78 2713.45 1470 2673.15 1470 2673.15 1470 2673.15 1470 2673.15 1470 2631.79 1470 2618 1445.38 2618 1414.04 2618 1392.77 2623.3 1370.39 2633.91 1348 2644.52 1325.61 2645.58 1299.87 2638.15 1270.77 2629.67 1239.43 2625.42 1190.18 2632.85 1146.53Z" fill="#D59973" fill-rule="evenodd"/><path d="M2676 1464C2635.72 1464 2623 1445.02 2623 1413.77 2623 1392.56 2627.24 1370.24 2637.84 1347.92 2648.44 1325.59 2649.5 1299.92 2642.08 1270.9 2633.6 1239.64 2629.36 1190.53 2636.78 1147 2634.66 1167.09 2634.66 1234.06 2649.5 1273.13 2664.34 1311.08 2655.86 1330.06 2649.5 1353.5 2643.14 1376.94 2627.24 1430.51 2641.02 1448.37 2649.5 1458.42 2667.52 1462.88 2676 1464Z" fill="#C36E35" fill-rule="evenodd"/><path d="M2623.07 1414C2623.07 1392.77 2627.34 1370.43 2638.03 1348.09 2648.72 1325.74 2649.79 1300.05 2642.31 1271 2644.45 1284.41 2653 1307.87 2649.79 1327.98 2645.52 1349.2 2622 1387.19 2623.07 1414Z" fill="#BA582E" fill-rule="evenodd"/><path d="M2827.81 1414C2827.81 1414 2827.81 1414 2827.81 1414 2827.81 1414 2827.81 1414 2827.81 1414 2827.81 1433.07 2838.29 1449.9 2854 1460 2847.71 1457.76 2839.33 1455.51 2832 1455.51 2824.67 1455.51 2816.29 1457.76 2810 1460 2810 1460 2810 1460 2810 1460 2822.57 1449.9 2827.81 1433.07 2827.81 1414Z" fill="#8F381B" fill-rule="evenodd"/><path d="M2699.35 1279C2696.22 1283.46 2694.13 1291.26 2694.13 1299.07 2694.13 1310.21 2699.35 1323.59 2705.61 1328.05 2710.83 1330.28 2713.96 1340.31 2715 1345.89 2715 1347 2715 1347 2715 1345.89 2712.91 1341.43 2708.74 1333.62 2704.56 1331.39 2695.17 1325.82 2691 1315.79 2691 1301.3 2691 1292.38 2695.17 1284.57 2699.35 1279Z" fill="#ECD1BE" fill-rule="evenodd"/><path d="M2694.32 1291C2693.26 1297.69 2692.21 1315.51 2708 1330 2698.53 1323.31 2688 1312.17 2694.32 1291Z" fill="#FFFFFF" fill-rule="evenodd"/><path d="M2805.35 1213C2803.24 1220.88 2803.24 1242.25 2817 1258 2808.53 1251.25 2799 1237.75 2805.35 1213Z" fill="#FFFFFF" fill-rule="evenodd"/><path d="M2749.62 1205.12C2752.76 1208.49 2754.86 1217.47 2754.86 1224.21 2754.86 1235.44 2749.62 1250.04 2743.33 1254.53 2736 1259.02 2738.1 1265.75 2737.05 1268 2737.05 1268 2737.05 1268 2738.1 1266.88 2737.05 1262.39 2740.19 1260.14 2744.38 1256.77 2753.81 1251.16 2758 1241.05 2758 1227.58 2758 1217.47 2753.81 1210.74 2749.62 1204L2749.62 1205.12Z" fill="#ECD1BE" fill-rule="evenodd"/><path d="M2750.57 1128C2753.71 1132.5 2756.86 1140.37 2756.86 1148.25 2756.86 1158.38 2751.62 1173 2744.29 1177.5 2738 1183.13 2739.05 1189.88 2739.05 1191 2739.05 1191 2739.05 1191 2739.05 1191 2739.05 1185.38 2742.19 1183.13 2746.38 1180.88 2755.81 1174.13 2760 1165.12 2760 1150.5 2760 1141.5 2755.81 1133.62 2751.62 1128L2750.57 1128Z" fill="#ECD1BE" fill-rule="evenodd"/><path d="M2675.71 1125.69C2681.94 1136.89 2691.29 1161.55 2699.61 1172.75 2704.8 1180.6 2708.96 1183.96 2703.76 1192.92 2697.53 1203.01 2696.49 1204.13 2693.37 1210.85 2692.33 1215.33 2691.29 1219.82 2691.29 1224.3 2691.29 1235.5 2696.49 1250.07 2702.73 1254.55 2710 1259.04 2707.92 1265.76 2707.92 1266.88 2707.92 1266.88 2707.92 1268 2707.92 1266.88 2707.92 1261.28 2705.84 1260.16 2701.69 1256.79 2692.33 1251.19 2686.1 1241.11 2686.1 1227.66 2685.06 1201.89 2700.65 1196.28 2698.57 1186.2 2696.49 1174.99 2677.78 1134.65 2673.63 1126.81 2669.47 1118.96 2662.2 1110 2657 1111.12 2662.2 1110 2669.47 1114.48 2675.71 1125.69Z" fill="#ECD1BE" fill-rule="evenodd"/><path d="M2692 1217C2691 1223.71 2690 1241.59 2705 1255 2696 1249.41 2685 1237.12 2692 1217Z" fill="#FFFFFF" fill-rule="evenodd"/><path d="M2747.68 1280.12C2750.79 1284.57 2753.89 1292.38 2753.89 1299.07 2753.89 1310.22 2748.71 1322.48 2741.46 1326.94 2737.32 1328.06 2735.25 1334.75 2734.21 1338.09 2734.21 1339.21 2728 1365.97 2728 1376 2728 1376 2728 1376 2728 1376 2728 1364.85 2738.36 1334.75 2742.5 1331.4 2751.82 1325.83 2757 1315.79 2757 1302.41 2757 1292.38 2752.86 1285.69 2747.68 1279L2747.68 1280.12Z" fill="#ECD1BE" fill-rule="evenodd"/><path d="M2857.69 1195C2860.79 1199.44 2862.86 1208.31 2862.86 1214.96 2862.86 1226.05 2857.69 1237.15 2851.48 1241.58 2845.28 1244.91 2837 1252.67 2837 1254.89 2838.03 1256 2838.03 1254.89 2838.03 1254.89 2838.03 1250.45 2850.45 1246.02 2852.52 1244.91 2861.83 1239.36 2867 1231.6 2867 1217.18 2867 1208.31 2861.83 1200.55 2857.69 1195Z" fill="#ECD1BE" fill-rule="evenodd"/><path d="M2764 1105.36C2779.88 1102 2805.29 1113.21 2811.65 1128.91 2818 1144.61 2816.94 1176 2816.94 1176 2812.71 1153.58 2811.65 1110.97 2764 1105.36Z" fill="#ECD1BE" fill-rule="evenodd"/><path d="M2727.14 1385C2727.14 1409.52 2724 1467.48 2775.33 1466.36 2794.19 1466.36 2808.86 1457.45 2812 1451.88 2805.71 1458.56 2734.48 1492 2727.14 1385Z" fill="#C36E35" fill-rule="evenodd"/><path d="M2932 1442.46C2925.69 1454.8 2895.2 1475 2868.91 1463.78 2844.72 1453.68 2834.21 1432.36 2832.1 1421.14 2830 1408.8 2831.05 1290.98 2831.05 1282 2834.21 1304.44 2831.05 1415.53 2853.13 1439.09 2879.42 1470.51 2921.48 1459.29 2932 1442.46Z" fill="#C36E35" fill-rule="evenodd"/><path d="M2721.33 1408.59C2721.33 1381.71 2722.38 1335.79 2705.46 1322.34 2700.17 1316.74 2697 1307.78 2697 1298.82 2697 1292.1 2698.06 1286.5 2701.23 1282.02 2701.23 1282.02 2701.23 1283.14 2701.23 1284.26 2697 1303.3 2707.58 1318.98 2713.92 1325.7 2719.21 1332.43 2722.38 1333.55 2724.5 1324.58 2726.62 1314.5 2734.02 1311.14 2734.02 1299.94 2734.02 1288.74 2726.62 1282.02 2725.56 1276.42 2725.56 1270.82 2723.44 1262.98 2725.56 1252.9 2728.73 1241.69 2736.13 1234.97 2736.13 1228.25 2736.13 1220.41 2736.13 1212.57 2731.9 1208.09 2727.67 1203.61 2722.38 1201.37 2724.5 1180.09 2726.62 1158.81 2744.6 1159.93 2743.54 1144.24 2741.42 1129.68 2734.02 1124.08 2738.25 1114 2738.25 1117.36 2739.31 1119.6 2742.48 1120.72 2749.88 1126.32 2752 1136.4 2752 1147.6 2752 1159.93 2748.83 1168.89 2741.42 1174.49 2740.37 1175.61 2738.25 1176.73 2737.19 1178.97 2736.13 1180.09 2735.08 1183.45 2735.08 1185.69 2735.08 1190.17 2736.13 1194.65 2738.25 1195.77 2738.25 1195.77 2740.37 1196.89 2741.42 1198.01 2748.83 1202.49 2750.94 1217.05 2750.94 1223.77 2750.94 1231.61 2748.83 1247.3 2740.37 1251.78 2736.13 1254.02 2735.08 1258.5 2735.08 1260.74 2735.08 1265.22 2734.02 1270.82 2739.31 1274.18 2745.65 1279.78 2748.83 1288.74 2748.83 1298.82 2748.83 1307.78 2745.65 1316.74 2740.37 1322.34 2723.44 1335.79 2724.5 1381.71 2724.5 1408.59 2724.5 1427.64 2727.67 1447.8 2740.37 1459 2735.08 1457.88 2728.73 1455.64 2722.38 1455.64 2716.04 1455.64 2710.75 1457.88 2705.46 1459 2718.15 1447.8 2721.33 1427.64 2721.33 1408.59Z" fill="#8F381B" fill-rule="evenodd"/><path d="M2703 1199.49C2704 1198.37 2705 1196.12 2706 1195 2706 1195 2706 1195 2706 1195 2699 1205.11 2694 1234.3 2706 1250.02 2710 1254.51 2710 1256.75 2710 1259 2709 1256.75 2708 1253.39 2706 1252.26 2698 1247.77 2695 1232.05 2695 1224.19 2695 1217.46 2698 1205.11 2703 1199.49Z" fill="#8F381B" fill-rule="evenodd"/><path d="M2808.19 1210.32C2807.14 1221.45 2807.14 1237.04 2810.29 1242.6 2810.29 1242.6 2810.29 1242.6 2810.29 1241.49 2813.43 1249.28 2817.62 1254.85 2821.81 1258.19 2826 1262.64 2827.05 1268.21 2827.05 1270.43 2827.05 1276 2827.05 1276 2827.05 1276 2827.05 1276 2827.05 1276 2827.05 1276 2827.05 1255.96 2839.62 1243.72 2844.86 1240.38 2853.24 1235.92 2859.52 1225.91 2859.52 1213.66 2859.52 1206.98 2858.48 1201.42 2855.33 1195.85 2854.29 1194.74 2851.14 1188.06 2851.14 1182.49 2851.14 1175.81 2855.33 1170.25 2860.57 1165.79 2866.86 1159.11 2865.81 1158 2866.86 1151.32 2867.9 1149.09 2867.9 1143.53 2870 1140.19 2868.95 1140.19 2867.9 1139.08 2865.81 1137.96 2858.48 1133.51 2842.76 1117.92 2828.1 1114.58 2826 1114.58 2826 1115.7 2828.1 1117.92 2837.52 1124.6 2850.1 1136.85 2849.05 1150.21 2849.05 1165.79 2843.81 1168.02 2832.29 1164.68 2831.24 1164.68 2831.24 1163.57 2830.19 1163.57 2824.95 1162.45 2824.95 1156.89 2823.9 1153.55 2821.81 1133.51 2817.62 1111.25 2804 1099 2809.24 1106.79 2814.48 1122.38 2816.57 1133.51 2818.67 1145.75 2819.71 1175.81 2818.67 1185.83 2816.57 1196.96 2809.24 1199.19 2808.19 1210.32ZM2814.48 1215.89C2821.81 1202.53 2827.05 1193.62 2824.95 1170.25 2824.95 1169.13 2827.05 1168.02 2828.1 1169.13 2831.24 1172.47 2834.38 1175.81 2837.52 1180.26 2846.95 1192.51 2849.05 1205.87 2844.86 1220.34 2840.67 1233.7 2833.33 1233.7 2828.1 1244.83 2822.86 1254.85 2817.62 1250.4 2810.29 1240.38 2808.19 1234.81 2808.19 1227.02 2814.48 1215.89Z" fill="#8F381B" fill-rule="evenodd"/><path d="M2676 1120.05C2679.13 1116.7 2705.22 1110 2724 1110 2713.56 1111.12 2694.78 1116.7 2691.65 1127.87 2687.48 1137.92 2706.26 1177 2706.26 1177 2706.26 1177 2706.26 1177 2706.26 1177 2704.17 1172.53 2700 1166.95 2695.83 1160.25 2688.52 1144.62 2679.13 1126.75 2676 1120.05 2676 1120.05 2676 1120.05 2676 1120.05Z" fill="#8F381B" fill-rule="evenodd"/><path d="M2702 1213C2700 1221.89 2700 1235.22 2705 1243 2703 1237.44 2702 1213 2702 1213Z" fill="#FFFFFF" fill-rule="evenodd"/><path d="M2701.13 1291C2700 1301.17 2702.25 1311.35 2709 1317 2705.63 1311.35 2701.13 1291 2701.13 1291Z" fill="#FFFFFF" fill-rule="evenodd"/><path d="M2715 1097C2699.21 1097 2681.32 1102 2675 1105" fill="#FFFFFF" fill-rule="evenodd"/><path d="M2827 1276.75C2827 1276.75 2827 1276.75 2827 1276.75 2827 1256.64 2839.67 1244.35 2844.94 1241 2853.39 1236.54 2859.72 1226.48 2859.72 1214.19 2859.72 1207.49 2858.67 1201.91 2855.5 1196.32 2854.44 1195.2 2851.28 1188.5 2851.28 1182.92 2851.28 1176.21 2855.5 1170.63 2860.78 1166.16 2867.11 1159.46 2866.06 1158.34 2867.11 1151.64 2869.22 1146.05 2868.17 1136 2881.89 1136 2895.61 1136 2903 1154.99 2903 1178.45 2903 1213.08 2898.78 1233.18 2896.67 1254.41 2893.5 1275.63 2900.89 1309.14 2917.78 1344.89 2934.67 1379.52 2941 1389.57 2941 1414.15 2941 1445.42 2919.89 1470 2888.22 1470 2856.56 1470 2827 1445.42 2827 1414.15 2827 1414.15 2827 1414.15 2827 1414.15L2827 1276.75Z" stroke="#000000" stroke-width="2.29167" stroke-linecap="round" stroke-linejoin="round" stroke-miterlimit="10" fill="none" fill-rule="evenodd"/><path d="M2738.76 1274.17C2733.5 1270.81 2734.56 1265.21 2734.56 1260.74 2734.56 1258.5 2735.61 1254.02 2739.81 1251.79 2748.21 1247.31 2750.31 1231.64 2750.31 1223.81 2750.31 1217.1 2748.21 1202.55 2740.86 1198.07 2739.81 1196.95 2737.71 1195.83 2737.71 1195.83 2735.61 1194.71 2734.56 1190.24 2734.56 1185.76 2734.56 1183.52 2735.61 1180.17 2736.66 1179.05 2737.71 1176.81 2739.81 1175.69 2740.86 1174.57 2748.21 1168.98 2751.36 1160.02 2751.36 1147.71 2751.36 1136.52 2749.26 1126.45 2741.91 1120.86 2736.66 1117.5 2736.66 1109.67 2741.91 1107.43 2747.16 1105.19 2772.37 1094 2795.48 1106.31 2809.14 1113.02 2815.44 1125.33 2817.55 1138.76 2818.6 1144.36 2821.75 1184.64 2815.44 1192.48 2810.19 1201.43 2807.04 1208.14 2807.04 1224.93 2807.04 1240.6 2814.39 1251.79 2821.75 1258.5 2825.95 1262.98 2827 1268.57 2827 1270.81 2827 1280.88 2827 1329 2827 1356.98 2827 1386.07 2827 1403.98 2827 1414.05 2827 1445.38 2813.34 1470 2773.42 1470 2773.42 1470 2773.42 1470 2773.42 1470 2732.45 1470 2724.05 1439.79 2724.05 1408.45 2724.05 1381.6 2723 1335.71 2739.81 1322.29 2745.06 1316.69 2748.21 1307.74 2748.21 1298.79 2748.21 1288.71 2745.06 1279.76 2738.76 1274.17Z" stroke="#000000" stroke-width="2.29167" stroke-linecap="round" stroke-linejoin="round" stroke-miterlimit="10" fill="none" fill-rule="evenodd"/><path d="M2632.85 1146.53C2636.03 1129.74 2641.33 1117.43 2650.88 1109.6 2661.48 1104 2668.91 1109.6 2675.27 1118.55 2676.33 1119.67 2686.94 1142.06 2696.48 1159.96 2703.91 1172.28 2710.27 1180.11 2710.27 1184.59 2710.27 1192.42 2708.15 1194.66 2703.91 1199.14 2698.61 1204.73 2695.42 1217.05 2695.42 1223.76 2695.42 1231.6 2698.61 1247.27 2707.09 1251.74 2711.33 1253.98 2711.33 1258.46 2711.33 1260.7 2711.33 1265.17 2712.39 1270.77 2707.09 1274.13 2701.79 1279.72 2697.55 1288.68 2697.55 1298.75 2697.55 1307.71 2700.73 1316.66 2706.03 1322.26 2723 1335.69 2721.94 1381.58 2721.94 1408.44 2721.94 1439.78 2713.45 1470 2673.15 1470 2673.15 1470 2673.15 1470 2673.15 1470 2631.79 1470 2618 1445.38 2618 1414.04 2618 1392.77 2623.3 1370.39 2633.91 1348 2644.52 1325.61 2645.58 1299.87 2638.15 1270.77 2629.67 1239.43 2625.42 1190.18 2632.85 1146.53Z" stroke="#000000" stroke-width="2.29167" stroke-linecap="round" stroke-linejoin="round" stroke-miterlimit="10" fill="none" fill-rule="evenodd"/><path d="M2806 1102C2810.4 1109.93 2815.9 1122.4 2817 1136" stroke="#000000" stroke-width="2.29167" stroke-linecap="round" stroke-linejoin="round" stroke-miterlimit="10" fill="none" fill-rule="evenodd"/><path d="M2802 1095C2802 1096.5 2803 1096.5 2803 1098" stroke="#000000" stroke-width="2.29167" stroke-linecap="round" stroke-linejoin="round" stroke-miterlimit="10" fill="none" fill-rule="evenodd"/><path d="M2748 1095C2745.75 1099.62 2742.38 1104.23 2739 1110" stroke="#000000" stroke-width="2.29167" stroke-linecap="round" stroke-linejoin="round" stroke-miterlimit="10" fill="none" fill-rule="evenodd"/><path d="M2831 1115C2829.5 1115 2829.5 1115 2828 1115" stroke="#000000" stroke-width="2.29167" stroke-linecap="round" stroke-linejoin="round" stroke-miterlimit="10" fill="none" fill-rule="evenodd"/><path d="M2867 1140C2857.7 1130.1 2845.3 1121.3 2836 1118" stroke="#000000" stroke-width="2.29167" stroke-linecap="round" stroke-linejoin="round" stroke-miterlimit="10" fill="none" fill-rule="evenodd"/><path d="M2842 1170C2838 1168 2836 1167 2834 1166" stroke="#000000" stroke-width="2.29167" stroke-linecap="round" stroke-linejoin="round" stroke-miterlimit="10" fill="none" fill-rule="evenodd"/><path d="M2850 1179C2848.67 1177.75 2847.33 1176.5 2846 1174" stroke="#000000" stroke-width="2.29167" stroke-linecap="round" stroke-linejoin="round" stroke-miterlimit="10" fill="none" fill-rule="evenodd"/><path d="M2827.81 1414C2827.81 1414 2827.81 1414 2827.81 1414 2827.81 1414 2827.81 1414 2827.81 1414 2827.81 1433.07 2838.29 1449.9 2854 1460 2847.71 1457.76 2839.33 1455.51 2832 1455.51 2824.67 1455.51 2816.29 1457.76 2810 1460 2810 1460 2810 1460 2810 1460 2822.57 1449.9 2827.81 1433.07 2827.81 1414Z" stroke="#000000" stroke-width="2.29167" stroke-linecap="round" stroke-linejoin="round" stroke-miterlimit="10" fill="none" fill-rule="evenodd"/><path d="M2721.42 1408.66C2721.42 1381.81 2722.47 1335.94 2705.63 1322.52 2700.37 1316.93 2697.21 1307.98 2697.21 1299.03 2697.21 1288.96 2701.42 1280.01 2706.68 1274.42 2711.95 1271.06 2710.89 1265.47 2710.89 1260.99 2710.89 1258.75 2710.89 1254.28 2706.68 1252.04 2698.26 1247.57 2695.11 1231.91 2695.11 1224.07 2695.11 1217.36 2698.26 1205.06 2703.53 1199.46 2707.74 1194.99 2709.84 1192.75 2709.84 1184.92 2709.84 1180.45 2703.53 1172.61 2696.16 1160.31 2686.68 1142.41 2676.16 1120.04 2675.11 1118.92 2668.79 1109.97 2661.42 1104.37 2653 1108.85 2653 1108.85 2653 1108.85 2653 1108.85 2670.89 1101.02 2734.05 1082 2789.84 1088.71 2790.89 1088.71 2790.89 1088.71 2790.89 1088.71 2845.63 1096.54 2879.32 1123.39 2893 1140.17 2893 1140.17 2893 1140.17 2893 1140.17 2889.84 1136.82 2886.68 1135.7 2882.47 1135.7 2868.79 1135.7 2869.84 1145.77 2867.74 1151.36 2866.68 1158.07 2867.74 1159.19 2861.42 1165.9 2856.16 1170.38 2851.95 1175.97 2851.95 1182.68 2851.95 1188.28 2855.11 1194.99 2856.16 1196.11 2859.32 1201.7 2860.37 1207.29 2860.37 1214.01 2860.37 1226.31 2854.05 1236.38 2845.63 1240.85 2840.37 1244.21 2827.74 1256.52 2827.74 1276.65 2827.74 1276.65 2827.74 1276.65 2827.74 1276.65 2827.74 1274.42 2827.74 1272.18 2827.74 1271.06 2827.74 1268.82 2826.68 1263.23 2822.47 1258.75 2815.11 1252.04 2807.74 1240.85 2807.74 1225.19 2807.74 1208.41 2810.89 1201.7 2816.16 1192.75 2822.47 1184.92 2819.32 1144.65 2818.26 1139.05 2816.16 1125.63 2809.84 1113.32 2796.16 1106.61 2773 1094.31 2747.74 1105.49 2742.47 1107.73 2737.21 1109.97 2737.21 1117.8 2742.47 1121.15 2749.84 1126.75 2751.95 1136.82 2751.95 1148 2751.95 1160.31 2748.79 1169.26 2741.42 1174.85 2740.37 1175.97 2738.26 1177.09 2737.21 1179.33 2736.16 1180.45 2735.11 1183.8 2735.11 1186.04 2735.11 1190.51 2736.16 1194.99 2738.26 1196.11 2738.26 1196.11 2740.37 1197.23 2741.42 1198.34 2748.79 1202.82 2750.89 1217.36 2750.89 1224.07 2750.89 1231.91 2748.79 1247.57 2740.37 1252.04 2736.16 1254.28 2735.11 1258.75 2735.11 1260.99 2735.11 1265.47 2734.05 1271.06 2739.32 1274.42 2745.63 1280.01 2748.79 1288.96 2748.79 1299.03 2748.79 1307.98 2745.63 1316.93 2740.37 1322.52 2723.53 1335.94 2724.58 1381.81 2724.58 1408.66 2724.58 1427.68 2727.74 1447.81 2740.37 1459 2735.11 1457.88 2728.79 1455.64 2722.47 1455.64 2716.16 1455.64 2710.89 1457.88 2705.63 1459 2718.26 1447.81 2721.42 1427.68 2721.42 1408.66Z" stroke="#000000" stroke-width="2.29167" stroke-linecap="round" stroke-linejoin="round" stroke-miterlimit="10" fill="none" fill-rule="evenodd"/></g></svg>