<svg width="324" height="385" xmlns="http://www.w3.org/2000/svg" xmlns:xlink="http://www.w3.org/1999/xlink" xml:space="preserve" overflow="hidden"><g transform="translate(-1890 -1724)"><path d="M1993.14 2046.66C1993.14 2019.81 1994.18 1973.94 1977.41 1960.52 1972.17 1954.93 1969.03 1945.98 1969.03 1937.03 1969.03 1926.96 1973.22 1918.01 1978.46 1912.42 1983.7 1909.06 1982.65 1903.47 1982.65 1898.99 1982.65 1896.75 1982.65 1892.28 1978.46 1890.04 1970.07 1885.57 1966.93 1869.91 1966.93 1862.07 1966.93 1855.36 1970.07 1843.06 1975.32 1837.46 1979.51 1832.99 1981.61 1830.75 1981.61 1822.92 1981.61 1818.45 1975.32 1810.61 1967.98 1798.31 1958.54 1780.41 1948.06 1758.04 1947.01 1756.92 1940.72 1747.97 1933.39 1742.37 1925 1746.85 1925 1746.85 1925 1746.85 1925 1746.85 1942.82 1739.02 2005.71 1720 2061.27 1726.71 2062.32 1727.83 2062.32 1727.83 2062.32 1727.83 2116.83 1734.54 2150.37 1761.39 2164 1778.17 2164 1778.17 2164 1778.17 2164 1778.17 2160.86 1774.82 2157.71 1773.7 2153.52 1773.7 2139.89 1773.7 2140.94 1783.77 2138.84 1789.36 2137.79 1796.07 2138.84 1797.19 2132.55 1803.9 2127.31 1808.38 2123.12 1813.97 2123.12 1820.68 2123.12 1826.28 2126.26 1832.99 2127.31 1834.11 2130.46 1839.7 2131.5 1845.29 2131.5 1852.01 2131.5 1864.31 2125.21 1874.38 2116.83 1878.85 2111.59 1882.21 2099.01 1894.52 2099.01 1914.65 2099.01 1914.65 2099.01 1914.65 2099.01 1914.65 2099.01 1912.42 2099.01 1910.18 2099.01 1909.06 2099.01 1906.82 2097.96 1901.23 2093.77 1896.75 2086.43 1890.04 2079.09 1878.85 2079.09 1863.19 2079.09 1846.41 2082.24 1839.7 2087.48 1830.75 2093.77 1822.92 2090.62 1782.65 2089.57 1777.05 2087.48 1763.63 2081.19 1751.32 2067.56 1744.61 2044.5 1732.31 2019.34 1743.49 2014.1 1745.73 2008.86 1747.97 2008.86 1755.8 2014.1 1759.15 2021.44 1764.75 2023.54 1774.82 2023.54 1786 2023.54 1798.31 2020.39 1807.26 2013.05 1812.85 2012 1813.97 2009.91 1815.09 2008.86 1817.33 2007.81 1818.45 2006.76 1821.8 2006.76 1824.04 2006.76 1828.51 2007.81 1832.99 2009.91 1834.11 2009.91 1834.11 2012 1835.23 2013.05 1836.34 2020.39 1840.82 2022.49 1855.36 2022.49 1862.07 2022.49 1869.91 2020.39 1885.57 2012 1890.04 2007.81 1892.28 2006.76 1896.75 2006.76 1898.99 2006.76 1903.47 2005.71 1909.06 2010.96 1912.42 2017.25 1918.01 2020.39 1926.96 2020.39 1937.03 2020.39 1945.98 2017.25 1954.93 2012 1960.52 1995.23 1973.94 1996.28 2019.81 1996.28 2046.66 1996.28 2065.68 1999.43 2085.81 2012 2097 2006.76 2095.88 2000.47 2093.64 1994.18 2093.64 1987.89 2093.64 1982.65 2095.88 1977.41 2097 1989.99 2085.81 1993.14 2065.68 1993.14 2046.66Z" fill="#D04B5D" fill-rule="evenodd"/><path d="M2099 1914.75C2099 1914.75 2099 1914.75 2099 1914.75 2099 1894.64 2111.67 1882.35 2116.94 1879 2125.39 1874.54 2131.72 1864.48 2131.72 1852.19 2131.72 1845.49 2130.67 1839.91 2127.5 1834.32 2126.44 1833.2 2123.28 1826.5 2123.28 1820.92 2123.28 1814.21 2127.5 1808.63 2132.78 1804.16 2139.11 1797.46 2138.06 1796.34 2139.11 1789.64 2141.22 1784.05 2140.17 1774 2153.89 1774 2167.61 1774 2175 1792.99 2175 1816.45 2175 1851.08 2170.78 1871.18 2168.67 1892.41 2165.5 1913.63 2172.89 1947.14 2189.78 1982.89 2206.67 2017.52 2213 2027.57 2213 2052.15 2213 2083.42 2191.89 2108 2160.22 2108 2128.56 2108 2099 2083.42 2099 2052.15 2099 2052.15 2099 2052.15 2099 2052.15L2099 1914.75Z" fill="#F19C9D" fill-rule="evenodd"/><path d="M2153.51 1779.35C2159.78 1778.23 2167.11 1789.41 2167.11 1816.23 2168.15 1839.69 2158.74 1867.63 2158.74 1915.68 2159.78 1962.61 2182.8 1988.31 2193.26 2003.95 2202.68 2019.59 2208.95 2038.59 2210 2052 2210 2027.42 2203.72 2017.36 2186.98 1982.72 2170.25 1946.96 2162.92 1913.44 2166.06 1892.21 2168.15 1870.98 2171.29 1850.87 2171.29 1816.23 2171.29 1792.76 2167.11 1776 2153.51 1776 2144.09 1776 2143.05 1787.17 2142 1792.76 2145.14 1783.82 2148.28 1780.47 2153.51 1779.35Z" fill="#EC777F" fill-rule="evenodd"/><path d="M2010.76 1912.69C2005.51 1909.34 2006.56 1903.76 2006.56 1899.29 2006.56 1897.06 2007.61 1892.6 2011.81 1890.37 2020.21 1885.9 2022.31 1870.28 2022.31 1862.46 2022.31 1855.77 2020.21 1841.26 2012.86 1836.79 2011.81 1835.68 2009.71 1834.56 2009.71 1834.56 2007.61 1833.45 2006.56 1828.98 2006.56 1824.52 2006.56 1822.29 2007.61 1818.94 2008.66 1817.82 2009.71 1815.59 2011.81 1814.47 2012.86 1813.36 2020.21 1807.78 2023.36 1798.85 2023.36 1786.57 2023.36 1775.41 2021.26 1765.37 2013.91 1759.79 2008.66 1756.44 2008.66 1748.62 2013.91 1746.39 2019.16 1744.16 2044.37 1733 2067.48 1745.28 2081.14 1751.97 2087.44 1764.25 2089.55 1777.64 2090.6 1783.22 2093.75 1823.4 2087.44 1831.21 2082.19 1840.14 2079.04 1846.84 2079.04 1863.58 2079.04 1879.21 2086.39 1890.37 2093.75 1897.06 2097.95 1901.53 2099 1907.11 2099 1909.34 2099 1919.38 2099 1967.37 2099 1995.28 2099 2024.29 2099 2042.15 2099 2052.2 2099 2083.45 2085.34 2108 2045.42 2108 2045.42 2108 2045.42 2108 2045.42 2108 2004.45 2108 1996.05 2077.87 1996.05 2046.62 1996.05 2019.83 1995 1974.07 2011.81 1960.68 2017.06 1955.1 2020.21 1946.17 2020.21 1937.24 2020.21 1927.2 2017.06 1918.27 2010.76 1912.69Z" fill="#F19C9D" fill-rule="evenodd"/><path d="M2079.26 1889.87C2075.09 1883.13 2073 1874.16 2073 1861.81 2073 1851.71 2077.17 1842.73 2081.35 1836 2081.35 1836 2081.35 1836 2081.35 1836 2078.22 1841.61 2076.13 1850.59 2076.13 1859.57 2076.13 1871.91 2080.3 1887.62 2086.57 1893.23 2089.7 1896.6 2093.87 1899.97 2094.91 1904.46 2095.96 1906.7 2095.96 1906.7 2097 1911.19 2097 1915.68 2097 2038 2097 2038 2095.96 2014.43 2093.87 1923.53 2091.78 1913.43 2090.74 1905.58 2086.57 1899.97 2084.48 1896.6 2083.43 1895.48 2080.3 1890.99 2079.26 1889.87Z" fill="#EC777F" fill-rule="evenodd"/><path d="M1905.57 1784.53C1908.69 1767.74 1913.89 1755.43 1923.25 1747.6 1933.66 1742 1940.94 1747.6 1947.18 1756.55 1948.22 1757.67 1958.63 1780.06 1967.99 1797.96 1975.27 1810.28 1981.52 1818.11 1981.52 1822.59 1981.52 1830.42 1979.43 1832.66 1975.27 1837.14 1970.07 1842.73 1966.95 1855.05 1966.95 1861.76 1966.95 1869.6 1970.07 1885.27 1978.39 1889.74 1982.56 1891.98 1982.56 1896.46 1982.56 1898.7 1982.56 1903.17 1983.6 1908.77 1978.39 1912.13 1973.19 1917.72 1969.03 1926.68 1969.03 1936.75 1969.03 1945.71 1972.15 1954.66 1977.35 1960.26 1994 1973.69 1992.96 2019.58 1992.96 2046.44 1992.96 2077.78 1984.64 2108 1945.1 2108 1945.1 2108 1945.1 2108 1945.1 2108 1904.53 2108 1891 2083.38 1891 2052.04 1891 2030.77 1896.2 2008.39 1906.61 1986 1917.01 1963.61 1918.05 1937.87 1910.77 1908.77 1902.44 1877.43 1898.28 1828.18 1905.57 1784.53Z" fill="#F19C9D" fill-rule="evenodd"/><path d="M1948 2103C1908.48 2103 1896 2083.96 1896 2052.61 1896 2031.34 1900.16 2008.94 1910.56 1986.55 1920.96 1964.16 1922 1938.4 1914.72 1909.29 1906.4 1877.94 1902.24 1828.67 1909.52 1785 1907.44 1805.16 1907.44 1872.34 1922 1911.53 1936.56 1949.6 1928.24 1968.63 1922 1992.15 1915.76 2015.66 1900.16 2069.41 1913.68 2087.32 1922 2097.4 1939.68 2101.88 1948 2103Z" fill="#E85368" fill-rule="evenodd"/><path d="M1896.03 2052C1896.03 2030.77 1900.17 2008.43 1910.52 1986.09 1920.86 1963.74 1921.9 1938.05 1914.66 1909 1916.72 1922.41 1925 1945.87 1921.9 1965.98 1917.76 1987.2 1895 2025.19 1896.03 2052Z" fill="#D04B5D" fill-rule="evenodd"/><path d="M2099.21 2052C2099.21 2052 2099.21 2052 2099.21 2052 2099.21 2052 2099.21 2052 2099.21 2052 2099.21 2071.07 2109.93 2087.9 2126 2098 2119.57 2095.76 2111 2093.51 2103.5 2093.51 2096 2093.51 2087.43 2095.76 2081 2098 2081 2098 2081 2098 2081 2098 2093.86 2087.9 2099.21 2071.07 2099.21 2052Z" fill="#002C4A" fill-rule="evenodd"/><path d="M1971.35 1917C1968.22 1921.46 1966.13 1929.26 1966.13 1937.07 1966.13 1948.21 1971.35 1961.59 1977.61 1966.05 1982.83 1968.28 1985.96 1978.31 1987 1983.89 1987 1985 1987 1985 1987 1983.89 1984.91 1979.43 1980.74 1971.62 1976.57 1969.39 1967.17 1963.82 1963 1953.79 1963 1939.3 1963 1930.38 1967.17 1922.57 1971.35 1917Z" fill="#EC777F" fill-rule="evenodd"/><path d="M1966.32 1929C1965.26 1935.86 1964.21 1954.14 1980 1969 1970.53 1962.14 1960 1950.71 1966.32 1929Z" fill="#FFFFFF" fill-rule="evenodd"/><path d="M2077.35 1851C2075.24 1858.88 2075.24 1880.25 2089 1896 2080.53 1889.25 2071 1875.75 2077.35 1851Z" fill="#FFFFFF" fill-rule="evenodd"/><path d="M2021.62 1843.12C2024.76 1846.49 2026.86 1855.47 2026.86 1862.21 2026.86 1873.44 2021.62 1888.04 2015.33 1892.53 2008 1897.02 2010.1 1903.75 2009.05 1906 2009.05 1906 2009.05 1906 2010.1 1904.88 2009.05 1900.39 2012.19 1898.14 2016.38 1894.77 2025.81 1889.16 2030 1879.05 2030 1865.58 2030 1855.47 2025.81 1848.74 2021.62 1842L2021.62 1843.12Z" fill="#EC777F" fill-rule="evenodd"/><path d="M2022.57 1766C2025.71 1770.5 2028.86 1778.37 2028.86 1786.25 2028.86 1796.38 2023.62 1811 2016.29 1815.5 2010 1821.13 2011.05 1827.88 2011.05 1829 2011.05 1829 2011.05 1829 2011.05 1829 2011.05 1823.38 2014.19 1821.13 2018.38 1818.88 2027.81 1812.13 2032 1803.12 2032 1788.5 2032 1779.5 2027.81 1771.62 2023.62 1766L2022.57 1766Z" fill="#EC777F" fill-rule="evenodd"/><path d="M1948.71 1763.69C1954.94 1774.89 1964.29 1799.55 1972.61 1810.75 1977.8 1818.6 1981.96 1821.96 1976.76 1830.92 1970.53 1841.01 1969.49 1842.13 1966.37 1848.85 1965.33 1853.33 1964.29 1857.82 1964.29 1862.3 1964.29 1873.5 1969.49 1888.07 1975.73 1892.55 1983 1897.04 1980.92 1903.76 1980.92 1904.88 1980.92 1904.88 1980.92 1906 1980.92 1904.88 1980.92 1899.28 1978.84 1898.16 1974.69 1894.79 1965.33 1889.19 1959.1 1879.11 1959.1 1865.66 1958.06 1839.89 1973.65 1834.28 1971.57 1824.2 1969.49 1812.99 1950.78 1772.65 1946.63 1764.81 1942.47 1756.96 1935.2 1748 1930 1749.12 1935.2 1748 1942.47 1752.48 1948.71 1763.69Z" fill="#EC777F" fill-rule="evenodd"/><path d="M1964.35 1856C1963.3 1862.53 1962.25 1879.94 1978 1893 1968.55 1887.56 1957 1875.59 1964.35 1856Z" fill="#FFFFFF" fill-rule="evenodd"/><path d="M2019.36 1918.12C2022.57 1922.57 2025.79 1930.38 2025.79 1937.07 2025.79 1948.22 2020.43 1960.48 2012.93 1964.94 2008.64 1966.06 2006.5 1972.75 2005.43 1976.09 2005.43 1977.21 1999 2003.97 1999 2014 1999 2014 1999 2014 1999 2014 1999 2002.85 2009.71 1972.75 2014 1969.4 2023.64 1963.83 2029 1953.79 2029 1940.41 2029 1930.38 2024.71 1923.69 2019.36 1917L2019.36 1918.12Z" fill="#EC777F" fill-rule="evenodd"/><path d="M2129.69 1833C2132.79 1837.51 2134.86 1846.53 2134.86 1853.29 2134.86 1864.56 2129.69 1875.84 2123.48 1880.35 2117.28 1883.73 2109 1891.62 2109 1893.87 2110.03 1895 2110.03 1893.87 2110.03 1893.87 2110.03 1889.36 2122.45 1884.85 2124.52 1883.73 2133.83 1878.09 2139 1870.2 2139 1855.55 2139 1846.53 2133.83 1838.64 2129.69 1833Z" fill="#EC777F" fill-rule="evenodd"/><path d="M2036 1743.36C2051.88 1740 2077.29 1751.21 2083.65 1766.91 2090 1782.61 2088.94 1814 2088.94 1814 2084.71 1791.58 2083.65 1748.97 2036 1743.36Z" fill="#EC777F" fill-rule="evenodd"/><path d="M2000.14 2024C2000.14 2048.52 1997 2106.48 2048.33 2105.36 2067.19 2105.36 2081.86 2096.45 2085 2090.88 2078.71 2097.56 2007.48 2131 2000.14 2024Z" fill="#E85368" fill-rule="evenodd"/><path d="M2203 2080.46C2196.69 2092.8 2166.2 2113 2139.91 2101.78 2115.72 2091.68 2105.21 2070.36 2103.1 2059.14 2101 2046.8 2102.05 1928.98 2102.05 1920 2105.21 1942.44 2102.05 2053.53 2124.13 2077.09 2150.42 2108.51 2192.48 2097.29 2203 2080.46Z" fill="#E85368" fill-rule="evenodd"/><path d="M1993.33 2046.74C1993.33 2019.94 1994.38 1974.14 1977.46 1960.74 1972.17 1955.16 1969 1946.22 1969 1937.29 1969 1930.58 1970.06 1925 1973.23 1920.53 1973.23 1920.53 1973.23 1921.65 1973.23 1922.77 1969 1941.75 1979.58 1957.39 1985.92 1964.09 1991.21 1970.79 1994.38 1971.91 1996.5 1962.97 1998.62 1952.92 2006.02 1949.57 2006.02 1938.4 2006.02 1927.23 1998.62 1920.53 1997.56 1914.95 1997.56 1909.36 1995.44 1901.55 1997.56 1891.49 2000.73 1880.32 2008.13 1873.62 2008.13 1866.92 2008.13 1859.1 2008.13 1851.29 2003.9 1846.82 1999.67 1842.35 1994.38 1840.12 1996.5 1818.9 1998.62 1797.68 2016.6 1798.79 2015.54 1783.16 2013.42 1768.64 2006.02 1763.05 2010.25 1753 2010.25 1756.35 2011.31 1758.58 2014.48 1759.7 2021.88 1765.29 2024 1775.34 2024 1786.51 2024 1798.79 2020.83 1807.73 2013.42 1813.31 2012.37 1814.43 2010.25 1815.55 2009.19 1817.78 2008.13 1818.9 2007.08 1822.25 2007.08 1824.48 2007.08 1828.95 2008.13 1833.42 2010.25 1834.53 2010.25 1834.53 2012.37 1835.65 2013.42 1836.77 2020.83 1841.23 2022.94 1855.75 2022.94 1862.45 2022.94 1870.27 2020.83 1885.91 2012.37 1890.38 2008.13 1892.61 2007.08 1897.08 2007.08 1899.31 2007.08 1903.78 2006.02 1909.36 2011.31 1912.71 2017.65 1918.3 2020.83 1927.23 2020.83 1937.29 2020.83 1946.22 2017.65 1955.16 2012.37 1960.74 1995.44 1974.14 1996.5 2019.94 1996.5 2046.74 1996.5 2065.73 1999.67 2085.83 2012.37 2097 2007.08 2095.88 2000.73 2093.65 1994.38 2093.65 1988.04 2093.65 1982.75 2095.88 1977.46 2097 1990.15 2085.83 1993.33 2065.73 1993.33 2046.74Z" fill="#9B3846" fill-rule="evenodd"/><path d="M1975.56 1837.49C1976.62 1836.37 1977.69 1834.12 1978.75 1833 1978.75 1833 1978.75 1833 1978.75 1833 1971.31 1843.11 1966 1872.3 1978.75 1888.02 1983 1892.51 1983 1894.75 1983 1897 1981.94 1894.75 1980.88 1891.39 1978.75 1890.26 1970.25 1885.77 1967.06 1870.05 1967.06 1862.19 1967.06 1855.46 1970.25 1843.11 1975.56 1837.49Z" fill="#9B3846" fill-rule="evenodd"/><path d="M2080.19 1848.95C2079.14 1860.14 2079.14 1875.82 2082.29 1881.42 2082.29 1881.42 2082.29 1881.42 2082.29 1880.3 2085.43 1888.13 2089.62 1893.73 2093.81 1897.09 2098 1901.57 2099.05 1907.16 2099.05 1909.4 2099.05 1915 2099.05 1915 2099.05 1915 2099.05 1915 2099.05 1915 2099.05 1915 2099.05 1894.85 2111.62 1882.53 2116.86 1879.18 2125.24 1874.7 2131.52 1864.62 2131.52 1852.31 2131.52 1845.59 2130.48 1839.99 2127.33 1834.4 2126.29 1833.28 2123.14 1826.56 2123.14 1820.96 2123.14 1814.25 2127.33 1808.65 2132.57 1804.17 2138.86 1797.45 2137.81 1796.33 2138.86 1789.62 2139.9 1787.38 2139.9 1781.78 2142 1778.42 2140.95 1778.42 2139.9 1777.3 2137.81 1776.18 2130.48 1771.7 2114.76 1756.03 2100.1 1752.67 2098 1752.67 2098 1753.79 2100.1 1756.03 2109.52 1762.75 2122.1 1775.06 2121.05 1788.5 2121.05 1804.17 2115.81 1806.41 2104.29 1803.05 2103.24 1803.05 2103.24 1801.93 2102.19 1801.93 2096.95 1800.81 2096.95 1795.21 2095.9 1791.86 2093.81 1771.7 2089.62 1749.31 2076 1737 2081.24 1744.84 2086.48 1760.51 2088.57 1771.7 2090.67 1784.02 2091.71 1814.25 2090.67 1824.32 2088.57 1835.52 2081.24 1837.75 2080.19 1848.95ZM2086.48 1854.55C2093.81 1841.11 2099.05 1832.16 2096.95 1808.65 2096.95 1807.53 2099.05 1806.41 2100.1 1807.53 2103.24 1810.89 2106.38 1814.25 2109.52 1818.72 2118.95 1831.04 2121.05 1844.47 2116.86 1859.03 2112.67 1872.46 2105.33 1872.46 2100.1 1883.65 2094.86 1893.73 2089.62 1889.25 2082.29 1879.18 2080.19 1873.58 2080.19 1865.74 2086.48 1854.55Z" fill="#9B3846" fill-rule="evenodd"/><path d="M1948 1758.05C1951.2 1754.7 1977.83 1748 1997 1748 1986.35 1749.12 1967.17 1754.7 1963.98 1765.87 1959.72 1775.92 1978.89 1815 1978.89 1815 1978.89 1815 1978.89 1815 1978.89 1815 1976.76 1810.53 1972.5 1804.95 1968.24 1798.25 1960.78 1782.62 1951.2 1764.75 1948 1758.05 1948 1758.05 1948 1758.05 1948 1758.05Z" fill="#9B3846" fill-rule="evenodd"/><path d="M1975 1851C1973 1859.89 1973 1873.22 1978 1881 1976 1875.44 1975 1851 1975 1851Z" fill="#FFFFFF" fill-rule="evenodd"/><path d="M1974 1929C1973 1939.17 1975 1949.35 1981 1955 1978 1949.35 1974 1929 1974 1929Z" fill="#FFFFFF" fill-rule="evenodd"/><path d="M1987 1735C1971.21 1735 1953.32 1740 1947 1743" fill="#FFFFFF" fill-rule="evenodd"/><path d="M2099 1914.75C2099 1914.75 2099 1914.75 2099 1914.75 2099 1894.64 2111.67 1882.35 2116.94 1879 2125.39 1874.54 2131.72 1864.48 2131.72 1852.19 2131.72 1845.49 2130.67 1839.91 2127.5 1834.32 2126.44 1833.2 2123.28 1826.5 2123.28 1820.92 2123.28 1814.21 2127.5 1808.63 2132.78 1804.16 2139.11 1797.46 2138.06 1796.34 2139.11 1789.64 2141.22 1784.05 2140.17 1774 2153.89 1774 2167.61 1774 2175 1792.99 2175 1816.45 2175 1851.08 2170.78 1871.18 2168.67 1892.41 2165.5 1913.63 2172.89 1947.14 2189.78 1982.89 2206.67 2017.52 2213 2027.57 2213 2052.15 2213 2083.42 2191.89 2108 2160.22 2108 2128.56 2108 2099 2083.42 2099 2052.15 2099 2052.15 2099 2052.15 2099 2052.15L2099 1914.75Z" stroke="#000000" stroke-width="2.29167" stroke-linecap="round" stroke-linejoin="round" stroke-miterlimit="10" fill="none" fill-rule="evenodd"/><path d="M2010.76 1912.69C2005.51 1909.34 2006.56 1903.76 2006.56 1899.29 2006.56 1897.06 2007.61 1892.6 2011.81 1890.37 2020.21 1885.9 2022.31 1870.28 2022.31 1862.46 2022.31 1855.77 2020.21 1841.26 2012.86 1836.79 2011.81 1835.68 2009.71 1834.56 2009.71 1834.56 2007.61 1833.45 2006.56 1828.98 2006.56 1824.52 2006.56 1822.29 2007.61 1818.94 2008.66 1817.82 2009.71 1815.59 2011.81 1814.47 2012.86 1813.36 2020.21 1807.78 2023.36 1798.85 2023.36 1786.57 2023.36 1775.41 2021.26 1765.37 2013.91 1759.79 2008.66 1756.44 2008.66 1748.62 2013.91 1746.39 2019.16 1744.16 2044.37 1733 2067.48 1745.28 2081.14 1751.97 2087.44 1764.25 2089.55 1777.64 2090.6 1783.22 2093.75 1823.4 2087.44 1831.21 2082.19 1840.14 2079.04 1846.84 2079.04 1863.58 2079.04 1879.21 2086.39 1890.37 2093.75 1897.06 2097.95 1901.53 2099 1907.11 2099 1909.34 2099 1919.38 2099 1967.37 2099 1995.28 2099 2024.29 2099 2042.15 2099 2052.2 2099 2083.45 2085.34 2108 2045.42 2108 2045.42 2108 2045.42 2108 2045.42 2108 2004.45 2108 1996.05 2077.87 1996.05 2046.62 1996.05 2019.83 1995 1974.07 2011.81 1960.68 2017.06 1955.1 2020.21 1946.17 2020.21 1937.24 2020.21 1927.2 2017.06 1918.27 2010.76 1912.69Z" stroke="#000000" stroke-width="2.29167" stroke-linecap="round" stroke-linejoin="round" stroke-miterlimit="10" fill="none" fill-rule="evenodd"/><path d="M1905.57 1784.53C1908.69 1767.74 1913.89 1755.43 1923.25 1747.6 1933.66 1742 1940.94 1747.6 1947.18 1756.55 1948.22 1757.67 1958.63 1780.06 1967.99 1797.96 1975.27 1810.28 1981.52 1818.11 1981.52 1822.59 1981.52 1830.42 1979.43 1832.66 1975.27 1837.14 1970.07 1842.73 1966.95 1855.05 1966.95 1861.76 1966.95 1869.6 1970.07 1885.27 1978.39 1889.74 1982.56 1891.98 1982.56 1896.46 1982.56 1898.7 1982.56 1903.17 1983.6 1908.77 1978.39 1912.13 1973.19 1917.72 1969.03 1926.68 1969.03 1936.75 1969.03 1945.71 1972.15 1954.66 1977.35 1960.26 1994 1973.69 1992.96 2019.58 1992.96 2046.44 1992.96 2077.78 1984.64 2108 1945.1 2108 1945.1 2108 1945.1 2108 1945.1 2108 1904.53 2108 1891 2083.38 1891 2052.04 1891 2030.77 1896.2 2008.39 1906.61 1986 1917.01 1963.61 1918.05 1937.87 1910.77 1908.77 1902.44 1877.43 1898.28 1828.18 1905.57 1784.53Z" stroke="#000000" stroke-width="2.29167" stroke-linecap="round" stroke-linejoin="round" stroke-miterlimit="10" fill="none" fill-rule="evenodd"/><path d="M2079 1740C2083 1747.93 2088 1760.4 2089 1774" stroke="#000000" stroke-width="2.29167" stroke-linecap="round" stroke-linejoin="round" stroke-miterlimit="10" fill="none" fill-rule="evenodd"/><path d="M2074 1734C2074 1735 2075 1735 2075 1736" stroke="#000000" stroke-width="2.29167" stroke-linecap="round" stroke-linejoin="round" stroke-miterlimit="10" fill="none" fill-rule="evenodd"/><path d="M2020 1734C2018 1738.31 2015 1742.62 2012 1748" stroke="#000000" stroke-width="2.29167" stroke-linecap="round" stroke-linejoin="round" stroke-miterlimit="10" fill="none" fill-rule="evenodd"/><path d="M2103 1754C2101.5 1754 2101.5 1754 2100 1754" stroke="#000000" stroke-width="2.29167" stroke-linecap="round" stroke-linejoin="round" stroke-miterlimit="10" fill="none" fill-rule="evenodd"/><path d="M2139 1778C2129.7 1768.1 2117.3 1760.4 2108 1756" stroke="#000000" stroke-width="2.29167" stroke-linecap="round" stroke-linejoin="round" stroke-miterlimit="10" fill="none" fill-rule="evenodd"/><path d="M2114 1809C2109.5 1806.5 2107.25 1805.25 2105 1804" stroke="#000000" stroke-width="2.29167" stroke-linecap="round" stroke-linejoin="round" stroke-miterlimit="10" fill="none" fill-rule="evenodd"/><path d="M2122 1817C2120.67 1816 2119.33 1815 2118 1813" stroke="#000000" stroke-width="2.29167" stroke-linecap="round" stroke-linejoin="round" stroke-miterlimit="10" fill="none" fill-rule="evenodd"/><path d="M2099.21 2052C2099.21 2052 2099.21 2052 2099.21 2052 2099.21 2052 2099.21 2052 2099.21 2052 2099.21 2071.07 2109.93 2087.9 2126 2098 2119.57 2095.76 2111 2093.51 2103.5 2093.51 2096 2093.51 2087.43 2095.76 2081 2098 2081 2098 2081 2098 2081 2098 2093.86 2087.9 2099.21 2071.07 2099.21 2052Z" stroke="#000000" stroke-width="2.29167" stroke-linecap="round" stroke-linejoin="round" stroke-miterlimit="10" fill="none" fill-rule="evenodd"/><path d="M1993.14 2046.66C1993.14 2019.81 1994.18 1973.94 1977.41 1960.52 1972.17 1954.93 1969.03 1945.98 1969.03 1937.03 1969.03 1926.96 1973.22 1918.01 1978.46 1912.42 1983.7 1909.06 1982.65 1903.47 1982.65 1898.99 1982.65 1896.75 1982.65 1892.28 1978.46 1890.04 1970.07 1885.57 1966.93 1869.91 1966.93 1862.07 1966.93 1855.36 1970.07 1843.06 1975.32 1837.46 1979.51 1832.99 1981.61 1830.75 1981.61 1822.92 1981.61 1818.45 1975.32 1810.61 1967.98 1798.31 1958.54 1780.41 1948.06 1758.04 1947.01 1756.92 1940.72 1747.97 1933.39 1742.37 1925 1746.85 1925 1746.85 1925 1746.85 1925 1746.85 1942.82 1739.02 2005.71 1720 2061.27 1726.71 2062.32 1727.83 2062.32 1727.83 2062.32 1727.83 2116.83 1734.54 2150.37 1761.39 2164 1778.17 2164 1778.17 2164 1778.17 2164 1778.17 2160.86 1774.82 2157.71 1773.7 2153.52 1773.7 2139.89 1773.7 2140.94 1783.77 2138.84 1789.36 2137.79 1796.07 2138.84 1797.19 2132.55 1803.9 2127.31 1808.38 2123.12 1813.97 2123.12 1820.68 2123.12 1826.28 2126.26 1832.99 2127.31 1834.11 2130.46 1839.7 2131.5 1845.29 2131.5 1852.01 2131.5 1864.31 2125.21 1874.38 2116.83 1878.85 2111.59 1882.21 2099.01 1894.52 2099.01 1914.65 2099.01 1914.65 2099.01 1914.65 2099.01 1914.65 2099.01 1912.42 2099.01 1910.18 2099.01 1909.06 2099.01 1906.82 2097.96 1901.23 2093.77 1896.75 2086.43 1890.04 2079.09 1878.85 2079.09 1863.19 2079.09 1846.41 2082.24 1839.7 2087.48 1830.75 2093.77 1822.92 2090.62 1782.65 2089.57 1777.05 2087.48 1763.63 2081.19 1751.32 2067.56 1744.61 2044.5 1732.31 2019.34 1743.49 2014.1 1745.73 2008.86 1747.97 2008.86 1755.8 2014.1 1759.15 2021.44 1764.75 2023.54 1774.82 2023.54 1786 2023.54 1798.31 2020.39 1807.26 2013.05 1812.85 2012 1813.97 2009.91 1815.09 2008.86 1817.33 2007.81 1818.45 2006.76 1821.8 2006.76 1824.04 2006.76 1828.51 2007.81 1832.99 2009.91 1834.11 2009.91 1834.11 2012 1835.23 2013.05 1836.34 2020.39 1840.82 2022.49 1855.36 2022.49 1862.07 2022.49 1869.91 2020.39 1885.57 2012 1890.04 2007.81 1892.28 2006.76 1896.75 2006.76 1898.99 2006.76 1903.47 2005.71 1909.06 2010.96 1912.42 2017.25 1918.01 2020.39 1926.96 2020.39 1937.03 2020.39 1945.98 2017.25 1954.93 2012 1960.52 1995.23 1973.94 1996.28 2019.81 1996.28 2046.66 1996.28 2065.68 1999.43 2085.81 2012 2097 2006.76 2095.88 2000.47 2093.64 1994.18 2093.64 1987.89 2093.64 1982.65 2095.88 1977.41 2097 1989.99 2085.81 1993.14 2065.68 1993.14 2046.66Z" stroke="#000000" stroke-width="2.29167" stroke-linecap="round" stroke-linejoin="round" stroke-miterlimit="10" fill="none" fill-rule="evenodd"/></g></svg>