<svg width="367" height="391" xmlns="http://www.w3.org/2000/svg" xmlns:xlink="http://www.w3.org/1999/xlink" xml:space="preserve" overflow="hidden"><g transform="translate(-3302 -1090)"><path d="M3401.78 1449.76C3401.78 1427.87 3391.53 1401.11 3388.11 1393.82 3383.56 1386.52 3381.28 1373.14 3383.56 1364.63 3384.69 1356.12 3388.11 1350.04 3393.81 1346.39 3397.22 1343.96 3399.5 1340.31 3400.64 1336.66 3401.78 1330.58 3399.5 1326.93 3397.22 1323.28 3391.53 1317.2 3388.11 1308.69 3388.11 1298.96 3389.25 1288.01 3393.81 1279.5 3401.78 1273.42 3405.19 1270.99 3407.47 1268.56 3408.61 1264.91 3409.75 1261.26 3408.61 1256.39 3406.33 1251.53 3402.92 1244.23 3401.78 1236.94 3402.92 1228.42 3405.19 1219.91 3409.75 1212.61 3415.44 1208.96 3426.83 1198.02 3429.11 1183.43 3429.11 1162.75 3429.11 1129.92 3413.17 1112.89 3392.67 1112.89 3388.11 1112.89 3383.56 1114.11 3379 1116.54 3379 1115.32 3379 1115.32 3379 1115.32 3400.64 1103.16 3432.53 1091 3480.36 1091 3481.5 1091 3481.5 1091 3481.5 1091 3529.33 1091 3562.36 1103.16 3584 1115.32 3584 1115.32 3584 1115.32 3584 1115.32 3579.44 1114.11 3574.89 1112.89 3569.19 1112.89 3548.69 1112.89 3532.75 1129.92 3532.75 1162.75 3532.75 1251.53 3532.75 1251.53 3532.75 1251.53 3532.75 1256.39 3533.89 1269.77 3537.31 1275.85 3538.44 1278.28 3549.83 1288.01 3552.11 1308.69 3554.39 1326.93 3547.56 1339.09 3549.83 1351.25 3550.97 1359.76 3556.67 1362.2 3557.81 1362.2 3566.92 1367.06 3573.75 1375.57 3574.89 1388.95 3576.03 1396.25 3574.89 1403.55 3571.47 1409.63 3570.33 1410.84 3565.78 1423 3566.92 1432.73 3568.06 1444.89 3573.75 1455.84 3582.86 1461.92 3568.06 1458.27 3550.97 1453.41 3533.89 1453.41 3516.81 1453.41 3496.31 1458.27 3480.36 1463.14 3484.92 1454.62 3487.19 1444.89 3489.47 1436.38 3490.61 1427.87 3487.19 1420.57 3486.06 1419.35 3482.64 1412.06 3481.5 1403.55 3483.78 1395.03 3486.06 1384.09 3491.75 1376.79 3498.58 1371.93 3503.14 1369.49 3505.42 1365.85 3506.56 1358.55 3507.69 1350.04 3504.28 1342.74 3503.14 1340.31 3499.72 1333.01 3498.58 1323.28 3499.72 1314.77 3502 1302.61 3506.56 1296.53 3514.53 1289.23 3531.61 1272.2 3531.61 1251.53 3531.61 1239.37 3531.61 1162.75 3531.61 1162.75 3531.61 1162.75 3531.61 1129.92 3519.08 1112.89 3481.5 1112.89 3481.5 1112.89 3481.5 1112.89 3481.5 1112.89 3481.5 1112.89 3481.5 1112.89 3481.5 1112.89 3480.36 1112.89 3480.36 1112.89 3480.36 1112.89 3443.92 1112.89 3434.81 1131.13 3434.81 1163.97 3434.81 1189.51 3438.22 1196.8 3443.92 1205.32 3449.61 1211.4 3451.89 1219.91 3451.89 1229.64 3450.75 1238.15 3448.47 1245.45 3443.92 1251.53 3439.36 1255.18 3438.22 1260.04 3438.22 1266.12 3438.22 1272.2 3439.36 1275.85 3441.64 1280.72 3447.33 1288.01 3449.61 1298.96 3447.33 1311.12 3446.19 1320.85 3440.5 1328.15 3433.67 1331.79 3432.53 1333.01 3427.97 1336.66 3426.83 1341.52 3425.69 1346.39 3427.97 1356.12 3430.25 1358.55 3434.81 1364.63 3435.94 1376.79 3435.94 1385.3 3434.81 1395.03 3431.39 1403.55 3424.56 1409.63 3418.86 1416.92 3412.03 1442.46 3417.72 1459.49 3418.86 1463.14 3421.14 1465.57 3423.42 1468 3418.86 1466.78 3414.31 1465.57 3409.75 1465.57 3405.19 1465.57 3399.5 1466.78 3394.94 1468 3399.5 1464.35 3401.78 1458.27 3401.78 1449.76Z" fill="#BA582E" fill-rule="evenodd"/><path d="M3569.5 1113C3591.17 1113 3607.13 1130.02 3607.13 1162.84 3607.13 1200.52 3600.29 1264.94 3633.36 1329.36 3656.17 1363.39 3664.16 1373.11 3666.44 1399.86 3671 1432.67 3650.47 1464.28 3616.26 1469.14 3588.88 1474 3569.5 1455.77 3567.21 1432.67 3566.07 1422.95 3570.64 1410.79 3571.78 1409.58 3575.2 1403.5 3576.34 1396.21 3575.2 1388.92 3574.06 1375.55 3567.21 1367.04 3558.09 1362.18 3556.95 1362.18 3551.25 1359.74 3550.11 1351.24 3547.83 1339.08 3554.67 1326.93 3552.39 1308.69 3550.11 1288.03 3538.7 1278.31 3537.56 1275.88 3534.14 1269.8 3533 1256.43 3533 1251.57 3533 1162.84 3533 1162.84 3533 1162.84 3533 1130.02 3548.97 1113 3569.5 1113Z" fill="#D59973" fill-rule="evenodd"/><path d="M3417.67 1458.94C3422.2 1471.08 3435.8 1482 3458.47 1478.36 3480 1475.93 3485.67 1452.87 3489.07 1435.88 3490.2 1427.38 3486.8 1420.1 3485.67 1418.88 3482.27 1411.6 3481.13 1403.1 3483.4 1394.61 3485.67 1383.68 3491.33 1376.4 3498.13 1371.54 3502.67 1369.12 3504.93 1365.47 3506.07 1358.19 3507.2 1349.69 3503.8 1342.41 3502.67 1339.98 3499.27 1332.7 3498.13 1322.99 3499.27 1314.49 3501.53 1302.36 3506.07 1296.29 3514 1289 3531 1272.01 3531 1251.38 3531 1239.24 3531 1162.77 3531 1162.77 3531 1162.77 3531 1129.99 3518.53 1113 3481.13 1113 3481.13 1113 3481.13 1113 3481.13 1113 3481.13 1113 3481.13 1113 3481.13 1113 3480 1113 3480 1113 3480 1113 3443.73 1113 3434.67 1131.21 3434.67 1163.98 3434.67 1189.47 3438.07 1196.75 3443.73 1205.25 3449.4 1211.32 3451.67 1219.82 3451.67 1229.53 3450.53 1238.02 3448.27 1245.31 3443.73 1251.38 3439.2 1255.02 3438.07 1259.87 3438.07 1265.94 3438.07 1272.01 3439.2 1275.65 3441.47 1280.51 3447.13 1287.79 3449.4 1298.71 3447.13 1310.85 3446 1320.56 3440.33 1327.85 3433.53 1331.49 3432.4 1332.7 3427.87 1336.34 3426.73 1341.2 3425.6 1346.05 3427.87 1355.76 3430.13 1358.19 3434.67 1364.26 3435.8 1376.4 3435.8 1384.89 3434.67 1394.61 3431.27 1403.1 3424.47 1409.17 3418.8 1416.45 3412 1441.94 3417.67 1458.94Z" fill="#D59973" fill-rule="evenodd"/><path d="M3415.34 1208.91C3409.65 1212.55 3405.1 1219.84 3402.82 1228.33 3401.68 1236.83 3402.82 1244.12 3406.24 1251.4 3408.51 1256.26 3409.65 1261.11 3408.51 1264.76 3407.37 1268.4 3405.1 1270.83 3401.68 1273.25 3393.72 1279.32 3389.16 1287.82 3388.02 1298.75 3388.02 1308.46 3391.44 1316.96 3397.13 1323.03 3399.41 1326.67 3401.68 1330.31 3400.54 1336.38 3399.41 1340.03 3397.13 1343.67 3393.72 1346.1 3388.02 1349.74 3384.61 1355.81 3383.47 1364.31 3381.2 1372.81 3383.47 1386.16 3388.02 1393.44 3391.44 1400.73 3401.68 1427.44 3401.68 1449.29 3401.68 1469.93 3386.89 1476 3367.54 1476 3357.29 1476 3317.46 1472.36 3306.07 1425.01 3289 1359.45 3357.29 1261.11 3358.43 1238.05 3360.71 1208.91 3358.43 1201.63 3358.43 1163.99 3358.43 1130 3372.09 1113 3392.58 1113 3413.06 1113 3429 1130 3429 1162.78 3429 1183.41 3426.72 1197.98 3415.34 1208.91Z" fill="#D59973" fill-rule="evenodd"/><path d="M3371.87 1469.57C3361.7 1469.57 3324.39 1472 3311.96 1424.71 3295 1359.23 3363.96 1261.01 3366.22 1237.97 3367.35 1208.87 3365.09 1201.59 3365.09 1164 3368.48 1182.19 3373 1225.84 3371.87 1244.03 3369.61 1262.22 3324.39 1331.34 3323.26 1383.48 3323.26 1434.41 3339.09 1469.57 3371.87 1469.57Z" fill="#C36E35" fill-rule="evenodd"/><path d="M3372 1469.57C3361.86 1469.57 3324.67 1472 3312.27 1424.71 3301 1379.85 3330.3 1319.23 3349.46 1278 3340.44 1298.61 3307.76 1376.21 3320.16 1423.5 3330.3 1461.09 3360.73 1472 3372 1469.57Z" fill="#BA582E" fill-rule="evenodd"/><path d="M3389.74 1348C3385.11 1351.61 3382.79 1356.42 3381.63 1363.63 3379.32 1372.05 3381.63 1386.48 3385.11 1392.49 3389.74 1399.7 3399 1427.36 3399 1449 3399 1449 3399 1449 3399 1449 3396.68 1415.33 3386.26 1402.11 3381.63 1396.1 3378.16 1387.68 3377 1374.45 3378.16 1364.83 3380.47 1356.42 3385.11 1352.81 3389.74 1348Z" fill="#ECD1BE" fill-rule="evenodd"/><path d="M3394.71 1277C3389 1281.84 3385.57 1290.3 3385.57 1298.77 3385.57 1308.44 3387.86 1316.91 3392.43 1322.95 3394.71 1325.37 3395.86 1326.58 3397 1329 3397 1329 3397 1329 3397 1329 3395.86 1327.79 3392.43 1325.37 3391.29 1322.95 3385.57 1316.91 3381 1309.65 3381 1298.77 3382.14 1289.09 3389 1280.63 3394.71 1277Z" fill="#ECD1BE" fill-rule="evenodd"/><path d="M3427 1161.78C3427 1180.11 3425.85 1196 3413.22 1208.22 3407.48 1211.89 3401.74 1220.44 3400.59 1227.78 3398.3 1235.11 3399.44 1244.89 3402.89 1251 3402.89 1251 3402.89 1251 3402.89 1251 3399.44 1243.67 3396 1235.11 3398.3 1226.56 3400.59 1216.78 3405.19 1209.44 3412.07 1204.56 3422.41 1194.78 3422.41 1182.56 3422.41 1161.78 3422.41 1143.44 3418.96 1126.33 3407.48 1119 3407.48 1119 3407.48 1119 3407.48 1119 3420.11 1127.56 3427 1141 3427 1161.78Z" fill="#ECD1BE" fill-rule="evenodd"/><path d="M3663 1406C3660.73 1379.25 3657.32 1375.6 3636.85 1341.55 3614.11 1305.06 3602.74 1264.93 3603.88 1241.83 3603.88 1217.5 3602.74 1190.75 3601.6 1157.92 3600.47 1134.81 3592.51 1123.86 3580 1119 3592.51 1122.65 3595.92 1144.54 3597.05 1167.64 3599.33 1198.05 3593.64 1239.39 3598.19 1272.23 3602.74 1303.85 3617.52 1322.09 3628.89 1336.68 3640.26 1352.49 3659.59 1380.46 3663 1406Z" fill="#ECD1BE" fill-rule="evenodd"/><path d="M3633 1335C3611.47 1299.84 3604.67 1262.26 3603.53 1239.23 3601.27 1211.34 3604.67 1194.37 3601.27 1158 3601.27 1179.82 3599 1221.04 3601.27 1245.29 3602.4 1267.11 3610.33 1303.48 3633 1335Z" fill="#FFFFFF" fill-rule="evenodd"/><path d="M3518 1279C3513.5 1281.45 3505.63 1291.27 3502.25 1297.41 3497.75 1308.45 3495.5 1328.09 3498.88 1336.68 3502.25 1342.82 3505.63 1353.86 3503.38 1358.77 3503.38 1360 3503.38 1360 3503.38 1358.77 3504.5 1352.64 3498.88 1340.36 3496.63 1335.45 3491 1323.18 3491 1310.91 3497.75 1297.41 3503.38 1288.82 3511.25 1281.45 3518 1279Z" fill="#ECD1BE" fill-rule="evenodd"/><path d="M3509 1288C3504.47 1292.82 3492 1312.1 3498.8 1335 3493.13 1322.95 3492 1302.46 3509 1288Z" fill="#FFFFFF" fill-rule="evenodd"/><path d="M3446.2 1282.2C3449.5 1287.02 3451.7 1295.44 3451.7 1302.67 3451.7 1314.7 3446.2 1327.94 3439.6 1331.56 3433 1335.17 3433 1342.39 3433 1344.8 3433 1346 3433 1344.8 3433 1344.8 3433 1339.98 3438.5 1336.37 3440.7 1335.17 3450.6 1329.15 3455 1320.72 3455 1306.28 3455 1295.44 3450.6 1288.22 3446.2 1281L3446.2 1282.2Z" fill="#ECD1BE" fill-rule="evenodd"/><path d="M3566 1365.19C3570.47 1367.58 3574.94 1374.74 3577.18 1383.09 3579.41 1393.82 3577.18 1405.75 3573.82 1414.11 3570.47 1420.07 3569.35 1428.42 3570.47 1430.81 3570.47 1432 3570.47 1430.81 3570.47 1430.81 3569.35 1426.04 3573.82 1420.07 3576.06 1417.68 3582.76 1405.75 3585 1398.6 3580.53 1384.28 3578.29 1374.74 3572.71 1368.77 3566 1364L3566 1365.19Z" fill="#ECD1BE" fill-rule="evenodd"/><path d="M3446.27 1201C3450.8 1205.82 3454.2 1214.25 3455.33 1221.48 3456.47 1233.52 3451.93 1246.77 3445.13 1252.8 3444 1252.8 3445.13 1254 3447.4 1251.59 3456.47 1244.36 3461 1238.34 3458.73 1223.89 3457.6 1213.05 3451.93 1207.02 3446.27 1201Z" fill="#ECD1BE" fill-rule="evenodd"/><path d="M3434.95 1361.21C3438.4 1364.83 3439.55 1374.48 3439.55 1382.93 3439.55 1393.79 3434.95 1405.86 3426.9 1411.9 3423.45 1415.52 3420 1427.59 3420 1430 3421.15 1430 3421.15 1430 3421.15 1430 3421.15 1425.17 3425.75 1416.72 3428.05 1415.52 3438.4 1409.48 3443 1401.03 3443 1385.34 3443 1375.69 3440.7 1367.24 3434.95 1360L3434.95 1361.21Z" fill="#ECD1BE" fill-rule="evenodd"/><path d="M3545 1281C3553.24 1291.88 3560.29 1306.4 3554.41 1333 3561.47 1320.91 3565 1293.09 3545 1281Z" fill="#ECD1BE" fill-rule="evenodd"/><path d="M3388.33 1288C3385.89 1294.11 3382.22 1307.56 3392 1321 3384.67 1310 3381 1301.44 3388.33 1288Z" fill="#FFFFFF" fill-rule="evenodd"/><path d="M3380.17 1369C3380.17 1378.88 3382.5 1386.29 3384.83 1392.47 3388.33 1398.65 3390.67 1403.59 3393 1411 3388.33 1402.35 3384.83 1397.41 3382.5 1390 3380.17 1382.59 3379 1371.47 3380.17 1369Z" fill="#FFFFFF" fill-rule="evenodd"/><path d="M3411 1209C3406.6 1212.68 3400 1223.73 3400 1236 3400 1227.41 3401.1 1215.14 3411 1209Z" fill="#FFFFFF" fill-rule="evenodd"/><path d="M3570 1119C3559.84 1119 3541.77 1128.78 3538.39 1150.78 3536.13 1171.56 3536.13 1236.33 3537.26 1251 3538.39 1225.33 3535 1131.22 3570 1119Z" fill="#C36E35" fill-rule="evenodd"/><path d="M3485 1118C3467.86 1118 3447.29 1122.84 3442.71 1137.35 3438.14 1151.87 3437 1179.69 3442.71 1193 3438.14 1176.06 3437 1127.68 3485 1118Z" fill="#C36E35" fill-rule="evenodd"/><path d="M3486.5 1419.16C3486.5 1419.16 3487.62 1421.58 3488.75 1424 3483.12 1401.02 3493.25 1380.47 3500 1372 3500 1372 3500 1372 3500 1372 3500 1372 3500 1372 3498.88 1372 3492.12 1376.84 3486.5 1384.09 3484.25 1394.98 3482 1403.44 3483.12 1411.91 3486.5 1419.16Z" fill="#8F381B" fill-rule="evenodd"/><path d="M3482.29 1458.14C3508.61 1441.13 3540.66 1442.34 3553.24 1437.48 3555.53 1426.55 3521.2 1420.47 3506.32 1420.47 3516.62 1415.61 3538.37 1411.97 3553.24 1418.05 3554.39 1418.05 3558.97 1414.4 3558.97 1411.97 3560.11 1408.33 3561.26 1403.47 3561.26 1392.53 3561.26 1376.73 3544.09 1365.8 3541.8 1364.58 3531.5 1354.86 3517.77 1356.08 3513.19 1358.51 3522.34 1352.44 3531.5 1351.22 3539.51 1353.65 3533.79 1332.99 3545.23 1324.49 3539.51 1312.34 3534.93 1298.97 3523.49 1300.19 3514.33 1306.27 3505.18 1312.34 3500.6 1336.64 3506.32 1346.36 3505.18 1346.36 3505.18 1346.36 3505.18 1346.36 3505.18 1343.93 3504.03 1341.5 3502.89 1340.29 3499.46 1332.99 3498.31 1323.28 3499.46 1314.77 3501.74 1302.62 3506.32 1296.55 3514.33 1289.26 3531.5 1272.24 3531.5 1251.59 3531.5 1239.44 3531.5 1221.21 3531.5 1221.21 3531.5 1221.21 3532.64 1220 3532.64 1220 3532.64 1220 3532.64 1251.59 3532.64 1251.59 3532.64 1251.59 3532.64 1256.45 3533.79 1269.82 3537.22 1275.89 3538.37 1278.32 3549.81 1288.04 3552.1 1308.7 3554.39 1326.92 3547.52 1339.07 3549.81 1351.22 3550.96 1359.72 3556.68 1362.16 3557.82 1362.16 3566.98 1367.02 3573.84 1375.52 3574.99 1388.89 3576.13 1396.18 3574.99 1403.47 3571.56 1409.54 3570.41 1410.76 3565.83 1422.91 3566.98 1432.62 3568.12 1444.78 3573.84 1455.71 3583 1461.79 3568.12 1458.14 3550.96 1453.28 3533.79 1453.28 3516.62 1453.28 3496.02 1458.14 3480 1463 3481.14 1461.79 3482.29 1459.35 3482.29 1458.14Z" fill="#8F381B" fill-rule="evenodd"/><path d="M3554 1116.05C3542.75 1126.95 3532.62 1139.05 3531.5 1156 3531.5 1141.47 3527 1122.11 3518 1110 3528.12 1110 3539.38 1112.42 3547.25 1118.47" fill="#8F381B" fill-rule="evenodd"/><path d="M3407.54 1429.14C3409.82 1417 3414.38 1408.5 3418.94 1400 3422.36 1391.5 3425.78 1375.71 3422.36 1363.57 3418.94 1350.21 3416.66 1341.71 3422.36 1330.79 3429.2 1319.86 3437.18 1301.64 3433.76 1287.07 3430.34 1272.5 3428.06 1261.57 3433.76 1250.64 3438.32 1239.71 3438.32 1213 3425.78 1213 3415.52 1213 3404.12 1233.64 3405.26 1249.43 3402.98 1243.36 3401.84 1236.07 3402.98 1228.79 3405.26 1220.29 3409.82 1213 3415.52 1209.36 3426.92 1198.43 3429.2 1183.86 3429.2 1163.21 3429.2 1143.79 3423.5 1129.21 3414.38 1121.93 3421.22 1117.07 3432.62 1111 3446.3 1111 3444.02 1117.07 3440.6 1125.57 3439.46 1135.29 3436.04 1142.57 3434.9 1152.29 3434.9 1164.43 3434.9 1189.93 3438.32 1197.21 3444.02 1205.71 3449.72 1211.79 3452 1220.29 3452 1230 3450.86 1238.5 3448.58 1245.79 3444.02 1251.86 3439.46 1255.5 3438.32 1260.36 3438.32 1266.43 3438.32 1272.5 3439.46 1276.14 3441.74 1281 3447.44 1288.29 3449.72 1299.21 3447.44 1311.36 3446.3 1321.07 3440.6 1328.36 3433.76 1332 3432.62 1333.21 3428.06 1336.86 3426.92 1341.71 3425.78 1346.57 3428.06 1356.29 3430.34 1358.71 3434.9 1364.79 3436.04 1376.93 3436.04 1385.43 3434.9 1395.14 3431.48 1403.64 3424.64 1409.71 3418.94 1417 3412.1 1442.5 3417.8 1459.5 3418.94 1463.14 3421.22 1465.57 3423.5 1468 3418.94 1466.79 3414.38 1465.57 3409.82 1465.57 3405.26 1465.57 3399.56 1466.79 3395 1468 3399.56 1464.36 3401.84 1458.29 3401.84 1449.79 3401.84 1446.14 3401.84 1443.71 3400.7 1441.29 3404.12 1440.07 3406.4 1436.43 3407.54 1429.14Z" fill="#8F381B" fill-rule="evenodd"/><path d="M3401.85 1273.21C3401.85 1273.21 3403 1273.21 3403 1272 3397.23 1280.49 3389.15 1302.32 3398.38 1321.72 3399.54 1325.36 3400.69 1327.79 3400.69 1329 3399.54 1326.57 3398.38 1325.36 3397.23 1322.94 3391.46 1316.87 3388 1308.38 3388 1298.68 3389.15 1287.77 3393.77 1279.28 3401.85 1273.21Z" fill="#8F381B" fill-rule="evenodd"/><path d="M3393.83 1404.17C3393.83 1406.58 3393.83 1407.79 3393.83 1409 3391.5 1401.75 3389.17 1396.92 3388 1393.3 3383.33 1386.06 3381 1372.77 3383.33 1364.32 3384.5 1355.87 3388 1349.83 3393.83 1346.21 3393.83 1346.21 3393.83 1346.21 3395 1346.21 3395 1345 3395 1345 3395 1345 3386.83 1352.25 3388 1380.02 3393.83 1404.17Z" fill="#8F381B" fill-rule="evenodd"/><path d="M3390.6 1358C3388.2 1367.85 3387 1381.38 3393 1390 3390.6 1382.62 3390.6 1358 3390.6 1358Z" fill="#FFFFFF" fill-rule="evenodd"/><path d="M3396.6 1288C3393 1297.54 3393 1310.65 3399 1319 3396.6 1311.85 3396.6 1288 3396.6 1288Z" fill="#FFFFFF" fill-rule="evenodd"/><path d="M3494 1384C3489.43 1392.68 3486 1405.08 3489.43 1415 3488.29 1407.56 3494 1384 3494 1384Z" fill="#FFFFFF" fill-rule="evenodd"/><path d="M3444 1099C3428.11 1099 3408.81 1106.33 3402 1110" fill="#FFFFFF" fill-rule="evenodd"/><path d="M3494 1119.22C3506.47 1118 3522.33 1128.94 3525.73 1142.31 3528 1155.68 3528 1179.99 3528 1212.81 3528 1245.63 3526.87 1255.35 3526.87 1259 3525.73 1246.84 3524.6 1183.64 3522.33 1164.19 3520.07 1143.53 3512.13 1121.65 3494 1119.22Z" fill="#ECD1BE" fill-rule="evenodd"/><path d="M3507.55 1123.42C3518.91 1129.47 3528 1146.42 3528 1213 3528 1180.32 3528 1156.11 3525.73 1142.79 3523.45 1134.32 3516.64 1127.05 3508.68 1123.42 3504.14 1121 3503 1121 3507.55 1123.42Z" fill="#FFFFFF" fill-rule="evenodd"/><path d="M3569.5 1113C3591.17 1113 3607.13 1130.02 3607.13 1162.84 3607.13 1200.52 3600.29 1264.94 3633.36 1329.36 3656.17 1363.39 3664.16 1373.11 3666.44 1399.86 3671 1432.67 3650.47 1464.28 3616.26 1469.14 3588.88 1474 3569.5 1455.77 3567.21 1432.67 3566.07 1422.95 3570.64 1410.79 3571.78 1409.58 3575.2 1403.5 3576.34 1396.21 3575.2 1388.92 3574.06 1375.55 3567.21 1367.04 3558.09 1362.18 3556.95 1362.18 3551.25 1359.74 3550.11 1351.24 3547.83 1339.08 3554.67 1326.93 3552.39 1308.69 3550.11 1288.03 3538.7 1278.31 3537.56 1275.88 3534.14 1269.8 3533 1256.43 3533 1251.57 3533 1162.84 3533 1162.84 3533 1162.84 3533 1130.02 3548.97 1113 3569.5 1113Z" stroke="#000000" stroke-width="2.29167" stroke-linecap="round" stroke-linejoin="round" stroke-miterlimit="10" fill="none" fill-rule="evenodd"/><path d="M3417.67 1458.94C3422.2 1471.08 3435.8 1482 3458.47 1478.36 3480 1475.93 3485.67 1452.87 3489.07 1435.88 3490.2 1427.38 3486.8 1420.1 3485.67 1418.88 3482.27 1411.6 3481.13 1403.1 3483.4 1394.61 3485.67 1383.68 3491.33 1376.4 3498.13 1371.54 3502.67 1369.12 3504.93 1365.47 3506.07 1358.19 3507.2 1349.69 3503.8 1342.41 3502.67 1339.98 3499.27 1332.7 3498.13 1322.99 3499.27 1314.49 3501.53 1302.36 3506.07 1296.29 3514 1289 3531 1272.01 3531 1251.38 3531 1239.24 3531 1162.77 3531 1162.77 3531 1162.77 3531 1129.99 3518.53 1113 3481.13 1113 3481.13 1113 3481.13 1113 3481.13 1113 3481.13 1113 3481.13 1113 3481.13 1113 3480 1113 3480 1113 3480 1113 3443.73 1113 3434.67 1131.21 3434.67 1163.98 3434.67 1189.47 3438.07 1196.75 3443.73 1205.25 3449.4 1211.32 3451.67 1219.82 3451.67 1229.53 3450.53 1238.02 3448.27 1245.31 3443.73 1251.38 3439.2 1255.02 3438.07 1259.87 3438.07 1265.94 3438.07 1272.01 3439.2 1275.65 3441.47 1280.51 3447.13 1287.79 3449.4 1298.71 3447.13 1310.85 3446 1320.56 3440.33 1327.85 3433.53 1331.49 3432.4 1332.7 3427.87 1336.34 3426.73 1341.2 3425.6 1346.05 3427.87 1355.76 3430.13 1358.19 3434.67 1364.26 3435.8 1376.4 3435.8 1384.89 3434.67 1394.61 3431.27 1403.1 3424.47 1409.17 3418.8 1416.45 3412 1441.94 3417.67 1458.94Z" stroke="#000000" stroke-width="2.29167" stroke-linecap="round" stroke-linejoin="round" stroke-miterlimit="10" fill="none" fill-rule="evenodd"/><path d="M3415.34 1208.91C3409.65 1212.55 3405.1 1219.84 3402.82 1228.33 3401.68 1236.83 3402.82 1244.12 3406.24 1251.4 3408.51 1256.26 3409.65 1261.11 3408.51 1264.76 3407.37 1268.4 3405.1 1270.83 3401.68 1273.25 3393.72 1279.32 3389.16 1287.82 3388.02 1298.75 3388.02 1308.46 3391.44 1316.96 3397.13 1323.03 3399.41 1326.67 3401.68 1330.31 3400.54 1336.38 3399.41 1340.03 3397.13 1343.67 3393.72 1346.1 3388.02 1349.74 3384.61 1355.81 3383.47 1364.31 3381.2 1372.81 3383.47 1386.16 3388.02 1393.44 3391.44 1400.73 3401.68 1427.44 3401.68 1449.29 3401.68 1469.93 3386.89 1476 3367.54 1476 3357.29 1476 3317.46 1472.36 3306.07 1425.01 3289 1359.45 3357.29 1261.11 3358.43 1238.05 3360.71 1208.91 3358.43 1201.63 3358.43 1163.99 3358.43 1130 3372.09 1113 3392.58 1113 3413.06 1113 3429 1130 3429 1162.78 3429 1183.41 3426.72 1197.98 3415.34 1208.91Z" stroke="#000000" stroke-width="2.29167" stroke-linecap="round" stroke-linejoin="round" stroke-miterlimit="10" fill="none" fill-rule="evenodd"/><path d="M3519 1113C3524.5 1121.75 3528.9 1134.25 3530 1148" stroke="#000000" stroke-width="2.29167" stroke-linecap="round" stroke-linejoin="round" stroke-miterlimit="10" fill="none" fill-rule="evenodd"/><path d="M3515 1105C3515 1105 3515 1106 3516 1106" stroke="#000000" stroke-width="2.29167" stroke-linecap="round" stroke-linejoin="round" stroke-miterlimit="10" fill="none" fill-rule="evenodd"/><path d="M3448 1110C3442.55 1119.81 3437.09 1132.06 3436 1148" stroke="#000000" stroke-width="2.29167" stroke-linecap="round" stroke-linejoin="round" stroke-miterlimit="10" fill="none" fill-rule="evenodd"/><path d="M3452 1105C3452 1105 3452 1105 3452 1105" stroke="#000000" stroke-width="2.29167" stroke-linecap="round" stroke-linejoin="round" stroke-miterlimit="10" fill="none" fill-rule="evenodd"/><path d="M3401.78 1449.76C3401.78 1427.87 3391.53 1401.11 3388.11 1393.82 3383.56 1386.52 3381.28 1373.14 3383.56 1364.63 3384.69 1356.12 3388.11 1350.04 3393.81 1346.39 3397.22 1343.96 3399.5 1340.31 3400.64 1336.66 3401.78 1330.58 3399.5 1326.93 3397.22 1323.28 3391.53 1317.2 3388.11 1308.69 3388.11 1298.96 3389.25 1288.01 3393.81 1279.5 3401.78 1273.42 3405.19 1270.99 3407.47 1268.56 3408.61 1264.91 3409.75 1261.26 3408.61 1256.39 3406.33 1251.53 3402.92 1244.23 3401.78 1236.94 3402.92 1228.42 3405.19 1219.91 3409.75 1212.61 3415.44 1208.96 3426.83 1198.02 3429.11 1183.43 3429.11 1162.75 3429.11 1129.92 3413.17 1112.89 3392.67 1112.89 3388.11 1112.89 3383.56 1114.11 3379 1116.54 3379 1115.32 3379 1115.32 3379 1115.32 3400.64 1103.16 3432.53 1091 3480.36 1091 3481.5 1091 3481.5 1091 3481.5 1091 3529.33 1091 3562.36 1103.16 3584 1115.32 3584 1115.32 3584 1115.32 3584 1115.32 3579.44 1114.11 3574.89 1112.89 3569.19 1112.89 3548.69 1112.89 3532.75 1129.92 3532.75 1162.75 3532.75 1251.53 3532.75 1251.53 3532.75 1251.53 3532.75 1256.39 3533.89 1269.77 3537.31 1275.85 3538.44 1278.28 3549.83 1288.01 3552.11 1308.69 3554.39 1326.93 3547.56 1339.09 3549.83 1351.25 3550.97 1359.76 3556.67 1362.2 3557.81 1362.2 3566.92 1367.06 3573.75 1375.57 3574.89 1388.95 3576.03 1396.25 3574.89 1403.55 3571.47 1409.63 3570.33 1410.84 3565.78 1423 3566.92 1432.73 3568.06 1444.89 3573.75 1455.84 3582.86 1461.92 3568.06 1458.27 3550.97 1453.41 3533.89 1453.41 3516.81 1453.41 3496.31 1458.27 3480.36 1463.14 3484.92 1454.62 3487.19 1444.89 3489.47 1436.38 3490.61 1427.87 3487.19 1420.57 3486.06 1419.35 3482.64 1412.06 3481.5 1403.55 3483.78 1395.03 3486.06 1384.09 3491.75 1376.79 3498.58 1371.93 3503.14 1369.49 3505.42 1365.85 3506.56 1358.55 3507.69 1350.04 3504.28 1342.74 3503.14 1340.31 3499.72 1333.01 3498.58 1323.28 3499.72 1314.77 3502 1302.61 3506.56 1296.53 3514.53 1289.23 3531.61 1272.2 3531.61 1251.53 3531.61 1239.37 3531.61 1162.75 3531.61 1162.75 3531.61 1162.75 3531.61 1129.92 3519.08 1112.89 3481.5 1112.89 3481.5 1112.89 3481.5 1112.89 3481.5 1112.89 3481.5 1112.89 3481.5 1112.89 3481.5 1112.89 3480.36 1112.89 3480.36 1112.89 3480.36 1112.89 3443.92 1112.89 3434.81 1131.13 3434.81 1163.97 3434.81 1189.51 3438.22 1196.8 3443.92 1205.32 3449.61 1211.4 3451.89 1219.91 3451.89 1229.64 3450.75 1238.15 3448.47 1245.45 3443.92 1251.53 3439.36 1255.18 3438.22 1260.04 3438.22 1266.12 3438.22 1272.2 3439.36 1275.85 3441.64 1280.72 3447.33 1288.01 3449.61 1298.96 3447.33 1311.12 3446.19 1320.85 3440.5 1328.15 3433.67 1331.79 3432.53 1333.01 3427.97 1336.66 3426.83 1341.52 3425.69 1346.39 3427.97 1356.12 3430.25 1358.55 3434.81 1364.63 3435.94 1376.79 3435.94 1385.3 3434.81 1395.03 3431.39 1403.55 3424.56 1409.63 3418.86 1416.92 3412.03 1442.46 3417.72 1459.49 3418.86 1463.14 3421.14 1465.57 3423.42 1468 3418.86 1466.78 3414.31 1465.57 3409.75 1465.57 3405.19 1465.57 3399.5 1466.78 3394.94 1468 3399.5 1464.35 3401.78 1458.27 3401.78 1449.76Z" stroke="#000000" stroke-width="2.29167" stroke-linecap="round" stroke-linejoin="round" stroke-miterlimit="10" fill="none" fill-rule="evenodd"/><path d="M3515 1357C3515 1358.5 3514 1358.5 3514 1360" stroke="#000000" stroke-width="2.29167" stroke-linecap="round" stroke-linejoin="round" stroke-miterlimit="10" fill="none" fill-rule="evenodd"/><path d="M3536 1354C3530.33 1353 3523.53 1354 3519 1355" stroke="#000000" stroke-width="2.29167" stroke-linecap="round" stroke-linejoin="round" stroke-miterlimit="10" fill="none" fill-rule="evenodd"/><path d="M3544 1356C3543 1356 3542 1355 3542 1355" stroke="#000000" stroke-width="2.29167" stroke-linecap="round" stroke-linejoin="round" stroke-miterlimit="10" fill="none" fill-rule="evenodd"/><path d="M3408 1340C3406.5 1340 3406.5 1340 3405 1340" stroke="#000000" stroke-width="2.29167" stroke-linecap="round" stroke-linejoin="round" stroke-miterlimit="10" fill="none" fill-rule="evenodd"/><path d="M3415 1341C3413.75 1341 3411.25 1340 3410 1340" stroke="#000000" stroke-width="2.29167" stroke-linecap="round" stroke-linejoin="round" stroke-miterlimit="10" fill="none" fill-rule="evenodd"/><path d="M3420 1345C3420 1345 3419 1345 3418 1344" stroke="#000000" stroke-width="2.29167" stroke-linecap="round" stroke-linejoin="round" stroke-miterlimit="10" fill="none" fill-rule="evenodd"/><path d="M3415 1267C3413.5 1267 3413.5 1267 3412 1267" stroke="#000000" stroke-width="2.29167" stroke-linecap="round" stroke-linejoin="round" stroke-miterlimit="10" fill="none" fill-rule="evenodd"/><path d="M3426 1267C3423.67 1266 3421.33 1266 3419 1266" stroke="#000000" stroke-width="2.29167" stroke-linecap="round" stroke-linejoin="round" stroke-miterlimit="10" fill="none" fill-rule="evenodd"/><path d="M3434 1271C3433 1269.5 3433 1269.5 3432 1268" stroke="#000000" stroke-width="2.29167" stroke-linecap="round" stroke-linejoin="round" stroke-miterlimit="10" fill="none" fill-rule="evenodd"/><path d="M3501 1423C3500 1424 3499 1425 3498 1425" stroke="#000000" stroke-width="2.29167" stroke-linecap="round" stroke-linejoin="round" stroke-miterlimit="10" fill="none" fill-rule="evenodd"/><path d="M3551 1417C3540.88 1415 3520.62 1416 3506 1421" stroke="#000000" stroke-width="2.29167" stroke-linecap="round" stroke-linejoin="round" stroke-miterlimit="10" fill="none" fill-rule="evenodd"/><path d="M3559 1421C3558 1420 3557 1419 3556 1419" stroke="#000000" stroke-width="2.29167" stroke-linecap="round" stroke-linejoin="round" stroke-miterlimit="10" fill="none" fill-rule="evenodd"/></g></svg>