<svg width="322" height="395" xmlns="http://www.w3.org/2000/svg" xmlns:xlink="http://www.w3.org/1999/xlink" xml:space="preserve" overflow="hidden"><g transform="translate(-2955 -1090)"><path d="M3069.79 1414.08C3069.79 1387.22 3075.04 1343.56 3056.15 1325.65 3050.91 1320.06 3047.76 1315.58 3045.66 1304.39 3043.56 1295.43 3045.66 1285.36 3049.86 1278.64 3054.05 1273.05 3053 1269.69 3051.95 1265.21 3050.91 1260.73 3048.81 1257.38 3044.61 1256.26 3035.16 1254.02 3030.97 1239.47 3029.92 1232.75 3027.82 1224.91 3028.87 1212.6 3033.06 1205.89 3036.21 1200.29 3038.31 1194.69 3037.26 1190.22 3035.16 1184.62 3032.02 1183.5 3027.82 1181.26 3024.67 1177.9 3020.47 1174.55 3016.27 1170.07 3004.73 1155.52 2993.19 1135.37 2992.14 1134.25 2983.74 1127.53 2976.4 1124.18 2968 1130.89 2968 1129.77 2968 1129.77 2968 1129.77 2996.33 1107.39 3068.75 1085 3130.66 1092.84 3131.71 1092.84 3131.71 1092.84 3131.71 1092.84 3193.63 1099.55 3229.31 1127.53 3244 1144.32 3244 1144.32 3244 1144.32 3244 1144.32 3238.75 1137.61 3231.41 1134.25 3223.01 1133.13 3204.12 1129.77 3188.38 1142.09 3185.23 1173.43 3178.94 1221.56 3178.94 1221.56 3178.94 1221.56 3177.89 1228.27 3173.69 1254.02 3179.98 1258.49 3181.03 1258.49 3181.03 1259.61 3182.08 1259.61 3189.43 1265.21 3194.68 1275.28 3194.68 1286.48 3194.68 1297.67 3189.43 1307.74 3182.08 1313.34 3181.03 1313.34 3177.89 1315.58 3177.89 1316.7 3176.84 1318.94 3175.79 1322.3 3175.79 1324.53 3175.79 1329.01 3176.84 1332.37 3178.94 1334.61 3178.94 1334.61 3181.03 1335.73 3182.08 1335.73 3189.43 1341.32 3194.68 1351.4 3194.68 1362.59 3194.68 1374.9 3188.38 1384.98 3181.03 1390.57 3176.84 1392.81 3175.79 1397.29 3175.79 1399.53 3173.69 1425.27 3168.44 1466.69 3187.33 1479 3187.33 1479 3187.33 1479 3187.33 1479 3181.03 1476.76 3172.64 1474.52 3165.29 1474.52 3159 1474.52 3150.6 1476.76 3145.35 1479 3150.6 1475.64 3154.8 1470.05 3157.95 1462.21 3165.29 1445.42 3164.24 1415.2 3164.24 1399.53 3164.24 1397.29 3163.19 1392.81 3159 1390.57 3150.6 1384.98 3145.35 1374.9 3145.35 1362.59 3145.35 1351.4 3150.6 1341.32 3157.95 1335.73 3157.95 1335.73 3160.05 1334.61 3161.1 1334.61 3162.14 1332.37 3163.19 1329.01 3163.19 1324.53 3163.19 1322.3 3163.19 1318.94 3162.14 1316.7 3161.1 1315.58 3157.95 1313.34 3157.95 1313.34 3150.6 1307.74 3145.35 1297.67 3145.35 1286.48 3145.35 1275.28 3150.6 1265.21 3157.95 1259.61 3157.95 1259.61 3159 1258.49 3159 1258.49 3169.49 1249.54 3170.54 1239.47 3170.54 1232.75 3169.49 1183.5 3169.49 1183.5 3169.49 1183.5 3169.49 1172.31 3168.44 1157.76 3166.34 1144.32 3164.24 1130.89 3157.95 1118.58 3144.3 1111.86 3121.22 1099.55 3096.03 1110.74 3090.78 1112.98 3085.54 1116.34 3085.54 1123.06 3090.78 1126.41 3098.13 1132.01 3100.23 1142.09 3100.23 1153.28 3100.23 1165.59 3097.08 1175.66 3089.73 1180.14 3088.68 1181.26 3086.59 1182.38 3085.54 1184.62 3084.49 1185.74 3083.44 1189.1 3083.44 1191.34 3083.44 1195.81 3084.49 1200.29 3086.59 1201.41 3086.59 1201.41 3088.68 1202.53 3089.73 1203.65 3097.08 1209.24 3099.18 1222.68 3099.18 1229.39 3099.18 1237.23 3097.08 1252.9 3088.68 1257.38 3084.49 1259.61 3083.44 1264.09 3083.44 1266.33 3083.44 1271.93 3082.39 1276.4 3087.64 1279.76 3093.93 1285.36 3097.08 1294.31 3097.08 1304.39 3097.08 1313.34 3093.93 1322.3 3088.68 1327.89 3071.89 1341.32 3078.19 1387.22 3078.19 1414.08 3078.19 1434.23 3079.24 1457.73 3091.83 1472.28 3085.54 1470.05 3078.19 1467.81 3069.79 1466.69 3061.4 1466.69 3055.1 1467.81 3047.76 1470.05 3047.76 1470.05 3047.76 1470.05 3047.76 1470.05 3065.6 1458.85 3069.79 1436.47 3069.79 1414.08Z" fill="#BA582E" fill-rule="evenodd"/><path d="M3223.57 1133.36C3242.45 1135.6 3257.13 1153.54 3252.93 1183.81 3248.74 1217.44 3242.45 1234.25 3237.2 1254.43 3233.01 1275.73 3235.11 1316.09 3252.93 1351.96 3268.66 1385.59 3276 1395.68 3276 1420.34 3276 1451.73 3230.91 1482 3199.46 1482 3168 1482 3174.29 1430.43 3176.39 1400.17 3176.39 1397.92 3177.44 1393.44 3181.63 1391.2 3188.97 1385.59 3195.26 1375.5 3195.26 1363.17 3195.26 1351.96 3190.02 1341.87 3182.68 1336.27 3181.63 1336.27 3179.53 1335.15 3179.53 1335.15 3177.44 1332.9 3176.39 1329.54 3176.39 1325.06 3176.39 1322.82 3177.44 1319.45 3178.49 1317.21 3178.49 1316.09 3181.63 1313.85 3182.68 1313.85 3190.02 1308.24 3195.26 1298.15 3195.26 1286.94 3195.26 1275.73 3190.02 1265.64 3182.68 1260.04 3181.63 1260.04 3181.63 1258.92 3180.58 1258.92 3174.29 1254.43 3178.49 1228.65 3179.53 1221.92 3185.83 1173.72 3185.83 1173.72 3185.83 1173.72 3188.97 1142.33 3204.7 1130 3223.57 1133.36Z" fill="#D59973" fill-rule="evenodd"/><path d="M3122.55 1484C3122.55 1484 3122.55 1484 3122.55 1484 3081.48 1484 3078.32 1445.94 3078.32 1414.59 3078.32 1387.72 3072 1341.82 3088.85 1328.38 3094.12 1322.79 3097.28 1313.83 3097.28 1304.87 3097.28 1294.8 3094.12 1285.84 3087.8 1280.24 3082.53 1276.89 3083.59 1272.41 3083.59 1266.81 3083.59 1264.57 3084.64 1260.09 3088.85 1257.85 3097.28 1253.38 3099.38 1237.7 3099.38 1229.87 3099.38 1223.15 3097.28 1209.71 3089.9 1204.12 3088.85 1203 3086.74 1201.88 3086.74 1201.88 3084.64 1200.76 3083.59 1196.28 3083.59 1191.8 3083.59 1189.56 3084.64 1186.2 3085.69 1185.08 3086.74 1182.85 3088.85 1181.73 3089.9 1180.61 3097.28 1176.13 3100.44 1166.05 3100.44 1153.74 3100.44 1142.54 3098.33 1132.47 3090.96 1126.87 3085.69 1123.51 3085.69 1116.79 3090.96 1113.43 3096.22 1111.2 3121.5 1100 3144.67 1112.31 3158.36 1119.03 3164.68 1131.35 3166.79 1144.78 3168.89 1158.22 3169.95 1172.77 3169.95 1183.96 3171 1233.22 3171 1233.22 3171 1233.22 3171 1239.94 3169.95 1250.02 3159.41 1258.97 3159.41 1258.97 3158.36 1260.09 3158.36 1260.09 3150.99 1265.69 3145.72 1275.77 3145.72 1286.96 3145.72 1298.16 3150.99 1308.23 3158.36 1313.83 3158.36 1313.83 3161.52 1316.07 3162.57 1317.19 3163.63 1319.43 3163.63 1322.79 3163.63 1325.03 3163.63 1329.5 3162.57 1332.86 3161.52 1335.1 3160.47 1335.1 3158.36 1336.22 3158.36 1336.22 3150.99 1341.82 3145.72 1351.9 3145.72 1363.09 3145.72 1375.41 3150.99 1385.48 3159.41 1391.08 3163.63 1393.32 3164.68 1397.8 3164.68 1400.03 3164.68 1415.71 3165.73 1445.94 3158.36 1462.73 3152.04 1479.52 3138.35 1484 3123.61 1484" fill="#D59973" fill-rule="evenodd"/><path d="M2956 1173.07C2956 1155.18 2959.13 1141.77 2967.48 1132.82 2975.83 1125 2984.18 1127.24 2992.54 1135.06 2993.58 1136.18 3005.06 1156.3 3016.54 1170.83 3020.72 1175.3 3024.89 1178.66 3028.03 1182.01 3032.2 1184.25 3035.33 1185.36 3037.42 1190.95 3038.46 1195.42 3036.38 1201.01 3033.25 1206.6 3029.07 1213.31 3028.03 1225.61 3030.11 1233.43 3031.16 1240.14 3035.33 1254.67 3044.73 1256.9 3048.9 1258.02 3050.99 1261.38 3052.04 1265.85 3053.08 1270.32 3054.12 1273.67 3049.95 1279.26 3045.77 1285.97 3043.68 1296.03 3045.77 1304.97 3047.86 1316.15 3050.99 1320.62 3056.21 1326.21 3075 1344.1 3069.78 1387.69 3069.78 1414.52 3069.78 1445.82 3061.43 1476 3021.76 1476 3021.76 1476 3021.76 1476 3021.76 1476 2981.05 1476 2967.48 1431.29 2967.48 1385.46 2967.48 1340.74 2996.71 1297.15 2984.18 1270.32 2970.61 1241.25 2956 1217.78 2956 1173.07Z" fill="#D59973" fill-rule="evenodd"/><path d="M2992.68 1140.22C2995.8 1145.83 2999.97 1152.56 3009.35 1166.02 3018.73 1179.49 3029.15 1186.22 3033.32 1189.59 3037.49 1191.83 3035.41 1197.44 3033.32 1203.05 3033.32 1203.05 3032.28 1204.17 3032.28 1205.29 3032.28 1205.29 3029.15 1210.9 3028.11 1215.39 3027.07 1218.76 3027.07 1222.12 3027.07 1226.61 3027.07 1238.95 3033.32 1253.54 3040.62 1258.02 3046.87 1261.39 3048.96 1261.39 3050 1267 3047.92 1262.51 3041.66 1262.51 3038.54 1260.27 3028.11 1253.54 3022.9 1245.68 3022.9 1228.85 3023.94 1210.9 3030.2 1206.41 3032.28 1196.32 3032.28 1189.59 3027.07 1191.83 3017.69 1181.73 3008.31 1171.63 2997.89 1158.17 2992.68 1146.95 2987.46 1135.73 2984.34 1132.37 2976 1130.12 2981.21 1129 2989.55 1134.61 2992.68 1140.22Z" fill="#ECD1BE" fill-rule="evenodd"/><path d="M3271.83 1419C3275 1394.33 3263.38 1384.23 3247.53 1348.35 3229.57 1309.1 3228.51 1277.7 3233.79 1257.51 3238.02 1236.2 3244.36 1217.14 3248.58 1182.37 3250.7 1161.06 3244.36 1148.73 3233.79 1142 3245.41 1147.61 3243.3 1167.79 3241.19 1189.1 3236.96 1217.14 3223.23 1239.57 3221.11 1269.85 3219 1300.13 3233.79 1330.4 3241.19 1347.23 3248.58 1364.05 3272.89 1395.45 3271.83 1419Z" fill="#ECD1BE" fill-rule="evenodd"/><path d="M3248 1350C3229 1308.81 3229 1277.63 3234 1257.59 3238 1236.44 3244 1217.51 3248 1183 3244 1203.04 3235 1237.55 3230 1256.48 3226 1276.52 3226 1309.92 3248 1350Z" fill="#FFFFFF" fill-rule="evenodd"/><path d="M3145.62 1116.08C3159.48 1123.92 3164.8 1142.97 3166.93 1163.13 3168 1183.3 3168 1230.34 3168 1230.34 3168 1237.07 3168 1248.27 3155.21 1258.35 3154.15 1259.47 3154.15 1259.47 3154.15 1259.47 3153.08 1259.47 3153.08 1259.47 3153.08 1259.47 3146.69 1263.95 3142.43 1278.51 3142.43 1287.48 3142.43 1296.44 3144.56 1306.52 3148.82 1311 3148.82 1309.88 3148.82 1309.88 3148.82 1309.88 3142.43 1303.16 3138.16 1291.96 3138.16 1282.99 3138.16 1269.55 3140.3 1258.35 3149.89 1251.63 3148.82 1252.75 3148.82 1252.75 3148.82 1252.75 3150.95 1250.51 3150.95 1250.51 3150.95 1250.51 3159.48 1243.79 3164.8 1241.55 3164.8 1226.98 3160.54 1164.25 3160.54 1164.25 3160.54 1164.25 3160.54 1129.52 3144.56 1120.56 3145.62 1120.56 3138.16 1116.08 3122.18 1106 3103 1111.6 3103 1111.6 3103 1111.6 3103 1111.6 3124.31 1106 3139.23 1111.6 3145.62 1116.08Z" fill="#ECD1BE" fill-rule="evenodd"/><path d="M3148 1345.12C3145 1348.48 3143 1357.43 3143 1364.15 3143 1375.34 3148 1387.66 3154 1391.02 3160 1394.37 3161 1402.21 3161 1404.45 3161 1419 3161 1414.52 3160 1406.69 3160 1402.21 3155 1397.73 3153 1396.61 3144 1391.02 3140 1380.94 3140 1367.51 3140 1357.43 3144 1350.72 3148 1344L3148 1345.12Z" fill="#ECD1BE" fill-rule="evenodd"/><path d="M3158 1255C3151.68 1259.51 3138 1273.05 3143.26 1299 3138 1285.46 3139.05 1261.77 3158 1255Z" fill="#FFFFFF" fill-rule="evenodd"/><path d="M3143.39 1355C3141.28 1361.71 3140.22 1378.47 3155 1393 3145.5 1386.29 3136 1376.24 3143.39 1355Z" fill="#FFFFFF" fill-rule="evenodd"/><path d="M3028 1216C3026 1222.81 3024 1242.11 3040 1258 3030 1251.19 3021 1238.7 3028 1216Z" fill="#FFFFFF" fill-rule="evenodd"/><path d="M3051.43 1332.86C3042.11 1327.27 3039 1319.43 3039 1303.75 3039 1292.56 3043.14 1284.72 3048.32 1278 3048.32 1278 3048.32 1278 3048.32 1278 3044.18 1283.6 3042.11 1292.56 3042.11 1300.39 3042.11 1312.71 3047.29 1322.79 3054.54 1327.27 3057.64 1330.62 3062.82 1337.34 3063.86 1341.82 3065.93 1353.02 3068 1366.45 3066.96 1409 3065.93 1389.97 3066.96 1345.18 3051.43 1332.86Z" fill="#ECD1BE" fill-rule="evenodd"/><path d="M3043.74 1287C3041.53 1294.74 3039.32 1313.53 3057 1329 3045.95 1322.37 3036 1310.21 3043.74 1287Z" fill="#FFFFFF" fill-rule="evenodd"/><path d="M3191.61 1344C3194.74 1348.49 3197.87 1357.48 3197.87 1364.22 3197.87 1375.46 3191.61 1386.69 3185.35 1391.19 3179.09 1394.56 3179.09 1401.3 3178.04 1403.54 3178.04 1418.15 3177 1424.89 3177 1435 3178.04 1435 3178.04 1435 3178.04 1435 3177 1426.01 3179.09 1414.78 3181.17 1406.91 3181.17 1402.42 3184.3 1397.93 3186.39 1396.8 3195.78 1391.19 3201 1381.07 3201 1366.47 3201 1357.48 3196.83 1349.62 3191.61 1344Z" fill="#ECD1BE" fill-rule="evenodd"/><path d="M3191.57 1268C3194.71 1272.45 3197.86 1280.25 3197.86 1288.04 3197.86 1298.06 3191.57 1310.3 3185.29 1314.75 3179 1318.09 3179 1323.66 3179 1325.89 3180.05 1327 3179 1327 3179 1325.89 3180.05 1321.43 3184.24 1318.09 3186.33 1316.98 3195.76 1311.42 3201 1304.74 3201 1290.26 3201 1281.36 3196.81 1273.57 3191.57 1268Z" fill="#ECD1BE" fill-rule="evenodd"/><path d="M3095.59 1286C3098.73 1290.42 3100.82 1298.16 3100.82 1305.89 3100.82 1315.84 3095.59 1328 3089.32 1332.42 3085.14 1334.63 3082 1345.68 3082 1347.89 3083.05 1349 3083.05 1349 3083.05 1347.89 3083.05 1343.47 3087.23 1336.84 3091.41 1334.63 3100.82 1329.11 3105 1322.47 3105 1308.11 3105 1299.26 3100.82 1291.53 3095.59 1286Z" fill="#ECD1BE" fill-rule="evenodd"/><path d="M3097.55 1208C3100.7 1212.49 3103.85 1224.84 3103.85 1231.58 3103.85 1242.81 3098.6 1255.16 3092.3 1259.65 3086 1263.02 3086 1268.63 3086 1270.88 3087.05 1272 3087.05 1272 3087.05 1270.88 3087.05 1266.39 3090.2 1263.02 3092.3 1261.89 3101.75 1256.28 3107 1248.42 3107 1234.95 3107 1224.84 3102.8 1213.61 3097.55 1208Z" fill="#ECD1BE" fill-rule="evenodd"/><path d="M3098.57 1131C3101.71 1135.49 3104.86 1147.84 3104.86 1155.7 3104.86 1165.81 3099.62 1178.16 3093.33 1182.65 3086 1186.02 3087.05 1191.63 3087.05 1193.88 3087.05 1195 3087.05 1195 3087.05 1193.88 3087.05 1189.39 3091.24 1186.02 3093.33 1184.89 3102.76 1179.28 3108 1172.54 3108 1157.95 3108 1148.96 3103.81 1136.61 3098.57 1131Z" fill="#ECD1BE" fill-rule="evenodd"/><path d="M3034 1471C3031.89 1471 3028.71 1471 3026.6 1471 3026.6 1471 3026.6 1471 3026.6 1471 2986.43 1471 2972.69 1430.69 2972.69 1384.77 2972.69 1339.98 3001.23 1296.3 2988.54 1269.43 2974.8 1241.43 2961.06 1216.79 2960 1172 2962.11 1192.16 2972.69 1223.51 2986.43 1248.15 3000.17 1271.67 3005.46 1283.98 3002.29 1300.78 3000.17 1317.58 2977.97 1367.97 2987.49 1409.41 2998.06 1449.72 3010.74 1467.64 3034 1471Z" fill="#C36E35" fill-rule="evenodd"/><path d="M2996.73 1460C2978.6 1445.48 2972.2 1416.44 2972.2 1384.05 2972.2 1339.37 3001 1295.81 2988.2 1269 2993.53 1277.94 2996.73 1289.11 2991.4 1311.44 2986.07 1334.9 2969 1382.93 2979.67 1420.91 2986.07 1442.13 2989.27 1449.95 2996.73 1460Z" fill="#BA582E" fill-rule="evenodd"/><path d="M3087.29 1428.79C3090.43 1457.74 3111.38 1478.89 3125 1480 3087.29 1480 3083.1 1441.04 3082.05 1423.23 3081 1405.41 3082.05 1376.47 3082.05 1362 3082.05 1362 3084.14 1399.85 3087.29 1428.79Z" fill="#C36E35" fill-rule="evenodd"/><path d="M3266 1442.33C3257.52 1455.67 3221.5 1475.67 3201.37 1477.89 3180.18 1479 3178.06 1453.44 3177 1439 3179.12 1450.11 3185.48 1472.33 3204.55 1470.11 3222.56 1467.89 3257.52 1450.11 3266 1442.33Z" fill="#C36E35" fill-rule="evenodd"/><path d="M3146 1479C3151.18 1476.76 3159.47 1474.53 3165.69 1474.53 3172.95 1474.53 3181.24 1476.76 3187.45 1479 3187.45 1479 3187.45 1479 3187.45 1479 3168.8 1466.71 3173.98 1425.35 3176.05 1399.65 3176.05 1397.41 3177.09 1392.94 3181.24 1390.71 3188.49 1385.12 3194.71 1375.06 3194.71 1362.76 3194.71 1351.59 3189.53 1341.53 3182.27 1335.94 3181.24 1335.94 3179.16 1334.82 3179.16 1334.82 3177.09 1332.59 3176.05 1329.24 3176.05 1324.76 3176.05 1322.53 3177.09 1319.18 3178.13 1316.94 3178.13 1315.82 3181.24 1313.59 3182.27 1313.59 3189.53 1308 3194.71 1297.94 3194.71 1286.76 3194.71 1275.59 3189.53 1265.53 3182.27 1259.94 3181.24 1259.94 3181.24 1258.82 3180.2 1258.82 3173.98 1254.35 3178.13 1228.65 3179.16 1221.94 3185.38 1173.88 3185.38 1173.88 3185.38 1173.88 3186.42 1154.88 3193.67 1142.59 3203 1137 3198.85 1138.12 3195.75 1137 3190.56 1132.53 3182.27 1126.94 3171.91 1118 3160.51 1121.35 3159.47 1121.35 3158.44 1122.47 3158.44 1123.59 3162.58 1129.18 3165.69 1137 3166.73 1144.82 3168.8 1158.24 3169.84 1172.76 3169.84 1183.94 3170.87 1233.12 3170.87 1233.12 3170.87 1233.12 3170.87 1239.82 3169.84 1249.88 3159.47 1258.82 3159.47 1258.82 3158.44 1259.94 3158.44 1259.94 3151.18 1265.53 3146 1275.59 3146 1286.76 3146 1297.94 3151.18 1308 3158.44 1313.59 3158.44 1313.59 3158.44 1313.59 3158.44 1313.59 3156.36 1309.12 3150.15 1294.59 3151.18 1283.41 3153.25 1268.88 3166.73 1261.06 3175.02 1271.12 3183.31 1280.06 3186.42 1291.24 3178.13 1300.18 3169.84 1310.24 3169.84 1312.47 3169.84 1327 3169.84 1342.65 3173.98 1340.41 3179.16 1351.59 3184.35 1362.76 3181.24 1375.06 3173.98 1381.76 3169.84 1385.12 3166.73 1390.71 3164.65 1398.53 3164.65 1398.53 3164.65 1398.53 3164.65 1399.65 3164.65 1415.29 3165.69 1445.47 3158.44 1462.24 3155.33 1470.06 3151.18 1475.65 3146 1479Z" fill="#8F381B" fill-rule="evenodd"/><path d="M3159 1389.74C3160 1390.87 3160 1390.87 3161 1392 3160 1392 3160 1390.87 3159 1390.87 3151 1385.23 3146 1375.08 3146 1362.68 3146 1353.66 3149 1344.64 3155 1339 3155 1339 3155 1339 3155 1339 3150 1348.02 3148 1373.96 3159 1389.74Z" fill="#8F381B" fill-rule="evenodd"/><path d="M3058 1325.74C3058 1325.74 3059 1326.87 3059 1328 3058 1326.87 3058 1326.87 3057 1326.87 3049 1321.23 3044 1311.09 3044 1298.68 3044 1288.53 3047 1280.64 3053 1275 3053 1275 3053 1275 3053 1275 3049 1282.89 3046 1309.96 3058 1325.74Z" fill="#8F381B" fill-rule="evenodd"/><path d="M3153 1278C3151 1286.96 3151 1298.16 3155 1306 3154 1300.4 3153 1278 3153 1278Z" fill="#FFFFFF" fill-rule="evenodd"/><path d="M3035 1217C3035 1226 3036.14 1238.38 3043 1244 3040.71 1238.38 3035 1217 3035 1217Z" fill="#FFFFFF" fill-rule="evenodd"/><path d="M3153 1349C3151 1357.92 3150 1370.19 3155 1378 3153 1371.31 3153 1349 3153 1349Z" fill="#FFFFFF" fill-rule="evenodd"/><path d="M3052 1287C3050 1295.96 3049 1307.16 3054 1315 3052 1309.4 3052 1287 3052 1287Z" fill="#FFFFFF" fill-rule="evenodd"/><path d="M3002.53 1129.73C2999.35 1130.85 2996.18 1131.96 2993 1133.08 3011 1123.02 3043.82 1109.59 3074.53 1117.42 3078.76 1118.54 3090.41 1104 3093.59 1104 3094.65 1104 3093.59 1108.47 3091.47 1112.95 3091.47 1112.95 3091.47 1112.95 3091.47 1112.95 3086.18 1116.3 3086.18 1123.02 3091.47 1126.37 3098.88 1131.96 3101 1142.03 3101 1153.22 3101 1165.52 3097.82 1175.59 3090.41 1180.06 3089.35 1181.18 3087.24 1182.3 3086.18 1184.54 3085.12 1185.65 3084.06 1189.01 3084.06 1191.25 3084.06 1195.72 3085.12 1200.19 3087.24 1201.31 3087.24 1201.31 3089.35 1202.43 3090.41 1203.55 3097.82 1209.14 3099.94 1222.57 3099.94 1229.28 3099.94 1237.11 3097.82 1252.77 3089.35 1257.24 3085.12 1259.48 3084.06 1263.95 3084.06 1266.19 3084.06 1271.78 3083 1276.26 3088.29 1279.61 3094.65 1285.2 3097.82 1294.15 3097.82 1304.22 3097.82 1313.17 3094.65 1322.12 3089.35 1327.71 3072.41 1341.13 3078.76 1386.99 3078.76 1413.84 3078.76 1433.97 3079.82 1457.46 3092.53 1472 3086.18 1469.76 3078.76 1467.53 3070.29 1466.41 3061.82 1466.41 3055.47 1467.53 3048.06 1469.76 3048.06 1469.76 3048.06 1469.76 3048.06 1469.76 3066.06 1458.58 3070.29 1436.21 3070.29 1413.84 3070.29 1393.7 3073.47 1363.5 3067.12 1342.25 3067.12 1342.25 3067.12 1341.13 3066.06 1341.13 3065 1333.3 3072.41 1327.71 3078.76 1316.52 3085.12 1306.46 3086.18 1297.51 3078.76 1289.68 3072.41 1280.73 3073.47 1278.49 3073.47 1267.31 3073.47 1256.12 3077.71 1252.77 3081.94 1243.82 3086.18 1234.87 3091.47 1220.33 3081.94 1214.74 3072.41 1209.14 3075.59 1202.43 3073.47 1193.48 3071.35 1183.42 3079.82 1175.59 3083 1168.88 3087.24 1162.16 3086.18 1142.03 3079.82 1135.32 3075.59 1130.85 3072.41 1119.66 3048.06 1121.9 3023.71 1124.13 3012.06 1143.15 3017.35 1153.22 3022.65 1164.4 3040.65 1175.59 3040.65 1189.01 3040.65 1203.55 3030.06 1213.62 3038.53 1235.99 3042.76 1247.17 3047 1253.88 3049.12 1258.36 3048.06 1257.24 3047 1257.24 3044.88 1256.12 3035.35 1253.88 3031.12 1239.34 3030.06 1232.63 3027.94 1224.8 3029 1212.5 3033.24 1205.79 3036.41 1200.19 3038.53 1194.6 3037.47 1190.13 3035.35 1184.54 3032.18 1183.42 3027.94 1181.18 3024.76 1177.82 3020.53 1174.47 3016.29 1169.99 3005.71 1157.69 2996.18 1140.91 2993 1135.32 2995.12 1134.2 2998.29 1131.96 3002.53 1129.73Z" fill="#8F381B" fill-rule="evenodd"/><path d="M3028 1129C3019.62 1132.36 3006 1146.94 3025.9 1166 3019.62 1153.67 3012.29 1142.45 3028 1129Z" fill="#FFFFFF" fill-rule="evenodd"/><path d="M3058 1100C3043.24 1100 3025.32 1106.67 3019 1110" fill="#FFFFFF" fill-rule="evenodd"/><path d="M3069.79 1414.08C3069.79 1387.22 3075.04 1343.56 3056.15 1325.65 3050.91 1320.06 3047.76 1315.58 3045.66 1304.39 3043.56 1295.43 3045.66 1285.36 3049.86 1278.64 3054.05 1273.05 3053 1269.69 3051.95 1265.21 3050.91 1260.73 3048.81 1257.38 3044.61 1256.26 3035.16 1254.02 3030.97 1239.47 3029.92 1232.75 3027.82 1224.91 3028.87 1212.6 3033.06 1205.89 3036.21 1200.29 3038.31 1194.69 3037.26 1190.22 3035.16 1184.62 3032.02 1183.5 3027.82 1181.26 3024.67 1177.9 3020.47 1174.55 3016.27 1170.07 3004.73 1155.52 2993.19 1135.37 2992.14 1134.25 2983.74 1127.53 2976.4 1124.18 2968 1130.89 2968 1129.77 2968 1129.77 2968 1129.77 2996.33 1107.39 3068.75 1085 3130.66 1092.84 3131.71 1092.84 3131.71 1092.84 3131.71 1092.84 3193.63 1099.55 3229.31 1127.53 3244 1144.32 3244 1144.32 3244 1144.32 3244 1144.32 3238.75 1137.61 3231.41 1134.25 3223.01 1133.13 3204.12 1129.77 3188.38 1142.09 3185.23 1173.43 3178.94 1221.56 3178.94 1221.56 3178.94 1221.56 3177.89 1228.27 3173.69 1254.02 3179.98 1258.49 3181.03 1258.49 3181.03 1259.61 3182.08 1259.61 3189.43 1265.21 3194.68 1275.28 3194.68 1286.48 3194.68 1297.67 3189.43 1307.74 3182.08 1313.34 3181.03 1313.34 3177.89 1315.58 3177.89 1316.7 3176.84 1318.94 3175.79 1322.3 3175.79 1324.53 3175.79 1329.01 3176.84 1332.37 3178.94 1334.61 3178.94 1334.61 3181.03 1335.73 3182.08 1335.73 3189.43 1341.32 3194.68 1351.4 3194.68 1362.59 3194.68 1374.9 3188.38 1384.98 3181.03 1390.57 3176.84 1392.81 3175.79 1397.29 3175.79 1399.53 3173.69 1425.27 3168.44 1466.69 3187.33 1479 3187.33 1479 3187.33 1479 3187.33 1479 3181.03 1476.76 3172.64 1474.52 3165.29 1474.52 3159 1474.52 3150.6 1476.76 3145.35 1479 3150.6 1475.64 3154.8 1470.05 3157.95 1462.21 3165.29 1445.42 3164.24 1415.2 3164.24 1399.53 3164.24 1397.29 3163.19 1392.81 3159 1390.57 3150.6 1384.98 3145.35 1374.9 3145.35 1362.59 3145.35 1351.4 3150.6 1341.32 3157.95 1335.73 3157.95 1335.73 3160.05 1334.61 3161.1 1334.61 3162.14 1332.37 3163.19 1329.01 3163.19 1324.53 3163.19 1322.3 3163.19 1318.94 3162.14 1316.7 3161.1 1315.58 3157.95 1313.34 3157.95 1313.34 3150.6 1307.74 3145.35 1297.67 3145.35 1286.48 3145.35 1275.28 3150.6 1265.21 3157.95 1259.61 3157.95 1259.61 3159 1258.49 3159 1258.49 3169.49 1249.54 3170.54 1239.47 3170.54 1232.75 3169.49 1183.5 3169.49 1183.5 3169.49 1183.5 3169.49 1172.31 3168.44 1157.76 3166.34 1144.32 3164.24 1130.89 3157.95 1118.58 3144.3 1111.86 3121.22 1099.55 3096.03 1110.74 3090.78 1112.98 3085.54 1116.34 3085.54 1123.06 3090.78 1126.41 3098.13 1132.01 3100.23 1142.09 3100.23 1153.28 3100.23 1165.59 3097.08 1175.66 3089.73 1180.14 3088.68 1181.26 3086.59 1182.38 3085.54 1184.62 3084.49 1185.74 3083.44 1189.1 3083.44 1191.34 3083.44 1195.81 3084.49 1200.29 3086.59 1201.41 3086.59 1201.41 3088.68 1202.53 3089.73 1203.65 3097.08 1209.24 3099.18 1222.68 3099.18 1229.39 3099.18 1237.23 3097.08 1252.9 3088.68 1257.38 3084.49 1259.61 3083.44 1264.09 3083.44 1266.33 3083.44 1271.93 3082.39 1276.4 3087.64 1279.76 3093.93 1285.36 3097.08 1294.31 3097.08 1304.39 3097.08 1313.34 3093.93 1322.3 3088.68 1327.89 3071.89 1341.32 3078.19 1387.22 3078.19 1414.08 3078.19 1434.23 3079.24 1457.73 3091.83 1472.28 3085.54 1470.05 3078.19 1467.81 3069.79 1466.69 3061.4 1466.69 3055.1 1467.81 3047.76 1470.05 3047.76 1470.05 3047.76 1470.05 3047.76 1470.05 3065.6 1458.85 3069.79 1436.47 3069.79 1414.08Z" stroke="#000000" stroke-width="1.71893" stroke-linecap="round" stroke-linejoin="round" stroke-miterlimit="10" fill="none" fill-rule="evenodd"/><path d="M3223.57 1133.36C3242.45 1135.6 3257.13 1153.54 3252.93 1183.81 3248.74 1217.44 3242.45 1234.25 3237.2 1254.43 3233.01 1275.73 3235.11 1316.09 3252.93 1351.96 3268.66 1385.59 3276 1395.68 3276 1420.34 3276 1451.73 3230.91 1482 3199.46 1482 3168 1482 3174.29 1430.43 3176.39 1400.17 3176.39 1397.92 3177.44 1393.44 3181.63 1391.2 3188.97 1385.59 3195.26 1375.5 3195.26 1363.17 3195.26 1351.96 3190.02 1341.87 3182.68 1336.27 3181.63 1336.27 3179.53 1335.15 3179.53 1335.15 3177.44 1332.9 3176.39 1329.54 3176.39 1325.06 3176.39 1322.82 3177.44 1319.45 3178.49 1317.21 3178.49 1316.09 3181.63 1313.85 3182.68 1313.85 3190.02 1308.24 3195.26 1298.15 3195.26 1286.94 3195.26 1275.73 3190.02 1265.64 3182.68 1260.04 3181.63 1260.04 3181.63 1258.92 3180.58 1258.92 3174.29 1254.43 3178.49 1228.65 3179.53 1221.92 3185.83 1173.72 3185.83 1173.72 3185.83 1173.72 3188.97 1142.33 3204.7 1130 3223.57 1133.36Z" stroke="#000000" stroke-width="1.71893" stroke-linecap="round" stroke-linejoin="round" stroke-miterlimit="10" fill="none" fill-rule="evenodd"/><path d="M3122.55 1484C3122.55 1484 3122.55 1484 3122.55 1484 3081.48 1484 3078.32 1445.94 3078.32 1414.59 3078.32 1387.72 3072 1341.82 3088.85 1328.38 3094.12 1322.79 3097.28 1313.83 3097.28 1304.87 3097.28 1294.8 3094.12 1285.84 3087.8 1280.24 3082.53 1276.89 3083.59 1272.41 3083.59 1266.81 3083.59 1264.57 3084.64 1260.09 3088.85 1257.85 3097.28 1253.38 3099.38 1237.7 3099.38 1229.87 3099.38 1223.15 3097.28 1209.71 3089.9 1204.12 3088.85 1203 3086.74 1201.88 3086.74 1201.88 3084.64 1200.76 3083.59 1196.28 3083.59 1191.8 3083.59 1189.56 3084.64 1186.2 3085.69 1185.08 3086.74 1182.85 3088.85 1181.73 3089.9 1180.61 3097.28 1176.13 3100.44 1166.05 3100.44 1153.74 3100.44 1142.54 3098.33 1132.47 3090.96 1126.87 3085.69 1123.51 3085.69 1116.79 3090.96 1113.43 3096.22 1111.2 3121.5 1100 3144.67 1112.31 3158.36 1119.03 3164.68 1131.35 3166.79 1144.78 3168.89 1158.22 3169.95 1172.77 3169.95 1183.96 3171 1233.22 3171 1233.22 3171 1233.22 3171 1239.94 3169.95 1250.02 3159.41 1258.97 3159.41 1258.97 3158.36 1260.09 3158.36 1260.09 3150.99 1265.69 3145.72 1275.77 3145.72 1286.96 3145.72 1298.16 3150.99 1308.23 3158.36 1313.83 3158.36 1313.83 3161.52 1316.07 3162.57 1317.19 3163.63 1319.43 3163.63 1322.79 3163.63 1325.03 3163.63 1329.5 3162.57 1332.86 3161.52 1335.1 3160.47 1335.1 3158.36 1336.22 3158.36 1336.22 3150.99 1341.82 3145.72 1351.9 3145.72 1363.09 3145.72 1375.41 3150.99 1385.48 3159.41 1391.08 3163.63 1393.32 3164.68 1397.8 3164.68 1400.03 3164.68 1415.71 3165.73 1445.94 3158.36 1462.73 3152.04 1479.52 3138.35 1484 3123.61 1484" stroke="#000000" stroke-width="1.71893" stroke-linecap="round" stroke-linejoin="round" stroke-miterlimit="10" fill="none" fill-rule="evenodd"/><path d="M2956 1173.07C2956 1155.18 2959.13 1141.77 2967.48 1132.82 2975.83 1125 2984.18 1127.24 2992.54 1135.06 2993.58 1136.18 3005.06 1156.3 3016.54 1170.83 3020.72 1175.3 3024.89 1178.66 3028.03 1182.01 3032.2 1184.25 3035.33 1185.36 3037.42 1190.95 3038.46 1195.42 3036.38 1201.01 3033.25 1206.6 3029.07 1213.31 3028.03 1225.61 3030.11 1233.43 3031.16 1240.14 3035.33 1254.67 3044.73 1256.9 3048.9 1258.02 3050.99 1261.38 3052.04 1265.85 3053.08 1270.32 3054.12 1273.67 3049.95 1279.26 3045.77 1285.97 3043.68 1296.03 3045.77 1304.97 3047.86 1316.15 3050.99 1320.62 3056.21 1326.21 3075 1344.1 3069.78 1387.69 3069.78 1414.52 3069.78 1445.82 3061.43 1476 3021.76 1476 3021.76 1476 3021.76 1476 3021.76 1476 2981.05 1476 2967.48 1431.29 2967.48 1385.46 2967.48 1340.74 2996.71 1297.15 2984.18 1270.32 2970.61 1241.25 2956 1217.78 2956 1173.07Z" stroke="#000000" stroke-width="1.71893" stroke-linecap="round" stroke-linejoin="round" stroke-miterlimit="10" fill="none" fill-rule="evenodd"/><path d="M3154 1109C3153 1107.5 3152 1107.5 3152 1106" stroke="#000000" stroke-width="1.71893" stroke-linecap="round" stroke-linejoin="round" stroke-miterlimit="10" fill="none" fill-rule="evenodd"/><path d="M3164 1132C3161.71 1123.11 3158.29 1116.44 3156 1112" stroke="#000000" stroke-width="1.71893" stroke-linecap="round" stroke-linejoin="round" stroke-miterlimit="10" fill="none" fill-rule="evenodd"/><path d="M3094 1103C3091 1107.57 3088 1114.43 3087 1119" stroke="#000000" stroke-width="1.71893" stroke-linecap="round" stroke-linejoin="round" stroke-miterlimit="10" fill="none" fill-rule="evenodd"/><path d="M3031 1118C3013.5 1122.29 2998.06 1131.93 2996 1133" stroke="#000000" stroke-width="1.71893" stroke-linecap="round" stroke-linejoin="round" stroke-miterlimit="10" fill="none" fill-rule="evenodd"/><path d="M3043 1117C3041 1117 3039 1117 3038 1117" stroke="#000000" stroke-width="1.71893" stroke-linecap="round" stroke-linejoin="round" stroke-miterlimit="10" fill="none" fill-rule="evenodd"/><path d="M3175 1123C3174 1122 3173 1122 3173 1122" stroke="#000000" stroke-width="1.71893" stroke-linecap="round" stroke-linejoin="round" stroke-miterlimit="10" fill="none" fill-rule="evenodd"/><path d="M3195 1137C3190.69 1132.11 3185.31 1128.44 3181 1126" stroke="#000000" stroke-width="1.71893" stroke-linecap="round" stroke-linejoin="round" stroke-miterlimit="10" fill="none" fill-rule="evenodd"/><path d="M3060 1275C3060 1275 3059 1275 3059 1275" stroke="#000000" stroke-width="1.71893" stroke-linecap="round" stroke-linejoin="round" stroke-miterlimit="10" fill="none" fill-rule="evenodd"/><path d="M3073 1274C3070 1272 3067 1272 3065 1274" stroke="#000000" stroke-width="1.71893" stroke-linecap="round" stroke-linejoin="round" stroke-miterlimit="10" fill="none" fill-rule="evenodd"/><path d="M3079 1276C3078.33 1275 3077.67 1275 3077 1274" stroke="#000000" stroke-width="1.71893" stroke-linecap="round" stroke-linejoin="round" stroke-miterlimit="10" fill="none" fill-rule="evenodd"/><path d="M3048 1199C3047 1199 3046 1199.5 3045 1200" stroke="#000000" stroke-width="1.71893" stroke-linecap="round" stroke-linejoin="round" stroke-miterlimit="10" fill="none" fill-rule="evenodd"/><path d="M3072 1196C3065 1195 3058 1195 3053 1197" stroke="#000000" stroke-width="1.71893" stroke-linecap="round" stroke-linejoin="round" stroke-miterlimit="10" fill="none" fill-rule="evenodd"/><path d="M3081 1200C3079 1198.5 3078 1198.5 3077 1197" stroke="#000000" stroke-width="1.71893" stroke-linecap="round" stroke-linejoin="round" stroke-miterlimit="10" fill="none" fill-rule="evenodd"/></g></svg>