<svg width="319" height="391" xmlns="http://www.w3.org/2000/svg" xmlns:xlink="http://www.w3.org/1999/xlink" xml:space="preserve" overflow="hidden"><g transform="translate(-755 -533)"><path d="M829.056 898.63C832.472 893.768 832.472 890.122 830.194 886.476 827.917 881.614 826.778 876.752 826.778 870.675 826.778 858.521 832.472 847.582 841.583 842.72 841.583 841.505 843.861 840.289 845 840.289 848.417 836.643 847.278 829.35 847.278 826.92 847.278 823.273 847.278 819.627 842.722 817.196 833.611 811.119 826.778 800.18 826.778 786.81 826.778 774.656 832.472 763.717 841.583 758.855 841.583 757.64 843.861 756.424 845 756.424 846.139 753.993 847.278 750.347 847.278 745.485 847.278 743.055 847.278 739.408 846.139 736.977 845 735.762 841.583 733.331 841.583 733.331 832.472 727.254 826.778 716.315 826.778 704.161 826.778 692.006 832.472 681.067 841.583 674.99 841.583 674.99 842.722 673.775 842.722 673.775 854.111 664.051 854.111 653.112 854.111 645.82 854.111 605.71 854.111 605.71 854.111 605.71 854.111 571.678 838.167 555.878 817.667 555.878 813.111 555.878 808.556 557.093 804 558.309 825.639 546.154 857.528 534 905.361 534 906.5 534 906.5 534 906.5 534 954.333 534 987.361 546.154 1009 558.309 1004.44 557.093 999.889 555.878 995.333 555.878 973.694 555.878 957.75 571.678 957.75 605.71 957.75 681.067 957.75 681.067 957.75 681.067 957.75 689.575 957.75 700.514 969.139 709.022 970.278 710.238 970.278 710.238 971.417 711.453 979.389 717.53 985.083 728.469 985.083 740.624 985.083 752.778 979.389 763.717 971.417 769.794 970.278 769.794 968 771.01 966.861 773.44 965.722 775.871 964.583 778.302 964.583 781.948 964.583 786.81 965.722 790.456 968 791.672 968 792.887 970.278 794.103 971.417 794.103 979.389 800.18 985.083 811.119 985.083 823.273 985.083 836.643 979.389 847.582 970.278 853.659 965.722 854.875 964.583 859.736 964.583 862.167 964.583 882.829 971.417 899.846 982.805 912 975.972 909.569 968 907.138 960.028 907.138 953.194 907.138 944.083 909.569 937.25 912 936.111 912 936.111 912 936.111 912 946.361 901.061 949.778 882.829 949.778 862.167 949.778 859.736 949.778 854.875 945.222 853.659 936.111 847.582 929.278 836.643 929.278 823.273 929.278 811.119 934.972 800.18 944.083 794.103 944.083 794.103 946.361 792.887 946.361 791.672 948.639 790.456 949.778 786.81 949.778 781.948 949.778 778.302 949.778 775.871 948.639 773.44 947.5 771.01 944.083 769.794 944.083 769.794 934.972 763.717 929.278 752.778 929.278 740.624 929.278 728.469 934.972 717.53 944.083 711.453 944.083 710.238 945.222 710.238 945.222 709.022 956.611 700.514 956.611 689.575 956.611 681.067 956.611 605.71 956.611 605.71 956.611 605.71 956.611 571.678 944.083 555.878 906.5 555.878 906.5 555.878 906.5 555.878 906.5 555.878 906.5 555.878 906.5 555.878 906.5 555.878 906.5 555.878 905.361 555.878 905.361 555.878 868.917 555.878 855.25 571.678 855.25 605.71 855.25 645.82 855.25 645.82 855.25 645.82 855.25 653.112 856.389 664.051 866.639 673.775 867.778 673.775 867.778 674.99 868.917 674.99 876.889 681.067 882.583 692.006 882.583 704.161 882.583 716.315 876.889 727.254 868.917 733.331 867.778 733.331 865.5 735.762 864.361 736.977 863.222 739.408 862.083 743.055 862.083 745.485 862.083 750.347 864.361 753.993 865.5 756.424 865.5 756.424 867.778 757.64 868.917 758.855 876.889 763.717 882.583 774.656 882.583 786.81 882.583 800.18 876.889 811.119 867.778 817.196 863.222 819.627 862.083 824.489 862.083 826.92 862.083 831.781 863.222 836.643 867.778 837.858 876.889 841.505 883.722 851.228 886 863.383 887.139 873.106 884.861 882.829 880.306 890.122 879.167 892.553 875.75 899.846 879.167 904.707 880.306 908.354 882.583 909.569 883.722 912 874.611 909.569 863.222 905.923 852.972 905.923 841.583 905.923 829.056 909.569 819.945 912 819.945 912 819.945 912 819.945 912 823.361 908.354 826.778 903.492 829.056 898.63Z" fill="#009C31" fill-rule="evenodd"/><path d="M995.574 556C1016.07 556 1032.01 571.798 1032.01 605.824 1032.01 643.497 1027.46 665.371 1025.18 688.46 1022.9 711.55 1029.73 748.006 1049.09 786.894 1066.17 824.566 1073 835.503 1073 862.238 1073 896.265 1050.23 923 1016.07 923 981.911 923 964.832 896.265 964.832 862.238 964.832 859.808 965.97 854.947 970.525 853.732 979.634 847.656 985.327 836.718 985.327 823.351 985.327 811.199 979.634 800.261 971.663 794.185 970.525 794.185 968.248 792.97 968.248 791.755 965.97 790.54 964.832 786.894 964.832 782.033 964.832 778.387 965.97 775.957 967.109 773.526 968.248 771.096 970.525 769.881 971.663 769.881 979.634 763.805 985.327 752.867 985.327 740.715 985.327 728.563 979.634 717.626 971.663 711.55 970.525 710.334 970.525 710.334 969.386 709.119 958 700.612 958 689.675 958 681.169 958 605.824 958 605.824 958 605.824 958 571.798 973.941 556 995.574 556Z" fill="#80BE78" fill-rule="evenodd"/><path d="M1067 862C1067 835.241 1060.22 824.294 1042.15 786.588 1024.07 747.665 1017.3 711.176 1019.56 688.065 1021.81 664.955 1026.33 643.061 1026.33 605.355 1026.33 582.245 1018.43 568.865 1007.13 564 1018.43 568.865 1019.56 590.759 1019.56 613.87 1018.43 644.278 1006 672.253 1008.26 703.878 1009.39 736.719 1026.33 770.776 1036.5 786.588 1045.54 802.4 1065.87 836.457 1067 862Z" fill="#E0EEDB" fill-rule="evenodd"/><path d="M1042 787C1024.15 748.127 1017.46 711.685 1019.69 688.604 1021.92 665.523 1026.38 643.658 1026.38 606 1024.15 629.081 1018.58 666.738 1016.35 688.604 1013 710.47 1019.69 749.342 1042 787Z" fill="#FFFFFF" fill-rule="evenodd"/><path d="M828.989 898.695C832.4 893.834 832.4 890.189 830.126 886.543 827.853 881.682 826.716 876.821 826.716 870.745 826.716 858.593 832.4 847.656 841.495 842.795 841.495 841.579 843.768 840.364 844.905 840.364 848.316 836.718 847.179 829.427 847.179 826.997 847.179 823.351 847.179 819.705 842.631 817.275 833.537 811.199 826.716 800.261 826.716 786.894 826.716 774.742 832.4 763.805 841.495 758.944 841.495 757.728 843.768 756.513 844.905 756.513 846.042 754.083 847.179 750.437 847.179 745.576 847.179 743.146 847.179 739.5 846.042 737.069 844.905 735.854 841.495 733.424 841.495 733.424 832.4 727.348 826.716 716.41 826.716 704.258 826.716 692.106 832.4 681.169 841.495 675.093 841.495 675.093 842.631 673.877 842.631 673.877 854 664.156 854 653.218 854 645.927 854 605.824 854 605.824 854 605.824 854 571.798 838.084 556 817.621 556 797.158 556 781.242 571.798 781.242 605.824 781.242 643.497 784.653 665.371 786.926 688.46 790.337 711.55 782.379 748.006 764.189 786.894 746 824.566 761.916 923 796.021 923 809.663 923 821.031 913.278 828.989 898.695" fill="#80BE78" fill-rule="evenodd"/><path d="M800.28 918C765.56 918 751 824.522 768.92 786.887 786.84 748.039 794.68 711.619 791.32 688.553 789.08 665.486 785.72 643.634 785.72 606 785.72 621.782 787.96 649.704 796.92 688.553 807 728.615 789.08 768.677 777.88 797.813 765.56 828.164 766.68 907.074 800.28 918Z" fill="#00A03E" fill-rule="evenodd"/><path d="M879.067 904.771C875.629 899.911 879.067 892.619 880.213 890.189 884.798 882.897 887.09 873.175 885.944 863.454 883.652 851.301 876.775 841.579 867.607 837.934 863.022 836.718 861.876 831.858 861.876 826.997 861.876 824.566 863.022 819.705 867.607 817.275 876.775 811.199 882.505 800.261 882.505 786.894 882.505 774.742 876.775 763.805 868.753 758.944 867.607 757.728 865.315 756.513 865.315 756.513 864.168 754.083 861.876 750.437 861.876 745.576 861.876 743.146 863.022 739.5 864.168 737.069 865.315 735.854 867.607 733.424 868.753 733.424 876.775 727.348 882.505 716.41 882.505 704.258 882.505 692.106 876.775 681.169 868.753 675.093 867.607 675.093 867.607 673.877 866.461 673.877 856.146 664.156 855 653.218 855 645.927 855 605.824 855 605.824 855 605.824 855 571.798 868.753 556 905.427 556 905.427 556 906.573 556 906.573 556 906.573 556 906.573 556 906.573 556 906.573 556 906.573 556 906.573 556 944.393 556 957 571.798 957 605.824 957 681.169 957 681.169 957 681.169 957 689.675 957 700.612 945.539 709.119 945.539 710.334 944.393 710.334 944.393 711.55 935.225 717.626 929.494 728.563 929.494 740.715 929.494 752.867 935.225 763.805 944.393 769.881 944.393 769.881 947.831 771.096 948.977 773.526 950.124 775.957 950.124 778.387 950.124 782.033 950.124 786.894 948.977 790.54 946.685 791.755 946.685 792.97 944.393 794.185 944.393 794.185 935.225 800.261 929.494 811.199 929.494 823.351 929.494 836.718 936.371 847.656 945.539 853.732 950.124 854.947 950.124 859.808 950.124 862.238 950.124 896.265 940.955 923 906.573 923 906.573 923 906.573 923 906.573 923 906.573 923 906.573 923 906.573 923 906.573 923 905.427 923 905.427 923 893.966 923 885.944 915.709 879.067 904.771Z" fill="#80BE78" fill-rule="evenodd"/><path d="M934.931 567.482C949.724 573.541 952 591.718 952 606.259 952 676.541 952 676.541 952 676.541 952 683.812 952 697.141 938.345 708.047 937.207 709.259 937.207 709.259 937.207 709.259 936.069 710.47 936.069 710.47 936.069 710.47 929.241 715.318 924.689 729.859 924.689 740.765 924.689 750.459 928.103 760.153 931.517 765 931.517 765 931.517 765 931.517 765 924.689 757.729 920.138 745.612 920.138 734.706 920.138 721.376 922.414 708.047 932.655 701.988 931.517 701.988 931.517 701.988 931.517 701.988 933.793 699.565 933.793 699.565 933.793 699.565 942.896 692.294 948.586 691.082 948.586 675.329 944.034 606.259 944.034 606.259 944.034 606.259 944.034 589.294 940.62 577.176 932.655 572.329 924.689 567.482 907.62 560.212 887.138 566.271 886 566.271 886 566.271 886 566.271 908.758 559 924.689 563.847 934.931 567.482Z" fill="#E0EEDB" fill-rule="evenodd"/><path d="M952 606C952 591.375 949.733 573.094 935 567 938.4 569.437 950.867 582.844 952 606Z" fill="#FFFFFF" fill-rule="evenodd"/><path d="M831.682 730C831.682 730 831.682 730 831.682 730 831.682 730 831.682 730 831.682 730ZM801 564.31C801 563.091 801 563.091 801 563.091 820.318 560.655 830.546 565.528 833.955 569.183 839.636 575.275 843.046 580.148 845.318 597.204 847.591 639.845 847.591 639.845 847.591 639.845 847.591 655.683 843.046 658.12 833.955 665.43 831.682 667.866 831.682 667.866 831.682 667.866 821.455 675.176 819.182 686.141 819.182 699.542 819.182 710.507 824.864 722.69 831.682 730 827.136 725.127 823.727 715.38 823.727 705.634 823.727 694.669 829.409 680.049 836.227 675.176 836.227 675.176 836.227 675.176 836.227 675.176 837.364 672.74 837.364 672.74 837.364 672.74 851 662.993 851 648.373 851 641.063 851 599.641 851 599.641 851 599.641 851 598.422 851 598.422 851 598.422 849.864 586.239 846.455 575.275 835.091 565.528 829.409 561.873 823.727 557 801 564.31Z" fill="#E0EEDB" fill-rule="evenodd"/><path d="M930.143 804C926.714 808.868 924.428 818.602 924.428 825.904 924.428 838.072 930.143 850.241 937 855.109 943.857 858.759 945 866.06 945 868.494 945 885.53 941.571 895.265 938.143 905 937 905 937 905 937 905 941.571 895.265 942.714 879.446 941.571 872.145 941.571 867.277 938.143 862.41 935.857 861.193 925.571 855.109 921 844.157 921 828.337 921 818.602 925.571 810.084 930.143 804Z" fill="#E0EEDB" fill-rule="evenodd"/><path d="M830.227 765C826.818 769.852 824.545 779.557 824.545 786.836 824.545 798.967 830.227 813.525 837.045 818.377 843.864 822.016 845 826.869 845 829.295 845 834.148 845 839 843.864 830.508 843.864 825.656 838.182 823.23 835.909 822.016 825.682 815.951 820 805.033 820 789.262 820 779.557 825.682 771.065 830.227 765Z" fill="#E0EEDB" fill-rule="evenodd"/><path d="M822.533 887.4C820.267 881.4 820.267 874.2 821.4 865.8 822.533 855 828.2 849 835 843 835 844.2 835 844.2 835 844.2 830.467 847.8 825.933 856.2 824.8 863.4 823.667 870.6 824.8 881.4 828.2 888.6 829.333 892.2 830.467 895.8 818 909 821.4 905.4 825.933 894.6 822.533 887.4Z" fill="#E0EEDB" fill-rule="evenodd"/><path d="M942 704C936.21 708.923 920 723.692 925.789 752 921.158 737.231 921.158 711.385 942 704Z" fill="#FFFFFF" fill-rule="evenodd"/><path d="M925.778 816C923.556 823.273 922.445 841.455 938 856 928 849.939 918 837.818 925.778 816Z" fill="#FFFFFF" fill-rule="evenodd"/><path d="M824.05 778C822.9 785.371 821.75 805.028 839 821 827.5 813.628 816 801.343 824.05 778Z" fill="#FFFFFF" fill-rule="evenodd"/><path d="M982.857 803C986.286 807.8 988.571 816.2 988.571 824.6 988.571 835.4 982.857 848.6 976 853.4 969.143 855.8 968 864.2 968 866.6 968 882.2 973.714 890.6 977.143 899 977.143 899 977.143 899 977.143 899 973.714 889.4 970.286 877.4 971.429 870.2 971.429 865.4 974.857 860.6 977.143 859.4 987.429 852.2 992 842.6 992 827 992 816.2 987.429 809 982.857 803Z" fill="#E0EEDB" fill-rule="evenodd"/><path d="M982.909 719C986.318 723.815 988.591 733.445 988.591 740.667 988.591 752.704 982.909 765.945 976.091 769.556 969.273 773.167 967 780.389 967 782.796 968.136 784 968.136 784 968.136 782.796 968.136 777.982 974.955 774.37 977.227 773.167 987.455 767.148 992 758.722 992 744.278 992 733.445 987.455 726.222 982.909 719Z" fill="#E0EEDB" fill-rule="evenodd"/><path d="M880.826 682C884.217 686.889 886.478 696.667 886.478 704 886.478 716.222 880.826 729.667 874.043 733.333 867.261 737 865 744.333 865 746.778 866.13 748 866.13 748 866.13 746.778 866.13 741.889 872.913 738.222 875.174 737 885.348 730.889 891 722.333 891 707.667 891 696.667 885.348 689.333 880.826 682Z" fill="#E0EEDB" fill-rule="evenodd"/><path d="M880.857 764C884.286 768.8 886.571 777.2 886.571 785.6 886.571 796.4 880.857 812 874 816.8 867.143 820.4 866 825.2 866 827.6 866 832.4 866 836 867.143 828.8 867.143 824 872.857 821.6 875.143 820.4 885.429 813.2 890 803.6 890 788 890 777.2 885.429 770 880.857 764Z" fill="#E0EEDB" fill-rule="evenodd"/><path d="M888.636 892.211C891.909 886.158 893 878.895 893 870.421 893 859.526 888.636 852.263 883.182 845 883.182 846.21 883.182 846.21 883.182 846.21 886.455 851.053 889.727 859.526 889.727 866.789 889.727 875.263 887.546 884.947 883.182 892.211 882.091 895.842 881 898.263 890.818 914 887.546 910.368 885.364 898.263 888.636 892.211Z" fill="#E0EEDB" fill-rule="evenodd"/><path d="M840 670C834.444 674.82 820 689.282 825.555 717 820 701.333 820 677.231 840 670Z" fill="#FFFFFF" fill-rule="evenodd"/><path d="M772.237 791.869C793.737 748.301 796 708.364 791.474 689 794.869 711.994 786.948 748.301 768.842 787.028 755.263 814.864 760.921 874.165 777.895 902 771.105 880.216 753 831.807 772.237 791.869Z" fill="#008C2D" fill-rule="evenodd"/><path d="M973.08 587.475C976.44 572.918 979.8 566.853 991 562 982.04 563.213 966.36 571.705 964.12 592.328 963 612.951 963 676.033 963 685.738 963 695.443 969.72 701.508 976.44 710 970.84 699.082 966.36 693.016 966.36 669.967 966.36 654.197 966.36 612.951 973.08 587.475Z" fill="#00A03E" fill-rule="evenodd"/><path d="M875 569C867 575.084 862.429 581.169 861.286 590.904 860.143 601.855 860.143 628.626 859 640.795 859 652.964 862.429 663.916 869.286 670 863.571 659.048 864.714 654.181 864.714 632.277 865.857 611.59 863.571 587.253 875 569Z" fill="#00A03E" fill-rule="evenodd"/><path d="M980 558.381C974.242 549.714 948.909 546 942 549.714 946.606 557.143 951.212 567.048 953.515 575.714 955.818 583.143 955.818 591.81 958.121 598 961.576 583.143 967.333 568.286 976.545 559.619" fill="#00882C" fill-rule="evenodd"/><path d="M871 550C864.28 565.811 857.56 577.973 855.32 595 854.2 587.703 845.24 570.676 843 563.378 854.2 553.649 865.4 552.432 871 550" fill="#00882C" fill-rule="evenodd"/><path d="M889 553.462C880.95 555.769 871.75 559.231 866 565 867.15 559.231 870.6 554.615 874.05 550 875.2 555.769 882.1 554.615 886.7 554.615" fill="#00882C" fill-rule="evenodd"/><path d="M936.2 803C930.45 811.4 927 834.2 938.5 845 950 857 948.85 855.8 948.85 855.8 948.85 855.8 927 825.8 936.2 803Z" fill="#00882C" fill-rule="evenodd"/><path d="M832.2 767C826.45 775.591 823 797.682 834.5 809.954 846 821 846 819.773 846 819.773 846 819.773 823 789.091 832.2 767Z" fill="#00882C" fill-rule="evenodd"/><path d="M827.949 902.288C850.661 907.144 867.695 892.576 867.695 868.297 867.695 844.017 855.203 851.301 856.339 833.092 856.339 814.882 868.83 810.026 868.83 790.603 868.83 772.393 858.61 777.249 856.339 749.327 854.068 721.406 862.017 729.904 867.695 712.908 872.237 694.699 864.288 687.415 855.203 686.201 852.932 684.987 849.525 684.987 846.118 686.201 840.44 686.201 830.22 697.127 833.627 712.908 838.169 726.262 846.118 738.402 846.118 738.402 846.118 738.402 846.118 739.616 834.763 727.476 827.949 720.192 826.813 708.052 827.949 698.341 827.949 699.555 827.949 699.555 827.949 700.768 827.949 700.768 827.949 700.768 827.949 700.768 829.085 689.843 833.627 680.131 841.576 675.275 841.576 675.275 842.712 674.061 842.712 674.061 854.068 664.349 854.068 653.423 854.068 646.14 854.068 634 854.068 634 854.068 634 855.203 634 855.203 634 855.203 634 855.203 646.14 855.203 646.14 855.203 646.14 855.203 653.423 856.339 664.349 866.559 674.061 867.695 674.061 867.695 675.275 868.83 675.275 876.779 681.345 882.457 692.271 882.457 704.41 882.457 716.55 876.779 727.476 868.83 733.546 867.695 733.546 865.424 735.974 864.288 737.188 863.152 739.616 862.017 743.258 862.017 745.685 862.017 750.541 864.288 754.183 865.424 756.611 865.424 756.611 867.695 757.825 868.83 759.039 876.779 763.895 882.457 774.821 882.457 786.961 882.457 800.314 876.779 811.24 867.695 817.31 863.152 819.738 862.017 824.594 862.017 827.022 862.017 831.878 863.152 836.734 867.695 837.948 876.779 841.589 883.593 851.301 885.864 863.441 887 873.153 884.729 882.865 880.186 890.148 879.051 892.576 875.644 899.86 879.051 904.716 880.186 908.358 882.457 909.572 883.593 912 874.508 909.572 863.152 905.93 852.932 905.93 841.576 905.93 829.085 909.572 820 912 820 912 820 912 820 912 822.271 909.572 824.542 905.93 827.949 902.288Z" fill="#00882C" fill-rule="evenodd"/><path d="M931.286 729.703C931.286 730.919 930.143 730.919 930.143 732.134 930.143 732.134 930.143 732.134 930.143 732.134 933.572 722.411 933.572 722.411 933.572 722.411 935.857 717.55 939.286 713.904 943.857 711.474 943.857 710.258 945 710.258 945 709.043 956.429 700.536 956.429 689.598 956.429 681.091 956.429 658 956.429 658 956.429 658 957.571 658 957.571 658 957.571 658 957.571 681.091 957.571 681.091 957.571 681.091 957.571 689.598 957.571 700.536 969 709.043 970.143 710.258 970.143 710.258 971.286 711.474 979.286 717.55 985 728.488 985 740.641 985 752.794 979.286 763.732 971.286 769.809 970.143 769.809 967.857 771.024 966.714 773.454 965.571 775.885 964.429 778.316 964.429 781.962 964.429 786.823 965.571 790.469 967.857 791.684 967.857 792.899 970.143 794.115 971.286 794.115 979.286 800.191 985 811.129 985 823.282 985 836.651 979.286 847.589 970.143 853.665 965.571 854.88 964.429 859.742 964.429 862.172 964.429 882.833 971.286 899.847 982.714 912 975.857 909.569 967.857 907.139 959.857 907.139 955.286 907.139 948.429 908.354 942.714 909.569 961 899.847 957.571 879.187 957.571 868.249 957.571 856.096 955.286 853.665 963.286 845.158 971.286 836.651 971.286 819.636 966.714 812.344 962.143 805.053 958.714 795.33 958.714 784.392 958.714 774.67 956.429 767.378 966.714 756.44 975.857 746.718 972.429 732.134 965.571 723.627 961 719.981 954.143 717.55 947.286 718.766 942.714 719.981 930.143 734.565 934.714 749.148 939.286 763.732 948.429 773.454 948.429 773.454 948.429 773.454 949.571 774.67 938.143 762.517 929 754.01 929 740.641 931.286 729.703Z" fill="#00882C" fill-rule="evenodd"/><path d="M951 541.385C930.429 536.769 879 531 839 546 860.714 540.231 927 535.615 951 541.385Z" fill="#FFFFFF" fill-rule="evenodd"/><path d="M831 781C831 791.875 834.667 803.958 842 810 838.333 803.958 831 781 831 781Z" fill="#FFFFFF" fill-rule="evenodd"/><path d="M934 816C934 825.739 937.333 839.13 944 844 940.667 839.13 934 816 934 816Z" fill="#FFFFFF" fill-rule="evenodd"/><path d="M835.75 694C832 704 832 715.25 837 724 835.75 716.5 835.75 694 835.75 694Z" fill="#FFFFFF" fill-rule="evenodd"/><path d="M937.6 730C935.2 739.667 934 750.542 940 759 937.6 752.958 937.6 730 937.6 730Z" fill="#FFFFFF" fill-rule="evenodd"/><path d="M833.6 858C831.2 867.667 830 878.542 836 887 833.6 880.958 833.6 858 833.6 858Z" fill="#FFFFFF" fill-rule="evenodd"/><path d="M995.574 556C1016.07 556 1032.01 571.798 1032.01 605.824 1032.01 643.497 1027.46 665.371 1025.18 688.46 1022.9 711.55 1029.73 748.006 1049.09 786.894 1066.17 824.566 1073 835.503 1073 862.238 1073 896.265 1050.23 923 1016.07 923 981.911 923 964.832 896.265 964.832 862.238 964.832 859.808 965.97 854.947 970.525 853.732 979.634 847.656 985.327 836.718 985.327 823.351 985.327 811.199 979.634 800.261 971.663 794.185 970.525 794.185 968.248 792.97 968.248 791.755 965.97 790.54 964.832 786.894 964.832 782.033 964.832 778.387 965.97 775.957 967.109 773.526 968.248 771.096 970.525 769.881 971.663 769.881 979.634 763.805 985.327 752.867 985.327 740.715 985.327 728.563 979.634 717.626 971.663 711.55 970.525 710.334 970.525 710.334 969.386 709.119 958 700.612 958 689.675 958 681.169 958 605.824 958 605.824 958 605.824 958 571.798 973.941 556 995.574 556Z" stroke="#000000" stroke-width="2.29167" stroke-linecap="round" stroke-linejoin="round" stroke-miterlimit="10" fill="none" fill-rule="evenodd"/><path d="M828.989 898.695C832.4 893.834 832.4 890.189 830.126 886.543 827.853 881.682 826.716 876.821 826.716 870.745 826.716 858.593 832.4 847.656 841.495 842.795 841.495 841.579 843.768 840.364 844.905 840.364 848.316 836.718 847.179 829.427 847.179 826.997 847.179 823.351 847.179 819.705 842.631 817.275 833.537 811.199 826.716 800.261 826.716 786.894 826.716 774.742 832.4 763.805 841.495 758.944 841.495 757.728 843.768 756.513 844.905 756.513 846.042 754.083 847.179 750.437 847.179 745.576 847.179 743.146 847.179 739.5 846.042 737.069 844.905 735.854 841.495 733.424 841.495 733.424 832.4 727.348 826.716 716.41 826.716 704.258 826.716 692.106 832.4 681.169 841.495 675.093 841.495 675.093 842.631 673.877 842.631 673.877 854 664.156 854 653.218 854 645.927 854 605.824 854 605.824 854 605.824 854 571.798 838.084 556 817.621 556 797.158 556 781.242 571.798 781.242 605.824 781.242 643.497 784.653 665.371 786.926 688.46 790.337 711.55 782.379 748.006 764.189 786.894 746 824.566 761.916 923 796.021 923 809.663 923 821.031 913.278 828.989 898.695" stroke="#000000" stroke-width="2.29167" stroke-linecap="round" stroke-linejoin="round" stroke-miterlimit="10" fill="none" fill-rule="evenodd"/><path d="M879.067 904.771C875.629 899.911 879.067 892.619 880.213 890.189 884.798 882.897 887.09 873.175 885.944 863.454 883.652 851.301 876.775 841.579 867.607 837.934 863.022 836.718 861.876 831.858 861.876 826.997 861.876 824.566 863.022 819.705 867.607 817.275 876.775 811.199 882.505 800.261 882.505 786.894 882.505 774.742 876.775 763.805 868.753 758.944 867.607 757.728 865.315 756.513 865.315 756.513 864.168 754.083 861.876 750.437 861.876 745.576 861.876 743.146 863.022 739.5 864.168 737.069 865.315 735.854 867.607 733.424 868.753 733.424 876.775 727.348 882.505 716.41 882.505 704.258 882.505 692.106 876.775 681.169 868.753 675.093 867.607 675.093 867.607 673.877 866.461 673.877 856.146 664.156 855 653.218 855 645.927 855 605.824 855 605.824 855 605.824 855 571.798 868.753 556 905.427 556 905.427 556 906.573 556 906.573 556 906.573 556 906.573 556 906.573 556 906.573 556 906.573 556 906.573 556 944.393 556 957 571.798 957 605.824 957 681.169 957 681.169 957 681.169 957 689.675 957 700.612 945.539 709.119 945.539 710.334 944.393 710.334 944.393 711.55 935.225 717.626 929.494 728.563 929.494 740.715 929.494 752.867 935.225 763.805 944.393 769.881 944.393 769.881 947.831 771.096 948.977 773.526 950.124 775.957 950.124 778.387 950.124 782.033 950.124 786.894 948.977 790.54 946.685 791.755 946.685 792.97 944.393 794.185 944.393 794.185 935.225 800.261 929.494 811.199 929.494 823.351 929.494 836.718 936.371 847.656 945.539 853.732 950.124 854.947 950.124 859.808 950.124 862.238 950.124 896.265 940.955 923 906.573 923 906.573 923 906.573 923 906.573 923 906.573 923 906.573 923 906.573 923 906.573 923 905.427 923 905.427 923 893.966 923 885.944 915.709 879.067 904.771Z" stroke="#000000" stroke-width="2.29167" stroke-linecap="round" stroke-linejoin="round" stroke-miterlimit="10" fill="none" fill-rule="evenodd"/><path d="M829.056 898.63C832.472 893.768 832.472 890.122 830.194 886.476 827.917 881.614 826.778 876.752 826.778 870.675 826.778 858.521 832.472 847.582 841.583 842.72 841.583 841.505 843.861 840.289 845 840.289 848.417 836.643 847.278 829.35 847.278 826.92 847.278 823.273 847.278 819.627 842.722 817.196 833.611 811.119 826.778 800.18 826.778 786.81 826.778 774.656 832.472 763.717 841.583 758.855 841.583 757.64 843.861 756.424 845 756.424 846.139 753.993 847.278 750.347 847.278 745.485 847.278 743.055 847.278 739.408 846.139 736.977 845 735.762 841.583 733.331 841.583 733.331 832.472 727.254 826.778 716.315 826.778 704.161 826.778 692.006 832.472 681.067 841.583 674.99 841.583 674.99 842.722 673.775 842.722 673.775 854.111 664.051 854.111 653.112 854.111 645.82 854.111 605.71 854.111 605.71 854.111 605.71 854.111 571.678 838.167 555.878 817.667 555.878 813.111 555.878 808.556 557.093 804 558.309 825.639 546.154 857.528 534 905.361 534 906.5 534 906.5 534 906.5 534 954.333 534 987.361 546.154 1009 558.309 1004.44 557.093 999.889 555.878 995.333 555.878 973.694 555.878 957.75 571.678 957.75 605.71 957.75 681.067 957.75 681.067 957.75 681.067 957.75 689.575 957.75 700.514 969.139 709.022 970.278 710.238 970.278 710.238 971.417 711.453 979.389 717.53 985.083 728.469 985.083 740.624 985.083 752.778 979.389 763.717 971.417 769.794 970.278 769.794 968 771.01 966.861 773.44 965.722 775.871 964.583 778.302 964.583 781.948 964.583 786.81 965.722 790.456 968 791.672 968 792.887 970.278 794.103 971.417 794.103 979.389 800.18 985.083 811.119 985.083 823.273 985.083 836.643 979.389 847.582 970.278 853.659 965.722 854.875 964.583 859.736 964.583 862.167 964.583 882.829 971.417 899.846 982.805 912 975.972 909.569 968 907.138 960.028 907.138 953.194 907.138 944.083 909.569 937.25 912 936.111 912 936.111 912 936.111 912 946.361 901.061 949.778 882.829 949.778 862.167 949.778 859.736 949.778 854.875 945.222 853.659 936.111 847.582 929.278 836.643 929.278 823.273 929.278 811.119 934.972 800.18 944.083 794.103 944.083 794.103 946.361 792.887 946.361 791.672 948.639 790.456 949.778 786.81 949.778 781.948 949.778 778.302 949.778 775.871 948.639 773.44 947.5 771.01 944.083 769.794 944.083 769.794 934.972 763.717 929.278 752.778 929.278 740.624 929.278 728.469 934.972 717.53 944.083 711.453 944.083 710.238 945.222 710.238 945.222 709.022 956.611 700.514 956.611 689.575 956.611 681.067 956.611 605.71 956.611 605.71 956.611 605.71 956.611 571.678 944.083 555.878 906.5 555.878 906.5 555.878 906.5 555.878 906.5 555.878 906.5 555.878 906.5 555.878 906.5 555.878 906.5 555.878 905.361 555.878 905.361 555.878 868.917 555.878 855.25 571.678 855.25 605.71 855.25 645.82 855.25 645.82 855.25 645.82 855.25 653.112 856.389 664.051 866.639 673.775 867.778 673.775 867.778 674.99 868.917 674.99 876.889 681.067 882.583 692.006 882.583 704.161 882.583 716.315 876.889 727.254 868.917 733.331 867.778 733.331 865.5 735.762 864.361 736.977 863.222 739.408 862.083 743.055 862.083 745.485 862.083 750.347 864.361 753.993 865.5 756.424 865.5 756.424 867.778 757.64 868.917 758.855 876.889 763.717 882.583 774.656 882.583 786.81 882.583 800.18 876.889 811.119 867.778 817.196 863.222 819.627 862.083 824.489 862.083 826.92 862.083 831.781 863.222 836.643 867.778 837.858 876.889 841.505 883.722 851.228 886 863.383 887.139 873.106 884.861 882.829 880.306 890.122 879.167 892.553 875.75 899.846 879.167 904.707 880.306 908.354 882.583 909.569 883.722 912 874.611 909.569 863.222 905.923 852.972 905.923 841.583 905.923 829.056 909.569 819.945 912 819.945 912 819.945 912 819.945 912 823.361 908.354 826.778 903.492 829.056 898.63Z" stroke="#000000" stroke-width="2.29167" stroke-linecap="round" stroke-linejoin="round" stroke-miterlimit="10" fill="none" fill-rule="evenodd"/><path d="M945 556C949.889 564.5 954.778 576.643 956 590" stroke="#000000" stroke-width="2.29167" stroke-linecap="round" stroke-linejoin="round" stroke-miterlimit="10" fill="none" fill-rule="evenodd"/><path d="M940 548C940 549 941 550 942 551" stroke="#000000" stroke-width="2.29167" stroke-linecap="round" stroke-linejoin="round" stroke-miterlimit="10" fill="none" fill-rule="evenodd"/><path d="M874 548C867.2 556.4 859.267 570.8 857 590" stroke="#000000" stroke-width="2.29167" stroke-linecap="round" stroke-linejoin="round" stroke-miterlimit="10" fill="none" fill-rule="evenodd"/></g></svg>