<svg width="449" height="535" xmlns="http://www.w3.org/2000/svg" xmlns:xlink="http://www.w3.org/1999/xlink" xml:space="preserve" overflow="hidden"><g transform="translate(-1302 -614)"><path d="M1317 873C1317 750.393 1410.35 651 1525.5 651 1640.65 651 1734 750.393 1734 873 1734 995.607 1640.65 1095 1525.5 1095 1410.35 1095 1317 995.607 1317 873Z" fill="#CEAACE" fill-rule="evenodd"/><path d="M1317.5 873.5C1317.5 750.893 1410.85 651.5 1526 651.5 1641.15 651.5 1734.5 750.893 1734.5 873.5 1734.5 996.107 1641.15 1095.5 1526 1095.5 1410.85 1095.5 1317.5 996.107 1317.5 873.5Z" stroke="#333333" stroke-width="6.875" stroke-linecap="round" stroke-linejoin="round" stroke-miterlimit="10" fill="none" fill-rule="evenodd"/><path d="M1409 871.5C1409 802.188 1461.83 746 1527 746 1592.17 746 1645 802.188 1645 871.5 1645 940.812 1592.17 997 1527 997 1461.83 997 1409 940.812 1409 871.5Z" fill="#FFFF00" fill-rule="evenodd"/><path d="M1353.51 887.067C1353.51 770.467 1442.64 675.067 1551.59 675.067 1561.49 675.067 1571.4 675.067 1578 678.6 1561.49 671.533 1544.99 668 1525.18 668 1422.84 668 1337 756.333 1337 865.867 1337 911.8 1353.51 954.2 1376.62 986 1363.41 957.733 1353.51 922.4 1353.51 887.067Z" fill="#FFFFFF" fill-rule="evenodd"/><path d="M1614.74 693C1654.45 728.283 1677.61 781.208 1677.61 841.189 1677.61 950.566 1594.89 1038.77 1492.33 1038.77 1459.24 1038.77 1429.47 1028.19 1403 1014.08 1436.08 1045.83 1479.1 1067 1525.41 1067 1627.98 1067 1714 975.264 1714 865.887 1714 791.792 1674.3 728.283 1614.74 693Z" fill="#B783B7" fill-rule="evenodd"/><path d="M1439.2 872.98C1439.2 809.429 1495.3 763.531 1551.4 763.531 1558 763.531 1548.1 763.531 1551.4 763.531 1544.8 760 1534.9 760 1525 760 1468.9 760 1426 805.898 1426 862.388 1426 887.102 1432.6 915.347 1445.8 933 1439.2 918.878 1439.2 890.633 1439.2 872.98Z" fill="#FFFFFF" fill-rule="evenodd"/><path d="M1578.88 778C1598.8 799.214 1612.08 827.5 1612.08 855.786 1612.08 915.893 1568.92 961.857 1512.48 961.857 1495.88 961.857 1479.28 958.321 1466 947.714 1482.6 965.393 1505.84 976 1532.4 976 1585.52 976 1632 930.036 1632 869.928 1632 831.036 1608.76 795.678 1578.88 778Z" fill="#FFD100" fill-rule="evenodd"/><path d="M1409.5 872C1409.5 802.688 1462.33 746.5 1527.5 746.5 1592.67 746.5 1645.5 802.688 1645.5 872 1645.5 941.312 1592.67 997.5 1527.5 997.5 1462.33 997.5 1409.5 941.312 1409.5 872Z" stroke="#333333" stroke-width="3.4375" stroke-linecap="round" stroke-linejoin="round" stroke-miterlimit="10" fill="none" fill-rule="evenodd"/><path d="M1416 779.5C1416 760.998 1429.43 746 1446 746 1462.57 746 1476 760.998 1476 779.5 1476 798.002 1462.57 813 1446 813 1429.43 813 1416 798.002 1416 779.5Z" fill="#FFFFFF" fill-rule="evenodd"/><path d="M1486 749.5C1486 743.701 1491.15 739 1497.5 739 1503.85 739 1509 743.701 1509 749.5 1509 755.299 1503.85 760 1497.5 760 1491.15 760 1486 755.299 1486 749.5Z" fill="#FFFFFF" fill-rule="evenodd"/><path d="M1645 855.792C1651.57 869.958 1661.43 916 1684.43 908.917 1714 901.833 1694.29 848.708 1691 831" fill="#B783B7" fill-rule="evenodd"/><path d="M1362.7 1060.69C1415.8 1099.55 1458.94 1078.35 1488.81 1060.69 1505.41 1050.09 1518.68 1043.03 1531.96 1039.49 1588.38 1028.9 1641.48 1057.16 1687.94 1127.81 1697.9 1145.47 1721.13 1149 1734.41 1138.4 1747.68 1124.27 1751 1103.08 1741.04 1088.95 1661.39 968.844 1575.1 958.247 1518.68 972.377 1495.45 979.442 1475.54 990.039 1458.94 997.104 1429.07 1014.77 1422.43 1018.3 1402.52 1004.17 1389.25 993.572 1389.25 990.039 1392.57 954.714 1399.2 922.922 1405.84 880.533 1379.29 831.078 1362.7 795.753 1369.33 742.766 1395.88 710.974 1415.8 686.247 1445.67 679.182 1478.85 693.312 1538.59 718.039 1575.1 767.494 1601.65 806.351 1624.88 841.675 1644.8 869.935 1677.99 873.468 1694.58 877 1711.17 862.87 1714.49 845.208 1717.81 827.546 1704.54 809.883 1687.94 806.351 1687.94 806.351 1687.94 806.351 1687.94 806.351 1681.3 802.818 1664.71 781.623 1654.75 767.494 1621.57 721.571 1581.74 661.519 1502.09 629.727 1442.35 605 1385.93 619.13 1346.1 665.052 1302.96 718.039 1293 802.818 1322.87 862.87 1336.14 891.13 1332.83 919.39 1329.51 944.117 1326.19 979.442 1319.55 1025.36 1362.7 1060.69Z" fill="#FA5E56" fill-rule="evenodd"/><path d="M1373 1046C1392.84 1067 1412.68 1081 1468.89 1056.5 1521.8 1028.5 1561.48 1004 1621 1042.5 1591.24 1014.5 1554.87 1007.5 1475.51 1039 1396.15 1070.5 1386.23 1060 1373 1046Z" fill="#E3001D" fill-rule="evenodd"/><path d="M1380 710.448C1406.4 675.276 1455.9 643.621 1545 721 1515.3 678.793 1419.6 619 1380 710.448Z" fill="#E3001D" fill-rule="evenodd"/><path d="M1691 824C1651.24 806.292 1604.84 689.417 1522 654 1535.26 657.542 1601.53 728.375 1621.41 760.25 1637.98 788.583 1667.8 824 1691 824Z" fill="#EAF1F7" fill-rule="evenodd"/><path d="M1403 1020.95C1376.14 1006.84 1369.43 996.263 1379.5 950.421 1386.21 908.105 1392.93 890.474 1366.07 827 1372.79 851.684 1379.5 922.211 1369.43 946.895 1356 971.579 1366.07 1028 1403 1020.95Z" fill="#E3001D" fill-rule="evenodd"/><path d="M1731 1099C1697.91 1046.08 1615.18 972 1549 979.056 1578.78 986.111 1674.75 1028.44 1731 1099Z" fill="#EAF1F7" fill-rule="evenodd"/><path d="M1363.2 1061.19C1416.3 1100.05 1459.44 1078.85 1489.31 1061.19 1505.91 1050.59 1519.18 1043.53 1532.46 1039.99 1588.88 1029.4 1641.98 1057.66 1688.44 1128.31 1698.4 1145.97 1721.63 1149.5 1734.91 1138.9 1748.18 1124.77 1751.5 1103.58 1741.54 1089.45 1661.89 969.344 1575.6 958.747 1519.18 972.877 1495.95 979.941 1476.04 990.539 1459.44 997.604 1429.57 1015.27 1422.93 1018.8 1403.02 1004.67 1389.75 994.071 1389.75 990.539 1393.07 955.214 1399.7 923.422 1406.34 881.032 1379.79 831.578 1363.2 796.253 1369.83 743.266 1396.38 711.474 1416.3 686.747 1446.17 679.682 1479.35 693.812 1539.09 718.539 1575.6 767.993 1602.15 806.851 1625.38 842.175 1645.3 870.435 1678.49 873.967 1695.08 877.5 1711.67 863.37 1714.99 845.708 1718.31 828.045 1705.04 810.383 1688.44 806.851 1688.44 806.851 1688.44 806.851 1688.44 806.851 1681.8 803.318 1665.21 782.123 1655.25 767.993 1622.07 722.071 1582.24 662.019 1502.59 630.227 1442.85 605.5 1386.43 619.63 1346.6 665.552 1303.46 718.539 1293.5 803.318 1323.37 863.37 1336.64 891.63 1333.33 919.89 1330.01 944.617 1326.69 979.941 1320.05 1025.86 1363.2 1061.19Z" stroke="#333333" stroke-width="6.875" stroke-linecap="round" stroke-linejoin="round" stroke-miterlimit="10" fill="none" fill-rule="evenodd"/></g></svg>