<svg width="472" height="491" xmlns="http://www.w3.org/2000/svg" xmlns:xlink="http://www.w3.org/1999/xlink" xml:space="preserve" overflow="hidden"><g transform="translate(-1848 -1090)"><path d="M1860 1335C1860 1201.35 1961.41 1093 2086.5 1093 2211.59 1093 2313 1201.35 2313 1335 2313 1468.65 2211.59 1577 2086.5 1577 1961.41 1577 1860 1468.65 1860 1335Z" fill="#CEAACE" fill-rule="evenodd"/><path d="M1860.5 1335.5C1860.5 1201.85 1961.91 1093.5 2087 1093.5 2212.09 1093.5 2313.5 1201.85 2313.5 1335.5 2313.5 1469.15 2212.09 1577.5 2087 1577.5 1961.91 1577.5 1860.5 1469.15 1860.5 1335.5Z" stroke="#333333" stroke-width="6.875" stroke-linecap="round" stroke-linejoin="round" stroke-miterlimit="10" fill="none" fill-rule="evenodd"/><path d="M1953 1345.5C1953 1260.72 2017.47 1192 2097 1192 2176.53 1192 2241 1260.72 2241 1345.5 2241 1430.28 2176.53 1499 2097 1499 2017.47 1499 1953 1430.28 1953 1345.5Z" fill="#FFFF00" fill-rule="evenodd"/><path d="M1889.52 1357.89C1889.52 1227.11 1991.98 1121.07 2114.26 1121.07 2124.17 1121.07 2134.09 1121.07 2144 1121.07 2127.48 1117.53 2104.34 1114 2084.51 1114 1968.84 1114 1873 1212.97 1873 1336.68 1873 1386.17 1889.52 1435.65 1915.96 1471 1899.44 1439.19 1889.52 1400.31 1889.52 1357.89Z" fill="#FFFFFF" fill-rule="evenodd"/><path d="M2187.73 1142C2227.46 1180.87 2253.95 1240.95 2253.95 1304.56 2253.95 1428.25 2161.24 1527.19 2045.34 1527.19 2012.23 1527.19 1975.8 1520.13 1946 1502.46 1985.74 1537.8 2032.09 1559 2088.39 1559 2200.97 1559 2297 1460.05 2297 1336.36 2297 1251.55 2250.64 1177.34 2187.73 1142Z" fill="#B783B7" fill-rule="evenodd"/><path d="M1989.49 1347.14C1989.49 1276.79 2055.45 1220.52 2121.4 1220.52 2128 1220.52 2118.11 1220.52 2124.7 1220.52 2111.51 1217 2101.62 1217 2088.43 1217 2025.77 1217 1973 1269.76 1973 1340.1 1973 1368.24 1982.89 1399.9 1999.38 1421 1989.49 1403.41 1989.49 1371.76 1989.49 1347.14Z" fill="#FFFFFF" fill-rule="evenodd"/><path d="M2154.41 1238C2177.59 1262.71 2190.83 1294.48 2190.83 1329.79 2190.83 1396.86 2141.17 1453.35 2074.97 1453.35 2055.1 1453.35 2038.55 1449.82 2022 1439.23 2041.86 1456.88 2068.34 1471 2098.14 1471 2161.03 1471 2214 1414.52 2214 1347.44 2214 1301.55 2190.83 1259.18 2154.41 1238Z" fill="#FFD100" fill-rule="evenodd"/><path d="M1953.5 1346C1953.5 1261.22 2017.97 1192.5 2097.5 1192.5 2177.03 1192.5 2241.5 1261.22 2241.5 1346 2241.5 1430.78 2177.03 1499.5 2097.5 1499.5 2017.97 1499.5 1953.5 1430.78 1953.5 1346Z" stroke="#333333" stroke-width="3.4375" stroke-linecap="round" stroke-linejoin="round" stroke-miterlimit="10" fill="none" fill-rule="evenodd"/><path d="M1986 1225.5C1986 1213.07 1995.63 1203 2007.5 1203 2019.37 1203 2029 1213.07 2029 1225.5 2029 1237.93 2019.37 1248 2007.5 1248 1995.63 1248 1986 1237.93 1986 1225.5Z" fill="#FFFFFF" fill-rule="evenodd"/><path d="M1959 1269.5C1959 1259.83 1965.72 1252 1974 1252 1982.28 1252 1989 1259.83 1989 1269.5 1989 1279.16 1982.28 1287 1974 1287 1965.72 1287 1959 1279.16 1959 1269.5Z" fill="#FFFFFF" fill-rule="evenodd"/><path d="M2039.14 1199.14C2042.29 1195.57 2045.43 1192 2051.71 1195.57 2054.86 1199.14 2058 1202.71 2054.86 1209.86 2054.86 1213.43 2048.57 1217 2042.29 1213.43 2039.14 1209.86 2036 1206.29 2039.14 1199.14Z" fill="#FFFFFF" fill-rule="evenodd"/><path d="M1938.73 1357.64C1942.09 1350.55 1952.18 1347 1958.91 1350.55 1965.64 1354.09 1969 1364.73 1965.64 1371.82 1962.27 1382.45 1952.18 1386 1945.45 1382.45 1935.36 1375.36 1932 1368.27 1938.73 1357.64Z" fill="#FFFFFF" fill-rule="evenodd"/><path d="M2280.17 1230.84C2270.25 1209.68 2270.25 1209.68 2270.25 1209.68 2260.33 1192.05 2240.49 1185 2223.96 1195.58 2207.43 1206.16 2197.51 1227.32 2207.43 1244.95 2220.65 1266.11 2220.65 1266.11 2220.65 1266.11 2237.19 1301.37 2253.72 1333.11 2240.49 1347.21 2233.88 1354.26 2223.96 1354.26 2200.81 1350.74 2167.75 1350.74 2111.53 1343.68 2085.08 1424.79 2078.47 1445.95 2081.77 1463.58 2081.77 1477.68 2085.08 1491.79 2085.08 1495.32 2081.77 1498.84 2071.85 1509.42 2048.71 1502.37 2028.87 1495.32 1999.11 1481.21 1989.19 1453 1972.65 1407.16 1959.43 1371.89 1946.2 1326.05 1906.52 1297.84 1889.99 1287.26 1870.15 1290.79 1856.92 1308.42 1847 1322.53 1850.31 1347.21 1866.84 1357.79 1886.68 1375.42 1896.6 1403.63 1909.83 1435.37 1923.05 1477.68 1942.89 1534.11 2002.41 1562.32 2038.79 1579.95 2095 1587 2131.37 1551.74 2157.83 1520 2154.52 1488.26 2151.21 1467.11 2151.21 1460.05 2151.21 1453 2151.21 1449.47 2157.83 1424.79 2164.44 1424.79 2194.2 1424.79 2220.65 1428.32 2257.03 1431.84 2286.79 1400.11 2343 1347.21 2303.32 1273.16 2280.17 1230.84Z" fill="#FA5E56" fill-rule="evenodd"/><path d="M2257 1217C2290.5 1273.16 2324 1329.33 2283.8 1389 2300.55 1367.94 2300.55 1297.73 2257 1217Z" fill="#E3001D" fill-rule="evenodd"/><path d="M2065 1512.86C2018.61 1512.86 2005.35 1512.86 1975.53 1449.43 1945.71 1386 1942.39 1336.67 1896 1312 1929.14 1350.76 1942.39 1410.67 1962.27 1452.95 1988.78 1512.86 2015.29 1534 2065 1512.86Z" fill="#EAF1F7" fill-rule="evenodd"/><path d="M2248 1413.71C2214.57 1413.71 2134.34 1389 2141.03 1449 2134.34 1417.24 2131 1406.65 2161.09 1399.59 2194.51 1389 2227.94 1417.24 2248 1413.71Z" fill="#E3001D" fill-rule="evenodd"/><path d="M2280.67 1231.34C2270.75 1210.18 2270.75 1210.18 2270.75 1210.18 2260.83 1192.55 2240.99 1185.5 2224.46 1196.08 2207.93 1206.66 2198.01 1227.82 2207.93 1245.45 2221.15 1266.61 2221.15 1266.61 2221.15 1266.61 2237.69 1301.87 2254.22 1333.61 2240.99 1347.71 2234.38 1354.76 2224.46 1354.76 2201.31 1351.24 2168.25 1351.24 2112.03 1344.18 2085.58 1425.29 2078.97 1446.45 2082.27 1464.08 2082.27 1478.18 2085.58 1492.29 2085.58 1495.82 2082.27 1499.34 2072.35 1509.92 2049.21 1502.87 2029.37 1495.82 1999.61 1481.71 1989.69 1453.5 1973.15 1407.66 1959.93 1372.39 1946.7 1326.55 1907.02 1298.34 1890.49 1287.76 1870.65 1291.29 1857.42 1308.92 1847.5 1323.03 1850.81 1347.71 1867.34 1358.29 1887.18 1375.92 1897.1 1404.13 1910.33 1435.87 1923.55 1478.18 1943.39 1534.61 2002.91 1562.82 2039.29 1580.45 2095.5 1587.5 2131.87 1552.24 2158.33 1520.5 2155.02 1488.76 2151.71 1467.61 2151.71 1460.55 2151.71 1453.5 2151.71 1449.97 2158.33 1425.29 2164.94 1425.29 2194.7 1425.29 2221.15 1428.82 2257.53 1432.34 2287.29 1400.61 2343.5 1347.71 2303.82 1273.66 2280.67 1231.34Z" stroke="#333333" stroke-width="6.875" stroke-linecap="round" stroke-linejoin="round" stroke-miterlimit="10" fill="none" fill-rule="evenodd"/></g></svg>