<svg width="413" height="453" xmlns="http://www.w3.org/2000/svg" xmlns:xlink="http://www.w3.org/1999/xlink" xml:space="preserve" overflow="hidden"><g transform="translate(-2236 -618)"><path d="M2271 846.5C2271 736.319 2354.72 647 2458 647 2561.28 647 2645 736.319 2645 846.5 2645 956.681 2561.28 1046 2458 1046 2354.72 1046 2271 956.681 2271 846.5Z" fill="#CEAACE" fill-rule="evenodd"/><path d="M2271.5 847C2271.5 736.819 2355.22 647.5 2458.5 647.5 2561.78 647.5 2645.5 736.819 2645.5 847 2645.5 957.181 2561.78 1046.5 2458.5 1046.5 2355.22 1046.5 2271.5 957.181 2271.5 847Z" stroke="#333333" stroke-width="6.875" stroke-linecap="round" stroke-linejoin="round" stroke-miterlimit="10" fill="none" fill-rule="evenodd"/><path d="M2328 862.5C2328 799.816 2376.13 749 2435.5 749 2494.87 749 2543 799.816 2543 862.5 2543 925.184 2494.87 976 2435.5 976 2376.13 976 2328 925.184 2328 862.5Z" fill="#FFFF00" fill-rule="evenodd"/><path d="M2304.29 862.729C2304.29 756.803 2384.05 672.062 2483.74 672.062 2490.38 672.062 2500.35 672.062 2507 675.593 2490.38 668.531 2473.77 665 2457.15 665 2367.43 665 2291 746.21 2291 845.074 2291 883.914 2304.29 919.222 2324.23 951 2310.94 922.753 2304.29 894.506 2304.29 862.729Z" fill="#FFFFFF" fill-rule="evenodd"/><path d="M2539.64 689C2572.86 720.883 2592.79 766.936 2592.79 820.074 2592.79 915.723 2519.71 997.202 2426.71 997.202 2400.14 997.202 2373.57 990.117 2347 975.947 2376.89 1004.29 2416.75 1022 2459.93 1022 2552.93 1022 2626 940.521 2626 844.872 2626 777.564 2589.46 717.34 2539.64 689Z" fill="#B783B7" fill-rule="evenodd"/><path d="M2360.22 869.636C2360.22 816.796 2409.81 774.523 2462.69 774.523 2466 774.523 2459.39 774.523 2462.69 774.523 2452.78 771 2446.17 771 2436.25 771 2386.67 771 2347 813.273 2347 862.591 2347 887.25 2356.92 911.909 2366.83 926 2360.22 911.909 2360.22 887.25 2360.22 869.636Z" fill="#FFFFFF" fill-rule="evenodd"/><path d="M2486.64 788C2503.2 805.7 2516.44 830.48 2516.44 858.8 2516.44 908.36 2476.71 950.84 2427.04 950.84 2410.49 950.84 2397.24 947.3 2384 940.22 2400.56 954.38 2420.42 965 2443.6 965 2493.27 965 2533 922.52 2533 869.42 2533 834.02 2513.13 802.16 2486.64 788Z" fill="#FFD100" fill-rule="evenodd"/><path d="M2328.5 863C2328.5 800.316 2376.63 749.5 2436 749.5 2495.37 749.5 2543.5 800.316 2543.5 863 2543.5 925.684 2495.37 976.5 2436 976.5 2376.63 976.5 2328.5 925.684 2328.5 863Z" stroke="#333333" stroke-width="3.4375" stroke-linecap="round" stroke-linejoin="round" stroke-miterlimit="10" fill="none" fill-rule="evenodd"/><path d="M2447 761.5C2447 746.864 2457.97 735 2471.5 735 2485.03 735 2496 746.864 2496 761.5 2496 776.135 2485.03 788 2471.5 788 2457.97 788 2447 776.135 2447 761.5Z" fill="#FFFFFF" fill-rule="evenodd"/><path d="M2503 795C2503 785.059 2510.39 777 2519.5 777 2528.61 777 2536 785.059 2536 795 2536 804.941 2528.61 813 2519.5 813 2510.39 813 2503 804.941 2503 795Z" fill="#FFFFFF" fill-rule="evenodd"/><path d="M2374 765C2374 758.373 2379.15 753 2385.5 753 2391.85 753 2397 758.373 2397 765 2397 771.627 2391.85 777 2385.5 777 2379.15 777 2374 771.627 2374 765Z" fill="#FFFFFF" fill-rule="evenodd"/><path d="M2549.88 834.238C2540 862.429 2576.21 873 2592.67 862.429 2619 844.81 2599.25 820.143 2605.83 799" fill="#B783B7" fill-rule="evenodd"/><path d="M2526 993.25C2532.77 1004.12 2529.38 1015 2542.92 1015 2553.08 1015 2563.23 993.25 2570 986" fill="#B783B7" fill-rule="evenodd"/><path d="M2440 707C2463.27 664.25 2523.11 699.875 2559.68 699.875 2563 650 2473.24 660.688 2453.3 682.063" fill="#B783B7" fill-rule="evenodd"/><path d="M2284.83 1014.09C2321.21 1045.83 2380.74 1045.83 2420.43 992.921 2433.65 968.228 2433.65 968.228 2433.65 968.228 2453.5 940.008 2460.11 929.425 2489.87 932.953 2526.25 936.48 2559.32 999.976 2559.32 1045.83 2559.32 1056.42 2569.24 1067 2582.47 1067 2592.39 1067 2605.62 1056.42 2605.62 1045.83 2605.62 982.339 2562.63 890.622 2496.49 883.567 2436.96 876.512 2417.12 911.787 2397.28 943.536 2384.05 961.173 2384.05 961.173 2384.05 961.173 2360.9 996.449 2327.83 989.394 2311.29 975.284 2288.14 957.646 2274.91 922.37 2298.06 887.095 2307.98 869.457 2327.83 855.346 2350.98 844.764 2364.2 834.181 2380.74 827.126 2393.97 813.016 2420.43 791.85 2427.04 760.102 2436.96 731.882 2443.57 710.717 2446.88 693.079 2460.11 682.496 2466.72 675.441 2496.49 668.386 2532.87 671.914 2562.63 675.441 2575.86 686.024 2579.17 689.551 2589.09 707.189 2579.17 728.354 2562.63 760.102 2549.4 777.74 2539.48 798.906 2536.17 823.599 2536.17 834.181 2546.09 848.291 2559.32 848.291 2569.24 848.291 2582.47 837.709 2582.47 827.126 2582.47 816.543 2592.39 798.906 2602.31 784.795 2618.85 753.047 2642 707.189 2615.54 664.858 2602.31 636.638 2565.94 626.055 2539.48 622.528 2499.8 619 2450.19 622.528 2427.04 647.221 2407.2 668.386 2400.58 693.079 2393.97 717.772 2387.35 742.465 2380.74 763.63 2364.2 777.74 2354.28 784.795 2341.06 795.378 2327.83 802.433 2304.68 816.543 2278.22 830.654 2258.38 858.874 2222 922.37 2241.84 982.339 2284.83 1014.09Z" fill="#FA5E56" fill-rule="evenodd"/><path d="M2268.11 862C2248.24 900.94 2235 943.42 2268.11 985.9 2301.22 1028.38 2340.96 1039 2384 1017.76 2354.2 1024.84 2304.53 1021.3 2274.73 978.82 2241.62 939.88 2254.87 886.78 2268.11 862Z" fill="#E3001D" fill-rule="evenodd"/><path d="M2437.31 696.467C2450.53 668.2 2457.14 661.133 2500.12 661.133 2543.1 657.6 2596 671.733 2592.69 700 2589.39 668.2 2569.55 647 2486.9 654.067 2434 657.6 2437.31 696.467 2437.31 696.467Z" fill="#E3001D" fill-rule="evenodd"/><path d="M2563 1022C2556.3 986.286 2542.91 939.857 2486 922 2512.78 925.571 2559.65 947 2563 1022Z" fill="#EAF1F7" fill-rule="evenodd"/><path d="M2384 976C2407.21 944.034 2437.05 873 2510 894.31 2483.47 894.31 2453.63 897.862 2433.74 919.172 2417.16 940.483 2397.26 968.896 2384 976Z" fill="#EAF1F7" fill-rule="evenodd"/><path d="M2576 816C2582.57 791.354 2622 745.583 2618.71 703.333 2615.43 661.083 2602.29 657.562 2585.86 647 2602.29 657.562 2615.43 685.729 2612.14 713.896 2612.14 738.542 2576 798.396 2576 816Z" fill="#E3001D" fill-rule="evenodd"/><path d="M2285.33 1014.59C2321.71 1046.33 2381.24 1046.33 2420.93 993.421 2434.15 968.728 2434.15 968.728 2434.15 968.728 2454 940.508 2460.61 929.925 2490.37 933.453 2526.75 936.98 2559.82 1000.48 2559.82 1046.33 2559.82 1056.92 2569.74 1067.5 2582.97 1067.5 2592.89 1067.5 2606.12 1056.92 2606.12 1046.33 2606.12 982.838 2563.13 891.122 2496.99 884.067 2437.46 877.012 2417.62 912.287 2397.78 944.035 2384.55 961.673 2384.55 961.673 2384.55 961.673 2361.4 996.949 2328.33 989.894 2311.79 975.783 2288.64 958.146 2275.41 922.87 2298.56 887.594 2308.48 869.957 2328.33 855.846 2351.48 845.264 2364.7 834.681 2381.24 827.626 2394.47 813.516 2420.93 792.35 2427.54 760.602 2437.46 732.382 2444.07 711.216 2447.38 693.579 2460.61 682.996 2467.22 675.941 2496.99 668.886 2533.37 672.413 2563.13 675.941 2576.36 686.524 2579.67 690.051 2589.59 707.689 2579.67 728.854 2563.13 760.602 2549.9 778.24 2539.98 799.405 2536.67 824.098 2536.67 834.681 2546.59 848.791 2559.82 848.791 2569.74 848.791 2582.97 838.209 2582.97 827.626 2582.97 817.043 2592.89 799.405 2602.81 785.295 2619.35 753.547 2642.5 707.689 2616.04 665.358 2602.81 637.138 2566.44 626.555 2539.98 623.028 2500.3 619.5 2450.69 623.028 2427.54 647.72 2407.7 668.886 2401.08 693.579 2394.47 718.272 2387.85 742.964 2381.24 764.13 2364.7 778.24 2354.78 785.295 2341.55 795.878 2328.33 802.933 2305.18 817.043 2278.72 831.153 2258.88 859.374 2222.5 922.87 2242.34 982.838 2285.33 1014.59Z" stroke="#333333" stroke-width="6.875" stroke-linecap="round" stroke-linejoin="round" stroke-miterlimit="10" fill="none" fill-rule="evenodd"/></g></svg>