<svg width="428" height="441" xmlns="http://www.w3.org/2000/svg" xmlns:xlink="http://www.w3.org/1999/xlink" xml:space="preserve" overflow="hidden"><g transform="translate(-2426 -1523)"><path d="M2444 1743.5C2444 1623.38 2535.11 1526 2647.5 1526 2759.89 1526 2851 1623.38 2851 1743.5 2851 1863.62 2759.89 1961 2647.5 1961 2535.11 1961 2444 1863.62 2444 1743.5Z" fill="#CEAACE" fill-rule="evenodd"/><path d="M2483.26 1766.41C2483.26 1653.13 2569.43 1561.08 2675.49 1561.08 2685.43 1561.08 2692.06 1561.08 2702 1564.62 2685.43 1557.54 2665.54 1554 2648.97 1554 2549.54 1554 2470 1638.97 2470 1745.17 2470 1787.66 2483.26 1830.14 2506.46 1862 2493.2 1833.68 2483.26 1798.28 2483.26 1766.41Z" fill="#FFFFFF" fill-rule="evenodd"/><path d="M2735.19 1579C2771.65 1614.35 2794.85 1663.83 2794.85 1720.39 2794.85 1822.89 2715.3 1907.72 2615.87 1907.72 2586.03 1907.72 2556.2 1900.65 2533 1886.51 2562.83 1918.33 2605.92 1936 2652.33 1936 2748.45 1936 2828 1851.17 2828 1745.13 2828 1674.44 2791.54 1610.81 2735.19 1579Z" fill="#B783B7" fill-rule="evenodd"/><path d="M2540 1748.5C2540 1680.29 2591.26 1625 2654.5 1625 2717.74 1625 2769 1680.29 2769 1748.5 2769 1816.71 2717.74 1872 2654.5 1872 2591.26 1872 2540 1816.71 2540 1748.5Z" fill="#FFFF00" fill-rule="evenodd"/><path d="M2563.03 1752.15C2563.03 1692.29 2619.84 1646.52 2673.32 1646.52 2680 1646.52 2669.97 1646.52 2673.32 1646.52 2666.63 1646.52 2656.61 1643 2646.58 1643 2593.11 1643 2553 1688.77 2553 1745.1 2553 1766.23 2559.68 1794.4 2573.05 1812 2563.03 1794.4 2563.03 1769.75 2563.03 1752.15Z" fill="#FFFFFF" fill-rule="evenodd"/><path d="M2699.31 1664C2719.19 1681.64 2729.12 1706.34 2729.12 1738.09 2729.12 1791.02 2689.38 1836.89 2636.38 1836.89 2619.81 1836.89 2603.25 1833.36 2590 1826.3 2606.56 1840.42 2629.75 1851 2652.94 1851 2705.94 1851 2749 1805.13 2749 1752.21 2749 1713.4 2729.12 1678.11 2699.31 1664Z" fill="#FFD100" fill-rule="evenodd"/><path d="M2540.5 1749C2540.5 1680.79 2591.76 1625.5 2655 1625.5 2718.24 1625.5 2769.5 1680.79 2769.5 1749 2769.5 1817.21 2718.24 1872.5 2655 1872.5 2591.76 1872.5 2540.5 1817.21 2540.5 1749Z" stroke="#333333" stroke-width="3.4375" stroke-linecap="round" stroke-linejoin="round" stroke-miterlimit="10" fill="none" fill-rule="evenodd"/><path d="M2520 1701C2520 1688.3 2529.63 1678 2541.5 1678 2553.37 1678 2563 1688.3 2563 1701 2563 1713.7 2553.37 1724 2541.5 1724 2529.63 1724 2520 1713.7 2520 1701Z" fill="#FFFFFF" fill-rule="evenodd"/><path d="M2524 1743.5C2524 1736.6 2529.15 1731 2535.5 1731 2541.85 1731 2547 1736.6 2547 1743.5 2547 1750.4 2541.85 1756 2535.5 1756 2529.15 1756 2524 1750.4 2524 1743.5Z" fill="#FFFFFF" fill-rule="evenodd"/><path d="M2570 1692C2570 1688.13 2573.81 1685 2578.5 1685 2583.19 1685 2587 1688.13 2587 1692 2587 1695.87 2583.19 1699 2578.5 1699 2573.81 1699 2570 1695.87 2570 1692Z" fill="#FFFFFF" fill-rule="evenodd"/><path d="M2444 1743.5C2444 1623.38 2535.11 1526 2647.5 1526 2759.89 1526 2851 1623.38 2851 1743.5 2851 1863.62 2759.89 1961 2647.5 1961 2535.11 1961 2444 1863.62 2444 1743.5Z" stroke="#333333" stroke-width="6.30226" stroke-linecap="round" stroke-linejoin="round" stroke-miterlimit="10" fill="none" fill-rule="evenodd"/><path d="M2785.2 1649.5C2738.85 1603.54 2702.43 1614.14 2669.32 1624.75 2649.45 1628.28 2649.45 1628.28 2649.45 1628.28 2622.97 1635.35 2609.72 1628.28 2586.55 1617.68 2543.5 1603.54 2543.5 1603.54 2543.5 1603.54 2530.26 1600 2520.33 1607.07 2513.71 1621.21 2510.4 1635.35 2520.33 1653.03 2533.57 1656.57 2569.99 1667.17 2569.99 1667.17 2569.99 1667.17 2593.17 1677.78 2619.66 1688.38 2659.39 1681.31 2679.25 1674.24 2679.25 1674.24 2679.25 1674.24 2712.36 1667.17 2725.6 1663.64 2748.78 1688.38 2758.71 1698.99 2765.34 1720.2 2765.34 1748.48 2762.03 1787.37 2748.78 1833.33 2728.92 1851.01 2709.05 1872.22 2666.01 1886.36 2649.45 1875.76 2639.52 1865.15 2639.52 1858.08 2639.52 1833.33 2639.52 1812.12 2639.52 1783.84 2622.97 1762.63 2603.1 1734.34 2569.99 1734.34 2550.13 1737.88 2536.88 1737.88 2526.95 1737.88 2520.33 1734.34 2493.84 1723.74 2473.97 1684.85 2480.6 1653.03 2483.91 1635.35 2473.97 1621.21 2460.73 1621.21 2447.49 1617.68 2434.24 1624.75 2430.93 1638.89 2421 1698.99 2450.8 1766.16 2503.77 1787.37 2520.33 1790.91 2536.88 1790.91 2550.13 1790.91 2569.99 1790.91 2579.92 1790.91 2583.24 1794.44 2589.86 1801.52 2589.86 1812.12 2589.86 1829.8 2586.55 1858.08 2586.55 1893.43 2619.66 1918.18 2659.39 1950 2728.92 1925.25 2762.03 1893.43 2798.45 1861.62 2815 1797.98 2815 1748.48 2815 1706.06 2805.07 1670.71 2785.2 1649.5Z" fill="#FA5E56" fill-rule="evenodd"/><path d="M2805 1717C2801.69 1681.44 2778.55 1649.44 2752.1 1635.22 2725.65 1621 2702.5 1624.56 2679.35 1631.67 2659.52 1638.78 2633.06 1649.44 2600 1631.67 2616.53 1649.44 2649.6 1642.33 2692.58 1638.78 2735.56 1635.22 2781.85 1660.11 2805 1717Z" fill="#EAF1F7" fill-rule="evenodd"/><path d="M2537 1748.52C2573.51 1745 2596.74 1748.52 2619.98 1769.66 2639.89 1790.8 2619.98 1840.11 2633.26 1868.3 2646.53 1896.48 2669.77 1889.43 2693 1882.39 2666.45 1896.48 2633.26 1900 2623.3 1868.3 2616.66 1840.11 2626.62 1790.8 2603.38 1769.66 2580.15 1748.52 2540.32 1748.52 2537 1748.52Z" fill="#EAF1F7" fill-rule="evenodd"/><path d="M2440.92 1639C2437.62 1685.12 2447.54 1745.43 2497.15 1773.81 2526.92 1788 2550.08 1784.45 2560 1784.45 2543.46 1780.9 2507.08 1777.36 2480.62 1752.52 2454.15 1727.69 2431 1667.38 2440.92 1639Z" fill="#E3001D" fill-rule="evenodd"/><path d="M2529.96 1621C2520 1631.76 2523.32 1646.12 2549.89 1653.29 2573.14 1664.06 2613 1674.82 2636.25 1678.41 2656.18 1682 2706 1664.06 2706 1664.06 2676.11 1667.65 2646.21 1678.41 2616.32 1667.65 2583.11 1656.88 2520 1635.35 2529.96 1621Z" fill="#E3001D" fill-rule="evenodd"/><path d="M2775 1858C2761.78 1882.77 2689.09 1950 2623 1907.54 2646.13 1918.15 2712.22 1921.69 2775 1858Z" fill="#E3001D" fill-rule="evenodd"/><path d="M2785.2 1649.5C2738.85 1603.54 2702.43 1614.14 2669.32 1624.75 2649.45 1628.28 2649.45 1628.28 2649.45 1628.28 2622.97 1635.35 2609.72 1628.28 2586.55 1617.68 2543.5 1603.54 2543.5 1603.54 2543.5 1603.54 2530.26 1600 2520.33 1607.07 2513.71 1621.21 2510.4 1635.35 2520.33 1653.03 2533.57 1656.57 2569.99 1667.17 2569.99 1667.17 2569.99 1667.17 2593.17 1677.78 2619.66 1688.38 2659.39 1681.31 2679.25 1674.24 2679.25 1674.24 2679.25 1674.24 2712.36 1667.17 2725.6 1663.64 2748.78 1688.38 2758.71 1698.99 2765.34 1720.2 2765.34 1748.48 2762.03 1787.37 2748.78 1833.33 2728.92 1851.01 2709.05 1872.22 2666.01 1886.36 2649.45 1875.76 2639.52 1865.15 2639.52 1858.08 2639.52 1833.33 2639.52 1812.12 2639.52 1783.84 2622.97 1762.63 2603.1 1734.34 2569.99 1734.34 2550.13 1737.88 2536.88 1737.88 2526.95 1737.88 2520.33 1734.34 2493.84 1723.74 2473.97 1684.85 2480.6 1653.03 2483.91 1635.35 2473.97 1621.21 2460.73 1621.21 2447.49 1617.68 2434.24 1624.75 2430.93 1638.89 2421 1698.99 2450.8 1766.16 2503.77 1787.37 2520.33 1790.91 2536.88 1790.91 2550.13 1790.91 2569.99 1790.91 2579.92 1790.91 2583.24 1794.44 2589.86 1801.52 2589.86 1812.12 2589.86 1829.8 2586.55 1858.08 2586.55 1893.43 2619.66 1918.18 2659.39 1950 2728.92 1925.25 2762.03 1893.43 2798.45 1861.62 2815 1797.98 2815 1748.48 2815 1706.06 2805.07 1670.71 2785.2 1649.5Z" stroke="#333333" stroke-width="6.30226" stroke-linecap="round" stroke-linejoin="round" stroke-miterlimit="10" fill="none" fill-rule="evenodd"/></g></svg>