<svg width="467" height="550" xmlns="http://www.w3.org/2000/svg" xmlns:xlink="http://www.w3.org/1999/xlink" xml:space="preserve" overflow="hidden"><g transform="translate(-3112 -1417)"><path d="M3115 1718C3115 1582.69 3217.97 1473 3345 1473 3472.03 1473 3575 1582.69 3575 1718 3575 1853.31 3472.03 1963 3345 1963 3217.97 1963 3115 1853.31 3115 1718Z" fill="#CEAACE" fill-rule="evenodd"/><path d="M3208 1718C3208 1637.37 3269.34 1572 3345 1572 3420.66 1572 3482 1637.37 3482 1718 3482 1798.63 3420.66 1864 3345 1864 3269.34 1864 3208 1798.63 3208 1718Z" fill="#FFFF00" fill-rule="evenodd"/><path d="M3154.54 1744.04C3154.54 1610.48 3253.8 1505.03 3376.22 1505.03 3386.15 1505.03 3396.07 1508.54 3406 1508.54 3389.46 1501.52 3366.3 1498 3346.44 1498 3230.64 1498 3138 1596.42 3138 1719.44 3138 1772.16 3154.54 1817.85 3181.01 1853 3164.47 1821.37 3154.54 1782.7 3154.54 1744.04Z" fill="#FFFFFF" fill-rule="evenodd"/><path d="M3448.94 1526C3488.6 1568.3 3515.04 1624.71 3515.04 1691.69 3515.04 1811.56 3422.5 1913.8 3310.14 1913.8 3273.79 1913.8 3240.74 1903.22 3211 1885.59 3247.35 1920.85 3293.62 1942 3349.8 1942 3462.16 1942 3558 1843.29 3558 1719.9 3558 1635.29 3511.73 1564.78 3448.94 1526Z" fill="#B783B7" fill-rule="evenodd"/><path d="M3247.24 1723.29C3247.24 1652.57 3310.16 1603.07 3376.38 1603.07 3383 1603.07 3369.76 1599.54 3376.38 1599.54 3366.44 1596 3356.51 1596 3343.27 1596 3283.67 1596 3234 1649.04 3234 1712.68 3234 1740.96 3240.62 1772.79 3257.18 1794 3247.24 1776.32 3247.24 1744.5 3247.24 1723.29Z" fill="#FFFFFF" fill-rule="evenodd"/><path d="M3406.54 1617C3426.46 1638.24 3443.07 1670.1 3443.07 1705.49 3443.07 1769.21 3393.25 1822.3 3330.14 1822.3 3313.54 1822.3 3293.61 1818.76 3277 1808.14 3296.93 1829.38 3323.5 1840 3353.39 1840 3413.18 1840 3463 1786.9 3463 1723.19 3463 1677.17 3439.75 1638.24 3406.54 1617Z" fill="#FFD100" fill-rule="evenodd"/><path d="M3208.5 1718.5C3208.5 1637.87 3269.84 1572.5 3345.5 1572.5 3421.16 1572.5 3482.5 1637.87 3482.5 1718.5 3482.5 1799.13 3421.16 1864.5 3345.5 1864.5 3269.84 1864.5 3208.5 1799.13 3208.5 1718.5Z" stroke="#333333" stroke-width="3.4375" stroke-linecap="round" stroke-linejoin="round" stroke-miterlimit="10" fill="none" fill-rule="evenodd"/><path d="M3214 1637C3214 1620.43 3226.76 1607 3242.5 1607 3258.24 1607 3271 1620.43 3271 1637 3271 1653.57 3258.24 1667 3242.5 1667 3226.76 1667 3214 1653.57 3214 1637Z" fill="#FFFFFF" fill-rule="evenodd"/><path d="M3204.3 1673.8C3207.6 1666.6 3217.5 1663 3224.1 1666.6 3230.7 1670.2 3234 1681 3230.7 1688.2 3227.4 1695.4 3217.5 1699 3210.9 1695.4 3204.3 1691.8 3201 1681 3204.3 1673.8Z" fill="#FFFFFF" fill-rule="evenodd"/><path d="M3264 1596C3267.33 1589 3274 1589 3277.33 1592.5 3284 1592.5 3284 1599.5 3280.67 1603 3280.67 1610 3274 1610 3270.67 1610 3264 1606.5 3264 1599.5 3264 1596Z" fill="#FFFFFF" fill-rule="evenodd"/><path d="M3115.5 1718.5C3115.5 1583.19 3218.47 1473.5 3345.5 1473.5 3472.53 1473.5 3575.5 1583.19 3575.5 1718.5 3575.5 1853.81 3472.53 1963.5 3345.5 1963.5 3218.47 1963.5 3115.5 1853.81 3115.5 1718.5Z" stroke="#333333" stroke-width="6.875" stroke-linecap="round" stroke-linejoin="round" stroke-miterlimit="10" fill="none" fill-rule="evenodd"/><path d="M3449.42 1529C3495.67 1550.22 3492.36 1603.28 3508.88 1645.72 3512.18 1656.33 3532 1702.31 3512.18 1709.39 3489.06 1720 3472.55 1666.94 3465.94 1652.8 3452.73 1617.43 3429.61 1578.52 3423 1539.61" fill="#B783B7" fill-rule="evenodd"/><path d="M3121 1815.17C3124.32 1797.51 3137.58 1783.38 3157.47 1783.38 3190.62 1786.91 3200.57 1779.85 3213.83 1772.79 3246.98 1755.13 3270.19 1751.6 3329.87 1786.91 3369.65 1808.11 3419.38 1836.36 3442.59 1829.3 3449.22 1825.77 3455.85 1822.23 3465.8 1804.57 3482.38 1772.79 3472.43 1758.66 3455.85 1723.34 3439.28 1684.49 3439.28 1684.49 3439.28 1684.49 3432.65 1670.36 3426.02 1663.3 3419.38 1652.7 3402.81 1627.98 3389.55 1606.79 3386.23 1532.62 3386.23 1522.02 3382.92 1493.77 3369.65 1490.23 3356.39 1486.7 3326.55 1497.3 3296.72 1529.09 3286.77 1543.21 3266.88 1543.21 3253.62 1532.62 3240.35 1518.49 3240.35 1497.3 3250.3 1483.17 3293.4 1433.72 3346.45 1409 3389.55 1426.66 3409.44 1433.72 3445.91 1458.45 3449.22 1529.09 3452.54 1585.6 3459.17 1596.19 3472.43 1613.85 3479.06 1624.45 3489.01 1635.04 3495.64 1659.77 3512.22 1691.55 3512.22 1691.55 3512.22 1691.55 3532.11 1730.4 3552 1772.79 3522.16 1836.36 3505.58 1868.15 3485.69 1885.81 3462.48 1892.87 3416.07 1907 3363.02 1882.28 3300.03 1843.43 3260.25 1822.23 3256.93 1825.77 3243.67 1832.83 3230.41 1843.43 3203.88 1857.55 3150.84 1854.02 3134.26 1850.49 3121 1836.36 3121 1815.17Z" fill="#FA5E56" fill-rule="evenodd"/><path d="M3432.9 1631.07C3446.06 1648.7 3488.84 1733.3 3495.42 1761.5 3502 1786.17 3485.55 1810.85 3455.94 1832 3455.94 1832 3488.84 1796.75 3485.55 1768.55 3482.26 1736.82 3446.06 1669.85 3426.32 1641.65 3406.58 1609.92 3406.58 1592.3 3400 1550 3409.87 1571.15 3419.74 1602.88 3432.9 1631.07Z" fill="#EAF1F7" fill-rule="evenodd"/><path d="M3161 1800.5C3197.59 1800.5 3207.57 1790 3234.17 1779.5 3260.78 1769 3287.39 1776 3314 1790 3290.72 1783 3254.13 1779.5 3230.85 1793.5 3207.57 1804 3161 1800.5 3161 1800.5Z" fill="#EAF1F7" fill-rule="evenodd"/><path d="M3297 1458.78C3336.91 1434.06 3383.48 1427 3416.74 1462.31 3450 1497.62 3440.02 1540 3440.02 1540 3436.7 1518.81 3426.72 1479.97 3393.46 1458.78 3360.2 1441.12 3323.61 1448.19 3297 1458.78Z" fill="#E3001D" fill-rule="evenodd"/><path d="M3121.5 1815.67C3124.82 1798.01 3138.08 1783.88 3157.97 1783.88 3191.12 1787.41 3201.07 1780.35 3214.33 1773.29 3247.48 1755.63 3270.69 1752.1 3330.37 1787.41 3370.15 1808.61 3419.88 1836.86 3443.09 1829.8 3449.72 1826.27 3456.35 1822.73 3466.3 1805.07 3482.88 1773.29 3472.93 1759.16 3456.35 1723.84 3439.78 1684.99 3439.78 1684.99 3439.78 1684.99 3433.15 1670.86 3426.52 1663.8 3419.88 1653.2 3403.31 1628.48 3390.05 1607.29 3386.73 1533.12 3386.73 1522.52 3383.42 1494.27 3370.15 1490.73 3356.89 1487.2 3327.05 1497.8 3297.22 1529.58 3287.27 1543.71 3267.38 1543.71 3254.12 1533.12 3240.85 1518.99 3240.85 1497.8 3250.8 1483.67 3293.9 1434.22 3346.95 1409.5 3390.05 1427.16 3409.94 1434.22 3446.41 1458.95 3449.72 1529.58 3453.04 1586.1 3459.67 1596.69 3472.93 1614.35 3479.56 1624.95 3489.51 1635.54 3496.14 1660.27 3512.72 1692.05 3512.72 1692.05 3512.72 1692.05 3532.61 1730.9 3552.5 1773.29 3522.66 1836.86 3506.08 1868.65 3486.19 1886.31 3462.98 1893.37 3416.57 1907.5 3363.52 1882.78 3300.53 1843.93 3260.75 1822.73 3257.43 1826.27 3244.17 1833.33 3230.91 1843.93 3204.38 1858.05 3151.34 1854.52 3134.76 1850.99 3121.5 1836.86 3121.5 1815.67Z" stroke="#333333" stroke-width="6.875" stroke-linecap="round" stroke-linejoin="round" stroke-miterlimit="10" fill="none" fill-rule="evenodd"/></g></svg>