<svg width="532" height="585" xmlns="http://www.w3.org/2000/svg" xmlns:xlink="http://www.w3.org/1999/xlink" xml:space="preserve" overflow="hidden"><g transform="translate(-2197 -685)"><path d="M2200 965.5C2200 812.241 2316.41 688 2460 688 2603.59 688 2720 812.241 2720 965.5 2720 1118.76 2603.59 1243 2460 1243 2316.41 1243 2200 1118.76 2200 965.5Z" fill="#D5D6E4" fill-rule="evenodd"/><path d="M2249.95 990.069C2249.95 847.931 2361.25 732.683 2494.1 732.683 2504.87 732.683 2519.23 732.683 2530 732.683 2508.46 728.842 2483.33 725 2461.78 725 2336.12 725 2232 832.564 2232 967.02 2232 1024.64 2249.95 1074.58 2282.27 1113 2260.72 1078.43 2249.95 1036.17 2249.95 990.069Z" fill="#FFFFFF" fill-rule="evenodd"/><path d="M2573.39 756C2620.11 798.135 2648.87 863.254 2648.87 932.203 2648.87 1066.27 2544.63 1177.36 2418.83 1177.36 2382.89 1177.36 2343.35 1165.86 2311 1146.71 2354.13 1185.02 2404.45 1208 2465.56 1208 2591.36 1208 2692 1100.75 2692 966.678 2692 874.746 2641.68 794.305 2573.39 756Z" fill="#BBBCD3" fill-rule="evenodd"/><path d="M2322 971C2322 884.291 2387.81 814 2469 814 2550.19 814 2616 884.291 2616 971 2616 1057.71 2550.19 1128 2469 1128 2387.81 1128 2322 1057.71 2322 971Z" fill="#FFFF00" fill-rule="evenodd"/><path d="M2354 974.214C2354 897.429 2422.4 839.839 2494.4 839.839 2498 839.839 2487.2 839.839 2494.4 839.839 2483.6 836 2469.2 836 2458.4 836 2390 836 2336 893.589 2336 962.696 2336 993.411 2346.8 1027.96 2361.2 1051 2354 1031.8 2354 997.25 2354 974.214Z" fill="#FFFFFF" fill-rule="evenodd"/><path d="M2525.98 860C2547.52 882.952 2565.46 917.381 2565.46 955.635 2565.46 1028.32 2511.62 1085.7 2443.43 1085.7 2421.89 1085.7 2403.95 1078.05 2386 1070.4 2407.54 1089.52 2436.25 1101 2468.55 1101 2533.16 1101 2587 1043.62 2587 974.762 2587 925.032 2561.88 882.952 2525.98 860Z" fill="#FFD100" fill-rule="evenodd"/><path d="M2587 875C2605.06 852.286 2626.72 867.428 2648.39 859.857 2652 822 2612.28 840.928 2597.83 856.071" fill="#BBBCD3" fill-rule="evenodd"/><path d="M2264 1136C2307.38 1097.67 2307.38 1036.33 2314.62 982.667 2318.23 929 2339.92 894.5 2358 848.5 2303.77 814 2267.62 994.167 2267.62 1024.83" fill="#BBBCD3" fill-rule="evenodd"/><path d="M2200.5 966C2200.5 812.741 2316.91 688.5 2460.5 688.5 2604.09 688.5 2720.5 812.741 2720.5 966 2720.5 1119.26 2604.09 1243.5 2460.5 1243.5 2316.91 1243.5 2200.5 1119.26 2200.5 966Z" stroke="#333333" stroke-width="7.4481" stroke-linecap="round" stroke-linejoin="round" stroke-miterlimit="10" fill="none" fill-rule="evenodd"/><path d="M2322.5 971.5C2322.5 884.791 2388.31 814.5 2469.5 814.5 2550.69 814.5 2616.5 884.791 2616.5 971.5 2616.5 1058.21 2550.69 1128.5 2469.5 1128.5 2388.31 1128.5 2322.5 1058.21 2322.5 971.5Z" stroke="#333333" stroke-width="3.4375" stroke-linecap="round" stroke-linejoin="round" stroke-miterlimit="10" fill="none" fill-rule="evenodd"/><path d="M2311 928.5C2311 911.655 2323.76 898 2339.5 898 2355.24 898 2368 911.655 2368 928.5 2368 945.345 2355.24 959 2339.5 959 2323.76 959 2311 945.345 2311 928.5Z" fill="#FFFFFF" fill-rule="evenodd"/><path d="M2318 980C2318 970.611 2325.39 963 2334.5 963 2343.61 963 2351 970.611 2351 980 2351 989.389 2343.61 997 2334.5 997 2325.39 997 2318 989.389 2318 980Z" fill="#FFFFFF" fill-rule="evenodd"/><path d="M2362 898C2362 891.372 2366.7 886 2372.5 886 2378.3 886 2383 891.372 2383 898 2383 904.627 2378.3 910 2372.5 910 2366.7 910 2362 904.627 2362 898Z" fill="#FFFFFF" fill-rule="evenodd"/><path d="M2602.07 783.008C2576.96 794.511 2559.02 813.684 2544.67 829.023 2526.73 852.03 2515.97 859.699 2494.44 855.865 2480.09 852.03 2469.32 844.361 2458.56 832.857 2440.62 817.519 2422.68 798.346 2390.39 794.511 2264.82 779.173 2250.47 909.549 2243.29 997.745 2236.11 1039.92 2232.53 1082.11 2218.18 1105.11 2211 1116.62 2214.59 1135.79 2225.35 1147.29 2239.7 1154.96 2257.64 1151.13 2264.82 1135.79 2286.34 1105.11 2293.52 1055.26 2297.11 1005.41 2307.87 894.211 2322.22 848.196 2383.22 855.865 2397.57 855.865 2408.33 863.534 2422.68 878.872 2437.03 890.376 2454.97 909.549 2483.68 913.384 2537.49 924.887 2566.2 894.211 2587.72 871.203 2598.49 855.865 2609.25 844.361 2623.6 840.526 2648.72 829.023 2655.89 836.692 2655.89 840.526 2677.42 867.369 2670.24 947.895 2648.72 986.241 2605.66 1062.93 2566.2 1158.8 2594.9 1246.99 2598.49 1262.33 2616.43 1270 2630.78 1262.33 2645.13 1258.5 2652.3 1243.16 2648.72 1227.82 2627.19 1158.8 2663.07 1082.11 2698.95 1016.92 2724.06 963.233 2742 852.03 2698.95 802.181 2688.18 786.842 2655.89 760 2602.07 783.008Z" fill="#82B3D5" fill-rule="evenodd"/><path d="M2250 997C2257.2 932.148 2275.2 836.778 2325.6 813.889 2372.4 791 2408.4 802.444 2448 832.963 2430 825.333 2365.2 794.815 2314.8 836.778 2268 878.741 2253.6 989.37 2250 997Z" fill="#EAF1F7" fill-rule="evenodd"/><path d="M2641.6 794.857C2609.2 798.679 2562.4 840.714 2530 856 2558.8 836.893 2620 749 2692 802.5 2692 802.5 2663.2 794.857 2641.6 794.857Z" fill="#EAF1F7" fill-rule="evenodd"/><path d="M2674 936C2666.77 982.098 2641.46 1016.67 2623.38 1055.09 2605.31 1097.34 2580 1185.7 2605.31 1251 2605.31 1224.11 2598.08 1139.6 2627 1074.29 2655.92 1005.15 2674 947.524 2674 936Z" fill="#EAF1F7" fill-rule="evenodd"/><path d="M2508.81 898.316C2548.33 898.316 2595.04 843.789 2613 836 2587.85 847.684 2562.7 898.316 2523.19 906.105 2483.67 910 2447.74 894.421 2419 863.263 2440.56 874.947 2469.3 894.421 2508.81 898.316Z" fill="#3087BC" fill-rule="evenodd"/><path d="M2260.79 1104.91C2250.05 1131.7 2235.74 1135.52 2225 1131.7 2235.74 1147 2250.05 1143.17 2264.37 1116.39 2282.26 1089.61 2289.42 1001.61 2293 971 2285.84 986.304 2271.53 1078.13 2260.79 1104.91Z" fill="#3087BC" fill-rule="evenodd"/><path d="M2716.4 871C2716.4 909.354 2716.4 951.544 2684 1016.75 2648 1081.95 2630 1116.47 2633.6 1174 2630 1127.97 2644.4 1081.95 2673.2 1012.91 2698.4 943.873 2720 936.203 2716.4 871Z" fill="#3087BC" fill-rule="evenodd"/><path d="M2602.57 783.507C2577.46 795.011 2559.52 814.184 2545.17 829.522 2527.23 852.53 2516.47 860.199 2494.94 856.365 2480.59 852.53 2469.82 844.861 2459.06 833.357 2441.12 818.019 2423.18 798.846 2390.89 795.011 2265.32 779.673 2250.97 910.049 2243.79 998.244 2236.61 1040.42 2233.03 1082.61 2218.68 1105.61 2211.5 1117.12 2215.09 1136.29 2225.85 1147.79 2240.2 1155.46 2258.14 1151.63 2265.32 1136.29 2286.84 1105.61 2294.02 1055.76 2297.61 1005.91 2308.37 894.71 2322.72 848.695 2383.72 856.365 2398.07 856.365 2408.83 864.034 2423.18 879.372 2437.53 890.876 2455.47 910.049 2484.18 913.883 2537.99 925.387 2566.7 894.71 2588.22 871.703 2598.99 856.365 2609.75 844.861 2624.1 841.026 2649.22 829.522 2656.39 837.192 2656.39 841.026 2677.92 867.868 2670.74 948.395 2649.22 986.741 2606.16 1063.43 2566.7 1159.3 2595.4 1247.49 2598.99 1262.83 2616.93 1270.5 2631.28 1262.83 2645.63 1259 2652.8 1243.66 2649.22 1228.32 2627.69 1159.3 2663.57 1082.61 2699.45 1017.42 2724.56 963.733 2742.5 852.53 2699.45 802.68 2688.68 787.342 2656.39 760.5 2602.57 783.507Z" stroke="#333333" stroke-width="7.4481" stroke-linecap="round" stroke-linejoin="round" stroke-miterlimit="10" fill="none" fill-rule="evenodd"/></g></svg>