<svg width="512" height="439" xmlns="http://www.w3.org/2000/svg" xmlns:xlink="http://www.w3.org/1999/xlink" xml:space="preserve" overflow="hidden"><g transform="translate(-2997 -850)"><path d="M3062 1069C3062 949.706 3152.89 853 3265 853 3377.11 853 3468 949.706 3468 1069 3468 1188.29 3377.11 1285 3265 1285 3152.89 1285 3062 1188.29 3062 1069Z" fill="#D5D6E4" fill-rule="evenodd"/><path d="M3152 1066.5C3152 998.845 3202.59 944 3265 944 3327.41 944 3378 998.845 3378 1066.5 3378 1134.15 3327.41 1189 3265 1189 3202.59 1189 3152 1134.15 3152 1066.5Z" fill="#FFFF00" fill-rule="evenodd"/><path d="M3094.36 1081.76C3094.36 967.244 3184.14 875.634 3288.27 875.634 3299.05 875.634 3306.23 875.634 3317 879.451 3299.05 871.817 3281.09 868 3263.14 868 3162.59 868 3080 955.793 3080 1062.67 3080 1108.48 3094.36 1146.65 3119.5 1181 3105.14 1150.46 3094.36 1116.11 3094.36 1081.76Z" fill="#FFFFFF" fill-rule="evenodd"/><path d="M3353.52 894C3389.48 928.484 3411.05 978.295 3411.05 1035.77 3411.05 1143.05 3331.95 1231.18 3231.29 1231.18 3198.93 1231.18 3170.17 1219.68 3145 1204.36 3177.36 1238.84 3220.5 1258 3267.24 1258 3364.31 1258 3447 1169.87 3447 1062.59 3447 989.79 3407.45 924.653 3353.52 894Z" fill="#BBBCD3" fill-rule="evenodd"/><path d="M3181.22 1066.84C3181.22 1005.69 3234.56 963.644 3291.44 963.644 3295 963.644 3284.33 959.822 3291.44 959.822 3280.78 959.822 3273.67 956 3263 956 3209.67 956 3167 1001.87 3167 1059.2 3167 1082.13 3174.11 1112.71 3188.33 1128 3181.22 1112.71 3181.22 1085.96 3181.22 1066.84Z" fill="#FFFFFF" fill-rule="evenodd"/><path d="M3317.6 975C3335.6 994.118 3350 1020.88 3350 1051.47 3350 1108.82 3306.8 1154.71 3252.8 1154.71 3234.8 1154.71 3220.4 1150.88 3206 1143.24 3224 1158.53 3245.6 1170 3270.8 1170 3324.8 1170 3368 1124.12 3368 1066.76 3368 1028.53 3346.4 994.118 3317.6 975Z" fill="#FFD100" fill-rule="evenodd"/><path d="M3371 1009C3399.71 1016.73 3403.29 1043.8 3417.65 1067 3428.41 1055.4 3432 1028.33 3417.65 1020.6" fill="#BBBCD3" fill-rule="evenodd"/><path d="M3094 1181.4C3115.6 1189 3184 1162.4 3169.6 1132 3158.8 1132 3144.4 1143.4 3137.2 1151" fill="#BBBCD3" fill-rule="evenodd"/><path d="M3062.5 1069.5C3062.5 950.207 3153.39 853.5 3265.5 853.5 3377.61 853.5 3468.5 950.207 3468.5 1069.5 3468.5 1188.79 3377.61 1285.5 3265.5 1285.5 3153.39 1285.5 3062.5 1188.79 3062.5 1069.5Z" stroke="#333333" stroke-width="6.875" stroke-linecap="round" stroke-linejoin="round" stroke-miterlimit="10" fill="none" fill-rule="evenodd"/><path d="M3152.5 1067C3152.5 999.345 3203.09 944.5 3265.5 944.5 3327.91 944.5 3378.5 999.345 3378.5 1067 3378.5 1134.65 3327.91 1189.5 3265.5 1189.5 3203.09 1189.5 3152.5 1134.65 3152.5 1067Z" stroke="#333333" stroke-width="3.4375" stroke-linecap="round" stroke-linejoin="round" stroke-miterlimit="10" fill="none" fill-rule="evenodd"/><path d="M3145 1057C3145 1047.61 3152.16 1040 3161 1040 3169.84 1040 3177 1047.61 3177 1057 3177 1066.39 3169.84 1074 3161 1074 3152.16 1074 3145 1066.39 3145 1057Z" fill="#FFFFFF" fill-rule="evenodd"/><path d="M3188 975.5C3188 969.149 3192.03 964 3197 964 3201.97 964 3206 969.149 3206 975.5 3206 981.851 3201.97 987 3197 987 3192.03 987 3188 981.851 3188 975.5Z" fill="#FFFFFF" fill-rule="evenodd"/><path d="M3206.24 897.981C3155.97 924.792 3155.97 970.755 3155.97 1001.4 3155.97 1016.72 3155.97 1032.04 3152.38 1047.36 3138.02 1097.15 3094.94 1127.79 3026.72 1139.28 3008.77 1139.28 2998 1154.6 3001.59 1169.92 3005.18 1189.08 3015.95 1200.57 3033.9 1196.74 3152.38 1177.58 3191.87 1112.47 3206.24 1062.68 3209.83 1039.7 3209.83 1020.55 3209.83 1001.4 3209.83 970.755 3213.42 963.094 3231.37 951.604 3242.14 947.773 3245.73 947.773 3267.27 966.924 3288.81 982.245 3317.53 1005.23 3364.21 1005.23 3396.52 1005.23 3432.42 1032.04 3443.19 1066.51 3453.97 1093.32 3446.78 1120.13 3421.65 1139.28 3382.16 1181.42 3331.9 1189.08 3292.4 1196.74 3256.5 1200.57 3227.78 1208.23 3213.42 1231.21 3202.65 1246.53 3206.24 1261.85 3220.6 1273.34 3231.37 1281 3249.32 1277.17 3260.09 1265.68 3256.5 1265.68 3256.5 1265.68 3256.5 1265.68 3263.68 1261.85 3285.22 1258.02 3299.58 1254.19 3346.26 1246.53 3403.7 1238.87 3461.15 1185.25 3500.64 1146.94 3515 1097.15 3497.05 1047.36 3475.51 989.906 3421.65 943.943 3364.21 943.943 3339.08 943.943 3321.12 932.453 3303.17 917.132 3281.63 901.811 3249.32 875 3206.24 897.981Z" fill="#82B3D5" fill-rule="evenodd"/><path d="M3213 910C3187.85 917.667 3169.89 929.167 3166.3 986.667 3162.7 1040.33 3166.3 1082.5 3116 1117 3144.74 1105.5 3166.3 1074.83 3177.07 998.167 3184.26 921.5 3195.04 917.667 3213 910Z" fill="#EAF1F7" fill-rule="evenodd"/><path d="M3453.6 1051C3464.4 1089.29 3468 1142.89 3378 1185 3421.2 1177.34 3504 1123.74 3453.6 1051Z" fill="#EAF1F7" fill-rule="evenodd"/><path d="M3246 1262C3274.68 1239 3378.64 1246.67 3436 1193 3425.25 1200.67 3349.96 1227.5 3321.28 1231.33 3292.6 1235.17 3253.17 1242.83 3246 1262Z" fill="#3087BC" fill-rule="evenodd"/><path d="M3216 948.286C3241.3 929.238 3248.52 929.238 3277.43 955.905 3306.34 978.762 3317.18 990.191 3375 994 3353.32 990.191 3299.11 967.333 3284.66 948.286 3273.82 929.238 3226.84 914 3216 948.286Z" fill="#3087BC" fill-rule="evenodd"/><path d="M3030 1185C3080.09 1177.37 3169.53 1139.22 3191 1082 3173.11 1104.89 3105.13 1165.93 3030 1185Z" fill="#3087BC" fill-rule="evenodd"/><path d="M3206.74 898.481C3156.47 925.292 3156.47 971.255 3156.47 1001.9 3156.47 1017.22 3156.47 1032.54 3152.88 1047.86 3138.52 1097.65 3095.44 1128.29 3027.22 1139.78 3009.27 1139.78 2998.5 1155.1 3002.09 1170.42 3005.68 1189.58 3016.45 1201.07 3034.4 1197.24 3152.88 1178.08 3192.38 1112.97 3206.74 1063.18 3210.33 1040.2 3210.33 1021.05 3210.33 1001.9 3210.33 971.255 3213.92 963.594 3231.87 952.104 3242.64 948.274 3246.23 948.274 3267.77 967.425 3289.31 982.745 3318.03 1005.73 3364.71 1005.73 3397.02 1005.73 3432.92 1032.54 3443.69 1067.01 3454.47 1093.82 3447.28 1120.63 3422.15 1139.78 3382.66 1181.92 3332.4 1189.58 3292.9 1197.24 3257 1201.07 3228.28 1208.73 3213.92 1231.71 3203.15 1247.03 3206.74 1262.35 3221.1 1273.84 3231.87 1281.5 3249.82 1277.67 3260.59 1266.18 3257 1266.18 3257 1266.18 3257 1266.18 3264.18 1262.35 3285.72 1258.52 3300.08 1254.69 3346.76 1247.03 3404.2 1239.37 3461.65 1185.75 3501.14 1147.44 3515.5 1097.65 3497.55 1047.86 3476.01 990.406 3422.15 944.443 3364.71 944.443 3339.58 944.443 3321.62 932.953 3303.67 917.632 3282.13 902.311 3249.82 875.5 3206.74 898.481Z" stroke="#333333" stroke-width="6.875" stroke-linecap="round" stroke-linejoin="round" stroke-miterlimit="10" fill="none" fill-rule="evenodd"/></g></svg>