<svg width="533" height="509" xmlns="http://www.w3.org/2000/svg" xmlns:xlink="http://www.w3.org/1999/xlink" xml:space="preserve" overflow="hidden"><g transform="translate(-1015 -1415)"><path d="M1018 1669C1018 1530.38 1123.44 1418 1253.5 1418 1383.56 1418 1489 1530.38 1489 1669 1489 1807.62 1383.56 1920 1253.5 1920 1123.44 1920 1018 1807.62 1018 1669Z" fill="#D5D6E4" fill-rule="evenodd"/><path d="M1111 1667.5C1111 1584.93 1174.58 1518 1253 1518 1331.42 1518 1395 1584.93 1395 1667.5 1395 1750.07 1331.42 1817 1253 1817 1174.58 1817 1111 1750.07 1111 1667.5Z" fill="#FFFF00" fill-rule="evenodd"/><path d="M1056.99 1694C1056.99 1559.83 1157.71 1448.67 1283.62 1448.67 1294.42 1448.67 1305.21 1452.5 1316 1452.5 1298.01 1444.83 1276.43 1441 1254.84 1441 1136.13 1441 1039 1544.5 1039 1671 1039 1724.67 1053.39 1770.67 1082.17 1809 1064.18 1774.5 1056.99 1736.17 1056.99 1694Z" fill="#FFFFFF" fill-rule="evenodd"/><path d="M1359.21 1472C1402.48 1514.13 1427.73 1571.59 1427.73 1640.54 1427.73 1766.94 1333.97 1866.53 1214.97 1866.53 1178.91 1866.53 1142.85 1858.87 1114 1839.71 1150.06 1878.02 1200.55 1901 1254.64 1901 1373.64 1901 1471 1797.58 1471 1671.18 1471 1586.91 1424.12 1510.3 1359.21 1472Z" fill="#BBBCD3" fill-rule="evenodd"/><path d="M1150.42 1674.58C1150.42 1602.17 1215.3 1548.81 1283.79 1548.81 1291 1548.81 1280.19 1548.81 1283.79 1548.81 1272.98 1545 1262.16 1545 1251.35 1545 1186.47 1545 1136 1598.36 1136 1663.15 1136 1693.64 1146.81 1724.13 1161.23 1747 1150.42 1727.94 1150.42 1697.45 1150.42 1674.58Z" fill="#FFFFFF" fill-rule="evenodd"/><path d="M1312.74 1568C1337.96 1587.15 1352.38 1621.63 1352.38 1656.1 1352.38 1725.05 1301.92 1778.68 1237.06 1778.68 1219.04 1778.68 1201.02 1771.02 1183 1763.36 1204.62 1782.51 1229.85 1794 1258.68 1794 1323.55 1794 1374 1740.37 1374 1671.42 1374 1625.46 1348.77 1587.15 1312.74 1568Z" fill="#FFD100" fill-rule="evenodd"/><path d="M1215.14 1817C1226 1862.47 1189.81 1889 1150 1873.84" fill="#BBBCD3" fill-rule="evenodd"/><path d="M1399 1662.85C1420.43 1670.54 1416.86 1701.31 1438.29 1709 1449 1693.62 1445.43 1674.38 1441.86 1659" fill="#BBBCD3" fill-rule="evenodd"/><path d="M1018.5 1669.5C1018.5 1530.88 1123.94 1418.5 1254 1418.5 1384.06 1418.5 1489.5 1530.88 1489.5 1669.5 1489.5 1808.12 1384.06 1920.5 1254 1920.5 1123.94 1920.5 1018.5 1808.12 1018.5 1669.5Z" stroke="#333333" stroke-width="7.4481" stroke-linecap="round" stroke-linejoin="round" stroke-miterlimit="10" fill="none" fill-rule="evenodd"/><path d="M1111.5 1668C1111.5 1585.43 1175.08 1518.5 1253.5 1518.5 1331.92 1518.5 1395.5 1585.43 1395.5 1668 1395.5 1750.57 1331.92 1817.5 1253.5 1817.5 1175.08 1817.5 1111.5 1750.57 1111.5 1668Z" stroke="#333333" stroke-width="3.4375" stroke-linecap="round" stroke-linejoin="round" stroke-miterlimit="10" fill="none" fill-rule="evenodd"/><path d="M1139.59 1521.44C1146.76 1505.89 1164.71 1502 1179.06 1509.78 1193.41 1517.56 1197 1533.11 1189.82 1548.67 1182.65 1564.22 1168.29 1572 1153.94 1564.22 1139.59 1556.44 1136 1537 1139.59 1521.44Z" fill="#FFFFFF" fill-rule="evenodd"/><path d="M1125.6 1571.4C1129.2 1563.8 1140 1560 1147.2 1567.6 1154.4 1571.4 1158 1579 1154.4 1586.6 1150.8 1594.2 1140 1598 1132.8 1594.2 1125.6 1590.4 1122 1582.8 1125.6 1571.4Z" fill="#FFFFFF" fill-rule="evenodd"/><path d="M1200.67 1521.83C1200.67 1518 1208 1518 1211.67 1518 1219 1521.83 1219 1529.5 1219 1533.33 1215.33 1537.17 1208 1541 1204.33 1537.17 1197 1533.33 1197 1529.5 1200.67 1521.83Z" fill="#FFFFFF" fill-rule="evenodd"/><path d="M1064.35 1491.03C1035.59 1544.61 1039.19 1624.99 1103.89 1667.09 1103.89 1667.09 1132.64 1686.22 1132.64 1686.22 1168.59 1705.36 1182.96 1716.84 1179.37 1755.12 1179.37 1804.87 1111.08 1854.63 1057.16 1858.45 1042.78 1858.45 1032 1873.76 1032 1889.07 1032 1904.38 1046.38 1919.69 1060.76 1915.86 1132.64 1912.04 1236.88 1846.97 1236.88 1758.94 1236.88 1682.4 1197.34 1655.6 1161.4 1632.64 1136.24 1617.33 1136.24 1617.33 1136.24 1617.33 1093.1 1590.54 1096.7 1548.44 1111.08 1521.65 1132.64 1491.03 1168.59 1471.89 1215.31 1498.68 1236.88 1510.17 1251.26 1536.96 1269.23 1563.75 1280.01 1582.88 1294.39 1602.02 1308.77 1617.33 1337.52 1647.95 1373.47 1659.43 1405.82 1667.09 1430.98 1670.91 1452.55 1674.74 1466.92 1690.05 1477.71 1697.7 1488.49 1739.81 1484.89 1789.56 1484.89 1824.01 1477.71 1843.14 1470.52 1850.8 1452.55 1866.11 1427.38 1854.63 1387.85 1835.49 1362.69 1820.18 1337.52 1808.7 1312.36 1808.7 1297.99 1808.7 1283.61 1820.18 1283.61 1839.32 1283.61 1854.63 1297.99 1866.11 1312.36 1866.11 1326.74 1866.11 1344.71 1877.59 1362.69 1889.07 1402.22 1908.21 1456.14 1935 1502.87 1896.73 1531.62 1873.76 1542.41 1827.83 1542.41 1789.56 1546 1739.81 1535.22 1674.74 1506.46 1644.12 1481.3 1621.16 1448.95 1613.5 1420.2 1605.85 1391.44 1602.02 1366.28 1594.37 1348.31 1575.23 1337.52 1563.75 1326.74 1548.44 1315.96 1529.3 1297.99 1498.68 1276.42 1468.06 1240.48 1445.1 1168.59 1403 1096.7 1437.45 1064.35 1491.03Z" fill="#82B3D5" fill-rule="evenodd"/><path d="M1240 1456.47C1193.3 1433.49 1143 1422 1096.3 1467.96 1049.59 1517.75 1046 1571.38 1074.74 1625 1060.37 1582.87 1060.37 1521.58 1103.48 1475.62 1150.19 1429.66 1211.26 1441.15 1240 1456.47Z" fill="#EAF1F7" fill-rule="evenodd"/><path d="M1449 1663.64C1481.4 1678.93 1492.2 1686.57 1499.4 1743.89 1503 1801.21 1495.8 1870 1459.8 1870 1495.8 1858.54 1521 1831.79 1506.6 1724.79 1495.8 1656 1449 1663.64 1449 1663.64Z" fill="#EAF1F7" fill-rule="evenodd"/><path d="M1086 1859C1125.45 1847.43 1179.24 1824.29 1190 1751 1190 1785.71 1172.07 1847.43 1086 1859Z" fill="#EAF1F7" fill-rule="evenodd"/><path d="M1122 1621C1161.47 1647.8 1244 1682.27 1226.06 1778 1226.06 1743.54 1215.29 1705.24 1190.18 1682.27 1165.06 1659.29 1129.18 1636.32 1122 1621Z" fill="#3087BC" fill-rule="evenodd"/><path d="M1323 1855C1351.86 1862.6 1409.57 1912 1460.07 1904.4 1510.57 1896.8 1514.18 1877.8 1525 1855 1510.57 1874 1481.71 1896.8 1449.25 1896.8 1416.79 1896.8 1344.64 1855 1323 1855Z" fill="#3087BC" fill-rule="evenodd"/><path d="M1064.85 1491.53C1036.09 1545.11 1039.69 1625.49 1104.39 1667.59 1104.39 1667.59 1133.14 1686.72 1133.14 1686.72 1169.09 1705.86 1183.47 1717.34 1179.87 1755.62 1179.87 1805.37 1111.58 1855.13 1057.66 1858.95 1043.28 1858.95 1032.5 1874.26 1032.5 1889.57 1032.5 1904.88 1046.88 1920.19 1061.26 1916.36 1133.14 1912.54 1237.38 1847.47 1237.38 1759.44 1237.38 1682.9 1197.84 1656.1 1161.9 1633.14 1136.74 1617.83 1136.74 1617.83 1136.74 1617.83 1093.6 1591.04 1097.2 1548.94 1111.58 1522.15 1133.14 1491.53 1169.09 1472.39 1215.81 1499.18 1237.38 1510.67 1251.76 1537.46 1269.73 1564.25 1280.51 1583.38 1294.89 1602.52 1309.27 1617.83 1338.02 1648.45 1373.97 1659.93 1406.32 1667.59 1431.48 1671.41 1453.05 1675.24 1467.42 1690.55 1478.21 1698.21 1488.99 1740.31 1485.4 1790.06 1485.4 1824.51 1478.21 1843.64 1471.02 1851.3 1453.05 1866.61 1427.88 1855.13 1388.35 1835.99 1363.19 1820.68 1338.02 1809.2 1312.86 1809.2 1298.49 1809.2 1284.11 1820.68 1284.11 1839.82 1284.11 1855.13 1298.49 1866.61 1312.86 1866.61 1327.24 1866.61 1345.21 1878.09 1363.19 1889.57 1402.72 1908.71 1456.64 1935.5 1503.37 1897.23 1532.12 1874.26 1542.91 1828.33 1542.91 1790.06 1546.5 1740.31 1535.72 1675.24 1506.96 1644.62 1481.8 1621.66 1449.45 1614 1420.7 1606.35 1391.94 1602.52 1366.78 1594.87 1348.81 1575.73 1338.02 1564.25 1327.24 1548.94 1316.46 1529.8 1298.49 1499.18 1276.92 1468.56 1240.98 1445.6 1169.09 1403.5 1097.2 1437.95 1064.85 1491.53Z" stroke="#333333" stroke-width="7.4481" stroke-linecap="round" stroke-linejoin="round" stroke-miterlimit="10" fill="none" fill-rule="evenodd"/></g></svg>