<svg width="473" height="532" xmlns="http://www.w3.org/2000/svg" xmlns:xlink="http://www.w3.org/1999/xlink" xml:space="preserve" overflow="hidden"><g transform="translate(-1620 -1125)"><path d="M1623 1373C1623 1237.69 1726.65 1128 1854.5 1128 1982.35 1128 2086 1237.69 2086 1373 2086 1508.31 1982.35 1618 1854.5 1618 1726.65 1618 1623 1508.31 1623 1373Z" fill="#D5D6E4" fill-rule="evenodd"/><path d="M1716 1382C1716 1296.4 1781.81 1227 1863 1227 1944.19 1227 2010 1296.4 2010 1382 2010 1467.6 1944.19 1537 1863 1537 1781.81 1537 1716 1467.6 1716 1382Z" fill="#FFFF00" fill-rule="evenodd"/><path d="M1654.99 1395.17C1654.99 1261 1755.71 1153.67 1881.62 1153.67 1892.42 1153.67 1903.21 1153.67 1914 1153.67 1896.01 1149.83 1874.43 1146 1852.84 1146 1734.13 1146 1637 1245.67 1637 1372.17 1637 1425.83 1651.39 1475.67 1680.17 1514 1662.18 1479.5 1654.99 1437.33 1654.99 1395.17Z" fill="#FFFFFF" fill-rule="evenodd"/><path d="M1956.53 1173C1999.68 1215.13 2024.85 1276.42 2024.85 1341.54 2024.85 1467.94 1931.35 1571.36 1812.69 1571.36 1776.73 1571.36 1740.77 1559.87 1712 1544.54 1747.96 1579.02 1798.3 1602 1852.24 1602 1970.91 1602 2068 1498.58 2068 1372.18 2068 1287.91 2021.25 1211.3 1956.53 1173Z" fill="#BBBCD3" fill-rule="evenodd"/><path d="M1751.36 1388.11C1751.36 1311.38 1819.59 1257.67 1891.41 1257.67 1895 1257.67 1884.23 1253.84 1891.41 1253.84 1880.64 1250 1866.27 1250 1855.5 1250 1790.86 1250 1737 1307.55 1737 1376.6 1737 1407.29 1747.77 1441.82 1762.14 1461 1751.36 1441.82 1751.36 1411.13 1751.36 1388.11Z" fill="#FFFFFF" fill-rule="evenodd"/><path d="M1920.53 1273C1945.6 1295.94 1959.93 1330.34 1959.93 1368.56 1959.93 1437.37 1906.2 1494.71 1841.73 1494.71 1823.82 1494.71 1802.33 1487.06 1788 1479.42 1805.91 1498.53 1834.56 1510 1866.8 1510 1931.27 1510 1985 1452.66 1985 1383.85 1985 1337.98 1959.93 1295.94 1920.53 1273Z" fill="#FFD100" fill-rule="evenodd"/><path d="M1946.14 1242.58C1971.14 1223.4 2039 1323.15 2049.71 1350 2064 1296.29 1992.57 1139 1939 1227.24" fill="#BBBCD3" fill-rule="evenodd"/><path d="M1687 1529.5C1722.83 1564 1773 1498.83 1737.17 1472" fill="#BBBCD3" fill-rule="evenodd"/><path d="M1623.5 1373.5C1623.5 1238.19 1727.15 1128.5 1855 1128.5 1982.85 1128.5 2086.5 1238.19 2086.5 1373.5 2086.5 1508.81 1982.85 1618.5 1855 1618.5 1727.15 1618.5 1623.5 1508.81 1623.5 1373.5Z" stroke="#333333" stroke-width="6.875" stroke-linecap="round" stroke-linejoin="round" stroke-miterlimit="10" fill="none" fill-rule="evenodd"/><path d="M1716.5 1382.5C1716.5 1296.9 1782.31 1227.5 1863.5 1227.5 1944.69 1227.5 2010.5 1296.9 2010.5 1382.5 2010.5 1468.1 1944.69 1537.5 1863.5 1537.5 1782.31 1537.5 1716.5 1468.1 1716.5 1382.5Z" stroke="#333333" stroke-width="3.4375" stroke-linecap="round" stroke-linejoin="round" stroke-miterlimit="10" fill="none" fill-rule="evenodd"/><path d="M1805.67 1234.67C1805.67 1227 1813 1227 1816.67 1230.83 1824 1230.83 1824 1238.5 1824 1242.33 1820.33 1250 1813 1250 1809.33 1246.17 1802 1246.17 1802 1238.5 1805.67 1234.67Z" fill="#FFFFFF" fill-rule="evenodd"/><path d="M1837.7 1223.4C1841.4 1215.8 1848.8 1212 1859.9 1215.8 1867.3 1219.6 1871 1231 1867.3 1238.6 1863.6 1246.2 1852.5 1250 1845.1 1246.2 1837.7 1242.4 1834 1231 1837.7 1223.4Z" fill="#FFFFFF" fill-rule="evenodd"/><path d="M1916.65 1176.68C1898.7 1192.02 1895.11 1215.02 1887.93 1230.36 1880.75 1253.37 1880.75 1261.04 1866.39 1264.87 1859.2 1268.71 1848.43 1264.87 1834.07 1261.04 1812.53 1257.2 1783.8 1253.37 1758.67 1272.54 1715.58 1299.38 1711.99 1349.23 1704.81 1395.25 1697.63 1460.44 1694.04 1479.61 1661.72 1483.44 1647.36 1483.44 1633 1498.78 1636.59 1514.12 1636.59 1529.46 1650.95 1544.8 1665.32 1540.96 1747.9 1537.13 1755.08 1456.6 1762.26 1402.92 1765.85 1368.41 1769.44 1333.89 1787.39 1322.39 1794.57 1314.72 1805.35 1318.56 1823.3 1322.39 1841.25 1326.23 1862.8 1330.06 1884.34 1322.39 1923.83 1307.05 1934.61 1272.54 1941.79 1249.53 1945.38 1234.2 1948.97 1226.53 1956.15 1218.86 1963.33 1211.19 1966.92 1211.19 1974.1 1215.02 2002.83 1226.53 2031.55 1295.55 2031.55 1326.23 2035.14 1345.4 2024.37 1364.57 2010.01 1383.74 2002.83 1402.92 1988.46 1425.92 1984.87 1452.77 1974.1 1502.62 1977.69 1583.14 1988.46 1629.16 1992.06 1644.5 2006.42 1656 2020.78 1652.17 2035.14 1648.33 2045.91 1632.99 2042.32 1617.65 2035.14 1575.47 2031.55 1506.45 2038.73 1464.27 2042.32 1448.93 2049.5 1433.59 2060.28 1414.42 2074.64 1391.41 2089 1360.74 2089 1326.23 2089 1276.38 2045.91 1184.35 1995.65 1157.5 1966.92 1146 1938.2 1153.67 1916.65 1176.68Z" fill="#82B3D5" fill-rule="evenodd"/><path d="M1841 1273.63C1801.58 1266 1776.5 1266 1751.42 1292.7 1722.75 1319.4 1719.17 1395.67 1712 1430 1726.33 1372.79 1740.67 1319.4 1758.58 1300.33 1776.5 1285.07 1823.08 1273.63 1841 1273.63Z" fill="#EAF1F7" fill-rule="evenodd"/><path d="M2039 1365C2010.69 1410.94 1996.54 1418.59 1993 1491.33 1993 1564.06 1996.54 1610 1996.54 1610 2000.08 1579.38 1996.54 1422.42 2039 1365Z" fill="#EAF1F7" fill-rule="evenodd"/><path d="M2053.5 1239C2074.8 1281.11 2089 1323.22 2074.8 1365.33 2057.05 1411.27 2032.2 1422.75 2028.65 1484 2018 1430.41 2060.6 1399.78 2067.7 1346.19 2078.35 1292.59 2067.7 1261.97 2053.5 1239Z" fill="#3087BC" fill-rule="evenodd"/><path d="M1881 1307C1909.9 1299.39 1920.74 1291.77 1931.58 1249.9 1946.03 1208.03 1964.1 1189 1993 1215.65 1974.94 1192.81 1946.03 1192.81 1938.81 1211.84 1927.97 1230.87 1906.29 1307 1881 1307Z" fill="#3087BC" fill-rule="evenodd"/><path d="M1755 1400C1751.4 1438.24 1740.6 1530 1665 1530 1693.8 1522.35 1733.4 1499.41 1755 1400Z" fill="#3087BC" fill-rule="evenodd"/><path d="M1917.15 1177.18C1899.2 1192.51 1895.61 1215.52 1888.43 1230.86 1881.25 1253.87 1881.25 1261.54 1866.89 1265.37 1859.7 1269.21 1848.93 1265.37 1834.57 1261.54 1813.03 1257.7 1784.3 1253.87 1759.17 1273.04 1716.08 1299.88 1712.49 1349.73 1705.31 1395.75 1698.13 1460.94 1694.54 1480.11 1662.22 1483.94 1647.86 1483.94 1633.5 1499.28 1637.09 1514.62 1637.09 1529.96 1651.45 1545.3 1665.81 1541.46 1748.4 1537.63 1755.58 1457.1 1762.76 1403.42 1766.35 1368.91 1769.94 1334.39 1787.89 1322.89 1795.07 1315.22 1805.85 1319.06 1823.8 1322.89 1841.75 1326.73 1863.3 1330.56 1884.84 1322.89 1924.33 1307.55 1935.11 1273.04 1942.29 1250.03 1945.88 1234.7 1949.47 1227.03 1956.65 1219.36 1963.83 1211.69 1967.42 1211.69 1974.6 1215.52 2003.33 1227.03 2032.05 1296.05 2032.05 1326.73 2035.64 1345.9 2024.87 1365.07 2010.51 1384.24 2003.33 1403.42 1988.96 1426.42 1985.37 1453.27 1974.6 1503.12 1978.19 1583.64 1988.96 1629.66 1992.56 1645 2006.92 1656.5 2021.28 1652.67 2035.64 1648.83 2046.41 1633.49 2042.82 1618.15 2035.64 1575.97 2032.05 1506.95 2039.23 1464.77 2042.82 1449.43 2050 1434.09 2060.78 1414.92 2075.14 1391.91 2089.5 1361.24 2089.5 1326.73 2089.5 1276.88 2046.41 1184.85 1996.15 1158 1967.42 1146.5 1938.7 1154.17 1917.15 1177.18Z" stroke="#333333" stroke-width="6.875" stroke-linecap="round" stroke-linejoin="round" stroke-miterlimit="10" fill="none" fill-rule="evenodd"/></g></svg>