<svg width="552" height="486" xmlns="http://www.w3.org/2000/svg" xmlns:xlink="http://www.w3.org/1999/xlink" xml:space="preserve" overflow="hidden"><g transform="translate(-2888 -1482)"><path d="M2995 1701.5C2995 1581.93 3085.89 1485 3198 1485 3310.11 1485 3401 1581.93 3401 1701.5 3401 1821.07 3310.11 1918 3198 1918 3085.89 1918 2995 1821.07 2995 1701.5Z" fill="#D5D6E4" fill-rule="evenodd"/><path d="M3082 1701.5C3082 1634.95 3133.26 1581 3196.5 1581 3259.74 1581 3311 1634.95 3311 1701.5 3311 1768.05 3259.74 1822 3196.5 1822 3133.26 1822 3082 1768.05 3082 1701.5Z" fill="#FFFF00" fill-rule="evenodd"/><path d="M3027.42 1718.32C3027.42 1603.51 3117.58 1511.65 3222.15 1511.65 3232.97 1511.65 3240.18 1511.65 3251 1511.65 3232.97 1507.83 3214.94 1504 3196.91 1504 3095.94 1504 3013 1592.02 3013 1699.19 3013 1741.28 3027.42 1783.38 3052.67 1814 3038.24 1787.21 3027.42 1752.77 3027.42 1718.32Z" fill="#FFFFFF" fill-rule="evenodd"/><path d="M3286.52 1527C3322.48 1565.32 3344.05 1615.13 3344.05 1672.6 3344.05 1779.88 3264.95 1864.18 3164.29 1864.18 3131.93 1864.18 3103.17 1856.52 3078 1841.19 3110.36 1871.84 3153.5 1891 3200.24 1891 3297.31 1891 3380 1806.71 3380 1699.42 3380 1626.62 3340.45 1561.48 3286.52 1527Z" fill="#BBBCD3" fill-rule="evenodd"/><path d="M3113.44 1703.49C3113.44 1641.98 3167.61 1599.69 3225.39 1599.69 3229 1599.69 3221.78 1595.84 3225.39 1595.84 3214.56 1595.84 3207.33 1592 3196.5 1592 3142.33 1592 3099 1638.13 3099 1695.8 3099 1718.87 3106.22 1749.62 3120.67 1765 3113.44 1749.62 3113.44 1722.71 3113.44 1703.49Z" fill="#FFFFFF" fill-rule="evenodd"/><path d="M3250.6 1611C3268.6 1630.12 3283 1656.88 3283 1687.47 3283 1744.82 3239.8 1790.71 3185.8 1790.71 3167.8 1790.71 3153.4 1786.88 3139 1779.24 3157 1794.53 3178.6 1806 3203.8 1806 3257.8 1806 3301 1760.12 3301 1702.76 3301 1664.53 3279.4 1630.12 3250.6 1611Z" fill="#FFD100" fill-rule="evenodd"/><path d="M3049 1623C3063.4 1649 3085 1649 3103 1623" fill="#BBBCD3" fill-rule="evenodd"/><path d="M2995.5 1702C2995.5 1582.43 3086.39 1485.5 3198.5 1485.5 3310.61 1485.5 3401.5 1582.43 3401.5 1702 3401.5 1821.57 3310.61 1918.5 3198.5 1918.5 3086.39 1918.5 2995.5 1821.57 2995.5 1702Z" stroke="#333333" stroke-width="7.4481" stroke-linecap="round" stroke-linejoin="round" stroke-miterlimit="10" fill="none" fill-rule="evenodd"/><path d="M3082.5 1702C3082.5 1635.45 3133.76 1581.5 3197 1581.5 3260.24 1581.5 3311.5 1635.45 3311.5 1702 3311.5 1768.55 3260.24 1822.5 3197 1822.5 3133.76 1822.5 3082.5 1768.55 3082.5 1702Z" stroke="#333333" stroke-width="3.4375" stroke-linecap="round" stroke-linejoin="round" stroke-miterlimit="10" fill="none" fill-rule="evenodd"/><path d="M3314.94 1607.56C3325.78 1618.89 3333 1634 3322.17 1649.11 3314.94 1664.22 3296.89 1668 3286.06 1656.67 3271.61 1649.11 3268 1630.22 3275.22 1618.89 3282.44 1603.78 3300.5 1600 3314.94 1607.56Z" fill="#FFFFFF" fill-rule="evenodd"/><path d="M3268.2 1587.89C3275.4 1591.78 3279 1603.44 3275.4 1611.22 3268.2 1619 3261 1619 3253.8 1615.11 3246.6 1611.22 3243 1599.56 3246.6 1591.78 3253.8 1584 3261 1584 3268.2 1587.89Z" fill="#FFFFFF" fill-rule="evenodd"/><path d="M3311.67 1668.86C3319 1672.71 3319 1680.43 3315.33 1684.29 3311.67 1688.14 3308 1692 3300.67 1688.14 3297 1684.29 3297 1676.57 3300.67 1672.71 3300.67 1668.86 3308 1665 3311.67 1668.86Z" fill="#FFFFFF" fill-rule="evenodd"/><path d="M3154.01 1538.65C3143.23 1550.12 3143.23 1550.12 3143.23 1550.12 3096.5 1576.89 3089.31 1580.72 3042.57 1561.6 2995.84 1542.47 2963.49 1553.95 2945.52 1565.42 2916.76 1584.54 2895.19 1622.79 2891.59 1668.68 2888 1741.35 2934.73 1752.82 2977.87 1760.47 3006.63 1768.12 3006.63 1768.12 3006.63 1768.12 3056.95 1783.42 3060.55 1787.25 3056.95 1836.96 3053.36 1875.21 3053.36 1917.28 3082.12 1944.05 3100.09 1963.18 3128.85 1967 3168.39 1959.35 3240.29 1947.88 3258.26 1898.16 3276.24 1856.09 3290.61 1814.02 3290.61 1814.02 3290.61 1814.02 3308.59 1787.25 3326.56 1791.07 3380.48 1802.54 3402.05 1806.37 3402.05 1806.37 3402.05 1806.37 3420.03 1806.37 3434.41 1798.72 3434.41 1779.6 3438 1764.3 3427.22 1749 3412.84 1745.18 3391.27 1741.35 3391.27 1741.35 3391.27 1741.35 3340.94 1733.7 3279.83 1718.4 3243.88 1783.42 3222.31 1833.14 3222.31 1833.14 3222.31 1833.14 3207.93 1871.39 3200.74 1894.33 3161.2 1901.98 3128.85 1905.81 3121.66 1901.98 3118.07 1898.16 3110.88 1890.51 3110.88 1852.26 3114.47 1840.79 3118.07 1760.47 3096.5 1733.7 3021.01 1710.75 2992.25 1703.11 2992.25 1703.11 2992.25 1703.11 2949.11 1691.63 2949.11 1691.63 2949.11 1672.51 2949.11 1645.74 2959.9 1626.61 2974.27 1615.14 2988.65 1607.49 3003.03 1607.49 3021.01 1615.14 3092.9 1645.74 3118.07 1634.26 3171.99 1599.84 3182.77 1592.19 3182.77 1592.19 3182.77 1592.19 3197.15 1584.54 3200.74 1565.42 3193.56 1550.12 3182.77 1538.65 3168.39 1531 3154.01 1538.65Z" fill="#82B3D5" fill-rule="evenodd"/><path d="M3107 1580.7C3081.8 1588.43 3053 1576.83 3035 1569.09 3013.4 1557.48 2952.2 1542 2909 1631 2937.8 1596.17 2963 1569.09 2995.4 1572.96 3027.8 1572.96 3089 1592.3 3107 1580.7Z" fill="#EAF1F7" fill-rule="evenodd"/><path d="M3020 1718C3059.7 1729.54 3103 1748.77 3103 1818 3095.78 1791.08 3081.35 1741.08 3020 1718Z" fill="#EAF1F7" fill-rule="evenodd"/><path d="M3354 1741C3318.21 1741 3275.26 1744.85 3253.79 1783.38 3235.89 1821.91 3218 1872 3218 1872 3235.89 1841.18 3253.79 1794.94 3275.26 1771.82 3296.74 1748.71 3321.79 1744.85 3354 1741Z" fill="#EAF1F7" fill-rule="evenodd"/><path d="M3071 1879C3071 1921 3096.17 1963 3164.5 1951.55 3232.83 1936.27 3250.81 1894.27 3258 1879 3240.02 1898.09 3207.65 1936.27 3146.52 1940.09 3085.38 1943.91 3081.79 1909.55 3071 1879Z" fill="#3087BC" fill-rule="evenodd"/><path d="M3042 1611.6C3088.74 1623.15 3095.93 1627 3128.29 1611.6 3160.64 1596.2 3182.21 1576.95 3185.81 1573.1 3193 1565.4 3185.81 1550 3171.43 1550 3182.21 1553.85 3189.4 1565.4 3160.64 1580.8 3131.88 1596.2 3110.31 1615.45 3092.33 1615.45 3070.76 1615.45 3042 1611.6 3042 1611.6Z" fill="#3087BC" fill-rule="evenodd"/><path d="M3154.51 1539.15C3143.73 1550.62 3143.73 1550.62 3143.73 1550.62 3097 1577.39 3089.81 1581.22 3043.08 1562.1 2996.34 1542.97 2963.99 1554.45 2946.02 1565.92 2917.26 1585.04 2895.69 1623.29 2892.09 1669.18 2888.5 1741.85 2935.23 1753.32 2978.37 1760.97 3007.13 1768.62 3007.13 1768.62 3007.13 1768.62 3057.45 1783.92 3061.05 1787.75 3057.45 1837.46 3053.86 1875.71 3053.86 1917.78 3082.62 1944.55 3100.59 1963.68 3129.35 1967.5 3168.89 1959.85 3240.79 1948.38 3258.76 1898.66 3276.74 1856.59 3291.11 1814.52 3291.11 1814.52 3291.11 1814.52 3309.09 1787.75 3327.06 1791.57 3380.98 1803.04 3402.55 1806.87 3402.55 1806.87 3402.55 1806.87 3420.53 1806.87 3434.91 1799.22 3434.91 1780.1 3438.5 1764.8 3427.72 1749.5 3413.34 1745.68 3391.77 1741.85 3391.77 1741.85 3391.77 1741.85 3341.44 1734.2 3280.33 1718.9 3244.38 1783.92 3222.81 1833.64 3222.81 1833.64 3222.81 1833.64 3208.43 1871.89 3201.25 1894.83 3161.7 1902.48 3129.35 1906.31 3122.16 1902.48 3118.57 1898.66 3111.38 1891.01 3111.38 1852.76 3114.97 1841.29 3118.57 1760.97 3097 1734.2 3021.51 1711.25 2992.75 1703.61 2992.75 1703.61 2992.75 1703.61 2949.61 1692.13 2949.61 1692.13 2949.61 1673.01 2949.61 1646.24 2960.4 1627.11 2974.77 1615.64 2989.15 1607.99 3003.53 1607.99 3021.51 1615.64 3093.4 1646.24 3118.57 1634.76 3172.49 1600.34 3183.27 1592.69 3183.27 1592.69 3183.27 1592.69 3197.65 1585.04 3201.25 1565.92 3194.06 1550.62 3183.27 1539.15 3168.89 1531.5 3154.51 1539.15Z" stroke="#333333" stroke-width="7.4481" stroke-linecap="round" stroke-linejoin="round" stroke-miterlimit="10" fill="none" fill-rule="evenodd"/></g></svg>