<svg width="461" height="438" xmlns="http://www.w3.org/2000/svg" xmlns:xlink="http://www.w3.org/1999/xlink" xml:space="preserve" overflow="hidden"><g transform="translate(-1970 -1020)"><path d="M2123 1402.45C2123 1419.25 2110.09 1433 2094.32 1433 1999.68 1433 1999.68 1433 1999.68 1433 1983.91 1433 1971 1419.25 1971 1402.45 1971 1072.55 1971 1072.55 1971 1072.55 1971 1055.75 1983.91 1042 1999.68 1042 2094.32 1042 2094.32 1042 2094.32 1042 2110.09 1042 2123 1055.75 2123 1072.55L2123 1402.45Z" fill="#B7D6DD" fill-rule="evenodd"/><path d="M1987.93 1089.27C1987.93 1070.93 1997.99 1064.82 2015.23 1061.76 2100 1048 2100 1048 2100 1048 2097.13 1048 2094.25 1048 2091.38 1048 2002.3 1048 2002.3 1048 2002.3 1048 1987.93 1048 1975 1060.23 1975 1075.52 1975 1385.83 1975 1385.83 1975 1385.83 1975 1388.89 1976.44 1391.94 1976.44 1395L1987.93 1089.27Z" fill="#FFFFFF" fill-rule="evenodd"/><path d="M2102.61 1385.28C2101.19 1403.61 2092.65 1408.19 2076.99 1412.78 1993 1425 1993 1425 1993 1425 1993 1425 1993 1425 1993 1425 2079.84 1418.89 2079.84 1418.89 2079.84 1418.89 2096.92 1414.31 2108.31 1408.19 2108.31 1386.81 2114 1150 2114 1150 2114 1150 2114 1150 2114 1150 2114 1150L2102.61 1385.28Z" fill="#FFFFFF" fill-rule="evenodd"/><path d="M2107.42 1387.32C2105.99 1407.16 2095.98 1413.26 2080.24 1416.32 1993 1425.47 1993 1425.47 1993 1425.47 1994.43 1425.47 1997.29 1427 2000.15 1427 2088.83 1427 2088.83 1427 2088.83 1427 2104.56 1427 2116 1413.26 2116 1398 2116 1088.16 2116 1088.16 2116 1088.16 2116 1085.11 2116 1082.05 2114.57 1079L2107.42 1387.32Z" fill="#7EB2BE" fill-rule="evenodd"/><path d="M2419.14 1066.51C2416.28 1054.38 2416.28 1054.38 2416.28 1054.38 2413.42 1033.16 2393.39 1018 2373.36 1022.55 2123 1068.02 2123 1068.02 2123 1068.02 2123 1069.54 2123 1071.05 2123 1072.57 2123 1162 2123 1162 2123 1162 2387.67 1111.98 2387.67 1111.98 2387.67 1111.98 2409.12 1107.43 2422 1087.73 2419.14 1066.51Z" fill="#F7DE68" fill-rule="evenodd"/><path d="M2419.14 1066.51C2416.28 1054.38 2416.28 1054.38 2416.28 1054.38 2413.42 1033.16 2393.39 1018 2373.36 1022.55 2123 1068.02 2123 1068.02 2123 1068.02 2123 1069.54 2123 1071.05 2123 1072.57 2123 1162 2123 1162 2123 1162 2387.67 1111.98 2387.67 1111.98 2387.67 1111.98 2409.12 1107.43 2422 1087.73 2419.14 1066.51Z" fill="#F7DE68" fill-rule="evenodd"/><path d="M2391.82 1192C2123 1192 2123 1192 2123 1192 2123 1283 2123 1283 2123 1283 2391.82 1283 2391.82 1283 2391.82 1283 2413.27 1283 2429 1266.32 2429 1243.57 2429 1231.43 2429 1231.43 2429 1231.43 2429 1210.2 2413.27 1192 2391.82 1192Z" fill="#F7DE68" fill-rule="evenodd"/><path d="M2387.67 1364.55C2123 1314 2123 1314 2123 1314 2123 1402.85 2123 1402.85 2123 1402.85 2123 1404.38 2123 1405.91 2123 1407.45 2373.36 1454.94 2373.36 1454.94 2373.36 1454.94 2393.39 1458 2413.42 1444.21 2416.28 1422.77 2419.14 1410.51 2419.14 1410.51 2419.14 1410.51 2422 1389.06 2409.12 1367.62 2387.67 1364.55Z" fill="#F7DE68" fill-rule="evenodd"/><path d="M2415 1073C2415 1059.09 2415 1059.09 2415 1059.09 2410.71 1035.91 2390.66 1022 2370.62 1025.09 2143 1069.91 2143 1069.91 2143 1069.91 2143 1069.91 2143 1069.91 2143 1069.91 2363.46 1037.45 2363.46 1037.45 2363.46 1037.45 2383.51 1032.82 2410.71 1040.55 2415 1073" fill="#FFFFFF" fill-rule="evenodd"/><path d="M2139.88 1138.18C2155.62 1148.88 2373.12 1110.65 2386 1107.59 2374.55 1110.65 2154.19 1150.41 2127 1155 2127 1103 2127 1103 2127 1103 2127 1112.18 2128.43 1132.06 2139.88 1138.18Z" fill="#F4BF32" fill-rule="evenodd"/><path d="M2425 1250C2425 1234.72 2425 1234.72 2425 1234.72 2425 1213.33 2407.83 1195 2387.8 1195 2156 1199.58 2156 1199.58 2156 1199.58 2156 1199.58 2156 1199.58 2156 1199.58 2377.78 1205.69 2377.78 1205.69 2377.78 1205.69 2399.24 1204.17 2423.57 1216.39 2425 1250" fill="#FFFFFF" fill-rule="evenodd"/><path d="M2143.19 1266.71C2156.08 1278.94 2378.11 1278.94 2391 1278.94 2378.11 1278.94 2156.08 1282 2127.43 1282 2127.43 1230 2127.43 1230 2127.43 1230 2126 1239.18 2133.16 1257.53 2143.19 1266.71Z" fill="#F4BF32" fill-rule="evenodd"/><path d="M2411.25 1427C2414.13 1413.23 2414.13 1413.23 2414.13 1413.23 2417 1391.8 2404.07 1370.38 2383.95 1367.32 2154 1326 2154 1326 2154 1326 2154 1326 2154 1326 2154 1326 2372.45 1374.97 2372.45 1374.97 2372.45 1374.97 2392.57 1378.03 2415.56 1394.86 2411.25 1427" fill="#FFFFFF" fill-rule="evenodd"/><path d="M2137.18 1389.1C2154.36 1407.37 2359.11 1446.96 2372 1450 2359.11 1446.96 2152.93 1408.9 2124.3 1404.33 2122.86 1348 2122.86 1348 2122.86 1348 2120 1357.13 2128.59 1378.45 2137.18 1389.1Z" fill="#F4BF32" fill-rule="evenodd"/><path d="M2123.5 1402.95C2123.5 1419.75 2110.59 1433.5 2094.82 1433.5 2000.18 1433.5 2000.18 1433.5 2000.18 1433.5 1984.41 1433.5 1971.5 1419.75 1971.5 1402.95 1971.5 1073.05 1971.5 1073.05 1971.5 1073.05 1971.5 1056.25 1984.41 1042.5 2000.18 1042.5 2094.82 1042.5 2094.82 1042.5 2094.82 1042.5 2110.59 1042.5 2123.5 1056.25 2123.5 1073.05L2123.5 1402.95Z" stroke="#333333" stroke-width="2.86476" stroke-linecap="round" stroke-linejoin="round" stroke-miterlimit="10" fill="none" fill-rule="evenodd"/><path d="M2419.64 1067.01C2416.78 1054.88 2416.78 1054.88 2416.78 1054.88 2413.92 1033.66 2393.89 1018.5 2373.86 1023.05 2123.5 1068.52 2123.5 1068.52 2123.5 1068.52 2123.5 1070.04 2123.5 1071.55 2123.5 1073.07 2123.5 1162.5 2123.5 1162.5 2123.5 1162.5 2388.16 1112.48 2388.16 1112.48 2388.16 1112.48 2409.62 1107.93 2422.5 1088.23 2419.64 1067.01Z" stroke="#333333" stroke-width="2.86476" stroke-linecap="round" stroke-linejoin="round" stroke-miterlimit="10" fill="none" fill-rule="evenodd"/><path d="M2392.32 1192.5C2123.5 1192.5 2123.5 1192.5 2123.5 1192.5 2123.5 1283.5 2123.5 1283.5 2123.5 1283.5 2392.32 1283.5 2392.32 1283.5 2392.32 1283.5 2413.77 1283.5 2429.5 1266.82 2429.5 1244.07 2429.5 1231.93 2429.5 1231.93 2429.5 1231.93 2429.5 1210.7 2413.77 1192.5 2392.32 1192.5Z" stroke="#333333" stroke-width="2.86476" stroke-linecap="round" stroke-linejoin="round" stroke-miterlimit="10" fill="none" fill-rule="evenodd"/><path d="M2388.16 1365.05C2123.5 1314.5 2123.5 1314.5 2123.5 1314.5 2123.5 1403.35 2123.5 1403.35 2123.5 1403.35 2123.5 1404.88 2123.5 1406.41 2123.5 1407.95 2373.86 1455.44 2373.86 1455.44 2373.86 1455.44 2393.89 1458.5 2413.92 1444.71 2416.78 1423.27 2419.64 1411.01 2419.64 1411.01 2419.64 1411.01 2422.5 1389.56 2409.62 1368.12 2388.16 1365.05Z" stroke="#333333" stroke-width="2.86476" stroke-linecap="round" stroke-linejoin="round" stroke-miterlimit="10" fill="none" fill-rule="evenodd"/></g></svg>