<svg width="491" height="389" xmlns="http://www.w3.org/2000/svg" xmlns:xlink="http://www.w3.org/1999/xlink" xml:space="preserve" overflow="hidden"><g transform="translate(-1108 -1319)"><path d="M1109 1509.53C1109 1657.46 1210.49 1706 1376.75 1706 1540.86 1706 1597 1615.86 1597 1504.91 1597 1396.28 1473.92 1320 1331.41 1320 1186.73 1320 1109 1361.6 1109 1509.53Z" fill="#FFE800" fill-rule="evenodd"/><path d="M1447.35 1675.48C1469.09 1687 1523.43 1640.91 1545.17 1610.96 1564.74 1583.3 1593 1475 1564.74 1486.52 1547.35 1488.83 1549.52 1516.48 1545.17 1530.3 1538.65 1553.35 1525.61 1560.26 1510.39 1578.7 1497.35 1594.83 1497.35 1613.26 1486.48 1629.39 1475.61 1647.83 1458.22 1657.04 1443 1670.87 1443 1675.48 1443 1675.48 1447.35 1675.48Z" fill="#F08D00" fill-rule="evenodd"/><path d="M1140.91 1555C1115 1504.42 1130.12 1453.85 1158.19 1410.17 1184.1 1366.48 1225.13 1359.59 1270.47 1350.39 1346.05 1332 1443.22 1354.99 1508 1394.07 1486.41 1400.97 1477.77 1391.77 1458.34 1387.18 1438.9 1382.58 1417.31 1384.88 1397.87 1382.58 1374.12 1377.98 1352.53 1375.68 1328.77 1377.98 1302.86 1382.58 1292.07 1394.07 1270.47 1403.27 1233.76 1417.06 1199.21 1396.37 1168.98 1435.45 1147.39 1463.04 1125.8 1506.72 1138.75 1555" fill="#FFF9BD" fill-rule="evenodd"/><path d="M1156 1610C1175.45 1658.42 1244.61 1669.94 1287.84 1676.86 1311.61 1679.17 1333.23 1676.86 1357 1679.17 1376.45 1681.47 1406.71 1693 1424 1681.47 1402.39 1688.39 1385.1 1669.94 1365.65 1665.33 1339.71 1656.11 1311.61 1669.94 1285.68 1663.03 1248.94 1653.81 1186.26 1656.11 1164.65 1619.22" fill="#FFC400" fill-rule="evenodd"/><path d="M1506.17 1609C1504 1583.62 1530 1572.08 1543 1553.62 1549.5 1546.69 1551.67 1535.15 1553.83 1525.92 1556 1519 1560.33 1489 1569 1502.85 1558.17 1505.15 1558.17 1549 1553.83 1558.23 1549.5 1572.08 1536.5 1569.77 1530 1579 1525.67 1583.62 1519.17 1585.92 1517 1590.54 1512.67 1595.15 1508.33 1602.08 1508.33 1609" fill="#F5BA59" fill-rule="evenodd"/><path d="M1109.5 1510.03C1109.5 1657.96 1210.99 1706.5 1377.25 1706.5 1541.36 1706.5 1597.5 1616.36 1597.5 1505.41 1597.5 1396.78 1474.42 1320.5 1331.91 1320.5 1187.23 1320.5 1109.5 1362.1 1109.5 1510.03Z" stroke="#333333" stroke-width="2.86476" stroke-linecap="round" stroke-linejoin="round" stroke-miterlimit="10" fill="none" fill-rule="evenodd"/><path d="M1169 1384C1169 1374.61 1176.16 1367 1185 1367 1193.84 1367 1201 1374.61 1201 1384 1201 1393.39 1193.84 1401 1185 1401 1176.16 1401 1169 1393.39 1169 1384Z" fill="#FFFFFF" fill-rule="evenodd"/><path d="M1152 1407C1152 1402.58 1155.36 1399 1159.5 1399 1163.64 1399 1167 1402.58 1167 1407 1167 1411.42 1163.64 1415 1159.5 1415 1155.36 1415 1152 1411.42 1152 1407Z" fill="#FFFFFF" fill-rule="evenodd"/><path d="M1205 1365.5C1205 1360.81 1207.91 1357 1211.5 1357 1215.09 1357 1218 1360.81 1218 1365.5 1218 1370.19 1215.09 1374 1211.5 1374 1207.91 1374 1205 1370.19 1205 1365.5Z" fill="#FFFFFF" fill-rule="evenodd"/></g></svg>