<svg width="307" height="240" xmlns="http://www.w3.org/2000/svg" xmlns:xlink="http://www.w3.org/1999/xlink" xml:space="preserve" overflow="hidden"><g transform="translate(-943 -659)"><path d="M1248 776.206C1248 721.161 1209.46 660 1085.3 660 979.681 660 944 721.161 944 786.91 944 869.477 1002.52 897 1096.71 897 1189.48 897 1248 851.129 1248 776.206Z" fill="#FFE800" fill-rule="evenodd"/><path d="M972.086 769.675C970.643 762.05 960.543 759 956.214 772.725 949 791.025 954.772 823.05 972.086 845.925 989.4 868.8 1016.81 881 1041.34 877.95 1050 874.9 1050 864.225 1047.11 861.175 1041.34 855.075 1031.24 853.55 1024.03 853.55 1005.27 850.5 995.172 847.45 985.072 827.625 977.857 815.425 976.414 784.925 972.086 769.675Z" fill="#F08D00" fill-rule="evenodd"/><path d="M975.296 738.093C971 676.611 1062.64 672 1101.3 672 1155.7 672 1212.98 690.444 1223 755 1218.7 715.037 1184.34 711.963 1155.7 707.352 1142.82 704.278 1131.36 695.056 1118.48 691.982 1104.16 688.907 1097 693.519 1084.11 696.593 1062.64 701.204 1039.73 682.759 1019.68 691.982 1005.36 696.593 979.591 722.722 978.159 736.555" fill="#FFF9BD" fill-rule="evenodd"/><path d="M1073 883.46C1090.14 878.838 1113 880.379 1130.14 878.838 1148.71 877.297 1164.43 875.757 1180.14 866.514 1195.86 857.27 1215.86 846.487 1223 828 1230.14 811.054 1233 789.487 1225.86 771 1227.29 792.568 1224.43 811.054 1205.86 823.378 1198.71 826.46 1190.14 828 1184.43 834.162 1178.71 840.324 1177.29 848.027 1168.71 854.189 1154.43 863.433 1137.29 863.433 1121.57 868.054 1111.57 872.676 1090.14 885 1078.71 880.379" fill="#FFC400" fill-rule="evenodd"/><path d="M965 774.533C965 773 963.571 773 963.571 773 955 776.067 960.714 799.067 962.143 805.2 963.571 819 967.857 831.267 975 842 967.857 829.733 967.857 819 966.428 803.667 966.428 797.533 959.286 783.733 969.286 780.667 967.857 779.133 967.857 777.6 967.857 776.067" fill="#F5BA59" fill-rule="evenodd"/><path d="M1008 857C1017.92 857 1032.08 857 1042 865" fill="#F5BA59" fill-rule="evenodd"/><path d="M1248.5 776.706C1248.5 721.661 1209.96 660.5 1085.8 660.5 980.181 660.5 944.5 721.661 944.5 787.41 944.5 869.977 1003.02 897.5 1097.21 897.5 1189.98 897.5 1248.5 851.629 1248.5 776.706Z" stroke="#333333" stroke-width="2.86476" stroke-linecap="round" stroke-linejoin="round" stroke-miterlimit="10" fill="none" fill-rule="evenodd"/><path d="M987 706.5C987 700.149 991.701 695 997.5 695 1003.3 695 1008 700.149 1008 706.5 1008 712.851 1003.3 718 997.5 718 991.701 718 987 712.851 987 706.5Z" fill="#FFFFFF" fill-rule="evenodd"/><path d="M975 721.5C975 718.463 977.238 716 980 716 982.761 716 985 718.463 985 721.5 985 724.538 982.761 727 980 727 977.238 727 975 724.538 975 721.5Z" fill="#FFFFFF" fill-rule="evenodd"/><path d="M1011 693C1011 690.238 1012.79 688 1015 688 1017.21 688 1019 690.238 1019 693 1019 695.761 1017.21 698 1015 698 1012.79 698 1011 695.761 1011 693Z" fill="#FFFFFF" fill-rule="evenodd"/></g></svg>