<svg width="529" height="410" xmlns="http://www.w3.org/2000/svg" xmlns:xlink="http://www.w3.org/1999/xlink" xml:space="preserve" overflow="hidden"><g transform="translate(-1933 -1539)"><path d="M1934 1755.32C1934 1857.72 1997.91 1947 2199.46 1947 2398.55 1947 2460 1865.6 2460 1742.19 2460 1616.15 2290.4 1540 2177.34 1540 2066.73 1540 1934 1613.52 1934 1755.32Z" fill="#FFE800" fill-rule="evenodd"/><path d="M2167.39 1926.44C2199.35 1937 2260.82 1929.08 2292.78 1923.8 2307.53 1921.16 2337.04 1915.88 2349.33 1902.68 2369 1881.56 2354.25 1871 2332.12 1873.64 2312.45 1873.64 2290.32 1884.2 2270.65 1886.84 2236.23 1892.12 2204.27 1886.84 2172.3 1881.56 2101 1873.64 2120.67 1918.52 2167.39 1926.44Z" fill="#F08D00" fill-rule="evenodd"/><path d="M2191.82 1558.62C2120.48 1563.86 2036.85 1584.81 1992.57 1650.29 1936 1734.1 1948.3 1849.33 2036.85 1886 1980.28 1875.52 1987.66 1776 1995.03 1736.71 2004.87 1676.48 2029.47 1676.48 2071.29 1645.05 2113.1 1616.24 2135.24 1605.76 2189.36 1597.9 2233.63 1592.67 2322.18 1592.67 2359.08 1621.48 2364 1621.48 2361.54 1626.71 2361.54 1624.1 2339.4 1595.29 2238.55 1556 2204.11 1556" fill="#FFF9BD" fill-rule="evenodd"/><path d="M2410.58 1671.87C2442.54 1716.44 2445 1763.64 2427.79 1816.09 2415.5 1852.8 2366.33 1897.38 2327 1900 2383.54 1881.64 2386 1837.07 2405.67 1789.87 2415.5 1768.89 2415.5 1745.29 2415.5 1721.69 2413.04 1692.84 2417.96 1684.98 2405.67 1664" fill="#FFC400" fill-rule="evenodd"/><path d="M2137 1897C2146.95 1881 2171.84 1894.33 2186.77 1894.33 2206.67 1899.67 2226.58 1899.67 2244 1897 2226.58 1902.33 2209.16 1905 2191.74 1905 2181.79 1905 2146.95 1897 2151.93 1913 2146.95 1910.33 2141.98 1907.67 2139.49 1902.33" fill="#F5BA59" fill-rule="evenodd"/><path d="M1934.5 1755.82C1934.5 1858.22 1998.41 1947.5 2199.96 1947.5 2399.05 1947.5 2460.5 1866.1 2460.5 1742.69 2460.5 1616.65 2290.9 1540.5 2177.84 1540.5 2067.23 1540.5 1934.5 1614.02 1934.5 1755.82Z" stroke="#333333" stroke-width="2.86476" stroke-linecap="round" stroke-linejoin="round" stroke-miterlimit="10" fill="none" fill-rule="evenodd"/><path d="M2014 1620.5C2014 1609.73 2022.95 1601 2034 1601 2045.05 1601 2054 1609.73 2054 1620.5 2054 1631.27 2045.05 1640 2034 1640 2022.95 1640 2014 1631.27 2014 1620.5Z" fill="#FFFFFF" fill-rule="evenodd"/><path d="M1998 1646.5C1998 1641.25 2001.13 1637 2005 1637 2008.87 1637 2012 1641.25 2012 1646.5 2012 1651.75 2008.87 1656 2005 1656 2001.13 1656 1998 1651.75 1998 1646.5Z" fill="#FFFFFF" fill-rule="evenodd"/><path d="M2057 1596.5C2057 1591.25 2060.58 1587 2065 1587 2069.42 1587 2073 1591.25 2073 1596.5 2073 1601.75 2069.42 1606 2065 1606 2060.58 1606 2057 1601.75 2057 1596.5Z" fill="#FFFFFF" fill-rule="evenodd"/></g></svg>