<svg width="489" height="312" xmlns="http://www.w3.org/2000/svg" xmlns:xlink="http://www.w3.org/1999/xlink" xml:space="preserve" overflow="hidden"><g transform="translate(-2345 -907)"><path d="M2346 1046.4C2346 1182.67 2470 1206.1 2564 1214.61 2658 1221 2832 1221 2832 1082.6 2832 942.068 2710 908 2586 908 2462 908 2346 931.422 2346 1046.4Z" fill="#FFE800" fill-rule="evenodd"/><path d="M2404 968.524C2390 960 2356 1017.54 2362 1055.89 2366 1077.2 2372 1139 2404 1136.87 2432 1136.87 2412 1119.82 2406 1107.04 2398 1089.99 2400 1070.81 2398 1051.63 2396 1036.71 2390 1017.54 2396 1002.62 2400 989.833 2420 974.917 2404 968.524Z" fill="#F08D00" fill-rule="evenodd"/><path d="M2416 964.703C2460 945.486 2502 947.622 2546 947.622 2582 947.622 2616 943.351 2652 951.892 2684 960.432 2710 971.108 2738 986.054 2776 1007.41 2800 1041.57 2816 1080 2820 1039.43 2788 986.054 2756 960.432 2728 934.811 2682 934.811 2648 930.54 2610 928.405 2572 922 2536 924.135 2496 928.405 2460 947.622 2422 954.027" fill="#FFF9BD" fill-rule="evenodd"/><path d="M2462 1173.6C2478 1173.6 2496 1182.16 2510 1184.3 2528 1186.44 2546 1186.44 2562 1188.58 2592 1190.72 2620 1195 2650 1192.86 2696 1186.44 2824 1180.02 2804 1103 2800 1124.4 2772 1141.51 2750 1147.93 2738 1152.21 2734 1152.21 2722 1156.49 2710 1165.05 2698 1169.33 2682 1171.47 2658 1177.88 2634 1177.88 2610 1180.02 2588 1182.16 2530 1186.44 2508 1180.02" fill="#FFC400" fill-rule="evenodd"/><path d="M2374 1014.25C2372 1024.89 2368 1033.4 2368 1044.04 2368 1054.67 2372 1065.31 2374 1075.95 2378 1090.84 2378 1120.62 2394 1127 2382 1122.75 2378 1082.33 2376 1067.44 2376 1058.93 2374 1048.29 2374 1039.78 2374 1035.53 2376 1029.15 2376 1024.89 2376 1018.51 2372 1016.38 2376 1010" fill="#F5BA59" fill-rule="evenodd"/><path d="M2346.5 1046.9C2346.5 1183.17 2470.5 1206.6 2564.5 1215.11 2658.5 1221.5 2832.5 1221.5 2832.5 1083.1 2832.5 942.568 2710.5 908.5 2586.5 908.5 2462.5 908.5 2346.5 931.922 2346.5 1046.9Z" stroke="#333333" stroke-width="2.86476" stroke-linecap="round" stroke-linejoin="round" stroke-miterlimit="10" fill="none" fill-rule="evenodd"/><path d="M2392 975C2392 966.164 2398.72 959 2407 959 2415.28 959 2422 966.164 2422 975 2422 983.837 2415.28 991 2407 991 2398.72 991 2392 983.837 2392 975Z" fill="#FFFFFF" fill-rule="evenodd"/><path d="M2376 995.5C2376 991.358 2379.13 988 2383 988 2386.87 988 2390 991.358 2390 995.5 2390 999.642 2386.87 1003 2383 1003 2379.13 1003 2376 999.642 2376 995.5Z" fill="#FFFFFF" fill-rule="evenodd"/><path d="M2426 955C2426 950.582 2429.13 947 2433 947 2436.87 947 2440 950.582 2440 955 2440 959.418 2436.87 963 2433 963 2429.13 963 2426 959.418 2426 955Z" fill="#FFFFFF" fill-rule="evenodd"/></g></svg>