<svg width="508" height="534" xmlns="http://www.w3.org/2000/svg" xmlns:xlink="http://www.w3.org/1999/xlink" xml:space="preserve" overflow="hidden"><g transform="translate(-1484 -1448)"><path d="M1862 1761C1883.5 1776.14 1883.5 1791.29 1883.5 1814 1894.25 1810.21 1905 1791.29 1901.42 1779.93 1897.83 1761 1883.5 1772.36 1872.75 1761" fill="#4E99BE" fill-rule="evenodd"/><path d="M1485 1716.5C1485 1570.97 1595.14 1453 1731 1453 1866.86 1453 1977 1570.97 1977 1716.5 1977 1862.03 1866.86 1980 1731 1980 1595.14 1980 1485 1862.03 1485 1716.5Z" fill="#9DC3D9" fill-rule="evenodd"/><path d="M1485.5 1717C1485.5 1571.47 1595.64 1453.5 1731.5 1453.5 1867.36 1453.5 1977.5 1571.47 1977.5 1717 1977.5 1862.53 1867.36 1980.5 1731.5 1980.5 1595.64 1980.5 1485.5 1862.53 1485.5 1717Z" stroke="#333333" stroke-width="2.86476" stroke-linecap="round" stroke-linejoin="round" stroke-miterlimit="10" fill="none" fill-rule="evenodd"/><path d="M1590 1717C1590 1635.26 1652.46 1569 1729.5 1569 1806.54 1569 1869 1635.26 1869 1717 1869 1798.74 1806.54 1865 1729.5 1865 1652.46 1865 1590 1798.74 1590 1717Z" fill="#FFFF00" fill-rule="evenodd"/><path d="M1522.1 1737.43C1522.1 1598.57 1627.09 1486.71 1757.42 1486.71 1768.28 1486.71 1779.14 1486.71 1790 1490.57 1771.9 1482.86 1750.18 1479 1724.84 1479 1605.37 1479 1504 1583.14 1504 1714.29 1504 1768.29 1522.1 1818.43 1551.06 1857 1532.96 1822.29 1522.1 1779.86 1522.1 1737.43Z" fill="#FFFFFF" fill-rule="evenodd"/><path d="M1837.03 1495C1884.05 1541.21 1912.98 1606.69 1912.98 1679.86 1912.98 1818.5 1811.71 1926.34 1681.5 1926.34 1641.72 1926.34 1605.55 1918.64 1573 1899.38 1612.79 1937.89 1667.04 1961 1728.52 1961 1855.11 1961 1960 1849.31 1960 1714.52 1960 1622.09 1909.36 1537.36 1837.03 1495Z" fill="#4E99BE" fill-rule="evenodd"/><path d="M1619.45 1721.81C1619.45 1648.63 1688.11 1594.7 1756.77 1594.7 1764 1594.7 1749.55 1590.85 1756.77 1594.7 1745.93 1590.85 1735.09 1587 1724.25 1587 1659.2 1587 1605 1644.78 1605 1714.11 1605 1741.07 1615.84 1775.74 1630.3 1795 1619.45 1775.74 1619.45 1744.93 1619.45 1721.81Z" fill="#FFFFFF" fill-rule="evenodd"/><path d="M1786.09 1610C1811.58 1633.21 1826.15 1668.03 1826.15 1702.85 1826.15 1772.49 1775.17 1830.52 1709.62 1830.52 1687.77 1830.52 1669.57 1822.79 1655 1815.05 1673.21 1834.39 1702.34 1846 1731.47 1846 1797.02 1846 1848 1791.84 1848 1722.2 1848 1675.77 1826.15 1633.21 1786.09 1610Z" fill="#FFD100" fill-rule="evenodd"/><path d="M1742 1487.54C1778.33 1506.78 1829.18 1537.56 1854.61 1576.03 1876.41 1614.51 1865.51 1656.83 1880.04 1703 1920 1683.76 1916.37 1606.81 1905.47 1568.34 1887.31 1495.24 1840.08 1483.7 1774.69 1476" fill="#4E99BE" fill-rule="evenodd"/><path d="M1590 1717C1590 1635.26 1652.46 1569 1729.5 1569 1806.54 1569 1869 1635.26 1869 1717 1869 1798.74 1806.54 1865 1729.5 1865 1652.46 1865 1590 1798.74 1590 1717Z" stroke="#333333" stroke-width="1.71893" stroke-linecap="round" stroke-linejoin="round" stroke-miterlimit="10" fill="none" fill-rule="evenodd"/><path d="M1605 1608C1605 1587.57 1619.55 1571 1637.5 1571 1655.45 1571 1670 1587.57 1670 1608 1670 1628.43 1655.45 1645 1637.5 1645 1619.55 1645 1605 1628.43 1605 1608Z" fill="#FFFFFF" fill-rule="evenodd"/><path d="M1588 1654.5C1588 1643.18 1596.73 1634 1607.5 1634 1618.27 1634 1627 1643.18 1627 1654.5 1627 1665.82 1618.27 1675 1607.5 1675 1596.73 1675 1588 1665.82 1588 1654.5Z" fill="#FFFFFF" fill-rule="evenodd"/><path d="M1674 1578C1674 1570.27 1678.93 1564 1685 1564 1691.08 1564 1696 1570.27 1696 1578 1696 1585.73 1691.08 1592 1685 1592 1678.93 1592 1674 1585.73 1674 1578Z" fill="#FFFFFF" fill-rule="evenodd"/><path d="M1728.06 1456.9C1702.74 1460.74 1702.74 1460.74 1702.74 1460.74 1684.65 1464.59 1666.56 1483.8 1670.18 1506.86 1673.79 1529.91 1691.88 1545.29 1713.59 1541.44 1738.91 1537.6 1738.91 1537.6 1738.91 1537.6 1778.71 1529.91 1818.5 1522.23 1825.74 1541.44 1829.35 1552.97 1825.74 1564.5 1814.88 1587.56 1800.41 1625.99 1775.09 1683.63 1843.82 1741.27 1861.91 1756.64 1880 1760.49 1894.47 1764.33 1908.94 1768.17 1908.94 1768.17 1912.56 1772.01 1919.79 1787.39 1905.32 1810.44 1890.85 1825.81 1865.53 1856.56 1832.97 1856.56 1785.94 1856.56 1746.15 1856.56 1699.12 1856.56 1655.71 1891.14 1637.62 1902.67 1634 1929.57 1644.85 1948.79 1659.32 1964.16 1681.03 1968 1699.12 1956.47 1720.82 1937.26 1753.38 1937.26 1785.94 1937.26 1836.59 1937.26 1894.47 1937.26 1945.12 1883.46 1977.68 1848.87 2003 1791.23 1981.29 1737.43 1963.21 1695.16 1927.03 1687.47 1908.94 1683.63 1898.09 1683.63 1894.47 1679.79 1890.85 1679.79 1869.15 1660.57 1869.15 1652.89 1883.62 1622.14 1894.47 1595.24 1912.56 1556.81 1894.47 1510.7 1865.53 1430 1775.09 1449.21 1728.06 1456.9Z" fill="#F5BCC5" fill-rule="evenodd"/><path d="M1706 1475.11C1771.39 1459.56 1840.41 1444 1884 1514 1869.47 1486.78 1800.45 1459.56 1706 1475.11Z" fill="#EAF1F7" fill-rule="evenodd"/><path d="M1923 1795C1901.37 1844.76 1897.76 1860.07 1825.65 1871.55 1753.54 1879.21 1706.66 1863.9 1667 1906 1713.87 1883.03 1778.77 1890.69 1825.65 1886.86 1894.15 1879.21 1923 1856.24 1923 1795Z" fill="#EAF1F7" fill-rule="evenodd"/><path d="M1891 1560C1883.78 1594.64 1826 1675.45 1891 1687 1854.89 1683.15 1844.06 1683.15 1847.67 1644.67 1847.67 1610.03 1887.39 1583.09 1891 1560Z" fill="#EC6D88" fill-rule="evenodd"/><path d="M1728.56 1457.4C1703.24 1461.24 1703.24 1461.24 1703.24 1461.24 1685.15 1465.09 1667.06 1484.3 1670.68 1507.36 1674.29 1530.41 1692.38 1545.79 1714.09 1541.94 1739.41 1538.1 1739.41 1538.1 1739.41 1538.1 1779.21 1530.41 1819 1522.73 1826.24 1541.94 1829.85 1553.47 1826.24 1565 1815.38 1588.06 1800.91 1626.49 1775.59 1684.13 1844.32 1741.77 1862.41 1757.14 1880.5 1760.99 1894.97 1764.83 1909.44 1768.67 1909.44 1768.67 1913.06 1772.51 1920.29 1787.89 1905.82 1810.94 1891.35 1826.31 1866.03 1857.06 1833.47 1857.06 1786.44 1857.06 1746.65 1857.06 1699.62 1857.06 1656.21 1891.64 1638.12 1903.17 1634.5 1930.07 1645.35 1949.29 1659.82 1964.66 1681.53 1968.5 1699.62 1956.97 1721.32 1937.76 1753.88 1937.76 1786.44 1937.76 1837.09 1937.76 1894.97 1937.76 1945.62 1883.96 1978.18 1849.37 2003.5 1791.73 1981.79 1737.93 1963.71 1695.66 1927.53 1687.97 1909.44 1684.13 1898.59 1684.13 1894.97 1680.29 1891.35 1680.29 1869.65 1661.07 1869.65 1653.39 1884.12 1622.64 1894.97 1595.74 1913.06 1557.31 1894.97 1511.2 1866.03 1430.5 1775.59 1449.71 1728.56 1457.4Z" stroke="#333333" stroke-width="2.86476" stroke-linecap="round" stroke-linejoin="round" stroke-miterlimit="10" fill="none" fill-rule="evenodd"/></g></svg>