<svg width="311" height="321" xmlns="http://www.w3.org/2000/svg" xmlns:xlink="http://www.w3.org/1999/xlink" xml:space="preserve" overflow="hidden"><g transform="translate(-936 -1541)"><path d="M953 1700C953 1613.84 1018.37 1544 1099 1544 1179.63 1544 1245 1613.84 1245 1700 1245 1786.16 1179.63 1856 1099 1856 1018.37 1856 953 1786.16 953 1700Z" fill="#9DC3D9" fill-rule="evenodd"/><path d="M953.5 1700.5C953.5 1614.34 1018.87 1544.5 1099.5 1544.5 1180.13 1544.5 1245.5 1614.34 1245.5 1700.5 1245.5 1786.66 1180.13 1856.5 1099.5 1856.5 1018.87 1856.5 953.5 1786.66 953.5 1700.5Z" stroke="#333333" stroke-width="2.86476" stroke-linecap="round" stroke-linejoin="round" stroke-miterlimit="10" fill="none" fill-rule="evenodd"/><path d="M1018 1701.5C1018 1653.17 1054.94 1614 1100.5 1614 1146.06 1614 1183 1653.17 1183 1701.5 1183 1749.82 1146.06 1789 1100.5 1789 1054.94 1789 1018 1749.82 1018 1701.5Z" fill="#FFFF00" fill-rule="evenodd"/><path d="M977.118 1713.51C977.118 1632.49 1039.38 1563.38 1114.99 1563.38 1121.66 1563.38 1128.33 1565.77 1135 1565.77 1123.88 1561 1110.54 1561 1097.2 1561 1023.82 1561 966 1622.96 966 1699.21 966 1732.57 977.118 1761.17 992.684 1785 981.566 1763.55 977.118 1739.72 977.118 1713.51Z" fill="#FFFFFF" fill-rule="evenodd"/><path d="M1160.04 1578C1186.73 1604.1 1204.53 1639.69 1204.53 1680.03 1204.53 1755.95 1146.69 1820.02 1073.29 1820.02 1051.04 1820.02 1031.02 1812.9 1011 1803.41 1035.47 1824.76 1064.39 1839 1099.98 1839 1171.16 1839 1229 1777.31 1229 1699.01 1229 1646.81 1202.31 1601.73 1160.04 1578Z" fill="#4E99BE" fill-rule="evenodd"/><path d="M1035.86 1703.69C1035.86 1660.77 1075.71 1627.38 1115.57 1627.38 1120 1627.38 1113.36 1627.38 1117.79 1627.38 1111.14 1625 1104.5 1625 1095.64 1625 1058 1625 1027 1658.38 1027 1698.92 1027 1715.62 1033.64 1734.69 1042.5 1749 1035.86 1737.08 1035.86 1718 1035.86 1703.69Z" fill="#FFFFFF" fill-rule="evenodd"/><path d="M1135.31 1640C1148.69 1651.9 1157.62 1670.93 1157.62 1694.72 1157.62 1735.17 1126.38 1768.48 1088.46 1768.48 1077.31 1768.48 1066.15 1763.72 1055 1758.97 1068.38 1770.86 1084 1778 1101.85 1778 1139.77 1778 1171 1744.69 1171 1704.24 1171 1675.69 1155.38 1651.9 1135.31 1640Z" fill="#FFD100" fill-rule="evenodd"/><path d="M1018.5 1702C1018.5 1653.68 1055.44 1614.5 1101 1614.5 1146.56 1614.5 1183.5 1653.68 1183.5 1702 1183.5 1750.32 1146.56 1789.5 1101 1789.5 1055.44 1789.5 1018.5 1750.32 1018.5 1702Z" stroke="#333333" stroke-width="1.14583" stroke-linecap="round" stroke-linejoin="round" stroke-miterlimit="10" fill="none" fill-rule="evenodd"/><path d="M1004 1656.5C1004 1644.63 1013.18 1635 1024.5 1635 1035.82 1635 1045 1644.63 1045 1656.5 1045 1668.37 1035.82 1678 1024.5 1678 1013.18 1678 1004 1668.37 1004 1656.5Z" fill="#FFFFFF" fill-rule="evenodd"/><path d="M1009 1694C1009 1687.37 1013.92 1682 1020 1682 1026.07 1682 1031 1687.37 1031 1694 1031 1700.63 1026.07 1706 1020 1706 1013.92 1706 1009 1700.63 1009 1694Z" fill="#FFFFFF" fill-rule="evenodd"/><path d="M1040 1635C1040 1631.13 1042.91 1628 1046.5 1628 1050.09 1628 1053 1631.13 1053 1635 1053 1638.87 1050.09 1642 1046.5 1642 1042.91 1642 1040 1638.87 1040 1635Z" fill="#FFFFFF" fill-rule="evenodd"/><path d="M1118 1610.86C1133.56 1618 1135.78 1606.1 1144.67 1603.71 1155.78 1601.33 1166.89 1598.95 1178 1596.57 1169.11 1584.67 1162.44 1575.14 1149.11 1568" fill="#4E99BE" fill-rule="evenodd"/><path d="M1198 1782C1193.57 1808.12 1173.61 1834.25 1147 1839 1147 1824.75 1155.87 1812.88 1160.3 1801" fill="#4E99BE" fill-rule="evenodd"/><path d="M1166.72 1556.59C1171.18 1566.07 1166.72 1580.3 1155.58 1585.04 1137.75 1592.15 1133.3 1601.63 1126.61 1608.74 1115.47 1630.07 1099.88 1639.56 1057.54 1637.19 1028.58 1637.19 995.158 1637.19 981.789 1649.04 979.561 1651.41 977.333 1656.15 977.333 1668 977.333 1691.7 986.246 1698.81 1004.07 1710.67 1024.12 1727.26 1024.12 1727.26 1024.12 1727.26 1033.04 1734.37 1037.49 1736.74 1044.18 1741.48 1062 1748.59 1073.14 1758.07 1095.42 1798.37 1099.88 1803.11 1108.79 1817.33 1117.7 1817.33 1126.61 1814.96 1139.98 1798.37 1146.67 1772.3 1148.89 1760.44 1160.04 1753.33 1171.18 1758.07 1182.32 1760.44 1189 1772.3 1186.77 1784.15 1175.63 1826.81 1151.12 1855.26 1122.16 1860 1108.79 1860 1084.28 1857.63 1062 1819.7 1044.18 1788.89 1035.26 1784.15 1026.35 1779.41 1019.67 1774.67 1010.75 1769.93 999.614 1760.44 981.789 1746.22 981.789 1746.22 981.789 1746.22 959.509 1732 935 1715.41 937.228 1668 937.228 1646.67 943.912 1630.07 955.053 1618.22 975.105 1596.89 1012.98 1592.15 1059.77 1594.52 1086.51 1594.52 1088.74 1592.15 1093.19 1585.04 1099.88 1575.56 1111.02 1558.96 1139.98 1544.74 1151.12 1540 1162.26 1544.74 1166.72 1556.59Z" fill="#F5BCC5" fill-rule="evenodd"/><path d="M1042.07 1758.54C1030.98 1751.37 984.4 1717.92 971.091 1703.58 960 1689.24 964.436 1670.12 973.309 1651 973.309 1651 966.655 1679.68 975.527 1696.41 986.618 1713.14 1024.33 1739.42 1044.29 1748.98 1064.25 1760.93 1068.69 1770.49 1082 1792 1073.13 1782.44 1059.82 1770.49 1042.07 1758.54Z" fill="#EC6D88" fill-rule="evenodd"/><path d="M1149 1576C1129.05 1587.74 1126.84 1597.13 1113.54 1611.22 1102.46 1625.3 1084.73 1630 1067 1630 1082.51 1625.3 1104.68 1615.91 1113.54 1601.83 1122.41 1587.74 1149 1576 1149 1576Z" fill="#EC6D88" fill-rule="evenodd"/><path d="M1167 1812.4C1151.33 1838.8 1126.7 1858 1097.59 1848.4 1070.72 1838.8 1064 1810 1064 1810 1072.96 1822 1088.63 1841.2 1113.26 1841.2 1137.89 1841.2 1155.8 1824.4 1167 1812.4Z" fill="#EC6D88" fill-rule="evenodd"/><path d="M951 1637C959.851 1611.56 993.043 1600 1055 1600 1030.66 1604.63 975.341 1604.63 951 1637Z" fill="#EAF1F7" fill-rule="evenodd"/><path d="M1167.22 1557.09C1171.68 1566.57 1167.22 1580.8 1156.08 1585.54 1138.25 1592.65 1133.8 1602.13 1127.11 1609.24 1115.97 1630.57 1100.38 1640.06 1058.04 1637.69 1029.08 1637.69 995.658 1637.69 982.289 1649.54 980.061 1651.91 977.833 1656.65 977.833 1668.5 977.833 1692.2 986.745 1699.31 1004.57 1711.17 1024.62 1727.76 1024.62 1727.76 1024.62 1727.76 1033.53 1734.87 1037.99 1737.24 1044.68 1741.98 1062.5 1749.09 1073.64 1758.57 1095.92 1798.87 1100.38 1803.61 1109.29 1817.83 1118.2 1817.83 1127.11 1815.46 1140.48 1798.87 1147.17 1772.8 1149.39 1760.94 1160.53 1753.83 1171.68 1758.57 1182.82 1760.94 1189.5 1772.8 1187.27 1784.65 1176.13 1827.31 1151.62 1855.76 1122.66 1860.5 1109.29 1860.5 1084.78 1858.13 1062.5 1820.2 1044.68 1789.39 1035.76 1784.65 1026.85 1779.91 1020.17 1775.17 1011.25 1770.43 1000.11 1760.94 982.289 1746.72 982.289 1746.72 982.289 1746.72 960.009 1732.5 935.5 1715.91 937.728 1668.5 937.728 1647.17 944.412 1630.57 955.552 1618.72 975.605 1597.39 1013.48 1592.65 1060.27 1595.02 1087.01 1595.02 1089.24 1592.65 1093.69 1585.54 1100.38 1576.06 1111.52 1559.46 1140.48 1545.24 1151.62 1540.5 1162.76 1545.24 1167.22 1557.09Z" stroke="#333333" stroke-width="2.86476" stroke-linecap="round" stroke-linejoin="round" stroke-miterlimit="10" fill="none" fill-rule="evenodd"/></g></svg>