<svg width="364" height="373" xmlns="http://www.w3.org/2000/svg" xmlns:xlink="http://www.w3.org/1999/xlink" xml:space="preserve" overflow="hidden"><g transform="translate(-2832 -604)"><path d="M2833 790C2833 687.827 2910.68 605 3006.5 605 3102.32 605 3180 687.827 3180 790 3180 892.173 3102.32 975 3006.5 975 2910.68 975 2833 892.173 2833 790Z" fill="#9DC3D9" fill-rule="evenodd"/><path d="M2987 688C3028.81 661 3078.98 673 3118 697 3098.49 679 3078.98 664 3053.89 664 3042.74 664 3026.02 661 3014.87 667 3003.72 670 3000.94 682 2987 682" fill="#4E99BE" fill-rule="evenodd"/><path d="M2866.2 807.644C2866.2 712.379 2939 634.977 3028.6 634.977 3037 634.977 3045.4 637.954 3051 637.954 3037 632 3023 632 3006.2 632 2922.2 632 2855 703.448 2855 792.759 2855 828.483 2866.2 864.207 2885.8 891 2874.6 867.184 2866.2 837.414 2866.2 807.644Z" fill="#FFFFFF" fill-rule="evenodd"/><path d="M3082.6 649C3113.4 678.804 3133 720.529 3133 768.216 3133 857.627 3063 932.137 2979 932.137 2953.8 932.137 2928.6 923.196 2909 911.274 2934.2 938.098 2970.6 953 3009.8 953 3093.8 953 3161 881.47 3161 792.059 3161 729.471 3130.2 675.824 3082.6 649Z" fill="#4E99BE" fill-rule="evenodd"/><path d="M2914 795.5C2914 737.786 2957.88 691 3012 691 3066.12 691 3110 737.786 3110 795.5 3110 853.214 3066.12 900 3012 900 2957.88 900 2914 853.214 2914 795.5Z" fill="#FFFF00" fill-rule="evenodd"/><path d="M2933.28 798C2933.28 747 2981.23 708 3029.18 708 3032 708 3023.54 708 3029.18 708 3020.72 705 3012.26 702 3003.79 702 2958.67 702 2922 741 2922 789 2922 810 2930.46 834 2941.74 849 2933.28 834 2933.28 813 2933.28 798Z" fill="#FFFFFF" fill-rule="evenodd"/><path d="M3048.12 720C3064.88 735 3076.04 759 3076.04 783 3076.04 831 3039.75 870 2995.08 870 2981.12 870 2967.17 867 2956 861 2972.75 873 2989.5 882 3011.83 882 3053.71 882 3090 843 3090 795 3090 762 3073.25 735 3048.12 720Z" fill="#FFD100" fill-rule="evenodd"/><path d="M2914 795.5C2914 737.786 2957.88 691 3012 691 3066.12 691 3110 737.786 3110 795.5 3110 853.214 3066.12 900 3012 900 2957.88 900 2914 853.214 2914 795.5Z" stroke="#333333" stroke-width="1.71893" stroke-linecap="round" stroke-linejoin="round" stroke-miterlimit="10" fill="none" fill-rule="evenodd"/><path d="M2894 755C2894 744.507 2902.73 736 2913.5 736 2924.27 736 2933 744.507 2933 755 2933 765.493 2924.27 774 2913.5 774 2902.73 774 2894 765.493 2894 755Z" fill="#FFFFFF" fill-rule="evenodd"/><path d="M2900 789C2900 782.372 2904.48 777 2910 777 2915.52 777 2920 782.372 2920 789 2920 795.627 2915.52 801 2910 801 2904.48 801 2900 795.627 2900 789Z" fill="#FFFFFF" fill-rule="evenodd"/><path d="M2939 746C2939 741.582 2942.36 738 2946.5 738 2950.64 738 2954 741.582 2954 746 2954 750.418 2950.64 754 2946.5 754 2942.36 754 2939 750.418 2939 746Z" fill="#FFFFFF" fill-rule="evenodd"/><path d="M2833.5 790.5C2833.5 688.327 2911.18 605.5 3007 605.5 3102.82 605.5 3180.5 688.327 3180.5 790.5 3180.5 892.673 3102.82 975.5 3007 975.5 2911.18 975.5 2833.5 892.673 2833.5 790.5Z" stroke="#333333" stroke-width="2.86476" stroke-linecap="round" stroke-linejoin="round" stroke-miterlimit="10" fill="none" fill-rule="evenodd"/><path d="M2987 688C2989.79 646 3048.46 658 3070.81 670 3095.95 679 3112.71 703 3132.27 724 3163 661 3068.02 646 3034.49 640" fill="#4E99BE" fill-rule="evenodd"/><path d="M2978.43 630.934C2936.29 666.835 2941.9 699.744 2944.71 732.653 2947.52 753.595 2947.52 753.595 2947.52 753.595 2947.52 774.537 2941.9 789.496 2930.67 807.446 2913.81 846.339 2913.81 846.339 2913.81 846.339 2911 855.314 2913.81 867.281 2925.05 873.265 2936.29 879.248 2950.33 873.265 2955.95 861.298 2970 828.388 2970 828.388 2970 828.388 2981.24 807.446 2992.48 786.504 2989.67 747.612 2986.86 729.661 2986.86 729.661 2986.86 729.661 2984.05 696.752 2984.05 684.785 3006.52 666.835 3014.95 657.86 3034.62 657.86 3057.1 660.851 3088 666.835 3124.52 684.785 3135.76 702.736 3149.81 726.669 3155.43 765.562 3144.19 780.521 3138.57 789.496 3130.14 786.504 3110.48 783.512 3093.62 780.521 3071.14 777.529 3051.48 789.496 3026.19 807.446 3023.38 834.372 3023.38 855.314 3020.57 867.281 3020.57 876.256 3017.76 882.24 3006.52 906.174 2972.81 918.141 2947.52 909.165 2933.48 903.182 2922.24 912.157 2919.43 924.124 2913.81 936.091 2919.43 948.058 2930.67 954.041 2978.43 969 3034.62 948.058 3057.1 903.182 3062.71 888.223 3065.52 873.265 3065.52 858.306 3068.33 843.347 3068.33 834.372 3073.95 831.38 3079.57 825.397 3088 828.388 3102.05 828.388 3124.52 834.372 3152.62 840.355 3175.1 813.43 3206 777.529 3191.95 711.711 3172.29 678.802 3149.81 642.901 3102.05 621.959 3062.71 612.984 3029 607 2998.09 612.984 2978.43 630.934Z" fill="#F5BCC5" fill-rule="evenodd"/><path d="M3034 620C3006.19 620 2978.38 637.9 2964.47 661.767 2950.56 682.65 2950.56 703.533 2953.34 724.417 2956.12 745.3 2961.69 772.15 2945 799 2961.69 784.083 2958.91 754.25 2958.91 712.483 2961.69 673.7 2986.72 634.917 3034 620Z" fill="#EAF1F7" fill-rule="evenodd"/><path d="M3029 867C3031.79 834.262 3037.38 813.429 3056.92 795.572 3076.46 780.691 3112.75 801.524 3137.88 792.595 3160.21 783.667 3160.21 762.833 3154.62 742 3163 765.81 3163 798.548 3137.88 801.524 3112.75 804.5 3076.46 792.595 3056.92 810.452 3037.38 831.286 3031.79 864.024 3029 867Z" fill="#EAF1F7" fill-rule="evenodd"/><path d="M2933 941.114C2966.65 953 3017.13 947.057 3045.17 905.457 3059.2 881.686 3062 860.886 3062 849 3056.39 863.857 3050.78 899.514 3025.54 920.314 3003.11 941.114 2952.63 953 2933 941.114Z" fill="#EC6D88" fill-rule="evenodd"/><path d="M2928 858.073C2933.55 870 2944.64 867.018 2955.73 846.146 2964.05 825.273 2980.68 789.491 2983.45 771.6 2989 750.727 2980.68 706 2980.68 706 2980.68 729.855 2986.23 759.673 2972.36 786.509 2961.27 816.327 2936.32 870 2928 858.073Z" fill="#EC6D88" fill-rule="evenodd"/><path d="M3144 661C3163.54 679 3211 751 3166.33 808 3180.29 790 3188.67 727 3144 661Z" fill="#EC6D88" fill-rule="evenodd"/><path d="M2978.93 631.434C2936.79 667.335 2942.4 700.244 2945.21 733.153 2948.02 754.095 2948.02 754.095 2948.02 754.095 2948.02 775.037 2942.4 789.996 2931.17 807.946 2914.31 846.839 2914.31 846.839 2914.31 846.839 2911.5 855.814 2914.31 867.781 2925.55 873.764 2936.79 879.748 2950.83 873.764 2956.45 861.797 2970.5 828.888 2970.5 828.888 2970.5 828.888 2981.74 807.946 2992.98 787.004 2990.17 748.111 2987.36 730.161 2987.36 730.161 2987.36 730.161 2984.55 697.252 2984.55 685.285 3007.02 667.335 3015.45 658.359 3035.12 658.359 3057.6 661.351 3088.5 667.335 3125.02 685.285 3136.26 703.235 3150.31 727.169 3155.93 766.062 3144.69 781.021 3139.07 789.996 3130.64 787.004 3110.98 784.012 3094.12 781.021 3071.64 778.029 3051.98 789.996 3026.69 807.946 3023.88 834.872 3023.88 855.814 3021.07 867.781 3021.07 876.756 3018.26 882.74 3007.02 906.673 2973.31 918.64 2948.02 909.665 2933.98 903.682 2922.74 912.657 2919.93 924.624 2914.31 936.591 2919.93 948.558 2931.17 954.541 2978.93 969.5 3035.12 948.558 3057.6 903.682 3063.21 888.723 3066.02 873.764 3066.02 858.806 3068.83 843.847 3068.83 834.872 3074.45 831.88 3080.07 825.897 3088.5 828.888 3102.55 828.888 3125.02 834.872 3153.12 840.855 3175.6 813.93 3206.5 778.029 3192.45 712.211 3172.79 679.302 3150.31 643.401 3102.55 622.459 3063.21 613.483 3029.5 607.5 2998.6 613.483 2978.93 631.434Z" stroke="#333333" stroke-width="2.86476" stroke-linecap="round" stroke-linejoin="round" stroke-miterlimit="10" fill="none" fill-rule="evenodd"/></g></svg>