<svg width="384" height="397" xmlns="http://www.w3.org/2000/svg" xmlns:xlink="http://www.w3.org/1999/xlink" xml:space="preserve" overflow="hidden"><g transform="translate(-1567 -647)"><path d="M1568 845C1568 736.2 1650.16 648 1751.5 648 1852.84 648 1935 736.2 1935 845 1935 953.8 1852.84 1042 1751.5 1042 1650.16 1042 1568 953.8 1568 845Z" fill="#9DC3D9" fill-rule="evenodd"/><path d="M1568.5 845.5C1568.5 736.7 1650.66 648.5 1752 648.5 1853.34 648.5 1935.5 736.7 1935.5 845.5 1935.5 954.3 1853.34 1042.5 1752 1042.5 1650.66 1042.5 1568.5 954.3 1568.5 845.5Z" stroke="#333333" stroke-width="2.86476" stroke-linecap="round" stroke-linejoin="round" stroke-miterlimit="10" fill="none" fill-rule="evenodd"/><path d="M1648 844.5C1648 783.472 1694.56 734 1752 734 1809.44 734 1856 783.472 1856 844.5 1856 905.527 1809.44 955 1752 955 1694.56 955 1648 905.527 1648 844.5Z" fill="#FFFF00" fill-rule="evenodd"/><path d="M1598.21 859.632C1598.21 755.368 1676.68 671.958 1774.78 671.958 1783.18 671.958 1791.59 674.937 1800 674.937 1783.18 668.979 1766.37 666 1749.55 666 1659.87 666 1587 746.431 1587 841.758 1587 883.463 1598.21 919.211 1620.63 949 1606.62 922.19 1598.21 892.4 1598.21 859.632Z" fill="#FFFFFF" fill-rule="evenodd"/><path d="M1830.69 690C1864.49 719.818 1884.2 767.527 1884.2 818.218 1884.2 913.636 1810.98 994.145 1720.86 994.145 1692.69 994.145 1664.53 985.2 1642 973.273 1670.16 1000.11 1709.59 1018 1751.84 1018 1841.96 1018 1918 940.473 1918 842.073 1918 776.473 1881.39 719.818 1830.69 690Z" fill="#4E99BE" fill-rule="evenodd"/><path d="M1674.14 847.692C1674.14 791.423 1724.29 752.923 1774.43 752.923 1780 752.923 1771.64 749.961 1777.21 752.923 1768.86 749.961 1760.5 747 1749.36 747 1702 747 1663 788.461 1663 838.808 1663 862.5 1671.36 886.192 1682.5 901 1674.14 889.154 1674.14 865.461 1674.14 847.692Z" fill="#FFFFFF" fill-rule="evenodd"/><path d="M1799.77 765C1816.73 782.796 1828.04 806.525 1828.04 833.22 1828.04 883.644 1788.46 925.17 1740.4 925.17 1726.27 925.17 1712.13 922.203 1698 916.271 1714.96 931.102 1734.75 940 1757.37 940 1805.42 940 1845 898.475 1845 848.051 1845 812.458 1825.21 782.796 1799.77 765Z" fill="#FFD100" fill-rule="evenodd"/><path d="M1618 774C1631.82 797.111 1651.18 800 1665 776.889" fill="#4E99BE" fill-rule="evenodd"/><path d="M1648 844.5C1648 783.472 1694.56 734 1752 734 1809.44 734 1856 783.472 1856 844.5 1856 905.527 1809.44 955 1752 955 1694.56 955 1648 905.527 1648 844.5Z" stroke="#333333" stroke-width="1.71893" stroke-linecap="round" stroke-linejoin="round" stroke-miterlimit="10" fill="none" fill-rule="evenodd"/><path d="M1850.19 746.857C1861.24 755.714 1864 770.476 1855.71 782.286 1850.19 797.048 1833.62 800 1822.57 791.143 1811.52 785.238 1806 767.524 1814.29 755.714 1822.57 743.905 1836.38 738 1850.19 746.857Z" fill="#FFFFFF" fill-rule="evenodd"/><path d="M1808.55 728.182C1814.18 731.273 1817 740.545 1811.36 746.727 1808.55 756 1800.09 756 1794.45 752.909 1786 746.727 1786 737.454 1788.82 731.273 1791.64 725.091 1802.91 722 1808.55 728.182Z" fill="#FFFFFF" fill-rule="evenodd"/><path d="M1856.29 815C1859.14 818 1862 824 1859.14 830 1856.29 833 1850.57 836 1847.71 833 1842 830 1842 824 1844.86 821 1844.86 815 1850.57 815 1856.29 815Z" fill="#FFFFFF" fill-rule="evenodd"/><path d="M1690 1003C1706.67 994 1712.22 964 1715 949 1695.56 955 1678.89 976 1665 994" fill="#4E99BE" fill-rule="evenodd"/><path d="M1847 827C1872.8 833 1872.8 857 1875.67 881 1890 872 1887.13 848 1887.13 833" fill="#4E99BE" fill-rule="evenodd"/><path d="M1598.2 701.477C1575.8 740.182 1578.6 796.75 1629 829.5 1648.6 841.409 1648.6 841.409 1648.6 841.409 1673.8 856.295 1685 865.227 1682.2 895 1682.2 927.75 1631.8 963.477 1592.6 966.455 1581.4 969.432 1573 978.364 1573 990.273 1575.8 1002.18 1584.2 1011.11 1595.4 1011.11 1648.6 1008.14 1724.2 960.5 1724.2 895 1727 838.432 1696.2 820.568 1668.2 802.704 1651.4 790.795 1651.4 790.795 1651.4 790.795 1620.6 772.932 1623.4 743.159 1634.6 722.318 1645.8 698.5 1673.8 683.613 1707.4 704.454 1724.2 713.386 1735.4 734.227 1749.4 752.091 1757.8 766.977 1766.2 781.864 1777.4 793.773 1799.8 814.614 1825 820.568 1850.2 826.523 1867 832.477 1883.8 835.454 1895 844.386 1900.6 850.341 1909 883.091 1906.2 915.841 1906.2 942.636 1900.6 957.523 1895 960.5 1881 972.409 1864.2 963.477 1836.2 951.568 1816.6 939.659 1799.8 930.727 1780.2 930.727 1769 930.727 1760.6 939.659 1760.6 951.568 1760.6 966.455 1769 975.386 1780.2 975.386 1788.6 975.386 1805.4 981.341 1816.6 990.273 1847.4 1005.16 1883.8 1026 1920.2 996.227 1942.6 978.364 1948.2 945.614 1948.2 918.818 1951 880.114 1942.6 832.477 1920.2 811.636 1903.4 793.773 1878.2 787.818 1858.6 784.841 1839 778.886 1819.4 775.909 1805.4 761.023 1797 752.091 1791.4 740.182 1783 728.273 1769 707.432 1752.2 680.636 1727 665.75 1673.8 633 1620.6 659.795 1598.2 701.477Z" fill="#F5BCC5" fill-rule="evenodd"/><path d="M1726 674.82C1689.8 656.94 1656.39 648 1620.2 683.76 1586.78 719.52 1584 758.26 1603.49 797 1595.14 767.2 1595.14 722.5 1625.76 686.74 1659.18 653.96 1706.51 662.9 1726 674.82Z" fill="#EAF1F7" fill-rule="evenodd"/><path d="M1881 826.961C1903.22 835.904 1911.56 841.865 1914.33 883.596 1919.89 925.327 1911.56 976 1886.56 976 1914.33 970.038 1931 949.173 1919.89 871.673 1911.56 821 1881 826.961 1881 826.961Z" fill="#EAF1F7" fill-rule="evenodd"/><path d="M1615 971C1640.33 962 1682.56 947 1691 890 1691 917 1676.93 962 1615 971Z" fill="#EAF1F7" fill-rule="evenodd"/><path d="M1640 794C1668.12 814.821 1730 838.615 1715.94 910 1715.94 883.231 1707.5 856.461 1690.62 838.615 1670.94 823.744 1645.62 805.897 1640 794Z" fill="#EC6D88" fill-rule="evenodd"/><path d="M1789 967C1808.65 973 1850.77 1009 1887.27 1003 1923.77 997 1926.58 982 1935 967 1923.77 982 1904.12 997 1878.85 997 1856.38 997 1803.04 967 1789 967Z" fill="#EC6D88" fill-rule="evenodd"/><path d="M1598.7 701.977C1576.3 740.682 1579.1 797.25 1629.5 830 1649.1 841.909 1649.1 841.909 1649.1 841.909 1674.3 856.795 1685.5 865.727 1682.7 895.5 1682.7 928.25 1632.3 963.977 1593.1 966.955 1581.9 969.932 1573.5 978.864 1573.5 990.773 1576.3 1002.68 1584.7 1011.61 1595.9 1011.61 1649.1 1008.64 1724.7 961 1724.7 895.5 1727.5 838.932 1696.7 821.068 1668.7 803.205 1651.9 791.295 1651.9 791.295 1651.9 791.295 1621.1 773.432 1623.9 743.659 1635.1 722.818 1646.3 699 1674.3 684.114 1707.9 704.955 1724.7 713.886 1735.9 734.727 1749.9 752.591 1758.3 767.477 1766.7 782.364 1777.9 794.273 1800.3 815.114 1825.5 821.068 1850.7 827.023 1867.5 832.977 1884.3 835.955 1895.5 844.886 1901.1 850.841 1909.5 883.591 1906.7 916.341 1906.7 943.136 1901.1 958.023 1895.5 961 1881.5 972.909 1864.7 963.977 1836.7 952.068 1817.1 940.159 1800.3 931.227 1780.7 931.227 1769.5 931.227 1761.1 940.159 1761.1 952.068 1761.1 966.955 1769.5 975.886 1780.7 975.886 1789.1 975.886 1805.9 981.841 1817.1 990.773 1847.9 1005.66 1884.3 1026.5 1920.7 996.727 1943.1 978.864 1948.7 946.114 1948.7 919.318 1951.5 880.614 1943.1 832.977 1920.7 812.136 1903.9 794.273 1878.7 788.318 1859.1 785.341 1839.5 779.386 1819.9 776.409 1805.9 761.523 1797.5 752.591 1791.9 740.682 1783.5 728.773 1769.5 707.932 1752.7 681.136 1727.5 666.25 1674.3 633.5 1621.1 660.296 1598.7 701.977Z" stroke="#333333" stroke-width="2.86476" stroke-linecap="round" stroke-linejoin="round" stroke-miterlimit="10" fill="none" fill-rule="evenodd"/></g></svg>