<svg width="495" height="406" xmlns="http://www.w3.org/2000/svg" xmlns:xlink="http://www.w3.org/1999/xlink" xml:space="preserve" overflow="hidden"><g transform="translate(-2724 -1539)"><path d="M2802 1735.5C2802 1627.53 2884.16 1540 2985.5 1540 3086.84 1540 3169 1627.53 3169 1735.5 3169 1843.47 3086.84 1931 2985.5 1931 2884.16 1931 2802 1843.47 2802 1735.5Z" fill="#9DC3D9" fill-rule="evenodd"/><path d="M2875 1735C2875 1669.83 2924.25 1617 2985 1617 3045.75 1617 3095 1669.83 3095 1735 3095 1800.17 3045.75 1853 2985 1853 2924.25 1853 2875 1800.17 2875 1735Z" fill="#FFFF00" fill-rule="evenodd"/><path d="M2832.96 1758.31C2832.96 1650.69 2911.14 1566.98 3011.66 1566.98 3020.04 1566.98 3028.42 1566.98 3034 1566.98 3020.04 1563.99 3003.29 1561 2986.53 1561 2894.39 1561 2819 1641.72 2819 1740.38 2819 1779.24 2832.96 1818.1 2852.51 1848 2841.34 1821.09 2832.96 1788.21 2832.96 1758.31Z" fill="#FFFFFF" fill-rule="evenodd"/><path d="M3067.26 1581C3100.84 1613.9 3123.22 1661.76 3123.22 1712.61 3123.22 1811.31 3047.68 1892.07 2955.34 1892.07 2927.36 1892.07 2899.38 1883.1 2877 1871.13 2904.98 1898.05 2944.15 1916 2988.92 1916 3078.45 1916 3154 1835.24 3154 1739.53 3154 1670.73 3117.63 1610.91 3067.26 1581Z" fill="#4E99BE" fill-rule="evenodd"/><path d="M2907.95 1739.36C2907.95 1685.7 2958.19 1643.96 3008.42 1643.96 3014 1643.96 3005.63 1640.98 3008.42 1643.96 3002.84 1640.98 2991.67 1638 2983.3 1638 2935.86 1638 2894 1679.74 2894 1733.4 2894 1754.26 2902.37 1781.09 2913.53 1796 2907.95 1781.09 2907.95 1757.25 2907.95 1739.36Z" fill="#FFFFFF" fill-rule="evenodd"/><path d="M3033.38 1656C3050.12 1673.9 3061.27 1697.76 3061.27 1727.59 3061.27 1778.3 3022.23 1820.07 2974.83 1820.07 2958.1 1820.07 2944.15 1817.08 2933 1808.14 2946.94 1823.05 2969.25 1832 2991.56 1832 3038.96 1832 3078 1790.24 3078 1739.53 3078 1703.73 3061.27 1673.9 3033.38 1656Z" fill="#FFD100" fill-rule="evenodd"/><path d="M3098 1734C3115.14 1740 3112.29 1761 3129.43 1767 3138 1758 3138 1740 3135.14 1728" fill="#4E99BE" fill-rule="evenodd"/><path d="M2875.5 1735.5C2875.5 1670.33 2924.75 1617.5 2985.5 1617.5 3046.25 1617.5 3095.5 1670.33 3095.5 1735.5 3095.5 1800.67 3046.25 1853.5 2985.5 1853.5 2924.75 1853.5 2875.5 1800.67 2875.5 1735.5Z" stroke="#333333" stroke-width="1.14583" stroke-linecap="round" stroke-linejoin="round" stroke-miterlimit="10" fill="none" fill-rule="evenodd"/><path d="M2882 1672.5C2882 1661.73 2890.95 1653 2902 1653 2913.05 1653 2922 1661.73 2922 1672.5 2922 1683.27 2913.05 1692 2902 1692 2890.95 1692 2882 1683.27 2882 1672.5Z" fill="#FFFFFF" fill-rule="evenodd"/><path d="M2899.56 1624C2905.11 1612 2916.22 1606 2927.33 1612 2938.44 1618 2944 1633 2938.44 1645 2932.89 1654 2919 1660 2907.89 1654 2896.78 1648 2894 1636 2899.56 1624Z" fill="#FFFFFF" fill-rule="evenodd"/><path d="M2871.8 1701C2877.4 1695 2883 1692 2888.6 1695 2894.2 1698 2897 1707 2894.2 1713 2891.4 1719 2885.8 1722 2877.4 1719 2871.8 1716 2869 1707 2871.8 1701Z" fill="#FFFFFF" fill-rule="evenodd"/><path d="M2944.83 1623C2947.67 1620 2950.5 1617 2956.17 1620 2959 1620 2959 1626 2959 1629 2956.17 1635 2950.5 1635 2947.67 1635 2944.83 1632 2942 1626 2944.83 1623Z" fill="#FFFFFF" fill-rule="evenodd"/><path d="M2802.5 1736C2802.5 1628.03 2884.66 1540.5 2986 1540.5 3087.34 1540.5 3169.5 1628.03 3169.5 1736 3169.5 1843.97 3087.34 1931.5 2986 1931.5 2884.66 1931.5 2802.5 1843.97 2802.5 1736Z" stroke="#333333" stroke-width="2.86476" stroke-linecap="round" stroke-linejoin="round" stroke-miterlimit="10" fill="none" fill-rule="evenodd"/><path d="M2961.19 1557.97C2949.98 1566.92 2949.98 1566.92 2949.98 1566.92 2910.75 1590.8 2905.15 1593.79 2860.31 1575.88 2821.08 1557.97 2790.25 1569.91 2773.44 1581.85 2745.42 1599.76 2728.6 1632.59 2725.8 1674.38 2723 1740.05 2765.03 1749 2804.27 1757.95 2829.49 1766.91 2829.49 1766.91 2829.49 1766.91 2874.32 1778.85 2877.12 1781.83 2874.32 1826.61 2871.52 1862.42 2871.52 1901.23 2896.74 1925.11 2916.36 1940.03 2941.58 1946 2975.2 1940.03 3039.66 1928.09 3059.27 1883.32 3070.48 1844.52 3087.29 1808.7 3087.29 1808.7 3087.29 1808.7 3101.3 1784.82 3120.92 1784.82 3168.56 1793.77 3188.17 1799.74 3188.17 1799.74 3188.17 1799.74 3202.19 1799.74 3216.2 1790.79 3216.2 1775.86 3219 1760.94 3210.59 1749 3196.58 1746.02 3176.97 1740.05 3176.97 1740.05 3176.97 1740.05 3129.33 1731.09 3076.08 1722.14 3042.46 1778.85 3025.64 1823.62 3025.64 1823.62 3025.64 1823.62 3011.63 1859.44 3003.23 1880.33 2966.8 1886.3 2941.58 1892.27 2933.17 1886.3 2930.37 1883.32 2921.96 1877.35 2924.76 1841.53 2924.76 1829.59 2930.37 1757.95 2910.75 1731.09 2843.5 1713.18 2815.47 1707.21 2815.47 1707.21 2815.47 1707.21 2776.24 1698.26 2776.24 1698.26 2776.24 1677.36 2779.04 1656.47 2787.45 1635.58 2801.46 1626.62 2812.67 1620.65 2826.68 1620.65 2840.69 1626.62 2907.95 1653.48 2930.37 1641.55 2978.01 1611.7 2989.21 1605.73 2989.21 1605.73 2989.21 1605.73 3000.42 1596.77 3003.23 1581.85 2997.62 1566.92 2989.21 1554.98 2975.2 1552 2961.19 1557.97Z" fill="#F5BCC5" fill-rule="evenodd"/><path d="M2919 1597C2896.65 1603 2871.51 1594 2854.75 1585 2835.19 1576 2779.32 1561 2743 1642 2765.35 1612 2787.7 1588 2818.43 1588 2846.37 1591 2902.24 1606 2919 1597Z" fill="#EAF1F7" fill-rule="evenodd"/><path d="M2841 1722C2877.11 1731 2916 1746 2916 1812 2907.67 1788 2896.56 1743 2841 1722Z" fill="#EAF1F7" fill-rule="evenodd"/><path d="M3143 1742.98C3112.25 1740 3070.32 1745.95 3053.55 1781.65 3036.77 1814.38 3020 1859 3020 1859 3036.77 1829.25 3053.55 1790.58 3073.11 1769.75 3092.68 1748.93 3115.05 1745.95 3143 1742.98Z" fill="#EAF1F7" fill-rule="evenodd"/><path d="M2886 1868.96C2888.79 1904.5 2908.3 1943 2969.61 1931.15 3030.92 1919.31 3047.64 1880.81 3056 1866 3039.28 1883.77 3011.41 1916.35 2955.67 1922.27 2899.93 1925.23 2897.15 1892.65 2886 1868.96Z" fill="#EC6D88" fill-rule="evenodd"/><path d="M2860 1623.17C2902.24 1635 2910.69 1635 2938.86 1623.17 2969.84 1608.39 2986.73 1593.61 2992.37 1587.7 2998 1581.78 2989.55 1569.96 2978.29 1567 2986.73 1572.91 2995.18 1581.78 2969.84 1593.61 2944.49 1608.39 2924.78 1626.13 2905.06 1626.13 2888.16 1626.13 2860 1623.17 2860 1623.17Z" fill="#EC6D88" fill-rule="evenodd"/><path d="M2961.69 1558.47C2950.48 1567.42 2950.48 1567.42 2950.48 1567.42 2911.25 1591.3 2905.65 1594.29 2860.81 1576.38 2821.58 1558.47 2790.75 1570.41 2773.94 1582.35 2745.92 1600.26 2729.1 1633.09 2726.3 1674.88 2723.5 1740.55 2765.53 1749.5 2804.77 1758.45 2829.99 1767.41 2829.99 1767.41 2829.99 1767.41 2874.82 1779.35 2877.62 1782.33 2874.82 1827.11 2872.02 1862.92 2872.02 1901.73 2897.24 1925.61 2916.86 1940.53 2942.08 1946.5 2975.7 1940.53 3040.16 1928.59 3059.77 1883.82 3070.98 1845.02 3087.79 1809.2 3087.79 1809.2 3087.79 1809.2 3101.81 1785.32 3121.42 1785.32 3169.06 1794.27 3188.68 1800.24 3188.68 1800.24 3188.68 1800.24 3202.69 1800.24 3216.7 1791.29 3216.7 1776.36 3219.5 1761.44 3211.09 1749.5 3197.08 1746.52 3177.47 1740.55 3177.47 1740.55 3177.47 1740.55 3129.83 1731.59 3076.58 1722.64 3042.96 1779.35 3026.14 1824.12 3026.14 1824.12 3026.14 1824.12 3012.13 1859.94 3003.73 1880.83 2967.3 1886.8 2942.08 1892.77 2933.67 1886.8 2930.87 1883.82 2922.46 1877.85 2925.26 1842.03 2925.26 1830.09 2930.87 1758.45 2911.25 1731.59 2844 1713.68 2815.97 1707.71 2815.97 1707.71 2815.97 1707.71 2776.74 1698.76 2776.74 1698.76 2776.74 1677.86 2779.55 1656.97 2787.95 1636.08 2801.96 1627.12 2813.17 1621.15 2827.18 1621.15 2841.19 1627.12 2908.45 1653.98 2930.87 1642.05 2978.51 1612.2 2989.71 1606.23 2989.71 1606.23 2989.71 1606.23 3000.92 1597.27 3003.73 1582.35 2998.12 1567.42 2989.71 1555.48 2975.7 1552.5 2961.69 1558.47Z" stroke="#333333" stroke-width="2.86476" stroke-linecap="round" stroke-linejoin="round" stroke-miterlimit="10" fill="none" fill-rule="evenodd"/></g></svg>