<svg width="400" height="426" xmlns="http://www.w3.org/2000/svg" xmlns:xlink="http://www.w3.org/1999/xlink" xml:space="preserve" overflow="hidden"><g transform="translate(-3244 -1104)"><path d="M3301 1305C3301 1204.48 3377.34 1123 3471.5 1123 3565.66 1123 3642 1204.48 3642 1305 3642 1405.52 3565.66 1487 3471.5 1487 3377.34 1487 3301 1405.52 3301 1305Z" fill="#9DC3D9" fill-rule="evenodd"/><path d="M3301.5 1305.5C3301.5 1204.98 3377.84 1123.5 3472 1123.5 3566.16 1123.5 3642.5 1204.98 3642.5 1305.5 3642.5 1406.02 3566.16 1487.5 3472 1487.5 3377.84 1487.5 3301.5 1406.02 3301.5 1305.5Z" stroke="#333333" stroke-width="2.86476" stroke-linecap="round" stroke-linejoin="round" stroke-miterlimit="10" fill="none" fill-rule="evenodd"/><path d="M3353 1322C3353 1265.11 3396.43 1219 3450 1219 3503.57 1219 3547 1265.11 3547 1322 3547 1378.89 3503.57 1425 3450 1425 3396.43 1425 3353 1378.89 3353 1322Z" fill="#FFFF00" fill-rule="evenodd"/><path d="M3331.2 1320.31C3331.2 1224.68 3404 1146.98 3493.6 1146.98 3499.2 1146.98 3507.6 1146.98 3516 1149.97 3499.2 1143.99 3485.2 1141 3471.2 1141 3387.2 1141 3320 1212.72 3320 1302.38 3320 1338.24 3331.2 1374.1 3350.8 1401 3336.8 1377.09 3331.2 1347.21 3331.2 1320.31Z" fill="#FFFFFF" fill-rule="evenodd"/><path d="M3543.6 1163C3574.4 1192.8 3594 1234.52 3594 1282.21 3594 1368.63 3526.8 1440.16 3442.8 1440.16 3417.6 1440.16 3392.4 1434.2 3370 1422.28 3398 1449.1 3431.6 1464 3470.8 1464 3554.8 1464 3622 1392.48 3622 1303.07 3622 1243.47 3591.2 1189.82 3543.6 1163Z" fill="#4E99BE" fill-rule="evenodd"/><path d="M3381.28 1329.35C3381.28 1278.71 3426.41 1239.98 3474.36 1239.98 3480 1239.98 3471.54 1239.98 3474.36 1239.98 3468.72 1237 3460.26 1237 3451.8 1237 3406.67 1237 3370 1275.73 3370 1320.42 3370 1341.27 3378.46 1365.1 3386.92 1380 3381.28 1365.1 3381.28 1344.25 3381.28 1329.35Z" fill="#FFFFFF" fill-rule="evenodd"/><path d="M3496.12 1252C3510.08 1269.89 3521.25 1290.76 3521.25 1314.61 3521.25 1362.31 3484.96 1401.07 3443.08 1401.07 3429.13 1401.07 3415.17 1398.09 3404 1392.13 3417.96 1404.06 3437.5 1413 3457.04 1413 3501.71 1413 3538 1374.24 3538 1326.54 3538 1296.72 3521.25 1266.91 3496.12 1252Z" fill="#FFD100" fill-rule="evenodd"/><path d="M3353 1322C3353 1265.11 3396.43 1219 3450 1219 3503.57 1219 3547 1265.11 3547 1322 3547 1378.89 3503.57 1425 3450 1425 3396.43 1425 3353 1378.89 3353 1322Z" stroke="#333333" stroke-width="1.71893" stroke-linecap="round" stroke-linejoin="round" stroke-miterlimit="10" fill="none" fill-rule="evenodd"/><path d="M3493 1255C3493 1241.75 3503.07 1231 3515.5 1231 3527.93 1231 3538 1241.75 3538 1255 3538 1268.25 3527.93 1279 3515.5 1279 3503.07 1279 3493 1268.25 3493 1255Z" fill="#FFFFFF" fill-rule="evenodd"/><path d="M3527 1290C3527 1280.06 3533.94 1272 3542.5 1272 3551.06 1272 3558 1280.06 3558 1290 3558 1299.94 3551.06 1308 3542.5 1308 3533.94 1308 3527 1299.94 3527 1290Z" fill="#FFFFFF" fill-rule="evenodd"/><path d="M3396 1233.5C3396 1227.15 3400.25 1222 3405.5 1222 3410.75 1222 3415 1227.15 3415 1233.5 3415 1239.85 3410.75 1245 3405.5 1245 3400.25 1245 3396 1239.85 3396 1233.5Z" fill="#FFFFFF" fill-rule="evenodd"/><path d="M3502 1177C3560.92 1144 3555.31 1282 3569.33 1297 3603 1333 3588.97 1222 3580.56 1204 3569.33 1177 3544.08 1138 3510.42 1159" fill="#4E99BE" fill-rule="evenodd"/><path d="M3585.5 1371C3611 1395 3588.33 1440 3560 1449" fill="#4E99BE" fill-rule="evenodd"/><path d="M3482.01 1126.88C3468.07 1138.82 3462.49 1156.74 3456.91 1171.67 3454.12 1189.58 3451.34 1195.56 3440.18 1201.53 3431.82 1201.53 3423.45 1201.53 3412.3 1198.54 3395.57 1195.56 3370.47 1189.58 3348.17 1204.51 3314.71 1228.4 3309.13 1273.19 3303.55 1312.01 3297.98 1365.76 3292.4 1380.69 3267.31 1383.68 3256.15 1383.68 3245 1395.62 3245 1410.56 3247.79 1422.5 3258.94 1434.44 3270.09 1434.44 3339.8 1428.47 3348.17 1362.78 3350.96 1317.99 3353.74 1288.12 3359.32 1258.26 3373.26 1249.31 3378.84 1243.33 3387.2 1246.32 3403.93 1249.31 3417.88 1252.29 3434.61 1255.28 3454.12 1249.31 3490.37 1234.38 3498.74 1204.51 3504.31 1186.6 3507.1 1174.65 3509.89 1165.69 3512.68 1162.71 3521.04 1153.75 3523.83 1156.74 3529.41 1156.74 3551.72 1168.68 3579.6 1228.4 3579.6 1252.29 3579.6 1267.22 3571.23 1282.15 3560.08 1300.07 3551.72 1317.99 3543.35 1335.9 3537.77 1356.81 3529.41 1401.6 3532.2 1467.29 3540.56 1506.11 3543.35 1521.04 3557.29 1530 3568.45 1527.01 3582.39 1524.03 3590.75 1509.1 3587.96 1497.15 3579.6 1461.32 3576.81 1404.58 3585.18 1368.75 3587.96 1353.82 3593.54 1341.88 3601.91 1326.94 3613.06 1306.04 3627 1282.15 3627 1252.29 3627 1210.49 3590.75 1129.86 3546.14 1111.94 3523.83 1100 3498.74 1105.97 3482.01 1126.88Z" fill="#F5BCC5" fill-rule="evenodd"/><path d="M3418 1206.96C3384.46 1201 3364.9 1201 3342.54 1221.85 3317.38 1245.67 3314.59 1308.22 3309 1338 3320.18 1290.35 3334.15 1245.67 3348.13 1230.78 3364.9 1215.89 3404.03 1206.96 3418 1206.96Z" fill="#EAF1F7" fill-rule="evenodd"/><path d="M3583 1285C3560.71 1323.81 3546.79 1329.78 3546.79 1389.49 3544 1452.19 3546.79 1491 3546.79 1491 3549.57 1464.13 3546.79 1332.77 3583 1285Z" fill="#EAF1F7" fill-rule="evenodd"/><path d="M3596.5 1177C3613.14 1212.83 3627 1248.65 3613.14 1284.48 3599.27 1323.29 3577.09 1332.25 3574.32 1383 3566 1341.2 3602.05 1311.35 3607.59 1266.57 3615.91 1221.78 3607.59 1197.9 3596.5 1177Z" fill="#EC6D88" fill-rule="evenodd"/><path d="M3452 1237C3474.35 1231.06 3482.74 1222.15 3493.91 1186.5 3505.09 1150.85 3519.06 1136 3547 1159.76 3530.24 1138.97 3505.09 1141.94 3499.5 1156.79 3491.12 1171.65 3474.35 1234.03 3452 1237Z" fill="#EC6D88" fill-rule="evenodd"/><path d="M3346 1315C3343.19 1347.7 3334.74 1425 3270 1425 3295.33 1416.08 3326.3 1395.27 3346 1315Z" fill="#EC6D88" fill-rule="evenodd"/><path d="M3482.51 1127.37C3468.57 1139.32 3462.99 1157.24 3457.41 1172.17 3454.62 1190.08 3451.84 1196.06 3440.68 1202.03 3432.32 1202.03 3423.95 1202.03 3412.8 1199.04 3396.07 1196.06 3370.97 1190.08 3348.67 1205.01 3315.21 1228.9 3309.63 1273.69 3304.05 1312.51 3298.48 1366.26 3292.9 1381.19 3267.81 1384.18 3256.65 1384.18 3245.5 1396.12 3245.5 1411.06 3248.29 1423 3259.44 1434.94 3270.59 1434.94 3340.3 1428.97 3348.67 1363.28 3351.46 1318.49 3354.24 1288.62 3359.82 1258.76 3373.76 1249.81 3379.34 1243.83 3387.7 1246.82 3404.43 1249.81 3418.38 1252.79 3435.11 1255.78 3454.62 1249.81 3490.87 1234.87 3499.24 1205.01 3504.81 1187.1 3507.6 1175.15 3510.39 1166.19 3513.18 1163.21 3521.54 1154.25 3524.33 1157.24 3529.91 1157.24 3552.22 1169.18 3580.1 1228.9 3580.1 1252.79 3580.1 1267.72 3571.73 1282.65 3560.58 1300.57 3552.22 1318.49 3543.85 1336.4 3538.27 1357.31 3529.91 1402.1 3532.7 1467.79 3541.06 1506.61 3543.85 1521.54 3557.79 1530.5 3568.95 1527.51 3582.89 1524.53 3591.25 1509.6 3588.46 1497.65 3580.1 1461.82 3577.31 1405.08 3585.68 1369.25 3588.46 1354.32 3594.04 1342.37 3602.41 1327.44 3613.56 1306.54 3627.5 1282.65 3627.5 1252.79 3627.5 1210.99 3591.25 1130.36 3546.64 1112.44 3524.33 1100.5 3499.24 1106.47 3482.51 1127.37Z" stroke="#333333" stroke-width="2.86476" stroke-linecap="round" stroke-linejoin="round" stroke-miterlimit="10" fill="none" fill-rule="evenodd"/></g></svg>