<svg width="681" height="581" xmlns="http://www.w3.org/2000/svg" xmlns:xlink="http://www.w3.org/1999/xlink" xml:space="preserve" overflow="hidden"><g transform="translate(-2010 -974)"><path d="M2091 1264C2091 1104.39 2213.45 975 2364.5 975 2515.55 975 2638 1104.39 2638 1264 2638 1423.61 2515.55 1553 2364.5 1553 2213.45 1553 2091 1423.61 2091 1264Z" fill="#9DC3D9" fill-rule="evenodd"/><path d="M2091.5 1264.5C2091.5 1104.89 2213.95 975.5 2365 975.5 2516.05 975.5 2638.5 1104.89 2638.5 1264.5 2638.5 1424.11 2516.05 1553.5 2365 1553.5 2213.95 1553.5 2091.5 1424.11 2091.5 1264.5Z" stroke="#333333" stroke-width="2.86476" stroke-linecap="round" stroke-linejoin="round" stroke-miterlimit="10" fill="none" fill-rule="evenodd"/><path d="M2212 1264C2212 1173.43 2280.95 1100 2366 1100 2451.05 1100 2520 1173.43 2520 1264 2520 1354.57 2451.05 1428 2366 1428 2280.95 1428 2212 1354.57 2212 1264Z" fill="#FFFF00" fill-rule="evenodd"/><path d="M2138.64 1284.58C2138.64 1132.04 2255.52 1007.24 2398.37 1007.24 2411.36 1007.24 2424.34 1007.24 2433 1007.24 2411.36 1002.62 2389.71 998 2363.74 998 2229.55 998 2117 1113.56 2117 1256.84 2117 1316.93 2138.64 1372.4 2168.95 1414 2151.63 1377.02 2138.64 1330.8 2138.64 1284.58Z" fill="#FFFFFF" fill-rule="evenodd"/><path d="M2481.79 1031C2533.87 1077.29 2564.26 1146.71 2564.26 1220.77 2564.26 1364.26 2455.74 1479.97 2321.19 1479.97 2277.79 1479.97 2238.72 1470.71 2204 1452.2 2247.4 1493.86 2303.83 1517 2364.6 1517 2499.15 1517 2612 1401.29 2612 1257.8 2612 1160.6 2559.92 1072.66 2481.79 1031Z" fill="#4E99BE" fill-rule="evenodd"/><path d="M2250.4 1261.84C2250.4 1183.3 2324.35 1123.24 2398.3 1123.24 2407 1123.24 2393.95 1118.62 2398.3 1118.62 2389.6 1118.62 2376.55 1114 2363.5 1114 2289.55 1114 2233 1178.68 2233 1252.6 2233 1284.94 2241.7 1321.9 2259.1 1345 2250.4 1326.52 2250.4 1289.56 2250.4 1261.84Z" fill="#FFFFFF" fill-rule="evenodd"/><path d="M2432.56 1142C2458.6 1165.04 2475.96 1201.89 2475.96 1243.36 2475.96 1317.07 2419.54 1381.57 2345.76 1381.57 2324.06 1381.57 2302.36 1372.36 2285 1363.14 2306.7 1386.18 2337.08 1400 2371.8 1400 2441.24 1400 2502 1335.5 2502 1261.79 2502 1211.11 2471.62 1165.04 2432.56 1142Z" fill="#FFD100" fill-rule="evenodd"/><path d="M2507 1189C2546.15 1193.56 2550.5 1230.06 2572.25 1262 2585.3 1243.75 2594 1216.38 2572.25 1202.69" fill="#4E99BE" fill-rule="evenodd"/><path d="M2138 1420.31C2168.59 1425 2256 1392.19 2238.52 1350 2221.04 1350 2207.93 1364.06 2194.81 1373.44" fill="#4E99BE" fill-rule="evenodd"/><path d="M2212 1264C2212 1173.43 2280.95 1100 2366 1100 2451.05 1100 2520 1173.43 2520 1264 2520 1354.57 2451.05 1428 2366 1428 2280.95 1428 2212 1354.57 2212 1264Z" stroke="#333333" stroke-width="1.71893" stroke-linecap="round" stroke-linejoin="round" stroke-miterlimit="10" fill="none" fill-rule="evenodd"/><path d="M2464 1287.5C2464 1263.48 2481.46 1244 2503 1244 2524.54 1244 2542 1263.48 2542 1287.5 2542 1311.52 2524.54 1331 2503 1331 2481.46 1331 2464 1311.52 2464 1287.5Z" fill="#FFFFFF" fill-rule="evenodd"/><path d="M2468 1357C2468 1348.16 2473.82 1341 2481 1341 2488.18 1341 2494 1348.16 2494 1357 2494 1365.84 2488.18 1373 2481 1373 2473.82 1373 2468 1365.84 2468 1357Z" fill="#FFFFFF" fill-rule="evenodd"/><path d="M2204 1251C2204 1239.4 2213.63 1230 2225.5 1230 2237.37 1230 2247 1239.4 2247 1251 2247 1262.6 2237.37 1272 2225.5 1272 2213.63 1272 2204 1262.6 2204 1251Z" fill="#FFFFFF" fill-rule="evenodd"/><path d="M2259 1136.5C2259 1129.04 2264.82 1123 2272 1123 2279.18 1123 2285 1129.04 2285 1136.5 2285 1143.96 2279.18 1150 2272 1150 2264.82 1150 2259 1143.96 2259 1136.5Z" fill="#FFFFFF" fill-rule="evenodd"/><path d="M2334 1539.44C2412.12 1558 2490.24 1506.96 2551 1465.2 2551 1455.92 2551 1446.64 2551 1442" fill="#4E99BE" fill-rule="evenodd"/><path d="M2286.4 1035.71C2216.8 1072.66 2216.8 1132.7 2216.8 1178.89 2216.8 1197.36 2216.8 1215.84 2212.45 1234.31 2195.05 1303.59 2138.5 1345.16 2042.8 1359.02 2021.05 1359.02 2008 1382.11 2012.35 1405.2 2012.35 1423.68 2034.1 1442.15 2051.5 1437.53 2212.45 1414.44 2269 1326.69 2286.4 1257.41 2295.1 1225.08 2295.1 1201.98 2295.1 1178.89 2295.1 1137.32 2295.1 1123.47 2321.2 1109.61 2334.25 1100.37 2338.6 1104.99 2369.05 1128.08 2399.5 1151.18 2438.65 1178.89 2499.55 1178.89 2543.05 1178.89 2590.9 1215.84 2608.3 1262.03 2621.35 1298.97 2612.65 1331.31 2577.85 1363.64 2521.3 1414.44 2456.05 1428.3 2403.85 1437.53 2356 1442.15 2316.85 1451.39 2295.1 1483.72 2282.05 1502.19 2286.4 1525.29 2303.8 1539.14 2321.2 1553 2342.95 1548.38 2356 1529.91 2356 1529.91 2356 1529.91 2356 1529.91 2364.7 1525.29 2390.8 1520.67 2412.55 1516.05 2473.45 1506.81 2556.1 1492.96 2630.05 1423.68 2682.25 1372.87 2704 1303.59 2677.9 1234.31 2651.8 1155.8 2573.5 1100.37 2499.55 1100.37 2464.75 1100.37 2438.65 1081.9 2416.9 1063.42 2386.45 1040.33 2342.95 1008 2286.4 1035.71Z" fill="#F5BCC5" fill-rule="evenodd"/><path d="M2294 1053C2259.33 1062.27 2237.67 1080.8 2233.33 1154.93 2229 1229.07 2233.33 1284.67 2164 1331 2203 1312.47 2233.33 1275.4 2246.33 1173.47 2255 1066.9 2272.33 1062.27 2294 1053Z" fill="#EAF1F7" fill-rule="evenodd"/><path d="M2616.26 1244C2633.69 1295.05 2638.05 1364.67 2516 1425 2572.67 1411.08 2686 1341.46 2616.26 1244Z" fill="#EAF1F7" fill-rule="evenodd"/><path d="M2337 1525C2376.2 1492.8 2515.59 1502 2594 1433 2580.93 1446.8 2476.39 1479 2437.19 1483.6 2397.98 1488.2 2345.71 1502 2337 1525Z" fill="#EC6D88" fill-rule="evenodd"/><path d="M2299 1104.09C2333.61 1081.04 2342.27 1081.04 2381.2 1113.3 2420.14 1145.57 2437.45 1159.39 2511 1164 2480.71 1159.39 2407.16 1131.74 2394.18 1104.09 2376.88 1081.04 2316.31 1058 2299 1104.09Z" fill="#EC6D88" fill-rule="evenodd"/><path d="M2047 1425C2116.44 1415.73 2233.62 1364.77 2264 1286 2242.3 1313.8 2146.82 1397.2 2047 1425Z" fill="#EC6D88" fill-rule="evenodd"/><path d="M2286.9 1036.21C2217.3 1073.16 2217.3 1133.2 2217.3 1179.39 2217.3 1197.86 2217.3 1216.34 2212.95 1234.81 2195.55 1304.09 2139 1345.66 2043.3 1359.52 2021.55 1359.52 2008.5 1382.61 2012.85 1405.7 2012.85 1424.18 2034.6 1442.65 2052 1438.03 2212.95 1414.94 2269.5 1327.19 2286.9 1257.91 2295.6 1225.58 2295.6 1202.48 2295.6 1179.39 2295.6 1137.82 2295.6 1123.97 2321.7 1110.11 2334.75 1100.87 2339.1 1105.49 2369.55 1128.58 2400 1151.68 2439.15 1179.39 2500.05 1179.39 2543.55 1179.39 2591.4 1216.34 2608.8 1262.53 2621.85 1299.47 2613.15 1331.81 2578.35 1364.14 2521.8 1414.94 2456.55 1428.8 2404.35 1438.03 2356.5 1442.65 2317.35 1451.89 2295.6 1484.22 2282.55 1502.69 2286.9 1525.79 2304.3 1539.64 2321.7 1553.5 2343.45 1548.88 2356.5 1530.41 2356.5 1530.41 2356.5 1530.41 2356.5 1530.41 2365.2 1525.79 2391.3 1521.17 2413.05 1516.55 2473.95 1507.31 2556.6 1493.46 2630.55 1424.18 2682.75 1373.37 2704.5 1304.09 2678.4 1234.81 2652.3 1156.3 2574 1100.87 2500.05 1100.87 2465.25 1100.87 2439.15 1082.4 2417.4 1063.92 2386.95 1040.83 2343.45 1008.5 2286.9 1036.21Z" stroke="#333333" stroke-width="2.86476" stroke-linecap="round" stroke-linejoin="round" stroke-miterlimit="10" fill="none" fill-rule="evenodd"/></g></svg>