<svg width="812" height="760" xmlns="http://www.w3.org/2000/svg" xmlns:xlink="http://www.w3.org/1999/xlink" xml:space="preserve" overflow="hidden"><defs><clipPath id="clip0"><rect x="2548" y="890" width="812" height="760"/></clipPath></defs><g clip-path="url(#clip0)" transform="translate(-2548 -890)"><path d="M3007.57 893.883C2794.75 871 2683.21 1002.69 2661.27 1027.91 2612.74 1081.62 2579.6 1148.86 2570.73 1223.11 2560 1309.51 2584.27 1388.9 2631.87 1452.88 2634.21 1456.15 2636.54 1459.41 2639.34 1462.68 2649.14 1473.42 2660.34 1468.29 2665.48 1465.49 2671.54 1462.22 2678.54 1460.35 2686.01 1460.35 2710.28 1460.35 2729.88 1479.96 2729.88 1503.78 2729.88 1510.32 2728.48 1515.92 2726.15 1521.52 2719.15 1537.4 2726.15 1542.54 2731.28 1546.28 2736.41 1549.54 2741.08 1552.35 2746.22 1555.15 2797.55 1585.97 2856.36 1606.05 2918.43 1613.99 3031.37 1628 3141.05 1590.64 3224.59 1519.19 3256.32 1489.3 3334.73 1429.06 3354.8 1289.9 3380 1086.29 3211.05 919.101 3007.57 893.883" fill="#C7CDE6" fill-rule="evenodd"/><path d="M2644.21 1443.57C2604.54 1389.33 2584 1327.59 2584 1262.59 2584 1249.96 2584.47 1237.33 2586.33 1224.71 2594.73 1156.43 2624.6 1091.89 2673.14 1038.11 2673.14 1037.64 2674.07 1036.7 2674.07 1036.7 2758.08 940.364 2875.23 895 3005.44 909.03 3112.78 922.593 3210.32 976.374 3272.86 1056.81 3317.66 1114.34 3341 1180.28 3341 1249.02 3341 1262.12 3340.07 1274.75 3338.67 1287.84 3320.93 1409.9 3256.53 1468.36 3221.99 1499.23 3221.99 1499.23 3214.52 1506.24 3213.59 1507.18 3130.98 1577.8 3024.11 1611 2920.03 1598.37 2861.22 1590.89 2803.82 1571.25 2753.88 1541.79 2749.21 1538.98 2738.48 1531.96 2743.61 1518.4 2745.01 1513.73 2728.21 1519.8 2728.68 1514.66 2732.88 1472.1 2702.54 1455.73 2673.14 1461.81 2667.54 1462.75 2674.07 1444.98 2668.47 1446.85 2663.34 1448.72 2653.54 1453.86 2644.21 1443.57" fill="#8F98C7" fill-rule="evenodd"/><path d="M3008.07 894.383C2795.25 871.5 2683.71 1003.19 2661.77 1028.41 2613.24 1082.11 2580.1 1149.36 2571.23 1223.61 2560.5 1310.01 2584.77 1389.4 2632.37 1453.38 2634.71 1456.65 2637.04 1459.91 2639.84 1463.18 2649.64 1473.92 2660.84 1468.79 2665.98 1465.99 2672.04 1462.72 2679.04 1460.85 2686.51 1460.85 2710.78 1460.85 2730.38 1480.46 2730.38 1504.28 2730.38 1510.82 2728.98 1516.42 2726.65 1522.02 2719.65 1537.9 2726.65 1543.04 2731.78 1546.78 2736.91 1550.04 2741.58 1552.85 2746.72 1555.65 2798.05 1586.47 2856.86 1606.55 2918.93 1614.49 3031.87 1628.5 3141.55 1591.14 3225.09 1519.69 3256.82 1489.8 3335.23 1429.56 3355.3 1290.4 3380.5 1086.78 3211.55 919.6 3008.07 894.383Z" stroke="#433B41" stroke-width="2.86476" stroke-linecap="round" stroke-linejoin="round" stroke-miterlimit="10" fill="none" fill-rule="evenodd"/><path d="M2668.47 1446.85C2663.34 1448.72 2653.54 1453.86 2644.21 1443.57 2604.54 1389.33 2584 1327.59 2584 1262.59 2584 1249.96 2584.47 1237.33 2586.33 1224.71 2594.73 1156.43 2624.6 1091.89 2673.14 1038.11 2673.14 1037.64 2674.07 1036.7 2674.07 1036.7 2758.08 940.364 2875.23 895 3005.44 909.03 3112.78 922.593 3210.32 976.374 3272.86 1056.81 3317.66 1114.34 3341 1180.28 3341 1249.02 3341 1262.12 3340.07 1274.75 3338.67 1287.84 3320.93 1409.9 3256.53 1468.36 3221.99 1499.23 3221.99 1499.23 3214.52 1506.24 3213.59 1507.18 3130.98 1577.8 3024.11 1611 2920.03 1598.37 2861.22 1590.89 2803.82 1571.25 2753.88 1541.79 2749.21 1538.98 2738.48 1531.96 2743.61 1518.4" stroke="#433B41" stroke-width="2.29167" stroke-linecap="round" stroke-linejoin="round" stroke-miterlimit="10" fill="none" fill-rule="evenodd"/><path d="M2725.66 1521.45C2718.63 1537.3 2725.66 1542.42 2730.81 1546.15 2735.97 1549.41 2740.65 1552.2 2745.81 1555 2753.78 1541.49 2753.78 1541.49 2753.78 1541.49 2751.43 1540.09 2747.68 1537.76 2744.87 1533.57 2735.5 1516.8 2754.71 1519.59 2754.71 1519.59 2801.57 1519.59 2840 1481.39 2840 1434.8 2840 1387.74 2801.57 1350 2754.71 1350 2707.38 1350 2669.43 1387.74 2669.43 1434.8 2671.77 1451.57 2655.37 1449.7 2655.37 1449.7 2651.62 1449.24 2647.4 1447.84 2643.65 1443.65 2631 1452.97 2631 1452.97 2631 1452.97 2633.34 1456.23 2635.69 1459.49 2638.5 1462.75 2648.34 1473.47 2659.59 1468.34 2664.74 1465.55 2686.76 1454.36 2683.95 1434.8 2683.95 1434.8 2683.95 1396.12 2715.35 1364.44 2754.71 1364.44 2793.61 1364.44 2825.47 1396.12 2825.47 1434.8 2825.47 1473.47 2793.61 1505.15 2754.71 1505.15 2754.71 1505.15 2733.63 1504.22 2725.66 1521.45Z" fill="#C7CDE6" fill-rule="evenodd"/><path d="M2753.93 1542C2751.59 1540.6 2747.85 1538.26 2745.04 1534.06 2735.69 1517.24 2754.86 1520.04 2754.86 1520.04 2801.64 1520.04 2840 1481.74 2840 1435.02 2840 1387.84 2801.64 1350 2754.86 1350 2707.62 1350 2669.73 1387.84 2669.73 1435.02 2672.07 1451.84 2655.69 1449.97 2655.69 1449.97 2651.95 1449.5 2647.74 1448.1 2644 1443.9" stroke="#433B41" stroke-width="2.29167" stroke-linecap="round" stroke-linejoin="round" stroke-miterlimit="10" fill="none" fill-rule="evenodd"/><path d="M2631.5 1453.23C2633.84 1456.5 2636.17 1459.77 2638.98 1463.04 2648.8 1473.78 2660.02 1468.64 2665.16 1465.84 2687.13 1454.63 2684.32 1435.02 2684.32 1435.02 2684.32 1396.26 2715.64 1364.5 2754.91 1364.5 2793.71 1364.5 2825.5 1396.26 2825.5 1435.02 2825.5 1473.78 2793.71 1505.53 2754.91 1505.53 2754.91 1505.53 2733.88 1504.6 2725.93 1521.88 2718.92 1537.75 2725.93 1542.89 2731.07 1546.63 2736.21 1549.9 2740.89 1552.7 2746.03 1555.5" stroke="#433B41" stroke-width="2.86476" stroke-linecap="round" stroke-linejoin="round" stroke-miterlimit="10" fill="none" fill-rule="evenodd"/><path d="M2952 1325.5C2952 1272.2 2995.2 1229 3048.5 1229 3101.8 1229 3145 1272.2 3145 1325.5 3145 1378.8 3101.8 1422 3048.5 1422 2995.2 1422 2952 1378.8 2952 1325.5Z" fill="#C7CDE6" fill-rule="evenodd"/><path d="M2964 1325.5C2964 1279.38 3001.61 1242 3048 1242 3094.39 1242 3132 1279.38 3132 1325.5 3132 1371.62 3094.39 1409 3048 1409 3001.61 1409 2964 1371.62 2964 1325.5Z" fill="#8F98C7" fill-rule="evenodd"/><path d="M2952.5 1326C2952.5 1272.7 2995.7 1229.5 3049 1229.5 3102.3 1229.5 3145.5 1272.7 3145.5 1326 3145.5 1379.3 3102.3 1422.5 3049 1422.5 2995.7 1422.5 2952.5 1379.3 2952.5 1326Z" stroke="#433B41" stroke-width="3.4375" stroke-linecap="round" stroke-linejoin="round" stroke-miterlimit="10" fill="none" fill-rule="evenodd"/><path d="M2964 1325.5C2964 1279.38 3001.61 1242 3048 1242 3094.39 1242 3132 1279.38 3132 1325.5 3132 1371.62 3094.39 1409 3048 1409 3001.61 1409 2964 1371.62 2964 1325.5Z" stroke="#433B41" stroke-width="2.29167" stroke-linecap="round" stroke-linejoin="round" stroke-miterlimit="10" fill="none" fill-rule="evenodd"/><path d="M3051 1273.5C3051 1264.39 3058.39 1257 3067.5 1257 3076.61 1257 3084 1264.39 3084 1273.5 3084 1282.61 3076.61 1290 3067.5 1290 3058.39 1290 3051 1282.61 3051 1273.5Z" fill="#EE7F1B" fill-rule="evenodd"/><path d="M3051.5 1274C3051.5 1264.89 3058.89 1257.5 3068 1257.5 3077.11 1257.5 3084.5 1264.89 3084.5 1274 3084.5 1283.11 3077.11 1290.5 3068 1290.5 3058.89 1290.5 3051.5 1283.11 3051.5 1274Z" stroke="#433B41" stroke-width="0.573097" stroke-linecap="round" stroke-linejoin="round" stroke-miterlimit="10" fill="none" fill-rule="evenodd"/><path d="M3028 1297C3028 1287.61 3035.61 1280 3045 1280 3054.39 1280 3062 1287.61 3062 1297 3062 1306.39 3054.39 1314 3045 1314 3035.61 1314 3028 1306.39 3028 1297Z" fill="#EE7F1B" fill-rule="evenodd"/><path d="M3028.5 1297.5C3028.5 1288.11 3036.11 1280.5 3045.5 1280.5 3054.89 1280.5 3062.5 1288.11 3062.5 1297.5 3062.5 1306.89 3054.89 1314.5 3045.5 1314.5 3036.11 1314.5 3028.5 1306.89 3028.5 1297.5Z" stroke="#433B41" stroke-width="0.573097" stroke-linecap="round" stroke-linejoin="round" stroke-miterlimit="10" fill="none" fill-rule="evenodd"/><path d="M3032 1357.5C3032 1348.39 3039.61 1341 3049 1341 3058.39 1341 3066 1348.39 3066 1357.5 3066 1366.61 3058.39 1374 3049 1374 3039.61 1374 3032 1366.61 3032 1357.5Z" fill="#EE7F1B" fill-rule="evenodd"/><path d="M3032.5 1358C3032.5 1348.89 3040.11 1341.5 3049.5 1341.5 3058.89 1341.5 3066.5 1348.89 3066.5 1358 3066.5 1367.11 3058.89 1374.5 3049.5 1374.5 3040.11 1374.5 3032.5 1367.11 3032.5 1358Z" stroke="#433B41" stroke-width="0.573097" stroke-linecap="round" stroke-linejoin="round" stroke-miterlimit="10" fill="none" fill-rule="evenodd"/><path d="M2985 1336C2985 1326.61 2992.39 1319 3001.5 1319 3010.61 1319 3018 1326.61 3018 1336 3018 1345.39 3010.61 1353 3001.5 1353 2992.39 1353 2985 1345.39 2985 1336Z" fill="#EE7F1B" fill-rule="evenodd"/><path d="M2985.5 1336.5C2985.5 1327.11 2992.89 1319.5 3002 1319.5 3011.11 1319.5 3018.5 1327.11 3018.5 1336.5 3018.5 1345.89 3011.11 1353.5 3002 1353.5 2992.89 1353.5 2985.5 1345.89 2985.5 1336.5Z" stroke="#433B41" stroke-width="0.573097" stroke-linecap="round" stroke-linejoin="round" stroke-miterlimit="10" fill="none" fill-rule="evenodd"/><path d="M3078 1333.5C3078 1324.39 3085.61 1317 3095 1317 3104.39 1317 3112 1324.39 3112 1333.5 3112 1342.61 3104.39 1350 3095 1350 3085.61 1350 3078 1342.61 3078 1333.5Z" fill="#EE7F1B" fill-rule="evenodd"/><path d="M3078.5 1334C3078.5 1324.89 3086.11 1317.5 3095.5 1317.5 3104.89 1317.5 3112.5 1324.89 3112.5 1334 3112.5 1343.11 3104.89 1350.5 3095.5 1350.5 3086.11 1350.5 3078.5 1343.11 3078.5 1334Z" stroke="#433B41" stroke-width="0.573097" stroke-linecap="round" stroke-linejoin="round" stroke-miterlimit="10" fill="none" fill-rule="evenodd"/><path d="M2746 1422C2746 1412.61 2753.39 1405 2762.5 1405 2771.61 1405 2779 1412.61 2779 1422 2779 1431.39 2771.61 1439 2762.5 1439 2753.39 1439 2746 1431.39 2746 1422Z" fill="#EE7F1B" fill-rule="evenodd"/><path d="M2746.5 1422.5C2746.5 1413.11 2753.89 1405.5 2763 1405.5 2772.11 1405.5 2779.5 1413.11 2779.5 1422.5 2779.5 1431.89 2772.11 1439.5 2763 1439.5 2753.89 1439.5 2746.5 1431.89 2746.5 1422.5Z" stroke="#433B41" stroke-width="0.573097" stroke-linecap="round" stroke-linejoin="round" stroke-miterlimit="10" fill="none" fill-rule="evenodd"/><path d="M2752 1469.5C2752 1460.39 2759.61 1453 2769 1453 2778.39 1453 2786 1460.39 2786 1469.5 2786 1478.61 2778.39 1486 2769 1486 2759.61 1486 2752 1478.61 2752 1469.5Z" fill="#EE7F1B" fill-rule="evenodd"/><path d="M2752.5 1470C2752.5 1460.89 2760.11 1453.5 2769.5 1453.5 2778.89 1453.5 2786.5 1460.89 2786.5 1470 2786.5 1479.11 2778.89 1486.5 2769.5 1486.5 2760.11 1486.5 2752.5 1479.11 2752.5 1470Z" stroke="#433B41" stroke-width="0.573097" stroke-linecap="round" stroke-linejoin="round" stroke-miterlimit="10" fill="none" fill-rule="evenodd"/><path d="M2548 1525.5C2548 1516.39 2555.61 1509 2565 1509 2574.39 1509 2582 1516.39 2582 1525.5 2582 1534.61 2574.39 1542 2565 1542 2555.61 1542 2548 1534.61 2548 1525.5Z" fill="#EE7F1B" fill-rule="evenodd"/><path d="M2548.5 1526C2548.5 1516.89 2556.11 1509.5 2565.5 1509.5 2574.89 1509.5 2582.5 1516.89 2582.5 1526 2582.5 1535.11 2574.89 1542.5 2565.5 1542.5 2556.11 1542.5 2548.5 1535.11 2548.5 1526Z" stroke="#433B41" stroke-width="0.573097" stroke-linecap="round" stroke-linejoin="round" stroke-miterlimit="10" fill="none" fill-rule="evenodd"/><path d="M2648 1632.5C2648 1623.39 2655.39 1616 2664.5 1616 2673.61 1616 2681 1623.39 2681 1632.5 2681 1641.61 2673.61 1649 2664.5 1649 2655.39 1649 2648 1641.61 2648 1632.5Z" fill="#EE7F1B" fill-rule="evenodd"/><path d="M2648.5 1633C2648.5 1623.89 2655.89 1616.5 2665 1616.5 2674.11 1616.5 2681.5 1623.89 2681.5 1633 2681.5 1642.11 2674.11 1649.5 2665 1649.5 2655.89 1649.5 2648.5 1642.11 2648.5 1633Z" stroke="#433B41" stroke-width="0.573097" stroke-linecap="round" stroke-linejoin="round" stroke-miterlimit="10" fill="none" fill-rule="evenodd"/><path d="M2568 1597.5C2568 1588.39 2575.61 1581 2585 1581 2594.39 1581 2602 1588.39 2602 1597.5 2602 1606.61 2594.39 1614 2585 1614 2575.61 1614 2568 1606.61 2568 1597.5Z" fill="#EE7F1B" fill-rule="evenodd"/><path d="M2568.5 1598C2568.5 1588.89 2576.11 1581.5 2585.5 1581.5 2594.89 1581.5 2602.5 1588.89 2602.5 1598 2602.5 1607.11 2594.89 1614.5 2585.5 1614.5 2576.11 1614.5 2568.5 1607.11 2568.5 1598Z" stroke="#433B41" stroke-width="0.573097" stroke-linecap="round" stroke-linejoin="round" stroke-miterlimit="10" fill="none" fill-rule="evenodd"/><path d="M2675 1498.5C2675 1489.39 2682.39 1482 2691.5 1482 2700.61 1482 2708 1489.39 2708 1498.5 2708 1507.61 2700.61 1515 2691.5 1515 2682.39 1515 2675 1507.61 2675 1498.5Z" fill="#EE7F1B" fill-rule="evenodd"/><path d="M2675.5 1499C2675.5 1489.89 2682.89 1482.5 2692 1482.5 2701.11 1482.5 2708.5 1489.89 2708.5 1499 2708.5 1508.11 2701.11 1515.5 2692 1515.5 2682.89 1515.5 2675.5 1508.11 2675.5 1499Z" stroke="#433B41" stroke-width="0.573097" stroke-linecap="round" stroke-linejoin="round" stroke-miterlimit="10" fill="none" fill-rule="evenodd"/><path d="M2704 1476.5C2704 1467.39 2711.39 1460 2720.5 1460 2729.61 1460 2737 1467.39 2737 1476.5 2737 1485.61 2729.61 1493 2720.5 1493 2711.39 1493 2704 1485.61 2704 1476.5Z" fill="#EE7F1B" fill-rule="evenodd"/><path d="M2704.5 1477C2704.5 1467.89 2711.89 1460.5 2721 1460.5 2730.11 1460.5 2737.5 1467.89 2737.5 1477 2737.5 1486.11 2730.11 1493.5 2721 1493.5 2711.89 1493.5 2704.5 1486.11 2704.5 1477Z" stroke="#433B41" stroke-width="0.573097" stroke-linecap="round" stroke-linejoin="round" stroke-miterlimit="10" fill="none" fill-rule="evenodd"/><path d="M2714 1409.5C2714 1400.39 2721.61 1393 2731 1393 2740.39 1393 2748 1400.39 2748 1409.5 2748 1418.61 2740.39 1426 2731 1426 2721.61 1426 2714 1418.61 2714 1409.5Z" fill="#EE7F1B" fill-rule="evenodd"/><path d="M2714.5 1410C2714.5 1400.89 2722.11 1393.5 2731.5 1393.5 2740.89 1393.5 2748.5 1400.89 2748.5 1410 2748.5 1419.11 2740.89 1426.5 2731.5 1426.5 2722.11 1426.5 2714.5 1419.11 2714.5 1410Z" stroke="#433B41" stroke-width="0.573097" stroke-linecap="round" stroke-linejoin="round" stroke-miterlimit="10" fill="none" fill-rule="evenodd"/><path d="M2622 1560.5C2622 1551.39 2629.39 1544 2638.5 1544 2647.61 1544 2655 1551.39 2655 1560.5 2655 1569.61 2647.61 1577 2638.5 1577 2629.39 1577 2622 1569.61 2622 1560.5Z" fill="#EE7F1B" fill-rule="evenodd"/><path d="M2622.5 1561C2622.5 1551.89 2629.89 1544.5 2639 1544.5 2648.11 1544.5 2655.5 1551.89 2655.5 1561 2655.5 1570.11 2648.11 1577.5 2639 1577.5 2629.89 1577.5 2622.5 1570.11 2622.5 1561Z" stroke="#433B41" stroke-width="0.573097" stroke-linecap="round" stroke-linejoin="round" stroke-miterlimit="10" fill="none" fill-rule="evenodd"/><path d="M2633 1506.5C2633 1497.39 2640.39 1490 2649.5 1490 2658.61 1490 2666 1497.39 2666 1506.5 2666 1515.61 2658.61 1523 2649.5 1523 2640.39 1523 2633 1515.61 2633 1506.5Z" fill="#EE7F1B" fill-rule="evenodd"/><path d="M2633.5 1507C2633.5 1497.89 2640.89 1490.5 2650 1490.5 2659.11 1490.5 2666.5 1497.89 2666.5 1507 2666.5 1516.11 2659.11 1523.5 2650 1523.5 2640.89 1523.5 2633.5 1516.11 2633.5 1507Z" stroke="#433B41" stroke-width="0.573097" stroke-linecap="round" stroke-linejoin="round" stroke-miterlimit="10" fill="none" fill-rule="evenodd"/><path d="M2778 1417.5C2778 1408.39 2785.39 1401 2794.5 1401 2803.61 1401 2811 1408.39 2811 1417.5 2811 1426.61 2803.61 1434 2794.5 1434 2785.39 1434 2778 1426.61 2778 1417.5Z" fill="#EE7F1B" fill-rule="evenodd"/><path d="M2778.5 1418C2778.5 1408.89 2785.89 1401.5 2795 1401.5 2804.11 1401.5 2811.5 1408.89 2811.5 1418 2811.5 1427.11 2804.11 1434.5 2795 1434.5 2785.89 1434.5 2778.5 1427.11 2778.5 1418Z" stroke="#433B41" stroke-width="0.573097" stroke-linecap="round" stroke-linejoin="round" stroke-miterlimit="10" fill="none" fill-rule="evenodd"/><path d="M2653 1527.5C2653 1518.39 2660.39 1511 2669.5 1511 2678.61 1511 2686 1518.39 2686 1527.5 2686 1536.61 2678.61 1544 2669.5 1544 2660.39 1544 2653 1536.61 2653 1527.5Z" fill="#EE7F1B" fill-rule="evenodd"/><path d="M2653.5 1528C2653.5 1518.89 2660.89 1511.5 2670 1511.5 2679.11 1511.5 2686.5 1518.89 2686.5 1528 2686.5 1537.11 2679.11 1544.5 2670 1544.5 2660.89 1544.5 2653.5 1537.11 2653.5 1528Z" stroke="#433B41" stroke-width="0.573097" stroke-linecap="round" stroke-linejoin="round" stroke-miterlimit="10" fill="none" fill-rule="evenodd"/><path d="M2790 1101.5C2790 1048.2 2833.2 1005 2886.5 1005 2939.8 1005 2983 1048.2 2983 1101.5 2983 1154.8 2939.8 1198 2886.5 1198 2833.2 1198 2790 1154.8 2790 1101.5Z" fill="#C7CDE6" fill-rule="evenodd"/><path d="M2803 1101.5C2803 1055.38 2840.61 1018 2887 1018 2933.39 1018 2971 1055.38 2971 1101.5 2971 1147.62 2933.39 1185 2887 1185 2840.61 1185 2803 1147.62 2803 1101.5Z" fill="#8F98C7" fill-rule="evenodd"/><path d="M2790.5 1102C2790.5 1048.7 2833.7 1005.5 2887 1005.5 2940.3 1005.5 2983.5 1048.7 2983.5 1102 2983.5 1155.3 2940.3 1198.5 2887 1198.5 2833.7 1198.5 2790.5 1155.3 2790.5 1102Z" stroke="#433B41" stroke-width="3.4375" stroke-linecap="round" stroke-linejoin="round" stroke-miterlimit="10" fill="none" fill-rule="evenodd"/><path d="M2803 1101.5C2803 1055.38 2840.61 1018 2887 1018 2933.39 1018 2971 1055.38 2971 1101.5 2971 1147.62 2933.39 1185 2887 1185 2840.61 1185 2803 1147.62 2803 1101.5Z" stroke="#433B41" stroke-width="2.29167" stroke-linecap="round" stroke-linejoin="round" stroke-miterlimit="10" fill="none" fill-rule="evenodd"/><path d="M2889 1049.5C2889 1040.39 2896.39 1033 2905.5 1033 2914.61 1033 2922 1040.39 2922 1049.5 2922 1058.61 2914.61 1066 2905.5 1066 2896.39 1066 2889 1058.61 2889 1049.5Z" fill="#EE7F1B" fill-rule="evenodd"/><path d="M2889.5 1050C2889.5 1040.89 2896.89 1033.5 2906 1033.5 2915.11 1033.5 2922.5 1040.89 2922.5 1050 2922.5 1059.11 2915.11 1066.5 2906 1066.5 2896.89 1066.5 2889.5 1059.11 2889.5 1050Z" stroke="#433B41" stroke-width="0.573097" stroke-linecap="round" stroke-linejoin="round" stroke-miterlimit="10" fill="none" fill-rule="evenodd"/><path d="M2867 1073C2867 1063.61 2874.39 1056 2883.5 1056 2892.61 1056 2900 1063.61 2900 1073 2900 1082.39 2892.61 1090 2883.5 1090 2874.39 1090 2867 1082.39 2867 1073Z" fill="#EE7F1B" fill-rule="evenodd"/><path d="M2867.5 1073.5C2867.5 1064.11 2874.89 1056.5 2884 1056.5 2893.11 1056.5 2900.5 1064.11 2900.5 1073.5 2900.5 1082.89 2893.11 1090.5 2884 1090.5 2874.89 1090.5 2867.5 1082.89 2867.5 1073.5Z" stroke="#433B41" stroke-width="0.573097" stroke-linecap="round" stroke-linejoin="round" stroke-miterlimit="10" fill="none" fill-rule="evenodd"/><path d="M2871 1133.5C2871 1124.39 2878.39 1117 2887.5 1117 2896.61 1117 2904 1124.39 2904 1133.5 2904 1142.61 2896.61 1150 2887.5 1150 2878.39 1150 2871 1142.61 2871 1133.5Z" fill="#EE7F1B" fill-rule="evenodd"/><path d="M2871.5 1134C2871.5 1124.89 2878.89 1117.5 2888 1117.5 2897.11 1117.5 2904.5 1124.89 2904.5 1134 2904.5 1143.11 2897.11 1150.5 2888 1150.5 2878.89 1150.5 2871.5 1143.11 2871.5 1134Z" stroke="#433B41" stroke-width="0.573097" stroke-linecap="round" stroke-linejoin="round" stroke-miterlimit="10" fill="none" fill-rule="evenodd"/><path d="M2823 1112C2823 1102.61 2830.61 1095 2840 1095 2849.39 1095 2857 1102.61 2857 1112 2857 1121.39 2849.39 1129 2840 1129 2830.61 1129 2823 1121.39 2823 1112Z" fill="#EE7F1B" fill-rule="evenodd"/><path d="M2823.5 1112.5C2823.5 1103.11 2831.11 1095.5 2840.5 1095.5 2849.89 1095.5 2857.5 1103.11 2857.5 1112.5 2857.5 1121.89 2849.89 1129.5 2840.5 1129.5 2831.11 1129.5 2823.5 1121.89 2823.5 1112.5Z" stroke="#433B41" stroke-width="0.573097" stroke-linecap="round" stroke-linejoin="round" stroke-miterlimit="10" fill="none" fill-rule="evenodd"/><path d="M2917 1109.5C2917 1100.39 2924.39 1093 2933.5 1093 2942.61 1093 2950 1100.39 2950 1109.5 2950 1118.61 2942.61 1126 2933.5 1126 2924.39 1126 2917 1118.61 2917 1109.5Z" fill="#EE7F1B" fill-rule="evenodd"/><path d="M2917.5 1110C2917.5 1100.89 2924.89 1093.5 2934 1093.5 2943.11 1093.5 2950.5 1100.89 2950.5 1110 2950.5 1119.11 2943.11 1126.5 2934 1126.5 2924.89 1126.5 2917.5 1119.11 2917.5 1110Z" stroke="#433B41" stroke-width="0.573097" stroke-linecap="round" stroke-linejoin="round" stroke-miterlimit="10" fill="none" fill-rule="evenodd"/><path d="M2999.5 1089.5C2999.5 1089.5 3093.5 1113.82 3081.88 1204.5" stroke="#E85A20" stroke-width="9.16667" stroke-miterlimit="8" fill="none" fill-rule="evenodd"/><path d="M3101 1195.27 3080.58 1227 3063 1193 3101 1195.27Z" fill="#E85A20" fill-rule="evenodd"/><path d="M2996.45 1431.85C2996.45 1431.85 2942.46 1494.81 2877.52 1451.85" stroke="#E85A20" stroke-width="9.16667" stroke-miterlimit="8" fill="none" fill-rule="evenodd"/><path d="M2876.5 1470.6 2859.65 1442.69 2892.72 1442.01 2876.5 1470.6Z" fill="#E85A20" fill-rule="evenodd"/><path d="M2914 1027.5C2914 1018.39 2921.61 1011 2931 1011 2940.39 1011 2948 1018.39 2948 1027.5 2948 1036.61 2940.39 1044 2931 1044 2921.61 1044 2914 1036.61 2914 1027.5Z" fill="#EE7F1B" fill-rule="evenodd"/><path d="M2914.5 1028C2914.5 1018.89 2922.11 1011.5 2931.5 1011.5 2940.89 1011.5 2948.5 1018.89 2948.5 1028 2948.5 1037.11 2940.89 1044.5 2931.5 1044.5 2922.11 1044.5 2914.5 1037.11 2914.5 1028Z" stroke="#433B41" stroke-width="0.573097" stroke-linecap="round" stroke-linejoin="round" stroke-miterlimit="10" fill="none" fill-rule="evenodd"/><path d="M2780 995.5C2780 986.387 2787.39 979 2796.5 979 2805.61 979 2813 986.387 2813 995.5 2813 1004.61 2805.61 1012 2796.5 1012 2787.39 1012 2780 1004.61 2780 995.5Z" fill="#EE7F1B" fill-rule="evenodd"/><path d="M2780.5 996C2780.5 986.887 2787.89 979.5 2797 979.5 2806.11 979.5 2813.5 986.887 2813.5 996 2813.5 1005.11 2806.11 1012.5 2797 1012.5 2787.89 1012.5 2780.5 1005.11 2780.5 996Z" stroke="#433B41" stroke-width="0.573097" stroke-linecap="round" stroke-linejoin="round" stroke-miterlimit="10" fill="none" fill-rule="evenodd"/><path d="M3130 1018C3130 1008.61 3137.39 1001 3146.5 1001 3155.61 1001 3163 1008.61 3163 1018 3163 1027.39 3155.61 1035 3146.5 1035 3137.39 1035 3130 1027.39 3130 1018Z" fill="#EE7F1B" fill-rule="evenodd"/><path d="M3130.5 1018.5C3130.5 1009.11 3137.89 1001.5 3147 1001.5 3156.11 1001.5 3163.5 1009.11 3163.5 1018.5 3163.5 1027.89 3156.11 1035.5 3147 1035.5 3137.89 1035.5 3130.5 1027.89 3130.5 1018.5Z" stroke="#433B41" stroke-width="0.573097" stroke-linecap="round" stroke-linejoin="round" stroke-miterlimit="10" fill="none" fill-rule="evenodd"/><path d="M3038 1015.5C3038 1006.39 3045.39 999 3054.5 999 3063.61 999 3071 1006.39 3071 1015.5 3071 1024.61 3063.61 1032 3054.5 1032 3045.39 1032 3038 1024.61 3038 1015.5Z" fill="#EE7F1B" fill-rule="evenodd"/><path d="M3038.5 1016C3038.5 1006.89 3045.89 999.5 3055 999.5 3064.11 999.5 3071.5 1006.89 3071.5 1016 3071.5 1025.11 3064.11 1032.5 3055 1032.5 3045.89 1032.5 3038.5 1025.11 3038.5 1016Z" stroke="#433B41" stroke-width="0.573097" stroke-linecap="round" stroke-linejoin="round" stroke-miterlimit="10" fill="none" fill-rule="evenodd"/><path d="M2830 974.5C2830 965.387 2837.39 958 2846.5 958 2855.61 958 2863 965.387 2863 974.5 2863 983.613 2855.61 991 2846.5 991 2837.39 991 2830 983.613 2830 974.5Z" fill="#EE7F1B" fill-rule="evenodd"/><path d="M2830.5 975C2830.5 965.887 2837.89 958.5 2847 958.5 2856.11 958.5 2863.5 965.887 2863.5 975 2863.5 984.113 2856.11 991.5 2847 991.5 2837.89 991.5 2830.5 984.113 2830.5 975Z" stroke="#433B41" stroke-width="0.573097" stroke-linecap="round" stroke-linejoin="round" stroke-miterlimit="10" fill="none" fill-rule="evenodd"/><path d="M2975 959C2975 949.611 2982.39 942 2991.5 942 3000.61 942 3008 949.611 3008 959 3008 968.389 3000.61 976 2991.5 976 2982.39 976 2975 968.389 2975 959Z" fill="#EE7F1B" fill-rule="evenodd"/><path d="M2975.5 959.5C2975.5 950.111 2982.89 942.5 2992 942.5 3001.11 942.5 3008.5 950.111 3008.5 959.5 3008.5 968.889 3001.11 976.5 2992 976.5 2982.89 976.5 2975.5 968.889 2975.5 959.5Z" stroke="#433B41" stroke-width="0.573097" stroke-linecap="round" stroke-linejoin="round" stroke-miterlimit="10" fill="none" fill-rule="evenodd"/><path d="M2882 982C2882 972.611 2889.61 965 2899 965 2908.39 965 2916 972.611 2916 982 2916 991.389 2908.39 999 2899 999 2889.61 999 2882 991.389 2882 982Z" fill="#EE7F1B" fill-rule="evenodd"/><path d="M2882.5 982.5C2882.5 973.111 2890.11 965.5 2899.5 965.5 2908.89 965.5 2916.5 973.111 2916.5 982.5 2916.5 991.889 2908.89 999.5 2899.5 999.5 2890.11 999.5 2882.5 991.889 2882.5 982.5Z" stroke="#433B41" stroke-width="0.573097" stroke-linecap="round" stroke-linejoin="round" stroke-miterlimit="10" fill="none" fill-rule="evenodd"/><path d="M2963 1004.5C2963 995.387 2970.39 988 2979.5 988 2988.61 988 2996 995.387 2996 1004.5 2996 1013.61 2988.61 1021 2979.5 1021 2970.39 1021 2963 1013.61 2963 1004.5Z" fill="#EE7F1B" fill-rule="evenodd"/><path d="M2963.5 1005C2963.5 995.887 2970.89 988.5 2980 988.5 2989.11 988.5 2996.5 995.887 2996.5 1005 2996.5 1014.11 2989.11 1021.5 2980 1021.5 2970.89 1021.5 2963.5 1014.11 2963.5 1005Z" stroke="#433B41" stroke-width="0.573097" stroke-linecap="round" stroke-linejoin="round" stroke-miterlimit="10" fill="none" fill-rule="evenodd"/></g></svg>