<svg width="620" height="662" xmlns="http://www.w3.org/2000/svg" xmlns:xlink="http://www.w3.org/1999/xlink" xml:space="preserve" overflow="hidden"><g transform="translate(-1567 -604)"><path d="M2185 1265C1582 1265 1582 1265 1582 1265 1582 909.358 1852.4 621 2185 621 2185 1265 2185 1265 2185 1265" fill="#F1D13A" fill-rule="evenodd"/><path d="M1640 1265C2185 1265 2185 1265 2185 1265 2185 683 2185 683 2185 683 1885.02 683 1640 944.228 1640 1265Z" fill="#FDFBD4" fill-rule="evenodd"/><path d="M2175.08 631.611C2169.68 631.611 2166.07 626.805 2165.17 622 1846.09 632.572 1589.21 909.38 1582 1250.58 1587.41 1251.54 1591.91 1255.39 1591.91 1261.16 1591.01 1263.08 1591.01 1263.08 1591.01 1263.08 1591.01 1263.08 1591.01 1263.08 1591.01 1265 1601.83 1265 1601.83 1265 1601.83 1265 1602.73 1261.16 1602.73 1261.16 1602.73 1261.16 1602.73 1254.43 1599.13 1248.66 1594.62 1244.82 1600.03 1240.97 1603.63 1234.24 1603.63 1226.55 1603.63 1219.83 1600.93 1214.06 1596.42 1209.25 1602.73 1206.37 1607.24 1198.68 1607.24 1190.99 1607.24 1184.26 1604.53 1178.5 1600.93 1174.65 1607.24 1170.81 1611.74 1164.08 1611.74 1155.43 1611.74 1148.7 1609.04 1143.9 1605.43 1140.05 1612.65 1136.21 1618.05 1128.52 1618.05 1119.87 1618.05 1115.06 1616.25 1109.3 1612.65 1105.45 1620.76 1102.57 1626.17 1094.88 1626.17 1085.27 1626.17 1080.46 1624.36 1075.66 1621.66 1071.81 1629.77 1068.93 1636.08 1061.24 1636.08 1051.63 1636.08 1046.82 1634.28 1042.98 1632.48 1039.13 1641.49 1037.21 1648.7 1028.56 1648.7 1017.99 1648.7 1014.14 1646.9 1010.3 1645.09 1007.42 1655.01 1004.53 1661.32 995.882 1661.32 986.271 1661.32 982.426 1660.42 978.581 1659.52 975.698 1669.43 974.737 1677.54 966.087 1677.54 954.553 1677.54 951.67 1676.64 947.825 1675.74 944.942 1685.65 943.98 1693.77 935.33 1693.77 923.797 1693.77 920.913 1692.87 918.03 1691.96 915.146 1702.78 915.146 1711.79 905.535 1711.79 893.04 1711.79 891.118 1711.79 889.196 1710.89 887.273 1710.89 887.273 1711.79 887.273 1711.79 887.273 1722.61 887.273 1731.62 877.662 1731.62 865.167 1731.62 863.245 1731.62 861.323 1730.72 859.4 1731.62 859.4 1732.52 859.4 1732.52 859.4 1744.24 859.4 1753.26 849.789 1753.26 837.294 1753.26 836.333 1753.26 834.411 1752.35 833.45 1754.16 833.45 1755.06 833.45 1755.96 833.45 1766.78 833.45 1776.69 823.838 1776.69 811.344 1776.69 810.383 1775.79 808.46 1775.79 807.499 1777.59 807.499 1778.49 807.499 1779.39 807.499 1791.11 807.499 1800.13 797.888 1800.13 786.354 1800.13 786.354 1800.13 785.393 1800.13 785.393 1801.93 785.393 1803.73 785.393 1805.53 785.393 1816.35 785.393 1825.36 776.743 1825.36 764.248 1828.07 765.209 1829.87 766.17 1832.57 766.17 1844.29 766.17 1853.3 756.559 1853.3 744.064 1853.3 744.064 1853.3 743.103 1853.3 743.103 1855.11 744.064 1856.91 744.064 1859.61 744.064 1870.43 744.064 1879.44 735.414 1880.35 723.88 1882.15 724.841 1884.85 725.803 1888.46 725.803 1898.37 725.803 1907.39 717.152 1908.29 706.58 1910.99 708.502 1913.69 708.502 1917.3 708.502 1927.22 708.502 1935.33 700.813 1937.13 690.24 1939.83 692.163 1943.44 694.085 1947.95 694.085 1956.96 694.085 1965.07 686.396 1967.78 676.785 1970.48 678.707 1974.09 680.629 1978.59 680.629 1987.61 680.629 1995.72 673.901 1998.42 665.251 2001.13 668.134 2005.63 670.057 2011.04 670.057 2019.15 670.057 2026.36 664.29 2029.97 655.64 2032.67 658.523 2037.18 660.445 2042.59 660.445 2050.7 660.445 2058.81 654.678 2061.52 646.989 2065.12 650.834 2069.63 652.756 2075.04 652.756 2083.15 652.756 2090.36 647.951 2093.06 640.261 2097.57 645.067 2102.08 646.989 2108.39 646.989 2115.6 646.989 2122.81 643.145 2126.41 635.456 2130.02 641.223 2135.43 644.106 2141.74 644.106 2148.95 644.106 2155.26 640.261 2158.86 634.495 2162.47 639.3 2167.87 643.145 2175.08 643.145 2178.69 643.145 2182.3 641.223 2185 639.3 2185 626.805 2185 626.805 2185 626.805 2184.1 626.805 2182.3 626.805 2181.39 627.767 2179.59 629.689 2176.89 631.611 2175.08 631.611ZM2163.37 670.057C2159.76 665.251 2154.35 663.329 2148.04 663.329 2141.74 663.329 2135.43 667.173 2131.82 672.94 2128.22 668.134 2123.71 666.212 2118.3 666.212 2111.09 666.212 2104.78 670.057 2101.17 676.785 2097.57 672.94 2093.06 671.018 2087.65 671.018 2080.44 671.018 2073.23 675.823 2070.53 682.551 2066.92 679.668 2062.42 677.746 2057.91 677.746 2050.7 677.746 2043.49 683.513 2040.78 690.24 2037.18 687.357 2033.57 686.396 2029.07 686.396 2020.96 686.396 2013.74 692.163 2011.04 699.852 2008.34 697.93 2003.83 696.007 2000.22 696.007 1991.21 696.007 1984 702.735 1981.3 710.424 1978.59 709.463 1974.99 708.502 1972.28 708.502 1962.37 708.502 1955.16 715.23 1953.35 723.88 1950.65 722.919 1947.04 721.958 1944.34 721.958 1934.43 721.958 1927.22 729.647 1925.41 739.258 1922.71 738.297 1920 737.336 1918.2 737.336 1908.29 737.336 1900.17 745.025 1898.37 755.598 1896.57 754.637 1893.87 753.675 1892.06 753.675 1881.25 753.675 1872.23 763.287 1872.23 774.82 1871.33 774.82 1869.53 773.859 1867.73 773.859 1857.81 773.859 1848.8 782.51 1847.9 793.082 1846.09 792.121 1844.29 792.121 1842.49 792.121 1831.67 792.121 1822.66 800.771 1822.66 812.305 1821.76 812.305 1820.86 812.305 1819.05 812.305 1808.24 812.305 1800.13 821.916 1800.13 833.45 1800.13 833.45 1800.13 834.411 1800.13 835.372 1799.22 835.372 1798.32 835.372 1797.42 835.372 1786.61 835.372 1778.49 844.983 1778.49 856.517 1778.49 857.478 1778.49 857.478 1778.49 858.439 1777.59 858.439 1777.59 858.439 1776.69 858.439 1765.87 858.439 1756.86 868.051 1756.86 879.584 1756.86 880.545 1756.86 882.468 1757.76 884.39 1746.95 884.39 1737.93 893.04 1737.93 904.574 1737.93 906.496 1737.93 908.418 1737.93 909.38 1728.02 910.341 1719.91 918.991 1719.91 930.525 1719.91 932.447 1719.91 935.33 1720.81 937.253 1710.89 938.214 1702.78 946.864 1702.78 958.398 1702.78 960.32 1703.68 963.203 1703.68 965.125 1694.67 967.048 1688.36 975.698 1688.36 986.271 1688.36 989.154 1688.36 991.076 1689.26 993.96 1680.25 995.882 1673.94 1004.53 1673.94 1014.14 1673.94 1017.99 1674.84 1020.87 1675.74 1023.75 1667.63 1025.68 1662.22 1034.33 1662.22 1043.94 1662.22 1047.78 1663.12 1050.67 1664.02 1053.55 1656.81 1056.43 1650.5 1065.08 1650.5 1073.73 1650.5 1078.54 1652.3 1082.38 1654.11 1085.27 1646.9 1089.11 1642.39 1096.8 1642.39 1105.45 1642.39 1109.3 1643.29 1114.1 1646 1116.98 1638.78 1120.83 1634.28 1127.56 1634.28 1136.21 1634.28 1141.97 1636.08 1146.78 1638.78 1149.66 1632.48 1153.51 1628.87 1160.24 1628.87 1168.89 1628.87 1173.69 1630.67 1178.5 1634.28 1182.34 1627.97 1186.19 1624.36 1192.91 1624.36 1200.6 1624.36 1206.37 1627.07 1212.14 1630.67 1215.98 1625.26 1219.83 1621.66 1225.59 1621.66 1233.28 1621.66 1239.05 1623.46 1244.82 1627.07 1248.66 1622.56 1252.51 1619.86 1258.27 1619.86 1265 1619.86 1265 1619.86 1265 1619.86 1265 1630.67 1265 1630.67 1265 1630.67 1265 1630.67 1265 1630.67 1265 1630.67 1265 1630.67 1259.23 1635.18 1255.39 1639.69 1255.39 1644.19 1255.39 1648.7 1259.23 1648.7 1265 1648.7 1265 1648.7 1265 1648.7 1265 1659.52 1265 1659.52 1265 1659.52 1265 1659.52 1259.23 1656.81 1253.47 1653.21 1249.62 1657.71 1245.78 1660.42 1240.01 1660.42 1233.28 1660.42 1227.52 1658.61 1221.75 1655.01 1217.9 1660.42 1214.06 1664.02 1208.29 1664.02 1200.6 1664.02 1194.84 1661.32 1190.03 1658.61 1186.19 1664.02 1182.34 1667.63 1175.61 1667.63 1168.89 1667.63 1163.12 1665.82 1158.31 1663.12 1154.47 1669.43 1151.59 1673.04 1143.9 1673.04 1136.21 1673.04 1131.4 1672.13 1127.56 1669.43 1124.67 1676.64 1120.83 1681.15 1113.14 1681.15 1105.45 1681.15 1100.65 1680.25 1096.8 1677.54 1092.96 1684.75 1090.07 1690.16 1082.38 1690.16 1073.73 1690.16 1069.89 1689.26 1067.01 1687.46 1063.16 1695.57 1061.24 1700.98 1052.59 1700.98 1043.94 1700.98 1040.09 1700.08 1037.21 1699.17 1034.33 1707.29 1031.44 1712.69 1023.75 1712.69 1014.14 1712.69 1011.26 1712.69 1009.34 1711.79 1006.45 1720.81 1004.53 1727.12 995.882 1727.12 986.271 1727.12 983.387 1727.12 980.504 1726.22 978.581 1735.23 976.659 1742.44 968.009 1742.44 958.398 1742.44 955.514 1741.54 953.592 1741.54 951.67 1751.45 950.708 1758.66 941.097 1758.66 930.525 1758.66 928.602 1758.66 927.641 1758.66 925.719 1768.58 924.758 1776.69 916.108 1776.69 904.574 1776.69 903.613 1776.69 901.69 1776.69 900.729 1787.51 900.729 1796.52 891.118 1796.52 879.584 1796.52 878.623 1796.52 877.662 1796.52 876.701 1796.52 876.701 1797.42 876.701 1797.42 876.701 1808.24 876.701 1817.25 868.051 1817.25 856.517 1817.25 855.556 1817.25 854.595 1817.25 853.634 1818.15 853.634 1819.05 853.634 1819.05 853.634 1829.87 853.634 1838.88 844.983 1838.88 833.45 1839.78 833.45 1841.59 833.45 1842.49 833.45 1852.4 833.45 1860.52 825.761 1862.32 815.188 1864.12 816.149 1865.92 816.149 1867.73 816.149 1878.54 816.149 1887.56 806.538 1887.56 795.004 1888.46 795.965 1890.26 795.965 1892.06 795.965 1901.98 795.965 1910.09 788.276 1911.89 778.665 1913.69 778.665 1915.5 779.626 1918.2 779.626 1927.22 779.626 1935.33 771.937 1937.13 762.326 1938.93 763.287 1941.64 764.248 1944.34 764.248 1953.35 764.248 1961.47 757.52 1963.27 747.909 1965.97 748.87 1968.68 749.831 1972.28 749.831 1980.39 749.831 1988.51 744.064 1990.31 735.414 1993.91 737.336 1996.62 738.297 2000.22 738.297 2008.34 738.297 2015.55 732.531 2018.25 724.841 2021.86 726.764 2025.46 728.686 2029.07 728.686 2037.18 728.686 2043.49 723.88 2047.09 716.191 2049.8 719.075 2054.3 720.036 2057.91 720.036 2066.02 720.036 2072.33 715.23 2075.94 708.502 2079.54 711.385 2083.15 713.308 2087.65 713.308 2094.87 713.308 2101.17 708.502 2104.78 702.735 2108.39 705.619 2112.89 708.502 2118.3 708.502 2124.61 708.502 2130.92 704.658 2134.52 698.891 2138.13 702.735 2142.64 704.658 2148.04 704.658 2154.35 704.658 2160.66 701.774 2164.27 696.968 2167.87 700.813 2172.38 703.696 2178.69 703.696 2180.49 703.696 2183.2 703.696 2185 702.735 2185 690.24 2185 690.24 2185 690.24 2184.1 690.24 2183.2 690.24 2182.3 691.202 2181.39 692.163 2179.59 692.163 2178.69 692.163 2173.28 692.163 2169.68 688.318 2169.68 682.551 2169.68 677.746 2173.28 672.94 2178.69 672.94 2179.59 672.94 2181.39 673.901 2182.3 674.862 2183.2 674.862 2184.1 674.862 2185 674.862 2185 663.329 2185 663.329 2185 663.329 2183.2 662.368 2180.49 661.406 2178.69 661.406 2172.38 661.406 2166.97 665.251 2163.37 670.057Z" fill="#ECA50A" fill-rule="evenodd"/><path d="M2178.69 692.643C2174.19 692.643 2169.69 688.802 2169.69 684 1878.72 692.643 1644.5 944.25 1640 1255.4 1644.5 1255.4 1649.01 1259.24 1649.01 1265 1649.01 1265 1649.01 1265 1649.01 1265 1659.82 1265 1659.82 1265 1659.82 1265 1659.82 1259.24 1657.12 1253.48 1653.51 1249.63 1658.02 1245.79 1660.72 1240.03 1660.72 1233.31 1660.72 1227.55 1658.92 1221.79 1655.31 1217.94 1660.72 1214.1 1664.32 1208.34 1664.32 1200.66 1664.32 1194.9 1661.62 1190.09 1658.92 1186.25 1664.32 1182.41 1667.93 1175.69 1667.93 1168.97 1667.93 1163.2 1666.12 1158.4 1663.42 1154.56 1669.73 1151.68 1673.33 1144 1673.33 1136.32 1673.33 1131.51 1672.43 1127.67 1669.73 1124.79 1676.93 1120.95 1681.44 1113.27 1681.44 1105.59 1681.44 1100.78 1680.54 1096.94 1677.83 1093.1 1685.04 1090.22 1690.45 1082.54 1690.45 1073.89 1690.45 1070.05 1689.55 1067.17 1687.74 1063.33 1695.85 1061.41 1701.26 1052.77 1701.26 1044.12 1701.26 1040.28 1700.36 1037.4 1699.45 1034.52 1707.56 1031.64 1712.97 1023.96 1712.97 1014.35 1712.97 1011.47 1712.97 1009.55 1712.07 1006.67 1721.07 1004.75 1727.38 996.107 1727.38 986.504 1727.38 983.623 1727.38 980.742 1726.48 978.822 1735.49 976.901 1742.69 968.258 1742.69 958.655 1742.69 955.774 1741.79 953.853 1741.79 951.932 1751.7 950.972 1758.91 941.369 1758.91 930.805 1758.91 928.884 1758.91 927.924 1758.91 926.003 1768.82 925.043 1776.93 916.4 1776.93 904.876 1776.93 903.916 1776.93 901.995 1776.93 901.035 1787.74 901.035 1796.74 891.431 1796.74 879.907 1796.74 878.947 1796.74 877.987 1796.74 877.026 1796.74 877.026 1797.64 877.026 1797.64 877.026 1808.45 877.026 1817.46 868.384 1817.46 856.86 1817.46 855.899 1817.46 854.939 1817.46 853.979 1818.36 853.979 1819.26 853.979 1819.26 853.979 1830.07 853.979 1839.08 845.336 1839.08 833.812 1839.98 833.812 1841.79 833.812 1842.69 833.812 1852.59 833.812 1860.7 826.129 1862.5 815.565 1864.31 816.526 1866.11 816.526 1867.91 816.526 1878.72 816.526 1887.73 806.922 1887.73 795.398 1888.63 796.359 1890.43 796.359 1892.23 796.359 1902.14 796.359 1910.25 788.676 1912.05 779.073 1913.85 779.073 1915.65 780.033 1918.36 780.033 1927.36 780.033 1935.47 772.35 1937.27 762.747 1939.07 763.708 1941.78 764.668 1944.48 764.668 1953.49 764.668 1961.59 757.945 1963.4 748.342 1966.1 749.303 1968.8 750.263 1972.4 750.263 1980.51 750.263 1988.62 744.501 1990.42 735.858 1994.02 737.779 1996.73 738.739 2000.33 738.739 2008.44 738.739 2015.64 732.977 2018.35 725.294 2021.95 727.215 2025.55 729.136 2029.16 729.136 2037.26 729.136 2043.57 724.334 2047.17 716.651 2049.88 719.532 2054.38 720.493 2057.98 720.493 2066.09 720.493 2072.4 715.691 2076 708.969 2079.6 711.85 2083.21 713.77 2087.71 713.77 2094.92 713.77 2101.22 708.969 2104.83 703.207 2108.43 706.088 2112.93 708.969 2118.34 708.969 2124.64 708.969 2130.95 705.127 2134.55 699.365 2138.16 703.207 2142.66 705.127 2148.07 705.127 2154.37 705.127 2160.68 702.246 2164.28 697.445 2167.88 701.286 2172.39 704.167 2178.69 704.167 2180.5 704.167 2183.2 704.167 2185 703.207 2185 690.722 2185 690.722 2185 690.722 2184.1 690.722 2183.2 690.722 2182.3 691.683 2181.4 692.643 2179.59 692.643 2178.69 692.643Z" fill="#F9F57D" fill-rule="evenodd"/><path d="M1652.81 1252.48C1656.42 1256.32 1659.13 1259.2 1659.13 1264 1659.13 1264 1659.13 1264 1659.13 1264 1659.13 1258.24 1660.03 1255.36 1656.42 1251.52 1660.94 1246.72 1663.65 1240.96 1663.65 1234.24 1663.65 1229.44 1660.94 1223.68 1658.23 1219.84 1662.74 1216 1666.35 1209.29 1666.35 1201.61 1666.35 1196.81 1664.55 1192.01 1661.84 1188.17 1667.26 1184.33 1670.87 1177.61 1670.87 1169.93 1670.87 1165.13 1669.06 1160.33 1666.35 1156.49 1672.68 1152.65 1676.29 1145.93 1676.29 1138.25 1676.29 1133.45 1674.48 1129.61 1672.68 1126.73 1679.9 1122.89 1683.52 1115.21 1683.52 1106.57 1683.52 1102.73 1682.61 1098.9 1680.81 1096.02 1688.03 1092.18 1692.55 1084.5 1692.55 1075.86 1692.55 1072.02 1691.65 1069.14 1690.74 1066.26 1698.87 1062.42 1703.39 1054.74 1703.39 1045.14 1703.39 1042.26 1703.39 1039.38 1702.48 1037.46 1710.61 1033.62 1716.03 1024.98 1716.03 1016.34 1716.03 1013.46 1715.13 1011.54 1714.23 1009.62 1723.26 1006.74 1730.48 998.105 1730.48 987.546 1730.48 985.626 1729.58 983.706 1729.58 981.786 1738.61 978.906 1744.94 970.267 1744.94 959.708 1744.94 957.788 1744.94 955.868 1744.03 954.909 1753.97 952.989 1762.1 943.39 1762.1 931.871 1762.1 931.871 1762.1 930.911 1761.19 928.991 1772.03 927.071 1780.16 918.432 1780.16 906.913 1780.16 906.913 1780.16 904.993 1780.16 904.033 1791 903.073 1799.13 893.474 1799.13 880.995 1799.13 880.995 1799.13 880.995 1799.13 880.995 1810.87 880.995 1820.81 870.436 1820.81 857.958 1820.81 857.958 1820.81 857.958 1820.81 857.958 1820.81 857.958 1820.81 857.958 1820.81 857.958 1831.65 857.958 1840.68 849.318 1841.58 837.799 1842.48 837.799 1843.39 837.799 1843.39 837.799 1847 837.799 1847 837.799 1847 837.799 1846.1 833.96 1846.1 833.96 1846.1 833.96 1843.39 833.96 1843.39 833.96 1843.39 833.96 1838.87 833 1838.87 833 1838.87 833 1838.87 834.92 1838.87 834.92 1838.87 834.92 1837.97 845.479 1829.84 854.118 1820.81 854.118 1816.29 854.118 1816.29 854.118 1816.29 854.118 1816.29 856.038 1816.29 856.038 1816.29 856.038 1817.19 857.958 1817.19 857.958 1817.19 857.958 1817.19 868.517 1809.06 877.156 1799.13 877.156 1795.52 877.156 1795.52 877.156 1795.52 877.156 1795.52 879.076 1795.52 879.076 1795.52 879.076 1795.52 880.995 1795.52 880.995 1795.52 880.995 1795.52 891.554 1787.39 900.194 1777.45 900.194 1775.65 900.194 1775.65 900.194 1775.65 900.194 1775.65 903.073 1775.65 903.073 1775.65 903.073 1776.55 906.913 1776.55 906.913 1776.55 906.913 1776.55 916.512 1769.32 925.151 1759.39 926.111 1757.58 926.111 1757.58 926.111 1757.58 926.111 1757.58 928.031 1757.58 928.031 1757.58 928.031 1758.48 931.871 1758.48 931.871 1758.48 931.871 1758.48 942.43 1751.26 950.109 1742.23 951.069 1739.52 951.069 1739.52 951.069 1739.52 951.069 1740.42 953.949 1740.42 953.949 1740.42 953.949 1741.32 955.868 1741.32 957.788 1741.32 959.708 1741.32 969.307 1735 976.987 1726.87 978.906 1725.06 978.906 1725.06 978.906 1725.06 978.906 1725.06 980.826 1725.06 980.826 1725.06 980.826 1725.97 983.706 1726.87 985.626 1726.87 987.546 1726.87 997.145 1720.55 1004.82 1712.42 1006.74 1709.71 1006.74 1709.71 1006.74 1709.71 1006.74 1710.61 1008.66 1710.61 1008.66 1710.61 1008.66 1711.52 1011.54 1712.42 1013.46 1712.42 1016.34 1712.42 1024.02 1707 1031.7 1699.77 1034.58 1697.06 1034.58 1697.06 1034.58 1697.06 1034.58 1698.87 1037.46 1698.87 1037.46 1698.87 1037.46 1699.77 1039.38 1699.77 1042.26 1699.77 1045.14 1699.77 1053.78 1695.26 1060.5 1688.03 1063.38 1685.32 1064.34 1685.32 1064.34 1685.32 1064.34 1687.13 1066.26 1687.13 1066.26 1687.13 1066.26 1688.03 1069.14 1688.94 1072.02 1688.94 1075.86 1688.94 1083.54 1684.42 1090.26 1678.1 1093.14 1676.29 1094.1 1676.29 1094.1 1676.29 1094.1 1677.19 1096.02 1677.19 1096.02 1677.19 1096.02 1679 1098.9 1679.9 1102.73 1679.9 1106.57 1679.9 1114.25 1676.29 1120.97 1669.97 1123.85 1667.26 1124.81 1667.26 1124.81 1667.26 1124.81 1669.06 1126.73 1669.06 1126.73 1669.06 1126.73 1670.87 1130.57 1672.68 1134.41 1672.68 1138.25 1672.68 1144.97 1669.06 1150.73 1662.74 1154.57 1660.94 1155.53 1660.94 1155.53 1660.94 1155.53 1662.74 1157.45 1662.74 1157.45 1662.74 1157.45 1665.45 1161.29 1667.26 1165.13 1667.26 1169.93 1667.26 1176.65 1663.65 1182.41 1658.23 1186.25 1656.42 1187.21 1656.42 1187.21 1656.42 1187.21 1658.23 1189.13 1658.23 1189.13 1658.23 1189.13 1660.94 1192.97 1662.74 1196.81 1662.74 1201.61 1662.74 1208.33 1660.03 1214.08 1654.61 1217.92 1652.81 1218.88 1652.81 1218.88 1652.81 1218.88 1654.61 1220.8 1654.61 1220.8 1654.61 1220.8 1658.23 1224.64 1660.03 1229.44 1660.03 1234.24 1660.03 1240.96 1657.32 1245.76 1652.81 1249.6 1651 1250.56 1651 1250.56 1651 1250.56L1652.81 1252.48Z" fill="#FFFFFF" fill-rule="evenodd"/><path d="M1846.9 837C1855.91 835.081 1862.22 827.405 1864.02 818.77 1865.82 818.77 1867.63 818.77 1868.53 818.77 1879.34 818.77 1888.35 810.135 1890.15 798.622 1891.05 798.622 1892.86 799.581 1892.86 799.581 1902.77 799.581 1911.78 791.905 1913.58 781.351 1915.38 782.311 1917.18 782.311 1918.99 782.311 1928.9 782.311 1937.01 775.595 1939.71 766 1941.51 766.959 1943.32 766.959 1945.12 766.959 1955.03 766.959 1962.24 761.203 1965.84 751.608 1967.64 752.568 1970.35 753.527 1973.05 753.527 1982.06 753.527 1989.27 747.77 1992.87 739.135 1995.58 740.095 1998.28 741.054 2000.98 741.054 2009.09 741.054 2016.3 736.257 2019.91 728.581 2023.51 730.5 2027.11 731.46 2030.72 731.46 2037.93 731.46 2045.14 726.662 2048.74 719.946 2052.34 721.865 2055.95 723.784 2059.55 723.784 2066.76 723.784 2073.97 718.987 2077.57 712.27 2081.18 715.149 2084.78 716.108 2089.29 716.108 2095.6 716.108 2101.9 712.27 2106.41 706.514 2110.01 709.392 2114.52 711.311 2119.02 711.311 2125.33 711.311 2131.64 707.473 2136.14 702.676 2139.75 705.554 2144.25 708.432 2149.66 708.432 2149.66 708.432 2149.66 708.432 2149.66 708.432 2155.07 708.432 2161.37 705.554 2164.98 700.757 2168.58 704.595 2173.99 704.595 2179.4 704.595 2181.2 704.595 2181.2 704.595 2183 703.635 2183 703.635 2183 703.635 2183 703.635 2181.2 704.595 2181.2 703.635 2179.4 703.635 2174.89 703.635 2169.48 700.757 2165.88 696.919 2164.98 695 2164.98 695 2164.98 695 2163.18 696.919 2163.18 696.919 2163.18 696.919 2160.47 701.716 2155.07 704.595 2149.66 704.595 2144.25 704.595 2139.75 702.676 2137.05 698.838 2135.24 696.919 2135.24 696.919 2135.24 696.919 2134.34 698.838 2134.34 698.838 2134.34 698.838 2130.74 704.595 2125.33 707.473 2119.02 707.473 2114.52 707.473 2110.01 705.554 2107.31 702.676 2105.51 700.757 2105.51 700.757 2105.51 700.757 2104.61 702.676 2104.61 702.676 2104.61 702.676 2101 709.392 2095.6 712.27 2089.29 712.27 2084.78 712.27 2081.18 711.311 2078.48 708.432 2076.67 706.514 2076.67 706.514 2076.67 706.514 2074.87 709.392 2074.87 709.392 2074.87 709.392 2072.17 715.149 2065.86 719.946 2059.55 719.946 2055.95 719.946 2052.34 718.027 2048.74 716.108 2047.84 715.149 2047.84 715.149 2047.84 715.149 2046.04 717.068 2046.04 717.068 2046.04 717.068 2043.33 723.784 2037.03 727.622 2030.72 727.622 2027.11 727.622 2023.51 726.662 2020.81 724.743 2019.01 722.824 2019.01 722.824 2019.01 722.824 2018.1 725.703 2018.1 725.703 2018.1 725.703 2015.4 732.419 2008.19 737.216 2000.98 737.216 1998.28 737.216 1995.58 736.257 1992.87 735.297 1991.07 734.338 1991.07 734.338 1991.07 734.338 1990.17 736.257 1990.17 736.257 1990.17 736.257 1987.47 743.932 1981.16 749.689 1973.05 749.689 1970.35 749.689 1967.64 748.73 1964.94 747.77 1963.14 746.811 1963.14 746.811 1963.14 746.811 1963.14 748.73 1963.14 748.73 1963.14 748.73 1960.44 757.365 1953.23 763.122 1945.12 763.122 1943.32 763.122 1940.61 763.122 1938.81 762.162 1937.01 761.203 1937.01 761.203 1937.01 761.203 1936.11 763.122 1936.11 763.122 1936.11 763.122 1935.21 772.716 1927.1 778.473 1918.99 778.473 1917.18 778.473 1915.38 778.473 1913.58 777.514 1910.88 776.554 1910.88 776.554 1910.88 776.554 1910.88 779.432 1910.88 779.432 1910.88 779.432 1909.07 788.068 1901.87 795.743 1892.86 795.743 1886.55 794.784 1886.55 794.784 1886.55 794.784 1886.55 796.703 1886.55 796.703 1886.55 796.703 1886.55 807.257 1878.44 814.932 1868.53 814.932 1866.72 814.932 1864.92 814.932 1864.02 813.973 1861.32 813.973 1861.32 813.973 1861.32 813.973 1861.32 815.892 1861.32 815.892 1861.32 815.892 1860.42 824.527 1854.11 831.243 1846 833.162L1846.9 837Z" fill="#FFFFFF" fill-rule="evenodd"/><path d="M2172 631 2173 673" stroke="#FFFFFF" stroke-width="5.72917" stroke-miterlimit="8" fill="none" fill-rule="evenodd"/><path d="M2141.6 675 2156 673.929 2152.4 630 2138 631.072 2141.6 675Z" stroke="#FFFFFF" stroke-width="5.72917" stroke-miterlimit="8" fill="none" fill-rule="evenodd"/><path d="M2110.18 679 2124 677.197 2118.82 635 2105 636.803 2110.18 679Z" stroke="#FFFFFF" stroke-width="5.72917" stroke-miterlimit="8" fill="none" fill-rule="evenodd"/><path d="M2078.4 685 2093 681.4 2084.97 640 2070 643.96 2078.4 685Z" stroke="#FFFFFF" stroke-width="5.72917" stroke-miterlimit="8" fill="none" fill-rule="evenodd"/><path d="M2049.75 693 2063 688.984 2053.33 647 2039 652.111 2049.75 693Z" stroke="#FFFFFF" stroke-width="5.72917" stroke-miterlimit="8" fill="none" fill-rule="evenodd"/><path d="M2019.47 700 2033 696.04 2020.53 655 2007 659.68 2019.47 700Z" stroke="#FFFFFF" stroke-width="5.72917" stroke-miterlimit="8" fill="none" fill-rule="evenodd"/><path d="M1990.03 713 2003 707.159 1988.97 667 1976 672.841 1990.03 713Z" stroke="#FFFFFF" stroke-width="5.72917" stroke-miterlimit="8" fill="none" fill-rule="evenodd"/><path d="M1959.59 724 1973 718.276 1957.78 680 1944 685.724 1959.59 724Z" stroke="#FFFFFF" stroke-width="5.72917" stroke-miterlimit="8" fill="none" fill-rule="evenodd"/><path d="M1931.2 739 1944 732.064 1927.54 693 1914 699.937 1931.2 739Z" stroke="#FFFFFF" stroke-width="5.72917" stroke-miterlimit="8" fill="none" fill-rule="evenodd"/><path d="M1907.9 754 1920 746.426 1899.83 710 1887 717.574 1907.9 754Z" stroke="#FFFFFF" stroke-width="5.72917" stroke-miterlimit="8" fill="none" fill-rule="evenodd"/><path d="M1881.19 771 1893 762.4 1871.53 728 1859 736.6 1881.19 771Z" stroke="#FFFFFF" stroke-width="5.72917" stroke-miterlimit="8" fill="none" fill-rule="evenodd"/><path d="M1855.88 791 1868 781.683 1844.12 748 1832 756.6 1855.88 791Z" stroke="#FFFFFF" stroke-width="5.72917" stroke-miterlimit="8" fill="none" fill-rule="evenodd"/><path d="M1832.12 811 1843 800.59 1816.88 769 1806 779.41 1832.12 811Z" stroke="#FFFFFF" stroke-width="5.72917" stroke-miterlimit="8" fill="none" fill-rule="evenodd"/><path d="M0 0 39.0002 1.00003" stroke="#FFFFFF" stroke-width="5.72917" stroke-miterlimit="8" fill="none" fill-rule="evenodd" transform="matrix(-1 0 0 1 1632 1257)"/><path d="M1632.21 1239 1634 1224.66 1594.71 1220 1594 1235.06 1632.21 1239Z" stroke="#FFFFFF" stroke-width="5.72917" stroke-miterlimit="8" fill="none" fill-rule="evenodd"/><path d="M1636.17 1206 1638 1190.79 1598.92 1185 1596 1199.48 1636.17 1206Z" stroke="#FFFFFF" stroke-width="5.72917" stroke-miterlimit="8" fill="none" fill-rule="evenodd"/><path d="M1638.43 1175 1642 1159.78 1603.5 1150 1601 1165.58 1638.43 1175Z" stroke="#FFFFFF" stroke-width="5.72917" stroke-miterlimit="8" fill="none" fill-rule="evenodd"/><path d="M1643.15 1141 1646 1125.42 1608.57 1116 1605 1130.49 1643.15 1141Z" stroke="#FFFFFF" stroke-width="5.72917" stroke-miterlimit="8" fill="none" fill-rule="evenodd"/><path d="M1653.59 1109 1658 1094.97 1619.41 1082 1615 1096.03 1653.59 1109Z" stroke="#FFFFFF" stroke-width="5.72917" stroke-miterlimit="8" fill="none" fill-rule="evenodd"/><path d="M1661.49 1078 1667 1063.54 1629.51 1048 1624 1062.46 1661.49 1078Z" stroke="#FFFFFF" stroke-width="5.72917" stroke-miterlimit="8" fill="none" fill-rule="evenodd"/><path d="M1671.62 1047 1677 1032.58 1640.38 1016 1635 1029.7 1671.62 1047Z" stroke="#FFFFFF" stroke-width="5.72917" stroke-miterlimit="8" fill="none" fill-rule="evenodd"/><path d="M1683.9 1016 1690 1001.78 1654.1 984 1648 998.222 1683.9 1016Z" stroke="#FFFFFF" stroke-width="5.72917" stroke-miterlimit="8" fill="none" fill-rule="evenodd"/><path d="M1697.87 987 1705 974.958 1671.13 953 1664 966.458 1697.87 987Z" stroke="#FFFFFF" stroke-width="5.72917" stroke-miterlimit="8" fill="none" fill-rule="evenodd"/><path d="M1712.74 959 1720 946.626 1686.26 924 1679 937.434 1712.74 959Z" stroke="#FFFFFF" stroke-width="5.72917" stroke-miterlimit="8" fill="none" fill-rule="evenodd"/><path d="M1808.14 832 1819 821.57 1791.86 791 1781 801.43 1808.14 832Z" stroke="#FFFFFF" stroke-width="5.72917" stroke-miterlimit="8" fill="none" fill-rule="evenodd"/><path d="M1786.23 857 1796 846.044 1768.13 815 1758 825.591 1786.23 857Z" stroke="#FFFFFF" stroke-width="5.72917" stroke-miterlimit="8" fill="none" fill-rule="evenodd"/><path d="M1766.91 879 1776 866.477 1745.09 840 1736 852.165 1766.91 879Z" stroke="#FFFFFF" stroke-width="5.72917" stroke-miterlimit="8" fill="none" fill-rule="evenodd"/><path d="M1745.64 905 1754 892.243 1723.09 866 1714 878.757 1745.64 905Z" stroke="#FFFFFF" stroke-width="5.72917" stroke-miterlimit="8" fill="none" fill-rule="evenodd"/><path d="M1727.65 930 1736 917.577 1704.07 892 1695 904.788 1727.65 930Z" stroke="#FFFFFF" stroke-width="5.72917" stroke-miterlimit="8" fill="none" fill-rule="evenodd"/><path d="M2185.5 652.5C1869.21 652.5 1611.5 927.293 1611.5 1265.5" stroke="#F1D13A" stroke-width="11.4583" stroke-miterlimit="8" fill="none" fill-rule="evenodd"/><path d="M2185.5 669.438C2183.67 668.469 2181.85 667.5 2179.11 667.5 2170.89 667.5 2164.5 675.25 2164.5 683 2164.5 691.719 2170.89 698.5 2179.11 698.5 2181.85 698.5 2183.67 697.531 2185.5 696.562" stroke="#333333" stroke-width="2.86476" stroke-miterlimit="8" fill="#CFE68C" fill-rule="evenodd"/><path d="M2185.5 669.438C2183.67 668.469 2181.85 667.5 2179.11 667.5 2170.89 667.5 2164.5 675.25 2164.5 683 2164.5 691.719 2170.89 698.5 2179.11 698.5 2181.85 698.5 2183.67 697.531 2185.5 696.562" stroke="#333333" stroke-width="2.86476" stroke-miterlimit="8" fill="none" fill-rule="evenodd"/><path d="M2134.5 684.5C2134.5 676.216 2140.77 669.5 2148.5 669.5 2156.23 669.5 2162.5 676.216 2162.5 684.5 2162.5 692.784 2156.23 699.5 2148.5 699.5 2140.77 699.5 2134.5 692.784 2134.5 684.5Z" stroke="#333333" stroke-width="2.86476" stroke-miterlimit="8" fill="#CFE68C" fill-rule="evenodd"/><path d="M2103.5 688C2103.5 679.44 2109.99 672.5 2118 672.5 2126.01 672.5 2132.5 679.44 2132.5 688 2132.5 696.561 2126.01 703.5 2118 703.5 2109.99 703.5 2103.5 696.561 2103.5 688Z" stroke="#333333" stroke-width="2.86476" stroke-miterlimit="8" fill="#CFE68C" fill-rule="evenodd"/><path d="M2074.5 693C2074.5 684.44 2080.77 677.5 2088.5 677.5 2096.23 677.5 2102.5 684.44 2102.5 693 2102.5 701.56 2096.23 708.5 2088.5 708.5 2080.77 708.5 2074.5 701.56 2074.5 693Z" stroke="#333333" stroke-width="2.86476" stroke-miterlimit="8" fill="#CFE68C" fill-rule="evenodd"/><path d="M2044.5 700C2044.5 691.439 2050.77 684.5 2058.5 684.5 2066.23 684.5 2072.5 691.439 2072.5 700 2072.5 708.56 2066.23 715.5 2058.5 715.5 2050.77 715.5 2044.5 708.56 2044.5 700Z" stroke="#333333" stroke-width="2.86476" stroke-miterlimit="8" fill="#CFE68C" fill-rule="evenodd"/><path d="M2014.5 708.5C2014.5 700.216 2020.99 693.5 2029 693.5 2037.01 693.5 2043.5 700.216 2043.5 708.5 2043.5 716.784 2037.01 723.5 2029 723.5 2020.99 723.5 2014.5 716.784 2014.5 708.5Z" stroke="#333333" stroke-width="2.86476" stroke-miterlimit="8" fill="#CFE68C" fill-rule="evenodd"/><path d="M1985.5 718C1985.5 709.44 1991.99 702.5 2000 702.5 2008.01 702.5 2014.5 709.44 2014.5 718 2014.5 726.56 2008.01 733.5 2000 733.5 1991.99 733.5 1985.5 726.56 1985.5 718Z" stroke="#333333" stroke-width="2.86476" stroke-miterlimit="8" fill="#CFE68C" fill-rule="evenodd"/><path d="M1958.5 730C1958.5 721.992 1964.77 715.5 1972.5 715.5 1980.23 715.5 1986.5 721.992 1986.5 730 1986.5 738.008 1980.23 744.5 1972.5 744.5 1964.77 744.5 1958.5 738.008 1958.5 730Z" stroke="#333333" stroke-width="2.86476" stroke-miterlimit="8" fill="#CFE68C" fill-rule="evenodd"/><path d="M1930.5 744C1930.5 735.439 1936.77 728.5 1944.5 728.5 1952.23 728.5 1958.5 735.439 1958.5 744 1958.5 752.56 1952.23 759.5 1944.5 759.5 1936.77 759.5 1930.5 752.56 1930.5 744Z" stroke="#333333" stroke-width="2.86476" stroke-miterlimit="8" fill="#CFE68C" fill-rule="evenodd"/><path d="M1904.5 759C1904.5 750.44 1910.54 743.5 1918 743.5 1925.46 743.5 1931.5 750.44 1931.5 759 1931.5 767.56 1925.46 774.5 1918 774.5 1910.54 774.5 1904.5 767.56 1904.5 759Z" stroke="#333333" stroke-width="2.86476" stroke-miterlimit="8" fill="#CFE68C" fill-rule="evenodd"/><path d="M1877.5 776C1877.5 767.44 1883.99 760.5 1892 760.5 1900.01 760.5 1906.5 767.44 1906.5 776 1906.5 784.561 1900.01 791.5 1892 791.5 1883.99 791.5 1877.5 784.561 1877.5 776Z" stroke="#333333" stroke-width="2.86476" stroke-miterlimit="8" fill="#CFE68C" fill-rule="evenodd"/><path d="M1853.5 796C1853.5 787.44 1859.99 780.5 1868 780.5 1876.01 780.5 1882.5 787.44 1882.5 796 1882.5 804.561 1876.01 811.5 1868 811.5 1859.99 811.5 1853.5 804.561 1853.5 796Z" stroke="#333333" stroke-width="2.86476" stroke-miterlimit="8" fill="#CFE68C" fill-rule="evenodd"/><path d="M1828.5 813.5C1828.5 805.216 1834.99 798.5 1843 798.5 1851.01 798.5 1857.5 805.216 1857.5 813.5 1857.5 821.784 1851.01 828.5 1843 828.5 1834.99 828.5 1828.5 821.784 1828.5 813.5Z" stroke="#333333" stroke-width="2.86476" stroke-miterlimit="8" fill="#CFE68C" fill-rule="evenodd"/><path d="M1805.5 833.5C1805.5 825.216 1811.77 818.5 1819.5 818.5 1827.23 818.5 1833.5 825.216 1833.5 833.5 1833.5 841.784 1827.23 848.5 1819.5 848.5 1811.77 848.5 1805.5 841.784 1805.5 833.5Z" stroke="#333333" stroke-width="2.86476" stroke-miterlimit="8" fill="#CFE68C" fill-rule="evenodd"/><path d="M1784.5 856.5C1784.5 848.216 1790.77 841.5 1798.5 841.5 1806.23 841.5 1812.5 848.216 1812.5 856.5 1812.5 864.784 1806.23 871.5 1798.5 871.5 1790.77 871.5 1784.5 864.784 1784.5 856.5Z" stroke="#333333" stroke-width="2.86476" stroke-miterlimit="8" fill="#CFE68C" fill-rule="evenodd"/><path d="M1762.5 880C1762.5 871.44 1768.99 864.5 1777 864.5 1785.01 864.5 1791.5 871.44 1791.5 880 1791.5 888.56 1785.01 895.5 1777 895.5 1768.99 895.5 1762.5 888.56 1762.5 880Z" stroke="#333333" stroke-width="2.86476" stroke-miterlimit="8" fill="#CFE68C" fill-rule="evenodd"/><path d="M1743.5 905.5C1743.5 897.216 1749.77 890.5 1757.5 890.5 1765.23 890.5 1771.5 897.216 1771.5 905.5 1771.5 913.784 1765.23 920.5 1757.5 920.5 1749.77 920.5 1743.5 913.784 1743.5 905.5Z" stroke="#333333" stroke-width="2.86476" stroke-miterlimit="8" fill="#CFE68C" fill-rule="evenodd"/><path d="M1725.5 931C1725.5 922.439 1731.77 915.5 1739.5 915.5 1747.23 915.5 1753.5 922.439 1753.5 931 1753.5 939.56 1747.23 946.5 1739.5 946.5 1731.77 946.5 1725.5 939.56 1725.5 931Z" stroke="#333333" stroke-width="2.86476" stroke-miterlimit="8" fill="#CFE68C" fill-rule="evenodd"/><path d="M1708.5 959C1708.5 950.44 1714.99 943.5 1723 943.5 1731.01 943.5 1737.5 950.44 1737.5 959 1737.5 967.56 1731.01 974.5 1723 974.5 1714.99 974.5 1708.5 967.56 1708.5 959Z" stroke="#333333" stroke-width="2.86476" stroke-miterlimit="8" fill="#CFE68C" fill-rule="evenodd"/><path d="M1694.5 987C1694.5 978.44 1700.77 971.5 1708.5 971.5 1716.23 971.5 1722.5 978.44 1722.5 987 1722.5 995.56 1716.23 1002.5 1708.5 1002.5 1700.77 1002.5 1694.5 995.56 1694.5 987Z" stroke="#333333" stroke-width="2.86476" stroke-miterlimit="8" fill="#CFE68C" fill-rule="evenodd"/><path d="M1679.5 1015.5C1679.5 1007.22 1685.77 1000.5 1693.5 1000.5 1701.23 1000.5 1707.5 1007.22 1707.5 1015.5 1707.5 1023.78 1701.23 1030.5 1693.5 1030.5 1685.77 1030.5 1679.5 1023.78 1679.5 1015.5Z" stroke="#333333" stroke-width="2.86476" stroke-miterlimit="8" fill="#CFE68C" fill-rule="evenodd"/><path d="M1668.5 1044.5C1668.5 1036.22 1674.54 1029.5 1682 1029.5 1689.46 1029.5 1695.5 1036.22 1695.5 1044.5 1695.5 1052.78 1689.46 1059.5 1682 1059.5 1674.54 1059.5 1668.5 1052.78 1668.5 1044.5Z" stroke="#333333" stroke-width="2.86476" stroke-miterlimit="8" fill="#CFE68C" fill-rule="evenodd"/><path d="M1656.5 1074.5C1656.5 1066.22 1662.99 1059.5 1671 1059.5 1679.01 1059.5 1685.5 1066.22 1685.5 1074.5 1685.5 1082.78 1679.01 1089.5 1671 1089.5 1662.99 1089.5 1656.5 1082.78 1656.5 1074.5Z" stroke="#333333" stroke-width="2.86476" stroke-miterlimit="8" fill="#CFE68C" fill-rule="evenodd"/><path d="M1648.5 1105.5C1648.5 1097.22 1654.77 1090.5 1662.5 1090.5 1670.23 1090.5 1676.5 1097.22 1676.5 1105.5 1676.5 1113.78 1670.23 1120.5 1662.5 1120.5 1654.77 1120.5 1648.5 1113.78 1648.5 1105.5Z" stroke="#333333" stroke-width="2.86476" stroke-miterlimit="8" fill="#CFE68C" fill-rule="evenodd"/><path d="M1640.5 1137C1640.5 1128.44 1646.77 1121.5 1654.5 1121.5 1662.23 1121.5 1668.5 1128.44 1668.5 1137 1668.5 1145.56 1662.23 1152.5 1654.5 1152.5 1646.77 1152.5 1640.5 1145.56 1640.5 1137Z" stroke="#333333" stroke-width="2.86476" stroke-miterlimit="8" fill="#CFE68C" fill-rule="evenodd"/><path d="M1634.5 1169C1634.5 1160.99 1640.77 1154.5 1648.5 1154.5 1656.23 1154.5 1662.5 1160.99 1662.5 1169 1662.5 1177.01 1656.23 1183.5 1648.5 1183.5 1640.77 1183.5 1634.5 1177.01 1634.5 1169Z" stroke="#333333" stroke-width="2.86476" stroke-miterlimit="8" fill="#CFE68C" fill-rule="evenodd"/><path d="M1630.5 1201C1630.5 1192.44 1636.99 1185.5 1645 1185.5 1653.01 1185.5 1659.5 1192.44 1659.5 1201 1659.5 1209.56 1653.01 1216.5 1645 1216.5 1636.99 1216.5 1630.5 1209.56 1630.5 1201Z" stroke="#333333" stroke-width="2.86476" stroke-miterlimit="8" fill="#CFE68C" fill-rule="evenodd"/><path d="M1627.5 1234C1627.5 1225.44 1633.77 1218.5 1641.5 1218.5 1649.23 1218.5 1655.5 1225.44 1655.5 1234 1655.5 1242.56 1649.23 1249.5 1641.5 1249.5 1633.77 1249.5 1627.5 1242.56 1627.5 1234Z" stroke="#333333" stroke-width="2.86476" stroke-miterlimit="8" fill="#CFE68C" fill-rule="evenodd"/><path d="M1654.5 1265.5C1654.5 1265.5 1654.5 1265.5 1654.5 1265.5 1654.5 1257.06 1648.16 1250.5 1640 1250.5 1631.84 1250.5 1625.5 1257.06 1625.5 1265.5 1625.5 1265.5 1625.5 1265.5 1625.5 1265.5" stroke="#333333" stroke-width="2.86476" stroke-miterlimit="8" fill="#CFE68C" fill-rule="evenodd"/><path d="M1654.5 1265.5C1654.5 1265.5 1654.5 1265.5 1654.5 1265.5 1654.5 1257.06 1648.16 1250.5 1640 1250.5 1631.84 1250.5 1625.5 1257.06 1625.5 1265.5 1625.5 1265.5 1625.5 1265.5 1625.5 1265.5" stroke="#333333" stroke-width="2.86476" stroke-miterlimit="8" fill="none" fill-rule="evenodd"/><path d="M2185.5 610.353C2182.71 607.441 2179 605.5 2175.29 605.5 2166.93 605.5 2159.5 613.265 2159.5 622 2159.5 630.735 2166.93 638.5 2175.29 638.5 2179 638.5 2182.71 636.559 2185.5 633.647" stroke="#333333" stroke-width="2.86476" stroke-miterlimit="8" fill="#CFE68C" fill-rule="evenodd"/><path d="M2185.5 610.353C2182.71 607.441 2179 605.5 2175.29 605.5 2166.93 605.5 2159.5 613.265 2159.5 622 2159.5 630.735 2166.93 638.5 2175.29 638.5 2179 638.5 2182.71 636.559 2185.5 633.647" stroke="#333333" stroke-width="2.86476" stroke-miterlimit="8" fill="none" fill-rule="evenodd"/><path d="M2126.5 623.5C2126.5 614.663 2133.22 607.5 2141.5 607.5 2149.78 607.5 2156.5 614.663 2156.5 623.5 2156.5 632.336 2149.78 639.5 2141.5 639.5 2133.22 639.5 2126.5 632.336 2126.5 623.5Z" stroke="#333333" stroke-width="2.86476" stroke-miterlimit="8" fill="#CFE68C" fill-rule="evenodd"/><path d="M2093.5 626C2093.5 617.44 2100.22 610.5 2108.5 610.5 2116.78 610.5 2123.5 617.44 2123.5 626 2123.5 634.56 2116.78 641.5 2108.5 641.5 2100.22 641.5 2093.5 634.56 2093.5 626Z" stroke="#333333" stroke-width="2.86476" stroke-miterlimit="8" fill="#CFE68C" fill-rule="evenodd"/><path d="M2060.5 631.5C2060.5 622.664 2067.22 615.5 2075.5 615.5 2083.78 615.5 2090.5 622.664 2090.5 631.5 2090.5 640.337 2083.78 647.5 2075.5 647.5 2067.22 647.5 2060.5 640.337 2060.5 631.5Z" stroke="#333333" stroke-width="2.86476" stroke-miterlimit="8" fill="#CFE68C" fill-rule="evenodd"/><path d="M2027.5 639.5C2027.5 630.664 2034.22 623.5 2042.5 623.5 2050.78 623.5 2057.5 630.664 2057.5 639.5 2057.5 648.337 2050.78 655.5 2042.5 655.5 2034.22 655.5 2027.5 648.337 2027.5 639.5Z" stroke="#333333" stroke-width="2.86476" stroke-miterlimit="8" fill="#CFE68C" fill-rule="evenodd"/><path d="M1995.5 649C1995.5 640.44 2002.22 633.5 2010.5 633.5 2018.78 633.5 2025.5 640.44 2025.5 649 2025.5 657.56 2018.78 664.5 2010.5 664.5 2002.22 664.5 1995.5 657.56 1995.5 649Z" stroke="#333333" stroke-width="2.86476" stroke-miterlimit="8" fill="#CFE68C" fill-rule="evenodd"/><path d="M1964.5 660C1964.5 651.44 1971.22 644.5 1979.5 644.5 1987.78 644.5 1994.5 651.44 1994.5 660 1994.5 668.56 1987.78 675.5 1979.5 675.5 1971.22 675.5 1964.5 668.56 1964.5 660Z" stroke="#333333" stroke-width="2.86476" stroke-miterlimit="8" fill="#CFE68C" fill-rule="evenodd"/><path d="M1932.5 673.5C1932.5 664.664 1939.22 657.5 1947.5 657.5 1955.78 657.5 1962.5 664.664 1962.5 673.5 1962.5 682.337 1955.78 689.5 1947.5 689.5 1939.22 689.5 1932.5 682.337 1932.5 673.5Z" stroke="#333333" stroke-width="2.86476" stroke-miterlimit="8" fill="#CFE68C" fill-rule="evenodd"/><path d="M1902.5 687.5C1902.5 678.663 1908.99 671.5 1917 671.5 1925.01 671.5 1931.5 678.663 1931.5 687.5 1931.5 696.337 1925.01 703.5 1917 703.5 1908.99 703.5 1902.5 696.337 1902.5 687.5Z" stroke="#333333" stroke-width="2.86476" stroke-miterlimit="8" fill="#CFE68C" fill-rule="evenodd"/><path d="M1873.5 705C1873.5 696.44 1879.99 689.5 1888 689.5 1896.01 689.5 1902.5 696.44 1902.5 705 1902.5 713.56 1896.01 720.5 1888 720.5 1879.99 720.5 1873.5 713.56 1873.5 705Z" stroke="#333333" stroke-width="2.86476" stroke-miterlimit="8" fill="#CFE68C" fill-rule="evenodd"/><path d="M1845.5 723.5C1845.5 714.663 1852.22 707.5 1860.5 707.5 1868.78 707.5 1875.5 714.663 1875.5 723.5 1875.5 732.336 1868.78 739.5 1860.5 739.5 1852.22 739.5 1845.5 732.336 1845.5 723.5Z" stroke="#333333" stroke-width="2.86476" stroke-miterlimit="8" fill="#CFE68C" fill-rule="evenodd"/><path d="M1818.5 745.5C1818.5 736.663 1825.22 729.5 1833.5 729.5 1841.78 729.5 1848.5 736.663 1848.5 745.5 1848.5 754.336 1841.78 761.5 1833.5 761.5 1825.22 761.5 1818.5 754.336 1818.5 745.5Z" stroke="#333333" stroke-width="2.86476" stroke-miterlimit="8" fill="#CFE68C" fill-rule="evenodd"/><path d="M1790.5 764.5C1790.5 755.663 1797.22 748.5 1805.5 748.5 1813.78 748.5 1820.5 755.663 1820.5 764.5 1820.5 773.337 1813.78 780.5 1805.5 780.5 1797.22 780.5 1790.5 773.337 1790.5 764.5Z" stroke="#333333" stroke-width="2.86476" stroke-miterlimit="8" fill="#CFE68C" fill-rule="evenodd"/><path d="M1765.5 786.5C1765.5 777.663 1771.99 770.5 1780 770.5 1788.01 770.5 1794.5 777.663 1794.5 786.5 1794.5 795.337 1788.01 802.5 1780 802.5 1771.99 802.5 1765.5 795.337 1765.5 786.5Z" stroke="#333333" stroke-width="2.86476" stroke-miterlimit="8" fill="#CFE68C" fill-rule="evenodd"/><path d="M1740.5 812.5C1740.5 803.663 1747.44 796.5 1756 796.5 1764.56 796.5 1771.5 803.663 1771.5 812.5 1771.5 821.336 1764.56 828.5 1756 828.5 1747.44 828.5 1740.5 821.336 1740.5 812.5Z" stroke="#333333" stroke-width="2.86476" stroke-miterlimit="8" fill="#CFE68C" fill-rule="evenodd"/><path d="M1718.5 838.5C1718.5 829.664 1725.22 822.5 1733.5 822.5 1741.78 822.5 1748.5 829.664 1748.5 838.5 1748.5 847.337 1741.78 854.5 1733.5 854.5 1725.22 854.5 1718.5 847.337 1718.5 838.5Z" stroke="#333333" stroke-width="2.86476" stroke-miterlimit="8" fill="#CFE68C" fill-rule="evenodd"/><path d="M1696.5 866.5C1696.5 857.663 1703.22 850.5 1711.5 850.5 1719.78 850.5 1726.5 857.663 1726.5 866.5 1726.5 875.336 1719.78 882.5 1711.5 882.5 1703.22 882.5 1696.5 875.336 1696.5 866.5Z" stroke="#333333" stroke-width="2.86476" stroke-miterlimit="8" fill="#CFE68C" fill-rule="evenodd"/><path d="M1677.5 894C1677.5 885.44 1683.99 878.5 1692 878.5 1700.01 878.5 1706.5 885.44 1706.5 894 1706.5 902.56 1700.01 909.5 1692 909.5 1683.99 909.5 1677.5 902.56 1677.5 894Z" stroke="#333333" stroke-width="2.86476" stroke-miterlimit="8" fill="#CFE68C" fill-rule="evenodd"/><path d="M1659.5 925C1659.5 916.44 1665.99 909.5 1674 909.5 1682.01 909.5 1688.5 916.44 1688.5 925 1688.5 933.56 1682.01 940.5 1674 940.5 1665.99 940.5 1659.5 933.56 1659.5 925Z" stroke="#333333" stroke-width="2.86476" stroke-miterlimit="8" fill="#CFE68C" fill-rule="evenodd"/><path d="M1642.5 955C1642.5 945.887 1649.22 938.5 1657.5 938.5 1665.78 938.5 1672.5 945.887 1672.5 955 1672.5 964.113 1665.78 971.5 1657.5 971.5 1649.22 971.5 1642.5 964.113 1642.5 955Z" stroke="#333333" stroke-width="2.86476" stroke-miterlimit="8" fill="#CFE68C" fill-rule="evenodd"/><path d="M1626.5 986.5C1626.5 977.663 1633.22 970.5 1641.5 970.5 1649.78 970.5 1656.5 977.663 1656.5 986.5 1656.5 995.336 1649.78 1002.5 1641.5 1002.5 1633.22 1002.5 1626.5 995.336 1626.5 986.5Z" stroke="#333333" stroke-width="2.86476" stroke-miterlimit="8" fill="#CFE68C" fill-rule="evenodd"/><path d="M1614.5 1018C1614.5 1009.44 1620.99 1002.5 1629 1002.5 1637.01 1002.5 1643.5 1009.44 1643.5 1018 1643.5 1026.56 1637.01 1033.5 1629 1033.5 1620.99 1033.5 1614.5 1026.56 1614.5 1018Z" stroke="#333333" stroke-width="2.86476" stroke-miterlimit="8" fill="#CFE68C" fill-rule="evenodd"/><path d="M1601.5 1052C1601.5 1043.44 1608.22 1036.5 1616.5 1036.5 1624.78 1036.5 1631.5 1043.44 1631.5 1052 1631.5 1060.56 1624.78 1067.5 1616.5 1067.5 1608.22 1067.5 1601.5 1060.56 1601.5 1052Z" stroke="#333333" stroke-width="2.86476" stroke-miterlimit="8" fill="#CFE68C" fill-rule="evenodd"/><path d="M1591.5 1086.5C1591.5 1077.66 1598.22 1070.5 1606.5 1070.5 1614.78 1070.5 1621.5 1077.66 1621.5 1086.5 1621.5 1095.34 1614.78 1102.5 1606.5 1102.5 1598.22 1102.5 1591.5 1095.34 1591.5 1086.5Z" stroke="#333333" stroke-width="2.86476" stroke-miterlimit="8" fill="#CFE68C" fill-rule="evenodd"/><path d="M1583.5 1121C1583.5 1112.44 1590.22 1105.5 1598.5 1105.5 1606.78 1105.5 1613.5 1112.44 1613.5 1121 1613.5 1129.56 1606.78 1136.5 1598.5 1136.5 1590.22 1136.5 1583.5 1129.56 1583.5 1121Z" stroke="#333333" stroke-width="2.86476" stroke-miterlimit="8" fill="#CFE68C" fill-rule="evenodd"/><path d="M1577.5 1155.5C1577.5 1146.66 1583.99 1139.5 1592 1139.5 1600.01 1139.5 1606.5 1146.66 1606.5 1155.5 1606.5 1164.34 1600.01 1171.5 1592 1171.5 1583.99 1171.5 1577.5 1164.34 1577.5 1155.5Z" stroke="#333333" stroke-width="2.86476" stroke-miterlimit="8" fill="#CFE68C" fill-rule="evenodd"/><path d="M1572.5 1191C1572.5 1182.44 1579.22 1175.5 1587.5 1175.5 1595.78 1175.5 1602.5 1182.44 1602.5 1191 1602.5 1199.56 1595.78 1206.5 1587.5 1206.5 1579.22 1206.5 1572.5 1199.56 1572.5 1191Z" stroke="#333333" stroke-width="2.86476" stroke-miterlimit="8" fill="#CFE68C" fill-rule="evenodd"/><path d="M1569.5 1227C1569.5 1217.89 1575.99 1210.5 1584 1210.5 1592.01 1210.5 1598.5 1217.89 1598.5 1227 1598.5 1236.11 1592.01 1243.5 1584 1243.5 1575.99 1243.5 1569.5 1236.11 1569.5 1227Z" stroke="#333333" stroke-width="2.86476" stroke-miterlimit="8" fill="#CFE68C" fill-rule="evenodd"/><path d="M1596.62 1265.5C1596.62 1264.55 1597.5 1262.64 1597.5 1261.69 1597.5 1253.12 1590.47 1245.5 1582.56 1245.5 1574.65 1245.5 1568.5 1253.12 1568.5 1261.69 1568.5 1262.64 1568.5 1264.55 1568.5 1265.5" stroke="#333333" stroke-width="2.86476" stroke-miterlimit="8" fill="#CFE68C" fill-rule="evenodd"/><path d="M1596.62 1265.5C1596.62 1264.55 1597.5 1262.64 1597.5 1261.69 1597.5 1253.12 1590.47 1245.5 1582.56 1245.5 1574.65 1245.5 1568.5 1253.12 1568.5 1261.69 1568.5 1262.64 1568.5 1264.55 1568.5 1265.5" stroke="#333333" stroke-width="2.86476" stroke-miterlimit="8" fill="none" fill-rule="evenodd"/><path d="M1574 1225.5C1574 1222.46 1576.46 1220 1579.5 1220 1582.54 1220 1585 1222.46 1585 1225.5 1585 1228.54 1582.54 1231 1579.5 1231 1576.46 1231 1574 1228.54 1574 1225.5Z" fill="#FFFFFF" fill-rule="evenodd"/><path d="M1573 1257.5C1573 1254.46 1575.46 1252 1578.5 1252 1581.54 1252 1584 1254.46 1584 1257.5 1584 1260.54 1581.54 1263 1578.5 1263 1575.46 1263 1573 1260.54 1573 1257.5Z" fill="#FFFFFF" fill-rule="evenodd"/><path d="M1578 1188.5C1578 1185.46 1580.24 1183 1583 1183 1585.76 1183 1588 1185.46 1588 1188.5 1588 1191.54 1585.76 1194 1583 1194 1580.24 1194 1578 1191.54 1578 1188.5Z" fill="#FFFFFF" fill-rule="evenodd"/><path d="M1581 1151.5C1581 1148.46 1583.46 1146 1586.5 1146 1589.54 1146 1592 1148.46 1592 1151.5 1592 1154.54 1589.54 1157 1586.5 1157 1583.46 1157 1581 1154.54 1581 1151.5Z" fill="#FFFFFF" fill-rule="evenodd"/><path d="M1634 1197.5C1634 1194.46 1636.46 1192 1639.5 1192 1642.54 1192 1645 1194.46 1645 1197.5 1645 1200.54 1642.54 1203 1639.5 1203 1636.46 1203 1634 1200.54 1634 1197.5Z" fill="#FFFFFF" fill-rule="evenodd"/><path d="M1632 1232C1632 1228.69 1634.46 1226 1637.5 1226 1640.54 1226 1643 1228.69 1643 1232 1643 1235.31 1640.54 1238 1637.5 1238 1634.46 1238 1632 1235.31 1632 1232Z" fill="#FFFFFF" fill-rule="evenodd"/><path d="M1639 1165C1639 1161.69 1641.46 1159 1644.5 1159 1647.54 1159 1650 1161.69 1650 1165 1650 1168.31 1647.54 1171 1644.5 1171 1641.46 1171 1639 1168.31 1639 1165Z" fill="#FFFFFF" fill-rule="evenodd"/><path d="M1644 1136.5C1644 1133.46 1646.46 1131 1649.5 1131 1652.54 1131 1655 1133.46 1655 1136.5 1655 1139.54 1652.54 1142 1649.5 1142 1646.46 1142 1644 1139.54 1644 1136.5Z" fill="#FFFFFF" fill-rule="evenodd"/><path d="M1652 1102.5C1652 1099.46 1654.46 1097 1657.5 1097 1660.54 1097 1663 1099.46 1663 1102.5 1663 1105.54 1660.54 1108 1657.5 1108 1654.46 1108 1652 1105.54 1652 1102.5Z" fill="#FFFFFF" fill-rule="evenodd"/><path d="M1660 1072C1660 1068.69 1662.46 1066 1665.5 1066 1668.54 1066 1671 1068.69 1671 1072 1671 1075.31 1668.54 1078 1665.5 1078 1662.46 1078 1660 1075.31 1660 1072Z" fill="#FFFFFF" fill-rule="evenodd"/><path d="M1587 1116C1587 1112.69 1589.24 1110 1592 1110 1594.76 1110 1597 1112.69 1597 1116 1597 1119.31 1594.76 1122 1592 1122 1589.24 1122 1587 1119.31 1587 1116Z" fill="#FFFFFF" fill-rule="evenodd"/><path d="M1595 1082.5C1595 1079.46 1597.24 1077 1600 1077 1602.76 1077 1605 1079.46 1605 1082.5 1605 1085.54 1602.76 1088 1600 1088 1597.24 1088 1595 1085.54 1595 1082.5Z" fill="#FFFFFF" fill-rule="evenodd"/><path d="M1604 1048C1604 1044.69 1606.24 1042 1609 1042 1611.76 1042 1614 1044.69 1614 1048 1614 1051.31 1611.76 1054 1609 1054 1606.24 1054 1604 1051.31 1604 1048Z" fill="#FFFFFF" fill-rule="evenodd"/><path d="M1617 1016C1617 1012.69 1619.46 1010 1622.5 1010 1625.54 1010 1628 1012.69 1628 1016 1628 1019.31 1625.54 1022 1622.5 1022 1619.46 1022 1617 1019.31 1617 1016Z" fill="#FFFFFF" fill-rule="evenodd"/><path d="M1632 981.5C1632 978.462 1634.24 976 1637 976 1639.76 976 1642 978.462 1642 981.5 1642 984.537 1639.76 987 1637 987 1634.24 987 1632 984.537 1632 981.5Z" fill="#FFFFFF" fill-rule="evenodd"/><path d="M1647 952.5C1647 949.463 1649.46 947 1652.5 947 1655.54 947 1658 949.463 1658 952.5 1658 955.538 1655.54 958 1652.5 958 1649.46 958 1647 955.538 1647 952.5Z" fill="#FFFFFF" fill-rule="evenodd"/><path d="M1662 922C1662 918.686 1664.46 916 1667.5 916 1670.54 916 1673 918.686 1673 922 1673 925.314 1670.54 928 1667.5 928 1664.46 928 1662 925.314 1662 922Z" fill="#FFFFFF" fill-rule="evenodd"/><path d="M1682 891.5C1682 888.462 1684.46 886 1687.5 886 1690.54 886 1693 888.462 1693 891.5 1693 894.537 1690.54 897 1687.5 897 1684.46 897 1682 894.537 1682 891.5Z" fill="#FFFFFF" fill-rule="evenodd"/><path d="M1702 862.5C1702 859.462 1704.46 857 1707.5 857 1710.54 857 1713 859.462 1713 862.5 1713 865.537 1710.54 868 1707.5 868 1704.46 868 1702 865.537 1702 862.5Z" fill="#FFFFFF" fill-rule="evenodd"/><path d="M1724 832.5C1724 829.463 1726.46 827 1729.5 827 1732.54 827 1735 829.463 1735 832.5 1735 835.538 1732.54 838 1729.5 838 1726.46 838 1724 835.538 1724 832.5Z" fill="#FFFFFF" fill-rule="evenodd"/><path d="M1672 1042C1672 1038.69 1674.46 1036 1677.5 1036 1680.54 1036 1683 1038.69 1683 1042 1683 1045.31 1680.54 1048 1677.5 1048 1674.46 1048 1672 1045.31 1672 1042Z" fill="#FFFFFF" fill-rule="evenodd"/><path d="M1684 1013C1684 1009.69 1686.46 1007 1689.5 1007 1692.54 1007 1695 1009.69 1695 1013 1695 1016.31 1692.54 1019 1689.5 1019 1686.46 1019 1684 1016.31 1684 1013Z" fill="#FFFFFF" fill-rule="evenodd"/><path d="M1699 982.5C1699 979.462 1701.46 977 1704.5 977 1707.54 977 1710 979.462 1710 982.5 1710 985.537 1707.54 988 1704.5 988 1701.46 988 1699 985.537 1699 982.5Z" fill="#FFFFFF" fill-rule="evenodd"/><path d="M1713 955.5C1713 952.463 1715.24 950 1718 950 1720.76 950 1723 952.463 1723 955.5 1723 958.538 1720.76 961 1718 961 1715.24 961 1713 958.538 1713 955.5Z" fill="#FFFFFF" fill-rule="evenodd"/><path d="M1731 929C1731 925.686 1733.24 923 1736 923 1738.76 923 1741 925.686 1741 929 1741 932.314 1738.76 935 1736 935 1733.24 935 1731 932.314 1731 929Z" fill="#FFFFFF" fill-rule="evenodd"/><path d="M1748 902C1748 898.686 1750.24 896 1753 896 1755.76 896 1758 898.686 1758 902 1758 905.314 1755.76 908 1753 908 1750.24 908 1748 905.314 1748 902Z" fill="#FFFFFF" fill-rule="evenodd"/><path d="M1767 877.5C1767 874.463 1769.24 872 1772 872 1774.76 872 1777 874.463 1777 877.5 1777 880.538 1774.76 883 1772 883 1769.24 883 1767 880.538 1767 877.5Z" fill="#FFFFFF" fill-rule="evenodd"/><path d="M1789 854.5C1789 851.463 1791.46 849 1794.5 849 1797.54 849 1800 851.463 1800 854.5 1800 857.538 1797.54 860 1794.5 860 1791.46 860 1789 857.538 1789 854.5Z" fill="#FFFFFF" fill-rule="evenodd"/><path d="M1811 831C1811 827.686 1813.24 825 1816 825 1818.76 825 1821 827.686 1821 831 1821 834.314 1818.76 837 1816 837 1813.24 837 1811 834.314 1811 831Z" fill="#FFFFFF" fill-rule="evenodd"/><path d="M1832 810.5C1832 807.463 1834.24 805 1837 805 1839.76 805 1842 807.463 1842 810.5 1842 813.538 1839.76 816 1837 816 1834.24 816 1832 813.538 1832 810.5Z" fill="#FFFFFF" fill-rule="evenodd"/><path d="M1859 791C1859 787.686 1861.24 785 1864 785 1866.76 785 1869 787.686 1869 791 1869 794.314 1866.76 797 1864 797 1861.24 797 1859 794.314 1859 791Z" fill="#FFFFFF" fill-rule="evenodd"/><path d="M1882 771C1882 767.686 1884.46 765 1887.5 765 1890.54 765 1893 767.686 1893 771 1893 774.314 1890.54 777 1887.5 777 1884.46 777 1882 774.314 1882 771Z" fill="#FFFFFF" fill-rule="evenodd"/><path d="M1908 754C1908 750.686 1910.46 748 1913.5 748 1916.54 748 1919 750.686 1919 754 1919 757.314 1916.54 760 1913.5 760 1910.46 760 1908 757.314 1908 754Z" fill="#FFFFFF" fill-rule="evenodd"/><path d="M1936 740.5C1936 737.462 1938.46 735 1941.5 735 1944.54 735 1947 737.462 1947 740.5 1947 743.537 1944.54 746 1941.5 746 1938.46 746 1936 743.537 1936 740.5Z" fill="#FFFFFF" fill-rule="evenodd"/><path d="M1963 725C1963 721.686 1965.46 719 1968.5 719 1971.54 719 1974 721.686 1974 725 1974 728.314 1971.54 731 1968.5 731 1965.46 731 1963 728.314 1963 725Z" fill="#FFFFFF" fill-rule="evenodd"/><path d="M1990 713.5C1990 710.463 1992.46 708 1995.5 708 1998.54 708 2001 710.463 2001 713.5 2001 716.538 1998.54 719 1995.5 719 1992.46 719 1990 716.538 1990 713.5Z" fill="#FFFFFF" fill-rule="evenodd"/><path d="M2019 702C2019 698.686 2021.46 696 2024.5 696 2027.54 696 2030 698.686 2030 702 2030 705.314 2027.54 708 2024.5 708 2021.46 708 2019 705.314 2019 702Z" fill="#FFFFFF" fill-rule="evenodd"/><path d="M2048 694.5C2048 691.462 2050.24 689 2053 689 2055.76 689 2058 691.462 2058 694.5 2058 697.537 2055.76 700 2053 700 2050.24 700 2048 697.537 2048 694.5Z" fill="#FFFFFF" fill-rule="evenodd"/><path d="M2079 688.5C2079 685.463 2081.46 683 2084.5 683 2087.54 683 2090 685.463 2090 688.5 2090 691.538 2087.54 694 2084.5 694 2081.46 694 2079 691.538 2079 688.5Z" fill="#FFFFFF" fill-rule="evenodd"/><path d="M2110 683C2110 679.686 2112.46 677 2115.5 677 2118.54 677 2121 679.686 2121 683 2121 686.314 2118.54 689 2115.5 689 2112.46 689 2110 686.314 2110 683Z" fill="#FFFFFF" fill-rule="evenodd"/><path d="M2141 680C2141 676.686 2143.24 674 2146 674 2148.76 674 2151 676.686 2151 680 2151 683.314 2148.76 686 2146 686 2143.24 686 2141 683.314 2141 680Z" fill="#FFFFFF" fill-rule="evenodd"/><path d="M2169 678C2169 674.686 2171.46 672 2174.5 672 2177.54 672 2180 674.686 2180 678 2180 681.314 2177.54 684 2174.5 684 2171.46 684 2169 681.314 2169 678Z" fill="#FFFFFF" fill-rule="evenodd"/><path d="M2167 617.5C2167 614.462 2169.24 612 2172 612 2174.76 612 2177 614.462 2177 617.5 2177 620.537 2174.76 623 2172 623 2169.24 623 2167 620.537 2167 617.5Z" fill="#FFFFFF" fill-rule="evenodd"/><path d="M2133 617.5C2133 614.462 2135.46 612 2138.5 612 2141.54 612 2144 614.462 2144 617.5 2144 620.537 2141.54 623 2138.5 623 2135.46 623 2133 620.537 2133 617.5Z" fill="#FFFFFF" fill-rule="evenodd"/><path d="M2099 622.5C2099 619.463 2101.46 617 2104.5 617 2107.54 617 2110 619.463 2110 622.5 2110 625.538 2107.54 628 2104.5 628 2101.46 628 2099 625.538 2099 622.5Z" fill="#FFFFFF" fill-rule="evenodd"/><path d="M2066 628C2066 624.686 2068.46 622 2071.5 622 2074.54 622 2077 624.686 2077 628 2077 631.314 2074.54 634 2071.5 634 2068.46 634 2066 631.314 2066 628Z" fill="#FFFFFF" fill-rule="evenodd"/><path d="M2034 635C2034 631.686 2036.46 629 2039.5 629 2042.54 629 2045 631.686 2045 635 2045 638.314 2042.54 641 2039.5 641 2036.46 641 2034 638.314 2034 635Z" fill="#FFFFFF" fill-rule="evenodd"/><path d="M2001 643.5C2001 640.462 2003.46 638 2006.5 638 2009.54 638 2012 640.462 2012 643.5 2012 646.538 2009.54 649 2006.5 649 2003.46 649 2001 646.538 2001 643.5Z" fill="#FFFFFF" fill-rule="evenodd"/><path d="M1970 655C1970 651.686 1972.46 649 1975.5 649 1978.54 649 1981 651.686 1981 655 1981 658.314 1978.54 661 1975.5 661 1972.46 661 1970 658.314 1970 655Z" fill="#FFFFFF" fill-rule="evenodd"/><path d="M1939 667.5C1939 664.463 1941.24 662 1944 662 1946.76 662 1949 664.463 1949 667.5 1949 670.538 1946.76 673 1944 673 1941.24 673 1939 670.538 1939 667.5Z" fill="#FFFFFF" fill-rule="evenodd"/><path d="M1908 684.5C1908 681.462 1910.46 679 1913.5 679 1916.54 679 1919 681.462 1919 684.5 1919 687.537 1916.54 690 1913.5 690 1910.46 690 1908 687.537 1908 684.5Z" fill="#FFFFFF" fill-rule="evenodd"/><path d="M1879 700C1879 696.686 1881.46 694 1884.5 694 1887.54 694 1890 696.686 1890 700 1890 703.314 1887.54 706 1884.5 706 1881.46 706 1879 703.314 1879 700Z" fill="#FFFFFF" fill-rule="evenodd"/><path d="M1851 718.5C1851 715.462 1853.46 713 1856.5 713 1859.54 713 1862 715.462 1862 718.5 1862 721.537 1859.54 724 1856.5 724 1853.46 724 1851 721.537 1851 718.5Z" fill="#FFFFFF" fill-rule="evenodd"/><path d="M1823 739.5C1823 736.462 1825.24 734 1828 734 1830.76 734 1833 736.462 1833 739.5 1833 742.537 1830.76 745 1828 745 1825.24 745 1823 742.537 1823 739.5Z" fill="#FFFFFF" fill-rule="evenodd"/><path d="M1796 758C1796 754.686 1798.24 752 1801 752 1803.76 752 1806 754.686 1806 758 1806 761.314 1803.76 764 1801 764 1798.24 764 1796 761.314 1796 758Z" fill="#FFFFFF" fill-rule="evenodd"/><path d="M1771 782C1771 778.686 1773.46 776 1776.5 776 1779.54 776 1782 778.686 1782 782 1782 785.314 1779.54 788 1776.5 788 1773.46 788 1771 785.314 1771 782Z" fill="#FFFFFF" fill-rule="evenodd"/><path d="M1747 807C1747 803.686 1749.46 801 1752.5 801 1755.54 801 1758 803.686 1758 807 1758 810.314 1755.54 813 1752.5 813 1749.46 813 1747 810.314 1747 807Z" fill="#FFFFFF" fill-rule="evenodd"/></g></svg>