<svg width="621" height="661" xmlns="http://www.w3.org/2000/svg" xmlns:xlink="http://www.w3.org/1999/xlink" xml:space="preserve" overflow="hidden"><g transform="translate(-2221 -604)"><path d="M2222 1263C2222 620 2222 620 2222 620 2554.94 620 2824 908.341 2824 1263 2222 1263 2222 1263 2222 1263" fill="#F47DBD" fill-rule="evenodd"/><path d="M2222 682C2222 1263 2222 1263 2222 1263 2767 1263 2767 1263 2767 1263 2767 943.21 2522.88 682 2222 682Z" fill="#FAC3E1" fill-rule="evenodd"/><path d="M2815 1252.43C2815 1246.66 2819.5 1242.82 2824 1241.85 2813.2 901.613 2554.94 627.689 2234.6 620 2234.6 625.767 2231 630.573 2225.6 630.573 2222.9 629.611 2222.9 629.611 2222.9 629.611 2223.8 630.573 2222.9 629.611 2222 629.611 2222 641.145 2222 641.145 2222 641.145 2225.6 642.106 2225.6 642.106 2225.6 642.106 2231.9 642.106 2237.3 639.223 2240.9 634.417 2244.5 640.184 2250.8 643.067 2257.99 643.067 2264.29 643.067 2269.69 640.184 2273.29 635.378 2276.89 642.106 2284.09 646.912 2291.29 646.912 2297.59 646.912 2302.99 644.029 2306.59 640.184 2309.29 646.912 2316.48 651.718 2324.58 651.718 2329.98 651.718 2335.38 649.795 2338.98 644.99 2342.58 652.679 2349.78 658.446 2357.88 658.446 2362.38 658.446 2366.88 656.523 2370.48 652.679 2373.17 661.329 2381.27 667.096 2390.27 667.096 2394.77 667.096 2399.27 666.135 2402.87 662.29 2405.57 671.901 2412.77 677.668 2421.77 677.668 2426.27 677.668 2429.87 676.707 2433.46 673.824 2435.26 683.435 2443.36 691.124 2453.26 691.124 2456.86 691.124 2460.46 690.163 2463.16 688.241 2464.96 697.852 2473.06 704.58 2482.96 704.58 2486.56 704.58 2489.26 703.619 2491.96 702.658 2493.75 713.23 2501.85 721.88 2512.65 721.88 2515.35 721.88 2518.05 720.919 2520.75 719.958 2521.65 730.531 2530.65 739.181 2541.45 739.181 2544.15 739.181 2546.85 738.22 2549.55 737.259 2549.55 748.792 2558.54 758.404 2569.34 758.404 2572.04 758.404 2573.84 758.404 2575.64 757.443 2575.64 758.404 2575.64 758.404 2575.64 758.404 2575.64 769.937 2584.64 779.549 2596.34 779.549 2598.14 779.549 2599.94 779.549 2601.74 778.588 2601.74 779.549 2601.74 780.51 2601.74 780.51 2601.74 793.005 2610.74 802.616 2622.43 802.616 2623.33 802.616 2625.13 802.616 2626.03 801.655 2626.03 803.577 2626.03 804.538 2626.03 805.499 2626.03 817.994 2635.03 827.605 2645.83 827.605 2647.63 827.605 2648.53 827.605 2650.33 826.644 2649.43 828.567 2649.43 829.528 2649.43 831.45 2649.43 842.984 2658.43 852.595 2670.13 852.595 2670.13 852.595 2671.03 852.595 2671.03 852.595 2671.03 854.517 2670.13 856.44 2670.13 858.362 2670.13 869.895 2679.12 879.507 2689.92 879.507 2689.02 882.39 2689.02 884.312 2689.02 887.196 2689.02 899.691 2698.02 909.302 2708.82 909.302 2709.72 909.302 2709.72 909.302 2710.62 909.302 2709.72 911.224 2709.72 914.108 2709.72 916.03 2709.72 927.564 2717.82 937.175 2728.62 938.136 2726.82 940.058 2726.82 942.942 2726.82 946.786 2726.82 957.359 2734.01 966.97 2744.81 967.931 2743.01 970.815 2742.11 973.698 2742.11 977.543 2742.11 988.115 2750.21 997.726 2759.21 998.688 2757.41 1002.53 2756.51 1006.38 2756.51 1010.22 2756.51 1019.83 2763.71 1028.48 2772.71 1031.37 2770.01 1034.25 2769.11 1039.06 2769.11 1042.9 2769.11 1052.51 2775.41 1061.16 2783.51 1064.04 2780.81 1067.89 2779.01 1071.73 2779.01 1077.5 2779.01 1086.15 2784.41 1094.8 2792.51 1097.68 2788.91 1101.53 2788.01 1106.33 2788.01 1111.14 2788.01 1120.75 2792.51 1128.44 2800.6 1131.32 2797 1135.17 2795.2 1139.97 2795.2 1145.74 2795.2 1154.39 2799.7 1162.08 2806 1165.93 2802.4 1169.77 2799.7 1174.58 2799.7 1181.3 2799.7 1188.99 2804.2 1196.68 2810.5 1200.53 2806 1204.37 2803.3 1210.14 2803.3 1216.87 2803.3 1224.55 2806.9 1231.28 2812.3 1235.13 2807.8 1238.97 2804.2 1245.7 2804.2 1252.43 2804.2 1256.27 2805.1 1260.12 2807.8 1263 2819.5 1263 2819.5 1263 2819.5 1263 2819.5 1262.04 2818.6 1260.12 2817.7 1259.16 2815.9 1257.23 2815 1255.31 2815 1252.43ZM2779.01 1239.93C2782.61 1236.09 2785.31 1230.32 2785.31 1224.55 2785.31 1216.87 2781.71 1210.14 2776.31 1206.29 2779.91 1202.45 2782.61 1197.64 2782.61 1191.88 2782.61 1184.19 2779.01 1177.46 2772.71 1173.61 2776.31 1169.77 2778.11 1164.96 2778.11 1160.16 2778.11 1151.51 2773.61 1144.78 2767.31 1140.94 2770.01 1137.09 2770.91 1133.25 2770.91 1128.44 2770.91 1119.79 2766.41 1112.1 2760.11 1109.22 2761.91 1105.37 2763.71 1101.53 2763.71 1096.72 2763.71 1088.07 2758.31 1080.38 2751.11 1077.5 2752.91 1074.62 2754.71 1070.77 2754.71 1065.97 2754.71 1056.36 2748.41 1048.67 2740.31 1045.78 2742.11 1042.9 2743.01 1040.02 2743.01 1036.17 2743.01 1026.56 2736.71 1017.91 2727.72 1015.99 2729.52 1013.1 2730.42 1010.22 2730.42 1006.38 2730.42 996.765 2723.22 988.115 2714.22 986.193 2715.12 983.309 2716.02 981.387 2716.02 978.504 2716.02 967.931 2708.82 959.281 2698.92 957.359 2699.82 955.437 2699.82 953.514 2699.82 950.631 2699.82 939.097 2691.72 930.447 2680.92 929.486 2680.92 928.525 2680.92 926.602 2680.92 924.68 2680.92 914.108 2673.72 905.457 2663.83 903.535 2664.73 901.613 2664.73 899.691 2664.73 897.768 2664.73 886.235 2655.73 877.584 2645.83 876.623 2645.83 875.662 2645.83 874.701 2645.83 873.74 2645.83 862.206 2636.83 852.595 2626.03 852.595 2625.13 852.595 2625.13 852.595 2624.23 852.595 2624.23 851.634 2624.23 850.673 2624.23 850.673 2624.23 839.139 2615.23 829.528 2604.44 829.528 2603.54 829.528 2602.64 829.528 2602.64 829.528 2602.64 828.567 2602.64 828.567 2602.64 827.605 2602.64 816.072 2593.64 806.46 2582.84 806.46 2581.04 806.46 2580.14 806.46 2578.34 807.422 2578.34 795.888 2569.34 786.277 2558.54 786.277 2557.64 786.277 2555.84 786.277 2554.04 787.238 2554.04 775.704 2545.05 767.054 2535.15 767.054 2532.45 767.054 2530.65 767.054 2528.85 768.015 2527.95 757.443 2518.95 748.792 2509.05 748.792 2506.35 748.792 2504.55 749.753 2501.85 750.715 2500.95 741.103 2492.85 733.414 2482.96 733.414 2480.26 733.414 2477.56 733.414 2475.76 734.375 2473.96 725.725 2465.86 718.036 2455.96 718.036 2453.26 718.036 2450.56 718.997 2447.86 719.958 2445.16 711.308 2437.96 705.541 2428.97 705.541 2425.37 705.541 2421.77 706.502 2419.07 708.425 2416.37 699.774 2409.17 693.046 2400.17 693.046 2396.57 693.046 2392.97 694.969 2389.37 696.891 2386.67 689.202 2379.47 684.396 2371.38 684.396 2366.88 684.396 2363.28 685.357 2359.68 688.241 2356.98 680.552 2349.78 675.746 2342.58 675.746 2337.18 675.746 2332.68 677.668 2329.08 680.552 2326.38 673.824 2319.18 669.979 2311.99 669.979 2307.49 669.979 2302.09 671.901 2298.49 675.746 2295.79 669.018 2289.49 665.174 2282.29 665.174 2276.89 665.174 2271.49 668.057 2267.89 671.901 2264.29 666.135 2257.99 662.29 2251.7 662.29 2246.3 662.29 2240.9 664.212 2237.3 669.018 2233.7 664.212 2228.3 660.368 2222 660.368 2222 660.368 2222 660.368 2222 660.368 2222 671.901 2222 671.901 2222 671.901 2222 671.901 2222 671.901 2222 671.901 2226.5 671.901 2231 676.707 2231 681.513 2231 687.28 2226.5 691.124 2222 691.124 2222 691.124 2222 691.124 2222 691.124 2222 702.658 2222 702.658 2222 702.658 2227.4 702.658 2232.8 699.774 2236.4 695.93 2240 700.736 2245.4 703.619 2251.7 703.619 2257.09 703.619 2262.49 701.697 2265.19 697.852 2268.79 703.619 2275.09 707.464 2282.29 707.464 2286.79 707.464 2292.19 704.58 2294.89 701.697 2298.49 707.464 2304.79 712.269 2311.99 712.269 2317.38 712.269 2321.88 709.386 2324.58 706.502 2328.18 713.23 2334.48 717.075 2342.58 717.075 2346.18 717.075 2350.68 716.114 2353.38 713.23 2356.98 720.919 2363.28 725.725 2371.38 725.725 2375.87 725.725 2379.47 724.764 2382.17 722.842 2385.77 729.57 2392.07 735.336 2400.17 735.336 2403.77 735.336 2407.37 734.375 2410.07 732.453 2412.77 741.103 2419.97 746.87 2428.97 746.87 2431.67 746.87 2435.26 745.909 2437.96 744.948 2439.76 753.598 2447.86 760.326 2455.96 760.326 2458.66 760.326 2461.36 759.365 2464.06 758.404 2465.86 768.015 2473.06 774.743 2482.96 774.743 2485.66 774.743 2487.46 774.743 2490.16 773.782 2491.96 783.393 2499.15 791.082 2509.05 791.082 2510.85 791.082 2513.55 790.121 2515.35 790.121 2516.25 800.694 2524.35 809.344 2535.15 809.344 2536.05 809.344 2537.85 808.383 2539.65 808.383 2539.65 818.955 2548.65 828.567 2558.54 828.567 2560.34 828.567 2562.14 827.605 2563.04 827.605 2563.04 839.139 2572.04 848.75 2582.84 848.75 2583.74 848.75 2584.64 848.75 2584.64 848.75 2584.64 848.75 2584.64 849.712 2584.64 850.673 2584.64 862.206 2593.64 870.857 2604.44 870.857 2605.34 870.857 2606.24 870.857 2606.24 870.857 2606.24 871.818 2606.24 872.779 2606.24 873.74 2606.24 884.312 2615.23 893.924 2626.03 893.924 2625.13 895.846 2625.13 896.807 2625.13 897.768 2625.13 908.341 2633.23 917.952 2643.13 918.913 2642.23 920.836 2642.23 922.758 2642.23 924.68 2642.23 936.214 2650.33 945.825 2661.13 945.825 2661.13 947.747 2661.13 948.708 2661.13 950.631 2661.13 961.203 2668.33 969.854 2677.32 971.776 2676.42 973.698 2676.42 975.62 2676.42 978.504 2676.42 988.115 2683.62 996.765 2692.62 998.688 2691.72 1001.57 2690.82 1003.49 2690.82 1006.38 2690.82 1015.99 2697.12 1024.64 2706.12 1026.56 2704.32 1029.44 2703.42 1032.33 2703.42 1036.17 2703.42 1045.78 2709.72 1053.47 2717.82 1056.36 2716.02 1059.24 2715.12 1062.12 2715.12 1065.97 2715.12 1074.62 2720.52 1082.31 2727.72 1085.19 2725.02 1089.03 2724.12 1092.88 2724.12 1096.72 2724.12 1105.37 2728.62 1113.06 2735.81 1115.95 2733.11 1119.79 2732.22 1123.64 2732.22 1128.44 2732.22 1136.13 2736.71 1142.86 2743.01 1146.7 2740.31 1150.55 2738.51 1154.39 2738.51 1160.16 2738.51 1166.89 2742.11 1173.61 2748.41 1177.46 2744.81 1181.3 2743.01 1186.11 2743.01 1191.88 2743.01 1198.6 2746.61 1205.33 2752.01 1209.18 2748.41 1213.02 2746.61 1217.83 2746.61 1224.55 2746.61 1231.28 2749.31 1237.05 2753.81 1240.89 2749.31 1244.74 2747.51 1250.51 2747.51 1256.27 2747.51 1259.16 2747.51 1261.08 2748.41 1263 2760.11 1263 2760.11 1263 2760.11 1263 2760.11 1263 2759.21 1262.04 2759.21 1261.08 2758.31 1259.16 2758.31 1258.19 2758.31 1256.27 2758.31 1251.47 2761.91 1246.66 2766.41 1246.66 2771.81 1246.66 2775.41 1251.47 2775.41 1256.27 2775.41 1258.19 2775.41 1259.16 2774.51 1261.08 2774.51 1262.04 2773.61 1263 2773.61 1263 2785.31 1263 2785.31 1263 2785.31 1263 2786.21 1261.08 2786.21 1259.16 2786.21 1256.27 2786.21 1249.54 2783.51 1243.78 2779.01 1239.93Z" fill="#EC2C93" fill-rule="evenodd"/><path d="M2758.89 1256.28C2758.89 1251.48 2762.5 1246.67 2767 1246.67 2758.89 937.448 2521.98 686.802 2231.01 682 2231.01 687.762 2226.5 691.603 2222 691.603 2222 691.603 2222 691.603 2222 691.603 2222 703.127 2222 703.127 2222 703.127 2227.41 703.127 2232.81 700.246 2236.41 696.405 2240.02 701.207 2245.42 704.088 2251.73 704.088 2257.13 704.088 2262.54 702.167 2265.24 698.326 2268.84 704.088 2275.15 707.929 2282.36 707.929 2286.86 707.929 2292.26 705.048 2294.97 702.167 2298.57 707.929 2304.88 712.731 2312.08 712.731 2317.49 712.731 2321.99 709.85 2324.69 706.969 2328.3 713.691 2334.6 717.532 2342.71 717.532 2346.31 717.532 2350.82 716.572 2353.52 713.691 2357.12 721.374 2363.43 726.175 2371.54 726.175 2376.04 726.175 2379.64 725.215 2382.35 723.294 2385.95 730.017 2392.26 735.779 2400.36 735.779 2403.97 735.779 2407.57 734.818 2410.27 732.898 2412.98 741.54 2420.18 747.302 2429.19 747.302 2431.89 747.302 2435.5 746.342 2438.2 745.382 2440 754.025 2448.11 760.747 2456.21 760.747 2458.92 760.747 2461.62 759.787 2464.32 758.826 2466.12 768.43 2473.33 775.152 2483.24 775.152 2485.94 775.152 2487.74 775.152 2490.45 774.192 2492.25 783.795 2499.45 791.478 2509.36 791.478 2511.17 791.478 2513.87 790.517 2515.67 790.517 2516.57 801.081 2524.68 809.724 2535.49 809.724 2536.39 809.724 2538.19 808.764 2539.99 808.764 2539.99 819.327 2549 828.931 2558.91 828.931 2560.71 828.931 2562.51 827.97 2563.41 827.97 2563.41 839.494 2572.42 849.098 2583.23 849.098 2584.13 849.098 2585.03 849.098 2585.03 849.098 2585.03 849.098 2585.03 850.058 2585.03 851.018 2585.03 862.542 2594.04 871.185 2604.85 871.185 2605.75 871.185 2606.65 871.185 2606.65 871.185 2606.65 872.145 2606.65 873.106 2606.65 874.066 2606.65 884.63 2615.66 894.233 2626.47 894.233 2625.57 896.154 2625.57 897.114 2625.57 898.074 2625.57 908.638 2633.68 918.241 2643.59 919.202 2642.69 921.122 2642.69 923.043 2642.69 924.964 2642.69 936.488 2650.79 946.091 2661.6 946.091 2661.6 948.012 2661.6 948.972 2661.6 950.893 2661.6 961.456 2668.81 970.099 2677.82 972.02 2676.92 973.94 2676.92 975.861 2676.92 978.742 2676.92 988.345 2684.12 996.988 2693.13 998.909 2692.23 1001.79 2691.33 1003.71 2691.33 1006.59 2691.33 1016.2 2697.64 1024.84 2706.64 1026.76 2704.84 1029.64 2703.94 1032.52 2703.94 1036.36 2703.94 1045.97 2710.25 1053.65 2718.36 1056.53 2716.55 1059.41 2715.65 1062.29 2715.65 1066.13 2715.65 1074.78 2721.06 1082.46 2728.26 1085.34 2725.56 1089.18 2724.66 1093.02 2724.66 1096.86 2724.66 1105.51 2729.17 1113.19 2736.37 1116.07 2733.67 1119.91 2732.77 1123.75 2732.77 1128.55 2732.77 1136.24 2737.27 1142.96 2743.58 1146.8 2740.88 1150.64 2739.07 1154.48 2739.07 1160.24 2739.07 1166.97 2742.68 1173.69 2748.98 1177.53 2745.38 1181.37 2743.58 1186.17 2743.58 1191.94 2743.58 1198.66 2747.18 1205.38 2752.59 1209.22 2748.98 1213.06 2747.18 1217.86 2747.18 1224.59 2747.18 1231.31 2749.88 1237.07 2754.39 1240.91 2749.88 1244.75 2748.08 1250.52 2748.08 1256.28 2748.08 1259.16 2748.08 1261.08 2748.98 1263 2760.69 1263 2760.69 1263 2760.69 1263 2760.69 1263 2759.79 1262.04 2759.79 1261.08 2758.89 1259.16 2758.89 1258.2 2758.89 1256.28Z" fill="#F48AC3" fill-rule="evenodd"/><path d="M2232.82 695.963C2229.21 699.815 2226.51 702.704 2222 702.704 2222 702.704 2222 702.704 2222 702.704 2226.51 702.704 2230.12 703.667 2233.72 699.815 2237.33 704.63 2243.64 707.519 2249.05 707.519 2254.46 707.519 2258.97 705.593 2263.48 701.741 2267.09 707.519 2273.4 710.407 2279.71 710.407 2285.12 710.407 2288.73 708.482 2293.24 705.593 2296.85 711.37 2303.16 715.222 2310.38 715.222 2314.88 715.222 2318.49 713.296 2323 710.407 2326.61 717.148 2332.92 721 2340.13 721 2343.74 721 2347.35 719.074 2350.96 717.148 2354.56 724.852 2361.78 729.667 2369.89 729.667 2373.5 729.667 2377.11 727.741 2379.81 725.815 2383.42 733.519 2390.63 738.333 2398.75 738.333 2401.46 738.333 2405.06 737.37 2407.77 736.407 2411.38 745.074 2418.59 750.852 2427.61 750.852 2430.31 750.852 2432.12 749.889 2434.82 748.926 2438.43 757.593 2445.64 763.37 2454.66 763.37 2456.46 763.37 2459.17 762.407 2460.97 762.407 2463.68 772.037 2471.79 778.778 2481.71 778.778 2483.52 778.778 2485.32 777.815 2487.12 777.815 2489.83 787.444 2497.95 794.185 2507.87 794.185 2508.77 794.185 2510.57 794.185 2512.38 793.222 2514.18 803.815 2523.2 812.482 2533.12 812.482 2533.12 812.482 2534.92 812.482 2536.72 812.482 2537.62 823.074 2546.64 831.741 2557.46 831.741 2557.46 831.741 2558.37 831.741 2560.17 831.741 2561.07 843.296 2570.09 851.963 2580.91 851.963 2580.91 851.963 2581.81 851.963 2581.81 851.963 2581.81 864.482 2591.73 875.074 2603.46 875.074 2603.46 875.074 2603.46 875.074 2603.46 875.074 2603.46 875.074 2603.46 875.074 2603.46 875.074 2603.46 886.63 2611.57 896.259 2622.39 897.222 2622.39 898.185 2622.39 899.148 2622.39 899.148 2622.39 903 2622.39 903 2622.39 903 2626 902.037 2626 902.037 2626 902.037 2626 899.148 2626 899.148 2626 899.148 2626 894.333 2626 894.333 2626 894.333 2624.2 894.333 2624.2 894.333 2624.2 894.333 2615.18 893.37 2607.06 885.667 2607.06 875.074 2607.06 871.222 2607.06 871.222 2607.06 871.222 2605.26 871.222 2605.26 871.222 2605.26 871.222 2603.46 871.222 2603.46 871.222 2603.46 871.222 2593.54 871.222 2585.42 862.556 2585.42 851.963 2585.42 848.111 2585.42 848.111 2585.42 848.111 2583.62 848.111 2583.62 848.111 2583.62 848.111 2580.91 848.111 2580.91 848.111 2580.91 848.111 2570.99 848.111 2563.78 839.444 2563.78 828.852 2563.78 826.926 2563.78 826.926 2563.78 826.926 2561.07 827.889 2561.07 827.889 2561.07 827.889 2557.46 827.889 2557.46 827.889 2557.46 827.889 2547.54 827.889 2540.33 820.185 2539.43 809.593 2539.43 807.667 2539.43 807.667 2539.43 807.667 2537.62 807.667 2537.62 807.667 2537.62 807.667 2533.12 808.63 2533.12 808.63 2533.12 808.63 2524.1 808.63 2515.98 800.926 2515.98 791.296 2515.08 788.407 2515.08 788.407 2515.08 788.407 2513.28 789.37 2513.28 789.37 2513.28 789.37 2511.47 790.333 2509.67 790.333 2507.87 790.333 2498.85 790.333 2491.63 783.593 2489.83 774.926 2489.83 773 2489.83 773 2489.83 773 2487.12 773.963 2487.12 773.963 2487.12 773.963 2485.32 773.963 2483.52 774.926 2481.71 774.926 2472.7 774.926 2465.48 768.185 2463.68 759.519 2463.68 757.593 2463.68 757.593 2463.68 757.593 2460.97 757.593 2460.97 757.593 2460.97 757.593 2459.17 758.556 2457.37 759.519 2454.66 759.519 2446.54 759.519 2440.23 753.741 2437.53 746.037 2436.62 744.111 2436.62 744.111 2436.62 744.111 2434.82 745.074 2434.82 745.074 2434.82 745.074 2432.12 746.037 2430.31 747 2427.61 747 2419.49 747 2412.28 741.222 2410.47 733.519 2409.57 730.63 2409.57 730.63 2409.57 730.63 2407.77 732.556 2407.77 732.556 2407.77 732.556 2405.06 733.519 2401.46 734.482 2398.75 734.482 2391.54 734.482 2385.22 730.63 2382.52 722.926 2381.62 721 2381.62 721 2381.62 721 2379.81 721.963 2379.81 721.963 2379.81 721.963 2376.21 723.889 2373.5 725.815 2369.89 725.815 2362.68 725.815 2356.37 721 2353.66 714.259 2352.76 712.333 2352.76 712.333 2352.76 712.333 2350.96 713.296 2350.96 713.296 2350.96 713.296 2347.35 715.222 2343.74 717.148 2340.13 717.148 2333.82 717.148 2327.51 713.296 2324.8 707.519 2323.9 704.63 2323.9 704.63 2323.9 704.63 2322.1 706.556 2322.1 706.556 2322.1 706.556 2318.49 709.445 2313.98 711.37 2310.38 711.37 2304.06 711.37 2297.75 707.519 2295.04 701.741 2293.24 699.815 2293.24 699.815 2293.24 699.815 2292.34 701.741 2292.34 701.741 2292.34 701.741 2288.73 704.63 2284.22 706.556 2279.71 706.556 2274.3 706.556 2267.99 703.667 2265.29 697.889 2263.48 695.963 2263.48 695.963 2263.48 695.963 2262.58 697.889 2262.58 697.889 2262.58 697.889 2258.97 701.741 2254.46 703.667 2249.05 703.667 2243.64 703.667 2239.13 700.778 2235.53 695.963 2233.72 695 2233.72 695 2233.72 695L2232.82 695.963Z" fill="#FFFFFF" fill-rule="evenodd"/><path d="M2623 902.96C2624.8 912.56 2631.09 920.24 2640.07 922.16 2640.07 923.12 2639.18 925.04 2639.18 926 2639.18 938.48 2648.16 948.08 2658.95 949.04 2658.05 950.96 2658.05 952.88 2658.05 952.88 2658.05 962.48 2665.24 972.08 2674.22 974 2674.22 975.92 2674.22 977.84 2674.22 979.76 2674.22 990.32 2680.51 998.96 2689.5 1001.84 2688.6 1003.76 2688.6 1005.68 2688.6 1007.6 2688.6 1018.16 2693.99 1025.84 2702.98 1029.68 2702.08 1031.6 2701.18 1034.48 2701.18 1037.36 2701.18 1046.96 2706.57 1054.64 2714.66 1058.48 2712.86 1061.36 2711.97 1064.24 2711.97 1067.12 2711.97 1076.72 2717.36 1083.44 2724.55 1088.24 2722.75 1091.12 2721.85 1094.96 2721.85 1098.8 2721.85 1106.48 2725.45 1114.16 2732.64 1118 2730.84 1121.84 2729.04 1125.68 2729.04 1129.52 2729.04 1137.2 2733.53 1144.88 2739.82 1148.72 2737.13 1152.56 2736.23 1156.4 2736.23 1161.2 2736.23 1168.88 2739.82 1175.6 2745.22 1179.44 2742.52 1183.28 2740.72 1188.08 2740.72 1192.88 2740.72 1199.6 2743.42 1206.32 2748.81 1211.12 2745.22 1214.96 2743.42 1219.76 2743.42 1225.52 2743.42 1225.52 2743.42 1225.52 2743.42 1225.52 2743.42 1232.24 2746.11 1238 2750.61 1241.84 2747.01 1246.64 2747.01 1251.44 2747.01 1257.2 2747.01 1260.08 2747.01 1259.12 2747.91 1262 2747.91 1262 2747.91 1262 2747.91 1262 2747.01 1259.12 2747.91 1260.08 2747.91 1257.2 2747.91 1252.4 2750.61 1246.64 2754.2 1243.76 2756 1241.84 2756 1241.84 2756 1241.84 2754.2 1240.88 2754.2 1240.88 2754.2 1240.88 2749.71 1237.04 2747.01 1231.28 2747.01 1225.52 2747.01 1220.72 2748.81 1215.92 2752.41 1212.08 2754.2 1210.16 2754.2 1210.16 2754.2 1210.16 2752.41 1209.2 2752.41 1209.2 2752.41 1209.2 2747.01 1205.36 2744.32 1199.6 2744.32 1192.88 2744.32 1188.08 2746.11 1184.24 2748.81 1180.4 2749.71 1178.48 2749.71 1178.48 2749.71 1178.48 2747.91 1177.52 2747.91 1177.52 2747.91 1177.52 2742.52 1173.68 2739.82 1167.92 2739.82 1161.2 2739.82 1156.4 2740.72 1152.56 2743.42 1149.68 2744.32 1147.76 2744.32 1147.76 2744.32 1147.76 2742.52 1146.8 2742.52 1146.8 2742.52 1146.8 2736.23 1142.96 2732.64 1136.24 2732.64 1129.52 2732.64 1125.68 2733.53 1121.84 2736.23 1118.96 2737.13 1117.04 2737.13 1117.04 2737.13 1117.04 2735.33 1116.08 2735.33 1116.08 2735.33 1116.08 2729.04 1112.24 2725.45 1105.52 2725.45 1098.8 2725.45 1094.96 2726.34 1091.12 2728.14 1088.24 2729.04 1086.32 2729.04 1086.32 2729.04 1086.32 2727.24 1085.36 2727.24 1085.36 2727.24 1085.36 2720.05 1082.48 2715.56 1075.76 2715.56 1067.12 2715.56 1064.24 2716.46 1061.36 2718.26 1058.48 2719.16 1056.56 2719.16 1056.56 2719.16 1056.56 2717.36 1055.6 2717.36 1055.6 2717.36 1055.6 2710.17 1052.72 2704.78 1046 2704.78 1037.36 2704.78 1034.48 2705.68 1031.6 2706.57 1029.68 2707.47 1026.8 2707.47 1026.8 2707.47 1026.8 2705.68 1026.8 2705.68 1026.8 2705.68 1026.8 2697.59 1024.88 2692.2 1017.2 2692.2 1007.6 2692.2 1005.68 2692.2 1003.76 2693.09 1000.88 2693.99 998.96 2693.99 998.96 2693.99 998.96 2691.3 998.96 2691.3 998.96 2691.3 998.96 2683.21 997.04 2677.82 989.36 2677.82 979.76 2677.82 977.84 2677.82 975.92 2678.72 974 2678.72 971.12 2678.72 971.12 2678.72 971.12 2676.92 971.12 2676.92 971.12 2676.92 971.12 2667.93 970.16 2661.64 961.52 2661.64 952.88 2662.54 945.2 2662.54 945.2 2662.54 945.2 2660.74 945.2 2660.74 945.2 2660.74 945.2 2650.86 945.2 2642.77 936.56 2642.77 926 2642.77 924.08 2643.67 923.12 2643.67 921.2 2644.57 918.32 2644.57 918.32 2644.57 918.32 2642.77 918.32 2642.77 918.32 2642.77 918.32 2634.68 917.36 2627.49 910.64 2626.59 902L2623 902.96Z" fill="#FFFFFF" fill-rule="evenodd"/><path d="M0 0 39.9999 1.00003" stroke="#FFFFFF" stroke-width="5.72917" stroke-miterlimit="8" fill="none" fill-rule="evenodd" transform="matrix(-1 0 0 1 2817 1249)"/><path d="M2775 1216.82 2775.72 1232 2817 1228.12 2816.28 1214 2775 1216.82Z" stroke="#FFFFFF" stroke-width="5.72917" stroke-miterlimit="8" fill="none" fill-rule="evenodd"/><path d="M2771 1182.97 2772.83 1199 2812 1193.03 2810.17 1177 2771 1182.97Z" stroke="#FFFFFF" stroke-width="5.72917" stroke-miterlimit="8" fill="none" fill-rule="evenodd"/><path d="M2766 1149.73 2768.56 1165 2808 1156.27 2805.08 1141 2766 1149.73Z" stroke="#FFFFFF" stroke-width="5.72917" stroke-miterlimit="8" fill="none" fill-rule="evenodd"/><path d="M2759 1118.56 2762.57 1133 2800 1122.53 2796.43 1107 2759 1118.56Z" stroke="#FFFFFF" stroke-width="5.72917" stroke-miterlimit="8" fill="none" fill-rule="evenodd"/><path d="M2751 1086.97 2755.66 1101 2794 1089.08 2789.7 1074 2751 1086.97Z" stroke="#FFFFFF" stroke-width="5.72917" stroke-miterlimit="8" fill="none" fill-rule="evenodd"/><path d="M2740 1055.37 2745.34 1070 2782 1054.63 2776.66 1040 2740 1055.37Z" stroke="#FFFFFF" stroke-width="5.72917" stroke-miterlimit="8" fill="none" fill-rule="evenodd"/><path d="M2728 1023.3 2733.38 1037 2770 1020.42 2764.62 1006 2728 1023.3Z" stroke="#FFFFFF" stroke-width="5.72917" stroke-miterlimit="8" fill="none" fill-rule="evenodd"/><path d="M2716 992.966 2722.1 1006 2758 989.091 2751.9 975 2716 992.966Z" stroke="#FFFFFF" stroke-width="5.72917" stroke-miterlimit="8" fill="none" fill-rule="evenodd"/><path d="M2701 967.958 2708.3 980 2743 959.458 2735.7 946 2701 967.958Z" stroke="#FFFFFF" stroke-width="5.72917" stroke-miterlimit="8" fill="none" fill-rule="evenodd"/><path d="M2684 939.445 2692.2 953 2725 928.456 2717.16 916 2684 939.445Z" stroke="#FFFFFF" stroke-width="5.72917" stroke-miterlimit="8" fill="none" fill-rule="evenodd"/><path d="M2666 912.212 2675.07 925 2707 899.423 2698.66 887 2666 912.212Z" stroke="#FFFFFF" stroke-width="5.72917" stroke-miterlimit="8" fill="none" fill-rule="evenodd"/><path d="M2647 887.364 2656.84 899 2686 870.636 2676.89 859 2647 887.364Z" stroke="#FFFFFF" stroke-width="5.72917" stroke-miterlimit="8" fill="none" fill-rule="evenodd"/><path d="M0 0 0.999672 41.9999" stroke="#FFFFFF" stroke-width="5.72917" stroke-miterlimit="8" fill="none" fill-rule="evenodd" transform="matrix(1 0 0 -1 2229 674)"/><path d="M2245 674.925 2259.4 676 2263 634.075 2248.6 633 2245 674.925Z" stroke="#FFFFFF" stroke-width="5.72917" stroke-miterlimit="8" fill="none" fill-rule="evenodd"/><path d="M2277 677.854 2290.82 680 2296 638.862 2282.18 636 2277 677.854Z" stroke="#FFFFFF" stroke-width="5.72917" stroke-miterlimit="8" fill="none" fill-rule="evenodd"/><path d="M2306 682.073 2320.77 685 2330 642.927 2315.23 640 2306 682.073Z" stroke="#FFFFFF" stroke-width="5.72917" stroke-miterlimit="8" fill="none" fill-rule="evenodd"/><path d="M2338 685.4 2351.45 689 2361 647.96 2347.91 644 2338 685.4Z" stroke="#FFFFFF" stroke-width="5.72917" stroke-miterlimit="8" fill="none" fill-rule="evenodd"/><path d="M2368 697.4 2381.36 701 2394 660.68 2379.56 656 2368 697.4Z" stroke="#FFFFFF" stroke-width="5.72917" stroke-miterlimit="8" fill="none" fill-rule="evenodd"/><path d="M2397 705.24 2410.64 711 2425 671.76 2411.36 666 2397 705.24Z" stroke="#FFFFFF" stroke-width="5.72917" stroke-miterlimit="8" fill="none" fill-rule="evenodd"/><path d="M2426 716.24 2439.77 722 2455 682.76 2441.59 677 2426 716.24Z" stroke="#FFFFFF" stroke-width="5.72917" stroke-miterlimit="8" fill="none" fill-rule="evenodd"/><path d="M2455 729.229 2468.73 735 2485 696.77 2472.35 691 2455 729.229Z" stroke="#FFFFFF" stroke-width="5.72917" stroke-miterlimit="8" fill="none" fill-rule="evenodd"/><path d="M2481 744.13 2493.55 752 2514 715.512 2501.45 708 2481 744.13Z" stroke="#FFFFFF" stroke-width="5.72917" stroke-miterlimit="8" fill="none" fill-rule="evenodd"/><path d="M2507 759.475 2519.53 767 2541 731.883 2528.47 724 2507 759.475Z" stroke="#FFFFFF" stroke-width="5.72917" stroke-miterlimit="8" fill="none" fill-rule="evenodd"/><path d="M2628 861.571 2638.11 873 2667 844.429 2656.89 833 2628 861.571Z" stroke="#FFFFFF" stroke-width="5.72917" stroke-miterlimit="8" fill="none" fill-rule="evenodd"/><path d="M2605 838.643 2615.11 849 2644 819.357 2633.89 809 2605 838.643Z" stroke="#FFFFFF" stroke-width="5.72917" stroke-miterlimit="8" fill="none" fill-rule="evenodd"/><path d="M2584 817.161 2595.61 827 2621 793.839 2609.39 784 2584 817.161Z" stroke="#FFFFFF" stroke-width="5.72917" stroke-miterlimit="8" fill="none" fill-rule="evenodd"/><path d="M2560 795.467 2570.8 805 2596 770.9 2584.48 761 2560 795.467Z" stroke="#FFFFFF" stroke-width="5.72917" stroke-miterlimit="8" fill="none" fill-rule="evenodd"/><path d="M2535 775.4 2546.55 784 2570 750.675 2558.45 741 2535 775.4Z" stroke="#FFFFFF" stroke-width="5.72917" stroke-miterlimit="8" fill="none" fill-rule="evenodd"/><path d="M2796.5 1263.5C2796.5 926.276 2538.79 651.5 2222.5 651.5" stroke="#F47DBD" stroke-width="11.4583" stroke-miterlimit="8" fill="none" fill-rule="evenodd"/><path d="M2779.69 1263.5C2781.5 1261.59 2781.5 1259.67 2781.5 1256.8 2781.5 1248.2 2775.18 1241.5 2767.05 1241.5 2759.82 1241.5 2753.5 1248.2 2753.5 1256.8 2753.5 1259.67 2753.5 1261.59 2755.31 1263.5" stroke="#333333" stroke-width="2.86476" stroke-miterlimit="8" fill="#FFFA8E" fill-rule="evenodd"/><path d="M2779.69 1263.5C2781.5 1261.59 2781.5 1259.67 2781.5 1256.8 2781.5 1248.2 2775.18 1241.5 2767.05 1241.5 2759.82 1241.5 2753.5 1248.2 2753.5 1256.8 2753.5 1259.67 2753.5 1261.59 2755.31 1263.5" stroke="#333333" stroke-width="2.86476" stroke-miterlimit="8" fill="none" fill-rule="evenodd"/><path d="M2752.5 1224.5C2752.5 1216.22 2758.77 1209.5 2766.5 1209.5 2774.23 1209.5 2780.5 1216.22 2780.5 1224.5 2780.5 1232.78 2774.23 1239.5 2766.5 1239.5 2758.77 1239.5 2752.5 1232.78 2752.5 1224.5Z" stroke="#333333" stroke-width="2.86476" stroke-miterlimit="8" fill="#FFFA8E" fill-rule="evenodd"/><path d="M2749.5 1191.5C2749.5 1183.22 2755.99 1176.5 2764 1176.5 2772.01 1176.5 2778.5 1183.22 2778.5 1191.5 2778.5 1199.78 2772.01 1206.5 2764 1206.5 2755.99 1206.5 2749.5 1199.78 2749.5 1191.5Z" stroke="#333333" stroke-width="2.86476" stroke-miterlimit="8" fill="#FFFA8E" fill-rule="evenodd"/><path d="M2744.5 1160C2744.5 1151.99 2750.99 1145.5 2759 1145.5 2767.01 1145.5 2773.5 1151.99 2773.5 1160 2773.5 1168.01 2767.01 1174.5 2759 1174.5 2750.99 1174.5 2744.5 1168.01 2744.5 1160Z" stroke="#333333" stroke-width="2.86476" stroke-miterlimit="8" fill="#FFFA8E" fill-rule="evenodd"/><path d="M2738.5 1128.5C2738.5 1120.22 2744.77 1113.5 2752.5 1113.5 2760.23 1113.5 2766.5 1120.22 2766.5 1128.5 2766.5 1136.78 2760.23 1143.5 2752.5 1143.5 2744.77 1143.5 2738.5 1136.78 2738.5 1128.5Z" stroke="#333333" stroke-width="2.86476" stroke-miterlimit="8" fill="#FFFA8E" fill-rule="evenodd"/><path d="M2730.5 1097.5C2730.5 1089.22 2736.99 1082.5 2745 1082.5 2753.01 1082.5 2759.5 1089.22 2759.5 1097.5 2759.5 1105.78 2753.01 1112.5 2745 1112.5 2736.99 1112.5 2730.5 1105.78 2730.5 1097.5Z" stroke="#333333" stroke-width="2.86476" stroke-miterlimit="8" fill="#FFFA8E" fill-rule="evenodd"/><path d="M2721.5 1066.5C2721.5 1058.22 2727.99 1051.5 2736 1051.5 2744.01 1051.5 2750.5 1058.22 2750.5 1066.5 2750.5 1074.78 2744.01 1081.5 2736 1081.5 2727.99 1081.5 2721.5 1074.78 2721.5 1066.5Z" stroke="#333333" stroke-width="2.86476" stroke-miterlimit="8" fill="#FFFA8E" fill-rule="evenodd"/><path d="M2709.5 1037C2709.5 1028.44 2715.99 1021.5 2724 1021.5 2732.01 1021.5 2738.5 1028.44 2738.5 1037 2738.5 1045.56 2732.01 1052.5 2724 1052.5 2715.99 1052.5 2709.5 1045.56 2709.5 1037Z" stroke="#333333" stroke-width="2.86476" stroke-miterlimit="8" fill="#FFFA8E" fill-rule="evenodd"/><path d="M2696.5 1007C2696.5 998.44 2702.99 991.5 2711 991.5 2719.01 991.5 2725.5 998.44 2725.5 1007 2725.5 1015.56 2719.01 1022.5 2711 1022.5 2702.99 1022.5 2696.5 1015.56 2696.5 1007Z" stroke="#333333" stroke-width="2.86476" stroke-miterlimit="8" fill="#FFFA8E" fill-rule="evenodd"/><path d="M2682.5 979C2682.5 970.44 2688.99 963.5 2697 963.5 2705.01 963.5 2711.5 970.44 2711.5 979 2711.5 987.56 2705.01 994.5 2697 994.5 2688.99 994.5 2682.5 987.56 2682.5 979Z" stroke="#333333" stroke-width="2.86476" stroke-miterlimit="8" fill="#FFFA8E" fill-rule="evenodd"/><path d="M2667.5 951C2667.5 942.439 2673.77 935.5 2681.5 935.5 2689.23 935.5 2695.5 942.439 2695.5 951 2695.5 959.56 2689.23 966.5 2681.5 966.5 2673.77 966.5 2667.5 959.56 2667.5 951Z" stroke="#333333" stroke-width="2.86476" stroke-miterlimit="8" fill="#FFFA8E" fill-rule="evenodd"/><path d="M2648.5 925C2648.5 916.44 2654.77 909.5 2662.5 909.5 2670.23 909.5 2676.5 916.44 2676.5 925 2676.5 933.56 2670.23 940.5 2662.5 940.5 2654.77 940.5 2648.5 933.56 2648.5 925Z" stroke="#333333" stroke-width="2.86476" stroke-miterlimit="8" fill="#FFFA8E" fill-rule="evenodd"/><path d="M2631.5 898C2631.5 889.439 2637.99 882.5 2646 882.5 2654.01 882.5 2660.5 889.439 2660.5 898 2660.5 906.56 2654.01 913.5 2646 913.5 2637.99 913.5 2631.5 906.56 2631.5 898Z" stroke="#333333" stroke-width="2.86476" stroke-miterlimit="8" fill="#FFFA8E" fill-rule="evenodd"/><path d="M2612.5 874C2612.5 865.992 2618.99 859.5 2627 859.5 2635.01 859.5 2641.5 865.992 2641.5 874 2641.5 882.008 2635.01 888.5 2627 888.5 2618.99 888.5 2612.5 882.008 2612.5 874Z" stroke="#333333" stroke-width="2.86476" stroke-miterlimit="8" fill="#FFFA8E" fill-rule="evenodd"/><path d="M2590.5 851C2590.5 842.992 2596.99 836.5 2605 836.5 2613.01 836.5 2619.5 842.992 2619.5 851 2619.5 859.008 2613.01 865.5 2605 865.5 2596.99 865.5 2590.5 859.008 2590.5 851Z" stroke="#333333" stroke-width="2.86476" stroke-miterlimit="8" fill="#FFFA8E" fill-rule="evenodd"/><path d="M2569.5 828C2569.5 819.44 2575.77 812.5 2583.5 812.5 2591.23 812.5 2597.5 819.44 2597.5 828 2597.5 836.56 2591.23 843.5 2583.5 843.5 2575.77 843.5 2569.5 836.56 2569.5 828Z" stroke="#333333" stroke-width="2.86476" stroke-miterlimit="8" fill="#FFFA8E" fill-rule="evenodd"/><path d="M2545.5 808C2545.5 799.439 2551.77 792.5 2559.5 792.5 2567.23 792.5 2573.5 799.439 2573.5 808 2573.5 816.56 2567.23 823.5 2559.5 823.5 2551.77 823.5 2545.5 816.56 2545.5 808Z" stroke="#333333" stroke-width="2.86476" stroke-miterlimit="8" fill="#FFFA8E" fill-rule="evenodd"/><path d="M2521.5 789C2521.5 780.44 2527.99 773.5 2536 773.5 2544.01 773.5 2550.5 780.44 2550.5 789 2550.5 797.56 2544.01 804.5 2536 804.5 2527.99 804.5 2521.5 797.56 2521.5 789Z" stroke="#333333" stroke-width="2.86476" stroke-miterlimit="8" fill="#FFFA8E" fill-rule="evenodd"/><path d="M2495.5 770.5C2495.5 762.216 2501.77 755.5 2509.5 755.5 2517.23 755.5 2523.5 762.216 2523.5 770.5 2523.5 778.784 2517.23 785.5 2509.5 785.5 2501.77 785.5 2495.5 778.784 2495.5 770.5Z" stroke="#333333" stroke-width="2.86476" stroke-miterlimit="8" fill="#FFFA8E" fill-rule="evenodd"/><path d="M2469.5 754.5C2469.5 746.216 2475.99 739.5 2484 739.5 2492.01 739.5 2498.5 746.216 2498.5 754.5 2498.5 762.784 2492.01 769.5 2484 769.5 2475.99 769.5 2469.5 762.784 2469.5 754.5Z" stroke="#333333" stroke-width="2.86476" stroke-miterlimit="8" fill="#FFFA8E" fill-rule="evenodd"/><path d="M2442.5 740C2442.5 731.44 2448.77 724.5 2456.5 724.5 2464.23 724.5 2470.5 731.44 2470.5 740 2470.5 748.56 2464.23 755.5 2456.5 755.5 2448.77 755.5 2442.5 748.56 2442.5 740Z" stroke="#333333" stroke-width="2.86476" stroke-miterlimit="8" fill="#FFFA8E" fill-rule="evenodd"/><path d="M2415.5 727C2415.5 718.992 2421.77 712.5 2429.5 712.5 2437.23 712.5 2443.5 718.992 2443.5 727 2443.5 735.008 2437.23 741.5 2429.5 741.5 2421.77 741.5 2415.5 735.008 2415.5 727Z" stroke="#333333" stroke-width="2.86476" stroke-miterlimit="8" fill="#FFFA8E" fill-rule="evenodd"/><path d="M2386.5 715C2386.5 706.44 2392.99 699.5 2401 699.5 2409.01 699.5 2415.5 706.44 2415.5 715 2415.5 723.56 2409.01 730.5 2401 730.5 2392.99 730.5 2386.5 723.56 2386.5 715Z" stroke="#333333" stroke-width="2.86476" stroke-miterlimit="8" fill="#FFFA8E" fill-rule="evenodd"/><path d="M2357.5 705.5C2357.5 697.216 2363.99 690.5 2372 690.5 2380.01 690.5 2386.5 697.216 2386.5 705.5 2386.5 713.784 2380.01 720.5 2372 720.5 2363.99 720.5 2357.5 713.784 2357.5 705.5Z" stroke="#333333" stroke-width="2.86476" stroke-miterlimit="8" fill="#FFFA8E" fill-rule="evenodd"/><path d="M2328.5 697.5C2328.5 689.216 2334.77 682.5 2342.5 682.5 2350.23 682.5 2356.5 689.216 2356.5 697.5 2356.5 705.784 2350.23 712.5 2342.5 712.5 2334.77 712.5 2328.5 705.784 2328.5 697.5Z" stroke="#333333" stroke-width="2.86476" stroke-miterlimit="8" fill="#FFFA8E" fill-rule="evenodd"/><path d="M2297.5 692C2297.5 683.44 2303.99 676.5 2312 676.5 2320.01 676.5 2326.5 683.44 2326.5 692 2326.5 700.56 2320.01 707.5 2312 707.5 2303.99 707.5 2297.5 700.56 2297.5 692Z" stroke="#333333" stroke-width="2.86476" stroke-miterlimit="8" fill="#FFFA8E" fill-rule="evenodd"/><path d="M2268.5 687C2268.5 678.439 2274.77 671.5 2282.5 671.5 2290.23 671.5 2296.5 678.439 2296.5 687 2296.5 695.56 2290.23 702.5 2282.5 702.5 2274.77 702.5 2268.5 695.56 2268.5 687Z" stroke="#333333" stroke-width="2.86476" stroke-miterlimit="8" fill="#FFFA8E" fill-rule="evenodd"/><path d="M2237.5 683.5C2237.5 675.216 2243.99 668.5 2252 668.5 2260.01 668.5 2266.5 675.216 2266.5 683.5 2266.5 691.784 2260.01 698.5 2252 698.5 2243.99 698.5 2237.5 691.784 2237.5 683.5Z" stroke="#333333" stroke-width="2.86476" stroke-miterlimit="8" fill="#FFFA8E" fill-rule="evenodd"/><path d="M2222.5 697.5C2222.5 697.5 2222.5 697.5 2222.5 697.5 2230.37 697.5 2236.5 690.719 2236.5 682 2236.5 673.281 2230.37 666.5 2222.5 666.5 2222.5 666.5 2222.5 666.5 2222.5 666.5" stroke="#333333" stroke-width="2.86476" stroke-miterlimit="8" fill="#FFFA8E" fill-rule="evenodd"/><path d="M2222.5 697.5C2222.5 697.5 2222.5 697.5 2222.5 697.5 2230.37 697.5 2236.5 690.719 2236.5 682 2236.5 673.281 2230.37 666.5 2222.5 666.5 2222.5 666.5 2222.5 666.5 2222.5 666.5" stroke="#333333" stroke-width="2.86476" stroke-miterlimit="8" fill="none" fill-rule="evenodd"/><path d="M2835.95 1263.5C2838.68 1260.61 2840.5 1256.75 2840.5 1252.89 2840.5 1244.21 2834.14 1236.5 2825.95 1236.5 2817.77 1236.5 2810.5 1244.21 2810.5 1252.89 2810.5 1256.75 2812.32 1260.61 2815.05 1263.5" stroke="#333333" stroke-width="2.86476" stroke-miterlimit="8" fill="#FFFA8E" fill-rule="evenodd"/><path d="M2835.95 1263.5C2838.68 1260.61 2840.5 1256.75 2840.5 1252.89 2840.5 1244.21 2834.14 1236.5 2825.95 1236.5 2817.77 1236.5 2810.5 1244.21 2810.5 1252.89 2810.5 1256.75 2812.32 1260.61 2815.05 1263.5" stroke="#333333" stroke-width="2.86476" stroke-miterlimit="8" fill="none" fill-rule="evenodd"/><path d="M2809.5 1217.5C2809.5 1208.66 2816.22 1201.5 2824.5 1201.5 2832.78 1201.5 2839.5 1208.66 2839.5 1217.5 2839.5 1226.34 2832.78 1233.5 2824.5 1233.5 2816.22 1233.5 2809.5 1226.34 2809.5 1217.5Z" stroke="#333333" stroke-width="2.86476" stroke-miterlimit="8" fill="#FFFA8E" fill-rule="evenodd"/><path d="M2806.5 1181C2806.5 1172.44 2812.99 1165.5 2821 1165.5 2829.01 1165.5 2835.5 1172.44 2835.5 1181 2835.5 1189.56 2829.01 1196.5 2821 1196.5 2812.99 1196.5 2806.5 1189.56 2806.5 1181Z" stroke="#333333" stroke-width="2.86476" stroke-miterlimit="8" fill="#FFFA8E" fill-rule="evenodd"/><path d="M2801.5 1146.5C2801.5 1137.66 2808.22 1130.5 2816.5 1130.5 2824.78 1130.5 2831.5 1137.66 2831.5 1146.5 2831.5 1155.34 2824.78 1162.5 2816.5 1162.5 2808.22 1162.5 2801.5 1155.34 2801.5 1146.5Z" stroke="#333333" stroke-width="2.86476" stroke-miterlimit="8" fill="#FFFA8E" fill-rule="evenodd"/><path d="M2794.5 1112C2794.5 1103.44 2801.22 1096.5 2809.5 1096.5 2817.78 1096.5 2824.5 1103.44 2824.5 1112 2824.5 1120.56 2817.78 1127.5 2809.5 1127.5 2801.22 1127.5 2794.5 1120.56 2794.5 1112Z" stroke="#333333" stroke-width="2.86476" stroke-miterlimit="8" fill="#FFFA8E" fill-rule="evenodd"/><path d="M2785.5 1077.5C2785.5 1068.66 2792.22 1061.5 2800.5 1061.5 2808.78 1061.5 2815.5 1068.66 2815.5 1077.5 2815.5 1086.34 2808.78 1093.5 2800.5 1093.5 2792.22 1093.5 2785.5 1086.34 2785.5 1077.5Z" stroke="#333333" stroke-width="2.86476" stroke-miterlimit="8" fill="#FFFA8E" fill-rule="evenodd"/><path d="M2775.5 1044C2775.5 1035.44 2782.22 1028.5 2790.5 1028.5 2798.78 1028.5 2805.5 1035.44 2805.5 1044 2805.5 1052.56 2798.78 1059.5 2790.5 1059.5 2782.22 1059.5 2775.5 1052.56 2775.5 1044Z" stroke="#333333" stroke-width="2.86476" stroke-miterlimit="8" fill="#FFFA8E" fill-rule="evenodd"/><path d="M2762.5 1010.5C2762.5 1001.66 2769.22 994.5 2777.5 994.5 2785.78 994.5 2792.5 1001.66 2792.5 1010.5 2792.5 1019.34 2785.78 1026.5 2777.5 1026.5 2769.22 1026.5 2762.5 1019.34 2762.5 1010.5Z" stroke="#333333" stroke-width="2.86476" stroke-miterlimit="8" fill="#FFFA8E" fill-rule="evenodd"/><path d="M2748.5 977.5C2748.5 968.663 2755.22 961.5 2763.5 961.5 2771.78 961.5 2778.5 968.663 2778.5 977.5 2778.5 986.336 2771.78 993.5 2763.5 993.5 2755.22 993.5 2748.5 986.336 2748.5 977.5Z" stroke="#333333" stroke-width="2.86476" stroke-miterlimit="8" fill="#FFFA8E" fill-rule="evenodd"/><path d="M2733.5 947C2733.5 938.44 2739.99 931.5 2748 931.5 2756.01 931.5 2762.5 938.44 2762.5 947 2762.5 955.56 2756.01 962.5 2748 962.5 2739.99 962.5 2733.5 955.56 2733.5 947Z" stroke="#333333" stroke-width="2.86476" stroke-miterlimit="8" fill="#FFFA8E" fill-rule="evenodd"/><path d="M2716.5 917C2716.5 908.44 2722.99 901.5 2731 901.5 2739.01 901.5 2745.5 908.44 2745.5 917 2745.5 925.561 2739.01 932.5 2731 932.5 2722.99 932.5 2716.5 925.561 2716.5 917Z" stroke="#333333" stroke-width="2.86476" stroke-miterlimit="8" fill="#FFFA8E" fill-rule="evenodd"/><path d="M2695.5 888.5C2695.5 879.663 2702.22 872.5 2710.5 872.5 2718.78 872.5 2725.5 879.663 2725.5 888.5 2725.5 897.336 2718.78 904.5 2710.5 904.5 2702.22 904.5 2695.5 897.336 2695.5 888.5Z" stroke="#333333" stroke-width="2.86476" stroke-miterlimit="8" fill="#FFFA8E" fill-rule="evenodd"/><path d="M2676.5 858.5C2676.5 849.664 2682.99 842.5 2691 842.5 2699.01 842.5 2705.5 849.664 2705.5 858.5 2705.5 867.337 2699.01 874.5 2691 874.5 2682.99 874.5 2676.5 867.337 2676.5 858.5Z" stroke="#333333" stroke-width="2.86476" stroke-miterlimit="8" fill="#FFFA8E" fill-rule="evenodd"/><path d="M2655.5 831.5C2655.5 822.663 2662.22 815.5 2670.5 815.5 2678.78 815.5 2685.5 822.663 2685.5 831.5 2685.5 840.336 2678.78 847.5 2670.5 847.5 2662.22 847.5 2655.5 840.336 2655.5 831.5Z" stroke="#333333" stroke-width="2.86476" stroke-miterlimit="8" fill="#FFFA8E" fill-rule="evenodd"/><path d="M2632.5 806.5C2632.5 797.664 2639.22 790.5 2647.5 790.5 2655.78 790.5 2662.5 797.664 2662.5 806.5 2662.5 815.337 2655.78 822.5 2647.5 822.5 2639.22 822.5 2632.5 815.337 2632.5 806.5Z" stroke="#333333" stroke-width="2.86476" stroke-miterlimit="8" fill="#FFFA8E" fill-rule="evenodd"/><path d="M2607.5 781.5C2607.5 772.664 2614.22 765.5 2622.5 765.5 2630.78 765.5 2637.5 772.664 2637.5 781.5 2637.5 790.337 2630.78 797.5 2622.5 797.5 2614.22 797.5 2607.5 790.337 2607.5 781.5Z" stroke="#333333" stroke-width="2.86476" stroke-miterlimit="8" fill="#FFFA8E" fill-rule="evenodd"/><path d="M2581.5 758.5C2581.5 749.663 2588.22 742.5 2596.5 742.5 2604.78 742.5 2611.5 749.663 2611.5 758.5 2611.5 767.337 2604.78 774.5 2596.5 774.5 2588.22 774.5 2581.5 767.337 2581.5 758.5Z" stroke="#333333" stroke-width="2.86476" stroke-miterlimit="8" fill="#FFFA8E" fill-rule="evenodd"/><path d="M2555.5 737.5C2555.5 728.664 2562.22 721.5 2570.5 721.5 2578.78 721.5 2585.5 728.664 2585.5 737.5 2585.5 746.337 2578.78 753.5 2570.5 753.5 2562.22 753.5 2555.5 746.337 2555.5 737.5Z" stroke="#333333" stroke-width="2.86476" stroke-miterlimit="8" fill="#FFFA8E" fill-rule="evenodd"/><path d="M2526.5 718.5C2526.5 709.664 2533.22 702.5 2541.5 702.5 2549.78 702.5 2556.5 709.664 2556.5 718.5 2556.5 727.337 2549.78 734.5 2541.5 734.5 2533.22 734.5 2526.5 727.337 2526.5 718.5Z" stroke="#333333" stroke-width="2.86476" stroke-miterlimit="8" fill="#FFFA8E" fill-rule="evenodd"/><path d="M2498.5 701C2498.5 692.44 2504.99 685.5 2513 685.5 2521.01 685.5 2527.5 692.44 2527.5 701 2527.5 709.56 2521.01 716.5 2513 716.5 2504.99 716.5 2498.5 709.56 2498.5 701Z" stroke="#333333" stroke-width="2.86476" stroke-miterlimit="8" fill="#FFFA8E" fill-rule="evenodd"/><path d="M2469.5 683.5C2469.5 674.664 2475.99 667.5 2484 667.5 2492.01 667.5 2498.5 674.664 2498.5 683.5 2498.5 692.337 2492.01 699.5 2484 699.5 2475.99 699.5 2469.5 692.337 2469.5 683.5Z" stroke="#333333" stroke-width="2.86476" stroke-miterlimit="8" fill="#FFFA8E" fill-rule="evenodd"/><path d="M2438.5 670.5C2438.5 661.663 2445.22 654.5 2453.5 654.5 2461.78 654.5 2468.5 661.663 2468.5 670.5 2468.5 679.337 2461.78 686.5 2453.5 686.5 2445.22 686.5 2438.5 679.337 2438.5 670.5Z" stroke="#333333" stroke-width="2.86476" stroke-miterlimit="8" fill="#FFFA8E" fill-rule="evenodd"/><path d="M2407.5 656.5C2407.5 647.663 2414.22 640.5 2422.5 640.5 2430.78 640.5 2437.5 647.663 2437.5 656.5 2437.5 665.336 2430.78 672.5 2422.5 672.5 2414.22 672.5 2407.5 665.336 2407.5 656.5Z" stroke="#333333" stroke-width="2.86476" stroke-miterlimit="8" fill="#FFFA8E" fill-rule="evenodd"/><path d="M2375.5 646.5C2375.5 637.663 2382.22 630.5 2390.5 630.5 2398.78 630.5 2405.5 637.663 2405.5 646.5 2405.5 655.336 2398.78 662.5 2390.5 662.5 2382.22 662.5 2375.5 655.336 2375.5 646.5Z" stroke="#333333" stroke-width="2.86476" stroke-miterlimit="8" fill="#FFFA8E" fill-rule="evenodd"/><path d="M2343.5 637.5C2343.5 628.663 2349.99 621.5 2358 621.5 2366.01 621.5 2372.5 628.663 2372.5 637.5 2372.5 646.337 2366.01 653.5 2358 653.5 2349.99 653.5 2343.5 646.337 2343.5 637.5Z" stroke="#333333" stroke-width="2.86476" stroke-miterlimit="8" fill="#FFFA8E" fill-rule="evenodd"/><path d="M2309.5 630.5C2309.5 621.664 2316.22 614.5 2324.5 614.5 2332.78 614.5 2339.5 621.664 2339.5 630.5 2339.5 639.337 2332.78 646.5 2324.5 646.5 2316.22 646.5 2309.5 639.337 2309.5 630.5Z" stroke="#333333" stroke-width="2.86476" stroke-miterlimit="8" fill="#FFFA8E" fill-rule="evenodd"/><path d="M2277.5 626C2277.5 617.44 2283.99 610.5 2292 610.5 2300.01 610.5 2306.5 617.44 2306.5 626 2306.5 634.56 2300.01 641.5 2292 641.5 2283.99 641.5 2277.5 634.56 2277.5 626Z" stroke="#333333" stroke-width="2.86476" stroke-miterlimit="8" fill="#FFFA8E" fill-rule="evenodd"/><path d="M2242.5 622C2242.5 613.44 2249.22 606.5 2257.5 606.5 2265.78 606.5 2272.5 613.44 2272.5 622 2272.5 630.561 2265.78 637.5 2257.5 637.5 2249.22 637.5 2242.5 630.561 2242.5 622Z" stroke="#333333" stroke-width="2.86476" stroke-miterlimit="8" fill="#FFFA8E" fill-rule="evenodd"/><path d="M2222.5 636.53C2223.4 637.5 2224.3 637.5 2226.1 637.5 2234.2 637.5 2240.5 629.742 2240.5 621.015 2240.5 612.288 2234.2 605.5 2226.1 605.5 2224.3 605.5 2223.4 605.5 2222.5 605.5" stroke="#333333" stroke-width="2.86476" stroke-miterlimit="8" fill="#FFFA8E" fill-rule="evenodd"/><path d="M2222.5 636.53C2223.4 637.5 2224.3 637.5 2226.1 637.5 2234.2 637.5 2240.5 629.742 2240.5 621.015 2240.5 612.288 2234.2 605.5 2226.1 605.5 2224.3 605.5 2223.4 605.5 2222.5 605.5" stroke="#333333" stroke-width="2.86476" stroke-miterlimit="8" fill="none" fill-rule="evenodd"/><path d="M2250 617C2250 613.686 2252.24 611 2255 611 2257.76 611 2260 613.686 2260 617 2260 620.314 2257.76 623 2255 623 2252.24 623 2250 620.314 2250 617Z" fill="#FFFFFF" fill-rule="evenodd"/><path d="M2282 621C2282 617.686 2284.46 615 2287.5 615 2290.54 615 2293 617.686 2293 621 2293 624.314 2290.54 627 2287.5 627 2284.46 627 2282 624.314 2282 621Z" fill="#FFFFFF" fill-rule="evenodd"/><path d="M2315 627C2315 623.686 2317.46 621 2320.5 621 2323.54 621 2326 623.686 2326 627 2326 630.314 2323.54 633 2320.5 633 2317.46 633 2315 630.314 2315 627Z" fill="#FFFFFF" fill-rule="evenodd"/><path d="M2273 683C2273 679.686 2275.46 677 2278.5 677 2281.54 677 2284 679.686 2284 683 2284 686.314 2281.54 689 2278.5 689 2275.46 689 2273 686.314 2273 683Z" fill="#FFFFFF" fill-rule="evenodd"/><path d="M2241 680.5C2241 677.463 2243.24 675 2246 675 2248.76 675 2251 677.463 2251 680.5 2251 683.538 2248.76 686 2246 686 2243.24 686 2241 683.538 2241 680.5Z" fill="#FFFFFF" fill-rule="evenodd"/><path d="M2304 687.5C2304 684.462 2306.24 682 2309 682 2311.76 682 2314 684.462 2314 687.5 2314 690.538 2311.76 693 2309 693 2306.24 693 2304 690.538 2304 687.5Z" fill="#FFFFFF" fill-rule="evenodd"/><path d="M2332 693C2332 689.686 2334.46 687 2337.5 687 2340.54 687 2343 689.686 2343 693 2343 696.314 2340.54 699 2337.5 699 2334.46 699 2332 696.314 2332 693Z" fill="#FFFFFF" fill-rule="evenodd"/><path d="M2363 702C2363 698.686 2365.46 696 2368.5 696 2371.54 696 2374 698.686 2374 702 2374 705.314 2371.54 708 2368.5 708 2365.46 708 2363 705.314 2363 702Z" fill="#FFFFFF" fill-rule="evenodd"/><path d="M2393 710.5C2393 707.463 2395.46 705 2398.5 705 2401.54 705 2404 707.463 2404 710.5 2404 713.538 2401.54 716 2398.5 716 2395.46 716 2393 713.538 2393 710.5Z" fill="#FFFFFF" fill-rule="evenodd"/><path d="M2350 632.5C2350 629.462 2352.46 627 2355.5 627 2358.54 627 2361 629.462 2361 632.5 2361 635.538 2358.54 638 2355.5 638 2352.46 638 2350 635.538 2350 632.5Z" fill="#FFFFFF" fill-rule="evenodd"/><path d="M2381 641.5C2381 638.462 2383.46 636 2386.5 636 2389.54 636 2392 638.462 2392 641.5 2392 644.537 2389.54 647 2386.5 647 2383.46 647 2381 644.537 2381 641.5Z" fill="#FFFFFF" fill-rule="evenodd"/><path d="M2413 651C2413 647.686 2415.46 645 2418.5 645 2421.54 645 2424 647.686 2424 651 2424 654.314 2421.54 657 2418.5 657 2415.46 657 2413 654.314 2413 651Z" fill="#FFFFFF" fill-rule="evenodd"/><path d="M2444 664.5C2444 661.462 2446.46 659 2449.5 659 2452.54 659 2455 661.462 2455 664.5 2455 667.537 2452.54 670 2449.5 670 2446.46 670 2444 667.537 2444 664.5Z" fill="#FFFFFF" fill-rule="evenodd"/><path d="M2476 680C2476 676.686 2478.46 674 2481.5 674 2484.54 674 2487 676.686 2487 680 2487 683.314 2484.54 686 2481.5 686 2478.46 686 2476 683.314 2476 680Z" fill="#FFFFFF" fill-rule="evenodd"/><path d="M2504 696C2504 692.686 2506.24 690 2509 690 2511.76 690 2514 692.686 2514 696 2514 699.314 2511.76 702 2509 702 2506.24 702 2504 699.314 2504 696Z" fill="#FFFFFF" fill-rule="evenodd"/><path d="M2532 712.5C2532 709.463 2534.46 707 2537.5 707 2540.54 707 2543 709.463 2543 712.5 2543 715.538 2540.54 718 2537.5 718 2534.46 718 2532 715.538 2532 712.5Z" fill="#FFFFFF" fill-rule="evenodd"/><path d="M2561 733.5C2561 730.463 2563.46 728 2566.5 728 2569.54 728 2572 730.463 2572 733.5 2572 736.538 2569.54 739 2566.5 739 2563.46 739 2561 736.538 2561 733.5Z" fill="#FFFFFF" fill-rule="evenodd"/><path d="M2588 755C2588 751.686 2590.46 749 2593.5 749 2596.54 749 2599 751.686 2599 755 2599 758.314 2596.54 761 2593.5 761 2590.46 761 2588 758.314 2588 755Z" fill="#FFFFFF" fill-rule="evenodd"/><path d="M2615 778C2615 774.686 2617.24 772 2620 772 2622.76 772 2625 774.686 2625 778 2625 781.314 2622.76 784 2620 784 2617.24 784 2615 781.314 2615 778Z" fill="#FFFFFF" fill-rule="evenodd"/><path d="M2420 722C2420 718.686 2422.46 716 2425.5 716 2428.54 716 2431 718.686 2431 722 2431 725.314 2428.54 728 2425.5 728 2422.46 728 2420 725.314 2420 722Z" fill="#FFFFFF" fill-rule="evenodd"/><path d="M2448 734.5C2448 731.463 2450.46 729 2453.5 729 2456.54 729 2459 731.463 2459 734.5 2459 737.538 2456.54 740 2453.5 740 2450.46 740 2448 737.538 2448 734.5Z" fill="#FFFFFF" fill-rule="evenodd"/><path d="M2476 751C2476 747.686 2478.46 745 2481.5 745 2484.54 745 2487 747.686 2487 751 2487 754.314 2484.54 757 2481.5 757 2478.46 757 2476 754.314 2476 751Z" fill="#FFFFFF" fill-rule="evenodd"/><path d="M2501 765.5C2501 762.463 2503.46 760 2506.5 760 2509.54 760 2512 762.463 2512 765.5 2512 768.538 2509.54 771 2506.5 771 2503.46 771 2501 768.538 2501 765.5Z" fill="#FFFFFF" fill-rule="evenodd"/><path d="M2527 784.5C2527 781.462 2529.46 779 2532.5 779 2535.54 779 2538 781.462 2538 784.5 2538 787.537 2535.54 790 2532.5 790 2529.46 790 2527 787.537 2527 784.5Z" fill="#FFFFFF" fill-rule="evenodd"/><path d="M2552 803C2552 799.686 2554.24 797 2557 797 2559.76 797 2562 799.686 2562 803 2562 806.314 2559.76 809 2557 809 2554.24 809 2552 806.314 2552 803Z" fill="#FFFFFF" fill-rule="evenodd"/><path d="M2576 822C2576 818.686 2578.46 816 2581.5 816 2584.54 816 2587 818.686 2587 822 2587 825.314 2584.54 828 2581.5 828 2578.46 828 2576 825.314 2576 822Z" fill="#FFFFFF" fill-rule="evenodd"/><path d="M2597 846C2597 842.686 2599.46 840 2602.5 840 2605.54 840 2608 842.686 2608 846 2608 849.314 2605.54 852 2602.5 852 2599.46 852 2597 849.314 2597 846Z" fill="#FFFFFF" fill-rule="evenodd"/><path d="M2620 869C2620 865.686 2622.46 863 2625.5 863 2628.54 863 2631 865.686 2631 869 2631 872.314 2628.54 875 2625.5 875 2622.46 875 2620 872.314 2620 869Z" fill="#FFFFFF" fill-rule="evenodd"/><path d="M2638 891C2638 887.686 2640.46 885 2643.5 885 2646.54 885 2649 887.686 2649 891 2649 894.314 2646.54 897 2643.5 897 2640.46 897 2638 894.314 2638 891Z" fill="#FFFFFF" fill-rule="evenodd"/><path d="M2656 919C2656 915.686 2658.46 913 2661.5 913 2664.54 913 2667 915.686 2667 919 2667 922.314 2664.54 925 2661.5 925 2658.46 925 2656 922.314 2656 919Z" fill="#FFFFFF" fill-rule="evenodd"/><path d="M2674 944C2674 940.686 2676.46 938 2679.5 938 2682.54 938 2685 940.686 2685 944 2685 947.314 2682.54 950 2679.5 950 2676.46 950 2674 947.314 2674 944Z" fill="#FFFFFF" fill-rule="evenodd"/><path d="M2690 971.5C2690 968.462 2692.46 966 2695.5 966 2698.54 966 2701 968.462 2701 971.5 2701 974.537 2698.54 977 2695.5 977 2692.46 977 2690 974.537 2690 971.5Z" fill="#FFFFFF" fill-rule="evenodd"/><path d="M2703 1001.5C2703 998.462 2705.46 996 2708.5 996 2711.54 996 2714 998.462 2714 1001.5 2714 1004.54 2711.54 1007 2708.5 1007 2705.46 1007 2703 1004.54 2703 1001.5Z" fill="#FFFFFF" fill-rule="evenodd"/><path d="M2716 1031.5C2716 1028.46 2718.24 1026 2721 1026 2723.76 1026 2726 1028.46 2726 1031.5 2726 1034.54 2723.76 1037 2721 1037 2718.24 1037 2716 1034.54 2716 1031.5Z" fill="#FFFFFF" fill-rule="evenodd"/><path d="M2726 1060.5C2726 1057.46 2728.46 1055 2731.5 1055 2734.54 1055 2737 1057.46 2737 1060.5 2737 1063.54 2734.54 1066 2731.5 1066 2728.46 1066 2726 1063.54 2726 1060.5Z" fill="#FFFFFF" fill-rule="evenodd"/><path d="M2737 1091C2737 1087.69 2739.46 1085 2742.5 1085 2745.54 1085 2748 1087.69 2748 1091 2748 1094.31 2745.54 1097 2742.5 1097 2739.46 1097 2737 1094.31 2737 1091Z" fill="#FFFFFF" fill-rule="evenodd"/><path d="M2744 1121.5C2744 1118.46 2746.46 1116 2749.5 1116 2752.54 1116 2755 1118.46 2755 1121.5 2755 1124.54 2752.54 1127 2749.5 1127 2746.46 1127 2744 1124.54 2744 1121.5Z" fill="#FFFFFF" fill-rule="evenodd"/><path d="M2750 1156C2750 1152.69 2752.46 1150 2755.5 1150 2758.54 1150 2761 1152.69 2761 1156 2761 1159.31 2758.54 1162 2755.5 1162 2752.46 1162 2750 1159.31 2750 1156Z" fill="#FFFFFF" fill-rule="evenodd"/><path d="M2755 1189C2755 1185.69 2757.46 1183 2760.5 1183 2763.54 1183 2766 1185.69 2766 1189 2766 1192.31 2763.54 1195 2760.5 1195 2757.46 1195 2755 1192.31 2755 1189Z" fill="#FFFFFF" fill-rule="evenodd"/><path d="M2758 1221.5C2758 1218.46 2760.46 1216 2763.5 1216 2766.54 1216 2769 1218.46 2769 1221.5 2769 1224.54 2766.54 1227 2763.5 1227 2760.46 1227 2758 1224.54 2758 1221.5Z" fill="#FFFFFF" fill-rule="evenodd"/><path d="M2760 1252C2760 1248.69 2762.24 1246 2765 1246 2767.76 1246 2770 1248.69 2770 1252 2770 1255.31 2767.76 1258 2765 1258 2762.24 1258 2760 1255.31 2760 1252Z" fill="#FFFFFF" fill-rule="evenodd"/><path d="M2815 1249.5C2815 1246.46 2817.46 1244 2820.5 1244 2823.54 1244 2826 1246.46 2826 1249.5 2826 1252.54 2823.54 1255 2820.5 1255 2817.46 1255 2815 1252.54 2815 1249.5Z" fill="#FFFFFF" fill-rule="evenodd"/><path d="M2815 1213.5C2815 1210.46 2817.46 1208 2820.5 1208 2823.54 1208 2826 1210.46 2826 1213.5 2826 1216.54 2823.54 1219 2820.5 1219 2817.46 1219 2815 1216.54 2815 1213.5Z" fill="#FFFFFF" fill-rule="evenodd"/><path d="M2811 1177.5C2811 1174.46 2813.46 1172 2816.5 1172 2819.54 1172 2822 1174.46 2822 1177.5 2822 1180.54 2819.54 1183 2816.5 1183 2813.46 1183 2811 1180.54 2811 1177.5Z" fill="#FFFFFF" fill-rule="evenodd"/><path d="M2806 1143C2806 1139.69 2808.46 1137 2811.5 1137 2814.54 1137 2817 1139.69 2817 1143 2817 1146.31 2814.54 1149 2811.5 1149 2808.46 1149 2806 1146.31 2806 1143Z" fill="#FFFFFF" fill-rule="evenodd"/><path d="M2798 1109.5C2798 1106.46 2800.46 1104 2803.5 1104 2806.54 1104 2809 1106.46 2809 1109.5 2809 1112.54 2806.54 1115 2803.5 1115 2800.46 1115 2798 1112.54 2798 1109.5Z" fill="#FFFFFF" fill-rule="evenodd"/><path d="M2789 1073.5C2789 1070.46 2791.46 1068 2794.5 1068 2797.54 1068 2800 1070.46 2800 1073.5 2800 1076.54 2797.54 1079 2794.5 1079 2791.46 1079 2789 1076.54 2789 1073.5Z" fill="#FFFFFF" fill-rule="evenodd"/><path d="M2779 1041C2779 1037.69 2781.46 1035 2784.5 1035 2787.54 1035 2790 1037.69 2790 1041 2790 1044.31 2787.54 1047 2784.5 1047 2781.46 1047 2779 1044.31 2779 1041Z" fill="#FFFFFF" fill-rule="evenodd"/><path d="M2768 1006C2768 1002.69 2770.46 1000 2773.5 1000 2776.54 1000 2779 1002.69 2779 1006 2779 1009.31 2776.54 1012 2773.5 1012 2770.46 1012 2768 1009.31 2768 1006Z" fill="#FFFFFF" fill-rule="evenodd"/><path d="M2752 974C2752 970.686 2754.46 968 2757.5 968 2760.54 968 2763 970.686 2763 974 2763 977.314 2760.54 980 2757.5 980 2754.46 980 2752 977.314 2752 974Z" fill="#FFFFFF" fill-rule="evenodd"/><path d="M2738 943C2738 939.686 2740.46 937 2743.5 937 2746.54 937 2749 939.686 2749 943 2749 946.314 2746.54 949 2743.5 949 2740.46 949 2738 946.314 2738 943Z" fill="#FFFFFF" fill-rule="evenodd"/><path d="M2720 913.5C2720 910.462 2722.46 908 2725.5 908 2728.54 908 2731 910.462 2731 913.5 2731 916.537 2728.54 919 2725.5 919 2722.46 919 2720 916.537 2720 913.5Z" fill="#FFFFFF" fill-rule="evenodd"/><path d="M2699 882.5C2699 879.462 2701.46 877 2704.5 877 2707.54 877 2710 879.462 2710 882.5 2710 885.537 2707.54 888 2704.5 888 2701.46 888 2699 885.537 2699 882.5Z" fill="#FFFFFF" fill-rule="evenodd"/><path d="M2683 853.5C2683 850.463 2685.46 848 2688.5 848 2691.54 848 2694 850.463 2694 853.5 2694 856.538 2691.54 859 2688.5 859 2685.46 859 2683 856.538 2683 853.5Z" fill="#FFFFFF" fill-rule="evenodd"/><path d="M2662 827.5C2662 824.462 2664.24 822 2667 822 2669.76 822 2672 824.462 2672 827.5 2672 830.537 2669.76 833 2667 833 2664.24 833 2662 830.537 2662 827.5Z" fill="#FFFFFF" fill-rule="evenodd"/><path d="M2638 801.5C2638 798.463 2640.46 796 2643.5 796 2646.54 796 2649 798.463 2649 801.5 2649 804.538 2646.54 807 2643.5 807 2640.46 807 2638 804.538 2638 801.5Z" fill="#FFFFFF" fill-rule="evenodd"/></g></svg>