<svg width="621" height="663" xmlns="http://www.w3.org/2000/svg" xmlns:xlink="http://www.w3.org/1999/xlink" xml:space="preserve" overflow="hidden"><g transform="translate(-1567 -1292)"><path d="M2186 1293C1582 1293 1582 1293 1582 1293 1582 1648.09 1852.45 1936 2186 1936 2186 1293 2186 1293 2186 1293" fill="#F78969" fill-rule="evenodd"/><path d="M1640 1293C2186 1293 2186 1293 2186 1293 2186 1875 2186 1875 2186 1875 1885.07 1875 1640 1613.77 1640 1293Z" fill="#FBD6C4" fill-rule="evenodd"/><path d="M2181.49 1929.24C2183.3 1930.2 2184.2 1931.16 2186 1931.16 2186 1917.73 2186 1917.73 2186 1917.73 2182.39 1915.81 2178.79 1914.85 2175.18 1914.85 2168.87 1914.85 2162.56 1917.73 2158.96 1923.48 2155.35 1917.73 2149.04 1912.93 2141.83 1912.93 2135.52 1912.93 2130.11 1916.77 2126.5 1921.56 2122.9 1914.85 2116.58 1910.05 2108.47 1910.05 2103.06 1910.05 2097.65 1911.97 2094.05 1916.77 2090.44 1909.09 2083.23 1904.29 2075.12 1904.29 2070.61 1904.29 2065.2 1907.17 2061.59 1910.05 2058.89 1902.37 2051.68 1896.61 2042.66 1896.61 2038.16 1896.61 2033.65 1898.53 2030.04 1901.41 2027.34 1893.74 2019.22 1887.98 2011.11 1887.98 2006.6 1887.98 2002.1 1888.94 1998.49 1891.82 1995.78 1883.18 1987.67 1876.46 1978.66 1876.46 1975.05 1876.46 1970.54 1878.38 1967.84 1880.3 1966.04 1870.7 1957.92 1863.99 1948.01 1863.99 1944.4 1863.99 1940.79 1864.95 1937.19 1866.87 1936.29 1856.31 1927.27 1848.63 1917.36 1848.63 1914.65 1848.63 1911.04 1849.59 1908.34 1850.55 1907.44 1840 1898.42 1831.36 1888.51 1831.36 1885.8 1831.36 1883.1 1832.32 1880.39 1833.28 1879.49 1821.76 1870.48 1813.13 1859.66 1813.13 1857.86 1813.13 1855.15 1814.09 1853.35 1814.09 1853.35 1814.09 1853.35 1813.13 1853.35 1813.13 1853.35 1800.65 1844.33 1791.05 1833.52 1791.05 1830.81 1791.05 1828.11 1792.01 1825.4 1792.97 1825.4 1781.46 1816.39 1771.86 1805.57 1771.86 1803.77 1771.86 1801.96 1771.86 1800.16 1772.82 1800.16 1771.86 1800.16 1771.86 1800.16 1770.9 1800.16 1759.39 1791.15 1749.79 1780.33 1749.79 1778.53 1749.79 1777.62 1749.79 1775.82 1749.79 1776.72 1748.83 1776.72 1746.91 1776.72 1745.95 1776.72 1733.48 1767.71 1723.88 1755.99 1723.88 1755.09 1723.88 1754.18 1723.88 1753.28 1724.84 1753.28 1722.92 1753.28 1721.96 1753.28 1720.04 1753.28 1708.52 1744.27 1698.93 1732.55 1698.93 1732.55 1698.93 1731.65 1698.93 1731.65 1698.93 1731.65 1697.01 1732.55 1694.13 1732.55 1692.21 1732.55 1680.7 1722.63 1671.1 1711.81 1671.1 1711.81 1671.1 1711.81 1671.1 1710.91 1671.1 1711.81 1668.22 1712.72 1666.3 1712.72 1664.38 1712.72 1651.91 1702.8 1642.31 1691.98 1642.31 1692.88 1639.43 1693.78 1636.55 1693.78 1633.67 1693.78 1623.12 1685.67 1613.52 1675.76 1612.56 1676.66 1609.68 1677.56 1606.8 1677.56 1602.96 1677.56 1592.41 1669.44 1582.81 1659.53 1581.85 1661.33 1578.97 1661.33 1575.13 1661.33 1572.26 1661.33 1561.7 1655.02 1553.06 1646.01 1551.14 1647.81 1547.3 1648.71 1543.47 1648.71 1539.63 1648.71 1530.03 1641.5 1521.39 1632.48 1518.52 1635.19 1515.64 1636.09 1510.84 1636.09 1507 1636.09 1496.44 1630.68 1488.77 1622.57 1485.89 1625.27 1482.05 1627.07 1477.25 1627.07 1472.45 1627.07 1462.86 1620.76 1455.18 1612.65 1452.3 1616.26 1448.46 1618.06 1443.66 1618.06 1437.91 1618.06 1429.27 1612.65 1421.59 1606.34 1418.71 1609.95 1413.91 1611.75 1409.12 1611.75 1402.4 1611.75 1394.72 1607.24 1387.04 1600.93 1383.21 1604.54 1379.37 1607.24 1373.61 1607.24 1367.85 1607.24 1359.22 1602.73 1352.5 1596.42 1348.66 1600.93 1344.82 1604.54 1338.1 1604.54 1331.39 1604.54 1323.71 1600.93 1317.95 1595.52 1314.11 1600.03 1309.31 1602.73 1303.56 1602.73 1296.84 1601.83 1293 1601.83 1293 1601.83 1293 1591.01 1293 1591.01 1293 1591.01 1293 1591.92 1294.92 1591.92 1295.88 1591.92 1294.92 1591.92 1296.84 1591.92 1296.84 1591.92 1296.84 1591.92 1302.6 1587.41 1307.39 1582 1307.39 1589.21 1648.07 1846.14 1924.44 2166.17 1935 2166.17 1930.2 2169.77 1926.36 2175.18 1926.36 2177.89 1926.36 2179.69 1927.32 2181.49 1929.24ZM2178.79 1895.65C2181.49 1895.65 2183.3 1894.7 2186 1893.74 2186 1882.22 2186 1882.22 2186 1882.22 2185.1 1882.22 2184.2 1882.22 2183.3 1882.22 2181.49 1883.18 2180.59 1884.14 2178.79 1884.14 2174.28 1884.14 2169.77 1879.34 2169.77 1874.54 2169.77 1869.74 2174.28 1864.95 2178.79 1864.95 2180.59 1864.95 2181.49 1865.91 2183.3 1865.91 2184.2 1866.87 2185.1 1866.87 2186 1866.87 2186 1855.35 2186 1855.35 2186 1855.35 2183.3 1854.39 2181.49 1853.43 2178.79 1853.43 2173.38 1853.43 2167.97 1856.31 2164.36 1860.15 2160.76 1855.35 2155.35 1852.47 2149.04 1852.47 2143.63 1852.47 2138.22 1855.35 2134.61 1859.19 2131.01 1853.43 2124.7 1849.59 2118.39 1849.59 2112.98 1849.59 2108.47 1851.51 2104.87 1854.39 2102.16 1848.63 2095.85 1844.79 2088.64 1844.79 2084.13 1844.79 2079.62 1845.75 2076.02 1848.63 2073.31 1841.91 2066.1 1837.12 2058.89 1837.12 2054.38 1837.12 2050.78 1839.04 2047.17 1840.96 2044.47 1834.24 2037.25 1829.44 2029.14 1829.44 2025.53 1829.44 2021.93 1830.4 2018.32 1832.32 2015.62 1824.64 2008.41 1818.88 2000.29 1818.88 1996.69 1818.88 1993.98 1819.84 1991.28 1821.76 1988.57 1813.13 1981.36 1807.37 1972.35 1807.37 1969.64 1807.37 1966.04 1808.33 1963.33 1809.29 1961.53 1800.65 1953.41 1792.97 1944.4 1792.97 1941.7 1792.97 1939.89 1793.93 1937.19 1794.89 1935.39 1785.3 1927.27 1777.62 1918.26 1777.62 1915.55 1777.62 1913.75 1778.58 1911.95 1779.54 1910.14 1768.98 1902.03 1761.3 1892.11 1761.3 1890.31 1761.3 1889.41 1761.3 1887.61 1762.26 1887.61 1750.75 1878.59 1741.15 1867.77 1741.15 1865.97 1741.15 1864.17 1742.11 1862.36 1742.11 1861.46 1731.56 1852.45 1723.88 1842.53 1723.88 1841.63 1723.88 1840.73 1723.88 1838.93 1723.88 1838.93 1712.36 1830.81 1703.73 1819.99 1703.73 1819.09 1703.73 1818.19 1703.73 1817.29 1703.73 1817.29 1702.77 1817.29 1701.81 1817.29 1701.81 1817.29 1690.29 1809.18 1680.7 1798.36 1680.7 1797.46 1680.7 1796.56 1680.7 1796.56 1680.7 1796.56 1679.74 1796.56 1678.78 1796.56 1677.82 1796.56 1666.3 1787.54 1656.7 1776.72 1656.7 1777.62 1655.74 1777.62 1653.83 1777.62 1652.87 1777.62 1641.35 1769.51 1632.71 1758.69 1631.75 1758.69 1630.79 1759.59 1628.87 1759.59 1626.96 1759.59 1616.4 1751.48 1606.8 1741.56 1605.84 1742.47 1603.92 1742.47 1602 1742.47 1600.09 1742.47 1589.53 1735.25 1580.89 1726.24 1578.97 1727.14 1577.05 1728.04 1574.17 1728.04 1571.3 1728.04 1561.7 1720.83 1553.06 1711.81 1551.14 1712.72 1549.22 1713.62 1546.35 1713.62 1543.47 1713.62 1533.87 1707.31 1526.19 1699.19 1523.31 1701 1520.43 1701 1517.56 1701 1514.68 1701 1505.08 1695.59 1497.4 1687.47 1494.52 1689.28 1491.65 1690.18 1487.81 1690.18 1483.97 1690.18 1475.33 1685.67 1467.65 1678.46 1464.78 1680.26 1460.94 1681.16 1457.1 1681.16 1453.26 1681.16 1444.62 1676.66 1436.95 1669.44 1434.07 1672.15 1430.23 1673.95 1426.39 1673.95 1421.59 1673.95 1413.91 1669.44 1407.2 1663.13 1403.36 1666.74 1399.52 1668.54 1394.72 1668.54 1389.92 1668.54 1382.25 1664.04 1375.53 1658.63 1371.69 1662.23 1367.85 1664.04 1363.05 1664.04 1357.3 1664.04 1350.58 1660.43 1343.86 1655.02 1340.02 1658.63 1336.18 1661.33 1330.43 1661.33 1324.67 1661.33 1317.95 1657.73 1312.19 1653.22 1308.35 1657.73 1304.52 1659.53 1299.72 1659.53 1293 1648.71 1293 1648.71 1293 1648.71 1293 1648.71 1293 1648.71 1293 1648.71 1293 1648.71 1298.76 1645.1 1302.6 1639.7 1302.6 1635.19 1302.6 1630.68 1298.76 1630.68 1293 1630.68 1293 1630.68 1293 1630.68 1293 1619.86 1293 1619.86 1293 1619.86 1293 1619.86 1293 1619.86 1293 1619.86 1293 1619.86 1299.72 1623.47 1306.43 1627.98 1310.27 1624.37 1313.15 1621.67 1318.91 1621.67 1324.67 1621.67 1332.35 1625.27 1339.06 1630.68 1341.94 1627.07 1345.78 1624.37 1351.54 1624.37 1357.3 1624.37 1364.97 1627.98 1371.69 1634.29 1375.53 1630.68 1379.37 1628.88 1384.17 1628.88 1389.92 1628.88 1397.6 1633.39 1404.32 1638.79 1408.16 1636.09 1412 1634.29 1416.79 1634.29 1421.59 1634.29 1430.23 1638.79 1437.91 1646.01 1440.78 1643.3 1444.62 1642.4 1448.46 1642.4 1453.26 1642.4 1461.9 1646.91 1468.61 1654.12 1472.45 1652.32 1475.33 1650.51 1479.17 1650.51 1483.97 1650.51 1493.56 1656.82 1501.24 1664.94 1504.12 1663.13 1507 1662.23 1510.84 1662.23 1514.68 1662.23 1523.31 1667.64 1531.95 1675.76 1533.87 1674.85 1536.75 1673.95 1539.63 1673.95 1543.47 1673.95 1553.06 1681.16 1561.7 1690.18 1563.62 1689.28 1566.5 1688.38 1569.38 1688.38 1571.3 1688.38 1581.85 1695.59 1590.49 1704.6 1592.41 1703.7 1594.33 1702.8 1597.21 1702.8 1600.09 1702.8 1610.64 1710.91 1619.28 1720.83 1620.24 1719.93 1622.16 1719.93 1625.04 1719.93 1626.96 1719.93 1638.47 1728.04 1647.11 1738.86 1648.07 1737.96 1649.99 1737.96 1650.95 1737.96 1652.87 1737.96 1664.38 1746.97 1673.98 1757.79 1673.98 1757.79 1674.94 1756.89 1676.86 1756.89 1677.82 1756.89 1689.33 1765.9 1698.93 1776.72 1698.93 1777.62 1698.93 1777.62 1698.93 1778.53 1698.93 1778.53 1699.89 1778.53 1700.85 1778.53 1701.81 1778.53 1713.32 1787.54 1721.96 1798.36 1721.96 1798.36 1721.96 1799.26 1721.96 1800.16 1721.96 1800.16 1722.92 1800.16 1723.88 1800.16 1724.84 1800.16 1736.35 1809.18 1744.99 1819.99 1744.99 1820.9 1744.99 1821.8 1744.99 1822.7 1744.99 1823.6 1756.51 1831.71 1765.14 1842.53 1765.14 1844.33 1765.14 1846.14 1765.14 1847.94 1764.18 1849.74 1774.74 1857.86 1783.38 1867.77 1783.38 1869.58 1783.38 1871.38 1783.38 1872.28 1782.42 1873.18 1793.93 1881.3 1803.53 1892.11 1803.53 1894.82 1803.53 1896.62 1802.57 1898.42 1802.57 1900.23 1812.17 1908.34 1819.84 1918.26 1819.84 1920.96 1819.84 1922.76 1818.88 1925.47 1818.88 1927.27 1828.48 1935.39 1835.2 1944.4 1835.2 1948.01 1835.2 1950.71 1834.24 1953.41 1833.28 1955.22 1841.91 1963.33 1849.59 1972.35 1849.59 1975.95 1849.59 1978.66 1848.63 1981.36 1846.71 1984.07 1855.35 1991.28 1861.11 2000.29 1861.11 2004.8 1861.11 2008.41 1860.15 2011.11 1857.27 2013.81 1864.95 2021.03 1870.7 2029.14 1870.7 2033.65 1870.7 2037.25 1869.74 2040.86 1866.87 2043.56 1874.54 2050.78 1879.34 2058.89 1879.34 2063.4 1879.34 2067 1877.42 2070.61 1874.54 2074.21 1881.26 2080.53 1886.06 2088.64 1886.06 2093.15 1886.06 2097.65 1884.14 2101.26 1881.26 2104.87 1887.02 2111.18 1890.86 2118.39 1890.86 2123.8 1890.86 2128.3 1888.94 2131.91 1885.1 2135.52 1890.86 2141.83 1894.7 2149.04 1894.7 2154.45 1894.7 2159.86 1891.82 2163.46 1887.02 2167.07 1891.82 2172.48 1895.65 2178.79 1895.65Z" fill="#F4492B" fill-rule="evenodd"/><path d="M2178.79 1865.4C2174.29 1865.4 2170.68 1869.24 2169.78 1875 1879.66 1865.4 1645.41 1613.77 1640 1302.6 1645.41 1302.6 1649.01 1298.76 1649.01 1293 1649.01 1293 1649.01 1293 1649.01 1293 1659.82 1293 1659.82 1293 1659.82 1293 1659.82 1299.72 1658.02 1304.52 1653.51 1308.37 1658.02 1312.21 1661.62 1317.97 1661.62 1324.69 1661.62 1330.46 1658.92 1336.22 1655.32 1340.06 1660.72 1343.9 1664.33 1350.62 1664.33 1357.35 1664.33 1363.11 1662.52 1367.91 1658.92 1371.75 1664.33 1375.59 1668.83 1382.32 1668.83 1390 1668.83 1394.8 1667.03 1399.6 1663.43 1403.45 1669.73 1407.29 1674.24 1414.01 1674.24 1421.69 1674.24 1426.49 1672.44 1430.34 1669.73 1434.18 1676.94 1437.06 1681.45 1444.74 1681.45 1453.39 1681.45 1457.23 1680.54 1461.07 1678.74 1464.91 1685.95 1467.79 1690.46 1475.48 1690.46 1484.12 1690.46 1487.96 1689.55 1491.8 1687.75 1494.68 1695.86 1497.56 1701.27 1505.25 1701.27 1514.85 1701.27 1517.73 1701.27 1520.61 1699.47 1523.5 1707.57 1526.38 1713.88 1534.06 1713.88 1543.66 1713.88 1546.54 1712.98 1549.43 1712.08 1551.35 1721.09 1553.27 1728.3 1561.91 1728.3 1571.51 1728.3 1574.4 1727.4 1577.28 1726.49 1579.2 1735.5 1581.12 1742.71 1589.76 1742.71 1600.33 1742.71 1602.25 1742.71 1604.17 1741.81 1606.09 1751.72 1607.05 1759.83 1616.65 1759.83 1627.22 1759.83 1629.14 1758.93 1631.06 1758.93 1632.02 1769.74 1632.98 1777.85 1641.62 1777.85 1653.15 1777.85 1654.11 1777.85 1656.03 1776.95 1656.99 1787.76 1656.99 1796.77 1666.59 1796.77 1678.12 1796.77 1679.08 1796.77 1680.04 1796.77 1681 1796.77 1681 1797.67 1681 1798.57 1681 1809.39 1681 1817.49 1690.6 1817.49 1702.13 1817.49 1702.13 1817.49 1703.09 1817.49 1704.05 1818.4 1704.05 1819.3 1704.05 1820.2 1704.05 1831.01 1704.05 1839.12 1712.69 1839.12 1724.22 1840.92 1724.22 1841.82 1724.22 1842.72 1724.22 1852.63 1724.22 1861.64 1731.9 1862.54 1742.47 1864.35 1742.47 1866.15 1741.51 1867.95 1741.51 1878.76 1741.51 1887.77 1751.11 1887.77 1762.63 1889.57 1761.67 1890.48 1761.67 1892.28 1761.67 1902.19 1761.67 1910.3 1769.36 1912.1 1779.92 1913.9 1778.96 1915.7 1778 1918.41 1778 1927.42 1778 1935.52 1785.68 1937.33 1795.29 1940.03 1794.33 1941.83 1793.37 1944.53 1793.37 1953.54 1793.37 1961.65 1801.05 1963.46 1809.69 1966.16 1808.73 1969.76 1807.77 1972.47 1807.77 1981.48 1807.77 1988.68 1813.53 1991.39 1822.18 1994.09 1820.26 1996.79 1819.3 2000.4 1819.3 2008.5 1819.3 2015.71 1825.06 2018.42 1832.74 2022.02 1830.82 2025.62 1829.86 2029.23 1829.86 2037.34 1829.86 2044.54 1834.66 2047.25 1841.39 2050.85 1839.47 2054.46 1837.54 2058.96 1837.54 2066.17 1837.54 2073.38 1842.35 2076.08 1849.07 2079.68 1846.19 2084.19 1845.23 2088.69 1845.23 2095.9 1845.23 2102.21 1849.07 2104.91 1854.83 2108.51 1851.95 2113.02 1850.03 2118.43 1850.03 2124.73 1850.03 2131.04 1853.87 2134.64 1859.63 2138.25 1855.79 2143.65 1852.91 2149.06 1852.91 2155.37 1852.91 2160.77 1855.79 2164.38 1860.59 2167.98 1856.75 2173.39 1853.87 2178.79 1853.87 2181.49 1853.87 2183.3 1854.83 2186 1855.79 2186 1867.32 2186 1867.32 2186 1867.32 2185.1 1867.32 2184.2 1867.32 2183.3 1866.36 2181.49 1866.36 2180.59 1865.4 2178.79 1865.4Z" fill="#F9B89E" fill-rule="evenodd"/><path d="M1653.9 1305.52C1657.49 1301.68 1660.19 1298.8 1660.19 1294 1660.19 1294 1660.19 1294 1660.19 1294 1660.19 1299.76 1661.08 1302.64 1657.49 1306.48 1661.98 1311.28 1664.68 1317.04 1664.68 1323.76 1664.68 1329.52 1662.88 1334.32 1659.29 1338.16 1664.68 1342.96 1667.37 1348.71 1667.37 1356.39 1667.37 1361.19 1665.57 1365.99 1662.88 1369.83 1668.27 1373.67 1671.86 1381.35 1671.86 1388.07 1671.86 1392.87 1670.06 1397.67 1667.37 1401.51 1673.66 1405.35 1677.25 1413.03 1677.25 1420.71 1677.25 1424.55 1676.35 1428.39 1673.66 1432.23 1680.84 1436.07 1685.33 1442.79 1685.33 1451.43 1685.33 1455.26 1684.44 1459.1 1682.64 1462.94 1688.93 1466.78 1693.42 1474.46 1693.42 1482.14 1693.42 1485.98 1692.52 1488.86 1691.62 1491.74 1699.7 1495.58 1705.09 1503.26 1705.09 1512.86 1705.09 1515.74 1704.19 1518.62 1703.3 1521.5 1711.38 1524.38 1716.77 1533.02 1716.77 1541.66 1716.77 1544.54 1715.87 1546.46 1715.87 1548.38 1724.85 1551.26 1731.14 1559.9 1731.14 1570.45 1731.14 1572.37 1730.24 1574.29 1730.24 1576.21 1739.22 1579.09 1745.51 1587.73 1745.51 1598.29 1745.51 1600.21 1745.51 1602.13 1744.61 1604.05 1755.39 1605.97 1762.57 1614.61 1762.57 1626.13 1762.57 1626.13 1762.57 1628.05 1762.57 1629.01 1772.45 1630.93 1780.54 1640.53 1780.54 1651.09 1780.54 1651.09 1780.54 1653.01 1780.54 1653.97 1791.31 1654.93 1799.4 1664.53 1799.4 1677 1799.4 1677 1799.4 1677 1799.4 1677 1811.07 1677.96 1820.95 1687.56 1820.95 1700.04 1820.95 1700.04 1820.95 1700.04 1820.95 1700.04 1820.95 1700.04 1820.95 1700.04 1820.95 1700.04 1831.73 1700.04 1840.71 1709.64 1842.51 1721.16 1843.41 1720.2 1844.31 1720.2 1844.31 1720.2 1847 1721.16 1847 1721.16 1847 1721.16 1847 1725 1847 1725 1847 1725 1844.31 1724.04 1844.31 1724.04 1844.31 1724.04 1838.92 1725 1838.92 1725 1838.92 1725 1838.92 1723.08 1838.92 1723.08 1838.92 1723.08 1838.92 1712.52 1830.83 1703.88 1820.95 1703.88 1817.36 1704.84 1817.36 1704.84 1817.36 1704.84 1817.36 1701.96 1817.36 1701.96 1817.36 1701.96 1817.36 1700.04 1817.36 1700.04 1817.36 1700.04 1817.36 1689.48 1809.28 1680.84 1799.4 1680.84 1795.81 1681.8 1795.81 1681.8 1795.81 1681.8 1795.81 1678.92 1795.81 1678.92 1795.81 1678.92 1795.81 1677 1795.81 1677 1795.81 1677 1795.81 1666.45 1788.62 1657.81 1778.74 1657.81 1776.05 1657.81 1776.05 1657.81 1776.05 1657.81 1776.94 1655.89 1776.94 1655.89 1776.94 1655.89 1776.94 1651.09 1776.94 1651.09 1776.94 1651.09 1776.94 1641.49 1769.76 1632.85 1759.88 1632.85 1758.08 1632.85 1758.08 1632.85 1758.08 1632.85 1758.98 1629.97 1758.98 1629.97 1758.98 1629.97 1758.98 1626.13 1758.98 1626.13 1758.98 1626.13 1758.98 1616.53 1751.8 1607.89 1742.81 1606.93 1740.12 1606.93 1740.12 1606.93 1740.12 1606.93 1741.02 1604.05 1741.02 1604.05 1741.02 1604.05 1741.92 1602.13 1741.92 1600.21 1741.92 1598.29 1741.92 1589.65 1736.53 1581.01 1727.55 1580.05 1725.75 1579.09 1725.75 1579.09 1725.75 1579.09 1726.65 1577.17 1726.65 1577.17 1726.65 1577.17 1727.55 1575.25 1727.55 1572.37 1727.55 1570.45 1727.55 1561.82 1721.26 1553.18 1713.18 1552.22 1711.38 1551.26 1711.38 1551.26 1711.38 1551.26 1712.28 1549.34 1712.28 1549.34 1712.28 1549.34 1713.18 1547.42 1713.18 1544.54 1713.18 1541.66 1713.18 1533.98 1707.79 1526.3 1700.6 1523.42 1698.81 1523.42 1698.81 1523.42 1698.81 1523.42 1699.7 1521.5 1699.7 1521.5 1699.7 1521.5 1700.6 1518.62 1701.5 1515.74 1701.5 1512.86 1701.5 1504.22 1696.11 1497.5 1688.93 1494.62 1687.13 1493.66 1687.13 1493.66 1687.13 1493.66 1688.03 1491.74 1688.03 1491.74 1688.03 1491.74 1688.93 1488.86 1689.82 1485.98 1689.82 1482.14 1689.82 1474.46 1686.23 1467.74 1679.05 1464.86 1677.25 1463.9 1677.25 1463.9 1677.25 1463.9 1678.15 1461.98 1678.15 1461.98 1678.15 1461.98 1680.84 1459.1 1681.74 1455.26 1681.74 1451.43 1681.74 1443.75 1677.25 1437.03 1670.96 1434.15 1669.17 1433.19 1669.17 1433.19 1669.17 1433.19 1670.06 1431.27 1670.06 1431.27 1670.06 1431.27 1672.76 1428.39 1673.66 1424.55 1673.66 1420.71 1673.66 1413.03 1670.06 1407.27 1664.68 1403.43 1661.98 1402.47 1661.98 1402.47 1661.98 1402.47 1663.78 1400.55 1663.78 1400.55 1663.78 1400.55 1666.47 1397.67 1668.27 1392.87 1668.27 1388.07 1668.27 1381.35 1664.68 1375.59 1659.29 1371.75 1657.49 1370.79 1657.49 1370.79 1657.49 1370.79 1659.29 1368.87 1659.29 1368.87 1659.29 1368.87 1661.98 1365.03 1663.78 1361.19 1663.78 1356.39 1663.78 1349.67 1661.08 1343.92 1655.69 1340.08 1653.9 1339.12 1653.9 1339.12 1653.9 1339.12 1655.69 1337.2 1655.69 1337.2 1655.69 1337.2 1659.29 1333.36 1661.08 1328.56 1661.08 1323.76 1661.08 1318 1658.39 1312.24 1654.8 1308.4 1653 1307.44 1653 1307.44 1653 1307.44L1653.9 1305.52Z" fill="#FFFFFF" fill-rule="evenodd"/><path d="M1847 1721C1856.01 1721.96 1863.22 1729.63 1865.02 1739.22 1865.92 1738.27 1867.72 1738.27 1869.53 1738.27 1880.34 1738.27 1889.35 1746.9 1890.25 1758.41 1892.05 1758.41 1893.86 1758.41 1893.86 1758.41 1903.77 1758.41 1911.88 1765.12 1913.68 1775.67 1915.48 1774.71 1917.28 1774.71 1919.09 1774.71 1929 1774.71 1937.11 1781.43 1939.81 1791.02 1941.61 1791.02 1943.41 1790.06 1946.12 1790.06 1955.13 1790.06 1963.24 1796.78 1965.94 1805.41 1968.64 1804.45 1970.45 1803.49 1973.15 1803.49 1982.16 1803.49 1989.37 1809.24 1992.97 1817.88 1995.68 1816.92 1998.38 1815.96 2001.98 1815.96 2010.09 1815.96 2017.3 1820.76 2020.91 1828.43 2023.61 1826.51 2027.21 1825.55 2030.82 1825.55 2038.03 1825.55 2045.24 1830.35 2048.84 1837.06 2052.44 1835.14 2056.05 1834.18 2059.65 1834.18 2066.86 1834.18 2074.07 1838.02 2077.67 1844.73 2081.28 1842.82 2084.88 1840.9 2089.39 1840.9 2096.6 1840.9 2102.9 1844.73 2106.51 1850.49 2110.11 1847.61 2114.62 1845.69 2119.12 1845.69 2126.33 1845.69 2131.74 1849.53 2136.24 1855.29 2139.85 1851.45 2144.35 1849.53 2149.76 1849.53 2149.76 1849.53 2149.76 1849.53 2149.76 1849.53 2156.07 1849.53 2161.47 1851.45 2165.08 1856.24 2169.58 1852.41 2174.09 1852.41 2179.49 1852.41 2182.2 1852.41 2181.3 1852.41 2184 1853.37 2184 1853.37 2184 1853.37 2184 1853.37 2181.3 1852.41 2182.2 1854.33 2179.49 1854.33 2174.99 1854.33 2169.58 1856.24 2166.88 1860.08 2165.08 1862 2165.08 1862 2165.08 1862 2164.18 1860.08 2164.18 1860.08 2164.18 1860.08 2160.57 1855.29 2155.17 1853.37 2149.76 1853.37 2145.25 1853.37 2140.75 1855.29 2137.14 1859.12 2135.34 1860.08 2135.34 1860.08 2135.34 1860.08 2134.44 1858.16 2134.44 1858.16 2134.44 1858.16 2130.84 1853.37 2125.43 1849.53 2119.12 1849.53 2114.62 1849.53 2111.01 1851.45 2107.41 1854.33 2105.61 1856.24 2105.61 1856.24 2105.61 1856.24 2104.71 1854.33 2104.71 1854.33 2104.71 1854.33 2101.1 1848.57 2095.7 1844.73 2089.39 1844.73 2085.78 1844.73 2081.28 1846.65 2078.57 1848.57 2076.77 1850.49 2076.77 1850.49 2076.77 1850.49 2075.87 1848.57 2075.87 1848.57 2075.87 1848.57 2072.27 1841.86 2066.86 1838.02 2059.65 1838.02 2056.05 1838.02 2052.44 1838.98 2049.74 1840.9 2047.94 1842.82 2047.94 1842.82 2047.94 1842.82 2047.04 1839.94 2047.04 1839.94 2047.04 1839.94 2043.43 1834.18 2037.13 1829.39 2030.82 1829.39 2027.21 1829.39 2023.61 1830.35 2020.91 1832.27 2019.1 1834.18 2019.1 1834.18 2019.1 1834.18 2018.2 1831.31 2018.2 1831.31 2018.2 1831.31 2015.5 1824.59 2009.19 1819.8 2001.98 1819.8 1998.38 1819.8 1995.68 1820.76 1992.97 1821.71 1991.17 1823.63 1991.17 1823.63 1991.17 1823.63 1990.27 1820.76 1990.27 1820.76 1990.27 1820.76 1988.47 1813.08 1981.26 1807.33 1973.15 1807.33 1970.45 1807.33 1967.74 1808.29 1965.94 1809.24 1963.24 1811.16 1963.24 1811.16 1963.24 1811.16 1963.24 1808.29 1963.24 1808.29 1963.24 1808.29 1961.44 1799.65 1954.23 1793.9 1946.12 1793.9 1943.41 1793.9 1941.61 1793.9 1938.91 1794.86 1937.11 1795.82 1937.11 1795.82 1937.11 1795.82 1937.11 1793.9 1937.11 1793.9 1937.11 1793.9 1935.3 1785.27 1928.1 1778.55 1919.09 1778.55 1917.28 1778.55 1915.48 1778.55 1913.68 1779.51 1911.88 1780.47 1911.88 1780.47 1911.88 1780.47 1910.98 1777.59 1910.98 1777.59 1910.98 1777.59 1910.07 1768.96 1901.97 1762.24 1893.86 1762.24 1887.55 1763.2 1887.55 1763.2 1887.55 1763.2 1886.65 1760.33 1886.65 1760.33 1886.65 1760.33 1886.65 1750.73 1878.54 1742.1 1869.53 1742.1 1867.72 1742.1 1865.92 1742.1 1864.12 1743.06 1862.32 1743.06 1862.32 1743.06 1862.32 1743.06 1861.42 1741.14 1861.42 1741.14 1861.42 1741.14 1860.52 1732.51 1854.21 1725.8 1847 1724.84L1847 1721Z" fill="#FFFFFF" fill-rule="evenodd"/><path d="M0 0 0.999672 43" stroke="#FFFFFF" stroke-width="5.72917" stroke-miterlimit="8" fill="none" fill-rule="evenodd" transform="matrix(1 0 0 -1 2174 1927)"/><path d="M2141.53 1882 2156 1883.08 2153.47 1928 2139 1927.28 2141.53 1882Z" stroke="#FFFFFF" stroke-width="5.72917" stroke-miterlimit="8" fill="none" fill-rule="evenodd"/><path d="M2110.66 1879 2125 1880.8 2119.62 1923 2106 1921.2 2110.66 1879Z" stroke="#FFFFFF" stroke-width="5.72917" stroke-miterlimit="8" fill="none" fill-rule="evenodd"/><path d="M2079.03 1874 2093 1876.86 2085.32 1918 2071 1915.14 2079.03 1874Z" stroke="#FFFFFF" stroke-width="5.72917" stroke-miterlimit="8" fill="none" fill-rule="evenodd"/><path d="M2049.91 1865 2063 1868.93 2053.45 1910 2040 1906.07 2049.91 1865Z" stroke="#FFFFFF" stroke-width="5.72917" stroke-miterlimit="8" fill="none" fill-rule="evenodd"/><path d="M2020.47 1857 2034 1861.68 2022.25 1902 2008 1898.4 2020.47 1857Z" stroke="#FFFFFF" stroke-width="5.72917" stroke-miterlimit="8" fill="none" fill-rule="evenodd"/><path d="M1990.55 1845 2004 1850.71 1989.45 1890 1976 1884.29 1990.55 1845Z" stroke="#FFFFFF" stroke-width="5.72917" stroke-miterlimit="8" fill="none" fill-rule="evenodd"/><path d="M1960.73 1833 1973 1838.85 1958.27 1878 1946 1872.15 1960.73 1833Z" stroke="#FFFFFF" stroke-width="5.72917" stroke-miterlimit="8" fill="none" fill-rule="evenodd"/><path d="M1932.2 1819 1945 1825.79 1928.54 1864 1915 1857.21 1932.2 1819Z" stroke="#FFFFFF" stroke-width="5.72917" stroke-miterlimit="8" fill="none" fill-rule="evenodd"/><path d="M1908.45 1804 1921 1812.66 1900.55 1848 1888 1840.43 1908.45 1804Z" stroke="#FFFFFF" stroke-width="5.72917" stroke-miterlimit="8" fill="none" fill-rule="evenodd"/><path d="M1881.47 1786 1894 1794.8 1871.81 1830 1860 1821.2 1881.47 1786Z" stroke="#FFFFFF" stroke-width="5.72917" stroke-miterlimit="8" fill="none" fill-rule="evenodd"/><path d="M1856.21 1767 1868 1775.6 1844.79 1810 1833 1800.68 1856.21 1767Z" stroke="#FFFFFF" stroke-width="5.72917" stroke-miterlimit="8" fill="none" fill-rule="evenodd"/><path d="M1833.12 1746 1844 1756.41 1817.88 1788 1807 1777.59 1833.12 1746Z" stroke="#FFFFFF" stroke-width="5.72917" stroke-miterlimit="8" fill="none" fill-rule="evenodd"/><path d="M0 0 40.0002 0.999672" stroke="#FFFFFF" stroke-width="5.72917" stroke-miterlimit="8" fill="none" fill-rule="evenodd" transform="matrix(-1 0 0 1 1633 1300)"/><path d="M1634.27 1318 1635 1334.23 1594.73 1338 1594 1322.15 1634.27 1318Z" stroke="#FFFFFF" stroke-width="5.72917" stroke-miterlimit="8" fill="none" fill-rule="evenodd"/><path d="M1636.21 1351 1638 1366.15 1599.79 1373 1598 1357.49 1636.21 1351Z" stroke="#FFFFFF" stroke-width="5.72917" stroke-miterlimit="8" fill="none" fill-rule="evenodd"/><path d="M1640.15 1384 1643 1398.33 1604.5 1408 1602 1392.6 1640.15 1384Z" stroke="#FFFFFF" stroke-width="5.72917" stroke-miterlimit="8" fill="none" fill-rule="evenodd"/><path d="M1643.41 1416 1647 1431.53 1608.59 1442 1605 1426.47 1643.41 1416Z" stroke="#FFFFFF" stroke-width="5.72917" stroke-miterlimit="8" fill="none" fill-rule="evenodd"/><path d="M1654.41 1448 1658 1463.64 1620.31 1476 1616 1461.45 1654.41 1448Z" stroke="#FFFFFF" stroke-width="5.72917" stroke-miterlimit="8" fill="none" fill-rule="evenodd"/><path d="M1661.62 1480 1667 1494.46 1630.38 1510 1625 1495.54 1661.62 1480Z" stroke="#FFFFFF" stroke-width="5.72917" stroke-miterlimit="8" fill="none" fill-rule="evenodd"/><path d="M1672.62 1512 1678 1525.06 1642.1 1542 1636 1527.88 1672.62 1512Z" stroke="#FFFFFF" stroke-width="5.72917" stroke-miterlimit="8" fill="none" fill-rule="evenodd"/><path d="M1685.52 1542 1691 1555.82 1655.57 1574 1649 1559.45 1685.52 1542Z" stroke="#FFFFFF" stroke-width="5.72917" stroke-miterlimit="8" fill="none" fill-rule="evenodd"/><path d="M1698.87 1570 1706 1583.49 1672.84 1605 1665 1591.15 1698.87 1570Z" stroke="#FFFFFF" stroke-width="5.72917" stroke-miterlimit="8" fill="none" fill-rule="evenodd"/><path d="M1712.92 1598 1720 1610.73 1687.08 1634 1680 1621.27 1712.92 1598Z" stroke="#FFFFFF" stroke-width="5.72917" stroke-miterlimit="8" fill="none" fill-rule="evenodd"/><path d="M1809.14 1727 1820 1736.63 1792.86 1768 1782 1757.66 1809.14 1727Z" stroke="#FFFFFF" stroke-width="5.72917" stroke-miterlimit="8" fill="none" fill-rule="evenodd"/><path d="M1787.23 1701 1797 1711.68 1769.13 1743 1759 1731.61 1787.23 1701Z" stroke="#FFFFFF" stroke-width="5.72917" stroke-miterlimit="8" fill="none" fill-rule="evenodd"/><path d="M1767.14 1680 1776 1691.47 1745.86 1718 1737 1706.53 1767.14 1680Z" stroke="#FFFFFF" stroke-width="5.72917" stroke-miterlimit="8" fill="none" fill-rule="evenodd"/><path d="M1746.07 1653 1755 1665.43 1723.93 1691 1715 1678.57 1746.07 1653Z" stroke="#FFFFFF" stroke-width="5.72917" stroke-miterlimit="8" fill="none" fill-rule="evenodd"/><path d="M1728.65 1628 1737 1640.1 1705.07 1665 1696 1652.55 1728.65 1628Z" stroke="#FFFFFF" stroke-width="5.72917" stroke-miterlimit="8" fill="none" fill-rule="evenodd"/><path d="M2186.5 1905.5C1869.26 1905.5 1611.5 1631.16 1611.5 1293.5" stroke="#F78969" stroke-width="11.4583" stroke-miterlimit="8" fill="none" fill-rule="evenodd"/><path d="M2186.5 1888.56C2183.88 1889.53 2182.13 1890.5 2179.5 1890.5 2171.63 1890.5 2165.5 1883.72 2165.5 1875 2165.5 1866.28 2171.63 1859.5 2179.5 1859.5 2182.13 1859.5 2183.88 1860.47 2186.5 1861.44" stroke="#333333" stroke-width="2.86476" stroke-miterlimit="8" fill="#90CFBB" fill-rule="evenodd"/><path d="M2186.5 1888.56C2183.88 1889.53 2182.13 1890.5 2179.5 1890.5 2171.63 1890.5 2165.5 1883.72 2165.5 1875 2165.5 1866.28 2171.63 1859.5 2179.5 1859.5 2182.13 1859.5 2183.88 1860.47 2186.5 1861.44" stroke="#333333" stroke-width="2.86476" stroke-miterlimit="8" fill="none" fill-rule="evenodd"/><path d="M2135.5 1874C2135.5 1865.44 2141.77 1858.5 2149.5 1858.5 2157.23 1858.5 2163.5 1865.44 2163.5 1874 2163.5 1882.56 2157.23 1889.5 2149.5 1889.5 2141.77 1889.5 2135.5 1882.56 2135.5 1874Z" stroke="#333333" stroke-width="2.86476" stroke-miterlimit="8" fill="#90CFBB" fill-rule="evenodd"/><path d="M2104.5 1871C2104.5 1862.99 2110.99 1856.5 2119 1856.5 2127.01 1856.5 2133.5 1862.99 2133.5 1871 2133.5 1879.01 2127.01 1885.5 2119 1885.5 2110.99 1885.5 2104.5 1879.01 2104.5 1871Z" stroke="#333333" stroke-width="2.86476" stroke-miterlimit="8" fill="#90CFBB" fill-rule="evenodd"/><path d="M2074.5 1866C2074.5 1857.99 2080.77 1851.5 2088.5 1851.5 2096.23 1851.5 2102.5 1857.99 2102.5 1866 2102.5 1874.01 2096.23 1880.5 2088.5 1880.5 2080.77 1880.5 2074.5 1874.01 2074.5 1866Z" stroke="#333333" stroke-width="2.86476" stroke-miterlimit="8" fill="#90CFBB" fill-rule="evenodd"/><path d="M2045.5 1859C2045.5 1850.44 2051.54 1843.5 2059 1843.5 2066.46 1843.5 2072.5 1850.44 2072.5 1859 2072.5 1867.56 2066.46 1874.5 2059 1874.5 2051.54 1874.5 2045.5 1867.56 2045.5 1859Z" stroke="#333333" stroke-width="2.86476" stroke-miterlimit="8" fill="#90CFBB" fill-rule="evenodd"/><path d="M2016.5 1850.5C2016.5 1842.22 2022.77 1835.5 2030.5 1835.5 2038.23 1835.5 2044.5 1842.22 2044.5 1850.5 2044.5 1858.78 2038.23 1865.5 2030.5 1865.5 2022.77 1865.5 2016.5 1858.78 2016.5 1850.5Z" stroke="#333333" stroke-width="2.86476" stroke-miterlimit="8" fill="#90CFBB" fill-rule="evenodd"/><path d="M1986.5 1841C1986.5 1832.44 1992.99 1825.5 2001 1825.5 2009.01 1825.5 2015.5 1832.44 2015.5 1841 2015.5 1849.56 2009.01 1856.5 2001 1856.5 1992.99 1856.5 1986.5 1849.56 1986.5 1841Z" stroke="#333333" stroke-width="2.86476" stroke-miterlimit="8" fill="#90CFBB" fill-rule="evenodd"/><path d="M1958.5 1829C1958.5 1820.44 1964.99 1813.5 1973 1813.5 1981.01 1813.5 1987.5 1820.44 1987.5 1829 1987.5 1837.56 1981.01 1844.5 1973 1844.5 1964.99 1844.5 1958.5 1837.56 1958.5 1829Z" stroke="#333333" stroke-width="2.86476" stroke-miterlimit="8" fill="#90CFBB" fill-rule="evenodd"/><path d="M1930.5 1815C1930.5 1806.44 1936.99 1799.5 1945 1799.5 1953.01 1799.5 1959.5 1806.44 1959.5 1815 1959.5 1823.56 1953.01 1830.5 1945 1830.5 1936.99 1830.5 1930.5 1823.56 1930.5 1815Z" stroke="#333333" stroke-width="2.86476" stroke-miterlimit="8" fill="#90CFBB" fill-rule="evenodd"/><path d="M1904.5 1799.5C1904.5 1791.22 1910.99 1784.5 1919 1784.5 1927.01 1784.5 1933.5 1791.22 1933.5 1799.5 1933.5 1807.78 1927.01 1814.5 1919 1814.5 1910.99 1814.5 1904.5 1807.78 1904.5 1799.5Z" stroke="#333333" stroke-width="2.86476" stroke-miterlimit="8" fill="#90CFBB" fill-rule="evenodd"/><path d="M1878.5 1783C1878.5 1774.44 1884.99 1767.5 1893 1767.5 1901.01 1767.5 1907.5 1774.44 1907.5 1783 1907.5 1791.56 1901.01 1798.5 1893 1798.5 1884.99 1798.5 1878.5 1791.56 1878.5 1783Z" stroke="#333333" stroke-width="2.86476" stroke-miterlimit="8" fill="#90CFBB" fill-rule="evenodd"/><path d="M1854.5 1763C1854.5 1754.44 1860.99 1747.5 1869 1747.5 1877.01 1747.5 1883.5 1754.44 1883.5 1763 1883.5 1771.56 1877.01 1778.5 1869 1778.5 1860.99 1778.5 1854.5 1771.56 1854.5 1763Z" stroke="#333333" stroke-width="2.86476" stroke-miterlimit="8" fill="#90CFBB" fill-rule="evenodd"/><path d="M1829.5 1744.5C1829.5 1736.22 1835.77 1729.5 1843.5 1729.5 1851.23 1729.5 1857.5 1736.22 1857.5 1744.5 1857.5 1752.78 1851.23 1759.5 1843.5 1759.5 1835.77 1759.5 1829.5 1752.78 1829.5 1744.5Z" stroke="#333333" stroke-width="2.86476" stroke-miterlimit="8" fill="#90CFBB" fill-rule="evenodd"/><path d="M1806.5 1724.5C1806.5 1716.22 1812.77 1709.5 1820.5 1709.5 1828.23 1709.5 1834.5 1716.22 1834.5 1724.5 1834.5 1732.78 1828.23 1739.5 1820.5 1739.5 1812.77 1739.5 1806.5 1732.78 1806.5 1724.5Z" stroke="#333333" stroke-width="2.86476" stroke-miterlimit="8" fill="#90CFBB" fill-rule="evenodd"/><path d="M1784.5 1701.5C1784.5 1693.22 1790.77 1686.5 1798.5 1686.5 1806.23 1686.5 1812.5 1693.22 1812.5 1701.5 1812.5 1709.78 1806.23 1716.5 1798.5 1716.5 1790.77 1716.5 1784.5 1709.78 1784.5 1701.5Z" stroke="#333333" stroke-width="2.86476" stroke-miterlimit="8" fill="#90CFBB" fill-rule="evenodd"/><path d="M1763.5 1678C1763.5 1669.44 1769.77 1662.5 1777.5 1662.5 1785.23 1662.5 1791.5 1669.44 1791.5 1678 1791.5 1686.56 1785.23 1693.5 1777.5 1693.5 1769.77 1693.5 1763.5 1686.56 1763.5 1678Z" stroke="#333333" stroke-width="2.86476" stroke-miterlimit="8" fill="#90CFBB" fill-rule="evenodd"/><path d="M1744.5 1653C1744.5 1644.44 1750.99 1637.5 1759 1637.5 1767.01 1637.5 1773.5 1644.44 1773.5 1653 1773.5 1661.56 1767.01 1668.5 1759 1668.5 1750.99 1668.5 1744.5 1661.56 1744.5 1653Z" stroke="#333333" stroke-width="2.86476" stroke-miterlimit="8" fill="#90CFBB" fill-rule="evenodd"/><path d="M1726.5 1627C1726.5 1618.44 1732.99 1611.5 1741 1611.5 1749.01 1611.5 1755.5 1618.44 1755.5 1627 1755.5 1635.56 1749.01 1642.5 1741 1642.5 1732.99 1642.5 1726.5 1635.56 1726.5 1627Z" stroke="#333333" stroke-width="2.86476" stroke-miterlimit="8" fill="#90CFBB" fill-rule="evenodd"/><path d="M1709.5 1600C1709.5 1591.99 1715.77 1585.5 1723.5 1585.5 1731.23 1585.5 1737.5 1591.99 1737.5 1600 1737.5 1608.01 1731.23 1614.5 1723.5 1614.5 1715.77 1614.5 1709.5 1608.01 1709.5 1600Z" stroke="#333333" stroke-width="2.86476" stroke-miterlimit="8" fill="#90CFBB" fill-rule="evenodd"/><path d="M1694.5 1572C1694.5 1563.99 1700.99 1557.5 1709 1557.5 1717.01 1557.5 1723.5 1563.99 1723.5 1572 1723.5 1580.01 1717.01 1586.5 1709 1586.5 1700.99 1586.5 1694.5 1580.01 1694.5 1572Z" stroke="#333333" stroke-width="2.86476" stroke-miterlimit="8" fill="#90CFBB" fill-rule="evenodd"/><path d="M1680.5 1544C1680.5 1535.44 1686.99 1528.5 1695 1528.5 1703.01 1528.5 1709.5 1535.44 1709.5 1544 1709.5 1552.56 1703.01 1559.5 1695 1559.5 1686.99 1559.5 1680.5 1552.56 1680.5 1544Z" stroke="#333333" stroke-width="2.86476" stroke-miterlimit="8" fill="#90CFBB" fill-rule="evenodd"/><path d="M1668.5 1514.5C1668.5 1506.22 1674.77 1499.5 1682.5 1499.5 1690.23 1499.5 1696.5 1506.22 1696.5 1514.5 1696.5 1522.78 1690.23 1529.5 1682.5 1529.5 1674.77 1529.5 1668.5 1522.78 1668.5 1514.5Z" stroke="#333333" stroke-width="2.86476" stroke-miterlimit="8" fill="#90CFBB" fill-rule="evenodd"/><path d="M1656.5 1484C1656.5 1475.44 1662.99 1468.5 1671 1468.5 1679.01 1468.5 1685.5 1475.44 1685.5 1484 1685.5 1492.56 1679.01 1499.5 1671 1499.5 1662.99 1499.5 1656.5 1492.56 1656.5 1484Z" stroke="#333333" stroke-width="2.86476" stroke-miterlimit="8" fill="#90CFBB" fill-rule="evenodd"/><path d="M1648.5 1453C1648.5 1444.99 1654.77 1438.5 1662.5 1438.5 1670.23 1438.5 1676.5 1444.99 1676.5 1453 1676.5 1461.01 1670.23 1467.5 1662.5 1467.5 1654.77 1467.5 1648.5 1461.01 1648.5 1453Z" stroke="#333333" stroke-width="2.86476" stroke-miterlimit="8" fill="#90CFBB" fill-rule="evenodd"/><path d="M1640.5 1422C1640.5 1413.44 1646.99 1406.5 1655 1406.5 1663.01 1406.5 1669.5 1413.44 1669.5 1422 1669.5 1430.56 1663.01 1437.5 1655 1437.5 1646.99 1437.5 1640.5 1430.56 1640.5 1422Z" stroke="#333333" stroke-width="2.86476" stroke-miterlimit="8" fill="#90CFBB" fill-rule="evenodd"/><path d="M1635.5 1389.5C1635.5 1381.22 1641.99 1374.5 1650 1374.5 1658.01 1374.5 1664.5 1381.22 1664.5 1389.5 1664.5 1397.78 1658.01 1404.5 1650 1404.5 1641.99 1404.5 1635.5 1397.78 1635.5 1389.5Z" stroke="#333333" stroke-width="2.86476" stroke-miterlimit="8" fill="#90CFBB" fill-rule="evenodd"/><path d="M1630.5 1357C1630.5 1348.44 1636.99 1341.5 1645 1341.5 1653.01 1341.5 1659.5 1348.44 1659.5 1357 1659.5 1365.56 1653.01 1372.5 1645 1372.5 1636.99 1372.5 1630.5 1365.56 1630.5 1357Z" stroke="#333333" stroke-width="2.86476" stroke-miterlimit="8" fill="#90CFBB" fill-rule="evenodd"/><path d="M1628.5 1325C1628.5 1316.44 1634.77 1309.5 1642.5 1309.5 1650.23 1309.5 1656.5 1316.44 1656.5 1325 1656.5 1333.56 1650.23 1340.5 1642.5 1340.5 1634.77 1340.5 1628.5 1333.56 1628.5 1325Z" stroke="#333333" stroke-width="2.86476" stroke-miterlimit="8" fill="#90CFBB" fill-rule="evenodd"/><path d="M1655.5 1293.5C1655.5 1293.5 1655.5 1293.5 1655.5 1293.5 1655.5 1301.94 1649.16 1308.5 1641 1308.5 1633.75 1308.5 1626.5 1301.94 1626.5 1293.5 1626.5 1293.5 1626.5 1293.5 1626.5 1293.5" stroke="#333333" stroke-width="2.86476" stroke-miterlimit="8" fill="#90CFBB" fill-rule="evenodd"/><path d="M1655.5 1293.5C1655.5 1293.5 1655.5 1293.5 1655.5 1293.5 1655.5 1301.94 1649.16 1308.5 1641 1308.5 1633.75 1308.5 1626.5 1301.94 1626.5 1293.5 1626.5 1293.5 1626.5 1293.5 1626.5 1293.5" stroke="#333333" stroke-width="2.86476" stroke-miterlimit="8" fill="none" fill-rule="evenodd"/><path d="M2186.5 1948.65C2183.81 1951.56 2180.22 1953.5 2175.74 1953.5 2167.67 1953.5 2160.5 1945.74 2160.5 1937.02 2160.5 1928.29 2167.67 1921.5 2175.74 1921.5 2180.22 1921.5 2183.81 1923.44 2186.5 1926.35" stroke="#333333" stroke-width="2.86476" stroke-miterlimit="8" fill="#90CFBB" fill-rule="evenodd"/><path d="M2186.5 1948.65C2183.81 1951.56 2180.22 1953.5 2175.74 1953.5 2167.67 1953.5 2160.5 1945.74 2160.5 1937.02 2160.5 1928.29 2167.67 1921.5 2175.74 1921.5 2180.22 1921.5 2183.81 1923.44 2186.5 1926.35" stroke="#333333" stroke-width="2.86476" stroke-miterlimit="8" fill="none" fill-rule="evenodd"/><path d="M2128.5 1935.5C2128.5 1926.66 2134.99 1919.5 2143 1919.5 2151.01 1919.5 2157.5 1926.66 2157.5 1935.5 2157.5 1944.34 2151.01 1951.5 2143 1951.5 2134.99 1951.5 2128.5 1944.34 2128.5 1935.5Z" stroke="#333333" stroke-width="2.86476" stroke-miterlimit="8" fill="#90CFBB" fill-rule="evenodd"/><path d="M2093.5 1932.5C2093.5 1923.66 2100.22 1916.5 2108.5 1916.5 2116.78 1916.5 2123.5 1923.66 2123.5 1932.5 2123.5 1941.34 2116.78 1948.5 2108.5 1948.5 2100.22 1948.5 2093.5 1941.34 2093.5 1932.5Z" stroke="#333333" stroke-width="2.86476" stroke-miterlimit="8" fill="#90CFBB" fill-rule="evenodd"/><path d="M2061.5 1926.5C2061.5 1917.66 2068.22 1910.5 2076.5 1910.5 2084.78 1910.5 2091.5 1917.66 2091.5 1926.5 2091.5 1935.34 2084.78 1942.5 2076.5 1942.5 2068.22 1942.5 2061.5 1935.34 2061.5 1926.5Z" stroke="#333333" stroke-width="2.86476" stroke-miterlimit="8" fill="#90CFBB" fill-rule="evenodd"/><path d="M2028.5 1918.5C2028.5 1909.66 2035.22 1902.5 2043.5 1902.5 2051.78 1902.5 2058.5 1909.66 2058.5 1918.5 2058.5 1927.34 2051.78 1934.5 2043.5 1934.5 2035.22 1934.5 2028.5 1927.34 2028.5 1918.5Z" stroke="#333333" stroke-width="2.86476" stroke-miterlimit="8" fill="#90CFBB" fill-rule="evenodd"/><path d="M1996.5 1910C1996.5 1901.44 2003.22 1894.5 2011.5 1894.5 2019.78 1894.5 2026.5 1901.44 2026.5 1910 2026.5 1918.56 2019.78 1925.5 2011.5 1925.5 2003.22 1925.5 1996.5 1918.56 1996.5 1910Z" stroke="#333333" stroke-width="2.86476" stroke-miterlimit="8" fill="#90CFBB" fill-rule="evenodd"/><path d="M1964.5 1898.5C1964.5 1889.66 1971.22 1882.5 1979.5 1882.5 1987.78 1882.5 1994.5 1889.66 1994.5 1898.5 1994.5 1907.34 1987.78 1914.5 1979.5 1914.5 1971.22 1914.5 1964.5 1907.34 1964.5 1898.5Z" stroke="#333333" stroke-width="2.86476" stroke-miterlimit="8" fill="#90CFBB" fill-rule="evenodd"/><path d="M1933.5 1886.5C1933.5 1877.66 1940.22 1870.5 1948.5 1870.5 1956.78 1870.5 1963.5 1877.66 1963.5 1886.5 1963.5 1895.34 1956.78 1902.5 1948.5 1902.5 1940.22 1902.5 1933.5 1895.34 1933.5 1886.5Z" stroke="#333333" stroke-width="2.86476" stroke-miterlimit="8" fill="#90CFBB" fill-rule="evenodd"/><path d="M1903.5 1871C1903.5 1862.44 1910.22 1855.5 1918.5 1855.5 1926.78 1855.5 1933.5 1862.44 1933.5 1871 1933.5 1879.56 1926.78 1886.5 1918.5 1886.5 1910.22 1886.5 1903.5 1879.56 1903.5 1871Z" stroke="#333333" stroke-width="2.86476" stroke-miterlimit="8" fill="#90CFBB" fill-rule="evenodd"/><path d="M1874.5 1853.5C1874.5 1844.66 1880.99 1837.5 1889 1837.5 1897.01 1837.5 1903.5 1844.66 1903.5 1853.5 1903.5 1862.34 1897.01 1869.5 1889 1869.5 1880.99 1869.5 1874.5 1862.34 1874.5 1853.5Z" stroke="#333333" stroke-width="2.86476" stroke-miterlimit="8" fill="#90CFBB" fill-rule="evenodd"/><path d="M1845.5 1835.5C1845.5 1826.66 1852.22 1819.5 1860.5 1819.5 1868.78 1819.5 1875.5 1826.66 1875.5 1835.5 1875.5 1844.34 1868.78 1851.5 1860.5 1851.5 1852.22 1851.5 1845.5 1844.34 1845.5 1835.5Z" stroke="#333333" stroke-width="2.86476" stroke-miterlimit="8" fill="#90CFBB" fill-rule="evenodd"/><path d="M1818.5 1813.5C1818.5 1804.66 1825.22 1797.5 1833.5 1797.5 1841.78 1797.5 1848.5 1804.66 1848.5 1813.5 1848.5 1822.34 1841.78 1829.5 1833.5 1829.5 1825.22 1829.5 1818.5 1822.34 1818.5 1813.5Z" stroke="#333333" stroke-width="2.86476" stroke-miterlimit="8" fill="#90CFBB" fill-rule="evenodd"/><path d="M1791.5 1794C1791.5 1785.44 1797.99 1778.5 1806 1778.5 1814.01 1778.5 1820.5 1785.44 1820.5 1794 1820.5 1802.56 1814.01 1809.5 1806 1809.5 1797.99 1809.5 1791.5 1802.56 1791.5 1794Z" stroke="#333333" stroke-width="2.86476" stroke-miterlimit="8" fill="#90CFBB" fill-rule="evenodd"/><path d="M1765.5 1771.5C1765.5 1762.66 1772.22 1755.5 1780.5 1755.5 1788.78 1755.5 1795.5 1762.66 1795.5 1771.5 1795.5 1780.34 1788.78 1787.5 1780.5 1787.5 1772.22 1787.5 1765.5 1780.34 1765.5 1771.5Z" stroke="#333333" stroke-width="2.86476" stroke-miterlimit="8" fill="#90CFBB" fill-rule="evenodd"/><path d="M1742.5 1745.5C1742.5 1736.66 1749.22 1729.5 1757.5 1729.5 1765.78 1729.5 1772.5 1736.66 1772.5 1745.5 1772.5 1754.34 1765.78 1761.5 1757.5 1761.5 1749.22 1761.5 1742.5 1754.34 1742.5 1745.5Z" stroke="#333333" stroke-width="2.86476" stroke-miterlimit="8" fill="#90CFBB" fill-rule="evenodd"/><path d="M1719.5 1721C1719.5 1712.44 1725.99 1705.5 1734 1705.5 1742.01 1705.5 1748.5 1712.44 1748.5 1721 1748.5 1729.56 1742.01 1736.5 1734 1736.5 1725.99 1736.5 1719.5 1729.56 1719.5 1721Z" stroke="#333333" stroke-width="2.86476" stroke-miterlimit="8" fill="#90CFBB" fill-rule="evenodd"/><path d="M1698.5 1693.5C1698.5 1684.66 1705.22 1677.5 1713.5 1677.5 1721.78 1677.5 1728.5 1684.66 1728.5 1693.5 1728.5 1702.34 1721.78 1709.5 1713.5 1709.5 1705.22 1709.5 1698.5 1702.34 1698.5 1693.5Z" stroke="#333333" stroke-width="2.86476" stroke-miterlimit="8" fill="#90CFBB" fill-rule="evenodd"/><path d="M1677.5 1664.5C1677.5 1655.66 1684.44 1648.5 1693 1648.5 1701.56 1648.5 1708.5 1655.66 1708.5 1664.5 1708.5 1673.34 1701.56 1680.5 1693 1680.5 1684.44 1680.5 1677.5 1673.34 1677.5 1664.5Z" stroke="#333333" stroke-width="2.86476" stroke-miterlimit="8" fill="#90CFBB" fill-rule="evenodd"/><path d="M1659.5 1634.5C1659.5 1625.66 1666.22 1618.5 1674.5 1618.5 1682.78 1618.5 1689.5 1625.66 1689.5 1634.5 1689.5 1643.34 1682.78 1650.5 1674.5 1650.5 1666.22 1650.5 1659.5 1643.34 1659.5 1634.5Z" stroke="#333333" stroke-width="2.86476" stroke-miterlimit="8" fill="#90CFBB" fill-rule="evenodd"/><path d="M1643.5 1604C1643.5 1595.44 1650.22 1588.5 1658.5 1588.5 1666.78 1588.5 1673.5 1595.44 1673.5 1604 1673.5 1612.56 1666.78 1619.5 1658.5 1619.5 1650.22 1619.5 1643.5 1612.56 1643.5 1604Z" stroke="#333333" stroke-width="2.86476" stroke-miterlimit="8" fill="#90CFBB" fill-rule="evenodd"/><path d="M1627.5 1572.5C1627.5 1563.66 1633.99 1556.5 1642 1556.5 1650.01 1556.5 1656.5 1563.66 1656.5 1572.5 1656.5 1581.34 1650.01 1588.5 1642 1588.5 1633.99 1588.5 1627.5 1581.34 1627.5 1572.5Z" stroke="#333333" stroke-width="2.86476" stroke-miterlimit="8" fill="#90CFBB" fill-rule="evenodd"/><path d="M1614.5 1540.5C1614.5 1531.66 1621.22 1524.5 1629.5 1524.5 1637.78 1524.5 1644.5 1531.66 1644.5 1540.5 1644.5 1549.34 1637.78 1556.5 1629.5 1556.5 1621.22 1556.5 1614.5 1549.34 1614.5 1540.5Z" stroke="#333333" stroke-width="2.86476" stroke-miterlimit="8" fill="#90CFBB" fill-rule="evenodd"/><path d="M1602.5 1506.5C1602.5 1497.66 1608.99 1490.5 1617 1490.5 1625.01 1490.5 1631.5 1497.66 1631.5 1506.5 1631.5 1515.34 1625.01 1522.5 1617 1522.5 1608.99 1522.5 1602.5 1515.34 1602.5 1506.5Z" stroke="#333333" stroke-width="2.86476" stroke-miterlimit="8" fill="#90CFBB" fill-rule="evenodd"/><path d="M1593.5 1472C1593.5 1463.44 1599.99 1456.5 1608 1456.5 1616.01 1456.5 1622.5 1463.44 1622.5 1472 1622.5 1480.56 1616.01 1487.5 1608 1487.5 1599.99 1487.5 1593.5 1480.56 1593.5 1472Z" stroke="#333333" stroke-width="2.86476" stroke-miterlimit="8" fill="#90CFBB" fill-rule="evenodd"/><path d="M1584.5 1438.5C1584.5 1429.66 1590.99 1422.5 1599 1422.5 1607.01 1422.5 1613.5 1429.66 1613.5 1438.5 1613.5 1447.34 1607.01 1454.5 1599 1454.5 1590.99 1454.5 1584.5 1447.34 1584.5 1438.5Z" stroke="#333333" stroke-width="2.86476" stroke-miterlimit="8" fill="#90CFBB" fill-rule="evenodd"/><path d="M1577.5 1403C1577.5 1394.44 1584.22 1387.5 1592.5 1387.5 1600.78 1387.5 1607.5 1394.44 1607.5 1403 1607.5 1411.56 1600.78 1418.5 1592.5 1418.5 1584.22 1418.5 1577.5 1411.56 1577.5 1403Z" stroke="#333333" stroke-width="2.86476" stroke-miterlimit="8" fill="#90CFBB" fill-rule="evenodd"/><path d="M1573.5 1367.5C1573.5 1358.66 1579.99 1351.5 1588 1351.5 1596.01 1351.5 1602.5 1358.66 1602.5 1367.5 1602.5 1376.34 1596.01 1383.5 1588 1383.5 1579.99 1383.5 1573.5 1376.34 1573.5 1367.5Z" stroke="#333333" stroke-width="2.86476" stroke-miterlimit="8" fill="#90CFBB" fill-rule="evenodd"/><path d="M1570.5 1332C1570.5 1323.44 1577.22 1316.5 1585.5 1316.5 1593.78 1316.5 1600.5 1323.44 1600.5 1332 1600.5 1340.56 1593.78 1347.5 1585.5 1347.5 1577.22 1347.5 1570.5 1340.56 1570.5 1332Z" stroke="#333333" stroke-width="2.86476" stroke-miterlimit="8" fill="#90CFBB" fill-rule="evenodd"/><path d="M1597.59 1293.5C1598.5 1295.4 1598.5 1296.36 1598.5 1297.31 1598.5 1305.88 1591.23 1313.5 1583.05 1313.5 1574.86 1313.5 1568.5 1305.88 1568.5 1297.31 1568.5 1296.36 1568.5 1295.4 1568.5 1293.5" stroke="#333333" stroke-width="2.86476" stroke-miterlimit="8" fill="#90CFBB" fill-rule="evenodd"/><path d="M1597.59 1293.5C1598.5 1295.4 1598.5 1296.36 1598.5 1297.31 1598.5 1305.88 1591.23 1313.5 1583.05 1313.5 1574.86 1313.5 1568.5 1305.88 1568.5 1297.31 1568.5 1296.36 1568.5 1295.4 1568.5 1293.5" stroke="#333333" stroke-width="2.86476" stroke-miterlimit="8" fill="none" fill-rule="evenodd"/><path d="M1575 1329C1575 1325.69 1577.24 1323 1580 1323 1582.76 1323 1585 1325.69 1585 1329 1585 1332.31 1582.76 1335 1580 1335 1577.24 1335 1575 1332.31 1575 1329Z" fill="#FFFFFF" fill-rule="evenodd"/><path d="M1578 1363C1578 1359.69 1580.46 1357 1583.5 1357 1586.54 1357 1589 1359.69 1589 1363 1589 1366.31 1586.54 1369 1583.5 1369 1580.46 1369 1578 1366.31 1578 1363Z" fill="#FFFFFF" fill-rule="evenodd"/><path d="M1584 1399C1584 1395.69 1586.24 1393 1589 1393 1591.76 1393 1594 1395.69 1594 1399 1594 1402.31 1591.76 1405 1589 1405 1586.24 1405 1584 1402.31 1584 1399Z" fill="#FFFFFF" fill-rule="evenodd"/><path d="M1637 1354C1637 1350.69 1639.24 1348 1642 1348 1644.76 1348 1647 1350.69 1647 1354 1647 1357.31 1644.76 1360 1642 1360 1639.24 1360 1637 1357.31 1637 1354Z" fill="#FFFFFF" fill-rule="evenodd"/><path d="M1634 1319.5C1634 1316.46 1636.46 1314 1639.5 1314 1642.54 1314 1645 1316.46 1645 1319.5 1645 1322.54 1642.54 1325 1639.5 1325 1636.46 1325 1634 1322.54 1634 1319.5Z" fill="#FFFFFF" fill-rule="evenodd"/><path d="M1640 1386.5C1640 1383.46 1642.46 1381 1645.5 1381 1648.54 1381 1651 1383.46 1651 1386.5 1651 1389.54 1648.54 1392 1645.5 1392 1642.46 1392 1640 1389.54 1640 1386.5Z" fill="#FFFFFF" fill-rule="evenodd"/><path d="M1647 1416.5C1647 1413.46 1649.24 1411 1652 1411 1654.76 1411 1657 1413.46 1657 1416.5 1657 1419.54 1654.76 1422 1652 1422 1649.24 1422 1647 1419.54 1647 1416.5Z" fill="#FFFFFF" fill-rule="evenodd"/><path d="M1654 1450C1654 1446.69 1656.46 1444 1659.5 1444 1662.54 1444 1665 1446.69 1665 1450 1665 1453.31 1662.54 1456 1659.5 1456 1656.46 1456 1654 1453.31 1654 1450Z" fill="#FFFFFF" fill-rule="evenodd"/><path d="M1662 1481C1662 1477.69 1664.46 1475 1667.5 1475 1670.54 1475 1673 1477.69 1673 1481 1673 1484.31 1670.54 1487 1667.5 1487 1664.46 1487 1662 1484.31 1662 1481Z" fill="#FFFFFF" fill-rule="evenodd"/><path d="M1590 1435C1590 1431.69 1592.24 1429 1595 1429 1597.76 1429 1600 1431.69 1600 1435 1600 1438.31 1597.76 1441 1595 1441 1592.24 1441 1590 1438.31 1590 1435Z" fill="#FFFFFF" fill-rule="evenodd"/><path d="M1597 1468.5C1597 1465.46 1599.46 1463 1602.5 1463 1605.54 1463 1608 1465.46 1608 1468.5 1608 1471.54 1605.54 1474 1602.5 1474 1599.46 1474 1597 1471.54 1597 1468.5Z" fill="#FFFFFF" fill-rule="evenodd"/><path d="M1607 1503C1607 1499.69 1609.46 1497 1612.5 1497 1615.54 1497 1618 1499.69 1618 1503 1618 1506.31 1615.54 1509 1612.5 1509 1609.46 1509 1607 1506.31 1607 1503Z" fill="#FFFFFF" fill-rule="evenodd"/><path d="M1620 1535.5C1620 1532.46 1622.24 1530 1625 1530 1627.76 1530 1630 1532.46 1630 1535.5 1630 1538.54 1627.76 1541 1625 1541 1622.24 1541 1620 1538.54 1620 1535.5Z" fill="#FFFFFF" fill-rule="evenodd"/><path d="M1634 1570C1634 1566.69 1636.46 1564 1639.5 1564 1642.54 1564 1645 1566.69 1645 1570 1645 1573.31 1642.54 1576 1639.5 1576 1636.46 1576 1634 1573.31 1634 1570Z" fill="#FFFFFF" fill-rule="evenodd"/><path d="M1648 1599C1648 1595.69 1650.46 1593 1653.5 1593 1656.54 1593 1659 1595.69 1659 1599 1659 1602.31 1656.54 1605 1653.5 1605 1650.46 1605 1648 1602.31 1648 1599Z" fill="#FFFFFF" fill-rule="evenodd"/><path d="M1665 1629.5C1665 1626.46 1667.24 1624 1670 1624 1672.76 1624 1675 1626.46 1675 1629.5 1675 1632.54 1672.76 1635 1670 1635 1667.24 1635 1665 1632.54 1665 1629.5Z" fill="#FFFFFF" fill-rule="evenodd"/><path d="M1683 1660.5C1683 1657.46 1685.46 1655 1688.5 1655 1691.54 1655 1694 1657.46 1694 1660.5 1694 1663.54 1691.54 1666 1688.5 1666 1685.46 1666 1683 1663.54 1683 1660.5Z" fill="#FFFFFF" fill-rule="evenodd"/><path d="M1704 1689C1704 1685.69 1706.46 1683 1709.5 1683 1712.54 1683 1715 1685.69 1715 1689 1715 1692.31 1712.54 1695 1709.5 1695 1706.46 1695 1704 1692.31 1704 1689Z" fill="#FFFFFF" fill-rule="evenodd"/><path d="M1725 1717C1725 1713.69 1727.46 1711 1730.5 1711 1733.54 1711 1736 1713.69 1736 1717 1736 1720.31 1733.54 1723 1730.5 1723 1727.46 1723 1725 1720.31 1725 1717Z" fill="#FFFFFF" fill-rule="evenodd"/><path d="M1673 1510.5C1673 1507.46 1675.24 1505 1678 1505 1680.76 1505 1683 1507.46 1683 1510.5 1683 1513.54 1680.76 1516 1678 1516 1675.24 1516 1673 1513.54 1673 1510.5Z" fill="#FFFFFF" fill-rule="evenodd"/><path d="M1684 1539.5C1684 1536.46 1686.46 1534 1689.5 1534 1692.54 1534 1695 1536.46 1695 1539.5 1695 1542.54 1692.54 1545 1689.5 1545 1686.46 1545 1684 1542.54 1684 1539.5Z" fill="#FFFFFF" fill-rule="evenodd"/><path d="M1701 1570C1701 1566.69 1703.24 1564 1706 1564 1708.76 1564 1711 1566.69 1711 1570 1711 1573.31 1708.76 1576 1706 1576 1703.24 1576 1701 1573.31 1701 1570Z" fill="#FFFFFF" fill-rule="evenodd"/><path d="M1713 1597C1713 1593.69 1715.46 1591 1718.5 1591 1721.54 1591 1724 1593.69 1724 1597 1724 1600.31 1721.54 1603 1718.5 1603 1715.46 1603 1713 1600.31 1713 1597Z" fill="#FFFFFF" fill-rule="evenodd"/><path d="M1731 1624C1731 1620.69 1733.46 1618 1736.5 1618 1739.54 1618 1742 1620.69 1742 1624 1742 1627.31 1739.54 1630 1736.5 1630 1733.46 1630 1731 1627.31 1731 1624Z" fill="#FFFFFF" fill-rule="evenodd"/><path d="M1749 1651C1749 1647.69 1751.46 1645 1754.5 1645 1757.54 1645 1760 1647.69 1760 1651 1760 1654.31 1757.54 1657 1754.5 1657 1751.46 1657 1749 1654.31 1749 1651Z" fill="#FFFFFF" fill-rule="evenodd"/><path d="M1767 1676C1767 1672.69 1769.46 1670 1772.5 1670 1775.54 1670 1778 1672.69 1778 1676 1778 1679.31 1775.54 1682 1772.5 1682 1769.46 1682 1767 1679.31 1767 1676Z" fill="#FFFFFF" fill-rule="evenodd"/><path d="M1789 1699C1789 1695.69 1791.46 1693 1794.5 1693 1797.54 1693 1800 1695.69 1800 1699 1800 1702.31 1797.54 1705 1794.5 1705 1791.46 1705 1789 1702.31 1789 1699Z" fill="#FFFFFF" fill-rule="evenodd"/><path d="M1811 1723C1811 1719.69 1813.24 1717 1816 1717 1818.76 1717 1821 1719.69 1821 1723 1821 1726.31 1818.76 1729 1816 1729 1813.24 1729 1811 1726.31 1811 1723Z" fill="#FFFFFF" fill-rule="evenodd"/><path d="M1832 1743C1832 1739.69 1834.46 1737 1837.5 1737 1840.54 1737 1843 1739.69 1843 1743 1843 1746.31 1840.54 1749 1837.5 1749 1834.46 1749 1832 1746.31 1832 1743Z" fill="#FFFFFF" fill-rule="evenodd"/><path d="M1857 1761C1857 1757.69 1859.46 1755 1862.5 1755 1865.54 1755 1868 1757.69 1868 1761 1868 1764.31 1865.54 1767 1862.5 1767 1859.46 1767 1857 1764.31 1857 1761Z" fill="#FFFFFF" fill-rule="evenodd"/><path d="M1881 1781.5C1881 1778.46 1883.46 1776 1886.5 1776 1889.54 1776 1892 1778.46 1892 1781.5 1892 1784.54 1889.54 1787 1886.5 1787 1883.46 1787 1881 1784.54 1881 1781.5Z" fill="#FFFFFF" fill-rule="evenodd"/><path d="M1908 1798.5C1908 1795.46 1910.46 1793 1913.5 1793 1916.54 1793 1919 1795.46 1919 1798.5 1919 1801.54 1916.54 1804 1913.5 1804 1910.46 1804 1908 1801.54 1908 1798.5Z" fill="#FFFFFF" fill-rule="evenodd"/><path d="M1935 1812.5C1935 1809.46 1937.46 1807 1940.5 1807 1943.54 1807 1946 1809.46 1946 1812.5 1946 1815.54 1943.54 1818 1940.5 1818 1937.46 1818 1935 1815.54 1935 1812.5Z" fill="#FFFFFF" fill-rule="evenodd"/><path d="M1964 1825.5C1964 1822.46 1966.24 1820 1969 1820 1971.76 1820 1974 1822.46 1974 1825.5 1974 1828.54 1971.76 1831 1969 1831 1966.24 1831 1964 1828.54 1964 1825.5Z" fill="#FFFFFF" fill-rule="evenodd"/><path d="M1991 1837C1991 1833.69 1993.24 1831 1996 1831 1998.76 1831 2001 1833.69 2001 1837 2001 1840.31 1998.76 1843 1996 1843 1993.24 1843 1991 1840.31 1991 1837Z" fill="#FFFFFF" fill-rule="evenodd"/><path d="M2019 1849C2019 1845.69 2021.46 1843 2024.5 1843 2027.54 1843 2030 1845.69 2030 1849 2030 1852.31 2027.54 1855 2024.5 1855 2021.46 1855 2019 1852.31 2019 1849Z" fill="#FFFFFF" fill-rule="evenodd"/><path d="M2048 1856.5C2048 1853.46 2050.46 1851 2053.5 1851 2056.54 1851 2059 1853.46 2059 1856.5 2059 1859.54 2056.54 1862 2053.5 1862 2050.46 1862 2048 1859.54 2048 1856.5Z" fill="#FFFFFF" fill-rule="evenodd"/><path d="M2081 1861.5C2081 1858.46 2083.46 1856 2086.5 1856 2089.54 1856 2092 1858.46 2092 1861.5 2092 1864.54 2089.54 1867 2086.5 1867 2083.46 1867 2081 1864.54 2081 1861.5Z" fill="#FFFFFF" fill-rule="evenodd"/><path d="M2111 1867C2111 1863.69 2113.24 1861 2116 1861 2118.76 1861 2121 1863.69 2121 1867 2121 1870.31 2118.76 1873 2116 1873 2113.24 1873 2111 1870.31 2111 1867Z" fill="#FFFFFF" fill-rule="evenodd"/><path d="M2141 1870C2141 1866.69 2143.46 1864 2146.5 1864 2149.54 1864 2152 1866.69 2152 1870 2152 1873.31 2149.54 1876 2146.5 1876 2143.46 1876 2141 1873.31 2141 1870Z" fill="#FFFFFF" fill-rule="evenodd"/><path d="M2171 1872C2171 1868.69 2173.46 1866 2176.5 1866 2179.54 1866 2182 1868.69 2182 1872 2182 1875.31 2179.54 1878 2176.5 1878 2173.46 1878 2171 1875.31 2171 1872Z" fill="#FFFFFF" fill-rule="evenodd"/><path d="M2167 1931C2167 1927.69 2169.46 1925 2172.5 1925 2175.54 1925 2178 1927.69 2178 1931 2178 1934.31 2175.54 1937 2172.5 1937 2169.46 1937 2167 1934.31 2167 1931Z" fill="#FFFFFF" fill-rule="evenodd"/><path d="M2134 1931C2134 1927.69 2136.46 1925 2139.5 1925 2142.54 1925 2145 1927.69 2145 1931 2145 1934.31 2142.54 1937 2139.5 1937 2136.46 1937 2134 1934.31 2134 1931Z" fill="#FFFFFF" fill-rule="evenodd"/><path d="M2101 1926.5C2101 1923.46 2103.24 1921 2106 1921 2108.76 1921 2111 1923.46 2111 1926.5 2111 1929.54 2108.76 1932 2106 1932 2103.24 1932 2101 1929.54 2101 1926.5Z" fill="#FFFFFF" fill-rule="evenodd"/><path d="M2067 1921C2067 1917.69 2069.46 1915 2072.5 1915 2075.54 1915 2078 1917.69 2078 1921 2078 1924.31 2075.54 1927 2072.5 1927 2069.46 1927 2067 1924.31 2067 1921Z" fill="#FFFFFF" fill-rule="evenodd"/><path d="M2036 1913C2036 1909.69 2038.24 1907 2041 1907 2043.76 1907 2046 1909.69 2046 1913 2046 1916.31 2043.76 1919 2041 1919 2038.24 1919 2036 1916.31 2036 1913Z" fill="#FFFFFF" fill-rule="evenodd"/><path d="M2002 1904.5C2002 1901.46 2004.46 1899 2007.5 1899 2010.54 1899 2013 1901.46 2013 1904.5 2013 1907.54 2010.54 1910 2007.5 1910 2004.46 1910 2002 1907.54 2002 1904.5Z" fill="#FFFFFF" fill-rule="evenodd"/><path d="M1972 1893C1972 1889.69 1974.24 1887 1977 1887 1979.76 1887 1982 1889.69 1982 1893 1982 1896.31 1979.76 1899 1977 1899 1974.24 1899 1972 1896.31 1972 1893Z" fill="#FFFFFF" fill-rule="evenodd"/><path d="M1939 1881.5C1939 1878.46 1941.46 1876 1944.5 1876 1947.54 1876 1950 1878.46 1950 1881.5 1950 1884.54 1947.54 1887 1944.5 1887 1941.46 1887 1939 1884.54 1939 1881.5Z" fill="#FFFFFF" fill-rule="evenodd"/><path d="M1910 1864C1910 1860.69 1912.24 1858 1915 1858 1917.76 1858 1920 1860.69 1920 1864 1920 1867.31 1917.76 1870 1915 1870 1912.24 1870 1910 1867.31 1910 1864Z" fill="#FFFFFF" fill-rule="evenodd"/><path d="M1881 1849C1881 1845.69 1883.46 1843 1886.5 1843 1889.54 1843 1892 1845.69 1892 1849 1892 1852.31 1889.54 1855 1886.5 1855 1883.46 1855 1881 1852.31 1881 1849Z" fill="#FFFFFF" fill-rule="evenodd"/><path d="M1852 1829.5C1852 1826.46 1854.46 1824 1857.5 1824 1860.54 1824 1863 1826.46 1863 1829.5 1863 1832.54 1860.54 1835 1857.5 1835 1854.46 1835 1852 1832.54 1852 1829.5Z" fill="#FFFFFF" fill-rule="evenodd"/><path d="M1823 1808.5C1823 1805.46 1825.46 1803 1828.5 1803 1831.54 1803 1834 1805.46 1834 1808.5 1834 1811.54 1831.54 1814 1828.5 1814 1825.46 1814 1823 1811.54 1823 1808.5Z" fill="#FFFFFF" fill-rule="evenodd"/><path d="M1796 1790C1796 1786.69 1798.46 1784 1801.5 1784 1804.54 1784 1807 1786.69 1807 1790 1807 1793.31 1804.54 1796 1801.5 1796 1798.46 1796 1796 1793.31 1796 1790Z" fill="#FFFFFF" fill-rule="evenodd"/><path d="M1772 1768C1772 1764.69 1774.24 1762 1777 1762 1779.76 1762 1782 1764.69 1782 1768 1782 1771.31 1779.76 1774 1777 1774 1774.24 1774 1772 1771.31 1772 1768Z" fill="#FFFFFF" fill-rule="evenodd"/><path d="M1747 1743C1747 1739.69 1749.46 1737 1752.5 1737 1755.54 1737 1758 1739.69 1758 1743 1758 1746.31 1755.54 1749 1752.5 1749 1749.46 1749 1747 1746.31 1747 1743Z" fill="#FFFFFF" fill-rule="evenodd"/></g></svg>