<svg width="621" height="662" xmlns="http://www.w3.org/2000/svg" xmlns:xlink="http://www.w3.org/1999/xlink" xml:space="preserve" overflow="hidden"><defs><clipPath id="clip0"><rect x="2221" y="1293" width="621" height="662"/></clipPath></defs><g clip-path="url(#clip0)" transform="translate(-2221 -1293)"><path d="M2222 1293C2824 1293 2824 1293 2824 1293 2824 1648.09 2554.04 1936 2222 1936 2222 1293 2222 1293 2222 1293" fill="#6EC9DE" fill-rule="evenodd"/><path d="M2767 1293C2222 1293 2222 1293 2222 1293 2222 1875 2222 1875 2222 1875 2522.88 1875 2767 1613.77 2767 1293Z" fill="#D4EFF5" fill-rule="evenodd"/><path d="M2231.9 1926.36C2237.3 1926.36 2240.9 1930.2 2241.8 1935 2561.24 1924.44 2817.7 1648.07 2824 1307.39 2818.6 1307.39 2815 1302.6 2815 1296.84 2815 1294.92 2815 1294.92 2815 1294.92 2815 1295.88 2815 1294.92 2815 1293 2804.2 1293 2804.2 1293 2804.2 1293 2804.2 1296.84 2804.2 1296.84 2804.2 1296.84 2804.2 1303.56 2806.9 1309.31 2811.4 1314.11 2806 1317.95 2802.4 1323.71 2802.4 1331.39 2802.4 1338.1 2805.1 1344.82 2809.6 1348.66 2803.3 1352.5 2798.8 1359.22 2798.8 1367.85 2798.8 1373.61 2801.5 1379.37 2806 1383.21 2798.8 1387.04 2794.3 1394.72 2794.3 1402.4 2794.3 1409.12 2797 1413.91 2800.6 1418.71 2793.41 1421.59 2788.91 1429.27 2788.91 1437.91 2788.91 1443.66 2790.71 1448.46 2793.41 1452.3 2785.31 1455.18 2779.91 1462.86 2779.91 1472.45 2779.91 1477.25 2781.71 1482.05 2784.41 1485.89 2776.31 1488.77 2770.01 1496.44 2770.01 1507 2770.01 1510.84 2771.81 1515.64 2773.61 1518.52 2764.61 1521.39 2758.31 1530.03 2758.31 1539.63 2758.31 1543.47 2759.21 1547.3 2761.01 1551.14 2752.01 1553.06 2744.81 1561.7 2744.81 1572.26 2744.81 1575.13 2745.71 1578.97 2746.61 1581.85 2736.71 1582.81 2729.52 1592.41 2729.52 1602.96 2729.52 1606.8 2729.52 1609.68 2731.32 1612.56 2720.52 1613.52 2712.42 1623.12 2712.42 1633.67 2712.42 1636.55 2713.32 1639.43 2714.22 1642.31 2703.42 1642.31 2694.42 1651.91 2694.42 1664.38 2694.42 1666.3 2694.42 1668.22 2695.32 1671.1 2695.32 1671.1 2695.32 1671.1 2694.42 1671.1 2683.62 1671.1 2674.62 1680.7 2674.62 1692.21 2674.62 1694.13 2674.62 1697.01 2675.52 1698.93 2674.62 1698.93 2674.62 1698.93 2673.72 1698.93 2662.93 1698.93 2653.03 1708.52 2653.03 1720.04 2653.03 1721.96 2653.93 1722.92 2653.93 1724.84 2653.03 1723.88 2651.23 1723.88 2650.33 1723.88 2639.53 1723.88 2630.53 1733.48 2630.53 1745.95 2630.53 1746.91 2630.53 1748.83 2630.53 1749.79 2629.63 1749.79 2627.83 1749.79 2626.93 1749.79 2615.23 1749.79 2606.24 1759.39 2606.24 1770.9 2606.24 1771.86 2606.24 1771.86 2606.24 1772.82 2604.44 1771.86 2603.54 1771.86 2601.74 1771.86 2590.04 1771.86 2581.04 1781.46 2581.04 1792.97 2579.24 1792.01 2576.54 1791.05 2573.84 1791.05 2562.14 1791.05 2553.15 1800.65 2553.15 1813.13 2553.15 1813.13 2553.15 1814.09 2553.15 1814.09 2551.35 1814.09 2549.55 1813.13 2546.85 1813.13 2536.05 1813.13 2527.05 1821.76 2527.05 1833.28 2524.35 1832.32 2521.65 1831.36 2518.95 1831.36 2508.15 1831.36 2500.05 1840 2498.25 1850.55 2495.55 1849.59 2492.85 1848.63 2489.26 1848.63 2479.36 1848.63 2471.26 1856.31 2469.46 1866.87 2466.76 1864.95 2463.16 1863.99 2459.56 1863.99 2449.66 1863.99 2441.56 1870.7 2439.76 1880.3 2436.16 1878.38 2432.56 1876.46 2428.07 1876.46 2419.07 1876.46 2410.97 1883.18 2409.17 1891.82 2405.57 1888.94 2401.07 1887.98 2396.57 1887.98 2387.57 1887.98 2380.37 1893.74 2377.67 1901.41 2374.07 1898.53 2369.58 1896.61 2364.18 1896.61 2356.08 1896.61 2348.88 1902.37 2345.28 1910.05 2341.68 1907.17 2337.18 1904.29 2331.78 1904.29 2323.68 1904.29 2316.48 1909.09 2313.78 1916.77 2310.19 1911.97 2304.79 1910.05 2298.49 1910.05 2291.29 1910.05 2284.09 1914.85 2281.39 1921.56 2276.89 1916.77 2271.49 1912.93 2265.19 1912.93 2257.99 1912.93 2251.7 1917.73 2248.1 1923.48 2244.5 1917.73 2239.1 1914.85 2231.9 1914.85 2228.3 1914.85 2224.7 1915.81 2222 1917.73 2222 1931.16 2222 1931.16 2222 1931.16 2222.9 1931.16 2224.7 1930.2 2225.6 1929.24 2227.4 1927.32 2230.1 1926.36 2231.9 1926.36ZM2244.5 1887.02C2248.1 1891.82 2252.59 1894.7 2258.89 1894.7 2265.19 1894.7 2271.49 1890.86 2275.09 1885.1 2278.69 1888.94 2284.09 1890.86 2289.49 1890.86 2296.69 1890.86 2302.99 1887.02 2305.69 1881.26 2309.29 1884.14 2313.78 1886.06 2319.18 1886.06 2326.38 1886.06 2333.58 1881.26 2336.28 1874.54 2339.88 1877.42 2344.38 1879.34 2348.88 1879.34 2356.08 1879.34 2363.28 1874.54 2365.98 1866.87 2369.58 1869.74 2373.17 1870.7 2377.67 1870.7 2385.77 1870.7 2392.97 1864.95 2395.67 1857.27 2399.27 1860.15 2402.87 1861.11 2406.47 1861.11 2415.47 1861.11 2422.67 1855.35 2425.37 1846.71 2428.07 1848.63 2431.67 1849.59 2434.36 1849.59 2444.26 1849.59 2451.46 1841.91 2454.16 1833.28 2456.86 1834.24 2459.56 1835.2 2462.26 1835.2 2472.16 1835.2 2480.26 1828.48 2482.06 1818.88 2483.86 1818.88 2486.56 1819.84 2489.26 1819.84 2498.25 1819.84 2506.35 1812.17 2508.15 1802.57 2509.95 1802.57 2512.65 1803.53 2514.45 1803.53 2525.25 1803.53 2534.25 1793.93 2534.25 1782.42 2536.05 1783.38 2536.95 1783.38 2538.75 1783.38 2549.55 1783.38 2557.64 1774.74 2558.54 1764.18 2560.34 1765.14 2562.14 1765.14 2563.94 1765.14 2574.74 1765.14 2583.74 1756.51 2583.74 1744.99 2584.64 1744.99 2585.54 1744.99 2587.34 1744.99 2598.14 1744.99 2607.14 1736.35 2607.14 1724.84 2607.14 1723.88 2607.14 1722.92 2606.24 1721.96 2607.14 1721.96 2608.04 1721.96 2608.94 1721.96 2619.73 1721.96 2628.73 1713.32 2628.73 1701.81 2628.73 1700.85 2628.73 1699.89 2627.83 1698.93 2628.73 1698.93 2629.63 1698.93 2629.63 1698.93 2640.43 1698.93 2649.43 1689.33 2649.43 1677.82 2649.43 1676.86 2649.43 1674.94 2649.43 1673.98 2660.23 1673.98 2668.33 1664.38 2668.33 1652.87 2668.33 1650.95 2668.33 1649.99 2668.33 1648.07 2678.22 1647.11 2686.32 1638.47 2686.32 1626.96 2686.32 1625.04 2686.32 1622.16 2685.42 1620.24 2695.32 1619.28 2703.42 1610.64 2703.42 1600.09 2703.42 1597.21 2703.42 1594.33 2702.52 1592.41 2711.52 1590.49 2717.82 1581.85 2717.82 1571.3 2717.82 1569.38 2717.82 1566.5 2716.92 1563.62 2725.92 1561.7 2732.22 1553.06 2732.22 1543.47 2732.22 1539.63 2732.22 1536.75 2730.42 1533.87 2738.51 1531.95 2744.81 1523.31 2744.81 1514.68 2744.81 1510.84 2743.91 1507 2742.11 1504.12 2750.21 1501.24 2755.61 1493.56 2755.61 1483.97 2755.61 1479.17 2754.71 1475.33 2752.01 1472.45 2759.21 1468.61 2764.61 1461.9 2764.61 1453.26 2764.61 1448.46 2762.81 1444.62 2761.01 1440.78 2767.31 1437.91 2772.71 1430.23 2772.71 1421.59 2772.71 1416.79 2770.01 1412 2767.31 1408.16 2773.61 1404.32 2777.21 1397.6 2777.21 1389.92 2777.21 1384.17 2775.41 1379.37 2772.71 1375.53 2778.11 1371.69 2781.71 1364.97 2781.71 1357.3 2781.71 1351.54 2779.91 1345.78 2775.41 1341.94 2780.81 1339.06 2784.41 1332.35 2784.41 1324.67 2784.41 1318.91 2782.61 1313.15 2779.01 1310.27 2783.51 1306.43 2786.21 1299.72 2786.21 1293 2786.21 1293 2786.21 1293 2786.21 1293 2775.41 1293 2775.41 1293 2775.41 1293 2775.41 1293 2775.41 1293 2775.41 1293 2775.41 1298.76 2771.81 1302.6 2766.41 1302.6 2761.91 1302.6 2757.41 1298.76 2757.41 1293 2757.41 1293 2757.41 1293 2757.41 1293 2746.61 1293 2746.61 1293 2746.61 1293 2746.61 1299.72 2749.31 1304.52 2752.91 1308.35 2748.41 1312.19 2745.71 1317.95 2745.71 1324.67 2745.71 1330.43 2747.51 1336.18 2752.01 1340.02 2746.61 1343.86 2743.01 1350.58 2743.01 1357.3 2743.01 1363.05 2744.81 1367.85 2747.51 1371.69 2742.11 1375.53 2738.51 1382.25 2738.51 1389.92 2738.51 1394.72 2740.31 1399.52 2743.01 1403.36 2736.71 1407.2 2733.11 1413.91 2733.11 1421.59 2733.11 1426.39 2734.01 1430.23 2736.71 1434.07 2729.52 1436.95 2725.02 1444.62 2725.02 1453.26 2725.02 1457.1 2725.92 1460.94 2728.62 1464.78 2721.42 1467.65 2716.02 1475.33 2716.02 1483.97 2716.02 1487.81 2716.92 1491.65 2718.72 1494.52 2710.62 1497.4 2705.22 1505.08 2705.22 1514.68 2705.22 1517.56 2706.12 1520.43 2707.02 1523.31 2698.92 1526.19 2693.52 1533.87 2693.52 1543.47 2693.52 1546.35 2693.52 1549.22 2694.42 1551.14 2685.42 1553.06 2679.12 1561.7 2679.12 1571.3 2679.12 1574.17 2679.12 1577.05 2680.02 1578.97 2671.03 1580.89 2663.83 1589.53 2663.83 1600.09 2663.83 1602 2664.73 1603.92 2665.63 1605.84 2655.73 1606.8 2647.63 1616.4 2647.63 1626.96 2647.63 1628.87 2647.63 1630.79 2647.63 1631.75 2637.73 1632.71 2629.63 1641.35 2629.63 1652.87 2629.63 1653.83 2629.63 1655.74 2629.63 1656.7 2618.83 1656.7 2609.84 1666.3 2609.84 1677.82 2609.84 1678.78 2609.84 1679.74 2610.74 1680.7 2609.84 1680.7 2608.94 1680.7 2608.94 1680.7 2598.14 1680.7 2589.14 1690.29 2589.14 1701.81 2589.14 1701.81 2589.14 1702.77 2589.14 1703.73 2588.24 1703.73 2588.24 1703.73 2587.34 1703.73 2576.54 1703.73 2567.54 1712.36 2567.54 1723.88 2566.64 1723.88 2565.74 1723.88 2563.94 1723.88 2554.04 1723.88 2545.95 1731.56 2545.05 1742.11 2543.25 1742.11 2540.55 1741.15 2538.75 1741.15 2527.95 1741.15 2519.85 1750.75 2518.95 1762.26 2518.05 1761.3 2516.25 1761.3 2514.45 1761.3 2504.55 1761.3 2496.45 1768.98 2495.55 1779.54 2492.85 1778.58 2491.06 1777.62 2489.26 1777.62 2479.36 1777.62 2471.26 1785.3 2469.46 1794.89 2467.66 1793.93 2464.96 1792.97 2462.26 1792.97 2453.26 1792.97 2445.16 1800.65 2443.36 1809.29 2440.66 1808.33 2437.96 1807.37 2434.36 1807.37 2426.27 1807.37 2419.07 1813.13 2416.37 1821.76 2413.67 1819.84 2410.07 1818.88 2406.47 1818.88 2398.37 1818.88 2391.17 1824.64 2388.47 1832.32 2385.77 1830.4 2381.27 1829.44 2377.67 1829.44 2369.58 1829.44 2363.28 1834.24 2359.68 1840.96 2356.98 1839.04 2352.48 1837.12 2348.88 1837.12 2340.78 1837.12 2334.48 1841.91 2330.88 1848.63 2328.18 1845.75 2323.68 1844.79 2319.18 1844.79 2311.99 1844.79 2305.69 1848.63 2302.09 1854.39 2298.49 1851.51 2293.99 1849.59 2289.49 1849.59 2282.29 1849.59 2275.99 1853.43 2272.39 1859.19 2268.79 1855.35 2264.29 1852.47 2258.89 1852.47 2252.59 1852.47 2247.2 1855.35 2243.6 1860.15 2240 1856.31 2234.6 1853.43 2228.3 1853.43 2226.5 1853.43 2223.8 1854.39 2222 1855.35 2222 1866.87 2222 1866.87 2222 1866.87 2222.9 1866.87 2223.8 1866.87 2224.7 1865.91 2225.6 1865.91 2227.4 1864.95 2228.3 1864.95 2233.7 1864.95 2237.3 1869.74 2237.3 1874.54 2237.3 1879.34 2233.7 1884.14 2228.3 1884.14 2227.4 1884.14 2225.6 1883.18 2224.7 1882.22 2223.8 1882.22 2222.9 1882.22 2222 1882.22 2222 1893.74 2222 1893.74 2222 1893.74 2223.8 1894.7 2226.5 1895.65 2228.3 1895.65 2234.6 1895.65 2240.9 1891.82 2244.5 1887.02Z" fill="#00A0C6" fill-rule="evenodd"/><path d="M2228.31 1865.4C2233.71 1865.4 2237.31 1869.24 2237.31 1875 2528.28 1865.4 2762.5 1613.77 2767 1302.6 2762.5 1302.6 2757.99 1298.76 2757.99 1293 2757.99 1293 2757.99 1293 2757.99 1293 2747.18 1293 2747.18 1293 2747.18 1293 2747.18 1299.72 2749.88 1304.52 2753.49 1308.37 2748.98 1312.21 2746.28 1317.97 2746.28 1324.69 2746.28 1330.46 2748.08 1336.22 2752.59 1340.06 2747.18 1343.9 2743.58 1350.62 2743.58 1357.35 2743.58 1363.11 2745.38 1367.91 2748.08 1371.75 2742.68 1375.59 2739.07 1382.32 2739.07 1390 2739.07 1394.8 2740.88 1399.6 2743.58 1403.45 2737.27 1407.29 2733.67 1414.01 2733.67 1421.69 2733.67 1426.49 2734.57 1430.34 2737.27 1434.18 2730.07 1437.06 2725.56 1444.74 2725.56 1453.39 2725.56 1457.23 2726.46 1461.07 2729.17 1464.91 2721.96 1467.79 2716.55 1475.48 2716.55 1484.12 2716.55 1487.96 2717.45 1491.8 2719.26 1494.68 2711.15 1497.56 2705.74 1505.25 2705.74 1514.85 2705.74 1517.73 2706.64 1520.61 2707.55 1523.5 2699.44 1526.38 2694.03 1534.06 2694.03 1543.66 2694.03 1546.54 2694.03 1549.43 2694.93 1551.35 2685.93 1553.27 2679.62 1561.91 2679.62 1571.51 2679.62 1574.4 2679.62 1577.28 2680.52 1579.2 2671.51 1581.12 2664.31 1589.76 2664.31 1600.33 2664.31 1602.25 2665.21 1604.17 2666.11 1606.09 2656.2 1607.05 2648.09 1616.65 2648.09 1627.22 2648.09 1629.14 2648.09 1631.06 2648.09 1632.02 2638.18 1632.98 2630.07 1641.62 2630.07 1653.15 2630.07 1654.11 2630.07 1656.03 2630.07 1656.99 2619.26 1656.99 2610.26 1666.59 2610.26 1678.12 2610.26 1679.08 2610.26 1680.04 2611.16 1681 2610.26 1681 2609.36 1681 2609.36 1681 2598.55 1681 2589.54 1690.6 2589.54 1702.13 2589.54 1702.13 2589.54 1703.09 2589.54 1704.05 2588.64 1704.05 2588.64 1704.05 2587.74 1704.05 2576.93 1704.05 2567.92 1712.69 2567.92 1724.22 2567.02 1724.22 2566.12 1724.22 2564.31 1724.22 2554.4 1724.22 2546.3 1731.9 2545.4 1742.47 2543.59 1742.47 2540.89 1741.51 2539.09 1741.51 2528.28 1741.51 2520.17 1751.11 2519.27 1762.63 2518.37 1761.67 2516.57 1761.67 2514.77 1761.67 2504.86 1761.67 2496.75 1769.36 2495.85 1779.92 2493.15 1778.96 2491.35 1778 2489.55 1778 2479.64 1778 2471.53 1785.68 2469.73 1795.29 2467.93 1794.33 2465.22 1793.37 2462.52 1793.37 2453.51 1793.37 2445.4 1801.05 2443.6 1809.69 2440.9 1808.73 2438.2 1807.77 2434.59 1807.77 2426.49 1807.77 2419.28 1813.53 2416.58 1822.18 2413.88 1820.26 2410.27 1819.3 2406.67 1819.3 2398.56 1819.3 2391.36 1825.06 2388.65 1832.74 2385.95 1830.82 2381.45 1829.86 2377.84 1829.86 2369.74 1829.86 2363.43 1834.66 2359.83 1841.39 2357.12 1839.47 2352.62 1837.54 2349.02 1837.54 2340.91 1837.54 2334.6 1842.35 2331 1849.07 2328.3 1846.19 2323.79 1845.23 2319.29 1845.23 2312.08 1845.23 2305.78 1849.07 2302.17 1854.83 2298.57 1851.95 2294.07 1850.03 2289.56 1850.03 2282.36 1850.03 2276.05 1853.87 2272.45 1859.63 2268.84 1855.79 2264.34 1852.91 2258.93 1852.91 2252.63 1852.91 2247.22 1855.79 2243.62 1860.59 2240.02 1856.75 2234.61 1853.87 2228.31 1853.87 2226.5 1853.87 2223.8 1854.83 2222 1855.79 2222 1867.32 2222 1867.32 2222 1867.32 2222.9 1867.32 2223.8 1867.32 2224.7 1866.36 2225.6 1866.36 2227.41 1865.4 2228.31 1865.4Z" fill="#7BCDE1" fill-rule="evenodd"/><path d="M2753.2 1305.52C2749.61 1301.68 2746.91 1298.8 2746.91 1294 2746.91 1294 2746.91 1294 2746.91 1294 2746.91 1299.76 2746.01 1302.64 2749.61 1306.48 2745.12 1311.28 2742.42 1317.04 2742.42 1323.76 2742.42 1329.52 2745.12 1334.32 2748.71 1338.16 2743.32 1342.96 2739.72 1348.71 2739.72 1356.39 2739.72 1361.19 2741.52 1365.99 2744.22 1369.83 2738.83 1373.67 2735.23 1381.35 2735.23 1388.07 2735.23 1392.87 2737.03 1397.67 2739.72 1401.51 2734.33 1405.35 2730.74 1413.03 2730.74 1420.71 2730.74 1424.55 2731.64 1428.39 2733.43 1432.23 2727.14 1436.07 2722.65 1442.79 2722.65 1451.43 2722.65 1455.26 2723.55 1459.1 2725.35 1462.94 2718.16 1466.78 2713.66 1474.46 2713.66 1482.14 2713.66 1485.98 2714.56 1488.86 2715.46 1491.74 2708.27 1495.58 2702.88 1503.26 2702.88 1512.86 2702.88 1515.74 2702.88 1518.62 2703.78 1521.5 2696.59 1524.38 2690.3 1533.02 2690.3 1541.66 2690.3 1544.54 2691.2 1546.46 2692.1 1548.38 2683.11 1551.26 2675.92 1559.9 2675.92 1570.45 2675.92 1572.37 2676.82 1574.29 2677.72 1576.21 2667.83 1579.09 2661.54 1587.73 2661.54 1598.29 2661.54 1600.21 2662.44 1602.13 2662.44 1604.05 2652.56 1605.97 2644.47 1614.61 2644.47 1626.13 2644.47 1626.13 2645.37 1628.05 2645.37 1629.01 2634.59 1630.93 2626.5 1640.53 2626.5 1651.09 2626.5 1651.09 2626.5 1653.01 2627.4 1653.97 2616.61 1654.93 2607.63 1664.53 2607.63 1677 2607.63 1677 2607.63 1677 2607.63 1677 2595.94 1677.96 2586.96 1687.56 2586.96 1700.04 2586.96 1700.04 2586.96 1700.04 2586.96 1700.04 2586.96 1700.04 2586.06 1700.04 2586.06 1700.04 2575.28 1700.04 2566.29 1709.64 2565.39 1721.16 2564.49 1720.2 2563.59 1720.2 2563.59 1720.2 2560 1721.16 2560 1721.16 2560 1721.16 2560.9 1725 2560.9 1725 2560.9 1725 2563.59 1724.04 2563.59 1724.04 2563.59 1724.04 2568.09 1725 2568.09 1725 2568.09 1725 2568.99 1723.08 2568.99 1723.08 2568.99 1723.08 2568.99 1712.52 2577.07 1703.88 2586.06 1703.88 2590.55 1704.84 2590.55 1704.84 2590.55 1704.84 2590.55 1701.96 2590.55 1701.96 2590.55 1701.96 2590.55 1700.04 2590.55 1700.04 2590.55 1700.04 2590.55 1689.48 2597.74 1680.84 2607.63 1680.84 2611.22 1681.8 2611.22 1681.8 2611.22 1681.8 2611.22 1678.92 2611.22 1678.92 2611.22 1678.92 2611.22 1677 2611.22 1677 2611.22 1677 2611.22 1666.45 2619.31 1657.81 2629.19 1657.81 2630.99 1657.81 2630.99 1657.81 2630.99 1657.81 2630.99 1655.89 2630.99 1655.89 2630.99 1655.89 2630.09 1651.09 2630.09 1651.09 2630.09 1651.09 2630.09 1641.49 2638.18 1632.85 2647.17 1632.85 2648.96 1632.85 2648.96 1632.85 2648.96 1632.85 2648.96 1629.97 2648.96 1629.97 2648.96 1629.97 2648.06 1626.13 2648.06 1626.13 2648.06 1626.13 2648.06 1616.53 2655.25 1607.89 2664.24 1606.93 2666.94 1606.93 2666.94 1606.93 2666.94 1606.93 2666.04 1604.05 2666.04 1604.05 2666.04 1604.05 2665.14 1602.13 2665.14 1600.21 2665.14 1598.29 2665.14 1589.65 2671.43 1581.01 2679.52 1580.05 2682.21 1579.09 2682.21 1579.09 2682.21 1579.09 2681.31 1577.17 2681.31 1577.17 2681.31 1577.17 2680.41 1575.25 2679.52 1572.37 2679.52 1570.45 2679.52 1561.82 2685.81 1553.18 2693.89 1552.22 2696.59 1551.26 2696.59 1551.26 2696.59 1551.26 2695.69 1549.34 2695.69 1549.34 2695.69 1549.34 2694.79 1547.42 2693.89 1544.54 2693.89 1541.66 2693.89 1533.98 2699.29 1526.3 2706.47 1523.42 2709.17 1523.42 2709.17 1523.42 2709.17 1523.42 2708.27 1521.5 2708.27 1521.5 2708.27 1521.5 2706.47 1518.62 2706.47 1515.74 2706.47 1512.86 2706.47 1504.22 2710.97 1497.5 2719.06 1494.62 2720.85 1493.66 2720.85 1493.66 2720.85 1493.66 2719.95 1491.74 2719.95 1491.74 2719.95 1491.74 2718.16 1488.86 2717.26 1485.98 2717.26 1482.14 2717.26 1474.46 2721.75 1467.74 2728.04 1464.86 2729.84 1463.9 2729.84 1463.9 2729.84 1463.9 2728.94 1461.98 2728.94 1461.98 2728.94 1461.98 2727.14 1459.1 2726.24 1455.26 2726.24 1451.43 2726.24 1443.75 2729.84 1437.03 2736.13 1434.15 2738.83 1433.19 2738.83 1433.19 2738.83 1433.19 2737.03 1431.27 2737.03 1431.27 2737.03 1431.27 2735.23 1428.39 2734.33 1424.55 2734.33 1420.71 2734.33 1413.03 2737.03 1407.27 2743.32 1403.43 2745.12 1402.47 2745.12 1402.47 2745.12 1402.47 2743.32 1400.55 2743.32 1400.55 2743.32 1400.55 2740.62 1397.67 2738.83 1392.87 2738.83 1388.07 2738.83 1381.35 2742.42 1375.59 2747.81 1371.75 2749.61 1370.79 2749.61 1370.79 2749.61 1370.79 2747.81 1368.87 2747.81 1368.87 2747.81 1368.87 2745.12 1365.03 2743.32 1361.19 2743.32 1356.39 2743.32 1349.67 2746.91 1343.92 2751.41 1340.08 2753.2 1339.12 2753.2 1339.12 2753.2 1339.12 2752.3 1337.2 2752.3 1337.2 2752.3 1337.2 2748.71 1333.36 2746.01 1328.56 2746.01 1323.76 2746.01 1318 2748.71 1312.24 2753.2 1308.4 2755 1307.44 2755 1307.44 2755 1307.44L2753.2 1305.52Z" fill="#FFFFFF" fill-rule="evenodd"/><path d="M2560.1 1721C2551.09 1721.96 2544.78 1729.63 2542.98 1739.22 2541.18 1738.27 2540.28 1738.27 2538.47 1738.27 2527.66 1738.27 2518.65 1746.9 2516.85 1758.41 2515.95 1758.41 2514.14 1758.41 2514.14 1758.41 2504.23 1758.41 2496.12 1765.12 2493.42 1775.67 2491.62 1774.71 2489.82 1774.71 2488.01 1774.71 2479 1774.71 2469.99 1781.43 2468.19 1791.02 2465.49 1791.02 2463.68 1790.06 2461.88 1790.06 2452.87 1790.06 2444.76 1796.78 2442.06 1805.41 2439.36 1804.45 2436.65 1803.49 2433.95 1803.49 2424.94 1803.49 2417.73 1809.24 2414.13 1817.88 2411.42 1816.92 2408.72 1815.96 2406.02 1815.96 2397.91 1815.96 2390.7 1820.76 2387.09 1828.43 2383.49 1826.51 2380.79 1825.55 2377.18 1825.55 2369.07 1825.55 2361.86 1830.35 2358.26 1837.06 2355.56 1835.14 2351.95 1834.18 2347.45 1834.18 2340.24 1834.18 2333.93 1838.02 2329.43 1844.73 2325.82 1842.82 2322.22 1840.9 2317.71 1840.9 2311.4 1840.9 2305.1 1844.73 2300.59 1850.49 2296.99 1847.61 2292.48 1845.69 2287.98 1845.69 2281.67 1845.69 2275.36 1849.53 2271.76 1855.29 2267.25 1851.45 2262.75 1849.53 2257.34 1849.53 2257.34 1849.53 2257.34 1849.53 2257.34 1849.53 2251.93 1849.53 2246.53 1851.45 2242.02 1856.24 2238.42 1852.41 2233.91 1852.41 2228.51 1852.41 2225.8 1852.41 2225.8 1852.41 2224 1853.37 2224 1853.37 2224 1853.37 2224 1853.37 2225.8 1852.41 2225.8 1854.33 2227.6 1854.33 2233.01 1854.33 2237.52 1856.24 2241.12 1860.08 2242.02 1862 2242.02 1862 2242.02 1862 2243.82 1860.08 2243.82 1860.08 2243.82 1860.08 2247.43 1855.29 2251.93 1853.37 2257.34 1853.37 2262.75 1853.37 2267.25 1855.29 2270.86 1859.12 2271.76 1860.08 2271.76 1860.08 2271.76 1860.08 2273.56 1858.16 2273.56 1858.16 2273.56 1858.16 2276.26 1853.37 2282.57 1849.53 2287.98 1849.53 2292.48 1849.53 2296.99 1851.45 2299.69 1854.33 2301.49 1856.24 2301.49 1856.24 2301.49 1856.24 2302.39 1854.33 2302.39 1854.33 2302.39 1854.33 2306 1848.57 2311.4 1844.73 2317.71 1844.73 2322.22 1844.73 2325.82 1846.65 2329.43 1848.57 2331.23 1850.49 2331.23 1850.49 2331.23 1850.49 2332.13 1848.57 2332.13 1848.57 2332.13 1848.57 2334.83 1841.86 2341.14 1838.02 2347.45 1838.02 2351.05 1838.02 2354.66 1838.98 2358.26 1840.9 2360.06 1842.82 2360.06 1842.82 2360.06 1842.82 2360.96 1839.94 2360.96 1839.94 2360.96 1839.94 2363.67 1834.18 2369.97 1829.39 2377.18 1829.39 2379.89 1829.39 2383.49 1830.35 2386.19 1832.27 2388.9 1834.18 2388.9 1834.18 2388.9 1834.18 2388.9 1831.31 2388.9 1831.31 2388.9 1831.31 2391.6 1824.59 2398.81 1819.8 2406.02 1819.8 2408.72 1819.8 2411.42 1820.76 2414.13 1821.71 2415.93 1823.63 2415.93 1823.63 2415.93 1823.63 2416.83 1820.76 2416.83 1820.76 2416.83 1820.76 2419.53 1813.08 2425.84 1807.33 2433.95 1807.33 2436.65 1807.33 2439.36 1808.29 2442.06 1809.24 2443.86 1811.16 2443.86 1811.16 2443.86 1811.16 2444.76 1808.29 2444.76 1808.29 2444.76 1808.29 2446.56 1799.65 2453.77 1793.9 2461.88 1793.9 2463.68 1793.9 2466.39 1793.9 2468.19 1794.86 2469.99 1795.82 2469.99 1795.82 2469.99 1795.82 2470.89 1793.9 2470.89 1793.9 2470.89 1793.9 2472.7 1785.27 2479.9 1778.55 2488.01 1778.55 2489.82 1778.55 2492.52 1778.55 2494.32 1779.51 2496.12 1780.47 2496.12 1780.47 2496.12 1780.47 2496.12 1777.59 2496.12 1777.59 2496.12 1777.59 2497.93 1768.96 2505.13 1762.24 2514.14 1762.24 2520.45 1763.2 2520.45 1763.2 2520.45 1763.2 2520.45 1760.33 2520.45 1760.33 2520.45 1760.33 2520.45 1750.73 2528.56 1742.1 2538.47 1742.1 2540.28 1742.1 2542.08 1742.1 2543.88 1743.06 2545.68 1743.06 2545.68 1743.06 2545.68 1743.06 2545.68 1741.14 2545.68 1741.14 2545.68 1741.14 2546.58 1732.51 2552.89 1725.8 2561 1724.84L2560.1 1721Z" fill="#FFFFFF" fill-rule="evenodd"/><path d="M0 0 0.999672 43" stroke="#FFFFFF" stroke-width="5.72917" stroke-miterlimit="8" fill="none" fill-rule="evenodd" transform="matrix(1 0 0 -1 2235 1927)"/><path d="M2266.11 1882 2252 1883.08 2254.53 1928 2269 1927.28 2266.11 1882Z" stroke="#FFFFFF" stroke-width="5.72917" stroke-miterlimit="8" fill="none" fill-rule="evenodd"/><path d="M2296.82 1879 2283 1880.8 2288.18 1923 2302 1921.2 2296.82 1879Z" stroke="#FFFFFF" stroke-width="5.72917" stroke-miterlimit="8" fill="none" fill-rule="evenodd"/><path d="M2328.84 1874 2314 1876.86 2322.16 1918 2337 1915.14 2328.84 1874Z" stroke="#FFFFFF" stroke-width="5.72917" stroke-miterlimit="8" fill="none" fill-rule="evenodd"/><path d="M2357.41 1865 2344 1868.93 2353.88 1910 2368 1906.07 2357.41 1865Z" stroke="#FFFFFF" stroke-width="5.72917" stroke-miterlimit="8" fill="none" fill-rule="evenodd"/><path d="M2388.44 1857 2374 1861.68 2386.64 1902 2400 1898.4 2388.44 1857Z" stroke="#FFFFFF" stroke-width="5.72917" stroke-miterlimit="8" fill="none" fill-rule="evenodd"/><path d="M2416.64 1845 2403 1850.71 2417.36 1890 2431 1884.29 2416.64 1845Z" stroke="#FFFFFF" stroke-width="5.72917" stroke-miterlimit="8" fill="none" fill-rule="evenodd"/><path d="M2447.77 1833 2434 1838.85 2449.59 1878 2463 1872.15 2447.77 1833Z" stroke="#FFFFFF" stroke-width="5.72917" stroke-miterlimit="8" fill="none" fill-rule="evenodd"/><path d="M2476.73 1819 2463 1825.79 2480.35 1864 2493 1857.21 2476.73 1819Z" stroke="#FFFFFF" stroke-width="5.72917" stroke-miterlimit="8" fill="none" fill-rule="evenodd"/><path d="M2499.83 1804 2487 1812.66 2507.17 1848 2520 1840.43 2499.83 1804Z" stroke="#FFFFFF" stroke-width="5.72917" stroke-miterlimit="8" fill="none" fill-rule="evenodd"/><path d="M2525.45 1786 2514 1794.8 2536.19 1830 2548 1821.2 2525.45 1786Z" stroke="#FFFFFF" stroke-width="5.72917" stroke-miterlimit="8" fill="none" fill-rule="evenodd"/><path d="M2550.55 1767 2539 1775.6 2563.18 1810 2574 1800.68 2550.55 1767Z" stroke="#FFFFFF" stroke-width="5.72917" stroke-miterlimit="8" fill="none" fill-rule="evenodd"/><path d="M2573.86 1746 2563 1756.41 2590.14 1788 2601 1777.59 2573.86 1746Z" stroke="#FFFFFF" stroke-width="5.72917" stroke-miterlimit="8" fill="none" fill-rule="evenodd"/><path d="M2775 1300 2815 1301" stroke="#FFFFFF" stroke-width="5.72917" stroke-miterlimit="8" fill="none" fill-rule="evenodd"/><path d="M2773.83 1318 2772 1334.23 2812.17 1338 2814 1322.15 2773.83 1318Z" stroke="#FFFFFF" stroke-width="5.72917" stroke-miterlimit="8" fill="none" fill-rule="evenodd"/><path d="M2770.78 1351 2769 1366.15 2808.22 1373 2810 1357.49 2770.78 1351Z" stroke="#FFFFFF" stroke-width="5.72917" stroke-miterlimit="8" fill="none" fill-rule="evenodd"/><path d="M2767.59 1384 2764 1398.33 2802.41 1408 2806 1392.6 2767.59 1384Z" stroke="#FFFFFF" stroke-width="5.72917" stroke-miterlimit="8" fill="none" fill-rule="evenodd"/><path d="M2764.57 1416 2761 1431.53 2798.43 1442 2802 1426.47 2764.57 1416Z" stroke="#FFFFFF" stroke-width="5.72917" stroke-miterlimit="8" fill="none" fill-rule="evenodd"/><path d="M2753.63 1448 2749 1463.64 2787.44 1476 2791 1461.45 2753.63 1448Z" stroke="#FFFFFF" stroke-width="5.72917" stroke-miterlimit="8" fill="none" fill-rule="evenodd"/><path d="M2745.34 1480 2740 1494.46 2776.66 1510 2782 1495.54 2745.34 1480Z" stroke="#FFFFFF" stroke-width="5.72917" stroke-miterlimit="8" fill="none" fill-rule="evenodd"/><path d="M2735.56 1512 2729 1525.06 2766.53 1542 2772 1527.88 2735.56 1512Z" stroke="#FFFFFF" stroke-width="5.72917" stroke-miterlimit="8" fill="none" fill-rule="evenodd"/><path d="M2722.56 1542 2716 1555.82 2752.44 1574 2759 1559.45 2722.56 1542Z" stroke="#FFFFFF" stroke-width="5.72917" stroke-miterlimit="8" fill="none" fill-rule="evenodd"/><path d="M2708.3 1570 2701 1583.49 2735.7 1605 2743 1591.15 2708.3 1570Z" stroke="#FFFFFF" stroke-width="5.72917" stroke-miterlimit="8" fill="none" fill-rule="evenodd"/><path d="M2694.84 1598 2687 1610.73 2719.8 1634 2728 1621.27 2694.84 1598Z" stroke="#FFFFFF" stroke-width="5.72917" stroke-miterlimit="8" fill="none" fill-rule="evenodd"/><path d="M2599.06 1727 2589 1736.63 2615.94 1768 2626 1757.66 2599.06 1727Z" stroke="#FFFFFF" stroke-width="5.72917" stroke-miterlimit="8" fill="none" fill-rule="evenodd"/><path d="M2620.11 1701 2610 1711.68 2638.17 1743 2649 1731.61 2620.11 1701Z" stroke="#FFFFFF" stroke-width="5.72917" stroke-miterlimit="8" fill="none" fill-rule="evenodd"/><path d="M2640.09 1680 2631 1691.47 2661.91 1718 2671 1706.53 2640.09 1680Z" stroke="#FFFFFF" stroke-width="5.72917" stroke-miterlimit="8" fill="none" fill-rule="evenodd"/><path d="M2661.86 1653 2653 1665.43 2683.14 1691 2692 1678.57 2661.86 1653Z" stroke="#FFFFFF" stroke-width="5.72917" stroke-miterlimit="8" fill="none" fill-rule="evenodd"/><path d="M2678.86 1628 2671 1640.1 2703.14 1665 2711 1652.55 2678.86 1628Z" stroke="#FFFFFF" stroke-width="5.72917" stroke-miterlimit="8" fill="none" fill-rule="evenodd"/><path d="M2222.5 1905.5C2538.79 1905.5 2796.5 1631.16 2796.5 1293.5" stroke="#6EC9DE" stroke-width="11.4583" stroke-miterlimit="8" fill="none" fill-rule="evenodd"/><path d="M2222.5 1888.56C2224.33 1889.53 2227.06 1890.5 2228.89 1890.5 2237.11 1890.5 2243.5 1883.72 2243.5 1875 2243.5 1866.28 2237.11 1859.5 2228.89 1859.5 2227.06 1859.5 2224.33 1860.47 2222.5 1861.44" stroke="#333333" stroke-width="2.86476" stroke-miterlimit="8" fill="#FFA600" fill-rule="evenodd"/><path d="M2222.5 1888.56C2224.33 1889.53 2227.06 1890.5 2228.89 1890.5 2237.11 1890.5 2243.5 1883.72 2243.5 1875 2243.5 1866.28 2237.11 1859.5 2228.89 1859.5 2227.06 1859.5 2224.33 1860.47 2222.5 1861.44" stroke="#333333" stroke-width="2.86476" stroke-miterlimit="8" fill="none" fill-rule="evenodd"/><path d="M2245.5 1874C2245.5 1865.44 2251.99 1858.5 2260 1858.5 2268.01 1858.5 2274.5 1865.44 2274.5 1874 2274.5 1882.56 2268.01 1889.5 2260 1889.5 2251.99 1889.5 2245.5 1882.56 2245.5 1874Z" stroke="#333333" stroke-width="2.86476" stroke-miterlimit="8" fill="#FFA600" fill-rule="evenodd"/><path d="M2275.5 1871C2275.5 1862.99 2281.77 1856.5 2289.5 1856.5 2297.23 1856.5 2303.5 1862.99 2303.5 1871 2303.5 1879.01 2297.23 1885.5 2289.5 1885.5 2281.77 1885.5 2275.5 1879.01 2275.5 1871Z" stroke="#333333" stroke-width="2.86476" stroke-miterlimit="8" fill="#FFA600" fill-rule="evenodd"/><path d="M2305.5 1866C2305.5 1857.99 2311.99 1851.5 2320 1851.5 2328.01 1851.5 2334.5 1857.99 2334.5 1866 2334.5 1874.01 2328.01 1880.5 2320 1880.5 2311.99 1880.5 2305.5 1874.01 2305.5 1866Z" stroke="#333333" stroke-width="2.86476" stroke-miterlimit="8" fill="#FFA600" fill-rule="evenodd"/><path d="M2335.5 1859C2335.5 1850.44 2341.99 1843.5 2350 1843.5 2358.01 1843.5 2364.5 1850.44 2364.5 1859 2364.5 1867.56 2358.01 1874.5 2350 1874.5 2341.99 1874.5 2335.5 1867.56 2335.5 1859Z" stroke="#333333" stroke-width="2.86476" stroke-miterlimit="8" fill="#FFA600" fill-rule="evenodd"/><path d="M2364.5 1850.5C2364.5 1842.22 2370.77 1835.5 2378.5 1835.5 2386.23 1835.5 2392.5 1842.22 2392.5 1850.5 2392.5 1858.78 2386.23 1865.5 2378.5 1865.5 2370.77 1865.5 2364.5 1858.78 2364.5 1850.5Z" stroke="#333333" stroke-width="2.86476" stroke-miterlimit="8" fill="#FFA600" fill-rule="evenodd"/><path d="M2392.5 1841C2392.5 1832.44 2398.99 1825.5 2407 1825.5 2415.01 1825.5 2421.5 1832.44 2421.5 1841 2421.5 1849.56 2415.01 1856.5 2407 1856.5 2398.99 1856.5 2392.5 1849.56 2392.5 1841Z" stroke="#333333" stroke-width="2.86476" stroke-miterlimit="8" fill="#FFA600" fill-rule="evenodd"/><path d="M2421.5 1829C2421.5 1820.44 2427.77 1813.5 2435.5 1813.5 2443.23 1813.5 2449.5 1820.44 2449.5 1829 2449.5 1837.56 2443.23 1844.5 2435.5 1844.5 2427.77 1844.5 2421.5 1837.56 2421.5 1829Z" stroke="#333333" stroke-width="2.86476" stroke-miterlimit="8" fill="#FFA600" fill-rule="evenodd"/><path d="M2448.5 1815C2448.5 1806.44 2454.99 1799.5 2463 1799.5 2471.01 1799.5 2477.5 1806.44 2477.5 1815 2477.5 1823.56 2471.01 1830.5 2463 1830.5 2454.99 1830.5 2448.5 1823.56 2448.5 1815Z" stroke="#333333" stroke-width="2.86476" stroke-miterlimit="8" fill="#FFA600" fill-rule="evenodd"/><path d="M2475.5 1799.5C2475.5 1791.22 2481.77 1784.5 2489.5 1784.5 2497.23 1784.5 2503.5 1791.22 2503.5 1799.5 2503.5 1807.78 2497.23 1814.5 2489.5 1814.5 2481.77 1814.5 2475.5 1807.78 2475.5 1799.5Z" stroke="#333333" stroke-width="2.86476" stroke-miterlimit="8" fill="#FFA600" fill-rule="evenodd"/><path d="M2500.5 1783C2500.5 1774.44 2506.99 1767.5 2515 1767.5 2523.01 1767.5 2529.5 1774.44 2529.5 1783 2529.5 1791.56 2523.01 1798.5 2515 1798.5 2506.99 1798.5 2500.5 1791.56 2500.5 1783Z" stroke="#333333" stroke-width="2.86476" stroke-miterlimit="8" fill="#FFA600" fill-rule="evenodd"/><path d="M2525.5 1763C2525.5 1754.44 2531.99 1747.5 2540 1747.5 2548.01 1747.5 2554.5 1754.44 2554.5 1763 2554.5 1771.56 2548.01 1778.5 2540 1778.5 2531.99 1778.5 2525.5 1771.56 2525.5 1763Z" stroke="#333333" stroke-width="2.86476" stroke-miterlimit="8" fill="#FFA600" fill-rule="evenodd"/><path d="M2550.5 1744.5C2550.5 1736.22 2556.99 1729.5 2565 1729.5 2573.01 1729.5 2579.5 1736.22 2579.5 1744.5 2579.5 1752.78 2573.01 1759.5 2565 1759.5 2556.99 1759.5 2550.5 1752.78 2550.5 1744.5Z" stroke="#333333" stroke-width="2.86476" stroke-miterlimit="8" fill="#FFA600" fill-rule="evenodd"/><path d="M2574.5 1724.5C2574.5 1716.22 2580.77 1709.5 2588.5 1709.5 2596.23 1709.5 2602.5 1716.22 2602.5 1724.5 2602.5 1732.78 2596.23 1739.5 2588.5 1739.5 2580.77 1739.5 2574.5 1732.78 2574.5 1724.5Z" stroke="#333333" stroke-width="2.86476" stroke-miterlimit="8" fill="#FFA600" fill-rule="evenodd"/><path d="M2595.5 1701.5C2595.5 1693.22 2601.99 1686.5 2610 1686.5 2618.01 1686.5 2624.5 1693.22 2624.5 1701.5 2624.5 1709.78 2618.01 1716.5 2610 1716.5 2601.99 1716.5 2595.5 1709.78 2595.5 1701.5Z" stroke="#333333" stroke-width="2.86476" stroke-miterlimit="8" fill="#FFA600" fill-rule="evenodd"/><path d="M2616.5 1678C2616.5 1669.44 2622.77 1662.5 2630.5 1662.5 2638.23 1662.5 2644.5 1669.44 2644.5 1678 2644.5 1686.56 2638.23 1693.5 2630.5 1693.5 2622.77 1693.5 2616.5 1686.56 2616.5 1678Z" stroke="#333333" stroke-width="2.86476" stroke-miterlimit="8" fill="#FFA600" fill-rule="evenodd"/><path d="M2635.5 1653C2635.5 1644.44 2641.99 1637.5 2650 1637.5 2658.01 1637.5 2664.5 1644.44 2664.5 1653 2664.5 1661.56 2658.01 1668.5 2650 1668.5 2641.99 1668.5 2635.5 1661.56 2635.5 1653Z" stroke="#333333" stroke-width="2.86476" stroke-miterlimit="8" fill="#FFA600" fill-rule="evenodd"/><path d="M2653.5 1627C2653.5 1618.44 2659.99 1611.5 2668 1611.5 2676.01 1611.5 2682.5 1618.44 2682.5 1627 2682.5 1635.56 2676.01 1642.5 2668 1642.5 2659.99 1642.5 2653.5 1635.56 2653.5 1627Z" stroke="#333333" stroke-width="2.86476" stroke-miterlimit="8" fill="#FFA600" fill-rule="evenodd"/><path d="M2670.5 1600C2670.5 1591.99 2676.77 1585.5 2684.5 1585.5 2692.23 1585.5 2698.5 1591.99 2698.5 1600 2698.5 1608.01 2692.23 1614.5 2684.5 1614.5 2676.77 1614.5 2670.5 1608.01 2670.5 1600Z" stroke="#333333" stroke-width="2.86476" stroke-miterlimit="8" fill="#FFA600" fill-rule="evenodd"/><path d="M2685.5 1572C2685.5 1563.99 2691.77 1557.5 2699.5 1557.5 2707.23 1557.5 2713.5 1563.99 2713.5 1572 2713.5 1580.01 2707.23 1586.5 2699.5 1586.5 2691.77 1586.5 2685.5 1580.01 2685.5 1572Z" stroke="#333333" stroke-width="2.86476" stroke-miterlimit="8" fill="#FFA600" fill-rule="evenodd"/><path d="M2700.5 1544C2700.5 1535.44 2706.54 1528.5 2714 1528.5 2721.46 1528.5 2727.5 1535.44 2727.5 1544 2727.5 1552.56 2721.46 1559.5 2714 1559.5 2706.54 1559.5 2700.5 1552.56 2700.5 1544Z" stroke="#333333" stroke-width="2.86476" stroke-miterlimit="8" fill="#FFA600" fill-rule="evenodd"/><path d="M2711.5 1514.5C2711.5 1506.22 2717.99 1499.5 2726 1499.5 2734.01 1499.5 2740.5 1506.22 2740.5 1514.5 2740.5 1522.78 2734.01 1529.5 2726 1529.5 2717.99 1529.5 2711.5 1522.78 2711.5 1514.5Z" stroke="#333333" stroke-width="2.86476" stroke-miterlimit="8" fill="#FFA600" fill-rule="evenodd"/><path d="M2722.5 1484C2722.5 1475.44 2728.99 1468.5 2737 1468.5 2745.01 1468.5 2751.5 1475.44 2751.5 1484 2751.5 1492.56 2745.01 1499.5 2737 1499.5 2728.99 1499.5 2722.5 1492.56 2722.5 1484Z" stroke="#333333" stroke-width="2.86476" stroke-miterlimit="8" fill="#FFA600" fill-rule="evenodd"/><path d="M2731.5 1453C2731.5 1444.99 2737.99 1438.5 2746 1438.5 2754.01 1438.5 2760.5 1444.99 2760.5 1453 2760.5 1461.01 2754.01 1467.5 2746 1467.5 2737.99 1467.5 2731.5 1461.01 2731.5 1453Z" stroke="#333333" stroke-width="2.86476" stroke-miterlimit="8" fill="#FFA600" fill-rule="evenodd"/><path d="M2739.5 1422C2739.5 1413.44 2745.99 1406.5 2754 1406.5 2762.01 1406.5 2768.5 1413.44 2768.5 1422 2768.5 1430.56 2762.01 1437.5 2754 1437.5 2745.99 1437.5 2739.5 1430.56 2739.5 1422Z" stroke="#333333" stroke-width="2.86476" stroke-miterlimit="8" fill="#FFA600" fill-rule="evenodd"/><path d="M2745.5 1389.5C2745.5 1381.22 2751.54 1374.5 2759 1374.5 2766.46 1374.5 2772.5 1381.22 2772.5 1389.5 2772.5 1397.78 2766.46 1404.5 2759 1404.5 2751.54 1404.5 2745.5 1397.78 2745.5 1389.5Z" stroke="#333333" stroke-width="2.86476" stroke-miterlimit="8" fill="#FFA600" fill-rule="evenodd"/><path d="M2749.5 1357C2749.5 1348.44 2755.77 1341.5 2763.5 1341.5 2771.23 1341.5 2777.5 1348.44 2777.5 1357 2777.5 1365.56 2771.23 1372.5 2763.5 1372.5 2755.77 1372.5 2749.5 1365.56 2749.5 1357Z" stroke="#333333" stroke-width="2.86476" stroke-miterlimit="8" fill="#FFA600" fill-rule="evenodd"/><path d="M2752.5 1325C2752.5 1316.44 2758.54 1309.5 2766 1309.5 2773.46 1309.5 2779.5 1316.44 2779.5 1325 2779.5 1333.56 2773.46 1340.5 2766 1340.5 2758.54 1340.5 2752.5 1333.56 2752.5 1325Z" stroke="#333333" stroke-width="2.86476" stroke-miterlimit="8" fill="#FFA600" fill-rule="evenodd"/><path d="M2752.5 1293.5C2752.5 1293.5 2752.5 1293.5 2752.5 1293.5 2752.5 1301.94 2758.84 1308.5 2767 1308.5 2775.16 1308.5 2781.5 1301.94 2781.5 1293.5 2781.5 1293.5 2781.5 1293.5 2781.5 1293.5" stroke="#333333" stroke-width="2.86476" stroke-miterlimit="8" fill="#FFA600" fill-rule="evenodd"/><path d="M2752.5 1293.5C2752.5 1293.5 2752.5 1293.5 2752.5 1293.5 2752.5 1301.94 2758.84 1308.5 2767 1308.5 2775.16 1308.5 2781.5 1301.94 2781.5 1293.5 2781.5 1293.5 2781.5 1293.5 2781.5 1293.5" stroke="#333333" stroke-width="2.86476" stroke-miterlimit="8" fill="none" fill-rule="evenodd"/><path d="M2222.5 1948.65C2225.29 1951.56 2229 1953.5 2232.71 1953.5 2242 1953.5 2248.5 1945.74 2248.5 1937.02 2248.5 1928.29 2242 1921.5 2232.71 1921.5 2229 1921.5 2225.29 1923.44 2222.5 1926.35" stroke="#333333" stroke-width="2.86476" stroke-miterlimit="8" fill="#FFA600" fill-rule="evenodd"/><path d="M2222.5 1948.65C2225.29 1951.56 2229 1953.5 2232.71 1953.5 2242 1953.5 2248.5 1945.74 2248.5 1937.02 2248.5 1928.29 2242 1921.5 2232.71 1921.5 2229 1921.5 2225.29 1923.44 2222.5 1926.35" stroke="#333333" stroke-width="2.86476" stroke-miterlimit="8" fill="none" fill-rule="evenodd"/><path d="M2251.5 1935.5C2251.5 1926.66 2258.22 1919.5 2266.5 1919.5 2274.78 1919.5 2281.5 1926.66 2281.5 1935.5 2281.5 1944.34 2274.78 1951.5 2266.5 1951.5 2258.22 1951.5 2251.5 1944.34 2251.5 1935.5Z" stroke="#333333" stroke-width="2.86476" stroke-miterlimit="8" fill="#FFA600" fill-rule="evenodd"/><path d="M2284.5 1932.5C2284.5 1923.66 2291.22 1916.5 2299.5 1916.5 2307.78 1916.5 2314.5 1923.66 2314.5 1932.5 2314.5 1941.34 2307.78 1948.5 2299.5 1948.5 2291.22 1948.5 2284.5 1941.34 2284.5 1932.5Z" stroke="#333333" stroke-width="2.86476" stroke-miterlimit="8" fill="#FFA600" fill-rule="evenodd"/><path d="M2317.5 1926.5C2317.5 1917.66 2324.22 1910.5 2332.5 1910.5 2340.78 1910.5 2347.5 1917.66 2347.5 1926.5 2347.5 1935.34 2340.78 1942.5 2332.5 1942.5 2324.22 1942.5 2317.5 1935.34 2317.5 1926.5Z" stroke="#333333" stroke-width="2.86476" stroke-miterlimit="8" fill="#FFA600" fill-rule="evenodd"/><path d="M2350.5 1918.5C2350.5 1909.66 2357.22 1902.5 2365.5 1902.5 2373.78 1902.5 2380.5 1909.66 2380.5 1918.5 2380.5 1927.34 2373.78 1934.5 2365.5 1934.5 2357.22 1934.5 2350.5 1927.34 2350.5 1918.5Z" stroke="#333333" stroke-width="2.86476" stroke-miterlimit="8" fill="#FFA600" fill-rule="evenodd"/><path d="M2382.5 1910C2382.5 1901.44 2389.22 1894.5 2397.5 1894.5 2405.78 1894.5 2412.5 1901.44 2412.5 1910 2412.5 1918.56 2405.78 1925.5 2397.5 1925.5 2389.22 1925.5 2382.5 1918.56 2382.5 1910Z" stroke="#333333" stroke-width="2.86476" stroke-miterlimit="8" fill="#FFA600" fill-rule="evenodd"/><path d="M2414.5 1898.5C2414.5 1889.66 2421.22 1882.5 2429.5 1882.5 2437.78 1882.5 2444.5 1889.66 2444.5 1898.5 2444.5 1907.34 2437.78 1914.5 2429.5 1914.5 2421.22 1914.5 2414.5 1907.34 2414.5 1898.5Z" stroke="#333333" stroke-width="2.86476" stroke-miterlimit="8" fill="#FFA600" fill-rule="evenodd"/><path d="M2445.5 1886.5C2445.5 1877.66 2452.22 1870.5 2460.5 1870.5 2468.78 1870.5 2475.5 1877.66 2475.5 1886.5 2475.5 1895.34 2468.78 1902.5 2460.5 1902.5 2452.22 1902.5 2445.5 1895.34 2445.5 1886.5Z" stroke="#333333" stroke-width="2.86476" stroke-miterlimit="8" fill="#FFA600" fill-rule="evenodd"/><path d="M2475.5 1871C2475.5 1862.44 2482.22 1855.5 2490.5 1855.5 2498.78 1855.5 2505.5 1862.44 2505.5 1871 2505.5 1879.56 2498.78 1886.5 2490.5 1886.5 2482.22 1886.5 2475.5 1879.56 2475.5 1871Z" stroke="#333333" stroke-width="2.86476" stroke-miterlimit="8" fill="#FFA600" fill-rule="evenodd"/><path d="M2504.5 1853.5C2504.5 1844.66 2511.22 1837.5 2519.5 1837.5 2527.78 1837.5 2534.5 1844.66 2534.5 1853.5 2534.5 1862.34 2527.78 1869.5 2519.5 1869.5 2511.22 1869.5 2504.5 1862.34 2504.5 1853.5Z" stroke="#333333" stroke-width="2.86476" stroke-miterlimit="8" fill="#FFA600" fill-rule="evenodd"/><path d="M2533.5 1835.5C2533.5 1826.66 2540.22 1819.5 2548.5 1819.5 2556.78 1819.5 2563.5 1826.66 2563.5 1835.5 2563.5 1844.34 2556.78 1851.5 2548.5 1851.5 2540.22 1851.5 2533.5 1844.34 2533.5 1835.5Z" stroke="#333333" stroke-width="2.86476" stroke-miterlimit="8" fill="#FFA600" fill-rule="evenodd"/><path d="M2559.5 1813.5C2559.5 1804.66 2566.22 1797.5 2574.5 1797.5 2582.78 1797.5 2589.5 1804.66 2589.5 1813.5 2589.5 1822.34 2582.78 1829.5 2574.5 1829.5 2566.22 1829.5 2559.5 1822.34 2559.5 1813.5Z" stroke="#333333" stroke-width="2.86476" stroke-miterlimit="8" fill="#FFA600" fill-rule="evenodd"/><path d="M2587.5 1794C2587.5 1785.44 2594.22 1778.5 2602.5 1778.5 2610.78 1778.5 2617.5 1785.44 2617.5 1794 2617.5 1802.56 2610.78 1809.5 2602.5 1809.5 2594.22 1809.5 2587.5 1802.56 2587.5 1794Z" stroke="#333333" stroke-width="2.86476" stroke-miterlimit="8" fill="#FFA600" fill-rule="evenodd"/><path d="M2612.5 1771.5C2612.5 1762.66 2619.22 1755.5 2627.5 1755.5 2635.78 1755.5 2642.5 1762.66 2642.5 1771.5 2642.5 1780.34 2635.78 1787.5 2627.5 1787.5 2619.22 1787.5 2612.5 1780.34 2612.5 1771.5Z" stroke="#333333" stroke-width="2.86476" stroke-miterlimit="8" fill="#FFA600" fill-rule="evenodd"/><path d="M2637.5 1745.5C2637.5 1736.66 2643.99 1729.5 2652 1729.5 2660.01 1729.5 2666.5 1736.66 2666.5 1745.5 2666.5 1754.34 2660.01 1761.5 2652 1761.5 2643.99 1761.5 2637.5 1754.34 2637.5 1745.5Z" stroke="#333333" stroke-width="2.86476" stroke-miterlimit="8" fill="#FFA600" fill-rule="evenodd"/><path d="M2659.5 1721C2659.5 1712.44 2666.22 1705.5 2674.5 1705.5 2682.78 1705.5 2689.5 1712.44 2689.5 1721 2689.5 1729.56 2682.78 1736.5 2674.5 1736.5 2666.22 1736.5 2659.5 1729.56 2659.5 1721Z" stroke="#333333" stroke-width="2.86476" stroke-miterlimit="8" fill="#FFA600" fill-rule="evenodd"/><path d="M2680.5 1693.5C2680.5 1684.66 2687.22 1677.5 2695.5 1677.5 2703.78 1677.5 2710.5 1684.66 2710.5 1693.5 2710.5 1702.34 2703.78 1709.5 2695.5 1709.5 2687.22 1709.5 2680.5 1702.34 2680.5 1693.5Z" stroke="#333333" stroke-width="2.86476" stroke-miterlimit="8" fill="#FFA600" fill-rule="evenodd"/><path d="M2700.5 1664.5C2700.5 1655.66 2707.22 1648.5 2715.5 1648.5 2723.78 1648.5 2730.5 1655.66 2730.5 1664.5 2730.5 1673.34 2723.78 1680.5 2715.5 1680.5 2707.22 1680.5 2700.5 1673.34 2700.5 1664.5Z" stroke="#333333" stroke-width="2.86476" stroke-miterlimit="8" fill="#FFA600" fill-rule="evenodd"/><path d="M2718.5 1634.5C2718.5 1625.66 2725.44 1618.5 2734 1618.5 2742.56 1618.5 2749.5 1625.66 2749.5 1634.5 2749.5 1643.34 2742.56 1650.5 2734 1650.5 2725.44 1650.5 2718.5 1643.34 2718.5 1634.5Z" stroke="#333333" stroke-width="2.86476" stroke-miterlimit="8" fill="#FFA600" fill-rule="evenodd"/><path d="M2736.5 1604C2736.5 1595.44 2742.99 1588.5 2751 1588.5 2759.01 1588.5 2765.5 1595.44 2765.5 1604 2765.5 1612.56 2759.01 1619.5 2751 1619.5 2742.99 1619.5 2736.5 1612.56 2736.5 1604Z" stroke="#333333" stroke-width="2.86476" stroke-miterlimit="8" fill="#FFA600" fill-rule="evenodd"/><path d="M2751.5 1572.5C2751.5 1563.66 2758.22 1556.5 2766.5 1556.5 2774.78 1556.5 2781.5 1563.66 2781.5 1572.5 2781.5 1581.34 2774.78 1588.5 2766.5 1588.5 2758.22 1588.5 2751.5 1581.34 2751.5 1572.5Z" stroke="#333333" stroke-width="2.86476" stroke-miterlimit="8" fill="#FFA600" fill-rule="evenodd"/><path d="M2764.5 1540.5C2764.5 1531.66 2771.22 1524.5 2779.5 1524.5 2787.78 1524.5 2794.5 1531.66 2794.5 1540.5 2794.5 1549.34 2787.78 1556.5 2779.5 1556.5 2771.22 1556.5 2764.5 1549.34 2764.5 1540.5Z" stroke="#333333" stroke-width="2.86476" stroke-miterlimit="8" fill="#FFA600" fill-rule="evenodd"/><path d="M2776.5 1506.5C2776.5 1497.66 2783.22 1490.5 2791.5 1490.5 2799.78 1490.5 2806.5 1497.66 2806.5 1506.5 2806.5 1515.34 2799.78 1522.5 2791.5 1522.5 2783.22 1522.5 2776.5 1515.34 2776.5 1506.5Z" stroke="#333333" stroke-width="2.86476" stroke-miterlimit="8" fill="#FFA600" fill-rule="evenodd"/><path d="M2786.5 1472C2786.5 1463.44 2792.99 1456.5 2801 1456.5 2809.01 1456.5 2815.5 1463.44 2815.5 1472 2815.5 1480.56 2809.01 1487.5 2801 1487.5 2792.99 1487.5 2786.5 1480.56 2786.5 1472Z" stroke="#333333" stroke-width="2.86476" stroke-miterlimit="8" fill="#FFA600" fill-rule="evenodd"/><path d="M2795.5 1438.5C2795.5 1429.66 2801.99 1422.5 2810 1422.5 2818.01 1422.5 2824.5 1429.66 2824.5 1438.5 2824.5 1447.34 2818.01 1454.5 2810 1454.5 2801.99 1454.5 2795.5 1447.34 2795.5 1438.5Z" stroke="#333333" stroke-width="2.86476" stroke-miterlimit="8" fill="#FFA600" fill-rule="evenodd"/><path d="M2800.5 1403C2800.5 1394.44 2807.22 1387.5 2815.5 1387.5 2823.78 1387.5 2830.5 1394.44 2830.5 1403 2830.5 1411.56 2823.78 1418.5 2815.5 1418.5 2807.22 1418.5 2800.5 1411.56 2800.5 1403Z" stroke="#333333" stroke-width="2.86476" stroke-miterlimit="8" fill="#FFA600" fill-rule="evenodd"/><path d="M2805.5 1367.5C2805.5 1358.66 2812.22 1351.5 2820.5 1351.5 2828.78 1351.5 2835.5 1358.66 2835.5 1367.5 2835.5 1376.34 2828.78 1383.5 2820.5 1383.5 2812.22 1383.5 2805.5 1376.34 2805.5 1367.5Z" stroke="#333333" stroke-width="2.86476" stroke-miterlimit="8" fill="#FFA600" fill-rule="evenodd"/><path d="M2808.5 1332C2808.5 1323.44 2815.22 1316.5 2823.5 1316.5 2831.78 1316.5 2838.5 1323.44 2838.5 1332 2838.5 1340.56 2831.78 1347.5 2823.5 1347.5 2815.22 1347.5 2808.5 1340.56 2808.5 1332Z" stroke="#333333" stroke-width="2.86476" stroke-miterlimit="8" fill="#FFA600" fill-rule="evenodd"/><path d="M2810.5 1293.5C2810.5 1295.4 2810.5 1296.36 2810.5 1297.31 2810.5 1305.88 2816.86 1313.5 2825.05 1313.5 2833.23 1313.5 2840.5 1305.88 2840.5 1297.31 2840.5 1296.36 2839.59 1295.4 2839.59 1293.5" stroke="#333333" stroke-width="2.86476" stroke-miterlimit="8" fill="#FFA600" fill-rule="evenodd"/><path d="M2810.5 1293.5C2810.5 1295.4 2810.5 1296.36 2810.5 1297.31 2810.5 1305.88 2816.86 1313.5 2825.05 1313.5 2833.23 1313.5 2840.5 1305.88 2840.5 1297.31 2840.5 1296.36 2839.59 1295.4 2839.59 1293.5" stroke="#333333" stroke-width="2.86476" stroke-miterlimit="8" fill="none" fill-rule="evenodd"/><path d="M2818 1328C2818 1324.69 2820.46 1322 2823.5 1322 2826.54 1322 2829 1324.69 2829 1328 2829 1331.31 2826.54 1334 2823.5 1334 2820.46 1334 2818 1331.31 2818 1328Z" fill="#FFFFFF" fill-rule="evenodd"/><path d="M2815 1361.5C2815 1358.46 2817.46 1356 2820.5 1356 2823.54 1356 2826 1358.46 2826 1361.5 2826 1364.54 2823.54 1367 2820.5 1367 2817.46 1367 2815 1364.54 2815 1361.5Z" fill="#FFFFFF" fill-rule="evenodd"/><path d="M2809 1398C2809 1394.69 2811.46 1392 2814.5 1392 2817.54 1392 2820 1394.69 2820 1398 2820 1401.31 2817.54 1404 2814.5 1404 2811.46 1404 2809 1401.31 2809 1398Z" fill="#FFFFFF" fill-rule="evenodd"/><path d="M2755 1355C2755 1351.69 2757.46 1349 2760.5 1349 2763.54 1349 2766 1351.69 2766 1355 2766 1358.31 2763.54 1361 2760.5 1361 2757.46 1361 2755 1358.31 2755 1355Z" fill="#FFFFFF" fill-rule="evenodd"/><path d="M2758 1320C2758 1316.69 2760.46 1314 2763.5 1314 2766.54 1314 2769 1316.69 2769 1320 2769 1323.31 2766.54 1326 2763.5 1326 2760.46 1326 2758 1323.31 2758 1320Z" fill="#FFFFFF" fill-rule="evenodd"/><path d="M2752 1387.5C2752 1384.46 2754.46 1382 2757.5 1382 2760.54 1382 2763 1384.46 2763 1387.5 2763 1390.54 2760.54 1393 2757.5 1393 2754.46 1393 2752 1390.54 2752 1387.5Z" fill="#FFFFFF" fill-rule="evenodd"/><path d="M2745 1419.5C2745 1416.46 2747.24 1414 2750 1414 2752.76 1414 2755 1416.46 2755 1419.5 2755 1422.54 2752.76 1425 2750 1425 2747.24 1425 2745 1422.54 2745 1419.5Z" fill="#FFFFFF" fill-rule="evenodd"/><path d="M2737 1452C2737 1448.69 2739.46 1446 2742.5 1446 2745.54 1446 2748 1448.69 2748 1452 2748 1455.31 2745.54 1458 2742.5 1458 2739.46 1458 2737 1455.31 2737 1452Z" fill="#FFFFFF" fill-rule="evenodd"/><path d="M2729 1482.5C2729 1479.46 2731.46 1477 2734.5 1477 2737.54 1477 2740 1479.46 2740 1482.5 2740 1485.54 2737.54 1488 2734.5 1488 2731.46 1488 2729 1485.54 2729 1482.5Z" fill="#FFFFFF" fill-rule="evenodd"/><path d="M2803 1433.5C2803 1430.46 2805.46 1428 2808.5 1428 2811.54 1428 2814 1430.46 2814 1433.5 2814 1436.54 2811.54 1439 2808.5 1439 2805.46 1439 2803 1436.54 2803 1433.5Z" fill="#FFFFFF" fill-rule="evenodd"/><path d="M2796 1466.5C2796 1463.46 2798.24 1461 2801 1461 2803.76 1461 2806 1463.46 2806 1466.5 2806 1469.54 2803.76 1472 2801 1472 2798.24 1472 2796 1469.54 2796 1466.5Z" fill="#FFFFFF" fill-rule="evenodd"/><path d="M2786 1501C2786 1497.69 2788.46 1495 2791.5 1495 2794.54 1495 2797 1497.69 2797 1501 2797 1504.31 2794.54 1507 2791.5 1507 2788.46 1507 2786 1504.31 2786 1501Z" fill="#FFFFFF" fill-rule="evenodd"/><path d="M2773 1533.5C2773 1530.46 2775.46 1528 2778.5 1528 2781.54 1528 2784 1530.46 2784 1533.5 2784 1536.54 2781.54 1539 2778.5 1539 2775.46 1539 2773 1536.54 2773 1533.5Z" fill="#FFFFFF" fill-rule="evenodd"/><path d="M2759 1568C2759 1564.69 2761.46 1562 2764.5 1562 2767.54 1562 2770 1564.69 2770 1568 2770 1571.31 2767.54 1574 2764.5 1574 2761.46 1574 2759 1571.31 2759 1568Z" fill="#FFFFFF" fill-rule="evenodd"/><path d="M2745 1598C2745 1594.69 2747.24 1592 2750 1592 2752.76 1592 2755 1594.69 2755 1598 2755 1601.31 2752.76 1604 2750 1604 2747.24 1604 2745 1601.31 2745 1598Z" fill="#FFFFFF" fill-rule="evenodd"/><path d="M2728 1628.5C2728 1625.46 2730.46 1623 2733.5 1623 2736.54 1623 2739 1625.46 2739 1628.5 2739 1631.54 2736.54 1634 2733.5 1634 2730.46 1634 2728 1631.54 2728 1628.5Z" fill="#FFFFFF" fill-rule="evenodd"/><path d="M2709 1659.5C2709 1656.46 2711.46 1654 2714.5 1654 2717.54 1654 2720 1656.46 2720 1659.5 2720 1662.54 2717.54 1665 2714.5 1665 2711.46 1665 2709 1662.54 2709 1659.5Z" fill="#FFFFFF" fill-rule="evenodd"/><path d="M2689 1688.5C2689 1685.46 2691.46 1683 2694.5 1683 2697.54 1683 2700 1685.46 2700 1688.5 2700 1691.54 2697.54 1694 2694.5 1694 2691.46 1694 2689 1691.54 2689 1688.5Z" fill="#FFFFFF" fill-rule="evenodd"/><path d="M2669 1715C2669 1711.69 2671.46 1709 2674.5 1709 2677.54 1709 2680 1711.69 2680 1715 2680 1718.31 2677.54 1721 2674.5 1721 2671.46 1721 2669 1718.31 2669 1715Z" fill="#FFFFFF" fill-rule="evenodd"/><path d="M2718 1512.5C2718 1509.46 2720.46 1507 2723.5 1507 2726.54 1507 2729 1509.46 2729 1512.5 2729 1515.54 2726.54 1518 2723.5 1518 2720.46 1518 2718 1515.54 2718 1512.5Z" fill="#FFFFFF" fill-rule="evenodd"/><path d="M2706 1542C2706 1538.69 2708.24 1536 2711 1536 2713.76 1536 2716 1538.69 2716 1542 2716 1545.31 2713.76 1548 2711 1548 2708.24 1548 2706 1545.31 2706 1542Z" fill="#FFFFFF" fill-rule="evenodd"/><path d="M2691 1569C2691 1565.69 2693.46 1563 2696.5 1563 2699.54 1563 2702 1565.69 2702 1569 2702 1572.31 2699.54 1575 2696.5 1575 2693.46 1575 2691 1572.31 2691 1569Z" fill="#FFFFFF" fill-rule="evenodd"/><path d="M2679 1596C2679 1592.69 2681.24 1590 2684 1590 2686.76 1590 2689 1592.69 2689 1596 2689 1599.31 2686.76 1602 2684 1602 2681.24 1602 2679 1599.31 2679 1596Z" fill="#FFFFFF" fill-rule="evenodd"/><path d="M2661 1623C2661 1619.69 2663.24 1617 2666 1617 2668.76 1617 2671 1619.69 2671 1623 2671 1626.31 2668.76 1629 2666 1629 2663.24 1629 2661 1626.31 2661 1623Z" fill="#FFFFFF" fill-rule="evenodd"/><path d="M2643 1650C2643 1646.69 2645.24 1644 2648 1644 2650.76 1644 2653 1646.69 2653 1650 2653 1653.31 2650.76 1656 2648 1656 2645.24 1656 2643 1653.31 2643 1650Z" fill="#FFFFFF" fill-rule="evenodd"/><path d="M2625 1675C2625 1671.69 2627.24 1669 2630 1669 2632.76 1669 2635 1671.69 2635 1675 2635 1678.31 2632.76 1681 2630 1681 2627.24 1681 2625 1678.31 2625 1675Z" fill="#FFFFFF" fill-rule="evenodd"/><path d="M2603 1698C2603 1694.69 2605.46 1692 2608.5 1692 2611.54 1692 2614 1694.69 2614 1698 2614 1701.31 2611.54 1704 2608.5 1704 2605.46 1704 2603 1701.31 2603 1698Z" fill="#FFFFFF" fill-rule="evenodd"/><path d="M2581 1722C2581 1718.69 2583.46 1716 2586.5 1716 2589.54 1716 2592 1718.69 2592 1722 2592 1725.31 2589.54 1728 2586.5 1728 2583.46 1728 2581 1725.31 2581 1722Z" fill="#FFFFFF" fill-rule="evenodd"/><path d="M2560 1742C2560 1738.69 2562.46 1736 2565.5 1736 2568.54 1736 2571 1738.69 2571 1742 2571 1745.31 2568.54 1748 2565.5 1748 2562.46 1748 2560 1745.31 2560 1742Z" fill="#FFFFFF" fill-rule="evenodd"/><path d="M2535 1760.5C2535 1757.46 2537.24 1755 2540 1755 2542.76 1755 2545 1757.46 2545 1760.5 2545 1763.54 2542.76 1766 2540 1766 2537.24 1766 2535 1763.54 2535 1760.5Z" fill="#FFFFFF" fill-rule="evenodd"/><path d="M2509 1779.5C2509 1776.46 2511.46 1774 2514.5 1774 2517.54 1774 2520 1776.46 2520 1779.5 2520 1782.54 2517.54 1785 2514.5 1785 2511.46 1785 2509 1782.54 2509 1779.5Z" fill="#FFFFFF" fill-rule="evenodd"/><path d="M2482 1797C2482 1793.69 2484.46 1791 2487.5 1791 2490.54 1791 2493 1793.69 2493 1797 2493 1800.31 2490.54 1803 2487.5 1803 2484.46 1803 2482 1800.31 2482 1797Z" fill="#FFFFFF" fill-rule="evenodd"/><path d="M2455 1813C2455 1809.69 2457.46 1807 2460.5 1807 2463.54 1807 2466 1809.69 2466 1813 2466 1816.31 2463.54 1819 2460.5 1819 2457.46 1819 2455 1816.31 2455 1813Z" fill="#FFFFFF" fill-rule="evenodd"/><path d="M2427 1827C2427 1823.69 2429.24 1821 2432 1821 2434.76 1821 2437 1823.69 2437 1827 2437 1830.31 2434.76 1833 2432 1833 2429.24 1833 2427 1830.31 2427 1827Z" fill="#FFFFFF" fill-rule="evenodd"/><path d="M2401 1837C2401 1833.69 2403.46 1831 2406.5 1831 2409.54 1831 2412 1833.69 2412 1837 2412 1840.31 2409.54 1843 2406.5 1843 2403.46 1843 2401 1840.31 2401 1837Z" fill="#FFFFFF" fill-rule="evenodd"/><path d="M2373 1849C2373 1845.69 2375.24 1843 2378 1843 2380.76 1843 2383 1845.69 2383 1849 2383 1852.31 2380.76 1855 2378 1855 2375.24 1855 2373 1852.31 2373 1849Z" fill="#FFFFFF" fill-rule="evenodd"/><path d="M2344 1856.5C2344 1853.46 2346.46 1851 2349.5 1851 2352.54 1851 2355 1853.46 2355 1856.5 2355 1859.54 2352.54 1862 2349.5 1862 2346.46 1862 2344 1859.54 2344 1856.5Z" fill="#FFFFFF" fill-rule="evenodd"/><path d="M2311 1861.5C2311 1858.46 2313.46 1856 2316.5 1856 2319.54 1856 2322 1858.46 2322 1861.5 2322 1864.54 2319.54 1867 2316.5 1867 2313.46 1867 2311 1864.54 2311 1861.5Z" fill="#FFFFFF" fill-rule="evenodd"/><path d="M2282 1867C2282 1863.69 2284.46 1861 2287.5 1861 2290.54 1861 2293 1863.69 2293 1867 2293 1870.31 2290.54 1873 2287.5 1873 2284.46 1873 2282 1870.31 2282 1867Z" fill="#FFFFFF" fill-rule="evenodd"/><path d="M2251 1870C2251 1866.69 2253.46 1864 2256.5 1864 2259.54 1864 2262 1866.69 2262 1870 2262 1873.31 2259.54 1876 2256.5 1876 2253.46 1876 2251 1873.31 2251 1870Z" fill="#FFFFFF" fill-rule="evenodd"/><path d="M2222 1872C2222 1868.69 2224.46 1866 2227.5 1866 2230.54 1866 2233 1868.69 2233 1872 2233 1875.31 2230.54 1878 2227.5 1878 2224.46 1878 2222 1875.31 2222 1872Z" fill="#FFFFFF" fill-rule="evenodd"/><path d="M2226 1932.5C2226 1929.46 2228.46 1927 2231.5 1927 2234.54 1927 2237 1929.46 2237 1932.5 2237 1935.54 2234.54 1938 2231.5 1938 2228.46 1938 2226 1935.54 2226 1932.5Z" fill="#FFFFFF" fill-rule="evenodd"/><path d="M2260 1932.5C2260 1929.46 2262.24 1927 2265 1927 2267.76 1927 2270 1929.46 2270 1932.5 2270 1935.54 2267.76 1938 2265 1938 2262.24 1938 2260 1935.54 2260 1932.5Z" fill="#FFFFFF" fill-rule="evenodd"/><path d="M2293 1927.5C2293 1924.46 2295.46 1922 2298.5 1922 2301.54 1922 2304 1924.46 2304 1927.5 2304 1930.54 2301.54 1933 2298.5 1933 2295.46 1933 2293 1930.54 2293 1927.5Z" fill="#FFFFFF" fill-rule="evenodd"/><path d="M2326 1922C2326 1918.69 2328.46 1916 2331.5 1916 2334.54 1916 2337 1918.69 2337 1922 2337 1925.31 2334.54 1928 2331.5 1928 2328.46 1928 2326 1925.31 2326 1922Z" fill="#FFFFFF" fill-rule="evenodd"/><path d="M2356 1914C2356 1910.69 2358.46 1908 2361.5 1908 2364.54 1908 2367 1910.69 2367 1914 2367 1917.31 2364.54 1920 2361.5 1920 2358.46 1920 2356 1917.31 2356 1914Z" fill="#FFFFFF" fill-rule="evenodd"/><path d="M2390 1905.5C2390 1902.46 2392.46 1900 2395.5 1900 2398.54 1900 2401 1902.46 2401 1905.5 2401 1908.54 2398.54 1911 2395.5 1911 2392.46 1911 2390 1908.54 2390 1905.5Z" fill="#FFFFFF" fill-rule="evenodd"/><path d="M2421 1894C2421 1890.69 2423.24 1888 2426 1888 2428.76 1888 2431 1890.69 2431 1894 2431 1897.31 2428.76 1900 2426 1900 2423.24 1900 2421 1897.31 2421 1894Z" fill="#FFFFFF" fill-rule="evenodd"/><path d="M2453 1882C2453 1878.69 2455.46 1876 2458.5 1876 2461.54 1876 2464 1878.69 2464 1882 2464 1885.31 2461.54 1888 2458.5 1888 2455.46 1888 2453 1885.31 2453 1882Z" fill="#FFFFFF" fill-rule="evenodd"/><path d="M2482 1865C2482 1861.69 2484.46 1859 2487.5 1859 2490.54 1859 2493 1861.69 2493 1865 2493 1868.31 2490.54 1871 2487.5 1871 2484.46 1871 2482 1868.31 2482 1865Z" fill="#FFFFFF" fill-rule="evenodd"/><path d="M2511 1850C2511 1846.69 2513.46 1844 2516.5 1844 2519.54 1844 2522 1846.69 2522 1850 2522 1853.31 2519.54 1856 2516.5 1856 2513.46 1856 2511 1853.31 2511 1850Z" fill="#FFFFFF" fill-rule="evenodd"/><path d="M2539 1829.5C2539 1826.46 2541.46 1824 2544.5 1824 2547.54 1824 2550 1826.46 2550 1829.5 2550 1832.54 2547.54 1835 2544.5 1835 2541.46 1835 2539 1832.54 2539 1829.5Z" fill="#FFFFFF" fill-rule="evenodd"/><path d="M2567 1809.5C2567 1806.46 2569.46 1804 2572.5 1804 2575.54 1804 2578 1806.46 2578 1809.5 2578 1812.54 2575.54 1815 2572.5 1815 2569.46 1815 2567 1812.54 2567 1809.5Z" fill="#FFFFFF" fill-rule="evenodd"/><path d="M2594 1790C2594 1786.69 2596.46 1784 2599.5 1784 2602.54 1784 2605 1786.69 2605 1790 2605 1793.31 2602.54 1796 2599.5 1796 2596.46 1796 2594 1793.31 2594 1790Z" fill="#FFFFFF" fill-rule="evenodd"/><path d="M2622 1766C2622 1762.69 2624.46 1760 2627.5 1760 2630.54 1760 2633 1762.69 2633 1766 2633 1769.31 2630.54 1772 2627.5 1772 2624.46 1772 2622 1769.31 2622 1766Z" fill="#FFFFFF" fill-rule="evenodd"/><path d="M2646 1741C2646 1737.69 2648.46 1735 2651.5 1735 2654.54 1735 2657 1737.69 2657 1741 2657 1744.31 2654.54 1747 2651.5 1747 2648.46 1747 2646 1744.31 2646 1741Z" fill="#FFFFFF" fill-rule="evenodd"/></g></svg>