<svg width="132" height="140" xmlns="http://www.w3.org/2000/svg" xmlns:xlink="http://www.w3.org/1999/xlink" xml:space="preserve" overflow="hidden"><g transform="translate(-933 -805)"><path d="M934 874.5C934 836.669 962.878 806 998.5 806 1034.12 806 1063 836.669 1063 874.5 1063 912.331 1034.12 943 998.5 943 962.878 943 934 912.331 934 874.5Z" fill="#FFFFFF" fill-rule="evenodd"/><path d="M1032.62 824C1044.04 836.107 1050.38 850.905 1050.38 868.393 1050.38 903.369 1025 930.274 992 930.274 979.308 930.274 967.885 926.238 959 918.167 969.154 930.274 983.115 937 999.615 937 1031.35 937 1058 908.75 1058 875.119 1058 853.595 1047.85 836.107 1032.62 824Z" fill="#C4C4C4" fill-rule="evenodd"/><path d="M934.5 875C934.5 837.168 963.378 806.5 999 806.5 1034.62 806.5 1063.5 837.168 1063.5 875 1063.5 912.832 1034.62 943.5 999 943.5 963.378 943.5 934.5 912.832 934.5 875Z" stroke="#333333" stroke-width="2.86476" stroke-linecap="round" stroke-linejoin="round" stroke-miterlimit="10" fill="none" fill-rule="evenodd"/></g></svg>