<svg width="164" height="185" xmlns="http://www.w3.org/2000/svg" xmlns:xlink="http://www.w3.org/1999/xlink" xml:space="preserve" overflow="hidden"><g transform="translate(-3204 -1900)"><path d="M3300.37 2082 3220.87 2047.71 3206 1957.43 3272.92 1902 3352.42 1934 3365 2023.71 3300.37 2082Z" fill="#008A50" fill-rule="evenodd"/><path d="M3300.37 2082 3220.87 2047.71 3206 1957.43 3272.92 1902 3352.42 1934 3365 2023.71 3300.37 2082Z" fill="#FFFFFF" fill-rule="evenodd"/><path d="M3300.37 2082 3220.87 2047.71 3206 1957.43 3272.92 1902 3352.42 1934 3365 2023.71 3300.37 2082Z" fill="#F3AAAF" fill-rule="evenodd"/><path d="M3276 1918 3224 1963.25 3236 2040 3243.43 1973.56 3276 1918Z" fill="#FFFFFF" fill-rule="evenodd"/><path d="M3248 2050.7 3298.25 2069 3356 2021.52 3345.6 1941.44 3305.75 1926 3330.59 1952.31 3338.1 2007.8 3293.05 2052.98 3248 2050.7Z" fill="#EB7182" fill-rule="evenodd"/><path d="M3300.87 2082.5 3221.37 2048.21 3206.5 1957.93 3273.42 1902.5 3352.92 1934.5 3365.5 2024.21 3300.87 2082.5Z" stroke="#000000" stroke-width="5.15643" stroke-linecap="round" stroke-linejoin="round" stroke-miterlimit="10" fill="none" fill-rule="evenodd"/></g></svg>