<svg width="153" height="167" xmlns="http://www.w3.org/2000/svg" xmlns:xlink="http://www.w3.org/1999/xlink" xml:space="preserve" overflow="hidden"><g transform="translate(-1481 -1687)"><path d="M1482 1770.5C1482 1724.94 1515.8 1688 1557.5 1688 1599.2 1688 1633 1724.94 1633 1770.5 1633 1816.06 1599.2 1853 1557.5 1853 1515.8 1853 1482 1816.06 1482 1770.5Z" fill="#E2007A" fill-rule="evenodd"/><path d="M1619.54 1749.32C1615.08 1735 1615.08 1744.55 1615.08 1758.86 1615.08 1797.05 1583.85 1825.68 1548.15 1825.68 1534.77 1825.68 1521.38 1820.91 1516.92 1816.14 1508 1816.14 1508 1816.14 1512.46 1820.91 1521.38 1835.23 1539.23 1840 1557.08 1840 1592.77 1840 1624 1811.36 1624 1773.18 1624 1763.64 1624 1754.09 1619.54 1749.32Z" fill="#AC005E" fill-rule="evenodd"/><path d="M1558 1840C1593.2 1840 1624 1811.29 1624 1773 1624 1782.57 1610.8 1835.21 1558 1840Z" fill="#640033" fill-rule="evenodd"/><path d="M1570.77 1706.71C1522.12 1702 1500 1735 1500 1758.57 1500 1763.29 1500 1772.71 1500 1777.43 1504.42 1786.86 1513.27 1801 1535.38 1791.57 1553.08 1786.86 1553.08 1763.29 1566.35 1768 1597.31 1772.71 1615 1749.14 1606.15 1725.57 1597.31 1716.14 1588.46 1711.43 1575.19 1706.71" fill="#EF91B8" fill-rule="evenodd"/><path d="M1513 1745C1513 1737.27 1519.94 1731 1528.5 1731 1537.06 1731 1544 1737.27 1544 1745 1544 1752.73 1537.06 1759 1528.5 1759 1519.94 1759 1513 1752.73 1513 1745Z" fill="#FFFFFF" fill-rule="evenodd"/><path d="M1544 1733C1544 1729.13 1546.01 1726 1548.5 1726 1550.99 1726 1553 1729.13 1553 1733 1553 1736.87 1550.99 1740 1548.5 1740 1546.01 1740 1544 1736.87 1544 1733Z" fill="#FFFFFF" fill-rule="evenodd"/><path d="M1518 1773.5C1518 1771.01 1519.79 1769 1522 1769 1524.21 1769 1526 1771.01 1526 1773.5 1526 1775.99 1524.21 1778 1522 1778 1519.79 1778 1518 1775.99 1518 1773.5Z" fill="#FFFFFF" fill-rule="evenodd"/><path d="M1482 1770.5C1482 1724.94 1515.8 1688 1557.5 1688 1599.2 1688 1633 1724.94 1633 1770.5 1633 1816.06 1599.2 1853 1557.5 1853 1515.8 1853 1482 1816.06 1482 1770.5Z" stroke="#000000" stroke-width="2.29167" stroke-linecap="round" stroke-linejoin="round" stroke-miterlimit="10" fill="none" fill-rule="evenodd"/></g></svg>