<svg width="54" height="58" xmlns="http://www.w3.org/2000/svg" xmlns:xlink="http://www.w3.org/1999/xlink" xml:space="preserve" overflow="hidden"><g transform="translate(-1153 -846)"><path d="M1154 874.5C1154 859.312 1165.42 847 1179.5 847 1193.58 847 1205 859.312 1205 874.5 1205 889.688 1193.58 902 1179.5 902 1165.42 902 1154 889.688 1154 874.5Z" fill="#FFFFFF" fill-rule="evenodd"/><path d="M1193 854C1197.5 858.928 1200 864.952 1200 872.071 1200 886.309 1190 897.262 1177 897.262 1172 897.262 1167.5 895.619 1164 892.333 1168 897.262 1173.5 900 1180 900 1192.5 900 1203 888.5 1203 874.809 1203 866.047 1199 858.928 1193 854Z" fill="#C4C4C4" fill-rule="evenodd"/><path d="M1154.5 875C1154.5 859.812 1165.92 847.5 1180 847.5 1194.08 847.5 1205.5 859.812 1205.5 875 1205.5 890.188 1194.08 902.5 1180 902.5 1165.92 902.5 1154.5 890.188 1154.5 875Z" stroke="#333333" stroke-width="2.86476" stroke-linecap="round" stroke-linejoin="round" stroke-miterlimit="10" fill="none" fill-rule="evenodd"/></g></svg>