<svg width="158" height="168" xmlns="http://www.w3.org/2000/svg" xmlns:xlink="http://www.w3.org/1999/xlink" xml:space="preserve" overflow="hidden"><g transform="translate(-822 -1928)"><path d="M823 2012C823 1966.16 857.922 1929 901 1929 944.078 1929 979 1966.16 979 2012 979 2057.84 944.078 2095 901 2095 857.922 2095 823 2057.84 823 2012Z" fill="#0096D6" fill-rule="evenodd"/><path d="M964.593 1990.18C960.185 1976 960.185 1985.45 960.185 1999.64 960.185 2037.45 924.926 2065.82 889.667 2065.82 880.852 2065.82 867.63 2061.09 858.815 2056.36 854.408 2056.36 850 2056.36 854.408 2061.09 867.63 2075.27 885.259 2080 902.889 2080 938.148 2080 969 2051.64 969 2013.82 969 2004.36 964.593 1994.91 964.593 1990.18Z" fill="#0070A7" fill-rule="evenodd"/><path d="M903 2080C938.2 2080 969 2051.71 969 2014 964.6 2023.43 951.4 2075.29 903 2080Z" fill="#00466B" fill-rule="evenodd"/><path d="M912.111 1947.71C863.222 1943 845.445 1976 841 1999.57 841 2004.29 841 2013.71 845.445 2018.43 845.445 2027.86 854.333 2042 876.556 2032.57 898.778 2027.86 894.333 2004.29 907.667 2009 938.778 2013.71 961 1990.14 947.667 1966.57 943.222 1957.14 934.333 1952.43 916.556 1947.71" fill="#84C4E8" fill-rule="evenodd"/><path d="M859 1985C859 1977.27 864.82 1971 872 1971 879.18 1971 885 1977.27 885 1985 885 1992.73 879.18 1999 872 1999 864.82 1999 859 1992.73 859 1985Z" fill="#FFFFFF" fill-rule="evenodd"/><path d="M885 1974C885 1970.13 887.91 1967 891.5 1967 895.09 1967 898 1970.13 898 1974 898 1977.87 895.09 1981 891.5 1981 887.91 1981 885 1977.87 885 1974Z" fill="#FFFFFF" fill-rule="evenodd"/><path d="M859 2014C859 2011.24 861.91 2009 865.5 2009 869.09 2009 872 2011.24 872 2014 872 2016.76 869.09 2019 865.5 2019 861.91 2019 859 2016.76 859 2014Z" fill="#FFFFFF" fill-rule="evenodd"/><path d="M823 2012C823 1966.16 857.922 1929 901 1929 944.078 1929 979 1966.16 979 2012 979 2057.84 944.078 2095 901 2095 857.922 2095 823 2057.84 823 2012Z" stroke="#000000" stroke-width="2.29167" stroke-linecap="round" stroke-linejoin="round" stroke-miterlimit="10" fill="none" fill-rule="evenodd"/></g></svg>