<svg width="81" height="86" xmlns="http://www.w3.org/2000/svg" xmlns:xlink="http://www.w3.org/1999/xlink" xml:space="preserve" overflow="hidden"><g transform="translate(-1066 -832)"><path d="M1067 874.5C1067 851.58 1084.46 833 1106 833 1127.54 833 1145 851.58 1145 874.5 1145 897.42 1127.54 916 1106 916 1084.46 916 1067 897.42 1067 874.5Z" fill="#FFFFFF" fill-rule="evenodd"/><path d="M1126.87 844C1133.68 851.286 1137.46 860.19 1137.46 870.714 1137.46 891.762 1122.33 907.952 1102.67 907.952 1095.1 907.952 1088.29 905.524 1083 900.667 1089.05 907.952 1097.37 912 1107.21 912 1126.12 912 1142 895 1142 874.762 1142 861.809 1135.95 851.286 1126.87 844Z" fill="#C4C4C4" fill-rule="evenodd"/><path d="M1067.5 875C1067.5 852.08 1084.96 833.5 1106.5 833.5 1128.04 833.5 1145.5 852.08 1145.5 875 1145.5 897.92 1128.04 916.5 1106.5 916.5 1084.96 916.5 1067.5 897.92 1067.5 875Z" stroke="#333333" stroke-width="2.86476" stroke-linecap="round" stroke-linejoin="round" stroke-miterlimit="10" fill="none" fill-rule="evenodd"/></g></svg>