<svg width="157" height="168" xmlns="http://www.w3.org/2000/svg" xmlns:xlink="http://www.w3.org/1999/xlink" xml:space="preserve" overflow="hidden"><g transform="translate(-1257 -1928)"><path d="M1258 2012C1258 1966.16 1292.7 1929 1335.5 1929 1378.3 1929 1413 1966.16 1413 2012 1413 2057.84 1378.3 2095 1335.5 2095 1292.7 2095 1258 2057.84 1258 2012Z" fill="#FFE700" fill-rule="evenodd"/><path d="M1399.56 1990.32C1395.11 1976 1395.11 1985.55 1395.11 1999.86 1395.11 2038.05 1359.56 2066.68 1324 2066.68 1315.11 2066.68 1301.78 2061.91 1292.89 2057.14 1288.44 2057.14 1284 2057.14 1288.44 2061.91 1301.78 2076.23 1319.56 2081 1337.33 2081 1372.89 2081 1404 2052.36 1404 2014.18 1404 2004.64 1399.56 1995.09 1399.56 1990.32Z" fill="#FABB00" fill-rule="evenodd"/><path d="M1338 2081C1373.2 2081 1404 2052.29 1404 2014 1399.6 2023.57 1386.4 2076.21 1338 2081Z" fill="#B08500" fill-rule="evenodd"/><path d="M1346.7 1947.71C1297.41 1943 1279.48 1976 1275 1999.57 1275 2004.29 1275 2013.71 1279.48 2018.43 1279.48 2027.86 1288.44 2042 1310.85 2032.57 1333.26 2027.86 1328.78 2004.29 1342.22 2009 1373.59 2013.71 1396 1990.14 1382.56 1966.57 1378.07 1957.14 1369.11 1952.43 1351.19 1947.71" fill="#FFF8C9" fill-rule="evenodd"/><path d="M1293 1985.5C1293 1977.49 1299.04 1971 1306.5 1971 1313.96 1971 1320 1977.49 1320 1985.5 1320 1993.51 1313.96 2000 1306.5 2000 1299.04 2000 1293 1993.51 1293 1985.5Z" fill="#FFFFFF" fill-rule="evenodd"/><path d="M1320 1974C1320 1970.13 1322.91 1967 1326.5 1967 1330.09 1967 1333 1970.13 1333 1974 1333 1977.87 1330.09 1981 1326.5 1981 1322.91 1981 1320 1977.87 1320 1974Z" fill="#FFFFFF" fill-rule="evenodd"/><path d="M1293 2014C1293 2011.24 1296.13 2009 1300 2009 1303.87 2009 1307 2011.24 1307 2014 1307 2016.76 1303.87 2019 1300 2019 1296.13 2019 1293 2016.76 1293 2014Z" fill="#FFFFFF" fill-rule="evenodd"/><path d="M1258 2012C1258 1966.16 1292.7 1929 1335.5 1929 1378.3 1929 1413 1966.16 1413 2012 1413 2057.84 1378.3 2095 1335.5 2095 1292.7 2095 1258 2057.84 1258 2012Z" stroke="#000000" stroke-width="2.29167" stroke-linecap="round" stroke-linejoin="round" stroke-miterlimit="10" fill="none" fill-rule="evenodd"/></g></svg>