<svg width="184" height="196" xmlns="http://www.w3.org/2000/svg" xmlns:xlink="http://www.w3.org/1999/xlink" xml:space="preserve" overflow="hidden"><g transform="translate(-740 -777)"><path d="M741 874.5C741 821.204 781.518 778 831.5 778 881.482 778 922 821.204 922 874.5 922 927.796 881.482 971 831.5 971 781.518 971 741 927.796 741 874.5Z" fill="#FFFFFF" fill-rule="evenodd"/><path d="M879.615 804C895.539 821.036 904.385 841.857 904.385 866.464 904.385 915.678 869 953.536 823 953.536 805.308 953.536 789.385 947.857 777 936.5 791.154 953.536 810.615 963 833.615 963 877.846 963 915 923.25 915 875.929 915 845.643 900.846 821.036 879.615 804Z" fill="#C4C4C4" fill-rule="evenodd"/><path d="M741.5 875C741.5 821.705 782.018 778.5 832 778.5 881.982 778.5 922.5 821.705 922.5 875 922.5 928.295 881.982 971.5 832 971.5 782.018 971.5 741.5 928.295 741.5 875Z" stroke="#333333" stroke-width="2.86476" stroke-linecap="round" stroke-linejoin="round" stroke-miterlimit="10" fill="none" fill-rule="evenodd"/></g></svg>