<svg width="158" height="167" xmlns="http://www.w3.org/2000/svg" xmlns:xlink="http://www.w3.org/1999/xlink" xml:space="preserve" overflow="hidden"><g transform="translate(-818 -1687)"><path d="M819 1770.5C819 1724.94 853.922 1688 897 1688 940.078 1688 975 1724.94 975 1770.5 975 1816.06 940.078 1853 897 1853 853.922 1853 819 1816.06 819 1770.5Z" fill="#920056" fill-rule="evenodd"/><path d="M962.5 1749.18C958 1735 958 1744.45 958 1758.64 958 1796.45 926.5 1824.82 890.5 1824.82 877 1824.82 863.5 1820.09 854.5 1815.36 850 1815.36 850 1815.36 850 1820.09 863.5 1834.27 881.5 1839 899.5 1839 935.5 1839 967 1810.64 967 1772.82 967 1763.36 967 1753.91 962.5 1749.18Z" fill="#66003A" fill-rule="evenodd"/><path d="M899 1839C935.267 1839 967 1810.71 967 1773 967 1782.43 948.867 1834.29 899 1839Z" fill="#3E001D" fill-rule="evenodd"/><path d="M912.769 1706.71C864.115 1702 842 1735 842 1758.57 842 1763.29 842 1772.71 842 1777.43 846.423 1786.86 855.269 1801 872.961 1791.57 895.077 1786.86 895.077 1763.29 908.346 1768 939.308 1772.71 957 1749.14 948.154 1725.57 939.308 1716.14 930.461 1711.43 912.769 1706.71" fill="#CBA9BE" fill-rule="evenodd"/><path d="M855 1744.5C855 1736.49 861.044 1730 868.5 1730 875.956 1730 882 1736.49 882 1744.5 882 1752.51 875.956 1759 868.5 1759 861.044 1759 855 1752.51 855 1744.5Z" fill="#FFFFFF" fill-rule="evenodd"/><path d="M886 1733C886 1729.13 888.015 1726 890.5 1726 892.985 1726 895 1729.13 895 1733 895 1736.87 892.985 1740 890.5 1740 888.015 1740 886 1736.87 886 1733Z" fill="#FFFFFF" fill-rule="evenodd"/><path d="M859 1773C859 1770.24 861.015 1768 863.5 1768 865.985 1768 868 1770.24 868 1773 868 1775.76 865.985 1778 863.5 1778 861.015 1778 859 1775.76 859 1773Z" fill="#FFFFFF" fill-rule="evenodd"/><path d="M819 1770.5C819 1724.94 853.922 1688 897 1688 940.078 1688 975 1724.94 975 1770.5 975 1816.06 940.078 1853 897 1853 853.922 1853 819 1816.06 819 1770.5Z" stroke="#000000" stroke-width="2.29167" stroke-linecap="round" stroke-linejoin="round" stroke-miterlimit="10" fill="none" fill-rule="evenodd"/></g></svg>