<svg width="157" height="168" xmlns="http://www.w3.org/2000/svg" xmlns:xlink="http://www.w3.org/1999/xlink" xml:space="preserve" overflow="hidden"><g transform="translate(-1705 -1928)"><path d="M1706 2012C1706 1966.16 1740.7 1929 1783.5 1929 1826.3 1929 1861 1966.16 1861 2012 1861 2057.84 1826.3 2095 1783.5 2095 1740.7 2095 1706 2057.84 1706 2012Z" fill="#197896" fill-rule="evenodd"/><path d="M1847.59 1990.18C1843.19 1976 1843.19 1985.45 1843.19 1999.64 1843.19 2037.45 1812.33 2065.82 1772.67 2065.82 1763.85 2065.82 1750.63 2061.09 1741.81 2056.36 1737.41 2056.36 1733 2056.36 1737.41 2061.09 1750.63 2075.27 1768.26 2080 1785.89 2080 1821.15 2080 1852 2051.64 1852 2013.82 1852 2004.36 1852 1994.91 1847.59 1990.18Z" fill="#003C5A" fill-rule="evenodd"/><path d="M1786 2080C1821.2 2080 1852 2051.71 1852 2014 1847.6 2023.43 1834.4 2075.29 1786 2080Z" fill="#00101C" fill-rule="evenodd"/><path d="M1799.19 1947.71C1745.41 1943 1727.48 1976 1727.48 1999.57 1723 2004.29 1727.48 2013.71 1727.48 2018.43 1731.96 2027.86 1740.93 2042 1758.85 2032.57 1781.26 2027.86 1781.26 2004.29 1794.7 2009 1826.07 2013.71 1844 1990.14 1830.56 1966.57 1826.07 1957.14 1817.11 1952.43 1799.19 1947.71" fill="#71A4BA" fill-rule="evenodd"/><path d="M1741 1985.5C1741 1977.49 1747.04 1971 1754.5 1971 1761.96 1971 1768 1977.49 1768 1985.5 1768 1993.51 1761.96 2000 1754.5 2000 1747.04 2000 1741 1993.51 1741 1985.5Z" fill="#FFFFFF" fill-rule="evenodd"/><path d="M1773 1974C1773 1970.13 1774.79 1967 1777 1967 1779.21 1967 1781 1970.13 1781 1974 1781 1977.87 1779.21 1981 1777 1981 1774.79 1981 1773 1977.87 1773 1974Z" fill="#FFFFFF" fill-rule="evenodd"/><path d="M1741 2014C1741 2011.24 1744.13 2009 1748 2009 1751.87 2009 1755 2011.24 1755 2014 1755 2016.76 1751.87 2019 1748 2019 1744.13 2019 1741 2016.76 1741 2014Z" fill="#FFFFFF" fill-rule="evenodd"/><path d="M1706 2012C1706 1966.16 1740.7 1929 1783.5 1929 1826.3 1929 1861 1966.16 1861 2012 1861 2057.84 1826.3 2095 1783.5 2095 1740.7 2095 1706 2057.84 1706 2012Z" stroke="#000000" stroke-width="2.29167" stroke-linecap="round" stroke-linejoin="round" stroke-miterlimit="10" fill="none" fill-rule="evenodd"/></g></svg>