<svg width="167" height="186" xmlns="http://www.w3.org/2000/svg" xmlns:xlink="http://www.w3.org/1999/xlink" xml:space="preserve" overflow="hidden"><g transform="translate(-2938 -1909)"><path d="M3034.45 2092 2954.88 2057.52 2940 1966.74 3006.98 1911 3087.12 1942.6 3102 2033.39 3034.45 2092Z" fill="#008A50" fill-rule="evenodd"/><path d="M3034.45 2092 2954.88 2057.52 2940 1966.74 3006.98 1911 3087.12 1942.6 3102 2033.39 3034.45 2092Z" fill="#FFFFFF" fill-rule="evenodd"/><path d="M3034.45 2092 2954.88 2057.52 2940 1966.74 3006.98 1911 3087.12 1942.6 3102 2033.39 3034.45 2092Z" fill="#AF4690" fill-rule="evenodd"/><path d="M3010 1927 2957 1972.04 2969.23 2049 2976.8 1982.87 3010 1927Z" fill="#FFFFFF" fill-rule="evenodd"/><path d="M2984 2060.07 3031.62 2079 3089 2030.81 3078.67 1951.06 3039.08 1935 3066.62 1961.96 3071.21 2017.61 3029.33 2062.94 2984 2060.07Z" fill="#7C0260" fill-rule="evenodd"/><path d="M3034.95 2092.5 2955.38 2058.02 2940.5 1967.24 3007.48 1911.5 3087.62 1943.1 3102.5 2033.89 3034.95 2092.5Z" stroke="#000000" stroke-width="5.15643" stroke-linecap="round" stroke-linejoin="round" stroke-miterlimit="10" fill="none" fill-rule="evenodd"/></g></svg>