<svg width="157" height="167" xmlns="http://www.w3.org/2000/svg" xmlns:xlink="http://www.w3.org/1999/xlink" xml:space="preserve" overflow="hidden"><g transform="translate(-1259 -1687)"><path d="M1260 1770.5C1260 1724.94 1294.7 1688 1337.5 1688 1380.3 1688 1415 1724.94 1415 1770.5 1415 1816.06 1380.3 1853 1337.5 1853 1294.7 1853 1260 1816.06 1260 1770.5Z" fill="#31BDEA" fill-rule="evenodd"/><path d="M1402 1749.32C1397.58 1735 1397.58 1744.55 1397.58 1758.86 1397.58 1797.05 1362.19 1825.68 1326.81 1825.68 1317.96 1825.68 1304.69 1820.91 1295.85 1816.14 1291.42 1816.14 1287 1816.14 1291.42 1820.91 1304.69 1835.23 1317.96 1840 1340.08 1840 1375.46 1840 1402 1811.36 1402 1773.18 1402 1763.64 1402 1754.09 1402 1749.32Z" fill="#009EE0" fill-rule="evenodd"/><path d="M1340 1840C1375.43 1840 1402 1811.29 1402 1773 1402 1782.57 1388.71 1835.21 1340 1840Z" fill="#007FB5" fill-rule="evenodd"/><path d="M1348.52 1706.71C1300.04 1702 1282.41 1735 1278 1758.57 1278 1763.29 1278 1772.71 1282.41 1777.43 1282.41 1786.86 1291.22 1801 1313.26 1791.57 1335.3 1786.86 1330.89 1763.29 1344.11 1768 1374.96 1772.71 1397 1749.14 1383.78 1725.57 1379.37 1716.14 1370.56 1711.43 1352.93 1706.71" fill="#ABDDF5" fill-rule="evenodd"/><path d="M1291 1744.5C1291 1736.49 1297.94 1730 1306.5 1730 1315.06 1730 1322 1736.49 1322 1744.5 1322 1752.51 1315.06 1759 1306.5 1759 1297.94 1759 1291 1752.51 1291 1744.5Z" fill="#FFFFFF" fill-rule="evenodd"/><path d="M1322 1733C1322 1729.13 1324.91 1726 1328.5 1726 1332.09 1726 1335 1729.13 1335 1733 1335 1736.87 1332.09 1740 1328.5 1740 1324.91 1740 1322 1736.87 1322 1733Z" fill="#FFFFFF" fill-rule="evenodd"/><path d="M1295 1773.5C1295 1771.01 1297.24 1769 1300 1769 1302.76 1769 1305 1771.01 1305 1773.5 1305 1775.99 1302.76 1778 1300 1778 1297.24 1778 1295 1775.99 1295 1773.5Z" fill="#FFFFFF" fill-rule="evenodd"/><path d="M1260 1770.5C1260 1724.94 1294.7 1688 1337.5 1688 1380.3 1688 1415 1724.94 1415 1770.5 1415 1816.06 1380.3 1853 1337.5 1853 1294.7 1853 1260 1816.06 1260 1770.5Z" stroke="#000000" stroke-width="2.29167" stroke-linecap="round" stroke-linejoin="round" stroke-miterlimit="10" fill="none" fill-rule="evenodd"/></g></svg>