<svg width="167" height="185" xmlns="http://www.w3.org/2000/svg" xmlns:xlink="http://www.w3.org/1999/xlink" xml:space="preserve" overflow="hidden"><g transform="translate(-2783 -1671)"><path d="M2879.45 1853 2799.88 1818.71 2785 1728.43 2851.98 1673 2932.12 1705 2947 1794.71 2879.45 1853Z" fill="#008A50" fill-rule="evenodd"/><path d="M2879.45 1853 2799.88 1818.71 2785 1728.43 2851.98 1673 2932.12 1705 2947 1794.71 2879.45 1853Z" fill="#FFFFFF" fill-rule="evenodd"/><path d="M2879.45 1853 2799.88 1818.71 2785 1728.43 2851.98 1673 2932.12 1705 2947 1794.71 2879.45 1853Z" fill="#FFF7AB" fill-rule="evenodd"/><path d="M2855 1689 2802 1734.25 2814.67 1811 2822.16 1744.56 2855 1689Z" fill="#FFFFFF" fill-rule="evenodd"/><path d="M2830 1821.7 2877.17 1840 2934 1792.52 2924.34 1712.44 2884.56 1697 2911.84 1723.31 2916.95 1778.8 2874.9 1823.98 2830 1821.7Z" fill="#FFDB00" fill-rule="evenodd"/><path d="M2879.95 1853.5 2800.38 1819.21 2785.5 1728.93 2852.48 1673.5 2932.62 1705.5 2947.5 1795.21 2879.95 1853.5Z" stroke="#000000" stroke-width="5.15643" stroke-linecap="round" stroke-linejoin="round" stroke-miterlimit="10" fill="none" fill-rule="evenodd"/></g></svg>