<svg width="168" height="185" xmlns="http://www.w3.org/2000/svg" xmlns:xlink="http://www.w3.org/1999/xlink" xml:space="preserve" overflow="hidden"><g transform="translate(-3332 -1671)"><path d="M3429.04 1853 3348.98 1818.71 3334 1728.43 3401.39 1673 3482.02 1705 3497 1794.71 3429.04 1853Z" fill="#008A50" fill-rule="evenodd"/><path d="M3429.04 1853 3348.98 1818.71 3334 1728.43 3401.39 1673 3482.02 1705 3497 1794.71 3429.04 1853Z" fill="#FFFFFF" fill-rule="evenodd"/><path d="M3429.04 1853 3348.98 1818.71 3334 1728.43 3401.39 1673 3482.02 1705 3497 1794.71 3429.04 1853Z" fill="#FDC72B" fill-rule="evenodd"/><path d="M3404 1689 3352 1734.25 3364.43 1811 3371.78 1744.56 3404 1689Z" fill="#FFFFFF" fill-rule="evenodd"/><path d="M3379 1821.7 3426.62 1840 3484 1792.52 3474.25 1712.44 3434.08 1697 3461.62 1723.31 3466.79 1778.8 3424.33 1823.98 3379 1821.7Z" fill="#F29400" fill-rule="evenodd"/><path d="M3429.54 1853.5 3349.48 1819.21 3334.5 1728.93 3401.89 1673.5 3482.52 1705.5 3497.5 1795.21 3429.54 1853.5Z" stroke="#000000" stroke-width="5.15643" stroke-linecap="round" stroke-linejoin="round" stroke-miterlimit="10" fill="none" fill-rule="evenodd"/></g></svg>