<svg width="157" height="168" xmlns="http://www.w3.org/2000/svg" xmlns:xlink="http://www.w3.org/1999/xlink" xml:space="preserve" overflow="hidden"><g transform="translate(-1481 -1928)"><path d="M1482 2012C1482 1966.16 1516.7 1929 1559.5 1929 1602.3 1929 1637 1966.16 1637 2012 1637 2057.84 1602.3 2095 1559.5 2095 1516.7 2095 1482 2057.84 1482 2012Z" fill="#84187E" fill-rule="evenodd"/><path d="M1624 1990.18C1619.54 1976 1619.54 1985.45 1619.54 1999.64 1619.54 2037.45 1583.85 2065.82 1548.15 2065.82 1539.23 2065.82 1525.85 2061.09 1516.92 2056.36 1512.46 2056.36 1508 2056.36 1512.46 2061.09 1521.38 2075.27 1539.23 2080 1557.08 2080 1597.23 2080 1624 2051.64 1624 2013.82 1624 2004.36 1624 1994.91 1624 1990.18Z" fill="#460142" fill-rule="evenodd"/><path d="M1557 2080C1597.2 2080 1624 2051.71 1624 2014 1624 2023.43 1610.6 2075.29 1557 2080Z" fill="#460142" fill-rule="evenodd"/><path d="M1570.11 1947.71C1521.22 1943 1503.44 1976 1499 1999.57 1499 2004.29 1499 2013.71 1503.44 2018.43 1503.44 2027.86 1512.33 2042 1534.56 2032.57 1552.33 2027.86 1552.33 2004.29 1565.67 2009 1596.78 2013.71 1619 1990.14 1605.67 1966.57 1601.22 1957.14 1587.89 1952.43 1574.56 1947.71" fill="#A96BA5" fill-rule="evenodd"/><path d="M1513 1985C1513 1977.27 1519.94 1971 1528.5 1971 1537.06 1971 1544 1977.27 1544 1985 1544 1992.73 1537.06 1999 1528.5 1999 1519.94 1999 1513 1992.73 1513 1985Z" fill="#FFFFFF" fill-rule="evenodd"/><path d="M1544 1974C1544 1970.13 1546.01 1967 1548.5 1967 1550.99 1967 1553 1970.13 1553 1974 1553 1977.87 1550.99 1981 1548.5 1981 1546.01 1981 1544 1977.87 1544 1974Z" fill="#FFFFFF" fill-rule="evenodd"/><path d="M1517 2014C1517 2011.24 1519.01 2009 1521.5 2009 1523.99 2009 1526 2011.24 1526 2014 1526 2016.76 1523.99 2019 1521.5 2019 1519.01 2019 1517 2016.76 1517 2014Z" fill="#FFFFFF" fill-rule="evenodd"/><path d="M1482 2012C1482 1966.16 1516.7 1929 1559.5 1929 1602.3 1929 1637 1966.16 1637 2012 1637 2057.84 1602.3 2095 1559.5 2095 1516.7 2095 1482 2057.84 1482 2012Z" stroke="#000000" stroke-width="2.29167" stroke-linecap="round" stroke-linejoin="round" stroke-miterlimit="10" fill="none" fill-rule="evenodd"/></g></svg>