<svg width="164" height="481" xmlns="http://www.w3.org/2000/svg" xmlns:xlink="http://www.w3.org/1999/xlink" xml:space="preserve" overflow="hidden"><g transform="translate(-1682 -1446)"><path d="M1835.43 1817.57C1832.57 1785.5 1829.71 1753.43 1825.43 1724.42 1821.14 1699.98 1812.57 1681.65 1802.57 1666.38 1799.71 1663.33 1796.86 1657.22 1802.57 1652.64 1824 1634.31 1844 1608.35 1844 1561.01 1842.57 1466.33 1842.57 1466.33 1842.57 1466.33 1842.57 1457.16 1834 1448 1824 1448 1814 1448 1805.43 1457.16 1805.43 1466.33 1804 1561.01 1804 1561.01 1804 1561.01 1804 1593.08 1791.14 1606.82 1772.57 1622.1 1768.29 1626.68 1759.71 1628.2 1755.43 1622.1 1735.43 1606.82 1724 1593.08 1724 1561.01 1721.14 1466.33 1721.14 1466.33 1721.14 1466.33 1721.14 1457.16 1712.57 1448 1704 1448 1694 1448 1685.43 1457.16 1685.43 1466.33 1684 1561.01 1684 1561.01 1684 1561.01 1684 1608.35 1704 1632.79 1725.43 1652.64 1728.29 1654.17 1729.71 1658.75 1725.43 1666.38 1715.43 1680.13 1705.43 1698.45 1701.14 1724.42 1698.29 1753.43 1695.43 1785.5 1692.57 1817.57 1689.71 1851.17 1688.29 1880.19 1685.43 1901.57 1684 1912.26 1691.14 1921.42 1699.71 1922.95 1709.71 1926 1719.71 1918.36 1721.14 1907.67 1724 1884.77 1729.71 1855.75 1732.57 1822.15 1735.43 1790.08 1736.86 1758.01 1741.14 1732.05 1744 1715.25 1749.71 1703.04 1756.86 1692.34 1761.14 1686.24 1766.86 1687.76 1769.71 1692.34 1778.29 1703.04 1784 1715.25 1785.43 1732.05 1789.71 1758.01 1792.57 1790.08 1795.43 1822.15 1798.29 1855.75 1802.57 1884.77 1806.86 1907.67 1808.29 1918.36 1816.86 1926 1826.86 1924.47 1836.86 1921.42 1844 1912.26 1841.14 1901.57 1838.29 1880.19 1836.86 1851.17 1835.43 1817.57Z" fill="#ABDDF5" fill-rule="evenodd"/><path d="M1721.09 1482.5C1685.91 1482.5 1685.91 1482.5 1685.91 1482.5 1684.5 1523.5 1684.5 1523.5 1684.5 1523.5 1721.09 1523.5 1721.09 1523.5 1721.09 1523.5 1722.5 1523.5 1722.5 1523.5 1722.5 1523.5L1721.09 1482.5Z" stroke="#FFFFFF" stroke-width="2.86476" stroke-linecap="round" stroke-linejoin="round" stroke-miterlimit="10" fill="#CA004E" fill-rule="evenodd"/><path d="M1724.24 1561.34C1722.82 1550.5 1722.82 1550.5 1722.82 1550.5 1722.82 1550.5 1721.4 1550.5 1721.4 1550.5 1684.5 1556.69 1684.5 1556.69 1684.5 1556.69 1684.5 1561.34 1684.5 1561.34 1684.5 1561.34 1684.5 1575.27 1685.92 1587.66 1688.76 1598.5 1688.76 1598.5 1688.76 1598.5 1688.76 1598.5 1727.08 1592.31 1727.08 1592.31 1727.08 1592.31 1727.08 1592.31 1728.5 1592.31 1728.5 1592.31 1725.66 1583.02 1724.24 1573.73 1724.24 1561.34Z" stroke="#FFFFFF" stroke-width="2.86476" stroke-linecap="round" stroke-linejoin="round" stroke-miterlimit="10" fill="#FFEC00" fill-rule="evenodd"/><path d="M1730.5 1848.53C1693.23 1845.5 1693.23 1845.5 1693.23 1845.5 1693.23 1845.5 1691.8 1845.5 1691.8 1845.5 1690.37 1860.67 1688.93 1874.33 1687.5 1886.47 1688.93 1886.47 1688.93 1886.47 1690.37 1886.47 1724.77 1889.5 1724.77 1889.5 1724.77 1889.5 1726.2 1877.36 1729.07 1863.71 1730.5 1848.53Z" stroke="#FFFFFF" stroke-width="2.86476" stroke-linecap="round" stroke-linejoin="round" stroke-miterlimit="10" fill="#00367B" fill-rule="evenodd"/><path d="M1735.5 1780.53C1698.23 1777.5 1698.23 1777.5 1698.23 1777.5 1698.23 1777.5 1696.8 1777.5 1695.37 1777.5 1695.37 1789.64 1693.93 1803.29 1692.5 1816.95 1693.93 1816.95 1693.93 1816.95 1695.37 1818.47 1732.63 1821.5 1732.63 1821.5 1732.63 1821.5 1734.07 1807.84 1734.07 1792.67 1735.5 1780.53Z" stroke="#FFFFFF" stroke-width="2.86476" stroke-linecap="round" stroke-linejoin="round" stroke-miterlimit="10" fill="#E9C1CE" fill-rule="evenodd"/><path d="M1745.5 1714.24C1745.5 1714.24 1744.06 1714.24 1744.06 1712.69 1705.25 1706.5 1705.25 1706.5 1705.25 1706.5 1703.81 1712.69 1702.38 1718.89 1700.94 1725.08 1700.94 1732.82 1699.5 1740.56 1699.5 1746.76 1736.88 1754.5 1736.88 1754.5 1736.88 1754.5 1736.88 1754.5 1738.31 1754.5 1738.31 1754.5 1739.75 1746.76 1739.75 1739.02 1741.19 1732.82 1742.62 1725.08 1744.06 1718.89 1745.5 1714.24Z" stroke="#FFFFFF" stroke-width="2.86476" stroke-linecap="round" stroke-linejoin="round" stroke-miterlimit="10" fill="#887AA8" fill-rule="evenodd"/><path d="M1805.5 1482.5C1843.5 1482.5 1843.5 1482.5 1843.5 1482.5 1843.5 1523.5 1843.5 1523.5 1843.5 1523.5 1805.5 1523.5 1805.5 1523.5 1805.5 1523.5 1805.5 1523.5 1805.5 1523.5 1805.5 1523.5L1805.5 1482.5Z" stroke="#FFFFFF" stroke-width="2.86476" stroke-linecap="round" stroke-linejoin="round" stroke-miterlimit="10" fill="#58585A" fill-rule="evenodd"/><path d="M1804.25 1561.34C1804.25 1550.5 1804.25 1550.5 1804.25 1550.5 1805.69 1550.5 1805.69 1550.5 1807.12 1550.5 1844.5 1556.69 1844.5 1556.69 1844.5 1556.69 1844.5 1561.34 1844.5 1561.34 1844.5 1561.34 1844.5 1575.27 1843.06 1587.66 1838.75 1598.5 1838.75 1598.5 1838.75 1598.5 1838.75 1598.5 1799.94 1592.31 1799.94 1592.31 1799.94 1592.31 1799.94 1592.31 1799.94 1592.31 1798.5 1592.31 1802.81 1583.02 1804.25 1573.73 1804.25 1561.34Z" stroke="#FFFFFF" stroke-width="2.86476" stroke-linecap="round" stroke-linejoin="round" stroke-miterlimit="10" fill="#EB6E0E" fill-rule="evenodd"/><path d="M1798.5 1848.53C1834.71 1845.5 1834.71 1845.5 1834.71 1845.5 1836.16 1845.5 1836.16 1845.5 1837.6 1845.5 1839.05 1860.67 1839.05 1874.33 1840.5 1886.47 1840.5 1886.47 1839.05 1886.47 1839.05 1886.47 1804.29 1889.5 1804.29 1889.5 1804.29 1889.5 1801.4 1877.36 1799.95 1863.71 1798.5 1848.53Z" stroke="#FFFFFF" stroke-width="2.86476" stroke-linecap="round" stroke-linejoin="round" stroke-miterlimit="10" fill="#FDCC52" fill-rule="evenodd"/><path d="M1791.5 1780.53C1828.77 1777.5 1828.77 1777.5 1828.77 1777.5 1830.2 1777.5 1830.2 1777.5 1831.63 1777.5 1833.07 1789.64 1834.5 1803.29 1834.5 1816.95 1834.5 1816.95 1833.07 1816.95 1831.63 1818.47 1795.8 1821.5 1795.8 1821.5 1795.8 1821.5 1794.37 1807.84 1792.93 1792.67 1791.5 1780.53Z" stroke="#FFFFFF" stroke-width="2.86476" stroke-linecap="round" stroke-linejoin="round" stroke-miterlimit="10" fill="#BC7A81" fill-rule="evenodd"/><path d="M1781.5 1714.24C1782.92 1714.24 1782.92 1714.24 1784.35 1712.69 1821.38 1706.5 1821.38 1706.5 1821.38 1706.5 1822.8 1712.69 1824.23 1718.89 1825.65 1725.08 1827.08 1732.82 1827.08 1740.56 1828.5 1746.76 1790.05 1754.5 1790.05 1754.5 1790.05 1754.5 1790.05 1754.5 1790.05 1754.5 1788.62 1754.5 1788.62 1746.76 1787.2 1739.02 1785.77 1732.82 1785.77 1725.08 1784.35 1718.89 1781.5 1714.24Z" stroke="#FFFFFF" stroke-width="2.86476" stroke-linecap="round" stroke-linejoin="round" stroke-miterlimit="10" fill="#009036" fill-rule="evenodd"/><path d="M1778 1694C1785.17 1703.16 1790.91 1719.96 1793.78 1736.76 1798.09 1762.72 1799.52 1794.79 1802.39 1826.86 1805.26 1852.82 1808.13 1875.73 1811 1891 1811 1891 1811 1891 1811 1891 1809.57 1875.73 1808.13 1849.77 1806.7 1823.81 1803.83 1791.74 1802.39 1762.72 1798.09 1735.23 1795.22 1718.43 1785.17 1704.69 1778 1694Z" fill="#FFFFFF" fill-rule="evenodd"/><path d="M1690 1559.75C1690 1607.12 1709.83 1631.57 1731.08 1649.91 1732.5 1651.44 1733.92 1654.49 1735.33 1657.55 1735.33 1662.13 1733.92 1666.72 1732.5 1669.77 1721.17 1685.06 1712.67 1700.34 1708.42 1726.32 1704.17 1753.82 1701.33 1782.86 1698.5 1816.48 1697.08 1848.57 1697.08 1848.57 1697.08 1848.57 1695.67 1868.44 1694.25 1885.25 1692.83 1899 1692.83 1899 1692.83 1899 1692.83 1899 1694.25 1885.25 1701.33 1833.29 1704.17 1816.48 1705.58 1798.14 1709.83 1755.35 1714.08 1727.85 1718.33 1703.39 1725.42 1688.11 1736.75 1674.36 1739.58 1668.25 1741 1662.13 1741 1656.02 1739.58 1651.44 1738.17 1648.38 1733.92 1645.32 1711.25 1625.46 1695.67 1602.54 1695.67 1559.75 1691.42 1465 1691.42 1465 1691.42 1465 1691.42 1465 1691.42 1465 1691.42 1465L1690 1559.75Z" fill="#FFFFFF" fill-rule="evenodd"/><path d="M1810.17 1565.86C1810.17 1593.4 1799.96 1608.7 1781 1624 1781 1624 1781 1624 1781 1624 1797.04 1610.23 1816 1599.52 1816 1565.86 1813.08 1471 1813.08 1471 1813.08 1471 1813.08 1471 1813.08 1471 1813.08 1471L1810.17 1565.86Z" fill="#FFFFFF" fill-rule="evenodd"/><path d="M1835.43 1817.57C1832.57 1785.5 1829.71 1753.43 1825.43 1724.42 1821.14 1699.98 1812.57 1681.65 1802.57 1666.38 1799.71 1663.33 1796.86 1657.22 1802.57 1652.64 1824 1634.31 1844 1608.35 1844 1561.01 1842.57 1466.33 1842.57 1466.33 1842.57 1466.33 1842.57 1457.16 1834 1448 1824 1448 1814 1448 1805.43 1457.16 1805.43 1466.33 1804 1561.01 1804 1561.01 1804 1561.01 1804 1593.08 1791.14 1606.82 1772.57 1622.1 1768.29 1626.68 1759.71 1628.2 1755.43 1622.1 1735.43 1606.82 1724 1593.08 1724 1561.01 1721.14 1466.33 1721.14 1466.33 1721.14 1466.33 1721.14 1457.16 1712.57 1448 1704 1448 1694 1448 1685.43 1457.16 1685.43 1466.33 1684 1561.01 1684 1561.01 1684 1561.01 1684 1608.35 1704 1632.79 1725.43 1652.64 1728.29 1654.17 1729.71 1658.75 1725.43 1666.38 1715.43 1680.13 1705.43 1698.45 1701.14 1724.42 1698.29 1753.43 1695.43 1785.5 1692.57 1817.57 1689.71 1851.17 1688.29 1880.19 1685.43 1901.57 1684 1912.26 1691.14 1921.42 1699.71 1922.95 1709.71 1926 1719.71 1918.36 1721.14 1907.67 1724 1884.77 1729.71 1855.75 1732.57 1822.15 1735.43 1790.08 1736.86 1758.01 1741.14 1732.05 1744 1715.25 1749.71 1703.04 1756.86 1692.34 1761.14 1686.24 1766.86 1687.76 1769.71 1692.34 1778.29 1703.04 1784 1715.25 1785.43 1732.05 1789.71 1758.01 1792.57 1790.08 1795.43 1822.15 1798.29 1855.75 1802.57 1884.77 1806.86 1907.67 1808.29 1918.36 1816.86 1926 1826.86 1924.47 1836.86 1921.42 1844 1912.26 1841.14 1901.57 1838.29 1880.19 1836.86 1851.17 1835.43 1817.57Z" stroke="#58585A" stroke-width="4.0106" stroke-linecap="round" stroke-linejoin="round" stroke-miterlimit="10" fill="none" fill-rule="evenodd"/></g></svg>