<svg width="557" height="1652" xmlns="http://www.w3.org/2000/svg" xmlns:xlink="http://www.w3.org/1999/xlink" xml:space="preserve" overflow="hidden"><g transform="translate(-2028 -466)"><path d="M2554.32 1744.49C2544.43 1633.72 2534.54 1522.95 2524.64 1422.73 2509.8 1338.34 2480.12 1275.04 2440.55 1222.29 2430.66 1211.74 2420.77 1190.64 2440.55 1174.82 2514.75 1111.52 2584 1021.85 2584 858.332 2579.05 531.297 2579.05 531.297 2579.05 531.297 2579.05 499.648 2549.38 468 2514.75 468 2485.07 468 2455.39 499.648 2455.39 531.297 2445.5 858.332 2445.5 858.332 2445.5 858.332 2445.5 969.102 2405.93 1016.57 2341.62 1069.32 2321.84 1085.15 2297.11 1090.42 2277.32 1069.32 2213.02 1016.57 2168.5 969.102 2168.5 858.332 2163.55 531.297 2163.55 531.297 2163.55 531.297 2163.55 499.648 2133.88 468 2099.25 468 2064.62 468 2034.95 499.648 2034.95 531.297 2030 858.332 2030 858.332 2030 858.332 2030 1021.85 2099.25 1106.25 2173.45 1174.82 2183.34 1180.09 2193.23 1195.92 2178.39 1222.29 2138.82 1269.76 2109.14 1333.06 2094.3 1422.73 2079.46 1522.95 2069.57 1633.72 2059.68 1744.49 2054.73 1860.54 2049.79 1960.76 2039.89 2034.6 2030 2071.53 2054.73 2103.18 2089.36 2108.45 2123.98 2119 2153.66 2092.63 2158.61 2055.7 2173.45 1976.58 2188.29 1876.36 2198.18 1760.32 2208.07 1649.55 2217.96 1538.78 2232.8 1449.11 2237.75 1391.08 2257.54 1348.88 2287.21 1311.96 2297.11 1290.86 2316.89 1296.14 2331.73 1311.96 2356.46 1348.88 2376.25 1391.08 2386.14 1449.11 2400.98 1538.78 2405.93 1649.55 2415.82 1760.32 2425.71 1876.36 2445.5 1976.58 2455.39 2055.7 2460.34 2092.63 2494.96 2119 2529.59 2113.73 2559.27 2103.18 2584 2071.53 2579.05 2034.6 2569.16 1960.76 2564.21 1860.54 2554.32 1744.49Z" fill="#ABDDF5" fill-rule="evenodd"/><path d="M2361 1316C2386 1347.67 2406 1405.74 2411 1463.81 2426 1553.56 2436 1664.42 2446 1775.28 2451 1865.02 2466 1944.21 2471 1997 2471 1997 2471 1997 2471 1997 2471 1944.21 2466 1854.46 2456 1764.72 2446 1653.86 2446 1553.56 2431 1458.53 2421 1400.46 2386 1352.95 2356 1316L2361 1316Z" fill="#FFFFFF" fill-rule="evenodd"/><path d="M2050 852.246C2050 1015.87 2119.62 1100.32 2194.22 1163.66 2204.16 1168.94 2209.14 1179.49 2209.14 1190.05 2214.11 1205.88 2209.14 1221.72 2199.19 1232.27 2159.41 1285.06 2129.57 1337.84 2114.65 1427.57 2104.7 1522.57 2094.76 1622.86 2084.81 1738.98 2074.86 1849.82 2074.86 1849.82 2074.86 1849.82 2069.89 1918.44 2069.89 1976.5 2059.95 2024 2059.95 2024 2059.95 2024 2059.95 2024 2069.89 1976.5 2094.76 1797.04 2099.73 1738.98 2104.7 1675.64 2124.59 1527.85 2134.54 1432.84 2149.46 1348.39 2174.32 1295.61 2214.11 1248.11 2229.03 1227 2234 1205.88 2229.03 1184.77 2229.03 1168.94 2219.08 1158.38 2209.14 1147.82 2124.59 1079.21 2069.89 1000.04 2069.89 852.246 2059.95 525 2059.95 525 2059.95 525 2059.95 525 2059.95 525 2059.95 525L2050 852.246Z" fill="#FFFFFF" fill-rule="evenodd"/><path d="M2471 874.36C2471 969.4 2436 1022.2 2366 1075 2366 1075 2366 1075 2366 1075 2426 1027.48 2491 990.52 2491 874.36 2476 547 2476 547 2476 547 2476 547 2476 547 2476 547L2471 874.36Z" fill="#FFFFFF" fill-rule="evenodd"/><path d="M2554.82 1744.99C2544.93 1634.22 2535.04 1523.45 2525.14 1423.23 2510.3 1338.84 2480.62 1275.54 2441.05 1222.79 2431.16 1212.24 2421.27 1191.14 2441.05 1175.32 2515.25 1112.02 2584.5 1022.35 2584.5 858.832 2579.55 531.797 2579.55 531.797 2579.55 531.797 2579.55 500.149 2549.88 468.5 2515.25 468.5 2485.57 468.5 2455.89 500.149 2455.89 531.797 2446 858.832 2446 858.832 2446 858.832 2446 969.602 2406.43 1017.08 2342.12 1069.82 2322.34 1085.65 2297.61 1090.92 2277.82 1069.82 2213.52 1017.08 2169 969.602 2169 858.832 2164.05 531.797 2164.05 531.797 2164.05 531.797 2164.05 500.149 2134.38 468.5 2099.75 468.5 2065.12 468.5 2035.45 500.149 2035.45 531.797 2030.5 858.832 2030.5 858.832 2030.5 858.832 2030.5 1022.35 2099.75 1106.75 2173.95 1175.32 2183.84 1180.59 2193.73 1196.42 2178.89 1222.79 2139.32 1270.26 2109.64 1333.56 2094.8 1423.23 2079.96 1523.45 2070.07 1634.22 2060.18 1744.99 2055.23 1861.04 2050.29 1961.26 2040.39 2035.1 2030.5 2072.03 2055.23 2103.68 2089.86 2108.95 2124.48 2119.5 2154.16 2093.13 2159.11 2056.2 2173.95 1977.08 2188.79 1876.86 2198.68 1760.82 2208.57 1650.05 2218.46 1539.28 2233.3 1449.61 2238.25 1391.58 2258.04 1349.39 2287.71 1312.46 2297.61 1291.36 2317.39 1296.64 2332.23 1312.46 2356.96 1349.39 2376.75 1391.58 2386.64 1449.61 2401.48 1539.28 2406.43 1650.05 2416.32 1760.82 2426.21 1876.86 2446 1977.08 2455.89 2056.2 2460.84 2093.13 2495.46 2119.5 2530.09 2114.23 2559.77 2103.68 2584.5 2072.03 2579.55 2035.1 2569.66 1961.26 2564.71 1861.04 2554.82 1744.99Z" stroke="#58585A" stroke-width="4.58333" stroke-linecap="round" stroke-linejoin="round" stroke-miterlimit="10" fill="none" fill-rule="evenodd"/></g></svg>