<svg width="190" height="493" xmlns="http://www.w3.org/2000/svg" xmlns:xlink="http://www.w3.org/1999/xlink" xml:space="preserve" overflow="hidden"><g transform="translate(-966 -665)"><path d="M1147.82 1125.91C1144.95 1112.16 1139.21 1084.66 1134.91 1014.37 1130.6 948.671 1120.56 916.584 1091.85 878.385 1090.42 876.857 1088.98 872.273 1091.85 867.689 1096.16 864.633 1099.03 860.05 1103.34 855.466 1155 797.404 1155 774.484 1153.56 722.534 1150.69 685.863 1150.69 685.863 1150.69 685.863 1149.26 675.168 1142.08 666 1132.04 667.528 1121.99 667.528 1113.38 675.168 1113.38 685.863 1113.38 724.062 1113.38 724.062 1113.38 724.062 1114.82 766.845 1116.25 779.068 1073.2 826.435 1067.46 834.074 1057.41 835.602 1048.8 826.435 1005.75 779.068 1007.18 766.845 1008.62 724.062 1008.62 685.863 1008.62 685.863 1008.62 685.863 1008.62 675.168 1000.01 667.528 989.962 667.528 979.916 666 972.74 675.168 971.305 685.863 968.435 722.534 968.435 722.534 968.435 722.534 967 774.484 967 797.404 1018.66 855.466 1021.53 858.522 1024.4 861.578 1027.27 864.633 1033.02 870.745 1030.15 878.385 1028.71 879.913 1001.44 918.112 991.397 948.671 987.092 1014.37 982.786 1084.66 977.046 1112.16 974.176 1124.39 971.305 1132.02 971.305 1132.02 971.305 1132.02 969.87 1142.72 975.611 1151.89 985.656 1154.94 994.267 1158 1004.31 1151.89 1007.18 1141.19 1008.62 1135.08 1008.62 1135.08 1008.62 1135.08 1012.92 1121.33 1022.97 1092.3 1027.27 1015.9 1030.15 967.006 1037.32 941.031 1054.54 915.056 1057.41 912 1063.15 908.944 1067.46 915.056 1084.68 941.031 1091.85 967.006 1094.73 1015.9 1099.03 1092.3 1109.08 1121.33 1113.38 1135.08 1114.82 1141.19 1114.82 1141.19 1114.82 1141.19 1117.69 1151.89 1127.73 1158 1136.34 1154.94 1146.39 1153.42 1152.13 1142.72 1150.69 1132.02L1147.82 1125.91Z" fill="#A9BDD6" fill-rule="evenodd"/><path d="M1150.7 1132.02C1147.83 1125.91 1147.83 1125.91 1147.83 1125.91 1144.96 1112.16 1139.23 1084.66 1134.92 1014.37 1130.62 948.671 1120.58 916.584 1091.91 878.385 1090.47 876.857 1089.04 872.273 1091.91 867.689 1096.21 864.633 1099.08 860.05 1103.38 855.466 1155 797.404 1155 774.484 1153.57 722.534 1150.7 685.863 1150.7 685.863 1150.7 685.863 1149.26 675.168 1142.09 666 1132.06 667.528 1124.89 667.528 1119.15 670.584 1116.28 676.695 1117.72 676.695 1119.15 675.168 1120.58 675.168 1122.02 672.112 1124.89 670.584 1127.75 670.584 1134.92 670.584 1140.66 676.695 1140.66 684.335 1143.53 721.006 1143.53 721.006 1143.53 721.006 1146.4 772.956 1144.96 792.82 1094.77 849.354 1084.74 861.578 1084.74 861.578 1084.74 861.578 1079 867.689 1080.43 875.329 1084.74 879.913 1111.98 918.112 1122.02 948.671 1124.89 1012.84 1129.19 1080.07 1134.92 1109.11 1139.23 1124.39 1140.66 1132.02 1140.66 1132.02 1140.66 1132.02 1142.09 1139.66 1139.23 1145.78 1132.06 1147.3 1126.32 1148.83 1117.72 1145.78 1114.85 1138.14 1114.85 1138.14 1113.42 1135.08 1111.98 1132.02 1113.42 1133.55 1113.42 1135.08 1113.42 1135.08 1114.85 1141.19 1114.85 1141.19 1114.85 1141.19 1117.72 1151.89 1127.75 1158 1136.36 1154.94 1146.4 1153.42 1152.13 1142.72 1150.7 1132.02Z" fill="#6892B9" fill-rule="evenodd"/><path d="M1073 913C1090.2 937.464 1095.93 961.928 1098.8 1010.86 1103.1 1076.6 1111.7 1107.18 1116 1124 1116 1124 1116 1124 1116 1124 1111.7 1107.18 1108.83 1076.6 1104.53 1010.86 1101.67 960.399 1090.2 938.993 1074.43 913L1073 913Z" fill="#FFFFFF" fill-rule="evenodd"/><path d="M1067.28 914.263C1068.71 915.796 1068.71 917.329 1070.14 918.862 1071.57 918.862 1073 920.395 1071.57 917.329 1070.14 914.263 1070.14 914.263 1070.14 914.263 1070.14 914.263 1068.71 911.198 1068.71 911.198 1064.42 908.132 1060.12 902 1055.83 902 1051.54 903.533 1048.68 905.066 1047.25 908.132 1028.65 935.725 1021.5 961.784 1018.64 1013.9 1014.35 1078.29 1005.76 1108.95 1001.47 1124.28 1000.04 1131.94 1000.04 1131.94 1000.04 1131.94 998.611 1136.54 998.611 1136.54 998.611 1136.54 997.181 1144.2 990.028 1148.8 982.875 1147.27 977.153 1145.74 972.861 1138.07 974.292 1131.94 974.292 1130.41 974.292 1128.87 972.861 1127.34 971.431 1131.94 971.431 1131.94 971.431 1131.94 970 1142.67 975.722 1151.87 985.736 1154.93 994.319 1158 1004.33 1151.87 1007.19 1141.14 1008.62 1135.01 1008.62 1135.01 1008.62 1135.01 1012.92 1121.21 1022.93 1092.08 1027.22 1015.44 1030.08 966.383 1037.24 940.323 1054.4 914.263 1057.26 911.198 1062.99 908.132 1067.28 914.263Z" fill="#6892B9" fill-rule="evenodd"/><path d="M1028.6 856.351C1035.68 865.511 1035.68 865.511 1035.68 865.511 1041.34 871.618 1037.09 877.725 1037.09 877.725 1011.62 914.366 997.472 944.901 993.227 1010.55 988.981 1077.73 983.321 1105.21 979.076 1122 980.491 1120.47 980.491 1120.47 980.491 1120.47 984.736 1105.21 994.642 1079.25 998.887 1010.55 1003.13 946.427 1015.87 917.42 1041.34 880.779 1044.17 877.725 1047 868.565 1039.92 860.931 1039.92 860.931 1034.26 854.824 1034.26 854.824 1032.85 853.298 1032.85 853.298 1032.85 853.298 981.906 793.756 972 772.382 974.83 722 974.83 722 974.83 722 974.83 722 972 773.908 976.245 796.809 1028.6 856.351Z" fill="#FFFFFF" fill-rule="evenodd"/><path d="M1117.71 687C1119.12 725.187 1119.12 725.187 1119.12 725.187 1121.94 767.956 1121.94 778.648 1081 826 1081 826 1081 826 1081 826 1129 783.231 1124.76 771.011 1123.35 728.242 1117.71 687 1117.71 687 1117.71 687Z" fill="#FFFFFF" fill-rule="evenodd"/><path d="M1147.82 1125.91C1144.95 1112.16 1139.21 1084.66 1134.91 1014.37 1130.6 948.671 1120.56 916.584 1091.85 878.385 1090.42 876.857 1088.98 872.273 1091.85 867.689 1096.16 864.633 1099.03 860.05 1103.34 855.466 1155 797.404 1155 774.484 1153.56 722.534 1150.69 685.863 1150.69 685.863 1150.69 685.863 1149.26 675.168 1142.08 666 1132.04 667.528 1121.99 667.528 1113.38 675.168 1113.38 685.863 1113.38 724.062 1113.38 724.062 1113.38 724.062 1114.82 766.845 1116.25 779.068 1073.2 826.435 1067.46 834.074 1057.41 835.602 1048.8 826.435 1005.75 779.068 1007.18 766.845 1008.62 724.062 1008.62 685.863 1008.62 685.863 1008.62 685.863 1008.62 675.168 1000.01 667.528 989.962 667.528 979.916 666 972.74 675.168 971.305 685.863 968.435 722.534 968.435 722.534 968.435 722.534 967 774.484 967 797.404 1018.66 855.466 1021.53 858.522 1024.4 861.578 1027.27 864.633 1033.02 870.745 1030.15 878.385 1028.71 879.913 1001.44 918.112 991.397 948.671 987.092 1014.37 982.786 1084.66 977.046 1112.16 974.176 1124.39 971.305 1132.02 971.305 1132.02 971.305 1132.02 969.87 1142.72 975.611 1151.89 985.656 1154.94 994.267 1158 1004.31 1151.89 1007.18 1141.19 1008.62 1135.08 1008.62 1135.08 1008.62 1135.08 1012.92 1121.33 1022.97 1092.3 1027.27 1015.9 1030.15 967.006 1037.32 941.031 1054.54 915.056 1057.41 912 1063.15 908.944 1067.46 915.056 1084.68 941.031 1091.85 967.006 1094.73 1015.9 1099.03 1092.3 1109.08 1121.33 1113.38 1135.08 1114.82 1141.19 1114.82 1141.19 1114.82 1141.19 1117.69 1151.89 1127.73 1158 1136.34 1154.94 1146.39 1153.42 1152.13 1142.72 1150.69 1132.02L1147.82 1125.91Z" stroke="#58585A" stroke-width="4.0106" stroke-linecap="round" stroke-linejoin="round" stroke-miterlimit="10" fill="none" fill-rule="evenodd"/></g></svg>