<svg width="143" height="471" xmlns="http://www.w3.org/2000/svg" xmlns:xlink="http://www.w3.org/1999/xlink" xml:space="preserve" overflow="hidden"><g transform="translate(-2132 -684)"><path d="M2234.62 956.433C2254.75 925.875 2272 881.567 2272 808.23 2270.56 704.335 2270.56 704.335 2270.56 704.335 2270.56 693.639 2261.94 686 2251.87 686 2241.81 686 2234.62 693.639 2234.62 704.335 2231.75 808.23 2231.75 808.23 2231.75 808.23 2231.75 861.705 2221.69 896.846 2207.31 921.292 2205.88 925.875 2200.12 925.875 2197.25 921.292 2184.31 896.846 2174.25 861.705 2174.25 808.23 2171.38 704.335 2171.38 704.335 2171.38 704.335 2171.38 693.639 2162.75 686 2154.12 686 2144.06 686 2135.44 693.639 2135.44 704.335 2134 808.23 2134 808.23 2134 808.23 2134 881.567 2151.25 925.875 2171.38 957.961 2172.81 959.489 2174.25 964.072 2171.38 968.656 2138.31 1006.85 2136.88 1055.74 2136.88 1132.14 2136.88 1141.3 2144.06 1148.94 2154.12 1148.94 2162.75 1148.94 2169.94 1141.3 2169.94 1132.14 2169.94 1061.86 2178.56 1026.71 2197.25 1002.27 2201.56 996.157 2204.44 997.685 2207.31 1002.27 2227.44 1028.24 2236.06 1063.38 2236.06 1135.19 2236.06 1144.36 2243.25 1152 2251.87 1152 2260.5 1152 2269.12 1144.36 2269.12 1135.19 2269.12 1058.8 2266.25 1008.38 2234.62 968.656 2231.75 965.6 2230.31 962.544 2234.62 956.433Z" fill="#EB6E0E" fill-rule="evenodd"/><path d="M2162.32 702.807C2165.2 805.174 2165.2 805.174 2165.2 805.174 2165.2 860.177 2175.31 893.79 2188.3 919.764 2191.18 922.82 2195.51 924.348 2196.95 921.292 2183.97 896.846 2173.86 861.705 2173.86 808.23 2170.98 704.335 2170.98 704.335 2170.98 704.335 2170.98 693.639 2162.32 686 2153.66 686 2152.22 686 2152.22 686 2152.22 686 2157.99 689.056 2162.32 695.167 2162.32 702.807ZM2188.3 999.213C2169.53 1025.19 2160.88 1058.8 2160.88 1129.08 2160.88 1139.78 2153.66 1145.89 2145 1147.42 2147.89 1148.94 2149.33 1148.94 2153.66 1148.94 2162.32 1148.94 2169.53 1141.3 2169.53 1132.14 2169.53 1061.86 2178.19 1026.71 2196.95 1002.27 2198.4 1000.74 2198.4 1000.74 2198.4 999.213 2198.4 999.213 2198.4 999.213 2198.4 999.213 2195.51 994.63 2192.62 994.63 2188.3 999.213ZM2234.48 956.433C2254.68 925.875 2272 881.567 2272 808.23 2270.56 704.335 2270.56 704.335 2270.56 704.335 2270.56 693.639 2261.9 686 2251.8 686 2251.8 686 2251.8 686 2251.8 686 2257.57 689.056 2261.9 695.167 2261.9 702.807 2263.34 805.174 2263.34 805.174 2263.34 805.174 2263.34 880.039 2246.02 924.348 2225.82 954.905 2221.49 959.489 2222.93 964.072 2225.82 967.128 2257.57 1005.32 2260.45 1057.27 2260.45 1132.14 2260.45 1141.3 2253.24 1148.94 2244.58 1150.47 2246.02 1152 2248.91 1152 2251.8 1152 2260.45 1152 2269.11 1144.36 2269.11 1135.19 2269.11 1058.8 2266.23 1008.38 2234.48 968.656 2231.59 965.6 2230.15 962.544 2234.48 956.433Z" fill="#B3540E" fill-rule="evenodd"/><path d="M2190 997.286C2195.33 991 2199.33 992.571 2202 995.714 2196.67 1002 2196.67 1002 2196.67 1002" fill="#B3540E" fill-rule="evenodd"/><path d="M2188 918C2190.91 924 2196.73 930 2204 925.5 2201.09 925.5 2198.18 921 2196.73 921" fill="#B3540E" fill-rule="evenodd"/><path d="M2213 999C2232.73 1024.9 2239.77 1061.45 2239.77 1130 2239.77 1130 2239.77 1130 2239.77 1130 2242.59 1107.15 2244 1082.78 2242.59 1064.5 2238.36 1034.03 2225.68 1015.76 2213 999Z" fill="#FFFFFF" fill-rule="evenodd"/><path d="M2138 805.943C2138 868.614 2150.82 917.529 2176.45 957.271 2177.88 957.271 2179.3 963.386 2176.45 967.971 2143.7 1006.19 2142.27 1053.57 2142.27 1130 2142.27 1130 2142.27 1130 2142.27 1130 2142.27 1055.1 2149.39 1009.24 2180.73 971.029 2185 966.443 2183.58 957.271 2182.15 954.214 2156.52 914.471 2143.7 868.614 2143.7 805.943 2140.85 703.529 2140.85 703.529 2140.85 703.529 2140.85 702 2140.85 702 2140.85 702L2138 805.943Z" fill="#FFFFFF" fill-rule="evenodd"/><path d="M2236.48 807.915C2236.48 855.289 2229.57 890.437 2213 919.472 2213 921 2213 921 2213 921 2229.57 890.437 2242 856.817 2242 807.915 2237.86 704 2237.86 704 2237.86 704 2237.86 704 2237.86 704 2237.86 704L2236.48 807.915Z" fill="#FFFFFF" fill-rule="evenodd"/><path d="M2235.12 956.933C2255.25 926.375 2272.5 882.067 2272.5 808.729 2271.06 704.834 2271.06 704.834 2271.06 704.834 2271.06 694.139 2262.44 686.5 2252.38 686.5 2242.31 686.5 2235.12 694.139 2235.12 704.834 2232.25 808.729 2232.25 808.729 2232.25 808.729 2232.25 862.205 2222.19 897.346 2207.81 921.792 2206.37 926.375 2200.62 926.375 2197.75 921.792 2184.81 897.346 2174.75 862.205 2174.75 808.729 2171.87 704.834 2171.87 704.834 2171.87 704.834 2171.87 694.139 2163.25 686.5 2154.62 686.5 2144.56 686.5 2135.94 694.139 2135.94 704.834 2134.5 808.729 2134.5 808.729 2134.5 808.729 2134.5 882.067 2151.75 926.375 2171.87 958.461 2173.31 959.989 2174.75 964.572 2171.87 969.156 2138.81 1007.35 2137.37 1056.24 2137.37 1132.64 2137.37 1141.8 2144.56 1149.44 2154.62 1149.44 2163.25 1149.44 2170.44 1141.8 2170.44 1132.64 2170.44 1062.36 2179.06 1027.21 2197.75 1002.77 2202.06 996.657 2204.94 998.185 2207.81 1002.77 2227.94 1028.74 2236.56 1063.88 2236.56 1135.69 2236.56 1144.86 2243.75 1152.5 2252.38 1152.5 2261 1152.5 2269.62 1144.86 2269.62 1135.69 2269.62 1059.3 2266.75 1008.88 2235.12 969.156 2232.25 966.1 2230.81 963.044 2235.12 956.933Z" stroke="#58585A" stroke-width="4.58333" stroke-linecap="round" stroke-linejoin="round" stroke-miterlimit="10" fill="none" fill-rule="evenodd"/></g></svg>