<svg width="164" height="482" xmlns="http://www.w3.org/2000/svg" xmlns:xlink="http://www.w3.org/1999/xlink" xml:space="preserve" overflow="hidden"><g transform="translate(-3220 -677)"><path d="M3374.38 1049.35C3371.5 1017.21 3368.62 985.07 3364.31 955.994 3361.44 931.508 3352.81 913.144 3341.31 897.84 3338.44 894.78 3335.56 888.658 3341.31 884.067 3362.88 865.703 3383 839.687 3383 792.246 3381.56 697.364 3381.56 697.364 3381.56 697.364 3381.56 688.182 3372.94 679 3362.88 679 3354.25 679 3345.62 688.182 3345.62 697.364 3342.75 792.246 3342.75 792.246 3342.75 792.246 3342.75 824.383 3331.25 838.156 3312.56 853.46 3306.81 858.051 3299.62 859.581 3293.88 853.46 3275.19 838.156 3262.25 824.383 3262.25 792.246 3260.81 697.364 3260.81 697.364 3260.81 697.364 3260.81 688.182 3252.19 679 3242.12 679 3232.06 679 3223.44 688.182 3223.44 697.364 3222 792.246 3222 792.246 3222 792.246 3222 839.687 3242.12 864.172 3263.69 884.067 3266.56 885.597 3269.44 890.188 3265.12 897.84 3253.62 911.613 3245 929.978 3240.69 955.994 3236.38 985.07 3233.5 1017.21 3230.62 1049.35 3229.19 1083.01 3227.75 1112.09 3224.88 1133.51 3222 1144.23 3229.19 1153.41 3239.25 1154.94 3249.31 1158 3257.94 1150.35 3259.38 1139.64 3263.69 1116.68 3268 1087.6 3270.88 1053.94 3273.75 1021.8 3276.62 989.661 3280.94 963.645 3282.38 946.812 3288.12 934.569 3296.75 923.856 3299.62 917.735 3305.38 919.265 3309.69 923.856 3316.88 934.569 3322.62 946.812 3325.5 963.645 3329.81 989.661 3331.25 1021.8 3334.12 1053.94 3337 1087.6 3341.31 1116.68 3345.62 1139.64 3347.06 1150.35 3357.12 1158 3367.19 1156.47 3375.81 1153.41 3383 1144.23 3381.56 1133.51 3378.69 1112.09 3377.25 1083.01 3374.38 1049.35Z" fill="#ABDDF5" fill-rule="evenodd"/><path d="M3247.82 694.303C3249.26 789.185 3249.26 789.185 3249.26 789.185 3249.26 821.323 3266.51 839.687 3285.21 854.99 3289.52 859.581 3303.9 859.581 3293.84 853.46 3275.14 838.156 3262.2 824.383 3262.2 792.246 3260.76 697.364 3260.76 697.364 3260.76 697.364 3260.76 688.182 3252.13 679 3242.07 679 3240.63 679 3240.63 679 3239.19 679 3243.5 682.061 3247.82 688.182 3247.82 694.303ZM3374.37 1049.35C3371.5 1017.21 3368.62 985.07 3364.3 955.994 3361.43 931.508 3352.8 913.144 3341.3 897.84 3338.42 894.78 3335.54 888.658 3341.3 884.067 3362.87 865.703 3383 839.687 3383 792.246 3381.56 697.364 3381.56 697.364 3381.56 697.364 3381.56 688.182 3372.93 679 3362.87 679 3362.87 679 3361.43 679 3361.43 679 3365.74 682.061 3368.62 688.182 3368.62 694.303 3370.06 789.185 3370.06 789.185 3370.06 789.185 3370.06 836.626 3349.92 861.112 3328.35 881.006 3322.6 885.597 3325.48 891.719 3328.35 894.78 3339.86 910.083 3348.49 928.447 3351.36 952.933 3355.68 982.01 3358.55 1014.15 3361.43 1046.28 3364.3 1078.42 3364.3 1109.03 3368.62 1130.45 3370.06 1141.17 3362.87 1150.35 3354.24 1151.88 3352.8 1151.88 3352.8 1151.88 3352.8 1151.88 3357.11 1154.94 3361.43 1156.47 3367.18 1156.47 3375.81 1153.41 3383 1144.23 3381.56 1133.51 3378.69 1112.09 3377.25 1083.01 3374.37 1049.35ZM3298.15 922.326C3298.15 922.326 3303.9 919.265 3306.78 920.796 3303.9 913.144 3289.52 913.144 3283.77 920.796 3275.14 931.508 3269.39 943.751 3267.95 960.585 3263.64 986.601 3260.76 1018.74 3257.89 1050.88 3255.01 1083.01 3250.7 1113.62 3246.38 1136.58 3244.94 1145.76 3239.19 1151.88 3232 1151.88 3233.44 1153.41 3236.31 1154.94 3239.19 1154.94 3249.26 1158 3257.89 1150.35 3259.32 1139.64 3263.64 1116.68 3267.95 1087.6 3270.83 1053.94 3273.7 1021.8 3276.58 989.661 3280.9 963.645 3282.33 946.812 3288.09 934.569 3296.71 923.856 3296.71 923.856 3296.71 923.856 3298.15 922.326 3296.71 922.326 3296.71 922.326 3296.71 920.796" fill="#00B7E8" fill-rule="evenodd"/><path d="M3315 925C3322.17 934.163 3327.91 950.961 3330.78 967.76 3335.09 993.721 3336.52 1025.79 3339.39 1057.86 3342.26 1083.82 3345.13 1106.73 3348 1122 3348 1122 3348 1122 3348 1122 3346.57 1106.73 3345.13 1080.77 3343.7 1054.81 3340.83 1022.74 3339.39 993.721 3335.09 966.233 3332.22 949.434 3322.17 935.69 3315 925Z" fill="#FFFFFF" fill-rule="evenodd"/><path d="M3227 790.747C3227 838.12 3246.83 862.57 3268.08 880.909 3269.5 882.437 3270.92 885.493 3272.33 888.549 3272.33 893.134 3270.92 897.718 3269.5 900.775 3258.17 916.056 3249.67 931.338 3245.42 957.317 3241.17 984.824 3238.33 1013.86 3235.5 1047.48 3234.08 1079.57 3234.08 1079.57 3234.08 1079.57 3232.67 1099.44 3231.25 1116.25 3229.83 1130 3229.83 1130 3229.83 1130 3229.83 1130 3231.25 1116.25 3238.33 1064.29 3241.17 1047.48 3242.58 1029.14 3246.83 986.352 3251.08 958.845 3255.33 934.394 3262.42 919.113 3273.75 905.359 3276.58 899.247 3278 893.134 3278 887.021 3276.58 882.437 3275.17 879.38 3270.92 876.324 3248.25 856.458 3232.67 833.535 3232.67 790.747 3228.42 696 3228.42 696 3228.42 696 3228.42 696 3228.42 696 3228.42 696L3227 790.747Z" fill="#FFFFFF" fill-rule="evenodd"/><path d="M3348.17 796.86C3348.17 824.4 3337.96 839.7 3319 855 3319 855 3319 855 3319 855 3335.04 841.23 3354 830.52 3354 796.86 3351.08 702 3351.08 702 3351.08 702 3351.08 702 3351.08 702 3351.08 702L3348.17 796.86Z" fill="#FFFFFF" fill-rule="evenodd"/><path d="M3374.38 1049.35C3371.5 1017.21 3368.62 985.07 3364.31 955.994 3361.44 931.508 3352.81 913.144 3341.31 897.84 3338.44 894.78 3335.56 888.658 3341.31 884.067 3362.88 865.703 3383 839.687 3383 792.246 3381.56 697.364 3381.56 697.364 3381.56 697.364 3381.56 688.182 3372.94 679 3362.88 679 3354.25 679 3345.62 688.182 3345.62 697.364 3342.75 792.246 3342.75 792.246 3342.75 792.246 3342.75 824.383 3331.25 838.156 3312.56 853.46 3306.81 858.051 3299.62 859.581 3293.88 853.46 3275.19 838.156 3262.25 824.383 3262.25 792.246 3260.81 697.364 3260.81 697.364 3260.81 697.364 3260.81 688.182 3252.19 679 3242.12 679 3232.06 679 3223.44 688.182 3223.44 697.364 3222 792.246 3222 792.246 3222 792.246 3222 839.687 3242.12 864.172 3263.69 884.067 3266.56 885.597 3269.44 890.188 3265.12 897.84 3253.62 911.613 3245 929.978 3240.69 955.994 3236.38 985.07 3233.5 1017.21 3230.62 1049.35 3229.19 1083.01 3227.75 1112.09 3224.88 1133.51 3222 1144.23 3229.19 1153.41 3239.25 1154.94 3249.31 1158 3257.94 1150.35 3259.38 1139.64 3263.69 1116.68 3268 1087.6 3270.88 1053.94 3273.75 1021.8 3276.62 989.661 3280.94 963.645 3282.38 946.812 3288.12 934.569 3296.75 923.856 3299.62 917.735 3305.38 919.265 3309.69 923.856 3316.88 934.569 3322.62 946.812 3325.5 963.645 3329.81 989.661 3331.25 1021.8 3334.12 1053.94 3337 1087.6 3341.31 1116.68 3345.62 1139.64 3347.06 1150.35 3357.12 1158 3367.19 1156.47 3375.81 1153.41 3383 1144.23 3381.56 1133.51 3378.69 1112.09 3377.25 1083.01 3374.38 1049.35Z" stroke="#58585A" stroke-width="4.0106" stroke-linecap="round" stroke-linejoin="round" stroke-miterlimit="10" fill="none" fill-rule="evenodd"/></g></svg>