<svg width="48" height="318" xmlns="http://www.w3.org/2000/svg" xmlns:xlink="http://www.w3.org/1999/xlink" xml:space="preserve" overflow="hidden"><g transform="translate(-2525 -1138)"><path d="M2543.88 1152.74C2541.06 1168 2538.25 1178.69 2535.44 1190.9 2531.22 1206.17 2529.81 1218.38 2529.81 1236.7 2528.41 1247.39 2527 1259.6 2528.41 1273.34 2529.81 1293.18 2529.81 1293.18 2529.81 1293.18 2535.44 1340.51 2543.88 1406.15 2536.84 1433.63 2534.03 1442.79 2539.66 1450.42 2546.69 1453.47 2553.72 1455 2562.16 1450.42 2563.56 1441.26 2572 1407.68 2564.97 1342.03 2557.94 1290.13 2555.12 1270.29 2555.12 1270.29 2555.12 1270.29 2555.12 1258.07 2550.91 1247.39 2552.31 1239.75 2552.31 1224.49 2559.34 1212.28 2562.16 1198.54 2564.97 1187.85 2569.19 1174.11 2570.59 1157.32 2572 1149.69 2567.78 1142.05 2559.34 1140.53 2552.31 1139 2545.28 1145.11 2543.88 1152.74Z" fill="#A9BDD6" fill-rule="evenodd"/><path d="M2539 1409C2541.9 1407.5 2546.25 1406 2550.6 1404.5 2556.4 1404.5 2562.2 1403 2568 1403 2568 1398.5 2568 1392.5 2566.55 1388 2557.85 1388 2547.7 1391 2539 1394 2539 1400 2539 1404.5 2539 1409Z" fill="#467FAC" fill-rule="evenodd"/><path d="M2563.57 1342C2563.57 1342 2562.14 1342 2562.14 1342 2553.57 1342 2543.57 1345.11 2535 1346.67 2536.43 1354.44 2536.43 1362.22 2537.86 1370 2546.43 1368.44 2556.43 1365.33 2565 1362.22 2565 1356 2565 1348.22 2563.57 1342Z" fill="#004B7E" fill-rule="evenodd"/><path d="M2562 1330.5C2562 1326 2562 1321.5 2560.55 1317 2551.85 1318.5 2541.7 1323 2533 1326 2533 1330.5 2533 1333.5 2534.45 1338 2537.35 1336.5 2538.8 1336.5 2541.7 1335 2547.5 1333.5 2556.2 1333.5 2562 1330.5Z" fill="#467FAC" fill-rule="evenodd"/><path d="M2558 1287.5C2555.18 1271 2555.18 1271 2555.18 1271 2555.18 1268 2555.18 1265 2555.18 1262 2546.73 1262 2536.86 1265 2527 1268 2527 1269.5 2527 1272.5 2528.41 1274 2529.82 1292 2529.82 1292 2529.82 1292 2532.64 1292 2535.45 1290.5 2536.86 1290.5 2543.91 1289 2550.95 1289 2558 1287.5 2558 1287.5 2558 1287.5 2558 1287.5Z" fill="#D4DDEA" fill-rule="evenodd"/><path d="M2551.61 1244C2551.61 1242.47 2550.22 1240.93 2551.61 1239.4 2551.61 1233.27 2553 1228.67 2553 1224.07 2550.22 1224.07 2547.44 1222.53 2544.67 1221 2540.5 1221 2534.94 1221 2529.39 1221 2529.39 1225.6 2529.39 1230.2 2529.39 1236.33 2528 1237.87 2528 1240.93 2528 1242.47 2536.33 1244 2543.28 1244 2551.61 1244Z" fill="#467FAC" fill-rule="evenodd"/><path d="M2562 1198.73C2552 1197.18 2543.43 1194.09 2534.86 1191 2533.43 1195.64 2533.43 1198.73 2532 1203.36 2542 1203.36 2550.57 1206.45 2559.14 1208 2560.57 1204.91 2562 1201.82 2562 1198.73 2562 1198.73 2562 1198.73 2562 1198.73Z" fill="#004B7E" fill-rule="evenodd"/><path d="M2559.09 1140.54C2551.91 1139 2544.74 1145.15 2543.3 1152.85 2541.87 1160.54 2540.43 1166.69 2539 1174.38 2541.87 1174.38 2546.17 1174.38 2547.61 1174.38 2551.91 1174.38 2560.52 1177.46 2567.7 1179 2569.13 1172.85 2570.57 1165.15 2570.57 1157.46 2572 1149.77 2567.7 1142.08 2559.09 1140.54Z" fill="#D4DDEA" fill-rule="evenodd"/><path d="M2543.88 1152.74C2541.06 1168 2538.25 1178.69 2535.44 1190.9 2531.22 1206.17 2529.81 1218.38 2529.81 1236.7 2528.41 1247.39 2527 1259.6 2528.41 1273.34 2529.81 1293.18 2529.81 1293.18 2529.81 1293.18 2535.44 1340.51 2543.88 1406.15 2536.84 1433.63 2534.03 1442.79 2539.66 1450.42 2546.69 1453.47 2553.72 1455 2562.16 1450.42 2563.56 1441.26 2572 1407.68 2564.97 1342.03 2557.94 1290.13 2555.12 1270.29 2555.12 1270.29 2555.12 1270.29 2555.12 1258.07 2550.91 1247.39 2552.31 1239.75 2552.31 1224.49 2559.34 1212.28 2562.16 1198.54 2564.97 1187.85 2569.19 1174.11 2570.59 1157.32 2572 1149.69 2567.78 1142.05 2559.34 1140.53 2552.31 1139 2545.28 1145.11 2543.88 1152.74Z" stroke="#58585A" stroke-width="4.0106" stroke-linecap="round" stroke-linejoin="round" stroke-miterlimit="10" fill="none" fill-rule="evenodd"/></g></svg>