<svg width="53" height="284" xmlns="http://www.w3.org/2000/svg" xmlns:xlink="http://www.w3.org/1999/xlink" xml:space="preserve" overflow="hidden"><g transform="translate(-2732 -1164)"><path d="M2747.19 1178.74C2741.46 1207.76 2741.46 1207.76 2741.46 1207.76 2735.73 1241.36 2730 1268.85 2740.03 1326.88 2751.49 1394.08 2754.35 1430.73 2754.35 1432.26 2754.35 1439.89 2761.51 1446 2768.68 1446 2777.27 1444.47 2783 1438.36 2783 1429.2 2781.57 1427.67 2778.7 1391.02 2767.24 1320.77 2764.38 1296.34 2757.22 1278.01 2758.65 1262.74 2758.65 1245.94 2767.24 1230.67 2770.11 1213.87 2774.41 1183.33 2774.41 1183.33 2774.41 1183.33 2775.84 1175.69 2771.54 1168.05 2762.95 1166.53 2755.78 1165 2748.62 1171.11 2747.19 1178.74Z" fill="#A9BDD6" fill-rule="evenodd"/><path d="M2744 1197.42C2748.29 1195.83 2752.57 1195.83 2755.43 1195.83 2761.14 1195.83 2766.86 1195.83 2772.57 1199 2774 1183.17 2774 1183.17 2774 1183.17 2774 1183.17 2774 1183.17 2774 1183.17 2766.86 1180 2754 1181.58 2745.43 1181.58L2744 1197.42Z" fill="#D4DDEA" fill-rule="evenodd"/><path d="M2769.61 1214.23C2771 1208.08 2771 1208.08 2771 1208.08 2765.43 1205 2752.91 1206.54 2747.35 1205 2745.96 1205 2744.57 1205 2743.17 1205 2741.78 1208.08 2741.78 1208.08 2741.78 1208.08 2741.78 1212.69 2740.39 1217.31 2739 1221.92 2744.57 1221.92 2750.13 1221.92 2752.91 1221.92 2757.09 1221.92 2762.65 1223.46 2766.83 1225 2768.22 1220.38 2768.22 1217.31 2769.61 1214.23Z" fill="#467FAC" fill-rule="evenodd"/><path d="M2760.1 1279.94C2758.65 1273.81 2757.2 1269.22 2758.65 1263.09 2758.65 1253.91 2760.1 1246.25 2763 1238.59 2763 1238.59 2763 1238.59 2763 1238.59 2758.65 1234 2745.6 1237.06 2741.25 1235.53 2739.8 1235.53 2738.35 1235.53 2736.9 1235.53 2735.45 1249.31 2734 1264.62 2734 1283 2736.9 1281.47 2738.35 1281.47 2739.8 1281.47 2742.7 1279.94 2752.85 1281.47 2760.1 1279.94Z" fill="#004B7E" fill-rule="evenodd"/><path d="M2737.42 1304C2741.68 1302.5 2747.37 1301 2748.79 1301 2751.63 1299.5 2758.74 1301 2763 1299.5 2763 1295 2761.58 1290.5 2760.16 1286 2753.05 1286 2744.53 1289 2736 1290.5 2736 1295 2736 1299.5 2737.42 1304Z" fill="#D4DDEA" fill-rule="evenodd"/><path d="M2741 1335C2742.45 1344 2743.91 1353 2745.36 1362 2751.18 1359 2755.55 1356 2762.82 1354.5 2765.73 1353 2768.64 1351.5 2773 1351.5 2771.55 1344 2770.09 1335 2768.64 1326 2761.36 1327.5 2751.18 1332 2746.82 1332 2745.36 1333.5 2742.45 1333.5 2741 1335Z" fill="#004B7E" fill-rule="evenodd"/><path d="M2777 1383.73C2775.55 1376 2774.09 1368.27 2774.09 1359 2768.27 1360.55 2759.55 1363.64 2756.64 1365.18 2753.73 1366.73 2749.36 1368.27 2745 1369.82 2746.45 1377.55 2747.91 1385.27 2749.36 1393 2755.18 1389.91 2761 1386.82 2768.27 1385.27 2771.18 1383.73 2774.09 1383.73 2777 1383.73Z" fill="#004B7E" fill-rule="evenodd"/><path d="M2780.52 1405C2773.14 1405 2764.29 1409.62 2758.38 1411.15 2756.9 1411.15 2753.95 1412.69 2751 1412.69 2752.48 1418.85 2752.48 1421.92 2752.48 1425 2762.81 1421.92 2771.67 1418.85 2782 1417.31 2780.52 1414.23 2780.52 1409.62 2780.52 1405Z" fill="#467FAC" fill-rule="evenodd"/><path d="M2747.19 1178.74C2741.46 1207.76 2741.46 1207.76 2741.46 1207.76 2735.73 1241.36 2730 1268.85 2740.03 1326.88 2751.49 1394.08 2754.35 1430.73 2754.35 1432.26 2754.35 1439.89 2761.51 1446 2768.68 1446 2777.27 1444.47 2783 1438.36 2783 1429.2 2781.57 1427.67 2778.7 1391.02 2767.24 1320.77 2764.38 1296.34 2757.22 1278.01 2758.65 1262.74 2758.65 1245.94 2767.24 1230.67 2770.11 1213.87 2774.41 1183.33 2774.41 1183.33 2774.41 1183.33 2775.84 1175.69 2771.54 1168.05 2762.95 1166.53 2755.78 1165 2748.62 1171.11 2747.19 1178.74Z" stroke="#58585A" stroke-width="4.0106" stroke-linecap="round" stroke-linejoin="round" stroke-miterlimit="10" fill="none" fill-rule="evenodd"/></g></svg>