<svg width="145" height="294" xmlns="http://www.w3.org/2000/svg" xmlns:xlink="http://www.w3.org/1999/xlink" xml:space="preserve" overflow="hidden"><g transform="translate(-2732 -1156)"><path d="M2848.58 1166.7C2823 1212.57 2824.42 1230.91 2825.84 1275.25 2827.26 1278.3 2827.26 1278.3 2827.26 1278.3 2831.53 1336.4 2831.53 1336.4 2831.53 1336.4 2835.79 1371.56 2840.05 1412.84 2838.63 1431.18 2837.21 1438.83 2842.89 1446.47 2851.42 1448 2858.53 1448 2865.63 1441.88 2867.05 1434.24 2868.47 1412.84 2864.21 1371.56 2859.95 1333.34 2855.68 1275.25 2855.68 1275.25 2855.68 1275.25 2854.26 1272.19 2854.26 1272.19 2854.26 1272.19 2854.26 1258.43 2848.58 1246.2 2850 1237.03 2850 1227.85 2855.68 1221.74 2858.53 1214.09 2861.37 1204.92 2865.63 1194.22 2872.74 1181.99 2877 1174.35 2874.16 1165.17 2868.47 1160.59 2861.37 1156 2852.84 1159.06 2848.58 1166.7Z" fill="#A9BDD6" fill-rule="evenodd"/><path d="M2858.6 1421.5C2861.4 1421.5 2864.2 1421.5 2867 1421.5 2867 1417 2867 1411 2867 1405 2857.2 1405 2847.4 1408 2839 1409.5 2839 1417 2839 1424.5 2839 1429 2844.6 1426 2851.6 1423 2858.6 1421.5Z" fill="#467FAC" fill-rule="evenodd"/><path d="M2865 1379.9C2865 1370.76 2863.52 1363.14 2863.52 1354 2856.14 1354 2847.29 1357.05 2841.38 1358.57 2838.43 1358.57 2836.95 1358.57 2834 1358.57 2835.48 1367.71 2835.48 1376.86 2836.95 1386 2844.33 1384.48 2853.19 1381.43 2860.57 1379.9 2862.05 1379.9 2863.52 1379.9 2865 1379.9Z" fill="#004B7E" fill-rule="evenodd"/><path d="M2860.52 1333.5C2860.52 1329 2860.52 1329 2860.52 1329 2854.62 1332 2848.71 1332 2841.33 1333.5 2838.38 1335 2835.43 1335 2831 1336.5 2831 1336.5 2831 1336.5 2831 1336.5 2832.48 1341 2832.48 1347 2832.48 1353 2835.43 1351.5 2836.91 1350 2839.86 1350 2847.24 1348.5 2856.1 1348.5 2862 1344 2862 1341 2860.52 1336.5 2860.52 1333.5Z" fill="#004B7E" fill-rule="evenodd"/><path d="M2827 1290C2837.15 1287 2847.3 1285.5 2856 1285.5 2856 1275 2856 1275 2856 1275 2845.85 1275 2835.7 1278 2827 1279.5L2827 1290Z" fill="#D4DDEA" fill-rule="evenodd"/><path d="M2826 1269C2833 1267.5 2844.2 1267.5 2854 1267.5 2854 1263 2852.6 1260 2852.6 1257 2842.8 1257 2834.4 1260 2826 1263 2826 1264.5 2826 1267.5 2826 1269Z" fill="#467FAC" fill-rule="evenodd"/><path d="M2849.58 1242.94C2849.58 1241.41 2849.58 1238.35 2849.58 1236.82 2849.58 1233.76 2849.58 1230.71 2851 1229.18 2846.74 1227.65 2843.89 1224.59 2839.63 1223.06 2835.37 1221.53 2831.11 1221.53 2826.84 1220 2825.42 1227.65 2824 1235.29 2825.42 1244.47 2832.53 1246 2841.05 1242.94 2849.58 1242.94Z" fill="#004B7E" fill-rule="evenodd"/><path d="M2830 1206.5C2838.73 1208 2847.45 1211 2854.73 1212.5 2856.18 1212.5 2856.18 1214 2857.64 1214 2857.64 1214 2859.09 1214 2859.09 1214 2859.09 1211 2860.55 1208 2862 1205 2835.82 1193 2835.82 1193 2835.82 1193 2832.91 1197.5 2831.45 1202 2830 1206.5Z" fill="#467FAC" fill-rule="evenodd"/><path d="M2873 1182C2865.95 1177.5 2856.09 1174.5 2847.64 1170 2844.82 1173 2843.41 1176 2842 1179 2850.45 1182 2860.32 1185 2868.77 1191 2870.18 1188 2871.59 1185 2873 1182 2873 1182 2873 1182 2873 1182Z" fill="#D4DDEA" fill-rule="evenodd"/><path d="M2848.58 1166.7C2823 1212.57 2824.42 1230.91 2825.84 1275.25 2827.26 1278.3 2827.26 1278.3 2827.26 1278.3 2831.53 1336.4 2831.53 1336.4 2831.53 1336.4 2835.79 1371.56 2840.05 1412.84 2838.63 1431.18 2837.21 1438.83 2842.89 1446.47 2851.42 1448 2858.53 1448 2865.63 1441.88 2867.05 1434.24 2868.47 1412.84 2864.21 1371.56 2859.95 1333.34 2855.68 1275.25 2855.68 1275.25 2855.68 1275.25 2854.26 1272.19 2854.26 1272.19 2854.26 1272.19 2854.26 1258.43 2848.58 1246.2 2850 1237.03 2850 1227.85 2855.68 1221.74 2858.53 1214.09 2861.37 1204.92 2865.63 1194.22 2872.74 1181.99 2877 1174.35 2874.16 1165.17 2868.47 1160.59 2861.37 1156 2852.84 1159.06 2848.58 1166.7Z" stroke="#58585A" stroke-width="4.0106" stroke-linecap="round" stroke-linejoin="round" stroke-miterlimit="10" fill="none" fill-rule="evenodd"/><path d="M2747.19 1178.74C2741.46 1207.76 2741.46 1207.76 2741.46 1207.76 2735.73 1241.36 2730 1268.85 2740.03 1326.88 2751.49 1394.08 2754.35 1430.73 2754.35 1432.26 2754.35 1439.89 2761.51 1446 2768.68 1446 2777.27 1444.47 2783 1438.36 2783 1429.2 2781.57 1427.67 2778.7 1391.02 2767.24 1320.77 2764.38 1296.34 2757.22 1278.01 2758.65 1262.74 2758.65 1245.94 2767.24 1230.67 2770.11 1213.87 2774.41 1183.33 2774.41 1183.33 2774.41 1183.33 2775.84 1175.69 2771.54 1168.05 2762.95 1166.53 2755.78 1165 2748.62 1171.11 2747.19 1178.74Z" fill="#A9BDD6" fill-rule="evenodd"/><path d="M2744 1197.42C2748.29 1195.83 2752.57 1195.83 2755.43 1195.83 2761.14 1195.83 2766.86 1195.83 2772.57 1199 2774 1183.17 2774 1183.17 2774 1183.17 2774 1183.17 2774 1183.17 2774 1183.17 2766.86 1180 2754 1181.58 2745.43 1181.58L2744 1197.42Z" fill="#D4DDEA" fill-rule="evenodd"/><path d="M2769.61 1214.23C2771 1208.08 2771 1208.08 2771 1208.08 2765.43 1205 2752.91 1206.54 2747.35 1205 2745.96 1205 2744.57 1205 2743.17 1205 2741.78 1208.08 2741.78 1208.08 2741.78 1208.08 2741.78 1212.69 2740.39 1217.31 2739 1221.92 2744.57 1221.92 2750.13 1221.92 2752.91 1221.92 2757.09 1221.92 2762.65 1223.46 2766.83 1225 2768.22 1220.38 2768.22 1217.31 2769.61 1214.23Z" fill="#467FAC" fill-rule="evenodd"/><path d="M2760.1 1279.94C2758.65 1273.81 2757.2 1269.22 2758.65 1263.09 2758.65 1253.91 2760.1 1246.25 2763 1238.59 2763 1238.59 2763 1238.59 2763 1238.59 2758.65 1234 2745.6 1237.06 2741.25 1235.53 2739.8 1235.53 2738.35 1235.53 2736.9 1235.53 2735.45 1249.31 2734 1264.62 2734 1283 2736.9 1281.47 2738.35 1281.47 2739.8 1281.47 2742.7 1279.94 2752.85 1281.47 2760.1 1279.94Z" fill="#004B7E" fill-rule="evenodd"/><path d="M2737.42 1304C2741.68 1302.5 2747.37 1301 2748.79 1301 2751.63 1299.5 2758.74 1301 2763 1299.5 2763 1295 2761.58 1290.5 2760.16 1286 2753.05 1286 2744.53 1289 2736 1290.5 2736 1295 2736 1299.5 2737.42 1304Z" fill="#D4DDEA" fill-rule="evenodd"/><path d="M2741 1335C2742.45 1344 2743.91 1353 2745.36 1362 2751.18 1359 2755.55 1356 2762.82 1354.5 2765.73 1353 2768.64 1351.5 2773 1351.5 2771.55 1344 2770.09 1335 2768.64 1326 2761.36 1327.5 2751.18 1332 2746.82 1332 2745.36 1333.5 2742.45 1333.5 2741 1335Z" fill="#004B7E" fill-rule="evenodd"/><path d="M2777 1383.73C2775.55 1376 2774.09 1368.27 2774.09 1359 2768.27 1360.55 2759.55 1363.64 2756.64 1365.18 2753.73 1366.73 2749.36 1368.27 2745 1369.82 2746.45 1377.55 2747.91 1385.27 2749.36 1393 2755.18 1389.91 2761 1386.82 2768.27 1385.27 2771.18 1383.73 2774.09 1383.73 2777 1383.73Z" fill="#004B7E" fill-rule="evenodd"/><path d="M2780.52 1405C2773.14 1405 2764.29 1409.62 2758.38 1411.15 2756.9 1411.15 2753.95 1412.69 2751 1412.69 2752.48 1418.85 2752.48 1421.92 2752.48 1425 2762.81 1421.92 2771.67 1418.85 2782 1417.31 2780.52 1414.23 2780.52 1409.62 2780.52 1405Z" fill="#467FAC" fill-rule="evenodd"/><path d="M2747.19 1178.74C2741.46 1207.76 2741.46 1207.76 2741.46 1207.76 2735.73 1241.36 2730 1268.85 2740.03 1326.88 2751.49 1394.08 2754.35 1430.73 2754.35 1432.26 2754.35 1439.89 2761.51 1446 2768.68 1446 2777.27 1444.47 2783 1438.36 2783 1429.2 2781.57 1427.67 2778.7 1391.02 2767.24 1320.77 2764.38 1296.34 2757.22 1278.01 2758.65 1262.74 2758.65 1245.94 2767.24 1230.67 2770.11 1213.87 2774.41 1183.33 2774.41 1183.33 2774.41 1183.33 2775.84 1175.69 2771.54 1168.05 2762.95 1166.53 2755.78 1165 2748.62 1171.11 2747.19 1178.74Z" stroke="#58585A" stroke-width="4.0106" stroke-linecap="round" stroke-linejoin="round" stroke-miterlimit="10" fill="none" fill-rule="evenodd"/></g></svg>