<svg width="70" height="273" xmlns="http://www.w3.org/2000/svg" xmlns:xlink="http://www.w3.org/1999/xlink" xml:space="preserve" overflow="hidden"><g transform="translate(-3033 -1181)"><path d="M3045.29 1183.53C3038.24 1185.05 3034 1194.2 3035.41 1201.83 3041.06 1229.29 3048.12 1243.02 3056.59 1258.27 3073.53 1279.63 3073.53 1279.63 3073.53 1279.63 3080.59 1291.83 3066.47 1322.34 3059.41 1351.32 3052.35 1377.25 3048.12 1407.76 3048.12 1436.75 3048.12 1444.37 3053.76 1452 3062.24 1452 3069.29 1452 3076.35 1444.37 3076.35 1436.75 3076.35 1410.81 3082 1384.88 3089.06 1358.95 3098.94 1323.86 3106 1293.36 3096.12 1268.95 3080.59 1241.49 3080.59 1241.49 3080.59 1241.49 3073.53 1227.76 3067.88 1218.61 3062.24 1195.73 3060.82 1186.58 3053.76 1182 3045.29 1183.53Z" fill="#A9BDD6" fill-rule="evenodd"/><path d="M3061.71 1200.47C3053.14 1201.93 3044.57 1204.87 3036 1209.27 3037.43 1213.67 3038.86 1218.07 3040.29 1221 3043.14 1218.07 3047.43 1215.13 3051.71 1213.67 3056 1212.2 3061.71 1210.73 3066 1209.27 3064.57 1206.33 3064.57 1203.4 3063.14 1199 3063.14 1200.47 3061.71 1200.47 3061.71 1200.47Z" fill="#004B7E" fill-rule="evenodd"/><path d="M3072.39 1223C3066.65 1226.09 3059.48 1232.27 3056.61 1233.82 3053.74 1235.36 3050.87 1238.45 3048 1240 3050.87 1246.18 3053.74 1250.82 3056.61 1257 3060.91 1253.91 3066.65 1249.27 3070.96 1247.73 3075.26 1244.64 3078.13 1243.09 3081 1241.55 3078.13 1235.36 3075.26 1229.18 3072.39 1223Z" fill="#467FAC" fill-rule="evenodd"/><path d="M3096.54 1269.32C3084.88 1251 3084.88 1251 3084.88 1251 3077.58 1252.53 3070.29 1260.16 3063 1266.26 3073.21 1280 3073.21 1280 3073.21 1280 3073.21 1280 3073.21 1280 3073.21 1280 3081.96 1278.47 3090.71 1276.95 3098 1276.95 3098 1273.89 3096.54 1272.37 3096.54 1269.32Z" fill="#004B7E" fill-rule="evenodd"/><path d="M3073.86 1299C3073.86 1303.67 3072.43 1306.78 3071 1311.44 3078.14 1311.44 3086.71 1313 3093.86 1313 3095.29 1313 3098.14 1313 3099.57 1313 3101 1309.89 3101 1305.22 3101 1300.56 3092.43 1299 3082.43 1300.56 3073.86 1299Z" fill="#467FAC" fill-rule="evenodd"/><path d="M3098 1324.06C3092.31 1322.53 3083.77 1322.53 3080.92 1322.53 3076.65 1322.53 3072.38 1321 3068.12 1321 3065.27 1328.65 3063.85 1334.76 3061 1342.41 3072.38 1343.94 3082.35 1345.47 3092.31 1347 3095.15 1339.35 3096.58 1330.18 3098 1324.06Z" fill="#D4DDEA" fill-rule="evenodd"/><path d="M3057.69 1356C3054.85 1363.63 3053.42 1371.26 3052 1378.89 3054.85 1378.89 3057.69 1378.89 3060.54 1378.89 3066.23 1380.42 3071.92 1380.42 3077.62 1381.95 3079.04 1383.47 3080.46 1383.47 3083.31 1385 3084.73 1377.37 3086.15 1369.74 3089 1360.58L3057.69 1356Z" fill="#004B7E" fill-rule="evenodd"/><path d="M3053.64 1405C3052.23 1405 3050.82 1405 3049.41 1405 3048 1412.86 3048 1419.14 3048 1427 3052.23 1425.43 3056.45 1425.43 3060.68 1423.86 3066.32 1423.86 3070.55 1425.43 3076.18 1425.43 3076.18 1419.14 3077.59 1412.86 3079 1406.57 3070.55 1405 3059.27 1406.57 3053.64 1405Z" fill="#D4DDEA" fill-rule="evenodd"/><path d="M3045.29 1183.53C3038.24 1185.05 3034 1194.2 3035.41 1201.83 3041.06 1229.29 3048.12 1243.02 3056.59 1258.27 3073.53 1279.63 3073.53 1279.63 3073.53 1279.63 3080.59 1291.83 3066.47 1322.34 3059.41 1351.32 3052.35 1377.25 3048.12 1407.76 3048.12 1436.75 3048.12 1444.37 3053.76 1452 3062.24 1452 3069.29 1452 3076.35 1444.37 3076.35 1436.75 3076.35 1410.81 3082 1384.88 3089.06 1358.95 3098.94 1323.86 3106 1293.36 3096.12 1268.95 3080.59 1241.49 3080.59 1241.49 3080.59 1241.49 3073.53 1227.76 3067.88 1218.61 3062.24 1195.73 3060.82 1186.58 3053.76 1182 3045.29 1183.53Z" stroke="#58585A" stroke-width="4.0106" stroke-linecap="round" stroke-linejoin="round" stroke-miterlimit="10" fill="none" fill-rule="evenodd"/></g></svg>