<svg width="71" height="289" xmlns="http://www.w3.org/2000/svg" xmlns:xlink="http://www.w3.org/1999/xlink" xml:space="preserve" overflow="hidden"><g transform="translate(-3139 -1164)"><path d="M3180.67 1174.69C3166.5 1202.16 3166.5 1202.16 3166.5 1202.16 3160.83 1212.85 3159.42 1222.01 3156.58 1231.17 3148.08 1246.44 3141 1258.65 3141 1275.44 3141 1290.71 3148.08 1318.19 3158 1350.24 3167.92 1380.78 3177.83 1417.41 3179.25 1435.73 3179.25 1444.89 3184.92 1451 3193.42 1451 3200.5 1451 3207.58 1443.37 3207.58 1434.21 3206.17 1411.31 3194.83 1376.2 3184.92 1341.08 3177.83 1315.13 3169.33 1286.13 3169.33 1275.44 3169.33 1264.76 3167.92 1255.6 3173.58 1243.38 3176.42 1235.75 3184.92 1228.12 3190.58 1217.43 3204.75 1189.95 3204.75 1189.95 3204.75 1189.95 3209 1182.32 3206.17 1173.16 3199.08 1168.58 3193.42 1164 3183.5 1167.05 3180.67 1174.69Z" fill="#A9BDD6" fill-rule="evenodd"/><path d="M3176.75 1182C3168 1200.29 3168 1200.29 3168 1200.29 3172.38 1201.81 3178.21 1204.86 3182.58 1207.9 3185.5 1209.43 3189.88 1212.48 3192.79 1214 3203 1195.71 3203 1195.71 3203 1195.71 3194.25 1191.14 3184.04 1188.1 3176.75 1182Z" fill="#004B7E" fill-rule="evenodd"/><path d="M3157 1227.82C3164.05 1229.35 3171.09 1232.41 3178.14 1237 3180.95 1232.41 3185.18 1227.82 3188 1221.71 3182.36 1217.12 3171.09 1214.06 3162.64 1211 3161.23 1217.12 3159.82 1221.71 3157 1227.82Z" fill="#467FAC" fill-rule="evenodd"/><path d="M3141 1267C3151 1264 3159.57 1262.5 3169.57 1262.5 3169.57 1258 3169.57 1253.5 3171 1249 3165.29 1246 3156.71 1244.5 3149.57 1243 3145.29 1250.5 3142.43 1258 3141 1267Z" fill="#004B7E" fill-rule="evenodd"/><path d="M3144 1296.65C3145.43 1301.24 3146.86 1308.88 3148.29 1315 3156.86 1310.41 3165.43 1304.29 3174 1301.24 3172.57 1296.65 3172.57 1292.06 3171.14 1289 3165.43 1289 3161.14 1289 3155.43 1290.53 3152.57 1292.06 3148.29 1295.12 3144 1296.65Z" fill="#467FAC" fill-rule="evenodd"/><path d="M3149 1322.7C3151.96 1330.3 3153.43 1336.39 3156.39 1344 3165.26 1340.96 3174.13 1336.39 3183 1331.83 3181.52 1324.22 3178.57 1315.09 3175.61 1309 3168.22 1310.52 3162.3 1316.61 3154.91 1319.65 3153.43 1321.17 3151.96 1322.7 3149 1322.7Z" fill="#D4DDEA" fill-rule="evenodd"/><path d="M3186.83 1345C3185.39 1345 3183.96 1345 3182.52 1346.54 3175.35 1349.63 3168.17 1354.25 3161 1357.33 3162.44 1365.04 3165.3 1374.29 3168.17 1382 3171.04 1380.46 3173.91 1377.37 3175.35 1375.83 3181.09 1372.75 3188.26 1369.67 3194 1366.58 3191.13 1358.88 3189.7 1352.71 3186.83 1345Z" fill="#004B7E" fill-rule="evenodd"/><path d="M3204 1408C3202.57 1403.33 3202.57 1398.67 3201.14 1394 3192.57 1395.56 3182.57 1403.33 3174 1406.44 3175.43 1411.11 3176.86 1417.33 3176.86 1422 3176.86 1422 3176.86 1422 3176.86 1422 3182.57 1417.33 3188.29 1414.22 3195.43 1412.67 3198.29 1411.11 3201.14 1409.56 3204 1408Z" fill="#D4DDEA" fill-rule="evenodd"/><path d="M3207 1430.94C3207 1427.81 3207 1423.12 3205.55 1420 3205.55 1420 3205.55 1420 3205.55 1420 3196.85 1423.12 3186.7 1427.81 3178 1432.5 3178 1434.06 3179.45 1434.06 3179.45 1435.62 3179.45 1438.75 3179.45 1441.88 3180.9 1445 3186.7 1441.88 3191.05 1438.75 3196.85 1435.62 3199.75 1434.06 3204.1 1432.5 3207 1430.94Z" fill="#467FAC" fill-rule="evenodd"/><path d="M3180.67 1174.69C3166.5 1202.16 3166.5 1202.16 3166.5 1202.16 3160.83 1212.85 3159.42 1222.01 3156.58 1231.17 3148.08 1246.44 3141 1258.65 3141 1275.44 3141 1290.71 3148.08 1318.19 3158 1350.24 3167.92 1380.78 3177.83 1417.41 3179.25 1435.73 3179.25 1444.89 3184.92 1451 3193.42 1451 3200.5 1451 3207.58 1443.37 3207.58 1434.21 3206.17 1411.31 3194.83 1376.2 3184.92 1341.08 3177.83 1315.13 3169.33 1286.13 3169.33 1275.44 3169.33 1264.76 3167.92 1255.6 3173.58 1243.38 3176.42 1235.75 3184.92 1228.12 3190.58 1217.43 3204.75 1189.95 3204.75 1189.95 3204.75 1189.95 3209 1182.32 3206.17 1173.16 3199.08 1168.58 3193.42 1164 3183.5 1167.05 3180.67 1174.69Z" stroke="#58585A" stroke-width="4.0106" stroke-linecap="round" stroke-linejoin="round" stroke-miterlimit="10" fill="none" fill-rule="evenodd"/></g></svg>