<svg width="177" height="290" xmlns="http://www.w3.org/2000/svg" xmlns:xlink="http://www.w3.org/1999/xlink" xml:space="preserve" overflow="hidden"><g transform="translate(-3033 -1164)"><path d="M3180.67 1174.69C3166.5 1202.16 3166.5 1202.16 3166.5 1202.16 3160.83 1212.85 3159.42 1222.01 3156.58 1231.17 3148.08 1246.44 3141 1258.65 3141 1275.44 3141 1290.71 3148.08 1318.19 3158 1350.24 3167.92 1380.78 3177.83 1417.41 3179.25 1435.73 3179.25 1444.89 3184.92 1451 3193.42 1451 3200.5 1451 3207.58 1443.37 3207.58 1434.21 3206.17 1411.31 3194.83 1376.2 3184.92 1341.08 3177.83 1315.13 3169.33 1286.13 3169.33 1275.44 3169.33 1264.76 3167.92 1255.6 3173.58 1243.38 3176.42 1235.75 3184.92 1228.12 3190.58 1217.43 3204.75 1189.95 3204.75 1189.95 3204.75 1189.95 3209 1182.32 3206.17 1173.16 3199.08 1168.58 3193.42 1164 3183.5 1167.05 3180.67 1174.69Z" fill="#A9BDD6" fill-rule="evenodd"/><path d="M3176.75 1182C3168 1200.29 3168 1200.29 3168 1200.29 3172.38 1201.81 3178.21 1204.86 3182.58 1207.9 3185.5 1209.43 3189.88 1212.48 3192.79 1214 3203 1195.71 3203 1195.71 3203 1195.71 3194.25 1191.14 3184.04 1188.1 3176.75 1182Z" fill="#004B7E" fill-rule="evenodd"/><path d="M3157 1227.82C3164.05 1229.35 3171.09 1232.41 3178.14 1237 3180.95 1232.41 3185.18 1227.82 3188 1221.71 3182.36 1217.12 3171.09 1214.06 3162.64 1211 3161.23 1217.12 3159.82 1221.71 3157 1227.82Z" fill="#467FAC" fill-rule="evenodd"/><path d="M3141 1267C3151 1264 3159.57 1262.5 3169.57 1262.5 3169.57 1258 3169.57 1253.5 3171 1249 3165.29 1246 3156.71 1244.5 3149.57 1243 3145.29 1250.5 3142.43 1258 3141 1267Z" fill="#004B7E" fill-rule="evenodd"/><path d="M3144 1296.65C3145.43 1301.24 3146.86 1308.88 3148.29 1315 3156.86 1310.41 3165.43 1304.29 3174 1301.24 3172.57 1296.65 3172.57 1292.06 3171.14 1289 3165.43 1289 3161.14 1289 3155.43 1290.53 3152.57 1292.06 3148.29 1295.12 3144 1296.65Z" fill="#467FAC" fill-rule="evenodd"/><path d="M3149 1322.7C3151.96 1330.3 3153.43 1336.39 3156.39 1344 3165.26 1340.96 3174.13 1336.39 3183 1331.83 3181.52 1324.22 3178.57 1315.09 3175.61 1309 3168.22 1310.52 3162.3 1316.61 3154.91 1319.65 3153.43 1321.17 3151.96 1322.7 3149 1322.7Z" fill="#D4DDEA" fill-rule="evenodd"/><path d="M3186.83 1345C3185.39 1345 3183.96 1345 3182.52 1346.54 3175.35 1349.63 3168.17 1354.25 3161 1357.33 3162.44 1365.04 3165.3 1374.29 3168.17 1382 3171.04 1380.46 3173.91 1377.37 3175.35 1375.83 3181.09 1372.75 3188.26 1369.67 3194 1366.58 3191.13 1358.88 3189.7 1352.71 3186.83 1345Z" fill="#004B7E" fill-rule="evenodd"/><path d="M3204 1408C3202.57 1403.33 3202.57 1398.67 3201.14 1394 3192.57 1395.56 3182.57 1403.33 3174 1406.44 3175.43 1411.11 3176.86 1417.33 3176.86 1422 3176.86 1422 3176.86 1422 3176.86 1422 3182.57 1417.33 3188.29 1414.22 3195.43 1412.67 3198.29 1411.11 3201.14 1409.56 3204 1408Z" fill="#D4DDEA" fill-rule="evenodd"/><path d="M3207 1430.94C3207 1427.81 3207 1423.12 3205.55 1420 3205.55 1420 3205.55 1420 3205.55 1420 3196.85 1423.12 3186.7 1427.81 3178 1432.5 3178 1434.06 3179.45 1434.06 3179.45 1435.62 3179.45 1438.75 3179.45 1441.88 3180.9 1445 3186.7 1441.88 3191.05 1438.75 3196.85 1435.62 3199.75 1434.06 3204.1 1432.5 3207 1430.94Z" fill="#467FAC" fill-rule="evenodd"/><path d="M3180.67 1174.69C3166.5 1202.16 3166.5 1202.16 3166.5 1202.16 3160.83 1212.85 3159.42 1222.01 3156.58 1231.17 3148.08 1246.44 3141 1258.65 3141 1275.44 3141 1290.71 3148.08 1318.19 3158 1350.24 3167.92 1380.78 3177.83 1417.41 3179.25 1435.73 3179.25 1444.89 3184.92 1451 3193.42 1451 3200.5 1451 3207.58 1443.37 3207.58 1434.21 3206.17 1411.31 3194.83 1376.2 3184.92 1341.08 3177.83 1315.13 3169.33 1286.13 3169.33 1275.44 3169.33 1264.76 3167.92 1255.6 3173.58 1243.38 3176.42 1235.75 3184.92 1228.12 3190.58 1217.43 3204.75 1189.95 3204.75 1189.95 3204.75 1189.95 3209 1182.32 3206.17 1173.16 3199.08 1168.58 3193.42 1164 3183.5 1167.05 3180.67 1174.69Z" stroke="#58585A" stroke-width="4.0106" stroke-linecap="round" stroke-linejoin="round" stroke-miterlimit="10" fill="none" fill-rule="evenodd"/><path d="M3045.29 1183.53C3038.24 1185.05 3034 1194.2 3035.41 1201.83 3041.06 1229.29 3048.12 1243.02 3056.59 1258.27 3073.53 1279.63 3073.53 1279.63 3073.53 1279.63 3080.59 1291.83 3066.47 1322.34 3059.41 1351.32 3052.35 1377.25 3048.12 1407.76 3048.12 1436.75 3048.12 1444.37 3053.76 1452 3062.24 1452 3069.29 1452 3076.35 1444.37 3076.35 1436.75 3076.35 1410.81 3082 1384.88 3089.06 1358.95 3098.94 1323.86 3106 1293.36 3096.12 1268.95 3080.59 1241.49 3080.59 1241.49 3080.59 1241.49 3073.53 1227.76 3067.88 1218.61 3062.24 1195.73 3060.82 1186.58 3053.76 1182 3045.29 1183.53Z" fill="#A9BDD6" fill-rule="evenodd"/><path d="M3061.71 1200.47C3053.14 1201.93 3044.57 1204.87 3036 1209.27 3037.43 1213.67 3038.86 1218.07 3040.29 1221 3043.14 1218.07 3047.43 1215.13 3051.71 1213.67 3056 1212.2 3061.71 1210.73 3066 1209.27 3064.57 1206.33 3064.57 1203.4 3063.14 1199 3063.14 1200.47 3061.71 1200.47 3061.71 1200.47Z" fill="#004B7E" fill-rule="evenodd"/><path d="M3072.39 1223C3066.65 1226.09 3059.48 1232.27 3056.61 1233.82 3053.74 1235.36 3050.87 1238.45 3048 1240 3050.87 1246.18 3053.74 1250.82 3056.61 1257 3060.91 1253.91 3066.65 1249.27 3070.96 1247.73 3075.26 1244.64 3078.13 1243.09 3081 1241.55 3078.13 1235.36 3075.26 1229.18 3072.39 1223Z" fill="#467FAC" fill-rule="evenodd"/><path d="M3096.54 1269.32C3084.88 1251 3084.88 1251 3084.88 1251 3077.58 1252.53 3070.29 1260.16 3063 1266.26 3073.21 1280 3073.21 1280 3073.21 1280 3073.21 1280 3073.21 1280 3073.21 1280 3081.96 1278.47 3090.71 1276.95 3098 1276.95 3098 1273.89 3096.54 1272.37 3096.54 1269.32Z" fill="#004B7E" fill-rule="evenodd"/><path d="M3073.86 1299C3073.86 1303.67 3072.43 1306.78 3071 1311.44 3078.14 1311.44 3086.71 1313 3093.86 1313 3095.29 1313 3098.14 1313 3099.57 1313 3101 1309.89 3101 1305.22 3101 1300.56 3092.43 1299 3082.43 1300.56 3073.86 1299Z" fill="#467FAC" fill-rule="evenodd"/><path d="M3098 1324.06C3092.31 1322.53 3083.77 1322.53 3080.92 1322.53 3076.65 1322.53 3072.38 1321 3068.12 1321 3065.27 1328.65 3063.85 1334.76 3061 1342.41 3072.38 1343.94 3082.35 1345.47 3092.31 1347 3095.15 1339.35 3096.58 1330.18 3098 1324.06Z" fill="#D4DDEA" fill-rule="evenodd"/><path d="M3057.69 1356C3054.85 1363.63 3053.42 1371.26 3052 1378.89 3054.85 1378.89 3057.69 1378.89 3060.54 1378.89 3066.23 1380.42 3071.92 1380.42 3077.62 1381.95 3079.04 1383.47 3080.46 1383.47 3083.31 1385 3084.73 1377.37 3086.15 1369.74 3089 1360.58L3057.69 1356Z" fill="#004B7E" fill-rule="evenodd"/><path d="M3053.64 1405C3052.23 1405 3050.82 1405 3049.41 1405 3048 1412.86 3048 1419.14 3048 1427 3052.23 1425.43 3056.45 1425.43 3060.68 1423.86 3066.32 1423.86 3070.55 1425.43 3076.18 1425.43 3076.18 1419.14 3077.59 1412.86 3079 1406.57 3070.55 1405 3059.27 1406.57 3053.64 1405Z" fill="#D4DDEA" fill-rule="evenodd"/><path d="M3045.29 1183.53C3038.24 1185.05 3034 1194.2 3035.41 1201.83 3041.06 1229.29 3048.12 1243.02 3056.59 1258.27 3073.53 1279.63 3073.53 1279.63 3073.53 1279.63 3080.59 1291.83 3066.47 1322.34 3059.41 1351.32 3052.35 1377.25 3048.12 1407.76 3048.12 1436.75 3048.12 1444.37 3053.76 1452 3062.24 1452 3069.29 1452 3076.35 1444.37 3076.35 1436.75 3076.35 1410.81 3082 1384.88 3089.06 1358.95 3098.94 1323.86 3106 1293.36 3096.12 1268.95 3080.59 1241.49 3080.59 1241.49 3080.59 1241.49 3073.53 1227.76 3067.88 1218.61 3062.24 1195.73 3060.82 1186.58 3053.76 1182 3045.29 1183.53Z" stroke="#58585A" stroke-width="4.0106" stroke-linecap="round" stroke-linejoin="round" stroke-miterlimit="10" fill="none" fill-rule="evenodd"/></g></svg>