<svg width="46" height="236" xmlns="http://www.w3.org/2000/svg" xmlns:xlink="http://www.w3.org/1999/xlink" xml:space="preserve" overflow="hidden"><g transform="translate(-1212 -1523)"><path d="M1225.9 1525.53C1217.3 1527.07 1213 1534.73 1214.43 1543.93 1217.3 1566.92 1221.6 1614.44 1223.03 1668.09 1220.17 1741.67 1220.17 1741.67 1220.17 1741.67 1220.17 1750.87 1225.9 1757 1234.5 1757 1241.67 1757 1247.4 1750.87 1251.7 1734.01 1254.57 1717.14 1256 1695.68 1254.57 1665.03 1254.57 1634.37 1245.97 1563.86 1241.67 1537.8 1240.23 1530.13 1233.07 1524 1225.9 1525.53Z" fill="#A9BDD6" fill-rule="evenodd"/><path d="M1221 1643.09C1221 1650.7 1222.43 1658.3 1222.43 1667.43 1221 1672 1221 1672 1221 1672 1222.43 1672 1223.87 1672 1225.3 1672 1235.35 1670.48 1245.39 1670.48 1254 1672 1254 1668.96 1254 1665.91 1254 1664.39 1254 1656.78 1254 1647.65 1252.57 1637 1248.26 1638.52 1243.96 1640.04 1241.09 1640.04 1233.91 1640.04 1228.17 1641.57 1221 1643.09Z" fill="#004B7E" fill-rule="evenodd"/><path d="M1238.32 1620.4C1242.55 1620.4 1246.77 1622 1251 1622 1251 1617.2 1251 1610.8 1249.59 1606 1239.73 1606 1229.86 1609.2 1220 1612.4 1220 1615.6 1221.41 1617.2 1221.41 1620.4 1227.05 1620.4 1232.68 1620.4 1238.32 1620.4Z" fill="#D4DDEA" fill-rule="evenodd"/><path d="M1243.86 1590C1243.86 1590 1245.24 1590 1248 1590 1248 1584 1246.62 1578 1246.62 1572 1236.95 1575 1227.29 1576.5 1219 1578 1219 1581 1219 1585.5 1219 1590 1219 1590 1219 1590 1220.38 1590 1227.29 1588.5 1235.57 1590 1243.86 1590Z" fill="#004B7E" fill-rule="evenodd"/><path d="M1244 1554.91C1242.59 1548.73 1242.59 1542.55 1241.18 1537.91 1239.77 1530.18 1232.73 1524 1225.68 1525.55 1217.23 1527.09 1213 1534.82 1214.41 1544.09 1214.41 1547.18 1215.82 1551.82 1215.82 1556.45 1224.27 1558 1235.55 1558 1244 1554.91Z" fill="#467FAC" fill-rule="evenodd"/><path d="M1245.5 1718.5C1246.92 1718.5 1249.75 1720 1252.58 1720 1254 1714 1254 1708 1254 1702 1244.08 1702 1231.33 1706.5 1221.42 1706.5 1220 1718.5 1220 1718.5 1220 1718.5 1228.5 1720 1238.42 1718.5 1245.5 1718.5Z" fill="#D4DDEA" fill-rule="evenodd"/><path d="M1220 1729C1220 1741.44 1220 1741.44 1220 1741.44 1220 1750.78 1225.71 1757 1234.29 1757 1241.43 1757 1245.71 1750.78 1250 1735.22 1240 1735.22 1230 1732.11 1220 1729Z" fill="#004B7E" fill-rule="evenodd"/><path d="M1225.9 1525.53C1217.3 1527.07 1213 1534.73 1214.43 1543.93 1217.3 1566.92 1221.6 1614.44 1223.03 1668.09 1220.17 1741.67 1220.17 1741.67 1220.17 1741.67 1220.17 1750.87 1225.9 1757 1234.5 1757 1241.67 1757 1247.4 1750.87 1251.7 1734.01 1254.57 1717.14 1256 1695.68 1254.57 1665.03 1254.57 1634.37 1245.97 1563.86 1241.67 1537.8 1240.23 1530.13 1233.07 1524 1225.9 1525.53Z" stroke="#58585A" stroke-width="4.0106" stroke-linecap="round" stroke-linejoin="round" stroke-miterlimit="10" fill="none" fill-rule="evenodd"/></g></svg>