<svg width="42" height="257" xmlns="http://www.w3.org/2000/svg" xmlns:xlink="http://www.w3.org/1999/xlink" xml:space="preserve" overflow="hidden"><g transform="translate(-1289 -1502)"><path d="M1310 1504.52C1301.43 1504.52 1295.71 1512.14 1297.14 1521.29 1300 1553.29 1294.29 1582.24 1292.86 1611.19 1291.43 1647.76 1291.43 1647.76 1291.43 1647.76 1290 1696.52 1295.71 1730.05 1300 1746.81 1302.86 1754.43 1310 1759 1317.14 1755.95 1325.71 1754.43 1330 1745.29 1327.14 1737.67 1325.71 1731.57 1321.43 1710.24 1324.29 1647.76 1325.71 1612.71 1325.71 1612.71 1325.71 1612.71 1327.14 1582.24 1328.57 1553.29 1325.71 1518.24 1324.29 1509.1 1317.14 1503 1310 1504.52Z" fill="#A9BDD6" fill-rule="evenodd"/><path d="M1297 1556.5C1297 1559.5 1297 1564 1297 1567 1305.57 1565.5 1317 1565.5 1325.57 1565.5 1325.57 1565.5 1327 1565.5 1327 1567 1327 1562.5 1327 1559.5 1327 1555 1317 1555 1305.57 1556.5 1297 1556.5Z" fill="#004B7E" fill-rule="evenodd"/><path d="M1324.55 1515.08C1315.85 1512 1305.7 1513.54 1297 1516.62 1297 1518.15 1297 1519.69 1297 1521.23 1297 1524.31 1297 1528.92 1297 1532 1307.15 1532 1317.3 1530.46 1326 1532 1326 1527.38 1326 1522.77 1326 1518.15 1324.55 1516.62 1324.55 1515.08 1324.55 1515.08Z" fill="#467FAC" fill-rule="evenodd"/><path d="M1324.57 1619C1326 1612.87 1326 1612.87 1326 1612.87 1326 1606.73 1326 1600.6 1326 1596 1318.83 1596 1311.65 1596 1307.35 1596 1303.04 1596 1298.74 1597.53 1294.43 1597.53 1293 1602.13 1293 1606.73 1293 1611.33 1293 1619 1293 1619 1293 1619 1303.04 1617.47 1314.52 1619 1324.57 1619Z" fill="#D4DDEA" fill-rule="evenodd"/><path d="M1323.52 1670.58C1323.52 1664.68 1323.52 1657.32 1325 1649.95 1313.17 1649.95 1301.35 1648.47 1291 1647 1291 1648.47 1291 1648.47 1291 1648.47 1291 1657.32 1291 1666.16 1291 1675 1296.91 1673.53 1302.83 1672.05 1308.74 1672.05 1313.17 1670.58 1319.09 1670.58 1323.52 1670.58Z" fill="#004B7E" fill-rule="evenodd"/><path d="M1293.96 1715C1301.35 1713.5 1308.74 1712 1317.61 1710.5 1319.09 1709 1322.04 1709 1325 1709 1323.52 1703 1323.52 1695.5 1323.52 1688 1313.17 1689.5 1302.83 1689.5 1291 1689.5 1292.48 1698.5 1292.48 1707.5 1293.96 1715Z" fill="#467FAC" fill-rule="evenodd"/><path d="M1300.43 1746.88C1300.43 1748.41 1301.86 1751.47 1304.71 1753 1311.86 1748.41 1320.43 1745.35 1329 1740.76 1327.57 1739.24 1327.57 1739.24 1327.57 1737.71 1327.57 1736.18 1326.14 1731.59 1326.14 1727 1316.14 1728.53 1307.57 1734.65 1299 1737.71 1299 1740.76 1300.43 1743.82 1300.43 1746.88Z" fill="#004B7E" fill-rule="evenodd"/><path d="M1310 1504.52C1301.43 1504.52 1295.71 1512.14 1297.14 1521.29 1300 1553.29 1294.29 1582.24 1292.86 1611.19 1291.43 1647.76 1291.43 1647.76 1291.43 1647.76 1290 1696.52 1295.71 1730.05 1300 1746.81 1302.86 1754.43 1310 1759 1317.14 1755.95 1325.71 1754.43 1330 1745.29 1327.14 1737.67 1325.71 1731.57 1321.43 1710.24 1324.29 1647.76 1325.71 1612.71 1325.71 1612.71 1325.71 1612.71 1327.14 1582.24 1328.57 1553.29 1325.71 1518.24 1324.29 1509.1 1317.14 1503 1310 1504.52Z" stroke="#58585A" stroke-width="4.0106" stroke-linecap="round" stroke-linejoin="round" stroke-miterlimit="10" fill="none" fill-rule="evenodd"/></g></svg>