<svg width="121" height="251" xmlns="http://www.w3.org/2000/svg" xmlns:xlink="http://www.w3.org/1999/xlink" xml:space="preserve" overflow="hidden"><g transform="translate(-1575 -1519)"><path d="M1577 1536.28C1577 1560.73 1578.41 1576.01 1581.24 1605.04 1584.07 1652.4 1584.07 1652.4 1584.07 1652.4 1588.31 1704.35 1581.24 1728.8 1579.83 1741.02 1578.41 1753.25 1584.07 1763.94 1592.55 1765.47 1599.62 1767 1606.69 1760.89 1608.1 1753.25 1609.52 1750.19 1618 1695.19 1613.76 1640.18 1609.52 1601.98 1609.52 1601.98 1609.52 1601.98 1606.69 1572.95 1605.28 1559.2 1605.28 1536.28 1605.28 1527.11 1598.21 1521 1591.14 1521 1582.66 1521 1577 1527.11 1577 1536.28Z" fill="#A9BDD6" fill-rule="evenodd"/><path d="M1605 1548.69C1605 1545.77 1605 1541.38 1605 1537 1595.2 1537 1585.4 1538.46 1577 1541.38 1577 1545.77 1577 1551.62 1577 1556 1582.6 1553.08 1588.2 1551.62 1593.8 1550.15 1598 1550.15 1600.8 1548.69 1605 1548.69Z" fill="#004B7E" fill-rule="evenodd"/><path d="M1606 1571.57C1604.62 1566.86 1604.62 1563.71 1604.62 1559 1596.33 1559 1586.67 1563.71 1579.76 1565.29 1578.38 1565.29 1578.38 1566.86 1577 1566.86 1577 1571.57 1578.38 1574.71 1578.38 1581 1582.52 1577.86 1588.05 1576.29 1592.19 1574.71 1596.33 1573.14 1600.48 1571.57 1606 1571.57Z" fill="#D4DDEA" fill-rule="evenodd"/><path d="M1609 1611C1609 1602 1609 1602 1609 1602 1607.62 1597.5 1607.62 1594.5 1607.62 1590 1606.24 1590 1604.86 1590 1603.48 1591.5 1597.95 1591.5 1591.05 1593 1585.52 1596 1584.14 1596 1581.38 1597.5 1580 1599 1581.38 1600.5 1581.38 1602 1581.38 1605 1581.38 1617 1581.38 1617 1581.38 1617 1589.67 1614 1597.95 1612.5 1607.62 1611 1607.62 1611 1609 1611 1609 1611Z" fill="#467FAC" fill-rule="evenodd"/><path d="M1614 1643C1614 1641.5 1614 1641.5 1614 1640 1612.55 1626.5 1612.55 1626.5 1612.55 1626.5 1606.73 1625 1595.09 1628 1590.73 1629.5 1587.82 1631 1584.91 1631 1582 1632.5 1582 1649 1582 1649 1582 1649 1592.18 1644.5 1603.82 1643 1614 1643Z" fill="#004B7E" fill-rule="evenodd"/><path d="M1595 1680.47C1592.14 1680.47 1587.86 1681.94 1585 1683.41 1585 1690.76 1585 1696.65 1585 1702.53 1590.71 1701.06 1597.86 1701.06 1605 1702.53 1607.86 1702.53 1610.71 1704 1613.57 1704 1613.57 1696.65 1615 1689.29 1615 1680.47 1607.86 1679 1599.29 1680.47 1595 1680.47Z" fill="#004B7E" fill-rule="evenodd"/><path d="M1612.55 1729C1612.55 1724.36 1612.55 1719.73 1614 1713.55 1608.18 1712 1598 1713.55 1593.64 1713.55 1590.73 1713.55 1586.36 1713.55 1583.45 1713.55 1583.45 1718.18 1582 1721.27 1582 1722.82 1592.18 1722.82 1602.36 1724.36 1612.55 1729Z" fill="#D4DDEA" fill-rule="evenodd"/><path d="M1577 1536.28C1577 1560.73 1578.41 1576.01 1581.24 1605.04 1584.07 1652.4 1584.07 1652.4 1584.07 1652.4 1588.31 1704.35 1581.24 1728.8 1579.83 1741.02 1578.41 1753.25 1584.07 1763.94 1592.55 1765.47 1599.62 1767 1606.69 1760.89 1608.1 1753.25 1609.52 1750.19 1618 1695.19 1613.76 1640.18 1609.52 1601.98 1609.52 1601.98 1609.52 1601.98 1606.69 1572.95 1605.28 1559.2 1605.28 1536.28 1605.28 1527.11 1598.21 1521 1591.14 1521 1582.66 1521 1577 1527.11 1577 1536.28Z" stroke="#58585A" stroke-width="4.0106" stroke-linecap="round" stroke-linejoin="round" stroke-miterlimit="10" fill="none" fill-rule="evenodd"/><path d="M1653.43 1534.78C1652 1559.27 1654.87 1574.58 1657.73 1591.42 1660.6 1608.26 1657.73 1629.69 1659.17 1655.72 1660.6 1707.77 1660.6 1753.69 1660.6 1755.22 1662.03 1761.35 1666.33 1765.94 1672.07 1767.47 1680.67 1769 1687.83 1762.88 1687.83 1753.69 1692.13 1732.26 1695 1704.7 1693.57 1651.12 1692.13 1622.04 1689.27 1602.14 1686.4 1586.83 1683.53 1569.99 1680.67 1556.21 1682.1 1536.31 1682.1 1528.65 1674.93 1521 1667.77 1521 1659.17 1521 1653.43 1527.12 1653.43 1534.78Z" fill="#A9BDD6" fill-rule="evenodd"/><path d="M1686.43 1646C1687.83 1646 1690.61 1647.5 1692 1647.5 1692 1638.5 1692 1631 1690.61 1623.5 1683.65 1622 1671.13 1622 1665.57 1623.5 1664.17 1623.5 1661.39 1623.5 1660 1623.5 1660 1631 1660 1640 1660 1649 1668.35 1647.5 1678.09 1646 1686.43 1646Z" fill="#004B7E" fill-rule="evenodd"/><path d="M1660 1614C1669.86 1611.11 1679.73 1611.11 1691 1611.11 1689.59 1608.22 1689.59 1605.33 1689.59 1602.44 1679.73 1601 1669.86 1602.44 1660 1603.89 1660 1606.78 1660 1611.11 1660 1614Z" fill="#467FAC" fill-rule="evenodd"/><path d="M1654 1563.64C1655.43 1568.27 1655.43 1572.91 1655.43 1576 1661.14 1576 1665.43 1574.45 1671.14 1574.45 1675.43 1574.45 1679.71 1574.45 1684 1576 1684 1569.82 1682.57 1565.18 1682.57 1560.55 1672.57 1559 1664 1562.09 1654 1563.64Z" fill="#D4DDEA" fill-rule="evenodd"/><path d="M1681.52 1546C1681.52 1542.87 1681.52 1539.75 1683 1536.62 1683 1528.81 1675.62 1521 1668.24 1521 1659.38 1521 1653.48 1527.25 1653.48 1535.06 1652 1539.75 1652 1542.87 1653.48 1546 1662.33 1544.44 1672.67 1544.44 1681.52 1546Z" fill="#004B7E" fill-rule="evenodd"/><path d="M1660 1698.5C1661.42 1707.5 1661.42 1713.5 1661.42 1721 1671.33 1718 1682.67 1716.5 1692.58 1718 1692.58 1712 1692.58 1704.5 1694 1697 1686.92 1697 1679.83 1697 1675.58 1697 1669.92 1697 1665.67 1698.5 1660 1698.5Z" fill="#004B7E" fill-rule="evenodd"/><path d="M1661 1746C1671 1742.91 1681 1739.82 1689.57 1742.91 1691 1739.82 1691 1735.18 1691 1732.09 1682.43 1729 1671 1732.09 1661 1733.64 1661 1738.27 1661 1742.91 1661 1746Z" fill="#D4DDEA" fill-rule="evenodd"/><path d="M1653.43 1534.78C1652 1559.27 1654.87 1574.58 1657.73 1591.42 1660.6 1608.26 1657.73 1629.69 1659.17 1655.72 1660.6 1707.77 1660.6 1753.69 1660.6 1755.22 1662.03 1761.35 1666.33 1765.94 1672.07 1767.47 1680.67 1769 1687.83 1762.88 1687.83 1753.69 1692.13 1732.26 1695 1704.7 1693.57 1651.12 1692.13 1622.04 1689.27 1602.14 1686.4 1586.83 1683.53 1569.99 1680.67 1556.21 1682.1 1536.31 1682.1 1528.65 1674.93 1521 1667.77 1521 1659.17 1521 1653.43 1527.12 1653.43 1534.78Z" stroke="#58585A" stroke-width="4.0106" stroke-linecap="round" stroke-linejoin="round" stroke-miterlimit="10" fill="none" fill-rule="evenodd"/></g></svg>