<svg width="42" height="258" xmlns="http://www.w3.org/2000/svg" xmlns:xlink="http://www.w3.org/1999/xlink" xml:space="preserve" overflow="hidden"><g transform="translate(-2038 -1510)"><path d="M2065 1542.13C2060.67 1525.3 2054.89 1510 2044.78 1513.06 2040.44 1516.12 2040.44 1519.18 2040.44 1525.3 2040.44 1551.3 2040.44 1565.07 2041.89 1581.9 2043.33 1598.73 2046.22 1615.55 2046.22 1647.68 2046.22 1707.34 2040.44 1747.11 2040.44 1747.11 2039 1756.29 2044.78 1763.94 2052 1765.47 2060.67 1767 2067.89 1760.88 2067.89 1751.7 2069.33 1750.17 2078 1707.34 2078 1644.62 2078 1610.96 2069.33 1555.89 2065 1542.13Z" fill="#A9BDD6" fill-rule="evenodd"/><path d="M2072 1732C2069.18 1732 2066.36 1732 2063.55 1732 2056.5 1732 2049.45 1732 2042.41 1732 2041 1741.27 2041 1745.91 2041 1747.45 2050.86 1747.45 2059.32 1747.45 2069.18 1749 2069.18 1744.36 2070.59 1739.73 2072 1732Z" fill="#D4DDEA" fill-rule="evenodd"/><path d="M2076 1694C2073.22 1694 2071.83 1694 2069.04 1694 2060.7 1694 2053.74 1695.54 2045.39 1697.08 2045.39 1703.23 2044 1707.85 2044 1712.46 2049.57 1712.46 2056.52 1710.92 2063.48 1712.46 2066.26 1712.46 2070.43 1712.46 2073.22 1714 2074.61 1707.85 2074.61 1701.69 2076 1694Z" fill="#004B7E" fill-rule="evenodd"/><path d="M2060.78 1670.47C2066.52 1670.47 2072.26 1670.47 2076.57 1672 2078 1662.84 2078 1653.68 2078 1644.53 2078 1644.53 2078 1644.53 2078 1643 2075.13 1643 2073.7 1643 2072.26 1643 2063.65 1643 2055.04 1646.05 2046.43 1647.58 2046.43 1656.74 2045 1664.37 2045 1672 2050.74 1670.47 2056.48 1668.95 2060.78 1670.47Z" fill="#004B7E" fill-rule="evenodd"/><path d="M2078 1629.38C2076.57 1624.77 2076.57 1620.15 2076.57 1615.54 2066.52 1614 2055.04 1615.54 2045 1618.62 2045 1623.23 2045 1629.38 2045 1634 2055.04 1630.92 2063.65 1629.38 2073.7 1629.38 2073.7 1629.38 2075.13 1629.38 2078 1629.38Z" fill="#467FAC" fill-rule="evenodd"/><path d="M2072.18 1578C2069.36 1579.53 2066.55 1579.53 2066.55 1579.53 2058.09 1581.07 2051.05 1582.6 2044 1585.67 2044 1585.67 2044 1585.67 2044 1585.67 2044 1590.27 2044 1594.87 2045.41 1601 2053.86 1597.93 2065.14 1599.47 2075 1597.93 2073.59 1591.8 2072.18 1584.13 2072.18 1578Z" fill="#D4DDEA" fill-rule="evenodd"/><path d="M2069 1559.18C2067.6 1556.27 2067.6 1551.91 2066.2 1549 2057.8 1550.45 2049.4 1553.36 2041 1556.27 2041 1559.18 2041 1562.09 2042.4 1565 2048 1563.55 2053.6 1560.64 2060.6 1560.64 2063.4 1559.18 2066.2 1559.18 2069 1559.18Z" fill="#467FAC" fill-rule="evenodd"/><path d="M2065 1542.13C2060.67 1525.3 2054.89 1510 2044.78 1513.06 2040.44 1516.12 2040.44 1519.18 2040.44 1525.3 2040.44 1551.3 2040.44 1565.07 2041.89 1581.9 2043.33 1598.73 2046.22 1615.55 2046.22 1647.68 2046.22 1707.34 2040.44 1747.11 2040.44 1747.11 2039 1756.29 2044.78 1763.94 2052 1765.47 2060.67 1767 2067.89 1760.88 2067.89 1751.7 2069.33 1750.17 2078 1707.34 2078 1644.62 2078 1610.96 2069.33 1555.89 2065 1542.13Z" stroke="#58585A" stroke-width="4.0106" stroke-linecap="round" stroke-linejoin="round" stroke-miterlimit="10" fill="none" fill-rule="evenodd"/></g></svg>