<svg width="91" height="232" xmlns="http://www.w3.org/2000/svg" xmlns:xlink="http://www.w3.org/1999/xlink" xml:space="preserve" overflow="hidden"><g transform="translate(-1911 -1537)"><path d="M1916.27 1545.63C1912 1553.27 1913.42 1562.43 1919.11 1567.01 1941.86 1583.8 1941.86 1583.8 1941.86 1583.8 1958.92 1594.49 1964.61 1599.07 1967.45 1621.97 1968.88 1641.81 1961.77 1678.45 1960.34 1704.41 1958.92 1727.31 1953.23 1762.42 1975.98 1767 1984.52 1767 1993.05 1757.84 1993.05 1750.21 1994.47 1736.47 2003 1657.08 1998.73 1614.33 1994.47 1576.17 1975.98 1570.06 1957.5 1557.85 1937.59 1542.58 1937.59 1542.58 1937.59 1542.58 1930.48 1538 1920.53 1539.53 1916.27 1545.63Z" fill="#A9BDD6" fill-rule="evenodd"/><path d="M1936.94 1542C1929.88 1549.62 1924.24 1557.24 1920 1566.38 1931.29 1574 1931.29 1574 1931.29 1574 1931.29 1570.95 1934.12 1567.9 1934.12 1566.38 1936.94 1558.76 1939.76 1552.67 1944 1548.1L1936.94 1542Z" fill="#D4DDEA" fill-rule="evenodd"/><path d="M1987 1582.26C1981.27 1573.15 1971.23 1567.07 1962.63 1561 1955.47 1568.59 1948.3 1576.19 1944 1585.3 1944 1585.3 1944 1585.3 1944 1585.3 1952.6 1591.37 1958.33 1594.41 1961.2 1602 1965.5 1597.44 1971.23 1592.89 1976.97 1588.33 1979.83 1586.81 1984.13 1583.78 1987 1582.26Z" fill="#004B7E" fill-rule="evenodd"/><path d="M1966 1616.15C1966 1617.7 1966 1619.25 1967.43 1622.35 1967.43 1623.9 1967.43 1625.45 1967.43 1627 1973.17 1623.9 1978.91 1620.8 1984.65 1620.8 1988.96 1619.25 1993.26 1619.25 1999 1619.25 1999 1617.7 1999 1616.15 1999 1614.6 1997.57 1606.85 1996.13 1600.65 1994.7 1596 1991.83 1597.55 1987.52 1600.65 1986.09 1600.65 1978.91 1605.3 1973.17 1609.95 1966 1616.15Z" fill="#467FAC" fill-rule="evenodd"/><path d="M1987.85 1667.96C1992.23 1667.96 1995.15 1669.48 1999.54 1671 1999.54 1658.83 2001 1648.17 1999.54 1636 1995.15 1636 1989.31 1637.52 1986.38 1637.52 1980.54 1639.04 1973.23 1639.04 1967.38 1640.57 1967.38 1640.57 1967.38 1640.57 1967.38 1640.57 1965.92 1649.7 1964.46 1658.83 1963 1669.48 1971.77 1667.96 1979.08 1667.96 1987.85 1667.96Z" fill="#004B7E" fill-rule="evenodd"/><path d="M1998 1703.5C1990.78 1702 1983.56 1703.5 1979.22 1702 1973.44 1702 1966.22 1702 1960.44 1702 1960.44 1703.5 1960.44 1705 1960.44 1705 1960.44 1712.5 1959 1720 1959 1726 1964.78 1724.5 1972 1723 1977.78 1723 1983.56 1723 1990.78 1723 1996.56 1724.5 1996.56 1718.5 1998 1711 1998 1703.5Z" fill="#004B7E" fill-rule="evenodd"/><path d="M1916.27 1545.63C1912 1553.27 1913.42 1562.43 1919.11 1567.01 1941.86 1583.8 1941.86 1583.8 1941.86 1583.8 1958.92 1594.49 1964.61 1599.07 1967.45 1621.97 1968.88 1641.81 1961.77 1678.45 1960.34 1704.41 1958.92 1727.31 1953.23 1762.42 1975.98 1767 1984.52 1767 1993.05 1757.84 1993.05 1750.21 1994.47 1736.47 2003 1657.08 1998.73 1614.33 1994.47 1576.17 1975.98 1570.06 1957.5 1557.85 1937.59 1542.58 1937.59 1542.58 1937.59 1542.58 1930.48 1538 1920.53 1539.53 1916.27 1545.63Z" stroke="#58585A" stroke-width="4.0106" stroke-linecap="round" stroke-linejoin="round" stroke-miterlimit="10" fill="none" fill-rule="evenodd"/></g></svg>