<svg width="169" height="259" xmlns="http://www.w3.org/2000/svg" xmlns:xlink="http://www.w3.org/1999/xlink" xml:space="preserve" overflow="hidden"><g transform="translate(-1911 -1510)"><path d="M2065 1542.13C2060.67 1525.3 2054.89 1510 2044.78 1513.06 2040.44 1516.12 2040.44 1519.18 2040.44 1525.3 2040.44 1551.3 2040.44 1565.07 2041.89 1581.9 2043.33 1598.73 2046.22 1615.55 2046.22 1647.68 2046.22 1707.34 2040.44 1747.11 2040.44 1747.11 2039 1756.29 2044.78 1763.94 2052 1765.47 2060.67 1767 2067.89 1760.88 2067.89 1751.7 2069.33 1750.17 2078 1707.34 2078 1644.62 2078 1610.96 2069.33 1555.89 2065 1542.13Z" fill="#A9BDD6" fill-rule="evenodd"/><path d="M2072 1732C2069.18 1732 2066.36 1732 2063.55 1732 2056.5 1732 2049.45 1732 2042.41 1732 2041 1741.27 2041 1745.91 2041 1747.45 2050.86 1747.45 2059.32 1747.45 2069.18 1749 2069.18 1744.36 2070.59 1739.73 2072 1732Z" fill="#D4DDEA" fill-rule="evenodd"/><path d="M2076 1694C2073.22 1694 2071.83 1694 2069.04 1694 2060.7 1694 2053.74 1695.54 2045.39 1697.08 2045.39 1703.23 2044 1707.85 2044 1712.46 2049.57 1712.46 2056.52 1710.92 2063.48 1712.46 2066.26 1712.46 2070.43 1712.46 2073.22 1714 2074.61 1707.85 2074.61 1701.69 2076 1694Z" fill="#004B7E" fill-rule="evenodd"/><path d="M2060.78 1670.47C2066.52 1670.47 2072.26 1670.47 2076.57 1672 2078 1662.84 2078 1653.68 2078 1644.53 2078 1644.53 2078 1644.53 2078 1643 2075.13 1643 2073.7 1643 2072.26 1643 2063.65 1643 2055.04 1646.05 2046.43 1647.58 2046.43 1656.74 2045 1664.37 2045 1672 2050.74 1670.47 2056.48 1668.95 2060.78 1670.47Z" fill="#004B7E" fill-rule="evenodd"/><path d="M2078 1629.38C2076.57 1624.77 2076.57 1620.15 2076.57 1615.54 2066.52 1614 2055.04 1615.54 2045 1618.62 2045 1623.23 2045 1629.38 2045 1634 2055.04 1630.92 2063.65 1629.38 2073.7 1629.38 2073.7 1629.38 2075.13 1629.38 2078 1629.38Z" fill="#467FAC" fill-rule="evenodd"/><path d="M2072.18 1578C2069.36 1579.53 2066.55 1579.53 2066.55 1579.53 2058.09 1581.07 2051.05 1582.6 2044 1585.67 2044 1585.67 2044 1585.67 2044 1585.67 2044 1590.27 2044 1594.87 2045.41 1601 2053.86 1597.93 2065.14 1599.47 2075 1597.93 2073.59 1591.8 2072.18 1584.13 2072.18 1578Z" fill="#D4DDEA" fill-rule="evenodd"/><path d="M2069 1559.18C2067.6 1556.27 2067.6 1551.91 2066.2 1549 2057.8 1550.45 2049.4 1553.36 2041 1556.27 2041 1559.18 2041 1562.09 2042.4 1565 2048 1563.55 2053.6 1560.64 2060.6 1560.64 2063.4 1559.18 2066.2 1559.18 2069 1559.18Z" fill="#467FAC" fill-rule="evenodd"/><path d="M2065 1542.13C2060.67 1525.3 2054.89 1510 2044.78 1513.06 2040.44 1516.12 2040.44 1519.18 2040.44 1525.3 2040.44 1551.3 2040.44 1565.07 2041.89 1581.9 2043.33 1598.73 2046.22 1615.55 2046.22 1647.68 2046.22 1707.34 2040.44 1747.11 2040.44 1747.11 2039 1756.29 2044.78 1763.94 2052 1765.47 2060.67 1767 2067.89 1760.88 2067.89 1751.7 2069.33 1750.17 2078 1707.34 2078 1644.62 2078 1610.96 2069.33 1555.89 2065 1542.13Z" stroke="#58585A" stroke-width="4.0106" stroke-linecap="round" stroke-linejoin="round" stroke-miterlimit="10" fill="none" fill-rule="evenodd"/><path d="M1916.27 1545.63C1912 1553.27 1913.42 1562.43 1919.11 1567.01 1941.86 1583.8 1941.86 1583.8 1941.86 1583.8 1958.92 1594.49 1964.61 1599.07 1967.45 1621.97 1968.88 1641.81 1961.77 1678.45 1960.34 1704.41 1958.92 1727.31 1953.23 1762.42 1975.98 1767 1984.52 1767 1993.05 1757.84 1993.05 1750.21 1994.47 1736.47 2003 1657.08 1998.73 1614.33 1994.47 1576.17 1975.98 1570.06 1957.5 1557.85 1937.59 1542.58 1937.59 1542.58 1937.59 1542.58 1930.48 1538 1920.53 1539.53 1916.27 1545.63Z" fill="#A9BDD6" fill-rule="evenodd"/><path d="M1936.94 1542C1929.88 1549.62 1924.24 1557.24 1920 1566.38 1931.29 1574 1931.29 1574 1931.29 1574 1931.29 1570.95 1934.12 1567.9 1934.12 1566.38 1936.94 1558.76 1939.76 1552.67 1944 1548.1L1936.94 1542Z" fill="#D4DDEA" fill-rule="evenodd"/><path d="M1987 1582.26C1981.27 1573.15 1971.23 1567.07 1962.63 1561 1955.47 1568.59 1948.3 1576.19 1944 1585.3 1944 1585.3 1944 1585.3 1944 1585.3 1952.6 1591.37 1958.33 1594.41 1961.2 1602 1965.5 1597.44 1971.23 1592.89 1976.97 1588.33 1979.83 1586.81 1984.13 1583.78 1987 1582.26Z" fill="#004B7E" fill-rule="evenodd"/><path d="M1966 1616.15C1966 1617.7 1966 1619.25 1967.43 1622.35 1967.43 1623.9 1967.43 1625.45 1967.43 1627 1973.17 1623.9 1978.91 1620.8 1984.65 1620.8 1988.96 1619.25 1993.26 1619.25 1999 1619.25 1999 1617.7 1999 1616.15 1999 1614.6 1997.57 1606.85 1996.13 1600.65 1994.7 1596 1991.83 1597.55 1987.52 1600.65 1986.09 1600.65 1978.91 1605.3 1973.17 1609.95 1966 1616.15Z" fill="#467FAC" fill-rule="evenodd"/><path d="M1987.85 1667.96C1992.23 1667.96 1995.15 1669.48 1999.54 1671 1999.54 1658.83 2001 1648.17 1999.54 1636 1995.15 1636 1989.31 1637.52 1986.38 1637.52 1980.54 1639.04 1973.23 1639.04 1967.38 1640.57 1967.38 1640.57 1967.38 1640.57 1967.38 1640.57 1965.92 1649.7 1964.46 1658.83 1963 1669.48 1971.77 1667.96 1979.08 1667.96 1987.85 1667.96Z" fill="#004B7E" fill-rule="evenodd"/><path d="M1998 1703.5C1990.78 1702 1983.56 1703.5 1979.22 1702 1973.44 1702 1966.22 1702 1960.44 1702 1960.44 1703.5 1960.44 1705 1960.44 1705 1960.44 1712.5 1959 1720 1959 1726 1964.78 1724.5 1972 1723 1977.78 1723 1983.56 1723 1990.78 1723 1996.56 1724.5 1996.56 1718.5 1998 1711 1998 1703.5Z" fill="#004B7E" fill-rule="evenodd"/><path d="M1916.27 1545.63C1912 1553.27 1913.42 1562.43 1919.11 1567.01 1941.86 1583.8 1941.86 1583.8 1941.86 1583.8 1958.92 1594.49 1964.61 1599.07 1967.45 1621.97 1968.88 1641.81 1961.77 1678.45 1960.34 1704.41 1958.92 1727.31 1953.23 1762.42 1975.98 1767 1984.52 1767 1993.05 1757.84 1993.05 1750.21 1994.47 1736.47 2003 1657.08 1998.73 1614.33 1994.47 1576.17 1975.98 1570.06 1957.5 1557.85 1937.59 1542.58 1937.59 1542.58 1937.59 1542.58 1930.48 1538 1920.53 1539.53 1916.27 1545.63Z" stroke="#58585A" stroke-width="4.0106" stroke-linecap="round" stroke-linejoin="round" stroke-miterlimit="10" fill="none" fill-rule="evenodd"/></g></svg>