<svg width="39" height="217" xmlns="http://www.w3.org/2000/svg" xmlns:xlink="http://www.w3.org/1999/xlink" xml:space="preserve" overflow="hidden"><g transform="translate(-2412 -1540)"><path d="M2424.43 1542.53C2417.29 1544.06 2413 1553.23 2414.43 1560.87 2418.71 1579.21 2415.86 1608.26 2415.86 1637.3 2415.86 1680.1 2418.71 1724.43 2417.29 1738.19 2415.86 1745.83 2421.57 1753.47 2428.71 1755 2437.29 1755 2444.43 1750.41 2444.43 1741.24 2447.29 1719.84 2453 1605.2 2441.57 1554.76 2440.14 1545.59 2433 1541 2424.43 1542.53Z" fill="#A9BDD6" fill-rule="evenodd"/><path d="M2418 1712.08C2418 1718.23 2418 1724.38 2418 1729 2425.14 1729 2432.29 1729 2439.43 1729 2440.86 1729 2443.71 1729 2446.57 1729 2446.57 1724.38 2448 1719.77 2448 1712.08 2439.43 1709 2428 1709 2418 1712.08Z" fill="#467FAC" fill-rule="evenodd"/><path d="M2447.59 1696.5C2447.59 1692 2449 1689 2449 1684.5 2444.77 1684.5 2440.55 1683 2436.32 1683 2429.27 1684.5 2423.64 1686 2418 1689 2418 1692 2418 1695 2418 1698 2420.82 1696.5 2425.05 1695 2426.45 1695 2433.5 1695 2440.55 1695 2447.59 1696.5Z" fill="#004B7E" fill-rule="evenodd"/><path d="M2444.7 1627C2434.65 1627 2424.61 1628.52 2416 1631.57 2416 1634.62 2416 1636.14 2416 1637.67 2416 1645.29 2416 1652.9 2416 1659 2420.3 1657.48 2424.61 1657.48 2428.91 1657.48 2434.65 1657.48 2441.83 1659 2449 1659 2449 1648.33 2449 1637.67 2449 1627 2446.13 1627 2444.7 1627 2444.7 1627Z" fill="#467FAC" fill-rule="evenodd"/><path d="M2448 1593C2448 1590 2446.55 1587 2446.55 1584 2436.36 1584 2426.18 1585.5 2416 1588.5 2416 1591.5 2416 1594.5 2416 1599 2424.73 1593 2436.36 1593 2448 1593Z" fill="#004B7E" fill-rule="evenodd"/><path d="M2441.57 1554.74C2440.14 1545.58 2433 1541 2424.43 1542.53 2417.29 1544.05 2413 1553.21 2414.43 1560.84 2414.43 1563.89 2414.43 1566.95 2415.86 1570 2423 1565.42 2433 1563.89 2443 1562.37 2443 1559.32 2443 1556.26 2441.57 1554.74Z" fill="#D4DDEA" fill-rule="evenodd"/><path d="M2424.43 1542.53C2417.29 1544.06 2413 1553.23 2414.43 1560.87 2418.71 1579.21 2415.86 1608.26 2415.86 1637.3 2415.86 1680.1 2418.71 1724.43 2417.29 1738.19 2415.86 1745.83 2421.57 1753.47 2428.71 1755 2437.29 1755 2444.43 1750.41 2444.43 1741.24 2447.29 1719.84 2453 1605.2 2441.57 1554.76 2440.14 1545.59 2433 1541 2424.43 1542.53Z" stroke="#58585A" stroke-width="4.0106" stroke-linecap="round" stroke-linejoin="round" stroke-miterlimit="10" fill="none" fill-rule="evenodd"/></g></svg>