<svg width="137" height="217" xmlns="http://www.w3.org/2000/svg" xmlns:xlink="http://www.w3.org/1999/xlink" xml:space="preserve" overflow="hidden"><g transform="translate(-2314 -1540)"><path d="M2424.43 1542.53C2417.29 1544.06 2413 1553.23 2414.43 1560.87 2418.71 1579.21 2415.86 1608.26 2415.86 1637.3 2415.86 1680.1 2418.71 1724.43 2417.29 1738.19 2415.86 1745.83 2421.57 1753.47 2428.71 1755 2437.29 1755 2444.43 1750.41 2444.43 1741.24 2447.29 1719.84 2453 1605.2 2441.57 1554.76 2440.14 1545.59 2433 1541 2424.43 1542.53Z" fill="#A9BDD6" fill-rule="evenodd"/><path d="M2418 1712.08C2418 1718.23 2418 1724.38 2418 1729 2425.14 1729 2432.29 1729 2439.43 1729 2440.86 1729 2443.71 1729 2446.57 1729 2446.57 1724.38 2448 1719.77 2448 1712.08 2439.43 1709 2428 1709 2418 1712.08Z" fill="#467FAC" fill-rule="evenodd"/><path d="M2447.59 1696.5C2447.59 1692 2449 1689 2449 1684.5 2444.77 1684.5 2440.55 1683 2436.32 1683 2429.27 1684.5 2423.64 1686 2418 1689 2418 1692 2418 1695 2418 1698 2420.82 1696.5 2425.05 1695 2426.45 1695 2433.5 1695 2440.55 1695 2447.59 1696.5Z" fill="#004B7E" fill-rule="evenodd"/><path d="M2444.7 1627C2434.65 1627 2424.61 1628.52 2416 1631.57 2416 1634.62 2416 1636.14 2416 1637.67 2416 1645.29 2416 1652.9 2416 1659 2420.3 1657.48 2424.61 1657.48 2428.91 1657.48 2434.65 1657.48 2441.83 1659 2449 1659 2449 1648.33 2449 1637.67 2449 1627 2446.13 1627 2444.7 1627 2444.7 1627Z" fill="#467FAC" fill-rule="evenodd"/><path d="M2448 1593C2448 1590 2446.55 1587 2446.55 1584 2436.36 1584 2426.18 1585.5 2416 1588.5 2416 1591.5 2416 1594.5 2416 1599 2424.73 1593 2436.36 1593 2448 1593Z" fill="#004B7E" fill-rule="evenodd"/><path d="M2441.57 1554.74C2440.14 1545.58 2433 1541 2424.43 1542.53 2417.29 1544.05 2413 1553.21 2414.43 1560.84 2414.43 1563.89 2414.43 1566.95 2415.86 1570 2423 1565.42 2433 1563.89 2443 1562.37 2443 1559.32 2443 1556.26 2441.57 1554.74Z" fill="#D4DDEA" fill-rule="evenodd"/><path d="M2424.43 1542.53C2417.29 1544.06 2413 1553.23 2414.43 1560.87 2418.71 1579.21 2415.86 1608.26 2415.86 1637.3 2415.86 1680.1 2418.71 1724.43 2417.29 1738.19 2415.86 1745.83 2421.57 1753.47 2428.71 1755 2437.29 1755 2444.43 1750.41 2444.43 1741.24 2447.29 1719.84 2453 1605.2 2441.57 1554.76 2440.14 1545.59 2433 1541 2424.43 1542.53Z" stroke="#58585A" stroke-width="4.0106" stroke-linecap="round" stroke-linejoin="round" stroke-miterlimit="10" fill="none" fill-rule="evenodd"/><path d="M2319.22 1559.11C2315 1565.22 2315 1574.39 2319.22 1580.5 2324.86 1585.08 2324.86 1585.08 2324.86 1585.08 2348.8 1612.57 2345.98 1617.16 2345.98 1633.96 2344.57 1638.54 2341.76 1644.65 2338.94 1650.76 2329.08 1667.57 2326.27 1690.48 2331.9 1731.72 2331.9 1740.89 2338.94 1747 2347.39 1745.47 2354.43 1743.94 2360.06 1736.31 2358.65 1728.67 2355.84 1696.59 2362.88 1681.31 2371.33 1667.57 2375.55 1658.4 2381.18 1649.24 2382.59 1635.49 2384 1606.46 2369.92 1591.19 2344.57 1563.69 2340.35 1559.11 2340.35 1559.11 2340.35 1559.11 2334.71 1553 2324.86 1553 2319.22 1559.11Z" fill="#A9BDD6" fill-rule="evenodd"/><path d="M2362.07 1644.55C2354.83 1643 2349.03 1643 2343.24 1643 2343.24 1643 2343.24 1643 2343.24 1643 2341.79 1646.1 2340.34 1647.65 2338.9 1650.75 2337.45 1652.3 2337.45 1653.85 2336 1655.4 2344.69 1658.5 2353.38 1663.15 2360.62 1669.35 2363.52 1670.9 2366.41 1672.45 2369.31 1674 2369.31 1672.45 2370.76 1669.35 2372.21 1667.8 2373.66 1664.7 2375.1 1660.05 2378 1656.95 2373.66 1652.3 2367.86 1647.65 2362.07 1644.55Z" fill="#467FAC" fill-rule="evenodd"/><path d="M2377.68 1606C2373.36 1607.59 2370.48 1609.18 2367.6 1610.76 2360.4 1613.94 2353.2 1618.71 2346 1621.88 2346 1625.06 2346 1628.24 2346 1633 2353.2 1629.82 2361.84 1628.24 2370.48 1626.65 2373.36 1626.65 2377.68 1625.06 2382 1625.06 2382 1618.71 2380.56 1612.35 2377.68 1606Z" fill="#004B7E" fill-rule="evenodd"/><path d="M2344.36 1563.52C2341.45 1562 2341.45 1562 2341.45 1562 2341.45 1562 2341.45 1562 2340 1563.52 2334.18 1569.61 2328.36 1578.74 2324 1584.83 2328.36 1589.39 2331.27 1593.96 2334.18 1597 2341.45 1589.39 2347.27 1580.26 2356 1575.7 2353.09 1572.65 2348.73 1568.09 2344.36 1563.52Z" fill="#D4DDEA" fill-rule="evenodd"/><path d="M2341.68 1686C2337.45 1684.5 2333.23 1683 2329 1683 2329 1687.5 2329 1690.5 2329 1695 2333.23 1693.5 2337.45 1695 2343.09 1696.5 2348.73 1699.5 2354.36 1701 2358.59 1704 2358.59 1701 2360 1698 2360 1695 2354.36 1692 2347.32 1689 2341.68 1686Z" fill="#004B7E" fill-rule="evenodd"/><path d="M2319.22 1559.11C2315 1565.22 2315 1574.39 2319.22 1580.5 2324.86 1585.08 2324.86 1585.08 2324.86 1585.08 2348.8 1612.57 2345.98 1617.16 2345.98 1633.96 2344.57 1638.54 2341.76 1644.65 2338.94 1650.76 2329.08 1667.57 2326.27 1690.48 2331.9 1731.72 2331.9 1740.89 2338.94 1747 2347.39 1745.47 2354.43 1743.94 2360.06 1736.31 2358.65 1728.67 2355.84 1696.59 2362.88 1681.31 2371.33 1667.57 2375.55 1658.4 2381.18 1649.24 2382.59 1635.49 2384 1606.46 2369.92 1591.19 2344.57 1563.69 2340.35 1559.11 2340.35 1559.11 2340.35 1559.11 2334.71 1553 2324.86 1553 2319.22 1559.11Z" stroke="#58585A" stroke-width="4.0106" stroke-linecap="round" stroke-linejoin="round" stroke-miterlimit="10" fill="none" fill-rule="evenodd"/></g></svg>