<svg width="48" height="213" xmlns="http://www.w3.org/2000/svg" xmlns:xlink="http://www.w3.org/1999/xlink" xml:space="preserve" overflow="hidden"><g transform="translate(-2687 -1551)"><path d="M2699.53 1555.6C2692.32 1558.66 2688 1567.86 2690.88 1575.52 2698.09 1593.91 2696.65 1624.55 2696.65 1658.27 2696.65 1684.32 2700.97 1710.37 2692.32 1742.55 2689.44 1751.74 2695.21 1759.4 2702.41 1760.94 2709.62 1764 2718.26 1759.4 2719.71 1751.74 2737 1682.78 2737 1610.76 2718.26 1563.26 2715.38 1555.6 2706.74 1551 2699.53 1555.6Z" fill="#A9BDD6" fill-rule="evenodd"/><path d="M2702.5 1734C2709.58 1734 2716.67 1734 2723.75 1734 2725.17 1726.22 2726.58 1716.89 2728 1709.11 2726.58 1709.11 2725.17 1707.56 2723.75 1707.56 2713.83 1706 2705.33 1706 2696.83 1707.56 2696.83 1716.89 2696.83 1724.67 2694 1734 2696.83 1734 2699.67 1734 2702.5 1734Z" fill="#004B7E" fill-rule="evenodd"/><path d="M2731 1681.5C2719.67 1680 2708.33 1680 2697 1681.5 2697 1684.5 2697 1689 2697 1692 2706.92 1689 2715.42 1689 2725.33 1690.5 2726.75 1690.5 2729.58 1692 2731 1692 2731 1687.5 2731 1684.5 2731 1681.5 2731 1681.5 2731 1681.5 2731 1681.5Z" fill="#D4DDEA" fill-rule="evenodd"/><path d="M2718.55 1563.4C2715.64 1555.65 2706.91 1551 2699.64 1555.65 2692.36 1558.75 2688 1568.05 2690.91 1575.8 2692.36 1577.35 2692.36 1580.45 2693.82 1582 2696.73 1580.45 2699.64 1577.35 2702.55 1575.8 2708.36 1572.7 2714.18 1571.15 2720 1569.6 2720 1568.05 2718.55 1564.95 2718.55 1563.4Z" fill="#467FAC" fill-rule="evenodd"/><path d="M2728 1599C2726.61 1591.5 2725.22 1585.5 2723.83 1581 2714.09 1584 2704.35 1588.5 2696 1594.5 2697.39 1600.5 2697.39 1606.5 2697.39 1614 2704.35 1608 2712.7 1603.5 2719.65 1600.5 2722.43 1599 2725.22 1599 2728 1599Z" fill="#004B7E" fill-rule="evenodd"/><path d="M2733 1661C2733 1650.33 2733 1639.67 2731.56 1629 2728.68 1629 2725.8 1630.52 2724.36 1630.52 2717.16 1632.05 2709.96 1632.05 2704.2 1633.57 2701.32 1635.1 2699.88 1636.62 2697 1636.62 2697 1644.24 2697 1650.33 2697 1657.95 2697 1659.48 2697 1659.48 2697 1661 2708.52 1659.48 2721.48 1659.48 2733 1661Z" fill="#467FAC" fill-rule="evenodd"/><path d="M2699.53 1555.6C2692.32 1558.66 2688 1567.86 2690.88 1575.52 2698.09 1593.91 2696.65 1624.55 2696.65 1658.27 2696.65 1684.32 2700.97 1710.37 2692.32 1742.55 2689.44 1751.74 2695.21 1759.4 2702.41 1760.94 2709.62 1764 2718.26 1759.4 2719.71 1751.74 2737 1682.78 2737 1610.76 2718.26 1563.26 2715.38 1555.6 2706.74 1551 2699.53 1555.6Z" stroke="#58585A" stroke-width="4.0106" stroke-linecap="round" stroke-linejoin="round" stroke-miterlimit="10" fill="none" fill-rule="evenodd"/></g></svg>