<svg width="44" height="184" xmlns="http://www.w3.org/2000/svg" xmlns:xlink="http://www.w3.org/1999/xlink" xml:space="preserve" overflow="hidden"><g transform="translate(-3137 -1578)"><path d="M3148.35 1594.29C3146.94 1621.82 3146.94 1621.82 3146.94 1621.82 3145.52 1631 3142.68 1638.65 3141.26 1647.82 3138.42 1679.94 3137 1713.59 3151.19 1750.29 3154.03 1757.94 3162.55 1761 3169.65 1757.94 3176.74 1754.88 3181 1745.71 3176.74 1738.06 3162.55 1699.82 3168.23 1663.12 3173.9 1624.88 3176.74 1597.35 3176.74 1597.35 3176.74 1597.35 3178.16 1589.71 3172.48 1582.06 3165.39 1580.53 3156.87 1579 3149.77 1585.12 3148.35 1594.29Z" fill="#A9BDD6" fill-rule="evenodd"/><path d="M3175 1607.62C3166.43 1606 3156.43 1606 3147.86 1607.62 3146.43 1622.15 3146.43 1622.15 3146.43 1622.15 3146.43 1623.77 3146.43 1625.38 3145 1625.38 3149.29 1627 3153.57 1627 3157.86 1627 3162.14 1627 3167.86 1627 3172.14 1627 3172.14 1627 3172.14 1625.38 3173.57 1625.38L3175 1607.62Z" fill="#004B7E" fill-rule="evenodd"/><path d="M3154.09 1642C3149.86 1642 3145.64 1642 3142.82 1643.5 3142.82 1645 3141.41 1646.5 3141.41 1648 3141.41 1652.5 3140 1658.5 3140 1663 3145.64 1663 3151.27 1663 3156.91 1663 3161.14 1663 3163.95 1664.5 3168.18 1666 3168.18 1658.5 3169.59 1651 3171 1643.5 3165.36 1643.5 3158.32 1643.5 3154.09 1642Z" fill="#467FAC" fill-rule="evenodd"/><path d="M3141.4 1711C3147 1707.87 3152.6 1704.75 3158.2 1703.19 3161 1701.62 3165.2 1701.62 3168 1700.06 3168 1695.38 3168 1690.69 3168 1686 3159.6 1686 3148.4 1689.13 3140 1692.25 3140 1698.5 3140 1704.75 3141.4 1711Z" fill="#004B7E" fill-rule="evenodd"/><path d="M3175 1733.19C3173.57 1728.62 3172.14 1724.05 3172.14 1721 3165 1721 3156.43 1727.1 3152.14 1730.14 3150.71 1731.67 3147.86 1733.19 3145 1734.71 3146.43 1739.29 3149.29 1745.38 3150.71 1749.95 3150.71 1749.95 3152.14 1751.48 3152.14 1753 3157.86 1746.9 3163.57 1740.81 3170.71 1736.24 3172.14 1734.71 3173.57 1734.71 3175 1733.19Z" fill="#D4DDEA" fill-rule="evenodd"/><path d="M3148.35 1594.29C3146.94 1621.82 3146.94 1621.82 3146.94 1621.82 3145.52 1631 3142.68 1638.65 3141.26 1647.82 3138.42 1679.94 3137 1713.59 3151.19 1750.29 3154.03 1757.94 3162.55 1761 3169.65 1757.94 3176.74 1754.88 3181 1745.71 3176.74 1738.06 3162.55 1699.82 3168.23 1663.12 3173.9 1624.88 3176.74 1597.35 3176.74 1597.35 3176.74 1597.35 3178.16 1589.71 3172.48 1582.06 3165.39 1580.53 3156.87 1579 3149.77 1585.12 3148.35 1594.29Z" stroke="#58585A" stroke-width="4.0106" stroke-linecap="round" stroke-linejoin="round" stroke-miterlimit="10" fill="none" fill-rule="evenodd"/></g></svg>