<svg width="119" height="193" xmlns="http://www.w3.org/2000/svg" xmlns:xlink="http://www.w3.org/1999/xlink" xml:space="preserve" overflow="hidden"><g transform="translate(-3062 -1578)"><path d="M3065.92 1605.69C3063 1648.29 3064.46 1728.92 3068.83 1756.31 3070.29 1763.91 3077.58 1770 3084.88 1768.48 3093.62 1766.96 3098 1759.35 3098 1750.22 3095.08 1735.01 3093.62 1700.02 3093.62 1665.03 3093.62 1655.9 3089.25 1645.25 3090.71 1637.64 3090.71 1625.47 3093.62 1616.34 3095.08 1608.73 3095.08 1599.61 3089.25 1592 3080.5 1592 3073.21 1592 3065.92 1598.09 3065.92 1605.69Z" fill="#A9BDD6" fill-rule="evenodd"/><path d="M3080.71 1592C3073.57 1592 3066.43 1598 3066.43 1605.5 3066.43 1608.5 3065 1610 3065 1613 3073.57 1611.5 3082.14 1610 3092.14 1610 3092.14 1610 3093.57 1610 3093.57 1610 3093.57 1610 3095 1608.5 3095 1608.5 3095 1599.5 3089.29 1592 3080.71 1592Z" fill="#467FAC" fill-rule="evenodd"/><path d="M3065 1625.45C3065 1629.82 3065 1634.18 3065 1640 3069.26 1638.55 3073.53 1637.09 3077.79 1637.09 3082.05 1635.64 3086.32 1635.64 3090.58 1637.09 3090.58 1637.09 3090.58 1637.09 3090.58 1637.09 3090.58 1632.73 3090.58 1628.36 3092 1624 3083.47 1624 3073.53 1624 3065 1625.45Z" fill="#004B7E" fill-rule="evenodd"/><path d="M3069.35 1654.04C3067.9 1654.04 3066.45 1654.04 3065 1654.04 3065 1666.2 3065 1676.84 3065 1689 3073.7 1687.48 3080.95 1689 3089.65 1689 3091.1 1689 3092.55 1689 3094 1689 3094 1681.4 3094 1672.28 3094 1664.68 3094 1660.12 3092.55 1655.56 3092.55 1651 3083.85 1651 3075.15 1652.52 3069.35 1654.04Z" fill="#467FAC" fill-rule="evenodd"/><path d="M3066.45 1720C3072.25 1718.43 3078.05 1716.86 3085.3 1715.29 3088.2 1715.29 3091.1 1713.71 3094 1713.71 3094 1709 3094 1702.71 3094 1698 3083.85 1698 3075.15 1699.57 3065 1701.14 3065 1707.43 3065 1713.71 3066.45 1720Z" fill="#004B7E" fill-rule="evenodd"/><path d="M3098 1751.5C3098 1751.5 3098 1750 3098 1750 3096.57 1747 3096.57 1742.5 3095.14 1738 3093.71 1738 3090.86 1739.5 3089.43 1739.5 3085.14 1739.5 3080.86 1741 3076.57 1742.5 3073.71 1742.5 3070.86 1742.5 3068 1744 3068 1748.5 3068 1753 3069.43 1756 3069.43 1757.5 3069.43 1759 3070.86 1759 3076.57 1757.5 3082.29 1754.5 3088 1753 3090.86 1753 3093.71 1751.5 3098 1751.5Z" fill="#D4DDEA" fill-rule="evenodd"/><path d="M3065.92 1605.69C3063 1648.29 3064.46 1728.92 3068.83 1756.31 3070.29 1763.91 3077.58 1770 3084.88 1768.48 3093.62 1766.96 3098 1759.35 3098 1750.22 3095.08 1735.01 3093.62 1700.02 3093.62 1665.03 3093.62 1655.9 3089.25 1645.25 3090.71 1637.64 3090.71 1625.47 3093.62 1616.34 3095.08 1608.73 3095.08 1599.61 3089.25 1592 3080.5 1592 3073.21 1592 3065.92 1598.09 3065.92 1605.69Z" stroke="#58585A" stroke-width="4.0106" stroke-linecap="round" stroke-linejoin="round" stroke-miterlimit="10" fill="none" fill-rule="evenodd"/><path d="M3148.35 1594.29C3146.94 1621.82 3146.94 1621.82 3146.94 1621.82 3145.52 1631 3142.68 1638.65 3141.26 1647.82 3138.42 1679.94 3137 1713.59 3151.19 1750.29 3154.03 1757.94 3162.55 1761 3169.65 1757.94 3176.74 1754.88 3181 1745.71 3176.74 1738.06 3162.55 1699.82 3168.23 1663.12 3173.9 1624.88 3176.74 1597.35 3176.74 1597.35 3176.74 1597.35 3178.16 1589.71 3172.48 1582.06 3165.39 1580.53 3156.87 1579 3149.77 1585.12 3148.35 1594.29Z" fill="#A9BDD6" fill-rule="evenodd"/><path d="M3175 1607.62C3166.43 1606 3156.43 1606 3147.86 1607.62 3146.43 1622.15 3146.43 1622.15 3146.43 1622.15 3146.43 1623.77 3146.43 1625.38 3145 1625.38 3149.29 1627 3153.57 1627 3157.86 1627 3162.14 1627 3167.86 1627 3172.14 1627 3172.14 1627 3172.14 1625.38 3173.57 1625.38L3175 1607.62Z" fill="#004B7E" fill-rule="evenodd"/><path d="M3154.09 1642C3149.86 1642 3145.64 1642 3142.82 1643.5 3142.82 1645 3141.41 1646.5 3141.41 1648 3141.41 1652.5 3140 1658.5 3140 1663 3145.64 1663 3151.27 1663 3156.91 1663 3161.14 1663 3163.95 1664.5 3168.18 1666 3168.18 1658.5 3169.59 1651 3171 1643.5 3165.36 1643.5 3158.32 1643.5 3154.09 1642Z" fill="#467FAC" fill-rule="evenodd"/><path d="M3141.4 1711C3147 1707.87 3152.6 1704.75 3158.2 1703.19 3161 1701.62 3165.2 1701.62 3168 1700.06 3168 1695.38 3168 1690.69 3168 1686 3159.6 1686 3148.4 1689.13 3140 1692.25 3140 1698.5 3140 1704.75 3141.4 1711Z" fill="#004B7E" fill-rule="evenodd"/><path d="M3175 1733.19C3173.57 1728.62 3172.14 1724.05 3172.14 1721 3165 1721 3156.43 1727.1 3152.14 1730.14 3150.71 1731.67 3147.86 1733.19 3145 1734.71 3146.43 1739.29 3149.29 1745.38 3150.71 1749.95 3150.71 1749.95 3152.14 1751.48 3152.14 1753 3157.86 1746.9 3163.57 1740.81 3170.71 1736.24 3172.14 1734.71 3173.57 1734.71 3175 1733.19Z" fill="#D4DDEA" fill-rule="evenodd"/><path d="M3148.35 1594.29C3146.94 1621.82 3146.94 1621.82 3146.94 1621.82 3145.52 1631 3142.68 1638.65 3141.26 1647.82 3138.42 1679.94 3137 1713.59 3151.19 1750.29 3154.03 1757.94 3162.55 1761 3169.65 1757.94 3176.74 1754.88 3181 1745.71 3176.74 1738.06 3162.55 1699.82 3168.23 1663.12 3173.9 1624.88 3176.74 1597.35 3176.74 1597.35 3176.74 1597.35 3178.16 1589.71 3172.48 1582.06 3165.39 1580.53 3156.87 1579 3149.77 1585.12 3148.35 1594.29Z" stroke="#58585A" stroke-width="4.0106" stroke-linecap="round" stroke-linejoin="round" stroke-miterlimit="10" fill="none" fill-rule="evenodd"/></g></svg>