<svg width="47" height="141" xmlns="http://www.w3.org/2000/svg" xmlns:xlink="http://www.w3.org/1999/xlink" xml:space="preserve" overflow="hidden"><g transform="translate(-1217 -1994)"><path d="M1233.18 2011.33C1233.18 2020.53 1230.29 2032.8 1228.85 2045.07 1225.97 2069.6 1213 2089.53 1223.09 2120.2 1227.41 2132.47 1237.5 2134 1244.71 2132.47 1251.91 2129.4 1257.68 2121.73 1254.79 2112.53 1251.91 2097.2 1253.35 2081.87 1257.68 2060.4 1257.68 2052.73 1256.24 2034.33 1257.68 2026.67 1257.68 2020.53 1262 2015.93 1262 2011.33 1262 2002.13 1254.79 1996 1247.59 1996 1238.94 1996 1233.18 2002.13 1233.18 2011.33Z" fill="#A9BDD6" fill-rule="evenodd"/><path d="M1235.25 2049.5C1242.5 2051 1249.75 2052.5 1257 2054 1257 2046.5 1257 2036 1257 2028.5 1248.3 2027 1239.6 2027 1230.9 2028.5 1229.45 2033 1229.45 2039 1228 2045 1228 2046.5 1228 2048 1228 2049.5 1229.45 2049.5 1232.35 2049.5 1235.25 2049.5Z" fill="#467FAC" fill-rule="evenodd"/><path d="M1262 2011.5C1262 2009.88 1260.52 2009.88 1260.52 2008.25 1257.57 2008.25 1253.14 2009.88 1251.67 2008.25 1245.76 2008.25 1238.38 2006.63 1232.48 2005 1232.48 2006.63 1232.48 2009.88 1232.48 2011.5 1232.48 2013.13 1231 2014.75 1231 2018 1239.86 2018 1248.71 2016.38 1256.1 2018 1257.57 2018 1257.57 2018 1260.52 2018 1260.52 2016.38 1262 2013.13 1262 2011.5Z" fill="#467FAC" fill-rule="evenodd"/><path d="M1254 2107.89C1252.6 2100.26 1252.6 2094.16 1252.6 2086.53 1242.8 2085 1230.2 2086.53 1219 2089.58 1219 2097.21 1219 2104.84 1220.4 2114 1226 2110.95 1230.2 2109.42 1233 2109.42 1240 2107.89 1247 2107.89 1254 2107.89Z" fill="#467FAC" fill-rule="evenodd"/><path d="M1233.18 2011.33C1233.18 2020.53 1230.29 2032.8 1228.85 2045.07 1225.97 2069.6 1213 2089.53 1223.09 2120.2 1227.41 2132.47 1237.5 2134 1244.71 2132.47 1251.91 2129.4 1257.68 2121.73 1254.79 2112.53 1251.91 2097.2 1253.35 2081.87 1257.68 2060.4 1257.68 2052.73 1256.24 2034.33 1257.68 2026.67 1257.68 2020.53 1262 2015.93 1262 2011.33 1262 2002.13 1254.79 1996 1247.59 1996 1238.94 1996 1233.18 2002.13 1233.18 2011.33Z" stroke="#58585A" stroke-width="4.0106" stroke-linecap="round" stroke-linejoin="round" stroke-miterlimit="10" fill="none" fill-rule="evenodd"/></g></svg>