<svg width="40" height="142" xmlns="http://www.w3.org/2000/svg" xmlns:xlink="http://www.w3.org/1999/xlink" xml:space="preserve" overflow="hidden"><g transform="translate(-1301 -1988)"><path d="M1320.28 1990.52C1313.08 1992.04 1307.32 1998.13 1308.76 2007.26 1308.76 2017.91 1304.44 2037.7 1303 2055.96 1303 2077.26 1305.88 2097.04 1308.76 2113.78 1308.76 2122.91 1317.4 2129 1324.6 2127.48 1333.24 2125.96 1337.56 2118.35 1336.12 2109.22 1336.12 2103.13 1333.24 2092.48 1333.24 2084.87 1333.24 2074.22 1336.12 2065.09 1336.12 2054.43 1337.56 2034.65 1339 2017.91 1337.56 2004.22 1336.12 1995.09 1328.92 1989 1320.28 1990.52Z" fill="#A9BDD6" fill-rule="evenodd"/><path d="M1337 2041C1328.5 2042.52 1317.17 2045.57 1314.33 2045.57 1310.08 2045.57 1307.25 2047.1 1304.42 2047.1 1303 2050.14 1303 2053.19 1303 2056.24 1303 2060.81 1303 2066.9 1303 2073 1308.67 2071.48 1314.33 2069.95 1320 2068.43 1324.25 2068.43 1329.92 2068.43 1334.17 2068.43 1335.58 2063.86 1335.58 2059.29 1335.58 2054.71 1335.58 2050.14 1337 2045.57 1337 2041Z" fill="#467FAC" fill-rule="evenodd"/><path d="M1337 2018C1327.14 2018 1317.27 2020.91 1307.41 2022.36 1307.41 2025.27 1306 2029.64 1306 2034 1315.86 2032.55 1327.14 2032.55 1337 2031.09 1337 2026.73 1337 2022.36 1337 2018Z" fill="#467FAC" fill-rule="evenodd"/><path d="M1334.55 2097C1325.85 2098.5 1315.7 2101.5 1307 2104.5 1307 2107.5 1307 2110.5 1308.45 2113.5 1308.45 2115 1308.45 2115 1308.45 2115 1315.7 2113.5 1328.75 2112 1336 2109 1336 2106 1334.55 2101.5 1334.55 2097Z" fill="#467FAC" fill-rule="evenodd"/><path d="M1320.28 1990.52C1313.08 1992.04 1307.32 1998.13 1308.76 2007.26 1308.76 2017.91 1304.44 2037.7 1303 2055.96 1303 2077.26 1305.88 2097.04 1308.76 2113.78 1308.76 2122.91 1317.4 2129 1324.6 2127.48 1333.24 2125.96 1337.56 2118.35 1336.12 2109.22 1336.12 2103.13 1333.24 2092.48 1333.24 2084.87 1333.24 2074.22 1336.12 2065.09 1336.12 2054.43 1337.56 2034.65 1339 2017.91 1337.56 2004.22 1336.12 1995.09 1328.92 1989 1320.28 1990.52Z" stroke="#58585A" stroke-width="4.0106" stroke-linecap="round" stroke-linejoin="round" stroke-miterlimit="10" fill="none" fill-rule="evenodd"/></g></svg>