<svg width="124" height="147" xmlns="http://www.w3.org/2000/svg" xmlns:xlink="http://www.w3.org/1999/xlink" xml:space="preserve" overflow="hidden"><g transform="translate(-1217 -1988)"><path d="M1233.18 2011.33C1233.18 2020.53 1230.29 2032.8 1228.85 2045.07 1225.97 2069.6 1213 2089.53 1223.09 2120.2 1227.41 2132.47 1237.5 2134 1244.71 2132.47 1251.91 2129.4 1257.68 2121.73 1254.79 2112.53 1251.91 2097.2 1253.35 2081.87 1257.68 2060.4 1257.68 2052.73 1256.24 2034.33 1257.68 2026.67 1257.68 2020.53 1262 2015.93 1262 2011.33 1262 2002.13 1254.79 1996 1247.59 1996 1238.94 1996 1233.18 2002.13 1233.18 2011.33Z" fill="#A9BDD6" fill-rule="evenodd"/><path d="M1235.25 2049.5C1242.5 2051 1249.75 2052.5 1257 2054 1257 2046.5 1257 2036 1257 2028.5 1248.3 2027 1239.6 2027 1230.9 2028.5 1229.45 2033 1229.45 2039 1228 2045 1228 2046.5 1228 2048 1228 2049.5 1229.45 2049.5 1232.35 2049.5 1235.25 2049.5Z" fill="#467FAC" fill-rule="evenodd"/><path d="M1262 2011.5C1262 2009.88 1260.52 2009.88 1260.52 2008.25 1257.57 2008.25 1253.14 2009.88 1251.67 2008.25 1245.76 2008.25 1238.38 2006.63 1232.48 2005 1232.48 2006.63 1232.48 2009.88 1232.48 2011.5 1232.48 2013.13 1231 2014.75 1231 2018 1239.86 2018 1248.71 2016.38 1256.1 2018 1257.57 2018 1257.57 2018 1260.52 2018 1260.52 2016.38 1262 2013.13 1262 2011.5Z" fill="#467FAC" fill-rule="evenodd"/><path d="M1254 2107.89C1252.6 2100.26 1252.6 2094.16 1252.6 2086.53 1242.8 2085 1230.2 2086.53 1219 2089.58 1219 2097.21 1219 2104.84 1220.4 2114 1226 2110.95 1230.2 2109.42 1233 2109.42 1240 2107.89 1247 2107.89 1254 2107.89Z" fill="#467FAC" fill-rule="evenodd"/><path d="M1233.18 2011.33C1233.18 2020.53 1230.29 2032.8 1228.85 2045.07 1225.97 2069.6 1213 2089.53 1223.09 2120.2 1227.41 2132.47 1237.5 2134 1244.71 2132.47 1251.91 2129.4 1257.68 2121.73 1254.79 2112.53 1251.91 2097.2 1253.35 2081.87 1257.68 2060.4 1257.68 2052.73 1256.24 2034.33 1257.68 2026.67 1257.68 2020.53 1262 2015.93 1262 2011.33 1262 2002.13 1254.79 1996 1247.59 1996 1238.94 1996 1233.18 2002.13 1233.18 2011.33Z" stroke="#58585A" stroke-width="4.0106" stroke-linecap="round" stroke-linejoin="round" stroke-miterlimit="10" fill="none" fill-rule="evenodd"/><path d="M1320.28 1990.52C1313.08 1992.04 1307.32 1998.13 1308.76 2007.26 1308.76 2017.91 1304.44 2037.7 1303 2055.96 1303 2077.26 1305.88 2097.04 1308.76 2113.78 1308.76 2122.91 1317.4 2129 1324.6 2127.48 1333.24 2125.96 1337.56 2118.35 1336.12 2109.22 1336.12 2103.13 1333.24 2092.48 1333.24 2084.87 1333.24 2074.22 1336.12 2065.09 1336.12 2054.43 1337.56 2034.65 1339 2017.91 1337.56 2004.22 1336.12 1995.09 1328.92 1989 1320.28 1990.52Z" fill="#A9BDD6" fill-rule="evenodd"/><path d="M1337 2041C1328.5 2042.52 1317.17 2045.57 1314.33 2045.57 1310.08 2045.57 1307.25 2047.1 1304.42 2047.1 1303 2050.14 1303 2053.19 1303 2056.24 1303 2060.81 1303 2066.9 1303 2073 1308.67 2071.48 1314.33 2069.95 1320 2068.43 1324.25 2068.43 1329.92 2068.43 1334.17 2068.43 1335.58 2063.86 1335.58 2059.29 1335.58 2054.71 1335.58 2050.14 1337 2045.57 1337 2041Z" fill="#467FAC" fill-rule="evenodd"/><path d="M1337 2018C1327.14 2018 1317.27 2020.91 1307.41 2022.36 1307.41 2025.27 1306 2029.64 1306 2034 1315.86 2032.55 1327.14 2032.55 1337 2031.09 1337 2026.73 1337 2022.36 1337 2018Z" fill="#467FAC" fill-rule="evenodd"/><path d="M1334.55 2097C1325.85 2098.5 1315.7 2101.5 1307 2104.5 1307 2107.5 1307 2110.5 1308.45 2113.5 1308.45 2115 1308.45 2115 1308.45 2115 1315.7 2113.5 1328.75 2112 1336 2109 1336 2106 1334.55 2101.5 1334.55 2097Z" fill="#467FAC" fill-rule="evenodd"/><path d="M1320.28 1990.52C1313.08 1992.04 1307.32 1998.13 1308.76 2007.26 1308.76 2017.91 1304.44 2037.7 1303 2055.96 1303 2077.26 1305.88 2097.04 1308.76 2113.78 1308.76 2122.91 1317.4 2129 1324.6 2127.48 1333.24 2125.96 1337.56 2118.35 1336.12 2109.22 1336.12 2103.13 1333.24 2092.48 1333.24 2084.87 1333.24 2074.22 1336.12 2065.09 1336.12 2054.43 1337.56 2034.65 1339 2017.91 1337.56 2004.22 1336.12 1995.09 1328.92 1989 1320.28 1990.52Z" stroke="#58585A" stroke-width="4.0106" stroke-linecap="round" stroke-linejoin="round" stroke-miterlimit="10" fill="none" fill-rule="evenodd"/></g></svg>