<svg width="186" height="359" xmlns="http://www.w3.org/2000/svg" xmlns:xlink="http://www.w3.org/1999/xlink" xml:space="preserve" overflow="hidden"><g transform="translate(-1669 -597)"><path d="M1740.76 602.588C1735.02 608.706 1733.58 617.882 1739.32 624 1759.41 650 1778.07 677.53 1790.98 709.647 1798.16 723.412 1806.77 734.118 1812.51 749.412 1816.82 764.706 1816.82 784.588 1819.69 799.883 1825.43 828.941 1828.3 870.235 1811.08 896.235 1805.34 903.883 1805.34 914.588 1798.16 919.177 1790.98 922.235 1778.07 919.177 1770.89 920.706 1714.92 929.883 1696.27 908.471 1696.27 908.471 1690.53 902.353 1681.92 902.353 1676.18 906.941 1670.43 913.059 1669 922.235 1674.74 928.353 1677.61 932.941 1703.44 962 1775.2 951.294 1786.68 949.765 1795.29 942.118 1803.9 937.53 1816.82 931.412 1826.86 925.294 1834.04 914.588 1857 879.412 1854.13 828.941 1846.95 793.765 1845.52 780 1836.91 767.765 1832.6 754 1828.3 735.647 1826.86 717.294 1818.25 698.941 1803.9 663.765 1783.81 631.647 1760.85 604.118 1755.11 598 1746.5 598 1740.76 602.588Z" fill="#A9BDD6" fill-rule="evenodd"/><path d="M1741 627.762C1745.25 632.333 1749.5 636.905 1753.75 643 1759.42 635.381 1767.92 630.81 1775 623.19 1772.17 620.143 1769.33 615.571 1765.08 611 1758 617.095 1749.5 621.667 1741 627.762Z" fill="#D4DDEA" fill-rule="evenodd"/><path d="M1763 656.261C1767.3 662.348 1770.17 666.913 1773.04 673 1774.48 671.478 1774.48 671.478 1775.91 669.957 1781.65 665.391 1791.7 660.826 1796 654.739 1793.13 648.652 1790.26 642.565 1785.96 638 1778.78 642.565 1771.61 650.174 1763 656.261Z" fill="#004B7E" fill-rule="evenodd"/><path d="M1808.4 678C1807 679.517 1805.6 679.517 1804.2 681.034 1797.2 685.586 1791.6 690.138 1786 696.207 1787.4 700.758 1790.2 705.31 1791.6 709.862 1794.4 714.414 1795.8 718.965 1798.6 722 1801.4 720.483 1805.6 717.448 1808.4 715.931 1811.2 712.896 1816.8 709.862 1821 706.827 1821 703.793 1819.6 702.276 1818.2 699.241 1815.4 693.172 1812.6 685.586 1808.4 678Z" fill="#D4DDEA" fill-rule="evenodd"/><path d="M1825.67 719C1818.44 723.5 1811.22 728 1804 732.5 1806.89 737 1809.78 743 1811.22 749 1814.11 747.5 1815.56 746 1817 744.5 1819.89 743 1824.22 741.5 1830 738.5 1828.56 732.5 1827.11 726.5 1825.67 719Z" fill="#004B7E" fill-rule="evenodd"/><path d="M1843 780C1841.56 775.5 1840.11 771 1838.67 768 1831.44 771 1822.78 774 1817 777 1817 783 1818.44 787.5 1818.44 792 1825.67 790.5 1831.44 787.5 1837.22 783 1838.67 783 1841.56 781.5 1843 780Z" fill="#467FAC" fill-rule="evenodd"/><path d="M1852 827.923C1852 821.769 1852 815.615 1850.55 811 1849.1 811 1847.65 812.538 1846.2 812.538 1838.95 814.077 1830.25 815.615 1823 817.154 1823 821.769 1823 826.384 1824.45 831 1833.15 829.461 1843.3 827.923 1852 827.923Z" fill="#D4DDEA" fill-rule="evenodd"/><path d="M1849.1 858.533C1843.29 858.533 1838.94 857.022 1834.58 855.511 1830.23 855.511 1827.32 854 1824.42 854 1822.97 869.111 1820.06 884.222 1811.35 896.311 1809.9 899.333 1808.45 902.355 1807 905.378 1808.45 906.889 1809.9 908.4 1811.35 908.4 1817.16 912.933 1822.97 917.467 1828.77 922 1831.68 918.978 1833.13 917.467 1834.58 914.444 1846.19 897.822 1850.55 878.178 1852 858.533 1850.55 858.533 1849.1 858.533 1849.1 858.533Z" fill="#467FAC" fill-rule="evenodd"/><path d="M1800 940.636C1798.55 934.454 1795.65 926.727 1792.74 920.545 1786.94 920.545 1776.77 919 1770.97 920.545 1765.16 922.091 1760.81 922.091 1755 922.091 1756.45 926.727 1756.45 931.363 1757.9 936 1757.9 940.636 1757.9 946.818 1759.35 953 1763.71 953 1769.52 951.454 1775.32 951.454 1784.03 949.909 1792.74 945.273 1800 940.636Z" fill="#D4DDEA" fill-rule="evenodd"/><path d="M1743.07 953C1743.07 943.7 1746 932.85 1746 922 1738.67 922 1732.8 922 1726.93 922 1726.93 923.55 1726.93 926.65 1726.93 928.2 1725.47 935.95 1725.47 943.7 1724 951.45 1729.87 953 1735.73 953 1743.07 953Z" fill="#004B7E" fill-rule="evenodd"/><path d="M1694 943.364C1698.29 944.909 1701.14 946.455 1705.43 948 1708.29 937.182 1709.71 927.909 1714 918.636 1711.14 917.091 1706.86 915.546 1705.43 914 1702.57 923.273 1698.29 934.091 1694 943.364Z" fill="#467FAC" fill-rule="evenodd"/><path d="M1740.76 602.588C1735.02 608.706 1733.58 617.882 1739.32 624 1759.41 650 1778.07 677.53 1790.98 709.647 1798.16 723.412 1806.77 734.118 1812.51 749.412 1816.82 764.706 1816.82 784.588 1819.69 799.883 1825.43 828.941 1828.3 870.235 1811.08 896.235 1805.34 903.883 1805.34 914.588 1798.16 919.177 1790.98 922.235 1778.07 919.177 1770.89 920.706 1714.92 929.883 1696.27 908.471 1696.27 908.471 1690.53 902.353 1681.92 902.353 1676.18 906.941 1670.43 913.059 1669 922.235 1674.74 928.353 1677.61 932.941 1703.44 962 1775.2 951.294 1786.68 949.765 1795.29 942.118 1803.9 937.53 1816.82 931.412 1826.86 925.294 1834.04 914.588 1857 879.412 1854.13 828.941 1846.95 793.765 1845.52 780 1836.91 767.765 1832.6 754 1828.3 735.647 1826.86 717.294 1818.25 698.941 1803.9 663.765 1783.81 631.647 1760.85 604.118 1755.11 598 1746.5 598 1740.76 602.588Z" stroke="#58585A" stroke-width="4.0106" stroke-linecap="round" stroke-linejoin="round" stroke-miterlimit="10" fill="none" fill-rule="evenodd"/></g></svg>