<svg width="155" height="365" xmlns="http://www.w3.org/2000/svg" xmlns:xlink="http://www.w3.org/1999/xlink" xml:space="preserve" overflow="hidden"><g transform="translate(-1884 -629)"><path d="M2003.5 633.582C1993.44 641.218 1993.44 641.218 1993.44 641.218 1963.25 661.071 1933.06 680.925 1912.94 711.469 1905.75 722.159 1905.75 735.904 1901.44 751.176 1898.56 760.339 1889.94 771.029 1888.5 783.247 1877 885.569 1921.56 958.875 2016.44 990.946 2025.06 994 2032.25 989.419 2035.13 981.783 2038 974.147 2033.69 964.983 2026.5 961.929 2006.38 955.82 1987.69 946.657 1973.31 935.967 1966.12 929.858 1953.19 925.276 1947.44 919.167 1935.94 906.95 1933.06 893.205 1925.88 877.933 1915.81 851.971 1912.94 821.427 1915.81 786.301 1917.25 774.084 1915.81 761.866 1920.12 752.703 1924.44 742.013 1933.06 734.377 1938.81 726.741 1956.06 702.306 1980.5 685.506 2007.81 667.18 2019.31 659.544 2019.31 659.544 2019.31 659.544 2026.5 654.962 2027.94 645.799 2023.63 639.69 2019.31 632.054 2010.69 629 2003.5 633.582Z" fill="#A9BDD6" fill-rule="evenodd"/><path d="M1997.71 675C2000.53 671.87 2004.76 670.305 2007.59 667.174 2009 665.609 2009 665.609 2009 665.609 2004.76 656.218 2000.53 648.391 1994.88 639 1993.47 640.565 1993.47 640.565 1993.47 640.565 1990.65 642.13 1987.82 645.261 1985 646.826 1989.24 654.652 1993.47 665.609 1997.71 675Z" fill="#467FAC" fill-rule="evenodd"/><path d="M1952 671.652C1957.67 679.261 1961.92 686.87 1966.17 696 1966.17 696 1966.17 696 1966.17 696 1973.25 691.435 1978.92 686.87 1986 682.304 1986 682.304 1986 682.304 1986 680.783 1980.33 673.174 1971.83 668.609 1966.17 661 1966.17 661 1964.75 661 1964.75 661 1960.5 664.044 1956.25 667.087 1952 670.13 1952 670.13 1952 671.652 1952 671.652Z" fill="#004B7E" fill-rule="evenodd"/><path d="M1927 694.5C1928.48 694.5 1931.43 696 1932.91 697.5 1938.83 703.5 1943.26 708 1949.17 714 1952.13 709.5 1956.57 705 1961 702 1959.52 699 1956.57 696 1955.09 693 1950.65 687 1946.22 684 1941.78 678 1937.35 684 1931.43 688.5 1927 694.5Z" fill="#D4DDEA" fill-rule="evenodd"/><path d="M1913.14 712C1908.86 718.095 1907.43 725.714 1906 733.333 1911.71 737.905 1917.43 740.952 1924.57 744 1924.57 744 1924.57 744 1924.57 744 1928.86 739.428 1933.14 734.857 1936 730.286 1933.14 727.238 1928.86 725.714 1927.43 724.19 1921.71 721.143 1917.43 716.571 1913.14 712Z" fill="#467FAC" fill-rule="evenodd"/><path d="M1932.09 890C1924.7 893.059 1917.3 896.118 1911.39 897.647 1909.91 899.176 1906.96 899.176 1904 900.706 1906.96 905.294 1909.91 911.412 1914.35 916 1915.83 914.471 1918.78 912.941 1920.26 911.412 1924.7 909.882 1933.57 906.824 1938 903.765 1935.04 899.176 1933.57 894.588 1932.09 890Z" fill="#004B7E" fill-rule="evenodd"/><path d="M1950.4 947.905C1954.6 943.333 1961.6 937.238 1963 931.143 1963 931.143 1963 929.619 1963 929.619 1958.8 926.571 1954.6 923.524 1950.4 922 1944.8 926.571 1939.2 934.19 1935 941.809 1939.2 944.857 1943.4 949.428 1947.6 954 1949 950.952 1950.4 949.428 1950.4 947.905Z" fill="#004B7E" fill-rule="evenodd"/><path d="M1980.14 941C1974.43 948.609 1967.29 957.739 1963 965.348 1968.71 969.913 1973 972.956 1978.71 976 1981.57 971.435 1984.43 963.826 1985.86 959.261 1988.71 956.217 1990.14 951.652 1993 948.609 1988.71 945.565 1984.43 944.043 1980.14 941Z" fill="#D4DDEA" fill-rule="evenodd"/><path d="M2004.71 954C1999 960.182 1993.29 971 1989 980.273 1994.71 983.364 2000.43 984.909 2006.14 988 2007.57 984.909 2009 980.273 2010.43 977.182 2011.86 971 2016.14 964.818 2019 960.182 2014.71 957.091 2009 955.545 2004.71 954Z" fill="#467FAC" fill-rule="evenodd"/><path d="M2003.5 633.582C1993.44 641.218 1993.44 641.218 1993.44 641.218 1963.25 661.071 1933.06 680.925 1912.94 711.469 1905.75 722.159 1905.75 735.904 1901.44 751.176 1898.56 760.339 1889.94 771.029 1888.5 783.247 1877 885.569 1921.56 958.875 2016.44 990.946 2025.06 994 2032.25 989.419 2035.13 981.783 2038 974.147 2033.69 964.983 2026.5 961.929 2006.38 955.82 1987.69 946.657 1973.31 935.967 1966.12 929.858 1953.19 925.276 1947.44 919.167 1935.94 906.95 1933.06 893.205 1925.88 877.933 1915.81 851.971 1912.94 821.427 1915.81 786.301 1917.25 774.084 1915.81 761.866 1920.12 752.703 1924.44 742.013 1933.06 734.377 1938.81 726.741 1956.06 702.306 1980.5 685.506 2007.81 667.18 2019.31 659.544 2019.31 659.544 2019.31 659.544 2026.5 654.962 2027.94 645.799 2023.63 639.69 2019.31 632.054 2010.69 629 2003.5 633.582Z" stroke="#58585A" stroke-width="4.0106" stroke-linecap="round" stroke-linejoin="round" stroke-miterlimit="10" fill="none" fill-rule="evenodd"/><path d="M1917.2 767C1917.2 762.385 1918.6 757.769 1920 754.692 1914.4 751.615 1908.8 748.538 1903.2 747 1903.2 748.538 1901.8 750.077 1901.8 751.615 1901.8 753.154 1900.4 756.231 1899 759.308 1904.6 762.385 1913 767 1917.2 767Z" fill="#004B7E" fill-rule="evenodd"/><path d="M1916 830.461C1914.57 818.154 1914.57 805.846 1916 792 1910.29 792 1906 792 1903.14 792 1897.43 792 1893.14 792 1887.43 792 1886 805.846 1886 819.692 1887.43 832 1890.29 832 1893.14 832 1896 832 1900.29 830.461 1908.86 830.461 1916 830.461Z" fill="#D4DDEA" fill-rule="evenodd"/><path d="M1893.3 869C1900.48 865.857 1907.65 862.714 1914.83 861.143 1916.26 861.143 1919.13 861.143 1922 861.143 1920.57 856.429 1919.13 851.714 1917.7 847 1917.7 847 1916.26 847 1916.26 847 1907.65 848.571 1897.61 848.571 1889 848.571 1890.43 856.429 1891.87 862.714 1893.3 869Z" fill="#467FAC" fill-rule="evenodd"/></g></svg>