<svg width="39" height="144" xmlns="http://www.w3.org/2000/svg" xmlns:xlink="http://www.w3.org/1999/xlink" xml:space="preserve" overflow="hidden"><g transform="translate(-2021 -1995)"><path d="M2037.65 1997.53C2031.96 2000.58 2029.12 2005.16 2029.12 2011.27 2027.69 2014.32 2024.85 2054.02 2023.42 2076.92 2022 2092.19 2026.27 2119.68 2026.27 2121.2 2026.27 2127.31 2030.54 2133.42 2036.23 2136.47 2043.35 2138 2051.88 2133.42 2053.31 2124.26 2057.58 2105.94 2059 2067.76 2056.15 2037.23 2056.15 2026.54 2059 2015.85 2056.15 2008.22 2053.31 1999.05 2044.77 1996 2037.65 1997.53Z" fill="#A9BDD6" fill-rule="evenodd"/><path d="M2052.33 2092.39C2053.75 2092.39 2056.58 2092.39 2058 2092.39 2058 2080.11 2058 2067.82 2058 2054 2046.67 2054 2036.75 2055.54 2025.42 2055.54 2025.42 2063.21 2024 2070.89 2024 2077.04 2024 2081.64 2024 2087.79 2024 2093.93 2031.08 2097 2045.25 2092.39 2052.33 2092.39Z" fill="#004B7E" fill-rule="evenodd"/><path d="M2058 2013C2047.82 2013 2037.64 2014.53 2027.45 2016.07 2027.45 2020.67 2027.45 2028.33 2026 2036 2036.18 2034.47 2046.36 2032.93 2056.55 2032.93 2056.55 2025.27 2058 2019.13 2058 2013Z" fill="#467FAC" fill-rule="evenodd"/><path d="M2037.65 1997.53C2031.96 2000.58 2029.12 2005.16 2029.12 2011.27 2027.69 2014.32 2024.85 2054.02 2023.42 2076.92 2022 2092.19 2026.27 2119.68 2026.27 2121.2 2026.27 2127.31 2030.54 2133.42 2036.23 2136.47 2043.35 2138 2051.88 2133.42 2053.31 2124.26 2057.58 2105.94 2059 2067.76 2056.15 2037.23 2056.15 2026.54 2059 2015.85 2056.15 2008.22 2053.31 1999.05 2044.77 1996 2037.65 1997.53Z" stroke="#58585A" stroke-width="4.0106" stroke-linecap="round" stroke-linejoin="round" stroke-miterlimit="10" fill="none" fill-rule="evenodd"/></g></svg>