<svg width="39" height="130" xmlns="http://www.w3.org/2000/svg" xmlns:xlink="http://www.w3.org/1999/xlink" xml:space="preserve" overflow="hidden"><g transform="translate(-1952 -2003)"><path d="M1963.08 2005.53C1955.88 2007.06 1953 2020.83 1955.88 2028.48 1960.2 2051.43 1955.88 2115.7 1955.88 2115.7 1954.44 2123.35 1961.64 2131 1968.84 2131 1977.48 2131 1983.24 2123.35 1984.68 2115.7 1984.68 2115.7 1989 2094.28 1989 2069.8 1989 2051.43 1983.24 2028.48 1980.36 2017.77 1978.92 2008.59 1971.72 2004 1963.08 2005.53Z" fill="#A9BDD6" fill-rule="evenodd"/><path d="M1989 2069.24C1989 2063.17 1987.59 2057.1 1987.59 2051.03 1986.18 2051.03 1984.77 2049.52 1983.36 2049.52 1974.91 2048 1966.45 2051.03 1958 2052.55 1958 2066.21 1958 2079.86 1958 2092 1966.45 2090.48 1976.32 2088.97 1986.18 2087.45 1987.59 2087.45 1987.59 2087.45 1987.59 2087.45 1989 2082.9 1989 2075.31 1989 2069.24Z" fill="#004B7E" fill-rule="evenodd"/><path d="M1985 2034.38C1983.57 2028.23 1982.14 2023.62 1982.14 2019 1973.57 2019 1963.57 2022.08 1955 2025.15 1955 2026.69 1955 2028.23 1956.43 2028.23 1956.43 2031.31 1956.43 2034.38 1957.86 2039 1963.57 2037.46 1970.71 2035.92 1975 2035.92 1979.29 2034.38 1982.14 2034.38 1985 2034.38Z" fill="#467FAC" fill-rule="evenodd"/><path d="M1963.08 2005.53C1955.88 2007.06 1953 2020.83 1955.88 2028.48 1960.2 2051.43 1955.88 2115.7 1955.88 2115.7 1954.44 2123.35 1961.64 2131 1968.84 2131 1977.48 2131 1983.24 2123.35 1984.68 2115.7 1984.68 2115.7 1989 2094.28 1989 2069.8 1989 2051.43 1983.24 2028.48 1980.36 2017.77 1978.92 2008.59 1971.72 2004 1963.08 2005.53Z" stroke="#58585A" stroke-width="4.0106" stroke-linecap="round" stroke-linejoin="round" stroke-miterlimit="10" fill="none" fill-rule="evenodd"/></g></svg>