<svg width="123" height="146" xmlns="http://www.w3.org/2000/svg" xmlns:xlink="http://www.w3.org/1999/xlink" xml:space="preserve" overflow="hidden"><g transform="translate(-2308 -1995)"><path d="M2321.94 1997.53C2313.31 1999.05 2309 2006.69 2310.44 2014.32 2314.75 2040.28 2314.75 2040.28 2314.75 2040.28 2317.62 2060.13 2320.5 2076.92 2317.62 2121.2 2316.19 2128.84 2321.94 2136.47 2330.56 2138 2337.75 2138 2343.5 2131.89 2346.38 2124.26 2349.25 2110.52 2355 2110.52 2352.12 2078.45 2350.69 2046.39 2337.75 2011.27 2337.75 2011.27 2337.75 2002.11 2329.12 1996 2321.94 1997.53Z" fill="#A9BDD6" fill-rule="evenodd"/><path d="M2349 2053.18C2347.58 2045.45 2346.17 2036.18 2343.33 2030 2334.83 2031.55 2320.67 2039.27 2315 2040.82 2315 2040.82 2315 2040.82 2315 2040.82 2316.42 2048.55 2316.42 2056.27 2317.83 2064 2323.5 2060.91 2329.17 2059.36 2333.42 2057.82 2339.08 2056.27 2343.33 2054.73 2349 2053.18Z" fill="#004B7E" fill-rule="evenodd"/><path d="M2351.58 2068C2341.67 2068 2328.92 2072.5 2319 2075.5 2319 2081.5 2319 2089 2319 2098 2323.25 2098 2326.08 2096.5 2328.92 2098 2336 2098 2344.5 2101 2351.58 2101 2353 2096.5 2353 2089 2351.58 2078.5 2351.58 2075.5 2351.58 2071 2351.58 2068Z" fill="#467FAC" fill-rule="evenodd"/><path d="M2337.14 2011.33C2337.14 2008.17 2337.14 2006.58 2335.71 2005 2328.57 2005 2318.57 2008.17 2310 2012.92 2310 2012.92 2310 2014.5 2310 2014.5 2311.43 2024 2311.43 2024 2311.43 2024 2320 2022.42 2330 2019.25 2340 2016.08 2338.57 2012.92 2337.14 2011.33 2337.14 2011.33Z" fill="#D4DDEA" fill-rule="evenodd"/><path d="M2321.94 1997.53C2313.31 1999.05 2309 2006.69 2310.44 2014.32 2314.75 2040.28 2314.75 2040.28 2314.75 2040.28 2317.62 2060.13 2320.5 2076.92 2317.62 2121.2 2316.19 2128.84 2321.94 2136.47 2330.56 2138 2337.75 2138 2343.5 2131.89 2346.38 2124.26 2349.25 2110.52 2355 2110.52 2352.12 2078.45 2350.69 2046.39 2337.75 2011.27 2337.75 2011.27 2337.75 2002.11 2329.12 1996 2321.94 1997.53Z" stroke="#58585A" stroke-width="4.0106" stroke-linecap="round" stroke-linejoin="round" stroke-miterlimit="10" fill="none" fill-rule="evenodd"/><path d="M2397.63 2022.29C2396.22 2043.69 2392 2058.98 2394.81 2074.26 2396.22 2091.08 2392 2132.36 2408.89 2138.47 2415.93 2140 2424.37 2135.41 2425.78 2126.24 2430 2107.9 2428.59 2089.55 2427.19 2072.74 2425.78 2057.45 2424.37 2042.16 2425.78 2025.34 2425.78 2016.17 2420.15 2008.53 2411.7 2008.53 2404.67 2007 2397.63 2014.64 2397.63 2022.29Z" fill="#A9BDD6" fill-rule="evenodd"/><path d="M2402.08 2074.05C2399.25 2075.58 2396.42 2075.58 2395 2075.58 2395 2081.68 2395 2090.84 2395 2100 2403.5 2100 2413.42 2100 2421.92 2098.47 2423.33 2098.47 2426.17 2100 2429 2100 2429 2090.84 2429 2081.68 2427.58 2072.53 2427.58 2072.53 2427.58 2072.53 2427.58 2072.53 2419.08 2071 2407.75 2074.05 2402.08 2074.05Z" fill="#467FAC" fill-rule="evenodd"/><path d="M2424.56 2040.11C2415.96 2038.56 2405.91 2037 2395.87 2038.56 2394.43 2047.89 2393 2057.22 2393 2065 2404.48 2065 2415.96 2065 2426 2063.44 2426 2055.67 2424.56 2047.89 2424.56 2040.11Z" fill="#004B7E" fill-rule="evenodd"/><path d="M2397.43 2018C2397.43 2019.56 2397.43 2021.11 2397.43 2022.67 2396 2025.78 2396 2027.33 2396 2030.44 2404.57 2030.44 2417.43 2032 2424.57 2028.89 2424.57 2027.33 2424.57 2027.33 2426 2025.78 2426 2022.67 2424.57 2021.11 2424.57 2019.56 2418.86 2018 2413.14 2018 2408.86 2018 2404.57 2018 2401.71 2018 2397.43 2018Z" fill="#D4DDEA" fill-rule="evenodd"/><path d="M2397.63 2022.29C2396.22 2043.69 2392 2058.98 2394.81 2074.26 2396.22 2091.08 2392 2132.36 2408.89 2138.47 2415.93 2140 2424.37 2135.41 2425.78 2126.24 2430 2107.9 2428.59 2089.55 2427.19 2072.74 2425.78 2057.45 2424.37 2042.16 2425.78 2025.34 2425.78 2016.17 2420.15 2008.53 2411.7 2008.53 2404.67 2007 2397.63 2014.64 2397.63 2022.29Z" stroke="#58585A" stroke-width="4.0106" stroke-linecap="round" stroke-linejoin="round" stroke-miterlimit="10" fill="none" fill-rule="evenodd"/></g></svg>