<svg width="47" height="167" xmlns="http://www.w3.org/2000/svg" xmlns:xlink="http://www.w3.org/1999/xlink" xml:space="preserve" overflow="hidden"><g transform="translate(-3091 -1981)"><path d="M3102.16 1995.75C3097.81 2011.03 3093.45 2023.25 3093.45 2035.47 3092 2053.81 3097.81 2069.08 3100.71 2090.47 3107.97 2131.72 3107.97 2131.72 3107.97 2131.72 3109.42 2140.89 3116.68 2147 3123.94 2145.47 3132.65 2143.94 3137 2136.31 3135.55 2128.67 3129.74 2085.89 3129.74 2085.89 3129.74 2085.89 3123.94 2052.28 3122.48 2038.53 3129.74 2001.86 3132.65 1994.22 3126.84 1985.06 3119.58 1983.53 3110.87 1982 3103.61 1986.58 3102.16 1995.75Z" fill="#A9BDD6" fill-rule="evenodd"/><path d="M3125 2030C3113.52 2031.55 3103.48 2033.09 3093.43 2036.18 3093.43 2036.18 3093.43 2036.18 3093.43 2036.18 3092 2045.45 3093.43 2054.73 3094.87 2064 3104.91 2060.91 3114.96 2057.82 3125 2056.27 3125 2047 3125 2039.27 3125 2030Z" fill="#004B7E" fill-rule="evenodd"/><path d="M3126.18 2064C3117.73 2065.47 3106.45 2069.89 3098 2072.84 3099.41 2078.74 3100.82 2084.63 3100.82 2090.53 3100.82 2092 3100.82 2092 3100.82 2092 3110.68 2087.58 3119.14 2083.16 3129 2080.21 3127.59 2074.32 3126.18 2069.89 3126.18 2064Z" fill="#D4DDEA" fill-rule="evenodd"/><path d="M3123.91 2145.5C3132.64 2144 3137 2136.5 3135.55 2129 3134.09 2111 3134.09 2111 3134.09 2111 3129.73 2112.5 3125.36 2115.5 3122.45 2117 3116.64 2120 3110.82 2120 3105 2121.5 3107.91 2132 3107.91 2132 3107.91 2132 3109.36 2141 3116.64 2147 3123.91 2145.5Z" fill="#467FAC" fill-rule="evenodd"/><path d="M3120.55 2002.44C3113.5 2001 3107.86 2001 3100.82 2001 3099.41 2005.33 3098 2009.67 3098 2012.56 3106.45 2014 3117.73 2012.56 3127.59 2012.56 3127.59 2009.67 3129 2008.22 3129 2005.33 3126.18 2003.89 3123.36 2002.44 3120.55 2002.44Z" fill="#467FAC" fill-rule="evenodd"/><path d="M3102.16 1995.75C3097.81 2011.03 3093.45 2023.25 3093.45 2035.47 3092 2053.81 3097.81 2069.08 3100.71 2090.47 3107.97 2131.72 3107.97 2131.72 3107.97 2131.72 3109.42 2140.89 3116.68 2147 3123.94 2145.47 3132.65 2143.94 3137 2136.31 3135.55 2128.67 3129.74 2085.89 3129.74 2085.89 3129.74 2085.89 3123.94 2052.28 3122.48 2038.53 3129.74 2001.86 3132.65 1994.22 3126.84 1985.06 3119.58 1983.53 3110.87 1982 3103.61 1986.58 3102.16 1995.75Z" stroke="#58585A" stroke-width="4.0106" stroke-linecap="round" stroke-linejoin="round" stroke-miterlimit="10" fill="none" fill-rule="evenodd"/></g></svg>