<svg width="49" height="332" xmlns="http://www.w3.org/2000/svg" xmlns:xlink="http://www.w3.org/1999/xlink" xml:space="preserve" overflow="hidden"><g transform="translate(-2717 -1804)"><path d="M2735.25 1820.28C2732.38 1837.08 2729.5 1852.36 2728.06 1864.58 2722.31 1893.61 2718 1918.06 2722.31 1954.72 2723.75 1966.94 2730.94 1977.64 2732.38 1988.33 2735.25 2003.61 2733.81 2021.94 2735.25 2038.75 2735.25 2060.14 2732.38 2083.06 2720.88 2112.08 2718 2119.72 2722.31 2128.89 2729.5 2131.94 2736.69 2135 2745.31 2131.94 2748.19 2124.31 2761.12 2089.17 2764 2061.67 2764 2037.22 2762.56 2017.36 2759.69 2000.56 2755.38 1985.28 2753.94 1973.06 2751.06 1962.36 2749.62 1951.67 2746.75 1919.58 2751.06 1898.19 2755.38 1870.69 2758.25 1856.94 2761.12 1841.67 2762.56 1823.33 2764 1815.69 2758.25 1808.06 2751.06 1806.53 2742.44 1805 2735.25 1811.11 2735.25 1820.28Z" fill="#A9BDD6" fill-rule="evenodd"/><path d="M2749.82 1850.64C2744 1850.64 2736.73 1852.27 2729.45 1852.27 2729.45 1857.18 2728 1860.45 2728 1865.36 2728 1865.36 2728 1865.36 2728 1865.36 2736.73 1865.36 2746.91 1867 2757.09 1867 2757.09 1862.09 2758.55 1855.55 2760 1849 2757.09 1850.64 2752.73 1850.64 2749.82 1850.64Z" fill="#D4DDEA" fill-rule="evenodd"/><path d="M2760 2009C2760 2001.26 2757.08 1993.52 2755.62 1985.77 2754.17 1978.03 2752.71 1970.29 2752.71 1962.55 2743.96 1961 2735.21 1965.65 2725 1968.74 2727.92 1976.48 2730.83 1982.68 2732.29 1988.87 2733.75 1995.06 2733.75 2002.81 2735.21 2009 2735.21 2009 2736.67 2009 2738.12 2009 2745.42 2007.45 2752.71 2009 2760 2009Z" fill="#004B7E" fill-rule="evenodd"/><path d="M2764 2037.5C2762.57 2031.5 2762.57 2025.5 2762.57 2021 2755.43 2022.5 2749.71 2024 2745.43 2024 2742.57 2024 2738.29 2025.5 2734 2025.5 2734 2030 2734 2034.5 2735.43 2039 2735.43 2040.5 2735.43 2042 2735.43 2045 2744 2042 2754 2040.5 2764 2040.5 2764 2039 2764 2037.5 2764 2037.5Z" fill="#D4DDEA" fill-rule="evenodd"/><path d="M2735.43 2051.06C2734 2057.18 2734 2063.29 2734 2067.88 2739.71 2067.88 2745.43 2069.41 2751.14 2069.41 2754 2070.94 2758.29 2072.47 2761.14 2074 2762.57 2064.82 2764 2057.18 2764 2049.53 2755.43 2048 2744 2049.53 2735.43 2051.06Z" fill="#004B7E" fill-rule="evenodd"/><path d="M2730.82 2102C2735.18 2103.5 2745.36 2106.5 2754.09 2108 2755.55 2103.5 2755.55 2100.5 2757 2096 2755.55 2094.5 2754.09 2094.5 2752.64 2093 2745.36 2090 2736.64 2088.5 2729.36 2087 2727.91 2091.5 2726.45 2096 2725 2102 2726.45 2102 2729.36 2102 2730.82 2102Z" fill="#467FAC" fill-rule="evenodd"/><path d="M2735.5 1910.5C2731.15 1910.5 2725.35 1910.5 2721 1910.5 2721 1916.5 2721 1921 2721 1927 2729.7 1927 2739.85 1927 2750 1925.5 2750 1921 2750 1915 2750 1909 2745.65 1910.5 2741.3 1910.5 2735.5 1910.5Z" fill="#467FAC" fill-rule="evenodd"/><path d="M2751.32 1806.56C2742.86 1805 2735.82 1811.22 2735.82 1820.56 2734.41 1823.67 2734.41 1828.33 2733 1833 2742.86 1833 2752.73 1833 2762.59 1833 2762.59 1829.89 2762.59 1826.78 2762.59 1823.67 2764 1815.89 2758.36 1808.11 2751.32 1806.56Z" fill="#467FAC" fill-rule="evenodd"/><path d="M2735.25 1820.28C2732.38 1837.08 2729.5 1852.36 2728.06 1864.58 2722.31 1893.61 2718 1918.06 2722.31 1954.72 2723.75 1966.94 2730.94 1977.64 2732.38 1988.33 2735.25 2003.61 2733.81 2021.94 2735.25 2038.75 2735.25 2060.14 2732.38 2083.06 2720.88 2112.08 2718 2119.72 2722.31 2128.89 2729.5 2131.94 2736.69 2135 2745.31 2131.94 2748.19 2124.31 2761.12 2089.17 2764 2061.67 2764 2037.22 2762.56 2017.36 2759.69 2000.56 2755.38 1985.28 2753.94 1973.06 2751.06 1962.36 2749.62 1951.67 2746.75 1919.58 2751.06 1898.19 2755.38 1870.69 2758.25 1856.94 2761.12 1841.67 2762.56 1823.33 2764 1815.69 2758.25 1808.06 2751.06 1806.53 2742.44 1805 2735.25 1811.11 2735.25 1820.28Z" stroke="#58585A" stroke-width="4.0106" stroke-linecap="round" stroke-linejoin="round" stroke-miterlimit="10" fill="none" fill-rule="evenodd"/></g></svg>