<svg width="150" height="223" xmlns="http://www.w3.org/2000/svg" xmlns:xlink="http://www.w3.org/1999/xlink" xml:space="preserve" overflow="hidden"><g transform="translate(-2183 -719)"><path d="M2200.85 721C2199.41 721 2199.41 721 2199.41 721 2190.76 721 2185 727.111 2185 736.278 2185 743.917 2190.76 751.555 2199.41 751.555 2200.85 751.555 2200.85 751.555 2200.85 751.555 2226.79 751.555 2275.79 751.555 2294.53 772.944 2301.74 780.583 2308.94 791.278 2307.5 803.5 2306.06 811.139 2300.29 820.305 2298.85 826.417 2283 875.305 2232.56 902.805 2202.29 908.917 2193.65 910.444 2189.32 918.083 2190.76 927.25 2192.21 934.889 2199.41 941 2206.62 939.472 2245.53 931.833 2303.18 899.75 2324.79 840.167 2327.68 829.472 2327.68 815.722 2329.12 803.5 2329.12 791.278 2332 785.167 2327.68 774.472 2326.24 766.833 2321.91 759.194 2316.15 753.083 2288.76 721 2234 721 2200.85 721Z" fill="#A9BDD6" fill-rule="evenodd"/><path d="M2221 751C2231.33 751 2240.19 752.5 2250.52 754 2252 745 2250.52 733 2250.52 722.5 2241.67 722.5 2232.81 721 2223.95 721 2223.95 728.5 2222.48 734.5 2222.48 737.5 2221 743.5 2221 746.5 2221 751Z" fill="#004B7E" fill-rule="evenodd"/><path d="M2291.54 734C2287.15 738.565 2285.69 743.13 2282.77 747.696 2279.85 750.739 2276.92 755.304 2274 759.87 2279.85 761.391 2285.69 764.435 2290.08 769 2297.38 761.391 2304.69 755.304 2312 747.696 2306.15 741.609 2298.85 737.043 2291.54 734Z" fill="#D4DDEA" fill-rule="evenodd"/><path d="M2307.14 797C2314.29 795.478 2321.43 793.957 2328.57 793.957 2330 786.348 2330 781.783 2327.14 774.174 2325.71 769.609 2324.29 765.044 2321.43 762 2314.29 766.565 2305.71 774.174 2300 780.261 2302.86 784.826 2305.71 790.913 2307.14 797Z" fill="#467FAC" fill-rule="evenodd"/><path d="M2327 810.639C2321.37 809.111 2312.93 804.528 2307.3 803 2307.3 803 2307.3 803 2307.3 803 2305.89 810.639 2300.26 819.806 2298.85 825.917 2296.04 833.556 2293.22 839.667 2289 845.778 2297.44 851.889 2308.7 854.944 2315.74 858 2315.74 858 2315.74 858 2315.74 858 2318.56 851.889 2321.37 845.778 2324.19 839.667 2327 832.028 2327 821.333 2327 810.639Z" fill="#467FAC" fill-rule="evenodd"/><path d="M2271.29 877.636C2269.81 876.091 2268.33 874.546 2266.86 873 2263.9 876.091 2260.95 879.182 2258 880.727 2260.95 883.818 2263.9 886.909 2265.38 890 2268.33 894.636 2271.29 900.818 2275.71 907 2280.14 902.364 2284.57 899.273 2289 894.636 2283.1 890 2275.71 883.818 2271.29 877.636Z" fill="#004B7E" fill-rule="evenodd"/><path d="M2264 915.107C2259.68 907.428 2252.47 899.75 2251.03 895.143 2248.15 889 2248.15 889 2248.15 889 2236.62 896.679 2225.09 901.286 2215 905.893 2217.88 913.571 2225.09 924.321 2230.85 932 2242.38 927.393 2253.91 922.786 2264 915.107Z" fill="#D4DDEA" fill-rule="evenodd"/><path d="M2200.85 721C2199.41 721 2199.41 721 2199.41 721 2190.76 721 2185 727.111 2185 736.278 2185 743.917 2190.76 751.555 2199.41 751.555 2200.85 751.555 2200.85 751.555 2200.85 751.555 2226.79 751.555 2275.79 751.555 2294.53 772.944 2301.74 780.583 2308.94 791.278 2307.5 803.5 2306.06 811.139 2300.29 820.305 2298.85 826.417 2283 875.305 2232.56 902.805 2202.29 908.917 2193.65 910.444 2189.32 918.083 2190.76 927.25 2192.21 934.889 2199.41 941 2206.62 939.472 2245.53 931.833 2303.18 899.75 2324.79 840.167 2327.68 829.472 2327.68 815.722 2329.12 803.5 2329.12 791.278 2332 785.167 2327.68 774.472 2326.24 766.833 2321.91 759.194 2316.15 753.083 2288.76 721 2234 721 2200.85 721Z" stroke="#58585A" stroke-width="4.0106" stroke-linecap="round" stroke-linejoin="round" stroke-miterlimit="10" fill="none" fill-rule="evenodd"/></g></svg>