<svg width="73" height="436" xmlns="http://www.w3.org/2000/svg" xmlns:xlink="http://www.w3.org/1999/xlink" xml:space="preserve" overflow="hidden"><g transform="translate(-2369 -565)"><path d="M2410.57 577.196C2394.63 615.308 2377.25 665.615 2371.45 731.168 2370 744.888 2372.9 758.608 2374.35 775.378 2374.35 784.525 2370 798.245 2371.45 808.916 2374.35 862.273 2385.94 921.727 2409.12 988.804 2412.02 996.427 2420.71 1001 2427.96 997.951 2435.2 994.902 2439.55 987.28 2436.65 978.133 2416.37 920.203 2404.78 866.846 2400.43 821.112 2400.43 804.343 2396.08 790.622 2396.08 775.378 2396.08 760.133 2398.98 744.888 2400.43 731.168 2406.22 671.713 2422.16 624.455 2438.1 589.392 2441 581.769 2438.1 572.622 2430.86 569.574 2423.61 565 2414.92 569.574 2410.57 577.196Z" fill="#A9BDD6" fill-rule="evenodd"/><path d="M2392 630.5C2394.85 630.5 2399.12 630.5 2401.96 632 2407.65 633.5 2413.35 636.5 2419.04 638 2421.88 629 2426.15 618.5 2429 609.5 2419.04 606.5 2410.5 603.5 2401.96 602 2397.69 611 2394.85 620 2392 630.5Z" fill="#004B7E" fill-rule="evenodd"/><path d="M2388.74 639C2385.87 645.25 2384.43 651.5 2383 659.313 2388.74 657.75 2393.04 657.75 2397.35 657.75 2401.65 659.313 2407.39 662.438 2411.7 664 2413.13 659.313 2414.56 654.625 2416 649.938 2411.7 646.813 2404.52 646.813 2400.22 645.25 2395.91 643.688 2391.61 642.125 2388.74 639Z" fill="#467FAC" fill-rule="evenodd"/><path d="M2438 584.692C2433.64 583.154 2426.36 581.616 2423.45 580.077 2419.09 578.539 2414.73 577 2410.36 577 2410.36 577 2410.36 577 2410.36 577 2408.91 580.077 2407.45 584.692 2406 589.308 2410.36 590.846 2416.18 590.846 2422 592.385 2426.36 593.923 2430.73 595.462 2433.64 597 2435.09 593.923 2436.55 592.385 2438 589.308 2438 587.769 2438 586.231 2438 584.692Z" fill="#467FAC" fill-rule="evenodd"/><path d="M2372 731.297C2372 734.378 2372 735.919 2372 739 2373.42 739 2376.25 737.46 2379.08 737.46 2384.75 737.46 2393.25 739 2400.33 739 2400.33 735.919 2400.33 734.378 2400.33 731.297 2401.75 715.892 2404.58 702.027 2406 688.162 2379.08 682 2379.08 682 2379.08 682 2376.25 697.405 2373.42 712.811 2372 731.297Z" fill="#D4DDEA" fill-rule="evenodd"/><path d="M2373.42 771C2381.95 769.5 2390.47 769.5 2396.16 769.5 2396.16 760.5 2397.58 753 2399 745.5 2393.32 744 2383.37 745.5 2380.53 747 2377.68 747 2374.84 747 2372 747 2373.42 754.5 2373.42 762 2373.42 771Z" fill="#467FAC" fill-rule="evenodd"/><path d="M2399 805.889C2397.55 798.111 2396.1 788.778 2396.1 781 2388.85 781 2380.15 784.111 2372.9 785.667 2371.45 793.444 2370 801.222 2371.45 809 2371.45 809 2371.45 809 2371.45 809 2374.35 809 2377.25 807.444 2381.6 807.444 2387.4 805.889 2393.2 805.889 2399 805.889Z" fill="#004B7E" fill-rule="evenodd"/><path d="M2403 843.231C2403 835.538 2401.59 827.846 2400.18 821.692 2400.18 818.615 2400.18 815.538 2400.18 814 2390.32 814 2381.86 817.077 2372 820.154 2373.41 830.923 2374.82 843.231 2376.23 854 2384.68 850.923 2394.55 846.308 2403 843.231Z" fill="#D4DDEA" fill-rule="evenodd"/><path d="M2404.77 855C2396.32 858.047 2387.86 862.619 2378 865.667 2379.41 873.286 2380.82 880.905 2382.23 887 2386.45 885.476 2389.27 882.428 2392.09 880.905 2397.73 877.857 2403.36 876.333 2409 874.809 2407.59 868.714 2406.18 861.095 2404.77 855Z" fill="#467FAC" fill-rule="evenodd"/><path d="M2415 903.789C2413.52 897.684 2412.05 893.105 2410.57 887 2401.71 891.579 2392.86 897.684 2384 902.263 2385.48 906.842 2385.48 911.421 2386.95 916 2395.81 911.421 2406.14 906.842 2415 903.789Z" fill="#004B7E" fill-rule="evenodd"/><path d="M2417.5 918C2409 922.556 2400.5 927.111 2392 931.667 2394.83 940.778 2396.25 949.889 2399.08 959 2401.92 957.482 2403.33 955.963 2406.17 955.963 2411.83 952.926 2418.92 949.889 2426 946.852 2423.17 937.741 2420.33 927.111 2417.5 918Z" fill="#004B7E" fill-rule="evenodd"/><path d="M2435 972.238C2432.14 967.667 2430.71 963.095 2429.29 957 2429.29 958.524 2427.86 958.524 2426.43 958.524 2419.29 963.095 2412.14 969.19 2405 973.762 2406.43 978.333 2407.86 982.905 2409.29 989 2416.43 984.429 2423.57 978.333 2430.71 975.286 2432.14 973.762 2433.57 973.762 2435 972.238Z" fill="#D4DDEA" fill-rule="evenodd"/><path d="M2410.57 577.196C2394.63 615.308 2377.25 665.615 2371.45 731.168 2370 744.888 2372.9 758.608 2374.35 775.378 2374.35 784.525 2370 798.245 2371.45 808.916 2374.35 862.273 2385.94 921.727 2409.12 988.804 2412.02 996.427 2420.71 1001 2427.96 997.951 2435.2 994.902 2439.55 987.28 2436.65 978.133 2416.37 920.203 2404.78 866.846 2400.43 821.112 2400.43 804.343 2396.08 790.622 2396.08 775.378 2396.08 760.133 2398.98 744.888 2400.43 731.168 2406.22 671.713 2422.16 624.455 2438.1 589.392 2441 581.769 2438.1 572.622 2430.86 569.574 2423.61 565 2414.92 569.574 2410.57 577.196Z" stroke="#58585A" stroke-width="4.0106" stroke-linecap="round" stroke-linejoin="round" stroke-miterlimit="10" fill="none" fill-rule="evenodd"/></g></svg>