<svg width="56" height="385" xmlns="http://www.w3.org/2000/svg" xmlns:xlink="http://www.w3.org/1999/xlink" xml:space="preserve" overflow="hidden"><g transform="translate(-2660 -628)"><path d="M2672.13 644.28C2666.34 684.008 2669.24 711.512 2675.03 755.824 2679.37 792.496 2679.37 792.496 2679.37 792.496 2679.37 795.552 2679.37 795.552 2679.37 795.552 2683.71 841.392 2685.16 859.728 2682.26 882.648 2680.82 893.344 2683.71 899.456 2679.37 916.264 2676.47 925.432 2670.68 939.184 2669.24 946.824 2662 981.968 2662 992.664 2662 995.72 2662 1003.36 2667.79 1011 2675.03 1011 2683.71 1011 2689.5 1003.36 2690.95 995.72 2690.95 995.72 2690.95 980.44 2702.53 930.016 2717 873.48 2715.55 859.728 2708.32 792.496 2708.32 789.44 2708.32 789.44 2708.32 789.44 2703.97 752.768 2703.97 752.768 2703.97 752.768 2698.18 708.456 2695.29 684.008 2699.63 647.336 2701.08 639.696 2695.29 632.056 2688.05 630.528 2679.37 629 2672.13 635.112 2672.13 644.28Z" fill="#A9BDD6" fill-rule="evenodd"/><path d="M2700 710C2698.57 693.156 2698.57 679.375 2698.57 662.531 2691.43 661 2680 664.063 2670 664.063 2670 679.375 2670 693.156 2671.43 708.469 2680 708.469 2690 710 2700 710Z" fill="#467FAC" fill-rule="evenodd"/><path d="M2702 742.437C2700.59 734.625 2700.59 726.813 2699.18 720.563 2692.14 719 2680.86 720.563 2671 722.125 2672.41 728.375 2672.41 736.187 2673.82 744 2675.23 742.437 2678.05 742.437 2679.45 742.437 2686.5 742.437 2694.95 742.437 2702 742.437Z" fill="#004B7E" fill-rule="evenodd"/><path d="M2703.62 751C2702.24 751 2699.48 751 2698.1 751 2691.19 752.526 2682.9 752.526 2676 752.526 2676 754.053 2676 754.053 2676 755.579 2678.76 780 2678.76 780 2678.76 780 2688.43 778.474 2698.1 775.421 2703.62 775.421 2705 775.421 2705 775.421 2705 775.421 2703.62 752.526 2703.62 752.526 2703.62 752.526 2703.62 751 2703.62 751 2703.62 751Z" fill="#D4DDEA" fill-rule="evenodd"/><path d="M2711 831C2711 823.059 2709.57 813.529 2709.57 804 2703.86 804 2698.14 805.588 2692.43 807.177 2689.57 807.177 2685.29 807.177 2681 807.177 2681 815.118 2682.43 823.059 2682.43 829.412 2685.29 829.412 2689.57 829.412 2692.43 829.412 2695.29 829.412 2703.86 831 2711 831Z" fill="#467FAC" fill-rule="evenodd"/><path d="M2683.45 846C2684.91 859.5 2683.45 870 2682 882 2682 882 2682 882 2682 882 2686.36 882 2689.27 880.5 2690.73 880.5 2696.55 880.5 2703.82 880.5 2712.55 880.5 2712.55 868.5 2714 856.5 2712.55 843 2706.73 844.5 2700.91 846 2695.09 846 2692.18 846 2687.82 846 2683.45 846Z" fill="#004B7E" fill-rule="evenodd"/><path d="M2705.71 918C2707.14 910.143 2708.57 902.286 2710 896 2710 896 2708.57 896 2708.57 896 2700 896 2691.43 896 2682.86 896 2682.86 900.714 2681.43 907 2680 913.286 2687.14 914.857 2694.29 914.857 2701.43 916.429 2702.86 916.429 2704.29 918 2705.71 918Z" fill="#D4DDEA" fill-rule="evenodd"/><path d="M2695.33 965C2696.75 958.905 2698.17 949.762 2701 940.619 2695.33 939.095 2688.25 937.571 2686.83 937.571 2682.58 936.048 2678.33 934.524 2674.08 933 2672.67 939.095 2671.25 943.667 2669.83 946.714 2668.42 952.809 2668.42 957.381 2667 961.952 2675.5 963.476 2686.83 963.476 2695.33 965Z" fill="#004B7E" fill-rule="evenodd"/><path d="M2692.57 983C2692.57 980 2694 975.5 2694 969.5 2685.43 969.5 2675.43 968 2665.43 968 2665.43 972.5 2664 975.5 2664 978.5 2672.57 980 2682.57 981.5 2692.57 983Z" fill="#D4DDEA" fill-rule="evenodd"/><path d="M2672.13 644.28C2666.34 684.008 2669.24 711.512 2675.03 755.824 2679.37 792.496 2679.37 792.496 2679.37 792.496 2679.37 795.552 2679.37 795.552 2679.37 795.552 2683.71 841.392 2685.16 859.728 2682.26 882.648 2680.82 893.344 2683.71 899.456 2679.37 916.264 2676.47 925.432 2670.68 939.184 2669.24 946.824 2662 981.968 2662 992.664 2662 995.72 2662 1003.36 2667.79 1011 2675.03 1011 2683.71 1011 2689.5 1003.36 2690.95 995.72 2690.95 995.72 2690.95 980.44 2702.53 930.016 2717 873.48 2715.55 859.728 2708.32 792.496 2708.32 789.44 2708.32 789.44 2708.32 789.44 2703.97 752.768 2703.97 752.768 2703.97 752.768 2698.18 708.456 2695.29 684.008 2699.63 647.336 2701.08 639.696 2695.29 632.056 2688.05 630.528 2679.37 629 2672.13 635.112 2672.13 644.28Z" stroke="#58585A" stroke-width="4.0106" stroke-linecap="round" stroke-linejoin="round" stroke-miterlimit="10" fill="none" fill-rule="evenodd"/></g></svg>