<svg width="59" height="360" xmlns="http://www.w3.org/2000/svg" xmlns:xlink="http://www.w3.org/1999/xlink" xml:space="preserve" overflow="hidden"><g transform="translate(-2751 -636)"><path d="M2776.97 650.731C2772.74 670.564 2772.74 670.564 2772.74 670.564 2767.1 690.397 2768.51 713.282 2764.28 736.167 2761.46 751.423 2754.41 765.154 2754.41 781.936 2753 803.295 2753 826.18 2757.23 852.115 2762.87 900.936 2769.92 931.449 2774.15 951.282 2776.97 963.487 2779.79 972.641 2779.79 978.744 2779.79 986.372 2785.44 994 2793.9 994 2800.95 994 2808 986.372 2808 978.744 2808 969.59 2805.18 958.91 2800.95 943.654 2796.72 925.346 2791.08 894.833 2784.03 849.064 2781.21 824.654 2781.21 803.295 2782.62 781.936 2782.62 766.68 2779.79 749.897 2781.21 736.167 2785.44 714.808 2795.31 696.5 2799.54 678.192 2803.77 656.833 2803.77 656.833 2803.77 656.833 2806.59 649.205 2800.95 640.051 2793.9 638.526 2786.85 637 2778.38 641.577 2776.97 650.731Z" fill="#A9BDD6" fill-rule="evenodd"/><path d="M2775.39 696.4C2779.83 697.92 2785.74 702.48 2791.65 704 2794.61 694.88 2799.04 687.28 2800.52 678.16 2802 672.08 2802 672.08 2802 672.08 2793.13 669.04 2782.78 667.52 2772.43 666 2772.43 670.56 2772.43 670.56 2772.43 670.56 2769.48 678.16 2769.48 685.76 2768 694.88 2770.96 694.88 2773.91 696.4 2775.39 696.4Z" fill="#004B7E" fill-rule="evenodd"/><path d="M2765 722C2769.4 722 2773.8 722 2778.2 723.5 2779.67 723.5 2781.13 725 2784.07 725 2784.07 722 2785.53 717.5 2787 713 2781.13 711.5 2773.8 710 2766.47 707 2766.47 711.5 2766.47 716 2765 722Z" fill="#467FAC" fill-rule="evenodd"/><path d="M2782 754C2782 751 2782 746.5 2782 742 2776.25 740.5 2770.5 740.5 2764.75 739 2763.31 745 2761.88 751 2759 757 2766.19 757 2774.81 755.5 2782 754Z" fill="#004B7E" fill-rule="evenodd"/><path d="M2783 784.923C2783 783.385 2783 783.385 2783 781.846 2783 778.769 2783 774.154 2783 769.538 2774.3 771.077 2764.15 769.538 2755.45 768 2755.45 772.615 2754 777.231 2754 781.846 2754 784.923 2754 786.461 2754 788 2762.7 784.923 2772.85 784.923 2783 784.923Z" fill="#D4DDEA" fill-rule="evenodd"/><path d="M2755.82 845.483C2765.68 847 2774.14 842.448 2784 840.931 2782.59 828.793 2782.59 816.655 2782.59 804.517 2753 803 2753 803 2753 803 2754.41 816.655 2754.41 830.31 2755.82 845.483Z" fill="#467FAC" fill-rule="evenodd"/><path d="M2785.18 854C2775.32 854 2766.86 855.533 2757 855.533 2758.41 863.2 2758.41 869.333 2759.82 877 2764.05 875.467 2768.27 873.933 2773.91 873.933 2778.14 872.4 2782.36 872.4 2788 872.4 2786.59 866.267 2785.18 860.133 2785.18 854Z" fill="#004B7E" fill-rule="evenodd"/><path d="M2793 903.5C2793 899 2791.57 894.5 2791.57 890 2781.57 891.5 2773 893 2763 894.5 2763 897.5 2764.43 902 2764.43 905 2767.29 905 2768.71 903.5 2771.57 903.5 2777.29 903.5 2787.29 905 2793 903.5Z" fill="#D4DDEA" fill-rule="evenodd"/><path d="M2772.36 945C2776.73 943.5 2781.09 942 2785.45 940.5 2789.82 939 2795.64 939 2800 937.5 2800 933 2798.55 927 2797.09 921 2795.64 921 2795.64 921 2795.64 921 2785.45 921 2776.73 924 2768 927 2769.45 934.5 2770.91 940.5 2772.36 945Z" fill="#004B7E" fill-rule="evenodd"/><path d="M2778.43 974C2782.71 974 2785.57 972.467 2788.43 970.933 2791.29 969.4 2801.29 969.4 2807 967.867 2805.57 963.267 2805.57 957.133 2804.14 951 2794.14 954.067 2785.57 958.667 2777 963.267 2778.43 967.867 2778.43 970.933 2778.43 974Z" fill="#467FAC" fill-rule="evenodd"/><path d="M2776.97 650.731C2772.74 670.564 2772.74 670.564 2772.74 670.564 2767.1 690.397 2768.51 713.282 2764.28 736.167 2761.46 751.423 2754.41 765.154 2754.41 781.936 2753 803.295 2753 826.18 2757.23 852.115 2762.87 900.936 2769.92 931.449 2774.15 951.282 2776.97 963.487 2779.79 972.641 2779.79 978.744 2779.79 986.372 2785.44 994 2793.9 994 2800.95 994 2808 986.372 2808 978.744 2808 969.59 2805.18 958.91 2800.95 943.654 2796.72 925.346 2791.08 894.833 2784.03 849.064 2781.21 824.654 2781.21 803.295 2782.62 781.936 2782.62 766.68 2779.79 749.897 2781.21 736.167 2785.44 714.808 2795.31 696.5 2799.54 678.192 2803.77 656.833 2803.77 656.833 2803.77 656.833 2806.59 649.205 2800.95 640.051 2793.9 638.526 2786.85 637 2778.38 641.577 2776.97 650.731Z" stroke="#58585A" stroke-width="4.0106" stroke-linecap="round" stroke-linejoin="round" stroke-miterlimit="10" fill="none" fill-rule="evenodd"/></g></svg>