<svg width="75" height="377" xmlns="http://www.w3.org/2000/svg" xmlns:xlink="http://www.w3.org/1999/xlink" xml:space="preserve" overflow="hidden"><g transform="translate(-3110 -634)"><path d="M3138.36 645.686C3134.04 659.424 3128.28 673.163 3123.96 688.428 3121.08 697.588 3122.52 706.747 3121.08 717.433 3118.2 734.224 3111 754.069 3112.44 775.441 3112.44 795.286 3113.88 816.657 3119.64 841.082 3128.28 885.351 3136.92 917.408 3142.68 941.833 3148.44 966.257 3154.2 983.049 3154.2 993.735 3154.2 1001.37 3159.96 1009 3168.6 1009 3175.8 1009 3183 1001.37 3183 993.735 3183 978.469 3177.24 961.677 3170.04 934.2 3164.28 909.775 3155.64 877.718 3147 834.975 3142.68 812.077 3141.24 792.233 3141.24 773.914 3139.8 755.596 3136.92 738.804 3139.8 723.539 3144.12 697.588 3157.08 677.743 3165.72 657.898 3168.6 650.265 3164.28 641.106 3157.08 638.053 3149.88 635 3141.24 638.053 3138.36 645.686Z" fill="#A9BDD6" fill-rule="evenodd"/><path d="M3148.17 690C3149.65 690 3149.65 690 3149.65 690 3152.61 683.778 3157.04 677.556 3160 671.333 3149.65 668.222 3140.78 665.111 3131.91 662 3131.91 662 3131.91 662 3131.91 662 3128.96 668.222 3127.48 674.444 3126 680.667 3133.39 683.778 3140.78 685.333 3148.17 690Z" fill="#004B7E" fill-rule="evenodd"/><path d="M3132.29 715.5C3135.12 715.5 3137.94 715.5 3140.76 717 3142.18 711 3143.59 705 3145 700.5 3139.35 699 3128.06 700.5 3123.82 700.5 3122.41 700.5 3122.41 700.5 3122.41 700.5 3122.41 705 3122.41 709.5 3121 714 3125.24 714 3128.06 714 3132.29 715.5Z" fill="#467FAC" fill-rule="evenodd"/><path d="M3116.42 737C3114.95 743.286 3113.47 751.143 3112 757.429 3120.84 757.429 3129.68 759 3137.05 759 3138.53 759 3138.53 759 3140 759 3140 751.143 3138.53 743.286 3138.53 737 3137.05 737 3135.58 737 3134.11 737 3129.68 737 3125.26 737 3120.84 737 3119.37 737 3117.89 737 3116.42 737Z" fill="#D4DDEA" fill-rule="evenodd"/><path d="M3146.2 835.083C3144.8 822.861 3143.4 813.694 3142 803 3114 806.056 3114 806.056 3114 806.056 3115.4 816.75 3116.8 828.972 3119.6 841.194 3121 847.306 3121 851.889 3122.4 858 3128 856.472 3136.4 853.417 3139.2 851.889 3142 850.361 3146.2 850.361 3149 848.833 3149 844.25 3147.6 839.667 3146.2 835.083Z" fill="#004B7E" fill-rule="evenodd"/><path d="M3158 885.368C3156.57 879.263 3155.13 871.631 3153.7 864 3143.65 867.052 3135.04 868.579 3125 871.631 3126.43 879.263 3129.3 886.895 3130.74 893 3136.48 891.474 3142.22 889.947 3147.96 888.421 3152.26 886.895 3155.13 885.368 3158 885.368Z" fill="#D4DDEA" fill-rule="evenodd"/><path d="M3161.14 899C3155.43 900.583 3148.29 902.167 3142.57 905.333 3139.71 905.333 3136.86 906.917 3134 908.5 3135.43 911.667 3135.43 914.833 3136.86 918 3145.43 913.25 3154 908.5 3164 906.917 3162.57 905.333 3162.57 902.167 3161.14 899Z" fill="#467FAC" fill-rule="evenodd"/><path d="M3174 946.842C3172.56 942.263 3171.13 939.211 3169.7 934.632 3169.7 931.579 3169.7 930.053 3168.26 927 3162.52 928.526 3155.35 931.579 3151.04 933.105 3146.74 934.632 3143.87 936.158 3141 936.158 3141 939.211 3142.43 940.737 3142.43 942.263 3143.87 946.842 3145.3 951.421 3146.74 956 3153.91 952.947 3161.09 949.895 3168.26 948.368 3169.7 946.842 3171.13 946.842 3174 946.842Z" fill="#004B7E" fill-rule="evenodd"/><path d="M3177.05 960C3177.05 960 3177.05 960 3177.05 960 3166.71 963.125 3157.86 966.25 3149 970.938 3150.48 975.625 3151.95 980.312 3151.95 985 3160.81 981.875 3171.14 977.187 3180 975.625 3180 970.938 3178.52 966.25 3177.05 960Z" fill="#D4DDEA" fill-rule="evenodd"/><path d="M3138.36 645.686C3134.04 659.424 3128.28 673.163 3123.96 688.428 3121.08 697.588 3122.52 706.747 3121.08 717.433 3118.2 734.224 3111 754.069 3112.44 775.441 3112.44 795.286 3113.88 816.657 3119.64 841.082 3128.28 885.351 3136.92 917.408 3142.68 941.833 3148.44 966.257 3154.2 983.049 3154.2 993.735 3154.2 1001.37 3159.96 1009 3168.6 1009 3175.8 1009 3183 1001.37 3183 993.735 3183 978.469 3177.24 961.677 3170.04 934.2 3164.28 909.775 3155.64 877.718 3147 834.975 3142.68 812.077 3141.24 792.233 3141.24 773.914 3139.8 755.596 3136.92 738.804 3139.8 723.539 3144.12 697.588 3157.08 677.743 3165.72 657.898 3168.6 650.265 3164.28 641.106 3157.08 638.053 3149.88 635 3141.24 638.053 3138.36 645.686Z" stroke="#58585A" stroke-width="4.0106" stroke-linecap="round" stroke-linejoin="round" stroke-miterlimit="10" fill="none" fill-rule="evenodd"/></g></svg>