<svg width="215" height="377" xmlns="http://www.w3.org/2000/svg" xmlns:xlink="http://www.w3.org/1999/xlink" xml:space="preserve" overflow="hidden"><g transform="translate(-2970 -634)"><path d="M3138.36 645.686C3134.04 659.424 3128.28 673.163 3123.96 688.428 3121.08 697.588 3122.52 706.747 3121.08 717.433 3118.2 734.224 3111 754.069 3112.44 775.441 3112.44 795.286 3113.88 816.657 3119.64 841.082 3128.28 885.351 3136.92 917.408 3142.68 941.833 3148.44 966.257 3154.2 983.049 3154.2 993.735 3154.2 1001.37 3159.96 1009 3168.6 1009 3175.8 1009 3183 1001.37 3183 993.735 3183 978.469 3177.24 961.677 3170.04 934.2 3164.28 909.775 3155.64 877.718 3147 834.975 3142.68 812.077 3141.24 792.233 3141.24 773.914 3139.8 755.596 3136.92 738.804 3139.8 723.539 3144.12 697.588 3157.08 677.743 3165.72 657.898 3168.6 650.265 3164.28 641.106 3157.08 638.053 3149.88 635 3141.24 638.053 3138.36 645.686Z" fill="#A9BDD6" fill-rule="evenodd"/><path d="M3148.17 690C3149.65 690 3149.65 690 3149.65 690 3152.61 683.778 3157.04 677.556 3160 671.333 3149.65 668.222 3140.78 665.111 3131.91 662 3131.91 662 3131.91 662 3131.91 662 3128.96 668.222 3127.48 674.444 3126 680.667 3133.39 683.778 3140.78 685.333 3148.17 690Z" fill="#004B7E" fill-rule="evenodd"/><path d="M3132.29 715.5C3135.12 715.5 3137.94 715.5 3140.76 717 3142.18 711 3143.59 705 3145 700.5 3139.35 699 3128.06 700.5 3123.82 700.5 3122.41 700.5 3122.41 700.5 3122.41 700.5 3122.41 705 3122.41 709.5 3121 714 3125.24 714 3128.06 714 3132.29 715.5Z" fill="#467FAC" fill-rule="evenodd"/><path d="M3116.42 737C3114.95 743.286 3113.47 751.143 3112 757.429 3120.84 757.429 3129.68 759 3137.05 759 3138.53 759 3138.53 759 3140 759 3140 751.143 3138.53 743.286 3138.53 737 3137.05 737 3135.58 737 3134.11 737 3129.68 737 3125.26 737 3120.84 737 3119.37 737 3117.89 737 3116.42 737Z" fill="#D4DDEA" fill-rule="evenodd"/><path d="M3146.2 835.083C3144.8 822.861 3143.4 813.694 3142 803 3114 806.056 3114 806.056 3114 806.056 3115.4 816.75 3116.8 828.972 3119.6 841.194 3121 847.306 3121 851.889 3122.4 858 3128 856.472 3136.4 853.417 3139.2 851.889 3142 850.361 3146.2 850.361 3149 848.833 3149 844.25 3147.6 839.667 3146.2 835.083Z" fill="#004B7E" fill-rule="evenodd"/><path d="M3158 885.368C3156.57 879.263 3155.13 871.631 3153.7 864 3143.65 867.052 3135.04 868.579 3125 871.631 3126.43 879.263 3129.3 886.895 3130.74 893 3136.48 891.474 3142.22 889.947 3147.96 888.421 3152.26 886.895 3155.13 885.368 3158 885.368Z" fill="#D4DDEA" fill-rule="evenodd"/><path d="M3161.14 899C3155.43 900.583 3148.29 902.167 3142.57 905.333 3139.71 905.333 3136.86 906.917 3134 908.5 3135.43 911.667 3135.43 914.833 3136.86 918 3145.43 913.25 3154 908.5 3164 906.917 3162.57 905.333 3162.57 902.167 3161.14 899Z" fill="#467FAC" fill-rule="evenodd"/><path d="M3174 946.842C3172.56 942.263 3171.13 939.211 3169.7 934.632 3169.7 931.579 3169.7 930.053 3168.26 927 3162.52 928.526 3155.35 931.579 3151.04 933.105 3146.74 934.632 3143.87 936.158 3141 936.158 3141 939.211 3142.43 940.737 3142.43 942.263 3143.87 946.842 3145.3 951.421 3146.74 956 3153.91 952.947 3161.09 949.895 3168.26 948.368 3169.7 946.842 3171.13 946.842 3174 946.842Z" fill="#004B7E" fill-rule="evenodd"/><path d="M3177.05 960C3177.05 960 3177.05 960 3177.05 960 3166.71 963.125 3157.86 966.25 3149 970.938 3150.48 975.625 3151.95 980.312 3151.95 985 3160.81 981.875 3171.14 977.187 3180 975.625 3180 970.938 3178.52 966.25 3177.05 960Z" fill="#D4DDEA" fill-rule="evenodd"/><path d="M3138.36 645.686C3134.04 659.424 3128.28 673.163 3123.96 688.428 3121.08 697.588 3122.52 706.747 3121.08 717.433 3118.2 734.224 3111 754.069 3112.44 775.441 3112.44 795.286 3113.88 816.657 3119.64 841.082 3128.28 885.351 3136.92 917.408 3142.68 941.833 3148.44 966.257 3154.2 983.049 3154.2 993.735 3154.2 1001.37 3159.96 1009 3168.6 1009 3175.8 1009 3183 1001.37 3183 993.735 3183 978.469 3177.24 961.677 3170.04 934.2 3164.28 909.775 3155.64 877.718 3147 834.975 3142.68 812.077 3141.24 792.233 3141.24 773.914 3139.8 755.596 3136.92 738.804 3139.8 723.539 3144.12 697.588 3157.08 677.743 3165.72 657.898 3168.6 650.265 3164.28 641.106 3157.08 638.053 3149.88 635 3141.24 638.053 3138.36 645.686Z" stroke="#58585A" stroke-width="4.0106" stroke-linecap="round" stroke-linejoin="round" stroke-miterlimit="10" fill="none" fill-rule="evenodd"/><path d="M2975.27 679.178C2971 686.826 2972.42 696.005 2979.55 700.594 2985.25 705.183 2985.25 705.183 2985.25 705.183 2993.79 711.301 3002.34 717.42 3008.04 722.009 3019.44 731.187 3030.84 734.247 3036.53 741.895 3046.51 754.132 3046.51 770.959 3046.51 787.785 3043.66 824.498 2995.22 939.224 2976.7 980.525 2972.42 988.174 2975.27 997.352 2982.4 1001.94 2989.52 1005 2998.07 1001.94 3002.34 994.292 3009.47 978.995 3070.73 839.795 3075 789.315 3075 769.429 3070.73 755.662 3062.18 741.895 3056.48 731.187 3050.78 720.479 3040.81 711.301 3029.41 700.594 3016.59 689.886 3000.92 679.178 2995.22 676.119 2995.22 676.119 2995.22 676.119 2989.52 670 2979.55 673.059 2975.27 679.178Z" fill="#A9BDD6" fill-rule="evenodd"/><path d="M2991 710.182C2996.57 713.273 3000.74 717.909 3004.91 721 3011.87 713.273 3018.83 705.545 3023 696.273 3018.83 693.182 3014.65 690.091 3010.48 687 3009.09 688.546 3009.09 688.546 3007.7 690.091 3003.52 694.727 2997.96 700.909 2993.78 705.545 2993.78 707.091 2992.39 708.636 2991 710.182Z" fill="#004B7E" fill-rule="evenodd"/><path d="M3020 729.368C3024.43 732.421 3028.86 735.474 3033.29 737 3033.29 737 3034.76 735.474 3034.76 735.474 3040.67 730.895 3046.57 726.316 3051 721.737 3048.05 718.684 3045.1 714.105 3040.67 711.053 3040.67 711.053 3039.19 709.526 3037.71 708 3031.81 714.105 3024.43 723.263 3020 729.368Z" fill="#D4DDEA" fill-rule="evenodd"/><path d="M3062.12 741.572C3062.12 740 3062.12 740 3062.12 740 3054.76 743.143 3048.88 749.429 3043 752.572 3043 755.714 3044.47 758.857 3044.47 762 3051.82 758.857 3057.71 755.714 3066.53 754.143 3066.53 754.143 3068 754.143 3068 754.143 3066.53 749.429 3065.06 744.714 3062.12 741.572Z" fill="#467FAC" fill-rule="evenodd"/><path d="M3046.86 795C3046.86 795 3045.43 795 3045.43 795 3044 805.695 3039.71 820.972 3034 837.778 3036.86 837.778 3039.71 839.306 3041.14 839.306 3048.29 842.361 3054 846.945 3059.71 850 3066.86 830.139 3071.14 811.806 3074 798.056 3064 798.056 3055.43 796.528 3046.86 795Z" fill="#004B7E" fill-rule="evenodd"/><path d="M3055 864.613C3053.57 864.613 3053.57 864.613 3052.14 864.613 3045 861.581 3036.43 857.032 3027.86 854 3023.57 864.613 3019.29 876.742 3015 887.355 3023.57 891.903 3032.14 897.968 3040.71 901 3046.43 888.871 3050.71 876.742 3055 864.613Z" fill="#467FAC" fill-rule="evenodd"/><path d="M3008.74 902C3007.3 906.588 3004.43 911.177 3003 917.294 3007.3 918.824 3011.61 921.882 3015.91 923.412 3020.22 924.941 3025.96 926.471 3030.26 928 3031.7 923.412 3033.13 918.824 3036 912.706 3028.83 909.647 3018.78 905.059 3011.61 903.529 3010.17 902 3010.17 902 3008.74 902Z" fill="#D4DDEA" fill-rule="evenodd"/><path d="M2996.17 936C2993.3 940.667 2990.43 946.889 2989 953.111 2989 953.111 2989 953.111 2989 953.111 2996.17 956.222 3003.35 956.222 3009.09 959.333 3010.52 960.889 3013.39 962.444 3014.83 964 3017.7 959.333 3019.13 953.111 3022 946.889L2996.17 936Z" fill="#004B7E" fill-rule="evenodd"/><path d="M2975.27 679.178C2971 686.826 2972.42 696.005 2979.55 700.594 2985.25 705.183 2985.25 705.183 2985.25 705.183 2993.79 711.301 3002.34 717.42 3008.04 722.009 3019.44 731.187 3030.84 734.247 3036.53 741.895 3046.51 754.132 3046.51 770.959 3046.51 787.785 3043.66 824.498 2995.22 939.224 2976.7 980.525 2972.42 988.174 2975.27 997.352 2982.4 1001.94 2989.52 1005 2998.07 1001.94 3002.34 994.292 3009.47 978.995 3070.73 839.795 3075 789.315 3075 769.429 3070.73 755.662 3062.18 741.895 3056.48 731.187 3050.78 720.479 3040.81 711.301 3029.41 700.594 3016.59 689.886 3000.92 679.178 2995.22 676.119 2995.22 676.119 2995.22 676.119 2989.52 670 2979.55 673.059 2975.27 679.178Z" stroke="#58585A" stroke-width="4.0106" stroke-linecap="round" stroke-linejoin="round" stroke-miterlimit="10" fill="none" fill-rule="evenodd"/></g></svg>