<svg width="51" height="376" xmlns="http://www.w3.org/2000/svg" xmlns:xlink="http://www.w3.org/1999/xlink" xml:space="preserve" overflow="hidden"><g transform="translate(-1189 -1066)"><path d="M1202.97 1068.53C1195.76 1070.05 1190 1077.69 1191.44 1085.32 1194.32 1117.38 1198.65 1138.75 1201.53 1158.59 1204.41 1176.91 1213.06 1192.18 1214.5 1212.02 1215.94 1225.76 1207.29 1244.08 1202.97 1265.45 1198.65 1288.35 1192.88 1315.82 1191.44 1347.88 1191.44 1360.09 1195.76 1373.83 1197.21 1386.04 1198.65 1398.26 1194.32 1408.94 1198.65 1427.26 1200.09 1434.89 1207.29 1441 1215.94 1439.47 1223.15 1436.42 1228.91 1428.79 1226.03 1421.16 1223.15 1408.94 1220.26 1396.73 1218.82 1386.04 1217.38 1370.78 1220.26 1358.57 1220.26 1344.83 1221.71 1317.35 1227.47 1292.93 1231.79 1271.56 1233.24 1262.4 1234.68 1253.24 1236.12 1244.08 1239 1231.87 1237.56 1218.13 1236.12 1208.97 1234.68 1198.28 1236.12 1190.65 1234.68 1181.49 1233.24 1172.33 1231.79 1163.17 1230.35 1152.49 1227.47 1134.17 1223.15 1112.8 1218.82 1082.27 1218.82 1073.11 1211.62 1067 1202.97 1068.53Z" fill="#A9BDD6" fill-rule="evenodd"/><path d="M1225 1423.5C1225 1422 1225 1422 1225 1422 1225 1416 1223.6 1411.5 1222.2 1407 1213.8 1408.5 1204 1413 1197 1416 1197 1419 1197 1423.5 1198.4 1428 1198.4 1431 1199.8 1432.5 1201.2 1434 1206.8 1431 1211 1428 1216.6 1426.5 1218 1425 1222.2 1423.5 1225 1423.5Z" fill="#004B7E" fill-rule="evenodd"/><path d="M1219 1365C1208.71 1366.53 1198.41 1371.12 1194 1371.12 1195.47 1375.71 1196.94 1381.82 1196.94 1386.41 1196.94 1387.94 1196.94 1389.47 1196.94 1391 1204.29 1389.47 1210.18 1387.94 1216.06 1386.41 1217.53 1386.41 1217.53 1386.41 1219 1384.88 1217.53 1378.76 1219 1371.12 1219 1365Z" fill="#D4DDEA" fill-rule="evenodd"/><path d="M1192.43 1327.46C1192.43 1331.85 1192.43 1337.69 1191 1342.08 1201 1343.54 1211 1345 1219.57 1345 1219.57 1339.15 1221 1333.31 1221 1327.46 1212.43 1326 1201 1326 1192.43 1327.46Z" fill="#004B7E" fill-rule="evenodd"/><path d="M1197.38 1294C1197.38 1298.5 1196 1303 1196 1309 1204.29 1309 1213.95 1309 1223.62 1312 1223.62 1306 1225 1301.5 1225 1295.5 1218.1 1294 1207.05 1294 1197.38 1294Z" fill="#467FAC" fill-rule="evenodd"/><path d="M1234 1256.55C1232.58 1256.55 1232.58 1256.55 1232.58 1256.55 1224.08 1255 1214.17 1256.55 1205.67 1256.55 1204.25 1259.65 1204.25 1262.75 1202.83 1265.85 1201.42 1270.5 1201.42 1275.15 1200 1281.35 1205.67 1282.9 1211.33 1284.45 1217 1284.45 1219.83 1286 1224.08 1286 1228.33 1286 1228.33 1281.35 1229.75 1276.7 1231.17 1272.05 1231.17 1267.4 1232.58 1261.2 1234 1256.55Z" fill="#004B7E" fill-rule="evenodd"/><path d="M1214.26 1213.59C1214.26 1219.94 1212.84 1227.88 1210 1237.41 1218.53 1237.41 1227.05 1237.41 1235.58 1239 1235.58 1239 1235.58 1239 1237 1239 1237 1229.47 1237 1219.94 1235.58 1212 1235.58 1212 1235.58 1212 1234.16 1212 1228.47 1212 1221.37 1213.59 1214.26 1213.59Z" fill="#467FAC" fill-rule="evenodd"/><path d="M1234.55 1182.13C1234.55 1179.09 1233.1 1176.04 1233.1 1173 1224.4 1174.52 1215.7 1177.57 1207 1180.61 1209.9 1189.74 1212.8 1198.87 1214.25 1208 1214.25 1208 1214.25 1208 1214.25 1208 1218.6 1206.48 1227.3 1206.48 1236 1204.96 1234.55 1197.35 1236 1189.74 1234.55 1182.13Z" fill="#004B7E" fill-rule="evenodd"/><path d="M1227 1138.09C1225.57 1131.91 1224.14 1124.18 1224.14 1118 1215.57 1119.55 1205.57 1124.18 1197 1130.36 1198.43 1138.09 1198.43 1144.27 1199.86 1152 1207 1147.36 1215.57 1142.73 1222.71 1139.64 1224.14 1139.64 1225.57 1138.09 1227 1138.09Z" fill="#D4DDEA" fill-rule="evenodd"/><path d="M1220.14 1087C1213 1087 1201.57 1093.22 1193 1097.89 1193 1104.11 1194.43 1110.33 1194.43 1115 1200.14 1113.44 1207.29 1110.33 1213 1108.78 1215.86 1108.78 1220.14 1107.22 1223 1107.22 1221.57 1101 1221.57 1094.78 1220.14 1087Z" fill="#004B7E" fill-rule="evenodd"/><path d="M1202.97 1068.53C1195.76 1070.05 1190 1077.69 1191.44 1085.32 1194.32 1117.38 1198.65 1138.75 1201.53 1158.59 1204.41 1176.91 1213.06 1192.18 1214.5 1212.02 1215.94 1225.76 1207.29 1244.08 1202.97 1265.45 1198.65 1288.35 1192.88 1315.82 1191.44 1347.88 1191.44 1360.09 1195.76 1373.83 1197.21 1386.04 1198.65 1398.26 1194.32 1408.94 1198.65 1427.26 1200.09 1434.89 1207.29 1441 1215.94 1439.47 1223.15 1436.42 1228.91 1428.79 1226.03 1421.16 1223.15 1408.94 1220.26 1396.73 1218.82 1386.04 1217.38 1370.78 1220.26 1358.57 1220.26 1344.83 1221.71 1317.35 1227.47 1292.93 1231.79 1271.56 1233.24 1262.4 1234.68 1253.24 1236.12 1244.08 1239 1231.87 1237.56 1218.13 1236.12 1208.97 1234.68 1198.28 1236.12 1190.65 1234.68 1181.49 1233.24 1172.33 1231.79 1163.17 1230.35 1152.49 1227.47 1134.17 1223.15 1112.8 1218.82 1082.27 1218.82 1073.11 1211.62 1067 1202.97 1068.53Z" stroke="#58585A" stroke-width="4.0106" stroke-linecap="round" stroke-linejoin="round" stroke-miterlimit="10" fill="none" fill-rule="evenodd"/></g></svg>