<svg width="78" height="391" xmlns="http://www.w3.org/2000/svg" xmlns:xlink="http://www.w3.org/1999/xlink" xml:space="preserve" overflow="hidden"><g transform="translate(-1269 -1068)"><path d="M1313.04 1084.28C1311.59 1098.02 1304.32 1113.3 1297.06 1131.63 1294.15 1139.27 1291.25 1146.91 1288.34 1156.07 1283.98 1166.76 1285.43 1177.46 1282.53 1189.68 1279.62 1201.9 1272.36 1215.65 1272.36 1229.39 1268 1284.39 1276.72 1302.72 1289.79 1328.69 1299.96 1354.65 1299.96 1354.65 1299.96 1354.65 1315.94 1392.84 1315.94 1417.28 1315.94 1437.14 1315.94 1441.72 1315.94 1441.72 1315.94 1441.72 1315.94 1449.36 1321.75 1457 1330.47 1457 1337.74 1457 1345 1449.36 1345 1441.72 1345 1437.14 1345 1437.14 1345 1437.14 1345 1415.76 1345 1386.73 1327.57 1342.43 1314.49 1314.94 1314.49 1314.94 1314.49 1314.94 1304.32 1290.5 1297.06 1278.28 1301.42 1232.45 1301.42 1218.7 1299.96 1201.9 1302.87 1191.2 1307.23 1171.35 1317.4 1159.13 1324.66 1143.85 1331.92 1123.99 1339.19 1105.66 1340.64 1087.33 1342.09 1079.69 1336.28 1072.06 1329.02 1070.53 1320.3 1069 1313.04 1075.11 1313.04 1084.28Z" fill="#A9BDD6" fill-rule="evenodd"/><path d="M1316 1431.2C1316 1432.6 1316 1435.4 1316 1436.8 1316 1441 1316 1441 1316 1441 1317.45 1439.6 1320.35 1439.6 1321.8 1439.6 1329.05 1438.2 1336.3 1438.2 1345 1439.6 1345 1436.8 1345 1436.8 1345 1436.8 1345 1434 1345 1429.8 1345 1427 1339.2 1428.4 1334.85 1428.4 1330.5 1429.8 1326.15 1429.8 1320.35 1429.8 1316 1431.2Z" fill="#467FAC" fill-rule="evenodd"/><path d="M1343 1404.85C1341.57 1400.23 1341.57 1395.62 1340.14 1391 1331.57 1391 1321.57 1392.54 1313 1395.62 1313 1401.77 1314.43 1406.38 1314.43 1411 1320.14 1409.46 1324.43 1406.38 1328.71 1406.38 1333 1404.85 1338.71 1404.85 1343 1404.85Z" fill="#004B7E" fill-rule="evenodd"/><path d="M1337 1373.23C1334.2 1364 1331.4 1354.77 1327.2 1344 1320.2 1345.54 1310.4 1350.15 1302 1354.77 1304.8 1365.54 1307.6 1374.77 1310.4 1384 1318.8 1380.92 1328.6 1377.85 1334.2 1373.23 1335.6 1373.23 1335.6 1373.23 1337 1373.23Z" fill="#D4DDEA" fill-rule="evenodd"/><path d="M1295.82 1342C1304.55 1339 1314.73 1333 1322 1328.5 1317.64 1318 1317.64 1318 1317.64 1318 1308.91 1321 1300.18 1325.5 1290 1331.5L1295.82 1342Z" fill="#004B7E" fill-rule="evenodd"/><path d="M1271 1263.04C1272.48 1275.22 1273.96 1285.87 1275.43 1295 1281.35 1293.48 1285.78 1293.48 1290.22 1291.96 1293.17 1290.43 1300.57 1290.43 1305 1288.91 1303.52 1281.3 1300.57 1272.17 1300.57 1261.52 1297.61 1260 1294.65 1260 1290.22 1260 1284.3 1260 1278.39 1261.52 1271 1263.04Z" fill="#004B7E" fill-rule="evenodd"/><path d="M1300.52 1242C1300.52 1238.83 1300.52 1235.67 1302 1232.5 1302 1229.33 1302 1226.17 1302 1223 1291.67 1224.58 1281.33 1227.75 1272.48 1223 1272.48 1224.58 1272.48 1227.75 1272.48 1229.33 1271 1234.08 1271 1237.25 1271 1240.42 1281.33 1242 1291.67 1242 1300.52 1242Z" fill="#467FAC" fill-rule="evenodd"/><path d="M1302.11 1205C1302.11 1198.89 1303.56 1194.32 1303.56 1191.26 1303.56 1188.21 1305 1188.21 1305 1186.68 1303.56 1185.16 1302.11 1183.63 1300.67 1182.11 1296.33 1179.05 1290.56 1177.53 1284.78 1176 1284.78 1180.58 1283.33 1185.16 1283.33 1189.74 1281.89 1192.79 1280.44 1197.37 1279 1200.42 1286.22 1203.47 1294.89 1203.47 1302.11 1205Z" fill="#004B7E" fill-rule="evenodd"/><path d="M1300 1124.86C1301.42 1124.86 1301.42 1124.86 1302.83 1124.86 1311.33 1127.9 1318.42 1130.95 1326.92 1134 1329.75 1127.9 1332.58 1120.29 1334 1112.67 1325.5 1109.62 1317 1105.05 1308.5 1102 1305.67 1109.62 1302.83 1117.24 1300 1124.86Z" fill="#D4DDEA" fill-rule="evenodd"/><path d="M1313.04 1084.28C1311.59 1098.02 1304.32 1113.3 1297.06 1131.63 1294.15 1139.27 1291.25 1146.91 1288.34 1156.07 1283.98 1166.76 1285.43 1177.46 1282.53 1189.68 1279.62 1201.9 1272.36 1215.65 1272.36 1229.39 1268 1284.39 1276.72 1302.72 1289.79 1328.69 1299.96 1354.65 1299.96 1354.65 1299.96 1354.65 1315.94 1392.84 1315.94 1417.28 1315.94 1437.14 1315.94 1441.72 1315.94 1441.72 1315.94 1441.72 1315.94 1449.36 1321.75 1457 1330.47 1457 1337.74 1457 1345 1449.36 1345 1441.72 1345 1437.14 1345 1437.14 1345 1437.14 1345 1415.76 1345 1386.73 1327.57 1342.43 1314.49 1314.94 1314.49 1314.94 1314.49 1314.94 1304.32 1290.5 1297.06 1278.28 1301.42 1232.45 1301.42 1218.7 1299.96 1201.9 1302.87 1191.2 1307.23 1171.35 1317.4 1159.13 1324.66 1143.85 1331.92 1123.99 1339.19 1105.66 1340.64 1087.33 1342.09 1079.69 1336.28 1072.06 1329.02 1070.53 1320.3 1069 1313.04 1075.11 1313.04 1084.28Z" stroke="#58585A" stroke-width="4.0106" stroke-linecap="round" stroke-linejoin="round" stroke-miterlimit="10" fill="none" fill-rule="evenodd"/></g></svg>