<svg width="158" height="393" xmlns="http://www.w3.org/2000/svg" xmlns:xlink="http://www.w3.org/1999/xlink" xml:space="preserve" overflow="hidden"><g transform="translate(-1189 -1066)"><path d="M1202.97 1068.53C1195.76 1070.05 1190 1077.69 1191.44 1085.32 1194.32 1117.38 1198.65 1138.75 1201.53 1158.59 1204.41 1176.91 1213.06 1192.18 1214.5 1212.02 1215.94 1225.76 1207.29 1244.08 1202.97 1265.45 1198.65 1288.35 1192.88 1315.82 1191.44 1347.88 1191.44 1360.09 1195.76 1373.83 1197.21 1386.04 1198.65 1398.26 1194.32 1408.94 1198.65 1427.26 1200.09 1434.89 1207.29 1441 1215.94 1439.47 1223.15 1436.42 1228.91 1428.79 1226.03 1421.16 1223.15 1408.94 1220.26 1396.73 1218.82 1386.04 1217.38 1370.78 1220.26 1358.57 1220.26 1344.83 1221.71 1317.35 1227.47 1292.93 1231.79 1271.56 1233.24 1262.4 1234.68 1253.24 1236.12 1244.08 1239 1231.87 1237.56 1218.13 1236.12 1208.97 1234.68 1198.28 1236.12 1190.65 1234.68 1181.49 1233.24 1172.33 1231.79 1163.17 1230.35 1152.49 1227.47 1134.17 1223.15 1112.8 1218.82 1082.27 1218.82 1073.11 1211.62 1067 1202.97 1068.53Z" fill="#A9BDD6" fill-rule="evenodd"/><path d="M1225 1423.5C1225 1422 1225 1422 1225 1422 1225 1416 1223.6 1411.5 1222.2 1407 1213.8 1408.5 1204 1413 1197 1416 1197 1419 1197 1423.5 1198.4 1428 1198.4 1431 1199.8 1432.5 1201.2 1434 1206.8 1431 1211 1428 1216.6 1426.5 1218 1425 1222.2 1423.5 1225 1423.5Z" fill="#004B7E" fill-rule="evenodd"/><path d="M1219 1365C1208.71 1366.53 1198.41 1371.12 1194 1371.12 1195.47 1375.71 1196.94 1381.82 1196.94 1386.41 1196.94 1387.94 1196.94 1389.47 1196.94 1391 1204.29 1389.47 1210.18 1387.94 1216.06 1386.41 1217.53 1386.41 1217.53 1386.41 1219 1384.88 1217.53 1378.76 1219 1371.12 1219 1365Z" fill="#D4DDEA" fill-rule="evenodd"/><path d="M1192.43 1327.46C1192.43 1331.85 1192.43 1337.69 1191 1342.08 1201 1343.54 1211 1345 1219.57 1345 1219.57 1339.15 1221 1333.31 1221 1327.46 1212.43 1326 1201 1326 1192.43 1327.46Z" fill="#004B7E" fill-rule="evenodd"/><path d="M1197.38 1294C1197.38 1298.5 1196 1303 1196 1309 1204.29 1309 1213.95 1309 1223.62 1312 1223.62 1306 1225 1301.5 1225 1295.5 1218.1 1294 1207.05 1294 1197.38 1294Z" fill="#467FAC" fill-rule="evenodd"/><path d="M1234 1256.55C1232.58 1256.55 1232.58 1256.55 1232.58 1256.55 1224.08 1255 1214.17 1256.55 1205.67 1256.55 1204.25 1259.65 1204.25 1262.75 1202.83 1265.85 1201.42 1270.5 1201.42 1275.15 1200 1281.35 1205.67 1282.9 1211.33 1284.45 1217 1284.45 1219.83 1286 1224.08 1286 1228.33 1286 1228.33 1281.35 1229.75 1276.7 1231.17 1272.05 1231.17 1267.4 1232.58 1261.2 1234 1256.55Z" fill="#004B7E" fill-rule="evenodd"/><path d="M1214.26 1213.59C1214.26 1219.94 1212.84 1227.88 1210 1237.41 1218.53 1237.41 1227.05 1237.41 1235.58 1239 1235.58 1239 1235.58 1239 1237 1239 1237 1229.47 1237 1219.94 1235.58 1212 1235.58 1212 1235.58 1212 1234.16 1212 1228.47 1212 1221.37 1213.59 1214.26 1213.59Z" fill="#467FAC" fill-rule="evenodd"/><path d="M1234.55 1182.13C1234.55 1179.09 1233.1 1176.04 1233.1 1173 1224.4 1174.52 1215.7 1177.57 1207 1180.61 1209.9 1189.74 1212.8 1198.87 1214.25 1208 1214.25 1208 1214.25 1208 1214.25 1208 1218.6 1206.48 1227.3 1206.48 1236 1204.96 1234.55 1197.35 1236 1189.74 1234.55 1182.13Z" fill="#004B7E" fill-rule="evenodd"/><path d="M1227 1138.09C1225.57 1131.91 1224.14 1124.18 1224.14 1118 1215.57 1119.55 1205.57 1124.18 1197 1130.36 1198.43 1138.09 1198.43 1144.27 1199.86 1152 1207 1147.36 1215.57 1142.73 1222.71 1139.64 1224.14 1139.64 1225.57 1138.09 1227 1138.09Z" fill="#D4DDEA" fill-rule="evenodd"/><path d="M1220.14 1087C1213 1087 1201.57 1093.22 1193 1097.89 1193 1104.11 1194.43 1110.33 1194.43 1115 1200.14 1113.44 1207.29 1110.33 1213 1108.78 1215.86 1108.78 1220.14 1107.22 1223 1107.22 1221.57 1101 1221.57 1094.78 1220.14 1087Z" fill="#004B7E" fill-rule="evenodd"/><path d="M1202.97 1068.53C1195.76 1070.05 1190 1077.69 1191.44 1085.32 1194.32 1117.38 1198.65 1138.75 1201.53 1158.59 1204.41 1176.91 1213.06 1192.18 1214.5 1212.02 1215.94 1225.76 1207.29 1244.08 1202.97 1265.45 1198.65 1288.35 1192.88 1315.82 1191.44 1347.88 1191.44 1360.09 1195.76 1373.83 1197.21 1386.04 1198.65 1398.26 1194.32 1408.94 1198.65 1427.26 1200.09 1434.89 1207.29 1441 1215.94 1439.47 1223.15 1436.42 1228.91 1428.79 1226.03 1421.16 1223.15 1408.94 1220.26 1396.73 1218.82 1386.04 1217.38 1370.78 1220.26 1358.57 1220.26 1344.83 1221.71 1317.35 1227.47 1292.93 1231.79 1271.56 1233.24 1262.4 1234.68 1253.24 1236.12 1244.08 1239 1231.87 1237.56 1218.13 1236.12 1208.97 1234.68 1198.28 1236.12 1190.65 1234.68 1181.49 1233.24 1172.33 1231.79 1163.17 1230.35 1152.49 1227.47 1134.17 1223.15 1112.8 1218.82 1082.27 1218.82 1073.11 1211.62 1067 1202.97 1068.53Z" stroke="#58585A" stroke-width="4.0106" stroke-linecap="round" stroke-linejoin="round" stroke-miterlimit="10" fill="none" fill-rule="evenodd"/><path d="M1313.04 1084.28C1311.59 1098.02 1304.32 1113.3 1297.06 1131.63 1294.15 1139.27 1291.25 1146.91 1288.34 1156.07 1283.98 1166.76 1285.43 1177.46 1282.53 1189.68 1279.62 1201.9 1272.36 1215.65 1272.36 1229.39 1268 1284.39 1276.72 1302.72 1289.79 1328.69 1299.96 1354.65 1299.96 1354.65 1299.96 1354.65 1315.94 1392.84 1315.94 1417.28 1315.94 1437.14 1315.94 1441.72 1315.94 1441.72 1315.94 1441.72 1315.94 1449.36 1321.75 1457 1330.47 1457 1337.74 1457 1345 1449.36 1345 1441.72 1345 1437.14 1345 1437.14 1345 1437.14 1345 1415.76 1345 1386.73 1327.57 1342.43 1314.49 1314.94 1314.49 1314.94 1314.49 1314.94 1304.32 1290.5 1297.06 1278.28 1301.42 1232.45 1301.42 1218.7 1299.96 1201.9 1302.87 1191.2 1307.23 1171.35 1317.4 1159.13 1324.66 1143.85 1331.92 1123.99 1339.19 1105.66 1340.64 1087.33 1342.09 1079.69 1336.28 1072.06 1329.02 1070.53 1320.3 1069 1313.04 1075.11 1313.04 1084.28Z" fill="#A9BDD6" fill-rule="evenodd"/><path d="M1316 1431.2C1316 1432.6 1316 1435.4 1316 1436.8 1316 1441 1316 1441 1316 1441 1317.45 1439.6 1320.35 1439.6 1321.8 1439.6 1329.05 1438.2 1336.3 1438.2 1345 1439.6 1345 1436.8 1345 1436.8 1345 1436.8 1345 1434 1345 1429.8 1345 1427 1339.2 1428.4 1334.85 1428.4 1330.5 1429.8 1326.15 1429.8 1320.35 1429.8 1316 1431.2Z" fill="#467FAC" fill-rule="evenodd"/><path d="M1343 1404.85C1341.57 1400.23 1341.57 1395.62 1340.14 1391 1331.57 1391 1321.57 1392.54 1313 1395.62 1313 1401.77 1314.43 1406.38 1314.43 1411 1320.14 1409.46 1324.43 1406.38 1328.71 1406.38 1333 1404.85 1338.71 1404.85 1343 1404.85Z" fill="#004B7E" fill-rule="evenodd"/><path d="M1337 1373.23C1334.2 1364 1331.4 1354.77 1327.2 1344 1320.2 1345.54 1310.4 1350.15 1302 1354.77 1304.8 1365.54 1307.6 1374.77 1310.4 1384 1318.8 1380.92 1328.6 1377.85 1334.2 1373.23 1335.6 1373.23 1335.6 1373.23 1337 1373.23Z" fill="#D4DDEA" fill-rule="evenodd"/><path d="M1295.82 1342C1304.55 1339 1314.73 1333 1322 1328.5 1317.64 1318 1317.64 1318 1317.64 1318 1308.91 1321 1300.18 1325.5 1290 1331.5L1295.82 1342Z" fill="#004B7E" fill-rule="evenodd"/><path d="M1271 1263.04C1272.48 1275.22 1273.96 1285.87 1275.43 1295 1281.35 1293.48 1285.78 1293.48 1290.22 1291.96 1293.17 1290.43 1300.57 1290.43 1305 1288.91 1303.52 1281.3 1300.57 1272.17 1300.57 1261.52 1297.61 1260 1294.65 1260 1290.22 1260 1284.3 1260 1278.39 1261.52 1271 1263.04Z" fill="#004B7E" fill-rule="evenodd"/><path d="M1300.52 1242C1300.52 1238.83 1300.52 1235.67 1302 1232.5 1302 1229.33 1302 1226.17 1302 1223 1291.67 1224.58 1281.33 1227.75 1272.48 1223 1272.48 1224.58 1272.48 1227.75 1272.48 1229.33 1271 1234.08 1271 1237.25 1271 1240.42 1281.33 1242 1291.67 1242 1300.52 1242Z" fill="#467FAC" fill-rule="evenodd"/><path d="M1302.11 1205C1302.11 1198.89 1303.56 1194.32 1303.56 1191.26 1303.56 1188.21 1305 1188.21 1305 1186.68 1303.56 1185.16 1302.11 1183.63 1300.67 1182.11 1296.33 1179.05 1290.56 1177.53 1284.78 1176 1284.78 1180.58 1283.33 1185.16 1283.33 1189.74 1281.89 1192.79 1280.44 1197.37 1279 1200.42 1286.22 1203.47 1294.89 1203.47 1302.11 1205Z" fill="#004B7E" fill-rule="evenodd"/><path d="M1300 1124.86C1301.42 1124.86 1301.42 1124.86 1302.83 1124.86 1311.33 1127.9 1318.42 1130.95 1326.92 1134 1329.75 1127.9 1332.58 1120.29 1334 1112.67 1325.5 1109.62 1317 1105.05 1308.5 1102 1305.67 1109.62 1302.83 1117.24 1300 1124.86Z" fill="#D4DDEA" fill-rule="evenodd"/><path d="M1313.04 1084.28C1311.59 1098.02 1304.32 1113.3 1297.06 1131.63 1294.15 1139.27 1291.25 1146.91 1288.34 1156.07 1283.98 1166.76 1285.43 1177.46 1282.53 1189.68 1279.62 1201.9 1272.36 1215.65 1272.36 1229.39 1268 1284.39 1276.72 1302.72 1289.79 1328.69 1299.96 1354.65 1299.96 1354.65 1299.96 1354.65 1315.94 1392.84 1315.94 1417.28 1315.94 1437.14 1315.94 1441.72 1315.94 1441.72 1315.94 1441.72 1315.94 1449.36 1321.75 1457 1330.47 1457 1337.74 1457 1345 1449.36 1345 1441.72 1345 1437.14 1345 1437.14 1345 1437.14 1345 1415.76 1345 1386.73 1327.57 1342.43 1314.49 1314.94 1314.49 1314.94 1314.49 1314.94 1304.32 1290.5 1297.06 1278.28 1301.42 1232.45 1301.42 1218.7 1299.96 1201.9 1302.87 1191.2 1307.23 1171.35 1317.4 1159.13 1324.66 1143.85 1331.92 1123.99 1339.19 1105.66 1340.64 1087.33 1342.09 1079.69 1336.28 1072.06 1329.02 1070.53 1320.3 1069 1313.04 1075.11 1313.04 1084.28Z" stroke="#58585A" stroke-width="4.0106" stroke-linecap="round" stroke-linejoin="round" stroke-miterlimit="10" fill="none" fill-rule="evenodd"/></g></svg>