<svg width="61" height="352" xmlns="http://www.w3.org/2000/svg" xmlns:xlink="http://www.w3.org/1999/xlink" xml:space="preserve" overflow="hidden"><g transform="translate(-1597 -1105)"><path d="M1612.71 1121.26C1607 1167.04 1607 1167.04 1607 1167.04 1604.14 1183.83 1608.43 1202.14 1607 1220.46 1604.14 1247.93 1597 1276.92 1601.29 1310.5 1608.43 1385.27 1627 1443.27 1627 1444.79 1629.86 1452.42 1638.43 1457 1645.57 1453.95 1652.71 1450.9 1657 1443.27 1654.14 1435.64 1654.14 1434.11 1635.57 1379.17 1629.86 1307.44 1625.57 1276.92 1619.86 1247.93 1622.71 1221.98 1624.14 1203.67 1632.71 1188.41 1635.57 1171.62 1641.29 1124.31 1641.29 1124.31 1641.29 1124.31 1641.29 1115.16 1635.57 1109.05 1628.43 1107.53 1619.86 1106 1612.71 1113.63 1612.71 1121.26Z" fill="#A9BDD6" fill-rule="evenodd"/><path d="M1625.64 1439C1627.05 1439 1629.86 1439 1631.27 1437.45 1638.32 1432.82 1645.36 1429.73 1651 1426.64 1649.59 1422 1648.18 1414.27 1645.36 1405 1620 1417.36 1620 1417.36 1620 1417.36 1621.41 1426.64 1624.23 1434.36 1625.64 1439Z" fill="#004B7E" fill-rule="evenodd"/><path d="M1636.71 1365C1629.57 1368.09 1619.57 1374.27 1615.29 1375.82 1613.86 1375.82 1612.43 1377.36 1611 1377.36 1612.43 1385.09 1613.86 1392.82 1615.29 1399 1615.29 1399 1615.29 1399 1615.29 1399 1623.86 1394.36 1632.43 1391.27 1641 1386.64 1639.57 1380.45 1638.14 1372.73 1636.71 1365Z" fill="#D4DDEA" fill-rule="evenodd"/><path d="M1635 1352.9C1632.13 1342.28 1630.7 1330.14 1629.26 1318 1629.26 1318 1629.26 1318 1627.83 1318 1620.65 1319.52 1610.61 1322.55 1602 1325.59 1603.43 1337.72 1604.87 1349.86 1607.74 1362 1616.35 1360.48 1626.39 1357.45 1635 1352.9Z" fill="#467FAC" fill-rule="evenodd"/><path d="M1628 1302.47C1628 1294.82 1626.6 1285.65 1625.2 1278 1619.6 1278 1611.2 1279.53 1607 1279.53 1605.6 1279.53 1602.8 1281.06 1600 1281.06 1600 1288.71 1600 1296.35 1600 1304 1609.8 1304 1619.6 1304 1628 1302.47Z" fill="#467FAC" fill-rule="evenodd"/><path d="M1623 1248C1623 1243.33 1623 1238.67 1623 1234 1617.15 1234 1611.31 1234 1605.46 1234 1604 1237.11 1604 1241.78 1604 1246.44 1609.85 1246.44 1617.15 1248 1623 1248Z" fill="#D4DDEA" fill-rule="evenodd"/><path d="M1637 1354.69C1635.57 1343.83 1634.13 1331.41 1632.7 1319 1631.26 1319 1631.26 1319 1631.26 1319 1622.65 1320.55 1614.04 1323.66 1604 1326.76 1605.43 1340.72 1606.87 1353.14 1609.74 1364 1618.35 1362.45 1628.39 1359.34 1637 1354.69Z" fill="#004B7E" fill-rule="evenodd"/><path d="M1628.2 1197C1631.1 1189.5 1632.55 1183.5 1634 1176 1626.75 1176 1616.6 1177.5 1613.7 1177.5 1610.8 1177.5 1607.9 1177.5 1605 1179 1605 1183.5 1605 1189.5 1606.45 1194 1610.8 1194 1616.6 1194 1622.4 1195.5 1623.85 1195.5 1625.3 1195.5 1628.2 1197Z" fill="#004B7E" fill-rule="evenodd"/><path d="M1608 1154C1608 1154 1609.45 1154 1609.45 1154 1618.18 1154 1628.36 1157 1637.09 1155.5 1640 1134.5 1640 1134.5 1640 1134.5 1629.82 1133 1619.64 1131.5 1610.91 1130L1608 1154Z" fill="#467FAC" fill-rule="evenodd"/><path d="M1612.71 1121.26C1607 1167.04 1607 1167.04 1607 1167.04 1604.14 1183.83 1608.43 1202.14 1607 1220.46 1604.14 1247.93 1597 1276.92 1601.29 1310.5 1608.43 1385.27 1627 1443.27 1627 1444.79 1629.86 1452.42 1638.43 1457 1645.57 1453.95 1652.71 1450.9 1657 1443.27 1654.14 1435.64 1654.14 1434.11 1635.57 1379.17 1629.86 1307.44 1625.57 1276.92 1619.86 1247.93 1622.71 1221.98 1624.14 1203.67 1632.71 1188.41 1635.57 1171.62 1641.29 1124.31 1641.29 1124.31 1641.29 1124.31 1641.29 1115.16 1635.57 1109.05 1628.43 1107.53 1619.86 1106 1612.71 1113.63 1612.71 1121.26Z" stroke="#58585A" stroke-width="4.0106" stroke-linecap="round" stroke-linejoin="round" stroke-miterlimit="10" fill="none" fill-rule="evenodd"/></g></svg>