<svg width="171" height="352" xmlns="http://www.w3.org/2000/svg" xmlns:xlink="http://www.w3.org/1999/xlink" xml:space="preserve" overflow="hidden"><g transform="translate(-1487 -1105)"><path d="M1612.71 1121.26C1607 1167.04 1607 1167.04 1607 1167.04 1604.14 1183.83 1608.43 1202.14 1607 1220.46 1604.14 1247.93 1597 1276.92 1601.29 1310.5 1608.43 1385.27 1627 1443.27 1627 1444.79 1629.86 1452.42 1638.43 1457 1645.57 1453.95 1652.71 1450.9 1657 1443.27 1654.14 1435.64 1654.14 1434.11 1635.57 1379.17 1629.86 1307.44 1625.57 1276.92 1619.86 1247.93 1622.71 1221.98 1624.14 1203.67 1632.71 1188.41 1635.57 1171.62 1641.29 1124.31 1641.29 1124.31 1641.29 1124.31 1641.29 1115.16 1635.57 1109.05 1628.43 1107.53 1619.86 1106 1612.71 1113.63 1612.71 1121.26Z" fill="#A9BDD6" fill-rule="evenodd"/><path d="M1625.64 1439C1627.05 1439 1629.86 1439 1631.27 1437.45 1638.32 1432.82 1645.36 1429.73 1651 1426.64 1649.59 1422 1648.18 1414.27 1645.36 1405 1620 1417.36 1620 1417.36 1620 1417.36 1621.41 1426.64 1624.23 1434.36 1625.64 1439Z" fill="#004B7E" fill-rule="evenodd"/><path d="M1636.71 1365C1629.57 1368.09 1619.57 1374.27 1615.29 1375.82 1613.86 1375.82 1612.43 1377.36 1611 1377.36 1612.43 1385.09 1613.86 1392.82 1615.29 1399 1615.29 1399 1615.29 1399 1615.29 1399 1623.86 1394.36 1632.43 1391.27 1641 1386.64 1639.57 1380.45 1638.14 1372.73 1636.71 1365Z" fill="#D4DDEA" fill-rule="evenodd"/><path d="M1635 1352.9C1632.13 1342.28 1630.7 1330.14 1629.26 1318 1629.26 1318 1629.26 1318 1627.83 1318 1620.65 1319.52 1610.61 1322.55 1602 1325.59 1603.43 1337.72 1604.87 1349.86 1607.74 1362 1616.35 1360.48 1626.39 1357.45 1635 1352.9Z" fill="#467FAC" fill-rule="evenodd"/><path d="M1628 1302.47C1628 1294.82 1626.6 1285.65 1625.2 1278 1619.6 1278 1611.2 1279.53 1607 1279.53 1605.6 1279.53 1602.8 1281.06 1600 1281.06 1600 1288.71 1600 1296.35 1600 1304 1609.8 1304 1619.6 1304 1628 1302.47Z" fill="#467FAC" fill-rule="evenodd"/><path d="M1623 1248C1623 1243.33 1623 1238.67 1623 1234 1617.15 1234 1611.31 1234 1605.46 1234 1604 1237.11 1604 1241.78 1604 1246.44 1609.85 1246.44 1617.15 1248 1623 1248Z" fill="#D4DDEA" fill-rule="evenodd"/><path d="M1637 1354.69C1635.57 1343.83 1634.13 1331.41 1632.7 1319 1631.26 1319 1631.26 1319 1631.26 1319 1622.65 1320.55 1614.04 1323.66 1604 1326.76 1605.43 1340.72 1606.87 1353.14 1609.74 1364 1618.35 1362.45 1628.39 1359.34 1637 1354.69Z" fill="#004B7E" fill-rule="evenodd"/><path d="M1628.2 1197C1631.1 1189.5 1632.55 1183.5 1634 1176 1626.75 1176 1616.6 1177.5 1613.7 1177.5 1610.8 1177.5 1607.9 1177.5 1605 1179 1605 1183.5 1605 1189.5 1606.45 1194 1610.8 1194 1616.6 1194 1622.4 1195.5 1623.85 1195.5 1625.3 1195.5 1628.2 1197Z" fill="#004B7E" fill-rule="evenodd"/><path d="M1608 1154C1608 1154 1609.45 1154 1609.45 1154 1618.18 1154 1628.36 1157 1637.09 1155.5 1640 1134.5 1640 1134.5 1640 1134.5 1629.82 1133 1619.64 1131.5 1610.91 1130L1608 1154Z" fill="#467FAC" fill-rule="evenodd"/><path d="M1612.71 1121.26C1607 1167.04 1607 1167.04 1607 1167.04 1604.14 1183.83 1608.43 1202.14 1607 1220.46 1604.14 1247.93 1597 1276.92 1601.29 1310.5 1608.43 1385.27 1627 1443.27 1627 1444.79 1629.86 1452.42 1638.43 1457 1645.57 1453.95 1652.71 1450.9 1657 1443.27 1654.14 1435.64 1654.14 1434.11 1635.57 1379.17 1629.86 1307.44 1625.57 1276.92 1619.86 1247.93 1622.71 1221.98 1624.14 1203.67 1632.71 1188.41 1635.57 1171.62 1641.29 1124.31 1641.29 1124.31 1641.29 1124.31 1641.29 1115.16 1635.57 1109.05 1628.43 1107.53 1619.86 1106 1612.71 1113.63 1612.71 1121.26Z" stroke="#58585A" stroke-width="4.0106" stroke-linecap="round" stroke-linejoin="round" stroke-miterlimit="10" fill="none" fill-rule="evenodd"/><path d="M1494.7 1122.12C1489 1128.23 1490.43 1138.94 1496.13 1143.52 1530.35 1175.64 1543.19 1187.87 1538.91 1227.63 1536.06 1244.45 1526.07 1265.85 1517.52 1288.79 1511.81 1304.08 1506.11 1320.9 1500.41 1337.72 1497.56 1349.96 1498.98 1365.25 1497.56 1377.48 1494.7 1389.71 1489 1401.95 1489 1415.71 1489 1423.35 1494.7 1431 1503.26 1431 1510.39 1431 1517.52 1423.35 1517.52 1415.71 1517.52 1374.42 1531.78 1334.67 1544.61 1299.5 1548.89 1287.26 1551.74 1276.56 1556.02 1265.85 1558.87 1253.62 1561.72 1239.86 1563.15 1229.16 1564.57 1212.34 1566 1201.63 1563.15 1189.4 1557.44 1161.87 1540.33 1145.05 1514.67 1120.59 1508.96 1116 1500.41 1116 1494.7 1122.12Z" fill="#A9BDD6" fill-rule="evenodd"/><path d="M1501.86 1409.93C1506.14 1409.93 1511.86 1411.47 1517.57 1413 1517.57 1405.33 1517.57 1399.2 1519 1393.07 1511.86 1391.53 1501.86 1390 1493.29 1390 1491.86 1396.13 1490.43 1402.27 1489 1408.4 1493.29 1408.4 1499 1409.93 1501.86 1409.93Z" fill="#467FAC" fill-rule="evenodd"/><path d="M1531 1341C1520.96 1339.5 1512.35 1335 1502.3 1335 1502.3 1335 1502.3 1335 1502.3 1335 1502.3 1336.5 1502.3 1336.5 1500.87 1338 1498 1347 1499.43 1356 1498 1366.5 1500.87 1366.5 1503.74 1366.5 1506.61 1366.5 1512.35 1366.5 1518.09 1366.5 1523.83 1368 1525.26 1359 1528.13 1350 1531 1341Z" fill="#467FAC" fill-rule="evenodd"/><path d="M1545.31 1299.33C1546.73 1293.26 1548.15 1288.7 1551 1282.63 1542.46 1279.59 1533.92 1273.52 1525.38 1272 1522.54 1276.56 1519.69 1282.63 1518.27 1288.7 1516.85 1293.26 1515.42 1296.3 1514 1300.85 1518.27 1303.89 1529.65 1308.44 1539.62 1313 1541.04 1308.44 1542.46 1303.89 1545.31 1299.33Z" fill="#D4DDEA" fill-rule="evenodd"/><path d="M1539.29 1206.55C1540.71 1212.61 1540.71 1220.19 1539.29 1227.77 1537.86 1233.84 1536.43 1239.9 1535 1244.45 1543.57 1247.48 1555 1249 1559.29 1249 1559.29 1249 1559.29 1249 1559.29 1249 1560.71 1242.94 1562.14 1235.35 1563.57 1229.29 1563.57 1220.19 1565 1214.13 1565 1206.55 1556.43 1206.55 1546.43 1202 1539.29 1206.55Z" fill="#467FAC" fill-rule="evenodd"/><path d="M1532 1342.18C1523.27 1340.64 1513.09 1337.55 1504.36 1336 1504.36 1336 1504.36 1336 1502.91 1336 1502.91 1337.55 1502.91 1339.09 1502.91 1340.64 1500 1348.36 1500 1359.18 1500 1368.45 1501.45 1368.45 1504.36 1368.45 1507.27 1368.45 1513.09 1368.45 1518.91 1368.45 1524.73 1370 1526.18 1360.73 1529.09 1351.45 1532 1342.18Z" fill="#004B7E" fill-rule="evenodd"/><path d="M1542.52 1208.03C1542.52 1214.1 1542.52 1221.68 1541.14 1230.77 1541.14 1235.32 1539.76 1241.39 1537 1247.45 1545.29 1248.97 1556.33 1250.48 1561.86 1252 1561.86 1252 1561.86 1252 1561.86 1252 1563.24 1244.42 1563.24 1236.84 1564.62 1230.77 1566 1223.19 1566 1215.61 1566 1209.55 1557.71 1208.03 1548.05 1205 1542.52 1208.03Z" fill="#004B7E" fill-rule="evenodd"/><path d="M1555 1166.54C1550.68 1158.85 1544.92 1152.69 1539.16 1145 1531.96 1151.15 1523.32 1158.85 1519 1166.54 1524.76 1172.69 1529.08 1178.85 1533.4 1185 1537.72 1181.92 1542.04 1175.77 1546.36 1172.69 1549.24 1169.62 1552.12 1168.08 1555 1166.54Z" fill="#467FAC" fill-rule="evenodd"/><path d="M1507.78 1154C1512.11 1147.92 1516.44 1141.84 1522.22 1137.28 1523.67 1135.76 1526.56 1134.24 1528 1132.72 1523.67 1129.68 1519.33 1125.12 1515 1120.56 1509.22 1116 1500.56 1116 1494.78 1122.08 1489 1128.16 1490.44 1138.8 1496.22 1143.36 1500.56 1147.92 1503.44 1150.96 1507.78 1154Z" fill="#004B7E" fill-rule="evenodd"/><path d="M1494.7 1122.12C1489 1128.23 1490.43 1138.94 1496.13 1143.52 1530.35 1175.64 1543.19 1187.87 1538.91 1227.63 1536.06 1244.45 1526.07 1265.85 1517.52 1288.79 1511.81 1304.08 1506.11 1320.9 1500.41 1337.72 1497.56 1349.96 1498.98 1365.25 1497.56 1377.48 1494.7 1389.71 1489 1401.95 1489 1415.71 1489 1423.35 1494.7 1431 1503.26 1431 1510.39 1431 1517.52 1423.35 1517.52 1415.71 1517.52 1374.42 1531.78 1334.67 1544.61 1299.5 1548.89 1287.26 1551.74 1276.56 1556.02 1265.85 1558.87 1253.62 1561.72 1239.86 1563.15 1229.16 1564.57 1212.34 1566 1201.63 1563.15 1189.4 1557.44 1161.87 1540.33 1145.05 1514.67 1120.59 1508.96 1116 1500.41 1116 1494.7 1122.12Z" stroke="#58585A" stroke-width="4.0106" stroke-linecap="round" stroke-linejoin="round" stroke-miterlimit="10" fill="none" fill-rule="evenodd"/></g></svg>