<svg width="49" height="314" xmlns="http://www.w3.org/2000/svg" xmlns:xlink="http://www.w3.org/1999/xlink" xml:space="preserve" overflow="hidden"><g transform="translate(-1904 -1135)"><path d="M1917.09 1137.53C1909.82 1140.59 1904 1148.24 1906.91 1155.88 1911.27 1174.24 1914.18 1188 1915.64 1201.76 1917.09 1212.47 1924.36 1223.18 1924.36 1233.88 1924.36 1246.12 1917.09 1259.88 1915.64 1273.65 1908.36 1318 1906.91 1400.59 1921.45 1437.29 1925.82 1444.94 1934.55 1448 1941.82 1444.94 1949.09 1441.88 1952 1432.71 1949.09 1425.06 1937.45 1399.06 1937.45 1324.12 1943.27 1278.24 1946.18 1264.47 1943.27 1247.65 1944.73 1235.41 1944.73 1221.65 1946.18 1209.41 1944.73 1195.65 1941.82 1181.88 1938.91 1166.59 1934.55 1148.24 1933.09 1140.59 1924.36 1136 1917.09 1137.53Z" fill="#A9BDD6" fill-rule="evenodd"/><path d="M1935.05 1148C1935.05 1148 1935.05 1148 1935.05 1148 1926.19 1151.08 1915.86 1154.15 1907 1157.23 1908.48 1161.85 1908.48 1164.92 1909.95 1168 1914.38 1166.46 1918.81 1163.38 1923.24 1161.85 1927.67 1160.31 1932.1 1158.77 1938 1157.23 1936.52 1154.15 1936.52 1151.08 1935.05 1148Z" fill="#467FAC" fill-rule="evenodd"/><path d="M1913 1183.5C1914.41 1189.5 1915.82 1195.5 1915.82 1201.5 1915.82 1201.5 1915.82 1203 1917.23 1203 1925.68 1200 1934.14 1195.5 1944 1194 1942.59 1186.5 1941.18 1180.5 1939.77 1173 1931.32 1174.5 1921.45 1179 1913 1183.5Z" fill="#D4DDEA" fill-rule="evenodd"/><path d="M1946 1207C1937.33 1207 1927.22 1211.38 1920 1215.77 1921.44 1218.69 1922.89 1223.08 1924.33 1226 1930.11 1224.54 1937.33 1220.15 1944.56 1218.69 1944.56 1215.77 1946 1211.38 1946 1207Z" fill="#467FAC" fill-rule="evenodd"/><path d="M1927.33 1241.92C1925.94 1241.92 1924.56 1243.38 1924.56 1243.38 1923.17 1247.77 1921.78 1253.62 1919 1258 1927.33 1258 1935.67 1256.54 1944 1256.54 1944 1250.69 1944 1244.85 1944 1239 1937.06 1240.46 1930.11 1241.92 1927.33 1241.92Z" fill="#004B7E" fill-rule="evenodd"/><path d="M1914.41 1276.54C1914.41 1282.69 1913 1288.85 1913 1295 1922.86 1293.46 1931.32 1293.46 1941.18 1295 1941.18 1288.85 1942.59 1284.23 1942.59 1278.08 1944 1278.08 1944 1276.54 1944 1275 1934.14 1275 1924.27 1275 1914.41 1276.54Z" fill="#004B7E" fill-rule="evenodd"/><path d="M1924.29 1310.5C1920 1312 1915.71 1312 1911.43 1313.5 1911.43 1322.5 1910 1331.5 1910 1342 1918.57 1339 1925.71 1336 1932.86 1336 1935.71 1336 1937.14 1336 1938.57 1336 1938.57 1327 1940 1318 1940 1309 1934.29 1309 1927.14 1310.5 1924.29 1310.5Z" fill="#467FAC" fill-rule="evenodd"/><path d="M1938.57 1370.06C1938.57 1370.06 1938.57 1370.06 1940 1370.06 1938.57 1365.38 1938.57 1360.69 1938.57 1356 1930 1356 1918.57 1359.13 1910 1362.25 1911.43 1368.5 1911.43 1374.75 1911.43 1381 1920 1377.87 1930 1373.19 1938.57 1370.06Z" fill="#D4DDEA" fill-rule="evenodd"/><path d="M1943 1403.76C1941.57 1399.18 1941.57 1394.59 1941.57 1390 1933 1390 1920.14 1396.12 1913 1399.18 1914.43 1405.29 1914.43 1411.41 1915.86 1416 1921.57 1412.94 1928.71 1408.35 1934.43 1405.29 1937.29 1405.29 1940.14 1403.76 1943 1403.76Z" fill="#004B7E" fill-rule="evenodd"/><path d="M1942 1444.89C1949.14 1441.78 1952 1432.44 1949.14 1424.67 1947.71 1423.11 1947.71 1421.56 1947.71 1420 1939.14 1424.67 1929.14 1430.89 1922 1435.56 1922 1437.11 1922 1437.11 1922 1437.11 1926.29 1444.89 1934.86 1448 1942 1444.89Z" fill="#467FAC" fill-rule="evenodd"/><path d="M1917.09 1137.53C1909.82 1140.59 1904 1148.24 1906.91 1155.88 1911.27 1174.24 1914.18 1188 1915.64 1201.76 1917.09 1212.47 1924.36 1223.18 1924.36 1233.88 1924.36 1246.12 1917.09 1259.88 1915.64 1273.65 1908.36 1318 1906.91 1400.59 1921.45 1437.29 1925.82 1444.94 1934.55 1448 1941.82 1444.94 1949.09 1441.88 1952 1432.71 1949.09 1425.06 1937.45 1399.06 1937.45 1324.12 1943.27 1278.24 1946.18 1264.47 1943.27 1247.65 1944.73 1235.41 1944.73 1221.65 1946.18 1209.41 1944.73 1195.65 1941.82 1181.88 1938.91 1166.59 1934.55 1148.24 1933.09 1140.59 1924.36 1136 1917.09 1137.53Z" stroke="#58585A" stroke-width="4.0106" stroke-linecap="round" stroke-linejoin="round" stroke-miterlimit="10" fill="none" fill-rule="evenodd"/></g></svg>