<svg width="69" height="285" xmlns="http://www.w3.org/2000/svg" xmlns:xlink="http://www.w3.org/1999/xlink" xml:space="preserve" overflow="hidden"><g transform="translate(-2117 -1165)"><path d="M2126.61 1171.11C2119.43 1175.69 2118 1184.85 2122.3 1190.96 2129.48 1201.65 2138.09 1209.28 2142.39 1218.44 2153.87 1236.76 2155.3 1252.03 2155.3 1273.41 2155.3 1288.68 2152.43 1300.89 2151 1313.11 2148.13 1325.32 2146.7 1339.06 2146.7 1357.39 2146.7 1366.55 2146.7 1366.55 2146.7 1366.55 2146.7 1392.51 2146.7 1412.35 2138.09 1421.52 2132.35 1427.62 2133.78 1438.31 2139.52 1442.89 2145.26 1449 2153.87 1449 2159.61 1442.89 2175.39 1424.57 2175.39 1397.09 2175.39 1366.55 2175.39 1357.39 2175.39 1357.39 2175.39 1357.39 2175.39 1342.12 2172.52 1322.27 2175.39 1310.05 2176.83 1297.84 2184 1291.73 2184 1273.41 2184 1235.24 2169.65 1212.33 2146.7 1174.16 2142.39 1168.05 2133.78 1165 2126.61 1171.11Z" fill="#A9BDD6" fill-rule="evenodd"/><path d="M2140.85 1180.5C2136.5 1183.5 2126.35 1188 2122 1191 2122 1191 2122 1191 2122 1191 2124.9 1195.5 2127.8 1200 2130.7 1203 2133.6 1200 2136.5 1197 2137.95 1195.5 2142.3 1192.5 2146.65 1186.5 2151 1182 2149.55 1180.5 2148.1 1177.5 2146.65 1176 2145.2 1177.5 2142.3 1179 2140.85 1180.5Z" fill="#467FAC" fill-rule="evenodd"/><path d="M2159.43 1197C2152.29 1200.09 2145.14 1206.27 2138 1212.45 2139.43 1214 2140.86 1215.55 2142.29 1218.64 2145.14 1221.73 2146.57 1226.36 2148 1231 2150.86 1229.45 2153.71 1226.36 2155.14 1224.82 2159.43 1220.18 2163.71 1217.09 2168 1212.45 2166.57 1207.82 2163.71 1201.64 2159.43 1197Z" fill="#004B7E" fill-rule="evenodd"/><path d="M2176.29 1231C2169.14 1237.12 2160.57 1240.18 2152 1244.76 2153.43 1249.35 2153.43 1252.41 2153.43 1257 2156.29 1257 2160.57 1255.47 2164.86 1253.94 2170.57 1252.41 2176.29 1253.94 2182 1253.94 2180.57 1246.29 2179.14 1238.65 2176.29 1231Z" fill="#004B7E" fill-rule="evenodd"/><path d="M2184 1273.67C2184 1273.67 2184 1272.11 2184 1272.11 2175.43 1270.56 2164 1269 2155.43 1272.11 2155.43 1272.11 2155.43 1273.67 2155.43 1273.67 2155.43 1281.44 2154 1287.67 2154 1293.89 2155.43 1292.33 2155.43 1292.33 2156.86 1292.33 2164 1293.89 2172.57 1293.89 2179.71 1297 2181.14 1290.78 2184 1284.56 2184 1273.67Z" fill="#D4DDEA" fill-rule="evenodd"/><path d="M2174 1319.55C2166.89 1318 2158.37 1318 2149.84 1318 2149.84 1322.64 2148.42 1328.82 2147 1335 2154.11 1335 2159.79 1333.45 2165.47 1333.45 2168.32 1333.45 2171.16 1333.45 2174 1335 2174 1328.82 2174 1324.18 2174 1319.55Z" fill="#467FAC" fill-rule="evenodd"/><path d="M2175 1366.73C2175 1357.53 2175 1357.53 2175 1357.53 2175 1357.53 2175 1357.53 2175 1356 2165.2 1356 2154 1356 2147 1357.53 2147 1366.73 2147 1366.73 2147 1366.73 2147 1371.33 2147 1374.4 2147 1379 2147 1379 2147 1379 2147 1379 2152.6 1377.47 2159.6 1379 2165.2 1379 2168 1379 2170.8 1379 2175 1379 2175 1375.93 2175 1371.33 2175 1366.73Z" fill="#004B7E" fill-rule="evenodd"/><path d="M2150.73 1412.67C2158 1414.22 2163.82 1417.33 2171.09 1422 2172.55 1414.22 2174 1404.89 2174 1395.56 2165.27 1394 2155.09 1394 2144.91 1394 2144.91 1401.78 2143.45 1408 2142 1412.67 2146.36 1412.67 2149.27 1412.67 2150.73 1412.67Z" fill="#467FAC" fill-rule="evenodd"/><path d="M2126.61 1171.11C2119.43 1175.69 2118 1184.85 2122.3 1190.96 2129.48 1201.65 2138.09 1209.28 2142.39 1218.44 2153.87 1236.76 2155.3 1252.03 2155.3 1273.41 2155.3 1288.68 2152.43 1300.89 2151 1313.11 2148.13 1325.32 2146.7 1339.06 2146.7 1357.39 2146.7 1366.55 2146.7 1366.55 2146.7 1366.55 2146.7 1392.51 2146.7 1412.35 2138.09 1421.52 2132.35 1427.62 2133.78 1438.31 2139.52 1442.89 2145.26 1449 2153.87 1449 2159.61 1442.89 2175.39 1424.57 2175.39 1397.09 2175.39 1366.55 2175.39 1357.39 2175.39 1357.39 2175.39 1357.39 2175.39 1342.12 2172.52 1322.27 2175.39 1310.05 2176.83 1297.84 2184 1291.73 2184 1273.41 2184 1235.24 2169.65 1212.33 2146.7 1174.16 2142.39 1168.05 2133.78 1165 2126.61 1171.11Z" stroke="#58585A" stroke-width="4.0106" stroke-linecap="round" stroke-linejoin="round" stroke-miterlimit="10" fill="none" fill-rule="evenodd"/></g></svg>