<svg width="977" height="436" xmlns="http://www.w3.org/2000/svg" xmlns:xlink="http://www.w3.org/1999/xlink" xml:space="preserve" overflow="hidden"><g transform="translate(-934 -1402)"><path d="M938.031 1609.94C928 1652.74 952.361 1674.14 992.485 1663.44 1031.18 1652.74 1069.87 1635.92 1145.82 1666.5 1221.77 1697.07 1326.38 1720 1442.45 1715.41 1558.52 1710.83 1683.19 1677.2 1747.68 1651.21 1812.16 1625.22 1846.56 1637.45 1879.51 1620.64 1944 1587.01 1893.84 1480 1809.3 1554.9 1759.14 1600.76 1698.96 1648.15 1541.33 1669.55 1382.26 1690.96 1118.59 1619.11 1059.84 1583.95 999.65 1550.32 943.763 1550.32 938.031 1609.94Z" fill="#E5EDF5" fill-rule="evenodd"/><path d="M1098.69 1467.15C1060 1488.49 1091.52 1552.52 1160.3 1583.02 1207.58 1604.36 1270.63 1644 1386.69 1644 1502.75 1644 1624.54 1607.41 1676.12 1570.82 1709.07 1546.43 1732 1494.59 1700.48 1479.34 1671.82 1467.15 1661.79 1479.34 1621.67 1523.56 1582.99 1566.25 1478.39 1613.51 1368.06 1611.98 1257.73 1610.46 1188.96 1537.28 1176.06 1514.41 1148.84 1464.1 1118.75 1458 1098.69 1467.15Z" fill="#E5EDF5" fill-rule="evenodd"/><path d="M1368.25 1561.49C1422.74 1564.53 1523.1 1534.13 1546.04 1503.74 1577.58 1462.71 1568.98 1408 1611.99 1430.8 1655 1453.59 1594.78 1506.78 1577.58 1523.5 1560.37 1538.69 1540.3 1566.05 1438.51 1582.76 1336.71 1601 1285.1 1570.61 1244.95 1550.85 1204.81 1532.61 1179 1477.91 1204.81 1465.75 1253.55 1432.31 1269.33 1550.85 1368.25 1561.49Z" fill="#E5EDF5" fill-rule="evenodd"/><path d="M1354.13 1747.81C1349.83 1760 1332.64 1760 1283.91 1752.38 1207.95 1738.67 1172.12 1721.9 1119.09 1715.81 1067.5 1709.71 1046 1720.38 1047.43 1689.9 1047.43 1673.14 1078.96 1664 1119.09 1674.67 1160.65 1683.81 1222.28 1723.43 1272.44 1726.48 1322.6 1728 1357 1734.1 1354.13 1747.81Z" fill="#E5EDF5" fill-rule="evenodd"/><path d="M1518.24 1734.31C1448.19 1737.36 1395.29 1729.74 1392.43 1746.51 1391 1777 1426.74 1767.85 1443.9 1766.33 1461.06 1764.8 1533.97 1760.23 1584.01 1749.56 1634.05 1737.36 1676.94 1729.74 1699.82 1731.26 1722.69 1732.79 1747 1699.25 1725.55 1691.62 1704.11 1684 1688.38 1705.34 1655.5 1714.49 1641.2 1719.07 1571.14 1732.79 1518.24 1734.31Z" fill="#E5EDF5" fill-rule="evenodd"/><path d="M1061.58 1760.04C1053 1792.21 1075.89 1806 1100.21 1804.47 1124.53 1804.47 1141.69 1802.94 1148.85 1783.02 1156 1764.64 1127.39 1734 1107.36 1734 1088.76 1734 1068.74 1743.19 1061.58 1760.04Z" fill="#E5EDF5" fill-rule="evenodd"/><path d="M1159 1425C1159 1412.85 1168.18 1403 1179.5 1403 1190.82 1403 1200 1412.85 1200 1425 1200 1437.15 1190.82 1447 1179.5 1447 1168.18 1447 1159 1437.15 1159 1425Z" fill="#E5EDF5" fill-rule="evenodd"/><path d="M1245.08 1804.55C1227.92 1806.08 1166.43 1846 1166.43 1790.73 1165 1737 1219.34 1755.42 1245.08 1769.24 1353.76 1799.94 1466.74 1806.08 1535.38 1793.8 1585.43 1784.59 1624.04 1767.7 1655.5 1753.89 1674.09 1746.21 1718.42 1741.61 1721.28 1770.77 1727 1801.48 1688.39 1807.62 1606.88 1815.3 1538.24 1821.44 1503.92 1832.18 1458.16 1835.25 1396.66 1838.32 1279.4 1807.62 1245.08 1804.55Z" fill="#E5EDF5" fill-rule="evenodd"/><path d="M1541.2 1677.92C1698.88 1656.56 1760.52 1612.32 1814.99 1563.51 1839.36 1540.63 1863.73 1533 1880.93 1542.15 1892.4 1548.25 1901 1560.46 1901 1575.71 1901 1590.97 1892.4 1604.69 1876.63 1613.85 1862.3 1619.95 1847.96 1621.47 1830.76 1624.53 1807.82 1626.05 1780.59 1629.1 1744.75 1642.83 1690.28 1664.19 1565.56 1702.32 1442.29 1706.9 1304.67 1713 1200.03 1679.44 1148.42 1659.61 1079.61 1630.63 1038.04 1642.83 1002.21 1651.98 989.305 1656.56 989.305 1656.56 989.305 1656.56 972.103 1659.61 959.202 1658.08 950.601 1650.46 943.433 1642.83 942 1629.1 946.3 1612.32 946.3 1612.32 946.3 1612.32 946.3 1612.32 947.734 1594.02 953.468 1583.34 964.936 1575.71 985.004 1565.03 1017.97 1571.14 1055.24 1592.49 1118.32 1629.1 1383.51 1700.8 1541.2 1677.92Z" fill="#98BCDA" fill-rule="evenodd"/><path d="M1168.81 1519.29C1186 1549.74 1259.08 1619.77 1367.98 1621.3 1481.17 1622.82 1585.77 1574.1 1627.33 1529.95 1630.19 1526.9 1630.19 1526.9 1630.19 1526.9 1668.88 1484.27 1676.04 1478.18 1697.54 1487.32 1703.27 1490.36 1706.13 1494.93 1707.57 1502.54 1709 1520.81 1691.81 1548.22 1671.75 1563.44 1623.03 1598.46 1502.67 1635 1386.6 1635 1289.17 1635 1231.85 1607.59 1186 1586.28 1163.08 1575.62 1163.08 1575.62 1163.08 1575.62 1117.22 1555.83 1091.43 1520.81 1090 1497.97 1090 1496.45 1090 1496.45 1090 1496.45 1090 1487.32 1094.3 1479.7 1102.9 1475.14 1124.39 1466 1148.75 1481.23 1168.81 1519.29Z" fill="#98BCDA" fill-rule="evenodd"/><path d="M1283.48 1743.4C1249.14 1737.32 1221.96 1729.72 1197.64 1723.64 1171.89 1716.04 1149 1709.96 1120.38 1706.92 1106.07 1705.4 1094.63 1705.4 1084.61 1705.4 1071.74 1705.4 1060.29 1703.88 1057.43 1700.84 1056 1699.32 1056 1694.76 1056 1690.2 1056 1690.2 1056 1687.16 1058.86 1685.64 1066.01 1679.56 1087.48 1675 1117.52 1682.6 1133.26 1687.16 1151.86 1694.76 1171.89 1703.88 1203.36 1717.56 1239.13 1732.76 1272.03 1734.28 1324.97 1737.32 1340.71 1743.4 1345 1746.44 1339.28 1751 1317.82 1749.48 1283.48 1743.4Z" fill="#98BCDA" fill-rule="evenodd"/><path d="M1518.4 1743.58C1518.4 1743.58 1518.4 1743.58 1518.4 1743.58 1571.37 1740.51 1641.53 1726.7 1657.28 1723.63 1671.59 1719.02 1683.05 1712.88 1691.64 1708.28 1705.96 1700.6 1714.55 1696 1723.14 1699.07 1726 1700.6 1726 1702.14 1726 1703.67 1724.57 1711.35 1711.68 1723.63 1700.23 1723.63 1673.03 1722.09 1621.48 1731.3 1582.83 1740.51 1538.44 1751.26 1478.31 1755.86 1451.11 1757.4 1442.52 1757.4 1442.52 1757.4 1442.52 1757.4 1435.36 1758.93 1435.36 1758.93 1435.36 1758.93 1423.91 1760.47 1408.16 1762 1402.43 1755.86 1402.43 1755.86 1401 1754.33 1401 1748.19 1405.3 1743.58 1435.36 1743.58 1458.27 1743.58 1475.45 1743.58 1496.93 1745.12 1518.4 1743.58Z" fill="#98BCDA" fill-rule="evenodd"/><path d="M1107.15 1743C1115.75 1743 1130.09 1752.26 1137.26 1764.6 1141.57 1770.77 1143 1776.94 1141.57 1780.03 1137.26 1793.91 1125.79 1795.46 1099.98 1797 1087.08 1797 1077.04 1793.91 1071.3 1786.2 1068.43 1783.11 1067 1778.49 1067 1772.31 1067 1769.23 1068.43 1766.14 1068.43 1763.06 1074.17 1749.17 1091.38 1743 1107.15 1743Z" fill="#98BCDA" fill-rule="evenodd"/><path d="M1168 1425C1168 1417.82 1173.6 1412 1180.5 1412 1187.4 1412 1193 1417.82 1193 1425 1193 1432.18 1187.4 1438 1180.5 1438 1173.6 1438 1168 1432.18 1168 1425Z" fill="#98BCDA" fill-rule="evenodd"/><path d="M1537.2 1803.33C1581.65 1794.08 1618.93 1780.21 1647.61 1767.88 1659.08 1763.25 1659.08 1763.25 1659.08 1763.25 1671.98 1757.08 1694.93 1754 1707.83 1761.71 1710.7 1763.25 1713.57 1766.33 1713.57 1772.5 1713.57 1772.5 1713.57 1772.5 1713.57 1772.5 1715 1778.67 1713.57 1781.75 1712.13 1783.29 1702.1 1797.17 1657.65 1801.79 1607.46 1807.96 1571.61 1811.04 1545.8 1814.12 1522.86 1818.75 1499.92 1821.83 1479.85 1824.92 1456.9 1826.46 1419.62 1828 1359.4 1817.21 1310.65 1807.96 1281.97 1801.79 1257.6 1797.17 1244.69 1797.17 1244.69 1797.17 1243.26 1797.17 1243.26 1797.17 1238.96 1797.17 1233.22 1800.25 1224.62 1803.33 1210.28 1807.96 1188.77 1815.67 1178.74 1809.5 1175.87 1806.42 1173 1800.25 1173 1791 1173 1778.67 1175.87 1770.96 1183.04 1766.33 1194.51 1758.63 1221.75 1766.33 1240.39 1777.13 1241.83 1777.13 1241.83 1778.67 1243.26 1778.67 1346.5 1806.42 1461.21 1815.67 1537.2 1803.33Z" fill="#98BCDA" fill-rule="evenodd"/><path d="M1551.29 1509.21C1564.17 1492.45 1569.9 1474.16 1575.62 1460.44 1579.92 1448.24 1584.21 1436.05 1589.94 1434.52 1594.23 1433 1599.96 1434.52 1607.12 1437.57 1617.14 1443.67 1618.57 1449.77 1618.57 1451.29 1620 1465.01 1604.25 1486.35 1572.76 1515.31 1572.76 1515.31 1567.03 1519.88 1567.03 1519.88 1551.29 1535.13 1526.95 1559.51 1436.77 1574.76 1346.58 1590 1297.91 1567.14 1259.26 1547.32 1247.81 1542.75 1247.81 1542.75 1247.81 1542.75 1222.04 1530.55 1202 1501.59 1202 1483.3 1202 1475.68 1206.29 1474.16 1207.73 1472.63 1207.73 1472.63 1209.16 1472.63 1209.16 1472.63 1224.9 1460.44 1234.92 1469.58 1259.26 1498.54 1282.16 1525.98 1312.23 1564.09 1366.62 1570.18 1366.62 1570.18 1368.05 1570.18 1368.05 1570.18 1421.02 1573.23 1525.52 1541.22 1551.29 1509.21Z" fill="#98BCDA" fill-rule="evenodd"/><path d="M1300.94 1554.24C1310.98 1560.36 1335.36 1568 1354 1568 1308.11 1557.3 1279.43 1525.2 1259.36 1499.21 1234.98 1470.17 1224.94 1461 1209.17 1473.23 1209.17 1473.23 1207.74 1473.23 1207.74 1473.23 1206.3 1474.76 1202 1476.29 1202 1483.93 1202 1499.21 1216.34 1523.67 1236.42 1537.43 1233.55 1532.84 1233.55 1523.67 1240.72 1522.14 1246.45 1520.61 1256.49 1529.79 1260.79 1532.84 1272.26 1540.49 1290.91 1546.6 1300.94 1554.24Z" fill="#6FA3CC" fill-rule="evenodd"/><path d="M1618.58 1451.46C1618.58 1449.92 1617.16 1443.77 1607.22 1437.62 1600.12 1434.54 1594.44 1433 1590.18 1434.54 1584.5 1436.08 1580.24 1448.38 1575.98 1460.69 1570.3 1474.54 1564.62 1493 1551.84 1509.92 1550.42 1511.46 1550.42 1511.46 1549 1513 1549 1513 1549 1513 1550.42 1513 1557.52 1506.85 1564.62 1497.62 1571.72 1489.92 1575.98 1485.31 1584.5 1474.54 1593.02 1479.15 1597.28 1482.23 1597.28 1488.38 1595.86 1494.54 1611.48 1476.08 1620 1460.69 1618.58 1451.46Z" fill="#6FA3CC" fill-rule="evenodd"/><path d="M1180.5 1412C1173.56 1412 1168 1418 1168 1424 1168 1428.5 1170.78 1433 1173.56 1436 1173.56 1428.5 1179.11 1422.5 1186.06 1424 1188.83 1424 1190.22 1425.5 1191.61 1427 1193 1427 1193 1425.5 1193 1424 1193 1418 1187.44 1412 1180.5 1412Z" fill="#6FA3CC" fill-rule="evenodd"/><path d="M1707.57 1502.55C1706.13 1494.94 1703.27 1490.37 1697.54 1487.32 1676.04 1478.18 1668.88 1484.28 1630.19 1526.92 1627.33 1529.96 1627.33 1529.96 1627.33 1529.96 1585.77 1574.13 1481.17 1622.86 1367.98 1621.34 1259.08 1619.82 1186 1549.76 1168.81 1519.3 1148.75 1481.23 1124.39 1466 1102.9 1475.14 1094.3 1479.71 1090 1487.32 1090 1496.46 1090 1496.46 1090 1496.46 1090 1497.98 1090 1511.69 1101.46 1531.49 1121.52 1549.76 1124.39 1549.76 1124.39 1549.76 1124.39 1549.76 1120.09 1543.67 1121.52 1528.44 1130.12 1526.92 1140.15 1522.35 1153.05 1537.58 1160.21 1542.15 1178.84 1560.42 1197.47 1578.7 1220.39 1592.4 1267.68 1619.82 1320.69 1624.39 1373.71 1627.43 1436.75 1632 1502.67 1610.68 1561.41 1590.88 1572.88 1587.83 1585.77 1583.27 1597.24 1578.7 1610.13 1572.61 1624.46 1560.42 1638.79 1557.38 1648.82 1554.33 1657.42 1561.95 1660.28 1571.08 1664.58 1568.04 1667.45 1566.51 1671.75 1563.47 1691.81 1548.24 1709 1520.83 1707.57 1502.55Z" fill="#6FA3CC" fill-rule="evenodd"/><path d="M1880.93 1542.11C1863.73 1533 1839.36 1540.59 1814.99 1563.36 1760.52 1611.95 1698.88 1655.97 1541.2 1677.23 1383.51 1700 1118.32 1628.65 1055.24 1592.21 1017.97 1570.95 985.004 1564.88 964.936 1575.51 953.468 1583.1 947.734 1593.73 946.3 1611.95 946.3 1611.95 946.3 1611.95 946.3 1611.95 942 1628.65 943.433 1642.31 950.601 1649.9 954.901 1652.94 959.202 1655.97 964.936 1657.49 963.502 1648.38 964.936 1628.65 972.103 1616.5 986.438 1592.21 1013.67 1601.32 1043.78 1611.95 1063.85 1621.05 1088.22 1630.16 1111.15 1633.2 1129.79 1637.75 1148.42 1640.79 1167.06 1645.35 1221.53 1660.53 1294.64 1675.71 1350.54 1684.82 1400.71 1690.89 1452.32 1692.41 1503.93 1689.37 1559.83 1684.82 1611.44 1674.19 1664.48 1657.49 1697.45 1645.35 1733.28 1630.16 1760.52 1618.02 1790.62 1605.87 1812.12 1573.99 1846.53 1575.51 1859.43 1575.51 1880.93 1596.76 1866.6 1616.5 1870.9 1616.5 1873.76 1614.98 1876.63 1613.46 1892.4 1604.35 1901 1590.69 1901 1575.51 1901 1560.33 1892.4 1548.18 1880.93 1542.11Z" fill="#6FA3CC" fill-rule="evenodd"/><path d="M1058.87 1685.5C1056 1687 1056 1690 1056 1690 1056 1694.5 1056 1699 1057.43 1700.5 1060.3 1703.5 1071.78 1705 1084.7 1705 1087.57 1705 1089 1705 1091.87 1705 1091.87 1703.5 1090.43 1702 1090.43 1699 1090.43 1684 1096.17 1682.5 1110.52 1682.5 1113.39 1682.5 1117.7 1684 1122 1684 1120.57 1684 1119.13 1682.5 1117.7 1682.5 1087.57 1675 1066.04 1679.5 1058.87 1685.5Z" fill="#6FA3CC" fill-rule="evenodd"/><path d="M1269 1734C1270.43 1737.09 1271.87 1738.64 1274.74 1741.73 1277.6 1741.73 1280.47 1743.27 1283.34 1743.27 1317.75 1749.45 1339.26 1751 1345 1746.36 1340.7 1743.27 1324.92 1737.09 1271.87 1734 1270.43 1734 1270.43 1734 1269 1734Z" fill="#6FA3CC" fill-rule="evenodd"/><path d="M1473.86 1750.92C1473.86 1747.75 1478.14 1744.58 1481 1743 1473.86 1743 1465.29 1743 1458.14 1743 1435.29 1743 1405.29 1743 1401 1747.75 1401 1754.08 1402.43 1755.67 1402.43 1755.67 1408.14 1762 1423.86 1760.42 1435.29 1758.83 1442.43 1757.25 1442.43 1757.25 1442.43 1757.25 1451 1757.25 1451 1757.25 1451 1757.25 1458.14 1757.25 1466.71 1755.67 1476.71 1755.67 1475.29 1754.08 1473.86 1752.5 1473.86 1750.92Z" fill="#6FA3CC" fill-rule="evenodd"/><path d="M1723.12 1699C1714.48 1696 1705.84 1700.5 1691.44 1708 1691.44 1708 1690 1708 1690 1709.5 1698.64 1711 1701.52 1715.5 1700.08 1723 1700.08 1723 1700.08 1723 1700.08 1723 1711.6 1723 1724.56 1711 1726 1703.5 1726 1702 1726 1700.5 1723.12 1699Z" fill="#6FA3CC" fill-rule="evenodd"/><path d="M1243.3 1778.86C1241.87 1778.86 1241.87 1777.33 1240.43 1777.33 1221.78 1766.64 1194.52 1759 1183.04 1766.64 1175.87 1771.22 1173 1778.86 1173 1791.08 1173 1800.25 1175.87 1806.36 1178.74 1809.42 1185.91 1814 1197.39 1812.47 1208.87 1807.89 1207.43 1800.25 1213.17 1792.61 1220.35 1789.56 1227.52 1786.5 1240.43 1789.56 1249.04 1791.08 1267.7 1795.67 1286.35 1798.72 1306.43 1800.25 1327.96 1801.78 1349.48 1801.78 1371 1803.31 1329.39 1798.72 1284.91 1789.56 1243.3 1778.86Z" fill="#6FA3CC" fill-rule="evenodd"/><path d="M1713.56 1772.19C1713.56 1766.13 1710.68 1763.1 1707.81 1761.58 1694.86 1754 1671.84 1757.03 1658.89 1763.1 1647.39 1767.65 1647.39 1767.65 1647.39 1767.65 1621.49 1778.26 1589.84 1790.39 1552.44 1797.97 1551 1801 1551 1801 1551 1801 1578.33 1791.9 1608.54 1799.48 1634.44 1790.39 1647.39 1787.35 1656.02 1781.29 1667.53 1790.39 1670.4 1791.9 1671.84 1794.94 1673.28 1797.97 1693.42 1794.94 1707.81 1790.39 1712.12 1782.81 1713.56 1781.29 1715 1778.26 1713.56 1772.19 1713.56 1772.19 1713.56 1772.19 1713.56 1772.19Z" fill="#6FA3CC" fill-rule="evenodd"/><path d="M1139 1767.94C1139 1766.38 1137.56 1764.82 1137.56 1764.82 1130.36 1752.35 1115.96 1743 1107.32 1743 1091.48 1743 1074.2 1749.24 1068.44 1763.26 1068.44 1766.38 1067 1769.5 1067 1772.62 1067 1778.85 1068.44 1783.53 1071.32 1786.65 1075.64 1791.32 1079.96 1794.44 1087.16 1796 1092.92 1796 1092.92 1796 1092.92 1796 1077.08 1791.32 1092.92 1772.62 1100.12 1767.94 1107.32 1763.26 1113.08 1763.26 1120.28 1764.82 1126.04 1764.82 1133.24 1767.94 1139 1767.94Z" fill="#6FA3CC" fill-rule="evenodd"/><path d="M938.531 1610.44C928.5 1653.24 952.861 1674.64 992.985 1663.94 1031.68 1653.24 1070.37 1636.42 1146.32 1667 1222.27 1697.57 1326.88 1720.5 1442.95 1715.91 1559.02 1711.33 1683.69 1677.7 1748.18 1651.71 1812.66 1625.72 1847.06 1637.95 1880.01 1621.14 1944.5 1587.51 1894.34 1480.5 1809.8 1555.4 1759.64 1601.26 1699.46 1648.65 1541.83 1670.05 1382.76 1691.46 1119.09 1619.61 1060.34 1584.45 1000.15 1550.82 944.263 1550.82 938.531 1610.44Z" stroke="#333333" stroke-width="2.86476" stroke-linecap="round" stroke-linejoin="round" stroke-miterlimit="10" fill="none" fill-rule="evenodd"/><path d="M1099.19 1467.65C1060.5 1488.99 1092.02 1553.02 1160.8 1583.52 1208.08 1604.86 1271.13 1644.5 1387.19 1644.5 1503.25 1644.5 1625.04 1607.91 1676.62 1571.32 1709.57 1546.93 1732.5 1495.09 1700.98 1479.84 1672.32 1467.65 1662.29 1479.84 1622.17 1524.06 1583.49 1566.75 1478.89 1614.01 1368.56 1612.48 1258.23 1610.96 1189.46 1537.78 1176.56 1514.91 1149.34 1464.6 1119.25 1458.5 1099.19 1467.65Z" stroke="#333333" stroke-width="2.86476" stroke-linecap="round" stroke-linejoin="round" stroke-miterlimit="10" fill="none" fill-rule="evenodd"/><path d="M1368.75 1561.99C1423.23 1565.03 1523.6 1534.63 1546.54 1504.24 1578.08 1463.21 1569.48 1408.5 1612.49 1431.3 1655.5 1454.09 1595.28 1507.28 1578.08 1524 1560.87 1539.19 1540.8 1566.55 1439.01 1583.26 1337.21 1601.5 1285.6 1571.11 1245.45 1551.35 1205.31 1533.11 1179.5 1478.41 1205.31 1466.25 1254.05 1432.81 1269.83 1551.35 1368.75 1561.99Z" stroke="#333333" stroke-width="2.86476" stroke-linecap="round" stroke-linejoin="round" stroke-miterlimit="10" fill="none" fill-rule="evenodd"/><path d="M1354.63 1748.31C1350.33 1760.5 1333.14 1760.5 1284.41 1752.88 1208.45 1739.17 1172.62 1722.4 1119.59 1716.31 1068 1710.21 1046.5 1720.88 1047.93 1690.4 1047.93 1673.64 1079.46 1664.5 1119.59 1675.17 1161.15 1684.31 1222.78 1723.93 1272.94 1726.98 1323.1 1728.5 1357.5 1734.6 1354.63 1748.31Z" stroke="#333333" stroke-width="2.86476" stroke-linecap="round" stroke-linejoin="round" stroke-miterlimit="10" fill="none" fill-rule="evenodd"/><path d="M1518.74 1734.81C1448.69 1737.86 1395.79 1730.24 1392.93 1747.01 1391.5 1777.5 1427.24 1768.35 1444.4 1766.83 1461.56 1765.3 1534.47 1760.73 1584.51 1750.06 1634.55 1737.86 1677.44 1730.24 1700.32 1731.76 1723.19 1733.29 1747.5 1699.75 1726.05 1692.12 1704.61 1684.5 1688.88 1705.84 1656 1714.99 1641.7 1719.57 1571.64 1733.29 1518.74 1734.81Z" stroke="#333333" stroke-width="2.86476" stroke-linecap="round" stroke-linejoin="round" stroke-miterlimit="10" fill="none" fill-rule="evenodd"/><path d="M1062.08 1760.54C1053.5 1792.71 1076.39 1806.5 1100.71 1804.97 1125.03 1804.97 1142.19 1803.44 1149.35 1783.52 1156.5 1765.14 1127.89 1734.5 1107.86 1734.5 1089.26 1734.5 1069.24 1743.69 1062.08 1760.54Z" stroke="#333333" stroke-width="2.86476" stroke-linecap="round" stroke-linejoin="round" stroke-miterlimit="10" fill="none" fill-rule="evenodd"/><path d="M1159.5 1425.5C1159.5 1413.35 1168.68 1403.5 1180 1403.5 1191.32 1403.5 1200.5 1413.35 1200.5 1425.5 1200.5 1437.65 1191.32 1447.5 1180 1447.5 1168.68 1447.5 1159.5 1437.65 1159.5 1425.5Z" stroke="#333333" stroke-width="2.86476" stroke-linecap="round" stroke-linejoin="round" stroke-miterlimit="10" fill="none" fill-rule="evenodd"/><path d="M1245.58 1805.05C1228.42 1806.58 1166.93 1846.5 1166.93 1791.23 1165.5 1737.5 1219.84 1755.92 1245.58 1769.74 1354.26 1800.44 1467.24 1806.58 1535.88 1794.3 1585.93 1785.09 1624.54 1768.2 1656 1754.39 1674.59 1746.71 1718.92 1742.11 1721.78 1771.27 1727.5 1801.98 1688.89 1808.12 1607.38 1815.8 1538.74 1821.94 1504.42 1832.68 1458.66 1835.75 1397.16 1838.82 1279.9 1808.12 1245.58 1805.05Z" stroke="#333333" stroke-width="2.86476" stroke-linecap="round" stroke-linejoin="round" stroke-miterlimit="10" fill="none" fill-rule="evenodd"/><path d="M1541.2 1677.92C1698.88 1656.56 1760.52 1612.32 1814.99 1563.51 1839.36 1540.63 1863.73 1533 1880.93 1542.15 1892.4 1548.25 1901 1560.46 1901 1575.71 1901 1590.97 1892.4 1604.69 1876.63 1613.85 1862.3 1619.95 1847.96 1621.47 1830.76 1624.53 1807.82 1626.05 1780.59 1629.1 1744.75 1642.83 1690.28 1664.19 1565.56 1702.32 1442.29 1706.9 1304.67 1713 1200.03 1679.44 1148.42 1659.61 1079.61 1630.63 1038.04 1642.83 1002.21 1651.98 989.305 1656.56 989.305 1656.56 989.305 1656.56 972.103 1659.61 959.202 1658.08 950.601 1650.46 943.433 1642.83 942 1629.1 946.3 1612.32 946.3 1612.32 946.3 1612.32 946.3 1612.32 947.734 1594.02 953.468 1583.34 964.936 1575.71 985.004 1565.03 1017.97 1571.14 1055.24 1592.49 1118.32 1629.1 1383.51 1700.8 1541.2 1677.92Z" stroke="#FFFFFF" stroke-width="1.71893" stroke-linecap="round" stroke-linejoin="round" stroke-miterlimit="10" fill="none" fill-rule="evenodd"/><path d="M1168.81 1519.29C1186 1549.74 1259.08 1619.77 1367.98 1621.3 1481.17 1622.82 1585.77 1574.1 1627.33 1529.95 1630.19 1526.9 1630.19 1526.9 1630.19 1526.9 1668.88 1484.27 1676.04 1478.18 1697.54 1487.32 1703.27 1490.36 1706.13 1494.93 1707.57 1502.54 1709 1520.81 1691.81 1548.22 1671.75 1563.44 1623.03 1598.46 1502.67 1635 1386.6 1635 1289.17 1635 1231.85 1607.59 1186 1586.28 1163.08 1575.62 1163.08 1575.62 1163.08 1575.62 1117.22 1555.83 1091.43 1520.81 1090 1497.97 1090 1496.45 1090 1496.45 1090 1496.45 1090 1487.32 1094.3 1479.7 1102.9 1475.14 1124.39 1466 1148.75 1481.23 1168.81 1519.29Z" stroke="#FFFFFF" stroke-width="1.71893" stroke-linecap="round" stroke-linejoin="round" stroke-miterlimit="10" fill="none" fill-rule="evenodd"/><path d="M1551.29 1509.21C1564.17 1492.45 1569.9 1474.16 1575.62 1460.44 1579.92 1448.24 1584.21 1436.05 1589.94 1434.52 1594.23 1433 1599.96 1434.52 1607.12 1437.57 1617.14 1443.67 1618.57 1449.77 1618.57 1451.29 1620 1465.01 1604.25 1486.35 1572.76 1515.31 1572.76 1515.31 1567.03 1519.88 1567.03 1519.88 1551.29 1535.13 1526.95 1559.51 1436.77 1574.76 1346.58 1590 1297.91 1567.14 1259.26 1547.32 1247.81 1542.75 1247.81 1542.75 1247.81 1542.75 1222.04 1530.55 1202 1501.59 1202 1483.3 1202 1475.68 1206.29 1474.16 1207.73 1472.63 1207.73 1472.63 1209.16 1472.63 1209.16 1472.63 1224.9 1460.44 1234.92 1469.58 1259.26 1498.54 1282.16 1525.98 1312.23 1564.09 1366.62 1570.18 1366.62 1570.18 1368.05 1570.18 1368.05 1570.18 1421.02 1573.23 1525.52 1541.22 1551.29 1509.21Z" stroke="#FFFFFF" stroke-width="1.71893" stroke-linecap="round" stroke-linejoin="round" stroke-miterlimit="10" fill="none" fill-rule="evenodd"/><path d="M1283.48 1743.4C1249.14 1737.32 1221.96 1729.72 1197.64 1723.64 1171.89 1716.04 1149 1709.96 1120.38 1706.92 1106.07 1705.4 1094.63 1705.4 1084.61 1705.4 1071.74 1705.4 1060.29 1703.88 1057.43 1700.84 1056 1699.32 1056 1694.76 1056 1690.2 1056 1690.2 1056 1687.16 1058.86 1685.64 1066.01 1679.56 1087.48 1675 1117.52 1682.6 1133.26 1687.16 1151.86 1694.76 1171.89 1703.88 1203.36 1717.56 1239.13 1732.76 1272.03 1734.28 1324.97 1737.32 1340.71 1743.4 1345 1746.44 1339.28 1751 1317.82 1749.48 1283.48 1743.4Z" stroke="#FFFFFF" stroke-width="1.71893" stroke-linecap="round" stroke-linejoin="round" stroke-miterlimit="10" fill="none" fill-rule="evenodd"/><path d="M1518.4 1743.58C1518.4 1743.58 1518.4 1743.58 1518.4 1743.58 1571.37 1740.51 1641.53 1726.7 1657.28 1723.63 1671.59 1719.02 1683.05 1712.88 1691.64 1708.28 1705.96 1700.6 1714.55 1696 1723.14 1699.07 1726 1700.6 1726 1702.14 1726 1703.67 1724.57 1711.35 1711.68 1723.63 1700.23 1723.63 1673.03 1722.09 1621.48 1731.3 1582.83 1740.51 1538.44 1751.26 1478.31 1755.86 1451.11 1757.4 1442.52 1757.4 1442.52 1757.4 1442.52 1757.4 1435.36 1758.93 1435.36 1758.93 1435.36 1758.93 1423.91 1760.47 1408.16 1762 1402.43 1755.86 1402.43 1755.86 1401 1754.33 1401 1748.19 1405.3 1743.58 1435.36 1743.58 1458.27 1743.58 1475.45 1743.58 1496.93 1745.12 1518.4 1743.58Z" stroke="#FFFFFF" stroke-width="1.71893" stroke-linecap="round" stroke-linejoin="round" stroke-miterlimit="10" fill="none" fill-rule="evenodd"/><path d="M1107.15 1743C1115.75 1743 1130.09 1752.26 1137.26 1764.6 1141.57 1770.77 1143 1776.94 1141.57 1780.03 1137.26 1793.91 1125.79 1795.46 1099.98 1797 1087.08 1797 1077.04 1793.91 1071.3 1786.2 1068.43 1783.11 1067 1778.49 1067 1772.31 1067 1769.23 1068.43 1766.14 1068.43 1763.06 1074.17 1749.17 1091.38 1743 1107.15 1743Z" stroke="#FFFFFF" stroke-width="1.71893" stroke-linecap="round" stroke-linejoin="round" stroke-miterlimit="10" fill="none" fill-rule="evenodd"/><path d="M1168 1425C1168 1417.82 1173.6 1412 1180.5 1412 1187.4 1412 1193 1417.82 1193 1425 1193 1432.18 1187.4 1438 1180.5 1438 1173.6 1438 1168 1432.18 1168 1425Z" stroke="#FFFFFF" stroke-width="1.71893" stroke-linecap="round" stroke-linejoin="round" stroke-miterlimit="10" fill="none" fill-rule="evenodd"/><path d="M1537.2 1803.33C1581.65 1794.08 1618.93 1780.21 1647.61 1767.88 1659.08 1763.25 1659.08 1763.25 1659.08 1763.25 1671.98 1757.08 1694.93 1754 1707.83 1761.71 1710.7 1763.25 1713.57 1766.33 1713.57 1772.5 1713.57 1772.5 1713.57 1772.5 1713.57 1772.5 1715 1778.67 1713.57 1781.75 1712.13 1783.29 1702.1 1797.17 1657.65 1801.79 1607.46 1807.96 1571.61 1811.04 1545.8 1814.12 1522.86 1818.75 1499.92 1821.83 1479.85 1824.92 1456.9 1826.46 1419.62 1828 1359.4 1817.21 1310.65 1807.96 1281.97 1801.79 1257.6 1797.17 1244.69 1797.17 1244.69 1797.17 1243.26 1797.17 1243.26 1797.17 1238.96 1797.17 1233.22 1800.25 1224.62 1803.33 1210.28 1807.96 1188.77 1815.67 1178.74 1809.5 1175.87 1806.42 1173 1800.25 1173 1791 1173 1778.67 1175.87 1770.96 1183.04 1766.33 1194.51 1758.63 1221.75 1766.33 1240.39 1777.13 1241.83 1777.13 1241.83 1778.67 1243.26 1778.67 1346.5 1806.42 1461.21 1815.67 1537.2 1803.33Z" stroke="#FFFFFF" stroke-width="1.71893" stroke-linecap="round" stroke-linejoin="round" stroke-miterlimit="10" fill="none" fill-rule="evenodd"/><path d="M1745 1520C1745 1505.64 1755.75 1494 1769 1494 1782.25 1494 1793 1505.64 1793 1520 1793 1534.36 1782.25 1546 1769 1546 1755.75 1546 1745 1534.36 1745 1520Z" fill="#E5EDF5" fill-rule="evenodd"/><path d="M1752 1520.5C1752 1510.28 1759.61 1502 1769 1502 1778.39 1502 1786 1510.28 1786 1520.5 1786 1530.72 1778.39 1539 1769 1539 1759.61 1539 1752 1530.72 1752 1520.5Z" fill="#98BCDA" fill-rule="evenodd"/><path d="M1786 1525.33C1786 1523.78 1786 1522.22 1786 1520.67 1786 1509.78 1778.92 1502 1769 1502 1760.5 1502 1752 1509.78 1752 1520.67 1752 1523.78 1753.42 1526.89 1754.83 1530 1756.25 1523.78 1760.5 1517.56 1767.58 1516 1776.08 1514.44 1780.33 1519.11 1786 1525.33Z" fill="#6FA3CC" fill-rule="evenodd"/><path d="M1745.5 1520.5C1745.5 1506.14 1756.25 1494.5 1769.5 1494.5 1782.75 1494.5 1793.5 1506.14 1793.5 1520.5 1793.5 1534.86 1782.75 1546.5 1769.5 1546.5 1756.25 1546.5 1745.5 1534.86 1745.5 1520.5Z" stroke="#333333" stroke-width="2.86476" stroke-linecap="round" stroke-linejoin="round" stroke-miterlimit="10" fill="none" fill-rule="evenodd"/><path d="M1752 1520.5C1752 1510.28 1759.61 1502 1769 1502 1778.39 1502 1786 1510.28 1786 1520.5 1786 1530.72 1778.39 1539 1769 1539 1759.61 1539 1752 1530.72 1752 1520.5Z" stroke="#FFFFFF" stroke-width="1.71893" stroke-linecap="round" stroke-linejoin="round" stroke-miterlimit="10" fill="none" fill-rule="evenodd"/></g></svg>