<svg width="963" height="484" xmlns="http://www.w3.org/2000/svg" xmlns:xlink="http://www.w3.org/1999/xlink" xml:space="preserve" overflow="hidden"><g transform="translate(-910 -714)"><path d="M1589.46 912.273C1539.33 949 1474.88 944.409 1407.56 924.515 1338.82 904.621 1237.12 849.53 1185.56 817.394 1134 786.788 1189.86 747 1248.58 765.364 1307.31 785.258 1317.33 838.818 1377.49 872.485 1436.21 906.152 1496.37 892.379 1539.33 863.303 1582.3 834.227 1605.22 820.455 1625.27 846.47 1631 863.303 1629.57 884.727 1589.46 912.273Z" fill="#E5EDF5" fill-rule="evenodd"/><path d="M1852 971.974C1852 920.221 1819.04 905 1741.64 950.664 1662.82 994.805 1624.12 1013.07 1572.53 1026.77 1520.93 1041.99 1498 1054.17 1513.77 1066.35 1528.1 1077 1601.19 1058.73 1647.05 1046.56 1691.48 1034.38 1741.64 1023.73 1778.91 1029.81 1816.17 1035.9 1844.83 1005.46 1852 971.974Z" fill="#E5EDF5" fill-rule="evenodd"/><path d="M1025.03 915.394C1015 874.324 1065.14 851.507 1126.74 866.718 1189.77 881.93 1297.21 957.986 1407.51 979.282 1516.38 1002.1 1565.09 1006.66 1651.04 951.901 1735.56 897.141 1817.21 815 1857.32 843.901 1896 872.803 1840.13 884.972 1795.72 901.704 1751.32 919.958 1672.53 973.197 1623.82 994.493 1575.12 1017.31 1489.16 1031 1406.08 1008.18 1324.42 986.887 1255.66 954.944 1182.6 956.465 1109.55 957.986 1036.49 957.986 1025.03 915.394Z" fill="#E5EDF5" fill-rule="evenodd"/><path d="M1074.23 845.439C1132.84 833.192 1212.9 885.239 1271.51 917.385 1330.13 948 1353 920.446 1315.83 902.077 1280.09 885.239 1205.75 851.562 1168.58 822.477 1129.98 791.862 1101.39 759.715 1062.79 755.123 1024.19 749 957 782.677 968.437 825.539 978.444 857.685 1024.19 860.746 1074.23 845.439Z" fill="#E5EDF5" fill-rule="evenodd"/><path d="M1466.86 962.925C1464 946.053 1486.9 961.391 1526.97 952.188 1567.04 942.985 1637.16 923.045 1687.25 831.015 1715.88 786.534 1733.05 785 1760.24 804.94 1786 824.88 1747.36 857.09 1720.17 886.233 1694.41 913.842 1614.27 970.594 1559.88 979.797 1505.5 989 1464 978.263 1466.86 962.925Z" fill="#E5EDF5" fill-rule="evenodd"/><path d="M1392.41 806.896C1381 853.015 1413.79 873 1448.01 871.463 1482.23 868.388 1506.47 866.851 1516.45 840.716 1525 813.045 1485.08 770 1456.56 770 1430.9 770 1402.39 782.299 1392.41 806.896Z" fill="#E5EDF5" fill-rule="evenodd"/><path d="M1456.86 783C1469.76 783 1488.38 796.68 1499.84 813.4 1505.57 822.52 1507 830.12 1505.57 836.2 1499.84 852.92 1484.08 855.96 1446.84 859 1429.65 859 1415.32 854.44 1406.73 843.8 1403.86 839.24 1401 833.16 1401 825.56 1401 821 1402.43 816.44 1403.86 811.88 1411.03 793.64 1435.38 783 1456.86 783Z" fill="#98BCDA" fill-rule="evenodd"/><path d="M1081.21 1105.19C1095.52 1111.29 1129.86 1135.67 1158.48 1135.67 1187.1 1134.14 1245.78 1138.71 1284.41 1141.76 1321.62 1143.29 1370.28 1094.52 1373.14 1152.43 1376 1221 1320.19 1189 1297.29 1181.38 1274.4 1173.76 1248.64 1172.24 1207.14 1167.67 1164.21 1164.62 1101.24 1164.62 1084.07 1172.24 1066.9 1179.86 1046.86 1158.52 1045.43 1134.14 1044 1118.9 1055.45 1093 1081.21 1105.19Z" fill="#E5EDF5" fill-rule="evenodd"/><path d="M1084.08 1074.45C1081.21 1118.89 1129.89 1109.69 1172.83 1097.43 1215.78 1085.17 1297.37 1085.17 1363.22 1102.03 1429.07 1118.89 1469.16 1135.74 1545.03 1141.87 1620.9 1148 1662.41 1148 1666.71 1102.03 1671 1056.06 1600.86 1069.85 1583.68 1082.11 1566.5 1094.37 1529.28 1100.5 1462 1092.83 1394.72 1085.17 1338.89 1066.78 1323.14 1065.25 1307.39 1063.72 1303.1 1034.6 1348.91 1048.4 1396.15 1063.72 1429.07 1072.91 1433.37 1056.06 1446.25 1030.01 1420.48 1023.88 1376.11 1019.28 1331.73 1013.15 1271.61 979.439 1192.87 985.568 1114.14 993.23 1066.9 979.439 1005.34 956.453 942.356 935 916.589 957.986 912.294 982.504 908 1005.49 938.062 1031.54 1006.77 1017.75 1076.92 1002.42 1151.36 1023.88 1202.89 1025.41 1220.07 1023.88 1225.8 1031.54 1221.5 1048.4 1217.21 1065.25 1185.71 1054.53 1162.81 1051.46 1139.91 1048.4 1084.08 1037.67 1084.08 1074.45Z" fill="#E5EDF5" fill-rule="evenodd"/><path d="M1409.6 915.174C1339.46 895.391 1236.41 837.565 1190.61 810.174 1184.88 807.131 1172 798 1174.86 788.87 1180.59 775.174 1212.08 763 1246.43 775.174 1276.49 784.304 1292.23 802.565 1310.84 825.391 1326.58 843.652 1345.19 863.435 1373.81 880.174 1426.77 910.609 1489.75 907.565 1544.14 871.044 1591.37 840.609 1604.26 834.522 1618.57 851.261 1618.57 854.304 1620 855.826 1620 860.391 1620 869.522 1614.27 884.739 1585.65 904.522 1542.71 934.957 1488.32 938 1409.6 915.174Z" fill="#98BCDA" fill-rule="evenodd"/><path d="M1575.27 1036.04C1625.38 1020.83 1664.04 1004.09 1744.21 958.435 1797.18 928 1820.09 929.522 1830.11 937.131 1838.7 941.696 1843 953.87 1843 970.609 1837.27 998 1812.93 1025.39 1780 1020.83 1747.07 1016.26 1702.69 1020.83 1643.99 1037.57 1538.04 1068 1520.86 1060.39 1518 1058.87 1520.86 1055.83 1532.32 1048.22 1575.27 1036.04Z" fill="#98BCDA" fill-rule="evenodd"/><path d="M1655.58 959.508C1678.51 944.266 1702.88 927.5 1724.38 910.734 1778.86 871.105 1829.03 833 1851.97 851.29 1860.57 857.387 1862 860.435 1862 861.96 1860.57 868.056 1833.33 878.726 1816.13 884.822 1793.19 893.968 1793.19 893.968 1793.19 893.968 1768.82 903.113 1734.42 922.927 1700.01 942.742 1671.34 959.508 1642.67 976.274 1619.74 986.943 1572.43 1008.28 1489.29 1022 1409.01 1000.66 1384.64 993.04 1363.14 986.943 1340.2 979.323 1287.16 962.556 1235.56 945.79 1181.08 947.314 1116.58 948.839 1043.47 948.839 1033.43 913.782 1032 910.734 1032 907.685 1032 906.161 1032 898.54 1034.87 892.443 1039.17 887.871 1053.5 871.105 1087.91 866.532 1125.18 874.153 1149.55 880.25 1182.52 897.016 1221.22 916.831 1277.13 944.266 1340.2 976.274 1404.71 988.468 1517.96 1011.33 1568.13 1015.9 1655.58 959.508Z" fill="#98BCDA" fill-rule="evenodd"/><path d="M976.865 822.132C974 812.962 976.865 803.792 982.596 794.623 999.788 773.226 1038.47 761 1062.82 764.057 1090.04 767.113 1112.97 785.453 1138.76 808.377 1163.11 828.245 1163.11 828.245 1163.11 828.245 1196.06 855.755 1256.23 883.264 1296.35 903.132 1313.54 910.774 1313.54 910.774 1313.54 910.774 1320.7 913.83 1323.57 918.415 1325 919.943 1320.7 923 1304.94 923 1276.29 907.717 1249.07 893.962 1249.07 893.962 1249.07 893.962 1193.2 863.396 1125.86 825.189 1071.42 837.415 1071.42 837.415 1071.42 837.415 1071.42 837.415 1031.31 849.642 985.461 849.642 976.865 822.132Z" fill="#98BCDA" fill-rule="evenodd"/><path d="M1475 964.226C1475 964.226 1475 964.226 1475 964.226 1475 964.226 1475 964.226 1475 964.226 1475 964.226 1475 964.226 1475 964.226ZM1527.99 961.165C1579.55 948.922 1645.43 924.435 1694.12 835.669 1707.01 815.774 1718.47 805.061 1727.06 803.53 1734.22 802 1742.81 805.061 1754.27 812.713 1758.57 815.774 1760 818.835 1760 820.365 1760 832.609 1741.38 850.974 1725.63 866.278 1714.17 878.522 1714.17 878.522 1714.17 878.522 1688.39 906.07 1609.62 962.696 1558.07 970.348 1507.94 978 1479.3 968.817 1475 964.226 1477.86 964.226 1480.73 964.226 1483.59 964.226 1493.62 964.226 1509.37 965.756 1527.99 961.165Z" fill="#98BCDA" fill-rule="evenodd"/><path d="M1068.33 1161.8C1061.17 1157.19 1054 1144.89 1054 1134.13 1054 1126.44 1056.87 1117.22 1062.6 1112.61 1064.03 1112.61 1066.9 1108 1076.93 1114.15 1076.93 1114.15 1078.36 1114.15 1078.36 1114.15 1092.7 1121.83 1092.7 1121.83 1092.7 1121.83 1111.33 1131.06 1137.12 1144.89 1158.62 1144.89 1177.25 1144.89 1208.78 1146.43 1238.88 1147.96 1284.74 1151.04 1284.74 1151.04 1284.74 1151.04 1299.07 1151.04 1314.84 1144.89 1327.74 1140.28 1340.64 1135.67 1353.53 1131.06 1359.27 1134.13 1362.13 1137.2 1363.57 1143.35 1365 1152.57 1365 1163.33 1363.57 1178.7 1357.83 1183.31 1347.8 1191 1326.3 1183.31 1311.97 1177.17 1300.51 1172.56 1300.51 1172.56 1300.51 1172.56 1277.58 1164.87 1250.35 1163.33 1210.22 1158.72 1207.35 1158.72 1207.35 1158.72 1207.35 1158.72 1167.22 1155.65 1101.29 1155.65 1081.23 1164.87 1075.5 1166.41 1071.2 1164.87 1068.33 1161.8Z" fill="#98BCDA" fill-rule="evenodd"/><path d="M925.729 997.738C922.864 994.688 920 990.115 921.432 984.016 922.864 977.918 925.729 968.77 935.754 962.672 945.779 956.574 965.829 952 1003.07 965.721 1063.22 987.065 1111.91 1002.31 1194.98 994.688 1245.1 991.639 1286.64 1003.84 1323.87 1014.51 1342.49 1020.61 1359.68 1025.18 1375.43 1028.23 1389.75 1029.75 1424.12 1032.8 1428.42 1041.95 1429.85 1045 1428.42 1048.05 1426.99 1051.1 1426.99 1051.1 1426.99 1052.62 1425.56 1052.62 1425.56 1054.15 1425.56 1054.15 1425.56 1054.15 1416.96 1060.25 1381.16 1048.05 1351.08 1040.43 1325.3 1031.28 1312.41 1037.38 1308.12 1041.95 1303.82 1048.05 1302.39 1054.15 1305.25 1060.25 1308.12 1067.87 1313.85 1072.44 1322.44 1073.97 1326.74 1073.97 1336.76 1077.02 1349.65 1080.07 1376.86 1086.16 1415.53 1095.31 1461.36 1101.41 1524.38 1107.51 1567.34 1104.46 1588.82 1089.21 1600.28 1080.07 1636.09 1072.44 1651.84 1083.11 1654.7 1084.64 1659 1089.21 1659 1099.89 1654.7 1134.95 1627.49 1138 1545.86 1131.9 1490 1127.33 1454.2 1116.66 1412.67 1104.46 1365.41 1092.26 1365.41 1092.26 1365.41 1092.26 1302.39 1075.49 1217.89 1073.97 1170.63 1087.69 1154.88 1092.26 1111.91 1104.46 1097.59 1092.26 1096.16 1090.74 1091.86 1086.16 1093.29 1073.97 1093.29 1073.97 1093.29 1073.97 1093.29 1073.97 1093.29 1066.34 1094.72 1064.82 1096.16 1063.3 1107.61 1052.62 1140.55 1057.2 1156.31 1058.72 1162.04 1060.25 1162.04 1060.25 1162.04 1060.25 1176.36 1061.77 1176.36 1061.77 1176.36 1061.77 1197.84 1066.34 1225.05 1070.92 1229.35 1049.57 1232.21 1038.9 1232.21 1029.75 1227.92 1023.66 1220.76 1016.03 1210.73 1014.51 1202.14 1016.03 1186.38 1014.51 1167.77 1012.98 1147.71 1009.93 1103.32 1003.84 1054.62 997.738 1005.93 1008.41 950.075 1019.08 930.025 1003.84 925.729 997.738Z" fill="#98BCDA" fill-rule="evenodd"/><path d="M1618.57 851.184C1604.26 834.459 1591.37 840.541 1544.14 870.949 1489.75 907.439 1426.77 910.48 1373.81 880.071 1345.19 863.347 1326.58 843.582 1310.84 825.337 1292.23 802.531 1276.49 784.286 1246.43 775.163 1212.08 763 1180.59 775.163 1174.86 788.847 1172 797.969 1184.88 807.092 1190.61 810.133 1197.76 814.694 1207.78 820.776 1217.8 826.857 1217.8 817.735 1229.25 808.612 1236.41 807.092 1250.72 804.051 1272.19 817.735 1285.07 825.337 1313.7 846.622 1339.46 875.51 1373.81 889.194 1389.56 895.276 1403.87 901.357 1419.62 905.918 1442.52 912 1466.85 912 1491.18 908.959 1499.77 907.439 1511.22 907.439 1519.81 904.398 1531.26 901.357 1541.28 893.755 1552.73 892.235 1562.75 892.235 1569.9 896.796 1572.77 907.439 1574.2 908.959 1574.2 910.48 1574.2 912 1578.49 910.48 1581.35 907.439 1585.65 904.398 1614.27 884.633 1620 869.429 1620 860.306 1620 855.745 1618.57 854.224 1618.57 851.184Z" fill="#6FA3CC" fill-rule="evenodd"/><path d="M1456.86 783C1435.38 783 1411.03 793.652 1403.86 811.913 1402.43 816.478 1401 821.043 1401 825.609 1401 833.217 1403.86 839.304 1406.73 843.869 1409.59 846.913 1413.89 849.956 1416.76 853 1409.59 833.217 1438.24 811.913 1454 811.913 1471.19 811.913 1492.68 824.087 1505.57 836.261 1505.57 836.261 1505.57 836.261 1505.57 836.261 1507 830.174 1505.57 822.565 1499.84 813.435 1488.38 796.696 1469.76 783 1456.86 783Z" fill="#6FA3CC" fill-rule="evenodd"/><path d="M1313.54 910.774C1296.35 903.132 1296.35 903.132 1296.35 903.132 1256.23 883.264 1196.06 855.755 1163.11 828.245 1138.76 808.377 1138.76 808.377 1138.76 808.377 1112.97 785.453 1090.04 767.113 1062.82 764.057 1038.47 761 999.788 773.226 982.596 794.623 976.865 803.792 974 812.962 976.865 822.132 984.028 845.057 1019.84 849.642 1054.23 840.472 1055.66 840.472 1055.66 840.472 1055.66 840.472 1035.6 851.17 1031.31 819.076 1041.33 806.849 1054.23 788.509 1077.15 797.679 1091.48 808.377 1105.8 819.076 1118.7 826.717 1134.46 831.302 1153.08 837.415 1171.71 845.057 1187.47 854.226 1204.66 864.925 1226.15 874.094 1240.47 887.849 1241.91 889.377 1241.91 889.377 1243.34 889.377 1244.77 890.906 1246.2 892.434 1249.07 893.962 1276.29 907.717 1276.29 907.717 1276.29 907.717 1304.94 923 1320.7 923 1325 919.943 1323.57 918.415 1320.7 913.83 1313.54 910.774Z" fill="#6FA3CC" fill-rule="evenodd"/><path d="M1754.27 812.688C1742.82 805.054 1734.22 802 1727.06 803.527 1718.47 805.054 1707.02 815.742 1694.13 835.591 1661.19 895.14 1621.1 925.677 1581 944 1583.86 942.473 1588.16 942.473 1591.02 940.946 1603.91 937.892 1618.23 930.258 1631.12 924.15 1648.3 913.462 1664.06 898.193 1679.81 885.978 1695.56 870.71 1704.15 850.86 1719.9 835.591 1728.5 827.957 1754.27 818.796 1755.7 834.064 1758.57 829.484 1760 824.903 1760 820.323 1760 818.796 1758.57 815.742 1754.27 812.688Z" fill="#6FA3CC" fill-rule="evenodd"/><path d="M1862 862C1862 860.5 1860.56 857.5 1851.93 851.5 1833.23 838 1798.71 857.5 1757 886 1762.75 883 1769.95 881.5 1775.7 878.5 1784.33 875.5 1792.96 871 1801.59 874 1807.34 877 1810.22 881.5 1811.66 886 1815.97 884.5 1815.97 884.5 1815.97 884.5 1833.23 878.5 1860.56 868 1862 862Z" fill="#6FA3CC" fill-rule="evenodd"/><path d="M1321 963C1286.49 949.143 1251.98 932.206 1221.79 916.809 1182.97 896.794 1149.9 879.857 1125.46 873.698 1088.07 866 1053.57 870.619 1039.19 887.555 1034.88 892.174 1032 898.333 1032 906.032 1032 907.571 1032 910.651 1033.44 913.73 1036.31 922.968 1043.5 930.667 1053.57 935.286 1053.57 932.206 1052.13 930.667 1052.13 927.587 1052.13 916.809 1057.88 912.19 1067.95 909.111 1089.51 901.413 1116.83 907.571 1138.4 913.73 1165.72 924.508 1194.47 929.127 1224.67 932.206 1251.98 936.825 1289.37 955.301 1321 963Z" fill="#6FA3CC" fill-rule="evenodd"/><path d="M1018.43 990.194C1039.83 993.25 1062.66 990.194 1084.06 993.25 1095.47 994.778 1106.88 997.833 1118.29 996.305 1119.72 996.305 1122.57 996.305 1124 996.305 1078.35 991.722 1042.69 981.028 1002.74 965.75 965.65 952 945.678 956.583 935.692 962.694 925.706 968.805 922.853 977.972 921.426 984.083 920 990.194 922.853 994.778 925.706 997.833 927.133 1000.89 931.412 1003.94 938.545 1007 937.119 991.722 954.238 982.555 967.077 981.028 984.196 977.972 1001.31 987.139 1018.43 990.194Z" fill="#6FA3CC" fill-rule="evenodd"/><path d="M1334.66 1035.82C1340.38 1037.33 1344.67 1037.33 1350.39 1040.36 1380.4 1047.91 1416.14 1060 1424.71 1053.96 1424.71 1053.96 1424.71 1053.96 1424.71 1052.44 1426.14 1052.44 1426.14 1050.93 1426.14 1050.93 1427.57 1047.91 1429 1044.89 1427.57 1041.87 1423.28 1032.8 1388.98 1029.78 1374.68 1028.27 1358.96 1025.24 1341.81 1020.71 1323.23 1014.67 1286.07 1004.09 1244.61 992 1194.59 995.022 1184.58 996.533 1174.58 996.533 1166 996.533 1184.58 999.556 1204.59 1001.07 1223.17 1004.09 1240.33 1008.62 1257.48 1011.64 1274.63 1014.67 1291.78 1019.2 1326.09 1017.69 1334.66 1035.82Z" fill="#6FA3CC" fill-rule="evenodd"/><path d="M1651.8 1083.6C1635.96 1073 1599.97 1080.57 1588.45 1089.66 1566.86 1104.8 1523.67 1107.83 1460.32 1101.77 1458.88 1100.26 1457.44 1100.26 1456 1100.26 1470.4 1109.34 1490.55 1109.34 1504.95 1112.37 1525.11 1115.4 1546.7 1116.91 1566.86 1113.89 1584.13 1110.86 1604.29 1097.23 1620.13 1100.26 1633.09 1101.77 1640.28 1113.89 1644.6 1126 1653.24 1119.94 1657.56 1112.37 1659 1100.26 1659 1089.66 1654.68 1085.11 1651.8 1083.6Z" fill="#6FA3CC" fill-rule="evenodd"/><path d="M1222.67 1021C1224.1 1021 1225.53 1022.52 1226.96 1024.04 1231.26 1030.12 1231.26 1039.24 1228.39 1049.88 1224.1 1071.16 1196.91 1066.6 1175.44 1062.04 1161.13 1060.52 1161.13 1060.52 1161.13 1060.52 1155.4 1059 1155.4 1059 1155.4 1059 1139.66 1057.48 1106.74 1052.92 1095.29 1063.56 1093.86 1065.08 1092.43 1066.6 1092.43 1074.2 1092.43 1074.2 1092.43 1074.2 1092.43 1074.2 1091 1086.36 1095.29 1090.92 1096.72 1092.44 1099.59 1093.96 1102.45 1095.48 1106.74 1097 1106.74 1090.92 1109.61 1084.84 1113.9 1080.28 1123.92 1069.64 1143.95 1066.6 1158.27 1066.6 1178.3 1065.08 1196.91 1075.72 1216.95 1072.68 1231.26 1071.16 1247 1059 1245.57 1042.28 1245.57 1028.6 1234.12 1024.04 1222.67 1021Z" fill="#6FA3CC" fill-rule="evenodd"/><path d="M1365 1152.47C1363.57 1143.27 1362.13 1137.13 1359.27 1134.07 1353.53 1131 1340.64 1135.6 1327.74 1140.2 1314.84 1144.8 1299.07 1150.93 1284.74 1150.93 1238.88 1147.87 1238.88 1147.87 1238.88 1147.87 1217.38 1146.33 1195.88 1144.8 1178.69 1144.8 1213.08 1150.93 1250.35 1149.4 1283.31 1155.53 1304.81 1160.13 1332.04 1152.47 1350.67 1160.13 1359.27 1163.2 1362.13 1169.33 1362.13 1177 1365 1170.87 1365 1160.13 1365 1152.47ZM1078.36 1114.13C1078.36 1114.13 1076.93 1114.13 1076.93 1114.13 1066.9 1108 1064.03 1112.6 1062.6 1112.6 1056.87 1117.2 1054 1126.4 1054 1134.07 1054 1144.8 1061.17 1157.07 1068.33 1161.67 1071.2 1164.73 1075.5 1166.27 1081.23 1164.73 1082.66 1163.2 1084.1 1163.2 1085.53 1163.2 1085.53 1160.13 1085.53 1158.6 1085.53 1155.53 1081.23 1114.13 1122.79 1146.33 1142.86 1141.73 1125.66 1138.67 1107.03 1129.47 1092.7 1121.8L1078.36 1114.13Z" fill="#6FA3CC" fill-rule="evenodd"/><path d="M1308.74 1035C1298.79 1039.5 1290.26 1068 1313 1074 1295.95 1071 1286 1047 1308.74 1035Z" fill="#FFFFFF" fill-rule="evenodd"/><path d="M1589.96 912.773C1539.83 949.5 1475.38 944.909 1408.06 925.015 1339.32 905.121 1237.62 850.03 1186.06 817.894 1134.5 787.288 1190.36 747.5 1249.08 765.864 1307.81 785.758 1317.83 839.318 1377.99 872.985 1436.71 906.651 1496.87 892.879 1539.83 863.803 1582.8 834.727 1605.72 820.955 1625.77 846.97 1631.5 863.803 1630.07 885.227 1589.96 912.773Z" stroke="#333333" stroke-width="2.86476" stroke-linecap="round" stroke-linejoin="round" stroke-miterlimit="10" fill="none" fill-rule="evenodd"/><path d="M1852.5 972.474C1852.5 920.721 1819.54 905.5 1742.14 951.164 1663.32 995.305 1624.62 1013.57 1573.03 1027.27 1521.43 1042.49 1498.5 1054.67 1514.27 1066.85 1528.6 1077.5 1601.69 1059.23 1647.55 1047.06 1691.98 1034.88 1742.14 1024.23 1779.41 1030.31 1816.67 1036.4 1845.33 1005.96 1852.5 972.474Z" stroke="#333333" stroke-width="2.86476" stroke-linecap="round" stroke-linejoin="round" stroke-miterlimit="10" fill="none" fill-rule="evenodd"/><path d="M1025.53 915.894C1015.5 874.824 1065.64 852.007 1127.24 867.218 1190.27 882.43 1297.71 958.486 1408.01 979.782 1516.88 1002.6 1565.59 1007.16 1651.54 952.401 1736.06 897.641 1817.71 815.5 1857.82 844.401 1896.5 873.303 1840.63 885.472 1796.22 902.204 1751.82 920.458 1673.03 973.697 1624.32 994.993 1575.62 1017.81 1489.66 1031.5 1406.58 1008.68 1324.92 987.387 1256.16 955.444 1183.1 956.965 1110.05 958.486 1036.99 958.486 1025.53 915.894Z" stroke="#333333" stroke-width="2.86476" stroke-linecap="round" stroke-linejoin="round" stroke-miterlimit="10" fill="none" fill-rule="evenodd"/><path d="M1074.73 845.938C1133.34 833.692 1213.4 885.738 1272.01 917.885 1330.63 948.5 1353.5 920.946 1316.33 902.577 1280.59 885.738 1206.25 852.061 1169.08 822.977 1130.48 792.361 1101.89 760.215 1063.29 755.623 1024.69 749.5 957.5 783.177 968.937 826.038 978.944 858.185 1024.69 861.246 1074.73 845.938Z" stroke="#333333" stroke-width="2.86476" stroke-linecap="round" stroke-linejoin="round" stroke-miterlimit="10" fill="none" fill-rule="evenodd"/><path d="M1467.36 963.425C1464.5 946.553 1487.4 961.891 1527.47 952.688 1567.54 943.485 1637.66 923.545 1687.75 831.515 1716.38 787.034 1733.55 785.5 1760.74 805.44 1786.5 825.38 1747.86 857.59 1720.67 886.733 1694.91 914.342 1614.77 971.094 1560.38 980.297 1506 989.5 1464.5 978.763 1467.36 963.425Z" stroke="#333333" stroke-width="2.86476" stroke-linecap="round" stroke-linejoin="round" stroke-miterlimit="10" fill="none" fill-rule="evenodd"/><path d="M1392.91 807.395C1381.5 853.515 1414.29 873.5 1448.51 871.963 1482.73 868.888 1506.97 867.351 1516.95 841.216 1525.5 813.545 1485.58 770.5 1457.06 770.5 1431.4 770.5 1402.89 782.798 1392.91 807.395Z" stroke="#333333" stroke-width="2.86476" stroke-linecap="round" stroke-linejoin="round" stroke-miterlimit="10" fill="none" fill-rule="evenodd"/><path d="M1457.36 783.5C1470.26 783.5 1488.88 797.18 1500.34 813.9 1506.07 823.02 1507.5 830.62 1506.07 836.7 1500.34 853.42 1484.58 856.46 1447.34 859.5 1430.15 859.5 1415.82 854.94 1407.23 844.3 1404.36 839.74 1401.5 833.66 1401.5 826.06 1401.5 821.5 1402.93 816.94 1404.36 812.38 1411.53 794.14 1435.88 783.5 1457.36 783.5Z" stroke="#FFFFFF" stroke-width="1.14583" stroke-linecap="round" stroke-linejoin="round" stroke-miterlimit="10" fill="none" fill-rule="evenodd"/><path d="M1081.71 1105.69C1096.02 1111.79 1130.36 1136.17 1158.98 1136.17 1187.6 1134.64 1246.28 1139.21 1284.91 1142.26 1322.12 1143.79 1370.78 1095.02 1373.64 1152.93 1376.5 1221.5 1320.69 1189.5 1297.79 1181.88 1274.9 1174.26 1249.14 1172.74 1207.64 1168.17 1164.71 1165.12 1101.74 1165.12 1084.57 1172.74 1067.4 1180.36 1047.36 1159.02 1045.93 1134.64 1044.5 1119.4 1055.95 1093.5 1081.71 1105.69Z" stroke="#333333" stroke-width="2.86476" stroke-linecap="round" stroke-linejoin="round" stroke-miterlimit="10" fill="none" fill-rule="evenodd"/><path d="M1084.58 1074.95C1081.71 1119.38 1130.39 1110.19 1173.33 1097.93 1216.28 1085.67 1297.87 1085.67 1363.72 1102.53 1429.57 1119.38 1469.66 1136.24 1545.53 1142.37 1621.4 1148.5 1662.91 1148.5 1667.21 1102.53 1671.5 1056.56 1601.36 1070.35 1584.18 1082.61 1567 1094.87 1529.78 1101 1462.5 1093.33 1395.22 1085.67 1339.39 1067.28 1323.64 1065.75 1307.89 1064.22 1303.6 1035.1 1349.41 1048.9 1396.65 1064.22 1429.57 1073.41 1433.87 1056.56 1446.75 1030.51 1420.98 1024.38 1376.61 1019.78 1332.23 1013.65 1272.11 979.939 1193.37 986.068 1114.64 993.73 1067.4 979.939 1005.84 956.953 942.857 935.5 917.089 958.485 912.795 983.003 908.5 1005.99 938.562 1032.04 1007.27 1018.25 1077.42 1002.92 1151.86 1024.38 1203.39 1025.91 1220.57 1024.38 1226.3 1032.04 1222 1048.9 1217.71 1065.75 1186.21 1055.03 1163.31 1051.96 1140.41 1048.9 1084.58 1038.17 1084.58 1074.95Z" stroke="#333333" stroke-width="2.86476" stroke-linecap="round" stroke-linejoin="round" stroke-miterlimit="10" fill="none" fill-rule="evenodd"/><path d="M1410.1 915.674C1339.96 895.891 1236.91 838.065 1191.11 810.674 1185.38 807.63 1172.5 798.5 1175.36 789.37 1181.09 775.674 1212.58 763.5 1246.93 775.674 1276.99 784.804 1292.73 803.065 1311.34 825.891 1327.08 844.152 1345.69 863.935 1374.31 880.674 1427.27 911.109 1490.25 908.065 1544.64 871.543 1591.87 841.109 1604.76 835.022 1619.07 851.761 1619.07 854.804 1620.5 856.326 1620.5 860.891 1620.5 870.022 1614.77 885.239 1586.15 905.022 1543.21 935.456 1488.82 938.5 1410.1 915.674Z" stroke="#FFFFFF" stroke-width="1.14583" stroke-linecap="round" stroke-linejoin="round" stroke-miterlimit="10" fill="none" fill-rule="evenodd"/><path d="M1575.77 1036.54C1625.88 1021.33 1664.54 1004.59 1744.71 958.935 1797.69 928.5 1820.59 930.022 1830.61 937.63 1839.2 942.196 1843.5 954.37 1843.5 971.109 1837.77 998.5 1813.43 1025.89 1780.5 1021.33 1747.57 1016.76 1703.19 1021.33 1644.49 1038.07 1538.54 1068.5 1521.36 1060.89 1518.5 1059.37 1521.36 1056.33 1532.82 1048.72 1575.77 1036.54Z" stroke="#FFFFFF" stroke-width="1.14583" stroke-linecap="round" stroke-linejoin="round" stroke-miterlimit="10" fill="none" fill-rule="evenodd"/><path d="M1656.08 960.008C1679.01 944.766 1703.38 928 1724.88 911.234 1779.36 871.605 1829.53 833.5 1852.47 851.79 1861.07 857.887 1862.5 860.936 1862.5 862.46 1861.07 868.557 1833.83 879.226 1816.63 885.323 1793.69 894.468 1793.69 894.468 1793.69 894.468 1769.32 903.613 1734.92 923.428 1700.51 943.242 1671.84 960.008 1643.17 976.774 1620.24 987.444 1572.93 1008.78 1489.79 1022.5 1409.51 1001.16 1385.14 993.541 1363.64 987.444 1340.7 979.823 1287.66 963.057 1236.06 946.29 1181.58 947.815 1117.08 949.339 1043.97 949.339 1033.93 914.282 1032.5 911.234 1032.5 908.186 1032.5 906.661 1032.5 899.04 1035.37 892.944 1039.67 888.371 1054 871.605 1088.41 867.032 1125.68 874.653 1150.05 880.75 1183.02 897.516 1221.72 917.331 1277.63 944.766 1340.7 976.774 1405.21 988.968 1518.46 1011.83 1568.63 1016.4 1656.08 960.008Z" stroke="#FFFFFF" stroke-width="1.14583" stroke-linecap="round" stroke-linejoin="round" stroke-miterlimit="10" fill="none" fill-rule="evenodd"/><path d="M977.365 822.632C974.5 813.462 977.365 804.292 983.096 795.123 1000.29 773.726 1038.97 761.5 1063.32 764.556 1090.54 767.613 1113.47 785.953 1139.26 808.877 1163.61 828.745 1163.61 828.745 1163.61 828.745 1196.56 856.255 1256.73 883.764 1296.85 903.632 1314.04 911.274 1314.04 911.274 1314.04 911.274 1321.2 914.33 1324.07 918.915 1325.5 920.444 1321.2 923.5 1305.44 923.5 1276.79 908.217 1249.57 894.462 1249.57 894.462 1249.57 894.462 1193.7 863.896 1126.36 825.689 1071.92 837.915 1071.92 837.915 1071.92 837.915 1071.92 837.915 1031.81 850.142 985.961 850.142 977.365 822.632Z" stroke="#FFFFFF" stroke-width="1.14583" stroke-linecap="round" stroke-linejoin="round" stroke-miterlimit="10" fill="none" fill-rule="evenodd"/><path d="M1475.5 964.726C1475.5 964.726 1475.5 964.726 1475.5 964.726 1475.5 964.726 1475.5 964.726 1475.5 964.726 1475.5 964.726 1475.5 964.726 1475.5 964.726ZM1528.49 961.665C1580.05 949.422 1645.93 924.935 1694.62 836.17 1707.51 816.274 1718.97 805.561 1727.56 804.031 1734.72 802.5 1743.31 805.561 1754.77 813.213 1759.07 816.274 1760.5 819.335 1760.5 820.865 1760.5 833.109 1741.88 851.474 1726.13 866.778 1714.67 879.022 1714.67 879.022 1714.67 879.022 1688.89 906.57 1610.12 963.196 1558.57 970.848 1508.44 978.5 1479.8 969.318 1475.5 964.726 1478.36 964.726 1481.23 964.726 1484.09 964.726 1494.12 964.726 1509.87 966.257 1528.49 961.665Z" stroke="#FFFFFF" stroke-width="1.14583" stroke-linecap="round" stroke-linejoin="round" stroke-miterlimit="10" fill="none" fill-rule="evenodd"/><path d="M1068.83 1162.3C1061.67 1157.69 1054.5 1145.39 1054.5 1134.63 1054.5 1126.94 1057.37 1117.72 1063.1 1113.11 1064.53 1113.11 1067.4 1108.5 1077.43 1114.65 1077.43 1114.65 1078.86 1114.65 1078.86 1114.65 1093.2 1122.33 1093.2 1122.33 1093.2 1122.33 1111.83 1131.56 1137.62 1145.39 1159.12 1145.39 1177.75 1145.39 1209.28 1146.93 1239.38 1148.46 1285.24 1151.54 1285.24 1151.54 1285.24 1151.54 1299.57 1151.54 1315.34 1145.39 1328.24 1140.78 1341.14 1136.17 1354.03 1131.56 1359.77 1134.63 1362.63 1137.7 1364.07 1143.85 1365.5 1153.07 1365.5 1163.83 1364.07 1179.2 1358.33 1183.81 1348.3 1191.5 1326.8 1183.81 1312.47 1177.67 1301.01 1173.06 1301.01 1173.06 1301.01 1173.06 1278.08 1165.37 1250.85 1163.83 1210.72 1159.22 1207.85 1159.22 1207.85 1159.22 1207.85 1159.22 1167.72 1156.15 1101.8 1156.15 1081.73 1165.37 1076 1166.91 1071.7 1165.37 1068.83 1162.3Z" stroke="#FFFFFF" stroke-width="1.14583" stroke-linecap="round" stroke-linejoin="round" stroke-miterlimit="10" fill="none" fill-rule="evenodd"/><path d="M926.229 998.238C923.364 995.189 920.5 990.615 921.932 984.516 923.364 978.418 926.229 969.271 936.254 963.172 946.279 957.074 966.33 952.5 1003.57 966.221 1063.72 987.566 1112.41 1002.81 1195.48 995.189 1245.6 992.139 1287.14 1004.34 1324.37 1015.01 1342.99 1021.11 1360.18 1025.68 1375.93 1028.73 1390.25 1030.25 1424.62 1033.3 1428.92 1042.45 1430.35 1045.5 1428.92 1048.55 1427.49 1051.6 1427.49 1051.6 1427.49 1053.12 1426.06 1053.12 1426.06 1054.65 1426.06 1054.65 1426.06 1054.65 1417.46 1060.75 1381.66 1048.55 1351.58 1040.93 1325.8 1031.78 1312.91 1037.88 1308.62 1042.45 1304.32 1048.55 1302.89 1054.65 1305.75 1060.75 1308.62 1068.37 1314.35 1072.94 1322.94 1074.47 1327.24 1074.47 1337.26 1077.52 1350.15 1080.57 1377.36 1086.66 1416.03 1095.81 1461.86 1101.91 1524.88 1108.01 1567.84 1104.96 1589.32 1089.71 1600.78 1080.57 1636.59 1072.94 1652.34 1083.61 1655.2 1085.14 1659.5 1089.71 1659.5 1100.39 1655.2 1135.45 1627.99 1138.5 1546.36 1132.4 1490.5 1127.83 1454.7 1117.16 1413.17 1104.96 1365.91 1092.76 1365.91 1092.76 1365.91 1092.76 1302.89 1075.99 1218.39 1074.47 1171.13 1088.19 1155.38 1092.76 1112.41 1104.96 1098.09 1092.76 1096.66 1091.24 1092.36 1086.66 1093.79 1074.47 1093.79 1074.47 1093.79 1074.47 1093.79 1074.47 1093.79 1066.84 1095.22 1065.32 1096.66 1063.8 1108.11 1053.12 1141.05 1057.7 1156.81 1059.22 1162.54 1060.75 1162.54 1060.75 1162.54 1060.75 1176.86 1062.27 1176.86 1062.27 1176.86 1062.27 1198.34 1066.84 1225.55 1071.42 1229.85 1050.07 1232.71 1039.4 1232.71 1030.25 1228.42 1024.16 1221.26 1016.53 1211.23 1015.01 1202.64 1016.53 1186.88 1015.01 1168.27 1013.48 1148.22 1010.43 1103.82 1004.34 1055.12 998.238 1006.43 1008.91 950.576 1019.58 930.525 1004.34 926.229 998.238Z" stroke="#FFFFFF" stroke-width="1.14583" stroke-linecap="round" stroke-linejoin="round" stroke-miterlimit="10" fill="none" fill-rule="evenodd"/><path d="M1101 741C1101 726.641 1111.97 715 1125.5 715 1139.03 715 1150 726.641 1150 741 1150 755.359 1139.03 767 1125.5 767 1111.97 767 1101 755.359 1101 741Z" fill="#E5EDF5" fill-rule="evenodd"/><path d="M1109 741.5C1109 731.283 1116.61 723 1126 723 1135.39 723 1143 731.283 1143 741.5 1143 751.717 1135.39 760 1126 760 1116.61 760 1109 751.717 1109 741.5Z" fill="#98BCDA" fill-rule="evenodd"/><path d="M1143 746.333C1143 744.778 1143 743.222 1143 741.667 1143 730.778 1135.92 723 1126 723 1117.5 723 1109 730.778 1109 741.667 1109 744.778 1110.42 747.889 1111.83 751 1113.25 744.778 1117.5 738.556 1124.58 737 1133.08 735.444 1137.33 740.111 1143 746.333Z" fill="#6FA3CC" fill-rule="evenodd"/><path d="M1101.5 741.5C1101.5 727.14 1112.47 715.5 1126 715.5 1139.53 715.5 1150.5 727.14 1150.5 741.5 1150.5 755.859 1139.53 767.5 1126 767.5 1112.47 767.5 1101.5 755.859 1101.5 741.5Z" stroke="#333333" stroke-width="2.86476" stroke-linecap="round" stroke-linejoin="round" stroke-miterlimit="10" fill="none" fill-rule="evenodd"/><path d="M1109.5 742C1109.5 731.783 1117.11 723.5 1126.5 723.5 1135.89 723.5 1143.5 731.783 1143.5 742 1143.5 752.217 1135.89 760.5 1126.5 760.5 1117.11 760.5 1109.5 752.217 1109.5 742Z" stroke="#FFFFFF" stroke-width="1.14583" stroke-linecap="round" stroke-linejoin="round" stroke-miterlimit="10" fill="none" fill-rule="evenodd"/><path d="M1379 1154C1379 1139.64 1389.97 1128 1403.5 1128 1417.03 1128 1428 1139.64 1428 1154 1428 1168.36 1417.03 1180 1403.5 1180 1389.97 1180 1379 1168.36 1379 1154Z" fill="#E5EDF5" fill-rule="evenodd"/><path d="M1386 1154C1386 1144.06 1393.84 1136 1403.5 1136 1413.17 1136 1421 1144.06 1421 1154 1421 1163.94 1413.17 1172 1403.5 1172 1393.84 1172 1386 1163.94 1386 1154Z" fill="#98BCDA" fill-rule="evenodd"/><path d="M1421 1158.5C1421 1157 1421 1155.5 1421 1154 1421 1143.5 1413.71 1136 1403.5 1136 1394.75 1136 1386 1143.5 1386 1154 1386 1157 1387.46 1160 1388.92 1163 1390.38 1157 1394.75 1151 1402.04 1149.5 1410.79 1148 1415.17 1152.5 1421 1158.5Z" fill="#6FA3CC" fill-rule="evenodd"/><path d="M1379.5 1154.5C1379.5 1140.14 1390.47 1128.5 1404 1128.5 1417.53 1128.5 1428.5 1140.14 1428.5 1154.5 1428.5 1168.86 1417.53 1180.5 1404 1180.5 1390.47 1180.5 1379.5 1168.86 1379.5 1154.5Z" stroke="#333333" stroke-width="2.86476" stroke-linecap="round" stroke-linejoin="round" stroke-miterlimit="10" fill="none" fill-rule="evenodd"/><path d="M1386.5 1154.5C1386.5 1144.56 1394.33 1136.5 1404 1136.5 1413.66 1136.5 1421.5 1144.56 1421.5 1154.5 1421.5 1164.44 1413.66 1172.5 1404 1172.5 1394.33 1172.5 1386.5 1164.44 1386.5 1154.5Z" stroke="#FFFFFF" stroke-width="1.14583" stroke-linecap="round" stroke-linejoin="round" stroke-miterlimit="10" fill="none" fill-rule="evenodd"/></g></svg>