<svg width="357" height="313" xmlns="http://www.w3.org/2000/svg" xmlns:xlink="http://www.w3.org/1999/xlink" xml:space="preserve" overflow="hidden"><g transform="translate(-1382 -786)"><path d="M1391 942C1391 860.814 1466.89 795 1560.5 795 1654.11 795 1730 860.814 1730 942 1730 1023.19 1654.11 1089 1560.5 1089 1466.89 1089 1391 1023.19 1391 942Z" fill="#8290C3" fill-rule="evenodd"/><path d="M1412 942C1412 876.278 1478.26 823 1560 823 1641.74 823 1708 876.278 1708 942 1708 1007.72 1641.74 1061 1560 1061 1478.26 1061 1412 1007.72 1412 942Z" fill="#DBEDF5" fill-rule="evenodd"/><path d="M1477 880C1477 871.163 1483.94 864 1492.5 864 1501.06 864 1508 871.163 1508 880 1508 888.837 1501.06 896 1492.5 896 1483.94 896 1477 888.837 1477 880Z" fill="#FFFDF6" fill-rule="evenodd"/><path d="M1511 865C1511 860.582 1514.58 857 1519 857 1523.42 857 1527 860.582 1527 865 1527 869.418 1523.42 873 1519 873 1514.58 873 1511 869.418 1511 865Z" fill="#FFFDF6" fill-rule="evenodd"/><path d="M1462 899.5C1462 894.806 1465.36 891 1469.5 891 1473.64 891 1477 894.806 1477 899.5 1477 904.194 1473.64 908 1469.5 908 1465.36 908 1462 904.194 1462 899.5Z" fill="#FFFDF6" fill-rule="evenodd"/><path d="M1556 1040C1630.37 1035.38 1689 1003.08 1689 940 1683.28 960 1658.97 1018.46 1556 1040Z" fill="#FFFDF6" fill-rule="evenodd"/><path d="M1391.5 942.5C1385.5 942.5 1382.5 937.885 1382.5 931.731 1382.5 925.577 1387 922.5 1393 922.5 1397.5 924.039 1400.5 928.654 1400.5 933.269 1400.5 937.885 1396 940.962 1391.5 942.5Z" stroke="#333333" stroke-width="1.14583" stroke-linecap="round" stroke-linejoin="round" stroke-miterlimit="10" fill="#FFFA8E" fill-rule="evenodd"/><path d="M1393.07 920.962C1388.79 920.962 1384.5 914.808 1385.93 910.192 1387.36 904.038 1393.07 902.5 1397.36 904.038 1401.64 905.577 1404.5 910.192 1403.07 914.808 1401.64 919.423 1397.36 922.5 1393.07 920.962Z" stroke="#333333" stroke-width="1.14583" stroke-linecap="round" stroke-linejoin="round" stroke-miterlimit="10" fill="#FFFA8E" fill-rule="evenodd"/><path d="M1396.64 902C1392.36 900.5 1389.5 894.5 1392.36 890 1393.79 884 1399.5 882.5 1403.79 884 1408.07 887 1409.5 893 1408.07 896 1406.64 900.5 1400.93 903.5 1396.64 902Z" stroke="#333333" stroke-width="1.14583" stroke-linecap="round" stroke-linejoin="round" stroke-miterlimit="10" fill="#FFFA8E" fill-rule="evenodd"/><path d="M1406.04 884C1401.88 881 1400.5 875 1403.27 870.5 1404.65 866 1411.58 864.5 1414.35 867.5 1418.5 870.5 1418.5 876.5 1417.12 881 1414.35 884 1410.19 885.5 1406.04 884Z" stroke="#333333" stroke-width="1.14583" stroke-linecap="round" stroke-linejoin="round" stroke-miterlimit="10" fill="#FFFA8E" fill-rule="evenodd"/><path d="M1415.65 867.357C1411.5 864.214 1411.5 857.928 1414.27 853.214 1417.04 848.5 1422.58 848.5 1426.73 851.643 1429.5 856.357 1429.5 861.071 1426.73 865.786 1423.96 868.928 1418.42 870.5 1415.65 867.357Z" stroke="#333333" stroke-width="1.14583" stroke-linecap="round" stroke-linejoin="round" stroke-miterlimit="10" fill="#FFFA8E" fill-rule="evenodd"/><path d="M1427.42 852.5C1424.5 848 1424.5 842 1428.88 839 1431.81 834.5 1437.65 836 1440.58 839 1443.5 843.5 1443.5 849.5 1440.58 852.5 1436.19 855.5 1431.81 855.5 1427.42 852.5Z" stroke="#333333" stroke-width="1.14583" stroke-linecap="round" stroke-linejoin="round" stroke-miterlimit="10" fill="#FFFA8E" fill-rule="evenodd"/><path d="M1442.36 838.786C1439.5 834.071 1440.93 827.786 1443.79 824.643 1448.07 821.5 1453.79 823.071 1456.64 827.786 1459.5 832.5 1458.07 837.214 1453.79 840.357 1450.93 843.5 1445.21 841.929 1442.36 838.786Z" stroke="#333333" stroke-width="1.14583" stroke-linecap="round" stroke-linejoin="round" stroke-miterlimit="10" fill="#FFFA8E" fill-rule="evenodd"/><path d="M1457.36 826.5C1454.5 822 1455.93 817.5 1460.21 814.5 1464.5 811.5 1470.21 813 1473.07 817.5 1474.5 822 1473.07 828 1468.79 829.5 1464.5 832.5 1460.21 831 1457.36 826.5Z" stroke="#333333" stroke-width="1.14583" stroke-linecap="round" stroke-linejoin="round" stroke-miterlimit="10" fill="#FFFA8E" fill-rule="evenodd"/><path d="M1472.93 817.5C1471.5 813 1472.93 807 1478.64 805.5 1482.93 802.5 1487.21 805.5 1490.07 810 1491.5 814.5 1488.64 820.5 1484.36 822 1480.07 823.5 1475.79 822 1472.93 817.5Z" stroke="#333333" stroke-width="1.14583" stroke-linecap="round" stroke-linejoin="round" stroke-miterlimit="10" fill="#FFFA8E" fill-rule="evenodd"/><path d="M1491.36 809.346C1488.5 803.192 1491.36 798.577 1497.07 797.038 1501.36 795.5 1505.64 798.577 1507.07 803.192 1508.5 807.808 1505.64 813.961 1501.36 815.5 1497.07 815.5 1492.79 813.961 1491.36 809.346Z" stroke="#333333" stroke-width="1.14583" stroke-linecap="round" stroke-linejoin="round" stroke-miterlimit="10" fill="#FFFA8E" fill-rule="evenodd"/><path d="M1508.93 803.808C1507.5 797.654 1510.36 793.039 1516.07 793.039 1520.36 791.5 1526.07 794.577 1526.07 799.192 1527.5 805.346 1524.64 809.962 1518.93 809.962 1514.64 811.5 1510.36 808.423 1508.93 803.808Z" stroke="#333333" stroke-width="1.14583" stroke-linecap="round" stroke-linejoin="round" stroke-miterlimit="10" fill="#FFFA8E" fill-rule="evenodd"/><path d="M1527.5 798.731C1527.5 794.346 1530.5 789.962 1535 788.5 1541 788.5 1545.5 791.423 1545.5 797.269 1545.5 801.654 1542.5 806.038 1538 806.038 1533.5 807.5 1529 803.115 1527.5 798.731Z" stroke="#333333" stroke-width="1.14583" stroke-linecap="round" stroke-linejoin="round" stroke-miterlimit="10" fill="#FFFA8E" fill-rule="evenodd"/><path d="M1546.5 797.269C1546.5 791.115 1550.75 788.038 1555 786.5 1560.67 786.5 1563.5 791.115 1563.5 795.731 1563.5 801.885 1560.67 804.961 1555 806.5 1550.75 806.5 1546.5 801.885 1546.5 797.269Z" stroke="#333333" stroke-width="1.14583" stroke-linecap="round" stroke-linejoin="round" stroke-miterlimit="10" fill="#FFFA8E" fill-rule="evenodd"/><path d="M1565.5 796C1566.88 791.5 1569.65 788.5 1575.19 788.5 1579.35 788.5 1583.5 793 1583.5 797.5 1582.12 803.5 1577.96 806.5 1573.81 806.5 1569.65 806.5 1565.5 802 1565.5 796Z" stroke="#333333" stroke-width="1.14583" stroke-linecap="round" stroke-linejoin="round" stroke-miterlimit="10" fill="#FFFA8E" fill-rule="evenodd"/><path d="M1584.96 797.192C1584.96 792.577 1589.35 789.5 1595.19 789.5 1599.58 791.039 1602.5 795.654 1602.5 800.269 1601.04 806.423 1596.65 809.5 1592.27 807.962 1587.88 807.962 1583.5 803.346 1584.96 797.192Z" stroke="#333333" stroke-width="1.14583" stroke-linecap="round" stroke-linejoin="round" stroke-miterlimit="10" fill="#FFFA8E" fill-rule="evenodd"/><path d="M1603.88 801.928C1603.88 795.643 1609.42 792.5 1613.58 794.071 1617.73 795.643 1620.5 800.357 1619.12 806.643 1617.73 811.357 1613.58 814.5 1609.42 812.928 1605.27 811.357 1602.5 806.643 1603.88 801.928Z" stroke="#333333" stroke-width="1.14583" stroke-linecap="round" stroke-linejoin="round" stroke-miterlimit="10" fill="#FFFA8E" fill-rule="evenodd"/><path d="M1620.93 806.357C1622.36 801.643 1628.07 798.5 1632.36 800.071 1638.07 801.643 1639.5 807.929 1638.07 812.643 1635.21 817.357 1630.93 820.5 1626.64 818.929 1622.36 815.786 1619.5 811.071 1620.93 806.357Z" stroke="#333333" stroke-width="1.14583" stroke-linecap="round" stroke-linejoin="round" stroke-miterlimit="10" fill="#FFFA8E" fill-rule="evenodd"/><path d="M1639.36 812.5C1640.79 808 1646.5 806.5 1650.79 809.5 1655.07 811 1656.5 817 1655.07 821.5 1652.21 826 1646.5 827.5 1643.64 824.5 1639.36 823 1636.5 817 1639.36 812.5Z" stroke="#333333" stroke-width="1.14583" stroke-linecap="round" stroke-linejoin="round" stroke-miterlimit="10" fill="#FFFA8E" fill-rule="evenodd"/><path d="M1656.36 821.5C1657.79 817 1663.5 815.5 1667.79 818.5 1672.07 821.5 1673.5 827.5 1670.64 832 1667.79 835 1662.07 836.5 1659.21 835 1654.93 832 1653.5 826 1656.36 821.5Z" stroke="#333333" stroke-width="1.14583" stroke-linecap="round" stroke-linejoin="round" stroke-miterlimit="10" fill="#FFFA8E" fill-rule="evenodd"/><path d="M1672.42 832C1675.35 829 1681.19 827.5 1684.12 830.5 1688.5 835 1688.5 841 1685.58 844 1682.65 847 1676.81 848.5 1673.88 845.5 1669.5 842.5 1669.5 836.5 1672.42 832Z" stroke="#333333" stroke-width="1.14583" stroke-linecap="round" stroke-linejoin="round" stroke-miterlimit="10" fill="#FFFA8E" fill-rule="evenodd"/><path d="M1686.42 846C1689.35 841.5 1695.19 841.5 1699.58 846 1702.5 849 1702.5 855 1698.12 858 1695.19 862.5 1689.35 861 1686.42 858 1683.5 855 1683.5 849 1686.42 846Z" stroke="#333333" stroke-width="1.14583" stroke-linecap="round" stroke-linejoin="round" stroke-miterlimit="10" fill="#FFFA8E" fill-rule="evenodd"/><path d="M1699.79 860.5C1704.07 857.5 1709.79 857.5 1712.64 862 1715.5 866.5 1714.07 872.5 1709.79 875.5 1706.93 878.5 1701.21 877 1698.36 874 1695.5 869.5 1696.93 863.5 1699.79 860.5Z" stroke="#333333" stroke-width="1.14583" stroke-linecap="round" stroke-linejoin="round" stroke-miterlimit="10" fill="#FFFA8E" fill-rule="evenodd"/><path d="M1711.21 876.5C1715.5 873.5 1719.79 875 1722.64 879.5 1725.5 884 1724.07 890 1719.79 893 1714.07 894.5 1709.79 893 1708.36 888.5 1705.5 884 1706.93 879.5 1711.21 876.5Z" stroke="#333333" stroke-width="1.14583" stroke-linecap="round" stroke-linejoin="round" stroke-miterlimit="10" fill="#FFFA8E" fill-rule="evenodd"/><path d="M1720.35 893.071C1724.73 891.5 1730.58 894.643 1732.04 899.357 1733.5 905.643 1730.58 910.357 1726.19 911.928 1721.81 913.5 1715.96 910.357 1714.5 905.643 1714.5 900.928 1715.96 896.214 1720.35 893.071Z" stroke="#333333" stroke-width="1.14583" stroke-linecap="round" stroke-linejoin="round" stroke-miterlimit="10" fill="#FFFA8E" fill-rule="evenodd"/><path d="M1725.81 913.962C1731.65 912.5 1736.04 915.423 1736.04 921.269 1737.5 925.654 1734.58 931.5 1728.73 931.5 1724.35 931.5 1719.96 928.577 1718.5 924.192 1718.5 919.808 1721.42 915.423 1725.81 913.962Z" stroke="#333333" stroke-width="1.14583" stroke-linecap="round" stroke-linejoin="round" stroke-miterlimit="10" fill="#FFFA8E" fill-rule="evenodd"/><path d="M1728.27 933.5C1734.12 933.5 1738.5 936.5 1738.5 942.5 1738.5 948.5 1734.12 951.5 1728.27 951.5 1723.88 951.5 1719.5 947 1720.96 942.5 1719.5 938 1723.88 933.5 1728.27 933.5Z" stroke="#333333" stroke-width="1.14583" stroke-linecap="round" stroke-linejoin="round" stroke-miterlimit="10" fill="#FFFA8E" fill-rule="evenodd"/><path d="M1728.73 953.5C1734.58 953.5 1737.5 959.346 1736.04 963.731 1736.04 969.577 1731.65 972.5 1725.81 971.038 1721.42 969.577 1718.5 965.192 1718.5 960.808 1719.96 956.423 1724.35 953.5 1728.73 953.5Z" stroke="#333333" stroke-width="1.14583" stroke-linecap="round" stroke-linejoin="round" stroke-miterlimit="10" fill="#FFFA8E" fill-rule="evenodd"/><path d="M1726.19 973C1730.58 974.5 1733.5 979 1732.04 985 1730.58 989.5 1724.73 992.5 1720.35 991 1715.96 988 1714.5 983.5 1714.5 979 1715.96 974.5 1721.81 971.5 1726.19 973Z" stroke="#333333" stroke-width="1.14583" stroke-linecap="round" stroke-linejoin="round" stroke-miterlimit="10" fill="#FFFA8E" fill-rule="evenodd"/><path d="M1719.79 992.643C1724.07 994.214 1725.5 1000.5 1722.64 1005.21 1719.79 1009.93 1715.5 1011.5 1711.21 1008.36 1706.93 1005.21 1705.5 1000.5 1708.36 995.786 1709.79 991.072 1714.07 989.5 1719.79 992.643Z" stroke="#333333" stroke-width="1.14583" stroke-linecap="round" stroke-linejoin="round" stroke-miterlimit="10" fill="#FFFA8E" fill-rule="evenodd"/><path d="M1709.79 1009.5C1714.07 1012.5 1715.5 1018.5 1712.64 1023 1709.79 1027.5 1704.07 1027.5 1699.79 1024.5 1696.93 1021.5 1695.5 1015.5 1698.36 1012.5 1701.21 1008 1706.93 1006.5 1709.79 1009.5Z" stroke="#333333" stroke-width="1.14583" stroke-linecap="round" stroke-linejoin="round" stroke-miterlimit="10" fill="#FFFA8E" fill-rule="evenodd"/><path d="M1698.12 1026.58C1702.5 1029.65 1702.5 1035.81 1699.58 1038.88 1695.19 1043.5 1689.35 1043.5 1686.42 1038.88 1683.5 1035.81 1683.5 1029.65 1686.42 1026.58 1689.35 1023.5 1695.19 1023.5 1698.12 1026.58Z" stroke="#333333" stroke-width="1.14583" stroke-linecap="round" stroke-linejoin="round" stroke-miterlimit="10" fill="#FFFA8E" fill-rule="evenodd"/><path d="M1685.58 1040C1688.5 1044.5 1688.5 1050.5 1684.12 1053.5 1681.19 1056.5 1675.35 1055 1672.42 1052 1669.5 1047.5 1669.5 1041.5 1673.88 1038.5 1676.81 1035.5 1682.65 1037 1685.58 1040Z" stroke="#333333" stroke-width="1.14583" stroke-linecap="round" stroke-linejoin="round" stroke-miterlimit="10" fill="#FFFA8E" fill-rule="evenodd"/><path d="M1670.64 1052C1673.5 1056.5 1672.07 1062.5 1667.79 1065.5 1663.5 1068.5 1657.79 1067 1656.36 1062.5 1653.5 1058 1654.93 1052 1659.21 1050.5 1662.07 1047.5 1667.79 1049 1670.64 1052Z" stroke="#333333" stroke-width="1.14583" stroke-linecap="round" stroke-linejoin="round" stroke-miterlimit="10" fill="#FFFA8E" fill-rule="evenodd"/><path d="M1655.07 1062.79C1656.5 1067.5 1655.07 1073.79 1650.79 1075.36 1646.5 1078.5 1640.79 1076.93 1639.36 1072.21 1636.5 1067.5 1639.36 1061.21 1643.64 1059.64 1646.5 1056.5 1652.21 1058.07 1655.07 1062.79Z" stroke="#333333" stroke-width="1.14583" stroke-linecap="round" stroke-linejoin="round" stroke-miterlimit="10" fill="#FFFA8E" fill-rule="evenodd"/><path d="M1638.07 1072.36C1639.5 1077.07 1638.07 1083.36 1632.36 1084.93 1628.07 1086.5 1622.36 1083.36 1620.93 1078.64 1619.5 1073.93 1622.36 1069.21 1626.64 1067.64 1630.93 1064.5 1635.21 1067.64 1638.07 1072.36Z" stroke="#333333" stroke-width="1.14583" stroke-linecap="round" stroke-linejoin="round" stroke-miterlimit="10" fill="#FFFA8E" fill-rule="evenodd"/><path d="M1619.12 1078C1620.5 1084 1617.73 1088.5 1613.58 1090 1609.42 1091.5 1603.88 1088.5 1603.88 1084 1602.5 1078 1605.27 1073.5 1609.42 1072 1613.58 1070.5 1617.73 1073.5 1619.12 1078Z" stroke="#333333" stroke-width="1.14583" stroke-linecap="round" stroke-linejoin="round" stroke-miterlimit="10" fill="#FFFA8E" fill-rule="evenodd"/><path d="M1602.5 1084.73C1602.5 1089.35 1599.58 1093.96 1595.19 1095.5 1589.35 1095.5 1584.96 1092.42 1584.96 1087.81 1583.5 1081.65 1587.88 1077.04 1592.27 1077.04 1596.65 1075.5 1601.04 1078.58 1602.5 1084.73Z" stroke="#333333" stroke-width="1.14583" stroke-linecap="round" stroke-linejoin="round" stroke-miterlimit="10" fill="#FFFA8E" fill-rule="evenodd"/><path d="M1583.5 1087.73C1583.5 1092.35 1579.35 1096.96 1575.19 1096.96 1569.65 1098.5 1566.88 1093.88 1565.5 1089.27 1565.5 1083.12 1569.65 1078.5 1573.81 1078.5 1577.96 1078.5 1582.12 1081.58 1583.5 1087.73Z" stroke="#333333" stroke-width="1.14583" stroke-linecap="round" stroke-linejoin="round" stroke-miterlimit="10" fill="#FFFA8E" fill-rule="evenodd"/><path d="M1563.5 1089.27C1563.5 1093.88 1560.67 1098.5 1555 1098.5 1550.75 1098.5 1546.5 1093.88 1546.5 1087.73 1546.5 1083.12 1550.75 1078.5 1555 1080.04 1560.67 1080.04 1563.5 1083.12 1563.5 1089.27Z" stroke="#333333" stroke-width="1.14583" stroke-linecap="round" stroke-linejoin="round" stroke-miterlimit="10" fill="#FFFA8E" fill-rule="evenodd"/><path d="M1545.5 1087.73C1545.5 1093.58 1541 1096.5 1535 1096.5 1530.5 1095.04 1527.5 1090.65 1527.5 1086.27 1529 1081.88 1533.5 1077.5 1538 1078.96 1542.5 1078.96 1545.5 1083.35 1545.5 1087.73Z" stroke="#333333" stroke-width="1.14583" stroke-linecap="round" stroke-linejoin="round" stroke-miterlimit="10" fill="#FFFA8E" fill-rule="evenodd"/><path d="M1526.07 1085.81C1526.07 1090.42 1520.36 1093.5 1516.07 1093.5 1510.36 1091.96 1507.5 1087.35 1508.93 1081.19 1510.36 1076.58 1514.64 1073.5 1518.93 1075.04 1524.64 1075.04 1527.5 1081.19 1526.07 1085.81Z" stroke="#333333" stroke-width="1.14583" stroke-linecap="round" stroke-linejoin="round" stroke-miterlimit="10" fill="#FFFA8E" fill-rule="evenodd"/><path d="M1507.07 1081.42C1505.64 1086.27 1501.36 1089.5 1497.07 1087.88 1491.36 1086.27 1488.5 1081.42 1491.36 1074.96 1492.79 1070.12 1497.07 1068.5 1501.36 1070.12 1505.64 1070.12 1508.5 1076.58 1507.07 1081.42Z" stroke="#333333" stroke-width="1.14583" stroke-linecap="round" stroke-linejoin="round" stroke-miterlimit="10" fill="#FFFA8E" fill-rule="evenodd"/><path d="M1490.07 1075C1487.21 1079.5 1482.93 1082.5 1478.64 1079.5 1472.93 1078 1471.5 1072 1472.93 1067.5 1475.79 1063 1480.07 1061.5 1484.36 1063 1488.64 1064.5 1491.5 1070.5 1490.07 1075Z" stroke="#333333" stroke-width="1.14583" stroke-linecap="round" stroke-linejoin="round" stroke-miterlimit="10" fill="#FFFA8E" fill-rule="evenodd"/><path d="M1473.07 1067.5C1470.21 1072 1464.5 1073.5 1460.21 1070.5 1455.93 1069 1454.5 1063 1457.36 1058.5 1460.21 1054 1464.5 1052.5 1468.79 1055.5 1473.07 1057 1474.5 1063 1473.07 1067.5Z" stroke="#333333" stroke-width="1.14583" stroke-linecap="round" stroke-linejoin="round" stroke-miterlimit="10" fill="#FFFA8E" fill-rule="evenodd"/><path d="M1456.64 1057.21C1453.79 1061.93 1448.07 1063.5 1443.79 1060.36 1440.93 1057.21 1439.5 1050.93 1442.36 1046.21 1445.21 1043.07 1450.93 1041.5 1453.79 1044.64 1458.07 1047.79 1459.5 1054.07 1456.64 1057.21Z" stroke="#333333" stroke-width="1.14583" stroke-linecap="round" stroke-linejoin="round" stroke-miterlimit="10" fill="#FFFA8E" fill-rule="evenodd"/><path d="M1440.58 1046C1437.65 1049 1431.81 1050.5 1428.88 1046 1424.5 1043 1424.5 1037 1427.42 1034 1431.81 1029.5 1436.19 1029.5 1440.58 1032.5 1443.5 1035.5 1443.5 1041.5 1440.58 1046Z" stroke="#333333" stroke-width="1.14583" stroke-linecap="round" stroke-linejoin="round" stroke-miterlimit="10" fill="#FFFA8E" fill-rule="evenodd"/><path d="M1426.73 1032.42C1422.58 1035.5 1417.04 1035.5 1414.27 1030.88 1411.5 1027.81 1411.5 1020.12 1415.65 1018.58 1418.42 1015.5 1423.96 1015.5 1426.73 1018.58 1429.5 1023.19 1429.5 1027.81 1426.73 1032.42Z" stroke="#333333" stroke-width="1.14583" stroke-linecap="round" stroke-linejoin="round" stroke-miterlimit="10" fill="#FFFA8E" fill-rule="evenodd"/><path d="M1414.35 1017.5C1411.58 1020.5 1404.65 1019 1403.27 1014.5 1400.5 1010 1401.88 1004 1406.04 1001 1410.19 999.5 1414.35 1001 1417.12 1004 1418.5 1008.5 1418.5 1014.5 1414.35 1017.5Z" stroke="#333333" stroke-width="1.14583" stroke-linecap="round" stroke-linejoin="round" stroke-miterlimit="10" fill="#FFFA8E" fill-rule="evenodd"/><path d="M1403.79 1000C1399.5 1001.5 1393.79 1000 1392.36 994 1389.5 989.5 1392.36 985 1396.64 982 1400.93 980.5 1406.64 983.5 1408.07 988 1409.5 991 1408.07 997 1403.79 1000Z" stroke="#333333" stroke-width="1.14583" stroke-linecap="round" stroke-linejoin="round" stroke-miterlimit="10" fill="#FFFA8E" fill-rule="evenodd"/><path d="M1397.36 980.5C1393.07 983.5 1387.36 980.5 1385.93 974.5 1384.5 970 1388.79 964 1393.07 964 1397.36 962.5 1401.64 965.5 1403.07 970 1404.5 974.5 1401.64 979 1397.36 980.5Z" stroke="#333333" stroke-width="1.14583" stroke-linecap="round" stroke-linejoin="round" stroke-miterlimit="10" fill="#FFFA8E" fill-rule="evenodd"/><path d="M1393 962.5C1387 962.5 1382.5 959.5 1382.5 953.5 1382.5 947.5 1385.5 944.5 1391.5 944.5 1396 944.5 1400.5 947.5 1400.5 952 1400.5 956.5 1397.5 961 1393 962.5Z" stroke="#333333" stroke-width="1.14583" stroke-linecap="round" stroke-linejoin="round" stroke-miterlimit="10" fill="#FFFA8E" fill-rule="evenodd"/><path d="M1413.27 941C1407.42 942.5 1404.5 936.5 1404.5 932 1404.5 926 1410.35 921.5 1414.73 923 1420.58 924.5 1423.5 929 1422.04 933.5 1422.04 938 1417.65 941 1413.27 941Z" stroke="#333333" stroke-width="1.14583" stroke-linecap="round" stroke-linejoin="round" stroke-miterlimit="10" fill="#FFFA8E" fill-rule="evenodd"/><path d="M1414.64 921C1410.36 919.5 1407.5 915 1408.93 909 1411.79 903 1417.5 901.5 1421.79 903 1426.07 906 1427.5 910.5 1426.07 915 1424.64 919.5 1420.36 922.5 1414.64 921Z" stroke="#333333" stroke-width="1.14583" stroke-linecap="round" stroke-linejoin="round" stroke-miterlimit="10" fill="#FFFA8E" fill-rule="evenodd"/><path d="M1421.5 900.5C1417 899 1415.5 893 1418.5 888.5 1421.5 884 1427.5 882.5 1432 885.5 1435 888.5 1436.5 894.5 1435 897.5 1432 902 1426 903.5 1421.5 900.5Z" stroke="#333333" stroke-width="1.14583" stroke-linecap="round" stroke-linejoin="round" stroke-miterlimit="10" fill="#FFFA8E" fill-rule="evenodd"/><path d="M1431.79 884.5C1428.93 881.5 1427.5 875.5 1431.79 871 1434.64 866.5 1440.36 866.5 1444.64 871 1447.5 874 1447.5 880 1444.64 883 1441.79 887.5 1436.07 887.5 1431.79 884.5Z" stroke="#333333" stroke-width="1.14583" stroke-linecap="round" stroke-linejoin="round" stroke-miterlimit="10" fill="#FFFA8E" fill-rule="evenodd"/><path d="M1446 869C1441.5 866 1441.5 858.5 1446 855.5 1450.5 852.5 1456.5 852.5 1459.5 857 1462.5 861.5 1462.5 867.5 1458 870.5 1455 873.5 1449 873.5 1446 869Z" stroke="#333333" stroke-width="1.14583" stroke-linecap="round" stroke-linejoin="round" stroke-miterlimit="10" fill="#FFFA8E" fill-rule="evenodd"/><path d="M1460.36 856.786C1457.5 852.071 1458.93 845.786 1463.21 842.643 1467.5 839.5 1473.21 841.071 1476.07 845.786 1477.5 850.5 1476.07 856.786 1473.21 858.357 1468.93 861.5 1463.21 859.929 1460.36 856.786Z" stroke="#333333" stroke-width="1.14583" stroke-linecap="round" stroke-linejoin="round" stroke-miterlimit="10" fill="#FFFA8E" fill-rule="evenodd"/><path d="M1477.36 844.833C1474.5 840.233 1475.93 834.1 1480.21 832.567 1485.93 829.5 1491.64 832.567 1493.07 837.167 1494.5 841.767 1493.07 847.9 1488.79 849.433 1484.5 852.5 1478.79 849.433 1477.36 844.833Z" stroke="#333333" stroke-width="1.14583" stroke-linecap="round" stroke-linejoin="round" stroke-miterlimit="10" fill="#FFFA8E" fill-rule="evenodd"/><path d="M1494.93 836.833C1493.5 832.233 1494.93 826.1 1500.64 824.567 1504.93 821.5 1510.64 824.567 1512.07 830.7 1513.5 835.3 1510.64 839.9 1506.36 842.967 1502.07 844.5 1496.36 841.433 1494.93 836.833Z" stroke="#333333" stroke-width="1.14583" stroke-linecap="round" stroke-linejoin="round" stroke-miterlimit="10" fill="#FFFA8E" fill-rule="evenodd"/><path d="M1512.96 829.071C1511.5 824.357 1514.42 818.071 1518.81 818.071 1524.65 816.5 1529.04 819.643 1530.5 825.928 1530.5 830.643 1527.58 835.357 1523.19 836.928 1518.81 838.5 1514.42 835.357 1512.96 829.071Z" stroke="#333333" stroke-width="1.14583" stroke-linecap="round" stroke-linejoin="round" stroke-miterlimit="10" fill="#FFFA8E" fill-rule="evenodd"/><path d="M1531.96 826.808C1530.5 820.654 1534.88 816.038 1539.27 816.038 1545.12 814.5 1549.5 819.115 1549.5 823.731 1549.5 829.885 1546.58 834.5 1542.19 834.5 1537.81 834.5 1533.42 831.423 1531.96 826.808Z" stroke="#333333" stroke-width="1.14583" stroke-linecap="round" stroke-linejoin="round" stroke-miterlimit="10" fill="#FFFA8E" fill-rule="evenodd"/><path d="M1550.5 823.5C1550.5 819 1554.88 814.5 1560.73 814.5 1565.12 814.5 1569.5 819 1569.5 823.5 1569.5 829.5 1565.12 832.5 1560.73 832.5 1554.88 832.5 1551.96 829.5 1550.5 823.5Z" stroke="#333333" stroke-width="1.14583" stroke-linecap="round" stroke-linejoin="round" stroke-miterlimit="10" fill="#FFFA8E" fill-rule="evenodd"/><path d="M1570.5 823.731C1570.5 819.115 1574.88 814.5 1580.73 816.038 1585.12 816.038 1589.5 820.654 1588.04 826.808 1588.04 831.423 1583.65 834.5 1577.81 834.5 1573.42 834.5 1570.5 829.885 1570.5 823.731Z" stroke="#333333" stroke-width="1.14583" stroke-linecap="round" stroke-linejoin="round" stroke-miterlimit="10" fill="#FFFA8E" fill-rule="evenodd"/><path d="M1589.5 825.928C1590.96 819.643 1595.35 816.5 1601.19 818.071 1605.58 818.071 1608.5 824.357 1608.5 829.071 1607.04 835.357 1601.19 838.5 1596.81 836.928 1592.42 835.357 1589.5 830.643 1589.5 825.928Z" stroke="#333333" stroke-width="1.14583" stroke-linecap="round" stroke-linejoin="round" stroke-miterlimit="10" fill="#FFFA8E" fill-rule="evenodd"/><path d="M1609.93 830.7C1609.93 824.567 1615.64 821.5 1621.36 824.567 1625.64 826.1 1628.5 832.233 1625.64 836.833 1624.21 841.433 1619.93 844.5 1615.64 842.967 1609.93 839.9 1608.5 835.3 1609.93 830.7Z" stroke="#333333" stroke-width="1.14583" stroke-linecap="round" stroke-linejoin="round" stroke-miterlimit="10" fill="#FFFA8E" fill-rule="evenodd"/><path d="M1626.93 837.167C1629.79 832.567 1634.07 829.5 1639.79 832.567 1644.07 834.1 1645.5 840.233 1644.07 844.833 1641.21 849.433 1635.5 852.5 1631.21 849.433 1626.93 847.9 1625.5 841.767 1626.93 837.167Z" stroke="#333333" stroke-width="1.14583" stroke-linecap="round" stroke-linejoin="round" stroke-miterlimit="10" fill="#FFFA8E" fill-rule="evenodd"/><path d="M1645.36 845.786C1646.79 841.071 1652.5 839.5 1656.79 842.643 1661.07 845.786 1662.5 852.071 1659.64 856.786 1656.79 859.929 1651.07 861.5 1648.21 858.357 1643.93 856.786 1642.5 850.5 1645.36 845.786Z" stroke="#333333" stroke-width="1.14583" stroke-linecap="round" stroke-linejoin="round" stroke-miterlimit="10" fill="#FFFA8E" fill-rule="evenodd"/><path d="M1660.5 857C1663.5 852.5 1669.5 852.5 1674 855.5 1678.5 858.5 1678.5 866 1675.5 869 1671 873.5 1666.5 873.5 1662 870.5 1659 867.5 1657.5 861.5 1660.5 857Z" stroke="#333333" stroke-width="1.14583" stroke-linecap="round" stroke-linejoin="round" stroke-miterlimit="10" fill="#FFFA8E" fill-rule="evenodd"/><path d="M1675.36 871C1679.64 866.5 1685.36 866.5 1688.21 871 1692.5 875.5 1692.5 881.5 1688.21 884.5 1683.93 887.5 1678.21 887.5 1675.36 883 1672.5 880 1672.5 874 1675.36 871Z" stroke="#333333" stroke-width="1.14583" stroke-linecap="round" stroke-linejoin="round" stroke-miterlimit="10" fill="#FFFA8E" fill-rule="evenodd"/><path d="M1688 885.5C1692.5 882.5 1698.5 884 1701.5 888.5 1704.5 893 1703 899 1698.5 900.5 1694 903.5 1688 902 1686.5 897.5 1683.5 894.5 1685 888.5 1688 885.5Z" stroke="#333333" stroke-width="1.14583" stroke-linecap="round" stroke-linejoin="round" stroke-miterlimit="10" fill="#FFFA8E" fill-rule="evenodd"/><path d="M1698.21 903C1703.93 901.5 1709.64 903 1711.07 909 1712.5 915 1709.64 919.5 1705.36 921 1699.64 922.5 1695.36 919.5 1693.93 915 1692.5 910.5 1693.93 906 1698.21 903Z" stroke="#333333" stroke-width="1.14583" stroke-linecap="round" stroke-linejoin="round" stroke-miterlimit="10" fill="#FFFA8E" fill-rule="evenodd"/><path d="M1705.42 923C1709.58 921.5 1715.12 926 1715.12 932 1716.5 936.5 1712.35 942.5 1708.19 941 1702.65 941 1698.5 938 1698.5 933.5 1698.5 929 1701.27 924.5 1705.42 923Z" stroke="#333333" stroke-width="1.14583" stroke-linecap="round" stroke-linejoin="round" stroke-miterlimit="10" fill="#FFFA8E" fill-rule="evenodd"/><path d="M1708.19 944.5C1712.35 944.5 1716.5 948.885 1715.12 954.731 1715.12 959.115 1709.58 963.5 1705.42 962.039 1701.27 960.577 1698.5 956.192 1698.5 951.808 1698.5 947.423 1702.65 944.5 1708.19 944.5Z" stroke="#333333" stroke-width="1.14583" stroke-linecap="round" stroke-linejoin="round" stroke-miterlimit="10" fill="#FFFA8E" fill-rule="evenodd"/><path d="M1705.36 964C1709.64 965.5 1712.5 970 1711.07 976 1709.64 982 1703.93 983.5 1698.21 982 1693.93 979 1692.5 974.5 1693.93 970 1695.36 965.5 1699.64 962.5 1705.36 964Z" stroke="#333333" stroke-width="1.14583" stroke-linecap="round" stroke-linejoin="round" stroke-miterlimit="10" fill="#FFFA8E" fill-rule="evenodd"/><path d="M1698.5 983.5C1703 985 1704.5 991 1701.5 995.5 1698.5 1001.5 1692.5 1001.5 1688 998.5 1685 995.5 1683.5 989.5 1686.5 986.5 1688 982 1694 980.5 1698.5 983.5Z" stroke="#333333" stroke-width="1.14583" stroke-linecap="round" stroke-linejoin="round" stroke-miterlimit="10" fill="#FFFA8E" fill-rule="evenodd"/><path d="M1688.21 1000.5C1692.5 1003.5 1692.5 1009.5 1688.21 1014 1685.36 1018.5 1679.64 1018.5 1675.36 1014 1672.5 1011 1672.5 1005 1675.36 1002 1678.21 997.5 1683.93 997.5 1688.21 1000.5Z" stroke="#333333" stroke-width="1.14583" stroke-linecap="round" stroke-linejoin="round" stroke-miterlimit="10" fill="#FFFA8E" fill-rule="evenodd"/><path d="M1675.5 1016C1678.5 1020.5 1678.5 1026.5 1674 1029.5 1669.5 1032.5 1663.5 1032.5 1660.5 1028 1657.5 1023.5 1659 1017.5 1662 1014.5 1666.5 1011.5 1671 1013 1675.5 1016Z" stroke="#333333" stroke-width="1.14583" stroke-linecap="round" stroke-linejoin="round" stroke-miterlimit="10" fill="#FFFA8E" fill-rule="evenodd"/><path d="M1659.64 1029.5C1662.5 1032.5 1661.07 1038.5 1656.79 1041.5 1652.5 1044.5 1646.79 1043 1645.36 1038.5 1642.5 1034 1643.93 1028 1648.21 1026.5 1651.07 1023.5 1656.79 1025 1659.64 1029.5Z" stroke="#333333" stroke-width="1.14583" stroke-linecap="round" stroke-linejoin="round" stroke-miterlimit="10" fill="#FFFA8E" fill-rule="evenodd"/><path d="M1644.07 1040.17C1645.5 1044.77 1644.07 1050.9 1639.79 1052.43 1634.07 1055.5 1629.79 1052.43 1626.93 1047.83 1625.5 1043.23 1626.93 1037.1 1631.21 1035.57 1635.5 1032.5 1641.21 1035.57 1644.07 1040.17Z" stroke="#333333" stroke-width="1.14583" stroke-linecap="round" stroke-linejoin="round" stroke-miterlimit="10" fill="#FFFA8E" fill-rule="evenodd"/><path d="M1625.64 1048.17C1628.5 1054.3 1625.64 1058.9 1621.36 1060.43 1615.64 1063.5 1609.93 1060.43 1609.93 1054.3 1608.5 1049.7 1609.93 1045.1 1615.64 1043.57 1619.93 1040.5 1624.21 1043.57 1625.64 1048.17Z" stroke="#333333" stroke-width="1.14583" stroke-linecap="round" stroke-linejoin="round" stroke-miterlimit="10" fill="#FFFA8E" fill-rule="evenodd"/><path d="M1608.5 1055.5C1608.5 1060 1605.58 1066 1601.19 1066 1595.35 1067.5 1590.96 1064.5 1589.5 1058.5 1589.5 1054 1592.42 1049.5 1596.81 1048 1601.19 1046.5 1607.04 1049.5 1608.5 1055.5Z" stroke="#333333" stroke-width="1.14583" stroke-linecap="round" stroke-linejoin="round" stroke-miterlimit="10" fill="#FFFA8E" fill-rule="evenodd"/><path d="M1588.04 1059.73C1589.5 1064.35 1585.12 1068.96 1580.73 1070.5 1574.88 1070.5 1570.5 1065.88 1570.5 1061.27 1570.5 1055.12 1573.42 1052.04 1577.81 1050.5 1583.65 1050.5 1588.04 1053.58 1588.04 1059.73Z" stroke="#333333" stroke-width="1.14583" stroke-linecap="round" stroke-linejoin="round" stroke-miterlimit="10" fill="#FFFA8E" fill-rule="evenodd"/><path d="M1569.5 1061.5C1569.5 1066 1565.12 1070.5 1560.73 1070.5 1554.88 1070.5 1550.5 1066 1550.5 1061.5 1551.96 1055.5 1554.88 1052.5 1560.73 1052.5 1565.12 1052.5 1569.5 1055.5 1569.5 1061.5Z" stroke="#333333" stroke-width="1.14583" stroke-linecap="round" stroke-linejoin="round" stroke-miterlimit="10" fill="#FFFA8E" fill-rule="evenodd"/><path d="M1549.5 1061.27C1549.5 1065.88 1545.12 1070.5 1539.27 1070.5 1534.88 1068.96 1530.5 1064.35 1531.96 1059.73 1533.42 1053.58 1537.81 1050.5 1542.19 1050.5 1546.58 1052.04 1549.5 1055.12 1549.5 1061.27Z" stroke="#333333" stroke-width="1.14583" stroke-linecap="round" stroke-linejoin="round" stroke-miterlimit="10" fill="#FFFA8E" fill-rule="evenodd"/><path d="M1530.5 1058.5C1529.04 1064.5 1524.65 1067.5 1518.81 1066 1514.42 1066 1511.5 1060 1512.96 1055.5 1514.42 1049.5 1518.81 1046.5 1523.19 1048 1527.58 1049.5 1530.5 1054 1530.5 1058.5Z" stroke="#333333" stroke-width="1.14583" stroke-linecap="round" stroke-linejoin="round" stroke-miterlimit="10" fill="#FFFA8E" fill-rule="evenodd"/><path d="M1512.07 1054.3C1510.64 1060.43 1504.93 1063.5 1500.64 1060.43 1494.93 1058.9 1493.5 1054.3 1494.93 1048.17 1496.36 1043.57 1502.07 1040.5 1506.36 1043.57 1510.64 1045.1 1513.5 1049.7 1512.07 1054.3Z" stroke="#333333" stroke-width="1.14583" stroke-linecap="round" stroke-linejoin="round" stroke-miterlimit="10" fill="#FFFA8E" fill-rule="evenodd"/><path d="M1493.07 1047.83C1491.64 1052.43 1485.93 1055.5 1480.21 1052.43 1475.93 1050.9 1474.5 1044.77 1477.36 1040.17 1478.79 1035.57 1484.5 1032.5 1488.79 1035.57 1493.07 1037.1 1494.5 1043.23 1493.07 1047.83Z" stroke="#333333" stroke-width="1.14583" stroke-linecap="round" stroke-linejoin="round" stroke-miterlimit="10" fill="#FFFA8E" fill-rule="evenodd"/><path d="M1476.07 1038.5C1473.21 1043 1467.5 1044.5 1463.21 1041.5 1458.93 1038.5 1457.5 1032.5 1460.36 1029.5 1463.21 1025 1468.93 1023.5 1473.21 1026.5 1476.07 1028 1477.5 1034 1476.07 1038.5Z" stroke="#333333" stroke-width="1.14583" stroke-linecap="round" stroke-linejoin="round" stroke-miterlimit="10" fill="#FFFA8E" fill-rule="evenodd"/><path d="M1459.5 1028C1456.5 1032.5 1450.5 1032.5 1446 1029.5 1441.5 1026.5 1441.5 1020.5 1446 1016 1449 1013 1455 1011.5 1458 1014.5 1462.5 1017.5 1462.5 1023.5 1459.5 1028Z" stroke="#333333" stroke-width="1.14583" stroke-linecap="round" stroke-linejoin="round" stroke-miterlimit="10" fill="#FFFA8E" fill-rule="evenodd"/><path d="M1444.64 1014C1440.36 1018.5 1434.64 1018.5 1431.79 1014 1427.5 1009.5 1428.93 1003.5 1431.79 1000.5 1436.07 997.5 1441.79 997.5 1444.64 1002 1447.5 1005 1447.5 1011 1444.64 1014Z" stroke="#333333" stroke-width="1.14583" stroke-linecap="round" stroke-linejoin="round" stroke-miterlimit="10" fill="#FFFA8E" fill-rule="evenodd"/><path d="M1432 998.5C1427.5 1001.5 1421.5 1001.5 1418.5 995.5 1415.5 991 1417 985 1421.5 983.5 1426 980.5 1432 982 1435 986.5 1436.5 989.5 1435 995.5 1432 998.5Z" stroke="#333333" stroke-width="1.14583" stroke-linecap="round" stroke-linejoin="round" stroke-miterlimit="10" fill="#FFFA8E" fill-rule="evenodd"/><path d="M1421.79 982C1417.5 983.5 1411.79 982 1408.93 976 1407.5 970 1410.36 965.5 1414.64 964 1420.36 962.5 1424.64 965.5 1426.07 970 1427.5 974.5 1426.07 979 1421.79 982Z" stroke="#333333" stroke-width="1.14583" stroke-linecap="round" stroke-linejoin="round" stroke-miterlimit="10" fill="#FFFA8E" fill-rule="evenodd"/><path d="M1414.73 962.039C1410.35 963.5 1404.5 959.115 1404.5 954.731 1404.5 948.885 1407.42 944.5 1413.27 944.5 1417.65 944.5 1422.04 947.423 1422.04 951.808 1423.5 956.192 1420.58 960.577 1414.73 962.039Z" stroke="#333333" stroke-width="1.14583" stroke-linecap="round" stroke-linejoin="round" stroke-miterlimit="10" fill="#FFFA8E" fill-rule="evenodd"/></g></svg>