<svg width="403" height="324" xmlns="http://www.w3.org/2000/svg" xmlns:xlink="http://www.w3.org/1999/xlink" xml:space="preserve" overflow="hidden"><g transform="translate(-2255 -781)"><path d="M2452.42 1093C2541.32 1093 2646 975.35 2646 943.264 2646 911.178 2548.49 792 2452.42 792 2452.42 792 2452.42 792 2452.42 792 2356.34 792 2266 914.234 2266 943.264 2266 972.294 2363.51 1093 2452.42 1093Z" fill="#8290C3" fill-rule="evenodd"/><path d="M2454.35 1067C2527.5 1067 2615 970.579 2615 943.031 2615 915.482 2533.24 816 2454.35 816 2454.35 816 2454.35 816 2454.35 816 2374.02 816 2298 918.543 2298 943.031 2298 967.518 2379.76 1067 2454.35 1067Z" fill="#DBEDF5" fill-rule="evenodd"/><path d="M2382.44 874.783C2381 865.652 2386.74 858.043 2395.35 856.522 2403.96 855 2411.13 861.087 2412.57 870.217 2414 879.348 2408.26 886.956 2399.65 888.478 2391.04 890 2383.87 883.913 2382.44 874.783Z" fill="#FFFDF6" fill-rule="evenodd"/><path d="M2418.42 861.083C2417 856.333 2419.83 851.583 2424.08 851.583 2428.33 850 2432.58 853.167 2432.58 857.917 2434 862.667 2431.17 867.417 2426.92 869 2422.67 869 2418.42 865.833 2418.42 861.083Z" fill="#FFFDF6" fill-rule="evenodd"/><path d="M2364 893.083C2364 888.333 2366.73 883.583 2370.82 883.583 2374.91 882 2379 885.167 2379 889.917 2379 894.667 2376.27 899.417 2372.18 899.417 2368.09 901 2365.36 897.833 2364 893.083Z" fill="#FFFDF6" fill-rule="evenodd"/><path d="M2448 1043.96C2475.2 1047 2542.47 1015.03 2594 945 2581.12 955.657 2493.8 1039.39 2448 1043.96Z" fill="#FFFDF6" fill-rule="evenodd"/><path d="M2454.5 1095.27C2454.5 1090.65 2457.42 1086.04 2463.27 1084.5 2467.65 1084.5 2472.04 1089.12 2472.04 1093.73 2473.5 1098.35 2469.12 1104.5 2464.73 1104.5 2458.88 1104.5 2454.5 1101.42 2454.5 1095.27Z" stroke="#333333" stroke-width="1.14583" stroke-linecap="round" stroke-linejoin="round" stroke-miterlimit="10" fill="#FFFA8E" fill-rule="evenodd"/><path d="M2473.5 1093.81C2473.5 1087.65 2476.36 1083.04 2480.64 1081.5 2484.93 1081.5 2490.64 1083.04 2492.07 1089.19 2493.5 1093.81 2490.64 1099.96 2484.93 1101.5 2479.21 1101.5 2474.93 1098.42 2473.5 1093.81Z" stroke="#333333" stroke-width="1.14583" stroke-linecap="round" stroke-linejoin="round" stroke-miterlimit="10" fill="#FFFA8E" fill-rule="evenodd"/><path d="M2492.93 1087.5C2491.5 1083 2494.36 1078.5 2498.64 1077 2502.93 1075.5 2507.21 1077 2510.07 1081.5 2511.5 1086 2510.07 1092 2504.36 1093.5 2498.64 1096.5 2494.36 1093.5 2492.93 1087.5Z" stroke="#333333" stroke-width="1.14583" stroke-linecap="round" stroke-linejoin="round" stroke-miterlimit="10" fill="#FFFA8E" fill-rule="evenodd"/><path d="M2511.43 1081.5C2508.5 1077 2511.43 1071 2515.83 1069.5 2520.23 1066.5 2526.1 1068 2527.57 1072.5 2530.5 1077 2529.03 1083 2523.17 1086 2518.77 1087.5 2512.9 1086 2511.43 1081.5Z" stroke="#333333" stroke-width="1.14583" stroke-linecap="round" stroke-linejoin="round" stroke-miterlimit="10" fill="#FFFA8E" fill-rule="evenodd"/><path d="M2528.93 1072.21C2527.5 1067.5 2528.93 1061.21 2533.21 1058.07 2537.5 1056.5 2541.79 1058.07 2544.64 1062.79 2547.5 1067.5 2546.07 1073.79 2541.79 1075.36 2537.5 1078.5 2531.79 1076.93 2528.93 1072.21Z" stroke="#333333" stroke-width="1.14583" stroke-linecap="round" stroke-linejoin="round" stroke-miterlimit="10" fill="#FFFA8E" fill-rule="evenodd"/><path d="M2546.3 1061.5C2543.5 1057 2544.9 1051 2549.1 1048 2553.3 1046.5 2558.9 1046.5 2561.7 1051 2564.5 1055.5 2563.1 1061.5 2558.9 1064.5 2554.7 1067.5 2549.1 1066 2546.3 1061.5Z" stroke="#333333" stroke-width="1.14583" stroke-linecap="round" stroke-linejoin="round" stroke-miterlimit="10" fill="#FFFA8E" fill-rule="evenodd"/><path d="M2563.36 1049.5C2560.5 1046.5 2560.5 1040.5 2564.79 1037.5 2569.07 1034.5 2574.79 1034.5 2577.64 1039 2580.5 1043.5 2579.07 1049.5 2574.79 1052.5 2571.93 1055.5 2566.21 1054 2563.36 1049.5Z" stroke="#333333" stroke-width="1.14583" stroke-linecap="round" stroke-linejoin="round" stroke-miterlimit="10" fill="#FFFA8E" fill-rule="evenodd"/><path d="M2578.9 1037C2574.5 1032.5 2575.97 1028 2578.9 1023.5 2583.3 1020.5 2589.17 1020.5 2592.1 1025 2596.5 1029.5 2595.03 1035.5 2592.1 1038.5 2587.7 1041.5 2581.83 1041.5 2578.9 1037Z" stroke="#333333" stroke-width="1.14583" stroke-linecap="round" stroke-linejoin="round" stroke-miterlimit="10" fill="#FFFA8E" fill-rule="evenodd"/><path d="M2593.36 1023C2590.5 1020 2590.5 1014 2593.36 1009.5 2597.64 1006.5 2603.36 1006.5 2606.21 1011 2610.5 1014 2610.5 1020 2606.21 1024.5 2601.93 1027.5 2596.21 1027.5 2593.36 1023Z" stroke="#333333" stroke-width="1.14583" stroke-linecap="round" stroke-linejoin="round" stroke-miterlimit="10" fill="#FFFA8E" fill-rule="evenodd"/><path d="M2607.42 1009.5C2604.5 1005 2604.5 999 2607.42 996 2610.35 991.5 2616.19 991.5 2620.58 996 2623.5 999 2623.5 1005 2620.58 1009.5 2617.65 1012.5 2610.35 1012.5 2607.42 1009.5Z" stroke="#333333" stroke-width="1.14583" stroke-linecap="round" stroke-linejoin="round" stroke-miterlimit="10" fill="#FFFA8E" fill-rule="evenodd"/><path d="M2621.36 994.5C2618.5 991.5 2618.5 985.5 2621.36 981 2624.21 976.5 2629.93 976.5 2632.79 979.5 2637.07 982.5 2638.5 988.5 2634.21 993 2631.36 997.5 2625.64 997.5 2621.36 994.5Z" stroke="#333333" stroke-width="1.14583" stroke-linecap="round" stroke-linejoin="round" stroke-miterlimit="10" fill="#FFFA8E" fill-rule="evenodd"/><path d="M2633.79 977.357C2629.5 974.214 2629.5 967.928 2630.93 963.214 2633.79 960.071 2639.5 958.5 2643.79 960.071 2648.07 963.214 2649.5 969.5 2646.64 974.214 2643.79 978.928 2638.07 980.5 2633.79 977.357Z" stroke="#333333" stroke-width="1.14583" stroke-linecap="round" stroke-linejoin="round" stroke-miterlimit="10" fill="#FFFA8E" fill-rule="evenodd"/><path d="M2645.64 959.357C2639.93 957.786 2638.5 951.5 2639.93 948.357 2639.93 945.214 2644.21 942.071 2648.5 940.5 2654.21 940.5 2658.5 945.214 2657.07 954.643 2654.21 959.357 2649.93 962.5 2645.64 959.357Z" stroke="#333333" stroke-width="1.14583" stroke-linecap="round" stroke-linejoin="round" stroke-miterlimit="10" fill="#FFFA8E" fill-rule="evenodd"/><path d="M2647.93 939C2643.64 940.5 2639.36 939 2637.93 934.5 2636.5 930 2636.5 924 2640.79 922.5 2645.07 919.5 2652.21 921 2653.64 927 2656.5 933 2653.64 939 2647.93 939Z" stroke="#333333" stroke-width="1.14583" stroke-linecap="round" stroke-linejoin="round" stroke-miterlimit="10" fill="#FFFA8E" fill-rule="evenodd"/><path d="M2640.79 921C2636.5 922.5 2630.79 922.5 2627.93 918 2626.5 913.5 2626.5 907.5 2630.79 904.5 2635.07 901.5 2640.79 903 2643.64 907.5 2646.5 912 2645.07 918 2640.79 921Z" stroke="#333333" stroke-width="1.14583" stroke-linecap="round" stroke-linejoin="round" stroke-miterlimit="10" fill="#FFFA8E" fill-rule="evenodd"/><path d="M2629.63 902.5C2626.7 905.5 2620.83 905.5 2617.9 901 2613.5 898 2614.97 892 2617.9 887.5 2622.3 884.5 2628.17 886 2631.1 889 2635.5 893.5 2634.03 899.5 2629.63 902.5Z" stroke="#333333" stroke-width="1.14583" stroke-linecap="round" stroke-linejoin="round" stroke-miterlimit="10" fill="#FFFA8E" fill-rule="evenodd"/><path d="M2618.1 887.5C2613.7 890.5 2607.83 890.5 2604.9 886 2600.5 883 2601.97 877 2604.9 872.5 2607.83 869.5 2615.17 869.5 2618.1 874 2622.5 877 2621.03 883 2618.1 887.5Z" stroke="#333333" stroke-width="1.14583" stroke-linecap="round" stroke-linejoin="round" stroke-miterlimit="10" fill="#FFFA8E" fill-rule="evenodd"/><path d="M2603.21 872.357C2600.36 875.5 2594.64 875.5 2590.36 872.357 2587.5 867.643 2587.5 861.357 2590.36 858.214 2593.21 853.5 2598.93 853.5 2603.21 858.214 2607.5 861.357 2607.5 867.643 2603.21 872.357Z" stroke="#333333" stroke-width="1.14583" stroke-linecap="round" stroke-linejoin="round" stroke-miterlimit="10" fill="#FFFA8E" fill-rule="evenodd"/><path d="M2589.1 856.786C2586.17 861.5 2580.3 861.5 2575.9 858.357 2572.97 855.214 2571.5 848.929 2575.9 844.214 2578.83 839.5 2584.7 839.5 2589.1 842.643 2592.03 845.786 2593.5 853.643 2589.1 856.786Z" stroke="#333333" stroke-width="1.14583" stroke-linecap="round" stroke-linejoin="round" stroke-miterlimit="10" fill="#FFFA8E" fill-rule="evenodd"/><path d="M2574.64 842.633C2571.79 847.033 2566.07 848.5 2561.79 845.567 2557.5 842.633 2557.5 836.767 2560.36 832.367 2563.21 827.967 2567.5 826.5 2571.79 829.433 2576.07 833.833 2577.5 839.7 2574.64 842.633Z" stroke="#333333" stroke-width="1.14583" stroke-linecap="round" stroke-linejoin="round" stroke-miterlimit="10" fill="#FFFA8E" fill-rule="evenodd"/><path d="M2559.57 830.633C2556.63 835.033 2550.77 836.5 2546.37 833.566 2541.97 830.633 2540.5 824.766 2543.43 820.366 2546.37 815.966 2552.23 814.5 2556.63 817.433 2561.03 820.366 2562.5 826.233 2559.57 830.633Z" stroke="#333333" stroke-width="1.14583" stroke-linecap="round" stroke-linejoin="round" stroke-miterlimit="10" fill="#FFFA8E" fill-rule="evenodd"/><path d="M2541.7 820.367C2538.9 824.966 2533.3 826.5 2529.1 823.433 2526.3 821.9 2523.5 815.766 2526.3 811.167 2527.7 806.566 2533.3 803.5 2537.5 806.566 2543.1 809.633 2544.5 815.766 2541.7 820.367Z" stroke="#333333" stroke-width="1.14583" stroke-linecap="round" stroke-linejoin="round" stroke-miterlimit="10" fill="#FFFA8E" fill-rule="evenodd"/><path d="M2524.07 808.833C2521.21 813.433 2516.93 816.5 2512.64 813.433 2508.36 811.9 2505.5 805.767 2506.93 801.167 2509.79 796.567 2514.07 793.5 2519.79 796.567 2524.07 798.1 2525.5 804.233 2524.07 808.833Z" stroke="#333333" stroke-width="1.14583" stroke-linecap="round" stroke-linejoin="round" stroke-miterlimit="10" fill="#FFFA8E" fill-rule="evenodd"/><path d="M2505.7 802C2504.3 806.5 2498.7 809.5 2494.5 808 2490.3 806.5 2487.5 800.5 2488.9 796 2490.3 791.5 2495.9 788.5 2500.1 790 2505.7 791.5 2508.5 797.5 2505.7 802Z" stroke="#333333" stroke-width="1.14583" stroke-linecap="round" stroke-linejoin="round" stroke-miterlimit="10" fill="#FFFA8E" fill-rule="evenodd"/><path d="M2487.07 795.808C2485.64 800.423 2481.36 803.5 2477.07 803.5 2472.79 801.961 2468.5 797.346 2469.93 791.192 2469.93 786.577 2474.21 783.5 2479.93 783.5 2485.64 785.038 2488.5 789.654 2487.07 795.808Z" stroke="#333333" stroke-width="1.14583" stroke-linecap="round" stroke-linejoin="round" stroke-miterlimit="10" fill="#FFFA8E" fill-rule="evenodd"/><path d="M2468.5 791.269C2467.12 797.423 2462.96 800.5 2458.81 800.5 2454.65 800.5 2450.5 795.885 2450.5 791.269 2450.5 785.116 2454.65 780.5 2460.19 782.039 2464.35 782.039 2468.5 786.654 2468.5 791.269Z" stroke="#333333" stroke-width="1.14583" stroke-linecap="round" stroke-linejoin="round" stroke-miterlimit="10" fill="#FFFA8E" fill-rule="evenodd"/><path d="M2448.5 791.192C2448.5 796.039 2444.35 800.885 2440.19 802.5 2436.04 802.5 2431.88 799.269 2430.5 792.808 2430.5 787.961 2433.27 781.5 2438.81 781.5 2444.35 781.5 2448.5 784.731 2448.5 791.192Z" stroke="#333333" stroke-width="1.14583" stroke-linecap="round" stroke-linejoin="round" stroke-miterlimit="10" fill="#FFFA8E" fill-rule="evenodd"/><path d="M2429.07 792.192C2430.5 798.346 2427.64 802.961 2423.36 804.5 2417.64 804.5 2413.36 802.961 2411.93 798.346 2410.5 792.192 2413.36 786.038 2417.64 786.038 2423.36 784.5 2429.07 787.577 2429.07 792.192Z" stroke="#333333" stroke-width="1.14583" stroke-linecap="round" stroke-linejoin="round" stroke-miterlimit="10" fill="#FFFA8E" fill-rule="evenodd"/><path d="M2410.07 799C2411.5 803.5 2408.64 809.5 2404.36 811 2400.07 812.5 2395.79 811 2392.93 805 2391.5 800.5 2392.93 794.5 2398.64 793 2402.93 791.5 2408.64 794.5 2410.07 799Z" stroke="#333333" stroke-width="1.14583" stroke-linecap="round" stroke-linejoin="round" stroke-miterlimit="10" fill="#FFFA8E" fill-rule="evenodd"/><path d="M2391.57 806.167C2394.5 810.767 2391.57 816.9 2387.17 818.433 2382.77 821.5 2378.37 819.967 2375.43 815.367 2372.5 810.767 2373.97 804.633 2379.83 801.567 2384.23 798.5 2390.1 801.567 2391.57 806.167Z" stroke="#333333" stroke-width="1.14583" stroke-linecap="round" stroke-linejoin="round" stroke-miterlimit="10" fill="#FFFA8E" fill-rule="evenodd"/><path d="M2373.7 815.5C2376.5 820 2375.1 826 2370.9 829 2366.7 830.5 2361.1 830.5 2358.3 826 2355.5 821.5 2356.9 815.5 2361.1 812.5 2365.3 809.5 2370.9 811 2373.7 815.5Z" stroke="#333333" stroke-width="1.14583" stroke-linecap="round" stroke-linejoin="round" stroke-miterlimit="10" fill="#FFFA8E" fill-rule="evenodd"/><path d="M2356.64 826.214C2359.5 830.929 2358.07 837.214 2355.21 840.357 2350.93 843.5 2345.21 843.5 2342.36 838.786 2339.5 834.071 2339.5 827.786 2343.79 824.643 2348.07 821.5 2353.79 823.071 2356.64 826.214Z" stroke="#333333" stroke-width="1.14583" stroke-linecap="round" stroke-linejoin="round" stroke-miterlimit="10" fill="#FFFA8E" fill-rule="evenodd"/><path d="M2341.64 840.633C2344.5 843.7 2344.5 849.833 2340.21 852.9 2337.36 857.5 2331.64 855.967 2327.36 852.9 2324.5 848.3 2324.5 842.167 2328.79 839.1 2333.07 834.5 2338.79 836.033 2341.64 840.633Z" stroke="#333333" stroke-width="1.14583" stroke-linecap="round" stroke-linejoin="round" stroke-miterlimit="10" fill="#FFFA8E" fill-rule="evenodd"/><path d="M2326.64 851.643C2329.5 856.357 2329.5 862.643 2325.21 865.786 2322.36 870.5 2316.64 870.5 2312.36 865.786 2309.5 862.643 2309.5 856.357 2313.79 851.643 2316.64 848.5 2322.36 848.5 2326.64 851.643Z" stroke="#333333" stroke-width="1.14583" stroke-linecap="round" stroke-linejoin="round" stroke-miterlimit="10" fill="#FFFA8E" fill-rule="evenodd"/><path d="M2312.64 867.1C2315.5 870.167 2315.5 876.3 2312.64 880.9 2309.79 883.967 2304.07 885.5 2299.79 880.9 2295.5 877.833 2295.5 871.7 2299.79 867.1 2302.64 864.033 2308.36 862.5 2312.64 867.1Z" stroke="#333333" stroke-width="1.14583" stroke-linecap="round" stroke-linejoin="round" stroke-miterlimit="10" fill="#FFFA8E" fill-rule="evenodd"/><path d="M2298.21 882.643C2302.5 885.786 2302.5 892.072 2299.64 896.786 2296.79 899.929 2291.07 901.5 2286.79 898.357 2283.93 895.214 2282.5 888.929 2285.36 884.214 2289.64 879.5 2295.36 879.5 2298.21 882.643Z" stroke="#333333" stroke-width="1.14583" stroke-linecap="round" stroke-linejoin="round" stroke-miterlimit="10" fill="#FFFA8E" fill-rule="evenodd"/><path d="M2287 899.5C2291.5 902.5 2291.5 908.5 2288.5 911.5 2285.5 916 2281 917.5 2276.5 914.5 2272 911.5 2270.5 905.5 2273.5 901 2276.5 896.5 2282.5 896.5 2287 899.5Z" stroke="#333333" stroke-width="1.14583" stroke-linecap="round" stroke-linejoin="round" stroke-miterlimit="10" fill="#FFFA8E" fill-rule="evenodd"/><path d="M2275.63 916.566C2280.03 919.633 2281.5 925.766 2280.03 930.367 2277.1 933.433 2272.7 936.5 2266.83 933.433 2262.43 931.9 2259.5 925.766 2262.43 921.167 2265.37 915.033 2271.23 913.5 2275.63 916.566Z" stroke="#333333" stroke-width="1.14583" stroke-linecap="round" stroke-linejoin="round" stroke-miterlimit="10" fill="#FFFA8E" fill-rule="evenodd"/><path d="M2266.58 935.033C2270.73 938.1 2273.5 942.7 2273.5 944.233 2273.5 947.3 2270.73 951.9 2266.58 954.967 2262.42 956.5 2256.88 953.433 2255.5 945.767 2256.88 936.567 2262.42 933.5 2266.58 935.033Z" stroke="#333333" stroke-width="1.14583" stroke-linecap="round" stroke-linejoin="round" stroke-miterlimit="10" fill="#FFFA8E" fill-rule="evenodd"/><path d="M2268.5 956.567C2272.7 953.5 2276.9 955.033 2279.7 959.633 2282.5 964.233 2281.1 970.367 2276.9 973.433 2272.7 976.5 2267.1 974.967 2264.3 968.833 2261.5 964.233 2264.3 958.1 2268.5 956.567Z" stroke="#333333" stroke-width="1.14583" stroke-linecap="round" stroke-linejoin="round" stroke-miterlimit="10" fill="#FFFA8E" fill-rule="evenodd"/><path d="M2278.21 974.5C2282.5 971.5 2286.79 971.5 2289.64 976 2292.5 980.5 2292.5 986.5 2288.21 989.5 2283.93 992.5 2278.21 991 2275.36 988 2272.5 983.5 2273.93 977.5 2278.21 974.5Z" stroke="#333333" stroke-width="1.14583" stroke-linecap="round" stroke-linejoin="round" stroke-miterlimit="10" fill="#FFFA8E" fill-rule="evenodd"/><path d="M2289.79 991.1C2294.07 986.5 2298.36 988.033 2302.64 991.1 2305.5 995.7 2305.5 1001.83 2301.21 1004.9 2298.36 1009.5 2292.64 1007.97 2288.36 1004.9 2285.5 1000.3 2285.5 994.167 2289.79 991.1Z" stroke="#333333" stroke-width="1.14583" stroke-linecap="round" stroke-linejoin="round" stroke-miterlimit="10" fill="#FFFA8E" fill-rule="evenodd"/><path d="M2302.79 1006.5C2305.64 1003.5 2311.36 1003.5 2315.64 1006.5 2318.5 1011 2318.5 1017 2315.64 1020 2311.36 1024.5 2305.64 1024.5 2302.79 1020 2298.5 1015.5 2298.5 1009.5 2302.79 1006.5Z" stroke="#333333" stroke-width="1.14583" stroke-linecap="round" stroke-linejoin="round" stroke-miterlimit="10" fill="#FFFA8E" fill-rule="evenodd"/><path d="M2316.79 1022C2319.64 1017.5 2325.36 1017.5 2328.21 1020.5 2332.5 1025 2332.5 1031 2329.64 1034 2326.79 1038.5 2321.07 1038.5 2316.79 1035.5 2312.5 1031 2312.5 1025 2316.79 1022Z" stroke="#333333" stroke-width="1.14583" stroke-linecap="round" stroke-linejoin="round" stroke-miterlimit="10" fill="#FFFA8E" fill-rule="evenodd"/><path d="M2331.36 1036C2334.21 1031.5 2339.93 1031.5 2344.21 1034.5 2347.07 1037.5 2348.5 1043.5 2345.64 1048 2342.79 1052.5 2335.64 1052.5 2332.79 1049.5 2328.5 1046.5 2328.5 1040.5 2331.36 1036Z" stroke="#333333" stroke-width="1.14583" stroke-linecap="round" stroke-linejoin="round" stroke-miterlimit="10" fill="#FFFA8E" fill-rule="evenodd"/><path d="M2346.9 1049.63C2349.83 1045.03 2355.7 1043.5 2358.63 1046.57 2363.03 1049.63 2364.5 1055.77 2361.57 1060.37 2358.63 1064.97 2352.77 1066.5 2348.37 1063.43 2343.97 1058.83 2342.5 1052.7 2346.9 1049.63Z" stroke="#333333" stroke-width="1.14583" stroke-linecap="round" stroke-linejoin="round" stroke-miterlimit="10" fill="#FFFA8E" fill-rule="evenodd"/><path d="M2362.36 1061.79C2365.21 1057.07 2370.93 1055.5 2373.79 1058.64 2378.07 1060.21 2379.5 1066.5 2378.07 1071.21 2375.21 1075.93 2369.5 1077.5 2365.21 1074.36 2360.93 1071.21 2359.5 1064.93 2362.36 1061.79Z" stroke="#333333" stroke-width="1.14583" stroke-linecap="round" stroke-linejoin="round" stroke-miterlimit="10" fill="#FFFA8E" fill-rule="evenodd"/><path d="M2379.5 1072.5C2381 1068 2387 1066.5 2391.5 1068 2396 1069.5 2397.5 1075.5 2396 1080 2393 1084.5 2388.5 1087.5 2382.5 1084.5 2378 1083 2376.5 1077 2379.5 1072.5Z" stroke="#333333" stroke-width="1.14583" stroke-linecap="round" stroke-linejoin="round" stroke-miterlimit="10" fill="#FFFA8E" fill-rule="evenodd"/><path d="M2397.3 1081.36C2398.7 1075.07 2404.3 1073.5 2408.5 1075.07 2412.7 1076.64 2415.5 1082.93 2414.1 1087.64 2412.7 1093.93 2407.1 1095.5 2401.5 1093.93 2397.3 1092.36 2394.5 1086.07 2397.3 1081.36Z" stroke="#333333" stroke-width="1.14583" stroke-linecap="round" stroke-linejoin="round" stroke-miterlimit="10" fill="#FFFA8E" fill-rule="evenodd"/><path d="M2415.93 1089.19C2417.36 1083.04 2421.64 1081.5 2425.93 1081.5 2430.21 1083.04 2434.5 1087.65 2433.07 1093.81 2431.64 1098.42 2427.36 1101.5 2421.64 1099.96 2417.36 1099.96 2414.5 1093.81 2415.93 1089.19Z" stroke="#333333" stroke-width="1.14583" stroke-linecap="round" stroke-linejoin="round" stroke-miterlimit="10" fill="#FFFA8E" fill-rule="evenodd"/><path d="M2434.93 1093.73C2436.36 1089.12 2440.64 1084.5 2444.93 1084.5 2449.21 1086.04 2453.5 1090.65 2453.5 1095.27 2453.5 1101.42 2449.21 1104.5 2443.5 1104.5 2437.79 1104.5 2433.5 1098.35 2434.93 1093.73Z" stroke="#333333" stroke-width="1.14583" stroke-linecap="round" stroke-linejoin="round" stroke-miterlimit="10" fill="#FFFA8E" fill-rule="evenodd"/><path d="M2454.5 1067.73C2454.5 1063.12 2458.88 1058.5 2463.27 1058.5 2467.65 1058.5 2472.04 1061.58 2473.5 1066.19 2473.5 1070.81 2470.58 1076.96 2464.73 1076.96 2458.88 1078.5 2454.5 1073.88 2454.5 1067.73Z" stroke="#333333" stroke-width="1.14583" stroke-linecap="round" stroke-linejoin="round" stroke-miterlimit="10" fill="#FFFA8E" fill-rule="evenodd"/><path d="M2474.93 1066C2473.5 1060 2476.36 1055.5 2480.64 1054 2484.93 1052.5 2490.64 1055.5 2492.07 1060 2493.5 1066 2490.64 1070.5 2486.36 1073.5 2480.64 1073.5 2474.93 1070.5 2474.93 1066Z" stroke="#333333" stroke-width="1.14583" stroke-linecap="round" stroke-linejoin="round" stroke-miterlimit="10" fill="#FFFA8E" fill-rule="evenodd"/><path d="M2492.93 1060C2491.5 1055.5 2494.36 1049.5 2498.64 1048 2502.93 1046.5 2507.21 1048 2510.07 1052.5 2511.5 1057 2510.07 1063 2504.36 1066 2500.07 1067.5 2494.36 1064.5 2492.93 1060Z" stroke="#333333" stroke-width="1.14583" stroke-linecap="round" stroke-linejoin="round" stroke-miterlimit="10" fill="#FFFA8E" fill-rule="evenodd"/><path d="M2511.43 1052.21C2508.5 1047.5 2509.97 1041.21 2514.37 1038.07 2518.77 1036.5 2524.63 1038.07 2527.57 1042.79 2530.5 1047.5 2529.03 1053.79 2523.17 1055.36 2518.77 1058.5 2512.9 1056.93 2511.43 1052.21Z" stroke="#333333" stroke-width="1.14583" stroke-linecap="round" stroke-linejoin="round" stroke-miterlimit="10" fill="#FFFA8E" fill-rule="evenodd"/><path d="M2528.36 1041.5C2525.5 1037 2526.93 1031 2531.21 1029.5 2534.07 1026.5 2539.79 1026.5 2542.64 1031 2545.5 1035.5 2545.5 1041.5 2541.21 1044.5 2536.93 1047.5 2531.21 1046 2528.36 1041.5Z" stroke="#333333" stroke-width="1.14583" stroke-linecap="round" stroke-linejoin="round" stroke-miterlimit="10" fill="#FFFA8E" fill-rule="evenodd"/><path d="M2544.43 1030.79C2541.5 1026.07 2542.97 1019.79 2547.37 1016.64 2550.3 1013.5 2556.17 1013.5 2559.1 1018.21 2563.5 1022.93 2562.03 1029.21 2557.63 1032.36 2553.23 1035.5 2547.37 1033.93 2544.43 1030.79Z" stroke="#333333" stroke-width="1.14583" stroke-linecap="round" stroke-linejoin="round" stroke-miterlimit="10" fill="#FFFA8E" fill-rule="evenodd"/><path d="M2560.36 1017.79C2557.5 1013.07 2557.5 1008.36 2561.79 1003.64 2564.64 1000.5 2570.36 1000.5 2574.64 1005.21 2577.5 1008.36 2577.5 1014.64 2573.21 1019.36 2568.93 1022.5 2563.21 1022.5 2560.36 1017.79Z" stroke="#333333" stroke-width="1.14583" stroke-linecap="round" stroke-linejoin="round" stroke-miterlimit="10" fill="#FFFA8E" fill-rule="evenodd"/><path d="M2574.36 1003.79C2571.5 999.071 2571.5 994.357 2575.79 989.643 2578.64 986.5 2584.36 986.5 2587.21 989.643 2591.5 992.786 2591.5 999.071 2587.21 1003.79 2584.36 1008.5 2578.64 1008.5 2574.36 1003.79Z" stroke="#333333" stroke-width="1.14583" stroke-linecap="round" stroke-linejoin="round" stroke-miterlimit="10" fill="#FFFA8E" fill-rule="evenodd"/><path d="M2588.79 987.9C2585.93 984.833 2584.5 978.7 2587.36 974.1 2591.64 971.033 2597.36 969.5 2600.21 974.1 2604.5 977.167 2604.5 983.3 2601.64 986.367 2598.79 990.967 2593.07 992.5 2588.79 987.9Z" stroke="#333333" stroke-width="1.14583" stroke-linecap="round" stroke-linejoin="round" stroke-miterlimit="10" fill="#FFFA8E" fill-rule="evenodd"/><path d="M2602.37 973.357C2597.97 970.214 2596.5 963.929 2599.43 959.214 2602.37 954.5 2608.23 954.5 2612.63 956.072 2617.03 957.643 2618.5 963.929 2615.57 970.214 2612.63 974.929 2606.77 976.5 2602.37 973.357Z" stroke="#333333" stroke-width="1.14583" stroke-linecap="round" stroke-linejoin="round" stroke-miterlimit="10" fill="#FFFA8E" fill-rule="evenodd"/><path d="M2612.17 954.967C2607.92 953.433 2606.5 947.3 2606.5 944.233 2606.5 942.7 2609.33 938.1 2613.58 936.567 2617.83 933.5 2623.5 938.1 2623.5 945.767 2623.5 954.967 2616.42 956.5 2612.17 954.967Z" stroke="#333333" stroke-width="1.14583" stroke-linecap="round" stroke-linejoin="round" stroke-miterlimit="10" fill="#FFFA8E" fill-rule="evenodd"/><path d="M2612.36 934.928C2608.07 936.5 2603.79 934.928 2600.93 930.214 2599.5 925.5 2599.5 920.786 2603.79 917.643 2608.07 914.5 2613.79 914.5 2616.64 920.786 2619.5 925.5 2618.07 933.357 2612.36 934.928Z" stroke="#333333" stroke-width="1.14583" stroke-linecap="round" stroke-linejoin="round" stroke-miterlimit="10" fill="#FFFA8E" fill-rule="evenodd"/><path d="M2603.21 916.433C2598.93 919.5 2593.21 917.967 2590.36 913.367 2587.5 910.3 2588.93 904.167 2591.79 901.1 2596.07 896.5 2601.79 898.033 2604.64 902.633 2607.5 907.233 2607.5 913.367 2603.21 916.433Z" stroke="#333333" stroke-width="1.14583" stroke-linecap="round" stroke-linejoin="round" stroke-miterlimit="10" fill="#FFFA8E" fill-rule="evenodd"/><path d="M2590.21 899.5C2587.36 902.5 2581.64 902.5 2578.79 898 2574.5 895 2574.5 889 2578.79 886 2581.64 881.5 2587.36 881.5 2591.64 886 2594.5 890.5 2594.5 896.5 2590.21 899.5Z" stroke="#333333" stroke-width="1.14583" stroke-linecap="round" stroke-linejoin="round" stroke-miterlimit="10" fill="#FFFA8E" fill-rule="evenodd"/><path d="M2578.21 884.5C2575.36 887.5 2569.64 887.5 2565.36 884.5 2562.5 881.5 2562.5 875.5 2565.36 871 2568.21 866.5 2573.93 866.5 2578.21 871 2582.5 874 2582.5 880 2578.21 884.5Z" stroke="#333333" stroke-width="1.14583" stroke-linecap="round" stroke-linejoin="round" stroke-miterlimit="10" fill="#FFFA8E" fill-rule="evenodd"/><path d="M2563.5 869C2560.5 873.5 2554.5 873.5 2550 870.5 2547 867.5 2545.5 861.5 2548.5 857 2551.5 854 2557.5 852.5 2562 855.5 2566.5 860 2566.5 866 2563.5 869Z" stroke="#333333" stroke-width="1.14583" stroke-linecap="round" stroke-linejoin="round" stroke-miterlimit="10" fill="#FFFA8E" fill-rule="evenodd"/><path d="M2547.64 856.786C2544.79 861.5 2539.07 861.5 2536.21 858.357 2531.93 855.214 2530.5 850.5 2533.36 845.786 2536.21 841.071 2541.93 839.5 2546.21 842.643 2550.5 845.786 2550.5 852.071 2547.64 856.786Z" stroke="#333333" stroke-width="1.14583" stroke-linecap="round" stroke-linejoin="round" stroke-miterlimit="10" fill="#FFFA8E" fill-rule="evenodd"/><path d="M2531.7 844.5C2528.9 849 2523.3 850.5 2519.1 847.5 2514.9 846 2513.5 840 2516.3 835.5 2517.7 831 2523.3 829.5 2528.9 831 2533.1 834 2534.5 840 2531.7 844.5Z" stroke="#333333" stroke-width="1.14583" stroke-linecap="round" stroke-linejoin="round" stroke-miterlimit="10" fill="#FFFA8E" fill-rule="evenodd"/><path d="M2514.7 833.833C2511.9 838.433 2507.7 841.5 2503.5 838.433 2499.3 836.9 2496.5 830.767 2497.9 826.167 2500.7 821.567 2504.9 818.5 2510.5 821.567 2514.7 823.1 2517.5 829.233 2514.7 833.833Z" stroke="#333333" stroke-width="1.14583" stroke-linecap="round" stroke-linejoin="round" stroke-miterlimit="10" fill="#FFFA8E" fill-rule="evenodd"/><path d="M2495.7 826.643C2494.3 831.357 2490.1 834.5 2485.9 832.929 2480.3 831.357 2477.5 826.643 2478.9 820.357 2480.3 815.643 2485.9 812.5 2490.1 814.072 2495.7 815.643 2498.5 821.929 2495.7 826.643Z" stroke="#333333" stroke-width="1.14583" stroke-linecap="round" stroke-linejoin="round" stroke-miterlimit="10" fill="#FFFA8E" fill-rule="evenodd"/><path d="M2477.07 820.071C2475.64 826.357 2471.36 829.5 2467.07 827.929 2462.79 827.929 2458.5 823.214 2459.93 816.929 2459.93 812.214 2464.21 807.5 2469.93 809.071 2474.21 809.071 2478.5 815.357 2477.07 820.071Z" stroke="#333333" stroke-width="1.14583" stroke-linecap="round" stroke-linejoin="round" stroke-miterlimit="10" fill="#FFFA8E" fill-rule="evenodd"/><path d="M2457.07 816.731C2457.07 822.885 2454.21 825.961 2448.5 827.5 2444.21 827.5 2439.93 822.885 2439.93 818.269 2438.5 812.115 2442.79 807.5 2448.5 807.5 2454.21 807.5 2458.5 812.115 2457.07 816.731Z" stroke="#333333" stroke-width="1.14583" stroke-linecap="round" stroke-linejoin="round" stroke-miterlimit="10" fill="#FFFA8E" fill-rule="evenodd"/><path d="M2438.5 818.5C2438.5 823 2435.64 829 2431.36 829 2427.07 830.5 2422.79 827.5 2419.93 823 2418.5 818.5 2421.36 812.5 2427.07 811 2432.79 809.5 2437.07 814 2438.5 818.5Z" stroke="#333333" stroke-width="1.14583" stroke-linecap="round" stroke-linejoin="round" stroke-miterlimit="10" fill="#FFFA8E" fill-rule="evenodd"/><path d="M2418.07 823C2419.5 829 2418.07 833.5 2413.79 835 2409.5 836.5 2403.79 835 2402.36 830.5 2399.5 826 2402.36 820 2406.64 817 2412.36 815.5 2416.64 818.5 2418.07 823Z" stroke="#333333" stroke-width="1.14583" stroke-linecap="round" stroke-linejoin="round" stroke-miterlimit="10" fill="#FFFA8E" fill-rule="evenodd"/><path d="M2401.07 830.786C2402.5 837.072 2401.07 841.786 2396.79 844.929 2392.5 846.5 2386.79 844.929 2383.93 840.214 2382.5 835.5 2383.93 829.214 2388.21 827.643 2392.5 824.5 2398.21 826.072 2401.07 830.786Z" stroke="#333333" stroke-width="1.14583" stroke-linecap="round" stroke-linejoin="round" stroke-miterlimit="10" fill="#FFFA8E" fill-rule="evenodd"/><path d="M2384.07 841.786C2385.5 846.5 2384.07 852.786 2381.21 855.929 2376.93 857.5 2371.21 857.5 2368.36 852.786 2365.5 848.072 2366.93 841.786 2371.21 838.643 2375.5 835.5 2381.21 837.072 2384.07 841.786Z" stroke="#333333" stroke-width="1.14583" stroke-linecap="round" stroke-linejoin="round" stroke-miterlimit="10" fill="#FFFA8E" fill-rule="evenodd"/><path d="M2367.64 853.786C2370.5 856.928 2370.5 863.214 2366.21 866.357 2361.93 869.5 2357.64 869.5 2353.36 866.357 2350.5 861.643 2350.5 855.357 2354.79 852.214 2359.07 847.5 2364.79 849.071 2367.64 853.786Z" stroke="#333333" stroke-width="1.14583" stroke-linecap="round" stroke-linejoin="round" stroke-miterlimit="10" fill="#FFFA8E" fill-rule="evenodd"/><path d="M2351.21 866C2355.5 870.5 2355.5 876.5 2351.21 879.5 2348.36 882.5 2342.64 882.5 2338.36 879.5 2335.5 876.5 2335.5 869 2338.36 866 2342.64 861.5 2348.36 863 2351.21 866Z" stroke="#333333" stroke-width="1.14583" stroke-linecap="round" stroke-linejoin="round" stroke-miterlimit="10" fill="#FFFA8E" fill-rule="evenodd"/><path d="M2337.21 881.214C2341.5 884.357 2341.5 890.643 2338.64 895.357 2335.79 898.5 2330.07 898.5 2325.79 895.357 2321.5 892.214 2321.5 885.929 2324.36 881.214 2328.64 876.5 2334.36 876.5 2337.21 881.214Z" stroke="#333333" stroke-width="1.14583" stroke-linecap="round" stroke-linejoin="round" stroke-miterlimit="10" fill="#FFFA8E" fill-rule="evenodd"/><path d="M2324.21 896.5C2328.5 899.5 2328.5 905.5 2325.64 910 2322.79 913 2317.07 914.5 2314.21 911.5 2309.93 908.5 2308.5 902.5 2311.36 898 2315.64 893.5 2321.36 893.5 2324.21 896.5Z" stroke="#333333" stroke-width="1.14583" stroke-linecap="round" stroke-linejoin="round" stroke-miterlimit="10" fill="#FFFA8E" fill-rule="evenodd"/><path d="M2312.63 913.5C2317.03 916.5 2318.5 922.5 2315.57 925.5 2312.63 930 2308.23 931.5 2302.37 930 2297.97 927 2296.5 921 2299.43 916.5 2302.37 912 2308.23 910.5 2312.63 913.5Z" stroke="#333333" stroke-width="1.14583" stroke-linecap="round" stroke-linejoin="round" stroke-miterlimit="10" fill="#FFFA8E" fill-rule="evenodd"/><path d="M2302.79 931.567C2307.07 933.1 2308.5 939.233 2308.5 942.3 2307.07 943.833 2304.21 946.9 2299.93 949.967 2295.64 951.5 2288.5 946.9 2291.36 937.7 2292.79 931.567 2298.5 928.5 2302.79 931.567Z" stroke="#333333" stroke-width="1.14583" stroke-linecap="round" stroke-linejoin="round" stroke-miterlimit="10" fill="#FFFA8E" fill-rule="evenodd"/><path d="M2299.21 951.071C2304.93 949.5 2309.21 951.071 2312.07 954.214 2313.5 958.929 2312.07 965.214 2309.21 968.357 2304.93 971.5 2299.21 969.929 2296.36 965.214 2293.5 958.929 2294.93 952.643 2299.21 951.071Z" stroke="#333333" stroke-width="1.14583" stroke-linecap="round" stroke-linejoin="round" stroke-miterlimit="10" fill="#FFFA8E" fill-rule="evenodd"/><path d="M2309.79 970.5C2314.07 967.5 2319.79 967.5 2322.64 972 2325.5 976.5 2325.5 982.5 2321.21 985.5 2316.93 988.5 2311.21 988.5 2308.36 984 2305.5 979.5 2305.5 973.5 2309.79 970.5Z" stroke="#333333" stroke-width="1.14583" stroke-linecap="round" stroke-linejoin="round" stroke-miterlimit="10" fill="#FFFA8E" fill-rule="evenodd"/><path d="M2322.79 986.214C2325.64 981.5 2331.36 983.071 2334.21 986.214 2338.5 990.928 2338.5 997.214 2334.21 1000.36 2331.36 1003.5 2325.64 1003.5 2321.36 1000.36 2318.5 995.643 2318.5 989.357 2322.79 986.214Z" stroke="#333333" stroke-width="1.14583" stroke-linecap="round" stroke-linejoin="round" stroke-miterlimit="10" fill="#FFFA8E" fill-rule="evenodd"/><path d="M2335.79 1002C2338.64 997.5 2344.36 997.5 2348.64 1002 2351.5 1005 2351.5 1011 2348.64 1015.5 2345.79 1018.5 2340.07 1018.5 2335.79 1015.5 2331.5 1011 2331.5 1005 2335.79 1002Z" stroke="#333333" stroke-width="1.14583" stroke-linecap="round" stroke-linejoin="round" stroke-miterlimit="10" fill="#FFFA8E" fill-rule="evenodd"/><path d="M2350.36 1016.1C2353.21 1013.03 2358.93 1011.5 2363.21 1014.57 2366.07 1019.17 2367.5 1023.77 2364.64 1028.37 2361.79 1032.97 2354.64 1034.5 2351.79 1029.9 2347.5 1026.83 2347.5 1020.7 2350.36 1016.1Z" stroke="#333333" stroke-width="1.14583" stroke-linecap="round" stroke-linejoin="round" stroke-miterlimit="10" fill="#FFFA8E" fill-rule="evenodd"/><path d="M2365.7 1029.21C2368.5 1024.5 2374.1 1024.5 2376.9 1027.64 2381.1 1029.21 2382.5 1035.5 2379.7 1040.21 2376.9 1044.93 2371.3 1046.5 2367.1 1043.36 2362.9 1040.21 2361.5 1033.93 2365.7 1029.21Z" stroke="#333333" stroke-width="1.14583" stroke-linecap="round" stroke-linejoin="round" stroke-miterlimit="10" fill="#FFFA8E" fill-rule="evenodd"/><path d="M2381.36 1041.5C2384.21 1037 2388.5 1035.5 2392.79 1038.5 2397.07 1040 2398.5 1046 2397.07 1050.5 2394.21 1055 2388.5 1056.5 2384.21 1055 2379.93 1052 2378.5 1046 2381.36 1041.5Z" stroke="#333333" stroke-width="1.14583" stroke-linecap="round" stroke-linejoin="round" stroke-miterlimit="10" fill="#FFFA8E" fill-rule="evenodd"/><path d="M2398.36 1052.17C2399.79 1047.57 2405.5 1044.5 2409.79 1047.57 2414.07 1049.1 2415.5 1055.23 2414.07 1059.83 2412.64 1064.43 2406.93 1067.5 2402.64 1064.43 2398.36 1062.9 2395.5 1056.77 2398.36 1052.17Z" stroke="#333333" stroke-width="1.14583" stroke-linecap="round" stroke-linejoin="round" stroke-miterlimit="10" fill="#FFFA8E" fill-rule="evenodd"/><path d="M2415.93 1060C2418.79 1055.5 2423.07 1052.5 2427.36 1054 2431.64 1055.5 2434.5 1060 2433.07 1066 2433.07 1070.5 2427.36 1073.5 2423.07 1072 2417.36 1070.5 2414.5 1064.5 2415.93 1060Z" stroke="#333333" stroke-width="1.14583" stroke-linecap="round" stroke-linejoin="round" stroke-miterlimit="10" fill="#FFFA8E" fill-rule="evenodd"/><path d="M2435.96 1066.19C2435.96 1060.04 2440.35 1058.5 2444.73 1058.5 2450.58 1058.5 2453.5 1063.12 2453.5 1067.73 2453.5 1073.88 2449.12 1078.5 2443.27 1076.96 2437.42 1076.96 2434.5 1070.81 2435.96 1066.19Z" stroke="#333333" stroke-width="1.14583" stroke-linecap="round" stroke-linejoin="round" stroke-miterlimit="10" fill="#FFFA8E" fill-rule="evenodd"/></g></svg>