<svg width="365" height="309" xmlns="http://www.w3.org/2000/svg" xmlns:xlink="http://www.w3.org/1999/xlink" xml:space="preserve" overflow="hidden"><g transform="translate(-2755 -788)"><path d="M2939.87 797C3005.9 797 3094.9 801.579 3103.52 848.895 3115 917.579 3110.69 1006.11 3102.08 1042.74 3093.47 1079.37 3000.16 1087 2939.87 1087 2881.02 1087 2780.53 1079.37 2771.92 1042.74 2764.74 1006.11 2759 917.579 2770.48 848.895 2779.1 801.579 2875.27 797 2939.87 797Z" fill="#8290C3" fill-rule="evenodd"/><path d="M2939.86 824C2992.71 824 3071.29 827.052 3078.43 865.201 3087 921.662 3082.71 993.383 3077 1023.9 3069.86 1054.42 2988.43 1059 2939.86 1059 2891.29 1059 2804.14 1054.42 2798.43 1023.9 2791.29 993.383 2787 921.662 2797 865.201 2802.71 827.052 2887 824 2939.86 824Z" fill="#DBEDF5" fill-rule="evenodd"/><path d="M2838 865.783C2838 856.652 2843.82 849.043 2851.09 847.522 2859.82 846 2868.55 852.087 2868.55 861.217 2870 870.348 2864.18 877.957 2855.45 879.478 2848.18 881 2839.45 874.913 2838 865.783Z" fill="#FFFDF6" fill-rule="evenodd"/><path d="M2871 856.5C2871 851.75 2873.91 848.583 2878.27 847 2882.64 847 2887 850.167 2887 854.917 2887 859.667 2884.09 864.417 2879.73 864.417 2875.36 866 2872.45 861.25 2871 856.5Z" fill="#FFFDF6" fill-rule="evenodd"/><path d="M2819.42 873.083C2818 868.333 2820.83 863.583 2825.08 863.583 2829.33 862 2833.58 866.75 2835 871.5 2835 876.25 2832.17 879.417 2827.92 881 2823.67 881 2819.42 877.833 2819.42 873.083Z" fill="#FFFDF6" fill-rule="evenodd"/><path d="M3045.65 1007.82C3027.03 1029.24 2931.08 1036.88 2901 1036.88 2952.56 1043 3027.03 1035.35 3048.52 1024.65 3070 1010.88 3062.84 939 3061.41 913 3062.84 939 3067.14 983.353 3045.65 1007.82Z" fill="#FFFDF6" fill-rule="evenodd"/><path d="M2941.5 797.5C2941.5 792.529 2945.75 788.5 2951 788.5 2956.25 788.5 2960.5 792.529 2960.5 797.5 2960.5 802.471 2956.25 806.5 2951 806.5 2945.75 806.5 2941.5 802.471 2941.5 797.5Z" stroke="#333333" stroke-width="1.14583" stroke-linecap="round" stroke-linejoin="round" stroke-miterlimit="10" fill="#FFFA8E" fill-rule="evenodd"/><path d="M2961.5 797.269C2961.5 792.885 2965.88 788.5 2970.27 788.5 2976.12 788.5 2980.5 792.885 2979.04 798.731 2979.04 803.115 2974.65 807.5 2970.27 807.5 2965.88 807.5 2961.5 803.115 2961.5 797.269Z" stroke="#333333" stroke-width="1.14583" stroke-linecap="round" stroke-linejoin="round" stroke-miterlimit="10" fill="#FFFA8E" fill-rule="evenodd"/><path d="M2981.96 798.731C2981.96 792.885 2986.35 788.5 2990.73 789.962 2996.58 789.962 2999.5 794.346 2999.5 798.731 2999.5 804.577 2995.12 807.5 2990.73 807.5 2984.88 807.5 2980.5 803.115 2981.96 798.731Z" stroke="#333333" stroke-width="1.14583" stroke-linecap="round" stroke-linejoin="round" stroke-miterlimit="10" fill="#FFFA8E" fill-rule="evenodd"/><path d="M3000.5 798.929C3001.96 794.214 3006.35 789.5 3010.73 791.072 3016.58 791.072 3019.5 795.786 3019.5 802.072 3019.5 806.786 3013.65 811.5 3009.27 809.929 3004.88 809.929 3000.5 805.214 3000.5 798.929Z" stroke="#333333" stroke-width="1.14583" stroke-linecap="round" stroke-linejoin="round" stroke-miterlimit="10" fill="#FFFA8E" fill-rule="evenodd"/><path d="M3020.5 801.731C3020.5 795.577 3026.35 792.5 3030.73 792.5 3036.58 794.038 3039.5 798.654 3039.5 804.808 3038.04 809.423 3033.65 812.5 3027.81 812.5 3023.42 810.962 3020.5 806.346 3020.5 801.731Z" stroke="#333333" stroke-width="1.14583" stroke-linecap="round" stroke-linejoin="round" stroke-miterlimit="10" fill="#FFFA8E" fill-rule="evenodd"/><path d="M3040.93 804.5C3040.93 798.5 3046.64 795.5 3050.93 797 3056.64 798.5 3059.5 803 3058.07 809 3056.64 813.5 3052.36 816.5 3046.64 815 3042.36 813.5 3039.5 809 3040.93 804.5Z" stroke="#333333" stroke-width="1.14583" stroke-linecap="round" stroke-linejoin="round" stroke-miterlimit="10" fill="#FFFA8E" fill-rule="evenodd"/><path d="M3058.93 810C3060.36 805.5 3066.07 802.5 3070.36 804 3076.07 807 3077.5 811.5 3076.07 817.5 3073.21 822 3068.93 823.5 3064.64 822 3060.36 820.5 3057.5 814.5 3058.93 810Z" stroke="#333333" stroke-width="1.14583" stroke-linecap="round" stroke-linejoin="round" stroke-miterlimit="10" fill="#FFFA8E" fill-rule="evenodd"/><path d="M3077.43 817.5C3078.9 813 3084.77 811.5 3090.63 814.5 3095.03 817.5 3096.5 825 3092.1 828 3089.17 832.5 3083.3 832.5 3080.37 829.5 3075.97 828 3074.5 822 3077.43 817.5Z" stroke="#333333" stroke-width="1.14583" stroke-linecap="round" stroke-linejoin="round" stroke-miterlimit="10" fill="#FFFA8E" fill-rule="evenodd"/><path d="M3093.7 829.5C3096.5 826.5 3103.5 826.5 3106.3 832.5 3110.5 838.5 3107.7 844.5 3102.1 846 3097.9 847.5 3093.7 844.5 3090.9 841.5 3089.5 838.5 3089.5 834 3093.7 829.5Z" stroke="#333333" stroke-width="1.14583" stroke-linecap="round" stroke-linejoin="round" stroke-miterlimit="10" fill="#FFFA8E" fill-rule="evenodd"/><path d="M3104.07 848C3108.36 846.5 3114.07 851 3114.07 855.5 3115.5 861.5 3111.21 866 3106.93 866 3101.21 867.5 3096.93 863 3096.93 858.5 3095.5 854 3098.36 849.5 3104.07 848Z" stroke="#333333" stroke-width="1.14583" stroke-linecap="round" stroke-linejoin="round" stroke-miterlimit="10" fill="#FFFA8E" fill-rule="evenodd"/><path d="M3106.81 867.5C3110.96 867.5 3116.5 870.577 3116.5 876.731 3116.5 882.885 3113.73 887.5 3108.19 887.5 3104.04 887.5 3099.88 884.423 3098.5 878.269 3098.5 873.654 3101.27 869.039 3106.81 867.5Z" stroke="#333333" stroke-width="1.14583" stroke-linecap="round" stroke-linejoin="round" stroke-miterlimit="10" fill="#FFFA8E" fill-rule="evenodd"/><path d="M3108.27 889.5C3114.12 889.5 3118.5 892.423 3118.5 898.269 3118.5 904.115 3115.58 908.5 3109.73 908.5 3105.35 908.5 3100.96 904.115 3100.96 899.731 3099.5 893.885 3103.88 889.5 3108.27 889.5Z" stroke="#333333" stroke-width="1.14583" stroke-linecap="round" stroke-linejoin="round" stroke-miterlimit="10" fill="#FFFA8E" fill-rule="evenodd"/><path d="M3109.81 910.5C3115.35 910.5 3119.5 913.577 3119.5 919.731 3119.5 925.885 3115.35 928.962 3111.19 930.5 3105.65 930.5 3101.5 925.885 3101.5 919.731 3101.5 915.115 3105.65 910.5 3109.81 910.5Z" stroke="#333333" stroke-width="1.14583" stroke-linecap="round" stroke-linejoin="round" stroke-miterlimit="10" fill="#FFFA8E" fill-rule="evenodd"/><path d="M3111.19 931.5C3115.35 931.5 3119.5 934.5 3119.5 940.5 3119.5 946.5 3115.35 949.5 3111.19 949.5 3105.65 949.5 3102.88 945 3101.5 940.5 3101.5 936 3105.65 931.5 3111.19 931.5Z" stroke="#333333" stroke-width="1.14583" stroke-linecap="round" stroke-linejoin="round" stroke-miterlimit="10" fill="#FFFA8E" fill-rule="evenodd"/><path d="M3111.19 951.5C3115.35 951.5 3119.5 956.115 3119.5 962.269 3119.5 966.885 3115.35 971.5 3109.81 971.5 3105.65 971.5 3101.5 966.885 3101.5 962.269 3101.5 956.115 3105.65 951.5 3111.19 951.5Z" stroke="#333333" stroke-width="1.14583" stroke-linecap="round" stroke-linejoin="round" stroke-miterlimit="10" fill="#FFFA8E" fill-rule="evenodd"/><path d="M3109.73 972.5C3115.58 972.5 3118.5 977.115 3118.5 983.269 3118.5 987.885 3114.12 992.5 3108.27 992.5 3103.88 992.5 3099.5 987.885 3100.96 981.731 3100.96 977.115 3105.35 972.5 3109.73 972.5Z" stroke="#333333" stroke-width="1.14583" stroke-linecap="round" stroke-linejoin="round" stroke-miterlimit="10" fill="#FFFA8E" fill-rule="evenodd"/><path d="M3108.19 994.5C3113.73 994.5 3116.5 998.885 3116.5 1004.73 3116.5 1009.12 3112.35 1013.5 3106.81 1013.5 3102.65 1012.04 3098.5 1007.65 3099.88 1003.27 3099.88 997.423 3104.04 994.5 3108.19 994.5Z" stroke="#333333" stroke-width="1.14583" stroke-linecap="round" stroke-linejoin="round" stroke-miterlimit="10" fill="#FFFA8E" fill-rule="evenodd"/><path d="M3106.73 1015.07C3112.58 1015.07 3115.5 1019.79 3114.04 1026.07 3114.04 1030.79 3109.65 1035.5 3103.81 1033.93 3099.42 1033.93 3096.5 1027.64 3096.5 1022.93 3096.5 1018.21 3102.35 1013.5 3106.73 1015.07Z" stroke="#333333" stroke-width="1.14583" stroke-linecap="round" stroke-linejoin="round" stroke-miterlimit="10" fill="#FFFA8E" fill-rule="evenodd"/><path d="M3103.93 1035.97C3108.21 1037.43 3112.5 1041.83 3111.07 1047.7 3108.21 1055.03 3101.07 1056.5 3096.79 1053.57 3093.93 1050.63 3092.5 1044.77 3093.93 1043.3 3093.93 1038.9 3099.64 1034.5 3103.93 1035.97Z" stroke="#333333" stroke-width="1.14583" stroke-linecap="round" stroke-linejoin="round" stroke-miterlimit="10" fill="#FFFA8E" fill-rule="evenodd"/><path d="M3097.1 1055.21C3101.5 1058.36 3100.03 1064.64 3095.63 1069.36 3089.77 1072.5 3083.9 1070.93 3082.43 1066.21 3079.5 1061.5 3080.97 1055.21 3083.9 1053.64 3086.83 1050.5 3092.7 1052.07 3097.1 1055.21Z" stroke="#333333" stroke-width="1.14583" stroke-linecap="round" stroke-linejoin="round" stroke-miterlimit="10" fill="#FFFA8E" fill-rule="evenodd"/><path d="M3081.07 1067.36C3082.5 1072.07 3081.07 1078.36 3075.36 1079.93 3069.64 1081.5 3065.36 1078.36 3063.93 1073.64 3062.5 1068.93 3063.93 1062.64 3069.64 1061.07 3073.93 1059.5 3078.21 1061.07 3081.07 1067.36Z" stroke="#333333" stroke-width="1.14583" stroke-linecap="round" stroke-linejoin="round" stroke-miterlimit="10" fill="#FFFA8E" fill-rule="evenodd"/><path d="M3062.07 1074C3063.5 1080 3060.64 1084.5 3054.93 1086 3049.21 1087.5 3044.93 1084.5 3043.5 1078.5 3043.5 1074 3046.36 1069.5 3050.64 1068 3054.93 1066.5 3060.64 1069.5 3062.07 1074Z" stroke="#333333" stroke-width="1.14583" stroke-linecap="round" stroke-linejoin="round" stroke-miterlimit="10" fill="#FFFA8E" fill-rule="evenodd"/><path d="M3042.07 1078.19C3043.5 1084.35 3040.64 1088.96 3034.93 1090.5 3029.21 1090.5 3024.93 1087.42 3024.93 1081.27 3023.5 1076.65 3027.79 1072.04 3032.07 1070.5 3036.36 1070.5 3042.07 1073.58 3042.07 1078.19Z" stroke="#333333" stroke-width="1.14583" stroke-linecap="round" stroke-linejoin="round" stroke-miterlimit="10" fill="#FFFA8E" fill-rule="evenodd"/><path d="M3023.5 1082.73C3023.5 1087.35 3020.58 1091.96 3014.73 1093.5 3008.88 1093.5 3004.5 1088.88 3004.5 1084.27 3004.5 1079.65 3007.42 1073.5 3013.27 1073.5 3017.65 1073.5 3022.04 1076.58 3023.5 1082.73Z" stroke="#333333" stroke-width="1.14583" stroke-linecap="round" stroke-linejoin="round" stroke-miterlimit="10" fill="#FFFA8E" fill-rule="evenodd"/><path d="M3003.5 1084.73C3003.5 1090.88 3000.58 1095.5 2994.73 1095.5 2990.35 1095.5 2985.96 1090.88 2984.5 1086.27 2984.5 1081.65 2988.88 1077.04 2993.27 1075.5 2999.12 1075.5 3003.5 1080.12 3003.5 1084.73Z" stroke="#333333" stroke-width="1.14583" stroke-linecap="round" stroke-linejoin="round" stroke-miterlimit="10" fill="#FFFA8E" fill-rule="evenodd"/><path d="M2983.5 1086.27C2983.5 1092.12 2980.58 1096.5 2974.73 1096.5 2970.35 1096.5 2965.96 1092.12 2965.96 1087.73 2964.5 1081.88 2968.88 1077.5 2974.73 1077.5 2979.12 1077.5 2983.5 1081.88 2983.5 1086.27Z" stroke="#333333" stroke-width="1.14583" stroke-linecap="round" stroke-linejoin="round" stroke-miterlimit="10" fill="#FFFA8E" fill-rule="evenodd"/><path d="M2963.04 1087.73C2964.5 1092.12 2960.12 1096.5 2954.27 1096.5 2949.88 1096.5 2945.5 1092.12 2945.5 1087.73 2945.5 1081.88 2949.88 1078.96 2954.27 1078.96 2958.65 1077.5 2963.04 1081.88 2963.04 1087.73Z" stroke="#333333" stroke-width="1.14583" stroke-linecap="round" stroke-linejoin="round" stroke-miterlimit="10" fill="#FFFA8E" fill-rule="evenodd"/><path d="M2925.5 1087.5C2925.5 1082.53 2929.75 1078.5 2935 1078.5 2940.25 1078.5 2944.5 1082.53 2944.5 1087.5 2944.5 1092.47 2940.25 1096.5 2935 1096.5 2929.75 1096.5 2925.5 1092.47 2925.5 1087.5Z" stroke="#333333" stroke-width="1.14583" stroke-linecap="round" stroke-linejoin="round" stroke-miterlimit="10" fill="#FFFA8E" fill-rule="evenodd"/><path d="M2924.5 1087.73C2924.5 1092.12 2920.12 1096.5 2914.27 1096.5 2909.88 1096.5 2905.5 1092.12 2905.5 1086.27 2905.5 1081.88 2909.88 1077.5 2915.73 1077.5 2920.12 1077.5 2924.5 1081.88 2924.5 1087.73Z" stroke="#333333" stroke-width="1.14583" stroke-linecap="round" stroke-linejoin="round" stroke-miterlimit="10" fill="#FFFA8E" fill-rule="evenodd"/><path d="M2904.5 1086.27C2904.5 1092.12 2900.12 1096.5 2894.27 1095.04 2889.88 1095.04 2885.5 1090.65 2885.5 1086.27 2886.96 1080.42 2891.35 1077.5 2895.73 1077.5 2901.58 1077.5 2904.5 1081.88 2904.5 1086.27Z" stroke="#333333" stroke-width="1.14583" stroke-linecap="round" stroke-linejoin="round" stroke-miterlimit="10" fill="#FFFA8E" fill-rule="evenodd"/><path d="M2884.07 1086.07C2884.07 1090.79 2879.79 1095.5 2875.5 1093.93 2869.79 1093.93 2865.5 1089.21 2866.93 1082.93 2866.93 1078.21 2871.21 1073.5 2876.93 1075.07 2881.21 1075.07 2885.5 1079.79 2884.07 1086.07Z" stroke="#333333" stroke-width="1.14583" stroke-linecap="round" stroke-linejoin="round" stroke-miterlimit="10" fill="#FFFA8E" fill-rule="evenodd"/><path d="M2865.5 1082.73C2864.12 1088.58 2859.96 1091.5 2855.81 1091.5 2850.27 1090.04 2847.5 1085.65 2847.5 1081.27 2848.88 1075.42 2853.04 1072.5 2857.19 1072.5 2862.73 1073.96 2865.5 1078.35 2865.5 1082.73Z" stroke="#333333" stroke-width="1.14583" stroke-linecap="round" stroke-linejoin="round" stroke-miterlimit="10" fill="#FFFA8E" fill-rule="evenodd"/><path d="M2846.07 1081.42C2844.64 1086.27 2840.36 1089.5 2836.07 1089.5 2830.36 1087.88 2827.5 1083.04 2828.93 1076.58 2828.93 1071.73 2834.64 1068.5 2838.93 1068.5 2843.21 1070.12 2847.5 1074.96 2846.07 1081.42Z" stroke="#333333" stroke-width="1.14583" stroke-linecap="round" stroke-linejoin="round" stroke-miterlimit="10" fill="#FFFA8E" fill-rule="evenodd"/><path d="M2826.07 1077.07C2826.07 1083.36 2820.36 1086.5 2816.07 1084.93 2810.36 1083.36 2807.5 1077.07 2808.93 1072.36 2810.36 1066.07 2816.07 1064.5 2820.36 1064.5 2824.64 1066.07 2827.5 1072.36 2826.07 1077.07Z" stroke="#333333" stroke-width="1.14583" stroke-linecap="round" stroke-linejoin="round" stroke-miterlimit="10" fill="#FFFA8E" fill-rule="evenodd"/><path d="M2807.07 1070.3C2805.64 1076.43 2799.93 1079.5 2795.64 1076.43 2789.93 1074.9 2788.5 1067.23 2791.36 1062.63 2792.79 1058.03 2798.5 1056.5 2802.79 1058.03 2807.07 1061.1 2808.5 1065.7 2807.07 1070.3Z" stroke="#333333" stroke-width="1.14583" stroke-linecap="round" stroke-linejoin="round" stroke-miterlimit="10" fill="#FFFA8E" fill-rule="evenodd"/><path d="M2790.07 1062.5C2787.21 1067 2781.5 1068.5 2775.79 1064 2771.5 1059.5 2771.5 1052 2775.79 1050.5 2780.07 1047.5 2785.79 1047.5 2788.64 1050.5 2791.5 1052 2791.5 1058 2790.07 1062.5Z" stroke="#333333" stroke-width="1.14583" stroke-linecap="round" stroke-linejoin="round" stroke-miterlimit="10" fill="#FFFA8E" fill-rule="evenodd"/><path d="M2775.36 1047.9C2771.07 1052.5 2763.93 1046.37 2763.93 1041.77 2762.5 1035.63 2765.36 1031.03 2771.07 1029.5 2775.36 1029.5 2779.64 1032.57 2781.07 1037.17 2782.5 1043.3 2779.64 1044.83 2775.36 1047.9Z" stroke="#333333" stroke-width="1.14583" stroke-linecap="round" stroke-linejoin="round" stroke-miterlimit="10" fill="#FFFA8E" fill-rule="evenodd"/><path d="M2771.19 1028C2765.35 1029.5 2760.96 1025 2759.5 1020.5 2759.5 1014.5 2763.88 1010 2768.27 1010 2772.65 1008.5 2778.5 1013 2778.5 1017.5 2778.5 1022 2775.58 1028 2771.19 1028Z" stroke="#333333" stroke-width="1.14583" stroke-linecap="round" stroke-linejoin="round" stroke-miterlimit="10" fill="#FFFA8E" fill-rule="evenodd"/><path d="M2768.19 1006.96C2762.65 1008.5 2758.5 1003.88 2758.5 999.269 2758.5 993.115 2761.27 988.5 2766.81 988.5 2770.96 988.5 2775.12 991.577 2776.5 997.731 2776.5 1002.35 2772.35 1006.96 2768.19 1006.96Z" stroke="#333333" stroke-width="1.14583" stroke-linecap="round" stroke-linejoin="round" stroke-miterlimit="10" fill="#FFFA8E" fill-rule="evenodd"/><path d="M2766.73 986.5C2760.88 986.5 2756.5 982.115 2756.5 977.731 2756.5 971.885 2760.88 967.5 2765.27 967.5 2771.12 967.5 2774.04 971.885 2775.5 976.269 2775.5 982.115 2771.12 986.5 2766.73 986.5Z" stroke="#333333" stroke-width="1.14583" stroke-linecap="round" stroke-linejoin="round" stroke-miterlimit="10" fill="#FFFA8E" fill-rule="evenodd"/><path d="M2765.19 965.5C2761.04 965.5 2756.88 960.885 2756.88 956.269 2755.5 950.116 2759.65 945.5 2765.19 945.5 2769.35 945.5 2773.5 950.116 2773.5 956.269 2773.5 960.885 2770.73 965.5 2765.19 965.5Z" stroke="#333333" stroke-width="1.14583" stroke-linecap="round" stroke-linejoin="round" stroke-miterlimit="10" fill="#FFFA8E" fill-rule="evenodd"/><path d="M2765.19 944.5C2759.65 944.5 2755.5 939.885 2755.5 935.269 2755.5 929.115 2759.65 924.5 2765.19 926.038 2769.35 926.038 2773.5 930.654 2773.5 935.269 2773.5 939.885 2769.35 944.5 2765.19 944.5Z" stroke="#333333" stroke-width="1.14583" stroke-linecap="round" stroke-linejoin="round" stroke-miterlimit="10" fill="#FFFA8E" fill-rule="evenodd"/><path d="M2765.27 922.884C2759.42 922.884 2756.5 918.038 2756.5 913.192 2756.5 906.731 2760.88 903.5 2765.27 903.5 2771.12 903.5 2775.5 908.346 2774.04 913.192 2774.04 919.654 2769.65 924.5 2765.27 922.884Z" stroke="#333333" stroke-width="1.14583" stroke-linecap="round" stroke-linejoin="round" stroke-miterlimit="10" fill="#FFFA8E" fill-rule="evenodd"/><path d="M2765.27 902.5C2760.88 900.961 2756.5 896.346 2757.96 891.731 2757.96 885.577 2762.35 882.5 2766.73 882.5 2772.58 882.5 2775.5 887.115 2775.5 893.269 2775.5 897.884 2771.12 902.5 2765.27 902.5Z" stroke="#333333" stroke-width="1.14583" stroke-linecap="round" stroke-linejoin="round" stroke-miterlimit="10" fill="#FFFA8E" fill-rule="evenodd"/><path d="M2768.27 881.5C2762.42 881.5 2759.5 875.346 2759.5 870.731 2760.96 864.577 2765.35 861.5 2769.73 861.5 2775.58 863.038 2778.5 867.654 2778.5 872.269 2777.04 878.423 2772.65 881.5 2768.27 881.5Z" stroke="#333333" stroke-width="1.14583" stroke-linecap="round" stroke-linejoin="round" stroke-miterlimit="10" fill="#FFFA8E" fill-rule="evenodd"/><path d="M2769.81 859.967C2765.42 859.967 2762.5 855.367 2762.5 849.233 2763.96 843.1 2769.81 838.5 2774.19 841.567 2778.58 844.633 2781.5 847.7 2780.04 852.3 2780.04 856.9 2775.65 861.5 2769.81 859.967Z" stroke="#333333" stroke-width="1.14583" stroke-linecap="round" stroke-linejoin="round" stroke-miterlimit="10" fill="#FFFA8E" fill-rule="evenodd"/><path d="M2775.83 840C2769.97 838.5 2768.5 831 2772.9 826.5 2777.3 820.5 2784.63 822 2787.57 825 2790.5 829.5 2790.5 835.5 2787.57 838.5 2784.63 841.5 2780.23 841.5 2775.83 840Z" stroke="#333333" stroke-width="1.14583" stroke-linecap="round" stroke-linejoin="round" stroke-miterlimit="10" fill="#FFFA8E" fill-rule="evenodd"/><path d="M2788.36 824.786C2785.5 820.071 2785.5 813.786 2791.21 810.643 2795.5 807.5 2801.21 809.071 2804.07 815.357 2805.5 820.071 2804.07 824.786 2799.79 827.929 2795.5 829.5 2791.21 829.5 2788.36 824.786Z" stroke="#333333" stroke-width="1.14583" stroke-linecap="round" stroke-linejoin="round" stroke-miterlimit="10" fill="#FFFA8E" fill-rule="evenodd"/><path d="M2805.43 814C2802.5 809.5 2805.43 803.5 2811.3 802 2815.7 800.5 2821.57 803.5 2823.03 808 2824.5 814 2821.57 818.5 2817.17 820 2812.77 821.5 2806.9 820 2805.43 814Z" stroke="#333333" stroke-width="1.14583" stroke-linecap="round" stroke-linejoin="round" stroke-miterlimit="10" fill="#FFFA8E" fill-rule="evenodd"/><path d="M2823.93 807.5C2822.5 803 2825.36 797 2831.07 795.5 2835.36 795.5 2841.07 798.5 2841.07 803 2842.5 809 2839.64 813.5 2833.93 815 2829.64 816.5 2825.36 812 2823.93 807.5Z" stroke="#333333" stroke-width="1.14583" stroke-linecap="round" stroke-linejoin="round" stroke-miterlimit="10" fill="#FFFA8E" fill-rule="evenodd"/><path d="M2842.5 803.269C2842.5 798.654 2845.42 794.038 2851.27 792.5 2855.65 792.5 2861.5 795.577 2861.5 801.731 2861.5 806.346 2858.58 810.962 2852.73 812.5 2848.35 812.5 2843.96 809.423 2842.5 803.269Z" stroke="#333333" stroke-width="1.14583" stroke-linecap="round" stroke-linejoin="round" stroke-miterlimit="10" fill="#FFFA8E" fill-rule="evenodd"/><path d="M2862.5 800.269C2862.5 795.654 2865.42 791.039 2871.27 791.039 2875.65 789.5 2880.04 794.115 2881.5 798.731 2881.5 804.885 2877.12 809.5 2872.73 809.5 2866.88 809.5 2862.5 806.423 2862.5 800.269Z" stroke="#333333" stroke-width="1.14583" stroke-linecap="round" stroke-linejoin="round" stroke-miterlimit="10" fill="#FFFA8E" fill-rule="evenodd"/><path d="M2882.96 798.731C2881.5 794.346 2885.88 789.962 2891.73 789.962 2896.12 788.5 2900.5 792.885 2900.5 798.731 2900.5 803.115 2897.58 807.5 2891.73 807.5 2887.35 807.5 2882.96 804.577 2882.96 798.731Z" stroke="#333333" stroke-width="1.14583" stroke-linecap="round" stroke-linejoin="round" stroke-miterlimit="10" fill="#FFFA8E" fill-rule="evenodd"/><path d="M2901.5 798.731C2901.5 792.885 2905.88 788.5 2911.73 788.5 2916.12 788.5 2920.5 792.885 2920.5 797.269 2920.5 803.115 2916.12 807.5 2911.73 807.5 2905.88 807.5 2902.96 803.115 2901.5 798.731Z" stroke="#333333" stroke-width="1.14583" stroke-linecap="round" stroke-linejoin="round" stroke-miterlimit="10" fill="#FFFA8E" fill-rule="evenodd"/><path d="M2921.5 797.5C2921.5 792.529 2925.75 788.5 2931 788.5 2936.25 788.5 2940.5 792.529 2940.5 797.5 2940.5 802.471 2936.25 806.5 2931 806.5 2925.75 806.5 2921.5 802.471 2921.5 797.5Z" stroke="#333333" stroke-width="1.14583" stroke-linecap="round" stroke-linejoin="round" stroke-miterlimit="10" fill="#FFFA8E" fill-rule="evenodd"/><path d="M2941.5 825.269C2941.5 819.115 2944.5 814.5 2950.5 814.5 2956.5 814.5 2959.5 819.115 2959.5 825.269 2959.5 829.885 2955 834.5 2950.5 834.5 2944.5 834.5 2941.5 829.885 2941.5 825.269Z" stroke="#333333" stroke-width="1.14583" stroke-linecap="round" stroke-linejoin="round" stroke-miterlimit="10" fill="#FFFA8E" fill-rule="evenodd"/><path d="M2960.5 825.269C2960.5 819.115 2964.88 814.5 2970.73 816.038 2975.12 816.038 2979.5 820.654 2979.5 825.269 2979.5 831.423 2975.12 834.5 2969.27 834.5 2964.88 834.5 2960.5 829.885 2960.5 825.269Z" stroke="#333333" stroke-width="1.14583" stroke-linecap="round" stroke-linejoin="round" stroke-miterlimit="10" fill="#FFFA8E" fill-rule="evenodd"/><path d="M2980.5 824.731C2980.5 820.115 2984.88 815.5 2990.73 815.5 2995.12 817.038 2999.5 821.654 2999.5 826.269 2998.04 832.423 2993.65 835.5 2989.27 835.5 2984.88 835.5 2980.5 830.885 2980.5 824.731Z" stroke="#333333" stroke-width="1.14583" stroke-linecap="round" stroke-linejoin="round" stroke-miterlimit="10" fill="#FFFA8E" fill-rule="evenodd"/><path d="M3000.5 825.928C3000.5 821.214 3004.88 816.5 3010.73 818.071 3015.12 818.071 3019.5 822.786 3018.04 829.071 3018.04 833.786 3013.65 838.5 3007.81 836.928 3003.42 836.928 3000.5 832.214 3000.5 825.928Z" stroke="#333333" stroke-width="1.14583" stroke-linecap="round" stroke-linejoin="round" stroke-miterlimit="10" fill="#FFFA8E" fill-rule="evenodd"/><path d="M3019.5 829.5C3020.93 825 3025.21 820.5 3030.93 822 3036.64 823.5 3039.5 828 3038.07 832.5 3036.64 838.5 3032.36 841.5 3026.64 840 3022.36 840 3019.5 834 3019.5 829.5Z" stroke="#333333" stroke-width="1.14583" stroke-linecap="round" stroke-linejoin="round" stroke-miterlimit="10" fill="#FFFA8E" fill-rule="evenodd"/><path d="M3038.93 833.7C3040.36 827.567 3044.64 824.5 3050.36 827.567 3056.07 829.1 3057.5 835.233 3056.07 839.833 3053.21 844.433 3048.93 847.5 3044.64 845.967 3040.36 844.433 3037.5 838.3 3038.93 833.7Z" stroke="#333333" stroke-width="1.14583" stroke-linecap="round" stroke-linejoin="round" stroke-miterlimit="10" fill="#FFFA8E" fill-rule="evenodd"/><path d="M3057.43 842C3058.9 837.5 3064.77 834.5 3070.63 839 3075.03 842 3076.5 849.5 3072.1 852.5 3067.7 855.5 3063.3 855.5 3060.37 854 3055.97 851 3054.5 846.5 3057.43 842Z" stroke="#333333" stroke-width="1.14583" stroke-linecap="round" stroke-linejoin="round" stroke-miterlimit="10" fill="#FFFA8E" fill-rule="evenodd"/><path d="M3073.21 853.1C3076.07 848.5 3083.21 851.567 3086.07 857.7 3087.5 865.367 3084.64 869.967 3078.93 869.967 3074.64 871.5 3070.36 866.9 3068.93 863.833 3067.5 860.767 3068.93 856.167 3073.21 853.1Z" stroke="#333333" stroke-width="1.14583" stroke-linecap="round" stroke-linejoin="round" stroke-miterlimit="10" fill="#FFFA8E" fill-rule="evenodd"/><path d="M3078.81 873.038C3084.65 871.5 3089.04 874.577 3090.5 880.731 3090.5 886.884 3086.12 891.5 3081.73 891.5 3077.35 891.5 3071.5 888.423 3071.5 883.808 3071.5 877.654 3074.42 873.038 3078.81 873.038Z" stroke="#333333" stroke-width="1.14583" stroke-linecap="round" stroke-linejoin="round" stroke-miterlimit="10" fill="#FFFA8E" fill-rule="evenodd"/><path d="M3082.27 893.5C3088.12 893.5 3092.5 896.577 3092.5 902.731 3092.5 908.884 3089.58 913.5 3083.73 913.5 3079.35 913.5 3074.96 908.884 3073.5 904.269 3073.5 899.654 3077.88 895.038 3082.27 893.5Z" stroke="#333333" stroke-width="1.14583" stroke-linecap="round" stroke-linejoin="round" stroke-miterlimit="10" fill="#FFFA8E" fill-rule="evenodd"/><path d="M3083.27 914.5C3089.12 914.5 3093.5 917.577 3093.5 923.731 3093.5 929.885 3089.12 932.962 3084.73 934.5 3078.88 934.5 3074.5 929.885 3074.5 923.731 3074.5 919.115 3078.88 914.5 3083.27 914.5Z" stroke="#333333" stroke-width="1.14583" stroke-linecap="round" stroke-linejoin="round" stroke-miterlimit="10" fill="#FFFA8E" fill-rule="evenodd"/><path d="M3084.73 936.5C3089.12 936.5 3093.5 939.5 3093.5 945.5 3093.5 951.5 3089.12 954.5 3083.27 954.5 3078.88 954.5 3074.5 950 3074.5 945.5 3074.5 939.5 3078.88 936.5 3084.73 936.5Z" stroke="#333333" stroke-width="1.14583" stroke-linecap="round" stroke-linejoin="round" stroke-miterlimit="10" fill="#FFFA8E" fill-rule="evenodd"/><path d="M3083.27 956.5C3089.12 956.5 3093.5 961.116 3092.04 967.269 3092.04 973.423 3087.65 976.5 3083.27 976.5 3077.42 976.5 3074.5 971.885 3074.5 965.731 3074.5 961.116 3078.88 956.5 3083.27 956.5Z" stroke="#333333" stroke-width="1.14583" stroke-linecap="round" stroke-linejoin="round" stroke-miterlimit="10" fill="#FFFA8E" fill-rule="evenodd"/><path d="M3083.73 977.5C3088.12 977.5 3092.5 982.115 3092.5 988.269 3091.04 994.423 3086.65 997.5 3082.27 997.5 3076.42 995.962 3073.5 991.346 3073.5 986.731 3073.5 982.115 3077.88 977.5 3083.73 977.5Z" stroke="#333333" stroke-width="1.14583" stroke-linecap="round" stroke-linejoin="round" stroke-miterlimit="10" fill="#FFFA8E" fill-rule="evenodd"/><path d="M3081.93 999C3086.21 999 3090.5 1003.5 3089.07 1009.5 3089.07 1015.5 3083.36 1018.5 3079.07 1017 3073.36 1017 3070.5 1012.5 3071.93 1006.5 3071.93 1002 3076.21 997.5 3081.93 999Z" stroke="#333333" stroke-width="1.14583" stroke-linecap="round" stroke-linejoin="round" stroke-miterlimit="10" fill="#FFFA8E" fill-rule="evenodd"/><path d="M3078.93 1019.03C3083.21 1020.57 3087.5 1025.17 3084.64 1032.83 3080.36 1040.5 3073.21 1040.5 3070.36 1035.9 3067.5 1032.83 3067.5 1026.7 3067.5 1025.17 3068.93 1023.63 3073.21 1017.5 3078.93 1019.03Z" stroke="#333333" stroke-width="1.14583" stroke-linecap="round" stroke-linejoin="round" stroke-miterlimit="10" fill="#FFFA8E" fill-rule="evenodd"/><path d="M3068.64 1037.21C3071.5 1041.93 3070.07 1048.21 3065.79 1051.36 3060.07 1054.5 3054.36 1051.36 3052.93 1046.64 3051.5 1041.93 3052.93 1035.64 3057.21 1034.07 3060.07 1032.5 3065.79 1034.07 3068.64 1037.21Z" stroke="#333333" stroke-width="1.14583" stroke-linecap="round" stroke-linejoin="round" stroke-miterlimit="10" fill="#FFFA8E" fill-rule="evenodd"/><path d="M3052.07 1046C3053.5 1052 3050.64 1056.5 3046.36 1058 3040.64 1059.5 3036.36 1056.5 3034.93 1052 3033.5 1046 3036.36 1041.5 3040.64 1040 3044.93 1038.5 3050.64 1041.5 3052.07 1046Z" stroke="#333333" stroke-width="1.14583" stroke-linecap="round" stroke-linejoin="round" stroke-miterlimit="10" fill="#FFFA8E" fill-rule="evenodd"/><path d="M3033.5 1052.5C3033.5 1057 3030.58 1063 3026.19 1063 3020.35 1064.5 3015.96 1061.5 3014.5 1055.5 3014.5 1051 3017.42 1046.5 3021.81 1045 3027.65 1043.5 3032.04 1048 3033.5 1052.5Z" stroke="#333333" stroke-width="1.14583" stroke-linecap="round" stroke-linejoin="round" stroke-miterlimit="10" fill="#FFFA8E" fill-rule="evenodd"/><path d="M3013.07 1055.19C3014.5 1061.35 3010.21 1065.96 3005.93 1065.96 3000.21 1067.5 2995.93 1062.88 2995.93 1058.27 2994.5 1052.12 2998.79 1047.5 3003.07 1047.5 3008.79 1047.5 3013.07 1050.58 3013.07 1055.19Z" stroke="#333333" stroke-width="1.14583" stroke-linecap="round" stroke-linejoin="round" stroke-miterlimit="10" fill="#FFFA8E" fill-rule="evenodd"/><path d="M2993.12 1058.27C2994.5 1062.65 2990.35 1067.04 2986.19 1068.5 2980.65 1068.5 2976.5 1064.12 2976.5 1059.73 2976.5 1053.88 2979.27 1049.5 2984.81 1049.5 2988.96 1049.5 2993.12 1052.42 2993.12 1058.27Z" stroke="#333333" stroke-width="1.14583" stroke-linecap="round" stroke-linejoin="round" stroke-miterlimit="10" fill="#FFFA8E" fill-rule="evenodd"/><path d="M2974.5 1059.73C2974.5 1064.35 2970.35 1068.96 2966.19 1068.96 2960.65 1070.5 2956.5 1065.88 2956.5 1059.73 2956.5 1055.12 2960.65 1050.5 2964.81 1050.5 2970.35 1050.5 2974.5 1053.58 2974.5 1059.73Z" stroke="#333333" stroke-width="1.14583" stroke-linecap="round" stroke-linejoin="round" stroke-miterlimit="10" fill="#FFFA8E" fill-rule="evenodd"/><path d="M2936.5 1060.5C2936.5 1054.98 2940.53 1050.5 2945.5 1050.5 2950.47 1050.5 2954.5 1054.98 2954.5 1060.5 2954.5 1066.02 2950.47 1070.5 2945.5 1070.5 2940.53 1070.5 2936.5 1066.02 2936.5 1060.5Z" stroke="#333333" stroke-width="1.14583" stroke-linecap="round" stroke-linejoin="round" stroke-miterlimit="10" fill="#FFFA8E" fill-rule="evenodd"/><path d="M2934.5 1059.73C2934.5 1065.88 2930.35 1070.5 2926.19 1070.5 2920.65 1070.5 2916.5 1065.88 2917.88 1059.73 2917.88 1055.12 2922.04 1050.5 2926.19 1050.5 2930.35 1050.5 2934.5 1055.12 2934.5 1059.73Z" stroke="#333333" stroke-width="1.14583" stroke-linecap="round" stroke-linejoin="round" stroke-miterlimit="10" fill="#FFFA8E" fill-rule="evenodd"/><path d="M2915.04 1059.73C2915.04 1065.58 2910.65 1068.5 2906.27 1068.5 2900.42 1068.5 2897.5 1064.12 2897.5 1059.73 2897.5 1053.88 2901.88 1049.5 2906.27 1050.96 2912.12 1050.96 2916.5 1055.35 2915.04 1059.73Z" stroke="#333333" stroke-width="1.14583" stroke-linecap="round" stroke-linejoin="round" stroke-miterlimit="10" fill="#FFFA8E" fill-rule="evenodd"/><path d="M2896.5 1058C2896.5 1064 2890.65 1068.5 2886.27 1067 2880.42 1067 2877.5 1062.5 2877.5 1056.5 2877.5 1052 2883.35 1047.5 2887.73 1049 2892.12 1049 2896.5 1053.5 2896.5 1058Z" stroke="#333333" stroke-width="1.14583" stroke-linecap="round" stroke-linejoin="round" stroke-miterlimit="10" fill="#FFFA8E" fill-rule="evenodd"/><path d="M2875.5 1057.27C2875.5 1063.42 2871.35 1066.5 2865.81 1066.5 2860.27 1064.96 2857.5 1060.35 2857.5 1055.73 2858.88 1049.58 2863.04 1046.5 2868.58 1046.5 2872.73 1048.04 2875.5 1052.65 2875.5 1057.27Z" stroke="#333333" stroke-width="1.14583" stroke-linecap="round" stroke-linejoin="round" stroke-miterlimit="10" fill="#FFFA8E" fill-rule="evenodd"/><path d="M2856.07 1054.27C2856.07 1060.42 2851.79 1063.5 2846.07 1063.5 2840.36 1061.96 2837.5 1055.81 2838.93 1051.19 2840.36 1046.58 2844.64 1043.5 2848.93 1043.5 2854.64 1045.04 2857.5 1049.65 2856.07 1054.27Z" stroke="#333333" stroke-width="1.14583" stroke-linecap="round" stroke-linejoin="round" stroke-miterlimit="10" fill="#FFFA8E" fill-rule="evenodd"/><path d="M2837.03 1050.64C2835.57 1055.36 2831.17 1058.5 2825.3 1056.93 2819.43 1055.36 2816.5 1049.07 2819.43 1044.36 2820.9 1039.64 2826.77 1036.5 2831.17 1038.07 2835.57 1039.64 2838.5 1044.36 2837.03 1050.64Z" stroke="#333333" stroke-width="1.14583" stroke-linecap="round" stroke-linejoin="round" stroke-miterlimit="10" fill="#FFFA8E" fill-rule="evenodd"/><path d="M2818.1 1044.5C2816.7 1049 2811.1 1050.5 2805.5 1047.5 2799.9 1044.5 2798.5 1037 2802.7 1034 2806.9 1031 2811.1 1029.5 2813.9 1031 2818.1 1034 2819.5 1038.5 2818.1 1044.5Z" stroke="#333333" stroke-width="1.14583" stroke-linecap="round" stroke-linejoin="round" stroke-miterlimit="10" fill="#FFFA8E" fill-rule="evenodd"/><path d="M2803.12 1031.9C2798.73 1036.5 2791.42 1033.43 2789.96 1025.77 2788.5 1019.63 2791.42 1015.03 2795.81 1013.5 2801.65 1013.5 2806.04 1016.57 2807.5 1021.17 2807.5 1024.23 2806.04 1028.83 2803.12 1031.9Z" stroke="#333333" stroke-width="1.14583" stroke-linecap="round" stroke-linejoin="round" stroke-miterlimit="10" fill="#FFFA8E" fill-rule="evenodd"/><path d="M2795.73 1012C2791.35 1013.5 2786.96 1009 2785.5 1004.5 2785.5 998.5 2788.42 994 2794.27 994 2798.65 992.5 2803.04 997 2804.5 1001.5 2804.5 1006 2801.58 1012 2795.73 1012Z" stroke="#333333" stroke-width="1.14583" stroke-linecap="round" stroke-linejoin="round" stroke-miterlimit="10" fill="#FFFA8E" fill-rule="evenodd"/><path d="M2794.19 992.5C2788.65 992.5 2784.5 987.885 2784.5 983.269 2784.5 977.115 2787.27 972.5 2792.81 972.5 2796.96 972.5 2801.12 975.577 2801.12 981.731 2802.5 986.346 2798.35 990.961 2794.19 992.5Z" stroke="#333333" stroke-width="1.14583" stroke-linecap="round" stroke-linejoin="round" stroke-miterlimit="10" fill="#FFFA8E" fill-rule="evenodd"/><path d="M2792.73 971.5C2786.88 971.5 2782.5 966.885 2782.5 962.269 2782.5 956.115 2786.88 951.5 2791.27 951.5 2797.12 951.5 2800.04 956.115 2801.5 960.731 2801.5 966.885 2797.12 971.5 2792.73 971.5Z" stroke="#333333" stroke-width="1.14583" stroke-linecap="round" stroke-linejoin="round" stroke-miterlimit="10" fill="#FFFA8E" fill-rule="evenodd"/><path d="M2782.5 940C2782.5 934.753 2786.31 930.5 2791 930.5 2795.69 930.5 2799.5 934.753 2799.5 940 2799.5 945.247 2795.69 949.5 2791 949.5 2786.31 949.5 2782.5 945.247 2782.5 940Z" stroke="#333333" stroke-width="1.14583" stroke-linecap="round" stroke-linejoin="round" stroke-miterlimit="10" fill="#FFFA8E" fill-rule="evenodd"/><path d="M2791.27 928.5C2786.88 928.5 2782.5 923.885 2782.5 919.269 2782.5 913.115 2786.88 908.5 2792.73 910.039 2797.12 910.039 2801.5 914.654 2801.5 919.269 2801.5 925.423 2797.12 928.5 2791.27 928.5Z" stroke="#333333" stroke-width="1.14583" stroke-linecap="round" stroke-linejoin="round" stroke-miterlimit="10" fill="#FFFA8E" fill-rule="evenodd"/><path d="M2792.81 908.5C2787.27 907.039 2784.5 902.654 2784.5 898.269 2784.5 892.423 2788.65 889.5 2794.19 889.5 2798.35 889.5 2802.5 893.885 2801.12 899.731 2801.12 904.115 2796.96 908.5 2792.81 908.5Z" stroke="#333333" stroke-width="1.14583" stroke-linecap="round" stroke-linejoin="round" stroke-miterlimit="10" fill="#FFFA8E" fill-rule="evenodd"/><path d="M2794.07 887.5C2789.79 885.962 2785.5 881.346 2786.93 876.731 2786.93 870.577 2791.21 867.5 2796.93 867.5 2801.21 869.039 2805.5 873.654 2804.07 878.269 2804.07 884.423 2798.36 887.5 2794.07 887.5Z" stroke="#333333" stroke-width="1.14583" stroke-linecap="round" stroke-linejoin="round" stroke-miterlimit="10" fill="#FFFA8E" fill-rule="evenodd"/><path d="M2797.3 866C2792.9 866 2788.5 858.5 2792.9 852.5 2795.83 846.5 2803.17 846.5 2806.1 851 2810.5 854 2810.5 860 2809.03 863 2806.1 864.5 2803.17 867.5 2797.3 866Z" stroke="#333333" stroke-width="1.14583" stroke-linecap="round" stroke-linejoin="round" stroke-miterlimit="10" fill="#FFFA8E" fill-rule="evenodd"/><path d="M2807.36 849C2804.5 844.5 2805.93 838.5 2810.21 835.5 2815.93 832.5 2821.64 834 2823.07 838.5 2824.5 844.5 2823.07 849 2818.79 852 2815.93 853.5 2810.21 852 2807.36 849Z" stroke="#333333" stroke-width="1.14583" stroke-linecap="round" stroke-linejoin="round" stroke-miterlimit="10" fill="#FFFA8E" fill-rule="evenodd"/><path d="M2823.93 838.643C2822.5 833.929 2825.36 827.643 2829.64 826.072 2835.36 824.5 2839.64 827.643 2841.07 832.357 2842.5 838.643 2839.64 843.357 2835.36 844.929 2831.07 846.5 2825.36 843.357 2823.93 838.643Z" stroke="#333333" stroke-width="1.14583" stroke-linecap="round" stroke-linejoin="round" stroke-miterlimit="10" fill="#FFFA8E" fill-rule="evenodd"/><path d="M2842.93 832.5C2841.5 828 2845.79 822 2850.07 822 2855.79 820.5 2860.07 823.5 2861.5 829.5 2861.5 834 2858.64 838.5 2854.36 840 2848.64 841.5 2844.36 837 2842.93 832.5Z" stroke="#333333" stroke-width="1.14583" stroke-linecap="round" stroke-linejoin="round" stroke-miterlimit="10" fill="#FFFA8E" fill-rule="evenodd"/><path d="M2862.93 828.808C2861.5 822.654 2865.79 818.038 2870.07 816.5 2875.79 816.5 2880.07 821.115 2880.07 825.731 2881.5 831.884 2877.21 836.5 2872.93 836.5 2867.21 836.5 2862.93 833.423 2862.93 828.808Z" stroke="#333333" stroke-width="1.14583" stroke-linecap="round" stroke-linejoin="round" stroke-miterlimit="10" fill="#FFFA8E" fill-rule="evenodd"/><path d="M2881.5 826.269C2881.5 821.654 2885.88 815.5 2890.27 815.5 2896.12 815.5 2900.5 820.115 2900.5 824.731 2900.5 830.885 2896.12 835.5 2891.73 835.5 2887.35 835.5 2882.96 830.885 2881.5 826.269Z" stroke="#333333" stroke-width="1.14583" stroke-linecap="round" stroke-linejoin="round" stroke-miterlimit="10" fill="#FFFA8E" fill-rule="evenodd"/><path d="M2901.5 825.269C2901.5 820.654 2905.88 816.038 2910.27 816.038 2916.12 814.5 2920.5 819.115 2920.5 825.269 2920.5 829.885 2916.12 834.5 2911.73 834.5 2905.88 834.5 2901.5 831.423 2901.5 825.269Z" stroke="#333333" stroke-width="1.14583" stroke-linecap="round" stroke-linejoin="round" stroke-miterlimit="10" fill="#FFFA8E" fill-rule="evenodd"/><path d="M2921.5 824.5C2921.5 818.977 2925.75 814.5 2931 814.5 2936.25 814.5 2940.5 818.977 2940.5 824.5 2940.5 830.023 2936.25 834.5 2931 834.5 2925.75 834.5 2921.5 830.023 2921.5 824.5Z" stroke="#333333" stroke-width="1.14583" stroke-linecap="round" stroke-linejoin="round" stroke-miterlimit="10" fill="#FFFA8E" fill-rule="evenodd"/></g></svg>