<svg width="123" height="131" xmlns="http://www.w3.org/2000/svg" xmlns:xlink="http://www.w3.org/1999/xlink" xml:space="preserve" overflow="hidden"><g transform="translate(-1512 -1361)"><path d="M1535.6 1376.98C1561.34 1354 1598.53 1358.6 1618.55 1386.17 1640 1413.74 1635.71 1453.57 1609.97 1475.02 1584.23 1498 1547.04 1493.4 1527.02 1465.83 1507 1438.26 1509.86 1398.43 1535.6 1376.98Z" fill="#FFF5AD" fill-rule="evenodd"/><path d="M1542.04 1386.8C1563.64 1370 1593.88 1373.05 1609.72 1394.43 1627 1415.81 1622.68 1447.88 1602.52 1466.2 1582.36 1483 1552.12 1479.95 1534.84 1458.57 1519 1437.19 1521.88 1405.12 1542.04 1386.8Z" fill="#D7E8CE" fill-rule="evenodd"/><path d="M1611.46 1408C1617.23 1421.81 1611.46 1444.84 1597.04 1455.58 1584.06 1466.33 1562.42 1470.93 1548 1461.72 1562.42 1474 1584.06 1472.47 1599.92 1460.19 1615.79 1447.91 1623 1424.88 1611.46 1408Z" fill="#FFFFFF" fill-rule="evenodd"/><path d="M1559.17 1411.34C1576.39 1397.56 1600.78 1396.03 1618 1409.81 1615.13 1403.69 1613.7 1399.09 1609.39 1394.5 1593.61 1373.06 1563.48 1370 1541.96 1386.84 1521.87 1405.22 1519 1437.38 1534.78 1458.81 1537.65 1461.88 1540.52 1464.94 1544.83 1468 1537.65 1448.09 1543.39 1425.12 1559.17 1411.34Z" fill="#BCDAAD" fill-rule="evenodd"/><path d="M1536.1 1377.48C1561.84 1354.5 1599.03 1359.1 1619.05 1386.67 1640.5 1414.24 1636.21 1454.07 1610.47 1475.52 1584.73 1498.5 1547.54 1493.9 1527.52 1466.33 1507.5 1438.76 1510.36 1398.93 1536.1 1377.48Z" stroke="#58585A" stroke-width="2.86476" stroke-linecap="round" stroke-linejoin="round" stroke-miterlimit="10" fill="none" fill-rule="evenodd"/><path d="M1542.54 1387.3C1564.14 1370.5 1594.38 1373.55 1610.22 1394.93 1627.5 1416.31 1623.18 1448.38 1603.02 1466.7 1582.86 1483.5 1552.62 1480.45 1535.34 1459.07 1519.5 1437.69 1522.38 1405.62 1542.54 1387.3Z" stroke="#58585A" stroke-width="1.14583" stroke-linecap="round" stroke-linejoin="round" stroke-miterlimit="10" fill="none" fill-rule="evenodd"/></g></svg>