<svg width="124" height="131" xmlns="http://www.w3.org/2000/svg" xmlns:xlink="http://www.w3.org/1999/xlink" xml:space="preserve" overflow="hidden"><g transform="translate(-1759 -1361)"><path d="M1782.82 1376.98C1808.75 1354 1846.21 1358.6 1866.39 1386.17 1888 1413.74 1883.68 1453.57 1857.74 1475.02 1831.81 1498 1794.34 1493.4 1774.17 1465.83 1754 1438.26 1756.88 1398.43 1782.82 1376.98Z" fill="#FFF5AD" fill-rule="evenodd"/><path d="M1790.04 1386.8C1811.64 1370 1841.88 1373.05 1857.72 1394.43 1875 1415.81 1870.68 1447.88 1850.52 1466.2 1830.36 1483 1800.12 1479.95 1782.84 1458.57 1767 1437.19 1769.88 1405.12 1790.04 1386.8Z" fill="#EBBDB4" fill-rule="evenodd"/><path d="M1859.46 1408C1865.23 1421.81 1859.46 1444.84 1845.04 1455.58 1832.06 1466.33 1810.42 1470.93 1796 1461.72 1810.42 1474 1832.06 1472.47 1847.92 1460.19 1863.79 1447.91 1871 1424.88 1859.46 1408Z" fill="#FFFFFF" fill-rule="evenodd"/><path d="M1807.17 1411.34C1824.39 1397.56 1848.78 1396.03 1866 1409.81 1863.13 1403.69 1861.7 1399.09 1857.39 1394.5 1841.61 1373.06 1811.48 1370 1789.96 1386.84 1769.87 1405.22 1767 1437.38 1782.78 1458.81 1785.65 1461.88 1788.52 1464.94 1792.83 1468 1785.65 1448.09 1791.39 1425.12 1807.17 1411.34Z" fill="#E0978C" fill-rule="evenodd"/><path d="M1783.32 1377.48C1809.25 1354.5 1846.72 1359.1 1866.89 1386.67 1888.5 1414.24 1884.18 1454.07 1858.24 1475.52 1832.31 1498.5 1794.84 1493.9 1774.67 1466.33 1754.5 1438.76 1757.38 1398.93 1783.32 1377.48Z" stroke="#58585A" stroke-width="2.86476" stroke-linecap="round" stroke-linejoin="round" stroke-miterlimit="10" fill="none" fill-rule="evenodd"/><path d="M1790.04 1386.8C1811.64 1370 1841.88 1373.05 1857.72 1394.43 1875 1415.81 1870.68 1447.88 1850.52 1466.2 1830.36 1483 1800.12 1479.95 1782.84 1458.57 1767 1437.19 1769.88 1405.12 1790.04 1386.8Z" stroke="#58585A" stroke-width="1.71893" stroke-linecap="round" stroke-linejoin="round" stroke-miterlimit="10" fill="none" fill-rule="evenodd"/></g></svg>