<svg width="123" height="130" xmlns="http://www.w3.org/2000/svg" xmlns:xlink="http://www.w3.org/1999/xlink" xml:space="preserve" overflow="hidden"><g transform="translate(-2007 -1359)"><path d="M2030.6 1374.82C2056.34 1352 2093.53 1356.56 2113.55 1383.95 2135 1411.33 2130.71 1450.88 2104.97 1472.18 2079.23 1495 2042.04 1490.44 2022.02 1463.05 2002 1435.67 2004.86 1396.12 2030.6 1374.82Z" fill="#FFF5AD" fill-rule="evenodd"/><path d="M2037.83 1383.8C2059.23 1367 2089.19 1370.05 2104.88 1391.43 2122 1412.81 2117.72 1444.88 2097.75 1463.2 2077.77 1480 2047.81 1476.95 2030.69 1455.57 2015 1434.19 2017.85 1402.12 2037.83 1383.8Z" fill="#D8EEF1" fill-rule="evenodd"/><path d="M2106.62 1405C2112.31 1418.81 2106.62 1441.84 2092.38 1452.58 2079.58 1463.33 2058.23 1467.93 2044 1458.72 2058.23 1471 2079.58 1469.46 2095.23 1457.19 2110.88 1444.91 2118 1421.88 2106.62 1405Z" fill="#FFFFFF" fill-rule="evenodd"/><path d="M2054.77 1407.92C2071.81 1394.28 2095.96 1392.77 2113 1406.41 2110.16 1400.34 2108.74 1395.8 2104.48 1391.25 2088.86 1370.03 2059.03 1367 2037.72 1383.67 2017.84 1401.86 2015 1433.69 2030.62 1454.91 2033.46 1457.94 2036.3 1460.97 2040.57 1464 2033.46 1444.3 2039.15 1421.56 2054.77 1407.92Z" fill="#A2D7E2" fill-rule="evenodd"/><path d="M2031.1 1375.32C2056.84 1352.5 2094.03 1357.06 2114.05 1384.45 2135.5 1411.83 2131.21 1451.38 2105.47 1472.68 2079.73 1495.5 2042.54 1490.94 2022.52 1463.55 2002.5 1436.17 2005.36 1396.62 2031.1 1375.32Z" stroke="#58585A" stroke-width="2.86476" stroke-linecap="round" stroke-linejoin="round" stroke-miterlimit="10" fill="none" fill-rule="evenodd"/><path d="M2037.83 1383.8C2059.23 1367 2089.19 1370.05 2104.88 1391.43 2122 1412.81 2117.72 1444.88 2097.75 1463.2 2077.77 1480 2047.81 1476.95 2030.69 1455.57 2015 1434.19 2017.85 1402.12 2037.83 1383.8Z" stroke="#58585A" stroke-width="1.71893" stroke-linecap="round" stroke-linejoin="round" stroke-miterlimit="10" fill="none" fill-rule="evenodd"/></g></svg>