<svg width="124" height="130" xmlns="http://www.w3.org/2000/svg" xmlns:xlink="http://www.w3.org/1999/xlink" xml:space="preserve" overflow="hidden"><g transform="translate(-2283 -1360)"><path d="M2306.82 1375.82C2332.75 1353 2370.22 1357.56 2390.39 1384.95 2412 1412.33 2407.68 1451.88 2381.74 1473.18 2355.81 1496 2318.34 1491.44 2298.17 1464.05 2278 1436.67 2280.88 1397.12 2306.82 1375.82Z" fill="#FFF5AD" fill-rule="evenodd"/><path d="M2314.04 1384.95C2335.64 1368 2365.88 1371.08 2381.72 1392.65 2399 1414.22 2394.68 1446.57 2374.52 1465.05 2354.36 1482 2324.12 1478.92 2306.84 1457.35 2291 1435.78 2293.88 1403.43 2314.04 1384.95Z" fill="#F8D09E" fill-rule="evenodd"/><path d="M2382.62 1407C2388.31 1420.6 2382.62 1443.28 2368.38 1453.86 2355.58 1464.44 2334.23 1468.98 2320 1459.91 2334.23 1472 2355.58 1470.49 2371.23 1458.4 2386.88 1446.3 2394 1423.63 2382.62 1407Z" fill="#FFFFFF" fill-rule="evenodd"/><path d="M2331.17 1409.34C2348.39 1395.56 2372.78 1394.03 2390 1407.81 2387.13 1401.69 2385.7 1397.09 2381.39 1392.5 2365.61 1371.06 2335.48 1368 2313.96 1384.84 2293.87 1403.22 2291 1435.38 2306.78 1456.81 2309.65 1459.88 2312.52 1462.94 2316.83 1466 2309.65 1446.09 2315.39 1423.13 2331.17 1409.34Z" fill="#F5C17F" fill-rule="evenodd"/><path d="M2307.32 1376.32C2333.25 1353.5 2370.71 1358.06 2390.89 1385.45 2412.5 1412.83 2408.18 1452.38 2382.24 1473.68 2356.31 1496.5 2318.84 1491.94 2298.67 1464.55 2278.5 1437.17 2281.38 1397.62 2307.32 1376.32Z" stroke="#58585A" stroke-width="2.86476" stroke-linecap="round" stroke-linejoin="round" stroke-miterlimit="10" fill="none" fill-rule="evenodd"/><path d="M2314.54 1385.45C2336.14 1368.5 2366.38 1371.58 2382.22 1393.15 2399.5 1414.72 2395.18 1447.07 2375.02 1465.55 2354.86 1482.5 2324.62 1479.42 2307.34 1457.85 2291.5 1436.28 2294.38 1403.93 2314.54 1385.45Z" stroke="#58585A" stroke-width="1.14583" stroke-linecap="round" stroke-linejoin="round" stroke-miterlimit="10" fill="none" fill-rule="evenodd"/></g></svg>