<svg width="124" height="131" xmlns="http://www.w3.org/2000/svg" xmlns:xlink="http://www.w3.org/1999/xlink" xml:space="preserve" overflow="hidden"><g transform="translate(-2555 -1361)"><path d="M2578.82 1376.98C2604.75 1354 2642.22 1358.6 2662.39 1386.17 2684 1413.74 2679.68 1453.57 2653.74 1475.02 2627.81 1498 2590.34 1493.4 2570.17 1465.83 2550 1438.26 2552.88 1398.43 2578.82 1376.98Z" fill="#FFF5AD" fill-rule="evenodd"/><path d="M2585.83 1386.8C2607.23 1370 2637.19 1373.05 2652.88 1394.43 2670 1415.81 2665.72 1447.88 2645.75 1466.2 2625.77 1483 2595.81 1479.95 2578.69 1458.57 2563 1437.19 2565.85 1405.12 2585.83 1386.8Z" fill="#D1A9BD" fill-rule="evenodd"/><path d="M2654.62 1408C2660.31 1421.81 2654.62 1444.84 2640.38 1455.58 2627.58 1466.33 2606.23 1470.93 2592 1461.72 2606.23 1474 2627.58 1472.47 2643.23 1460.19 2658.88 1447.91 2666 1424.88 2654.62 1408Z" fill="#FFFFFF" fill-rule="evenodd"/><path d="M2603.17 1411.34C2620.39 1397.56 2644.78 1396.03 2662 1409.81 2659.13 1403.69 2657.7 1399.09 2653.39 1394.5 2637.61 1373.06 2607.48 1370 2585.96 1386.84 2565.87 1405.22 2563 1437.38 2578.78 1458.81 2581.65 1461.88 2584.52 1464.94 2588.83 1468 2581.65 1448.09 2587.39 1425.12 2603.17 1411.34Z" fill="#B87C99" fill-rule="evenodd"/><path d="M2579.32 1377.48C2605.25 1354.5 2642.72 1359.1 2662.89 1386.67 2684.5 1414.24 2680.18 1454.07 2654.24 1475.52 2628.31 1498.5 2590.84 1493.9 2570.67 1466.33 2550.5 1438.76 2553.38 1398.93 2579.32 1377.48Z" stroke="#58585A" stroke-width="2.86476" stroke-linecap="round" stroke-linejoin="round" stroke-miterlimit="10" fill="none" fill-rule="evenodd"/><path d="M2585.83 1386.8C2607.23 1370 2637.19 1373.05 2652.88 1394.43 2670 1415.81 2665.72 1447.88 2645.75 1466.2 2625.77 1483 2595.81 1479.95 2578.69 1458.57 2563 1437.19 2565.85 1405.12 2585.83 1386.8Z" stroke="#58585A" stroke-width="1.71893" stroke-linecap="round" stroke-linejoin="round" stroke-miterlimit="10" fill="none" fill-rule="evenodd"/></g></svg>