<svg width="123" height="130" xmlns="http://www.w3.org/2000/svg" xmlns:xlink="http://www.w3.org/1999/xlink" xml:space="preserve" overflow="hidden"><g transform="translate(-2832 -1360)"><path d="M2855.6 1375.82C2881.34 1353 2918.53 1357.56 2938.55 1384.95 2960 1412.33 2955.71 1451.88 2929.97 1473.18 2904.23 1496 2867.04 1491.44 2847.02 1464.05 2827 1436.67 2829.86 1397.12 2855.6 1375.82Z" fill="#FFF5AD" fill-rule="evenodd"/><path d="M2862.83 1384.95C2884.23 1368 2914.19 1371.08 2929.88 1392.65 2947 1414.22 2942.72 1446.57 2922.75 1465.05 2902.77 1482 2872.81 1478.92 2855.69 1457.35 2840 1435.78 2842.85 1403.43 2862.83 1384.95Z" fill="#EE9986" fill-rule="evenodd"/><path d="M2931.62 1407C2937.31 1420.6 2931.62 1443.28 2917.38 1453.86 2904.58 1464.44 2883.23 1468.98 2869 1459.91 2883.23 1472 2904.58 1470.49 2920.23 1458.4 2935.88 1446.3 2943 1423.63 2931.62 1407Z" fill="#FFFFFF" fill-rule="evenodd"/><path d="M2879.77 1409.34C2896.81 1395.56 2920.96 1394.03 2938 1407.81 2935.16 1401.69 2933.74 1397.09 2929.48 1392.5 2913.85 1371.06 2884.03 1368 2862.72 1384.84 2842.84 1403.22 2840 1435.38 2855.62 1456.81 2858.46 1459.88 2861.3 1462.94 2865.57 1466 2858.46 1446.09 2864.15 1423.13 2879.77 1409.34Z" fill="#E7705F" fill-rule="evenodd"/><path d="M2856.1 1376.32C2881.84 1353.5 2919.03 1358.06 2939.05 1385.45 2960.5 1412.83 2956.21 1452.38 2930.47 1473.68 2904.73 1496.5 2867.54 1491.94 2847.52 1464.55 2827.5 1437.17 2830.36 1397.62 2856.1 1376.32Z" stroke="#58585A" stroke-width="2.86476" stroke-linecap="round" stroke-linejoin="round" stroke-miterlimit="10" fill="none" fill-rule="evenodd"/><path d="M2862.83 1384.95C2884.23 1368 2914.19 1371.08 2929.88 1392.65 2947 1414.22 2942.72 1446.57 2922.75 1465.05 2902.77 1482 2872.81 1478.92 2855.69 1457.35 2840 1435.78 2842.85 1403.43 2862.83 1384.95Z" stroke="#58585A" stroke-width="1.71893" stroke-linecap="round" stroke-linejoin="round" stroke-miterlimit="10" fill="none" fill-rule="evenodd"/></g></svg>