<svg width="123" height="131" xmlns="http://www.w3.org/2000/svg" xmlns:xlink="http://www.w3.org/1999/xlink" xml:space="preserve" overflow="hidden"><g transform="translate(-1511 -1690)"><path d="M1534.6 1705.38C1560.34 1684 1597.53 1688.58 1617.55 1716.06 1639 1742.02 1634.71 1783.25 1608.97 1804.62 1583.23 1826 1546.04 1821.42 1526.02 1795.46 1506 1767.98 1508.86 1728.28 1534.6 1705.38Z" fill="#FFF5AD" fill-rule="evenodd"/><path d="M1541.04 1716.4C1562.64 1698 1592.88 1701.07 1608.72 1724.07 1626 1745.53 1621.68 1777.73 1601.52 1796.13 1581.36 1813 1551.12 1809.93 1533.84 1788.47 1518 1765.47 1520.88 1733.27 1541.04 1716.4Z" fill="#D6C3AE" fill-rule="evenodd"/><path d="M1609.62 1738C1615.31 1751.81 1609.62 1774.84 1595.38 1785.58 1582.58 1796.33 1561.23 1799.4 1547 1791.72 1561.23 1804 1582.58 1802.47 1598.23 1790.19 1613.88 1776.37 1621 1754.88 1609.62 1738Z" fill="#FFFFFF" fill-rule="evenodd"/><path d="M1558.17 1741.08C1575.39 1725.69 1599.78 1725.69 1617 1739.54 1614.13 1733.38 1612.7 1728.77 1608.39 1724.15 1592.61 1702.62 1562.48 1698 1540.96 1716.46 1520.87 1733.38 1518 1765.69 1533.78 1788.77 1536.65 1791.85 1539.52 1794.92 1543.83 1798 1536.65 1778 1542.39 1754.92 1558.17 1741.08Z" fill="#C8B098" fill-rule="evenodd"/><path d="M1535.1 1705.88C1560.84 1684.5 1598.03 1689.08 1618.05 1716.56 1639.5 1742.52 1635.21 1783.75 1609.47 1805.12 1583.73 1826.5 1546.54 1821.92 1526.52 1795.96 1506.5 1768.48 1509.36 1728.78 1535.1 1705.88Z" stroke="#58585A" stroke-width="2.86476" stroke-linecap="round" stroke-linejoin="round" stroke-miterlimit="10" fill="none" fill-rule="evenodd"/><path d="M1541.54 1716.9C1563.14 1698.5 1593.38 1701.57 1609.22 1724.57 1626.5 1746.03 1622.18 1778.23 1602.02 1796.63 1581.86 1813.5 1551.62 1810.43 1534.34 1788.97 1518.5 1765.97 1521.38 1733.77 1541.54 1716.9Z" stroke="#58585A" stroke-width="1.14583" stroke-linecap="round" stroke-linejoin="round" stroke-miterlimit="10" fill="none" fill-rule="evenodd"/></g></svg>