<svg width="124" height="131" xmlns="http://www.w3.org/2000/svg" xmlns:xlink="http://www.w3.org/1999/xlink" xml:space="preserve" overflow="hidden"><g transform="translate(-2005 -1689)"><path d="M2028.82 1704.38C2054.75 1683 2092.22 1687.58 2112.39 1715.06 2134 1741.02 2129.68 1782.25 2103.74 1803.62 2077.81 1825 2040.34 1820.42 2020.17 1794.46 2000 1766.98 2002.88 1727.28 2028.82 1704.38Z" fill="#FFF5AD" fill-rule="evenodd"/><path d="M2035.83 1715.4C2057.23 1697 2087.19 1700.07 2102.88 1723.07 2120 1744.53 2115.72 1776.73 2095.75 1795.13 2075.77 1812 2045.81 1808.93 2028.69 1787.47 2013 1764.47 2015.85 1732.27 2035.83 1715.4Z" fill="#80CCDE" fill-rule="evenodd"/><path d="M2104.62 1737C2110.31 1750.6 2104.62 1773.28 2090.38 1783.86 2077.58 1794.44 2056.23 1797.47 2042 1789.91 2056.23 1802 2077.58 1800.49 2093.23 1788.4 2108.88 1774.79 2116 1753.63 2104.62 1737Z" fill="#FFFFFF" fill-rule="evenodd"/><path d="M2053.17 1739.65C2070.39 1724.42 2094.78 1724.42 2112 1738.12 2109.13 1732.03 2107.7 1727.46 2103.39 1722.89 2087.61 1701.57 2057.48 1697 2035.96 1715.28 2015.87 1732.03 2013 1764.02 2028.78 1786.86 2031.65 1789.91 2034.52 1792.95 2038.83 1796 2031.65 1776.2 2037.39 1753.35 2053.17 1739.65Z" fill="#00AECC" fill-rule="evenodd"/><path d="M2029.32 1704.88C2055.25 1683.5 2092.72 1688.08 2112.89 1715.56 2134.5 1741.52 2130.18 1782.75 2104.24 1804.12 2078.31 1825.5 2040.84 1820.92 2020.67 1794.96 2000.5 1767.48 2003.38 1727.78 2029.32 1704.88Z" stroke="#58585A" stroke-width="2.86476" stroke-linecap="round" stroke-linejoin="round" stroke-miterlimit="10" fill="none" fill-rule="evenodd"/><path d="M2035.83 1715.4C2057.23 1697 2087.19 1700.07 2102.88 1723.07 2120 1744.53 2115.72 1776.73 2095.75 1795.13 2075.77 1812 2045.81 1808.93 2028.69 1787.47 2013 1764.47 2015.85 1732.27 2035.83 1715.4Z" stroke="#58585A" stroke-width="1.71893" stroke-linecap="round" stroke-linejoin="round" stroke-miterlimit="10" fill="none" fill-rule="evenodd"/></g></svg>