<svg width="1297" height="841" xmlns="http://www.w3.org/2000/svg" xmlns:xlink="http://www.w3.org/1999/xlink" xml:space="preserve" overflow="hidden"><defs><clipPath id="clip0"><rect x="869" y="877" width="1297" height="841"/></clipPath></defs><g clip-path="url(#clip0)" transform="translate(-869 -877)"><rect x="870" y="878" width="1295" height="840" fill="#F7C7CB"/><path d="M1147.65 1202.87C1160.07 1187.84 1226.76 1105.48 1292.15 1105.48 1378.45 1105.48 1448.41 1175.42 1448.41 1261.05 1448.41 1346.68 1378.45 1416.62 1292.15 1416.62 1225.45 1416.62 1172.5 1359.1 1145.69 1315.3 1119.54 1271.51 1122.15 1253.86 1092.07 1247.97 1071.15 1244.05 1028 1284.58 1043.69 1359.75 1055.46 1415.31 1112.34 1477.41 1175.76 1515.32 1227.42 1546.05 1319.61 1551.93 1365.37 1569.58 1464.75 1607.49 1474.56 1716 1474.56 1716 2165 1716 2165 1716 2165 1716 2165 878 2165 878 2165 878 1488.95 878 1488.95 878 1488.95 878 1488.95 878 1528.83 936.83 1437.95 958.401 1398.06 967.552 1316.34 949.903 1218.26 992.392 1188.19 1005.46 1122.8 1050.57 1088.15 1095.02 1048.27 1146.66 1064.61 1209.41 1096 1222.48 1116.92 1230.98 1135.23 1217.91 1147.65 1202.87" fill="#C7CDE6" fill-rule="evenodd"/><path d="M1147.52 1203.33C1148.17 1203.98 1148.17 1203.98 1148.17 1203.98 1154.71 1196.14 1174.32 1171.94 1200.47 1149.7 1226.62 1127.47 1259.95 1107.2 1291.99 1107.2 1334.48 1107.2 1373.7 1124.85 1401.16 1152.32 1429.27 1180.44 1446.92 1219.02 1446.92 1261.53 1446.92 1304.04 1429.27 1342.62 1401.16 1370.74 1373.7 1398.86 1334.48 1415.87 1291.99 1415.87 1258.65 1415.87 1229.23 1401.48 1204.39 1381.86 1179.55 1362.24 1159.94 1337.39 1146.86 1315.16 1133.79 1293.58 1127.91 1277.88 1121.37 1267.42 1118.1 1262.19 1114.83 1257.61 1110.25 1254.34 1105.68 1251.07 1099.8 1248.45 1091.95 1247.14 1091.3 1247.14 1089.99 1247.14 1088.68 1247.14 1084.11 1247.14 1078.22 1249.11 1072.99 1252.38 1056.65 1263.49 1039 1289.65 1039 1328.89 1039 1338.7 1040.31 1349.16 1042.27 1360.28 1048.81 1388.4 1065.8 1418.48 1089.34 1445.95 1112.87 1472.76 1142.94 1498.27 1174.97 1517.23 1201.12 1532.27 1237.07 1541.43 1272.38 1549.28 1307.68 1556.47 1342.32 1562.36 1364.55 1570.86 1414.23 1589.82 1441.03 1626.44 1456.07 1657.84 1463.26 1674.18 1467.84 1688.57 1470.45 1699.69 1471.76 1704.92 1472.41 1708.84 1473.07 1712.11 1473.07 1713.42 1473.07 1714.73 1473.07 1715.38 1473.72 1716.69 1473.72 1716.69 1473.72 1716.69 1473.72 1718 1473.72 1718 1473.72 1718 2166 1718 2166 1718 2166 1718 2166 877 2166 877 2166 877 1486.79 877 1486.79 877 1486.79 877 1488.1 878.962 1488.1 878.962 1488.1 878.962 1488.1 878.962 1488.1 878.962 1488.1 878.962 1488.75 880.27 1496.6 892.695 1496.6 907.082 1496.6 915.584 1493.33 925.393 1484.83 934.549 1476.33 943.704 1461.95 951.552 1437.76 957.438 1418.15 962.015 1387.43 960.054 1349.51 962.015 1311.6 963.977 1266.49 970.517 1217.46 992.098 1187.39 1005.18 1122.02 1049.65 1087.37 1094.77 1070.38 1117.01 1063.19 1140.55 1063.19 1162.13 1063.19 1177.17 1066.46 1190.25 1072.34 1201.37 1078.22 1211.83 1086.07 1220.33 1095.87 1224.26 1100.45 1226.22 1105.03 1226.87 1108.95 1226.87 1117.45 1226.87 1124.64 1224.26 1131.17 1219.68 1137.71 1215.75 1143.59 1209.87 1148.17 1203.98 1147.52 1203.33 1147.52 1203.33 1147.52 1203.33 1146.21 1202.67 1146.21 1202.67 1146.21 1202.67 1141.63 1207.91 1136.4 1213.79 1129.87 1217.72 1123.33 1221.64 1116.79 1224.26 1108.95 1224.26 1105.03 1224.26 1101.1 1223.6 1096.53 1221.64 1087.37 1218.37 1080.18 1210.52 1074.3 1200.06 1069.07 1189.6 1065.8 1176.52 1065.8 1162.13 1065.8 1141.2 1072.34 1117.66 1089.34 1096.08 1123.33 1051.61 1188.7 1007.14 1218.77 994.06 1267.15 973.133 1312.25 966.593 1349.51 964.631 1387.43 962.669 1418.15 964.631 1438.42 960.054 1462.61 954.168 1477.64 945.666 1486.79 936.511 1495.94 926.701 1498.56 916.238 1498.56 907.082 1498.56 890.733 1490.06 877.654 1490.06 877.654 1488.75 878.308 1488.75 878.308 1488.75 878.308 1488.75 879.616 1488.75 879.616 1488.75 879.616 2163.39 879.616 2163.39 879.616 2163.39 879.616 2163.39 1715.38 2163.39 1715.38 2163.39 1715.38 1474.37 1715.38 1474.37 1715.38 1474.37 1715.38 1474.37 1716.69 1474.37 1716.69 1474.37 1716.69 1475.68 1716.69 1475.68 1716.69 1475.68 1716.69 1475.68 1716.69 1473.07 1689.23 1458.68 1657.18 1443.65 1625.14 1415.54 1587.86 1365.86 1568.9 1342.98 1559.74 1308.33 1553.85 1273.03 1546.66 1237.73 1538.81 1201.77 1530.31 1176.28 1514.62 1144.25 1496.31 1114.83 1471.45 1091.3 1443.99 1067.76 1417.18 1050.77 1387.75 1044.88 1359.63 1042.92 1348.51 1041.61 1338.7 1041.61 1328.89 1041.61 1303.39 1049.46 1283.11 1058.61 1270.03 1063.84 1262.84 1069.07 1257.61 1074.3 1254.34 1079.53 1251.07 1084.76 1249.11 1088.68 1249.11 1089.99 1249.11 1090.64 1249.76 1091.3 1249.76 1099.14 1251.07 1104.37 1253.03 1108.95 1256.3 1114.83 1260.88 1119.41 1267.42 1123.98 1277.23 1129.21 1287.04 1135.1 1300.12 1144.9 1316.46 1157.98 1338.7 1177.59 1364.2 1203.08 1383.82 1227.92 1404.1 1257.99 1418.48 1291.99 1418.48 1378.93 1418.48 1448.88 1347.86 1448.88 1261.53 1448.88 1175.21 1378.93 1104.58 1291.99 1104.58 1258.65 1104.58 1225.31 1125.51 1199.16 1147.74 1172.36 1170.63 1152.75 1194.83 1146.21 1202.67 1147.52 1203.33 1147.52 1203.33 1147.52 1203.33" fill="#343434" fill-rule="evenodd"/><path d="M1206.27 1112.67C1236.99 1089.13 1286 1075.41 1342.21 1086.52 1420.63 1101.55 1472.26 1176.07 1472.26 1261.7 1472.26 1347.99 1411.48 1420.54 1331.75 1436.23 1266.4 1448.65 1195.82 1415.97 1163.79 1378.05 1120.01 1327.72 1118.7 1276.74 1095.17 1272.81 1077.53 1268.89 1054 1298.96 1059.88 1345.37 1067.72 1401.59 1128.5 1483.95 1240.91 1517.94 1303.65 1537.55 1357.89 1540.16 1397.76 1557.81 1497.75 1604.22 1501.67 1716 1501.67 1716 2165 1716 2165 1716 2165 1716 2165 878 2165 878 2165 878 1521.27 878 1521.27 878 1521.27 878 1521.27 878 1549.38 957.094 1470.3 978.011 1435.01 987.816 1350.05 978.011 1261.17 1000.24 1232.41 1007.43 1163.14 1047.95 1125.89 1087.17 1091.25 1123.78 1065.11 1196.34 1110.86 1200.26 1135.69 1202.22 1157.26 1149.93 1206.27 1112.67" fill="#8F98C7" fill-rule="evenodd"/><path d="M1331.68 1436.23C1326.45 1436.88 1321.23 1437.54 1316 1438.19 1331.03 1439.5 1345.4 1438.85 1359.78 1436.23 1440.14 1420.54 1500.25 1347.99 1500.25 1261.7 1500.25 1176.07 1449.29 1101.55 1370.23 1086.52 1351.94 1082.6 1334.29 1081.94 1317.96 1083.25 1325.8 1083.9 1333.64 1084.56 1342.13 1086.52 1420.54 1101.55 1472.15 1176.07 1472.15 1261.7 1472.15 1347.99 1411.39 1420.54 1331.68 1436.23M1549.25 878C1521.16 878 1521.16 878 1521.16 878 1521.16 878 1549.25 957.094 1470.19 978.011 1434.91 987.816 1349.98 978.011 1261.12 1000.24 1232.37 1007.43 1163.11 1047.95 1125.87 1087.17 1091.24 1123.78 1065.11 1196.34 1110.84 1200.26 1116.07 1200.91 1120.64 1198.95 1125.22 1195.68 1099.74 1178.69 1123.91 1119.2 1154.62 1087.17 1191.86 1047.95 1261.12 1007.43 1289.21 1000.24 1378.72 978.011 1463.66 987.816 1498.29 978.011 1578 957.094 1549.25 878 1549.25 878M1425.77 1557.81C1386.56 1540.16 1331.68 1537.55 1268.96 1517.94 1156.58 1483.95 1095.82 1401.59 1087.97 1345.37 1084.05 1314 1093.86 1289.81 1105.62 1278.7 1103 1275.43 1099.74 1273.47 1095.16 1272.81 1077.52 1268.89 1054 1298.96 1059.88 1345.37 1067.72 1401.59 1128.48 1483.95 1240.86 1517.94 1303.59 1537.55 1357.82 1540.16 1397.67 1557.81 1497.64 1604.22 1501.56 1716 1501.56 1716 1529.65 1716 1529.65 1716 1529.65 1716 1529.65 1716 1526.38 1604.22 1425.77 1557.81" fill="#7A88BE" fill-rule="evenodd"/><rect x="1506" y="1233" width="126" height="17.9999" fill="#E85A20"/><path d="M1621 1204 1688 1242 1621 1280 1621 1204Z" fill="#E85A20" fill-rule="evenodd"/><path d="M870.146 878.145 870.146 879.29 2163.71 879.29 2163.71 1715.14 871.864 1715.14 871.864 878.145 870.146 878.145 870.146 879.29 870.146 878.145 869 878.145 869 1718 2166 1718 2166 877 869 877 869 878.145 870.146 878.145Z" fill="#343434" fill-rule="evenodd"/><path d="M1234 1238.5C1234 1226.63 1243.4 1217 1255 1217 1266.6 1217 1276 1226.63 1276 1238.5 1276 1250.37 1266.6 1260 1255 1260 1243.4 1260 1234 1250.37 1234 1238.5Z" fill="#EE7F1B" fill-rule="evenodd"/><path d="M1254.68 1251.33C1244.98 1251.33 1236.58 1244 1234 1234 1234 1235.33 1234 1236.67 1234 1238.67 1234 1250.67 1243.05 1260 1254.68 1260 1266.95 1260 1276 1250.67 1276 1238.67 1276 1236.67 1276 1235.33 1275.35 1234 1273.42 1244 1265.02 1251.33 1254.68 1251.33Z" fill="#E85A20" fill-rule="evenodd"/><path d="M1276.34 1237.67C1276.34 1237.67 1276.34 1237.67 1276.34 1237.67 1276.34 1243.58 1273.72 1248.84 1269.78 1252.78 1265.84 1256.72 1260.58 1259.34 1254.67 1259.34 1249.42 1259.34 1243.51 1256.72 1240.22 1252.78 1236.28 1248.84 1233.66 1243.58 1233.66 1237.67 1233.66 1231.76 1236.28 1226.51 1240.22 1222.57 1243.51 1219.28 1249.42 1216.66 1254.67 1216.66 1260.58 1216.66 1265.84 1219.28 1269.78 1222.57 1273.72 1226.51 1276.34 1231.76 1276.34 1237.67 1276.34 1237.67 1276.34 1237.67 1276.34 1237.67 1277 1237.67 1277 1237.67 1277 1237.67 1277 1225.85 1267.15 1216 1254.67 1216 1242.85 1216 1233 1225.85 1233 1237.67 1233 1250.15 1242.85 1260 1254.67 1260 1267.15 1260 1277 1250.15 1277 1237.67L1276.34 1237.67Z" fill="#343434" fill-rule="evenodd"/><path d="M1273.06 1234.2C1271.12 1240.05 1262.71 1242 1254.94 1239.4 1246.53 1236.8 1242 1229.65 1243.94 1224.45 1245.88 1218.6 1253.65 1216 1262.06 1218.6 1269.82 1221.85 1275 1228.35 1273.06 1234.2Z" fill="#F39618" fill-rule="evenodd"/><path d="M1263 1239C1263 1236.79 1264.79 1235 1267 1235 1269.21 1235 1271 1236.79 1271 1239 1271 1241.21 1269.21 1243 1267 1243 1264.79 1243 1263 1241.21 1263 1239Z" fill="#F4A613" fill-rule="evenodd"/><path d="M1264 1230.5C1264 1229.12 1265.12 1228 1266.5 1228 1267.88 1228 1269 1229.12 1269 1230.5 1269 1231.88 1267.88 1233 1266.5 1233 1265.12 1233 1264 1231.88 1264 1230.5Z" fill="#F4A613" fill-rule="evenodd"/><path d="M1268 1237C1268 1235.9 1268.9 1235 1270 1235 1271.1 1235 1272 1235.9 1272 1237 1272 1238.1 1271.1 1239 1270 1239 1268.9 1239 1268 1238.1 1268 1237Z" fill="#FFFFFF" fill-rule="evenodd"/><path d="M1267 1232C1267 1231.45 1267.45 1231 1268 1231 1268.55 1231 1269 1231.45 1269 1232 1269 1232.55 1268.55 1233 1268 1233 1267.45 1233 1267 1232.55 1267 1232Z" fill="#FFFFFF" fill-rule="evenodd"/><path d="M1290 1253.5C1290 1241.63 1299.4 1232 1311 1232 1322.6 1232 1332 1241.63 1332 1253.5 1332 1265.37 1322.6 1275 1311 1275 1299.4 1275 1290 1265.37 1290 1253.5Z" fill="#EE7F1B" fill-rule="evenodd"/><path d="M1311.32 1265.9C1300.98 1265.9 1292.58 1258.75 1290.65 1249 1290 1250.95 1290 1252.25 1290 1253.55 1290 1265.25 1299.69 1275 1311.32 1275 1322.95 1275 1332 1265.25 1332 1253.55 1332 1252.25 1332 1250.95 1332 1249 1330.06 1258.75 1321.02 1265.9 1311.32 1265.9Z" fill="#E85A20" fill-rule="evenodd"/><path d="M1332.34 1253.5C1332.34 1253.5 1332.34 1253.5 1332.34 1253.5 1332.34 1259.36 1329.72 1264.58 1325.78 1268.48 1322.49 1272.39 1317.24 1274.35 1311.33 1274.35 1305.42 1274.35 1300.16 1272.39 1296.22 1268.48 1292.28 1264.58 1289.66 1259.36 1289.66 1253.5 1289.66 1247.64 1292.28 1242.42 1296.22 1238.52 1300.16 1234.61 1305.42 1232.65 1311.33 1232.65 1317.24 1232.65 1322.49 1234.61 1325.78 1238.52 1329.72 1242.42 1332.34 1247.64 1332.34 1253.5 1332.34 1253.5 1332.34 1253.5 1332.34 1253.5 1333 1253.5 1333 1253.5 1333 1253.5 1333 1241.77 1323.15 1232 1311.33 1232 1298.85 1232 1289 1241.77 1289 1253.5 1289 1265.23 1298.85 1275 1311.33 1275 1323.15 1275 1333 1265.23 1333 1253.5L1332.34 1253.5Z" fill="#343434" fill-rule="evenodd"/><path d="M1329 1250.2C1327 1255.4 1318.33 1258 1310.33 1255.4 1302.33 1252.15 1297 1245.65 1299 1239.8 1301 1233.95 1309 1232 1317.67 1234.6 1325.67 1237.2 1331 1244.35 1329 1250.2Z" fill="#F39618" fill-rule="evenodd"/><path d="M1319 1254.5C1319 1252.57 1320.79 1251 1323 1251 1325.21 1251 1327 1252.57 1327 1254.5 1327 1256.43 1325.21 1258 1323 1258 1320.79 1258 1319 1256.43 1319 1254.5Z" fill="#F4A613" fill-rule="evenodd"/><path d="M1319 1245.5C1319 1244.12 1320.34 1243 1322 1243 1323.66 1243 1325 1244.12 1325 1245.5 1325 1246.88 1323.66 1248 1322 1248 1320.34 1248 1319 1246.88 1319 1245.5Z" fill="#F4A613" fill-rule="evenodd"/><path d="M1324 1253C1324 1251.9 1324.9 1251 1326 1251 1327.1 1251 1328 1251.9 1328 1253 1328 1254.1 1327.1 1255 1326 1255 1324.9 1255 1324 1254.1 1324 1253Z" fill="#FFFFFF" fill-rule="evenodd"/><path d="M1323 1247.5C1323 1247.22 1323.67 1247 1324.5 1247 1325.33 1247 1326 1247.22 1326 1247.5 1326 1247.78 1325.33 1248 1324.5 1248 1323.67 1248 1323 1247.78 1323 1247.5Z" fill="#FFFFFF" fill-rule="evenodd"/><path d="M1307 1165.5C1307 1153.63 1316.63 1144 1328.5 1144 1340.37 1144 1350 1153.63 1350 1165.5 1350 1177.37 1340.37 1187 1328.5 1187 1316.63 1187 1307 1177.37 1307 1165.5Z" fill="#EE7F1B" fill-rule="evenodd"/><path d="M1328.83 1177.9C1318.25 1177.9 1309.65 1170.75 1307.66 1161 1307 1162.3 1307 1164.25 1307 1165.55 1307 1177.25 1316.92 1187 1328.83 1187 1340.74 1187 1350 1177.25 1350 1165.55 1350 1164.25 1350 1162.3 1350 1161 1348.02 1170.75 1338.75 1177.9 1328.83 1177.9Z" fill="#E85A20" fill-rule="evenodd"/><path d="M1349.34 1165.82C1349.34 1165.82 1349.34 1165.82 1349.34 1165.82 1349.34 1171.6 1346.72 1176.73 1343.43 1180.58 1339.49 1183.79 1334.24 1186.36 1328.33 1186.36 1322.42 1186.36 1317.16 1183.79 1313.22 1180.58 1309.28 1176.73 1306.66 1171.6 1306.66 1165.82 1306.66 1160.04 1309.28 1154.91 1313.22 1151.06 1317.16 1147.21 1322.42 1144.64 1328.33 1144.64 1334.24 1144.64 1339.49 1147.21 1343.43 1151.06 1346.72 1154.91 1349.34 1160.04 1349.34 1165.82 1349.34 1165.82 1349.34 1165.82 1349.34 1165.82 1350 1165.82 1350 1165.82 1350 1165.82 1350 1153.63 1340.15 1144 1328.33 1144 1315.85 1144 1306 1153.63 1306 1165.82 1306 1177.37 1315.85 1187 1328.33 1187 1340.15 1187 1350 1177.37 1350 1165.82L1349.34 1165.82Z" fill="#343434" fill-rule="evenodd"/><path d="M1347 1160.88C1345 1166.5 1337 1169 1328.33 1165.88 1320.33 1163.38 1315 1157.12 1317 1151.5 1319 1145.88 1327 1144 1335.67 1146.5 1343.67 1149 1349 1155.88 1347 1160.88Z" fill="#F39618" fill-rule="evenodd"/><path d="M1337 1166C1337 1163.79 1338.79 1162 1341 1162 1343.21 1162 1345 1163.79 1345 1166 1345 1168.21 1343.21 1170 1341 1170 1338.79 1170 1337 1168.21 1337 1166Z" fill="#F4A613" fill-rule="evenodd"/><path d="M1337 1157C1337 1155.34 1338.12 1154 1339.5 1154 1340.88 1154 1342 1155.34 1342 1157 1342 1158.66 1340.88 1160 1339.5 1160 1338.12 1160 1337 1158.66 1337 1157Z" fill="#F4A613" fill-rule="evenodd"/><path d="M1342 1164C1342 1162.9 1342.9 1162 1344 1162 1345.1 1162 1346 1162.9 1346 1164 1346 1165.1 1345.1 1166 1344 1166 1342.9 1166 1342 1165.1 1342 1164Z" fill="#FFFFFF" fill-rule="evenodd"/><path d="M1341 1159C1341 1158.45 1341.45 1158 1342 1158 1342.55 1158 1343 1158.45 1343 1159 1343 1159.55 1342.55 1160 1342 1160 1341.45 1160 1341 1159.55 1341 1159Z" fill="#FFFFFF" fill-rule="evenodd"/><path d="M1338 1181.5C1338 1169.63 1347.85 1160 1360 1160 1372.15 1160 1382 1169.63 1382 1181.5 1382 1193.37 1372.15 1203 1360 1203 1347.85 1203 1338 1193.37 1338 1181.5Z" fill="#EE7F1B" fill-rule="evenodd"/><path d="M1360 1193.9C1349.33 1193.9 1340.67 1186.75 1338.67 1177 1338 1178.95 1338 1180.25 1338 1181.55 1338 1193.25 1348 1203 1360 1203 1372 1203 1382 1193.25 1382 1181.55 1382 1180.25 1382 1178.95 1381.33 1177 1379.33 1186.75 1370.67 1193.9 1360 1193.9Z" fill="#E85A20" fill-rule="evenodd"/><path d="M1382 1181.5C1381.33 1181.5 1381.33 1181.5 1381.33 1181.5 1381.33 1187.36 1379.33 1192.58 1375.33 1196.48 1371.33 1200.39 1366 1202.35 1360 1202.35 1354 1202.35 1348.67 1200.39 1344.67 1196.48 1340.67 1192.58 1338.67 1187.36 1338.67 1181.5 1338.67 1175.64 1340.67 1170.42 1344.67 1166.52 1348.67 1162.61 1354 1160.65 1360 1160.65 1366 1160.65 1371.33 1162.61 1375.33 1166.52 1379.33 1170.42 1381.33 1175.64 1381.33 1181.5 1382 1181.5 1382 1181.5 1382 1181.5 1382 1181.5 1382 1181.5 1382 1181.5 1382 1169.77 1372 1160 1360 1160 1348 1160 1338 1169.77 1338 1181.5 1338 1193.23 1348 1203 1360 1203 1372 1203 1382 1193.23 1382 1181.5Z" fill="#343434" fill-rule="evenodd"/><path d="M1378 1177.2C1376 1182.4 1368 1185 1359.33 1182.4 1351.33 1179.15 1346 1172.65 1348 1166.8 1350 1160.95 1358.67 1159 1366.67 1161.6 1375.33 1164.2 1380 1171.35 1378 1177.2Z" fill="#F39618" fill-rule="evenodd"/><path d="M1369 1182C1369 1179.79 1370.79 1178 1373 1178 1375.21 1178 1377 1179.79 1377 1182 1377 1184.21 1375.21 1186 1373 1186 1370.79 1186 1369 1184.21 1369 1182Z" fill="#F4A613" fill-rule="evenodd"/><path d="M1369 1172.5C1369 1171.12 1370.12 1170 1371.5 1170 1372.88 1170 1374 1171.12 1374 1172.5 1374 1173.88 1372.88 1175 1371.5 1175 1370.12 1175 1369 1173.88 1369 1172.5Z" fill="#F4A613" fill-rule="evenodd"/><path d="M1373 1180C1373 1178.9 1373.9 1178 1375 1178 1376.1 1178 1377 1178.9 1377 1180 1377 1181.1 1376.1 1182 1375 1182 1373.9 1182 1373 1181.1 1373 1180Z" fill="#FFFFFF" fill-rule="evenodd"/><path d="M1373 1175C1373 1174.45 1373.22 1174 1373.5 1174 1373.78 1174 1374 1174.45 1374 1175 1374 1175.55 1373.78 1176 1373.5 1176 1373.22 1176 1373 1175.55 1373 1175Z" fill="#FFFFFF" fill-rule="evenodd"/><path d="M1258 1299.5C1258 1287.63 1267.63 1278 1279.5 1278 1291.37 1278 1301 1287.63 1301 1299.5 1301 1311.37 1291.37 1321 1279.5 1321 1267.63 1321 1258 1311.37 1258 1299.5Z" fill="#EE7F1B" fill-rule="evenodd"/><path d="M1279.5 1312.33C1269.08 1312.33 1260.61 1305 1258.65 1295 1258 1296.33 1258 1297.67 1258 1299.67 1258 1311.67 1267.77 1321 1279.5 1321 1291.23 1321 1301 1311.67 1301 1299.67 1301 1297.67 1301 1296.33 1300.35 1295 1298.39 1305 1289.92 1312.33 1279.5 1312.33Z" fill="#E85A20" fill-rule="evenodd"/><path d="M1301 1299.18C1300.35 1299.18 1300.35 1299.18 1300.35 1299.18 1300.35 1304.96 1298.39 1310.09 1294.48 1313.94 1290.58 1317.79 1285.36 1320.36 1279.5 1320.36 1273.64 1320.36 1268.42 1317.79 1264.52 1313.94 1260.61 1310.09 1258.65 1304.96 1258.65 1299.18 1258.65 1293.4 1260.61 1288.27 1264.52 1284.42 1268.42 1281.21 1273.64 1278.64 1279.5 1278.64 1285.36 1278.64 1290.58 1281.21 1294.48 1284.42 1298.39 1288.27 1300.35 1293.4 1300.35 1299.18 1301 1299.18 1301 1299.18 1301 1299.18 1301 1299.18 1301 1299.18 1301 1299.18 1301 1287.63 1291.23 1278 1279.5 1278 1267.77 1278 1258 1287.63 1258 1299.18 1258 1311.37 1267.77 1321 1279.5 1321 1291.23 1321 1301 1311.37 1301 1299.18Z" fill="#343434" fill-rule="evenodd"/><path d="M1297.06 1294.9C1295.12 1300.98 1287.35 1303 1278.94 1300.3 1271.18 1297.6 1266 1290.18 1267.94 1284.1 1269.88 1278.7 1278.29 1276 1286.06 1278.7 1294.47 1282.08 1299 1288.83 1297.06 1294.9Z" fill="#F39618" fill-rule="evenodd"/><path d="M1287 1299.5C1287 1297.57 1288.79 1296 1291 1296 1293.21 1296 1295 1297.57 1295 1299.5 1295 1301.43 1293.21 1303 1291 1303 1288.79 1303 1287 1301.43 1287 1299.5Z" fill="#F4A613" fill-rule="evenodd"/><path d="M1287 1291C1287 1289.34 1288.34 1288 1290 1288 1291.66 1288 1293 1289.34 1293 1291 1293 1292.66 1291.66 1294 1290 1294 1288.34 1294 1287 1292.66 1287 1291Z" fill="#F4A613" fill-rule="evenodd"/><path d="M1292 1298C1292 1296.9 1292.9 1296 1294 1296 1295.1 1296 1296 1296.9 1296 1298 1296 1299.1 1295.1 1300 1294 1300 1292.9 1300 1292 1299.1 1292 1298Z" fill="#FFFFFF" fill-rule="evenodd"/><path d="M1291 1293C1291 1292.45 1291.67 1292 1292.5 1292 1293.33 1292 1294 1292.45 1294 1293 1294 1293.55 1293.33 1294 1292.5 1294 1291.67 1294 1291 1293.55 1291 1293Z" fill="#FFFFFF" fill-rule="evenodd"/><path d="M1343.43 1443C1341.5 1444.41 1340.21 1445.12 1338.93 1447.24 1337.64 1448.65 1337 1451.47 1337 1453.59 1337 1454.29 1337 1454.29 1337 1455 1342.14 1454.29 1342.14 1454.29 1342.14 1454.29 1342.14 1453.59 1342.14 1453.59 1342.14 1453.59 1342.14 1452.18 1342.79 1451.47 1343.43 1450.76 1344.07 1449.35 1344.71 1448.65 1346 1447.24L1343.43 1443Z" fill="#8F98C7" fill-rule="evenodd"/><path d="M1359 1085C1359 1085 1460.74 1097.44 1479 1252 1479 1252 1479 1097.44 1359 1085Z" fill="#FFFFFF" fill-rule="evenodd"/><path d="M1832.51 1508.56C1783.45 1508.56 1743.54 1484.36 1743.54 1454.93 1743.54 1425.5 1783.45 1401.96 1832.51 1401.96 1881.57 1401.96 1920.82 1425.5 1920.82 1454.93 1920.82 1484.36 1881.57 1508.56 1832.51 1508.56M2069.97 1290.79C2041.19 1290.79 1996.7 1324.14 1976.42 1334.61 1965.3 1340.49 1927.36 1366 1902.5 1371.23 1883.53 1380.38 1861.95 1386.27 1839.71 1386.27 1839.71 1386.27 1839.71 1386.27 1839.71 1386.27 1800.46 1386.27 1765.79 1369.92 1740.27 1343.76 1738.97 1342.45 1737 1340.49 1735.69 1339.18 1717.38 1356.84 1697.75 1374.5 1678.78 1390.85 1633.65 1429.43 1589.16 1470.63 1550.57 1515.1 1534.21 1533.41 1488.42 1581.14 1504.12 1610.57 1509.36 1620.38 1520.48 1623.65 1532.91 1623.65 1549.26 1623.65 1567.58 1617.77 1577.39 1614.5 1640.19 1592.26 1692.52 1547.14 1757.28 1527.52 1778.87 1520.33 1793.91 1517.71 1803.07 1517.71 1854.1 1517.71 1752.05 1602.72 1767.75 1640 1768.4 1640 1768.4 1640 1769.06 1640 1794.57 1640 1814.85 1620.38 1835.78 1607.96 1849.52 1599.46 1864.56 1588.34 1880.26 1584.41 1883.53 1583.76 1886.8 1583.11 1889.42 1583.11 1893.35 1583.11 1896.62 1583.76 1899.89 1584.41 1903.16 1585.07 1906.43 1585.72 1909.7 1585.72 1910.35 1585.72 1911.66 1585.72 1912.32 1585.72 1927.36 1584.41 1926.05 1588.99 1941.75 1572.64 1971.84 1541.25 2000.63 1503.98 2026.79 1468.67 2045.11 1443.82 2138 1311.72 2079.13 1292.1 2076.51 1291.45 2073.24 1290.79 2069.97 1290.79M1709.53 903C1668.32 903 1593.74 959.894 1566.27 972.973 1538.14 984.744 1406 1006.98 1424.97 1041.64 1430.86 1052.75 1441.98 1056.68 1456.37 1056.68 1488.42 1056.68 1538.14 1033.79 1587.86 1010.9 1636.92 987.359 1686.63 964.471 1718.69 964.471 1725.23 964.471 1731.12 965.125 1735.69 967.087 1804.38 995.861 1610.75 1088.72 1663.74 1113.57 1667.66 1114.88 1671.59 1115.53 1676.82 1115.53 1709.53 1115.53 1767.75 1082.18 1793.26 1078.26 1804.38 1076.3 1816.81 1074.33 1829.89 1074.33 1856.71 1074.33 1883.53 1081.53 1892.04 1106.38 1903.16 1110.3 1912.97 1114.88 1922.78 1121.42 1928.02 1124.69 1932.6 1128.61 1937.17 1132.54 1953.53 1146.27 1965.3 1163.93 1971.84 1182.89 1975.77 1177.66 1978.39 1173.73 1979.69 1171.12 1999.32 1137.11 2089.59 1016.13 2048.38 973.627 2039.88 965.125 2027.45 961.201 2013.71 961.201 1963.34 961.201 1888.11 1006.32 1852.79 1011.56 1846.9 1012.86 1841.67 1013.52 1837.74 1013.52 1797.19 1013.52 1851.48 969.049 1850.17 941.583 1845.59 939.621 1841.01 938.967 1836.43 938.967 1824.66 938.967 1812.23 943.545 1799.8 948.776 1787.37 954.008 1774.94 959.24 1763.17 959.24 1763.17 959.24 1762.51 959.24 1762.51 959.24 1725.88 958.586 1743.54 942.891 1733.73 918.041 1729.15 907.578 1720.65 903 1709.53 903" fill="#8B94C5" fill-rule="evenodd"/><path d="M1743 1456C1743 1426.73 1782.62 1403 1831.5 1403 1880.38 1403 1920 1426.73 1920 1456 1920 1485.27 1880.38 1509 1831.5 1509 1782.62 1509 1743 1485.27 1743 1456Z" fill="#818DC1" fill-rule="evenodd"/><path d="M1979 1241.67C1979 1320.86 1916.35 1385 1840 1385 1763 1385 1701 1320.86 1701 1241.67 1701 1150.05 1763 1099 1840 1099 1916.35 1099 1979 1148.74 1979 1241.67" fill="#7A88BE" fill-rule="evenodd"/><path d="M1744.32 1241.67C1744.32 1158.56 1795.17 1109.47 1861 1100.31 1853.83 1099 1846.66 1099 1838.84 1099 1761.92 1099 1700 1149.39 1700 1241.67 1700 1320.86 1761.92 1385 1838.84 1385 1846.01 1385 1853.83 1384.35 1861 1383.04 1795.17 1371.91 1744.32 1313.01 1744.32 1241.67" fill="#6D81BA" fill-rule="evenodd"/><path d="M1978.69 1241.67C1977.39 1241.67 1977.39 1241.67 1977.39 1241.67 1977.39 1280.86 1961.7 1316.12 1936.87 1341.59 1912.04 1367.71 1877.4 1383.39 1839.5 1383.39 1801.6 1383.39 1766.96 1367.71 1741.48 1341.59 1716.64 1316.12 1701.61 1280.86 1701.61 1241.67 1701.61 1195.96 1716.64 1160.69 1741.48 1137.18 1766.96 1113.02 1800.94 1100.61 1839.5 1100.61 1877.4 1100.61 1912.04 1112.37 1936.87 1136.53 1961.7 1160.04 1977.39 1195.31 1977.39 1241.67 1978.69 1241.67 1978.69 1241.67 1978.69 1241.67 1980 1241.67 1980 1241.67 1980 1241.67 1980 1195.31 1964.32 1158.73 1938.83 1134.57 1913.34 1110.41 1878.06 1098 1839.5 1098 1800.94 1098 1765.66 1110.41 1740.17 1135.22 1714.68 1159.39 1699 1195.31 1699 1241.67 1699 1281.51 1714.68 1317.43 1740.17 1343.55 1765.66 1369.67 1800.29 1386 1839.5 1386 1878.06 1386 1913.34 1369.67 1938.83 1343.55 1964.32 1317.43 1980 1281.51 1980 1241.67 1978.69 1241.67 1978.69 1241.67 1978.69 1241.67" fill="#343434" fill-rule="evenodd"/><path d="M1702 1217.5C1702 1152.05 1763.34 1099 1839 1099 1914.66 1099 1976 1152.05 1976 1217.5 1976 1282.95 1914.66 1336 1839 1336 1763.34 1336 1702 1282.95 1702 1217.5Z" fill="#C7CDE6" fill-rule="evenodd"/><path d="M1723 1214C1723 1158.22 1775.38 1113 1840 1113 1904.62 1113 1957 1158.22 1957 1214 1957 1269.78 1904.62 1315 1840 1315 1775.38 1315 1723 1269.78 1723 1214Z" fill="#7283BC" fill-rule="evenodd"/><path d="M1734 1256.78C1752.95 1290.59 1792.8 1314 1839.19 1314 1887.54 1314 1929.36 1288.64 1947 1252.22 1928.05 1218.41 1888.2 1195 1841.81 1195 1793.46 1195 1751.64 1220.36 1734 1256.78" fill="#586EAE" fill-rule="evenodd"/><path d="M1956.69 1213.83C1955.38 1213.83 1955.38 1213.83 1955.38 1213.83 1955.38 1241.34 1942.27 1266.22 1921.29 1284.56 1900.31 1302.25 1871.47 1314.04 1840 1314.04 1807.88 1314.04 1779.03 1302.25 1758.06 1284.56 1737.08 1266.22 1723.97 1241.34 1723.97 1213.83 1723.97 1186.32 1737.08 1161.43 1758.06 1143.09 1779.03 1124.75 1807.88 1113.62 1840 1113.62 1871.47 1113.62 1900.31 1124.75 1921.29 1143.09 1942.27 1161.43 1955.38 1186.32 1955.38 1213.83 1956.69 1213.83 1956.69 1213.83 1956.69 1213.83 1958 1213.83 1958 1213.83 1958 1213.83 1958 1185.66 1944.23 1159.47 1923.26 1141.13 1901.62 1122.79 1872.12 1111 1840 1111 1807.22 1111 1777.72 1122.79 1756.09 1141.13 1735.11 1159.47 1722 1185.66 1722 1213.83 1722 1241.99 1735.11 1267.53 1756.09 1286.53 1777.72 1304.87 1807.22 1316 1840 1316 1872.12 1316 1901.62 1304.87 1923.26 1286.53 1944.23 1267.53 1958 1241.99 1958 1213.83 1956.69 1213.83 1956.69 1213.83 1956.69 1213.83" fill="#343434" fill-rule="evenodd"/><path d="M1975.69 1218C1974.39 1218 1974.39 1218 1974.39 1218 1974.39 1250.61 1959.38 1279.3 1935.24 1300.83 1910.45 1322.35 1876.52 1335.39 1839.33 1335.39 1801.48 1335.39 1767.55 1322.35 1743.41 1300.83 1718.62 1279.3 1703.61 1250.61 1703.61 1218 1703.61 1185.39 1718.62 1156.04 1743.41 1135.17 1767.55 1113.65 1801.48 1100.61 1839.33 1100.61 1876.52 1100.61 1910.45 1113.65 1935.24 1135.17 1959.38 1156.04 1974.39 1185.39 1974.39 1218 1975.69 1218 1975.69 1218 1975.69 1218 1977 1218 1977 1218 1977 1218 1977 1184.74 1961.34 1154.74 1936.55 1133.22 1911.75 1111.7 1877.17 1098 1839.33 1098 1800.83 1098 1766.9 1111.7 1741.45 1133.22 1716.66 1154.74 1701 1184.74 1701 1218 1701 1251.26 1716.66 1281.26 1741.45 1302.78 1766.9 1324.3 1800.83 1338 1839.33 1338 1877.17 1338 1911.75 1324.3 1936.55 1302.78 1961.34 1281.26 1977 1251.26 1977 1218 1975.69 1218 1975.69 1218 1975.69 1218" fill="#343434" fill-rule="evenodd"/><path d="M1741 1169C1741 1169 1716 1209.02 1736.39 1251 1737.71 1249.03 1738.37 1247.06 1739.68 1245.75 1731.79 1225.42 1728.5 1199.83 1741 1169" fill="#B5BBDC" fill-rule="evenodd"/><path d="M1775 1292C1775 1292 1775 1292 1775 1292 1775 1292 1775 1292 1775 1292M1740.28 1246C1738.97 1247.31 1738.31 1249.29 1737 1251.26 1744.21 1265.06 1756 1278.86 1775 1292 1775 1292 1752.07 1275.57 1740.28 1246" fill="#AAB1D6" fill-rule="evenodd"/><path d="M1908 1137C1956.41 1182.85 1952.49 1224.77 1944.64 1247.03 1944.64 1247.69 1945.29 1248.34 1945.29 1249 1978 1183.5 1908 1137 1908 1137" fill="#7D8BC0" fill-rule="evenodd"/><path d="M1936 1264C1936 1264 1936 1264 1936 1264 1936 1264 1936 1264 1936 1264M1936 1264C1936 1264 1936 1264 1936 1264 1936 1264 1936 1264 1936 1264M1944.36 1247C1940.5 1256.81 1936.64 1263.35 1936 1264 1939.86 1258.77 1942.43 1253.54 1945 1248.96 1945 1248.31 1944.36 1247.65 1944.36 1247" fill="#6D7DB8" fill-rule="evenodd"/><path d="M1762 1319C1762 1316.24 1764.01 1314 1766.5 1314 1768.99 1314 1771 1316.24 1771 1319 1771 1321.76 1768.99 1324 1766.5 1324 1764.01 1324 1762 1321.76 1762 1319Z" fill="#FFFFFF" fill-rule="evenodd"/><path d="M1774 1323.5C1774 1322.12 1775.12 1321 1776.5 1321 1777.88 1321 1779 1322.12 1779 1323.5 1779 1324.88 1777.88 1326 1776.5 1326 1775.12 1326 1774 1324.88 1774 1323.5Z" fill="#FFFFFF" fill-rule="evenodd"/><path d="M1754 1312.5C1754 1311.12 1755.12 1310 1756.5 1310 1757.88 1310 1759 1311.12 1759 1312.5 1759 1313.88 1757.88 1315 1756.5 1315 1755.12 1315 1754 1313.88 1754 1312.5Z" fill="#FFFFFF" fill-rule="evenodd"/><path d="M1870 1117C1870 1114.79 1872.01 1113 1874.5 1113 1876.99 1113 1879 1114.79 1879 1117 1879 1119.21 1876.99 1121 1874.5 1121 1872.01 1121 1870 1119.21 1870 1117Z" fill="#DFE3F1" fill-rule="evenodd"/><path d="M1880 1120.5C1880 1119.12 1881.34 1118 1883 1118 1884.66 1118 1886 1119.12 1886 1120.5 1886 1121.88 1884.66 1123 1883 1123 1881.34 1123 1880 1121.88 1880 1120.5Z" fill="#DFE3F1" fill-rule="evenodd"/><path d="M1936 1341C1936 1341 1894.81 1375.45 1834.65 1375.45 1834.65 1375.45 1834 1375.45 1834 1375.45 1838.58 1377.4 1843.15 1378.7 1847.73 1380 1873.88 1378.7 1904.62 1368.3 1936 1341" fill="#959ECB" fill-rule="evenodd"/><path d="M1767 1361C1767 1361 1796.63 1381 1839.44 1381 1842.07 1381 1844.71 1381 1848 1380.35 1843.39 1379.06 1838.78 1377.77 1834.17 1375.84 1813.76 1375.84 1791.37 1371.97 1767 1361" fill="#8A97C7" fill-rule="evenodd"/><path d="M1770 1166.5C1770 1154.63 1779.63 1145 1791.5 1145 1803.37 1145 1813 1154.63 1813 1166.5 1813 1178.37 1803.37 1188 1791.5 1188 1779.63 1188 1770 1178.37 1770 1166.5Z" fill="#EE7F1B" fill-rule="evenodd"/><path d="M1791.5 1178.9C1781.08 1178.9 1772.61 1171.75 1770.65 1162 1770 1163.3 1770 1165.25 1770 1166.55 1770 1178.25 1779.77 1188 1791.5 1188 1803.23 1188 1813 1178.25 1813 1166.55 1813 1165.25 1812.35 1163.3 1812.35 1162 1810.39 1171.75 1801.92 1178.9 1791.5 1178.9Z" fill="#E85A20" fill-rule="evenodd"/><path d="M1813 1166.33C1812.35 1166.33 1812.35 1166.33 1812.35 1166.33 1812.35 1172.24 1809.74 1177.49 1806.48 1181.43 1802.58 1184.72 1797.36 1187.34 1791.5 1187.34 1785.64 1187.34 1780.42 1184.72 1776.52 1181.43 1772.61 1177.49 1770.65 1172.24 1770.65 1166.33 1770.65 1160.42 1772.61 1155.16 1776.52 1151.22 1780.42 1147.28 1785.64 1144.66 1791.5 1144.66 1797.36 1144.66 1802.58 1147.28 1806.48 1151.22 1809.74 1155.16 1812.35 1160.42 1812.35 1166.33 1813 1166.33 1813 1166.33 1813 1166.33 1813 1166.33 1813 1166.33 1813 1166.33 1813 1153.85 1803.23 1144 1791.5 1144 1779.12 1144 1770 1153.85 1770 1166.33 1770 1178.15 1779.12 1188 1791.5 1188 1803.23 1188 1813 1178.15 1813 1166.33Z" fill="#343434" fill-rule="evenodd"/><path d="M1809.06 1161.55C1807.12 1167.4 1799.35 1170 1790.94 1166.75 1783.18 1164.15 1778 1157.65 1779.94 1151.8 1781.88 1145.95 1789.65 1144 1798.06 1146.6 1805.82 1149.2 1811 1156.35 1809.06 1161.55Z" fill="#F39618" fill-rule="evenodd"/><path d="M1800 1166C1800 1163.79 1801.79 1162 1804 1162 1806.21 1162 1808 1163.79 1808 1166 1808 1168.21 1806.21 1170 1804 1170 1801.79 1170 1800 1168.21 1800 1166Z" fill="#F4A613" fill-rule="evenodd"/><path d="M1800 1157.5C1800 1156.12 1801.12 1155 1802.5 1155 1803.88 1155 1805 1156.12 1805 1157.5 1805 1158.88 1803.88 1160 1802.5 1160 1801.12 1160 1800 1158.88 1800 1157.5Z" fill="#F4A613" fill-rule="evenodd"/><path d="M1805 1165C1805 1163.9 1805.9 1163 1807 1163 1808.1 1163 1809 1163.9 1809 1165 1809 1166.1 1808.1 1167 1807 1167 1805.9 1167 1805 1166.1 1805 1165Z" fill="#FFFFFF" fill-rule="evenodd"/><path d="M1804 1160C1804 1159.45 1804.45 1159 1805 1159 1805.55 1159 1806 1159.45 1806 1160 1806 1160.55 1805.55 1161 1805 1161 1804.45 1161 1804 1160.55 1804 1160Z" fill="#FFFFFF" fill-rule="evenodd"/><path d="M1813 1187C1813 1174.85 1822.63 1165 1834.5 1165 1846.37 1165 1856 1174.85 1856 1187 1856 1199.15 1846.37 1209 1834.5 1209 1822.63 1209 1813 1199.15 1813 1187Z" fill="#EE7F1B" fill-rule="evenodd"/><path d="M1834.5 1200.33C1824.08 1200.33 1815.61 1193 1813.65 1183 1813 1184.33 1813 1185.67 1813 1187.67 1813 1199.67 1822.77 1209 1834.5 1209 1846.23 1209 1856 1199.67 1856 1187.67 1856 1185.67 1855.35 1184.33 1855.35 1183 1853.39 1193 1844.27 1200.33 1834.5 1200.33Z" fill="#E85A20" fill-rule="evenodd"/><path d="M1856 1186.67C1855.34 1186.67 1855.34 1186.67 1855.34 1186.67 1855.34 1192.58 1852.72 1197.84 1849.43 1201.78 1845.49 1205.72 1840.24 1208.34 1834.33 1208.34 1828.42 1208.34 1823.16 1205.72 1819.22 1201.78 1815.28 1197.84 1812.66 1192.58 1812.66 1186.67 1812.66 1180.76 1815.28 1175.51 1819.22 1171.57 1823.16 1168.28 1828.42 1165.66 1834.33 1165.66 1840.24 1165.66 1845.49 1168.28 1849.43 1171.57 1852.72 1175.51 1855.34 1180.76 1855.34 1186.67 1856 1186.67 1856 1186.67 1856 1186.67 1856 1186.67 1856 1186.67 1856 1186.67 1856 1174.85 1846.15 1165 1834.33 1165 1821.85 1165 1812 1174.85 1812 1186.67 1812 1199.15 1821.85 1209 1834.33 1209 1846.15 1209 1856 1199.15 1856 1186.67Z" fill="#343434" fill-rule="evenodd"/><path d="M1852 1183.2C1850 1189.05 1842 1191 1833.33 1188.4 1825.33 1185.8 1820 1178.65 1822 1172.8 1824 1167.6 1832 1165 1840.67 1167.6 1848.67 1170.85 1854 1177.35 1852 1183.2Z" fill="#F39618" fill-rule="evenodd"/><path d="M1843 1188C1843 1185.79 1844.79 1184 1847 1184 1849.21 1184 1851 1185.79 1851 1188 1851 1190.21 1849.21 1192 1847 1192 1844.79 1192 1843 1190.21 1843 1188Z" fill="#F4A613" fill-rule="evenodd"/><path d="M1843 1179.5C1843 1178.12 1844.12 1177 1845.5 1177 1846.88 1177 1848 1178.12 1848 1179.5 1848 1180.88 1846.88 1182 1845.5 1182 1844.12 1182 1843 1180.88 1843 1179.5Z" fill="#F4A613" fill-rule="evenodd"/><path d="M1847 1186C1847 1184.9 1847.9 1184 1849 1184 1850.1 1184 1851 1184.9 1851 1186 1851 1187.1 1850.1 1188 1849 1188 1847.9 1188 1847 1187.1 1847 1186Z" fill="#FFFFFF" fill-rule="evenodd"/><path d="M1846 1181C1846 1180.45 1846.67 1180 1847.5 1180 1848.33 1180 1849 1180.45 1849 1181 1849 1181.55 1848.33 1182 1847.5 1182 1846.67 1182 1846 1181.55 1846 1181Z" fill="#FFFFFF" fill-rule="evenodd"/><path d="M1825 1277.5C1825 1265.63 1834.63 1256 1846.5 1256 1858.37 1256 1868 1265.63 1868 1277.5 1868 1289.37 1858.37 1299 1846.5 1299 1834.63 1299 1825 1289.37 1825 1277.5Z" fill="#EE7F1B" fill-rule="evenodd"/><path d="M1846.83 1290.67C1836.25 1290.67 1827.65 1283.62 1825.66 1274 1825 1275.28 1825 1276.56 1825 1278.49 1825 1290.03 1834.92 1299 1846.83 1299 1858.74 1299 1868 1290.03 1868 1278.49 1868 1276.56 1868 1275.28 1868 1274 1866.02 1283.62 1856.75 1290.67 1846.83 1290.67Z" fill="#E85A20" fill-rule="evenodd"/><path d="M1867.34 1277.18C1867.34 1277.18 1867.34 1277.18 1867.34 1277.18 1867.34 1282.96 1864.72 1288.09 1861.43 1291.94 1857.49 1295.79 1852.24 1298.36 1846.33 1298.36 1840.42 1298.36 1835.16 1295.79 1831.22 1291.94 1827.28 1288.09 1824.66 1282.96 1824.66 1277.18 1824.66 1271.4 1827.28 1266.27 1831.22 1262.42 1835.16 1259.21 1840.42 1256.64 1846.33 1256.64 1852.24 1256.64 1857.49 1259.21 1861.43 1262.42 1864.72 1266.27 1867.34 1271.4 1867.34 1277.18 1867.34 1277.18 1867.34 1277.18 1867.34 1277.18 1868 1277.18 1868 1277.18 1868 1277.18 1868 1265.63 1858.15 1256 1846.33 1256 1833.85 1256 1824 1265.63 1824 1277.18 1824 1289.37 1833.85 1299 1846.33 1299 1858.15 1299 1868 1289.37 1868 1277.18L1867.34 1277.18Z" fill="#343434" fill-rule="evenodd"/><path d="M1864.06 1273.2C1862.12 1279.05 1854.35 1281 1845.94 1278.4 1838.18 1275.8 1833 1268.65 1834.94 1262.8 1836.88 1257.6 1844.65 1255 1853.06 1257.6 1860.82 1260.85 1866 1267.35 1864.06 1273.2Z" fill="#F39618" fill-rule="evenodd"/><path d="M1855 1278C1855 1275.79 1856.79 1274 1859 1274 1861.21 1274 1863 1275.79 1863 1278 1863 1280.21 1861.21 1282 1859 1282 1856.79 1282 1855 1280.21 1855 1278Z" fill="#F4A613" fill-rule="evenodd"/><path d="M1855 1269.5C1855 1268.12 1856.12 1267 1857.5 1267 1858.88 1267 1860 1268.12 1860 1269.5 1860 1270.88 1858.88 1272 1857.5 1272 1856.12 1272 1855 1270.88 1855 1269.5Z" fill="#F4A613" fill-rule="evenodd"/><path d="M1860 1276.5C1860 1275.12 1860.9 1274 1862 1274 1863.1 1274 1864 1275.12 1864 1276.5 1864 1277.88 1863.1 1279 1862 1279 1860.9 1279 1860 1277.88 1860 1276.5Z" fill="#FFFFFF" fill-rule="evenodd"/><path d="M1859 1271C1859 1270.45 1859.45 1270 1860 1270 1860.55 1270 1861 1270.45 1861 1271 1861 1271.55 1860.55 1272 1860 1272 1859.45 1272 1859 1271.55 1859 1271Z" fill="#FFFFFF" fill-rule="evenodd"/><path d="M1833 1253.5C1833 1241.63 1842.4 1232 1854 1232 1865.6 1232 1875 1241.63 1875 1253.5 1875 1265.37 1865.6 1275 1854 1275 1842.4 1275 1833 1265.37 1833 1253.5Z" fill="#EE7F1B" fill-rule="evenodd"/><path d="M1853.68 1265.9C1843.98 1265.9 1834.94 1258.75 1833 1249 1833 1250.3 1833 1252.25 1833 1253.55 1833 1265.25 1842.05 1275 1853.68 1275 1865.31 1275 1875 1265.25 1875 1253.55 1875 1252.25 1875 1250.3 1874.35 1249 1872.42 1258.75 1864.02 1265.9 1853.68 1265.9Z" fill="#E85A20" fill-rule="evenodd"/><path d="M1875.34 1253.82C1875.34 1253.82 1875.34 1253.82 1875.34 1253.82 1875.34 1259.6 1872.72 1264.73 1868.78 1267.94 1864.84 1271.79 1859.58 1274.36 1853.67 1274.36 1847.76 1274.36 1842.51 1271.79 1839.22 1267.94 1835.28 1264.73 1832.66 1259.6 1832.66 1253.82 1832.66 1248.04 1835.28 1242.91 1839.22 1239.06 1842.51 1235.21 1847.76 1232.64 1853.67 1232.64 1859.58 1232.64 1864.84 1235.21 1868.78 1239.06 1872.72 1242.91 1875.34 1248.04 1875.34 1253.82 1875.34 1253.82 1875.34 1253.82 1875.34 1253.82 1876 1253.82 1876 1253.82 1876 1253.82 1876 1241.63 1866.15 1232 1853.67 1232 1841.85 1232 1832 1241.63 1832 1253.82 1832 1265.37 1841.85 1275 1853.67 1275 1866.15 1275 1876 1265.37 1876 1253.82L1875.34 1253.82Z" fill="#343434" fill-rule="evenodd"/><path d="M1872.06 1249.55C1870.12 1255.4 1861.71 1258 1853.94 1254.75 1845.53 1252.15 1841 1245.65 1842.94 1239.8 1844.24 1233.95 1852.65 1232 1861.06 1234.6 1868.82 1237.2 1874 1244.35 1872.06 1249.55Z" fill="#F39618" fill-rule="evenodd"/><path d="M1863 1254C1863 1251.79 1864.57 1250 1866.5 1250 1868.43 1250 1870 1251.79 1870 1254 1870 1256.21 1868.43 1258 1866.5 1258 1864.57 1258 1863 1256.21 1863 1254Z" fill="#F4A613" fill-rule="evenodd"/><path d="M1863 1245.5C1863 1244.12 1864.12 1243 1865.5 1243 1866.88 1243 1868 1244.12 1868 1245.5 1868 1246.88 1866.88 1248 1865.5 1248 1864.12 1248 1863 1246.88 1863 1245.5Z" fill="#F4A613" fill-rule="evenodd"/><path d="M1867 1253C1867 1251.9 1867.9 1251 1869 1251 1870.1 1251 1871 1251.9 1871 1253 1871 1254.1 1870.1 1255 1869 1255 1867.9 1255 1867 1254.1 1867 1253Z" fill="#FFFFFF" fill-rule="evenodd"/><path d="M1866 1247C1866 1246.45 1866.45 1246 1867 1246 1867.55 1246 1868 1246.45 1868 1247 1868 1247.55 1867.55 1248 1867 1248 1866.45 1248 1866 1247.55 1866 1247Z" fill="#FFFFFF" fill-rule="evenodd"/><path d="M1804 1160C1804 1148.4 1813.4 1139 1825 1139 1836.6 1139 1846 1148.4 1846 1160 1846 1171.6 1836.6 1181 1825 1181 1813.4 1181 1804 1171.6 1804 1160Z" fill="#EE7F1B" fill-rule="evenodd"/><path d="M1824.68 1172.9C1814.98 1172.9 1806.58 1165.75 1804 1156 1804 1157.3 1804 1159.25 1804 1160.55 1804 1172.25 1813.05 1182 1824.68 1182 1836.95 1182 1846 1172.25 1846 1160.55 1846 1159.25 1846 1157.3 1845.35 1156 1843.42 1165.75 1835.02 1172.9 1824.68 1172.9Z" fill="#E85A20" fill-rule="evenodd"/><path d="M1846.34 1160.33C1846.34 1160.33 1846.34 1160.33 1846.34 1160.33 1846.34 1165.58 1843.72 1171.49 1839.78 1174.78 1835.84 1178.72 1830.58 1181.34 1824.67 1181.34 1818.76 1181.34 1813.51 1178.72 1810.22 1174.78 1806.28 1171.49 1803.66 1165.58 1803.66 1160.33 1803.66 1154.42 1806.28 1149.16 1810.22 1145.22 1813.51 1141.28 1818.76 1138.66 1824.67 1138.66 1830.58 1138.66 1835.84 1141.28 1839.78 1145.22 1843.72 1149.16 1846.34 1154.42 1846.34 1160.33 1846.34 1160.33 1846.34 1160.33 1846.34 1160.33 1847 1160.33 1847 1160.33 1847 1160.33 1847 1147.85 1837.15 1138 1824.67 1138 1812.85 1138 1803 1147.85 1803 1160.33 1803 1172.15 1812.85 1182 1824.67 1182 1837.15 1182 1847 1172.15 1847 1160.33L1846.34 1160.33Z" fill="#343434" fill-rule="evenodd"/><path d="M1843 1155.44C1841 1161.37 1832.33 1164 1824.33 1160.71 1815.67 1158.07 1811 1150.83 1813 1145.56 1815 1139.63 1823 1137 1831.67 1140.29 1839.67 1142.93 1845 1149.51 1843 1155.44Z" fill="#F39618" fill-rule="evenodd"/><path d="M1833 1160C1833 1157.79 1834.79 1156 1837 1156 1839.21 1156 1841 1157.79 1841 1160 1841 1162.21 1839.21 1164 1837 1164 1834.79 1164 1833 1162.21 1833 1160Z" fill="#F4A613" fill-rule="evenodd"/><path d="M1833 1151.5C1833 1150.12 1834.12 1149 1835.5 1149 1836.88 1149 1838 1150.12 1838 1151.5 1838 1152.88 1836.88 1154 1835.5 1154 1834.12 1154 1833 1152.88 1833 1151.5Z" fill="#F4A613" fill-rule="evenodd"/><path d="M1837 1159C1837 1157.9 1838.12 1157 1839.5 1157 1840.88 1157 1842 1157.9 1842 1159 1842 1160.1 1840.88 1161 1839.5 1161 1838.12 1161 1837 1160.1 1837 1159Z" fill="#FFFFFF" fill-rule="evenodd"/><path d="M1837 1154C1837 1153.45 1837.22 1153 1837.5 1153 1837.78 1153 1838 1153.45 1838 1154 1838 1154.55 1837.78 1155 1837.5 1155 1837.22 1155 1837 1154.55 1837 1154Z" fill="#FFFFFF" fill-rule="evenodd"/><path d="M1766 1254.5C1766 1242.63 1775.63 1233 1787.5 1233 1799.37 1233 1809 1242.63 1809 1254.5 1809 1266.37 1799.37 1276 1787.5 1276 1775.63 1276 1766 1266.37 1766 1254.5Z" fill="#EE7F1B" fill-rule="evenodd"/><path d="M1787.5 1267.67C1777.08 1267.67 1768.61 1260.62 1766.65 1251 1766 1252.28 1766 1253.56 1766 1255.49 1766 1267.03 1775.77 1276 1787.5 1276 1799.23 1276 1809 1267.03 1809 1255.49 1809 1253.56 1809 1252.28 1808.35 1251 1806.39 1260.62 1797.92 1267.67 1787.5 1267.67Z" fill="#E85A20" fill-rule="evenodd"/><path d="M1809 1254.18C1808.35 1254.18 1808.35 1254.18 1808.35 1254.18 1808.35 1259.96 1806.39 1265.09 1802.48 1268.94 1798.58 1272.79 1793.36 1275.36 1787.5 1275.36 1781.64 1275.36 1776.42 1272.79 1772.52 1268.94 1768.61 1265.09 1766.65 1259.96 1766.65 1254.18 1766.65 1248.4 1768.61 1243.27 1772.52 1239.42 1776.42 1236.21 1781.64 1233.64 1787.5 1233.64 1793.36 1233.64 1798.58 1236.21 1802.48 1239.42 1806.39 1243.27 1808.35 1248.4 1808.35 1254.18 1809 1254.18 1809 1254.18 1809 1254.18 1809 1254.18 1809 1254.18 1809 1254.18 1809 1242.63 1799.23 1233 1787.5 1233 1775.77 1233 1766 1242.63 1766 1254.18 1766 1266.37 1775.77 1276 1787.5 1276 1799.23 1276 1809 1266.37 1809 1254.18Z" fill="#343434" fill-rule="evenodd"/><path d="M1805 1250.2C1803 1256.05 1795 1258 1786.33 1255.4 1778.33 1252.8 1773 1245.65 1775 1240.45 1777 1234.6 1785.67 1232 1793.67 1234.6 1802.33 1237.85 1807 1244.35 1805 1250.2Z" fill="#F39618" fill-rule="evenodd"/><path d="M1796 1255C1796 1252.79 1797.79 1251 1800 1251 1802.21 1251 1804 1252.79 1804 1255 1804 1257.21 1802.21 1259 1800 1259 1797.79 1259 1796 1257.21 1796 1255Z" fill="#F4A613" fill-rule="evenodd"/><path d="M1796 1246.5C1796 1245.12 1797.12 1244 1798.5 1244 1799.88 1244 1801 1245.12 1801 1246.5 1801 1247.88 1799.88 1249 1798.5 1249 1797.12 1249 1796 1247.88 1796 1246.5Z" fill="#F4A613" fill-rule="evenodd"/><path d="M1800 1253.5C1800 1252.12 1800.9 1251 1802 1251 1803.1 1251 1804 1252.12 1804 1253.5 1804 1254.88 1803.1 1256 1802 1256 1800.9 1256 1800 1254.88 1800 1253.5Z" fill="#FFFFFF" fill-rule="evenodd"/><path d="M1800 1248C1800 1247.45 1800.22 1247 1800.5 1247 1800.78 1247 1801 1247.45 1801 1248 1801 1248.55 1800.78 1249 1800.5 1249 1800.22 1249 1800 1248.55 1800 1248Z" fill="#FFFFFF" fill-rule="evenodd"/><path d="M1741 1206C1741 1193.85 1750.63 1184 1762.5 1184 1774.37 1184 1784 1193.85 1784 1206 1784 1218.15 1774.37 1228 1762.5 1228 1750.63 1228 1741 1218.15 1741 1206Z" fill="#EE7F1B" fill-rule="evenodd"/><path d="M1762.5 1219.33C1752.08 1219.33 1743.61 1212 1741.65 1202 1741 1203.33 1741 1204.67 1741 1206.67 1741 1218.67 1750.77 1228 1762.5 1228 1774.23 1228 1784 1218.67 1784 1206.67 1784 1204.67 1783.35 1203.33 1783.35 1202 1781.39 1212 1772.27 1219.33 1762.5 1219.33Z" fill="#E85A20" fill-rule="evenodd"/><path d="M1784 1205.67C1783.34 1205.67 1783.34 1205.67 1783.34 1205.67 1783.34 1211.58 1780.72 1216.84 1777.43 1220.78 1773.49 1224.72 1768.24 1227.34 1762.33 1227.34 1756.42 1227.34 1751.16 1224.72 1747.22 1220.78 1743.28 1216.84 1740.66 1211.58 1740.66 1205.67 1740.66 1199.76 1743.28 1194.51 1747.22 1190.57 1751.16 1187.28 1756.42 1184.66 1762.33 1184.66 1768.24 1184.66 1773.49 1187.28 1777.43 1190.57 1780.72 1194.51 1783.34 1199.76 1783.34 1205.67 1784 1205.67 1784 1205.67 1784 1205.67 1784 1205.67 1784 1205.67 1784 1205.67 1784 1193.85 1774.15 1184 1762.33 1184 1749.85 1184 1740 1193.85 1740 1205.67 1740 1218.15 1749.85 1228 1762.33 1228 1774.15 1228 1784 1218.15 1784 1205.67Z" fill="#343434" fill-rule="evenodd"/><path d="M1780.06 1202.2C1778.12 1208.05 1770.35 1210 1761.94 1207.4 1754.18 1204.8 1749 1197.65 1750.94 1191.8 1752.88 1186.6 1760.65 1184 1769.06 1186.6 1776.82 1189.85 1782 1196.35 1780.06 1202.2Z" fill="#F39618" fill-rule="evenodd"/><path d="M1771 1207C1771 1204.79 1772.57 1203 1774.5 1203 1776.43 1203 1778 1204.79 1778 1207 1778 1209.21 1776.43 1211 1774.5 1211 1772.57 1211 1771 1209.21 1771 1207Z" fill="#F4A613" fill-rule="evenodd"/><path d="M1771 1198.5C1771 1197.12 1772.12 1196 1773.5 1196 1774.88 1196 1776 1197.12 1776 1198.5 1776 1199.88 1774.88 1201 1773.5 1201 1772.12 1201 1771 1199.88 1771 1198.5Z" fill="#F4A613" fill-rule="evenodd"/><path d="M1775 1205C1775 1203.9 1775.9 1203 1777 1203 1778.1 1203 1779 1203.9 1779 1205 1779 1206.1 1778.1 1207 1777 1207 1775.9 1207 1775 1206.1 1775 1205Z" fill="#FFFFFF" fill-rule="evenodd"/><path d="M1774 1200C1774 1199.45 1774.67 1199 1775.5 1199 1776.33 1199 1777 1199.45 1777 1200 1777 1200.55 1776.33 1201 1775.5 1201 1774.67 1201 1774 1200.55 1774 1200Z" fill="#FFFFFF" fill-rule="evenodd"/><path d="M1873 1171.5C1873 1159.63 1882.63 1150 1894.5 1150 1906.37 1150 1916 1159.63 1916 1171.5 1916 1183.37 1906.37 1193 1894.5 1193 1882.63 1193 1873 1183.37 1873 1171.5Z" fill="#EE7F1B" fill-rule="evenodd"/><path d="M1894.5 1183.9C1884.08 1183.9 1875.61 1176.75 1873.65 1167 1873 1168.95 1873 1170.25 1873 1171.55 1873 1183.25 1882.77 1193 1894.5 1193 1906.23 1193 1916 1183.25 1916 1171.55 1916 1170.25 1915.35 1168.95 1915.35 1167 1913.39 1176.75 1904.92 1183.9 1894.5 1183.9Z" fill="#E85A20" fill-rule="evenodd"/><path d="M1916 1171.5C1915.35 1171.5 1915.35 1171.5 1915.35 1171.5 1915.35 1177.36 1913.39 1182.58 1909.48 1186.48 1905.58 1190.39 1900.36 1192.35 1894.5 1192.35 1888.64 1192.35 1883.42 1190.39 1879.52 1186.48 1875.61 1182.58 1873.65 1177.36 1873.65 1171.5 1873.65 1165.64 1875.61 1160.42 1879.52 1156.52 1883.42 1152.61 1888.64 1150.65 1894.5 1150.65 1900.36 1150.65 1905.58 1152.61 1909.48 1156.52 1913.39 1160.42 1915.35 1165.64 1915.35 1171.5 1916 1171.5 1916 1171.5 1916 1171.5 1916 1171.5 1916 1171.5 1916 1171.5 1916 1159.77 1906.23 1150 1894.5 1150 1882.77 1150 1873 1159.77 1873 1171.5 1873 1183.23 1882.77 1193 1894.5 1193 1906.23 1193 1916 1183.23 1916 1171.5Z" fill="#343434" fill-rule="evenodd"/><path d="M1912 1167.2C1910 1172.4 1902 1175 1893.33 1172.4 1885.33 1169.15 1880 1162.65 1882 1156.8 1884 1150.95 1892.67 1149 1900.67 1151.6 1909.33 1154.2 1914 1161.35 1912 1167.2Z" fill="#F39618" fill-rule="evenodd"/><path d="M1903 1172C1903 1169.79 1904.79 1168 1907 1168 1909.21 1168 1911 1169.79 1911 1172 1911 1174.21 1909.21 1176 1907 1176 1904.79 1176 1903 1174.21 1903 1172Z" fill="#F4A613" fill-rule="evenodd"/><path d="M1903 1163C1903 1161.34 1904.12 1160 1905.5 1160 1906.88 1160 1908 1161.34 1908 1163 1908 1164.66 1906.88 1166 1905.5 1166 1904.12 1166 1903 1164.66 1903 1163Z" fill="#F4A613" fill-rule="evenodd"/><path d="M1907 1170.5C1907 1169.12 1907.9 1168 1909 1168 1910.1 1168 1911 1169.12 1911 1170.5 1911 1171.88 1910.1 1173 1909 1173 1907.9 1173 1907 1171.88 1907 1170.5Z" fill="#FFFFFF" fill-rule="evenodd"/><path d="M1906 1165C1906 1164.45 1906.67 1164 1907.5 1164 1908.33 1164 1909 1164.45 1909 1165 1909 1165.55 1908.33 1166 1907.5 1166 1906.67 1166 1906 1165.55 1906 1165Z" fill="#FFFFFF" fill-rule="evenodd"/><path d="M1888 1233C1888 1220.85 1897.4 1211 1909 1211 1920.6 1211 1930 1220.85 1930 1233 1930 1245.15 1920.6 1255 1909 1255 1897.4 1255 1888 1245.15 1888 1233Z" fill="#EE7F1B" fill-rule="evenodd"/><path d="M1908.68 1245.55C1898.98 1245.55 1889.94 1238.12 1888 1228 1888 1230.02 1888 1231.37 1888 1232.72 1888 1244.88 1897.05 1255 1908.68 1255 1920.31 1255 1930 1244.88 1930 1232.72 1930 1231.37 1930 1230.02 1929.35 1228 1927.42 1238.12 1919.02 1245.55 1908.68 1245.55Z" fill="#E85A20" fill-rule="evenodd"/><path d="M1930.34 1233C1930.34 1233 1930.34 1233 1930.34 1233 1930.34 1239 1927.72 1244.33 1923.78 1248.33 1919.84 1252.33 1914.58 1254.33 1908.67 1254.33 1902.76 1254.33 1897.51 1252.33 1894.22 1248.33 1890.28 1244.33 1887.66 1239 1887.66 1233 1887.66 1227 1890.28 1221.67 1894.22 1217.67 1897.51 1213.67 1902.76 1211.67 1908.67 1211.67 1914.58 1211.67 1919.84 1213.67 1923.78 1217.67 1927.72 1221.67 1930.34 1227 1930.34 1233 1930.34 1233 1930.34 1233 1930.34 1233 1931 1233 1931 1233 1931 1233 1931 1221 1921.15 1211 1908.67 1211 1896.85 1211 1887 1221 1887 1233 1887 1245 1896.85 1255 1908.67 1255 1921.15 1255 1931 1245 1931 1233L1930.34 1233Z" fill="#343434" fill-rule="evenodd"/><path d="M1927.06 1229.2C1925.12 1234.4 1916.71 1237 1908.94 1234.4 1900.53 1231.15 1896 1224.65 1897.94 1218.8 1899.88 1213.6 1907.65 1211 1916.06 1213.6 1923.82 1216.2 1929 1223.35 1927.06 1229.2Z" fill="#F39618" fill-rule="evenodd"/><path d="M1917 1233.5C1917 1231.01 1918.79 1229 1921 1229 1923.21 1229 1925 1231.01 1925 1233.5 1925 1235.99 1923.21 1238 1921 1238 1918.79 1238 1917 1235.99 1917 1233.5Z" fill="#F4A613" fill-rule="evenodd"/><path d="M1918 1225C1918 1223.34 1919.12 1222 1920.5 1222 1921.88 1222 1923 1223.34 1923 1225 1923 1226.66 1921.88 1228 1920.5 1228 1919.12 1228 1918 1226.66 1918 1225Z" fill="#F4A613" fill-rule="evenodd"/><path d="M1922 1231.5C1922 1230.12 1922.9 1229 1924 1229 1925.1 1229 1926 1230.12 1926 1231.5 1926 1232.88 1925.1 1234 1924 1234 1922.9 1234 1922 1232.88 1922 1231.5Z" fill="#FFFFFF" fill-rule="evenodd"/><path d="M1921 1226.5C1921 1225.67 1921.45 1225 1922 1225 1922.55 1225 1923 1225.67 1923 1226.5 1923 1227.33 1922.55 1228 1922 1228 1921.45 1228 1921 1227.33 1921 1226.5Z" fill="#FFFFFF" fill-rule="evenodd"/><path d="M1291.8 1111C1289.2 1111 1286.6 1111 1284 1111 1362 1115.58 1423.75 1180.42 1423.75 1259.67 1423.75 1339.58 1362 1404.42 1284 1408.35 1286.6 1408.35 1289.2 1409 1291.8 1409 1373.7 1409 1440 1342.2 1440 1259.67 1440 1177.8 1373.7 1111 1291.8 1111Z" fill="#F4AFB7" fill-rule="evenodd"/><path d="M1206.3 1113.08C1206.95 1114.39 1206.95 1114.39 1206.95 1114.39 1230.47 1096.73 1263.79 1084.31 1303.64 1084.31 1316.05 1084.31 1328.47 1085.61 1341.53 1088.23 1380.73 1095.42 1412.74 1117.66 1435.61 1149.05 1458.47 1179.79 1470.89 1219.68 1470.89 1262.19 1470.89 1347.86 1410.78 1419.79 1331.73 1435.49 1321.93 1437.45 1312.13 1438.1 1302.33 1438.1 1246.8 1438.1 1191.93 1409.33 1164.49 1377.94 1142.93 1352.43 1131.82 1327.58 1122.68 1307.96 1118.76 1298.15 1114.84 1289.65 1110.92 1283.77 1106.34 1277.23 1101.77 1273.3 1095.89 1272 1094.59 1272 1093.93 1271.34 1092.63 1271.34 1084.13 1271.34 1075.64 1277.88 1069.11 1287.69 1062.57 1298.15 1058 1313.2 1058 1330.85 1058 1336.08 1058 1340.66 1058.65 1345.89 1062.57 1374.67 1079.56 1409.33 1110.26 1441.37 1140.32 1473.42 1184.09 1502.85 1240.27 1519.85 1302.99 1539.47 1357.87 1542.08 1397.06 1559.74 1446.71 1582.63 1472.85 1621.87 1485.91 1655.22 1492.45 1672.22 1496.37 1687.26 1498.33 1698.38 1498.98 1704.27 1499.63 1708.84 1499.63 1712.11 1500.29 1713.42 1500.29 1714.73 1500.29 1715.38 1500.29 1716.04 1500.29 1716.69 1500.29 1716.69 1500.29 1718 1500.29 1718 1500.29 1718 2166 1718 2166 1718 2166 1718 2166 877 2166 877 2166 877 1519.23 877 1519.23 877 1519.23 877 1519.88 878.308 1519.88 878.308 1519.88 878.308 1519.88 878.308 1519.88 878.962 1519.88 878.962 1521.19 882.232 1524.46 894.657 1524.46 909.698 1524.46 922.124 1522.5 935.857 1514 948.282 1506.17 960.708 1492.45 971.171 1469.58 977.711 1452.59 982.288 1422.54 982.288 1385.96 983.596 1349.37 984.904 1305.6 988.174 1261.18 999.292 1246.15 1003.22 1221.98 1014.99 1196.5 1031.34 1170.37 1047.03 1144.24 1066.65 1125.29 1086.27 1114.18 1098.04 1104.38 1112.43 1097.2 1128.12 1090.01 1143.16 1085.44 1158.86 1085.44 1171.28 1085.44 1179.79 1086.75 1186.98 1091.32 1192.21 1095.24 1197.44 1101.77 1201.37 1110.92 1202.02 1111.57 1202.02 1112.22 1202.02 1112.88 1202.02 1118.76 1202.02 1125.29 1198.75 1131.17 1192.87 1140.97 1185.02 1150.77 1171.94 1163.18 1158.21 1174.94 1143.82 1189.31 1128.12 1206.95 1114.39 1206.3 1113.08 1206.3 1113.08 1206.3 1113.08 1205.65 1112.43 1205.65 1112.43 1205.65 1112.43 1181.47 1130.74 1163.83 1152.97 1149.46 1169.98 1142.28 1178.48 1135.74 1186.33 1129.86 1191.56 1123.98 1196.79 1118.1 1199.41 1112.88 1199.41 1112.22 1199.41 1111.57 1199.41 1110.92 1199.41 1102.42 1198.75 1096.54 1195.48 1093.28 1190.9 1089.36 1185.67 1087.4 1179.13 1087.4 1171.28 1087.4 1158.86 1091.97 1143.82 1099.16 1128.78 1106.34 1113.74 1116.14 1099.35 1127.25 1088.23 1145.54 1068.61 1172.33 1048.99 1197.81 1033.3 1223.29 1017.6 1247.46 1005.18 1261.83 1001.91 1306.25 990.79 1349.37 987.52 1385.96 986.212 1422.54 984.25 1452.59 984.904 1470.23 979.673 1493.75 973.787 1508.13 962.015 1516.62 949.59 1524.46 936.511 1527.07 922.124 1527.07 909.698 1527.07 892.041 1521.84 877.654 1521.84 877.654 1521.19 878.308 1521.19 878.308 1521.19 878.308 1521.19 879.616 1521.19 879.616 1521.19 879.616 2163.39 879.616 2163.39 879.616 2163.39 879.616 2163.39 1715.38 2163.39 1715.38 2163.39 1715.38 1501.59 1715.38 1501.59 1715.38 1501.59 1715.38 1501.59 1716.69 1501.59 1716.69 1501.59 1716.69 1502.9 1716.69 1502.9 1716.69 1502.9 1716.69 1502.9 1716.69 1501.59 1688.57 1488.53 1654.57 1474.81 1620.56 1448.67 1580.67 1398.37 1557.78 1358.52 1539.47 1303.64 1536.85 1240.92 1517.89 1185.39 1500.23 1142.28 1471.45 1112.22 1439.41 1082.17 1408.02 1065.19 1373.36 1061.27 1345.89 1060.61 1340.66 1059.96 1335.43 1059.96 1330.85 1059.96 1313.85 1064.53 1299.46 1071.07 1289 1077.6 1279.19 1085.44 1273.96 1092.63 1273.96 1093.28 1273.96 1094.59 1273.96 1095.24 1274.61 1100.46 1275.27 1105.04 1279.19 1108.96 1285.07 1114.84 1294.23 1120.06 1307.96 1127.9 1324.97 1135.74 1341.32 1146.2 1360.28 1162.53 1379.25 1190.62 1411.94 1246.15 1440.72 1302.33 1440.72 1312.13 1440.72 1321.93 1440.06 1331.73 1438.1 1412.09 1422.41 1473.5 1349.16 1473.5 1262.19 1473.5 1219.02 1460.43 1179.13 1437.57 1147.09 1414.7 1115.7 1382.04 1093.46 1342.19 1085.61 1329.12 1083 1316.05 1081.69 1303.64 1081.69 1263.79 1081.69 1229.17 1094.12 1205.65 1112.43 1206.3 1113.08 1206.3 1113.08 1206.3 1113.08" fill="#343434" fill-rule="evenodd"/><path d="M1334 1435.5C1334 1431.91 1336.91 1429 1340.5 1429 1344.09 1429 1347 1431.91 1347 1435.5 1347 1439.09 1344.09 1442 1340.5 1442 1336.91 1442 1334 1439.09 1334 1435.5Z" fill="#FFFFFF" fill-rule="evenodd"/><path d="M1354 1429C1354 1426.79 1356.01 1425 1358.5 1425 1360.99 1425 1363 1426.79 1363 1429 1363 1431.21 1360.99 1433 1358.5 1433 1356.01 1433 1354 1431.21 1354 1429Z" fill="#FFFFFF" fill-rule="evenodd"/><path d="M1318 1437.5C1318 1435.01 1319.79 1433 1322 1433 1324.21 1433 1326 1435.01 1326 1437.5 1326 1439.99 1324.21 1442 1322 1442 1319.79 1442 1318 1439.99 1318 1437.5Z" fill="#FFFFFF" fill-rule="evenodd"/><path d="M1069.94 1149C1069.94 1149 1064 1197.56 1095 1215.28 1126 1233 1137.87 1202.81 1157 1185.75 1157 1185.75 1135.23 1203.47 1128.64 1210.69 1121.38 1217.25 1073.89 1230.38 1069.94 1149" fill="#FFFFFF" fill-rule="evenodd"/><path d="M1052 1285.74C1052 1285.74 1071.02 1248 1090.03 1251.31 1118.89 1255.95 1124.13 1287.07 1132 1297 1132 1297 1122.82 1289.05 1118.23 1278.46 1112.98 1267.86 1102.49 1253.3 1088.07 1255.28 1072.98 1257.27 1052 1285.74 1052 1285.74" fill="#FFFFFF" fill-rule="evenodd"/><path d="M1118 1102C1118 1102 1081 1149.71 1093.76 1185 1093.76 1185 1086.1 1150.36 1118 1102" fill="#B3B8DA" fill-rule="evenodd"/><path d="M1084 1279C1084 1279 1046 1309.15 1072.21 1376 1072.21 1376 1051.24 1316.36 1084 1279" fill="#B3B8DA" fill-rule="evenodd"/></g></svg>