<svg width="361" height="360" xmlns="http://www.w3.org/2000/svg" xmlns:xlink="http://www.w3.org/1999/xlink" xml:space="preserve" overflow="hidden"><g transform="translate(-3049 -1172)"><path d="M3347.77 1465.08C3367.62 1446.46 3381.36 1426.39 3389 1403.47 3353.88 1403.47 3326.39 1377.67 3326.39 1344.72 3326.39 1310.33 3353.88 1284.53 3389 1284.53 3381.36 1261.61 3367.62 1241.54 3347.77 1222.92 3277.53 1157 3163 1157 3091.23 1222.92 3072.91 1241.54 3059.16 1261.61 3050 1284.53 3085.12 1284.53 3112.61 1311.76 3112.61 1344.72 3112.61 1376.24 3085.12 1403.47 3050 1403.47 3059.16 1426.39 3072.91 1446.46 3091.23 1465.08 3163 1531 3277.53 1531 3347.77 1465.08Z" fill="#28A063" fill-rule="evenodd"/><path d="M3062 1405C3095.85 1400.69 3122 1376.29 3122 1343.28 3122 1311.71 3095.85 1287.31 3062 1283" stroke="#FFFFFF" stroke-width="5.72917" stroke-miterlimit="8" fill="none" fill-rule="evenodd"/><path d="M3346.5 1460.92C3312.91 1493.68 3264.04 1506.5 3219.76 1506.5 3173.95 1506.5 3125.09 1490.83 3091.5 1459.5" stroke="#FFFFFF" stroke-width="4.58333" stroke-miterlimit="8" fill="none" fill-rule="evenodd"/><path d="M3376.5 1286.5C3343.9 1292.23 3317.5 1312.28 3317.5 1343.78 3317.5 1375.29 3342.34 1396.77 3374.95 1402.5" stroke="#FFFFFF" stroke-width="4.58333" stroke-miterlimit="8" fill="none" fill-rule="evenodd"/><path d="M3389 1403.47C3353.88 1403.47 3326.39 1377.67 3326.39 1344.72 3326.39 1310.33 3353.88 1284.53 3389 1284.53 3381.36 1261.61 3367.62 1241.54 3347.77 1222.92 3277.53 1157 3163 1157 3091.23 1222.92 3072.91 1241.54 3059.16 1261.61 3050 1284.53 3085.12 1284.53 3112.61 1311.76 3112.61 1344.72 3112.61 1376.24 3085.12 1403.47 3050 1403.47 3059.16 1426.39 3072.91 1446.46 3091.23 1465.08 3163 1531 3277.53 1531 3347.77 1465.08 3367.62 1446.46 3381.36 1426.39 3389 1403.47ZM3095.81 1460.79C3080.54 1445.02 3066.8 1427.83 3059.16 1409.2 3092.76 1404.9 3118.72 1376.24 3118.72 1344.72 3118.72 1311.76 3092.76 1283.1 3059.16 1278.8 3068.32 1260.17 3080.54 1242.98 3095.81 1227.21 3129.41 1195.69 3175.22 1179.93 3219.5 1179.93 3265.31 1179.93 3309.59 1195.69 3343.19 1227.21 3359.99 1242.98 3372.2 1260.17 3381.36 1278.8 3346.24 1283.1 3320.28 1310.33 3320.28 1344.72 3320.28 1377.67 3346.24 1404.9 3381.36 1409.2 3372.2 1427.83 3359.99 1445.02 3343.19 1460.79 3311.12 1492.31 3266.84 1508.07 3219.5 1508.07 3173.69 1508.07 3129.41 1492.31 3095.81 1460.79Z" fill="#0A8450" fill-rule="evenodd"/><path d="M3213.65 1198.57C3316.08 1201.41 3343.6 1242.59 3365 1271 3357.36 1258.22 3348.18 1245.43 3335.95 1235.49 3270.22 1173 3164.74 1177.26 3099 1238.33 3099 1238.33 3132.63 1201.41 3213.65 1198.57Z" fill="#ABDEBA" fill-rule="evenodd"/><path d="M3366.76 1480.22C3385.09 1463.06 3398.84 1441.61 3408 1420.16 3389.67 1403 3389.67 1403 3389.67 1403 3382.03 1425.88 3368.29 1445.9 3348.43 1464.49 3281.23 1527.41 3172.79 1530.27 3101 1471.64 3104.05 1474.5 3107.11 1477.36 3108.64 1480.22 3180.42 1546 3294.97 1546 3366.76 1480.22Z" fill="#7DCA92" fill-rule="evenodd"/><path d="M3050 1284C3066.82 1299.89 3066.82 1299.89 3066.82 1299.89 3080.59 1299.89 3092.82 1304.22 3102 1310 3091.29 1294.11 3071.41 1284 3050 1284Z" fill="#016E45" fill-rule="evenodd"/><path d="M3390.83 1411C3403 1422.45 3403 1422.45 3403 1422.45 3403 1422.45 3386.26 1459.68 3368 1474 3377.13 1463.98 3401.48 1428.18 3390.83 1411Z" fill="#D0EDD2" fill-rule="evenodd"/><path d="M3389.43 1284.04C3353.85 1284.04 3326 1309.85 3326 1342.82 3326 1364.33 3336.83 1382.96 3353.85 1393 3347.66 1384.4 3343.02 1372.93 3343.02 1360.03 3343.02 1327.05 3372.42 1299.81 3408 1299.81 3398.72 1278.31 3384.79 1256.81 3366.23 1239.6 3363.13 1236.73 3360.04 1233.87 3356.94 1231 3370.87 1246.77 3383.25 1265.41 3389.43 1284.04Z" fill="#016E45" fill-rule="evenodd"/><path d="M3366.27 1239.68C3363.18 1236.79 3360.09 1233.89 3357 1231 3370.91 1246.91 3383.27 1265.72 3389.45 1284.53 3389.45 1284.53 3389.45 1284.53 3389.45 1284.53 3408 1299 3408 1299 3408 1299 3398.73 1277.3 3384.82 1257.04 3366.27 1239.68Z" fill="#7DCA92" fill-rule="evenodd"/><path d="M3348.27 1465.58C3368.12 1446.96 3381.86 1426.89 3389.5 1403.97 3354.38 1403.97 3326.89 1378.17 3326.89 1345.22 3326.89 1310.83 3354.38 1285.03 3389.5 1285.03 3381.86 1262.11 3368.12 1242.04 3348.27 1223.42 3278.03 1157.5 3163.5 1157.5 3091.73 1223.42 3073.41 1242.04 3059.66 1262.11 3050.5 1285.03 3085.62 1285.03 3113.11 1312.26 3113.11 1345.22 3113.11 1376.74 3085.62 1403.97 3050.5 1403.97 3059.66 1426.89 3073.41 1446.96 3091.73 1465.58 3163.5 1531.5 3278.03 1531.5 3348.27 1465.58Z" stroke="#333333" stroke-width="2.86476" stroke-linecap="round" stroke-linejoin="round" stroke-miterlimit="10" fill="none" fill-rule="evenodd"/><path d="M3367.26 1480.72C3385.59 1463.56 3399.34 1442.11 3408.5 1420.66 3390.17 1403.5 3390.17 1403.5 3390.17 1403.5 3382.53 1426.38 3368.79 1446.4 3348.93 1464.99 3281.73 1527.91 3173.29 1530.77 3101.5 1472.14 3104.55 1475 3107.61 1477.86 3109.14 1480.72 3180.92 1546.5 3295.48 1546.5 3367.26 1480.72Z" stroke="#333333" stroke-width="2.86476" stroke-linecap="round" stroke-linejoin="round" stroke-miterlimit="10" fill="none" fill-rule="evenodd"/><path d="M3050.5 1284.5C3067.32 1300.39 3067.32 1300.39 3067.32 1300.39 3081.09 1300.39 3093.32 1304.72 3102.5 1310.5 3091.79 1294.61 3071.91 1284.5 3050.5 1284.5Z" stroke="#333333" stroke-width="2.86476" stroke-linecap="round" stroke-linejoin="round" stroke-miterlimit="10" fill="none" fill-rule="evenodd"/><path d="M3389.93 1284.54C3354.35 1284.54 3326.5 1310.35 3326.5 1343.32 3326.5 1364.83 3337.33 1383.46 3354.35 1393.5 3348.16 1384.9 3343.52 1373.43 3343.52 1360.53 3343.52 1327.55 3372.92 1300.31 3408.5 1300.31 3399.22 1278.81 3385.29 1257.31 3366.73 1240.1 3363.63 1237.23 3360.54 1234.37 3357.44 1231.5 3371.37 1247.27 3383.75 1265.91 3389.93 1284.54Z" stroke="#333333" stroke-width="2.86476" stroke-linecap="round" stroke-linejoin="round" stroke-miterlimit="10" fill="none" fill-rule="evenodd"/><path d="M3366.77 1240.18C3363.68 1237.29 3360.59 1234.39 3357.5 1231.5 3371.41 1247.41 3383.77 1266.22 3389.95 1285.03 3389.95 1285.03 3389.95 1285.03 3389.95 1285.03 3408.5 1299.5 3408.5 1299.5 3408.5 1299.5 3399.23 1277.8 3385.32 1257.54 3366.77 1240.18Z" stroke="#333333" stroke-width="2.86476" stroke-linecap="round" stroke-linejoin="round" stroke-miterlimit="10" fill="none" fill-rule="evenodd"/><path d="M3224 1388.75C3241.54 1388.75 3255.75 1374.53 3255.75 1357 3255.75 1339.46 3241.54 1325.25 3224 1325.25L3224 1293.5C3259.07 1293.5 3287.5 1321.93 3287.5 1357 3287.5 1392.07 3259.07 1420.49 3224.01 1420.5L3224 1420.5 3224 1436.38 3192.25 1404.63 3224 1372.88 3224 1388.75Z" stroke="#7B879D" stroke-width="3.4375" stroke-miterlimit="8" fill="#FFFFFF" fill-rule="evenodd"/></g></svg>