<svg width="360" height="361" xmlns="http://www.w3.org/2000/svg" xmlns:xlink="http://www.w3.org/1999/xlink" xml:space="preserve" overflow="hidden"><g transform="translate(-3054 -1797)"><path d="M3352.77 2090.08C3372.62 2071.46 3386.36 2051.39 3394 2028.47 3358.88 2028.47 3331.39 2002.67 3331.39 1969.72 3331.39 1935.33 3358.88 1909.53 3394 1909.53 3386.36 1886.61 3372.62 1866.54 3352.77 1847.92 3282.53 1782 3168 1782 3096.23 1847.92 3077.91 1866.54 3064.16 1886.61 3055 1909.53 3090.12 1909.53 3117.61 1936.76 3117.61 1969.72 3117.61 2001.24 3090.12 2028.47 3055 2028.47 3064.16 2051.39 3077.91 2071.46 3096.23 2090.08 3168 2156 3282.53 2156 3352.77 2090.08Z" fill="#FFF200" fill-rule="evenodd"/><path d="M3067 2030C3100.28 2024.28 3126 2001.4 3126 1968.5 3126 1935.6 3100.28 1911.29 3067 1907" stroke="#FFFFFF" stroke-width="5.72917" stroke-miterlimit="8" fill="none" fill-rule="evenodd"/><path d="M3351.5 2086.92C3317.91 2119.68 3269.04 2132.5 3224.76 2132.5 3178.96 2132.5 3130.09 2116.83 3096.5 2085.5" stroke="#FFFFFF" stroke-width="4.58333" stroke-miterlimit="8" fill="none" fill-rule="evenodd"/><path d="M3380.5 1911.5C3348.45 1917.28 3322.5 1937.5 3322.5 1969.28 3322.5 2001.06 3346.92 2022.72 3378.97 2028.5" stroke="#FFFFFF" stroke-width="4.58333" stroke-miterlimit="8" fill="none" fill-rule="evenodd"/><path d="M3394 2028.47C3358.88 2028.47 3331.39 2002.67 3331.39 1969.72 3331.39 1935.33 3358.88 1909.53 3394 1909.53 3386.36 1886.61 3372.62 1866.54 3352.77 1847.92 3282.53 1782 3168 1782 3096.23 1847.92 3077.91 1866.54 3064.16 1886.61 3055 1909.53 3090.12 1909.53 3117.61 1936.76 3117.61 1969.72 3117.61 2001.24 3090.12 2028.47 3055 2028.47 3064.16 2051.39 3077.91 2071.46 3096.23 2090.08 3168 2156 3282.53 2156 3352.77 2090.08 3372.62 2071.46 3386.36 2051.39 3394 2028.47ZM3100.81 2085.79C3085.54 2070.02 3071.8 2052.83 3064.16 2034.2 3097.76 2029.9 3123.72 2001.24 3123.72 1969.72 3123.72 1936.76 3097.76 1908.1 3064.16 1903.8 3073.32 1885.17 3085.54 1867.98 3100.81 1852.21 3134.41 1820.69 3180.22 1804.93 3224.5 1804.93 3270.31 1804.93 3314.59 1820.69 3348.19 1852.21 3364.99 1867.98 3377.2 1885.17 3386.36 1903.8 3351.24 1908.1 3325.28 1935.33 3325.28 1969.72 3325.28 2002.67 3351.24 2029.9 3386.36 2034.2 3377.2 2052.83 3364.99 2070.02 3348.19 2085.79 3316.12 2117.31 3271.84 2133.07 3224.5 2133.07 3178.69 2133.07 3134.41 2117.31 3100.81 2085.79Z" fill="#FFC900" fill-rule="evenodd"/><path d="M3217.66 1823.83C3320.08 1826.7 3347.6 1868.3 3369 1897 3361.36 1884.09 3352.18 1871.17 3339.95 1861.13 3274.22 1798 3168.74 1802.3 3103 1864 3103 1864 3136.63 1826.7 3217.66 1823.83Z" fill="#FFFFFF" fill-rule="evenodd"/><path d="M3370.76 2106.02C3389.09 2088.81 3402.84 2067.29 3412 2045.78 3393.67 2030 3393.67 2030 3393.67 2030 3386.03 2051.52 3372.29 2071.6 3352.43 2090.24 3285.23 2153.35 3176.79 2156.22 3105 2097.41 3108.05 2100.28 3111.11 2103.15 3112.64 2106.02 3184.42 2172 3298.98 2172 3370.76 2106.02Z" fill="#FFFCC0" fill-rule="evenodd"/><path d="M3055 1910C3071.82 1925.89 3071.82 1925.89 3071.82 1925.89 3085.59 1925.89 3097.82 1930.22 3107 1936 3096.29 1920.11 3076.41 1910 3055 1910Z" fill="#FFB300" fill-rule="evenodd"/><path d="M3395.83 2036C3408 2047.38 3408 2047.38 3408 2047.38 3408 2047.38 3391.26 2084.36 3373 2100 3382.13 2088.62 3406.48 2053.07 3395.83 2036Z" fill="#FFFFFF" fill-rule="evenodd"/><path d="M3393.89 1910.04C3359.17 1910.04 3332 1935.85 3332 1970.26 3332 1990.33 3342.57 2008.96 3359.17 2019 3353.13 2010.4 3348.6 1998.93 3348.6 1986.03 3348.6 1953.05 3377.28 1925.81 3412 1925.81 3402.94 1904.31 3389.36 1882.81 3371.25 1865.6 3368.23 1862.73 3365.21 1859.87 3362.19 1857 3375.77 1872.77 3387.85 1891.41 3393.89 1910.04Z" fill="#FFB300" fill-rule="evenodd"/><path d="M3371.09 1865.55C3368.06 1862.7 3365.03 1859.85 3362 1857 3375.64 1872.68 3387.76 1891.21 3393.82 1909.74 3393.82 1909.74 3393.82 1909.74 3393.82 1909.74 3412 1924 3412 1924 3412 1924 3402.91 1902.62 3389.27 1882.66 3371.09 1865.55Z" fill="#FFFCC0" fill-rule="evenodd"/><path d="M3353.27 2090.58C3373.12 2071.96 3386.86 2051.89 3394.5 2028.97 3359.38 2028.97 3331.89 2003.17 3331.89 1970.22 3331.89 1935.83 3359.38 1910.03 3394.5 1910.03 3386.86 1887.11 3373.12 1867.04 3353.27 1848.42 3283.03 1782.5 3168.5 1782.5 3096.73 1848.42 3078.41 1867.04 3064.66 1887.11 3055.5 1910.03 3090.62 1910.03 3118.11 1937.26 3118.11 1970.22 3118.11 2001.74 3090.62 2028.97 3055.5 2028.97 3064.66 2051.89 3078.41 2071.96 3096.73 2090.58 3168.5 2156.5 3283.03 2156.5 3353.27 2090.58Z" stroke="#333333" stroke-width="2.86476" stroke-linecap="round" stroke-linejoin="round" stroke-miterlimit="10" fill="none" fill-rule="evenodd"/><path d="M3371.26 2106.52C3389.59 2089.31 3403.34 2067.79 3412.5 2046.28 3394.17 2030.5 3394.17 2030.5 3394.17 2030.5 3386.53 2052.02 3372.79 2072.1 3352.93 2090.74 3285.73 2153.85 3177.29 2156.72 3105.5 2097.91 3108.55 2100.78 3111.61 2103.65 3113.14 2106.52 3184.92 2172.5 3299.48 2172.5 3371.26 2106.52Z" stroke="#333333" stroke-width="2.86476" stroke-linecap="round" stroke-linejoin="round" stroke-miterlimit="10" fill="none" fill-rule="evenodd"/><path d="M3055.5 1910.5C3072.32 1926.39 3072.32 1926.39 3072.32 1926.39 3086.09 1926.39 3098.32 1930.72 3107.5 1936.5 3096.79 1920.61 3076.91 1910.5 3055.5 1910.5Z" stroke="#333333" stroke-width="2.86476" stroke-linecap="round" stroke-linejoin="round" stroke-miterlimit="10" fill="none" fill-rule="evenodd"/><path d="M3394.39 1910.54C3359.67 1910.54 3332.5 1936.35 3332.5 1970.76 3332.5 1990.83 3343.07 2009.46 3359.67 2019.5 3353.63 2010.9 3349.1 1999.43 3349.1 1986.53 3349.1 1953.55 3377.78 1926.31 3412.5 1926.31 3403.44 1904.81 3389.86 1883.31 3371.75 1866.1 3368.73 1863.23 3365.71 1860.37 3362.69 1857.5 3376.27 1873.27 3388.35 1891.91 3394.39 1910.54Z" stroke="#333333" stroke-width="2.86476" stroke-linecap="round" stroke-linejoin="round" stroke-miterlimit="10" fill="none" fill-rule="evenodd"/><path d="M3239 2002.75C3256.54 2002.75 3270.75 1988.53 3270.75 1971 3270.75 1953.46 3256.54 1939.25 3239 1939.25L3239 1907.5C3274.07 1907.5 3302.5 1935.93 3302.5 1971 3302.5 2006.07 3274.07 2034.49 3239.01 2034.5L3239 2034.5 3239 2050.38 3207.25 2018.62 3239 1986.87 3239 2002.75Z" stroke="#7B879D" stroke-width="3.4375" stroke-miterlimit="8" fill="#FFFFFF" fill-rule="evenodd"/></g></svg>