<svg width="361" height="361" xmlns="http://www.w3.org/2000/svg" xmlns:xlink="http://www.w3.org/1999/xlink" xml:space="preserve" overflow="hidden"><g transform="translate(-1681 -1797)"><path d="M1979.77 2090.08C1999.62 2071.46 2013.36 2051.39 2021 2028.47 1985.88 2028.47 1958.39 2002.67 1958.39 1969.72 1958.39 1935.33 1985.88 1909.53 2021 1909.53 2013.36 1886.61 1999.62 1866.54 1979.77 1847.92 1909.53 1782 1795 1782 1723.23 1847.92 1704.91 1866.54 1691.16 1886.61 1682 1909.53 1717.12 1909.53 1744.61 1936.76 1744.61 1969.72 1744.61 2001.24 1717.12 2028.47 1682 2028.47 1691.16 2051.39 1704.91 2071.46 1723.23 2090.08 1795 2156 1909.53 2156 1979.77 2090.08Z" fill="#F668B2" fill-rule="evenodd"/><path d="M1695 2030C1728.28 2024.28 1754 2001.4 1754 1968.5 1754 1935.6 1728.28 1911.29 1695 1907" stroke="#FFFFFF" stroke-width="5.72917" stroke-miterlimit="8" fill="none" fill-rule="evenodd"/><path d="M1979.5 2086.92C1945.78 2119.68 1896.72 2132.5 1852.27 2132.5 1806.28 2132.5 1757.22 2116.83 1723.5 2085.5" stroke="#FFFFFF" stroke-width="4.58333" stroke-miterlimit="8" fill="none" fill-rule="evenodd"/><path d="M2008.5 1911.5C1976.45 1917.28 1950.5 1937.5 1950.5 1969.28 1950.5 2001.06 1974.92 2022.72 2006.97 2028.5" stroke="#FFFFFF" stroke-width="4.58333" stroke-miterlimit="8" fill="none" fill-rule="evenodd"/><path d="M2021 2028.47C1985.88 2028.47 1958.39 2002.67 1958.39 1969.72 1958.39 1935.33 1985.88 1909.53 2021 1909.53 2013.36 1886.61 1999.62 1866.54 1979.77 1847.92 1909.53 1782 1795 1782 1723.23 1847.92 1704.91 1866.54 1691.16 1886.61 1682 1909.53 1717.12 1909.53 1744.61 1936.76 1744.61 1969.72 1744.61 2001.24 1717.12 2028.47 1682 2028.47 1691.16 2051.39 1704.91 2071.46 1723.23 2090.08 1795 2156 1909.53 2156 1979.77 2090.08 1999.62 2071.46 2013.36 2051.39 2021 2028.47ZM1727.81 2085.79C1712.54 2070.02 1698.8 2052.83 1691.16 2034.2 1724.76 2029.9 1750.72 2001.24 1750.72 1969.72 1750.72 1936.76 1724.76 1908.1 1691.16 1903.8 1700.32 1885.17 1712.54 1867.98 1727.81 1852.21 1761.41 1820.69 1807.22 1804.93 1851.5 1804.93 1897.31 1804.93 1941.59 1820.69 1975.19 1852.21 1991.99 1867.98 2004.2 1885.17 2013.36 1903.8 1978.24 1908.1 1952.28 1935.33 1952.28 1969.72 1952.28 2002.67 1978.24 2029.9 2013.36 2034.2 2004.2 2052.83 1991.99 2070.02 1975.19 2085.79 1943.12 2117.31 1898.84 2133.07 1851.5 2133.07 1805.69 2133.07 1761.41 2117.31 1727.81 2085.79Z" fill="#F11184" fill-rule="evenodd"/><path d="M1845.66 1823.83C1948.08 1826.7 1975.6 1868.3 1997 1897 1989.36 1884.09 1980.18 1871.17 1967.95 1861.13 1902.22 1798 1796.74 1802.3 1731 1864 1731 1864 1764.63 1826.7 1845.66 1823.83Z" fill="#FAB2D8" fill-rule="evenodd"/><path d="M1998.76 2106.22C2017.09 2089.06 2030.84 2067.61 2040 2046.16 2021.67 2029 2021.67 2029 2021.67 2029 2014.03 2051.88 2000.29 2071.9 1980.43 2090.49 1913.23 2153.41 1804.79 2156.27 1733 2097.64 1736.05 2100.5 1739.11 2103.36 1740.64 2106.22 1812.42 2172 1926.98 2172 1998.76 2106.22Z" fill="#FAB0D7" fill-rule="evenodd"/><path d="M1682 1910C1698.82 1925.89 1698.82 1925.89 1698.82 1925.89 1712.59 1925.89 1724.82 1930.22 1734 1936 1723.29 1920.11 1703.41 1910 1682 1910Z" fill="#C9026B" fill-rule="evenodd"/><path d="M2022.83 2036C2035 2047.45 2035 2047.45 2035 2047.45 2035 2047.45 2018.26 2084.68 2000 2099 2009.13 2088.98 2033.48 2053.18 2022.83 2036Z" fill="#FEE9F4" fill-rule="evenodd"/><path d="M2021.66 1910.04C1986.51 1910.04 1959 1935.85 1959 1968.82 1959 1990.33 1969.7 2008.96 1986.51 2019 1980.4 2010.4 1975.81 1998.93 1975.81 1986.03 1975.81 1953.05 2004.85 1925.81 2040 1925.81 2030.83 1904.31 2017.08 1882.81 1998.74 1865.6 1995.68 1862.73 1992.62 1859.87 1989.57 1857 2003.32 1872.77 2015.55 1891.41 2021.66 1910.04Z" fill="#C9026B" fill-rule="evenodd"/><path d="M1998.27 1865.55C1995.18 1862.7 1992.09 1859.85 1989 1857 2002.91 1872.68 2015.27 1891.21 2021.45 1909.74 2021.45 1909.74 2021.45 1909.74 2021.45 1909.74 2040 1924 2040 1924 2040 1924 2030.73 1902.62 2016.82 1882.66 1998.27 1865.55Z" fill="#FAB0D7" fill-rule="evenodd"/><path d="M1980.27 2090.58C2000.12 2071.96 2013.86 2051.89 2021.5 2028.97 1986.38 2028.97 1958.89 2003.17 1958.89 1970.22 1958.89 1935.83 1986.38 1910.03 2021.5 1910.03 2013.86 1887.11 2000.12 1867.04 1980.27 1848.42 1910.03 1782.5 1795.5 1782.5 1723.73 1848.42 1705.41 1867.04 1691.66 1887.11 1682.5 1910.03 1717.62 1910.03 1745.11 1937.26 1745.11 1970.22 1745.11 2001.74 1717.62 2028.97 1682.5 2028.97 1691.66 2051.89 1705.41 2071.96 1723.73 2090.58 1795.5 2156.5 1910.03 2156.5 1980.27 2090.58Z" stroke="#333333" stroke-width="2.86476" stroke-linecap="round" stroke-linejoin="round" stroke-miterlimit="10" fill="none" fill-rule="evenodd"/><path d="M1999.26 2106.72C2017.59 2089.56 2031.34 2068.11 2040.5 2046.66 2022.17 2029.5 2022.17 2029.5 2022.17 2029.5 2014.53 2052.38 2000.79 2072.4 1980.93 2090.99 1913.73 2153.91 1805.29 2156.77 1733.5 2098.14 1736.55 2101 1739.61 2103.86 1741.14 2106.72 1812.92 2172.5 1927.47 2172.5 1999.26 2106.72Z" stroke="#333333" stroke-width="2.86476" stroke-linecap="round" stroke-linejoin="round" stroke-miterlimit="10" fill="none" fill-rule="evenodd"/><path d="M1682.5 1910.5C1699.32 1926.39 1699.32 1926.39 1699.32 1926.39 1713.09 1926.39 1725.32 1930.72 1734.5 1936.5 1723.79 1920.61 1703.91 1910.5 1682.5 1910.5Z" stroke="#333333" stroke-width="2.86476" stroke-linecap="round" stroke-linejoin="round" stroke-miterlimit="10" fill="none" fill-rule="evenodd"/><path d="M2022.16 1910.54C1987.01 1910.54 1959.5 1936.35 1959.5 1969.32 1959.5 1990.83 1970.2 2009.46 1987.01 2019.5 1980.9 2010.9 1976.31 1999.43 1976.31 1986.53 1976.31 1953.55 2005.35 1926.31 2040.5 1926.31 2031.33 1904.81 2017.58 1883.31 1999.24 1866.1 1996.18 1863.23 1993.12 1860.37 1990.07 1857.5 2003.82 1873.27 2016.05 1891.91 2022.16 1910.54Z" stroke="#333333" stroke-width="2.86476" stroke-linecap="round" stroke-linejoin="round" stroke-miterlimit="10" fill="none" fill-rule="evenodd"/><path d="M1998.77 1866.05C1995.68 1863.2 1992.59 1860.35 1989.5 1857.5 2003.41 1873.18 2015.77 1891.71 2021.95 1910.24 2021.95 1910.24 2021.95 1910.24 2021.95 1910.24 2040.5 1924.5 2040.5 1924.5 2040.5 1924.5 2031.23 1903.12 2017.32 1883.16 1998.77 1866.05Z" stroke="#333333" stroke-width="2.86476" stroke-linecap="round" stroke-linejoin="round" stroke-miterlimit="10" fill="none" fill-rule="evenodd"/><path d="M1850.5 2002.75C1868.18 2002.75 1882.5 1988.53 1882.5 1971 1882.5 1953.46 1868.18 1939.25 1850.5 1939.25L1850.5 1907.5C1885.85 1907.5 1914.5 1935.93 1914.5 1971 1914.5 2006.07 1885.85 2034.49 1850.51 2034.5L1850.5 2034.5 1850.5 2050.38 1818.5 2018.63 1850.5 1986.88 1850.5 2002.75Z" stroke="#7B879D" stroke-width="3.4375" stroke-miterlimit="8" fill="#FFFFFF" fill-rule="evenodd"/></g></svg>