<svg width="342" height="345" xmlns="http://www.w3.org/2000/svg" xmlns:xlink="http://www.w3.org/1999/xlink" xml:space="preserve" overflow="hidden"><g transform="translate(-1688 -556)"><path d="M1986.77 849.084C2006.62 830.456 2020.37 810.395 2028 787.467 1992.88 787.467 1965.39 761.674 1965.39 728.716 1965.39 694.326 1992.88 668.532 2028 668.532 2020.37 645.605 2006.62 625.544 1986.77 606.916 1916.53 541 1802 541 1730.23 606.916 1711.91 625.544 1698.16 645.605 1689 668.532 1724.12 668.532 1751.61 695.758 1751.61 728.716 1751.61 760.241 1724.12 787.467 1689 787.467 1698.16 810.395 1711.91 830.456 1730.23 849.084 1802 915 1916.53 915 1986.77 849.084Z" fill="#F668B2" fill-rule="evenodd"/><path d="M1701 789C1734.85 783.279 1761 760.395 1761 727.5 1761 694.604 1734.85 670.29 1701 666" stroke="#FFFFFF" stroke-width="5.72917" stroke-miterlimit="8" fill="none" fill-rule="evenodd"/><path d="M1985 845.424C1951.41 878.182 1902.54 891 1858.26 891 1812.46 891 1763.59 875.333 1730 844" stroke="#FFFFFF" stroke-width="4.0106" stroke-miterlimit="8" fill="none" fill-rule="evenodd"/><path d="M2013 667C1982.73 672.735 1957 695.675 1957 727.217 1957 758.759 1981.22 780.265 2013 786" stroke="#FFFFFF" stroke-width="4.0106" stroke-miterlimit="8" fill="none" fill-rule="evenodd"/><path d="M2028 787.467C1992.88 787.467 1965.39 761.674 1965.39 728.716 1965.39 694.326 1992.88 668.532 2028 668.532 2020.37 645.605 2006.62 625.544 1986.77 606.916 1916.53 541 1802 541 1730.23 606.916 1711.91 625.544 1698.16 645.605 1689 668.532 1724.12 668.532 1751.61 695.758 1751.61 728.716 1751.61 760.241 1724.12 787.467 1689 787.467 1698.16 810.395 1711.91 830.456 1730.23 849.084 1802 915 1916.53 915 1986.77 849.084 2006.62 830.456 2020.37 810.395 2028 787.467ZM1734.81 844.785C1719.54 829.023 1705.8 811.827 1698.16 793.199 1731.76 788.9 1757.72 760.241 1757.72 728.716 1757.72 695.758 1731.76 667.099 1698.16 662.801 1707.32 644.172 1719.54 626.977 1734.81 611.214 1768.41 579.69 1814.22 563.927 1858.5 563.927 1904.31 563.927 1948.59 579.69 1982.19 611.214 1998.99 626.977 2011.2 644.172 2020.37 662.801 1985.24 667.099 1959.28 694.326 1959.28 728.716 1959.28 761.674 1985.24 788.9 2020.37 793.199 2011.2 811.827 1998.99 829.023 1982.19 844.785 1950.12 876.31 1905.84 892.073 1858.5 892.073 1812.69 892.073 1768.41 876.31 1734.81 844.785Z" fill="#F11184" fill-rule="evenodd"/><path d="M1852.66 582.826C1955.08 585.696 1982.6 627.304 2004 656 1996.36 643.087 1987.18 630.174 1974.95 620.13 1909.22 557 1803.74 561.304 1738 623 1738 623 1771.63 585.696 1852.66 582.826Z" fill="#FAB2D8" fill-rule="evenodd"/><path d="M1987.27 849.584C2007.12 830.956 2020.86 810.895 2028.5 787.967 1993.38 787.967 1965.89 762.174 1965.89 729.216 1965.89 694.826 1993.38 669.032 2028.5 669.032 2020.86 646.105 2007.12 626.044 1987.27 607.416 1917.03 541.5 1802.5 541.5 1730.73 607.416 1712.41 626.044 1698.66 646.105 1689.5 669.032 1724.62 669.032 1752.11 696.258 1752.11 729.216 1752.11 760.741 1724.62 787.967 1689.5 787.967 1698.66 810.895 1712.41 830.956 1730.73 849.584 1802.5 915.5 1917.03 915.5 1987.27 849.584Z" stroke="#333333" stroke-width="2.86476" stroke-linecap="round" stroke-linejoin="round" stroke-miterlimit="10" fill="none" fill-rule="evenodd"/><path d="M1861 760.75C1878.54 760.75 1892.75 746.533 1892.75 729 1892.75 711.461 1878.54 697.25 1861 697.25L1861 665.5C1896.07 665.5 1924.5 693.928 1924.5 729 1924.5 764.066 1896.07 792.494 1861.01 792.5L1861 792.5 1861 808.375 1829.25 776.625 1861 744.875 1861 760.75Z" stroke="#7B879D" stroke-width="3.4375" stroke-miterlimit="8" fill="#FFFFFF" fill-rule="evenodd"/></g></svg>