<svg width="361" height="362" xmlns="http://www.w3.org/2000/svg" xmlns:xlink="http://www.w3.org/1999/xlink" xml:space="preserve" overflow="hidden"><g transform="translate(-2367 -1797)"><path d="M2666.65 2090.08C2686.56 2071.46 2700.34 2051.39 2708 2028.47 2672.77 2028.47 2645.21 2002.67 2645.21 1969.72 2645.21 1935.33 2672.77 1909.53 2708 1909.53 2700.34 1886.61 2686.56 1866.54 2666.65 1847.92 2596.2 1782 2481.33 1782 2409.35 1847.92 2390.97 1866.54 2377.19 1886.61 2368 1909.53 2403.23 1909.53 2430.79 1936.76 2430.79 1969.72 2430.79 2001.24 2403.23 2028.47 2368 2028.47 2377.19 2051.39 2390.97 2071.46 2409.35 2090.08 2481.33 2156 2596.2 2156 2666.65 2090.08Z" fill="#E4002A" fill-rule="evenodd"/><path d="M2380 2030C2413.85 2025.69 2440 2001.29 2440 1968.28 2440 1935.27 2413.85 1912.31 2380 1908" stroke="#FFFFFF" stroke-width="5.72917" stroke-miterlimit="8" fill="none" fill-rule="evenodd"/><path d="M2665 2085.45C2631.41 2118.91 2582.54 2132 2538.26 2132 2492.46 2132 2443.59 2116 2410 2084" stroke="#FFFFFF" stroke-width="4.0106" stroke-miterlimit="8" fill="none" fill-rule="evenodd"/><path d="M2694 1911C2661.39 1916.73 2635 1936.78 2635 1968.28 2635 1999.79 2659.84 2021.27 2692.45 2027" stroke="#FFFFFF" stroke-width="4.0106" stroke-miterlimit="8" fill="none" fill-rule="evenodd"/><path d="M2708 2028.47C2672.77 2028.47 2645.21 2002.67 2645.21 1969.72 2645.21 1935.33 2672.77 1909.53 2708 1909.53 2700.34 1886.61 2686.56 1866.54 2666.65 1847.92 2596.2 1782 2481.33 1782 2409.35 1847.92 2390.97 1866.54 2377.19 1886.61 2368 1909.53 2403.23 1909.53 2430.79 1936.76 2430.79 1969.72 2430.79 2001.24 2403.23 2028.47 2368 2028.47 2377.19 2051.39 2390.97 2071.46 2409.35 2090.08 2481.33 2156 2596.2 2156 2666.65 2090.08 2686.56 2071.46 2700.34 2051.39 2708 2028.47ZM2413.95 2085.79C2398.63 2070.02 2384.85 2052.83 2377.19 2034.2 2410.88 2029.9 2436.92 2001.24 2436.92 1969.72 2436.92 1936.76 2410.88 1908.1 2377.19 1903.8 2386.38 1885.17 2398.63 1867.98 2413.95 1852.21 2447.64 1820.69 2493.59 1804.93 2538 1804.93 2583.95 1804.93 2628.36 1820.69 2662.05 1852.21 2678.9 1867.98 2691.15 1885.17 2700.34 1903.8 2665.12 1908.1 2639.08 1935.33 2639.08 1969.72 2639.08 2002.67 2665.12 2029.9 2700.34 2034.2 2691.15 2052.83 2678.9 2070.02 2662.05 2085.79 2629.89 2117.31 2585.48 2133.07 2538 2133.07 2492.05 2133.07 2447.64 2117.31 2413.95 2085.79Z" fill="#B3002A" fill-rule="evenodd"/><path d="M2531.66 1823.83C2634.08 1826.7 2661.6 1868.3 2683 1897 2675.36 1884.09 2666.18 1871.17 2653.95 1861.13 2588.22 1798 2482.74 1802.3 2417 1864 2417 1864 2450.63 1826.7 2531.66 1823.83Z" fill="#EF7476" fill-rule="evenodd"/><path d="M2684.76 2105.79C2703.09 2088.63 2716.84 2067.18 2726 2045.73 2707.67 2030 2707.67 2030 2707.67 2030 2700.03 2051.45 2686.29 2071.47 2666.43 2090.06 2599.23 2152.98 2490.79 2155.84 2419 2097.21 2422.05 2100.07 2425.11 2102.93 2426.64 2105.79 2498.42 2173 2612.97 2173 2684.76 2105.79Z" fill="#EB5C63" fill-rule="evenodd"/><path d="M2368 1910C2384.82 1925.28 2384.82 1925.28 2384.82 1925.28 2398.59 1925.28 2410.82 1929.44 2420 1935 2409.29 1919.72 2389.41 1910 2368 1910Z" fill="#8D0021" fill-rule="evenodd"/><path d="M2708.83 2036C2721 2047.38 2721 2047.38 2721 2047.38 2721 2047.38 2704.26 2084.36 2686 2100 2695.13 2088.62 2719.48 2053.07 2708.83 2036Z" fill="#F3A5A1" fill-rule="evenodd"/><path d="M2707.66 1909.61C2672.51 1909.61 2645 1936.85 2645 1969.82 2645 1989.89 2655.7 2008.53 2672.51 2020 2666.4 2009.96 2661.81 1998.5 2661.81 1985.59 2661.81 1952.62 2690.85 1925.38 2726 1925.38 2716.83 1903.88 2703.08 1882.37 2684.74 1865.17 2681.68 1862.3 2678.62 1859.43 2675.57 1858 2689.32 1872.34 2701.55 1890.97 2707.66 1909.61Z" fill="#8D0021" fill-rule="evenodd"/><path d="M2685.09 1865.17C2682.06 1862.3 2679.03 1859.43 2676 1858 2689.64 1872.35 2701.76 1891 2707.82 1909.65 2707.82 1909.65 2707.82 1909.65 2707.82 1909.65 2726 1924 2726 1924 2726 1924 2716.91 1902.48 2703.27 1882.39 2685.09 1865.17Z" fill="#EB5C63" fill-rule="evenodd"/><path d="M2667.15 2090.58C2687.06 2071.96 2700.84 2051.89 2708.5 2028.97 2673.27 2028.97 2645.71 2003.17 2645.71 1970.22 2645.71 1935.83 2673.27 1910.03 2708.5 1910.03 2700.84 1887.1 2687.06 1867.04 2667.15 1848.42 2596.7 1782.5 2481.83 1782.5 2409.85 1848.42 2391.47 1867.04 2377.69 1887.1 2368.5 1910.03 2403.73 1910.03 2431.29 1937.26 2431.29 1970.22 2431.29 2001.74 2403.73 2028.97 2368.5 2028.97 2377.69 2051.89 2391.47 2071.96 2409.85 2090.58 2481.83 2156.5 2596.7 2156.5 2667.15 2090.58Z" stroke="#333333" stroke-width="2.86476" stroke-linecap="round" stroke-linejoin="round" stroke-miterlimit="10" fill="none" fill-rule="evenodd"/><path d="M2685.26 2106.29C2703.59 2089.13 2717.34 2067.68 2726.5 2046.23 2708.17 2030.5 2708.17 2030.5 2708.17 2030.5 2700.53 2051.95 2686.79 2071.97 2666.93 2090.56 2599.73 2153.48 2491.29 2156.34 2419.5 2097.71 2422.55 2100.57 2425.61 2103.43 2427.14 2106.29 2498.92 2173.5 2613.48 2173.5 2685.26 2106.29Z" stroke="#333333" stroke-width="2.86476" stroke-linecap="round" stroke-linejoin="round" stroke-miterlimit="10" fill="none" fill-rule="evenodd"/><path d="M2368.5 1910.5C2385.32 1925.78 2385.32 1925.78 2385.32 1925.78 2399.09 1925.78 2411.32 1929.94 2420.5 1935.5 2409.79 1920.22 2389.91 1910.5 2368.5 1910.5Z" stroke="#333333" stroke-width="2.86476" stroke-linecap="round" stroke-linejoin="round" stroke-miterlimit="10" fill="none" fill-rule="evenodd"/><path d="M2708.16 1910.11C2673.01 1910.11 2645.5 1937.35 2645.5 1970.32 2645.5 1990.39 2656.2 2009.03 2673.01 2020.5 2666.9 2010.46 2662.31 1999 2662.31 1986.09 2662.31 1953.12 2691.35 1925.88 2726.5 1925.88 2717.33 1904.38 2703.58 1882.87 2685.24 1865.67 2682.18 1862.8 2679.12 1859.93 2676.07 1858.5 2689.82 1872.84 2702.05 1891.47 2708.16 1910.11Z" stroke="#333333" stroke-width="2.86476" stroke-linecap="round" stroke-linejoin="round" stroke-miterlimit="10" fill="none" fill-rule="evenodd"/><path d="M2685.59 1865.67C2682.56 1862.8 2679.53 1859.93 2676.5 1858.5 2690.14 1872.85 2702.26 1891.5 2708.32 1910.15 2708.32 1910.15 2708.32 1910.15 2708.32 1910.15 2726.5 1924.5 2726.5 1924.5 2726.5 1924.5 2717.41 1902.98 2703.77 1882.89 2685.59 1865.67Z" stroke="#333333" stroke-width="2.86476" stroke-linecap="round" stroke-linejoin="round" stroke-miterlimit="10" fill="none" fill-rule="evenodd"/><path d="M2544 2002.75C2561.54 2002.75 2575.75 1988.53 2575.75 1971 2575.75 1953.46 2561.54 1939.25 2544 1939.25L2544 1907.5C2579.07 1907.5 2607.5 1935.93 2607.5 1971 2607.5 2006.07 2579.07 2034.49 2544.01 2034.5L2544 2034.5 2544 2050.38 2512.25 2018.62 2544 1986.87 2544 2002.75Z" stroke="#7B879D" stroke-width="3.4375" stroke-miterlimit="8" fill="#FFFFFF" fill-rule="evenodd"/></g></svg>