<svg width="342" height="345" xmlns="http://www.w3.org/2000/svg" xmlns:xlink="http://www.w3.org/1999/xlink" xml:space="preserve" overflow="hidden"><g transform="translate(-999 -1179)"><path d="M1297.77 1472.08C1317.62 1453.46 1331.36 1433.39 1339 1410.47 1303.88 1410.47 1276.39 1384.67 1276.39 1351.72 1276.39 1317.33 1303.88 1291.53 1339 1291.53 1331.36 1268.61 1317.62 1248.54 1297.77 1229.92 1227.53 1164 1113 1164 1041.23 1229.92 1022.91 1248.54 1009.16 1268.61 1000 1291.53 1035.12 1291.53 1062.61 1318.76 1062.61 1351.72 1062.61 1383.24 1035.12 1410.47 1000 1410.47 1009.16 1433.39 1022.91 1453.46 1041.23 1472.08 1113 1538 1227.53 1538 1297.77 1472.08Z" fill="#28A063" fill-rule="evenodd"/><path d="M1012 1412C1045.85 1407.69 1072 1383.29 1072 1350.28 1072 1318.71 1045.85 1294.31 1012 1290" stroke="#FFFFFF" stroke-width="5.72917" stroke-miterlimit="8" fill="none" fill-rule="evenodd"/><path d="M1296.5 1467.92C1262.91 1500.68 1214.04 1513.5 1169.76 1513.5 1123.96 1513.5 1075.09 1497.83 1041.5 1466.5" stroke="#FFFFFF" stroke-width="4.58333" stroke-miterlimit="8" fill="none" fill-rule="evenodd"/><path d="M1324.5 1290.5C1294.23 1296.23 1268.5 1319.17 1268.5 1350.72 1268.5 1382.26 1292.72 1403.76 1324.5 1409.5" stroke="#FFFFFF" stroke-width="4.58333" stroke-miterlimit="8" fill="none" fill-rule="evenodd"/><path d="M1339 1410.47C1303.88 1410.47 1276.39 1384.67 1276.39 1351.72 1276.39 1317.33 1303.88 1291.53 1339 1291.53 1331.36 1268.61 1317.62 1248.54 1297.77 1229.92 1227.53 1164 1113 1164 1041.23 1229.92 1022.91 1248.54 1009.16 1268.61 1000 1291.53 1035.12 1291.53 1062.61 1318.76 1062.61 1351.72 1062.61 1383.24 1035.12 1410.47 1000 1410.47 1009.16 1433.39 1022.91 1453.46 1041.23 1472.08 1113 1538 1227.53 1538 1297.77 1472.08 1317.62 1453.46 1331.36 1433.39 1339 1410.47ZM1045.81 1467.79C1030.54 1452.02 1016.8 1434.83 1009.16 1416.2 1042.76 1411.9 1068.72 1383.24 1068.72 1351.72 1068.72 1318.76 1042.76 1290.1 1009.16 1285.8 1018.32 1267.17 1030.54 1249.98 1045.81 1234.21 1079.41 1202.69 1125.22 1186.93 1169.5 1186.93 1215.31 1186.93 1259.59 1202.69 1293.19 1234.21 1309.99 1249.98 1322.2 1267.17 1331.36 1285.8 1296.24 1290.1 1270.28 1317.33 1270.28 1351.72 1270.28 1384.67 1296.24 1411.9 1331.36 1416.2 1322.2 1434.83 1309.99 1452.02 1293.19 1467.79 1261.12 1499.31 1216.84 1515.07 1169.5 1515.07 1123.69 1515.07 1079.41 1499.31 1045.81 1467.79Z" fill="#0A8450" fill-rule="evenodd"/><path d="M1163.66 1205.57C1266.08 1208.41 1293.6 1249.59 1315 1278 1307.36 1265.22 1298.18 1252.43 1285.95 1242.49 1220.22 1180 1114.74 1184.26 1049 1245.33 1049 1245.33 1082.63 1208.41 1163.66 1205.57Z" fill="#ABDEBA" fill-rule="evenodd"/><path d="M1298.27 1472.58C1318.12 1453.96 1331.86 1433.89 1339.5 1410.97 1304.38 1410.97 1276.89 1385.17 1276.89 1352.22 1276.89 1317.83 1304.38 1292.03 1339.5 1292.03 1331.86 1269.11 1318.12 1249.04 1298.27 1230.42 1228.03 1164.5 1113.5 1164.5 1041.73 1230.42 1023.41 1249.04 1009.66 1269.11 1000.5 1292.03 1035.62 1292.03 1063.11 1319.26 1063.11 1352.22 1063.11 1383.74 1035.62 1410.97 1000.5 1410.97 1009.66 1433.89 1023.41 1453.96 1041.73 1472.58 1113.5 1538.5 1228.03 1538.5 1298.27 1472.58Z" stroke="#333333" stroke-width="2.86476" stroke-linecap="round" stroke-linejoin="round" stroke-miterlimit="10" fill="none" fill-rule="evenodd"/><path d="M1174 1395.5C1191.54 1395.5 1205.75 1381.17 1205.75 1363.5 1205.75 1345.82 1191.54 1331.5 1174 1331.5L1174 1299.5C1209.07 1299.5 1237.5 1328.15 1237.5 1363.5 1237.5 1398.84 1209.07 1427.49 1174.01 1427.5L1174 1427.5 1174 1443.5 1142.25 1411.5 1174 1379.5 1174 1395.5Z" stroke="#7B879D" stroke-width="3.4375" stroke-miterlimit="8" fill="#FFFFFF" fill-rule="evenodd"/></g></svg>