<svg width="342" height="345" xmlns="http://www.w3.org/2000/svg" xmlns:xlink="http://www.w3.org/1999/xlink" xml:space="preserve" overflow="hidden"><g transform="translate(-3061 -559)"><path d="M3359.77 852.084C3379.62 833.456 3393.36 813.395 3401 790.468 3365.88 790.468 3338.39 764.674 3338.39 731.717 3338.39 697.326 3365.88 671.533 3401 671.533 3393.36 648.606 3379.62 628.544 3359.77 609.916 3289.53 544 3175 544 3103.23 609.916 3084.91 628.544 3071.16 648.606 3062 671.533 3097.12 671.533 3124.61 698.759 3124.61 731.717 3124.61 763.242 3097.12 790.468 3062 790.468 3071.16 813.395 3084.91 833.456 3103.23 852.084 3175 918 3289.53 918 3359.77 852.084Z" fill="#FFF200" fill-rule="evenodd"/><path d="M3074 792C3107.85 786.279 3134 763.395 3134 730.5 3134 697.605 3107.85 673.291 3074 669" stroke="#FFFFFF" stroke-width="5.72917" stroke-miterlimit="8" fill="none" fill-rule="evenodd"/><path d="M3358 847.454C3324.41 880.909 3275.54 894 3231.26 894 3185.46 894 3136.59 878 3103 846" stroke="#FFFFFF" stroke-width="4.0106" stroke-miterlimit="8" fill="none" fill-rule="evenodd"/><path d="M3386 670C3355.73 675.735 3330 698.674 3330 730.217 3330 761.759 3354.22 783.265 3386 789" stroke="#FFFFFF" stroke-width="4.0106" stroke-miterlimit="8" fill="none" fill-rule="evenodd"/><path d="M3401 790.468C3365.88 790.468 3338.39 764.674 3338.39 731.717 3338.39 697.326 3365.88 671.533 3401 671.533 3393.36 648.606 3379.62 628.544 3359.77 609.916 3289.53 544 3175 544 3103.23 609.916 3084.91 628.544 3071.16 648.606 3062 671.533 3097.12 671.533 3124.61 698.759 3124.61 731.717 3124.61 763.242 3097.12 790.468 3062 790.468 3071.16 813.395 3084.91 833.456 3103.23 852.084 3175 918 3289.53 918 3359.77 852.084 3379.62 833.456 3393.36 813.395 3401 790.468ZM3107.81 847.786C3092.54 832.023 3078.8 814.828 3071.16 796.199 3104.76 791.901 3130.72 763.242 3130.72 731.717 3130.72 698.759 3104.76 670.1 3071.16 665.801 3080.32 647.173 3092.54 629.977 3107.81 614.215 3141.41 582.69 3187.22 566.927 3231.5 566.927 3277.31 566.927 3321.59 582.69 3355.19 614.215 3371.99 629.977 3384.2 647.173 3393.36 665.801 3358.24 670.1 3332.28 697.326 3332.28 731.717 3332.28 764.674 3358.24 791.901 3393.36 796.199 3384.2 814.828 3371.99 832.023 3355.19 847.786 3323.12 879.311 3278.84 895.073 3231.5 895.073 3185.69 895.073 3141.41 879.311 3107.81 847.786Z" fill="#FFC900" fill-rule="evenodd"/><path d="M3225.66 585.826C3328.08 588.696 3355.6 630.304 3377 659 3369.36 646.087 3360.18 633.174 3347.95 623.13 3282.22 560 3176.74 564.304 3111 626 3111 626 3144.63 588.696 3225.66 585.826Z" fill="#FFFFFF" fill-rule="evenodd"/><path d="M3360.27 852.584C3380.12 833.956 3393.86 813.895 3401.5 790.967 3366.38 790.967 3338.89 765.174 3338.89 732.216 3338.89 697.826 3366.38 672.033 3401.5 672.033 3393.86 649.105 3380.12 629.044 3360.27 610.416 3290.03 544.5 3175.5 544.5 3103.73 610.416 3085.41 629.044 3071.66 649.105 3062.5 672.033 3097.62 672.033 3125.11 699.259 3125.11 732.216 3125.11 763.741 3097.62 790.967 3062.5 790.967 3071.66 813.895 3085.41 833.956 3103.73 852.584 3175.5 918.5 3290.03 918.5 3360.27 852.584Z" stroke="#333333" stroke-width="2.86476" stroke-linecap="round" stroke-linejoin="round" stroke-miterlimit="10" fill="none" fill-rule="evenodd"/><path d="M3249.5 760.75C3267.18 760.75 3281.5 746.533 3281.5 729 3281.5 711.461 3267.18 697.25 3249.5 697.25L3249.5 665.5C3284.85 665.5 3313.5 693.928 3313.5 729 3313.5 764.066 3284.85 792.494 3249.51 792.5L3249.5 792.5 3249.5 808.375 3217.5 776.625 3249.5 744.875 3249.5 760.75Z" stroke="#7B879D" stroke-width="3.4375" stroke-miterlimit="8" fill="#FFFFFF" fill-rule="evenodd"/></g></svg>