<svg width="360" height="360" xmlns="http://www.w3.org/2000/svg" xmlns:xlink="http://www.w3.org/1999/xlink" xml:space="preserve" overflow="hidden"><g transform="translate(-2354 -1185)"><path d="M2652.77 1477.26C2672.62 1458.68 2686.36 1438.67 2694 1415.81 2658.88 1415.81 2631.39 1390.08 2631.39 1357.21 2631.39 1322.92 2658.88 1297.19 2694 1297.19 2686.36 1274.33 2672.62 1254.32 2652.77 1235.74 2582.53 1170 2468 1170 2396.23 1235.74 2377.91 1254.32 2364.16 1274.33 2355 1297.19 2390.12 1297.19 2417.61 1324.34 2417.61 1357.21 2417.61 1388.66 2390.12 1415.81 2355 1415.81 2364.16 1438.67 2377.91 1458.68 2396.23 1477.26 2468 1543 2582.53 1543 2652.77 1477.26Z" fill="#4EBDD7" fill-rule="evenodd"/><path d="M2367 1417C2400.28 1412.71 2426 1388.4 2426 1355.5 2426 1322.6 2400.28 1299.72 2367 1294" stroke="#FFFFFF" stroke-width="5.72917" stroke-miterlimit="8" fill="none" fill-rule="evenodd"/><path d="M2651 1473.42C2617.41 1506.18 2568.54 1519 2524.26 1519 2478.45 1519 2429.59 1503.33 2396 1472" stroke="#FFFFFF" stroke-width="4.0106" stroke-miterlimit="8" fill="none" fill-rule="evenodd"/><path d="M2680 1299C2647.95 1304.73 2622 1324.78 2622 1356.28 2622 1387.79 2646.42 1409.27 2678.47 1415" stroke="#FFFFFF" stroke-width="4.0106" stroke-miterlimit="8" fill="none" fill-rule="evenodd"/><path d="M2694 1415.81C2658.88 1415.81 2631.39 1390.08 2631.39 1357.21 2631.39 1322.92 2658.88 1297.19 2694 1297.19 2686.36 1274.33 2672.62 1254.32 2652.77 1235.74 2582.53 1170 2468 1170 2396.23 1235.74 2377.91 1254.32 2364.16 1274.33 2355 1297.19 2390.12 1297.19 2417.61 1324.34 2417.61 1357.21 2417.61 1388.66 2390.12 1415.81 2355 1415.81 2364.16 1438.67 2377.91 1458.68 2396.23 1477.26 2468 1543 2582.53 1543 2652.77 1477.26 2672.62 1458.68 2686.36 1438.67 2694 1415.81ZM2400.81 1472.97C2385.54 1457.25 2371.8 1440.1 2364.16 1421.52 2397.76 1417.24 2423.72 1388.66 2423.72 1357.21 2423.72 1324.34 2397.76 1295.76 2364.16 1291.48 2373.32 1272.9 2385.54 1255.75 2400.81 1240.03 2434.41 1208.59 2480.22 1192.87 2524.5 1192.87 2570.31 1192.87 2614.59 1208.59 2648.19 1240.03 2664.99 1255.75 2677.2 1272.9 2686.36 1291.48 2651.24 1295.76 2625.28 1322.92 2625.28 1357.21 2625.28 1390.08 2651.24 1417.24 2686.36 1421.52 2677.2 1440.1 2664.99 1457.25 2648.19 1472.97 2616.12 1504.41 2571.84 1520.13 2524.5 1520.13 2478.69 1520.13 2434.41 1504.41 2400.81 1472.97Z" fill="#0290BF" fill-rule="evenodd"/><path d="M2517.66 1210.83C2620.08 1213.7 2647.6 1255.3 2669 1284 2661.36 1271.09 2652.18 1258.17 2639.95 1248.13 2574.22 1185 2468.74 1189.3 2403 1251 2403 1251 2436.63 1213.7 2517.66 1210.83Z" fill="#9BDAE9" fill-rule="evenodd"/><path d="M2670.76 1493.22C2689.09 1476.06 2702.84 1454.61 2712 1433.16 2693.67 1416 2693.67 1416 2693.67 1416 2686.03 1438.88 2672.29 1458.9 2652.43 1477.49 2585.23 1540.41 2476.79 1543.27 2405 1484.64 2408.05 1487.5 2411.11 1490.36 2412.64 1493.22 2484.42 1559 2598.97 1559 2670.76 1493.22Z" fill="#ADE0ED" fill-rule="evenodd"/><path d="M2355 1296C2371.5 1313.05 2371.5 1313.05 2371.5 1313.05 2385 1313.05 2397 1317.32 2406 1323 2395.5 1307.37 2376 1297.42 2355 1296Z" fill="#0671B0" fill-rule="evenodd"/><path d="M2695.48 1423C2708 1434.45 2708 1434.45 2708 1434.45 2708 1434.45 2690.78 1471.68 2672 1486 2681.39 1475.98 2706.43 1440.18 2695.48 1423Z" fill="#EEF9FB" fill-rule="evenodd"/><path d="M2693.66 1295.61C2658.51 1297.04 2631 1322.85 2631 1355.82 2631 1377.33 2641.7 1395.96 2658.51 1406 2652.4 1397.4 2647.81 1385.93 2647.81 1373.03 2647.81 1340.05 2676.85 1312.81 2712 1312.81 2702.83 1289.88 2689.08 1269.81 2670.74 1252.6 2667.68 1249.73 2664.62 1246.87 2661.57 1244 2675.32 1259.77 2687.55 1278.41 2693.66 1295.61Z" fill="#0671B0" fill-rule="evenodd"/><path d="M2671.09 1252.55C2668.06 1249.7 2665.03 1246.85 2662 1244 2675.64 1259.68 2687.76 1278.21 2693.82 1295.32 2693.82 1295.32 2693.82 1295.32 2693.82 1295.32 2712 1311 2712 1311 2712 1311 2702.91 1289.62 2689.27 1269.66 2671.09 1252.55Z" fill="#ADE0ED" fill-rule="evenodd"/><path d="M2653.27 1477.76C2673.12 1459.18 2686.86 1439.17 2694.5 1416.31 2659.38 1416.31 2631.89 1390.58 2631.89 1357.71 2631.89 1323.42 2659.38 1297.69 2694.5 1297.69 2686.86 1274.83 2673.12 1254.82 2653.27 1236.24 2583.03 1170.5 2468.5 1170.5 2396.73 1236.24 2378.41 1254.82 2364.66 1274.83 2355.5 1297.69 2390.62 1297.69 2418.11 1324.84 2418.11 1357.71 2418.11 1389.16 2390.62 1416.31 2355.5 1416.31 2364.66 1439.17 2378.41 1459.18 2396.73 1477.76 2468.5 1543.5 2583.03 1543.5 2653.27 1477.76Z" stroke="#333333" stroke-width="2.86476" stroke-linecap="round" stroke-linejoin="round" stroke-miterlimit="10" fill="none" fill-rule="evenodd"/><path d="M2671.26 1493.72C2689.59 1476.56 2703.34 1455.11 2712.5 1433.66 2694.17 1416.5 2694.17 1416.5 2694.17 1416.5 2686.53 1439.38 2672.79 1459.4 2652.93 1477.99 2585.73 1540.91 2477.29 1543.77 2405.5 1485.14 2408.55 1488 2411.61 1490.86 2413.14 1493.72 2484.92 1559.5 2599.47 1559.5 2671.26 1493.72Z" stroke="#333333" stroke-width="2.86476" stroke-linecap="round" stroke-linejoin="round" stroke-miterlimit="10" fill="none" fill-rule="evenodd"/><path d="M2355.5 1296.5C2372 1313.55 2372 1313.55 2372 1313.55 2385.5 1313.55 2397.5 1317.82 2406.5 1323.5 2396 1307.87 2376.5 1297.92 2355.5 1296.5Z" stroke="#333333" stroke-width="2.86476" stroke-linecap="round" stroke-linejoin="round" stroke-miterlimit="10" fill="none" fill-rule="evenodd"/><path d="M2694.16 1296.11C2659.01 1297.54 2631.5 1323.35 2631.5 1356.32 2631.5 1377.83 2642.2 1396.46 2659.01 1406.5 2652.9 1397.9 2648.31 1386.43 2648.31 1373.53 2648.31 1340.55 2677.35 1313.31 2712.5 1313.31 2703.33 1290.38 2689.58 1270.31 2671.24 1253.1 2668.18 1250.23 2665.12 1247.37 2662.07 1244.5 2675.82 1260.27 2688.05 1278.91 2694.16 1296.11Z" stroke="#333333" stroke-width="2.86476" stroke-linecap="round" stroke-linejoin="round" stroke-miterlimit="10" fill="none" fill-rule="evenodd"/><path d="M2671.59 1253.05C2668.56 1250.2 2665.53 1247.35 2662.5 1244.5 2676.14 1260.18 2688.26 1278.71 2694.32 1295.82 2694.32 1295.82 2694.32 1295.82 2694.32 1295.82 2712.5 1311.5 2712.5 1311.5 2712.5 1311.5 2703.41 1290.12 2689.77 1270.16 2671.59 1253.05Z" stroke="#333333" stroke-width="2.86476" stroke-linecap="round" stroke-linejoin="round" stroke-miterlimit="10" fill="none" fill-rule="evenodd"/><path d="M2529 1388.75C2546.54 1388.75 2560.75 1374.53 2560.75 1357 2560.75 1339.46 2546.54 1325.25 2529 1325.25L2529 1293.5C2564.07 1293.5 2592.5 1321.93 2592.5 1357 2592.5 1392.07 2564.07 1420.49 2529.01 1420.5L2529 1420.5 2529 1436.38 2497.25 1404.63 2529 1372.88 2529 1388.75Z" stroke="#7B879D" stroke-width="3.4375" stroke-miterlimit="8" fill="#FFFFFF" fill-rule="evenodd"/></g></svg>