<svg width="261" height="317" xmlns="http://www.w3.org/2000/svg" xmlns:xlink="http://www.w3.org/1999/xlink" xml:space="preserve" overflow="hidden"><g transform="translate(-700 -572)"><rect x="709.5" y="598.5" width="240" height="257" stroke="#7B879D" stroke-width="3.4375" stroke-miterlimit="8" fill="#FFCC99"/><path d="M701 606.5C701 587.999 714.879 573 732 573 749.121 573 763 587.999 763 606.5 763 625.002 749.121 640 732 640 714.879 640 701 625.002 701 606.5Z" fill="#F09D00" fill-rule="evenodd"/><path d="M701.5 607C701.5 588.498 715.379 573.5 732.5 573.5 749.621 573.5 763.5 588.498 763.5 607 763.5 625.501 749.621 640.5 732.5 640.5 715.379 640.5 701.5 625.501 701.5 607Z" stroke="#333333" stroke-width="2.86476" stroke-miterlimit="8" fill="none" fill-rule="evenodd"/><path d="M744.343 662.621C745.229 663.575 745.229 663.575 745.229 663.575 745.229 664.529 745.229 664.529 746.114 665.483 746.114 666.437 746.114 666.437 746.114 666.437 746.114 667.391 747 667.391 747 667.391 747 668.345 747 669.299 747 670.253 747 712.23 747 712.23 747 712.23 747 715.092 745.229 717 742.571 717 739.914 717 738.143 715.092 738.143 712.23 738.143 670.253 738.143 670.253 738.143 670.253 738.143 668.345 735.486 664.529 731.943 664.529 727.514 664.529 724.857 668.345 724.857 670.253 724.857 712.23 724.857 712.23 724.857 712.23 724.857 715.092 723.086 717 720.429 717 718.657 717 716 715.092 716 712.23 716 670.253 716 670.253 716 670.253 716 669.299 716 668.345 716.886 667.391 716.886 667.391 716.886 667.391 716.886 666.437 716.886 666.437 716.886 665.483 717.771 665.483 717.771 664.529 717.771 664.529 717.771 664.529 718.657 663.575 718.657 662.621 718.657 662.621 719.543 661.667 719.543 661.667 719.543 661.667 719.543 660.713 720.429 659.759 721.314 659.759 721.314 658.805 722.2 658.805 722.2 657.851 723.086 657.851 723.086 657.851 723.086 657.851 723.086 656.896 723.971 656.896 724.857 656.896 724.857 655.942 724.857 655.942 724.857 655.942 725.743 655.942 726.629 654.988 726.629 654.988 726.629 638.77 726.629 638.77 726.629 638.77 726.629 636.862 728.4 634 731.057 634 733.714 634 735.486 636.862 735.486 638.77 735.486 654.988 735.486 654.988 735.486 654.988 735.486 654.988 735.486 654.988 735.486 654.988 738.143 655.942 740.8 657.851 743.457 660.713 743.457 660.713 743.457 660.713 743.457 661.667 744.343 661.667 744.343 662.621 744.343 662.621Z" fill="#7C7C7C" fill-rule="evenodd"/><path d="M718 710.24C718 668 718 668 718 668 718 668 718 668 718 668 718 668 719 682.4 720 690.08 720 696.8 720 709.28 720 709.28 720 710.24 720 715.04 720 716 720 716 720 716 720 716 719 714.08 718 712.16 718 710.24Z" fill="#FFFFFF" fill-rule="evenodd"/><path d="M740.25 710.222C740.25 712.148 741.125 715.037 742 716 740.25 714.074 739.375 712.148 739.375 710.222 739.375 701.556 739.375 701.556 739.375 701.556 739.375 669.778 739.375 669.778 739.375 669.778 739.375 668.815 737.625 664 735 664 740.25 664 741.125 668.815 741.125 671.704L740.25 710.222Z" fill="#FFFFFF" fill-rule="evenodd"/><path d="M711 597C711 590.925 715.477 586 721 586 726.523 586 731 590.925 731 597 731 603.075 726.523 608 721 608 715.477 608 711 603.075 711 597Z" fill="#FFFFFF" fill-rule="evenodd"/><path d="M764 853.5C764 872.001 750.121 887 733 887 715.879 887 702 872.001 702 853.5 702 834.998 715.879 820 733 820 750.121 820 764 834.998 764 853.5Z" fill="#F09D00" fill-rule="evenodd"/><path d="M764.5 854C764.5 872.502 750.621 887.5 733.5 887.5 716.379 887.5 702.5 872.502 702.5 854 702.5 835.498 716.379 820.5 733.5 820.5 750.621 820.5 764.5 835.498 764.5 854Z" stroke="#333333" stroke-width="2.86476" stroke-miterlimit="8" fill="none" fill-rule="evenodd"/><path d="M720.657 797.379C719.772 796.425 719.772 796.425 719.772 796.425 719.772 795.471 719.772 795.471 718.886 794.517 718.886 793.563 718.886 793.563 718.886 793.563 718.886 792.609 718 792.609 718 792.609 718 791.655 718 790.701 718 789.747 718 747.77 718 747.77 718 747.77 718 744.908 719.772 743 722.429 743 725.086 743 726.857 744.908 726.857 747.77 726.857 789.747 726.857 789.747 726.857 789.747 726.857 791.655 729.514 795.471 733.057 795.471 737.486 795.471 740.143 791.655 740.143 789.747 740.143 747.77 740.143 747.77 740.143 747.77 740.143 744.908 741.914 743 744.571 743 746.343 743 749 744.908 749 747.77 749 789.747 749 789.747 749 789.747 749 790.701 749 791.655 748.114 792.609 748.114 792.609 748.114 792.609 748.114 793.563 748.114 793.563 748.114 794.517 747.229 794.517 747.229 795.471 747.229 795.471 747.229 795.471 746.343 796.425 746.343 797.379 746.343 797.379 745.457 798.333 745.457 798.333 745.457 798.333 745.457 799.287 744.571 800.241 743.686 800.241 743.686 801.195 742.8 801.195 742.8 802.149 741.914 802.149 741.914 802.149 741.914 802.149 741.914 803.103 741.029 803.103 740.143 803.103 740.143 804.057 740.143 804.057 740.143 804.057 739.257 804.057 738.372 805.011 738.372 805.011 738.372 821.23 738.372 821.23 738.372 821.23 738.372 823.138 736.6 826 733.943 826 731.286 826 729.514 823.138 729.514 821.23 729.514 805.011 729.514 805.011 729.514 805.011 729.514 805.011 729.514 805.011 729.514 805.011 726.857 804.057 724.2 802.149 721.543 799.287 721.543 799.287 721.543 799.287 721.543 798.333 720.657 798.333 720.657 797.379 720.657 797.379Z" fill="#7C7C7C" fill-rule="evenodd"/><path d="M747 749.76C747 792 747 792 747 792 747 792 747 792 747 792 747 792 746.5 777.6 746 769.92 746 763.2 746 750.72 746 750.72 746 749.76 746 744.96 746 744 746 744 746 744 746 744 746.5 745.92 747 747.84 747 749.76Z" fill="#FFFFFF" fill-rule="evenodd"/><path d="M725.75 749.778C725.75 747.852 724.875 744.963 724 744 725.75 745.926 726.625 747.852 726.625 749.778 726.625 758.444 726.625 758.444 726.625 758.444 726.625 790.222 726.625 790.222 726.625 790.222 726.625 791.185 728.375 796 731 796 725.75 796 724.875 791.185 724.875 788.296L725.75 749.778Z" fill="#FFFFFF" fill-rule="evenodd"/><path d="M754 862.5C754 868.299 749.523 873 744 873 738.477 873 734 868.299 734 862.5 734 856.701 738.477 852 744 852 749.523 852 754 856.701 754 862.5Z" fill="#FFFFFF" fill-rule="evenodd"/><path d="M767 606.5C767 587.999 780.879 573 798 573 815.121 573 829 587.999 829 606.5 829 625.002 815.121 640 798 640 780.879 640 767 625.002 767 606.5Z" fill="#F09D00" fill-rule="evenodd"/><path d="M767.5 607C767.5 588.498 781.379 573.5 798.5 573.5 815.621 573.5 829.5 588.498 829.5 607 829.5 625.501 815.621 640.5 798.5 640.5 781.379 640.5 767.5 625.501 767.5 607Z" stroke="#333333" stroke-width="2.86476" stroke-miterlimit="8" fill="none" fill-rule="evenodd"/><path d="M810.343 662.621C811.229 663.575 811.229 663.575 811.229 663.575 811.229 664.529 811.229 664.529 812.114 665.483 812.114 666.437 812.114 666.437 812.114 666.437 812.114 667.391 813 667.391 813 667.391 813 668.345 813 669.299 813 670.253 813 712.23 813 712.23 813 712.23 813 715.092 811.229 717 808.571 717 805.914 717 804.143 715.092 804.143 712.23 804.143 670.253 804.143 670.253 804.143 670.253 804.143 668.345 801.486 664.529 797.943 664.529 793.514 664.529 790.857 668.345 790.857 670.253 790.857 712.23 790.857 712.23 790.857 712.23 790.857 715.092 789.086 717 786.429 717 784.657 717 782 715.092 782 712.23 782 670.253 782 670.253 782 670.253 782 669.299 782 668.345 782.886 667.391 782.886 667.391 782.886 667.391 782.886 666.437 782.886 666.437 782.886 665.483 783.771 665.483 783.771 664.529 783.771 664.529 783.771 664.529 784.657 663.575 784.657 662.621 784.657 662.621 785.543 661.667 785.543 661.667 785.543 661.667 785.543 660.713 786.429 659.759 787.314 659.759 787.314 658.805 788.2 658.805 788.2 657.851 789.086 657.851 789.086 657.851 789.086 657.851 789.086 656.896 789.971 656.896 790.857 656.896 790.857 655.942 790.857 655.942 790.857 655.942 791.743 655.942 792.629 654.988 792.629 654.988 792.629 638.77 792.629 638.77 792.629 638.77 792.629 636.862 794.4 634 797.057 634 799.714 634 801.486 636.862 801.486 638.77 801.486 654.988 801.486 654.988 801.486 654.988 801.486 654.988 801.486 654.988 801.486 654.988 804.143 655.942 806.8 657.851 809.457 660.713 809.457 660.713 809.457 660.713 809.457 661.667 810.343 661.667 810.343 662.621 810.343 662.621Z" fill="#7C7C7C" fill-rule="evenodd"/><path d="M784 710.24C784 668 784 668 784 668 784 668 784 668 784 668 784 668 785 682.4 786 690.08 786 696.8 786 709.28 786 709.28 786 710.24 786 715.04 786 716 786 716 786 716 786 716 785 714.08 784 712.16 784 710.24Z" fill="#FFFFFF" fill-rule="evenodd"/><path d="M806.25 710.222C806.25 712.148 807.125 715.037 808 716 806.25 714.074 805.375 712.148 805.375 710.222 805.375 701.556 805.375 701.556 805.375 701.556 805.375 669.778 805.375 669.778 805.375 669.778 805.375 668.815 803.625 664 801 664 806.25 664 807.125 668.815 807.125 671.704L806.25 710.222Z" fill="#FFFFFF" fill-rule="evenodd"/><path d="M777 597C777 590.925 781.477 586 787 586 792.523 586 797 590.925 797 597 797 603.075 792.523 608 787 608 781.477 608 777 603.075 777 597Z" fill="#FFFFFF" fill-rule="evenodd"/><path d="M830 853.5C830 872.001 816.121 887 799 887 781.879 887 768 872.001 768 853.5 768 834.998 781.879 820 799 820 816.121 820 830 834.998 830 853.5Z" fill="#F09D00" fill-rule="evenodd"/><path d="M830.5 854C830.5 872.502 816.621 887.5 799.5 887.5 782.379 887.5 768.5 872.502 768.5 854 768.5 835.498 782.379 820.5 799.5 820.5 816.621 820.5 830.5 835.498 830.5 854Z" stroke="#333333" stroke-width="2.86476" stroke-miterlimit="8" fill="none" fill-rule="evenodd"/><path d="M786.657 797.379C785.772 796.425 785.772 796.425 785.772 796.425 785.772 795.471 785.772 795.471 784.886 794.517 784.886 793.563 784.886 793.563 784.886 793.563 784.886 792.609 784 792.609 784 792.609 784 791.655 784 790.701 784 789.747 784 747.77 784 747.77 784 747.77 784 744.908 785.772 743 788.429 743 791.086 743 792.857 744.908 792.857 747.77 792.857 789.747 792.857 789.747 792.857 789.747 792.857 791.655 795.514 795.471 799.057 795.471 803.486 795.471 806.143 791.655 806.143 789.747 806.143 747.77 806.143 747.77 806.143 747.77 806.143 744.908 807.914 743 810.571 743 812.343 743 815 744.908 815 747.77 815 789.747 815 789.747 815 789.747 815 790.701 815 791.655 814.114 792.609 814.114 792.609 814.114 792.609 814.114 793.563 814.114 793.563 814.114 794.517 813.229 794.517 813.229 795.471 813.229 795.471 813.229 795.471 812.343 796.425 812.343 797.379 812.343 797.379 811.457 798.333 811.457 798.333 811.457 798.333 811.457 799.287 810.571 800.241 809.686 800.241 809.686 801.195 808.8 801.195 808.8 802.149 807.914 802.149 807.914 802.149 807.914 802.149 807.914 803.103 807.029 803.103 806.143 803.103 806.143 804.057 806.143 804.057 806.143 804.057 805.257 804.057 804.372 805.011 804.372 805.011 804.372 821.23 804.372 821.23 804.372 821.23 804.372 823.138 802.6 826 799.943 826 797.286 826 795.514 823.138 795.514 821.23 795.514 805.011 795.514 805.011 795.514 805.011 795.514 805.011 795.514 805.011 795.514 805.011 792.857 804.057 790.2 802.149 787.543 799.287 787.543 799.287 787.543 799.287 787.543 798.333 786.657 798.333 786.657 797.379 786.657 797.379Z" fill="#7C7C7C" fill-rule="evenodd"/><path d="M813 749.76C813 792 813 792 813 792 813 792 813 792 813 792 813 792 812 777.6 811 769.92 811 763.2 811 750.72 811 750.72 811 749.76 811 744.96 811 744 811 744 811 744 811 744 812 745.92 813 747.84 813 749.76Z" fill="#FFFFFF" fill-rule="evenodd"/><path d="M791 749.778C791 747.852 790 744.963 789 744 791 745.926 792 747.852 792 749.778 792 758.444 792 758.444 792 758.444 792 790.222 792 790.222 792 790.222 792 791.185 794 796 797 796 791 796 790 791.185 790 788.296L791 749.778Z" fill="#FFFFFF" fill-rule="evenodd"/><path d="M820 862.5C820 868.299 815.523 873 810 873 804.477 873 800 868.299 800 862.5 800 856.701 804.477 852 810 852 815.523 852 820 856.701 820 862.5Z" fill="#FFFFFF" fill-rule="evenodd"/><path d="M831 606.5C831 587.999 844.879 573 862 573 879.121 573 893 587.999 893 606.5 893 625.002 879.121 640 862 640 844.879 640 831 625.002 831 606.5Z" fill="#F09D00" fill-rule="evenodd"/><path d="M831.5 607C831.5 588.498 845.379 573.5 862.5 573.5 879.621 573.5 893.5 588.498 893.5 607 893.5 625.501 879.621 640.5 862.5 640.5 845.379 640.5 831.5 625.501 831.5 607Z" stroke="#333333" stroke-width="2.86476" stroke-miterlimit="8" fill="none" fill-rule="evenodd"/><path d="M874.428 662.621C875.286 663.575 875.286 663.575 875.286 663.575 875.286 664.529 875.286 664.529 876.143 665.483 876.143 666.437 876.143 666.437 876.143 666.437 876.143 667.391 877 667.391 877 667.391 877 668.345 877 669.299 877 670.253 877 712.23 877 712.23 877 712.23 877 715.092 875.286 717 872.714 717 870.143 717 868.429 715.092 868.429 712.23 868.429 670.253 868.429 670.253 868.429 670.253 868.429 668.345 865.857 664.529 862.429 664.529 858.143 664.529 855.571 668.345 855.571 670.253 855.571 712.23 855.571 712.23 855.571 712.23 855.571 715.092 853.857 717 851.286 717 849.571 717 847 715.092 847 712.23 847 670.253 847 670.253 847 670.253 847 669.299 847 668.345 847.857 667.391 847.857 667.391 847.857 667.391 847.857 666.437 847.857 666.437 847.857 665.483 848.714 665.483 848.714 664.529 848.714 664.529 848.714 664.529 849.571 663.575 849.571 662.621 849.571 662.621 850.429 661.667 850.429 661.667 850.429 661.667 850.429 660.713 851.286 659.759 852.143 659.759 852.143 658.805 853 658.805 853 657.851 853.857 657.851 853.857 657.851 853.857 657.851 853.857 656.896 854.714 656.896 855.571 656.896 855.571 655.942 855.571 655.942 855.571 655.942 856.429 655.942 857.286 654.988 857.286 654.988 857.286 638.77 857.286 638.77 857.286 638.77 857.286 636.862 859 634 861.571 634 864.143 634 865.857 636.862 865.857 638.77 865.857 654.988 865.857 654.988 865.857 654.988 865.857 654.988 865.857 654.988 865.857 654.988 868.429 655.942 871 657.851 873.571 660.713 873.571 660.713 873.571 660.713 873.571 661.667 874.428 661.667 874.428 662.621 874.428 662.621Z" fill="#7C7C7C" fill-rule="evenodd"/><path d="M848 710.24C848 668 848 668 848 668 848 668 848 668 848 668 848 668 849 682.4 850 690.08 850 696.8 850 709.28 850 709.28 850 710.24 850 715.04 850 716 850 716 850 716 850 716 849 714.08 848 712.16 848 710.24Z" fill="#FFFFFF" fill-rule="evenodd"/><path d="M870.25 710.222C870.25 712.148 871.125 715.037 872 716 870.25 714.074 869.375 712.148 869.375 710.222 869.375 701.556 869.375 701.556 869.375 701.556 869.375 669.778 869.375 669.778 869.375 669.778 869.375 668.815 867.625 664 865 664 870.25 664 871.125 668.815 871.125 671.704L870.25 710.222Z" fill="#FFFFFF" fill-rule="evenodd"/><path d="M841 597C841 590.925 845.477 586 851 586 856.523 586 861 590.925 861 597 861 603.075 856.523 608 851 608 845.477 608 841 603.075 841 597Z" fill="#FFFFFF" fill-rule="evenodd"/><path d="M894 853.5C894 872.001 880.121 887 863 887 845.879 887 832 872.001 832 853.5 832 834.998 845.879 820 863 820 880.121 820 894 834.998 894 853.5Z" fill="#F09D00" fill-rule="evenodd"/><path d="M894.5 854C894.5 872.502 880.621 887.5 863.5 887.5 846.379 887.5 832.5 872.502 832.5 854 832.5 835.498 846.379 820.5 863.5 820.5 880.621 820.5 894.5 835.498 894.5 854Z" stroke="#333333" stroke-width="2.86476" stroke-miterlimit="8" fill="none" fill-rule="evenodd"/><path d="M850.657 797.379C849.771 796.425 849.771 796.425 849.771 796.425 849.771 795.471 849.771 795.471 848.886 794.517 848.886 793.563 848.886 793.563 848.886 793.563 848.886 792.609 848 792.609 848 792.609 848 791.655 848 790.701 848 789.747 848 747.77 848 747.77 848 747.77 848 744.908 849.771 743 852.429 743 855.086 743 856.857 744.908 856.857 747.77 856.857 789.747 856.857 789.747 856.857 789.747 856.857 791.655 859.514 795.471 863.057 795.471 867.486 795.471 870.143 791.655 870.143 789.747 870.143 747.77 870.143 747.77 870.143 747.77 870.143 744.908 871.914 743 874.571 743 876.343 743 879 744.908 879 747.77 879 789.747 879 789.747 879 789.747 879 790.701 879 791.655 878.114 792.609 878.114 792.609 878.114 792.609 878.114 793.563 878.114 793.563 878.114 794.517 877.229 794.517 877.229 795.471 877.229 795.471 877.229 795.471 876.343 796.425 876.343 797.379 876.343 797.379 875.457 798.333 875.457 798.333 875.457 798.333 875.457 799.287 874.571 800.241 873.686 800.241 873.686 801.195 872.8 801.195 872.8 802.149 871.914 802.149 871.914 802.149 871.914 802.149 871.914 803.103 871.029 803.103 870.143 803.103 870.143 804.057 870.143 804.057 870.143 804.057 869.257 804.057 868.371 805.011 868.371 805.011 868.371 821.23 868.371 821.23 868.371 821.23 868.371 823.138 866.6 826 863.943 826 861.286 826 859.514 823.138 859.514 821.23 859.514 805.011 859.514 805.011 859.514 805.011 859.514 805.011 859.514 805.011 859.514 805.011 856.857 804.057 854.2 802.149 851.543 799.287 851.543 799.287 851.543 799.287 851.543 798.333 850.657 798.333 850.657 797.379 850.657 797.379Z" fill="#7C7C7C" fill-rule="evenodd"/><path d="M877 749.76C877 792 877 792 877 792 877 792 877 792 877 792 877 792 876.5 777.6 876 769.92 876 763.2 876 750.72 876 750.72 876 749.76 876 744.96 876 744 876 744 876 744 876 744 876.5 745.92 877 747.84 877 749.76Z" fill="#FFFFFF" fill-rule="evenodd"/><path d="M855.75 749.778C855.75 747.852 854.875 744.963 854 744 855.75 745.926 856.625 747.852 856.625 749.778 856.625 758.444 856.625 758.444 856.625 758.444 856.625 790.222 856.625 790.222 856.625 790.222 856.625 791.185 858.375 796 861 796 855.75 796 854.875 791.185 854.875 788.296L855.75 749.778Z" fill="#FFFFFF" fill-rule="evenodd"/><path d="M884 862.5C884 868.299 879.523 873 874 873 868.477 873 864 868.299 864 862.5 864 856.701 868.477 852 874 852 879.523 852 884 856.701 884 862.5Z" fill="#FFFFFF" fill-rule="evenodd"/><path d="M896 606.5C896 587.999 909.879 573 927 573 944.121 573 958 587.999 958 606.5 958 625.002 944.121 640 927 640 909.879 640 896 625.002 896 606.5Z" fill="#F09D00" fill-rule="evenodd"/><path d="M896.5 607C896.5 588.498 910.379 573.5 927.5 573.5 944.621 573.5 958.5 588.498 958.5 607 958.5 625.501 944.621 640.5 927.5 640.5 910.379 640.5 896.5 625.501 896.5 607Z" stroke="#333333" stroke-width="2.86476" stroke-miterlimit="8" fill="none" fill-rule="evenodd"/><path d="M939.343 662.621C940.228 663.575 940.228 663.575 940.228 663.575 940.228 664.529 940.228 664.529 941.114 665.483 941.114 666.437 941.114 666.437 941.114 666.437 941.114 667.391 942 667.391 942 667.391 942 668.345 942 669.299 942 670.253 942 712.23 942 712.23 942 712.23 942 715.092 940.228 717 937.571 717 934.914 717 933.143 715.092 933.143 712.23 933.143 670.253 933.143 670.253 933.143 670.253 933.143 668.345 930.486 664.529 926.943 664.529 922.514 664.529 919.857 668.345 919.857 670.253 919.857 712.23 919.857 712.23 919.857 712.23 919.857 715.092 918.086 717 915.429 717 913.657 717 911 715.092 911 712.23 911 670.253 911 670.253 911 670.253 911 669.299 911 668.345 911.886 667.391 911.886 667.391 911.886 667.391 911.886 666.437 911.886 666.437 911.886 665.483 912.771 665.483 912.771 664.529 912.771 664.529 912.771 664.529 913.657 663.575 913.657 662.621 913.657 662.621 914.543 661.667 914.543 661.667 914.543 661.667 914.543 660.713 915.429 659.759 916.314 659.759 916.314 658.805 917.2 658.805 917.2 657.851 918.086 657.851 918.086 657.851 918.086 657.851 918.086 656.896 918.971 656.896 919.857 656.896 919.857 655.942 919.857 655.942 919.857 655.942 920.743 655.942 921.628 654.988 921.628 654.988 921.628 638.77 921.628 638.77 921.628 638.77 921.628 636.862 923.4 634 926.057 634 928.714 634 930.486 636.862 930.486 638.77 930.486 654.988 930.486 654.988 930.486 654.988 930.486 654.988 930.486 654.988 930.486 654.988 933.143 655.942 935.8 657.851 938.457 660.713 938.457 660.713 938.457 660.713 938.457 661.667 939.343 661.667 939.343 662.621 939.343 662.621Z" fill="#7C7C7C" fill-rule="evenodd"/><path d="M913 710.24C913 668 913 668 913 668 913 668 913 668 913 668 913 668 914 682.4 915 690.08 915 696.8 915 709.28 915 709.28 915 710.24 915 715.04 915 716 915 716 915 716 915 716 914 714.08 913 712.16 913 710.24Z" fill="#FFFFFF" fill-rule="evenodd"/><path d="M935.25 710.222C935.25 712.148 936.125 715.037 937 716 935.25 714.074 934.375 712.148 934.375 710.222 934.375 701.556 934.375 701.556 934.375 701.556 934.375 669.778 934.375 669.778 934.375 669.778 934.375 668.815 932.625 664 930 664 935.25 664 936.125 668.815 936.125 671.704L935.25 710.222Z" fill="#FFFFFF" fill-rule="evenodd"/><path d="M906 597C906 590.925 910.477 586 916 586 921.523 586 926 590.925 926 597 926 603.075 921.523 608 916 608 910.477 608 906 603.075 906 597Z" fill="#FFFFFF" fill-rule="evenodd"/><path d="M959 853.5C959 872.001 945.121 887 928 887 910.879 887 897 872.001 897 853.5 897 834.998 910.879 820 928 820 945.121 820 959 834.998 959 853.5Z" fill="#F09D00" fill-rule="evenodd"/><path d="M959.5 854C959.5 872.502 945.621 887.5 928.5 887.5 911.379 887.5 897.5 872.502 897.5 854 897.5 835.498 911.379 820.5 928.5 820.5 945.621 820.5 959.5 835.498 959.5 854Z" stroke="#333333" stroke-width="2.86476" stroke-miterlimit="8" fill="none" fill-rule="evenodd"/><path d="M915.657 797.379C914.771 796.425 914.771 796.425 914.771 796.425 914.771 795.471 914.771 795.471 913.886 794.517 913.886 793.563 913.886 793.563 913.886 793.563 913.886 792.609 913 792.609 913 792.609 913 791.655 913 790.701 913 789.747 913 747.77 913 747.77 913 747.77 913 744.908 914.771 743 917.429 743 920.086 743 921.857 744.908 921.857 747.77 921.857 789.747 921.857 789.747 921.857 789.747 921.857 791.655 924.514 795.471 928.057 795.471 932.486 795.471 935.143 791.655 935.143 789.747 935.143 747.77 935.143 747.77 935.143 747.77 935.143 744.908 936.914 743 939.571 743 941.343 743 944 744.908 944 747.77 944 789.747 944 789.747 944 789.747 944 790.701 944 791.655 943.114 792.609 943.114 792.609 943.114 792.609 943.114 793.563 943.114 793.563 943.114 794.517 942.229 794.517 942.229 795.471 942.229 795.471 942.229 795.471 941.343 796.425 941.343 797.379 941.343 797.379 940.457 798.333 940.457 798.333 940.457 798.333 940.457 799.287 939.571 800.241 938.686 800.241 938.686 801.195 937.8 801.195 937.8 802.149 936.914 802.149 936.914 802.149 936.914 802.149 936.914 803.103 936.029 803.103 935.143 803.103 935.143 804.057 935.143 804.057 935.143 804.057 934.257 804.057 933.371 805.011 933.371 805.011 933.371 821.23 933.371 821.23 933.371 821.23 933.371 823.138 931.6 826 928.943 826 926.286 826 924.514 823.138 924.514 821.23 924.514 805.011 924.514 805.011 924.514 805.011 924.514 805.011 924.514 805.011 924.514 805.011 921.857 804.057 919.2 802.149 916.543 799.287 916.543 799.287 916.543 799.287 916.543 798.333 915.657 798.333 915.657 797.379 915.657 797.379Z" fill="#7C7C7C" fill-rule="evenodd"/><path d="M942 749.76C942 792 942 792 942 792 942 792 942 792 942 792 942 792 941 777.6 940 769.92 940 763.2 940 750.72 940 750.72 940 749.76 940 744.96 940 744 940 744 940 744 940 744 941 745.92 942 747.84 942 749.76Z" fill="#FFFFFF" fill-rule="evenodd"/><path d="M919.75 749.778C919.75 747.852 918.875 744.963 918 744 919.75 745.926 920.625 747.852 920.625 749.778 920.625 758.444 920.625 758.444 920.625 758.444 920.625 790.222 920.625 790.222 920.625 790.222 920.625 791.185 922.375 796 925 796 919.75 796 918.875 791.185 918.875 788.296L919.75 749.778Z" fill="#FFFFFF" fill-rule="evenodd"/><path d="M949 862.5C949 868.299 944.523 873 939 873 933.477 873 929 868.299 929 862.5 929 856.701 933.477 852 939 852 944.523 852 949 856.701 949 862.5Z" fill="#FFFFFF" fill-rule="evenodd"/></g></svg>