<svg width="880" height="720" xmlns="http://www.w3.org/2000/svg" xmlns:xlink="http://www.w3.org/1999/xlink" xml:space="preserve" overflow="hidden"><g transform="translate(-2696 -1367)"><path d="M2699 2087C3575 2087 3575 2087 3575 2087 3575 1574.75 3575 1574.75 3575 1574.75 3461.59 1462.07 3311.03 1392.17 3144.82 1388 3144.82 1388 3144.82 1388 3144.82 1388 3141.89 1388 3139.93 1388 3137 1388 3134.07 1388 3132.11 1388 3129.18 1388 3129.18 1388 3129.18 1388 3129.18 1388 2962.97 1392.17 2812.41 1462.07 2699 1574.75L2699 2087Z" fill="#E6EDF3" fill-rule="evenodd"/><path d="M2699 2087C3575 2087 3575 2087 3575 2087 3575 1681.34 3575 1681.34 3575 1681.34 3462.57 1546.81 3298.32 1458.17 3142.87 1454 3142.87 1454 3142.87 1454 3142.87 1454 3140.91 1454 3138.96 1454 3137 1454 3135.04 1454 3133.09 1454 3131.13 1454 3131.13 1454 3131.13 1454 3131.13 1454 2969.82 1458.17 2809.48 1541.6 2699 1680.29L2699 2087Z" fill="#FFF7E3" fill-rule="evenodd"/><path d="M3571.09 1645.49C3571.09 1644.44 3571.09 1643.4 3571.09 1642.36 3571.09 1629.85 3561.31 1620.46 3549.57 1620.46 3549.57 1620.46 3548.59 1620.46 3547.61 1620.46 3547.61 1619.42 3547.61 1618.38 3547.61 1617.33 3547.61 1604.82 3537.83 1595.44 3526.1 1595.44 3525.12 1595.44 3524.14 1595.44 3523.16 1595.44 3522.18 1582.93 3513.38 1573.54 3501.64 1573.54 3499.69 1573.54 3496.75 1573.54 3494.8 1574.59 3493.82 1563.12 3485.02 1553.73 3474.26 1553.73 3472.3 1553.73 3470.35 1553.73 3468.39 1554.78 3468.39 1542.27 3459.59 1531.84 3447.85 1531.84 3444.92 1531.84 3442.96 1532.88 3441 1532.88 3439.05 1522.46 3430.25 1514.11 3419.49 1514.11 3416.55 1514.11 3414.6 1515.16 3411.66 1516.2 3409.71 1505.77 3400.9 1497.43 3391.12 1497.43 3387.21 1497.43 3384.28 1498.48 3381.34 1499.52 3379.39 1490.13 3370.58 1482.84 3360.8 1482.84 3356.89 1482.84 3353.96 1482.84 3351.02 1484.92 3348.09 1475.54 3339.29 1469.28 3330.48 1469.28 3325.59 1469.28 3321.68 1470.32 3318.75 1473.45 3315.81 1465.11 3307.99 1458.86 3298.21 1458.86 3294.29 1458.86 3290.38 1459.9 3286.47 1463.03 3283.54 1454.69 3275.71 1449.47 3266.91 1449.47 3262.02 1449.47 3258.11 1451.56 3254.19 1454.69 3250.28 1447.39 3243.43 1442.17 3234.63 1442.17 3229.74 1442.17 3224.85 1444.26 3220.94 1447.39 3217.03 1441.13 3210.18 1436.96 3202.36 1436.96 3196.49 1436.96 3191.6 1439.05 3187.68 1443.22 3183.77 1436.96 3176.93 1432.79 3169.1 1432.79 3163.23 1432.79 3157.36 1435.92 3153.45 1441.13 3149.54 1435.92 3143.67 1431.75 3136.82 1431.75 3133.89 1431.75 3131.93 1432.79 3129 1433.83 3129 1446.34 3129 1446.34 3129 1446.34 3129.98 1446.34 3130.96 1446.34 3131.93 1446.34 3133.89 1445.3 3134.87 1444.26 3136.82 1444.26 3141.72 1444.26 3146.61 1449.47 3146.61 1454.69 3146.61 1459.9 3141.72 1465.11 3136.82 1465.11 3134.87 1465.11 3133.89 1464.07 3131.93 1464.07 3130.96 1463.03 3129.98 1463.03 3129 1463.03 3129 1475.54 3129 1475.54 3129 1475.54 3131.93 1476.58 3133.89 1477.62 3136.82 1477.62 3142.69 1477.62 3148.56 1474.5 3152.47 1470.32 3156.39 1475.54 3162.25 1478.67 3169.1 1478.67 3174.97 1478.67 3180.84 1475.54 3184.75 1471.37 3188.66 1477.62 3195.51 1481.79 3202.36 1481.79 3208.22 1481.79 3213.11 1479.71 3217.03 1476.58 3219.96 1482.84 3226.81 1487.01 3234.63 1487.01 3239.52 1487.01 3244.41 1485.96 3248.32 1482.84 3251.26 1490.13 3259.08 1495.35 3266.91 1495.35 3271.8 1495.35 3275.71 1493.26 3279.62 1491.18 3282.56 1498.48 3290.38 1503.69 3298.21 1503.69 3303.1 1503.69 3307.01 1502.65 3309.94 1500.56 3313.86 1508.9 3321.68 1515.16 3330.48 1515.16 3334.4 1515.16 3337.33 1514.11 3340.26 1512.03 3343.2 1521.41 3351.02 1527.67 3360.8 1527.67 3363.74 1527.67 3367.65 1526.63 3370.58 1525.58 3372.54 1534.97 3380.36 1543.31 3391.12 1543.31 3394.06 1543.31 3396.01 1542.27 3398.95 1541.22 3400.9 1551.65 3409.71 1559.99 3419.49 1559.99 3422.42 1559.99 3424.38 1558.95 3426.33 1557.91 3428.29 1569.37 3437.09 1577.71 3447.85 1577.71 3449.81 1577.71 3450.79 1577.71 3452.74 1576.67 3452.74 1589.18 3462.52 1599.61 3474.26 1599.61 3476.22 1599.61 3478.17 1598.57 3480.13 1598.57 3481.11 1610.04 3490.89 1618.38 3501.64 1618.38 3502.62 1618.38 3503.6 1618.38 3505.56 1618.38 3505.56 1630.89 3514.36 1640.27 3526.1 1640.27 3527.07 1640.27 3528.05 1640.27 3529.03 1640.27 3529.03 1641.31 3529.03 1642.36 3529.03 1642.36 3529.03 1654.87 3537.83 1665.3 3549.57 1665.3 3550.55 1665.3 3551.53 1665.3 3551.53 1665.3 3551.53 1666.34 3551.53 1667.38 3551.53 1668.42 3551.53 1680.93 3561.31 1691.36 3573.04 1691.36 3572.07 1692.4 3572.07 1694.49 3572.07 1695.53 3572.07 1699.7 3573.04 1702.83 3575 1707 3575 1645.49 3575 1645.49 3575 1645.49 3574.02 1645.49 3574.02 1645.49 3573.04 1645.49 3572.07 1645.49 3572.07 1645.49 3571.09 1645.49ZM3150.52 1389C3150.52 1394.21 3146.61 1398.38 3140.74 1398.38 3137.8 1398.38 3135.85 1397.34 3133.89 1395.26 3131.93 1394.21 3130.96 1394.21 3129 1394.21 3129 1407.77 3129 1407.77 3129 1407.77 3132.91 1409.85 3136.82 1410.9 3140.74 1410.9 3147.58 1410.9 3154.43 1407.77 3158.34 1401.51 3162.25 1407.77 3169.1 1412.98 3176.93 1412.98 3183.77 1412.98 3189.64 1408.81 3193.55 1403.6 3197.47 1410.9 3204.31 1416.11 3213.11 1416.11 3218.98 1416.11 3224.85 1414.02 3228.76 1408.81 3232.68 1417.15 3240.5 1422.36 3248.32 1422.36 3254.19 1422.36 3260.06 1420.28 3263.97 1416.11 3266.91 1424.45 3274.73 1430.71 3284.51 1430.71 3289.4 1430.71 3294.29 1428.62 3298.21 1425.49 3301.14 1433.83 3309.94 1440.09 3318.75 1440.09 3323.64 1440.09 3328.53 1439.05 3332.44 1435.92 3335.37 1445.3 3344.18 1452.6 3353.96 1452.6 3357.87 1452.6 3362.76 1450.51 3365.69 1448.43 3367.65 1458.86 3376.45 1466.15 3387.21 1466.15 3391.12 1466.15 3395.04 1465.11 3398.95 1463.03 3399.93 1474.5 3409.71 1482.84 3420.47 1482.84 3423.4 1482.84 3427.31 1481.79 3430.25 1480.75 3431.22 1492.22 3441 1501.6 3451.76 1501.6 3454.7 1501.6 3457.63 1500.56 3460.57 1499.52 3461.54 1512.03 3471.32 1521.41 3483.06 1521.41 3485.02 1521.41 3487.95 1520.37 3489.91 1520.37 3489.91 1520.37 3489.91 1521.41 3489.91 1521.41 3489.91 1534.97 3499.69 1545.39 3511.43 1545.39 3514.36 1545.39 3517.29 1544.35 3520.23 1543.31 3520.23 1555.82 3530.01 1566.25 3541.75 1566.25 3543.7 1566.25 3545.66 1566.25 3547.61 1565.2 3547.61 1566.25 3547.61 1566.25 3547.61 1567.29 3547.61 1579.8 3557.39 1590.23 3569.13 1590.23 3571.09 1590.23 3572.07 1590.23 3574.02 1590.23 3573.04 1591.27 3573.04 1593.35 3573.04 1594.4 3573.04 1597.52 3574.02 1600.65 3575 1603.78 3575 1574.59 3575 1574.59 3575 1574.59 3463.5 1464.07 3314.83 1394.21 3150.52 1389Z" fill="#BACEDE" fill-rule="evenodd"/><path d="M3575 1707C3575 1671.6 3575 1671.6 3575 1671.6 3469.37 1543.51 3316.79 1460.21 3146.61 1455 3145.63 1461.25 3141.72 1465.41 3136.82 1465.41 3134.87 1465.41 3133.89 1464.37 3131.93 1464.37 3130.96 1463.33 3129.98 1463.33 3129 1463.33 3129 1475.83 3129 1475.83 3129 1475.83 3131.93 1476.87 3133.89 1477.91 3136.82 1477.91 3142.69 1477.91 3148.56 1474.79 3152.47 1470.62 3156.39 1475.83 3162.25 1478.95 3169.1 1478.95 3174.97 1478.95 3180.84 1475.83 3184.75 1471.66 3188.66 1477.91 3195.51 1482.07 3202.36 1482.07 3208.22 1482.07 3213.11 1479.99 3217.03 1476.87 3219.96 1483.12 3226.81 1487.28 3234.63 1487.28 3239.52 1487.28 3244.41 1486.24 3248.32 1483.12 3251.26 1490.41 3259.08 1495.61 3266.91 1495.61 3271.8 1495.61 3275.71 1493.53 3279.62 1491.45 3282.56 1498.74 3290.38 1503.94 3298.21 1503.94 3303.1 1503.94 3307.01 1502.9 3309.94 1500.82 3313.86 1509.15 3321.68 1515.4 3330.48 1515.4 3334.4 1515.4 3337.33 1514.36 3340.26 1512.27 3343.2 1521.64 3351.02 1527.89 3360.8 1527.89 3363.74 1527.89 3367.65 1526.85 3370.58 1525.81 3372.54 1535.18 3380.36 1543.51 3391.12 1543.51 3394.06 1543.51 3396.01 1542.47 3398.95 1541.43 3400.9 1551.84 3409.71 1560.17 3419.49 1560.17 3422.42 1560.17 3424.38 1559.13 3426.33 1558.09 3428.29 1569.55 3437.09 1577.88 3447.85 1577.88 3449.81 1577.88 3450.79 1577.88 3452.74 1576.83 3452.74 1589.33 3462.52 1599.74 3474.26 1599.74 3476.22 1599.74 3478.17 1598.7 3480.13 1598.7 3481.11 1610.16 3490.89 1618.49 3501.64 1618.49 3502.62 1618.49 3503.6 1618.49 3505.56 1618.49 3505.56 1630.98 3514.36 1640.36 3526.1 1640.36 3527.07 1640.36 3528.05 1640.36 3529.03 1640.36 3529.03 1641.4 3529.03 1642.44 3529.03 1642.44 3529.03 1654.93 3537.83 1665.35 3549.57 1665.35 3550.55 1665.35 3551.53 1665.35 3551.53 1665.35 3551.53 1666.39 3551.53 1667.43 3551.53 1668.47 3551.53 1680.97 3561.31 1691.38 3573.04 1691.38 3572.07 1692.42 3572.07 1694.5 3572.07 1695.55 3572.07 1699.71 3573.04 1702.83 3575 1707Z" fill="#DECC9E" fill-rule="evenodd"/><path d="M3120.55 1441.13C3116.64 1435.92 3110.77 1432.79 3104.9 1432.79 3097.07 1432.79 3090.23 1436.96 3086.32 1443.22 3082.4 1439.05 3077.51 1436.96 3071.64 1436.96 3063.82 1436.96 3056.97 1441.13 3053.06 1447.39 3049.15 1444.26 3044.26 1442.17 3039.37 1442.17 3030.57 1442.17 3023.72 1447.39 3019.81 1454.69 3015.89 1451.56 3011.98 1449.47 3007.09 1449.47 2998.29 1449.47 2990.47 1454.69 2987.53 1463.03 2983.62 1459.9 2979.71 1458.86 2975.79 1458.86 2966.01 1458.86 2958.19 1465.11 2955.25 1473.45 2952.32 1470.32 2948.41 1469.28 2943.52 1469.28 2934.72 1469.28 2925.91 1475.54 2922.98 1484.92 2920.04 1482.84 2917.11 1482.84 2913.2 1482.84 2903.42 1482.84 2894.61 1490.13 2892.66 1499.52 2889.72 1498.48 2886.79 1497.43 2882.88 1497.43 2873.1 1497.43 2864.29 1505.77 2862.34 1516.2 2859.4 1515.16 2857.45 1514.11 2854.51 1514.11 2843.75 1514.11 2834.95 1522.46 2833 1532.88 2831.04 1532.88 2829.08 1531.84 2826.15 1531.84 2814.41 1531.84 2805.61 1542.27 2804.63 1554.78 2803.65 1553.73 2801.7 1553.73 2799.74 1553.73 2788.98 1553.73 2780.18 1563.12 2778.22 1574.59 2776.27 1573.54 2774.31 1573.54 2772.36 1573.54 2760.62 1573.54 2751.82 1582.93 2750.84 1595.44 2749.86 1595.44 2748.88 1595.44 2747.9 1595.44 2736.17 1595.44 2726.39 1604.82 2726.39 1617.33 2726.39 1618.38 2726.39 1619.42 2726.39 1620.46 2725.41 1620.46 2724.43 1620.46 2724.43 1620.46 2712.69 1620.46 2702.91 1629.85 2702.91 1642.36 2702.91 1643.4 2702.91 1644.44 2702.91 1645.49 2701.93 1645.49 2701.93 1645.49 2700.96 1645.49 2699.98 1645.49 2699.98 1645.49 2699 1645.49 2699 1707 2699 1707 2699 1707 2700.96 1702.83 2701.93 1699.7 2701.93 1695.53 2701.93 1694.49 2701.93 1692.4 2700.96 1691.36 2712.69 1691.36 2722.47 1680.93 2722.47 1668.42 2722.47 1667.38 2722.47 1666.34 2722.47 1665.3 2722.47 1665.3 2723.45 1665.3 2724.43 1665.3 2736.17 1665.3 2744.97 1654.87 2744.97 1642.36 2744.97 1642.36 2744.97 1641.31 2744.97 1640.27 2745.95 1640.27 2746.93 1640.27 2747.9 1640.27 2759.64 1640.27 2768.44 1630.89 2768.44 1618.38 2770.4 1618.38 2771.38 1618.38 2772.36 1618.38 2783.11 1618.38 2792.9 1610.04 2793.87 1598.57 2795.83 1598.57 2797.79 1599.61 2799.74 1599.61 2811.48 1599.61 2821.26 1589.18 2821.26 1576.67 2823.22 1577.71 2824.19 1577.71 2826.15 1577.71 2836.91 1577.71 2845.71 1569.37 2847.67 1557.91 2849.62 1558.95 2851.58 1559.99 2854.51 1559.99 2864.29 1559.99 2873.1 1551.65 2875.05 1541.22 2877.99 1542.27 2879.94 1543.31 2882.88 1543.31 2892.66 1543.31 2901.46 1534.97 2903.42 1525.58 2906.35 1526.63 2910.26 1527.67 2913.2 1527.67 2922.98 1527.67 2930.8 1521.41 2933.74 1512.03 2936.67 1514.11 2939.61 1515.16 2943.52 1515.16 2952.32 1515.16 2960.15 1508.9 2963.08 1500.56 2966.99 1502.65 2970.9 1503.69 2975.79 1503.69 2983.62 1503.69 2991.44 1498.48 2994.38 1491.18 2998.29 1493.26 3002.2 1495.35 3007.09 1495.35 3014.92 1495.35 3022.74 1490.13 3025.68 1482.84 3029.59 1485.96 3034.48 1487.01 3039.37 1487.01 3047.19 1487.01 3054.04 1482.84 3056.97 1476.58 3060.89 1479.71 3065.78 1481.79 3071.64 1481.79 3078.49 1481.79 3085.34 1477.62 3089.25 1471.37 3093.16 1475.54 3099.03 1478.67 3104.9 1478.67 3111.75 1478.67 3117.61 1475.54 3121.53 1470.32 3125.44 1474.5 3131.31 1476.58 3137.18 1476.58 3140.11 1476.58 3142.07 1475.54 3145 1474.5 3145 1463.03 3145 1463.03 3145 1463.03 3144.02 1463.03 3143.04 1463.03 3142.07 1464.07 3140.11 1464.07 3139.13 1465.11 3137.18 1465.11 3132.29 1465.11 3127.39 1459.9 3127.39 1454.69 3127.39 1449.47 3132.29 1444.26 3137.18 1444.26 3139.13 1444.26 3140.11 1445.3 3142.07 1446.34 3143.04 1446.34 3144.02 1446.34 3145 1446.34 3145 1433.83 3145 1433.83 3145 1433.83 3142.07 1432.79 3140.11 1431.75 3137.18 1431.75 3130.33 1431.75 3124.46 1435.92 3120.55 1441.13ZM3140.11 1395.26C3138.15 1397.34 3136.2 1398.38 3133.26 1398.38 3127.39 1398.38 3123.48 1394.21 3123.48 1389 2959.17 1394.21 2810.5 1464.07 2699 1574.59 2699 1603.78 2699 1603.78 2699 1603.78 2699.98 1600.65 2700.96 1597.52 2700.96 1594.4 2700.96 1593.35 2700.96 1591.27 2699.98 1590.23 2701.93 1590.23 2702.91 1590.23 2704.87 1590.23 2716.61 1590.23 2726.39 1579.8 2726.39 1567.29 2726.39 1566.25 2726.39 1566.25 2726.39 1565.2 2728.34 1566.25 2730.3 1566.25 2732.25 1566.25 2743.99 1566.25 2753.77 1555.82 2753.77 1543.31 2756.71 1544.35 2759.64 1545.39 2762.57 1545.39 2774.31 1545.39 2784.09 1534.97 2784.09 1521.41 2784.09 1521.41 2784.09 1520.37 2784.09 1520.37 2786.05 1520.37 2788.98 1521.41 2790.94 1521.41 2802.68 1521.41 2812.46 1512.03 2813.43 1499.52 2816.37 1500.56 2819.3 1501.6 2822.24 1501.6 2833 1501.6 2842.78 1492.22 2843.75 1480.75 2846.69 1481.79 2850.6 1482.84 2853.54 1482.84 2864.29 1482.84 2874.07 1474.5 2875.05 1463.03 2878.97 1465.11 2882.88 1466.15 2886.79 1466.15 2897.55 1466.15 2906.35 1458.86 2908.31 1448.43 2911.24 1450.51 2916.13 1452.6 2920.04 1452.6 2929.82 1452.6 2938.63 1445.3 2941.56 1435.92 2945.47 1439.05 2950.36 1440.09 2955.25 1440.09 2964.06 1440.09 2972.86 1433.83 2975.79 1425.49 2979.71 1428.62 2984.6 1430.71 2989.49 1430.71 2999.27 1430.71 3007.09 1424.45 3010.03 1416.11 3013.94 1420.28 3019.81 1422.36 3025.68 1422.36 3033.5 1422.36 3041.32 1417.15 3045.24 1408.81 3049.15 1414.02 3055.02 1416.11 3060.89 1416.11 3069.69 1416.11 3076.54 1410.9 3080.45 1403.6 3084.36 1408.81 3090.23 1412.98 3097.07 1412.98 3104.9 1412.98 3111.75 1407.77 3115.66 1401.51 3119.57 1407.77 3126.42 1410.9 3133.26 1410.9 3137.18 1410.9 3141.09 1409.85 3145 1407.77 3145 1394.21 3145 1394.21 3145 1394.21 3143.04 1394.21 3142.07 1394.21 3140.11 1395.26Z" fill="#BACEDE" fill-rule="evenodd"/><path d="M3137.18 1465.41C3132.29 1465.41 3128.37 1461.25 3127.39 1455 2957.21 1460.21 2803.65 1543.51 2699 1671.6 2699 1707 2699 1707 2699 1707 2700.96 1702.83 2701.93 1699.71 2701.93 1695.55 2701.93 1694.5 2701.93 1692.42 2700.96 1691.38 2712.69 1691.38 2722.47 1680.97 2722.47 1668.47 2722.47 1667.43 2722.47 1666.39 2722.47 1665.35 2722.47 1665.35 2723.45 1665.35 2724.43 1665.35 2736.17 1665.35 2744.97 1654.93 2744.97 1642.44 2744.97 1642.44 2744.97 1641.4 2744.97 1640.36 2745.95 1640.36 2746.93 1640.36 2747.9 1640.36 2759.64 1640.36 2768.44 1630.98 2768.44 1618.49 2770.4 1618.49 2771.38 1618.49 2772.36 1618.49 2783.11 1618.49 2792.9 1610.16 2793.87 1598.7 2795.83 1598.7 2797.79 1599.74 2799.74 1599.74 2811.48 1599.74 2821.26 1589.33 2821.26 1576.83 2823.22 1577.88 2824.19 1577.88 2826.15 1577.88 2836.91 1577.88 2845.71 1569.55 2847.67 1558.09 2849.62 1559.13 2851.58 1560.17 2854.51 1560.17 2864.29 1560.17 2873.1 1551.84 2875.05 1541.43 2877.99 1542.47 2879.94 1543.51 2882.88 1543.51 2892.66 1543.51 2901.46 1535.18 2903.42 1525.81 2906.35 1526.85 2910.26 1527.89 2913.2 1527.89 2922.98 1527.89 2930.8 1521.64 2933.74 1512.27 2936.67 1514.36 2939.61 1515.4 2943.52 1515.4 2952.32 1515.4 2960.15 1509.15 2963.08 1500.82 2966.99 1502.9 2970.9 1503.94 2975.79 1503.94 2983.62 1503.94 2991.44 1498.74 2994.38 1491.45 2998.29 1493.53 3002.2 1495.61 3007.09 1495.61 3014.92 1495.61 3022.74 1490.41 3025.68 1483.12 3029.59 1486.24 3034.48 1487.28 3039.37 1487.28 3047.19 1487.28 3054.04 1483.12 3056.97 1476.87 3060.89 1479.99 3065.78 1482.07 3071.64 1482.07 3078.49 1482.07 3085.34 1477.91 3089.25 1471.66 3093.16 1475.83 3099.03 1478.95 3104.9 1478.95 3111.75 1478.95 3117.61 1475.83 3121.53 1470.62 3125.44 1474.79 3131.31 1476.87 3137.18 1476.87 3140.11 1476.87 3143.04 1475.83 3145 1474.79 3145 1463.33 3145 1463.33 3145 1463.33 3144.02 1463.33 3143.04 1463.33 3142.07 1464.37 3140.11 1464.37 3139.13 1465.41 3137.18 1465.41Z" fill="#DECC9E" fill-rule="evenodd"/><path d="M3143 1398 3144 1444" stroke="#58585A" stroke-width="1.71893" stroke-miterlimit="8" fill="none" fill-rule="evenodd"/><path d="M3177.12 1447 3161 1445.85 3164.45 1397 3180 1397.57 3177.12 1447Z" stroke="#58585A" stroke-width="1.71893" stroke-miterlimit="8" fill="none" fill-rule="evenodd"/><path d="M3211 1451 3196 1449.27 3201 1403 3216 1404.73 3211 1451Z" stroke="#58585A" stroke-width="1.71893" stroke-miterlimit="8" fill="none" fill-rule="evenodd"/><path d="M3245.7 1456 3230 1453.11 3238.72 1408 3255 1410.89 3245.7 1456Z" stroke="#58585A" stroke-width="1.71893" stroke-miterlimit="8" fill="none" fill-rule="evenodd"/><path d="M3277.26 1466 3262 1461.93 3273.3 1416 3288 1420.65 3277.26 1466Z" stroke="#58585A" stroke-width="1.71893" stroke-miterlimit="8" fill="none" fill-rule="evenodd"/><path d="M3309.36 1474 3295 1468.81 3307.64 1425 3322 1429.04 3309.36 1474Z" stroke="#58585A" stroke-width="1.71893" stroke-miterlimit="8" fill="none" fill-rule="evenodd"/><path d="M3341.15 1487 3327 1480.79 3342.28 1439 3357 1444.65 3341.15 1487Z" stroke="#58585A" stroke-width="1.71893" stroke-miterlimit="8" fill="none" fill-rule="evenodd"/><path d="M3374.04 1500 3360 1493.71 3376.96 1452 3391 1458.29 3374.04 1500Z" stroke="#58585A" stroke-width="1.71893" stroke-miterlimit="8" fill="none" fill-rule="evenodd"/><path d="M3405.14 1515 3392 1508.22 3409.14 1467 3424 1473.78 3405.14 1515Z" stroke="#58585A" stroke-width="1.71893" stroke-miterlimit="8" fill="none" fill-rule="evenodd"/><path d="M3430.71 1532 3417 1522.75 3439.29 1484 3453 1492.1 3430.71 1532Z" stroke="#58585A" stroke-width="1.71893" stroke-miterlimit="8" fill="none" fill-rule="evenodd"/><path d="M3458.52 1551 3446 1541.83 3470.48 1504 3483 1513.74 3458.52 1551Z" stroke="#58585A" stroke-width="1.71893" stroke-miterlimit="8" fill="none" fill-rule="evenodd"/><path d="M3487.67 1572 3475 1562.26 3500.33 1525 3513 1535.32 3487.67 1572Z" stroke="#58585A" stroke-width="1.71893" stroke-miterlimit="8" fill="none" fill-rule="evenodd"/><path d="M3512.43 1595 3501 1583.5 3529 1549 3541 1560.5 3512.43 1595Z" stroke="#58585A" stroke-width="1.71893" stroke-miterlimit="8" fill="none" fill-rule="evenodd"/><path d="M3538.55 1617 3527 1605.5 3556.45 1571 3568 1582.5 3538.55 1617Z" stroke="#58585A" stroke-width="1.71893" stroke-miterlimit="8" fill="none" fill-rule="evenodd"/><path d="M3574 1630.55 3562.22 1644 3551 1632.31 3574 1606" stroke="#58585A" stroke-width="1.71893" stroke-miterlimit="8" fill="none" fill-rule="evenodd"/><path d="M3575 1616.51C3461.54 1493.25 3303.1 1417 3129 1417 3129 1425.36 3129 1425.36 3129 1425.36 3304.07 1425.36 3462.52 1503.7 3575 1628L3575 1616.51Z" fill="#E6EDF3" fill-rule="evenodd"/><path d="M3132 1398 3133 1444" stroke="#58585A" stroke-width="1.71893" stroke-miterlimit="8" fill="none" fill-rule="evenodd"/><path d="M3096.97 1447 3113 1445.85 3110.03 1397 3094 1397.57 3096.97 1447Z" stroke="#58585A" stroke-width="1.71893" stroke-miterlimit="8" fill="none" fill-rule="evenodd"/><path d="M3062.57 1451 3078 1449.27 3073.43 1403 3058 1404.73 3062.57 1451Z" stroke="#58585A" stroke-width="1.71893" stroke-miterlimit="8" fill="none" fill-rule="evenodd"/><path d="M3028.37 1456 3044 1453.11 3035.07 1408 3020 1410.89 3028.37 1456Z" stroke="#58585A" stroke-width="1.71893" stroke-miterlimit="8" fill="none" fill-rule="evenodd"/><path d="M2997.74 1466 3013 1461.93 3001.7 1416 2987 1420.65 2997.74 1466Z" stroke="#58585A" stroke-width="1.71893" stroke-miterlimit="8" fill="none" fill-rule="evenodd"/><path d="M2965.14 1474 2980 1468.81 2967.43 1425 2952 1429.04 2965.14 1474Z" stroke="#58585A" stroke-width="1.71893" stroke-miterlimit="8" fill="none" fill-rule="evenodd"/><path d="M2932.79 1487 2948 1480.79 2931.62 1439 2917 1444.65 2932.79 1487Z" stroke="#58585A" stroke-width="1.71893" stroke-miterlimit="8" fill="none" fill-rule="evenodd"/><path d="M2900.42 1500 2914 1493.71 2897.58 1452 2884 1458.29 2900.42 1500Z" stroke="#58585A" stroke-width="1.71893" stroke-miterlimit="8" fill="none" fill-rule="evenodd"/><path d="M2869.29 1515 2883 1508.22 2865.29 1467 2851 1473.78 2869.29 1515Z" stroke="#58585A" stroke-width="1.71893" stroke-miterlimit="8" fill="none" fill-rule="evenodd"/><path d="M2844.29 1532 2858 1522.75 2835.14 1484 2822 1492.1 2844.29 1532Z" stroke="#58585A" stroke-width="1.71893" stroke-miterlimit="8" fill="none" fill-rule="evenodd"/><path d="M2814.7 1551 2828 1541.83 2803.72 1504 2791 1513.74 2814.7 1551Z" stroke="#58585A" stroke-width="1.71893" stroke-miterlimit="8" fill="none" fill-rule="evenodd"/><path d="M2787.19 1572 2800 1562.26 2774.39 1525 2761 1535.32 2787.19 1572Z" stroke="#58585A" stroke-width="1.71893" stroke-miterlimit="8" fill="none" fill-rule="evenodd"/><path d="M2761 1595 2773 1583.5 2744.43 1549 2733 1560.5 2761 1595Z" stroke="#58585A" stroke-width="1.71893" stroke-miterlimit="8" fill="none" fill-rule="evenodd"/><path d="M2735.04 1617 2747 1605.5 2717.96 1571 2706 1582.5 2735.04 1617Z" stroke="#58585A" stroke-width="1.71893" stroke-miterlimit="8" fill="none" fill-rule="evenodd"/><path d="M2699 1616.51C2699 1628 2699 1628 2699 1628 2811.48 1503.7 2969.93 1425.36 3145 1425.36 3145 1417 3145 1417 3145 1417 2970.9 1417 2812.46 1493.25 2699 1616.51Z" fill="#E6EDF3" fill-rule="evenodd"/><path d="M3154 1456C3154 1446.61 3160.94 1439 3169.5 1439 3178.06 1439 3185 1446.61 3185 1456 3185 1465.39 3178.06 1473 3169.5 1473 3160.94 1473 3154 1465.39 3154 1456Z" stroke="#58585A" stroke-width="1.71893" stroke-miterlimit="8" fill="#FFF3A8" fill-rule="evenodd"/><path d="M3187 1460C3187 1451.16 3193.94 1444 3202.5 1444 3211.06 1444 3218 1451.16 3218 1460 3218 1468.84 3211.06 1476 3202.5 1476 3193.94 1476 3187 1468.84 3187 1460Z" stroke="#58585A" stroke-width="1.71893" stroke-miterlimit="8" fill="#FFF3A8" fill-rule="evenodd"/><path d="M3220 1465C3220 1456.16 3226.94 1449 3235.5 1449 3244.06 1449 3251 1456.16 3251 1465 3251 1473.84 3244.06 1481 3235.5 1481 3226.94 1481 3220 1473.84 3220 1465Z" stroke="#58585A" stroke-width="1.71893" stroke-miterlimit="8" fill="#FFF3A8" fill-rule="evenodd"/><path d="M3252 1473C3252 1463.61 3258.94 1456 3267.5 1456 3276.06 1456 3283 1463.61 3283 1473 3283 1482.39 3276.06 1490 3267.5 1490 3258.94 1490 3252 1482.39 3252 1473Z" stroke="#58585A" stroke-width="1.71893" stroke-miterlimit="8" fill="#FFF3A8" fill-rule="evenodd"/><path d="M3284 1482C3284 1473.16 3290.72 1466 3299 1466 3307.28 1466 3314 1473.16 3314 1482 3314 1490.84 3307.28 1498 3299 1498 3290.72 1498 3284 1490.84 3284 1482Z" stroke="#58585A" stroke-width="1.71893" stroke-miterlimit="8" fill="#FFF3A8" fill-rule="evenodd"/><path d="M3315 1492.5C3315 1483.39 3321.94 1476 3330.5 1476 3339.06 1476 3346 1483.39 3346 1492.5 3346 1501.61 3339.06 1509 3330.5 1509 3321.94 1509 3315 1501.61 3315 1492.5Z" stroke="#58585A" stroke-width="1.71893" stroke-miterlimit="8" fill="#FFF3A8" fill-rule="evenodd"/><path d="M3345 1506C3345 1497.16 3352.16 1490 3361 1490 3369.84 1490 3377 1497.16 3377 1506 3377 1514.84 3369.84 1522 3361 1522 3352.16 1522 3345 1514.84 3345 1506Z" stroke="#58585A" stroke-width="1.71893" stroke-miterlimit="8" fill="#FFF3A8" fill-rule="evenodd"/><path d="M3376 1521C3376 1511.61 3382.94 1504 3391.5 1504 3400.06 1504 3407 1511.61 3407 1521 3407 1530.39 3400.06 1538 3391.5 1538 3382.94 1538 3376 1530.39 3376 1521Z" stroke="#58585A" stroke-width="1.71893" stroke-miterlimit="8" fill="#FFF3A8" fill-rule="evenodd"/><path d="M3404 1537.5C3404 1528.39 3410.94 1521 3419.5 1521 3428.06 1521 3435 1528.39 3435 1537.5 3435 1546.61 3428.06 1554 3419.5 1554 3410.94 1554 3404 1546.61 3404 1537.5Z" stroke="#58585A" stroke-width="1.71893" stroke-miterlimit="8" fill="#FFF3A8" fill-rule="evenodd"/><path d="M3432 1555C3432 1545.61 3439.16 1538 3448 1538 3456.84 1538 3464 1545.61 3464 1555 3464 1564.39 3456.84 1572 3448 1572 3439.16 1572 3432 1564.39 3432 1555Z" stroke="#58585A" stroke-width="1.71893" stroke-miterlimit="8" fill="#FFF3A8" fill-rule="evenodd"/><path d="M3459 1577.5C3459 1568.39 3465.94 1561 3474.5 1561 3483.06 1561 3490 1568.39 3490 1577.5 3490 1586.61 3483.06 1594 3474.5 1594 3465.94 1594 3459 1586.61 3459 1577.5Z" stroke="#58585A" stroke-width="1.71893" stroke-miterlimit="8" fill="#FFF3A8" fill-rule="evenodd"/><path d="M3486 1596.5C3486 1587.39 3493.16 1580 3502 1580 3510.84 1580 3518 1587.39 3518 1596.5 3518 1605.61 3510.84 1613 3502 1613 3493.16 1613 3486 1605.61 3486 1596.5Z" stroke="#58585A" stroke-width="1.71893" stroke-miterlimit="8" fill="#FFF3A8" fill-rule="evenodd"/><path d="M3511 1618.5C3511 1609.39 3517.94 1602 3526.5 1602 3535.06 1602 3542 1609.39 3542 1618.5 3542 1627.61 3535.06 1635 3526.5 1635 3517.94 1635 3511 1627.61 3511 1618.5Z" stroke="#58585A" stroke-width="1.71893" stroke-miterlimit="8" fill="#FFF3A8" fill-rule="evenodd"/><path d="M3535 1643.5C3535 1634.39 3541.72 1627 3550 1627 3558.28 1627 3565 1634.39 3565 1643.5 3565 1652.61 3558.28 1660 3550 1660 3541.72 1660 3535 1652.61 3535 1643.5Z" stroke="#58585A" stroke-width="1.71893" stroke-miterlimit="8" fill="#FFF3A8" fill-rule="evenodd"/><path d="M3575 1652C3574.06 1652 3574.06 1652 3573.11 1652 3564.61 1652 3558 1659.44 3558 1669 3558 1677.5 3564.61 1686 3573.11 1686 3574.06 1686 3574.06 1684.94 3575 1684.94" stroke="#58585A" stroke-width="1.71893" stroke-miterlimit="8" fill="#FFF3A8" fill-rule="evenodd"/><path d="M3575 1652C3574.06 1652 3574.06 1652 3573.11 1652 3564.61 1652 3558 1659.44 3558 1669 3558 1677.5 3564.61 1686 3573.11 1686 3574.06 1686 3574.06 1684.94 3575 1684.94" stroke="#58585A" stroke-width="1.71893" stroke-miterlimit="8" fill="none" fill-rule="evenodd"/><path d="M3158 1387.5C3158 1377.83 3165.16 1370 3174 1370 3182.84 1370 3190 1377.83 3190 1387.5 3190 1397.16 3182.84 1405 3174 1405 3165.16 1405 3158 1397.16 3158 1387.5Z" stroke="#58585A" stroke-width="1.71893" stroke-miterlimit="8" fill="#FFF3A8" fill-rule="evenodd"/><path d="M3196 1391.5C3196 1381.84 3203.16 1374 3212 1374 3220.84 1374 3228 1381.84 3228 1391.5 3228 1401.17 3220.84 1409 3212 1409 3203.16 1409 3196 1401.17 3196 1391.5Z" stroke="#58585A" stroke-width="1.71893" stroke-miterlimit="8" fill="#FFF3A8" fill-rule="evenodd"/><path d="M3232 1397.5C3232 1387.84 3239.16 1380 3248 1380 3256.84 1380 3264 1387.84 3264 1397.5 3264 1407.16 3256.84 1415 3248 1415 3239.16 1415 3232 1407.16 3232 1397.5Z" stroke="#58585A" stroke-width="1.71893" stroke-miterlimit="8" fill="#FFF3A8" fill-rule="evenodd"/><path d="M3268 1407.5C3268 1397.84 3275.39 1390 3284.5 1390 3293.61 1390 3301 1397.84 3301 1407.5 3301 1417.16 3293.61 1425 3284.5 1425 3275.39 1425 3268 1417.16 3268 1407.5Z" stroke="#58585A" stroke-width="1.71893" stroke-miterlimit="8" fill="#FFF3A8" fill-rule="evenodd"/><path d="M3303 1417C3303 1407.61 3310.39 1400 3319.5 1400 3328.61 1400 3336 1407.61 3336 1417 3336 1426.39 3328.61 1434 3319.5 1434 3310.39 1434 3303 1426.39 3303 1417Z" stroke="#58585A" stroke-width="1.71893" stroke-miterlimit="8" fill="#FFF3A8" fill-rule="evenodd"/><path d="M3338 1429.5C3338 1419.84 3345.16 1412 3354 1412 3362.84 1412 3370 1419.84 3370 1429.5 3370 1439.16 3362.84 1447 3354 1447 3345.16 1447 3338 1439.16 3338 1429.5Z" stroke="#58585A" stroke-width="1.71893" stroke-miterlimit="8" fill="#FFF3A8" fill-rule="evenodd"/><path d="M3372 1443C3372 1433.61 3379.16 1426 3388 1426 3396.84 1426 3404 1433.61 3404 1443 3404 1452.39 3396.84 1460 3388 1460 3379.16 1460 3372 1452.39 3372 1443Z" stroke="#58585A" stroke-width="1.71893" stroke-miterlimit="8" fill="#FFF3A8" fill-rule="evenodd"/><path d="M3404 1460C3404 1450.61 3411.16 1443 3420 1443 3428.84 1443 3436 1450.61 3436 1460 3436 1469.39 3428.84 1477 3420 1477 3411.16 1477 3404 1469.39 3404 1460Z" stroke="#58585A" stroke-width="1.71893" stroke-miterlimit="8" fill="#FFF3A8" fill-rule="evenodd"/><path d="M3436 1479C3436 1469.61 3443.16 1462 3452 1462 3460.84 1462 3468 1469.61 3468 1479 3468 1488.39 3460.84 1496 3452 1496 3443.16 1496 3436 1488.39 3436 1479Z" stroke="#58585A" stroke-width="1.71893" stroke-miterlimit="8" fill="#FFF3A8" fill-rule="evenodd"/><path d="M3467 1498C3467 1488.61 3474.16 1481 3483 1481 3491.84 1481 3499 1488.61 3499 1498 3499 1507.39 3491.84 1515 3483 1515 3474.16 1515 3467 1507.39 3467 1498Z" stroke="#58585A" stroke-width="1.71893" stroke-miterlimit="8" fill="#FFF3A8" fill-rule="evenodd"/><path d="M3496 1522C3496 1512.61 3503.16 1505 3512 1505 3520.84 1505 3528 1512.61 3528 1522 3528 1531.39 3520.84 1539 3512 1539 3503.16 1539 3496 1531.39 3496 1522Z" stroke="#58585A" stroke-width="1.71893" stroke-miterlimit="8" fill="#FFF3A8" fill-rule="evenodd"/><path d="M3526 1543.5C3526 1533.83 3533.16 1526 3542 1526 3550.84 1526 3558 1533.83 3558 1543.5 3558 1553.16 3550.84 1561 3542 1561 3533.16 1561 3526 1553.16 3526 1543.5Z" stroke="#58585A" stroke-width="1.71893" stroke-miterlimit="8" fill="#FFF3A8" fill-rule="evenodd"/><path d="M3575 1551.03C3573.09 1551.03 3571.18 1550 3569.27 1550 3560.68 1550 3554 1558.24 3554 1567.52 3554 1576.79 3560.68 1584 3569.27 1584 3571.18 1584 3573.09 1584 3575 1582.97" stroke="#58585A" stroke-width="1.71893" stroke-miterlimit="8" fill="#FFF3A8" fill-rule="evenodd"/><path d="M3575 1551.03C3573.09 1551.03 3571.18 1550 3569.27 1550 3560.68 1550 3554 1558.24 3554 1567.52 3554 1576.79 3560.68 1584 3569.27 1584 3571.18 1584 3573.09 1584 3575 1582.97" stroke="#58585A" stroke-width="1.71893" stroke-miterlimit="8" fill="none" fill-rule="evenodd"/><path d="M3547 1637C3547 1633.69 3549.46 1631 3552.5 1631 3555.54 1631 3558 1633.69 3558 1637 3558 1640.31 3555.54 1643 3552.5 1643 3549.46 1643 3547 1640.31 3547 1637Z" fill="#FFFFFF" fill-rule="evenodd"/><path d="M3523 1611.5C3523 1607.91 3525.69 1605 3529 1605 3532.31 1605 3535 1607.91 3535 1611.5 3535 1615.09 3532.31 1618 3529 1618 3525.69 1618 3523 1615.09 3523 1611.5Z" fill="#FFFFFF" fill-rule="evenodd"/><path d="M3501 1590C3501 1586.69 3503.69 1584 3507 1584 3510.31 1584 3513 1586.69 3513 1590 3513 1593.31 3510.31 1596 3507 1596 3503.69 1596 3501 1593.31 3501 1590Z" fill="#FFFFFF" fill-rule="evenodd"/><path d="M3472 1569.5C3472 1565.91 3474.69 1563 3478 1563 3481.31 1563 3484 1565.91 3484 1569.5 3484 1573.09 3481.31 1576 3478 1576 3474.69 1576 3472 1573.09 3472 1569.5Z" fill="#FFFFFF" fill-rule="evenodd"/><path d="M3447 1548C3447 1544.69 3449.69 1542 3453 1542 3456.31 1542 3459 1544.69 3459 1548 3459 1551.31 3456.31 1554 3453 1554 3449.69 1554 3447 1551.31 3447 1548Z" fill="#FFFFFF" fill-rule="evenodd"/><path d="M3419 1529C3419 1525.69 3421.69 1523 3425 1523 3428.31 1523 3431 1525.69 3431 1529 3431 1532.31 3428.31 1535 3425 1535 3421.69 1535 3419 1532.31 3419 1529Z" fill="#FFFFFF" fill-rule="evenodd"/><path d="M3388 1514.5C3388 1510.91 3390.69 1508 3394 1508 3397.31 1508 3400 1510.91 3400 1514.5 3400 1518.09 3397.31 1521 3394 1521 3390.69 1521 3388 1518.09 3388 1514.5Z" fill="#FFFFFF" fill-rule="evenodd"/><path d="M3358 1500C3358 1496.69 3360.69 1494 3364 1494 3367.31 1494 3370 1496.69 3370 1500 3370 1503.31 3367.31 1506 3364 1506 3360.69 1506 3358 1503.31 3358 1500Z" fill="#FFFFFF" fill-rule="evenodd"/><path d="M3329 1487.5C3329 1483.91 3331.69 1481 3335 1481 3338.31 1481 3341 1483.91 3341 1487.5 3341 1491.09 3338.31 1494 3335 1494 3331.69 1494 3329 1491.09 3329 1487.5Z" fill="#FFFFFF" fill-rule="evenodd"/><path d="M3298 1474.5C3298 1470.91 3300.46 1468 3303.5 1468 3306.54 1468 3309 1470.91 3309 1474.5 3309 1478.09 3306.54 1481 3303.5 1481 3300.46 1481 3298 1478.09 3298 1474.5Z" fill="#FFFFFF" fill-rule="evenodd"/><path d="M3266 1466.5C3266 1462.91 3268.69 1460 3272 1460 3275.31 1460 3278 1462.91 3278 1466.5 3278 1470.09 3275.31 1473 3272 1473 3268.69 1473 3266 1470.09 3266 1466.5Z" fill="#FFFFFF" fill-rule="evenodd"/><path d="M3231 1461.5C3231 1457.91 3233.69 1455 3237 1455 3240.31 1455 3243 1457.91 3243 1461.5 3243 1465.09 3240.31 1468 3237 1468 3233.69 1468 3231 1465.09 3231 1461.5Z" fill="#FFFFFF" fill-rule="evenodd"/><path d="M3198 1455.5C3198 1451.91 3200.46 1449 3203.5 1449 3206.54 1449 3209 1451.91 3209 1455.5 3209 1459.09 3206.54 1462 3203.5 1462 3200.46 1462 3198 1459.09 3198 1455.5Z" fill="#FFFFFF" fill-rule="evenodd"/><path d="M3165 1450.5C3165 1446.91 3167.46 1444 3170.5 1444 3173.54 1444 3176 1446.91 3176 1450.5 3176 1454.09 3173.54 1457 3170.5 1457 3167.46 1457 3165 1454.09 3165 1450.5Z" fill="#FFFFFF" fill-rule="evenodd"/><path d="M3169 1383C3169 1379.69 3171.69 1377 3175 1377 3178.31 1377 3181 1379.69 3181 1383 3181 1386.31 3178.31 1389 3175 1389 3171.69 1389 3169 1386.31 3169 1383Z" fill="#FFFFFF" fill-rule="evenodd"/><path d="M3208 1388C3208 1384.69 3210.46 1382 3213.5 1382 3216.54 1382 3219 1384.69 3219 1388 3219 1391.31 3216.54 1394 3213.5 1394 3210.46 1394 3208 1391.31 3208 1388Z" fill="#FFFFFF" fill-rule="evenodd"/><path d="M3244 1394.5C3244 1390.91 3246.46 1388 3249.5 1388 3252.54 1388 3255 1390.91 3255 1394.5 3255 1398.09 3252.54 1401 3249.5 1401 3246.46 1401 3244 1398.09 3244 1394.5Z" fill="#FFFFFF" fill-rule="evenodd"/><path d="M3279 1404.5C3279 1400.91 3281.69 1398 3285 1398 3288.31 1398 3291 1400.91 3291 1404.5 3291 1408.09 3288.31 1411 3285 1411 3281.69 1411 3279 1408.09 3279 1404.5Z" fill="#FFFFFF" fill-rule="evenodd"/><path d="M3315 1414.5C3315 1410.91 3317.69 1408 3321 1408 3324.31 1408 3327 1410.91 3327 1414.5 3327 1418.09 3324.31 1421 3321 1421 3317.69 1421 3315 1418.09 3315 1414.5Z" fill="#FFFFFF" fill-rule="evenodd"/><path d="M3348 1426C3348 1422.69 3350.69 1420 3354 1420 3357.31 1420 3360 1422.69 3360 1426 3360 1429.31 3357.31 1432 3354 1432 3350.69 1432 3348 1429.31 3348 1426Z" fill="#FFFFFF" fill-rule="evenodd"/><path d="M3384 1439C3384 1435.69 3386.46 1433 3389.5 1433 3392.54 1433 3395 1435.69 3395 1439 3395 1442.31 3392.54 1445 3389.5 1445 3386.46 1445 3384 1442.31 3384 1439Z" fill="#FFFFFF" fill-rule="evenodd"/><path d="M3417 1457C3417 1453.69 3419.46 1451 3422.5 1451 3425.54 1451 3428 1453.69 3428 1457 3428 1460.31 3425.54 1463 3422.5 1463 3419.46 1463 3417 1460.31 3417 1457Z" fill="#FFFFFF" fill-rule="evenodd"/><path d="M3448 1474C3448 1470.69 3450.69 1468 3454 1468 3457.31 1468 3460 1470.69 3460 1474 3460 1477.31 3457.31 1480 3454 1480 3450.69 1480 3448 1477.31 3448 1474Z" fill="#FFFFFF" fill-rule="evenodd"/><path d="M3478 1494.5C3478 1490.91 3480.69 1488 3484 1488 3487.31 1488 3490 1490.91 3490 1494.5 3490 1498.09 3487.31 1501 3484 1501 3480.69 1501 3478 1498.09 3478 1494.5Z" fill="#FFFFFF" fill-rule="evenodd"/><path d="M3510 1519C3510 1515.69 3512.69 1513 3516 1513 3519.31 1513 3522 1515.69 3522 1519 3522 1522.31 3519.31 1525 3516 1525 3512.69 1525 3510 1522.31 3510 1519Z" fill="#FFFFFF" fill-rule="evenodd"/><path d="M3539 1538.5C3539 1534.91 3541.69 1532 3545 1532 3548.31 1532 3551 1534.91 3551 1538.5 3551 1542.09 3548.31 1545 3545 1545 3541.69 1545 3539 1542.09 3539 1538.5Z" fill="#FFFFFF" fill-rule="evenodd"/><path d="M3564 1562.5C3564 1558.91 3566.46 1556 3569.5 1556 3572.54 1556 3575 1558.91 3575 1562.5 3575 1566.09 3572.54 1569 3569.5 1569 3566.46 1569 3564 1566.09 3564 1562.5Z" fill="#FFFFFF" fill-rule="evenodd"/><path d="M3089 1456C3089 1446.61 3096.16 1439 3105 1439 3113.84 1439 3121 1446.61 3121 1456 3121 1465.39 3113.84 1473 3105 1473 3096.16 1473 3089 1465.39 3089 1456Z" stroke="#58585A" stroke-width="1.71893" stroke-miterlimit="8" fill="#FFF3A8" fill-rule="evenodd"/><path d="M3056 1460C3056 1451.16 3062.94 1444 3071.5 1444 3080.06 1444 3087 1451.16 3087 1460 3087 1468.84 3080.06 1476 3071.5 1476 3062.94 1476 3056 1468.84 3056 1460Z" stroke="#58585A" stroke-width="1.71893" stroke-miterlimit="8" fill="#FFF3A8" fill-rule="evenodd"/><path d="M3024 1465C3024 1456.16 3030.72 1449 3039 1449 3047.28 1449 3054 1456.16 3054 1465 3054 1473.84 3047.28 1481 3039 1481 3030.72 1481 3024 1473.84 3024 1465Z" stroke="#58585A" stroke-width="1.71893" stroke-miterlimit="8" fill="#FFF3A8" fill-rule="evenodd"/><path d="M2991 1473C2991 1463.61 2997.94 1456 3006.5 1456 3015.06 1456 3022 1463.61 3022 1473 3022 1482.39 3015.06 1490 3006.5 1490 2997.94 1490 2991 1482.39 2991 1473Z" stroke="#58585A" stroke-width="1.71893" stroke-miterlimit="8" fill="#FFF3A8" fill-rule="evenodd"/><path d="M2960 1482C2960 1473.16 2966.94 1466 2975.5 1466 2984.06 1466 2991 1473.16 2991 1482 2991 1490.84 2984.06 1498 2975.5 1498 2966.94 1498 2960 1490.84 2960 1482Z" stroke="#58585A" stroke-width="1.71893" stroke-miterlimit="8" fill="#FFF3A8" fill-rule="evenodd"/><path d="M2928 1492.5C2928 1483.39 2934.94 1476 2943.5 1476 2952.06 1476 2959 1483.39 2959 1492.5 2959 1501.61 2952.06 1509 2943.5 1509 2934.94 1509 2928 1501.61 2928 1492.5Z" stroke="#58585A" stroke-width="1.71893" stroke-miterlimit="8" fill="#FFF3A8" fill-rule="evenodd"/><path d="M2898 1506C2898 1497.16 2904.94 1490 2913.5 1490 2922.06 1490 2929 1497.16 2929 1506 2929 1514.84 2922.06 1522 2913.5 1522 2904.94 1522 2898 1514.84 2898 1506Z" stroke="#58585A" stroke-width="1.71893" stroke-miterlimit="8" fill="#FFF3A8" fill-rule="evenodd"/><path d="M2867 1521C2867 1511.61 2873.94 1504 2882.5 1504 2891.06 1504 2898 1511.61 2898 1521 2898 1530.39 2891.06 1538 2882.5 1538 2873.94 1538 2867 1530.39 2867 1521Z" stroke="#58585A" stroke-width="1.71893" stroke-miterlimit="8" fill="#FFF3A8" fill-rule="evenodd"/><path d="M2839 1537.5C2839 1528.39 2845.94 1521 2854.5 1521 2863.06 1521 2870 1528.39 2870 1537.5 2870 1546.61 2863.06 1554 2854.5 1554 2845.94 1554 2839 1546.61 2839 1537.5Z" stroke="#58585A" stroke-width="1.71893" stroke-miterlimit="8" fill="#FFF3A8" fill-rule="evenodd"/><path d="M2811 1555C2811 1545.61 2817.94 1538 2826.5 1538 2835.06 1538 2842 1545.61 2842 1555 2842 1564.39 2835.06 1572 2826.5 1572 2817.94 1572 2811 1564.39 2811 1555Z" stroke="#58585A" stroke-width="1.71893" stroke-miterlimit="8" fill="#FFF3A8" fill-rule="evenodd"/><path d="M2784 1577.5C2784 1568.39 2790.94 1561 2799.5 1561 2808.06 1561 2815 1568.39 2815 1577.5 2815 1586.61 2808.06 1594 2799.5 1594 2790.94 1594 2784 1586.61 2784 1577.5Z" stroke="#58585A" stroke-width="1.71893" stroke-miterlimit="8" fill="#FFF3A8" fill-rule="evenodd"/><path d="M2757 1596.5C2757 1587.39 2763.94 1580 2772.5 1580 2781.06 1580 2788 1587.39 2788 1596.5 2788 1605.61 2781.06 1613 2772.5 1613 2763.94 1613 2757 1605.61 2757 1596.5Z" stroke="#58585A" stroke-width="1.71893" stroke-miterlimit="8" fill="#FFF3A8" fill-rule="evenodd"/><path d="M2732 1618.5C2732 1609.39 2738.94 1602 2747.5 1602 2756.06 1602 2763 1609.39 2763 1618.5 2763 1627.61 2756.06 1635 2747.5 1635 2738.94 1635 2732 1627.61 2732 1618.5Z" stroke="#58585A" stroke-width="1.71893" stroke-miterlimit="8" fill="#FFF3A8" fill-rule="evenodd"/><path d="M2709 1643.5C2709 1634.39 2715.72 1627 2724 1627 2732.28 1627 2739 1634.39 2739 1643.5 2739 1652.61 2732.28 1660 2724 1660 2715.72 1660 2709 1652.61 2709 1643.5Z" stroke="#58585A" stroke-width="1.71893" stroke-miterlimit="8" fill="#FFF3A8" fill-rule="evenodd"/><path d="M2699 1684.94C2700 1684.94 2700 1686 2701 1686 2710 1686 2717 1677.5 2717 1669 2717 1659.44 2710 1652 2701 1652 2700 1652 2700 1652 2699 1652" stroke="#58585A" stroke-width="1.71893" stroke-miterlimit="8" fill="#FFF3A8" fill-rule="evenodd"/><path d="M2699 1684.94C2700 1684.94 2700 1686 2701 1686 2710 1686 2717 1677.5 2717 1669 2717 1659.44 2710 1652 2701 1652 2700 1652 2700 1652 2699 1652" stroke="#58585A" stroke-width="1.71893" stroke-miterlimit="8" fill="none" fill-rule="evenodd"/><path d="M3083 1387.5C3083 1377.83 3090.39 1370 3099.5 1370 3108.61 1370 3116 1377.83 3116 1387.5 3116 1397.16 3108.61 1405 3099.5 1405 3090.39 1405 3083 1397.16 3083 1387.5Z" stroke="#58585A" stroke-width="1.71893" stroke-miterlimit="8" fill="#FFF3A8" fill-rule="evenodd"/><path d="M3046 1391.5C3046 1381.84 3053.39 1374 3062.5 1374 3071.61 1374 3079 1381.84 3079 1391.5 3079 1401.17 3071.61 1409 3062.5 1409 3053.39 1409 3046 1401.17 3046 1391.5Z" stroke="#58585A" stroke-width="1.71893" stroke-miterlimit="8" fill="#FFF3A8" fill-rule="evenodd"/><path d="M3009 1399C3009 1389.61 3016.39 1382 3025.5 1382 3034.61 1382 3042 1389.61 3042 1399 3042 1408.39 3034.61 1416 3025.5 1416 3016.39 1416 3009 1408.39 3009 1399Z" stroke="#58585A" stroke-width="1.71893" stroke-miterlimit="8" fill="#FFF3A8" fill-rule="evenodd"/><path d="M2974 1407.5C2974 1397.84 2981.16 1390 2990 1390 2998.84 1390 3006 1397.84 3006 1407.5 3006 1417.16 2998.84 1425 2990 1425 2981.16 1425 2974 1417.16 2974 1407.5Z" stroke="#58585A" stroke-width="1.71893" stroke-miterlimit="8" fill="#FFF3A8" fill-rule="evenodd"/><path d="M2938 1417C2938 1407.61 2945.39 1400 2954.5 1400 2963.61 1400 2971 1407.61 2971 1417 2971 1426.39 2963.61 1434 2954.5 1434 2945.39 1434 2938 1426.39 2938 1417Z" stroke="#58585A" stroke-width="1.71893" stroke-miterlimit="8" fill="#FFF3A8" fill-rule="evenodd"/><path d="M2905 1429.5C2905 1419.84 2912.16 1412 2921 1412 2929.84 1412 2937 1419.84 2937 1429.5 2937 1439.16 2929.84 1447 2921 1447 2912.16 1447 2905 1439.16 2905 1429.5Z" stroke="#58585A" stroke-width="1.71893" stroke-miterlimit="8" fill="#FFF3A8" fill-rule="evenodd"/><path d="M2870 1443C2870 1433.61 2877.16 1426 2886 1426 2894.84 1426 2902 1433.61 2902 1443 2902 1452.39 2894.84 1460 2886 1460 2877.16 1460 2870 1452.39 2870 1443Z" stroke="#58585A" stroke-width="1.71893" stroke-miterlimit="8" fill="#FFF3A8" fill-rule="evenodd"/><path d="M2838 1460C2838 1450.61 2845.16 1443 2854 1443 2862.84 1443 2870 1450.61 2870 1460 2870 1469.39 2862.84 1477 2854 1477 2845.16 1477 2838 1469.39 2838 1460Z" stroke="#58585A" stroke-width="1.71893" stroke-miterlimit="8" fill="#FFF3A8" fill-rule="evenodd"/><path d="M2806 1479C2806 1469.61 2813.16 1462 2822 1462 2830.84 1462 2838 1469.61 2838 1479 2838 1488.39 2830.84 1496 2822 1496 2813.16 1496 2806 1488.39 2806 1479Z" stroke="#58585A" stroke-width="1.71893" stroke-miterlimit="8" fill="#FFF3A8" fill-rule="evenodd"/><path d="M2775 1498C2775 1488.61 2782.39 1481 2791.5 1481 2800.61 1481 2808 1488.61 2808 1498 2808 1507.39 2800.61 1515 2791.5 1515 2782.39 1515 2775 1507.39 2775 1498Z" stroke="#58585A" stroke-width="1.71893" stroke-miterlimit="8" fill="#FFF3A8" fill-rule="evenodd"/><path d="M2746 1522C2746 1512.61 2753.16 1505 2762 1505 2770.84 1505 2778 1512.61 2778 1522 2778 1531.39 2770.84 1539 2762 1539 2753.16 1539 2746 1531.39 2746 1522Z" stroke="#58585A" stroke-width="1.71893" stroke-miterlimit="8" fill="#FFF3A8" fill-rule="evenodd"/><path d="M2716 1543.5C2716 1533.83 2723.16 1526 2732 1526 2740.84 1526 2748 1533.83 2748 1543.5 2748 1553.16 2740.84 1561 2732 1561 2723.16 1561 2716 1553.16 2716 1543.5Z" stroke="#58585A" stroke-width="1.71893" stroke-miterlimit="8" fill="#FFF3A8" fill-rule="evenodd"/><path d="M2699 1582.97C2701 1584 2703 1584 2705 1584 2714 1584 2721 1576.79 2721 1567.52 2721 1558.24 2714 1550 2705 1550 2703 1550 2701 1551.03 2699 1551.03" stroke="#58585A" stroke-width="1.71893" stroke-miterlimit="8" fill="#FFF3A8" fill-rule="evenodd"/><path d="M2699 1582.97C2701 1584 2703 1584 2705 1584 2714 1584 2721 1576.79 2721 1567.52 2721 1558.24 2714 1550 2705 1550 2703 1550 2701 1551.03 2699 1551.03" stroke="#58585A" stroke-width="1.71893" stroke-miterlimit="8" fill="none" fill-rule="evenodd"/><path d="M2718 1637.5C2718 1633.91 2720.46 1631 2723.5 1631 2726.54 1631 2729 1633.91 2729 1637.5 2729 1641.09 2726.54 1644 2723.5 1644 2720.46 1644 2718 1641.09 2718 1637.5Z" fill="#FFFFFF" fill-rule="evenodd"/><path d="M2741 1612.5C2741 1608.91 2743.69 1606 2747 1606 2750.31 1606 2753 1608.91 2753 1612.5 2753 1616.09 2750.31 1619 2747 1619 2743.69 1619 2741 1616.09 2741 1612.5Z" fill="#FFFFFF" fill-rule="evenodd"/><path d="M2764 1590.5C2764 1586.91 2766.46 1584 2769.5 1584 2772.54 1584 2775 1586.91 2775 1590.5 2775 1594.09 2772.54 1597 2769.5 1597 2766.46 1597 2764 1594.09 2764 1590.5Z" fill="#FFFFFF" fill-rule="evenodd"/><path d="M2792 1571C2792 1567.69 2794.69 1565 2798 1565 2801.31 1565 2804 1567.69 2804 1571 2804 1574.31 2801.31 1577 2798 1577 2794.69 1577 2792 1574.31 2792 1571Z" fill="#FFFFFF" fill-rule="evenodd"/><path d="M2819 1549.5C2819 1545.91 2821.69 1543 2825 1543 2828.31 1543 2831 1545.91 2831 1549.5 2831 1553.09 2828.31 1556 2825 1556 2821.69 1556 2819 1553.09 2819 1549.5Z" fill="#FFFFFF" fill-rule="evenodd"/><path d="M2849 1531.5C2849 1527.91 2851.69 1525 2855 1525 2858.31 1525 2861 1527.91 2861 1531.5 2861 1535.09 2858.31 1538 2855 1538 2851.69 1538 2849 1535.09 2849 1531.5Z" fill="#FFFFFF" fill-rule="evenodd"/><path d="M2878 1513.5C2878 1509.91 2880.69 1507 2884 1507 2887.31 1507 2890 1509.91 2890 1513.5 2890 1517.09 2887.31 1520 2884 1520 2880.69 1520 2878 1517.09 2878 1513.5Z" fill="#FFFFFF" fill-rule="evenodd"/><path d="M2909 1498.5C2909 1494.91 2911.69 1492 2915 1492 2918.31 1492 2921 1494.91 2921 1498.5 2921 1502.09 2918.31 1505 2915 1505 2911.69 1505 2909 1502.09 2909 1498.5Z" fill="#FFFFFF" fill-rule="evenodd"/><path d="M2936 1487.5C2936 1483.91 2938.69 1481 2942 1481 2945.31 1481 2948 1483.91 2948 1487.5 2948 1491.09 2945.31 1494 2942 1494 2938.69 1494 2936 1491.09 2936 1487.5Z" fill="#FFFFFF" fill-rule="evenodd"/><path d="M2967 1474.5C2967 1470.91 2969.69 1468 2973 1468 2976.31 1468 2979 1470.91 2979 1474.5 2979 1478.09 2976.31 1481 2973 1481 2969.69 1481 2967 1478.09 2967 1474.5Z" fill="#FFFFFF" fill-rule="evenodd"/><path d="M2998 1466.5C2998 1462.91 3000.69 1460 3004 1460 3007.31 1460 3010 1462.91 3010 1466.5 3010 1470.09 3007.31 1473 3004 1473 3000.69 1473 2998 1470.09 2998 1466.5Z" fill="#FFFFFF" fill-rule="evenodd"/><path d="M3034 1461.5C3034 1457.91 3036.46 1455 3039.5 1455 3042.54 1455 3045 1457.91 3045 1461.5 3045 1465.09 3042.54 1468 3039.5 1468 3036.46 1468 3034 1465.09 3034 1461.5Z" fill="#FFFFFF" fill-rule="evenodd"/><path d="M3067 1455.5C3067 1451.91 3069.46 1449 3072.5 1449 3075.54 1449 3078 1451.91 3078 1455.5 3078 1459.09 3075.54 1462 3072.5 1462 3069.46 1462 3067 1459.09 3067 1455.5Z" fill="#FFFFFF" fill-rule="evenodd"/><path d="M3100 1450.5C3100 1446.91 3102.69 1444 3106 1444 3109.31 1444 3112 1446.91 3112 1450.5 3112 1454.09 3109.31 1457 3106 1457 3102.69 1457 3100 1454.09 3100 1450.5Z" fill="#FFFFFF" fill-rule="evenodd"/><path d="M3121 1456C3121 1446.61 3127.94 1439 3136.5 1439 3145.06 1439 3152 1446.61 3152 1456 3152 1465.39 3145.06 1473 3136.5 1473 3127.94 1473 3121 1465.39 3121 1456Z" stroke="#58585A" stroke-width="1.71893" stroke-miterlimit="8" fill="#FFF3A8" fill-rule="evenodd"/><path d="M3132 1450.5C3132 1446.91 3134.69 1444 3138 1444 3141.31 1444 3144 1446.91 3144 1450.5 3144 1454.09 3141.31 1457 3138 1457 3134.69 1457 3132 1454.09 3132 1450.5Z" fill="#FFFFFF" fill-rule="evenodd"/><path d="M3093 1382C3093 1378.69 3095.69 1376 3099 1376 3102.31 1376 3105 1378.69 3105 1382 3105 1385.31 3102.31 1388 3099 1388 3095.69 1388 3093 1385.31 3093 1382Z" fill="#FFFFFF" fill-rule="evenodd"/><path d="M3121 1385C3121 1375.61 3128.16 1368 3137 1368 3145.84 1368 3153 1375.61 3153 1385 3153 1394.39 3145.84 1402 3137 1402 3128.16 1402 3121 1394.39 3121 1385Z" stroke="#58585A" stroke-width="1.71893" stroke-miterlimit="8" fill="#FFF3A8" fill-rule="evenodd"/><path d="M3130 1380C3130 1376.69 3132.69 1374 3136 1374 3139.31 1374 3142 1376.69 3142 1380 3142 1383.31 3139.31 1386 3136 1386 3132.69 1386 3130 1383.31 3130 1380Z" fill="#FFFFFF" fill-rule="evenodd"/><path d="M3056 1387C3056 1383.69 3058.69 1381 3062 1381 3065.31 1381 3068 1383.69 3068 1387 3068 1390.31 3065.31 1393 3062 1393 3058.69 1393 3056 1390.31 3056 1387Z" fill="#FFFFFF" fill-rule="evenodd"/><path d="M3018 1395.5C3018 1391.91 3020.69 1389 3024 1389 3027.31 1389 3030 1391.91 3030 1395.5 3030 1399.09 3027.31 1402 3024 1402 3020.69 1402 3018 1399.09 3018 1395.5Z" fill="#FFFFFF" fill-rule="evenodd"/><path d="M2985 1403.5C2985 1399.91 2987.46 1397 2990.5 1397 2993.54 1397 2996 1399.91 2996 1403.5 2996 1407.09 2993.54 1410 2990.5 1410 2987.46 1410 2985 1407.09 2985 1403.5Z" fill="#FFFFFF" fill-rule="evenodd"/><path d="M2948 1413.5C2948 1409.91 2950.69 1407 2954 1407 2957.31 1407 2960 1409.91 2960 1413.5 2960 1417.09 2957.31 1420 2954 1420 2950.69 1420 2948 1417.09 2948 1413.5Z" fill="#FFFFFF" fill-rule="evenodd"/><path d="M2915 1425C2915 1421.69 2917.69 1419 2921 1419 2924.31 1419 2927 1421.69 2927 1425 2927 1428.31 2924.31 1431 2921 1431 2917.69 1431 2915 1428.31 2915 1425Z" fill="#FFFFFF" fill-rule="evenodd"/><path d="M2880 1438C2880 1434.69 2882.69 1432 2886 1432 2889.31 1432 2892 1434.69 2892 1438 2892 1441.31 2889.31 1444 2886 1444 2882.69 1444 2880 1441.31 2880 1438Z" fill="#FFFFFF" fill-rule="evenodd"/><path d="M2849 1456C2849 1452.69 2851.69 1450 2855 1450 2858.31 1450 2861 1452.69 2861 1456 2861 1459.31 2858.31 1462 2855 1462 2851.69 1462 2849 1459.31 2849 1456Z" fill="#FFFFFF" fill-rule="evenodd"/><path d="M2818 1473C2818 1469.69 2820.46 1467 2823.5 1467 2826.54 1467 2829 1469.69 2829 1473 2829 1476.31 2826.54 1479 2823.5 1479 2820.46 1479 2818 1476.31 2818 1473Z" fill="#FFFFFF" fill-rule="evenodd"/><path d="M2787 1494.5C2787 1490.91 2789.69 1488 2793 1488 2796.31 1488 2799 1490.91 2799 1494.5 2799 1498.09 2796.31 1501 2793 1501 2789.69 1501 2787 1498.09 2787 1494.5Z" fill="#FFFFFF" fill-rule="evenodd"/><path d="M2756 1517.5C2756 1513.91 2758.69 1511 2762 1511 2765.31 1511 2768 1513.91 2768 1517.5 2768 1521.09 2765.31 1524 2762 1524 2758.69 1524 2756 1521.09 2756 1517.5Z" fill="#FFFFFF" fill-rule="evenodd"/><path d="M2727 1538.5C2727 1534.91 2729.46 1532 2732.5 1532 2735.54 1532 2738 1534.91 2738 1538.5 2738 1542.09 2735.54 1545 2732.5 1545 2729.46 1545 2727 1542.09 2727 1538.5Z" fill="#FFFFFF" fill-rule="evenodd"/><path d="M2696 1564.5C2696 1560.91 2698.69 1558 2702 1558 2705.31 1558 2708 1560.91 2708 1564.5 2708 1568.09 2705.31 1571 2702 1571 2698.69 1571 2696 1568.09 2696 1564.5Z" fill="#FFFFFF" fill-rule="evenodd"/><path d="M3573.04 1698.3C3573.04 1693.06 3573.04 1693.06 3573.04 1693.06 3574.02 1690.97 3574.02 1690.97 3574.02 1690.97 3571.09 1690.97 3571.09 1690.97 3571.09 1690.97 3560.33 1690.97 3552.51 1681.55 3552.51 1670.03 3552.51 1667.94 3552.51 1667.94 3552.51 1667.94 3552.51 1665.85 3552.51 1665.85 3552.51 1665.85 3548.6 1665.85 3548.6 1665.85 3548.6 1665.85 3537.85 1665.85 3529.05 1656.43 3529.05 1644.91 3529.05 1642.82 3529.05 1642.82 3529.05 1642.82 3529.05 1639.68 3529.05 1639.68 3529.05 1639.68 3525.14 1640.72 3525.14 1640.72 3525.14 1640.72 3514.38 1640.72 3505.58 1631.3 3505.58 1619.79 3505.58 1617.69 3505.58 1617.69 3505.58 1617.69 3499.72 1618.74 3499.72 1618.74 3499.72 1618.74 3496.79 1617.69 3496.79 1617.69 3496.79 1617.69 3488.96 1616.65 3482.12 1609.32 3481.14 1599.9 3480.17 1597.8 3480.17 1597.8 3480.17 1597.8 3478.21 1597.8 3478.21 1597.8 3478.21 1597.8 3476.25 1598.85 3474.3 1598.85 3472.34 1598.85 3462.57 1598.85 3453.77 1589.43 3453.77 1578.96 3452.79 1575.82 3452.79 1575.82 3452.79 1575.82 3445.95 1576.87 3445.95 1576.87 3445.95 1576.87 3437.15 1576.87 3428.35 1569.54 3427.37 1560.12 3426.39 1556.98 3426.39 1556.98 3426.39 1556.98 3424.44 1558.03 3424.44 1558.03 3424.44 1558.03 3422.48 1559.07 3420.53 1559.07 3418.57 1559.07 3408.79 1559.07 3400.97 1551.74 3399.02 1542.32 3399.02 1540.23 3399.02 1540.23 3399.02 1540.23 3397.06 1541.28 3397.06 1541.28 3397.06 1541.28 3394.13 1542.32 3392.17 1542.32 3389.24 1542.32 3380.44 1542.32 3372.62 1536.04 3370.67 1526.62 3370.67 1523.48 3370.67 1523.48 3370.67 1523.48 3367.73 1525.57 3367.73 1525.57 3367.73 1525.57 3365.78 1526.62 3362.84 1527.67 3359.91 1527.67 3351.11 1527.67 3343.29 1521.39 3341.33 1513.01 3340.36 1509.87 3340.36 1509.87 3340.36 1509.87 3338.4 1511.97 3338.4 1511.97 3338.4 1511.97 3335.47 1513.01 3332.54 1514.06 3328.62 1514.06 3320.8 1514.06 3313.96 1508.83 3311.03 1501.5 3310.05 1498.36 3310.05 1498.36 3310.05 1498.36 3308.09 1500.45 3308.09 1500.45 3308.09 1500.45 3305.16 1502.54 3301.25 1503.59 3297.34 1503.59 3290.5 1503.59 3282.67 1498.36 3279.74 1492.08 3278.76 1488.94 3278.76 1488.94 3278.76 1488.94 3276.81 1491.03 3276.81 1491.03 3276.81 1491.03 3273.88 1493.12 3269.96 1494.17 3266.05 1494.17 3258.23 1494.17 3252.37 1489.98 3248.46 1482.66 3247.48 1480.56 3247.48 1480.56 3247.48 1480.56 3245.52 1482.66 3245.52 1482.66 3245.52 1482.66 3242.59 1484.75 3237.7 1486.84 3233.79 1486.84 3226.95 1486.84 3221.08 1482.66 3217.17 1476.37 3216.19 1474.28 3216.19 1474.28 3216.19 1474.28 3214.24 1476.37 3214.24 1476.37 3214.24 1476.37 3210.33 1479.52 3206.42 1481.61 3201.53 1481.61 3194.68 1481.61 3188.82 1477.42 3184.91 1472.19 3183.93 1470.09 3183.93 1470.09 3183.93 1470.09 3181.97 1471.14 3181.97 1471.14 3181.97 1471.14 3178.06 1475.33 3173.17 1477.42 3168.29 1477.42 3162.42 1477.42 3156.55 1475.33 3152.64 1470.09 3151.67 1468 3151.67 1468 3151.67 1468 3149.71 1470.09 3149.71 1470.09 3149.71 1470.09 3146.78 1474.28 3142.87 1476.37 3137 1476.37 3131.13 1476.37 3126.25 1474.28 3123.31 1470.09 3121.36 1468 3121.36 1468 3121.36 1468 3120.38 1470.09 3120.38 1470.09 3120.38 1470.09 3116.47 1475.33 3111.58 1477.42 3105.71 1477.42 3100.83 1477.42 3095.94 1475.33 3092.03 1471.14 3090.07 1470.09 3090.07 1470.09 3090.07 1470.09 3089.09 1472.19 3089.09 1472.19 3089.09 1472.19 3085.18 1477.42 3079.32 1481.61 3072.47 1481.61 3067.58 1481.61 3063.67 1479.52 3059.76 1476.37 3057.81 1474.28 3057.81 1474.28 3057.81 1474.28 3056.83 1476.37 3056.83 1476.37 3056.83 1476.37 3052.92 1482.66 3047.05 1486.84 3040.21 1486.84 3036.3 1486.84 3031.41 1484.75 3028.48 1482.66 3026.52 1480.56 3026.52 1480.56 3026.52 1480.56 3025.54 1482.66 3025.54 1482.66 3025.54 1482.66 3021.63 1489.98 3015.77 1494.17 3007.95 1494.17 3004.04 1494.17 3000.13 1493.12 2997.19 1491.03 2995.24 1488.94 2995.24 1488.94 2995.24 1488.94 2994.26 1492.08 2994.26 1492.08 2994.26 1492.08 2991.33 1498.36 2983.5 1503.59 2976.66 1503.59 2972.75 1503.59 2968.84 1502.54 2965.91 1500.45 2963.95 1498.36 2963.95 1498.36 2963.95 1498.36 2962.97 1501.5 2962.97 1501.5 2962.97 1501.5 2960.04 1508.83 2953.2 1514.06 2945.38 1514.06 2941.46 1514.06 2938.53 1513.01 2935.6 1511.97 2933.64 1509.87 2933.64 1509.87 2933.64 1509.87 2932.67 1513.01 2932.67 1513.01 2932.67 1513.01 2930.71 1521.39 2922.89 1527.67 2914.09 1527.67 2911.16 1527.67 2908.22 1526.62 2906.27 1525.57 2903.33 1523.48 2903.33 1523.48 2903.33 1523.48 2903.33 1526.62 2903.33 1526.62 2903.33 1526.62 2901.38 1536.04 2893.56 1542.32 2884.76 1542.32 2881.83 1542.32 2879.87 1542.32 2876.94 1541.28 2874.98 1540.23 2874.98 1540.23 2874.98 1540.23 2874.98 1542.32 2874.98 1542.32 2874.98 1542.32 2873.03 1551.74 2865.21 1559.07 2855.43 1559.07 2853.47 1559.07 2851.52 1559.07 2849.56 1558.03 2847.61 1556.98 2847.61 1556.98 2847.61 1556.98 2846.63 1560.12 2846.63 1560.12 2846.63 1560.12 2845.65 1569.54 2836.85 1576.87 2828.05 1576.87 2821.21 1575.82 2821.21 1575.82 2821.21 1575.82 2820.23 1578.96 2820.23 1578.96 2820.23 1578.96 2820.23 1589.43 2811.43 1598.85 2801.66 1598.85 2799.7 1598.85 2797.75 1598.85 2795.79 1597.8 2793.83 1597.8 2793.83 1597.8 2793.83 1597.8 2792.86 1599.9 2792.86 1599.9 2792.86 1599.9 2791.88 1609.32 2785.04 1616.65 2777.21 1617.69 2774.28 1618.74 2774.28 1618.74 2774.28 1618.74 2768.42 1617.69 2768.42 1617.69 2768.42 1617.69 2768.42 1619.79 2768.42 1619.79 2768.42 1619.79 2768.42 1631.3 2759.62 1640.72 2748.86 1640.72 2744.95 1639.68 2744.95 1639.68 2744.95 1639.68 2744.95 1642.82 2744.95 1642.82 2744.95 1642.82 2744.95 1644.91 2744.95 1644.91 2744.95 1644.91 2744.95 1656.43 2736.15 1665.85 2725.4 1665.85 2721.49 1665.85 2721.49 1665.85 2721.49 1665.85 2721.49 1667.94 2721.49 1667.94 2721.49 1667.94 2721.49 1670.03 2721.49 1670.03 2721.49 1670.03 2721.49 1681.55 2713.67 1690.97 2702.91 1690.97 2699.98 1690.97 2699.98 1690.97 2699.98 1690.97 2700.96 1693.06 2700.96 1693.06 2700.96 1693.06 2700.96 1698.3 2700.96 1698.3 2700.96 1698.3 2700.96 1701.44 2699.98 1704.58 2699 1706.67 2699 1714 2699 1714 2699 1714 2702.91 1709.81 2704.87 1704.58 2704.87 1698.3 2704.87 1698.3 2704.87 1696.2 2704.87 1695.16 2716.6 1694.11 2725.4 1683.64 2725.4 1670.03 2725.4 1670.03 2725.4 1670.03 2725.4 1670.03 2738.11 1670.03 2748.86 1658.52 2748.86 1644.91 2748.86 1644.91 2748.86 1644.91 2748.86 1644.91 2748.86 1644.91 2748.86 1644.91 2748.86 1644.91 2760.59 1644.91 2770.37 1634.44 2772.33 1622.93 2773.3 1622.93 2774.28 1622.93 2774.28 1622.93 2777.21 1621.88 2777.21 1621.88 2777.21 1621.88 2786.99 1620.83 2794.81 1612.46 2796.77 1601.99 2797.75 1603.04 2799.7 1603.04 2801.66 1603.04 2813.39 1603.04 2823.17 1593.62 2824.14 1581.06 2826.1 1581.06 2828.05 1581.06 2828.05 1581.06 2838.81 1581.06 2847.61 1573.73 2849.56 1562.21 2851.52 1563.26 2853.47 1563.26 2855.43 1563.26 2866.18 1563.26 2874.98 1555.93 2877.92 1545.46 2879.87 1545.46 2881.83 1546.51 2884.76 1546.51 2894.54 1546.51 2903.33 1539.18 2906.27 1529.76 2909.2 1530.81 2911.16 1531.86 2914.09 1531.86 2923.87 1531.86 2931.69 1525.57 2935.6 1516.15 2938.53 1517.2 2941.46 1518.25 2945.38 1518.25 2954.17 1518.25 2962 1513.01 2965.91 1504.64 2968.84 1506.73 2972.75 1507.78 2976.66 1507.78 2984.48 1507.78 2992.3 1502.54 2996.21 1495.22 3000.13 1497.31 3004.04 1498.36 3007.95 1498.36 3015.77 1498.36 3023.59 1494.17 3027.5 1486.84 3031.41 1488.94 3035.32 1491.03 3040.21 1491.03 3048.03 1491.03 3054.88 1486.84 3058.79 1480.56 3062.7 1483.7 3067.58 1485.8 3072.47 1485.8 3080.29 1485.8 3086.16 1481.61 3091.05 1475.33 3094.96 1479.52 3099.85 1481.61 3105.71 1481.61 3112.56 1481.61 3117.45 1479.52 3121.36 1474.28 3125.27 1477.42 3130.16 1479.52 3135.04 1479.52 3135.04 1479.52 3136.02 1479.52 3136.02 1479.52 3136.02 1479.52 3137 1479.52 3137 1479.52 3137 1479.52 3137.98 1479.52 3137.98 1479.52 3137.98 1479.52 3138.96 1479.52 3138.96 1479.52 3143.84 1479.52 3147.75 1477.42 3151.67 1474.28 3155.58 1479.52 3161.44 1481.61 3168.29 1481.61 3174.15 1481.61 3179.04 1479.52 3182.95 1475.33 3187.84 1481.61 3193.71 1485.8 3201.53 1485.8 3206.42 1485.8 3211.3 1483.7 3215.21 1480.56 3219.13 1486.84 3225.97 1491.03 3233.79 1491.03 3238.68 1491.03 3242.59 1488.94 3246.5 1486.84 3250.41 1494.17 3258.23 1498.36 3266.05 1498.36 3269.96 1498.36 3273.88 1497.31 3277.79 1495.22 3281.7 1502.54 3289.52 1507.78 3297.34 1507.78 3301.25 1507.78 3305.16 1506.73 3308.09 1504.64 3312 1513.01 3319.83 1518.25 3328.62 1518.25 3332.54 1518.25 3335.47 1517.2 3338.4 1516.15 3342.31 1525.57 3350.13 1531.86 3359.91 1531.86 3362.84 1531.86 3364.8 1530.81 3367.73 1529.76 3370.67 1539.18 3379.46 1546.51 3389.24 1546.51 3392.17 1546.51 3394.13 1545.46 3396.08 1545.46 3399.02 1555.93 3407.82 1563.26 3418.57 1563.26 3420.53 1563.26 3422.48 1563.26 3423.46 1562.21 3426.39 1573.73 3435.19 1581.06 3445.95 1581.06 3445.95 1581.06 3447.9 1581.06 3449.86 1581.06 3450.83 1593.62 3460.61 1603.04 3472.34 1603.04 3474.3 1603.04 3476.25 1603.04 3477.23 1601.99 3479.19 1612.46 3487.01 1620.83 3496.79 1621.88 3499.72 1622.93 3499.72 1622.93 3499.72 1622.93 3499.72 1622.93 3500.7 1622.93 3501.67 1622.93 3503.63 1634.44 3513.41 1644.91 3525.14 1644.91 3525.14 1644.91 3525.14 1644.91 3525.14 1644.91 3525.14 1644.91 3525.14 1644.91 3525.14 1644.91 3525.14 1658.52 3535.89 1670.03 3548.6 1670.03 3548.6 1670.03 3548.6 1670.03 3548.6 1670.03 3548.6 1683.64 3557.4 1694.11 3569.13 1695.16 3569.13 1696.2 3569.13 1698.3 3569.13 1698.3 3569.13 1704.58 3571.09 1709.81 3575 1714 3575 1706.67 3575 1706.67 3575 1706.67 3574.02 1704.58 3573.04 1701.44 3573.04 1698.3Z" fill="#FFFFFF" fill-rule="evenodd"/></g></svg>