<svg width="239" height="297" xmlns="http://www.w3.org/2000/svg" xmlns:xlink="http://www.w3.org/1999/xlink" xml:space="preserve" overflow="hidden"><g transform="translate(-2885 -727)"><path d="M3113.42 763.219C3089.1 740.25 3057.64 728 3023.31 728 2947.5 728 2886 793.844 2886 875 2886 956.156 2947.5 1022 3023.31 1022 3057.64 1022 3089.1 1008.22 3113.42 986.781 3117.71 950.031 3117.71 950.031 3117.71 950.031 3084.81 948.5 3084.81 948.5 3084.81 948.5 3090.53 917.875 3090.53 917.875 3090.53 917.875 3057.64 916.344 3057.64 916.344 3057.64 916.344 3071.94 885.719 3071.94 885.719 3071.94 885.719 3040.47 868.875 3040.47 868.875 3040.47 868.875 3074.8 853.562 3074.8 853.562 3074.8 853.562 3063.36 827.531 3063.36 827.531 3063.36 827.531 3096.25 826 3096.25 826 3096.25 826 3089.1 793.844 3089.1 793.844 3089.1 793.844 3122 793.844 3122 793.844 3122 793.844L3113.42 763.219Z" fill="#F55E40" fill-rule="evenodd"/><path d="M3085.29 795C3088.14 819.544 3088.14 819.544 3088.14 819.544 3055.29 822.612 3055.29 822.612 3055.29 822.612 3063.86 844.087 3063.86 844.087 3066.71 850.223 3061 851.757 3031 867.097 3031 867.097 3031 867.097 3059.57 885.505 3063.86 888.573 3061 893.175 3052.43 919.252 3052.43 919.252 3052.43 919.252 3076.71 923.854 3082.43 923.854 3081 929.99 3079.57 953 3079.57 953 3111 953 3111 953 3111 953 3111 953 3111 953 3111 953 3111 953 3086.71 951.466 3081 951.466 3082.43 946.864 3086.71 919.252 3086.71 919.252 3086.71 919.252 3059.57 919.252 3053.86 917.718 3056.71 911.582 3068.14 887.039 3068.14 887.039 3068.14 887.039 3041 871.699 3033.86 867.097 3041 864.029 3069.57 851.757 3069.57 851.757 3069.57 851.757 3061 828.748 3058.14 824.146 3063.86 822.612 3091 822.612 3091 822.612 3085.29 795 3085.29 795 3085.29 795Z" fill="#FFFFFF" fill-rule="evenodd"/><path d="M3038.19 742.102C3051.12 742.102 3064.06 743.627 3077 748.203 3059.75 740.576 3042.5 736 3023.81 736 2951.94 736 2893 797.017 2893 873.288 2893 935.831 2931.81 987.695 2985 1006 2940.44 984.644 2908.81 935.831 2908.81 879.39 2908.81 803.119 2966.31 742.102 3038.19 742.102Z" fill="#F89677" fill-rule="evenodd"/><path d="M2983.43 1004C2930.57 987.22 2896.29 938.407 2896.29 875.864 2896.29 799.593 2950.57 734 3022 734 3022 734 3022 734 3022 734 2950.57 734 2892 796.542 2892 872.814 2892 935.356 2930.57 987.22 2983.43 1004" fill="#FFFFFF" fill-rule="evenodd"/><path d="M3113.92 763.719C3089.6 740.75 3058.14 728.5 3023.81 728.5 2948 728.5 2886.5 794.344 2886.5 875.5 2886.5 956.656 2948 1022.5 3023.81 1022.5 3058.14 1022.5 3089.6 1008.72 3113.92 987.281 3118.21 950.531 3118.21 950.531 3118.21 950.531 3085.31 949 3085.31 949 3085.31 949 3091.03 918.375 3091.03 918.375 3091.03 918.375 3058.14 916.844 3058.14 916.844 3058.14 916.844 3072.44 886.219 3072.44 886.219 3072.44 886.219 3040.97 869.375 3040.97 869.375 3040.97 869.375 3075.3 854.062 3075.3 854.062 3075.3 854.062 3063.86 828.031 3063.86 828.031 3063.86 828.031 3096.75 826.5 3096.75 826.5 3096.75 826.5 3089.6 794.344 3089.6 794.344 3089.6 794.344 3122.5 794.344 3122.5 794.344 3122.5 794.344L3113.92 763.719Z" stroke="#333333" stroke-width="2.86476" stroke-linecap="round" stroke-linejoin="round" stroke-miterlimit="10" fill="none" fill-rule="evenodd"/></g></svg>