<svg width="255" height="313" xmlns="http://www.w3.org/2000/svg" xmlns:xlink="http://www.w3.org/1999/xlink" xml:space="preserve" overflow="hidden"><g transform="translate(-1182 -591)"><path d="M1371.6 736 1371.6 736 1389 717.333 1384.94 708 1360 709.75 1371.6 736Z" fill="#F44129" fill-rule="evenodd"/><path d="M1432 813.25C1397.45 811.714 1397.45 811.714 1397.45 811.714 1403.21 781 1403.21 781 1403.21 781 1370.11 779.464 1370.11 779.464 1370.11 779.464 1384.5 748.75 1384.5 748.75 1384.5 748.75 1364.35 738 1364.35 738 1364.35 738 1337 748.75 1337 748.75 1337 748.75 1368.67 767.179 1368.67 767.179 1368.67 767.179 1354.27 796.357 1354.27 796.357 1354.27 796.357 1387.38 797.893 1387.38 797.893 1387.38 797.893 1381.62 830.143 1381.62 830.143 1381.62 830.143 1414.73 831.679 1414.73 831.679 1414.73 831.679 1410.41 867 1410.41 867 1410.41 867 1410.41 867 1410.41 867 1410.41 867 1410.41 867 1410.41 867 1410.41 867 1426.24 850.107 1426.24 850.107 1426.24 850.107 1426.24 850.107 1426.24 850.107 1426.24 850.107L1432 813.25Z" fill="#F44129" fill-rule="evenodd"/><path d="M1393.47 706 1393.47 706 1409 689.585 1406.12 676 1386 676 1393.47 706Z" fill="#F44129" fill-rule="evenodd"/><path d="M1426.4 627.127C1403.48 605.745 1371.96 592 1337.58 592 1294.6 592 1257.35 611.855 1233 643.927 1255.92 622.545 1287.44 608.8 1320.39 608.8 1354.77 608.8 1386.29 622.545 1410.65 643.927 1419.24 676 1419.24 676 1419.24 676 1435 657.673 1435 657.673 1435 657.673L1426.4 627.127Z" fill="#F8AB8E" fill-rule="evenodd"/><path d="M1410.42 644.099C1386.1 622.734 1354.64 609 1320.31 609 1244.5 609 1183 674.62 1183 755.5 1183 836.38 1244.5 902 1320.31 902 1354.64 902 1386.1 889.792 1410.42 866.901 1414.71 831.802 1414.71 831.802 1414.71 831.802 1381.81 830.276 1381.81 830.276 1381.81 830.276 1387.53 798.229 1387.53 798.229 1387.53 798.229 1354.64 796.703 1354.64 796.703 1354.64 796.703 1368.94 767.708 1368.94 767.708 1368.94 767.708 1337.47 749.396 1337.47 749.396 1337.47 749.396 1371.8 735.661 1371.8 735.661 1371.8 735.661 1360.36 709.719 1360.36 709.719 1360.36 709.719 1393.25 706.667 1393.25 706.667 1393.25 706.667 1386.1 676.146 1386.1 676.146 1386.1 676.146 1419 676.146 1419 676.146 1419 676.146L1410.42 644.099Z" fill="#F55E40" fill-rule="evenodd"/><path d="M1334.4 624.124C1347.27 624.124 1360.13 625.655 1373 630.249 1355.84 622.593 1338.69 618 1320.1 618 1248.62 618 1190 679.243 1190 755.797 1190 818.571 1228.6 870.627 1281.5 889 1237.18 867.565 1205.73 818.571 1205.73 761.921 1205.73 685.367 1262.91 624.124 1334.4 624.124Z" fill="#F89677" fill-rule="evenodd"/><path d="M1280.13 887C1226.87 870.158 1192.32 821.164 1192.32 758.39 1192.32 681.836 1247.02 616 1319 616 1319 616 1319 616 1319 616 1247.02 616 1188 678.774 1188 755.328 1188 818.102 1226.87 870.158 1280.13 887" fill="#FFFFFF" fill-rule="evenodd"/><path d="M1381.96 678C1384.86 702.388 1384.86 702.388 1384.86 702.388 1351.59 705.437 1351.59 705.437 1351.59 705.437 1360.27 726.777 1360.27 726.777 1363.16 732.874 1357.37 734.398 1327 749.641 1327 749.641 1327 749.641 1355.93 767.932 1360.27 770.981 1357.37 775.553 1348.7 801.466 1348.7 801.466 1348.7 801.466 1373.29 806.039 1379.07 806.039 1377.62 812.136 1376.18 835 1376.18 835 1408 835 1408 835 1408 835 1408 835 1408 835 1408 835 1408 835 1383.41 833.476 1377.62 833.476 1379.07 828.903 1383.41 801.466 1383.41 801.466 1383.41 801.466 1355.93 801.466 1350.14 799.942 1353.04 793.845 1364.61 769.456 1364.61 769.456 1364.61 769.456 1337.12 754.214 1329.89 749.641 1337.12 746.592 1366.05 734.398 1366.05 734.398 1366.05 734.398 1357.37 711.534 1354.48 706.961 1360.27 705.437 1387.75 705.437 1387.75 705.437 1381.96 678 1381.96 678 1381.96 678Z" fill="#FFFFFF" fill-rule="evenodd"/><path d="M1397.41 812 1397.41 812 1383 827.428 1390.49 830.286 1414.71 832 1432 813.714 1397.41 812Z" fill="#F8AB8E" fill-rule="evenodd"/><path d="M1387.52 800 1403 783.429 1403 781.714 1373.2 780 1356 797.143 1387.52 798.286 1387.52 800Z" fill="#F8AB8E" fill-rule="evenodd"/><path d="M1385 750.941 1385 749.177 1364.76 738 1337 749.177 1368.81 768 1367.65 768 1385 750.941Z" fill="#F8AB8E" fill-rule="evenodd"/><path d="M1402 815C1425 816.5 1425 816.5 1425 816.5 1419.25 824 1419.25 824 1419.25 824 1419.25 824 1407.75 815 1402 815Z" fill="#FFFFFF" fill-rule="evenodd"/><path d="M1374 783C1396 783 1396 783 1396 783 1390.13 791 1390.13 791 1390.13 791 1390.13 791 1379.87 783 1374 783Z" fill="#FFFFFF" fill-rule="evenodd"/><path d="M1369 745C1379 751 1379 751 1379 751 1369 760 1369 760 1369 760 1371.86 755.5 1373.29 749.5 1369 745Z" fill="#FFFFFF" fill-rule="evenodd"/><path d="M1426.43 627 1411 643.718 1419.57 676 1435 657.553 1426.43 627Z" fill="#F44129" fill-rule="evenodd"/><path d="M1370 615C1379.97 618 1402.76 631.5 1408.45 639 1417 630 1417 630 1417 630 1414.15 633 1408.45 630 1399.91 627 1391.36 622.5 1375.7 615 1370 615Z" fill="#FFFFFF" fill-rule="evenodd"/><path d="M0 0 16.0002 19.0003" stroke="#333333" stroke-width="2.86476" stroke-linecap="round" stroke-linejoin="round" stroke-miterlimit="10" fill="none" fill-rule="evenodd" transform="matrix(-1 0 0 1 1385.5 749.5)"/><path d="M1372.1 736.5 1372.1 736.5 1389.5 717.833 1385.44 708.5 1360.5 710.25 1372.1 736.5Z" stroke="#333333" stroke-width="2.86476" stroke-linecap="round" stroke-linejoin="round" stroke-miterlimit="10" fill="none" fill-rule="evenodd"/><path d="M0 0 15.0001 17.0002" stroke="#333333" stroke-width="2.86476" stroke-linecap="round" stroke-linejoin="round" stroke-miterlimit="10" fill="none" fill-rule="evenodd" transform="matrix(-1 0 0 1 1403.5 781.5)"/><path d="M0 0 18.0002 16.9998" stroke="#333333" stroke-width="2.86476" stroke-linecap="round" stroke-linejoin="round" stroke-miterlimit="10" fill="none" fill-rule="evenodd" transform="matrix(-1 0 0 1 1372.5 780.5)"/><path d="M0 0 14.9998 17.9999" stroke="#333333" stroke-width="2.86476" stroke-linecap="round" stroke-linejoin="round" stroke-miterlimit="10" fill="none" fill-rule="evenodd" transform="matrix(-1 0 0 1 1397.5 812.5)"/><path d="M0 0 15.9998 17.0002" stroke="#333333" stroke-width="2.86476" stroke-linecap="round" stroke-linejoin="round" stroke-miterlimit="10" fill="none" fill-rule="evenodd" transform="matrix(-1 0 0 1 1432.5 815.5)"/><path d="M1432.5 813.75C1397.95 812.214 1397.95 812.214 1397.95 812.214 1403.71 781.5 1403.71 781.5 1403.71 781.5 1370.61 779.964 1370.61 779.964 1370.61 779.964 1385 749.25 1385 749.25 1385 749.25 1364.85 738.5 1364.85 738.5 1364.85 738.5 1337.5 749.25 1337.5 749.25 1337.5 749.25 1369.17 767.679 1369.17 767.679 1369.17 767.679 1354.77 796.857 1354.77 796.857 1354.77 796.857 1387.88 798.393 1387.88 798.393 1387.88 798.393 1382.12 830.643 1382.12 830.643 1382.12 830.643 1415.23 832.179 1415.23 832.179 1415.23 832.179 1410.91 867.5 1410.91 867.5 1410.91 867.5 1410.91 867.5 1410.91 867.5 1410.91 867.5 1410.91 867.5 1410.91 867.5 1410.91 867.5 1426.74 850.607 1426.74 850.607 1426.74 850.607 1426.74 850.607 1426.74 850.607 1426.74 850.607L1432.5 813.75Z" stroke="#333333" stroke-width="2.86476" stroke-linecap="round" stroke-linejoin="round" stroke-miterlimit="10" fill="none" fill-rule="evenodd"/><path d="M1393.97 706.5 1393.97 706.5 1409.5 690.085 1406.62 676.5 1386.5 676.5 1393.97 706.5Z" stroke="#333333" stroke-width="2.86476" stroke-linecap="round" stroke-linejoin="round" stroke-miterlimit="10" fill="none" fill-rule="evenodd"/><path d="M0 0 15.0001 17.0002" stroke="#333333" stroke-width="2.86476" stroke-linecap="round" stroke-linejoin="round" stroke-miterlimit="10" fill="none" fill-rule="evenodd" transform="matrix(1 0 0 -1 1411.5 644.5)"/><path d="M1410.92 644.599C1386.6 623.234 1355.14 609.5 1320.81 609.5 1245 609.5 1183.5 675.12 1183.5 756 1183.5 836.88 1245 902.5 1320.81 902.5 1355.14 902.5 1386.6 890.292 1410.92 867.401 1415.21 832.302 1415.21 832.302 1415.21 832.302 1382.31 830.776 1382.31 830.776 1382.31 830.776 1388.03 798.729 1388.03 798.729 1388.03 798.729 1355.14 797.203 1355.14 797.203 1355.14 797.203 1369.44 768.208 1369.44 768.208 1369.44 768.208 1337.97 749.896 1337.97 749.896 1337.97 749.896 1372.3 736.161 1372.3 736.161 1372.3 736.161 1360.86 710.219 1360.86 710.219 1360.86 710.219 1393.75 707.167 1393.75 707.167 1393.75 707.167 1386.6 676.646 1386.6 676.646 1386.6 676.646 1419.5 676.646 1419.5 676.646 1419.5 676.646L1410.92 644.599Z" stroke="#333333" stroke-width="2.86476" stroke-linecap="round" stroke-linejoin="round" stroke-miterlimit="10" fill="none" fill-rule="evenodd"/><path d="M1426.9 627.627C1403.98 606.246 1372.46 592.5 1338.08 592.5 1295.1 592.5 1257.85 612.355 1233.5 644.427 1256.42 623.046 1287.94 609.3 1320.89 609.3 1355.27 609.3 1386.79 623.046 1411.15 644.427 1419.74 676.5 1419.74 676.5 1419.74 676.5 1435.5 658.173 1435.5 658.173 1435.5 658.173L1426.9 627.627Z" stroke="#333333" stroke-width="2.86476" stroke-linecap="round" stroke-linejoin="round" stroke-miterlimit="10" fill="none" fill-rule="evenodd"/></g></svg>