<svg width="224" height="341" xmlns="http://www.w3.org/2000/svg" xmlns:xlink="http://www.w3.org/1999/xlink" xml:space="preserve" overflow="hidden"><g transform="translate(-1209 -1031)"><path d="M1424.84 1090.12C1401.92 1054.94 1368.98 1032 1331.74 1032 1264.43 1032 1210 1108.47 1210 1201.76 1210 1295.06 1264.43 1370 1331.74 1370 1368.98 1370 1401.92 1348.59 1423.41 1313.41 1429.14 1278.24 1429.14 1278.24 1429.14 1278.24 1396.19 1276.71 1396.19 1276.71 1396.19 1276.71 1401.92 1244.59 1401.92 1244.59 1401.92 1244.59 1368.98 1243.06 1368.98 1243.06 1368.98 1243.06 1381.87 1212.47 1381.87 1212.47 1381.87 1212.47 1351.79 1195.65 1351.79 1195.65 1351.79 1195.65 1386.17 1180.35 1386.17 1180.35 1386.17 1180.35 1373.28 1154.35 1373.28 1154.35 1373.28 1154.35 1406.22 1152.82 1406.22 1152.82 1406.22 1152.82 1400.49 1122.24 1400.49 1122.24 1400.49 1122.24 1432 1122.24 1432 1122.24 1432 1122.24 1424.84 1090.12 1424.84 1090.12 1424.84 1090.12" fill="#7DC21C" fill-rule="evenodd"/><path d="M1234.01 1203.26C1234.01 1120.84 1281.72 1052.16 1341 1043 1274.49 1043 1221 1114.74 1221 1203.26 1221 1288.74 1271.6 1358.95 1336.66 1362 1278.83 1349.79 1234.01 1282.63 1234.01 1203.26Z" fill="#A9DA5D" fill-rule="evenodd"/><path d="M1225.33 1203.26C1225.33 1137.54 1254.17 1080.98 1296 1055 1252.73 1079.46 1221 1136.01 1221 1203.26 1221 1268.99 1251.29 1325.54 1296 1350 1254.17 1324.02 1225.33 1267.46 1225.33 1203.26Z" fill="#FFFFFF" fill-rule="evenodd"/><path d="M1397.96 1122C1400.86 1146.46 1400.86 1146.46 1400.86 1146.46 1367.59 1149.52 1367.59 1149.52 1367.59 1149.52 1376.27 1172.45 1376.27 1170.92 1379.16 1177.04 1373.38 1180.1 1343 1193.86 1343 1193.86 1343 1193.86 1371.93 1213.73 1376.27 1215.26 1373.38 1219.85 1364.7 1247.37 1364.7 1247.37 1364.7 1247.37 1389.29 1250.42 1395.07 1250.42 1393.63 1256.54 1392.18 1279.47 1392.18 1279.47 1424 1281 1424 1281 1424 1281 1424 1281 1424 1281 1424 1281 1424 1281 1399.41 1279.47 1393.63 1279.47 1395.07 1273.36 1399.41 1247.37 1399.41 1247.37 1399.41 1247.37 1371.93 1245.84 1366.14 1245.84 1369.04 1239.72 1380.61 1213.73 1380.61 1213.73 1380.61 1213.73 1353.12 1198.44 1345.89 1195.38 1353.12 1190.8 1382.05 1178.57 1382.05 1178.57 1382.05 1178.57 1371.93 1157.16 1369.04 1151.05 1376.27 1151.05 1403.75 1149.52 1403.75 1149.52 1397.96 1122 1397.96 1122 1397.96 1122Z" fill="#FFFFFF" fill-rule="evenodd"/><path d="M1425.34 1090.62C1402.42 1055.44 1369.48 1032.5 1332.24 1032.5 1264.93 1032.5 1210.5 1108.97 1210.5 1202.26 1210.5 1295.56 1264.93 1370.5 1332.24 1370.5 1369.48 1370.5 1402.42 1349.09 1423.91 1313.91 1429.64 1278.74 1429.64 1278.74 1429.64 1278.74 1396.69 1277.21 1396.69 1277.21 1396.69 1277.21 1402.42 1245.09 1402.42 1245.09 1402.42 1245.09 1369.48 1243.56 1369.48 1243.56 1369.48 1243.56 1382.37 1212.97 1382.37 1212.97 1382.37 1212.97 1352.29 1196.15 1352.29 1196.15 1352.29 1196.15 1386.67 1180.85 1386.67 1180.85 1386.67 1180.85 1373.78 1154.85 1373.78 1154.85 1373.78 1154.85 1406.72 1153.32 1406.72 1153.32 1406.72 1153.32 1400.99 1122.74 1400.99 1122.74 1400.99 1122.74 1432.5 1122.74 1432.5 1122.74 1432.5 1122.74 1425.34 1090.62 1425.34 1090.62 1425.34 1090.62" stroke="#333333" stroke-width="2.86476" stroke-linecap="round" stroke-linejoin="round" stroke-miterlimit="10" fill="none" fill-rule="evenodd"/></g></svg>