<svg width="487" height="712" xmlns="http://www.w3.org/2000/svg" xmlns:xlink="http://www.w3.org/1999/xlink" xml:space="preserve" overflow="hidden"><g transform="translate(-1426 -1385)"><path d="M1861.52 1531.16C1815.17 1457.22 1748.54 1411 1673.23 1411 1537.08 1411 1427 1565.05 1427 1753 1427 1940.95 1537.08 2095 1673.23 2095 1748.54 2095 1815.17 2048.78 1858.62 1977.92 1870.21 1907.05 1870.21 1907.05 1870.21 1907.05 1803.58 1903.97 1803.58 1903.97 1803.58 1903.97 1815.17 1839.27 1815.17 1839.27 1815.17 1839.27 1748.54 1839.27 1748.54 1839.27 1748.54 1839.27 1774.61 1777.65 1774.61 1777.65 1774.61 1777.65 1713.78 1743.76 1713.78 1743.76 1713.78 1743.76 1783.3 1712.95 1783.3 1712.95 1783.3 1712.95 1757.23 1660.57 1757.23 1660.57 1757.23 1660.57 1823.86 1657.49 1823.86 1657.49 1823.86 1657.49 1812.27 1592.78 1812.27 1592.78 1812.27 1592.78 1876 1592.78 1876 1592.78 1876 1592.78 1861.52 1531.16 1861.52 1531.16 1861.52 1531.16" fill="#7DC21C" fill-rule="evenodd"/><path d="M1893.66 1494.13C1847.41 1423.07 1789.59 1386 1714.44 1386 1650.84 1386 1584.36 1410.72 1541 1466.33 1578.58 1432.34 1624.83 1410.72 1673.97 1410.72 1749.12 1410.72 1815.61 1457.06 1861.86 1531.21 1876.31 1593 1876.31 1593 1876.31 1593 1911 1559.01 1911 1559.01 1911 1559.01L1893.66 1494.13Z" fill="#CFEB9E" fill-rule="evenodd"/><path d="M1476.13 1753.46C1476.13 1590.15 1571.95 1451.49 1691 1433 1557.43 1433 1450 1577.82 1450 1753.46 1450 1926.01 1551.63 2067.76 1682.29 2077 1566.14 2052.35 1476.13 1913.69 1476.13 1753.46Z" fill="#A9DA5D" fill-rule="evenodd"/><path d="M1458.71 1752.96C1458.71 1620.39 1516.79 1506.33 1601 1457 1513.88 1503.24 1450 1620.39 1450 1752.96 1450 1888.61 1510.98 2002.67 1601 2052 1516.79 1999.59 1458.71 1885.52 1458.71 1752.96Z" fill="#FFFFFF" fill-rule="evenodd"/><path d="M1783.68 1714 1783.68 1714 1815 1679 1806.88 1658 1757 1660.33 1783.68 1714Z" fill="#25992F" fill-rule="evenodd"/><path d="M1901 1873.71C1834.83 1870.61 1834.83 1870.61 1834.83 1870.61 1846.34 1805.64 1846.34 1805.64 1846.34 1805.64 1780.17 1802.54 1780.17 1802.54 1780.17 1802.54 1806.06 1743.75 1806.06 1743.75 1806.06 1743.75 1765.78 1719 1765.78 1719 1765.78 1719 1714 1743.75 1714 1743.75 1714 1743.75 1774.42 1777.79 1774.42 1777.79 1774.42 1777.79 1748.52 1839.67 1748.52 1839.67 1748.52 1839.67 1814.69 1839.67 1814.69 1839.67 1814.69 1839.67 1803.18 1904.65 1803.18 1904.65 1803.18 1904.65 1869.35 1907.74 1869.35 1907.74 1869.35 1907.74 1857.85 1982 1857.85 1982 1857.85 1982 1857.85 1982 1857.85 1982 1857.85 1982 1857.85 1982 1857.85 1982 1857.85 1982 1892.37 1944.87 1892.37 1944.87 1892.37 1944.87 1892.37 1944.87 1892.37 1944.87 1892.37 1944.87L1901 1873.71Z" fill="#25992F" fill-rule="evenodd"/><path d="M1823.75 1654.52 1823.75 1658 1859 1620.86 1853.12 1593 1812 1593 1823.75 1654.52Z" fill="#25992F" fill-rule="evenodd"/><path d="M1835.66 1870.51 1835.66 1867 1807 1900.97 1818.46 1904.49 1870.05 1908 1901 1872.86 1835.66 1870.51Z" fill="#CFEB9E" fill-rule="evenodd"/><path d="M1812.3 1843 1847 1808.71 1847 1806.43 1783.39 1803 1751 1839.57 1814.61 1839.57 1812.3 1843Z" fill="#CFEB9E" fill-rule="evenodd"/><path d="M1807 1743.29 1807 1743.29 1766.31 1719 1714 1743.29 1774.45 1778 1807 1743.29Z" fill="#CFEB9E" fill-rule="evenodd"/><path d="M1844 1873C1890 1876.17 1890 1876.17 1890 1876.17 1875.62 1892 1875.62 1892 1875.62 1892 1875.62 1892 1855.5 1876.17 1844 1873Z" fill="#FFFFFF" fill-rule="evenodd"/><path d="M1786 1808C1832 1811.4 1832 1811.4 1832 1811.4 1820.5 1825 1820.5 1825 1820.5 1825 1820.5 1825 1797.5 1808 1786 1808Z" fill="#FFFFFF" fill-rule="evenodd"/><path d="M1778 1732C1795 1744 1795 1744 1795 1744 1778 1762 1778 1762 1778 1762 1783.67 1753 1786.5 1744 1778 1732Z" fill="#FFFFFF" fill-rule="evenodd"/><path d="M1802.93 1596C1808.71 1645.4 1808.71 1645.4 1808.71 1645.4 1742.18 1651.57 1742.18 1651.57 1742.18 1651.57 1759.54 1694.8 1756.64 1694.8 1765.32 1707.15 1753.75 1713.32 1693 1741.11 1693 1741.11 1693 1741.11 1750.86 1778.16 1759.54 1784.33 1753.75 1793.59 1736.39 1846.08 1736.39 1846.08 1736.39 1846.08 1785.57 1855.34 1797.14 1855.34 1794.25 1867.69 1791.36 1914 1791.36 1914 1855 1914 1855 1914 1855 1914 1855 1914 1855 1914 1855 1914 1855 1914 1805.82 1910.91 1794.25 1910.91 1797.14 1901.65 1805.82 1849.17 1805.82 1849.17 1805.82 1849.17 1750.86 1846.08 1739.29 1846.08 1745.07 1830.64 1768.21 1781.24 1768.21 1781.24 1768.21 1781.24 1713.25 1750.37 1695.89 1741.11 1713.25 1734.93 1771.11 1710.23 1771.11 1710.23 1771.11 1710.23 1750.86 1667.01 1745.07 1654.66 1759.54 1651.57 1814.5 1651.57 1814.5 1651.57 1802.93 1596 1802.93 1596 1802.93 1596Z" fill="#FFFFFF" fill-rule="evenodd"/><path d="M1861 1534.01 1876.12 1593 1911 1558.3 1893.56 1497 1861 1534.01Z" fill="#25992F" fill-rule="evenodd"/><path d="M1795 1442C1824 1463.58 1855.9 1503.67 1861.7 1516 1882 1497.5 1882 1497.5 1882 1497.5 1873.3 1497.5 1829.8 1448.17 1795 1442Z" fill="#FFFFFF" fill-rule="evenodd"/><path d="M1862.02 1531.66C1815.67 1457.72 1749.04 1411.5 1673.73 1411.5 1537.58 1411.5 1427.5 1565.55 1427.5 1753.5 1427.5 1941.45 1537.58 2095.5 1673.73 2095.5 1749.04 2095.5 1815.67 2049.28 1859.12 1978.42 1870.71 1907.55 1870.71 1907.55 1870.71 1907.55 1804.08 1904.47 1804.08 1904.47 1804.08 1904.47 1815.67 1839.77 1815.67 1839.77 1815.67 1839.77 1749.04 1839.77 1749.04 1839.77 1749.04 1839.77 1775.11 1778.15 1775.11 1778.15 1775.11 1778.15 1714.28 1744.26 1714.28 1744.26 1714.28 1744.26 1783.8 1713.45 1783.8 1713.45 1783.8 1713.45 1757.73 1661.07 1757.73 1661.07 1757.73 1661.07 1824.36 1657.99 1824.36 1657.99 1824.36 1657.99 1812.77 1593.28 1812.77 1593.28 1812.77 1593.28 1876.5 1593.28 1876.5 1593.28 1876.5 1593.28 1862.02 1531.66 1862.02 1531.66 1862.02 1531.66" stroke="#333333" stroke-width="2.86476" stroke-linecap="round" stroke-linejoin="round" stroke-miterlimit="10" fill="none" fill-rule="evenodd"/><path d="M1894.16 1494.63C1847.91 1423.57 1790.09 1386.5 1714.94 1386.5 1651.34 1386.5 1584.86 1411.22 1541.5 1466.83 1579.08 1432.84 1625.33 1411.22 1674.47 1411.22 1749.62 1411.22 1816.11 1457.56 1862.36 1531.71 1876.81 1593.5 1876.81 1593.5 1876.81 1593.5 1911.5 1559.52 1911.5 1559.52 1911.5 1559.52L1894.16 1494.63Z" stroke="#333333" stroke-width="2.86476" stroke-linecap="round" stroke-linejoin="round" stroke-miterlimit="10" fill="none" fill-rule="evenodd"/><path d="M0 0 32 34" stroke="#333333" stroke-width="2.86476" stroke-linecap="round" stroke-linejoin="round" stroke-miterlimit="10" fill="none" fill-rule="evenodd" transform="matrix(1 0 0 -1 1861.5 1531.5)"/><path d="M0 0 33 34" stroke="#333333" stroke-width="2.86476" stroke-linecap="round" stroke-linejoin="round" stroke-miterlimit="10" fill="none" fill-rule="evenodd" transform="matrix(-1 0 0 1 1807.5 1744.5)"/><path d="M1784.18 1714.5 1784.18 1714.5 1815.5 1679.5 1807.38 1658.5 1757.5 1660.83 1784.18 1714.5Z" stroke="#333333" stroke-width="2.86476" stroke-linecap="round" stroke-linejoin="round" stroke-miterlimit="10" fill="none" fill-rule="evenodd"/><path d="M0 0 32.0003 34" stroke="#333333" stroke-width="2.86476" stroke-linecap="round" stroke-linejoin="round" stroke-miterlimit="10" fill="none" fill-rule="evenodd" transform="matrix(-1 0 0 1 1847.5 1806.5)"/><path d="M0 0 32 33" stroke="#333333" stroke-width="2.86476" stroke-linecap="round" stroke-linejoin="round" stroke-miterlimit="10" fill="none" fill-rule="evenodd" transform="matrix(-1 0 0 1 1835.5 1871.5)"/><path d="M0 0 31.0003 33" stroke="#333333" stroke-width="2.86476" stroke-linecap="round" stroke-linejoin="round" stroke-miterlimit="10" fill="none" fill-rule="evenodd" transform="matrix(-1 0 0 1 1780.5 1803.5)"/><path d="M0 0 31.0003 35.0001" stroke="#333333" stroke-width="2.86476" stroke-linecap="round" stroke-linejoin="round" stroke-miterlimit="10" fill="none" fill-rule="evenodd" transform="matrix(-1 0 0 1 1901.5 1873.5)"/><path d="M1901.5 1874.21C1835.33 1871.11 1835.33 1871.11 1835.33 1871.11 1846.84 1806.14 1846.84 1806.14 1846.84 1806.14 1780.67 1803.04 1780.67 1803.04 1780.67 1803.04 1806.56 1744.25 1806.56 1744.25 1806.56 1744.25 1766.28 1719.5 1766.28 1719.5 1766.28 1719.5 1714.5 1744.25 1714.5 1744.25 1714.5 1744.25 1774.92 1778.29 1774.92 1778.29 1774.92 1778.29 1749.02 1840.17 1749.02 1840.17 1749.02 1840.17 1815.19 1840.17 1815.19 1840.17 1815.19 1840.17 1803.68 1905.15 1803.68 1905.15 1803.68 1905.15 1869.85 1908.24 1869.85 1908.24 1869.85 1908.24 1858.35 1982.5 1858.35 1982.5 1858.35 1982.5 1858.35 1982.5 1858.35 1982.5 1858.35 1982.5 1858.35 1982.5 1858.35 1982.5 1858.35 1982.5 1892.87 1945.37 1892.87 1945.37 1892.87 1945.37 1892.87 1945.37 1892.87 1945.37 1892.87 1945.37L1901.5 1874.21Z" stroke="#333333" stroke-width="2.86476" stroke-linecap="round" stroke-linejoin="round" stroke-miterlimit="10" fill="none" fill-rule="evenodd"/><path d="M1824.25 1655.02 1824.25 1658.5 1859.5 1621.36 1853.62 1593.5 1812.5 1593.5 1824.25 1655.02Z" stroke="#333333" stroke-width="2.86476" stroke-linecap="round" stroke-linejoin="round" stroke-miterlimit="10" fill="none" fill-rule="evenodd"/></g></svg>