<svg width="254" height="295" xmlns="http://www.w3.org/2000/svg" xmlns:xlink="http://www.w3.org/1999/xlink" xml:space="preserve" overflow="hidden"><g transform="translate(-1758 -835)"><path d="M1963.07 1062.55 1970.54 1024.21 1930.33 1022.49 1945.84 985.876 1918.85 971 1893 983.016 1930.33 1003.04 1913.1 1039.66 1954.46 1040.8 1947.56 1080.86 1987.77 1082 2005 1065.41 1963.07 1062.55Z" fill="#FEECA9" fill-rule="evenodd"/><path d="M1960.72 930 1977 912.537 1972.35 891 1952 892.746 1960.72 930Z" fill="#E37600" fill-rule="evenodd"/><path d="M1893.38 836C1848.75 836 1791.16 884.97 1771 937 1792.6 891.091 1837.23 852.833 1876.1 852.833 1930.81 852.833 1992.72 891.091 1992.72 891.091 2010 874.258 2010 874.258 2010 874.258 2010 874.258 1946.65 836 1893.38 836Z" fill="#FEECA9" fill-rule="evenodd"/><path d="M1934.55 965 1952 946.559 1943.27 931 1920 932.729 1934.55 965Z" fill="#E37600" fill-rule="evenodd"/><path d="M1876.72 1128C1810.68 1128 1759 1053.14 1759 990.5 1759 927.861 1822.17 853 1876.72 853 1931.27 853 1993 891.194 1993 891.194 1952.8 892.722 1952.8 892.722 1952.8 892.722 1961.42 929.389 1961.42 929.389 1961.42 929.389 1921.22 932.444 1921.22 932.444 1921.22 932.444 1935.58 964.528 1935.58 964.528 1935.58 964.528 1893.94 982.861 1893.94 982.861 1893.94 982.861 1931.27 1002.72 1931.27 1002.72 1931.27 1002.72 1914.04 1039.39 1914.04 1039.39 1914.04 1039.39 1955.67 1040.92 1955.67 1040.92 1955.67 1040.92 1948.5 1080.64 1948.5 1080.64 1948.5 1080.64 1988.69 1082.17 1988.69 1082.17 1988.69 1082.17 1988.69 1082.17 1944.19 1128 1876.72 1128Z" fill="#FFC200" fill-rule="evenodd"/><path d="M1946.43 986 1931 1003.12 1915 1039.63 1932.14 1022.52 1931 1022.52 1946.43 986ZM1971 1024.23 1971 1024.23 1953.86 1040.77 1955 1040.77 1948.14 1079 1963.57 1062.45 1971 1024.23Z" fill="#E37600" fill-rule="evenodd"/><path d="M2002 874.636C1990.53 887 1990.53 887 1990.53 887 1959 870 1959 870 1959 870 1966.17 873.091 1991.97 882.364 2002 874.636Z" fill="#FFFFFF" fill-rule="evenodd"/><path d="M1872 861C1821.93 867.119 1769 932.899 1769 989.5 1769 1044.57 1809.06 1108.82 1866.28 1118 1819.07 1096.58 1786.17 1039.98 1786.17 989.5 1786.17 939.018 1827.65 880.887 1872 861Z" fill="#FEE075" fill-rule="evenodd"/><path d="M1774.68 989.264C1774.68 940.38 1814.42 882.331 1857 864 1811.58 879.276 1769 938.853 1769 989.264 1769 1038.15 1801.65 1096.2 1848.48 1113 1804.48 1093.14 1774.68 1038.15 1774.68 989.264Z" fill="#FFFFFF" fill-rule="evenodd"/><path d="M1963.57 1063.05 1971.04 1024.71 1930.83 1022.99 1946.34 986.376 1919.35 971.5 1893.5 983.515 1930.83 1003.54 1913.6 1040.16 1954.96 1041.3 1948.06 1081.36 1988.27 1082.5 2005.5 1065.91 1963.57 1063.05Z" stroke="#333333" stroke-width="2.86476" stroke-linecap="round" stroke-linejoin="round" stroke-miterlimit="10" fill="none" fill-rule="evenodd"/><path d="M1961.22 930.5 1977.5 913.037 1972.85 891.5 1952.5 893.246 1961.22 930.5Z" stroke="#333333" stroke-width="2.86476" stroke-linecap="round" stroke-linejoin="round" stroke-miterlimit="10" fill="none" fill-rule="evenodd"/><path d="M0 0 15.0001 17.9999" stroke="#333333" stroke-width="2.86476" stroke-linecap="round" stroke-linejoin="round" stroke-miterlimit="10" fill="none" fill-rule="evenodd" transform="matrix(1 0 0 -1 1931.5 1004.5)"/><path d="M0 0 16.9998 19.0003" stroke="#333333" stroke-width="2.86476" stroke-linecap="round" stroke-linejoin="round" stroke-miterlimit="10" fill="none" fill-rule="evenodd" transform="matrix(1 0 0 -1 1954.5 1043.5)"/><path d="M0 0 17.0002 17.0002" stroke="#333333" stroke-width="2.86476" stroke-linecap="round" stroke-linejoin="round" stroke-miterlimit="10" fill="none" fill-rule="evenodd" transform="matrix(1 0 0 -1 1914.5 1040.5)"/><path d="M0 0 15.0001 17.9999" stroke="#333333" stroke-width="2.86476" stroke-linecap="round" stroke-linejoin="round" stroke-miterlimit="10" fill="none" fill-rule="evenodd" transform="matrix(1 0 0 -1 1948.5 1081.5)"/><path d="M1893.88 836.5C1849.25 836.5 1791.66 885.47 1771.5 937.5 1793.1 891.591 1837.73 853.333 1876.6 853.333 1931.31 853.333 1993.22 891.591 1993.22 891.591 2010.5 874.757 2010.5 874.757 2010.5 874.757 2010.5 874.757 1947.15 836.5 1893.88 836.5Z" stroke="#333333" stroke-width="2.86476" stroke-linecap="round" stroke-linejoin="round" stroke-miterlimit="10" fill="none" fill-rule="evenodd"/><path d="M1935.05 965.5 1952.5 947.059 1943.77 931.5 1920.5 933.229 1935.05 965.5Z" stroke="#333333" stroke-width="2.86476" stroke-linecap="round" stroke-linejoin="round" stroke-miterlimit="10" fill="none" fill-rule="evenodd"/><path d="M1877.22 1128.5C1811.18 1128.5 1759.5 1053.64 1759.5 991 1759.5 928.361 1822.67 853.5 1877.22 853.5 1931.77 853.5 1993.5 891.695 1993.5 891.695 1953.3 893.222 1953.3 893.222 1953.3 893.222 1961.92 929.889 1961.92 929.889 1961.92 929.889 1921.72 932.945 1921.72 932.945 1921.72 932.945 1936.08 965.028 1936.08 965.028 1936.08 965.028 1894.44 983.361 1894.44 983.361 1894.44 983.361 1931.77 1003.22 1931.77 1003.22 1931.77 1003.22 1914.54 1039.89 1914.54 1039.89 1914.54 1039.89 1956.17 1041.42 1956.17 1041.42 1956.17 1041.42 1949 1081.14 1949 1081.14 1949 1081.14 1989.19 1082.67 1989.19 1082.67 1989.19 1082.67 1989.19 1082.67 1944.69 1128.5 1877.22 1128.5Z" stroke="#333333" stroke-width="2.86476" stroke-linecap="round" stroke-linejoin="round" stroke-miterlimit="10" fill="none" fill-rule="evenodd"/></g></svg>