<svg width="237" height="278" xmlns="http://www.w3.org/2000/svg" xmlns:xlink="http://www.w3.org/1999/xlink" xml:space="preserve" overflow="hidden"><g transform="translate(-2306 -615)"><path d="M2424.72 891C2358.68 891 2307 816.139 2307 753.5 2307 690.861 2370.17 616 2424.72 616 2479.27 616 2541 655.722 2541 655.722 2500.8 655.722 2500.8 655.722 2500.8 655.722 2509.42 693.917 2509.42 693.917 2509.42 693.917 2469.22 695.444 2469.22 695.444 2469.22 695.444 2483.58 727.528 2483.58 727.528 2483.58 727.528 2441.94 745.861 2441.94 745.861 2441.94 745.861 2479.27 767.25 2479.27 767.25 2479.27 767.25 2462.04 803.917 2462.04 803.917 2462.04 803.917 2503.68 805.444 2503.68 805.444 2503.68 805.444 2496.5 843.639 2496.5 843.639 2496.5 843.639 2536.69 846.694 2536.69 846.694 2536.69 846.694 2536.69 846.694 2492.19 891 2424.72 891Z" fill="#FFC200" fill-rule="evenodd"/><path d="M2421 626C2370.44 632.095 2317 699.143 2317 754 2317 808.857 2357.44 872.857 2415.22 882 2367.56 862.19 2334.33 804.286 2334.33 754 2334.33 703.714 2376.22 645.809 2421 626Z" fill="#FEE075" fill-rule="evenodd"/><path d="M2322.74 753.5C2322.74 704.524 2362.94 647.896 2406 628 2360.06 643.305 2317 702.994 2317 753.5 2317 804.006 2350.02 860.634 2397.39 879 2352.89 857.573 2322.74 802.476 2322.74 753.5Z" fill="#FFFFFF" fill-rule="evenodd"/><path d="M2425.22 891.5C2359.18 891.5 2307.5 816.639 2307.5 754 2307.5 691.361 2370.67 616.5 2425.22 616.5 2479.77 616.5 2541.5 656.222 2541.5 656.222 2501.3 656.222 2501.3 656.222 2501.3 656.222 2509.92 694.417 2509.92 694.417 2509.92 694.417 2469.72 695.944 2469.72 695.944 2469.72 695.944 2484.08 728.028 2484.08 728.028 2484.08 728.028 2442.44 746.361 2442.44 746.361 2442.44 746.361 2479.77 767.75 2479.77 767.75 2479.77 767.75 2462.54 804.417 2462.54 804.417 2462.54 804.417 2504.17 805.944 2504.17 805.944 2504.17 805.944 2497 844.139 2497 844.139 2497 844.139 2537.19 847.194 2537.19 847.194 2537.19 847.194 2537.19 847.194 2492.69 891.5 2425.22 891.5Z" stroke="#333333" stroke-width="2.86476" stroke-linecap="round" stroke-linejoin="round" stroke-miterlimit="10" fill="none" fill-rule="evenodd"/></g></svg>