<svg width="216" height="243" xmlns="http://www.w3.org/2000/svg" xmlns:xlink="http://www.w3.org/1999/xlink" xml:space="preserve" overflow="hidden"><g transform="translate(-2665 -1553)"><path d="M2854.44 1783.36C2844.44 1790.96 2831.59 1794 2818.75 1794 2734.52 1794 2734.52 1794 2734.52 1794 2695.98 1794 2666 1762.07 2666 1721.01 2666 1644.99 2666 1644.99 2666 1644.99 2666 1605.45 2695.98 1572 2734.52 1572 2818.75 1572 2818.75 1572 2818.75 1572 2831.59 1572 2844.44 1576.56 2855.86 1584.16 2855.86 1584.16 2855.86 1584.16 2855.86 1584.16 2863 1611.53 2863 1611.53 2863 1611.53 2833.02 1611.53 2833.02 1611.53 2833.02 1611.53 2840.16 1640.42 2840.16 1640.42 2840.16 1640.42 2810.18 1641.95 2810.18 1641.95 2810.18 1641.95 2821.6 1664.75 2821.6 1664.75 2821.6 1664.75 2790.2 1678.44 2790.2 1678.44 2790.2 1678.44 2817.32 1693.64 2817.32 1693.64 2817.32 1693.64 2805.9 1721.01 2805.9 1721.01 2805.9 1721.01 2834.45 1721.01 2834.45 1721.01 2834.45 1721.01 2830.17 1749.9 2830.17 1749.9 2830.17 1749.9 2860.15 1751.42 2860.15 1751.42 2860.15 1751.42L2854.44 1783.36Z" fill="#E5037F" fill-rule="evenodd"/><path d="M2871.85 1564.78C2871.85 1564.78 2871.85 1564.78 2871.85 1564.78 2860.42 1558.62 2848.98 1554 2834.68 1554 2750.34 1554 2750.34 1554 2750.34 1554 2720.32 1554 2688.87 1575.57 2676 1606.38 2687.44 1584.81 2708.88 1570.95 2734.61 1570.95 2818.96 1570.95 2818.96 1570.95 2818.96 1570.95 2831.82 1570.95 2844.69 1575.57 2856.13 1583.27 2856.13 1583.27 2856.13 1583.27 2856.13 1583.27 2863.27 1611 2863.27 1611 2863.27 1611 2879 1594.05 2879 1594.05 2879 1594.05L2871.85 1564.78Z" fill="#F492C7" fill-rule="evenodd"/><path d="M2680.25 1719.35C2680.25 1649.18 2680.25 1649.18 2680.25 1649.18 2680.25 1617.14 2702 1586.63 2731 1579 2697.65 1582.05 2673 1615.61 2673 1649.18 2673 1719.35 2673 1719.35 2673 1719.35 2673 1754.44 2696.2 1783.42 2728.1 1788 2700.55 1780.37 2680.25 1752.91 2680.25 1719.35Z" fill="#EF68B2" fill-rule="evenodd"/><path d="M2822.56 1664 2820.82 1664 2822.56 1664 2837 1649.14 2832.38 1640 2811 1641.14 2822.56 1664Z" fill="#A5027E" fill-rule="evenodd"/><path d="M2875 1734.88C2845.1 1733.36 2845.1 1733.36 2845.1 1733.36 2849.37 1706 2849.37 1706 2849.37 1706 2820.9 1704.48 2820.9 1704.48 2820.9 1704.48 2832.29 1677.12 2832.29 1677.12 2832.29 1677.12 2815.2 1668 2815.2 1668 2815.2 1668 2791 1678.64 2791 1678.64 2791 1678.64 2818.05 1693.84 2818.05 1693.84 2818.05 1693.84 2806.66 1719.68 2806.66 1719.68 2806.66 1719.68 2835.14 1721.2 2835.14 1721.2 2835.14 1721.2 2830.86 1748.56 2830.86 1748.56 2830.86 1748.56 2860.76 1751.6 2860.76 1751.6 2860.76 1751.6 2855.07 1782 2855.07 1782 2855.07 1782 2855.07 1782 2855.07 1782 2855.07 1782 2855.07 1782 2855.07 1782 2855.07 1782 2870.73 1766.8 2870.73 1766.8 2870.73 1766.8 2869.31 1766.8 2869.31 1766.8 2869.31 1766.8L2875 1734.88Z" fill="#A5027E" fill-rule="evenodd"/><path d="M2863.6 1611 2879 1594.43 2871.85 1567 2857 1585.29 2863.6 1611Z" fill="#A5027E" fill-rule="evenodd"/><path d="M2840.81 1638.29 2840.81 1640 2855 1622.94 2852.16 1611 2834 1611 2840.81 1638.29Z" fill="#A5027E" fill-rule="evenodd"/><path d="M2845.23 1733 2845.23 1733 2832 1746.6 2837.75 1750 2860.77 1750 2874 1734.7 2845.23 1733Z" fill="#F492C7" fill-rule="evenodd"/><path d="M2834.76 1721 2849 1706.93 2849 1705.17 2822.24 1704 2808 1719.24 2834.76 1721Z" fill="#F492C7" fill-rule="evenodd"/><path d="M2832 1678.4 2832 1677.24 2814.92 1668 2791 1678.4 2817.76 1694 2832 1678.4Z" fill="#F492C7" fill-rule="evenodd"/><path d="M2848 1737C2868 1738.4 2868 1738.4 2868 1738.4 2863.71 1744 2863.71 1744 2863.71 1744 2863.71 1744 2853.71 1737 2848 1737Z" fill="#FFFFFF" fill-rule="evenodd"/><path d="M2823 1707C2843 1707 2843 1707 2843 1707 2837.29 1715 2837.29 1715 2837.29 1715 2837.29 1715 2827.29 1707 2823 1707Z" fill="#FFFFFF" fill-rule="evenodd"/><path d="M2819 1673C2828 1677.67 2828 1677.67 2828 1677.67 2819 1687 2819 1687 2819 1687 2822 1682.33 2823.5 1677.67 2819 1673Z" fill="#FFFFFF" fill-rule="evenodd"/><path d="M2830.67 1611C2833.53 1633.9 2833.53 1633.9 2833.53 1633.9 2804.9 1636.96 2804.9 1636.96 2804.9 1636.96 2812.06 1655.28 2810.63 1655.28 2813.49 1661.39 2809.2 1662.91 2782 1676.66 2782 1676.66 2782 1676.66 2807.76 1693.45 2812.06 1694.98 2809.2 1699.56 2800.61 1723.99 2800.61 1723.99 2800.61 1723.99 2823.51 1727.04 2827.8 1727.04 2827.8 1731.62 2824.94 1753 2824.94 1753 2855 1753 2855 1753 2855 1753 2855 1753 2855 1753 2855 1753 2855 1753 2832.1 1751.47 2827.8 1751.47 2827.8 1746.89 2832.1 1723.99 2832.1 1723.99 2832.1 1723.99 2807.76 1722.46 2802.04 1722.46 2804.9 1716.35 2814.92 1693.45 2814.92 1693.45 2814.92 1693.45 2790.59 1679.71 2784.86 1676.66 2792.02 1673.6 2816.35 1662.91 2816.35 1662.91 2816.35 1662.91 2809.2 1643.06 2806.33 1636.96 2812.06 1636.96 2836.39 1635.43 2836.39 1635.43 2830.67 1611 2830.67 1611 2830.67 1611Z" fill="#FFFFFF" fill-rule="evenodd"/><path d="M2805 1568C2817.82 1568 2837.78 1563.5 2856.3 1577 2862 1571 2862 1571 2862 1571 2846.32 1562 2826.38 1562 2805 1568Z" fill="#FFFFFF" fill-rule="evenodd"/><path d="M2674.45 1719.54C2674.45 1647.98 2674.45 1647.98 2674.45 1647.98 2674.45 1619.06 2694.82 1587.09 2721 1581 2693.36 1588.61 2673 1617.54 2673 1649.51 2673 1719.54 2673 1719.54 2673 1719.54 2673 1749.99 2691.91 1777.39 2719.55 1785 2693.36 1777.39 2674.45 1748.46 2674.45 1719.54Z" fill="#F2FAFC" fill-rule="evenodd"/><path d="M2854.93 1783.86C2844.94 1791.46 2832.09 1794.5 2819.25 1794.5 2735.02 1794.5 2735.02 1794.5 2735.02 1794.5 2696.48 1794.5 2666.5 1762.57 2666.5 1721.51 2666.5 1645.49 2666.5 1645.49 2666.5 1645.49 2666.5 1605.95 2696.48 1572.5 2735.02 1572.5 2819.25 1572.5 2819.25 1572.5 2819.25 1572.5 2832.09 1572.5 2844.94 1577.06 2856.36 1584.66 2856.36 1584.66 2856.36 1584.66 2856.36 1584.66 2863.5 1612.03 2863.5 1612.03 2863.5 1612.03 2833.52 1612.03 2833.52 1612.03 2833.52 1612.03 2840.66 1640.92 2840.66 1640.92 2840.66 1640.92 2810.68 1642.45 2810.68 1642.45 2810.68 1642.45 2822.1 1665.25 2822.1 1665.25 2822.1 1665.25 2790.7 1678.94 2790.7 1678.94 2790.7 1678.94 2817.82 1694.14 2817.82 1694.14 2817.82 1694.14 2806.4 1721.51 2806.4 1721.51 2806.4 1721.51 2834.95 1721.51 2834.95 1721.51 2834.95 1721.51 2830.67 1750.4 2830.67 1750.4 2830.67 1750.4 2860.65 1751.92 2860.65 1751.92 2860.65 1751.92L2854.93 1783.86Z" stroke="#333333" stroke-width="2.86476" stroke-linecap="round" stroke-linejoin="round" stroke-miterlimit="10" fill="none" fill-rule="evenodd"/><path d="M2872.35 1565.28C2872.35 1565.28 2872.35 1565.28 2872.35 1565.28 2860.92 1559.12 2849.48 1554.5 2835.18 1554.5 2750.84 1554.5 2750.84 1554.5 2750.84 1554.5 2720.82 1554.5 2689.37 1576.07 2676.5 1606.88 2687.94 1585.31 2709.38 1571.45 2735.11 1571.45 2819.46 1571.45 2819.46 1571.45 2819.46 1571.45 2832.32 1571.45 2845.19 1576.07 2856.63 1583.77 2856.63 1583.77 2856.63 1583.77 2856.63 1583.77 2863.77 1611.5 2863.77 1611.5 2863.77 1611.5 2879.5 1594.55 2879.5 1594.55 2879.5 1594.55L2872.35 1565.28Z" stroke="#333333" stroke-width="2.86476" stroke-linecap="round" stroke-linejoin="round" stroke-miterlimit="10" fill="none" fill-rule="evenodd"/><path d="M0 0 15.9998 15.9998" stroke="#333333" stroke-width="2.86476" stroke-linecap="round" stroke-linejoin="round" stroke-miterlimit="10" fill="none" fill-rule="evenodd" transform="matrix(1 0 0 -1 2855.5 1584.5)"/><path d="M0 0 14.0001 15.9998" stroke="#333333" stroke-width="2.86476" stroke-linecap="round" stroke-linejoin="round" stroke-miterlimit="10" fill="none" fill-rule="evenodd" transform="matrix(-1 0 0 1 2832.5 1678.5)"/><path d="M2823.06 1664.5 2821.32 1664.5 2823.06 1664.5 2837.5 1649.64 2832.88 1640.5 2811.5 1641.64 2823.06 1664.5Z" stroke="#333333" stroke-width="2.86476" stroke-linecap="round" stroke-linejoin="round" stroke-miterlimit="10" fill="none" fill-rule="evenodd"/><path d="M0 0 13.9997 15.0001" stroke="#333333" stroke-width="2.86476" stroke-linecap="round" stroke-linejoin="round" stroke-miterlimit="10" fill="none" fill-rule="evenodd" transform="matrix(-1 0 0 1 2849.5 1706.5)"/><path d="M0 0 14.0001 15.9998" stroke="#333333" stroke-width="2.86476" stroke-linecap="round" stroke-linejoin="round" stroke-miterlimit="10" fill="none" fill-rule="evenodd" transform="matrix(-1 0 0 1 2845.5 1733.5)"/><path d="M0 0 14.0001 14.9998" stroke="#333333" stroke-width="2.86476" stroke-linecap="round" stroke-linejoin="round" stroke-miterlimit="10" fill="none" fill-rule="evenodd" transform="matrix(-1 0 0 1 2820.5 1704.5)"/><path d="M0 0 14.0001 15.9998" stroke="#333333" stroke-width="2.86476" stroke-linecap="round" stroke-linejoin="round" stroke-miterlimit="10" fill="none" fill-rule="evenodd" transform="matrix(-1 0 0 1 2875.5 1735.5)"/><path d="M2875.5 1735.38C2845.6 1733.86 2845.6 1733.86 2845.6 1733.86 2849.87 1706.5 2849.87 1706.5 2849.87 1706.5 2821.4 1704.98 2821.4 1704.98 2821.4 1704.98 2832.79 1677.62 2832.79 1677.62 2832.79 1677.62 2815.7 1668.5 2815.7 1668.5 2815.7 1668.5 2791.5 1679.14 2791.5 1679.14 2791.5 1679.14 2818.55 1694.34 2818.55 1694.34 2818.55 1694.34 2807.16 1720.18 2807.16 1720.18 2807.16 1720.18 2835.64 1721.7 2835.64 1721.7 2835.64 1721.7 2831.36 1749.06 2831.36 1749.06 2831.36 1749.06 2861.26 1752.1 2861.26 1752.1 2861.26 1752.1 2855.57 1782.5 2855.57 1782.5 2855.57 1782.5 2855.57 1782.5 2855.57 1782.5 2855.57 1782.5 2855.57 1782.5 2855.57 1782.5 2855.57 1782.5 2871.23 1767.3 2871.23 1767.3 2871.23 1767.3 2869.8 1767.3 2869.8 1767.3 2869.8 1767.3L2875.5 1735.38Z" stroke="#333333" stroke-width="2.86476" stroke-linecap="round" stroke-linejoin="round" stroke-miterlimit="10" fill="none" fill-rule="evenodd"/><path d="M2841.31 1638.79 2841.31 1640.5 2855.5 1623.44 2852.66 1611.5 2834.5 1611.5 2841.31 1638.79Z" stroke="#333333" stroke-width="2.86476" stroke-linecap="round" stroke-linejoin="round" stroke-miterlimit="10" fill="none" fill-rule="evenodd"/></g></svg>