<svg width="264" height="264" xmlns="http://www.w3.org/2000/svg" xmlns:xlink="http://www.w3.org/1999/xlink" xml:space="preserve" overflow="hidden"><g transform="translate(-2444 -1110)"><path d="M2681.4 1362.83C2661.34 1368.94 2638.42 1372 2615.5 1372 2522.37 1372 2445 1316.98 2445 1251.26 2445 1184.02 2522.37 1129 2615.5 1129 2638.42 1129 2681.4 1139.7 2681.4 1139.7 2690 1170.26 2690 1170.26 2690 1170.26 2657.05 1170.26 2657.05 1170.26 2657.05 1170.26 2664.21 1202.36 2664.21 1202.36 2664.21 1202.36 2629.82 1203.89 2629.82 1203.89 2629.82 1203.89 2642.72 1229.87 2642.72 1229.87 2642.72 1229.87 2608.33 1245.15 2608.33 1245.15 2608.33 1245.15 2638.42 1261.96 2638.42 1261.96 2638.42 1261.96 2625.53 1292.53 2625.53 1292.53 2625.53 1292.53 2658.48 1292.53 2658.48 1292.53 2658.48 1292.53 2652.75 1324.62 2652.75 1324.62 2652.75 1324.62 2685.7 1326.15 2685.7 1326.15 2685.7 1326.15 2681.4 1362.83 2681.4 1362.83 2681.4 1362.83Z" fill="#09559C" fill-rule="evenodd"/><path d="M2615.54 1127.9C2638.51 1127.9 2681.59 1138.66 2681.59 1138.66 2690.21 1169.39 2690.21 1169.39 2690.21 1169.39 2706 1152.49 2706 1152.49 2706 1152.49 2697.38 1120.22 2697.38 1120.22 2697.38 1120.22 2697.38 1120.22 2655.74 1111 2631.33 1111 2568.15 1111 2512.15 1135.59 2482 1174 2513.59 1146.34 2562.41 1127.9 2615.54 1127.9Z" fill="#A6BBD7" fill-rule="evenodd"/><path d="M2642.32 1229 2642.32 1229 2658 1212.12 2655.2 1202 2630 1203.13 2642.32 1229Z" fill="#091D5A" fill-rule="evenodd"/><path d="M2703 1308.47C2668.45 1306.94 2668.45 1306.94 2668.45 1306.94 2674.21 1274.82 2674.21 1274.82 2674.21 1274.82 2641.11 1273.29 2641.11 1273.29 2641.11 1273.29 2655.5 1244.24 2655.5 1244.24 2655.5 1244.24 2635.35 1232 2635.35 1232 2635.35 1232 2608 1244.24 2608 1244.24 2608 1244.24 2638.23 1261.06 2638.23 1261.06 2638.23 1261.06 2625.27 1291.65 2625.27 1291.65 2625.27 1291.65 2658.38 1291.65 2658.38 1291.65 2658.38 1291.65 2652.62 1323.76 2652.62 1323.76 2652.62 1323.76 2685.73 1325.29 2685.73 1325.29 2685.73 1325.29 2681.41 1362 2681.41 1362 2681.41 1362 2681.41 1362 2681.41 1362 2681.41 1362 2681.41 1362 2681.41 1362 2681.41 1362 2697.24 1343.65 2697.24 1343.65 2697.24 1343.65 2697.24 1343.65 2697.24 1343.65 2697.24 1343.65L2703 1308.47Z" fill="#091D5A" fill-rule="evenodd"/><path d="M2664.29 1200.29 2664.29 1202 2680 1183.71 2677.19 1170 2657 1170 2664.29 1200.29Z" fill="#091D5A" fill-rule="evenodd"/><path d="M2668.72 1307.71 2668.72 1306 2654 1322.57 2659.66 1324.29 2685.71 1326 2701 1308.86 2668.72 1307.71Z" fill="#A6BBD7" fill-rule="evenodd"/><path d="M2658.14 1294 2674 1276.86 2674 1275.71 2643.99 1274 2627 1292.29 2658.14 1292.29 2658.14 1294Z" fill="#A6BBD7" fill-rule="evenodd"/><path d="M2653.3 1244.35 2655 1244.35 2635.18 1232 2608 1244.35 2638.01 1262 2653.3 1244.35Z" fill="#A6BBD7" fill-rule="evenodd"/><path d="M2673 1309C2696 1310.5 2696 1310.5 2696 1310.5 2688.81 1318 2688.81 1318 2688.81 1318 2688.81 1318 2678.75 1310.5 2673 1309Z" fill="#FFFFFF" fill-rule="evenodd"/><path d="M2644 1276C2667 1277.6 2667 1277.6 2667 1277.6 2661.25 1284 2661.25 1284 2661.25 1284 2661.25 1284 2649.75 1276 2644 1276Z" fill="#FFFFFF" fill-rule="evenodd"/><path d="M2639 1239C2650 1245 2650 1245 2650 1245 2639 1254 2639 1254 2639 1254 2642.14 1249.5 2643.71 1245 2639 1239Z" fill="#FFFFFF" fill-rule="evenodd"/><path d="M2697.28 1122 2681 1138.77 2689.72 1170 2706 1152.65 2697.28 1122Z" fill="#091D5A" fill-rule="evenodd"/><path d="M2615 1124C2629.49 1122.5 2672.96 1131.5 2677.31 1133 2678.76 1130 2686 1125.5 2686 1125.5 2678.76 1125.5 2635.29 1121 2615 1124Z" fill="#FFFFFF" fill-rule="evenodd"/><path d="M2468.73 1252.37C2468.73 1203.53 2514.5 1159.26 2576 1144 2505.92 1154.68 2453 1198.95 2453 1250.84 2453 1293.58 2485.9 1328.68 2533.09 1347 2494.48 1325.63 2468.73 1289 2468.73 1252.37Z" fill="#4D7EB4" fill-rule="evenodd"/><path d="M2533.09 1349C2485.9 1330.59 2455.86 1293.78 2455.86 1252.37 2455.86 1198.68 2505.92 1154.2 2576 1145 2505.92 1154.2 2453 1198.68 2453 1252.37 2453 1293.78 2485.9 1330.59 2533.09 1349" fill="#FFFFFF" fill-rule="evenodd"/><path d="M2653.67 1171C2656.54 1195.54 2656.54 1195.54 2656.54 1195.54 2624.89 1198.61 2624.89 1198.61 2624.89 1198.61 2632.09 1220.09 2632.09 1220.09 2634.96 1226.22 2630.65 1229.29 2599 1243.1 2599 1243.1 2599 1243.1 2627.77 1261.5 2632.09 1264.57 2630.65 1269.17 2620.58 1295.25 2620.58 1295.25 2620.58 1295.25 2646.47 1299.85 2650.79 1299.85 2650.79 1305.99 2647.91 1329 2647.91 1329 2681 1329 2681 1329 2681 1329 2681 1329 2681 1329 2681 1329 2681 1329 2655.11 1327.47 2649.35 1327.47 2650.79 1322.86 2655.11 1296.79 2655.11 1296.79 2655.11 1296.79 2629.21 1295.25 2622.02 1295.25 2624.89 1287.58 2636.4 1263.04 2636.4 1263.04 2636.4 1263.04 2609.07 1247.7 2601.88 1243.1 2610.51 1240.03 2637.84 1227.76 2637.84 1227.76 2637.84 1227.76 2629.21 1206.28 2626.33 1200.15 2632.09 1198.61 2660.86 1198.61 2660.86 1198.61 2653.67 1171 2653.67 1171 2653.67 1171Z" fill="#FFFFFF" fill-rule="evenodd"/><path d="M2681.9 1363.33C2661.85 1369.44 2638.92 1372.5 2616 1372.5 2522.87 1372.5 2445.5 1317.48 2445.5 1251.76 2445.5 1184.52 2522.87 1129.5 2616 1129.5 2638.92 1129.5 2681.9 1140.2 2681.9 1140.2 2690.5 1170.76 2690.5 1170.76 2690.5 1170.76 2657.55 1170.76 2657.55 1170.76 2657.55 1170.76 2664.71 1202.86 2664.71 1202.86 2664.71 1202.86 2630.32 1204.39 2630.32 1204.39 2630.32 1204.39 2643.22 1230.37 2643.22 1230.37 2643.22 1230.37 2608.83 1245.65 2608.83 1245.65 2608.83 1245.65 2638.92 1262.46 2638.92 1262.46 2638.92 1262.46 2626.03 1293.03 2626.03 1293.03 2626.03 1293.03 2658.98 1293.03 2658.98 1293.03 2658.98 1293.03 2653.25 1325.12 2653.25 1325.12 2653.25 1325.12 2686.2 1326.65 2686.2 1326.65 2686.2 1326.65 2681.9 1363.33 2681.9 1363.33 2681.9 1363.33Z" stroke="#333333" stroke-width="2.86476" stroke-linecap="round" stroke-linejoin="round" stroke-miterlimit="10" fill="none" fill-rule="evenodd"/><path d="M0 0 16.9998 18.0002" stroke="#333333" stroke-width="2.86476" stroke-linecap="round" stroke-linejoin="round" stroke-miterlimit="10" fill="none" fill-rule="evenodd" transform="matrix(-1 0 0 1 2655.5 1244.5)"/><path d="M2642.82 1229.5 2642.82 1229.5 2658.5 1212.62 2655.7 1202.5 2630.5 1203.62 2642.82 1229.5Z" stroke="#333333" stroke-width="2.86476" stroke-linecap="round" stroke-linejoin="round" stroke-miterlimit="10" fill="none" fill-rule="evenodd"/><path d="M0 0 15.9998 16.9998" stroke="#333333" stroke-width="2.86476" stroke-linecap="round" stroke-linejoin="round" stroke-miterlimit="10" fill="none" fill-rule="evenodd" transform="matrix(-1 0 0 1 2674.5 1275.5)"/><path d="M0 0 17.0002 17.0002" stroke="#333333" stroke-width="2.86476" stroke-linecap="round" stroke-linejoin="round" stroke-miterlimit="10" fill="none" fill-rule="evenodd" transform="matrix(-1 0 0 1 2703.5 1309.5)"/><path d="M0 0 16.0002 15.9998" stroke="#333333" stroke-width="2.86476" stroke-linecap="round" stroke-linejoin="round" stroke-miterlimit="10" fill="none" fill-rule="evenodd" transform="matrix(-1 0 0 1 2669.5 1306.5)"/><path d="M0 0 15.9998 17.9999" stroke="#333333" stroke-width="2.86476" stroke-linecap="round" stroke-linejoin="round" stroke-miterlimit="10" fill="none" fill-rule="evenodd" transform="matrix(-1 0 0 1 2641.5 1274.5)"/><path d="M2703.5 1308.97C2668.95 1307.44 2668.95 1307.44 2668.95 1307.44 2674.71 1275.32 2674.71 1275.32 2674.71 1275.32 2641.61 1273.79 2641.61 1273.79 2641.61 1273.79 2656 1244.74 2656 1244.74 2656 1244.74 2635.85 1232.5 2635.85 1232.5 2635.85 1232.5 2608.5 1244.74 2608.5 1244.74 2608.5 1244.74 2638.73 1261.56 2638.73 1261.56 2638.73 1261.56 2625.77 1292.15 2625.77 1292.15 2625.77 1292.15 2658.88 1292.15 2658.88 1292.15 2658.88 1292.15 2653.12 1324.26 2653.12 1324.26 2653.12 1324.26 2686.23 1325.79 2686.23 1325.79 2686.23 1325.79 2681.91 1362.5 2681.91 1362.5 2681.91 1362.5 2681.91 1362.5 2681.91 1362.5 2681.91 1362.5 2681.91 1362.5 2681.91 1362.5 2681.91 1362.5 2697.74 1344.15 2697.74 1344.15 2697.74 1344.15 2697.74 1344.15 2697.74 1344.15 2697.74 1344.15L2703.5 1308.97Z" stroke="#333333" stroke-width="2.86476" stroke-linecap="round" stroke-linejoin="round" stroke-miterlimit="10" fill="none" fill-rule="evenodd"/><path d="M2664.79 1200.79 2664.79 1202.5 2680.5 1184.21 2677.7 1170.5 2657.5 1170.5 2664.79 1200.79Z" stroke="#333333" stroke-width="2.86476" stroke-linecap="round" stroke-linejoin="round" stroke-miterlimit="10" fill="none" fill-rule="evenodd"/><path d="M0 0 15.9998 17.9999" stroke="#333333" stroke-width="2.86476" stroke-linecap="round" stroke-linejoin="round" stroke-miterlimit="10" fill="none" fill-rule="evenodd" transform="matrix(1 0 0 -1 2681.5 1139.5)"/><path d="M2616.04 1128.4C2639.01 1128.4 2682.09 1139.16 2682.09 1139.16 2690.7 1169.89 2690.7 1169.89 2690.7 1169.89 2706.5 1152.99 2706.5 1152.99 2706.5 1152.99 2697.88 1120.72 2697.88 1120.72 2697.88 1120.72 2697.88 1120.72 2656.24 1111.5 2631.83 1111.5 2568.65 1111.5 2512.65 1136.09 2482.5 1174.5 2514.09 1146.84 2562.91 1128.4 2616.04 1128.4Z" stroke="#333333" stroke-width="2.86476" stroke-linecap="round" stroke-linejoin="round" stroke-miterlimit="10" fill="none" fill-rule="evenodd"/></g></svg>