<svg width="965" height="459" xmlns="http://www.w3.org/2000/svg" xmlns:xlink="http://www.w3.org/1999/xlink" xml:space="preserve" overflow="hidden"><g transform="translate(-839 -508)"><path d="M1336.78 940.947C1295.47 934.316 1256.22 927.684 1173.6 929.895 1093.04 932.105 1024.87 938.737 985.625 945.368 952.575 952 903 940.947 903 903.368 905.066 868 1024.87 887.895 1103.37 894.526 1179.8 901.158 1272.75 883.474 1322.32 881.263 1371.9 879.053 1429.74 879.053 1435.93 916.631 1438 936.526 1411.15 947.579 1336.78 940.947Z" fill="#F5E4E5" fill-rule="evenodd"/><path d="M1263.93 900.8C1286.64 896.4 1305.23 894.2 1321.75 894.2 1360.98 892 1396.09 896.4 1412.61 903 1425 909.6 1420.87 922.8 1412.61 925 1402.28 927.2 1379.57 931.6 1338.27 927.2 1336.2 927.2 1332.07 927.2 1332.07 927.2 1292.84 920.6 1251.54 914 1173.07 916.2 1090.46 918.4 1022.32 925 983.081 931.6 960.366 936 935.585 931.6 923.195 920.6 917 916.2 917 900.8 925.26 898.6 950.041 892 1024.38 898.6 1059.49 903 1100.79 907.4 1100.79 907.4 1100.79 907.4 1154.48 911.8 1214.37 905.2 1263.93 900.8Z" fill="#BC576D" fill-rule="evenodd"/><path d="M859.068 550.515C857 603.606 894.227 605.818 945.932 603.606 999.704 603.606 1103.11 614.667 1179.64 641.212 1256.16 667.758 1446.43 712 1514.68 661.121 1585 608.03 1566.39 557.151 1514.68 539.454 1460.91 519.545 1436.09 612.454 1347.16 619.091 1258.23 625.727 1119.66 583.697 1036.93 574.848 952.136 566 863.204 493 859.068 550.515Z" fill="#BC576D" fill-rule="evenodd"/><path d="M859.068 550.515C857 603.606 894.227 605.818 945.932 603.606 999.704 603.606 1103.11 614.667 1179.64 641.212 1256.16 667.758 1446.43 712 1514.68 661.121 1585 608.03 1566.39 557.151 1514.68 539.454 1460.91 519.545 1436.09 612.454 1347.16 619.091 1258.23 625.727 1119.66 583.697 1036.93 574.848 952.136 566 863.204 493 859.068 550.515Z" fill="#F5E4E5" fill-rule="evenodd"/><path d="M1047.21 730.754C1041 772.803 1074.1 786.082 1117.55 777.23 1160.99 768.377 1320.29 775.016 1415.46 775.016 1512.7 775.016 1543.73 806 1576.83 794.935 1612 786.082 1609.93 737.393 1562.35 721.902 1514.76 708.623 1471.32 717.475 1419.6 721.902 1367.88 728.541 1278.92 746.246 1218.92 730.754 1160.99 713.049 1053.41 671 1047.21 730.754Z" fill="#F5E4E5" fill-rule="evenodd"/><path d="M1105.24 839.283C1113.49 878.804 1148.52 881 1179.44 865.63 1210.35 848.065 1255.7 870.022 1259.82 826.109 1266 780 1208.29 799.761 1183.56 801.956 1156.77 804.152 1097 797.565 1105.24 839.283Z" fill="#F5E4E5" fill-rule="evenodd"/><path d="M1285.06 810.69C1285.06 795.241 1303.57 782 1322.09 784.207 1340.6 786.414 1355 801.862 1352.94 817.31 1350.89 834.966 1334.43 846 1315.91 843.793 1297.4 841.586 1283 826.138 1285.06 810.69Z" fill="#F5E4E5" fill-rule="evenodd"/><path d="M872.064 541.616C882.382 535 911.273 546.027 938.1 557.055 969.055 568.082 1002.07 581.315 1035.09 585.726 1063.98 587.931 1101.13 596.753 1140.34 603.37 1210.5 618.808 1288.92 634.247 1346.7 629.836 1396.23 625.425 1427.18 598.959 1451.95 576.904 1476.71 554.849 1491.15 543.822 1509.73 550.438 1532.43 557.055 1546.87 570.288 1548.94 585.726 1551 605.575 1536.55 627.63 1507.66 649.685 1449.88 696 1278.6 660.712 1183.67 629.836 1103.19 601.164 995.882 592.342 946.355 592.342 915.4 592.342 888.573 592.342 876.191 579.11 872.064 574.699 870 565.877 870 552.644 870 552.644 870 552.644 870 550.438 870 546.027 870 541.616 872.064 541.616Z" fill="#BC576D" fill-rule="evenodd"/><path d="M1063.28 757.2C1057.07 752.8 1055 744 1057.07 730.8 1057.07 730.8 1057.07 730.8 1057.07 730.8 1057.07 724.2 1059.14 719.8 1063.28 717.6 1088.11 700 1152.27 722 1195.73 735.2 1216.42 739.6 1216.42 739.6 1216.42 739.6 1266.09 755 1332.31 746.2 1386.12 739.6 1421.3 735.2 1421.3 735.2 1421.3 735.2 1448.2 730.8 1448.2 730.8 1448.2 730.8 1487.53 726.4 1522.71 722 1559.96 733 1582.72 741.8 1591 755 1591 766 1591 774.8 1584.79 781.4 1574.44 785.8 1562.03 788 1547.54 785.8 1526.85 779.2 1502.01 772.6 1468.9 761.6 1415.09 761.6 1326.1 761.6 1326.1 761.6 1326.1 761.6 1239.19 761.6 1148.13 759.4 1115.02 766 1090.18 770.4 1071.56 768.2 1063.28 757.2Z" fill="#BC576D" fill-rule="evenodd"/><path d="M1115 830.571C1115 828.357 1115 826.143 1117.08 823.929 1123.3 815.071 1152.36 812.857 1171.05 812.857 1183.5 812.857 1183.5 812.857 1183.5 812.857 1183.5 812.857 1202.18 810.643 1202.18 810.643 1218.79 808.429 1241.62 804 1247.85 810.643 1249.92 812.857 1252 817.286 1249.92 823.929 1247.85 841.643 1239.55 843.857 1214.64 846.071 1202.18 848.286 1187.65 848.286 1175.2 854.929 1158.59 863.786 1139.91 866 1129.53 859.357 1121.23 854.929 1117.08 848.286 1115 837.214 1115 835 1115 832.786 1115 830.571Z" fill="#BC576D" fill-rule="evenodd"/><path d="M1320.04 795C1332.57 797.222 1343 806.111 1343 817.222 1340.91 826.111 1330.48 835 1317.96 832.778 1309.61 830.556 1301.26 828.333 1297.09 821.667 1297.09 819.444 1295 817.222 1295 812.778 1295 812.778 1295 812.778 1295 812.778 1295 801.667 1307.52 795 1320.04 795Z" fill="#BC576D" fill-rule="evenodd"/><path d="M1365.28 822.015C1357 859.567 1383.89 857.358 1421.13 848.522 1458.37 839.687 1487.33 835.269 1551.47 852.94 1615.6 870.612 1745.94 917 1776.97 879.448 1808 841.896 1741.8 824.224 1710.77 824.224 1679.73 824.224 1623.88 828.642 1586.64 824.224 1549.4 819.806 1373.55 769 1365.28 822.015Z" fill="#F5E4E5" fill-rule="evenodd"/><path d="M1384.47 839.238C1370 834.857 1380.33 817.333 1386.53 815.143 1417.53 802 1506.4 819.524 1549.8 828.286 1587 837.048 1587 837.048 1587 837.048 1613.87 839.238 1649 839.238 1677.93 837.048 1711 837.048 1711 837.048 1711 837.048 1731.67 837.048 1756.47 843.619 1768.87 852.381 1773 856.762 1770.93 865.524 1768.87 869.905 1746.13 894 1642.8 863.333 1587 848 1556 839.238 1556 839.238 1556 839.238 1489.87 821.714 1458.87 826.095 1419.6 834.857 1401 839.238 1390.67 839.238 1384.47 839.238Z" fill="#BC576D" fill-rule="evenodd"/><path d="M1016 583.231C989.268 576.654 962.535 565.692 937.859 556.923 911.127 545.961 882.338 535 872.056 541.577 870 541.577 870 545.961 870 550.346 870 552.538 870 552.538 870 552.538 870 565.692 872.056 574.461 876.169 578.846 882.338 585.423 892.62 589.808 904.958 592 907.014 589.808 907.014 587.615 907.014 585.423 913.183 576.654 923.465 576.654 931.69 576.654 956.366 576.654 981.042 583.231 1003.66 583.231 1007.77 583.231 1011.89 583.231 1016 583.231Z" fill="#A82D4D" fill-rule="evenodd"/><path d="M1548.94 585.944C1546.87 570.491 1532.42 557.245 1509.7 550.623 1491.12 544 1476.66 555.038 1451.88 577.113 1427.1 599.189 1396.13 625.679 1346.57 630.094 1313.53 632.302 1274.3 627.887 1233 621.264 1282.56 636.717 1332.12 645.547 1381.68 638.925 1408.52 636.717 1453.95 601.396 1478.73 625.679 1486.99 634.51 1489.05 647.755 1489.05 661 1497.31 658.792 1503.51 654.377 1507.64 649.962 1536.55 627.887 1551 605.811 1548.94 585.944Z" fill="#A82D4D" fill-rule="evenodd"/><path d="M1217.07 739.938C1196.29 735.5 1196.29 735.5 1196.29 735.5 1152.66 722.187 1088.24 700 1063.31 717.75 1059.16 719.969 1057.08 724.406 1057.08 731.062 1057.08 731.062 1057.08 731.062 1057.08 731.062 1055 744.375 1057.08 753.25 1063.31 757.688 1071.62 768.781 1090.32 771 1113.18 766.562 1115.26 751.031 1140.19 746.594 1150.58 746.594 1165.12 744.375 1179.67 746.594 1194.21 746.594 1206.68 746.594 1227.46 748.812 1242 746.594 1233.69 744.375 1225.38 744.375 1217.07 739.938Z" fill="#A82D4D" fill-rule="evenodd"/><path d="M1559.97 733C1522.74 722 1487.57 726.4 1448.26 730.8 1421.37 735.2 1421.37 735.2 1421.37 735.2 1386.21 739.6 1386.21 739.6 1386.21 739.6 1384.14 739.6 1382.07 739.6 1380 739.6 1400.69 739.6 1421.37 739.6 1437.92 744 1458.61 748.4 1485.5 755 1502.05 770.4 1502.05 772.6 1502.05 772.6 1504.12 772.6 1512.39 774.8 1520.67 777 1526.87 779.2 1547.56 785.8 1562.04 788 1574.45 785.8 1584.79 781.4 1591 774.8 1591 766 1591 755 1582.73 741.8 1559.97 733Z" fill="#A82D4D" fill-rule="evenodd"/><path d="M1183.54 825.852C1198.08 821.482 1212.62 823.667 1225.08 821.482 1231.31 821.482 1243.77 821.482 1250 817.111 1250 814.926 1250 812.741 1247.92 810.556 1241.69 804 1218.85 808.37 1202.23 810.556 1202.23 810.556 1183.54 812.741 1183.54 812.741 1171.08 812.741 1171.08 812.741 1171.08 812.741 1152.38 812.741 1123.31 814.926 1117.08 823.667 1115 825.852 1115 828.037 1115 830.222 1115 832.408 1115 834.593 1115 836.778 1117.08 847.704 1121.23 854.259 1129.54 858.63 1139.92 863 1152.38 863 1166.92 858.63 1162.77 858.63 1160.69 856.445 1158.62 852.074 1154.46 836.778 1175.23 828.037 1183.54 825.852Z" fill="#A82D4D" fill-rule="evenodd"/><path d="M1343 814.688C1343 805.938 1332.57 797.188 1320.04 795 1307.52 795 1295 801.563 1295 812.5 1295 812.5 1295 812.5 1295 812.5 1295 816.875 1297.09 819.063 1297.09 821.25 1301.26 825.625 1303.35 827.813 1307.52 830 1305.43 825.625 1305.43 821.25 1311.7 816.875 1320.04 810.313 1338.83 819.063 1343 814.688Z" fill="#A82D4D" fill-rule="evenodd"/><path d="M1508 821.5C1508 821.5 1508 821.5 1508 821.5 1464.75 812.75 1409.13 804 1386.48 814.938 1380.3 817.125 1370 834.625 1384.42 839 1388.54 839 1396.78 839 1405.01 836.813 1429.73 812.75 1479.16 819.313 1508 821.5Z" fill="#A82D4D" fill-rule="evenodd"/><path d="M1768.85 870C1770.93 865.6 1773 856.8 1768.85 852.4 1756.4 843.6 1731.5 837 1710.75 837 1677.55 837 1677.55 837 1677.55 837 1656.8 837 1629.82 839.2 1607 837 1627.75 843.6 1652.65 843.6 1675.47 848 1687.93 848 1704.53 850.2 1712.82 863.4 1716.97 867.8 1716.97 874.4 1714.9 878.8 1739.8 881 1760.55 878.8 1768.85 870Z" fill="#A82D4D" fill-rule="evenodd"/><path d="M981.087 931.6C983.154 920.6 1028.63 914 1034.84 914 1067.91 911.8 1100.99 916.2 1132 909.6 1121.66 909.6 1111.33 909.6 1100.99 907.4 1059.64 903 1059.64 903 1059.64 903 1024.5 898.6 950.077 892 925.269 898.6 917 900.8 917 916.2 923.202 920.6 933.539 929.4 958.346 936 981.087 931.6Z" fill="#A82D4D" fill-rule="evenodd"/><path d="M1412.62 903.111C1396.11 896.445 1361.03 892 1321.82 894.222 1305.31 894.222 1286.74 896.445 1264.04 900.889 1251.65 900.889 1237.21 903.111 1222.76 905.333 1224.83 905.333 1226.89 905.333 1228.95 905.333 1249.59 905.333 1272.29 903.111 1292.93 907.556 1301.18 909.778 1317.69 914.222 1321.82 925.333 1321.82 925.333 1321.82 925.333 1321.82 925.333 1325.95 925.333 1330.07 925.333 1332.14 927.555 1332.14 927.555 1336.26 927.555 1338.33 927.555 1379.6 932 1402.3 927.555 1412.62 925.333 1420.87 923.111 1425 909.778 1412.62 903.111ZM1198 907.556C1198 907.556 1198 907.556 1198 907.556 1198 907.556 1198 907.556 1198 907.556Z" fill="#A82D4D" fill-rule="evenodd"/><path d="M1337.28 941.447C1295.97 934.816 1256.72 928.184 1174.1 930.395 1093.54 932.605 1025.37 939.237 986.125 945.868 953.075 952.5 903.5 941.447 903.5 903.869 905.565 868.5 1025.37 888.395 1103.87 895.026 1180.3 901.658 1273.25 883.974 1322.82 881.763 1372.4 879.553 1430.24 879.553 1436.43 917.132 1438.5 937.026 1411.65 948.079 1337.28 941.447Z" stroke="#333333" stroke-width="4.58333" stroke-linecap="round" stroke-linejoin="round" stroke-miterlimit="10" fill="none" fill-rule="evenodd"/><path d="M859.568 551.015C857.5 604.106 894.727 606.318 946.432 604.106 1000.2 604.106 1103.61 615.167 1180.14 641.712 1256.66 668.258 1446.93 712.5 1515.18 661.621 1585.5 608.53 1566.89 557.652 1515.18 539.955 1461.41 520.046 1436.59 612.955 1347.66 619.591 1258.73 626.227 1120.16 584.197 1037.43 575.349 952.636 566.5 863.705 493.5 859.568 551.015Z" stroke="#333333" stroke-width="4.58333" stroke-linecap="round" stroke-linejoin="round" stroke-miterlimit="10" fill="none" fill-rule="evenodd"/><path d="M859.568 551.015C857.5 604.106 894.727 606.318 946.432 604.106 1000.2 604.106 1103.61 615.167 1180.14 641.712 1256.66 668.258 1446.93 712.5 1515.18 661.621 1585.5 608.53 1566.89 557.652 1515.18 539.955 1461.41 520.046 1436.59 612.955 1347.66 619.591 1258.73 626.227 1120.16 584.197 1037.43 575.349 952.636 566.5 863.705 493.5 859.568 551.015Z" stroke="#333333" stroke-width="4.58333" stroke-linecap="round" stroke-linejoin="round" stroke-miterlimit="10" fill="none" fill-rule="evenodd"/><path d="M1047.71 731.254C1041.5 773.303 1074.6 786.582 1118.05 777.729 1161.49 768.877 1320.79 775.516 1415.96 775.516 1513.2 775.516 1544.23 806.5 1577.33 795.434 1612.5 786.582 1610.43 737.893 1562.85 722.401 1515.26 709.123 1471.82 717.975 1420.1 722.401 1368.38 729.041 1279.42 746.746 1219.42 731.254 1161.49 713.549 1053.91 671.5 1047.71 731.254Z" stroke="#333333" stroke-width="4.58333" stroke-linecap="round" stroke-linejoin="round" stroke-miterlimit="10" fill="none" fill-rule="evenodd"/><path d="M1105.74 839.783C1113.99 879.304 1149.02 881.5 1179.94 866.13 1210.85 848.565 1256.2 870.522 1260.32 826.609 1266.5 780.5 1208.79 800.261 1184.06 802.457 1157.27 804.652 1097.5 798.065 1105.74 839.783Z" stroke="#333333" stroke-width="4.58333" stroke-linecap="round" stroke-linejoin="round" stroke-miterlimit="10" fill="none" fill-rule="evenodd"/><path d="M1285.56 811.19C1285.56 795.741 1304.07 782.5 1322.59 784.707 1341.1 786.914 1355.5 802.362 1353.44 817.81 1351.39 835.466 1334.93 846.5 1316.41 844.293 1297.9 842.086 1283.5 826.638 1285.56 811.19Z" stroke="#333333" stroke-width="4.58333" stroke-linecap="round" stroke-linejoin="round" stroke-miterlimit="10" fill="none" fill-rule="evenodd"/><path d="M1365.78 822.515C1357.5 860.067 1384.39 857.858 1421.63 849.022 1458.87 840.187 1487.83 835.769 1551.97 853.44 1616.1 871.112 1746.44 917.5 1777.47 879.948 1808.5 842.396 1742.3 824.724 1711.27 824.724 1680.23 824.724 1624.38 829.142 1587.14 824.724 1549.9 820.306 1374.05 769.5 1365.78 822.515Z" stroke="#333333" stroke-width="4.58333" stroke-linecap="round" stroke-linejoin="round" stroke-miterlimit="10" fill="none" fill-rule="evenodd"/><path d="M1368 596C1368 590.477 1371.58 586 1376 586 1380.42 586 1384 590.477 1384 596 1384 601.523 1380.42 606 1376 606 1371.58 606 1368 601.523 1368 596Z" fill="#460061" fill-rule="evenodd"/><path d="M1334 602C1334 596.477 1337.81 592 1342.5 592 1347.19 592 1351 596.477 1351 602 1351 607.523 1347.19 612 1342.5 612 1337.81 612 1334 607.523 1334 602Z" fill="#460061" fill-rule="evenodd"/><path d="M1297 601C1297 596.029 1300.81 592 1305.5 592 1310.19 592 1314 596.029 1314 601 1314 605.971 1310.19 610 1305.5 610 1300.81 610 1297 605.971 1297 601Z" fill="#460061" fill-rule="evenodd"/><path d="M1258 599C1258 594.029 1261.81 590 1266.5 590 1271.19 590 1275 594.029 1275 599 1275 603.971 1271.19 608 1266.5 608 1261.81 608 1258 603.971 1258 599Z" fill="#460061" fill-rule="evenodd"/><path d="M1219 594.5C1219 589.806 1222.58 586 1227 586 1231.42 586 1235 589.806 1235 594.5 1235 599.194 1231.42 603 1227 603 1222.58 603 1219 599.194 1219 594.5Z" fill="#460061" fill-rule="evenodd"/><path d="M1173 584.5C1173 579.253 1176.81 575 1181.5 575 1186.19 575 1190 579.253 1190 584.5 1190 589.747 1186.19 594 1181.5 594 1176.81 594 1173 589.747 1173 584.5Z" fill="#460061" fill-rule="evenodd"/><path d="M1128 579C1128 574.029 1131.81 570 1136.5 570 1141.19 570 1145 574.029 1145 579 1145 583.971 1141.19 588 1136.5 588 1131.81 588 1128 583.971 1128 579Z" fill="#460061" fill-rule="evenodd"/><path d="M1085 568C1085 563.029 1089.03 559 1094 559 1098.97 559 1103 563.029 1103 568 1103 572.971 1098.97 577 1094 577 1089.03 577 1085 572.971 1085 568Z" fill="#460061" fill-rule="evenodd"/><path d="M1050 563.5C1050 558.806 1053.58 555 1058 555 1062.42 555 1066 558.806 1066 563.5 1066 568.194 1062.42 572 1058 572 1053.58 572 1050 568.194 1050 563.5Z" fill="#460061" fill-rule="evenodd"/><path d="M1004 555C1004 550.029 1007.58 546 1012 546 1016.42 546 1020 550.029 1020 555 1020 559.971 1016.42 564 1012 564 1007.58 564 1004 559.971 1004 555Z" fill="#460061" fill-rule="evenodd"/><path d="M963 541.5C963 536.806 967.029 533 972 533 976.971 533 981 536.806 981 541.5 981 546.194 976.971 550 972 550 967.029 550 963 546.194 963 541.5Z" fill="#460061" fill-rule="evenodd"/><path d="M913 526C913 521.029 917.253 517 922.5 517 927.747 517 932 521.029 932 526 932 530.97 927.747 535 922.5 535 917.253 535 913 530.97 913 526Z" fill="#460061" fill-rule="evenodd"/><path d="M871 517C871 512.029 874.806 508 879.5 508 884.194 508 888 512.029 888 517 888 521.971 884.194 526 879.5 526 874.806 526 871 521.971 871 517Z" fill="#460061" fill-rule="evenodd"/><path d="M1035 703C1035 698.029 1039.25 694 1044.5 694 1049.75 694 1054 698.029 1054 703 1054 707.971 1049.75 712 1044.5 712 1039.25 712 1035 707.971 1035 703Z" fill="#460061" fill-rule="evenodd"/><path d="M1062 692C1062 686.477 1065.58 682 1070 682 1074.42 682 1078 686.477 1078 692 1078 697.523 1074.42 702 1070 702 1065.58 702 1062 697.523 1062 692Z" fill="#460061" fill-rule="evenodd"/><path d="M1097 692C1097 686.477 1101.03 682 1106 682 1110.97 682 1115 686.477 1115 692 1115 697.523 1110.97 702 1106 702 1101.03 702 1097 697.523 1097 692Z" fill="#460061" fill-rule="evenodd"/><path d="M1134 695C1134 689.477 1137.58 685 1142 685 1146.42 685 1150 689.477 1150 695 1150 700.523 1146.42 705 1142 705 1137.58 705 1134 700.523 1134 695Z" fill="#460061" fill-rule="evenodd"/><path d="M1167 703C1167 698.029 1170.81 694 1175.5 694 1180.19 694 1184 698.029 1184 703 1184 707.971 1180.19 712 1175.5 712 1170.81 712 1167 707.971 1167 703Z" fill="#460061" fill-rule="evenodd"/><path d="M1204 712C1204 706.477 1207.81 702 1212.5 702 1217.19 702 1221 706.477 1221 712 1221 717.523 1217.19 722 1212.5 722 1207.81 722 1204 717.523 1204 712Z" fill="#460061" fill-rule="evenodd"/><path d="M1238 723C1238 717.477 1241.58 713 1246 713 1250.42 713 1254 717.477 1254 723 1254 728.523 1250.42 733 1246 733 1241.58 733 1238 728.523 1238 723Z" fill="#460061" fill-rule="evenodd"/><path d="M1271 726C1271 720.477 1275.03 716 1280 716 1284.97 716 1289 720.477 1289 726 1289 731.523 1284.97 736 1280 736 1275.03 736 1271 731.523 1271 726Z" fill="#460061" fill-rule="evenodd"/><path d="M1312 724.5C1312 719.806 1316.03 716 1321 716 1325.97 716 1330 719.806 1330 724.5 1330 729.194 1325.97 733 1321 733 1316.03 733 1312 729.194 1312 724.5Z" fill="#460061" fill-rule="evenodd"/><path d="M1357 719C1357 713.477 1360.81 709 1365.5 709 1370.19 709 1374 713.477 1374 719 1374 724.523 1370.19 729 1365.5 729 1360.81 729 1357 724.523 1357 719Z" fill="#460061" fill-rule="evenodd"/><path d="M1394 711C1394 706.029 1398.25 702 1403.5 702 1408.75 702 1413 706.029 1413 711 1413 715.971 1408.75 720 1403.5 720 1398.25 720 1394 715.971 1394 711Z" fill="#460061" fill-rule="evenodd"/><path d="M1432 707C1432 702.03 1435.58 698 1440 698 1444.42 698 1448 702.03 1448 707 1448 711.971 1444.42 716 1440 716 1435.58 716 1432 711.971 1432 707Z" fill="#460061" fill-rule="evenodd"/><path d="M1469 702C1469 696.477 1473.03 692 1478 692 1482.97 692 1487 696.477 1487 702 1487 707.523 1482.97 712 1478 712 1473.03 712 1469 707.523 1469 702Z" fill="#460061" fill-rule="evenodd"/><path d="M1508 703C1508 698.029 1511.81 694 1516.5 694 1521.19 694 1525 698.029 1525 703 1525 707.971 1521.19 712 1516.5 712 1511.81 712 1508 707.971 1508 703Z" fill="#460061" fill-rule="evenodd"/><path d="M1543 708C1543 702.477 1547.25 698 1552.5 698 1557.75 698 1562 702.477 1562 708 1562 713.523 1557.75 718 1552.5 718 1547.25 718 1543 713.523 1543 708Z" fill="#460061" fill-rule="evenodd"/><path d="M1572 720.5C1572 715.805 1576.25 712 1581.5 712 1586.75 712 1591 715.805 1591 720.5 1591 725.194 1586.75 729 1581.5 729 1576.25 729 1572 725.194 1572 720.5Z" fill="#460061" fill-rule="evenodd"/><path d="M1597 742C1597 737.029 1600.58 733 1605 733 1609.42 733 1613 737.029 1613 742 1613 746.971 1609.42 751 1605 751 1600.58 751 1597 746.971 1597 742Z" fill="#460061" fill-rule="evenodd"/><path d="M1605 774C1605 768.477 1608.81 764 1613.5 764 1618.19 764 1622 768.477 1622 774 1622 779.523 1618.19 784 1613.5 784 1608.81 784 1605 779.523 1605 774Z" fill="#460061" fill-rule="evenodd"/><path d="M1591 796C1591 790.477 1594.58 786 1599 786 1603.42 786 1607 790.477 1607 796 1607 801.523 1603.42 806 1599 806 1594.58 806 1591 801.523 1591 796Z" fill="#460061" fill-rule="evenodd"/><path d="M1562 807.5C1562 802.253 1565.58 798 1570 798 1574.42 798 1578 802.253 1578 807.5 1578 812.747 1574.42 817 1570 817 1565.58 817 1562 812.747 1562 807.5Z" fill="#460061" fill-rule="evenodd"/><path d="M1518 799.5C1518 794.806 1521.81 791 1526.5 791 1531.19 791 1535 794.806 1535 799.5 1535 804.195 1531.19 808 1526.5 808 1521.81 808 1518 804.195 1518 799.5Z" fill="#460061" fill-rule="evenodd"/><path d="M1477 791C1477 786.029 1481.25 782 1486.5 782 1491.75 782 1496 786.029 1496 791 1496 795.971 1491.75 800 1486.5 800 1481.25 800 1477 795.971 1477 791Z" fill="#460061" fill-rule="evenodd"/><path d="M1446 786C1446 781.029 1449.81 777 1454.5 777 1459.19 777 1463 781.029 1463 786 1463 790.971 1459.19 795 1454.5 795 1449.81 795 1446 790.971 1446 786Z" fill="#460061" fill-rule="evenodd"/><path d="M1415 783C1415 777.477 1418.81 773 1423.5 773 1428.19 773 1432 777.477 1432 783 1432 788.523 1428.19 793 1423.5 793 1418.81 793 1415 788.523 1415 783Z" fill="#460061" fill-rule="evenodd"/><path d="M1376 785C1376 779.477 1379.58 775 1384 775 1388.42 775 1392 779.477 1392 785 1392 790.523 1388.42 795 1384 795 1379.58 795 1376 790.523 1376 785Z" fill="#460061" fill-rule="evenodd"/><path d="M1343 782C1343 777.03 1346.81 773 1351.5 773 1356.19 773 1360 777.03 1360 782 1360 786.971 1356.19 791 1351.5 791 1346.81 791 1343 786.971 1343 782Z" fill="#460061" fill-rule="evenodd"/><path d="M1262 783C1262 777.477 1266.25 773 1271.5 773 1276.75 773 1281 777.477 1281 783 1281 788.523 1276.75 793 1271.5 793 1266.25 793 1262 788.523 1262 783Z" fill="#460061" fill-rule="evenodd"/><path d="M1029 742C1029 737.029 1032.58 733 1037 733 1041.42 733 1045 737.029 1045 742 1045 746.971 1041.42 751 1037 751 1032.58 751 1029 746.971 1029 742Z" fill="#460061" fill-rule="evenodd"/><path d="M1039 772C1039 766.477 1043.25 762 1048.5 762 1053.75 762 1058 766.477 1058 772 1058 777.523 1053.75 782 1048.5 782 1043.25 782 1039 777.523 1039 772Z" fill="#460061" fill-rule="evenodd"/><path d="M1077 786C1077 781.029 1080.58 777 1085 777 1089.42 777 1093 781.029 1093 786 1093 790.971 1089.42 795 1085 795 1080.58 795 1077 790.971 1077 786Z" fill="#460061" fill-rule="evenodd"/><path d="M1115 787.5C1115 781.701 1118.81 777 1123.5 777 1128.19 777 1132 781.701 1132 787.5 1132 793.299 1128.19 798 1123.5 798 1118.81 798 1115 793.299 1115 787.5Z" fill="#460061" fill-rule="evenodd"/><path d="M1155 785C1155 779.477 1158.58 775 1163 775 1167.42 775 1171 779.477 1171 785 1171 790.523 1167.42 795 1163 795 1158.58 795 1155 790.523 1155 785Z" fill="#460061" fill-rule="evenodd"/><path d="M1198 785C1198 779.477 1201.81 775 1206.5 775 1211.19 775 1215 779.477 1215 785 1215 790.523 1211.19 795 1206.5 795 1201.81 795 1198 790.523 1198 785Z" fill="#460061" fill-rule="evenodd"/><path d="M1229 783C1229 777.477 1232.81 773 1237.5 773 1242.19 773 1246 777.477 1246 783 1246 788.523 1242.19 793 1237.5 793 1232.81 793 1229 788.523 1229 783Z" fill="#460061" fill-rule="evenodd"/><path d="M1260 804C1260 799.03 1263.58 795 1268 795 1272.42 795 1276 799.03 1276 804 1276 808.971 1272.42 813 1268 813 1263.58 813 1260 808.971 1260 804Z" fill="#460061" fill-rule="evenodd"/><path d="M1262 830.5C1262 825.805 1265.81 822 1270.5 822 1275.19 822 1279 825.805 1279 830.5 1279 835.194 1275.19 839 1270.5 839 1265.81 839 1262 835.194 1262 830.5Z" fill="#460061" fill-rule="evenodd"/><path d="M1250 856C1250 850.477 1254.03 846 1259 846 1263.97 846 1268 850.477 1268 856 1268 861.523 1263.97 866 1259 866 1254.03 866 1250 861.523 1250 856Z" fill="#460061" fill-rule="evenodd"/><path d="M1217 864.5C1217 859.253 1221.03 855 1226 855 1230.97 855 1235 859.253 1235 864.5 1235 869.747 1230.97 874 1226 874 1221.03 874 1217 869.747 1217 864.5Z" fill="#460061" fill-rule="evenodd"/><path d="M1177 870C1177 865.03 1180.81 861 1185.5 861 1190.19 861 1194 865.03 1194 870 1194 874.971 1190.19 879 1185.5 879 1180.81 879 1177 874.971 1177 870Z" fill="#460061" fill-rule="evenodd"/><path d="M1146 883C1146 878.03 1149.81 874 1154.5 874 1159.19 874 1163 878.03 1163 883 1163 887.971 1159.19 892 1154.5 892 1149.81 892 1146 887.971 1146 883Z" fill="#460061" fill-rule="evenodd"/><path d="M1077 879C1077 874.029 1080.58 870 1085 870 1089.42 870 1093 874.029 1093 879 1093 883.971 1089.42 888 1085 888 1080.58 888 1077 883.971 1077 879Z" fill="#460061" fill-rule="evenodd"/><path d="M1039 874.5C1039 869.805 1042.58 866 1047 866 1051.42 866 1055 869.805 1055 874.5 1055 879.194 1051.42 883 1047 883 1042.58 883 1039 879.194 1039 874.5Z" fill="#460061" fill-rule="evenodd"/><path d="M997 871C997 865.477 1000.81 861 1005.5 861 1010.19 861 1014 865.477 1014 871 1014 876.523 1010.19 881 1005.5 881 1000.81 881 997 876.523 997 871Z" fill="#460061" fill-rule="evenodd"/><path d="M956 869C956 863.477 959.806 859 964.5 859 969.195 859 973 863.477 973 869 973 874.523 969.195 879 964.5 879 959.806 879 956 874.523 956 869Z" fill="#460061" fill-rule="evenodd"/><path d="M913 870C913 865.03 916.582 861 921 861 925.418 861 929 865.03 929 870 929 874.971 925.418 879 921 879 916.582 879 913 874.971 913 870Z" fill="#460061" fill-rule="evenodd"/><path d="M888 884C888 878.477 891.805 874 896.5 874 901.194 874 905 878.477 905 884 905 889.523 901.194 894 896.5 894 891.805 894 888 889.523 888 884Z" fill="#460061" fill-rule="evenodd"/><path d="M884 914C884 909.03 887.806 905 892.5 905 897.194 905 901 909.03 901 914 901 918.971 897.194 923 892.5 923 887.806 923 884 918.971 884 914Z" fill="#460061" fill-rule="evenodd"/><path d="M903 942C903 936.477 906.582 932 911 932 915.418 932 919 936.477 919 942 919 947.523 915.418 952 911 952 906.582 952 903 947.523 903 942Z" fill="#460061" fill-rule="evenodd"/><path d="M932 954C932 949.029 936.029 945 941 945 945.971 945 950 949.029 950 954 950 958.97 945.971 963 941 963 936.029 963 932 958.97 932 954Z" fill="#460061" fill-rule="evenodd"/><path d="M977 958C977 953.03 980.582 949 985 949 989.418 949 993 953.03 993 958 993 962.971 989.418 967 985 967 980.582 967 977 962.971 977 958Z" fill="#460061" fill-rule="evenodd"/><path d="M1023 951C1023 945.477 1026.58 941 1031 941 1035.42 941 1039 945.477 1039 951 1039 956.523 1035.42 961 1031 961 1026.58 961 1023 956.523 1023 951Z" fill="#460061" fill-rule="evenodd"/><path d="M1060 948C1060 942.477 1064.03 938 1069 938 1073.97 938 1078 942.477 1078 948 1078 953.523 1073.97 958 1069 958 1064.03 958 1060 953.523 1060 948Z" fill="#460061" fill-rule="evenodd"/><path d="M1095 944C1095 938.477 1098.58 934 1103 934 1107.42 934 1111 938.477 1111 944 1111 949.523 1107.42 954 1103 954 1098.58 954 1095 949.523 1095 944Z" fill="#460061" fill-rule="evenodd"/><path d="M1138 942C1138 936.477 1141.81 932 1146.5 932 1151.19 932 1155 936.477 1155 942 1155 947.523 1151.19 952 1146.5 952 1141.81 952 1138 947.523 1138 942Z" fill="#460061" fill-rule="evenodd"/><path d="M1180 942C1180 936.477 1184.03 932 1189 932 1193.97 932 1198 936.477 1198 942 1198 947.523 1193.97 952 1189 952 1184.03 952 1180 947.523 1180 942Z" fill="#460061" fill-rule="evenodd"/><path d="M1221 942C1221 936.477 1225.03 932 1230 932 1234.97 932 1239 936.477 1239 942 1239 947.523 1234.97 952 1230 952 1225.03 952 1221 947.523 1221 942Z" fill="#460061" fill-rule="evenodd"/><path d="M1262 945C1262 940.029 1266.25 936 1271.5 936 1276.75 936 1281 940.029 1281 945 1281 949.971 1276.75 954 1271.5 954 1266.25 954 1262 949.971 1262 945Z" fill="#460061" fill-rule="evenodd"/><path d="M1295 948C1295 942.477 1298.81 938 1303.5 938 1308.19 938 1312 942.477 1312 948 1312 953.523 1308.19 958 1303.5 958 1298.81 958 1295 953.523 1295 948Z" fill="#460061" fill-rule="evenodd"/><path d="M1339 954C1339 949.029 1342.58 945 1347 945 1351.42 945 1355 949.029 1355 954 1355 958.97 1351.42 963 1347 963 1342.58 963 1339 958.97 1339 954Z" fill="#460061" fill-rule="evenodd"/><path d="M1384 954C1384 949.029 1387.81 945 1392.5 945 1397.19 945 1401 949.029 1401 954 1401 958.97 1397.19 963 1392.5 963 1387.81 963 1384 958.97 1384 954Z" fill="#460061" fill-rule="evenodd"/><path d="M1428 942C1428 936.477 1431.58 932 1436 932 1440.42 932 1444 936.477 1444 942 1444 947.523 1440.42 952 1436 952 1431.58 952 1428 947.523 1428 942Z" fill="#460061" fill-rule="evenodd"/><path d="M1438 907C1438 901.477 1441.81 897 1446.5 897 1451.19 897 1455 901.477 1455 907 1455 912.523 1451.19 917 1446.5 917 1441.81 917 1438 912.523 1438 907Z" fill="#460061" fill-rule="evenodd"/><path d="M1419 880C1419 874.477 1422.81 870 1427.5 870 1432.19 870 1436 874.477 1436 880 1436 885.523 1432.19 890 1427.5 890 1422.81 890 1419 885.523 1419 880Z" fill="#460061" fill-rule="evenodd"/><path d="M1239 878C1239 872.477 1242.81 868 1247.5 868 1252.19 868 1256 872.477 1256 878 1256 883.523 1252.19 888 1247.5 888 1242.81 888 1239 883.523 1239 878Z" fill="#460061" fill-rule="evenodd"/><path d="M1276 869C1276 863.477 1279.81 859 1284.5 859 1289.19 859 1293 863.477 1293 869 1293 874.523 1289.19 879 1284.5 879 1279.81 879 1276 874.523 1276 869Z" fill="#460061" fill-rule="evenodd"/><path d="M1330 867C1330 861.477 1333.81 857 1338.5 857 1343.19 857 1347 861.477 1347 867 1347 872.523 1343.19 877 1338.5 877 1333.81 877 1330 872.523 1330 867Z" fill="#460061" fill-rule="evenodd"/><path d="M1200 882.5C1200 877.253 1204.25 873 1209.5 873 1214.75 873 1219 877.253 1219 882.5 1219 887.747 1214.75 892 1209.5 892 1204.25 892 1200 887.747 1200 882.5Z" fill="#460061" fill-rule="evenodd"/><path d="M1115 878C1115 872.477 1118.81 868 1123.5 868 1128.19 868 1132 872.477 1132 878 1132 883.523 1128.19 888 1123.5 888 1118.81 888 1115 883.523 1115 878Z" fill="#460061" fill-rule="evenodd"/><path d="M1093 853.5C1093 848.253 1096.58 844 1101 844 1105.42 844 1109 848.253 1109 853.5 1109 858.747 1105.42 863 1101 863 1096.58 863 1093 858.747 1093 853.5Z" fill="#460061" fill-rule="evenodd"/><path d="M1089 821.5C1089 816.806 1092.58 813 1097 813 1101.42 813 1105 816.806 1105 821.5 1105 826.195 1101.42 830 1097 830 1092.58 830 1089 826.195 1089 821.5Z" fill="#460061" fill-rule="evenodd"/><path d="M1287 848C1287 843.03 1290.58 839 1295 839 1299.42 839 1303 843.03 1303 848 1303 852.971 1299.42 857 1295 857 1290.58 857 1287 852.971 1287 848Z" fill="#460061" fill-rule="evenodd"/><path d="M1314 851.5C1314 846.253 1317.58 842 1322 842 1326.42 842 1330 846.253 1330 851.5 1330 856.747 1326.42 861 1322 861 1317.58 861 1314 856.747 1314 851.5Z" fill="#460061" fill-rule="evenodd"/><path d="M1341 845C1341 839.477 1344.58 835 1349 835 1353.42 835 1357 839.477 1357 845 1357 850.523 1353.42 855 1349 855 1344.58 855 1341 850.523 1341 845Z" fill="#460061" fill-rule="evenodd"/><path d="M1351 807.5C1351 802.253 1354.81 798 1359.5 798 1364.19 798 1368 802.253 1368 807.5 1368 812.747 1364.19 817 1359.5 817 1354.81 817 1351 812.747 1351 807.5Z" fill="#460061" fill-rule="evenodd"/><path d="M1295 778.5C1295 773.253 1299.25 769 1304.5 769 1309.75 769 1314 773.253 1314 778.5 1314 783.747 1309.75 788 1304.5 788 1299.25 788 1295 783.747 1295 778.5Z" fill="#460061" fill-rule="evenodd"/><path d="M1364 860C1364 854.477 1367.58 850 1372 850 1376.42 850 1380 854.477 1380 860 1380 865.523 1376.42 870 1372 870 1367.58 870 1364 865.523 1364 860Z" fill="#460061" fill-rule="evenodd"/><path d="M1397 861.5C1397 856.805 1400.58 853 1405 853 1409.42 853 1413 856.805 1413 861.5 1413 866.194 1409.42 870 1405 870 1400.58 870 1397 866.194 1397 861.5Z" fill="#460061" fill-rule="evenodd"/><path d="M1432 852.5C1432 847.805 1435.58 844 1440 844 1444.42 844 1448 847.805 1448 852.5 1448 857.194 1444.42 861 1440 861 1435.58 861 1432 857.194 1432 852.5Z" fill="#460061" fill-rule="evenodd"/><path d="M1459 851.5C1459 846.253 1463.03 842 1468 842 1472.97 842 1477 846.253 1477 851.5 1477 856.747 1472.97 861 1468 861 1463.03 861 1459 856.747 1459 851.5Z" fill="#460061" fill-rule="evenodd"/><path d="M1490 853.5C1490 848.253 1494.03 844 1499 844 1503.97 844 1508 848.253 1508 853.5 1508 858.747 1503.97 863 1499 863 1494.03 863 1490 858.747 1490 853.5Z" fill="#460061" fill-rule="evenodd"/><path d="M1518 857C1518 852.029 1522.25 848 1527.5 848 1532.75 848 1537 852.029 1537 857 1537 861.971 1532.75 866 1527.5 866 1522.25 866 1518 861.971 1518 857Z" fill="#460061" fill-rule="evenodd"/><path d="M1684 901C1684 896.029 1687.58 892 1692 892 1696.42 892 1700 896.029 1700 901 1700 905.971 1696.42 910 1692 910 1687.58 910 1684 905.971 1684 901Z" fill="#460061" fill-rule="evenodd"/><path d="M1723 905.5C1723 900.805 1727.25 897 1732.5 897 1737.75 897 1742 900.805 1742 905.5 1742 910.194 1737.75 914 1732.5 914 1727.25 914 1723 910.194 1723 905.5Z" fill="#460061" fill-rule="evenodd"/><path d="M1758 901C1758 896.029 1762.25 892 1767.5 892 1772.75 892 1777 896.029 1777 901 1777 905.971 1772.75 910 1767.5 910 1762.25 910 1758 905.971 1758 901Z" fill="#460061" fill-rule="evenodd"/><path d="M1781 882.5C1781 877.253 1785.25 873 1790.5 873 1795.75 873 1800 877.253 1800 882.5 1800 887.747 1795.75 892 1790.5 892 1785.25 892 1781 887.747 1781 882.5Z" fill="#460061" fill-rule="evenodd"/><path d="M1787 852.5C1787 847.805 1790.81 844 1795.5 844 1800.19 844 1804 847.805 1804 852.5 1804 857.194 1800.19 861 1795.5 861 1790.81 861 1787 857.194 1787 852.5Z" fill="#460061" fill-rule="evenodd"/><path d="M1765 822.5C1765 817.253 1769.03 813 1774 813 1778.97 813 1783 817.253 1783 822.5 1783 827.747 1778.97 832 1774 832 1769.03 832 1765 827.747 1765 822.5Z" fill="#460061" fill-rule="evenodd"/><path d="M1729 812C1729 806.477 1733.25 802 1738.5 802 1743.75 802 1748 806.477 1748 812 1748 817.523 1743.75 822 1738.5 822 1733.25 822 1729 817.523 1729 812Z" fill="#460061" fill-rule="evenodd"/><path d="M1692 808.5C1692 803.805 1696.25 800 1701.5 800 1706.75 800 1711 803.805 1711 808.5 1711 813.194 1706.75 817 1701.5 817 1696.25 817 1692 813.194 1692 808.5Z" fill="#460061" fill-rule="evenodd"/><path d="M1659 809.5C1659 804.253 1663.25 800 1668.5 800 1673.75 800 1678 804.253 1678 809.5 1678 814.747 1673.75 819 1668.5 819 1663.25 819 1659 814.747 1659 809.5Z" fill="#460061" fill-rule="evenodd"/><path d="M1618 809.5C1618 804.253 1622.03 800 1627 800 1631.97 800 1636 804.253 1636 809.5 1636 814.747 1631.97 819 1627 819 1622.03 819 1618 814.747 1618 809.5Z" fill="#460061" fill-rule="evenodd"/><path d="M1554 867C1554 861.477 1557.58 857 1562 857 1566.42 857 1570 861.477 1570 867 1570 872.523 1566.42 877 1562 877 1557.58 877 1554 872.523 1554 867Z" fill="#460061" fill-rule="evenodd"/><path d="M1589 876C1589 870.477 1593.03 866 1598 866 1602.97 866 1607 870.477 1607 876 1607 881.523 1602.97 886 1598 886 1593.03 886 1589 881.523 1589 876Z" fill="#460061" fill-rule="evenodd"/><path d="M1618 887C1618 881.477 1621.58 877 1626 877 1630.42 877 1634 881.477 1634 887 1634 892.523 1630.42 897 1626 897 1621.58 897 1618 892.523 1618 887Z" fill="#460061" fill-rule="evenodd"/><path d="M1647 892C1647 887.03 1651.03 883 1656 883 1660.97 883 1665 887.03 1665 892 1665 896.971 1660.97 901 1656 901 1651.03 901 1647 896.971 1647 892Z" fill="#460061" fill-rule="evenodd"/><path d="M839 537C839 532.029 842.582 528 847 528 851.418 528 855 532.029 855 537 855 541.97 851.418 546 847 546 842.582 546 839 541.97 839 537Z" fill="#460061" fill-rule="evenodd"/><path d="M839 574C839 569.03 842.582 565 847 565 851.418 565 855 569.03 855 574 855 578.971 851.418 583 847 583 842.582 583 839 578.971 839 574Z" fill="#460061" fill-rule="evenodd"/><path d="M857 604C857 598.477 861.253 594 866.5 594 871.747 594 876 598.477 876 604 876 609.523 871.747 614 866.5 614 861.253 614 857 609.523 857 604Z" fill="#460061" fill-rule="evenodd"/><path d="M886 613C886 607.477 890.253 603 895.5 603 900.747 603 905 607.477 905 613 905 618.523 900.747 623 895.5 623 890.253 623 886 618.523 886 613Z" fill="#460061" fill-rule="evenodd"/><path d="M919 618.5C919 613.806 923.253 610 928.5 610 933.747 610 938 613.806 938 618.5 938 623.194 933.747 627 928.5 627 923.253 627 919 623.194 919 618.5Z" fill="#460061" fill-rule="evenodd"/><path d="M954 618.5C954 613.806 957.805 610 962.5 610 967.194 610 971 613.806 971 618.5 971 623.194 967.194 627 962.5 627 957.805 627 954 623.194 954 618.5Z" fill="#460061" fill-rule="evenodd"/><path d="M989 618.5C989 613.806 993.253 610 998.5 610 1003.75 610 1008 613.806 1008 618.5 1008 623.194 1003.75 627 998.5 627 993.253 627 989 623.194 989 618.5Z" fill="#460061" fill-rule="evenodd"/><path d="M1027 623C1027 618.029 1031.03 614 1036 614 1040.97 614 1045 618.029 1045 623 1045 627.971 1040.97 632 1036 632 1031.03 632 1027 627.971 1027 623Z" fill="#460061" fill-rule="evenodd"/><path d="M1066 628C1066 623.03 1069.58 619 1074 619 1078.42 619 1082 623.03 1082 628 1082 632.971 1078.42 637 1074 637 1069.58 637 1066 632.971 1066 628Z" fill="#460061" fill-rule="evenodd"/><path d="M1101 634C1101 629.029 1104.81 625 1109.5 625 1114.19 625 1118 629.029 1118 634 1118 638.971 1114.19 643 1109.5 643 1104.81 643 1101 638.971 1101 634Z" fill="#460061" fill-rule="evenodd"/><path d="M1136 642C1136 636.477 1140.25 632 1145.5 632 1150.75 632 1155 636.477 1155 642 1155 647.523 1150.75 652 1145.5 652 1140.25 652 1136 647.523 1136 642Z" fill="#460061" fill-rule="evenodd"/><path d="M1173 651C1173 645.477 1176.81 641 1181.5 641 1186.19 641 1190 645.477 1190 651 1190 656.523 1186.19 661 1181.5 661 1176.81 661 1173 656.523 1173 651Z" fill="#460061" fill-rule="evenodd"/><path d="M1208 664C1208 658.477 1211.81 654 1216.5 654 1221.19 654 1225 658.477 1225 664 1225 669.523 1221.19 674 1216.5 674 1211.81 674 1208 669.523 1208 664Z" fill="#460061" fill-rule="evenodd"/><path d="M1238 672.5C1238 667.253 1241.58 663 1246 663 1250.42 663 1254 667.253 1254 672.5 1254 677.747 1250.42 682 1246 682 1241.58 682 1238 677.747 1238 672.5Z" fill="#460061" fill-rule="evenodd"/><path d="M1272 680C1272 675.029 1275.81 671 1280.5 671 1285.19 671 1289 675.029 1289 680 1289 684.97 1285.19 689 1280.5 689 1275.81 689 1272 684.97 1272 680Z" fill="#460061" fill-rule="evenodd"/><path d="M1310 685C1310 680.03 1313.58 676 1318 676 1322.42 676 1326 680.03 1326 685 1326 689.971 1322.42 694 1318 694 1313.58 694 1310 689.971 1310 685Z" fill="#460061" fill-rule="evenodd"/><path d="M1343 693.5C1343 688.806 1346.81 685 1351.5 685 1356.19 685 1360 688.806 1360 693.5 1360 698.194 1356.19 702 1351.5 702 1346.81 702 1343 698.194 1343 693.5Z" fill="#460061" fill-rule="evenodd"/><path d="M1378 695C1378 689.477 1381.58 685 1386 685 1390.42 685 1394 689.477 1394 695 1394 700.523 1390.42 705 1386 705 1381.58 705 1378 700.523 1378 695Z" fill="#460061" fill-rule="evenodd"/><path d="M1415 695C1415 689.477 1419.25 685 1424.5 685 1429.75 685 1434 689.477 1434 695 1434 700.523 1429.75 705 1424.5 705 1419.25 705 1415 700.523 1415 695Z" fill="#460061" fill-rule="evenodd"/><path d="M1450 693.5C1450 688.806 1453.81 685 1458.5 685 1463.19 685 1467 688.806 1467 693.5 1467 698.194 1463.19 702 1458.5 702 1453.81 702 1450 698.194 1450 693.5Z" fill="#460061" fill-rule="evenodd"/><path d="M1487 689.5C1487 684.806 1490.81 681 1495.5 681 1500.19 681 1504 684.806 1504 689.5 1504 694.195 1500.19 698 1495.5 698 1490.81 698 1487 694.195 1487 689.5Z" fill="#460061" fill-rule="evenodd"/><path d="M1510 673.5C1510 668.806 1513.81 665 1518.5 665 1523.19 665 1527 668.806 1527 673.5 1527 678.194 1523.19 682 1518.5 682 1513.81 682 1510 678.194 1510 673.5Z" fill="#460061" fill-rule="evenodd"/><path d="M1533 655C1533 649.477 1537.03 645 1542 645 1546.97 645 1551 649.477 1551 655 1551 660.523 1546.97 665 1542 665 1537.03 665 1533 660.523 1533 655Z" fill="#460061" fill-rule="evenodd"/><path d="M1558 622C1558 616.477 1561.58 612 1566 612 1570.42 612 1574 616.477 1574 622 1574 627.523 1570.42 632 1566 632 1561.58 632 1558 627.523 1558 622Z" fill="#460061" fill-rule="evenodd"/><path d="M1566 575.5C1566 569.701 1569.58 565 1574 565 1578.42 565 1582 569.701 1582 575.5 1582 581.299 1578.42 586 1574 586 1569.58 586 1566 581.299 1566 575.5Z" fill="#460061" fill-rule="evenodd"/><path d="M1541 543.5C1541 538.805 1544.81 535 1549.5 535 1554.19 535 1558 538.805 1558 543.5 1558 548.194 1554.19 552 1549.5 552 1544.81 552 1541 548.194 1541 543.5Z" fill="#460061" fill-rule="evenodd"/><path d="M1500 526C1500 521.029 1503.81 517 1508.5 517 1513.19 517 1517 521.029 1517 526 1517 530.97 1513.19 535 1508.5 535 1503.81 535 1500 530.97 1500 526Z" fill="#460061" fill-rule="evenodd"/><path d="M1455 537C1455 532.029 1458.58 528 1463 528 1467.42 528 1471 532.029 1471 537 1471 541.97 1467.42 546 1463 546 1458.58 546 1455 541.97 1455 537Z" fill="#460061" fill-rule="evenodd"/><path d="M1423 561C1423 556.029 1426.81 552 1431.5 552 1436.19 552 1440 556.029 1440 561 1440 565.971 1436.19 570 1431.5 570 1426.81 570 1423 565.971 1423 561Z" fill="#460061" fill-rule="evenodd"/><path d="M1397 583.5C1397 578.806 1400.58 575 1405 575 1409.42 575 1413 578.806 1413 583.5 1413 588.194 1409.42 592 1405 592 1400.58 592 1397 588.194 1397 583.5Z" fill="#460061" fill-rule="evenodd"/></g></svg>