<svg width="1044" height="366" xmlns="http://www.w3.org/2000/svg" xmlns:xlink="http://www.w3.org/1999/xlink" xml:space="preserve" overflow="hidden"><defs><clipPath id="clip0"><rect x="866" y="1045" width="1044" height="366"/></clipPath></defs><g clip-path="url(#clip0)" transform="translate(-866 -1045)"><path d="M1000.31 1079.94C1023.09 1088.85 1062.43 1097.75 1132.82 1095.53 1203.22 1093.3 1248.77 1093.3 1275.69 1073.26 1302.6 1055.45 1373 1066.58 1373 1117.79 1373 1169 1265.33 1140.06 1199.08 1131.15 1130.75 1120.02 1050 1146.74 1006.52 1148.96 963.044 1153.42 905.071 1144.51 907.141 1099.98 903 1075.49 940.269 1051 1000.31 1079.94Z" fill="#F5E4E5" fill-rule="evenodd"/><path d="M1132.81 1106.39C1147.26 1104.18 1147.26 1104.18 1147.26 1104.18 1211.27 1101.97 1252.56 1101.97 1279.41 1082.06 1293.86 1073.21 1322.77 1071 1343.42 1084.27 1355.81 1093.12 1362 1104.18 1362 1117.45 1362 1121.88 1362 1126.3 1357.87 1128.52 1341.35 1144 1283.54 1135.15 1236.05 1126.3 1198.88 1119.67 1198.88 1119.67 1198.88 1119.67 1151.39 1113.03 1099.77 1124.09 1056.41 1130.73 1035.76 1135.15 1019.24 1137.36 1006.85 1139.58 967.62 1141.79 936.648 1135.15 924.259 1121.88 918.065 1115.24 916 1108.61 916 1099.76 916 1099.76 916 1099.76 916 1099.76 916 1093.12 918.065 1088.7 924.259 1084.27 934.583 1075.42 959.361 1071 996.528 1088.7 996.528 1088.7 996.528 1088.7 996.528 1088.7 1029.56 1101.97 1074.99 1108.61 1132.81 1106.39Z" fill="#BC576D" fill-rule="evenodd"/><path d="M1593.79 1322.99C1639.28 1318.57 1678.57 1309.74 1699.25 1303.11 1744.75 1294.27 1833.67 1263.34 1864.69 1281.01 1893.64 1300.9 1885.37 1349.51 1835.74 1364.97 1786.11 1380.44 1750.95 1338.46 1620.67 1360.55 1490.39 1384.86 1422.15 1358.34 1360.11 1329.62 1298.07 1300.9 1186.4 1320.78 1151.24 1349.51 1116.09 1376.02 1060.25 1418 1027.17 1362.76 996.146 1305.32 1107.82 1265.55 1196.74 1252.29 1269.12 1241.24 1337.36 1267.76 1397.33 1296.48 1438.69 1320.78 1461.44 1272.18 1424.21 1258.92 1391.13 1243.45 1355.97 1227.99 1302.2 1214.73 1149.17 1177.17 1041.64 1256.71 998.214 1305.32 954.786 1353.93 925.835 1380.44 894.816 1345.09 870 1318.57 903.087 1274.39 952.719 1227.99 1002.35 1183.8 1142.97 1132.98 1327.02 1181.59 1509 1232.41 1581.38 1263.34 1657.89 1241.24 1736.48 1219.15 1821.26 1091 1877.1 1168.33 1935 1243.45 1825.4 1267.76 1645.49 1289.85 1631.01 1292.06 1618.6 1294.27 1606.19 1294.27 1568.97 1296.48 1571.04 1325.2 1593.79 1322.99Z" fill="#F5E4E5" fill-rule="evenodd"/><path d="M1661.77 1252.41C1690.71 1243.62 1719.64 1223.86 1748.58 1201.89 1804.39 1160.16 1841.59 1136 1868.46 1175.54 1885 1197.5 1880.87 1208.48 1880.87 1210.68 1866.4 1248.02 1756.85 1263.39 1643.17 1278.77 1605.96 1283.16 1605.96 1283.16 1605.96 1283.16 1577.03 1285.36 1566.69 1298.54 1566.69 1311.71 1566.69 1324.89 1577.03 1335.88 1593.56 1333.68 1593.56 1333.68 1595.63 1333.68 1595.63 1333.68 1641.1 1329.29 1682.44 1320.5 1701.04 1313.91 1734.11 1307.32 1734.11 1307.32 1734.11 1307.32 1775.45 1296.34 1837.46 1278.77 1858.13 1291.95 1866.4 1296.34 1872.6 1305.12 1870.53 1316.11 1868.46 1329.29 1858.13 1344.66 1833.33 1353.45 1814.72 1360.04 1798.19 1355.64 1775.45 1351.25 1742.38 1344.66 1696.91 1335.88 1618.36 1349.05 1494.35 1371.02 1426.14 1346.86 1364.13 1318.3 1297.99 1287.55 1184.31 1309.52 1145.03 1340.27 1128.5 1353.45 1089.23 1382 1062.36 1377.61 1052.02 1375.41 1043.75 1368.82 1037.55 1355.64 1033.42 1346.86 1031.35 1340.27 1035.49 1333.68 1047.89 1305.12 1116.1 1276.57 1198.77 1263.39 1266.98 1252.41 1331.06 1278.77 1393.07 1305.12 1393.07 1305.12 1393.07 1305.12 1391 1305.12 1409.6 1316.11 1426.14 1316.11 1440.61 1307.32 1448.87 1300.73 1455.08 1289.75 1453.01 1276.57 1450.94 1263.39 1442.67 1252.41 1426.14 1248.02 1428.21 1248.02 1428.21 1248.02 1428.21 1248.02 1395.13 1232.64 1360 1217.27 1304.19 1204.09 1124.36 1160.16 1010.68 1274.38 990.012 1298.54 967.276 1324.89 942.473 1349.05 923.87 1349.05 917.669 1349.05 909.401 1344.66 901.134 1335.88 899.067 1331.48 897 1327.09 897 1322.7 899.067 1294.14 944.54 1252.41 959.008 1237.04 1006.55 1193.11 1142.97 1144.79 1322.79 1193.11 1422 1221.66 1422 1221.66 1422 1221.66 1537.75 1254.61 1595.63 1269.98 1661.77 1252.41Z" fill="#BC576D" fill-rule="evenodd"/><path d="M1110 1106.43C1062.53 1106.43 1025.38 1099.79 996.489 1088.71 996.489 1088.71 996.489 1088.71 996.489 1088.71 959.341 1071 934.575 1075.43 924.255 1084.29 918.064 1088.71 916 1093.14 916 1099.79 916 1099.79 916 1099.79 916 1099.79 916 1108.64 918.064 1115.29 924.255 1121.93 928.383 1126.36 936.638 1130.79 944.894 1133 942.83 1128.57 944.894 1121.93 946.958 1117.5 957.277 1106.43 977.915 1108.64 990.298 1108.64 1031.57 1110.86 1070.79 1110.86 1110 1106.43Z" fill="#A82D4D" fill-rule="evenodd"/><path d="M1357.86 1129.07C1362 1126.83 1362 1122.37 1362 1117.9 1362 1104.5 1355.8 1093.33 1343.39 1084.4 1322.71 1071 1293.76 1073.23 1279.28 1082.17 1252.39 1102.27 1211.03 1102.27 1146.93 1104.5 1132.45 1106.73 1132.45 1106.73 1132.45 1106.73 1107.63 1106.73 1084.88 1106.73 1064.2 1104.5 1058 1108.97 1058 1108.97 1058 1108.97 1101.43 1106.73 1142.79 1108.97 1184.15 1111.2 1215.17 1113.43 1244.12 1106.73 1273.07 1106.73 1285.48 1104.5 1299.96 1104.5 1310.3 1113.43 1320.64 1122.37 1320.64 1129.07 1316.5 1138 1335.12 1138 1349.59 1135.77 1357.86 1129.07Z" fill="#A82D4D" fill-rule="evenodd"/><path d="M988.034 1302.75C983.896 1298.34 979.759 1296.14 977.69 1289.53 975.621 1276.32 981.828 1258.7 988.034 1249.89 1002.52 1227.86 1035.62 1212.44 1058.38 1201.43 1083.21 1190.42 1110.1 1179.4 1137 1175 1052.17 1181.61 988.034 1210.24 959.069 1236.67 944.586 1252.09 899.069 1293.94 897 1322.57 897 1326.97 899.069 1331.38 901.138 1335.78 909.414 1344.59 917.69 1349 923.896 1349 942.517 1349 963.207 1326.97 988.034 1302.75Z" fill="#A82D4D" fill-rule="evenodd"/><path d="M1319 1276.74C1279.63 1263.58 1240.27 1257 1198.83 1263.58 1115.95 1276.74 1047.58 1305.25 1035.14 1333.75 1031 1340.33 1033.07 1346.91 1037.22 1355.68 1043.43 1368.84 1051.72 1375.42 1062.08 1377.61 1086.94 1382 1122.17 1357.88 1140.81 1342.53 1130.45 1333.75 1113.88 1329.37 1132.53 1309.63 1147.03 1292.09 1167.75 1283.32 1188.47 1278.93 1221.62 1272.35 1252.7 1267.96 1287.92 1270.16 1298.28 1272.35 1308.64 1272.35 1319 1276.74Z" fill="#A82D4D" fill-rule="evenodd"/><path d="M1390.6 1305.8C1392.68 1305.8 1392.68 1305.8 1392.68 1305.8 1392.68 1305.8 1392.68 1305.8 1392.68 1305.8 1392.68 1305.8 1392.68 1305.8 1390.6 1305.8ZM1450.79 1257.4C1438.34 1250.8 1427.96 1246.4 1415.51 1242 1419.66 1244.2 1423.81 1246.4 1427.96 1248.6 1427.96 1248.6 1427.96 1248.6 1425.89 1248.6 1442.49 1253 1450.79 1264 1452.87 1277.2 1454.94 1290.4 1448.72 1301.4 1440.42 1308 1425.89 1316.8 1409.28 1316.8 1392.68 1305.8 1386.45 1303.6 1380.23 1301.4 1374 1299.2 1380.23 1303.6 1386.45 1310.2 1394.75 1314.6 1413.43 1327.8 1440.42 1330 1461.17 1314.6 1484 1297 1471.55 1266.2 1450.79 1257.4Z" fill="#A82D4D" fill-rule="evenodd"/><path d="M1668 1259C1694.87 1256.8 1719.67 1245.82 1742.4 1230.45 1758.93 1217.27 1798.2 1182.13 1820.93 1201.89 1829.2 1210.68 1829.2 1228.25 1825.07 1239.23 1823 1241.43 1820.93 1245.82 1818.87 1248.02 1851.93 1237.04 1874.67 1226.05 1880.87 1210.68 1880.87 1208.48 1885 1197.5 1868.47 1175.54 1841.6 1136 1804.4 1160.16 1748.6 1201.89 1719.67 1223.86 1690.73 1243.63 1661.8 1252.41 1653.53 1254.61 1645.27 1256.8 1637 1259 1647.33 1259 1657.67 1259 1668 1259Z" fill="#A82D4D" fill-rule="evenodd"/><path d="M1870.94 1316.31C1873 1305.33 1866.81 1296.56 1858.56 1292.17 1837.94 1279 1776.06 1296.56 1734.81 1307.53 1701.81 1314.11 1701.81 1314.11 1701.81 1314.11 1695.63 1316.31 1685.31 1318.5 1675 1320.69 1697.69 1318.5 1720.38 1318.5 1743.06 1318.5 1755.44 1316.31 1794.63 1311.92 1796.69 1329.47 1798.75 1340.44 1790.5 1347.03 1782.25 1353.61 1800.81 1355.81 1817.31 1358 1833.81 1353.61 1858.56 1344.83 1868.88 1329.47 1870.94 1316.31Z" fill="#A82D4D" fill-rule="evenodd"/><path d="M1572.89 1286C1558.5 1292.5 1544.11 1329.33 1577 1338 1550.28 1333.67 1540 1303.33 1572.89 1286Z" fill="#FFFFFF" fill-rule="evenodd"/><path d="M1000.81 1080.44C1023.59 1089.35 1062.93 1098.25 1133.32 1096.03 1203.72 1093.8 1249.27 1093.8 1276.19 1073.76 1303.1 1055.95 1373.5 1067.08 1373.5 1118.29 1373.5 1169.5 1265.83 1140.56 1199.58 1131.65 1131.25 1120.52 1050.5 1147.24 1007.02 1149.46 963.544 1153.92 905.57 1145.01 907.641 1100.48 903.5 1075.99 940.769 1051.5 1000.81 1080.44Z" stroke="#333333" stroke-width="4.58333" stroke-linecap="round" stroke-linejoin="round" stroke-miterlimit="10" fill="none" fill-rule="evenodd"/><path d="M1594.29 1323.49C1639.78 1319.07 1679.07 1310.24 1699.75 1303.61 1745.25 1294.77 1834.17 1263.84 1865.19 1281.51 1894.14 1301.4 1885.87 1350.01 1836.24 1365.47 1786.61 1380.94 1751.45 1338.96 1621.17 1361.05 1490.89 1385.36 1422.65 1358.84 1360.61 1330.12 1298.57 1301.4 1186.9 1321.28 1151.74 1350.01 1116.59 1376.52 1060.75 1418.5 1027.67 1363.26 996.646 1305.82 1108.32 1266.05 1197.24 1252.79 1269.62 1241.74 1337.86 1268.26 1397.83 1296.98 1439.19 1321.28 1461.94 1272.68 1424.71 1259.42 1391.63 1243.95 1356.47 1228.49 1302.7 1215.23 1149.67 1177.67 1042.14 1257.21 998.714 1305.82 955.286 1354.43 926.335 1380.94 895.315 1345.59 870.5 1319.07 903.587 1274.89 953.218 1228.49 1002.85 1184.3 1143.47 1133.48 1327.52 1182.09 1509.5 1232.91 1581.88 1263.84 1658.39 1241.74 1736.98 1219.65 1821.76 1091.5 1877.6 1168.83 1935.5 1243.95 1825.9 1268.26 1645.99 1290.35 1631.51 1292.56 1619.1 1294.77 1606.69 1294.77 1569.47 1296.98 1571.54 1325.7 1594.29 1323.49Z" stroke="#333333" stroke-width="4.58333" stroke-linecap="round" stroke-linejoin="round" stroke-miterlimit="10" fill="none" fill-rule="evenodd"/><path d="M1025 1078C1025 1073.03 1028.81 1069 1033.5 1069 1038.19 1069 1042 1073.03 1042 1078 1042 1082.97 1038.19 1087 1033.5 1087 1028.81 1087 1025 1082.97 1025 1078Z" fill="#460061" fill-rule="evenodd"/><path d="M1060 1084C1060 1078.48 1064.25 1074 1069.5 1074 1074.75 1074 1079 1078.48 1079 1084 1079 1089.52 1074.75 1094 1069.5 1094 1064.25 1094 1060 1089.52 1060 1084Z" fill="#460061" fill-rule="evenodd"/><path d="M1094 1084C1094 1078.48 1098.03 1074 1103 1074 1107.97 1074 1112 1078.48 1112 1084 1112 1089.52 1107.97 1094 1103 1094 1098.03 1094 1094 1089.52 1094 1084Z" fill="#460061" fill-rule="evenodd"/><path d="M1131 1084C1131 1078.48 1134.58 1074 1139 1074 1143.42 1074 1147 1078.48 1147 1084 1147 1089.52 1143.42 1094 1139 1094 1134.58 1094 1131 1089.52 1131 1084Z" fill="#460061" fill-rule="evenodd"/><path d="M1166 1084C1166 1078.48 1169.81 1074 1174.5 1074 1179.19 1074 1183 1078.48 1183 1084 1183 1089.52 1179.19 1094 1174.5 1094 1169.81 1094 1166 1089.52 1166 1084Z" fill="#460061" fill-rule="evenodd"/><path d="M1203 1081C1203 1075.48 1207.03 1071 1212 1071 1216.97 1071 1221 1075.48 1221 1081 1221 1086.52 1216.97 1091 1212 1091 1207.03 1091 1203 1086.52 1203 1081Z" fill="#460061" fill-rule="evenodd"/><path d="M1242 1073.5C1242 1068.81 1245.81 1065 1250.5 1065 1255.19 1065 1259 1068.81 1259 1073.5 1259 1078.19 1255.19 1082 1250.5 1082 1245.81 1082 1242 1078.19 1242 1073.5Z" fill="#460061" fill-rule="evenodd"/><path d="M1275 1057C1275 1051.48 1278.81 1047 1283.5 1047 1288.19 1047 1292 1051.48 1292 1057 1292 1062.52 1288.19 1067 1283.5 1067 1278.81 1067 1275 1062.52 1275 1057Z" fill="#460061" fill-rule="evenodd"/><path d="M1317 1055C1317 1049.48 1320.58 1045 1325 1045 1329.42 1045 1333 1049.48 1333 1055 1333 1060.52 1329.42 1065 1325 1065 1320.58 1065 1317 1060.52 1317 1055Z" fill="#460061" fill-rule="evenodd"/><path d="M1352 1069C1352 1064.03 1355.81 1060 1360.5 1060 1365.19 1060 1369 1064.03 1369 1069 1369 1073.97 1365.19 1078 1360.5 1078 1355.81 1078 1352 1073.97 1352 1069Z" fill="#460061" fill-rule="evenodd"/><path d="M1373 1096C1373 1091.03 1376.58 1087 1381 1087 1385.42 1087 1389 1091.03 1389 1096 1389 1100.97 1385.42 1105 1381 1105 1376.58 1105 1373 1100.97 1373 1096Z" fill="#460061" fill-rule="evenodd"/><path d="M1374 1132C1374 1126.48 1377.81 1122 1382.5 1122 1387.19 1122 1391 1126.48 1391 1132 1391 1137.52 1387.19 1142 1382.5 1142 1377.81 1142 1374 1137.52 1374 1132Z" fill="#460061" fill-rule="evenodd"/><path d="M1350 1156C1350 1150.48 1354.25 1146 1359.5 1146 1364.75 1146 1369 1150.48 1369 1156 1369 1161.52 1364.75 1166 1359.5 1166 1354.25 1166 1350 1161.52 1350 1156Z" fill="#460061" fill-rule="evenodd"/><path d="M1313 1160.5C1313 1155.25 1316.58 1151 1321 1151 1325.42 1151 1329 1155.25 1329 1160.5 1329 1165.75 1325.42 1170 1321 1170 1316.58 1170 1313 1165.75 1313 1160.5Z" fill="#460061" fill-rule="evenodd"/><path d="M1274 1156C1274 1150.48 1277.58 1146 1282 1146 1286.42 1146 1290 1150.48 1290 1156 1290 1161.52 1286.42 1166 1282 1166 1277.58 1166 1274 1161.52 1274 1156Z" fill="#460061" fill-rule="evenodd"/><path d="M1236 1150C1236 1144.48 1239.58 1140 1244 1140 1248.42 1140 1252 1144.48 1252 1150 1252 1155.52 1248.42 1160 1244 1160 1239.58 1160 1236 1155.52 1236 1150Z" fill="#460061" fill-rule="evenodd"/><path d="M1195 1143C1195 1137.48 1199.03 1133 1204 1133 1208.97 1133 1213 1137.48 1213 1143 1213 1148.52 1208.97 1153 1204 1153 1199.03 1153 1195 1148.52 1195 1143Z" fill="#460061" fill-rule="evenodd"/><path d="M1157 1141C1157 1135.48 1160.81 1131 1165.5 1131 1170.19 1131 1174 1135.48 1174 1141 1174 1146.52 1170.19 1151 1165.5 1151 1160.81 1151 1157 1146.52 1157 1141Z" fill="#460061" fill-rule="evenodd"/><path d="M1125 1142C1125 1137.03 1129.03 1133 1134 1133 1138.97 1133 1143 1137.03 1143 1142 1143 1146.97 1138.97 1151 1134 1151 1129.03 1151 1125 1146.97 1125 1142Z" fill="#460061" fill-rule="evenodd"/><path d="M1091 1146.5C1091 1141.81 1094.81 1138 1099.5 1138 1104.19 1138 1108 1141.81 1108 1146.5 1108 1151.19 1104.19 1155 1099.5 1155 1094.81 1155 1091 1151.19 1091 1146.5Z" fill="#460061" fill-rule="evenodd"/><path d="M1050 1154C1050 1148.48 1053.81 1144 1058.5 1144 1063.19 1144 1067 1148.48 1067 1154 1067 1159.52 1063.19 1164 1058.5 1164 1053.81 1164 1050 1159.52 1050 1154Z" fill="#460061" fill-rule="evenodd"/><path d="M1015 1160C1015 1155.03 1018.58 1151 1023 1151 1027.42 1151 1031 1155.03 1031 1160 1031 1164.97 1027.42 1169 1023 1169 1018.58 1169 1015 1164.97 1015 1160Z" fill="#460061" fill-rule="evenodd"/><path d="M980 1161.5C980 1156.81 983.582 1153 988 1153 992.418 1153 996 1156.81 996 1161.5 996 1166.19 992.418 1170 988 1170 983.582 1170 980 1166.19 980 1161.5Z" fill="#460061" fill-rule="evenodd"/><path d="M945 1160C945 1155.03 948.582 1151 953 1151 957.418 1151 961 1155.03 961 1160 961 1164.97 957.418 1169 953 1169 948.582 1169 945 1164.97 945 1160Z" fill="#460061" fill-rule="evenodd"/><path d="M909 1145.5C909 1140.25 912.805 1136 917.5 1136 922.194 1136 926 1140.25 926 1145.5 926 1150.75 922.194 1155 917.5 1155 912.805 1155 909 1150.75 909 1145.5Z" fill="#460061" fill-rule="evenodd"/><path d="M889 1116C889 1111.03 892.582 1107 897 1107 901.418 1107 905 1111.03 905 1116 905 1120.97 901.418 1125 897 1125 892.582 1125 889 1120.97 889 1116Z" fill="#460061" fill-rule="evenodd"/><path d="M893 1077C893 1071.48 896.582 1067 901 1067 905.418 1067 909 1071.48 909 1077 909 1082.52 905.418 1087 901 1087 896.582 1087 893 1082.52 893 1077Z" fill="#460061" fill-rule="evenodd"/><path d="M928 1055C928 1049.48 932.03 1045 937 1045 941.971 1045 946 1049.48 946 1055 946 1060.52 941.971 1065 937 1065 932.03 1065 928 1060.52 928 1055Z" fill="#460061" fill-rule="evenodd"/><path d="M972 1059.5C972 1054.25 975.582 1050 980 1050 984.418 1050 988 1054.25 988 1059.5 988 1064.75 984.418 1069 980 1069 975.582 1069 972 1064.75 972 1059.5Z" fill="#460061" fill-rule="evenodd"/><path d="M932 1226C932 1221.03 935.805 1217 940.5 1217 945.194 1217 949 1221.03 949 1226 949 1230.97 945.194 1235 940.5 1235 935.805 1235 932 1230.97 932 1226Z" fill="#460061" fill-rule="evenodd"/><path d="M963 1201C963 1195.48 966.805 1191 971.5 1191 976.194 1191 980 1195.48 980 1201 980 1206.52 976.194 1211 971.5 1211 966.805 1211 963 1206.52 963 1201Z" fill="#460061" fill-rule="evenodd"/><path d="M994 1184C994 1179.03 997.806 1175 1002.5 1175 1007.19 1175 1011 1179.03 1011 1184 1011 1188.97 1007.19 1193 1002.5 1193 997.806 1193 994 1188.97 994 1184Z" fill="#460061" fill-rule="evenodd"/><path d="M1031 1171C1031 1166.03 1034.81 1162 1039.5 1162 1044.19 1162 1048 1166.03 1048 1171 1048 1175.97 1044.19 1180 1039.5 1180 1034.81 1180 1031 1175.97 1031 1171Z" fill="#460061" fill-rule="evenodd"/><path d="M1071 1159C1071 1153.48 1075.03 1149 1080 1149 1084.97 1149 1089 1153.48 1089 1159 1089 1164.52 1084.97 1169 1080 1169 1075.03 1169 1071 1164.52 1071 1159Z" fill="#460061" fill-rule="evenodd"/><path d="M1108 1152C1108 1146.48 1111.81 1142 1116.5 1142 1121.19 1142 1125 1146.48 1125 1152 1125 1157.52 1121.19 1162 1116.5 1162 1111.81 1162 1108 1157.52 1108 1152Z" fill="#460061" fill-rule="evenodd"/><path d="M1342 1176C1342 1170.48 1345.58 1166 1350 1166 1354.42 1166 1358 1170.48 1358 1176 1358 1181.52 1354.42 1186 1350 1186 1345.58 1186 1342 1181.52 1342 1176Z" fill="#460061" fill-rule="evenodd"/><path d="M1373 1185C1373 1179.48 1377.03 1175 1382 1175 1386.97 1175 1391 1179.48 1391 1185 1391 1190.52 1386.97 1195 1382 1195 1377.03 1195 1373 1190.52 1373 1185Z" fill="#460061" fill-rule="evenodd"/><path d="M1406 1196C1406 1190.48 1409.58 1186 1414 1186 1418.42 1186 1422 1190.48 1422 1196 1422 1201.52 1418.42 1206 1414 1206 1409.58 1206 1406 1201.52 1406 1196Z" fill="#460061" fill-rule="evenodd"/><path d="M1439 1206C1439 1201.03 1443.25 1197 1448.5 1197 1453.75 1197 1458 1201.03 1458 1206 1458 1210.97 1453.75 1215 1448.5 1215 1443.25 1215 1439 1210.97 1439 1206Z" fill="#460061" fill-rule="evenodd"/><path d="M1470 1214C1470 1208.48 1474.03 1204 1479 1204 1483.97 1204 1488 1208.48 1488 1214 1488 1219.52 1483.97 1224 1479 1224 1474.03 1224 1470 1219.52 1470 1214Z" fill="#460061" fill-rule="evenodd"/><path d="M1507 1222.5C1507 1217.25 1510.58 1213 1515 1213 1519.42 1213 1523 1217.25 1523 1222.5 1523 1227.75 1519.42 1232 1515 1232 1510.58 1232 1507 1227.75 1507 1222.5Z" fill="#460061" fill-rule="evenodd"/><path d="M1542 1231.5C1542 1225.7 1545.81 1221 1550.5 1221 1555.19 1221 1559 1225.7 1559 1231.5 1559 1237.3 1555.19 1242 1550.5 1242 1545.81 1242 1542 1237.3 1542 1231.5Z" fill="#460061" fill-rule="evenodd"/><path d="M1576 1236C1576 1230.48 1579.58 1226 1584 1226 1588.42 1226 1592 1230.48 1592 1236 1592 1241.52 1588.42 1246 1584 1246 1579.58 1246 1576 1241.52 1576 1236Z" fill="#460061" fill-rule="evenodd"/><path d="M1608 1238C1608 1232.48 1612.25 1228 1617.5 1228 1622.75 1228 1627 1232.48 1627 1238 1627 1243.52 1622.75 1248 1617.5 1248 1612.25 1248 1608 1243.52 1608 1238Z" fill="#460061" fill-rule="evenodd"/><path d="M1644 1231.5C1644 1225.7 1647.58 1221 1652 1221 1656.42 1221 1660 1225.7 1660 1231.5 1660 1237.3 1656.42 1242 1652 1242 1647.58 1242 1644 1237.3 1644 1231.5Z" fill="#460061" fill-rule="evenodd"/><path d="M1679 1217C1679 1212.03 1682.58 1208 1687 1208 1691.42 1208 1695 1212.03 1695 1217 1695 1221.97 1691.42 1226 1687 1226 1682.58 1226 1679 1221.97 1679 1217Z" fill="#460061" fill-rule="evenodd"/><path d="M1710 1194C1710 1188.48 1713.58 1184 1718 1184 1722.42 1184 1726 1188.48 1726 1194 1726 1199.52 1722.42 1204 1718 1204 1713.58 1204 1710 1199.52 1710 1194Z" fill="#460061" fill-rule="evenodd"/><path d="M1739 1173C1739 1168.03 1743.03 1164 1748 1164 1752.97 1164 1757 1168.03 1757 1173 1757 1177.97 1752.97 1182 1748 1182 1743.03 1182 1739 1177.97 1739 1173Z" fill="#460061" fill-rule="evenodd"/><path d="M1772 1152C1772 1146.48 1776.03 1142 1781 1142 1785.97 1142 1790 1146.48 1790 1152 1790 1157.52 1785.97 1162 1781 1162 1776.03 1162 1772 1157.52 1772 1152Z" fill="#460061" fill-rule="evenodd"/><path d="M1813 1134.5C1813 1129.25 1816.81 1125 1821.5 1125 1826.19 1125 1830 1129.25 1830 1134.5 1830 1139.75 1826.19 1144 1821.5 1144 1816.81 1144 1813 1139.75 1813 1134.5Z" fill="#460061" fill-rule="evenodd"/><path d="M1852 1137.5C1852 1132.81 1855.81 1129 1860.5 1129 1865.19 1129 1869 1132.81 1869 1137.5 1869 1142.19 1865.19 1146 1860.5 1146 1855.81 1146 1852 1142.19 1852 1137.5Z" fill="#460061" fill-rule="evenodd"/><path d="M1879 1160.5C1879 1155.25 1882.81 1151 1887.5 1151 1892.19 1151 1896 1155.25 1896 1160.5 1896 1165.75 1892.19 1170 1887.5 1170 1882.81 1170 1879 1165.75 1879 1160.5Z" fill="#460061" fill-rule="evenodd"/><path d="M1893 1196C1893 1190.48 1896.81 1186 1901.5 1186 1906.19 1186 1910 1190.48 1910 1196 1910 1201.52 1906.19 1206 1901.5 1206 1896.81 1206 1893 1201.52 1893 1196Z" fill="#460061" fill-rule="evenodd"/><path d="M1885 1233.5C1885 1228.25 1889.25 1224 1894.5 1224 1899.75 1224 1904 1228.25 1904 1233.5 1904 1238.75 1899.75 1243 1894.5 1243 1889.25 1243 1885 1238.75 1885 1233.5Z" fill="#460061" fill-rule="evenodd"/><path d="M1859 1254.5C1859 1249.81 1862.58 1246 1867 1246 1871.42 1246 1875 1249.81 1875 1254.5 1875 1259.19 1871.42 1263 1867 1263 1862.58 1263 1859 1259.19 1859 1254.5Z" fill="#460061" fill-rule="evenodd"/><path d="M1828 1265.5C1828 1260.81 1831.58 1257 1836 1257 1840.42 1257 1844 1260.81 1844 1265.5 1844 1270.19 1840.42 1274 1836 1274 1831.58 1274 1828 1270.19 1828 1265.5Z" fill="#460061" fill-rule="evenodd"/><path d="M1658 1300C1658 1294.48 1661.81 1290 1666.5 1290 1671.19 1290 1675 1294.48 1675 1300 1675 1305.52 1671.19 1310 1666.5 1310 1661.81 1310 1658 1305.52 1658 1300Z" fill="#460061" fill-rule="evenodd"/><path d="M1699 1291C1699 1285.48 1702.81 1281 1707.5 1281 1712.19 1281 1716 1285.48 1716 1291 1716 1296.52 1712.19 1301 1707.5 1301 1702.81 1301 1699 1296.52 1699 1291Z" fill="#460061" fill-rule="evenodd"/><path d="M1776 1277C1776 1272.03 1779.81 1268 1784.5 1268 1789.19 1268 1793 1272.03 1793 1277 1793 1281.97 1789.19 1286 1784.5 1286 1779.81 1286 1776 1281.97 1776 1277Z" fill="#460061" fill-rule="evenodd"/><path d="M1735 1284C1735 1278.48 1738.58 1274 1743 1274 1747.42 1274 1751 1278.48 1751 1284 1751 1289.52 1747.42 1294 1743 1294 1738.58 1294 1735 1289.52 1735 1284Z" fill="#460061" fill-rule="evenodd"/><path d="M1614 1304C1614 1298.48 1617.81 1294 1622.5 1294 1627.19 1294 1631 1298.48 1631 1304 1631 1309.52 1627.19 1314 1622.5 1314 1617.81 1314 1614 1309.52 1614 1304Z" fill="#460061" fill-rule="evenodd"/><path d="M1584 1312C1584 1307.03 1588.03 1303 1593 1303 1597.97 1303 1602 1307.03 1602 1312 1602 1316.97 1597.97 1321 1593 1321 1588.03 1321 1584 1316.97 1584 1312Z" fill="#460061" fill-rule="evenodd"/><path d="M1869 1282C1869 1276.48 1872.58 1272 1877 1272 1881.42 1272 1885 1276.48 1885 1282 1885 1287.52 1881.42 1292 1877 1292 1872.58 1292 1869 1287.52 1869 1282Z" fill="#460061" fill-rule="evenodd"/><path d="M1885 1318.5C1885 1313.81 1888.81 1310 1893.5 1310 1898.19 1310 1902 1313.81 1902 1318.5 1902 1323.19 1898.19 1327 1893.5 1327 1888.81 1327 1885 1323.19 1885 1318.5Z" fill="#460061" fill-rule="evenodd"/><path d="M1867 1352.5C1867 1347.25 1871.03 1343 1876 1343 1880.97 1343 1885 1347.25 1885 1352.5 1885 1357.75 1880.97 1362 1876 1362 1871.03 1362 1867 1357.75 1867 1352.5Z" fill="#460061" fill-rule="evenodd"/><path d="M1838 1372C1838 1366.48 1841.81 1362 1846.5 1362 1851.19 1362 1855 1366.48 1855 1372 1855 1377.52 1851.19 1382 1846.5 1382 1841.81 1382 1838 1377.52 1838 1372Z" fill="#460061" fill-rule="evenodd"/><path d="M1801 1381.5C1801 1376.25 1804.58 1372 1809 1372 1813.42 1372 1817 1376.25 1817 1381.5 1817 1386.75 1813.42 1391 1809 1391 1804.58 1391 1801 1386.75 1801 1381.5Z" fill="#460061" fill-rule="evenodd"/><path d="M1761 1376C1761 1371.03 1765.25 1367 1770.5 1367 1775.75 1367 1780 1371.03 1780 1376 1780 1380.97 1775.75 1385 1770.5 1385 1765.25 1385 1761 1380.97 1761 1376Z" fill="#460061" fill-rule="evenodd"/><path d="M1720 1368C1720 1362.48 1723.81 1358 1728.5 1358 1733.19 1358 1737 1362.48 1737 1368 1737 1373.52 1733.19 1378 1728.5 1378 1723.81 1378 1720 1373.52 1720 1368Z" fill="#460061" fill-rule="evenodd"/><path d="M1679 1366C1679 1360.48 1682.58 1356 1687 1356 1691.42 1356 1695 1360.48 1695 1366 1695 1371.52 1691.42 1376 1687 1376 1682.58 1376 1679 1371.52 1679 1366Z" fill="#460061" fill-rule="evenodd"/><path d="M1633 1370.5C1633 1365.25 1636.81 1361 1641.5 1361 1646.19 1361 1650 1365.25 1650 1370.5 1650 1375.75 1646.19 1380 1641.5 1380 1636.81 1380 1633 1375.75 1633 1370.5Z" fill="#460061" fill-rule="evenodd"/><path d="M1594 1377C1594 1371.48 1597.58 1367 1602 1367 1606.42 1367 1610 1371.48 1610 1377 1610 1382.52 1606.42 1387 1602 1387 1597.58 1387 1594 1382.52 1594 1377Z" fill="#460061" fill-rule="evenodd"/><path d="M1557 1381.5C1557 1376.25 1560.58 1372 1565 1372 1569.42 1372 1573 1376.25 1573 1381.5 1573 1386.75 1569.42 1391 1565 1391 1560.58 1391 1557 1386.75 1557 1381.5Z" fill="#460061" fill-rule="evenodd"/><path d="M1511 1382.5C1511 1377.81 1514.81 1374 1519.5 1374 1524.19 1374 1528 1377.81 1528 1382.5 1528 1387.19 1524.19 1391 1519.5 1391 1514.81 1391 1511 1387.19 1511 1382.5Z" fill="#460061" fill-rule="evenodd"/><path d="M1466 1379C1466 1373.48 1469.58 1369 1474 1369 1478.42 1369 1482 1373.48 1482 1379 1482 1384.52 1478.42 1389 1474 1389 1469.58 1389 1466 1384.52 1466 1379Z" fill="#460061" fill-rule="evenodd"/><path d="M1435 1372C1435 1366.48 1439.03 1362 1444 1362 1448.97 1362 1453 1366.48 1453 1372 1453 1377.52 1448.97 1382 1444 1382 1439.03 1382 1435 1377.52 1435 1372Z" fill="#460061" fill-rule="evenodd"/><path d="M1393 1362C1393 1356.48 1397.25 1352 1402.5 1352 1407.75 1352 1412 1356.48 1412 1362 1412 1367.52 1407.75 1372 1402.5 1372 1397.25 1372 1393 1367.52 1393 1362Z" fill="#460061" fill-rule="evenodd"/><path d="M903 1251.5C903 1246.25 906.806 1242 911.5 1242 916.194 1242 920 1246.25 920 1251.5 920 1256.75 916.194 1261 911.5 1261 906.806 1261 903 1256.75 903 1251.5Z" fill="#460061" fill-rule="evenodd"/><path d="M881 1285C881 1280.03 884.582 1276 889 1276 893.418 1276 897 1280.03 897 1285 897 1289.97 893.418 1294 889 1294 884.582 1294 881 1289.97 881 1285Z" fill="#460061" fill-rule="evenodd"/><path d="M866 1326.5C866 1321.25 870.253 1317 875.5 1317 880.747 1317 885 1321.25 885 1326.5 885 1331.75 880.747 1336 875.5 1336 870.253 1336 866 1331.75 866 1326.5Z" fill="#460061" fill-rule="evenodd"/><path d="M882 1357C882 1351.48 885.806 1347 890.5 1347 895.194 1347 899 1351.48 899 1357 899 1362.52 895.194 1367 890.5 1367 885.806 1367 882 1362.52 882 1357Z" fill="#460061" fill-rule="evenodd"/><path d="M912 1372C912 1366.48 916.029 1362 921 1362 925.97 1362 930 1366.48 930 1372 930 1377.52 925.97 1382 921 1382 916.029 1382 912 1377.52 912 1372Z" fill="#460061" fill-rule="evenodd"/><path d="M946 1366C946 1360.48 949.806 1356 954.5 1356 959.194 1356 963 1360.48 963 1366 963 1371.52 959.194 1376 954.5 1376 949.806 1376 946 1371.52 946 1366Z" fill="#460061" fill-rule="evenodd"/><path d="M972 1344C972 1338.48 975.582 1334 980 1334 984.418 1334 988 1338.48 988 1344 988 1349.52 984.418 1354 980 1354 975.582 1354 972 1349.52 972 1344Z" fill="#460061" fill-rule="evenodd"/><path d="M996 1315C996 1309.48 999.805 1305 1004.5 1305 1009.19 1305 1013 1309.48 1013 1315 1013 1320.52 1009.19 1325 1004.5 1325 999.805 1325 996 1320.52 996 1315Z" fill="#460061" fill-rule="evenodd"/><path d="M1021 1291C1021 1285.48 1024.81 1281 1029.5 1281 1034.19 1281 1038 1285.48 1038 1291 1038 1296.52 1034.19 1301 1029.5 1301 1024.81 1301 1021 1296.52 1021 1291Z" fill="#460061" fill-rule="evenodd"/><path d="M1048 1266.5C1048 1261.25 1052.25 1257 1057.5 1257 1062.75 1257 1067 1261.25 1067 1266.5 1067 1271.75 1062.75 1276 1057.5 1276 1052.25 1276 1048 1271.75 1048 1266.5Z" fill="#460061" fill-rule="evenodd"/><path d="M1079 1250.5C1079 1245.81 1082.58 1242 1087 1242 1091.42 1242 1095 1245.81 1095 1250.5 1095 1255.19 1091.42 1259 1087 1259 1082.58 1259 1079 1255.19 1079 1250.5Z" fill="#460061" fill-rule="evenodd"/><path d="M1110 1236C1110 1230.48 1114.25 1226 1119.5 1226 1124.75 1226 1129 1230.48 1129 1236 1129 1241.52 1124.75 1246 1119.5 1246 1114.25 1246 1110 1241.52 1110 1236Z" fill="#460061" fill-rule="evenodd"/><path d="M1143 1227C1143 1221.48 1147.25 1217 1152.5 1217 1157.75 1217 1162 1221.48 1162 1227 1162 1232.52 1157.75 1237 1152.5 1237 1147.25 1237 1143 1232.52 1143 1227Z" fill="#460061" fill-rule="evenodd"/><path d="M1174 1218C1174 1212.48 1177.81 1208 1182.5 1208 1187.19 1208 1191 1212.48 1191 1218 1191 1223.52 1187.19 1228 1182.5 1228 1177.81 1228 1174 1223.52 1174 1218Z" fill="#460061" fill-rule="evenodd"/><path d="M1209 1215C1209 1210.03 1213.25 1206 1218.5 1206 1223.75 1206 1228 1210.03 1228 1215 1228 1219.97 1223.75 1224 1218.5 1224 1213.25 1224 1209 1219.97 1209 1215Z" fill="#460061" fill-rule="evenodd"/><path d="M1247 1216C1247 1210.48 1250.58 1206 1255 1206 1259.42 1206 1263 1210.48 1263 1216 1263 1221.52 1259.42 1226 1255 1226 1250.58 1226 1247 1221.52 1247 1216Z" fill="#460061" fill-rule="evenodd"/><path d="M1282 1223.5C1282 1218.81 1286.25 1215 1291.5 1215 1296.75 1215 1301 1218.81 1301 1223.5 1301 1228.19 1296.75 1232 1291.5 1232 1286.25 1232 1282 1228.19 1282 1223.5Z" fill="#460061" fill-rule="evenodd"/><path d="M1317 1233C1317 1228.03 1321.03 1224 1326 1224 1330.97 1224 1335 1228.03 1335 1233 1335 1237.97 1330.97 1242 1326 1242 1321.03 1242 1317 1237.97 1317 1233Z" fill="#460061" fill-rule="evenodd"/><path d="M1354 1245C1354 1239.48 1358.25 1235 1363.5 1235 1368.75 1235 1373 1239.48 1373 1245 1373 1250.52 1368.75 1255 1363.5 1255 1358.25 1255 1354 1250.52 1354 1245Z" fill="#460061" fill-rule="evenodd"/><path d="M1391 1257C1391 1252.03 1394.81 1248 1399.5 1248 1404.19 1248 1408 1252.03 1408 1257 1408 1261.97 1404.19 1266 1399.5 1266 1394.81 1266 1391 1261.97 1391 1257Z" fill="#460061" fill-rule="evenodd"/><path d="M1424 1277.5C1424 1272.25 1427.81 1268 1432.5 1268 1437.19 1268 1441 1272.25 1441 1277.5 1441 1282.75 1437.19 1287 1432.5 1287 1427.81 1287 1424 1282.75 1424 1277.5Z" fill="#460061" fill-rule="evenodd"/><path d="M1393 1286.5C1393 1280.7 1397.25 1276 1402.5 1276 1407.75 1276 1412 1280.7 1412 1286.5 1412 1292.3 1407.75 1297 1402.5 1297 1397.25 1297 1393 1292.3 1393 1286.5Z" fill="#460061" fill-rule="evenodd"/><path d="M1366 1271C1366 1265.48 1369.81 1261 1374.5 1261 1379.19 1261 1383 1265.48 1383 1271 1383 1276.52 1379.19 1281 1374.5 1281 1369.81 1281 1366 1276.52 1366 1271Z" fill="#460061" fill-rule="evenodd"/><path d="M1331 1260C1331 1254.48 1335.25 1250 1340.5 1250 1345.75 1250 1350 1254.48 1350 1260 1350 1265.52 1345.75 1270 1340.5 1270 1335.25 1270 1331 1265.52 1331 1260Z" fill="#460061" fill-rule="evenodd"/><path d="M1292 1247C1292 1241.48 1295.81 1237 1300.5 1237 1305.19 1237 1309 1241.48 1309 1247 1309 1252.52 1305.19 1257 1300.5 1257 1295.81 1257 1292 1252.52 1292 1247Z" fill="#460061" fill-rule="evenodd"/><path d="M1226 1237C1226 1232.03 1229.58 1228 1234 1228 1238.42 1228 1242 1232.03 1242 1237 1242 1241.97 1238.42 1246 1234 1246 1229.58 1246 1226 1241.97 1226 1237Z" fill="#460061" fill-rule="evenodd"/><path d="M1261 1241C1261 1236.03 1264.81 1232 1269.5 1232 1274.19 1232 1278 1236.03 1278 1241 1278 1245.97 1274.19 1250 1269.5 1250 1264.81 1250 1261 1245.97 1261 1241Z" fill="#460061" fill-rule="evenodd"/><path d="M1191 1240C1191 1234.48 1194.58 1230 1199 1230 1203.42 1230 1207 1234.48 1207 1240 1207 1245.52 1203.42 1250 1199 1250 1194.58 1250 1191 1245.52 1191 1240Z" fill="#460061" fill-rule="evenodd"/><path d="M1160 1247C1160 1241.48 1163.58 1237 1168 1237 1172.42 1237 1176 1241.48 1176 1247 1176 1252.52 1172.42 1257 1168 1257 1163.58 1257 1160 1252.52 1160 1247Z" fill="#460061" fill-rule="evenodd"/><path d="M1129 1254.5C1129 1249.81 1132.58 1246 1137 1246 1141.42 1246 1145 1249.81 1145 1254.5 1145 1259.19 1141.42 1263 1137 1263 1132.58 1263 1129 1259.19 1129 1254.5Z" fill="#460061" fill-rule="evenodd"/><path d="M1095 1265.5C1095 1260.81 1099.25 1257 1104.5 1257 1109.75 1257 1114 1260.81 1114 1265.5 1114 1270.19 1109.75 1274 1104.5 1274 1099.25 1274 1095 1270.19 1095 1265.5Z" fill="#460061" fill-rule="evenodd"/><path d="M1067 1276C1067 1270.48 1070.58 1266 1075 1266 1079.42 1266 1083 1270.48 1083 1276 1083 1281.52 1079.42 1286 1075 1286 1070.58 1286 1067 1281.52 1067 1276Z" fill="#460061" fill-rule="evenodd"/><path d="M1038 1291C1038 1285.48 1041.58 1281 1046 1281 1050.42 1281 1054 1285.48 1054 1291 1054 1296.52 1050.42 1301 1046 1301 1041.58 1301 1038 1296.52 1038 1291Z" fill="#460061" fill-rule="evenodd"/><path d="M1013 1316C1013 1311.03 1016.81 1307 1021.5 1307 1026.19 1307 1030 1311.03 1030 1316 1030 1320.97 1026.19 1325 1021.5 1325 1016.81 1325 1013 1320.97 1013 1316Z" fill="#460061" fill-rule="evenodd"/><path d="M1004 1344C1004 1338.48 1007.81 1334 1012.5 1334 1017.19 1334 1021 1338.48 1021 1344 1021 1349.52 1017.19 1354 1012.5 1354 1007.81 1354 1004 1349.52 1004 1344Z" fill="#460061" fill-rule="evenodd"/><path d="M1015 1372C1015 1366.48 1018.58 1362 1023 1362 1027.42 1362 1031 1366.48 1031 1372 1031 1377.52 1027.42 1382 1023 1382 1018.58 1382 1015 1377.52 1015 1372Z" fill="#460061" fill-rule="evenodd"/><path d="M1031 1392.5C1031 1386.7 1034.81 1382 1039.5 1382 1044.19 1382 1048 1386.7 1048 1392.5 1048 1398.3 1044.19 1403 1039.5 1403 1034.81 1403 1031 1398.3 1031 1392.5Z" fill="#460061" fill-rule="evenodd"/><path d="M1056 1401C1056 1395.48 1059.81 1391 1064.5 1391 1069.19 1391 1073 1395.48 1073 1401 1073 1406.52 1069.19 1411 1064.5 1411 1059.81 1411 1056 1406.52 1056 1401Z" fill="#460061" fill-rule="evenodd"/><path d="M1085 1399C1085 1393.48 1088.81 1389 1093.5 1389 1098.19 1389 1102 1393.48 1102 1399 1102 1404.52 1098.19 1409 1093.5 1409 1088.81 1409 1085 1404.52 1085 1399Z" fill="#460061" fill-rule="evenodd"/><path d="M1112 1387C1112 1382.03 1116.25 1378 1121.5 1378 1126.75 1378 1131 1382.03 1131 1387 1131 1391.97 1126.75 1396 1121.5 1396 1116.25 1396 1112 1391.97 1112 1387Z" fill="#460061" fill-rule="evenodd"/><path d="M1143 1368C1143 1362.48 1146.81 1358 1151.5 1358 1156.19 1358 1160 1362.48 1160 1368 1160 1373.52 1156.19 1378 1151.5 1378 1146.81 1378 1143 1373.52 1143 1368Z" fill="#460061" fill-rule="evenodd"/><path d="M1168 1348C1168 1342.48 1172.25 1338 1177.5 1338 1182.75 1338 1187 1342.48 1187 1348 1187 1353.52 1182.75 1358 1177.5 1358 1172.25 1358 1168 1353.52 1168 1348Z" fill="#460061" fill-rule="evenodd"/><path d="M1201 1338.5C1201 1333.81 1205.25 1330 1210.5 1330 1215.75 1330 1220 1333.81 1220 1338.5 1220 1343.19 1215.75 1347 1210.5 1347 1205.25 1347 1201 1343.19 1201 1338.5Z" fill="#460061" fill-rule="evenodd"/><path d="M1238 1329.5C1238 1324.81 1241.81 1321 1246.5 1321 1251.19 1321 1255 1324.81 1255 1329.5 1255 1334.19 1251.19 1338 1246.5 1338 1241.81 1338 1238 1334.19 1238 1329.5Z" fill="#460061" fill-rule="evenodd"/><path d="M1274 1328C1274 1322.48 1277.58 1318 1282 1318 1286.42 1318 1290 1322.48 1290 1328 1290 1333.52 1286.42 1338 1282 1338 1277.58 1338 1274 1333.52 1274 1328Z" fill="#460061" fill-rule="evenodd"/><path d="M1319 1331C1319 1325.48 1322.58 1321 1327 1321 1331.42 1321 1335 1325.48 1335 1331 1335 1336.52 1331.42 1341 1327 1341 1322.58 1341 1319 1336.52 1319 1331Z" fill="#460061" fill-rule="evenodd"/><path d="M1352 1343C1352 1338.03 1355.81 1334 1360.5 1334 1365.19 1334 1369 1338.03 1369 1343 1369 1347.97 1365.19 1352 1360.5 1352 1355.81 1352 1352 1347.97 1352 1343Z" fill="#460061" fill-rule="evenodd"/></g></svg>