<svg width="968" height="465" xmlns="http://www.w3.org/2000/svg" xmlns:xlink="http://www.w3.org/1999/xlink" xml:space="preserve" overflow="hidden"><defs><clipPath id="clip0"><rect x="2367" y="969" width="968" height="465"/></clipPath></defs><g clip-path="url(#clip0)" transform="translate(-2367 -969)"><path d="M3038.88 1129.77C2966.55 1176.25 2784.71 1131.98 2710.32 1107.64 2704.12 1105.43 2697.92 1103.21 2691.72 1101 2642.13 1116.49 2580.13 1167.39 2576 1193.95 2578.07 1193.95 2578.07 1193.95 2578.07 1193.95 2586.33 1140.84 2691.72 1180.67 2749.58 1198.38 2807.44 1213.87 2898.36 1196.16 2950.02 1189.52 3001.68 1185.1 3045.08 1176.25 3092.61 1189.52 3119.47 1198.38 3131.87 1218.3 3131.87 1236 3136 1205.02 3086.41 1149.69 3038.88 1129.77Z" fill="#DA9EA7" fill-rule="evenodd"/><path d="M3038.88 1129.77C2966.55 1176.25 2784.71 1131.98 2710.32 1107.64 2704.12 1105.43 2697.92 1103.21 2691.72 1101 2642.13 1116.49 2580.13 1167.39 2576 1193.95 2578.07 1193.95 2578.07 1193.95 2578.07 1193.95 2586.33 1140.84 2691.72 1180.67 2749.58 1198.38 2807.44 1213.87 2898.36 1196.16 2950.02 1189.52 3001.68 1185.1 3045.08 1176.25 3092.61 1189.52 3119.47 1198.38 3131.87 1218.3 3131.87 1236 3136 1205.02 3086.41 1149.69 3038.88 1129.77Z" fill="#DA9EA7" fill-rule="evenodd"/><path d="M2867.59 1407.95C2826.2 1401.32 2784.81 1394.68 2704.1 1396.89 2623.39 1399.11 2553.03 1405.74 2515.78 1412.37 2482.67 1419 2433 1407.95 2433 1370.37 2433 1335 2555.1 1354.89 2631.67 1361.53 2710.31 1368.16 2801.37 1350.47 2851.04 1348.26 2900.71 1346.05 2960.72 1346.05 2966.93 1383.63 2969 1403.53 2942.1 1414.58 2867.59 1407.95Z" fill="#F5E4E5" fill-rule="evenodd"/><path d="M2793.59 1367.8C2818.42 1363.4 2837.04 1361.2 2853.6 1361.2 2892.92 1359 2926.03 1363.4 2942.58 1370 2955 1376.6 2952.93 1389.8 2944.65 1392 2932.24 1394.2 2909.47 1398.6 2868.09 1394.2 2868.09 1394.2 2863.95 1394.2 2863.95 1394.2 2824.63 1387.6 2783.24 1381 2704.6 1383.2 2621.83 1385.4 2553.54 1392 2514.22 1398.6 2491.46 1403 2464.55 1398.6 2452.14 1387.6 2448 1383.2 2448 1367.8 2456.28 1365.6 2481.11 1359 2553.54 1365.6 2588.72 1370 2632.18 1374.4 2632.18 1374.4 2632.18 1374.4 2685.98 1378.8 2745.99 1372.2 2793.59 1367.8Z" fill="#BC576D" fill-rule="evenodd"/><path d="M2388.07 1017.25C2386 1070.1 2423.23 1072.3 2477 1070.1 2528.7 1070.1 2634.18 1081.11 2710.7 1107.54 2787.23 1133.96 2977.5 1178 3045.75 1127.35 3114 1074.51 3097.45 1023.86 3045.75 1006.24 2991.98 986.424 2965.09 1078.91 2878.23 1085.52 2789.3 1092.12 2650.73 1050.28 2565.93 1041.47 2483.2 1032.67 2392.2 960 2388.07 1017.25Z" fill="#BC576D" fill-rule="evenodd"/><path d="M2388.07 1017.25C2386 1070.1 2423.23 1072.3 2477 1070.1 2528.7 1070.1 2634.18 1081.11 2710.7 1107.54 2787.23 1133.96 2977.5 1178 3045.75 1127.35 3114 1074.51 3097.45 1023.86 3045.75 1006.24 2991.98 986.424 2965.09 1078.91 2878.23 1085.52 2789.3 1092.12 2650.73 1050.28 2565.93 1041.47 2483.2 1032.67 2392.2 960 2388.07 1017.25Z" fill="#F5E4E5" fill-rule="evenodd"/><path d="M2576.13 1197.75C2572 1239.8 2602.98 1253.08 2646.35 1244.23 2689.72 1235.38 2850.8 1242.02 2945.8 1242.02 3040.8 1242.02 3071.78 1273 3106.89 1261.93 3142 1253.08 3139.93 1204.39 3092.43 1188.9 3044.93 1175.62 3001.57 1184.48 2949.93 1188.9 2898.3 1195.54 2807.43 1213.25 2749.61 1197.75 2691.78 1180.05 2582.33 1138 2576.13 1197.75Z" fill="#F5E4E5" fill-rule="evenodd"/><path d="M2634.19 1306.28C2642.43 1345.8 2679.54 1348 2710.47 1332.63 2741.4 1315.07 2786.75 1337.02 2790.88 1293.11 2795 1247 2739.33 1266.76 2712.53 1268.96 2687.79 1271.15 2628 1264.57 2634.19 1306.28Z" fill="#F5E4E5" fill-rule="evenodd"/><path d="M2565.74 1042.16C2650.54 1051 2789.12 1093 2878.06 1086.37 2964.93 1079.74 2991.81 986.895 3045.59 1006.79 3049.73 1009 3053.86 1009 3058 1011.21 3045.59 1004.58 3020.77 995.737 3012.5 995.737 2983.54 997.947 2981.47 1000.16 2966.99 1004.58 2795.32 1066.47 2687.77 1024.47 2675.36 1024.47 2660.88 1022.26 2644.34 1020.05 2629.86 1015.63 2611.24 1009 2536.78 989.105 2497.48 984.684 2474.73 982.474 2456.12 967 2433.37 973.632 2418.89 975.842 2396.14 984.684 2392 1002.37 2410.62 973.632 2491.28 1033.32 2565.74 1042.16Z" fill="#DA9EA7" fill-rule="evenodd"/><path d="M2814 1277.69C2816.06 1262.24 2832.53 1249 2851.06 1251.21 2871.65 1253.41 2884 1268.86 2884 1284.31 2881.94 1301.97 2865.47 1313 2846.94 1310.79 2826.35 1308.59 2814 1293.14 2814 1277.69Z" fill="#F5E4E5" fill-rule="evenodd"/><path d="M2750.27 1240C2719.15 1240 2692.18 1240 2671.43 1242.19 2634.07 1257.48 2634.07 1277.15 2634.07 1299 2634.07 1299 2634.07 1299 2634.07 1299 2632 1266.22 2688.02 1270.59 2712.93 1268.41 2739.9 1266.22 2795.93 1246.56 2791.78 1292.44 2798 1270.59 2779.32 1250.93 2750.27 1240Z" fill="#DA9EA7" fill-rule="evenodd"/><path d="M2402.14 1008.62C2412.49 1002 2441.46 1013.03 2468.36 1024.05 2497.34 1035.08 2532.52 1048.32 2565.63 1052.73 2594.6 1054.93 2631.85 1063.75 2671.17 1070.37 2739.47 1085.81 2820.18 1101.25 2878.12 1096.84 2925.72 1092.42 2956.76 1065.96 2983.66 1043.9 3006.43 1021.85 3022.98 1010.82 3041.61 1017.44 3064.37 1024.05 3078.86 1037.29 3080.93 1052.73 3083 1072.58 3068.51 1094.63 3039.54 1116.68 2981.6 1163 2807.76 1127.71 2714.63 1096.84 2631.85 1068.16 2526.31 1059.34 2476.64 1059.34 2445.6 1059.34 2418.69 1059.34 2406.28 1046.11 2402.14 1041.7 2398 1032.88 2398 1019.64 2398 1019.64 2398 1019.64 2398 1017.44 2400.07 1013.03 2400.07 1008.62 2402.14 1008.62Z" fill="#BC576D" fill-rule="evenodd"/><path d="M2592.21 1224.55C2586 1220.2 2586 1211.5 2586 1198.45 2586 1198.45 2586 1198.45 2586 1198.45 2588.07 1191.93 2590.14 1187.58 2594.28 1185.4 2617.04 1168 2683.27 1189.75 2726.73 1202.8 2747.42 1207.15 2747.42 1207.15 2747.42 1207.15 2795.02 1222.38 2861.24 1213.68 2915.05 1207.15 2950.23 1202.8 2950.23 1202.8 2950.23 1202.8 2979.2 1198.45 2979.2 1198.45 2979.2 1198.45 3018.52 1194.1 3053.71 1189.75 3090.96 1200.63 3113.72 1209.33 3122 1222.38 3122 1233.25 3119.93 1241.95 3115.79 1248.48 3105.44 1252.83 3090.96 1255 3078.54 1252.83 3057.85 1246.3 3033.01 1239.78 2999.9 1228.9 2946.09 1228.9 2857.1 1228.9 2857.1 1228.9 2857.1 1228.9 2768.12 1228.9 2677.06 1226.73 2646.02 1233.25 2621.18 1237.6 2600.49 1235.43 2592.21 1224.55Z" fill="#BC576D" fill-rule="evenodd"/><path d="M2644 1297.57C2644 1295.36 2646.08 1293.14 2646.08 1290.93 2654.38 1282.07 2683.44 1279.86 2700.05 1279.86 2714.58 1279.86 2714.58 1279.86 2714.58 1279.86 2714.58 1279.86 2733.26 1277.64 2733.26 1277.64 2747.79 1275.43 2772.7 1271 2778.92 1277.64 2781 1279.86 2781 1284.29 2781 1290.93 2778.92 1308.64 2770.62 1310.86 2745.71 1313.07 2733.26 1315.29 2718.73 1315.29 2706.27 1321.93 2687.59 1330.79 2670.99 1333 2660.61 1326.36 2652.3 1321.93 2648.15 1315.29 2644 1304.21 2644 1302 2644 1299.79 2644 1297.57Z" fill="#BC576D" fill-rule="evenodd"/><path d="M2851.08 1262C2863.58 1264.22 2874 1273.11 2874 1284.22 2871.92 1293.11 2859.42 1302 2846.92 1299.78 2838.58 1297.56 2832.33 1295.33 2828.17 1288.67 2826.08 1286.44 2824 1284.22 2824 1279.78 2824 1279.78 2824 1279.78 2824 1279.78 2826.08 1268.67 2838.58 1262 2851.08 1262Z" fill="#BC576D" fill-rule="evenodd"/><path d="M2896.27 1289.02C2888 1326.57 2914.89 1324.36 2952.13 1315.52 2989.37 1306.69 3018.33 1302.27 3082.47 1319.94 3146.6 1337.61 3276.94 1384 3307.97 1346.45 3339 1308.9 3272.8 1291.22 3241.77 1291.22 3210.73 1291.22 3154.88 1295.64 3117.64 1291.22 3080.4 1286.81 2904.55 1236 2896.27 1289.02Z" fill="#F5E4E5" fill-rule="evenodd"/><path d="M2915.47 1306.24C2901 1301.86 2909.27 1284.33 2917.53 1282.14 2948.53 1269 3035.33 1286.52 3078.73 1295.29 3115.93 1304.05 3115.93 1304.05 3115.93 1304.05 3142.8 1306.24 3180 1306.24 3208.93 1304.05 3242 1304.05 3242 1304.05 3242 1304.05 3260.6 1304.05 3287.47 1310.62 3297.8 1319.38 3304 1323.76 3301.93 1332.52 3299.87 1336.9 3277.13 1361 3173.8 1330.33 3118 1315 3087 1306.24 3087 1306.24 3087 1306.24 3018.8 1288.71 2989.87 1293.1 2950.6 1301.86 2932 1306.24 2921.67 1306.24 2915.47 1306.24Z" fill="#BC576D" fill-rule="evenodd"/><path d="M3107.53 1262.46C3074.51 1273.49 3043.55 1242.62 2954.79 1242.62 2923.83 1249.23 2899.06 1264.67 2897 1288.92 2905.26 1236 3080.7 1286.72 3117.85 1291.13 3155.01 1295.54 3210.73 1291.13 3241.69 1291.13 3264.4 1291.13 3307.74 1299.95 3313.94 1322 3316 1322 3316 1322 3316 1322 3309.81 1299.95 3262.34 1247.03 3208.67 1247.03 3177.71 1247.03 3152.94 1247.03 3128.17 1244.82 3126.11 1253.64 3117.85 1260.26 3107.53 1262.46Z" fill="#DA9EA7" fill-rule="evenodd"/><path d="M2632.22 1361.8C2710.73 1368.46 2801.64 1350.71 2851.23 1348.49 2900.82 1346.27 2960.74 1346.27 2966.93 1384 2969 1359.59 2917.35 1324.07 2871.89 1304.1 2863.63 1308.54 2855.36 1310.76 2847.1 1310.76 2832.63 1308.54 2822.3 1301.88 2818.17 1293 2809.91 1293 2801.64 1293 2791.31 1293 2785.11 1337.39 2741.72 1317.41 2710.73 1332.95 2683.87 1346.27 2652.88 1346.27 2640.48 1319.63 2628.09 1321.85 2615.69 1321.85 2605.36 1324.07 2576.43 1326.29 2537.17 1326.29 2508.25 1328.51 2481.39 1330.73 2450.4 1346.27 2438 1361.8 2460.73 1339.61 2564.03 1355.15 2632.22 1361.8Z" fill="#DA9EA7" fill-rule="evenodd"/><path d="M2547 1050.23C2520.1 1043.65 2493.19 1032.69 2468.36 1023.92 2441.46 1012.96 2412.49 1002 2402.14 1008.58 2400.07 1008.58 2400.07 1012.96 2398 1017.35 2398 1019.54 2398 1019.54 2398 1019.54 2398 1032.69 2402.14 1041.46 2406.28 1045.85 2412.49 1052.42 2422.83 1056.81 2435.25 1059 2435.25 1056.81 2437.32 1054.62 2437.32 1052.42 2441.46 1043.65 2453.88 1043.65 2460.08 1043.65 2484.92 1043.65 2509.75 1050.23 2534.58 1050.23 2538.72 1050.23 2542.86 1050.23 2547 1050.23Z" fill="#A82D4D" fill-rule="evenodd"/><path d="M3080.93 1052.94C3078.86 1037.49 3064.36 1024.25 3041.57 1017.62 3022.93 1011 3006.36 1022.04 2983.57 1044.11 2956.64 1066.19 2925.57 1092.68 2877.93 1097.09 2844.79 1099.3 2805.43 1094.89 2764 1088.26 2811.64 1103.72 2861.36 1112.55 2913.14 1105.92 2940.07 1103.72 2983.57 1068.4 3010.5 1092.68 3018.79 1101.51 3020.86 1114.75 3020.86 1128 3027.07 1125.79 3033.29 1121.38 3039.5 1116.96 3068.5 1094.89 3083 1072.81 3080.93 1052.94Z" fill="#A82D4D" fill-rule="evenodd"/><path d="M2747.2 1207.38C2726.53 1203 2726.53 1203 2726.53 1203 2683.13 1189.88 2617 1168 2594.27 1185.5 2590.13 1187.69 2588.07 1192.06 2586 1198.62 2586 1198.62 2586 1198.62 2586 1198.62 2586 1211.75 2586 1220.5 2592.2 1224.87 2600.47 1235.81 2619.07 1238 2643.87 1233.62 2645.93 1218.31 2668.67 1213.94 2681.07 1213.94 2695.53 1211.75 2710 1213.94 2724.47 1213.94 2736.87 1213.94 2755.47 1216.12 2772 1213.94 2763.73 1211.75 2755.47 1211.75 2747.2 1207.38Z" fill="#A82D4D" fill-rule="evenodd"/><path d="M3090.97 1200C3053.74 1189 3018.57 1193.4 2979.26 1197.8 2950.3 1202.2 2950.3 1202.2 2950.3 1202.2 2915.14 1206.6 2915.14 1206.6 2915.14 1206.6 2915.14 1206.6 2913.07 1206.6 2911 1206.6 2931.69 1206.6 2950.3 1206.6 2968.92 1211 2989.61 1215.4 3016.5 1222 3033.05 1237.4 3033.05 1239.6 3033.05 1239.6 3033.05 1239.6 3043.39 1241.8 3051.67 1244 3057.87 1246.2 3078.56 1252.8 3090.97 1255 3105.45 1252.8 3115.79 1248.4 3119.93 1241.8 3122 1233 3122 1222 3113.73 1208.8 3090.97 1200Z" fill="#A82D4D" fill-rule="evenodd"/><path d="M2714.58 1292.85C2727.03 1288.48 2741.56 1290.67 2756.09 1288.48 2762.32 1288.48 2774.77 1288.48 2781 1284.11 2781 1281.93 2781 1279.74 2778.92 1277.56 2772.7 1271 2747.79 1275.37 2733.26 1277.56 2733.26 1277.56 2714.58 1279.74 2714.58 1279.74 2700.05 1279.74 2700.05 1279.74 2700.05 1279.74 2683.44 1279.74 2654.38 1281.93 2646.08 1290.67 2646.08 1292.85 2644 1295.04 2644 1297.22 2644 1299.41 2644 1301.59 2644 1303.78 2648.15 1314.7 2652.3 1321.26 2660.61 1325.63 2668.91 1330 2683.44 1330 2697.97 1325.63 2693.82 1325.63 2689.67 1323.44 2689.67 1319.07 2685.52 1303.78 2706.27 1295.04 2714.58 1292.85Z" fill="#A82D4D" fill-rule="evenodd"/><path d="M2874 1282.25C2871.92 1273.25 2863.58 1264.25 2851.08 1262 2838.58 1262 2826.08 1268.75 2824 1280 2824 1280 2824 1280 2824 1280 2824 1284.5 2826.08 1286.75 2828.17 1289 2830.25 1293.5 2834.42 1295.75 2836.5 1298 2836.5 1293.5 2836.5 1289 2842.75 1284.5 2849 1277.75 2869.83 1286.75 2874 1282.25Z" fill="#A82D4D" fill-rule="evenodd"/><path d="M3039 1288.5C3039 1288.5 3039 1288.5 3039 1288.5 2993.69 1279.75 2940.13 1271 2917.48 1281.94 2909.24 1284.12 2901 1301.62 2915.42 1306 2919.54 1306 2925.72 1306 2936.01 1303.81 2960.73 1279.75 3008.1 1286.31 3039 1288.5Z" fill="#A82D4D" fill-rule="evenodd"/><path d="M3299.85 1337C3301.93 1332.6 3304 1323.8 3297.78 1319.4 3287.41 1310.6 3260.44 1304 3241.78 1304 3208.59 1304 3208.59 1304 3208.59 1304 3185.78 1304 3160.89 1306.2 3136 1304 3158.81 1310.6 3183.7 1310.6 3206.52 1315 3218.96 1315 3233.48 1317.2 3241.78 1330.4 3245.93 1334.8 3248 1341.4 3245.93 1345.8 3270.81 1348 3291.56 1345.8 3299.85 1337Z" fill="#A82D4D" fill-rule="evenodd"/><path d="M2510.02 1398.6C2514.15 1387.6 2559.63 1381 2565.84 1381 2596.85 1378.8 2631.99 1383.2 2663 1376.6 2652.66 1376.6 2642.33 1376.6 2631.99 1374.4 2588.58 1370 2588.58 1370 2588.58 1370 2553.43 1365.6 2481.08 1359 2456.27 1365.6 2448 1367.8 2448 1383.2 2452.13 1387.6 2464.54 1396.4 2489.35 1403 2510.02 1398.6Z" fill="#A82D4D" fill-rule="evenodd"/><path d="M2942.56 1370.11C2925.97 1363.44 2892.8 1359 2853.4 1361.22 2836.82 1361.22 2818.16 1363.44 2793.28 1367.89 2780.83 1367.89 2768.39 1370.11 2753.88 1372.33 2755.95 1372.33 2758.03 1372.33 2760.1 1372.33 2780.83 1372.33 2803.64 1370.11 2822.3 1374.56 2832.67 1376.78 2849.26 1381.22 2853.4 1392.33 2853.4 1392.33 2853.4 1392.33 2853.4 1392.33 2857.55 1392.33 2859.62 1392.33 2863.77 1394.56 2863.77 1394.56 2867.92 1394.56 2867.92 1394.56 2909.39 1399 2932.19 1394.56 2944.63 1392.33 2952.93 1390.11 2955 1376.78 2942.56 1370.11ZM2729 1374.56C2729 1374.56 2729 1374.56 2729 1374.56 2729 1374.56 2729 1374.56 2729 1374.56Z" fill="#A82D4D" fill-rule="evenodd"/><path d="M2634.17 1145.4C2646.67 1130 2661.25 1123.4 2680 1119 2665.42 1125.6 2659.17 1138.8 2646.67 1147.6 2640.42 1152 2638.33 1149.8 2630 1152" fill="#F1D8DB" fill-rule="evenodd"/><path d="M3037 1132C3024.61 1147.24 3010.16 1155.94 2991.57 1162.47 2968.86 1169 2946.15 1164.65 2923.44 1164.65 2900.72 1162.47 2882.14 1158.12 2861.49 1153.76 2849.1 1149.41 2822.26 1149.41 2814 1138.53 2826.39 1142.88 2840.84 1142.88 2853.23 1147.24 2873.88 1151.59 2894.53 1153.76 2915.18 1155.94 2933.76 1155.94 2952.34 1158.12 2970.93 1153.76 2987.44 1151.59 2999.83 1145.06 3014.29 1138.53" fill="#CE8390" fill-rule="evenodd"/><path d="M3033 1251.4C3039.21 1260.2 3053.69 1266.8 3064.03 1271.2 3078.52 1277.8 3093 1280 3107.48 1280 3115.76 1280 3153 1271.2 3144.72 1255.8 3138.52 1247 3132.31 1251.4 3128.17 1253.6 3119.9 1260.2 3115.76 1266.8 3105.41 1269 3097.14 1271.2 3088.86 1269 3080.59 1266.8" fill="#CE8390" fill-rule="evenodd"/><path d="M2822 1302C2826.14 1314.92 2830.29 1323.54 2844.79 1327.85 2853.07 1330 2873.79 1330 2877.93 1319.23 2880 1314.92 2877.93 1310.62 2873.79 1308.46 2869.64 1308.46 2861.36 1312.77 2859.29 1314.92 2853.07 1314.92 2846.86 1314.92 2840.64 1314.92" fill="#CE8390" fill-rule="evenodd"/><path d="M2692 1343C2718.95 1329.96 2750.04 1343 2779.05 1329.96 2785.27 1327.78 2795.64 1323.43 2799.78 1314.74 2801.85 1310.39 2806 1299.52 2799.78 1297.35 2795.64 1293 2793.56 1299.52 2791.49 1301.7 2787.35 1310.39 2783.2 1314.74 2774.91 1319.09 2766.62 1323.43 2762.47 1325.61 2754.18 1325.61 2739.67 1323.43 2727.24 1327.78 2714.8 1334.3" fill="#CE8390" fill-rule="evenodd"/><path d="M2724.93 1187.56C2741.52 1194.18 2760.19 1196.38 2776.78 1198.59 2797.52 1203 2818.26 1198.59 2839 1198.59 2824.48 1200.8 2791.3 1196.38 2787.15 1178.74 2783 1156.69 2814.11 1154.49 2824.48 1147.87 2824.48 1139.05 2805.81 1136.85 2799.59 1134.64 2783 1128.03 2766.41 1121.41 2749.81 1117 2762.26 1130.23 2778.85 1141.26 2758.11 1156.69 2733.22 1176.54 2700.04 1172.13 2671 1172.13" fill="#CE8390" fill-rule="evenodd"/><path d="M2458 986.471C2468.38 982 2478.76 990.941 2489.14 993.177 2499.52 995.412 2507.82 997.647 2518.2 997.647 2538.95 999.882 2584.62 997.647 2595 1020 2580.47 1013.29 2565.94 1011.06 2551.41 1011.06 2532.73 1011.06 2514.05 1004.35 2495.36 1002.12" fill="#F1D8DB" fill-rule="evenodd"/><path d="M2857 1037.57C2890.25 1037.57 2935.98 1030.93 2963 1011 2935.98 1042 2906.88 1035.36 2871.55 1039.79" fill="#F1D8DB" fill-rule="evenodd"/><path d="M2760.18 1041.21C2774.59 1041.21 2797.24 1047.84 2809.59 1045.63 2817.82 1043.42 2826.06 1041.21 2834.29 1043.42 2840.47 1047.84 2844.59 1056.68 2854.88 1058.89 2867.24 1063.32 2883.71 1058.89 2894 1067.74 2865.18 1081 2834.29 1078.79 2805.47 1072.16 2782.82 1067.74 2758.12 1067.74 2735.47 1063.32 2723.12 1058.89 2692.24 1058.89 2684 1047.84 2698.41 1047.84 2712.82 1050.05 2729.29 1047.84 2739.59 1045.63 2749.88 1039 2760.18 1039" fill="#CE8390" fill-rule="evenodd"/><path d="M2867.59 1407.95C2826.2 1401.32 2784.81 1394.68 2704.1 1396.89 2623.39 1399.11 2553.03 1405.74 2515.78 1412.37 2482.67 1419 2433 1407.95 2433 1370.37 2433 1335 2555.1 1354.89 2631.67 1361.53 2710.31 1368.16 2801.37 1350.47 2851.04 1348.26 2900.71 1346.05 2960.72 1346.05 2966.93 1383.63 2969 1403.53 2942.1 1414.58 2867.59 1407.95Z" stroke="#333333" stroke-width="4.0106" stroke-linecap="round" stroke-linejoin="round" stroke-miterlimit="10" fill="none" fill-rule="evenodd"/><path d="M2388.07 1017.25C2386 1070.1 2423.23 1072.3 2477 1070.1 2528.7 1070.1 2634.18 1081.11 2710.7 1107.54 2787.23 1133.96 2977.5 1178 3045.75 1127.35 3114 1074.51 3097.45 1023.86 3045.75 1006.24 2991.98 986.424 2965.09 1078.91 2878.23 1085.52 2789.3 1092.12 2650.73 1050.28 2565.93 1041.47 2483.2 1032.67 2392.2 960 2388.07 1017.25Z" stroke="#333333" stroke-width="4.0106" stroke-linecap="round" stroke-linejoin="round" stroke-miterlimit="10" fill="none" fill-rule="evenodd"/><path d="M2388.07 1017.25C2386 1070.1 2423.23 1072.3 2477 1070.1 2528.7 1070.1 2634.18 1081.11 2710.7 1107.54 2787.23 1133.96 2977.5 1178 3045.75 1127.35 3114 1074.51 3097.45 1023.86 3045.75 1006.24 2991.98 986.424 2965.09 1078.91 2878.23 1085.52 2789.3 1092.12 2650.73 1050.28 2565.93 1041.47 2483.2 1032.67 2392.2 960 2388.07 1017.25Z" stroke="#333333" stroke-width="4.0106" stroke-linecap="round" stroke-linejoin="round" stroke-miterlimit="10" fill="none" fill-rule="evenodd"/><path d="M2576.13 1197.75C2572 1239.8 2602.98 1253.08 2646.35 1244.23 2689.72 1235.38 2850.8 1242.02 2945.8 1242.02 3040.8 1242.02 3071.78 1273 3106.89 1261.93 3142 1253.08 3139.93 1204.39 3092.43 1188.9 3044.93 1175.62 3001.57 1184.48 2949.93 1188.9 2898.3 1195.54 2807.43 1213.25 2749.61 1197.75 2691.78 1180.05 2582.33 1138 2576.13 1197.75Z" stroke="#333333" stroke-width="4.0106" stroke-linecap="round" stroke-linejoin="round" stroke-miterlimit="10" fill="none" fill-rule="evenodd"/><path d="M2634.19 1306.28C2642.43 1345.8 2679.54 1348 2710.47 1332.63 2741.4 1315.07 2786.75 1337.02 2790.88 1293.11 2795 1247 2739.33 1266.76 2712.53 1268.96 2687.79 1271.15 2628 1264.57 2634.19 1306.28Z" stroke="#333333" stroke-width="4.0106" stroke-linecap="round" stroke-linejoin="round" stroke-miterlimit="10" fill="none" fill-rule="evenodd"/><path d="M2565.74 1042.16C2650.54 1051 2789.12 1093 2878.06 1086.37 2964.93 1079.74 2991.81 986.895 3045.59 1006.79 3049.73 1009 3053.86 1009 3058 1011.21 3045.59 1004.58 3020.77 995.737 3012.5 995.737 2983.54 997.947 2981.47 1000.16 2966.99 1004.58 2795.32 1066.47 2687.77 1024.47 2675.36 1024.47 2660.88 1022.26 2644.34 1020.05 2629.86 1015.63 2611.24 1009 2536.78 989.105 2497.48 984.684 2474.73 982.474 2456.12 967 2433.37 973.632 2418.89 975.842 2396.14 984.684 2392 1002.37 2410.62 973.632 2491.28 1033.32 2565.74 1042.16Z" stroke="#333333" stroke-width="4.0106" stroke-linecap="round" stroke-linejoin="round" stroke-miterlimit="10" fill="none" fill-rule="evenodd"/><path d="M2814 1277.69C2816.06 1262.24 2832.53 1249 2851.06 1251.21 2871.65 1253.41 2884 1268.86 2884 1284.31 2881.94 1301.97 2865.47 1313 2846.94 1310.79 2826.35 1308.59 2814 1293.14 2814 1277.69Z" stroke="#333333" stroke-width="4.0106" stroke-linecap="round" stroke-linejoin="round" stroke-miterlimit="10" fill="none" fill-rule="evenodd"/><path d="M3038.88 1129.77C2966.55 1176.25 2784.71 1131.98 2710.32 1107.64 2704.12 1105.43 2697.92 1103.21 2691.72 1101 2642.13 1116.49 2580.13 1167.39 2576 1193.95 2578.07 1193.95 2578.07 1193.95 2578.07 1193.95 2586.33 1140.84 2691.72 1180.67 2749.58 1198.38 2807.44 1213.87 2898.36 1196.16 2950.02 1189.52 3001.68 1185.1 3045.08 1176.25 3092.61 1189.52 3119.47 1198.38 3131.87 1218.3 3131.87 1236 3136 1205.02 3086.41 1149.69 3038.88 1129.77Z" stroke="#FF0000" stroke-width="4.0106" stroke-linecap="round" stroke-linejoin="round" stroke-miterlimit="10" fill="none" fill-rule="evenodd"/><path d="M3038.88 1129.77C2966.55 1176.25 2784.71 1131.98 2710.32 1107.64 2704.12 1105.43 2697.92 1103.21 2691.72 1101 2642.13 1116.49 2580.13 1167.39 2576 1193.95 2578.07 1193.95 2578.07 1193.95 2578.07 1193.95 2586.33 1140.84 2691.72 1180.67 2749.58 1198.38 2807.44 1213.87 2898.36 1196.16 2950.02 1189.52 3001.68 1185.1 3045.08 1176.25 3092.61 1189.52 3119.47 1198.38 3131.87 1218.3 3131.87 1236 3136 1205.02 3086.41 1149.69 3038.88 1129.77Z" stroke="#333333" stroke-width="4.0106" stroke-linecap="round" stroke-linejoin="round" stroke-miterlimit="10" fill="none" fill-rule="evenodd"/><path d="M2750.27 1240C2719.15 1240 2692.18 1240 2671.43 1242.19 2634.07 1257.48 2634.07 1277.15 2634.07 1299 2634.07 1299 2634.07 1299 2634.07 1299 2632 1266.22 2688.02 1270.59 2712.93 1268.41 2739.9 1266.22 2795.93 1246.56 2791.78 1292.44 2798 1270.59 2779.32 1250.93 2750.27 1240Z" stroke="#333333" stroke-width="4.0106" stroke-linecap="round" stroke-linejoin="round" stroke-miterlimit="10" fill="none" fill-rule="evenodd"/><path d="M2896.27 1289.02C2888 1326.57 2914.89 1324.36 2952.13 1315.52 2989.37 1306.69 3018.33 1302.27 3082.47 1319.94 3146.6 1337.61 3276.94 1384 3307.97 1346.45 3339 1308.9 3272.8 1291.22 3241.77 1291.22 3210.73 1291.22 3154.88 1295.64 3117.64 1291.22 3080.4 1286.81 2904.55 1236 2896.27 1289.02Z" stroke="#333333" stroke-width="4.0106" stroke-linecap="round" stroke-linejoin="round" stroke-miterlimit="10" fill="none" fill-rule="evenodd"/><path d="M3107.53 1262.46C3074.51 1273.49 3043.55 1242.62 2954.79 1242.62 2923.83 1249.23 2899.06 1264.67 2897 1288.92 2905.26 1236 3080.7 1286.72 3117.85 1291.13 3155.01 1295.54 3210.73 1291.13 3241.69 1291.13 3264.4 1291.13 3307.74 1299.95 3313.94 1322 3316 1322 3316 1322 3316 1322 3309.81 1299.95 3262.34 1247.03 3208.67 1247.03 3177.71 1247.03 3152.94 1247.03 3128.17 1244.82 3126.11 1253.64 3117.85 1260.26 3107.53 1262.46Z" stroke="#333333" stroke-width="4.0106" stroke-linecap="round" stroke-linejoin="round" stroke-miterlimit="10" fill="none" fill-rule="evenodd"/><path d="M2632.22 1361.8C2710.73 1368.46 2801.64 1350.71 2851.23 1348.49 2900.82 1346.27 2960.74 1346.27 2966.93 1384 2969 1359.59 2917.35 1324.07 2871.89 1304.1 2863.63 1308.54 2855.36 1310.76 2847.1 1310.76 2832.63 1308.54 2822.3 1301.88 2818.17 1293 2809.91 1293 2801.64 1293 2791.31 1293 2785.11 1337.39 2741.72 1317.41 2710.73 1332.95 2683.87 1346.27 2652.88 1346.27 2640.48 1319.63 2628.09 1321.85 2615.69 1321.85 2605.36 1324.07 2576.43 1326.29 2537.17 1326.29 2508.25 1328.51 2481.39 1330.73 2450.4 1346.27 2438 1361.8 2460.73 1339.61 2564.03 1355.15 2632.22 1361.8Z" stroke="#333333" stroke-width="4.0106" stroke-linecap="round" stroke-linejoin="round" stroke-miterlimit="10" fill="none" fill-rule="evenodd"/><path d="M2897 1062.5C2897 1056.7 2901.03 1052 2906 1052 2910.97 1052 2915 1056.7 2915 1062.5 2915 1068.3 2910.97 1073 2906 1073 2901.03 1073 2897 1068.3 2897 1062.5Z" fill="#460061" fill-rule="evenodd"/><path d="M2863 1069C2863 1063.48 2867.25 1059 2872.5 1059 2877.75 1059 2882 1063.48 2882 1069 2882 1074.52 2877.75 1079 2872.5 1079 2867.25 1079 2863 1074.52 2863 1069Z" fill="#460061" fill-rule="evenodd"/><path d="M2826 1068C2826 1063.03 2830.25 1059 2835.5 1059 2840.75 1059 2845 1063.03 2845 1068 2845 1072.97 2840.75 1077 2835.5 1077 2830.25 1077 2826 1072.97 2826 1068Z" fill="#460061" fill-rule="evenodd"/><path d="M2787 1066C2787 1061.03 2791.25 1057 2796.5 1057 2801.75 1057 2806 1061.03 2806 1066 2806 1070.97 2801.75 1075 2796.5 1075 2791.25 1075 2787 1070.97 2787 1066Z" fill="#460061" fill-rule="evenodd"/><path d="M2748 1061C2748 1056.03 2752.03 1052 2757 1052 2761.97 1052 2766 1056.03 2766 1061 2766 1065.97 2761.97 1070 2757 1070 2752.03 1070 2748 1065.97 2748 1061Z" fill="#460061" fill-rule="evenodd"/><path d="M2702 1052C2702 1046.48 2706.25 1042 2711.5 1042 2716.75 1042 2721 1046.48 2721 1052 2721 1057.52 2716.75 1062 2711.5 1062 2706.25 1062 2702 1057.52 2702 1052Z" fill="#460061" fill-rule="evenodd"/><path d="M2657 1046C2657 1041.03 2661.25 1037 2666.5 1037 2671.75 1037 2676 1041.03 2676 1046 2676 1050.97 2671.75 1055 2666.5 1055 2661.25 1055 2657 1050.97 2657 1046Z" fill="#460061" fill-rule="evenodd"/><path d="M2615 1035C2615 1030.03 2619.25 1026 2624.5 1026 2629.75 1026 2634 1030.03 2634 1035 2634 1039.97 2629.75 1044 2624.5 1044 2619.25 1044 2615 1039.97 2615 1035Z" fill="#460061" fill-rule="evenodd"/><path d="M2578 1030.5C2578 1025.81 2582.03 1022 2587 1022 2591.97 1022 2596 1025.81 2596 1030.5 2596 1035.19 2591.97 1039 2587 1039 2582.03 1039 2578 1035.19 2578 1030.5Z" fill="#460061" fill-rule="evenodd"/><path d="M2533 1022C2533 1017.03 2537.03 1013 2542 1013 2546.97 1013 2551 1017.03 2551 1022 2551 1026.97 2546.97 1031 2542 1031 2537.03 1031 2533 1026.97 2533 1022Z" fill="#460061" fill-rule="evenodd"/><path d="M2493 1009C2493 1004.03 2496.81 1000 2501.5 1000 2506.19 1000 2510 1004.03 2510 1009 2510 1013.97 2506.19 1018 2501.5 1018 2496.81 1018 2493 1013.97 2493 1009Z" fill="#460061" fill-rule="evenodd"/><path d="M2443 993C2443 988.03 2446.81 984 2451.5 984 2456.19 984 2460 988.03 2460 993 2460 997.971 2456.19 1002 2451.5 1002 2446.81 1002 2443 997.971 2443 993Z" fill="#460061" fill-rule="evenodd"/><path d="M2402 984.5C2402 979.805 2405.81 976 2410.5 976 2415.19 976 2419 979.805 2419 984.5 2419 989.194 2415.19 993 2410.5 993 2405.81 993 2402 989.194 2402 984.5Z" fill="#460061" fill-rule="evenodd"/><path d="M2566 1169.5C2566 1164.81 2569.58 1161 2574 1161 2578.42 1161 2582 1164.81 2582 1169.5 2582 1174.19 2578.42 1178 2574 1178 2569.58 1178 2566 1174.19 2566 1169.5Z" fill="#460061" fill-rule="evenodd"/><path d="M2592 1159.5C2592 1154.25 2595.81 1150 2600.5 1150 2605.19 1150 2609 1154.25 2609 1159.5 2609 1164.75 2605.19 1169 2600.5 1169 2595.81 1169 2592 1164.75 2592 1159.5Z" fill="#460061" fill-rule="evenodd"/><path d="M2628 1159.5C2628 1154.25 2631.58 1150 2636 1150 2640.42 1150 2644 1154.25 2644 1159.5 2644 1164.75 2640.42 1169 2636 1169 2631.58 1169 2628 1164.75 2628 1159.5Z" fill="#460061" fill-rule="evenodd"/><path d="M2663 1162C2663 1156.48 2667.03 1152 2672 1152 2676.97 1152 2681 1156.48 2681 1162 2681 1167.52 2676.97 1172 2672 1172 2667.03 1172 2663 1167.52 2663 1162Z" fill="#460061" fill-rule="evenodd"/><path d="M2696 1169.5C2696 1164.81 2700.03 1161 2705 1161 2709.97 1161 2714 1164.81 2714 1169.5 2714 1174.19 2709.97 1178 2705 1178 2700.03 1178 2696 1174.19 2696 1169.5Z" fill="#460061" fill-rule="evenodd"/><path d="M2733 1179C2733 1173.48 2737.25 1169 2742.5 1169 2747.75 1169 2752 1173.48 2752 1179 2752 1184.52 2747.75 1189 2742.5 1189 2737.25 1189 2733 1184.52 2733 1179Z" fill="#460061" fill-rule="evenodd"/><path d="M2766 1190.5C2766 1185.25 2770.25 1181 2775.5 1181 2780.75 1181 2785 1185.25 2785 1190.5 2785 1195.75 2780.75 1200 2775.5 1200 2770.25 1200 2766 1195.75 2766 1190.5Z" fill="#460061" fill-rule="evenodd"/><path d="M2802 1193C2802 1187.48 2805.58 1183 2810 1183 2814.42 1183 2818 1187.48 2818 1193 2818 1198.52 2814.42 1203 2810 1203 2805.58 1203 2802 1198.52 2802 1193Z" fill="#460061" fill-rule="evenodd"/><path d="M2843 1191.5C2843 1186.81 2846.58 1183 2851 1183 2855.42 1183 2859 1186.81 2859 1191.5 2859 1196.19 2855.42 1200 2851 1200 2846.58 1200 2843 1196.19 2843 1191.5Z" fill="#460061" fill-rule="evenodd"/><path d="M2886 1186C2886 1180.48 2890.25 1176 2895.5 1176 2900.75 1176 2905 1180.48 2905 1186 2905 1191.52 2900.75 1196 2895.5 1196 2890.25 1196 2886 1191.52 2886 1186Z" fill="#460061" fill-rule="evenodd"/><path d="M2925 1178C2925 1173.03 2928.81 1169 2933.5 1169 2938.19 1169 2942 1173.03 2942 1178 2942 1182.97 2938.19 1187 2933.5 1187 2928.81 1187 2925 1182.97 2925 1178Z" fill="#460061" fill-rule="evenodd"/><path d="M2961 1174C2961 1169.03 2965.03 1165 2970 1165 2974.97 1165 2979 1169.03 2979 1174 2979 1178.97 2974.97 1183 2970 1183 2965.03 1183 2961 1178.97 2961 1174Z" fill="#460061" fill-rule="evenodd"/><path d="M3000 1168C3000 1162.48 3003.58 1158 3008 1158 3012.42 1158 3016 1162.48 3016 1168 3016 1173.52 3012.42 1178 3008 1178 3003.58 1178 3000 1173.52 3000 1168Z" fill="#460061" fill-rule="evenodd"/><path d="M3039 1169.5C3039 1164.81 3042.81 1161 3047.5 1161 3052.19 1161 3056 1164.81 3056 1169.5 3056 1174.19 3052.19 1178 3047.5 1178 3042.81 1178 3039 1174.19 3039 1169.5Z" fill="#460061" fill-rule="evenodd"/><path d="M3074 1175C3074 1169.48 3077.81 1165 3082.5 1165 3087.19 1165 3091 1169.48 3091 1175 3091 1180.52 3087.19 1185 3082.5 1185 3077.81 1185 3074 1180.52 3074 1175Z" fill="#460061" fill-rule="evenodd"/><path d="M3103 1187C3103 1182.03 3106.81 1178 3111.5 1178 3116.19 1178 3120 1182.03 3120 1187 3120 1191.97 3116.19 1196 3111.5 1196 3106.81 1196 3103 1191.97 3103 1187Z" fill="#460061" fill-rule="evenodd"/><path d="M3126 1209C3126 1204.03 3130.25 1200 3135.5 1200 3140.75 1200 3145 1204.03 3145 1209 3145 1213.97 3140.75 1218 3135.5 1218 3130.25 1218 3126 1213.97 3126 1209Z" fill="#460061" fill-rule="evenodd"/><path d="M3134 1241C3134 1235.48 3138.25 1231 3143.5 1231 3148.75 1231 3153 1235.48 3153 1241 3153 1246.52 3148.75 1251 3143.5 1251 3138.25 1251 3134 1246.52 3134 1241Z" fill="#460061" fill-rule="evenodd"/><path d="M3122 1263.5C3122 1258.25 3125.58 1254 3130 1254 3134.42 1254 3138 1258.25 3138 1263.5 3138 1268.75 3134.42 1273 3130 1273 3125.58 1273 3122 1268.75 3122 1263.5Z" fill="#460061" fill-rule="evenodd"/><path d="M3093 1274C3093 1268.48 3096.58 1264 3101 1264 3105.42 1264 3109 1268.48 3109 1274 3109 1279.52 3105.42 1284 3101 1284 3096.58 1284 3093 1279.52 3093 1274Z" fill="#460061" fill-rule="evenodd"/><path d="M3047 1266.5C3047 1261.81 3051.25 1258 3056.5 1258 3061.75 1258 3066 1261.81 3066 1266.5 3066 1271.19 3061.75 1275 3056.5 1275 3051.25 1275 3047 1271.19 3047 1266.5Z" fill="#460061" fill-rule="evenodd"/><path d="M3008 1258C3008 1253.03 3011.81 1249 3016.5 1249 3021.19 1249 3025 1253.03 3025 1258 3025 1262.97 3021.19 1267 3016.5 1267 3011.81 1267 3008 1262.97 3008 1258Z" fill="#460061" fill-rule="evenodd"/><path d="M2977 1253C2977 1248.03 2980.58 1244 2985 1244 2989.42 1244 2993 1248.03 2993 1253 2993 1257.97 2989.42 1262 2985 1262 2980.58 1262 2977 1257.97 2977 1253Z" fill="#460061" fill-rule="evenodd"/><path d="M2944 1250C2944 1244.48 2948.25 1240 2953.5 1240 2958.75 1240 2963 1244.48 2963 1250 2963 1255.52 2958.75 1260 2953.5 1260 2948.25 1260 2944 1255.52 2944 1250Z" fill="#460061" fill-rule="evenodd"/><path d="M2907 1252C2907 1246.48 2910.81 1242 2915.5 1242 2920.19 1242 2924 1246.48 2924 1252 2924 1257.52 2920.19 1262 2915.5 1262 2910.81 1262 2907 1257.52 2907 1252Z" fill="#460061" fill-rule="evenodd"/><path d="M2874 1249C2874 1244.03 2877.58 1240 2882 1240 2886.42 1240 2890 1244.03 2890 1249 2890 1253.97 2886.42 1258 2882 1258 2877.58 1258 2874 1253.97 2874 1249Z" fill="#460061" fill-rule="evenodd"/><path d="M2793 1250C2793 1244.48 2796.81 1240 2801.5 1240 2806.19 1240 2810 1244.48 2810 1250 2810 1255.52 2806.19 1260 2801.5 1260 2796.81 1260 2793 1255.52 2793 1250Z" fill="#460061" fill-rule="evenodd"/><path d="M2559 1209C2559 1204.03 2562.81 1200 2567.5 1200 2572.19 1200 2576 1204.03 2576 1209 2576 1213.97 2572.19 1218 2567.5 1218 2562.81 1218 2559 1213.97 2559 1209Z" fill="#460061" fill-rule="evenodd"/><path d="M2570 1239C2570 1233.48 2573.58 1229 2578 1229 2582.42 1229 2586 1233.48 2586 1239 2586 1244.52 2582.42 1249 2578 1249 2573.58 1249 2570 1244.52 2570 1239Z" fill="#460061" fill-rule="evenodd"/><path d="M2605 1253C2605 1248.03 2609.03 1244 2614 1244 2618.97 1244 2623 1248.03 2623 1253 2623 1257.97 2618.97 1262 2614 1262 2609.03 1262 2605 1257.97 2605 1253Z" fill="#460061" fill-rule="evenodd"/><path d="M2646 1254C2646 1248.48 2649.81 1244 2654.5 1244 2659.19 1244 2663 1248.48 2663 1254 2663 1259.52 2659.19 1264 2654.5 1264 2649.81 1264 2646 1259.52 2646 1254Z" fill="#460061" fill-rule="evenodd"/><path d="M2684 1252C2684 1246.48 2688.03 1242 2693 1242 2697.97 1242 2702 1246.48 2702 1252 2702 1257.52 2697.97 1262 2693 1262 2688.03 1262 2684 1257.52 2684 1252Z" fill="#460061" fill-rule="evenodd"/><path d="M2729 1252C2729 1246.48 2732.58 1242 2737 1242 2741.42 1242 2745 1246.48 2745 1252 2745 1257.52 2741.42 1262 2737 1262 2732.58 1262 2729 1257.52 2729 1252Z" fill="#460061" fill-rule="evenodd"/><path d="M2758 1250C2758 1244.48 2762.03 1240 2767 1240 2771.97 1240 2776 1244.48 2776 1250 2776 1255.52 2771.97 1260 2767 1260 2762.03 1260 2758 1255.52 2758 1250Z" fill="#460061" fill-rule="evenodd"/><path d="M2791 1271C2791 1266.03 2794.81 1262 2799.5 1262 2804.19 1262 2808 1266.03 2808 1271 2808 1275.97 2804.19 1280 2799.5 1280 2794.81 1280 2791 1275.97 2791 1271Z" fill="#460061" fill-rule="evenodd"/><path d="M2791 1297C2791 1292.03 2795.25 1288 2800.5 1288 2805.75 1288 2810 1292.03 2810 1297 2810 1301.97 2805.75 1306 2800.5 1306 2795.25 1306 2791 1301.97 2791 1297Z" fill="#460061" fill-rule="evenodd"/><path d="M2781 1323C2781 1317.48 2784.81 1313 2789.5 1313 2794.19 1313 2798 1317.48 2798 1323 2798 1328.52 2794.19 1333 2789.5 1333 2784.81 1333 2781 1328.52 2781 1323Z" fill="#460061" fill-rule="evenodd"/><path d="M2748 1332C2748 1326.48 2751.58 1322 2756 1322 2760.42 1322 2764 1326.48 2764 1332 2764 1337.52 2760.42 1342 2756 1342 2751.58 1342 2748 1337.52 2748 1332Z" fill="#460061" fill-rule="evenodd"/><path d="M2708 1337C2708 1332.03 2711.81 1328 2716.5 1328 2721.19 1328 2725 1332.03 2725 1337 2725 1341.97 2721.19 1346 2716.5 1346 2711.81 1346 2708 1341.97 2708 1337Z" fill="#460061" fill-rule="evenodd"/><path d="M2676 1350.5C2676 1345.81 2680.03 1342 2685 1342 2689.97 1342 2694 1345.81 2694 1350.5 2694 1355.19 2689.97 1359 2685 1359 2680.03 1359 2676 1355.19 2676 1350.5Z" fill="#460061" fill-rule="evenodd"/><path d="M2605 1346C2605 1341.03 2609.03 1337 2614 1337 2618.97 1337 2623 1341.03 2623 1346 2623 1350.97 2618.97 1355 2614 1355 2609.03 1355 2605 1350.97 2605 1346Z" fill="#460061" fill-rule="evenodd"/><path d="M2568 1341.5C2568 1336.81 2572.03 1333 2577 1333 2581.97 1333 2586 1336.81 2586 1341.5 2586 1346.19 2581.97 1350 2577 1350 2572.03 1350 2568 1346.19 2568 1341.5Z" fill="#460061" fill-rule="evenodd"/><path d="M2527 1338C2527 1332.48 2531.03 1328 2536 1328 2540.97 1328 2545 1332.48 2545 1338 2545 1343.52 2540.97 1348 2536 1348 2531.03 1348 2527 1343.52 2527 1338Z" fill="#460061" fill-rule="evenodd"/><path d="M2485 1336C2485 1330.48 2489.25 1326 2494.5 1326 2499.75 1326 2504 1330.48 2504 1336 2504 1341.52 2499.75 1346 2494.5 1346 2489.25 1346 2485 1341.52 2485 1336Z" fill="#460061" fill-rule="evenodd"/><path d="M2443 1337C2443 1332.03 2446.81 1328 2451.5 1328 2456.19 1328 2460 1332.03 2460 1337 2460 1341.97 2456.19 1346 2451.5 1346 2446.81 1346 2443 1341.97 2443 1337Z" fill="#460061" fill-rule="evenodd"/><path d="M2419 1351.5C2419 1346.25 2422.58 1342 2427 1342 2431.42 1342 2435 1346.25 2435 1351.5 2435 1356.75 2431.42 1361 2427 1361 2422.58 1361 2419 1356.75 2419 1351.5Z" fill="#460061" fill-rule="evenodd"/><path d="M2415 1381C2415 1376.03 2418.58 1372 2423 1372 2427.42 1372 2431 1376.03 2431 1381 2431 1385.97 2427.42 1390 2423 1390 2418.58 1390 2415 1385.97 2415 1381Z" fill="#460061" fill-rule="evenodd"/><path d="M2431 1409C2431 1403.48 2435.25 1399 2440.5 1399 2445.75 1399 2450 1403.48 2450 1409 2450 1414.52 2445.75 1419 2440.5 1419 2435.25 1419 2431 1414.52 2431 1409Z" fill="#460061" fill-rule="evenodd"/><path d="M2462 1420.5C2462 1415.81 2465.81 1412 2470.5 1412 2475.19 1412 2479 1415.81 2479 1420.5 2479 1425.19 2475.19 1429 2470.5 1429 2465.81 1429 2462 1425.19 2462 1420.5Z" fill="#460061" fill-rule="evenodd"/><path d="M2506 1425C2506 1420.03 2510.03 1416 2515 1416 2519.97 1416 2524 1420.03 2524 1425 2524 1429.97 2519.97 1434 2515 1434 2510.03 1434 2506 1429.97 2506 1425Z" fill="#460061" fill-rule="evenodd"/><path d="M2551 1418C2551 1412.48 2555.25 1408 2560.5 1408 2565.75 1408 2570 1412.48 2570 1418 2570 1423.52 2565.75 1428 2560.5 1428 2555.25 1428 2551 1423.52 2551 1418Z" fill="#460061" fill-rule="evenodd"/><path d="M2591 1415C2591 1409.48 2594.58 1405 2599 1405 2603.42 1405 2607 1409.48 2607 1415 2607 1420.52 2603.42 1425 2599 1425 2594.58 1425 2591 1420.52 2591 1415Z" fill="#460061" fill-rule="evenodd"/><path d="M2626 1411C2626 1405.48 2629.58 1401 2634 1401 2638.42 1401 2642 1405.48 2642 1411 2642 1416.52 2638.42 1421 2634 1421 2629.58 1421 2626 1416.52 2626 1411Z" fill="#460061" fill-rule="evenodd"/><path d="M2667 1409C2667 1403.48 2671.25 1399 2676.5 1399 2681.75 1399 2686 1403.48 2686 1409 2686 1414.52 2681.75 1419 2676.5 1419 2671.25 1419 2667 1414.52 2667 1409Z" fill="#460061" fill-rule="evenodd"/><path d="M2710 1409C2710 1403.48 2713.81 1399 2718.5 1399 2723.19 1399 2727 1403.48 2727 1409 2727 1414.52 2723.19 1419 2718.5 1419 2713.81 1419 2710 1414.52 2710 1409Z" fill="#460061" fill-rule="evenodd"/><path d="M2752 1409C2752 1403.48 2755.58 1399 2760 1399 2764.42 1399 2768 1403.48 2768 1409 2768 1414.52 2764.42 1419 2760 1419 2755.58 1419 2752 1414.52 2752 1409Z" fill="#460061" fill-rule="evenodd"/><path d="M2793 1412C2793 1407.03 2796.81 1403 2801.5 1403 2806.19 1403 2810 1407.03 2810 1412 2810 1416.97 2806.19 1421 2801.5 1421 2796.81 1421 2793 1416.97 2793 1412Z" fill="#460061" fill-rule="evenodd"/><path d="M2824 1415C2824 1409.48 2828.25 1405 2833.5 1405 2838.75 1405 2843 1409.48 2843 1415 2843 1420.52 2838.75 1425 2833.5 1425 2828.25 1425 2824 1420.52 2824 1415Z" fill="#460061" fill-rule="evenodd"/><path d="M2870 1420.5C2870 1415.81 2873.58 1412 2878 1412 2882.42 1412 2886 1415.81 2886 1420.5 2886 1425.19 2882.42 1429 2878 1429 2873.58 1429 2870 1425.19 2870 1420.5Z" fill="#460061" fill-rule="evenodd"/><path d="M2915 1420.5C2915 1415.81 2918.81 1412 2923.5 1412 2928.19 1412 2932 1415.81 2932 1420.5 2932 1425.19 2928.19 1429 2923.5 1429 2918.81 1429 2915 1425.19 2915 1420.5Z" fill="#460061" fill-rule="evenodd"/><path d="M2956 1409C2956 1403.48 2960.25 1399 2965.5 1399 2970.75 1399 2975 1403.48 2975 1409 2975 1414.52 2970.75 1419 2965.5 1419 2960.25 1419 2956 1414.52 2956 1409Z" fill="#460061" fill-rule="evenodd"/><path d="M2969 1374C2969 1368.48 2972.58 1364 2977 1364 2981.42 1364 2985 1368.48 2985 1374 2985 1379.52 2981.42 1384 2977 1384 2972.58 1384 2969 1379.52 2969 1374Z" fill="#460061" fill-rule="evenodd"/><path d="M2948 1347C2948 1341.48 2952.25 1337 2957.5 1337 2962.75 1337 2967 1341.48 2967 1347 2967 1352.52 2962.75 1357 2957.5 1357 2952.25 1357 2948 1352.52 2948 1347Z" fill="#460061" fill-rule="evenodd"/><path d="M2771 1345C2771 1339.48 2774.58 1335 2779 1335 2783.42 1335 2787 1339.48 2787 1345 2787 1350.52 2783.42 1355 2779 1355 2774.58 1355 2771 1350.52 2771 1345Z" fill="#460061" fill-rule="evenodd"/><path d="M2808 1336C2808 1330.48 2811.58 1326 2816 1326 2820.42 1326 2824 1330.48 2824 1336 2824 1341.52 2820.42 1346 2816 1346 2811.58 1346 2808 1341.52 2808 1336Z" fill="#460061" fill-rule="evenodd"/><path d="M2861 1333.5C2861 1328.25 2864.81 1324 2869.5 1324 2874.19 1324 2878 1328.25 2878 1333.5 2878 1338.75 2874.19 1343 2869.5 1343 2864.81 1343 2861 1338.75 2861 1333.5Z" fill="#460061" fill-rule="evenodd"/><path d="M2731 1349C2731 1343.48 2734.81 1339 2739.5 1339 2744.19 1339 2748 1343.48 2748 1349 2748 1354.52 2744.19 1359 2739.5 1359 2734.81 1359 2731 1354.52 2731 1349Z" fill="#460061" fill-rule="evenodd"/><path d="M2646 1345C2646 1339.48 2649.81 1335 2654.5 1335 2659.19 1335 2663 1339.48 2663 1345 2663 1350.52 2659.19 1355 2654.5 1355 2649.81 1355 2646 1350.52 2646 1345Z" fill="#460061" fill-rule="evenodd"/><path d="M2622 1320.5C2622 1315.25 2626.03 1311 2631 1311 2635.97 1311 2640 1315.25 2640 1320.5 2640 1325.75 2635.97 1330 2631 1330 2626.03 1330 2622 1325.75 2622 1320.5Z" fill="#460061" fill-rule="evenodd"/><path d="M2618 1289C2618 1284.03 2622.03 1280 2627 1280 2631.97 1280 2636 1284.03 2636 1289 2636 1293.97 2631.97 1298 2627 1298 2622.03 1298 2618 1293.97 2618 1289Z" fill="#460061" fill-rule="evenodd"/><path d="M2816 1315C2816 1310.03 2820.03 1306 2825 1306 2829.97 1306 2834 1310.03 2834 1315 2834 1319.97 2829.97 1324 2825 1324 2820.03 1324 2816 1319.97 2816 1315Z" fill="#460061" fill-rule="evenodd"/><path d="M2845 1318.5C2845 1313.25 2848.58 1309 2853 1309 2857.42 1309 2861 1313.25 2861 1318.5 2861 1323.75 2857.42 1328 2853 1328 2848.58 1328 2845 1323.75 2845 1318.5Z" fill="#460061" fill-rule="evenodd"/><path d="M2870 1312C2870 1306.48 2874.03 1302 2879 1302 2883.97 1302 2888 1306.48 2888 1312 2888 1317.52 2883.97 1322 2879 1322 2874.03 1322 2870 1317.52 2870 1312Z" fill="#460061" fill-rule="evenodd"/><path d="M2882 1274C2882 1268.48 2885.58 1264 2890 1264 2894.42 1264 2898 1268.48 2898 1274 2898 1279.52 2894.42 1284 2890 1284 2885.58 1284 2882 1279.52 2882 1274Z" fill="#460061" fill-rule="evenodd"/><path d="M2826 1245.5C2826 1240.25 2829.81 1236 2834.5 1236 2839.19 1236 2843 1240.25 2843 1245.5 2843 1250.75 2839.19 1255 2834.5 1255 2829.81 1255 2826 1250.75 2826 1245.5Z" fill="#460061" fill-rule="evenodd"/><path d="M2894 1327C2894 1321.48 2897.81 1317 2902.5 1317 2907.19 1317 2911 1321.48 2911 1327 2911 1332.52 2907.19 1337 2902.5 1337 2897.81 1337 2894 1332.52 2894 1327Z" fill="#460061" fill-rule="evenodd"/><path d="M2928 1328C2928 1323.03 2931.58 1319 2936 1319 2940.42 1319 2944 1323.03 2944 1328 2944 1332.97 2940.42 1337 2936 1337 2931.58 1337 2928 1332.97 2928 1328Z" fill="#460061" fill-rule="evenodd"/><path d="M2961 1319.5C2961 1314.81 2965.03 1311 2970 1311 2974.97 1311 2979 1314.81 2979 1319.5 2979 1324.19 2974.97 1328 2970 1328 2965.03 1328 2961 1324.19 2961 1319.5Z" fill="#460061" fill-rule="evenodd"/><path d="M2989 1318.5C2989 1313.25 2992.81 1309 2997.5 1309 3002.19 1309 3006 1313.25 3006 1318.5 3006 1323.75 3002.19 1328 2997.5 1328 2992.81 1328 2989 1323.75 2989 1318.5Z" fill="#460061" fill-rule="evenodd"/><path d="M3020 1320.5C3020 1315.25 3023.81 1311 3028.5 1311 3033.19 1311 3037 1315.25 3037 1320.5 3037 1325.75 3033.19 1330 3028.5 1330 3023.81 1330 3020 1325.75 3020 1320.5Z" fill="#460061" fill-rule="evenodd"/><path d="M3050 1324C3050 1319.03 3053.58 1315 3058 1315 3062.42 1315 3066 1319.03 3066 1324 3066 1328.97 3062.42 1333 3058 1333 3053.58 1333 3050 1328.97 3050 1324Z" fill="#460061" fill-rule="evenodd"/><path d="M3213 1368C3213 1363.03 3217.03 1359 3222 1359 3226.97 1359 3231 1363.03 3231 1368 3231 1372.97 3226.97 1377 3222 1377 3217.03 1377 3213 1372.97 3213 1368Z" fill="#460061" fill-rule="evenodd"/><path d="M3254 1372.5C3254 1367.81 3257.81 1364 3262.5 1364 3267.19 1364 3271 1367.81 3271 1372.5 3271 1377.19 3267.19 1381 3262.5 1381 3257.81 1381 3254 1377.19 3254 1372.5Z" fill="#460061" fill-rule="evenodd"/><path d="M3289 1368C3289 1363.03 3292.81 1359 3297.5 1359 3302.19 1359 3306 1363.03 3306 1368 3306 1372.97 3302.19 1377 3297.5 1377 3292.81 1377 3289 1372.97 3289 1368Z" fill="#460061" fill-rule="evenodd"/><path d="M3312 1349C3312 1343.48 3315.81 1339 3320.5 1339 3325.19 1339 3329 1343.48 3329 1349 3329 1354.52 3325.19 1359 3320.5 1359 3315.81 1359 3312 1354.52 3312 1349Z" fill="#460061" fill-rule="evenodd"/><path d="M3316 1319.5C3316 1314.81 3320.25 1311 3325.5 1311 3330.75 1311 3335 1314.81 3335 1319.5 3335 1324.19 3330.75 1328 3325.5 1328 3320.25 1328 3316 1324.19 3316 1319.5Z" fill="#460061" fill-rule="evenodd"/><path d="M3295 1289.5C3295 1284.25 3298.81 1280 3303.5 1280 3308.19 1280 3312 1284.25 3312 1289.5 3312 1294.75 3308.19 1299 3303.5 1299 3298.81 1299 3295 1294.75 3295 1289.5Z" fill="#460061" fill-rule="evenodd"/><path d="M3260 1278.5C3260 1273.25 3263.81 1269 3268.5 1269 3273.19 1269 3277 1273.25 3277 1278.5 3277 1283.75 3273.19 1288 3268.5 1288 3263.81 1288 3260 1283.75 3260 1278.5Z" fill="#460061" fill-rule="evenodd"/><path d="M3223 1275.5C3223 1270.81 3226.81 1267 3231.5 1267 3236.19 1267 3240 1270.81 3240 1275.5 3240 1280.19 3236.19 1284 3231.5 1284 3226.81 1284 3223 1280.19 3223 1275.5Z" fill="#460061" fill-rule="evenodd"/><path d="M3190 1276.5C3190 1271.25 3193.81 1267 3198.5 1267 3203.19 1267 3207 1271.25 3207 1276.5 3207 1281.75 3203.19 1286 3198.5 1286 3193.81 1286 3190 1281.75 3190 1276.5Z" fill="#460061" fill-rule="evenodd"/><path d="M3149 1276.5C3149 1271.25 3152.58 1267 3157 1267 3161.42 1267 3165 1271.25 3165 1276.5 3165 1281.75 3161.42 1286 3157 1286 3152.58 1286 3149 1281.75 3149 1276.5Z" fill="#460061" fill-rule="evenodd"/><path d="M3085 1333.5C3085 1328.25 3088.58 1324 3093 1324 3097.42 1324 3101 1328.25 3101 1333.5 3101 1338.75 3097.42 1343 3093 1343 3088.58 1343 3085 1338.75 3085 1333.5Z" fill="#460061" fill-rule="evenodd"/><path d="M3120 1343C3120 1337.48 3123.58 1333 3128 1333 3132.42 1333 3136 1337.48 3136 1343 3136 1348.52 3132.42 1353 3128 1353 3123.58 1353 3120 1348.52 3120 1343Z" fill="#460061" fill-rule="evenodd"/><path d="M3146 1353.5C3146 1347.7 3150.25 1343 3155.5 1343 3160.75 1343 3165 1347.7 3165 1353.5 3165 1359.3 3160.75 1364 3155.5 1364 3150.25 1364 3146 1359.3 3146 1353.5Z" fill="#460061" fill-rule="evenodd"/><path d="M3178 1359C3178 1354.03 3181.58 1350 3186 1350 3190.42 1350 3194 1354.03 3194 1359 3194 1363.97 3190.42 1368 3186 1368 3181.58 1368 3178 1363.97 3178 1359Z" fill="#460061" fill-rule="evenodd"/><path d="M2367 1004C2367 999.03 2371.25 995 2376.5 995 2381.75 995 2386 999.03 2386 1004 2386 1008.97 2381.75 1013 2376.5 1013 2371.25 1013 2367 1008.97 2367 1004Z" fill="#460061" fill-rule="evenodd"/><path d="M2367 1042C2367 1037.03 2371.25 1033 2376.5 1033 2381.75 1033 2386 1037.03 2386 1042 2386 1046.97 2381.75 1051 2376.5 1051 2371.25 1051 2367 1046.97 2367 1042Z" fill="#460061" fill-rule="evenodd"/><path d="M2388 1071.5C2388 1066.25 2392.03 1062 2397 1062 2401.97 1062 2406 1066.25 2406 1071.5 2406 1076.75 2401.97 1081 2397 1081 2392.03 1081 2388 1076.75 2388 1071.5Z" fill="#460061" fill-rule="evenodd"/><path d="M2417 1080C2417 1074.48 2420.58 1070 2425 1070 2429.42 1070 2433 1074.48 2433 1080 2433 1085.52 2429.42 1090 2425 1090 2420.58 1090 2417 1085.52 2417 1080Z" fill="#460061" fill-rule="evenodd"/><path d="M2450 1086C2450 1081.03 2453.58 1077 2458 1077 2462.42 1077 2466 1081.03 2466 1086 2466 1090.97 2462.42 1095 2458 1095 2453.58 1095 2450 1090.97 2450 1086Z" fill="#460061" fill-rule="evenodd"/><path d="M2483 1086C2483 1081.03 2487.03 1077 2492 1077 2496.97 1077 2501 1081.03 2501 1086 2501 1090.97 2496.97 1095 2492 1095 2487.03 1095 2483 1090.97 2483 1086Z" fill="#460061" fill-rule="evenodd"/><path d="M2520 1086C2520 1081.03 2523.81 1077 2528.5 1077 2533.19 1077 2537 1081.03 2537 1086 2537 1090.97 2533.19 1095 2528.5 1095 2523.81 1095 2520 1090.97 2520 1086Z" fill="#460061" fill-rule="evenodd"/><path d="M2558 1090C2558 1085.03 2562.03 1081 2567 1081 2571.97 1081 2576 1085.03 2576 1090 2576 1094.97 2571.97 1099 2567 1099 2562.03 1099 2558 1094.97 2558 1090Z" fill="#460061" fill-rule="evenodd"/><path d="M2595 1094.5C2595 1089.81 2599.03 1086 2604 1086 2608.97 1086 2613 1089.81 2613 1094.5 2613 1099.19 2608.97 1103 2604 1103 2599.03 1103 2595 1099.19 2595 1094.5Z" fill="#460061" fill-rule="evenodd"/><path d="M2630 1101.5C2630 1096.81 2634.25 1093 2639.5 1093 2644.75 1093 2649 1096.81 2649 1101.5 2649 1106.19 2644.75 1110 2639.5 1110 2634.25 1110 2630 1106.19 2630 1101.5Z" fill="#460061" fill-rule="evenodd"/><path d="M2667 1109C2667 1103.48 2670.81 1099 2675.5 1099 2680.19 1099 2684 1103.48 2684 1109 2684 1114.52 2680.19 1119 2675.5 1119 2670.81 1119 2667 1114.52 2667 1109Z" fill="#460061" fill-rule="evenodd"/><path d="M2702 1118C2702 1112.48 2706.25 1108 2711.5 1108 2716.75 1108 2721 1112.48 2721 1118 2721 1123.52 2716.75 1128 2711.5 1128 2706.25 1128 2702 1123.52 2702 1118Z" fill="#460061" fill-rule="evenodd"/><path d="M2737 1131C2737 1125.48 2741.25 1121 2746.5 1121 2751.75 1121 2756 1125.48 2756 1131 2756 1136.52 2751.75 1141 2746.5 1141 2741.25 1141 2737 1136.52 2737 1131Z" fill="#460061" fill-rule="evenodd"/><path d="M2768 1140C2768 1134.48 2771.81 1130 2776.5 1130 2781.19 1130 2785 1134.48 2785 1140 2785 1145.52 2781.19 1150 2776.5 1150 2771.81 1150 2768 1145.52 2768 1140Z" fill="#460061" fill-rule="evenodd"/><path d="M2802 1147C2802 1142.03 2806.03 1138 2811 1138 2815.97 1138 2820 1142.03 2820 1147 2820 1151.97 2815.97 1156 2811 1156 2806.03 1156 2802 1151.97 2802 1147Z" fill="#460061" fill-rule="evenodd"/><path d="M2841 1152C2841 1147.03 2844.58 1143 2849 1143 2853.42 1143 2857 1147.03 2857 1152 2857 1156.97 2853.42 1161 2849 1161 2844.58 1161 2841 1156.97 2841 1152Z" fill="#460061" fill-rule="evenodd"/><path d="M2871 1160.5C2871 1155.81 2875.25 1152 2880.5 1152 2885.75 1152 2890 1155.81 2890 1160.5 2890 1165.19 2885.75 1169 2880.5 1169 2875.25 1169 2871 1165.19 2871 1160.5Z" fill="#460061" fill-rule="evenodd"/><path d="M2907 1162C2907 1156.48 2911.03 1152 2916 1152 2920.97 1152 2925 1156.48 2925 1162 2925 1167.52 2920.97 1172 2916 1172 2911.03 1172 2907 1167.52 2907 1162Z" fill="#460061" fill-rule="evenodd"/><path d="M2946 1162C2946 1156.48 2950.25 1152 2955.5 1152 2960.75 1152 2965 1156.48 2965 1162 2965 1167.52 2960.75 1172 2955.5 1172 2950.25 1172 2946 1167.52 2946 1162Z" fill="#460061" fill-rule="evenodd"/><path d="M2979 1160.5C2979 1155.81 2983.25 1152 2988.5 1152 2993.75 1152 2998 1155.81 2998 1160.5 2998 1165.19 2993.75 1169 2988.5 1169 2983.25 1169 2979 1165.19 2979 1160.5Z" fill="#460061" fill-rule="evenodd"/><path d="M3019 1156.5C3019 1151.81 3022.58 1148 3027 1148 3031.42 1148 3035 1151.81 3035 1156.5 3035 1161.19 3031.42 1165 3027 1165 3022.58 1165 3019 1161.19 3019 1156.5Z" fill="#460061" fill-rule="evenodd"/><path d="M3041 1141C3041 1136.03 3044.81 1132 3049.5 1132 3054.19 1132 3058 1136.03 3058 1141 3058 1145.97 3054.19 1150 3049.5 1150 3044.81 1150 3041 1145.97 3041 1141Z" fill="#460061" fill-rule="evenodd"/><path d="M3064 1122C3064 1116.48 3067.81 1112 3072.5 1112 3077.19 1112 3081 1116.48 3081 1122 3081 1127.52 3077.19 1132 3072.5 1132 3067.81 1132 3064 1127.52 3064 1122Z" fill="#460061" fill-rule="evenodd"/><path d="M3087 1089C3087 1083.48 3091.03 1079 3096 1079 3100.97 1079 3105 1083.48 3105 1089 3105 1094.52 3100.97 1099 3096 1099 3091.03 1099 3087 1094.52 3087 1089Z" fill="#460061" fill-rule="evenodd"/><path d="M3095 1042.5C3095 1037.25 3099.25 1033 3104.5 1033 3109.75 1033 3114 1037.25 3114 1042.5 3114 1047.75 3109.75 1052 3104.5 1052 3099.25 1052 3095 1047.75 3095 1042.5Z" fill="#460061" fill-rule="evenodd"/><path d="M3073 1011C3073 1006.03 3076.58 1002 3081 1002 3085.42 1002 3089 1006.03 3089 1011 3089 1015.97 3085.42 1020 3081 1020 3076.58 1020 3073 1015.97 3073 1011Z" fill="#460061" fill-rule="evenodd"/><path d="M3029 993C3029 988.03 3033.03 984 3038 984 3042.97 984 3047 988.03 3047 993 3047 997.971 3042.97 1002 3038 1002 3033.03 1002 3029 997.971 3029 993Z" fill="#460061" fill-rule="evenodd"/><path d="M2983 1004C2983 999.03 2987.25 995 2992.5 995 2997.75 995 3002 999.03 3002 1004 3002 1008.97 2997.75 1013 2992.5 1013 2987.25 1013 2983 1008.97 2983 1004Z" fill="#460061" fill-rule="evenodd"/><path d="M2952 1028.5C2952 1023.81 2956.25 1020 2961.5 1020 2966.75 1020 2971 1023.81 2971 1028.5 2971 1033.19 2966.75 1037 2961.5 1037 2956.25 1037 2952 1033.19 2952 1028.5Z" fill="#460061" fill-rule="evenodd"/><path d="M2925 1050.5C2925 1045.81 2929.25 1042 2934.5 1042 2939.75 1042 2944 1045.81 2944 1050.5 2944 1055.19 2939.75 1059 2934.5 1059 2929.25 1059 2925 1055.19 2925 1050.5Z" fill="#460061" fill-rule="evenodd"/></g></svg>