<svg width="965" height="256" xmlns="http://www.w3.org/2000/svg" xmlns:xlink="http://www.w3.org/1999/xlink" xml:space="preserve" overflow="hidden"><g transform="translate(-892 -1515)"><path d="M1085.72 1632.6C1106.41 1637 1158.14 1656.8 1199.52 1652.4 1238.83 1648 1323.66 1645.8 1377.45 1641.4 1431.24 1639.2 1493.31 1582 1503.66 1641.4 1514 1714 1433.31 1687.6 1400.21 1683.2 1367.1 1678.8 1313.31 1667.8 1253.31 1670 1193.31 1672.2 1118.83 1692 1096.07 1703 1071.24 1714 1042.28 1692 1038.14 1667.8 1034 1652.4 1048.48 1621.6 1085.72 1632.6Z" fill="#F5E4E5" fill-rule="evenodd"/><path d="M939.132 1572.72C935 1605.77 963.924 1630 999.047 1616.78 1036.24 1603.57 1081.69 1603.57 1125.08 1612.38 1168.46 1618.99 1178.79 1621.19 1218.05 1618.99 1257.3 1614.58 1373 1627.8 1356.47 1552.9 1339.94 1478 1273.83 1544.09 1242.84 1561.71 1213.92 1579.33 1164.33 1614.58 1110.61 1590.35 1054.83 1566.12 947.396 1478 939.132 1572.72Z" fill="#F5E4E5" fill-rule="evenodd"/><path d="M1199.77 1663C1224.55 1658.6 1269.97 1656.4 1313.32 1654.2 1377.32 1652 1377.32 1652 1377.32 1652 1397.97 1649.8 1416.55 1643.2 1435.13 1634.4 1455.77 1627.8 1476.42 1619 1484.68 1625.6 1488.81 1627.8 1490.87 1634.4 1492.94 1643.2 1495 1656.4 1492.94 1667.4 1488.81 1671.8 1474.35 1687.2 1439.26 1680.6 1416.55 1676.2 1400.03 1671.8 1400.03 1671.8 1400.03 1671.8 1383.52 1669.6 1383.52 1669.6 1383.52 1669.6 1350.48 1665.2 1305.06 1656.4 1253.45 1658.6 1191.52 1660.8 1117.19 1682.8 1092.42 1693.8 1084.16 1696 1073.84 1696 1065.58 1689.4 1055.26 1685 1049.06 1676.2 1047 1665.2 1047 1665.2 1047 1665.2 1047 1665.2 1047 1660.8 1049.06 1652 1053.19 1645.4 1059.39 1638.8 1069.71 1638.8 1084.16 1641 1084.16 1641 1084.16 1641 1084.16 1641 1106.87 1647.6 1106.87 1647.6 1106.87 1647.6 1133.71 1654.2 1168.81 1665.2 1199.77 1663Z" fill="#BC576D" fill-rule="evenodd"/><path d="M961.467 1541.76C982.133 1530.78 1027.6 1557.12 1064.8 1579.07 1079.27 1585.66 1091.67 1594.44 1104.07 1598.83 1062.73 1594.44 1025.53 1596.63 996.6 1607.61 982.133 1612 967.667 1609.8 959.4 1603.22 951.133 1596.63 947 1587.85 947 1576.88 947 1574.68 947 1574.68 947 1572.49 949.067 1557.12 953.2 1546.15 961.467 1541.76ZM1244.6 1572.49C1248.73 1570.29 1248.73 1570.29 1248.73 1570.29 1265.27 1559.32 1265.27 1559.32 1265.27 1559.32 1283.87 1543.95 1314.87 1522 1331.4 1530.78 1337.6 1532.98 1343.8 1541.76 1345.87 1554.93 1350 1568.1 1347.93 1576.88 1341.73 1583.46 1327.27 1605.41 1277.67 1605.41 1244.6 1607.61 1217.73 1607.61 1217.73 1607.61 1217.73 1607.61 1192.93 1609.8 1180.53 1609.8 1164 1607.61 1195 1603.22 1223.93 1585.66 1244.6 1572.49Z" fill="#BC576D" fill-rule="evenodd"/><path d="M895.263 1715.68C887 1746.44 932.445 1766.21 977.891 1768.41 1023.34 1770.61 1097.7 1750.83 1159.67 1742.05 1221.64 1733.26 1306.34 1720.08 1391.03 1737.65 1477.79 1753.03 1758.73 1775 1808.31 1757.42 1893 1728.86 1847.55 1630 1787.65 1651.97 1655.44 1698.11 1479.86 1731.06 1393.1 1704.7 1304.27 1676.14 1213.38 1695.91 1141.08 1709.09 1066.72 1724.47 1043.99 1739.85 994.417 1711.29 944.84 1680.53 905.591 1680.53 895.263 1715.68Z" fill="#F5E4E5" fill-rule="evenodd"/><path d="M1790.16 1660.86C1814.95 1652 1837.67 1667.51 1843.87 1689.67 1848 1700.75 1845.93 1711.82 1841.8 1720.69 1835.61 1733.98 1823.21 1742.84 1806.69 1749.49 1759.18 1765 1484.45 1745.06 1393.56 1727.33 1306.8 1709.61 1222.11 1722.9 1160.14 1733.98 1133.29 1736.2 1094.04 1740.63 1067.19 1747.27 1030 1758.35 1003.15 1760.57 978.363 1758.35 945.313 1758.35 916.394 1747.27 908.131 1733.98 906.066 1729.55 904 1727.33 904 1722.9 904 1722.9 904 1720.69 906.066 1718.47 908.131 1709.61 912.263 1705.18 920.525 1700.75 934.985 1696.31 959.772 1702.96 990.757 1720.69 1032.07 1745.06 1058.92 1740.63 1102.3 1729.55 1141.55 1720.69 1141.55 1720.69 1141.55 1720.69 1143.61 1720.69 1143.61 1720.69 1143.61 1720.69 1215.91 1705.18 1304.74 1687.45 1389.43 1714.04 1482.38 1742.84 1662.09 1707.39 1790.16 1660.86Z" fill="#BC576D" fill-rule="evenodd"/><path d="M1071 1581.6C1068.93 1581.6 1066.87 1579.4 1064.8 1579.4 1027.6 1557.4 982.133 1531 961.467 1542 953.2 1546.4 949.067 1557.4 947 1572.8 947 1575 947 1575 947 1577.2 947 1588.2 951.133 1597 959.4 1603.6 961.467 1605.8 965.6 1608 967.667 1608 967.667 1603.6 969.733 1594.8 971.8 1590.4 975.933 1577.2 986.267 1572.8 998.667 1570.6 1011.07 1570.6 1046.2 1581.6 1071 1581.6Z" fill="#A82D4D" fill-rule="evenodd"/><path d="M1331.48 1530.82C1315.01 1522 1284.14 1544.05 1265.62 1559.49 1249.15 1570.51 1249.15 1570.51 1249.15 1570.51 1245.03 1572.72 1245.03 1572.72 1245.03 1572.72 1226.51 1583.74 1201.81 1599.18 1175.06 1605.79 1173 1608 1173 1608 1173 1608 1195.64 1605.79 1218.28 1603.59 1238.86 1599.18 1263.56 1592.56 1290.31 1561.69 1317.07 1579.33 1323.24 1581.54 1325.3 1588.15 1327.36 1592.56 1327.36 1594.77 1327.36 1594.77 1327.36 1596.97 1333.53 1592.56 1339.71 1590.36 1341.77 1583.74 1347.94 1577.13 1350 1568.31 1345.88 1555.08 1343.83 1541.85 1337.65 1533.03 1331.48 1530.82Z" fill="#A82D4D" fill-rule="evenodd"/><path d="M1065.43 1689.42C1069.52 1693.81 1075.67 1696 1081.81 1696 1081.81 1687.23 1090 1669.69 1096.14 1663.12 1106.38 1656.54 1118.67 1656.54 1133 1654.35 1122.76 1652.15 1114.57 1649.96 1106.38 1647.77 1083.86 1641.19 1083.86 1641.19 1083.86 1641.19 1083.86 1641.19 1083.86 1641.19 1083.86 1641.19 1069.52 1639 1059.29 1639 1053.14 1645.58 1049.05 1652.15 1047 1660.92 1047 1665.31 1047 1665.31 1047 1665.31 1047 1665.31 1049.05 1676.27 1055.19 1685.04 1065.43 1689.42Z" fill="#A82D4D" fill-rule="evenodd"/><path d="M1488.79 1671.97C1492.93 1667.55 1495 1656.52 1492.93 1643.28 1490.86 1634.45 1488.79 1627.83 1484.64 1625.62 1476.36 1619 1455.64 1627.83 1434.93 1634.45 1418.36 1643.28 1397.64 1649.9 1379 1652.1 1389.36 1652.1 1401.79 1654.31 1414.21 1656.52 1422.5 1658.72 1439.07 1660.93 1445.29 1667.55 1449.43 1674.17 1447.36 1676.38 1445.29 1680.79 1461.86 1683 1480.5 1680.79 1488.79 1671.97Z" fill="#A82D4D" fill-rule="evenodd"/><path d="M1034 1737.52C1021.62 1735.33 1007.17 1728.78 990.667 1720.04 959.714 1702.56 934.952 1696 920.508 1700.37 912.254 1704.74 908.127 1709.11 906.064 1717.85 904 1720.04 904 1722.22 904 1722.22 904 1726.59 906.064 1728.78 908.127 1733.15 914.318 1741.89 932.889 1750.63 955.587 1755 949.397 1746.26 957.651 1730.96 978.286 1730.96 994.794 1730.96 1015.43 1741.89 1034 1737.52Z" fill="#A82D4D" fill-rule="evenodd"/><path d="M1841.81 1719.94C1845.94 1711.17 1848 1700.21 1843.87 1689.26 1837.68 1667.34 1814.97 1652 1790.2 1660.77 1662.23 1706.79 1482.65 1741.85 1389.76 1713.36 1360.86 1704.6 1331.96 1700.21 1301 1700.21 1348.48 1704.6 1391.82 1724.32 1439.3 1730.89 1495.03 1737.47 1556.95 1741.85 1612.69 1733.09 1637.46 1726.51 1703.51 1708.98 1724.15 1730.89 1732.41 1737.47 1732.41 1746.23 1730.34 1755 1765.43 1755 1794.33 1752.81 1806.72 1748.43 1823.23 1741.85 1835.62 1733.09 1841.81 1719.94Z" fill="#A82D4D" fill-rule="evenodd"/><path d="M1085.72 1632.6C1106.41 1637 1158.14 1656.8 1199.52 1652.4 1238.83 1648 1323.66 1645.8 1377.45 1641.4 1431.24 1639.2 1493.31 1582 1503.66 1641.4 1514 1714 1433.31 1687.6 1400.21 1683.2 1367.1 1678.8 1313.31 1667.8 1253.31 1670 1193.31 1672.2 1118.83 1692 1096.07 1703 1071.24 1714 1042.28 1692 1038.14 1667.8 1034 1652.4 1048.48 1621.6 1085.72 1632.6Z" stroke="#333333" stroke-width="4.0106" stroke-linecap="round" stroke-linejoin="round" stroke-miterlimit="10" fill="none" fill-rule="evenodd"/><path d="M939.132 1572.72C935 1605.77 963.924 1630 999.047 1616.78 1036.24 1603.57 1081.69 1603.57 1125.08 1612.38 1168.46 1618.99 1178.79 1621.19 1218.05 1618.99 1257.3 1614.58 1373 1627.8 1356.47 1552.9 1339.94 1478 1273.83 1544.09 1242.84 1561.71 1213.92 1579.33 1164.33 1614.58 1110.61 1590.35 1054.83 1566.12 947.396 1478 939.132 1572.72Z" stroke="#333333" stroke-width="4.0106" stroke-linecap="round" stroke-linejoin="round" stroke-miterlimit="10" fill="none" fill-rule="evenodd"/><path d="M895.263 1715.68C887 1746.44 932.445 1766.21 977.891 1768.41 1023.34 1770.61 1097.7 1750.83 1159.67 1742.05 1221.64 1733.26 1306.34 1720.08 1391.03 1737.65 1477.79 1753.03 1758.73 1775 1808.31 1757.42 1893 1728.86 1847.55 1630 1787.65 1651.97 1655.44 1698.11 1479.86 1731.06 1393.1 1704.7 1304.27 1676.14 1213.38 1695.91 1141.08 1709.09 1066.72 1724.47 1043.99 1739.85 994.417 1711.29 944.84 1680.53 905.591 1680.53 895.263 1715.68Z" stroke="#333333" stroke-width="4.0106" stroke-linecap="round" stroke-linejoin="round" stroke-miterlimit="10" fill="none" fill-rule="evenodd"/></g></svg>