<svg width="636" height="752" xmlns="http://www.w3.org/2000/svg" xmlns:xlink="http://www.w3.org/1999/xlink" xml:space="preserve" overflow="hidden"><g transform="translate(-906 -540)"><path d="M916.375 822.736C907.153 841.181 924.444 870.692 924.444 886.677 925.596 902.663 916.375 905.122 917.527 912.5 917.527 918.648 925.596 919.878 925.596 926.026 926.749 932.174 917.527 943.241 917.527 949.389 918.68 955.537 927.902 956.767 929.055 962.915 929.055 969.063 906 978.901 907.153 986.279 907.153 992.427 932.513 993.656 932.513 1001.03 933.666 1007.18 910.611 1018.25 911.764 1025.63 912.917 1033 942.887 1033 944.04 1039.15 945.193 1046.53 916.375 1060.06 917.527 1066.21 918.68 1073.58 949.804 1072.35 950.956 1078.5 952.109 1085.88 924.444 1100.64 925.596 1108.01 926.749 1114.16 952.109 1115.39 953.262 1121.54 955.567 1128.92 941.735 1139.98 942.887 1147.36 945.193 1154.74 962.484 1155.97 963.636 1162.12 965.942 1169.5 953.262 1180.56 955.567 1186.71 957.873 1194.09 976.316 1206.38 978.622 1211.3 999.371 1230.98 994.76 1249.42 1003.98 1255.57 1012.05 1261.72 1015.51 1251.88 1028.19 1258.03 1032.8 1258.03 1037.41 1276.47 1044.33 1276.47 1051.24 1277.7 1059.31 1260.49 1066.23 1261.72 1073.15 1261.72 1078.91 1278.93 1085.83 1280.16 1092.74 1280.16 1100.81 1264.18 1108.88 1264.18 1115.8 1265.41 1121.56 1282.62 1129.63 1282.62 1136.55 1282.62 1144.61 1256.8 1151.53 1256.8 1158.45 1258.03 1165.36 1288.77 1172.28 1290 1179.2 1290 1187.27 1258.03 1194.18 1258.03 1201.1 1258.03 1208.01 1290 1214.93 1290 1223 1290 1229.92 1259.26 1237.99 1259.26 1246.05 1259.26 1254.12 1285.08 1261.04 1285.08 1269.11 1285.08 1276.03 1258.03 1282.94 1258.03 1289.86 1258.03 1297.93 1283.85 1304.84 1283.85 1312.91 1283.85 1319.83 1266.64 1327.9 1265.41 1334.81 1265.41 1342.88 1281.39 1350.95 1281.39 1357.87 1280.16 1364.79 1274.01 1371.7 1274.01 1382.08 1272.79 1398.21 1278.93 1412.05 1274.01 1427.03 1269.1 1435.1 1248.19 1446.63 1238.36 1458.16 1227.29 1478.91 1218.68 1481.21 1206.38 1483.52 1195.32 1476.6 1194.09 1483.52 1179.33 1486.97 1173.18 1496.2 1168.27 1498.5 1160.89 1500.81 1153.51 1488.13 1141.21 1489.28 1133.84 1491.59 1126.46 1508.88 1124 1510.03 1117.85 1512.33 1110.47 1497.35 1099.41 1499.65 1092.03 1500.81 1084.65 1525.01 1083.42 1526.17 1076.04 1527.32 1067.43 1505.42 1055.14 1506.57 1047.76 1507.72 1040.38 1531.93 1037.92 1531.93 1031.78 1533.08 1024.4 1506.57 1009.64 1507.72 1002.26 1507.72 996.116 1536.54 994.886 1536.54 988.738 1537.69 981.36 1510.03 966.604 1511.18 960.456 1511.18 953.078 1540 951.849 1540 944.471 1540 937.093 1518.1 926.026 1518.1 919.878 1518.1 912.5 1534.24 905.122 1534.24 897.744 1534.24 890.366 1518.1 884.218 1518.1 876.84 1518.1 869.463 1533.08 862.085 1533.08 854.707 1533.08 848.559 1526.17 844.87 1525.01 838.721 1523.86 833.803 1525.01 821.506 1521.56 806.751 1518.1 791.995 1507.72 788.306 1498.5 773.55 1489.28 755.106 1486.97 737.891 1473.14 720.676 1467.38 716.987 1454.7 718.217 1450.09 713.298 1444.32 708.379 1446.63 697.313 1442.02 692.394 1436.25 688.705 1421.27 697.313 1416.66 692.394 1412.05 688.705 1422.42 662.883 1417.81 659.194 1412.05 654.275 1385.53 675.179 1379.77 671.49 1375.16 666.572 1391.3 637.06 1386.69 633.371 1380.92 628.453 1355.56 650.586 1349.8 646.897 1345.19 641.979 1360.17 612.467 1354.41 607.549 1349.8 603.86 1329.05 621.075 1323.29 616.156 1317.52 612.467 1327.9 587.875 1322.13 582.956 1316.37 579.267 1295.62 596.482 1291.01 592.793 1285.25 589.104 1287.55 570.659 1281.79 566.971 1277.18 564.511 1264.5 575.578 1259.89 571.889 1254.12 568.2 1251.82 557.133 1247.21 553.445 1235.68 549.756 1232.22 550.985 1219.54 549.756 1205.71 547.296 1187.27 535 1173.43 544.837 1168.82 547.296 1156.14 565.741 1149.23 568.2 1145.77 571.889 1131.93 570.659 1127.32 575.578 1123.87 579.267 1127.32 587.875 1122.71 592.793 1118.1 596.482 1106.57 597.712 1101.96 602.63 1097.35 607.549 1099.66 614.927 1095.05 619.845 1090.44 623.534 1075.45 616.156 1070.84 621.075 1066.23 625.993 1073.15 641.979 1068.53 646.897 1063.92 650.586 1042.02 634.601 1037.41 639.519 1032.8 643.208 1046.63 669.031 1042.02 673.949 1038.56 678.868 1015.51 661.653 1012.05 665.342 1007.44 670.26 1022.43 694.853 1018.97 699.772 1014.36 703.461 992.455 687.475 987.844 691.164 984.386 696.083 998.218 720.676 994.76 725.594 990.149 729.283 977.469 728.054 972.858 732.972 969.4 737.891 974.011 747.728 970.553 751.417 960.178 772.321 926.749 804.292 916.375 822.736Z" fill="#FDB35E" fill-rule="evenodd"/><path d="M1177.89 553.685C1183.66 550 1190.57 551.228 1202.1 554.913 1207.86 557.37 1212.47 558.598 1218.24 559.826 1226.31 559.826 1226.31 559.826 1226.31 559.826 1233.22 561.055 1235.53 561.055 1242.44 563.511 1242.44 563.511 1243.6 565.968 1244.75 567.196 1247.05 572.109 1249.36 577.022 1255.12 580.707 1260.89 584.392 1267.8 581.935 1273.56 579.479 1274.72 578.25 1277.02 580.707 1277.02 580.707 1278.18 588.077 1279.33 596.675 1285.09 601.588 1292.01 606.501 1301.23 601.588 1310.45 596.675 1311.6 596.675 1313.91 597.903 1313.91 597.903 1312.76 602.816 1311.6 607.729 1311.6 611.414 1311.6 616.327 1313.91 621.24 1317.37 624.925 1324.28 629.838 1333.5 626.153 1342.73 621.24 1342.73 621.24 1343.88 623.697 1343.88 624.925 1341.57 631.066 1339.27 638.436 1339.27 643.349 1339.27 648.262 1340.42 651.947 1343.88 654.404 1351.95 660.545 1361.17 654.404 1372.69 648.262 1372.69 648.262 1375 648.262 1373.85 649.491 1371.54 655.632 1370.39 663.002 1370.39 667.915 1370.39 672.828 1371.54 676.513 1375 678.969 1381.92 685.111 1391.14 680.198 1402.66 674.056 1403.82 672.828 1404.97 672.828 1406.12 671.6 1407.27 671.6 1408.43 672.828 1408.43 674.056 1407.27 678.969 1406.12 683.882 1406.12 688.796 1406.12 693.709 1407.27 697.393 1410.73 701.078 1416.5 705.991 1424.56 703.535 1431.48 702.307 1431.48 702.307 1432.63 702.307 1433.79 702.307 1433.79 702.307 1436.09 704.763 1436.09 704.763 1437.24 709.676 1438.4 715.818 1444.16 720.731 1448.77 724.416 1454.53 725.644 1460.3 726.872 1462.6 728.1 1464.91 728.1 1466.06 729.329 1474.13 736.698 1477.59 746.525 1481.05 756.351 1483.35 763.721 1486.81 771.09 1490.27 778.46 1494.88 785.83 1499.49 790.743 1502.95 794.428 1507.56 799.341 1511.02 803.026 1512.17 809.167 1514.47 817.765 1514.47 825.135 1515.63 831.276 1515.63 831.276 1515.63 838.646 1516.78 841.102 1516.78 846.015 1519.08 849.7 1521.39 853.385 1522.54 853.385 1522.54 854.613 1522.54 854.613 1521.39 855.841 1520.24 857.07 1519.08 858.298 1514.47 863.211 1508.71 868.124 1508.71 876.722 1508.71 876.722 1508.71 876.722 1508.71 876.722 1508.71 885.32 1514.47 890.233 1520.24 895.146 1521.39 895.146 1522.54 896.375 1523.69 897.603 1522.54 898.831 1521.39 900.06 1520.24 901.288 1514.47 906.201 1508.71 911.114 1508.71 918.484 1508.71 919.712 1508.71 919.712 1508.71 919.712 1508.71 928.31 1515.63 933.223 1522.54 939.365 1523.69 940.593 1524.85 940.593 1526 941.821 1524.85 941.821 1523.69 941.821 1522.54 941.821 1513.32 945.506 1501.79 947.962 1501.79 959.017 1501.79 959.017 1501.79 960.245 1501.79 960.245 1501.79 968.843 1508.71 973.756 1517.93 981.126 1519.08 982.354 1521.39 983.583 1522.54 984.811 1521.39 984.811 1520.24 986.039 1520.24 986.039 1509.86 988.496 1499.49 990.952 1498.34 1000.78 1498.34 1002.01 1498.34 1002.01 1498.34 1003.23 1498.34 1010.6 1505.25 1016.75 1514.47 1024.12 1515.63 1025.34 1517.93 1027.8 1519.08 1029.03 1517.93 1029.03 1516.78 1029.03 1516.78 1030.26 1508.71 1032.71 1499.49 1036.4 1497.18 1045 1497.18 1046.22 1497.18 1047.45 1497.18 1047.45 1497.18 1056.05 1504.1 1062.19 1509.86 1068.33 1511.02 1069.56 1512.17 1070.79 1514.47 1072.02 1512.17 1073.25 1511.02 1073.25 1509.86 1074.48 1500.64 1076.93 1491.42 1080.62 1490.27 1089.21 1490.27 1090.44 1490.27 1091.67 1490.27 1092.9 1490.27 1099.04 1493.73 1105.18 1497.18 1110.1 1498.34 1111.32 1499.49 1112.55 1499.49 1113.78 1498.34 1115.01 1497.18 1116.24 1496.03 1116.24 1489.11 1119.92 1482.2 1123.61 1481.05 1130.98 1479.89 1132.2 1479.89 1133.43 1479.89 1134.66 1479.89 1140.8 1483.35 1146.94 1486.81 1151.86 1486.81 1154.31 1489.11 1156.77 1489.11 1158 1487.96 1159.23 1486.81 1161.68 1484.5 1162.91 1481.05 1166.6 1477.59 1170.28 1475.28 1175.19 1475.28 1175.19 1475.28 1175.19 1476.44 1173.97 1469.52 1185.02 1470.67 1191.16 1471.82 1197.3 1471.82 1199.76 1472.98 1200.99 1471.82 1203.44 1470.67 1208.36 1461.45 1214.5 1454.53 1219.41 1449.92 1223.1 1444.16 1226.78 1440.7 1230.47 1434.94 1235.38 1431.48 1240.29 1426.87 1246.43 1421.11 1253.8 1415.34 1261.17 1409.58 1263.63 1401.51 1266.09 1392.29 1264.86 1384.22 1263.63 1371.54 1263.63 1371.54 1263.63 1371.54 1263.63 1371.54 1262.4 1371.54 1263.63 1370.39 1263.63 1365.78 1263.63 1361.17 1266.09 1357.71 1267.31 1355.4 1269.77 1347.34 1267.31 1345.03 1266.09 1340.42 1261.17 1334.66 1255.03 1326.59 1255.03 1319.67 1256.26 1313.91 1262.4 1309.3 1267.31 1308.15 1268.54 1303.53 1267.31 1302.38 1266.09 1296.62 1257.49 1292.01 1247.66 1282.79 1247.66 1273.56 1248.89 1268.95 1257.49 1264.34 1266.09 1263.19 1267.31 1258.58 1268.54 1257.43 1266.09 1252.82 1257.49 1247.05 1248.89 1237.83 1248.89 1237.83 1248.89 1237.83 1248.89 1237.83 1248.89 1228.61 1248.89 1224 1258.72 1218.24 1269.77 1217.08 1271 1213.63 1271 1212.47 1269.77 1207.86 1258.72 1203.25 1248.89 1194.03 1247.66 1184.81 1247.66 1180.2 1258.72 1174.44 1268.54 1174.44 1271 1170.98 1269.77 1169.82 1268.54 1165.21 1257.49 1160.6 1247.66 1151.38 1246.43 1142.16 1246.43 1137.55 1255.03 1131.79 1263.63 1130.63 1266.09 1126.02 1267.31 1126.02 1266.09 1121.41 1261.17 1116.8 1255.03 1108.73 1253.8 1100.66 1253.8 1094.9 1259.95 1090.29 1264.86 1089.14 1266.09 1083.37 1264.86 1083.37 1263.63 1078.76 1258.72 1074.15 1251.35 1067.24 1251.35 1059.17 1250.12 1053.4 1257.49 1047.64 1262.4 1047.64 1262.4 1044.18 1262.4 1043.03 1261.17 1039.57 1255.03 1036.11 1248.89 1028.05 1247.66 1029.2 1247.66 1030.35 1247.66 1031.5 1248.89 1022.28 1243.98 1015.37 1245.21 1011.91 1246.43 1009.6 1247.66 1009.6 1247.66 1009.6 1247.66 1009.6 1247.66 1009.6 1247.66 1009.6 1247.66 1009.6 1247.66 1008.45 1246.43 1008.45 1246.43 1007.3 1246.43 1006.14 1242.75 1006.14 1239.06 1002.69 1230.47 999.229 1218.18 985.397 1204.67 983.092 1200.99 979.634 1197.3 973.87 1192.39 970.412 1189.93 966.954 1186.25 964.649 1183.79 965.801 1182.56 965.801 1181.34 966.954 1180.11 969.259 1175.19 972.717 1169.05 972.717 1162.91 972.717 1161.68 972.717 1160.45 972.717 1159.23 970.412 1151.86 963.496 1148.17 957.733 1145.72 956.58 1145.72 955.427 1140.8 955.427 1139.57 958.885 1135.89 962.343 1129.75 962.343 1122.38 962.343 1121.15 962.343 1119.92 962.343 1118.69 960.038 1110.1 951.969 1107.64 941.595 1105.18 941.595 1105.18 942.748 1101.5 943.901 1100.27 951.969 1094.13 960.038 1086.76 960.038 1079.39 960.038 1078.16 960.038 1076.93 958.885 1076.93 957.733 1067.11 947.359 1064.65 935.832 1062.19 934.679 1062.19 935.832 1060.96 935.832 1060.96 945.053 1053.59 953.122 1047.45 953.122 1040.08 953.122 1038.86 953.122 1038.86 953.122 1037.63 950.817 1027.8 940.443 1025.34 930.069 1022.89 928.916 1022.89 927.763 1020.43 927.763 1020.43 934.679 1014.29 941.595 1009.38 941.595 1000.78 941.595 1000.78 941.595 999.55 941.595 999.55 940.443 989.724 922 983.583 922 983.583 922 983.583 922 982.354 923.153 982.354 930.069 977.441 938.137 971.3 938.137 963.93 938.137 962.702 938.137 962.702 938.137 962.702 936.985 954.104 931.221 950.419 928.916 947.962 928.916 947.962 927.763 947.962 927.763 946.734 927.763 945.506 928.916 943.049 930.069 941.821 932.374 936.908 934.679 931.995 934.679 925.853 934.679 925.853 934.679 925.853 934.679 925.853 934.679 917.255 930.069 913.571 926.611 911.114 926.611 911.114 926.611 911.114 926.611 911.114 927.763 911.114 927.763 909.886 927.763 909.886 930.069 906.201 933.527 898.831 933.527 887.777 933.527 887.777 933.527 886.548 933.527 886.548 933.527 879.179 931.221 871.809 928.916 863.211 925.458 853.385 923.153 843.559 923.153 836.189 923.153 832.504 923.153 830.048 924.305 827.591 924.305 827.591 924.305 827.591 924.305 827.591 928.916 820.221 938.137 809.167 948.511 796.884 960.038 783.373 972.717 768.634 978.481 756.351 978.481 757.579 977.328 757.579 977.328 758.807 980.786 755.123 980.786 751.438 980.786 746.525 980.786 745.296 980.786 742.84 980.786 741.612 980.786 741.612 981.939 739.155 983.092 739.155 983.092 739.155 984.244 739.155 985.397 739.155 990.008 737.927 996.924 736.698 1001.53 731.785 1003.84 729.329 1003.84 726.872 1003.84 723.187 1003.84 718.274 1002.69 713.361 1000.38 708.448 1000.38 707.22 1000.38 705.991 1000.38 704.763 999.229 704.763 1000.38 704.763 1001.53 704.763 1010.76 709.676 1018.82 712.133 1024.59 705.991 1026.89 703.535 1028.05 701.078 1028.05 697.393 1028.05 692.48 1026.89 687.567 1024.59 681.426 1024.59 680.198 1024.59 680.198 1025.74 680.198 1034.96 683.882 1043.03 687.567 1048.79 681.426 1051.1 678.969 1052.25 675.284 1052.25 671.6 1052.25 665.458 1049.95 660.545 1048.79 653.175 1047.64 653.175 1048.79 651.947 1048.79 651.947 1059.17 656.86 1068.39 660.545 1075.31 654.404 1078.76 650.719 1078.76 645.806 1078.76 640.893 1078.76 638.436 1078.76 635.98 1078.76 632.295 1077.61 629.838 1081.07 629.838 1082.22 629.838 1087.98 631.066 1096.05 632.295 1101.82 627.382 1106.43 622.468 1107.58 616.327 1107.58 612.642 1107.58 612.642 1106.43 608.957 1111.04 608.957 1112.19 607.729 1114.5 607.729 1115.65 606.501 1120.26 605.273 1124.87 602.816 1129.48 600.359 1134.09 594.218 1134.09 588.077 1134.09 584.392 1134.09 584.392 1135.24 581.935 1136.4 581.935 1137.55 581.935 1139.85 581.935 1141.01 580.707 1145.62 580.707 1151.38 579.479 1154.84 575.794 1153.69 577.022 1152.53 577.022 1151.38 577.022 1158.3 575.794 1164.06 569.652 1170.98 561.055 1173.28 558.598 1176.74 554.913 1177.89 553.685 1177.89 553.685 1177.89 553.685 1177.89 553.685Z" fill="#FFFFB5" fill-rule="evenodd"/><path d="M1365.61 1256.59C1384.03 1249.19 1394.39 1264 1405.91 1254.12 1418.58 1244.25 1419.73 1231.9 1439.3 1218.32 1460.03 1204.74 1465.79 1177.58 1465.79 1177.58 1475 1164 1475 1164 1475 1164 1464.64 1172.64 1457.73 1189.93 1449.67 1198.57 1441.61 1207.21 1424.33 1213.38 1413.97 1228.2 1402.45 1243.01 1397.85 1243.01 1388.64 1244.25 1379.42 1246.72 1361 1256.59 1361 1256.59" fill="#FFFFFF" fill-rule="evenodd"/><path d="M1031.5 1248.89C1031.5 1248.89 1030.35 1247.66 1030.35 1247.66 1030.35 1247.66 1029.2 1247.66 1028.05 1247.66 1029.2 1247.66 1030.35 1247.66 1031.5 1248.89ZM1522.54 941.821C1523.69 941.821 1524.85 941.821 1526 941.821 1524.85 940.593 1523.69 940.593 1522.54 939.365 1515.63 933.223 1508.71 928.31 1508.71 919.712 1508.71 919.712 1508.71 919.712 1508.71 918.484 1508.71 911.114 1514.47 906.201 1520.24 901.288 1521.39 900.06 1522.54 898.831 1523.69 897.603 1522.54 896.375 1521.39 895.146 1520.24 895.146 1514.47 890.233 1508.71 885.32 1508.71 876.722 1508.71 876.722 1508.71 876.722 1508.71 876.722 1508.71 868.124 1514.47 863.211 1519.08 858.298 1520.24 857.07 1521.39 855.841 1522.54 854.613 1522.54 854.613 1522.54 853.385 1521.39 853.385 1519.08 849.7 1516.78 846.015 1516.78 841.102 1515.63 838.646 1515.63 831.276 1515.63 831.276 1514.47 825.135 1514.47 817.765 1512.17 809.167 1511.02 803.026 1507.56 799.341 1502.95 794.428 1499.49 790.743 1494.88 785.83 1490.27 778.46 1486.81 771.09 1483.35 763.721 1481.05 756.351 1477.59 746.525 1474.13 736.698 1466.06 729.329 1464.91 728.1 1462.6 728.1 1460.3 726.872 1454.53 725.644 1448.77 724.416 1444.16 720.731 1438.4 715.818 1437.24 709.676 1436.09 704.763 1436.09 704.763 1433.79 702.307 1433.79 702.307 1432.63 702.307 1431.48 702.307 1431.48 702.307 1424.56 703.535 1416.5 705.991 1410.73 701.078 1407.27 697.393 1406.12 693.709 1406.12 688.796 1406.12 683.882 1407.27 678.969 1408.43 674.056 1408.43 672.828 1407.27 671.6 1406.12 671.6 1404.97 672.828 1403.82 672.828 1402.66 674.056 1391.14 680.198 1381.92 685.111 1375 678.969 1371.54 676.513 1370.39 672.828 1370.39 667.915 1370.39 663.002 1371.54 655.632 1373.85 649.491 1375 648.262 1372.69 648.262 1372.69 648.262 1361.17 654.404 1351.95 660.545 1343.88 654.404 1340.42 651.947 1339.27 648.262 1339.27 643.349 1339.27 638.436 1341.57 631.066 1343.88 624.925 1343.88 623.697 1342.73 621.24 1342.73 621.24 1333.5 626.153 1324.28 629.838 1317.37 624.925 1313.91 621.24 1311.6 616.327 1311.6 611.414 1311.6 607.729 1312.76 602.816 1313.91 597.903 1313.91 597.903 1311.6 596.675 1310.45 596.675 1301.23 601.588 1292.01 606.501 1285.09 601.588 1279.33 596.675 1278.18 588.077 1277.02 580.707 1277.02 580.707 1274.72 578.25 1273.56 579.479 1267.8 581.935 1260.89 584.392 1255.12 580.707 1249.36 577.022 1247.05 572.109 1244.75 567.196 1243.6 565.968 1242.44 563.511 1242.44 563.511 1235.53 561.055 1233.22 561.055 1226.31 559.826 1218.24 559.826 1218.24 559.826 1218.24 559.826 1212.47 558.598 1207.86 557.37 1202.1 554.913 1190.57 551.228 1183.66 550 1177.89 553.685 1177.89 553.685 1177.89 553.685 1177.89 553.685 1176.74 554.913 1173.28 558.598 1170.98 561.055 1164.06 568.424 1159.45 574.566 1153.69 577.022 1149.08 579.479 1145.62 580.707 1141.01 580.707 1139.85 581.935 1137.55 581.935 1136.4 581.935 1135.24 581.935 1134.09 584.392 1134.09 584.392 1134.09 588.077 1134.09 594.218 1129.48 600.359 1124.87 602.816 1120.26 605.273 1115.65 606.501 1114.5 607.729 1112.19 607.729 1111.04 608.957 1106.43 608.957 1107.58 612.642 1107.58 612.642 1107.58 616.327 1106.43 622.468 1101.82 627.382 1096.05 632.295 1087.98 631.066 1082.22 629.838 1081.07 629.838 1077.61 629.838 1078.76 632.295 1078.76 635.98 1078.76 638.436 1078.76 640.893 1078.76 645.806 1078.76 650.719 1075.31 654.404 1068.39 660.545 1059.17 656.86 1048.79 651.947 1048.79 651.947 1047.64 653.175 1048.79 653.175 1049.95 660.545 1052.25 665.458 1052.25 671.6 1052.25 675.284 1051.1 678.969 1048.79 681.426 1043.03 687.567 1034.96 683.882 1025.74 680.198 1024.59 680.198 1024.59 680.198 1024.59 681.426 1026.89 687.567 1028.05 692.48 1028.05 697.393 1028.05 701.078 1026.89 703.535 1024.59 705.991 1018.82 712.133 1010.76 709.676 1001.53 704.763 1000.38 704.763 999.229 704.763 1000.38 704.763 1000.38 705.991 1000.38 707.22 1000.38 708.448 1002.69 713.361 1003.84 718.274 1003.84 723.187 1003.84 726.872 1003.84 729.329 1001.53 731.785 996.924 736.698 990.008 737.927 985.397 739.155 984.244 739.155 983.092 739.155 983.092 739.155 981.939 739.155 980.786 741.612 980.786 741.612 980.786 742.84 980.786 745.296 980.786 746.525 980.786 750.209 980.786 753.894 978.481 756.351 978.481 757.579 977.328 757.579 977.328 758.807 977.328 757.579 978.481 757.579 978.481 756.351 972.717 768.634 960.038 783.373 948.511 796.884 938.137 809.167 928.916 820.221 924.305 827.591 924.305 827.591 924.305 827.591 924.305 827.591 923.153 830.048 923.153 832.504 923.153 836.189 923.153 843.559 925.458 853.385 928.916 863.211 931.221 871.809 933.527 879.179 933.527 886.548 933.527 886.548 933.527 887.777 933.527 887.777 933.527 898.831 930.069 906.201 927.763 909.886 927.763 909.886 927.763 911.114 926.611 911.114 926.611 911.114 926.611 911.114 926.611 911.114 930.069 913.571 934.679 917.255 934.679 925.853 934.679 925.853 934.679 925.853 934.679 925.853 934.679 931.995 932.374 936.908 930.069 941.821 928.916 943.049 927.763 945.506 927.763 946.734 927.763 947.962 928.916 947.962 928.916 947.962 931.221 950.419 936.985 954.104 938.137 962.702 938.137 962.702 938.137 962.702 938.137 963.93 938.137 971.3 930.069 977.441 923.153 982.354 922 982.354 922 983.583 922 983.583 922 983.583 940.443 989.724 941.595 999.55 941.595 999.55 941.595 1000.78 941.595 1000.78 941.595 1009.38 934.679 1014.29 927.763 1020.43 927.763 1020.43 928.916 1022.89 930.069 1022.89 940.443 1025.34 950.817 1027.8 953.122 1037.63 953.122 1038.86 953.122 1038.86 953.122 1040.08 953.122 1047.45 945.053 1053.59 935.832 1060.96 935.832 1060.96 934.679 1062.19 935.832 1062.19 947.359 1064.65 957.733 1067.11 958.885 1076.93 960.038 1076.93 960.038 1078.16 960.038 1079.39 960.038 1086.76 951.969 1094.13 943.901 1100.27 942.748 1101.5 941.595 1105.18 941.595 1105.18 951.969 1107.64 960.038 1110.1 962.343 1118.69 962.343 1119.92 962.343 1121.15 962.343 1122.38 962.343 1129.75 958.885 1135.89 955.427 1139.57 955.427 1140.8 956.58 1145.72 957.733 1145.72 963.496 1148.17 970.412 1151.86 972.717 1159.23 972.717 1160.45 972.717 1161.68 972.717 1162.91 972.717 1169.05 969.259 1175.19 966.954 1180.11 965.801 1181.34 965.801 1182.56 964.649 1183.79 966.954 1186.25 970.412 1189.93 973.87 1192.39 979.634 1197.3 983.092 1200.99 985.397 1204.67 999.229 1218.18 1002.69 1230.47 1006.14 1239.06 1006.14 1242.75 1007.3 1246.43 1008.45 1246.43 1008.45 1246.43 1009.6 1247.66 1009.6 1247.66 1011.91 1246.43 1011.91 1246.43 1011.91 1246.43 1015.37 1246.43 1022.28 1243.98 1030.35 1247.66 1036.11 1250.12 1039.57 1255.03 1043.03 1261.17 1044.18 1262.4 1047.64 1262.4 1047.64 1262.4 1053.4 1257.49 1059.17 1250.12 1067.24 1251.35 1074.15 1251.35 1078.76 1258.72 1083.37 1263.63 1083.37 1264.86 1089.14 1266.09 1090.29 1264.86 1094.9 1259.95 1100.66 1253.8 1108.73 1253.8 1116.8 1255.03 1121.41 1261.17 1126.02 1266.09 1126.02 1267.31 1130.63 1266.09 1131.79 1263.63 1137.55 1255.03 1142.16 1246.43 1151.38 1246.43 1160.6 1247.66 1165.21 1257.49 1169.82 1268.54 1170.98 1269.77 1174.44 1271 1174.44 1268.54 1180.2 1258.72 1184.81 1247.66 1194.03 1247.66 1203.25 1248.89 1207.86 1258.72 1212.47 1269.77 1213.63 1271 1217.08 1271 1218.24 1269.77 1224 1258.72 1228.61 1248.89 1237.83 1248.89 1237.83 1248.89 1237.83 1248.89 1237.83 1248.89 1247.05 1248.89 1252.82 1257.49 1257.43 1266.09 1258.58 1268.54 1263.19 1267.31 1264.34 1266.09 1268.95 1257.49 1273.56 1248.89 1282.79 1247.66 1292.01 1247.66 1296.62 1257.49 1302.38 1266.09 1303.53 1267.31 1308.15 1268.54 1309.3 1267.31 1313.91 1262.4 1319.67 1256.26 1326.59 1255.03 1334.66 1255.03 1340.42 1261.17 1345.03 1266.09 1347.34 1267.31 1355.4 1269.77 1357.71 1267.31 1361.17 1266.09 1365.78 1263.63 1370.39 1263.63 1371.54 1263.63 1371.54 1262.4 1371.54 1263.63 1384.22 1263.63 1384.22 1263.63 1384.22 1263.63 1392.29 1264.86 1401.51 1266.09 1409.58 1263.63 1415.34 1261.17 1421.11 1253.8 1426.87 1246.43 1431.48 1240.29 1434.94 1235.38 1440.7 1230.47 1444.16 1226.78 1449.92 1223.1 1454.53 1219.41 1461.45 1214.5 1470.67 1208.36 1471.82 1203.44 1472.98 1200.99 1471.82 1199.76 1471.82 1197.3 1470.67 1191.16 1469.52 1185.02 1476.44 1173.97 1475.28 1175.19 1475.28 1175.19 1475.28 1175.19 1477.59 1170.28 1481.05 1166.6 1484.5 1162.91 1486.81 1161.68 1487.96 1159.23 1489.11 1158 1489.11 1156.77 1486.81 1154.31 1486.81 1151.86 1483.35 1146.94 1479.89 1140.8 1479.89 1134.66 1479.89 1133.43 1479.89 1132.2 1481.05 1130.98 1482.2 1123.61 1489.11 1119.92 1496.03 1116.24 1497.18 1116.24 1498.34 1115.01 1499.49 1113.78 1499.49 1112.55 1498.34 1111.32 1497.18 1110.1 1493.73 1105.18 1490.27 1099.04 1490.27 1092.9 1490.27 1091.67 1490.27 1090.44 1490.27 1089.21 1491.42 1080.62 1500.64 1076.93 1509.86 1074.48 1511.02 1073.25 1512.17 1073.25 1514.47 1072.02 1512.17 1070.79 1511.02 1069.56 1509.86 1068.33 1504.1 1062.19 1497.18 1056.05 1497.18 1047.45 1497.18 1047.45 1497.18 1046.22 1497.18 1045 1499.49 1036.4 1508.71 1032.71 1516.78 1030.26 1516.78 1029.03 1517.93 1029.03 1519.08 1029.03 1517.93 1027.8 1515.63 1025.34 1514.47 1024.12 1505.25 1016.75 1498.34 1010.6 1498.34 1003.23 1498.34 1002.01 1498.34 1002.01 1498.34 1000.78 1499.49 990.952 1509.86 988.496 1520.24 986.039 1520.24 986.039 1521.39 984.811 1522.54 984.811 1521.39 983.583 1519.08 982.354 1517.93 981.126 1508.71 973.756 1501.79 968.843 1501.79 960.245 1501.79 960.245 1501.79 959.017 1501.79 959.017 1501.79 947.962 1513.32 945.506 1522.54 941.821ZM1502.95 981.126C1496.03 984.811 1490.27 989.724 1489.11 1000.78 1489.11 1000.78 1489.11 1003.23 1489.11 1003.23 1489.11 1013.06 1494.88 1019.2 1500.64 1026.57 1494.88 1029.03 1490.27 1035.17 1489.11 1043.77 1489.11 1043.77 1487.96 1047.45 1487.96 1047.45 1487.96 1056.05 1492.57 1063.42 1497.18 1068.33 1490.27 1072.02 1483.35 1076.93 1481.05 1087.99 1481.05 1087.99 1481.05 1092.9 1481.05 1092.9 1481.05 1100.27 1483.35 1105.18 1486.81 1110.1 1481.05 1113.78 1474.13 1118.69 1471.82 1128.52 1471.82 1128.52 1470.67 1134.66 1470.67 1134.66 1470.67 1143.26 1474.13 1150.63 1477.59 1156.77 1474.13 1159.23 1470.67 1164.14 1468.37 1169.05 1468.37 1169.05 1468.37 1169.05 1468.37 1169.05 1468.37 1169.05 1468.37 1169.05 1468.37 1169.05 1463.76 1177.65 1461.45 1185.02 1461.45 1191.16 1461.45 1193.62 1462.6 1197.3 1462.6 1199.76 1462.6 1199.76 1462.6 1199.76 1462.6 1200.99 1460.3 1203.44 1453.38 1208.36 1449.92 1210.81 1444.16 1214.5 1439.55 1218.18 1433.79 1223.1 1428.02 1228.01 1423.41 1234.15 1419.95 1240.29 1415.34 1246.43 1409.58 1252.58 1406.12 1253.8 1400.36 1256.26 1392.29 1255.03 1385.37 1253.8 1372.69 1253.8 1372.69 1253.8 1372.69 1253.8 1372.69 1253.8 1369.24 1253.8 1369.24 1253.8 1363.47 1253.8 1358.86 1256.26 1354.25 1258.72 1353.1 1258.72 1351.95 1258.72 1350.79 1257.49 1345.03 1252.58 1336.96 1245.21 1326.59 1245.21 1317.37 1246.43 1311.6 1251.35 1306.99 1256.26 1302.38 1247.66 1294.31 1237.84 1282.79 1237.84 1272.41 1239.06 1265.5 1246.43 1260.89 1253.8 1255.12 1246.43 1248.21 1239.06 1237.83 1239.06 1227.46 1239.06 1220.54 1246.43 1215.93 1255.03 1211.32 1246.43 1204.4 1239.06 1194.03 1237.84 1183.66 1237.84 1177.89 1245.21 1173.28 1252.58 1168.67 1243.98 1161.76 1237.84 1151.38 1236.61 1139.85 1236.61 1132.94 1245.21 1127.18 1253.8 1122.56 1248.89 1116.8 1245.21 1108.73 1243.98 1099.51 1243.98 1092.6 1248.89 1086.83 1253.8 1083.37 1248.89 1076.46 1242.75 1067.24 1241.52 1059.17 1240.29 1052.25 1245.21 1047.64 1250.12 1044.18 1245.21 1040.73 1241.52 1034.96 1239.06 1034.96 1239.06 1034.96 1239.06 1034.96 1239.06 1034.96 1239.06 1034.96 1239.06 1034.96 1239.06 1026.89 1235.38 1019.98 1235.38 1014.21 1236.61 1014.21 1236.61 1014.21 1236.61 1014.21 1236.61 1011.91 1228.01 1007.3 1213.27 992.313 1198.53 990.008 1193.62 985.397 1189.93 979.634 1185.02 979.634 1185.02 978.481 1183.79 976.176 1182.56 979.634 1177.65 981.939 1170.28 981.939 1162.91 980.786 1155.54 980.786 1155.54 980.786 1155.54 978.481 1146.94 972.717 1143.26 966.954 1139.57 969.259 1134.66 971.565 1129.75 971.565 1122.38 971.565 1117.46 971.565 1117.46 971.565 1117.46 969.259 1108.87 964.649 1103.95 957.733 1100.27 963.496 1094.13 969.259 1087.99 969.259 1079.39 968.107 1074.48 968.107 1074.48 968.107 1074.48 966.954 1065.88 961.191 1060.96 954.275 1057.28 958.885 1052.37 962.343 1047.45 962.343 1040.08 962.343 1036.4 962.343 1036.4 962.343 1036.4 960.038 1025.34 953.122 1020.43 945.053 1016.75 948.511 1013.06 950.817 1006.92 950.817 1000.78 950.817 998.322 950.817 998.322 950.817 998.322 949.664 990.952 945.053 984.811 939.29 981.126 943.901 976.213 947.359 971.3 947.359 963.93 947.359 961.474 947.359 961.474 947.359 961.474 946.206 952.876 942.748 947.962 939.29 944.278 941.595 939.365 943.901 933.223 943.901 925.853 943.901 924.625 943.901 924.625 943.901 924.625 943.901 918.484 941.595 913.571 938.137 909.886 940.443 904.973 942.748 897.603 942.748 887.777 942.748 886.548 942.748 886.548 942.748 886.548 942.748 877.951 940.443 869.353 936.985 859.526 934.679 852.157 932.374 842.33 932.374 836.189 932.374 833.732 932.374 832.504 932.374 832.504 935.832 826.363 946.206 814.08 955.427 804.254 966.954 789.514 980.786 773.547 986.55 761.264 986.55 761.264 986.55 761.264 986.55 761.264 986.55 761.264 986.55 761.264 986.55 761.264 988.855 757.579 990.008 752.666 990.008 747.753 995.771 746.525 1002.69 744.068 1007.3 739.155 1011.91 734.242 1013.06 729.329 1013.06 723.187 1013.06 721.959 1013.06 720.731 1013.06 719.503 1018.82 719.503 1025.74 719.503 1031.5 713.361 1036.11 708.448 1037.27 703.535 1037.27 697.393 1037.27 696.165 1037.27 694.937 1037.27 693.709 1043.03 694.937 1049.95 693.709 1054.56 688.796 1059.17 683.882 1061.47 677.741 1061.47 671.6 1061.47 669.143 1061.47 667.915 1060.32 666.687 1067.24 667.915 1075.31 666.687 1081.07 660.545 1085.68 655.632 1087.98 649.491 1087.98 640.893 1087.98 640.893 1087.98 640.893 1087.98 640.893 1094.9 640.893 1101.82 639.664 1107.58 633.523 1113.34 628.61 1115.65 621.24 1116.8 617.555 1117.95 616.327 1119.11 616.327 1119.11 616.327 1123.72 613.87 1130.63 611.414 1135.24 607.729 1141.01 601.588 1142.16 595.446 1143.31 590.533 1147.92 589.305 1153.69 588.077 1158.3 585.62 1165.21 581.935 1170.98 575.794 1177.89 567.196 1177.89 567.196 1182.5 562.283 1182.5 562.283 1182.5 562.283 1183.66 562.283 1183.66 562.283 1184.81 559.826 1190.57 561.055 1199.79 564.739 1204.4 565.968 1211.32 568.424 1217.08 568.424 1217.08 569.652 1225.15 569.652 1225.15 569.652 1230.92 569.652 1233.22 570.881 1235.53 570.881 1235.53 572.109 1236.68 572.109 1236.68 572.109 1238.98 577.022 1242.44 584.392 1249.36 589.305 1256.27 594.218 1263.19 592.99 1268.95 591.761 1271.26 597.903 1273.56 605.273 1280.48 608.957 1287.4 615.099 1295.47 613.87 1302.38 611.414 1302.38 611.414 1302.38 611.414 1302.38 611.414 1302.38 621.24 1305.84 628.61 1312.76 633.523 1318.52 637.208 1325.44 638.436 1331.2 635.98 1331.2 638.436 1330.05 640.893 1330.05 643.349 1330.05 653.175 1334.66 659.317 1339.27 661.773 1346.18 667.915 1353.1 667.915 1361.17 664.23 1361.17 665.458 1361.17 666.687 1361.17 667.915 1361.17 677.741 1364.63 683.882 1369.24 686.339 1377.31 693.709 1387.68 691.252 1396.9 687.567 1396.9 687.567 1396.9 687.567 1396.9 688.796 1396.9 696.165 1399.21 703.535 1404.97 708.448 1413.04 714.589 1422.26 714.589 1429.18 713.361 1430.33 718.274 1432.63 723.187 1437.24 728.1 1444.16 734.242 1452.23 735.47 1457.99 736.698 1457.99 736.698 1460.3 736.698 1461.45 737.927 1466.06 744.068 1469.52 751.438 1472.98 760.036 1475.28 767.405 1477.59 774.775 1482.2 783.373 1487.96 791.971 1492.57 796.884 1496.03 801.797 1500.64 806.71 1502.95 807.939 1504.1 811.623 1505.25 818.993 1505.25 826.363 1506.4 831.276 1506.4 831.276 1506.4 831.276 1506.4 831.276 1507.56 841.102 1507.56 841.102 1507.56 841.102 1507.56 846.015 1508.71 849.7 1511.02 853.385 1505.25 858.298 1499.49 865.668 1499.49 876.722 1499.49 876.722 1499.49 876.722 1499.49 876.722 1499.49 886.548 1504.1 892.69 1508.71 897.603 1504.1 902.516 1499.49 909.886 1499.49 918.484 1499.49 919.712 1499.49 919.712 1499.49 919.712 1499.49 927.082 1502.95 933.223 1507.56 938.136 1499.49 941.821 1493.73 947.962 1492.57 957.789 1492.57 960.245 1492.57 960.245 1492.57 960.245 1492.57 968.843 1497.18 974.985 1502.95 981.126ZM1151.38 577.022C1152.53 577.022 1152.53 577.022 1153.69 577.022 1153.69 577.022 1153.69 577.022 1153.69 577.022 1152.53 577.022 1152.53 577.022 1151.38 577.022Z" fill="#FEE879" fill-rule="evenodd"/><path d="M983.038 1072C983.038 1072 960 951.508 969.215 860.525 978.43 769.541 1102.84 658.885 1142 622 1086.71 693.311 999.165 784.295 985.342 897.41 971.519 1010.52 983.038 1072 983.038 1072Z" fill="#FFFFFF" fill-rule="evenodd"/><path d="M916.875 823.236C907.653 841.681 924.944 871.192 924.944 887.177 926.096 903.163 916.875 905.622 918.027 913 918.027 919.148 926.096 920.378 926.096 926.526 927.249 932.674 918.027 943.741 918.027 949.889 919.18 956.037 928.402 957.267 929.555 963.415 929.555 969.563 906.5 979.401 907.653 986.778 907.653 992.927 933.013 994.156 933.013 1001.53 934.165 1007.68 911.111 1018.75 912.264 1026.13 913.416 1033.5 943.387 1033.5 944.54 1039.65 945.693 1047.03 916.875 1060.56 918.027 1066.71 919.18 1074.08 950.304 1072.85 951.456 1079 952.609 1086.38 924.944 1101.14 926.096 1108.51 927.249 1114.66 952.609 1115.89 953.762 1122.04 956.067 1129.42 942.234 1140.48 943.387 1147.86 945.693 1155.24 962.984 1156.47 964.136 1162.62 966.442 1170 953.762 1181.06 956.067 1187.21 958.373 1194.59 976.816 1206.88 979.122 1211.8 999.871 1231.48 995.26 1249.92 1004.48 1256.07 1012.55 1262.22 1016.01 1252.38 1028.69 1258.53 1033.3 1258.53 1037.91 1276.97 1044.83 1276.97 1051.74 1278.2 1059.81 1260.99 1066.73 1262.22 1073.65 1262.22 1079.41 1279.43 1086.33 1280.66 1093.24 1280.66 1101.31 1264.68 1109.38 1264.68 1116.3 1265.91 1122.06 1283.12 1130.13 1283.12 1137.05 1283.12 1145.11 1257.3 1152.03 1257.3 1158.95 1258.53 1165.86 1289.27 1172.78 1290.5 1179.7 1290.5 1187.77 1258.53 1194.68 1258.53 1201.6 1258.53 1208.51 1290.5 1215.43 1290.5 1223.5 1290.5 1230.42 1259.76 1238.49 1259.76 1246.55 1259.76 1254.62 1285.58 1261.54 1285.58 1269.61 1285.58 1276.53 1258.53 1283.44 1258.53 1290.36 1258.53 1298.43 1284.35 1305.34 1284.35 1313.41 1284.35 1320.33 1267.14 1328.4 1265.91 1335.31 1265.91 1343.38 1281.89 1351.45 1281.89 1358.37 1280.66 1365.29 1274.51 1372.2 1274.51 1382.58 1273.28 1398.71 1279.43 1412.55 1274.51 1427.53 1269.6 1435.6 1248.69 1447.13 1238.85 1458.66 1227.79 1479.41 1219.18 1481.71 1206.88 1484.02 1195.82 1477.1 1194.59 1484.02 1179.83 1487.47 1173.68 1496.7 1168.77 1499 1161.39 1501.31 1154.01 1488.63 1141.71 1489.78 1134.34 1492.09 1126.96 1509.38 1124.5 1510.53 1118.35 1512.83 1110.97 1497.85 1099.91 1500.15 1092.53 1501.31 1085.15 1525.51 1083.92 1526.67 1076.54 1527.82 1067.93 1505.92 1055.64 1507.07 1048.26 1508.22 1040.88 1532.43 1038.42 1532.43 1032.28 1533.58 1024.9 1507.07 1010.14 1508.22 1002.76 1508.22 996.616 1537.04 995.386 1537.04 989.238 1538.19 981.86 1510.53 967.104 1511.68 960.956 1511.68 953.578 1540.5 952.349 1540.5 944.971 1540.5 937.593 1518.6 926.526 1518.6 920.378 1518.6 913 1534.74 905.622 1534.74 898.244 1534.74 890.866 1518.6 884.718 1518.6 877.34 1518.6 869.963 1533.58 862.585 1533.58 855.207 1533.58 849.059 1526.67 845.37 1525.51 839.221 1524.36 834.303 1525.51 822.007 1522.06 807.251 1518.6 792.495 1508.22 788.806 1499 774.051 1489.78 755.606 1487.47 738.391 1473.64 721.176 1467.88 717.487 1455.2 718.717 1450.59 713.798 1444.82 708.88 1447.13 697.813 1442.52 692.894 1436.75 689.205 1421.77 697.813 1417.16 692.894 1412.55 689.205 1422.92 663.383 1418.31 659.694 1412.55 654.775 1386.03 675.679 1380.27 671.99 1375.66 667.072 1391.8 637.56 1387.19 633.871 1381.42 628.953 1356.06 651.086 1350.3 647.397 1345.69 642.479 1360.67 612.967 1354.91 608.049 1350.3 604.36 1329.55 621.575 1323.79 616.656 1318.02 612.967 1328.4 588.375 1322.63 583.456 1316.87 579.767 1296.12 596.982 1291.51 593.293 1285.75 589.604 1288.05 571.16 1282.29 567.471 1277.68 565.011 1265 576.078 1260.39 572.389 1254.62 568.7 1252.32 557.634 1247.71 553.945 1236.18 550.256 1232.72 551.485 1220.04 550.256 1206.21 547.796 1187.77 535.5 1173.93 545.337 1169.32 547.796 1156.64 566.241 1149.73 568.7 1146.27 572.389 1132.43 571.16 1127.82 576.078 1124.37 579.767 1127.82 588.375 1123.21 593.293 1118.6 596.982 1107.07 598.212 1102.46 603.13 1097.85 608.049 1100.16 615.427 1095.55 620.345 1090.94 624.034 1075.95 616.656 1071.34 621.575 1066.73 626.494 1073.65 642.479 1069.03 647.397 1064.42 651.086 1042.52 635.101 1037.91 640.02 1033.3 643.708 1047.13 669.531 1042.52 674.45 1039.06 679.368 1016.01 662.153 1012.55 665.842 1007.94 670.761 1022.93 695.353 1019.47 700.272 1014.86 703.961 992.954 687.976 988.344 691.665 984.885 696.583 998.718 721.176 995.26 726.094 990.649 729.783 977.969 728.554 973.358 733.472 969.9 738.391 974.511 748.228 971.053 751.917 960.678 772.821 927.249 804.792 916.875 823.236Z" stroke="#333333" stroke-width="2.86476" stroke-linecap="round" stroke-linejoin="round" stroke-miterlimit="10" fill="none" fill-rule="evenodd"/><path d="M1178.39 554.185C1184.16 550.5 1191.07 551.728 1202.6 555.413 1208.36 557.87 1212.97 559.098 1218.74 560.326 1226.81 560.326 1226.81 560.326 1226.81 560.326 1233.72 561.554 1236.03 561.554 1242.94 564.011 1242.94 564.011 1244.1 566.467 1245.25 567.696 1247.55 572.609 1249.86 577.522 1255.62 581.207 1261.39 584.892 1268.3 582.435 1274.06 579.979 1275.22 578.75 1277.52 581.207 1277.52 581.207 1278.68 588.576 1279.83 597.174 1285.59 602.088 1292.51 607.001 1301.73 602.088 1310.95 597.174 1312.1 597.174 1314.41 598.403 1314.41 598.403 1313.26 603.316 1312.1 608.229 1312.1 611.914 1312.1 616.827 1314.41 621.74 1317.87 625.425 1324.78 630.338 1334 626.653 1343.23 621.74 1343.23 621.74 1344.38 624.197 1344.38 625.425 1342.07 631.566 1339.77 638.936 1339.77 643.849 1339.77 648.762 1340.92 652.447 1344.38 654.904 1352.45 661.045 1361.67 654.904 1373.19 648.762 1373.19 648.762 1375.5 648.762 1374.35 649.99 1372.04 656.132 1370.89 663.502 1370.89 668.415 1370.89 673.328 1372.04 677.013 1375.5 679.469 1382.42 685.611 1391.64 680.697 1403.16 674.556 1404.32 673.328 1405.47 673.328 1406.62 672.099 1407.77 672.099 1408.93 673.328 1408.93 674.556 1407.77 679.469 1406.62 684.382 1406.62 689.295 1406.62 694.209 1407.77 697.893 1411.23 701.578 1417 706.491 1425.06 704.035 1431.98 702.807 1431.98 702.807 1433.13 702.807 1434.29 702.807 1434.29 702.807 1436.59 705.263 1436.59 705.263 1437.74 710.176 1438.9 716.318 1444.66 721.231 1449.27 724.916 1455.03 726.144 1460.8 727.372 1463.1 728.6 1465.41 728.6 1466.56 729.829 1474.63 737.198 1478.09 747.025 1481.55 756.851 1483.85 764.22 1487.31 771.59 1490.77 778.96 1495.38 786.33 1499.99 791.243 1503.45 794.927 1508.06 799.841 1511.52 803.525 1512.67 809.667 1514.97 818.265 1514.97 825.634 1516.13 831.776 1516.13 831.776 1516.13 839.146 1517.28 841.602 1517.28 846.515 1519.58 850.2 1521.89 853.885 1523.04 853.885 1523.04 855.113 1523.04 855.113 1521.89 856.341 1520.74 857.57 1519.58 858.798 1514.97 863.711 1509.21 868.624 1509.21 877.222 1509.21 877.222 1509.21 877.222 1509.21 877.222 1509.21 885.82 1514.97 890.733 1520.74 895.646 1521.89 895.646 1523.04 896.875 1524.19 898.103 1523.04 899.331 1521.89 900.56 1520.74 901.788 1514.97 906.701 1509.21 911.614 1509.21 918.984 1509.21 920.212 1509.21 920.212 1509.21 920.212 1509.21 928.81 1516.13 933.723 1523.04 939.865 1524.19 941.093 1525.35 941.093 1526.5 942.321 1525.35 942.321 1524.19 942.321 1523.04 942.321 1513.82 946.006 1502.29 948.462 1502.29 959.517 1502.29 959.517 1502.29 960.745 1502.29 960.745 1502.29 969.343 1509.21 974.256 1518.43 981.626 1519.58 982.854 1521.89 984.083 1523.04 985.311 1521.89 985.311 1520.74 986.539 1520.74 986.539 1510.36 988.996 1499.99 991.452 1498.84 1001.28 1498.84 1002.51 1498.84 1002.51 1498.84 1003.74 1498.84 1011.1 1505.75 1017.25 1514.97 1024.62 1516.13 1025.84 1518.43 1028.3 1519.58 1029.53 1518.43 1029.53 1517.28 1029.53 1517.28 1030.76 1509.21 1033.21 1499.99 1036.9 1497.68 1045.5 1497.68 1046.72 1497.68 1047.95 1497.68 1047.95 1497.68 1056.55 1504.6 1062.69 1510.36 1068.83 1511.52 1070.06 1512.67 1071.29 1514.97 1072.52 1512.67 1073.75 1511.52 1073.75 1510.36 1074.98 1501.14 1077.43 1491.92 1081.12 1490.77 1089.71 1490.77 1090.94 1490.77 1092.17 1490.77 1093.4 1490.77 1099.54 1494.23 1105.68 1497.68 1110.6 1498.84 1111.82 1499.99 1113.05 1499.99 1114.28 1498.84 1115.51 1497.68 1116.74 1496.53 1116.74 1489.61 1120.42 1482.7 1124.11 1481.55 1131.48 1480.39 1132.7 1480.39 1133.93 1480.39 1135.16 1480.39 1141.3 1483.85 1147.44 1487.31 1152.36 1487.31 1154.81 1489.61 1157.27 1489.61 1158.5 1488.46 1159.73 1487.31 1162.18 1485 1163.41 1481.55 1167.1 1478.09 1170.78 1475.78 1175.69 1475.78 1175.69 1475.78 1175.69 1476.94 1174.47 1470.02 1185.52 1471.17 1191.66 1472.32 1197.8 1472.32 1200.26 1473.48 1201.49 1472.32 1203.94 1471.17 1208.86 1461.95 1215 1455.03 1219.91 1450.42 1223.6 1444.66 1227.28 1441.2 1230.97 1435.44 1235.88 1431.98 1240.79 1427.37 1246.93 1421.61 1254.3 1415.84 1261.67 1410.08 1264.13 1402.01 1266.59 1392.79 1265.36 1384.72 1264.13 1372.04 1264.13 1372.04 1264.13 1372.04 1264.13 1372.04 1262.9 1372.04 1264.13 1370.89 1264.13 1366.28 1264.13 1361.67 1266.59 1358.21 1267.82 1355.9 1270.27 1347.84 1267.82 1345.53 1266.59 1340.92 1261.67 1335.16 1255.53 1327.09 1255.53 1320.17 1256.76 1314.41 1262.9 1309.8 1267.82 1308.65 1269.04 1304.03 1267.82 1302.88 1266.59 1297.12 1257.99 1292.51 1248.16 1283.29 1248.16 1274.06 1249.39 1269.45 1257.99 1264.84 1266.59 1263.69 1267.82 1259.08 1269.04 1257.93 1266.59 1253.32 1257.99 1247.55 1249.39 1238.33 1249.39 1238.33 1249.39 1238.33 1249.39 1238.33 1249.39 1229.11 1249.39 1224.5 1259.22 1218.74 1270.27 1217.58 1271.5 1214.13 1271.5 1212.97 1270.27 1208.36 1259.22 1203.75 1249.39 1194.53 1248.16 1185.31 1248.16 1180.7 1259.22 1174.94 1269.04 1174.94 1271.5 1171.48 1270.27 1170.32 1269.04 1165.71 1257.99 1161.1 1248.16 1151.88 1246.93 1142.66 1246.93 1138.05 1255.53 1132.29 1264.13 1131.13 1266.59 1126.52 1267.82 1126.52 1266.59 1121.91 1261.67 1117.3 1255.53 1109.23 1254.3 1101.16 1254.3 1095.4 1260.45 1090.79 1265.36 1089.64 1266.59 1083.87 1265.36 1083.87 1264.13 1079.26 1259.22 1074.65 1251.85 1067.74 1251.85 1059.67 1250.62 1053.9 1257.99 1048.14 1262.9 1048.14 1262.9 1044.68 1262.9 1043.53 1261.67 1040.07 1255.53 1036.61 1249.39 1028.55 1248.16 1029.7 1248.16 1030.85 1248.16 1032 1249.39 1022.78 1244.48 1015.87 1245.71 1012.41 1246.93 1010.1 1248.16 1010.1 1248.16 1010.1 1248.16 1010.1 1248.16 1010.1 1248.16 1010.1 1248.16 1010.1 1248.16 1008.95 1246.93 1008.95 1246.93 1007.8 1246.93 1006.65 1243.25 1006.65 1239.56 1003.19 1230.97 999.729 1218.68 985.897 1205.17 983.592 1201.49 980.134 1197.8 974.37 1192.89 970.912 1190.43 967.454 1186.75 965.149 1184.29 966.302 1183.06 966.302 1181.84 967.454 1180.61 969.76 1175.69 973.218 1169.55 973.218 1163.41 973.218 1162.18 973.218 1160.95 973.218 1159.73 970.912 1152.36 963.996 1148.67 958.233 1146.22 957.08 1146.22 955.928 1141.3 955.928 1140.07 959.386 1136.39 962.844 1130.25 962.844 1122.88 962.844 1121.65 962.844 1120.42 962.844 1119.19 960.538 1110.6 952.47 1108.14 942.096 1105.68 942.096 1105.68 943.248 1102 944.401 1100.77 952.47 1094.63 960.538 1087.26 960.538 1079.89 960.538 1078.66 960.538 1077.43 959.386 1077.43 958.233 1067.61 947.859 1065.15 936.332 1062.69 935.18 1062.69 936.332 1061.46 936.332 1061.46 945.554 1054.09 953.622 1047.95 953.622 1040.58 953.622 1039.36 953.622 1039.36 953.622 1038.13 951.317 1028.3 940.943 1025.84 930.569 1023.39 929.416 1023.39 928.263 1020.93 928.263 1020.93 935.18 1014.79 942.096 1009.88 942.096 1001.28 942.096 1001.28 942.096 1000.05 942.096 1000.05 940.943 990.224 922.5 984.083 922.5 984.083 922.5 984.083 922.5 982.854 923.653 982.854 930.569 977.941 938.638 971.8 938.638 964.43 938.638 963.202 938.638 963.202 938.638 963.202 937.485 954.604 931.721 950.919 929.416 948.462 929.416 948.462 928.263 948.462 928.263 947.234 928.263 946.006 929.416 943.549 930.569 942.321 932.874 937.408 935.18 932.495 935.18 926.353 935.18 926.353 935.18 926.353 935.18 926.353 935.18 917.755 930.569 914.071 927.111 911.614 927.111 911.614 927.111 911.614 927.111 911.614 928.263 911.614 928.263 910.386 928.263 910.386 930.569 906.701 934.027 899.331 934.027 888.277 934.027 888.277 934.027 887.048 934.027 887.048 934.027 879.679 931.721 872.309 929.416 863.711 925.958 853.885 923.653 844.059 923.653 836.689 923.653 833.004 923.653 830.548 924.805 828.091 924.805 828.091 924.805 828.091 924.805 828.091 929.416 820.721 938.638 809.667 949.012 797.384 960.538 783.873 973.218 769.134 978.981 756.851 978.981 758.079 977.828 758.079 977.828 759.307 981.286 755.623 981.286 751.938 981.286 747.025 981.286 745.796 981.286 743.34 981.286 742.111 981.286 742.111 982.439 739.655 983.592 739.655 983.592 739.655 984.744 739.655 985.897 739.655 990.508 738.427 997.424 737.198 1002.03 732.285 1004.34 729.829 1004.34 727.372 1004.34 723.687 1004.34 718.774 1003.19 713.861 1000.88 708.948 1000.88 707.72 1000.88 706.491 1000.88 705.263 999.729 705.263 1000.88 705.263 1002.03 705.263 1011.26 710.176 1019.32 712.633 1025.09 706.491 1027.39 704.035 1028.55 701.578 1028.55 697.893 1028.55 692.98 1027.39 688.067 1025.09 681.926 1025.09 680.697 1025.09 680.697 1026.24 680.697 1035.46 684.382 1043.53 688.067 1049.29 681.926 1051.6 679.469 1052.75 675.784 1052.75 672.099 1052.75 665.958 1050.45 661.045 1049.29 653.675 1048.14 653.675 1049.29 652.447 1049.29 652.447 1059.67 657.36 1068.89 661.045 1075.81 654.904 1079.26 651.219 1079.26 646.306 1079.26 641.393 1079.26 638.936 1079.26 636.479 1079.26 632.795 1078.11 630.338 1081.57 630.338 1082.72 630.338 1088.48 631.566 1096.55 632.795 1102.32 627.881 1106.93 622.968 1108.08 616.827 1108.08 613.142 1108.08 613.142 1106.93 609.457 1111.54 609.457 1112.69 608.229 1115 608.229 1116.15 607.001 1120.76 605.772 1125.37 603.316 1129.98 600.859 1134.59 594.718 1134.59 588.576 1134.59 584.892 1134.59 584.892 1135.74 582.435 1136.9 582.435 1138.05 582.435 1140.36 582.435 1141.51 581.207 1146.12 581.207 1151.88 579.979 1155.34 576.294 1154.19 577.522 1153.03 577.522 1151.88 577.522 1158.8 576.294 1164.56 570.152 1171.48 561.554 1173.78 559.098 1177.24 555.413 1178.39 554.185 1178.39 554.185 1178.39 554.185 1178.39 554.185Z" stroke="#333333" stroke-width="2.86476" stroke-miterlimit="8" fill="none" fill-rule="evenodd"/></g></svg>