<svg width="558" height="981" xmlns="http://www.w3.org/2000/svg" xmlns:xlink="http://www.w3.org/1999/xlink" xml:space="preserve" overflow="hidden"><g transform="translate(-1862 -534)"><path d="M2412.77 633.263C2412.77 686.079 2417.39 874.007 2417.39 1066.85 2417.39 1259.69 2422 1505.35 2313.58 1505.35 2205.16 1505.35 2024.08 1525 1932.96 1500.43 1843 1475.87 1866.07 898.573 1866.07 710.645 1868.37 638.176 1857.99 550.968 1884.52 550.968 1898.36 550.968 1898.36 608.697 1912.2 608.697 1927.2 608.697 1927.2 546.054 1941.04 546.054 1954.88 546.054 1954.88 618.523 1969.87 618.523 1983.71 618.523 1983.71 550.968 1998.71 550.968 2012.55 550.968 2012.55 608.697 2027.54 608.697 2041.38 608.697 2041.38 539.913 2055.22 539.913 2069.06 539.913 2069.06 603.784 2084.06 603.784 2097.9 603.784 2097.9 535 2112.89 535 2126.73 535 2126.73 608.697 2140.57 608.697 2154.41 608.697 2154.41 550.968 2169.41 550.968 2183.25 550.968 2183.25 614.839 2198.24 614.839 2213.24 614.839 2213.24 546.054 2227.08 546.054 2240.92 546.054 2240.92 608.697 2254.76 608.697 2268.6 608.697 2268.6 550.968 2282.44 550.968 2297.43 550.968 2297.43 608.697 2312.43 608.697 2326.27 608.697 2326.27 538.685 2338.96 538.685 2352.8 538.685 2352.8 608.697 2366.64 608.697 2381.63 608.697 2381.63 550.968 2395.47 550.968 2404.7 550.968 2413.93 586.588 2412.77 633.263Z" fill="#E16663" fill-rule="evenodd"/><path d="M2107 571.885C2108.15 565.742 2110.45 557.143 2112.76 551 2113.91 557.143 2116.22 566.971 2117.37 574.342 2121.98 597.683 2125.44 618.567 2140.42 618.567 2154.26 618.567 2158.87 600.14 2163.48 581.713 2164.63 576.799 2166.94 568.199 2169.24 563.285 2170.39 569.428 2172.7 579.255 2175 585.398 2179.62 606.282 2183.07 624.71 2198.06 624.71 2213.04 624.71 2216.5 605.054 2221.11 582.941 2223.42 575.57 2224.57 565.742 2226.88 559.6 2229.18 565.742 2230.33 573.113 2231.49 579.255 2236.1 598.911 2240.71 618.567 2254.54 618.567 2269.52 618.567 2272.98 600.14 2277.59 581.713 2278.75 576.799 2281.05 568.199 2282.2 563.285 2284.51 568.199 2286.81 576.799 2287.97 581.713 2292.58 600.14 2297.19 618.567 2312.17 618.567 2326.01 618.567 2329.46 598.911 2334.08 575.57 2335.23 569.428 2337.53 560.828 2338.69 554.686 2340.99 560.828 2342.14 569.428 2344.45 575.57 2347.91 598.911 2352.52 618.567 2366.35 618.567 2381.34 618.567 2385.95 600.14 2389.4 581.713 2391.71 576.799 2392.86 569.428 2395.17 564.514 2398.63 574.342 2403.24 596.454 2403.24 630.852 2403.24 630.852 2403.24 632.081 2403.24 633.309 2403.24 633.309 2403.24 633.309 2403.24 633.309 2404.39 730.361 2404.39 730.361 2404.39 730.361 2406.69 813.899 2407.85 940.434 2407.85 1066.97 2407.85 1089.08 2407.85 1089.08 2407.85 1089.08 2407.85 1236.5 2409 1419.55 2353.67 1477.29 2342.14 1489.57 2329.46 1495.72 2313.33 1495.72 2281.05 1495.72 2244.17 1496.94 2203.82 1499.4 2108.15 1503.09 1998.64 1508 1935.25 1490.8 1919.11 1487.12 1890.29 1447.8 1877.61 1238.96 1874.15 1162.79 1873 1079.25 1873 999.402 1873 931.834 1873 867.953 1874.15 812.67 1875.31 710.705 1875.31 710.705 1875.31 710.705 1875.31 700.877 1875.31 691.049 1875.31 681.221 1875.31 670.164 1875.31 660.336 1875.31 650.508 1875.31 641.909 1875.31 632.081 1875.31 623.481 1875.31 593.997 1876.46 568.199 1883.37 560.828 1883.37 560.828 1883.37 560.828 1883.37 560.828 1885.68 564.514 1887.99 575.57 1889.14 581.713 1893.75 600.14 1898.36 618.567 1912.19 618.567 1927.18 618.567 1930.63 600.14 1935.25 579.255 1936.4 574.342 1938.7 566.971 1941.01 560.828 1943.31 568.199 1944.47 578.027 1945.62 584.169 1951.38 608.74 1954.84 628.395 1969.83 628.395 1969.83 628.395 1969.83 628.395 1969.83 628.395 1983.66 628.395 1988.27 608.74 1992.88 586.627 1994.03 580.484 1996.34 569.428 1998.64 564.514 2000.95 569.428 2002.1 576.799 2003.25 581.713 2007.86 600.14 2012.48 618.567 2027.46 618.567 2041.29 618.567 2045.9 598.911 2050.51 576.799 2051.67 570.656 2053.97 560.828 2055.12 554.686 2057.43 560.828 2059.74 568.199 2060.89 574.342 2065.5 595.226 2068.96 613.653 2083.94 613.653 2097.77 613.653 2102.39 593.997 2107 571.885Z" fill="#FEE0BB" fill-rule="evenodd"/><path d="M2395.36 1251C2394.2 1297.65 2400 1499 2284 1487.95 2313 1485.5 2343.16 1463.4 2358.24 1433.93 2373.32 1404.47 2391.88 1332.03 2395.36 1251Z" fill="#FFFFFF" fill-rule="evenodd"/><path d="M2407.85 1089.08C2407.85 1066.97 2407.85 1066.97 2407.85 1066.97 2407.85 940.434 2406.69 813.899 2404.39 730.361 2403.24 633.309 2403.24 633.309 2403.24 633.309 2403.24 633.309 2403.24 633.309 2403.24 633.309 2403.24 632.081 2403.24 630.852 2403.24 630.852 2403.24 596.454 2398.63 574.342 2395.17 564.514 2392.86 569.428 2391.71 576.799 2389.4 581.713 2385.95 600.14 2381.34 618.567 2366.35 618.567 2352.52 618.567 2347.91 598.911 2344.45 575.57 2342.14 569.428 2340.99 560.828 2338.69 554.686 2337.53 560.828 2335.23 569.428 2334.08 575.57 2329.46 598.911 2326.01 618.567 2312.17 618.567 2297.19 618.567 2292.58 600.14 2287.97 581.713 2286.81 576.799 2284.51 568.199 2282.2 563.285 2281.05 568.199 2278.75 576.799 2277.59 581.713 2272.98 600.14 2269.52 618.567 2254.54 618.567 2240.71 618.567 2236.1 598.911 2231.49 579.255 2230.33 573.113 2229.18 565.742 2226.88 559.6 2224.57 565.742 2223.42 575.57 2221.11 582.941 2216.5 605.054 2213.04 624.71 2198.06 624.71 2183.07 624.71 2179.62 606.282 2175 585.398 2172.7 579.255 2170.39 569.428 2169.24 563.285 2166.94 568.199 2164.63 576.799 2163.48 581.713 2158.87 600.14 2154.26 618.567 2140.42 618.567 2125.44 618.567 2121.98 597.683 2117.37 574.342 2116.22 566.971 2113.91 557.143 2112.76 551 2110.45 557.143 2108.15 565.742 2107 571.885 2102.39 593.997 2097.77 613.653 2083.94 613.653 2068.96 613.653 2065.5 595.226 2060.89 574.342 2059.74 568.199 2057.43 560.828 2055.12 554.686 2053.97 560.828 2051.67 570.656 2050.51 576.799 2045.9 598.911 2041.29 618.567 2027.46 618.567 2012.48 618.567 2007.86 600.14 2003.25 581.713 2002.1 576.799 2000.95 569.428 1998.64 564.514 1996.34 569.428 1994.03 580.484 1992.88 586.627 1988.27 608.74 1983.66 628.395 1969.83 628.395 1954.84 628.395 1951.38 608.74 1945.62 584.169 1944.47 578.027 1943.31 568.199 1941.01 560.828 1938.7 566.971 1936.4 574.342 1935.25 579.255 1930.63 600.14 1927.18 618.567 1912.19 618.567 1898.36 618.567 1893.75 600.14 1889.14 581.713 1887.99 575.57 1885.68 564.514 1883.37 560.828 1883.37 560.828 1883.37 560.828 1883.37 560.828 1876.46 568.199 1875.31 593.997 1875.31 623.481 1875.31 632.081 1875.31 641.909 1875.31 650.508 1875.31 660.336 1875.31 670.164 1875.31 681.221 1875.31 691.049 1875.31 700.877 1875.31 710.705 1874.15 812.67 1874.15 812.67 1874.15 812.67 1873 867.953 1873 931.834 1873 999.402 1873 1079.25 1874.15 1162.79 1877.61 1238.96 1890.29 1447.8 1919.11 1487.12 1935.25 1490.8 1998.64 1508 2108.15 1503.09 2203.82 1499.4 2244.17 1496.94 2281.05 1495.72 2313.33 1495.72 2329.46 1495.72 2342.14 1489.57 2353.67 1477.29 2409 1419.55 2407.85 1236.5 2407.85 1089.08ZM2347.91 1469.92C2337.53 1480.97 2327.16 1485.89 2313.33 1485.89 2281.05 1485.89 2243.01 1487.12 2203.82 1489.57 2108.15 1493.26 1999.8 1498.17 1937.55 1482.2 1931.79 1479.74 1899.51 1460.09 1886.83 1237.73 1883.37 1172.62 1882.22 1094 1882.22 999.402 1882.22 931.834 1882.22 865.496 1883.37 812.67 1884.53 710.705 1884.53 710.705 1884.53 710.705 1884.53 710.705 1884.53 681.221 1884.53 681.221 1884.53 623.481 1884.53 623.481 1884.53 623.481 1884.53 614.882 1884.53 606.282 1884.53 600.14 1889.14 614.882 1897.21 628.395 1912.19 628.395 1928.33 628.395 1935.25 614.882 1939.86 600.14 1944.47 621.024 1951.38 638.223 1969.83 638.223 1988.27 638.223 1994.03 621.024 1999.8 600.14 2004.41 614.882 2011.32 628.395 2027.46 628.395 2044.75 628.395 2051.67 612.425 2056.28 593.997 2060.89 609.968 2067.8 623.481 2083.94 623.481 2100.08 623.481 2107 609.968 2111.61 592.769 2116.22 611.196 2123.13 628.395 2140.42 628.395 2156.56 628.395 2163.48 614.882 2168.09 598.911 2172.7 617.339 2179.62 634.538 2198.06 634.538 2215.35 634.538 2222.26 618.567 2226.88 598.911 2231.49 614.882 2239.55 628.395 2254.54 628.395 2270.68 628.395 2278.75 613.653 2283.36 598.911 2287.97 613.653 2294.88 628.395 2312.17 628.395 2328.31 628.395 2335.23 614.882 2339.84 597.683 2343.3 614.882 2350.21 628.395 2366.35 628.395 2381.34 628.395 2388.25 617.339 2392.86 603.826 2394.02 612.425 2394.02 621.024 2394.02 630.852 2394.02 633.309 2394.02 633.309 2394.02 633.309 2395.17 730.361 2395.17 730.361 2395.17 730.361 2397.47 813.899 2398.63 940.434 2398.63 1066.97 2398.63 1066.97 2398.63 1103.82 2398.63 1111.2 2398.63 1252.47 2396.32 1418.32 2347.91 1469.92Z" fill="#FDC17D" fill-rule="evenodd"/><path d="M2018 657.922C1969.51 660.383 1902.55 653 1900.24 783.431 1897.93 913.862 1891 1201.8 1907.16 1315 1909.47 1233.79 1904.85 886.792 1921.02 795.736 1937.18 704.68 1939.49 667.766 2018 657.922Z" fill="#FFFFFF" fill-rule="evenodd"/><path d="M2413.27 633.763C2413.27 686.579 2417.89 874.508 2417.89 1067.35 2417.89 1260.19 2422.5 1505.85 2314.08 1505.85 2205.66 1505.85 2024.58 1525.5 1933.46 1500.93 1843.5 1476.37 1866.57 899.073 1866.57 711.145 1868.87 638.676 1858.49 551.468 1885.02 551.468 1898.86 551.468 1898.86 609.197 1912.7 609.197 1927.7 609.197 1927.7 546.555 1941.54 546.555 1955.38 546.555 1955.38 619.024 1970.37 619.024 1984.21 619.024 1984.21 551.468 1999.21 551.468 2013.05 551.468 2013.05 609.197 2028.04 609.197 2041.88 609.197 2041.88 540.413 2055.72 540.413 2069.56 540.413 2069.56 604.284 2084.56 604.284 2098.4 604.284 2098.4 535.5 2113.39 535.5 2127.23 535.5 2127.23 609.197 2141.07 609.197 2154.91 609.197 2154.91 551.468 2169.91 551.468 2183.75 551.468 2183.75 615.339 2198.74 615.339 2213.74 615.339 2213.74 546.555 2227.58 546.555 2241.42 546.555 2241.42 609.197 2255.26 609.197 2269.1 609.197 2269.1 551.468 2282.94 551.468 2297.93 551.468 2297.93 609.197 2312.93 609.197 2326.77 609.197 2326.77 539.185 2339.46 539.185 2353.3 539.185 2353.3 609.197 2367.14 609.197 2382.13 609.197 2382.13 551.468 2395.97 551.468 2405.2 551.468 2414.43 587.088 2413.27 633.763Z" stroke="#333333" stroke-width="2.86476" stroke-linecap="round" stroke-linejoin="round" stroke-miterlimit="10" fill="none" fill-rule="evenodd"/><path d="M2107.5 572.384C2108.65 566.242 2110.95 557.642 2113.26 551.5 2114.41 557.642 2116.72 567.47 2117.87 574.841 2122.48 598.183 2125.94 619.067 2140.92 619.067 2154.76 619.067 2159.37 600.64 2163.98 582.212 2165.13 577.298 2167.44 568.699 2169.74 563.785 2170.89 569.927 2173.2 579.755 2175.5 585.898 2180.11 606.782 2183.57 625.21 2198.56 625.21 2213.54 625.21 2217 605.554 2221.61 583.441 2223.92 576.07 2225.07 566.242 2227.38 560.099 2229.68 566.242 2230.83 573.613 2231.99 579.755 2236.6 599.411 2241.21 619.067 2255.04 619.067 2270.02 619.067 2273.48 600.64 2278.09 582.212 2279.25 577.298 2281.55 568.699 2282.7 563.785 2285.01 568.699 2287.31 577.298 2288.47 582.212 2293.08 600.64 2297.69 619.067 2312.67 619.067 2326.51 619.067 2329.96 599.411 2334.57 576.07 2335.73 569.927 2338.03 561.328 2339.19 555.185 2341.49 561.328 2342.64 569.927 2344.95 576.07 2348.41 599.411 2353.02 619.067 2366.85 619.067 2381.84 619.067 2386.45 600.64 2389.9 582.212 2392.21 577.298 2393.36 569.927 2395.67 565.013 2399.13 574.841 2403.74 596.954 2403.74 631.352 2403.74 631.352 2403.74 632.581 2403.74 633.809 2403.74 633.809 2403.74 633.809 2403.74 633.809 2404.89 730.861 2404.89 730.861 2404.89 730.861 2407.19 814.398 2408.35 940.934 2408.35 1067.47 2408.35 1089.58 2408.35 1089.58 2408.35 1089.58 2408.35 1237 2409.5 1420.05 2354.17 1477.79 2342.64 1490.07 2329.96 1496.21 2313.83 1496.21 2281.55 1496.21 2244.67 1497.44 2204.32 1499.9 2108.65 1503.59 1999.14 1508.5 1935.74 1491.3 1919.61 1487.62 1890.79 1448.3 1878.11 1239.46 1874.65 1163.29 1873.5 1079.75 1873.5 999.902 1873.5 932.334 1873.5 868.452 1874.65 813.17 1875.81 711.205 1875.81 711.205 1875.81 711.205 1875.81 701.377 1875.81 691.549 1875.81 681.721 1875.81 670.664 1875.81 660.836 1875.81 651.008 1875.81 642.409 1875.81 632.581 1875.81 623.981 1875.81 594.497 1876.96 568.699 1883.87 561.328 1883.87 561.328 1883.87 561.328 1883.87 561.328 1886.18 565.013 1888.48 576.07 1889.64 582.212 1894.25 600.64 1898.86 619.067 1912.69 619.067 1927.68 619.067 1931.13 600.64 1935.74 579.755 1936.9 574.841 1939.2 567.47 1941.51 561.328 1943.81 568.699 1944.97 578.527 1946.12 584.669 1951.88 609.239 1955.34 628.895 1970.33 628.895 1970.33 628.895 1970.33 628.895 1970.33 628.895 1984.16 628.895 1988.77 609.239 1993.38 587.126 1994.53 580.984 1996.84 569.927 1999.14 565.013 2001.45 569.927 2002.6 577.298 2003.75 582.212 2008.36 600.64 2012.98 619.067 2027.96 619.067 2041.79 619.067 2046.4 599.411 2051.01 577.298 2052.17 571.156 2054.47 561.328 2055.62 555.185 2057.93 561.328 2060.24 568.699 2061.39 574.841 2066 595.726 2069.46 614.153 2084.44 614.153 2098.27 614.153 2102.88 594.497 2107.5 572.384Z" stroke="#333333" stroke-width="2.86476" stroke-miterlimit="8" fill="none" fill-rule="evenodd"/></g></svg>