<svg width="820" height="634" xmlns="http://www.w3.org/2000/svg" xmlns:xlink="http://www.w3.org/1999/xlink" xml:space="preserve" overflow="hidden"><g transform="translate(-2730 -701)"><path d="M3520.3 912.333C3520.3 922.173 3512.23 927.094 3512.23 936.934 3512.23 946.774 3534.15 951.694 3534.15 961.534 3534.15 971.374 3515.69 972.604 3515.69 982.444 3515.69 992.285 3548 992.285 3548 1002.12 3548 1011.96 3515.69 1011.96 3515.69 1021.81 3515.69 1031.65 3544.54 1031.65 3544.54 1041.49 3544.54 1051.33 3523.77 1051.33 3523.77 1061.17 3523.77 1071.01 3538.77 1071.01 3538.77 1080.85 3538.77 1090.69 3516.84 1084.54 3516.84 1094.38 3516.84 1104.22 3524.92 1107.91 3524.92 1117.75 3524.92 1126.36 3492.61 1146.04 3469.53 1187.86 3445.3 1229.68 3394.52 1250.59 3371.44 1254.28 3359.91 1254.28 3359.91 1285.03 3347.21 1285.03 3335.67 1285.03 3335.67 1264.12 3324.13 1264.12 3311.44 1264.12 3310.29 1299.79 3297.59 1299.79 3286.05 1299.79 3288.36 1283.8 3276.82 1283.8 3264.13 1283.8 3264.13 1314.55 3251.43 1314.55 3239.89 1314.55 3239.89 1276.42 3228.35 1276.42 3216.81 1276.42 3216.81 1325.62 3205.28 1325.62 3192.58 1325.62 3196.04 1301.02 3183.35 1301.02 3171.81 1301.02 3169.5 1333 3156.81 1333 3145.27 1333 3144.12 1293.64 3132.58 1293.64 3121.04 1293.64 3122.19 1333 3110.65 1333 3097.96 1333 3097.96 1302.25 3085.26 1302.25 3073.72 1302.25 3073.72 1325.62 3062.18 1325.62 3050.65 1325.62 3050.65 1276.42 3039.11 1276.42 3026.41 1276.42 3027.57 1298.56 3016.03 1298.56 3003.33 1298.56 3002.18 1271.5 2990.64 1271.5 2979.1 1271.5 2979.1 1282.57 2968.71 1282.57 2957.18 1282.57 2957.18 1264.12 2945.64 1264.12 2914.48 1254.28 2839.47 1245.67 2782.93 1189.09 2769.08 1173.1 2769.08 1149.73 2767.93 1127.59 2767.93 1117.75 2749.46 1116.52 2749.46 1106.68 2749.46 1096.84 2761 1095.61 2761 1085.77 2761 1075.93 2736.77 1078.39 2736.77 1068.55 2736.77 1058.71 2751.77 1058.71 2751.77 1048.87 2751.77 1039.03 2731 1039.03 2731 1029.19 2731 1019.35 2763.31 1019.35 2763.31 1009.5 2763.31 999.665 2731 999.665 2731 988.595 2731 979.984 2747.16 977.524 2747.16 967.684 2747.16 957.844 2731 960.304 2731 950.464 2731 940.624 2758.69 936.934 2758.69 927.094 2758.69 917.253 2746 917.253 2746 907.413 2746 897.573 2765.62 901.263 2767.93 884.043 2774.85 818.852 2836.01 805.322 2844.09 796.711 2852.17 788.101 2849.86 764.731 2864.86 758.581 2879.86 753.661 2884.48 769.651 2904.09 767.191 2915.63 767.191 2915.63 735.21 2927.17 735.21 2939.87 735.21 2939.87 767.191 2951.41 767.191 2962.94 767.191 2962.94 717.99 2975.64 717.99 2987.18 717.99 2987.18 743.821 2998.72 743.821 3011.41 743.821 3011.41 709.38 3022.95 709.38 3035.64 709.38 3035.64 738.901 3047.18 738.901 3058.72 738.901 3058.72 702 3070.26 702 3081.8 702 3084.11 727.83 3095.65 727.83 3108.34 727.83 3106.04 702 3117.57 702 3129.11 702 3132.58 735.21 3144.12 735.21 3155.66 735.21 3153.35 702 3164.89 702 3177.58 702 3179.89 729.06 3192.58 729.06 3204.12 729.06 3200.66 702 3213.35 702 3224.89 702 3226.05 743.821 3237.59 743.821 3250.28 743.821 3247.97 709.38 3260.67 709.38 3272.2 709.38 3272.2 759.811 3284.9 759.811 3295.28 759.811 3294.13 732.75 3304.52 732.75 3316.05 732.75 3318.36 767.191 3328.75 767.191 3340.29 767.191 3341.44 745.051 3352.98 745.051 3363.37 745.051 3369.14 770.881 3379.52 770.881 3401.45 773.341 3456.84 800.401 3476.45 839.762 3494.92 880.353 3520.3 902.493 3520.3 912.333Z" fill="#FA98B6" fill-rule="evenodd"/><path d="M3143.99 744.988C3156.66 744.988 3160.12 730.224 3162.43 721.612 3163.58 719.151 3164.73 715.461 3165.88 713 3167.04 714.23 3169.34 717.921 3170.49 720.382 3175.1 727.764 3180.86 738.836 3192.39 738.836 3203.91 738.836 3208.52 726.533 3210.82 717.921 3211.97 717.921 3211.97 715.461 3211.97 714.23 3214.28 717.921 3215.43 722.842 3216.58 726.533 3221.19 738.836 3225.8 753.6 3237.32 753.6 3251.15 753.6 3254.61 740.067 3258.06 730.224 3258.06 727.764 3259.22 726.533 3259.22 724.073 3261.52 727.764 3262.67 733.915 3263.83 737.606 3267.28 752.37 3270.74 769.594 3284.57 769.594 3296.09 769.594 3300.7 757.291 3303 748.679 3303 747.448 3304.16 746.218 3304.16 744.988 3306.46 747.448 3307.61 751.139 3308.76 753.6 3312.22 763.442 3316.83 776.976 3328.35 776.976 3339.88 776.976 3345.64 767.133 3347.94 760.982 3349.09 759.751 3351.4 756.061 3352.55 756.061 3353.7 757.291 3356.01 760.982 3358.31 763.442 3362.92 770.824 3368.68 780.667 3379.05 780.667 3379.05 780.667 3377.9 780.667 3377.9 779.436 3396.34 783.127 3449.34 807.733 3466.63 844.642 3478.15 866.788 3490.82 884.012 3498.89 897.545 3503.5 902.467 3509.26 909.848 3510.41 913.539 3510.41 914.77 3509.26 916 3506.95 919.691 3504.65 923.382 3502.35 929.533 3502.35 936.915 3502.35 946.758 3510.41 952.909 3517.33 957.83 3518.48 959.061 3520.78 960.291 3523.09 961.521 3521.93 961.521 3520.78 962.751 3519.63 962.751 3515.02 966.442 3505.8 971.364 3505.8 982.436 3505.8 994.739 3518.48 998.43 3528.85 1000.89 3528.85 1000.89 3530 1002.12 3530 1002.12 3530 1002.12 3528.85 1002.12 3528.85 1002.12 3518.48 1005.81 3505.8 1009.5 3505.8 1021.81 3505.8 1034.11 3518.48 1037.8 3526.54 1041.49 3527.7 1041.49 3528.85 1041.49 3530 1042.72 3530 1042.72 3530 1042.72 3528.85 1042.72 3523.09 1045.18 3513.87 1050.1 3513.87 1061.18 3513.87 1071.02 3519.63 1075.94 3524.24 1078.4 3518.48 1079.63 3506.95 1082.09 3506.95 1094.39 3506.95 1103.01 3510.41 1107.93 3512.72 1111.62 3513.87 1114.08 3515.02 1115.31 3515.02 1116.54 3513.87 1119 3508.11 1123.92 3504.65 1127.61 3493.13 1139.92 3474.69 1157.14 3460.86 1182.98 3437.82 1223.58 3388.27 1242.03 3369.83 1244.49 3369.83 1244.49 3370.99 1244.49 3370.99 1244.49 3358.31 1244.49 3353.7 1256.79 3350.25 1266.64 3349.09 1269.1 3347.94 1272.79 3346.79 1275.25 3345.64 1274.02 3344.48 1271.56 3343.33 1270.33 3339.88 1264.18 3334.11 1254.33 3323.74 1254.33 3311.07 1254.33 3306.46 1267.87 3301.85 1277.71 3300.7 1281.4 3298.39 1287.55 3297.24 1288.78 3296.09 1288.78 3296.09 1288.78 3294.94 1286.32 3292.63 1282.63 3286.87 1274.02 3276.5 1274.02 3264.98 1274.02 3259.22 1286.32 3255.76 1294.93 3254.61 1297.39 3253.46 1299.85 3252.3 1302.32 3251.15 1299.85 3250 1294.93 3248.85 1292.47 3245.39 1280.17 3240.78 1266.64 3228.11 1266.64 3215.43 1266.64 3210.82 1282.63 3207.36 1298.62 3206.21 1302.32 3205.06 1308.47 3203.91 1312.16 3203.91 1310.93 3202.76 1310.93 3202.76 1309.7 3200.45 1302.32 3195.84 1291.24 3183.17 1291.24 3171.64 1291.24 3165.88 1303.55 3162.43 1313.39 3161.27 1315.85 3158.97 1319.54 3157.82 1322 3156.66 1318.31 3154.36 1313.39 3153.21 1309.7 3149.75 1297.39 3145.14 1283.86 3132.47 1283.86 3119.79 1283.86 3115.18 1298.62 3112.88 1310.93 3111.73 1313.39 3110.57 1318.31 3109.42 1320.77 3108.27 1318.31 3107.12 1315.85 3105.97 1313.39 3102.51 1304.78 3097.9 1292.47 3085.22 1292.47 3073.7 1292.47 3069.09 1302.32 3065.64 1309.7 3065.64 1310.93 3064.48 1312.16 3063.33 1313.39 3062.18 1309.7 3061.03 1302.32 3059.87 1298.62 3055.27 1282.63 3051.81 1266.64 3039.13 1266.64 3027.61 1266.64 3021.85 1276.48 3019.54 1282.63 3018.39 1283.86 3017.24 1287.55 3016.09 1288.78 3014.94 1286.32 3012.63 1282.63 3011.48 1280.17 3006.87 1272.79 3002.26 1261.72 2990.74 1261.72 2981.52 1261.72 2975.76 1266.64 2973.45 1269.1 2971.15 1271.56 2970 1272.79 2968.84 1272.79 2967.69 1271.56 2965.39 1269.1 2964.24 1267.87 2961.93 1262.95 2956.17 1254.33 2945.8 1254.33 2946.95 1254.33 2948.1 1255.56 2949.26 1255.56 2925.06 1249.41 2925.06 1249.41 2925.06 1249.41 2888.19 1239.57 2832.88 1226.04 2790.24 1182.98 2779.87 1170.67 2778.72 1152.22 2778.72 1133.76 2777.57 1127.61 2777.57 1127.61 2777.57 1127.61 2777.57 1127.61 2777.57 1127.61 2777.57 1127.61 2777.57 1117.77 2769.5 1111.62 2763.74 1109.16 2762.59 1107.93 2760.28 1106.7 2759.13 1105.47 2760.28 1105.47 2760.28 1104.24 2761.44 1104.24 2764.89 1100.55 2770.65 1095.62 2770.65 1085.78 2770.65 1073.48 2759.13 1069.79 2751.07 1068.56 2751.07 1067.33 2749.91 1067.33 2748.76 1067.33 2749.91 1067.33 2749.91 1067.33 2749.91 1067.33 2754.52 1063.64 2761.44 1058.72 2761.44 1048.87 2761.44 1037.8 2752.22 1032.88 2746.46 1030.42 2747.61 1029.19 2748.76 1029.19 2749.91 1029.19 2760.28 1025.5 2772.96 1021.81 2772.96 1009.5 2772.96 997.2 2760.28 993.509 2749.91 989.818 2748.76 989.818 2745.3 988.588 2744.15 987.358 2744.15 987.358 2744.15 987.358 2744.15 987.358 2749.91 983.667 2756.83 978.745 2756.83 967.673 2756.83 956.6 2747.61 952.909 2743 950.448 2745.3 949.218 2747.61 947.988 2748.76 947.988 2757.98 943.067 2768.35 938.145 2768.35 927.073 2768.35 917.23 2761.44 911.079 2757.98 908.618 2757.98 908.618 2757.98 908.618 2757.98 908.618 2757.98 908.618 2757.98 908.618 2757.98 908.618 2763.74 906.158 2775.26 901.236 2777.57 885.242 2782.18 839.721 2815.59 822.497 2836.33 812.655 2843.25 808.964 2847.86 806.503 2851.31 804.042 2855.92 797.891 2858.23 790.509 2859.38 783.127 2861.68 774.515 2863.99 769.594 2867.45 768.364 2872.05 767.133 2873.21 767.133 2878.97 770.824 2884.73 774.515 2892.8 778.206 2905.47 776.976 2904.32 776.976 2904.32 776.976 2904.32 776.976 2915.84 776.976 2920.45 764.673 2925.06 754.83 2925.06 752.37 2926.21 748.679 2927.36 746.218 2928.52 748.679 2929.67 752.37 2930.82 754.83 2934.28 764.673 2938.89 776.976 2951.56 776.976 2964.24 776.976 2968.84 760.982 2972.3 744.988 2973.45 740.067 2974.61 733.915 2976.91 730.224 2976.91 731.454 2978.06 733.915 2979.22 735.145 2982.67 742.527 2987.28 753.6 2998.8 753.6 3011.48 753.6 3016.09 740.067 3019.54 730.224 3020.7 727.764 3021.85 724.073 3024.15 721.612 3024.15 722.842 3026.46 726.533 3026.46 727.764 3029.92 736.376 3034.52 748.679 3047.2 748.679 3059.87 748.679 3063.33 735.145 3066.79 722.842 3067.94 720.382 3070.24 715.461 3071.4 713 3072.55 714.23 3073.7 717.921 3074.85 719.151 3079.46 726.533 3085.22 737.606 3095.59 737.606 3108.27 737.606 3112.88 725.303 3115.18 717.921 3116.34 716.691 3117.49 714.23 3117.49 713 3119.79 715.461 3120.94 719.151 3122.1 722.842 3126.71 732.685 3131.31 744.988 3143.99 744.988Z" fill="#E6F5CA" fill-rule="evenodd"/><path d="M2949.26 1255.56C2948.1 1255.56 2948.1 1255.56 2948.1 1255.56 2946.95 1254.33 2946.95 1254.33 2945.8 1254.33 2946.95 1254.33 2948.1 1255.56 2949.26 1255.56ZM3505.8 1021.81C3505.8 1009.5 3518.48 1005.81 3528.85 1002.12 3528.85 1002.12 3530 1002.12 3530 1002.12 3530 1002.12 3528.85 1000.89 3528.85 1000.89 3518.48 998.43 3505.8 994.739 3505.8 982.436 3505.8 971.364 3515.02 966.442 3519.63 962.751 3520.78 962.751 3521.93 961.521 3523.09 961.521 3520.78 960.291 3518.48 959.061 3517.33 957.83 3510.41 952.909 3502.35 946.758 3502.35 936.915 3502.35 929.533 3504.65 923.382 3506.95 919.691 3509.26 916 3510.41 914.77 3510.41 913.539 3509.26 909.848 3503.5 902.467 3498.89 897.545 3490.82 884.012 3478.15 866.788 3466.63 844.642 3449.34 807.733 3396.34 783.127 3377.9 779.436 3377.9 780.667 3379.05 780.667 3379.05 780.667 3368.68 780.667 3362.92 770.824 3358.31 763.442 3356.01 760.982 3353.7 757.291 3352.55 756.061 3351.4 756.061 3349.09 759.751 3347.94 760.982 3345.64 767.133 3339.88 776.976 3328.35 776.976 3316.83 776.976 3312.22 763.442 3308.76 753.6 3307.61 751.139 3306.46 747.448 3304.16 744.988 3304.16 746.218 3303 747.448 3303 748.679 3300.7 757.291 3296.09 769.594 3284.57 769.594 3270.74 769.594 3267.28 752.37 3263.83 737.606 3262.67 733.915 3261.52 727.764 3259.22 724.073 3259.22 726.533 3258.06 727.764 3258.06 730.224 3254.61 740.067 3251.15 753.6 3237.32 753.6 3225.8 753.6 3221.19 738.836 3216.58 726.533 3215.43 722.842 3214.28 717.921 3211.97 714.23 3211.97 715.461 3211.97 717.921 3210.82 717.921 3208.52 726.533 3203.91 738.836 3192.39 738.836 3180.86 738.836 3175.1 727.764 3170.49 720.382 3169.34 717.921 3167.04 714.23 3165.88 713 3164.73 715.461 3163.58 719.151 3162.43 721.612 3160.12 730.224 3156.66 744.988 3143.99 744.988 3131.31 744.988 3126.71 732.685 3122.1 722.842 3120.94 719.151 3119.79 715.461 3117.49 713 3117.49 714.23 3116.34 716.691 3115.18 717.921 3112.88 725.303 3108.27 737.606 3095.59 737.606 3085.22 737.606 3079.46 726.533 3074.85 719.151 3073.7 717.921 3072.55 714.23 3071.4 713 3070.24 715.461 3067.94 720.382 3066.79 722.842 3063.33 735.145 3059.87 748.679 3047.2 748.679 3034.52 748.679 3029.92 736.376 3026.46 727.764 3026.46 726.533 3024.15 722.842 3024.15 721.612 3021.85 724.073 3020.7 727.764 3019.54 730.224 3016.09 740.067 3011.48 753.6 2998.8 753.6 2987.28 753.6 2982.67 742.527 2979.22 735.145 2978.06 733.915 2976.91 731.454 2976.91 730.224 2974.61 733.915 2973.45 740.067 2972.3 744.988 2968.84 760.982 2964.24 776.976 2951.56 776.976 2938.89 776.976 2934.28 764.673 2930.82 754.83 2929.67 752.37 2928.52 748.679 2927.36 746.218 2926.21 748.679 2925.06 752.37 2925.06 754.83 2920.45 764.673 2915.84 776.976 2904.32 776.976 2904.32 776.976 2904.32 776.976 2905.47 776.976 2892.8 778.206 2884.73 774.515 2878.97 770.824 2873.21 767.133 2872.05 767.133 2867.45 768.364 2863.99 769.594 2861.68 774.515 2859.38 783.127 2858.23 790.509 2855.92 797.891 2851.31 804.042 2847.86 806.503 2843.25 808.964 2836.33 812.655 2815.59 822.497 2782.18 839.721 2777.57 885.242 2775.26 901.236 2763.74 906.158 2757.98 908.618 2757.98 908.618 2757.98 908.618 2757.98 908.618 2757.98 908.618 2757.98 908.618 2757.98 908.618 2761.44 911.079 2768.35 917.23 2768.35 927.073 2768.35 938.145 2757.98 943.067 2748.76 947.988 2747.61 947.988 2745.3 949.218 2743 950.448 2747.61 952.909 2756.83 956.6 2756.83 967.673 2756.83 978.745 2749.91 983.667 2744.15 987.358 2744.15 987.358 2744.15 987.358 2744.15 987.358 2745.3 988.588 2748.76 989.818 2749.91 989.818 2760.28 993.509 2772.96 997.2 2772.96 1009.5 2772.96 1021.81 2760.28 1025.5 2749.91 1029.19 2748.76 1029.19 2747.61 1029.19 2746.46 1030.42 2752.22 1032.88 2761.44 1037.8 2761.44 1048.87 2761.44 1058.72 2754.52 1063.64 2749.91 1067.33 2749.91 1067.33 2749.91 1067.33 2748.76 1067.33 2749.91 1067.33 2751.07 1067.33 2751.07 1068.56 2759.13 1069.79 2770.65 1073.48 2770.65 1085.78 2770.65 1095.62 2764.89 1100.55 2761.44 1104.24 2760.28 1104.24 2760.28 1105.47 2759.13 1105.47 2760.28 1106.7 2762.59 1107.93 2763.74 1109.16 2769.5 1111.62 2777.57 1117.77 2777.57 1127.61 2777.57 1127.61 2777.57 1127.61 2777.57 1127.61 2778.72 1133.76 2778.72 1133.76 2778.72 1133.76 2778.72 1152.22 2779.87 1170.67 2790.24 1182.98 2832.88 1226.04 2888.19 1239.57 2925.06 1249.41 2948.1 1255.56 2948.1 1255.56 2948.1 1255.56 2957.32 1255.56 2961.93 1262.95 2964.24 1267.87 2965.39 1269.1 2967.69 1271.56 2968.84 1272.79 2970 1272.79 2971.15 1271.56 2973.45 1269.1 2975.76 1266.64 2981.52 1261.72 2990.74 1261.72 3002.26 1261.72 3006.87 1272.79 3011.48 1280.17 3012.63 1282.63 3014.94 1286.32 3016.09 1288.78 3017.24 1287.55 3018.39 1283.86 3019.54 1282.63 3021.85 1276.48 3027.61 1266.64 3039.13 1266.64 3051.81 1266.64 3055.27 1282.63 3059.87 1298.62 3061.03 1302.32 3062.18 1309.7 3063.33 1313.39 3064.48 1312.16 3065.64 1310.93 3065.64 1309.7 3069.09 1302.32 3073.7 1292.47 3085.22 1292.47 3097.9 1292.47 3102.51 1304.78 3105.97 1313.39 3107.12 1315.85 3108.27 1318.31 3109.42 1320.77 3110.57 1318.31 3111.73 1313.39 3112.88 1310.93 3115.18 1298.62 3119.79 1283.86 3132.47 1283.86 3145.14 1283.86 3149.75 1297.39 3153.21 1309.7 3154.36 1313.39 3156.66 1318.31 3157.82 1322 3158.97 1319.54 3161.27 1315.85 3162.43 1313.39 3165.88 1303.55 3171.64 1291.24 3183.17 1291.24 3195.84 1291.24 3200.45 1302.32 3202.76 1309.7 3202.76 1310.93 3203.91 1310.93 3203.91 1312.16 3205.06 1308.47 3206.21 1302.32 3207.36 1298.62 3210.82 1282.63 3215.43 1266.64 3228.11 1266.64 3240.78 1266.64 3245.39 1280.17 3248.85 1292.47 3250 1294.93 3251.15 1299.85 3252.3 1302.32 3253.46 1299.85 3254.61 1297.39 3255.76 1294.93 3259.22 1286.32 3264.98 1274.02 3276.5 1274.02 3286.87 1274.02 3292.63 1282.63 3294.94 1286.32 3296.09 1288.78 3296.09 1288.78 3297.24 1288.78 3298.39 1287.55 3300.7 1281.4 3301.85 1277.71 3306.46 1267.87 3311.07 1254.33 3323.74 1254.33 3334.11 1254.33 3339.88 1264.18 3343.33 1270.33 3344.48 1271.56 3345.64 1274.02 3346.79 1275.25 3347.94 1272.79 3349.09 1269.1 3350.25 1266.64 3353.7 1256.79 3358.31 1245.72 3369.83 1244.49 3388.27 1242.03 3437.82 1223.58 3460.86 1182.98 3474.69 1157.14 3493.13 1139.92 3504.65 1127.61 3508.11 1123.92 3513.87 1119 3515.02 1116.54 3515.02 1115.31 3513.87 1114.08 3512.72 1111.62 3510.41 1107.93 3506.95 1103.01 3506.95 1094.39 3506.95 1082.09 3518.48 1079.63 3524.24 1078.4 3519.63 1075.94 3513.87 1071.02 3513.87 1061.18 3513.87 1050.1 3523.09 1045.18 3528.85 1042.72 3530 1042.72 3530 1042.72 3530 1042.72 3528.85 1041.49 3527.7 1041.49 3526.54 1041.49 3518.48 1037.8 3505.8 1034.11 3505.8 1021.81ZM3508.11 1074.71C3500.04 1080.86 3497.74 1088.24 3497.74 1094.39 3497.74 1104.24 3501.19 1110.39 3503.5 1115.31 3501.19 1116.54 3498.89 1119 3497.74 1120.23 3486.21 1132.53 3467.78 1150.99 3452.8 1178.05 3430.9 1216.19 3383.66 1232.19 3368.68 1234.65 3368.68 1234.65 3368.68 1234.65 3368.68 1234.65 3368.68 1234.65 3368.68 1234.65 3368.68 1234.65 3368.68 1234.65 3368.68 1234.65 3367.53 1234.65 3354.86 1235.88 3349.09 1246.95 3344.48 1255.56 3339.88 1250.64 3332.96 1244.49 3323.74 1244.49 3306.46 1244.49 3299.55 1260.48 3294.94 1271.56 3290.33 1267.87 3284.57 1264.18 3276.5 1264.18 3264.98 1264.18 3258.06 1271.56 3253.46 1277.71 3250 1267.87 3241.93 1256.79 3228.11 1256.79 3210.82 1256.79 3205.06 1272.79 3200.45 1288.78 3196.99 1283.86 3191.23 1281.4 3183.17 1281.4 3171.64 1281.4 3163.58 1290.01 3158.97 1297.39 3154.36 1286.32 3147.45 1274.02 3132.47 1274.02 3118.64 1274.02 3111.73 1285.09 3107.12 1294.93 3102.51 1288.78 3095.59 1282.63 3085.22 1282.63 3077.16 1282.63 3071.4 1286.32 3066.79 1290.01 3063.33 1274.02 3057.57 1256.79 3039.13 1256.79 3027.61 1256.79 3020.7 1262.95 3016.09 1269.1 3011.48 1260.48 3003.41 1251.87 2990.74 1251.87 2980.37 1251.87 2974.61 1255.56 2970 1259.25 2966.54 1254.33 2959.63 1246.95 2949.26 1245.72 2946.95 1244.49 2927.36 1239.57 2927.36 1239.57 2891.64 1230.96 2838.64 1217.42 2797.16 1175.59 2789.09 1165.75 2787.94 1149.76 2787.94 1132.53 2786.79 1127.61 2786.79 1127.61 2786.79 1127.61 2786.79 1126.38 2786.79 1126.38 2786.79 1126.38 2786.79 1115.31 2779.87 1107.93 2774.11 1104.24 2777.57 1099.32 2779.87 1094.39 2779.87 1085.78 2779.87 1074.71 2772.96 1067.33 2767.2 1063.64 2769.5 1059.95 2770.65 1055.02 2770.65 1048.87 2770.65 1041.49 2769.5 1036.57 2766.05 1032.88 2774.11 1029.19 2782.18 1021.81 2782.18 1009.5 2782.18 994.739 2771.81 987.358 2761.44 983.667 2763.74 979.976 2766.05 975.055 2766.05 967.673 2766.05 961.521 2763.74 955.37 2761.44 951.679 2768.35 946.758 2777.57 939.376 2777.57 927.073 2777.57 919.691 2775.26 914.77 2772.96 911.079 2778.72 906.158 2784.48 898.776 2786.79 886.473 2790.24 845.873 2820.2 831.109 2839.79 821.267 2847.86 817.576 2853.62 815.115 2857.07 810.194 2863.99 802.812 2866.29 794.2 2868.6 785.588 2869.75 784.358 2870.9 779.436 2870.9 778.206 2872.05 778.206 2874.36 779.436 2874.36 779.436 2881.27 783.127 2891.64 788.048 2905.47 786.818 2905.47 786.818 2906.62 786.818 2906.62 786.818 2906.62 786.818 2906.62 786.818 2906.62 786.818 2906.62 786.818 2906.62 786.818 2906.62 786.818 2916.99 785.588 2923.91 778.206 2927.36 770.824 2931.97 779.436 2938.89 786.818 2951.56 786.818 2968.84 786.818 2975.76 769.594 2979.22 754.83 2983.82 759.751 2990.74 763.442 2998.8 763.442 3012.63 763.442 3019.54 753.6 3024.15 743.758 3028.76 751.139 3035.68 758.521 3047.2 758.521 3062.18 758.521 3069.09 746.218 3073.7 735.145 3078.31 741.297 3085.22 747.448 3095.59 747.448 3107.12 747.448 3112.88 741.297 3117.49 735.145 3122.1 744.988 3130.16 754.83 3143.99 754.83 3157.82 754.83 3164.73 743.758 3168.19 735.145 3173.95 741.297 3180.86 748.679 3192.39 748.679 3200.45 748.679 3207.36 743.758 3210.82 738.836 3215.43 751.139 3222.34 763.442 3237.32 763.442 3247.69 763.442 3253.46 759.751 3258.06 753.6 3262.67 765.903 3269.59 779.436 3284.57 779.436 3293.78 779.436 3299.55 774.515 3304.16 768.364 3308.76 776.976 3315.68 786.818 3328.35 786.818 3341.03 786.818 3347.94 779.436 3352.55 772.055 3357.16 779.436 3365.23 788.048 3376.75 789.279 3376.75 789.279 3376.75 789.279 3376.75 789.279 3376.75 789.279 3376.75 789.279 3376.75 789.279 3376.75 789.279 3376.75 789.279 3376.75 789.279 3394.03 791.739 3443.58 816.345 3458.56 849.564 3470.08 872.939 3482.76 890.164 3491.98 902.467 3494.28 906.158 3497.74 911.079 3500.04 913.539 3500.04 913.539 3500.04 914.77 3500.04 914.77 3496.58 918.461 3493.13 925.842 3493.13 936.915 3493.13 949.218 3500.04 956.6 3505.8 961.521 3501.19 966.442 3496.58 972.594 3496.58 982.436 3496.58 991.048 3501.19 997.2 3506.95 1002.12 3501.19 1005.81 3496.58 1011.96 3496.58 1021.81 3496.58 1034.11 3503.5 1040.26 3510.41 1045.18 3506.95 1048.87 3504.65 1053.79 3504.65 1061.18 3504.65 1066.1 3505.8 1071.02 3508.11 1074.71Z" fill="#C4E688" fill-rule="evenodd"/><path d="M2792 936C2808.17 871.788 2870.54 785.349 3120 773 3080.73 773 2840.51 837.212 2792 936Z" fill="#FFFFFF" fill-rule="evenodd"/><path d="M3498 1119C3484.19 1127.58 3456.57 1166.81 3447.36 1182.74 3438.15 1198.68 3409.38 1223.19 3376 1233 3396.72 1225.65 3423.19 1203.58 3437 1175.39 3450.81 1147.19 3478.43 1127.58 3498 1119Z" fill="#FFFFFF" fill-rule="evenodd"/><path d="M3520.81 912.833C3520.81 922.674 3512.73 927.594 3512.73 937.434 3512.73 947.274 3534.65 952.194 3534.65 962.034 3534.65 971.874 3516.19 973.104 3516.19 982.944 3516.19 992.785 3548.5 992.785 3548.5 1002.62 3548.5 1012.46 3516.19 1012.46 3516.19 1022.31 3516.19 1032.15 3545.04 1032.15 3545.04 1041.99 3545.04 1051.83 3524.27 1051.83 3524.27 1061.67 3524.27 1071.51 3539.27 1071.51 3539.27 1081.35 3539.27 1091.19 3517.34 1085.04 3517.34 1094.88 3517.34 1104.72 3525.42 1108.41 3525.42 1118.25 3525.42 1126.86 3493.11 1146.54 3470.03 1188.36 3445.8 1230.18 3395.02 1251.09 3371.95 1254.78 3360.41 1254.78 3360.41 1285.53 3347.71 1285.53 3336.17 1285.53 3336.17 1264.62 3324.63 1264.62 3311.94 1264.62 3310.79 1300.29 3298.09 1300.29 3286.55 1300.29 3288.86 1284.3 3277.32 1284.3 3264.63 1284.3 3264.63 1315.05 3251.93 1315.05 3240.39 1315.05 3240.39 1276.92 3228.85 1276.92 3217.31 1276.92 3217.31 1326.12 3205.78 1326.12 3193.08 1326.12 3196.54 1301.52 3183.85 1301.52 3172.31 1301.52 3170 1333.5 3157.31 1333.5 3145.77 1333.5 3144.62 1294.14 3133.08 1294.14 3121.54 1294.14 3122.69 1333.5 3111.15 1333.5 3098.46 1333.5 3098.46 1302.75 3085.76 1302.75 3074.22 1302.75 3074.22 1326.12 3062.69 1326.12 3051.15 1326.12 3051.15 1276.92 3039.61 1276.92 3026.91 1276.92 3028.07 1299.06 3016.53 1299.06 3003.83 1299.06 3002.68 1272 2991.14 1272 2979.6 1272 2979.6 1283.07 2969.21 1283.07 2957.68 1283.07 2957.68 1264.62 2946.14 1264.62 2914.98 1254.78 2839.97 1246.17 2783.43 1189.59 2769.58 1173.6 2769.58 1150.23 2768.43 1128.09 2768.43 1118.25 2749.96 1117.02 2749.96 1107.18 2749.96 1097.34 2761.5 1096.11 2761.5 1086.27 2761.5 1076.43 2737.27 1078.89 2737.27 1069.05 2737.27 1059.21 2752.27 1059.21 2752.27 1049.37 2752.27 1039.53 2731.5 1039.53 2731.5 1029.69 2731.5 1019.85 2763.81 1019.85 2763.81 1010 2763.81 1000.16 2731.5 1000.16 2731.5 989.095 2731.5 980.484 2747.66 978.024 2747.66 968.184 2747.66 958.344 2731.5 960.804 2731.5 950.964 2731.5 941.124 2759.19 937.434 2759.19 927.594 2759.19 917.753 2746.5 917.753 2746.5 907.913 2746.5 898.073 2766.12 901.763 2768.43 884.543 2775.35 819.352 2836.51 805.822 2844.59 797.212 2852.67 788.601 2850.36 765.231 2865.36 759.081 2880.36 754.161 2884.98 770.151 2904.59 767.691 2916.13 767.691 2916.13 735.711 2927.67 735.711 2940.37 735.711 2940.37 767.691 2951.91 767.691 2963.44 767.691 2963.44 718.49 2976.14 718.49 2987.68 718.49 2987.68 744.321 2999.22 744.321 3011.91 744.321 3011.91 709.88 3023.45 709.88 3036.14 709.88 3036.14 739.401 3047.68 739.401 3059.22 739.401 3059.22 702.5 3070.76 702.5 3082.3 702.5 3084.61 728.331 3096.15 728.331 3108.84 728.331 3106.54 702.5 3118.07 702.5 3129.61 702.5 3133.08 735.711 3144.62 735.711 3156.16 735.711 3153.85 702.5 3165.39 702.5 3178.08 702.5 3180.39 729.561 3193.08 729.561 3204.62 729.561 3201.16 702.5 3213.85 702.5 3225.39 702.5 3226.55 744.321 3238.09 744.321 3250.78 744.321 3248.47 709.88 3261.17 709.88 3272.7 709.88 3272.7 760.311 3285.4 760.311 3295.78 760.311 3294.63 733.251 3305.02 733.251 3316.56 733.251 3318.86 767.691 3329.25 767.691 3340.79 767.691 3341.94 745.551 3353.48 745.551 3363.87 745.551 3369.64 771.381 3380.02 771.381 3401.95 773.841 3457.34 800.902 3476.95 840.262 3495.42 880.853 3520.81 902.993 3520.81 912.833Z" stroke="#333333" stroke-width="2.86476" stroke-linecap="round" stroke-linejoin="round" stroke-miterlimit="10" fill="none" fill-rule="evenodd"/><path d="M3144.49 745.488C3157.16 745.488 3160.62 730.724 3162.93 722.112 3164.08 719.652 3165.23 715.961 3166.38 713.5 3167.54 714.73 3169.84 718.421 3170.99 720.882 3175.6 728.264 3181.36 739.336 3192.89 739.336 3204.41 739.336 3209.02 727.033 3211.32 718.421 3212.47 718.421 3212.47 715.961 3212.47 714.73 3214.78 718.421 3215.93 723.343 3217.08 727.033 3221.69 739.336 3226.3 754.1 3237.82 754.1 3251.65 754.1 3255.11 740.567 3258.56 730.724 3258.56 728.264 3259.72 727.033 3259.72 724.573 3262.02 728.264 3263.17 734.415 3264.33 738.106 3267.78 752.87 3271.24 770.094 3285.07 770.094 3296.59 770.094 3301.2 757.791 3303.5 749.179 3303.5 747.949 3304.66 746.718 3304.66 745.488 3306.96 747.949 3308.11 751.64 3309.26 754.1 3312.72 763.943 3317.33 777.476 3328.85 777.476 3340.38 777.476 3346.14 767.633 3348.44 761.482 3349.59 760.252 3351.9 756.561 3353.05 756.561 3354.2 757.791 3356.51 761.482 3358.81 763.943 3363.42 771.324 3369.18 781.167 3379.55 781.167 3379.55 781.167 3378.4 781.167 3378.4 779.936 3396.84 783.627 3449.84 808.233 3467.13 845.143 3478.65 867.288 3491.32 884.512 3499.39 898.046 3504 902.967 3509.76 910.349 3510.91 914.039 3510.91 915.27 3509.76 916.5 3507.45 920.191 3505.15 923.882 3502.85 930.033 3502.85 937.415 3502.85 947.258 3510.91 953.409 3517.83 958.33 3518.98 959.561 3521.28 960.791 3523.59 962.021 3522.43 962.021 3521.28 963.252 3520.13 963.252 3515.52 966.942 3506.3 971.864 3506.3 982.936 3506.3 995.239 3518.98 998.93 3529.35 1001.39 3529.35 1001.39 3530.5 1002.62 3530.5 1002.62 3530.5 1002.62 3529.35 1002.62 3529.35 1002.62 3518.98 1006.31 3506.3 1010 3506.3 1022.31 3506.3 1034.61 3518.98 1038.3 3527.04 1041.99 3528.2 1041.99 3529.35 1041.99 3530.5 1043.22 3530.5 1043.22 3530.5 1043.22 3529.35 1043.22 3523.59 1045.68 3514.37 1050.6 3514.37 1061.68 3514.37 1071.52 3520.13 1076.44 3524.74 1078.9 3518.98 1080.13 3507.45 1082.59 3507.45 1094.89 3507.45 1103.51 3510.91 1108.43 3513.22 1112.12 3514.37 1114.58 3515.52 1115.81 3515.52 1117.04 3514.37 1119.5 3508.61 1124.42 3505.15 1128.11 3493.63 1140.42 3475.19 1157.64 3461.36 1183.48 3438.32 1224.08 3388.77 1242.53 3370.33 1244.99 3370.33 1244.99 3371.49 1244.99 3371.49 1244.99 3358.81 1244.99 3354.2 1257.29 3350.75 1267.14 3349.59 1269.6 3348.44 1273.29 3347.29 1275.75 3346.14 1274.52 3344.98 1272.06 3343.83 1270.83 3340.38 1264.68 3334.61 1254.83 3324.24 1254.83 3311.57 1254.83 3306.96 1268.37 3302.35 1278.21 3301.2 1281.9 3298.89 1288.05 3297.74 1289.28 3296.59 1289.28 3296.59 1289.28 3295.44 1286.82 3293.13 1283.13 3287.37 1274.52 3277 1274.52 3265.48 1274.52 3259.72 1286.82 3256.26 1295.43 3255.11 1297.89 3253.96 1300.35 3252.8 1302.82 3251.65 1300.35 3250.5 1295.43 3249.35 1292.97 3245.89 1280.67 3241.28 1267.14 3228.61 1267.14 3215.93 1267.14 3211.32 1283.13 3207.86 1299.12 3206.71 1302.82 3205.56 1308.97 3204.41 1312.66 3204.41 1311.43 3203.26 1311.43 3203.26 1310.2 3200.95 1302.82 3196.34 1291.74 3183.67 1291.74 3172.14 1291.74 3166.38 1304.05 3162.93 1313.89 3161.77 1316.35 3159.47 1320.04 3158.32 1322.5 3157.16 1318.81 3154.86 1313.89 3153.71 1310.2 3150.25 1297.89 3145.64 1284.36 3132.97 1284.36 3120.29 1284.36 3115.68 1299.12 3113.38 1311.43 3112.23 1313.89 3111.07 1318.81 3109.92 1321.27 3108.77 1318.81 3107.62 1316.35 3106.46 1313.89 3103.01 1305.28 3098.4 1292.97 3085.72 1292.97 3074.2 1292.97 3069.59 1302.82 3066.14 1310.2 3066.14 1311.43 3064.98 1312.66 3063.83 1313.89 3062.68 1310.2 3061.53 1302.82 3060.37 1299.12 3055.77 1283.13 3052.31 1267.14 3039.63 1267.14 3028.11 1267.14 3022.35 1276.98 3020.04 1283.13 3018.89 1284.36 3017.74 1288.05 3016.59 1289.28 3015.44 1286.82 3013.13 1283.13 3011.98 1280.67 3007.37 1273.29 3002.76 1262.22 2991.24 1262.22 2982.02 1262.22 2976.26 1267.14 2973.95 1269.6 2971.65 1272.06 2970.5 1273.29 2969.34 1273.29 2968.19 1272.06 2965.89 1269.6 2964.74 1268.37 2962.43 1263.45 2956.67 1254.83 2946.3 1254.83 2947.45 1254.83 2948.6 1256.06 2949.76 1256.06 2925.56 1249.91 2925.56 1249.91 2925.56 1249.91 2888.69 1240.07 2833.38 1226.54 2790.74 1183.48 2780.37 1171.17 2779.22 1152.72 2779.22 1134.26 2778.07 1128.11 2778.07 1128.11 2778.07 1128.11 2778.07 1128.11 2778.07 1128.11 2778.07 1128.11 2778.07 1118.27 2770 1112.12 2764.24 1109.66 2763.09 1108.43 2760.78 1107.2 2759.63 1105.97 2760.78 1105.97 2760.78 1104.74 2761.94 1104.74 2765.39 1101.05 2771.15 1096.12 2771.15 1086.28 2771.15 1073.98 2759.63 1070.29 2751.57 1069.06 2751.57 1067.83 2750.41 1067.83 2749.26 1067.83 2750.41 1067.83 2750.41 1067.83 2750.41 1067.83 2755.02 1064.14 2761.94 1059.22 2761.94 1049.37 2761.94 1038.3 2752.72 1033.38 2746.96 1030.92 2748.11 1029.69 2749.26 1029.69 2750.41 1029.69 2760.78 1026 2773.46 1022.31 2773.46 1010 2773.46 997.7 2760.78 994.009 2750.41 990.318 2749.26 990.318 2745.8 989.088 2744.65 987.858 2744.65 987.858 2744.65 987.858 2744.65 987.858 2750.41 984.167 2757.33 979.245 2757.33 968.173 2757.33 957.1 2748.11 953.409 2743.5 950.948 2745.8 949.718 2748.11 948.488 2749.26 948.488 2758.48 943.567 2768.85 938.646 2768.85 927.573 2768.85 917.73 2761.94 911.579 2758.48 909.118 2758.48 909.118 2758.48 909.118 2758.48 909.118 2758.48 909.118 2758.48 909.118 2758.48 909.118 2764.24 906.658 2775.76 901.736 2778.07 885.742 2782.68 840.221 2816.09 822.997 2836.83 813.155 2843.75 809.464 2848.36 807.003 2851.81 804.542 2856.42 798.391 2858.73 791.009 2859.88 783.627 2862.18 775.015 2864.49 770.094 2867.95 768.864 2872.55 767.633 2873.71 767.633 2879.47 771.324 2885.23 775.015 2893.3 778.706 2905.97 777.476 2904.82 777.476 2904.82 777.476 2904.82 777.476 2916.34 777.476 2920.95 765.173 2925.56 755.33 2925.56 752.87 2926.71 749.179 2927.86 746.718 2929.02 749.179 2930.17 752.87 2931.32 755.33 2934.78 765.173 2939.39 777.476 2952.06 777.476 2964.74 777.476 2969.34 761.482 2972.8 745.488 2973.95 740.567 2975.11 734.415 2977.41 730.724 2977.41 731.955 2978.56 734.415 2979.72 735.646 2983.17 743.027 2987.78 754.1 2999.3 754.1 3011.98 754.1 3016.59 740.567 3020.04 730.724 3021.2 728.264 3022.35 724.573 3024.65 722.112 3024.65 723.343 3026.96 727.033 3026.96 728.264 3030.42 736.876 3035.02 749.179 3047.7 749.179 3060.37 749.179 3063.83 735.646 3067.29 723.343 3068.44 720.882 3070.74 715.961 3071.9 713.5 3073.05 714.73 3074.2 718.421 3075.35 719.652 3079.96 727.033 3085.72 738.106 3096.09 738.106 3108.77 738.106 3113.38 725.803 3115.68 718.421 3116.84 717.191 3117.99 714.73 3117.99 713.5 3120.29 715.961 3121.44 719.652 3122.6 723.343 3127.21 733.185 3131.81 745.488 3144.49 745.488Z" stroke="#333333" stroke-width="2.86476" stroke-miterlimit="8" fill="none" fill-rule="evenodd"/></g></svg>