<svg width="934" height="561" xmlns="http://www.w3.org/2000/svg" xmlns:xlink="http://www.w3.org/1999/xlink" xml:space="preserve" overflow="hidden"><g transform="translate(-1681 -1599)"><path d="M2148.1 2158C2310.7 2158 2613 1942 2613 1881.57 2613 1822.43 2325.15 1600 2148.1 1600 2148.1 1600 2148.1 1600 2148.1 1600 1971.06 1600 1682 1828.86 1682 1881.57 1682 1935.57 1984.3 2158 2148.1 2158Z" fill="#BD3999" fill-rule="evenodd"/><path d="M1691 1881.07C1691 1864.37 1748.83 1800.13 1852.44 1729.48 1964.48 1653.68 2071.7 1610 2147.6 1610 2222.3 1610 2329.52 1652.39 2441.56 1726.91 2546.38 1797.56 2603 1861.8 2603 1881.07 2603 1927.32 2316.27 2147 2147.6 2147 1980.14 2147 1691 1923.46 1691 1881.07Z" fill="#C7EAF2" fill-rule="evenodd"/><path d="M2441.56 1726.91C2329.52 1652.39 2222.3 1610 2147.6 1610 2071.7 1610 1964.48 1653.68 1852.44 1729.48 1748.83 1800.13 1691 1864.37 1691 1881.07 1691 1923.46 1980.14 2147 2147.6 2147 2316.27 2147 2603 1927.32 2603 1881.07 2603 1861.8 2546.38 1797.56 2441.56 1726.91ZM2433.13 2022.39C2322.29 2095.61 2217.48 2136.72 2147.6 2136.72 2077.73 2136.72 1974.12 2094.33 1863.28 2022.39 1759.67 1954.3 1701.84 1893.92 1700.64 1881.07 1703.05 1869.51 1751.24 1810.41 1858.46 1738.47 1969.3 1663.96 2074.11 1620.28 2147.6 1620.28 2221.09 1620.28 2325.91 1662.67 2435.54 1735.9 2545.17 1809.13 2593.36 1869.51 2593.36 1881.07 2593.36 1893.92 2537.94 1954.3 2433.13 2022.39Z" fill="#67C6DD" fill-rule="evenodd"/><path d="M1744 1859C1799.42 1769.29 2021.11 1636 2144 1643.69 1999.42 1671.89 1835.57 1776.98 1744 1859Z" fill="#FFFFFF" fill-rule="evenodd"/><path d="M2281 2104C2310 2098.84 2491.25 1998.3 2542 1939 2532.33 1948.02 2336.58 2087.24 2281 2104Z" fill="#FFFFFF" fill-rule="evenodd"/><path d="M2148.6 2158.5C2311.2 2158.5 2613.5 1942.5 2613.5 1882.07 2613.5 1822.93 2325.65 1600.5 2148.6 1600.5 2148.6 1600.5 2148.6 1600.5 2148.6 1600.5 1971.56 1600.5 1682.5 1829.36 1682.5 1882.07 1682.5 1936.07 1984.8 2158.5 2148.6 2158.5Z" stroke="#333333" stroke-width="2.86476" stroke-linecap="round" stroke-linejoin="round" stroke-miterlimit="10" fill="none" fill-rule="evenodd"/><path d="M1691.5 1881.57C1691.5 1864.87 1749.33 1800.63 1852.94 1729.98 1964.98 1654.18 2072.2 1610.5 2148.1 1610.5 2222.8 1610.5 2330.02 1652.89 2442.06 1727.41 2546.88 1798.06 2603.5 1862.3 2603.5 1881.57 2603.5 1927.82 2316.77 2147.5 2148.1 2147.5 1980.64 2147.5 1691.5 1923.96 1691.5 1881.57Z" stroke="#333333" stroke-width="2.86476" stroke-miterlimit="8" fill="none" fill-rule="evenodd"/></g></svg>