<svg width="541" height="932" xmlns="http://www.w3.org/2000/svg" xmlns:xlink="http://www.w3.org/1999/xlink" xml:space="preserve" overflow="hidden"><g transform="translate(-991 -1186)"><path d="M1210.02 1742.82C1177.51 1761 1153.56 1793.73 1146.71 1831.91 1145 1835.55 1148.42 1841 1151.84 1841 1156.98 1841 1160.4 1839.18 1160.4 1833.73 1167.24 1801 1187.78 1771.91 1216.87 1757.36 1220.29 1755.55 1222 1750.09 1220.29 1746.45 1216.87 1742.82 1213.44 1741 1210.02 1742.82Z" fill="#CAD0E4" fill-rule="evenodd"/><path d="M1144 1856.28C1144 1912.68 1177.93 1961.81 1228.82 1978.18 1232.21 1980 1237.3 1978.18 1239 1972.72 1239 1969.08 1237.3 1965.44 1233.91 1963.62 1189.8 1949.07 1159.27 1905.4 1159.27 1856.28 1159.27 1852.64 1155.88 1849 1152.48 1849 1147.39 1849 1144 1852.64 1144 1856.28Z" fill="#CAD0E4" fill-rule="evenodd"/><path d="M1328.37 1945.67C1307.93 1962.17 1284.07 1969.5 1258.52 1967.67 1255.11 1967.67 1250 1971.33 1250 1976.83 1250 1980.5 1253.41 1984.17 1258.52 1984.17 1285.78 1986 1314.74 1976.83 1336.89 1958.5 1340.3 1954.83 1342 1951.17 1338.59 1947.5 1336.89 1943.83 1331.78 1942 1328.37 1945.67Z" fill="#CAD0E4" fill-rule="evenodd"/><path d="M1367.59 1810.83C1364.11 1810.83 1362.37 1816.31 1362.37 1819.96 1367.59 1832.75 1369.33 1843.71 1369.33 1856.49 1369.33 1885.72 1358.89 1911.29 1341.48 1931.39 1338 1935.04 1338 1940.52 1341.48 1944.17 1344.96 1946 1350.19 1946 1353.67 1942.35 1372.81 1920.43 1385 1889.37 1385 1856.49 1385 1841.88 1381.52 1829.09 1378.04 1814.48 1376.3 1810.83 1372.81 1809 1367.59 1810.83Z" fill="#CAD0E4" fill-rule="evenodd"/><path d="M1237.85 1731.66C1234.43 1731.66 1231 1737.15 1232.71 1740.8 1232.71 1746.29 1237.85 1748.12 1241.28 1748.12 1248.12 1746.29 1256.69 1744.46 1265.25 1744.46 1301.21 1744.46 1333.75 1764.59 1354.3 1797.51 1356.01 1801.17 1361.15 1803 1364.58 1799.34 1368 1797.51 1368 1792.02 1366.29 1788.37 1344.03 1749.95 1306.35 1728 1265.25 1728 1254.97 1728 1246.41 1729.83 1237.85 1731.66Z" fill="#CAD0E4" fill-rule="evenodd"/><path d="M1341.66 1931.12C1358.75 1911.02 1369 1885.42 1369 1856.17 1369 1843.38 1367.29 1832.41 1362.17 1819.61 1362.17 1815.95 1363.87 1812.3 1367.29 1810.47 1363.87 1808.64 1362.17 1804.98 1363.87 1799.5 1358.75 1803.16 1355.33 1801.33 1353.62 1797.67 1333.12 1764.77 1300.65 1744.66 1264.77 1744.66 1256.23 1744.66 1247.69 1746.48 1240.85 1748.31 1237.43 1748.31 1232.31 1746.48 1232.31 1741 1228.89 1744.66 1227.18 1748.31 1220.35 1746.48 1222.06 1750.14 1220.35 1755.63 1216.93 1757.45 1187.88 1772.08 1167.38 1801.33 1160.54 1834.23 1160.54 1839.72 1157.13 1841.55 1152 1841.55 1155.42 1843.38 1155.42 1847.03 1152 1848.86 1155.42 1848.86 1158.83 1852.52 1158.83 1856.17 1158.83 1905.53 1189.59 1949.41 1234.02 1964.03 1237.43 1965.86 1239.14 1969.52 1239.14 1973.17 1242.56 1969.52 1247.69 1971.34 1249.39 1975 1251.1 1971.34 1254.52 1967.69 1257.94 1967.69 1283.57 1969.52 1307.49 1962.2 1327.99 1945.75 1331.41 1942.09 1334.83 1943.92 1338.24 1947.58 1336.54 1943.92 1339.95 1942.09 1341.66 1943.92 1338.24 1940.27 1338.24 1934.78 1341.66 1931.12Z" fill="#738BB9" fill-rule="evenodd"/><path d="M1529 1330.33C1529 1990.91 1529 1990.91 1529 1990.91 1529 2060.26 1477.63 2115 1414.27 2115 1107.73 2115 1107.73 2115 1107.73 2115 1044.37 2115 993 2060.26 993 1990.91 993 1330.33 993 1330.33 993 1330.33 993 1262.82 994.713 1188 1011.84 1188 1028.96 1188 1044.37 1330.33 1061.5 1330.33 1078.62 1330.33 1078.62 1188 1095.75 1188 1112.87 1188 1112.87 1330.33 1130 1330.33 1147.12 1330.33 1147.12 1188 1164.25 1188 1179.66 1188 1179.66 1330.33 1196.78 1330.33 1213.91 1330.33 1213.91 1188 1229.32 1188 1246.44 1188 1246.44 1330.33 1263.57 1330.33 1278.98 1330.33 1278.98 1188 1296.11 1188 1313.23 1188 1313.23 1330.33 1330.35 1330.33 1347.48 1330.33 1347.48 1188 1364.6 1188 1381.73 1188 1381.73 1330.33 1398.85 1330.33 1415.98 1330.33 1415.98 1188 1431.39 1188 1448.51 1188 1448.51 1330.33 1463.93 1330.33 1479.34 1330.33 1493.04 1188 1508.45 1188 1525.58 1188 1529 1266.47 1529 1330.33Z" fill="#FFF4CF" fill-rule="evenodd"/><path d="M1517 1217C1517 1217 1515.29 1258.97 1515.29 1258.97 1515.29 1258.97 1489.59 1547.3 1463.9 1790 1438.21 2032.71 1409.09 2050.96 1299.47 2060.08 1189.85 2069.2 1064.81 2113 1010 2032.71 1028.84 2071.03 1051.11 2096.58 1095.64 2096.58 1400.53 2096.58 1400.53 2096.58 1400.53 2096.58 1463.9 2096.58 1515.29 2041.83 1515.29 1974.31 1515.29 1313.72 1515.29 1313.72 1515.29 1313.72 1515.29 1295.47 1517 1235.25 1517 1217Z" fill="#FFE99E" fill-rule="evenodd"/><path d="M1453.17 2055.52C1520 2008.03 1509.72 1765.14 1514.86 1630 1514.86 1975.16 1514.86 1975.16 1514.86 1975.16 1514.86 2042.73 1463.45 2097.52 1400.04 2097.52 1095 2097.52 1095 2097.52 1095 2097.52 1163.55 2092.04 1386.33 2103 1453.17 2055.52Z" fill="#FEC900" fill-rule="evenodd"/><path d="M1395.14 1832.67C1395.14 1829.02 1391.71 1825.38 1388.29 1827.2 1386.57 1827.2 1386.57 1827.2 1386.57 1827.2 1386.57 1827.2 1386.57 1827.2 1386.57 1827.2 1384.86 1825.38 1383.14 1823.55 1384.86 1818.08 1384.86 1818.08 1384.86 1818.08 1384.86 1818.08 1384.86 1818.08 1384.86 1818.08 1384.86 1818.08 1388.29 1816.26 1386.57 1810.79 1384.86 1807.15 1362.57 1768.87 1323.14 1747 1282 1747 1273.43 1747 1264.86 1747 1254.57 1750.65 1251.14 1750.65 1249.43 1756.11 1249.43 1759.76 1249.43 1759.76 1249.43 1759.76 1249.43 1759.76 1247.71 1763.4 1244.29 1767.05 1237.43 1765.23 1237.43 1765.23 1237.43 1765.23 1237.43 1763.4 1235.71 1759.76 1230.57 1757.94 1227.14 1761.58 1194.57 1777.99 1170.57 1812.62 1163.71 1849.07 1163.71 1854.54 1165.43 1858.18 1170.57 1860.01 1170.57 1860.01 1170.57 1860.01 1170.57 1860.01 1170.57 1860.01 1170.57 1860.01 1170.57 1860.01 1172.29 1861.83 1172.29 1863.65 1170.57 1867.3 1168.86 1867.3 1168.86 1867.3 1168.86 1867.3 1165.43 1867.3 1162 1870.94 1162 1874.59 1162 1931.09 1196.29 1980.3 1247.71 1996.71 1251.14 1998.53 1254.57 1996.71 1256.29 1991.24 1256.29 1991.24 1256.29 1991.24 1256.29 1991.24 1256.29 1991.24 1256.29 1991.24 1256.29 1991.24 1261.43 1987.6 1266.57 1989.42 1268.29 1993.06 1268.29 1993.06 1268.29 1993.06 1268.29 1993.06 1268.29 1998.53 1271.71 2002.18 1275.14 2002.18 1304.29 2004 1331.71 1994.89 1355.71 1976.66 1359.14 1973.01 1359.14 1967.55 1359.14 1967.55 1359.14 1967.55 1359.14 1967.55 1359.14 1967.55 1359.14 1963.9 1360.86 1963.9 1360.86 1963.9 1360.86 1963.9 1367.71 1963.9 1371.14 1960.26 1391.71 1936.56 1402 1907.4 1402 1874.59 1402 1860.01 1400.29 1845.43 1395.14 1832.67Z" fill="#FFE99E" fill-rule="evenodd"/><path d="M1210.02 1742.82C1177.51 1761 1153.56 1793.73 1146.71 1831.91 1145 1835.55 1148.42 1841 1151.84 1841 1156.98 1841 1160.4 1839.18 1160.4 1833.73 1167.24 1801 1187.78 1771.91 1216.87 1757.36 1220.29 1755.55 1222 1750.09 1220.29 1746.45 1216.87 1742.82 1213.44 1741 1210.02 1742.82Z" fill="#CAD0E4" fill-rule="evenodd"/><path d="M1144 1856.28C1144 1912.68 1177.93 1961.81 1228.82 1978.18 1232.21 1980 1237.3 1978.18 1239 1972.72 1239 1969.08 1237.3 1965.44 1233.91 1963.62 1189.8 1949.07 1159.27 1905.4 1159.27 1856.28 1159.27 1852.64 1155.88 1849 1152.48 1849 1147.39 1849 1144 1852.64 1144 1856.28Z" fill="#CAD0E4" fill-rule="evenodd"/><path d="M1334.98 1950.83C1314.38 1967.33 1288.62 1974.67 1264.59 1974.67 1259.43 1972.83 1256 1976.5 1256 1982 1256 1985.67 1259.43 1989.33 1262.87 1991.17 1292.06 1993 1321.25 1982 1343.57 1963.67 1347 1961.83 1347 1956.33 1345.28 1952.67 1341.85 1949 1338.42 1949 1334.98 1950.83Z" fill="#FEC900" fill-rule="evenodd"/><path d="M1374.42 1815.83C1370.96 1817.66 1367.5 1821.32 1369.23 1826.8 1372.69 1837.78 1376.15 1850.58 1376.15 1863.38 1376.15 1890.82 1365.77 1916.42 1348.46 1938.37 1345 1940.2 1345 1945.68 1348.46 1949.34 1351.92 1953 1357.12 1953 1358.85 1949.34 1379.62 1925.57 1390 1894.47 1390 1863.38 1390 1848.75 1388.27 1834.12 1384.81 1821.32 1383.08 1815.83 1377.88 1814 1374.42 1815.83Z" fill="#FEC900" fill-rule="evenodd"/><path d="M1348.66 1938.31C1365.75 1916.47 1376 1890.98 1376 1863.68 1376 1850.94 1372.58 1838.2 1369.17 1827.27 1367.46 1821.81 1370.87 1818.17 1374.29 1816.35 1370.87 1814.53 1369.17 1812.71 1369.17 1807.25 1365.75 1809.07 1362.33 1807.25 1358.91 1803.61 1340.12 1770.84 1307.65 1750.82 1270.06 1750.82 1263.23 1750.82 1254.69 1752.64 1247.85 1754.46 1242.72 1754.46 1239.31 1752.64 1237.6 1749 1235.89 1752.64 1232.47 1756.28 1225.64 1752.64 1227.35 1756.28 1227.35 1761.74 1222.22 1763.56 1194.88 1779.95 1174.38 1807.25 1167.54 1841.84 1167.54 1845.48 1164.13 1849.12 1159 1847.3 1162.42 1850.94 1160.71 1852.76 1159 1854.58 1162.42 1854.58 1165.83 1858.22 1165.83 1863.68 1165.83 1912.83 1194.88 1954.7 1239.31 1969.26 1244.43 1971.08 1246.14 1974.72 1244.43 1978.36 1249.56 1976.54 1254.69 1976.54 1256.39 1982 1256.39 1976.54 1259.81 1972.9 1264.94 1974.72 1288.86 1974.72 1314.49 1967.44 1334.99 1951.05 1338.41 1949.23 1341.83 1949.23 1345.24 1952.88 1343.54 1949.23 1346.95 1947.41 1348.66 1949.23 1345.24 1945.59 1345.24 1940.13 1348.66 1938.31Z" fill="#FEC900" fill-rule="evenodd"/><path d="M1328.37 1945.67C1307.93 1962.17 1284.07 1969.5 1258.52 1967.67 1255.11 1967.67 1250 1971.33 1250 1976.83 1250 1980.5 1253.41 1984.17 1258.52 1984.17 1285.78 1986 1314.74 1976.83 1336.89 1958.5 1340.3 1954.83 1342 1951.17 1338.59 1947.5 1336.89 1943.83 1331.78 1942 1328.37 1945.67Z" fill="#CAD0E4" fill-rule="evenodd"/><path d="M1367.59 1810.83C1364.11 1810.83 1362.37 1816.31 1362.37 1819.96 1367.59 1832.75 1369.33 1843.71 1369.33 1856.49 1369.33 1885.72 1358.89 1911.29 1341.48 1931.39 1338 1935.04 1338 1940.52 1341.48 1944.17 1344.96 1946 1350.19 1946 1353.67 1942.35 1372.81 1920.43 1385 1889.37 1385 1856.49 1385 1841.88 1381.52 1829.09 1378.04 1814.48 1376.3 1810.83 1372.81 1809 1367.59 1810.83Z" fill="#CAD0E4" fill-rule="evenodd"/><path d="M1237.85 1731.66C1234.43 1731.66 1231 1737.15 1232.71 1740.8 1232.71 1746.29 1237.85 1748.12 1241.28 1748.12 1248.12 1746.29 1256.69 1744.46 1265.25 1744.46 1301.21 1744.46 1333.75 1764.59 1354.3 1797.51 1356.01 1801.17 1361.15 1803 1364.58 1799.34 1368 1797.51 1368 1792.02 1366.29 1788.37 1344.03 1749.95 1306.35 1728 1265.25 1728 1254.97 1728 1246.41 1729.83 1237.85 1731.66Z" fill="#CAD0E4" fill-rule="evenodd"/><path d="M1341.66 1931.12C1358.75 1911.02 1369 1885.42 1369 1856.17 1369 1843.38 1367.29 1832.41 1362.17 1819.61 1362.17 1815.95 1363.87 1812.3 1367.29 1810.47 1363.87 1808.64 1362.17 1804.98 1363.87 1799.5 1358.75 1803.16 1355.33 1801.33 1353.62 1797.67 1333.12 1764.77 1300.65 1744.66 1264.77 1744.66 1256.23 1744.66 1247.69 1746.48 1240.85 1748.31 1237.43 1748.31 1232.31 1746.48 1232.31 1741 1228.89 1744.66 1227.18 1748.31 1220.35 1746.48 1222.06 1750.14 1220.35 1755.63 1216.93 1757.45 1187.88 1772.08 1167.38 1801.33 1160.54 1834.23 1160.54 1839.72 1157.13 1841.55 1152 1841.55 1155.42 1843.38 1155.42 1847.03 1152 1848.86 1155.42 1848.86 1158.83 1852.52 1158.83 1856.17 1158.83 1905.53 1189.59 1949.41 1234.02 1964.03 1237.43 1965.86 1239.14 1969.52 1239.14 1973.17 1242.56 1969.52 1247.69 1971.34 1249.39 1975 1251.1 1971.34 1254.52 1967.69 1257.94 1967.69 1283.57 1969.52 1307.49 1962.2 1327.99 1945.75 1331.41 1942.09 1334.83 1943.92 1338.24 1947.58 1336.54 1943.92 1339.95 1942.09 1341.66 1943.92 1338.24 1940.27 1338.24 1934.78 1341.66 1931.12Z" fill="#5174AA" fill-rule="evenodd"/><path d="M1182.86 1892.26C1182.86 1828.48 1230.86 1779.27 1289.14 1779.27 1318.29 1779.27 1345.71 1792.03 1364.57 1812.07 1366.29 1812.07 1366.29 1810.25 1368 1810.25 1364.57 1808.43 1362.86 1804.79 1364.57 1799.32 1359.43 1802.96 1356 1801.14 1354.29 1797.5 1333.71 1764.69 1301.14 1744.65 1265.14 1744.65 1256.57 1744.65 1248 1746.47 1241.14 1748.29 1237.71 1748.29 1232.57 1746.47 1232.57 1741 1229.14 1744.65 1227.43 1748.29 1220.57 1746.47 1222.29 1750.11 1220.57 1755.58 1217.14 1757.4 1188 1771.98 1167.43 1801.14 1160.57 1833.94 1160.57 1839.41 1157.14 1841.23 1152 1841.23 1155.43 1843.06 1155.43 1846.7 1152 1848.52 1155.43 1848.52 1158.86 1852.17 1158.86 1855.81 1158.86 1886.79 1170.86 1915.95 1191.43 1936 1184.57 1923.24 1182.86 1906.84 1182.86 1892.26Z" fill="#005192" fill-rule="evenodd"/><path d="M1357.16 1836.36C1355.45 1830.91 1355.45 1827.27 1353.74 1825.45 1353.74 1820 1364 1854.55 1343.48 1896.36 1326.38 1929.09 1293.89 1952.73 1256.27 1952.73 1230.62 1952.73 1210.1 1941.82 1193 1925.45 1210.1 1947.27 1235.75 1960 1263.11 1960 1316.12 1960 1358.87 1914.55 1358.87 1858.18 1358.87 1850.91 1358.87 1843.64 1357.16 1836.36Z" fill="#A7B2D2" fill-rule="evenodd"/><path d="M1243 1733.69C1266.84 1730 1321.34 1731.85 1352 1778 1338.38 1757.69 1295.8 1731.85 1243 1733.69Z" fill="#FFFFFF" fill-rule="evenodd"/><path d="M1345 1933C1374.04 1896.33 1377.46 1852.33 1368.92 1823 1380.88 1850.5 1386 1879.83 1345 1933Z" fill="#FFFFFF" fill-rule="evenodd"/><path d="M1258 1972.6C1273.37 1978 1307.51 1974.4 1328 1951 1317.76 1956.4 1307.51 1972.6 1258 1972.6Z" fill="#FFFFFF" fill-rule="evenodd"/><path d="M1168 1916C1173.08 1930.57 1190.03 1959.71 1229 1967 1215.44 1959.71 1193.42 1954.25 1168 1916Z" fill="#FFFFFF" fill-rule="evenodd"/><path d="M1432.39 1214C1435.78 1237.64 1440.87 1286.73 1444.26 1314 1449.35 1341.27 1461.22 1346.73 1468 1346.73 1442.57 1354 1432.39 1348.55 1430.7 1312.18 1429 1274 1432.39 1214 1432.39 1214Z" fill="#FFE99E" fill-rule="evenodd"/><path d="M1417.47 1299C1417.47 1315.71 1408.94 1341.71 1397 1341.71 1412.35 1351 1426 1336.14 1417.47 1299Z" fill="#FFFFFF" fill-rule="evenodd"/><path d="M1365.5 1214C1369 1237.64 1374.25 1286.73 1379.5 1314 1384.75 1341.27 1397 1346.73 1404 1346.73 1376 1354 1367.25 1348.55 1363.75 1312.18 1362 1274 1365.5 1214 1365.5 1214Z" fill="#FFE99E" fill-rule="evenodd"/><path d="M1352.18 1299C1350.41 1315.71 1343.35 1341.71 1331 1341.71 1346.88 1351 1361 1336.14 1352.18 1299Z" fill="#FFFFFF" fill-rule="evenodd"/><path d="M1297.42 1214C1300.83 1237.64 1305.96 1286.73 1311.08 1314 1316.21 1341.27 1328.17 1346.73 1335 1346.73 1309.38 1354 1299.12 1348.55 1297.42 1312.18 1294 1274 1297.42 1214 1297.42 1214Z" fill="#FFE99E" fill-rule="evenodd"/><path d="M1284.18 1299C1282.41 1315.71 1275.35 1341.71 1263 1341.71 1278.88 1351 1293 1336.14 1284.18 1299Z" fill="#FFFFFF" fill-rule="evenodd"/><path d="M1232.42 1214C1237.54 1237.64 1240.96 1286.73 1246.08 1314 1251.21 1341.27 1263.17 1346.73 1270 1346.73 1244.38 1354 1234.12 1348.55 1232.42 1312.18 1229 1274 1232.42 1214 1232.42 1214Z" fill="#FFE99E" fill-rule="evenodd"/><path d="M1218.47 1299C1216.76 1315.71 1209.94 1341.71 1198 1341.71 1213.35 1351 1227 1336.14 1218.47 1299Z" fill="#FFFFFF" fill-rule="evenodd"/><path d="M1166 1214C1169.33 1237.64 1172.67 1286.73 1177.67 1314 1182.67 1341.27 1194.33 1346.73 1201 1346.73 1176 1354 1166 1348.55 1164.33 1312.18 1161 1274 1166 1214 1166 1214Z" fill="#FFE99E" fill-rule="evenodd"/><path d="M1150.47 1299C1148.76 1315.71 1141.94 1341.71 1130 1341.71 1145.35 1351 1159 1336.14 1150.47 1299Z" fill="#FFFFFF" fill-rule="evenodd"/><path d="M1097.42 1214C1100.83 1237.64 1105.96 1286.73 1111.08 1314 1116.21 1341.27 1128.17 1346.73 1135 1346.73 1109.38 1354 1099.13 1348.55 1097.42 1312.18 1094 1274 1097.42 1214 1097.42 1214Z" fill="#FFE99E" fill-rule="evenodd"/><path d="M1083.47 1299C1081.76 1315.71 1074.94 1341.71 1063 1341.71 1078.35 1351 1092 1336.14 1083.47 1299Z" fill="#FFFFFF" fill-rule="evenodd"/><path d="M1012 1207C1015.38 1230.59 1033.94 1283.22 1037.31 1310.44 1042.38 1337.67 1059.25 1346.74 1066 1346.74 1040.69 1354 1028.88 1348.56 1022.12 1312.26 1015.38 1274.15 1012 1207 1012 1207Z" fill="#FFE99E" fill-rule="evenodd"/><path d="M1529.5 1330.83C1529.5 1991.41 1529.5 1991.41 1529.5 1991.41 1529.5 2060.76 1478.13 2115.5 1414.77 2115.5 1108.23 2115.5 1108.23 2115.5 1108.23 2115.5 1044.87 2115.5 993.5 2060.76 993.5 1991.41 993.5 1330.83 993.5 1330.83 993.5 1330.83 993.5 1263.32 995.212 1188.5 1012.34 1188.5 1029.46 1188.5 1044.87 1330.83 1062 1330.83 1079.12 1330.83 1079.12 1188.5 1096.25 1188.5 1113.37 1188.5 1113.37 1330.83 1130.5 1330.83 1147.62 1330.83 1147.62 1188.5 1164.75 1188.5 1180.16 1188.5 1180.16 1330.83 1197.28 1330.83 1214.41 1330.83 1214.41 1188.5 1229.82 1188.5 1246.94 1188.5 1246.94 1330.83 1264.07 1330.83 1279.48 1330.83 1279.48 1188.5 1296.61 1188.5 1313.73 1188.5 1313.73 1330.83 1330.85 1330.83 1347.98 1330.83 1347.98 1188.5 1365.1 1188.5 1382.23 1188.5 1382.23 1330.83 1399.35 1330.83 1416.48 1330.83 1416.48 1188.5 1431.89 1188.5 1449.01 1188.5 1449.01 1330.83 1464.43 1330.83 1479.84 1330.83 1493.54 1188.5 1508.95 1188.5 1526.07 1188.5 1529.5 1266.97 1529.5 1330.83Z" stroke="#000000" stroke-width="5.15643" stroke-linecap="round" stroke-linejoin="round" stroke-miterlimit="10" fill="none" fill-rule="evenodd"/><path d="M1210.52 1743.32C1178.01 1761.5 1154.06 1794.23 1147.21 1832.41 1145.5 1836.05 1148.92 1841.5 1152.34 1841.5 1157.48 1841.5 1160.9 1839.68 1160.9 1834.23 1167.74 1801.5 1188.28 1772.41 1217.37 1757.86 1220.79 1756.05 1222.5 1750.59 1220.79 1746.95 1217.37 1743.32 1213.94 1741.5 1210.52 1743.32Z" stroke="#707173" stroke-width="3.4375" stroke-linecap="round" stroke-linejoin="round" stroke-miterlimit="10" fill="none" fill-rule="evenodd"/><path d="M1144.5 1856.78C1144.5 1913.18 1178.43 1962.31 1229.32 1978.68 1232.71 1980.5 1237.8 1978.68 1239.5 1973.22 1239.5 1969.58 1237.8 1965.94 1234.41 1964.12 1190.3 1949.57 1159.77 1905.9 1159.77 1856.78 1159.77 1853.14 1156.37 1849.5 1152.98 1849.5 1147.89 1849.5 1144.5 1853.14 1144.5 1856.78Z" stroke="#707173" stroke-width="3.4375" stroke-linecap="round" stroke-linejoin="round" stroke-miterlimit="10" fill="none" fill-rule="evenodd"/><path d="M1328.87 1946.17C1308.43 1962.67 1284.57 1970 1259.02 1968.17 1255.61 1968.17 1250.5 1971.83 1250.5 1977.33 1250.5 1981 1253.91 1984.67 1259.02 1984.67 1286.28 1986.5 1315.24 1977.33 1337.39 1959 1340.8 1955.33 1342.5 1951.67 1339.09 1948 1337.39 1944.33 1332.28 1942.5 1328.87 1946.17Z" stroke="#707173" stroke-width="3.4375" stroke-linecap="round" stroke-linejoin="round" stroke-miterlimit="10" fill="none" fill-rule="evenodd"/><path d="M1368.09 1811.33C1364.61 1811.33 1362.87 1816.81 1362.87 1820.46 1368.09 1833.25 1369.83 1844.21 1369.83 1856.99 1369.83 1886.22 1359.39 1911.79 1341.98 1931.89 1338.5 1935.54 1338.5 1941.02 1341.98 1944.67 1345.46 1946.5 1350.69 1946.5 1354.17 1942.85 1373.32 1920.93 1385.5 1889.87 1385.5 1856.99 1385.5 1842.38 1382.02 1829.59 1378.54 1814.98 1376.8 1811.33 1373.32 1809.5 1368.09 1811.33Z" stroke="#707173" stroke-width="3.4375" stroke-linecap="round" stroke-linejoin="round" stroke-miterlimit="10" fill="none" fill-rule="evenodd"/><path d="M1238.35 1732.16C1234.93 1732.16 1231.5 1737.65 1233.21 1741.3 1233.21 1746.79 1238.35 1748.62 1241.78 1748.62 1248.63 1746.79 1257.19 1744.96 1265.75 1744.96 1301.71 1744.96 1334.25 1765.09 1354.8 1798.01 1356.51 1801.67 1361.65 1803.5 1365.07 1799.84 1368.5 1798.01 1368.5 1792.52 1366.79 1788.87 1344.52 1750.45 1306.85 1728.5 1265.75 1728.5 1255.48 1728.5 1246.91 1730.33 1238.35 1732.16Z" stroke="#707173" stroke-width="3.4375" stroke-linecap="round" stroke-linejoin="round" stroke-miterlimit="10" fill="none" fill-rule="evenodd"/><path d="M1342.16 1931.62C1359.25 1911.52 1369.5 1885.92 1369.5 1856.67 1369.5 1843.87 1367.79 1832.91 1362.67 1820.11 1362.67 1816.45 1364.37 1812.8 1367.79 1810.97 1364.37 1809.14 1362.67 1805.48 1364.37 1800 1359.25 1803.66 1355.83 1801.83 1354.12 1798.17 1333.62 1765.27 1301.15 1745.16 1265.27 1745.16 1256.73 1745.16 1248.19 1746.98 1241.35 1748.81 1237.93 1748.81 1232.81 1746.98 1232.81 1741.5 1229.39 1745.16 1227.68 1748.81 1220.85 1746.98 1222.56 1750.64 1220.85 1756.12 1217.43 1757.95 1188.38 1772.58 1167.88 1801.83 1161.04 1834.73 1161.04 1840.22 1157.63 1842.05 1152.5 1842.05 1155.92 1843.87 1155.92 1847.53 1152.5 1849.36 1155.92 1849.36 1159.33 1853.02 1159.33 1856.67 1159.33 1906.03 1190.09 1949.91 1234.52 1964.53 1237.93 1966.36 1239.64 1970.02 1239.64 1973.67 1243.06 1970.02 1248.19 1971.84 1249.89 1975.5 1251.6 1971.84 1255.02 1968.19 1258.44 1968.19 1284.07 1970.02 1307.99 1962.7 1328.49 1946.25 1331.91 1942.59 1335.33 1944.42 1338.74 1948.08 1337.04 1944.42 1340.45 1942.59 1342.16 1944.42 1338.74 1940.77 1338.74 1935.28 1342.16 1931.62Z" stroke="#707173" stroke-width="3.4375" stroke-linecap="round" stroke-linejoin="round" stroke-miterlimit="10" fill="none" fill-rule="evenodd"/><path d="M1027.19 1829.81C1051.15 1769.6 1023.77 1656.49 1025.48 1588.99 1027.19 1543.38 1013.5 1417.49 1042.59 1377.35 1090.51 1313.5 1275.32 1371.88 1343.77 1366.41 1391.69 1360.93 1431.05 1342.69 1463.56 1381 1496.08 1415.67 1496.08 1475.87 1496.08 1523.31 1499.5 1658.31 1494.37 1793.32 1492.65 1926.5" stroke="#8EC58C" stroke-width="3.4375" stroke-linecap="round" stroke-linejoin="round" stroke-miterlimit="10" fill="none" fill-rule="evenodd"/><path d="M1012.5 1217.5C1003.75 1232.11 1009 1263.14 1009 1281.4 1009 1306.96 1007.25 1332.52 1007.25 1358.08 1007.25 1421.99 1007.25 1485.89 1007.25 1549.79 1007.25 1588.13 1002 1624.65 1000.25 1662.99 998.5 1695.85 1005.5 1746.97 1003.75 1781.66 998.5 1847.39 1003.75 1916.77 1007.25 1982.5" stroke="#8EC58C" stroke-width="3.4375" stroke-linecap="round" stroke-linejoin="round" stroke-miterlimit="10" fill="none" fill-rule="evenodd"/><path d="M1017.22 1767.5C1017.22 1718.15 1010.5 1670.62 1013.86 1621.27 1017.22 1579.23 1022.26 1540.85 1018.9 1500.64 1015.54 1482.36 1012.18 1467.73 1013.86 1447.63 1017.22 1433.01 1018.9 1418.38 1020.58 1401.93 1020.58 1370.86 1015.54 1339.79 1015.54 1306.88 1015.54 1295.92 1012.18 1277.64 1020.58 1268.5 1028.98 1273.98 1030.66 1356.24 1052.5 1336.13" stroke="#8EC58C" stroke-width="3.4375" stroke-linecap="round" stroke-linejoin="round" stroke-miterlimit="10" fill="none" fill-rule="evenodd"/><path d="M1027.33 1367.5C1029.04 1352.85 1020.5 1336.38 1022.21 1319.9 1035.88 1323.56 1034.17 1347.36 1047.83 1349.19 1058.08 1349.19 1071.75 1334.55 1076.88 1329.05 1095.67 1303.42 1076.88 1268.64 1095.67 1248.5 1102.5 1277.79 1092.25 1323.56 1121.29 1338.21 1164 1362.01 1155.46 1323.56 1157.17 1290.61 1158.88 1261.32 1167.42 1274.13 1169.12 1294.27 1170.83 1312.58 1170.83 1338.21 1189.62 1343.7 1223.79 1352.85 1216.96 1274.13 1225.5 1252.16" stroke="#8EC58C" stroke-width="3.4375" stroke-linecap="round" stroke-linejoin="round" stroke-miterlimit="10" fill="none" fill-rule="evenodd"/><path d="M1231.23 1230.5C1246.56 1261.63 1212.5 1333.04 1256.78 1345.85 1301.06 1360.5 1277.22 1265.29 1294.25 1245.15 1312.98 1248.81 1306.17 1279.94 1306.17 1294.58 1307.87 1316.56 1314.69 1329.37 1321.5 1347.68" stroke="#8EC58C" stroke-width="3.4375" stroke-linecap="round" stroke-linejoin="round" stroke-miterlimit="10" fill="none" fill-rule="evenodd"/><path d="M1282.5 1343.75C1301.26 1334.62 1292.74 1290.78 1291.03 1274.34 1291.03 1257.9 1292.74 1245.11 1297.85 1230.5 1308.09 1246.94 1299.56 1276.17 1299.56 1294.43 1297.85 1314.53 1313.21 1367.5 1340.5 1341.93" stroke="#8EC58C" stroke-width="3.4375" stroke-linecap="round" stroke-linejoin="round" stroke-miterlimit="10" fill="none" fill-rule="evenodd"/><path d="M1342.5 1340.19C1354.5 1329.27 1356.21 1292.86 1359.64 1274.65 1361.36 1261.91 1357.93 1240.06 1364.79 1232.78 1368.21 1250.99 1366.5 1362.04 1402.5 1343.83 1433.36 1329.27 1419.64 1254.63 1431.64 1225.5 1436.79 1243.71 1436.79 1267.37 1440.21 1287.4 1443.64 1305.6 1440.21 1327.45 1457.36 1338.37 1500.21 1363.86 1495.07 1250.99 1513.93 1238.24 1522.5 1250.99 1515.64 1276.47 1515.64 1292.86 1515.64 1314.71 1517.36 1345.65 1512.21 1367.5" stroke="#8EC58C" stroke-width="3.4375" stroke-linecap="round" stroke-linejoin="round" stroke-miterlimit="10" fill="none" fill-rule="evenodd"/><path d="M1251.5 1334.8C1261.78 1340.27 1266.92 1343.91 1278.91 1345.73 1289.2 1347.55 1297.76 1354.84 1306.33 1354.84 1328.6 1358.48 1356.02 1336.62 1356.02 1311.12 1373.15 1303.83 1361.16 1343.91 1373.15 1353.02 1381.72 1358.48 1407.42 1353.02 1415.99 1345.73 1431.41 1332.98 1426.27 1312.94 1426.27 1292.9 1426.27 1269.22 1429.7 1249.18 1433.12 1225.5 1448.54 1245.54 1417.7 1378.52 1465.68 1363.95 1510.23 1351.2 1493.09 1263.76 1505.09 1230.97 1532.5 1243.72 1503.37 1320.23 1498.23 1342.09 1496.52 1360.31 1499.95 1374.88 1499.95 1391.28 1501.66 1402.21 1498.23 1411.31 1499.95 1422.24 1501.66 1436.82 1510.23 1444.1 1503.37 1460.5" stroke="#8EC58C" stroke-width="3.4375" stroke-linecap="round" stroke-linejoin="round" stroke-miterlimit="10" fill="none" fill-rule="evenodd"/><path d="M1328.5 1354.68C1338.79 1352.85 1349.07 1356.5 1355.93 1343.74 1364.5 1332.8 1361.07 1303.64 1361.07 1290.88 1361.07 1263.54 1361.07 1238.02 1362.79 1212.5" stroke="#8EC58C" stroke-width="3.4375" stroke-linecap="round" stroke-linejoin="round" stroke-miterlimit="10" fill="none" fill-rule="evenodd"/><path d="M1064.5 1342.41C1109.52 1327.79 1078.35 1258.38 1097.4 1225.5 1118.18 1241.94 1081.82 1362.5 1135.5 1342.41" stroke="#8EC58C" stroke-width="3.4375" stroke-linecap="round" stroke-linejoin="round" stroke-miterlimit="10" fill="none" fill-rule="evenodd"/><path d="M1145.5 1341.98C1169.49 1345.64 1164.35 1305.42 1162.64 1292.62 1162.64 1278 1160.92 1265.2 1160.92 1250.58 1160.92 1241.44 1155.78 1226.81 1164.35 1219.5 1176.34 1241.44 1172.92 1274.34 1174.63 1298.11 1174.63 1310.91 1169.49 1334.67 1179.77 1343.81 1190.05 1354.78 1200.33 1352.95 1210.62 1345.64 1224.32 1336.5 1232.89 1349.3 1244.89 1352.95 1255.17 1354.78 1263.74 1352.95 1272.3 1352.95 1284.3 1351.12 1298.01 1352.95 1310 1356.61 1332.28 1362.09 1354.56 1363.92 1376.83 1369.41 1385.4 1371.23 1392.25 1371.23 1400.82 1371.23 1411.1 1371.23 1421.38 1374.89 1431.67 1378.55 1443.66 1384.03 1450.51 1389.52 1459.08 1400.48 1464.22 1407.8 1472.79 1415.11 1476.22 1424.25 1479.65 1433.39 1477.93 1448.02 1486.5 1453.5" stroke="#8EC58C" stroke-width="3.4375" stroke-linecap="round" stroke-linejoin="round" stroke-miterlimit="10" fill="none" fill-rule="evenodd"/><path d="M1232.5 1218.13C1229.07 1203.5 1223.93 1210.82 1223.93 1221.79 1223.93 1236.43 1223.93 1249.23 1225.64 1262.04 1227.36 1278.5 1225.64 1291.3 1225.64 1305.94 1225.64 1315.09 1229.07 1322.4 1229.07 1329.72 1227.36 1338.87 1222.21 1346.18 1220.5 1353.5" stroke="#8EC58C" stroke-width="3.4375" stroke-linecap="round" stroke-linejoin="round" stroke-miterlimit="10" fill="none" fill-rule="evenodd"/><path d="M1300 1231.09C1303.5 1223.78 1301.75 1210.98 1294.75 1205.5 1289.5 1221.95 1294.75 1242.05 1293 1258.5" stroke="#8EC58C" stroke-width="3.4375" stroke-linecap="round" stroke-linejoin="round" stroke-miterlimit="10" fill="none" fill-rule="evenodd"/><path d="M1362.93 1219.64C1362.93 1217.81 1362.93 1214.16 1364.64 1210.5 1371.5 1214.16 1369.79 1234.26 1369.79 1241.57 1371.5 1252.53 1374.93 1261.67 1376.64 1272.64 1383.5 1305.53 1359.5 1336.6 1371.5 1369.5" stroke="#8EC58C" stroke-width="3.4375" stroke-linecap="round" stroke-linejoin="round" stroke-miterlimit="10" fill="none" fill-rule="evenodd"/><path d="M1435.5 1217.8C1435.5 1215.98 1435.5 1214.15 1433.75 1210.5 1421.5 1215.98 1428.5 1241.54 1428.5 1252.5 1430.25 1267.11 1432 1281.72 1433.75 1296.33 1433.75 1312.76 1428.5 1327.37 1430.25 1343.8 1432 1349.28 1435.5 1356.59 1433.75 1362.07 1433.75 1367.54 1428.5 1374.85 1430.25 1378.5" stroke="#8EC58C" stroke-width="3.4375" stroke-linecap="round" stroke-linejoin="round" stroke-miterlimit="10" fill="none" fill-rule="evenodd"/><path d="M1480.5 1340.35C1492.67 1323.89 1492.67 1301.94 1499.63 1283.65 1504.85 1272.68 1510.07 1261.71 1513.54 1248.91 1515.28 1241.59 1520.5 1225.13 1513.54 1217.82 1504.85 1210.5 1501.37 1221.47 1501.37 1228.79 1497.89 1252.56 1487.46 1276.34 1483.98 1301.94 1483.98 1309.26 1483.98 1316.57 1483.98 1323.89 1485.72 1334.86 1490.93 1345.83 1492.67 1356.81 1492.67 1375.09 1490.93 1395.21 1490.93 1413.5" stroke="#8EC58C" stroke-width="3.4375" stroke-linecap="round" stroke-linejoin="round" stroke-miterlimit="10" fill="none" fill-rule="evenodd"/><path d="M1047.5 1365.73C1025.5 1363.9 1023.81 1303.68 1023.81 1285.42 1023.81 1267.17 1025.5 1248.92 1017.04 1232.5 1006.88 1239.8 1015.35 1272.65 1017.04 1285.42 1020.42 1300.03 1022.12 1307.32 1015.35 1321.93 1008.58 1336.53 1003.5 1354.78 1006.88 1373.03 1006.88 1382.15 1011.96 1391.28 1013.65 1402.23 1015.35 1420.48 1017.04 1435.08 1017.04 1451.5" stroke="#8EC58C" stroke-width="3.4375" stroke-linecap="round" stroke-linejoin="round" stroke-miterlimit="10" fill="none" fill-rule="evenodd"/><path d="M1049.5 1365.67C1059.9 1367.5 1070.3 1354.72 1077.23 1349.24 1091.1 1338.29 1092.83 1327.34 1094.57 1309.08 1096.3 1290.83 1094.57 1270.74 1096.3 1250.66 1098.03 1239.71 1101.5 1221.45 1094.57 1210.5" stroke="#8EC58C" stroke-width="3.4375" stroke-linecap="round" stroke-linejoin="round" stroke-miterlimit="10" fill="none" fill-rule="evenodd"/><path d="M1166.64 1207.5C1159.79 1212.96 1161.5 1229.35 1161.5 1236.63 1161.5 1249.37 1161.5 1262.12 1163.21 1273.04 1164.93 1283.96 1168.36 1294.88 1170.07 1305.81 1170.07 1314.91 1173.5 1327.65 1171.79 1334.94 1170.07 1342.22 1164.93 1344.04 1159.79 1347.68 1149.5 1349.5 1152.93 1345.86 1146.07 1340.4 1137.5 1334.94 1135.79 1345.86 1125.5 1345.86" stroke="#8EC58C" stroke-width="3.4375" stroke-linecap="round" stroke-linejoin="round" stroke-miterlimit="10" fill="none" fill-rule="evenodd"/><path d="M1044.5 1338.5C1058.21 1329.61 1066.79 1354.5 1080.5 1350.94 1085.64 1350.94 1089.07 1343.83 1090.79 1340.28 1094.21 1334.94 1104.5 1327.83 1104.5 1322.5" stroke="#8EC58C" stroke-width="3.4375" stroke-linecap="round" stroke-linejoin="round" stroke-miterlimit="10" fill="none" fill-rule="evenodd"/><path d="M1006.95 1232.91C1010.41 1223.83 1003.5 1212.94 1012.14 1207.5 1022.5 1216.57 1015.59 1243.8 1019.05 1256.5" stroke="#8EC58C" stroke-width="3.4375" stroke-linecap="round" stroke-linejoin="round" stroke-miterlimit="10" fill="none" fill-rule="evenodd"/><path d="M1162.5 1212.5C1169.83 1212.5 1166.17 1228.86 1168 1234.32 1169.83 1245.23 1173.5 1259.77 1171.67 1272.5" stroke="#8EC58C" stroke-width="3.4375" stroke-linecap="round" stroke-linejoin="round" stroke-miterlimit="10" fill="none" fill-rule="evenodd"/><path d="M1229.5 1207.5C1232.91 1218.45 1236.32 1229.39 1236.32 1242.16 1236.32 1258.58 1232.91 1265.88 1239.74 1280.47 1244.85 1295.07 1243.15 1307.84 1246.56 1322.43 1246.56 1327.91 1258.5 1338.85 1256.79 1342.5" stroke="#8EC58C" stroke-width="3.4375" stroke-linecap="round" stroke-linejoin="round" stroke-miterlimit="10" fill="none" fill-rule="evenodd"/><path d="M1101.5 1227.3C1101.5 1220.1 1099.75 1211.1 1096.25 1207.5 1087.5 1214.7 1091 1232.7 1091 1243.5" stroke="#8EC58C" stroke-width="3.4375" stroke-linecap="round" stroke-linejoin="round" stroke-miterlimit="10" fill="none" fill-rule="evenodd"/><path d="M1505.05 1256.5C1503.32 1267.42 1508.5 1278.35 1505.05 1289.27 1503.32 1302.01 1496.41 1314.76 1492.95 1329.32 1491.23 1334.78 1489.5 1338.42 1489.5 1343.88 1489.5 1349.35 1491.23 1356.63 1489.5 1363.91 1487.77 1376.65 1470.5 1383.94 1470.5 1398.5" stroke="#8EC58C" stroke-width="3.4375" stroke-linecap="round" stroke-linejoin="round" stroke-miterlimit="10" fill="none" fill-rule="evenodd"/><path d="M1015.5 1758.24C1015.5 1812.94 1024.06 1865.82 1024.06 1920.52 1025.77 1973.39 1018.92 2031.74 1065.13 2064.56 1116.46 2099.21 1172.94 2088.27 1231.12 2088.27 1261.92 2090.09 1292.73 2091.91 1321.82 2095.56 1350.91 2097.38 1391.98 2106.5 1417.65 2099.21 1468.99 2086.44 1480.96 2026.27 1484.39 1980.69 1484.39 1962.45 1487.81 1944.22 1489.52 1925.99 1491.23 1907.75 1489.52 1891.34 1487.81 1871.29 1486.1 1840.29 1484.39 1811.11 1479.25 1780.12 1474.12 1749.12 1486.1 1707.18 1487.81 1674.36 1487.81 1639.72 1501.5 1597.78 1496.37 1564.96 1492.94 1541.26 1482.68 1519.38 1480.96 1495.67 1480.96 1486.55 1479.25 1475.61 1480.96 1466.5 1484.39 1455.56 1496.37 1444.62 1489.52 1435.5" stroke="#8EC58C" stroke-width="3.4375" stroke-linecap="round" stroke-linejoin="round" stroke-miterlimit="10" fill="none" fill-rule="evenodd"/><path d="M1493.01 1429.5C1510.09 1451.4 1504.96 1469.64 1508.38 1493.36 1510.09 1522.56 1513.5 1553.58 1513.5 1584.6 1513.5 1655.76 1503.26 1728.74 1508.38 1801.73 1513.5 1865.59 1504.96 1929.46 1499.84 1995.14 1498.13 2022.51 1504.96 2048.06 1487.89 2071.78 1474.23 2093.68 1467.4 2095.5 1443.5 2095.5" stroke="#8EC58C" stroke-width="3.4375" stroke-linecap="round" stroke-linejoin="round" stroke-miterlimit="10" fill="none" fill-rule="evenodd"/><path d="M1029.04 1657.5C1025.62 1673.93 1025.62 1721.4 1020.48 1739.66 1017.06 1756.09 1013.63 1772.52 1013.63 1788.95 1013.63 1805.38 1017.06 1821.82 1018.77 1838.25 1018.77 1854.68 1017.06 1867.46 1015.35 1883.89 1013.63 1900.32 1015.35 1918.58 1013.63 1935.01 1013.63 1951.44 1008.5 1966.05 1010.21 1980.65 1011.92 2008.04 1022.19 2037.25 1037.6 2057.33 1056.42 2086.55 1109.48 2084.72 1138.58 2084.72 1176.23 2086.55 1207.04 2097.5 1244.69 2088.37 1268.65 2082.89 1287.48 2075.59 1313.15 2079.24 1335.4 2081.07 1350.81 2086.55 1374.77 2084.72 1390.17 2082.89 1407.29 2081.07 1422.69 2086.55 1432.96 2088.37 1443.23 2095.67 1453.5 2095.67" stroke="#8EC58C" stroke-width="3.4375" stroke-linecap="round" stroke-linejoin="round" stroke-miterlimit="10" fill="none" fill-rule="evenodd"/><path d="M1024.12 1727.5C1020.68 1734.79 1024.12 1738.44 1025.83 1743.91 1027.55 1758.49 1030.99 1773.07 1030.99 1787.66 1030.99 1805.89 1027.55 1822.29 1027.55 1840.52 1029.27 1876.98 1029.27 1913.44 1017.24 1948.07 1008.65 1977.24 1003.5 1997.29 1012.09 2028.28 1017.24 2044.69 1022.4 2050.16 1036.14 2057.45 1048.17 2066.56 1063.63 2064.74 1070.5 2077.5" stroke="#8EC58C" stroke-width="3.4375" stroke-linecap="round" stroke-linejoin="round" stroke-miterlimit="10" fill="none" fill-rule="evenodd"/><path d="M1031.5 1907.5C1041.75 1947.74 1033.21 1989.81 1048.58 2030.05 1058.84 2057.48 1065.67 2088.58 1094.71 2099.55 1120.34 2110.53 1159.64 2099.55 1185.26 2092.24 1198.93 2088.58 1209.18 2083.09 1222.85 2084.92 1238.23 2086.75 1251.9 2095.89 1267.27 2101.38 1330.49 2121.5 1386.87 2070.29 1450.08 2070.29 1463.75 2070.29 1474 2070.29 1482.54 2057.48 1492.79 2042.85 1492.79 2019.07 1489.37 2002.61 1487.67 1986.15 1489.37 1971.52 1489.37 1955.06 1489.37 1947.74 1489.37 1940.42 1489.37 1934.94 1491.08 1927.62 1494.5 1925.79 1491.08 1918.47" stroke="#8EC58C" stroke-width="3.4375" stroke-linecap="round" stroke-linejoin="round" stroke-miterlimit="10" fill="none" fill-rule="evenodd"/><path d="M1505.1 1769.5C1505.1 1796.83 1506.8 1827.81 1496.6 1853.32 1489.8 1877 1483 1902.51 1477.9 1926.2 1474.5 1940.78 1474.5 1953.53 1481.3 1968.11 1486.4 1980.86 1496.6 1989.97 1501.7 2002.73 1508.5 2031.88 1500 2044.64 1486.4 2066.5" stroke="#8EC58C" stroke-width="3.4375" stroke-linecap="round" stroke-linejoin="round" stroke-miterlimit="10" fill="none" fill-rule="evenodd"/><path d="M1513.5 1365.5C1508.41 1381.95 1510.11 1396.58 1510.11 1413.03 1511.8 1436.79 1503.33 1460.55 1493.15 1480.66 1482.98 1504.42 1474.5 1530.02 1479.59 1555.61 1486.37 1581.2 1501.63 1599.48 1501.63 1626.9 1501.63 1637.87 1498.24 1645.18 1496.54 1654.32 1494.85 1665.28 1499.93 1674.42 1499.93 1685.39 1499.93 1712.81 1482.98 1738.4 1479.59 1763.99 1476.2 1785.93 1484.67 1806.04 1486.37 1827.97 1488.07 1838.94 1486.37 1849.91 1488.07 1860.88 1489.76 1866.36 1493.15 1870.02 1491.46 1875.5" stroke="#8EC58C" stroke-width="3.4375" stroke-linecap="round" stroke-linejoin="round" stroke-miterlimit="10" fill="none" fill-rule="evenodd"/><path d="M1017.21 1484.5C1015.5 1455.38 1058.29 1429.9 1080.54 1424.44 1094.23 1420.8 1107.93 1424.44 1121.62 1426.26 1143.87 1426.26 1162.7 1422.62 1183.24 1420.8 1219.18 1413.52 1260.26 1402.6 1297.92 1406.24 1323.59 1408.06 1342.42 1424.44 1369.8 1417.16 1388.63 1413.52 1409.17 1393.5 1428 1395.32 1433.13 1395.32 1439.98 1400.78 1445.11 1402.6 1453.67 1408.06 1463.94 1417.16 1472.5 1420.8" stroke="#8EC58C" stroke-width="3.4375" stroke-linecap="round" stroke-linejoin="round" stroke-miterlimit="10" fill="none" fill-rule="evenodd"/><path d="M1026.5 1422.5C1035.05 1415.23 1045.3 1406.14 1055.55 1404.32 1074.35 1398.86 1086.32 1415.23 1103.41 1417.05 1118.79 1418.86 1139.3 1411.59 1151.26 1404.32 1159.81 1398.86 1166.65 1387.95 1175.19 1382.5 1195.7 1373.41 1219.63 1386.14 1240.14 1384.32 1262.35 1382.5 1287.99 1367.95 1310.21 1378.86 1322.17 1384.32 1327.3 1389.77 1340.97 1389.77 1351.23 1389.77 1363.19 1387.95 1373.45 1387.95 1393.95 1386.14 1414.46 1384.32 1433.26 1375.23 1448.65 1367.95 1458.9 1360.68 1474.28 1364.32 1482.83 1367.95 1482.83 1371.59 1489.66 1366.14 1494.79 1362.5 1496.5 1347.95 1496.5 1342.5" stroke="#8EC58C" stroke-width="3.4375" stroke-linecap="round" stroke-linejoin="round" stroke-miterlimit="10" fill="none" fill-rule="evenodd"/><path d="M1017.5 1388.11C1031.18 1384.48 1044.86 1375.4 1058.54 1371.77 1091.04 1364.5 1121.82 1369.95 1154.31 1377.21 1190.22 1386.3 1227.85 1386.3 1263.76 1395.38 1301.38 1404.46 1339.01 1408.09 1376.63 1406.28 1407.41 1406.28 1431.36 1402.64 1457.01 1417.17 1472.4 1426.26 1480.95 1437.15 1489.5 1453.5" stroke="#8EC58C" stroke-width="3.4375" stroke-linecap="round" stroke-linejoin="round" stroke-miterlimit="10" fill="none" fill-rule="evenodd"/><path d="M1491.5 1418.5C1472.67 1376.76 1414.48 1387.65 1378.53 1384.02 1327.19 1382.2 1274.13 1385.83 1224.49 1376.76 1202.24 1371.31 1183.41 1369.5 1161.16 1373.13 1144.04 1376.76 1130.35 1387.65 1113.23 1394.91 1087.56 1405.8 1060.17 1403.98 1034.5 1416.69" stroke="#8EC58C" stroke-width="3.4375" stroke-linecap="round" stroke-linejoin="round" stroke-miterlimit="10" fill="none" fill-rule="evenodd"/><path d="M1024.5 1473.5C1029.63 1444.29 1034.75 1411.44 1055.26 1389.53 1074.06 1371.28 1109.95 1358.5 1130.46 1376.75 1154.39 1395.01 1178.32 1415.09 1210.79 1416.91 1243.26 1418.74 1274.03 1411.44 1306.5 1415.09" stroke="#8EC58C" stroke-width="3.4375" stroke-linecap="round" stroke-linejoin="round" stroke-miterlimit="10" fill="none" fill-rule="evenodd"/><path d="M1058.5 1433.5C1080.76 1417 1099.6 1391.33 1126.99 1380.33 1140.69 1374.83 1149.25 1378.5 1161.24 1380.33 1180.08 1380.33 1200.62 1376.67 1216.03 1369.33 1231.45 1363.83 1238.29 1356.5 1253.71 1356.5 1269.12 1356.5 1294.8 1363.83 1308.5 1356.5" stroke="#8EC58C" stroke-width="3.4375" stroke-linecap="round" stroke-linejoin="round" stroke-miterlimit="10" fill="none" fill-rule="evenodd"/><path d="M1027.5 1379.94C1027.5 1358.08 1085.62 1347.14 1099.3 1345.32 1130.07 1343.5 1142.03 1361.72 1165.96 1378.12 1189.9 1394.52 1225.79 1398.17 1253.15 1398.17 1273.66 1399.99 1290.75 1394.52 1309.56 1385.41 1328.36 1378.12 1347.16 1372.66 1365.97 1376.3 1386.48 1378.12 1403.58 1392.7 1422.38 1401.81 1434.35 1407.28 1473.66 1407.28 1480.5 1425.5" stroke="#8EC58C" stroke-width="3.4375" stroke-linecap="round" stroke-linejoin="round" stroke-miterlimit="10" fill="none" fill-rule="evenodd"/><path d="M1305.5 1415.5C1320.84 1419.13 1337.88 1419.13 1353.22 1422.77 1363.45 1426.4 1371.97 1435.48 1382.2 1435.48 1394.13 1435.48 1404.35 1426.4 1416.28 1426.4 1436.73 1426.4 1460.6 1442.74 1472.53 1459.09 1481.05 1468.17 1501.5 1489.97 1499.8 1504.5" stroke="#8EC58C" stroke-width="3.4375" stroke-linecap="round" stroke-linejoin="round" stroke-miterlimit="10" fill="none" fill-rule="evenodd"/><path d="M1506.37 1313.5C1509.79 1342.52 1511.5 1375.16 1485.83 1395.11 1473.85 1404.18 1458.45 1409.62 1443.05 1413.25 1429.36 1415.06 1417.38 1420.5 1401.98 1418.69 1369.47 1411.43 1345.51 1380.6 1309.57 1380.6 1294.17 1380.6 1277.06 1386.04 1261.66 1387.86 1239.41 1389.67 1213.75 1387.86 1191.5 1393.3" stroke="#8EC58C" stroke-width="3.4375" stroke-linecap="round" stroke-linejoin="round" stroke-miterlimit="10" fill="none" fill-rule="evenodd"/><path d="M1027.5 1617.5C1027.5 1581.02 1027.5 1546.36 1034.35 1509.88 1041.2 1477.05 1054.89 1462.46 1087.42 1456.99 1116.53 1451.52 1125.09 1422.33 1152.48 1411.39 1169.61 1405.92 1185.02 1400.44 1202.14 1394.97 1219.26 1389.5 1234.67 1396.8 1253.5 1402.27" stroke="#8EC58C" stroke-width="3.4375" stroke-linecap="round" stroke-linejoin="round" stroke-miterlimit="10" fill="none" fill-rule="evenodd"/><path d="M1022.21 1526.5C1029.05 1510.1 1020.5 1490.06 1027.34 1473.67 1034.18 1457.27 1051.28 1453.63 1063.25 1444.52 1083.78 1424.48 1066.67 1397.15 1073.51 1373.47 1083.78 1344.32 1121.4 1355.25 1138.5 1342.5" stroke="#8EC58C" stroke-width="3.4375" stroke-linecap="round" stroke-linejoin="round" stroke-miterlimit="10" fill="none" fill-rule="evenodd"/><path d="M1026.5 1455.5C1033.31 1420.72 1058.87 1396.92 1087.83 1380.45 1108.28 1369.47 1130.43 1369.47 1152.57 1365.81 1166.2 1363.97 1176.43 1362.14 1190.06 1356.65 1196.87 1352.99 1200.28 1347.5 1210.5 1351.16" stroke="#8EC58C" stroke-width="3.4375" stroke-linecap="round" stroke-linejoin="round" stroke-miterlimit="10" fill="none" fill-rule="evenodd"/><path d="M1333.5 1385.5C1347.21 1378.33 1359.21 1369.38 1376.36 1367.58 1391.79 1365.79 1407.21 1364 1422.64 1360.42 1432.93 1358.62 1446.64 1358.62 1455.21 1351.46 1460.36 1349.67 1458.64 1344.29 1465.5 1342.5" stroke="#8EC58C" stroke-width="3.4375" stroke-linecap="round" stroke-linejoin="round" stroke-miterlimit="10" fill="none" fill-rule="evenodd"/><path d="M1058.5 1356.97C1067.05 1356.97 1077.3 1353.32 1084.14 1355.15 1094.4 1356.97 1092.69 1360.62 1101.23 1364.26 1114.91 1369.74 1126.87 1353.32 1140.55 1353.32 1152.51 1351.5 1166.19 1360.62 1178.15 1360.62 1190.12 1362.44 1200.37 1358.79 1210.63 1362.44 1215.76 1364.26 1219.17 1369.74 1226.01 1371.56 1232.85 1371.56 1241.4 1369.74 1248.23 1367.91 1260.2 1366.09 1270.45 1366.09 1282.42 1369.74 1294.38 1373.38 1302.93 1382.5 1314.9 1382.5 1328.57 1382.5 1338.83 1378.85 1352.5 1380.68" stroke="#8EC58C" stroke-width="3.4375" stroke-linecap="round" stroke-linejoin="round" stroke-miterlimit="10" fill="none" fill-rule="evenodd"/><path d="M1433.5 1415.5C1453.73 1422.78 1457.1 1442.81 1457.1 1462.83 1455.41 1475.58 1455.41 1470.12 1462.16 1482.86 1465.53 1491.96 1468.9 1501.06 1468.9 1511.99 1468.9 1522.91 1463.84 1532.01 1465.53 1542.94 1465.53 1553.86 1470.59 1566.6 1475.64 1577.53 1482.39 1593.91 1485.76 1612.12 1492.5 1628.5" stroke="#8EC58C" stroke-width="3.4375" stroke-linecap="round" stroke-linejoin="round" stroke-miterlimit="10" fill="none" fill-rule="evenodd"/><path d="M1029.91 1641.5C1028.2 1628.74 1026.5 1617.8 1029.91 1606.86 1036.73 1584.98 1045.25 1559.46 1055.47 1539.4 1070.81 1510.23 1053.77 1479.24 1075.92 1451.89 1087.85 1437.31 1106.6 1437.31 1113.42 1417.26 1116.82 1404.49 1116.82 1397.2 1127.05 1386.26 1132.16 1382.62 1142.39 1373.5 1147.5 1375.32" stroke="#8EC58C" stroke-width="3.4375" stroke-linecap="round" stroke-linejoin="round" stroke-miterlimit="10" fill="none" fill-rule="evenodd"/></g></svg>