<svg width="541" height="932" xmlns="http://www.w3.org/2000/svg" xmlns:xlink="http://www.w3.org/1999/xlink" xml:space="preserve" overflow="hidden"><g transform="translate(-1928 -1183)"><path d="M2145.49 1739.82C2113.4 1758 2091.44 1790.73 2084.69 1828.91 2083 1832.55 2086.38 1838 2089.76 1838 2093.13 1838 2098.2 1836.18 2098.2 1830.73 2104.96 1798 2125.22 1768.91 2152.24 1754.36 2157.31 1752.55 2159 1747.09 2155.62 1743.45 2153.93 1739.82 2150.56 1738 2145.49 1739.82Z" fill="#CAD0E4" fill-rule="evenodd"/><path d="M2081 1852.33C2081 1909.17 2115.29 1958.67 2166.71 1975.17 2170.14 1977 2175.29 1975.17 2175.29 1969.67 2177 1966 2175.29 1962.33 2170.14 1960.5 2127.29 1945.83 2096.43 1901.83 2096.43 1852.33 2096.43 1848.67 2093 1845 2089.57 1845 2084.43 1845 2081 1848.67 2081 1852.33Z" fill="#CAD0E4" fill-rule="evenodd"/><path d="M2265.37 1941.67C2244.93 1958.17 2221.07 1965.5 2195.52 1963.67 2190.41 1963.67 2187 1967.33 2187 1972.83 2187 1976.5 2190.41 1980.17 2193.81 1980.17 2222.78 1982 2251.74 1972.83 2273.89 1954.5 2277.3 1950.83 2279 1947.17 2275.59 1943.5 2272.19 1939.83 2268.78 1938 2265.37 1941.67Z" fill="#CAD0E4" fill-rule="evenodd"/><path d="M2304.96 1806.83C2301.56 1806.83 2298.15 1812.31 2299.85 1815.96 2303.26 1828.75 2306.67 1839.71 2306.67 1852.49 2306.67 1881.72 2296.44 1907.29 2279.41 1927.39 2276 1931.04 2276 1936.52 2279.41 1940.17 2282.81 1942 2287.93 1942 2289.63 1938.35 2310.07 1916.43 2322 1885.37 2322 1852.49 2322 1837.88 2318.59 1825.09 2315.19 1810.48 2313.48 1806.83 2308.37 1805 2304.96 1806.83Z" fill="#CAD0E4" fill-rule="evenodd"/><path d="M2174.85 1727.71C2169.71 1727.71 2168 1733.27 2168 1736.98 2169.71 1742.54 2173.14 1744.39 2178.27 1744.39 2185.12 1742.54 2193.69 1740.68 2200.54 1740.68 2238.21 1740.68 2270.75 1761.07 2289.59 1794.44 2293.01 1798.15 2296.44 1800 2301.57 1796.29 2305 1794.44 2305 1788.88 2303.29 1785.17 2281.02 1746.24 2243.35 1724 2200.54 1724 2191.97 1724 2183.41 1725.85 2174.85 1727.71Z" fill="#CAD0E4" fill-rule="evenodd"/><path d="M2279.54 1927.31C2296.7 1907.29 2307 1881.8 2307 1852.68 2307 1839.94 2303.57 1829.02 2300.13 1816.27 2298.42 1812.63 2301.85 1808.99 2305.28 1807.17 2301.85 1805.35 2300.13 1801.71 2300.13 1796.25 2296.7 1799.89 2293.27 1798.07 2289.83 1794.43 2270.95 1761.66 2238.34 1741.64 2200.57 1741.64 2193.71 1741.64 2185.13 1743.46 2178.26 1745.28 2173.11 1745.28 2169.68 1743.46 2169.68 1738 2166.24 1741.64 2164.53 1745.28 2155.94 1743.46 2157.66 1747.1 2157.66 1752.56 2152.51 1754.38 2125.05 1768.95 2104.45 1798.07 2097.58 1830.84 2097.58 1836.3 2094.15 1838.12 2089 1838.12 2092.43 1839.94 2092.43 1843.58 2089 1845.4 2092.43 1845.4 2095.87 1849.04 2095.87 1852.68 2095.87 1901.83 2126.76 1945.52 2169.68 1960.08 2174.83 1961.9 2176.54 1965.54 2174.83 1969.18 2179.98 1965.54 2185.13 1967.36 2186.84 1971 2186.84 1967.36 2190.28 1963.72 2195.43 1963.72 2221.17 1965.54 2245.2 1958.26 2265.8 1941.88 2269.24 1938.23 2272.67 1940.05 2276.1 1943.7 2274.39 1940.05 2277.82 1938.23 2279.54 1940.05 2276.1 1936.41 2276.1 1930.95 2279.54 1927.31Z" fill="#738BB9" fill-rule="evenodd"/><path d="M2466 1327.33C2466 1987.91 2466 1987.91 2466 1987.91 2466 2057.26 2414.63 2112 2349.55 2112 2044.73 2112 2044.73 2112 2044.73 2112 1981.37 2112 1930 2057.26 1930 1987.91 1930 1327.33 1930 1327.33 1930 1327.33 1930 1259.82 1931.71 1185 1948.84 1185 1965.96 1185 1981.37 1327.33 1998.5 1327.33 2015.62 1327.33 2015.62 1185 2032.75 1185 2049.87 1185 2049.87 1327.33 2067 1327.33 2084.12 1327.33 2084.12 1185 2101.25 1185 2116.66 1185 2116.66 1327.33 2133.78 1327.33 2149.2 1327.33 2149.2 1185 2166.32 1185 2183.44 1185 2183.44 1327.33 2198.86 1327.33 2215.98 1327.33 2215.98 1185 2233.11 1185 2250.23 1185 2250.23 1327.33 2267.35 1327.33 2284.48 1327.33 2284.48 1185 2301.6 1185 2318.73 1185 2318.73 1327.33 2335.85 1327.33 2351.27 1327.33 2351.27 1185 2368.39 1185 2385.51 1185 2385.51 1327.33 2400.93 1327.33 2416.34 1327.33 2430.04 1185 2445.45 1185 2460.86 1185 2466 1263.47 2466 1327.33Z" fill="#FFF4CF" fill-rule="evenodd"/><path d="M2452.29 1213C2452.29 1213 2452.29 1254.97 2452.29 1254.97 2452.29 1254.97 2424.88 1543.3 2400.9 1786 2375.21 2028.71 2344.38 2046.96 2236.47 2056.08 2126.85 2065.2 2001.81 2109 1947 2028.71 1965.84 2067.03 1988.11 2092.58 2032.64 2092.58 2337.53 2092.58 2337.53 2092.58 2337.53 2092.58 2400.9 2092.58 2452.29 2037.83 2452.29 1970.31 2452.29 1309.72 2452.29 1309.72 2452.29 1309.72 2452.29 1291.47 2454 1231.25 2452.29 1213Z" fill="#FFE99E" fill-rule="evenodd"/><path d="M2390.32 2051.52C2457 2004.03 2446.74 1761.14 2451.87 1626 2451.87 1971.16 2451.87 1971.16 2451.87 1971.16 2451.87 2038.73 2400.58 2093.52 2337.32 2093.52 2033 2093.52 2033 2093.52 2033 2093.52 2101.39 2088.04 2323.65 2099 2390.32 2051.52Z" fill="#FEC900" fill-rule="evenodd"/><path d="M2332.17 1828.67C2330.46 1825.02 2328.76 1821.38 2323.64 1823.2 2323.64 1823.2 2323.64 1823.2 2323.64 1823.2 2323.64 1823.2 2323.64 1823.2 2323.64 1823.2 2320.22 1821.38 2320.22 1819.55 2320.22 1814.09 2320.22 1814.09 2320.22 1814.09 2320.22 1814.09 2321.93 1814.09 2321.93 1814.09 2321.93 1814.09 2325.34 1812.26 2323.64 1806.79 2320.22 1803.15 2298.03 1764.87 2260.47 1743 2219.5 1743 2210.96 1743 2200.72 1743 2192.19 1746.65 2188.77 1746.65 2185.36 1752.11 2187.06 1755.76 2187.06 1755.76 2187.06 1755.76 2187.06 1755.76 2183.65 1759.4 2181.94 1763.05 2175.11 1761.23 2175.11 1761.23 2175.11 1761.23 2175.11 1759.4 2173.41 1755.76 2168.29 1753.94 2164.87 1757.58 2132.44 1773.99 2108.54 1808.62 2101.71 1845.07 2100 1850.54 2103.41 1854.18 2106.83 1856.01 2108.54 1856.01 2108.54 1856.01 2108.54 1856.01 2108.54 1856.01 2108.54 1856.01 2108.54 1856.01 2110.24 1857.83 2110.24 1859.65 2106.83 1863.3 2106.83 1863.3 2106.83 1863.3 2106.83 1863.3 2103.41 1863.3 2100 1866.94 2100 1870.59 2100 1927.09 2134.14 1976.3 2183.65 1992.71 2188.77 1994.53 2192.19 1992.71 2193.89 1987.24 2193.89 1987.24 2193.89 1987.24 2193.89 1987.24 2193.89 1987.24 2193.89 1987.24 2193.89 1987.24 2199.01 1983.6 2202.43 1985.42 2205.84 1989.06 2205.84 1989.06 2205.84 1989.06 2205.84 1989.06 2204.14 1994.53 2207.55 1998.18 2212.67 1998.18 2241.69 2000 2269.01 1990.89 2292.91 1972.66 2296.32 1969.01 2296.32 1963.55 2296.32 1963.55 2296.32 1963.55 2296.32 1963.55 2296.32 1963.55 2296.32 1959.9 2296.32 1959.9 2298.03 1959.9 2298.03 1959.9 2304.86 1959.9 2308.27 1956.26 2328.76 1932.56 2339 1903.4 2339 1870.59 2339 1856.01 2337.29 1841.43 2332.17 1828.67Z" fill="#FFE99E" fill-rule="evenodd"/><path d="M2145.49 1739.82C2113.4 1758 2091.44 1790.73 2084.69 1828.91 2083 1832.55 2086.38 1838 2089.76 1838 2093.13 1838 2098.2 1836.18 2098.2 1830.73 2104.96 1798 2125.22 1768.91 2152.24 1754.36 2157.31 1752.55 2159 1747.09 2155.62 1743.45 2153.93 1739.82 2150.56 1738 2145.49 1739.82Z" fill="#CAD0E4" fill-rule="evenodd"/><path d="M2081 1852.33C2081 1909.17 2115.29 1958.67 2166.71 1975.17 2170.14 1977 2175.29 1975.17 2175.29 1969.67 2177 1966 2175.29 1962.33 2170.14 1960.5 2127.29 1945.83 2096.43 1901.83 2096.43 1852.33 2096.43 1848.67 2093 1845 2089.57 1845 2084.43 1845 2081 1848.67 2081 1852.33Z" fill="#CAD0E4" fill-rule="evenodd"/><path d="M2270.42 1947.79C2251.74 1963.92 2226.26 1971.08 2202.49 1971.08 2197.4 1969.29 2194 1972.88 2194 1978.25 2194 1981.83 2197.4 1985.42 2200.79 1987.21 2229.66 1989 2258.53 1978.25 2280.6 1960.33 2284 1958.54 2284 1953.17 2282.3 1949.58 2278.91 1946 2273.81 1946 2270.42 1947.79Z" fill="#FEC900" fill-rule="evenodd"/><path d="M2311.77 1811.83C2306.69 1813.66 2305 1817.32 2306.69 1822.8 2310.08 1833.78 2311.77 1846.58 2311.77 1859.38 2311.77 1886.82 2303.31 1912.42 2284.69 1934.37 2283 1936.2 2283 1941.68 2286.38 1945.34 2289.77 1949 2293.15 1949 2296.54 1945.34 2316.85 1921.57 2327 1890.47 2327 1859.38 2327 1844.75 2325.31 1830.12 2320.23 1817.32 2320.23 1811.83 2315.15 1810 2311.77 1811.83Z" fill="#FEC900" fill-rule="evenodd"/><path d="M2284.57 1934.31C2303.43 1912.47 2312 1886.98 2312 1859.68 2312 1846.94 2310.29 1834.2 2306.86 1823.27 2305.14 1817.81 2306.86 1814.17 2312 1812.35 2308.57 1810.53 2305.14 1808.71 2306.86 1803.25 2303.43 1805.07 2298.29 1803.25 2296.57 1799.61 2277.71 1766.84 2243.43 1746.82 2207.43 1746.82 2200.57 1746.82 2192 1748.64 2185.14 1750.46 2180 1750.46 2176.57 1748.64 2174.86 1745 2173.14 1748.64 2169.71 1752.28 2162.86 1748.64 2164.57 1752.28 2162.86 1757.74 2159.43 1759.56 2132 1775.95 2111.43 1803.25 2104.57 1837.84 2104.57 1841.48 2099.43 1845.12 2096 1843.3 2097.71 1846.94 2097.71 1848.76 2096 1850.58 2099.43 1850.58 2102.86 1854.22 2102.86 1859.68 2102.86 1908.83 2132 1950.7 2176.57 1965.26 2180 1967.08 2183.43 1970.72 2181.71 1974.36 2186.86 1972.54 2192 1972.54 2193.71 1978 2193.71 1972.54 2197.14 1968.9 2202.29 1970.72 2226.29 1970.72 2252 1963.44 2270.86 1947.05 2274.29 1945.23 2279.43 1945.23 2282.86 1948.88 2281.14 1945.23 2284.57 1943.41 2286.29 1945.23 2282.86 1941.59 2282.86 1936.13 2284.57 1934.31Z" fill="#FEC900" fill-rule="evenodd"/><path d="M2265.37 1941.67C2244.93 1958.17 2221.07 1965.5 2195.52 1963.67 2190.41 1963.67 2187 1967.33 2187 1972.83 2187 1976.5 2190.41 1980.17 2193.81 1980.17 2222.78 1982 2251.74 1972.83 2273.89 1954.5 2277.3 1950.83 2279 1947.17 2275.59 1943.5 2272.19 1939.83 2268.78 1938 2265.37 1941.67Z" fill="#CAD0E4" fill-rule="evenodd"/><path d="M2304.96 1806.83C2301.56 1806.83 2298.15 1812.31 2299.85 1815.96 2303.26 1828.75 2306.67 1839.71 2306.67 1852.49 2306.67 1881.72 2296.44 1907.29 2279.41 1927.39 2276 1931.04 2276 1936.52 2279.41 1940.17 2282.81 1942 2287.93 1942 2289.63 1938.35 2310.07 1916.43 2322 1885.37 2322 1852.49 2322 1837.88 2318.59 1825.09 2315.19 1810.48 2313.48 1806.83 2308.37 1805 2304.96 1806.83Z" fill="#CAD0E4" fill-rule="evenodd"/><path d="M2174.85 1727.71C2169.71 1727.71 2168 1733.27 2168 1736.98 2169.71 1742.54 2173.14 1744.39 2178.27 1744.39 2185.12 1742.54 2193.69 1740.68 2200.54 1740.68 2238.21 1740.68 2270.75 1761.07 2289.59 1794.44 2293.01 1798.15 2296.44 1800 2301.57 1796.29 2305 1794.44 2305 1788.88 2303.29 1785.17 2281.02 1746.24 2243.35 1724 2200.54 1724 2191.97 1724 2183.41 1725.85 2174.85 1727.71Z" fill="#CAD0E4" fill-rule="evenodd"/><path d="M2279.54 1927.31C2296.7 1907.29 2307 1881.8 2307 1852.68 2307 1839.94 2303.57 1829.02 2300.13 1816.27 2298.42 1812.63 2301.85 1808.99 2305.28 1807.17 2301.85 1805.35 2300.13 1801.71 2300.13 1796.25 2296.7 1799.89 2293.27 1798.07 2289.83 1794.43 2270.95 1761.66 2238.34 1741.64 2200.57 1741.64 2193.71 1741.64 2185.13 1743.46 2178.26 1745.28 2173.11 1745.28 2169.68 1743.46 2169.68 1738 2166.24 1741.64 2164.53 1745.28 2155.94 1743.46 2157.66 1747.1 2157.66 1752.56 2152.51 1754.38 2125.05 1768.95 2104.45 1798.07 2097.58 1830.84 2097.58 1836.3 2094.15 1838.12 2089 1838.12 2092.43 1839.94 2092.43 1843.58 2089 1845.4 2092.43 1845.4 2095.87 1849.04 2095.87 1852.68 2095.87 1901.83 2126.76 1945.52 2169.68 1960.08 2174.83 1961.9 2176.54 1965.54 2174.83 1969.18 2179.98 1965.54 2185.13 1967.36 2186.84 1971 2186.84 1967.36 2190.28 1963.72 2195.43 1963.72 2221.17 1965.54 2245.2 1958.26 2265.8 1941.88 2269.24 1938.23 2272.67 1940.05 2276.1 1943.7 2274.39 1940.05 2277.82 1938.23 2279.54 1940.05 2276.1 1936.41 2276.1 1930.95 2279.54 1927.31Z" fill="#5174AA" fill-rule="evenodd"/><path d="M2119.86 1888.49C2119.86 1825.03 2166.14 1776.07 2226.14 1776.07 2255.29 1776.07 2282.71 1788.77 2301.57 1808.71 2303.29 1808.71 2303.29 1806.9 2305 1806.9 2301.57 1805.08 2299.86 1801.46 2299.86 1796.02 2296.43 1799.64 2293 1797.83 2289.57 1794.21 2270.71 1761.57 2238.14 1741.63 2200.43 1741.63 2193.57 1741.63 2185 1743.44 2178.14 1745.25 2173 1745.25 2169.57 1743.44 2169.57 1738 2166.14 1741.63 2164.43 1745.25 2155.86 1743.44 2157.57 1747.07 2157.57 1752.5 2152.43 1754.32 2125 1768.82 2104.43 1797.83 2097.57 1830.47 2097.57 1835.91 2094.14 1837.72 2089 1837.72 2092.43 1839.53 2092.43 1843.16 2089 1844.97 2092.43 1844.97 2095.86 1848.6 2095.86 1852.22 2095.86 1883.05 2107.86 1912.06 2126.71 1932 2121.57 1919.31 2119.86 1902.99 2119.86 1888.49Z" fill="#005192" fill-rule="evenodd"/><path d="M2294.16 1832.48C2292.45 1826.99 2292.45 1823.32 2290.74 1821.49 2289.03 1816 2301 1850.79 2280.48 1892.91 2263.38 1925.87 2229.18 1949.68 2191.56 1949.68 2167.62 1949.68 2145.39 1938.69 2130 1922.21 2147.1 1944.18 2172.75 1957 2200.11 1957 2253.12 1957 2295.87 1911.22 2295.87 1854.45 2295.87 1847.13 2295.87 1839.81 2294.16 1832.48Z" fill="#A7B2D2" fill-rule="evenodd"/><path d="M2180 1729.69C2203.84 1726 2258.34 1727.85 2289 1774 2273.67 1753.69 2232.8 1727.85 2180 1729.69Z" fill="#FFFFFF" fill-rule="evenodd"/><path d="M2283 1929C2312.04 1892.67 2315.46 1849.07 2306.92 1820 2317.17 1847.25 2324 1876.32 2283 1929Z" fill="#FFFFFF" fill-rule="evenodd"/><path d="M2195 1969.4C2210.37 1975 2244.51 1971.27 2265 1947 2254.76 1952.6 2244.51 1969.4 2195 1969.4Z" fill="#FFFFFF" fill-rule="evenodd"/><path d="M2105 1912C2110.06 1926.86 2126.91 1956.57 2164 1964 2152.2 1956.57 2130.29 1951 2105 1912Z" fill="#FFFFFF" fill-rule="evenodd"/><path d="M2368.42 1210C2373.54 1233.64 2376.96 1282.73 2382.08 1310 2387.21 1337.27 2399.17 1342.73 2406 1342.73 2380.38 1350 2370.12 1344.55 2368.42 1308.18 2365 1270 2368.42 1210 2368.42 1210Z" fill="#FFE99E" fill-rule="evenodd"/><path d="M2354.47 1296C2352.76 1312.39 2345.94 1337.89 2334 1337.89 2349.35 1347 2363 1332.43 2354.47 1296Z" fill="#FFFFFF" fill-rule="evenodd"/><path d="M2303.42 1210C2306.83 1233.64 2311.96 1282.73 2317.08 1310 2320.5 1337.27 2332.46 1342.73 2341 1342.73 2313.67 1350 2305.12 1344.55 2301.71 1308.18 2300 1270 2303.42 1210 2303.42 1210Z" fill="#FFE99E" fill-rule="evenodd"/><path d="M2289.25 1296C2287.56 1312.39 2280.81 1337.89 2269 1337.89 2284.19 1347 2296 1332.43 2289.25 1296Z" fill="#FFFFFF" fill-rule="evenodd"/><path d="M2235.33 1210C2238.67 1233.64 2243.67 1282.73 2248.67 1310 2253.67 1337.27 2265.33 1342.73 2272 1342.73 2245.33 1350 2237 1344.55 2233.67 1308.18 2232 1270 2235.33 1210 2235.33 1210Z" fill="#FFE99E" fill-rule="evenodd"/><path d="M2221.47 1296C2219.76 1312.39 2212.94 1337.89 2201 1337.89 2216.35 1347 2230 1332.43 2221.47 1296Z" fill="#FFFFFF" fill-rule="evenodd"/><path d="M2169.42 1210C2172.83 1233.64 2177.96 1282.73 2183.08 1310 2188.21 1337.27 2200.17 1342.73 2207 1342.73 2181.38 1350 2171.12 1344.55 2169.42 1308.18 2166 1270 2169.42 1210 2169.42 1210Z" fill="#FFE99E" fill-rule="evenodd"/><path d="M2155.47 1296C2153.76 1312.39 2146.94 1337.89 2135 1337.89 2150.35 1347 2164 1332.43 2155.47 1296Z" fill="#FFFFFF" fill-rule="evenodd"/><path d="M2101.42 1210C2104.83 1233.64 2109.96 1282.73 2115.08 1310 2120.21 1337.27 2132.17 1342.73 2139 1342.73 2113.38 1350 2103.12 1344.55 2101.42 1308.18 2098 1270 2101.42 1210 2101.42 1210Z" fill="#FFE99E" fill-rule="evenodd"/><path d="M2087.47 1296C2085.76 1312.39 2078.94 1337.89 2067 1337.89 2082.35 1347 2096 1332.43 2087.47 1296Z" fill="#FFFFFF" fill-rule="evenodd"/><path d="M2034.42 1210C2037.83 1233.64 2042.96 1282.73 2048.08 1310 2053.21 1337.27 2065.17 1342.73 2072 1342.73 2044.67 1350 2036.12 1344.55 2032.71 1308.18 2031 1270 2034.42 1210 2034.42 1210Z" fill="#FFE99E" fill-rule="evenodd"/><path d="M2020.47 1296C2018.76 1312.39 2011.94 1337.89 2000 1337.89 2015.35 1347 2029 1332.43 2020.47 1296Z" fill="#FFFFFF" fill-rule="evenodd"/><path d="M1949 1203C1952.38 1226.59 1969.25 1279.22 1974.31 1306.44 1979.38 1333.67 1996.25 1342.74 2003 1342.74 1977.69 1350 1965.88 1344.56 1959.13 1308.26 1952.38 1270.15 1949 1203 1949 1203Z" fill="#FFE99E" fill-rule="evenodd"/><path d="M1946 1396.05C1946 1491.04 1946 1896.55 1946 1955 1951.12 1861.84 1946 1447.2 1993.79 1414.32 2041.58 1379.61 2272 1366.83 2272 1366.83 2272 1366.83 2075.72 1365 2014.27 1365 1951.12 1365 1949.41 1377.79 1946 1396.05Z" fill="#FFFFFF" fill-rule="evenodd"/><path d="M2466.5 1327.83C2466.5 1988.41 2466.5 1988.41 2466.5 1988.41 2466.5 2057.76 2415.13 2112.5 2350.05 2112.5 2045.23 2112.5 2045.23 2112.5 2045.23 2112.5 1981.87 2112.5 1930.5 2057.76 1930.5 1988.41 1930.5 1327.83 1930.5 1327.83 1930.5 1327.83 1930.5 1260.32 1932.21 1185.5 1949.34 1185.5 1966.46 1185.5 1981.87 1327.83 1999 1327.83 2016.12 1327.83 2016.12 1185.5 2033.25 1185.5 2050.37 1185.5 2050.37 1327.83 2067.5 1327.83 2084.62 1327.83 2084.62 1185.5 2101.75 1185.5 2117.16 1185.5 2117.16 1327.83 2134.28 1327.83 2149.69 1327.83 2149.69 1185.5 2166.82 1185.5 2183.94 1185.5 2183.94 1327.83 2199.36 1327.83 2216.48 1327.83 2216.48 1185.5 2233.61 1185.5 2250.73 1185.5 2250.73 1327.83 2267.85 1327.83 2284.98 1327.83 2284.98 1185.5 2302.1 1185.5 2319.23 1185.5 2319.23 1327.83 2336.35 1327.83 2351.77 1327.83 2351.77 1185.5 2368.89 1185.5 2386.01 1185.5 2386.01 1327.83 2401.43 1327.83 2416.84 1327.83 2430.54 1185.5 2445.95 1185.5 2461.36 1185.5 2466.5 1263.97 2466.5 1327.83Z" stroke="#000000" stroke-width="5.15643" stroke-linecap="round" stroke-linejoin="round" stroke-miterlimit="10" fill="none" fill-rule="evenodd"/><path d="M2145.99 1740.32C2113.9 1758.5 2091.94 1791.23 2085.19 1829.41 2083.5 1833.05 2086.88 1838.5 2090.26 1838.5 2093.63 1838.5 2098.7 1836.68 2098.7 1831.23 2105.46 1798.5 2125.72 1769.41 2152.74 1754.86 2157.81 1753.05 2159.5 1747.59 2156.12 1743.95 2154.43 1740.32 2151.06 1738.5 2145.99 1740.32Z" stroke="#707173" stroke-width="3.4375" stroke-linecap="round" stroke-linejoin="round" stroke-miterlimit="10" fill="none" fill-rule="evenodd"/><path d="M2081.5 1852.83C2081.5 1909.67 2115.79 1959.17 2167.21 1975.67 2170.64 1977.5 2175.79 1975.67 2175.79 1970.17 2177.5 1966.5 2175.79 1962.83 2170.64 1961 2127.79 1946.33 2096.93 1902.33 2096.93 1852.83 2096.93 1849.17 2093.5 1845.5 2090.07 1845.5 2084.93 1845.5 2081.5 1849.17 2081.5 1852.83Z" stroke="#707173" stroke-width="3.4375" stroke-linecap="round" stroke-linejoin="round" stroke-miterlimit="10" fill="none" fill-rule="evenodd"/><path d="M2265.87 1942.17C2245.43 1958.67 2221.57 1966 2196.02 1964.17 2190.91 1964.17 2187.5 1967.83 2187.5 1973.33 2187.5 1977 2190.91 1980.67 2194.31 1980.67 2223.28 1982.5 2252.24 1973.33 2274.39 1955 2277.8 1951.33 2279.5 1947.67 2276.09 1944 2272.69 1940.33 2269.28 1938.5 2265.87 1942.17Z" stroke="#707173" stroke-width="3.4375" stroke-linecap="round" stroke-linejoin="round" stroke-miterlimit="10" fill="none" fill-rule="evenodd"/><path d="M2305.46 1807.33C2302.06 1807.33 2298.65 1812.81 2300.35 1816.46 2303.76 1829.25 2307.17 1840.21 2307.17 1852.99 2307.17 1882.22 2296.94 1907.79 2279.91 1927.89 2276.5 1931.54 2276.5 1937.02 2279.91 1940.67 2283.31 1942.5 2288.43 1942.5 2290.13 1938.85 2310.57 1916.93 2322.5 1885.87 2322.5 1852.99 2322.5 1838.38 2319.09 1825.59 2315.69 1810.98 2313.98 1807.33 2308.87 1805.5 2305.46 1807.33Z" stroke="#707173" stroke-width="3.4375" stroke-linecap="round" stroke-linejoin="round" stroke-miterlimit="10" fill="none" fill-rule="evenodd"/><path d="M2175.35 1728.21C2170.21 1728.21 2168.5 1733.77 2168.5 1737.48 2170.21 1743.04 2173.64 1744.89 2178.77 1744.89 2185.62 1743.04 2194.19 1741.18 2201.04 1741.18 2238.71 1741.18 2271.25 1761.57 2290.09 1794.94 2293.51 1798.65 2296.94 1800.5 2302.07 1796.79 2305.5 1794.94 2305.5 1789.38 2303.79 1785.67 2281.52 1746.74 2243.85 1724.5 2201.04 1724.5 2192.47 1724.5 2183.91 1726.35 2175.35 1728.21Z" stroke="#707173" stroke-width="3.4375" stroke-linecap="round" stroke-linejoin="round" stroke-miterlimit="10" fill="none" fill-rule="evenodd"/><path d="M2280.04 1927.81C2297.2 1907.79 2307.5 1882.3 2307.5 1853.18 2307.5 1840.44 2304.07 1829.52 2300.63 1816.77 2298.92 1813.13 2302.35 1809.49 2305.78 1807.67 2302.35 1805.85 2300.63 1802.21 2300.63 1796.75 2297.2 1800.39 2293.77 1798.57 2290.33 1794.93 2271.45 1762.16 2238.84 1742.14 2201.07 1742.14 2194.21 1742.14 2185.63 1743.96 2178.76 1745.78 2173.61 1745.78 2170.18 1743.96 2170.18 1738.5 2166.74 1742.14 2165.03 1745.78 2156.45 1743.96 2158.16 1747.6 2158.16 1753.06 2153.01 1754.88 2125.55 1769.45 2104.95 1798.57 2098.08 1831.34 2098.08 1836.8 2094.65 1838.62 2089.5 1838.62 2092.93 1840.44 2092.93 1844.08 2089.5 1845.9 2092.93 1845.9 2096.37 1849.54 2096.37 1853.18 2096.37 1902.33 2127.26 1946.02 2170.18 1960.58 2175.33 1962.4 2177.04 1966.04 2175.33 1969.68 2180.48 1966.04 2185.63 1967.86 2187.34 1971.5 2187.34 1967.86 2190.78 1964.22 2195.93 1964.22 2221.67 1966.04 2245.7 1958.76 2266.3 1942.38 2269.74 1938.73 2273.17 1940.55 2276.6 1944.2 2274.89 1940.55 2278.32 1938.73 2280.04 1940.55 2276.6 1936.91 2276.6 1931.45 2280.04 1927.81Z" stroke="#707173" stroke-width="3.4375" stroke-linecap="round" stroke-linejoin="round" stroke-miterlimit="10" fill="none" fill-rule="evenodd"/><path d="M2238 1682.68C2274.17 1690 2393 1651.57 2393 1604" stroke="#00AAE2" stroke-width="10.3125" stroke-linecap="round" stroke-linejoin="round" stroke-miterlimit="10" fill="none" fill-rule="evenodd"/><path d="M2226 1684C2267.01 1658.51 2311.44 1625.74 2326.82 1578.4 2345.61 1520.13 2379.79 1547.44 2402 1491" stroke="#00AAE2" stroke-width="10.3125" stroke-linecap="round" stroke-linejoin="round" stroke-miterlimit="10" fill="none" fill-rule="evenodd"/><path d="M2338.9 1425C2356 1544.09 2236.26 1586.23 2226 1698" stroke="#00AAE2" stroke-width="10.3125" stroke-linecap="round" stroke-linejoin="round" stroke-miterlimit="10" fill="none" fill-rule="evenodd"/><path d="M2159 1681C2123.28 1642.42 2024.63 1602 1977 1603.84" stroke="#00AAE2" stroke-width="10.3125" stroke-linecap="round" stroke-linejoin="round" stroke-miterlimit="10" fill="none" fill-rule="evenodd"/><path d="M2193.29 1710C2193.29 1649.87 2195 1576.98 2166.02 1525.96 2147.26 1487.69 2099.52 1423.91 2091 1382" stroke="#00AAE2" stroke-width="10.3125" stroke-linecap="round" stroke-linejoin="round" stroke-miterlimit="10" fill="none" fill-rule="evenodd"/><path d="M2219.57 1710C2211 1653.45 2219.57 1593.25 2224.71 1536.7 2228.14 1494.75 2247 1418.13 2236.71 1378" stroke="#00AAE2" stroke-width="10.3125" stroke-linecap="round" stroke-linejoin="round" stroke-miterlimit="10" fill="none" fill-rule="evenodd"/><path d="M1988 1390C1988 1457.68 2039.43 1512.56 2039.43 1512.56 2090.86 1591.22 2164.57 1611.34 2180 1690" stroke="#00AAE2" stroke-width="10.3125" stroke-linecap="round" stroke-linejoin="round" stroke-miterlimit="10" fill="none" fill-rule="evenodd"/><path d="M2139 1693.5C2139 1677.21 2166.31 1664 2200 1664 2233.69 1664 2261 1677.21 2261 1693.5 2261 1709.79 2233.69 1723 2200 1723 2166.31 1723 2139 1709.79 2139 1693.5Z" fill="#00AAE2" fill-rule="evenodd"/><path d="M2206 1706C2260.63 1709.66 2325.51 1753.56 2335.76 1812.11 2340.88 1845.04 2346 1874.31 2340.88 1907.24 2337.46 1938.34 2328.93 1991.39 2308.44 2017" stroke="#00AAE2" stroke-width="10.3125" stroke-linecap="round" stroke-linejoin="round" stroke-miterlimit="10" fill="none" fill-rule="evenodd"/><path d="M2168 1710C2104.88 1720.95 2070.76 1772.03 2060.53 1852.31 2052 1936.23 2067.35 2016.51 2099.76 2053" stroke="#00AAE2" stroke-width="10.3125" stroke-linecap="round" stroke-linejoin="round" stroke-miterlimit="10" fill="none" fill-rule="evenodd"/><path d="M2158 1697.49C2104.94 1692 1997.12 1735.89 1980 1895" stroke="#00AAE2" stroke-width="10.3125" stroke-linecap="round" stroke-linejoin="round" stroke-miterlimit="10" fill="none" fill-rule="evenodd"/><path d="M2233 1698C2284.19 1698 2400.23 1734.4 2419 1860" stroke="#00AAE2" stroke-width="10.3125" stroke-linecap="round" stroke-linejoin="round" stroke-miterlimit="10" fill="none" fill-rule="evenodd"/><path d="M1982 1682.94C2038.36 1698 2128.89 1666 2175 1692.35" stroke="#00AAE2" stroke-width="10.3125" stroke-linecap="round" stroke-linejoin="round" stroke-miterlimit="10" fill="none" fill-rule="evenodd"/></g></svg>