<svg width="541" height="932" xmlns="http://www.w3.org/2000/svg" xmlns:xlink="http://www.w3.org/1999/xlink" xml:space="preserve" overflow="hidden"><g transform="translate(-2881 -1186)"><path d="M3101.02 1742.82C3068.51 1761 3044.56 1793.73 3037.71 1831.91 3036 1835.55 3039.42 1841 3042.84 1841 3047.98 1841 3051.4 1839.18 3053.11 1833.73 3058.24 1801 3078.78 1771.91 3107.87 1757.36 3111.29 1755.55 3113 1750.09 3111.29 1746.45 3109.58 1742.82 3104.44 1741 3101.02 1742.82Z" fill="#CAD0E4" fill-rule="evenodd"/><path d="M3036 1856.28C3036 1912.68 3068.57 1961.81 3120 1978.18 3125.14 1980 3128.57 1978.18 3130.29 1972.72 3132 1969.08 3128.57 1965.44 3125.14 1963.62 3080.57 1949.07 3049.71 1905.4 3049.71 1856.28 3049.71 1852.64 3046.29 1849 3042.86 1849 3039.43 1849 3036 1852.64 3036 1856.28Z" fill="#CAD0E4" fill-rule="evenodd"/><path d="M3218.37 1945.67C3197.93 1962.17 3174.07 1969.5 3148.52 1967.67 3145.11 1967.67 3141.7 1971.33 3140 1976.83 3140 1980.5 3143.41 1984.17 3148.52 1984.17 3177.48 1986 3204.74 1976.83 3228.59 1958.5 3230.3 1954.83 3232 1951.17 3228.59 1947.5 3226.89 1943.83 3221.78 1942 3218.37 1945.67Z" fill="#CAD0E4" fill-rule="evenodd"/><path d="M3257.96 1810.83C3254.56 1810.83 3252.85 1816.31 3254.56 1819.96 3257.96 1832.75 3259.67 1843.71 3259.67 1856.49 3259.67 1885.72 3249.44 1911.29 3232.41 1931.39 3229 1935.04 3230.7 1940.52 3232.41 1944.17 3235.81 1946 3240.93 1946 3244.33 1942.35 3263.07 1920.43 3275 1889.37 3275 1856.49 3275 1841.88 3273.3 1829.09 3268.19 1814.48 3266.48 1810.83 3263.07 1809 3257.96 1810.83Z" fill="#CAD0E4" fill-rule="evenodd"/><path d="M3127.86 1731.66C3124.43 1731.66 3121 1737.15 3122.72 1740.8 3122.72 1746.29 3127.86 1748.12 3131.3 1748.12 3139.88 1746.29 3146.74 1744.46 3155.32 1744.46 3191.36 1744.46 3223.96 1764.59 3244.56 1797.51 3246.27 1801.17 3251.42 1803 3254.85 1799.34 3258.28 1797.51 3260 1792.02 3256.57 1788.37 3234.26 1749.95 3196.51 1728 3155.32 1728 3145.02 1728 3136.44 1729.83 3127.86 1731.66Z" fill="#CAD0E4" fill-rule="evenodd"/><path d="M3232.66 1931.12C3249.75 1911.02 3260 1885.42 3260 1856.17 3260 1843.38 3258.29 1832.41 3254.87 1819.61 3253.17 1815.95 3254.87 1812.3 3258.29 1810.47 3256.58 1808.64 3253.17 1804.98 3254.87 1799.5 3251.46 1803.16 3246.33 1801.33 3244.62 1797.67 3224.12 1764.77 3191.65 1744.66 3155.77 1744.66 3147.23 1744.66 3140.39 1746.48 3131.85 1748.31 3128.43 1748.31 3125.02 1746.48 3123.31 1741 3119.89 1744.66 3118.18 1748.31 3111.35 1746.48 3113.05 1750.14 3111.35 1755.63 3107.93 1757.45 3078.88 1772.08 3058.38 1801.33 3053.25 1834.23 3051.54 1839.72 3048.13 1841.55 3044.71 1841.55 3046.42 1843.38 3046.42 1847.03 3043 1848.86 3048.13 1848.86 3049.83 1852.52 3049.83 1856.17 3049.83 1905.53 3080.59 1949.41 3125.02 1964.03 3128.43 1965.86 3130.14 1969.52 3130.14 1973.17 3133.56 1969.52 3138.68 1971.34 3142.1 1975 3142.1 1971.34 3145.52 1967.69 3148.94 1967.69 3174.57 1969.52 3198.49 1962.2 3218.99 1945.75 3222.41 1942.09 3227.54 1943.92 3229.24 1947.58 3229.24 1943.92 3230.95 1942.09 3232.66 1943.92 3230.95 1940.27 3229.24 1934.78 3232.66 1931.12Z" fill="#738BB9" fill-rule="evenodd"/><path d="M3419 1330.33C3419 1990.91 3419 1990.91 3419 1990.91 3419 2060.26 3367.63 2115 3304.27 2115 2999.45 2115 2999.45 2115 2999.45 2115 2936.09 2115 2883 2060.26 2883 1990.91 2883 1330.33 2883 1330.33 2883 1330.33 2883 1262.82 2884.71 1188 2901.84 1188 2918.96 1188 2934.37 1330.33 2951.5 1330.33 2968.62 1330.33 2968.62 1188 2985.75 1188 3002.87 1188 3002.87 1330.33 3020 1330.33 3037.12 1330.33 3037.12 1188 3054.25 1188 3071.37 1188 3071.37 1330.33 3086.78 1330.33 3103.91 1330.33 3103.91 1188 3119.32 1188 3136.44 1188 3136.44 1330.33 3153.57 1330.33 3170.69 1330.33 3170.69 1188 3186.11 1188 3203.23 1188 3203.23 1330.33 3222.07 1330.33 3237.48 1330.33 3237.48 1188 3254.6 1188 3271.73 1188 3271.73 1330.33 3288.85 1330.33 3305.98 1330.33 3305.98 1188 3321.39 1188 3338.51 1188 3338.51 1330.33 3353.93 1330.33 3371.05 1330.33 3383.04 1188 3400.16 1188 3415.57 1188 3419 1266.47 3419 1330.33Z" fill="#FFF4CF" fill-rule="evenodd"/><path d="M3407 1217C3407 1217 3405.29 1258.97 3405.29 1258.97 3405.29 1258.97 3379.65 1547.3 3354.01 1790 3328.36 2032.71 3299.3 2050.96 3189.9 2060.08 3080.49 2069.2 2957.41 2113 2901 2032.71 2919.8 2071.03 2942.03 2096.58 2986.47 2096.58 3290.76 2096.58 3290.76 2096.58 3290.76 2096.58 3354.01 2096.58 3407 2041.83 3407 1974.31 3405.29 1313.72 3405.29 1313.72 3405.29 1313.72 3405.29 1295.47 3407 1235.25 3407 1217Z" fill="#FFE99E" fill-rule="evenodd"/><path d="M3343.57 2055.52C3412 2008.03 3400.02 1765.14 3405.16 1630 3406.87 1975.16 3406.87 1975.16 3406.87 1975.16 3406.87 2042.73 3353.83 2097.52 3290.53 2097.52 2986 2097.52 2986 2097.52 2986 2097.52 3054.43 2092.04 3276.84 2103 3343.57 2055.52Z" fill="#FEC900" fill-rule="evenodd"/><path d="M3287.86 1832.67C3286.14 1829.02 3282.71 1825.38 3279.29 1827.2 3279.29 1827.2 3279.29 1827.2 3279.29 1827.2 3279.29 1827.2 3279.29 1827.2 3279.29 1827.2 3275.86 1825.38 3274.14 1823.55 3275.86 1818.08 3275.86 1818.08 3275.86 1818.08 3275.86 1818.08 3275.86 1818.08 3275.86 1818.08 3275.86 1818.08 3279.29 1816.26 3277.57 1810.79 3275.86 1807.15 3253.57 1768.87 3215.86 1747 3173 1747 3164.43 1747 3155.86 1747 3147.29 1750.65 3142.14 1750.65 3140.43 1756.11 3140.43 1759.76 3140.43 1759.76 3140.43 1759.76 3140.43 1759.76 3138.71 1763.4 3135.29 1767.05 3128.43 1765.23 3128.43 1765.23 3128.43 1765.23 3128.43 1763.4 3126.71 1759.76 3121.57 1757.94 3118.14 1761.58 3085.57 1777.99 3061.57 1812.62 3054.71 1849.07 3054.71 1854.54 3056.43 1858.18 3061.57 1860.01 3061.57 1860.01 3061.57 1860.01 3061.57 1860.01 3061.57 1860.01 3061.57 1860.01 3061.57 1860.01 3065 1861.83 3063.29 1863.65 3061.57 1867.3 3061.57 1867.3 3061.57 1867.3 3059.86 1867.3 3056.43 1867.3 3053 1870.94 3053 1874.59 3053 1931.09 3087.29 1980.3 3138.71 1996.71 3142.14 1998.53 3147.29 1996.71 3147.29 1991.24 3147.29 1991.24 3147.29 1991.24 3147.29 1991.24 3147.29 1991.24 3147.29 1991.24 3147.29 1991.24 3152.43 1987.6 3157.57 1989.42 3159.29 1993.06 3159.29 1993.06 3159.29 1993.06 3159.29 1993.06 3159.29 1998.53 3162.71 2002.18 3166.14 2002.18 3195.29 2004 3224.43 1994.89 3246.71 1976.66 3250.14 1973.01 3250.14 1967.55 3250.14 1967.55 3250.14 1967.55 3250.14 1967.55 3250.14 1967.55 3250.14 1963.9 3251.86 1963.9 3251.86 1963.9 3253.57 1963.9 3258.71 1963.9 3262.14 1960.26 3282.71 1936.56 3293 1907.4 3293 1874.59 3293 1860.01 3291.29 1845.43 3287.86 1832.67Z" fill="#FFE99E" fill-rule="evenodd"/><path d="M3101.02 1742.82C3068.51 1761 3044.56 1793.73 3037.71 1831.91 3036 1835.55 3039.42 1841 3042.84 1841 3047.98 1841 3051.4 1839.18 3053.11 1833.73 3058.24 1801 3078.78 1771.91 3107.87 1757.36 3111.29 1755.55 3113 1750.09 3111.29 1746.45 3109.58 1742.82 3104.44 1741 3101.02 1742.82Z" fill="#CAD0E4" fill-rule="evenodd"/><path d="M3036 1856.28C3036 1912.68 3068.57 1961.81 3120 1978.18 3125.14 1980 3128.57 1978.18 3130.29 1972.72 3132 1969.08 3128.57 1965.44 3125.14 1963.62 3080.57 1949.07 3049.71 1905.4 3049.71 1856.28 3049.71 1852.64 3046.29 1849 3042.86 1849 3039.43 1849 3036 1852.64 3036 1856.28Z" fill="#CAD0E4" fill-rule="evenodd"/><path d="M3225.37 1950.83C3204.93 1967.33 3181.07 1974.67 3155.52 1974.67 3150.41 1972.83 3147 1976.5 3147 1982 3147 1985.67 3150.41 1989.33 3153.81 1991.17 3182.78 1993 3211.74 1982 3233.89 1963.67 3237.3 1961.83 3239 1956.33 3235.59 1952.67 3233.89 1949 3228.78 1949 3225.37 1950.83Z" fill="#FEC900" fill-rule="evenodd"/><path d="M3264.96 1815.83C3261.56 1817.66 3259.85 1821.32 3259.85 1826.8 3264.96 1837.78 3266.67 1850.58 3266.67 1863.38 3266.67 1890.82 3256.44 1916.42 3239.41 1938.37 3236 1940.2 3236 1945.68 3239.41 1949.34 3242.81 1953 3247.93 1953 3249.63 1949.34 3270.07 1925.57 3282 1894.47 3282 1863.38 3282 1848.75 3278.59 1834.12 3275.19 1821.32 3273.48 1815.83 3268.37 1814 3264.96 1815.83Z" fill="#FEC900" fill-rule="evenodd"/><path d="M3239.66 1938.31C3256.75 1916.47 3267 1890.98 3267 1863.68 3267 1850.94 3265.29 1838.2 3260.17 1827.27 3260.17 1821.81 3261.87 1818.17 3265.29 1816.35 3261.87 1814.53 3260.17 1812.71 3260.17 1807.25 3256.75 1809.07 3253.33 1807.25 3249.91 1803.61 3231.12 1770.84 3198.65 1750.82 3161.06 1750.82 3154.23 1750.82 3145.69 1752.64 3138.85 1754.46 3135.43 1754.46 3130.31 1752.64 3130.31 1749 3126.89 1752.64 3125.18 1756.28 3116.64 1752.64 3118.35 1756.28 3118.35 1761.74 3113.22 1763.56 3085.88 1779.95 3065.38 1807.25 3058.54 1841.84 3058.54 1845.48 3055.13 1849.12 3050 1847.3 3053.42 1850.94 3053.42 1852.76 3050 1854.58 3053.42 1854.58 3056.83 1858.22 3056.83 1863.68 3056.83 1912.83 3087.59 1954.7 3132.02 1969.26 3135.43 1971.08 3137.14 1974.72 3137.14 1978.36 3140.56 1976.54 3145.69 1976.54 3147.39 1982 3147.39 1976.54 3152.52 1972.9 3155.94 1974.72 3181.57 1974.72 3205.49 1967.44 3225.99 1951.05 3229.41 1949.23 3232.83 1949.23 3236.24 1952.88 3234.54 1949.23 3237.95 1947.41 3239.66 1949.23 3236.24 1945.59 3236.24 1940.13 3239.66 1938.31Z" fill="#FEC900" fill-rule="evenodd"/><path d="M3218.37 1945.67C3197.93 1962.17 3174.07 1969.5 3148.52 1967.67 3145.11 1967.67 3141.7 1971.33 3140 1976.83 3140 1980.5 3143.41 1984.17 3148.52 1984.17 3177.48 1986 3204.74 1976.83 3228.59 1958.5 3230.3 1954.83 3232 1951.17 3228.59 1947.5 3226.89 1943.83 3221.78 1942 3218.37 1945.67Z" fill="#CAD0E4" fill-rule="evenodd"/><path d="M3257.96 1810.83C3254.56 1810.83 3252.85 1816.31 3254.56 1819.96 3257.96 1832.75 3259.67 1843.71 3259.67 1856.49 3259.67 1885.72 3249.44 1911.29 3232.41 1931.39 3229 1935.04 3230.7 1940.52 3232.41 1944.17 3235.81 1946 3240.93 1946 3244.33 1942.35 3263.07 1920.43 3275 1889.37 3275 1856.49 3275 1841.88 3273.3 1829.09 3268.19 1814.48 3266.48 1810.83 3263.07 1809 3257.96 1810.83Z" fill="#CAD0E4" fill-rule="evenodd"/><path d="M3127.86 1731.66C3124.43 1731.66 3121 1737.15 3122.72 1740.8 3122.72 1746.29 3127.86 1748.12 3131.3 1748.12 3139.88 1746.29 3146.74 1744.46 3155.32 1744.46 3191.36 1744.46 3223.96 1764.59 3244.56 1797.51 3246.27 1801.17 3251.42 1803 3254.85 1799.34 3258.28 1797.51 3260 1792.02 3256.57 1788.37 3234.26 1749.95 3196.51 1728 3155.32 1728 3145.02 1728 3136.44 1729.83 3127.86 1731.66Z" fill="#CAD0E4" fill-rule="evenodd"/><path d="M3232.66 1931.12C3249.75 1911.02 3260 1885.42 3260 1856.17 3260 1843.38 3258.29 1832.41 3254.87 1819.61 3253.17 1815.95 3254.87 1812.3 3258.29 1810.47 3256.58 1808.64 3253.17 1804.98 3254.87 1799.5 3251.46 1803.16 3246.33 1801.33 3244.62 1797.67 3224.12 1764.77 3191.65 1744.66 3155.77 1744.66 3147.23 1744.66 3140.39 1746.48 3131.85 1748.31 3128.43 1748.31 3125.02 1746.48 3123.31 1741 3119.89 1744.66 3118.18 1748.31 3111.35 1746.48 3113.05 1750.14 3111.35 1755.63 3107.93 1757.45 3078.88 1772.08 3058.38 1801.33 3053.25 1834.23 3051.54 1839.72 3048.13 1841.55 3044.71 1841.55 3046.42 1843.38 3046.42 1847.03 3043 1848.86 3048.13 1848.86 3049.83 1852.52 3049.83 1856.17 3049.83 1905.53 3080.59 1949.41 3125.02 1964.03 3128.43 1965.86 3130.14 1969.52 3130.14 1973.17 3133.56 1969.52 3138.68 1971.34 3142.1 1975 3142.1 1971.34 3145.52 1967.69 3148.94 1967.69 3174.57 1969.52 3198.49 1962.2 3218.99 1945.75 3222.41 1942.09 3227.54 1943.92 3229.24 1947.58 3229.24 1943.92 3230.95 1942.09 3232.66 1943.92 3230.95 1940.27 3229.24 1934.78 3232.66 1931.12Z" fill="#5174AA" fill-rule="evenodd"/><path d="M3073.71 1892.26C3073.71 1828.48 3121.49 1779.27 3179.51 1779.27 3208.52 1779.27 3235.82 1792.03 3254.59 1812.07 3256.29 1812.07 3256.29 1810.25 3258 1810.25 3256.29 1808.43 3252.88 1804.79 3254.59 1799.32 3251.17 1802.96 3246.06 1801.14 3244.35 1797.5 3223.87 1764.69 3191.45 1744.65 3155.62 1744.65 3147.09 1744.65 3140.26 1746.47 3131.73 1748.29 3128.32 1748.29 3124.9 1746.47 3123.2 1741 3119.79 1744.65 3118.08 1748.29 3111.25 1746.47 3112.96 1750.11 3111.25 1755.58 3107.84 1757.4 3078.83 1771.98 3058.36 1801.14 3053.24 1833.94 3051.53 1839.41 3048.12 1841.23 3044.71 1841.23 3046.41 1843.06 3046.41 1846.7 3043 1848.52 3048.12 1848.52 3049.83 1852.17 3049.83 1855.81 3049.83 1886.79 3061.77 1915.95 3082.25 1936 3077.13 1923.24 3073.71 1906.84 3073.71 1892.26Z" fill="#005192" fill-rule="evenodd"/><path d="M3248.16 1836.36C3246.45 1830.91 3246.45 1827.27 3246.45 1825.45 3244.74 1820 3255 1854.55 3234.48 1896.36 3217.38 1929.09 3184.89 1952.73 3147.27 1952.73 3123.33 1952.73 3101.1 1941.82 3084 1925.45 3101.1 1947.27 3126.75 1960 3155.82 1960 3207.12 1960 3249.87 1914.55 3249.87 1858.18 3249.87 1850.91 3249.87 1843.64 3248.16 1836.36Z" fill="#A7B2D2" fill-rule="evenodd"/><path d="M3133 1733.69C3157.06 1730 3212.06 1731.85 3243 1778 3229.25 1757.69 3186.28 1731.85 3133 1733.69Z" fill="#FFFFFF" fill-rule="evenodd"/><path d="M3236 1933C3265.04 1896.33 3270.17 1852.33 3259.92 1823 3271.88 1850.5 3277 1879.83 3236 1933Z" fill="#FFFFFF" fill-rule="evenodd"/><path d="M3149 1972.6C3164.21 1978 3198.02 1974.4 3220 1951 3208.17 1956.4 3198.02 1972.6 3149 1972.6Z" fill="#FFFFFF" fill-rule="evenodd"/><path d="M3058 1916C3063.17 1930.57 3080.39 1959.71 3120 1967 3106.22 1959.71 3083.83 1954.25 3058 1916Z" fill="#FFFFFF" fill-rule="evenodd"/><path d="M3323.42 1214C3326.83 1237.64 3331.96 1286.73 3337.08 1314 3340.5 1341.27 3352.46 1346.73 3361 1346.73 3333.67 1354 3325.12 1348.55 3321.71 1312.18 3320 1274 3323.42 1214 3323.42 1214Z" fill="#FFE99E" fill-rule="evenodd"/><path d="M3308.25 1299C3308.25 1315.71 3301.25 1341.71 3289 1341.71 3304.75 1351 3317 1336.14 3308.25 1299Z" fill="#FFFFFF" fill-rule="evenodd"/><path d="M3256.42 1214C3259.83 1237.64 3264.96 1286.73 3270.08 1314 3275.21 1341.27 3287.17 1346.73 3294 1346.73 3268.38 1354 3258.12 1348.55 3256.42 1312.18 3253 1274 3256.42 1214 3256.42 1214Z" fill="#FFE99E" fill-rule="evenodd"/><path d="M3242.47 1299C3240.76 1315.71 3233.94 1341.71 3222 1341.71 3237.35 1351 3251 1336.14 3242.47 1299Z" fill="#FFFFFF" fill-rule="evenodd"/><path d="M3188.42 1214C3193.54 1237.64 3196.96 1286.73 3202.08 1314 3207.21 1341.27 3219.17 1346.73 3226 1346.73 3200.37 1354 3190.12 1348.55 3188.42 1312.18 3185 1274 3188.42 1214 3188.42 1214Z" fill="#FFE99E" fill-rule="evenodd"/><path d="M3174.47 1299C3172.76 1315.71 3165.94 1341.71 3154 1341.71 3169.35 1351 3183 1336.14 3174.47 1299Z" fill="#FFFFFF" fill-rule="evenodd"/><path d="M3124.48 1214C3127.96 1237.64 3133.17 1286.73 3136.65 1314 3141.87 1341.27 3154.04 1346.73 3161 1346.73 3134.91 1354 3124.48 1348.55 3122.74 1312.18 3121 1274 3124.48 1214 3124.48 1214Z" fill="#FFE99E" fill-rule="evenodd"/><path d="M3109.47 1299C3109.47 1315.71 3100.94 1341.71 3089 1341.71 3104.35 1351 3118 1336.14 3109.47 1299Z" fill="#FFFFFF" fill-rule="evenodd"/><path d="M3056.48 1214C3059.96 1237.64 3065.17 1286.73 3068.65 1314 3073.87 1341.27 3086.04 1346.73 3093 1346.73 3066.91 1354 3056.48 1348.55 3054.74 1312.18 3053 1274 3056.48 1214 3056.48 1214Z" fill="#FFE99E" fill-rule="evenodd"/><path d="M3041.18 1299C3041.18 1315.71 3032.35 1341.71 3020 1341.71 3037.65 1351 3050 1336.14 3041.18 1299Z" fill="#FFFFFF" fill-rule="evenodd"/><path d="M2989.25 1214C2992.75 1237.64 2996.25 1286.73 3001.5 1314 3006.75 1341.27 3019 1346.73 3026 1346.73 2999.75 1354 2989.25 1348.55 2987.5 1312.18 2984 1274 2989.25 1214 2989.25 1214Z" fill="#FFE99E" fill-rule="evenodd"/><path d="M2974.47 1299C2972.76 1315.71 2965.94 1341.71 2954 1341.71 2969.35 1351 2983 1336.14 2974.47 1299Z" fill="#FFFFFF" fill-rule="evenodd"/><path d="M2902 1207C2905.44 1230.59 2924.34 1283.22 2929.5 1310.44 2932.94 1337.67 2950.12 1346.74 2957 1346.74 2931.22 1354 2919.19 1348.56 2912.31 1312.26 2905.44 1274.15 2902 1207 2902 1207Z" fill="#FFE99E" fill-rule="evenodd"/><path d="M2899 1400C2899 1494.82 2899 1899.65 2899 1958 2905.85 1865 2899 1451.06 2946.94 1418.24 2994.87 1383.59 3226 1370.82 3226 1370.82 3226 1370.82 3030.83 1369 2967.48 1369 2905.85 1369 2904.14 1381.76 2899 1400Z" fill="#FFFFFF" fill-rule="evenodd"/><path d="M3419.5 1330.83C3419.5 1991.41 3419.5 1991.41 3419.5 1991.41 3419.5 2060.76 3368.13 2115.5 3304.77 2115.5 2999.95 2115.5 2999.95 2115.5 2999.95 2115.5 2936.59 2115.5 2883.5 2060.76 2883.5 1991.41 2883.5 1330.83 2883.5 1330.83 2883.5 1330.83 2883.5 1263.32 2885.21 1188.5 2902.34 1188.5 2919.46 1188.5 2934.87 1330.83 2952 1330.83 2969.12 1330.83 2969.12 1188.5 2986.25 1188.5 3003.37 1188.5 3003.37 1330.83 3020.5 1330.83 3037.62 1330.83 3037.62 1188.5 3054.75 1188.5 3071.87 1188.5 3071.87 1330.83 3087.28 1330.83 3104.41 1330.83 3104.41 1188.5 3119.82 1188.5 3136.94 1188.5 3136.94 1330.83 3154.07 1330.83 3171.19 1330.83 3171.19 1188.5 3186.61 1188.5 3203.73 1188.5 3203.73 1330.83 3222.57 1330.83 3237.98 1330.83 3237.98 1188.5 3255.1 1188.5 3272.23 1188.5 3272.23 1330.83 3289.35 1330.83 3306.48 1330.83 3306.48 1188.5 3321.89 1188.5 3339.01 1188.5 3339.01 1330.83 3354.43 1330.83 3371.55 1330.83 3383.54 1188.5 3400.66 1188.5 3416.08 1188.5 3419.5 1266.97 3419.5 1330.83Z" stroke="#000000" stroke-width="5.15643" stroke-linecap="round" stroke-linejoin="round" stroke-miterlimit="10" fill="none" fill-rule="evenodd"/><path d="M3101.52 1743.32C3069.01 1761.5 3045.06 1794.23 3038.21 1832.41 3036.5 1836.05 3039.92 1841.5 3043.34 1841.5 3048.48 1841.5 3051.9 1839.68 3053.61 1834.23 3058.74 1801.5 3079.28 1772.41 3108.37 1757.86 3111.79 1756.05 3113.5 1750.59 3111.79 1746.95 3110.08 1743.32 3104.94 1741.5 3101.52 1743.32Z" stroke="#707173" stroke-width="3.4375" stroke-linecap="round" stroke-linejoin="round" stroke-miterlimit="10" fill="none" fill-rule="evenodd"/><path d="M3036.5 1856.78C3036.5 1913.18 3069.07 1962.31 3120.5 1978.68 3125.64 1980.5 3129.07 1978.68 3130.79 1973.22 3132.5 1969.58 3129.07 1965.94 3125.64 1964.12 3081.07 1949.57 3050.21 1905.9 3050.21 1856.78 3050.21 1853.14 3046.79 1849.5 3043.36 1849.5 3039.93 1849.5 3036.5 1853.14 3036.5 1856.78Z" stroke="#707173" stroke-width="3.4375" stroke-linecap="round" stroke-linejoin="round" stroke-miterlimit="10" fill="none" fill-rule="evenodd"/><path d="M3218.87 1946.17C3198.43 1962.67 3174.57 1970 3149.02 1968.17 3145.61 1968.17 3142.2 1971.83 3140.5 1977.33 3140.5 1981 3143.91 1984.67 3149.02 1984.67 3177.98 1986.5 3205.24 1977.33 3229.09 1959 3230.8 1955.33 3232.5 1951.67 3229.09 1948 3227.39 1944.33 3222.28 1942.5 3218.87 1946.17Z" stroke="#707173" stroke-width="3.4375" stroke-linecap="round" stroke-linejoin="round" stroke-miterlimit="10" fill="none" fill-rule="evenodd"/><path d="M3258.46 1811.33C3255.06 1811.33 3253.35 1816.81 3255.06 1820.46 3258.46 1833.25 3260.17 1844.21 3260.17 1856.99 3260.17 1886.22 3249.94 1911.79 3232.91 1931.89 3229.5 1935.54 3231.2 1941.02 3232.91 1944.67 3236.31 1946.5 3241.43 1946.5 3244.83 1942.85 3263.57 1920.93 3275.5 1889.87 3275.5 1856.99 3275.5 1842.38 3273.8 1829.59 3268.69 1814.98 3266.98 1811.33 3263.57 1809.5 3258.46 1811.33Z" stroke="#707173" stroke-width="3.4375" stroke-linecap="round" stroke-linejoin="round" stroke-miterlimit="10" fill="none" fill-rule="evenodd"/><path d="M3128.36 1732.16C3124.93 1732.16 3121.5 1737.65 3123.22 1741.3 3123.22 1746.79 3128.36 1748.62 3131.8 1748.62 3140.38 1746.79 3147.24 1744.96 3155.82 1744.96 3191.86 1744.96 3224.46 1765.09 3245.06 1798.01 3246.77 1801.67 3251.92 1803.5 3255.35 1799.84 3258.78 1798.01 3260.5 1792.52 3257.07 1788.87 3234.76 1750.45 3197.01 1728.5 3155.82 1728.5 3145.52 1728.5 3136.94 1730.33 3128.36 1732.16Z" stroke="#707173" stroke-width="3.4375" stroke-linecap="round" stroke-linejoin="round" stroke-miterlimit="10" fill="none" fill-rule="evenodd"/><path d="M3233.16 1931.62C3250.25 1911.52 3260.5 1885.92 3260.5 1856.67 3260.5 1843.87 3258.79 1832.91 3255.37 1820.11 3253.67 1816.45 3255.37 1812.8 3258.79 1810.97 3257.08 1809.14 3253.67 1805.48 3255.37 1800 3251.96 1803.66 3246.83 1801.83 3245.12 1798.17 3224.62 1765.27 3192.15 1745.16 3156.27 1745.16 3147.73 1745.16 3140.89 1746.98 3132.35 1748.81 3128.93 1748.81 3125.52 1746.98 3123.81 1741.5 3120.39 1745.16 3118.68 1748.81 3111.85 1746.98 3113.56 1750.64 3111.85 1756.12 3108.43 1757.95 3079.38 1772.58 3058.88 1801.83 3053.75 1834.73 3052.04 1840.22 3048.63 1842.05 3045.21 1842.05 3046.92 1843.87 3046.92 1847.53 3043.5 1849.36 3048.63 1849.36 3050.33 1853.02 3050.33 1856.67 3050.33 1906.03 3081.09 1949.91 3125.52 1964.53 3128.93 1966.36 3130.64 1970.02 3130.64 1973.67 3134.06 1970.02 3139.19 1971.84 3142.6 1975.5 3142.6 1971.84 3146.02 1968.19 3149.44 1968.19 3175.07 1970.02 3198.99 1962.7 3219.49 1946.25 3222.91 1942.59 3228.04 1944.42 3229.74 1948.08 3229.74 1944.42 3231.45 1942.59 3233.16 1944.42 3231.45 1940.77 3229.74 1935.28 3233.16 1931.62Z" stroke="#707173" stroke-width="3.4375" stroke-linecap="round" stroke-linejoin="round" stroke-miterlimit="10" fill="none" fill-rule="evenodd"/><path d="M2916.5 1507.86C2933.63 1511.5 2945.61 1496.92 2955.89 1482.35 2979.87 1447.73 2978.16 1429.51 3019.26 1411.29 3060.36 1393.08 3113.45 1382.14 3159.7 1385.79 3181.96 1378.5 3192.24 1391.25 3214.5 1402.18" stroke="#E2001A" stroke-width="5.15643" stroke-linecap="round" stroke-linejoin="round" stroke-miterlimit="10" fill="none" fill-rule="evenodd"/><path d="M2930.5 1512.15C2962.91 1532.24 2997.03 1508.5 3031.15 1539.54 3061.85 1568.76 3070.38 1592.5 3118.15 1590.67 3159.09 1587.02 3162.5 1583.37 3220.5 1592.5" stroke="#E2001A" stroke-width="5.15643" stroke-linecap="round" stroke-linejoin="round" stroke-miterlimit="10" fill="none" fill-rule="evenodd"/><path d="M2913.5 1513.35C2942.6 1522.5 2980.26 1500.54 3005.94 1487.73 3019.63 1480.41 3029.9 1471.27 3045.31 1469.44 3060.71 1467.61 3072.69 1480.41 3089.81 1473.1 3137.74 1469.44 3148.01 1436.5 3204.5 1462.12" stroke="#E2001A" stroke-width="5.15643" stroke-linecap="round" stroke-linejoin="round" stroke-miterlimit="10" fill="none" fill-rule="evenodd"/><path d="M2923.5 1513.5C2935.49 1520.81 2957.75 1529.95 2968.02 1539.1 2988.57 1555.55 2985.15 1564.69 2990.29 1588.46 3000.56 1628.68 3024.54 1672.56 3060.5 1694.5" stroke="#E2001A" stroke-width="5.15643" stroke-linecap="round" stroke-linejoin="round" stroke-miterlimit="10" fill="none" fill-rule="evenodd"/><path d="M2916.5 1521.5C2954.21 1543.35 2945.64 1618.02 2955.93 1654.44 2966.21 1690.87 3014.21 1740.04 3048.5 1745.5" stroke="#E2001A" stroke-width="5.15643" stroke-linecap="round" stroke-linejoin="round" stroke-miterlimit="10" fill="none" fill-rule="evenodd"/><path d="M3392.5 1586.5C3368.51 1617.34 3293.12 1622.78 3257.14 1631.85 3214.3 1640.92 3130.34 1620.96 3099.5 1664.5" stroke="#E2001A" stroke-width="5.15643" stroke-linecap="round" stroke-linejoin="round" stroke-miterlimit="10" fill="none" fill-rule="evenodd"/><path d="M3390.5 1568.5C3332.32 1608.5 3275.86 1555.77 3217.68 1559.41 3169.77 1555.77 3115.01 1555.77 3082.5 1528.5" stroke="#E2001A" stroke-width="5.15643" stroke-linecap="round" stroke-linejoin="round" stroke-miterlimit="10" fill="none" fill-rule="evenodd"/><path d="M3385.5 1597.5C3373.57 1630.4 3342.88 1650.5 3322.42 1672.43 3307.07 1688.88 3283.2 1734.57 3281.5 1756.5" stroke="#E2001A" stroke-width="5.15643" stroke-linecap="round" stroke-linejoin="round" stroke-miterlimit="10" fill="none" fill-rule="evenodd"/><path d="M3388.7 1579.5C3407.5 1637.8 3335.73 1707.03 3327.18 1759.87 3322.06 1792.66 3332.31 1821.82 3323.77 1856.43 3313.51 1894.69 3308.39 1958.46 3272.5 1978.5" stroke="#E2001A" stroke-width="5.15643" stroke-linecap="round" stroke-linejoin="round" stroke-miterlimit="10" fill="none" fill-rule="evenodd"/><path d="M3390.36 1608.5C3407.5 1632.21 3366.36 1701.5 3368.07 1736.15 3368.07 1765.32 3378.36 1794.5 3374.93 1823.68 3373.21 1845.56 3362.93 1865.62 3359.5 1887.5" stroke="#E2001A" stroke-width="5.15643" stroke-linecap="round" stroke-linejoin="round" stroke-miterlimit="10" fill="none" fill-rule="evenodd"/><path d="M3395.5 1572.5C3346.5 1539.57 3383.67 1459.07 3365.09 1411.5" stroke="#E2001A" stroke-width="5.15643" stroke-linecap="round" stroke-linejoin="round" stroke-miterlimit="10" fill="none" fill-rule="evenodd"/><path d="M3222.5 1489.92C3268.83 1539.08 3347.76 1575.5 3373.5 1564.58 3346.05 1573.68 3316.88 1519.06 3310.01 1493.57 3299.72 1426.2 3280.84 1382.5 3246.52 1382.5" stroke="#E2001A" stroke-width="5.15643" stroke-linecap="round" stroke-linejoin="round" stroke-miterlimit="10" fill="none" fill-rule="evenodd"/><path d="M2930.5 1957.5C2942.4 1930.04 2974.7 1897.1 2978.1 1842.19 2981.5 1787.28 2959.4 1768.97 2964.5 1752.5" stroke="#E2001A" stroke-width="5.15643" stroke-linecap="round" stroke-linejoin="round" stroke-miterlimit="10" fill="none" fill-rule="evenodd"/><path d="M2933.92 1823.29C2939.02 1874.38 2930.51 1940.06 2913.5 1987.5 2923.71 1956.48 2959.44 1960.13 2993.46 1896.27 3029.19 1830.59 3003.67 1823.29 3044.5 1779.5" stroke="#E2001A" stroke-width="5.15643" stroke-linecap="round" stroke-linejoin="round" stroke-miterlimit="10" fill="none" fill-rule="evenodd"/><path d="M3048.8 2089.5C2930.63 2075.05 2978.58 1999.18 2913.5 1988.34 2961.45 1977.5 2959.74 2011.82 3012.83 2031.69 3067.64 2051.56 3160.12 2055.18 3211.5 2035.31" stroke="#E2001A" stroke-width="5.15643" stroke-linecap="round" stroke-linejoin="round" stroke-miterlimit="10" fill="none" fill-rule="evenodd"/><path d="M2916.5 1977.28C2974.67 1953.5 3008.89 1953.5 3067.05 1991.91 3125.22 2028.5 3162.86 2015.7 3200.5 2008.38" stroke="#E2001A" stroke-width="5.15643" stroke-linecap="round" stroke-linejoin="round" stroke-miterlimit="10" fill="none" fill-rule="evenodd"/><path d="M2940.21 1498.89C2931.59 1495.26 2926.41 1488 2916.07 1495.26 2904 1500.71 2905.72 1517.05 2909.17 1527.95 2916.07 1557 2928.14 1529.76 2947.1 1529.76 2945.38 1520.68 2947.1 1515.24 2954 1511.61 2947.1 1511.61 2940.21 1506.16 2938.48 1500.71" fill="#E2001A" fill-rule="evenodd"/><path d="M3384.65 1560.49C3379.57 1555 3372.78 1556.83 3369.39 1562.31 3366 1569.63 3369.39 1571.46 3371.09 1576.94 3372.78 1584.26 3379.57 1597.06 3372.78 1604.37 3386.35 1597.06 3372.78 1619 3389.74 1617.17 3399.91 1615.34 3405 1569.63 3393.13 1564.14" fill="#E2001A" fill-rule="evenodd"/><path d="M2924.96 1942C2911.12 1953 2899 1984.17 2914.58 1997 2923.23 2004.33 2935.35 2002.5 2944 2008 2942.27 1998.83 2938.81 1987.83 2938.81 1980.5 2938.81 1973.17 2940.54 1969.5 2938.81 1964 2938.81 1956.67 2935.35 1953 2930.15 1947.5" fill="#E2001A" fill-rule="evenodd"/></g></svg>