<svg width="853" height="96" xmlns="http://www.w3.org/2000/svg" xmlns:xlink="http://www.w3.org/1999/xlink" xml:space="preserve" overflow="hidden"><g transform="translate(-2734 -626)"><path d="M2738.37 668.167C2736.93 669.708 2735.5 672.792 2736.93 675.875 2738.37 678.958 2741.24 680.5 2744.1 678.958 2767.05 665.083 2788.56 654.292 2811.5 648.125 2804.33 646.583 2797.16 643.5 2789.99 643.5 2772.78 649.667 2757.01 657.375 2738.37 668.167Z" stroke="#000000" stroke-width="2.86476" stroke-miterlimit="8" fill="#E2001A" fill-rule="evenodd"/><path d="M2869.52 673.5C2826.75 697.758 2786.83 708.371 2741.2 708.371 2738.35 708.371 2735.5 711.403 2735.5 714.435 2735.5 717.468 2738.35 720.5 2741.2 720.5 2791.1 720.5 2833.88 708.371 2879.5 681.081 2879.5 679.564 2878.07 679.564 2878.07 679.564 2875.22 678.048 2872.37 676.532 2869.52 673.5Z" stroke="#000000" stroke-width="2.86476" stroke-miterlimit="8" fill="#E2001A" fill-rule="evenodd"/><path d="M3440.25 627.5C3388.64 627.5 3345.63 639.66 3298.32 668.54 3275.38 682.22 3252.44 692.86 3229.5 698.94 3236.67 700.46 3243.84 703.5 3251.01 703.5 3268.21 697.42 3285.41 689.82 3302.62 679.18 3348.49 651.82 3391.5 639.66 3440.25 639.66 3457.45 639.66 3473.22 641.18 3488.99 644.22 3496.16 641.18 3503.33 638.14 3510.5 636.62 3487.56 630.54 3464.62 627.5 3440.25 627.5Z" stroke="#000000" stroke-width="2.86476" stroke-miterlimit="8" fill="#E2001A" fill-rule="evenodd"/><path d="M3017.5 668.14C2973.12 695.86 2930.18 708.18 2881.51 708.18 2832.84 708.18 2789.9 695.86 2744.09 668.14 2741.23 666.6 2738.36 668.14 2736.93 671.22 2735.5 672.76 2736.93 677.38 2738.36 678.92 2787.03 708.18 2829.98 720.5 2881.51 720.5 2931.61 720.5 2975.98 708.18 3023.22 678.92 3046.12 665.06 3067.6 654.28 3090.5 648.12 3083.34 646.58 3076.19 645.04 3069.03 643.5 3051.85 649.66 3036.1 657.36 3017.5 668.14Z" stroke="#000000" stroke-width="2.86476" stroke-miterlimit="8" fill="#E2001A" fill-rule="evenodd"/><path d="M3222.32 638.172C3200.84 645.795 3179.36 654.943 3157.89 668.664 3112.07 696.107 3069.11 708.303 3020.43 708.303 2971.75 708.303 2928.8 696.107 2882.98 668.664 2835.73 639.697 2792.77 627.5 2741.23 627.5 2738.36 627.5 2735.5 630.549 2735.5 633.598 2735.5 636.647 2738.36 639.697 2741.23 639.697 2789.91 639.697 2832.86 651.893 2878.68 679.336 2925.93 708.303 2968.89 720.5 3020.43 720.5 3071.98 720.5 3114.93 708.303 3162.18 679.336 3189.39 662.565 3213.73 651.893 3239.5 645.795" stroke="#000000" stroke-width="2.86476" stroke-miterlimit="8" fill="#E2001A" fill-rule="evenodd"/><path d="M3222.32 638.172C3200.84 645.795 3179.36 654.943 3157.89 668.664 3112.07 696.107 3069.11 708.303 3020.43 708.303 2971.75 708.303 2928.8 696.107 2882.98 668.664 2835.73 639.697 2792.77 627.5 2741.23 627.5 2738.36 627.5 2735.5 630.549 2735.5 633.598 2735.5 636.647 2738.36 639.697 2741.23 639.697 2789.91 639.697 2832.86 651.893 2878.68 679.336 2925.93 708.303 2968.89 720.5 3020.43 720.5 3071.98 720.5 3114.93 708.303 3162.18 679.336 3189.39 662.565 3213.73 651.893 3239.5 645.795" stroke="#000000" stroke-width="2.86476" stroke-miterlimit="8" fill="none" fill-rule="evenodd"/><path d="M3578.77 627.5C3527.18 627.5 3484.2 639.697 3436.91 668.664 3391.05 696.107 3348.07 708.303 3299.35 708.303 3250.63 708.303 3207.64 696.107 3161.79 668.664 3114.5 639.697 3071.51 627.5 3019.93 627.5 2969.77 627.5 2926.79 639.697 2879.5 667.139 2880.93 667.139 2882.37 668.664 2882.37 668.664 2885.23 670.188 2888.1 671.713 2890.96 673.238 2933.95 650.369 2974.07 639.697 3019.93 639.697 3068.65 639.697 3111.63 651.893 3157.49 679.336 3204.77 708.303 3247.76 720.5 3299.35 720.5 3350.93 720.5 3393.92 708.303 3441.21 679.336 3487.06 651.893 3530.05 639.697 3578.77 639.697 3581.63 639.697 3584.5 636.647 3584.5 633.598 3584.5 630.549 3581.63 627.5 3578.77 627.5Z" stroke="#000000" stroke-width="2.86476" stroke-miterlimit="8" fill="#E2001A" fill-rule="evenodd"/><path d="M3584.07 671.713C3582.64 668.664 3578.35 667.139 3576.92 668.664 3531.14 696.107 3488.22 708.303 3439.58 708.303 3390.93 708.303 3348.01 696.107 3302.23 668.664 3255.02 639.697 3212.1 627.5 3160.6 627.5 3136.28 627.5 3113.39 630.549 3090.5 636.647 3097.65 638.172 3104.81 641.221 3111.96 644.27 3127.7 641.221 3143.43 639.697 3160.6 639.697 3209.24 639.697 3252.16 651.893 3297.94 679.336 3345.15 708.303 3388.07 720.5 3439.58 720.5 3491.08 720.5 3534 708.303 3581.21 679.336 3584.07 677.811 3585.5 673.238 3584.07 671.713Z" stroke="#000000" stroke-width="2.86476" stroke-miterlimit="8" fill="#E2001A" fill-rule="evenodd"/><path d="M3160.79 708.303C3112.12 708.303 3069.17 696.107 3023.36 668.664 3006.19 657.992 2989.01 650.369 2971.83 642.746 2950.36 636.647 2950.36 636.647 2950.36 636.647 2928.88 630.549 2905.98 627.5 2881.64 627.5 2857.31 627.5 2834.4 630.549 2811.5 636.647 2818.66 638.172 2825.82 641.221 2832.97 644.27 2848.72 641.221 2864.47 639.697 2881.64 639.697 2897.39 639.697 2914.57 641.221 2930.31 644.27 2940.34 645.795 2951.79 648.844 2951.79 648.844 2973.26 654.943 2996.16 665.615 3017.64 679.336 3066.31 708.303 3109.25 720.5 3160.79 720.5 3185.12 720.5 3208.03 717.451 3229.5 711.352 3222.34 709.828 3216.62 706.779 3209.46 703.729 3193.71 706.779 3177.97 708.303 3160.79 708.303Z" stroke="#000000" stroke-width="2.86476" stroke-miterlimit="8" fill="#E2001A" fill-rule="evenodd"/><path d="M3578.78 708.303C3530.19 708.303 3487.32 696.107 3441.58 668.664 3424.44 657.992 3408.71 650.369 3391.56 644.27 3387.28 641.221 3378.7 639.697 3370.13 636.647 3347.26 630.549 3324.39 627.5 3300.1 627.5 3275.8 627.5 3252.94 630.549 3231.5 636.647 3238.65 638.172 3244.36 641.221 3251.51 644.27 3267.23 641.221 3282.95 639.697 3300.1 639.697 3317.25 639.697 3332.97 641.221 3348.69 644.27 3354.41 644.27 3361.55 647.32 3370.13 648.844 3392.99 654.943 3414.43 665.615 3437.3 679.336 3484.46 708.303 3527.33 720.5 3578.78 720.5 3581.64 720.5 3584.5 717.451 3584.5 714.402 3584.5 711.352 3581.64 708.303 3578.78 708.303Z" stroke="#000000" stroke-width="2.86476" stroke-miterlimit="8" fill="#E2001A" fill-rule="evenodd"/><path d="M3486.5 642.219C3493.57 643.75 3503.47 646.812 3509.13 648.344 3531.76 654.469 3554.39 665.188 3577.01 678.969 3578.43 680.5 3582.67 678.969 3584.09 675.906 3585.5 674.375 3584.09 669.781 3581.26 668.25 3564.29 657.531 3547.31 649.875 3530.34 642.219 3520.44 639.156 3513.37 637.625 3503.47 634.562 3487.91 631.5 3487.91 631.5 3487.91 631.5" stroke="#000000" stroke-width="2.86476" stroke-miterlimit="8" fill="#E2001A" fill-rule="evenodd"/><path d="M3486.5 642.219C3493.57 643.75 3503.47 646.812 3509.13 648.344 3531.76 654.469 3554.39 665.188 3577.01 678.969 3578.43 680.5 3582.67 678.969 3584.09 675.906 3585.5 674.375 3584.09 669.781 3581.26 668.25 3564.29 657.531 3547.31 649.875 3530.34 642.219 3520.44 639.156 3513.37 637.625 3503.47 634.562 3487.91 631.5 3487.91 631.5 3487.91 631.5" stroke="#000000" stroke-width="2.86476" stroke-miterlimit="8" fill="none" fill-rule="evenodd"/><path d="M3576.5 633C3576.5 629.962 3578.29 627.5 3580.5 627.5 3582.71 627.5 3584.5 629.962 3584.5 633 3584.5 636.037 3582.71 638.5 3580.5 638.5 3578.29 638.5 3576.5 636.037 3576.5 633Z" stroke="#000000" stroke-width="2.86476" stroke-miterlimit="8" fill="#FBE725" fill-rule="evenodd"/><path d="M3576.5 674C3576.5 670.963 3578.29 668.5 3580.5 668.5 3582.71 668.5 3584.5 670.963 3584.5 674 3584.5 677.038 3582.71 679.5 3580.5 679.5 3578.29 679.5 3576.5 677.038 3576.5 674Z" stroke="#000000" stroke-width="2.86476" stroke-miterlimit="8" fill="#FBE725" fill-rule="evenodd"/><path d="M3576.5 713.5C3576.5 710.739 3578.29 708.5 3580.5 708.5 3582.71 708.5 3584.5 710.739 3584.5 713.5 3584.5 716.261 3582.71 718.5 3580.5 718.5 3578.29 718.5 3576.5 716.261 3576.5 713.5Z" stroke="#000000" stroke-width="2.86476" stroke-miterlimit="8" fill="#FBE725" fill-rule="evenodd"/></g></svg>