<svg width="52" height="58" xmlns="http://www.w3.org/2000/svg" xmlns:xlink="http://www.w3.org/1999/xlink" xml:space="preserve" overflow="hidden"><g transform="translate(-1563 -1655)"><path d="M1564 1684C1564 1668.54 1575.19 1656 1589 1656 1602.81 1656 1614 1668.54 1614 1684 1614 1699.46 1602.81 1712 1589 1712 1575.19 1712 1564 1699.46 1564 1684Z" fill="#E2007A" fill-rule="evenodd"/><path d="M1610.5 1676.77C1609 1672 1609 1675.18 1609 1679.95 1609 1692.68 1598.5 1702.23 1586.5 1702.23 1582 1702.23 1577.5 1700.64 1576 1699.05 1573 1699.05 1573 1699.05 1574.5 1700.64 1577.5 1705.41 1583.5 1707 1589.5 1707 1601.5 1707 1612 1697.45 1612 1684.73 1612 1681.55 1612 1678.36 1610.5 1676.77Z" fill="#AC005E" fill-rule="evenodd"/><path d="M1589 1707C1601.27 1707 1612 1697.57 1612 1685 1612 1688.14 1607.4 1705.43 1589 1707Z" fill="#640033" fill-rule="evenodd"/><path d="M1594 1662.57C1577.5 1661 1570 1672 1570 1679.86 1570 1681.43 1570 1684.57 1570 1686.14 1571.5 1689.29 1574.5 1694 1582 1690.86 1588 1689.29 1588 1681.43 1592.5 1683 1603 1684.57 1609 1676.71 1606 1668.86 1603 1665.71 1600 1664.14 1595.5 1662.57" fill="#EF91B8" fill-rule="evenodd"/><path d="M1574 1675.5C1574 1673.01 1576.46 1671 1579.5 1671 1582.54 1671 1585 1673.01 1585 1675.5 1585 1677.99 1582.54 1680 1579.5 1680 1576.46 1680 1574 1677.99 1574 1675.5Z" fill="#FFFFFF" fill-rule="evenodd"/><path d="M1585 1671.5C1585 1670.12 1585.67 1669 1586.5 1669 1587.33 1669 1588 1670.12 1588 1671.5 1588 1672.88 1587.33 1674 1586.5 1674 1585.67 1674 1585 1672.88 1585 1671.5Z" fill="#FFFFFF" fill-rule="evenodd"/><path d="M1576 1684.5C1576 1683.67 1576.67 1683 1577.5 1683 1578.33 1683 1579 1683.67 1579 1684.5 1579 1685.33 1578.33 1686 1577.5 1686 1576.67 1686 1576 1685.33 1576 1684.5Z" fill="#FFFFFF" fill-rule="evenodd"/><path d="M1564 1684C1564 1668.54 1575.19 1656 1589 1656 1602.81 1656 1614 1668.54 1614 1684 1614 1699.46 1602.81 1712 1589 1712 1575.19 1712 1564 1699.46 1564 1684Z" stroke="#000000" stroke-width="2.29167" stroke-linecap="round" stroke-linejoin="round" stroke-miterlimit="10" fill="none" fill-rule="evenodd"/></g></svg>