<svg width="49" height="52" xmlns="http://www.w3.org/2000/svg" xmlns:xlink="http://www.w3.org/1999/xlink" xml:space="preserve" overflow="hidden"><g transform="translate(-1817 -1727)"><path d="M1818 1753C1818 1739.19 1828.52 1728 1841.5 1728 1854.48 1728 1865 1739.19 1865 1753 1865 1766.81 1854.48 1778 1841.5 1778 1828.52 1778 1818 1766.81 1818 1753Z" fill="#31BDEA" fill-rule="evenodd"/><path d="M1861 1747.23C1859.65 1743 1859.65 1745.82 1859.65 1750.05 1859.65 1761.32 1848.88 1769.77 1838.12 1769.77 1835.42 1769.77 1831.38 1768.36 1828.69 1766.95 1827.35 1766.95 1826 1766.95 1827.35 1768.36 1831.38 1772.59 1835.42 1774 1842.15 1774 1852.92 1774 1861 1765.55 1861 1754.27 1861 1751.45 1861 1748.64 1861 1747.23Z" fill="#009EE0" fill-rule="evenodd"/><path d="M1842 1774C1852.86 1774 1861 1765.43 1861 1754 1861 1756.86 1856.93 1772.57 1842 1774Z" fill="#007FB5" fill-rule="evenodd"/><path d="M1844.33 1734.43C1829.67 1733 1824.33 1743 1823 1750.14 1823 1751.57 1823 1754.43 1824.33 1755.86 1824.33 1758.71 1827 1763 1833.67 1760.14 1840.33 1758.71 1839 1751.57 1843 1753 1852.33 1754.43 1859 1747.29 1855 1740.14 1853.67 1737.29 1851 1735.86 1845.67 1734.43" fill="#ABDDF5" fill-rule="evenodd"/><path d="M1827 1745.5C1827 1743.01 1829.24 1741 1832 1741 1834.76 1741 1837 1743.01 1837 1745.5 1837 1747.99 1834.76 1750 1832 1750 1829.24 1750 1827 1747.99 1827 1745.5Z" fill="#FFFFFF" fill-rule="evenodd"/><path d="M1837 1742C1837 1740.9 1837.9 1740 1839 1740 1840.1 1740 1841 1740.9 1841 1742 1841 1743.1 1840.1 1744 1839 1744 1837.9 1744 1837 1743.1 1837 1742Z" fill="#FFFFFF" fill-rule="evenodd"/><path d="M1829 1754.5C1829 1753.67 1829.45 1753 1830 1753 1830.55 1753 1831 1753.67 1831 1754.5 1831 1755.33 1830.55 1756 1830 1756 1829.45 1756 1829 1755.33 1829 1754.5Z" fill="#FFFFFF" fill-rule="evenodd"/><path d="M1818 1753C1818 1739.19 1828.52 1728 1841.5 1728 1854.48 1728 1865 1739.19 1865 1753 1865 1766.81 1854.48 1778 1841.5 1778 1828.52 1778 1818 1766.81 1818 1753Z" stroke="#000000" stroke-width="2.29167" stroke-linecap="round" stroke-linejoin="round" stroke-miterlimit="10" fill="none" fill-rule="evenodd"/></g></svg>