<svg width="44" height="82" xmlns="http://www.w3.org/2000/svg" xmlns:xlink="http://www.w3.org/1999/xlink" xml:space="preserve" overflow="hidden"><g transform="translate(-715 -513)"><path d="M716.571 556.714C719.143 578.571 730.714 594 741 592.714 751.286 591.429 759 573.429 756.429 551.571 753.857 529.714 742.286 513 732 514.286 720.429 515.571 714 534.857 716.571 556.714Z" fill="#BFC2D7" fill-rule="evenodd"/><path d="M723 551.191C720.5 535.872 728 521.83 735.5 520.553 736.75 520.553 738 520.553 738 520.553 736.75 519.277 734.25 518 731.75 518 724.25 519.277 718 535.872 720.5 551.191 721.75 563.957 723 571.617 728 578 724.25 572.893 724.25 561.404 723 551.191Z" fill="#FFFFFF" fill-rule="evenodd"/><path d="M753.737 554.059C751.21 538.529 747.421 525.588 739.842 523 744.895 528.176 748.684 538.529 749.947 550.176 751.21 568.294 747.421 585.117 738.579 586.412 737.316 586.412 732.263 585.117 731 583.823 734.79 587.706 737.316 589 741.105 589 749.947 587.706 755 572.176 753.737 554.059Z" fill="#7F87AF" fill-rule="evenodd"/><path d="M717.072 557.214C719.643 579.071 731.214 594.5 741.5 593.214 751.786 591.928 759.5 573.928 756.928 552.071 754.357 530.214 742.786 513.5 732.5 514.786 720.929 516.071 714.5 535.357 717.072 557.214Z" stroke="#333333" stroke-width="2.86476" stroke-linecap="round" stroke-linejoin="round" stroke-miterlimit="10" fill="none" fill-rule="evenodd"/></g></svg>