<svg width="68" height="59" xmlns="http://www.w3.org/2000/svg" xmlns:xlink="http://www.w3.org/1999/xlink" xml:space="preserve" overflow="hidden"><g transform="translate(-2417 -1076)"><path d="M2469.53 1122.71 2484 1099.58 2469.53 1077 2443.36 1077 2430 1089.91 2457.83 1089.91 2470.64 1112.49 2457.83 1134 2469.53 1122.71Z" fill="#FB5643" fill-rule="evenodd"/><path d="M2469.62 1077 2469.62 1077 2458 1090.09 2470.72 1113 2482.34 1099.91 2484 1099.91 2469.62 1077Z" fill="#FB8261" fill-rule="evenodd"/><path d="M2469 1077 2443.18 1077 2430 1090 2457.46 1090 2469 1077Z" fill="#FEE1D6" fill-rule="evenodd"/><path d="M2430.46 1134 2418 1112.54 2430.46 1090 2457.54 1090 2470 1112.54 2457.54 1134 2430.46 1134Z" fill="#FCAB8E" fill-rule="evenodd"/><path d="M2434.42 1093 2423 1112.09 2431.7 1129 2429.53 1112.09 2438.23 1095.18 2454 1093 2434.42 1093Z" fill="#FFFFFF" fill-rule="evenodd"/><path d="M2430.46 1134 2418 1112.54 2430.46 1090 2457.54 1090 2470 1112.54 2457.54 1134 2430.46 1134Z" stroke="#333333" stroke-width="2.29167" stroke-linecap="round" stroke-linejoin="round" stroke-miterlimit="10" fill="none" fill-rule="evenodd"/><path d="M2469.53 1122.71 2484 1099.58 2469.53 1077 2443.36 1077 2430 1089.91 2457.83 1089.91 2470.64 1112.49 2457.83 1134 2469.53 1122.71Z" stroke="#333333" stroke-width="2.29167" stroke-linecap="round" stroke-linejoin="round" stroke-miterlimit="10" fill="none" fill-rule="evenodd"/><path d="M0 0 11 13.0001" stroke="#333333" stroke-width="2.29167" stroke-linecap="round" stroke-linejoin="round" stroke-miterlimit="10" fill="none" fill-rule="evenodd" transform="matrix(-1 0 0 1 2469 1077)"/><path d="M0 0 12 14.0001" stroke="#333333" stroke-width="2.29167" stroke-linecap="round" stroke-linejoin="round" stroke-miterlimit="10" fill="none" fill-rule="evenodd" transform="matrix(-1 0 0 1 2482 1099)"/></g></svg>