<svg width="54" height="58" xmlns="http://www.w3.org/2000/svg" xmlns:xlink="http://www.w3.org/1999/xlink" xml:space="preserve" overflow="hidden"><g transform="translate(-2627 -1448)"><path d="M2628 1477C2628 1461.54 2639.64 1449 2654 1449 2668.36 1449 2680 1461.54 2680 1477 2680 1492.46 2668.36 1505 2654 1505 2639.64 1505 2628 1492.46 2628 1477Z" fill="#C1D39E" fill-rule="evenodd"/><path d="M2675.52 1469.77C2674.04 1465 2674.04 1468.18 2674.04 1472.95 2674.04 1485.68 2663.67 1495.23 2650.33 1495.23 2647.37 1495.23 2642.93 1493.64 2639.96 1492.05 2638.48 1492.05 2637 1492.05 2638.48 1493.64 2642.93 1498.41 2648.85 1500 2654.78 1500 2666.63 1500 2677 1490.45 2677 1477.73 2677 1474.55 2677 1471.36 2675.52 1469.77Z" fill="#77AA3C" fill-rule="evenodd"/><path d="M2655 1500C2666.73 1500 2677 1490.57 2677 1478 2675.53 1481.14 2671.13 1498.43 2655 1500Z" fill="#568921" fill-rule="evenodd"/><path d="M2659 1455.62C2642.5 1454 2635 1465.33 2635 1473.43 2635 1475.05 2635 1478.29 2635 1479.9 2636.5 1483.14 2639.5 1488 2645.5 1484.76 2653 1483.14 2653 1475.05 2657.5 1476.67 2668 1478.29 2674 1470.19 2669.5 1462.1 2668 1458.86 2665 1457.24 2659 1455.62" fill="#E2EAD2" fill-rule="evenodd"/><path d="M2640 1468.5C2640 1466.01 2642.01 1464 2644.5 1464 2646.99 1464 2649 1466.01 2649 1468.5 2649 1470.99 2646.99 1473 2644.5 1473 2642.01 1473 2640 1470.99 2640 1468.5Z" fill="#FFFFFF" fill-rule="evenodd"/><path d="M2650 1464.5C2650 1463.12 2650.67 1462 2651.5 1462 2652.33 1462 2653 1463.12 2653 1464.5 2653 1465.88 2652.33 1467 2651.5 1467 2650.67 1467 2650 1465.88 2650 1464.5Z" fill="#FFFFFF" fill-rule="evenodd"/><path d="M2641 1478C2641 1476.9 2641.67 1476 2642.5 1476 2643.33 1476 2644 1476.9 2644 1478 2644 1479.1 2643.33 1480 2642.5 1480 2641.67 1480 2641 1479.1 2641 1478Z" fill="#FFFFFF" fill-rule="evenodd"/><path d="M2628 1477C2628 1461.54 2639.64 1449 2654 1449 2668.36 1449 2680 1461.54 2680 1477 2680 1492.46 2668.36 1505 2654 1505 2639.64 1505 2628 1492.46 2628 1477Z" stroke="#000000" stroke-width="2.29167" stroke-linecap="round" stroke-linejoin="round" stroke-miterlimit="10" fill="none" fill-rule="evenodd"/></g></svg>