<svg width="61" height="53" xmlns="http://www.w3.org/2000/svg" xmlns:xlink="http://www.w3.org/1999/xlink" xml:space="preserve" overflow="hidden"><g transform="translate(-2228 -1667)"><path d="M2258.5 1668 2229 1668 2243.2 1693.5 2258.5 1719 2272.7 1693.5 2288 1668 2258.5 1668Z" fill="#BC576D" fill-rule="evenodd"/><path d="M2258.5 1668 2229 1668 2243.2 1693.5 2258.5 1719 2272.7 1693.5 2288 1668 2258.5 1668Z" fill="#D2857E" fill-rule="evenodd"/><path d="M2258.5 1668 2229 1668 2243.2 1693.5 2258.5 1719 2272.7 1693.5 2288 1668 2258.5 1668Z" stroke="#333333" stroke-width="2.29167" stroke-linecap="round" stroke-linejoin="round" stroke-miterlimit="10" fill="none" fill-rule="evenodd"/><path d="M2258.5 1668 2229 1668 2243.2 1693.5 2258.5 1719 2272.7 1693.5 2288 1668 2258.5 1668Z" stroke="#333333" stroke-width="2.29167" stroke-linecap="round" stroke-linejoin="round" stroke-miterlimit="10" fill="none" fill-rule="evenodd"/><path d="M2275 1672C2236 1672 2236 1672 2236 1672 2256.8 1711 2256.8 1711 2256.8 1711 2254.2 1700.6 2238.6 1672 2275 1672Z" fill="#E4B6AD" fill-rule="evenodd"/></g></svg>