<svg width="104" height="118" xmlns="http://www.w3.org/2000/svg" xmlns:xlink="http://www.w3.org/1999/xlink" xml:space="preserve" overflow="hidden"><g transform="translate(-2070 -1606)"><path d="M2113.69 1721.33 2072.62 1686.77 2079.93 1630.45 2129.55 1609.44 2171.02 1642.65 2162.46 1698.22 2113.69 1721.33Z" fill="#008A50" fill-rule="evenodd"/><path d="M2113.69 1721.33 2072.62 1686.77 2079.93 1630.45 2129.55 1609.44 2171.02 1642.65 2162.46 1698.22 2113.69 1721.33Z" fill="#FFFFFF" fill-rule="evenodd"/><path d="M2113.69 1721.33 2072.62 1686.77 2079.93 1630.45 2129.55 1609.44 2171.02 1642.65 2162.46 1698.22 2113.69 1721.33Z" fill="#F3AAAF" fill-rule="evenodd"/><path d="M2128.39 1619.46 2089.43 1637.01 2082.88 1684.67 2099.14 1646.59 2128.39 1619.46Z" fill="#FFFFFF" fill-rule="evenodd"/><path d="M2088.41 1693.36 2114.67 1713.11 2157.09 1695.12 2165.28 1645.73 2144.61 1629.52 2154.51 1649.53 2149.02 1683.81 2114.48 1702.68 2088.41 1693.36Z" fill="#EB7182" fill-rule="evenodd"/><path d="M2113.69 1721.33 2072.62 1686.77 2079.93 1630.45 2129.55 1609.44 2171.02 1642.65 2162.46 1698.22 2113.69 1721.33Z" stroke="#000000" stroke-width="5.15643" stroke-linecap="round" stroke-linejoin="round" stroke-miterlimit="10" fill="none" fill-rule="evenodd"/></g></svg>