<svg width="77" height="75" xmlns="http://www.w3.org/2000/svg" xmlns:xlink="http://www.w3.org/1999/xlink" xml:space="preserve" overflow="hidden"><g transform="translate(-2285 -499)"><rect x="2286" y="514" width="58" height="58.0001" fill="#9AD7AA"/><path d="M2319 519C2290 519 2290 519 2290 519 2290 553 2290 553 2290 553 2290 553 2291.26 521.615 2319 519Z" fill="#FFFFFF" fill-rule="evenodd"/><path d="M2312 568C2340 568 2340 568 2340 568 2340 535 2340 535 2340 535 2340 535 2338.73 565.461 2312 568Z" fill="#58AD79" fill-rule="evenodd"/><rect x="2286.5" y="514.5" width="57.9998" height="57.9998" stroke="#333333" stroke-width="2.86476" stroke-linecap="round" stroke-linejoin="round" stroke-miterlimit="10" fill="none"/><path d="M2360 556.727 2360 500 2301.35 500 2286 514.182 2344.1 514.182 2344.1 572 2360 556.727Z" fill="#2D9561" fill-rule="evenodd"/><path d="M2301.27 500 2286 514 2341.64 514 2358 500 2301.27 500Z" fill="#BEE6C5" fill-rule="evenodd"/><path d="M2360.5 557.227 2360.5 500.5 2301.85 500.5 2286.5 514.682 2344.6 514.682 2344.6 572.5 2360.5 557.227Z" stroke="#333333" stroke-width="2.86476" stroke-linecap="round" stroke-linejoin="round" stroke-miterlimit="10" fill="none" fill-rule="evenodd"/><path d="M0 0 14.0001 14.0001" stroke="#333333" stroke-width="2.86476" stroke-linecap="round" stroke-linejoin="round" stroke-miterlimit="10" fill="none" fill-rule="evenodd" transform="matrix(1 0 0 -1 2344.5 514.5)"/></g></svg>