<svg width="255" height="437" xmlns="http://www.w3.org/2000/svg" xmlns:xlink="http://www.w3.org/1999/xlink" xml:space="preserve" overflow="hidden"><g transform="translate(-1400 -523)"><path d="M1483.91 721.17C1483.91 699.185 1486.5 571.158 1451.52 544 1454.11 547.88 1455.41 553.053 1455.41 558.225 1458 563.398 1459.3 569.864 1460.59 577.624 1464.48 613.833 1452.82 646.164 1434.68 647.457 1421.73 650.043 1408.77 635.818 1401 615.127 1401 628.059 1401 639.698 1403.59 651.337 1413.95 705.651 1421.73 915.151 1441.16 939.722 1460.59 963 1496.86 953.947 1505.93 930.67 1515 907.392 1483.91 744.448 1483.91 721.17Z" fill="#BFC2D7" fill-rule="evenodd"/><path d="M1600.6 543.433C1600.6 543.433 1611 533.069 1592.8 529.182 1575.9 526.591 1549.9 524 1527.8 524 1525.2 524 1525.2 524 1525.2 524 1501.8 524 1477.1 526.591 1460.2 529.182 1442 533.069 1451.1 543.433 1451.1 543.433 1486.2 570.639 1483.6 698.895 1483.6 720.919 1483.6 744.239 1514.8 907.475 1505.7 930.794 1505.7 933.385 1504.4 934.681 1504.4 935.976 1503.1 935.976 1503.1 937.272 1503.1 937.272 1501.8 938.567 1501.8 939.863 1500.5 939.863 1500.5 941.158 1499.2 941.158 1499.2 941.158 1497.9 942.454 1497.9 943.749 1496.6 943.749 1496.6 945.045 1495.3 945.045 1495.3 945.045 1494 946.34 1492.7 947.636 1491.4 947.636 1491.4 947.636 1491.4 947.636 1491.4 947.636 1488.8 948.931 1487.5 950.227 1486.2 950.227 1484.9 950.227 1484.9 950.227 1484.9 950.227 1483.6 951.522 1482.3 951.522 1481 952.818 1479.7 952.818 1479.7 952.818 1479.7 952.818 1477.1 952.818 1475.8 952.818 1474.5 952.818 1474.5 952.818 1473.2 952.818 1473.2 952.818 1471.9 952.818 1469.3 954.113 1468 952.818 1468 952.818 1468 952.818 1468 952.818 1483.6 955.409 1510.9 958 1530.4 958 1551.2 958 1570.7 955.409 1586.3 952.818 1585 952.818 1583.7 952.818 1583.7 952.818 1582.4 952.818 1582.4 952.818 1582.4 952.818 1581.1 952.818 1578.5 952.818 1577.2 952.818 1577.2 952.818 1577.2 952.818 1575.9 952.818 1575.9 952.818 1574.6 952.818 1573.3 952.818 1573.3 952.818 1573.3 952.818 1573.3 952.818 1572 951.522 1569.4 951.522 1568.1 951.522 1568.1 951.522 1568.1 951.522 1566.8 950.227 1566.8 950.227 1565.5 950.227 1565.5 950.227 1564.2 948.931 1562.9 948.931 1561.6 948.931 1561.6 947.636 1561.6 947.636 1560.3 947.636 1560.3 947.636 1559 946.34 1557.7 946.34 1557.7 946.34 1557.7 945.045 1557.7 945.045 1556.4 945.045 1555.1 943.749 1553.8 942.454 1553.8 942.454 1553.8 942.454 1553.8 942.454 1552.5 941.158 1552.5 939.863 1551.2 939.863 1551.2 939.863 1551.2 939.863 1551.2 938.567 1549.9 938.567 1548.6 937.272 1548.6 935.976 1548.6 935.976 1548.6 934.681 1547.3 934.681 1547.3 933.385 1546 932.09 1546 930.794 1536.9 907.475 1569.4 744.239 1569.4 720.919 1569.4 698.895 1566.8 570.639 1600.6 543.433" fill="#7F87AF" fill-rule="evenodd"/><path d="M1567 590C1565.67 599.014 1557.67 651.808 1559 684 1551 660.822 1557.67 610.603 1567 590Z" fill="#FFFFFF" fill-rule="evenodd"/><path d="M1592.8 529.182C1575.9 526.591 1549.9 524 1527.8 524 1525.2 524 1525.2 524 1525.2 524 1501.8 524 1477.1 526.591 1460.2 529.182 1442 533.069 1451.1 543.433 1451.1 543.433 1486.2 570.639 1483.6 698.895 1483.6 720.919 1483.6 744.239 1514.8 907.475 1505.7 930.794 1505.7 933.385 1504.4 934.681 1504.4 935.976 1503.1 935.976 1503.1 937.272 1503.1 937.272 1501.8 938.567 1501.8 939.863 1500.5 939.863 1500.5 941.158 1499.2 941.158 1499.2 941.158 1497.9 942.454 1497.9 943.749 1496.6 943.749 1496.6 945.045 1495.3 945.045 1495.3 945.045 1494 946.34 1492.7 947.636 1491.4 947.636 1491.4 947.636 1491.4 947.636 1491.4 947.636 1488.8 948.931 1487.5 950.227 1486.2 950.227 1484.9 950.227 1484.9 950.227 1484.9 950.227 1483.6 951.522 1482.3 951.522 1481 952.818 1479.7 952.818 1479.7 952.818 1479.7 952.818 1477.1 952.818 1475.8 952.818 1474.5 952.818 1474.5 952.818 1473.2 952.818 1473.2 952.818 1471.9 952.818 1469.3 954.113 1468 952.818 1468 952.818 1468 952.818 1468 952.818 1483.6 955.409 1510.9 958 1530.4 958 1551.2 958 1570.7 955.409 1586.3 952.818 1585 952.818 1583.7 952.818 1583.7 952.818 1582.4 952.818 1582.4 952.818 1582.4 952.818 1581.1 952.818 1578.5 952.818 1577.2 952.818 1577.2 952.818 1577.2 952.818 1575.9 952.818 1575.9 952.818 1574.6 952.818 1573.3 952.818 1573.3 952.818 1573.3 952.818 1573.3 952.818 1572 951.522 1569.4 951.522 1568.1 951.522 1568.1 951.522 1568.1 951.522 1566.8 950.227 1566.8 950.227 1565.5 950.227 1565.5 950.227 1564.2 948.931 1562.9 948.931 1561.6 948.931 1561.6 947.636 1561.6 947.636 1560.3 947.636 1560.3 947.636 1559 946.34 1557.7 946.34 1557.7 946.34 1557.7 945.045 1557.7 945.045 1556.4 945.045 1555.1 943.749 1553.8 942.454 1553.8 942.454 1553.8 942.454 1553.8 942.454 1552.5 941.158 1552.5 939.863 1551.2 939.863 1551.2 939.863 1551.2 939.863 1551.2 938.567 1549.9 938.567 1548.6 937.272 1548.6 935.976 1548.6 935.976 1548.6 934.681 1547.3 934.681 1547.3 933.385 1546 932.09 1546 930.794 1536.9 907.475 1569.4 744.239 1569.4 720.919 1569.4 698.895 1566.8 570.639 1600.6 543.433 1600.6 543.433 1600.6 543.433 1600.6 543.433 1600.6 543.433 1611 533.069 1592.8 529.182ZM1458.9 534.364C1458.9 534.364 1458.9 535.66 1460.2 535.66 1460.2 535.66 1460.2 535.66 1460.2 535.66 1460.2 535.66 1460.2 535.66 1460.2 535.66 1460.2 535.66 1458.9 534.364 1458.9 534.364ZM1542.1 947.636C1542.1 947.636 1542.1 947.636 1542.1 947.636 1542.1 947.636 1542.1 947.636 1542.1 947.636ZM1578.5 556.388C1561.6 583.594 1557.7 635.415 1557.7 710.555 1557.7 711.851 1557.7 720.919 1557.7 720.919 1557.7 727.397 1553.8 754.603 1548.6 781.809 1539.5 841.403 1533 888.042 1533 915.248 1533 924.316 1533 930.794 1535.6 934.681 1538.2 939.863 1538.2 939.863 1538.2 939.863 1538.2 941.158 1538.2 941.158 1538.2 941.158 1538.2 941.158 1513.5 942.454 1513.5 942.454 1513.5 942.454 1517.4 934.681 1517.4 934.681 1518.7 930.794 1520 924.316 1520 915.248 1520 888.042 1512.2 841.403 1503.1 781.809 1499.2 754.603 1495.3 727.397 1495.3 720.919 1495.3 720.919 1495.3 711.851 1495.3 710.555 1495.3 636.71 1488.8 586.185 1475.8 557.683 1470.6 548.615 1504.4 538.251 1525.2 538.251 1527.8 538.251 1527.8 538.251 1527.8 538.251 1547.3 538.251 1583.7 547.319 1578.5 556.388Z" fill="#586598" fill-rule="evenodd"/><path d="M1409.1 653.894C1412.93 673.28 1415.48 715.928 1419.31 759.869 1424.41 821.903 1432.07 891.691 1441 924 1441 924 1441 924 1441 924 1432.07 891.691 1429.52 820.61 1424.41 759.869 1420.59 714.636 1416.76 673.28 1412.93 653.894 1411.66 642.263 1404 630.631 1404 619 1404 619 1404 619 1404 619 1404 630.631 1406.55 642.263 1409.1 653.894Z" fill="#FFFFFF" fill-rule="evenodd"/><path d="M1503.07 930C1512 906.701 1480.1 743.613 1480.1 720.315 1480.1 707.371 1481.38 654.302 1475 609" stroke="#FFFFFF" stroke-width="5.72917" stroke-miterlimit="8" fill="none" fill-rule="evenodd"/><path d="M1478.86 720.896C1478.86 701.476 1486.57 586.251 1458.29 550 1478.86 592.724 1467.29 700.182 1467.29 717.012 1467.29 740.317 1500.71 893.088 1491.71 917.686 1484 935.812 1458.29 944.874 1439 935.812 1439 937.106 1440.29 938.401 1441.57 939.696 1460.86 963 1493 955.232 1502 931.928 1511 908.624 1478.86 745.495 1478.86 720.896Z" fill="#9EA3C2" fill-rule="evenodd"/><path d="M1550 935.705C1541 911.102 1579.57 746.648 1579.57 723.339 1579.57 706.505 1573.14 597.732 1595 555 1566.71 591.258 1574.43 706.505 1574.43 727.224 1574.43 750.532 1541 913.692 1550 937" fill="#FFFFFF" fill-rule="evenodd"/><path d="M1568 721.125C1568 700.43 1566.71 571.086 1600.29 543.923 1645.5 509 1661 589.194 1648.08 651.279 1637.75 705.604 1631.29 915.142 1611.92 939.718 1592.54 963 1555.08 953.946 1546.04 930.664 1537 907.382 1568 745.701 1568 721.125Z" fill="#BFC2D7" fill-rule="evenodd"/><path d="M1650.71 598.329C1649.42 591.863 1646.84 566 1645.55 569.88 1648.13 582.811 1646.84 593.156 1645.55 595.743 1645.55 603.502 1633.95 650.055 1632.66 657.814 1622.35 710.834 1621.06 889.29 1604.3 913.86 1584.96 943.602 1547.58 948.775 1545 916.446 1545 922.912 1545 928.085 1546.29 930.671 1555.31 953.948 1592.7 963 1612.04 939.723 1631.37 915.153 1637.82 705.661 1648.13 651.349 1652 633.244 1652 615.14 1650.71 598.329Z" fill="#9EA3C2" fill-rule="evenodd"/><path d="M1463.29 591C1464.65 605.25 1461.94 618.204 1457.88 627.273 1455.18 637.636 1449.76 646.704 1443 648 1443 648 1443 648 1443 648 1451.12 646.704 1457.88 641.523 1461.94 631.159 1466 619.5 1466 606.545 1463.29 591Z" fill="#FFFFFF" fill-rule="evenodd"/><path d="M1643.92 655.894C1640.12 675.28 1638.85 717.928 1635.04 761.869 1629.96 823.903 1624.88 892.398 1616 926 1616 926 1616 926 1616 926 1624.88 893.691 1626.15 823.903 1631.23 761.869 1633.77 717.928 1638.85 676.572 1641.38 657.187 1643.92 645.555 1649 632.632 1649 621 1649 621 1649 621 1649 621 1649 632.632 1646.46 644.263 1643.92 655.894Z" fill="#FFFFFF" fill-rule="evenodd"/><path d="M1550 926.412C1541 903.118 1573.14 746.53 1573.14 723.235 1573.14 706.412 1573.14 597.706 1595 555 1566.71 591.235 1568 706.412 1568 727.118 1568 750.412 1541 905.706 1550 929" fill="#FFFFFF" fill-rule="evenodd"/><path d="M1505.5 941.5C1510.64 942.5 1526.07 942.5 1532.5 942.5 1538.93 942.5 1545.36 942.5 1550.5 941.5" stroke="#333333" stroke-width="2.86476" stroke-linecap="round" stroke-linejoin="round" stroke-miterlimit="10" fill="none" fill-rule="evenodd"/><path d="M1484.41 721.67C1484.41 699.685 1487 571.657 1452.02 544.5 1454.61 548.38 1455.91 553.552 1455.91 558.725 1458.5 563.898 1459.8 570.364 1461.09 578.123 1464.98 614.333 1453.32 646.664 1435.18 647.957 1422.23 650.543 1409.27 636.318 1401.5 615.627 1401.5 628.559 1401.5 640.198 1404.09 651.836 1414.45 706.151 1422.23 915.651 1441.66 940.222 1461.09 963.5 1497.36 954.448 1506.43 931.17 1515.5 907.892 1484.41 744.948 1484.41 721.67Z" stroke="#333333" stroke-width="2.86476" stroke-linecap="round" stroke-linejoin="round" stroke-miterlimit="10" fill="none" fill-rule="evenodd"/><path d="M1601.1 543.933C1601.1 543.933 1611.5 533.569 1593.3 529.682 1576.4 527.091 1550.4 524.5 1528.3 524.5 1525.7 524.5 1525.7 524.5 1525.7 524.5 1502.3 524.5 1477.6 527.091 1460.7 529.682 1442.5 533.569 1451.6 543.933 1451.6 543.933 1486.7 571.139 1484.1 699.396 1484.1 721.419 1484.1 744.739 1515.3 907.974 1506.2 931.294 1506.2 933.885 1504.9 935.18 1504.9 936.476 1503.6 936.476 1503.6 937.771 1503.6 937.771 1502.3 939.067 1502.3 940.363 1501 940.363 1501 941.658 1499.7 941.658 1499.7 941.658 1498.4 942.954 1498.4 944.249 1497.1 944.249 1497.1 945.545 1495.8 945.545 1495.8 945.545 1494.5 946.84 1493.2 948.136 1491.9 948.136 1491.9 948.136 1491.9 948.136 1491.9 948.136 1489.3 949.431 1488 950.727 1486.7 950.727 1485.4 950.727 1485.4 950.727 1485.4 950.727 1484.1 952.022 1482.8 952.022 1481.5 953.318 1480.2 953.318 1480.2 953.318 1480.2 953.318 1477.6 953.318 1476.3 953.318 1475 953.318 1475 953.318 1473.7 953.318 1473.7 953.318 1472.4 953.318 1469.8 954.613 1468.5 953.318 1468.5 953.318 1468.5 953.318 1468.5 953.318 1484.1 955.909 1511.4 958.5 1530.9 958.5 1551.7 958.5 1571.2 955.909 1586.8 953.318 1585.5 953.318 1584.2 953.318 1584.2 953.318 1582.9 953.318 1582.9 953.318 1582.9 953.318 1581.6 953.318 1579 953.318 1577.7 953.318 1577.7 953.318 1577.7 953.318 1576.4 953.318 1576.4 953.318 1575.1 953.318 1573.8 953.318 1573.8 953.318 1573.8 953.318 1573.8 953.318 1572.5 952.022 1569.9 952.022 1568.6 952.022 1568.6 952.022 1568.6 952.022 1567.3 950.727 1567.3 950.727 1566 950.727 1566 950.727 1564.7 949.431 1563.4 949.431 1562.1 949.431 1562.1 948.136 1562.1 948.136 1560.8 948.136 1560.8 948.136 1559.5 946.84 1558.2 946.84 1558.2 946.84 1558.2 945.545 1558.2 945.545 1556.9 945.545 1555.6 944.249 1554.3 942.954 1554.3 942.954 1554.3 942.954 1554.3 942.954 1553 941.658 1553 940.363 1551.7 940.363 1551.7 940.363 1551.7 940.363 1551.7 939.067 1550.4 939.067 1549.1 937.771 1549.1 936.476 1549.1 936.476 1549.1 935.18 1547.8 935.18 1547.8 933.885 1546.5 932.589 1546.5 931.294 1537.4 907.974 1569.9 744.739 1569.9 721.419 1569.9 699.396 1567.3 571.139 1601.1 543.933" stroke="#333333" stroke-width="2.86476" stroke-linecap="round" stroke-linejoin="round" stroke-miterlimit="10" fill="none" fill-rule="evenodd"/><path d="M1485 546C1486.3 544.667 1486.3 544.667 1486.3 544.667 1488.9 540.667 1507.07 539.333 1530.45 539.333 1546.03 539.333 1565.51 542 1572 544.667 1572 546 1572 546 1572 546 1564.21 542 1547.33 534 1530.45 534 1504.48 534 1488.9 540.667 1485 546Z" fill="#FFFFFF" fill-rule="evenodd"/><path d="M1573.5 547.167C1565.76 543.167 1547.7 540.5 1530.93 540.5 1510.3 540.5 1489.66 543.167 1484.5 548.5" stroke="#333333" stroke-width="2.86476" stroke-linecap="round" stroke-linejoin="round" stroke-miterlimit="10" fill="none" fill-rule="evenodd"/><path d="M1568.5 721.625C1568.5 700.93 1567.21 571.585 1600.79 544.423 1646 509.5 1661.5 589.694 1648.58 651.779 1638.25 706.104 1631.79 915.642 1612.42 940.218 1593.04 963.5 1555.58 954.446 1546.54 931.164 1537.5 907.882 1568.5 746.201 1568.5 721.625Z" stroke="#333333" stroke-width="2.86476" stroke-linecap="round" stroke-linejoin="round" stroke-miterlimit="10" fill="none" fill-rule="evenodd"/><path d="M1401.5 614.651C1409.21 635.302 1422.07 649.5 1434.93 646.918 1452.93 645.628 1464.5 613.36 1460.64 577.221 1458.07 564.314 1455.5 551.407 1450.36 542.372 1449.07 538.5 1449.07 538.5 1449.07 538.5" stroke="#333333" stroke-width="2.86476" stroke-linecap="round" stroke-linejoin="round" stroke-miterlimit="10" fill="none" fill-rule="evenodd"/></g></svg>