<svg width="183" height="505" xmlns="http://www.w3.org/2000/svg" xmlns:xlink="http://www.w3.org/1999/xlink" xml:space="preserve" overflow="hidden"><g transform="translate(-1933 -1719)"><path d="M1985 1740.5C1985 1729.18 2005.15 1720 2030 1720 2054.85 1720 2075 1729.18 2075 1740.5 2075 1751.82 2054.85 1761 2030 1761 2005.15 1761 1985 1751.82 1985 1740.5Z" fill="#DFA9A0" fill-rule="evenodd"/><path d="M2054.83 1728C2058.69 1730.52 2061.27 1733.04 2061.27 1736.83 2061.27 1745.65 2044.52 1753.22 2023.9 1753.22 2016.17 1753.22 2008.44 1751.96 2002 1750.7 2009.73 1754.48 2020.04 1757 2032.92 1757 2053.54 1757 2069 1750.7 2069 1740.61 2069 1735.57 2063.85 1730.52 2054.83 1728Z" fill="#FFFFFF" fill-rule="evenodd"/><path d="M2040.29 1781.04C2040.29 1770.71 2054.43 1762.96 2075 1760.37 2075 1741 2075 1741 2075 1741 2075 1752.62 2054.43 1761.66 2030 1761.66 2004.29 1761.66 1985 1752.62 1985 1741 1985 1765.54 1985 1765.54 1985 1765.54 1992.71 1769.41 1999.14 1774.58 1999.14 1781.04 1999.14 2177.54 1999.14 2177.54 1999.14 2177.54 2006.86 2181.42 2017.14 2184 2030 2184 2032.57 2184 2036.43 2182.71 2040.29 2182.71L2040.29 1781.04Z" fill="#C15555" fill-rule="evenodd"/><path d="M2075 1760.37C2075 1741 2075 1741 2075 1741 2075 1752.62 2054.43 1761.66 2030 1761.66 2004.29 1761.66 1985 1752.62 1985 1741 1985 1765.54 1985 1765.54 1985 1765.54 1992.71 1769.41 1999.14 1774.58 1999.14 1781.04 1999.14 2177.54 1999.14 2177.54 1999.14 2177.54 2006.86 2181.42 2017.14 2184 2030 2184 2032.57 2184 2036.43 2182.71 2040.29 2182.71 2040.29 1781.04 2040.29 1781.04 2040.29 1781.04 2040.29 1770.71 2054.43 1762.96 2075 1760.37ZM2030 1781.04C2030 1781.04 2030 2096.17 2030 2160.75 2030 2167.21 2024.86 2172.38 2023.57 2172.38 2021 2172.38 2018.43 2172.38 2015.86 2171.08 2013.29 2171.08 2009.43 2164.63 2009.43 2159.46 2009.43 2100.05 2009.43 1781.04 2009.43 1781.04 2009.43 1777.16 2010.71 1770.71 2013.29 1770.71 2017.14 1772 2021 1772 2024.86 1772 2026.14 1772 2030 1777.16 2030 1781.04Z" fill="#B4323A" fill-rule="evenodd"/><path d="M1985.5 1741C1985.5 1729.68 2005.65 1720.5 2030.5 1720.5 2055.35 1720.5 2075.5 1729.68 2075.5 1741 2075.5 1752.32 2055.35 1761.5 2030.5 1761.5 2005.65 1761.5 1985.5 1752.32 1985.5 1741Z" stroke="#333333" stroke-width="2.86476" stroke-linecap="round" stroke-linejoin="round" stroke-miterlimit="10" fill="none" fill-rule="evenodd"/><path d="M2040.79 1781.54C2040.79 1771.21 2054.93 1763.46 2075.5 1760.87 2075.5 1741.5 2075.5 1741.5 2075.5 1741.5 2075.5 1753.12 2054.93 1762.16 2030.5 1762.16 2004.79 1762.16 1985.5 1753.12 1985.5 1741.5 1985.5 1766.04 1985.5 1766.04 1985.5 1766.04 1993.21 1769.91 1999.64 1775.08 1999.64 1781.54 1999.64 2178.04 1999.64 2178.04 1999.64 2178.04 2007.36 2181.92 2017.64 2184.5 2030.5 2184.5 2033.07 2184.5 2036.93 2183.21 2040.79 2183.21L2040.79 1781.54Z" stroke="#333333" stroke-width="2.86476" stroke-linecap="round" stroke-linejoin="round" stroke-miterlimit="10" fill="none" fill-rule="evenodd"/><path d="M2024 1780.5C2024 1769.18 2044.15 1760 2069 1760 2093.85 1760 2114 1769.18 2114 1780.5 2114 1791.82 2093.85 1801 2069 1801 2044.15 1801 2024 1791.82 2024 1780.5Z" fill="#DFA9A0" fill-rule="evenodd"/><path d="M2093.83 1765C2097.69 1767.58 2100.27 1771.46 2100.27 1775.33 2100.27 1784.38 2083.52 1792.13 2062.9 1792.13 2055.17 1792.13 2047.44 1790.83 2041 1788.25 2048.73 1793.42 2059.04 1796 2071.92 1796 2092.54 1796 2108 1788.25 2108 1779.21 2108 1772.75 2102.85 1767.58 2093.83 1765Z" fill="#FFFFFF" fill-rule="evenodd"/><path d="M2024.5 1781C2024.5 1769.68 2044.65 1760.5 2069.5 1760.5 2094.35 1760.5 2114.5 1769.68 2114.5 1781 2114.5 1792.32 2094.35 1801.5 2069.5 1801.5 2044.65 1801.5 2024.5 1792.32 2024.5 1781Z" stroke="#333333" stroke-width="2.86476" stroke-linecap="round" stroke-linejoin="round" stroke-miterlimit="10" fill="none" fill-rule="evenodd"/><path d="M2024 2201.37C2024 2212.97 2044.57 2222 2069 2222 2093.43 2222 2114 2212.97 2114 2201.37 2114 1781 2114 1781 2114 1781 2114 1791.32 2093.43 1801.63 2069 1801.63 2044.57 1801.63 2024 1791.32 2024 1781L2024 2201.37Z" fill="#D2857E" fill-rule="evenodd"/><path d="M2107.71 1806.35C2098.71 2186.66 2098.71 2186.66 2098.71 2186.66 2098.71 2200.89 2078.14 2212.53 2053.71 2212.53 2043.43 2212.53 2035.71 2208.65 2028 2206.06 2037 2212.53 2048.57 2219 2064 2219 2088.43 2219 2109 2207.36 2109 2193.13 2109 1803.76 2109 1803.76 2109 1803.76 2109 1796 2107.71 1799.88 2107.71 1806.35Z" fill="#C86865" fill-rule="evenodd"/><path d="M2108.72 1804C2106.17 2193.14 2106.17 2193.14 2106.17 2193.14 2106.17 2203.49 2088.28 2219 2064 2219 2064 2219 2064 2219 2064 2219 2085.72 2219 2110 2211.24 2110 2193.14 2108.72 1804 2108.72 1804 2108.72 1804Z" fill="#FFFFFF" fill-rule="evenodd"/><path d="M2028.2 1796C2028.2 2131 2028.2 2131 2028.2 2131 2029.4 2101.25 2033 1833.51 2027 1799.88" fill="#FFFFFF" fill-rule="evenodd"/><path d="M1934 1780.5C1934 1769.18 1954.15 1760 1979 1760 2003.85 1760 2024 1769.18 2024 1780.5 2024 1791.82 2003.85 1801 1979 1801 1954.15 1801 1934 1791.82 1934 1780.5Z" fill="#DFA9A0" fill-rule="evenodd"/><path d="M1934 2201.37C1934 2212.97 1954.57 2222 1979 2222 2003.43 2222 2024 2212.97 2024 2201.37 2024 1781 2024 1781 2024 1781 2024 1791.32 2003.43 1801.63 1979 1801.63 1954.57 1801.63 1934 1791.32 1934 1781L1934 2201.37Z" fill="#D2857E" fill-rule="evenodd"/><path d="M2015.71 1806.35C2007.97 2186.66 2007.97 2186.66 2007.97 2186.66 2007.97 2200.89 1987.32 2212.53 1962.81 2212.53 1952.48 2212.53 1944.74 2208.65 1937 2206.06 1944.74 2212.53 1957.65 2219 1971.84 2219 1997.65 2219 2017 2207.36 2017 2193.13 2017 1803.76 2017 1803.76 2017 1803.76 2017 1796 2015.71 1799.88 2015.71 1806.35Z" fill="#C86865" fill-rule="evenodd"/><path d="M2017.41 1804C2016.11 2193.14 2016.11 2193.14 2016.11 2193.14 2016.11 2203.49 1997.95 2219 1972 2219 1972 2219 1972 2219 1972 2219 1995.35 2219 2020 2211.24 2020 2193.14 2017.41 1804 2017.41 1804 2017.41 1804Z" fill="#FFFFFF" fill-rule="evenodd"/><path d="M1950 1775 2021 1775 2010.62 1787.13 1984.95 1834 1950 1775Z" fill="#B63A40" fill-rule="evenodd"/><path d="M1936 1799C1974.4 1864 1974.4 1864 1974.4 1864 2000 1816.84 2000 1816.84 2000 1816.84 2000 1816.84 2000 1816.84 2000 1816.84 2000 1816.84 1975.68 1855.08 1974.4 1857.63 1973.12 1855.08 1947.52 1815.57 1947.52 1815.57L1936 1799Z" fill="#FFFFFF" fill-rule="evenodd"/><path d="M1937 1800C1937 2131 1937 2131 1937 2131 1939.8 2101.26 1939.8 1815.52 1944 1811.64" fill="#FFFFFF" fill-rule="evenodd"/><path d="M1942 1826C1942 1822.18 1947.5 1820.91 1950.25 1822.18 1953 1824.73 1948.87 1819.64 1948.87 1819.64 1943.37 1812 1943.37 1812 1943.37 1812" fill="#FFFFFF" fill-rule="evenodd"/><path d="M2024.5 2201.87C2024.5 2213.47 2045.07 2222.5 2069.5 2222.5 2093.93 2222.5 2114.5 2213.47 2114.5 2201.87 2114.5 1781.5 2114.5 1781.5 2114.5 1781.5 2114.5 1791.82 2093.93 1802.13 2069.5 1802.13 2045.07 1802.13 2024.5 1791.82 2024.5 1781.5L2024.5 2201.87Z" stroke="#333333" stroke-width="2.86476" stroke-linecap="round" stroke-linejoin="round" stroke-miterlimit="10" fill="none" fill-rule="evenodd"/><path d="M2006 1799C2007.31 1793.82 2009.94 1788.65 2013.88 1786.06 2016.5 1783.47 2019.13 1779.59 2021.75 1777 2027 1782.18 2023.06 1791.24 2021.75 1796.41" fill="#D2857E" fill-rule="evenodd"/><path d="M1934.5 1781.5C1934.5 1769.69 1955.07 1760.5 1979.5 1760.5 2003.93 1760.5 2024.5 1769.69 2024.5 1781.5" stroke="#333333" stroke-width="2.86476" stroke-linecap="round" stroke-linejoin="round" stroke-miterlimit="10" fill="none" fill-rule="evenodd"/><path d="M1938.36 1790.53C1935.79 1787.95 1934.5 1784.08 1934.5 1781.5 1934.5 2201.87 1934.5 2201.87 1934.5 2201.87 1934.5 2213.47 1955.07 2222.5 1979.5 2222.5 2003.93 2222.5 2024.5 2213.47 2024.5 2201.87 2024.5 1781.5 2024.5 1781.5 2024.5 1781.5" stroke="#333333" stroke-width="2.86476" stroke-linecap="round" stroke-linejoin="round" stroke-miterlimit="10" fill="none" fill-rule="evenodd"/><path d="M2021 1789 2023 1787 2021 1789Z" fill="#FFFFFF" fill-rule="evenodd"/><path d="M1936 1789.36C1936 1789.36 1937.29 1789.36 1937.29 1788.05 1974.68 1852 1974.68 1852 1974.68 1852 1985 1833.73 1985 1833.73 1985 1833.73 1950.18 1775 1950.18 1775 1950.18 1775L1936 1789.36Z" fill="#C86864" fill-rule="evenodd"/><path d="M1936.5 1789.86C1936.5 1789.86 1937.79 1789.86 1937.79 1788.55 1975.18 1852.5 1975.18 1852.5 1975.18 1852.5 1985.5 1834.23 1985.5 1834.23 1985.5 1834.23 1950.68 1775.5 1950.68 1775.5 1950.68 1775.5L1936.5 1789.86Z" stroke="#333333" stroke-width="2.86476" stroke-linecap="round" stroke-linejoin="round" stroke-miterlimit="10" fill="none" fill-rule="evenodd"/><path d="M1952.5 1775.5 2023.5 1775.5 2010.39 1788.73 1985.82 1834.5" stroke="#333333" stroke-width="2.86476" stroke-linecap="round" stroke-linejoin="round" stroke-miterlimit="10" fill="none" fill-rule="evenodd"/></g></svg>