<svg width="195" height="473" xmlns="http://www.w3.org/2000/svg" xmlns:xlink="http://www.w3.org/1999/xlink" xml:space="preserve" overflow="hidden"><g transform="translate(-1727 -1125)"><path d="M1888.34 1132.49C1872.81 1128.6 1853.39 1126 1828.79 1126 1804.2 1126 1787.37 1128.6 1770.54 1132.49 1752.42 1137.69 1733 1149.37 1733 1171.44 1733 1175.34 1739.47 1170.14 1740.77 1171.44 1742.06 1170.14 1743.36 1170.14 1744.65 1171.44 1747.24 1172.74 1749.83 1172.74 1752.42 1174.04 1753.71 1174.04 1753.71 1174.04 1755.01 1174.04 1756.3 1174.04 1757.6 1174.04 1757.6 1174.04 1784.78 1174.04 1784.78 1174.04 1784.78 1174.04 1788.66 1190.92 1789.96 1211.69 1795.14 1235.06 1795.14 1236.36 1795.14 1236.36 1795.14 1237.66 1796.43 1240.25 1796.43 1242.85 1797.73 1245.45 1797.73 1246.75 1797.73 1248.04 1797.73 1249.34 1799.02 1251.94 1800.31 1255.83 1801.61 1259.73 1826.21 1337.63 1854.68 1590.81 1782.19 1590.81 1780.9 1590.81 1780.9 1590.81 1780.9 1590.81 1778.31 1590.81 1777.01 1590.81 1774.42 1589.51 1789.96 1593.4 1806.79 1596 1828.79 1596 1852.1 1596 1868.92 1593.4 1884.46 1589.51 1881.87 1590.81 1879.28 1590.81 1876.69 1590.81 1876.69 1590.81 1876.69 1590.81 1876.69 1590.81 1804.2 1590.81 1832.68 1337.63 1857.27 1259.73 1858.57 1257.13 1858.57 1254.54 1859.86 1251.94 1859.86 1250.64 1859.86 1249.34 1859.86 1249.34 1861.16 1246.75 1861.16 1245.45 1861.16 1242.85 1862.45 1242.85 1862.45 1241.55 1862.45 1240.25 1863.75 1235.06 1865.04 1229.87 1865.04 1224.67 1865.04 1224.67 1865.04 1224.67 1865.04 1224.67 1870.22 1200.01 1871.51 1179.23 1875.4 1163.65 1876.69 1162.35 1876.69 1162.35 1876.69 1163.65 1877.99 1157.16 1880.58 1150.67 1884.46 1148.07 1884.46 1149.37 1883.16 1151.97 1883.16 1153.27 1883.16 1164.95 1892.23 1174.04 1903.88 1174.04 1907.76 1174.04 1911.64 1172.74 1914.23 1171.44 1915.53 1170.14 1916.82 1170.14 1916.82 1171.44 1918.12 1168.85 1919.41 1167.55 1919.41 1163.65 1922 1146.77 1907.76 1137.69 1888.34 1132.49Z" fill="#77A4AA" fill-rule="evenodd"/><path d="M1795.68 1190.86C1795.68 1150.37 1847.57 1137.31 1880 1147.76 1870.92 1141.22 1857.95 1141.22 1846.27 1138.61 1835.89 1137.31 1821.62 1136 1811.24 1139.92 1785.3 1149.06 1784 1177.8 1787.89 1200" fill="#5A919A" fill-rule="evenodd"/><path d="M1801.55 1259.53C1791.12 1227.13 1789.82 1196.03 1784.61 1174 1757.23 1174 1757.23 1174 1757.23 1174 1757.23 1174 1755.93 1174 1754.62 1174 1753.32 1174 1753.32 1174 1752.02 1174 1732.46 1174 1732.46 1174 1732.46 1174 1732.46 1207.69 1709 1590 1780.7 1590 1782 1590 1782 1590 1782 1590 1855 1590 1826.32 1337.29 1801.55 1259.53Z" fill="#B5CDCF" fill-rule="evenodd"/><path d="M1733 1168.3C1733 1154 1744.63 1141 1760.15 1141 1774.37 1141 1786 1154 1786 1168.3 1786 1183.9 1786 1219 1760.15 1219 1733 1219 1733 1183.9 1733 1168.3Z" fill="#5A919A" fill-rule="evenodd"/><path d="M1801.59 1259.38C1788.57 1220.48 1787.26 1214 1797.68 1245.12 1822.43 1322.91 1845.88 1580.92 1774.24 1580.92 1772.93 1580.92 1772.93 1580.92 1772.93 1580.92 1766.42 1580.92 1759.91 1575.74 1756 1571.85 1761.21 1583.52 1769.03 1590 1780.75 1590 1782.05 1590 1782.05 1590 1782.05 1590 1855 1590 1826.34 1337.17 1801.59 1259.38Z" fill="#92B5B9" fill-rule="evenodd"/><path d="M1895.92 1259.47C1901.1 1227.07 1912.75 1194.66 1916.63 1172.63 1917.93 1171.33 1915.34 1170.04 1914.04 1171.33 1911.46 1172.63 1907.57 1173.92 1903.69 1173.92 1892.04 1173.92 1882.97 1164.85 1882.97 1153.18 1882.97 1151.89 1884.27 1149.3 1884.27 1148 1867.44 1164.85 1872.62 1211.51 1857.08 1259.47 1832.48 1337.24 1804 1590 1876.5 1590 1876.5 1590 1876.5 1590 1876.5 1590 1949 1590 1880.38 1350.21 1895.92 1259.47Z" fill="#B5CDCF" fill-rule="evenodd"/><path d="M1799.62 1259.3C1820.23 1324.14 1840.85 1519.97 1802.19 1574.44 1795.75 1583.52 1788.02 1588.7 1779 1588.7 1779 1590 1779 1590 1779 1590 1789.31 1590 1798.33 1586.11 1806.06 1577.03 1846 1521.27 1820.23 1324.14 1799.62 1258L1799.62 1259.3Z" fill="#FFFFFF" fill-rule="evenodd"/><path d="M1893.13 1160.2C1889.26 1157.6 1886.67 1156.3 1884.09 1156.3 1885.38 1164.09 1890.55 1170.59 1897 1171.89 1897 1166.69 1895.71 1162.79 1893.13 1160.2ZM1853.12 1208.26C1849.24 1226.45 1846.66 1245.94 1842.79 1264.13 1840.21 1275.82 1837.63 1295.31 1828.59 1304.4 1815.69 1292.71 1815.69 1257.63 1811.81 1239.44 1804.07 1210.86 1800.2 1186.18 1805.36 1155 1786 1180.98 1786 1180.98 1786 1180.98 1788.58 1196.57 1791.16 1214.76 1795.04 1234.25 1795.04 1235.55 1795.04 1235.55 1795.04 1236.85 1796.33 1239.44 1796.33 1242.04 1797.62 1244.64 1797.62 1245.94 1797.62 1247.24 1797.62 1248.54 1798.91 1251.14 1800.2 1255.03 1801.49 1258.93 1814.4 1299.21 1827.3 1384.95 1827.3 1459 1828.59 1459 1829.88 1459 1829.88 1459 1831.17 1383.65 1844.08 1299.21 1856.99 1258.93 1858.28 1256.33 1858.28 1253.73 1859.57 1251.14 1859.57 1249.84 1859.57 1248.54 1859.57 1248.54 1860.86 1245.94 1860.86 1244.64 1860.86 1242.04 1862.15 1242.04 1862.15 1240.74 1862.15 1239.44 1863.44 1234.25 1864.73 1229.05 1864.73 1223.85 1864.73 1223.85 1864.73 1223.85 1864.73 1223.85 1869.9 1199.17 1871.19 1178.38 1875.06 1162.79 1876.35 1161.5 1876.35 1161.5 1876.35 1162.79 1876.35 1161.5 1876.35 1160.2 1876.35 1158.9 1864.73 1169.29 1855.7 1199.17 1853.12 1208.26Z" fill="#5A919A" fill-rule="evenodd"/><path d="M1820.41 1555.61C1824.28 1554.3 1828.14 1555.61 1830.72 1556.91 1835.88 1558.21 1839.75 1563.42 1844.9 1566.03 1834.59 1546.48 1830.72 1513.91 1829.43 1478.73 1829.43 1474.82 1828.14 1469.61 1826.86 1467 1826.86 1507.39 1822.99 1542.58 1812.67 1564.73 1816.54 1563.42 1817.83 1558.21 1820.41 1555.61ZM1875.84 1590.79C1875.84 1590.79 1875.84 1590.79 1875.84 1590.79 1866.82 1590.79 1859.08 1586.88 1852.64 1579.06 1848.77 1581.67 1844.9 1582.97 1839.75 1584.27 1832.01 1584.27 1825.57 1584.27 1817.83 1582.97 1811.39 1581.67 1808.81 1580.36 1806.23 1576.45 1799.78 1585.58 1792.05 1590.79 1781.74 1590.79 1780.45 1590.79 1780.45 1590.79 1780.45 1590.79 1777.87 1590.79 1776.58 1590.79 1774 1589.48 1789.47 1593.39 1806.23 1596 1828.14 1596 1850.06 1596 1866.82 1593.39 1881 1590.79 1881 1590.79 1881 1590.79 1881 1589.48 1879.71 1590.79 1878.42 1590.79 1875.84 1590.79Z" fill="#5A919A" fill-rule="evenodd"/><path d="M1809.5 1581.5C1815.95 1582.5 1821.11 1583.5 1830.15 1583.5 1839.18 1583.5 1844.34 1582.5 1849.5 1581.5" stroke="#333333" stroke-width="2.86476" stroke-linecap="round" stroke-linejoin="round" stroke-miterlimit="10" fill="none" fill-rule="evenodd"/><path d="M1732.96 1174.5C1732.96 1208.19 1709.5 1590.5 1781.2 1590.5 1782.5 1590.5 1782.5 1590.5 1782.5 1590.5 1855.5 1590.5 1826.82 1337.79 1802.05 1260.03 1791.62 1230.23 1790.32 1200.42 1786.41 1178.39" stroke="#333333" stroke-width="2.86476" stroke-linecap="round" stroke-linejoin="round" stroke-miterlimit="10" fill="none" fill-rule="evenodd"/><path d="M1786.58 1179.73C1789.16 1195.31 1790.46 1214.79 1795.64 1235.56 1795.64 1236.86 1795.64 1236.86 1795.64 1238.16 1796.93 1240.75 1796.93 1243.35 1798.23 1245.95 1798.23 1247.25 1798.23 1248.54 1798.23 1249.84 1799.52 1252.44 1800.82 1256.33 1802.11 1260.23 1826.71 1338.13 1855.18 1591.31 1782.69 1591.31 1781.4 1591.31 1781.4 1591.31 1781.4 1591.31 1778.81 1591.31 1777.51 1591.31 1774.92 1590.01 1790.46 1593.9 1807.29 1596.5 1829.29 1596.5 1852.6 1596.5 1869.42 1593.9 1884.96 1590.01 1882.37 1591.31 1879.78 1591.31 1877.19 1591.31 1877.19 1591.31 1877.19 1591.31 1877.19 1591.31 1804.7 1591.31 1833.18 1338.13 1857.77 1260.23 1859.07 1257.63 1859.07 1255.04 1860.36 1252.44 1860.36 1251.14 1860.36 1249.84 1860.36 1249.84 1861.66 1247.25 1861.66 1245.95 1861.66 1243.35 1862.95 1243.35 1862.95 1242.05 1862.95 1240.75 1864.25 1235.56 1865.54 1230.37 1865.54 1225.17 1865.54 1225.17 1865.54 1225.17 1865.54 1225.17 1870.72 1200.51 1872.01 1179.73 1875.9 1164.15 1877.19 1162.85 1877.19 1162.85 1877.19 1164.15 1878.49 1157.66 1881.08 1151.17 1884.96 1148.57 1884.96 1149.87 1883.66 1152.47 1883.66 1153.77 1883.66 1165.45 1892.73 1174.54 1904.38 1174.54 1908.26 1174.54 1912.14 1173.24 1914.73 1171.94 1916.03 1170.64 1917.32 1170.64 1917.32 1171.94 1918.62 1169.35 1919.91 1168.05 1919.91 1164.15 1922.5 1147.27 1908.26 1138.19 1888.84 1132.99 1873.31 1129.1 1853.89 1126.5 1829.29 1126.5 1804.7 1126.5 1787.87 1129.1 1771.04 1132.99 1752.92 1138.19 1733.5 1149.87 1733.5 1171.94" stroke="#333333" stroke-width="2.86476" stroke-linecap="round" stroke-linejoin="round" stroke-miterlimit="10" fill="none" fill-rule="evenodd"/><path d="M1785.92 1169.5C1785.92 1184.88 1788.5 1219.5 1760.14 1219.5 1730.5 1219.5 1733.08 1184.88 1733.08 1169.5" stroke="#333333" stroke-width="2.86476" stroke-linecap="round" stroke-linejoin="round" stroke-miterlimit="10" fill="none" fill-rule="evenodd"/><path d="M1733.5 1172.5 1734.5 1173.5" stroke="#333333" stroke-width="2.86476" stroke-linecap="round" stroke-linejoin="round" stroke-miterlimit="10" fill="none" fill-rule="evenodd"/><path d="M1787 1158C1788.29 1158 1788.29 1158 1788.29 1158 1793.46 1150.11 1798.63 1135.63 1828.33 1135.63 1860.62 1135.63 1877.42 1142.21 1880 1144.84 1878.71 1144.84 1878.71 1144.84 1878.71 1144.84 1874.83 1138.26 1852.88 1133 1827.04 1133 1799.92 1133 1790.88 1152.74 1787 1158Z" fill="#FFFFFF" fill-rule="evenodd"/><path d="M1881.5 1148.5C1877.62 1143.36 1856.93 1139.5 1827.18 1139.5 1800.02 1139.5 1784.5 1154.93 1785.79 1184.5" stroke="#333333" stroke-width="2.86476" stroke-linecap="round" stroke-linejoin="round" stroke-miterlimit="10" fill="none" fill-rule="evenodd"/><path d="M1895.92 1259.23C1901.1 1226.8 1912.75 1194.37 1916.63 1172.32 1923.11 1145.08 1894.62 1136 1884.27 1147.67 1867.44 1164.54 1872.62 1211.23 1857.08 1259.23 1832.48 1337.06 1804 1590 1876.5 1590 1876.5 1590 1876.5 1590 1876.5 1590 1949 1590 1880.38 1350.03 1895.92 1259.23Z" fill="#B5CDCF" fill-rule="evenodd"/><path d="M1873.76 1199.91C1871.14 1218.05 1868.52 1238.78 1861.98 1259.51 1843.64 1315.22 1824 1446.08 1841.02 1529 1841.02 1529 1841.02 1529 1841.02 1529 1827.93 1451.26 1848.88 1317.81 1865.9 1263.4 1873.76 1242.67 1873.76 1224.53 1876.38 1206.39 1879 1174 1879 1174 1879 1174 1879 1174 1879 1174 1879 1174L1873.76 1199.91Z" fill="#FFFFFF" fill-rule="evenodd"/><path d="M1895.54 1259.21C1900.76 1226.78 1912.49 1194.35 1916.41 1172.3 1916.41 1171 1916.41 1171 1916.41 1171 1911.19 1193.05 1890.33 1234.56 1883.81 1265.7 1869.47 1356.5 1930.75 1571.84 1859.04 1571.84 1857.73 1571.84 1857.73 1571.84 1857.73 1571.84 1853.82 1571.84 1849.91 1570.54 1846 1569.24 1853.82 1582.22 1862.95 1590 1875.99 1590 1875.99 1590 1875.99 1590 1875.99 1590 1949 1590 1879.9 1350.02 1895.54 1259.21Z" fill="#92B5B9" fill-rule="evenodd"/><path d="M1892.22 1260.66C1887 1294.4 1890.91 1346.31 1897.43 1403.4 1903.96 1472.18 1915.7 1546.15 1898.74 1576 1900.04 1576 1900.04 1576 1900.04 1576 1917 1544.85 1909.17 1472.18 1901.35 1402.11 1894.83 1348.9 1889.61 1293.1 1894.83 1259.36 1900.04 1236 1900.04 1236 1900.04 1236 1898.74 1237.3 1898.74 1237.3 1898.74 1237.3L1892.22 1260.66Z" fill="#FFFFFF" fill-rule="evenodd"/><path d="M1896.42 1259.73C1901.6 1227.3 1913.25 1194.87 1917.13 1172.82 1923.61 1145.58 1895.12 1136.5 1884.77 1148.17 1867.94 1165.04 1873.12 1211.73 1857.58 1259.73 1832.98 1337.56 1804.5 1590.5 1877 1590.5 1877 1590.5 1877 1590.5 1877 1590.5 1949.5 1590.5 1880.88 1350.53 1896.42 1259.73Z" stroke="#333333" stroke-width="2.86476" stroke-linecap="round" stroke-linejoin="round" stroke-miterlimit="10" fill="none" fill-rule="evenodd"/></g></svg>