<svg width="278" height="463" xmlns="http://www.w3.org/2000/svg" xmlns:xlink="http://www.w3.org/1999/xlink" xml:space="preserve" overflow="hidden"><g transform="translate(-724 -493)"><path d="M980.45 530.654C950.73 499.591 849.944 475 780.169 517.711 775 522.888 775 529.36 777.584 533.243 777.584 533.243 777.584 533.243 777.584 533.243 782.753 541.008 785.337 548.774 789.214 559.128 811.18 600.545 809.888 698.91 809.888 720.913 809.888 741.621 834.438 869.755 834.438 916.349 834.438 924.115 833.146 929.292 831.854 931.88 829.27 939.646 822.809 946.117 815.056 950 825.393 948.706 835.731 947.412 847.36 947.412 858.989 947.412 878.371 948.706 888.708 950 886.124 948.706 883.539 947.412 882.247 944.823 880.955 944.823 880.955 944.823 880.955 944.823 879.663 943.529 879.663 943.529 878.371 943.529 878.371 942.234 878.371 942.234 877.079 940.94 877.079 940.94 875.787 939.646 875.787 939.646 875.787 938.352 874.495 938.352 874.495 937.057 874.495 937.057 874.495 935.763 873.202 935.763 873.202 934.469 871.91 933.174 871.91 931.88 862.865 908.583 895.169 745.504 895.169 722.207 895.169 701.499 892.584 585.014 921.011 550.068 922.304 548.774 924.888 550.068 923.596 552.657 922.304 557.834 921.011 564.305 919.719 569.482 917.135 599.251 926.18 625.136 940.393 626.431 952.023 627.725 962.36 616.076 968.82 597.956 970.113 592.779 975.281 592.779 975.281 599.251 977.865 616.076 977.865 634.196 973.989 652.316 963.652 706.676 957.191 916.349 937.809 940.94 936.517 942.234 935.225 942.234 933.933 943.529 933.933 944.823 932.641 944.823 932.641 944.823 932.641 946.117 931.349 946.117 931.349 946.117 930.056 947.412 927.472 948.706 926.18 950 936.517 946.117 948.146 937.057 955.899 927.997 975.281 904.7 986.91 688.556 997.247 634.196 1005 594.074 1001.12 553.951 980.45 530.654Z" fill="#979DBE" fill-rule="evenodd"/><path d="M808.989 722.035C808.989 702.626 810.281 601.7 788.315 559 789.607 565.47 790.899 571.939 790.899 578.409 796.067 614.639 784.438 646.987 766.348 648.281 749.551 650.869 734.045 628.872 727.584 599.112 727.584 599.112 727.584 599.112 727.584 599.112 725 615.933 725 634.048 728.876 652.163 739.213 706.508 745.674 916.125 766.348 940.709 785.73 964 821.91 954.942 830.955 931.652 840 908.361 808.989 745.326 808.989 722.035Z" fill="#BFC2D7" fill-rule="evenodd"/><path d="M895.303 722.24C895.303 701.554 892.719 585.199 921.146 550.293 922.438 549 925.023 550.293 923.73 552.878 922.438 558.05 921.146 564.514 919.854 569.685 917.27 599.42 926.315 625.277 940.528 626.57 952.157 627.863 962.494 616.227 968.955 598.128 970.247 592.956 975.416 592.956 975.416 599.42 978 616.227 978 634.327 974.124 652.427 963.786 706.726 957.326 916.165 937.944 940.729 918.562 964 881.09 954.95 872.045 931.679 863 908.408 895.303 745.511 895.303 722.24Z" fill="#BFC2D7" fill-rule="evenodd"/><path d="M871.887 931.87C862.798 908.561 895.258 745.392 895.258 722.083 895.258 702.658 892.661 599.059 916.032 557.62 919.927 549.85 925.121 543.375 931.613 540.785 931.613 540.785 931.613 540.785 931.613 540.785 942 531.72 926.419 511 873.185 512.295 819.952 513.59 781 535.605 788.79 557.62 788.79 557.62 788.79 558.915 788.79 558.915 810.863 601.649 809.565 702.658 809.565 722.083 809.565 745.392 840.726 908.561 831.637 931.87 829.04 939.64 822.548 946.115 814.758 950 825.145 948.705 835.532 947.41 847.218 947.41 858.903 947.41 878.379 948.705 888.766 950 880.976 946.115 874.484 939.64 871.887 931.87Z" fill="#7F87AF" fill-rule="evenodd"/><path d="M877 522C877 524.534 877 524.534 877 524.534 888.769 523.267 897.923 530.867 901.846 535.933 907.077 542.267 905.769 553.667 904.461 560 907.077 558.733 907.077 558.733 907.077 558.733 909.692 551.133 911 539.733 905.769 532.133 900.538 524.534 891.385 522 877 522Z" fill="#FFFFFF" fill-rule="evenodd"/><path d="M873.185 512.295C819.952 513.59 781 535.605 788.79 557.62 788.79 557.62 788.79 558.915 788.79 558.915 810.863 601.649 809.565 702.658 809.565 722.083 809.565 745.392 840.726 908.561 831.637 931.87 829.04 939.64 822.548 946.115 814.758 950 825.145 948.705 835.532 947.41 847.218 947.41 858.903 947.41 878.379 948.705 888.766 950 880.976 946.115 874.484 939.64 871.887 931.87 862.798 908.561 895.258 745.392 895.258 722.083 895.258 702.658 892.661 599.059 916.032 557.62 919.927 549.85 925.121 543.375 931.613 540.785 931.613 540.785 931.613 540.785 931.613 540.785 942 531.72 926.419 511 873.185 512.295ZM905.645 552.44C890.064 579.634 883.573 631.434 883.573 711.723 883.573 713.018 883.573 722.083 883.573 722.083 883.573 728.558 878.379 755.752 874.484 782.947 865.395 842.516 857.605 889.136 857.605 916.33 857.605 925.395 844.621 925.395 844.621 916.33 844.621 889.136 838.129 842.516 829.04 782.947 825.145 755.752 821.25 728.558 821.25 722.083 821.25 722.083 821.25 713.018 821.25 711.723 821.25 646.974 816.056 601.649 805.669 570.569 797.879 548.555 804.371 540.785 806.968 538.195 816.056 531.72 844.621 523.95 873.185 523.95 914.734 522.655 909.54 543.375 905.645 552.44ZM905.645 552.44C905.645 552.44 905.645 552.44 905.645 552.44 905.645 552.44 905.645 552.44 905.645 552.44 905.645 552.44 905.645 552.44 905.645 552.44Z" fill="#586598" fill-rule="evenodd"/><path d="M734.241 654.894C738.172 674.28 740.793 716.928 744.724 760.869 749.966 822.903 757.828 892.691 767 925 767 925 767 925 767 925 757.828 892.691 753.897 821.61 749.966 760.869 746.035 715.636 742.104 674.28 738.172 654.894 736.862 643.263 729 631.631 729 620 729 620 729 620 729 620 729 631.631 731.621 643.263 734.241 654.894Z" fill="#FFFFFF" fill-rule="evenodd"/><path d="M829.328 932.5C838.5 909.202 805.741 746.113 805.741 722.815 805.741 709.871 807.052 656.802 800.5 611.5" stroke="#FFFFFF" stroke-width="5.15643" stroke-miterlimit="8" fill="none" fill-rule="evenodd"/><path d="M804.411 722.483C804.411 703.11 814.839 588.163 787.464 552 808.322 594.621 792.679 701.818 792.679 718.608 792.679 741.856 826.571 894.257 816.143 918.796 809.625 936.878 783.554 945.918 764 936.878 764 938.169 765.304 939.461 766.607 940.752 786.161 964 818.75 956.251 827.875 933.003 837 909.755 804.411 747.022 804.411 722.483Z" fill="#9EA3C2" fill-rule="evenodd"/><path d="M919.9 569.304C919.9 569.304 919.9 569.304 919.9 568 923.8 581.043 934.2 598 942 601.913 948.5 605.826 961.5 605.826 968 600.609 961.5 617.565 951.1 628 940.7 626.696 925.1 625.391 916 599.304 919.9 569.304Z" fill="#7F87AF" fill-rule="evenodd"/><path d="M976.523 789.383C975.227 795.859 972.636 812.698 964.864 815.289 962.273 811.403 959.682 807.517 959.682 802.336 954.5 867.101 946.727 927.98 937.659 940.933 936.364 942.228 935.068 942.228 933.773 943.524 933.773 944.819 932.477 944.819 932.477 944.819 932.477 946.114 931.182 946.114 931.182 946.114 929.886 947.41 927.296 948.705 926 950 936.364 946.114 948.023 937.047 955.796 927.98 967.455 913.732 976.523 832.128 983 757 981.705 767.362 979.114 779.02 976.523 789.383Z" fill="#7B83AD" fill-rule="evenodd"/><path d="M795.412 593C796.706 607.25 794.117 620.205 790.235 629.273 787.647 639.636 782.47 648.705 776 650 776 650 776 650 776 650 783.765 648.705 790.235 643.523 794.117 633.159 798 621.5 796.706 608.545 795.412 593Z" fill="#FFFFFF" fill-rule="evenodd"/><path d="M872.881 506C838.102 507.289 800.746 517.605 790.441 533.079 785.288 539.526 784 547.263 786.576 555 786.576 553.711 786.576 553.711 786.576 553.711 784 547.263 789.153 542.105 793.017 535.658 803.322 521.474 839.39 511.158 872.881 511.158 912.814 509.868 928.271 521.474 930.848 527.921 932.136 530.5 934.712 535.658 932.136 536.947 932.136 539.526 932.136 539.526 932.136 539.526 936 535.658 936 530.5 934.712 526.632 930.848 516.316 912.814 506 872.881 506Z" fill="#FFFFFF" fill-rule="evenodd"/><path d="M808.989 722.035C808.989 702.626 810.281 601.7 788.315 559 789.607 565.47 790.899 571.939 790.899 578.409 796.067 614.639 784.438 646.987 766.348 648.281 749.551 650.869 734.045 628.872 727.584 599.112 727.584 599.112 727.584 599.112 727.584 599.112 725 615.933 725 634.048 728.876 652.163 739.213 706.508 745.674 916.125 766.348 940.709 785.73 964 821.91 954.942 830.955 931.652 840 908.361 808.989 745.326 808.989 722.035Z" stroke="#333333" stroke-width="2.29167" stroke-linecap="round" stroke-linejoin="round" stroke-miterlimit="10" fill="none" fill-rule="evenodd"/><path d="M895.303 722.24C895.303 701.554 892.719 585.199 921.146 550.293 922.438 549 925.023 550.293 923.73 552.878 922.438 558.05 921.146 564.514 919.854 569.685 917.27 599.42 926.315 625.277 940.528 626.57 952.157 627.863 962.494 616.227 968.955 598.128 970.247 592.956 975.416 592.956 975.416 599.42 978 616.227 978 634.327 974.124 652.427 963.786 706.726 957.326 916.165 937.944 940.729 918.562 964 881.09 954.95 872.045 931.679 863 908.408 895.303 745.511 895.303 722.24Z" stroke="#333333" stroke-width="2.29167" stroke-linecap="round" stroke-linejoin="round" stroke-miterlimit="10" fill="none" fill-rule="evenodd"/><path d="M871.887 931.87C862.798 908.561 895.258 745.392 895.258 722.083 895.258 702.658 892.661 599.059 916.032 557.62 919.927 549.85 925.121 543.375 931.613 540.785 931.613 540.785 931.613 540.785 931.613 540.785 942 531.72 926.419 511 873.185 512.295 819.952 513.59 781 535.605 788.79 557.62 788.79 557.62 788.79 558.915 788.79 558.915 810.863 601.649 809.565 702.658 809.565 722.083 809.565 745.392 840.726 908.561 831.637 931.87 829.04 939.64 822.548 946.115 814.758 950 825.145 948.705 835.532 947.41 847.218 947.41 858.903 947.41 878.379 948.705 888.766 950 880.976 946.115 874.484 939.64 871.887 931.87Z" stroke="#333333" stroke-width="2.29167" stroke-linecap="round" stroke-linejoin="round" stroke-miterlimit="10" fill="none" fill-rule="evenodd"/><path d="M980.45 530.654C950.73 499.591 849.944 475 780.169 517.711 775 522.888 775 529.36 777.584 533.243 777.584 533.243 777.584 533.243 777.584 533.243 782.753 541.008 785.337 548.774 789.214 559.128 811.18 600.545 809.888 698.91 809.888 720.913 809.888 741.621 834.438 869.755 834.438 916.349 834.438 924.115 833.146 929.292 831.854 931.88 829.27 939.646 822.809 946.117 815.056 950 825.393 948.706 835.731 947.412 847.36 947.412 858.989 947.412 878.371 948.706 888.708 950 886.124 948.706 883.539 947.412 882.247 944.823 880.955 944.823 880.955 944.823 880.955 944.823 879.663 943.529 879.663 943.529 878.371 943.529 878.371 942.234 878.371 942.234 877.079 940.94 877.079 940.94 875.787 939.646 875.787 939.646 875.787 938.352 874.495 938.352 874.495 937.057 874.495 937.057 874.495 935.763 873.202 935.763 873.202 934.469 871.91 933.174 871.91 931.88 862.865 908.583 895.169 745.504 895.169 722.207 895.169 701.499 892.584 585.014 921.011 550.068 922.304 548.774 924.888 550.068 923.596 552.657 922.304 557.834 921.011 564.305 919.719 569.482 917.135 599.251 926.18 625.136 940.393 626.431 952.023 627.725 962.36 616.076 968.82 597.956 970.113 592.779 975.281 592.779 975.281 599.251 977.865 616.076 977.865 634.196 973.989 652.316 963.652 706.676 957.191 916.349 937.809 940.94 936.517 942.234 935.225 942.234 933.933 943.529 933.933 944.823 932.641 944.823 932.641 944.823 932.641 946.117 931.349 946.117 931.349 946.117 930.056 947.412 927.472 948.706 926.18 950 936.517 946.117 948.146 937.057 955.899 927.997 975.281 904.7 986.91 688.556 997.247 634.196 1005 594.074 1001.12 553.951 980.45 530.654Z" stroke="#333333" stroke-width="2.29167" stroke-linecap="round" stroke-linejoin="round" stroke-miterlimit="10" fill="none" fill-rule="evenodd"/><path d="M728 602C728 602 728 602 727 603 727 603 727 603 727 603 728 602 728 602 728 602Z" stroke="#333333" stroke-width="2.29167" stroke-linecap="round" stroke-linejoin="round" stroke-miterlimit="10" fill="none" fill-rule="evenodd"/><path d="M942 507C990 529.054 975.73 577.054 977.027 603" stroke="#333333" stroke-width="2.29167" stroke-linecap="round" stroke-linejoin="round" stroke-miterlimit="10" fill="none" fill-rule="evenodd"/><path d="M894 721.969C894 701.26 892.708 571.832 926.292 544.652 971.5 511 987 589.952 974.083 652.077 963.75 706.437 957.292 916.111 937.917 940.703 918.542 964 881.083 954.94 872.042 931.643 863 908.346 894 746.56 894 721.969Z" fill="#BFC2D7" fill-rule="evenodd"/><path d="M975.422 599.329C975.422 592.863 972.843 567 971.554 570.879 972.843 583.811 971.554 594.156 971.554 596.742 971.554 604.501 959.952 651.055 958.663 658.814 948.349 711.834 947.06 890.29 930.301 914.86 909.675 944.602 872.289 949.775 871 917.446 871 923.912 871 929.085 872.289 931.671 881.313 954.948 918.699 964 938.036 940.723 957.373 916.153 963.819 706.661 974.133 652.348 978 634.244 978 616.14 975.422 599.329Z" fill="#9EA3C2" fill-rule="evenodd"/><path d="M969.923 657.894C966.115 677.28 964.846 719.928 961.038 763.869 955.961 825.903 950.885 894.398 942 928 942 928 942 928 942 928 950.885 895.691 952.154 825.903 955.961 763.869 959.769 719.928 963.577 678.572 967.385 659.186 969.923 647.555 975 634.631 975 623 975 623 975 623 975 623 975 634.631 972.461 646.263 969.923 657.894Z" fill="#FFFFFF" fill-rule="evenodd"/><path d="M875.878 927.419C867 904.187 898.707 748.017 898.707 724.785 898.707 708.007 898.707 599.592 919 557 892.366 593.138 893.634 708.007 893.634 728.657 893.634 751.889 867 906.768 875.878 930" fill="#FFFFFF" fill-rule="evenodd"/><path d="M894 721.969C894 701.26 892.708 571.832 926.292 544.652 971.5 511 987 589.952 974.083 652.077 963.75 706.437 957.292 916.111 937.917 940.703 918.542 964 881.083 954.94 872.042 931.643 863 908.346 894 746.56 894 721.969Z" stroke="#333333" stroke-width="2.29167" stroke-linecap="round" stroke-linejoin="round" stroke-miterlimit="10" fill="none" fill-rule="evenodd"/><path d="M728 599.462C734.51 629.096 750.132 651 767.057 648.423 785.283 647.135 797 614.923 791.793 578.846 790.491 560.808 785.283 545.346 777.472 533.75 774.868 529.885 773.566 522.154 782.679 517" stroke="#333333" stroke-width="2.29167" stroke-linecap="round" stroke-linejoin="round" stroke-miterlimit="10" fill="none" fill-rule="evenodd"/></g></svg>