<svg width="221" height="471" xmlns="http://www.w3.org/2000/svg" xmlns:xlink="http://www.w3.org/1999/xlink" xml:space="preserve" overflow="hidden"><g transform="translate(-1402 -1125)"><path d="M1583 1148C1579.13 1142.86 1545.55 1139 1515.85 1139 1488.74 1139 1456.46 1142.86 1450 1146.71" fill="#BC576D" fill-rule="evenodd"/><path d="M1597.55 1259.22C1602.77 1226.89 1614.5 1194.56 1618.41 1172.57 1619.71 1171.28 1617.11 1169.99 1615.8 1171.28 1613.2 1172.57 1609.29 1173.87 1605.38 1173.87 1593.64 1173.87 1584.52 1164.81 1584.52 1153.17 1584.52 1151.88 1585.82 1149.29 1585.82 1148 1568.87 1164.81 1574.09 1211.37 1558.45 1259.22 1533.68 1336.82 1505 1589 1578 1589 1578 1589 1578 1589 1578 1589 1651 1589 1581.91 1349.75 1597.55 1259.22Z" fill="#B5CDCF" fill-rule="evenodd"/><path d="M1574.86 1198.91C1572.29 1217.05 1569.71 1237.78 1563.29 1258.51 1545.29 1314.22 1526 1445.08 1542.71 1528 1542.71 1528 1542.71 1528 1542.71 1528 1529.86 1450.26 1550.43 1316.81 1568.43 1262.4 1574.86 1241.67 1574.86 1223.53 1577.43 1205.39 1580 1173 1580 1173 1580 1173 1580 1173 1580 1173 1580 1173L1574.86 1198.91Z" fill="#FFFFFF" fill-rule="evenodd"/><path d="M1597.54 1259C1602.76 1226.65 1614.49 1194.29 1618.41 1172.29 1619.71 1171 1618.41 1171 1618.41 1171 1613.19 1193 1592.33 1234.41 1587.11 1265.47 1571.47 1356.06 1632.75 1570.88 1561.04 1570.88 1559.73 1570.88 1559.73 1570.88 1559.73 1570.88 1555.82 1570.88 1551.91 1569.59 1548 1568.29 1555.82 1581.24 1564.95 1589 1577.99 1589 1577.99 1589 1577.99 1589 1577.99 1589 1651 1589 1581.9 1349.59 1597.54 1259Z" fill="#92B5B9" fill-rule="evenodd"/><path d="M1589.39 1132.46C1573.88 1128.59 1540.27 1126 1515.71 1126 1491.15 1126 1462.71 1128.59 1445.9 1132.46 1426.51 1137.64 1411 1146.69 1413.59 1163.49 1413.59 1167.37 1414.88 1169.96 1416.17 1171.25 1416.17 1169.96 1418.76 1169.96 1420.05 1171.25 1422.63 1172.54 1426.51 1173.83 1430.39 1173.83 1442.02 1173.83 1449.78 1164.78 1449.78 1153.15 1449.78 1151.86 1449.78 1150.56 1449.78 1147.98 1452.37 1151.86 1454.95 1157.03 1457.54 1162.2 1457.54 1162.2 1457.54 1163.49 1457.54 1163.49 1462.71 1180.3 1464 1206.15 1469.17 1233.3 1469.17 1233.3 1469.17 1233.3 1469.17 1233.3 1470.46 1235.89 1470.46 1238.48 1470.46 1241.06 1471.76 1241.06 1471.76 1242.35 1471.76 1242.35 1471.76 1244.94 1473.05 1246.23 1473.05 1248.82 1473.05 1250.11 1473.05 1250.11 1474.34 1251.4 1474.34 1253.99 1475.63 1256.57 1475.63 1259.16 1501.49 1336.73 1528.63 1588.83 1457.54 1588.83 1456.24 1588.83 1456.24 1588.83 1456.24 1588.83 1453.66 1588.83 1451.07 1588.83 1449.78 1587.54 1465.29 1591.41 1504.07 1594 1526.05 1594 1548.02 1594 1570 1591.41 1585.51 1587.54 1584.22 1588.83 1581.63 1588.83 1577.76 1588.83 1577.76 1588.83 1577.76 1588.83 1577.76 1588.83 1505.37 1588.83 1533.8 1336.73 1558.37 1259.16 1559.66 1256.57 1559.66 1253.99 1560.95 1251.4 1560.95 1250.11 1560.95 1248.82 1560.95 1248.82 1562.24 1246.23 1562.24 1244.94 1562.24 1242.35 1563.54 1242.35 1563.54 1241.06 1563.54 1239.77 1564.83 1234.6 1566.12 1229.43 1566.12 1224.25 1566.12 1224.25 1566.12 1224.25 1566.12 1224.25 1571.29 1199.69 1572.59 1179.01 1577.76 1163.49 1577.76 1162.2 1577.76 1162.2 1577.76 1163.49 1579.05 1157.03 1581.63 1150.56 1585.51 1147.98 1585.51 1149.27 1584.22 1151.86 1584.22 1153.15 1584.22 1164.78 1593.27 1173.83 1604.9 1173.83 1608.78 1173.83 1612.66 1172.54 1615.24 1171.25 1616.54 1169.96 1617.83 1169.96 1617.83 1171.25 1619.12 1168.66 1620.41 1167.37 1620.41 1163.49 1623 1146.69 1608.78 1137.64 1589.39 1132.46Z" fill="#77A4AA" fill-rule="evenodd"/><path d="M1562.05 1179C1560.74 1185.48 1556.79 1207.53 1554.16 1220.49 1551.53 1233.46 1548.89 1249.02 1546.26 1256.8 1543.63 1264.58 1541 1276.25 1541 1286.63 1541 1297 1556.79 1252.91 1556.79 1252.91 1566 1198.45 1566 1198.45 1566 1198.45" fill="#FFFFFF" fill-rule="evenodd"/><path d="M1620.41 1163.49C1623 1146.69 1608.78 1137.64 1589.39 1132.46 1573.88 1128.59 1540.27 1126 1515.71 1126 1491.15 1126 1462.71 1128.59 1445.9 1132.46 1426.51 1137.64 1411 1146.69 1413.59 1163.49 1413.59 1167.37 1414.88 1169.96 1416.17 1171.25 1416.17 1169.96 1418.76 1169.96 1420.05 1171.25 1422.63 1172.54 1426.51 1173.83 1430.39 1173.83 1442.02 1173.83 1449.78 1164.78 1449.78 1153.15 1449.78 1151.86 1449.78 1150.56 1449.78 1147.98 1452.37 1151.86 1454.95 1157.03 1457.54 1162.2 1457.54 1162.2 1457.54 1163.49 1457.54 1163.49 1462.71 1180.3 1464 1206.15 1469.17 1233.3 1469.17 1233.3 1469.17 1233.3 1469.17 1233.3 1470.46 1235.89 1470.46 1238.48 1470.46 1241.06 1471.76 1241.06 1471.76 1242.35 1471.76 1242.35 1471.76 1244.94 1473.05 1246.23 1473.05 1248.82 1473.05 1250.11 1473.05 1250.11 1474.34 1251.4 1474.34 1253.99 1475.63 1256.57 1475.63 1259.16 1501.49 1336.73 1528.63 1588.83 1457.54 1588.83 1456.24 1588.83 1456.24 1588.83 1456.24 1588.83 1453.66 1588.83 1451.07 1588.83 1449.78 1587.54 1465.29 1591.41 1504.07 1594 1526.05 1594 1548.02 1594 1570 1591.41 1585.51 1587.54 1584.22 1588.83 1581.63 1588.83 1577.76 1588.83 1577.76 1588.83 1577.76 1588.83 1577.76 1588.83 1505.37 1588.83 1533.8 1336.73 1558.37 1259.16 1559.66 1256.57 1559.66 1253.99 1560.95 1251.4 1560.95 1250.11 1560.95 1248.82 1560.95 1248.82 1562.24 1246.23 1562.24 1244.94 1562.24 1242.35 1563.54 1242.35 1563.54 1241.06 1563.54 1239.77 1564.83 1234.6 1566.12 1229.43 1566.12 1224.25 1566.12 1224.25 1566.12 1224.25 1566.12 1224.25 1571.29 1199.69 1572.59 1179.01 1577.76 1163.49 1577.76 1162.2 1577.76 1162.2 1577.76 1163.49 1579.05 1157.03 1581.63 1150.56 1585.51 1147.98 1585.51 1149.27 1584.22 1151.86 1584.22 1153.15 1584.22 1164.78 1593.27 1173.83 1604.9 1173.83 1608.78 1173.83 1612.66 1172.54 1615.24 1171.25 1616.54 1169.96 1617.83 1169.96 1617.83 1171.25 1619.12 1168.66 1620.41 1167.37 1620.41 1163.49ZM1458.83 1151.86C1458.83 1151.86 1458.83 1151.86 1457.54 1151.86 1458.83 1151.86 1458.83 1151.86 1458.83 1151.86 1458.83 1151.86 1458.83 1151.86 1458.83 1151.86ZM1461.41 1153.15C1461.41 1153.15 1461.41 1153.15 1461.41 1153.15 1461.41 1153.15 1461.41 1153.15 1461.41 1153.15 1461.41 1153.15 1461.41 1153.15 1461.41 1153.15ZM1532.51 1555.22C1535.1 1565.56 1538.98 1573.31 1544.15 1581.07 1544.15 1581.07 1544.15 1581.07 1545.44 1581.07 1540.27 1582.36 1533.8 1583.66 1526.05 1583.66 1519.59 1583.66 1496.32 1582.36 1489.85 1581.07 1489.85 1581.07 1489.85 1581.07 1489.85 1581.07 1495.02 1573.31 1498.9 1564.27 1502.78 1553.92 1504.07 1548.75 1529.93 1550.04 1532.51 1555.22ZM1568.71 1158.32C1567.41 1158.32 1567.41 1159.61 1567.41 1159.61 1567.41 1159.61 1567.41 1159.61 1567.41 1159.61 1567.41 1159.61 1567.41 1159.61 1567.41 1159.61 1567.41 1159.61 1567.41 1160.91 1567.41 1160.91 1567.41 1160.91 1567.41 1160.91 1567.41 1160.91 1563.54 1171.25 1562.24 1184.18 1559.66 1198.4 1555.78 1221.67 1555.78 1221.67 1555.78 1221.67 1555.78 1221.67 1553.2 1238.48 1553.2 1238.48 1553.2 1238.48 1553.2 1239.77 1553.2 1239.77 1553.2 1239.77 1553.2 1239.77 1553.2 1239.77 1550.61 1246.23 1550.61 1246.23 1550.61 1246.23 1550.61 1246.23 1550.61 1246.23 1550.61 1246.23 1550.61 1247.52 1550.61 1247.52 1550.61 1247.52 1550.61 1247.52 1548.02 1255.28 1548.02 1255.28 1542.85 1273.38 1536.39 1300.53 1532.51 1331.56 1529.93 1349.66 1505.37 1349.66 1502.78 1331.56 1497.61 1300.53 1492.44 1273.38 1485.98 1255.28 1483.39 1248.82 1483.39 1248.82 1483.39 1248.82 1483.39 1248.82 1483.39 1246.23 1483.39 1246.23 1482.1 1239.77 1482.1 1239.77 1482.1 1239.77 1482.1 1239.77 1480.8 1238.48 1480.8 1238.48 1480.8 1238.48 1479.51 1230.72 1479.51 1230.72 1476.93 1219.08 1475.63 1208.74 1474.34 1198.4 1471.76 1184.18 1470.46 1171.25 1467.88 1160.91 1466.59 1157.03 1464 1155.73 1462.71 1154.44 1465.29 1155.73 1466.59 1157.03 1466.59 1159.61 1464 1151.86 1462.71 1147.98 1458.83 1144.1 1458.83 1142.81 1458.83 1142.81 1457.54 1142.81 1473.05 1140.22 1507.95 1138.93 1527.34 1138.93 1545.44 1138.93 1560.95 1141.51 1575.17 1144.1 1571.29 1147.98 1570 1150.56 1568.71 1158.32Z" fill="#5A919A" fill-rule="evenodd"/><path d="M1594.04 1260.58C1589 1294.23 1592.78 1345.98 1599.09 1402.91 1606.65 1471.49 1616.74 1545.24 1600.35 1575 1601.61 1575 1601.61 1575 1601.61 1575 1618 1543.95 1610.43 1471.49 1602.87 1401.62 1596.57 1348.57 1591.52 1292.93 1596.57 1259.29 1601.61 1236 1601.61 1236 1601.61 1236 1601.61 1237.29 1601.61 1237.29 1601.61 1237.29L1594.04 1260.58Z" fill="#FFFFFF" fill-rule="evenodd"/><path d="M1475.71 1259.29C1496.41 1323.94 1517.12 1519.18 1478.29 1573.48 1471.82 1582.54 1464.06 1587.71 1455 1587.71 1455 1589 1455 1589 1455 1589 1465.35 1589 1474.41 1585.12 1480.88 1576.07 1521 1520.47 1496.41 1323.94 1475.71 1258L1475.71 1259.29Z" fill="#FFFFFF" fill-rule="evenodd"/><path d="M1461.51 1158C1465.35 1156.7 1466.63 1151.5 1470.46 1150.2 1471.74 1147.6 1474.3 1146.3 1476.86 1143.7 1485.81 1138.5 1496.05 1135.9 1505 1132 1485.81 1133.3 1467.91 1137.2 1450 1145" fill="#5A919A" fill-rule="evenodd"/><path d="M1484.5 1580.5C1489.73 1581.5 1517.19 1582.5 1526.35 1582.5 1535.5 1582.5 1545.96 1581.5 1552.5 1580.5" stroke="#333333" stroke-width="2.86476" stroke-linecap="round" stroke-linejoin="round" stroke-miterlimit="10" fill="none" fill-rule="evenodd"/><path d="M1598.05 1259.72C1603.27 1227.39 1615 1195.06 1618.91 1173.07 1620.21 1171.78 1617.61 1170.49 1616.3 1171.78 1613.7 1173.07 1609.79 1174.37 1605.88 1174.37 1594.14 1174.37 1585.02 1165.31 1585.02 1153.67 1585.02 1152.38 1586.32 1149.79 1586.32 1148.5 1569.38 1165.31 1574.59 1211.87 1558.95 1259.72 1534.18 1337.32 1505.5 1589.5 1578.5 1589.5 1578.5 1589.5 1578.5 1589.5 1578.5 1589.5 1651.5 1589.5 1582.41 1350.25 1598.05 1259.72Z" stroke="#333333" stroke-width="2.86476" stroke-linecap="round" stroke-linejoin="round" stroke-miterlimit="10" fill="none" fill-rule="evenodd"/><path d="M1589.89 1132.96C1574.38 1129.09 1540.77 1126.5 1516.21 1126.5 1491.65 1126.5 1463.21 1129.09 1446.4 1132.96 1427.01 1138.14 1411.5 1147.19 1414.09 1163.99 1414.09 1167.87 1415.38 1170.46 1416.67 1171.75 1416.67 1170.46 1419.26 1170.46 1420.55 1171.75 1423.13 1173.04 1427.01 1174.33 1430.89 1174.33 1442.52 1174.33 1450.28 1165.28 1450.28 1153.65 1450.28 1152.36 1450.28 1151.06 1450.28 1148.48 1452.87 1152.36 1455.45 1157.53 1458.04 1162.7 1458.04 1162.7 1458.04 1163.99 1458.04 1163.99 1463.21 1180.8 1464.5 1206.65 1469.67 1233.8 1469.67 1233.8 1469.67 1233.8 1469.67 1233.8 1470.96 1236.39 1470.96 1238.98 1470.96 1241.56 1472.26 1241.56 1472.26 1242.85 1472.26 1242.85 1472.26 1245.44 1473.55 1246.73 1473.55 1249.32 1473.55 1250.61 1473.55 1250.61 1474.84 1251.9 1474.84 1254.49 1476.13 1257.07 1476.13 1259.66 1501.99 1337.23 1529.13 1589.33 1458.04 1589.33 1456.74 1589.33 1456.74 1589.33 1456.74 1589.33 1454.16 1589.33 1451.57 1589.33 1450.28 1588.04 1465.79 1591.91 1504.57 1594.5 1526.55 1594.5 1548.52 1594.5 1570.5 1591.91 1586.01 1588.04 1584.72 1589.33 1582.13 1589.33 1578.26 1589.33 1578.26 1589.33 1578.26 1589.33 1578.26 1589.33 1505.87 1589.33 1534.3 1337.23 1558.87 1259.66 1560.16 1257.07 1560.16 1254.49 1561.45 1251.9 1561.45 1250.61 1561.45 1249.32 1561.45 1249.32 1562.74 1246.73 1562.74 1245.44 1562.74 1242.85 1564.04 1242.85 1564.04 1241.56 1564.04 1240.27 1565.33 1235.1 1566.62 1229.93 1566.62 1224.75 1566.62 1224.75 1566.62 1224.75 1566.62 1224.75 1571.79 1200.19 1573.09 1179.51 1578.26 1163.99 1578.26 1162.7 1578.26 1162.7 1578.26 1163.99 1579.55 1157.53 1582.13 1151.06 1586.01 1148.48 1586.01 1149.77 1584.72 1152.36 1584.72 1153.65 1584.72 1165.28 1593.77 1174.33 1605.4 1174.33 1609.28 1174.33 1613.16 1173.04 1615.74 1171.75 1617.04 1170.46 1618.33 1170.46 1618.33 1171.75 1619.62 1169.16 1620.91 1167.87 1620.91 1163.99 1623.5 1147.19 1609.28 1138.14 1589.89 1132.96Z" stroke="#333333" stroke-width="2.86476" stroke-linecap="round" stroke-linejoin="round" stroke-miterlimit="10" fill="none" fill-rule="evenodd"/><path d="M1597.55 1258.96C1602.77 1226.6 1614.5 1194.24 1618.41 1172.24 1624.93 1145.06 1596.25 1136 1585.82 1147.65 1568.87 1164.47 1574.09 1211.07 1558.45 1258.96 1533.68 1336.61 1505 1589 1578 1589 1578 1589 1578 1589 1578 1589 1651 1589 1581.91 1349.56 1597.55 1258.96Z" fill="#B5CDCF" fill-rule="evenodd"/><path d="M1574.86 1198.91C1572.29 1217.05 1569.71 1237.78 1563.29 1258.51 1545.29 1314.22 1526 1445.08 1542.71 1528 1542.71 1528 1542.71 1528 1542.71 1528 1529.86 1450.26 1550.43 1316.81 1568.43 1262.4 1574.86 1241.67 1574.86 1223.53 1577.43 1205.39 1580 1173 1580 1173 1580 1173 1580 1173 1580 1173 1580 1173L1574.86 1198.91Z" fill="#FFFFFF" fill-rule="evenodd"/><path d="M1597.54 1259C1602.76 1226.65 1614.49 1194.29 1618.41 1172.29 1619.71 1171 1618.41 1171 1618.41 1171 1613.19 1193 1592.33 1234.41 1587.11 1265.47 1571.47 1356.06 1632.75 1570.88 1561.04 1570.88 1559.73 1570.88 1559.73 1570.88 1559.73 1570.88 1555.82 1570.88 1551.91 1569.59 1548 1568.29 1555.82 1581.24 1564.95 1589 1577.99 1589 1577.99 1589 1577.99 1589 1577.99 1589 1651 1589 1581.9 1349.59 1597.54 1259Z" fill="#92B5B9" fill-rule="evenodd"/><path d="M1594.04 1260.58C1589 1294.23 1592.78 1345.98 1599.09 1402.91 1606.65 1471.49 1616.74 1545.24 1600.35 1575 1601.61 1575 1601.61 1575 1601.61 1575 1618 1543.95 1610.43 1471.49 1602.87 1401.62 1596.57 1348.57 1591.52 1292.93 1596.57 1259.29 1601.61 1236 1601.61 1236 1601.61 1236 1601.61 1237.29 1601.61 1237.29 1601.61 1237.29L1594.04 1260.58Z" fill="#FFFFFF" fill-rule="evenodd"/><path d="M1598.05 1259.46C1603.27 1227.1 1615 1194.74 1618.91 1172.74 1625.43 1145.56 1596.75 1136.5 1586.32 1148.15 1569.38 1164.97 1574.59 1211.57 1558.95 1259.46 1534.18 1337.11 1505.5 1589.5 1578.5 1589.5 1578.5 1589.5 1578.5 1589.5 1578.5 1589.5 1651.5 1589.5 1582.41 1350.06 1598.05 1259.46Z" stroke="#333333" stroke-width="2.86476" stroke-linecap="round" stroke-linejoin="round" stroke-miterlimit="10" fill="none" fill-rule="evenodd"/><path d="M1475.92 1258.53C1465.56 1226.13 1464.27 1195.03 1459.09 1173 1433.2 1173 1433.2 1173 1433.2 1173 1431.9 1173 1430.61 1173 1430.61 1173 1429.31 1173 1428.02 1173 1426.72 1173 1407.3 1173 1407.3 1173 1407.3 1173 1407.3 1206.69 1384 1589 1456.5 1589 1456.5 1589 1456.5 1589 1456.5 1589 1529 1589 1500.52 1336.29 1475.92 1258.53Z" fill="#B5CDCF" fill-rule="evenodd"/><path d="M1407 1168.3C1407 1154 1418.57 1141 1434 1141 1448.14 1141 1461 1154 1461 1168.3 1461 1183.9 1461 1219 1434 1219 1407 1219 1407 1183.9 1407 1168.3Z" fill="#5A919A" fill-rule="evenodd"/><path d="M1471.74 1245.03C1461.33 1214 1463.93 1220.47 1475.64 1259.26 1474.34 1254.09 1473.04 1250.21 1471.74 1245.03ZM1475.64 1260.55C1499.07 1351.07 1517.29 1579.95 1448.32 1579.95 1447.01 1579.95 1447.01 1579.95 1447.01 1579.95 1443.11 1579.95 1437.9 1577.36 1434 1574.78 1440.51 1583.83 1447.01 1589 1456.12 1589 1456.12 1589 1456.12 1589 1456.12 1589 1529 1589 1500.37 1338.14 1475.64 1260.55Z" fill="#92B5B9" fill-rule="evenodd"/><path d="M1474.62 1259.29C1495.23 1323.94 1517.13 1519.18 1477.19 1573.48 1470.75 1582.54 1463.02 1587.71 1454 1587.71 1454 1589 1454 1589 1454 1589 1464.31 1589 1473.33 1585.12 1481.06 1576.07 1521 1520.47 1496.52 1323.94 1475.9 1258L1474.62 1259.29Z" fill="#FFFFFF" fill-rule="evenodd"/><path d="M1407.8 1173.5C1407.8 1207.19 1384.5 1589.5 1457 1589.5 1457 1589.5 1457 1589.5 1457 1589.5 1529.5 1589.5 1501.02 1336.79 1476.42 1259.03 1467.36 1230.52 1464.77 1202.01 1460.88 1179.98" stroke="#333333" stroke-width="2.86476" stroke-linecap="round" stroke-linejoin="round" stroke-miterlimit="10" fill="none" fill-rule="evenodd"/><path d="M1462.2 1168.8C1462.2 1184.4 1463.5 1219.5 1435 1219.5 1406.5 1219.5 1407.8 1184.4 1407.8 1168.8 1407.8 1163.6 1411.68 1148 1427.23 1141.5" stroke="#333333" stroke-width="2.86476" stroke-linecap="round" stroke-linejoin="round" stroke-miterlimit="10" fill="none" fill-rule="evenodd"/><path d="M1407.5 1172.5 1408.5 1173.5" stroke="#333333" stroke-width="2.86476" stroke-linecap="round" stroke-linejoin="round" stroke-miterlimit="10" fill="none" fill-rule="evenodd"/><path d="M1583.5 1148.41C1579.61 1143.32 1545.86 1139.5 1516.01 1139.5 1488.76 1139.5 1461.5 1147.14 1461.5 1167.5" stroke="#333333" stroke-width="2.86476" stroke-linecap="round" stroke-linejoin="round" stroke-miterlimit="10" fill="none" fill-rule="evenodd"/><path d="M1465 1150C1471.5 1144.89 1483.2 1138.5 1498.8 1137.22 1518.3 1134.67 1543 1135.94 1569 1139.78 1535.2 1134.67 1489.7 1127 1465 1150Z" fill="#FFFFFF" fill-rule="evenodd"/></g></svg>