<svg width="219" height="476" xmlns="http://www.w3.org/2000/svg" xmlns:xlink="http://www.w3.org/1999/xlink" xml:space="preserve" overflow="hidden"><g transform="translate(-3073 -1128)"><path d="M3159.38 1242C3162 1280.88 3158.07 1331.42 3158.07 1371.59 3158.07 1477.85 3155.45 1586.7 3125.31 1586.7 3124 1588 3124 1588 3124 1588 3155.45 1588 3162 1507.66 3162 1366.4 3162 1326.23 3160.69 1280.88 3158.07 1242L3159.38 1242Z" fill="#FFFFFF" fill-rule="evenodd"/><path d="M3241.01 1586.45C3241.01 1586.45 3241.01 1586.45 3241.01 1586.45 3239.71 1586.45 3238.42 1587.75 3237.13 1587.75 3206.08 1587.75 3202.2 1487.96 3202.2 1366.15 3202.2 1360.96 3202.2 1355.78 3202.2 1351.89 3202.2 1350.6 3202.2 1349.3 3202.2 1346.71 3202.2 1344.12 3203.49 1340.23 3203.49 1336.34 3203.49 1335.05 3203.49 1333.75 3203.49 1332.45 3203.49 1328.57 3203.49 1324.68 3203.49 1322.09 3203.49 1319.5 3203.49 1318.2 3203.49 1316.9 3203.49 1314.31 3203.49 1310.42 3203.49 1307.83 3203.49 1305.24 3203.49 1303.95 3203.49 1302.65 3203.49 1300.06 3203.49 1296.17 3203.49 1293.58 3203.49 1292.28 3203.49 1290.99 3203.49 1288.39 3203.49 1285.8 3203.49 1283.21 3203.49 1280.62 3203.49 1278.03 3203.49 1276.73 3203.49 1275.44 3203.49 1272.84 3204.79 1270.25 3204.79 1266.36 3204.79 1265.07 3204.79 1263.77 3204.79 1262.48 3204.79 1259.88 3204.79 1257.29 3204.79 1254.7 3204.79 1253.41 3204.79 1252.11 3204.79 1250.81 3204.79 1246.93 3206.08 1244.33 3206.08 1241.74 3206.08 1240.45 3206.08 1239.15 3206.08 1237.85 3206.08 1235.26 3206.08 1232.67 3206.08 1230.08 3206.08 1228.78 3207.37 1228.78 3207.37 1227.49 3207.37 1224.9 3207.37 1222.3 3207.37 1219.71 3207.37 1218.42 3207.37 1217.12 3207.37 1215.82 3208.67 1214.53 3208.67 1211.94 3208.67 1209.35 3208.67 1208.05 3208.67 1206.75 3208.67 1205.46 3209.96 1204.16 3209.96 1201.57 3209.96 1200.27 3209.96 1198.98 3209.96 1197.68 3209.96 1196.39 3211.25 1195.09 3211.25 1192.5 3211.25 1191.2 3211.25 1189.91 3211.25 1188.61 3212.55 1187.31 3212.55 1186.02 3212.55 1184.72 3213.84 1182.13 3213.84 1182.13 3213.84 1180.84 3213.84 1179.54 3213.84 1179.54 3213.84 1178.24 3213.84 1178.24 3213.84 1178.24 3213.84 1178.24 3213.84 1178.24 3215.13 1176.95 3215.13 1174.36 3215.13 1173.06 3222.9 1184.72 3222.9 1184.72 3222.9 1184.72 3253.94 1184.72 3253.94 1184.72 3253.94 1184.72 3263 1170.47 3263 1170.47 3263 1170.47 3263 1170.47 3263 1170.47 3263 1170.47 3259.12 1162.69 3252.65 1154.92 3244.89 1147.14 3230.66 1134.18 3207.37 1129 3182.79 1129 3158.21 1129 3132.34 1134.18 3118.11 1148.44 3110.35 1156.21 3103.88 1163.99 3100 1173.06 3107.76 1184.72 3107.76 1184.72 3107.76 1184.72 3138.81 1184.72 3138.81 1184.72 3138.81 1184.72 3147.86 1170.47 3147.86 1170.47 3147.86 1170.47 3147.86 1169.17 3147.86 1169.17 3147.86 1169.17 3149.16 1171.76 3149.16 1173.06 3150.45 1175.65 3150.45 1175.65 3150.45 1175.65 3150.45 1175.65 3150.45 1178.24 3151.75 1182.13 3151.75 1184.72 3151.75 1184.72 3153.04 1184.72 3153.04 1184.72 3153.04 1188.61 3153.04 1191.2 3154.33 1193.79 3154.33 1193.79 3154.33 1193.79 3154.33 1195.09 3154.33 1197.68 3155.63 1200.27 3155.63 1202.87 3155.63 1204.16 3155.63 1204.16 3155.63 1204.16 3155.63 1208.05 3156.92 1210.64 3156.92 1213.23 3156.92 1214.53 3156.92 1214.53 3156.92 1215.82 3156.92 1218.42 3158.21 1221.01 3158.21 1224.9 3158.21 1224.9 3158.21 1226.19 3158.21 1226.19 3158.21 1230.08 3158.21 1232.67 3159.51 1235.26 3159.51 1236.56 3159.51 1237.85 3159.51 1237.85 3159.51 1241.74 3159.51 1244.33 3159.51 1248.22 3159.51 1248.22 3159.51 1249.52 3159.51 1250.81 3159.51 1253.41 3160.8 1257.29 3160.8 1261.18 3160.8 1261.18 3160.8 1262.48 3160.8 1263.77 3160.8 1267.66 3160.8 1270.25 3160.8 1274.14 3160.8 1275.44 3160.8 1276.73 3160.8 1276.73 3160.8 1280.62 3160.8 1284.51 3160.8 1287.1 3160.8 1288.39 3160.8 1289.69 3162.1 1290.99 3162.1 1294.87 3162.1 1297.47 3162.1 1301.35 3162.1 1302.65 3162.1 1303.95 3162.1 1305.24 3162.1 1309.13 3162.1 1313.02 3162.1 1315.61 3162.1 1316.9 3162.1 1319.5 3162.1 1320.79 3162.1 1323.38 3162.1 1327.27 3162.1 1331.16 3162.1 1332.45 3162.1 1333.75 3162.1 1335.05 3162.1 1338.93 3162.1 1342.82 3162.1 1346.71 3162.1 1348.01 3162.1 1349.3 3162.1 1350.6 3162.1 1355.78 3162.1 1360.96 3162.1 1366.15 3162.1 1487.96 3158.21 1587.75 3127.17 1587.75 3125.87 1587.75 3124.58 1586.45 3123.29 1586.45 3123.29 1586.45 3123.29 1586.45 3123.29 1586.45 3121.99 1586.45 3120.7 1586.45 3119.4 1585.15 3119.4 1585.15 3119.4 1585.15 3119.4 1585.15 3116.82 1583.86 3114.23 1581.27 3112.94 1579.97 3123.29 1592.93 3147.86 1602 3177.62 1602 3202.2 1602 3231.95 1595.52 3244.89 1585.15 3243.6 1586.45 3242.3 1586.45 3241.01 1586.45Z" fill="#FB8564" fill-rule="evenodd"/><path d="M3206 1171C3199.57 1176.19 3188 1228.05 3190.57 1292.88 3194.43 1359 3195.71 1288.99 3195.71 1288.99" fill="#FFFFFF" fill-rule="evenodd"/><path d="M3145.24 1256C3145.24 1256 3156.88 1210.64 3156.88 1213.23 3156.88 1214.53 3156.88 1214.53 3156.88 1215.82 3156.88 1218.42 3158.18 1221.01 3158.18 1224.9 3158.18 1224.9 3158.18 1226.19 3158.18 1226.19 3158.18 1230.08 3158.18 1232.67 3159.47 1235.26 3159.47 1236.56 3159.47 1237.85 3159.47 1237.85 3159.47 1241.74 3159.47 1244.33 3159.47 1248.22 3159.47 1248.22 3159.47 1249.52 3159.47 1250.81 3159.47 1253.41 3160.76 1257.29 3160.76 1261.18 3160.76 1261.18 3160.76 1262.48 3160.76 1263.77 3160.76 1267.66 3160.76 1270.25 3160.76 1274.14 3160.76 1275.44 3160.76 1276.73 3160.76 1276.73 3160.76 1280.62 3160.76 1284.51 3160.76 1287.1 3160.76 1288.39 3160.76 1289.69 3162.06 1290.99 3162.06 1294.87 3162.06 1297.47 3162.06 1301.35 3162.06 1302.65 3162.06 1303.95 3162.06 1305.24 3162.06 1309.13 3162.06 1313.02 3162.06 1315.61 3162.06 1316.9 3162.06 1319.5 3162.06 1320.79 3162.06 1323.38 3162.06 1327.27 3162.06 1331.16 3162.06 1332.45 3162.06 1333.75 3162.06 1335.05 3162.06 1338.93 3162.06 1342.82 3162.06 1346.71 3162.06 1348.01 3162.06 1349.3 3162.06 1350.6 3162.06 1355.78 3162.06 1360.96 3162.06 1366.15 3162.06 1487.96 3158.18 1587.75 3127.12 1587.75 3125.82 1587.75 3124.53 1586.45 3123.24 1586.45 3123.24 1586.45 3123.24 1586.45 3123.24 1586.45 3121.94 1586.45 3120.65 1586.45 3119.35 1585.15 3119.35 1585.15 3119.35 1585.15 3119.35 1585.15 3116.76 1583.86 3114.18 1581.27 3112.88 1579.97 3123.24 1592.93 3147.82 1602 3177.59 1602 3202.18 1602 3231.94 1595.52 3244.88 1585.15 3243.59 1586.45 3242.29 1586.45 3241 1586.45 3241 1586.45 3241 1586.45 3241 1586.45 3239.71 1586.45 3238.41 1587.75 3237.12 1587.75 3206.06 1587.75 3202.18 1487.96 3202.18 1366.15 3202.18 1360.96 3202.18 1355.78 3202.18 1351.89 3202.18 1350.6 3202.18 1349.3 3202.18 1346.71 3202.18 1344.12 3203.47 1340.23 3203.47 1336.34 3203.47 1335.05 3203.47 1333.75 3203.47 1332.45 3203.47 1328.57 3203.47 1324.68 3203.47 1322.09 3203.47 1319.5 3203.47 1318.2 3203.47 1316.9 3203.47 1314.31 3203.47 1310.42 3203.47 1307.83 3203.47 1305.24 3203.47 1303.95 3203.47 1302.65 3203.47 1300.06 3203.47 1296.17 3203.47 1293.58 3203.47 1292.28 3203.47 1290.99 3203.47 1288.39 3203.47 1285.8 3203.47 1283.21 3203.47 1280.62 3203.47 1278.03 3203.47 1276.73 3203.47 1275.44 3203.47 1272.84 3204.76 1270.25 3204.76 1266.36 3204.76 1265.07 3204.76 1263.77 3204.76 1262.48 3204.76 1259.88 3204.76 1257.29 3204.76 1254.7 3204.76 1253.41 3204.76 1252.11 3204.76 1250.81 3204.76 1246.93 3206.06 1244.33 3206.06 1241.74 3206.06 1240.45 3206.06 1239.15 3206.06 1237.85 3206.06 1235.26 3206.06 1232.67 3206.06 1230.08 3206.06 1228.78 3207.35 1228.78 3207.35 1227.49 3207.35 1224.9 3207.35 1222.3 3207.35 1219.71 3207.35 1218.42 3207.35 1217.12 3207.35 1215.82 3208.65 1214.53 3208.65 1211.94 3208.65 1209.35 3208.65 1208.05 3208.65 1206.75 3208.65 1205.46 3209.94 1204.16 3209.94 1201.57 3209.94 1200.27 3209.94 1198.98 3209.94 1197.68 3209.94 1196.39 3211.24 1195.09 3211.24 1192.5 3211.24 1191.2 3211.24 1189.91 3211.24 1188.61 3212.53 1187.31 3212.53 1186.02 3212.53 1184.72 3213.82 1182.13 3213.82 1182.13 3213.82 1180.84 3213.82 1179.54 3213.82 1179.54 3213.82 1178.24 3213.82 1178.24 3213.82 1178.24 3213.82 1178.24 3213.82 1178.24 3215.12 1176.95 3215.12 1174.36 3215.12 1173.06 3222.88 1184.72 3222.88 1184.72 3222.88 1184.72 3253.94 1184.72 3253.94 1184.72 3253.94 1184.72 3263 1170.47 3263 1170.47 3263 1170.47 3263 1170.47 3263 1170.47 3263 1170.47 3259.12 1162.69 3252.65 1154.92 3244.88 1147.14 3230.65 1134.18 3207.35 1129 3182.76 1129 3158.18 1129 3132.29 1134.18 3118.06 1148.44 3110.29 1156.21 3103.82 1163.99 3099.94 1173.06 3097.35 1178.24 3089.59 1193.79 3088.29 1211.94 3087 1230.08 3107.71 1254.7 3107.71 1254.7M3211.24 1158.81C3207.35 1162.69 3206.06 1165.28 3204.76 1170.47 3203.47 1174.36 3203.47 1174.36 3203.47 1174.36 3203.47 1175.65 3203.47 1175.65 3203.47 1175.65 3203.47 1175.65 3202.18 1176.95 3202.18 1176.95 3202.18 1179.54 3202.18 1179.54 3202.18 1179.54 3202.18 1179.54 3200.88 1186.02 3200.88 1186.02 3200.88 1186.02 3200.88 1187.31 3200.88 1187.31 3199.59 1188.61 3199.59 1188.61 3199.59 1188.61 3199.59 1188.61 3199.59 1195.09 3199.59 1195.09 3198.29 1197.68 3198.29 1197.68 3198.29 1197.68 3198.29 1197.68 3198.29 1204.16 3198.29 1204.16 3197 1208.05 3197 1208.05 3197 1208.05 3197 1214.53 3197 1214.53 3197 1214.53 3197 1214.53 3195.71 1218.42 3195.71 1218.42 3195.71 1226.19 3195.71 1226.19 3195.71 1226.19 3195.71 1226.19 3194.41 1230.08 3194.41 1230.08 3194.41 1230.08 3194.41 1237.85 3194.41 1237.85 3194.41 1241.74 3194.41 1241.74 3194.41 1241.74 3194.41 1241.74 3193.12 1250.81 3193.12 1250.81 3193.12 1253.41 3193.12 1253.41 3193.12 1253.41 3193.12 1263.77 3193.12 1263.77 3193.12 1263.77 3193.12 1266.36 3193.12 1266.36 3193.12 1266.36 3193.12 1266.36 3191.82 1279.32 3191.82 1279.32 3191.82 1293.58 3191.82 1293.58 3191.82 1293.58 3191.82 1293.58 3191.82 1307.83 3191.82 1307.83 3191.82 1307.83 3191.82 1322.09 3191.82 1322.09 3191.82 1336.34 3191.82 1336.34 3191.82 1336.34 3191.82 1336.34 3191.82 1351.89 3191.82 1351.89 3191.82 1366.15 3191.82 1366.15 3191.82 1366.15 3191.82 1476.3 3194.41 1546.28 3209.94 1578.67 3211.24 1581.27 3199.59 1587.75 3189.24 1587.75 3178.88 1587.75 3153 1581.27 3155.59 1577.38 3169.82 1544.98 3173.71 1476.3 3173.71 1366.15 3173.71 1346.71 3173.71 1346.71 3173.71 1346.71 3173.71 1346.71 3173.71 1335.05 3173.71 1335.05 3173.71 1335.05 3173.71 1320.79 3173.71 1320.79 3173.71 1320.79 3173.71 1305.24 3173.71 1305.24 3172.41 1290.99 3172.41 1290.99 3172.41 1290.99 3172.41 1287.1 3172.41 1287.1 3172.41 1287.1 3172.41 1287.1 3172.41 1276.73 3172.41 1276.73 3172.41 1272.84 3172.41 1272.84 3172.41 1272.84 3172.41 1272.84 3172.41 1263.77 3172.41 1263.77 3172.41 1263.77 3172.41 1261.18 3172.41 1261.18 3171.12 1250.81 3171.12 1250.81 3171.12 1250.81 3171.12 1246.93 3171.12 1246.93 3171.12 1246.93 3171.12 1237.85 3171.12 1237.85 3171.12 1237.85 3171.12 1237.85 3169.82 1235.26 3169.82 1235.26 3169.82 1224.9 3169.82 1224.9 3169.82 1224.9 3169.82 1224.9 3169.82 1223.6 3169.82 1223.6 3168.53 1214.53 3168.53 1214.53 3168.53 1214.53 3168.53 1213.23 3168.53 1211.94 3168.53 1211.94 3168.53 1211.94 3167.24 1202.87 3167.24 1202.87 3167.24 1202.87 3167.24 1201.57 3167.24 1201.57 3167.24 1201.57 3165.94 1192.5 3165.94 1192.5 3165.94 1192.5 3165.94 1191.2 3165.94 1191.2 3165.94 1191.2 3163.35 1183.43 3163.35 1183.43 3163.35 1182.13 3160.76 1173.06 3160.76 1173.06 3160.76 1173.06 3159.47 1165.28 3159.47 1165.28 3158.18 1161.4 3154.29 1158.81 3149.12 1157.51 3145.24 1157.51 3153 1144.55 3177.59 1144.55 3197 1144.55 3206.06 1145.85 3215.12 1153.62 3215.12 1154.92 3215.12 1156.21 3211.24 1158.81Z" fill="#FB5643" fill-rule="evenodd"/><path d="M3157.32 1207.29C3140.46 1237.08 3140.46 1237.08 3140.46 1237.08 3106.73 1237.08 3106.73 1237.08 3106.73 1237.08 3089.86 1207.29 3089.86 1207.29 3089.86 1207.29 3088.57 1206 3088.57 1206 3088.57 1206 3084.68 1220.24 3082.08 1235.78 3078.19 1255.21 3074.3 1287.58 3073 1440.38 3078.19 1471.46 3087.27 1540.09 3105.43 1588 3127.49 1588 3158.62 1588 3169 1488.29 3169 1366.57 3169 1304.41 3163.81 1247.44 3157.32 1207.29Z" fill="#FCAB8E" fill-rule="evenodd"/><path d="M3083.67 1253.59C3078.33 1285.99 3077 1438.94 3082.33 1471.34 3085 1489.48 3090.33 1503.74 3093 1518 3093 1518 3093 1518 3093 1518 3090.33 1505.04 3090.33 1486.89 3087.67 1470.04 3086.33 1454.49 3086.33 1413.01 3086.33 1368.94 3086.33 1320.99 3085 1270.44 3087.67 1254.88 3090.33 1236.74 3086.33 1230.26 3090.33 1216 3090.33 1216 3090.33 1216 3090.33 1216 3086.33 1230.26 3086.33 1235.44 3083.67 1253.59Z" fill="#FFFFFF" fill-rule="evenodd"/><path d="M3161.11 1235.24C3158.47 1208 3158.47 1235.24 3157.16 1241.72 3155.84 1272.85 3149.26 1310.46 3149.26 1340.29 3149.26 1462.2 3146.63 1560.76 3113.74 1560.76 3107.16 1560.76 3099.26 1555.58 3094 1546.5 3103.21 1572.44 3115.05 1588 3126.89 1588 3158.47 1588 3169 1488.14 3169 1366.23 3169 1316.94 3166.37 1271.55 3161.11 1235.24Z" fill="#FB9274" fill-rule="evenodd"/><path d="M3160.48 1234C3163.09 1272.9 3164.39 1331.25 3164.39 1371.45 3164.39 1477.78 3155.27 1586.7 3125.3 1586.7 3124 1588 3124 1588 3124 1588 3155.27 1588 3167 1507.6 3167 1366.26 3167 1326.07 3163.09 1272.9 3160.48 1234Z" fill="#FFFFFF" fill-rule="evenodd"/><path d="M3262.67 1169.83C3272.97 1189.25 3280.7 1219.03 3285.85 1255.28 3291 1287.64 3291 1440.41 3287.14 1471.48 3278.12 1540.1 3258.81 1588 3236.92 1588 3206.01 1588 3197 1488.31 3197 1366.62 3197 1283.76 3204.73 1211.26 3215.03 1173.71 3218.89 1160.77 3229.19 1153 3238.21 1153 3248.51 1153 3258.81 1160.77 3262.67 1169.83Z" fill="#FCAB8E" fill-rule="evenodd"/><path d="M3202 1366.44C3202 1414.19 3207 1470.99 3210.75 1511 3210.75 1511 3210.75 1511 3210.75 1511 3207 1470.99 3207 1415.48 3207 1366.44 3207 1317.39 3208.25 1259.3 3212 1218 3212 1218 3212 1218 3212 1218 3208.25 1259.3 3202 1316.1 3202 1366.44Z" fill="#FFFFFF" fill-rule="evenodd"/><path d="M3284.86 1267.67C3279.71 1233.99 3274.57 1195.13 3265.57 1177 3264.29 1177 3264.29 1177 3264.29 1177 3264.29 1177 3264.29 1177 3264.29 1177 3269.43 1193.84 3272 1221.04 3274.57 1243.06 3279.71 1275.44 3279.71 1425.69 3275.86 1454.18 3266.86 1520.24 3248.86 1565.57 3228.29 1565.57 3224.43 1565.57 3221.86 1562.98 3218 1560.39 3223.14 1575.93 3229.57 1585 3238.57 1585 3259.14 1585 3277.14 1539.67 3286.14 1474.9 3290 1445.11 3290 1298.75 3284.86 1267.67Z" fill="#FB9274" fill-rule="evenodd"/><path d="M3150.46 1151C3142.68 1153.6 3138.78 1162.7 3136.19 1169.2 3132.3 1177 3131 1179.6 3134.89 1187.4 3138.78 1199.1 3143.97 1192.6 3154.35 1192.6 3164.73 1192.6 3164.73 1199.1 3171.22 1203 3179 1191.3 3175.11 1167.9 3175.11 1153.6" fill="#FB8564" fill-rule="evenodd"/><path d="M3150.5 1579.5C3154.38 1586.17 3172.46 1587.5 3184.08 1587.5 3194.42 1587.5 3207.33 1584.83 3212.5 1580.83" stroke="#333333" stroke-width="2.86476" stroke-linecap="round" stroke-linejoin="round" stroke-miterlimit="10" fill="none" fill-rule="evenodd"/><path d="M3263.5 1171.1C3263.5 1171.1 3263.5 1171.1 3263.5 1171.1 3259.63 1163.3 3253.17 1155.5 3245.43 1147.7 3231.22 1134.7 3207.99 1129.5 3183.46 1129.5 3158.93 1129.5 3133.1 1134.7 3118.9 1149 3111.16 1156.8 3105.99 1164.6 3102.12 1172.4 3094.37 1185.4 3091.79 1198.4 3090.5 1207.5" stroke="#333333" stroke-width="2.86476" stroke-linecap="round" stroke-linejoin="round" stroke-miterlimit="10" fill="none" fill-rule="evenodd"/><path d="M3113.5 1580.5C3123.85 1593.44 3148.44 1602.5 3178.21 1602.5 3202.79 1602.5 3232.56 1596.03 3245.5 1585.68" stroke="#333333" stroke-width="2.86476" stroke-linecap="round" stroke-linejoin="round" stroke-miterlimit="10" fill="none" fill-rule="evenodd"/><path d="M3148 1151.67C3148 1153 3148 1153 3148 1153 3154.44 1146.33 3164.75 1143.67 3177.63 1143.67 3189.23 1143.67 3208.56 1146.33 3213.71 1151.67 3215 1151.67 3215 1151.67 3215 1151.67 3207.27 1145 3193.1 1141 3180.21 1141 3166.04 1141 3154.44 1145 3148 1151.67Z" fill="#FFFFFF" fill-rule="evenodd"/><path d="M3216.5 1154.5C3210.11 1147.63 3192.22 1143.5 3179.44 1143.5 3166.67 1143.5 3152.61 1147.63 3147.5 1154.5" stroke="#333333" stroke-width="2.86476" stroke-linecap="round" stroke-linejoin="round" stroke-miterlimit="10" fill="none" fill-rule="evenodd"/><path d="M3263.17 1170.33C3273.47 1189.75 3281.2 1219.53 3286.35 1255.78 3291.5 1288.14 3291.5 1440.91 3287.64 1471.98 3278.62 1540.6 3259.31 1588.5 3237.42 1588.5 3206.51 1588.5 3197.5 1488.81 3197.5 1367.12 3197.5 1284.26 3205.23 1211.76 3215.53 1174.21 3219.39 1161.27 3229.69 1153.5 3238.71 1153.5 3249.01 1153.5 3259.31 1161.27 3263.17 1170.33Z" stroke="#333333" stroke-width="2.86476" stroke-linecap="round" stroke-linejoin="round" stroke-miterlimit="10" fill="none" fill-rule="evenodd"/><path d="M3157.82 1207.8C3140.96 1237.58 3140.96 1237.58 3140.96 1237.58 3107.23 1237.58 3107.23 1237.58 3107.23 1237.58 3090.36 1207.8 3090.36 1207.8 3090.36 1207.8 3089.07 1206.5 3089.07 1206.5 3089.07 1206.5 3085.18 1220.74 3082.58 1236.28 3078.69 1255.71 3074.8 1288.08 3073.5 1440.88 3078.69 1471.96 3087.77 1540.59 3105.93 1588.5 3127.99 1588.5 3159.12 1588.5 3169.5 1488.79 3169.5 1367.07 3169.5 1304.91 3164.31 1247.94 3157.82 1207.8Z" stroke="#333333" stroke-width="2.86476" stroke-linecap="round" stroke-linejoin="round" stroke-miterlimit="10" fill="none" fill-rule="evenodd"/></g></svg>