<svg width="194" height="476" xmlns="http://www.w3.org/2000/svg" xmlns:xlink="http://www.w3.org/1999/xlink" xml:space="preserve" overflow="hidden"><g transform="translate(-3357 -1128)"><path d="M3448.93 1204.16C3439.92 1219.71 3439.92 1219.71 3439.92 1219.71 3434.77 1230.08 3434.77 1230.08 3434.77 1230.08 3425.77 1243.04 3425.77 1243.04 3425.77 1243.04 3412.9 1246.93 3412.9 1246.93 3412.9 1246.93 3388.44 1250.81 3388.44 1250.81 3388.44 1250.81 3378.15 1232.67 3378.15 1232.67 3378.15 1232.67 3373 1206.75 3373 1206.75 3373 1206.75 3373 1206.75 3379.43 1183.43 3384.58 1173.06 3388.44 1163.99 3394.88 1156.21 3402.6 1148.44 3416.76 1134.18 3429.63 1129 3454.08 1129 3478.53 1129 3488.83 1134.18 3502.98 1147.14 3510.7 1154.92 3517.14 1162.69 3521 1170.47 3519.71 1170.47 3519.71 1170.47 3519.71 1170.47 3511.99 1184.72 3511.99 1184.72 3511.99 1184.72 3479.82 1184.72 3479.82 1184.72 3479.82 1184.72 3473.38 1173.06 3473.38 1173.06 3473.38 1173.06 3473.38 1174.36 3472.1 1176.95 3472.1 1178.24 3472.1 1178.24 3472.1 1178.24 3472.1 1178.24 3472.1 1178.24 3472.1 1179.54 3472.1 1179.54 3472.1 1180.84 3470.81 1182.13 3470.81 1182.13 3470.81 1184.72 3470.81 1186.02 3469.52 1187.31 3469.52 1188.61 3469.52 1189.91 3469.52 1191.2 3469.52 1192.5 3468.23 1195.09 3468.23 1196.39 3468.23 1197.68 3468.23 1198.98 3468.23 1200.27 3466.95 1201.57 3466.95 1204.16 3466.95 1205.46 3466.95 1206.75 3466.95 1208.05 3466.95 1209.35 3465.66 1211.94 3465.66 1214.53 3465.66 1215.82 3465.66 1217.12 3465.66 1218.42 3465.66 1219.71 3465.66 1222.3 3464.37 1224.9 3464.37 1227.49 3464.37 1228.78 3464.37 1228.78 3464.37 1230.08 3464.37 1232.67 3464.37 1235.26 3464.37 1237.85 3464.37 1239.15 3463.09 1240.45 3463.09 1241.74 3463.09 1244.33 3463.09 1246.93 3463.09 1250.81 3463.09 1252.11 3463.09 1253.41 3463.09 1254.7 3463.09 1257.29 3463.09 1259.88 3463.09 1262.48 3461.8 1263.77 3461.8 1265.07 3461.8 1266.36 3461.8 1270.25 3461.8 1272.84 3461.8 1275.44 3461.8 1276.73 3461.8 1278.03 3461.8 1280.62 3461.8 1283.21 3461.8 1285.8 3461.8 1288.39 3461.8 1290.99 3461.8 1292.28 3461.8 1293.58 3461.8 1296.17 3461.8 1300.06 3461.8 1302.65 3461.8 1303.95 3460.51 1305.24 3460.51 1307.83 3460.51 1310.42 3460.51 1314.31 3460.51 1316.9 3460.51 1318.2 3460.51 1319.5 3460.51 1322.09 3460.51 1324.68 3460.51 1328.57 3460.51 1332.45 3460.51 1333.75 3460.51 1335.05 3460.51 1336.34 3460.51 1340.23 3460.51 1344.12 3460.51 1346.71 3460.51 1349.3 3460.51 1350.6 3460.51 1351.89 3460.51 1355.78 3460.51 1360.96 3460.51 1366.15 3460.51 1487.96 3464.37 1587.75 3495.26 1587.75 3496.55 1587.75 3497.83 1586.45 3499.12 1586.45 3499.12 1586.45 3499.12 1586.45 3499.12 1586.45 3500.41 1586.45 3501.7 1586.45 3502.98 1585.15 3490.11 1595.52 3479.82 1602 3455.36 1602 3427.05 1602 3407.75 1592.93 3397.45 1579.97 3398.74 1581.27 3401.31 1583.86 3403.89 1585.15 3403.89 1585.15 3403.89 1585.15 3403.89 1585.15 3405.17 1586.45 3406.46 1586.45 3407.75 1586.45 3407.75 1586.45 3407.75 1586.45 3407.75 1586.45 3409.03 1586.45 3410.32 1587.75 3411.61 1587.75 3442.5 1587.75 3446.36 1487.96 3446.36 1366.15 3446.36 1360.96 3446.36 1355.78 3446.36 1350.6 3446.36 1349.3 3446.36 1348.01 3446.36 1346.71 3446.36 1342.82 3446.36 1338.93 3446.36 1335.05 3446.36 1333.75 3446.36 1332.45 3446.36 1331.16 3446.36 1327.27 3446.36 1323.38 3446.36 1320.79 3446.36 1319.5 3446.36 1316.9 3446.36 1315.61 3446.36 1313.02 3446.36 1309.13 3446.36 1305.24 3446.36 1303.95 3446.36 1302.65 3446.36 1301.35 3446.36 1297.47 3446.36 1294.87 3446.36 1290.99 3446.36 1289.69 3446.36 1288.39 3446.36 1287.1 3445.07 1284.51 3445.07 1280.62 3445.07 1276.73 3445.07 1276.73 3445.07 1275.44 3445.07 1274.14 3445.07 1270.25 3445.07 1267.66 3445.07 1263.77 3445.07 1262.48 3445.07 1261.18 3445.07 1261.18 3445.07 1257.29 3445.07 1253.41 3443.78 1250.81 3443.78 1249.52 3443.78 1248.22 3443.78 1248.22 3443.78 1244.33 3443.78 1241.74 3443.78 1237.85 3443.78 1237.85 3443.78 1236.56 3443.78 1235.26 3442.5 1232.67 3442.5 1230.08 3442.5 1226.19 3442.5 1226.19 3442.5 1224.9 3442.5 1224.9 3442.5 1221.01 3441.21 1218.42 3441.21 1215.82 3441.21 1214.53 3441.21 1214.53 3441.21 1214.53" fill="#FB5643" fill-rule="evenodd"/><path d="M3441.32 1207.29C3424.46 1237.08 3424.46 1237.08 3424.46 1237.08 3390.73 1237.08 3390.73 1237.08 3390.73 1237.08 3373.86 1207.29 3373.86 1207.29 3373.86 1207.29 3372.57 1206 3372.57 1206 3372.57 1206 3368.68 1220.24 3366.08 1235.78 3363.49 1255.21 3358.3 1287.58 3357 1440.38 3362.19 1471.46 3371.27 1540.09 3390.73 1588 3411.49 1588 3442.62 1588 3453 1488.29 3453 1366.57 3453 1304.41 3449.11 1247.44 3441.32 1207.29Z" fill="#FCAB8E" fill-rule="evenodd"/><path d="M3368.67 1253.59C3363.33 1285.99 3362 1438.94 3367.33 1471.34 3370 1489.48 3375.33 1503.74 3378 1518 3378 1518 3378 1518 3378 1518 3375.33 1505.04 3375.33 1486.89 3372.67 1470.04 3371.33 1454.49 3371.33 1413.01 3371.33 1368.94 3371.33 1320.99 3370 1270.44 3372.67 1254.88 3375.33 1236.74 3371.33 1230.26 3375.33 1216 3375.33 1216 3375.33 1216 3375.33 1216 3371.33 1230.26 3371.33 1235.44 3368.67 1253.59Z" fill="#FFFFFF" fill-rule="evenodd"/><path d="M3445.21 1235.24C3442.61 1208 3442.61 1235.24 3441.32 1241.72 3440.02 1272.85 3434.82 1310.46 3434.82 1340.29 3434.82 1462.2 3430.93 1560.76 3399.77 1560.76 3391.98 1560.76 3385.49 1555.58 3379 1546.5 3388.09 1572.44 3399.77 1588 3411.46 1588 3442.61 1588 3453 1488.14 3453 1366.23 3453 1316.94 3450.4 1271.55 3445.21 1235.24Z" fill="#FB9274" fill-rule="evenodd"/><path d="M3446.79 1234C3449.39 1272.9 3449.39 1331.25 3449.39 1371.45 3449.39 1477.78 3440.27 1586.7 3410.3 1586.7 3409 1588 3409 1588 3409 1588 3440.27 1588 3452 1507.6 3452 1366.26 3452 1326.07 3448.09 1272.9 3445.48 1234L3446.79 1234Z" fill="#FFFFFF" fill-rule="evenodd"/><path d="M3521.37 1169.83C3530.48 1189.25 3539.59 1219.03 3544.79 1255.28 3550 1287.64 3550 1440.41 3546.1 1471.48 3535.68 1540.1 3517.47 1588 3495.34 1588 3464.11 1588 3455 1488.31 3455 1366.62 3455 1283.76 3461.51 1211.26 3473.22 1173.71 3475.82 1160.77 3486.23 1153 3496.64 1153 3507.05 1153 3516.16 1160.77 3521.37 1169.83Z" fill="#FCAB8E" fill-rule="evenodd"/><path d="M3460 1366.44C3460 1414.19 3464.12 1470.99 3469.62 1511 3469.62 1511 3469.62 1511 3469.62 1511 3465.5 1470.99 3465.5 1415.48 3465.5 1366.44 3465.5 1317.39 3465.5 1259.3 3471 1218 3471 1218 3471 1218 3471 1218 3465.5 1259.3 3460 1316.1 3460 1366.44Z" fill="#FFFFFF" fill-rule="evenodd"/><path d="M3543.79 1267.67C3538.57 1233.99 3532.05 1195.13 3522.93 1177 3522.93 1177 3522.93 1177 3522.93 1177 3522.93 1177 3522.93 1177 3522.93 1177 3528.14 1193.84 3529.45 1221.04 3533.36 1243.06 3538.57 1275.44 3538.57 1425.69 3533.36 1454.18 3524.23 1520.24 3507.29 1565.57 3486.43 1565.57 3482.52 1565.57 3478.61 1562.98 3476 1560.39 3481.21 1575.93 3487.73 1585 3496.86 1585 3517.71 1585 3534.66 1539.67 3543.79 1474.9 3549 1445.11 3547.7 1298.75 3543.79 1267.67Z" fill="#FB9274" fill-rule="evenodd"/><path d="M3471.68 1161.84C3466.63 1163.13 3462.84 1165.73 3461.58 1170.91 3461.58 1174.79 3461.58 1174.79 3461.58 1174.79 3460.32 1176.09 3460.32 1176.09 3460.32 1176.09 3460.32 1176.09 3460.32 1177.38 3460.32 1177.38 3460.32 1179.97 3460.32 1179.97 3460.32 1179.97 3460.32 1179.97 3459.05 1186.45 3459.05 1186.45 3459.05 1186.45 3457.79 1187.75 3457.79 1187.75 3457.79 1189.04 3457.79 1189.04 3457.79 1189.04 3457.79 1189.04 3456.53 1195.52 3456.53 1195.52 3456.53 1198.11 3456.53 1198.11 3456.53 1198.11 3456.53 1198.11 3455.26 1204.58 3455.26 1204.58 3455.26 1208.47 3455.26 1208.47 3455.26 1208.47 3454 1214.95 3454 1214.95 3454 1214.95 3454 1214.95 3454 1218.83 3454 1218.83 3456.53 1226.61 3456.53 1226.61 3456.53 1226.61 3456.53 1226.61 3455.26 1230.49 3455.26 1230.49 3455.26 1230.49 3455.26 1238.26 3455.26 1238.26 3455.26 1242.15 3455.26 1242.15 3455.26 1242.15 3455.26 1242.15 3454 1251.22 3454 1251.22 3454 1253.81 3454 1253.81 3454 1253.81 3454 1264.17 3454 1264.17 3454 1264.17 3454 1266.76 3454 1266.76 3454 1266.76 3454 1266.76 3456.53 1279.71 3456.53 1279.71 3455.26 1293.96 3455.26 1293.96 3455.26 1293.96 3455.26 1293.96 3455.26 1308.21 3455.26 1308.21 3455.26 1308.21 3455.26 1322.46 3455.26 1322.46 3455.26 1336.71 3455.26 1336.71 3455.26 1336.71 3455.26 1336.71 3455.26 1352.25 3455.26 1352.25 3455.26 1366.5 3455.26 1366.5 3455.26 1366.5 3455.26 1476.6 3452.74 1546.55 3467.89 1578.93 3469.16 1581.52 3465.37 1588 3455.26 1588 3445.16 1588 3437.58 1581.52 3440.11 1577.64 3455.26 1545.25 3455.26 1476.6 3455.26 1366.5 3455.26 1347.07 3455.26 1347.07 3455.26 1347.07 3455.26 1347.07 3455.26 1335.41 3455.26 1335.41 3455.26 1335.41 3455.26 1321.16 3455.26 1321.16 3455.26 1321.16 3455.26 1305.62 3455.26 1305.62 3454 1291.37 3454 1291.37 3454 1291.37 3454 1287.49 3454 1287.49 3454 1287.49 3454 1287.49 3454 1277.12 3454 1277.12 3454 1273.24 3454 1273.24 3454 1273.24 3454 1273.24 3454 1264.17 3454 1264.17 3454 1264.17 3456.53 1261.58 3456.53 1261.58 3455.26 1251.22 3455.26 1251.22 3455.26 1251.22 3455.26 1247.33 3455.26 1247.33 3455.26 1247.33 3455.26 1238.26 3455.26 1238.26 3455.26 1238.26 3455.26 1238.26 3455.26 1235.67 3455.26 1235.67 3454 1225.31 3454 1225.31 3454 1225.31 3454 1225.31 3454 1224.01 3454 1224.01 3452.74 1214.95 3452.74 1214.95 3452.74 1214.95 3452.74 1213.65 3452.74 1212.36 3452.74 1212.36 3452.74 1212.36 3451.47 1203.29 3451.47 1203.29 3451.47 1203.29 3451.47 1201.99 3451.47 1201.99 3451.47 1201.99 3450.21 1192.93 3450.21 1192.93 3450.21 1192.93 3450.21 1191.63 3450.21 1191.63 3450.21 1191.63 3447.68 1183.86 3447.68 1183.86 3447.68 1182.56 3446.42 1173.5 3446.42 1173.5 3445.16 1173.5 3443.89 1165.73 3443.89 1165.73 3442.63 1161.84 3438.84 1159.25 3433.79 1157.95 3430 1157.95 3432.53 1145 3455.26 1145 3475.47 1145 3467.89 1150.18 3476.74 1157.95 3478 1159.25 3475.47 1161.84 3471.68 1161.84Z" fill="#FB5643" fill-rule="evenodd"/><path d="M3447.67 1142C3434.85 1142 3431 1152.41 3439.97 1170.63 3448.95 1188.85 3450.23 1221.38 3452.79 1237 3457.92 1214.88 3461.77 1194.05 3463.05 1181.04 3465.62 1162.82 3481 1143.3 3456.64 1143.3" fill="#FB8564" fill-rule="evenodd"/><path d="M3454.08 1588C3467.15 1588 3475 1580.2 3465.85 1562 3456.69 1542.5 3458 1499.6 3455.38 1484 3454.08 1500.9 3448.85 1543.8 3443.62 1556.8 3439.69 1571.1 3424 1585.4 3454.08 1588" fill="#FB8564" fill-rule="evenodd"/><path d="M3433.76 1151C3425.94 1158.76 3419.42 1166.53 3414.21 1176.88 3412.91 1179.47 3409 1185.94 3410.3 1188.53 3410.3 1195 3412.91 1192.41 3416.82 1192.41 3419.42 1192.41 3425.94 1193.71 3428.55 1192.41 3432.45 1191.12 3436.36 1183.35 3441.58 1180.76 3444.18 1178.18 3449.39 1176.88 3450.7 1174.29 3452 1170.41 3445.48 1166.53 3449.39 1162.65" fill="#FB8564" fill-rule="evenodd"/><path d="M3521.87 1170.33C3530.98 1189.75 3540.09 1219.53 3545.29 1255.78 3550.5 1288.14 3550.5 1440.91 3546.6 1471.98 3536.18 1540.6 3517.97 1588.5 3495.84 1588.5 3464.61 1588.5 3455.5 1488.81 3455.5 1367.12 3455.5 1284.26 3462.01 1211.76 3473.72 1174.21 3476.32 1161.27 3486.73 1153.5 3497.14 1153.5 3507.55 1153.5 3516.66 1161.27 3521.87 1170.33Z" stroke="#333333" stroke-width="2.86476" stroke-linecap="round" stroke-linejoin="round" stroke-miterlimit="10" fill="none" fill-rule="evenodd"/><path d="M3435.5 1579.5C3440.64 1586.17 3444.5 1587.5 3456.07 1587.5 3466.36 1587.5 3466.36 1584.83 3471.5 1580.83" stroke="#333333" stroke-width="2.86476" stroke-linecap="round" stroke-linejoin="round" stroke-miterlimit="10" fill="none" fill-rule="evenodd"/><path d="M3441.82 1207.8C3424.96 1237.58 3424.96 1237.58 3424.96 1237.58 3391.23 1237.58 3391.23 1237.58 3391.23 1237.58 3374.36 1207.8 3374.36 1207.8 3374.36 1207.8 3373.07 1206.5 3373.07 1206.5 3373.07 1206.5 3369.18 1220.74 3366.58 1236.28 3363.99 1255.71 3358.8 1288.08 3357.5 1440.88 3362.69 1471.96 3371.77 1540.59 3391.23 1588.5 3411.99 1588.5 3443.12 1588.5 3453.5 1488.79 3453.5 1367.07 3453.5 1304.91 3449.61 1247.94 3441.82 1207.8Z" stroke="#333333" stroke-width="2.86476" stroke-linecap="round" stroke-linejoin="round" stroke-miterlimit="10" fill="none" fill-rule="evenodd"/><path d="M3432 1151.67C3432 1153 3432 1153 3432 1153 3438.43 1146.33 3443.57 1143.67 3455.14 1143.67 3466.71 1143.67 3470.57 1146.33 3477 1151.67 3477 1151.67 3477 1151.67 3477 1151.67 3470.57 1146.33 3469.29 1141 3456.43 1141 3442.29 1141 3438.43 1145 3432 1151.67Z" fill="#FFFFFF" fill-rule="evenodd"/><path d="M3477.5 1154.5C3472.39 1147.63 3466 1143.5 3455.78 1143.5 3445.56 1143.5 3437.89 1147.63 3431.5 1154.5" stroke="#333333" stroke-width="2.86476" stroke-linecap="round" stroke-linejoin="round" stroke-miterlimit="10" fill="none" fill-rule="evenodd"/><path d="M3397.5 1580.5C3407.84 1593.44 3427.23 1602.5 3455.67 1602.5 3480.23 1602.5 3490.57 1596.03 3503.5 1585.68" stroke="#333333" stroke-width="2.86476" stroke-linecap="round" stroke-linejoin="round" stroke-miterlimit="10" fill="none" fill-rule="evenodd"/><path d="M3521.5 1171.1C3517.64 1163.3 3511.2 1155.5 3503.48 1147.7 3489.33 1134.7 3479.03 1129.5 3454.58 1129.5 3430.13 1129.5 3417.26 1134.7 3403.1 1149 3395.38 1156.8 3388.94 1164.6 3385.08 1173.7 3379.93 1184.1 3373.5 1207.5 3373.5 1207.5" stroke="#333333" stroke-width="2.86476" stroke-linecap="round" stroke-linejoin="round" stroke-miterlimit="10" fill="none" fill-rule="evenodd"/></g></svg>