<svg width="226" height="506" xmlns="http://www.w3.org/2000/svg" xmlns:xlink="http://www.w3.org/1999/xlink" xml:space="preserve" overflow="hidden"><g transform="translate(-1598 -1719)"><path d="M1676 1740.5C1676 1729.18 1696.15 1720 1721 1720 1745.85 1720 1766 1729.18 1766 1740.5 1766 1751.82 1745.85 1761 1721 1761 1696.15 1761 1676 1751.82 1676 1740.5Z" fill="#DFA9A0" fill-rule="evenodd"/><path d="M1746.31 1728C1751.54 1730.52 1754.15 1733.04 1754.15 1736.83 1754.15 1745.65 1737.15 1753.22 1716.23 1753.22 1708.38 1753.22 1700.54 1751.96 1694 1750.7 1700.54 1754.48 1712.31 1757 1725.38 1757 1745 1757 1762 1750.7 1762 1740.61 1762 1735.57 1755.46 1730.52 1746.31 1728Z" fill="#FFFFFF" fill-rule="evenodd"/><path d="M1731.29 1781.13C1731.29 1770.77 1746.71 1763.01 1766 1760.42 1766 1741 1766 1741 1766 1741 1766 1752.65 1746.71 1761.71 1721 1761.71 1696.57 1761.71 1676 1752.65 1676 1741 1676 1765.59 1676 1765.59 1676 1765.59 1685 1769.48 1690.14 1774.66 1690.14 1781.13 1690.14 2178.53 1690.14 2178.53 1690.14 2178.53 1699.14 2182.41 1709.43 2185 1721 2185 1724.86 2185 1728.71 2183.71 1731.29 2183.71L1731.29 1781.13Z" fill="#C15555" fill-rule="evenodd"/><path d="M1707 1771.61C1712.14 1771.61 1717.29 1772.92 1717.29 1789.88 1717.29 1806.85 1721.14 1846 1721.14 1846 1723.71 1839.47 1723.71 1839.47 1723.71 1839.47 1725 1775.53 1725 1775.53 1725 1775.53 1721.14 1770.3 1721.14 1770.3 1721.14 1770.3 1710.86 1769 1710.86 1769 1710.86 1769" fill="#FFFFFF" fill-rule="evenodd"/><path d="M1766 1760.42C1766 1741 1766 1741 1766 1741 1766 1752.65 1746.71 1761.71 1721 1761.71 1696.57 1761.71 1676 1752.65 1676 1741 1676 1765.59 1676 1765.59 1676 1765.59 1685 1769.48 1690.14 1774.66 1690.14 1781.13 1690.14 2178.53 1690.14 2178.53 1690.14 2178.53 1699.14 2182.41 1709.43 2185 1721 2185 1724.86 2185 1728.71 2183.71 1731.29 2183.71 1731.29 1781.13 1731.29 1781.13 1731.29 1781.13 1731.29 1770.77 1746.71 1763.01 1766 1760.42ZM1721 1781.13C1721 1781.13 1721 2096.98 1721 2161.7 1721 2168.17 1717.14 2173.35 1714.57 2173.35 1712 2173.35 1710.71 2173.35 1708.14 2172.06 1705.57 2172.06 1700.43 2165.58 1700.43 2160.41 1700.43 2100.86 1700.43 1781.13 1700.43 1781.13 1700.43 1777.24 1703 1770.77 1705.57 1770.77 1708.14 1772.07 1712 1772.07 1715.86 1772.07 1718.43 1772.07 1721 1777.24 1721 1781.13Z" fill="#B4323A" fill-rule="evenodd"/><path d="M1731 1781C1731 1769.4 1751.37 1760 1776.5 1760 1801.63 1760 1822 1769.4 1822 1781 1822 1792.6 1801.63 1802 1776.5 1802 1751.37 1802 1731 1792.6 1731 1781Z" fill="#DFA9A0" fill-rule="evenodd"/><path d="M1801.31 1765C1805.23 1767.58 1807.85 1771.46 1807.85 1775.33 1807.85 1784.38 1790.85 1792.13 1771.23 1792.13 1762.08 1792.13 1754.23 1790.83 1749 1788.25 1755.54 1793.42 1766 1796 1779.08 1796 1800 1796 1817 1788.25 1817 1779.21 1817 1772.75 1810.46 1767.58 1801.31 1765Z" fill="#FFFFFF" fill-rule="evenodd"/><path d="M1731.5 1781.5C1731.5 1769.9 1751.87 1760.5 1777 1760.5 1802.13 1760.5 1822.5 1769.9 1822.5 1781.5 1822.5 1793.1 1802.13 1802.5 1777 1802.5 1751.87 1802.5 1731.5 1793.1 1731.5 1781.5Z" stroke="#333333" stroke-width="2.86476" stroke-linecap="round" stroke-linejoin="round" stroke-miterlimit="10" fill="none" fill-rule="evenodd"/><path d="M1731 2202.32C1731 2213.95 1751.8 2223 1776.5 2223 1802.5 2223 1822 2213.95 1822 2202.32 1822 1781 1822 1781 1822 1781 1822 1791.34 1802.5 1801.68 1776.5 1801.68 1751.8 1801.68 1731 1791.34 1731 1781L1731 2202.32Z" fill="#D2857E" fill-rule="evenodd"/><path d="M1815.71 1806.37C1806.68 2187.58 1806.68 2187.58 1806.68 2187.58 1806.68 2201.85 1786.03 2213.52 1761.52 2213.52 1752.48 2213.52 1743.45 2209.63 1737 2207.03 1744.74 2213.52 1756.35 2220 1771.84 2220 1796.35 2220 1817 2208.33 1817 2194.07 1817 1803.78 1817 1803.78 1817 1803.78 1817 1796 1815.71 1799.89 1815.71 1806.37Z" fill="#C86865" fill-rule="evenodd"/><path d="M1816.69 1804C1815.39 2194.08 1815.39 2194.08 1815.39 2194.08 1815.39 2204.45 1797.11 2220 1771 2220 1771 2220 1771 2220 1771 2220 1794.5 2220 1818 2212.22 1818 2194.08 1816.69 1804 1816.69 1804 1816.69 1804Z" fill="#FFFFFF" fill-rule="evenodd"/><path d="M1735 1796C1735 2132 1735 2132 1735 2132 1736.5 2102.16 1741 1833.62 1735 1799.89" fill="#FFFFFF" fill-rule="evenodd"/><path d="M1599 1781C1599 1769.4 1619.37 1760 1644.5 1760 1669.63 1760 1690 1769.4 1690 1781 1690 1792.6 1669.63 1802 1644.5 1802 1619.37 1802 1599 1792.6 1599 1781Z" fill="#DFA9A0" fill-rule="evenodd"/><path d="M1599 2202.32C1599 2213.95 1619.8 2223 1644.5 2223 1670.5 2223 1690 2213.95 1690 2202.32 1690 1781 1690 1781 1690 1781 1690 1791.34 1670.5 1801.68 1644.5 1801.68 1619.8 1801.68 1599 1791.34 1599 1781L1599 2202.32Z" fill="#D2857E" fill-rule="evenodd"/><path d="M1683.7 1806.37C1674.59 2187.58 1674.59 2187.58 1674.59 2187.58 1674.59 2201.85 1653.76 2213.52 1629.03 2213.52 1618.62 2213.52 1610.81 2209.63 1603 2207.03 1612.11 2213.52 1623.83 2220 1639.44 2220 1664.17 2220 1685 2208.33 1685 2194.07 1685 1803.78 1685 1803.78 1685 1803.78 1685 1796 1683.7 1799.89 1683.7 1806.37Z" fill="#C86865" fill-rule="evenodd"/><path d="M1684.72 1804C1682.17 2194.08 1682.17 2194.08 1682.17 2194.08 1682.17 2204.45 1665.56 2220 1640 2220 1640 2220 1640 2220 1640 2220 1661.72 2220 1686 2212.22 1686 2194.08 1684.72 1804 1684.72 1804 1684.72 1804Z" fill="#FFFFFF" fill-rule="evenodd"/><path d="M1617 1775 1687 1775 1676.61 1787.13 1650.91 1834 1617 1775Z" fill="#B63A40" fill-rule="evenodd"/><path d="M1602 1799C1641 1865 1641 1865 1641 1865 1667 1817.12 1667 1817.12 1667 1817.12 1667 1817.12 1667 1817.12 1667 1817.12 1667 1817.12 1643.6 1855.94 1641 1858.53 1639.7 1855.94 1613.7 1815.82 1613.7 1815.82L1602 1799Z" fill="#FFFFFF" fill-rule="evenodd"/><path d="M1603 1800C1604.33 2132 1604.33 2132 1604.33 2132 1605.67 2102.17 1607 1815.56 1611 1811.67" fill="#FFFFFF" fill-rule="evenodd"/><path d="M1608 1826C1608 1822.18 1613.5 1820.91 1616.25 1822.18 1619 1824.73 1614.88 1819.64 1614.88 1819.64 1609.38 1812 1609.38 1812 1609.38 1812" fill="#FFFFFF" fill-rule="evenodd"/><path d="M1731.5 2202.82C1731.5 2214.45 1752.3 2223.5 1777 2223.5 1803 2223.5 1822.5 2214.45 1822.5 2202.82 1822.5 1781.5 1822.5 1781.5 1822.5 1781.5 1822.5 1791.84 1803 1802.18 1777 1802.18 1752.3 1802.18 1731.5 1791.84 1731.5 1781.5L1731.5 2202.82Z" stroke="#333333" stroke-width="2.86476" stroke-linecap="round" stroke-linejoin="round" stroke-miterlimit="10" fill="none" fill-rule="evenodd"/><path d="M1673 1799C1674.29 1789.67 1680.71 1781.67 1688.43 1775 1689.71 1781.67 1691 1789.67 1687.14 1796.33" fill="#D2857E" fill-rule="evenodd"/><path d="M1676.5 1741C1676.5 1729.68 1696.65 1720.5 1721.5 1720.5 1746.35 1720.5 1766.5 1729.68 1766.5 1741 1766.5 1752.32 1746.35 1761.5 1721.5 1761.5 1696.65 1761.5 1676.5 1752.32 1676.5 1741Z" stroke="#333333" stroke-width="2.86476" stroke-linecap="round" stroke-linejoin="round" stroke-miterlimit="10" fill="none" fill-rule="evenodd"/><path d="M1731.79 1781.63C1731.79 1771.27 1747.21 1763.51 1766.5 1760.92 1766.5 1741.5 1766.5 1741.5 1766.5 1741.5 1766.5 1753.15 1747.21 1762.21 1721.5 1762.21 1697.07 1762.21 1676.5 1753.15 1676.5 1741.5 1676.5 1766.09 1676.5 1766.09 1676.5 1766.09 1685.5 1769.98 1690.64 1775.16 1690.64 1781.63 1690.64 2179.03 1690.64 2179.03 1690.64 2179.03 1699.64 2182.91 1709.93 2185.5 1721.5 2185.5 1725.36 2185.5 1729.21 2184.21 1731.79 2184.21L1731.79 1781.63Z" stroke="#333333" stroke-width="2.86476" stroke-linecap="round" stroke-linejoin="round" stroke-miterlimit="10" fill="none" fill-rule="evenodd"/><path d="M1599.5 1781.5C1599.5 1769.69 1620.3 1760.5 1645 1760.5 1671 1760.5 1690.5 1769.69 1690.5 1781.5" stroke="#333333" stroke-width="2.86476" stroke-linecap="round" stroke-linejoin="round" stroke-miterlimit="10" fill="none" fill-rule="evenodd"/><path d="M1604.7 1790.55C1602.1 1787.96 1599.5 1784.08 1599.5 1781.5 1599.5 2202.82 1599.5 2202.82 1599.5 2202.82 1599.5 2214.45 1620.3 2223.5 1645 2223.5 1671 2223.5 1690.5 2214.45 1690.5 2202.82 1690.5 1781.5 1690.5 1781.5 1690.5 1781.5" stroke="#333333" stroke-width="2.86476" stroke-linecap="round" stroke-linejoin="round" stroke-miterlimit="10" fill="none" fill-rule="evenodd"/><path d="M1603 1789.36C1603 1789.36 1603 1789.36 1603 1788.05 1640.62 1852 1640.62 1852 1640.62 1852 1651 1833.73 1651 1833.73 1651 1833.73 1615.97 1775 1615.97 1775 1615.97 1775L1603 1789.36Z" fill="#C86864" fill-rule="evenodd"/><path d="M1603.5 1789.86C1603.5 1789.86 1603.5 1789.86 1603.5 1788.55 1641.12 1852.5 1641.12 1852.5 1641.12 1852.5 1651.5 1834.23 1651.5 1834.23 1651.5 1834.23 1616.47 1775.5 1616.47 1775.5 1616.47 1775.5L1603.5 1789.86Z" stroke="#333333" stroke-width="2.86476" stroke-linecap="round" stroke-linejoin="round" stroke-miterlimit="10" fill="none" fill-rule="evenodd"/><path d="M1617.5 1775.5 1688.5 1775.5 1677.03 1788.73 1651.36 1834.5" stroke="#333333" stroke-width="2.86476" stroke-linecap="round" stroke-linejoin="round" stroke-miterlimit="10" fill="none" fill-rule="evenodd"/></g></svg>