<svg width="187" height="464" xmlns="http://www.w3.org/2000/svg" xmlns:xlink="http://www.w3.org/1999/xlink" xml:space="preserve" overflow="hidden"><g transform="translate(-2563 -1761)"><path d="M2676.06 2201.3C2676.06 1795.11 2676.06 1795.11 2676.06 1795.11 2676.06 1795.11 2676.06 1795.11 2676.06 1795.11 2676.06 1789.94 2670.88 1784.76 2678.65 1780.88 2669.59 1777 2668.29 1777 2655.35 1777 2650.18 1777 2646.29 1777 2643.71 1777 2638.53 1786.06 2638.53 1786.06 2638.53 1786.06 2635.94 1789.94 2635.94 1789.94 2635.94 1789.94 2635.94 1791.23 2634.65 1793.82 2634.65 1795.11 2634.65 1795.11 2634.65 1795.11 2634.65 1795.11 2634.65 2201.3 2634.65 2201.3 2634.65 2201.3 2634.65 2206.48 2630.76 2211.65 2623 2215.53 2630.76 2219.41 2642.41 2222 2655.35 2222 2668.29 2222 2679.94 2219.41 2689 2214.24 2681.24 2211.65 2676.06 2206.48 2676.06 2201.3Z" fill="#C15555" fill-rule="evenodd"/><path d="M2676.06 2201.3C2676.06 1795.11 2676.06 1795.11 2676.06 1795.11 2676.06 1789.94 2670.88 1784.76 2678.65 1780.88 2669.59 1777 2668.29 1777 2655.35 1777 2650.18 1777 2646.29 1777 2643.71 1777 2638.53 1786.06 2638.53 1786.06 2638.53 1786.06 2635.94 1789.94 2635.94 1789.94 2635.94 1789.94 2635.94 1791.23 2634.65 1793.82 2634.65 1795.11 2634.65 2201.3 2634.65 2201.3 2634.65 2201.3 2634.65 2206.48 2630.76 2211.65 2623 2215.53 2630.76 2219.41 2642.41 2222 2655.35 2222 2668.29 2222 2679.94 2219.41 2689 2214.24 2681.24 2211.65 2676.06 2206.48 2676.06 2201.3Z" fill="#B4323A" fill-rule="evenodd"/><path d="M2676.06 2201.3C2676.06 1795.11 2676.06 1795.11 2676.06 1795.11 2676.06 1795.11 2676.06 1795.11 2676.06 1795.11 2676.06 1789.94 2670.88 1784.76 2678.65 1780.88 2669.59 1777 2665.71 1777 2655.35 1777 2650.18 1777 2646.29 1777 2643.71 1777 2638.53 1786.06 2638.53 1786.06 2638.53 1786.06 2635.94 1789.94 2635.94 1789.94 2635.94 1789.94 2635.94 1791.23 2634.65 1793.82 2634.65 1795.11 2634.65 1795.11 2634.65 1795.11 2634.65 1795.11 2634.65 2201.3 2634.65 2201.3 2634.65 2201.3 2634.65 2206.48 2630.76 2211.65 2623 2215.53 2630.76 2219.41 2642.41 2222 2655.35 2222 2668.29 2222 2679.94 2219.41 2689 2214.24 2681.24 2211.65 2676.06 2206.48 2676.06 2201.3Z" stroke="#333333" stroke-width="2.29167" stroke-linecap="round" stroke-linejoin="round" stroke-miterlimit="10" fill="none" fill-rule="evenodd"/><path d="M2677.5 1764.87C2665.8 1768.74 2658 1775.19 2658 1781.64 2658 2203.36 2658 2203.36 2658 2203.36 2658 2214.97 2677.5 2224 2703.5 2224 2728.2 2224 2749 2214.97 2749 2203.36 2749 1781.64 2749 1781.64 2749 1781.64 2749 1775.19 2739.9 1768.74 2728.2 1764.87 2719.1 1762.29 2690.5 1761 2677.5 1764.87Z" fill="#D2857E" fill-rule="evenodd"/><path d="M2647.57 1771C2638.57 1786.49 2638.57 1786.49 2638.57 1786.49 2609 1839.4 2609 1839.4 2609 1839.4 2579.43 1786.49 2579.43 1786.49 2579.43 1786.49 2570.43 1771 2570.43 1771 2570.43 1771 2566.57 1774.87 2564 1777.45 2564 1781.32 2564 2203.35 2564 2203.35 2564 2203.35 2564 2214.97 2584.57 2224 2609 2224 2633.43 2224 2654 2214.97 2654 2203.35 2654 1781.32 2654 1781.32 2654 1781.32 2654 1777.45 2651.43 1773.58 2647.57 1771Z" fill="#D2857E" fill-rule="evenodd"/><path d="M2571.75 1849.48C2570.5 2200.95 2570.5 2200.95 2570.5 2200.95 2570.5 2206.12 2569.25 2210 2569.25 2202.25 2569.25 1808.14 2569.25 1808.14 2569.25 1808.14 2569.25 1796.51 2568 1786.17 2570.5 1781 2570.5 1791.34 2573 1828.81 2571.75 1849.48Z" fill="#FFFFFF" fill-rule="evenodd"/><path d="M2647.71 1807.03C2638.68 2192.9 2638.68 2192.9 2638.68 2192.9 2638.68 2205.8 2619.32 2214.84 2593.52 2214.84 2584.48 2214.84 2576.74 2212.26 2569 2209.68 2576.74 2214.84 2588.35 2220 2603.84 2220 2628.35 2220 2649 2210.97 2649 2198.06 2649 1804.45 2649 1804.45 2649 1804.45 2649 1798 2647.71 1801.87 2647.71 1807.03Z" fill="#C86865" fill-rule="evenodd"/><path d="M2648.72 1804C2647.44 2198.04 2647.44 2198.04 2647.44 2198.04 2647.44 2207.08 2629.56 2220 2604 2220 2604 2220 2604 2220 2604 2220 2627 2220 2650 2214.83 2650 2198.04 2648.72 1804 2648.72 1804 2648.72 1804Z" fill="#FFFFFF" fill-rule="evenodd"/><path d="M2668.75 1810.49C2663.75 2200.95 2663.75 2200.95 2663.75 2200.95 2663.75 2206.12 2662.5 2210 2662.5 2202.24 2662.5 1807.91 2662.5 1807.91 2662.5 1807.91 2662.5 1792.39 2660 1780.76 2667.5 1776.88 2675 1773 2675 1773 2675 1773 2672.5 1775.59 2668.75 1789.81 2668.75 1810.49Z" fill="#FFFFFF" fill-rule="evenodd"/><path d="M2741.71 1807.03C2732.71 2192.9 2732.71 2192.9 2732.71 2192.9 2732.71 2205.8 2712.14 2214.84 2687.71 2214.84 2677.43 2214.84 2669.71 2212.26 2662 2209.68 2671 2214.84 2682.57 2220 2698 2220 2722.43 2220 2743 2210.97 2743 2198.06 2743 1804.45 2743 1804.45 2743 1804.45 2743 1798 2741.71 1801.87 2741.71 1807.03Z" fill="#C86865" fill-rule="evenodd"/><path d="M2743.69 1804C2741.08 2198.04 2741.08 2198.04 2741.08 2198.04 2741.08 2207.08 2724.11 2220 2698 2220 2698 2220 2698 2220 2698 2220 2720.19 2220 2745 2214.83 2745 2198.04 2743.69 1804 2743.69 1804 2743.69 1804Z" fill="#FFFFFF" fill-rule="evenodd"/><path d="M2677.5 1764.87C2665.8 1768.74 2658 1775.19 2658 1781.64 2658 2203.36 2658 2203.36 2658 2203.36 2658 2214.97 2677.5 2224 2703.5 2224 2728.2 2224 2749 2214.97 2749 2203.36 2749 1781.64 2749 1781.64 2749 1781.64 2749 1775.19 2739.9 1768.74 2728.2 1764.87 2719.1 1762.29 2690.5 1761 2677.5 1764.87Z" stroke="#333333" stroke-width="2.29167" stroke-linecap="round" stroke-linejoin="round" stroke-miterlimit="10" fill="none" fill-rule="evenodd"/><path d="M2647.57 1771C2638.57 1786.49 2638.57 1786.49 2638.57 1786.49 2609 1839.4 2609 1839.4 2609 1839.4 2579.43 1786.49 2579.43 1786.49 2579.43 1786.49 2570.43 1771 2570.43 1771 2570.43 1771 2566.57 1774.87 2564 1777.45 2564 1781.32 2564 2203.35 2564 2203.35 2564 2203.35 2564 2214.97 2584.57 2224 2609 2224 2633.43 2224 2654 2214.97 2654 2203.35 2654 1781.32 2654 1781.32 2654 1781.32 2654 1777.45 2651.43 1773.58 2647.57 1771Z" stroke="#333333" stroke-width="2.29167" stroke-linecap="round" stroke-linejoin="round" stroke-miterlimit="10" fill="none" fill-rule="evenodd"/><path d="M2570 1772 2578.75 1786.16 2608.82 1839 2638.34 1786.16 2646 1772" stroke="#333333" stroke-width="2.29167" stroke-linecap="round" stroke-linejoin="round" stroke-miterlimit="10" fill="none" fill-rule="evenodd"/></g></svg>