<svg width="225" height="482" xmlns="http://www.w3.org/2000/svg" xmlns:xlink="http://www.w3.org/1999/xlink" xml:space="preserve" overflow="hidden"><g transform="translate(-2779 -1120)"><path d="M2997.82 1252.39C2992.63 1221.3 2990.04 1191.5 2968.01 1156.53 2938.2 1112.48 2851.36 1106 2815.07 1163 2815.07 1165.59 2811.18 1174.66 2808.59 1183.73 2806 1194.09 2806 1204.46 2806 1205.75 2821.55 1243.32 2821.55 1243.32 2821.55 1243.32 2852.66 1238.14 2852.66 1238.14 2852.66 1238.14 2863.03 1218.71 2863.03 1218.71 2863.03 1218.71 2860.43 1200.57 2860.43 1200.57 2860.43 1200.57 2860.43 1200.57 2855.25 1188.91 2857.84 1199.28 2857.84 1199.28 2857.84 1197.98 2857.84 1197.98 2856.55 1187.62 2851.36 1174.66 2848.77 1169.48 2848.77 1168.18 2848.77 1168.18 2848.77 1168.18 2839.7 1153.93 2855.25 1142.27 2877.28 1139.68 2905.8 1134.5 2935.61 1146.16 2918.76 1159.12 2914.87 1160.41 2907.09 1169.48 2904.5 1177.25 2901.91 1186.32 2900.61 1190.21 2899.32 1200.57 2901.91 1187.62 2908.39 1194.09 2908.39 1194.09 2913.57 1203.16 2913.57 1203.16 2913.57 1203.16 2942.09 1203.16 2942.09 1203.16 2942.09 1203.16 2952.45 1183.73 2952.45 1183.73 2952.45 1183.73 2952.45 1183.73 2952.45 1183.73 2952.45 1183.73 2956.34 1192.8 2960.23 1204.46 2964.12 1216.12 2964.12 1216.12 2964.12 1216.12 2964.12 1216.12 2968.01 1230.37 2971.89 1247.21 2974.49 1265.35 2979.67 1296.44 2979.67 1450.61 2975.78 1481.7 2968.01 1540 2952.45 1582.75 2935.61 1594.41 2935.61 1594.41 2935.61 1594.41 2934.31 1594.41 2934.31 1595.7 2933.01 1595.7 2931.72 1595.7 2931.72 1597 2930.42 1597 2930.42 1597 2930.42 1597 2930.42 1597 2929.12 1597 2930.42 1597 2930.42 1597 2930.42 1597 2935.61 1597 2951.16 1589.23 2962.82 1574.98 2977.08 1558.13 2991.34 1519.27 2999.11 1468.74 3003 1437.65 3003 1284.78 2997.82 1252.39Z" fill="#FB9979" fill-rule="evenodd"/><path d="M2880.22 1376.52C2880.22 1305.19 2891.89 1240.35 2899.68 1200.14 2900.97 1189.77 2902.27 1185.88 2904.86 1176.8 2907.46 1169.02 2915.24 1159.94 2919.14 1158.64 2936 1145.67 2906.16 1134 2877.62 1139.19 2855.57 1141.78 2840 1153.45 2849.08 1167.72 2849.08 1169.02 2849.08 1169.02 2849.08 1169.02 2851.68 1174.2 2856.86 1187.17 2858.16 1197.55 2858.16 1197.55 2858.16 1198.85 2858.16 1198.85 2858.16 1198.85 2859.46 1200.14 2859.46 1200.14 2865.95 1240.35 2876.32 1305.19 2876.32 1376.52 2876.32 1489.36 2864.65 1582.73 2840 1595.7 2850.38 1591.81 2860.76 1589.22 2878.92 1589.22 2898.38 1589.22 2910.05 1591.81 2920.43 1597 2894.49 1585.33 2880.22 1490.65 2880.22 1376.52Z" fill="#FB8564" fill-rule="evenodd"/><path d="M2866.8 1253C2869.43 1290.69 2873.37 1342.67 2873.37 1382.96 2873.37 1488.23 2860.23 1598.7 2830 1598.7 2830 1600 2830 1600 2830 1600 2861.54 1600 2876 1519.42 2876 1377.76 2876 1337.48 2869.43 1290.69 2866.8 1253Z" fill="#FFFFFF" fill-rule="evenodd"/><path d="M2886 1377.09C2886 1426.36 2890 1480.81 2894 1521 2894 1521 2894 1521 2894 1521 2890 1480.81 2891.33 1426.36 2891.33 1378.39 2891.33 1327.83 2894 1269.49 2898 1228 2898 1228 2898 1228 2898 1228 2894 1269.49 2886 1327.83 2886 1377.09Z" fill="#FFFFFF" fill-rule="evenodd"/><path d="M2888.84 1147.3C2888.84 1147.3 2880.95 1147.3 2880.95 1147.3 2878.32 1148.61 2878.32 1148.61 2878.32 1148.61 2877 1151.22 2877 1151.22 2877 1151.22 2879.63 1149.91 2879.63 1149.91 2879.63 1149.91 2887.53 1149.91 2887.53 1149.91 2887.53 1149.91 2891.47 1149.91 2895.42 1151.22 2896.74 1152.52 2898.05 1155.13 2898.05 1161.65 2895.42 1165.57 2894.1 1169.48 2894.1 1172.09 2892.79 1176 2895.42 1176 2895.42 1176 2895.42 1176 2896.74 1172.09 2898.05 1169.48 2899.37 1166.87 2902 1160.35 2902 1153.83 2899.37 1149.91 2898.05 1148.61 2895.42 1146 2888.84 1147.3Z" fill="#FFFFFF" fill-rule="evenodd"/><path d="M2920.43 1597C2894.49 1585.33 2880.22 1490.65 2880.22 1376.52 2880.22 1305.19 2891.89 1240.35 2899.68 1200.14 2900.97 1189.77 2902.27 1185.88 2904.86 1176.8 2907.46 1169.02 2915.24 1159.94 2919.14 1158.64 2936 1145.67 2906.16 1134 2877.62 1139.19 2855.57 1141.78 2840 1153.45 2849.08 1167.72 2849.08 1169.02 2849.08 1169.02 2849.08 1169.02 2851.68 1174.2 2856.86 1187.17 2858.16 1197.55 2858.16 1197.55 2858.16 1198.85 2858.16 1198.85 2858.16 1198.85 2859.46 1200.14 2859.46 1200.14 2865.95 1240.35 2876.32 1305.19 2876.32 1376.52 2876.32 1489.36 2864.65 1582.73 2840 1595.7 2850.38 1591.81 2860.76 1589.22 2878.92 1589.22 2898.38 1589.22 2910.05 1591.81 2920.43 1597ZM2868.54 1564.58C2877.62 1526.97 2878.92 1464.71 2878.92 1376.52 2878.92 1309.08 2878.92 1240.35 2869.84 1197.55 2869.84 1197.55 2869.84 1197.55 2869.84 1196.25 2869.84 1196.25 2869.84 1194.96 2869.84 1194.96 2867.24 1184.58 2863.35 1171.61 2860.76 1165.13 2859.46 1163.83 2859.46 1163.83 2859.46 1163.83 2859.46 1162.53 2859.46 1162.53 2859.46 1162.53 2859.46 1162.53 2859.46 1162.53 2859.46 1162.53 2860.76 1158.64 2862.05 1152.16 2878.92 1150.86 2881.51 1149.56 2886.7 1148.27 2889.3 1148.27 2900.97 1146.97 2900.97 1157.34 2897.08 1165.13 2895.78 1167.72 2894.49 1171.61 2893.19 1174.2 2893.19 1178.1 2893.19 1178.1 2893.19 1178.1 2890.59 1184.58 2889.3 1188.47 2888 1198.85 2880.22 1241.64 2878.92 1309.08 2878.92 1376.52 2878.92 1466.01 2881.51 1529.56 2890.59 1567.17 2891.89 1571.06 2888 1577.55 2885.41 1577.55 2881.51 1577.55 2882.81 1577.55 2878.92 1577.55 2876.32 1577.55 2878.92 1577.55 2876.32 1577.55 2872.43 1577.55 2867.24 1569.76 2868.54 1564.58Z" fill="#FB5643" fill-rule="evenodd"/><path d="M2794 1217.33 2805.88 1206 2821 1235.13 2810.74 1247 2794 1217.33Z" fill="#FDD2C0" fill-rule="evenodd"/><path d="M2794.5 1217.83 2806.38 1206.5 2821.5 1235.63 2811.24 1247.5" stroke="#333333" stroke-width="2.86476" stroke-linecap="round" stroke-linejoin="round" stroke-miterlimit="10" fill="none" fill-rule="evenodd"/><path d="M2810 1247 2847.4 1247 2854 1235 2821.55 1235 2811.1 1247 2810 1247Z" fill="#FEE1D6" fill-rule="evenodd"/><path d="M2953 1183.71 2943.56 1176 2933 1194.18 2942.44 1203 2953 1183.71Z" fill="#FDD2C0" fill-rule="evenodd"/><path d="M2953.5 1184.21 2944.06 1176.5 2933.5 1194.68 2942.94 1203.5" stroke="#333333" stroke-width="2.86476" stroke-linecap="round" stroke-linejoin="round" stroke-miterlimit="10" fill="none" fill-rule="evenodd"/><path d="M2942 1203 2913.8 1203 2910 1194 2932.78 1194 2942 1203Z" fill="#FEE1D6" fill-rule="evenodd"/><path d="M2962.89 1574.93C2977.23 1558.06 2991.57 1519.12 2999.39 1468.5 3000.7 1458.11 3002 1432.15 3002 1401 2996.79 1424.36 2991.57 1452.92 2977.23 1459.41 2977.23 1468.5 2975.93 1476.28 2975.93 1481.48 2968.11 1539.89 2952.46 1582.72 2935.52 1594.4 2935.52 1594.4 2935.52 1594.4 2934.21 1594.4 2934.21 1595.7 2932.91 1595.7 2931.61 1595.7 2931.61 1597 2930.3 1597 2930.3 1597 2930.3 1597 2930.3 1597 2929 1597 2930.3 1597 2930.3 1597 2930.3 1597 2935.52 1597 2951.16 1589.21 2962.89 1574.93Z" fill="#FB805F" fill-rule="evenodd"/><path d="M2876.72 1132.64C2859.86 1135.29 2849.48 1143.21 2845.59 1153.79 2843 1157.75 2844.3 1161.71 2846.89 1167 2845.59 1165.68 2845.59 1165.68 2845.59 1165.68 2844.3 1161.71 2845.59 1156.43 2846.89 1153.79 2850.78 1145.86 2862.45 1140.57 2876.72 1137.93 2897.47 1133.96 2919.52 1140.57 2922.11 1147.18 2923.41 1149.82 2922.11 1153.79 2919.52 1155.11 2919.52 1156.43 2919.52 1156.43 2919.52 1156.43 2926 1151.14 2926 1147.18 2924.7 1144.54 2920.81 1135.29 2898.77 1130 2876.72 1132.64Z" fill="#FFFFFF" fill-rule="evenodd"/><path d="M2794.5 1217.83 2806.38 1206.5 2821.5 1235.63 2811.24 1247.5" stroke="#333333" stroke-width="2.86476" stroke-linecap="round" stroke-linejoin="round" stroke-miterlimit="10" fill="none" fill-rule="evenodd"/><path d="M2810.5 1247.5 2847.9 1247.5 2854.5 1235.5 2822.05 1235.5 2811.6 1247.5 2810.5 1247.5Z" stroke="#333333" stroke-width="2.86476" stroke-linecap="round" stroke-linejoin="round" stroke-miterlimit="10" fill="none" fill-rule="evenodd"/><path d="M2953.5 1184.21 2944.06 1176.5 2933.5 1194.68 2942.94 1203.5" stroke="#333333" stroke-width="2.86476" stroke-linecap="round" stroke-linejoin="round" stroke-miterlimit="10" fill="none" fill-rule="evenodd"/><path d="M2909.07 1194.85C2914.27 1203.91 2914.27 1203.91 2914.27 1203.91 2942.84 1203.91 2942.84 1203.91 2942.84 1203.91 2953.23 1184.5 2953.23 1184.5 2953.23 1184.5 2953.23 1184.5 2953.23 1184.5 2953.23 1184.5 2962.32 1203.91 2970.11 1232.37 2975.31 1266.01 2980.5 1298.35 2980.5 1451.01 2976.6 1482.06 2966.21 1550.63 2948.03 1598.5 2925.95 1598.5 2894.79 1598.5 2880.5 1498.88 2880.5 1377.27 2880.5 1306.11 2892.19 1241.43 2899.98 1201.32 2902.58 1188.38 2909.07 1194.85 2909.07 1194.85Z" stroke="#333333" stroke-width="2.86476" stroke-linecap="round" stroke-linejoin="round" stroke-miterlimit="10" fill="none" fill-rule="evenodd"/><path d="M2942.5 1203.5 2914.3 1203.5 2910.5 1194.5 2933.28 1194.5 2942.5 1203.5Z" stroke="#333333" stroke-width="2.86476" stroke-linecap="round" stroke-linejoin="round" stroke-miterlimit="10" fill="none" fill-rule="evenodd"/><path d="M2858.34 1199.78C2858.34 1199.78 2858.34 1198.48 2858.34 1198.48 2857.05 1188.12 2851.86 1175.16 2849.27 1169.98 2849.27 1168.68 2849.27 1168.68 2849.27 1168.68 2840.2 1154.43 2855.75 1142.77 2877.78 1140.18 2906.3 1135 2936.1 1146.66 2919.26 1159.62 2915.37 1160.91 2907.59 1169.98 2905 1177.75 2902.41 1186.82 2901.11 1190.71 2899.82 1201.07 2902.41 1188.12 2908.89 1194.59 2908.89 1194.59 2914.07 1203.66 2914.07 1203.66 2914.07 1203.66 2942.59 1203.66 2942.59 1203.66 2942.59 1203.66 2952.95 1184.23 2952.95 1184.23 2952.95 1184.23 2952.95 1184.23 2952.95 1184.23 2952.95 1184.23 2956.84 1193.3 2960.73 1204.96 2964.62 1216.62 2964.62 1216.62 2964.62 1216.62 2964.62 1216.62 2968.51 1230.87 2972.39 1247.71 2974.99 1265.85 2980.17 1296.94 2980.17 1451.11 2976.28 1482.2 2968.51 1540.5 2952.95 1583.25 2936.1 1594.91 2936.1 1594.91 2936.1 1594.91 2934.81 1594.91 2934.81 1596.2 2933.51 1596.2 2932.22 1596.2 2932.22 1597.5 2930.92 1597.5 2930.92 1597.5 2930.92 1597.5 2930.92 1597.5 2929.62 1597.5 2930.92 1597.5 2930.92 1597.5 2930.92 1597.5 2936.1 1597.5 2951.66 1589.73 2963.32 1575.48 2977.58 1558.63 2991.84 1519.77 2999.61 1469.24 3003.5 1438.15 3003.5 1285.28 2998.32 1252.89 2993.13 1221.8 2990.54 1192 2968.51 1157.03 2938.7 1112.98 2851.86 1106.5 2815.57 1163.5 2810.39 1173.87 2806.5 1193.3 2806.5 1206.25" stroke="#333333" stroke-width="2.86476" stroke-linecap="round" stroke-linejoin="round" stroke-miterlimit="10" fill="none" fill-rule="evenodd"/><path d="M2880.72 1377.02C2880.72 1305.69 2892.39 1240.85 2900.18 1200.64 2901.47 1190.27 2902.77 1186.38 2905.36 1177.3 2907.96 1169.52 2915.74 1160.44 2919.64 1159.14 2936.5 1146.17 2906.66 1134.5 2878.12 1139.69 2856.07 1142.28 2840.5 1153.95 2849.58 1168.22 2849.58 1169.52 2849.58 1169.52 2849.58 1169.52 2852.18 1174.7 2857.36 1187.67 2858.66 1198.05 2858.66 1198.05 2858.66 1199.35 2858.66 1199.35 2858.66 1199.35 2859.96 1200.64 2859.96 1200.64 2866.45 1240.85 2878.12 1305.69 2878.12 1377.02 2878.12 1489.86 2865.15 1583.23 2840.5 1596.2 2850.88 1592.31 2861.26 1589.72 2879.42 1589.72 2898.88 1589.72 2910.55 1592.31 2920.93 1597.5 2894.99 1585.83 2880.72 1491.15 2880.72 1377.02Z" stroke="#333333" stroke-width="2.86476" stroke-linecap="round" stroke-linejoin="round" stroke-miterlimit="10" fill="none" fill-rule="evenodd"/><path d="M2951.34 1180.87C2961.76 1200.33 2969.58 1230.18 2974.79 1266.51 2980 1298.95 2980 1452.07 2976.09 1483.21 2966.97 1551.99 2947.43 1600 2926.59 1600 2894.03 1600 2881 1503.98 2881 1382 2881 1298.95 2892.72 1222.39 2903.14 1184.76 2907.05 1171.79 2917.47 1164 2927.89 1164 2937.01 1164 2947.43 1171.79 2951.34 1180.87Z" fill="#FCAB8E" fill-rule="evenodd"/><path d="M2887 1380.53C2887 1429.75 2895.4 1482.85 2899.6 1523 2899.6 1523 2899.6 1523 2899.6 1523 2895.4 1482.85 2892.6 1429.75 2892.6 1381.83 2892.6 1331.32 2896.8 1270.44 2901 1229 2901 1229 2901 1229 2901 1229 2896.8 1270.44 2887 1331.32 2887 1380.53Z" fill="#FFFFFF" fill-rule="evenodd"/><path d="M2973.71 1279.67C2968.43 1245.99 2963.14 1207.13 2953.89 1189 2952.57 1189 2952.57 1189 2952.57 1189 2952.57 1189 2952.57 1189 2952.57 1189 2957.86 1205.84 2960.5 1233.04 2964.46 1255.06 2968.43 1287.44 2968.43 1437.69 2964.46 1466.18 2955.21 1532.24 2936.71 1577.57 2915.57 1577.57 2911.61 1577.57 2908.96 1574.98 2905 1572.39 2910.29 1587.93 2916.89 1597 2926.14 1597 2947.29 1597 2965.79 1551.67 2975.04 1486.9 2979 1457.11 2979 1310.75 2973.71 1279.67Z" fill="#FB9274" fill-rule="evenodd"/><path d="M2951.84 1181.37C2962.26 1200.83 2970.08 1230.68 2975.29 1267.01 2980.5 1299.45 2980.5 1452.57 2976.59 1483.71 2967.47 1552.49 2947.93 1600.5 2927.09 1600.5 2894.53 1600.5 2881.5 1504.48 2881.5 1382.5 2881.5 1299.45 2893.22 1222.89 2903.65 1185.26 2907.55 1172.29 2917.97 1164.5 2928.4 1164.5 2937.51 1164.5 2947.93 1172.29 2951.84 1181.37Z" stroke="#333333" stroke-width="2.86476" stroke-linecap="round" stroke-linejoin="round" stroke-miterlimit="10" fill="none" fill-rule="evenodd"/><path d="M2862.7 1218.59C2845.96 1248.37 2845.96 1248.37 2845.96 1248.37 2811.19 1248.37 2811.19 1248.37 2811.19 1248.37 2794.45 1218.59 2794.45 1218.59 2794.45 1218.59 2794.45 1216 2794.45 1216 2794.45 1216 2790.59 1230.24 2786.73 1247.08 2784.15 1265.21 2779 1298.87 2779 1451.67 2782.86 1482.75 2793.16 1551.38 2811.19 1598 2833.08 1598 2863.99 1598 2873 1499.59 2873 1377.86 2873 1315.71 2869.14 1258.73 2862.7 1218.59Z" fill="#FCAB8E" fill-rule="evenodd"/><path d="M2789.33 1264.97C2784 1297.45 2784 1449.45 2788 1483.23 2790.67 1500.12 2796 1515.71 2800 1530 2800 1530 2800 1530 2800 1530 2796 1515.71 2797.33 1498.82 2794.67 1481.93 2792 1466.34 2792 1424.77 2792 1380.6 2793.33 1332.53 2790.67 1281.86 2793.33 1264.97 2796 1248.09 2792 1240.29 2796 1226 2796 1226 2796 1226 2796 1226 2792 1241.59 2792 1246.79 2789.33 1264.97Z" fill="#FFFFFF" fill-rule="evenodd"/><path d="M2866.73 1247.18C2862.88 1220 2862.88 1247.18 2862.88 1253.66 2861.6 1283.43 2862.88 1322.27 2862.88 1352.04 2862.88 1475.02 2851.33 1572.11 2820.53 1572.11 2812.83 1572.11 2806.42 1566.93 2800 1556.58 2808.98 1582.47 2820.53 1598 2833.37 1598 2864.17 1598 2877 1499.62 2877 1377.93 2877 1328.74 2870.58 1283.43 2866.73 1247.18Z" fill="#FB9274" fill-rule="evenodd"/><path d="M2866.48 1246C2869.09 1284.9 2869.09 1343.25 2869.09 1383.45 2869.09 1488.48 2859.97 1598.7 2830 1598.7 2830 1600 2830 1600 2830 1600 2861.27 1600 2873 1519.6 2873 1378.26 2873 1338.07 2869.09 1284.9 2866.48 1246Z" fill="#FFFFFF" fill-rule="evenodd"/><path d="M2863.32 1219.09C2846.55 1248.87 2846.55 1248.87 2846.55 1248.87 2811.74 1248.87 2811.74 1248.87 2811.74 1248.87 2794.97 1219.09 2794.97 1219.09 2794.97 1219.09 2794.97 1216.5 2794.97 1216.5 2794.97 1216.5 2791.11 1230.74 2787.24 1247.58 2784.66 1265.71 2779.5 1299.37 2779.5 1452.17 2783.37 1483.25 2793.68 1551.88 2811.74 1598.5 2833.66 1598.5 2864.61 1598.5 2877.5 1500.09 2877.5 1378.36 2877.5 1316.21 2869.76 1259.23 2863.32 1219.09Z" stroke="#333333" stroke-width="2.86476" stroke-linecap="round" stroke-linejoin="round" stroke-miterlimit="10" fill="none" fill-rule="evenodd"/></g></svg>