<svg width="242" height="496" xmlns="http://www.w3.org/2000/svg" xmlns:xlink="http://www.w3.org/1999/xlink" xml:space="preserve" overflow="hidden"><g transform="translate(-740 -1100)"><path d="M978.848 1144.99C984 1108.76 910.576 1101 880.949 1101 813.966 1101 767.593 1123 756 1147.58 758.576 1143.7 763.729 1142.41 768.881 1142.41 779.186 1142.41 790.78 1147.58 790.78 1157.93 802.373 1178.64 799.797 1221.34 813.966 1264.04 838.441 1340.38 865.492 1583.65 799.797 1594 817.83 1591.41 884.814 1590.12 908 1594 908 1594 908 1594 908 1594 841.017 1584.94 868.068 1340.38 892.542 1264.04 909.288 1213.57 902.848 1163.11 923.458 1150.17 927.322 1143.7 923.458 1159.23 931.187 1159.23 942.78 1159.23 937.627 1155.35 937.627 1166.99 937.627 1173.46 958.237 1172.17 953.085 1176.05 949.22 1198.05 937.627 1230.4 931.187 1264.04 917.017 1345.56 971.119 1547.42 929.898 1587.53 928.61 1588.82 927.322 1591.41 924.746 1592.71 944.068 1584.94 967.254 1555.18 969.831 1539.65 976.271 1494.36 945.356 1304.15 955.661 1239.45 962.102 1203.22 976.271 1166.99 978.848 1144.99Z" fill="#94B7BB" fill-rule="evenodd"/><path d="M813.92 1264.09C799.678 1221.39 802.268 1178.7 790.616 1158 790.616 1159.29 790.616 1159.29 790.616 1159.29 790.616 1169.64 781.553 1178.7 769.902 1178.7 762.134 1178.7 755.661 1174.82 751.777 1167.06 753.071 1189.05 768.607 1226.57 775.08 1264.09 790.616 1354.65 722 1594 793.205 1594 794.5 1594 794.5 1594 794.5 1594 867 1594 838.518 1341.72 813.92 1264.09Z" fill="#B5CDCF" fill-rule="evenodd"/><path d="M868.33 1123.29C821.687 1124.59 788 1142.69 791.887 1160.79 802.252 1181.48 800.956 1222.87 813.913 1264.25 838.53 1340.54 865.739 1583.65 799.661 1594 817.8 1591.41 885.174 1590.12 908.496 1594 908.496 1594 908.496 1594 908.496 1594 841.122 1584.95 868.33 1340.54 892.948 1264.25 909.791 1212.52 903.313 1160.79 925.339 1149.16 925.339 1149.16 925.339 1149.16 925.339 1149.16 937 1132.35 917.565 1122 868.33 1123.29Z" fill="#77A4AA" fill-rule="evenodd"/><path d="M867 1132C867 1133.3 867 1133.3 867 1133.3 882.31 1133.3 891.241 1141.07 895.069 1146.26 898.897 1152.74 902.724 1161.81 901.448 1167 902.724 1167 902.724 1167 902.724 1167 904 1160.52 902.724 1151.44 897.621 1143.67 893.793 1138.48 884.862 1132 867 1132Z" fill="#FFFFFF" fill-rule="evenodd"/><path d="M868.33 1123.29C821.687 1124.59 788 1142.69 791.887 1160.79 802.252 1181.48 800.956 1222.87 813.913 1264.25 838.53 1340.54 865.739 1583.65 799.661 1594 817.8 1591.41 885.174 1590.12 908.496 1594 908.496 1594 908.496 1594 908.496 1594 908.496 1594 908.496 1594 908.496 1594 841.122 1584.95 868.33 1340.54 892.948 1264.25 909.791 1212.52 903.313 1160.79 925.339 1149.16 925.339 1149.16 925.339 1149.16 925.339 1149.16 937 1132.35 917.565 1122 868.33 1123.29ZM857.965 1553.91C859.261 1562.96 867.035 1570.72 869.626 1577.19 870.922 1578.48 864.443 1582.36 861.852 1582.36 859.261 1582.36 843.713 1581.07 841.122 1581.07 837.235 1581.07 833.348 1577.19 834.643 1574.6 837.235 1569.43 843.713 1562.96 846.304 1555.21 846.304 1552.62 856.67 1551.33 857.965 1553.91ZM902.017 1165.97C898.13 1176.31 896.835 1189.24 894.243 1203.47 892.948 1221.57 889.061 1242.26 882.583 1261.66 877.4 1278.47 872.217 1305.63 867.035 1335.37 865.739 1347.01 841.122 1345.72 839.826 1335.37 834.643 1304.33 829.461 1278.47 822.983 1261.66 817.8 1242.26 813.913 1221.57 811.322 1203.47 810.026 1191.83 810.026 1178.9 807.435 1169.85 806.139 1165.97 804.843 1147.86 813.913 1143.98 822.983 1140.1 847.6 1134.93 868.33 1133.64 868.33 1133.64 868.33 1133.64 868.33 1133.64 899.426 1133.64 904.609 1155.62 902.017 1165.97Z" fill="#5A919A" fill-rule="evenodd"/><path d="M812.289 1264.27C800.566 1226.77 800.566 1187.98 792.75 1166 795.355 1189.27 794.053 1221.6 804.474 1252.63 829.224 1330.22 857.882 1586.24 784.934 1586.24 784.934 1586.24 784.934 1586.24 784.934 1586.24 778.421 1586.24 771.908 1579.78 768 1575.9 773.21 1587.53 781.026 1594 792.75 1594 794.053 1594 794.053 1594 794.053 1594 867 1594 838.342 1341.85 812.289 1264.27Z" fill="#92B5B9" fill-rule="evenodd"/><path d="M769 1212C774 1227.54 776.5 1245.66 779 1263.79 785.25 1297.46 779 1353.13 774 1406.22 767.75 1464.48 764 1522.75 770.25 1559 770.25 1559 770.25 1559 770.25 1559 764 1524.04 774 1464.48 780.25 1407.51 786.5 1351.84 789 1297.46 784 1263.79 780.25 1245.66 774 1227.54 769 1212" fill="#FFFFFF" fill-rule="evenodd"/><path d="M812.706 1264C833.412 1328.71 854.118 1524.12 815.294 1578.47 808.824 1587.53 801.059 1592.71 792 1592.71 792 1594 792 1594 792 1594 802.353 1594 811.412 1591.41 817.882 1581.06 858 1526.71 833.412 1328.71 812.706 1264Z" fill="#FFFFFF" fill-rule="evenodd"/><path d="M958.418 1368C959.716 1384.79 961.015 1401.58 961.015 1418.37 961.015 1429.99 961.015 1437.74 953.224 1445.49 950.627 1449.36 946.731 1451.94 942.836 1454.53 948.03 1515.22 949.328 1568.17 929.851 1587.54 928.552 1588.83 927.254 1591.42 924.657 1592.71 944.134 1584.96 967.507 1555.26 970.104 1539.76 974 1513.93 964.91 1439.03 958.418 1368ZM888.298 1582.38C887 1584.96 887 1588.83 887 1592.71 894.791 1592.71 902.582 1592.71 907.776 1594 907.776 1594 907.776 1594 907.776 1594 899.985 1592.71 893.492 1588.83 888.298 1582.38Z" fill="#6A9CA3" fill-rule="evenodd"/><path d="M868 1118C836.8 1119.29 805.6 1128.32 795.2 1141.23 791.3 1146.39 790 1152.84 790 1158 790 1158 790 1158 790 1158 790 1152.84 793.9 1147.68 797.8 1142.52 806.9 1130.9 839.4 1123.16 868 1121.87 904.4 1121.87 923.9 1128.32 926.5 1132.19 927.8 1136.06 930.4 1141.23 926.5 1146.39 926.5 1147.68 926.5 1147.68 926.5 1147.68 931.7 1141.23 933 1134.77 930.4 1130.9 925.2 1121.87 900.5 1118 868 1118Z" fill="#FFFFFF" fill-rule="evenodd"/><path d="M796.5 1594.5C796.5 1594.5 796.5 1594.5 796.5 1594.5 797.5 1594.5 797.5 1594.5 797.5 1594.5 797.5 1594.5 797.5 1594.5 796.5 1594.5Z" stroke="#333333" stroke-width="2.86476" stroke-linecap="round" stroke-linejoin="round" stroke-miterlimit="10" fill="none" fill-rule="evenodd"/><path d="M814.42 1264.59C800.179 1221.89 802.768 1179.2 791.116 1158.5 791.116 1159.79 791.116 1159.79 791.116 1159.79 791.116 1170.14 782.054 1179.2 770.402 1179.2 762.634 1179.2 756.161 1175.32 752.277 1167.56 753.572 1189.55 769.107 1227.07 775.58 1264.59 791.116 1355.15 722.5 1594.5 793.705 1594.5 795 1594.5 795 1594.5 795 1594.5 867.5 1594.5 839.018 1342.22 814.42 1264.59Z" stroke="#333333" stroke-width="2.86476" stroke-linecap="round" stroke-linejoin="round" stroke-miterlimit="10" fill="none" fill-rule="evenodd"/><path d="M868.83 1123.79C822.187 1125.09 788.5 1143.19 792.387 1161.29 802.752 1181.98 801.457 1223.37 814.413 1264.75 839.03 1341.04 866.239 1584.16 800.161 1594.5 818.3 1591.91 885.674 1590.62 908.996 1594.5 908.996 1594.5 908.996 1594.5 908.996 1594.5 841.622 1585.45 868.83 1341.04 893.448 1264.75 910.291 1213.02 903.813 1161.29 925.839 1149.66 925.839 1149.66 925.839 1149.66 925.839 1149.66 937.5 1132.85 918.065 1122.5 868.83 1123.79Z" stroke="#333333" stroke-width="2.86476" stroke-linecap="round" stroke-linejoin="round" stroke-miterlimit="10" fill="none" fill-rule="evenodd"/><path d="M790.5 1158.27C802.209 1178.98 799.607 1221.7 813.918 1264.41 838.636 1340.79 865.956 1584.14 799.607 1594.5 817.82 1591.91 885.471 1590.62 908.888 1594.5 908.888 1594.5 908.888 1594.5 908.888 1594.5 841.238 1585.44 868.558 1340.79 893.277 1264.41 910.189 1213.93 903.684 1163.44 924.5 1150.5" stroke="#333333" stroke-width="2.86476" stroke-linecap="round" stroke-linejoin="round" stroke-miterlimit="10" fill="none" fill-rule="evenodd"/><path d="M953.585 1176.59C949.72 1198.61 938.127 1230.97 931.687 1264.64 917.517 1346.21 971.619 1548.18 930.398 1588.32 929.11 1589.62 927.822 1592.21 925.246 1593.5 944.568 1585.73 967.754 1555.95 970.331 1540.42 976.771 1495.1 945.856 1304.77 956.161 1240.04 962.602 1203.78 976.771 1167.53 979.347 1145.52 984.5 1109.27 911.076 1101.5 881.449 1101.5 814.466 1101.5 768.093 1123.51 756.5 1148.11" stroke="#333333" stroke-width="2.86476" stroke-linecap="round" stroke-linejoin="round" stroke-miterlimit="10" fill="none" fill-rule="evenodd"/><path d="M933.026 1263.96C938.195 1231.6 949.823 1200.54 953.699 1177.24 958.867 1150.06 930.442 1141 921.398 1152.65 904.602 1169.47 908.478 1217.36 892.974 1263.96 868.425 1341.61 840 1594 912.354 1594 913.646 1594 913.646 1594 913.646 1594 986 1594 917.522 1354.56 933.026 1263.96Z" fill="#B5CDCF" fill-rule="evenodd"/><path d="M910.857 1204.64C908.286 1222.79 904.429 1243.54 898 1264.29 881.286 1320.04 862 1452.31 878.714 1534 878.714 1534 878.714 1534 878.714 1534 864.572 1456.2 885.143 1323.93 903.143 1268.18 909.572 1247.43 910.857 1229.27 913.429 1211.12 916 1180 916 1180 916 1180 916 1180 916 1180 916 1180L910.857 1204.64Z" fill="#FFFFFF" fill-rule="evenodd"/><path d="M933.063 1264C938.228 1231.65 949.848 1200.59 953.721 1177.29 953.721 1177.29 953.721 1176 952.43 1176 948.557 1199.29 926.608 1239.41 921.443 1270.47 905.949 1361.06 967.924 1575.88 895.62 1575.88 894.329 1575.88 894.329 1575.88 894.329 1575.88 890.456 1575.88 887.874 1575.88 884 1574.59 890.456 1586.24 900.785 1594 912.405 1594 913.696 1594 913.696 1594 913.696 1594 986 1594 917.57 1354.59 933.063 1264Z" fill="#92B5B9" fill-rule="evenodd"/><path d="M928.522 1267.53C922 1301.1 925.913 1352.75 932.435 1408.27 940.261 1478 950.695 1550.3 935.043 1580 935.043 1580 935.043 1580 935.043 1580 952 1550.3 944.174 1478 936.348 1408.27 931.13 1354.04 924.609 1299.81 931.13 1266.24 935.043 1243 935.043 1243 935.043 1243 935.043 1243 935.043 1243 935.043 1243L928.522 1267.53Z" fill="#FFFFFF" fill-rule="evenodd"/><path d="M933.527 1264.46C938.695 1232.1 950.323 1201.04 954.199 1177.74 959.367 1150.56 930.943 1141.5 921.898 1153.15 905.102 1169.97 908.978 1217.86 893.473 1264.46 868.925 1342.11 840.5 1594.5 912.854 1594.5 914.146 1594.5 914.146 1594.5 914.146 1594.5 986.5 1594.5 918.022 1355.06 933.527 1264.46Z" stroke="#333333" stroke-width="2.86476" stroke-linecap="round" stroke-linejoin="round" stroke-miterlimit="10" fill="none" fill-rule="evenodd"/><path d="M813.92 1264.33C803.562 1233.3 802.268 1200.98 797.089 1179 769.902 1179 769.902 1179 769.902 1179 769.902 1179 768.607 1179 767.312 1179 766.018 1179 764.723 1179 764.723 1179 745.303 1179 745.303 1179 745.303 1179 745.303 1212.61 722 1594 793.205 1594 794.5 1594 794.5 1594 794.5 1594 867 1594 838.518 1341.9 813.92 1264.33Z" fill="#B5CDCF" fill-rule="evenodd"/><path d="M745 1173.6C745 1159.38 756.854 1140 771.341 1140 787.146 1140 799 1159.38 799 1173.6 799 1189.11 799 1224 771.341 1224 745 1224 745 1189.11 745 1173.6Z" fill="#5A919A" fill-rule="evenodd"/><path d="M813.592 1264C800.566 1226.47 799.263 1220 809.684 1249.76 834.434 1327.41 857.882 1586.24 784.934 1586.24 784.934 1586.24 784.934 1586.24 784.934 1586.24 778.421 1586.24 771.908 1579.76 768 1575.88 773.21 1587.53 781.026 1594 792.75 1594 794.053 1594 794.053 1594 794.053 1594 867 1594 838.342 1341.65 813.592 1264Z" fill="#92B5B9" fill-rule="evenodd"/><path d="M812.706 1264C833.412 1328.71 854.118 1525.41 815.294 1578.47 808.824 1587.53 801.059 1592.71 792 1592.71 792 1594 792 1594 792 1594 802.353 1594 811.412 1591.41 817.882 1581.06 858 1526.71 833.412 1328.71 812.706 1264Z" fill="#FFFFFF" fill-rule="evenodd"/><path d="M745.804 1179.5C745.804 1213.11 722.5 1594.5 793.705 1594.5 795 1594.5 795 1594.5 795 1594.5 867.5 1594.5 839.018 1342.4 814.42 1264.83 805.357 1236.38 802.768 1207.94 798.884 1185.96" stroke="#333333" stroke-width="2.86476" stroke-linecap="round" stroke-linejoin="round" stroke-miterlimit="10" fill="none" fill-rule="evenodd"/><path d="M745.5 1177.5 746.5 1178.5" stroke="#333333" stroke-width="2.86476" stroke-linecap="round" stroke-linejoin="round" stroke-miterlimit="10" fill="none" fill-rule="evenodd"/><path d="M792.915 1153.65C796.866 1160.09 799.5 1167.82 799.5 1174.26 799.5 1189.72 799.5 1224.5 771.842 1224.5 745.5 1224.5 745.5 1189.72 745.5 1174.26 745.5 1166.53 749.451 1156.23 756.037 1148.5" stroke="#333333" stroke-width="2.86476" stroke-linecap="round" stroke-linejoin="round" stroke-miterlimit="10" fill="none" fill-rule="evenodd"/></g></svg>