<svg width="261" height="475" xmlns="http://www.w3.org/2000/svg" xmlns:xlink="http://www.w3.org/1999/xlink" xml:space="preserve" overflow="hidden"><g transform="translate(-2758 -507)"><path d="M2840 525.5C2840 515.835 2865.52 508 2897 508 2928.48 508 2954 515.835 2954 525.5 2954 535.165 2928.48 543 2897 543 2865.52 543 2840 535.165 2840 525.5Z" fill="#BEE6C5" fill-rule="evenodd"/><path d="M2905.08 554.523C2905.08 554.523 2905.08 553.227 2905.08 553.227 2905.08 553.227 2905.08 551.93 2906.38 551.93 2906.38 551.93 2906.38 551.93 2906.38 550.634 2906.38 550.634 2906.38 550.634 2906.38 549.337 2906.38 549.337 2906.38 549.337 2906.38 549.337 2907.68 549.337 2907.68 548.041 2907.68 548.041 2907.68 548.041 2907.68 548.041 2908.98 548.041 2908.98 546.744 2908.98 546.744 2910.29 546.744 2910.29 546.744 2910.29 546.744 2910.29 546.744 2911.59 545.448 2911.59 545.448 2912.89 545.448 2912.89 544.151 2912.89 544.151 2912.89 544.151 2912.89 544.151 2914.19 544.151 2915.49 542.855 2915.49 542.855 2915.49 542.855 2915.49 542.855 2916.79 542.855 2918.09 542.855 2918.09 541.558 2919.4 541.558 2919.4 541.558 2919.4 541.558 2919.4 541.558 2920.7 541.558 2922 540.262 2922 540.262 2922 540.262 2922 540.262 2915.49 541.558 2906.38 542.855 2897.27 542.855 2867.33 542.855 2842.6 535.076 2841.3 526 2840 526 2840 526 2840 526 2841.3 528.593 2841.3 532.482 2842.6 537.669 2860.83 540.262 2872.54 546.744 2872.54 553.227 2872.54 553.227 2872.54 553.227 2872.54 553.227 2872.54 553.227 2872.54 553.227 2872.54 553.227 2872.54 557.116 2872.54 564.895 2873.84 572.674 2873.84 572.674 2873.84 572.674 2873.84 572.674 2873.84 572.674 2873.84 572.674 2873.84 572.674 2873.84 572.674 2879.05 656.948 2879.05 768.448 2879.05 878.651 2873.84 960.332 2873.84 960.332 2873.84 960.332 2873.84 960.332 2873.84 960.332 2873.84 962.925 2872.54 966.814 2868.63 969.407 2877.75 972 2886.86 972 2897.27 972 2902.48 972 2906.38 972 2911.59 972 2910.29 970.704 2908.98 970.704 2908.98 969.407 2907.68 969.407 2907.68 969.407 2907.68 969.407 2906.38 966.814 2905.08 965.518 2905.08 962.925 2905.08 962.925 2905.08 962.925 2905.08 962.925 2905.08 961.628 2905.08 960.332 2905.08 960.332 2905.08 960.332 2905.08 960.332 2905.08 960.332 2905.08 960.332 2899.87 878.651 2899.87 768.448 2899.87 656.948 2905.08 572.674 2905.08 572.674 2905.08 572.674 2905.08 572.674 2905.08 572.674 2905.08 572.674 2905.08 572.674 2905.08 572.674 2905.08 566.192 2905.08 559.709 2905.08 555.82" fill="#58AD79" fill-rule="evenodd"/><path d="M2882.95 960.332C2882.95 960.332 2882.95 960.332 2882.95 960.332 2882.95 960.332 2882.95 960.332 2882.95 960.332 2882.95 960.332 2882.95 960.332 2882.95 960.332ZM2895.97 554.523C2895.97 553.227 2895.97 553.227 2897.27 551.93 2897.27 551.93 2897.27 551.93 2897.27 551.93 2899.87 551.93 2902.48 551.93 2906.38 551.93 2906.38 551.93 2906.38 550.634 2906.38 550.634 2906.38 550.634 2906.38 550.634 2906.38 549.337 2906.38 549.337 2906.38 549.337 2906.38 549.337 2907.68 549.337 2907.68 548.041 2907.68 548.041 2907.68 548.041 2907.68 548.041 2908.98 548.041 2908.98 546.744 2908.98 546.744 2910.29 546.744 2910.29 546.744 2910.29 546.744 2910.29 546.744 2911.59 545.448 2911.59 545.448 2912.89 545.448 2912.89 544.151 2912.89 544.151 2912.89 544.151 2912.89 544.151 2914.19 544.151 2915.49 542.855 2915.49 542.855 2915.49 542.855 2915.49 542.855 2916.79 542.855 2918.09 542.855 2918.09 541.558 2919.4 541.558 2919.4 541.558 2919.4 541.558 2919.4 541.558 2920.7 541.558 2922 540.262 2922 540.262 2922 540.262 2922 540.262 2915.49 541.558 2906.38 542.855 2897.27 542.855 2867.33 542.855 2842.6 535.076 2841.3 526 2840 526 2840 526 2840 526 2841.3 528.593 2841.3 532.482 2842.6 537.669 2860.83 540.262 2872.54 546.744 2872.54 553.227 2872.54 553.227 2872.54 553.227 2872.54 553.227 2872.54 553.227 2872.54 553.227 2872.54 553.227 2872.54 557.116 2872.54 564.895 2873.84 572.674 2873.84 572.674 2873.84 572.674 2873.84 572.674 2873.84 572.674 2873.84 572.674 2873.84 572.674 2873.84 572.674 2879.05 656.948 2879.05 768.448 2879.05 878.651 2873.84 960.332 2873.84 960.332 2873.84 960.332 2873.84 960.332 2873.84 960.332 2873.84 962.925 2872.54 966.814 2868.63 969.407 2877.75 972 2886.86 972 2897.27 972 2902.48 972 2906.38 972 2911.59 972 2910.29 970.704 2908.98 970.704 2908.98 969.407 2907.68 969.407 2907.68 969.407 2907.68 969.407 2906.38 966.814 2905.08 965.518 2905.08 962.925 2905.08 962.925 2905.08 962.925 2905.08 962.925 2905.08 961.628 2905.08 960.332 2905.08 960.332 2905.08 960.332 2905.08 960.332 2905.08 960.332 2905.08 960.332 2899.87 878.651 2899.87 768.448 2899.87 656.948 2905.08 572.674 2905.08 572.674 2905.08 572.674 2905.08 572.674 2905.08 572.674 2905.08 572.674 2905.08 572.674 2905.08 572.674 2905.08 570.081 2905.08 567.488 2905.08 564.895 2905.08 564.895 2905.08 564.895 2905.08 564.895 2903.78 564.895 2907.68 549.337 2906.38 548.041 2903.78 546.744 2895.97 553.227 2895.97 550.634 2895.97 571.378 2895.97 571.378 2895.97 571.378 2895.97 572.674 2890.76 658.244 2890.76 768.448 2890.76 860.5 2893.36 933.105 2894.67 953.849 2894.67 957.738 2894.67 960.332 2894.67 960.332 2894.67 960.332 2890.76 962.925 2888.16 962.925 2886.86 962.925 2882.95 960.332 2882.95 960.332 2882.95 960.332 2882.95 957.738 2882.95 955.146 2884.25 936.994 2888.16 863.093 2888.16 768.448 2888.16 658.244 2882.95 572.674 2882.95 571.378 2882.95 571.378 2882.95 571.378 2882.95 571.378 2882.95 567.488 2881.65 553.227 2881.65 553.227 2881.65 553.227 2881.65 553.227 2881.65 553.227 2881.65 553.227 2884.25 550.634 2885.56 551.93 2889.46 551.93 2893.36 551.93 2895.97 551.93 2895.97 551.93 2895.97 553.227 2895.97 553.227M2894.67 960.332C2894.67 960.332 2894.67 960.332 2894.67 960.332 2894.67 960.332 2894.67 960.332 2894.67 960.332Z" fill="#2D9561" fill-rule="evenodd"/><path d="M2902 768.753C2902 877.866 2910 959.701 2910 961 2910 961 2910 961 2910 961 2910 959.701 2908.67 876.567 2908.67 767.454 2908.67 657.041 2910 584.299 2910 583 2910 583 2910 583 2910 583 2910 584.299 2902 658.34 2902 768.753Z" fill="#FFFFFF" fill-rule="evenodd"/><path d="M2891 552.444C2892.5 552.444 2895.5 553.667 2895.5 557.333 2895.5 561 2900 556.111 2900 556.111 2900 550 2900 550 2900 550 2900 550 2894 550 2894 550" fill="#2D9561" fill-rule="evenodd"/><path d="M2926.65 513C2931.81 514.316 2934.39 516.947 2934.39 520.895 2934.39 528.789 2912.46 534.053 2885.38 534.053 2875.06 534.053 2864.74 534.053 2857 531.421 2866.03 535.368 2880.22 538 2896.99 538 2924.07 538 2946 531.421 2946 523.526 2946 519.579 2938.26 514.316 2926.65 513Z" fill="#FFFFFF" fill-rule="evenodd"/><path d="M2903.89 583.106C2903.89 583.106 2903.89 583.106 2903.89 583.106 2905.19 583.106 2905.19 583.106 2905.19 583.106 2905.19 583.106 2900 656.982 2900 768.444 2900 878.61 2905.19 960.263 2905.19 960.263 2903.89 960.263 2903.89 960.263 2903.89 960.263 2903.89 971.928 2919.45 981 2953.16 981 2988.18 981 3016.7 971.928 3016.7 960.263 3016.7 960.263 2997.25 878.61 2997.25 768.444 2997.25 656.982 3018 553.296 3018 553.296 2906.48 552 2906.48 552 2906.48 552 2906.48 552 2905.19 575.329 2903.89 583.106Z" fill="#9AD7AA" fill-rule="evenodd"/><path d="M2905 768.753C2905 877.866 2911 959.701 2911 961 2911 961 2911 961 2911 961 2911 959.701 2911 876.567 2911 767.454 2911 657.041 2911 584.299 2911 583 2911 583 2911 583 2911 583 2911 584.299 2905 658.34 2905 768.753Z" fill="#FFFFFF" fill-rule="evenodd"/><path d="M2990 768.753C2990 879.165 3012 959.701 3012 961 3012 959.701 3012 959.701 3012 959.701 3010.71 959.701 2993.88 876.567 2993.88 768.753 2993.88 658.34 3010.71 584.299 3012 583 3010.71 584.299 3010.71 584.299 3010.71 584.299 3010.71 584.299 2990 658.34 2990 768.753Z" fill="#FFFFFF" fill-rule="evenodd"/><path d="M3009 583C3009 584.299 2988.83 662.237 2988.83 771.351 2988.83 880.464 3009 959.701 3009 961 3009 961 3009 961 3009 961 3009 959.701 2980 879.165 2980 768.753 2980 659.639 3009 584.299 3009 583Z" fill="#76C691" fill-rule="evenodd"/><path d="M2903.89 583.106C2903.89 583.106 2903.89 583.106 2903.89 583.106 2905.19 583.106 2905.19 583.106 2905.19 583.106 2905.19 583.106 2900 656.982 2900 768.444 2900 878.61 2905.19 960.263 2905.19 960.263 2903.89 960.263 2903.89 960.263 2903.89 960.263 2903.89 971.928 2919.45 981 2953.16 981 2988.18 981 3016.7 971.928 3016.7 960.263 3016.7 960.263 2997.25 878.61 2997.25 768.444 2997.25 656.982 3018 553.296 3018 553.296 2906.48 552 2906.48 552 2906.48 552 2906.48 552 2905.19 575.329 2903.89 583.106Z" stroke="#333333" stroke-width="2.29167" stroke-linecap="round" stroke-linejoin="round" stroke-miterlimit="10" fill="none" fill-rule="evenodd"/><path d="M2840 525.5C2840 515.835 2865.52 508 2897 508 2928.48 508 2954 515.835 2954 525.5 2954 535.165 2928.48 543 2897 543 2865.52 543 2840 535.165 2840 525.5Z" stroke="#333333" stroke-width="2.29167" stroke-linecap="round" stroke-linejoin="round" stroke-miterlimit="10" fill="none" fill-rule="evenodd"/><path d="M2905.08 554.523C2905.08 554.523 2905.08 553.227 2905.08 553.227 2905.08 553.227 2905.08 551.93 2906.38 551.93 2906.38 551.93 2906.38 551.93 2906.38 550.634 2906.38 550.634 2906.38 550.634 2906.38 549.337 2906.38 549.337 2906.38 549.337 2906.38 549.337 2907.68 549.337 2907.68 548.041 2907.68 548.041 2907.68 548.041 2907.68 548.041 2908.98 548.041 2908.98 546.744 2908.98 546.744 2910.29 546.744 2910.29 546.744 2910.29 546.744 2910.29 546.744 2911.59 545.448 2911.59 545.448 2912.89 545.448 2912.89 544.151 2912.89 544.151 2912.89 544.151 2912.89 544.151 2914.19 544.151 2915.49 542.855 2915.49 542.855 2915.49 542.855 2915.49 542.855 2916.79 542.855 2918.09 542.855 2918.09 541.558 2919.4 541.558 2919.4 541.558 2919.4 541.558 2919.4 541.558 2920.7 541.558 2922 540.262 2922 540.262 2922 540.262 2922 540.262 2915.49 541.558 2906.38 542.855 2897.27 542.855 2867.33 542.855 2842.6 535.076 2841.3 526 2840 526 2840 526 2840 526 2841.3 528.593 2841.3 532.482 2842.6 537.669 2860.83 540.262 2872.54 546.744 2872.54 553.227 2872.54 553.227 2872.54 553.227 2872.54 553.227 2872.54 553.227 2872.54 553.227 2872.54 553.227 2872.54 557.116 2872.54 564.895 2873.84 572.674 2873.84 572.674 2873.84 572.674 2873.84 572.674 2873.84 572.674 2873.84 572.674 2873.84 572.674 2873.84 572.674 2879.05 656.948 2879.05 768.448 2879.05 878.651 2873.84 960.332 2873.84 960.332 2873.84 960.332 2873.84 960.332 2873.84 960.332 2873.84 962.925 2872.54 966.814 2868.63 969.407 2877.75 972 2886.86 972 2897.27 972 2902.48 972 2906.38 972 2911.59 972 2910.29 970.704 2908.98 970.704 2908.98 969.407 2907.68 969.407 2907.68 969.407 2907.68 969.407 2906.38 966.814 2905.08 965.518 2905.08 962.925 2905.08 962.925 2905.08 962.925 2905.08 962.925 2905.08 961.628 2905.08 960.332 2905.08 960.332 2905.08 960.332 2905.08 960.332 2905.08 960.332 2905.08 960.332 2899.87 878.651 2899.87 768.448 2899.87 656.948 2905.08 572.674 2905.08 572.674 2905.08 572.674 2905.08 572.674 2905.08 572.674 2905.08 572.674 2905.08 572.674 2905.08 572.674 2905.08 566.192 2905.08 559.709 2905.08 555.82" stroke="#333333" stroke-width="2.29167" stroke-linecap="round" stroke-linejoin="round" stroke-miterlimit="10" fill="none" fill-rule="evenodd"/><path d="M2905 554C2905 555 2905 555 2905 555" stroke="#333333" stroke-width="2.29167" stroke-linecap="round" stroke-linejoin="round" stroke-miterlimit="10" fill="none" fill-rule="evenodd"/><path d="M2905 555C2905 555 2905 554 2905 554" stroke="#333333" stroke-width="2.29167" stroke-linecap="round" stroke-linejoin="round" stroke-miterlimit="10" fill="none" fill-rule="evenodd"/><path d="M2795.1 550.522C2773 554.435 2778.2 588.348 2786 602.696 2793.8 614.435 2805.5 628.783 2821.1 631.391 2838 634 2845.8 623.565 2852.3 609.217 2858.8 594.87 2877 544 2843.2 546.609" fill="#58AD79" fill-rule="evenodd"/><path d="M2814.85 536C2783.68 536 2759 544.96 2759 553.92 2759 560.32 2761.6 564.16 2775.89 566.72 2781.08 568 2781.08 568 2781.08 568 2781.08 568 2781.08 568 2781.08 568 2786.28 557.76 2786.28 557.76 2786.28 557.76 2860.31 557.76 2860.31 557.76 2860.31 557.76 2859.01 566.72 2859.01 566.72 2859.01 566.72 2872 562.88 2872 560.32 2872 553.92 2872 544.96 2847.32 536 2814.85 536Z" fill="#BEE6C5" fill-rule="evenodd"/><path d="M2879 768.794C2879 657.515 2872.48 573.409 2872.48 573.409 2872.48 573.409 2872.48 573.409 2872.48 573.409 2872.48 573.409 2872.48 573.409 2872.48 573.409 2872.48 565.646 2872.48 557.882 2872.48 554 2872.48 560.47 2868.57 563.058 2858.13 568.233 2858.13 568.233 2858.13 568.233 2858.13 568.233 2858.13 568.233 2858.13 568.233 2858.13 568.233 2858.13 613.521 2858.13 613.521 2858.13 613.521 2781.17 613.521 2781.17 613.521 2781.17 613.521 2781.17 568.233 2781.17 568.233 2781.17 568.233 2769.43 565.646 2760.3 561.764 2759 556.588 2760.3 561.764 2761.61 573.409 2764.22 583.761 2764.22 583.761 2781.17 657.515 2781.17 768.794 2781.17 878.779 2761.61 960.297 2761.61 960.297 2761.61 971.943 2789 981 2824.22 981 2858.13 981 2873.78 971.943 2873.78 960.297 2873.78 960.297 2873.78 960.297 2873.78 960.297 2873.78 960.297 2879 878.779 2879 768.794Z" fill="#9AD7AA" fill-rule="evenodd"/><path d="M2765 583C2765 584.299 2781.42 658.34 2781.42 768.753 2781.42 877.866 2765 959.701 2765 961 2765 961 2765 961 2765 961 2765 959.701 2789 877.866 2789 768.753 2789 658.34 2765 584.299 2765 583Z" fill="#FFFFFF" fill-rule="evenodd"/><path d="M2863.44 584.299C2864.67 597.289 2867.11 667.433 2867.11 768.753 2867.11 868.773 2862.22 945.412 2861 959.701 2861 961 2861 961 2861 961 2861 959.701 2861 959.701 2861 959.701 2861 959.701 2861 959.701 2861 959.701 2861 944.114 2872 868.773 2872 768.753 2872 667.433 2865.89 595.99 2864.67 583L2863.44 584.299Z" fill="#FFFFFF" fill-rule="evenodd"/><path d="M2869 768.753C2869 877.866 2861.67 959.701 2861.67 961 2861.67 961 2861.67 961 2861.67 961 2861.67 959.701 2858 877.866 2858 768.753 2858 658.34 2861.67 584.299 2861.67 583 2861.67 583 2861.67 583 2861.67 583 2861.67 584.299 2869 658.34 2869 768.753Z" fill="#76C691" fill-rule="evenodd"/><path d="M2776 613 2858 613 2858 603 2850.3 603 2786.46 603 2776 613Z" fill="#F2FAF2" fill-rule="evenodd"/><path d="M2771 566.953C2772.33 568.232 2773.67 568.232 2776.33 568.232 2776.33 613 2776.33 613 2776.33 613 2787 602.767 2787 602.767 2787 602.767 2787 602.767 2787 602.767 2787 602.767 2787 602.767 2787 602.767 2787 602.767 2787 558 2787 558 2787 558 2787 558 2787 558 2787 558 2776.33 568.232 2776.33 568.232 2776.33 568.232 2776.33 568.232 2776.33 568.232 2776.33 568.232 2776.33 568.232 2776.33 568.232 2776.33 568.232 2773.67 568.232 2772.33 568.232 2771 566.953Z" fill="#E5F5E6" fill-rule="evenodd"/><path d="M2857.71 564.75C2866.8 562.25 2872 558.5 2872 553.5 2872 544.75 2847.32 536 2814.85 536 2783.68 536 2759 544.75 2759 553.5 2759 558.5 2765.49 563.5 2775.89 566" stroke="#333333" stroke-width="2.29167" stroke-linecap="round" stroke-linejoin="round" stroke-miterlimit="10" fill="none" fill-rule="evenodd"/><path d="M2775.96 566.94C2766.83 564.352 2760.3 560.47 2759 556.588 2760.3 561.764 2761.61 573.409 2764.22 583.761 2764.22 583.761 2781.17 657.515 2781.17 768.794 2781.17 878.779 2761.61 960.297 2761.61 960.297 2761.61 971.943 2789 981 2824.22 981 2858.13 981 2873.78 971.943 2873.78 960.297 2873.78 960.297 2873.78 960.297 2873.78 960.297 2873.78 960.297 2879 878.779 2879 768.794 2879 657.515 2872.48 573.409 2872.48 573.409 2872.48 573.409 2872.48 573.409 2872.48 573.409 2872.48 573.409 2872.48 573.409 2872.48 573.409 2872.48 565.646 2872.48 557.882 2872.48 554" stroke="#333333" stroke-width="2.29167" stroke-linecap="round" stroke-linejoin="round" stroke-miterlimit="10" fill="none" fill-rule="evenodd"/><path d="M2859 566 2857.9 567.659 2857.9 613 2776 613 2776 567.659" stroke="#333333" stroke-width="2.29167" stroke-linecap="round" stroke-linejoin="round" stroke-miterlimit="10" fill="none" fill-rule="evenodd"/><path d="M2776 568 2786.49 558 2861 558 2859.34 566.421" stroke="#333333" stroke-width="2.29167" stroke-linecap="round" stroke-linejoin="round" stroke-miterlimit="10" fill="none" fill-rule="evenodd"/><path d="M2776 613 2858 613 2858 603 2850.3 603 2786.46 603 2776 613Z" stroke="#333333" stroke-width="2.29167" stroke-linecap="round" stroke-linejoin="round" stroke-miterlimit="10" fill="none" fill-rule="evenodd"/><path d="M2775.8 568.232C2775.8 613 2775.8 613 2775.8 613 2787 602.767 2787 602.767 2787 602.767 2787 602.767 2787 602.767 2787 602.767 2787 602.767 2787 602.767 2787 602.767 2787 558 2787 558 2787 558 2787 558 2787 558 2787 558 2775.8 568.232 2775.8 568.232 2775.8 568.232 2775.8 568.232 2775.8 568.232 2775.8 568.232 2775.8 568.232 2775.8 568.232 2775.8 568.232 2773 568.232 2773 568.232 2775.8 568.232Z" stroke="#333333" stroke-width="2.29167" stroke-linecap="round" stroke-linejoin="round" stroke-miterlimit="10" fill="none" fill-rule="evenodd"/><path d="M2905 553C2905 543.611 2930.3 536 2961.5 536 2992.7 536 3018 543.611 3018 553 3018 562.389 2992.7 570 2961.5 570 2930.3 570 2905 562.389 2905 553Z" fill="#BEE6C5" fill-rule="evenodd"/><path d="M2990.36 541C2996.81 543.526 2999.39 546.053 2999.39 548.579 2999.39 556.158 2977.46 562.474 2950.38 562.474 2940.06 562.474 2929.74 561.211 2922 559.948 2931.03 562.474 2945.22 565 2961.99 565 2989.07 565 3011 558.684 3011 552.369 3011 547.316 3003.26 543.526 2990.36 541Z" fill="#FFFFFF" fill-rule="evenodd"/><path d="M2905 553C2905 543.611 2930.3 536 2961.5 536 2992.7 536 3018 543.611 3018 553 3018 562.389 2992.7 570 2961.5 570 2930.3 570 2905 562.389 2905 553Z" stroke="#333333" stroke-width="2.29167" stroke-linecap="round" stroke-linejoin="round" stroke-miterlimit="10" fill="none" fill-rule="evenodd"/></g></svg>