<svg width="278" height="420" xmlns="http://www.w3.org/2000/svg" xmlns:xlink="http://www.w3.org/1999/xlink" xml:space="preserve" overflow="hidden"><g transform="translate(-3097 -563)"><path d="M3261.56 960.344C3261.56 960.344 3261.56 960.344 3261.56 960.344 3261.56 960.344 3256.38 879.009 3256.38 769.273 3256.38 658.245 3261.56 584.656 3261.56 584.656 3261.56 584.656 3261.56 584.656 3261.56 584.656 3261.56 584.656 3261.56 584.656 3261.56 584.656 3261.56 578.201 3266.75 571.746 3278.41 567.873 3269.34 565.291 3247.31 565.291 3234.35 565.291 3222.69 565.291 3203.25 564 3194.18 566.582 3205.85 570.455 3208.44 578.201 3208.44 584.656 3208.44 584.656 3208.44 584.656 3208.44 584.656 3208.44 584.656 3208.44 584.656 3208.44 584.656 3208.44 584.656 3213.62 658.245 3213.62 769.273 3213.62 879.009 3208.44 960.344 3208.44 960.344 3208.44 960.344 3208.44 960.344 3208.44 960.344 3208.44 966.799 3201.96 974.545 3189 977.127 3198.07 979.709 3221.39 981 3234.35 981 3248.61 981 3270.63 979.709 3281 977.127 3268.04 973.254 3261.56 966.799 3261.56 960.344Z" fill="#58AD79" fill-rule="evenodd"/><path d="M3261.56 960.344C3261.56 960.344 3261.56 960.344 3261.56 960.344 3261.56 960.344 3256.38 879.009 3256.38 769.273 3256.38 658.245 3261.56 584.656 3261.56 584.656 3261.56 584.656 3261.56 584.656 3261.56 584.656 3261.56 584.656 3261.56 584.656 3261.56 584.656 3261.56 578.201 3266.75 571.746 3278.41 567.873 3269.34 565.291 3247.31 565.291 3234.35 565.291 3222.69 565.291 3203.25 564 3194.18 566.582 3205.85 570.455 3208.44 578.201 3208.44 584.656 3208.44 584.656 3208.44 584.656 3208.44 584.656 3208.44 584.656 3208.44 584.656 3208.44 584.656 3208.44 584.656 3213.62 658.245 3213.62 769.273 3213.62 879.009 3208.44 960.344 3208.44 960.344 3208.44 960.344 3208.44 960.344 3208.44 960.344 3208.44 966.799 3201.96 974.545 3189 977.127 3198.07 979.709 3221.39 981 3234.35 981 3248.61 981 3270.63 979.709 3281 977.127 3268.04 973.254 3261.56 966.799 3261.56 960.344ZM3218.8 960.344C3218.8 960.344 3218.8 960.344 3218.8 960.344 3218.8 959.053 3223.99 877.718 3223.99 769.273 3223.99 659.536 3218.8 584.656 3218.8 584.656 3218.8 584.656 3218.8 584.656 3218.8 584.656 3218.8 582.074 3227.87 576.91 3236.94 576.91 3246.01 576.91 3252.49 582.074 3252.49 584.656 3252.49 584.656 3252.49 584.656 3252.49 584.656 3252.49 584.656 3246.01 659.536 3246.01 769.273 3246.01 877.718 3252.49 959.053 3252.49 960.344 3252.49 960.344 3252.49 960.344 3252.49 960.344 3252.49 962.926 3218.8 962.926 3218.8 960.344Z" fill="#2D9561" fill-rule="evenodd"/><path d="M3262.06 960.844C3262.06 960.844 3262.06 960.844 3262.06 960.844 3262.06 960.844 3256.88 879.509 3256.88 769.772 3256.88 658.745 3262.06 585.156 3262.06 585.156 3262.06 585.156 3262.06 585.156 3262.06 585.156 3262.06 585.156 3262.06 585.156 3262.06 585.156 3262.06 578.701 3267.25 572.246 3278.91 568.373 3269.84 565.791 3247.81 565.791 3234.85 565.791 3223.19 565.791 3203.75 564.5 3194.68 567.082 3206.35 570.955 3208.94 578.701 3208.94 585.156 3208.94 585.156 3208.94 585.156 3208.94 585.156 3208.94 585.156 3208.94 585.156 3208.94 585.156 3208.94 585.156 3214.12 658.745 3214.12 769.772 3214.12 879.509 3208.94 960.844 3208.94 960.844 3208.94 960.844 3208.94 960.844 3208.94 960.844 3208.94 967.299 3202.46 975.045 3189.5 977.627 3198.57 980.209 3221.89 981.5 3234.85 981.5 3249.11 981.5 3271.13 980.209 3281.5 977.627 3268.54 973.754 3262.06 967.299 3262.06 960.844Z" stroke="#333333" stroke-width="2.86476" stroke-linecap="round" stroke-linejoin="round" stroke-miterlimit="10" fill="none" fill-rule="evenodd"/><path d="M3373 583.985C3373 577.519 3365.27 572.346 3352.38 568.466 3326.6 562 3284.07 565.88 3284.07 565.88 3268.6 569.759 3262.16 576.225 3262.16 583.985 3262.16 583.985 3262.16 583.985 3262.16 583.985 3262.16 583.985 3262.16 583.985 3262.16 583.985 3262.16 583.985 3257 657.698 3257 768.914 3257 878.837 3262.16 960.309 3262.16 960.309 3262.16 960.309 3262.16 960.309 3262.16 960.309 3262.16 971.948 3277.62 981 3311.13 981 3345.93 981 3373 971.948 3373 960.309 3373 960.309 3353.67 878.837 3353.67 768.914 3353.67 657.698 3373 583.985 3373 583.985Z" fill="#9AD7AA" fill-rule="evenodd"/><path d="M3262 769.261C3262 878.086 3270 959.705 3270 961 3270 961 3270 961 3270 961 3270 959.705 3268.67 876.791 3268.67 767.966 3268.67 657.845 3270 585.296 3270 584 3270 584 3270 584 3270 584 3270 585.296 3262 659.141 3262 769.261Z" fill="#FFFFFF" fill-rule="evenodd"/><path d="M3349 769.261C3349 879.382 3369.71 959.705 3371 961 3369.71 959.705 3369.71 959.705 3369.71 959.705 3369.71 959.705 3352.88 876.791 3352.88 769.261 3352.88 659.141 3369.71 585.296 3369.71 584 3369.71 585.296 3369.71 585.296 3369.71 585.296 3369.71 585.296 3349 659.141 3349 769.261Z" fill="#FFFFFF" fill-rule="evenodd"/><path d="M3367 584C3367 585.296 3347.23 663.028 3347.23 771.852 3347.23 880.677 3367 959.705 3367 961 3367 961 3367 961 3367 961 3367 959.705 3338 879.382 3338 769.261 3338 660.437 3367 585.296 3367 584Z" fill="#76C691" fill-rule="evenodd"/><path d="M3373.5 584.484C3373.5 578.018 3365.77 572.846 3352.88 568.966 3327.1 562.5 3284.57 566.38 3284.57 566.38 3269.1 570.259 3262.66 576.725 3262.66 584.484 3262.66 584.484 3262.66 584.484 3262.66 584.484 3262.66 584.484 3262.66 584.484 3262.66 584.484 3262.66 584.484 3257.5 658.197 3257.5 769.413 3257.5 879.336 3262.66 960.809 3262.66 960.809 3262.66 960.809 3262.66 960.809 3262.66 960.809 3262.66 972.447 3278.12 981.5 3311.63 981.5 3346.43 981.5 3373.5 972.447 3373.5 960.809 3373.5 960.809 3354.17 879.336 3354.17 769.413 3354.17 658.197 3373.5 584.484 3373.5 584.484Z" stroke="#333333" stroke-width="2.86476" stroke-linecap="round" stroke-linejoin="round" stroke-miterlimit="10" fill="none" fill-rule="evenodd"/><path d="M3214 768.975C3214 657.791 3208.84 584.1 3208.84 584.1 3208.84 584.1 3208.84 584.1 3208.84 584.1 3208.84 584.1 3208.84 584.1 3208.84 584.1 3208.84 576.343 3210.13 569.879 3194.67 566 3194.67 613.835 3194.67 613.835 3194.67 613.835 3110.89 613.835 3110.89 613.835 3110.89 613.835 3110.89 568.586 3110.89 568.586 3110.89 568.586 3099.29 572.464 3098 577.636 3098 584.1 3098 584.1 3098 584.1 3098 584.1 3098 584.1 3117.33 657.791 3117.33 768.975 3117.33 878.866 3098 960.315 3098 960.315 3098 971.95 3126.36 981 3161.16 981 3194.67 981 3208.84 971.95 3208.84 960.315 3208.84 960.315 3208.84 960.315 3208.84 960.315 3208.84 960.315 3214 878.866 3214 768.975Z" fill="#9AD7AA" fill-rule="evenodd"/><path d="M3102 587C3103.24 588.294 3121.81 659.471 3121.81 769.471 3121.81 878.177 3105.71 959.706 3104.48 961 3104.48 961 3104.48 961 3104.48 961 3105.71 959.706 3128 878.177 3128 769.471 3128 659.471 3103.24 588.294 3102 587Z" fill="#FFFFFF" fill-rule="evenodd"/><path d="M3210 769.261C3210 878.086 3202.67 959.705 3202.67 961 3202.67 961 3202.67 961 3202.67 961 3202.67 959.705 3199 878.086 3199 769.261 3199 659.141 3202.67 585.296 3202.67 584 3202.67 584 3202.67 584 3202.67 584 3202.67 585.296 3210 659.141 3210 769.261Z" fill="#76C691" fill-rule="evenodd"/><path d="M3214.5 769.475C3214.5 658.291 3209.34 584.6 3209.34 584.6 3209.34 584.6 3209.34 584.6 3209.34 584.6 3209.34 584.6 3209.34 584.6 3209.34 584.6 3209.34 576.843 3210.63 570.378 3195.17 566.5 3195.17 614.335 3195.17 614.335 3195.17 614.335 3111.39 614.335 3111.39 614.335 3111.39 614.335 3111.39 569.086 3111.39 569.086 3111.39 569.086 3099.79 572.964 3098.5 578.135 3098.5 584.6 3098.5 584.6 3098.5 584.6 3098.5 584.6 3098.5 584.6 3117.83 658.291 3117.83 769.475 3117.83 879.366 3098.5 960.815 3098.5 960.815 3098.5 972.45 3126.86 981.5 3161.66 981.5 3195.17 981.5 3209.34 972.45 3209.34 960.815 3209.34 960.815 3209.34 960.815 3209.34 960.815 3209.34 960.815 3214.5 879.366 3214.5 769.475Z" stroke="#333333" stroke-width="2.86476" stroke-linecap="round" stroke-linejoin="round" stroke-miterlimit="10" fill="none" fill-rule="evenodd"/></g></svg>