<svg width="333" height="446" xmlns="http://www.w3.org/2000/svg" xmlns:xlink="http://www.w3.org/1999/xlink" xml:space="preserve" overflow="hidden"><g transform="translate(-1618 -1766)"><path d="M1747.06 1820.22C1747.06 1789.4 1720.83 1781 1703.79 1781 1661.83 1781 1612 1860.84 1619.87 1974.29 1627.73 2086.34 1689.36 2211 1749.68 2211 1810 2211 1779.84 2079.34 1749.68 2024.71 1718.21 1970.09 1699.85 1956.08 1699.85 1919.66 1699.85 1883.25 1747.06 1893.05 1747.06 1820.22Z" fill="#D7E4F3" fill-rule="evenodd"/><path d="M1639.2 1984.11C1631.36 1877.87 1684.91 1793.99 1726.69 1793.99 1726.69 1793.99 1726.69 1793.99 1728 1793.99 1718.86 1788.4 1709.72 1787 1703.19 1787 1661.4 1787 1617 1869.48 1624.84 1975.72 1631.36 2065.19 1671.85 2161.64 1717.55 2191 1675.76 2151.86 1645.73 2076.37 1639.2 1984.11Z" fill="#EDF3F9" fill-rule="evenodd"/><path d="M1624.91 1976C1617 1869.6 1661.82 1787 1704 1787 1681.59 1795.4 1631.5 1843 1624.91 1976Z" fill="#FFFFFF" fill-rule="evenodd"/><path d="M1820.63 1820.22C1820.63 1789.4 1848.17 1781 1863.9 1781 1907.17 1781 1957 1860.84 1949.13 1974.29 1941.26 2086.34 1879.64 2211 1819.32 2211 1759 2211 1787.85 2079.34 1819.32 2024.71 1849.48 1970.09 1867.83 1956.08 1867.83 1919.66 1867.83 1883.25 1820.63 1893.05 1820.63 1820.22Z" fill="#D7E4F3" fill-rule="evenodd"/><path d="M1845.35 2028.9C1877.04 1975.85 1881 1952.12 1881 1915.83 1881 1879.54 1838.74 1892.1 1838.74 1819.52 1838.74 1808.35 1838.74 1801.38 1842.71 1793 1833.46 1798.58 1826.86 1805.56 1826.86 1820.92 1826.86 1893.5 1875.72 1876.75 1875.72 1920.02 1875.72 1956.31 1857.23 1970.27 1826.86 2024.71 1801.77 2067.98 1778 2160.1 1800.45 2195 1793.85 2150.33 1824.22 2067.98 1845.35 2028.9Z" fill="#EDF3F9" fill-rule="evenodd"/><path d="M1723.77 2028.9C1692.6 1975.85 1690 1952.12 1690 1915.83 1690 1879.54 1736.75 1875.35 1736.75 1825.1 1738.05 1812.54 1736.75 1799.98 1727.66 1793 1736.75 1798.58 1741.95 1805.56 1741.95 1820.92 1741.95 1893.5 1693.9 1876.75 1693.9 1920.02 1693.9 1956.31 1712.08 1970.27 1743.25 2024.71 1766.62 2067.98 1790 2160.1 1769.22 2195 1774.42 2150.33 1745.84 2067.98 1723.77 2028.9Z" fill="#A9C7E6" fill-rule="evenodd"/><path d="M1769.14 2195C1790 2160.13 1766.54 2068.08 1743.07 2024.84 1732.64 2008.11 1724.82 1994.16 1717 1983 1735.25 2026.24 1788.7 2139.21 1769.14 2195Z" fill="#86B0D5" fill-rule="evenodd"/><path d="M1766 2207C1771.14 2204.15 1776.29 2202.73 1784 2202.73 1791.71 2202.73 1798.14 2204.15 1802 2207 1790.43 2198.45 1785.29 2181.36 1784 2160 1784 2181.36 1777.57 2199.88 1766 2207Z" fill="#006DAF" fill-rule="evenodd"/><path d="M1703.81 1781.01C1720.87 1781.01 1747.11 1789.42 1747.11 1820.26 1747.11 1893.13 1699.87 1883.32 1699.87 1919.76 1699.87 1956.2 1718.24 1970.21 1749.73 2024.87 1766.79 2054.3 1782.53 2108.96 1783.84 2151 1785.16 2108.96 1802.21 2054.3 1819.27 2024.87 1849.45 1970.21 1867.82 1956.2 1867.82 1919.76 1867.82 1883.32 1820.58 1893.13 1820.58 1820.26 1820.58 1789.42 1848.13 1781.01 1863.88 1781.01 1867.82 1781.01 1871.75 1781.01 1877 1782.42 1877 1782.42 1877 1782.42 1877 1782.42 1857.32 1774.01 1821.89 1767 1783.84 1767 1783.84 1767 1783.84 1767 1783.84 1767 1747.11 1767 1711.68 1774.01 1692 1782.42 1692 1782.42 1692 1782.42 1692 1782.42 1695.94 1781.01 1699.87 1781.01 1703.81 1781.01Z" fill="#86B0D5" fill-rule="evenodd"/><path d="M1820.75 1820.72C1820.75 1816.53 1820.75 1813.73 1822.06 1810.94 1815.5 1808.14 1808.94 1806.75 1799.75 1808.14 1797.12 1808.14 1795.81 1809.54 1799.75 1810.94 1806.31 1813.73 1811.56 1819.32 1811.56 1831.89 1811.56 1852.84 1816.81 1883.58 1837.81 1900.34 1865.38 1924.09 1848.31 1939.45 1827.31 1977.17 1818.12 1993.93 1811.56 2014.88 1807.62 2031.65 1807.62 2031.65 1807.62 2031.65 1807.62 2033.04 1801.06 2051.2 1793.19 2070.76 1784 2059.58 1780.06 2052.6 1776.12 2040.03 1774.81 2033.04 1774.81 2034.44 1774.81 2034.44 1774.81 2034.44 1773.5 2030.25 1772.19 2024.66 1769.56 2020.47 1752.5 1977.17 1730.19 1949.23 1732.81 1919.89 1736.75 1890.56 1761.69 1883.58 1765.62 1845.86 1769.56 1808.14 1769.56 1789.98 1818.12 1788.59 1797.12 1783 1761.69 1784.4 1736.75 1792.78 1743.31 1799.76 1747.25 1808.14 1747.25 1820.72 1747.25 1893.35 1700 1883.58 1700 1919.89 1700 1956.21 1718.37 1970.18 1749.87 2024.66 1763 2048.41 1774.81 2084.73 1781.37 2119.65 1781.37 2123.84 1781.37 2123.84 1781.37 2123.84 1781.37 2125.24 1782.69 2126.63 1782.69 2129.43 1782.69 2133.62 1784 2137.81 1784 2142 1784 2142 1784 2142 1784 2142 1784 2142 1784 2139.21 1784 2133.62 1789.25 2116.86 1790.56 2098.7 1795.81 2083.33 1797.12 2077.74 1798.44 2072.16 1801.06 2066.57 1801.06 2066.57 1801.06 2066.57 1801.06 2067.96 1806.31 2051.2 1812.88 2035.84 1819.44 2024.66 1849.62 1970.18 1868 1956.21 1868 1919.89 1868 1883.58 1820.75 1893.35 1820.75 1820.72Z" fill="#2C8BC1" fill-rule="evenodd"/><path d="M1845 1994C1838.5 2003.8 1833.3 2013.6 1826.8 2024.8 1812.5 2051.4 1798.2 2094.8 1793 2134" fill="#FFFFFF" fill-rule="evenodd"/><path d="M1837.67 1865C1831 1855.31 1827 1841.46 1827 1820.69 1827 1805.46 1833.67 1798.54 1843 1793 1833.67 1801.31 1827 1835.92 1837.67 1865Z" fill="#FFFFFF" fill-rule="evenodd"/><path d="M1929.94 1983.9C1936.52 1883.15 1897.03 1781 1852.27 1789.4 1849.63 1789.4 1847 1789.4 1849.63 1789.4 1854.9 1786.6 1861.48 1786.6 1865.43 1786.6 1906.24 1786.6 1951 1869.16 1944.42 1975.51 1937.84 2065.06 1897.03 2161.61 1850.95 2191 1893.08 2151.82 1923.35 2076.26 1929.94 1983.9Z" fill="#A9C7E6" fill-rule="evenodd"/><path d="M1786 1811C1787.5 1811 1787.5 1809 1789 1809 1787.5 1809 1786 1811 1786 1811Z" fill="#2C8BC1" fill-rule="evenodd"/><path d="M1731 1778C1742.92 1771.12 1803.86 1767 1833 1776.62 1825.05 1775.25 1746.9 1772.5 1731 1778Z" fill="#FFFFFF" fill-rule="evenodd"/><path d="M1834.3 1869C1838.19 1880.23 1843.37 1887.26 1853.74 1901.3 1862.81 1915.34 1862.81 1927.98 1856.33 1946.23 1851.15 1965.89 1833 2001 1833 2001 1835.59 1999.6 1835.59 1999.6 1835.59 1999.6 1856.33 1964.49 1868 1949.04 1868 1919.55 1868 1894.28 1847.26 1891.47 1834.3 1869Z" fill="#006DAF" fill-rule="evenodd"/><path d="M1784.93 2084.88C1777.09 2083.48 1773.17 2070.89 1767.95 2056.91 1753.57 2002.37 1720.91 1964.61 1718.29 1945.03 1714.37 1921.26 1719.6 1905.88 1732.67 1894.69 1745.73 1882.1 1750.96 1862.52 1752.27 1838.75 1753.57 1830.36 1753.57 1823.37 1752.27 1819.17 1753.57 1807.98 1750.96 1798.2 1764.03 1795.4 1758.8 1794 1753.57 1794 1749.65 1795.4 1747.04 1795.4 1743.12 1798.2 1740.51 1796.8 1741.81 1799.59 1741.81 1799.59 1741.81 1799.59 1744.43 1799.59 1745.73 1802.39 1745.73 1805.19 1744.43 1803.79 1744.43 1802.39 1743.12 1799.59 1741.81 1800.99 1741.81 1800.99 1741.81 1800.99 1745.73 1805.19 1747.04 1812.18 1747.04 1820.57 1747.04 1893.29 1700 1883.5 1700 1919.86 1700 1956.22 1718.29 1970.2 1749.65 2024.74 1753.57 2031.73 1756.19 2038.73 1760.11 2048.52 1761.41 2052.71 1765.33 2065.3 1773.17 2086.27 1774.48 2087.67 1774.48 2089.07 1774.48 2090.47 1774.48 2090.47 1774.48 2090.47 1774.48 2090.47 1783.63 2115.64 1783.63 2152 1784.93 2139.41 1784.93 2125.43 1798 2073.69 1798 2073.69 1798 2073.69 1791.47 2084.88 1784.93 2084.88Z" fill="#006DAF" fill-rule="evenodd"/><path d="M1932.11 1863C1943.05 1902.12 1954 1974.77 1928 2060 1936.21 2019.48 1945.79 1925.87 1932.11 1863Z" fill="#86B0D5" fill-rule="evenodd"/><path d="M1839.15 1907C1860 1937.95 1822.21 1961.86 1817 1990 1818.3 1968.9 1832.64 1957.64 1839.15 1940.76 1843.06 1932.32 1844.36 1914.03 1839.15 1907" fill="#FFFFFF" fill-rule="evenodd"/><path d="M1747.06 1820.22C1747.06 1789.4 1720.83 1781 1703.79 1781 1661.83 1781 1612 1860.84 1619.87 1974.29 1627.73 2086.34 1689.36 2211 1749.68 2211 1810 2211 1779.84 2079.34 1749.68 2024.71 1718.21 1970.09 1699.85 1956.08 1699.85 1919.66 1699.85 1883.25 1747.06 1893.05 1747.06 1820.22Z" stroke="#000000" stroke-width="2.29167" stroke-linecap="round" stroke-linejoin="round" stroke-miterlimit="10" fill="none" fill-rule="evenodd"/><path d="M1820.63 1820.22C1820.63 1789.4 1848.17 1781 1863.9 1781 1907.17 1781 1957 1860.84 1949.13 1974.29 1941.26 2086.34 1879.64 2211 1819.32 2211 1759 2211 1787.85 2079.34 1819.32 2024.71 1849.48 1970.09 1867.83 1956.08 1867.83 1919.66 1867.83 1883.25 1820.63 1893.05 1820.63 1820.22Z" stroke="#000000" stroke-width="2.29167" stroke-linecap="round" stroke-linejoin="round" stroke-miterlimit="10" fill="none" fill-rule="evenodd"/><path d="M1703.81 1781.01C1720.87 1781.01 1747.11 1789.42 1747.11 1820.26 1747.11 1893.13 1699.87 1883.32 1699.87 1919.76 1699.87 1956.2 1718.24 1970.21 1749.73 2024.87 1766.79 2054.3 1782.53 2108.96 1783.84 2151 1785.16 2108.96 1802.21 2054.3 1819.27 2024.87 1849.45 1970.21 1867.82 1956.2 1867.82 1919.76 1867.82 1883.32 1820.58 1893.13 1820.58 1820.26 1820.58 1789.42 1848.13 1781.01 1863.88 1781.01 1867.82 1781.01 1871.75 1781.01 1877 1782.42 1877 1782.42 1877 1782.42 1877 1782.42 1857.32 1774.01 1821.89 1767 1783.84 1767 1783.84 1767 1783.84 1767 1783.84 1767 1747.11 1767 1711.68 1774.01 1692 1782.42 1692 1782.42 1692 1782.42 1692 1782.42 1695.94 1781.01 1699.87 1781.01 1703.81 1781.01Z" stroke="#000000" stroke-width="2.29167" stroke-linecap="round" stroke-linejoin="round" stroke-miterlimit="10" fill="none" fill-rule="evenodd"/><path d="M1766 2207C1771.14 2204.15 1776.29 2202.73 1784 2202.73 1791.71 2202.73 1798.14 2204.15 1802 2207 1790.43 2198.45 1785.29 2181.36 1784 2160 1784 2181.36 1777.57 2199.88 1766 2207Z" stroke="#000000" stroke-width="2.29167" stroke-linecap="round" stroke-linejoin="round" stroke-miterlimit="10" fill="none" fill-rule="evenodd"/></g></svg>