<svg width="335" height="446" xmlns="http://www.w3.org/2000/svg" xmlns:xlink="http://www.w3.org/1999/xlink" xml:space="preserve" overflow="hidden"><g transform="translate(-2405 -1126)"><path d="M2534.74 1180.13C2534.74 1149.38 2508.38 1141 2491.25 1141 2449.08 1141 2399 1220.65 2406.91 1333.84 2414.81 1445.63 2476.75 1570 2537.38 1570 2598 1570 2567.69 1438.64 2537.38 1384.15 2505.75 1329.65 2487.3 1315.67 2487.3 1279.34 2487.3 1243.01 2534.74 1252.79 2534.74 1180.13Z" fill="#EB7165" fill-rule="evenodd"/><path d="M2427.2 1343.6C2419.36 1237.09 2472.91 1153.01 2514.69 1153.01 2514.69 1153.01 2514.69 1153.01 2516 1153.01 2506.86 1147.4 2497.72 1146 2491.19 1146 2449.4 1146 2405 1228.68 2412.83 1335.19 2419.36 1424.88 2459.85 1521.57 2505.55 1551 2463.76 1511.76 2433.73 1436.09 2427.2 1343.6Z" fill="#F4AD9F" fill-rule="evenodd"/><path d="M2412.91 1335C2405 1228.6 2449.82 1146 2492 1146 2469.59 1154.4 2419.5 1202 2412.91 1335Z" fill="#FFFFFF" fill-rule="evenodd"/><path d="M2608.63 1180.13C2608.63 1149.38 2636.17 1141 2651.9 1141 2695.17 1141 2745 1220.65 2737.13 1333.84 2729.26 1445.63 2667.64 1570 2607.32 1570 2547 1570 2575.85 1438.64 2607.32 1384.15 2637.48 1329.65 2655.83 1315.67 2655.83 1279.34 2655.83 1243.01 2608.63 1252.79 2608.63 1180.13Z" fill="#EB7165" fill-rule="evenodd"/><path d="M2633.35 1388.48C2665.04 1335.31 2669 1311.52 2669 1275.14 2669 1238.76 2626.74 1251.35 2626.74 1178.59 2626.74 1167.39 2626.74 1160.4 2630.71 1152 2621.46 1157.6 2614.86 1164.59 2614.86 1179.99 2614.86 1252.75 2663.72 1235.96 2663.72 1279.34 2663.72 1315.72 2645.23 1329.71 2614.86 1384.28 2589.77 1427.66 2566 1520.02 2588.45 1555 2581.85 1510.22 2612.22 1427.66 2633.35 1388.48Z" fill="#F4AD9F" fill-rule="evenodd"/><path d="M2511.1 1388.48C2479.62 1335.31 2477 1311.52 2477 1275.14 2477 1238.76 2524.22 1234.56 2524.22 1184.18 2525.53 1171.59 2524.22 1159 2515.04 1152 2524.22 1157.6 2529.47 1164.59 2529.47 1179.99 2529.47 1252.75 2480.94 1235.96 2480.94 1279.34 2480.94 1315.72 2499.3 1329.71 2530.78 1384.28 2554.39 1427.66 2578 1520.02 2557.01 1555 2562.26 1510.22 2533.4 1427.66 2511.1 1388.48Z" fill="#E5313E" fill-rule="evenodd"/><path d="M2557.14 1555C2578 1519.97 2554.54 1427.48 2531.07 1384.04 2520.64 1367.22 2512.82 1353.21 2505 1342 2523.25 1385.44 2576.7 1498.95 2557.14 1555Z" fill="#C2002C" fill-rule="evenodd"/><path d="M2553 1566C2558.29 1563.21 2563.57 1561.82 2571.5 1561.82 2579.43 1561.82 2586.04 1563.21 2590 1566 2578.11 1557.64 2572.82 1540.91 2571.5 1520 2571.5 1540.91 2564.89 1559.03 2553 1566Z" fill="#840B1E" fill-rule="evenodd"/><path d="M2491.81 1140.98C2508.87 1140.98 2535.11 1149.37 2535.11 1180.12 2535.11 1252.8 2487.87 1243.02 2487.87 1279.36 2487.87 1315.7 2506.24 1329.68 2537.73 1384.2 2554.79 1413.55 2570.53 1468.07 2571.84 1510 2573.16 1468.07 2590.21 1413.55 2607.27 1384.2 2637.45 1329.68 2655.82 1315.7 2655.82 1279.36 2655.82 1243.02 2608.58 1252.8 2608.58 1180.12 2608.58 1149.37 2636.14 1140.98 2651.88 1140.98 2655.82 1140.98 2659.75 1140.98 2665 1142.38 2665 1142.38 2665 1142.38 2665 1142.38 2645.32 1133.99 2609.89 1127 2571.84 1127 2571.84 1127 2571.84 1127 2571.84 1127 2535.11 1127 2499.68 1133.99 2480 1142.38 2480 1142.38 2480 1142.38 2480 1142.38 2483.94 1140.98 2487.87 1140.98 2491.81 1140.98Z" fill="#C2002C" fill-rule="evenodd"/><path d="M2608.03 1179.82C2608.03 1175.62 2608.03 1172.82 2609.34 1170.02 2602.81 1167.21 2596.29 1165.81 2587.16 1167.21 2584.55 1167.21 2583.24 1168.61 2587.16 1170.02 2593.68 1172.82 2598.9 1178.42 2598.9 1191.03 2598.9 1212.04 2604.12 1242.86 2624.99 1259.67 2652.39 1283.48 2635.43 1298.89 2614.55 1336.71 2605.42 1353.52 2598.9 1374.53 2594.98 1391.34 2594.98 1391.34 2594.98 1391.34 2594.98 1392.74 2588.46 1410.95 2580.63 1430.56 2571.5 1419.35 2567.59 1412.35 2563.67 1399.74 2562.37 1392.74 2562.37 1394.14 2562.37 1394.14 2562.37 1394.14 2561.06 1389.94 2559.76 1384.33 2557.15 1380.13 2540.19 1336.71 2518.01 1308.69 2520.62 1279.28 2524.53 1249.86 2549.32 1242.86 2553.23 1205.03 2557.15 1167.21 2557.15 1149 2605.42 1147.6 2584.55 1142 2549.32 1143.4 2524.53 1151.81 2531.05 1158.81 2534.97 1167.21 2534.97 1179.82 2534.97 1252.66 2488 1242.86 2488 1279.28 2488 1315.7 2506.27 1329.7 2537.58 1384.33 2550.62 1408.15 2562.37 1444.57 2568.89 1479.59 2568.89 1483.79 2568.89 1483.79 2568.89 1483.79 2568.89 1485.19 2570.2 1486.59 2570.2 1489.39 2570.2 1493.6 2571.5 1497.8 2571.5 1502 2571.5 1502 2571.5 1502 2571.5 1502 2571.5 1502 2571.5 1499.2 2571.5 1493.6 2576.72 1476.79 2578.02 1458.58 2583.24 1443.17 2584.55 1437.56 2585.85 1431.96 2588.46 1426.36 2588.46 1426.36 2588.46 1426.36 2588.46 1427.76 2593.68 1410.95 2600.2 1395.54 2606.73 1384.33 2636.73 1329.7 2655 1315.7 2655 1279.28 2655 1242.86 2608.03 1252.66 2608.03 1179.82Z" fill="#A70626" fill-rule="evenodd"/><path d="M2633 1354C2626.5 1363.8 2621.3 1373.6 2614.8 1384.8 2600.5 1411.4 2586.2 1454.8 2581 1494" fill="#FFFFFF" fill-rule="evenodd"/><path d="M2625.67 1225C2619 1215.17 2615 1201.13 2615 1180.08 2615 1164.63 2621.67 1157.62 2631 1152 2621.67 1160.42 2615 1195.52 2625.67 1225Z" fill="#FFFFFF" fill-rule="evenodd"/><path d="M2717.94 1343.9C2724.52 1243.15 2685.03 1141 2640.27 1149.4 2637.63 1149.4 2635 1149.4 2637.63 1149.4 2642.9 1146.6 2649.48 1146.6 2653.43 1146.6 2694.24 1146.6 2739 1229.16 2732.42 1335.51 2725.84 1425.06 2685.03 1521.61 2638.95 1551 2681.08 1511.82 2711.35 1436.26 2717.94 1343.9Z" fill="#E5313E" fill-rule="evenodd"/><path d="M2574 1170C2575.5 1170 2575.5 1169 2577 1169 2575.5 1169 2574 1170 2574 1170Z" fill="#A70626" fill-rule="evenodd"/><path d="M2519 1138C2530.81 1131.13 2591.14 1127 2620 1136.63 2612.13 1135.25 2534.74 1132.5 2519 1138Z" fill="#FFFFFF" fill-rule="evenodd"/><path d="M2621.3 1229C2625.19 1240.23 2630.37 1247.26 2640.74 1261.3 2649.81 1275.34 2649.81 1287.98 2643.33 1306.23 2638.15 1325.89 2620 1361 2620 1361 2622.59 1359.6 2622.59 1359.6 2622.59 1359.6 2643.33 1324.49 2655 1309.04 2655 1279.55 2655 1254.28 2634.26 1251.47 2621.3 1229Z" fill="#840B1E" fill-rule="evenodd"/><path d="M2572.93 1444.69C2565.09 1443.29 2561.17 1430.66 2555.95 1416.64 2541.57 1361.95 2508.91 1324.09 2506.29 1304.45 2502.37 1280.61 2507.6 1265.19 2520.67 1253.97 2533.73 1241.35 2538.96 1221.71 2540.27 1197.87 2541.57 1189.46 2541.57 1182.45 2540.27 1178.24 2541.57 1167.02 2538.96 1157.21 2552.03 1154.4 2546.8 1153 2541.57 1153 2537.65 1154.4 2535.04 1154.4 2531.12 1157.21 2528.51 1155.8 2529.81 1158.61 2529.81 1158.61 2529.81 1158.61 2532.43 1158.61 2533.73 1161.41 2533.73 1164.22 2532.43 1162.82 2532.43 1161.41 2531.12 1158.61 2529.81 1160.01 2529.81 1160.01 2529.81 1160.01 2533.73 1164.22 2535.04 1171.23 2535.04 1179.64 2535.04 1252.57 2488 1242.75 2488 1279.21 2488 1315.67 2506.29 1329.7 2537.65 1384.39 2541.57 1391.4 2544.19 1398.41 2548.11 1408.23 2549.41 1412.43 2553.33 1425.05 2561.17 1446.09 2562.48 1447.49 2562.48 1448.89 2562.48 1450.3 2562.48 1450.3 2562.48 1450.3 2562.48 1450.3 2571.63 1475.54 2571.63 1512 2572.93 1499.38 2572.93 1485.36 2586 1433.47 2586 1433.47 2586 1433.47 2579.47 1444.69 2572.93 1444.69Z" fill="#840B1E" fill-rule="evenodd"/><path d="M2719.95 1222C2730.47 1261.12 2741 1333.77 2716 1419 2723.89 1378.48 2733.11 1284.87 2719.95 1222Z" fill="#C2002C" fill-rule="evenodd"/><path d="M2626.67 1267C2648 1297.58 2609.33 1321.2 2604 1349 2605.33 1328.15 2620 1317.03 2626.67 1300.36 2630.67 1292.02 2632 1273.95 2626.67 1267" fill="#FFFFFF" fill-rule="evenodd"/><path d="M2535.24 1180.63C2535.24 1149.88 2508.88 1141.5 2491.75 1141.5 2449.58 1141.5 2399.5 1221.15 2407.41 1334.34 2415.31 1446.13 2477.25 1570.5 2537.88 1570.5 2598.5 1570.5 2568.19 1439.15 2537.88 1384.65 2506.25 1330.15 2487.8 1316.17 2487.8 1279.84 2487.8 1243.51 2535.24 1253.29 2535.24 1180.63Z" stroke="#000000" stroke-width="2.86476" stroke-linecap="round" stroke-linejoin="round" stroke-miterlimit="10" fill="none" fill-rule="evenodd"/><path d="M2609.13 1180.63C2609.13 1149.88 2636.67 1141.5 2652.4 1141.5 2695.67 1141.5 2745.5 1221.15 2737.63 1334.34 2729.76 1446.13 2668.14 1570.5 2607.82 1570.5 2547.5 1570.5 2576.35 1439.15 2607.82 1384.65 2637.98 1330.15 2656.33 1316.17 2656.33 1279.84 2656.33 1243.51 2609.13 1253.29 2609.13 1180.63Z" stroke="#000000" stroke-width="2.86476" stroke-linecap="round" stroke-linejoin="round" stroke-miterlimit="10" fill="none" fill-rule="evenodd"/><path d="M2492.31 1141.48C2509.37 1141.48 2535.61 1149.86 2535.61 1180.62 2535.61 1253.3 2488.37 1243.52 2488.37 1279.86 2488.37 1316.2 2506.74 1330.18 2538.23 1384.7 2555.29 1414.05 2571.03 1468.57 2572.34 1510.5 2573.66 1468.57 2590.71 1414.05 2607.77 1384.7 2637.95 1330.18 2656.32 1316.2 2656.32 1279.86 2656.32 1243.52 2609.08 1253.3 2609.08 1180.62 2609.08 1149.86 2636.63 1141.48 2652.38 1141.48 2656.32 1141.48 2660.25 1141.48 2665.5 1142.88 2665.5 1142.88 2665.5 1142.88 2665.5 1142.88 2645.82 1134.49 2610.39 1127.5 2572.34 1127.5 2572.34 1127.5 2572.34 1127.5 2572.34 1127.5 2535.61 1127.5 2500.18 1134.49 2480.5 1142.88 2480.5 1142.88 2480.5 1142.88 2480.5 1142.88 2484.44 1141.48 2488.37 1141.48 2492.31 1141.48Z" stroke="#000000" stroke-width="2.86476" stroke-linecap="round" stroke-linejoin="round" stroke-miterlimit="10" fill="none" fill-rule="evenodd"/><path d="M2553.5 1566.5C2558.79 1563.71 2564.07 1562.32 2572 1562.32 2579.93 1562.32 2586.54 1563.71 2590.5 1566.5 2578.61 1558.14 2573.32 1541.41 2572 1520.5 2572 1541.41 2565.39 1559.53 2553.5 1566.5Z" stroke="#000000" stroke-width="2.86476" stroke-linecap="round" stroke-linejoin="round" stroke-miterlimit="10" fill="none" fill-rule="evenodd"/></g></svg>