<svg width="203" height="405" xmlns="http://www.w3.org/2000/svg" xmlns:xlink="http://www.w3.org/1999/xlink" xml:space="preserve" overflow="hidden"><g transform="translate(-1700 -580)"><path d="M1749.29 979C1828 979 1797.03 814.243 1769.94 728.003 1749.29 663.645 1760.9 598 1720.9 598 1719.61 598 1719.61 598 1719.61 598 1680.9 598 1714.45 661.071 1726.06 728.003 1744.13 828.402 1668 979 1748 979L1749.29 979Z" fill="#FDD5C9" fill-rule="evenodd"/><path d="M1854 979C1774 979 1804.97 814.243 1832.06 728.003 1854 663.645 1841.1 598 1881.1 598 1882.39 598 1882.39 598 1882.39 598 1922.39 598 1887.55 661.071 1875.94 728.003 1859.16 828.402 1934 979 1855.29 979L1854 979Z" fill="#FDD5C9" fill-rule="evenodd"/><path d="M1801.21 581C1754.75 581 1717.32 590.013 1707 601.601 1709.58 599.026 1714.74 597.738 1719.91 597.738 1721.2 597.738 1721.2 597.738 1721.2 597.738 1761.2 597.738 1749.59 663.403 1770.24 727.78 1797.34 814.045 1828.31 978.85 1749.59 978.85 1748.3 978.85 1748.3 978.85 1748.3 978.85 1745.72 978.85 1743.14 978.85 1740.55 977.562 1757.33 982.713 1776.69 984 1801.21 984 1825.73 984 1846.38 982.713 1863.16 977.562 1860.57 978.85 1857.99 978.85 1855.41 978.85 1854.12 978.85 1854.12 978.85 1854.12 978.85 1774.11 978.85 1805.08 814.045 1832.18 727.78 1854.12 663.403 1841.22 597.738 1881.22 597.738 1882.51 597.738 1882.51 597.738 1882.51 597.738 1890.26 597.738 1895.42 600.313 1898 605.463 1892.84 591.3 1852.83 581 1801.21 581Z" fill="#FBA494" fill-rule="evenodd"/><path d="M1801.21 581C1754.75 581 1717.32 590.013 1707 601.601 1709.58 599.026 1714.74 597.738 1719.91 597.738 1721.2 597.738 1721.2 597.738 1721.2 597.738 1761.2 597.738 1749.59 663.403 1770.24 727.78 1797.34 814.045 1828.31 978.85 1749.59 978.85 1748.3 978.85 1748.3 978.85 1748.3 978.85 1745.72 978.85 1743.14 978.85 1740.55 977.562 1757.33 982.713 1776.69 984 1801.21 984 1825.73 984 1846.38 982.713 1863.16 977.562 1860.57 978.85 1857.99 978.85 1855.41 978.85 1854.12 978.85 1854.12 978.85 1854.12 978.85 1774.11 978.85 1805.08 814.045 1832.18 727.78 1854.12 663.403 1841.22 597.738 1881.22 597.738 1882.51 597.738 1882.51 597.738 1882.51 597.738 1890.26 597.738 1895.42 600.313 1898 605.463 1892.84 591.3 1852.83 581 1801.21 581ZM1802.5 955.674C1803.79 960.824 1806.37 964.687 1808.95 968.55 1810.24 969.837 1811.53 971.125 1812.82 972.412 1808.95 972.412 1806.37 972.412 1801.21 972.412 1796.05 972.412 1794.76 972.412 1789.59 972.412 1790.89 971.125 1792.18 969.837 1793.47 968.55 1796.05 964.687 1798.63 960.824 1799.92 955.674 1802.5 953.099 1801.21 953.099 1802.5 955.674ZM1847.67 608.038C1839.93 620.914 1837.34 640.227 1834.76 660.827 1832.18 680.141 1828.31 703.316 1821.86 725.204 1819.28 731.642 1811.53 754.818 1805.08 787.006 1802.5 797.307 1799.92 797.307 1797.34 787.006 1790.89 756.105 1783.14 731.642 1780.56 725.204 1774.11 703.316 1771.53 680.141 1767.66 660.827 1765.07 641.514 1762.49 623.489 1756.04 609.326 1753.46 604.176 1779.27 595.163 1802.5 595.163 1825.73 595.163 1848.96 604.176 1847.67 608.038Z" fill="#FA7370" fill-rule="evenodd"/><path d="M1717.4 673.669C1722.6 690.413 1729.1 711.02 1731.7 730.339 1738.2 770.265 1731.7 817.918 1723.9 859.132 1718.7 892.619 1712.2 924.817 1716.1 948 1716.1 948 1716.1 948 1716.1 948 1712.2 926.105 1725.2 892.619 1731.7 859.132 1738.2 816.63 1746 768.977 1739.5 729.051 1735.6 708.444 1730.4 689.125 1725.2 671.093 1718.7 649.198 1707 629.879 1707 617 1707 617 1707 617 1707 617 1707 631.167 1712.2 651.774 1717.4 673.669Z" fill="#FFFFFF" fill-rule="evenodd"/><path d="M1770.22 728.003C1750.95 667.507 1759.94 605.723 1727.84 598 1753.52 627.605 1744.53 676.517 1758.66 720.281 1786.91 806.52 1810.02 960.98 1730.41 960.98 1729.12 960.98 1729.12 960.98 1729.12 960.98 1723.99 960.98 1720.14 960.98 1715 959.693 1720.14 971.277 1730.41 979 1748.39 979 1749.67 979 1749.67 979 1749.67 979 1828 979 1797.18 814.243 1770.22 728.003Z" fill="#FCBCAD" fill-rule="evenodd"/><path d="M1885.3 673.669C1881.4 690.413 1874.9 711.02 1872.3 730.339 1864.5 770.265 1872.3 817.918 1880.1 859.132 1885.3 892.619 1891.8 924.817 1887.9 948 1887.9 948 1887.9 948 1887.9 948 1891.8 926.105 1878.8 892.619 1872.3 859.132 1865.8 816.63 1858 768.977 1864.5 729.051 1868.4 708.444 1873.6 689.125 1878.8 671.093 1885.3 649.198 1897 629.879 1895.7 617 1895.7 617 1895.7 617 1895.7 617 1897 631.167 1891.8 651.774 1885.3 673.669Z" fill="#FCBCAD" fill-rule="evenodd"/><path d="M1850.26 662.425C1847.71 681.768 1845.16 704.981 1837.51 728.193 1814.57 799.12 1798 899.707 1819.67 950 1819.67 950 1819.67 950 1819.67 950 1798 897.128 1824.76 796.541 1842.61 739.799 1848.98 716.587 1852.8 686.927 1855.35 666.293 1857.9 648.239 1857.9 627.606 1863 616 1863 616 1863 616 1863 616 1857.9 628.896 1852.8 643.081 1850.26 662.425Z" fill="#FFFFFF" fill-rule="evenodd"/><path d="M1895.69 618C1897 629.627 1890.46 647.712 1883.92 673.549 1878.69 691.634 1873.46 711.012 1869.54 731.681 1863 771.728 1870.85 819.525 1877.38 860.864 1878.69 871.199 1878.69 871.199 1878.69 871.199 1883.92 900.911 1890.46 929.331 1887.85 950 1887.85 950 1887.85 950 1887.85 950 1890.46 928.039 1889.15 900.911 1883.92 871.199 1881.31 860.864 1881.31 860.864 1881.31 860.864 1874.77 818.234 1866.92 771.728 1873.46 732.973 1877.38 712.304 1882.62 692.926 1887.85 674.841 1895.69 649.004 1897 630.918 1895.69 618Z" fill="#FFFFFF" fill-rule="evenodd"/><path d="M1884.87 674.841C1879.8 691.634 1873.47 712.304 1870.93 731.681 1864.6 771.728 1870.93 818.234 1878.53 860.864 1883.6 894.451 1889.93 926.747 1886.13 950 1886.13 950 1886.13 950 1886.13 950 1889.93 926.747 1877.27 894.451 1870.93 860.864 1864.6 818.234 1857 770.436 1863.33 730.389 1867.13 709.72 1872.2 690.342 1877.27 672.257 1883.6 650.296 1895 630.918 1895 618 1895 618 1895 618 1895 618 1895 632.21 1889.93 652.879 1884.87 674.841Z" fill="#FCBCAD" fill-rule="evenodd"/><path d="M1790 596C1773.34 601.128 1764.38 625.487 1765.66 646 1764.38 638.308 1749 603.692 1759.25 599.846" fill="#FA7370" fill-rule="evenodd"/><path d="M1756 604.385C1757.29 605.692 1757.29 605.692 1757.29 605.692 1761.17 600.462 1776.67 595.231 1802.5 595.231 1829.62 595.231 1845.12 600.462 1847.71 607 1849 607 1849 607 1849 607 1845.12 596.538 1824.46 590 1802.5 590 1777.96 590 1762.46 597.846 1756 604.385Z" fill="#FFFFFF" fill-rule="evenodd"/><path d="M1749.29 979C1828 979 1797.03 814.243 1769.94 728.003 1749.29 663.645 1760.9 598 1720.9 598 1719.61 598 1719.61 598 1719.61 598 1680.9 598 1714.45 661.071 1726.06 728.003 1744.13 828.402 1668 979 1748 979L1749.29 979Z" stroke="#333333" stroke-width="2.29167" stroke-linecap="round" stroke-linejoin="round" stroke-miterlimit="10" fill="none" fill-rule="evenodd"/><path d="M1854 979C1774 979 1804.97 814.243 1832.06 728.003 1854 663.645 1841.1 598 1881.1 598 1882.39 598 1882.39 598 1882.39 598 1922.39 598 1887.55 661.071 1875.94 728.003 1859.16 828.402 1934 979 1855.29 979L1854 979Z" stroke="#333333" stroke-width="2.29167" stroke-linecap="round" stroke-linejoin="round" stroke-miterlimit="10" fill="none" fill-rule="evenodd"/><path d="M1801.21 581C1754.75 581 1717.32 590.013 1707 601.601 1709.58 599.026 1714.74 597.738 1719.91 597.738 1721.2 597.738 1721.2 597.738 1721.2 597.738 1761.2 597.738 1749.59 663.403 1770.24 727.78 1797.34 814.045 1828.31 978.85 1749.59 978.85 1748.3 978.85 1748.3 978.85 1748.3 978.85 1745.72 978.85 1743.14 978.85 1740.55 977.562 1757.33 982.713 1776.69 984 1801.21 984 1825.73 984 1846.38 982.713 1863.16 977.562 1860.57 978.85 1857.99 978.85 1855.41 978.85 1854.12 978.85 1854.12 978.85 1854.12 978.85 1774.11 978.85 1805.08 814.045 1832.18 727.78 1854.12 663.403 1841.22 597.738 1881.22 597.738 1882.51 597.738 1882.51 597.738 1882.51 597.738 1890.26 597.738 1895.42 600.313 1898 605.463 1892.84 591.3 1852.83 581 1801.21 581Z" stroke="#333333" stroke-width="2.29167" stroke-linecap="round" stroke-linejoin="round" stroke-miterlimit="10" fill="none" fill-rule="evenodd"/><path d="M1780 970.333C1786.29 971.667 1792.57 973 1801.37 973 1811.43 973 1817.71 971.667 1824 969" stroke="#333333" stroke-width="2.29167" stroke-linecap="round" stroke-linejoin="round" stroke-miterlimit="10" fill="none" fill-rule="evenodd"/><path d="M1851 608C1848.41 601.5 1828.95 595 1803 595 1778.35 595 1761.49 600.2 1755 606.7" stroke="#333333" stroke-width="2.29167" stroke-linecap="round" stroke-linejoin="round" stroke-miterlimit="10" fill="none" fill-rule="evenodd"/><path d="M1836 639C1834.74 653.228 1832.21 682.978 1828.42 701.087 1824.63 717.902 1817.05 743.772 1812 758 1813.26 741.185 1823.37 704.967 1825.89 695.913 1827.16 686.859 1832.21 654.522 1836 639Z" fill="#FFFFFF" fill-rule="evenodd"/></g></svg>