<svg width="334" height="446" xmlns="http://www.w3.org/2000/svg" xmlns:xlink="http://www.w3.org/1999/xlink" xml:space="preserve" overflow="hidden"><g transform="translate(-849 -523)"><path d="M978.742 577.218C978.742 546.404 952.384 538 935.252 538 893.079 538 843 617.837 850.907 731.29 858.814 843.342 920.755 968 981.377 968 1042 968 1011.69 836.339 981.377 781.713 949.748 727.088 931.298 713.081 931.298 676.664 931.298 640.247 978.742 650.052 978.742 577.218Z" fill="#DDE6A5" fill-rule="evenodd"/><path d="M871.2 741.107C863.365 634.865 916.906 550.99 958.694 550.99 958.694 550.99 958.694 550.99 960 550.99 950.859 545.398 941.718 544 935.188 544 893.4 544 849 626.478 856.835 732.72 863.365 822.187 903.847 918.644 949.553 948 907.765 908.858 877.729 833.37 871.2 741.107Z" fill="#F7F9E8" fill-rule="evenodd"/><path d="M856.818 733C849 626.6 893.303 544 935 544 912.849 552.4 863.333 600 856.818 733Z" fill="#FFFFFF" fill-rule="evenodd"/><path d="M1052.63 577.218C1052.63 546.404 1080.17 538 1095.9 538 1139.17 538 1189 617.837 1181.13 731.29 1173.26 843.342 1111.64 968 1051.32 968 991 968 1019.85 836.339 1051.32 781.713 1081.48 727.088 1099.83 713.081 1099.83 676.664 1099.83 640.247 1052.63 650.052 1052.63 577.218Z" fill="#DDE6A5" fill-rule="evenodd"/><path d="M1077.35 785.482C1109.04 732.309 1113 708.521 1113 672.139 1113 635.757 1070.74 648.351 1070.74 575.587 1070.74 564.392 1070.74 557.396 1074.71 549 1065.46 554.597 1058.86 561.594 1058.86 576.986 1058.86 649.75 1107.72 632.958 1107.72 676.337 1107.72 712.719 1089.23 726.712 1058.86 781.285 1033.77 824.663 1010 917.017 1032.45 952 1025.85 907.222 1056.22 824.663 1077.35 785.482Z" fill="#F7F9E8" fill-rule="evenodd"/><path d="M955.104 785.482C923.623 732.309 921 708.521 921 672.139 921 635.757 968.221 631.559 968.221 581.184 969.532 568.59 968.221 555.996 959.039 549 968.221 554.597 973.467 561.594 973.467 576.986 973.467 649.75 924.935 632.958 924.935 676.337 924.935 712.719 943.299 726.712 974.779 781.285 998.39 824.663 1022 917.017 1001.01 952 1006.26 907.222 977.403 824.663 955.104 785.482Z" fill="#AFC819" fill-rule="evenodd"/><path d="M1001.14 952C1022 916.967 998.536 824.48 975.072 781.039 964.643 764.224 956.822 750.211 949 739 967.25 782.441 1020.7 895.947 1001.14 952Z" fill="#62AE24" fill-rule="evenodd"/><path d="M997 963C1002.29 960.212 1007.57 958.818 1015.5 958.818 1023.43 958.818 1030.04 960.212 1034 963 1022.11 954.636 1016.82 937.909 1015.5 917 1015.5 937.909 1008.89 956.03 997 963Z" fill="#4A8920" fill-rule="evenodd"/><path d="M935.809 538.014C952.865 538.014 979.106 546.423 979.106 577.255 979.106 650.131 931.872 640.321 931.872 676.759 931.872 713.197 950.241 727.212 981.73 781.868 998.787 811.299 1014.53 865.956 1015.84 908 1017.16 865.956 1034.21 811.299 1051.27 781.868 1081.45 727.212 1099.82 713.197 1099.82 676.759 1099.82 640.321 1052.58 650.131 1052.58 577.255 1052.58 546.423 1080.13 538.014 1095.88 538.014 1099.82 538.014 1103.75 538.014 1109 539.416 1109 539.416 1109 539.416 1109 539.416 1089.32 531.007 1053.89 524 1015.84 524 1015.84 524 1015.84 524 1015.84 524 979.106 524 943.681 531.007 924 539.416 924 539.416 924 539.416 924 539.416 927.936 538.014 931.872 538.014 935.809 538.014Z" fill="#62AE24" fill-rule="evenodd"/><path d="M1052.75 577.716C1052.75 573.525 1052.75 570.732 1054.06 567.938 1047.5 565.144 1040.94 563.747 1031.75 565.144 1029.12 565.144 1027.81 566.541 1031.75 567.938 1038.31 570.732 1043.56 576.319 1043.56 588.891 1043.56 609.844 1048.81 640.576 1069.81 657.339 1097.38 681.086 1080.31 696.451 1059.31 734.167 1050.12 750.93 1043.56 771.883 1039.62 788.646 1039.62 788.646 1039.62 788.646 1039.62 790.043 1033.06 808.202 1025.19 827.759 1016 816.584 1012.06 809.599 1008.12 797.027 1006.81 790.043 1006.81 791.44 1006.81 791.44 1006.81 791.44 1005.5 787.249 1004.19 781.661 1001.56 777.471 984.5 734.167 962.187 706.23 964.812 676.895 968.75 647.56 993.687 640.576 997.625 602.86 1001.56 565.144 1001.56 546.984 1050.12 545.588 1029.12 540 993.687 541.397 968.75 549.778 975.312 556.763 979.25 565.144 979.25 577.716 979.25 650.354 932 640.576 932 676.895 932 713.214 950.375 727.183 981.875 781.661 995 805.409 1006.81 841.728 1013.37 876.65 1013.37 880.84 1013.37 880.84 1013.37 880.84 1013.37 882.237 1014.69 883.634 1014.69 886.428 1014.69 890.619 1016 894.809 1016 899 1016 899 1016 899 1016 899 1016 899 1016 896.206 1016 890.619 1021.25 873.856 1022.56 855.696 1027.81 840.331 1029.12 834.743 1030.44 829.156 1033.06 823.568 1033.06 823.568 1033.06 823.568 1033.06 824.965 1038.31 808.202 1044.88 792.837 1051.44 781.661 1081.62 727.183 1100 713.214 1100 676.895 1100 640.576 1052.75 650.354 1052.75 577.716Z" fill="#5AA023" fill-rule="evenodd"/><path d="M1078 751C1071.38 760.8 1066.08 770.6 1059.45 781.8 1044.88 808.4 1030.3 851.8 1025 891" fill="#FFFFFF" fill-rule="evenodd"/><path d="M1069.67 622C1063 612.173 1059 598.134 1059 577.077 1059 561.635 1065.67 554.615 1075 549 1065.67 557.423 1059 592.519 1069.67 622Z" fill="#FFFFFF" fill-rule="evenodd"/><path d="M1161.94 740.901C1168.52 640.15 1129.03 538 1084.27 546.396 1081.63 546.396 1079 546.396 1081.63 546.396 1086.9 543.597 1093.48 543.597 1097.43 543.597 1138.24 543.597 1183 626.157 1176.42 732.505 1169.84 822.061 1129.03 918.614 1082.95 948 1125.08 908.819 1155.35 833.256 1161.94 740.901Z" fill="#AFC819" fill-rule="evenodd"/><path d="M1019 568C1020 568 1020 566 1021 566 1020 566 1019 568 1019 568Z" fill="#5AA023" fill-rule="evenodd"/><path d="M963 536C974.922 528.5 1035.86 524 1065 534.5 1057.05 533 978.896 530 963 536Z" fill="#FFFFFF" fill-rule="evenodd"/><path d="M1066.3 626C1070.19 637.234 1075.37 644.255 1085.74 658.298 1094.81 672.34 1094.81 684.979 1088.33 703.234 1083.15 722.894 1065 758 1065 758 1067.59 756.596 1067.59 756.596 1067.59 756.596 1088.33 721.489 1100 706.042 1100 676.553 1100 651.277 1079.26 648.468 1066.3 626Z" fill="#4A8920" fill-rule="evenodd"/><path d="M1016.93 841.687C1009.09 840.285 1005.17 827.664 999.947 813.641 985.573 758.949 952.907 721.086 950.293 701.453 946.373 677.613 951.6 662.187 964.667 650.969 977.733 638.348 982.96 618.715 984.267 594.875 985.573 586.461 985.573 579.449 984.267 575.242 985.573 564.023 982.96 554.207 996.027 551.402 990.8 550 985.573 550 981.653 551.402 979.04 551.402 975.12 554.207 972.507 552.805 973.813 555.609 973.813 555.609 973.813 555.609 976.427 555.609 977.733 558.414 977.733 561.219 976.427 559.816 976.427 558.414 975.12 555.609 973.813 557.012 973.813 557.012 973.813 557.012 977.733 561.219 979.04 568.23 979.04 576.645 979.04 649.566 932 639.75 932 676.211 932 712.672 950.293 726.695 981.653 781.387 985.573 788.398 988.187 795.41 992.107 805.227 993.413 809.433 997.333 822.055 1005.17 843.09 1006.48 844.492 1006.48 845.894 1006.48 847.297 1006.48 847.297 1006.48 847.297 1006.48 847.297 1015.63 872.539 1015.63 909 1016.93 896.379 1016.93 882.355 1030 830.469 1030 830.469 1030 830.469 1023.47 841.687 1016.93 841.687Z" fill="#4A8920" fill-rule="evenodd"/><path d="M1163.95 619C1174.47 658.319 1185 731.341 1160 817 1167.89 776.277 1177.11 682.192 1163.95 619Z" fill="#62AE24" fill-rule="evenodd"/><path d="M1070.67 664C1092 694.949 1053.33 718.864 1048 747 1049.33 725.898 1064 714.644 1070.67 697.763 1074.67 689.322 1076 671.034 1070.67 664" fill="#FFFFFF" fill-rule="evenodd"/><path d="M978.742 577.218C978.742 546.404 952.384 538 935.252 538 893.079 538 843 617.837 850.907 731.29 858.814 843.342 920.755 968 981.377 968 1042 968 1011.69 836.339 981.377 781.713 949.748 727.088 931.298 713.081 931.298 676.664 931.298 640.247 978.742 650.052 978.742 577.218Z" stroke="#000000" stroke-width="2.29167" stroke-linecap="round" stroke-linejoin="round" stroke-miterlimit="10" fill="none" fill-rule="evenodd"/><path d="M1052.63 577.218C1052.63 546.404 1080.17 538 1095.9 538 1139.17 538 1189 617.837 1181.13 731.29 1173.26 843.342 1111.64 968 1051.32 968 991 968 1019.85 836.339 1051.32 781.713 1081.48 727.088 1099.83 713.081 1099.83 676.664 1099.83 640.247 1052.63 650.052 1052.63 577.218Z" stroke="#000000" stroke-width="2.29167" stroke-linecap="round" stroke-linejoin="round" stroke-miterlimit="10" fill="none" fill-rule="evenodd"/><path d="M935.809 538.014C952.865 538.014 979.106 546.423 979.106 577.255 979.106 650.131 931.872 640.321 931.872 676.759 931.872 713.197 950.241 727.212 981.73 781.868 998.787 811.299 1014.53 865.956 1015.84 908 1017.16 865.956 1034.21 811.299 1051.27 781.868 1081.45 727.212 1099.82 713.197 1099.82 676.759 1099.82 640.321 1052.58 650.131 1052.58 577.255 1052.58 546.423 1080.13 538.014 1095.88 538.014 1099.82 538.014 1103.75 538.014 1109 539.416 1109 539.416 1109 539.416 1109 539.416 1089.32 531.007 1053.89 524 1015.84 524 1015.84 524 1015.84 524 1015.84 524 979.106 524 943.681 531.007 924 539.416 924 539.416 924 539.416 924 539.416 927.936 538.014 931.872 538.014 935.809 538.014Z" stroke="#000000" stroke-width="2.29167" stroke-linecap="round" stroke-linejoin="round" stroke-miterlimit="10" fill="none" fill-rule="evenodd"/><path d="M997 963C1002.29 960.212 1007.57 958.818 1015.5 958.818 1023.43 958.818 1030.04 960.212 1034 963 1022.11 954.636 1016.82 937.909 1015.5 917 1015.5 937.909 1008.89 956.03 997 963Z" stroke="#000000" stroke-width="2.29167" stroke-linecap="round" stroke-linejoin="round" stroke-miterlimit="10" fill="none" fill-rule="evenodd"/></g></svg>