<svg width="263" height="440" xmlns="http://www.w3.org/2000/svg" xmlns:xlink="http://www.w3.org/1999/xlink" xml:space="preserve" overflow="hidden"><g transform="translate(-2414 -523)"><path d="M2462.65 956C2543 956 2510.6 790.378 2483.38 703.686 2462.65 638.99 2475.61 573 2435.43 573 2434.14 573 2434.14 573 2434.14 573 2393.96 573 2428.95 636.402 2440.62 703.686 2457.46 804.612 2381 956 2461.35 956L2462.65 956Z" fill="#1556FF" fill-rule="evenodd"/><path d="M2469.5 959.5 2470.5 960.5" stroke="#1780FF" stroke-width="5.15643" stroke-miterlimit="8" fill="none" fill-rule="evenodd"/><path d="M2432.21 649.84C2437.31 666.634 2442.41 687.303 2446.24 707.973 2452.62 746.728 2444.97 794.525 2438.59 835.864 2432.21 869.451 2427.1 901.747 2429.66 925 2429.66 925 2429.66 925 2429.66 925 2427.1 903.039 2439.86 869.451 2444.97 835.864 2451.34 793.233 2459 745.436 2452.62 705.389 2448.79 686.012 2443.69 665.342 2438.59 647.257 2432.21 625.296 2422 605.918 2422 593 2422 593 2422 593 2422 593 2422 607.21 2425.83 627.879 2432.21 649.84Z" fill="#FFFFFF" fill-rule="evenodd"/><path d="M2483.41 704.153C2463.98 643.451 2473.05 581.458 2441.95 575 2466.57 604.705 2458.8 652.492 2473.05 697.695 2500.25 782.936 2523.57 937.919 2443.25 937.919 2443.25 937.919 2443.25 937.919 2443.25 937.919 2436.77 937.919 2432.89 937.919 2429 936.627 2434.18 948.251 2443.25 956 2461.39 956 2462.68 956 2462.68 956 2462.68 956 2543 956 2510.61 790.685 2483.41 704.153Z" fill="#143DED" fill-rule="evenodd"/><path d="M2600.86 956C2521 956 2551.91 790.378 2580.25 703.686 2600.86 638.99 2587.98 573 2627.9 573 2629.19 573 2629.19 573 2629.19 573 2669.12 573 2634.34 636.402 2622.75 703.686 2606.01 804.612 2682 956 2602.14 956L2600.86 956Z" fill="#1556FF" fill-rule="evenodd"/><path d="M2674.54 571.922C2681 531.771 2595.68 524 2562.07 524 2472.88 524 2419.88 551.199 2416 586.169 2417.29 578.397 2422.46 573.217 2434.1 573.217 2435.39 573.217 2435.39 573.217 2435.39 573.217 2475.46 573.217 2462.54 639.271 2483.22 704.03 2509.07 784.331 2537.51 931.982 2478.05 954 2478.05 954 2478.05 954 2478.05 954 2497.44 946.229 2560.78 943.638 2580.17 951.41 2527.17 925.506 2554.32 783.036 2580.17 704.03 2600.85 639.271 2587.93 573.217 2628 573.217 2629.29 573.217 2629.29 573.217 2629.29 573.217 2669.37 573.217 2634.46 636.681 2622.83 704.03 2607.32 794.693 2666.78 924.211 2622.83 951.41 2642.22 943.638 2662.9 912.554 2665.49 895.717 2673.24 845.205 2638.34 748.066 2649.98 676.831 2657.73 636.681 2673.24 596.53 2674.54 571.922Z" fill="#1445F7" fill-rule="evenodd"/><path d="M2459.78 593C2452 571.143 2493.49 550.571 2547.94 549.286 2602.4 548 2640 559.571 2615.37 576.286" fill="#0000AD" fill-rule="evenodd"/><path d="M2548.15 549.293C2496.4 550.586 2455 568.688 2458.88 589.376 2470.52 612.65 2469.23 659.197 2483.46 704.452 2509.34 784.618 2537.8 932.019 2478.29 954 2478.29 954 2478.29 954 2478.29 954 2497.69 946.242 2561.08 943.656 2580.49 951.414 2527.45 925.554 2554.62 783.325 2580.49 704.452 2598.6 647.56 2590.84 590.669 2615.42 576.446 2615.42 576.446 2615.42 576.446 2615.42 576.446 2640 559.637 2602.48 548 2548.15 549.293Z" fill="#1325D4" fill-rule="evenodd"/><path d="M2545 559.295C2580.4 561.885 2580.4 561.885 2580.4 561.885 2588.27 563.18 2590.89 564.475 2593.51 568.361 2594.82 570.951 2593.51 574.836 2590.89 580.016 2583.02 592.967 2585.64 613.688 2581.71 637 2581.71 637 2581.71 637 2581.71 637 2584.33 614.984 2589.58 595.557 2597.44 582.606 2598.76 580.016 2604 570.951 2600.07 564.475 2597.44 560.59 2592.2 558 2584.33 558 2583.02 558 2547.62 560.59 2547.62 560.59L2545 559.295Z" fill="#FFFFFF" fill-rule="evenodd"/><path d="M2548.15 549.293C2496.4 550.586 2455 568.688 2458.88 589.376 2470.52 612.65 2469.23 659.197 2483.46 704.452 2509.34 784.618 2537.8 932.019 2478.29 954 2478.29 954 2478.29 954 2478.29 954 2497.69 946.242 2561.08 943.656 2580.49 951.414 2527.45 925.554 2554.62 783.325 2580.49 704.452 2598.6 647.56 2590.84 590.669 2615.42 576.446 2615.42 576.446 2615.42 576.446 2615.42 576.446 2640 559.637 2602.48 548 2548.15 549.293ZM2550.73 934.605C2541.68 933.312 2527.45 932.019 2513.22 935.898 2527.45 932.019 2530.03 906.159 2531.33 902.28 2532.62 906.159 2539.09 933.312 2550.73 934.605ZM2596.01 581.618C2588.25 594.548 2585.66 613.943 2581.78 637.216 2579.2 656.611 2575.31 679.885 2568.85 701.866 2566.26 707.038 2561.08 726.433 2554.62 752.293 2546.85 774.274 2522.27 776.86 2513.22 756.172 2502.87 732.898 2496.4 707.038 2495.1 701.866 2487.34 679.885 2484.76 656.611 2482.17 637.216 2478.29 617.822 2475.7 599.72 2470.52 586.79 2470.52 586.79 2470.52 586.79 2470.52 585.497 2470.52 584.204 2470.52 581.618 2473.11 579.032 2479.58 571.274 2513.22 562.223 2548.15 560.93 2557.2 560.93 2577.9 560.93 2584.37 560.93 2603.78 560.93 2598.6 575.153 2596.01 581.618Z" fill="#1200B0" fill-rule="evenodd"/><path d="M2644.77 649.782C2639.54 666.594 2633 687.286 2630.38 707.977 2623.85 746.774 2634.31 801.09 2642.15 842.474 2647.38 876.098 2640.85 909.722 2638.23 933 2638.23 933 2638.23 933 2638.23 933 2640.85 911.015 2636.92 869.631 2630.38 836.007 2623.85 793.331 2616 745.481 2622.54 705.391 2626.46 685.992 2633 665.301 2636.92 647.195 2643.46 625.21 2650 601.932 2650 589 2650 589 2650 589 2650 589 2650 603.225 2650 627.797 2644.77 649.782Z" fill="#131CCB" fill-rule="evenodd"/><path d="M2598.35 638.174C2594.47 658.826 2591.88 680.767 2584.12 704 2562.12 774.988 2544 875.663 2566 926 2566 926 2566 926 2566 926 2544 873.081 2571.18 772.407 2589.29 715.616 2595.76 692.384 2599.65 662.698 2603.53 642.046 2606.12 623.977 2604.82 603.326 2610 593 2610 593 2610 593 2610 593 2604.82 604.616 2600.94 618.814 2598.35 638.174Z" fill="#FFFFFF" fill-rule="evenodd"/><path d="M2665.71 864.294C2665.71 873.353 2663.12 877.235 2656.65 882.412 2648.88 890.177 2643.71 875.941 2643.71 863 2635.94 870.765 2635.94 870.765 2635.94 870.765 2641.12 909.588 2641.12 939.353 2623 951 2642.41 943.235 2663.12 912.177 2665.71 895.353 2667 886.294 2667 875.941 2665.71 864.294Z" fill="#131CCB" fill-rule="evenodd"/><path d="M2644 593C2644 604.626 2637.46 622.712 2630.92 648.549 2625.69 666.634 2620.46 687.303 2616.54 706.681 2610 746.728 2617.85 794.525 2624.38 835.864 2625.69 846.198 2625.69 846.198 2625.69 846.198 2630.92 875.911 2637.46 904.331 2634.85 925 2634.85 925 2634.85 925 2634.85 925 2638.77 904.331 2636.15 875.911 2630.92 846.198 2629.62 835.864 2629.62 835.864 2629.62 835.864 2621.77 794.525 2613.92 746.728 2621.77 707.973 2624.38 687.303 2630.92 667.926 2634.85 649.84 2642.69 624.004 2644 605.918 2644 593Z" fill="#FFFFFF" fill-rule="evenodd"/><path d="M2631.87 649.84C2626.8 666.634 2621.73 687.303 2617.93 707.973 2611.6 746.728 2619.2 794.525 2625.53 835.864 2630.6 869.451 2636.93 901.747 2633.13 925 2633.13 925 2633.13 925 2633.13 925 2636.93 903.039 2624.27 869.451 2619.2 835.864 2611.6 793.233 2604 745.436 2611.6 705.389 2614.13 686.012 2620.47 665.342 2624.27 647.257 2630.6 625.296 2642 605.918 2642 593 2642 593 2642 593 2642 593 2642 607.21 2636.93 627.879 2631.87 649.84Z" fill="#143DED" fill-rule="evenodd"/><path d="M2463.15 956.5C2543.5 956.5 2511.1 790.878 2483.88 704.186 2463.15 639.49 2476.11 573.5 2435.93 573.5 2434.64 573.5 2434.64 573.5 2434.64 573.5 2394.46 573.5 2429.45 636.902 2441.12 704.186 2457.96 805.112 2381.5 956.5 2461.85 956.5L2463.15 956.5Z" stroke="#000073" stroke-width="2.86476" stroke-linecap="round" stroke-linejoin="round" stroke-miterlimit="10" fill="none" fill-rule="evenodd"/><path d="M2601.36 956.5C2521.5 956.5 2552.41 790.878 2580.75 704.186 2601.36 639.49 2588.48 573.5 2628.4 573.5 2629.69 573.5 2629.69 573.5 2629.69 573.5 2669.62 573.5 2634.84 636.902 2623.25 704.186 2606.51 805.112 2682.5 956.5 2602.64 956.5L2601.36 956.5Z" stroke="#000073" stroke-width="2.86476" stroke-linecap="round" stroke-linejoin="round" stroke-miterlimit="10" fill="none" fill-rule="evenodd"/><path d="M2675.04 572.422C2681.5 532.271 2596.18 524.5 2562.57 524.5 2473.38 524.5 2420.38 551.699 2416.5 586.669 2417.79 578.898 2422.96 573.717 2434.6 573.717 2435.89 573.717 2435.89 573.717 2435.89 573.717 2475.96 573.717 2463.04 639.771 2483.72 704.53 2509.57 784.831 2538.01 932.482 2478.55 954.5 2478.55 954.5 2478.55 954.5 2478.55 954.5 2497.94 946.729 2561.28 944.139 2580.67 951.91 2527.67 926.006 2554.82 783.536 2580.67 704.53 2601.35 639.771 2588.43 573.717 2628.5 573.717 2629.79 573.717 2629.79 573.717 2629.79 573.717 2669.87 573.717 2634.96 637.181 2623.33 704.53 2607.82 795.193 2667.28 924.711 2623.33 951.91 2642.72 944.139 2663.4 913.054 2665.99 896.217 2673.74 845.705 2638.84 748.566 2650.48 677.331 2658.23 637.181 2673.74 597.03 2675.04 572.422Z" stroke="#000073" stroke-width="2.86476" stroke-linecap="round" stroke-linejoin="round" stroke-miterlimit="10" fill="none" fill-rule="evenodd"/><path d="M2460.28 593.5C2452.5 571.643 2493.99 551.072 2548.44 549.786 2602.9 548.5 2640.5 560.072 2615.87 576.786" stroke="#000073" stroke-width="2.86476" stroke-linecap="round" stroke-linejoin="round" stroke-miterlimit="10" fill="none" fill-rule="evenodd"/><path d="M2548.65 549.793C2496.9 551.086 2455.5 569.188 2459.38 589.876 2471.02 613.15 2469.73 659.698 2483.96 704.952 2509.84 785.118 2538.3 932.519 2478.79 954.5 2478.79 954.5 2478.79 954.5 2478.79 954.5 2498.19 946.742 2561.58 944.156 2580.99 951.914 2527.95 926.054 2555.12 783.825 2580.99 704.952 2599.1 648.061 2591.34 591.169 2615.92 576.946 2615.92 576.946 2615.92 576.946 2615.92 576.946 2640.5 560.137 2602.98 548.5 2548.65 549.793Z" stroke="#000073" stroke-width="2.86476" stroke-linecap="round" stroke-linejoin="round" stroke-miterlimit="10" fill="none" fill-rule="evenodd"/></g></svg>