<svg width="302" height="453" xmlns="http://www.w3.org/2000/svg" xmlns:xlink="http://www.w3.org/1999/xlink" xml:space="preserve" overflow="hidden"><g transform="translate(-1282 -1124)"><path d="M1417.95 1231.36C1426.08 1216.91 1431.51 1198.13 1431.51 1173.57 1431.51 1137.45 1407.1 1130.22 1390.83 1127.33 1346.08 1123 1287.78 1199.57 1283.71 1316.6 1281 1432.19 1324.39 1568 1385.41 1573.78 1441 1581 1439.64 1474.09 1420.66 1407.62 1415.24 1390.29 1401.68 1371.5 1396.25 1362.84 1386.76 1351.28 1379.98 1332.5 1379.98 1310.82 1379.98 1286.26 1388.12 1264.59 1400.32 1254.48 1404.39 1250.14 1413.88 1240.03 1417.95 1231.36Z" fill="#D3B2D2" fill-rule="evenodd"/><path d="M1446.69 1231.36C1439.92 1216.91 1434.49 1198.13 1434.49 1173.57 1434.49 1137.45 1457.54 1130.22 1473.81 1127.33 1518.56 1123 1578.22 1199.57 1580.93 1316.6 1585 1432.19 1541.61 1568 1479.24 1573.78 1425 1581 1425 1474.09 1443.98 1407.62 1449.41 1390.29 1462.97 1371.5 1469.75 1362.84 1477.88 1351.28 1484.66 1332.5 1484.66 1310.82 1484.66 1286.26 1476.53 1264.59 1465.68 1254.48 1461.61 1250.14 1450.76 1240.03 1446.69 1231.36Z" fill="#D3B2D2" fill-rule="evenodd"/><path d="M1438.17 1174.44C1438.17 1198.96 1447.71 1217.7 1454.52 1232.12 1458.6 1240.78 1469.5 1250.87 1473.59 1255.2 1484.48 1265.29 1492.66 1286.92 1492.66 1311.43 1492.66 1333.07 1485.84 1351.81 1477.67 1363.35 1470.86 1372 1457.24 1390.75 1451.79 1408.05 1430 1480.15 1432.72 1571 1480.4 1566.67 1481.76 1566.67 1480.4 1566.67 1481.76 1566.67 1430 1562.35 1447.71 1465.73 1464.05 1408.05 1469.5 1392.19 1488.57 1370.56 1494.02 1363.35 1503.55 1350.37 1509 1331.62 1509 1311.43 1509 1286.92 1499.47 1262.41 1488.57 1252.31 1465.41 1232.12 1438.17 1213.38 1438.17 1173" fill="#EADCEB" fill-rule="evenodd"/><path d="M1473.49 1255C1484.23 1265.1 1492.29 1286.75 1492.29 1311.29 1492.29 1332.94 1485.57 1351.71 1477.51 1363.25 1470.8 1371.92 1457.37 1390.68 1452 1408 1458.71 1392.12 1472.14 1382.02 1482.89 1363.25 1493.63 1345.93 1499 1327.17 1497.66 1308.41 1494.97 1288.2 1486.91 1260.77 1473.49 1255Z" fill="#FFFFFF" fill-rule="evenodd"/><path d="M1426.93 1174.44C1426.93 1198.96 1418.86 1217.7 1410.79 1232.12 1406.76 1240.78 1396 1250.87 1391.97 1255.2 1381.21 1265.29 1373.14 1286.92 1373.14 1311.43 1373.14 1333.07 1379.86 1351.81 1387.93 1363.35 1394.66 1372 1408.1 1390.75 1413.48 1408.05 1435 1480.15 1432.31 1571 1385.24 1566.67 1383.9 1566.67 1385.24 1566.67 1383.9 1566.67 1435 1562.35 1417.52 1465.73 1401.38 1408.05 1396 1392.19 1377.17 1370.56 1371.79 1363.35 1362.38 1350.37 1357 1331.62 1357 1311.43 1357 1286.92 1366.41 1262.41 1377.17 1252.31 1400.03 1232.12 1426.93 1213.38 1426.93 1173" fill="#BF8BB9" fill-rule="evenodd"/><path d="M1392.06 1255C1381.09 1265.1 1372.86 1286.75 1372.86 1311.29 1372.86 1332.94 1379.71 1351.71 1387.94 1363.25 1394.8 1371.92 1408.51 1390.68 1414 1408 1407.14 1392.12 1393.43 1382.02 1382.46 1363.25 1371.49 1345.93 1366 1327.17 1367.37 1308.41 1370.11 1288.2 1378.34 1260.77 1392.06 1255Z" fill="#A8609B" fill-rule="evenodd"/><path d="M1390.91 1127.89C1407.27 1130.77 1431.82 1137.99 1431.82 1174.06 1431.82 1198.59 1426.36 1217.35 1418.18 1231.78 1414.09 1240.44 1404.55 1250.54 1400.45 1254.87 1388.18 1264.97 1380 1286.62 1380 1311.15 1380 1332.79 1386.82 1351.55 1396.36 1363.09 1401.82 1371.75 1415.45 1390.51 1420.91 1407.83 1435.91 1461.22 1440 1543.47 1410 1568 1415.45 1565.11 1422.27 1560.78 1433.18 1560.78 1442.73 1560.78 1449.55 1565.11 1455 1568 1425 1543.47 1429.09 1461.22 1444.09 1407.83 1449.55 1390.51 1463.18 1371.75 1470 1363.09 1478.18 1351.55 1485 1332.79 1485 1311.15 1485 1286.62 1476.82 1264.97 1465.91 1254.87 1461.82 1250.54 1450.91 1240.44 1446.82 1231.78 1440 1217.35 1434.55 1198.59 1434.55 1174.06 1434.55 1137.99 1457.73 1130.77 1474.09 1127.89 1476.82 1127.89 1479.55 1127.89 1482.27 1127.89 1467.27 1126.44 1450.91 1125 1433.18 1125 1433.18 1125 1433.18 1125 1433.18 1125 1415.45 1125 1399.09 1126.44 1384.09 1127.89 1385.45 1127.89 1388.18 1127.89 1390.91 1127.89Z" fill="#A8609B" fill-rule="evenodd"/><path d="M1557.89 1334.4C1559.26 1230.48 1512.86 1128 1466.46 1139.55 1463.73 1139.55 1461 1139.55 1463.73 1139.55 1469.19 1136.66 1476.01 1135.22 1480.11 1135.22 1518.32 1136.66 1577 1214.6 1575.64 1324.29 1574.27 1416.67 1546.98 1527.8 1500.58 1561 1541.52 1517.7 1556.53 1429.66 1557.89 1334.4Z" fill="#BF8BB9" fill-rule="evenodd"/><path d="M1558 1225C1571.5 1264.04 1585 1336.35 1564.75 1426 1568.8 1384.06 1575.55 1288.63 1558 1225Z" fill="#A8609B" fill-rule="evenodd"/><path d="M1303.67 1335.83C1303.67 1225.96 1369.27 1140.67 1411.63 1143.56 1413 1143.56 1413 1143.56 1413 1143.56 1404.8 1137.78 1395.23 1134.89 1388.4 1134.89 1344.67 1132 1290 1215.84 1290 1327.15 1290 1419.67 1318.7 1523.75 1365.17 1557 1324.17 1513.63 1303.67 1431.23 1303.67 1335.83Z" fill="#EADCEB" fill-rule="evenodd"/><path d="M1290 1328C1290 1216.26 1341.77 1135 1384 1137.9 1360.84 1145.16 1304.99 1190.14 1290 1328Z" fill="#FFFFFF" fill-rule="evenodd"/><path d="M1440 1423.7C1441.36 1422.26 1441.36 1420.81 1441.36 1419.37 1442.73 1415.04 1444.09 1410.71 1444.09 1407.83 1449.55 1390.51 1463.18 1371.75 1470 1363.09 1478.18 1351.55 1485 1332.79 1485 1311.15 1485 1286.62 1476.82 1264.97 1465.91 1254.87 1461.82 1250.54 1450.91 1240.44 1446.82 1231.78 1442.73 1223.12 1440 1214.47 1437.27 1204.36 1437.27 1202.92 1437.27 1202.92 1437.27 1201.48 1435.91 1200.04 1435.91 1197.15 1435.91 1194.26 1434.55 1187.05 1434.55 1181.28 1434.55 1174.06 1434.55 1137.99 1457.73 1130.77 1474.09 1127.89 1475.45 1127.89 1476.82 1127.89 1478.18 1127.89 1479.55 1127.89 1479.55 1127.89 1479.55 1127.89 1464.55 1126.44 1449.55 1125 1433.18 1125 1433.18 1125 1433.18 1125 1433.18 1125 1415.45 1125 1399.09 1126.44 1384.09 1127.89 1385.45 1127.89 1388.18 1127.89 1390.91 1127.89 1407.27 1130.77 1431.82 1137.99 1431.82 1174.06 1431.82 1198.59 1426.36 1217.35 1418.18 1231.78 1414.09 1240.44 1404.55 1250.54 1400.45 1254.87 1388.18 1264.97 1380 1286.62 1380 1311.15 1380 1332.79 1386.82 1351.55 1396.36 1363.09 1401.82 1371.75 1415.45 1390.51 1420.91 1407.83 1435.91 1461.22 1440 1543.47 1410 1568 1415.45 1565.11 1422.27 1560.78 1433.18 1560.78 1442.73 1560.78 1449.55 1565.11 1455 1568 1430.45 1547.8 1429.09 1484.31 1438.64 1432.36 1438.64 1429.47 1440 1426.59 1440 1423.7ZM1419.55 1267.86C1420.91 1262.08 1423.64 1256.31 1426.36 1250.54 1435.91 1236.11 1463.18 1259.2 1471.36 1288.06 1479.55 1316.92 1474.09 1342.89 1456.36 1364.54 1440 1384.74 1434.55 1393.4 1425 1384.74 1419.55 1373.2 1412.73 1357.32 1410 1338.56 1404.55 1308.26 1408.64 1292.39 1419.55 1267.86Z" fill="#974E89" fill-rule="evenodd"/><path d="M1420.36 1407.98C1435.16 1461.32 1439.2 1543.49 1409.6 1568 1414.98 1565.12 1421.71 1560.79 1432.47 1560.79 1441.89 1560.79 1448.62 1565.12 1454 1568 1424.4 1543.49 1428.44 1461.32 1443.24 1407.98 1443.24 1406.54 1444.58 1406.54 1444.58 1405.1 1441.89 1406.54 1439.2 1413.75 1433.82 1413.75 1423.05 1413.75 1425.75 1387.8 1409.6 1369.06 1380 1335.9 1392.11 1284 1402.87 1271.03 1414.98 1255.17 1416.33 1256.61 1421.71 1246.52 1429.78 1232.11 1436.51 1229.22 1448.62 1237.87 1448.62 1236.43 1448.62 1236.43 1448.62 1236.43 1447.27 1234.99 1445.93 1233.55 1445.93 1232.11 1439.2 1217.69 1433.82 1198.95 1433.82 1174.44 1433.82 1174.44 1433.82 1174.44 1433.82 1173 1432.47 1174.44 1431.13 1174.44 1431.13 1174.44 1431.13 1198.95 1425.75 1217.69 1417.67 1232.11 1413.64 1240.76 1404.22 1250.85 1400.18 1255.17 1388.07 1265.26 1380 1286.89 1380 1311.39 1380 1333.02 1386.73 1351.76 1396.15 1363.29 1401.53 1371.94 1414.98 1390.68 1420.36 1407.98Z" fill="#7A3D6F" fill-rule="evenodd"/><path d="M1418 1136.38C1423.4 1132 1439.6 1133.46 1445 1137.83 1440.95 1139.29 1438.25 1143.67 1436.9 1148.04 1432.85 1153.88 1432.85 1159.71 1431.5 1167 1432.85 1153.88 1426.1 1146.58 1419.35 1137.83" fill="#7A3D6F" fill-rule="evenodd"/><path d="M1414 1129C1418.03 1128 1444.93 1128 1453 1129" fill="#FFFFFF" fill-rule="evenodd"/><path d="M1469.5 1282C1474.9 1295.02 1483 1331.18 1456 1363 1465.45 1347.09 1474.9 1316.71 1469.5 1282Z" fill="#FFFFFF" fill-rule="evenodd"/><path d="M1418.45 1231.86C1426.58 1217.41 1432.01 1198.63 1432.01 1174.07 1432.01 1137.95 1407.6 1130.72 1391.33 1127.83 1346.58 1123.5 1288.28 1200.07 1284.21 1317.1 1281.5 1432.69 1324.89 1568.5 1385.91 1574.28 1441.5 1581.5 1440.14 1474.59 1421.16 1408.12 1415.74 1390.79 1402.18 1372 1396.75 1363.34 1387.26 1351.78 1380.48 1333 1380.48 1311.32 1380.48 1286.76 1388.62 1265.09 1400.82 1254.98 1404.89 1250.64 1414.38 1240.53 1418.45 1231.86Z" stroke="#000000" stroke-width="3.4375" stroke-linecap="round" stroke-linejoin="round" stroke-miterlimit="10" fill="none" fill-rule="evenodd"/><path d="M1447.19 1231.86C1440.42 1217.41 1434.99 1198.63 1434.99 1174.07 1434.99 1137.95 1458.04 1130.72 1474.31 1127.83 1519.06 1123.5 1578.72 1200.07 1581.43 1317.1 1585.5 1432.69 1542.11 1568.5 1479.74 1574.28 1425.5 1581.5 1425.5 1474.59 1444.48 1408.12 1449.91 1390.79 1463.47 1372 1470.25 1363.34 1478.38 1351.78 1485.16 1333 1485.16 1311.32 1485.16 1286.76 1477.03 1265.09 1466.18 1254.98 1462.11 1250.64 1451.26 1240.53 1447.19 1231.86Z" stroke="#000000" stroke-width="3.4375" stroke-linecap="round" stroke-linejoin="round" stroke-miterlimit="10" fill="none" fill-rule="evenodd"/><path d="M1391.41 1128.39C1407.77 1131.27 1432.32 1138.49 1432.32 1174.56 1432.32 1199.09 1426.86 1217.85 1418.68 1232.28 1414.59 1240.94 1405.05 1251.04 1400.95 1255.37 1388.68 1265.47 1380.5 1287.12 1380.5 1311.65 1380.5 1333.29 1387.32 1352.05 1396.86 1363.59 1402.32 1372.25 1415.95 1391.01 1421.41 1408.33 1436.41 1461.72 1440.5 1543.97 1410.5 1568.5 1415.95 1565.61 1422.77 1561.28 1433.68 1561.28 1443.23 1561.28 1450.05 1565.61 1455.5 1568.5 1425.5 1543.97 1429.59 1461.72 1444.59 1408.33 1450.05 1391.01 1463.68 1372.25 1470.5 1363.59 1478.68 1352.05 1485.5 1333.29 1485.5 1311.65 1485.5 1287.12 1477.32 1265.47 1466.41 1255.37 1462.32 1251.04 1451.41 1240.94 1447.32 1232.28 1440.5 1217.85 1435.05 1199.09 1435.05 1174.56 1435.05 1138.49 1458.23 1131.27 1474.59 1128.39 1477.32 1128.39 1480.05 1128.39 1482.77 1128.39 1467.77 1126.94 1451.41 1125.5 1433.68 1125.5 1433.68 1125.5 1433.68 1125.5 1433.68 1125.5 1415.95 1125.5 1399.59 1126.94 1384.59 1128.39 1385.95 1128.39 1388.68 1128.39 1391.41 1128.39Z" stroke="#000000" stroke-width="3.4375" stroke-linecap="round" stroke-linejoin="round" stroke-miterlimit="10" fill="none" fill-rule="evenodd"/></g></svg>