<svg width="231" height="407" xmlns="http://www.w3.org/2000/svg" xmlns:xlink="http://www.w3.org/1999/xlink" xml:space="preserve" overflow="hidden"><g transform="translate(-1408 -580)"><path d="M1457 980C1537 980 1506.03 814.811 1478.94 728.345 1458.29 663.818 1469.9 598 1429.9 598 1428.61 598 1428.61 598 1428.61 598 1388.61 598 1423.45 661.237 1435.06 728.345 1453.13 829.007 1377 980 1457 980Z" fill="#FDD5C9" fill-rule="evenodd"/><path d="M1589.35 980C1509 980 1541.4 814.811 1568.62 728.345 1589.35 663.818 1576.39 598 1616.57 598 1617.86 598 1617.86 598 1617.86 598 1658.04 598 1623.05 661.237 1611.38 728.345 1594.54 829.007 1671 980 1590.65 980L1589.35 980Z" fill="#FDD5C9" fill-rule="evenodd"/><path d="M1526.79 581C1479.12 581 1426.31 590.035 1416 601.652 1418.58 599.07 1423.73 597.779 1428.88 597.779 1430.17 597.779 1430.17 597.779 1430.17 597.779 1470.11 597.779 1458.51 663.607 1479.12 728.144 1506.18 814.623 1537.09 979.837 1457.22 979.837 1457.22 979.837 1457.22 979.837 1457.22 979.837 1454.65 979.837 1452.07 979.837 1449.49 978.546 1466.24 983.709 1489.43 985 1512.62 985 1538.38 985 1582.18 983.709 1600.22 978.546 1597.64 979.837 1593.78 979.837 1591.2 979.837 1589.91 979.837 1589.91 979.837 1589.91 979.837 1510.04 979.837 1542.25 814.623 1569.3 728.144 1589.91 663.607 1577.03 597.779 1616.96 597.779 1618.25 597.779 1618.25 597.779 1618.25 597.779 1627.27 597.779 1632.42 600.361 1635 605.524 1628.56 591.326 1578.32 581 1526.79 581Z" fill="#FBA494" fill-rule="evenodd"/><path d="M1526.79 581C1479.12 581 1426.31 590.035 1416 601.652 1418.58 599.07 1423.73 597.779 1428.88 597.779 1430.17 597.779 1430.17 597.779 1430.17 597.779 1470.11 597.779 1458.51 663.607 1479.12 728.144 1506.18 814.623 1537.09 979.837 1457.22 979.837 1457.22 979.837 1457.22 979.837 1457.22 979.837 1454.65 979.837 1452.07 979.837 1449.49 978.546 1466.24 983.709 1489.43 985 1512.62 985 1538.38 985 1582.18 983.709 1600.22 978.546 1597.64 979.837 1593.78 979.837 1591.2 979.837 1589.91 979.837 1589.91 979.837 1589.91 979.837 1510.04 979.837 1542.25 814.623 1569.3 728.144 1589.91 663.607 1577.03 597.779 1616.96 597.779 1618.25 597.779 1618.25 597.779 1618.25 597.779 1627.27 597.779 1632.42 600.361 1635 605.524 1628.56 591.326 1578.32 581 1526.79 581ZM1538.38 956.604C1540.96 966.93 1547.4 970.802 1548.69 972.092 1543.54 972.092 1517.77 973.383 1512.62 973.383 1507.46 973.383 1503.6 973.383 1498.45 973.383 1499.74 972.092 1504.89 966.93 1508.75 956.604 1517.77 923.045 1528.08 923.045 1538.38 956.604ZM1583.47 608.105C1577.03 621.013 1574.45 640.374 1570.59 661.026 1568.01 680.386 1565.44 703.62 1557.71 725.562 1556.42 732.016 1548.69 755.249 1540.96 787.517 1539.67 797.843 1508.75 797.843 1506.18 787.517 1499.74 756.54 1492.01 732.016 1489.43 725.562 1482.99 703.62 1479.12 680.386 1476.55 661.026 1473.97 641.664 1471.39 623.594 1464.95 609.396 1462.38 604.233 1490.72 595.198 1513.91 595.198 1537.09 595.198 1586.05 604.233 1583.47 608.105Z" fill="#FA7370" fill-rule="evenodd"/><path d="M1426.13 673.841C1431.2 690.634 1437.53 711.304 1440.07 730.681 1446.4 770.728 1438.8 818.525 1432.47 859.864 1427.4 893.451 1421.07 925.747 1424.87 949 1424.87 949 1424.87 949 1424.87 949 1421.07 927.039 1433.73 893.451 1440.07 859.864 1446.4 817.234 1454 769.436 1447.67 729.389 1443.87 708.72 1438.8 689.342 1433.73 671.257 1427.4 649.296 1416 629.918 1416 617 1416 617 1416 617 1416 617 1416 631.21 1421.07 651.879 1426.13 673.841Z" fill="#FFFFFF" fill-rule="evenodd"/><path d="M1478.7 728.345C1459.27 667.689 1468.34 605.743 1435.95 598 1461.86 627.683 1452.8 676.723 1467.05 720.601 1495.55 807.068 1518.86 961.932 1438.55 961.932 1437.25 961.932 1437.25 961.932 1437.25 961.932 1432.07 961.932 1426.89 961.932 1423 960.642 1428.18 972.257 1438.55 980 1456.68 980 1456.68 980 1456.68 980 1456.68 980 1537 980 1505.91 814.811 1478.7 728.345Z" fill="#FCBCAD" fill-rule="evenodd"/><path d="M1621.87 673.841C1616.8 690.634 1611.73 711.304 1607.93 730.681 1601.6 770.728 1609.2 818.525 1615.53 859.864 1620.6 893.451 1626.93 925.747 1624.4 949 1624.4 949 1624.4 949 1624.4 949 1626.93 927.039 1614.27 893.451 1609.2 859.864 1601.6 817.234 1594 769.436 1601.6 729.389 1604.13 708.72 1610.47 689.342 1615.53 671.257 1620.6 649.296 1632 629.918 1632 617 1632 617 1632 617 1632 617 1632 631.21 1628.2 651.879 1621.87 673.841Z" fill="#FCBCAD" fill-rule="evenodd"/><path d="M1587.35 662.425C1584.76 681.768 1580.88 704.981 1574.41 728.193 1551.12 799.12 1534.29 899.707 1555 950 1555 950 1555 950 1555 950 1533 897.128 1560.18 796.541 1578.29 739.799 1586.06 716.587 1589.94 686.927 1592.53 666.293 1595.12 648.239 1595.12 627.606 1599 616 1599 616 1599 616 1599 616 1593.82 628.896 1589.94 643.081 1587.35 662.425Z" fill="#FFFFFF" fill-rule="evenodd"/><path d="M1632 618C1632 629.627 1626.92 647.712 1619.31 673.549 1614.23 691.634 1609.15 711.012 1605.35 731.681 1599 771.728 1606.62 819.525 1612.96 860.864 1615.5 871.199 1615.5 871.199 1615.5 871.199 1619.31 900.911 1626.92 929.331 1623.12 950 1623.12 950 1623.12 950 1623.12 950 1626.92 928.039 1624.38 900.911 1619.31 871.199 1618.04 860.864 1618.04 860.864 1618.04 860.864 1611.69 818.234 1604.08 771.728 1610.42 732.973 1612.96 712.304 1619.31 692.926 1624.38 674.841 1630.73 649.004 1632 630.918 1632 618Z" fill="#FFFFFF" fill-rule="evenodd"/><path d="M1620.79 674.841C1615.69 691.634 1610.59 712.304 1606.76 731.681 1600.38 771.728 1608.03 818.234 1614.41 860.864 1619.52 894.451 1625.9 926.747 1623.34 950 1623.34 950 1623.34 950 1623.34 950 1625.9 926.747 1613.14 894.451 1608.03 860.864 1601.66 818.234 1594 770.436 1600.38 730.389 1604.21 709.72 1609.31 690.342 1614.41 672.257 1619.52 650.296 1631 630.918 1631 618 1631 618 1631 618 1631 618 1631 632.21 1627.17 652.879 1620.79 674.841Z" fill="#FCBCAD" fill-rule="evenodd"/><path d="M1498 596C1481.34 601.273 1473.66 606.545 1469.81 625 1467.25 615.773 1457 603.909 1467.25 599.955" fill="#FA7370" fill-rule="evenodd"/><path d="M1465 604.333C1466.29 605.667 1466.29 605.667 1466.29 605.667 1470.15 600.333 1510.05 595 1535.8 595 1562.83 595 1582.14 600.333 1584.71 607 1586 607 1586 607 1586 607 1580.85 596.333 1547.38 591 1524.21 591 1499.76 591 1471.44 597.667 1465 604.333Z" fill="#FFFFFF" fill-rule="evenodd"/><path d="M1457.5 980.5C1537.5 980.5 1506.53 815.311 1479.44 728.844 1458.79 664.318 1470.4 598.5 1430.4 598.5 1429.11 598.5 1429.11 598.5 1429.11 598.5 1389.11 598.5 1423.95 661.736 1435.56 728.844 1453.63 829.507 1377.5 980.5 1457.5 980.5Z" stroke="#333333" stroke-width="2.86476" stroke-linecap="round" stroke-linejoin="round" stroke-miterlimit="10" fill="none" fill-rule="evenodd"/><path d="M1589.85 980.5C1509.5 980.5 1541.9 815.311 1569.12 728.844 1589.85 664.318 1576.89 598.5 1617.07 598.5 1618.36 598.5 1618.36 598.5 1618.36 598.5 1658.54 598.5 1623.55 661.736 1611.88 728.844 1595.04 829.507 1671.5 980.5 1591.15 980.5L1589.85 980.5Z" stroke="#333333" stroke-width="2.86476" stroke-linecap="round" stroke-linejoin="round" stroke-miterlimit="10" fill="none" fill-rule="evenodd"/><path d="M1527.29 581.5C1479.62 581.5 1426.81 590.535 1416.5 602.152 1419.08 599.57 1424.23 598.28 1429.38 598.28 1430.67 598.28 1430.67 598.28 1430.67 598.28 1470.61 598.28 1459.01 664.107 1479.62 728.644 1506.68 815.123 1537.59 980.337 1457.72 980.337 1457.72 980.337 1457.72 980.337 1457.72 980.337 1455.15 980.337 1452.57 980.337 1449.99 979.046 1466.74 984.209 1489.93 985.5 1513.12 985.5 1538.88 985.5 1582.68 984.209 1600.72 979.046 1598.14 980.337 1594.28 980.337 1591.7 980.337 1590.41 980.337 1590.41 980.337 1590.41 980.337 1510.54 980.337 1542.75 815.123 1569.8 728.644 1590.41 664.107 1577.53 598.28 1617.46 598.28 1618.75 598.28 1618.75 598.28 1618.75 598.28 1627.77 598.28 1632.92 600.861 1635.5 606.024 1629.06 591.826 1578.82 581.5 1527.29 581.5Z" stroke="#333333" stroke-width="2.86476" stroke-linecap="round" stroke-linejoin="round" stroke-miterlimit="10" fill="none" fill-rule="evenodd"/><path d="M1488.5 971.5C1494.9 972.5 1503.87 973.5 1514.11 973.5 1523.08 973.5 1553.82 972.5 1561.5 970.5" stroke="#333333" stroke-width="2.86476" stroke-linecap="round" stroke-linejoin="round" stroke-miterlimit="10" fill="none" fill-rule="evenodd"/><path d="M1589.5 609.5C1586.9 603.136 1554.43 595.5 1528.45 595.5 1503.77 595.5 1469.99 600.591 1463.5 606.955" stroke="#333333" stroke-width="2.86476" stroke-linecap="round" stroke-linejoin="round" stroke-miterlimit="10" fill="none" fill-rule="evenodd"/><path d="M1573 639C1571.68 653.228 1569.05 682.978 1563.79 701.087 1559.84 717.902 1551.95 743.772 1548 758 1548 741.185 1558.53 704.967 1561.16 695.913 1563.79 686.859 1567.74 654.522 1573 639Z" fill="#FFFFFF" fill-rule="evenodd"/></g></svg>