<svg width="230" height="400" xmlns="http://www.w3.org/2000/svg" xmlns:xlink="http://www.w3.org/1999/xlink" xml:space="preserve" overflow="hidden"><g transform="translate(-1772 -1203)"><path d="M1811.32 1219.59C1784.13 1217 1766 1277.85 1776.36 1332.23 1786.72 1387.9 1812.61 1453.93 1806.14 1497.95 1798.37 1541.97 1794.48 1561.39 1813.91 1584.7 1833.33 1608 1870.87 1600.23 1879.94 1576.93 1889 1552.33 1885.12 1426.74 1885.12 1402.14 1885.12 1378.84 1860.52 1219.59 1811.32 1219.59Z" fill="#E6BCC1" fill-rule="evenodd"/><path d="M1962.79 1219.59C1988.62 1217 2008 1277.85 1997.67 1332.23 1987.33 1387.9 1961.5 1453.93 1967.96 1497.95 1975.71 1541.97 1979.58 1561.39 1960.21 1584.7 1940.83 1608 1903.38 1600.23 1894.33 1576.93 1884 1552.33 1889.17 1426.74 1889.17 1402.14 1889.17 1378.84 1913.71 1219.59 1962.79 1219.59Z" fill="#E6BCC1" fill-rule="evenodd"/><path d="M1894.24 1576.16C1883.93 1551.6 1889.09 1426.26 1889.09 1401.71 1889.09 1378.45 1913.58 1219.51 1962.56 1219.51 1965.13 1219.51 1966.42 1219.51 1969 1219.51 1952.24 1210.46 1926.47 1204 1886.51 1204 1837.53 1204 1805.31 1214.34 1795 1225.97 1795 1225.97 1796.29 1224.68 1797.58 1224.68 1801.44 1220.8 1806.6 1218.21 1811.76 1219.51 1822.07 1219.51 1831.09 1225.97 1838.82 1236.31 1841.4 1240.18 1842.69 1242.77 1845.27 1246.64 1871.04 1293.16 1885.22 1384.91 1885.22 1401.71 1885.22 1426.26 1889.09 1551.6 1880.07 1576.16 1874.91 1590.37 1858.16 1599.42 1841.4 1598.12 1856.87 1600.71 1867.18 1602 1887.8 1602 1907.13 1602 1917.44 1600.71 1934.2 1598.12 1917.44 1599.42 1899.4 1590.37 1894.24 1576.16Z" fill="#C15772" fill-rule="evenodd"/><path d="M1969 1219.51C1952.24 1210.46 1926.47 1204 1886.51 1204 1837.53 1204 1805.31 1214.34 1795 1225.97 1795 1225.97 1796.29 1224.68 1797.58 1224.68 1801.44 1220.8 1806.6 1218.21 1811.76 1219.51 1822.07 1219.51 1831.09 1225.97 1838.82 1236.31 1841.4 1240.18 1842.69 1242.77 1845.27 1246.64 1871.04 1293.16 1885.22 1384.91 1885.22 1401.71 1885.22 1426.26 1889.09 1551.6 1880.07 1576.16 1874.91 1590.37 1858.16 1599.42 1841.4 1598.12 1856.87 1600.71 1867.18 1602 1887.8 1602 1907.13 1602 1917.44 1600.71 1934.2 1598.12 1917.44 1599.42 1899.4 1590.37 1894.24 1576.16 1883.93 1551.6 1889.09 1426.26 1889.09 1401.71 1889.09 1378.45 1913.58 1219.51 1962.56 1219.51 1965.13 1219.51 1966.42 1219.51 1969 1219.51ZM1887.8 1587.79C1885.22 1587.79 1882.64 1587.79 1880.07 1587.79 1882.64 1585.2 1883.93 1582.62 1883.93 1580.03 1885.22 1577.45 1886.51 1574.86 1886.51 1570.99 1887.8 1574.86 1889.09 1577.45 1889.09 1580.03 1890.38 1582.62 1891.67 1585.2 1892.96 1587.79 1891.67 1587.79 1889.09 1587.79 1887.8 1587.79ZM1918.73 1227.26C1921.31 1228.55 1920.02 1233.72 1918.73 1236.31 1899.4 1267.32 1896.82 1317.71 1891.67 1353.9 1889.09 1365.53 1887.8 1374.57 1887.8 1382.32 1886.51 1374.57 1885.22 1365.53 1882.64 1355.19 1877.49 1317.71 1874.91 1271.19 1856.87 1240.18 1856.87 1238.89 1855.58 1237.6 1854.29 1236.31 1853 1233.72 1853 1228.55 1856.87 1227.26 1864.6 1224.68 1872.33 1219.51 1886.51 1219.51 1900.69 1219.51 1909.71 1224.68 1918.73 1227.26Z" fill="#B03054" fill-rule="evenodd"/><path d="M1781.67 1332.98C1784.22 1349.82 1789.33 1367.97 1794.44 1386.11 1804.67 1426.29 1814.89 1467.76 1809.78 1497.57 1808.5 1504.05 1808.5 1504.05 1808.5 1504.05 1805.94 1524.78 1805.94 1539.04 1807.22 1552 1807.22 1552 1807.22 1552 1807.22 1552 1805.94 1540.34 1809.78 1524.78 1813.61 1505.34 1814.89 1497.57 1814.89 1497.57 1814.89 1497.57 1820 1467.76 1812.33 1424.99 1802.11 1384.82 1797 1366.67 1793.17 1348.53 1789.33 1331.68 1781.67 1292.8 1784.22 1246.14 1799.56 1228 1799.56 1228 1799.56 1228 1799.56 1228 1782.94 1247.44 1774 1292.8 1781.67 1332.98Z" fill="#FFFFFF" fill-rule="evenodd"/><path d="M1885.12 1401.91C1885.12 1383.76 1868.29 1277.48 1838.53 1236 1857.94 1285.25 1868.29 1359.14 1868.29 1374.69 1868.29 1398.02 1874.76 1523.75 1864.41 1548.38 1855.35 1571.71 1821.71 1579.48 1801 1558.75 1802.29 1567.82 1806.18 1575.6 1813.94 1584.67 1833.35 1608 1870.88 1600.22 1879.94 1575.6 1889 1552.26 1885.12 1426.54 1885.12 1401.91Z" fill="#DCA3AB" fill-rule="evenodd"/><path d="M1901.95 1575C1894.28 1556.89 1901.95 1468.95 1901.95 1427.57 1903.23 1401.71 1903.23 1401.71 1903.23 1401.71 1903.23 1382.31 1916.02 1267.21 1948 1231 1948 1231 1948 1231 1948 1231 1913.47 1268.5 1895.56 1381.02 1895.56 1403 1894.28 1427.57 1894.28 1427.57 1894.28 1427.57 1893 1490.94 1894.28 1556.89 1901.95 1575" fill="#FFFFFF" fill-rule="evenodd"/><path d="M1988.35 1260C1993.53 1281.95 1994.82 1307.77 1989.65 1332.3 1987.06 1349.08 1981.88 1367.15 1978 1385.23 1966.35 1425.25 1956 1467.85 1961.18 1497.54 1967.65 1536.27 1968.94 1555.64 1956 1575 1956 1575 1956 1575 1956 1575 1968.94 1554.34 1971.53 1536.27 1965.06 1497.54 1961.18 1467.85 1971.53 1426.54 1981.88 1386.52 1987.06 1368.44 1990.94 1350.37 1994.82 1333.59 2000 1307.77 1993.53 1281.95 1988.35 1260Z" fill="#FFFFFF" fill-rule="evenodd"/><path d="M1983.53 1239C1992.74 1262.23 1987.47 1304.82 1982.21 1333.21 1979.58 1349.99 1974.32 1368.06 1969.05 1386.12 1958.53 1427.42 1948 1468.72 1953.26 1499.69 1953.26 1507.44 1953.26 1507.44 1953.26 1507.44 1959.84 1542.28 1966.42 1561.64 1953.26 1581 1953.26 1581 1953.26 1581 1953.26 1581 1969.05 1559.06 1969.05 1540.99 1963.79 1504.86 1962.47 1498.4 1962.47 1498.4 1962.47 1498.4 1957.21 1468.72 1967.74 1428.71 1978.26 1388.71 1983.53 1370.64 1988.79 1352.57 1991.42 1334.5 1998 1304.82 1994.05 1264.81 1983.53 1239Z" fill="#DCA3AB" fill-rule="evenodd"/><path d="M1881 1222C1875.84 1227.17 1869.39 1225.88 1864.23 1232.33 1860.35 1238.79 1861.65 1245.25 1861.65 1253 1857.77 1246.54 1841 1237.5 1848.74 1227.17 1851.32 1223.29 1856.48 1225.88 1861.65 1223.29" fill="#B03054" fill-rule="evenodd"/><path d="M1879 1323.19C1881.53 1336.09 1892.93 1337.38 1895.47 1321.9 1898 1309 1898 1318.03 1895.47 1351.57 1885.33 1398 1885.33 1398 1885.33 1398" fill="#B03054" fill-rule="evenodd"/><path d="M1858 1226C1859.29 1226 1859.29 1226 1859.29 1226 1863.17 1222.25 1868.33 1219.75 1890.29 1219.75 1907.08 1219.75 1912.25 1222.25 1920 1226 1920 1226 1920 1226 1920 1226 1912.25 1222.25 1905.79 1216 1890.29 1216 1874.79 1216 1863.17 1219.75 1858 1226Z" fill="#FFFFFF" fill-rule="evenodd"/><path d="M1811.32 1219.59C1784.13 1217 1766 1277.85 1776.36 1332.23 1786.72 1387.9 1812.61 1453.93 1806.14 1497.95 1798.37 1541.97 1794.48 1561.39 1813.91 1584.7 1833.33 1608 1870.87 1600.23 1879.94 1576.93 1889 1552.33 1885.12 1426.74 1885.12 1402.14 1885.12 1378.84 1860.52 1219.59 1811.32 1219.59Z" stroke="#333333" stroke-width="2.29167" stroke-linecap="round" stroke-linejoin="round" stroke-miterlimit="10" fill="none" fill-rule="evenodd"/><path d="M1962.79 1219.59C1988.62 1217 2008 1277.85 1997.67 1332.23 1987.33 1387.9 1961.5 1453.93 1967.96 1497.95 1975.71 1541.97 1979.58 1561.39 1960.21 1584.7 1940.83 1608 1903.38 1600.23 1894.33 1576.93 1884 1552.33 1889.17 1426.74 1889.17 1402.14 1889.17 1378.84 1913.71 1219.59 1962.79 1219.59Z" stroke="#333333" stroke-width="2.29167" stroke-linecap="round" stroke-linejoin="round" stroke-miterlimit="10" fill="none" fill-rule="evenodd"/><path d="M1894.24 1576.16C1883.93 1551.6 1889.09 1426.26 1889.09 1401.71 1889.09 1378.45 1913.58 1219.51 1962.56 1219.51 1965.13 1219.51 1966.42 1219.51 1969 1219.51 1952.24 1210.46 1926.47 1204 1886.51 1204 1837.53 1204 1805.31 1214.34 1795 1225.97 1795 1225.97 1796.29 1224.68 1797.58 1224.68 1801.44 1220.8 1806.6 1218.21 1811.76 1219.51 1822.07 1219.51 1831.09 1225.97 1838.82 1236.31 1841.4 1240.18 1842.69 1242.77 1845.27 1246.64 1871.04 1293.16 1885.22 1384.91 1885.22 1401.71 1885.22 1426.26 1889.09 1551.6 1880.07 1576.16 1874.91 1590.37 1858.16 1599.42 1841.4 1598.12 1856.87 1600.71 1867.18 1602 1887.8 1602 1907.13 1602 1917.44 1600.71 1934.2 1598.12 1917.44 1599.42 1899.4 1590.37 1894.24 1576.16Z" stroke="#333333" stroke-width="2.29167" stroke-linecap="round" stroke-linejoin="round" stroke-miterlimit="10" fill="none" fill-rule="evenodd"/><path d="M1879 1585C1884.14 1587 1881.57 1587 1888 1587 1894.43 1587 1891.86 1587 1897 1585" stroke="#333333" stroke-width="2.29167" stroke-linecap="round" stroke-linejoin="round" stroke-miterlimit="10" fill="none" fill-rule="evenodd"/><path d="M1921 1227C1913.29 1223.4 1903 1221 1890.14 1221 1877.29 1221 1863.14 1222.2 1858 1227" stroke="#333333" stroke-width="2.29167" stroke-linecap="round" stroke-linejoin="round" stroke-miterlimit="10" fill="none" fill-rule="evenodd"/><path d="M1912 1245C1905.75 1258.08 1899.5 1288.15 1897 1313 1897 1293.38 1900.75 1256.77 1912 1245Z" fill="#FFFFFF" fill-rule="evenodd"/></g></svg>