<svg width="264" height="424" xmlns="http://www.w3.org/2000/svg" xmlns:xlink="http://www.w3.org/1999/xlink" xml:space="preserve" overflow="hidden"><g transform="translate(-1669 -1124)"><path d="M1781.91 1391.43C1770.68 1380.74 1765.07 1364.11 1771.8 1347.47 1775.17 1337.97 1783.03 1330.84 1792.02 1327.28 1797.63 1324.9 1798.75 1318.96 1798.75 1311.83 1801 1261.94 1801 1227.48 1798.75 1201.35 1793.14 1156.2 1775.17 1117 1735.87 1127.69 1695.44 1138.38 1689.83 1183.53 1699.93 1236.99 1708.92 1289.26 1696.57 1394.99 1680.84 1453.21 1664 1511.42 1666.25 1530.43 1692.07 1542.31 1716.78 1553 1730.25 1543.5 1753.84 1484.1 1753.84 1484.1 1783.03 1412.81 1785.28 1405.69 1787.52 1398.56 1786.4 1394.99 1781.91 1391.43Z" fill="#32B0E1" fill-rule="evenodd"/><path d="M1791.76 1200.61C1789.52 1176.77 1782.81 1155.31 1771.61 1141 1777.21 1152.92 1780.57 1163.65 1783.93 1202.99 1786.16 1229.22 1779.45 1247.1 1777.21 1297.18 1776.09 1316.25 1759.3 1317.44 1751.46 1337.71 1743.63 1357.98 1743.63 1380.63 1755.94 1394.94 1758.18 1399.71 1761.54 1403.28 1759.3 1409.24 1757.06 1416.4 1734.67 1489.12 1734.67 1489.12 1726.84 1512.96 1725.72 1522.5 1719 1538 1726.84 1528.46 1735.79 1511.77 1746.99 1484.35 1746.99 1484.35 1773.85 1414.01 1776.09 1408.05 1778.33 1400.9 1778.33 1397.32 1773.85 1393.74 1761.54 1383.01 1757.06 1363.94 1762.66 1347.25 1767.13 1337.71 1774.97 1328.17 1783.93 1324.6 1789.52 1322.21 1789.52 1316.25 1790.64 1309.1 1792.88 1259.03 1794 1226.84 1791.76 1200.61Z" fill="#0083C8" fill-rule="evenodd"/><path d="M1712.19 1540.81C1682.05 1531.26 1679.81 1512.17 1695.44 1454.91 1711.07 1398.83 1733.4 1295.03 1724.47 1243.73 1714.42 1192.43 1716.65 1144.7 1754.6 1133.97 1757.95 1133.97 1763.53 1133.97 1768 1135.16 1760.19 1131.58 1750.14 1128 1738.98 1131.58 1701.02 1141.12 1696.56 1188.85 1705.49 1240.15 1714.42 1291.45 1703.26 1392.86 1687.63 1450.13 1672 1506.21 1672 1527.68 1696.56 1538.42 1703.26 1542 1706.6 1542 1712.19 1540.81 1712.19 1540.81 1712.19 1540.81 1712.19 1540.81Z" fill="#BFDFF3" fill-rule="evenodd"/><path d="M1688 1450C1703.52 1392.83 1714.61 1291.6 1705.74 1240.38 1696.87 1189.17 1701.3 1141.53 1739 1132 1724.59 1139.15 1705.74 1170.11 1707.96 1208.22 1710.17 1246.34 1724.59 1316.61 1688 1450Z" fill="#FFFFFF" fill-rule="evenodd"/><path d="M1820.95 1391.43C1832.1 1380.74 1837.67 1364.11 1830.98 1347.47 1827.64 1337.97 1819.84 1330.84 1810.92 1327.28 1804.23 1324.9 1804.23 1318.96 1804.23 1311.83 1802 1261.94 1802 1227.48 1804.23 1201.35 1809.8 1156.2 1827.64 1117 1866.66 1127.69 1906.79 1138.38 1912.36 1183.53 1902.33 1236.99 1893.41 1289.26 1905.67 1394.99 1921.28 1453.21 1938 1511.42 1935.77 1530.43 1910.13 1542.31 1885.61 1553 1872.23 1543.5 1848.82 1484.1 1848.82 1484.1 1819.84 1412.81 1817.61 1405.69 1815.38 1398.56 1816.49 1394.99 1820.95 1391.43Z" fill="#32B0E1" fill-rule="evenodd"/><path d="M1800.94 1498.24C1816.55 1531.54 1863.36 1544.62 1889 1545.81 1889 1545.81 1889 1545.81 1889 1545.81 1889 1545.81 1889 1545.81 1889 1545.81 1875.62 1542.24 1865.59 1524.4 1848.87 1483.97 1848.87 1483.97 1819.89 1412.61 1817.66 1405.48 1815.43 1398.34 1816.55 1394.77 1821.01 1391.21 1832.15 1380.5 1837.73 1363.85 1831.04 1347.2 1827.69 1337.69 1819.89 1330.55 1810.97 1326.99 1804.29 1324.61 1804.29 1318.66 1804.29 1311.53 1802.06 1261.58 1802.06 1227.09 1804.29 1200.92 1808.75 1166.44 1819.89 1134.32 1844.41 1127.19 1844.41 1127.19 1844.41 1127.19 1844.41 1127.19 1844.41 1126 1844.41 1126 1844.41 1126 1828.81 1128.38 1814.32 1131.95 1803.17 1139.08 1803.17 1140.27 1800.94 1140.27 1799.83 1140.27 1788.68 1131.95 1775.31 1129.57 1758.59 1126 1758.59 1127.19 1758.59 1127.19 1758.59 1127.19 1758.59 1127.19 1758.59 1127.19 1758.59 1127.19 1783.11 1134.32 1794.25 1166.44 1798.71 1200.92 1800.94 1227.09 1800.94 1261.58 1798.71 1311.53 1798.71 1318.66 1797.6 1324.61 1792.03 1326.99 1783.11 1330.55 1775.31 1337.69 1771.96 1347.2 1765.27 1363.85 1770.85 1380.5 1781.99 1391.21 1786.45 1394.77 1787.57 1398.34 1785.34 1405.48 1783.11 1412.61 1754.13 1483.97 1754.13 1483.97 1737.41 1524.4 1726.26 1542.24 1714 1545.81 1714 1545.81 1714 1545.81 1714 1545.81 1714 1545.81 1714 1545.81 1714 1545.81 1736.29 1547 1789.8 1526.78 1802.06 1498.24 1802.06 1498.24 1800.94 1498.24 1800.94 1498.24Z" fill="#005890" fill-rule="evenodd"/><path d="M1778.55 1401.12C1779.67 1398.73 1777.42 1396.33 1776.3 1396.33 1767.33 1387.96 1760.61 1373.61 1760.61 1360.45 1760.61 1349.69 1765.09 1340.12 1771.82 1332.94 1777.42 1328.16 1792 1320.98 1789.76 1315 1789.76 1318.59 1774.06 1324.57 1766.21 1332.94 1759.48 1340.12 1755 1348.49 1755 1361.65 1755 1373.61 1761.73 1390.35 1771.82 1398.73 1772.94 1399.92 1774.06 1403.51 1772.94 1408.29 1771.82 1414.27 1769.58 1423.84 1766.21 1437 1770.7 1426.24 1777.42 1409.49 1778.55 1401.12Z" fill="#005890" fill-rule="evenodd"/><path d="M1812.21 1200.61C1815.52 1176.77 1821.04 1155.31 1832.09 1141 1826.57 1152.92 1823.25 1163.65 1819.94 1202.99 1817.73 1229.22 1824.36 1247.1 1826.57 1297.18 1827.67 1316.25 1844.24 1317.44 1851.97 1337.71 1859.7 1357.98 1859.7 1380.63 1847.55 1394.94 1845.34 1399.71 1842.03 1403.28 1844.24 1409.24 1846.45 1416.4 1868.54 1489.12 1868.54 1489.12 1876.27 1512.96 1877.37 1522.5 1884 1538 1876.27 1528.46 1867.43 1511.77 1857.49 1484.35 1857.49 1484.35 1829.88 1414.01 1827.67 1408.05 1825.46 1400.9 1825.46 1397.32 1829.88 1393.74 1842.03 1383.01 1846.45 1363.94 1840.93 1347.25 1836.51 1337.71 1828.78 1328.17 1819.94 1324.6 1814.42 1322.21 1814.42 1316.25 1813.31 1309.1 1811.1 1259.03 1810 1226.84 1812.21 1200.61Z" fill="#BFDFF3" fill-rule="evenodd"/><path d="M1890.81 1540.81C1920.95 1531.26 1923.19 1512.17 1907.56 1454.91 1891.93 1398.83 1869.6 1295.03 1878.53 1243.73 1888.58 1192.43 1886.35 1144.7 1848.4 1133.97 1845.05 1133.97 1840.58 1133.97 1835 1135.16 1842.81 1131.58 1852.86 1128 1864.02 1131.58 1901.98 1141.12 1906.44 1188.85 1897.51 1240.15 1888.58 1291.45 1899.74 1392.86 1915.37 1450.13 1931 1506.21 1931 1527.68 1906.44 1538.42 1899.74 1542 1896.4 1542 1890.81 1540.81 1890.81 1540.81 1890.81 1540.81 1890.81 1540.81Z" fill="#0083C8" fill-rule="evenodd"/><path d="M1916 1450C1900.17 1392.83 1888.87 1291.6 1897.91 1240.38 1906.96 1189.17 1902.43 1141.53 1864 1132 1878.7 1139.15 1897.91 1170.11 1895.65 1208.22 1893.39 1246.34 1878.7 1316.61 1916 1450Z" fill="#005890" fill-rule="evenodd"/><path d="M1832.33 1398.8C1842.33 1390.45 1849 1373.73 1849 1361.8 1849 1348.67 1844.56 1340.31 1837.89 1333.15 1833.44 1327.18 1825.67 1323.6 1820.11 1320.02 1821.22 1320.02 1821.22 1320.02 1821.22 1320.02 1817.89 1316.44 1817.89 1320.02 1817.89 1309.27 1816.78 1298.53 1810.11 1201.84 1817.89 1172 1814.56 1180.36 1809 1222.14 1810.11 1273.46 1811.22 1287.79 1813.44 1308.08 1814.56 1315.24 1814.56 1316.44 1814.56 1316.44 1814.56 1316.44 1814.56 1317.63 1814.56 1317.63 1814.56 1317.63 1814.56 1318.82 1814.56 1318.82 1814.56 1318.82 1817.89 1323.6 1827.89 1329.57 1832.33 1333.15 1839 1340.31 1843.44 1349.86 1843.44 1360.6 1843.44 1373.73 1836.78 1388.06 1827.89 1396.41 1826.78 1396.41 1824.56 1398.8 1825.67 1401.19 1826.78 1409.54 1833.44 1426.26 1837.89 1437 1834.56 1423.87 1832.33 1414.32 1831.22 1408.35 1830.11 1403.58 1831.22 1400 1832.33 1398.8Z" fill="#FFFFFF" fill-rule="evenodd"/><path d="M1822 1133C1810.82 1136.58 1804.12 1143.75 1804.12 1158.08 1803 1171.22 1803 1176 1803 1176 1805.24 1160.47 1811.94 1138.97 1822 1133Z" fill="#32B0E1" fill-rule="evenodd"/><path d="M1806.12 1415C1806.12 1450.7 1805 1466.17 1805 1482.83 1805 1499.49 1810.58 1517.34 1853 1534 1836.26 1526.86 1812.81 1510.2 1811.7 1476.88 1810.58 1443.56 1806.12 1415 1806.12 1415Z" fill="#32B0E1" fill-rule="evenodd"/><path d="M1848.51 1484.27C1848.51 1484.27 1819.58 1412.83 1817.36 1405.68 1816.25 1403.3 1816.25 1400.92 1816.25 1398.54 1816.25 1398.54 1816.25 1397.35 1816.25 1397.35 1816.25 1397.35 1816.25 1397.35 1816.25 1396.16 1816.25 1396.16 1817.36 1396.16 1817.36 1394.97 1817.36 1394.97 1817.36 1394.97 1817.36 1394.97 1817.36 1393.77 1817.36 1393.77 1818.47 1393.77 1818.47 1393.77 1818.47 1392.58 1818.47 1392.58 1819.58 1392.58 1819.58 1391.39 1820.7 1391.39 1821.81 1390.2 1822.92 1389.01 1824.03 1387.82 1825.15 1386.63 1825.15 1385.44 1826.26 1384.25 1826.26 1384.25 1827.37 1383.06 1827.37 1383.06 1828.48 1381.87 1828.48 1380.68 1829.6 1378.29 1829.6 1378.29 1829.6 1378.29 1829.6 1378.29 1834.05 1368.77 1835.16 1358.05 1830.71 1347.34 1827.37 1337.81 1819.58 1330.66 1810.68 1327.09 1804.01 1324.71 1804.01 1318.76 1804.01 1311.61 1801.78 1261.6 1801.78 1227.07 1804.01 1200.87 1805.12 1193.73 1806.23 1187.77 1807.34 1181.82 1799.56 1163.96 1787.32 1143.72 1770.63 1133 1787.32 1146.1 1795.11 1172.29 1798.44 1200.87 1800.67 1227.07 1800.67 1261.6 1798.44 1311.61 1798.44 1318.76 1797.33 1324.71 1791.77 1327.09 1782.87 1330.66 1775.08 1337.81 1771.74 1347.34 1765.07 1364.01 1770.63 1380.68 1781.76 1391.39 1786.21 1394.97 1787.32 1398.54 1785.09 1405.68 1783.98 1408.06 1780.64 1417.59 1775.08 1431.88 1775.08 1431.88 1775.08 1433.07 1773.97 1434.26 1773.97 1434.26 1773.97 1434.26 1773.97 1434.26 1763.95 1462.84 1757.28 1472.36 1753.94 1481.89 1753.94 1481.89 1753.94 1483.08 1753.94 1483.08 1753.94 1483.08 1753.94 1483.08 1753.94 1484.27 1753.94 1484.27 1753.94 1484.27 1753.94 1484.27 1751.72 1489.03 1749.49 1492.61 1748.38 1496.18 1748.38 1496.18 1748.38 1496.18 1748.38 1496.18 1736.14 1527.14 1726.13 1541.43 1715 1545 1720.56 1545 1720.56 1545 1720.56 1545 1745.04 1543.81 1789.54 1524.76 1800.67 1498.56 1800.67 1396.16 1800.67 1396.16 1800.67 1396.16 1802.89 1399.73 1810.68 1405.68 1814.02 1415.21 1815.13 1421.16 1818.47 1429.5 1821.81 1443.79 1832.93 1478.32 1856.3 1531.9 1883 1542.62 1871.87 1535.47 1861.86 1517.61 1848.51 1484.27ZM1789.54 1465.22C1787.32 1494.99 1771.74 1510.47 1763.95 1508.09 1758.39 1505.71 1790.66 1419.97 1793.99 1409.25 1792.88 1429.5 1790.66 1443.79 1789.54 1465.22Z" fill="#003B64" fill-rule="evenodd"/><path d="M1781.91 1391.43C1770.68 1380.74 1765.07 1364.11 1771.8 1347.47 1775.17 1337.97 1783.03 1330.84 1792.02 1327.28 1797.63 1324.9 1798.75 1318.96 1798.75 1311.83 1801 1261.94 1801 1227.48 1798.75 1201.35 1793.14 1156.2 1775.17 1117 1735.87 1127.69 1695.44 1138.38 1689.83 1183.53 1699.93 1236.99 1708.92 1289.26 1696.57 1394.99 1680.84 1453.21 1664 1511.42 1666.25 1530.43 1692.07 1542.31 1716.78 1553 1730.25 1543.5 1753.84 1484.1 1753.84 1484.1 1783.03 1412.81 1785.28 1405.69 1787.52 1398.56 1786.4 1394.99 1781.91 1391.43Z" stroke="#000000" stroke-width="2.29167" stroke-linecap="round" stroke-linejoin="round" stroke-miterlimit="10" fill="none" fill-rule="evenodd"/><path d="M1820.95 1391.43C1832.1 1380.74 1837.67 1364.11 1830.98 1347.47 1827.64 1337.97 1819.84 1330.84 1810.92 1327.28 1804.23 1324.9 1804.23 1318.96 1804.23 1311.83 1802 1261.94 1802 1227.48 1804.23 1201.35 1809.8 1156.2 1827.64 1117 1866.66 1127.69 1906.79 1138.38 1912.36 1183.53 1902.33 1236.99 1893.41 1289.26 1905.67 1394.99 1921.28 1453.21 1938 1511.42 1935.77 1530.43 1910.13 1542.31 1885.61 1553 1872.23 1543.5 1848.82 1484.1 1848.82 1484.1 1819.84 1412.81 1817.61 1405.69 1815.38 1398.56 1816.49 1394.99 1820.95 1391.43Z" stroke="#000000" stroke-width="2.29167" stroke-linecap="round" stroke-linejoin="round" stroke-miterlimit="10" fill="none" fill-rule="evenodd"/><path d="M1800.94 1498.24C1816.55 1531.54 1863.36 1544.62 1889 1545.81 1889 1545.81 1889 1545.81 1889 1545.81 1889 1545.81 1889 1545.81 1889 1545.81 1875.62 1542.24 1865.59 1524.4 1848.87 1483.97 1848.87 1483.97 1819.89 1412.61 1817.66 1405.48 1815.43 1398.34 1816.55 1394.77 1821.01 1391.21 1832.15 1380.5 1837.73 1363.85 1831.04 1347.2 1827.69 1337.69 1819.89 1330.55 1810.97 1326.99 1804.29 1324.61 1804.29 1318.66 1804.29 1311.53 1802.06 1261.58 1802.06 1227.09 1804.29 1200.92 1808.75 1166.44 1819.89 1134.32 1844.41 1127.19 1844.41 1127.19 1844.41 1127.19 1844.41 1127.19 1844.41 1126 1844.41 1126 1844.41 1126 1828.81 1128.38 1814.32 1131.95 1803.17 1139.08 1803.17 1140.27 1800.94 1140.27 1799.83 1140.27 1788.68 1131.95 1775.31 1129.57 1758.59 1126 1758.59 1127.19 1758.59 1127.19 1758.59 1127.19 1758.59 1127.19 1758.59 1127.19 1758.59 1127.19 1783.11 1134.32 1794.25 1166.44 1798.71 1200.92 1800.94 1227.09 1800.94 1261.58 1798.71 1311.53 1798.71 1318.66 1797.6 1324.61 1792.03 1326.99 1783.11 1330.55 1775.31 1337.69 1771.96 1347.2 1765.27 1363.85 1770.85 1380.5 1781.99 1391.21 1786.45 1394.77 1787.57 1398.34 1785.34 1405.48 1783.11 1412.61 1754.13 1483.97 1754.13 1483.97 1737.41 1524.4 1726.26 1542.24 1714 1545.81 1714 1545.81 1714 1545.81 1714 1545.81 1714 1545.81 1714 1545.81 1714 1545.81 1736.29 1547 1789.8 1526.78 1802.06 1498.24 1802.06 1498.24 1800.94 1498.24 1800.94 1498.24Z" stroke="#000000" stroke-width="2.29167" stroke-linecap="round" stroke-linejoin="round" stroke-miterlimit="10" fill="none" fill-rule="evenodd"/><path d="M0 0 0.999672 362" stroke="#000000" stroke-width="2.29167" stroke-linecap="round" stroke-linejoin="round" stroke-miterlimit="10" fill="none" fill-rule="evenodd" transform="matrix(1 0 0 -1 1801 1502)"/></g></svg>