<svg width="231" height="437" xmlns="http://www.w3.org/2000/svg" xmlns:xlink="http://www.w3.org/1999/xlink" xml:space="preserve" overflow="hidden"><g transform="translate(-2768 -526)"><path d="M2817 956C2897 956 2867.32 792.407 2840.23 706.102 2819.58 640.407 2829.9 576 2789.9 576 2788.61 576 2788.61 576 2788.61 576 2748.61 576 2783.45 639.119 2795.06 706.102 2811.84 806.576 2737 956 2815.71 956L2817 956Z" fill="#1556FF" fill-rule="evenodd"/><path d="M2824 959 2825 960" stroke="#1780FF" stroke-width="5.72917" stroke-miterlimit="8" fill="none" fill-rule="evenodd"/><path d="M2786.4 650.43C2791.6 668.477 2796.8 689.102 2800.7 708.438 2807.2 747.109 2799.4 794.805 2792.9 837.344 2787.7 870.859 2781.2 903.086 2785.1 925 2785.1 925 2785.1 925 2785.1 925 2781.2 903.086 2794.2 870.859 2799.4 837.344 2807.2 794.805 2815 747.109 2807.2 707.148 2804.6 686.523 2798.1 667.188 2794.2 649.141 2787.7 627.227 2776 607.891 2776 595 2776 595 2776 595 2776 595 2776 607.891 2779.9 628.516 2786.4 650.43Z" fill="#FFFFFF" fill-rule="evenodd"/><path d="M2840.5 706.102C2819.95 644.271 2828.94 583.729 2796.84 576 2822.52 605.627 2813.53 654.576 2827.66 698.373 2854.62 784.678 2879.02 939.254 2799.41 939.254 2798.12 939.254 2798.12 939.254 2798.12 939.254 2792.99 939.254 2787.85 937.966 2784 936.678 2789.14 949.559 2799.41 956 2816.1 956 2817.39 956 2817.39 956 2817.39 956 2897 956 2867.47 792.407 2840.5 706.102Z" fill="#143DED" fill-rule="evenodd"/><path d="M2921.71 956C2843 956 2872.68 792.407 2899.77 706.102 2920.42 640.407 2910.1 576 2950.1 576 2951.39 576 2951.39 576 2951.39 576 2990.1 576 2956.55 639.119 2944.94 706.102 2926.87 806.576 3003 956 2923 956L2921.71 956Z" fill="#1556FF" fill-rule="evenodd"/><path d="M2996.56 574.699C3003 534.735 2930.82 527 2898.6 527 2809.67 527 2774.87 554.072 2771 588.879 2772.29 579.855 2778.73 575.988 2789.04 575.988 2790.33 575.988 2790.33 575.988 2790.33 575.988 2830.29 575.988 2819.98 640.446 2840.6 706.193 2865.09 786.12 2893.44 933.084 2834.16 953.711 2834.16 955 2834.16 955 2834.16 955 2853.49 945.976 2883.13 944.687 2902.47 952.422 2848.33 925.349 2875.4 783.542 2899.89 706.193 2920.51 640.446 2910.2 575.988 2950.16 575.988 2951.44 575.988 2951.44 575.988 2951.44 575.988 2990.11 575.988 2956.6 639.157 2945 706.193 2929.53 796.434 2987.53 925.349 2943.71 952.422 2964.33 943.397 2984.96 913.747 2987.53 895.699 2993.98 846.711 2959.18 750.024 2972.07 679.12 2978.51 637.867 2993.98 599.193 2996.56 574.699Z" fill="#1445F7" fill-rule="evenodd"/><path d="M2816 595C2807 573.143 2828.86 552.571 2882.86 551.286 2936.86 550 2960 561.571 2936.86 578.286" fill="#0000AD" fill-rule="evenodd"/><path d="M2882.93 551.29C2832.84 552.58 2811 570.637 2814.85 591.274 2826.41 614.49 2825.13 660.924 2840.54 706.067 2864.95 786.035 2893.21 933.073 2834.12 953.71 2834.12 955 2834.12 955 2834.12 955 2853.39 945.971 2882.93 944.682 2902.2 952.42 2848.25 925.334 2875.22 783.455 2899.63 706.067 2917.61 649.315 2912.47 591.274 2936.88 578.376 2936.88 578.376 2936.88 578.376 2936.88 578.376 2960 561.608 2936.88 550 2882.93 551.29Z" fill="#1325D4" fill-rule="evenodd"/><path d="M2880 561.295C2902 563.885 2902 563.885 2902 563.885 2908.47 565.18 2912.35 566.475 2913.65 570.361 2916.24 572.951 2914.94 576.836 2912.35 580.721 2904.59 594.967 2905.88 615.689 2903.29 639 2903.29 639 2903.29 639 2903.29 639 2905.88 615.689 2911.06 597.557 2918.82 583.311 2920.12 580.721 2924 572.951 2920.12 566.475 2917.53 561.295 2912.35 560 2904.59 560 2882.59 562.59 2882.59 562.59 2882.59 562.59L2880 561.295Z" fill="#FFFFFF" fill-rule="evenodd"/><path d="M2882.93 551.29C2832.84 552.58 2811 570.637 2814.85 591.274 2826.41 614.49 2825.13 660.924 2840.54 706.067 2864.95 786.035 2893.21 933.073 2834.12 953.71 2834.12 955 2834.12 955 2834.12 955 2853.39 945.971 2882.93 944.682 2902.2 952.42 2848.25 925.334 2875.22 783.455 2899.63 706.067 2917.61 649.315 2912.47 591.274 2936.88 578.376 2936.88 578.376 2936.88 578.376 2936.88 578.376 2960 561.608 2936.88 550 2882.93 551.29ZM2871.37 935.653C2868.8 935.653 2871.37 935.653 2867.52 935.653 2870.09 931.783 2868.8 927.914 2870.09 924.045 2871.37 927.914 2870.09 931.783 2871.37 935.653ZM2916.33 583.535C2908.62 596.433 2906.05 615.78 2903.48 638.997 2899.63 658.344 2897.06 680.271 2890.64 702.197 2886.78 712.516 2877.79 751.21 2870.09 797.643 2862.38 751.21 2853.39 712.516 2849.53 702.197 2843.11 680.271 2839.26 658.344 2836.69 638.997 2834.12 618.36 2831.55 601.592 2826.41 588.694 2825.13 588.694 2825.13 587.404 2825.13 587.404 2825.13 586.115 2826.41 583.535 2828.98 580.955 2835.41 571.927 2849.53 562.898 2882.93 562.898 2891.92 561.608 2898.34 562.898 2904.77 562.898 2925.32 561.608 2920.18 577.086 2916.33 583.535Z" fill="#1200B0" fill-rule="evenodd"/><path d="M2965.46 650.366C2960.23 668.434 2955 689.083 2951.08 708.441 2944.54 747.158 2956.31 801.362 2962.85 843.951 2968.08 877.506 2962.85 911.06 2958.92 933 2958.92 933 2958.92 933 2958.92 933 2962.85 911.06 2957.62 871.053 2952.38 837.498 2945.85 794.909 2938 747.158 2944.54 707.151 2948.46 686.502 2953.69 667.143 2958.92 649.075 2965.46 627.136 2970.69 603.906 2970.69 591 2970.69 591 2970.69 591 2970.69 591 2970.69 603.906 2972 628.426 2965.46 650.366Z" fill="#131CCB" fill-rule="evenodd"/><path d="M2919.35 640.326C2916.76 659.628 2912.88 682.791 2906.41 705.953 2883.12 776.729 2866.29 875.814 2887 926 2887 926 2887 926 2887 926 2865 874.527 2892.18 772.868 2910.29 716.248 2918.06 693.085 2921.94 664.775 2924.53 644.186 2927.12 626.171 2927.12 605.581 2931 594 2931 594 2931 594 2931 594 2927.12 605.581 2921.94 621.023 2919.35 640.326Z" fill="#FFFFFF" fill-rule="evenodd"/><path d="M2986.74 866.58C2985.49 874.319 2984.23 878.188 2977.94 884.638 2970.4 891.087 2965.37 876.898 2964.11 864 2957.83 873.029 2957.83 873.029 2957.83 873.029 2962.86 910.435 2962.86 941.391 2944 953 2964.11 943.971 2984.23 914.304 2986.74 896.246 2988 888.507 2988 878.188 2986.74 866.58Z" fill="#131CCB" fill-rule="evenodd"/><path d="M2964 595C2964 606.602 2958.92 624.648 2951.31 650.43 2947.5 668.477 2941.15 687.813 2938.62 708.438 2931 747.109 2938.62 794.805 2946.23 837.344 2947.5 847.656 2947.5 847.656 2947.5 847.656 2952.58 877.305 2958.92 905.664 2956.38 925 2956.38 925 2956.38 925 2956.38 925 2958.92 904.375 2956.38 877.305 2951.31 846.367 2950.04 837.344 2950.04 837.344 2950.04 837.344 2943.69 794.805 2936.08 747.109 2942.42 709.727 2946.23 689.102 2951.31 668.477 2956.38 651.719 2964 625.938 2964 606.602 2964 595Z" fill="#FFFFFF" fill-rule="evenodd"/><path d="M2952.6 650.43C2947.53 668.477 2942.47 689.102 2938.67 708.438 2932.33 747.109 2939.93 794.805 2947.53 837.344 2952.6 870.859 2957.67 903.086 2955.13 925 2955.13 925 2955.13 925 2955.13 925 2957.67 903.086 2945 870.859 2939.93 837.344 2933.6 794.805 2926 747.109 2932.33 707.148 2936.13 686.523 2941.2 667.188 2946.27 649.141 2952.6 627.227 2964 607.891 2962.73 595 2962.73 595 2962.73 595 2962.73 595 2964 607.891 2958.93 628.516 2952.6 650.43Z" fill="#143DED" fill-rule="evenodd"/><path d="M2860 746.177C2862.47 755.235 2864.94 761.706 2871.12 761.706 2877.29 761.706 2881 741 2881 741 2881 741 2878.53 764.294 2878.53 765.588 2879.76 766.882 2871.12 807 2871.12 807 2866.18 781.118 2866.18 781.118 2866.18 781.118" fill="#1200B0" fill-rule="evenodd"/><path d="M2817.5 956.5C2897.5 956.5 2867.82 792.907 2840.73 706.602 2820.08 640.907 2830.4 576.5 2790.4 576.5 2789.11 576.5 2789.11 576.5 2789.11 576.5 2749.11 576.5 2783.95 639.619 2795.56 706.602 2812.34 807.076 2737.5 956.5 2816.21 956.5L2817.5 956.5Z" stroke="#000073" stroke-width="2.86476" stroke-linecap="round" stroke-linejoin="round" stroke-miterlimit="10" fill="none" fill-rule="evenodd"/><path d="M2922.21 956.5C2843.5 956.5 2873.18 792.907 2900.27 706.602 2920.92 640.907 2910.6 576.5 2950.6 576.5 2951.89 576.5 2951.89 576.5 2951.89 576.5 2990.6 576.5 2957.05 639.619 2945.44 706.602 2927.37 807.076 3003.5 956.5 2923.5 956.5L2922.21 956.5Z" stroke="#000073" stroke-width="2.86476" stroke-linecap="round" stroke-linejoin="round" stroke-miterlimit="10" fill="none" fill-rule="evenodd"/><path d="M2997.06 575.199C3003.5 535.235 2931.32 527.5 2899.1 527.5 2810.17 527.5 2775.37 554.572 2771.5 589.38 2772.79 580.356 2779.23 576.488 2789.54 576.488 2790.83 576.488 2790.83 576.488 2790.83 576.488 2830.79 576.488 2820.48 640.946 2841.1 706.693 2865.59 786.621 2893.94 933.584 2834.66 954.211 2834.66 955.5 2834.66 955.5 2834.66 955.5 2853.99 946.476 2883.63 945.187 2902.97 952.922 2848.83 925.85 2875.9 784.042 2900.39 706.693 2921.01 640.946 2910.7 576.488 2950.66 576.488 2951.94 576.488 2951.94 576.488 2951.94 576.488 2990.61 576.488 2957.1 639.657 2945.5 706.693 2930.03 796.934 2988.03 925.85 2944.21 952.922 2964.83 943.898 2985.46 914.247 2988.03 896.199 2994.48 847.211 2959.68 750.524 2972.57 679.621 2979.01 638.368 2994.48 599.693 2997.06 575.199Z" stroke="#000073" stroke-width="2.86476" stroke-linecap="round" stroke-linejoin="round" stroke-miterlimit="10" fill="none" fill-rule="evenodd"/><path d="M2816.5 595.5C2807.5 573.643 2829.36 553.071 2883.36 551.786 2937.36 550.5 2960.5 562.071 2937.36 578.786" stroke="#000073" stroke-width="2.86476" stroke-linecap="round" stroke-linejoin="round" stroke-miterlimit="10" fill="none" fill-rule="evenodd"/><path d="M2883.43 551.79C2833.34 553.079 2811.5 571.137 2815.35 591.774 2826.91 614.99 2825.63 661.423 2841.04 706.567 2865.45 786.535 2893.71 933.573 2834.62 954.21 2834.62 955.5 2834.62 955.5 2834.62 955.5 2853.89 946.471 2883.43 945.182 2902.7 952.921 2848.75 925.834 2875.72 783.955 2900.13 706.567 2918.11 649.815 2912.97 591.774 2937.38 578.876 2937.38 578.876 2937.38 578.876 2937.38 578.876 2960.5 562.108 2937.38 550.5 2883.43 551.79Z" stroke="#000073" stroke-width="2.86476" stroke-linecap="round" stroke-linejoin="round" stroke-miterlimit="10" fill="none" fill-rule="evenodd"/></g></svg>