<svg width="230" height="437" xmlns="http://www.w3.org/2000/svg" xmlns:xlink="http://www.w3.org/1999/xlink" xml:space="preserve" overflow="hidden"><g transform="translate(-2782 -1789)"><path d="M2831 2220C2911 2220 2881.32 2055.98 2854.23 1969.44 2833.58 1903.58 2843.9 1839 2803.9 1839 2802.61 1839 2802.61 1839 2802.61 1839 2762.61 1839 2797.45 1902.28 2809.06 1969.44 2825.84 2070.18 2751 2220 2829.71 2220L2831 2220Z" fill="#FFFFBC" fill-rule="evenodd"/><path d="M2837 2222 2838 2223" stroke="#FFFFFF" stroke-width="5.72917" stroke-miterlimit="8" fill="none" fill-rule="evenodd"/><path d="M2800.4 1914.43C2805.6 1932.48 2810.8 1953.1 2814.7 1972.44 2821.2 2011.11 2813.4 2058.8 2806.9 2101.34 2801.7 2134.86 2795.2 2167.09 2799.1 2189 2799.1 2189 2799.1 2189 2799.1 2189 2795.2 2167.09 2808.2 2134.86 2813.4 2101.34 2821.2 2058.8 2829 2011.11 2821.2 1971.15 2818.6 1950.52 2812.1 1931.19 2808.2 1913.14 2801.7 1891.23 2790 1871.89 2790 1859 2790 1859 2790 1859 2790 1859 2790 1871.89 2793.9 1892.52 2800.4 1914.43Z" fill="#FFFFFF" fill-rule="evenodd"/><path d="M2854.5 1969.44C2833.95 1907.45 2842.94 1846.75 2810.84 1839 2836.52 1868.71 2827.53 1917.78 2841.66 1961.69 2868.62 2048.23 2893.02 2203.21 2813.41 2203.21 2812.13 2203.21 2812.13 2203.21 2812.13 2203.21 2806.99 2203.21 2801.85 2201.92 2798 2200.63 2803.14 2213.54 2813.41 2220 2830.1 2220 2831.39 2220 2831.39 2220 2831.39 2220 2911 2220 2881.47 2055.98 2854.5 1969.44Z" fill="#FFFFA0" fill-rule="evenodd"/><path d="M2935.22 2220C2857 2220 2886.49 2055.98 2913.42 1969.44 2933.94 1903.58 2923.68 1839 2963.43 1839 2964.71 1839 2964.71 1839 2964.71 1839 3003.18 1839 2969.84 1902.28 2958.3 1969.44 2940.35 2070.18 3016 2220 2936.5 2220L2935.22 2220Z" fill="#FFFFBC" fill-rule="evenodd"/><path d="M3009.56 1837.7C3016 1797.73 2943.82 1790 2911.6 1790 2822.67 1790 2787.87 1817.07 2784 1851.88 2785.29 1842.86 2791.73 1838.99 2802.04 1838.99 2803.33 1838.99 2803.33 1838.99 2803.33 1838.99 2843.29 1838.99 2832.98 1903.45 2853.6 1969.19 2878.09 2049.12 2906.44 2196.08 2847.16 2216.71 2847.16 2218 2847.16 2218 2847.16 2218 2866.49 2208.98 2896.13 2207.69 2915.47 2215.42 2861.33 2188.35 2888.4 2046.54 2912.89 1969.19 2933.51 1903.45 2923.2 1838.99 2963.16 1838.99 2964.44 1838.99 2964.44 1838.99 2964.44 1838.99 3003.11 1838.99 2969.6 1902.16 2958 1969.19 2942.53 2059.43 3000.53 2188.35 2956.71 2215.42 2977.33 2206.4 2997.96 2176.75 3000.53 2158.7 3006.98 2109.71 2972.18 2013.02 2985.07 1942.12 2991.51 1900.87 3006.98 1862.19 3009.56 1837.7Z" fill="#FFFFAA" fill-rule="evenodd"/><path d="M2829.06 1859C2820 1836.66 2842 1815.63 2896.35 1814.31 2950.71 1813 2974 1824.83 2950.71 1841.91" fill="#F2B060" fill-rule="evenodd"/><path d="M2896.93 1814.29C2846.84 1815.58 2825 1833.64 2828.85 1854.27 2840.41 1877.49 2839.13 1923.92 2854.54 1969.07 2878.95 2049.03 2907.21 2196.07 2848.12 2216.71 2848.12 2218 2848.12 2218 2848.12 2218 2867.39 2208.97 2896.93 2207.68 2916.2 2215.42 2862.25 2188.33 2889.22 2046.46 2913.63 1969.07 2931.61 1912.32 2926.47 1854.27 2950.88 1841.38 2950.88 1841.38 2950.88 1841.38 2950.88 1841.38 2974 1824.61 2950.88 1813 2896.93 1814.29Z" fill="#FFFD87" fill-rule="evenodd"/><path d="M2894 1825.28C2916 1827.84 2916 1827.84 2916 1827.84 2922.47 1829.11 2926.35 1830.39 2927.65 1834.23 2930.24 1836.79 2928.94 1840.62 2926.35 1844.46 2918.59 1858.52 2919.88 1878.98 2917.29 1902 2917.29 1902 2917.29 1902 2917.29 1902 2919.88 1878.98 2925.06 1861.08 2932.82 1847.02 2934.12 1844.46 2938 1836.79 2934.12 1830.39 2931.53 1825.28 2926.35 1824 2918.59 1824 2896.59 1826.56 2896.59 1826.56 2896.59 1826.56L2894 1825.28Z" fill="#FFFFFF" fill-rule="evenodd"/><path d="M2896.93 1814.29C2846.84 1815.58 2825 1833.64 2828.85 1854.27 2840.41 1877.49 2839.13 1923.92 2854.54 1969.07 2878.95 2049.03 2907.21 2196.07 2848.12 2216.71 2848.12 2218 2848.12 2218 2848.12 2218 2867.39 2208.97 2896.93 2207.68 2916.2 2215.42 2862.25 2188.33 2889.22 2046.46 2913.63 1969.07 2931.61 1912.32 2926.47 1854.27 2950.88 1841.38 2950.88 1841.38 2950.88 1841.38 2950.88 1841.38 2974 1824.61 2950.88 1813 2896.93 1814.29ZM2885.37 2198.65C2882.8 2198.65 2885.37 2198.65 2881.52 2198.65 2884.09 2194.78 2882.8 2190.91 2884.09 2187.04 2885.37 2190.91 2884.09 2194.78 2885.37 2198.65ZM2930.33 1846.53C2922.62 1859.43 2920.05 1878.78 2917.48 1902 2913.63 1921.34 2911.06 1943.27 2904.64 1965.2 2900.78 1975.52 2891.79 2014.21 2884.09 2060.64 2876.38 2014.21 2867.39 1975.52 2863.53 1965.2 2857.11 1943.27 2853.26 1921.34 2850.69 1902 2848.12 1881.36 2845.55 1864.59 2840.41 1851.69 2839.13 1851.69 2839.13 1850.4 2839.13 1850.4 2839.13 1849.11 2840.41 1846.53 2842.98 1843.96 2849.41 1834.93 2863.53 1825.9 2896.93 1825.9 2905.92 1824.61 2912.34 1825.9 2918.77 1825.9 2939.32 1824.61 2934.18 1840.09 2930.33 1846.53Z" fill="#FFCC63" fill-rule="evenodd"/><path d="M2979.46 1914.19C2974.23 1932.21 2969 1952.8 2965.08 1972.1 2958.54 2010.7 2970.31 2064.75 2976.85 2107.21 2982.08 2140.67 2976.85 2174.12 2972.92 2196 2972.92 2196 2972.92 2196 2972.92 2196 2976.85 2174.12 2971.62 2134.23 2966.38 2100.78 2959.85 2058.31 2952 2010.7 2958.54 1970.81 2962.46 1950.22 2967.69 1930.92 2972.92 1912.91 2979.46 1891.03 2984.69 1867.87 2984.69 1855 2984.69 1855 2984.69 1855 2984.69 1855 2984.69 1867.87 2986 1892.32 2979.46 1914.19Z" fill="#FFF47E" fill-rule="evenodd"/><path d="M2932.53 1903.46C2929.98 1922.83 2926.16 1946.06 2919.78 1969.29 2896.84 2040.28 2880.27 2139.66 2900.67 2190 2900.67 2190 2900.67 2190 2900.67 2190 2879 2138.37 2905.76 2036.41 2923.61 1979.62 2931.25 1956.38 2935.08 1927.99 2937.63 1907.34 2940.18 1889.27 2940.18 1868.62 2944 1857 2944 1857 2944 1857 2944 1857 2940.18 1868.62 2935.08 1884.1 2932.53 1903.46Z" fill="#FFFFFF" fill-rule="evenodd"/><path d="M3000.71 2129.58C2999.43 2137.32 2998.14 2141.19 2991.71 2147.64 2984 2154.09 2978.86 2139.9 2977.57 2127 2971.14 2136.03 2971.14 2136.03 2971.14 2136.03 2976.29 2173.44 2976.29 2204.39 2957 2216 2977.57 2206.97 2998.14 2177.3 3000.71 2159.25 3002 2151.51 3002 2141.19 3000.71 2129.58Z" fill="#FFF47E" fill-rule="evenodd"/><path d="M2978 1859C2978 1870.6 2972.77 1888.65 2964.92 1914.43 2961 1932.48 2954.46 1951.81 2951.85 1972.44 2944 2011.11 2951.85 2058.8 2959.69 2101.34 2961 2111.66 2961 2111.66 2961 2111.66 2966.23 2141.3 2972.77 2169.66 2970.15 2189 2970.15 2189 2970.15 2189 2970.15 2189 2972.77 2168.38 2970.15 2141.3 2964.92 2110.37 2963.62 2101.34 2963.62 2101.34 2963.62 2101.34 2957.08 2058.8 2949.23 2011.11 2955.77 1973.73 2959.69 1953.1 2964.92 1932.48 2970.15 1915.72 2978 1889.94 2978 1870.6 2978 1859Z" fill="#FFFFFF" fill-rule="evenodd"/><path d="M2966.3 1914.43C2961.1 1932.48 2955.9 1953.1 2952 1972.44 2945.5 2011.11 2953.3 2058.8 2961.1 2101.34 2966.3 2134.86 2971.5 2167.09 2968.9 2189 2968.9 2189 2968.9 2189 2968.9 2189 2971.5 2167.09 2958.5 2134.86 2953.3 2101.34 2946.8 2058.8 2939 2011.11 2945.5 1971.15 2949.4 1950.52 2954.6 1931.19 2959.8 1913.14 2966.3 1891.23 2978 1871.89 2976.7 1859 2976.7 1859 2976.7 1859 2976.7 1859 2978 1871.89 2972.8 1892.52 2966.3 1914.43Z" fill="#FFFFA0" fill-rule="evenodd"/><path d="M2873 2009.18C2875.59 2018.24 2878.18 2024.71 2884.65 2024.71 2891.12 2024.71 2895 2004 2895 2004 2895 2004 2892.41 2027.29 2892.41 2028.59 2893.71 2029.88 2884.65 2070 2884.65 2070 2879.47 2044.12 2879.47 2044.12 2879.47 2044.12" fill="#FFCC63" fill-rule="evenodd"/><path d="M2831.5 2220.5C2911.5 2220.5 2881.82 2056.48 2854.73 1969.94 2834.08 1904.08 2844.4 1839.5 2804.4 1839.5 2803.11 1839.5 2803.11 1839.5 2803.11 1839.5 2763.11 1839.5 2797.95 1902.78 2809.56 1969.94 2826.34 2070.68 2751.5 2220.5 2830.21 2220.5L2831.5 2220.5Z" stroke="#333333" stroke-width="2.86476" stroke-linecap="round" stroke-linejoin="round" stroke-miterlimit="10" fill="none" fill-rule="evenodd"/><path d="M2935.72 2220.5C2857.5 2220.5 2886.99 2056.48 2913.92 1969.94 2934.44 1904.08 2924.18 1839.5 2963.93 1839.5 2965.21 1839.5 2965.21 1839.5 2965.21 1839.5 3003.68 1839.5 2970.34 1902.78 2958.8 1969.94 2940.85 2070.68 3016.5 2220.5 2937 2220.5L2935.72 2220.5Z" stroke="#333333" stroke-width="2.86476" stroke-linecap="round" stroke-linejoin="round" stroke-miterlimit="10" fill="none" fill-rule="evenodd"/><path d="M3010.06 1838.2C3016.5 1798.24 2944.32 1790.5 2912.1 1790.5 2823.17 1790.5 2788.37 1817.57 2784.5 1852.38 2785.79 1843.36 2792.23 1839.49 2802.54 1839.49 2803.83 1839.49 2803.83 1839.49 2803.83 1839.49 2843.79 1839.49 2833.48 1903.95 2854.1 1969.69 2878.59 2049.62 2906.94 2196.58 2847.66 2217.21 2847.66 2218.5 2847.66 2218.5 2847.66 2218.5 2866.99 2209.48 2896.63 2208.19 2915.97 2215.92 2861.83 2188.85 2888.9 2047.04 2913.39 1969.69 2934.01 1903.95 2923.7 1839.49 2963.66 1839.49 2964.94 1839.49 2964.94 1839.49 2964.94 1839.49 3003.61 1839.49 2970.1 1902.66 2958.5 1969.69 2943.03 2059.93 3001.03 2188.85 2957.21 2215.92 2977.83 2206.9 2998.46 2177.25 3001.03 2159.2 3007.48 2110.21 2972.68 2013.52 2985.57 1942.62 2992.01 1901.37 3007.48 1862.69 3010.06 1838.2Z" stroke="#333333" stroke-width="2.86476" stroke-linecap="round" stroke-linejoin="round" stroke-miterlimit="10" fill="none" fill-rule="evenodd"/><path d="M2829.56 1859.5C2820.5 1837.16 2842.5 1816.13 2896.85 1814.81 2951.21 1813.5 2974.5 1825.33 2951.21 1842.41" stroke="#333333" stroke-width="2.86476" stroke-linecap="round" stroke-linejoin="round" stroke-miterlimit="10" fill="none" fill-rule="evenodd"/><path d="M2897.43 1814.79C2847.34 1816.08 2825.5 1834.14 2829.35 1854.77 2840.91 1877.99 2839.63 1924.42 2855.04 1969.57 2879.45 2049.54 2907.71 2196.57 2848.62 2217.21 2848.62 2218.5 2848.62 2218.5 2848.62 2218.5 2867.89 2209.47 2897.43 2208.18 2916.7 2215.92 2862.75 2188.83 2889.72 2046.96 2914.13 1969.57 2932.11 1912.82 2926.97 1854.77 2951.38 1841.88 2951.38 1841.88 2951.38 1841.88 2951.38 1841.88 2974.5 1825.11 2951.38 1813.5 2897.43 1814.79Z" stroke="#333333" stroke-width="2.86476" stroke-linecap="round" stroke-linejoin="round" stroke-miterlimit="10" fill="none" fill-rule="evenodd"/></g></svg>