<svg width="230" height="401" xmlns="http://www.w3.org/2000/svg" xmlns:xlink="http://www.w3.org/1999/xlink" xml:space="preserve" overflow="hidden"><g transform="translate(-2611 -1818)"><path d="M2650.32 1834.58C2623.13 1832 2605 1892.7 2615.36 1946.93 2625.72 2002.46 2651.61 2068.32 2645.14 2112.23 2637.37 2156.14 2633.48 2175.51 2652.91 2198.75 2672.33 2222 2709.87 2214.25 2718.94 2191.01 2728 2166.47 2724.12 2041.21 2724.12 2016.67 2724.12 1993.42 2699.52 1834.58 2650.32 1834.58Z" fill="#E61B81" fill-rule="evenodd"/><path d="M2800.79 1834.58C2826.62 1832 2846 1892.7 2835.67 1946.93 2825.33 2002.46 2799.5 2068.32 2805.96 2112.23 2813.71 2156.14 2817.58 2175.51 2798.21 2198.75 2778.83 2222 2741.38 2214.25 2732.33 2191.01 2722 2166.47 2727.17 2041.21 2727.17 2016.67 2727.17 1993.42 2751.71 1834.58 2800.79 1834.58Z" fill="#E61B81" fill-rule="evenodd"/><path d="M2732.24 2191.16C2721.93 2166.6 2727.09 2041.26 2727.09 2016.71 2727.09 1993.45 2751.58 1834.51 2800.56 1834.51 2803.13 1834.51 2804.42 1834.51 2807 1834.51 2790.24 1825.46 2764.47 1819 2724.51 1819 2675.53 1819 2643.31 1829.34 2633 1840.97 2633 1840.97 2634.29 1839.68 2635.58 1839.68 2639.44 1835.8 2644.6 1833.21 2649.76 1834.51 2660.07 1834.51 2669.09 1840.97 2676.82 1851.31 2679.4 1855.18 2680.69 1857.77 2683.27 1861.64 2709.04 1908.16 2723.22 1999.91 2723.22 2016.71 2723.22 2041.26 2727.09 2166.6 2718.07 2191.16 2712.91 2205.37 2696.16 2214.42 2679.4 2213.12 2694.87 2215.71 2705.18 2217 2725.8 2217 2745.13 2217 2755.44 2215.71 2772.2 2213.12 2755.44 2214.42 2737.4 2205.37 2732.24 2191.16Z" fill="#C10032" fill-rule="evenodd"/><path d="M2807 1834.51C2790.24 1825.46 2764.47 1819 2724.51 1819 2675.53 1819 2643.31 1829.34 2633 1840.97 2633 1840.97 2634.29 1839.68 2635.58 1839.68 2639.44 1835.8 2644.6 1833.21 2649.76 1834.51 2660.07 1834.51 2669.09 1840.97 2676.82 1851.31 2679.4 1855.18 2680.69 1857.77 2683.27 1861.64 2709.04 1908.16 2723.22 1999.91 2723.22 2016.71 2723.22 2041.26 2727.09 2166.6 2718.07 2191.16 2712.91 2205.37 2696.16 2214.42 2679.4 2213.12 2694.87 2215.71 2705.18 2217 2725.8 2217 2745.13 2217 2755.44 2215.71 2772.2 2213.12 2755.44 2214.42 2737.4 2205.37 2732.24 2191.16 2721.93 2166.6 2727.09 2041.26 2727.09 2016.71 2727.09 1993.45 2751.58 1834.51 2800.56 1834.51 2803.13 1834.51 2804.42 1834.51 2807 1834.51ZM2725.8 2202.79C2723.22 2202.79 2720.64 2202.79 2718.07 2202.79 2720.64 2200.2 2721.93 2197.62 2721.93 2195.03 2723.22 2192.45 2724.51 2189.86 2724.51 2185.99 2725.8 2189.86 2727.09 2192.45 2727.09 2195.03 2728.38 2197.62 2729.67 2200.2 2730.96 2202.79 2729.67 2202.79 2727.09 2202.79 2725.8 2202.79ZM2756.73 1842.26C2759.31 1843.55 2758.02 1848.72 2756.73 1851.31 2737.4 1882.32 2734.82 1932.71 2729.67 1968.9 2727.09 1980.53 2725.8 1989.57 2725.8 1997.32 2724.51 1989.57 2723.22 1980.53 2720.64 1970.19 2715.49 1932.71 2712.91 1886.19 2694.87 1855.18 2694.87 1853.89 2693.58 1852.6 2692.29 1851.31 2691 1848.72 2691 1843.55 2694.87 1842.26 2702.6 1839.68 2710.33 1834.51 2724.51 1834.51 2738.69 1834.51 2747.71 1839.68 2756.73 1842.26Z" fill="#B00014" fill-rule="evenodd"/><path d="M2620.67 1948.65C2623.22 1965.45 2628.33 1983.54 2633.44 2001.62 2643.67 2041.68 2653.89 2083.02 2648.78 2112.74 2647.5 2119.2 2647.5 2119.2 2647.5 2119.2 2644.94 2139.87 2644.94 2154.08 2646.22 2167 2646.22 2167 2646.22 2167 2646.22 2167 2644.94 2155.37 2648.78 2139.87 2652.61 2120.49 2653.89 2112.74 2653.89 2112.74 2653.89 2112.74 2659 2083.02 2651.33 2040.38 2641.11 2000.33 2636 1982.24 2632.17 1964.16 2628.33 1947.36 2620.67 1908.6 2623.22 1862.09 2638.56 1844 2638.56 1844 2638.56 1844 2638.56 1844 2621.94 1863.38 2613 1908.6 2620.67 1948.65Z" fill="#FFFFFF" fill-rule="evenodd"/><path d="M2724.12 2016.46C2724.12 1998.37 2707.29 1892.37 2677.53 1851 2696.94 1900.12 2707.29 1973.8 2707.29 1989.32 2707.29 2012.59 2713.76 2137.98 2703.41 2162.54 2694.35 2185.8 2660.71 2193.56 2640 2172.88 2641.29 2181.93 2645.18 2189.68 2652.94 2198.73 2672.35 2222 2709.88 2214.24 2718.94 2189.68 2728 2166.41 2724.12 2041.02 2724.12 2016.46Z" fill="#DC026B" fill-rule="evenodd"/><path d="M2740.12 2190C2732.3 2171.89 2740.12 2083.95 2740.12 2042.57 2741.42 2016.71 2741.42 2016.71 2741.42 2016.71 2741.42 1997.31 2754.44 1882.21 2787 1846 2787 1846 2787 1846 2787 1846 2751.84 1883.5 2733.6 1996.01 2733.6 2018 2732.3 2042.57 2732.3 2042.57 2732.3 2042.57 2731 2105.94 2732.3 2171.89 2740.12 2190" fill="#FFFFFF" fill-rule="evenodd"/><path d="M2827.35 1874C2832.53 1896.02 2833.82 1921.92 2828.65 1946.52 2826.06 1963.36 2820.88 1981.49 2817 1999.62 2805.35 2039.77 2795 2082.51 2800.18 2112.3 2806.65 2151.15 2807.94 2170.57 2795 2190 2795 2190 2795 2190 2795 2190 2807.94 2169.28 2810.53 2151.15 2804.06 2112.3 2800.18 2082.51 2810.53 2041.07 2820.88 2000.92 2826.06 1982.79 2829.94 1964.66 2833.82 1947.82 2839 1921.92 2832.53 1896.02 2827.35 1874Z" fill="#FFFFFF" fill-rule="evenodd"/><path d="M2821.82 1853C2830.84 1876.3 2825.68 1919.01 2820.53 1947.49 2817.95 1964.31 2812.79 1982.43 2807.63 2000.55 2797.32 2041.97 2787 2083.39 2792.16 2114.46 2792.16 2122.22 2792.16 2122.22 2792.16 2122.22 2798.61 2157.17 2805.05 2176.58 2792.16 2196 2792.16 2196 2792.16 2196 2792.16 2196 2807.63 2174 2807.63 2155.88 2802.47 2119.63 2801.18 2113.16 2801.18 2113.16 2801.18 2113.16 2796.03 2083.39 2806.34 2043.27 2816.66 2003.14 2821.82 1985.02 2826.97 1966.9 2829.55 1948.78 2836 1919.01 2832.13 1878.89 2821.82 1853Z" fill="#DC026B" fill-rule="evenodd"/><path d="M2720 1837C2714.71 1842.17 2708.1 1840.88 2702.81 1847.33 2698.84 1853.79 2700.16 1860.25 2700.16 1868 2696.19 1861.54 2679 1852.5 2686.94 1842.17 2689.58 1838.29 2694.87 1840.88 2700.16 1838.29" fill="#B00014" fill-rule="evenodd"/><path d="M2717 1938.19C2719.53 1951.09 2730.93 1952.38 2733.47 1936.9 2736 1924 2736 1933.03 2733.47 1966.57 2723.33 2013 2723.33 2013 2723.33 2013" fill="#B00014" fill-rule="evenodd"/><path d="M2696 1841C2697.31 1841 2697.31 1841 2697.31 1841 2701.25 1837.25 2706.5 1834.75 2728.81 1834.75 2745.88 1834.75 2751.12 1837.25 2759 1841 2759 1841 2759 1841 2759 1841 2751.12 1837.25 2744.56 1831 2728.81 1831 2713.06 1831 2701.25 1834.75 2696 1841Z" fill="#FFFFFF" fill-rule="evenodd"/><path d="M2650.82 1835.08C2623.63 1832.5 2605.5 1893.2 2615.86 1947.43 2626.22 2002.96 2652.11 2068.82 2645.64 2112.73 2637.87 2156.64 2633.98 2176.01 2653.41 2199.25 2672.83 2222.5 2710.37 2214.75 2719.44 2191.51 2728.5 2166.97 2724.62 2041.71 2724.62 2017.17 2724.62 1993.92 2700.02 1835.08 2650.82 1835.08Z" stroke="#330000" stroke-width="2.86476" stroke-linecap="round" stroke-linejoin="round" stroke-miterlimit="10" fill="none" fill-rule="evenodd"/><path d="M2801.29 1835.08C2827.12 1832.5 2846.5 1893.2 2836.17 1947.43 2825.83 2002.96 2800 2068.82 2806.46 2112.73 2814.21 2156.64 2818.08 2176.01 2798.71 2199.25 2779.33 2222.5 2741.88 2214.75 2732.83 2191.51 2722.5 2166.97 2727.67 2041.71 2727.67 2017.17 2727.67 1993.92 2752.21 1835.08 2801.29 1835.08Z" stroke="#330000" stroke-width="2.86476" stroke-linecap="round" stroke-linejoin="round" stroke-miterlimit="10" fill="none" fill-rule="evenodd"/><path d="M2732.74 2191.66C2722.43 2167.1 2727.59 2041.76 2727.59 2017.21 2727.59 1993.95 2752.08 1835.01 2801.06 1835.01 2803.63 1835.01 2804.92 1835.01 2807.5 1835.01 2790.74 1825.96 2764.97 1819.5 2725.01 1819.5 2676.03 1819.5 2643.81 1829.84 2633.5 1841.47 2633.5 1841.47 2634.79 1840.18 2636.08 1840.18 2639.94 1836.3 2645.1 1833.71 2650.26 1835.01 2660.57 1835.01 2669.59 1841.47 2677.32 1851.81 2679.9 1855.68 2681.19 1858.27 2683.77 1862.14 2709.54 1908.66 2723.72 2000.41 2723.72 2017.21 2723.72 2041.76 2727.59 2167.1 2718.57 2191.66 2713.41 2205.87 2696.66 2214.92 2679.9 2213.62 2695.37 2216.21 2705.68 2217.5 2726.3 2217.5 2745.63 2217.5 2755.94 2216.21 2772.7 2213.62 2755.94 2214.92 2737.9 2205.87 2732.74 2191.66Z" stroke="#330000" stroke-width="2.86476" stroke-linecap="round" stroke-linejoin="round" stroke-miterlimit="10" fill="none" fill-rule="evenodd"/><path d="M2717.5 2200.5C2722.64 2202.5 2720.07 2202.5 2726.5 2202.5 2732.93 2202.5 2730.36 2202.5 2735.5 2200.5" stroke="#330000" stroke-width="2.86476" stroke-linecap="round" stroke-linejoin="round" stroke-miterlimit="10" fill="none" fill-rule="evenodd"/><path d="M2760.5 1842.5C2752.66 1838.3 2742.21 1835.5 2729.15 1835.5 2716.09 1835.5 2701.72 1836.9 2696.5 1842.5" stroke="#330000" stroke-width="2.86476" stroke-linecap="round" stroke-linejoin="round" stroke-miterlimit="10" fill="none" fill-rule="evenodd"/><path d="M2751 1860C2744.33 1872.88 2737.67 1902.52 2735 1927 2735 1907.67 2739 1871.6 2751 1860Z" fill="#FFFFFF" fill-rule="evenodd"/></g></svg>