<svg width="275" height="454" xmlns="http://www.w3.org/2000/svg" xmlns:xlink="http://www.w3.org/1999/xlink" xml:space="preserve" overflow="hidden"><g transform="translate(-1709 -1114)"><path d="M1830.15 1284.19C1838.25 1265.41 1845 1243.73 1845 1216.27 1845 1162.8 1822.05 1118 1792.35 1118 1785.6 1118 1778.85 1120.89 1772.1 1126.67 1737 1154.13 1710 1268.3 1710 1334.77 1710 1408.48 1720.8 1566 1758.6 1566 1797.75 1566 1792.35 1450.39 1792.35 1407.03 1792.35 1357.9 1815.3 1324.66 1830.15 1284.19Z" fill="#D3B2D2" fill-rule="evenodd"/><path d="M1840 1216.68C1840 1183.54 1830.5 1153.29 1815.57 1136 1822.36 1154.73 1825.07 1179.22 1825.07 1205.15 1825.07 1231.08 1816.93 1252.69 1808.79 1272.86 1795.21 1313.2 1772.14 1344.9 1772.14 1395.32 1772.14 1429.9 1781.64 1527.86 1764 1561 1789.79 1540.83 1787.07 1444.31 1787.07 1406.85 1787.07 1357.86 1810.14 1324.73 1823.71 1284.39 1831.86 1265.66 1840 1244.05 1840 1216.68Z" fill="#BF8BB9" fill-rule="evenodd"/><path d="M1778 1536C1788.59 1499.79 1787.26 1436.07 1787.26 1407.1 1787.26 1357.86 1809.76 1324.55 1823 1284 1816.38 1298.48 1791.24 1337.59 1784.62 1365.1 1779.32 1394.07 1780.65 1401.31 1780.65 1434.62 1780.65 1460.69 1785.94 1507.03 1778 1536Z" fill="#A8609B" fill-rule="evenodd"/><path d="M1733.17 1335.05C1733.17 1272.93 1766.87 1154.45 1799.22 1137.11 1803.26 1135.67 1805.96 1132.78 1810 1131.33 1804.61 1128.44 1799.22 1127 1793.83 1127 1787.09 1127 1780.35 1128.44 1773.61 1134.22 1739.91 1160.23 1717 1274.37 1717 1337.94 1717 1408.74 1722.39 1559 1758.78 1559 1764.17 1559 1749.35 1557.56 1752.04 1554.67 1726.43 1522.88 1733.17 1397.18 1733.17 1335.05Z" fill="#EADCEB" fill-rule="evenodd"/><path d="M1794 1127C1787.25 1127 1780.49 1128.45 1773.74 1134.23 1739.96 1160.24 1717 1274.41 1717 1338 1723.75 1278.75 1748.07 1148.68 1794 1127Z" fill="#FFFFFF" fill-rule="evenodd"/><path d="M1861.85 1284.19C1853.75 1265.41 1847 1243.73 1847 1216.27 1847 1162.8 1869.95 1118 1899.65 1118 1906.4 1118 1914.5 1120.89 1919.9 1126.67 1955 1154.13 1982 1268.3 1982 1334.77 1982 1408.48 1971.2 1566 1933.4 1566 1895.6 1566 1899.65 1450.39 1899.65 1407.03 1899.65 1357.9 1876.7 1324.66 1861.85 1284.19Z" fill="#D3B2D2" fill-rule="evenodd"/><path d="M1899.54 1406.63C1899.54 1357.55 1876.5 1324.34 1861.59 1283.92 1853.45 1265.15 1846.68 1243.49 1846.68 1216.06 1846.68 1164.09 1869.72 1120.78 1896.83 1117.89 1896.83 1117.89 1896.83 1117.89 1896.83 1117.89 1881.92 1116.44 1864.3 1115 1845.32 1115 1845.32 1115 1845.32 1115 1845.32 1115 1826.35 1115 1808.73 1116.44 1792.46 1117.89 1822.28 1119.33 1845.32 1162.64 1845.32 1216.06 1845.32 1243.49 1838.55 1265.15 1830.41 1283.92 1815.5 1324.34 1792.46 1357.55 1792.46 1406.63 1792.46 1447.06 1796.53 1555.34 1764 1564 1764 1564 1764 1564 1764 1564 1784.33 1558.23 1814.15 1553.89 1845.32 1553.89 1846.68 1553.89 1846.68 1553.89 1846.68 1553.89 1877.85 1553.89 1907.67 1558.23 1928 1564 1928 1564 1928 1564 1928 1564 1895.47 1555.34 1899.54 1447.06 1899.54 1406.63Z" fill="#A8609B" fill-rule="evenodd"/><path d="M1853 1216.68C1853 1183.54 1861.18 1153.29 1876.18 1136 1869.36 1154.73 1868 1179.22 1868 1205.15 1868 1231.08 1874.82 1252.69 1883 1272.86 1896.64 1313.2 1921.18 1344.9 1921.18 1395.32 1921.18 1429.9 1910.27 1527.86 1928 1561 1902.09 1540.83 1906.18 1444.31 1906.18 1406.85 1906.18 1357.86 1881.64 1324.73 1868 1284.39 1859.82 1265.66 1853 1244.05 1853 1216.68Z" fill="#EADCEB" fill-rule="evenodd"/><path d="M1868.09 1284C1860.18 1265.32 1853.59 1243.77 1853.59 1216.47 1853.59 1183.42 1861.5 1153.24 1876 1136 1864.14 1153.24 1847 1225.09 1868.09 1284Z" fill="#FFFFFF" fill-rule="evenodd"/><path d="M1959.65 1335.05C1959.65 1272.93 1925.59 1154.45 1892.9 1137.11 1888.81 1135.67 1886.09 1132.78 1882 1131.33 1887.45 1128.44 1892.9 1127 1898.35 1127 1905.16 1127 1911.97 1128.44 1918.78 1134.22 1952.84 1160.23 1976 1274.37 1976 1337.94 1976 1408.74 1970.55 1559 1933.77 1559 1929.68 1559 1943.3 1557.56 1940.58 1554.67 1966.46 1522.88 1959.65 1397.18 1959.65 1335.05Z" fill="#BF8BB9" fill-rule="evenodd"/><path d="M1898 1127C1904.84 1127 1911.68 1128.45 1918.53 1134.23 1952.74 1160.24 1976 1274.41 1976 1338 1969.16 1278.75 1945.89 1148.68 1898 1127Z" fill="#A8609B" fill-rule="evenodd"/><path d="M1899.9 1406.65C1899.9 1357.57 1876.79 1324.37 1861.85 1283.95 1853.69 1265.19 1846.9 1243.53 1846.9 1216.1 1846.9 1213.22 1846.9 1210.33 1846.9 1206 1845.54 1207.44 1845.54 1207.44 1845.54 1207.44 1845.54 1210.33 1845.54 1213.22 1845.54 1216.1 1845.54 1243.53 1838.74 1265.19 1830.59 1283.95 1815.64 1324.37 1792.54 1357.57 1792.54 1406.65 1792.54 1447.07 1796.62 1555.34 1764 1564 1764 1564 1764 1564 1764 1564 1770.8 1562.56 1777.59 1559.67 1787.1 1558.23 1792.54 1555.34 1797.97 1551.01 1804.77 1548.12 1821.08 1539.46 1863.21 1540.9 1875.44 1539.46 1863.21 1536.57 1850.97 1535.13 1827.87 1536.57 1804.77 1538.02 1800.69 1539.46 1803.41 1519.25 1806.13 1499.04 1811.56 1486.05 1811.56 1438.41 1812.92 1389.33 1814.28 1366.23 1822.44 1344.58 1830.59 1321.48 1837.38 1304.16 1848.26 1304.16 1860.49 1304.16 1868.64 1317.15 1879.51 1348.91 1890.38 1380.67 1891.74 1393.66 1890.38 1426.86 1889.03 1458.62 1890.38 1539.46 1923 1561.11 1895.82 1540.9 1899.9 1445.63 1899.9 1406.65Z" fill="#974E89" fill-rule="evenodd"/><path d="M1846.68 1228C1846.68 1223.68 1846.68 1219.35 1846.68 1215.03 1846.68 1181.88 1856.14 1151.62 1871 1134.32 1866.95 1132.88 1862.89 1132.88 1860.19 1132.88 1852.08 1131.44 1845.32 1130 1837.22 1131.44 1833.16 1131.44 1826.41 1132.88 1821 1132.88 1821 1134.32 1822.35 1135.76 1822.35 1135.76 1823.7 1135.76 1823.7 1135.76 1823.7 1135.76 1826.41 1138.65 1829.11 1142.97 1830.46 1148.74 1839.92 1166.03 1845.32 1190.53 1845.32 1216.47 1845.32 1217.91 1845.32 1219.35 1845.32 1220.79 1845.32 1223.68 1845.32 1226.56 1846.68 1228Z" fill="#974E89" fill-rule="evenodd"/><path d="M1870 1307.23C1870 1305.79 1870 1305.79 1870 1305.79 1867.29 1298.55 1864.58 1291.32 1861.88 1284.09 1853.75 1265.29 1846.98 1243.59 1846.98 1216.11 1846.98 1197.3 1849.69 1178.5 1855.11 1164.04 1846.98 1165.48 1845.63 1165.48 1841.57 1155.36 1837.51 1148.13 1832.09 1140.89 1823.97 1138 1837.51 1155.36 1845.63 1184.29 1845.63 1216.11 1845.63 1243.59 1838.86 1265.29 1830.74 1284.09 1815.85 1324.59 1792.83 1357.86 1792.83 1407.04 1792.83 1437.41 1795.54 1506.84 1782 1543 1798.25 1519.86 1795.54 1493.82 1798.25 1470.68 1799.6 1454.77 1802.31 1420.05 1802.31 1404.14 1803.66 1381 1806.37 1370.88 1813.14 1347.73 1817.2 1333.27 1826.68 1311.57 1834.8 1300 1842.92 1289.88 1857.82 1279.75 1870 1307.23Z" fill="#7A3D6F" fill-rule="evenodd"/><path d="M1817 1121C1833.09 1118 1862.59 1118 1876 1121" fill="#FFFFFF" fill-rule="evenodd"/><path d="M1887.82 1375C1892.91 1393.86 1891.64 1399.67 1890.36 1427.24 1889.09 1453.35 1890.36 1498.33 1898 1523 1887.82 1501.24 1884 1459.16 1885.27 1427.24 1887.82 1395.31 1887.82 1375 1887.82 1375Z" fill="#FFFFFF" fill-rule="evenodd"/><path d="M1830.65 1284.69C1838.75 1265.91 1845.5 1244.23 1845.5 1216.77 1845.5 1163.3 1822.55 1118.5 1792.85 1118.5 1786.1 1118.5 1779.35 1121.39 1772.6 1127.17 1737.5 1154.63 1710.5 1268.8 1710.5 1335.27 1710.5 1408.98 1721.3 1566.5 1759.1 1566.5 1798.25 1566.5 1792.85 1450.89 1792.85 1407.53 1792.85 1358.4 1815.8 1325.16 1830.65 1284.69Z" stroke="#000000" stroke-width="3.4375" stroke-linecap="round" stroke-linejoin="round" stroke-miterlimit="10" fill="none" fill-rule="evenodd"/><path d="M1862.35 1284.69C1854.25 1265.91 1847.5 1244.23 1847.5 1216.77 1847.5 1163.3 1870.45 1118.5 1900.15 1118.5 1906.9 1118.5 1915 1121.39 1920.4 1127.17 1955.5 1154.63 1982.5 1268.8 1982.5 1335.27 1982.5 1408.98 1971.7 1566.5 1933.9 1566.5 1896.1 1566.5 1900.15 1450.89 1900.15 1407.53 1900.15 1358.4 1877.2 1325.16 1862.35 1284.69Z" stroke="#000000" stroke-width="3.4375" stroke-linecap="round" stroke-linejoin="round" stroke-miterlimit="10" fill="none" fill-rule="evenodd"/><path d="M1900.04 1407.13C1900.04 1358.05 1877 1324.84 1862.09 1284.42 1853.95 1265.65 1847.18 1243.99 1847.18 1216.56 1847.18 1164.59 1870.22 1121.27 1897.33 1118.39 1897.33 1118.39 1897.33 1118.39 1897.33 1118.39 1882.42 1116.94 1864.8 1115.5 1845.82 1115.5 1845.82 1115.5 1845.82 1115.5 1845.82 1115.5 1826.85 1115.5 1809.23 1116.94 1792.96 1118.39 1822.78 1119.83 1845.82 1163.14 1845.82 1216.56 1845.82 1243.99 1839.05 1265.65 1830.91 1284.42 1816 1324.84 1792.96 1358.05 1792.96 1407.13 1792.96 1447.56 1797.03 1555.84 1764.5 1564.5 1764.5 1564.5 1764.5 1564.5 1764.5 1564.5 1784.83 1558.73 1814.65 1554.39 1845.82 1554.39 1847.18 1554.39 1847.18 1554.39 1847.18 1554.39 1878.35 1554.39 1908.17 1558.73 1928.5 1564.5 1928.5 1564.5 1928.5 1564.5 1928.5 1564.5 1895.97 1555.84 1900.04 1447.56 1900.04 1407.13Z" stroke="#000000" stroke-width="3.4375" stroke-linecap="round" stroke-linejoin="round" stroke-miterlimit="10" fill="none" fill-rule="evenodd"/></g></svg>