<svg width="302" height="454" xmlns="http://www.w3.org/2000/svg" xmlns:xlink="http://www.w3.org/1999/xlink" xml:space="preserve" overflow="hidden"><g transform="translate(-2049 -1760)"><path d="M2185.8 1868.36C2193.99 1853.91 2199.45 1835.13 2199.45 1810.57 2199.45 1774.45 2174.89 1767.22 2158.52 1764.33 2113.49 1760 2054.82 1836.57 2050.73 1953.6 2048 2069.19 2091.66 2205 2153.06 2210.78 2209 2218 2207.64 2111.08 2188.53 2044.62 2183.08 2027.29 2169.43 2008.5 2163.97 1999.84 2154.42 1988.28 2147.6 1969.5 2147.6 1947.82 2147.6 1923.26 2155.79 1901.59 2168.07 1891.48 2172.16 1887.14 2181.71 1877.03 2185.8 1868.36Z" fill="#D7E4F3" fill-rule="evenodd"/><path d="M2213.69 1868.36C2206.92 1853.91 2201.49 1835.13 2201.49 1810.57 2201.49 1774.45 2224.54 1767.22 2240.81 1764.33 2285.56 1760 2345.22 1836.57 2347.93 1953.6 2352 2069.19 2308.61 2205 2246.24 2210.78 2192 2218 2192 2111.08 2210.98 2044.62 2216.41 2027.29 2229.97 2008.5 2236.75 1999.84 2244.88 1988.28 2251.66 1969.5 2251.66 1947.82 2251.66 1923.26 2243.53 1901.59 2232.68 1891.48 2228.61 1887.14 2217.76 1877.03 2213.69 1868.36Z" fill="#D7E4F3" fill-rule="evenodd"/><path d="M2205.17 1810.45C2205.17 1835.02 2214.71 1853.82 2221.52 1868.27 2225.6 1876.95 2236.5 1887.07 2240.59 1891.4 2251.48 1901.52 2259.66 1923.21 2259.66 1947.78 2259.66 1969.47 2252.84 1988.26 2244.67 1999.83 2237.86 2008.5 2224.24 2027.29 2218.79 2044.64 2197 2116.92 2199.72 2208 2247.4 2203.66 2248.76 2203.66 2247.4 2203.66 2248.76 2203.66 2197 2199.33 2214.71 2102.47 2231.05 2044.64 2236.5 2028.74 2255.57 2007.05 2261.02 1999.83 2270.55 1986.82 2276 1968.02 2276 1947.78 2276 1923.21 2266.47 1898.63 2255.57 1888.51 2232.41 1868.27 2205.17 1849.48 2205.17 1809" fill="#EDF3F9" fill-rule="evenodd"/><path d="M2240.94 1891C2251.91 1901.1 2260.14 1922.75 2260.14 1947.29 2260.14 1968.94 2253.29 1987.71 2245.06 1999.25 2238.2 2007.92 2224.49 2026.68 2219 2044 2225.86 2028.12 2239.57 2018.02 2250.54 1999.25 2261.51 1981.93 2267 1963.17 2265.63 1944.41 2262.89 1924.2 2254.66 1896.77 2240.94 1891Z" fill="#FFFFFF" fill-rule="evenodd"/><path d="M2194.83 1810.45C2194.83 1835.02 2186.66 1853.82 2178.48 1868.27 2174.4 1876.95 2163.5 1887.07 2159.41 1891.4 2148.52 1901.52 2140.34 1923.21 2140.34 1947.78 2140.34 1969.47 2147.16 1988.26 2155.33 1999.83 2162.14 2008.5 2175.76 2027.29 2181.21 2044.64 2203 2116.92 2200.28 2208 2152.6 2203.66 2151.24 2203.66 2152.6 2203.66 2151.24 2203.66 2203 2199.33 2185.29 2102.47 2168.95 2044.64 2163.5 2028.74 2144.43 2007.05 2138.98 1999.83 2129.45 1986.82 2124 1968.02 2124 1947.78 2124 1923.21 2133.53 1898.63 2144.43 1888.51 2167.59 1868.27 2194.83 1849.48 2194.83 1809" fill="#A9C7E6" fill-rule="evenodd"/><path d="M2159.51 1891C2148.77 1901.1 2140.71 1922.75 2140.71 1947.29 2140.71 1968.94 2147.43 1987.71 2155.49 1999.25 2162.2 2007.92 2175.63 2026.68 2181 2044 2174.29 2028.12 2160.86 2018.02 2150.11 1999.25 2139.37 1981.93 2134 1963.17 2135.34 1944.41 2138.03 1924.2 2146.09 1896.77 2159.51 1891Z" fill="#86B0D5" fill-rule="evenodd"/><path d="M2157.91 1763.89C2174.27 1766.79 2198.82 1774.02 2198.82 1810.17 2198.82 1834.76 2193.36 1853.56 2185.18 1868.02 2181.09 1876.7 2171.55 1886.82 2167.45 1891.16 2155.18 1901.29 2147 1922.98 2147 1947.57 2147 1969.26 2153.82 1988.06 2163.36 1999.63 2168.82 2008.31 2182.45 2027.11 2187.91 2044.47 2202.91 2097.98 2207 2180.41 2177 2205 2182.45 2202.11 2189.27 2197.77 2200.18 2197.77 2209.73 2197.77 2216.55 2202.11 2222 2205 2192 2180.41 2196.09 2097.98 2211.09 2044.47 2216.55 2027.11 2230.18 2008.31 2237 1999.63 2245.18 1988.06 2252 1969.26 2252 1947.57 2252 1922.98 2243.82 1901.29 2232.91 1891.16 2228.82 1886.82 2217.91 1876.7 2213.82 1868.02 2207 1853.56 2201.55 1834.76 2201.55 1810.17 2201.55 1774.02 2224.73 1766.79 2241.09 1763.89 2243.82 1763.89 2246.55 1763.89 2249.27 1763.89 2234.27 1762.45 2217.91 1761 2200.18 1761 2200.18 1761 2200.18 1761 2200.18 1761 2182.45 1761 2166.09 1762.45 2151.09 1763.89 2152.45 1763.89 2155.18 1763.89 2157.91 1763.89Z" fill="#86B0D5" fill-rule="evenodd"/><path d="M2325.06 1970.92C2326.41 1867.24 2280.41 1765 2234.41 1776.52 2231.71 1776.52 2229 1776.52 2231.71 1776.52 2237.12 1773.64 2243.88 1772.2 2247.94 1772.2 2285.82 1773.64 2344 1851.4 2342.65 1960.84 2341.29 2053 2314.24 2163.88 2268.24 2197 2308.82 2153.8 2323.71 2065.96 2325.06 1970.92Z" fill="#A9C7E6" fill-rule="evenodd"/><path d="M2325 1861C2338.5 1900.04 2352 1972.35 2331.75 2062 2335.8 2020.06 2342.55 1924.63 2325 1861Z" fill="#86B0D5" fill-rule="evenodd"/><path d="M2070.67 1972.83C2070.67 1862.96 2136.27 1777.67 2178.63 1780.56 2180 1780.56 2180 1780.56 2180 1780.56 2171.8 1774.78 2162.23 1771.89 2155.4 1771.89 2111.67 1769 2057 1852.84 2057 1964.15 2057 2056.67 2085.7 2160.75 2132.17 2194 2091.17 2150.63 2070.67 2068.23 2070.67 1972.83Z" fill="#EDF3F9" fill-rule="evenodd"/><path d="M2057 1964C2057 1852.84 2108.77 1772 2151 1774.89 2127.84 1782.11 2071.99 1826.86 2057 1964Z" fill="#FFFFFF" fill-rule="evenodd"/><path d="M2207 2060.37C2208.36 2058.93 2208.36 2057.48 2208.36 2056.04 2209.73 2051.7 2211.09 2047.36 2211.09 2044.47 2216.55 2027.11 2230.18 2008.31 2237 1999.63 2245.18 1988.06 2252 1969.26 2252 1947.57 2252 1922.98 2243.82 1901.29 2232.91 1891.16 2228.82 1886.82 2217.91 1876.7 2213.82 1868.02 2209.73 1859.35 2207 1850.67 2204.27 1840.54 2204.27 1839.1 2204.27 1839.1 2204.27 1837.65 2202.91 1836.21 2202.91 1833.31 2202.91 1830.42 2201.55 1823.19 2201.55 1817.4 2201.55 1810.17 2201.55 1774.02 2224.73 1766.79 2241.09 1763.89 2242.45 1763.89 2243.82 1763.89 2245.18 1763.89 2246.55 1763.89 2246.55 1763.89 2246.55 1763.89 2231.55 1762.45 2216.55 1761 2200.18 1761 2200.18 1761 2200.18 1761 2200.18 1761 2182.45 1761 2166.09 1762.45 2151.09 1763.89 2152.45 1763.89 2155.18 1763.89 2157.91 1763.89 2174.27 1766.79 2198.82 1774.02 2198.82 1810.17 2198.82 1834.76 2193.36 1853.56 2185.18 1868.02 2181.09 1876.7 2171.55 1886.82 2167.45 1891.16 2155.18 1901.29 2147 1922.98 2147 1947.57 2147 1969.26 2153.82 1988.06 2163.36 1999.63 2168.82 2008.31 2182.45 2027.11 2187.91 2044.47 2202.91 2097.98 2207 2180.41 2177 2205 2182.45 2202.11 2189.27 2197.77 2200.18 2197.77 2209.73 2197.77 2216.55 2202.11 2222 2205 2197.45 2184.75 2196.09 2121.12 2205.64 2069.05 2205.64 2066.16 2207 2063.27 2207 2060.37ZM2186.55 1904.18C2187.91 1898.39 2190.64 1892.61 2193.36 1886.82 2202.91 1872.36 2230.18 1895.5 2238.36 1924.43 2246.55 1953.35 2241.09 1979.38 2223.36 2001.08 2207 2021.33 2201.55 2030 2192 2021.33 2186.55 2009.76 2179.73 1993.85 2177 1975.05 2171.55 1944.67 2175.64 1928.77 2186.55 1904.18Z" fill="#2C8BC1" fill-rule="evenodd"/><path d="M2187.91 2044.58C2202.91 2098.05 2207 2180.43 2177 2205 2182.45 2202.11 2189.27 2197.77 2200.18 2197.77 2209.73 2197.77 2216.55 2202.11 2222 2205 2192 2180.43 2196.09 2098.05 2211.09 2044.58 2211.09 2043.13 2212.45 2043.13 2212.45 2041.69 2209.73 2043.13 2207 2050.36 2201.55 2050.36 2190.64 2050.36 2193.36 2024.34 2177 2005.55 2147 1972.31 2159.27 1920.28 2170.18 1907.28 2182.45 1891.38 2183.82 1892.82 2189.27 1882.71 2197.45 1868.26 2204.27 1865.37 2216.55 1874.04 2216.55 1872.59 2216.55 1872.59 2216.55 1872.59 2215.18 1871.15 2213.82 1869.7 2213.82 1868.26 2207 1853.8 2201.55 1835.01 2201.55 1810.45 2201.55 1810.45 2201.55 1810.45 2201.55 1809 2200.18 1810.45 2198.82 1810.45 2198.82 1810.45 2198.82 1835.01 2193.36 1853.8 2185.18 1868.26 2181.09 1876.93 2171.55 1887.04 2167.45 1891.38 2155.18 1901.5 2147 1923.18 2147 1947.74 2147 1969.42 2153.82 1988.21 2163.36 1999.77 2168.82 2008.45 2182.45 2027.23 2187.91 2044.58Z" fill="#006DAF" fill-rule="evenodd"/><path d="M2185 1773.25C2190.4 1769 2206.6 1770.42 2212 1774.67 2207.95 1776.08 2205.25 1780.33 2203.9 1784.58 2199.85 1790.25 2199.85 1795.92 2198.5 1803 2199.85 1790.25 2193.1 1783.17 2186.35 1774.67" fill="#006DAF" fill-rule="evenodd"/><path d="M2181 1766C2185.03 1765 2211.93 1765 2220 1766" fill="#FFFFFF" fill-rule="evenodd"/><path d="M2236.5 1919C2241.9 1932.02 2250 1968.18 2223 2000 2232.45 1984.09 2241.9 1953.71 2236.5 1919Z" fill="#FFFFFF" fill-rule="evenodd"/><path d="M2186.31 1868.86C2194.49 1854.41 2199.95 1835.63 2199.95 1811.07 2199.95 1774.95 2175.39 1767.72 2159.02 1764.83 2113.99 1760.5 2055.32 1837.07 2051.23 1954.1 2048.5 2069.69 2092.16 2205.5 2153.56 2211.28 2209.5 2218.5 2208.14 2111.59 2189.03 2045.12 2183.58 2027.79 2169.93 2009 2164.47 2000.34 2154.92 1988.78 2148.1 1970 2148.1 1948.32 2148.1 1923.76 2156.29 1902.09 2168.57 1891.98 2172.66 1887.64 2182.21 1877.53 2186.31 1868.86Z" stroke="#000000" stroke-width="3.4375" stroke-linecap="round" stroke-linejoin="round" stroke-miterlimit="10" fill="none" fill-rule="evenodd"/><path d="M2214.19 1868.86C2207.42 1854.41 2201.99 1835.63 2201.99 1811.07 2201.99 1774.95 2225.04 1767.72 2241.31 1764.83 2286.06 1760.5 2345.72 1837.07 2348.43 1954.1 2352.5 2069.69 2309.11 2205.5 2246.74 2211.28 2192.5 2218.5 2192.5 2111.59 2211.48 2045.12 2216.91 2027.79 2230.47 2009 2237.25 2000.34 2245.38 1988.78 2252.16 1970 2252.16 1948.32 2252.16 1923.76 2244.03 1902.09 2233.18 1891.98 2229.11 1887.64 2218.26 1877.53 2214.19 1868.86Z" stroke="#000000" stroke-width="3.4375" stroke-linecap="round" stroke-linejoin="round" stroke-miterlimit="10" fill="none" fill-rule="evenodd"/><path d="M2158.41 1764.39C2174.77 1767.28 2199.32 1774.52 2199.32 1810.67 2199.32 1835.26 2193.86 1854.06 2185.68 1868.52 2181.59 1877.2 2172.05 1887.32 2167.95 1891.66 2155.68 1901.79 2147.5 1923.48 2147.5 1948.07 2147.5 1969.76 2154.32 1988.56 2163.86 2000.13 2169.32 2008.81 2182.95 2027.61 2188.41 2044.97 2203.41 2098.48 2207.5 2180.91 2177.5 2205.5 2182.95 2202.61 2189.77 2198.27 2200.68 2198.27 2210.23 2198.27 2217.05 2202.61 2222.5 2205.5 2192.5 2180.91 2196.59 2098.48 2211.59 2044.97 2217.05 2027.61 2230.68 2008.81 2237.5 2000.13 2245.68 1988.56 2252.5 1969.76 2252.5 1948.07 2252.5 1923.48 2244.32 1901.79 2233.41 1891.66 2229.32 1887.32 2218.41 1877.2 2214.32 1868.52 2207.5 1854.06 2202.05 1835.26 2202.05 1810.67 2202.05 1774.52 2225.23 1767.28 2241.59 1764.39 2244.32 1764.39 2247.05 1764.39 2249.77 1764.39 2234.77 1762.95 2218.41 1761.5 2200.68 1761.5 2200.68 1761.5 2200.68 1761.5 2200.68 1761.5 2182.95 1761.5 2166.59 1762.95 2151.59 1764.39 2152.95 1764.39 2155.68 1764.39 2158.41 1764.39Z" stroke="#000000" stroke-width="3.4375" stroke-linecap="round" stroke-linejoin="round" stroke-miterlimit="10" fill="none" fill-rule="evenodd"/></g></svg>