<svg width="230" height="401" xmlns="http://www.w3.org/2000/svg" xmlns:xlink="http://www.w3.org/1999/xlink" xml:space="preserve" overflow="hidden"><g transform="translate(-1779 -578)"><path d="M1818.32 593.589C1791.13 591 1773 651.851 1783.36 706.228 1793.72 761.901 1819.61 827.93 1813.14 871.95 1805.37 915.97 1801.48 935.391 1820.91 958.695 1840.33 982 1877.87 974.232 1886.94 950.927 1896 926.328 1892.12 800.742 1892.12 776.142 1892.12 752.838 1867.52 593.589 1818.32 593.589Z" fill="#FF7277" fill-rule="evenodd"/><path d="M1968.79 593.589C1994.62 591 2014 651.851 2003.67 706.228 1993.33 761.901 1967.5 827.93 1973.96 871.95 1981.71 915.97 1985.58 935.391 1966.21 958.695 1946.83 982 1909.37 974.232 1900.33 950.927 1890 926.328 1895.17 800.742 1895.17 776.142 1895.17 752.838 1919.71 593.589 1968.79 593.589Z" fill="#FF7277" fill-rule="evenodd"/><path d="M1900.81 951.156C1890.44 926.604 1895.63 801.26 1895.63 776.708 1895.63 753.448 1920.26 594.506 1969.52 594.506 1972.11 594.506 1973.41 594.506 1976 594.506 1959.15 585.461 1933.22 579 1893.04 579 1843.78 579 1811.37 589.338 1801 600.967 1801 600.967 1802.3 599.675 1803.59 599.675 1807.48 595.799 1812.67 593.214 1817.85 594.506 1828.22 594.506 1837.3 600.967 1845.07 611.305 1847.67 615.182 1848.96 617.766 1851.56 621.643 1877.48 668.162 1891.74 759.909 1891.74 776.708 1891.74 801.26 1895.63 926.604 1886.56 951.156 1881.37 965.37 1864.52 974.416 1847.67 973.123 1863.22 975.708 1873.59 977 1894.33 977 1913.78 977 1924.15 975.708 1941 973.123 1924.15 974.416 1906 965.37 1900.81 951.156Z" fill="#FF0D28" fill-rule="evenodd"/><path d="M1976 594.506C1959.15 585.461 1933.22 579 1893.04 579 1843.78 579 1811.37 589.338 1801 600.967 1801 600.967 1802.3 599.675 1803.59 599.675 1807.48 595.799 1812.67 593.214 1817.85 594.506 1828.22 594.506 1837.3 600.967 1845.07 611.305 1847.67 615.182 1848.96 617.766 1851.56 621.643 1877.48 668.162 1891.74 759.909 1891.74 776.708 1891.74 801.26 1895.63 926.604 1886.56 951.156 1881.37 965.37 1864.52 974.416 1847.67 973.123 1863.22 975.708 1873.59 977 1894.33 977 1913.78 977 1924.15 975.708 1941 973.123 1924.15 974.416 1906 965.37 1900.81 951.156 1890.44 926.604 1895.63 801.26 1895.63 776.708 1895.63 753.448 1920.26 594.506 1969.52 594.506 1972.11 594.506 1973.41 594.506 1976 594.506ZM1894.33 962.786C1891.74 962.786 1889.15 962.786 1886.56 962.786 1889.15 960.201 1890.44 957.617 1890.44 955.032 1891.74 952.448 1893.04 949.864 1893.04 945.987 1894.33 949.864 1895.63 952.448 1895.63 955.032 1896.93 957.617 1898.22 960.201 1899.52 962.786 1898.22 962.786 1895.63 962.786 1894.33 962.786ZM1925.44 602.26C1928.04 603.552 1926.74 608.721 1925.44 611.305 1906 642.318 1903.41 692.714 1898.22 728.896 1895.63 740.526 1894.33 749.571 1894.33 757.325 1893.04 749.571 1891.74 740.526 1889.15 730.188 1883.96 692.714 1881.37 646.195 1863.22 615.182 1863.22 613.889 1861.93 612.597 1860.63 611.305 1859.33 608.721 1859.33 603.552 1863.22 602.26 1871 599.675 1878.78 594.506 1893.04 594.506 1907.3 594.506 1916.37 599.675 1925.44 602.26Z" fill="#F2000A" fill-rule="evenodd"/><path d="M1788.67 707.652C1791.22 724.448 1796.33 742.536 1801.44 760.624 1811.67 800.676 1821.89 842.02 1816.78 871.736 1815.5 878.196 1815.5 878.196 1815.5 878.196 1812.94 898.868 1812.94 913.08 1814.22 926 1814.22 926 1814.22 926 1814.22 926 1812.94 914.372 1816.78 898.868 1820.61 879.488 1821.89 871.736 1821.89 871.736 1821.89 871.736 1827 842.02 1819.33 799.384 1809.11 759.332 1804 741.244 1800.17 723.156 1796.33 706.36 1788.67 667.6 1791.22 621.088 1806.56 603 1806.56 603 1806.56 603 1806.56 603 1789.94 622.38 1781 667.6 1788.67 707.652Z" fill="#FFFFFF" fill-rule="evenodd"/><path d="M1892.12 776.463C1892.12 758.366 1875.29 652.366 1845.53 611 1864.94 660.122 1875.29 733.805 1875.29 749.317 1875.29 772.585 1881.76 897.976 1871.41 922.537 1862.35 945.805 1828.71 953.561 1808 932.878 1809.29 941.927 1813.18 949.683 1820.94 958.732 1840.35 982 1877.88 974.244 1886.94 949.683 1896 926.415 1892.12 801.024 1892.12 776.463Z" fill="#FF5961" fill-rule="evenodd"/><path d="M1908.95 950C1901.28 931.842 1908.95 843.647 1908.95 802.143 1910.23 776.203 1910.23 776.203 1910.23 776.203 1910.23 756.748 1923.02 641.316 1955 605 1955 605 1955 605 1955 605 1920.46 642.613 1902.56 755.451 1902.56 777.5 1901.28 802.143 1901.28 802.143 1901.28 802.143 1900 865.696 1901.28 931.842 1908.95 950" fill="#FFFFFF" fill-rule="evenodd"/><path d="M1995.35 634C2000.53 656.016 2001.82 681.918 1996.65 706.525 1994.06 723.361 1988.88 741.492 1985 759.623 1973.35 799.771 1963 842.508 1968.18 872.295 1974.65 911.148 1975.94 930.574 1963 950 1963 950 1963 950 1963 950 1975.94 929.279 1978.53 911.148 1972.06 872.295 1968.18 842.508 1978.53 801.066 1988.88 760.918 1994.06 742.787 1997.94 724.656 2001.82 707.82 2007 681.918 2000.53 656.016 1995.35 634Z" fill="#FFFFFF" fill-rule="evenodd"/><path d="M1989.82 613C1998.84 636.298 1993.68 679.011 1988.53 707.487 1985.95 724.313 1980.79 742.434 1975.63 760.555 1965.32 801.974 1955 843.392 1960.16 874.457 1960.16 882.223 1960.16 882.223 1960.16 882.223 1966.61 917.17 1973.05 936.585 1960.16 956 1960.16 956 1960.16 956 1960.16 956 1975.63 933.996 1975.63 915.875 1970.47 879.634 1969.18 873.162 1969.18 873.162 1969.18 873.162 1964.03 843.392 1974.34 803.268 1984.66 763.143 1989.82 745.023 1994.97 726.902 1997.55 708.781 2004 679.011 2000.13 638.887 1989.82 613Z" fill="#FF5961" fill-rule="evenodd"/><path d="M1888 597C1882.84 602 1876.39 600.75 1871.23 607 1867.35 613.25 1868.65 619.5 1868.65 627 1864.77 620.75 1848 612 1855.74 602 1858.32 598.25 1863.48 600.75 1868.65 598.25" fill="#F2000A" fill-rule="evenodd"/><path d="M1885 697.188C1887.53 710.087 1898.93 711.377 1901.47 695.899 1904 683 1904 692.029 1901.47 725.565 1891.33 772 1891.33 772 1891.33 772" fill="#F2000A" fill-rule="evenodd"/><path d="M1865 601C1866.29 601 1866.29 601 1866.29 601 1870.17 596.875 1875.33 594.125 1897.29 594.125 1914.08 594.125 1919.25 596.875 1927 601 1927 601 1927 601 1927 601 1919.25 596.875 1912.79 590 1897.29 590 1881.79 590 1870.17 594.125 1865 601Z" fill="#FFFFFF" fill-rule="evenodd"/><path d="M1818.82 594.09C1791.63 591.5 1773.5 652.351 1783.86 706.729 1794.22 762.401 1820.11 828.43 1813.64 872.45 1805.87 916.47 1801.98 935.891 1821.41 959.195 1840.83 982.5 1878.37 974.732 1887.44 951.427 1896.5 926.828 1892.62 801.242 1892.62 776.642 1892.62 753.338 1868.02 594.09 1818.82 594.09Z" stroke="#750000" stroke-width="2.86476" stroke-linecap="round" stroke-linejoin="round" stroke-miterlimit="10" fill="none" fill-rule="evenodd"/><path d="M1969.29 594.09C1995.12 591.5 2014.5 652.351 2004.17 706.729 1993.83 762.401 1968 828.43 1974.46 872.45 1982.21 916.47 1986.08 935.891 1966.71 959.195 1947.33 982.5 1909.88 974.732 1900.83 951.427 1890.5 926.828 1895.67 801.242 1895.67 776.642 1895.67 753.338 1920.21 594.09 1969.29 594.09Z" stroke="#750000" stroke-width="2.86476" stroke-linecap="round" stroke-linejoin="round" stroke-miterlimit="10" fill="none" fill-rule="evenodd"/><path d="M1901.31 951.656C1890.94 927.104 1896.13 801.76 1896.13 777.208 1896.13 753.948 1920.76 595.007 1970.02 595.007 1972.61 595.007 1973.91 595.007 1976.5 595.007 1959.65 585.961 1933.72 579.5 1893.54 579.5 1844.28 579.5 1811.87 589.838 1801.5 601.468 1801.5 601.468 1802.8 600.175 1804.09 600.175 1807.98 596.299 1813.17 593.714 1818.35 595.007 1828.72 595.007 1837.8 601.468 1845.57 611.805 1848.17 615.682 1849.46 618.266 1852.06 622.143 1877.98 668.662 1892.24 760.409 1892.24 777.208 1892.24 801.76 1896.13 927.104 1887.06 951.656 1881.87 965.87 1865.02 974.916 1848.17 973.624 1863.72 976.208 1874.09 977.5 1894.83 977.5 1914.28 977.5 1924.65 976.208 1941.5 973.624 1924.65 974.916 1906.5 965.87 1901.31 951.656Z" stroke="#750000" stroke-width="2.86476" stroke-linecap="round" stroke-linejoin="round" stroke-miterlimit="10" fill="none" fill-rule="evenodd"/><path d="M1885.5 960.5C1890.64 961.5 1888.07 961.5 1894.5 961.5 1900.93 961.5 1898.36 961.5 1903.5 960.5" stroke="#750000" stroke-width="2.86476" stroke-linecap="round" stroke-linejoin="round" stroke-miterlimit="10" fill="none" fill-rule="evenodd"/><path d="M1928.5 602.5C1920.79 598.3 1910.5 595.5 1897.64 595.5 1884.79 595.5 1870.64 596.9 1865.5 602.5" stroke="#750000" stroke-width="2.86476" stroke-linecap="round" stroke-linejoin="round" stroke-miterlimit="10" fill="none" fill-rule="evenodd"/><path d="M1919 620C1912.33 632.885 1905.67 662.519 1903 687 1903 667.673 1907 631.596 1919 620Z" fill="#FFFFFF" fill-rule="evenodd"/></g></svg>