<svg width="334" height="446" xmlns="http://www.w3.org/2000/svg" xmlns:xlink="http://www.w3.org/1999/xlink" xml:space="preserve" overflow="hidden"><g transform="translate(-2397 -516)"><path d="M2526.74 570.218C2526.74 539.404 2500.38 531 2483.25 531 2441.08 531 2391 610.837 2398.91 724.29 2406.81 836.342 2468.76 961 2529.38 961 2590 961 2559.69 829.339 2529.38 774.714 2497.75 720.088 2479.3 706.082 2479.3 669.665 2479.3 633.248 2526.74 643.052 2526.74 570.218Z" fill="#D6AC8C" fill-rule="evenodd"/><path d="M2419.4 733.595C2411.49 627.09 2465.52 543.007 2507.68 543.007 2507.68 543.007 2507.68 543.007 2509 543.007 2499.78 537.401 2490.55 536 2483.96 536 2441.8 536 2397 618.682 2404.91 725.187 2411.49 814.875 2452.34 911.571 2498.46 941 2456.29 901.761 2425.99 826.086 2419.4 733.595Z" fill="#EAD4C2" fill-rule="evenodd"/><path d="M2404.91 725C2397 618.6 2441.82 536 2484 536 2461.59 544.4 2411.5 592 2404.91 725Z" fill="#FFFFFF" fill-rule="evenodd"/><path d="M2600.63 570.218C2600.63 539.404 2628.17 531 2643.9 531 2687.17 531 2737 610.837 2729.13 724.29 2721.26 836.342 2659.64 961 2599.32 961 2539 961 2567.85 829.339 2599.32 774.714 2629.48 720.088 2647.83 706.082 2647.83 669.665 2647.83 633.248 2600.63 643.052 2600.63 570.218Z" fill="#D6AC8C" fill-rule="evenodd"/><path d="M2625.69 778.483C2657.08 725.309 2661 701.521 2661 665.139 2661 628.757 2619.15 641.351 2619.15 568.587 2619.15 557.392 2619.15 550.396 2623.08 542 2613.92 547.597 2607.38 554.594 2607.38 569.986 2607.38 642.75 2655.77 625.958 2655.77 669.337 2655.77 705.719 2637.46 719.712 2607.38 774.285 2582.54 817.663 2559 910.017 2581.23 945 2574.69 900.222 2604.77 817.663 2625.69 778.483Z" fill="#EAD4C2" fill-rule="evenodd"/><path d="M2503.1 778.483C2471.62 725.309 2469 701.521 2469 665.139 2469 628.757 2516.22 624.559 2516.22 574.184 2517.53 561.59 2516.22 548.997 2507.04 542 2516.22 547.597 2521.47 554.594 2521.47 569.986 2521.47 642.75 2472.94 625.958 2472.94 669.337 2472.94 705.719 2491.3 719.712 2522.78 774.285 2546.39 817.663 2570 910.017 2549.01 945 2554.26 900.222 2525.4 817.663 2503.1 778.483Z" fill="#C78F66" fill-rule="evenodd"/><path d="M2549.14 945C2570 910.132 2546.54 818.079 2523.07 774.842 2512.64 758.105 2504.82 744.158 2497 733 2515.25 776.237 2568.7 889.21 2549.14 945Z" fill="#BC774B" fill-rule="evenodd"/><path d="M2545 957C2550.29 954.151 2555.57 952.727 2563.5 952.727 2571.43 952.727 2578.04 954.151 2582 957 2570.11 948.455 2564.82 931.364 2563.5 910 2563.5 931.364 2556.89 949.879 2545 957Z" fill="#8E421E" fill-rule="evenodd"/><path d="M2483.81 531.015C2500.87 531.015 2527.11 539.423 2527.11 570.255 2527.11 643.131 2479.87 633.321 2479.87 669.759 2479.87 706.197 2498.24 720.212 2529.73 774.869 2546.79 804.299 2562.53 858.956 2563.84 901 2565.16 858.956 2582.21 804.299 2599.27 774.869 2629.45 720.212 2647.82 706.197 2647.82 669.759 2647.82 633.321 2600.58 643.131 2600.58 570.255 2600.58 539.423 2628.13 531.015 2643.88 531.015 2647.82 531.015 2651.75 531.015 2657 532.416 2657 532.416 2657 532.416 2657 532.416 2637.32 524.007 2601.89 517 2563.84 517 2563.84 517 2563.84 517 2563.84 517 2527.11 517 2491.68 524.007 2472 532.416 2472 532.416 2472 532.416 2472 532.416 2475.94 531.015 2479.87 531.015 2483.81 531.015Z" fill="#BC774B" fill-rule="evenodd"/><path d="M2600.75 569.821C2600.75 565.619 2600.75 562.817 2602.06 560.016 2595.5 557.214 2588.94 555.813 2579.75 557.214 2577.12 557.214 2575.81 558.615 2579.75 560.016 2586.31 562.817 2591.56 568.42 2591.56 581.027 2591.56 602.039 2596.81 632.856 2617.81 649.665 2645.38 673.479 2628.31 688.887 2607.31 726.708 2598.12 743.518 2591.56 764.529 2587.62 781.339 2587.62 781.339 2587.62 781.339 2587.62 782.739 2581.06 800.949 2573.19 820.56 2564 809.354 2560.06 802.35 2556.12 789.743 2554.81 782.739 2554.81 784.14 2554.81 784.14 2554.81 784.14 2553.5 779.938 2552.19 774.335 2549.56 770.132 2532.5 726.708 2510.19 698.693 2512.81 669.276 2516.75 639.86 2541.69 632.856 2545.63 595.035 2549.56 557.214 2549.56 539.004 2598.12 537.603 2577.12 532 2541.69 533.401 2516.75 541.806 2523.31 548.809 2527.25 557.214 2527.25 569.821 2527.25 642.662 2480 632.856 2480 669.276 2480 705.697 2498.38 719.704 2529.88 774.335 2543 798.148 2554.81 834.568 2561.38 869.588 2561.38 873.79 2561.38 873.79 2561.38 873.79 2561.38 875.191 2562.69 876.591 2562.69 879.393 2562.69 883.595 2564 887.798 2564 892 2564 892 2564 892 2564 892 2564 892 2564 889.198 2564 883.595 2569.25 866.786 2570.56 848.576 2575.81 833.167 2577.12 827.564 2578.44 821.961 2581.06 816.358 2581.06 816.358 2581.06 816.358 2581.06 817.759 2586.31 800.949 2592.88 785.541 2599.44 774.335 2629.62 719.704 2648 705.697 2648 669.276 2648 632.856 2600.75 642.662 2600.75 569.821Z" fill="#A85D31" fill-rule="evenodd"/><path d="M2626 744C2619.38 753.8 2614.07 763.6 2607.45 774.8 2592.88 801.4 2578.3 844.8 2573 884" fill="#FFFFFF" fill-rule="evenodd"/><path d="M2617.67 615C2611 605.173 2607 591.135 2607 570.077 2607 554.635 2613.67 547.615 2623 542 2613.67 550.423 2607 585.519 2617.67 615Z" fill="#FFFFFF" fill-rule="evenodd"/><path d="M2709.94 733.901C2716.52 633.15 2677.03 531 2632.27 539.396 2629.63 539.396 2627 539.396 2629.63 539.396 2634.9 536.597 2641.48 536.597 2645.43 536.597 2686.24 536.597 2731 619.157 2724.42 725.505 2717.84 815.061 2677.03 911.614 2630.95 941 2673.08 901.819 2703.35 826.256 2709.94 733.901Z" fill="#C78F66" fill-rule="evenodd"/><path d="M2567 560C2568 560 2568 559 2569 559 2568 559 2567 560 2567 560Z" fill="#A85D31" fill-rule="evenodd"/><path d="M2511 528C2522.92 521.125 2583.86 517 2613 526.625 2605.05 525.25 2526.9 522.5 2511 528Z" fill="#FFFFFF" fill-rule="evenodd"/><path d="M2614.3 619C2618.19 630.234 2623.37 637.255 2633.74 651.298 2642.81 665.341 2642.81 677.979 2636.33 696.234 2631.15 715.894 2613 751 2613 751 2615.59 749.596 2615.59 749.596 2615.59 749.596 2636.33 714.49 2648 699.043 2648 669.553 2648 644.277 2627.26 641.468 2614.3 619Z" fill="#8E421E" fill-rule="evenodd"/><path d="M2564.93 834.688C2557.09 833.285 2553.17 820.664 2547.95 806.641 2533.57 751.949 2500.91 714.086 2498.29 694.453 2494.37 670.613 2499.6 655.188 2512.67 643.969 2525.73 631.348 2530.96 611.715 2532.27 587.875 2533.57 579.461 2533.57 572.449 2532.27 568.242 2533.57 557.024 2530.96 547.207 2544.03 544.402 2538.8 543 2533.57 543 2529.65 544.402 2527.04 544.402 2523.12 547.207 2520.51 545.805 2521.81 548.609 2521.81 548.609 2521.81 548.609 2524.43 548.609 2525.73 551.414 2525.73 554.219 2524.43 552.817 2524.43 551.414 2523.12 548.609 2521.81 550.012 2521.81 550.012 2521.81 550.012 2525.73 554.219 2527.04 561.231 2527.04 569.645 2527.04 642.567 2480 632.75 2480 669.211 2480 705.672 2498.29 719.695 2529.65 774.387 2533.57 781.398 2536.19 788.41 2540.11 798.227 2541.41 802.434 2545.33 815.055 2553.17 836.09 2554.48 837.492 2554.48 838.895 2554.48 840.297 2554.48 840.297 2554.48 840.297 2554.48 840.297 2563.63 865.539 2563.63 902 2564.93 889.379 2564.93 875.355 2578 823.469 2578 823.469 2578 823.469 2571.47 834.688 2564.93 834.688Z" fill="#8E421E" fill-rule="evenodd"/><path d="M2711.95 612C2722.47 651.319 2733 724.34 2708 810 2715.89 769.276 2725.11 675.191 2711.95 612Z" fill="#BC774B" fill-rule="evenodd"/><path d="M2618.67 657C2640 687.949 2601.33 711.864 2596 740 2597.33 718.898 2612 707.644 2618.67 690.763 2622.67 682.322 2624 664.034 2618.67 657" fill="#FFFFFF" fill-rule="evenodd"/><path d="M2526.74 570.218C2526.74 539.404 2500.38 531 2483.25 531 2441.08 531 2391 610.837 2398.91 724.29 2406.81 836.342 2468.76 961 2529.38 961 2590 961 2559.69 829.339 2529.38 774.714 2497.75 720.088 2479.3 706.082 2479.3 669.665 2479.3 633.248 2526.74 643.052 2526.74 570.218Z" stroke="#000000" stroke-width="2.29167" stroke-linecap="round" stroke-linejoin="round" stroke-miterlimit="10" fill="none" fill-rule="evenodd"/><path d="M2600.63 570.218C2600.63 539.404 2628.17 531 2643.9 531 2687.17 531 2737 610.837 2729.13 724.29 2721.26 836.342 2659.64 961 2599.32 961 2539 961 2567.85 829.339 2599.32 774.714 2629.48 720.088 2647.83 706.082 2647.83 669.665 2647.83 633.248 2600.63 643.052 2600.63 570.218Z" stroke="#000000" stroke-width="2.29167" stroke-linecap="round" stroke-linejoin="round" stroke-miterlimit="10" fill="none" fill-rule="evenodd"/><path d="M2483.81 531.015C2500.87 531.015 2527.11 539.423 2527.11 570.255 2527.11 643.131 2479.87 633.321 2479.87 669.759 2479.87 706.197 2498.24 720.212 2529.73 774.869 2546.79 804.299 2562.53 858.956 2563.84 901 2565.16 858.956 2582.21 804.299 2599.27 774.869 2629.45 720.212 2647.82 706.197 2647.82 669.759 2647.82 633.321 2600.58 643.131 2600.58 570.255 2600.58 539.423 2628.13 531.015 2643.88 531.015 2647.82 531.015 2651.75 531.015 2657 532.416 2657 532.416 2657 532.416 2657 532.416 2637.32 524.007 2601.89 517 2563.84 517 2563.84 517 2563.84 517 2563.84 517 2527.11 517 2491.68 524.007 2472 532.416 2472 532.416 2472 532.416 2472 532.416 2475.94 531.015 2479.87 531.015 2483.81 531.015Z" stroke="#000000" stroke-width="2.29167" stroke-linecap="round" stroke-linejoin="round" stroke-miterlimit="10" fill="none" fill-rule="evenodd"/><path d="M2545 957C2550.29 954.151 2555.57 952.727 2563.5 952.727 2571.43 952.727 2578.04 954.151 2582 957 2570.11 948.455 2564.82 931.364 2563.5 910 2563.5 931.364 2556.89 949.879 2545 957Z" stroke="#000000" stroke-width="2.29167" stroke-linecap="round" stroke-linejoin="round" stroke-miterlimit="10" fill="none" fill-rule="evenodd"/></g></svg>