<svg width="231" height="407" xmlns="http://www.w3.org/2000/svg" xmlns:xlink="http://www.w3.org/1999/xlink" xml:space="preserve" overflow="hidden"><g transform="translate(-3100 -1203)"><path d="M3149 1603C3229 1603 3198.03 1437.81 3170.94 1351.34 3150.29 1286.82 3161.9 1221 3121.9 1221 3120.61 1221 3120.61 1221 3120.61 1221 3080.61 1221 3115.45 1284.24 3127.06 1351.34 3145.13 1452.01 3069 1603 3149 1603Z" fill="#71D584" fill-rule="evenodd"/><path d="M3281.86 1603C3202 1603 3234.2 1437.81 3261.25 1351.34 3281.86 1286.82 3268.98 1221 3308.9 1221 3310.19 1221 3310.19 1221 3310.19 1221 3350.12 1221 3315.34 1284.24 3303.75 1351.34 3287.01 1452.01 3363 1603 3283.14 1603L3281.86 1603Z" fill="#71D584" fill-rule="evenodd"/><path d="M3218.29 1204C3170.41 1204 3117.35 1213.04 3107 1224.65 3109.59 1222.07 3114.76 1220.78 3119.94 1220.78 3121.24 1220.78 3121.24 1220.78 3121.24 1220.78 3161.35 1220.78 3149.71 1286.61 3170.41 1351.14 3197.59 1437.62 3228.65 1602.84 3148.41 1602.84 3148.41 1602.84 3148.41 1602.84 3148.41 1602.84 3145.82 1602.84 3143.24 1602.84 3140.65 1601.55 3157.47 1606.71 3180.76 1608 3204.06 1608 3229.94 1608 3273.94 1606.71 3292.06 1601.55 3289.47 1602.84 3285.59 1602.84 3283 1602.84 3281.71 1602.84 3281.71 1602.84 3281.71 1602.84 3201.47 1602.84 3233.82 1437.62 3261 1351.14 3281.71 1286.61 3268.76 1220.78 3308.88 1220.78 3310.18 1220.78 3310.18 1220.78 3310.18 1220.78 3319.24 1220.78 3324.41 1223.36 3327 1228.52 3320.53 1214.33 3270.06 1204 3218.29 1204Z" fill="#6FA44F" fill-rule="evenodd"/><path d="M3218.29 1204C3170.41 1204 3117.35 1213.04 3107 1224.65 3109.59 1222.07 3114.76 1220.78 3119.94 1220.78 3121.24 1220.78 3121.24 1220.78 3121.24 1220.78 3161.35 1220.78 3149.71 1286.61 3170.41 1351.14 3197.59 1437.62 3228.65 1602.84 3148.41 1602.84 3148.41 1602.84 3148.41 1602.84 3148.41 1602.84 3145.82 1602.84 3143.24 1602.84 3140.65 1601.55 3157.47 1606.71 3180.76 1608 3204.06 1608 3229.94 1608 3273.94 1606.71 3292.06 1601.55 3289.47 1602.84 3285.59 1602.84 3283 1602.84 3281.71 1602.84 3281.71 1602.84 3281.71 1602.84 3201.47 1602.84 3233.82 1437.62 3261 1351.14 3281.71 1286.61 3268.76 1220.78 3308.88 1220.78 3310.18 1220.78 3310.18 1220.78 3310.18 1220.78 3319.24 1220.78 3324.41 1223.36 3327 1228.52 3320.53 1214.33 3270.06 1204 3218.29 1204ZM3229.94 1579.6C3232.53 1589.93 3239 1593.8 3240.29 1595.09 3235.12 1595.09 3209.24 1596.38 3204.06 1596.38 3198.88 1596.38 3195 1596.38 3189.82 1596.38 3191.12 1595.09 3196.29 1589.93 3200.18 1579.6 3209.24 1546.04 3219.59 1546.04 3229.94 1579.6ZM3275.24 1231.11C3268.76 1244.01 3266.18 1263.37 3262.29 1284.03 3259.71 1303.39 3257.12 1326.62 3249.35 1348.56 3248.06 1355.02 3240.29 1378.25 3232.53 1410.52 3231.24 1420.84 3200.18 1420.84 3197.59 1410.52 3191.12 1379.54 3183.35 1355.02 3180.76 1348.56 3174.29 1326.62 3170.41 1303.39 3167.82 1284.03 3165.24 1264.66 3162.65 1246.59 3156.18 1232.4 3153.59 1227.23 3182.06 1218.2 3205.35 1218.2 3228.65 1218.2 3277.82 1227.23 3275.24 1231.11Z" fill="#6E732B" fill-rule="evenodd"/><path d="M3117.4 1296.84C3122.6 1313.63 3129.1 1334.3 3131.7 1353.68 3138.2 1393.73 3130.4 1441.53 3123.9 1482.86 3118.7 1516.45 3112.2 1548.75 3116.1 1572 3116.1 1572 3116.1 1572 3116.1 1572 3112.2 1550.04 3125.2 1516.45 3131.7 1482.86 3138.2 1440.23 3146 1392.44 3139.5 1352.39 3135.6 1331.72 3130.4 1312.34 3125.2 1294.26 3118.7 1272.3 3107 1252.92 3107 1240 3107 1240 3107 1240 3107 1240 3107 1254.21 3112.2 1274.88 3117.4 1296.84Z" fill="#FFFFFF" fill-rule="evenodd"/><path d="M3170.7 1351.34C3151.27 1290.69 3160.34 1228.74 3127.95 1221 3153.86 1250.68 3144.8 1299.72 3159.05 1343.6 3187.55 1430.07 3210.86 1584.93 3130.55 1584.93 3129.25 1584.93 3129.25 1584.93 3129.25 1584.93 3124.07 1584.93 3118.89 1584.93 3115 1583.64 3120.18 1595.26 3130.55 1603 3148.68 1603 3148.68 1603 3148.68 1603 3148.68 1603 3229 1603 3197.91 1437.81 3170.7 1351.34Z" fill="#70BC68" fill-rule="evenodd"/><path d="M3313.6 1296.84C3308.4 1313.63 3303.2 1334.3 3299.3 1353.68 3292.8 1393.73 3300.6 1441.53 3307.1 1482.86 3312.3 1516.45 3318.8 1548.75 3316.2 1572 3316.2 1572 3316.2 1572 3316.2 1572 3318.8 1550.04 3305.8 1516.45 3300.6 1482.86 3292.8 1440.23 3285 1392.44 3292.8 1352.39 3295.4 1331.72 3301.9 1312.34 3307.1 1294.26 3312.3 1272.3 3324 1252.92 3324 1240 3324 1240 3324 1240 3324 1240 3324 1254.21 3320.1 1274.88 3313.6 1296.84Z" fill="#70BC68" fill-rule="evenodd"/><path d="M3278.53 1285.42C3275.98 1304.77 3272.16 1327.98 3265.78 1351.19 3242.84 1422.12 3226.27 1522.71 3246.67 1573 3246.67 1573 3246.67 1573 3246.67 1573 3225 1520.13 3251.76 1419.54 3269.61 1362.8 3277.25 1339.59 3281.08 1309.93 3283.63 1289.29 3286.18 1271.24 3286.18 1250.61 3290 1239 3290 1239 3290 1239 3290 1239 3284.9 1251.9 3281.08 1266.08 3278.53 1285.42Z" fill="#FFFFFF" fill-rule="evenodd"/><path d="M3324 1241C3324 1252.63 3318.77 1270.71 3310.92 1296.55 3305.69 1314.63 3300.46 1334.01 3296.54 1354.68 3290 1394.73 3297.85 1442.53 3304.38 1483.86 3307 1494.2 3307 1494.2 3307 1494.2 3310.92 1523.91 3318.77 1552.33 3314.85 1573 3314.85 1573 3314.85 1573 3314.85 1573 3318.77 1551.04 3316.15 1523.91 3310.92 1494.2 3309.62 1483.86 3309.62 1483.86 3309.62 1483.86 3303.08 1441.23 3295.23 1394.73 3301.77 1355.97 3304.38 1335.3 3310.92 1315.93 3316.15 1297.84 3322.69 1272 3324 1253.92 3324 1241Z" fill="#FFFFFF" fill-rule="evenodd"/><path d="M3312.52 1297.84C3307.28 1314.63 3302.03 1335.3 3298.1 1354.68 3291.55 1394.73 3299.41 1441.23 3305.97 1483.86 3311.21 1517.45 3317.76 1549.75 3315.14 1573 3315.14 1573 3315.14 1573 3315.14 1573 3317.76 1549.75 3304.66 1517.45 3299.41 1483.86 3292.86 1441.23 3285 1393.44 3291.55 1353.39 3295.48 1332.72 3300.72 1313.34 3305.97 1295.26 3311.21 1273.3 3323 1253.92 3323 1241 3323 1241 3323 1241 3323 1241 3323 1255.21 3319.07 1275.88 3312.52 1297.84Z" fill="#70BC68" fill-rule="evenodd"/><path d="M3190 1220C3173.34 1225.09 3165.66 1230.18 3161.81 1248 3159.25 1239.09 3149 1227.64 3159.25 1223.82" fill="#6E732B" fill-rule="evenodd"/><path d="M3157 1227.33C3158.29 1228.67 3158.29 1228.67 3158.29 1228.67 3162.15 1223.33 3202.05 1218 3227.8 1218 3254.83 1218 3274.14 1223.33 3276.71 1230 3278 1230 3278 1230 3278 1230 3272.85 1219.33 3239.38 1214 3216.21 1214 3191.76 1214 3163.44 1220.67 3157 1227.33Z" fill="#FFFFFF" fill-rule="evenodd"/><path d="M3149.5 1603.5C3229.5 1603.5 3198.53 1438.31 3171.44 1351.84 3150.79 1287.32 3162.4 1221.5 3122.4 1221.5 3121.11 1221.5 3121.11 1221.5 3121.11 1221.5 3081.11 1221.5 3115.95 1284.74 3127.56 1351.84 3145.63 1452.51 3069.5 1603.5 3149.5 1603.5Z" stroke="#003300" stroke-width="2.86476" stroke-linecap="round" stroke-linejoin="round" stroke-miterlimit="10" fill="none" fill-rule="evenodd"/><path d="M3282.36 1603.5C3202.5 1603.5 3234.7 1438.31 3261.75 1351.84 3282.36 1287.32 3269.48 1221.5 3309.4 1221.5 3310.69 1221.5 3310.69 1221.5 3310.69 1221.5 3350.62 1221.5 3315.84 1284.74 3304.25 1351.84 3287.51 1452.51 3363.5 1603.5 3283.64 1603.5L3282.36 1603.5Z" stroke="#003300" stroke-width="2.86476" stroke-linecap="round" stroke-linejoin="round" stroke-miterlimit="10" fill="none" fill-rule="evenodd"/><path d="M3218.79 1204.5C3170.91 1204.5 3117.85 1213.54 3107.5 1225.15 3110.09 1222.57 3115.26 1221.28 3120.44 1221.28 3121.74 1221.28 3121.74 1221.28 3121.74 1221.28 3161.85 1221.28 3150.21 1287.11 3170.91 1351.64 3198.09 1438.12 3229.15 1603.34 3148.91 1603.34 3148.91 1603.34 3148.91 1603.34 3148.91 1603.34 3146.32 1603.34 3143.74 1603.34 3141.15 1602.05 3157.97 1607.21 3181.26 1608.5 3204.56 1608.5 3230.44 1608.5 3274.44 1607.21 3292.56 1602.05 3289.97 1603.34 3286.09 1603.34 3283.5 1603.34 3282.21 1603.34 3282.21 1603.34 3282.21 1603.34 3201.97 1603.34 3234.32 1438.12 3261.5 1351.64 3282.21 1287.11 3269.26 1221.28 3309.38 1221.28 3310.68 1221.28 3310.68 1221.28 3310.68 1221.28 3319.74 1221.28 3324.91 1223.86 3327.5 1229.02 3321.03 1214.83 3270.56 1204.5 3218.79 1204.5Z" stroke="#003300" stroke-width="2.86476" stroke-linecap="round" stroke-linejoin="round" stroke-miterlimit="10" fill="none" fill-rule="evenodd"/><path d="M3179.5 1593.83C3185.99 1595.17 3195.08 1596.5 3205.46 1596.5 3214.55 1596.5 3245.71 1595.17 3253.5 1592.5" stroke="#003300" stroke-width="2.86476" stroke-linecap="round" stroke-linejoin="round" stroke-miterlimit="10" fill="none" fill-rule="evenodd"/><path d="M3281.5 1232.5C3278.9 1226.14 3246.43 1218.5 3220.45 1218.5 3195.77 1218.5 3162 1223.59 3155.5 1229.95" stroke="#003300" stroke-width="2.86476" stroke-linecap="round" stroke-linejoin="round" stroke-miterlimit="10" fill="none" fill-rule="evenodd"/><path d="M3265 1262C3263.68 1276.23 3261.05 1305.98 3255.79 1324.09 3251.84 1340.9 3243.95 1366.77 3240 1381 3240 1364.18 3250.53 1327.97 3253.16 1318.91 3255.79 1309.86 3259.74 1277.52 3265 1262Z" fill="#FFFFFF" fill-rule="evenodd"/></g></svg>