<svg width="273" height="427" xmlns="http://www.w3.org/2000/svg" xmlns:xlink="http://www.w3.org/1999/xlink" xml:space="preserve" overflow="hidden"><g transform="translate(-744 -550)"><path d="M783.385 595.581C756.154 593 738 654.941 748.374 709.139 758.747 763.337 784.681 830.439 778.198 874.314 770.418 916.898 766.528 936.254 785.978 960.772 805.429 984 836.549 976.258 846.923 951.739 856 928.512 849.516 802.05 849.516 778.822 849.516 755.594 832.659 595.581 783.385 595.581Z" fill="#FF7277" fill-rule="evenodd"/><path d="M753.667 709.558C756.222 727.63 761.333 745.701 766.444 763.773 776.667 803.789 786.889 845.096 781.778 873.494 780.5 881.239 780.5 881.239 780.5 881.239 777.944 901.893 777.944 916.092 779.222 929 779.222 929 779.222 929 779.222 929 777.944 916.092 781.778 901.893 785.611 882.53 786.889 874.785 786.889 874.785 786.889 874.785 792 843.805 784.333 802.498 774.111 762.482 769 744.41 765.167 726.339 761.333 709.558 753.667 670.833 756.222 624.363 771.556 605 771.556 605 771.556 605 771.556 605 754.944 625.653 746 670.833 753.667 709.558Z" fill="#FFFFFF" fill-rule="evenodd"/><path d="M849.516 779.017C849.516 759.679 840.438 655.254 810.609 614 830.062 662.99 840.438 736.474 840.438 751.944 840.438 775.15 846.922 900.202 836.547 924.697 828.766 946.613 793.75 955.638 773 935.011 774.297 944.035 778.188 951.77 785.969 960.795 805.422 984 836.547 976.265 846.922 951.77 856 928.565 849.516 802.223 849.516 779.017Z" fill="#FF5961" fill-rule="evenodd"/><path d="M951.5 595.581C978.8 593 997 654.941 986.6 709.139 976.2 763.337 950.2 830.439 958 874.314 964.5 916.898 969.7 936.254 950.2 960.772 929.4 984 898.2 976.258 889.1 951.739 880 928.512 885.2 802.05 885.2 778.822 885.2 755.594 903.4 595.581 951.5 595.581Z" fill="#FF7277" fill-rule="evenodd"/><path d="M994.319 587.655C959.247 551.448 835.845 523 767 601.879 767 601.879 767 601.879 767 601.879 772.196 598 777.392 595.414 782.588 595.414 831.948 595.414 848.835 755.759 848.835 779.034 848.835 802.31 855.33 929.035 846.237 952.31 842.34 962.655 838.443 969.121 828.051 973 828.051 973 828.051 973 828.051 973 841.041 970.414 854.031 969.121 867.021 969.121 881.309 969.121 894.299 970.414 905.99 973 905.99 973 905.99 973 905.99 973 895.598 970.414 893 962.655 889.103 952.31 880.01 929.035 885.206 802.31 885.206 779.034 885.206 755.759 903.392 595.414 951.453 595.414 978.732 592.827 996.917 654.896 986.526 709.207 976.134 763.517 950.154 830.759 957.948 874.724 964.443 917.397 969.639 936.793 950.154 961.362 943.66 967.828 937.165 971.707 930.67 973 943.66 971.707 959.247 960.069 968.34 949.724 987.825 926.448 987.825 900.586 981.33 856.621 974.835 813.948 999.515 746.707 1011.21 692.396 1019 651.017 1013.8 610.931 994.319 587.655Z" fill="#FF4049" fill-rule="evenodd"/><path d="M941.655 597.76C952 588.703 937.776 568 883.465 569.294 829.155 570.588 802 591.291 809.759 613.287 809.759 614.581 809.759 614.581 809.759 614.581 840.793 657.281 848.552 760.796 848.552 778.911 848.552 802.201 855.017 929.007 845.965 952.297 842.086 962.649 838.207 969.118 827.862 973 840.793 970.412 853.724 969.118 866.655 969.118 880.879 969.118 893.81 970.412 905.448 973 895.103 970.412 892.517 962.649 888.638 952.297 879.586 929.007 884.758 802.201 884.758 778.911 884.758 756.914 898.983 615.875 941.655 597.76Z" fill="#FF0D28" fill-rule="evenodd"/><path d="M885.546 579C885.546 580.29 885.546 580.29 885.546 580.29 895.909 580.29 903.682 584.161 912.75 585.451 915.341 586.742 917.932 588.032 919.227 590.613 920.523 593.193 917.932 598.355 915.341 602.226 876.477 648.677 872.591 768.677 872.591 777.71 870 779 870 779 870 779 870 769.968 882.955 649.968 920.523 604.806 924.409 600.935 927 594.484 925.705 588.032 924.409 585.451 921.818 581.581 915.341 580.29 906.273 579 895.909 579 885.546 579Z" fill="#FFFFFF" fill-rule="evenodd"/><path d="M883.465 569.294C829.155 570.588 802 591.291 809.759 613.287 809.759 614.581 809.759 614.581 809.759 614.581 840.793 657.281 848.552 760.796 848.552 778.911 848.552 802.201 855.017 929.007 845.965 952.297 842.086 962.649 838.207 969.118 827.862 973 840.793 970.412 853.724 969.118 866.655 969.118 880.879 969.118 893.81 970.412 905.448 973 895.103 970.412 892.517 962.649 888.638 952.297 879.586 929.007 884.758 802.201 884.758 778.911 884.758 756.914 898.983 615.875 941.655 597.76 952 588.703 937.776 568 883.465 569.294ZM866.655 957.473C865.362 957.473 864.069 957.473 861.483 957.473 861.483 957.473 861.483 957.473 862.776 956.179 864.069 951.003 865.362 940.652 866.655 927.713 867.948 940.652 869.241 951.003 871.827 956.179 871.827 957.473 871.827 957.473 871.827 957.473 870.534 957.473 867.948 957.473 866.655 957.473ZM918.379 602.936C879.586 648.224 867.948 767.265 867.948 778.911 867.948 778.911 866.655 795.732 866.655 800.907 866.655 795.732 866.655 778.911 866.655 778.911 866.655 758.208 852.431 655.987 821.396 609.406 821.396 609.406 821.396 609.406 821.396 609.406 820.103 608.112 820.103 606.818 820.103 605.524 820.103 604.23 821.396 601.642 822.69 600.348 827.862 591.291 847.259 580.939 884.758 580.939 896.396 579.645 906.741 580.939 913.207 582.233 926.138 584.821 922.258 597.76 918.379 602.936Z" fill="#F2000A" fill-rule="evenodd"/><path d="M897.351 955C891 936.873 898.622 848.828 898.622 807.396 898.622 781.5 898.622 781.5 898.622 781.5 898.622 762.078 906.243 644.254 938 608 938 608 938 608 938 608 904.973 645.549 891 759.489 891 782.795 891 807.396 891 807.396 891 807.396 891 870.84 891 936.873 897.351 955" fill="#FFFFFF" fill-rule="evenodd"/><path d="M977.273 636C983.788 657.926 985.091 685.012 979.879 709.518 975.97 726.286 972.061 744.343 966.848 762.4 956.424 802.384 946 843.657 949.909 874.612 956.424 912.016 957.727 932.653 946 952 946 952 946 952 946 952 957.727 931.363 961.636 913.306 955.121 873.322 949.909 844.947 961.636 803.673 972.061 763.69 975.97 745.633 981.182 727.575 983.788 709.518 989 683.722 983.788 659.216 977.273 636Z" fill="#FFFFFF" fill-rule="evenodd"/><path d="M973.105 616C982.131 639.25 976.974 681.875 971.816 710.292 967.947 727.083 962.789 745.167 958.921 763.25 948.605 803.292 937 845.917 942.158 876.917 943.447 883.375 943.447 883.375 943.447 883.375 948.605 918.25 956.342 938.917 942.158 957 942.158 957 942.158 957 942.158 957 957.632 936.333 958.921 918.25 952.474 882.083 951.184 875.625 951.184 875.625 951.184 875.625 947.316 845.917 957.632 804.583 967.947 765.833 971.816 747.75 976.974 728.375 980.842 711.583 986 681.875 982.131 640.542 973.105 616Z" fill="#FF5961" fill-rule="evenodd"/><path d="M980.722 623C989.861 646.232 992.472 682.372 987.25 710.767 983.333 727.546 978.111 745.616 974.194 763.686 963.75 803.698 952 846.291 957.222 877.267 958.528 883.721 958.528 883.721 958.528 883.721 963.75 918.57 966.361 936.64 952 956 952 956 952 956 952 956 967.667 934.058 974.194 918.57 967.667 882.43 966.361 875.977 966.361 875.977 966.361 875.977 962.444 846.291 970.278 804.988 979.417 764.977 984.639 746.907 989.861 728.837 992.472 712.058 999 681.081 991.167 647.523 980.722 623Z" fill="#FF0F25" fill-rule="evenodd"/><path d="M974.951 927.659C972.366 928.955 968.488 925.068 969.781 919.886 963.317 919.886 963.317 919.886 963.317 919.886 964.61 935.432 960.732 947.091 950.39 961.341 943.927 967.818 937.463 971.705 931 973 943.927 971.705 959.439 960.046 968.488 949.682 976.244 939.318 981.415 928.955 984 916 981.415 921.182 978.829 926.364 974.951 927.659Z" fill="#FF0F25" fill-rule="evenodd"/><path d="M861 727.078C861 734.859 871.286 737.453 875.143 727.078 879 718 876.429 740.047 876.429 740.047 876.429 740.047 868.714 798.406 868.714 799.703 870 801 861 781.547 861 781.547" fill="#F2000A" fill-rule="evenodd"/><path d="M783.885 596.081C756.654 593.5 738.5 655.441 748.874 709.639 759.247 763.837 785.181 830.939 778.698 874.814 770.918 917.398 767.027 936.754 786.478 961.272 805.929 984.5 837.05 976.757 847.423 952.239 856.5 929.012 850.017 802.55 850.017 779.322 850.017 756.094 833.159 596.081 783.885 596.081Z" stroke="#750000" stroke-width="2.86476" stroke-linecap="round" stroke-linejoin="round" stroke-miterlimit="10" fill="none" fill-rule="evenodd"/><path d="M952 596.081C979.3 593.5 997.5 655.441 987.1 709.639 976.7 763.837 950.7 830.939 958.5 874.814 965 917.398 970.2 936.754 950.7 961.272 929.9 984.5 898.7 976.757 889.6 952.239 880.5 929.012 885.7 802.55 885.7 779.322 885.7 756.094 903.9 596.081 952 596.081Z" stroke="#750000" stroke-width="2.86476" stroke-linecap="round" stroke-linejoin="round" stroke-miterlimit="10" fill="none" fill-rule="evenodd"/><path d="M994.82 588.155C959.747 551.948 836.345 523.5 767.5 602.379 767.5 602.379 767.5 602.379 767.5 602.379 772.696 598.5 777.892 595.914 783.088 595.914 832.449 595.914 849.335 756.259 849.335 779.535 849.335 802.81 855.83 929.534 846.737 952.81 842.84 963.155 838.943 969.621 828.552 973.5 828.552 973.5 828.552 973.5 828.552 973.5 841.541 970.914 854.531 969.621 867.521 969.621 881.809 969.621 894.799 970.914 906.49 973.5 906.49 973.5 906.49 973.5 906.49 973.5 896.098 970.914 893.5 963.155 889.603 952.81 880.51 929.534 885.706 802.81 885.706 779.535 885.706 756.259 903.892 595.914 951.954 595.914 979.232 593.328 997.418 655.397 987.026 709.707 976.634 764.017 950.655 831.259 958.449 875.224 964.943 917.897 970.139 937.293 950.655 961.862 944.16 968.328 937.665 972.207 931.17 973.5 944.16 972.207 959.747 960.569 968.84 950.224 988.325 926.948 988.325 901.086 981.83 857.121 975.335 814.448 1000.02 747.207 1011.71 692.897 1019.5 651.517 1014.3 611.431 994.82 588.155Z" stroke="#750000" stroke-width="2.86476" stroke-linecap="round" stroke-linejoin="round" stroke-miterlimit="10" fill="none" fill-rule="evenodd"/><path d="M942.155 598.26C952.5 589.203 938.276 568.5 883.966 569.794 829.655 571.088 802.5 591.791 810.259 613.788 810.259 615.082 810.259 615.082 810.259 615.082 841.293 657.781 849.052 761.296 849.052 779.411 849.052 802.701 855.517 929.506 846.466 952.797 842.586 963.149 838.707 969.618 828.362 973.5 841.293 970.912 854.224 969.618 867.155 969.618 881.379 969.618 894.31 970.912 905.948 973.5 895.604 970.912 893.017 963.149 889.138 952.797 880.086 929.506 885.259 802.701 885.259 779.411 885.259 757.414 899.483 616.375 942.155 598.26Z" stroke="#750000" stroke-width="2.86476" stroke-linecap="round" stroke-linejoin="round" stroke-miterlimit="10" fill="none" fill-rule="evenodd"/></g></svg>