<svg width="264" height="425" xmlns="http://www.w3.org/2000/svg" xmlns:xlink="http://www.w3.org/1999/xlink" xml:space="preserve" overflow="hidden"><g transform="translate(-1652 -522)"><path d="M1764.05 790.06C1752.9 779.343 1747.33 762.673 1754.02 746.003 1757.36 736.477 1765.16 729.332 1774.08 725.76 1780.77 723.379 1780.77 717.425 1780.77 710.281 1783 660.27 1783 625.738 1780.77 599.542 1775.2 554.294 1757.36 515 1718.34 525.717 1678.21 536.433 1672.64 581.681 1682.67 635.264 1691.59 687.657 1679.33 793.632 1663.72 851.978 1647 910.324 1649.23 929.376 1674.87 941.283 1699.39 952 1712.77 942.474 1736.18 882.937 1736.18 882.937 1765.16 811.493 1767.39 804.349 1769.62 797.204 1768.51 793.632 1764.05 790.06Z" fill="#E16263" fill-rule="evenodd"/><path d="M1774.76 599.46C1772.52 575.676 1765.81 554.27 1754.61 540 1760.21 551.892 1763.57 562.595 1766.93 601.838 1769.16 628 1762.45 645.838 1760.21 695.784 1759.09 714.811 1742.3 716 1734.46 736.216 1726.63 756.432 1726.63 779.027 1738.94 793.297 1742.3 798.054 1744.54 801.622 1742.3 807.568 1740.06 814.703 1717.67 887.243 1717.67 887.243 1709.84 911.027 1708.72 920.541 1702 936 1709.84 926.487 1718.79 909.838 1729.98 882.487 1729.98 882.487 1756.85 812.324 1759.09 806.378 1762.45 799.243 1761.33 795.676 1756.85 792.108 1744.54 781.405 1740.06 762.378 1745.66 745.73 1750.13 736.216 1757.97 726.703 1766.93 723.135 1772.52 720.757 1772.52 714.811 1773.64 707.676 1775.88 657.73 1777 625.622 1774.76 599.46Z" fill="#C30737" fill-rule="evenodd"/><path d="M1695.19 938.81C1665.05 929.288 1662.81 910.245 1678.44 853.115 1694.07 797.176 1716.4 693.628 1707.47 642.45 1697.42 591.271 1699.65 543.663 1737.6 532.951 1740.95 532.951 1746.53 532.951 1751 534.141 1743.19 530.571 1733.14 527 1723.09 530.571 1684.02 540.092 1679.56 587.7 1688.49 638.879 1698.53 690.058 1686.26 791.225 1670.63 848.355 1655 904.294 1655 925.718 1679.56 936.43 1686.26 940 1689.6 940 1695.19 938.81 1695.19 938.81 1695.19 938.81 1695.19 938.81Z" fill="#F2BAAC" fill-rule="evenodd"/><path d="M1671 848C1686.49 791.011 1698.66 690.094 1688.7 639.041 1679.85 587.989 1684.28 540.498 1723 531 1707.51 538.124 1688.7 568.993 1690.91 606.985 1693.13 644.978 1707.51 715.026 1671 848Z" fill="#FFFFFF" fill-rule="evenodd"/><path d="M1803.95 790.06C1815.1 779.343 1820.67 762.673 1813.98 746.003 1810.64 736.477 1802.84 729.332 1793.92 725.76 1787.23 723.379 1787.23 717.425 1787.23 710.281 1785 660.27 1785 625.738 1787.23 599.542 1792.8 554.294 1810.64 515 1849.66 525.717 1889.79 536.433 1895.36 581.681 1885.33 635.264 1876.41 687.657 1888.67 793.632 1904.28 851.978 1921 910.324 1918.77 929.376 1893.13 941.283 1868.61 952 1855.23 942.474 1832.93 882.937 1832.93 882.937 1802.84 811.493 1800.61 804.349 1798.38 797.204 1799.49 793.632 1803.95 790.06Z" fill="#E16263" fill-rule="evenodd"/><path d="M1783.38 897.124C1799.06 930.503 1847.23 943.616 1873 944.808 1871.88 944.808 1873 944.808 1871.88 944.808 1871.88 944.808 1871.88 944.808 1871.88 944.808 1859.56 941.232 1848.35 923.35 1832.67 882.819 1832.67 882.819 1802.42 811.294 1800.18 804.141 1797.94 796.989 1799.06 793.412 1803.54 789.836 1814.75 779.107 1820.35 762.418 1813.63 745.729 1810.27 736.192 1802.42 729.039 1793.46 725.463 1786.74 723.079 1786.74 717.119 1786.74 709.966 1784.5 659.898 1784.5 625.328 1786.74 599.102 1791.22 564.531 1802.42 532.345 1827.07 525.192 1827.07 525.192 1827.07 525.192 1827.07 525.192 1827.07 524 1827.07 524 1827.07 524 1811.39 526.384 1797.94 529.96 1785.62 537.113 1785.62 538.305 1783.38 538.305 1782.26 538.305 1771.06 529.96 1757.61 527.576 1740.81 524 1740.81 525.192 1740.81 525.192 1740.81 525.192 1740.81 525.192 1740.81 525.192 1740.81 525.192 1765.46 532.345 1776.66 564.531 1781.14 599.102 1783.38 625.328 1783.38 659.898 1781.14 709.966 1781.14 717.119 1781.14 723.079 1774.42 725.463 1765.46 729.039 1757.61 736.192 1754.25 745.729 1747.53 762.418 1753.13 779.107 1764.34 789.836 1768.82 793.412 1769.94 796.989 1767.7 804.141 1765.46 811.294 1736.33 882.819 1736.33 882.819 1719.53 923.35 1709.44 941.232 1696 944.808 1696 944.808 1696 944.808 1696 944.808 1696 944.808 1696 944.808 1696 944.808 1718.41 946 1772.18 925.734 1784.5 897.124 1784.5 897.124 1784.5 897.124 1783.38 897.124Z" fill="#A3052B" fill-rule="evenodd"/><path d="M1760.91 799.412C1762 797.039 1759.82 794.667 1758.73 794.667 1750 786.363 1743.45 772.127 1743.45 759.078 1743.45 748.402 1747.82 738.912 1754.36 731.794 1759.82 727.049 1774 719.931 1771.82 714 1771.82 717.559 1756.55 723.49 1748.91 731.794 1742.36 738.912 1738 747.216 1738 760.265 1738 772.127 1744.55 788.735 1754.36 797.039 1755.45 798.225 1756.55 801.784 1756.55 806.529 1754.36 812.461 1753.27 821.951 1748.91 835 1753.27 824.323 1759.82 807.716 1760.91 799.412Z" fill="#A1042D" fill-rule="evenodd"/><path d="M1795.21 599.46C1798.52 575.676 1804.04 554.27 1815.09 540 1809.57 551.892 1806.25 562.595 1802.94 601.838 1800.73 628 1807.36 645.838 1809.57 695.784 1810.67 714.811 1827.24 716 1834.97 736.216 1842.7 756.432 1842.7 779.027 1830.55 793.297 1828.34 798.054 1825.03 801.622 1827.24 807.568 1829.45 814.703 1851.54 887.243 1851.54 887.243 1859.27 911.027 1861.48 920.541 1867 936 1859.27 926.487 1850.43 909.838 1840.49 882.487 1840.49 882.487 1812.88 812.324 1810.67 806.378 1808.46 799.243 1809.57 795.676 1813.99 792.108 1825.03 781.405 1829.45 762.378 1823.93 745.73 1819.51 736.216 1811.78 726.703 1802.94 723.135 1797.42 720.757 1797.42 714.811 1796.31 707.676 1794.1 657.73 1793 625.622 1795.21 599.46Z" fill="#F2BAAC" fill-rule="evenodd"/><path d="M1873.81 938.81C1903.95 929.288 1906.19 910.245 1890.56 853.115 1874.93 797.176 1852.6 693.628 1862.65 642.45 1871.58 591.271 1869.35 543.663 1831.4 532.951 1828.05 532.951 1823.58 532.951 1818 534.141 1825.81 530.571 1835.86 527 1847.02 530.571 1884.98 540.092 1889.44 587.7 1880.51 638.879 1871.58 690.058 1882.74 791.225 1898.37 848.355 1914 904.294 1914 925.718 1889.44 936.43 1882.74 940 1879.4 940 1873.81 938.81 1873.81 938.81 1873.81 938.81 1873.81 938.81Z" fill="#C30737" fill-rule="evenodd"/><path d="M1899 848C1883.17 791.011 1871.87 690.094 1880.91 639.041 1889.96 587.989 1885.43 540.498 1847 531 1862.83 538.124 1882.04 568.993 1878.65 606.985 1876.39 644.978 1861.7 715.026 1899 848Z" fill="#A1042D" fill-rule="evenodd"/><path d="M1815.33 796.946C1825.33 788.622 1832 771.973 1832 760.081 1832 747 1827.56 738.676 1820.89 731.54 1816.44 725.595 1808.67 722.027 1803.11 718.459 1804.22 718.459 1804.22 718.459 1804.22 718.459 1800.89 714.892 1800.89 718.459 1800.89 707.757 1799.78 697.054 1793.11 600.73 1800.89 571 1797.56 579.324 1792 620.946 1793.11 672.081 1794.22 686.351 1797.56 706.568 1797.56 713.703 1797.56 714.892 1797.56 714.892 1797.56 714.892 1797.56 716.081 1797.56 716.081 1797.56 716.081 1797.56 717.27 1797.56 717.27 1797.56 717.27 1800.89 722.027 1810.89 727.973 1815.33 731.54 1822 738.676 1826.44 748.189 1826.44 758.892 1826.44 771.973 1819.78 786.243 1810.89 794.568 1809.78 794.568 1807.56 796.946 1808.67 799.324 1809.78 807.649 1816.44 824.297 1820.89 835 1817.56 821.919 1815.33 812.405 1814.22 806.459 1813.11 801.703 1814.22 798.135 1815.33 796.946Z" fill="#FFFFFF" fill-rule="evenodd"/><path d="M1805 532C1793.82 535.5 1787.12 542.5 1787.12 556.5 1786 569.333 1786 574 1786 574 1788.24 558.833 1794.94 537.833 1805 532Z" fill="#D0043B" fill-rule="evenodd"/><path d="M1789.12 814C1789.12 849.7 1788 865.17 1788 881.83 1788 898.49 1793.58 916.34 1836 933 1819.26 925.86 1795.81 909.2 1794.7 875.88 1793.58 842.56 1789.12 814 1789.12 814Z" fill="#D0043B" fill-rule="evenodd"/><path d="M1832.62 883.272C1832.62 883.272 1802.58 811.827 1800.36 804.682 1799.24 802.301 1799.24 799.919 1799.24 797.538 1799.24 797.538 1799.24 796.347 1799.24 796.347 1799.24 796.347 1799.24 796.347 1799.24 795.156 1799.24 795.156 1800.36 795.156 1800.36 793.965 1800.36 793.965 1800.36 793.965 1800.36 793.965 1800.36 792.775 1801.47 792.775 1801.47 792.775 1801.47 792.775 1801.47 791.584 1801.47 791.584 1802.58 791.584 1802.58 790.393 1803.7 790.393 1804.81 789.202 1805.92 788.012 1807.03 786.821 1808.15 785.63 1809.26 784.439 1809.26 783.249 1809.26 783.249 1810.37 782.058 1810.37 782.058 1811.48 780.867 1811.48 779.676 1812.6 777.295 1812.6 777.295 1812.6 777.295 1812.6 777.295 1817.05 767.769 1818.16 757.052 1813.71 746.335 1810.37 736.809 1802.58 729.665 1793.68 726.093 1787.01 723.711 1787.01 717.757 1787.01 710.613 1784.78 660.601 1784.78 626.069 1787.01 599.873 1788.12 592.728 1789.23 586.775 1790.34 580.821 1782.56 562.96 1770.32 542.717 1753.63 532 1770.32 545.098 1778.11 571.295 1781.44 599.873 1783.67 626.069 1783.67 660.601 1781.44 710.613 1781.44 717.757 1781.44 723.711 1774.77 726.093 1765.87 729.665 1758.08 736.809 1754.74 746.335 1748.07 763.006 1753.63 779.676 1764.76 790.393 1769.21 793.965 1770.32 797.538 1768.09 804.682 1766.98 807.064 1763.64 816.59 1758.08 830.879 1758.08 830.879 1758.08 832.069 1756.97 833.26 1756.97 833.26 1756.97 833.26 1756.97 833.26 1746.95 861.838 1740.28 871.364 1736.94 880.89 1736.94 880.89 1736.94 882.081 1736.94 882.081 1736.94 882.081 1736.94 882.081 1736.94 883.272 1736.94 883.272 1736.94 883.272 1736.94 883.272 1734.72 888.035 1732.49 891.607 1731.38 895.179 1731.38 895.179 1731.38 895.179 1731.38 895.179 1719.14 926.139 1709.13 940.428 1698 944 1703.56 944 1703.56 944 1703.56 944 1728.04 942.809 1772.54 923.757 1783.67 897.561 1783.67 795.156 1783.67 795.156 1783.67 795.156 1785.89 798.728 1793.68 804.682 1797.02 814.208 1798.13 820.162 1801.47 828.497 1805.92 842.786 1815.93 877.318 1839.3 930.902 1866 941.618 1854.87 934.474 1844.86 916.613 1832.62 883.272ZM1772.54 864.22C1770.32 893.988 1754.74 909.468 1746.95 907.087 1741.39 904.705 1773.66 818.971 1776.99 808.254 1775.88 828.497 1773.66 842.786 1772.54 864.22Z" fill="#840923" fill-rule="evenodd"/><path d="M1764.05 790.06C1752.9 779.343 1747.33 762.673 1754.02 746.003 1757.36 736.477 1765.16 729.332 1774.08 725.76 1780.77 723.379 1780.77 717.425 1780.77 710.281 1783 660.27 1783 625.738 1780.77 599.542 1775.2 554.294 1757.36 515 1718.34 525.717 1678.21 536.433 1672.64 581.681 1682.67 635.264 1691.59 687.657 1679.33 793.632 1663.72 851.978 1647 910.324 1649.23 929.376 1674.87 941.283 1699.39 952 1712.77 942.474 1736.18 882.937 1736.18 882.937 1765.16 811.493 1767.39 804.349 1769.62 797.204 1768.51 793.632 1764.05 790.06Z" stroke="#000000" stroke-width="2.29167" stroke-linecap="round" stroke-linejoin="round" stroke-miterlimit="10" fill="none" fill-rule="evenodd"/><path d="M1803.95 790.06C1815.1 779.343 1820.67 762.673 1813.98 746.003 1810.64 736.477 1802.84 729.332 1793.92 725.76 1787.23 723.379 1787.23 717.425 1787.23 710.281 1785 660.27 1785 625.738 1787.23 599.542 1792.8 554.294 1810.64 515 1849.66 525.717 1889.79 536.433 1895.36 581.681 1885.33 635.264 1876.41 687.657 1888.67 793.632 1904.28 851.978 1921 910.324 1918.77 929.376 1893.13 941.283 1868.61 952 1855.23 942.474 1832.93 882.937 1832.93 882.937 1802.84 811.493 1800.61 804.349 1798.38 797.204 1799.49 793.632 1803.95 790.06Z" stroke="#000000" stroke-width="2.29167" stroke-linecap="round" stroke-linejoin="round" stroke-miterlimit="10" fill="none" fill-rule="evenodd"/><path d="M1783.38 897.124C1799.06 930.503 1847.23 943.616 1873 944.808 1871.88 944.808 1873 944.808 1871.88 944.808 1871.88 944.808 1871.88 944.808 1871.88 944.808 1859.56 941.232 1848.35 923.35 1832.67 882.819 1832.67 882.819 1802.42 811.294 1800.18 804.141 1797.94 796.989 1799.06 793.412 1803.54 789.836 1814.75 779.107 1820.35 762.418 1813.63 745.729 1810.27 736.192 1802.42 729.039 1793.46 725.463 1786.74 723.079 1786.74 717.119 1786.74 709.966 1784.5 659.898 1784.5 625.328 1786.74 599.102 1791.22 564.531 1802.42 532.345 1827.07 525.192 1827.07 525.192 1827.07 525.192 1827.07 525.192 1827.07 524 1827.07 524 1827.07 524 1811.39 526.384 1797.94 529.96 1785.62 537.113 1785.62 538.305 1783.38 538.305 1782.26 538.305 1771.06 529.96 1757.61 527.576 1740.81 524 1740.81 525.192 1740.81 525.192 1740.81 525.192 1740.81 525.192 1740.81 525.192 1740.81 525.192 1765.46 532.345 1776.66 564.531 1781.14 599.102 1783.38 625.328 1783.38 659.898 1781.14 709.966 1781.14 717.119 1781.14 723.079 1774.42 725.463 1765.46 729.039 1757.61 736.192 1754.25 745.729 1747.53 762.418 1753.13 779.107 1764.34 789.836 1768.82 793.412 1769.94 796.989 1767.7 804.141 1765.46 811.294 1736.33 882.819 1736.33 882.819 1719.53 923.35 1709.44 941.232 1696 944.808 1696 944.808 1696 944.808 1696 944.808 1696 944.808 1696 944.808 1696 944.808 1718.41 946 1772.18 925.734 1784.5 897.124 1784.5 897.124 1784.5 897.124 1783.38 897.124Z" stroke="#000000" stroke-width="2.29167" stroke-linecap="round" stroke-linejoin="round" stroke-miterlimit="10" fill="none" fill-rule="evenodd"/><path d="M0 0 1.00003 362" stroke="#000000" stroke-width="2.29167" stroke-linecap="round" stroke-linejoin="round" stroke-miterlimit="10" fill="none" fill-rule="evenodd" transform="matrix(1 0 0 -1 1783 901)"/></g></svg>