<svg width="259" height="401" xmlns="http://www.w3.org/2000/svg" xmlns:xlink="http://www.w3.org/1999/xlink" xml:space="preserve" overflow="hidden"><g transform="translate(-2258 -1818)"><path d="M2297.32 1834.58C2270.13 1832 2252 1892.7 2262.36 1946.93 2272.72 2002.46 2298.61 2068.32 2290.84 2112.23 2284.37 2156.14 2280.48 2175.51 2299.91 2198.75 2319.33 2222 2356.87 2214.25 2365.94 2191.01 2375 2166.47 2369.82 2041.21 2369.82 2016.67 2369.82 1993.42 2346.52 1834.58 2297.32 1834.58Z" fill="#E61B81" fill-rule="evenodd"/><path d="M2476.68 1834.58C2503.87 1832 2522 1892.7 2511.64 1946.93 2501.28 2002.46 2475.39 2068.32 2483.16 2112.23 2489.63 2156.14 2494.81 2175.51 2474.09 2198.75 2454.67 2222 2417.13 2214.25 2408.06 2191.01 2399 2166.47 2405.47 2041.21 2405.47 2016.67 2405.47 1993.42 2427.48 1834.58 2476.68 1834.58Z" fill="#E61B81" fill-rule="evenodd"/><path d="M2408.82 2191.16C2399.78 2166.6 2406.24 2041.26 2406.24 2016.71 2406.24 1993.45 2428.19 1834.51 2477.25 1834.51 2479.84 1834.51 2482.42 1834.51 2485 1834.51 2468.22 1825.46 2421.73 1819 2380.42 1819 2332.65 1819 2291.33 1829.34 2281 1840.97 2281 1840.97 2282.29 1839.68 2283.58 1839.68 2287.46 1835.8 2292.62 1833.21 2297.79 1834.51 2308.11 1834.51 2317.15 1840.97 2324.9 1851.31 2326.19 1855.18 2328.77 1857.77 2331.35 1861.64 2357.18 1908.16 2370.09 1999.91 2370.09 2016.71 2370.09 2041.26 2375.25 2166.6 2366.22 2191.16 2361.05 2205.37 2344.27 2214.42 2327.48 2213.12 2342.97 2215.71 2362.34 2217 2381.71 2217 2402.37 2217 2433.35 2215.71 2448.85 2213.12 2432.06 2214.42 2415.28 2205.37 2408.82 2191.16Z" fill="#C10032" fill-rule="evenodd"/><path d="M2485 1834.51C2468.22 1825.46 2421.73 1819 2380.42 1819 2332.65 1819 2291.33 1829.34 2281 1840.97 2281 1840.97 2282.29 1839.68 2283.58 1839.68 2287.46 1835.8 2292.62 1833.21 2297.79 1834.51 2308.11 1834.51 2317.15 1840.97 2324.9 1851.31 2326.19 1855.18 2328.77 1857.77 2331.35 1861.64 2357.18 1908.16 2370.09 1999.91 2370.09 2016.71 2370.09 2041.26 2375.25 2166.6 2366.22 2191.16 2361.05 2205.37 2344.27 2214.42 2327.48 2213.12 2342.97 2215.71 2362.34 2217 2381.71 2217 2402.37 2217 2433.35 2215.71 2448.85 2213.12 2432.06 2214.42 2415.28 2205.37 2408.82 2191.16 2399.78 2166.6 2406.24 2041.26 2406.24 2016.71 2406.24 1993.45 2428.19 1834.51 2477.25 1834.51 2479.84 1834.51 2482.42 1834.51 2485 1834.51ZM2381.71 2202.79C2380.42 2202.79 2377.84 2202.79 2375.25 2202.79 2376.54 2200.2 2377.84 2197.62 2379.13 2195.03 2380.42 2192.45 2386.87 2189.86 2388.16 2185.99 2388.16 2189.86 2394.62 2192.45 2395.91 2195.03 2397.2 2197.62 2398.49 2200.2 2399.78 2202.79 2398.49 2202.79 2384.29 2202.79 2381.71 2202.79ZM2433.35 1842.26C2437.23 1843.55 2435.94 1848.72 2434.65 1851.31 2415.28 1882.32 2403.66 1932.71 2397.2 1968.9 2395.91 1980.53 2383 1989.57 2381.71 1997.32 2381.71 1989.57 2379.13 1980.53 2377.84 1970.19 2371.38 1932.71 2359.76 1886.19 2342.97 1855.18 2341.68 1853.89 2341.68 1852.6 2340.39 1851.31 2339.1 1848.72 2339.1 1843.55 2342.97 1842.26 2350.72 1839.68 2367.51 1834.51 2381.71 1834.51 2395.91 1834.51 2425.61 1839.68 2433.35 1842.26Z" fill="#B00014" fill-rule="evenodd"/><path d="M2267.71 1948.65C2270.29 1965.45 2275.43 1983.54 2279.29 2001.62 2289.57 2041.68 2301.14 2083.02 2296 2112.74 2294.71 2119.2 2294.71 2119.2 2294.71 2119.2 2292.14 2139.87 2292.14 2154.08 2292.14 2167 2292.14 2167 2292.14 2167 2292.14 2167 2292.14 2155.37 2296 2139.87 2299.86 2120.49 2301.14 2112.74 2301.14 2112.74 2301.14 2112.74 2305 2083.02 2298.57 2040.38 2288.29 2000.33 2283.14 1982.24 2279.29 1964.16 2275.43 1947.36 2267.71 1908.6 2270.29 1862.09 2285.71 1844 2285.71 1844 2285.71 1844 2285.71 1844 2269 1863.38 2260 1908.6 2267.71 1948.65Z" fill="#FFFFFF" fill-rule="evenodd"/><path d="M2369.82 2016.46C2369.82 1998.37 2354.29 1892.37 2323.24 1851 2343.94 1900.12 2354.29 1973.8 2354.29 1989.32 2354.29 2012.59 2360.76 2137.98 2350.41 2162.54 2341.35 2185.8 2306.41 2193.56 2287 2172.88 2288.29 2181.93 2292.18 2189.68 2299.94 2198.73 2319.35 2222 2356.88 2214.24 2365.94 2189.68 2375 2166.41 2369.82 2041.02 2369.82 2016.46Z" fill="#DC026B" fill-rule="evenodd"/><path d="M2417.17 2190C2409.31 2171.89 2415.86 2083.95 2417.17 2042.57 2417.17 2016.71 2417.17 2016.71 2417.17 2016.71 2417.17 1997.31 2430.26 1882.21 2463 1846 2463 1846 2463 1846 2463 1846 2428.95 1883.5 2409.31 1996.01 2409.31 2018 2409.31 2042.57 2409.31 2042.57 2409.31 2042.57 2408 2105.94 2409.31 2171.89 2417.17 2190" fill="#FFFFFF" fill-rule="evenodd"/><path d="M2502.55 1874C2508.91 1896.02 2510.18 1921.92 2505.09 1946.52 2501.27 1963.36 2497.45 1981.49 2492.36 1999.62 2482.18 2039.77 2472 2082.51 2475.82 2112.3 2482.18 2151.15 2483.45 2170.57 2472 2190 2472 2190 2472 2190 2472 2190 2483.45 2169.28 2487.27 2151.15 2480.91 2112.3 2475.82 2082.51 2487.27 2041.07 2497.45 2000.92 2501.27 1982.79 2506.36 1964.66 2508.91 1947.82 2514 1921.92 2508.91 1896.02 2502.55 1874Z" fill="#FFFFFF" fill-rule="evenodd"/><path d="M2499.11 1853C2508.13 1876.3 2502.97 1919.01 2497.82 1947.49 2493.95 1964.31 2488.79 1982.43 2484.92 2000.55 2474.61 2041.97 2463 2083.39 2468.16 2114.46 2469.45 2122.22 2469.45 2122.22 2469.45 2122.22 2474.61 2157.17 2482.34 2176.58 2468.16 2196 2468.16 2196 2468.16 2196 2468.16 2196 2483.63 2174 2484.92 2155.88 2478.47 2119.63 2477.18 2113.16 2477.18 2113.16 2477.18 2113.16 2473.32 2083.39 2483.63 2043.27 2493.95 2003.14 2497.82 1985.02 2502.97 1966.9 2506.84 1948.78 2512 1919.01 2508.13 1878.89 2499.11 1853Z" fill="#DC026B" fill-rule="evenodd"/><path d="M2367 1837C2361.84 1842.17 2355.39 1840.88 2350.23 1847.33 2346.35 1853.79 2347.65 1860.25 2347.65 1868 2342.48 1861.54 2327 1852.5 2334.74 1842.17 2337.32 1838.29 2342.48 1840.88 2347.65 1838.29" fill="#B00014" fill-rule="evenodd"/><path d="M2372 1940.74C2374.56 1965.26 2398.88 1962.68 2401.44 1945.9 2404 1933 2400.16 1966.55 2400.16 1966.55 2379.68 2013 2379.68 2013 2379.68 2013" fill="#B00014" fill-rule="evenodd"/><path d="M2344 1841C2345.28 1841 2345.28 1841 2345.28 1841 2349.13 1837.14 2373.48 1834.57 2396.55 1834.57 2411.93 1834.57 2427.31 1837.14 2435 1841 2435 1841 2435 1841 2435 1841 2427.31 1837.14 2408.08 1832 2391.42 1832 2367.07 1832 2349.13 1834.57 2344 1841Z" fill="#FFFFFF" fill-rule="evenodd"/><path d="M2297.82 1835.08C2270.63 1832.5 2252.5 1893.2 2262.86 1947.43 2273.22 2002.96 2299.11 2068.82 2291.34 2112.73 2284.87 2156.64 2280.98 2176.01 2300.41 2199.25 2319.83 2222.5 2357.37 2214.75 2366.44 2191.51 2375.5 2166.97 2370.32 2041.71 2370.32 2017.17 2370.32 1993.92 2347.02 1835.08 2297.82 1835.08Z" stroke="#330000" stroke-width="2.86476" stroke-linecap="round" stroke-linejoin="round" stroke-miterlimit="10" fill="none" fill-rule="evenodd"/><path d="M2477.18 1835.08C2504.37 1832.5 2522.5 1893.2 2512.14 1947.43 2501.78 2002.96 2475.89 2068.82 2483.66 2112.73 2490.13 2156.64 2495.31 2176.01 2474.59 2199.25 2455.17 2222.5 2417.63 2214.75 2408.56 2191.51 2399.5 2166.97 2405.97 2041.71 2405.97 2017.17 2405.97 1993.92 2427.98 1835.08 2477.18 1835.08Z" stroke="#330000" stroke-width="2.86476" stroke-linecap="round" stroke-linejoin="round" stroke-miterlimit="10" fill="none" fill-rule="evenodd"/><path d="M2409.32 2191.66C2400.28 2167.1 2406.74 2041.76 2406.74 2017.21 2406.74 1993.95 2428.69 1835.01 2477.75 1835.01 2480.34 1835.01 2482.92 1835.01 2485.5 1835.01 2468.72 1825.96 2422.23 1819.5 2380.92 1819.5 2333.15 1819.5 2291.83 1829.84 2281.5 1841.47 2281.5 1841.47 2282.79 1840.18 2284.08 1840.18 2287.96 1836.3 2293.12 1833.71 2298.28 1835.01 2308.61 1835.01 2317.65 1841.47 2325.4 1851.81 2326.69 1855.68 2329.27 1858.27 2331.85 1862.14 2357.68 1908.66 2370.59 2000.41 2370.59 2017.21 2370.59 2041.76 2375.75 2167.1 2366.72 2191.66 2361.55 2205.87 2344.77 2214.92 2327.98 2213.62 2343.47 2216.21 2362.84 2217.5 2382.21 2217.5 2402.87 2217.5 2433.85 2216.21 2449.35 2213.62 2432.56 2214.92 2415.78 2205.87 2409.32 2191.66Z" stroke="#330000" stroke-width="2.86476" stroke-linecap="round" stroke-linejoin="round" stroke-miterlimit="10" fill="none" fill-rule="evenodd"/><path d="M2364.5 2200.5C2369.8 2202.5 2375.09 2202.5 2383.04 2202.5 2389.66 2202.5 2408.2 2202.5 2413.5 2200.5" stroke="#330000" stroke-width="2.86476" stroke-linecap="round" stroke-linejoin="round" stroke-miterlimit="10" fill="none" fill-rule="evenodd"/><path d="M2435.5 1842.5C2429.09 1838.3 2413.71 1835.5 2397.05 1835.5 2376.54 1835.5 2349.63 1836.9 2344.5 1842.5" stroke="#330000" stroke-width="2.86476" stroke-linecap="round" stroke-linejoin="round" stroke-miterlimit="10" fill="none" fill-rule="evenodd"/><path d="M2429 1860C2422.42 1871.55 2409.26 1903.62 2404 1928 2406.63 1908.75 2415.84 1870.26 2429 1860Z" fill="#FF5EBF" fill-rule="evenodd"/></g></svg>