<svg width="329" height="411" xmlns="http://www.w3.org/2000/svg" xmlns:xlink="http://www.w3.org/1999/xlink" xml:space="preserve" overflow="hidden"><g transform="translate(-1655 -1786)"><path d="M1698 1788.55C1698 1788.55 1698 1788.55 1698 1788.55 1724.89 1784.97 1749.54 1808.83 1765.22 1839.86 1777.55 1862.54 1788.75 1892.37 1802.19 1940.11 1804.44 1947.27 1802.19 1950.85 1797.71 1955.62 1789.87 1962.78 1785.39 1972.33 1785.39 1984.26 1785.39 2000.97 1796.59 2015.29 1811.16 2020.07 1816.76 2022.45 1819 2024.84 1819 2032 1819 1990.23 1819 1880.44 1819 1875.66 1819 1836.28 1764.1 1779 1698 1788.55Z" fill="#533525" fill-rule="evenodd"/><path d="M1828.95 2020.07C1843.5 2015.29 1853.58 2000.97 1853.58 1984.26 1853.58 1972.33 1849.1 1962.78 1842.39 1955.62 1836.79 1950.85 1835.67 1947.27 1836.79 1940.11 1851.34 1892.37 1862.53 1862.54 1873.72 1839.86 1890.51 1808.83 1915.14 1784.97 1942 1788.55 1942 1788.55 1942 1788.55 1942 1788.55 1875.96 1779 1820 1836.28 1820 1875.66 1820 1881.63 1821.12 1959.2 1821.12 1959.2 1821.12 2032 1821.12 2032 1821.12 2032 1821.12 2024.84 1823.36 2022.45 1828.95 2020.07Z" fill="#533525" fill-rule="evenodd"/><path d="M1820.5 2133.1C1820.5 2133.1 1821.63 2110.41 1821.63 2071 1819.37 2072.19 1819.37 2072.19 1819.37 2072.19 1819.37 2110.41 1819.37 2133.1 1819.37 2133.1 1819.37 2162.95 1810.33 2188.03 1790 2194 1790 2194 1790 2194 1790 2194 1799.04 2191.61 1810.33 2189.22 1819.37 2189.22 1829.54 2189.22 1841.96 2191.61 1851 2194 1851 2194 1851 2194 1851 2194 1830.67 2188.03 1820.5 2162.95 1820.5 2133.1Z" fill="#533525" fill-rule="evenodd"/><path d="M1811.2 2019.65C1796.71 2014.88 1785.56 2000.59 1785.56 1983.9 1785.56 1971.99 1790.02 1962.46 1797.82 1955.31 1802.28 1950.54 1804.51 1946.97 1802.28 1939.82 1788.9 1892.16 1777.76 1862.37 1765.5 1839.73 1745.43 1800.41 1710.88 1773 1677.44 1798.02 1644 1824.24 1655.15 1869.52 1683.01 1914.79 1710.88 1960.07 1736.52 2061.35 1742.09 2123.32 1747.66 2184.08 1751.01 2196 1778.87 2196 1806.74 2196 1819 2168.59 1819 2132.85 1819 2132.85 1819 2038.72 1819 2031.57 1819 2024.42 1816.77 2022.03 1811.2 2019.65Z" fill="#8A6A55" fill-rule="evenodd"/><path d="M1828.92 2019.65C1843.41 2014.88 1853.44 2000.59 1853.44 1983.9 1853.44 1971.99 1848.98 1962.46 1842.29 1955.31 1836.72 1950.54 1835.61 1946.97 1836.72 1939.82 1851.21 1892.16 1862.36 1862.37 1873.5 1839.73 1893.57 1800.41 1929.24 1773 1962.68 1798.02 1995 1824.24 1983.85 1869.52 1957.1 1914.79 1929.24 1960.07 1903.6 2061.35 1898.03 2123.32 1892.45 2184.08 1889.11 2196 1861.24 2196 1833.38 2196 1820 2168.59 1820 2132.85 1820 2132.85 1821.11 2038.72 1821.11 2031.57 1821.11 2024.42 1823.34 2022.03 1828.92 2019.65Z" fill="#8A6A55" fill-rule="evenodd"/><path d="M1766.52 2189.42C1754.21 2181.07 1759.81 2157.2 1756.45 2119.01 1750.85 2056.95 1735.18 1959.08 1707.2 1913.73 1679.22 1868.38 1663.55 1803.93 1706.08 1794.39 1700.49 1792 1688.17 1795.58 1681.46 1801.55 1649 1826.61 1660.19 1869.57 1688.17 1914.93 1716.16 1960.28 1741.9 2061.72 1747.5 2123.78 1751.97 2171.52 1753.09 2185.84 1766.52 2189.42 1769.88 2190.61 1771 2193 1766.52 2189.42Z" fill="#BBA494" fill-rule="evenodd"/><path d="M1804.07 2023.46C1789.56 2018.7 1779.51 2000.84 1779.51 1984.16 1779.51 1972.25 1783.98 1962.73 1790.67 1955.58 1795.14 1950.82 1797.37 1947.25 1796.26 1940.1 1781.74 1892.46 1771.7 1862.69 1760.53 1840.06 1749.37 1818.63 1733.74 1803.15 1717 1796 1727.05 1803.15 1735.98 1809.1 1747.14 1831.73 1757.19 1851.97 1761.65 1871.03 1773.93 1913.9 1778.4 1927 1785.09 1941.29 1778.4 1954.39 1773.93 1961.54 1769.47 1968.68 1769.47 1984.16 1769.47 2010.36 1778.4 2023.46 1788.44 2030.61 1798.49 2037.75 1800.72 2053.24 1801.84 2066.34 1801.84 2100.87 1806.3 2131.84 1806.3 2131.84 1806.3 2155.65 1804.07 2177.09 1788.44 2189 1805.19 2180.66 1813 2160.42 1813 2133.03 1813 2133.03 1811.88 2042.52 1811.88 2035.37 1811.88 2028.23 1809.65 2025.85 1804.07 2023.46Z" fill="#634230" fill-rule="evenodd"/><path d="M1727 2018C1716.97 1977.65 1702.49 1938.48 1688 1914.75 1660.14 1869.65 1649 1826.92 1681.31 1802 1670.17 1811.49 1662.37 1849.47 1677.97 1882.7 1692.46 1915.93 1711.4 1950.35 1727 2018Z" fill="#FFFFFF" fill-rule="evenodd"/><path d="M1873.48 2189.42C1885.79 2181.07 1880.19 2157.2 1883.55 2119.01 1889.15 2056.95 1904.82 1959.08 1932.8 1913.73 1960.78 1868.38 1976.45 1803.93 1933.92 1794.39 1939.51 1792 1951.83 1795.58 1958.54 1801.55 1991 1826.61 1979.81 1869.57 1951.83 1914.93 1923.84 1960.28 1898.1 2061.72 1892.5 2123.78 1888.03 2171.52 1886.91 2185.84 1873.48 2189.42 1870.12 2190.61 1869 2193 1873.48 2189.42Z" fill="#634230" fill-rule="evenodd"/><path d="M1835.93 2023.46C1850.44 2018.7 1860.49 2000.84 1860.49 1984.16 1860.49 1972.25 1856.02 1962.73 1849.33 1955.58 1844.86 1950.82 1842.63 1947.25 1843.74 1940.1 1858.26 1892.46 1868.3 1862.69 1879.47 1840.06 1890.63 1818.63 1906.26 1803.15 1923 1796 1912.95 1803.15 1904.02 1809.1 1892.86 1831.73 1882.81 1851.97 1879.47 1871.03 1866.07 1913.9 1861.6 1927 1854.91 1941.29 1861.6 1954.39 1866.07 1961.54 1870.53 1968.68 1870.53 1984.16 1870.53 2010.36 1861.6 2023.46 1851.56 2030.61 1841.51 2037.75 1839.28 2053.24 1839.28 2066.34 1838.16 2100.87 1833.7 2131.84 1833.7 2131.84 1833.7 2155.65 1835.93 2177.09 1851.56 2189 1834.81 2180.66 1827 2160.42 1827 2133.03 1827 2133.03 1828.12 2042.52 1828.12 2035.37 1828.12 2028.23 1830.35 2025.85 1835.93 2023.46Z" fill="#BBA494" fill-rule="evenodd"/><path d="M1913 2018C1923.03 1977.65 1937.51 1938.48 1952 1914.75 1979.86 1869.65 1991 1826.92 1958.69 1802 1969.83 1811.49 1977.63 1849.47 1962.03 1882.7 1947.54 1915.93 1928.6 1950.35 1913 2018Z" fill="#533525" fill-rule="evenodd"/><path d="M1813 2133C1813 2133 1811.88 2042.46 1811.88 2035.31 1811.88 2028.16 1809.65 2025.78 1804.06 2023.4 1789.53 2018.63 1779.47 2000.76 1779.47 1984.08 1779.47 1972.17 1783.94 1962.64 1790.65 1955.49 1795.12 1950.72 1797.35 1947.15 1796.24 1940 1796.24 1943.57 1794 1948.34 1787.29 1956.68 1779.47 1963.83 1775 1972.17 1775 1985.27 1775 1998.38 1782.82 2017.44 1794 2023.4 1805.18 2029.35 1809.65 2032.93 1809.65 2042.46 1810.76 2051.99 1813 2133 1813 2133Z" fill="#533525" fill-rule="evenodd"/><path d="M1827 2133C1827 2133 1828.11 2042.21 1828.11 2035.04 1828.11 2027.87 1830.32 2025.48 1835.86 2023.09 1850.27 2018.32 1860.24 2000.4 1860.24 1983.67 1860.24 1971.72 1855.81 1962.17 1849.16 1955 1863.57 1969.34 1868 1994.42 1860.24 2009.95 1851.38 2025.48 1841.41 2026.68 1835.86 2030.26 1831.43 2032.65 1831.43 2042.21 1830.32 2056.54 1830.32 2070.88 1827 2133 1827 2133Z" fill="#FFFFFF" fill-rule="evenodd"/><path d="M1911 1802C1897.56 1810.33 1878.52 1830.57 1855 1902 1866.2 1873.43 1891.96 1817.48 1911 1802Z" fill="#FFFFFF" fill-rule="evenodd"/><path d="M1804.5 1912.71C1797.83 1876.92 1763.36 1798.19 1731.11 1797 1730 1797 1730 1797 1730 1797 1744.45 1806.54 1756.69 1822.05 1765.58 1839.94 1777.81 1862.61 1788.93 1892.43 1802.27 1940.15 1804.5 1947.3 1802.27 1950.88 1797.83 1955.65 1790.04 1962.81 1785.59 1972.36 1785.59 1984.28 1785.59 2000.98 1796.71 2015.3 1811.17 2020.07 1816.73 2022.46 1818.95 2024.84 1818.95 2032 1818.95 1944.92 1818.95 1944.92 1818.95 1944.92 1806.72 1936.57 1806.72 1924.64 1804.5 1912.71ZM1873.43 1839.94C1877.88 1831.59 1883.44 1823.24 1889 1816.09 1886.78 1817.28 1886.78 1817.28 1886.78 1817.28 1872.32 1829.21 1852.31 1859.03 1835.63 1917.48 1825.62 1949.69 1821.17 1946.11 1821.17 1946.11 1821.17 1954.46 1821.17 1959.23 1821.17 1959.23 1821.17 2032 1821.17 2032 1821.17 2032 1821.17 2024.84 1823.4 2022.46 1828.96 2020.07 1843.41 2015.3 1853.42 2000.98 1853.42 1984.28 1853.42 1972.36 1848.97 1962.81 1842.3 1955.65 1840.08 1954.46 1838.97 1952.08 1837.85 1949.69 1837.85 1949.69 1836.74 1949.69 1836.74 1949.69 1836.74 1949.69 1836.74 1949.69 1835.63 1949.69 1836.74 1948.5 1836.74 1948.5 1836.74 1948.5 1835.63 1946.11 1835.63 1942.53 1836.74 1940.15 1851.2 1892.43 1862.31 1862.61 1873.43 1839.94Z" fill="#291C11" fill-rule="evenodd"/><path d="M1881 1802C1863.46 1809.14 1831.67 1838.89 1826.19 1865.07 1824 1873.4 1825.1 1893.63 1825.1 1921 1826.19 1903.15 1826.19 1876.97 1838.25 1851.98 1851.4 1825.8 1881 1802 1881 1802Z" fill="#8A6A55" fill-rule="evenodd"/><path d="M1811.2 2019.65C1796.71 2014.88 1785.56 2000.59 1785.56 1983.9 1785.56 1971.99 1790.02 1962.46 1797.82 1955.31 1802.28 1950.54 1804.51 1946.97 1802.28 1939.82 1788.9 1892.16 1777.76 1862.37 1765.5 1839.73 1745.43 1800.41 1710.88 1773 1677.44 1798.02 1644 1824.24 1655.15 1869.52 1683.01 1914.79 1710.88 1960.07 1736.52 2061.35 1742.09 2123.32 1747.66 2184.08 1751.01 2196 1778.87 2196 1806.74 2196 1819 2168.59 1819 2132.85 1819 2132.85 1819 2038.72 1819 2031.57 1819 2024.42 1816.77 2022.03 1811.2 2019.65Z" stroke="#000000" stroke-width="2.29167" stroke-linecap="round" stroke-linejoin="round" stroke-miterlimit="10" fill="none" fill-rule="evenodd"/><path d="M1698 1788.55C1698 1788.55 1698 1788.55 1698 1788.55 1724.89 1784.97 1749.54 1808.83 1765.22 1839.86 1777.55 1862.54 1788.75 1892.37 1802.19 1940.11 1804.44 1947.27 1802.19 1950.85 1797.71 1955.62 1789.87 1962.78 1785.39 1972.33 1785.39 1984.26 1785.39 2000.97 1796.59 2015.29 1811.16 2020.07 1816.76 2022.45 1819 2024.84 1819 2032 1819 1990.23 1819 1880.44 1819 1875.66 1819 1836.28 1764.1 1779 1698 1788.55Z" stroke="#000000" stroke-width="2.29167" stroke-linecap="round" stroke-linejoin="round" stroke-miterlimit="10" fill="none" fill-rule="evenodd"/><path d="M1828.92 2019.65C1843.41 2014.88 1853.44 2000.59 1853.44 1983.9 1853.44 1971.99 1848.98 1962.46 1842.29 1955.31 1836.72 1950.54 1835.61 1946.97 1836.72 1939.82 1851.21 1892.16 1862.36 1862.37 1873.5 1839.73 1893.57 1800.41 1929.24 1773 1962.68 1798.02 1995 1824.24 1983.85 1869.52 1957.1 1914.79 1929.24 1960.07 1903.6 2061.35 1898.03 2123.32 1892.45 2184.08 1889.11 2196 1861.24 2196 1833.38 2196 1820 2168.59 1820 2132.85 1820 2132.85 1821.11 2038.72 1821.11 2031.57 1821.11 2024.42 1823.34 2022.03 1828.92 2019.65Z" stroke="#000000" stroke-width="2.29167" stroke-linecap="round" stroke-linejoin="round" stroke-miterlimit="10" fill="none" fill-rule="evenodd"/><path d="M1828.95 2020.07C1843.5 2015.29 1853.58 2000.97 1853.58 1984.26 1853.58 1972.33 1849.1 1962.78 1842.39 1955.62 1836.79 1950.85 1835.67 1947.27 1836.79 1940.11 1851.34 1892.37 1862.53 1862.54 1873.72 1839.86 1890.51 1808.83 1915.14 1784.97 1942 1788.55 1942 1788.55 1942 1788.55 1942 1788.55 1875.96 1779 1820 1836.28 1820 1875.66 1820 1881.63 1821.12 1959.2 1821.12 1959.2 1821.12 2032 1821.12 2032 1821.12 2032 1821.12 2024.84 1823.36 2022.45 1828.95 2020.07Z" stroke="#000000" stroke-width="2.29167" stroke-linecap="round" stroke-linejoin="round" stroke-miterlimit="10" fill="none" fill-rule="evenodd"/><path d="M1820.5 2133.1C1820.5 2133.1 1821.63 2110.41 1821.63 2071 1819.37 2072.19 1819.37 2072.19 1819.37 2072.19 1819.37 2110.41 1819.37 2133.1 1819.37 2133.1 1819.37 2162.95 1810.33 2188.03 1790 2194 1790 2194 1790 2194 1790 2194 1799.04 2191.61 1810.33 2189.22 1819.37 2189.22 1829.54 2189.22 1841.96 2191.61 1851 2194 1851 2194 1851 2194 1851 2194 1830.67 2188.03 1820.5 2162.95 1820.5 2133.1Z" stroke="#000000" stroke-width="2.29167" stroke-linecap="round" stroke-linejoin="round" stroke-miterlimit="10" fill="none" fill-rule="evenodd"/></g></svg>