<svg width="272" height="427" xmlns="http://www.w3.org/2000/svg" xmlns:xlink="http://www.w3.org/1999/xlink" xml:space="preserve" overflow="hidden"><g transform="translate(-744 -1174)"><path d="M783.385 1218.59C756.154 1216 738 1278.26 748.374 1332.73 758.747 1387.21 784.681 1454.65 778.198 1498.75 770.418 1541.55 766.528 1561.01 785.978 1585.65 805.429 1609 836.549 1601.22 846.923 1576.57 856 1553.23 849.516 1426.12 849.516 1402.77 849.516 1379.43 832.659 1218.59 783.385 1218.59Z" fill="#E6BCC1" fill-rule="evenodd"/><path d="M753.667 1333.56C756.222 1351.63 761.333 1369.7 766.444 1387.77 776.667 1427.79 786.889 1469.1 781.778 1497.49 780.5 1505.24 780.5 1505.24 780.5 1505.24 777.944 1525.89 777.944 1540.09 779.222 1553 779.222 1553 779.222 1553 779.222 1553 777.944 1540.09 781.778 1525.89 785.611 1506.53 786.889 1498.78 786.889 1498.78 786.889 1498.78 792 1467.8 784.333 1426.5 774.111 1386.48 769 1368.41 765.167 1350.34 761.333 1333.56 753.667 1294.83 756.222 1248.36 771.556 1229 771.556 1229 771.556 1229 771.556 1229 754.944 1249.65 746 1294.83 753.667 1333.56Z" fill="#FFFFFF" fill-rule="evenodd"/><path d="M849.516 1402.91C849.516 1383.47 840.438 1278.48 810.609 1237 830.062 1286.25 840.438 1360.14 840.438 1375.69 840.438 1399.02 846.922 1524.75 836.547 1549.38 828.766 1571.41 793.75 1580.48 773 1559.75 774.297 1568.82 778.188 1576.6 785.969 1585.67 805.422 1609 836.547 1601.22 846.922 1576.6 856 1553.26 849.516 1426.24 849.516 1402.91Z" fill="#DCA3AB" fill-rule="evenodd"/><path d="M951.5 1218.59C978.8 1216 997 1278.26 986.6 1332.73 976.2 1387.21 950.2 1454.65 958 1498.75 964.5 1541.55 969.7 1561.01 950.2 1585.65 929.4 1609 898.2 1601.22 889.1 1576.57 880 1553.23 885.2 1426.12 885.2 1402.77 885.2 1379.43 903.4 1218.59 951.5 1218.59Z" fill="#E6BCC1" fill-rule="evenodd"/><path d="M994.319 1211.66C959.247 1175.45 835.845 1147 767 1225.88 767 1225.88 767 1225.88 767 1225.88 772.196 1222 777.392 1219.41 782.588 1219.41 831.948 1219.41 848.835 1379.76 848.835 1403.03 848.835 1426.31 855.33 1553.03 846.237 1576.31 842.34 1586.66 838.443 1593.12 828.051 1597 828.051 1597 828.051 1597 828.051 1597 841.041 1594.41 854.031 1593.12 867.021 1593.12 881.309 1593.12 894.299 1594.41 905.99 1597 905.99 1597 905.99 1597 905.99 1597 895.598 1594.41 893 1586.66 889.103 1576.31 880.01 1553.03 885.206 1426.31 885.206 1403.03 885.206 1379.76 903.392 1219.41 951.453 1219.41 978.732 1216.83 996.917 1278.9 986.526 1333.21 976.134 1387.52 950.154 1454.76 957.948 1498.72 964.443 1541.4 969.639 1560.79 950.154 1585.36 943.66 1591.83 937.165 1595.71 930.67 1597 943.66 1595.71 959.247 1584.07 968.34 1573.72 987.825 1550.45 987.825 1524.59 981.33 1480.62 974.835 1437.95 999.515 1370.71 1011.21 1316.4 1019 1275.02 1013.8 1234.93 994.319 1211.66Z" fill="#D08A93" fill-rule="evenodd"/><path d="M941.655 1221.76C952 1212.7 937.776 1192 883.465 1193.29 829.155 1194.59 802 1215.29 809.759 1237.29 809.759 1238.58 809.759 1238.58 809.759 1238.58 840.793 1281.28 848.552 1384.8 848.552 1402.91 848.552 1426.2 855.017 1553.01 845.965 1576.3 842.086 1586.65 838.207 1593.12 827.862 1597 840.793 1594.41 853.724 1593.12 866.655 1593.12 880.879 1593.12 893.81 1594.41 905.448 1597 895.103 1594.41 892.517 1586.65 888.638 1576.3 879.586 1553.01 884.758 1426.2 884.758 1402.91 884.758 1380.91 898.983 1239.88 941.655 1221.76Z" fill="#C15772" fill-rule="evenodd"/><path d="M885.546 1202C885.546 1203.3 885.546 1203.3 885.546 1203.3 895.909 1203.3 903.682 1207.19 912.75 1208.48 915.341 1209.78 917.932 1211.08 919.227 1213.67 920.523 1216.26 917.932 1221.45 915.341 1225.34 876.477 1272.03 872.591 1392.63 872.591 1401.7 870 1403 870 1403 870 1403 870 1393.92 882.955 1273.32 920.523 1227.94 924.409 1224.05 927 1217.56 925.705 1211.08 924.409 1208.48 921.818 1204.59 915.341 1203.3 906.273 1202 895.909 1202 885.546 1202Z" fill="#FFFFFF" fill-rule="evenodd"/><path d="M883.465 1193.29C829.155 1194.59 802 1215.29 809.759 1237.29 809.759 1238.58 809.759 1238.58 809.759 1238.58 840.793 1281.28 848.552 1384.8 848.552 1402.91 848.552 1426.2 855.017 1553.01 845.965 1576.3 842.086 1586.65 838.207 1593.12 827.862 1597 840.793 1594.41 853.724 1593.12 866.655 1593.12 880.879 1593.12 893.81 1594.41 905.448 1597 895.103 1594.41 892.517 1586.65 888.638 1576.3 879.586 1553.01 884.758 1426.2 884.758 1402.91 884.758 1380.91 898.983 1239.88 941.655 1221.76 952 1212.7 937.776 1192 883.465 1193.29ZM866.655 1581.47C865.362 1581.47 864.069 1581.47 861.483 1581.47 861.483 1581.47 861.483 1581.47 862.776 1580.18 864.069 1575 865.362 1564.65 866.655 1551.71 867.948 1564.65 869.241 1575 871.827 1580.18 871.827 1581.47 871.827 1581.47 871.827 1581.47 870.534 1581.47 867.948 1581.47 866.655 1581.47ZM918.379 1226.94C879.586 1272.22 867.948 1391.27 867.948 1402.91 867.948 1402.91 866.655 1419.73 866.655 1424.91 866.655 1419.73 866.655 1402.91 866.655 1402.91 866.655 1382.21 852.431 1279.99 821.396 1233.41 821.396 1233.41 821.396 1233.41 821.396 1233.41 820.103 1232.11 820.103 1230.82 820.103 1229.52 820.103 1228.23 821.396 1225.64 822.69 1224.35 827.862 1215.29 847.259 1204.94 884.758 1204.94 896.396 1203.65 906.741 1204.94 913.207 1206.23 926.138 1208.82 922.258 1221.76 918.379 1226.94Z" fill="#B03054" fill-rule="evenodd"/><path d="M897.351 1579C891 1560.87 898.622 1472.83 898.622 1431.4 898.622 1405.5 898.622 1405.5 898.622 1405.5 898.622 1386.08 906.243 1268.25 938 1232 938 1232 938 1232 938 1232 904.973 1269.55 891 1383.49 891 1406.79 891 1431.4 891 1431.4 891 1431.4 891 1494.84 891 1560.87 897.351 1579" fill="#FFFFFF" fill-rule="evenodd"/><path d="M977.273 1259C983.788 1281 985.091 1308.17 979.879 1332.75 975.97 1349.57 972.061 1367.69 966.848 1385.8 956.424 1425.91 946 1467.31 949.909 1498.37 956.424 1535.89 957.727 1556.59 946 1576 946 1576 946 1576 946 1576 957.727 1555.3 961.636 1537.18 955.121 1497.07 949.909 1468.61 961.636 1427.2 972.061 1387.09 975.97 1368.98 981.182 1350.87 983.788 1332.75 989 1306.87 983.788 1282.29 977.273 1259Z" fill="#FFFFFF" fill-rule="evenodd"/><path d="M973.105 1240C982.131 1263.25 976.974 1305.87 971.816 1334.29 967.947 1351.08 962.789 1369.17 958.921 1387.25 948.605 1427.29 937 1469.92 942.158 1500.92 943.447 1507.37 943.447 1507.37 943.447 1507.37 948.605 1542.25 956.342 1562.92 942.158 1581 942.158 1581 942.158 1581 942.158 1581 957.632 1560.33 958.921 1542.25 952.474 1506.08 951.184 1499.62 951.184 1499.62 951.184 1499.62 947.316 1469.92 957.632 1428.58 967.947 1389.83 971.816 1371.75 976.974 1352.37 980.842 1335.58 986 1305.87 982.131 1264.54 973.105 1240Z" fill="#DCA3AB" fill-rule="evenodd"/><path d="M980.722 1247C989.861 1270.23 992.472 1306.37 987.25 1334.77 983.333 1351.55 978.111 1369.62 974.194 1387.69 963.75 1427.7 952 1470.29 957.222 1501.27 958.528 1507.72 958.528 1507.72 958.528 1507.72 963.75 1542.57 966.361 1560.64 952 1580 952 1580 952 1580 952 1580 967.667 1558.06 974.194 1542.57 967.667 1506.43 966.361 1499.98 966.361 1499.98 966.361 1499.98 962.444 1470.29 970.278 1428.99 979.417 1388.98 984.639 1370.91 989.861 1352.84 992.472 1336.06 999 1305.08 991.167 1271.52 980.722 1247Z" fill="#BD596F" fill-rule="evenodd"/><path d="M974.951 1551.66C972.366 1552.95 968.488 1549.07 969.781 1543.89 963.317 1543.89 963.317 1543.89 963.317 1543.89 964.61 1559.43 960.732 1571.09 950.39 1585.34 943.927 1591.82 937.463 1595.7 931 1597 943.927 1595.7 959.439 1584.05 968.488 1573.68 976.244 1563.32 981.415 1552.95 984 1540 981.415 1545.18 978.829 1550.36 974.951 1551.66Z" fill="#BD596F" fill-rule="evenodd"/><path d="M861 1351.08C861 1358.86 871.286 1361.45 875.143 1351.08 879 1342 876.429 1364.05 876.429 1364.05 876.429 1364.05 868.714 1422.41 868.714 1423.7 870 1425 861 1405.55 861 1405.55" fill="#B03054" fill-rule="evenodd"/><path d="M783.385 1218.59C756.154 1216 738 1278.26 748.374 1332.73 758.747 1387.21 784.681 1454.65 778.198 1498.75 770.418 1541.55 766.528 1561.01 785.978 1585.65 805.429 1609 836.549 1601.22 846.923 1576.57 856 1553.23 849.516 1426.12 849.516 1402.77 849.516 1379.43 832.659 1218.59 783.385 1218.59Z" stroke="#333333" stroke-width="2.29167" stroke-linecap="round" stroke-linejoin="round" stroke-miterlimit="10" fill="none" fill-rule="evenodd"/><path d="M951.5 1218.59C978.8 1216 997 1278.26 986.6 1332.73 976.2 1387.21 950.2 1454.65 958 1498.75 964.5 1541.55 969.7 1561.01 950.2 1585.65 929.4 1609 898.2 1601.22 889.1 1576.57 880 1553.23 885.2 1426.12 885.2 1402.77 885.2 1379.43 903.4 1218.59 951.5 1218.59Z" stroke="#333333" stroke-width="2.29167" stroke-linecap="round" stroke-linejoin="round" stroke-miterlimit="10" fill="none" fill-rule="evenodd"/><path d="M994.319 1211.66C959.247 1175.45 835.845 1147 767 1225.88 767 1225.88 767 1225.88 767 1225.88 772.196 1222 777.392 1219.41 782.588 1219.41 831.948 1219.41 848.835 1379.76 848.835 1403.03 848.835 1426.31 855.33 1553.03 846.237 1576.31 842.34 1586.66 838.443 1593.12 828.051 1597 828.051 1597 828.051 1597 828.051 1597 841.041 1594.41 854.031 1593.12 867.021 1593.12 881.309 1593.12 894.299 1594.41 905.99 1597 905.99 1597 905.99 1597 905.99 1597 895.598 1594.41 893 1586.66 889.103 1576.31 880.01 1553.03 885.206 1426.31 885.206 1403.03 885.206 1379.76 903.392 1219.41 951.453 1219.41 978.732 1216.83 996.917 1278.9 986.526 1333.21 976.134 1387.52 950.154 1454.76 957.948 1498.72 964.443 1541.4 969.639 1560.79 950.154 1585.36 943.66 1591.83 937.165 1595.71 930.67 1597 943.66 1595.71 959.247 1584.07 968.34 1573.72 987.825 1550.45 987.825 1524.59 981.33 1480.62 974.835 1437.95 999.515 1370.71 1011.21 1316.4 1019 1275.02 1013.8 1234.93 994.319 1211.66Z" stroke="#333333" stroke-width="2.29167" stroke-linecap="round" stroke-linejoin="round" stroke-miterlimit="10" fill="none" fill-rule="evenodd"/><path d="M941.655 1221.76C952 1212.7 937.776 1192 883.465 1193.29 829.155 1194.59 802 1215.29 809.759 1237.29 809.759 1238.58 809.759 1238.58 809.759 1238.58 840.793 1281.28 848.552 1384.8 848.552 1402.91 848.552 1426.2 855.017 1553.01 845.965 1576.3 842.086 1586.65 838.207 1593.12 827.862 1597 840.793 1594.41 853.724 1593.12 866.655 1593.12 880.879 1593.12 893.81 1594.41 905.448 1597 895.103 1594.41 892.517 1586.65 888.638 1576.3 879.586 1553.01 884.758 1426.2 884.758 1402.91 884.758 1380.91 898.983 1239.88 941.655 1221.76Z" stroke="#333333" stroke-width="2.29167" stroke-linecap="round" stroke-linejoin="round" stroke-miterlimit="10" fill="none" fill-rule="evenodd"/></g></svg>