<svg width="263" height="428" xmlns="http://www.w3.org/2000/svg" xmlns:xlink="http://www.w3.org/1999/xlink" xml:space="preserve" overflow="hidden"><g transform="translate(-1904 -1790)"><path d="M1943.36 1836.58C1917.44 1834 1898 1895.94 1908.37 1950.14 1918.73 2004.34 1944.65 2071.44 1938.17 2115.31 1930.4 2157.9 1926.51 2177.25 1945.95 2201.77 1965.39 2225 2005.56 2217.26 2015.93 2192.74 2025 2169.51 2022.41 2043.05 2022.41 2019.82 2022.41 1996.59 1992.6 1836.58 1943.36 1836.58Z" fill="#E61B81" fill-rule="evenodd"/><path d="M1912.83 1949.88C1915.44 1968.01 1920.67 1986.14 1925.89 2004.26 1936.33 2044.4 1946.78 2085.84 1941.56 2114.32 1940.25 2122.09 1940.25 2122.09 1940.25 2122.09 1937.64 2142.81 1937.64 2157.05 1938.94 2170 1938.94 2170 1938.94 2170 1938.94 2170 1937.64 2157.05 1942.86 2142.81 1945.47 2123.39 1946.78 2115.62 1946.78 2115.62 1946.78 2115.62 1952 2084.54 1944.17 2043.11 1933.72 2002.97 1928.5 1984.84 1924.58 1966.71 1920.67 1949.88 1914.14 1911.04 1915.44 1864.42 1932.42 1845 1932.42 1845 1932.42 1845 1932.42 1845 1914.14 1865.72 1905 1911.04 1912.83 1949.88Z" fill="#FFFFFF" fill-rule="evenodd"/><path d="M2022.41 2019.46C2022.41 2000.07 2001.68 1895.37 1970.58 1854 1991.31 1903.12 2005.56 2007.83 2005.56 2023.34 2005.56 2047.9 2006.86 2140.98 1997.79 2165.54 1988.72 2187.51 1953.73 2196.56 1933 2175.88 1934.3 2184.93 1939.48 2192.68 1945.96 2201.73 1965.39 2225 2005.56 2217.24 2015.93 2192.68 2025 2169.41 2022.41 2042.73 2022.41 2019.46Z" fill="#DC026B" fill-rule="evenodd"/><path d="M2103.64 1836.58C2129.56 1834 2149 1895.94 2138.63 1950.14 2128.27 2004.34 2102.35 2071.44 2108.83 2115.31 2116.6 2157.9 2120.49 2177.25 2101.05 2201.77 2081.61 2225 2041.44 2217.26 2031.07 2192.74 2022 2169.51 2024.59 2043.05 2024.59 2019.82 2024.59 1996.59 2054.4 1836.58 2103.64 1836.58Z" fill="#E61B81" fill-rule="evenodd"/><path d="M2144.51 1827.8C2109.72 1791.51 1996.3 1763 1928 1842.05 1928 1842.05 1928 1842.05 1928 1842.05 1933.16 1838.17 1938.31 1835.57 1943.47 1835.57 1992.44 1835.57 2022.08 1996.28 2022.08 2019.6 2022.08 2042.93 2024.66 2169.94 2015.64 2193.26 2011.77 2203.63 2000.17 2210.11 1989.86 2214 1989.86 2214 1989.86 2214 1989.86 2214 2001.46 2211.41 2007.9 2210.11 2022.08 2210.11 2034.97 2210.11 2045.28 2211.41 2058.17 2214 2058.17 2214 2058.17 2214 2058.17 2214 2047.86 2211.41 2034.97 2203.63 2031.1 2193.26 2022.08 2169.94 2024.66 2042.93 2024.66 2019.6 2024.66 1996.28 2054.3 1835.57 2103.27 1835.57 2129.05 1832.98 2148.38 1895.19 2138.07 1949.62 2127.76 2004.05 2101.98 2071.44 2108.43 2115.51 2116.16 2158.27 2120.03 2177.71 2100.7 2202.34 2095.54 2208.82 2089.1 2212.7 2082.65 2214 2094.25 2212.7 2109.72 2201.04 2118.74 2190.67 2138.07 2167.34 2139.36 2141.43 2131.63 2097.36 2125.18 2054.59 2150.96 1987.2 2161.27 1932.77 2169 1891.3 2163.84 1851.13 2144.51 1827.8Z" fill="#D00053" fill-rule="evenodd"/><path d="M2093.67 1838.76C2104 1829.7 2088.51 1809 2035.58 1810.29 1981.36 1811.59 1962 1832.29 1969.75 1854.29 1971.04 1855.58 1971.04 1855.58 1971.04 1855.58 2000.73 1898.28 2021.38 2001.8 2021.38 2019.91 2021.38 2043.2 2023.96 2170.01 2014.93 2193.3 2011.05 2203.65 1999.44 2210.12 1989.11 2214 2000.73 2211.41 2007.18 2210.12 2021.38 2210.12 2034.29 2210.12 2044.62 2211.41 2057.53 2214 2047.2 2211.41 2034.29 2203.65 2030.42 2193.3 2021.38 2170.01 2023.96 2043.2 2023.96 2019.91 2023.96 1997.91 2051.07 1856.88 2093.67 1838.76Z" fill="#C10032" fill-rule="evenodd"/><path d="M2036.33 1819C2036.33 1820.3 2036.33 1820.3 2036.33 1820.3 2048.05 1820.3 2055.86 1824.19 2063.67 1825.48 2067.58 1826.78 2070.19 1828.08 2070.19 1830.67 2071.49 1833.26 2070.19 1838.45 2067.58 1842.34 2027.21 1889.03 2023.3 2009.63 2023.3 2018.7 2022 2020 2022 2020 2022 2020 2022 2010.92 2033.72 1890.32 2072.79 1844.94 2075.4 1841.05 2078 1834.56 2076.7 1828.08 2075.4 1825.48 2072.79 1821.59 2066.28 1820.3 2058.47 1819 2048.05 1819 2036.33 1819Z" fill="#FFFFFF" fill-rule="evenodd"/><path d="M2035.58 1810.29C1981.36 1811.59 1962 1832.29 1969.75 1854.29 1971.04 1855.58 1971.04 1855.58 1971.04 1855.58 2000.73 1898.28 2021.38 2001.8 2021.38 2019.91 2021.38 2043.2 2023.96 2170.01 2014.93 2193.3 2011.05 2203.65 1999.44 2210.12 1989.11 2214 2000.73 2211.41 2007.18 2210.12 2021.38 2210.12 2034.29 2210.12 2044.62 2211.41 2057.53 2214 2047.2 2211.41 2034.29 2203.65 2030.42 2193.3 2021.38 2170.01 2023.96 2043.2 2023.96 2019.91 2023.96 1997.91 2051.07 1856.88 2093.67 1838.76 2104 1829.7 2088.51 1809 2035.58 1810.29ZM2021.38 2198.47C2020.09 2198.47 2023.96 2198.47 2021.38 2198.47 2022.67 2198.47 2022.67 2198.47 2022.67 2197.18 2023.96 2192 2020.09 2181.65 2021.38 2168.71 2022.67 2181.65 2020.09 2192 2022.67 2197.18 2022.67 2198.47 2022.67 2198.47 2022.67 2198.47 2021.38 2198.47 2022.67 2198.47 2021.38 2198.47ZM2069.15 1843.94C2031.71 1889.22 2021.38 2008.27 2021.38 2019.91 2021.38 2019.91 2021.38 2036.73 2021.38 2041.91 2021.38 2036.73 2023.96 2019.91 2023.96 2019.91 2023.96 1999.21 2012.35 1896.99 1981.36 1850.41 1981.36 1850.41 1981.36 1850.41 1981.36 1850.41 1981.36 1849.11 1980.07 1847.82 1980.07 1846.52 1980.07 1845.23 1981.36 1842.64 1982.65 1841.35 1987.82 1832.29 1999.44 1821.94 2035.58 1821.94 2048.49 1820.65 2057.53 1821.94 2065.27 1823.23 2078.18 1825.82 2074.31 1838.76 2069.15 1843.94Z" fill="#B00014" fill-rule="evenodd"/><path d="M2038.6 2195C2030.87 2176.86 2034.73 2088.74 2036.02 2047.27 2037.31 2021.35 2037.31 2021.35 2037.31 2021.35 2037.31 2003.21 2052.78 1885.28 2085 1849 2085 1849 2085 1849 2085 1849 2050.2 1886.58 2029.58 2000.62 2029.58 2022.65 2029.58 2048.57 2029.58 2048.57 2029.58 2048.57 2027 2110.77 2030.87 2175.56 2038.6 2195" fill="#FFFFFF" fill-rule="evenodd"/><path d="M2129.35 1876C2134.53 1898 2135.82 1925.17 2130.65 1949.75 2128.06 1966.57 2122.88 1984.69 2119 2002.8 2107.35 2042.91 2097 2084.31 2102.18 2115.37 2108.65 2152.89 2109.94 2173.59 2097 2193 2097 2193 2097 2193 2097 2193 2109.94 2172.3 2112.53 2154.18 2106.06 2114.07 2102.18 2085.61 2112.53 2044.2 2122.88 2004.09 2128.06 1985.98 2131.94 1967.87 2135.82 1949.75 2141 1923.87 2134.53 1899.29 2129.35 1876Z" fill="#FFFFFF" fill-rule="evenodd"/><path d="M2123.82 1857C2132.84 1880.25 2127.68 1922.87 2122.53 1951.29 2119.95 1968.08 2114.79 1986.17 2109.63 2004.25 2099.32 2044.29 2089 2086.92 2094.16 2117.92 2094.16 2124.38 2094.16 2124.38 2094.16 2124.38 2100.61 2159.25 2107.05 2179.92 2094.16 2198 2094.16 2198 2094.16 2198 2094.16 2198 2109.63 2177.33 2109.63 2159.25 2104.47 2123.08 2103.18 2116.62 2103.18 2116.62 2103.18 2116.62 2098.03 2086.92 2108.34 2045.58 2118.66 2006.83 2123.82 1988.75 2128.97 1969.37 2131.55 1952.58 2138 1922.87 2134.13 1881.54 2123.82 1857Z" fill="#DC026B" fill-rule="evenodd"/><path d="M2131.6 1863C2142.11 1886.3 2143.43 1922.55 2138.17 1951.03 2135.54 1967.86 2130.29 1985.98 2125.03 2004.11 2114.51 2044.24 2104 2086.96 2109.26 2118.03 2109.26 2124.5 2109.26 2124.5 2109.26 2124.5 2115.83 2159.46 2117.14 2177.58 2104 2197 2104 2197 2104 2197 2104 2197 2119.77 2174.99 2125.03 2159.46 2119.77 2123.21 2118.46 2116.74 2118.46 2116.74 2118.46 2116.74 2113.2 2086.96 2121.09 2045.53 2131.6 2005.4 2135.54 1987.28 2140.8 1969.16 2144.74 1952.33 2150 1921.26 2142.11 1887.6 2131.6 1863Z" fill="#BD002F" fill-rule="evenodd"/><path d="M2125.9 2168.66C2123.3 2169.95 2120.7 2166.07 2120.7 2160.89 2115.5 2160.89 2115.5 2160.89 2115.5 2160.89 2115.5 2176.43 2111.6 2188.09 2101.2 2202.34 2096 2208.82 2089.5 2212.7 2083 2214 2094.7 2212.7 2110.3 2201.05 2119.4 2190.68 2128.5 2180.32 2133.7 2169.95 2135 2157 2133.7 2162.18 2129.8 2167.36 2125.9 2168.66Z" fill="#BD002F" fill-rule="evenodd"/><path d="M2018 1961.49C2018 1969.28 2024.36 1973.18 2028.18 1964.09 2032 1955 2026.91 1980.97 2026.91 1980.97 2026.91 1980.97 2023.09 2039.4 2023.09 2040.7 2023.09 2042 2021.82 2022.52 2021.82 2022.52" fill="#B00014" fill-rule="evenodd"/><path d="M1943.86 1837.08C1917.94 1834.5 1898.5 1896.44 1908.87 1950.64 1919.23 2004.84 1945.15 2071.94 1938.67 2115.81 1930.9 2158.4 1927.01 2177.75 1946.45 2202.27 1965.89 2225.5 2006.06 2217.76 2016.43 2193.24 2025.5 2170.01 2022.91 2043.55 2022.91 2020.32 2022.91 1997.09 1993.1 1837.08 1943.86 1837.08Z" stroke="#330000" stroke-width="2.86476" stroke-linecap="round" stroke-linejoin="round" stroke-miterlimit="10" fill="none" fill-rule="evenodd"/><path d="M2104.14 1837.08C2130.06 1834.5 2149.5 1896.44 2139.13 1950.64 2128.77 2004.84 2102.85 2071.94 2109.33 2115.81 2117.1 2158.4 2120.99 2177.75 2101.55 2202.27 2082.11 2225.5 2041.94 2217.76 2031.57 2193.24 2022.5 2170.01 2025.09 2043.55 2025.09 2020.32 2025.09 1997.09 2054.9 1837.08 2104.14 1837.08Z" stroke="#330000" stroke-width="2.86476" stroke-linecap="round" stroke-linejoin="round" stroke-miterlimit="10" fill="none" fill-rule="evenodd"/><path d="M2145.01 1828.3C2110.22 1792.01 1996.8 1763.5 1928.5 1842.55 1928.5 1842.55 1928.5 1842.55 1928.5 1842.55 1933.65 1838.67 1938.81 1836.07 1943.97 1836.07 1992.94 1836.07 2022.58 1996.78 2022.58 2020.1 2022.58 2043.43 2025.16 2170.44 2016.14 2193.76 2012.27 2204.13 2000.67 2210.61 1990.36 2214.5 1990.36 2214.5 1990.36 2214.5 1990.36 2214.5 2001.96 2211.91 2008.4 2210.61 2022.58 2210.61 2035.47 2210.61 2045.78 2211.91 2058.67 2214.5 2058.67 2214.5 2058.67 2214.5 2058.67 2214.5 2048.36 2211.91 2035.47 2204.13 2031.6 2193.76 2022.58 2170.44 2025.16 2043.43 2025.16 2020.1 2025.16 1996.78 2054.8 1836.07 2103.77 1836.07 2129.55 1833.48 2148.88 1895.69 2138.57 1950.12 2128.26 2004.55 2102.48 2071.94 2108.93 2116.01 2116.66 2158.77 2120.53 2178.21 2101.2 2202.84 2096.04 2209.32 2089.6 2213.2 2083.15 2214.5 2094.75 2213.2 2110.22 2201.54 2119.24 2191.17 2138.57 2167.84 2139.86 2141.93 2132.13 2097.86 2125.68 2055.09 2151.46 1987.7 2161.77 1933.27 2169.5 1891.8 2164.34 1851.63 2145.01 1828.3Z" stroke="#330000" stroke-width="2.86476" stroke-linecap="round" stroke-linejoin="round" stroke-miterlimit="10" fill="none" fill-rule="evenodd"/><path d="M2094.17 1839.26C2104.5 1830.2 2089.01 1809.5 2036.08 1810.79 1981.86 1812.09 1962.5 1832.79 1970.25 1854.79 1971.54 1856.08 1971.54 1856.08 1971.54 1856.08 2001.23 1898.78 2020.59 2002.3 2021.88 2020.41 2023.17 2050.17 2024.46 2170.51 2015.43 2193.8 2011.55 2204.15 1999.94 2210.62 1989.61 2214.5 2001.23 2211.91 2007.68 2210.62 2021.88 2210.62 2034.79 2210.62 2045.12 2211.91 2058.03 2214.5 2047.7 2211.91 2034.79 2204.15 2030.92 2193.8 2021.88 2170.51 2023.17 2048.88 2024.46 2020.41 2025.75 1998.41 2051.57 1857.38 2094.17 1839.26Z" stroke="#330000" stroke-width="2.86476" stroke-linecap="round" stroke-linejoin="round" stroke-miterlimit="10" fill="none" fill-rule="evenodd"/></g></svg>