<svg width="331" height="411" xmlns="http://www.w3.org/2000/svg" xmlns:xlink="http://www.w3.org/1999/xlink" xml:space="preserve" overflow="hidden"><g transform="translate(-890 -533)"><path d="M934 535.54C934 535.54 934 535.54 934 535.54 960.889 531.962 985.537 555.812 1001.22 586.817 1013.55 609.474 1024.75 640.479 1038.19 688.178 1040.44 695.333 1038.19 700.103 1033.71 703.681 1025.87 710.836 1021.39 721.568 1021.39 732.3 1021.39 748.995 1032.59 763.305 1047.16 768.075 1052.76 770.46 1055 772.845 1055 780 1055 738.263 1055 627.361 1055 622.591 1055 583.239 1000.1 526 934 535.54Z" fill="#A3052B" fill-rule="evenodd"/><path d="M1065.78 768.075C1080.22 763.305 1090.22 748.995 1090.22 732.3 1090.22 721.568 1085.78 710.836 1079.11 703.681 1074.67 700.103 1072.44 695.333 1073.56 688.178 1088 640.479 1099.11 609.474 1110.22 586.817 1126.89 555.812 1151.33 531.962 1178 535.54 1178 535.54 1178 535.54 1178 535.54 1112.44 526 1058 583.239 1058 622.591 1058 628.554 1058 707.258 1058 707.258 1058 780 1058 780 1058 780 1058 772.845 1060.22 770.46 1065.78 768.075Z" fill="#A3052B" fill-rule="evenodd"/><path d="M1057.63 880C1057.63 880 1057.63 858.471 1057.63 819 1055.37 820.196 1055.37 820.196 1055.37 820.196 1055.37 859.667 1055.37 880 1055.37 880 1055.37 909.902 1046.33 935.019 1026 941 1026 941 1026 941 1026 941 1035.04 938.608 1046.33 936.216 1056.5 936.216 1065.54 936.216 1077.96 938.608 1087 941 1087 941 1087 941 1087 941 1066.67 935.019 1057.63 909.902 1057.63 880Z" fill="#A3052B" fill-rule="evenodd"/><path d="M1047.15 767.842C1032.58 763.076 1021.37 748.777 1021.37 732.096 1021.37 721.372 1025.85 710.648 1033.7 703.499 1038.18 699.924 1040.43 695.158 1038.18 688.008 1024.73 640.347 1013.52 609.366 1001.19 586.727 981.013 547.406 946.261 520 912.63 545.023 879 571.237 890.21 616.516 918.236 661.794 946.261 707.073 972.045 808.355 977.65 870.315 983.255 931.084 986.618 943 1014.64 943 1042.67 943 1055 915.594 1055 879.848 1055 879.848 1055 786.907 1055 779.758 1055 772.608 1052.76 770.225 1047.15 767.842Z" fill="#E16263" fill-rule="evenodd"/><path d="M1065.81 767.842C1080.31 763.076 1090.35 748.777 1090.35 732.096 1090.35 721.372 1085.88 710.648 1079.19 703.499 1074.73 699.924 1072.5 695.158 1073.62 688.008 1088.12 640.347 1099.27 609.366 1110.42 586.727 1131.62 547.406 1166.19 520 1199.65 545.023 1232 571.237 1220.85 616.516 1194.08 661.794 1166.19 707.073 1140.54 808.355 1134.96 870.315 1129.38 931.084 1126.04 943 1098.15 943 1070.27 943 1058 915.594 1058 879.848 1058 879.848 1058 786.907 1058 779.758 1058 772.608 1060.23 770.225 1065.81 767.842Z" fill="#E16263" fill-rule="evenodd"/><path d="M1002.52 936.42C990.211 928.066 995.807 904.197 992.449 866.006 986.853 803.947 971.183 706.083 943.202 660.732 915.22 615.381 900.67 550.935 942.083 541.387 936.486 539 925.294 542.58 918.578 548.548 885 573.61 896.193 616.574 924.174 661.926 952.156 707.277 977.899 808.72 983.495 870.78 987.972 918.518 989.092 932.839 1002.52 936.42 1005.88 937.613 1007 940 1002.52 936.42Z" fill="#F2BAAC" fill-rule="evenodd"/><path d="M1040.86 771.655C1026.22 766.891 1016.08 749.027 1016.08 732.355 1016.08 721.636 1020.59 710.918 1027.34 703.773 1032.98 700.2 1034.1 695.436 1032.98 688.291 1018.33 640.655 1008.2 609.691 996.931 587.064 985.667 565.627 969.896 550.146 953 543 963.138 550.146 972.149 556.1 983.414 578.727 993.552 598.973 998.057 619.218 1010.45 662.091 1014.95 675.191 1021.71 690.673 1014.95 702.582 1010.45 710.918 1005.94 718.064 1005.94 732.355 1005.94 758.555 1014.95 771.655 1026.22 779.991 1035.23 785.946 1037.48 801.427 1038.61 814.527 1039.74 849.064 1044.24 878.836 1044.24 878.836 1044.24 902.655 1041.99 924.091 1025.09 936 1041.99 927.664 1051 907.418 1051 880.027 1051 880.027 1048.75 791.9 1048.75 784.755 1048.75 777.609 1046.49 774.036 1040.86 771.655Z" fill="#C30737" fill-rule="evenodd"/><path d="M964 765C953.843 724.648 939.171 685.483 924.5 661.747 896.286 616.648 885 573.923 918.857 549 906.443 558.494 898.543 596.472 914.343 629.703 929.014 662.934 948.2 697.352 964 765Z" fill="#FFFFFF" fill-rule="evenodd"/><path d="M1110.48 936.42C1122.79 928.066 1117.19 904.197 1120.55 866.006 1126.15 803.947 1141.82 706.083 1169.8 660.732 1197.78 615.381 1213.45 550.935 1170.92 541.387 1176.51 539 1188.83 542.58 1195.54 548.548 1228 573.61 1216.81 616.574 1188.83 661.926 1160.84 707.277 1135.1 808.72 1129.5 870.78 1125.03 918.518 1123.91 932.839 1110.48 936.42 1107.12 937.613 1106 940 1110.48 936.42Z" fill="#C30737" fill-rule="evenodd"/><path d="M1072.02 771.655C1086.69 766.891 1096.84 749.027 1096.84 732.355 1096.84 721.636 1092.33 710.918 1085.56 703.773 1081.05 700.2 1078.79 695.436 1079.92 688.291 1094.58 640.655 1104.73 609.691 1116.01 587.064 1128.42 565.627 1143.08 550.146 1160 543 1149.85 550.146 1141.95 556.1 1129.55 578.727 1119.4 598.973 1116.01 619.218 1102.48 662.091 1099.09 675.191 1091.2 690.673 1097.97 702.582 1102.48 710.918 1106.99 718.064 1106.99 732.355 1106.99 758.555 1099.09 771.655 1087.81 779.991 1078.79 785.946 1075.41 801.427 1075.41 814.527 1074.28 849.064 1069.77 878.836 1069.77 878.836 1069.77 902.655 1072.02 924.091 1087.81 936 1070.9 927.664 1063 907.418 1063 880.027 1063 880.027 1064.13 791.9 1064.13 784.755 1064.13 777.609 1066.38 774.036 1072.02 771.655Z" fill="#F2BAAC" fill-rule="evenodd"/><path d="M1149 765C1159.16 724.648 1173.83 685.483 1188.5 661.747 1216.71 616.648 1228 573.923 1195.27 549 1206.56 558.494 1214.46 596.472 1198.66 629.703 1183.99 662.934 1164.8 697.352 1149 765Z" fill="#A1042D" fill-rule="evenodd"/><path d="M1051 880C1051 880 1048.77 791.751 1048.77 784.596 1048.77 777.441 1046.54 773.863 1040.97 771.478 1026.49 766.708 1016.46 748.82 1016.46 732.124 1016.46 721.391 1020.91 710.658 1027.6 703.503 1033.17 699.925 1034.29 695.155 1033.17 688 1033.17 691.577 1030.94 696.348 1024.26 704.695 1016.46 713.043 1012 720.199 1012 733.317 1012 746.435 1019.8 765.515 1030.94 771.478 1042.09 777.441 1046.54 782.211 1046.54 791.751 1047.66 801.292 1051 880 1051 880Z" fill="#A1042D" fill-rule="evenodd"/><path d="M1063 880C1063 880 1064.14 792 1064.14 784.865 1064.14 777.73 1066.41 774.162 1072.08 771.784 1086.84 767.027 1097.05 749.189 1097.05 732.541 1097.05 721.838 1092.51 711.135 1085.7 704 1100.46 718.27 1105 743.243 1097.05 758.703 1087.97 774.162 1077.76 775.351 1072.08 778.919 1067.54 782.487 1067.54 792 1066.41 805.081 1066.41 819.351 1063 880 1063 880Z" fill="#FFFFFF" fill-rule="evenodd"/><path d="M1147 549C1133.56 557.333 1114.52 577.571 1091 649 1102.2 620.429 1127.96 564.476 1147 549Z" fill="#FFFFFF" fill-rule="evenodd"/><path d="M1038.73 646.505C1029.78 603.596 999.566 545.192 968.238 544 966 544 966 544 966 544 980.545 553.536 992.853 569.03 1001.8 586.909 1014.11 609.556 1025.3 640.546 1038.73 688.222 1040.97 695.374 1038.73 700.141 1034.25 703.717 1026.42 710.869 1021.94 721.596 1021.94 732.323 1021.94 749.01 1033.13 763.313 1047.68 768.081 1053.27 770.465 1055.51 772.849 1055.51 780 1055.51 692.99 1055.51 692.99 1055.51 692.99 1043.2 684.647 1040.97 662 1038.73 646.505ZM1110.34 586.909C1114.81 578.566 1120.41 570.222 1126 563.071 1123.76 564.263 1123.76 564.263 1123.76 564.263 1109.22 576.182 1095.79 582.142 1075.65 652.465 1063.34 690.606 1057.75 694.182 1057.75 694.182 1057.75 702.525 1057.75 707.293 1057.75 707.293 1057.75 780 1057.75 780 1057.75 780 1057.75 772.849 1059.99 770.465 1065.58 768.081 1080.13 763.313 1090.2 749.01 1090.2 732.323 1090.2 721.596 1085.72 710.869 1079.01 703.717 1076.77 702.525 1075.65 700.141 1074.53 698.95 1074.53 698.95 1074.53 698.95 1073.41 698.95 1073.41 697.758 1073.41 697.758 1072.29 697.758 1073.41 696.566 1073.41 696.566 1073.41 696.566 1073.41 694.182 1073.41 691.798 1073.41 688.222 1087.96 640.546 1099.15 609.556 1110.34 586.909Z" fill="#840923" fill-rule="evenodd"/><path d="M1118 549C1100.15 556.118 1067.81 585.774 1062.23 611.872 1060 620.176 1061.12 641.529 1061.12 670 1062.23 651.02 1062.23 623.735 1074.5 598.823 1087.88 572.725 1118 549 1118 549Z" fill="#D0043B" fill-rule="evenodd"/><path d="M1047.15 767.842C1032.58 763.076 1021.37 748.777 1021.37 732.096 1021.37 721.372 1025.85 710.648 1033.7 703.499 1038.18 699.924 1040.43 695.158 1038.18 688.008 1024.73 640.347 1013.52 609.366 1001.19 586.727 981.013 547.406 946.261 520 912.63 545.023 879 571.237 890.21 616.516 918.236 661.794 946.261 707.073 972.045 808.355 977.65 870.315 983.255 931.084 986.618 943 1014.64 943 1042.67 943 1055 915.594 1055 879.848 1055 879.848 1055 786.907 1055 779.758 1055 772.608 1052.76 770.225 1047.15 767.842Z" stroke="#000000" stroke-width="2.29167" stroke-linecap="round" stroke-linejoin="round" stroke-miterlimit="10" fill="none" fill-rule="evenodd"/><path d="M934 535.54C934 535.54 934 535.54 934 535.54 960.889 531.962 985.537 555.812 1001.22 586.817 1013.55 609.474 1024.75 640.479 1038.19 688.178 1040.44 695.333 1038.19 700.103 1033.71 703.681 1025.87 710.836 1021.39 721.568 1021.39 732.3 1021.39 748.995 1032.59 763.305 1047.16 768.075 1052.76 770.46 1055 772.845 1055 780 1055 738.263 1055 627.361 1055 622.591 1055 583.239 1000.1 526 934 535.54Z" stroke="#000000" stroke-width="2.29167" stroke-linecap="round" stroke-linejoin="round" stroke-miterlimit="10" fill="none" fill-rule="evenodd"/><path d="M1065.81 767.842C1080.31 763.076 1090.35 748.777 1090.35 732.096 1090.35 721.372 1085.88 710.648 1079.19 703.499 1074.73 699.924 1072.5 695.158 1073.62 688.008 1088.12 640.347 1099.27 609.366 1110.42 586.727 1131.62 547.406 1166.19 520 1199.65 545.023 1232 571.237 1220.85 616.516 1194.08 661.794 1166.19 707.073 1140.54 808.355 1134.96 870.315 1129.38 931.084 1126.04 943 1098.15 943 1070.27 943 1058 915.594 1058 879.848 1058 879.848 1058 786.907 1058 779.758 1058 772.608 1060.23 770.225 1065.81 767.842Z" stroke="#000000" stroke-width="2.29167" stroke-linecap="round" stroke-linejoin="round" stroke-miterlimit="10" fill="none" fill-rule="evenodd"/><path d="M1065.78 768.075C1080.22 763.305 1090.22 748.995 1090.22 732.3 1090.22 721.568 1085.78 710.836 1079.11 703.681 1074.67 700.103 1072.44 695.333 1073.56 688.178 1088 640.479 1099.11 609.474 1110.22 586.817 1126.89 555.812 1151.33 531.962 1178 535.54 1178 535.54 1178 535.54 1178 535.54 1112.44 526 1058 583.239 1058 622.591 1058 628.554 1058 707.258 1058 707.258 1058 780 1058 780 1058 780 1058 772.845 1060.22 770.46 1065.78 768.075Z" stroke="#000000" stroke-width="2.29167" stroke-linecap="round" stroke-linejoin="round" stroke-miterlimit="10" fill="none" fill-rule="evenodd"/><path d="M1057.63 880C1057.63 880 1057.63 858.471 1057.63 819 1055.37 820.196 1055.37 820.196 1055.37 820.196 1055.37 859.667 1055.37 880 1055.37 880 1055.37 909.902 1046.33 935.019 1026 941 1026 941 1026 941 1026 941 1035.04 938.608 1046.33 936.216 1056.5 936.216 1065.54 936.216 1077.96 938.608 1087 941 1087 941 1087 941 1087 941 1066.67 935.019 1057.63 909.902 1057.63 880Z" stroke="#000000" stroke-width="2.29167" stroke-linecap="round" stroke-linejoin="round" stroke-miterlimit="10" fill="none" fill-rule="evenodd"/></g></svg>