<svg width="263" height="439" xmlns="http://www.w3.org/2000/svg" xmlns:xlink="http://www.w3.org/1999/xlink" xml:space="preserve" overflow="hidden"><g transform="translate(-2436 -1173)"><path d="M2484.65 1605C2565 1605 2532.6 1439.81 2505.38 1353.34 2484.65 1288.82 2497.61 1223 2457.43 1223 2456.14 1223 2456.14 1223 2456.14 1223 2415.96 1223 2450.95 1286.24 2462.62 1353.34 2479.46 1454.01 2403 1605 2483.35 1605L2484.65 1605Z" fill="#71D584" fill-rule="evenodd"/><path d="M2491.5 1608.5 2492.5 1609.5" stroke="#73FFBA" stroke-width="5.15643" stroke-miterlimit="8" fill="none" fill-rule="evenodd"/><path d="M2453.21 1299.01C2458.31 1315.86 2463.41 1336.59 2467.24 1357.32 2473.62 1396.19 2465.97 1444.13 2459.59 1485.6 2453.21 1519.28 2448.1 1551.68 2450.66 1575 2450.66 1575 2450.66 1575 2450.66 1575 2448.1 1552.97 2460.86 1519.28 2465.97 1485.6 2472.34 1442.84 2480 1394.9 2473.62 1354.73 2469.79 1335.29 2464.69 1314.56 2459.59 1296.42 2453.21 1274.39 2443 1254.96 2443 1242 2443 1242 2443 1242 2443 1242 2443 1256.25 2446.83 1276.98 2453.21 1299.01Z" fill="#FFFFFF" fill-rule="evenodd"/><path d="M2505.41 1353.15C2485.98 1292.45 2495.05 1230.46 2463.95 1224 2488.57 1253.71 2480.8 1301.49 2495.05 1346.69 2522.25 1431.94 2545.57 1586.92 2465.25 1586.92 2465.25 1586.92 2465.25 1586.92 2465.25 1586.92 2458.77 1586.92 2454.89 1586.92 2451 1585.63 2456.18 1597.25 2465.25 1605 2483.39 1605 2484.68 1605 2484.68 1605 2484.68 1605 2565 1605 2532.61 1439.68 2505.41 1353.15Z" fill="#70BC68" fill-rule="evenodd"/><path d="M2622.35 1605C2542 1605 2573.1 1439.81 2601.62 1353.34 2622.35 1288.82 2609.39 1223 2649.57 1223 2650.86 1223 2650.86 1223 2650.86 1223 2691.04 1223 2656.05 1286.24 2644.38 1353.34 2627.54 1454.01 2704 1605 2623.65 1605L2622.35 1605Z" fill="#71D584" fill-rule="evenodd"/><path d="M2696.54 1221.81C2703 1181.75 2617.68 1174 2584.07 1174 2494.88 1174 2441.88 1201.14 2438 1236.02 2439.29 1228.27 2444.46 1223.1 2456.1 1223.1 2457.39 1223.1 2457.39 1223.1 2457.39 1223.1 2497.46 1223.1 2484.54 1289 2505.22 1353.61 2531.07 1433.73 2559.51 1581.03 2500.05 1603 2500.05 1603 2500.05 1603 2500.05 1603 2519.44 1595.25 2582.78 1592.66 2602.17 1600.42 2549.17 1574.57 2576.32 1432.43 2602.17 1353.61 2622.85 1289 2609.93 1223.1 2650 1223.1 2651.29 1223.1 2651.29 1223.1 2651.29 1223.1 2691.37 1223.1 2656.46 1286.42 2644.83 1353.61 2629.32 1444.06 2688.78 1573.28 2644.83 1600.42 2664.22 1592.66 2684.9 1561.65 2687.49 1544.85 2695.24 1494.46 2660.34 1397.55 2671.98 1326.48 2679.73 1286.42 2695.24 1246.36 2696.54 1221.81Z" fill="#70C472" fill-rule="evenodd"/><path d="M2481.78 1242C2474 1220.14 2515.49 1199.57 2569.94 1198.29 2624.4 1197 2662 1208.57 2637.37 1225.29" fill="#305728" fill-rule="evenodd"/><path d="M2570.15 1198.29C2518.4 1199.59 2477 1217.69 2480.88 1238.38 2492.52 1261.65 2491.23 1308.2 2505.46 1353.45 2531.34 1433.62 2559.8 1581.02 2500.29 1603 2500.29 1603 2500.29 1603 2500.29 1603 2519.69 1595.24 2583.08 1592.66 2602.49 1600.41 2549.45 1574.55 2576.62 1432.32 2602.49 1353.45 2620.6 1296.56 2612.84 1239.67 2637.42 1225.45 2637.42 1225.45 2637.42 1225.45 2637.42 1225.45 2662 1208.64 2624.48 1197 2570.15 1198.29Z" fill="#6FA44F" fill-rule="evenodd"/><path d="M2567 1208.31C2601.8 1210.93 2601.8 1210.93 2601.8 1210.93 2609.53 1212.25 2612.11 1213.56 2614.69 1217.49 2615.98 1220.11 2614.69 1224.05 2612.11 1229.3 2604.38 1242.41 2606.96 1263.39 2603.09 1287 2603.09 1287 2603.09 1287 2603.09 1287 2605.67 1264.7 2610.82 1245.03 2618.56 1231.92 2619.84 1229.3 2625 1220.11 2621.13 1213.56 2618.56 1209.62 2613.4 1207 2605.67 1207 2604.38 1207 2569.58 1209.62 2569.58 1209.62L2567 1208.31Z" fill="#FFFFFF" fill-rule="evenodd"/><path d="M2570.15 1198.29C2518.4 1199.59 2477 1217.69 2480.88 1238.38 2492.52 1261.65 2491.23 1308.2 2505.46 1353.45 2531.34 1433.62 2559.8 1581.02 2500.29 1603 2500.29 1603 2500.29 1603 2500.29 1603 2519.69 1595.24 2583.08 1592.66 2602.49 1600.41 2549.45 1574.55 2576.62 1432.32 2602.49 1353.45 2620.6 1296.56 2612.84 1239.67 2637.42 1225.45 2637.42 1225.45 2637.42 1225.45 2637.42 1225.45 2662 1208.64 2624.48 1197 2570.15 1198.29ZM2572.73 1583.6C2563.68 1582.31 2549.45 1581.02 2535.22 1584.9 2549.45 1581.02 2552.03 1555.16 2553.33 1551.28 2554.62 1555.16 2561.09 1582.31 2572.73 1583.6ZM2618.01 1230.62C2610.25 1243.55 2607.66 1262.94 2603.78 1286.22 2601.2 1305.61 2597.31 1328.89 2590.85 1350.87 2588.26 1356.04 2583.08 1375.43 2576.62 1401.29 2568.85 1423.27 2544.27 1425.86 2535.22 1405.17 2524.87 1381.9 2518.4 1356.04 2517.1 1350.87 2509.34 1328.89 2506.76 1305.61 2504.17 1286.22 2500.29 1266.82 2497.7 1248.72 2492.52 1235.79 2492.52 1235.79 2492.52 1235.79 2492.52 1234.5 2492.52 1233.2 2492.52 1230.62 2495.11 1228.03 2501.58 1220.27 2535.22 1211.22 2570.15 1209.93 2579.2 1209.93 2599.9 1209.93 2606.37 1209.93 2625.78 1209.93 2620.6 1224.15 2618.01 1230.62Z" fill="#6E732B" fill-rule="evenodd"/><path d="M2666.77 1298.78C2661.54 1315.59 2655 1336.29 2652.38 1356.98 2645.85 1395.77 2656.31 1450.09 2664.15 1491.47 2669.38 1525.1 2662.85 1558.72 2660.23 1582 2660.23 1582 2660.23 1582 2660.23 1582 2662.85 1560.02 2658.92 1518.63 2652.38 1485.01 2645.85 1442.33 2638 1394.48 2644.54 1354.39 2648.46 1334.99 2655 1314.3 2658.92 1296.2 2665.46 1274.21 2672 1250.93 2672 1238 2672 1238 2672 1238 2672 1238 2672 1252.23 2672 1276.8 2666.77 1298.78Z" fill="#6F9B46" fill-rule="evenodd"/><path d="M2619.53 1287.31C2615.71 1308.02 2613.16 1330.03 2605.51 1353.33 2583.84 1424.53 2566 1525.51 2587.67 1576 2587.67 1576 2587.67 1576 2587.67 1576 2566 1522.92 2592.76 1421.95 2610.61 1364.98 2616.98 1341.68 2620.8 1311.91 2624.63 1291.19 2627.18 1273.07 2625.9 1252.36 2631 1242 2631 1242 2631 1242 2631 1242 2625.9 1253.65 2622.08 1267.89 2619.53 1287.31Z" fill="#FFFFFF" fill-rule="evenodd"/><path d="M2686.74 1513.31C2686.74 1522.47 2684.21 1526.4 2677.88 1531.63 2670.29 1539.49 2665.24 1525.09 2665.24 1512 2657.65 1519.85 2657.65 1519.85 2657.65 1519.85 2662.71 1559.12 2662.71 1589.22 2645 1601 2663.97 1593.15 2684.21 1561.74 2686.74 1544.72 2688 1535.56 2688 1525.09 2686.74 1513.31Z" fill="#6F9B46" fill-rule="evenodd"/><path d="M2665 1242C2665 1253.66 2658.46 1271.8 2651.92 1297.72 2646.69 1315.86 2641.46 1336.59 2637.54 1356.02 2631 1396.19 2638.85 1444.13 2645.38 1485.6 2646.69 1495.96 2646.69 1495.96 2646.69 1495.96 2651.92 1525.76 2658.46 1554.27 2655.85 1575 2655.85 1575 2655.85 1575 2655.85 1575 2659.77 1554.27 2657.15 1525.76 2651.92 1495.96 2650.62 1485.6 2650.62 1485.6 2650.62 1485.6 2642.77 1444.13 2634.92 1396.19 2642.77 1357.32 2645.38 1336.59 2651.92 1317.15 2655.85 1299.01 2663.69 1273.1 2665 1254.96 2665 1242Z" fill="#FFFFFF" fill-rule="evenodd"/><path d="M2653.6 1299.01C2648.4 1315.86 2643.2 1336.59 2639.3 1357.32 2632.8 1396.19 2640.6 1444.13 2647.1 1485.6 2652.3 1519.28 2658.8 1551.68 2654.9 1575 2654.9 1575 2654.9 1575 2654.9 1575 2658.8 1552.97 2645.8 1519.28 2640.6 1485.6 2632.8 1442.84 2625 1394.9 2632.8 1354.73 2635.4 1335.29 2641.9 1314.56 2645.8 1296.42 2652.3 1274.39 2664 1254.96 2664 1242 2664 1242 2664 1242 2664 1242 2664 1256.25 2658.8 1276.98 2653.6 1299.01Z" fill="#70BC68" fill-rule="evenodd"/><path d="M2485.15 1605.5C2565.5 1605.5 2533.1 1440.31 2505.88 1353.84 2485.15 1289.32 2498.11 1223.5 2457.93 1223.5 2456.64 1223.5 2456.64 1223.5 2456.64 1223.5 2416.46 1223.5 2451.45 1286.74 2463.12 1353.84 2479.96 1454.51 2403.5 1605.5 2483.85 1605.5L2485.15 1605.5Z" stroke="#003300" stroke-width="2.86476" stroke-linecap="round" stroke-linejoin="round" stroke-miterlimit="10" fill="none" fill-rule="evenodd"/><path d="M2622.85 1605.5C2542.5 1605.5 2573.6 1440.31 2602.12 1353.84 2622.85 1289.32 2609.89 1223.5 2650.07 1223.5 2651.36 1223.5 2651.36 1223.5 2651.36 1223.5 2691.54 1223.5 2656.55 1286.74 2644.88 1353.84 2628.04 1454.51 2704.5 1605.5 2624.15 1605.5L2622.85 1605.5Z" stroke="#003300" stroke-width="2.86476" stroke-linecap="round" stroke-linejoin="round" stroke-miterlimit="10" fill="none" fill-rule="evenodd"/><path d="M2697.04 1222.31C2703.5 1182.25 2618.18 1174.5 2584.57 1174.5 2495.38 1174.5 2442.38 1201.64 2438.5 1236.52 2439.79 1228.77 2444.96 1223.6 2456.6 1223.6 2457.89 1223.6 2457.89 1223.6 2457.89 1223.6 2497.96 1223.6 2485.04 1289.5 2505.72 1354.11 2531.57 1434.23 2560.01 1581.53 2500.55 1603.5 2500.55 1603.5 2500.55 1603.5 2500.55 1603.5 2519.94 1595.75 2583.28 1593.16 2602.67 1600.92 2549.67 1575.07 2576.82 1432.93 2602.67 1354.11 2623.35 1289.5 2610.43 1223.6 2650.5 1223.6 2651.79 1223.6 2651.79 1223.6 2651.79 1223.6 2691.87 1223.6 2656.96 1286.92 2645.33 1354.11 2629.82 1444.56 2689.28 1573.78 2645.33 1600.92 2664.72 1593.16 2685.4 1562.15 2687.99 1545.35 2695.74 1494.96 2660.84 1398.05 2672.48 1326.98 2680.23 1286.92 2695.74 1246.86 2697.04 1222.31Z" stroke="#003300" stroke-width="2.86476" stroke-linecap="round" stroke-linejoin="round" stroke-miterlimit="10" fill="none" fill-rule="evenodd"/><path d="M2482.28 1242.5C2474.5 1220.64 2515.99 1200.07 2570.44 1198.79 2624.9 1197.5 2662.5 1209.07 2637.87 1225.79" stroke="#003300" stroke-width="2.86476" stroke-linecap="round" stroke-linejoin="round" stroke-miterlimit="10" fill="none" fill-rule="evenodd"/><path d="M2570.65 1198.79C2518.9 1200.09 2477.5 1218.19 2481.38 1238.88 2493.02 1262.15 2491.73 1308.7 2505.96 1353.95 2531.84 1434.12 2560.3 1581.52 2500.79 1603.5 2500.79 1603.5 2500.79 1603.5 2500.79 1603.5 2520.19 1595.74 2583.58 1593.16 2602.99 1600.91 2549.95 1575.05 2577.12 1432.82 2602.99 1353.95 2621.1 1297.06 2613.34 1240.17 2637.92 1225.95 2637.92 1225.95 2637.92 1225.95 2637.92 1225.95 2662.5 1209.14 2624.98 1197.5 2570.65 1198.79Z" stroke="#003300" stroke-width="2.86476" stroke-linecap="round" stroke-linejoin="round" stroke-miterlimit="10" fill="none" fill-rule="evenodd"/></g></svg>