<svg width="232" height="407" xmlns="http://www.w3.org/2000/svg" xmlns:xlink="http://www.w3.org/1999/xlink" xml:space="preserve" overflow="hidden"><g transform="translate(-1408 -1231)"><path d="M1457 1631C1537 1631 1506.03 1465.81 1478.94 1379.34 1458.29 1314.82 1469.9 1249 1429.9 1249 1428.61 1249 1428.61 1249 1428.61 1249 1388.61 1249 1423.45 1312.24 1435.06 1379.34 1453.13 1480.01 1377 1631 1457 1631Z" fill="#FFBC84" fill-rule="evenodd"/><path d="M1590.86 1631C1511 1631 1543.2 1465.81 1570.25 1379.34 1590.86 1314.82 1577.98 1249 1617.9 1249 1619.19 1249 1619.19 1249 1619.19 1249 1659.12 1249 1624.34 1312.24 1612.75 1379.34 1596.01 1480.01 1672 1631 1592.14 1631L1590.86 1631Z" fill="#FFBC84" fill-rule="evenodd"/><path d="M1527.29 1232C1479.41 1232 1426.35 1241.04 1416 1252.65 1418.59 1250.07 1423.76 1248.78 1428.94 1248.78 1430.24 1248.78 1430.24 1248.78 1430.24 1248.78 1470.35 1248.78 1458.71 1314.61 1479.41 1379.14 1506.59 1465.62 1537.65 1630.84 1457.41 1630.84 1457.41 1630.84 1457.41 1630.84 1457.41 1630.84 1454.82 1630.84 1452.24 1630.84 1449.65 1629.55 1466.47 1634.71 1489.76 1636 1513.06 1636 1538.94 1636 1582.94 1634.71 1601.06 1629.55 1598.47 1630.84 1594.59 1630.84 1592 1630.84 1590.71 1630.84 1590.71 1630.84 1590.71 1630.84 1510.47 1630.84 1542.82 1465.62 1570 1379.14 1590.71 1314.61 1577.76 1248.78 1617.88 1248.78 1619.18 1248.78 1619.18 1248.78 1619.18 1248.78 1628.24 1248.78 1633.41 1251.36 1636 1256.52 1629.53 1242.33 1579.06 1232 1527.29 1232Z" fill="#FF8B4F" fill-rule="evenodd"/><path d="M1527.29 1232C1479.41 1232 1426.35 1241.04 1416 1252.65 1418.59 1250.07 1423.76 1248.78 1428.94 1248.78 1430.24 1248.78 1430.24 1248.78 1430.24 1248.78 1470.35 1248.78 1458.71 1314.61 1479.41 1379.14 1506.59 1465.62 1537.65 1630.84 1457.41 1630.84 1457.41 1630.84 1457.41 1630.84 1457.41 1630.84 1454.82 1630.84 1452.24 1630.84 1449.65 1629.55 1466.47 1634.71 1489.76 1636 1513.06 1636 1538.94 1636 1582.94 1634.71 1601.06 1629.55 1598.47 1630.84 1594.59 1630.84 1592 1630.84 1590.71 1630.84 1590.71 1630.84 1590.71 1630.84 1510.47 1630.84 1542.82 1465.62 1570 1379.14 1590.71 1314.61 1577.76 1248.78 1617.88 1248.78 1619.18 1248.78 1619.18 1248.78 1619.18 1248.78 1628.24 1248.78 1633.41 1251.36 1636 1256.52 1629.53 1242.33 1579.06 1232 1527.29 1232ZM1538.94 1607.6C1541.53 1617.93 1548 1621.8 1549.29 1623.09 1544.12 1623.09 1518.24 1624.38 1513.06 1624.38 1507.88 1624.38 1504 1624.38 1498.82 1624.38 1500.12 1623.09 1505.29 1617.93 1509.18 1607.6 1518.24 1574.04 1528.59 1574.04 1538.94 1607.6ZM1584.24 1259.11C1577.76 1272.01 1575.18 1291.37 1571.29 1312.03 1568.71 1331.39 1566.12 1354.62 1558.35 1376.56 1557.06 1383.02 1549.29 1406.25 1541.53 1438.52 1540.24 1448.84 1509.18 1448.84 1506.59 1438.52 1500.12 1407.54 1492.35 1383.02 1489.76 1376.56 1483.29 1354.62 1479.41 1331.39 1476.82 1312.03 1474.24 1292.66 1471.65 1274.59 1465.18 1260.4 1462.59 1255.23 1491.06 1246.2 1514.35 1246.2 1537.65 1246.2 1586.82 1255.23 1584.24 1259.11Z" fill="#FF5A2B" fill-rule="evenodd"/><path d="M1426.4 1324.84C1431.6 1341.63 1438.1 1362.3 1440.7 1381.68 1447.2 1421.73 1439.4 1469.53 1432.9 1510.86 1427.7 1544.45 1421.2 1576.75 1425.1 1600 1425.1 1600 1425.1 1600 1425.1 1600 1421.2 1578.04 1434.2 1544.45 1440.7 1510.86 1447.2 1468.23 1455 1420.44 1448.5 1380.39 1444.6 1359.72 1439.4 1340.34 1434.2 1322.26 1427.7 1300.3 1416 1280.92 1416 1268 1416 1268 1416 1268 1416 1268 1416 1282.21 1421.2 1302.88 1426.4 1324.84Z" fill="#FFFFFF" fill-rule="evenodd"/><path d="M1479.22 1379.34C1459.95 1318.69 1468.94 1256.74 1436.84 1249 1462.52 1278.68 1453.53 1327.72 1467.66 1371.6 1495.91 1458.07 1519.02 1612.93 1439.41 1612.93 1438.13 1612.93 1438.13 1612.93 1438.13 1612.93 1432.99 1612.93 1427.85 1612.93 1424 1611.64 1429.14 1623.26 1439.41 1631 1457.39 1631 1457.39 1631 1457.39 1631 1457.39 1631 1537 1631 1506.18 1465.81 1479.22 1379.34Z" fill="#FFA368" fill-rule="evenodd"/><path d="M1622.6 1324.84C1617.4 1341.63 1612.2 1362.3 1608.3 1381.68 1601.8 1421.73 1609.6 1469.53 1616.1 1510.86 1621.3 1544.45 1627.8 1576.75 1625.2 1600 1625.2 1600 1625.2 1600 1625.2 1600 1627.8 1578.04 1614.8 1544.45 1609.6 1510.86 1601.8 1468.23 1594 1420.44 1601.8 1380.39 1604.4 1359.72 1610.9 1340.34 1616.1 1322.26 1621.3 1300.3 1633 1280.92 1633 1268 1633 1268 1633 1268 1633 1268 1633 1282.21 1629.1 1302.88 1622.6 1324.84Z" fill="#FFA368" fill-rule="evenodd"/><path d="M1587.53 1313.42C1584.98 1332.77 1581.16 1355.98 1574.78 1379.19 1551.84 1450.12 1535.27 1550.71 1555.67 1601 1555.67 1601 1555.67 1601 1555.67 1601 1534 1548.13 1560.76 1447.54 1578.61 1390.8 1586.26 1367.59 1590.08 1337.93 1592.63 1317.29 1595.18 1299.24 1595.18 1278.61 1599 1267 1599 1267 1599 1267 1599 1267 1593.9 1279.9 1590.08 1294.08 1587.53 1313.42Z" fill="#FFFFFF" fill-rule="evenodd"/><path d="M1633 1270C1633 1281.59 1627.77 1299.62 1619.92 1325.38 1614.69 1343.41 1609.46 1362.73 1605.54 1383.34 1599 1423.26 1606.85 1470.92 1613.38 1512.13 1616 1522.44 1616 1522.44 1616 1522.44 1619.92 1552.06 1627.77 1580.39 1623.85 1601 1623.85 1601 1623.85 1601 1623.85 1601 1627.77 1579.1 1625.15 1552.06 1619.92 1522.44 1618.62 1512.13 1618.62 1512.13 1618.62 1512.13 1612.08 1469.63 1604.23 1423.26 1610.77 1384.63 1613.38 1364.02 1619.92 1344.7 1625.15 1326.67 1631.69 1300.91 1633 1282.88 1633 1270Z" fill="#FFFFFF" fill-rule="evenodd"/><path d="M1620.79 1326.67C1615.69 1343.41 1610.59 1364.02 1606.76 1383.34 1600.38 1423.26 1608.03 1469.63 1614.41 1512.13 1619.52 1545.62 1625.9 1577.82 1623.34 1601 1623.34 1601 1623.34 1601 1623.34 1601 1625.9 1577.82 1613.14 1545.62 1608.03 1512.13 1601.66 1469.63 1594 1421.98 1600.38 1382.05 1604.21 1361.44 1609.31 1342.12 1614.41 1324.09 1619.52 1302.2 1631 1282.88 1631 1270 1631 1270 1631 1270 1631 1270 1631 1284.17 1627.17 1304.77 1620.79 1326.67Z" fill="#FFA368" fill-rule="evenodd"/><path d="M1499 1248C1482.34 1253.09 1474.66 1258.18 1470.81 1276 1468.25 1267.09 1458 1255.64 1468.25 1251.82" fill="#FF5A2B" fill-rule="evenodd"/><path d="M1465 1255.33C1466.3 1256.67 1466.3 1256.67 1466.3 1256.67 1470.19 1251.33 1510.43 1246 1536.38 1246 1563.64 1246 1583.11 1251.33 1585.7 1258 1587 1258 1587 1258 1587 1258 1581.81 1247.33 1548.06 1242 1524.7 1242 1500.04 1242 1471.49 1248.67 1465 1255.33Z" fill="#FFFFFF" fill-rule="evenodd"/><path d="M1457.5 1631.5C1537.5 1631.5 1506.53 1466.31 1479.44 1379.84 1458.79 1315.32 1470.4 1249.5 1430.4 1249.5 1429.11 1249.5 1429.11 1249.5 1429.11 1249.5 1389.11 1249.5 1423.95 1312.74 1435.56 1379.84 1453.63 1480.51 1377.5 1631.5 1457.5 1631.5Z" stroke="#333333" stroke-width="2.86476" stroke-linecap="round" stroke-linejoin="round" stroke-miterlimit="10" fill="none" fill-rule="evenodd"/><path d="M1591.36 1631.5C1511.5 1631.5 1543.7 1466.31 1570.75 1379.84 1591.36 1315.32 1578.48 1249.5 1618.4 1249.5 1619.69 1249.5 1619.69 1249.5 1619.69 1249.5 1659.62 1249.5 1624.84 1312.74 1613.25 1379.84 1596.51 1480.51 1672.5 1631.5 1592.64 1631.5L1591.36 1631.5Z" stroke="#333333" stroke-width="2.86476" stroke-linecap="round" stroke-linejoin="round" stroke-miterlimit="10" fill="none" fill-rule="evenodd"/><path d="M1527.79 1232.5C1479.91 1232.5 1426.85 1241.54 1416.5 1253.15 1419.09 1250.57 1424.26 1249.28 1429.44 1249.28 1430.74 1249.28 1430.74 1249.28 1430.74 1249.28 1470.85 1249.28 1459.21 1315.11 1479.91 1379.64 1507.09 1466.12 1538.15 1631.34 1457.91 1631.34 1457.91 1631.34 1457.91 1631.34 1457.91 1631.34 1455.32 1631.34 1452.74 1631.34 1450.15 1630.05 1466.97 1635.21 1490.26 1636.5 1513.56 1636.5 1539.44 1636.5 1583.44 1635.21 1601.56 1630.05 1598.97 1631.34 1595.09 1631.34 1592.5 1631.34 1591.21 1631.34 1591.21 1631.34 1591.21 1631.34 1510.97 1631.34 1543.32 1466.12 1570.5 1379.64 1591.21 1315.11 1578.26 1249.28 1618.38 1249.28 1619.68 1249.28 1619.68 1249.28 1619.68 1249.28 1628.74 1249.28 1633.91 1251.86 1636.5 1257.02 1630.03 1242.83 1579.56 1232.5 1527.79 1232.5Z" stroke="#333333" stroke-width="2.86476" stroke-linecap="round" stroke-linejoin="round" stroke-miterlimit="10" fill="none" fill-rule="evenodd"/><path d="M1488.5 1621.83C1494.99 1623.17 1504.08 1624.5 1514.46 1624.5 1523.55 1624.5 1554.71 1623.17 1562.5 1620.5" stroke="#333333" stroke-width="2.86476" stroke-linecap="round" stroke-linejoin="round" stroke-miterlimit="10" fill="none" fill-rule="evenodd"/><path d="M1589.5 1260.5C1586.92 1254.14 1554.71 1246.5 1528.93 1246.5 1504.45 1246.5 1470.94 1251.59 1464.5 1257.95" stroke="#333333" stroke-width="2.86476" stroke-linecap="round" stroke-linejoin="round" stroke-miterlimit="10" fill="none" fill-rule="evenodd"/><path d="M1573 1290C1571.74 1304.23 1569.21 1333.98 1564.16 1352.09 1560.37 1368.9 1552.79 1394.77 1549 1409 1549 1392.18 1559.11 1355.97 1561.63 1346.91 1564.16 1337.86 1567.95 1305.52 1573 1290Z" fill="#FFFFFF" fill-rule="evenodd"/></g></svg>