<svg width="299" height="441" xmlns="http://www.w3.org/2000/svg" xmlns:xlink="http://www.w3.org/1999/xlink" xml:space="preserve" overflow="hidden"><g transform="translate(-861 -721)"><path d="M976.164 986.333C984.945 1027.67 1000 1082.33 963.618 1101 927.236 1121 888.346 1070.33 875.8 1025 869.527 1002.33 862 959.667 862 918.333 862 875.667 870.782 835.667 875.8 817 888.346 770.333 927.236 721 963.618 739.667 1000 758.333 984.945 813 976.164 855.667 967.382 895.667 967.382 935.667 976.164 986.333Z" fill="#6AAF84" fill-rule="evenodd"/><path d="M952.661 986.667C943.944 938.667 947.679 893.333 955.151 854.667 963.868 814.667 975.076 764 941.453 745.333 937.717 744 932.736 744 929 746.667 938.962 741.333 950.17 740 961.378 745.333 995 764 977.566 820 970.095 860 961.378 898.667 961.378 937.333 970.095 984 977.566 1024 991.264 1078.67 956.396 1097.33 950.17 1100 943.944 1100 937.717 1100 993.755 1088 960.132 1025.33 952.661 986.667Z" fill="#BED9C5" fill-rule="evenodd"/><path d="M1000.06 1094.33C1017.58 1089 1028.84 1086.33 1036.35 1081 1037.6 1078.33 1037.6 1075.67 1037.6 1074.33 1030.1 1049 1038.86 1014.33 1045.11 986.333 1053.87 935.667 1053.87 895.667 1045.11 855.667 1036.35 813 1021.34 758.333 1057.63 739.667 1093.92 721 1132.72 770.333 1145.23 817 1150.24 835.667 1159 875.667 1159 918.333 1159 959.667 1151.49 1002.33 1145.23 1025 1138.98 1045 1128.96 1066.33 1115.2 1082.33 1112.69 1085 1111.44 1089 1111.44 1091.67 1110.19 1122.33 1063.89 1161 1016.33 1161 963.767 1161 950 1143.67 950 1126.33 950 1109 972.527 1101 1000.06 1094.33Z" fill="#6AAF84" fill-rule="evenodd"/><path d="M920 1087C903.674 1072.3 891.116 1049.57 884.837 1025.51 877.302 1002.79 869.767 960.02 869.767 918.584 869.767 875.812 878.558 835.713 884.837 817 878.558 869.129 866 973.386 920 1087Z" fill="#008A50" fill-rule="evenodd"/><path d="M1042.52 1051C1042.52 1029.59 1048.81 1006.84 1052.58 986.765 1061.39 935.912 1061.39 895.765 1052.58 855.617 1047.55 830.191 1040 802.088 1042.52 778 1042.52 795.397 1048.81 814.132 1063.9 860.97 1079 907.809 1066.42 949.294 1060.13 985.426 1053.84 1020.22 1041.26 1034.94 1042.52 1051Z" fill="#008A50" fill-rule="evenodd"/><path d="M1040 1149C1076.33 1139.66 1102.64 1111.64 1103.89 1087.62 1103.89 1086.28 1108.9 1079.61 1111.41 1076.94 1123.93 1062.27 1133.96 1040.91 1140.22 1022.23 1146.48 999.549 1154 958.183 1154 918.151 1154 878.12 1145.23 839.423 1140.22 820.741 1127.69 776.707 1092.62 726 1058.79 744.681 1056.29 746.016 1055.03 747.35 1052.53 747.35 1081.34 735.341 1106.4 772.703 1117.67 811.401 1122.68 828.748 1135.21 880.789 1135.21 922.155 1135.21 962.186 1131.45 1004.89 1125.19 1027.57 1118.92 1046.25 1110.15 1064.93 1097.63 1079.61 1095.12 1082.28 1093.87 1087.62 1093.87 1088.95 1093.87 1108.97 1066.31 1136.99 1040 1149Z" fill="#BED9C5" fill-rule="evenodd"/><path d="M1009.88 722C1011.12 722 1011.12 722 1011.12 722 1039.83 722 1062.29 727.343 1086 738.028 1086 738.028 1086 738.028 1086 738.028 1084.75 736.692 1083.5 736.692 1082.26 736.692 1082.26 736.692 1082.26 736.692 1082.26 736.692 1081.01 736.692 1081.01 736.692 1079.76 735.357 1079.76 735.357 1078.51 735.357 1078.51 735.357 1077.26 735.357 1077.26 735.357 1076.02 735.357 1076.02 735.357 1076.02 735.357 1074.77 735.357 1074.77 735.357 1073.52 735.357 1072.27 735.357 1072.27 735.357 1072.27 735.357 1071.02 735.357 1071.02 735.357 1069.78 735.357 1068.53 735.357 1068.53 735.357 1068.53 735.357 1068.53 735.357 1067.28 735.357 1066.03 736.692 1066.03 736.692 1064.79 736.692 1064.79 736.692 1064.79 736.692 1063.54 736.692 1062.29 736.692 1062.29 738.028 1061.04 738.028 1061.04 738.028 1061.04 738.028 1059.79 738.028 1058.55 739.364 1057.3 739.364 1021.11 758.063 1036.08 812.825 1044.82 855.566 1053.55 895.636 1053.55 935.706 1044.82 986.462 1044.82 987.797 1043.57 989.133 1043.57 991.804 1043.57 993.14 1042.32 994.476 1042.32 995.811 1042.32 995.811 1042.32 997.147 1042.32 997.147 1042.32 998.483 1041.07 1001.15 1041.07 1002.49 1041.07 1002.49 1041.07 1002.49 1041.07 1002.49 1041.07 1005.16 1039.83 1006.5 1039.83 1007.83 1039.83 1007.83 1039.83 1009.17 1039.83 1009.17 1038.58 1013.17 1038.58 1015.85 1037.33 1019.85 1037.33 1019.85 1037.33 1019.85 1037.33 1019.85 1037.33 1022.52 1037.33 1023.86 1037.33 1025.2 1037.33 1025.2 1036.08 1026.53 1036.08 1026.53 1036.08 1029.2 1036.08 1033.21 1034.83 1037.22 1034.83 1037.22 1034.83 1037.22 1034.83 1037.22 1034.83 1039.89 1034.83 1041.22 1034.83 1042.56 1034.83 1042.56 1034.83 1042.56 1034.83 1042.56 1034.83 1046.57 1034.83 1050.57 1034.83 1054.58 1034.83 1054.58 1034.83 1054.58 1034.83 1054.58 1034.83 1058.59 1034.83 1061.26 1034.83 1065.27 1034.83 1065.27 1034.83 1065.27 1034.83 1065.27 1034.83 1066.6 1034.83 1067.94 1036.08 1069.27 1036.08 1069.27 1036.08 1069.27 1036.08 1070.61 1036.08 1071.94 1036.08 1073.28 1037.33 1074.62 1037.33 1077.29 1037.33 1078.62 1036.08 1081.29 1033.59 1082.63 1029.84 1085.3 1026.1 1086.64 1021.11 1083.97 1016.12 1083.97 1011.12 1083.97 1009.88 1083.97 1009.88 1083.97 1009.88 1083.97 992.405 1083.97 983.669 1093.31 959.959 1104 959.959 1102.66 959.959 1102.66 959.959 1102.66 961.207 1102.66 962.455 1102.66 963.702 1101.33 999.893 1082.63 984.917 1027.87 976.182 986.462 967.446 935.706 967.446 895.636 976.182 855.566 984.917 812.825 999.893 758.063 963.702 739.364 953.719 734.021 943.736 734.021 935 738.028 958.711 727.343 981.174 722 1009.88 722Z" fill="#008A50" fill-rule="evenodd"/><path d="M970 984C961.25 937.269 961.25 898.55 970 859.83 977.5 819.775 995 763.698 961.25 745.006 957.5 743.67 953.75 742.335 950 741 963.75 746.341 973.75 762.363 975 785.061 977.5 807.758 962.5 835.797 961.25 897.214 960 959.967 970 984 970 984Z" fill="#FFFFFF" fill-rule="evenodd"/><path d="M1133.69 820.968C1114.89 767.449 1086.06 735.338 1066 740.69 1098.59 734 1128.68 779.491 1139.96 820.968 1144.97 839.699 1153.75 878.5 1153.75 918.639 1153.75 958.778 1146.23 1000.25 1139.96 1023 1155 953.426 1151.24 875.824 1133.69 820.968Z" fill="#FFFFFF" fill-rule="evenodd"/><path d="M1025 1153.33C994.898 1156 964.797 1149.33 957.271 1134.67 951 1120 966.051 1112 981.102 1108 964.797 1112 951 1144 1025 1153.33Z" fill="#008A50" fill-rule="evenodd"/><path d="M985 1085C995.036 1069 1006.33 1059.67 1013.85 1053 1026.4 1038.33 1025.15 982.333 1031.42 937 1037.69 890.333 1022.64 853 1020.13 802.333 1016.36 755.667 1036.44 750.333 1003.82 738.333 1001.31 737 1001.31 734.333 1005.07 734.333 1021.38 733 1041.45 735.667 1054 742.333 1022.64 762.333 1036.44 814.333 1045.22 855.667 1054 895.667 1054 935.667 1045.22 986.333 1045.22 987.667 1043.96 989 1043.96 991.667 1043.96 993 1042.71 994.333 1042.71 995.667 1042.71 995.667 1042.71 997 1042.71 997 1042.71 998.333 1041.45 1001 1041.45 1002.33 1041.45 1002.33 1041.45 1002.33 1041.45 1002.33 1041.45 1005 1040.2 1006.33 1040.2 1007.67 1040.2 1007.67 1040.2 1009 1040.2 1009 1038.95 1013 1038.95 1015.67 1037.69 1019.67 1037.69 1019.67 1037.69 1019.67 1037.69 1019.67 1037.69 1022.33 1037.69 1023.67 1037.69 1025 1037.69 1025 1036.44 1026.33 1036.44 1026.33 1036.44 1029 1036.44 1033 1035.18 1037 1035.18 1037 1035.18 1037 1035.18 1037 1035.18 1039.67 1035.18 1041 1035.18 1042.33 1035.18 1042.33 1035.18 1042.33 1035.18 1042.33 1035.18 1046.33 1035.18 1050.33 1035.18 1054.33 1035.18 1054.33 1035.18 1054.33 1035.18 1054.33 1035.18 1058.33 1035.18 1061 1035.18 1065 1035.18 1065 1035.18 1065 1035.18 1065 1035.18 1066.33 1035.18 1067.67 1036.44 1069 1036.44 1069 1036.44 1069 1036.44 1070.33 1036.44 1071.67 1036.44 1073 1037.69 1074.33 1037.69 1077 1037.69 1078.33 1036.44 1081 1033.93 1082.33 1031.42 1083.67 1028.91 1085 1027.65 1079.67 1022.64 1074.33 1015.11 1074.33 998.8 1074.33 990.018 1079.67 985 1085Z" fill="#00733B" fill-rule="evenodd"/><path d="M981.292 1084C993.375 1058.64 983.708 1018.6 976.458 986.568 968 935.851 968 895.811 976.458 855.77 983.708 821.069 994.583 778.359 978.875 753 981.292 753 981.292 753 981.292 753 994.583 765.012 997 801.049 992.167 834.415 987.333 866.448 977.667 907.823 987.333 962.544 995.792 1017.27 995.792 1063.98 981.292 1084Z" fill="#00733B" fill-rule="evenodd"/><path d="M1044 733C1027.65 725 987.387 725 966 733 984.871 726.333 1038.97 731.667 1044 733Z" fill="#FFFFFF" fill-rule="evenodd"/><path d="M1038.75 822C1047.5 848.743 1055 912.926 1047.5 969.086 1040 1026.58 1032.5 1042.63 1035 1056 1030 1034.61 1035 995.828 1038.75 971.76 1045 934.32 1048.75 888.857 1038.75 822Z" fill="#005A2E" fill-rule="evenodd"/><path d="M988.333 875C985.889 888.472 981 923.5 992 972 989.556 958.528 987.111 893.861 988.333 875Z" fill="#FFFFFF" fill-rule="evenodd"/><path d="M976.164 986.333C984.945 1027.67 1000 1082.33 963.618 1101 927.236 1121 888.346 1070.33 875.8 1025 869.527 1002.33 862 959.667 862 918.333 862 875.667 870.782 835.667 875.8 817 888.346 770.333 927.236 721 963.618 739.667 1000 758.333 984.945 813 976.164 855.667 967.382 895.667 967.382 935.667 976.164 986.333Z" stroke="#000000" stroke-width="2.29167" stroke-linecap="round" stroke-linejoin="round" stroke-miterlimit="10" fill="none" fill-rule="evenodd"/><path d="M1000.06 1094.33C1017.58 1089 1028.84 1086.33 1036.35 1081 1037.6 1078.33 1037.6 1075.67 1037.6 1074.33 1030.1 1049 1038.86 1014.33 1045.11 986.333 1053.87 935.667 1053.87 895.667 1045.11 855.667 1036.35 813 1021.34 758.333 1057.63 739.667 1093.92 721 1132.72 770.333 1145.23 817 1150.24 835.667 1159 875.667 1159 918.333 1159 959.667 1151.49 1002.33 1145.23 1025 1138.98 1045 1128.96 1066.33 1115.2 1082.33 1112.69 1085 1111.44 1089 1111.44 1091.67 1110.19 1122.33 1063.89 1161 1016.33 1161 963.767 1161 950 1143.67 950 1126.33 950 1109 972.527 1101 1000.06 1094.33Z" stroke="#000000" stroke-width="2.29167" stroke-linecap="round" stroke-linejoin="round" stroke-miterlimit="10" fill="none" fill-rule="evenodd"/><path d="M1009.88 722C1011.12 722 1011.12 722 1011.12 722 1039.83 722 1062.29 727.343 1086 738.028 1086 738.028 1086 738.028 1086 738.028 1084.75 736.692 1083.5 736.692 1082.26 736.692 1082.26 736.692 1082.26 736.692 1082.26 736.692 1081.01 736.692 1081.01 736.692 1079.76 735.357 1079.76 735.357 1078.51 735.357 1078.51 735.357 1077.26 735.357 1077.26 735.357 1076.02 735.357 1076.02 735.357 1076.02 735.357 1074.77 735.357 1074.77 735.357 1073.52 735.357 1072.27 735.357 1072.27 735.357 1072.27 735.357 1071.02 735.357 1071.02 735.357 1069.78 735.357 1068.53 735.357 1068.53 735.357 1068.53 735.357 1068.53 735.357 1067.28 735.357 1066.03 736.692 1066.03 736.692 1064.79 736.692 1064.79 736.692 1064.79 736.692 1063.54 736.692 1062.29 736.692 1062.29 738.028 1061.04 738.028 1061.04 738.028 1061.04 738.028 1059.79 738.028 1058.55 739.364 1057.3 739.364 1021.11 758.063 1036.08 812.825 1044.82 855.566 1053.55 895.636 1053.55 935.706 1044.82 986.462 1044.82 987.797 1043.57 989.133 1043.57 991.804 1043.57 993.14 1042.32 994.476 1042.32 995.811 1042.32 995.811 1042.32 997.147 1042.32 997.147 1042.32 998.483 1041.07 1001.15 1041.07 1002.49 1041.07 1002.49 1041.07 1002.49 1041.07 1002.49 1041.07 1005.16 1039.83 1006.5 1039.83 1007.83 1039.83 1007.83 1039.83 1009.17 1039.83 1009.17 1038.58 1013.17 1038.58 1015.85 1037.33 1019.85 1037.33 1019.85 1037.33 1019.85 1037.33 1019.85 1037.33 1022.52 1037.33 1023.86 1037.33 1025.2 1037.33 1025.2 1036.08 1026.53 1036.08 1026.53 1036.08 1029.2 1036.08 1033.21 1034.83 1037.22 1034.83 1037.22 1034.83 1037.22 1034.83 1037.22 1034.83 1039.89 1034.83 1041.22 1034.83 1042.56 1034.83 1042.56 1034.83 1042.56 1034.83 1042.56 1034.83 1046.57 1034.83 1050.57 1034.83 1054.58 1034.83 1054.58 1034.83 1054.58 1034.83 1054.58 1034.83 1058.59 1034.83 1061.26 1034.83 1065.27 1034.83 1065.27 1034.83 1065.27 1034.83 1065.27 1034.83 1066.6 1034.83 1067.94 1036.08 1069.27 1036.08 1069.27 1036.08 1069.27 1036.08 1070.61 1036.08 1071.94 1036.08 1073.28 1037.33 1074.62 1037.33 1077.29 1037.33 1078.62 1036.08 1081.29 1033.59 1082.63 1029.84 1085.3 1026.1 1086.64 1021.11 1083.97 1016.12 1083.97 1011.12 1083.97 1009.88 1083.97 1009.88 1083.97 1009.88 1083.97 992.405 1083.97 983.669 1093.31 959.959 1104 959.959 1102.66 959.959 1102.66 959.959 1102.66 961.207 1102.66 962.455 1102.66 963.702 1101.33 999.893 1082.63 984.917 1027.87 976.182 986.462 967.446 935.706 967.446 895.636 976.182 855.566 984.917 812.825 999.893 758.063 963.702 739.364 953.719 734.021 943.736 734.021 935 738.028 958.711 727.343 981.174 722 1009.88 722Z" stroke="#000000" stroke-width="2.29167" stroke-linecap="round" stroke-linejoin="round" stroke-miterlimit="10" fill="none" fill-rule="evenodd"/></g></svg>