<svg width="329" height="411" xmlns="http://www.w3.org/2000/svg" xmlns:xlink="http://www.w3.org/1999/xlink" xml:space="preserve" overflow="hidden"><g transform="translate(-908 -1143)"><path d="M951 1145.51C951 1145.51 951 1145.51 951 1145.51 977.889 1141.94 1002.54 1165.72 1018.22 1196.62 1030.55 1219.21 1041.75 1248.92 1055.19 1296.47 1057.44 1303.6 1055.19 1307.17 1050.71 1311.92 1042.87 1319.06 1038.39 1328.57 1038.39 1340.45 1038.39 1357.09 1049.59 1371.36 1064.16 1376.11 1069.76 1378.49 1072 1380.87 1072 1388 1072 1346.4 1072 1237.04 1072 1232.28 1072 1193.06 1017.1 1136 951 1145.51Z" fill="#005890" fill-rule="evenodd"/><path d="M1081.95 1376.11C1096.5 1371.36 1106.58 1357.09 1106.58 1340.45 1106.58 1328.57 1102.1 1319.06 1095.39 1311.92 1089.79 1307.17 1088.67 1303.6 1089.79 1296.47 1104.34 1248.92 1115.53 1219.21 1126.72 1196.62 1143.51 1165.72 1168.14 1141.94 1195 1145.51 1195 1145.51 1195 1145.51 1195 1145.51 1128.96 1136 1073 1193.06 1073 1232.28 1073 1238.23 1074.12 1315.49 1074.12 1315.49 1074.12 1388 1074.12 1388 1074.12 1388 1074.12 1380.87 1076.36 1378.49 1081.95 1376.11Z" fill="#005890" fill-rule="evenodd"/><path d="M1073 1489.59C1073 1489.59 1074.11 1467.09 1074.11 1428 1071.89 1429.18 1071.89 1429.18 1071.89 1429.18 1071.89 1467.09 1071.89 1489.59 1071.89 1489.59 1071.89 1519.2 1063 1544.08 1043 1550 1043 1550 1043 1550 1043 1550 1051.89 1547.63 1063 1545.26 1071.89 1545.26 1081.89 1545.26 1094.11 1547.63 1103 1550 1103 1550 1103 1550 1103 1550 1083 1544.08 1073 1519.2 1073 1489.59Z" fill="#005890" fill-rule="evenodd"/><path d="M1064.2 1376.65C1049.71 1371.88 1038.56 1357.59 1038.56 1340.9 1038.56 1328.99 1043.02 1319.46 1050.82 1312.31 1055.28 1307.54 1057.51 1303.97 1055.28 1296.82 1041.9 1249.15 1030.76 1219.37 1018.5 1196.73 998.433 1157.41 963.879 1130 930.439 1155.02 897 1181.24 908.146 1226.52 936.013 1271.79 963.879 1317.07 989.516 1418.35 995.089 1480.32 1000.66 1541.08 1004.01 1553 1031.87 1553 1059.74 1553 1072 1525.59 1072 1489.85 1072 1489.85 1072 1395.72 1072 1388.57 1072 1381.42 1069.77 1379.03 1064.2 1376.65Z" fill="#32B0E1" fill-rule="evenodd"/><path d="M1081.92 1376.65C1096.41 1371.88 1106.44 1357.59 1106.44 1340.9 1106.44 1328.99 1101.98 1319.46 1095.29 1312.31 1089.72 1307.54 1088.6 1303.97 1089.72 1296.82 1104.21 1249.15 1115.36 1219.37 1126.5 1196.73 1147.68 1157.41 1182.24 1130 1215.68 1155.02 1248 1181.24 1236.85 1226.52 1210.1 1271.79 1182.24 1317.07 1156.6 1418.35 1151.03 1480.32 1145.45 1541.08 1142.11 1553 1114.24 1553 1086.38 1553 1073 1525.59 1073 1489.85 1073 1489.85 1074.11 1395.72 1074.11 1388.57 1074.11 1381.42 1076.34 1379.03 1081.92 1376.65Z" fill="#32B0E1" fill-rule="evenodd"/><path d="M1019.52 1545.43C1007.21 1537.1 1012.81 1513.29 1009.45 1475.19 1003.85 1413.29 988.184 1315.67 960.202 1270.43 932.22 1225.19 916.55 1160.9 959.083 1151.38 953.486 1149 941.174 1152.57 934.459 1158.52 902 1183.52 913.193 1226.38 941.174 1271.62 969.156 1316.86 994.899 1418.05 1000.5 1479.95 1004.97 1527.57 1006.09 1541.86 1019.52 1545.43 1022.88 1546.62 1024 1549 1019.52 1545.43Z" fill="#BFDFF3" fill-rule="evenodd"/><path d="M1057.07 1380.46C1042.56 1375.7 1032.51 1357.84 1032.51 1341.16 1032.51 1329.25 1036.98 1319.73 1043.67 1312.58 1048.14 1307.82 1050.37 1304.25 1049.26 1297.1 1034.74 1249.46 1024.7 1219.69 1013.53 1197.06 1002.37 1175.63 986.744 1160.15 970 1153 980.047 1160.15 988.977 1166.1 1000.14 1188.73 1010.19 1208.97 1014.65 1228.03 1026.93 1270.9 1031.4 1284 1038.09 1298.29 1031.4 1311.39 1026.93 1318.54 1022.47 1325.68 1022.47 1341.16 1022.47 1367.36 1031.4 1380.46 1041.44 1387.61 1051.49 1394.75 1053.72 1410.24 1054.84 1423.34 1054.84 1457.87 1059.3 1488.84 1059.3 1488.84 1059.3 1512.65 1057.07 1534.09 1041.44 1546 1058.19 1537.66 1066 1517.42 1066 1490.03 1066 1490.03 1064.88 1399.52 1064.88 1392.37 1064.88 1385.23 1062.65 1382.85 1057.07 1380.46Z" fill="#0083C8" fill-rule="evenodd"/><path d="M980 1375C969.971 1334.46 955.486 1295.12 941 1271.27 913.143 1225.96 902 1183.04 934.314 1158 923.171 1167.54 915.371 1205.69 930.971 1239.08 945.457 1272.46 964.4 1307.04 980 1375Z" fill="#FFFFFF" fill-rule="evenodd"/><path d="M1126.48 1545.43C1138.79 1537.1 1133.19 1513.29 1136.55 1475.19 1142.15 1413.29 1157.82 1315.67 1185.8 1270.43 1213.78 1225.19 1229.45 1160.9 1186.92 1151.38 1192.51 1149 1204.83 1152.57 1211.54 1158.52 1244 1183.52 1232.81 1226.38 1204.83 1271.62 1176.84 1316.86 1151.1 1418.05 1145.5 1479.95 1141.03 1527.57 1139.91 1541.86 1126.48 1545.43 1123.12 1546.62 1122 1549 1126.48 1545.43Z" fill="#0083C8" fill-rule="evenodd"/><path d="M1088.93 1380.46C1103.44 1375.7 1113.49 1357.84 1113.49 1341.16 1113.49 1329.25 1109.02 1319.73 1102.33 1312.58 1097.86 1307.82 1095.63 1304.25 1096.74 1297.1 1111.26 1249.46 1121.3 1219.69 1132.47 1197.06 1143.63 1175.63 1159.26 1160.15 1176 1153 1165.95 1160.15 1157.02 1166.1 1145.86 1188.73 1135.81 1208.97 1132.47 1228.03 1119.07 1270.9 1114.6 1284 1107.91 1298.29 1114.6 1311.39 1119.07 1318.54 1123.53 1325.68 1123.53 1341.16 1123.53 1367.36 1114.6 1380.46 1104.56 1387.61 1094.51 1394.75 1092.28 1410.24 1092.28 1423.34 1091.16 1457.87 1086.7 1488.84 1086.7 1488.84 1086.7 1512.65 1088.93 1534.09 1104.56 1546 1087.81 1537.66 1080 1517.42 1080 1490.03 1080 1490.03 1081.12 1399.52 1081.12 1392.37 1081.12 1385.23 1083.35 1382.85 1088.93 1380.46Z" fill="#BFDFF3" fill-rule="evenodd"/><path d="M1166 1375C1176.03 1334.46 1190.51 1295.12 1205 1271.27 1232.86 1225.96 1244 1183.04 1211.69 1158 1222.83 1167.54 1230.63 1205.69 1215.03 1239.08 1200.54 1272.46 1181.6 1307.04 1166 1375Z" fill="#005890" fill-rule="evenodd"/><path d="M1066 1490C1066 1490 1064.88 1399.46 1064.88 1392.31 1064.88 1385.16 1062.65 1382.78 1057.06 1380.4 1042.53 1375.63 1032.47 1357.76 1032.47 1341.08 1032.47 1329.17 1036.94 1319.64 1043.65 1312.49 1048.12 1307.72 1050.35 1304.15 1049.24 1297 1049.24 1300.57 1047 1305.34 1040.29 1313.68 1032.47 1320.83 1028 1329.17 1028 1342.27 1028 1355.38 1035.82 1374.44 1047 1380.4 1058.18 1386.35 1062.65 1389.93 1062.65 1399.46 1063.76 1408.99 1066 1490 1066 1490Z" fill="#005890" fill-rule="evenodd"/><path d="M1080 1490C1080 1490 1081.11 1399.21 1081.11 1392.04 1081.11 1384.87 1083.32 1382.48 1088.86 1380.09 1103.27 1375.32 1113.24 1357.4 1113.24 1340.67 1113.24 1328.72 1108.81 1319.17 1102.16 1312 1116.57 1326.34 1121 1351.42 1113.24 1366.95 1104.38 1382.48 1094.41 1383.68 1088.86 1387.26 1084.43 1389.65 1084.43 1399.21 1083.32 1413.54 1083.32 1427.88 1080 1490 1080 1490Z" fill="#FFFFFF" fill-rule="evenodd"/><path d="M1164 1158C1150.56 1166.42 1131.52 1186.86 1108 1259 1119.2 1230.14 1144.96 1173.63 1164 1158Z" fill="#FFFFFF" fill-rule="evenodd"/><path d="M1057.5 1269.22C1050.83 1233.58 1016.36 1155.19 984.112 1154 983 1154 983 1154 983 1154 997.455 1163.5 1009.69 1178.94 1018.58 1196.76 1030.81 1219.33 1041.93 1249.03 1055.27 1296.54 1057.5 1303.67 1055.27 1307.23 1050.83 1311.98 1043.04 1319.11 1038.59 1328.61 1038.59 1340.49 1038.59 1357.12 1049.71 1371.37 1064.17 1376.12 1069.73 1378.5 1071.95 1380.87 1071.95 1388 1071.95 1301.29 1071.95 1301.29 1071.95 1301.29 1059.72 1292.97 1059.72 1281.1 1057.5 1269.22ZM1126.43 1196.76C1130.88 1188.45 1136.44 1180.13 1142 1173.01 1139.78 1174.19 1139.78 1174.19 1139.78 1174.19 1125.32 1186.07 1105.31 1215.77 1088.63 1273.97 1078.62 1306.04 1074.17 1302.48 1074.17 1302.48 1074.17 1310.79 1074.17 1315.54 1074.17 1315.54 1074.17 1388 1074.17 1388 1074.17 1388 1074.17 1380.87 1076.4 1378.5 1081.96 1376.12 1096.41 1371.37 1106.42 1357.12 1106.42 1340.49 1106.42 1328.61 1101.97 1319.11 1095.3 1311.98 1093.08 1310.79 1091.97 1308.42 1090.85 1306.04 1090.85 1306.04 1089.74 1306.04 1089.74 1306.04 1089.74 1306.04 1089.74 1306.04 1088.63 1306.04 1089.74 1304.85 1089.74 1304.85 1089.74 1304.85 1089.74 1302.48 1089.74 1298.91 1089.74 1296.54 1104.2 1249.03 1115.31 1219.33 1126.43 1196.76Z" fill="#003B64" fill-rule="evenodd"/><path d="M1134 1158C1116.46 1165.2 1084.67 1195.2 1079.19 1221.6 1077 1230 1078.1 1250.4 1078.1 1278 1079.19 1260 1079.19 1233.6 1091.25 1208.4 1104.4 1182 1134 1158 1134 1158Z" fill="#32B0E1" fill-rule="evenodd"/><path d="M1064.2 1376.65C1049.71 1371.88 1038.56 1357.59 1038.56 1340.9 1038.56 1328.99 1043.02 1319.46 1050.82 1312.31 1055.28 1307.54 1057.51 1303.97 1055.28 1296.82 1041.9 1249.15 1030.76 1219.37 1018.5 1196.73 998.433 1157.41 963.879 1130 930.439 1155.02 897 1181.24 908.146 1226.52 936.013 1271.79 963.879 1317.07 989.516 1418.35 995.089 1480.32 1000.66 1541.08 1004.01 1553 1031.87 1553 1059.74 1553 1072 1525.59 1072 1489.85 1072 1489.85 1072 1395.72 1072 1388.57 1072 1381.42 1069.77 1379.03 1064.2 1376.65Z" stroke="#000000" stroke-width="2.29167" stroke-linecap="round" stroke-linejoin="round" stroke-miterlimit="10" fill="none" fill-rule="evenodd"/><path d="M951 1145.51C951 1145.51 951 1145.51 951 1145.51 977.889 1141.94 1002.54 1165.72 1018.22 1196.62 1030.55 1219.21 1041.75 1248.92 1055.19 1296.47 1057.44 1303.6 1055.19 1307.17 1050.71 1311.92 1042.87 1319.06 1038.39 1328.57 1038.39 1340.45 1038.39 1357.09 1049.59 1371.36 1064.16 1376.11 1069.76 1378.49 1072 1380.87 1072 1388 1072 1346.4 1072 1237.04 1072 1232.28 1072 1193.06 1017.1 1136 951 1145.51Z" stroke="#000000" stroke-width="2.29167" stroke-linecap="round" stroke-linejoin="round" stroke-miterlimit="10" fill="none" fill-rule="evenodd"/><path d="M1081.92 1376.65C1096.41 1371.88 1106.44 1357.59 1106.44 1340.9 1106.44 1328.99 1101.98 1319.46 1095.29 1312.31 1089.72 1307.54 1088.6 1303.97 1089.72 1296.82 1104.21 1249.15 1115.36 1219.37 1126.5 1196.73 1147.68 1157.41 1182.24 1130 1215.68 1155.02 1248 1181.24 1236.85 1226.52 1210.1 1271.79 1182.24 1317.07 1156.6 1418.35 1151.03 1480.32 1145.45 1541.08 1142.11 1553 1114.24 1553 1086.38 1553 1073 1525.59 1073 1489.85 1073 1489.85 1074.11 1395.72 1074.11 1388.57 1074.11 1381.42 1076.34 1379.03 1081.92 1376.65Z" stroke="#000000" stroke-width="2.29167" stroke-linecap="round" stroke-linejoin="round" stroke-miterlimit="10" fill="none" fill-rule="evenodd"/><path d="M1081.95 1376.11C1096.5 1371.36 1106.58 1357.09 1106.58 1340.45 1106.58 1328.57 1102.1 1319.06 1095.39 1311.92 1089.79 1307.17 1088.67 1303.6 1089.79 1296.47 1104.34 1248.92 1115.53 1219.21 1126.72 1196.62 1143.51 1165.72 1168.14 1141.94 1195 1145.51 1195 1145.51 1195 1145.51 1195 1145.51 1128.96 1136 1073 1193.06 1073 1232.28 1073 1238.23 1074.12 1315.49 1074.12 1315.49 1074.12 1388 1074.12 1388 1074.12 1388 1074.12 1380.87 1076.36 1378.49 1081.95 1376.11Z" stroke="#000000" stroke-width="2.29167" stroke-linecap="round" stroke-linejoin="round" stroke-miterlimit="10" fill="none" fill-rule="evenodd"/><path d="M1073 1489.59C1073 1489.59 1074.11 1467.09 1074.11 1428 1071.89 1429.18 1071.89 1429.18 1071.89 1429.18 1071.89 1467.09 1071.89 1489.59 1071.89 1489.59 1071.89 1519.2 1063 1544.08 1043 1550 1043 1550 1043 1550 1043 1550 1051.89 1547.63 1063 1545.26 1071.89 1545.26 1081.89 1545.26 1094.11 1547.63 1103 1550 1103 1550 1103 1550 1103 1550 1083 1544.08 1073 1519.2 1073 1489.59Z" stroke="#000000" stroke-width="2.29167" stroke-linecap="round" stroke-linejoin="round" stroke-miterlimit="10" fill="none" fill-rule="evenodd"/></g></svg>