<svg width="264" height="425" xmlns="http://www.w3.org/2000/svg" xmlns:xlink="http://www.w3.org/1999/xlink" xml:space="preserve" overflow="hidden"><g transform="translate(-3139 -1137)"><path d="M3251.91 1405.06C3240.68 1394.34 3235.07 1377.67 3241.8 1361 3245.17 1351.48 3253.03 1344.33 3262.02 1340.76 3268.75 1338.38 3268.75 1332.43 3268.75 1325.28 3271 1275.27 3271 1240.74 3268.75 1214.54 3263.14 1169.29 3245.17 1130 3205.87 1140.72 3165.44 1151.43 3159.83 1196.68 3169.93 1250.26 3178.92 1302.66 3166.57 1408.63 3150.84 1466.98 3134 1525.32 3136.25 1544.38 3162.07 1556.28 3186.78 1567 3200.25 1557.47 3223.84 1497.94 3223.84 1497.94 3253.03 1426.49 3255.28 1419.35 3257.52 1412.2 3256.4 1408.63 3251.91 1405.06Z" fill="#E16399" fill-rule="evenodd"/><path d="M3261.76 1214.46C3259.52 1190.68 3252.81 1169.27 3241.61 1155 3247.21 1166.89 3250.57 1177.59 3253.93 1216.84 3256.16 1243 3249.45 1260.84 3247.21 1310.78 3246.09 1329.81 3229.3 1331 3221.46 1351.22 3213.63 1371.43 3213.63 1394.03 3225.94 1408.3 3229.3 1413.05 3231.54 1416.62 3229.3 1422.57 3227.06 1429.7 3204.67 1502.24 3204.67 1502.24 3196.84 1526.03 3195.72 1535.54 3189 1551 3196.84 1541.49 3205.79 1524.84 3216.99 1497.49 3216.99 1497.49 3243.85 1427.32 3246.09 1421.38 3249.45 1414.24 3248.33 1410.68 3243.85 1407.11 3231.54 1396.41 3227.06 1377.38 3232.66 1360.73 3237.13 1351.22 3244.97 1341.7 3253.93 1338.14 3259.52 1335.76 3259.52 1329.81 3260.64 1322.68 3262.88 1272.73 3264 1240.62 3261.76 1214.46Z" fill="#D80075" fill-rule="evenodd"/><path d="M3182.6 1553.81C3152.15 1544.29 3149.9 1525.24 3165.69 1468.12 3181.48 1412.18 3204.03 1308.63 3195.01 1257.45 3184.86 1206.27 3187.12 1158.66 3225.47 1147.95 3228.85 1147.95 3234.49 1147.95 3239 1149.14 3231.1 1145.57 3220.95 1142 3209.67 1145.57 3171.33 1155.09 3166.81 1202.7 3175.84 1253.88 3185.99 1305.06 3173.58 1406.22 3157.79 1463.35 3142 1519.29 3142 1540.72 3166.81 1551.43 3173.58 1555 3176.97 1555 3182.6 1553.81 3182.6 1553.81 3182.6 1553.81 3182.6 1553.81Z" fill="#F4CDDE" fill-rule="evenodd"/><path d="M3158 1464C3173.52 1406.83 3185.72 1305.6 3175.74 1254.38 3166.87 1203.17 3171.3 1155.53 3209 1146 3194.59 1153.15 3175.74 1184.11 3177.96 1222.22 3180.17 1260.34 3194.59 1330.61 3158 1464Z" fill="#FFFFFF" fill-rule="evenodd"/><path d="M3290.95 1405.06C3302.1 1394.34 3307.67 1377.67 3300.98 1361 3297.64 1351.48 3289.84 1344.33 3280.92 1340.76 3274.23 1338.38 3274.23 1332.43 3274.23 1325.28 3272 1275.27 3272 1240.74 3274.23 1214.54 3279.8 1169.29 3297.64 1130 3336.66 1140.72 3376.79 1151.43 3382.36 1196.68 3372.33 1250.26 3363.41 1302.66 3375.67 1408.63 3391.28 1466.98 3408 1525.32 3405.77 1544.38 3380.13 1556.28 3355.61 1567 3342.23 1557.47 3319.93 1497.94 3319.93 1497.94 3289.84 1426.49 3287.61 1419.35 3285.38 1412.2 3286.49 1408.63 3290.95 1405.06Z" fill="#E16399" fill-rule="evenodd"/><path d="M3270.94 1512.24C3286.55 1545.54 3334.48 1558.62 3359 1559.81 3359 1559.81 3359 1559.81 3359 1559.81 3359 1559.81 3359 1559.81 3359 1559.81 3346.74 1556.24 3335.59 1538.4 3319.99 1497.97 3319.99 1497.97 3289.89 1426.61 3287.66 1419.48 3285.43 1412.34 3286.55 1408.77 3291.01 1405.21 3302.15 1394.5 3307.73 1377.85 3301.04 1361.2 3297.69 1351.69 3289.89 1344.55 3280.97 1340.99 3274.29 1338.61 3274.29 1332.66 3274.29 1325.53 3272.06 1275.58 3272.06 1241.09 3274.29 1214.92 3278.75 1180.43 3289.89 1148.32 3314.41 1141.19 3314.41 1141.19 3314.41 1141.19 3314.41 1141.19 3314.41 1140 3314.41 1140 3314.41 1140 3298.81 1142.38 3285.43 1145.95 3273.17 1153.08 3273.17 1154.27 3270.94 1154.27 3269.83 1154.27 3258.68 1145.95 3245.31 1143.57 3228.59 1140 3228.59 1141.19 3228.59 1141.19 3228.59 1141.19 3228.59 1141.19 3228.59 1141.19 3228.59 1141.19 3253.11 1148.32 3264.25 1180.43 3268.71 1214.92 3270.94 1241.09 3270.94 1275.58 3268.71 1325.53 3268.71 1332.66 3268.71 1338.61 3262.03 1340.99 3253.11 1344.55 3245.31 1351.69 3241.96 1361.2 3235.27 1377.85 3240.85 1394.5 3251.99 1405.21 3256.45 1408.77 3257.57 1412.34 3255.34 1419.48 3253.11 1426.61 3224.13 1497.97 3224.13 1497.97 3207.41 1538.4 3197.38 1556.24 3184 1559.81 3184 1559.81 3184 1559.81 3184 1559.81 3184 1559.81 3184 1559.81 3184 1559.81 3206.29 1561 3259.8 1540.78 3272.06 1512.24 3272.06 1512.24 3270.94 1512.24 3270.94 1512.24Z" fill="#AA005C" fill-rule="evenodd"/><path d="M3248.55 1415.12C3249.67 1412.73 3247.42 1410.33 3246.3 1410.33 3237.33 1401.96 3230.61 1387.61 3230.61 1374.45 3230.61 1363.69 3235.09 1354.12 3241.82 1346.94 3247.42 1342.16 3262 1334.98 3259.76 1329 3259.76 1332.59 3244.06 1338.57 3236.21 1346.94 3229.48 1354.12 3225 1362.49 3225 1375.65 3225 1387.61 3231.73 1404.35 3241.82 1412.73 3242.94 1413.92 3244.06 1417.51 3244.06 1422.29 3241.82 1428.27 3240.7 1437.84 3236.21 1451 3240.7 1440.24 3247.42 1423.49 3248.55 1415.12Z" fill="#AA005C" fill-rule="evenodd"/><path d="M3282.21 1214.46C3285.52 1190.68 3291.04 1169.27 3302.09 1155 3296.57 1166.89 3293.25 1177.59 3289.94 1216.84 3287.73 1243 3294.36 1260.84 3296.57 1310.78 3297.67 1329.81 3314.24 1331 3321.97 1351.22 3329.7 1371.43 3329.7 1394.03 3317.55 1408.3 3315.34 1413.05 3312.03 1416.62 3314.24 1422.57 3316.45 1429.7 3338.54 1502.24 3338.54 1502.24 3346.27 1526.03 3348.48 1535.54 3354 1551 3346.27 1541.49 3337.43 1524.84 3327.49 1497.49 3327.49 1497.49 3299.88 1427.32 3297.67 1421.38 3295.46 1414.24 3295.46 1410.68 3300.99 1407.11 3312.03 1396.41 3316.45 1377.38 3310.93 1360.73 3306.51 1351.22 3298.78 1341.7 3289.94 1338.14 3284.42 1335.76 3284.42 1329.81 3283.31 1322.68 3281.1 1272.73 3280 1240.62 3282.21 1214.46Z" fill="#F4CDDE" fill-rule="evenodd"/><path d="M3361.23 1553.81C3391.06 1544.29 3393.27 1525.24 3377.8 1468.12 3362.34 1412.18 3340.24 1308.63 3350.19 1257.45 3359.02 1206.27 3356.81 1158.66 3319.26 1147.95 3315.94 1147.95 3311.52 1147.95 3306 1149.14 3313.73 1145.57 3323.67 1142 3334.72 1145.57 3372.28 1155.09 3376.7 1202.7 3367.86 1253.88 3359.02 1305.06 3370.07 1406.22 3385.53 1463.35 3401 1519.29 3401 1540.72 3376.7 1551.43 3370.07 1555 3366.76 1555 3361.23 1553.81 3361.23 1553.81 3361.23 1553.81 3361.23 1553.81Z" fill="#D80075" fill-rule="evenodd"/><path d="M3386 1464C3370.17 1406.83 3358.87 1305.6 3367.91 1254.38 3376.96 1203.17 3372.43 1155.53 3334 1146 3348.7 1153.15 3369.04 1184.11 3365.65 1222.22 3363.39 1260.34 3348.7 1330.61 3386 1464Z" fill="#AA005C" fill-rule="evenodd"/><path d="M3302.33 1412.8C3312.33 1404.45 3319 1387.73 3319 1375.8 3319 1362.67 3314.56 1354.31 3307.89 1347.15 3303.44 1341.18 3295.67 1337.6 3290.11 1334.02 3291.22 1334.02 3291.22 1334.02 3291.22 1334.02 3287.89 1330.44 3287.89 1334.02 3287.89 1323.27 3286.78 1312.53 3280.11 1215.84 3287.89 1186 3284.56 1194.36 3279 1236.14 3280.11 1287.46 3281.22 1301.79 3283.44 1322.08 3284.56 1329.24 3284.56 1330.44 3284.56 1330.44 3284.56 1330.44 3284.56 1331.63 3284.56 1331.63 3284.56 1331.63 3284.56 1332.82 3284.56 1332.82 3284.56 1332.82 3287.89 1337.6 3297.89 1343.57 3302.33 1347.15 3309 1354.31 3313.44 1363.86 3313.44 1374.6 3313.44 1387.73 3306.78 1402.06 3297.89 1410.41 3296.78 1410.41 3294.56 1412.8 3295.67 1415.19 3296.78 1423.54 3303.44 1440.26 3307.89 1451 3304.56 1437.87 3302.33 1428.32 3301.22 1422.35 3300.11 1417.58 3301.22 1414 3302.33 1412.8Z" fill="#FFFFFF" fill-rule="evenodd"/><path d="M3292 1147C3280.82 1150.58 3274.12 1157.75 3274.12 1172.08 3273 1185.22 3273 1190 3273 1190 3275.24 1174.47 3281.94 1152.97 3292 1147Z" fill="#E16399" fill-rule="evenodd"/><path d="M3276.12 1429C3276.12 1464.7 3275 1480.17 3275 1496.83 3275 1513.49 3280.58 1531.34 3323 1548 3306.26 1540.86 3282.81 1524.2 3281.7 1490.88 3280.58 1457.56 3276.12 1429 3276.12 1429Z" fill="#E16399" fill-rule="evenodd"/><path d="M3319.62 1498.27C3319.62 1498.27 3289.58 1426.83 3287.36 1419.68 3286.24 1417.3 3286.24 1414.92 3286.24 1412.54 3286.24 1412.54 3286.24 1411.35 3286.24 1411.35 3286.24 1411.35 3286.24 1411.35 3286.24 1410.16 3286.24 1410.16 3287.36 1410.16 3287.36 1408.97 3287.36 1408.97 3287.36 1408.97 3287.36 1408.97 3287.36 1407.77 3288.47 1407.77 3288.47 1407.77 3288.47 1407.77 3288.47 1406.58 3288.47 1406.58 3289.58 1406.58 3289.58 1405.39 3290.7 1405.39 3291.81 1404.2 3292.92 1403.01 3294.03 1401.82 3295.15 1400.63 3295.15 1399.44 3296.26 1398.25 3296.26 1398.25 3297.37 1397.06 3297.37 1397.06 3298.48 1395.87 3298.48 1394.68 3299.6 1392.29 3299.6 1392.29 3299.6 1392.29 3299.6 1392.29 3304.05 1382.77 3305.16 1372.05 3300.71 1361.34 3297.37 1351.81 3289.58 1344.66 3280.68 1341.09 3274.01 1338.71 3274.01 1332.76 3274.01 1325.61 3271.78 1275.6 3271.78 1241.07 3274.01 1214.87 3275.12 1207.73 3276.23 1201.77 3277.34 1195.82 3269.56 1177.96 3257.32 1157.72 3240.63 1147 3257.32 1160.1 3265.11 1186.29 3268.44 1214.87 3270.67 1241.07 3270.67 1275.6 3268.44 1325.61 3268.44 1332.76 3268.44 1338.71 3261.77 1341.09 3252.87 1344.66 3245.08 1351.81 3241.74 1361.34 3235.07 1378.01 3240.63 1394.68 3251.75 1405.39 3256.21 1408.97 3257.32 1412.54 3255.09 1419.68 3253.98 1422.06 3250.64 1431.59 3245.08 1445.88 3245.08 1445.88 3245.08 1447.07 3243.97 1448.26 3243.97 1448.26 3243.97 1448.26 3243.97 1448.26 3233.95 1476.84 3227.28 1486.36 3223.94 1495.89 3223.94 1495.89 3223.94 1497.08 3223.94 1497.08 3223.94 1497.08 3223.94 1497.08 3223.94 1498.27 3223.94 1498.27 3223.94 1498.27 3223.94 1498.27 3221.72 1503.03 3219.49 1506.61 3218.38 1510.18 3218.38 1510.18 3218.38 1510.18 3218.38 1510.18 3206.14 1541.14 3196.13 1555.43 3185 1559 3190.56 1559 3190.56 1559 3190.56 1559 3215.04 1557.81 3259.54 1538.76 3270.67 1512.56 3270.67 1410.16 3270.67 1410.16 3270.67 1410.16 3272.89 1413.73 3280.68 1419.68 3284.02 1429.21 3285.13 1435.16 3288.47 1443.5 3292.92 1457.79 3302.93 1492.32 3326.3 1545.9 3353 1556.62 3341.87 1549.47 3331.86 1531.61 3319.62 1498.27ZM3259.54 1479.22C3257.32 1508.99 3241.74 1524.47 3233.95 1522.09 3228.39 1519.71 3260.66 1433.97 3263.99 1423.25 3262.88 1443.5 3260.66 1457.79 3259.54 1479.22Z" fill="#71003B" fill-rule="evenodd"/><path d="M3251.91 1405.06C3240.68 1394.34 3235.07 1377.67 3241.8 1361 3245.17 1351.48 3253.03 1344.33 3262.02 1340.76 3268.75 1338.38 3268.75 1332.43 3268.75 1325.28 3271 1275.27 3271 1240.74 3268.75 1214.54 3263.14 1169.29 3245.17 1130 3205.87 1140.72 3165.44 1151.43 3159.83 1196.68 3169.93 1250.26 3178.92 1302.66 3166.57 1408.63 3150.84 1466.98 3134 1525.32 3136.25 1544.38 3162.07 1556.28 3186.78 1567 3200.25 1557.47 3223.84 1497.94 3223.84 1497.94 3253.03 1426.49 3255.28 1419.35 3257.52 1412.2 3256.4 1408.63 3251.91 1405.06Z" stroke="#000000" stroke-width="2.29167" stroke-linecap="round" stroke-linejoin="round" stroke-miterlimit="10" fill="none" fill-rule="evenodd"/><path d="M3290.95 1405.06C3302.1 1394.34 3307.67 1377.67 3300.98 1361 3297.64 1351.48 3289.84 1344.33 3280.92 1340.76 3274.23 1338.38 3274.23 1332.43 3274.23 1325.28 3272 1275.27 3272 1240.74 3274.23 1214.54 3279.8 1169.29 3297.64 1130 3336.66 1140.72 3376.79 1151.43 3382.36 1196.68 3372.33 1250.26 3363.41 1302.66 3375.67 1408.63 3391.28 1466.98 3408 1525.32 3405.77 1544.38 3380.13 1556.28 3355.61 1567 3342.23 1557.47 3319.93 1497.94 3319.93 1497.94 3289.84 1426.49 3287.61 1419.35 3285.38 1412.2 3286.49 1408.63 3290.95 1405.06Z" stroke="#000000" stroke-width="2.29167" stroke-linecap="round" stroke-linejoin="round" stroke-miterlimit="10" fill="none" fill-rule="evenodd"/><path d="M3270.94 1512.24C3286.55 1545.54 3334.48 1558.62 3359 1559.81 3359 1559.81 3359 1559.81 3359 1559.81 3359 1559.81 3359 1559.81 3359 1559.81 3346.74 1556.24 3335.59 1538.4 3319.99 1497.97 3319.99 1497.97 3289.89 1426.61 3287.66 1419.48 3285.43 1412.34 3286.55 1408.77 3291.01 1405.21 3302.15 1394.5 3307.73 1377.85 3301.04 1361.2 3297.69 1351.69 3289.89 1344.55 3280.97 1340.99 3274.29 1338.61 3274.29 1332.66 3274.29 1325.53 3272.06 1275.58 3272.06 1241.09 3274.29 1214.92 3278.75 1180.43 3289.89 1148.32 3314.41 1141.19 3314.41 1141.19 3314.41 1141.19 3314.41 1141.19 3314.41 1140 3314.41 1140 3314.41 1140 3298.81 1142.38 3285.43 1145.95 3273.17 1153.08 3273.17 1154.27 3270.94 1154.27 3269.83 1154.27 3258.68 1145.95 3245.31 1143.57 3228.59 1140 3228.59 1141.19 3228.59 1141.19 3228.59 1141.19 3228.59 1141.19 3228.59 1141.19 3228.59 1141.19 3253.11 1148.32 3264.25 1180.43 3268.71 1214.92 3270.94 1241.09 3270.94 1275.58 3268.71 1325.53 3268.71 1332.66 3268.71 1338.61 3262.03 1340.99 3253.11 1344.55 3245.31 1351.69 3241.96 1361.2 3235.27 1377.85 3240.85 1394.5 3251.99 1405.21 3256.45 1408.77 3257.57 1412.34 3255.34 1419.48 3253.11 1426.61 3224.13 1497.97 3224.13 1497.97 3207.41 1538.4 3197.38 1556.24 3184 1559.81 3184 1559.81 3184 1559.81 3184 1559.81 3184 1559.81 3184 1559.81 3184 1559.81 3206.29 1561 3259.8 1540.78 3272.06 1512.24 3272.06 1512.24 3270.94 1512.24 3270.94 1512.24Z" stroke="#000000" stroke-width="2.29167" stroke-linecap="round" stroke-linejoin="round" stroke-miterlimit="10" fill="none" fill-rule="evenodd"/><path d="M0 0 0.999672 362" stroke="#000000" stroke-width="2.29167" stroke-linecap="round" stroke-linejoin="round" stroke-miterlimit="10" fill="none" fill-rule="evenodd" transform="matrix(1 0 0 -1 3271 1516)"/></g></svg>