<svg width="264" height="428" xmlns="http://www.w3.org/2000/svg" xmlns:xlink="http://www.w3.org/1999/xlink" xml:space="preserve" overflow="hidden"><g transform="translate(-2723 -1173)"><path d="M2762.36 1218.59C2736.44 1216 2717 1278.1 2727.37 1332.44 2737.73 1386.77 2763.65 1454.05 2757.17 1498.03 2749.4 1540.73 2745.51 1560.13 2764.95 1584.71 2784.39 1608 2824.56 1600.24 2834.93 1575.66 2844 1552.37 2841.41 1425.58 2841.41 1402.3 2841.41 1379.01 2811.6 1218.59 2762.36 1218.59Z" fill="#003DFF" fill-rule="evenodd"/><path d="M2732.83 1331.88C2735.44 1350.01 2740.67 1368.14 2745.89 1386.26 2756.33 1426.4 2766.78 1467.84 2761.56 1496.32 2760.25 1504.09 2760.25 1504.09 2760.25 1504.09 2757.64 1524.81 2757.64 1539.05 2758.94 1552 2758.94 1552 2758.94 1552 2758.94 1552 2757.64 1539.05 2762.86 1524.81 2765.47 1505.39 2766.78 1497.62 2766.78 1497.62 2766.78 1497.62 2772 1466.54 2764.17 1425.11 2753.72 1384.97 2748.5 1366.84 2744.58 1348.71 2740.67 1331.88 2734.14 1293.04 2735.44 1246.42 2752.42 1227 2752.42 1227 2752.42 1227 2752.42 1227 2734.14 1247.72 2725 1293.04 2732.83 1331.88Z" fill="#FFFFFF" fill-rule="evenodd"/><path d="M2841.41 1402.46C2841.41 1383.07 2820.68 1278.37 2789.58 1237 2810.31 1286.12 2824.56 1390.83 2824.56 1406.34 2824.56 1430.9 2825.86 1523.98 2816.79 1548.54 2807.72 1570.51 2772.73 1579.56 2752 1558.88 2753.3 1567.93 2758.48 1575.68 2764.96 1584.73 2784.39 1608 2824.56 1600.24 2834.93 1575.68 2844 1552.41 2841.41 1425.73 2841.41 1402.46Z" fill="#0024EB" fill-rule="evenodd"/><path d="M2923.64 1218.59C2949.56 1216 2969 1278.1 2958.63 1332.44 2948.27 1386.77 2922.35 1454.05 2928.83 1498.03 2936.6 1540.73 2940.49 1560.13 2921.05 1584.71 2901.61 1608 2861.44 1600.24 2851.07 1575.66 2842 1552.37 2844.59 1425.58 2844.59 1402.3 2844.59 1379.01 2874.4 1218.59 2923.64 1218.59Z" fill="#003DFF" fill-rule="evenodd"/><path d="M2964.41 1210.66C2929.47 1174.45 2815.59 1146 2747 1224.88 2747 1224.88 2747 1224.88 2747 1224.88 2752.18 1221 2757.35 1218.41 2762.53 1218.41 2811.71 1218.41 2841.47 1378.76 2841.47 1402.03 2841.47 1425.31 2844.06 1552.03 2835 1575.31 2831.12 1585.66 2819.47 1592.12 2809.12 1596 2809.12 1596 2809.12 1596 2809.12 1596 2820.76 1593.41 2827.24 1592.12 2841.47 1592.12 2854.41 1592.12 2864.76 1593.41 2877.71 1596 2877.71 1596 2877.71 1596 2877.71 1596 2867.35 1593.41 2854.41 1585.66 2850.53 1575.31 2841.47 1552.03 2844.06 1425.31 2844.06 1402.03 2844.06 1378.76 2873.82 1218.41 2923 1218.41 2948.88 1215.83 2968.29 1277.9 2957.94 1332.21 2947.59 1386.52 2921.71 1453.76 2928.18 1497.72 2935.94 1540.4 2939.82 1559.79 2920.41 1584.36 2915.24 1590.83 2908.76 1594.71 2902.29 1596 2913.94 1594.71 2929.47 1583.07 2938.53 1572.72 2957.94 1549.45 2959.24 1523.59 2951.47 1479.62 2945 1436.95 2970.88 1369.71 2981.24 1315.4 2989 1274.02 2983.82 1233.93 2964.41 1210.66Z" fill="#000BD3" fill-rule="evenodd"/><path d="M2913.67 1220.76C2924 1211.7 2908.51 1191 2855.58 1192.29 2801.36 1193.59 2782 1214.29 2789.75 1236.29 2791.04 1237.58 2791.04 1237.58 2791.04 1237.58 2820.73 1280.28 2841.38 1383.8 2841.38 1401.91 2841.38 1425.2 2843.96 1552.01 2834.93 1575.3 2831.05 1585.65 2819.44 1592.12 2809.11 1596 2820.73 1593.41 2827.18 1592.12 2841.38 1592.12 2854.29 1592.12 2864.62 1593.41 2877.53 1596 2867.2 1593.41 2854.29 1585.65 2850.42 1575.3 2841.38 1552.01 2843.96 1425.2 2843.96 1401.91 2843.96 1379.91 2871.07 1238.88 2913.67 1220.76Z" fill="#0000B2" fill-rule="evenodd"/><path d="M2856.07 1202C2856.07 1203.29 2856.07 1203.29 2856.07 1203.29 2867.58 1203.29 2875.26 1207.16 2882.93 1208.45 2886.77 1209.74 2889.33 1211.03 2889.33 1213.61 2890.6 1216.19 2889.33 1221.35 2886.77 1225.23 2847.12 1271.68 2843.28 1391.68 2843.28 1400.71 2842 1402 2842 1402 2842 1402 2842 1392.97 2853.51 1272.97 2891.88 1227.81 2894.44 1223.94 2897 1217.48 2895.72 1211.03 2894.44 1208.45 2891.88 1204.58 2885.49 1203.29 2877.81 1202 2867.58 1202 2856.07 1202Z" fill="#FFFFFF" fill-rule="evenodd"/><path d="M2855.58 1192.29C2801.36 1193.59 2782 1214.29 2789.75 1236.29 2791.04 1237.58 2791.04 1237.58 2791.04 1237.58 2820.73 1280.28 2841.38 1383.8 2841.38 1401.91 2841.38 1425.2 2843.96 1552.01 2834.93 1575.3 2831.05 1585.65 2819.44 1592.12 2809.11 1596 2820.73 1593.41 2827.18 1592.12 2841.38 1592.12 2854.29 1592.12 2864.62 1593.41 2877.53 1596 2867.2 1593.41 2854.29 1585.65 2850.42 1575.3 2841.38 1552.01 2843.96 1425.2 2843.96 1401.91 2843.96 1379.91 2871.07 1238.88 2913.67 1220.76 2924 1211.7 2908.51 1191 2855.58 1192.29ZM2841.38 1580.47C2840.09 1580.47 2843.96 1580.47 2841.38 1580.47 2842.67 1580.47 2842.67 1580.47 2842.67 1579.18 2843.96 1574 2840.09 1563.65 2841.38 1550.71 2842.67 1563.65 2840.09 1574 2842.67 1579.18 2842.67 1580.47 2842.67 1580.47 2842.67 1580.47 2841.38 1580.47 2842.67 1580.47 2841.38 1580.47ZM2889.15 1225.94C2851.71 1271.22 2841.38 1390.27 2841.38 1401.91 2841.38 1401.91 2841.38 1418.73 2841.38 1423.91 2841.38 1418.73 2843.96 1401.91 2843.96 1401.91 2843.96 1381.21 2832.35 1278.99 2801.36 1232.41 2801.36 1232.41 2801.36 1232.41 2801.36 1232.41 2801.36 1231.11 2800.07 1229.82 2800.07 1228.52 2800.07 1227.23 2801.36 1224.64 2802.65 1223.35 2807.82 1214.29 2819.44 1203.94 2855.58 1203.94 2868.49 1202.65 2877.53 1203.94 2885.27 1205.23 2898.18 1207.82 2894.31 1220.76 2889.15 1225.94Z" fill="#000094" fill-rule="evenodd"/><path d="M2858.6 1577C2850.87 1558.86 2854.73 1470.74 2856.02 1429.27 2857.31 1403.35 2857.31 1403.35 2857.31 1403.35 2857.31 1385.21 2872.78 1267.28 2905 1231 2905 1231 2905 1231 2905 1231 2870.2 1268.58 2849.58 1382.62 2849.58 1404.65 2849.58 1430.57 2849.58 1430.57 2849.58 1430.57 2847 1492.77 2850.87 1557.56 2858.6 1577" fill="#FFFFFF" fill-rule="evenodd"/><path d="M2948.62 1259C2953.68 1280.93 2954.94 1308.01 2949.88 1332.52 2947.35 1349.29 2942.29 1367.34 2938.5 1385.4 2927.12 1425.38 2917 1466.66 2922.06 1497.61 2928.38 1535.02 2929.65 1555.65 2917 1575 2917 1575 2917 1575 2917 1575 2929.65 1554.36 2932.18 1536.31 2925.85 1496.32 2922.06 1467.95 2932.18 1426.67 2942.29 1386.69 2947.35 1368.63 2951.15 1350.58 2954.94 1332.52 2960 1306.72 2953.68 1282.22 2948.62 1259Z" fill="#FFFFFF" fill-rule="evenodd"/><path d="M2943.82 1239C2952.84 1262.32 2947.68 1305.07 2942.53 1333.57 2939.95 1350.41 2934.79 1368.55 2929.63 1386.68 2919.32 1426.84 2909 1469.59 2914.16 1500.68 2914.16 1507.16 2914.16 1507.16 2914.16 1507.16 2920.61 1542.14 2927.05 1562.86 2914.16 1581 2914.16 1581 2914.16 1581 2914.16 1581 2929.63 1560.27 2929.63 1542.14 2924.47 1505.86 2923.18 1499.39 2923.18 1499.39 2923.18 1499.39 2918.03 1469.59 2928.34 1428.14 2938.66 1389.27 2943.82 1371.14 2948.97 1351.7 2951.55 1334.86 2958 1305.07 2954.13 1263.61 2943.82 1239Z" fill="#0024EB" fill-rule="evenodd"/><path d="M2951.6 1246C2962.11 1269.23 2963.43 1305.37 2958.17 1333.77 2955.54 1350.55 2950.29 1368.62 2945.03 1386.69 2934.51 1426.7 2924 1469.29 2929.26 1500.27 2929.26 1506.72 2929.26 1506.72 2929.26 1506.72 2935.83 1541.57 2937.14 1559.64 2924 1579 2924 1579 2924 1579 2924 1579 2939.77 1557.06 2945.03 1541.57 2939.77 1505.43 2938.46 1498.98 2938.46 1498.98 2938.46 1498.98 2933.2 1469.29 2941.09 1427.99 2951.6 1387.98 2955.54 1369.91 2960.8 1351.84 2964.74 1335.06 2970 1304.08 2962.11 1270.52 2951.6 1246Z" fill="#0000AF" fill-rule="evenodd"/><path d="M2944.9 1550.66C2942.3 1551.95 2939.7 1548.07 2939.7 1542.89 2934.5 1542.89 2934.5 1542.89 2934.5 1542.89 2934.5 1558.43 2930.6 1570.09 2920.2 1584.34 2915 1590.82 2908.5 1594.7 2902 1596 2913.7 1594.7 2929.3 1583.05 2938.4 1572.68 2947.5 1562.32 2952.7 1551.95 2954 1539 2952.7 1544.18 2948.8 1549.36 2944.9 1550.66Z" fill="#0000AF" fill-rule="evenodd"/><path d="M2838 1344.42C2838 1352.12 2844.36 1355.97 2848.18 1346.98 2852 1338 2846.91 1363.67 2846.91 1363.67 2846.91 1363.67 2843.09 1421.43 2843.09 1422.72 2843.09 1424 2841.82 1404.75 2841.82 1404.75" fill="#000094" fill-rule="evenodd"/><path d="M2762.86 1219.09C2736.94 1216.5 2717.5 1278.6 2727.87 1332.94 2738.23 1387.27 2764.15 1454.55 2757.67 1498.53 2749.9 1541.23 2746.01 1560.63 2765.45 1585.21 2784.89 1608.5 2825.06 1600.74 2835.43 1576.16 2844.5 1552.87 2841.91 1426.08 2841.91 1402.8 2841.91 1379.51 2812.1 1219.09 2762.86 1219.09Z" stroke="#000073" stroke-width="2.86476" stroke-linecap="round" stroke-linejoin="round" stroke-miterlimit="10" fill="none" fill-rule="evenodd"/><path d="M2924.14 1219.09C2950.06 1216.5 2969.5 1278.6 2959.13 1332.94 2948.77 1387.27 2922.85 1454.55 2929.33 1498.53 2937.1 1541.23 2940.99 1560.63 2921.55 1585.21 2902.11 1608.5 2861.94 1600.74 2851.57 1576.16 2842.5 1552.87 2845.09 1426.08 2845.09 1402.8 2845.09 1379.51 2874.9 1219.09 2924.14 1219.09Z" stroke="#000073" stroke-width="2.86476" stroke-linecap="round" stroke-linejoin="round" stroke-miterlimit="10" fill="none" fill-rule="evenodd"/><path d="M2964.91 1211.16C2929.97 1174.95 2816.09 1146.5 2747.5 1225.38 2747.5 1225.38 2747.5 1225.38 2747.5 1225.38 2752.68 1221.5 2757.85 1218.91 2763.03 1218.91 2812.21 1218.91 2841.97 1379.26 2841.97 1402.53 2841.97 1425.81 2844.56 1552.53 2835.5 1575.81 2831.62 1586.16 2819.97 1592.62 2809.62 1596.5 2809.62 1596.5 2809.62 1596.5 2809.62 1596.5 2821.26 1593.91 2827.74 1592.62 2841.97 1592.62 2854.91 1592.62 2865.26 1593.91 2878.21 1596.5 2878.21 1596.5 2878.21 1596.5 2878.21 1596.5 2867.85 1593.91 2854.91 1586.16 2851.03 1575.81 2841.97 1552.53 2844.56 1425.81 2844.56 1402.53 2844.56 1379.26 2874.32 1218.91 2923.5 1218.91 2949.38 1216.33 2968.79 1278.4 2958.44 1332.71 2948.09 1387.02 2922.21 1454.26 2928.68 1498.22 2936.44 1540.9 2940.32 1560.29 2920.91 1584.86 2915.74 1591.33 2909.26 1595.21 2902.79 1596.5 2914.44 1595.21 2929.97 1583.57 2939.03 1573.22 2958.44 1549.95 2959.74 1524.09 2951.97 1480.12 2945.5 1437.45 2971.38 1370.21 2981.74 1315.9 2989.5 1274.52 2984.32 1234.43 2964.91 1211.16Z" stroke="#000073" stroke-width="2.86476" stroke-linecap="round" stroke-linejoin="round" stroke-miterlimit="10" fill="none" fill-rule="evenodd"/><path d="M2914.17 1221.26C2924.5 1212.2 2909.01 1191.5 2856.08 1192.79 2801.86 1194.09 2782.5 1214.79 2790.25 1236.79 2791.54 1238.08 2791.54 1238.08 2791.54 1238.08 2821.23 1280.78 2840.59 1384.3 2841.88 1402.41 2843.17 1432.17 2844.46 1552.51 2835.43 1575.8 2831.55 1586.15 2819.94 1592.62 2809.61 1596.5 2821.23 1593.91 2827.68 1592.62 2841.88 1592.62 2854.79 1592.62 2865.12 1593.91 2878.03 1596.5 2867.7 1593.91 2854.79 1586.15 2850.92 1575.8 2841.88 1552.51 2843.17 1430.88 2844.46 1402.41 2845.75 1380.41 2871.57 1239.38 2914.17 1221.26Z" stroke="#000073" stroke-width="2.86476" stroke-linecap="round" stroke-linejoin="round" stroke-miterlimit="10" fill="none" fill-rule="evenodd"/></g></svg>