<svg width="215" height="415" xmlns="http://www.w3.org/2000/svg" xmlns:xlink="http://www.w3.org/1999/xlink" xml:space="preserve" overflow="hidden"><g transform="translate(-2803 -1137)"><path d="M2890.94 1375.68C2878.61 1366.14 2874.12 1348.25 2879.73 1332.75 2884.21 1322.01 2892.06 1314.86 2901.03 1311.28 2906.64 1308.9 2906.64 1302.93 2907.76 1295.78 2910 1245.69 2910 1240.91 2907.76 1214.68 2902.15 1169.36 2884.21 1130 2843.85 1140.73 2804.61 1150.27 2799 1196.79 2807.97 1250.46 2814.7 1294.58 2829.27 1449.63 2831.52 1478.25 2837.12 1539.07 2841.61 1551 2868.52 1551 2896.55 1551 2910 1523.57 2910 1487.79 2910 1487.79 2908.88 1400.73 2908.88 1393.57 2908.88 1387.61 2907.76 1385.22 2903.27 1382.84 2903.27 1382.84 2896.55 1380.45 2890.94 1375.68Z" fill="#E16399" fill-rule="evenodd"/><path d="M2896.24 1383.53C2896.24 1383.53 2889.59 1381.15 2884.04 1376.38 2871.85 1366.85 2867.41 1344.21 2872.96 1328.72 2877.39 1319.19 2885.15 1310.85 2894.02 1307.28 2899.57 1304.89 2899.57 1298.94 2900.67 1291.79 2902.89 1241.74 2904 1241.74 2901.78 1215.53 2898.46 1185.74 2888.48 1161.91 2870.74 1150 2878.5 1163.11 2882.94 1179.79 2885.15 1202.43 2888.48 1228.64 2887.37 1231.02 2885.15 1282.26 2885.15 1289.4 2881.83 1297.74 2875.17 1303.7 2867.41 1310.85 2862.98 1318 2859.65 1328.72 2853 1344.21 2856.33 1368.04 2869.63 1379.96 2891.8 1401.4 2892.91 1481.23 2892.91 1481.23 2892.91 1511.02 2896.24 1516.98 2887.37 1542 2898.46 1531.28 2904 1511.02 2904 1488.38 2904 1488.38 2901.78 1401.4 2901.78 1394.26 2901.78 1388.3 2900.67 1385.91 2896.24 1383.53Z" fill="#D80075" fill-rule="evenodd"/><path d="M2844.12 1480.68C2841.88 1453.28 2841.88 1298.43 2835.18 1255.54 2826.24 1204.32 2820.65 1140 2865.35 1145.96 2865.35 1145.96 2865.35 1145.96 2865.35 1145.96 2859.76 1143.57 2851.94 1143.57 2844.12 1145.96 2806.12 1155.49 2805 1204.32 2813.94 1255.54 2820.65 1298.43 2834.06 1444.94 2836.29 1471.15 2841.88 1529.51 2845.24 1545 2872.06 1545 2875.41 1545 2877.65 1545 2881 1543.81 2865.35 1540.24 2848.59 1528.32 2844.12 1480.68Z" fill="#F4CDDE" fill-rule="evenodd"/><path d="M2836.2 1471C2833.97 1444.81 2820.6 1298.38 2813.91 1255.52 2805 1204.33 2806.11 1155.52 2844 1146 2830.63 1153.14 2816.14 1172.19 2816.14 1210.29 2816.14 1249.57 2836.2 1398.38 2836.2 1471Z" fill="#FFFFFF" fill-rule="evenodd"/><path d="M2930.06 1375.68C2941.27 1366.14 2946.88 1348.25 2940.15 1332.75 2936.79 1322.01 2928.94 1314.86 2919.97 1311.28 2914.36 1308.9 2913.24 1302.93 2913.24 1295.78 2911 1245.69 2911 1240.91 2913.24 1214.68 2918.85 1169.36 2936.79 1130 2976.03 1140.73 3016.39 1150.27 3022 1196.79 3013.03 1250.46 3005.18 1294.58 2991.73 1449.63 2988.36 1478.25 2983.88 1539.07 2979.39 1551 2951.36 1551 2924.45 1551 2911 1523.57 2911 1487.79 2911 1487.79 2911 1400.73 2911 1393.57 2911 1387.61 2913.24 1385.22 2916.61 1382.84 2917.73 1382.84 2924.45 1380.45 2930.06 1375.68Z" fill="#E16399" fill-rule="evenodd"/><path d="M2915.09 1520.37C2913.97 1517.98 2913.97 1515.6 2912.86 1513.21 2912.86 1513.21 2912.86 1513.21 2912.86 1513.21 2911.74 1508.44 2911.74 1502.47 2910.62 1497.7 2910.62 1496.51 2910.62 1496.51 2910.62 1496.51 2910.62 1492.93 2910.62 1490.54 2910.62 1488.16 2910.62 1488.16 2910.62 1460.72 2910.62 1424.93 2910.62 1393.91 2910.62 1393.91 2910.62 1393.91 2910.62 1387.95 2912.86 1385.56 2916.21 1383.18 2917.33 1383.18 2924.04 1380.79 2929.63 1376.02 2940.82 1366.47 2946.41 1348.58 2939.7 1333.07 2936.34 1322.33 2928.51 1315.18 2919.57 1311.6 2913.97 1309.21 2912.86 1303.25 2912.86 1296.09 2910.62 1245.98 2910.62 1241.21 2912.86 1214.96 2917.33 1180.37 2928.51 1148.16 2952 1141 2936.34 1143.39 2922.92 1145.77 2911.74 1154.12 2910.62 1155.32 2909.5 1154.12 2908.38 1154.12 2897.2 1145.77 2883.78 1143.39 2867 1141 2891.6 1148.16 2902.79 1180.37 2907.26 1214.96 2909.5 1241.21 2909.5 1245.98 2907.26 1296.09 2906.14 1303.25 2906.14 1309.21 2900.55 1311.6 2891.6 1315.18 2883.78 1322.33 2879.3 1333.07 2873.71 1348.58 2878.18 1366.47 2890.49 1376.02 2896.08 1380.79 2902.79 1383.18 2902.79 1383.18 2907.26 1385.56 2908.38 1387.95 2908.38 1393.91 2908.38 1424.93 2908.38 1424.93 2908.38 1424.93 2908.38 1460.72 2909.5 1488.16 2909.5 1488.16 2909.5 1490.54 2908.38 1494.12 2908.38 1496.51 2908.38 1496.51 2908.38 1497.7 2908.38 1497.7 2908.38 1500.09 2908.38 1503.67 2907.26 1506.05 2907.26 1506.05 2907.26 1506.05 2907.26 1507.25 2907.26 1512.02 2906.14 1516.79 2903.91 1521.56 2899.43 1535.88 2891.6 1545.42 2879.3 1549 2879.3 1549 2879.3 1549 2879.3 1549 2879.3 1549 2879.3 1549 2879.3 1549 2879.3 1549 2879.3 1549 2879.3 1549 2879.3 1549 2879.3 1549 2879.3 1549 2887.13 1547.81 2896.08 1545.42 2905.03 1544.23 2906.14 1544.23 2907.26 1544.23 2908.38 1544.23 2908.38 1544.23 2909.5 1544.23 2909.5 1544.23 2910.62 1544.23 2910.62 1544.23 2911.74 1544.23 2912.86 1544.23 2913.97 1544.23 2915.09 1544.23 2924.04 1545.42 2932.99 1547.81 2939.7 1549 2939.7 1549 2939.7 1549 2939.7 1549 2939.7 1549 2939.7 1549 2940.82 1549 2940.82 1549 2940.82 1549 2940.82 1549 2940.82 1549 2940.82 1549 2940.82 1549 2928.51 1545.42 2919.57 1534.68 2915.09 1520.37Z" fill="#AA005C" fill-rule="evenodd"/><path d="M2902.89 1494C2902.89 1494 2904 1403.72 2904 1396.59 2904 1389.47 2901.77 1385.9 2896.2 1383.53 2881.71 1379.96 2870.57 1360.96 2870.57 1344.33 2870.57 1333.64 2875.03 1322.95 2882.83 1317.01 2887.29 1312.25 2901.77 1305.13 2899.54 1298 2899.54 1301.56 2883.94 1307.5 2877.26 1315.82 2869.46 1324.13 2865 1332.45 2865 1345.52 2865 1358.58 2873.91 1377.59 2885.06 1383.53 2897.31 1389.47 2900.66 1394.22 2901.77 1403.72 2902.89 1413.22 2902.89 1494 2902.89 1494Z" fill="#AA005C" fill-rule="evenodd"/><path d="M2923.67 1383.53C2924.78 1383.53 2931.44 1381.15 2937 1376.38 2949.22 1366.85 2953.67 1344.21 2948.11 1328.72 2943.67 1319.19 2935.89 1310.85 2927 1307.28 2921.44 1304.89 2921.44 1298.94 2920.33 1291.79 2918.11 1241.74 2917 1241.74 2919.22 1215.53 2922.56 1185.74 2932.56 1161.91 2950.33 1150 2942.56 1163.11 2938.11 1179.79 2935.89 1202.43 2932.56 1228.64 2933.67 1231.02 2935.89 1282.26 2935.89 1289.4 2939.22 1297.74 2945.89 1303.7 2953.67 1310.85 2958.11 1318 2961.44 1328.72 2967 1344.21 2963.67 1368.04 2950.33 1379.96 2929.22 1401.4 2927 1481.23 2927 1481.23 2927 1511.02 2924.78 1516.98 2933.67 1542 2922.56 1531.28 2917 1511.02 2917 1488.38 2917 1488.38 2918.11 1401.4 2918.11 1394.26 2918.11 1388.3 2920.33 1385.91 2923.67 1383.53Z" fill="#F4CDDE" fill-rule="evenodd"/><path d="M2975.76 1480.68C2979.12 1453.28 2979.12 1298.43 2985.82 1255.54 2994.76 1204.32 3000.35 1140 2955.65 1145.96 2955.65 1145.96 2955.65 1145.96 2955.65 1145.96 2961.24 1143.57 2969.06 1143.57 2976.88 1145.96 3014.88 1155.49 3016 1204.32 3007.06 1255.54 3000.35 1298.43 2986.94 1444.94 2984.71 1471.15 2979.12 1529.51 2975.76 1545 2948.94 1545 2945.59 1545 2942.24 1545 2940 1543.81 2955.65 1540.24 2972.41 1528.32 2975.76 1480.68Z" fill="#D80075" fill-rule="evenodd"/><path d="M2984.8 1471C2987.03 1444.81 3000.4 1298.38 3007.09 1255.52 3016 1204.33 3014.89 1155.52 2977 1146 2990.37 1153.14 3004.86 1172.19 3004.86 1210.29 3004.86 1249.57 2984.8 1398.38 2984.8 1471Z" fill="#AA005C" fill-rule="evenodd"/><path d="M2908.82 1529.92C2913.31 1523.95 2918.92 1528.72 2918.92 1528.72 2918.92 1528.72 2918.92 1528.72 2918.92 1527.53 2917.8 1525.14 2916.68 1522.76 2915.55 1520.37 2914.43 1517.99 2914.43 1515.6 2913.31 1513.22 2913.31 1513.22 2913.31 1513.22 2913.31 1513.22 2912.18 1508.45 2912.18 1502.48 2911.06 1497.71 2911.06 1496.52 2911.06 1496.52 2911.06 1496.52 2911.06 1492.94 2911.06 1490.55 2911.06 1488.17 2911.06 1488.17 2911.06 1460.73 2911.06 1424.95 2911.06 1393.94 2911.06 1393.94 2911.06 1393.94 2911.06 1387.98 2913.31 1385.59 2916.68 1383.2 2917.8 1383.2 2924.54 1380.82 2930.15 1376.05 2941.38 1366.51 2947 1348.61 2940.26 1333.11 2936.89 1322.37 2929.03 1315.22 2920.05 1311.64 2914.43 1309.25 2913.31 1303.29 2913.31 1296.13 2911.06 1246.04 2911.06 1241.26 2913.31 1215.02 2912.18 1206.67 2911.06 1195.94 2908.82 1186.4 2904.32 1170.89 2894.22 1160.16 2885.23 1153 2897.58 1167.31 2904.32 1189.98 2907.69 1215.02 2909.94 1241.26 2909.94 1246.04 2907.69 1296.13 2906.57 1303.29 2906.57 1309.25 2900.95 1311.64 2891.97 1315.22 2884.11 1322.37 2879.62 1333.11 2874 1348.61 2878.49 1366.51 2890.85 1376.05 2896.46 1380.82 2903.2 1383.2 2903.2 1383.2 2907.69 1385.59 2908.82 1387.98 2908.82 1393.94 2908.82 1424.95 2908.82 1424.95 2908.82 1424.95 2908.82 1460.73 2909.94 1488.17 2909.94 1488.17 2909.94 1490.55 2908.82 1494.13 2908.82 1496.52 2908.82 1496.52 2908.82 1497.71 2908.82 1497.71 2908.82 1500.1 2908.82 1503.67 2907.69 1506.06 2907.69 1506.06 2907.69 1506.06 2907.69 1507.25 2907.69 1512.02 2906.57 1516.8 2904.32 1521.57 2899.83 1535.88 2891.97 1545.42 2879.62 1549 2879.62 1549 2879.62 1549 2879.62 1549 2879.62 1549 2879.62 1549 2879.62 1549 2879.62 1549 2879.62 1549 2879.62 1549 2879.62 1549 2879.62 1549 2879.62 1549 2884.11 1549 2887.48 1547.81 2891.97 1546.61 2899.83 1539.46 2907.69 1532.3 2908.82 1529.92Z" fill="#71003B" fill-rule="evenodd"/><path d="M2929 1150C2921 1152.4 2914.14 1156 2914.14 1163.2 2913 1170.4 2913 1187.2 2913 1192 2914.14 1186 2914.14 1154.8 2929 1150Z" fill="#E16399" fill-rule="evenodd"/><path d="M2943.55 1315.13C2939.03 1310.36 2932.24 1306.78 2926.58 1303.21 2925.45 1302.02 2924.32 1299.63 2923.18 1293.67 2923.18 1282.94 2913 1219.74 2927.71 1178 2925.45 1185.15 2915.26 1212.58 2916.39 1265.05 2917.53 1281.74 2919.79 1299.63 2919.79 1299.63 2919.79 1299.63 2919.79 1299.63 2919.79 1299.63 2922.05 1305.59 2933.37 1311.55 2937.89 1316.32 2945.82 1322.29 2950.34 1333.02 2950.34 1343.75 2950.34 1360.45 2939.03 1379.52 2924.32 1383.1 2918.66 1385.49 2916.39 1389.06 2916.39 1396.22 2916.39 1403.37 2917.53 1494 2917.53 1494 2917.53 1494 2917.53 1412.91 2918.66 1403.37 2919.79 1393.83 2923.18 1389.06 2934.5 1383.1 2946.95 1377.14 2956 1358.06 2956 1344.94 2956 1331.83 2951.47 1323.48 2943.55 1315.13Z" fill="#FFFFFF" fill-rule="evenodd"/><path d="M2890.94 1375.68C2878.61 1366.14 2874.12 1348.25 2879.73 1332.75 2884.21 1322.01 2892.06 1314.86 2901.03 1311.28 2906.64 1308.9 2906.64 1302.93 2907.76 1295.78 2910 1245.69 2910 1240.91 2907.76 1214.68 2902.15 1169.36 2884.21 1130 2843.85 1140.73 2804.61 1150.27 2799 1196.79 2807.97 1250.46 2814.7 1294.58 2829.27 1449.63 2831.52 1478.25 2837.12 1539.07 2841.61 1551 2868.52 1551 2896.55 1551 2910 1523.57 2910 1487.79 2910 1487.79 2908.88 1400.73 2908.88 1393.57 2908.88 1387.61 2907.76 1385.22 2903.27 1382.84 2903.27 1382.84 2896.55 1380.45 2890.94 1375.68Z" stroke="#000000" stroke-width="2.29167" stroke-linecap="round" stroke-linejoin="round" stroke-miterlimit="10" fill="none" fill-rule="evenodd"/><path d="M2930.06 1375.68C2941.27 1366.14 2946.88 1348.25 2940.15 1332.75 2936.79 1322.01 2928.94 1314.86 2919.97 1311.28 2914.36 1308.9 2913.24 1302.93 2913.24 1295.78 2911 1245.69 2911 1240.91 2913.24 1214.68 2918.85 1169.36 2936.79 1130 2976.03 1140.73 3016.39 1150.27 3022 1196.79 3013.03 1250.46 3005.18 1294.58 2991.73 1449.63 2988.36 1478.25 2983.88 1539.07 2979.39 1551 2951.36 1551 2924.45 1551 2911 1523.57 2911 1487.79 2911 1487.79 2911 1400.73 2911 1393.57 2911 1387.61 2913.24 1385.22 2916.61 1382.84 2917.73 1382.84 2924.45 1380.45 2930.06 1375.68Z" stroke="#000000" stroke-width="2.29167" stroke-linecap="round" stroke-linejoin="round" stroke-miterlimit="10" fill="none" fill-rule="evenodd"/><path d="M2915.09 1520.37C2913.97 1517.98 2913.97 1515.6 2912.86 1513.21 2912.86 1513.21 2912.86 1513.21 2912.86 1513.21 2911.74 1508.44 2911.74 1502.47 2910.62 1497.7 2910.62 1496.51 2910.62 1496.51 2910.62 1496.51 2910.62 1492.93 2910.62 1490.54 2910.62 1488.16 2910.62 1488.16 2910.62 1460.72 2910.62 1424.93 2910.62 1393.91 2910.62 1393.91 2910.62 1393.91 2910.62 1387.95 2912.86 1385.56 2916.21 1383.18 2917.33 1383.18 2924.04 1380.79 2929.63 1376.02 2940.82 1366.47 2946.41 1348.58 2939.7 1333.07 2936.34 1322.33 2928.51 1315.18 2919.57 1311.6 2913.97 1309.21 2912.86 1303.25 2912.86 1296.09 2910.62 1245.98 2910.62 1241.21 2912.86 1214.96 2917.33 1180.37 2928.51 1148.16 2952 1141 2936.34 1143.39 2922.92 1145.77 2911.74 1154.12 2910.62 1155.32 2909.5 1154.12 2908.38 1154.12 2897.2 1145.77 2883.78 1143.39 2867 1141 2891.6 1148.16 2902.79 1180.37 2907.26 1214.96 2909.5 1241.21 2909.5 1245.98 2907.26 1296.09 2906.14 1303.25 2906.14 1309.21 2900.55 1311.6 2891.6 1315.18 2883.78 1322.33 2879.3 1333.07 2873.71 1348.58 2878.18 1366.47 2890.49 1376.02 2896.08 1380.79 2902.79 1383.18 2902.79 1383.18 2907.26 1385.56 2908.38 1387.95 2908.38 1393.91 2908.38 1424.93 2908.38 1424.93 2908.38 1424.93 2908.38 1460.72 2909.5 1488.16 2909.5 1488.16 2909.5 1490.54 2908.38 1494.12 2908.38 1496.51 2908.38 1496.51 2908.38 1497.7 2908.38 1497.7 2908.38 1500.09 2908.38 1503.67 2907.26 1506.05 2907.26 1506.05 2907.26 1506.05 2907.26 1507.25 2907.26 1512.02 2906.14 1516.79 2903.91 1521.56 2899.43 1535.88 2891.6 1545.42 2879.3 1549 2879.3 1549 2879.3 1549 2879.3 1549 2879.3 1549 2879.3 1549 2879.3 1549 2879.3 1549 2879.3 1549 2879.3 1549 2879.3 1549 2879.3 1549 2879.3 1549 2887.13 1547.81 2896.08 1545.42 2905.03 1544.23 2906.14 1544.23 2907.26 1544.23 2908.38 1544.23 2908.38 1544.23 2909.5 1544.23 2909.5 1544.23 2910.62 1544.23 2910.62 1544.23 2911.74 1544.23 2912.86 1544.23 2913.97 1544.23 2915.09 1544.23 2924.04 1545.42 2932.99 1547.81 2939.7 1549 2939.7 1549 2939.7 1549 2939.7 1549 2939.7 1549 2939.7 1549 2940.82 1549 2940.82 1549 2940.82 1549 2940.82 1549 2940.82 1549 2940.82 1549 2940.82 1549 2928.51 1545.42 2919.57 1534.68 2915.09 1520.37Z" stroke="#000000" stroke-width="2.29167" stroke-linecap="round" stroke-linejoin="round" stroke-miterlimit="10" fill="none" fill-rule="evenodd"/><path d="M2910 1156C2912 1160.74 2911 1196.26 2911 1246" stroke="#000000" stroke-width="2.29167" stroke-linecap="round" stroke-linejoin="round" stroke-miterlimit="10" fill="none" fill-rule="evenodd"/></g></svg>