<svg width="263" height="439" xmlns="http://www.w3.org/2000/svg" xmlns:xlink="http://www.w3.org/1999/xlink" xml:space="preserve" overflow="hidden"><g transform="translate(-2444 -1787)"><path d="M2492.65 2219C2573 2219 2540.6 2053.81 2513.38 1967.34 2492.65 1902.82 2505.61 1837 2465.43 1837 2464.14 1837 2464.14 1837 2464.14 1837 2423.96 1837 2458.95 1900.24 2470.62 1967.34 2487.46 2068.01 2411 2219 2491.35 2219L2492.65 2219Z" fill="#FFFFBC" fill-rule="evenodd"/><path d="M2499.5 2222.5 2500.5 2223.5" stroke="#FFFFFF" stroke-width="5.15643" stroke-miterlimit="8" fill="none" fill-rule="evenodd"/><path d="M2461.21 1912.84C2466.31 1929.63 2471.41 1950.3 2475.24 1970.97 2481.62 2009.73 2473.97 2057.53 2467.59 2098.86 2461.21 2132.45 2456.1 2164.75 2458.66 2188 2458.66 2188 2458.66 2188 2458.66 2188 2456.1 2166.04 2468.86 2132.45 2473.97 2098.86 2480.34 2056.23 2488 2008.44 2481.62 1968.39 2477.79 1949.01 2472.69 1928.34 2467.59 1910.26 2461.21 1888.3 2451 1868.92 2451 1856 2451 1856 2451 1856 2451 1856 2451 1870.21 2454.83 1890.88 2461.21 1912.84Z" fill="#FFFFFF" fill-rule="evenodd"/><path d="M2513.41 1967.15C2493.98 1906.45 2503.05 1844.46 2471.95 1838 2496.57 1867.71 2488.8 1915.49 2503.05 1960.69 2530.25 2045.94 2553.57 2200.92 2473.25 2200.92 2473.25 2200.92 2473.25 2200.92 2473.25 2200.92 2466.77 2200.92 2462.89 2200.92 2459 2199.63 2464.18 2211.25 2473.25 2219 2491.39 2219 2492.68 2219 2492.68 2219 2492.68 2219 2573 2219 2540.61 2053.68 2513.41 1967.15Z" fill="#FFFFA0" fill-rule="evenodd"/><path d="M2630.35 2219C2550 2219 2581.1 2053.81 2609.62 1967.34 2630.35 1902.82 2617.39 1837 2657.57 1837 2658.86 1837 2658.86 1837 2658.86 1837 2699.04 1837 2664.05 1900.24 2652.38 1967.34 2635.54 2068.01 2712 2219 2631.65 2219L2630.35 2219Z" fill="#FFFFBC" fill-rule="evenodd"/><path d="M2704.54 1835.81C2711 1795.75 2625.68 1788 2592.07 1788 2502.88 1788 2449.88 1815.14 2446 1850.02 2447.29 1842.27 2452.46 1837.1 2464.1 1837.1 2465.39 1837.1 2465.39 1837.1 2465.39 1837.1 2505.46 1837.1 2492.54 1903 2513.22 1967.61 2539.07 2047.73 2567.51 2195.03 2508.05 2217 2508.05 2217 2508.05 2217 2508.05 2217 2527.44 2209.25 2590.78 2206.66 2610.17 2214.42 2557.17 2188.57 2584.32 2046.43 2610.17 1967.61 2630.85 1903 2617.93 1837.1 2658 1837.1 2659.29 1837.1 2659.29 1837.1 2659.29 1837.1 2699.37 1837.1 2664.46 1900.42 2652.83 1967.61 2637.32 2058.06 2696.78 2187.28 2652.83 2214.42 2672.22 2206.66 2692.9 2175.65 2695.49 2158.85 2703.24 2108.46 2668.34 2011.55 2679.98 1940.48 2687.73 1900.42 2703.24 1860.36 2704.54 1835.81Z" fill="#FFFFAA" fill-rule="evenodd"/><path d="M2489.78 1856C2482 1834.14 2523.49 1813.57 2577.94 1812.29 2632.4 1811 2670 1822.57 2645.37 1839.29" fill="#F2B060" fill-rule="evenodd"/><path d="M2578.15 1812.29C2526.4 1813.59 2485 1831.69 2488.88 1852.38 2500.52 1875.65 2499.23 1922.2 2513.46 1967.45 2539.34 2047.62 2567.8 2195.02 2508.29 2217 2508.29 2217 2508.29 2217 2508.29 2217 2527.69 2209.24 2591.08 2206.66 2610.49 2214.41 2557.45 2188.55 2584.62 2046.32 2610.49 1967.45 2628.6 1910.56 2620.84 1853.67 2645.42 1839.45 2645.42 1839.45 2645.42 1839.45 2645.42 1839.45 2670 1822.64 2632.48 1811 2578.15 1812.29Z" fill="#FFFD87" fill-rule="evenodd"/><path d="M2575 1822.29C2609.8 1824.89 2609.8 1824.89 2609.8 1824.89 2617.53 1826.18 2620.11 1827.48 2622.69 1831.36 2623.98 1833.95 2622.69 1837.84 2620.11 1843.02 2612.38 1855.97 2614.96 1876.69 2611.09 1900 2611.09 1900 2611.09 1900 2611.09 1900 2613.67 1877.98 2618.82 1858.56 2626.56 1845.61 2627.84 1843.02 2633 1833.95 2629.13 1827.48 2626.56 1823.59 2621.4 1821 2613.67 1821 2612.38 1821 2577.58 1823.59 2577.58 1823.59L2575 1822.29Z" fill="#FFFFFF" fill-rule="evenodd"/><path d="M2578.15 1812.29C2526.4 1813.59 2485 1831.69 2488.88 1852.38 2500.52 1875.65 2499.23 1922.2 2513.46 1967.45 2539.34 2047.62 2567.8 2195.02 2508.29 2217 2508.29 2217 2508.29 2217 2508.29 2217 2527.69 2209.24 2591.08 2206.66 2610.49 2214.41 2557.45 2188.55 2584.62 2046.32 2610.49 1967.45 2628.6 1910.56 2620.84 1853.67 2645.42 1839.45 2645.42 1839.45 2645.42 1839.45 2645.42 1839.45 2670 1822.64 2632.48 1811 2578.15 1812.29ZM2580.73 2197.6C2571.68 2196.31 2557.45 2195.02 2543.22 2198.9 2557.45 2195.02 2560.03 2169.16 2561.33 2165.28 2562.62 2169.16 2569.09 2196.31 2580.73 2197.6ZM2626.01 1844.62C2618.25 1857.55 2615.66 1876.94 2611.78 1900.22 2609.2 1919.61 2605.31 1942.89 2598.85 1964.87 2596.26 1970.04 2591.08 1989.43 2584.62 2015.29 2576.85 2037.27 2552.27 2039.86 2543.22 2019.17 2532.87 1995.9 2526.4 1970.04 2525.1 1964.87 2517.34 1942.89 2514.76 1919.61 2512.17 1900.22 2508.29 1880.82 2505.7 1862.72 2500.52 1849.79 2500.52 1849.79 2500.52 1849.79 2500.52 1848.5 2500.52 1847.2 2500.52 1844.62 2503.11 1842.03 2509.58 1834.27 2543.22 1825.22 2578.15 1823.93 2587.2 1823.93 2607.9 1823.93 2614.37 1823.93 2633.78 1823.93 2628.6 1838.15 2626.01 1844.62Z" fill="#FFCC63" fill-rule="evenodd"/><path d="M2674.77 1912.78C2669.54 1929.59 2663 1950.29 2660.38 1970.98 2653.85 2009.77 2664.31 2064.09 2672.15 2105.47 2677.38 2139.1 2670.85 2172.72 2668.23 2196 2668.23 2196 2668.23 2196 2668.23 2196 2670.85 2174.01 2666.92 2132.63 2660.38 2099.01 2653.85 2056.33 2646 2008.48 2652.54 1968.39 2656.46 1948.99 2663 1928.3 2666.92 1910.2 2673.46 1888.21 2680 1864.93 2680 1852 2680 1852 2680 1852 2680 1852 2680 1866.23 2680 1890.8 2674.77 1912.78Z" fill="#FFF47E" fill-rule="evenodd"/><path d="M2627.53 1901.31C2623.71 1922.02 2621.16 1944.03 2613.51 1967.33 2591.84 2038.53 2574 2139.51 2595.67 2190 2595.67 2190 2595.67 2190 2595.67 2190 2574 2136.92 2600.76 2035.95 2618.61 1978.98 2624.98 1955.68 2628.8 1925.91 2632.63 1905.19 2635.18 1887.07 2633.9 1866.36 2639 1856 2639 1856 2639 1856 2639 1856 2633.9 1867.65 2630.08 1881.89 2627.53 1901.31Z" fill="#FFFFFF" fill-rule="evenodd"/><path d="M2694.74 2127.29C2694.74 2136.35 2692.21 2140.24 2685.88 2145.41 2678.29 2153.18 2673.24 2138.94 2673.24 2126 2665.65 2133.76 2665.65 2133.76 2665.65 2133.76 2670.71 2172.59 2670.71 2202.35 2653 2214 2671.97 2206.24 2692.21 2175.18 2694.74 2158.35 2696 2149.29 2696 2138.94 2694.74 2127.29Z" fill="#FFF47E" fill-rule="evenodd"/><path d="M2673 1856C2673 1867.63 2666.46 1885.71 2659.92 1911.55 2654.69 1929.63 2649.46 1950.3 2645.54 1969.68 2639 2009.73 2646.85 2057.53 2653.38 2098.86 2654.69 2109.2 2654.69 2109.2 2654.69 2109.2 2659.92 2138.91 2666.46 2167.33 2663.85 2188 2663.85 2188 2663.85 2188 2663.85 2188 2667.77 2167.33 2665.15 2138.91 2659.92 2109.2 2658.62 2098.86 2658.62 2098.86 2658.62 2098.86 2650.77 2057.53 2642.92 2009.73 2650.77 1970.97 2653.38 1950.3 2659.92 1930.93 2663.85 1912.84 2671.69 1887 2673 1868.92 2673 1856Z" fill="#FFFFFF" fill-rule="evenodd"/><path d="M2661.6 1912.84C2656.4 1929.63 2651.2 1950.3 2647.3 1970.97 2640.8 2009.73 2648.6 2057.53 2655.1 2098.86 2660.3 2132.45 2666.8 2164.75 2662.9 2188 2662.9 2188 2662.9 2188 2662.9 2188 2666.8 2166.04 2653.8 2132.45 2648.6 2098.86 2640.8 2056.23 2633 2008.44 2640.8 1968.39 2643.4 1949.01 2649.9 1928.34 2653.8 1910.26 2660.3 1888.3 2672 1868.92 2672 1856 2672 1856 2672 1856 2672 1856 2672 1870.21 2666.8 1890.88 2661.6 1912.84Z" fill="#FFFFA0" fill-rule="evenodd"/><path d="M2493.15 2219.5C2573.5 2219.5 2541.1 2054.31 2513.88 1967.84 2493.15 1903.32 2506.11 1837.5 2465.93 1837.5 2464.64 1837.5 2464.64 1837.5 2464.64 1837.5 2424.46 1837.5 2459.45 1900.74 2471.12 1967.84 2487.96 2068.51 2411.5 2219.5 2491.85 2219.5L2493.15 2219.5Z" stroke="#333333" stroke-width="2.86476" stroke-linecap="round" stroke-linejoin="round" stroke-miterlimit="10" fill="none" fill-rule="evenodd"/><path d="M2630.85 2219.5C2550.5 2219.5 2581.6 2054.31 2610.12 1967.84 2630.85 1903.32 2617.89 1837.5 2658.07 1837.5 2659.36 1837.5 2659.36 1837.5 2659.36 1837.5 2699.54 1837.5 2664.55 1900.74 2652.88 1967.84 2636.04 2068.51 2712.5 2219.5 2632.15 2219.5L2630.85 2219.5Z" stroke="#333333" stroke-width="2.86476" stroke-linecap="round" stroke-linejoin="round" stroke-miterlimit="10" fill="none" fill-rule="evenodd"/><path d="M2705.04 1836.31C2711.5 1796.25 2626.18 1788.5 2592.57 1788.5 2503.38 1788.5 2450.38 1815.64 2446.5 1850.52 2447.79 1842.77 2452.96 1837.6 2464.6 1837.6 2465.89 1837.6 2465.89 1837.6 2465.89 1837.6 2505.96 1837.6 2493.04 1903.5 2513.72 1968.11 2539.57 2048.23 2568.01 2195.53 2508.55 2217.5 2508.55 2217.5 2508.55 2217.5 2508.55 2217.5 2527.94 2209.75 2591.28 2207.16 2610.67 2214.92 2557.67 2189.07 2584.82 2046.93 2610.67 1968.11 2631.35 1903.5 2618.43 1837.6 2658.5 1837.6 2659.79 1837.6 2659.79 1837.6 2659.79 1837.6 2699.87 1837.6 2664.96 1900.92 2653.33 1968.11 2637.82 2058.56 2697.28 2187.78 2653.33 2214.92 2672.72 2207.16 2693.4 2176.15 2695.99 2159.35 2703.74 2108.96 2668.84 2012.05 2680.48 1940.98 2688.23 1900.92 2703.74 1860.86 2705.04 1836.31Z" stroke="#333333" stroke-width="2.86476" stroke-linecap="round" stroke-linejoin="round" stroke-miterlimit="10" fill="none" fill-rule="evenodd"/><path d="M2490.28 1856.5C2482.5 1834.64 2523.99 1814.07 2578.44 1812.79 2632.9 1811.5 2670.5 1823.07 2645.87 1839.79" stroke="#333333" stroke-width="2.86476" stroke-linecap="round" stroke-linejoin="round" stroke-miterlimit="10" fill="none" fill-rule="evenodd"/><path d="M2578.65 1812.79C2526.9 1814.09 2485.5 1832.19 2489.38 1852.88 2501.02 1876.15 2499.73 1922.7 2513.96 1967.95 2539.84 2048.12 2568.3 2195.52 2508.79 2217.5 2508.79 2217.5 2508.79 2217.5 2508.79 2217.5 2528.19 2209.74 2591.58 2207.16 2610.99 2214.91 2557.95 2189.05 2585.12 2046.82 2610.99 1967.95 2629.1 1911.06 2621.34 1854.17 2645.92 1839.95 2645.92 1839.95 2645.92 1839.95 2645.92 1839.95 2670.5 1823.14 2632.98 1811.5 2578.65 1812.79Z" stroke="#333333" stroke-width="2.86476" stroke-linecap="round" stroke-linejoin="round" stroke-miterlimit="10" fill="none" fill-rule="evenodd"/></g></svg>