<svg width="230" height="437" xmlns="http://www.w3.org/2000/svg" xmlns:xlink="http://www.w3.org/1999/xlink" xml:space="preserve" overflow="hidden"><g transform="translate(-2784 -1176)"><path d="M2833 1606C2913 1606 2883.32 1442.41 2856.23 1356.1 2835.58 1290.41 2845.9 1226 2805.9 1226 2804.61 1226 2804.61 1226 2804.61 1226 2764.61 1226 2799.45 1289.12 2811.06 1356.1 2827.84 1456.58 2753 1606 2831.71 1606L2833 1606Z" fill="#71D584" fill-rule="evenodd"/><path d="M2839 1609 2840 1610" stroke="#73FFBA" stroke-width="5.72917" stroke-miterlimit="8" fill="none" fill-rule="evenodd"/><path d="M2802.13 1300.43C2807.2 1318.48 2812.27 1339.1 2816.07 1358.44 2822.4 1397.11 2814.8 1444.8 2808.47 1487.34 2803.4 1520.86 2797.07 1553.09 2800.87 1575 2800.87 1575 2800.87 1575 2800.87 1575 2797.07 1553.09 2809.73 1520.86 2814.8 1487.34 2822.4 1444.8 2830 1397.11 2822.4 1357.15 2819.87 1336.52 2813.53 1317.19 2809.73 1299.14 2803.4 1277.23 2792 1257.89 2792 1245 2792 1245 2792 1245 2792 1245 2792 1257.89 2795.8 1278.52 2802.13 1300.43Z" fill="#FFFFFF" fill-rule="evenodd"/><path d="M2856 1356.1C2835.27 1294.27 2844.34 1233.73 2811.95 1226 2837.86 1255.63 2828.8 1304.58 2843.05 1348.37 2870.25 1434.68 2894.86 1589.25 2814.55 1589.25 2813.25 1589.25 2813.25 1589.25 2813.25 1589.25 2808.07 1589.25 2802.89 1587.97 2799 1586.68 2804.18 1599.56 2814.55 1606 2831.39 1606 2832.68 1606 2832.68 1606 2832.68 1606 2913 1606 2883.2 1442.41 2856 1356.1Z" fill="#70BC68" fill-rule="evenodd"/><path d="M2937.22 1606C2859 1606 2888.49 1442.41 2915.42 1356.1 2935.94 1290.41 2925.68 1226 2965.43 1226 2966.71 1226 2966.71 1226 2966.71 1226 3005.18 1226 2971.84 1289.12 2960.3 1356.1 2942.35 1456.58 3018 1606 2938.5 1606L2937.22 1606Z" fill="#71D584" fill-rule="evenodd"/><path d="M3011.56 1224.59C3018 1184.72 2945.82 1177 2913.6 1177 2824.67 1177 2789.87 1204.01 2786 1238.73 2787.29 1229.73 2793.73 1225.87 2804.04 1225.87 2805.33 1225.87 2805.33 1225.87 2805.33 1225.87 2845.29 1225.87 2834.98 1290.18 2855.6 1355.77 2880.09 1435.52 2908.44 1582.14 2849.16 1602.71 2849.16 1604 2849.16 1604 2849.16 1604 2868.49 1595 2898.13 1593.71 2917.47 1601.43 2863.33 1574.42 2890.4 1432.94 2914.89 1355.77 2935.51 1290.18 2925.2 1225.87 2965.16 1225.87 2966.44 1225.87 2966.44 1225.87 2966.44 1225.87 3005.11 1225.87 2971.6 1288.89 2960 1355.77 2944.53 1445.8 3002.53 1574.42 2958.71 1601.43 2979.33 1592.42 2999.96 1562.84 3002.53 1544.84 3008.98 1495.96 2974.18 1399.5 2987.07 1328.77 2993.51 1287.61 3008.98 1249.02 3011.56 1224.59Z" fill="#70C472" fill-rule="evenodd"/><path d="M2831.06 1245C2822 1223.14 2844 1202.57 2898.35 1201.29 2952.71 1200 2976 1211.57 2952.71 1228.29" fill="#305728" fill-rule="evenodd"/><path d="M2898.93 1201.29C2848.84 1202.57 2827 1220.59 2830.85 1241.17 2842.41 1264.33 2841.13 1310.65 2856.54 1355.68 2880.95 1435.45 2909.21 1582.13 2850.12 1602.71 2850.12 1604 2850.12 1604 2850.12 1604 2869.39 1594.99 2898.93 1593.71 2918.2 1601.43 2864.25 1574.41 2891.22 1432.88 2915.63 1355.68 2933.61 1299.07 2928.47 1241.17 2952.88 1228.31 2952.88 1228.31 2952.88 1228.31 2952.88 1228.31 2976 1211.58 2952.88 1200 2898.93 1201.29Z" fill="#6FA44F" fill-rule="evenodd"/><path d="M2896 1211.3C2918 1213.89 2918 1213.89 2918 1213.89 2924.47 1215.18 2928.35 1216.48 2929.65 1220.36 2932.24 1222.95 2930.94 1226.84 2928.35 1230.72 2920.59 1244.97 2921.88 1265.69 2919.29 1289 2919.29 1289 2919.29 1289 2919.29 1289 2921.88 1265.69 2927.06 1247.56 2934.82 1233.31 2936.12 1230.72 2940 1222.95 2936.12 1216.48 2933.53 1211.3 2928.35 1210 2920.59 1210 2898.59 1212.59 2898.59 1212.59 2898.59 1212.59L2896 1211.3Z" fill="#FFFFFF" fill-rule="evenodd"/><path d="M2898.93 1201.29C2848.84 1202.57 2827 1220.59 2830.85 1241.17 2842.41 1264.33 2841.13 1310.65 2856.54 1355.68 2880.95 1435.45 2909.21 1582.13 2850.12 1602.71 2850.12 1604 2850.12 1604 2850.12 1604 2869.39 1594.99 2898.93 1593.71 2918.2 1601.43 2864.25 1574.41 2891.22 1432.88 2915.63 1355.68 2933.61 1299.07 2928.47 1241.17 2952.88 1228.31 2952.88 1228.31 2952.88 1228.31 2952.88 1228.31 2976 1211.58 2952.88 1200 2898.93 1201.29ZM2887.37 1584.7C2884.8 1584.7 2887.37 1584.7 2883.52 1584.7 2886.09 1580.84 2884.8 1576.98 2886.09 1573.12 2887.37 1576.98 2886.09 1580.84 2887.37 1584.7ZM2932.33 1233.45C2924.62 1246.32 2922.05 1265.62 2919.48 1288.78 2915.63 1308.08 2913.06 1329.95 2906.64 1351.82 2902.78 1362.11 2893.79 1400.71 2886.09 1447.03 2878.38 1400.71 2869.39 1362.11 2865.53 1351.82 2859.11 1329.95 2855.26 1308.08 2852.69 1288.78 2850.12 1268.19 2847.55 1251.46 2842.41 1238.6 2841.13 1238.6 2841.13 1237.31 2841.13 1237.31 2841.13 1236.03 2842.41 1233.45 2844.98 1230.88 2851.41 1221.87 2865.53 1212.87 2898.93 1212.87 2907.92 1211.58 2914.34 1212.87 2920.77 1212.87 2941.32 1211.58 2936.18 1227.02 2932.33 1233.45Z" fill="#6E732B" fill-rule="evenodd"/><path d="M2981.46 1300.37C2976.23 1318.43 2971 1339.08 2967.08 1358.44 2960.54 1397.16 2972.31 1451.36 2978.85 1493.95 2984.08 1527.51 2978.85 1561.06 2974.92 1583 2974.92 1583 2974.92 1583 2974.92 1583 2978.85 1561.06 2973.62 1521.05 2968.38 1487.5 2961.85 1444.91 2954 1397.16 2960.54 1357.15 2964.46 1336.5 2969.69 1317.14 2974.92 1299.08 2981.46 1277.14 2986.69 1253.91 2986.69 1241 2986.69 1241 2986.69 1241 2986.69 1241 2986.69 1253.91 2988 1278.43 2981.46 1300.37Z" fill="#6F9B46" fill-rule="evenodd"/><path d="M2934.53 1290.33C2931.98 1309.63 2928.16 1332.79 2921.78 1355.95 2898.84 1426.73 2882.27 1525.81 2902.67 1576 2902.67 1576 2902.67 1576 2902.67 1576 2881 1524.53 2907.76 1422.87 2925.61 1366.25 2933.25 1343.09 2937.08 1314.78 2939.63 1294.19 2942.18 1276.17 2942.18 1255.58 2946 1244 2946 1244 2946 1244 2946 1244 2942.18 1255.58 2937.08 1271.02 2934.53 1290.33Z" fill="#FFFFFF" fill-rule="evenodd"/><path d="M3002.71 1515.58C3001.43 1523.32 3000.14 1527.19 2993.71 1533.64 2986 1540.09 2980.86 1525.9 2979.57 1513 2973.14 1522.03 2973.14 1522.03 2973.14 1522.03 2978.29 1559.43 2978.29 1590.39 2959 1602 2979.57 1592.97 3000.14 1563.3 3002.71 1545.25 3004 1537.51 3004 1527.19 3002.71 1515.58Z" fill="#6F9B46" fill-rule="evenodd"/><path d="M2980 1245C2980 1256.6 2974.77 1274.65 2966.92 1300.43 2963 1318.48 2956.46 1337.81 2953.85 1358.44 2946 1397.11 2953.85 1444.8 2961.69 1487.34 2963 1497.66 2963 1497.66 2963 1497.66 2968.23 1527.3 2974.77 1555.66 2972.15 1575 2972.15 1575 2972.15 1575 2972.15 1575 2974.77 1554.38 2972.15 1527.3 2966.92 1496.37 2965.62 1487.34 2965.62 1487.34 2965.62 1487.34 2959.08 1444.8 2951.23 1397.11 2957.77 1359.73 2961.69 1339.1 2966.92 1318.48 2972.15 1301.72 2980 1275.94 2980 1256.6 2980 1245Z" fill="#FFFFFF" fill-rule="evenodd"/><path d="M2968.3 1300.43C2963.1 1318.48 2957.9 1339.1 2954 1358.44 2947.5 1397.11 2955.3 1444.8 2963.1 1487.34 2968.3 1520.86 2973.5 1553.09 2970.9 1575 2970.9 1575 2970.9 1575 2970.9 1575 2973.5 1553.09 2960.5 1520.86 2955.3 1487.34 2948.8 1444.8 2941 1397.11 2947.5 1357.15 2951.4 1336.52 2956.6 1317.19 2961.8 1299.14 2968.3 1277.23 2980 1257.89 2978.7 1245 2978.7 1245 2978.7 1245 2978.7 1245 2980 1257.89 2974.8 1278.52 2968.3 1300.43Z" fill="#70BC68" fill-rule="evenodd"/><path d="M2875 1396.18C2877.59 1405.24 2880.18 1411.71 2886.65 1411.71 2893.12 1411.71 2897 1391 2897 1391 2897 1391 2894.41 1414.29 2894.41 1415.59 2895.71 1416.88 2886.65 1457 2886.65 1457 2881.47 1431.12 2881.47 1431.12 2881.47 1431.12" fill="#6E732B" fill-rule="evenodd"/><path d="M2833.5 1606.5C2913.5 1606.5 2883.82 1442.91 2856.73 1356.6 2836.08 1290.91 2846.4 1226.5 2806.4 1226.5 2805.11 1226.5 2805.11 1226.5 2805.11 1226.5 2765.11 1226.5 2799.95 1289.62 2811.56 1356.6 2828.34 1457.08 2753.5 1606.5 2832.21 1606.5L2833.5 1606.5Z" stroke="#003300" stroke-width="2.86476" stroke-linecap="round" stroke-linejoin="round" stroke-miterlimit="10" fill="none" fill-rule="evenodd"/><path d="M2937.72 1606.5C2859.5 1606.5 2888.99 1442.91 2915.92 1356.6 2936.44 1290.91 2926.18 1226.5 2965.93 1226.5 2967.21 1226.5 2967.21 1226.5 2967.21 1226.5 3005.68 1226.5 2972.34 1289.62 2960.8 1356.6 2942.85 1457.08 3018.5 1606.5 2939 1606.5L2937.72 1606.5Z" stroke="#003300" stroke-width="2.86476" stroke-linecap="round" stroke-linejoin="round" stroke-miterlimit="10" fill="none" fill-rule="evenodd"/><path d="M3012.06 1225.09C3018.5 1185.22 2946.32 1177.5 2914.1 1177.5 2825.17 1177.5 2790.37 1204.51 2786.5 1239.23 2787.79 1230.23 2794.23 1226.37 2804.54 1226.37 2805.83 1226.37 2805.83 1226.37 2805.83 1226.37 2845.79 1226.37 2835.48 1290.68 2856.1 1356.27 2880.59 1436.02 2908.94 1582.64 2849.66 1603.21 2849.66 1604.5 2849.66 1604.5 2849.66 1604.5 2868.99 1595.5 2898.63 1594.21 2917.97 1601.93 2863.83 1574.92 2890.9 1433.44 2915.39 1356.27 2936.01 1290.68 2925.7 1226.37 2965.66 1226.37 2966.94 1226.37 2966.94 1226.37 2966.94 1226.37 3005.61 1226.37 2972.1 1289.39 2960.5 1356.27 2945.03 1446.3 3003.03 1574.92 2959.21 1601.93 2979.83 1592.92 3000.46 1563.34 3003.03 1545.34 3009.48 1496.46 2974.68 1400 2987.57 1329.27 2994.01 1288.11 3009.48 1249.52 3012.06 1225.09Z" stroke="#003300" stroke-width="2.86476" stroke-linecap="round" stroke-linejoin="round" stroke-miterlimit="10" fill="none" fill-rule="evenodd"/><path d="M2831.56 1245.5C2822.5 1223.64 2844.5 1203.07 2898.85 1201.79 2953.21 1200.5 2976.5 1212.07 2953.21 1228.79" stroke="#003300" stroke-width="2.86476" stroke-linecap="round" stroke-linejoin="round" stroke-miterlimit="10" fill="none" fill-rule="evenodd"/><path d="M2899.43 1201.79C2849.34 1203.07 2827.5 1221.09 2831.35 1241.67 2842.91 1264.83 2841.63 1311.15 2857.04 1356.18 2881.45 1435.95 2909.71 1582.63 2850.62 1603.21 2850.62 1604.5 2850.62 1604.5 2850.62 1604.5 2869.89 1595.49 2899.43 1594.21 2918.7 1601.93 2864.75 1574.91 2891.72 1433.38 2916.13 1356.18 2934.11 1299.57 2928.97 1241.67 2953.38 1228.81 2953.38 1228.81 2953.38 1228.81 2953.38 1228.81 2976.5 1212.08 2953.38 1200.5 2899.43 1201.79Z" stroke="#003300" stroke-width="2.86476" stroke-linecap="round" stroke-linejoin="round" stroke-miterlimit="10" fill="none" fill-rule="evenodd"/></g></svg>