<svg width="299" height="442" xmlns="http://www.w3.org/2000/svg" xmlns:xlink="http://www.w3.org/1999/xlink" xml:space="preserve" overflow="hidden"><g transform="translate(-1247 -1520)"><path d="M1362.16 1785.33C1370.95 1826.67 1386 1881.33 1349.62 1900 1313.24 1920 1274.35 1869.33 1261.8 1824 1255.53 1801.33 1248 1758.67 1248 1717.33 1248 1674.67 1256.78 1634.67 1261.8 1616 1274.35 1569.33 1313.24 1520 1349.62 1538.67 1386 1557.33 1370.95 1612 1362.16 1654.67 1353.38 1694.67 1353.38 1734.67 1362.16 1785.33Z" fill="#FFDE00" fill-rule="evenodd"/><path d="M1338.66 1785.67C1329.94 1737.67 1333.68 1692.33 1341.15 1653.67 1349.87 1613.67 1361.08 1563 1327.45 1544.33 1323.72 1543 1318.74 1543 1315 1545.67 1324.96 1540.33 1336.17 1539 1347.38 1544.33 1381 1563 1363.57 1619 1356.09 1659 1347.38 1697.67 1347.38 1736.33 1356.09 1783 1363.57 1823 1377.26 1877.67 1342.4 1896.33 1336.17 1899 1329.94 1899 1323.72 1899 1379.75 1887 1346.13 1824.33 1338.66 1785.67Z" fill="#FFF4C1" fill-rule="evenodd"/><path d="M1386.06 1894.18C1403.58 1888.84 1414.84 1886.16 1422.35 1880.82 1423.6 1878.15 1423.6 1875.47 1423.6 1874.14 1416.1 1848.75 1424.86 1814 1431.11 1785.94 1439.87 1735.15 1439.87 1695.06 1431.11 1654.97 1422.35 1612.21 1407.34 1557.42 1443.63 1538.71 1479.92 1520 1518.72 1569.45 1531.23 1616.22 1536.24 1634.93 1545 1675.02 1545 1717.78 1545 1759.21 1537.49 1801.97 1531.23 1824.69 1524.98 1844.74 1514.96 1866.12 1501.2 1882.15 1498.69 1884.83 1497.44 1888.84 1497.44 1891.51 1496.19 1922.25 1449.89 1961 1402.33 1961 1349.77 1961 1336 1943.63 1336 1926.25 1336 1908.88 1358.53 1900.86 1386.06 1894.18Z" fill="#FFDE00" fill-rule="evenodd"/><path d="M1306 1885C1289.67 1870.35 1277.12 1847.71 1270.84 1823.74 1263.3 1801.1 1255.77 1758.49 1255.77 1717.21 1255.77 1674.59 1264.56 1634.64 1270.84 1616 1264.56 1667.94 1252 1771.81 1306 1885Z" fill="#FBBC00" fill-rule="evenodd"/><path d="M1428.52 1850C1428.52 1828.59 1434.81 1805.84 1438.58 1785.76 1447.39 1734.91 1447.39 1694.76 1438.58 1654.62 1433.55 1629.19 1426 1601.09 1428.52 1577 1428.52 1594.4 1434.81 1613.13 1449.9 1659.97 1465 1706.81 1452.42 1748.29 1446.13 1784.43 1439.84 1819.22 1427.26 1833.94 1428.52 1850Z" fill="#FBBC00" fill-rule="evenodd"/><path d="M1426 1948C1462.33 1938.66 1488.64 1910.64 1489.89 1886.62 1489.89 1885.28 1494.9 1878.61 1497.41 1875.94 1509.93 1861.27 1519.96 1839.91 1526.22 1821.23 1532.48 1798.55 1540 1757.18 1540 1717.15 1540 1677.12 1531.23 1638.42 1526.22 1619.74 1513.69 1575.71 1478.62 1525 1444.79 1543.68 1442.29 1545.02 1441.03 1546.35 1438.53 1546.35 1467.34 1534.34 1492.4 1571.7 1503.67 1610.4 1508.68 1627.75 1521.21 1679.79 1521.21 1721.15 1521.21 1761.19 1517.45 1803.89 1511.19 1826.57 1504.92 1845.25 1496.15 1863.93 1483.63 1878.61 1481.12 1881.28 1479.87 1886.62 1479.87 1887.95 1479.87 1907.97 1452.31 1935.99 1426 1948Z" fill="#FFF4C1" fill-rule="evenodd"/><path d="M1395.88 1521C1397.12 1521 1397.12 1521 1397.12 1521 1425.83 1521 1448.29 1526.34 1472 1537.03 1472 1537.03 1472 1537.03 1472 1537.03 1470.75 1535.69 1469.5 1535.69 1468.26 1535.69 1468.26 1535.69 1468.26 1535.69 1468.26 1535.69 1467.01 1535.69 1467.01 1535.69 1465.76 1534.36 1465.76 1534.36 1464.51 1534.36 1464.51 1534.36 1463.26 1534.36 1463.26 1534.36 1462.02 1534.36 1462.02 1534.36 1462.02 1534.36 1460.77 1534.36 1460.77 1534.36 1459.52 1534.36 1458.27 1534.36 1458.27 1534.36 1458.27 1534.36 1457.02 1534.36 1457.02 1534.36 1455.78 1534.36 1454.53 1534.36 1454.53 1534.36 1454.53 1534.36 1454.53 1534.36 1453.28 1534.36 1452.03 1535.69 1452.03 1535.69 1450.79 1535.69 1450.79 1535.69 1450.79 1535.69 1449.54 1535.69 1448.29 1535.69 1448.29 1537.03 1447.04 1537.03 1447.04 1537.03 1447.04 1537.03 1445.79 1537.03 1444.55 1538.36 1443.3 1538.36 1407.11 1557.06 1422.08 1611.83 1430.82 1654.57 1439.55 1694.64 1439.55 1734.71 1430.82 1785.46 1430.82 1786.8 1429.57 1788.13 1429.57 1790.8 1429.57 1792.14 1428.32 1793.48 1428.32 1794.81 1428.32 1794.81 1428.32 1796.15 1428.32 1796.15 1428.32 1797.48 1427.07 1800.15 1427.07 1801.49 1427.07 1801.49 1427.07 1801.49 1427.07 1801.49 1427.07 1804.16 1425.83 1805.5 1425.83 1806.83 1425.83 1806.83 1425.83 1808.17 1425.83 1808.17 1424.58 1812.17 1424.58 1814.85 1423.33 1818.85 1423.33 1818.85 1423.33 1818.85 1423.33 1818.85 1423.33 1821.52 1423.33 1822.86 1423.33 1824.2 1423.33 1824.2 1422.08 1825.53 1422.08 1825.53 1422.08 1828.2 1422.08 1832.21 1420.83 1836.22 1420.83 1836.22 1420.83 1836.22 1420.83 1836.22 1420.83 1838.89 1420.83 1840.22 1420.83 1841.56 1420.83 1841.56 1420.83 1841.56 1420.83 1841.56 1420.83 1845.57 1420.83 1849.57 1420.83 1853.58 1420.83 1853.58 1420.83 1853.58 1420.83 1853.58 1420.83 1857.59 1420.83 1860.26 1420.83 1864.27 1420.83 1864.27 1420.83 1864.27 1420.83 1864.27 1420.83 1865.6 1420.83 1866.94 1422.08 1868.27 1422.08 1868.27 1422.08 1868.27 1422.08 1869.61 1422.08 1870.94 1422.08 1872.28 1423.33 1873.62 1423.33 1876.29 1423.33 1877.62 1422.08 1880.29 1419.59 1881.63 1415.84 1884.3 1412.1 1885.64 1407.11 1882.97 1402.12 1882.97 1397.12 1882.97 1395.88 1882.97 1395.88 1882.97 1395.88 1882.97 1378.4 1882.97 1369.67 1892.31 1345.96 1903 1345.96 1901.66 1345.96 1901.66 1345.96 1901.66 1347.21 1901.66 1348.45 1901.66 1349.7 1900.33 1385.89 1881.63 1370.92 1826.87 1362.18 1785.46 1353.45 1734.71 1353.45 1694.64 1362.18 1654.57 1370.92 1611.83 1385.89 1557.06 1349.7 1538.36 1339.72 1533.02 1329.74 1533.02 1321 1537.03 1344.71 1526.34 1367.17 1521 1395.88 1521Z" fill="#FBBC00" fill-rule="evenodd"/><path d="M1356 1783C1347.25 1736.27 1347.25 1697.55 1356 1658.83 1363.5 1618.77 1381 1562.7 1347.25 1544.01 1343.5 1542.67 1339.75 1541.34 1336 1540 1349.75 1545.34 1359.75 1561.36 1361 1584.06 1363.5 1606.76 1348.5 1634.8 1347.25 1696.21 1346 1758.97 1356 1783 1356 1783Z" fill="#FFFFFF" fill-rule="evenodd"/><path d="M1519.69 1619.97C1500.89 1566.45 1472.06 1534.34 1452 1539.69 1484.59 1533 1514.68 1578.49 1525.96 1619.97 1530.97 1638.7 1539.75 1677.5 1539.75 1717.64 1539.75 1757.78 1532.23 1799.25 1525.96 1822 1541 1752.43 1537.24 1674.82 1519.69 1619.97Z" fill="#FFFFFF" fill-rule="evenodd"/><path d="M1411 1952.33C1380.9 1955 1350.8 1948.33 1343.27 1933.67 1337 1919 1352.05 1911 1367.1 1907 1350.8 1911 1337 1943 1411 1952.33Z" fill="#FBBC00" fill-rule="evenodd"/><path d="M1371 1884C1381.04 1868 1392.33 1858.67 1399.85 1852 1412.4 1837.33 1411.15 1781.33 1417.42 1736 1423.69 1689.33 1408.64 1652 1406.13 1601.33 1402.36 1554.67 1422.44 1549.33 1389.82 1537.33 1387.31 1536 1387.31 1533.33 1391.07 1533.33 1407.38 1532 1427.45 1534.67 1440 1541.33 1408.64 1561.33 1422.44 1613.33 1431.22 1654.67 1440 1694.67 1440 1734.67 1431.22 1785.33 1431.22 1786.67 1429.96 1788 1429.96 1790.67 1429.96 1792 1428.71 1793.33 1428.71 1794.67 1428.71 1794.67 1428.71 1796 1428.71 1796 1428.71 1797.33 1427.45 1800 1427.45 1801.33 1427.45 1801.33 1427.45 1801.33 1427.45 1801.33 1427.45 1804 1426.2 1805.33 1426.2 1806.67 1426.2 1806.67 1426.2 1808 1426.2 1808 1424.95 1812 1424.95 1814.67 1423.69 1818.67 1423.69 1818.67 1423.69 1818.67 1423.69 1818.67 1423.69 1821.33 1423.69 1822.67 1423.69 1824 1423.69 1824 1422.44 1825.33 1422.44 1825.33 1422.44 1828 1422.44 1832 1421.18 1836 1421.18 1836 1421.18 1836 1421.18 1836 1421.18 1838.67 1421.18 1840 1421.18 1841.33 1421.18 1841.33 1421.18 1841.33 1421.18 1841.33 1421.18 1845.33 1421.18 1849.33 1421.18 1853.33 1421.18 1853.33 1421.18 1853.33 1421.18 1853.33 1421.18 1857.33 1421.18 1860 1421.18 1864 1421.18 1864 1421.18 1864 1421.18 1864 1421.18 1865.33 1421.18 1866.67 1422.44 1868 1422.44 1868 1422.44 1868 1422.44 1869.33 1422.44 1870.67 1422.44 1872 1423.69 1873.33 1423.69 1876 1423.69 1877.33 1422.44 1880 1419.93 1881.33 1417.42 1882.67 1414.91 1884 1413.65 1878.67 1408.64 1873.33 1401.11 1873.33 1384.8 1873.33 1376.02 1878.67 1371 1884Z" fill="#F39900" fill-rule="evenodd"/><path d="M1367.75 1883C1380.25 1857.64 1370.25 1817.6 1362.75 1785.57 1354 1734.85 1354 1694.81 1362.75 1654.77 1370.25 1620.07 1381.5 1577.36 1365.25 1552 1367.75 1552 1367.75 1552 1367.75 1552 1381.5 1564.01 1384 1600.05 1379 1633.42 1374 1665.45 1364 1706.82 1374 1761.54 1382.75 1816.27 1382.75 1862.98 1367.75 1883Z" fill="#F39900" fill-rule="evenodd"/><path d="M1430 1532C1413.65 1524 1373.39 1524 1352 1532 1370.87 1525.33 1424.97 1530.67 1430 1532Z" fill="#FFFFFF" fill-rule="evenodd"/><path d="M1424.75 1621C1433.5 1647.74 1441 1711.93 1433.5 1768.09 1426 1825.58 1418.5 1841.63 1421 1855 1416 1833.61 1421 1794.83 1424.75 1770.76 1431 1733.32 1434.75 1687.86 1424.75 1621Z" fill="#C37C00" fill-rule="evenodd"/><path d="M1374.67 1675C1372.44 1688.33 1368 1723 1378 1771 1375.78 1757.67 1373.56 1693.67 1374.67 1675Z" fill="#FFFFFF" fill-rule="evenodd"/><path d="M1362.16 1785.33C1370.95 1826.67 1386 1881.33 1349.62 1900 1313.24 1920 1274.35 1869.33 1261.8 1824 1255.53 1801.33 1248 1758.67 1248 1717.33 1248 1674.67 1256.78 1634.67 1261.8 1616 1274.35 1569.33 1313.24 1520 1349.62 1538.67 1386 1557.33 1370.95 1612 1362.16 1654.67 1353.38 1694.67 1353.38 1734.67 1362.16 1785.33Z" stroke="#000000" stroke-width="2.29167" stroke-linecap="round" stroke-linejoin="round" stroke-miterlimit="10" fill="none" fill-rule="evenodd"/><path d="M1386.06 1894.18C1403.58 1888.84 1414.84 1886.16 1422.35 1880.82 1423.6 1878.15 1423.6 1875.47 1423.6 1874.14 1416.1 1848.75 1424.86 1814 1431.11 1785.94 1439.87 1735.15 1439.87 1695.06 1431.11 1654.97 1422.35 1612.21 1407.34 1557.42 1443.63 1538.71 1479.92 1520 1518.72 1569.45 1531.23 1616.22 1536.24 1634.93 1545 1675.02 1545 1717.78 1545 1759.21 1537.49 1801.97 1531.23 1824.69 1524.98 1844.74 1514.96 1866.12 1501.2 1882.15 1498.69 1884.83 1497.44 1888.84 1497.44 1891.51 1496.19 1922.25 1449.89 1961 1402.33 1961 1349.77 1961 1336 1943.63 1336 1926.25 1336 1908.88 1358.53 1900.86 1386.06 1894.18Z" stroke="#000000" stroke-width="2.29167" stroke-linecap="round" stroke-linejoin="round" stroke-miterlimit="10" fill="none" fill-rule="evenodd"/><path d="M1395.88 1521C1397.12 1521 1397.12 1521 1397.12 1521 1425.83 1521 1448.29 1526.34 1472 1537.03 1472 1537.03 1472 1537.03 1472 1537.03 1470.75 1535.69 1469.5 1535.69 1468.26 1535.69 1468.26 1535.69 1468.26 1535.69 1468.26 1535.69 1467.01 1535.69 1467.01 1535.69 1465.76 1534.36 1465.76 1534.36 1464.51 1534.36 1464.51 1534.36 1463.26 1534.36 1463.26 1534.36 1462.02 1534.36 1462.02 1534.36 1462.02 1534.36 1460.77 1534.36 1460.77 1534.36 1459.52 1534.36 1458.27 1534.36 1458.27 1534.36 1458.27 1534.36 1457.02 1534.36 1457.02 1534.36 1455.78 1534.36 1454.53 1534.36 1454.53 1534.36 1454.53 1534.36 1454.53 1534.36 1453.28 1534.36 1452.03 1535.69 1452.03 1535.69 1450.79 1535.69 1450.79 1535.69 1450.79 1535.69 1449.54 1535.69 1448.29 1535.69 1448.29 1537.03 1447.04 1537.03 1447.04 1537.03 1447.04 1537.03 1445.79 1537.03 1444.55 1538.36 1443.3 1538.36 1407.11 1557.06 1422.08 1611.83 1430.82 1654.57 1439.55 1694.64 1439.55 1734.71 1430.82 1785.46 1430.82 1786.8 1429.57 1788.13 1429.57 1790.8 1429.57 1792.14 1428.32 1793.48 1428.32 1794.81 1428.32 1794.81 1428.32 1796.15 1428.32 1796.15 1428.32 1797.48 1427.07 1800.15 1427.07 1801.49 1427.07 1801.49 1427.07 1801.49 1427.07 1801.49 1427.07 1804.16 1425.83 1805.5 1425.83 1806.83 1425.83 1806.83 1425.83 1808.17 1425.83 1808.17 1424.58 1812.17 1424.58 1814.85 1423.33 1818.85 1423.33 1818.85 1423.33 1818.85 1423.33 1818.85 1423.33 1821.52 1423.33 1822.86 1423.33 1824.2 1423.33 1824.2 1422.08 1825.53 1422.08 1825.53 1422.08 1828.2 1422.08 1832.21 1420.83 1836.22 1420.83 1836.22 1420.83 1836.22 1420.83 1836.22 1420.83 1838.89 1420.83 1840.22 1420.83 1841.56 1420.83 1841.56 1420.83 1841.56 1420.83 1841.56 1420.83 1845.57 1420.83 1849.57 1420.83 1853.58 1420.83 1853.58 1420.83 1853.58 1420.83 1853.58 1420.83 1857.59 1420.83 1860.26 1420.83 1864.27 1420.83 1864.27 1420.83 1864.27 1420.83 1864.27 1420.83 1865.6 1420.83 1866.94 1422.08 1868.27 1422.08 1868.27 1422.08 1868.27 1422.08 1869.61 1422.08 1870.94 1422.08 1872.28 1423.33 1873.62 1423.33 1876.29 1423.33 1877.62 1422.08 1880.29 1419.59 1881.63 1415.84 1884.3 1412.1 1885.64 1407.11 1882.97 1402.12 1882.97 1397.12 1882.97 1395.88 1882.97 1395.88 1882.97 1395.88 1882.97 1378.4 1882.97 1369.67 1892.31 1345.96 1903 1345.96 1901.66 1345.96 1901.66 1345.96 1901.66 1347.21 1901.66 1348.45 1901.66 1349.7 1900.33 1385.89 1881.63 1370.92 1826.87 1362.18 1785.46 1353.45 1734.71 1353.45 1694.64 1362.18 1654.57 1370.92 1611.83 1385.89 1557.06 1349.7 1538.36 1339.72 1533.02 1329.74 1533.02 1321 1537.03 1344.71 1526.34 1367.17 1521 1395.88 1521Z" stroke="#000000" stroke-width="2.29167" stroke-linecap="round" stroke-linejoin="round" stroke-miterlimit="10" fill="none" fill-rule="evenodd"/></g></svg>