<svg width="215" height="415" xmlns="http://www.w3.org/2000/svg" xmlns:xlink="http://www.w3.org/1999/xlink" xml:space="preserve" overflow="hidden"><g transform="translate(-1338 -1137)"><path d="M1425.94 1375.68C1413.61 1366.14 1409.12 1348.25 1414.73 1332.75 1419.21 1322.01 1427.06 1314.86 1436.03 1311.28 1441.64 1308.9 1441.64 1302.93 1442.76 1295.78 1445 1245.69 1445 1240.91 1441.64 1214.68 1437.15 1169.36 1419.21 1130 1378.85 1140.73 1339.61 1150.27 1334 1196.79 1342.97 1250.46 1349.7 1294.58 1364.27 1449.63 1366.52 1478.25 1372.12 1539.07 1375.48 1551 1403.52 1551 1431.55 1551 1445 1523.57 1445 1487.79 1445 1487.79 1443.88 1400.73 1443.88 1393.57 1443.88 1387.61 1442.76 1385.22 1438.27 1382.84 1438.27 1382.84 1431.55 1380.45 1425.94 1375.68Z" fill="#32B0E1" fill-rule="evenodd"/><path d="M1432.09 1383.53C1432.09 1383.53 1425.3 1381.15 1419.65 1376.38 1407.22 1366.85 1402.7 1344.21 1408.35 1328.72 1412.87 1319.19 1420.78 1310.85 1429.83 1307.28 1435.48 1304.89 1435.48 1298.94 1436.61 1291.79 1438.87 1241.74 1440 1241.74 1436.61 1215.53 1434.35 1185.74 1424.17 1161.91 1406.09 1150 1414 1163.11 1418.52 1179.79 1420.78 1202.43 1424.17 1228.64 1423.04 1231.02 1420.78 1282.26 1420.78 1289.4 1417.39 1297.74 1410.61 1303.7 1402.7 1310.85 1398.17 1318 1394.78 1328.72 1388 1344.21 1391.39 1368.04 1404.96 1379.96 1427.57 1401.4 1428.7 1481.23 1428.7 1481.23 1428.7 1511.02 1432.09 1516.98 1423.04 1542 1434.35 1531.28 1440 1511.02 1440 1488.38 1440 1488.38 1437.74 1401.4 1437.74 1394.26 1437.74 1388.3 1436.61 1385.91 1432.09 1383.53Z" fill="#0083C8" fill-rule="evenodd"/><path d="M1379.12 1480.68C1376.88 1453.28 1376.88 1298.43 1370.18 1255.54 1361.24 1204.32 1355.65 1140 1400.35 1145.96 1400.35 1145.96 1400.35 1145.96 1400.35 1145.96 1394.76 1143.57 1386.94 1143.57 1379.12 1145.96 1341.12 1155.49 1340 1204.32 1348.94 1255.54 1355.65 1298.43 1369.06 1444.94 1371.29 1471.15 1376.88 1529.51 1380.24 1545 1407.06 1545 1410.41 1545 1412.65 1545 1416 1543.81 1400.35 1540.24 1383.59 1528.32 1379.12 1480.68Z" fill="#BFDFF3" fill-rule="evenodd"/><path d="M1371.2 1471C1368.97 1444.81 1355.6 1298.38 1348.91 1255.52 1340 1204.33 1341.11 1155.52 1379 1146 1365.63 1153.14 1351.14 1172.19 1351.14 1210.29 1351.14 1249.57 1371.2 1398.38 1371.2 1471Z" fill="#FFFFFF" fill-rule="evenodd"/><path d="M1465.06 1375.68C1476.27 1366.14 1481.88 1348.25 1475.15 1332.75 1471.79 1322.01 1463.94 1314.86 1454.97 1311.28 1448.24 1308.9 1448.24 1302.93 1448.24 1295.78 1446 1245.69 1446 1240.91 1448.24 1214.68 1453.85 1169.36 1471.79 1130 1511.03 1140.73 1551.39 1150.27 1557 1196.79 1546.91 1250.46 1540.18 1294.58 1526.73 1449.63 1523.36 1478.25 1518.88 1539.07 1514.39 1551 1486.36 1551 1459.45 1551 1446 1523.57 1446 1487.79 1446 1487.79 1446 1400.73 1446 1393.57 1446 1387.61 1448.24 1385.22 1451.61 1382.84 1452.73 1382.84 1459.45 1380.45 1465.06 1375.68Z" fill="#32B0E1" fill-rule="evenodd"/><path d="M1451.09 1520.37C1449.97 1517.98 1449.97 1515.6 1448.86 1513.21 1448.86 1513.21 1448.86 1513.21 1448.86 1513.21 1447.74 1508.44 1447.74 1502.47 1446.62 1497.7 1446.62 1496.51 1446.62 1496.51 1446.62 1496.51 1446.62 1492.93 1446.62 1490.54 1446.62 1488.16 1446.62 1488.16 1446.62 1460.72 1446.62 1424.93 1446.62 1393.91 1446.62 1393.91 1446.62 1393.91 1446.62 1387.95 1448.86 1385.56 1452.21 1383.18 1453.33 1383.18 1460.04 1380.79 1465.63 1376.02 1476.82 1366.47 1482.41 1348.58 1475.7 1333.07 1472.34 1322.33 1464.51 1315.18 1455.57 1311.6 1448.86 1309.21 1448.86 1303.25 1448.86 1296.09 1446.62 1245.98 1446.62 1241.21 1448.86 1214.96 1453.33 1180.37 1464.51 1148.16 1488 1141 1472.34 1143.39 1458.92 1145.77 1447.74 1154.12 1446.62 1155.32 1445.5 1154.12 1444.38 1154.12 1433.2 1145.77 1419.78 1143.39 1403 1141 1427.61 1148.16 1438.79 1180.37 1442.14 1214.96 1445.5 1241.21 1445.5 1245.98 1443.26 1296.09 1442.14 1303.25 1442.14 1309.21 1436.55 1311.6 1427.61 1315.18 1419.78 1322.33 1415.3 1333.07 1409.71 1348.58 1414.18 1366.47 1426.49 1376.02 1432.08 1380.79 1438.79 1383.18 1438.79 1383.18 1443.26 1385.56 1444.38 1387.95 1444.38 1393.91 1444.38 1424.93 1444.38 1424.93 1444.38 1424.93 1444.38 1460.72 1445.5 1488.16 1445.5 1488.16 1445.5 1490.54 1444.38 1494.12 1444.38 1496.51 1444.38 1496.51 1444.38 1497.7 1444.38 1497.7 1444.38 1500.09 1444.38 1503.67 1443.26 1506.05 1443.26 1506.05 1443.26 1506.05 1443.26 1507.25 1443.26 1512.02 1442.14 1516.79 1439.91 1521.56 1435.43 1535.88 1427.61 1545.42 1415.3 1549 1415.3 1549 1415.3 1549 1415.3 1549 1415.3 1549 1415.3 1549 1415.3 1549 1415.3 1549 1415.3 1549 1415.3 1549 1415.3 1549 1415.3 1549 1415.3 1549 1423.13 1547.81 1432.08 1545.42 1441.03 1544.23 1442.14 1544.23 1443.26 1544.23 1444.38 1544.23 1444.38 1544.23 1445.5 1544.23 1445.5 1544.23 1446.62 1544.23 1446.62 1544.23 1447.74 1544.23 1448.86 1544.23 1449.97 1544.23 1451.09 1544.23 1460.04 1545.42 1468.99 1547.81 1475.7 1549 1475.7 1549 1475.7 1549 1475.7 1549 1475.7 1549 1475.7 1549 1475.7 1549 1476.82 1549 1476.82 1549 1476.82 1549 1476.82 1549 1476.82 1549 1476.82 1549 1464.51 1545.42 1455.57 1534.68 1451.09 1520.37Z" fill="#005890" fill-rule="evenodd"/><path d="M1438.86 1494C1438.86 1494 1440 1403.72 1440 1396.59 1440 1389.47 1437.71 1385.9 1432 1383.53 1417.14 1379.96 1405.71 1360.96 1405.71 1344.33 1405.71 1333.64 1410.29 1322.95 1418.29 1317.01 1422.86 1312.25 1437.71 1305.13 1435.43 1298 1435.43 1301.56 1419.43 1307.5 1412.57 1315.82 1404.57 1324.13 1400 1332.45 1400 1345.52 1400 1358.58 1409.14 1377.59 1420.57 1383.53 1433.14 1389.47 1436.57 1394.22 1437.71 1403.72 1438.86 1413.22 1438.86 1494 1438.86 1494Z" fill="#005890" fill-rule="evenodd"/><path d="M1458.67 1383.53C1459.78 1383.53 1466.44 1381.15 1472 1376.38 1484.22 1366.85 1488.67 1344.21 1482 1328.72 1478.67 1319.19 1470.89 1310.85 1462 1307.28 1456.44 1304.89 1455.33 1298.94 1455.33 1291.79 1453.11 1241.74 1452 1241.74 1454.22 1215.53 1457.56 1185.74 1467.56 1161.91 1485.33 1150 1477.56 1163.11 1473.11 1179.79 1470.89 1202.43 1467.56 1228.64 1468.67 1231.02 1470.89 1282.26 1470.89 1289.4 1474.22 1297.74 1480.89 1303.7 1488.67 1310.85 1493.11 1318 1496.44 1328.72 1502 1344.21 1498.67 1368.04 1485.33 1379.96 1464.22 1401.4 1462 1481.23 1462 1481.23 1462 1511.02 1459.78 1516.98 1468.67 1542 1457.56 1531.28 1452 1511.02 1452 1488.38 1452 1488.38 1453.11 1401.4 1453.11 1394.26 1453.11 1388.3 1455.33 1385.91 1458.67 1383.53Z" fill="#BFDFF3" fill-rule="evenodd"/><path d="M1510.76 1480.68C1514.12 1453.28 1514.12 1298.43 1520.82 1255.54 1529.76 1204.32 1535.35 1140 1490.65 1145.96 1490.65 1145.96 1490.65 1145.96 1489.53 1145.96 1496.24 1143.57 1504.06 1143.57 1511.88 1145.96 1549.88 1155.49 1551 1204.32 1542.06 1255.54 1535.35 1298.43 1521.94 1444.94 1519.71 1471.15 1514.12 1529.51 1510.76 1545 1483.94 1545 1480.59 1545 1477.24 1545 1475 1543.81 1490.65 1540.24 1507.41 1528.32 1510.76 1480.68Z" fill="#0083C8" fill-rule="evenodd"/><path d="M1520.6 1471C1522.77 1444.81 1535.8 1298.38 1542.31 1255.52 1551 1204.33 1549.91 1155.52 1513 1146 1526.03 1153.14 1539.06 1172.19 1539.06 1210.29 1539.06 1249.57 1520.6 1398.38 1520.6 1471Z" fill="#005890" fill-rule="evenodd"/><path d="M1443.82 1529.92C1448.31 1523.95 1453.92 1528.72 1453.92 1528.72 1453.92 1528.72 1453.92 1528.72 1453.92 1527.53 1452.8 1525.14 1451.68 1522.76 1450.55 1520.37 1449.43 1517.99 1449.43 1515.6 1448.31 1513.22 1448.31 1513.22 1448.31 1513.22 1448.31 1513.22 1447.18 1508.45 1447.18 1502.48 1446.06 1497.71 1446.06 1496.52 1446.06 1496.52 1446.06 1496.52 1446.06 1492.94 1446.06 1490.55 1446.06 1488.17 1446.06 1488.17 1446.06 1460.73 1446.06 1424.95 1446.06 1393.94 1446.06 1393.94 1446.06 1393.94 1446.06 1387.98 1448.31 1385.59 1451.68 1383.2 1452.8 1383.2 1459.54 1380.82 1465.15 1376.05 1476.38 1366.51 1482 1348.61 1475.26 1333.11 1471.89 1322.37 1464.03 1315.22 1455.05 1311.64 1448.31 1309.25 1448.31 1303.29 1448.31 1296.13 1446.06 1246.04 1446.06 1241.26 1448.31 1215.02 1447.18 1206.67 1446.06 1195.94 1443.82 1186.4 1439.32 1170.89 1429.22 1160.16 1420.23 1153 1432.58 1167.31 1439.32 1189.98 1441.57 1215.02 1444.94 1241.26 1444.94 1246.04 1442.69 1296.13 1441.57 1303.29 1441.57 1309.25 1435.95 1311.64 1426.97 1315.22 1419.11 1322.37 1414.62 1333.11 1409 1348.61 1413.49 1366.51 1425.85 1376.05 1431.46 1380.82 1438.2 1383.2 1438.2 1383.2 1442.69 1385.59 1443.82 1387.98 1443.82 1393.94 1443.82 1424.95 1443.82 1424.95 1443.82 1424.95 1443.82 1460.73 1444.94 1488.17 1444.94 1488.17 1444.94 1490.55 1443.82 1494.13 1443.82 1496.52 1443.82 1496.52 1443.82 1497.71 1443.82 1497.71 1443.82 1500.1 1443.82 1503.67 1442.69 1506.06 1442.69 1506.06 1442.69 1506.06 1442.69 1507.25 1442.69 1512.02 1441.57 1516.8 1439.32 1521.57 1434.83 1535.88 1426.97 1545.42 1414.62 1549 1414.62 1549 1414.62 1549 1414.62 1549 1414.62 1549 1414.62 1549 1414.62 1549 1414.62 1549 1414.62 1549 1414.62 1549 1414.62 1549 1414.62 1549 1414.62 1549 1417.98 1549 1422.48 1547.81 1426.97 1546.61 1434.83 1539.46 1442.69 1532.3 1443.82 1529.92Z" fill="#003B64" fill-rule="evenodd"/><path d="M1463 1150C1454.92 1152.4 1449.15 1156 1449.15 1163.2 1448 1170.4 1448 1187.2 1448 1192 1449.15 1186 1449.15 1154.8 1463 1150Z" fill="#32B0E1" fill-rule="evenodd"/><path d="M1478.55 1315.13C1474.03 1310.36 1467.24 1306.78 1461.58 1303.21 1460.45 1302.02 1459.32 1299.63 1458.18 1293.67 1458.18 1282.94 1448 1219.74 1462.71 1178 1460.45 1185.15 1450.26 1212.58 1451.39 1265.05 1452.53 1281.74 1454.79 1299.63 1454.79 1299.63 1454.79 1299.63 1454.79 1299.63 1454.79 1299.63 1457.05 1305.59 1468.37 1311.55 1472.89 1316.32 1480.82 1322.29 1485.34 1333.02 1485.34 1343.75 1485.34 1360.45 1474.03 1379.52 1459.32 1383.1 1453.66 1385.49 1451.39 1389.06 1451.39 1396.22 1451.39 1403.37 1452.53 1494 1452.53 1494 1452.53 1494 1452.53 1412.91 1453.66 1403.37 1454.79 1393.83 1458.18 1389.06 1469.5 1383.1 1481.95 1377.14 1491 1358.06 1491 1344.94 1491 1331.83 1486.47 1323.48 1478.55 1315.13Z" fill="#FFFFFF" fill-rule="evenodd"/><path d="M1425.94 1375.68C1413.61 1366.14 1409.12 1348.25 1414.73 1332.75 1419.21 1322.01 1427.06 1314.86 1436.03 1311.28 1441.64 1308.9 1441.64 1302.93 1442.76 1295.78 1445 1245.69 1445 1240.91 1441.64 1214.68 1437.15 1169.36 1419.21 1130 1378.85 1140.73 1339.61 1150.27 1334 1196.79 1342.97 1250.46 1349.7 1294.58 1364.27 1449.63 1366.52 1478.25 1372.12 1539.07 1375.48 1551 1403.52 1551 1431.55 1551 1445 1523.57 1445 1487.79 1445 1487.79 1443.88 1400.73 1443.88 1393.57 1443.88 1387.61 1442.76 1385.22 1438.27 1382.84 1438.27 1382.84 1431.55 1380.45 1425.94 1375.68Z" stroke="#000000" stroke-width="2.29167" stroke-linecap="round" stroke-linejoin="round" stroke-miterlimit="10" fill="none" fill-rule="evenodd"/><path d="M1465.06 1375.68C1476.27 1366.14 1481.88 1348.25 1475.15 1332.75 1471.79 1322.01 1463.94 1314.86 1454.97 1311.28 1448.24 1308.9 1448.24 1302.93 1448.24 1295.78 1446 1245.69 1446 1240.91 1448.24 1214.68 1453.85 1169.36 1471.79 1130 1511.03 1140.73 1551.39 1150.27 1557 1196.79 1546.91 1250.46 1540.18 1294.58 1526.73 1449.63 1523.36 1478.25 1518.88 1539.07 1514.39 1551 1486.36 1551 1459.45 1551 1446 1523.57 1446 1487.79 1446 1487.79 1446 1400.73 1446 1393.57 1446 1387.61 1448.24 1385.22 1451.61 1382.84 1452.73 1382.84 1459.45 1380.45 1465.06 1375.68Z" stroke="#000000" stroke-width="2.29167" stroke-linecap="round" stroke-linejoin="round" stroke-miterlimit="10" fill="none" fill-rule="evenodd"/><path d="M1451.09 1520.37C1449.97 1517.98 1449.97 1515.6 1448.86 1513.21 1448.86 1513.21 1448.86 1513.21 1448.86 1513.21 1447.74 1508.44 1447.74 1502.47 1446.62 1497.7 1446.62 1496.51 1446.62 1496.51 1446.62 1496.51 1446.62 1492.93 1446.62 1490.54 1446.62 1488.16 1446.62 1488.16 1446.62 1460.72 1446.62 1424.93 1446.62 1393.91 1446.62 1393.91 1446.62 1393.91 1446.62 1387.95 1448.86 1385.56 1452.21 1383.18 1453.33 1383.18 1460.04 1380.79 1465.63 1376.02 1476.82 1366.47 1482.41 1348.58 1475.7 1333.07 1472.34 1322.33 1464.51 1315.18 1455.57 1311.6 1448.86 1309.21 1448.86 1303.25 1448.86 1296.09 1446.62 1245.98 1446.62 1241.21 1448.86 1214.96 1453.33 1180.37 1464.51 1148.16 1488 1141 1472.34 1143.39 1458.92 1145.77 1447.74 1154.12 1446.62 1155.32 1445.5 1154.12 1444.38 1154.12 1433.2 1145.77 1419.78 1143.39 1403 1141 1427.61 1148.16 1438.79 1180.37 1442.14 1214.96 1445.5 1241.21 1445.5 1245.98 1443.26 1296.09 1442.14 1303.25 1442.14 1309.21 1436.55 1311.6 1427.61 1315.18 1419.78 1322.33 1415.3 1333.07 1409.71 1348.58 1414.18 1366.47 1426.49 1376.02 1432.08 1380.79 1438.79 1383.18 1438.79 1383.18 1443.26 1385.56 1444.38 1387.95 1444.38 1393.91 1444.38 1424.93 1444.38 1424.93 1444.38 1424.93 1444.38 1460.72 1445.5 1488.16 1445.5 1488.16 1445.5 1490.54 1444.38 1494.12 1444.38 1496.51 1444.38 1496.51 1444.38 1497.7 1444.38 1497.7 1444.38 1500.09 1444.38 1503.67 1443.26 1506.05 1443.26 1506.05 1443.26 1506.05 1443.26 1507.25 1443.26 1512.02 1442.14 1516.79 1439.91 1521.56 1435.43 1535.88 1427.61 1545.42 1415.3 1549 1415.3 1549 1415.3 1549 1415.3 1549 1415.3 1549 1415.3 1549 1415.3 1549 1415.3 1549 1415.3 1549 1415.3 1549 1415.3 1549 1415.3 1549 1415.3 1549 1423.13 1547.81 1432.08 1545.42 1441.03 1544.23 1442.14 1544.23 1443.26 1544.23 1444.38 1544.23 1444.38 1544.23 1445.5 1544.23 1445.5 1544.23 1446.62 1544.23 1446.62 1544.23 1447.74 1544.23 1448.86 1544.23 1449.97 1544.23 1451.09 1544.23 1460.04 1545.42 1468.99 1547.81 1475.7 1549 1475.7 1549 1475.7 1549 1475.7 1549 1475.7 1549 1475.7 1549 1475.7 1549 1476.82 1549 1476.82 1549 1476.82 1549 1476.82 1549 1476.82 1549 1476.82 1549 1464.51 1545.42 1455.57 1534.68 1451.09 1520.37Z" stroke="#000000" stroke-width="2.29167" stroke-linecap="round" stroke-linejoin="round" stroke-miterlimit="10" fill="none" fill-rule="evenodd"/><path d="M1445 1156C1447 1160.74 1446 1196.26 1446 1246" stroke="#000000" stroke-width="2.29167" stroke-linecap="round" stroke-linejoin="round" stroke-miterlimit="10" fill="none" fill-rule="evenodd"/></g></svg>