<svg width="259" height="401" xmlns="http://www.w3.org/2000/svg" xmlns:xlink="http://www.w3.org/1999/xlink" xml:space="preserve" overflow="hidden"><g transform="translate(-3109 -578)"><path d="M3148.32 593.589C3121.13 591 3103 651.851 3113.36 706.228 3123.72 761.901 3149.61 827.93 3141.84 871.95 3135.37 915.97 3131.48 935.391 3150.91 958.695 3170.33 982 3207.87 974.232 3216.94 950.927 3226 926.328 3220.82 800.742 3220.82 776.142 3220.82 752.838 3197.52 593.589 3148.32 593.589Z" fill="#5ABC7C" fill-rule="evenodd"/><path d="M3328.05 593.589C3355.02 591 3373 651.851 3362.73 706.228 3352.45 761.901 3326.77 827.93 3334.47 871.95 3340.89 915.97 3346.03 935.391 3325.48 958.695 3306.22 982 3268.98 974.232 3259.99 950.927 3251 926.328 3257.42 800.742 3257.42 776.142 3257.42 752.838 3279.25 593.589 3328.05 593.589Z" fill="#5ABC7C" fill-rule="evenodd"/><path d="M3259.82 951.156C3250.78 926.604 3257.24 801.26 3257.24 776.708 3257.24 753.448 3279.19 594.506 3328.25 594.506 3330.84 594.506 3333.42 594.506 3336 594.506 3319.22 585.461 3272.73 579 3231.42 579 3183.65 579 3142.33 589.338 3132 600.967 3132 600.967 3133.29 599.675 3134.58 599.675 3138.46 595.799 3143.62 593.214 3148.78 594.506 3159.11 594.506 3168.15 600.967 3175.9 611.305 3177.19 615.182 3179.77 617.766 3182.35 621.643 3208.18 668.162 3221.09 759.909 3221.09 776.708 3221.09 801.26 3226.25 926.604 3217.22 951.156 3212.05 965.37 3195.27 974.416 3178.48 973.123 3193.97 975.708 3213.34 977 3232.71 977 3253.37 977 3284.35 975.708 3299.85 973.123 3283.06 974.416 3266.28 965.37 3259.82 951.156Z" fill="#35572D" fill-rule="evenodd"/><path d="M3336 594.506C3319.22 585.461 3272.73 579 3231.42 579 3183.65 579 3142.33 589.338 3132 600.967 3132 600.967 3133.29 599.675 3134.58 599.675 3138.46 595.799 3143.62 593.214 3148.78 594.506 3159.11 594.506 3168.15 600.967 3175.9 611.305 3177.19 615.182 3179.77 617.766 3182.35 621.643 3208.18 668.162 3221.09 759.909 3221.09 776.708 3221.09 801.26 3226.25 926.604 3217.22 951.156 3212.05 965.37 3195.27 974.416 3178.48 973.123 3193.97 975.708 3213.34 977 3232.71 977 3253.37 977 3284.35 975.708 3299.85 973.123 3283.06 974.416 3266.28 965.37 3259.82 951.156 3250.78 926.604 3257.24 801.26 3257.24 776.708 3257.24 753.448 3279.19 594.506 3328.25 594.506 3330.84 594.506 3333.42 594.506 3336 594.506ZM3232.71 962.786C3231.42 962.786 3228.84 962.786 3226.25 962.786 3227.54 960.201 3228.84 957.617 3230.13 955.032 3231.42 952.448 3237.87 949.864 3239.16 945.987 3239.16 949.864 3245.62 952.448 3246.91 955.032 3248.2 957.617 3249.49 960.201 3250.78 962.786 3249.49 962.786 3235.29 962.786 3232.71 962.786ZM3284.35 602.26C3288.23 603.552 3286.94 608.721 3285.65 611.305 3266.28 642.318 3254.66 692.714 3248.2 728.896 3246.91 740.526 3234 749.571 3232.71 757.325 3232.71 749.571 3230.13 740.526 3228.84 730.188 3222.38 692.714 3210.76 646.195 3193.97 615.182 3192.68 613.889 3192.68 612.597 3191.39 611.305 3190.1 608.721 3190.1 603.552 3193.97 602.26 3201.72 599.675 3218.51 594.506 3232.71 594.506 3246.91 594.506 3276.61 599.675 3284.35 602.26Z" fill="#24300F" fill-rule="evenodd"/><path d="M3118.71 707.652C3121.29 724.448 3126.43 742.536 3130.29 760.624 3140.57 800.676 3152.14 842.02 3147 871.736 3145.71 878.196 3145.71 878.196 3145.71 878.196 3143.14 898.868 3143.14 913.08 3143.14 926 3143.14 926 3143.14 926 3143.14 926 3143.14 914.372 3147 898.868 3150.86 879.488 3152.14 871.736 3152.14 871.736 3152.14 871.736 3156 842.02 3149.57 799.384 3139.29 759.332 3134.14 741.244 3130.29 723.156 3126.43 706.36 3118.71 667.6 3121.29 621.088 3136.71 603 3136.71 603 3136.71 603 3136.71 603 3120 622.38 3111 667.6 3118.71 707.652Z" fill="#FFFFFF" fill-rule="evenodd"/><path d="M3220.82 776.463C3220.82 758.366 3205.29 652.366 3174.24 611 3194.94 660.122 3205.29 733.805 3205.29 749.317 3205.29 772.585 3211.76 897.976 3201.41 922.537 3192.35 945.805 3157.41 953.561 3138 932.878 3139.29 941.927 3143.18 949.683 3150.94 958.732 3170.35 982 3207.88 974.244 3216.94 949.683 3226 926.415 3220.82 801.024 3220.82 776.463Z" fill="#50A366" fill-rule="evenodd"/><path d="M3268.17 950C3260.31 931.842 3266.86 843.647 3268.17 802.143 3268.17 776.203 3268.17 776.203 3268.17 776.203 3268.17 756.748 3281.26 641.316 3314 605 3314 605 3314 605 3314 605 3279.95 642.613 3260.31 755.451 3260.31 777.5 3260.31 802.143 3260.31 802.143 3260.31 802.143 3259 865.696 3260.31 931.842 3268.17 950" fill="#FFFFFF" fill-rule="evenodd"/><path d="M3354.27 634C3360.79 656.016 3362.09 681.918 3356.88 706.525 3352.97 723.361 3349.06 741.492 3343.85 759.623 3333.42 799.771 3323 842.508 3326.91 872.295 3333.42 911.148 3334.73 930.574 3323 950 3323 950 3323 950 3323 950 3334.73 929.279 3338.64 911.148 3332.12 872.295 3326.91 842.508 3338.64 801.066 3349.06 760.918 3352.97 742.787 3358.18 724.656 3360.79 707.82 3366 681.918 3360.79 656.016 3354.27 634Z" fill="#FFFFFF" fill-rule="evenodd"/><path d="M3350.11 613C3359.13 636.298 3353.97 679.011 3348.82 707.487 3344.95 724.313 3339.79 742.434 3335.92 760.555 3325.61 801.974 3314 843.392 3319.16 874.457 3320.45 882.223 3320.45 882.223 3320.45 882.223 3325.61 917.17 3333.34 936.585 3319.16 956 3319.16 956 3319.16 956 3319.16 956 3334.63 933.996 3335.92 915.875 3329.47 879.634 3328.18 873.162 3328.18 873.162 3328.18 873.162 3324.32 843.392 3334.63 803.268 3344.95 763.143 3348.82 745.023 3353.97 726.902 3357.84 708.781 3363 679.011 3359.13 638.887 3350.11 613Z" fill="#50A366" fill-rule="evenodd"/><path d="M3218 597C3212.84 602 3206.39 600.75 3201.23 607 3197.35 613.25 3198.65 619.5 3198.65 627 3193.48 620.75 3178 612 3185.74 602 3188.32 598.25 3193.48 600.75 3198.65 598.25" fill="#24300F" fill-rule="evenodd"/><path d="M3223 699.742C3225.64 724.258 3250.72 721.677 3253.36 704.903 3256 692 3252.04 725.548 3252.04 725.548 3230.92 772 3230.92 772 3230.92 772" fill="#24300F" fill-rule="evenodd"/><path d="M3195 601C3196.3 601 3196.3 601 3196.3 601 3200.18 596.714 3224.8 593.857 3248.13 593.857 3263.68 593.857 3279.23 596.714 3287 601 3287 601 3287 601 3287 601 3279.23 596.714 3259.79 591 3242.94 591 3218.32 591 3200.18 593.857 3195 601Z" fill="#FFFFFF" fill-rule="evenodd"/><path d="M3148.82 594.09C3121.63 591.5 3103.5 652.351 3113.86 706.729 3124.22 762.401 3150.11 828.43 3142.34 872.45 3135.87 916.47 3131.98 935.891 3151.41 959.195 3170.83 982.5 3208.37 974.732 3217.44 951.427 3226.5 926.828 3221.32 801.242 3221.32 776.642 3221.32 753.338 3198.02 594.09 3148.82 594.09Z" stroke="#003300" stroke-width="2.86476" stroke-linecap="round" stroke-linejoin="round" stroke-miterlimit="10" fill="none" fill-rule="evenodd"/><path d="M3328.55 594.09C3355.52 591.5 3373.5 652.351 3363.23 706.729 3352.95 762.401 3327.27 828.43 3334.97 872.45 3341.39 916.47 3346.53 935.891 3325.98 959.195 3306.72 982.5 3269.48 974.732 3260.49 951.427 3251.5 926.828 3257.92 801.242 3257.92 776.642 3257.92 753.338 3279.75 594.09 3328.55 594.09Z" stroke="#003300" stroke-width="2.86476" stroke-linecap="round" stroke-linejoin="round" stroke-miterlimit="10" fill="none" fill-rule="evenodd"/><path d="M3260.32 951.656C3251.28 927.104 3257.74 801.76 3257.74 777.208 3257.74 753.948 3279.69 595.007 3328.75 595.007 3331.34 595.007 3333.92 595.007 3336.5 595.007 3319.72 585.961 3273.23 579.5 3231.92 579.5 3184.15 579.5 3142.83 589.838 3132.5 601.468 3132.5 601.468 3133.79 600.175 3135.08 600.175 3138.96 596.299 3144.12 593.714 3149.28 595.007 3159.61 595.007 3168.65 601.468 3176.4 611.805 3177.69 615.682 3180.27 618.266 3182.85 622.143 3208.68 668.662 3221.59 760.409 3221.59 777.208 3221.59 801.76 3226.75 927.104 3217.72 951.656 3212.55 965.87 3195.77 974.916 3178.98 973.624 3194.47 976.208 3213.84 977.5 3233.21 977.5 3253.87 977.5 3284.85 976.208 3300.35 973.624 3283.56 974.916 3266.78 965.87 3260.32 951.656Z" stroke="#003300" stroke-width="2.86476" stroke-linecap="round" stroke-linejoin="round" stroke-miterlimit="10" fill="none" fill-rule="evenodd"/><path d="M3216.5 960.5C3221.69 961.5 3226.88 961.5 3234.66 961.5 3241.15 961.5 3259.31 961.5 3264.5 960.5" stroke="#003300" stroke-width="2.86476" stroke-linecap="round" stroke-linejoin="round" stroke-miterlimit="10" fill="none" fill-rule="evenodd"/><path d="M3287.5 602.5C3281.02 598.3 3265.47 595.5 3248.63 595.5 3227.89 595.5 3200.68 596.9 3195.5 602.5" stroke="#003300" stroke-width="2.86476" stroke-linecap="round" stroke-linejoin="round" stroke-miterlimit="10" fill="none" fill-rule="evenodd"/><path d="M3280 620C3273.68 631.547 3261.05 663.623 3256 688 3258.53 668.755 3267.37 630.264 3280 620Z" fill="#73FFBA" fill-rule="evenodd"/></g></svg>