<svg width="204" height="407" xmlns="http://www.w3.org/2000/svg" xmlns:xlink="http://www.w3.org/1999/xlink" xml:space="preserve" overflow="hidden"><g transform="translate(-1698 -1231)"><path d="M1747.29 1630C1826 1630 1795.03 1465.24 1767.94 1379 1747.29 1314.65 1758.9 1249 1718.9 1249 1717.61 1249 1717.61 1249 1717.61 1249 1678.9 1249 1712.45 1312.07 1724.06 1379 1742.13 1479.4 1666 1630 1746 1630L1747.29 1630Z" fill="#FFBC84" fill-rule="evenodd"/><path d="M1852 1630C1772 1630 1802.97 1465.24 1830.06 1379 1852 1314.65 1839.1 1249 1879.1 1249 1880.39 1249 1880.39 1249 1880.39 1249 1920.39 1249 1885.55 1312.07 1873.94 1379 1857.16 1479.4 1932 1630 1853.29 1630L1852 1630Z" fill="#FFBC84" fill-rule="evenodd"/><path d="M1799.21 1232C1752.75 1232 1715.32 1241.04 1705 1252.65 1707.58 1250.07 1712.74 1248.78 1717.91 1248.78 1719.2 1248.78 1719.2 1248.78 1719.2 1248.78 1759.2 1248.78 1747.59 1314.61 1768.24 1379.14 1795.34 1465.62 1826.31 1630.84 1747.59 1630.84 1746.3 1630.84 1746.3 1630.84 1746.3 1630.84 1743.72 1630.84 1741.14 1630.84 1738.55 1629.55 1755.33 1634.71 1774.69 1636 1799.21 1636 1823.73 1636 1844.38 1634.71 1861.16 1629.55 1858.57 1630.84 1855.99 1630.84 1853.41 1630.84 1852.12 1630.84 1852.12 1630.84 1852.12 1630.84 1772.11 1630.84 1803.08 1465.62 1830.18 1379.14 1852.12 1314.61 1839.22 1248.78 1879.22 1248.78 1880.51 1248.78 1880.51 1248.78 1880.51 1248.78 1888.26 1248.78 1893.42 1251.36 1896 1256.52 1890.84 1242.33 1850.83 1232 1799.21 1232Z" fill="#FF8B4F" fill-rule="evenodd"/><path d="M1799.21 1232C1752.75 1232 1715.32 1241.04 1705 1252.65 1707.58 1250.07 1712.74 1248.78 1717.91 1248.78 1719.2 1248.78 1719.2 1248.78 1719.2 1248.78 1759.2 1248.78 1747.59 1314.61 1768.24 1379.14 1795.34 1465.62 1826.31 1630.84 1747.59 1630.84 1746.3 1630.84 1746.3 1630.84 1746.3 1630.84 1743.72 1630.84 1741.14 1630.84 1738.55 1629.55 1755.33 1634.71 1774.69 1636 1799.21 1636 1823.73 1636 1844.38 1634.71 1861.16 1629.55 1858.57 1630.84 1855.99 1630.84 1853.41 1630.84 1852.12 1630.84 1852.12 1630.84 1852.12 1630.84 1772.11 1630.84 1803.08 1465.62 1830.18 1379.14 1852.12 1314.61 1839.22 1248.78 1879.22 1248.78 1880.51 1248.78 1880.51 1248.78 1880.51 1248.78 1888.26 1248.78 1893.42 1251.36 1896 1256.52 1890.84 1242.33 1850.83 1232 1799.21 1232ZM1800.5 1607.6C1801.79 1612.77 1804.37 1616.64 1806.95 1620.51 1808.24 1621.8 1809.53 1623.09 1810.82 1624.38 1806.95 1624.38 1804.37 1624.38 1799.21 1624.38 1794.05 1624.38 1792.76 1624.38 1787.59 1624.38 1788.89 1623.09 1790.18 1621.8 1791.47 1620.51 1794.05 1616.64 1796.63 1612.77 1797.92 1607.6 1800.5 1605.02 1799.21 1605.02 1800.5 1607.6ZM1845.67 1259.11C1837.93 1272.01 1835.34 1291.37 1832.76 1312.03 1830.18 1331.39 1826.31 1354.62 1819.86 1376.56 1817.28 1383.02 1809.53 1406.25 1803.08 1438.52 1800.5 1448.84 1797.92 1448.84 1795.34 1438.52 1788.89 1407.54 1781.14 1383.02 1778.56 1376.56 1772.11 1354.62 1769.53 1331.39 1765.66 1312.03 1763.07 1292.66 1760.49 1274.59 1754.04 1260.4 1751.46 1255.23 1777.27 1246.2 1800.5 1246.2 1823.73 1246.2 1846.96 1255.23 1845.67 1259.11Z" fill="#FF5A2B" fill-rule="evenodd"/><path d="M1715.4 1324.67C1720.6 1341.41 1727.1 1362.02 1729.7 1381.34 1736.2 1421.26 1729.7 1468.92 1721.9 1510.13 1716.7 1543.62 1710.2 1575.82 1714.1 1599 1714.1 1599 1714.1 1599 1714.1 1599 1710.2 1577.11 1723.2 1543.62 1729.7 1510.13 1736.2 1467.63 1744 1419.98 1737.5 1380.05 1733.6 1359.44 1728.4 1340.12 1723.2 1322.09 1716.7 1300.2 1705 1280.88 1705 1268 1705 1268 1705 1268 1705 1268 1705 1282.17 1710.2 1302.77 1715.4 1324.67Z" fill="#FFFFFF" fill-rule="evenodd"/><path d="M1767.7 1379C1748.27 1318.51 1757.34 1256.72 1724.95 1249 1750.86 1278.6 1741.8 1327.52 1756.05 1371.28 1784.55 1457.52 1807.86 1611.98 1727.55 1611.98 1726.25 1611.98 1726.25 1611.98 1726.25 1611.98 1721.07 1611.98 1717.18 1611.98 1712 1610.69 1717.18 1622.28 1727.55 1630 1745.68 1630 1746.98 1630 1746.98 1630 1746.98 1630 1826 1630 1794.91 1465.24 1767.7 1379Z" fill="#FFA368" fill-rule="evenodd"/><path d="M1883.3 1324.67C1879.4 1341.41 1872.9 1362.02 1870.3 1381.34 1862.5 1421.26 1870.3 1468.92 1878.1 1510.13 1883.3 1543.62 1889.8 1575.82 1885.9 1599 1885.9 1599 1885.9 1599 1885.9 1599 1889.8 1577.11 1876.8 1543.62 1870.3 1510.13 1863.8 1467.63 1856 1419.98 1862.5 1380.05 1866.4 1359.44 1871.6 1340.12 1876.8 1322.09 1883.3 1300.2 1895 1280.88 1893.7 1268 1893.7 1268 1893.7 1268 1893.7 1268 1895 1282.17 1889.8 1302.77 1883.3 1324.67Z" fill="#FFA368" fill-rule="evenodd"/><path d="M1848.06 1313.42C1845.47 1332.77 1842.88 1355.98 1835.12 1379.19 1811.82 1450.12 1795 1550.71 1817 1601 1817 1601 1817 1601 1817 1601 1795 1548.13 1822.18 1447.54 1840.29 1390.8 1846.76 1367.59 1850.65 1337.93 1853.24 1317.29 1855.82 1299.24 1855.82 1278.61 1861 1267 1861 1267 1861 1267 1861 1267 1855.82 1279.9 1850.65 1294.08 1848.06 1313.42Z" fill="#FFFFFF" fill-rule="evenodd"/><path d="M1893.69 1269C1895 1280.63 1888.46 1298.71 1881.92 1324.55 1876.69 1342.63 1871.46 1362.01 1867.54 1382.68 1861 1422.73 1868.85 1470.53 1875.38 1511.86 1876.69 1522.2 1876.69 1522.2 1876.69 1522.2 1881.92 1551.91 1888.46 1580.33 1885.85 1601 1885.85 1601 1885.85 1601 1885.85 1601 1888.46 1579.04 1887.15 1551.91 1881.92 1522.2 1879.31 1511.86 1879.31 1511.86 1879.31 1511.86 1872.77 1469.23 1864.92 1422.73 1871.46 1383.97 1875.38 1363.3 1880.62 1343.93 1885.85 1325.84 1893.69 1300 1895 1281.92 1893.69 1269Z" fill="#FFFFFF" fill-rule="evenodd"/><path d="M1882.87 1325.84C1877.8 1342.63 1871.47 1363.3 1868.93 1382.68 1862.6 1422.73 1868.93 1469.23 1876.53 1511.86 1881.6 1545.45 1887.93 1577.75 1884.13 1601 1884.13 1601 1884.13 1601 1884.13 1601 1887.93 1577.75 1875.27 1545.45 1868.93 1511.86 1862.6 1469.23 1855 1421.44 1861.33 1381.39 1865.13 1360.72 1870.2 1341.34 1875.27 1323.26 1881.6 1301.3 1893 1281.92 1893 1269 1893 1269 1893 1269 1893 1269 1893 1283.21 1887.93 1303.88 1882.87 1325.84Z" fill="#FFA368" fill-rule="evenodd"/><path d="M1788 1248C1770.94 1253.13 1761.75 1277.49 1763.06 1298 1761.75 1290.31 1746 1255.69 1756.5 1251.85" fill="#FF5A2B" fill-rule="evenodd"/><path d="M1754 1255.38C1755.29 1256.69 1755.29 1256.69 1755.29 1256.69 1759.17 1251.46 1774.67 1246.23 1800.5 1246.23 1827.62 1246.23 1843.12 1251.46 1845.71 1258 1847 1258 1847 1258 1847 1258 1843.12 1247.54 1822.46 1241 1800.5 1241 1775.96 1241 1760.46 1248.85 1754 1255.38Z" fill="#FFFFFF" fill-rule="evenodd"/><path d="M1747.79 1630.5C1826.5 1630.5 1795.53 1465.74 1768.44 1379.5 1747.79 1315.15 1759.4 1249.5 1719.4 1249.5 1718.11 1249.5 1718.11 1249.5 1718.11 1249.5 1679.4 1249.5 1712.95 1312.57 1724.56 1379.5 1742.63 1479.9 1666.5 1630.5 1746.5 1630.5L1747.79 1630.5Z" stroke="#333333" stroke-width="2.86476" stroke-linecap="round" stroke-linejoin="round" stroke-miterlimit="10" fill="none" fill-rule="evenodd"/><path d="M1852.5 1630.5C1772.5 1630.5 1803.47 1465.74 1830.56 1379.5 1852.5 1315.15 1839.6 1249.5 1879.6 1249.5 1880.89 1249.5 1880.89 1249.5 1880.89 1249.5 1920.89 1249.5 1886.05 1312.57 1874.44 1379.5 1857.66 1479.9 1932.5 1630.5 1853.79 1630.5L1852.5 1630.5Z" stroke="#333333" stroke-width="2.86476" stroke-linecap="round" stroke-linejoin="round" stroke-miterlimit="10" fill="none" fill-rule="evenodd"/><path d="M1799.71 1232.5C1753.25 1232.5 1715.82 1241.54 1705.5 1253.15 1708.08 1250.57 1713.24 1249.28 1718.41 1249.28 1719.7 1249.28 1719.7 1249.28 1719.7 1249.28 1759.7 1249.28 1748.09 1315.11 1768.74 1379.64 1795.84 1466.12 1826.81 1631.34 1748.09 1631.34 1746.8 1631.34 1746.8 1631.34 1746.8 1631.34 1744.22 1631.34 1741.64 1631.34 1739.05 1630.05 1755.83 1635.21 1775.19 1636.5 1799.71 1636.5 1824.23 1636.5 1844.88 1635.21 1861.66 1630.05 1859.07 1631.34 1856.49 1631.34 1853.91 1631.34 1852.62 1631.34 1852.62 1631.34 1852.62 1631.34 1772.61 1631.34 1803.58 1466.12 1830.68 1379.64 1852.62 1315.11 1839.72 1249.28 1879.72 1249.28 1881.01 1249.28 1881.01 1249.28 1881.01 1249.28 1888.76 1249.28 1893.92 1251.86 1896.5 1257.02 1891.34 1242.83 1851.33 1232.5 1799.71 1232.5Z" stroke="#333333" stroke-width="2.86476" stroke-linecap="round" stroke-linejoin="round" stroke-miterlimit="10" fill="none" fill-rule="evenodd"/><path d="M1777.5 1621.83C1783.93 1623.17 1790.36 1624.5 1799.36 1624.5 1809.64 1624.5 1816.07 1623.17 1822.5 1620.5" stroke="#333333" stroke-width="2.86476" stroke-linecap="round" stroke-linejoin="round" stroke-miterlimit="10" fill="none" fill-rule="evenodd"/><path d="M1848.5 1259.5C1845.93 1253 1826.68 1246.5 1801 1246.5 1776.61 1246.5 1759.92 1251.7 1753.5 1258.2" stroke="#333333" stroke-width="2.86476" stroke-linecap="round" stroke-linejoin="round" stroke-miterlimit="10" fill="none" fill-rule="evenodd"/><path d="M1834 1290C1832.74 1304.23 1830.21 1333.98 1826.42 1352.09 1822.63 1368.9 1815.05 1394.77 1810 1409 1811.26 1392.18 1821.37 1355.97 1823.89 1346.91 1825.16 1337.86 1830.21 1305.52 1834 1290Z" fill="#FFFFFF" fill-rule="evenodd"/></g></svg>