<svg width="204" height="407" xmlns="http://www.w3.org/2000/svg" xmlns:xlink="http://www.w3.org/1999/xlink" xml:space="preserve" overflow="hidden"><g transform="translate(-3415 -1203)"><path d="M3464.29 1602C3543 1602 3512.03 1437.24 3484.94 1351 3464.29 1286.65 3475.9 1221 3435.9 1221 3434.61 1221 3434.61 1221 3434.61 1221 3395.9 1221 3429.45 1284.07 3441.06 1351 3459.13 1451.4 3383 1602 3463 1602L3464.29 1602Z" fill="#71D584" fill-rule="evenodd"/><path d="M3569 1602C3489 1602 3519.97 1437.24 3547.06 1351 3569 1286.65 3556.1 1221 3596.1 1221 3597.39 1221 3597.39 1221 3597.39 1221 3637.39 1221 3602.55 1284.07 3590.94 1351 3574.16 1451.4 3649 1602 3570.29 1602L3569 1602Z" fill="#71D584" fill-rule="evenodd"/><path d="M3516.21 1204C3469.75 1204 3432.32 1213.04 3422 1224.65 3424.58 1222.07 3429.74 1220.78 3434.91 1220.78 3436.2 1220.78 3436.2 1220.78 3436.2 1220.78 3476.2 1220.78 3464.59 1286.61 3485.24 1351.14 3512.34 1437.62 3543.31 1602.84 3464.59 1602.84 3463.3 1602.84 3463.3 1602.84 3463.3 1602.84 3460.72 1602.84 3458.14 1602.84 3455.55 1601.55 3472.33 1606.71 3491.69 1608 3516.21 1608 3540.73 1608 3561.38 1606.71 3578.16 1601.55 3575.57 1602.84 3572.99 1602.84 3570.41 1602.84 3569.12 1602.84 3569.12 1602.84 3569.12 1602.84 3489.11 1602.84 3520.08 1437.62 3547.18 1351.14 3569.12 1286.61 3556.22 1220.78 3596.22 1220.78 3597.51 1220.78 3597.51 1220.78 3597.51 1220.78 3605.26 1220.78 3610.42 1223.36 3613 1228.52 3607.84 1214.33 3567.83 1204 3516.21 1204Z" fill="#6FA44F" fill-rule="evenodd"/><path d="M3516.21 1204C3469.75 1204 3432.32 1213.04 3422 1224.65 3424.58 1222.07 3429.74 1220.78 3434.91 1220.78 3436.2 1220.78 3436.2 1220.78 3436.2 1220.78 3476.2 1220.78 3464.59 1286.61 3485.24 1351.14 3512.34 1437.62 3543.31 1602.84 3464.59 1602.84 3463.3 1602.84 3463.3 1602.84 3463.3 1602.84 3460.72 1602.84 3458.14 1602.84 3455.55 1601.55 3472.33 1606.71 3491.69 1608 3516.21 1608 3540.73 1608 3561.38 1606.71 3578.16 1601.55 3575.57 1602.84 3572.99 1602.84 3570.41 1602.84 3569.12 1602.84 3569.12 1602.84 3569.12 1602.84 3489.11 1602.84 3520.08 1437.62 3547.18 1351.14 3569.12 1286.61 3556.22 1220.78 3596.22 1220.78 3597.51 1220.78 3597.51 1220.78 3597.51 1220.78 3605.26 1220.78 3610.42 1223.36 3613 1228.52 3607.84 1214.33 3567.83 1204 3516.21 1204ZM3517.5 1579.6C3518.79 1584.77 3521.37 1588.64 3523.95 1592.51 3525.24 1593.8 3526.53 1595.09 3527.82 1596.38 3523.95 1596.38 3521.37 1596.38 3516.21 1596.38 3511.05 1596.38 3509.76 1596.38 3504.59 1596.38 3505.89 1595.09 3507.18 1593.8 3508.47 1592.51 3511.05 1588.64 3513.63 1584.77 3514.92 1579.6 3517.5 1577.02 3516.21 1577.02 3517.5 1579.6ZM3562.67 1231.11C3554.93 1244.01 3552.34 1263.37 3549.76 1284.03 3547.18 1303.39 3543.31 1326.62 3536.86 1348.56 3534.28 1355.02 3526.53 1378.25 3520.08 1410.52 3517.5 1420.84 3514.92 1420.84 3512.34 1410.52 3505.89 1379.54 3498.14 1355.02 3495.56 1348.56 3489.11 1326.62 3486.53 1303.39 3482.66 1284.03 3480.07 1264.66 3477.49 1246.59 3471.04 1232.4 3468.46 1227.23 3494.27 1218.2 3517.5 1218.2 3540.73 1218.2 3563.96 1227.23 3562.67 1231.11Z" fill="#6E732B" fill-rule="evenodd"/><path d="M3432.4 1296.67C3437.6 1313.41 3444.1 1334.02 3446.7 1353.34 3453.2 1393.26 3446.7 1440.92 3438.9 1482.13 3433.7 1515.62 3427.2 1547.82 3431.1 1571 3431.1 1571 3431.1 1571 3431.1 1571 3427.2 1549.1 3440.2 1515.62 3446.7 1482.13 3453.2 1439.63 3461 1391.98 3454.5 1352.05 3450.6 1331.44 3445.4 1312.12 3440.2 1294.09 3433.7 1272.2 3422 1252.88 3422 1240 3422 1240 3422 1240 3422 1240 3422 1254.17 3427.2 1274.77 3432.4 1296.67Z" fill="#FFFFFF" fill-rule="evenodd"/><path d="M3484.7 1351C3465.27 1290.51 3474.34 1228.72 3441.95 1221 3467.86 1250.6 3458.8 1299.52 3473.05 1343.28 3501.55 1429.52 3524.86 1583.98 3444.55 1583.98 3443.25 1583.98 3443.25 1583.98 3443.25 1583.98 3438.07 1583.98 3434.18 1583.98 3429 1582.69 3434.18 1594.28 3444.55 1602 3462.68 1602 3463.98 1602 3463.98 1602 3463.98 1602 3543 1602 3511.91 1437.24 3484.7 1351Z" fill="#70BC68" fill-rule="evenodd"/><path d="M3600.3 1296.67C3596.4 1313.41 3589.9 1334.02 3587.3 1353.34 3579.5 1393.26 3587.3 1440.92 3595.1 1482.13 3600.3 1515.62 3606.8 1547.82 3602.9 1571 3602.9 1571 3602.9 1571 3602.9 1571 3606.8 1549.1 3593.8 1515.62 3587.3 1482.13 3580.8 1439.63 3573 1391.98 3579.5 1352.05 3583.4 1331.44 3588.6 1312.12 3593.8 1294.09 3600.3 1272.2 3612 1252.88 3610.7 1240 3610.7 1240 3610.7 1240 3610.7 1240 3612 1254.17 3606.8 1274.77 3600.3 1296.67Z" fill="#70BC68" fill-rule="evenodd"/><path d="M3565.06 1285.42C3562.47 1304.77 3559.88 1327.98 3552.12 1351.19 3528.82 1422.12 3512 1522.71 3534 1573 3534 1573 3534 1573 3534 1573 3512 1520.13 3539.18 1419.54 3557.29 1362.8 3563.76 1339.59 3567.65 1309.93 3570.24 1289.29 3572.82 1271.24 3572.82 1250.61 3578 1239 3578 1239 3578 1239 3578 1239 3572.82 1251.9 3567.65 1266.08 3565.06 1285.42Z" fill="#FFFFFF" fill-rule="evenodd"/><path d="M3610.69 1241C3612 1252.63 3605.46 1270.71 3598.92 1296.55 3593.69 1314.63 3588.46 1334.01 3584.54 1354.68 3578 1394.73 3585.85 1442.53 3592.38 1483.86 3593.69 1494.2 3593.69 1494.2 3593.69 1494.2 3598.92 1523.91 3605.46 1552.33 3602.85 1573 3602.85 1573 3602.85 1573 3602.85 1573 3605.46 1551.04 3604.15 1523.91 3598.92 1494.2 3596.31 1483.86 3596.31 1483.86 3596.31 1483.86 3589.77 1441.23 3581.92 1394.73 3588.46 1355.97 3592.38 1335.3 3597.62 1315.93 3602.85 1297.84 3610.69 1272 3612 1253.92 3610.69 1241Z" fill="#FFFFFF" fill-rule="evenodd"/><path d="M3599.87 1297.84C3594.8 1314.63 3588.47 1335.3 3585.93 1354.68 3579.6 1394.73 3585.93 1441.23 3593.53 1483.86 3598.6 1517.45 3604.93 1549.75 3601.13 1573 3601.13 1573 3601.13 1573 3601.13 1573 3604.93 1549.75 3592.27 1517.45 3585.93 1483.86 3579.6 1441.23 3572 1393.44 3578.33 1353.39 3582.13 1332.72 3587.2 1313.34 3592.27 1295.26 3598.6 1273.3 3610 1253.92 3610 1241 3610 1241 3610 1241 3610 1241 3610 1255.21 3604.93 1275.88 3599.87 1297.84Z" fill="#70BC68" fill-rule="evenodd"/><path d="M3505 1220C3487.94 1225.13 3478.75 1249.49 3480.06 1270 3478.75 1262.31 3463 1227.69 3473.5 1223.85" fill="#6E732B" fill-rule="evenodd"/><path d="M3471 1227.38C3472.29 1228.69 3472.29 1228.69 3472.29 1228.69 3476.17 1223.46 3491.67 1218.23 3517.5 1218.23 3544.62 1218.23 3560.12 1223.46 3562.71 1230 3564 1230 3564 1230 3564 1230 3560.12 1219.54 3539.46 1213 3517.5 1213 3492.96 1213 3477.46 1220.85 3471 1227.38Z" fill="#FFFFFF" fill-rule="evenodd"/><path d="M3464.79 1602.5C3543.5 1602.5 3512.53 1437.74 3485.44 1351.5 3464.79 1287.15 3476.4 1221.5 3436.4 1221.5 3435.11 1221.5 3435.11 1221.5 3435.11 1221.5 3396.4 1221.5 3429.95 1284.57 3441.56 1351.5 3459.63 1451.9 3383.5 1602.5 3463.5 1602.5L3464.79 1602.5Z" stroke="#003300" stroke-width="2.86476" stroke-linecap="round" stroke-linejoin="round" stroke-miterlimit="10" fill="none" fill-rule="evenodd"/><path d="M3569.5 1602.5C3489.5 1602.5 3520.47 1437.74 3547.56 1351.5 3569.5 1287.15 3556.6 1221.5 3596.6 1221.5 3597.89 1221.5 3597.89 1221.5 3597.89 1221.5 3637.89 1221.5 3603.05 1284.57 3591.44 1351.5 3574.66 1451.9 3649.5 1602.5 3570.79 1602.5L3569.5 1602.5Z" stroke="#003300" stroke-width="2.86476" stroke-linecap="round" stroke-linejoin="round" stroke-miterlimit="10" fill="none" fill-rule="evenodd"/><path d="M3516.71 1204.5C3470.25 1204.5 3432.82 1213.54 3422.5 1225.15 3425.08 1222.57 3430.24 1221.28 3435.41 1221.28 3436.7 1221.28 3436.7 1221.28 3436.7 1221.28 3476.7 1221.28 3465.09 1287.11 3485.74 1351.64 3512.84 1438.12 3543.81 1603.34 3465.09 1603.34 3463.8 1603.34 3463.8 1603.34 3463.8 1603.34 3461.22 1603.34 3458.64 1603.34 3456.05 1602.05 3472.83 1607.21 3492.19 1608.5 3516.71 1608.5 3541.23 1608.5 3561.88 1607.21 3578.66 1602.05 3576.07 1603.34 3573.49 1603.34 3570.91 1603.34 3569.62 1603.34 3569.62 1603.34 3569.62 1603.34 3489.61 1603.34 3520.58 1438.12 3547.68 1351.64 3569.62 1287.11 3556.72 1221.28 3596.72 1221.28 3598.01 1221.28 3598.01 1221.28 3598.01 1221.28 3605.76 1221.28 3610.92 1223.86 3613.5 1229.02 3608.34 1214.83 3568.33 1204.5 3516.71 1204.5Z" stroke="#003300" stroke-width="2.86476" stroke-linecap="round" stroke-linejoin="round" stroke-miterlimit="10" fill="none" fill-rule="evenodd"/><path d="M3494.5 1593.83C3500.93 1595.17 3507.36 1596.5 3516.36 1596.5 3526.64 1596.5 3533.07 1595.17 3539.5 1592.5" stroke="#003300" stroke-width="2.86476" stroke-linecap="round" stroke-linejoin="round" stroke-miterlimit="10" fill="none" fill-rule="evenodd"/><path d="M3565.5 1231.5C3562.93 1225 3543.68 1218.5 3518 1218.5 3493.61 1218.5 3476.92 1223.7 3470.5 1230.2" stroke="#003300" stroke-width="2.86476" stroke-linecap="round" stroke-linejoin="round" stroke-miterlimit="10" fill="none" fill-rule="evenodd"/><path d="M3551 1262C3549.74 1276.23 3547.21 1305.98 3543.42 1324.09 3539.63 1340.9 3532.05 1366.77 3527 1381 3528.26 1364.18 3538.37 1327.97 3540.89 1318.91 3542.16 1309.86 3547.21 1277.52 3551 1262Z" fill="#FFFFFF" fill-rule="evenodd"/></g></svg>