<svg width="214" height="415" xmlns="http://www.w3.org/2000/svg" xmlns:xlink="http://www.w3.org/1999/xlink" xml:space="preserve" overflow="hidden"><g transform="translate(-2806 -547)"><path d="M2893.94 785.683C2881.61 776.142 2877.12 758.252 2882.73 742.748 2887.21 732.014 2895.06 724.858 2904.03 721.281 2909.64 718.895 2909.64 712.932 2910.76 705.776 2913 655.686 2913 650.915 2910.76 624.677 2905.15 579.357 2887.21 540 2846.85 550.734 2807.61 560.275 2802 606.788 2810.97 660.456 2817.7 704.584 2832.27 859.626 2834.52 888.249 2840.12 949.074 2844.61 961 2871.52 961 2899.55 961 2913 933.57 2913 897.791 2913 897.791 2911.88 810.728 2911.88 803.572 2911.88 797.609 2910.76 795.224 2906.27 792.839 2906.27 792.839 2899.55 790.453 2893.94 785.683Z" fill="#F5CE68" fill-rule="evenodd"/><path d="M2899.24 793.532C2899.24 793.532 2892.59 791.149 2887.04 786.383 2874.85 776.851 2870.41 754.213 2875.96 738.723 2880.39 729.191 2888.15 720.851 2897.02 717.276 2902.57 714.893 2902.57 708.936 2903.67 701.787 2905.89 651.745 2907 651.745 2903.67 625.532 2901.46 595.745 2891.48 571.915 2873.74 560 2881.5 573.106 2885.93 589.787 2888.15 612.425 2891.48 638.638 2890.37 641.021 2888.15 692.255 2888.15 699.404 2884.83 707.745 2878.17 713.702 2870.41 720.851 2865.98 728 2862.65 738.723 2856 754.213 2859.33 778.042 2872.63 789.957 2894.8 811.404 2895.91 891.234 2895.91 891.234 2895.91 921.021 2899.24 926.979 2890.37 952 2901.46 941.276 2907 921.021 2907 898.383 2907 898.383 2904.78 811.404 2904.78 804.255 2904.78 798.298 2903.67 795.915 2899.24 793.532Z" fill="#EFBB00" fill-rule="evenodd"/><path d="M2846.6 890.676C2844.4 863.279 2844.4 708.426 2837.78 665.544 2828.96 614.323 2823.44 550 2867.56 555.956 2867.56 555.956 2867.56 555.956 2867.56 555.956 2862.04 553.574 2854.32 553.574 2846.6 555.956 2809.1 565.485 2808 614.323 2816.82 665.544 2823.44 708.426 2836.68 854.941 2838.88 881.147 2844.4 939.515 2847.71 955 2874.18 955 2877.49 955 2879.69 955 2883 953.809 2867.56 950.235 2851.01 938.323 2846.6 890.676Z" fill="#FCEFD1" fill-rule="evenodd"/><path d="M2839.2 881C2836.97 854.81 2823.6 708.381 2816.91 665.524 2808 614.333 2809.11 565.524 2847 556 2833.63 563.143 2819.14 582.19 2819.14 620.286 2819.14 659.571 2839.2 808.381 2839.2 881Z" fill="#FFFFFF" fill-rule="evenodd"/><path d="M2932.89 785.683C2944 776.142 2949.56 758.252 2942.89 742.748 2939.56 732.014 2931.78 724.858 2922.89 721.281 2917.33 718.895 2916.22 712.932 2916.22 705.776 2914 655.686 2914 650.915 2916.22 624.677 2921.78 579.357 2939.56 540 2978.44 550.734 3018.44 560.275 3024 606.788 3014 660.456 3007.33 704.584 2994 859.626 2990.67 888.249 2986.22 949.074 2981.78 961 2954 961 2927.33 961 2914 933.57 2914 897.791 2914 897.791 2914 810.728 2914 803.572 2914 797.609 2916.22 795.224 2919.56 792.839 2920.67 792.839 2927.33 790.453 2932.89 785.683Z" fill="#F5CE68" fill-rule="evenodd"/><path d="M2918.09 930.369C2916.97 927.983 2916.97 925.597 2915.86 923.211 2915.86 923.211 2915.86 923.211 2915.86 923.211 2914.74 918.439 2914.74 912.474 2913.62 907.702 2913.62 906.509 2913.62 906.509 2913.62 906.509 2913.62 902.93 2913.62 900.544 2913.62 898.158 2913.62 898.158 2913.62 851.632 2913.62 821.807 2913.62 803.912 2913.62 803.912 2913.62 803.912 2913.62 797.947 2915.86 795.562 2919.21 793.176 2920.33 793.176 2927.04 790.79 2932.63 786.018 2943.82 776.474 2949.41 758.579 2942.7 743.07 2939.34 732.333 2931.51 725.176 2922.57 721.597 2916.97 719.211 2915.86 713.246 2915.86 706.088 2913.62 655.983 2913.62 651.211 2915.86 624.965 2920.33 590.368 2931.51 558.158 2955 551 2939.34 553.386 2925.92 555.772 2914.74 564.123 2913.62 565.316 2912.5 564.123 2911.38 564.123 2900.2 555.772 2886.78 553.386 2870 551 2894.61 558.158 2905.79 590.368 2910.26 624.965 2912.5 651.211 2912.5 655.983 2910.26 706.088 2909.14 713.246 2909.14 719.211 2903.55 721.597 2894.61 725.176 2886.78 732.333 2882.3 743.07 2876.71 758.579 2881.18 776.474 2893.49 786.018 2899.08 790.79 2905.79 793.176 2905.79 793.176 2910.26 795.562 2911.38 797.947 2911.38 803.912 2912.5 821.807 2912.5 821.807 2912.5 821.807 2912.5 851.632 2912.5 898.158 2912.5 898.158 2912.5 900.544 2911.38 904.123 2911.38 906.509 2911.38 906.509 2911.38 907.702 2911.38 907.702 2911.38 910.088 2911.38 913.667 2910.26 916.053 2910.26 916.053 2910.26 916.053 2910.26 917.246 2910.26 922.018 2909.14 926.79 2906.91 931.562 2902.43 945.877 2894.61 955.421 2882.3 959 2882.3 959 2882.3 959 2882.3 959 2882.3 959 2882.3 959 2882.3 959 2882.3 959 2882.3 959 2882.3 959 2882.3 959 2882.3 959 2882.3 959 2890.13 957.807 2899.08 955.421 2908.03 954.228 2909.14 954.228 2910.26 954.228 2911.38 954.228 2911.38 954.228 2912.5 954.228 2912.5 954.228 2913.62 954.228 2913.62 954.228 2914.74 954.228 2915.86 954.228 2916.97 954.228 2918.09 954.228 2927.04 955.421 2935.99 957.807 2942.7 959 2942.7 959 2942.7 959 2942.7 959 2942.7 959 2942.7 959 2942.7 959 2943.82 959 2943.82 959 2943.82 959 2943.82 959 2943.82 959 2943.82 959 2931.51 955.421 2922.57 944.684 2918.09 930.369Z" fill="#E19700" fill-rule="evenodd"/><path d="M2905.89 904C2905.89 904 2907 813.721 2907 806.594 2907 799.467 2904.77 795.903 2899.2 793.527 2884.71 789.964 2873.57 770.958 2873.57 754.327 2873.57 743.636 2878.03 732.946 2885.83 727.006 2890.29 722.255 2904.77 715.127 2902.54 708 2902.54 711.564 2886.94 717.503 2880.26 725.818 2872.46 734.133 2868 742.449 2868 755.515 2868 768.582 2876.91 787.588 2888.06 793.527 2900.31 799.467 2903.66 804.218 2904.77 813.721 2905.89 823.224 2905.89 904 2905.89 904Z" fill="#E19700" fill-rule="evenodd"/><path d="M2926.53 793.532C2927.62 793.532 2934.16 791.149 2939.6 786.383 2951.58 776.851 2955.93 754.213 2949.4 738.723 2946.13 729.191 2938.51 720.851 2929.8 717.276 2924.36 714.893 2924.36 708.936 2923.27 701.787 2921.09 651.745 2920 651.745 2922.18 625.532 2925.44 595.745 2935.24 571.915 2952.67 560 2945.04 573.106 2940.69 589.787 2938.51 612.425 2935.24 638.638 2936.33 641.021 2938.51 692.255 2938.51 699.404 2941.78 707.745 2948.31 713.702 2955.93 720.851 2960.29 728 2963.56 738.723 2969 754.213 2965.73 778.042 2952.67 789.957 2931.98 811.404 2929.8 891.234 2929.8 891.234 2929.8 921.021 2927.62 926.979 2936.33 952 2925.44 941.276 2920 921.021 2920 898.383 2920 898.383 2921.09 811.404 2921.09 804.255 2921.09 798.298 2923.27 795.915 2926.53 793.532Z" fill="#FCEFD1" fill-rule="evenodd"/><path d="M2978.76 890.676C2982.12 863.279 2982.12 708.426 2988.82 665.544 2997.76 614.323 3003.35 550 2958.65 555.956 2958.65 555.956 2958.65 555.956 2957.53 555.956 2964.24 553.574 2972.06 553.574 2979.88 555.956 3017.88 565.485 3019 614.323 3010.06 665.544 3003.35 708.426 2989.94 854.941 2987.71 881.147 2982.12 939.515 2978.76 955 2951.94 955 2948.59 955 2945.24 955 2943 953.809 2958.65 950.235 2975.41 938.323 2978.76 890.676Z" fill="#EFBB00" fill-rule="evenodd"/><path d="M2987.8 881C2990.03 854.81 3003.4 708.381 3010.09 665.524 3019 614.333 3017.89 565.524 2980 556 2993.37 563.143 3007.86 582.19 3007.86 620.286 3007.86 659.571 2987.8 808.381 2987.8 881Z" fill="#E19700" fill-rule="evenodd"/><path d="M2911.34 939.916C2915.77 933.952 2921.31 938.723 2921.31 938.723 2921.31 938.723 2921.31 938.723 2921.31 937.53 2920.2 935.145 2919.09 932.759 2917.98 930.374 2916.88 927.988 2916.88 925.602 2915.77 923.217 2915.77 923.217 2915.77 923.217 2915.77 923.217 2914.66 918.446 2914.66 912.482 2913.55 907.711 2913.55 906.518 2913.55 906.518 2913.55 906.518 2913.55 902.94 2913.55 900.554 2913.55 898.169 2913.55 898.169 2913.55 851.651 2913.55 821.831 2913.55 803.94 2913.55 803.94 2913.55 803.94 2913.55 797.976 2915.77 795.59 2919.09 793.205 2920.2 793.205 2926.85 790.819 2932.38 786.048 2943.46 776.506 2949 758.615 2942.35 743.109 2939.03 732.374 2931.28 725.217 2922.42 721.639 2916.88 719.253 2915.77 713.289 2915.77 706.133 2913.55 656.036 2913.55 651.265 2915.77 625.024 2914.66 616.675 2913.55 605.94 2911.34 596.398 2906.91 580.892 2896.94 570.157 2888.08 563 2900.26 577.313 2906.91 599.976 2910.23 625.024 2912.45 651.265 2912.45 656.036 2910.23 706.133 2909.12 713.289 2909.12 719.253 2903.58 721.639 2894.72 725.217 2886.97 732.374 2882.54 743.109 2877 758.615 2881.43 776.506 2893.62 786.048 2899.15 790.819 2905.8 793.205 2905.8 793.205 2910.23 795.59 2911.34 797.976 2911.34 803.94 2912.45 821.831 2912.45 821.831 2912.45 821.831 2912.45 851.651 2912.45 898.169 2912.45 898.169 2912.45 900.554 2911.34 904.133 2911.34 906.518 2911.34 906.518 2911.34 907.711 2911.34 907.711 2911.34 910.096 2911.34 913.675 2910.23 916.06 2910.23 916.06 2910.23 916.06 2910.23 917.253 2910.23 922.024 2909.12 926.795 2906.91 931.566 2902.48 945.88 2894.72 955.422 2882.54 959 2882.54 959 2882.54 959 2882.54 959 2882.54 959 2882.54 959 2882.54 959 2882.54 959 2882.54 959 2882.54 959 2882.54 959 2882.54 959 2882.54 959 2885.86 959 2890.29 957.807 2894.72 956.615 2902.48 949.458 2910.23 942.301 2911.34 939.916Z" fill="#C67103" fill-rule="evenodd"/><path d="M2932 560C2922.86 562.4 2917.14 566 2917.14 573.2 2916 580.4 2916 597.2 2916 602 2917.14 596 2917.14 564.8 2932 560Z" fill="#F5CE68" fill-rule="evenodd"/><path d="M2946.55 725.132C2942.03 720.362 2935.24 716.785 2929.58 713.208 2928.45 712.015 2927.32 709.63 2926.18 703.668 2926.18 692.936 2916 629.736 2930.71 588 2928.45 595.155 2918.26 622.581 2919.39 675.049 2920.53 691.744 2922.79 709.63 2922.79 709.63 2922.79 709.63 2922.79 709.63 2922.79 709.63 2925.05 715.593 2936.37 721.555 2940.89 726.325 2948.82 732.287 2953.34 743.019 2953.34 753.751 2953.34 770.445 2942.03 789.525 2927.32 793.102 2921.66 795.487 2919.39 799.064 2919.39 806.219 2919.39 813.374 2920.53 904 2920.53 904 2920.53 904 2920.53 822.913 2921.66 813.374 2922.79 803.834 2926.18 799.064 2937.5 793.102 2949.95 787.14 2959 768.06 2959 754.944 2959 741.827 2954.47 733.479 2946.55 725.132Z" fill="#FFFFFF" fill-rule="evenodd"/><path d="M2893.94 785.683C2881.61 776.142 2877.12 758.252 2882.73 742.748 2887.21 732.014 2895.06 724.858 2904.03 721.281 2909.64 718.895 2909.64 712.932 2910.76 705.776 2913 655.686 2913 650.915 2910.76 624.677 2905.15 579.357 2887.21 540 2846.85 550.734 2807.61 560.275 2802 606.788 2810.97 660.456 2817.7 704.584 2832.27 859.626 2834.52 888.249 2840.12 949.074 2844.61 961 2871.52 961 2899.55 961 2913 933.57 2913 897.791 2913 897.791 2911.88 810.728 2911.88 803.572 2911.88 797.609 2910.76 795.224 2906.27 792.839 2906.27 792.839 2899.55 790.453 2893.94 785.683Z" stroke="#000000" stroke-width="2.29167" stroke-linecap="round" stroke-linejoin="round" stroke-miterlimit="10" fill="none" fill-rule="evenodd"/><path d="M2932.89 785.683C2944 776.142 2949.56 758.252 2942.89 742.748 2939.56 732.014 2931.78 724.858 2922.89 721.281 2917.33 718.895 2916.22 712.932 2916.22 705.776 2914 655.686 2914 650.915 2916.22 624.677 2921.78 579.357 2939.56 540 2978.44 550.734 3018.44 560.275 3024 606.788 3014 660.456 3007.33 704.584 2994 859.626 2990.67 888.249 2986.22 949.074 2981.78 961 2954 961 2927.33 961 2914 933.57 2914 897.791 2914 897.791 2914 810.728 2914 803.572 2914 797.609 2916.22 795.224 2919.56 792.839 2920.67 792.839 2927.33 790.453 2932.89 785.683Z" stroke="#000000" stroke-width="2.29167" stroke-linecap="round" stroke-linejoin="round" stroke-miterlimit="10" fill="none" fill-rule="evenodd"/><path d="M2918.09 930.369C2916.97 927.983 2916.97 925.597 2915.86 923.211 2915.86 923.211 2915.86 923.211 2915.86 923.211 2914.74 918.439 2914.74 912.474 2913.62 907.702 2913.62 906.509 2913.62 906.509 2913.62 906.509 2913.62 902.93 2913.62 900.544 2913.62 898.158 2913.62 898.158 2913.62 851.632 2913.62 821.807 2913.62 803.912 2913.62 803.912 2913.62 803.912 2913.62 797.947 2915.86 795.562 2919.21 793.176 2920.33 793.176 2927.04 790.79 2932.63 786.018 2943.82 776.474 2949.41 758.579 2942.7 743.07 2939.34 732.333 2931.51 725.176 2922.57 721.597 2916.97 719.211 2915.86 713.246 2915.86 706.088 2913.62 655.983 2913.62 651.211 2915.86 624.965 2920.33 590.368 2931.51 558.158 2955 551 2939.34 553.386 2925.92 555.772 2914.74 564.123 2913.62 565.316 2912.5 564.123 2911.38 564.123 2900.2 555.772 2886.78 553.386 2870 551 2894.61 558.158 2905.79 590.368 2910.26 624.965 2912.5 651.211 2912.5 655.983 2910.26 706.088 2909.14 713.246 2909.14 719.211 2903.55 721.597 2894.61 725.176 2886.78 732.333 2882.3 743.07 2876.71 758.579 2881.18 776.474 2893.49 786.018 2899.08 790.79 2905.79 793.176 2905.79 793.176 2910.26 795.562 2911.38 797.947 2911.38 803.912 2912.5 821.807 2912.5 821.807 2912.5 821.807 2912.5 851.632 2912.5 898.158 2912.5 898.158 2912.5 900.544 2911.38 904.123 2911.38 906.509 2911.38 906.509 2911.38 907.702 2911.38 907.702 2911.38 910.088 2911.38 913.667 2910.26 916.053 2910.26 916.053 2910.26 916.053 2910.26 917.246 2910.26 922.018 2909.14 926.79 2906.91 931.562 2902.43 945.877 2894.61 955.421 2882.3 959 2882.3 959 2882.3 959 2882.3 959 2882.3 959 2882.3 959 2882.3 959 2882.3 959 2882.3 959 2882.3 959 2882.3 959 2882.3 959 2882.3 959 2890.13 957.807 2899.08 955.421 2908.03 954.228 2909.14 954.228 2910.26 954.228 2911.38 954.228 2911.38 954.228 2912.5 954.228 2912.5 954.228 2913.62 954.228 2913.62 954.228 2914.74 954.228 2915.86 954.228 2916.97 954.228 2918.09 954.228 2927.04 955.421 2935.99 957.807 2942.7 959 2942.7 959 2942.7 959 2942.7 959 2942.7 959 2942.7 959 2942.7 959 2943.82 959 2943.82 959 2943.82 959 2943.82 959 2943.82 959 2943.82 959 2931.51 955.421 2922.57 944.684 2918.09 930.369Z" stroke="#000000" stroke-width="2.29167" stroke-linecap="round" stroke-linejoin="round" stroke-miterlimit="10" fill="none" fill-rule="evenodd"/><path d="M2913 565C2915 569.79 2914 605.711 2914 656" stroke="#000000" stroke-width="2.29167" stroke-linecap="round" stroke-linejoin="round" stroke-miterlimit="10" fill="none" fill-rule="evenodd"/></g></svg>