<svg width="263" height="439" xmlns="http://www.w3.org/2000/svg" xmlns:xlink="http://www.w3.org/1999/xlink" xml:space="preserve" overflow="hidden"><g transform="translate(-796 -1201)"><path d="M844.648 1634C925 1634 892.6 1468.38 865.384 1381.69 844.648 1316.99 857.608 1251 817.432 1251 816.136 1251 816.136 1251 816.136 1251 775.96 1251 810.952 1314.4 822.616 1381.69 839.464 1482.61 763 1634 843.352 1634L844.648 1634Z" fill="#FFBC84" fill-rule="evenodd"/><path d="M851.5 1636.5 852.5 1637.5" stroke="#FFFFFF" stroke-width="5.15643" stroke-miterlimit="8" fill="none" fill-rule="evenodd"/><path d="M814.207 1327.01C819.31 1343.86 824.414 1364.59 828.242 1385.32 834.621 1424.19 826.966 1472.13 820.586 1513.6 814.207 1547.28 809.104 1579.68 811.655 1603 811.655 1603 811.655 1603 811.655 1603 809.104 1580.97 821.862 1547.28 826.966 1513.6 833.345 1470.84 841 1422.89 834.621 1382.73 830.793 1363.29 825.69 1342.56 820.586 1324.42 814.207 1302.39 804 1282.96 804 1270 804 1270 804 1270 804 1270 804 1284.25 807.828 1304.98 814.207 1327.01Z" fill="#FFFFFF" fill-rule="evenodd"/><path d="M865.409 1381.49C845.977 1320.63 855.045 1258.47 823.954 1252 848.568 1281.78 840.795 1329.69 855.045 1375.02 882.25 1460.48 905.568 1615.87 825.25 1615.87 825.25 1615.87 825.25 1615.87 825.25 1615.87 818.773 1615.87 814.886 1615.87 811 1614.58 816.182 1626.23 825.25 1634 843.386 1634 844.682 1634 844.682 1634 844.682 1634 925 1634 892.614 1468.25 865.409 1381.49Z" fill="#FFA368" fill-rule="evenodd"/><path d="M982.856 1634C903 1634 933.912 1468.38 962.248 1381.69 982.856 1316.99 969.976 1251 1009.9 1251 1011.19 1251 1011.19 1251 1011.19 1251 1051.12 1251 1016.34 1314.4 1004.75 1381.69 988.008 1482.61 1064 1634 984.144 1634L982.856 1634Z" fill="#FFBC84" fill-rule="evenodd"/><path d="M1056.54 1249.81C1063 1209.75 977.683 1202 944.073 1202 854.878 1202 801.878 1229.14 798 1264.02 799.292 1256.27 804.463 1251.1 816.097 1251.1 817.39 1251.1 817.39 1251.1 817.39 1251.1 857.463 1251.1 844.536 1317 865.219 1381.61 891.073 1461.73 919.512 1609.03 860.049 1631 860.049 1631 860.049 1631 860.049 1631 879.439 1623.25 942.78 1620.66 962.171 1628.42 909.171 1602.57 936.317 1460.43 962.171 1381.61 982.854 1317 969.927 1251.1 1010 1251.1 1011.29 1251.1 1011.29 1251.1 1011.29 1251.1 1051.37 1251.1 1016.46 1314.42 1004.83 1381.61 989.317 1472.06 1048.78 1601.28 1004.83 1628.42 1024.22 1620.66 1044.9 1589.65 1047.49 1572.85 1055.24 1522.46 1020.34 1425.55 1031.98 1354.48 1039.73 1314.42 1055.24 1274.36 1056.54 1249.81Z" fill="#FFAB72" fill-rule="evenodd"/><path d="M841.779 1270C834 1248.14 875.49 1227.57 929.945 1226.29 984.4 1225 1022 1236.57 997.365 1253.29" fill="#FF3E28" fill-rule="evenodd"/><path d="M930.147 1226.29C878.399 1227.59 837 1245.69 840.881 1266.38 852.525 1289.65 851.231 1336.2 865.462 1381.45 891.336 1461.62 919.797 1609.02 860.287 1631 860.287 1631 860.287 1631 860.287 1631 879.692 1623.24 943.084 1620.66 962.49 1628.41 909.448 1602.55 936.615 1460.32 962.49 1381.45 980.601 1324.56 972.839 1267.67 997.42 1253.45 997.42 1253.45 997.42 1253.45 997.42 1253.45 1022 1236.64 984.483 1225 930.147 1226.29Z" fill="#FF8B4F" fill-rule="evenodd"/><path d="M927 1236.31C962.4 1238.93 962.4 1238.93 962.4 1238.93 970.267 1240.25 972.889 1241.56 975.511 1245.49 976.822 1248.11 975.511 1252.05 972.889 1257.3 965.022 1270.41 967.644 1291.39 963.711 1315 963.711 1315 963.711 1315 963.711 1315 966.333 1292.7 971.578 1273.03 979.444 1259.92 980.755 1257.3 986 1248.11 982.067 1241.56 979.444 1237.62 974.2 1235 966.333 1235 965.022 1235 929.622 1237.62 929.622 1237.62L927 1236.31Z" fill="#FFFFFF" fill-rule="evenodd"/><path d="M930.147 1226.29C878.399 1227.59 837 1245.69 840.881 1266.38 852.525 1289.65 851.231 1336.2 865.462 1381.45 891.336 1461.62 919.797 1609.02 860.287 1631 860.287 1631 860.287 1631 860.287 1631 879.692 1623.24 943.084 1620.66 962.49 1628.41 909.448 1602.55 936.615 1460.32 962.49 1381.45 980.601 1324.56 972.839 1267.67 997.42 1253.45 997.42 1253.45 997.42 1253.45 997.42 1253.45 1022 1236.64 984.483 1225 930.147 1226.29ZM932.734 1611.61C923.678 1610.31 909.448 1609.02 895.217 1612.9 909.448 1609.02 912.035 1583.16 913.329 1579.28 914.622 1583.16 921.091 1610.31 932.734 1611.61ZM978.014 1258.62C970.252 1271.55 967.664 1290.94 963.783 1314.22 961.196 1333.61 957.315 1356.89 950.846 1378.87 948.259 1384.04 943.084 1403.43 936.615 1429.29 928.853 1451.27 904.273 1453.86 895.217 1433.17 884.867 1409.9 878.399 1384.04 877.105 1378.87 869.343 1356.89 866.755 1333.61 864.168 1314.22 860.287 1294.82 857.699 1276.72 852.525 1263.79 852.525 1263.79 852.525 1263.79 852.525 1262.5 852.525 1261.2 852.525 1258.62 855.112 1256.03 861.58 1248.27 895.217 1239.22 930.147 1237.93 939.203 1237.93 959.902 1237.93 966.371 1237.93 985.776 1237.93 980.601 1252.15 978.014 1258.62Z" fill="#FF5A2B" fill-rule="evenodd"/><path d="M1026.77 1327.78C1021.54 1344.59 1015 1365.29 1012.38 1385.98 1005.85 1424.77 1016.31 1479.09 1024.15 1520.47 1029.38 1554.1 1022.85 1587.72 1020.23 1611 1020.23 1611 1020.23 1611 1020.23 1611 1022.85 1589.02 1018.92 1547.63 1012.38 1514.01 1005.85 1471.33 998 1423.48 1004.54 1383.39 1008.46 1363.99 1015 1343.3 1018.92 1325.2 1025.46 1303.21 1032 1279.93 1032 1267 1032 1267 1032 1267 1032 1267 1032 1281.23 1032 1305.8 1026.77 1327.78Z" fill="#FF8246" fill-rule="evenodd"/><path d="M980.353 1315.31C976.471 1336.02 973.882 1358.03 966.118 1381.33 944.118 1452.53 926 1553.51 948 1604 948 1604 948 1604 948 1604 926 1550.92 953.177 1449.95 971.294 1392.98 977.765 1369.68 981.647 1339.91 985.529 1319.19 988.118 1301.07 986.824 1280.36 992 1270 992 1270 992 1270 992 1270 986.824 1281.65 982.941 1295.89 980.353 1315.31Z" fill="#FFFFFF" fill-rule="evenodd"/><path d="M1047.71 1542.29C1047.71 1551.35 1045.12 1555.24 1038.65 1560.41 1030.88 1568.18 1025.71 1553.94 1025.71 1541 1017.94 1548.76 1017.94 1548.76 1017.94 1548.76 1023.12 1587.59 1023.12 1617.35 1005 1629 1024.41 1621.24 1045.12 1590.18 1047.71 1573.35 1049 1564.29 1049 1553.94 1047.71 1542.29Z" fill="#FF8246" fill-rule="evenodd"/><path d="M1026 1270C1026 1281.66 1019.46 1299.8 1012.92 1325.72 1007.69 1343.86 1002.46 1364.59 998.539 1384.02 992 1424.19 999.846 1472.13 1006.38 1513.6 1007.69 1523.96 1007.69 1523.96 1007.69 1523.96 1012.92 1553.76 1019.46 1582.27 1016.85 1603 1016.85 1603 1016.85 1603 1016.85 1603 1020.77 1582.27 1018.15 1553.76 1012.92 1523.96 1011.62 1513.6 1011.62 1513.6 1011.62 1513.6 1003.77 1472.13 995.923 1424.19 1003.77 1385.32 1006.38 1364.59 1012.92 1345.15 1016.85 1327.01 1024.69 1301.1 1026 1282.96 1026 1270Z" fill="#FFFFFF" fill-rule="evenodd"/><path d="M1014.6 1327.01C1009.4 1343.86 1004.2 1364.59 1000.3 1385.32 993.8 1424.19 1001.6 1472.13 1008.1 1513.6 1013.3 1547.28 1019.8 1579.68 1015.9 1603 1015.9 1603 1015.9 1603 1015.9 1603 1019.8 1580.97 1006.8 1547.28 1001.6 1513.6 993.8 1470.84 986 1422.89 993.8 1382.73 996.4 1363.29 1002.9 1342.56 1006.8 1324.42 1013.3 1302.39 1025 1282.96 1025 1270 1025 1270 1025 1270 1025 1270 1025 1284.25 1019.8 1304.98 1014.6 1327.01Z" fill="#FFA368" fill-rule="evenodd"/><path d="M845.148 1634.5C925.5 1634.5 893.1 1468.88 865.884 1382.19 845.148 1317.49 858.108 1251.5 817.932 1251.5 816.636 1251.5 816.636 1251.5 816.636 1251.5 776.46 1251.5 811.452 1314.9 823.116 1382.19 839.964 1483.11 763.5 1634.5 843.852 1634.5L845.148 1634.5Z" stroke="#333333" stroke-width="2.86476" stroke-linecap="round" stroke-linejoin="round" stroke-miterlimit="10" fill="none" fill-rule="evenodd"/><path d="M983.356 1634.5C903.5 1634.5 934.412 1468.88 962.748 1382.19 983.356 1317.49 970.476 1251.5 1010.4 1251.5 1011.69 1251.5 1011.69 1251.5 1011.69 1251.5 1051.62 1251.5 1016.84 1314.9 1005.25 1382.19 988.508 1483.11 1064.5 1634.5 984.644 1634.5L983.356 1634.5Z" stroke="#333333" stroke-width="2.86476" stroke-linecap="round" stroke-linejoin="round" stroke-miterlimit="10" fill="none" fill-rule="evenodd"/><path d="M1057.04 1250.31C1063.5 1210.25 978.183 1202.5 944.573 1202.5 855.378 1202.5 802.378 1229.64 798.5 1264.52 799.793 1256.77 804.964 1251.6 816.598 1251.6 817.89 1251.6 817.89 1251.6 817.89 1251.6 857.964 1251.6 845.037 1317.5 865.72 1382.11 891.573 1462.23 920.012 1609.53 860.549 1631.5 860.549 1631.5 860.549 1631.5 860.549 1631.5 879.939 1623.75 943.281 1621.16 962.671 1628.92 909.671 1603.07 936.817 1460.93 962.671 1382.11 983.354 1317.5 970.427 1251.6 1010.5 1251.6 1011.79 1251.6 1011.79 1251.6 1011.79 1251.6 1051.87 1251.6 1016.96 1314.92 1005.33 1382.11 989.817 1472.56 1049.28 1601.78 1005.33 1628.92 1024.72 1621.16 1045.4 1590.15 1047.99 1573.35 1055.74 1522.96 1020.84 1426.05 1032.48 1354.98 1040.23 1314.92 1055.74 1274.86 1057.04 1250.31Z" stroke="#333333" stroke-width="2.86476" stroke-linecap="round" stroke-linejoin="round" stroke-miterlimit="10" fill="none" fill-rule="evenodd"/><path d="M842.279 1270.5C834.5 1248.64 875.99 1228.07 930.445 1226.79 984.9 1225.5 1022.5 1237.07 997.866 1253.79" stroke="#333333" stroke-width="2.86476" stroke-linecap="round" stroke-linejoin="round" stroke-miterlimit="10" fill="none" fill-rule="evenodd"/><path d="M930.647 1226.79C878.899 1228.09 837.5 1246.19 841.381 1266.88 853.024 1290.15 851.731 1336.7 865.961 1381.95 891.836 1462.12 920.297 1609.52 860.787 1631.5 860.787 1631.5 860.787 1631.5 860.787 1631.5 880.192 1623.74 943.584 1621.16 962.99 1628.91 909.948 1603.05 937.115 1460.82 962.99 1381.95 981.102 1325.06 973.339 1268.17 997.92 1253.95 997.92 1253.95 997.92 1253.95 997.92 1253.95 1022.5 1237.14 984.983 1225.5 930.647 1226.79Z" stroke="#333333" stroke-width="2.86476" stroke-linecap="round" stroke-linejoin="round" stroke-miterlimit="10" fill="none" fill-rule="evenodd"/></g></svg>