<svg width="298" height="485" xmlns="http://www.w3.org/2000/svg" xmlns:xlink="http://www.w3.org/1999/xlink" xml:space="preserve" overflow="hidden"><g transform="translate(-1254 -720)"><path d="M1368.34 983.997C1378.3 1026.77 1392 1080.24 1355.88 1100.29 1321.01 1119 1282.4 1069.54 1269.95 1022.76 1262.47 1000.04 1255 957.263 1255 915.827 1255 874.39 1263.72 832.953 1269.95 814.24 1282.4 768.793 1321.01 718 1355.88 738.05 1392 756.763 1378.3 811.567 1368.34 853.003 1360.86 894.44 1359.62 934.54 1368.34 983.997Z" fill="#6AAF84" fill-rule="evenodd"/><path d="M1428.72 1068.9C1423.73 1044.89 1431.22 1011.53 1437.46 983.514 1446.19 934.147 1446.19 894.12 1437.46 852.758 1428.72 811.397 1415 756.693 1449.94 738.014 1486.12 718 1524.8 768.701 1537.28 814.065 1543.51 832.745 1551 874.106 1551 915.467 1551 956.829 1543.51 999.525 1537.28 1022.21 1531.04 1044.89 1519.81 1067.57 1504.83 1083.58 1494.85 1092.92 1501.09 1108.93 1512.32 1136.95 1523.55 1163.64 1532.28 1187.65 1518.56 1198.33 1506.08 1209 1484.87 1207.67 1453.68 1163.64 1436.21 1140.95 1429.97 1110.27 1431.22 1084.92 1431.22 1078.24 1429.97 1071.57 1428.72 1068.9Z" fill="#6AAF84" fill-rule="evenodd"/><path d="M1355.84 738.333C1347.07 733 1337.03 733 1327 735.667 1350.83 726.333 1373.4 721 1403.5 721 1403.5 721 1403.5 721 1403.5 721 1432.34 721 1454.92 726.333 1480 735.667 1478.75 735.667 1478.75 735.667 1478.75 735.667 1478.75 735.667 1477.49 735.667 1476.24 735.667 1476.24 735.667 1476.24 735.667 1476.24 735.667 1474.98 734.333 1473.73 734.333 1472.48 734.333 1472.48 734.333 1472.48 734.333 1472.48 734.333 1471.22 734.333 1469.97 734.333 1468.71 734.333 1468.71 734.333 1468.71 734.333 1468.71 734.333 1467.46 734.333 1466.2 734.333 1464.95 734.333 1464.95 734.333 1464.95 734.333 1464.95 734.333 1463.7 734.333 1462.44 734.333 1462.44 734.333 1461.19 734.333 1461.19 734.333 1461.19 734.333 1459.93 734.333 1458.68 734.333 1458.68 734.333 1458.68 734.333 1457.43 735.667 1457.43 735.667 1456.17 735.667 1456.17 735.667 1454.92 735.667 1454.92 735.667 1453.66 735.667 1453.66 737 1452.41 737 1451.16 737 1449.9 738.333 1414.79 757 1428.58 811.667 1437.36 853 1446.14 894.333 1446.14 934.333 1437.36 983.667 1437.36 985 1437.36 987.667 1436.11 989 1434.85 994.333 1433.6 999.667 1432.34 1005 1432.34 1005 1432.34 1005 1432.34 1005 1432.34 1007.67 1432.34 1009 1432.34 1010.33 1432.34 1011.67 1432.34 1011.67 1432.34 1011.67 1427.33 1031.67 1424.82 1053 1428.58 1070.33 1429.84 1073 1431.09 1078.33 1431.09 1085 1429.84 1086.33 1429.84 1087.67 1429.84 1090.33 1421.06 1085 1413.53 1081 1403.5 1081 1403.5 1081 1403.5 1081 1403.5 1081 1385.94 1081 1377.16 1091.67 1352.08 1101 1352.08 1101 1352.08 1101 1352.08 1101 1353.34 1101 1354.59 1099.67 1355.84 1099.67 1392.21 1079.67 1378.42 1026.33 1368.39 983.667 1359.61 934.333 1360.86 894.333 1368.39 853 1378.42 811.667 1392.21 757 1355.84 738.333Z" fill="#008A50" fill-rule="evenodd"/><path d="M1441 730.667C1424.85 724 1385.11 724 1364 732 1382.63 725.333 1436.03 729.333 1441 730.667Z" fill="#FFFFFF" fill-rule="evenodd"/><path d="M1345.02 984.015C1337.43 937.219 1341.23 890.422 1348.81 852.985 1357.66 812.874 1367.77 762.067 1333.64 743.348 1329.85 740.674 1326.06 742.011 1321 743.348 1332.38 738 1343.75 738 1353.87 743.348 1388 760.73 1371.57 818.222 1362.72 858.333 1355.13 897.107 1355.13 935.881 1362.72 982.678 1371.57 1022.79 1384.21 1077.61 1350.08 1094.99 1343.75 1099 1337.43 1099 1331.11 1097.66 1388 1085.63 1353.87 1024.13 1345.02 984.015Z" fill="#BED9C5" fill-rule="evenodd"/><path d="M1314 1084C1297.75 1070.63 1284 1047.91 1277.75 1022.51 1271.5 999.792 1264 957.02 1264 915.584 1264 874.148 1271.5 832.713 1277.75 814 1271.5 866.129 1259 971.723 1314 1084Z" fill="#008A50" fill-rule="evenodd"/><path d="M1434.27 1049C1435.53 1027.67 1440.6 1005 1445.67 983.667 1454.53 934.333 1453.27 894.333 1445.67 853 1440.6 829 1433 801 1435.53 777 1434.27 793 1441.87 813 1457.07 859.667 1471 906.333 1458.33 947.667 1452 982.333 1446.93 1018.33 1434.27 1033 1434.27 1049Z" fill="#008A50" fill-rule="evenodd"/><path d="M1503.5 1076C1517.25 1059.98 1527.25 1039.97 1532.25 1019.95 1538.5 998.593 1546 957.22 1546 917.182 1546 877.144 1538.5 838.441 1532.25 819.757 1521 774.38 1486 725 1451 742.35 1449.75 743.684 1447.25 745.019 1446 746.354 1474.75 733.008 1499.75 771.711 1509.75 809.08 1516 827.764 1527.25 879.814 1527.25 919.852 1527.25 959.89 1529.75 990.585 1524.75 1017.28 1521 1037.3 1516 1059.98 1503.5 1076" fill="#BED9C5" fill-rule="evenodd"/><path d="M1362.44 983C1354.78 936.269 1354.78 897.55 1362.44 858.83 1371.39 818.775 1388 761.363 1353.5 744.006 1349.67 741.335 1345.83 740 1342 740 1357.33 744.006 1366.28 761.363 1368.83 784.061 1371.39 806.758 1354.78 833.462 1353.5 896.214 1352.22 957.632 1362.44 983 1362.44 983Z" fill="#FFFFFF" fill-rule="evenodd"/><path d="M1525.87 819.767C1508.47 766.372 1478.64 734.335 1460 739.674 1491.07 733 1520.9 778.386 1532.09 819.767 1538.3 838.456 1545.76 877.167 1545.76 917.214 1545.76 957.26 1538.3 998.642 1532.09 1020 1547 950.586 1544.51 874.498 1525.87 819.767Z" fill="#FFFFFF" fill-rule="evenodd"/><path d="M1377 1083.67C1388.25 1067.69 1399.5 1058.36 1405.75 1050.37 1419.5 1037.05 1418.25 981.101 1424.5 934.478 1429.5 889.186 1415.75 850.556 1412 801.268 1409.5 754.645 1428.25 747.985 1395.75 735.996 1393.25 735.996 1394.5 733.332 1397 733.332 1414.5 732 1433.25 734.664 1447 739.992 1415.75 761.306 1429.5 813.257 1437 853.22 1445.75 894.515 1445.75 934.478 1437 983.765 1437 986.429 1437 987.761 1437 989.093 1435.75 990.425 1435.75 991.757 1435.75 994.422 1435.75 994.422 1435.75 994.422 1434.5 995.754 1434.5 997.086 1434.5 998.418 1434.5 1001.08 1434.5 1001.08 1434.5 1001.08 1434.5 1001.08 1433.25 1002.41 1433.25 1003.75 1433.25 1006.41 1433.25 1006.41 1433.25 1006.41 1433.25 1006.41 1432 1010.41 1430.75 1014.4 1430.75 1018.4 1430.75 1018.4 1430.75 1018.4 1430.75 1018.4 1430.75 1019.73 1429.5 1022.4 1429.5 1023.73 1429.5 1023.73 1429.5 1023.73 1429.5 1023.73 1429.5 1027.72 1428.25 1031.72 1428.25 1035.72 1428.25 1035.72 1428.25 1035.72 1428.25 1035.72 1428.25 1037.05 1428.25 1039.71 1427 1041.04 1427 1041.04 1427 1041.04 1427 1041.04 1427 1045.04 1427 1049.04 1427 1051.7 1427 1051.7 1427 1051.7 1427 1053.03 1427 1055.7 1427 1059.69 1428.25 1062.36 1428.25 1062.36 1428.25 1062.36 1428.25 1062.36 1428.25 1065.02 1428.25 1066.35 1428.25 1067.69 1428.25 1067.69 1428.25 1067.69 1428.25 1067.69 1429.5 1069.02 1429.5 1071.68 1429.5 1073.01 1430.75 1074.35 1430.75 1086.34 1429.5 1087.67 1427 1089 1423.25 1082.34 1420.75 1083.67 1419.5 1079.68 1413.25 1075.68 1404.5 1075.68 1388.25 1075.68 1383.25 1078.34 1377 1083.67Z" fill="#00733B" fill-rule="evenodd"/><path d="M1373.61 1083C1386.22 1057.64 1376.13 1017.6 1369.83 984.234 1361 934.851 1361 894.811 1369.83 853.436 1377.39 820.069 1387.48 776.024 1371.09 752 1373.61 752 1373.61 752 1373.61 752 1387.48 762.678 1390 800.049 1384.96 832.081 1379.91 865.448 1369.83 906.823 1379.91 961.544 1390 1016.27 1388.74 1061.65 1373.61 1083Z" fill="#00733B" fill-rule="evenodd"/><path d="M1431.26 821C1439.74 846.406 1447 911.926 1439.74 968.086 1433.68 1024.25 1425.21 1040.29 1427.63 1055 1424 1032.27 1428.84 993.491 1432.47 969.423 1438.53 933.32 1442.16 886.52 1431.26 821Z" fill="#005A2E" fill-rule="evenodd"/><path d="M1498 1111C1504.19 1131 1517.81 1152.33 1520.29 1172.33 1524 1191 1521.52 1195 1509.14 1199 1520.29 1193.67 1517.81 1187 1512.86 1168.33 1509.14 1149.67 1498 1111 1498 1111Z" fill="#BED9C5" fill-rule="evenodd"/><path d="M1436.26 1095C1435 1110.9 1440.02 1159.91 1494 1197 1477.68 1185.08 1447.55 1132.09 1436.26 1095Z" fill="#008A50" fill-rule="evenodd"/><path d="M1513 1147C1519 1158.91 1525 1182.74 1520.2 1192 1521.4 1176.12 1514.2 1152.29 1513 1147Z" fill="#FFFFFF" fill-rule="evenodd"/><path d="M1379.56 874C1375.89 887.38 1371 922.169 1382 969 1379.56 956.958 1377.11 892.733 1379.56 874Z" fill="#FFFFFF" fill-rule="evenodd"/><path d="M1368.34 983.997C1378.3 1026.77 1392 1080.24 1355.88 1100.29 1321.01 1119 1282.4 1069.54 1269.95 1022.76 1262.47 1000.04 1255 957.263 1255 915.827 1255 874.39 1263.72 832.953 1269.95 814.24 1282.4 768.793 1321.01 718 1355.88 738.05 1392 756.763 1378.3 811.567 1368.34 853.003 1360.86 894.44 1359.62 934.54 1368.34 983.997Z" stroke="#000000" stroke-width="2.29167" stroke-linecap="round" stroke-linejoin="round" stroke-miterlimit="10" fill="none" fill-rule="evenodd"/><path d="M1428.72 1068.9C1423.73 1044.89 1431.22 1011.53 1437.46 983.514 1446.19 934.147 1446.19 894.12 1437.46 852.758 1428.72 811.397 1415 756.693 1449.94 738.014 1486.12 718 1524.8 768.701 1537.28 814.065 1543.51 832.745 1551 874.106 1551 915.467 1551 956.829 1543.51 999.525 1537.28 1022.21 1531.04 1044.89 1519.81 1067.57 1504.83 1083.58 1494.85 1092.92 1501.09 1108.93 1512.32 1136.95 1523.55 1163.64 1532.28 1187.65 1518.56 1198.33 1506.08 1209 1484.87 1207.67 1453.68 1163.64 1436.21 1140.95 1429.97 1110.27 1431.22 1084.92 1431.22 1078.24 1429.97 1071.57 1428.72 1068.9Z" stroke="#000000" stroke-width="2.29167" stroke-linecap="round" stroke-linejoin="round" stroke-miterlimit="10" fill="none" fill-rule="evenodd"/><path d="M1355.84 738.333C1347.07 733 1337.03 733 1327 735.667 1350.83 726.333 1373.4 721 1403.5 721 1403.5 721 1403.5 721 1403.5 721 1432.34 721 1454.92 726.333 1480 735.667 1478.75 735.667 1478.75 735.667 1478.75 735.667 1478.75 735.667 1477.49 735.667 1476.24 735.667 1476.24 735.667 1476.24 735.667 1476.24 735.667 1474.98 734.333 1473.73 734.333 1472.48 734.333 1472.48 734.333 1472.48 734.333 1472.48 734.333 1471.22 734.333 1469.97 734.333 1468.71 734.333 1468.71 734.333 1468.71 734.333 1468.71 734.333 1467.46 734.333 1466.2 734.333 1464.95 734.333 1464.95 734.333 1464.95 734.333 1464.95 734.333 1463.7 734.333 1462.44 734.333 1462.44 734.333 1461.19 734.333 1461.19 734.333 1461.19 734.333 1459.93 734.333 1458.68 734.333 1458.68 734.333 1458.68 734.333 1457.43 735.667 1457.43 735.667 1456.17 735.667 1456.17 735.667 1454.92 735.667 1454.92 735.667 1453.66 735.667 1453.66 737 1452.41 737 1451.16 737 1449.9 738.333 1414.79 757 1428.58 811.667 1437.36 853 1446.14 894.333 1446.14 934.333 1437.36 983.667 1437.36 985 1437.36 987.667 1436.11 989 1434.85 994.333 1433.6 999.667 1432.34 1005 1432.34 1005 1432.34 1005 1432.34 1005 1432.34 1007.67 1432.34 1009 1432.34 1010.33 1432.34 1011.67 1432.34 1011.67 1432.34 1011.67 1427.33 1031.67 1424.82 1053 1428.58 1070.33 1429.84 1073 1431.09 1078.33 1431.09 1085 1429.84 1086.33 1429.84 1087.67 1429.84 1090.33 1421.06 1085 1413.53 1081 1403.5 1081 1403.5 1081 1403.5 1081 1403.5 1081 1385.94 1081 1377.16 1091.67 1352.08 1101 1352.08 1101 1352.08 1101 1352.08 1101 1353.34 1101 1354.59 1099.67 1355.84 1099.67 1392.21 1079.67 1378.42 1026.33 1368.39 983.667 1359.61 934.333 1360.86 894.333 1368.39 853 1378.42 811.667 1392.21 757 1355.84 738.333Z" stroke="#000000" stroke-width="2.29167" stroke-linecap="round" stroke-linejoin="round" stroke-miterlimit="10" fill="none" fill-rule="evenodd"/></g></svg>