<svg width="230" height="437" xmlns="http://www.w3.org/2000/svg" xmlns:xlink="http://www.w3.org/1999/xlink" xml:space="preserve" overflow="hidden"><g transform="translate(-1124 -1817)"><path d="M1172.5 2248C1252 2248 1222.51 2084.41 1195.58 1998.1 1175.06 1932.41 1185.32 1868 1145.57 1868 1144.29 1868 1144.29 1868 1144.29 1868 1104.54 1868 1139.16 1931.12 1150.7 1998.1 1167.37 2098.58 1093 2248 1171.22 2248L1172.5 2248Z" fill="#FF8B7F" fill-rule="evenodd"/><path d="M1179 2250 1180 2251" stroke="#FFB5B5" stroke-width="5.72917" stroke-miterlimit="8" fill="none" fill-rule="evenodd"/><path d="M1141.4 1942.43C1146.6 1960.48 1151.8 1981.1 1155.7 2000.44 1162.2 2039.11 1154.4 2086.8 1147.9 2129.34 1142.7 2162.86 1136.2 2195.09 1140.1 2217 1140.1 2217 1140.1 2217 1140.1 2217 1136.2 2195.09 1149.2 2162.86 1154.4 2129.34 1162.2 2086.8 1170 2039.11 1162.2 1999.15 1159.6 1978.52 1153.1 1959.19 1149.2 1941.14 1142.7 1919.23 1131 1899.89 1131 1887 1131 1887 1131 1887 1131 1887 1131 1899.89 1134.9 1920.52 1141.4 1942.43Z" fill="#FFFFFF" fill-rule="evenodd"/><path d="M1195.5 1998.1C1174.95 1936.27 1183.94 1875.73 1151.84 1868 1177.52 1897.63 1168.53 1946.58 1182.66 1990.37 1209.62 2076.68 1234.02 2231.25 1154.41 2231.25 1153.12 2231.25 1153.12 2231.25 1153.12 2231.25 1147.99 2231.25 1142.85 2229.97 1139 2228.68 1144.14 2241.56 1154.41 2248 1171.1 2248 1172.39 2248 1172.39 2248 1172.39 2248 1252 2248 1222.47 2084.41 1195.5 1998.1Z" fill="#FF7263" fill-rule="evenodd"/><path d="M1276.71 2248C1198 2248 1227.68 2084.41 1254.77 1998.1 1275.42 1932.41 1265.1 1868 1305.1 1868 1306.39 1868 1306.39 1868 1306.39 1868 1345.1 1868 1311.55 1931.12 1299.94 1998.1 1281.87 2098.58 1358 2248 1278 2248L1276.71 2248Z" fill="#FF8B7F" fill-rule="evenodd"/><path d="M1351.56 1865.7C1358 1825.74 1285.82 1818 1253.6 1818 1164.67 1818 1129.87 1845.07 1126 1879.88 1127.29 1870.86 1133.73 1866.99 1144.04 1866.99 1145.33 1866.99 1145.33 1866.99 1145.33 1866.99 1185.29 1866.99 1174.98 1931.45 1195.6 1997.19 1220.09 2077.12 1248.44 2224.08 1189.16 2244.71 1189.16 2246 1189.16 2246 1189.16 2246 1208.49 2236.98 1238.13 2235.69 1257.47 2243.42 1203.33 2216.35 1230.4 2074.54 1254.89 1997.19 1275.51 1931.45 1265.2 1866.99 1305.16 1866.99 1306.44 1866.99 1306.44 1866.99 1306.44 1866.99 1345.11 1866.99 1311.6 1930.16 1300 1997.19 1284.53 2087.43 1342.53 2216.35 1298.71 2243.42 1319.33 2234.4 1339.96 2204.75 1342.53 2186.7 1348.98 2137.71 1314.18 2041.02 1327.07 1970.12 1333.51 1928.87 1348.98 1890.19 1351.56 1865.7Z" fill="#FF7A6D" fill-rule="evenodd"/><path d="M1171 1887C1162 1864.66 1183.86 1843.63 1237.86 1842.31 1291.86 1841 1315 1852.83 1291.86 1869.91" fill="#FE0D23" fill-rule="evenodd"/><path d="M1237.93 1842.29C1187.84 1843.58 1166 1861.64 1169.85 1882.27 1181.41 1905.49 1180.13 1951.92 1195.54 1997.07 1219.95 2077.04 1248.21 2224.07 1189.12 2244.71 1189.12 2246 1189.12 2246 1189.12 2246 1208.39 2236.97 1237.93 2235.68 1257.2 2243.42 1203.25 2216.33 1230.22 2074.46 1254.63 1997.07 1272.61 1940.32 1267.47 1882.27 1291.88 1869.38 1291.88 1869.38 1291.88 1869.38 1291.88 1869.38 1315 1852.61 1291.88 1841 1237.93 1842.29Z" fill="#FF5A4A" fill-rule="evenodd"/><path d="M1236 1853.28C1257.5 1855.84 1257.5 1855.84 1257.5 1855.84 1263.82 1857.11 1267.62 1858.39 1268.88 1862.23 1271.41 1864.79 1270.15 1868.62 1267.62 1872.46 1260.03 1886.52 1261.29 1906.98 1258.76 1930 1258.76 1930 1258.76 1930 1258.76 1930 1261.29 1906.98 1266.35 1889.08 1273.94 1875.02 1275.21 1872.46 1279 1864.79 1275.21 1858.39 1272.68 1853.28 1267.62 1852 1260.03 1852 1238.53 1854.56 1238.53 1854.56 1238.53 1854.56L1236 1853.28Z" fill="#FFFFFF" fill-rule="evenodd"/><path d="M1237.93 1842.29C1187.84 1843.58 1166 1861.64 1169.85 1882.27 1181.41 1905.49 1180.13 1951.92 1195.54 1997.07 1219.95 2077.04 1248.21 2224.07 1189.12 2244.71 1189.12 2246 1189.12 2246 1189.12 2246 1208.39 2236.97 1237.93 2235.68 1257.2 2243.42 1203.25 2216.33 1230.22 2074.46 1254.63 1997.07 1272.61 1940.32 1267.47 1882.27 1291.88 1869.38 1291.88 1869.38 1291.88 1869.38 1291.88 1869.38 1315 1852.61 1291.88 1841 1237.93 1842.29ZM1226.37 2226.65C1223.8 2226.65 1226.37 2226.65 1222.52 2226.65 1225.09 2222.78 1223.8 2218.91 1225.09 2215.04 1226.37 2218.91 1225.09 2222.78 1226.37 2226.65ZM1271.33 1874.54C1263.62 1887.43 1261.05 1906.78 1258.48 1930 1254.63 1949.34 1252.06 1971.27 1245.64 1993.2 1241.78 2003.52 1232.79 2042.21 1225.09 2088.64 1217.38 2042.21 1208.39 2003.52 1204.53 1993.2 1198.11 1971.27 1194.26 1949.34 1191.69 1930 1189.12 1909.36 1186.55 1892.59 1181.41 1879.69 1180.13 1879.69 1180.13 1878.4 1180.13 1878.4 1180.13 1877.11 1181.41 1874.54 1183.98 1871.96 1190.41 1862.93 1204.53 1853.9 1237.93 1853.9 1246.92 1852.61 1253.34 1853.9 1259.77 1853.9 1280.32 1852.61 1275.18 1868.09 1271.33 1874.54Z" fill="#FF2926" fill-rule="evenodd"/><path d="M1320.46 1942.19C1315.23 1960.21 1310 1980.8 1306.08 2000.1 1299.54 2038.7 1311.31 2092.75 1317.85 2135.21 1323.08 2168.67 1317.85 2202.12 1313.92 2224 1313.92 2224 1313.92 2224 1313.92 2224 1317.85 2202.12 1312.62 2162.23 1307.38 2128.78 1300.85 2086.31 1293 2038.7 1299.54 1998.81 1303.46 1978.22 1308.69 1958.92 1313.92 1940.91 1320.46 1919.03 1325.69 1895.87 1325.69 1883 1325.69 1883 1325.69 1883 1325.69 1883 1325.69 1895.87 1327 1920.32 1320.46 1942.19Z" fill="#FF5141" fill-rule="evenodd"/><path d="M1274.35 1932.33C1271.76 1951.63 1267.88 1974.79 1261.41 1997.95 1238.12 2068.73 1221.29 2167.81 1242 2218 1242 2218 1242 2218 1242 2218 1220 2166.53 1247.18 2064.87 1265.29 2008.25 1273.06 1985.09 1276.94 1956.78 1279.53 1936.19 1282.12 1918.17 1282.12 1897.58 1286 1886 1286 1886 1286 1886 1286 1886 1282.12 1897.58 1276.94 1913.02 1274.35 1932.33Z" fill="#FFFFFF" fill-rule="evenodd"/><path d="M1342.71 2157.58C1341.43 2165.32 1340.14 2169.19 1333.71 2175.64 1326 2182.09 1320.86 2167.9 1319.57 2155 1313.14 2164.03 1313.14 2164.03 1313.14 2164.03 1318.29 2201.43 1318.29 2232.39 1299 2244 1319.57 2234.97 1340.14 2205.3 1342.71 2187.25 1344 2179.51 1344 2169.19 1342.71 2157.58Z" fill="#FF5141" fill-rule="evenodd"/><path d="M1320 1887C1320 1898.6 1314.77 1916.65 1306.92 1942.43 1303 1960.48 1296.46 1979.81 1293.85 2000.44 1286 2039.11 1293.85 2086.8 1301.69 2129.34 1303 2139.66 1303 2139.66 1303 2139.66 1308.23 2169.3 1314.77 2197.66 1312.15 2217 1312.15 2217 1312.15 2217 1312.15 2217 1314.77 2196.38 1312.15 2169.3 1306.92 2138.37 1305.62 2129.34 1305.62 2129.34 1305.62 2129.34 1299.08 2086.8 1291.23 2039.11 1297.77 2001.73 1301.69 1981.1 1306.92 1960.48 1312.15 1943.72 1320 1917.94 1320 1898.6 1320 1887Z" fill="#FFFFFF" fill-rule="evenodd"/><path d="M1308.3 1942.43C1303.1 1960.48 1297.9 1981.1 1294 2000.44 1287.5 2039.11 1295.3 2086.8 1303.1 2129.34 1308.3 2162.86 1313.5 2195.09 1310.9 2217 1310.9 2217 1310.9 2217 1310.9 2217 1313.5 2195.09 1300.5 2162.86 1295.3 2129.34 1288.8 2086.8 1281 2039.11 1287.5 1999.15 1291.4 1978.52 1296.6 1959.19 1301.8 1941.14 1308.3 1919.23 1320 1899.89 1318.7 1887 1318.7 1887 1318.7 1887 1318.7 1887 1320 1899.89 1314.8 1920.52 1308.3 1942.43Z" fill="#FF7263" fill-rule="evenodd"/><path d="M1215 2037.18C1217.59 2046.24 1220.18 2052.71 1226.65 2052.71 1233.12 2052.71 1237 2032 1237 2032 1237 2032 1234.41 2055.29 1234.41 2056.59 1235.71 2057.88 1226.65 2098 1226.65 2098 1221.47 2072.12 1221.47 2072.12 1221.47 2072.12" fill="#FF2926" fill-rule="evenodd"/><path d="M1173 2248.5C1252.5 2248.5 1223.01 2084.91 1196.08 1998.6 1175.56 1932.91 1185.82 1868.5 1146.07 1868.5 1144.79 1868.5 1144.79 1868.5 1144.79 1868.5 1105.04 1868.5 1139.66 1931.62 1151.2 1998.6 1167.87 2099.08 1093.5 2248.5 1171.72 2248.5L1173 2248.5Z" stroke="#750000" stroke-width="2.86476" stroke-linecap="round" stroke-linejoin="round" stroke-miterlimit="10" fill="none" fill-rule="evenodd"/><path d="M1277.21 2248.5C1198.5 2248.5 1228.18 2084.91 1255.27 1998.6 1275.92 1932.91 1265.6 1868.5 1305.6 1868.5 1306.89 1868.5 1306.89 1868.5 1306.89 1868.5 1345.6 1868.5 1312.05 1931.62 1300.44 1998.6 1282.37 2099.08 1358.5 2248.5 1278.5 2248.5L1277.21 2248.5Z" stroke="#750000" stroke-width="2.86476" stroke-linecap="round" stroke-linejoin="round" stroke-miterlimit="10" fill="none" fill-rule="evenodd"/><path d="M1352.06 1866.2C1358.5 1826.23 1286.32 1818.5 1254.1 1818.5 1165.17 1818.5 1130.37 1845.57 1126.5 1880.38 1127.79 1871.36 1134.23 1867.49 1144.54 1867.49 1145.83 1867.49 1145.83 1867.49 1145.83 1867.49 1185.79 1867.49 1175.48 1931.95 1196.1 1997.69 1220.59 2077.62 1248.94 2224.58 1189.66 2245.21 1189.66 2246.5 1189.66 2246.5 1189.66 2246.5 1208.99 2237.48 1238.63 2236.19 1257.97 2243.92 1203.83 2216.85 1230.9 2075.04 1255.39 1997.69 1276.01 1931.95 1265.7 1867.49 1305.66 1867.49 1306.94 1867.49 1306.94 1867.49 1306.94 1867.49 1345.61 1867.49 1312.1 1930.66 1300.5 1997.69 1285.03 2087.93 1343.03 2216.85 1299.21 2243.92 1319.83 2234.9 1340.46 2205.25 1343.03 2187.2 1349.48 2138.21 1314.68 2041.52 1327.57 1970.62 1334.01 1929.37 1349.48 1890.69 1352.06 1866.2Z" stroke="#750000" stroke-width="2.86476" stroke-linecap="round" stroke-linejoin="round" stroke-miterlimit="10" fill="none" fill-rule="evenodd"/><path d="M1171.5 1887.5C1162.5 1865.16 1184.36 1844.13 1238.36 1842.81 1292.36 1841.5 1315.5 1853.33 1292.36 1870.41" stroke="#750000" stroke-width="2.86476" stroke-linecap="round" stroke-linejoin="round" stroke-miterlimit="10" fill="none" fill-rule="evenodd"/><path d="M1238.43 1842.79C1188.34 1844.08 1166.5 1862.14 1170.35 1882.77 1181.91 1905.99 1180.63 1952.42 1196.04 1997.57 1220.45 2077.53 1248.71 2224.57 1189.62 2245.21 1189.62 2246.5 1189.62 2246.5 1189.62 2246.5 1208.89 2237.47 1238.43 2236.18 1257.7 2243.92 1203.75 2216.83 1230.72 2074.96 1255.13 1997.57 1273.11 1940.82 1267.97 1882.77 1292.38 1869.88 1292.38 1869.88 1292.38 1869.88 1292.38 1869.88 1315.5 1853.11 1292.38 1841.5 1238.43 1842.79Z" stroke="#750000" stroke-width="2.86476" stroke-linecap="round" stroke-linejoin="round" stroke-miterlimit="10" fill="none" fill-rule="evenodd"/></g></svg>