<svg width="263" height="439" xmlns="http://www.w3.org/2000/svg" xmlns:xlink="http://www.w3.org/1999/xlink" xml:space="preserve" overflow="hidden"><g transform="translate(-797 -1815)"><path d="M845.648 2247C926 2247 893.6 2081.81 866.384 1995.34 845.648 1930.82 858.608 1865 818.432 1865 817.136 1865 817.136 1865 817.136 1865 776.96 1865 811.952 1928.24 823.616 1995.34 840.464 2096.01 764 2247 844.352 2247L845.648 2247Z" fill="#FF8B7F" fill-rule="evenodd"/><path d="M852.5 2250.5 853.5 2251.5" stroke="#FFB5B5" stroke-width="5.15643" stroke-miterlimit="8" fill="none" fill-rule="evenodd"/><path d="M815.207 1941.01C820.31 1957.86 825.414 1978.59 829.241 1999.32 835.621 2038.19 827.965 2086.13 821.586 2127.6 815.207 2161.28 810.103 2193.68 812.655 2217 812.655 2217 812.655 2217 812.655 2217 810.103 2194.97 822.862 2161.28 827.965 2127.6 834.345 2084.84 842 2036.89 835.621 1996.73 831.793 1977.29 826.69 1956.56 821.586 1938.42 815.207 1916.39 805 1896.96 805 1884 805 1884 805 1884 805 1884 805 1898.25 808.828 1918.98 815.207 1941.01Z" fill="#FFFFFF" fill-rule="evenodd"/><path d="M866.409 1995.15C846.977 1934.45 856.045 1872.46 824.955 1866 849.568 1895.7 841.795 1943.49 856.045 1988.69 883.25 2073.94 906.568 2228.92 826.25 2228.92 826.25 2228.92 826.25 2228.92 826.25 2228.92 819.773 2228.92 815.886 2228.92 812 2227.63 817.182 2239.25 826.25 2247 844.386 2247 845.682 2247 845.682 2247 845.682 2247 926 2247 893.614 2081.68 866.409 1995.15Z" fill="#FF7263" fill-rule="evenodd"/><path d="M984.352 2247C904 2247 935.104 2081.81 963.616 1995.34 984.352 1930.82 971.392 1865 1011.57 1865 1012.86 1865 1012.86 1865 1012.86 1865 1053.04 1865 1018.05 1928.24 1006.38 1995.34 989.536 2096.01 1066 2247 985.648 2247L984.352 2247Z" fill="#FF8B7F" fill-rule="evenodd"/><path d="M1057.54 1863.81C1064 1823.75 978.683 1816 945.073 1816 855.878 1816 802.878 1843.14 799 1878.02 800.293 1870.27 805.463 1865.1 817.097 1865.1 818.39 1865.1 818.39 1865.1 818.39 1865.1 858.463 1865.1 845.536 1931 866.219 1995.61 892.073 2075.73 920.512 2223.03 861.049 2245 861.049 2245 861.049 2245 861.049 2245 880.439 2237.25 943.78 2234.66 963.171 2242.42 910.171 2216.57 937.317 2074.43 963.171 1995.61 983.854 1931 970.927 1865.1 1011 1865.1 1012.29 1865.1 1012.29 1865.1 1012.29 1865.1 1052.37 1865.1 1017.46 1928.42 1005.83 1995.61 990.317 2086.06 1049.78 2215.28 1005.83 2242.42 1025.22 2234.66 1045.9 2203.65 1048.49 2186.85 1056.24 2136.46 1021.34 2039.55 1032.98 1968.48 1040.73 1928.42 1056.24 1888.36 1057.54 1863.81Z" fill="#FF7A6D" fill-rule="evenodd"/><path d="M842.779 1884C835 1862.14 876.49 1841.57 930.945 1840.29 985.4 1839 1023 1850.57 998.365 1867.29" fill="#FE0D23" fill-rule="evenodd"/><path d="M931.147 1840.29C879.399 1841.59 838 1859.69 841.881 1880.38 853.525 1903.65 852.231 1950.2 866.462 1995.45 892.336 2075.62 920.797 2223.02 861.287 2245 861.287 2245 861.287 2245 861.287 2245 880.692 2237.24 944.084 2234.66 963.49 2242.41 910.448 2216.55 937.615 2074.32 963.49 1995.45 981.601 1938.56 973.839 1881.67 998.42 1867.45 998.42 1867.45 998.42 1867.45 998.42 1867.45 1023 1850.64 985.483 1839 931.147 1840.29Z" fill="#FF5A4A" fill-rule="evenodd"/><path d="M928 1850.3C963.4 1852.89 963.4 1852.89 963.4 1852.89 971.267 1854.18 973.889 1855.48 976.511 1859.36 977.822 1861.95 976.511 1865.84 973.889 1871.02 966.022 1883.97 968.644 1904.69 964.711 1928 964.711 1928 964.711 1928 964.711 1928 967.333 1905.98 972.578 1886.56 980.444 1873.61 981.755 1871.02 987 1861.95 983.067 1855.48 980.444 1851.59 975.2 1849 967.333 1849 966.022 1849 930.622 1851.59 930.622 1851.59L928 1850.3Z" fill="#FFFFFF" fill-rule="evenodd"/><path d="M931.147 1840.29C879.399 1841.59 838 1859.69 841.881 1880.38 853.525 1903.65 852.231 1950.2 866.462 1995.45 892.336 2075.62 920.797 2223.02 861.287 2245 861.287 2245 861.287 2245 861.287 2245 880.692 2237.24 944.084 2234.66 963.49 2242.41 910.448 2216.55 937.615 2074.32 963.49 1995.45 981.601 1938.56 973.839 1881.67 998.42 1867.45 998.42 1867.45 998.42 1867.45 998.42 1867.45 1023 1850.64 985.483 1839 931.147 1840.29ZM933.734 2225.61C924.678 2224.31 910.448 2223.02 896.217 2226.9 910.448 2223.02 913.035 2197.16 914.329 2193.28 915.622 2197.16 922.091 2224.31 933.734 2225.61ZM979.014 1872.62C971.252 1885.55 968.664 1904.94 964.783 1928.22 962.196 1947.61 958.315 1970.89 951.846 1992.87 949.259 1998.04 944.084 2017.43 937.615 2043.29 929.853 2065.27 905.273 2067.86 896.217 2047.17 885.867 2023.9 879.399 1998.04 878.105 1992.87 870.343 1970.89 867.755 1947.61 865.168 1928.22 861.287 1908.82 858.699 1890.72 853.525 1877.79 853.525 1877.79 853.525 1877.79 853.525 1876.5 853.525 1875.2 853.525 1872.62 856.112 1870.03 862.58 1862.27 896.217 1853.22 931.147 1851.93 940.203 1851.93 960.902 1851.93 967.371 1851.93 986.776 1851.93 981.601 1866.15 979.014 1872.62Z" fill="#FF2926" fill-rule="evenodd"/><path d="M1027.77 1940.78C1022.54 1957.59 1016 1978.29 1013.38 1998.98 1006.85 2037.77 1017.31 2092.09 1025.15 2133.47 1030.38 2167.1 1023.85 2200.72 1021.23 2224 1021.23 2224 1021.23 2224 1021.23 2224 1023.85 2202.02 1019.92 2160.63 1013.38 2127.01 1006.85 2084.33 999 2036.48 1005.54 1996.39 1009.46 1976.99 1016 1956.3 1019.92 1938.2 1026.46 1916.21 1033 1892.93 1033 1880 1033 1880 1033 1880 1033 1880 1033 1894.23 1033 1918.8 1027.77 1940.78Z" fill="#FF5141" fill-rule="evenodd"/><path d="M981.353 1929.31C977.471 1950.02 974.882 1972.03 967.118 1995.33 945.118 2066.53 927 2167.51 949 2218 949 2218 949 2218 949 2218 927 2164.92 954.177 2063.95 972.294 2006.98 978.765 1983.68 982.647 1953.91 986.53 1933.19 989.118 1915.07 987.824 1894.36 993 1884 993 1884 993 1884 993 1884 987.824 1895.65 983.941 1909.89 981.353 1929.31Z" fill="#FFFFFF" fill-rule="evenodd"/><path d="M1048.71 2155.29C1048.71 2164.35 1046.12 2168.24 1039.65 2173.41 1031.88 2181.18 1026.71 2166.94 1026.71 2154 1018.94 2161.76 1018.94 2161.76 1018.94 2161.76 1024.12 2200.59 1024.12 2230.35 1006 2242 1025.41 2234.24 1046.12 2203.18 1048.71 2186.35 1050 2177.29 1050 2166.94 1048.71 2155.29Z" fill="#FF5141" fill-rule="evenodd"/><path d="M1027 1884C1027 1895.66 1020.46 1913.8 1013.92 1939.72 1008.69 1957.86 1003.46 1978.59 999.539 1998.02 993 2038.19 1000.85 2086.13 1007.38 2127.6 1008.69 2137.96 1008.69 2137.96 1008.69 2137.96 1013.92 2167.76 1020.46 2196.27 1017.85 2217 1017.85 2217 1017.85 2217 1017.85 2217 1021.77 2196.27 1019.15 2167.76 1013.92 2137.96 1012.62 2127.6 1012.62 2127.6 1012.62 2127.6 1004.77 2086.13 996.923 2038.19 1004.77 1999.32 1007.38 1978.59 1013.92 1959.15 1017.85 1941.01 1025.69 1915.1 1027 1896.96 1027 1884Z" fill="#FFFFFF" fill-rule="evenodd"/><path d="M1015.6 1941.01C1010.4 1957.86 1005.2 1978.59 1001.3 1999.32 994.8 2038.19 1002.6 2086.13 1009.1 2127.6 1014.3 2161.28 1020.8 2193.68 1016.9 2217 1016.9 2217 1016.9 2217 1016.9 2217 1020.8 2194.97 1007.8 2161.28 1002.6 2127.6 994.8 2084.84 987 2036.89 994.8 1996.73 997.4 1977.29 1003.9 1956.56 1007.8 1938.42 1014.3 1916.39 1026 1896.96 1026 1884 1026 1884 1026 1884 1026 1884 1026 1898.25 1020.8 1918.98 1015.6 1941.01Z" fill="#FF7263" fill-rule="evenodd"/><path d="M846.148 2247.5C926.5 2247.5 894.1 2082.31 866.884 1995.84 846.148 1931.32 859.108 1865.5 818.932 1865.5 817.636 1865.5 817.636 1865.5 817.636 1865.5 777.46 1865.5 812.452 1928.74 824.116 1995.84 840.964 2096.51 764.5 2247.5 844.852 2247.5L846.148 2247.5Z" stroke="#750000" stroke-width="2.86476" stroke-linecap="round" stroke-linejoin="round" stroke-miterlimit="10" fill="none" fill-rule="evenodd"/><path d="M984.852 2247.5C904.5 2247.5 935.604 2082.31 964.116 1995.84 984.852 1931.32 971.892 1865.5 1012.07 1865.5 1013.36 1865.5 1013.36 1865.5 1013.36 1865.5 1053.54 1865.5 1018.55 1928.74 1006.88 1995.84 990.036 2096.51 1066.5 2247.5 986.148 2247.5L984.852 2247.5Z" stroke="#750000" stroke-width="2.86476" stroke-linecap="round" stroke-linejoin="round" stroke-miterlimit="10" fill="none" fill-rule="evenodd"/><path d="M1058.04 1864.31C1064.5 1824.25 979.183 1816.5 945.573 1816.5 856.378 1816.5 803.378 1843.64 799.5 1878.52 800.793 1870.77 805.964 1865.6 817.598 1865.6 818.89 1865.6 818.89 1865.6 818.89 1865.6 858.964 1865.6 846.037 1931.5 866.72 1996.11 892.573 2076.23 921.012 2223.53 861.549 2245.5 861.549 2245.5 861.549 2245.5 861.549 2245.5 880.939 2237.75 944.281 2235.16 963.671 2242.92 910.671 2217.07 937.817 2074.93 963.671 1996.11 984.354 1931.5 971.427 1865.6 1011.5 1865.6 1012.79 1865.6 1012.79 1865.6 1012.79 1865.6 1052.87 1865.6 1017.96 1928.92 1006.33 1996.11 990.817 2086.56 1050.28 2215.78 1006.33 2242.92 1025.72 2235.16 1046.4 2204.15 1048.99 2187.35 1056.74 2136.96 1021.84 2040.05 1033.48 1968.98 1041.23 1928.92 1056.74 1888.86 1058.04 1864.31Z" stroke="#750000" stroke-width="2.86476" stroke-linecap="round" stroke-linejoin="round" stroke-miterlimit="10" fill="none" fill-rule="evenodd"/><path d="M843.279 1884.5C835.5 1862.64 876.99 1842.07 931.445 1840.79 985.9 1839.5 1023.5 1851.07 998.865 1867.79" stroke="#750000" stroke-width="2.86476" stroke-linecap="round" stroke-linejoin="round" stroke-miterlimit="10" fill="none" fill-rule="evenodd"/><path d="M931.647 1840.79C879.898 1842.09 838.5 1860.19 842.381 1880.88 854.024 1904.15 852.731 1950.7 866.961 1995.95 892.836 2076.12 921.297 2223.52 861.787 2245.5 861.787 2245.5 861.787 2245.5 861.787 2245.5 881.192 2237.74 944.584 2235.16 963.989 2242.91 910.947 2217.05 938.115 2074.82 963.989 1995.95 982.101 1939.06 974.339 1882.17 998.919 1867.95 998.919 1867.95 998.919 1867.95 998.919 1867.95 1023.5 1851.14 985.982 1839.5 931.647 1840.79Z" stroke="#750000" stroke-width="2.86476" stroke-linecap="round" stroke-linejoin="round" stroke-miterlimit="10" fill="none" fill-rule="evenodd"/></g></svg>