<svg width="275" height="453" xmlns="http://www.w3.org/2000/svg" xmlns:xlink="http://www.w3.org/1999/xlink" xml:space="preserve" overflow="hidden"><g transform="translate(-3226 -500)"><path d="M3348.04 669.194C3356.2 650.406 3363 628.729 3363 601.271 3363 547.8 3339.88 503 3309.96 503 3303.16 503 3296.36 505.89 3289.56 511.671 3254.2 539.129 3227 653.297 3227 719.774 3227 793.478 3237.88 951 3275.96 951 3315.4 951 3309.96 835.387 3309.96 792.032 3309.96 742.897 3333.08 709.658 3348.04 669.194Z" fill="#D6AC8C" fill-rule="evenodd"/><path d="M3357 601.678C3357 568.542 3347.5 538.288 3332.57 521 3339.36 539.729 3342.07 564.22 3342.07 590.153 3342.07 616.085 3333.93 637.695 3325.79 657.865 3312.21 698.203 3289.14 729.898 3289.14 780.322 3289.14 814.898 3298.64 912.864 3281 946 3306.79 925.831 3304.07 829.305 3304.07 791.848 3304.07 742.865 3327.14 709.729 3340.71 669.39 3348.86 650.661 3357 629.051 3357 601.678Z" fill="#C78F66" fill-rule="evenodd"/><path d="M3295 921C3305.59 884.793 3304.26 821.069 3304.26 792.103 3304.26 742.862 3326.76 709.552 3340 669 3333.38 683.483 3308.24 722.586 3301.62 750.103 3296.32 779.069 3297.65 786.31 3297.65 819.621 3297.65 845.69 3302.94 892.034 3295 921Z" fill="#BC774B" fill-rule="evenodd"/><path d="M3250.17 720.053C3250.17 657.926 3283.87 539.451 3316.22 522.114 3320.26 520.669 3322.96 517.779 3327 516.334 3321.61 513.445 3316.22 512 3310.83 512 3304.09 512 3297.35 513.445 3290.61 519.224 3256.91 545.231 3234 659.371 3234 722.943 3234 793.739 3239.39 944 3275.78 944 3281.17 944 3266.35 942.555 3269.04 939.666 3243.43 907.88 3250.17 782.181 3250.17 720.053Z" fill="#EAD4C2" fill-rule="evenodd"/><path d="M3311 512C3304.25 512 3297.49 513.445 3290.74 519.226 3256.96 545.24 3234 659.411 3234 723 3240.75 663.746 3265.07 533.678 3311 512Z" fill="#FFFFFF" fill-rule="evenodd"/><path d="M3378.85 669.194C3370.75 650.406 3364 628.729 3364 601.271 3364 547.8 3386.95 503 3416.65 503 3423.4 503 3431.5 505.89 3436.9 511.671 3472 539.129 3499 653.297 3499 719.774 3499 793.478 3488.2 951 3450.4 951 3412.6 951 3416.65 835.387 3416.65 792.032 3416.65 742.897 3393.7 709.658 3378.85 669.194Z" fill="#D6AC8C" fill-rule="evenodd"/><path d="M3416.54 792.633C3416.54 743.547 3393.5 710.341 3378.59 669.916 3370.45 651.148 3363.68 629.492 3363.68 602.061 3363.68 550.087 3386.72 506.775 3413.83 503.887 3413.83 503.887 3413.83 503.887 3413.83 503.887 3398.92 502.444 3381.3 501 3362.32 501 3362.32 501 3362.32 501 3362.32 501 3343.35 501 3325.73 502.444 3309.46 503.887 3339.28 505.331 3362.32 548.643 3362.32 602.061 3362.32 629.492 3355.55 651.148 3347.41 669.916 3332.5 710.341 3309.46 743.547 3309.46 792.633 3309.46 833.058 3313.53 941.338 3281 950 3281 950 3281 950 3281 950 3301.33 944.225 3331.15 939.894 3362.32 939.894 3363.68 939.894 3363.68 939.894 3363.68 939.894 3394.85 939.894 3424.67 944.225 3445 950 3445 950 3445 950 3445 950 3412.47 941.338 3416.54 833.058 3416.54 792.633Z" fill="#BC774B" fill-rule="evenodd"/><path d="M3371 601.678C3371 568.542 3379.07 538.288 3393.87 521 3387.15 539.729 3385.8 564.22 3385.8 590.153 3385.8 616.085 3392.53 637.695 3400.6 657.865 3414.05 698.203 3438.27 729.898 3438.27 780.322 3438.27 814.898 3427.51 912.864 3445 946 3419.44 925.831 3423.47 829.305 3423.47 791.848 3423.47 742.865 3399.25 709.729 3385.8 669.39 3377.73 650.661 3371 629.051 3371 601.678Z" fill="#EAD4C2" fill-rule="evenodd"/><path d="M3385.09 669C3377.18 650.32 3370.59 628.767 3370.59 601.466 3370.59 568.418 3378.5 538.243 3393 521 3381.14 538.243 3364 610.087 3385.09 669Z" fill="#FFFFFF" fill-rule="evenodd"/><path d="M3476.65 720.053C3476.65 657.926 3442.59 539.451 3409.9 522.114 3405.81 520.669 3403.09 517.779 3399 516.334 3404.45 513.445 3409.9 512 3415.35 512 3422.16 512 3428.97 513.445 3435.78 519.224 3469.84 545.231 3493 659.371 3493 722.943 3493 793.739 3487.55 944 3450.77 944 3446.68 944 3460.3 942.555 3457.58 939.666 3483.46 907.88 3476.65 782.181 3476.65 720.053Z" fill="#C78F66" fill-rule="evenodd"/><path d="M3415 512C3421.84 512 3428.68 513.445 3435.53 519.226 3469.74 545.24 3493 659.411 3493 723 3486.16 663.746 3462.89 533.678 3415 512Z" fill="#BC774B" fill-rule="evenodd"/><path d="M3416.9 792.653C3416.9 743.573 3393.79 710.371 3378.85 669.952 3370.69 651.185 3363.9 629.532 3363.9 602.105 3363.9 599.218 3363.9 596.331 3363.9 592 3362.54 593.443 3362.54 593.443 3362.54 593.443 3362.54 596.331 3362.54 599.218 3362.54 602.105 3362.54 629.532 3355.74 651.185 3347.59 669.952 3332.64 710.371 3309.54 743.573 3309.54 792.653 3309.54 833.073 3313.62 941.339 3281 950 3281 950 3281 950 3281 950 3287.79 948.557 3294.59 945.669 3304.1 944.226 3309.54 941.339 3314.97 937.008 3321.77 934.121 3338.08 925.46 3380.21 926.903 3392.44 925.46 3380.21 922.573 3367.97 921.129 3344.87 922.573 3321.77 924.016 3317.69 925.46 3320.41 905.25 3323.13 885.04 3328.56 872.048 3328.56 824.411 3329.92 775.331 3331.28 752.234 3339.44 730.581 3347.59 707.484 3354.38 690.161 3365.26 690.161 3377.49 690.161 3385.64 703.153 3396.51 734.911 3407.38 766.669 3408.74 779.661 3407.38 812.863 3406.03 844.621 3407.38 925.46 3440 947.113 3412.82 926.903 3416.9 831.629 3416.9 792.653Z" fill="#A85D31" fill-rule="evenodd"/><path d="M3363.68 613C3363.68 608.676 3363.68 604.353 3363.68 600.029 3363.68 566.882 3373.14 536.618 3388 519.323 3383.95 517.882 3379.89 517.882 3377.19 517.882 3369.08 516.441 3362.32 515 3354.22 516.441 3350.16 516.441 3343.41 517.882 3338 517.882 3338 519.323 3339.35 520.765 3339.35 520.765 3340.7 520.765 3340.7 520.765 3340.7 520.765 3343.41 523.647 3346.11 527.971 3347.46 533.735 3356.92 551.029 3362.32 575.529 3362.32 601.471 3362.32 602.912 3362.32 604.353 3362.32 605.794 3362.32 608.676 3362.32 611.559 3363.68 613Z" fill="#A70626" fill-rule="evenodd"/><path d="M3387 692.814C3387 691.371 3387 691.371 3387 691.371 3384.29 684.157 3381.58 676.943 3378.88 669.729 3370.75 650.971 3363.98 629.328 3363.98 601.914 3363.98 583.157 3366.69 564.4 3372.11 549.971 3363.98 551.414 3362.63 551.414 3358.57 541.314 3354.51 534.1 3349.09 526.886 3340.97 524 3354.51 541.314 3362.63 570.171 3362.63 601.914 3362.63 629.328 3355.86 650.971 3347.74 669.729 3332.85 710.129 3309.83 743.314 3309.83 792.371 3309.83 822.672 3312.54 891.929 3299 928 3315.25 904.914 3312.54 878.943 3315.25 855.857 3316.6 839.986 3319.31 805.357 3319.31 789.486 3320.66 766.4 3323.37 756.3 3330.14 733.214 3334.2 718.786 3343.68 697.143 3351.8 685.6 3359.92 675.5 3374.82 665.4 3387 692.814Z" fill="#840B1E" fill-rule="evenodd"/><path d="M3334 507C3350.09 503 3379.59 503 3393 507" fill="#FFFFFF" fill-rule="evenodd"/><path d="M3404.82 760C3409.91 778.863 3408.64 784.667 3407.36 812.235 3406.09 838.353 3407.36 883.333 3415 908 3404.82 886.235 3401 844.157 3402.27 812.235 3404.82 780.314 3404.82 760 3404.82 760Z" fill="#FFFFFF" fill-rule="evenodd"/><path d="M3348.54 669.694C3356.7 650.906 3363.5 629.229 3363.5 601.771 3363.5 548.3 3340.38 503.5 3310.46 503.5 3303.66 503.5 3296.86 506.39 3290.06 512.171 3254.7 539.629 3227.5 653.797 3227.5 720.274 3227.5 793.977 3238.38 951.5 3276.46 951.5 3315.9 951.5 3310.46 835.887 3310.46 792.532 3310.46 743.397 3333.58 710.158 3348.54 669.694Z" stroke="#000000" stroke-width="3.4375" stroke-linecap="round" stroke-linejoin="round" stroke-miterlimit="10" fill="none" fill-rule="evenodd"/><path d="M3379.35 669.694C3371.25 650.906 3364.5 629.229 3364.5 601.771 3364.5 548.3 3387.45 503.5 3417.15 503.5 3423.9 503.5 3432 506.39 3437.4 512.171 3472.5 539.629 3499.5 653.797 3499.5 720.274 3499.5 793.977 3488.7 951.5 3450.9 951.5 3413.1 951.5 3417.15 835.887 3417.15 792.532 3417.15 743.397 3394.2 710.158 3379.35 669.694Z" stroke="#000000" stroke-width="3.4375" stroke-linecap="round" stroke-linejoin="round" stroke-miterlimit="10" fill="none" fill-rule="evenodd"/><path d="M3417.04 793.133C3417.04 744.047 3394 710.841 3379.09 670.416 3370.95 651.648 3364.18 629.992 3364.18 602.561 3364.18 550.587 3387.22 507.275 3414.33 504.387 3414.33 504.387 3414.33 504.387 3414.33 504.387 3399.42 502.944 3381.8 501.5 3362.82 501.5 3362.82 501.5 3362.82 501.5 3362.82 501.5 3343.85 501.5 3326.23 502.944 3309.96 504.387 3339.78 505.831 3362.82 549.143 3362.82 602.561 3362.82 629.992 3356.05 651.648 3347.91 670.416 3333 710.841 3309.96 744.047 3309.96 793.133 3309.96 833.558 3314.03 941.838 3281.5 950.5 3281.5 950.5 3281.5 950.5 3281.5 950.5 3301.83 944.725 3331.65 940.394 3362.82 940.394 3364.18 940.394 3364.18 940.394 3364.18 940.394 3395.35 940.394 3425.17 944.725 3445.5 950.5 3445.5 950.5 3445.5 950.5 3445.5 950.5 3412.97 941.838 3417.04 833.558 3417.04 793.133Z" stroke="#000000" stroke-width="3.4375" stroke-linecap="round" stroke-linejoin="round" stroke-miterlimit="10" fill="none" fill-rule="evenodd"/></g></svg>