<svg width="298" height="486" xmlns="http://www.w3.org/2000/svg" xmlns:xlink="http://www.w3.org/1999/xlink" xml:space="preserve" overflow="hidden"><g transform="translate(-1650 -1526)"><path d="M1764.34 1790C1774.3 1832.77 1788 1886.24 1751.88 1906.29 1717.01 1925 1678.4 1875.54 1665.95 1828.76 1658.47 1806.04 1651 1763.26 1651 1721.83 1651 1680.39 1659.72 1638.95 1665.95 1620.24 1678.4 1574.79 1717.01 1524 1751.88 1544.05 1788 1562.76 1774.3 1617.57 1764.34 1659 1756.86 1700.44 1755.62 1740.54 1764.34 1790Z" fill="#FFDE00" fill-rule="evenodd"/><path d="M1824.72 1875.62C1819.73 1851.55 1827.22 1818.13 1833.46 1790.05 1842.19 1740.59 1842.19 1700.48 1833.46 1659.03 1824.72 1617.59 1811 1562.77 1845.94 1544.05 1882.12 1524 1920.8 1574.8 1933.28 1620.26 1939.51 1638.98 1947 1680.42 1947 1721.87 1947 1763.32 1939.51 1806.1 1933.28 1828.83 1927.04 1851.55 1915.81 1874.28 1900.83 1890.33 1890.85 1899.68 1897.09 1915.73 1908.32 1943.8 1919.55 1970.54 1928.28 1994.61 1914.56 2005.3 1902.08 2016 1880.87 2014.66 1849.68 1970.54 1832.21 1947.82 1825.97 1917.07 1825.97 1891.66 1827.22 1884.98 1825.97 1878.29 1824.72 1875.62Z" fill="#FFDE00" fill-rule="evenodd"/><path d="M1751.84 1544.33C1743.07 1539 1733.03 1539 1723 1541.67 1746.83 1532.33 1769.4 1527 1799.5 1527 1799.5 1527 1799.5 1527 1799.5 1527 1828.34 1527 1850.92 1532.33 1876 1541.67 1874.75 1541.67 1874.75 1541.67 1874.75 1541.67 1874.75 1541.67 1873.49 1541.67 1872.24 1541.67 1872.24 1541.67 1872.24 1541.67 1872.24 1541.67 1870.98 1540.33 1869.73 1540.33 1868.48 1540.33 1868.48 1540.33 1868.48 1540.33 1868.48 1540.33 1867.22 1540.33 1865.97 1540.33 1864.71 1540.33 1864.71 1540.33 1864.71 1540.33 1864.71 1540.33 1863.46 1540.33 1862.2 1540.33 1860.95 1540.33 1860.95 1540.33 1860.95 1540.33 1860.95 1540.33 1859.7 1540.33 1858.44 1540.33 1858.44 1540.33 1857.19 1540.33 1857.19 1540.33 1857.19 1540.33 1855.93 1540.33 1854.68 1540.33 1854.68 1540.33 1854.68 1540.33 1853.43 1541.67 1853.43 1541.67 1852.17 1541.67 1852.17 1541.67 1850.92 1541.67 1850.92 1541.67 1849.66 1541.67 1849.66 1543 1848.41 1543 1847.16 1543 1845.9 1544.33 1810.79 1563 1824.58 1617.67 1833.36 1659 1842.14 1700.33 1842.14 1740.33 1833.36 1789.67 1833.36 1791 1833.36 1793.67 1832.11 1795 1830.85 1800.33 1829.6 1805.67 1828.34 1811 1828.34 1811 1828.34 1811 1828.34 1811 1828.34 1813.67 1828.34 1815 1828.34 1816.33 1828.34 1817.67 1828.34 1817.67 1828.34 1817.67 1823.33 1837.67 1820.82 1859 1824.58 1876.33 1825.84 1879 1827.09 1884.33 1825.84 1891 1825.84 1892.33 1825.84 1893.67 1825.84 1896.33 1817.06 1891 1809.53 1887 1799.5 1887 1799.5 1887 1799.5 1887 1799.5 1887 1781.94 1887 1773.16 1897.67 1748.08 1907 1748.08 1907 1748.08 1907 1748.08 1907 1749.34 1907 1750.59 1905.67 1751.84 1905.67 1788.21 1885.67 1774.42 1832.33 1764.39 1789.67 1755.61 1740.33 1756.86 1700.33 1764.39 1659 1774.42 1617.67 1788.21 1563 1751.84 1544.33Z" fill="#FBBC00" fill-rule="evenodd"/><path d="M1837 1536.67C1820.65 1530 1780.39 1530 1759 1538 1777.87 1531.33 1831.97 1535.33 1837 1536.67Z" fill="#FFFFFF" fill-rule="evenodd"/><path d="M1740.66 1790.01C1733.19 1743.22 1736.92 1696.42 1744.4 1658.99 1753.11 1618.87 1763.08 1568.07 1729.45 1549.35 1725.72 1546.67 1721.98 1548.01 1717 1549.35 1728.21 1544 1739.42 1544 1749.38 1549.35 1783 1566.73 1766.81 1624.22 1758.09 1664.33 1750.62 1703.11 1750.62 1741.88 1758.09 1788.68 1766.81 1828.79 1779.26 1883.61 1745.64 1900.99 1739.42 1905 1733.19 1905 1725.72 1903.66 1783 1891.63 1749.38 1830.13 1740.66 1790.01Z" fill="#FFF4C1" fill-rule="evenodd"/><path d="M1710 1890C1693.75 1876.63 1680 1853.91 1673.75 1828.51 1667.5 1805.79 1660 1763.02 1660 1721.58 1660 1680.15 1667.5 1638.71 1673.75 1620 1667.5 1672.13 1655 1777.72 1710 1890Z" fill="#FBBC00" fill-rule="evenodd"/><path d="M1831.23 1855C1832.47 1833.67 1837.4 1811 1842.33 1789.67 1850.97 1740.33 1849.73 1700.33 1842.33 1659 1837.4 1635 1830 1607 1832.47 1583 1831.23 1599 1838.63 1619 1853.43 1665.67 1867 1712.33 1854.67 1753.67 1848.5 1788.33 1843.57 1824.33 1831.23 1839 1831.23 1855Z" fill="#FBBC00" fill-rule="evenodd"/><path d="M1899.5 1882C1913.25 1865.98 1923.25 1845.97 1928.25 1825.95 1934.5 1804.59 1942 1763.22 1942 1723.18 1942 1683.14 1934.5 1644.44 1928.25 1625.76 1917 1580.38 1882 1531 1847 1548.35 1845.75 1549.68 1843.25 1551.02 1842 1552.35 1870.75 1539.01 1895.75 1577.71 1905.75 1615.08 1912 1633.76 1923.25 1685.81 1923.25 1725.85 1923.25 1765.89 1925.75 1796.59 1920.75 1823.28 1917 1843.3 1912 1865.98 1899.5 1882" fill="#FFF4C1" fill-rule="evenodd"/><path d="M1758 1789C1750.5 1742.27 1750.5 1703.55 1758 1664.83 1766.75 1624.77 1783 1567.36 1749.25 1550.01 1745.5 1547.34 1741.75 1546 1738 1546 1753 1550.01 1761.75 1567.36 1764.25 1590.06 1766.75 1612.76 1750.5 1639.46 1749.25 1702.21 1748 1763.63 1758 1789 1758 1789Z" fill="#FFFFFF" fill-rule="evenodd"/><path d="M1921.87 1625.77C1904.47 1572.37 1874.64 1540.33 1856 1545.67 1887.07 1539 1916.9 1584.39 1928.09 1625.77 1934.3 1644.46 1941.76 1683.17 1941.76 1723.21 1941.76 1763.26 1934.3 1804.64 1928.09 1826 1943 1756.59 1940.51 1680.5 1921.87 1625.77Z" fill="#FFFFFF" fill-rule="evenodd"/><path d="M1773 1889.67C1784.41 1873.69 1795.82 1864.36 1802.16 1856.37 1816.11 1843.05 1814.84 1787.1 1821.18 1740.48 1826.25 1695.19 1812.3 1656.56 1808.5 1607.27 1805.96 1560.65 1824.98 1553.98 1792.02 1542 1789.48 1542 1790.75 1539.33 1793.29 1539.33 1811.04 1538 1830.05 1540.66 1844 1545.99 1812.3 1567.31 1826.25 1619.26 1833.86 1659.22 1842.73 1700.51 1842.73 1740.48 1833.86 1789.76 1833.86 1792.43 1833.86 1793.76 1833.86 1795.09 1832.59 1796.43 1832.59 1797.76 1832.59 1800.42 1832.59 1800.42 1832.59 1800.42 1831.32 1801.75 1831.32 1803.09 1831.32 1804.42 1831.32 1807.08 1831.32 1807.08 1831.32 1807.08 1831.32 1807.08 1830.05 1808.41 1830.05 1809.75 1830.05 1812.41 1830.05 1812.41 1830.05 1812.41 1830.05 1812.41 1828.79 1816.41 1827.52 1820.4 1827.52 1824.4 1827.52 1824.4 1827.52 1824.4 1827.52 1824.4 1827.52 1825.73 1826.25 1828.4 1826.25 1829.73 1826.25 1829.73 1826.25 1829.73 1826.25 1829.73 1826.25 1833.72 1824.98 1837.72 1824.98 1841.72 1824.98 1841.72 1824.98 1841.72 1824.98 1841.72 1824.98 1843.05 1824.98 1845.71 1823.71 1847.04 1823.71 1847.04 1823.71 1847.04 1823.71 1847.04 1823.71 1851.04 1823.71 1855.04 1823.71 1857.7 1823.71 1857.7 1823.71 1857.7 1823.71 1859.03 1823.71 1861.7 1823.71 1865.69 1824.98 1868.36 1824.98 1868.36 1824.98 1868.36 1824.98 1868.36 1824.98 1871.02 1824.98 1872.35 1824.98 1873.69 1824.98 1873.69 1824.98 1873.69 1824.98 1873.69 1826.25 1875.02 1826.25 1877.68 1826.25 1879.01 1827.52 1880.35 1827.52 1892.34 1826.25 1893.67 1823.71 1895 1819.91 1888.34 1817.38 1889.67 1816.11 1885.68 1809.77 1881.68 1800.89 1881.68 1784.41 1881.68 1779.34 1884.34 1773 1889.67Z" fill="#F39900" fill-rule="evenodd"/><path d="M1769.61 1889C1782.22 1863.64 1772.13 1823.6 1765.83 1790.23 1757 1740.85 1757 1700.81 1765.83 1659.44 1773.39 1626.07 1783.48 1582.02 1767.09 1558 1769.61 1558 1769.61 1558 1769.61 1558 1783.48 1568.68 1786 1606.05 1780.96 1638.08 1775.91 1671.45 1765.83 1712.82 1775.91 1767.54 1786 1822.27 1784.74 1867.65 1769.61 1889Z" fill="#F39900" fill-rule="evenodd"/><path d="M1827.58 1627C1836.42 1652.41 1844 1717.93 1836.42 1774.09 1830.11 1830.25 1821.26 1846.29 1823.79 1861 1820 1838.27 1825.05 1799.49 1828.84 1775.42 1835.16 1739.32 1838.95 1692.52 1827.58 1627Z" fill="#C37C00" fill-rule="evenodd"/><path d="M1893 1917C1899.43 1937 1913.57 1958.33 1916.14 1978.33 1920 1997 1917.43 2001 1904.57 2005 1916.14 1999.67 1913.57 1993 1908.43 1974.33 1904.57 1955.67 1893 1917 1893 1917Z" fill="#FFF4C1" fill-rule="evenodd"/><path d="M1832.23 1901C1831 1916.9 1835.94 1965.91 1889 2003 1872.96 1991.08 1843.34 1938.09 1832.23 1901Z" fill="#FBBC00" fill-rule="evenodd"/><path d="M1908 1953C1914.5 1964.91 1921 1988.74 1915.8 1998 1917.1 1982.12 1909.3 1958.29 1908 1953Z" fill="#FFFFFF" fill-rule="evenodd"/><path d="M1775.56 1680C1771.89 1693.38 1767 1728.17 1778 1775 1775.56 1762.96 1773.11 1698.73 1775.56 1680Z" fill="#FFFFFF" fill-rule="evenodd"/><path d="M1764.34 1790C1774.3 1832.77 1788 1886.24 1751.88 1906.29 1717.01 1925 1678.4 1875.54 1665.95 1828.76 1658.47 1806.04 1651 1763.26 1651 1721.83 1651 1680.39 1659.72 1638.95 1665.95 1620.24 1678.4 1574.79 1717.01 1524 1751.88 1544.05 1788 1562.76 1774.3 1617.57 1764.34 1659 1756.86 1700.44 1755.62 1740.54 1764.34 1790Z" stroke="#000000" stroke-width="2.29167" stroke-linecap="round" stroke-linejoin="round" stroke-miterlimit="10" fill="none" fill-rule="evenodd"/><path d="M1824.72 1875.62C1819.73 1851.55 1827.22 1818.13 1833.46 1790.05 1842.19 1740.59 1842.19 1700.48 1833.46 1659.03 1824.72 1617.59 1811 1562.77 1845.94 1544.05 1882.12 1524 1920.8 1574.8 1933.28 1620.26 1939.51 1638.98 1947 1680.42 1947 1721.87 1947 1763.32 1939.51 1806.1 1933.28 1828.83 1927.04 1851.55 1915.81 1874.28 1900.83 1890.33 1890.85 1899.68 1897.09 1915.73 1908.32 1943.8 1919.55 1970.54 1928.28 1994.61 1914.56 2005.3 1902.08 2016 1880.87 2014.66 1849.68 1970.54 1832.21 1947.82 1825.97 1917.07 1825.97 1891.66 1827.22 1884.98 1825.97 1878.29 1824.72 1875.62Z" stroke="#000000" stroke-width="2.29167" stroke-linecap="round" stroke-linejoin="round" stroke-miterlimit="10" fill="none" fill-rule="evenodd"/><path d="M1751.84 1544.33C1743.07 1539 1733.03 1539 1723 1541.67 1746.83 1532.33 1769.4 1527 1799.5 1527 1799.5 1527 1799.5 1527 1799.5 1527 1828.34 1527 1850.92 1532.33 1876 1541.67 1874.75 1541.67 1874.75 1541.67 1874.75 1541.67 1874.75 1541.67 1873.49 1541.67 1872.24 1541.67 1872.24 1541.67 1872.24 1541.67 1872.24 1541.67 1870.98 1540.33 1869.73 1540.33 1868.48 1540.33 1868.48 1540.33 1868.48 1540.33 1868.48 1540.33 1867.22 1540.33 1865.97 1540.33 1864.71 1540.33 1864.71 1540.33 1864.71 1540.33 1864.71 1540.33 1863.46 1540.33 1862.2 1540.33 1860.95 1540.33 1860.95 1540.33 1860.95 1540.33 1860.95 1540.33 1859.7 1540.33 1858.44 1540.33 1858.44 1540.33 1857.19 1540.33 1857.19 1540.33 1857.19 1540.33 1855.93 1540.33 1854.68 1540.33 1854.68 1540.33 1854.68 1540.33 1853.43 1541.67 1853.43 1541.67 1852.17 1541.67 1852.17 1541.67 1850.92 1541.67 1850.92 1541.67 1849.66 1541.67 1849.66 1543 1848.41 1543 1847.16 1543 1845.9 1544.33 1810.79 1563 1824.58 1617.67 1833.36 1659 1842.14 1700.33 1842.14 1740.33 1833.36 1789.67 1833.36 1791 1833.36 1793.67 1832.11 1795 1830.85 1800.33 1829.6 1805.67 1828.34 1811 1828.34 1811 1828.34 1811 1828.34 1811 1828.34 1813.67 1828.34 1815 1828.34 1816.33 1828.34 1817.67 1828.34 1817.67 1828.34 1817.67 1823.33 1837.67 1820.82 1859 1824.58 1876.33 1825.84 1879 1827.09 1884.33 1825.84 1891 1825.84 1892.33 1825.84 1893.67 1825.84 1896.33 1817.06 1891 1809.53 1887 1799.5 1887 1799.5 1887 1799.5 1887 1799.5 1887 1781.94 1887 1773.16 1897.67 1748.08 1907 1748.08 1907 1748.08 1907 1748.08 1907 1749.34 1907 1750.59 1905.67 1751.84 1905.67 1788.21 1885.67 1774.42 1832.33 1764.39 1789.67 1755.61 1740.33 1756.86 1700.33 1764.39 1659 1774.42 1617.67 1788.21 1563 1751.84 1544.33Z" stroke="#000000" stroke-width="2.29167" stroke-linecap="round" stroke-linejoin="round" stroke-miterlimit="10" fill="none" fill-rule="evenodd"/></g></svg>