<svg width="259" height="401" xmlns="http://www.w3.org/2000/svg" xmlns:xlink="http://www.w3.org/1999/xlink" xml:space="preserve" overflow="hidden"><g transform="translate(-3092 -1200)"><path d="M3130.95 1216.59C3103.98 1214 3086 1274.85 3096.27 1329.23 3106.55 1384.9 3132.23 1450.93 3124.53 1494.95 3118.1 1538.97 3114.25 1558.39 3133.52 1581.7 3152.78 1605 3190.02 1597.23 3199.01 1573.93 3208 1549.33 3202.86 1423.74 3202.86 1399.14 3202.86 1375.84 3179.75 1216.59 3130.95 1216.59Z" fill="#003DFF" fill-rule="evenodd"/><path d="M3310.68 1216.59C3337.87 1214 3356 1274.85 3345.64 1329.23 3335.28 1384.9 3309.39 1450.93 3317.16 1494.95 3323.63 1538.97 3328.81 1558.39 3308.09 1581.7 3288.67 1605 3251.13 1597.23 3242.06 1573.93 3233 1549.33 3239.47 1423.74 3239.47 1399.14 3239.47 1375.84 3261.48 1216.59 3310.68 1216.59Z" fill="#003DFF" fill-rule="evenodd"/><path d="M3241.82 1573.16C3232.78 1548.6 3239.24 1423.26 3239.24 1398.71 3239.24 1375.45 3261.19 1216.51 3310.25 1216.51 3312.84 1216.51 3315.42 1216.51 3318 1216.51 3301.22 1207.46 3254.73 1201 3213.42 1201 3165.65 1201 3124.33 1211.34 3114 1222.97 3114 1222.97 3115.29 1221.68 3116.58 1221.68 3120.46 1217.8 3125.62 1215.21 3130.78 1216.51 3141.11 1216.51 3150.15 1222.97 3157.9 1233.31 3159.19 1237.18 3161.77 1239.77 3164.35 1243.64 3190.18 1290.16 3203.09 1381.91 3203.09 1398.71 3203.09 1423.26 3208.25 1548.6 3199.22 1573.16 3194.05 1587.37 3177.27 1596.42 3160.48 1595.12 3175.97 1597.71 3195.34 1599 3214.71 1599 3235.37 1599 3266.35 1597.71 3281.85 1595.12 3265.06 1596.42 3248.28 1587.37 3241.82 1573.16Z" fill="#0000B2" fill-rule="evenodd"/><path d="M3318 1216.51C3301.22 1207.46 3254.73 1201 3213.42 1201 3165.65 1201 3124.33 1211.34 3114 1222.97 3114 1222.97 3115.29 1221.68 3116.58 1221.68 3120.46 1217.8 3125.62 1215.21 3130.78 1216.51 3141.11 1216.51 3150.15 1222.97 3157.9 1233.31 3159.19 1237.18 3161.77 1239.77 3164.35 1243.64 3190.18 1290.16 3203.09 1381.91 3203.09 1398.71 3203.09 1423.26 3208.25 1548.6 3199.22 1573.16 3194.05 1587.37 3177.27 1596.42 3160.48 1595.12 3175.97 1597.71 3195.34 1599 3214.71 1599 3235.37 1599 3266.35 1597.71 3281.85 1595.12 3265.06 1596.42 3248.28 1587.37 3241.82 1573.16 3232.78 1548.6 3239.24 1423.26 3239.24 1398.71 3239.24 1375.45 3261.19 1216.51 3310.25 1216.51 3312.84 1216.51 3315.42 1216.51 3318 1216.51ZM3214.71 1584.79C3213.42 1584.79 3210.84 1584.79 3208.25 1584.79 3209.54 1582.2 3210.84 1579.62 3212.13 1577.03 3213.42 1574.45 3219.87 1571.86 3221.16 1567.99 3221.16 1571.86 3227.62 1574.45 3228.91 1577.03 3230.2 1579.62 3231.49 1582.2 3232.78 1584.79 3231.49 1584.79 3217.29 1584.79 3214.71 1584.79ZM3266.35 1224.26C3270.23 1225.55 3268.94 1230.72 3267.65 1233.31 3248.28 1264.32 3236.66 1314.71 3230.2 1350.9 3228.91 1362.53 3216 1371.57 3214.71 1379.32 3214.71 1371.57 3212.13 1362.53 3210.84 1352.19 3204.38 1314.71 3192.76 1268.19 3175.97 1237.18 3174.68 1235.89 3174.68 1234.6 3173.39 1233.31 3172.1 1230.72 3172.1 1225.55 3175.97 1224.26 3183.72 1221.68 3200.51 1216.51 3214.71 1216.51 3228.91 1216.51 3258.61 1221.68 3266.35 1224.26Z" fill="#000094" fill-rule="evenodd"/><path d="M3100.71 1330.65C3103.29 1347.45 3108.43 1365.54 3112.29 1383.62 3122.57 1423.68 3134.14 1465.02 3129 1494.74 3127.71 1501.2 3127.71 1501.2 3127.71 1501.2 3125.14 1521.87 3125.14 1536.08 3125.14 1549 3125.14 1549 3125.14 1549 3125.14 1549 3125.14 1537.37 3129 1521.87 3132.86 1502.49 3134.14 1494.74 3134.14 1494.74 3134.14 1494.74 3138 1465.02 3131.57 1422.38 3121.29 1382.33 3116.14 1364.24 3112.29 1346.16 3108.43 1329.36 3100.71 1290.6 3103.29 1244.09 3118.71 1226 3118.71 1226 3118.71 1226 3118.71 1226 3102 1245.38 3093 1290.6 3100.71 1330.65Z" fill="#FFFFFF" fill-rule="evenodd"/><path d="M3202.82 1399.46C3202.82 1381.37 3187.29 1275.37 3156.24 1234 3176.94 1283.12 3187.29 1356.8 3187.29 1372.32 3187.29 1395.59 3193.76 1520.98 3183.41 1545.54 3174.35 1568.8 3139.41 1576.56 3120 1555.88 3121.29 1564.93 3125.18 1572.68 3132.94 1581.73 3152.35 1605 3189.88 1597.24 3198.94 1572.68 3208 1549.41 3202.82 1424.02 3202.82 1399.46Z" fill="#0024EB" fill-rule="evenodd"/><path d="M3251 1572C3243.29 1553.89 3249.71 1465.95 3251 1424.57 3251 1398.71 3251 1398.71 3251 1398.71 3251 1379.31 3263.86 1264.21 3296 1228 3296 1228 3296 1228 3296 1228 3262.57 1265.5 3243.29 1378.01 3243.29 1400 3243.29 1424.57 3243.29 1424.57 3243.29 1424.57 3242 1487.94 3243.29 1553.89 3251 1572" fill="#FFFFFF" fill-rule="evenodd"/><path d="M3336.27 1257C3342.79 1278.95 3344.09 1304.77 3338.88 1329.3 3334.97 1346.08 3331.06 1364.15 3325.85 1382.23 3315.42 1422.25 3305 1464.85 3308.91 1494.54 3315.42 1533.27 3316.73 1552.64 3305 1572 3305 1572 3305 1572 3305 1572 3316.73 1551.34 3320.64 1533.27 3314.12 1494.54 3308.91 1464.85 3320.64 1423.54 3331.06 1383.52 3334.97 1365.44 3340.18 1347.37 3342.79 1330.59 3348 1304.77 3342.79 1278.95 3336.27 1257Z" fill="#FFFFFF" fill-rule="evenodd"/><path d="M3332.11 1236C3341.13 1259.23 3335.97 1301.82 3330.82 1330.21 3326.95 1346.99 3321.79 1365.06 3317.92 1383.12 3307.6 1424.42 3296 1465.72 3301.16 1496.69 3302.45 1504.44 3302.45 1504.44 3302.45 1504.44 3307.6 1539.28 3315.34 1558.64 3301.16 1578 3301.16 1578 3301.16 1578 3301.16 1578 3316.63 1556.06 3317.92 1537.99 3311.47 1501.86 3310.18 1495.4 3310.18 1495.4 3310.18 1495.4 3306.32 1465.72 3316.63 1425.71 3326.95 1385.71 3330.82 1367.64 3335.97 1349.57 3339.84 1331.5 3345 1301.82 3341.13 1261.81 3332.11 1236Z" fill="#0024EB" fill-rule="evenodd"/><path d="M3201 1219C3195.84 1224.17 3189.39 1222.87 3184.23 1229.33 3180.35 1235.79 3181.65 1242.25 3181.65 1250 3176.48 1243.54 3161 1234.5 3168.74 1224.17 3171.32 1220.29 3176.48 1222.87 3181.65 1220.29" fill="#000094" fill-rule="evenodd"/><path d="M3206 1322.74C3208.56 1347.26 3232.88 1344.68 3235.44 1327.9 3238 1315 3234.16 1348.55 3234.16 1348.55 3213.68 1395 3213.68 1395 3213.68 1395" fill="#000094" fill-rule="evenodd"/><path d="M3177 1223C3178.3 1223 3178.3 1223 3178.3 1223 3182.18 1219.14 3206.8 1216.57 3230.13 1216.57 3245.68 1216.57 3261.23 1219.14 3269 1223 3269 1223 3269 1223 3269 1223 3261.23 1219.14 3241.79 1214 3224.94 1214 3200.32 1214 3182.18 1216.57 3177 1223Z" fill="#FFFFFF" fill-rule="evenodd"/><path d="M3131.45 1217.09C3104.48 1214.5 3086.5 1275.35 3096.77 1329.73 3107.05 1385.4 3132.73 1451.43 3125.03 1495.45 3118.61 1539.47 3114.75 1558.89 3134.02 1582.2 3153.28 1605.5 3190.52 1597.73 3199.51 1574.43 3208.5 1549.83 3203.36 1424.24 3203.36 1399.64 3203.36 1376.34 3180.25 1217.09 3131.45 1217.09Z" stroke="#000073" stroke-width="2.86476" stroke-linecap="round" stroke-linejoin="round" stroke-miterlimit="10" fill="none" fill-rule="evenodd"/><path d="M3311.18 1217.09C3338.37 1214.5 3356.5 1275.35 3346.14 1329.73 3335.78 1385.4 3309.89 1451.43 3317.66 1495.45 3324.13 1539.47 3329.31 1558.89 3308.59 1582.2 3289.17 1605.5 3251.63 1597.73 3242.56 1574.43 3233.5 1549.83 3239.97 1424.24 3239.97 1399.64 3239.97 1376.34 3261.98 1217.09 3311.18 1217.09Z" stroke="#000073" stroke-width="2.86476" stroke-linecap="round" stroke-linejoin="round" stroke-miterlimit="10" fill="none" fill-rule="evenodd"/><path d="M3242.32 1573.66C3233.28 1549.1 3239.74 1423.76 3239.74 1399.21 3239.74 1375.95 3261.69 1217.01 3310.75 1217.01 3313.34 1217.01 3315.92 1217.01 3318.5 1217.01 3301.72 1207.96 3255.23 1201.5 3213.92 1201.5 3166.15 1201.5 3124.83 1211.84 3114.5 1223.47 3114.5 1223.47 3115.79 1222.18 3117.08 1222.18 3120.96 1218.3 3126.12 1215.71 3131.28 1217.01 3141.61 1217.01 3150.65 1223.47 3158.4 1233.81 3159.69 1237.68 3162.27 1240.27 3164.85 1244.14 3190.68 1290.66 3203.59 1382.41 3203.59 1399.21 3203.59 1423.76 3208.75 1549.1 3199.72 1573.66 3194.55 1587.87 3177.77 1596.92 3160.98 1595.62 3176.47 1598.21 3195.84 1599.5 3215.21 1599.5 3235.87 1599.5 3266.85 1598.21 3282.35 1595.62 3265.56 1596.92 3248.78 1587.87 3242.32 1573.66Z" stroke="#000073" stroke-width="2.86476" stroke-linecap="round" stroke-linejoin="round" stroke-miterlimit="10" fill="none" fill-rule="evenodd"/><path d="M3198.5 1583.5C3203.69 1584.5 3208.88 1584.5 3216.66 1584.5 3223.15 1584.5 3241.31 1584.5 3246.5 1583.5" stroke="#000073" stroke-width="2.86476" stroke-linecap="round" stroke-linejoin="round" stroke-miterlimit="10" fill="none" fill-rule="evenodd"/><path d="M3269.5 1224.5C3263.02 1220.9 3247.47 1218.5 3230.63 1218.5 3209.89 1218.5 3182.68 1219.7 3177.5 1224.5" stroke="#000073" stroke-width="2.86476" stroke-linecap="round" stroke-linejoin="round" stroke-miterlimit="10" fill="none" fill-rule="evenodd"/><path d="M3263 1242C3256.42 1253.72 3243.26 1286.26 3238 1311 3240.63 1291.47 3249.84 1252.42 3263 1242Z" fill="#1780FF" fill-rule="evenodd"/></g></svg>