<svg width="231" height="401" xmlns="http://www.w3.org/2000/svg" xmlns:xlink="http://www.w3.org/1999/xlink" xml:space="preserve" overflow="hidden"><g transform="translate(-3474 -578)"><path d="M3513.32 593.589C3486.13 591 3468 651.851 3478.36 706.228 3488.72 761.901 3514.61 827.93 3508.14 871.95 3500.37 915.97 3496.48 935.391 3515.91 958.695 3535.33 982 3572.87 974.232 3581.94 950.927 3591 926.328 3587.12 800.742 3587.12 776.142 3587.12 752.838 3562.52 593.589 3513.32 593.589Z" fill="#5ABC7C" fill-rule="evenodd"/><path d="M3664.43 593.589C3690.47 591 3710 651.851 3699.58 706.228 3689.17 761.901 3663.12 827.93 3669.64 871.95 3677.45 915.97 3681.35 935.391 3661.82 958.695 3642.29 982 3604.53 974.232 3595.42 950.927 3585 926.328 3590.21 800.742 3590.21 776.142 3590.21 752.838 3614.95 593.589 3664.43 593.589Z" fill="#5ABC7C" fill-rule="evenodd"/><path d="M3595.81 951.156C3585.44 926.604 3590.63 801.26 3590.63 776.708 3590.63 753.448 3615.26 594.506 3664.52 594.506 3667.11 594.506 3668.41 594.506 3671 594.506 3654.15 585.461 3628.22 579 3588.04 579 3538.78 579 3506.37 589.338 3496 600.967 3496 600.967 3497.3 599.675 3498.59 599.675 3502.48 595.799 3507.67 593.214 3512.85 594.506 3523.22 594.506 3532.3 600.967 3540.07 611.305 3542.67 615.182 3543.96 617.766 3546.56 621.643 3572.48 668.162 3586.74 759.909 3586.74 776.708 3586.74 801.26 3590.63 926.604 3581.56 951.156 3576.37 965.37 3559.52 974.416 3542.67 973.123 3558.22 975.708 3568.59 977 3589.33 977 3608.78 977 3619.15 975.708 3636 973.123 3619.15 974.416 3601 965.37 3595.81 951.156Z" fill="#35572D" fill-rule="evenodd"/><path d="M3671 594.506C3654.15 585.461 3628.22 579 3588.04 579 3538.78 579 3506.37 589.338 3496 600.967 3496 600.967 3497.3 599.675 3498.59 599.675 3502.48 595.799 3507.67 593.214 3512.85 594.506 3523.22 594.506 3532.3 600.967 3540.07 611.305 3542.67 615.182 3543.96 617.766 3546.56 621.643 3572.48 668.162 3586.74 759.909 3586.74 776.708 3586.74 801.26 3590.63 926.604 3581.56 951.156 3576.37 965.37 3559.52 974.416 3542.67 973.123 3558.22 975.708 3568.59 977 3589.33 977 3608.78 977 3619.15 975.708 3636 973.123 3619.15 974.416 3601 965.37 3595.81 951.156 3585.44 926.604 3590.63 801.26 3590.63 776.708 3590.63 753.448 3615.26 594.506 3664.52 594.506 3667.11 594.506 3668.41 594.506 3671 594.506ZM3589.33 962.786C3586.74 962.786 3584.15 962.786 3581.56 962.786 3584.15 960.201 3585.44 957.617 3585.44 955.032 3586.74 952.448 3588.04 949.864 3588.04 945.987 3589.33 949.864 3590.63 952.448 3590.63 955.032 3591.93 957.617 3593.22 960.201 3594.52 962.786 3593.22 962.786 3590.63 962.786 3589.33 962.786ZM3620.44 602.26C3623.04 603.552 3621.74 608.721 3620.44 611.305 3601 642.318 3598.41 692.714 3593.22 728.896 3590.63 740.526 3589.33 749.571 3589.33 757.325 3588.04 749.571 3586.74 740.526 3584.15 730.188 3578.96 692.714 3576.37 646.195 3558.22 615.182 3558.22 613.889 3556.93 612.597 3555.63 611.305 3554.33 608.721 3554.33 603.552 3558.22 602.26 3566 599.675 3573.78 594.506 3588.04 594.506 3602.3 594.506 3611.37 599.675 3620.44 602.26Z" fill="#24300F" fill-rule="evenodd"/><path d="M3483.83 707.652C3486.44 724.448 3491.67 742.536 3496.89 760.624 3507.33 800.676 3517.78 842.02 3512.56 871.736 3511.25 878.196 3511.25 878.196 3511.25 878.196 3508.64 898.868 3508.64 913.08 3509.94 926 3509.94 926 3509.94 926 3509.94 926 3508.64 914.372 3512.56 898.868 3516.47 879.488 3517.78 871.736 3517.78 871.736 3517.78 871.736 3523 842.02 3515.17 799.384 3504.72 759.332 3499.5 741.244 3495.58 723.156 3491.67 706.36 3483.83 667.6 3486.44 621.088 3502.11 603 3502.11 603 3502.11 603 3502.11 603 3485.14 622.38 3476 667.6 3483.83 707.652Z" fill="#FFFFFF" fill-rule="evenodd"/><path d="M3587.12 776.463C3587.12 758.366 3570.29 652.366 3540.53 611 3559.94 660.122 3570.29 733.805 3570.29 749.317 3570.29 772.585 3576.76 897.976 3566.41 922.537 3557.35 945.805 3523.71 953.561 3503 932.878 3504.29 941.927 3508.18 949.683 3515.94 958.732 3535.35 982 3572.88 974.244 3581.94 949.683 3591 926.415 3587.12 801.024 3587.12 776.463Z" fill="#50A366" fill-rule="evenodd"/><path d="M3603.95 950C3596.28 931.842 3603.95 843.647 3603.95 802.143 3605.23 776.203 3605.23 776.203 3605.23 776.203 3605.23 756.748 3618.02 641.316 3650 605 3650 605 3650 605 3650 605 3615.47 642.613 3597.56 755.451 3597.56 777.5 3596.28 802.143 3596.28 802.143 3596.28 802.143 3595 865.696 3596.28 931.842 3603.95 950" fill="#FFFFFF" fill-rule="evenodd"/><path d="M3690.35 634C3695.53 656.016 3696.82 681.918 3691.65 706.525 3689.06 723.361 3683.88 741.492 3680 759.623 3668.35 799.771 3658 842.508 3663.18 872.295 3669.65 911.148 3670.94 930.574 3658 950 3658 950 3658 950 3658 950 3670.94 929.279 3673.53 911.148 3667.06 872.295 3663.18 842.508 3673.53 801.066 3683.88 760.918 3689.06 742.787 3692.94 724.656 3696.82 707.82 3702 681.918 3695.53 656.016 3690.35 634Z" fill="#FFFFFF" fill-rule="evenodd"/><path d="M3684.82 613C3693.84 636.298 3688.68 679.011 3683.53 707.487 3680.95 724.313 3675.79 742.434 3670.63 760.555 3660.32 801.974 3650 843.392 3655.16 874.457 3655.16 882.223 3655.16 882.223 3655.16 882.223 3661.61 917.17 3668.05 936.585 3655.16 956 3655.16 956 3655.16 956 3655.16 956 3670.63 933.996 3670.63 915.875 3665.47 879.634 3664.18 873.162 3664.18 873.162 3664.18 873.162 3659.03 843.392 3669.34 803.268 3679.66 763.143 3684.82 745.023 3689.97 726.902 3692.55 708.781 3699 679.011 3695.13 638.887 3684.82 613Z" fill="#50A366" fill-rule="evenodd"/><path d="M3583 597C3577.84 602 3571.39 600.75 3566.23 607 3562.35 613.25 3563.65 619.5 3563.65 627 3559.77 620.75 3543 612 3550.74 602 3553.32 598.25 3558.48 600.75 3563.65 598.25" fill="#24300F" fill-rule="evenodd"/><path d="M3581 697.188C3583.53 710.087 3594.93 711.377 3597.47 695.899 3600 683 3600 692.029 3597.47 725.565 3587.33 772 3587.33 772 3587.33 772" fill="#24300F" fill-rule="evenodd"/><path d="M3560 601C3561.29 601 3561.29 601 3561.29 601 3565.17 596.875 3570.33 594.125 3592.29 594.125 3609.08 594.125 3614.25 596.875 3622 601 3622 601 3622 601 3622 601 3614.25 596.875 3607.79 590 3592.29 590 3576.79 590 3565.17 594.125 3560 601Z" fill="#FFFFFF" fill-rule="evenodd"/><path d="M3513.82 594.09C3486.63 591.5 3468.5 652.351 3478.86 706.729 3489.22 762.401 3515.11 828.43 3508.64 872.45 3500.87 916.47 3496.98 935.891 3516.41 959.195 3535.83 982.5 3573.37 974.732 3582.44 951.427 3591.5 926.828 3587.62 801.242 3587.62 776.642 3587.62 753.338 3563.02 594.09 3513.82 594.09Z" stroke="#003300" stroke-width="2.86476" stroke-linecap="round" stroke-linejoin="round" stroke-miterlimit="10" fill="none" fill-rule="evenodd"/><path d="M3664.93 594.09C3690.97 591.5 3710.5 652.351 3700.08 706.729 3689.67 762.401 3663.62 828.43 3670.14 872.45 3677.95 916.47 3681.85 935.891 3662.32 959.195 3642.79 982.5 3605.03 974.732 3595.92 951.427 3585.5 926.828 3590.71 801.242 3590.71 776.642 3590.71 753.338 3615.45 594.09 3664.93 594.09Z" stroke="#003300" stroke-width="2.86476" stroke-linecap="round" stroke-linejoin="round" stroke-miterlimit="10" fill="none" fill-rule="evenodd"/><path d="M3596.31 951.656C3585.94 927.104 3591.13 801.76 3591.13 777.208 3591.13 753.948 3615.76 595.007 3665.02 595.007 3667.61 595.007 3668.91 595.007 3671.5 595.007 3654.65 585.961 3628.72 579.5 3588.54 579.5 3539.28 579.5 3506.87 589.838 3496.5 601.468 3496.5 601.468 3497.8 600.175 3499.09 600.175 3502.98 596.299 3508.17 593.714 3513.35 595.007 3523.72 595.007 3532.8 601.468 3540.57 611.805 3543.17 615.682 3544.46 618.266 3547.06 622.143 3572.98 668.662 3587.24 760.409 3587.24 777.208 3587.24 801.76 3591.13 927.104 3582.06 951.656 3576.87 965.87 3560.02 974.916 3543.17 973.624 3558.72 976.208 3569.09 977.5 3589.83 977.5 3609.28 977.5 3619.65 976.208 3636.5 973.624 3619.65 974.916 3601.5 965.87 3596.31 951.656Z" stroke="#003300" stroke-width="2.86476" stroke-linecap="round" stroke-linejoin="round" stroke-miterlimit="10" fill="none" fill-rule="evenodd"/><path d="M3581.5 960.5C3586.64 961.5 3584.07 961.5 3590.5 961.5 3596.93 961.5 3594.36 961.5 3599.5 960.5" stroke="#003300" stroke-width="2.86476" stroke-linecap="round" stroke-linejoin="round" stroke-miterlimit="10" fill="none" fill-rule="evenodd"/><path d="M3623.5 602.5C3615.79 598.3 3605.5 595.5 3592.64 595.5 3579.79 595.5 3565.64 596.9 3560.5 602.5" stroke="#003300" stroke-width="2.86476" stroke-linecap="round" stroke-linejoin="round" stroke-miterlimit="10" fill="none" fill-rule="evenodd"/><path d="M3614 620C3607.75 632.885 3601.5 662.519 3599 687 3599 667.673 3602.75 631.596 3614 620Z" fill="#FFFFFF" fill-rule="evenodd"/></g></svg>