<svg width="272" height="428" xmlns="http://www.w3.org/2000/svg" xmlns:xlink="http://www.w3.org/1999/xlink" xml:space="preserve" overflow="hidden"><g transform="translate(-1539 -1790)"><path d="M1578 1835.59C1551 1833 1533 1895.1 1543.29 1949.44 1553.57 2003.77 1579.29 2071.05 1572.86 2115.03 1565.14 2157.73 1561.29 2177.13 1580.57 2201.71 1599.86 2225 1630.71 2217.24 1641 2192.66 1650 2169.37 1643.57 2042.58 1643.57 2019.3 1643.57 1996.01 1626.86 1835.59 1578 1835.59Z" fill="#E61B81" fill-rule="evenodd"/><path d="M1547.83 1949.56C1550.44 1967.63 1555.67 1985.7 1560.89 2003.77 1571.33 2043.79 1581.78 2085.1 1576.56 2113.49 1575.25 2121.24 1575.25 2121.24 1575.25 2121.24 1572.64 2141.89 1572.64 2156.09 1573.94 2169 1573.94 2169 1573.94 2169 1573.94 2169 1572.64 2156.09 1576.56 2141.89 1580.47 2122.53 1581.78 2114.78 1581.78 2114.78 1581.78 2114.78 1587 2083.8 1579.17 2042.5 1568.72 2002.48 1563.5 1984.41 1559.58 1966.34 1555.67 1949.56 1547.83 1910.83 1550.44 1864.36 1566.11 1845 1566.11 1845 1566.11 1845 1566.11 1845 1549.14 1865.65 1540 1910.83 1547.83 1949.56Z" fill="#FFFFFF" fill-rule="evenodd"/><path d="M1643.59 2019.46C1643.59 2000.07 1634.62 1895.37 1605.16 1854 1624.38 1903.12 1634.62 1976.8 1634.62 1992.32 1634.62 2015.59 1641.03 2140.98 1630.78 2165.54 1623.09 2187.51 1588.5 2196.56 1568 2175.88 1569.28 2184.93 1573.12 2192.68 1580.81 2201.73 1600.03 2225 1630.78 2217.24 1641.03 2192.68 1650 2169.41 1643.59 2042.73 1643.59 2019.46Z" fill="#DC026B" fill-rule="evenodd"/><path d="M1745.89 1835.59C1772.96 1833 1791 1895.1 1780.69 1949.44 1770.38 2003.77 1744.6 2071.05 1752.33 2115.03 1758.78 2157.73 1763.93 2177.13 1744.6 2201.71 1723.98 2225 1693.04 2217.24 1684.02 2192.66 1675 2169.37 1680.16 2042.58 1680.16 2019.3 1680.16 1996.01 1698.2 1835.59 1745.89 1835.59Z" fill="#E61B81" fill-rule="evenodd"/><path d="M1788.42 1827.66C1753.48 1791.45 1630.57 1763 1562 1841.88 1562 1841.88 1562 1841.88 1562 1841.88 1567.18 1838 1572.35 1835.41 1577.53 1835.41 1626.69 1835.41 1643.51 1995.76 1643.51 2019.03 1643.51 2042.31 1649.98 2169.03 1640.92 2192.31 1637.04 2202.66 1633.16 2209.12 1622.81 2213 1622.81 2213 1622.81 2213 1622.81 2213 1635.75 2210.41 1648.69 2209.12 1661.62 2209.12 1675.86 2209.12 1688.79 2210.41 1700.44 2213 1700.44 2213 1700.44 2213 1700.44 2213 1690.09 2210.41 1687.5 2202.66 1683.62 2192.31 1674.56 2169.03 1679.74 2042.31 1679.74 2019.03 1679.74 1995.76 1697.85 1835.41 1745.72 1835.41 1772.89 1832.83 1791.01 1894.9 1780.65 1949.21 1770.3 2003.52 1744.43 2070.76 1752.19 2114.72 1758.66 2157.4 1763.83 2176.79 1744.43 2201.36 1737.96 2207.83 1731.49 2211.71 1725.02 2213 1737.96 2211.71 1753.48 2200.07 1762.54 2189.72 1781.95 2166.45 1781.95 2140.59 1775.48 2096.62 1769.01 2053.95 1793.59 1986.71 1805.24 1932.4 1813 1891.02 1807.82 1850.93 1788.42 1827.66Z" fill="#D00053" fill-rule="evenodd"/><path d="M1736.66 1838.69C1747 1829.65 1732.78 1809 1678.47 1810.29 1624.16 1811.58 1597 1832.23 1604.76 1854.18 1604.76 1855.47 1604.76 1855.47 1604.76 1855.47 1635.79 1898.06 1643.55 2001.32 1643.55 2019.39 1643.55 2042.62 1650.02 2169.11 1640.97 2192.35 1637.09 2202.67 1633.21 2209.13 1622.86 2213 1635.79 2210.42 1648.72 2209.13 1661.66 2209.13 1675.88 2209.13 1688.81 2210.42 1700.45 2213 1690.1 2210.42 1687.52 2202.67 1683.64 2192.35 1674.59 2169.11 1679.76 2042.62 1679.76 2019.39 1679.76 1997.45 1693.98 1856.76 1736.66 1838.69Z" fill="#C10032" fill-rule="evenodd"/><path d="M1679.55 1819C1679.55 1820.29 1679.55 1820.29 1679.55 1820.29 1689.91 1820.29 1697.68 1824.16 1706.75 1825.45 1709.34 1826.74 1711.93 1828.03 1713.23 1830.61 1714.52 1833.19 1711.93 1838.35 1709.34 1842.23 1670.48 1888.68 1666.59 2008.68 1666.59 2017.71 1664 2019 1664 2019 1664 2019 1664 2009.97 1676.95 1889.97 1714.52 1844.81 1718.41 1840.94 1721 1834.48 1719.7 1828.03 1718.41 1825.45 1715.82 1821.58 1709.34 1820.29 1700.27 1819 1689.91 1819 1679.55 1819Z" fill="#FFFFFF" fill-rule="evenodd"/><path d="M1678.47 1810.29C1624.16 1811.58 1597 1832.23 1604.76 1854.18 1604.76 1855.47 1604.76 1855.47 1604.76 1855.47 1635.79 1898.06 1643.55 2001.32 1643.55 2019.39 1643.55 2042.62 1650.02 2169.11 1640.97 2192.35 1637.09 2202.67 1633.21 2209.13 1622.86 2213 1635.79 2210.42 1648.72 2209.13 1661.66 2209.13 1675.88 2209.13 1688.81 2210.42 1700.45 2213 1690.1 2210.42 1687.52 2202.67 1683.64 2192.35 1674.59 2169.11 1679.76 2042.62 1679.76 2019.39 1679.76 1997.45 1693.98 1856.76 1736.66 1838.69 1747 1829.65 1732.78 1809 1678.47 1810.29ZM1661.66 2197.51C1660.36 2197.51 1659.07 2197.51 1656.48 2197.51 1656.48 2197.51 1656.48 2197.51 1657.78 2196.22 1659.07 2191.06 1660.36 2180.73 1661.66 2167.82 1662.95 2180.73 1664.24 2191.06 1666.83 2196.22 1666.83 2197.51 1666.83 2197.51 1666.83 2197.51 1665.53 2197.51 1662.95 2197.51 1661.66 2197.51ZM1713.38 1843.85C1674.59 1889.03 1662.95 2007.77 1662.95 2019.39 1662.95 2019.39 1661.66 2036.17 1661.66 2041.33 1661.66 2036.17 1661.66 2019.39 1661.66 2019.39 1661.66 1998.74 1647.43 1896.77 1616.4 1850.3 1616.4 1850.3 1616.4 1850.3 1616.4 1850.3 1615.1 1849.01 1615.1 1847.72 1615.1 1846.43 1615.1 1845.14 1616.4 1842.56 1617.69 1841.27 1622.86 1832.23 1642.26 1821.91 1679.76 1821.91 1691.4 1820.62 1701.74 1821.91 1708.21 1823.2 1721.14 1825.78 1717.26 1838.69 1713.38 1843.85Z" fill="#B00014" fill-rule="evenodd"/><path d="M1691.49 2195C1685 2176.93 1692.78 2089.13 1692.78 2047.82 1692.78 2022 1692.78 2022 1692.78 2022 1692.78 2002.63 1700.57 1885.15 1733 1849 1733 1849 1733 1849 1733 1849 1699.27 1886.44 1685 2000.05 1685 2023.29 1685 2047.82 1685 2047.82 1685 2047.82 1685 2111.08 1685 2176.93 1691.49 2195" fill="#FFFFFF" fill-rule="evenodd"/><path d="M1771.27 1876C1777.79 1897.93 1779.09 1925.01 1773.88 1949.52 1769.97 1966.29 1766.06 1984.34 1760.85 2002.4 1750.42 2042.38 1740 2083.66 1743.91 2114.61 1750.42 2152.02 1751.73 2172.65 1740 2192 1740 2192 1740 2192 1740 2192 1751.73 2171.36 1755.64 2153.31 1749.12 2113.32 1743.91 2084.95 1755.64 2043.67 1766.06 2003.69 1769.97 1985.63 1775.18 1967.58 1777.79 1949.52 1783 1923.72 1777.79 1899.22 1771.27 1876Z" fill="#FFFFFF" fill-rule="evenodd"/><path d="M1768.11 1856C1777.13 1879.32 1771.97 1922.07 1766.82 1950.57 1762.95 1967.41 1757.79 1985.55 1753.92 2003.68 1743.61 2043.84 1732 2086.59 1737.16 2117.68 1738.45 2124.16 1738.45 2124.16 1738.45 2124.16 1743.61 2159.14 1751.34 2179.86 1737.16 2198 1737.16 2198 1737.16 2198 1737.16 2198 1752.63 2177.27 1753.92 2159.14 1747.47 2122.86 1746.18 2116.39 1746.18 2116.39 1746.18 2116.39 1742.32 2086.59 1752.63 2045.14 1762.95 2006.27 1766.82 1988.14 1771.97 1968.7 1775.84 1951.86 1781 1922.07 1777.13 1880.61 1768.11 1856Z" fill="#DC026B" fill-rule="evenodd"/><path d="M1775.72 1863C1784.86 1886.23 1787.47 1922.37 1782.25 1950.77 1778.33 1967.55 1773.11 1985.62 1769.19 2003.69 1758.75 2043.7 1747 2086.29 1752.22 2117.27 1753.53 2123.72 1753.53 2123.72 1753.53 2123.72 1758.75 2158.57 1761.36 2176.64 1747 2196 1747 2196 1747 2196 1747 2196 1762.67 2174.06 1769.19 2158.57 1762.67 2122.43 1761.36 2115.98 1761.36 2115.98 1761.36 2115.98 1757.44 2086.29 1765.28 2044.99 1774.42 2004.98 1779.64 1986.91 1784.86 1968.84 1787.47 1952.06 1794 1921.08 1786.17 1887.52 1775.72 1863Z" fill="#BD002F" fill-rule="evenodd"/><path d="M1768.95 2167.66C1766.37 2168.95 1762.49 2165.07 1763.78 2159.89 1757.32 2159.89 1757.32 2159.89 1757.32 2159.89 1758.61 2175.43 1754.73 2187.09 1744.39 2201.34 1737.93 2207.82 1731.46 2211.7 1725 2213 1737.93 2211.7 1753.44 2200.05 1762.49 2189.68 1770.24 2179.32 1775.41 2168.95 1778 2156 1775.41 2161.18 1772.83 2166.36 1768.95 2167.66Z" fill="#BD002F" fill-rule="evenodd"/><path d="M1656 1967.97C1656 1975.66 1666.29 1978.22 1670.14 1967.97 1674 1959 1671.43 1980.78 1671.43 1980.78 1671.43 1980.78 1663.71 2038.44 1663.71 2039.72 1665 2041 1656 2021.78 1656 2021.78" fill="#B00014" fill-rule="evenodd"/><path d="M1578.5 1836.09C1551.5 1833.5 1533.5 1895.6 1543.79 1949.94 1554.07 2004.27 1579.79 2071.55 1573.36 2115.53 1565.64 2158.23 1561.79 2177.63 1581.07 2202.21 1600.36 2225.5 1631.21 2217.74 1641.5 2193.16 1650.5 2169.87 1644.07 2043.08 1644.07 2019.8 1644.07 1996.51 1627.36 1836.09 1578.5 1836.09Z" stroke="#330000" stroke-width="2.86476" stroke-linecap="round" stroke-linejoin="round" stroke-miterlimit="10" fill="none" fill-rule="evenodd"/><path d="M1746.39 1836.09C1773.46 1833.5 1791.5 1895.6 1781.19 1949.94 1770.88 2004.27 1745.1 2071.55 1752.83 2115.53 1759.28 2158.23 1764.43 2177.63 1745.1 2202.21 1724.48 2225.5 1693.54 2217.74 1684.52 2193.16 1675.5 2169.87 1680.66 2043.08 1680.66 2019.8 1680.66 1996.51 1698.7 1836.09 1746.39 1836.09Z" stroke="#330000" stroke-width="2.86476" stroke-linecap="round" stroke-linejoin="round" stroke-miterlimit="10" fill="none" fill-rule="evenodd"/><path d="M1788.92 1828.16C1753.98 1791.95 1631.07 1763.5 1562.5 1842.38 1562.5 1842.38 1562.5 1842.38 1562.5 1842.38 1567.68 1838.5 1572.85 1835.91 1578.03 1835.91 1627.19 1835.91 1644.01 1996.26 1644.01 2019.53 1644.01 2042.81 1650.48 2169.53 1641.42 2192.81 1637.54 2203.16 1633.66 2209.62 1623.31 2213.5 1623.31 2213.5 1623.31 2213.5 1623.31 2213.5 1636.25 2210.91 1649.19 2209.62 1662.12 2209.62 1676.36 2209.62 1689.29 2210.91 1700.94 2213.5 1700.94 2213.5 1700.94 2213.5 1700.94 2213.5 1690.59 2210.91 1688 2203.16 1684.12 2192.81 1675.06 2169.53 1680.24 2042.81 1680.24 2019.53 1680.24 1996.26 1698.35 1835.91 1746.22 1835.91 1773.39 1833.33 1791.51 1895.4 1781.15 1949.71 1770.8 2004.02 1744.93 2071.26 1752.69 2115.22 1759.16 2157.9 1764.34 2177.29 1744.93 2201.86 1738.46 2208.33 1731.99 2212.21 1725.52 2213.5 1738.46 2212.21 1753.98 2200.57 1763.04 2190.22 1782.45 2166.95 1782.45 2141.09 1775.98 2097.12 1769.51 2054.45 1794.09 1987.21 1805.74 1932.9 1813.5 1891.52 1808.32 1851.43 1788.92 1828.16Z" stroke="#330000" stroke-width="2.86476" stroke-linecap="round" stroke-linejoin="round" stroke-miterlimit="10" fill="none" fill-rule="evenodd"/><path d="M1737.16 1839.19C1747.5 1830.15 1733.28 1809.5 1678.97 1810.79 1624.66 1812.08 1597.5 1832.73 1605.26 1854.68 1605.26 1855.97 1605.26 1855.97 1605.26 1855.97 1636.29 1898.56 1644.05 2001.82 1644.05 2019.89 1644.05 2043.12 1650.52 2169.61 1641.47 2192.85 1637.59 2203.17 1633.71 2209.63 1623.36 2213.5 1636.29 2210.92 1649.22 2209.63 1662.16 2209.63 1676.38 2209.63 1689.31 2210.92 1700.95 2213.5 1690.6 2210.92 1688.02 2203.17 1684.14 2192.85 1675.09 2169.61 1680.26 2043.12 1680.26 2019.89 1680.26 1997.95 1694.48 1857.26 1737.16 1839.19Z" stroke="#330000" stroke-width="2.86476" stroke-linecap="round" stroke-linejoin="round" stroke-miterlimit="10" fill="none" fill-rule="evenodd"/></g></svg>