<svg width="381" height="414" xmlns="http://www.w3.org/2000/svg" xmlns:xlink="http://www.w3.org/1999/xlink" xml:space="preserve" overflow="hidden"><g transform="translate(-955 -537)"><path d="M1075.07 645.672C1081.4 675.331 1092.8 702.294 1096.6 714.427 1097.87 718.471 1096.6 722.515 1095.33 725.212 1092.8 731.952 1086.47 740.041 1076.33 749.478 1043.4 779.137 1043.4 779.137 1043.4 779.137 1039.6 781.833 1038.33 785.877 1038.33 789.922 1045.93 835.758 1045.93 835.758 1045.93 835.758 1045.93 839.802 1048.47 843.847 1052.27 845.195 1094.07 861.372 1094.07 861.372 1094.07 861.372 1097.87 862.72 1101.67 862.72 1105.47 860.024 1105.47 860.024 1123.2 843.847 1124.47 843.847 1128.27 841.15 1130.8 841.15 1133.33 841.15 1144.73 841.15 1146 843.847 1146 854.631 1146 865.417 1146 938.215 1146 938.215 1144.73 946.304 1138.4 949 1132.07 949 1033.27 936.867 956 846.543 956 738.693 956 665.894 990.2 602.533 1042.13 564.785 1057.33 554 1066.2 558.044 1067.47 568.829 1068.73 575.57 1068.73 611.969 1075.07 645.672Z" fill="#F09267" fill-rule="evenodd"/><path d="M1215.4 645.672C1209.09 675.331 1197.73 702.294 1195.21 714.427 1193.95 718.471 1195.21 722.515 1195.21 725.212 1197.73 731.952 1204.04 740.041 1214.13 749.478 1248.2 779.137 1248.2 779.137 1248.2 779.137 1251.99 781.833 1253.25 785.877 1251.99 789.922 1245.68 835.758 1245.68 835.758 1245.68 835.758 1244.42 839.802 1241.89 843.847 1238.11 845.195 1197.73 861.372 1197.73 861.372 1197.73 861.372 1193.95 862.72 1190.16 862.72 1186.38 860.024 1186.38 860.024 1168.71 843.847 1167.45 843.847 1163.66 841.15 1159.88 841.15 1157.36 841.15 1146 841.15 1146 843.847 1146 854.631 1146 865.417 1146 938.215 1146 938.215 1146 946.304 1152.31 949 1159.88 949 1258.3 936.867 1334 846.543 1334 738.693 1334 665.894 1299.93 602.533 1248.2 564.785 1233.06 554 1224.23 558.044 1222.97 568.829 1222.97 575.57 1222.97 611.969 1215.4 645.672Z" fill="#F09267" fill-rule="evenodd"/><path d="M1067.23 568.967C1068.5 575.699 1068.5 612.052 1074.82 645.712 1081.14 675.333 1092.52 702.261 1096.32 714.379 1097.58 718.418 1096.32 722.457 1095.05 725.15 1093.79 730.536 1088.73 737.268 1082.41 744 1100.11 729.189 1097.58 723.804 1144.37 723.804 1145.63 723.804 1145.63 723.804 1145.63 723.804 1192.42 723.804 1191.15 729.189 1208.86 744 1202.54 737.268 1197.48 730.536 1194.95 725.15 1194.95 722.457 1193.68 718.418 1194.95 714.379 1197.48 702.261 1208.86 675.333 1215.18 645.712 1222.77 612.052 1222.77 575.699 1222.77 568.967 1224.03 559.542 1231.62 554.157 1243 560.889 1243 560.889 1243 560.889 1243 560.889 1224.03 550.118 1193.68 538 1145.63 538 1144.37 538 1144.37 538 1144.37 538 1097.58 538 1067.23 550.118 1047 560.889 1047 560.889 1047 560.889 1047 560.889 1059.65 554.157 1065.97 559.542 1067.23 568.967Z" fill="#E7582E" fill-rule="evenodd"/><path d="M1248.94 779.33C1214.79 749.641 1214.79 749.641 1214.79 749.641 1213.53 748.291 1211 745.592 1209.74 744.243 1192.03 729.398 1193.29 724 1146.5 724 1145.24 724 1145.24 724 1145.24 724 1098.44 724 1100.97 729.398 1083.26 744.243 1080.74 745.592 1079.47 748.291 1076.94 749.641 1044.06 779.33 1044.06 779.33 1044.06 779.33 1040.26 782.029 1039 786.078 1039 790.126 1046.59 836.01 1046.59 836.01 1046.59 836.01 1046.59 840.058 1049.12 844.107 1052.91 845.456 1094.65 861.651 1094.65 861.651 1094.65 861.651 1098.44 863 1102.24 863 1106.03 860.301 1106.03 860.301 1123.74 844.107 1125 844.107 1128.79 841.408 1131.32 841.408 1133.85 841.408 1145.24 841.408 1146.5 844.107 1146.5 854.903 1146.5 854.903 1146.5 854.903 1146.5 854.903 1146.5 844.107 1146.5 841.408 1157.88 841.408 1160.41 841.408 1164.21 841.408 1168 844.107 1169.26 844.107 1186.97 860.301 1186.97 860.301 1190.76 863 1194.56 863 1198.35 861.651 1238.82 845.456 1238.82 845.456 1238.82 845.456 1242.62 844.107 1245.15 840.058 1246.41 836.01 1252.74 790.126 1252.74 790.126 1252.74 790.126 1254 786.078 1252.74 782.029 1248.94 779.33Z" fill="#BF2F16" fill-rule="evenodd"/><path d="M1157.88 841.408C1160.41 841.408 1164.21 841.408 1168 844.107 1169.26 844.107 1186.97 860.301 1186.97 860.301 1190.76 863 1194.56 863 1198.35 861.651 1238.82 845.456 1238.82 845.456 1238.82 845.456 1242.62 844.107 1245.15 840.058 1246.41 836.01 1252.74 790.126 1252.74 790.126 1252.74 790.126 1254 786.078 1252.74 782.029 1248.94 779.33 1214.79 749.641 1214.79 749.641 1214.79 749.641 1213.53 748.291 1211 745.592 1209.74 744.243 1192.03 729.398 1193.29 724 1146.5 724 1145.24 724 1145.24 724 1145.24 724 1098.44 724 1100.97 729.398 1083.26 744.243 1080.74 745.592 1079.47 748.291 1076.94 749.641 1044.06 779.33 1044.06 779.33 1044.06 779.33 1040.26 782.029 1039 786.078 1039 790.126 1046.59 836.01 1046.59 836.01 1046.59 836.01 1046.59 840.058 1049.12 844.107 1052.91 845.456 1094.65 861.651 1094.65 861.651 1094.65 861.651 1098.44 863 1102.24 863 1106.03 860.301 1106.03 860.301 1123.74 844.107 1125 844.107 1128.79 841.408 1131.32 841.408 1133.85 841.408 1145.24 841.408 1146.5 844.107 1146.5 854.903 1146.5 854.903 1146.5 854.903 1146.5 854.903 1146.5 844.107 1146.5 841.408 1157.88 841.408ZM1146.5 838.709C1143.97 837.359 1140.18 836.01 1133.85 836.01 1130.06 836.01 1127.53 836.01 1122.47 838.709 1121.21 840.058 1111.09 849.505 1102.24 856.253 1100.97 857.602 1098.44 857.602 1095.91 857.602 1055.44 840.058 1055.44 840.058 1055.44 840.058 1052.91 840.058 1051.65 837.359 1051.65 836.01 1044.06 790.126 1044.06 790.126 1044.06 790.126 1044.06 787.427 1045.32 784.728 1046.59 783.379 1080.74 753.689 1080.74 753.689 1080.74 753.689 1080.74 753.689 1085.79 748.291 1085.79 748.291 1085.79 748.291 1092.12 742.893 1092.12 742.893 1103.5 733.447 1106.03 729.398 1145.24 729.398 1146.5 729.398 1146.5 729.398 1146.5 729.398 1185.71 729.398 1189.5 733.447 1200.88 742.893 1200.88 742.893 1205.94 748.291 1205.94 748.291 1205.94 748.291 1212.26 753.689 1212.26 753.689 1245.15 783.379 1245.15 783.379 1245.15 783.379 1247.68 784.728 1247.68 786.078 1247.68 788.777 1247.68 788.777 1247.68 788.777 1247.68 790.126 1241.35 836.01 1241.35 836.01 1241.35 836.01 1241.35 837.359 1238.82 840.058 1237.56 840.058 1197.09 857.602 1197.09 857.602 1197.09 857.602 1194.56 857.602 1192.03 857.602 1190.76 856.253 1181.91 849.505 1171.79 840.058 1170.53 838.709 1165.47 836.01 1161.68 836.01 1157.88 836.01 1152.82 836.01 1149.03 837.359 1146.5 838.709Z" fill="#872412" fill-rule="evenodd"/><path d="M1116.98 919.375C1132.15 915.329 1138.47 884.309 1141 868.125 1141 873.52 1141 924.77 1141 932.862 1141 940.954 1137.21 945 1130.89 943.651 1037.33 931.513 964 842.5 964 740 965.264 810.132 1034.8 930.164 1116.98 919.375Z" fill="#E86235" fill-rule="evenodd"/><path d="M1055.92 565C1062.27 565 1061 569.029 1062.27 590.518 1064.81 612.006 1066.08 638.866 1073.69 661.698 1080.04 684.529 1087.65 704.675 1091.46 712.733 1094 722.134 1085.12 735.564 1072.42 744.965 1059.73 755.709 1045.77 767.797 1036.88 774.512 1029.27 779.884 1031.81 785.256 1033.08 796 1028 775.855 1028 770.483 1040.69 762.425 1052.12 753.023 1071.15 735.564 1077.5 720.791 1082.58 706.018 1068.62 676.471 1063.54 654.983 1059.73 633.494 1057.19 594.547 1058.46 583.802 1059.73 573.058 1057.19 565 1055.92 565Z" fill="#FCE0D0" fill-rule="evenodd"/><path d="M1035 577C1018.52 587.741 966.536 650.843 964 722 967.803 697.833 999.5 609.222 1035 577Z" fill="#FFFFFF" fill-rule="evenodd"/><path d="M1074 860.364C1074 860.364 1089.12 865.818 1095.42 867.182 1101.72 868.546 1102.98 868.546 1111.8 861.727 1120.62 854.909 1124.4 848.091 1128.18 846.727 1133.22 844 1137 845.364 1137 845.364 1131.96 846.727 1129.44 850.818 1124.4 856.273 1119.36 863.091 1111.8 872.636 1101.72 874 1090.38 874 1074 860.364 1074 860.364Z" fill="#FFFFFF" fill-rule="evenodd"/><path d="M1236.08 565C1229.73 565 1231 569.029 1229.73 590.518 1227.19 612.006 1225.92 638.866 1218.31 661.698 1211.96 684.529 1204.35 704.675 1201.81 712.733 1198 722.134 1206.88 735.564 1219.58 744.965 1233.54 755.709 1246.23 767.797 1255.12 774.512 1264 779.884 1260.19 785.256 1258.92 796 1264 775.855 1264 770.483 1252.58 762.425 1239.88 753.023 1220.85 735.564 1215.77 720.791 1209.42 706.018 1224.65 676.471 1228.46 654.983 1232.27 633.494 1234.81 594.547 1233.54 583.802 1233.54 573.058 1234.81 565 1236.08 565Z" fill="#FFFFFF" fill-rule="evenodd"/><path d="M1255.89 887.331C1230.58 910.268 1190.1 938.603 1161 944 1254.62 931.857 1328 842.805 1328 740.261 1328 740.261 1328 732.166 1328 722.721 1325.47 651.21 1273.6 587.794 1257.15 577 1277.39 603.985 1328 663.353 1316.61 769.945 1303.96 842.805 1255.89 887.331 1255.89 887.331Z" fill="#E86235" fill-rule="evenodd"/><path d="M1219 860.364C1219 860.364 1203.94 865.818 1197.67 867.182 1191.39 868.546 1190.14 868.546 1181.35 861.727 1172.57 854.909 1168.8 848.091 1163.78 846.727 1160.02 844 1155 845.364 1155 845.364 1160.02 846.727 1162.53 850.818 1167.55 856.273 1172.57 863.091 1180.1 872.636 1191.39 874 1201.43 874 1219 860.364 1219 860.364Z" fill="#FFFFFF" fill-rule="evenodd"/><path d="M1145.94 538C1144.67 538 1144.67 538 1144.67 538 1097.74 538 1067.3 550.11 1047 560.875 1047 560.875 1047 560.875 1047 560.875 1059.68 554.147 1066.03 559.529 1067.3 568.948 1068.56 575.676 1068.56 612.007 1074.91 645.647 1081.25 675.25 1092.66 702.162 1096.47 714.272 1096.47 715.617 1096.47 716.963 1096.47 718.309 1097.74 718.309 1099.01 718.309 1099.01 716.963 1112.96 707.544 1128.18 712.926 1147.21 711.581 1166.24 711.581 1189.07 710.235 1194.14 721 1194.14 718.309 1194.14 716.963 1195.41 714.272 1197.95 702.162 1209.36 675.25 1215.7 645.647 1222.05 618.735 1223.32 590.478 1223.32 577.022 1223.32 577.022 1223.32 577.022 1223.32 577.022 1223.32 575.676 1223.32 575.676 1223.32 575.676 1223.32 574.331 1223.32 574.331 1223.32 574.331 1223.32 572.985 1223.32 572.985 1223.32 572.985 1223.32 571.64 1223.32 571.64 1223.32 571.64 1223.32 571.64 1223.32 570.294 1223.32 570.294 1223.32 570.294 1223.32 570.294 1223.32 568.948 1224.58 567.603 1224.58 567.603 1224.58 566.257 1224.58 566.257 1224.58 566.257 1224.58 566.257 1224.58 564.912 1224.58 564.912 1225.85 563.566 1227.12 559.529 1229.66 558.184 1234.73 558.184 1236 556.838 1236 556.838 1236 556.838 1215.7 547.419 1187.8 538 1145.94 538ZM1213.17 601.243C1211.9 622.772 1208.09 660.448 1197.95 680.632 1189.07 700.816 1185.26 699.47 1173.85 699.47 1163.7 699.47 1129.45 699.47 1120.57 698.125 1099.01 694.088 1100.28 659.103 1093.93 633.537 1087.59 606.625 1088.86 574.331 1119.3 567.603 1140.87 563.566 1176.38 563.566 1199.21 567.603 1209.36 571.64 1214.44 581.059 1213.17 601.243Z" fill="#D93D1D" fill-rule="evenodd"/><path d="M1160.14 552.353C1166.52 553.705 1171.62 553.705 1178 555.057 1171.62 553.705 1165.24 553.705 1160.14 552.353ZM1089.97 572.639C1101.45 561.82 1130.79 552.353 1160.14 552.353 1125.69 551 1088.69 555.057 1067 571.287 1068.28 582.107 1068.28 614.566 1074.66 645.672 1081.03 675.426 1092.52 702.475 1096.34 714.648 1096.34 714.648 1096.34 716 1096.34 716 1096.34 716 1096.34 716 1096.34 716 1096.34 716 1093.79 693.008 1088.69 665.959 1083.59 638.91 1069.55 590.221 1089.97 572.639Z" fill="#BF2F16" fill-rule="evenodd"/><path d="M1198 681C1209.57 659.269 1216 609.015 1212.14 590 1210.86 599.507 1204.43 660.627 1198 681Z" fill="#FFFFFF" fill-rule="evenodd"/><path d="M1075.57 646.172C1081.9 675.831 1093.3 702.793 1097.1 714.927 1098.37 718.971 1097.1 723.015 1095.83 725.712 1093.3 732.452 1086.97 740.541 1076.83 749.978 1043.9 779.636 1043.9 779.636 1043.9 779.636 1040.1 782.333 1038.83 786.377 1038.83 790.421 1046.43 836.258 1046.43 836.258 1046.43 836.258 1046.43 840.302 1048.97 844.346 1052.77 845.694 1094.57 861.872 1094.57 861.872 1094.57 861.872 1098.37 863.22 1102.17 863.22 1105.97 860.524 1105.97 860.524 1123.7 844.346 1124.97 844.346 1128.77 841.65 1131.3 841.65 1133.83 841.65 1145.23 841.65 1146.5 844.346 1146.5 855.131 1146.5 865.916 1146.5 938.715 1146.5 938.715 1145.23 946.804 1138.9 949.5 1132.57 949.5 1033.77 937.367 956.5 847.043 956.5 739.193 956.5 666.394 990.7 603.032 1042.63 565.285 1057.83 554.5 1066.7 558.544 1067.97 569.329 1069.23 576.07 1069.23 612.469 1075.57 646.172Z" stroke="#000000" stroke-width="3.4375" stroke-linecap="round" stroke-linejoin="round" stroke-miterlimit="10" fill="none" fill-rule="evenodd"/><path d="M1215.9 646.172C1209.59 675.831 1198.23 702.793 1195.71 714.927 1194.45 718.971 1195.71 723.015 1195.71 725.712 1198.23 732.452 1204.54 740.541 1214.63 749.978 1248.7 779.636 1248.7 779.636 1248.7 779.636 1252.49 782.333 1253.75 786.377 1252.49 790.421 1246.18 836.258 1246.18 836.258 1246.18 836.258 1244.92 840.302 1242.39 844.346 1238.61 845.694 1198.23 861.872 1198.23 861.872 1198.23 861.872 1194.45 863.22 1190.66 863.22 1186.88 860.524 1186.88 860.524 1169.21 844.346 1167.95 844.346 1164.16 841.65 1160.38 841.65 1157.86 841.65 1146.5 841.65 1146.5 844.346 1146.5 855.131 1146.5 865.916 1146.5 938.715 1146.5 938.715 1146.5 946.804 1152.81 949.5 1160.38 949.5 1258.8 937.367 1334.5 847.043 1334.5 739.193 1334.5 666.394 1300.43 603.032 1248.7 565.285 1233.56 554.5 1224.73 558.544 1223.47 569.329 1223.47 576.07 1223.47 612.469 1215.9 646.172Z" stroke="#000000" stroke-width="3.4375" stroke-linecap="round" stroke-linejoin="round" stroke-miterlimit="10" fill="none" fill-rule="evenodd"/><path d="M1067.73 569.467C1069 576.2 1069 612.552 1075.32 646.213 1081.64 675.833 1093.02 702.762 1096.82 714.879 1098.08 718.918 1096.82 722.958 1095.55 725.65 1094.29 731.036 1089.23 737.768 1082.91 744.5 1100.61 729.69 1098.08 724.304 1144.87 724.304 1146.13 724.304 1146.13 724.304 1146.13 724.304 1192.92 724.304 1191.65 729.69 1209.36 744.5 1203.04 737.768 1197.98 731.036 1195.45 725.65 1195.45 722.958 1194.18 718.918 1195.45 714.879 1197.98 702.762 1209.36 675.833 1215.68 646.213 1223.27 612.552 1223.27 576.2 1223.27 569.467 1224.53 560.043 1232.12 554.657 1243.5 561.389 1243.5 561.389 1243.5 561.389 1243.5 561.389 1224.53 550.618 1194.18 538.5 1146.13 538.5 1144.87 538.5 1144.87 538.5 1144.87 538.5 1098.08 538.5 1067.73 550.618 1047.5 561.389 1047.5 561.389 1047.5 561.389 1047.5 561.389 1060.15 554.657 1066.47 560.043 1067.73 569.467Z" stroke="#000000" stroke-width="3.4375" stroke-linecap="round" stroke-linejoin="round" stroke-miterlimit="10" fill="none" fill-rule="evenodd"/></g></svg>