<svg width="393" height="393" xmlns="http://www.w3.org/2000/svg" xmlns:xlink="http://www.w3.org/1999/xlink" xml:space="preserve" overflow="hidden"><g transform="translate(-1491 -546)"><path d="M1660.82 636.835C1653.21 665.196 1651.94 694.907 1649.41 707.062 1649.41 712.464 1645.6 715.165 1645.6 716.515 1639.26 721.917 1630.38 725.969 1617.69 730.021 1574.56 739.474 1574.56 739.474 1574.56 739.474 1570.75 740.825 1566.95 743.526 1565.68 747.577 1552.99 792.144 1552.99 792.144 1552.99 792.144 1551.73 796.196 1551.73 800.247 1555.53 804.299 1584.71 838.062 1584.71 838.062 1584.71 838.062 1587.25 842.113 1591.05 843.464 1594.86 842.113 1594.86 842.113 1617.69 836.711 1620.23 836.711 1624.03 836.711 1626.57 838.062 1629.11 839.412 1639.26 844.814 1637.99 847.516 1634.18 856.969 1629.11 866.423 1597.39 932.598 1597.39 932.598 1593.59 938 1587.25 938 1580.9 933.948 1498.45 875.876 1468 758.381 1514.94 662.495 1545.38 597.67 1602.47 557.154 1665.9 547.701 1683.66 545 1690 554.453 1686.19 563.907 1683.66 570.66 1668.43 603.072 1660.82 636.835Z" fill="#F09267" fill-rule="evenodd"/><path d="M1714.05 636.835C1721.62 665.196 1722.89 694.907 1725.41 707.062 1725.41 712.464 1727.94 715.165 1729.2 716.515 1735.51 721.917 1744.35 725.969 1756.98 730.021 1799.92 739.474 1799.92 739.474 1799.92 739.474 1803.71 740.825 1807.5 743.526 1808.76 747.577 1821.39 792.144 1821.39 792.144 1821.39 792.144 1822.65 796.196 1821.39 800.247 1818.86 804.299 1789.82 838.062 1789.82 838.062 1789.82 838.062 1787.29 842.113 1783.5 843.464 1779.71 842.113 1779.71 842.113 1756.98 836.711 1754.46 836.711 1750.67 836.711 1748.14 838.062 1745.62 839.412 1735.51 844.814 1736.78 847.516 1740.57 856.969 1745.62 866.423 1775.93 932.598 1775.93 932.598 1779.71 938 1787.29 938 1792.34 933.948 1875.69 875.876 1906 758.381 1859.27 662.495 1828.97 597.67 1772.14 557.154 1708.99 547.701 1690.05 545 1685 554.453 1688.79 563.907 1691.31 570.66 1706.47 603.072 1714.05 636.835Z" fill="#F09267" fill-rule="evenodd"/><path d="M1775.22 932.307C1775.22 932.307 1744.97 866.32 1739.93 856.893 1738.67 852.853 1737.41 850.16 1737.41 847.467 1731.11 838.04 1719.77 834 1687 834 1687 834 1687 834 1687 834 1652.97 834 1641.63 838.04 1636.59 848.813 1636.59 850.16 1636.59 850.16 1636.59 850.16 1636.59 851.507 1635.33 854.2 1634.07 856.893 1629.03 866.32 1597.52 932.307 1597.52 932.307 1597.52 933.653 1596.26 933.653 1595 935 1615.16 925.573 1644.15 916.147 1687 916.147 1687 916.147 1687 916.147 1687 916.147 1729.85 916.147 1758.84 925.573 1779 935 1777.74 933.653 1776.48 933.653 1775.22 932.307Z" fill="#E7582E" fill-rule="evenodd"/><path d="M1728.74 717.294C1727.48 715.941 1724.96 713.235 1724.96 707.824 1722.43 695.647 1721.17 665.882 1713.61 637.471 1706.04 603.647 1690.91 571.176 1688.39 564.412 1687.13 563.059 1687.13 561.706 1687.13 559 1687.13 559 1687.13 559 1687.13 559 1687.13 561.706 1685.87 563.059 1685.87 564.412 1683.35 571.176 1668.22 603.647 1660.65 637.471 1653.09 665.882 1651.83 695.647 1649.3 707.824 1649.3 713.235 1645.52 715.941 1645.52 717.294 1644.26 718.647 1643 718.647 1643 720 1643 720 1643 720 1643 720 1649.3 714.588 1661.91 711.883 1687.13 711.883 1687.13 711.883 1687.13 711.883 1687.13 711.883 1711.09 711.883 1722.43 713.235 1730 718.647 1730 718.647 1730 718.647 1730 718.647 1730 718.647 1730 717.294 1728.74 717.294Z" fill="#E7582E" fill-rule="evenodd"/><path d="M1820.74 792.388C1808.12 748.175 1808.12 748.175 1808.12 748.175 1806.86 744.155 1803.07 741.476 1799.29 740.136 1756.39 730.757 1756.39 730.757 1756.39 730.757 1745.04 726.738 1736.21 724.058 1729.9 718.699 1729.9 718.699 1729.9 718.699 1729.9 718.699 1722.33 713.34 1710.97 712 1687 712 1687 712 1687 712 1687 712 1661.77 712 1649.15 714.68 1642.84 720.039 1642.84 720.039 1642.84 720.039 1642.84 720.039 1636.53 724.058 1627.7 728.078 1617.61 730.757 1574.71 740.136 1574.71 740.136 1574.71 740.136 1570.93 741.476 1567.14 744.155 1565.88 748.175 1553.26 792.388 1553.26 792.388 1553.26 792.388 1552 796.408 1552 800.427 1555.79 804.447 1584.8 837.942 1584.8 837.942 1584.8 837.942 1587.33 841.961 1591.11 843.301 1594.9 841.961 1594.9 841.961 1617.61 836.602 1620.13 836.602 1623.92 836.602 1626.44 837.942 1628.96 839.282 1636.53 843.301 1637.79 845.981 1636.53 850 1636.53 850 1636.53 850 1636.53 850 1636.53 848.66 1636.53 848.66 1636.53 848.66 1641.58 837.942 1652.93 833.922 1687 833.922 1687 833.922 1687 833.922 1687 833.922 1719.8 833.922 1731.16 837.942 1737.47 847.32 1737.47 847.32 1737.47 848.66 1737.47 848.66 1736.21 844.641 1738.73 841.961 1745.04 839.282 1747.56 837.942 1750.08 836.602 1753.87 836.602 1756.39 836.602 1779.1 841.961 1779.1 841.961 1782.89 843.301 1786.67 841.961 1789.2 837.942 1818.21 804.447 1818.21 804.447 1818.21 804.447 1820.74 800.427 1822 796.408 1820.74 792.388Z" fill="#BF2F16" fill-rule="evenodd"/><path d="M1820.74 792.388C1808.12 748.175 1808.12 748.175 1808.12 748.175 1806.86 744.155 1803.07 741.476 1799.29 740.136 1756.39 730.757 1756.39 730.757 1756.39 730.757 1745.04 726.738 1736.21 724.058 1729.9 718.699 1729.9 718.699 1729.9 718.699 1729.9 718.699 1722.33 713.34 1710.97 712 1687 712 1687 712 1687 712 1687 712 1661.77 712 1649.15 714.68 1642.84 720.039 1642.84 720.039 1642.84 720.039 1642.84 720.039 1636.53 724.058 1627.7 728.078 1617.61 730.757 1574.71 740.136 1574.71 740.136 1574.71 740.136 1570.93 741.476 1567.14 744.155 1565.88 748.175 1553.26 792.388 1553.26 792.388 1553.26 792.388 1552 796.408 1552 800.427 1555.79 804.447 1584.8 837.942 1584.8 837.942 1584.8 837.942 1587.33 841.961 1591.11 843.301 1594.9 841.961 1594.9 841.961 1617.61 836.602 1620.13 836.602 1623.92 836.602 1626.44 837.942 1628.96 839.282 1636.53 843.301 1637.79 845.981 1636.53 850 1636.53 850 1636.53 850 1636.53 850 1636.53 848.66 1636.53 848.66 1636.53 848.66 1641.58 837.942 1652.93 833.922 1687 833.922 1687 833.922 1687 833.922 1687 833.922 1719.8 833.922 1731.16 837.942 1737.47 847.32 1737.47 847.32 1737.47 848.66 1737.47 848.66 1736.21 844.641 1738.73 841.961 1745.04 839.282 1747.56 837.942 1750.08 836.602 1753.87 836.602 1756.39 836.602 1779.1 841.961 1779.1 841.961 1782.89 843.301 1786.67 841.961 1789.2 837.942 1818.21 804.447 1818.21 804.447 1818.21 804.447 1820.74 800.427 1822 796.408 1820.74 792.388Z" fill="#BF2F16" fill-rule="evenodd"/><path d="M1808.12 748.175C1806.86 744.155 1803.07 741.476 1799.29 740.136 1756.39 730.757 1756.39 730.757 1756.39 730.757 1745.04 726.738 1736.21 724.058 1729.9 718.699 1729.9 718.699 1729.9 718.699 1729.9 718.699 1722.33 713.34 1710.97 712 1687 712 1687 712 1687 712 1687 712 1661.77 712 1649.15 714.68 1642.84 720.039 1642.84 720.039 1642.84 720.039 1642.84 720.039 1636.53 724.058 1627.7 728.078 1617.61 730.757 1574.71 740.136 1574.71 740.136 1574.71 740.136 1570.93 741.476 1567.14 744.155 1565.88 748.175 1553.26 792.388 1553.26 792.388 1553.26 792.388 1552 796.408 1552 800.427 1555.79 804.447 1584.8 837.942 1584.8 837.942 1584.8 837.942 1587.33 841.961 1591.11 843.301 1594.9 841.961 1594.9 841.961 1617.61 836.602 1620.13 836.602 1623.92 836.602 1626.44 837.942 1628.96 839.282 1636.53 843.301 1637.79 845.981 1636.53 850 1636.53 850 1636.53 850 1636.53 850 1636.53 848.66 1636.53 848.66 1636.53 848.66 1641.58 837.942 1652.93 833.922 1687 833.922 1687 833.922 1687 833.922 1687 833.922 1719.8 833.922 1731.16 837.942 1737.47 847.32 1737.47 847.32 1737.47 848.66 1737.47 848.66 1736.21 844.641 1738.73 841.961 1745.04 839.282 1747.56 837.942 1750.08 836.602 1753.87 836.602 1756.39 836.602 1779.1 841.961 1779.1 841.961 1782.89 843.301 1786.67 841.961 1789.2 837.942 1818.21 804.447 1818.21 804.447 1818.21 804.447 1820.74 800.427 1822 796.408 1820.74 792.388L1808.12 748.175ZM1813.17 799.087C1784.15 832.583 1784.15 832.583 1784.15 832.583 1784.15 832.583 1781.63 833.922 1780.36 833.922 1757.65 828.563 1755.13 828.563 1753.87 828.563 1748.82 828.563 1745.04 829.903 1741.25 831.243 1739.99 832.583 1738.73 833.922 1736.21 835.262 1726.11 827.223 1710.97 825.884 1687 825.884 1687 825.884 1687 825.884 1687 825.884 1663.03 825.884 1647.89 827.223 1637.79 835.262 1635.27 833.922 1634.01 832.583 1631.49 831.243 1628.96 829.903 1625.18 828.563 1618.87 828.563 1618.87 828.563 1616.35 828.563 1593.64 833.922 1592.37 833.922 1589.85 832.583 1589.85 832.583 1560.83 799.087 1560.83 799.087 1560.83 799.087 1559.57 797.748 1559.57 796.408 1559.57 795.068 1573.45 750.854 1573.45 750.854 1573.45 750.854 1573.45 749.515 1574.71 748.175 1575.97 748.175 1618.87 738.796 1618.87 738.796 1618.87 738.796 1631.49 734.777 1640.32 730.757 1646.63 726.738 1652.93 722.718 1664.29 720.039 1687 720.039 1687 720.039 1687 720.039 1687 720.039 1709.71 720.039 1719.8 721.379 1726.11 725.398 1724.85 724.058 1724.85 724.058 1724.85 724.058 1731.16 730.757 1741.25 734.777 1755.13 738.796 1798.03 748.175 1798.03 748.175 1798.03 748.175 1799.29 748.175 1800.55 749.515 1800.55 750.854 1813.17 795.068 1813.17 795.068 1813.17 795.068 1814.43 796.408 1814.43 797.748 1813.17 799.087Z" fill="#872412" fill-rule="evenodd"/><path d="M1581.21 900.244C1597.57 905.645 1616.45 879.99 1624 866.487 1621.48 871.888 1600.09 917.797 1597.57 924.548 1593.79 931.299 1588.76 934 1583.72 928.599 1505.69 873.239 1478 759.817 1520.79 668 1491.84 730.112 1504.43 870.538 1581.21 900.244Z" fill="#E86235" fill-rule="evenodd"/><path d="M1675.41 555C1683 559.048 1679.2 561.747 1671.61 581.986 1664.02 600.877 1653.9 626.514 1651.37 650.802 1647.57 673.74 1645.04 696.678 1645.04 704.774 1645.04 714.219 1629.86 722.315 1614.67 725.014 1598.22 729.062 1581.78 733.11 1571.65 734.459 1561.53 735.808 1561.53 741.206 1559 752 1561.53 730.411 1564.06 726.363 1579.24 725.014 1593.16 722.315 1617.2 716.918 1628.59 704.774 1641.24 693.98 1639.98 660.247 1645.04 640.007 1651.37 618.418 1665.29 583.336 1670.35 573.891 1675.41 564.445 1677.94 556.349 1675.41 555Z" fill="#FCE0D0" fill-rule="evenodd"/><path d="M1652 556C1633.02 557.352 1559.63 589.803 1528 652 1541.92 631.718 1606.45 568.169 1652 556Z" fill="#FFFFFF" fill-rule="evenodd"/><path d="M1569 827C1569 827 1579.12 839.273 1584.18 843.364 1589.24 847.455 1591.78 847.455 1601.9 846.091 1613.29 844.727 1618.35 840.636 1623.41 840.636 1628.47 840.636 1631 844.727 1631 844.727 1627.2 843.364 1623.41 844.727 1615.82 848.818 1608.22 851.545 1598.1 857 1587.98 851.545 1577.86 847.455 1569 827 1569 827Z" fill="#FFFFFF" fill-rule="evenodd"/><path d="M1698.58 556C1691 560.048 1694.79 562.746 1702.36 582.986 1709.94 603.226 1720.04 627.514 1723.83 651.801 1727.62 674.74 1728.88 697.678 1730.14 705.774 1730.14 715.219 1744.03 723.315 1760.44 726.014 1775.6 728.712 1793.27 734.11 1803.37 735.459 1813.47 736.808 1812.21 742.206 1816 753 1812.21 731.411 1809.69 727.363 1795.8 724.664 1780.65 723.315 1756.66 717.918 1745.29 705.774 1733.93 694.979 1733.93 661.247 1728.88 641.007 1723.83 619.418 1708.68 584.335 1703.63 574.89 1698.58 565.445 1696.05 557.349 1698.58 556Z" fill="#FFFFFF" fill-rule="evenodd"/><path d="M1851.61 834.047C1840.26 867.833 1815.04 911.08 1792.35 930 1870.52 874.59 1897 759.717 1854.13 667.819 1854.13 667.819 1850.35 661.061 1846.57 652.953 1815.04 590.786 1741.91 558.351 1723 557 1752 570.514 1821.35 600.246 1856.65 700.253 1876.83 771.88 1851.61 834.047 1851.61 834.047Z" fill="#E86235" fill-rule="evenodd"/><path d="M1807 827C1807 827 1795.66 840.478 1790.62 844.522 1785.58 848.565 1784.32 848.565 1774.24 847.217 1762.9 845.87 1757.86 841.826 1752.82 841.826 1747.78 841.826 1744 845.87 1744 845.87 1749.04 844.522 1752.82 845.87 1760.38 849.913 1766.68 852.609 1778.02 858 1788.1 852.609 1798.18 848.565 1807 827 1807 827Z" fill="#FFFFFF" fill-rule="evenodd"/><path d="M1728.74 717.294C1727.48 715.941 1724.96 713.235 1724.96 707.824 1722.43 695.647 1721.17 665.882 1713.61 637.471 1711.09 625.294 1707.3 613.118 1703.52 602.294 1703.52 602.294 1703.52 600.941 1702.26 600.941 1701 596.882 1699.74 594.176 1698.48 590.118 1698.48 590.118 1698.48 590.118 1698.48 590.118 1698.48 588.765 1698.48 588.765 1697.22 587.412 1697.22 587.412 1697.22 587.412 1697.22 587.412 1693.43 576.588 1689.65 567.118 1688.39 564.412 1687.13 563.059 1687.13 561.706 1687.13 559 1687.13 559 1687.13 559 1687.13 559 1687.13 561.706 1685.87 563.059 1685.87 564.412 1683.35 571.176 1668.22 603.647 1660.65 637.471 1653.09 665.882 1651.83 695.647 1649.3 707.824 1649.3 713.235 1645.52 715.941 1645.52 717.294 1644.26 718.647 1643 718.647 1643 720 1643 720 1643 720 1643 720 1649.3 714.588 1661.91 711.883 1687.13 711.883 1687.13 711.883 1687.13 711.883 1687.13 711.883 1702.26 711.883 1712.35 713.235 1719.91 714.588 1718.65 713.235 1716.13 711.883 1714.87 710.53 1698.48 697 1668.22 701.059 1668.22 684.824 1668.22 668.588 1674.52 636.118 1680.83 617.177 1683.35 611.765 1685.87 607.706 1689.65 605 1697.22 602.294 1706.04 628 1709.83 657.765 1713.61 682.118 1716.13 705.118 1722.43 714.588 1724.96 715.941 1727.48 717.294 1730 718.647 1730 718.647 1730 718.647 1730 718.647 1730 718.647 1730 717.294 1728.74 717.294Z" fill="#D93D1D" fill-rule="evenodd"/><path d="M1700 624C1703.69 632.105 1709.85 661.824 1711.08 678.035 1712.31 694.245 1716 701 1716 701 1709.85 692.895 1708.62 678.035 1706.15 667.228 1703.69 656.421 1703.69 633.456 1700 624Z" fill="#FFFFFF" fill-rule="evenodd"/><path d="M1679.73 711.883C1681 711.883 1681 711.883 1681 710.53 1677.2 709.177 1665.8 707.824 1660.73 705.118 1655.67 702.412 1660.73 671.294 1663.27 653.706 1665.8 636.118 1673.4 609.059 1678.47 596.882 1684.8 584.706 1692.4 582 1700 594.176 1696.2 583.353 1696.2 583.353 1696.2 583.353 1692.4 573.882 1689.87 567.118 1688.6 564.412 1687.33 563.059 1687.33 561.706 1687.33 559 1687.33 559 1687.33 559 1687.33 559 1687.33 561.706 1686.07 563.059 1686.07 564.412 1683.53 571.176 1668.33 603.647 1660.73 637.471 1653.13 665.882 1651.87 695.647 1649.33 707.824 1649.33 713.235 1645.53 715.941 1645.53 717.294 1644.27 718.647 1643 718.647 1643 720 1643 720 1643 720 1643 720 1649.33 714.588 1659.47 711.883 1679.73 711.883Z" fill="#BF2F16" fill-rule="evenodd"/><path d="M1636.59 849.708C1636.59 851.062 1635.33 853.769 1634.07 856.477 1629.03 865.954 1597.52 932.292 1597.52 932.292 1597.52 933.646 1596.26 933.646 1595 935 1615.16 925.523 1644.15 916.046 1687 916.046 1687 916.046 1687 916.046 1687 916.046 1729.85 916.046 1758.84 925.523 1779 935 1777.74 933.646 1776.48 933.646 1775.22 932.292 1775.22 932.292 1744.97 865.954 1739.93 856.477 1738.67 852.415 1737.41 849.708 1737.41 847 1737.41 847 1737.41 865.954 1743.71 883.554 1748.75 901.154 1758.84 920.108 1743.71 913.338 1715.99 902.508 1651.71 907.923 1639.11 899.8 1626.51 891.677 1631.55 863.246 1636.59 848.354L1636.59 849.708Z" fill="#D93D1D" fill-rule="evenodd"/><path d="M1639 855C1642.8 845.667 1649.12 841.667 1664.31 841.667 1679.5 840.333 1711.14 839 1720 843 1703.55 841.667 1645.33 844.333 1639 855Z" fill="#FFFFFF" fill-rule="evenodd"/><path d="M1681.2 914.808C1664.72 912.115 1641.9 912.115 1627.96 910.769 1612.75 908.077 1622.89 881.154 1630.49 865 1629.23 866.346 1629.23 866.346 1629.23 866.346 1619.08 886.538 1597.54 932.308 1597.54 932.308 1597.54 933.654 1596.27 933.654 1595 935 1614.01 925.577 1643.17 916.154 1685 916.154 1683.73 914.808 1682.46 914.808 1681.2 914.808Z" fill="#BF2F16" fill-rule="evenodd"/><path d="M1760.61 901C1763.13 906.5 1764.39 916.125 1760.61 920.25 1756.83 923 1751.78 921.625 1748 924.375 1753.04 924.375 1756.83 925.75 1760.61 927.125 1765.65 928.5 1771.96 932.625 1777 934 1774.48 928.5 1769.43 913.375 1764.39 909.25" fill="#BF2F16" fill-rule="evenodd"/><path d="M1661.32 637.335C1653.71 665.696 1652.44 695.407 1649.91 707.562 1649.91 712.964 1646.1 715.665 1646.1 717.016 1639.76 722.418 1630.88 726.469 1618.19 730.521 1575.06 739.974 1575.06 739.974 1575.06 739.974 1571.25 741.325 1567.45 744.026 1566.18 748.077 1553.49 792.644 1553.49 792.644 1553.49 792.644 1552.23 796.696 1552.23 800.747 1556.03 804.799 1585.21 838.562 1585.21 838.562 1585.21 838.562 1587.75 842.613 1591.55 843.964 1595.36 842.613 1595.36 842.613 1618.19 837.211 1620.73 837.211 1624.53 837.211 1627.07 838.562 1629.61 839.912 1639.76 845.314 1638.49 848.015 1634.68 857.469 1629.61 866.923 1597.89 933.098 1597.89 933.098 1594.09 938.5 1587.75 938.5 1581.4 934.448 1498.95 876.376 1468.5 758.881 1515.44 662.995 1545.88 598.17 1602.97 557.655 1666.4 548.201 1684.16 545.5 1690.5 554.954 1686.69 564.407 1684.16 571.16 1668.93 603.572 1661.32 637.335Z" stroke="#000000" stroke-width="3.4375" stroke-linecap="round" stroke-linejoin="round" stroke-miterlimit="10" fill="none" fill-rule="evenodd"/><path d="M1714.55 637.335C1722.12 665.696 1723.39 695.407 1725.91 707.562 1725.91 712.964 1728.44 715.665 1729.7 717.016 1736.01 722.418 1744.85 726.469 1757.48 730.521 1800.42 739.974 1800.42 739.974 1800.42 739.974 1804.21 741.325 1808 744.026 1809.26 748.077 1821.89 792.644 1821.89 792.644 1821.89 792.644 1823.15 796.696 1821.89 800.747 1819.36 804.799 1790.32 838.562 1790.32 838.562 1790.32 838.562 1787.79 842.613 1784 843.964 1780.21 842.613 1780.21 842.613 1757.48 837.211 1754.96 837.211 1751.17 837.211 1748.64 838.562 1746.12 839.912 1736.01 845.314 1737.28 848.015 1741.07 857.469 1746.12 866.923 1776.43 933.098 1776.43 933.098 1780.21 938.5 1787.79 938.5 1792.84 934.448 1876.19 876.376 1906.5 758.881 1859.77 662.995 1829.47 598.17 1772.64 557.655 1709.49 548.201 1690.55 545.5 1685.5 554.954 1689.29 564.407 1691.81 571.16 1706.97 603.572 1714.55 637.335Z" stroke="#000000" stroke-width="3.4375" stroke-linecap="round" stroke-linejoin="round" stroke-miterlimit="10" fill="none" fill-rule="evenodd"/><path d="M1775.72 932.807C1775.72 932.807 1745.47 866.82 1740.43 857.393 1739.17 853.353 1737.91 850.66 1737.91 847.967 1731.61 838.54 1720.27 834.5 1687.5 834.5 1687.5 834.5 1687.5 834.5 1687.5 834.5 1653.47 834.5 1642.13 838.54 1637.09 849.313 1637.09 850.66 1637.09 850.66 1637.09 850.66 1637.09 852.007 1635.83 854.7 1634.57 857.393 1629.53 866.82 1598.02 932.807 1598.02 932.807 1598.02 934.153 1596.76 934.153 1595.5 935.5 1615.66 926.073 1644.65 916.647 1687.5 916.647 1687.5 916.647 1687.5 916.647 1687.5 916.647 1730.35 916.647 1759.34 926.073 1779.5 935.5 1778.24 934.153 1776.98 934.153 1775.72 932.807Z" stroke="#000000" stroke-width="3.4375" stroke-linecap="round" stroke-linejoin="round" stroke-miterlimit="10" fill="none" fill-rule="evenodd"/><path d="M1729.24 717.794C1727.98 716.441 1725.46 713.735 1725.46 708.324 1722.93 696.147 1721.67 666.382 1714.11 637.971 1706.54 604.147 1691.41 571.677 1688.89 564.912 1687.63 563.559 1687.63 562.206 1687.63 559.5 1687.63 559.5 1687.63 559.5 1687.63 559.5 1687.63 562.206 1686.37 563.559 1686.37 564.912 1683.85 571.677 1668.72 604.147 1661.15 637.971 1653.59 666.382 1652.33 696.147 1649.8 708.324 1649.8 713.735 1646.02 716.441 1646.02 717.794 1644.76 719.147 1643.5 719.147 1643.5 720.5 1643.5 720.5 1643.5 720.5 1643.5 720.5 1649.8 715.088 1662.41 712.382 1687.63 712.382 1687.63 712.382 1687.63 712.382 1687.63 712.382 1711.59 712.382 1722.93 713.735 1730.5 719.147 1730.5 719.147 1730.5 719.147 1730.5 719.147 1730.5 719.147 1730.5 717.794 1729.24 717.794Z" stroke="#000000" stroke-width="3.4375" stroke-linecap="round" stroke-linejoin="round" stroke-miterlimit="10" fill="none" fill-rule="evenodd"/></g></svg>