<svg width="380" height="414" xmlns="http://www.w3.org/2000/svg" xmlns:xlink="http://www.w3.org/1999/xlink" xml:space="preserve" overflow="hidden"><g transform="translate(-2519 -1079)"><path d="M2638.44 1187.67C2644.74 1217.33 2656.08 1244.29 2659.86 1256.43 2661.12 1260.47 2659.86 1264.52 2658.6 1267.21 2656.08 1273.95 2649.78 1282.04 2639.7 1291.48 2606.94 1321.14 2606.94 1321.14 2606.94 1321.14 2603.16 1323.83 2601.9 1327.88 2601.9 1331.92 2609.46 1377.76 2609.46 1377.76 2609.46 1377.76 2609.46 1381.8 2611.98 1385.85 2615.76 1387.19 2657.34 1403.37 2657.34 1403.37 2657.34 1403.37 2661.12 1404.72 2664.9 1404.72 2668.68 1402.02 2668.68 1402.02 2686.32 1385.85 2687.58 1385.85 2691.36 1383.15 2693.88 1383.15 2696.4 1383.15 2707.74 1383.15 2709 1385.85 2709 1396.63 2709 1407.42 2709 1480.21 2709 1480.21 2707.74 1488.3 2701.44 1491 2695.14 1491 2596.86 1478.87 2520 1388.54 2520 1280.69 2520 1207.89 2554.02 1144.53 2605.68 1106.78 2620.8 1096 2629.62 1100.04 2630.88 1110.83 2632.14 1117.57 2632.14 1153.97 2638.44 1187.67Z" fill="#DEDD45" fill-rule="evenodd"/><path d="M2778.4 1187.67C2772.09 1217.33 2760.73 1244.29 2758.21 1256.43 2756.95 1260.47 2758.21 1264.52 2758.21 1267.21 2760.73 1273.95 2767.04 1282.04 2777.13 1291.48 2811.2 1321.14 2811.2 1321.14 2811.2 1321.14 2813.72 1323.83 2816.25 1327.88 2814.99 1331.92 2808.68 1377.76 2808.68 1377.76 2808.68 1377.76 2807.42 1381.8 2804.89 1385.85 2801.11 1387.19 2760.73 1403.37 2760.73 1403.37 2760.73 1403.37 2756.95 1404.72 2751.9 1404.72 2749.38 1402.02 2749.38 1402.02 2731.71 1385.85 2730.45 1385.85 2726.66 1383.15 2722.88 1383.15 2720.36 1383.15 2709 1383.15 2709 1385.85 2709 1396.63 2709 1407.42 2709 1480.21 2709 1480.21 2709 1488.3 2715.31 1491 2722.88 1491 2821.3 1478.87 2897 1388.54 2897 1280.69 2897 1207.89 2862.93 1144.53 2811.2 1106.78 2796.06 1096 2787.23 1100.04 2785.97 1110.83 2785.97 1117.57 2785.97 1153.97 2778.4 1187.67Z" fill="#DEDD45" fill-rule="evenodd"/><path d="M2630.23 1110.97C2631.5 1117.7 2631.5 1154.05 2637.82 1187.71 2644.14 1217.33 2655.52 1244.26 2659.32 1256.38 2660.58 1260.42 2659.32 1264.46 2658.05 1267.15 2656.79 1272.54 2651.73 1279.27 2645.41 1286 2663.11 1271.19 2660.58 1265.8 2707.37 1265.8 2708.63 1265.8 2708.63 1265.8 2708.63 1265.8 2755.42 1265.8 2754.15 1271.19 2771.86 1286 2764.27 1279.27 2760.48 1272.54 2757.95 1267.15 2757.95 1264.46 2756.68 1260.42 2757.95 1256.38 2760.48 1244.26 2771.86 1217.33 2778.18 1187.71 2785.77 1154.05 2785.77 1117.7 2785.77 1110.97 2787.03 1101.54 2793.35 1096.16 2806 1102.89 2806 1102.89 2806 1102.89 2806 1102.89 2787.03 1092.12 2755.42 1080 2708.63 1080 2707.37 1080 2707.37 1080 2707.37 1080 2660.58 1080 2630.23 1092.12 2610 1102.89 2610 1102.89 2610 1102.89 2610 1102.89 2622.65 1096.16 2628.97 1101.54 2630.23 1110.97Z" fill="#9FC104" fill-rule="evenodd"/><path d="M2810.96 1321.33C2776.98 1291.64 2776.98 1291.64 2776.98 1291.64 2775.72 1290.29 2773.2 1287.59 2771.94 1286.24 2754.32 1271.4 2755.58 1266 2709 1266 2707.74 1266 2707.74 1266 2707.74 1266 2661.16 1266 2663.68 1271.4 2646.06 1286.24 2643.54 1287.59 2642.28 1290.29 2639.76 1291.64 2607.04 1321.33 2607.04 1321.33 2607.04 1321.33 2603.26 1324.03 2602 1328.08 2602 1332.13 2609.55 1378.01 2609.55 1378.01 2609.55 1378.01 2609.55 1382.06 2612.07 1386.11 2615.85 1387.46 2657.39 1403.65 2657.39 1403.65 2657.39 1403.65 2661.16 1405 2664.94 1405 2668.72 1402.3 2668.72 1402.3 2686.34 1386.11 2687.6 1386.11 2691.38 1383.41 2693.89 1383.41 2696.41 1383.41 2707.74 1383.41 2709 1386.11 2709 1396.9 2709 1396.9 2709 1396.9 2709 1396.9 2709 1386.11 2709 1383.41 2720.33 1383.41 2722.85 1383.41 2726.62 1383.41 2730.4 1386.11 2731.66 1386.11 2749.28 1402.3 2749.28 1402.3 2751.8 1405 2756.84 1405 2760.61 1403.65 2800.89 1387.46 2800.89 1387.46 2800.89 1387.46 2804.67 1386.11 2807.19 1382.06 2808.45 1378.01 2814.74 1332.13 2814.74 1332.13 2814.74 1332.13 2816 1328.08 2813.48 1324.03 2810.96 1321.33Z" fill="#617A10" fill-rule="evenodd"/><path d="M2720.33 1383.41C2722.85 1383.41 2726.62 1383.41 2730.4 1386.11 2731.66 1386.11 2749.28 1402.3 2749.28 1402.3 2751.8 1405 2756.84 1405 2760.61 1403.65 2800.89 1387.46 2800.89 1387.46 2800.89 1387.46 2804.67 1386.11 2807.19 1382.06 2808.45 1378.01 2814.74 1332.13 2814.74 1332.13 2814.74 1332.13 2816 1328.08 2813.48 1324.03 2810.96 1321.33 2776.98 1291.64 2776.98 1291.64 2776.98 1291.64 2775.72 1290.29 2773.2 1287.59 2771.94 1286.24 2754.32 1271.4 2755.58 1266 2709 1266 2707.74 1266 2707.74 1266 2707.74 1266 2661.16 1266 2663.68 1271.4 2646.06 1286.24 2643.54 1287.59 2642.28 1290.29 2639.76 1291.64 2607.04 1321.33 2607.04 1321.33 2607.04 1321.33 2603.26 1324.03 2602 1328.08 2602 1332.13 2609.55 1378.01 2609.55 1378.01 2609.55 1378.01 2609.55 1382.06 2612.07 1386.11 2615.85 1387.46 2657.39 1403.65 2657.39 1403.65 2657.39 1403.65 2661.16 1405 2664.94 1405 2668.72 1402.3 2668.72 1402.3 2686.34 1386.11 2687.6 1386.11 2691.38 1383.41 2693.89 1383.41 2696.41 1383.41 2707.74 1383.41 2709 1386.11 2709 1396.9 2709 1396.9 2709 1396.9 2709 1396.9 2709 1386.11 2709 1383.41 2720.33 1383.41ZM2709 1380.71C2706.48 1379.36 2702.71 1378.01 2696.41 1378.01 2692.64 1378.01 2690.12 1378.01 2685.08 1380.71 2683.82 1382.06 2672.49 1391.5 2664.94 1398.25 2663.68 1399.6 2661.16 1399.6 2658.65 1399.6 2618.36 1382.06 2618.36 1382.06 2618.36 1382.06 2615.85 1382.06 2614.59 1379.36 2614.59 1378.01 2607.04 1332.13 2607.04 1332.13 2607.04 1332.13 2607.04 1329.43 2608.29 1326.73 2609.55 1325.38 2643.54 1295.69 2643.54 1295.69 2643.54 1295.69 2643.54 1295.69 2648.58 1290.29 2648.58 1290.29 2648.58 1290.29 2654.87 1284.89 2654.87 1284.89 2666.2 1275.45 2668.72 1271.4 2707.74 1271.4 2709 1271.4 2709 1271.4 2709 1271.4 2748.02 1271.4 2751.8 1275.45 2763.13 1284.89 2763.13 1284.89 2768.16 1290.29 2768.16 1290.29 2768.16 1290.29 2774.46 1295.69 2774.46 1295.69 2807.19 1325.38 2807.19 1325.38 2807.19 1325.38 2809.71 1326.73 2809.71 1328.08 2809.71 1330.78 2809.71 1330.78 2809.71 1330.78 2809.71 1332.13 2803.41 1378.01 2803.41 1378.01 2803.41 1378.01 2803.41 1379.36 2800.89 1382.06 2799.64 1382.06 2758.09 1399.6 2758.09 1399.6 2758.09 1399.6 2756.84 1399.6 2754.32 1399.6 2753.06 1398.25 2744.25 1391.5 2734.18 1382.06 2731.66 1380.71 2727.88 1378.01 2724.11 1378.01 2720.33 1378.01 2715.29 1378.01 2711.52 1379.36 2709 1380.71Z" fill="#002540" fill-rule="evenodd"/><path d="M2679.98 1461.38C2695.15 1457.33 2701.47 1426.31 2704 1410.12 2704 1415.52 2704 1466.77 2704 1474.86 2704 1482.95 2700.21 1487 2693.89 1485.65 2600.33 1473.51 2527 1384.5 2527 1282 2528.26 1352.13 2597.8 1472.16 2679.98 1461.38Z" fill="#9FC104" fill-rule="evenodd"/><path d="M2618.92 1107C2625.27 1107 2624 1111.05 2625.27 1132.63 2627.81 1154.21 2629.08 1181.19 2636.69 1204.12 2643.04 1227.05 2650.65 1247.28 2653.19 1255.37 2657 1264.81 2648.12 1278.3 2635.42 1287.74 2622.73 1298.53 2608.77 1310.67 2599.88 1317.42 2591 1322.81 2594.81 1328.21 2596.08 1339 2591 1318.77 2591 1313.37 2603.69 1305.28 2615.12 1295.84 2634.15 1278.3 2640.5 1263.47 2645.58 1248.63 2630.35 1218.95 2626.54 1197.37 2622.73 1175.79 2620.19 1136.67 2621.46 1125.88 2622.73 1115.09 2620.19 1107 2618.92 1107Z" fill="#F5F5CE" fill-rule="evenodd"/><path d="M2598 1119C2581.52 1129.74 2529.54 1192.84 2527 1264 2530.8 1239.83 2562.5 1151.22 2598 1119Z" fill="#FFFFFF" fill-rule="evenodd"/><path d="M2637 1402.36C2637 1402.36 2652.12 1407.82 2658.42 1409.18 2664.72 1410.55 2665.98 1410.55 2674.8 1403.73 2683.62 1396.91 2687.4 1390.09 2691.18 1388.73 2696.22 1386 2700 1387.36 2700 1387.36 2694.96 1388.73 2692.44 1392.82 2687.4 1398.27 2682.36 1405.09 2674.8 1414.64 2664.72 1416 2653.38 1416 2637 1402.36 2637 1402.36Z" fill="#FFFFFF" fill-rule="evenodd"/><path d="M2798.5 1107C2792.25 1107 2793.5 1111.05 2792.25 1132.63 2789.75 1154.21 2788.5 1181.19 2781 1204.12 2774.75 1227.05 2767.25 1247.28 2764.75 1255.37 2761 1264.81 2769.75 1278.3 2782.25 1287.74 2794.75 1298.53 2808.5 1310.67 2817.25 1317.42 2826 1322.81 2822.25 1328.21 2821 1339 2826 1318.77 2826 1313.37 2814.75 1305.28 2802.25 1295.84 2783.5 1278.3 2778.5 1263.47 2772.25 1248.63 2787.25 1218.95 2791 1197.37 2794.75 1175.79 2797.25 1136.67 2796 1125.88 2794.75 1115.09 2797.25 1107 2798.5 1107Z" fill="#FFFFFF" fill-rule="evenodd"/><path d="M2818.89 1429.33C2793.58 1452.27 2753.1 1480.6 2724 1486 2817.62 1473.86 2891 1384.81 2891 1282.26 2891 1282.26 2891 1274.17 2891 1264.72 2888.47 1193.21 2836.6 1129.79 2820.15 1119 2840.39 1145.99 2891 1205.35 2879.61 1311.94 2866.96 1384.81 2818.89 1429.33 2818.89 1429.33Z" fill="#9FC104" fill-rule="evenodd"/><path d="M2782 1402.36C2782 1402.36 2766.94 1407.82 2760.67 1409.18 2754.39 1410.55 2753.14 1410.55 2744.35 1403.73 2735.57 1396.91 2731.8 1390.09 2726.78 1388.73 2723.02 1386 2718 1387.36 2718 1387.36 2723.02 1388.73 2725.53 1392.82 2730.55 1398.27 2735.57 1405.09 2743.1 1414.64 2754.39 1416 2764.43 1416 2782 1402.36 2782 1402.36Z" fill="#FFFFFF" fill-rule="evenodd"/><path d="M2708.94 1080C2707.67 1080 2707.67 1080 2707.67 1080 2660.74 1080 2630.3 1092.11 2610 1102.88 2610 1102.88 2610 1102.88 2610 1102.88 2622.68 1096.15 2629.03 1101.53 2630.3 1110.95 2631.56 1117.68 2631.56 1154.01 2637.91 1187.65 2644.25 1217.25 2655.66 1244.16 2659.47 1256.27 2659.47 1257.62 2659.47 1258.96 2659.47 1260.31 2660.74 1260.31 2662.01 1260.31 2662.01 1258.96 2675.96 1249.54 2691.18 1254.93 2710.21 1253.58 2729.23 1253.58 2752.07 1252.24 2757.14 1263 2757.14 1260.31 2757.14 1258.96 2758.41 1256.27 2760.95 1244.16 2772.36 1217.25 2778.7 1187.65 2785.05 1160.74 2786.32 1132.48 2786.32 1119.02 2786.32 1119.02 2786.32 1119.02 2786.32 1119.02 2786.32 1117.68 2786.32 1117.68 2786.32 1117.68 2786.32 1116.33 2786.32 1116.33 2786.32 1116.33 2786.32 1114.99 2786.32 1114.99 2786.32 1114.99 2786.32 1113.64 2786.32 1113.64 2786.32 1113.64 2786.32 1113.64 2786.32 1112.29 2786.32 1112.29 2786.32 1112.29 2786.32 1112.29 2786.32 1110.95 2787.58 1109.6 2787.58 1109.6 2787.58 1108.26 2787.58 1108.26 2787.58 1108.26 2787.58 1108.26 2787.58 1106.91 2787.58 1106.91 2788.85 1105.57 2790.12 1101.53 2792.66 1100.18 2797.73 1100.18 2799 1098.84 2799 1098.84 2799 1098.84 2778.7 1089.42 2750.8 1080 2708.94 1080ZM2776.17 1143.24C2774.9 1164.77 2771.09 1202.45 2760.95 1222.63 2752.07 1242.82 2748.26 1241.47 2736.85 1241.47 2726.7 1241.47 2692.45 1241.47 2683.57 1240.12 2662.01 1236.09 2663.28 1201.1 2656.93 1175.54 2650.59 1148.63 2651.86 1116.33 2682.3 1109.6 2703.87 1105.57 2739.38 1105.57 2762.21 1109.6 2772.36 1113.64 2777.44 1123.06 2776.17 1143.24Z" fill="#7B9910" fill-rule="evenodd"/><path d="M2722.3 1095.34C2727.36 1096.69 2733.68 1096.69 2740 1098.03 2733.68 1096.69 2727.36 1096.69 2722.3 1095.34ZM2652.76 1115.51C2664.14 1104.75 2693.22 1095.34 2722.3 1095.34 2688.16 1094 2651.49 1098.03 2630 1114.16 2631.26 1124.92 2631.26 1157.18 2637.59 1188.1 2643.91 1217.67 2655.29 1244.56 2659.08 1256.66 2659.08 1256.66 2659.08 1258 2659.08 1258 2659.08 1258 2659.08 1258 2659.08 1258 2659.08 1258 2656.55 1235.15 2651.49 1208.26 2646.44 1181.38 2632.53 1132.98 2652.76 1115.51Z" fill="#617A10" fill-rule="evenodd"/><path d="M2761 1223C2771.93 1201.51 2778 1151.81 2774.36 1133 2773.14 1142.4 2767.07 1202.85 2761 1223Z" fill="#FFFFFF" fill-rule="evenodd"/><path d="M2638.94 1188.17C2645.24 1217.83 2656.58 1244.79 2660.36 1256.93 2661.62 1260.97 2660.36 1265.02 2659.1 1267.71 2656.58 1274.45 2650.28 1282.54 2640.2 1291.98 2607.44 1321.64 2607.44 1321.64 2607.44 1321.64 2603.66 1324.33 2602.4 1328.38 2602.4 1332.42 2609.96 1378.26 2609.96 1378.26 2609.96 1378.26 2609.96 1382.3 2612.48 1386.35 2616.26 1387.69 2657.84 1403.87 2657.84 1403.87 2657.84 1403.87 2661.62 1405.22 2665.4 1405.22 2669.18 1402.52 2669.18 1402.52 2686.82 1386.35 2688.08 1386.35 2691.86 1383.65 2694.38 1383.65 2696.9 1383.65 2708.24 1383.65 2709.5 1386.35 2709.5 1397.13 2709.5 1407.92 2709.5 1480.72 2709.5 1480.72 2708.24 1488.8 2701.94 1491.5 2695.64 1491.5 2597.36 1479.37 2520.5 1389.04 2520.5 1281.19 2520.5 1208.39 2554.52 1145.03 2606.18 1107.29 2621.3 1096.5 2630.12 1100.54 2631.38 1111.33 2632.64 1118.07 2632.64 1154.47 2638.94 1188.17Z" stroke="#000000" stroke-width="3.4375" stroke-linecap="round" stroke-linejoin="round" stroke-miterlimit="10" fill="none" fill-rule="evenodd"/><path d="M2778.9 1188.17C2772.59 1217.83 2761.23 1244.79 2758.71 1256.93 2757.45 1260.97 2758.71 1265.02 2758.71 1267.71 2761.23 1274.45 2767.54 1282.54 2777.63 1291.98 2811.7 1321.64 2811.7 1321.64 2811.7 1321.64 2814.22 1324.33 2816.75 1328.38 2815.49 1332.42 2809.18 1378.26 2809.18 1378.26 2809.18 1378.26 2807.92 1382.3 2805.39 1386.35 2801.61 1387.69 2761.23 1403.87 2761.23 1403.87 2761.23 1403.87 2757.45 1405.22 2752.4 1405.22 2749.88 1402.52 2749.88 1402.52 2732.21 1386.35 2730.95 1386.35 2727.16 1383.65 2723.38 1383.65 2720.86 1383.65 2709.5 1383.65 2709.5 1386.35 2709.5 1397.13 2709.5 1407.92 2709.5 1480.72 2709.5 1480.72 2709.5 1488.8 2715.81 1491.5 2723.38 1491.5 2821.8 1479.37 2897.5 1389.04 2897.5 1281.19 2897.5 1208.39 2863.43 1145.03 2811.7 1107.29 2796.56 1096.5 2787.73 1100.54 2786.47 1111.33 2786.47 1118.07 2786.47 1154.47 2778.9 1188.17Z" stroke="#000000" stroke-width="3.4375" stroke-linecap="round" stroke-linejoin="round" stroke-miterlimit="10" fill="none" fill-rule="evenodd"/><path d="M2630.73 1111.47C2632 1118.2 2632 1154.55 2638.32 1188.21 2644.64 1217.83 2656.02 1244.76 2659.82 1256.88 2661.08 1260.92 2659.82 1264.96 2658.55 1267.65 2657.29 1273.04 2652.23 1279.77 2645.91 1286.5 2663.61 1271.69 2661.08 1266.3 2707.87 1266.3 2709.13 1266.3 2709.13 1266.3 2709.13 1266.3 2755.92 1266.3 2754.65 1271.69 2772.36 1286.5 2764.77 1279.77 2760.98 1273.04 2758.45 1267.65 2758.45 1264.96 2757.18 1260.92 2758.45 1256.88 2760.98 1244.76 2772.36 1217.83 2778.68 1188.21 2786.27 1154.55 2786.27 1118.2 2786.27 1111.47 2787.53 1102.04 2793.85 1096.66 2806.5 1103.39 2806.5 1103.39 2806.5 1103.39 2806.5 1103.39 2787.53 1092.62 2755.92 1080.5 2709.13 1080.5 2707.87 1080.5 2707.87 1080.5 2707.87 1080.5 2661.08 1080.5 2630.73 1092.62 2610.5 1103.39 2610.5 1103.39 2610.5 1103.39 2610.5 1103.39 2623.15 1096.66 2629.47 1102.04 2630.73 1111.47Z" stroke="#000000" stroke-width="3.4375" stroke-linecap="round" stroke-linejoin="round" stroke-miterlimit="10" fill="none" fill-rule="evenodd"/></g></svg>