<svg width="393" height="393" xmlns="http://www.w3.org/2000/svg" xmlns:xlink="http://www.w3.org/1999/xlink" xml:space="preserve" overflow="hidden"><g transform="translate(-1490 -1102)"><path d="M1658.95 1192.84C1651.38 1221.2 1650.11 1250.91 1647.59 1263.06 1647.59 1268.46 1643.8 1271.16 1642.54 1272.52 1637.49 1277.92 1628.65 1281.97 1614.75 1286.02 1573.08 1295.47 1573.08 1295.47 1573.08 1295.47 1569.29 1296.82 1565.5 1299.53 1564.24 1303.58 1551.61 1348.14 1551.61 1348.14 1551.61 1348.14 1550.35 1352.2 1550.35 1356.25 1554.14 1360.3 1583.18 1394.06 1583.18 1394.06 1583.18 1394.06 1585.71 1398.11 1589.5 1399.46 1593.29 1398.11 1593.29 1398.11 1616.02 1392.71 1618.54 1392.71 1622.33 1392.71 1624.86 1394.06 1627.38 1395.41 1637.49 1400.81 1636.22 1403.52 1632.43 1412.97 1627.38 1422.42 1595.81 1488.6 1595.81 1488.6 1592.02 1494 1585.71 1494 1579.39 1489.95 1497.31 1431.88 1467 1314.38 1513.73 1218.49 1544.03 1153.67 1600.86 1113.15 1664.01 1103.7 1681.69 1101 1688 1110.45 1684.21 1119.91 1681.69 1126.66 1666.53 1159.07 1658.95 1192.84Z" fill="#DFE0E1" fill-rule="evenodd"/><path d="M1712.18 1192.84C1719.79 1221.2 1721.06 1250.91 1722.33 1263.06 1723.59 1268.46 1726.13 1271.16 1727.4 1272.52 1733.74 1277.92 1742.62 1281.97 1755.31 1286.02 1798.44 1295.47 1798.44 1295.47 1798.44 1295.47 1802.25 1296.82 1806.05 1299.53 1807.32 1303.58 1820.01 1348.14 1820.01 1348.14 1820.01 1348.14 1821.27 1352.2 1820.01 1356.25 1817.47 1360.3 1788.29 1394.06 1788.29 1394.06 1788.29 1394.06 1785.75 1398.11 1781.95 1399.46 1778.14 1398.11 1778.14 1398.11 1755.31 1392.71 1752.77 1392.71 1748.97 1392.71 1746.43 1394.06 1743.89 1395.41 1733.74 1400.81 1733.74 1403.52 1738.82 1412.97 1743.89 1422.42 1774.34 1488.6 1774.34 1488.6 1778.14 1494 1785.75 1494 1790.83 1489.95 1874.55 1431.88 1905 1314.38 1858.06 1218.49 1827.62 1153.67 1770.53 1113.15 1707.1 1103.7 1688.07 1101 1683 1110.45 1686.81 1119.91 1689.34 1126.66 1704.57 1159.07 1712.18 1192.84Z" fill="#DFE0E1" fill-rule="evenodd"/><path d="M1774.22 1488.31C1774.22 1488.31 1743.97 1422.32 1738.93 1412.89 1737.67 1408.85 1736.41 1406.16 1736.41 1403.47 1730.11 1394.04 1718.77 1390 1686 1390 1686 1390 1686 1390 1686 1390 1651.97 1390 1640.63 1394.04 1635.59 1404.81 1635.59 1406.16 1635.59 1406.16 1635.59 1406.16 1635.59 1407.51 1634.33 1410.2 1633.07 1412.89 1628.03 1422.32 1596.52 1488.31 1596.52 1488.31 1596.52 1489.65 1595.26 1489.65 1594 1491 1614.16 1481.57 1643.15 1472.15 1686 1472.15 1686 1472.15 1686 1472.15 1686 1472.15 1728.85 1472.15 1757.84 1481.57 1778 1491 1776.74 1489.65 1775.48 1489.65 1774.22 1488.31Z" fill="#BDBEC0" fill-rule="evenodd"/><path d="M1727.74 1272.31C1726.48 1270.97 1723.96 1268.28 1722.7 1262.9 1721.43 1250.8 1720.17 1221.22 1712.61 1192.98 1705.04 1159.37 1689.91 1127.1 1687.39 1120.38 1686.13 1119.03 1686.13 1117.69 1686.13 1115 1686.13 1115 1686.13 1115 1686.13 1115 1686.13 1117.69 1684.87 1119.03 1684.87 1120.38 1682.35 1127.1 1667.22 1159.37 1659.65 1192.98 1652.09 1221.22 1650.83 1250.8 1648.3 1262.9 1648.3 1268.28 1644.52 1270.97 1643.26 1272.31 1643.26 1273.66 1642 1273.66 1642 1275 1642 1275 1642 1275 1642 1275 1648.3 1269.62 1660.91 1266.93 1686.13 1266.93 1686.13 1266.93 1686.13 1266.93 1686.13 1266.93 1710.09 1266.93 1721.43 1268.28 1729 1273.66 1729 1273.66 1729 1273.66 1729 1273.66 1729 1273.66 1729 1272.31 1727.74 1272.31Z" fill="#BDBEC0" fill-rule="evenodd"/><path d="M1819.74 1347.97C1807.12 1303.44 1807.12 1303.44 1807.12 1303.44 1805.86 1299.39 1802.07 1296.69 1798.29 1295.34 1755.39 1285.89 1755.39 1285.89 1755.39 1285.89 1744.04 1281.84 1735.21 1279.15 1728.9 1273.75 1728.9 1273.75 1728.9 1273.75 1728.9 1273.75 1721.33 1268.35 1709.97 1267 1686 1267 1686 1267 1686 1267 1686 1267 1660.77 1267 1648.15 1269.7 1641.84 1275.1 1641.84 1275.1 1641.84 1275.1 1641.84 1275.1 1635.53 1279.15 1626.7 1283.19 1615.35 1285.89 1573.71 1295.34 1573.71 1295.34 1573.71 1295.34 1569.93 1296.69 1566.14 1299.39 1564.88 1303.44 1552.26 1347.97 1552.26 1347.97 1552.26 1347.97 1551 1352.02 1551 1356.07 1554.79 1360.12 1583.8 1393.85 1583.8 1393.85 1583.8 1393.85 1586.33 1397.9 1590.11 1399.25 1593.9 1397.9 1593.9 1397.9 1616.61 1392.5 1619.13 1392.5 1622.92 1392.5 1625.44 1393.85 1627.96 1395.2 1634.27 1399.25 1636.79 1401.95 1635.53 1406 1635.53 1406 1635.53 1406 1635.53 1406 1635.53 1404.65 1635.53 1404.65 1635.53 1404.65 1640.58 1393.85 1651.93 1389.81 1686 1389.81 1686 1389.81 1686 1389.81 1686 1389.81 1718.8 1389.81 1730.16 1393.85 1736.47 1403.3 1736.47 1403.3 1736.47 1404.65 1736.47 1404.65 1735.21 1400.6 1737.73 1397.9 1744.04 1395.2 1746.56 1393.85 1749.08 1392.5 1752.87 1392.5 1755.39 1392.5 1778.1 1397.9 1778.1 1397.9 1781.89 1399.25 1785.67 1397.9 1788.2 1393.85 1817.21 1360.12 1817.21 1360.12 1817.21 1360.12 1819.74 1356.07 1821 1352.02 1819.74 1347.97Z" fill="#797A7C" fill-rule="evenodd"/><path d="M1819.74 1347.97C1807.12 1303.44 1807.12 1303.44 1807.12 1303.44 1805.86 1299.39 1802.07 1296.69 1798.29 1295.34 1755.39 1285.89 1755.39 1285.89 1755.39 1285.89 1744.04 1281.84 1735.21 1279.15 1728.9 1273.75 1728.9 1273.75 1728.9 1273.75 1728.9 1273.75 1721.33 1268.35 1709.97 1267 1686 1267 1686 1267 1686 1267 1686 1267 1660.77 1267 1648.15 1269.7 1641.84 1275.1 1641.84 1275.1 1641.84 1275.1 1641.84 1275.1 1635.53 1279.15 1626.7 1283.19 1615.35 1285.89 1573.71 1295.34 1573.71 1295.34 1573.71 1295.34 1569.93 1296.69 1566.14 1299.39 1564.88 1303.44 1552.26 1347.97 1552.26 1347.97 1552.26 1347.97 1551 1352.02 1551 1356.07 1554.79 1360.12 1583.8 1393.85 1583.8 1393.85 1583.8 1393.85 1586.33 1397.9 1590.11 1399.25 1593.9 1397.9 1593.9 1397.9 1616.61 1392.5 1619.13 1392.5 1622.92 1392.5 1625.44 1393.85 1627.96 1395.2 1634.27 1399.25 1636.79 1401.95 1635.53 1406 1635.53 1406 1635.53 1406 1635.53 1406 1635.53 1404.65 1635.53 1404.65 1635.53 1404.65 1640.58 1393.85 1651.93 1389.81 1686 1389.81 1686 1389.81 1686 1389.81 1686 1389.81 1718.8 1389.81 1730.16 1393.85 1736.47 1403.3 1736.47 1403.3 1736.47 1404.65 1736.47 1404.65 1735.21 1400.6 1737.73 1397.9 1744.04 1395.2 1746.56 1393.85 1749.08 1392.5 1752.87 1392.5 1755.39 1392.5 1778.1 1397.9 1778.1 1397.9 1781.89 1399.25 1785.67 1397.9 1788.2 1393.85 1817.21 1360.12 1817.21 1360.12 1817.21 1360.12 1819.74 1356.07 1821 1352.02 1819.74 1347.97Z" fill="#797A7C" fill-rule="evenodd"/><path d="M1807.12 1303.44C1805.86 1299.39 1802.07 1296.69 1798.29 1295.34 1755.39 1285.89 1755.39 1285.89 1755.39 1285.89 1744.04 1281.84 1735.21 1279.15 1728.9 1273.75 1728.9 1273.75 1728.9 1273.75 1728.9 1273.75 1721.33 1268.35 1709.97 1267 1686 1267 1686 1267 1686 1267 1686 1267 1660.77 1267 1648.15 1269.7 1641.84 1275.1 1641.84 1275.1 1641.84 1275.1 1641.84 1275.1 1635.53 1279.15 1626.7 1283.19 1615.35 1285.89 1573.71 1295.34 1573.71 1295.34 1573.71 1295.34 1569.93 1296.69 1566.14 1299.39 1564.88 1303.44 1552.26 1347.97 1552.26 1347.97 1552.26 1347.97 1551 1352.02 1551 1356.07 1554.79 1360.12 1583.8 1393.85 1583.8 1393.85 1583.8 1393.85 1586.33 1397.9 1590.11 1399.25 1593.9 1397.9 1593.9 1397.9 1616.61 1392.5 1619.13 1392.5 1622.92 1392.5 1625.44 1393.85 1627.96 1395.2 1634.27 1399.25 1636.79 1401.95 1635.53 1406 1635.53 1406 1635.53 1406 1635.53 1406 1635.53 1404.65 1635.53 1404.65 1635.53 1404.65 1640.58 1393.85 1651.93 1389.81 1686 1389.81 1686 1389.81 1686 1389.81 1686 1389.81 1718.8 1389.81 1730.16 1393.85 1736.47 1403.3 1736.47 1403.3 1736.47 1404.65 1736.47 1404.65 1735.21 1400.6 1737.73 1397.9 1744.04 1395.2 1746.56 1393.85 1749.08 1392.5 1752.87 1392.5 1755.39 1392.5 1778.1 1397.9 1778.1 1397.9 1781.89 1399.25 1785.67 1397.9 1788.2 1393.85 1817.21 1360.12 1817.21 1360.12 1817.21 1360.12 1819.74 1356.07 1821 1352.02 1819.74 1347.97L1807.12 1303.44ZM1812.17 1354.72C1783.15 1388.46 1783.15 1388.46 1783.15 1388.46 1783.15 1388.46 1780.63 1389.81 1779.36 1389.81 1756.65 1384.41 1754.13 1384.41 1752.87 1384.41 1747.82 1384.41 1744.04 1385.76 1740.25 1387.11 1738.99 1388.46 1737.73 1389.81 1735.21 1391.16 1725.11 1383.06 1709.97 1381.71 1686 1381.71 1686 1381.71 1686 1381.71 1686 1381.71 1662.03 1381.71 1646.89 1383.06 1636.79 1391.16 1634.27 1389.81 1633.01 1388.46 1630.49 1387.11 1627.96 1385.76 1624.18 1384.41 1617.87 1384.41 1617.87 1384.41 1615.35 1384.41 1592.64 1389.81 1591.37 1389.81 1588.85 1388.46 1588.85 1388.46 1559.83 1354.72 1559.83 1354.72 1559.83 1354.72 1558.57 1353.37 1558.57 1352.02 1558.57 1350.67 1572.45 1306.14 1572.45 1306.14 1572.45 1306.14 1572.45 1304.79 1573.71 1303.44 1574.97 1303.44 1617.87 1293.99 1617.87 1293.99 1617.87 1293.99 1630.49 1289.94 1639.32 1285.89 1645.63 1281.84 1651.93 1277.8 1663.29 1275.1 1686 1275.1 1686 1275.1 1686 1275.1 1686 1275.1 1708.71 1275.1 1718.8 1276.45 1725.11 1280.5 1723.85 1279.15 1723.85 1279.15 1723.85 1279.15 1730.16 1285.89 1740.25 1289.94 1754.13 1293.99 1797.03 1303.44 1797.03 1303.44 1797.03 1303.44 1798.29 1303.44 1799.55 1304.79 1799.55 1306.14 1812.17 1350.67 1812.17 1350.67 1812.17 1350.67 1813.43 1352.02 1813.43 1353.37 1812.17 1354.72Z" fill="#404042" fill-rule="evenodd"/><path d="M1579.91 1456.24C1596.39 1461.64 1615.4 1435.99 1623 1422.49 1620.47 1427.89 1598.92 1473.8 1595.12 1480.55 1592.59 1487.3 1587.52 1490 1582.45 1484.6 1503.88 1429.24 1476 1315.82 1519.09 1224 1489.94 1286.11 1502.61 1426.54 1579.91 1456.24Z" fill="#BDBEC0" fill-rule="evenodd"/><path d="M1674.42 1111C1682 1115.03 1678.21 1117.71 1670.64 1137.85 1663.06 1156.64 1652.96 1182.15 1650.43 1206.32 1646.65 1229.14 1644.12 1251.96 1644.12 1260.01 1642.86 1269.41 1628.97 1277.47 1613.82 1280.15 1597.4 1284.18 1580.99 1288.21 1570.89 1289.55 1560.79 1290.89 1560.79 1296.26 1557 1307 1560.79 1285.52 1563.31 1281.49 1578.46 1280.15 1592.35 1277.47 1616.34 1272.1 1627.71 1260.01 1640.33 1249.27 1639.07 1215.71 1644.12 1195.58 1650.43 1174.1 1664.32 1139.19 1669.37 1129.79 1674.42 1120.4 1676.95 1112.34 1674.42 1111Z" fill="#EEEFEF" fill-rule="evenodd"/><path d="M1651 1112C1632.02 1113.35 1558.63 1145.8 1527 1208 1540.92 1187.72 1605.45 1124.17 1651 1112Z" fill="#FFFFFF" fill-rule="evenodd"/><path d="M1567 1383C1567 1383 1577.12 1395.27 1582.18 1399.36 1587.24 1403.45 1588.51 1403.45 1599.9 1402.09 1610.02 1400.73 1616.35 1396.64 1621.41 1396.64 1626.47 1396.64 1629 1400.73 1629 1400.73 1625.2 1399.36 1621.41 1400.73 1613.82 1404.82 1606.22 1407.55 1596.1 1413 1585.98 1407.55 1575.86 1403.45 1567 1383 1567 1383Z" fill="#FFFFFF" fill-rule="evenodd"/><path d="M1697.58 1112C1690 1116.05 1693.79 1118.75 1701.36 1138.99 1708.94 1159.23 1719.04 1183.51 1722.83 1207.8 1726.62 1230.74 1727.88 1253.68 1729.14 1261.77 1729.14 1271.22 1743.03 1279.32 1759.44 1282.01 1774.6 1284.71 1791.01 1290.11 1802.37 1291.46 1812.47 1292.81 1811.21 1298.21 1815 1309 1811.21 1287.41 1808.69 1283.36 1794.8 1280.66 1779.65 1279.32 1755.66 1273.92 1744.29 1261.77 1732.93 1250.98 1732.93 1217.25 1727.88 1197.01 1722.83 1175.42 1707.68 1140.34 1702.63 1130.89 1697.58 1121.45 1695.05 1113.35 1697.58 1112Z" fill="#FFFFFF" fill-rule="evenodd"/><path d="M1850.61 1390.05C1839.26 1423.83 1814.04 1467.08 1791.35 1486 1869.52 1430.59 1896 1315.72 1853.13 1223.82 1853.13 1223.82 1849.35 1217.06 1845.57 1208.95 1814.04 1146.79 1740.91 1114.35 1722 1113 1751 1126.51 1820.35 1156.25 1855.65 1256.25 1875.83 1327.88 1850.61 1390.05 1850.61 1390.05Z" fill="#BDBEC0" fill-rule="evenodd"/><path d="M1806 1383C1806 1383 1794.66 1396.48 1789.62 1400.52 1784.58 1404.57 1783.32 1404.57 1773.24 1403.22 1761.9 1401.87 1756.86 1397.83 1751.82 1397.83 1746.78 1397.83 1743 1401.87 1743 1401.87 1748.04 1400.52 1751.82 1401.87 1759.38 1405.91 1765.68 1408.61 1777.02 1414 1787.1 1408.61 1797.18 1404.57 1806 1383 1806 1383Z" fill="#FFFFFF" fill-rule="evenodd"/><path d="M1727.74 1272.31C1726.48 1270.97 1723.96 1268.28 1722.7 1262.9 1721.43 1250.8 1720.17 1221.22 1712.61 1192.98 1710.09 1180.88 1706.3 1168.78 1702.52 1158.03 1702.52 1158.03 1702.52 1156.68 1701.26 1156.68 1700 1152.65 1698.74 1149.96 1697.48 1145.92 1697.48 1145.92 1697.48 1145.92 1697.48 1145.92 1697.48 1144.58 1697.48 1144.58 1696.22 1143.24 1696.22 1143.24 1696.22 1143.24 1696.22 1143.24 1692.43 1132.48 1688.65 1123.07 1687.39 1120.38 1686.13 1119.03 1686.13 1117.69 1686.13 1115 1686.13 1115 1686.13 1115 1686.13 1115 1686.13 1117.69 1684.87 1119.03 1684.87 1120.38 1682.35 1127.1 1667.22 1159.37 1659.65 1192.98 1652.09 1221.22 1650.83 1250.8 1648.3 1262.9 1648.3 1268.28 1644.52 1270.97 1643.26 1272.31 1643.26 1273.66 1642 1273.66 1642 1275 1642 1275 1642 1275 1642 1275 1648.3 1269.62 1660.91 1266.93 1686.13 1266.93 1686.13 1266.93 1686.13 1266.93 1686.13 1266.93 1701.26 1266.93 1711.35 1268.28 1718.91 1269.62 1717.65 1268.28 1715.13 1266.93 1713.87 1265.59 1697.48 1252.14 1667.22 1256.18 1667.22 1240.04 1667.22 1223.91 1673.52 1191.64 1679.83 1172.82 1682.35 1167.44 1684.87 1163.4 1688.65 1160.71 1696.22 1158.03 1705.04 1183.57 1708.83 1213.15 1712.61 1237.35 1715.13 1260.21 1721.43 1269.62 1723.96 1270.97 1726.48 1272.31 1729 1273.66 1729 1273.66 1729 1273.66 1729 1273.66 1729 1273.66 1729 1272.31 1727.74 1272.31Z" fill="#A1A2A4" fill-rule="evenodd"/><path d="M1699 1180C1702.69 1188 1708.85 1217.33 1710.08 1233.33 1711.31 1249.33 1715 1256 1715 1256 1708.85 1248 1707.62 1233.33 1705.15 1222.67 1702.69 1212 1702.69 1189.33 1699 1180Z" fill="#FFFFFF" fill-rule="evenodd"/><path d="M1678.73 1266.93C1680 1266.93 1680 1266.93 1680 1265.59 1676.2 1264.24 1664.8 1262.9 1659.73 1260.21 1654.67 1257.52 1659.73 1226.6 1662.27 1209.12 1664.8 1191.64 1672.4 1164.75 1677.47 1152.65 1683.8 1140.55 1691.4 1137.86 1699 1149.96 1695.2 1139.2 1695.2 1139.2 1695.2 1139.2 1691.4 1129.79 1688.87 1123.07 1687.6 1120.38 1686.33 1119.03 1686.33 1117.69 1686.33 1115 1686.33 1115 1686.33 1115 1686.33 1115 1686.33 1117.69 1685.07 1119.03 1685.07 1120.38 1682.53 1127.1 1667.33 1159.37 1659.73 1192.98 1652.13 1221.22 1650.87 1250.8 1648.33 1262.9 1648.33 1268.28 1644.53 1270.97 1643.27 1272.31 1643.27 1273.66 1642 1273.66 1642 1275 1642 1275 1642 1275 1642 1275 1648.33 1269.62 1658.47 1266.93 1678.73 1266.93Z" fill="#797A7C" fill-rule="evenodd"/><path d="M1635.59 1405.71C1635.59 1407.06 1634.33 1409.77 1633.07 1412.48 1628.03 1421.95 1596.52 1488.29 1596.52 1488.29 1596.52 1489.65 1595.26 1489.65 1594 1491 1614.16 1481.52 1643.15 1472.05 1686 1472.05 1686 1472.05 1686 1472.05 1686 1472.05 1728.85 1472.05 1757.84 1481.52 1778 1491 1776.74 1489.65 1775.48 1489.65 1774.22 1488.29 1774.22 1488.29 1743.97 1421.95 1738.93 1412.48 1737.67 1408.42 1736.41 1405.71 1736.41 1403 1736.41 1403 1736.41 1421.95 1742.71 1439.55 1747.75 1457.15 1757.84 1476.11 1742.71 1469.34 1714.99 1458.51 1650.71 1463.92 1638.11 1455.8 1625.51 1447.68 1630.55 1419.25 1635.59 1404.35L1635.59 1405.71Z" fill="#A1A2A4" fill-rule="evenodd"/><path d="M1638 1411C1641.8 1401.67 1648.12 1397.67 1663.31 1397.67 1678.5 1396.33 1710.14 1395 1719 1399 1702.55 1397.67 1644.33 1400.33 1638 1411Z" fill="#FFFFFF" fill-rule="evenodd"/><path d="M1679.24 1470.81C1662.94 1468.12 1640.38 1468.12 1626.59 1466.77 1611.55 1464.08 1621.58 1437.15 1629.1 1421 1627.85 1422.35 1627.85 1422.35 1627.85 1422.35 1617.82 1442.54 1596.51 1488.31 1596.51 1488.31 1596.51 1489.65 1595.25 1489.65 1594 1491 1612.8 1481.58 1641.63 1472.15 1683 1472.15 1681.75 1470.81 1680.49 1470.81 1679.24 1470.81Z" fill="#797A7C" fill-rule="evenodd"/><path d="M1759.61 1457C1762.13 1462.5 1763.39 1472.13 1759.61 1476.25 1755.83 1479 1750.78 1477.63 1747 1480.38 1752.04 1480.38 1755.83 1481.75 1759.61 1483.13 1764.65 1484.5 1770.96 1488.63 1776 1490 1773.48 1484.5 1768.43 1469.38 1763.39 1465.25" fill="#797A7C" fill-rule="evenodd"/><path d="M1659.45 1193.33C1651.88 1221.7 1650.61 1251.41 1648.09 1263.56 1648.09 1268.96 1644.3 1271.66 1643.04 1273.02 1637.99 1278.42 1629.15 1282.47 1615.25 1286.52 1573.58 1295.97 1573.58 1295.97 1573.58 1295.97 1569.79 1297.32 1566 1300.03 1564.74 1304.08 1552.11 1348.64 1552.11 1348.64 1552.11 1348.64 1550.85 1352.7 1550.85 1356.75 1554.64 1360.8 1583.68 1394.56 1583.68 1394.56 1583.68 1394.56 1586.21 1398.61 1590 1399.96 1593.79 1398.61 1593.79 1398.61 1616.52 1393.21 1619.04 1393.21 1622.83 1393.21 1625.36 1394.56 1627.88 1395.91 1637.99 1401.31 1636.72 1404.02 1632.93 1413.47 1627.88 1422.92 1596.31 1489.1 1596.31 1489.1 1592.52 1494.5 1586.21 1494.5 1579.89 1490.45 1497.81 1432.38 1467.5 1314.88 1514.23 1218.99 1544.53 1154.17 1601.36 1113.65 1664.51 1104.2 1682.19 1101.5 1688.5 1110.95 1684.71 1120.41 1682.19 1127.16 1667.03 1159.57 1659.45 1193.33Z" stroke="#000000" stroke-width="3.4375" stroke-linecap="round" stroke-linejoin="round" stroke-miterlimit="10" fill="none" fill-rule="evenodd"/><path d="M1712.68 1193.33C1720.29 1221.7 1721.56 1251.41 1722.83 1263.56 1724.09 1268.96 1726.63 1271.66 1727.9 1273.02 1734.24 1278.42 1743.12 1282.47 1755.81 1286.52 1798.94 1295.97 1798.94 1295.97 1798.94 1295.97 1802.75 1297.32 1806.55 1300.03 1807.82 1304.08 1820.51 1348.64 1820.51 1348.64 1820.51 1348.64 1821.77 1352.7 1820.51 1356.75 1817.97 1360.8 1788.79 1394.56 1788.79 1394.56 1788.79 1394.56 1786.25 1398.61 1782.45 1399.96 1778.64 1398.61 1778.64 1398.61 1755.81 1393.21 1753.27 1393.21 1749.47 1393.21 1746.93 1394.56 1744.39 1395.91 1734.24 1401.31 1734.24 1404.02 1739.32 1413.47 1744.39 1422.92 1774.84 1489.1 1774.84 1489.1 1778.64 1494.5 1786.25 1494.5 1791.33 1490.45 1875.05 1432.38 1905.5 1314.88 1858.56 1218.99 1828.12 1154.17 1771.03 1113.65 1707.6 1104.2 1688.57 1101.5 1683.5 1110.95 1687.31 1120.41 1689.84 1127.16 1705.07 1159.57 1712.68 1193.33Z" stroke="#000000" stroke-width="3.4375" stroke-linecap="round" stroke-linejoin="round" stroke-miterlimit="10" fill="none" fill-rule="evenodd"/><path d="M1774.72 1488.81C1774.72 1488.81 1744.47 1422.82 1739.43 1413.39 1738.17 1409.35 1736.91 1406.66 1736.91 1403.97 1730.61 1394.54 1719.27 1390.5 1686.5 1390.5 1686.5 1390.5 1686.5 1390.5 1686.5 1390.5 1652.47 1390.5 1641.13 1394.54 1636.09 1405.31 1636.09 1406.66 1636.09 1406.66 1636.09 1406.66 1636.09 1408.01 1634.83 1410.7 1633.57 1413.39 1628.53 1422.82 1597.02 1488.81 1597.02 1488.81 1597.02 1490.15 1595.76 1490.15 1594.5 1491.5 1614.66 1482.07 1643.65 1472.65 1686.5 1472.65 1686.5 1472.65 1686.5 1472.65 1686.5 1472.65 1729.35 1472.65 1758.34 1482.07 1778.5 1491.5 1777.24 1490.15 1775.98 1490.15 1774.72 1488.81Z" stroke="#000000" stroke-width="3.4375" stroke-linecap="round" stroke-linejoin="round" stroke-miterlimit="10" fill="none" fill-rule="evenodd"/><path d="M1728.24 1272.81C1726.98 1271.47 1724.46 1268.78 1723.2 1263.4 1721.93 1251.3 1720.67 1221.72 1713.11 1193.48 1705.54 1159.87 1690.41 1127.6 1687.89 1120.88 1686.63 1119.53 1686.63 1118.19 1686.63 1115.5 1686.63 1115.5 1686.63 1115.5 1686.63 1115.5 1686.63 1118.19 1685.37 1119.53 1685.37 1120.88 1682.85 1127.6 1667.72 1159.87 1660.15 1193.48 1652.59 1221.72 1651.33 1251.3 1648.8 1263.4 1648.8 1268.78 1645.02 1271.47 1643.76 1272.81 1643.76 1274.16 1642.5 1274.16 1642.5 1275.5 1642.5 1275.5 1642.5 1275.5 1642.5 1275.5 1648.8 1270.12 1661.41 1267.43 1686.63 1267.43 1686.63 1267.43 1686.63 1267.43 1686.63 1267.43 1710.59 1267.43 1721.93 1268.78 1729.5 1274.16 1729.5 1274.16 1729.5 1274.16 1729.5 1274.16 1729.5 1274.16 1729.5 1272.81 1728.24 1272.81Z" stroke="#000000" stroke-width="3.4375" stroke-linecap="round" stroke-linejoin="round" stroke-miterlimit="10" fill="none" fill-rule="evenodd"/></g></svg>