<svg width="383" height="415" xmlns="http://www.w3.org/2000/svg" xmlns:xlink="http://www.w3.org/1999/xlink" xml:space="preserve" overflow="hidden"><g transform="translate(-1737 -1700)"><path d="M1858.07 1809.67C1864.4 1839.33 1875.8 1866.29 1879.6 1878.43 1880.87 1882.47 1879.6 1886.52 1878.33 1889.21 1875.8 1895.95 1869.47 1904.04 1859.33 1913.48 1826.4 1943.14 1826.4 1943.14 1826.4 1943.14 1822.6 1945.83 1821.33 1949.88 1821.33 1953.92 1828.93 1999.76 1828.93 1999.76 1828.93 1999.76 1828.93 2003.8 1831.47 2007.85 1835.27 2009.19 1877.07 2025.37 1877.07 2025.37 1877.07 2025.37 1880.87 2026.72 1884.67 2026.72 1888.47 2024.02 1888.47 2024.02 1906.2 2007.85 1907.47 2007.85 1911.27 2005.15 1913.8 2005.15 1916.33 2005.15 1927.73 2005.15 1929 2007.85 1929 2018.63 1929 2029.42 1929 2102.22 1929 2102.22 1927.73 2110.3 1921.4 2113 1915.07 2113 1816.27 2100.87 1739 2010.54 1739 1902.69 1739 1829.89 1773.2 1766.53 1825.13 1728.79 1840.33 1718 1849.2 1722.04 1850.47 1732.83 1851.73 1739.57 1851.73 1775.97 1858.07 1809.67Z" fill="#EF96AB" fill-rule="evenodd"/><path d="M1998.77 1809.67C1992.42 1839.33 1981.01 1866.29 1978.47 1878.43 1977.2 1882.47 1978.47 1886.52 1978.47 1889.21 1981.01 1895.95 1987.35 1904.04 1997.5 1913.48 2031.74 1943.14 2031.74 1943.14 2031.74 1943.14 2035.55 1945.83 2036.82 1949.88 2035.55 1953.92 2029.21 1999.76 2029.21 1999.76 2029.21 1999.76 2027.94 2003.8 2025.4 2007.85 2021.6 2009.19 1981.01 2025.37 1981.01 2025.37 1981.01 2025.37 1977.2 2026.72 1973.4 2026.72 1969.59 2024.02 1969.59 2024.02 1951.83 2007.85 1950.56 2007.85 1946.76 2005.15 1942.95 2005.15 1940.42 2005.15 1929 2005.15 1929 2007.85 1929 2018.63 1929 2029.42 1929 2102.22 1929 2102.22 1929 2110.3 1935.34 2113 1942.95 2113 2041.89 2100.87 2118 2010.54 2118 1902.69 2118 1829.89 2083.75 1766.53 2031.74 1728.79 2016.52 1718 2007.64 1722.04 2006.38 1732.83 2006.38 1739.57 2006.38 1775.97 1998.77 1809.67Z" fill="#EF96AB" fill-rule="evenodd"/><path d="M1850.23 1732.97C1851.5 1739.7 1851.5 1776.05 1857.82 1809.71 1864.14 1839.33 1875.52 1866.26 1879.32 1878.38 1880.58 1882.42 1879.32 1886.46 1878.05 1889.15 1876.79 1894.54 1871.73 1901.27 1865.41 1908 1883.11 1893.19 1880.58 1887.8 1927.37 1887.8 1928.63 1887.8 1928.63 1887.8 1928.63 1887.8 1975.42 1887.8 1974.15 1893.19 1991.86 1908 1985.54 1901.27 1980.48 1894.54 1977.95 1889.15 1977.95 1886.46 1976.68 1882.42 1977.95 1878.38 1980.48 1866.26 1991.86 1839.33 1998.18 1809.71 2005.77 1776.05 2005.77 1739.7 2005.77 1732.97 2007.03 1723.54 2014.62 1718.16 2026 1724.89 2026 1724.89 2026 1724.89 2026 1724.89 2007.03 1714.12 1975.42 1702 1928.63 1702 1927.37 1702 1927.37 1702 1927.37 1702 1880.58 1702 1850.23 1714.12 1830 1724.89 1830 1724.89 1830 1724.89 1830 1724.89 1842.65 1718.16 1848.97 1723.54 1850.23 1732.97Z" fill="#E43B75" fill-rule="evenodd"/><path d="M2030.96 1943.33C1996.98 1913.64 1996.98 1913.64 1996.98 1913.64 1995.72 1912.29 1993.2 1909.59 1991.94 1908.24 1974.32 1893.4 1975.58 1888 1929 1888 1927.74 1888 1927.74 1888 1927.74 1888 1881.16 1888 1883.68 1893.4 1866.06 1908.24 1863.54 1909.59 1862.28 1912.29 1859.76 1913.64 1827.04 1943.33 1827.04 1943.33 1827.04 1943.33 1823.26 1946.03 1822 1950.08 1822 1954.13 1829.55 2000.01 1829.55 2000.01 1829.55 2000.01 1829.55 2004.06 1832.07 2008.11 1835.85 2009.46 1877.39 2025.65 1877.39 2025.65 1877.39 2025.65 1881.16 2027 1884.94 2027 1888.72 2024.3 1888.72 2024.3 1906.34 2008.11 1907.6 2008.11 1911.38 2005.41 1913.89 2005.41 1916.41 2005.41 1927.74 2005.41 1929 2008.11 1929 2018.9 1929 2018.9 1929 2018.9 1929 2018.9 1929 2008.11 1929 2005.41 1940.33 2005.41 1942.85 2005.41 1946.62 2005.41 1950.4 2008.11 1951.66 2008.11 1969.28 2024.3 1969.28 2024.3 1973.06 2027 1976.84 2027 1980.61 2025.65 2020.89 2009.46 2020.89 2009.46 2020.89 2009.46 2024.67 2008.11 2027.19 2004.06 2028.45 2000.01 2034.74 1954.13 2034.74 1954.13 2034.74 1954.13 2036 1950.08 2034.74 1946.03 2030.96 1943.33Z" fill="#AD004E" fill-rule="evenodd"/><path d="M1940.33 2005.41C1942.85 2005.41 1946.62 2005.41 1950.4 2008.11 1951.66 2008.11 1969.28 2024.3 1969.28 2024.3 1973.06 2027 1976.84 2027 1980.61 2025.65 2020.89 2009.46 2020.89 2009.46 2020.89 2009.46 2024.67 2008.11 2027.19 2004.06 2028.45 2000.01 2034.74 1954.13 2034.74 1954.13 2034.74 1954.13 2036 1950.08 2034.74 1946.03 2030.96 1943.33 1996.98 1913.64 1996.98 1913.64 1996.98 1913.64 1995.72 1912.29 1993.2 1909.59 1991.94 1908.24 1974.32 1893.4 1975.58 1888 1929 1888 1927.74 1888 1927.74 1888 1927.74 1888 1881.16 1888 1883.68 1893.4 1866.06 1908.24 1863.54 1909.59 1862.28 1912.29 1859.76 1913.64 1827.04 1943.33 1827.04 1943.33 1827.04 1943.33 1823.26 1946.03 1822 1950.08 1822 1954.13 1829.55 2000.01 1829.55 2000.01 1829.55 2000.01 1829.55 2004.06 1832.07 2008.11 1835.85 2009.46 1877.39 2025.65 1877.39 2025.65 1877.39 2025.65 1881.16 2027 1884.94 2027 1888.72 2024.3 1888.72 2024.3 1906.34 2008.11 1907.6 2008.11 1911.38 2005.41 1913.89 2005.41 1916.41 2005.41 1927.74 2005.41 1929 2008.11 1929 2018.9 1929 2018.9 1929 2018.9 1929 2018.9 1929 2008.11 1929 2005.41 1940.33 2005.41ZM1929 2002.71C1926.48 2001.36 1922.71 2000.01 1916.41 2000.01 1912.64 2000.01 1910.12 2000.01 1905.08 2002.71 1903.82 2004.06 1893.75 2013.5 1884.94 2020.25 1883.68 2021.6 1881.16 2021.6 1878.65 2021.6 1838.36 2004.06 1838.36 2004.06 1838.36 2004.06 1835.85 2004.06 1834.59 2001.36 1834.59 2000.01 1827.04 1954.13 1827.04 1954.13 1827.04 1954.13 1827.04 1951.43 1828.29 1948.73 1829.55 1947.38 1863.54 1917.69 1863.54 1917.69 1863.54 1917.69 1863.54 1917.69 1868.58 1912.29 1868.58 1912.29 1868.58 1912.29 1874.87 1906.89 1874.87 1906.89 1886.2 1897.45 1888.72 1893.4 1927.74 1893.4 1929 1893.4 1929 1893.4 1929 1893.4 1968.02 1893.4 1971.8 1897.45 1983.13 1906.89 1983.13 1906.89 1988.16 1912.29 1988.16 1912.29 1988.16 1912.29 1994.46 1917.69 1994.46 1917.69 2027.19 1947.38 2027.19 1947.38 2027.19 1947.38 2029.71 1948.73 2029.71 1950.08 2029.71 1952.78 2029.71 1952.78 2029.71 1952.78 2029.71 1954.13 2023.41 2000.01 2023.41 2000.01 2023.41 2000.01 2023.41 2001.36 2020.89 2004.06 2019.64 2004.06 1979.35 2021.6 1979.35 2021.6 1979.35 2021.6 1976.84 2021.6 1974.32 2021.6 1973.06 2020.25 1964.25 2013.5 1954.18 2004.06 1951.66 2002.71 1947.88 2000.01 1944.11 2000.01 1940.33 2000.01 1935.29 2000.01 1931.52 2001.36 1929 2002.71Z" fill="#810039" fill-rule="evenodd"/><path d="M1899.98 2083.38C1915.15 2079.33 1921.47 2048.31 1924 2032.12 1924 2037.52 1924 2088.77 1924 2096.86 1924 2104.95 1920.21 2109 1913.89 2107.65 1820.33 2095.51 1747 2006.5 1747 1904 1748.26 1974.13 1817.8 2094.16 1899.98 2083.38Z" fill="#E43B75" fill-rule="evenodd"/><path d="M1839.5 1729C1845.75 1729 1844.5 1733.05 1845.75 1754.63 1848.25 1776.21 1849.5 1803.19 1857 1826.12 1863.25 1849.05 1870.75 1869.28 1874.5 1877.37 1877 1886.81 1868.25 1900.3 1855.75 1909.74 1843.25 1920.54 1829.5 1932.67 1820.75 1939.42 1812 1944.81 1815.75 1950.21 1817 1961 1812 1940.77 1812 1935.37 1824.5 1927.28 1835.75 1917.84 1854.5 1900.3 1860.75 1885.47 1865.75 1870.63 1852 1840.95 1847 1819.37 1843.25 1797.79 1840.75 1758.67 1842 1747.88 1843.25 1737.09 1840.75 1729 1839.5 1729Z" fill="#F6C5CE" fill-rule="evenodd"/><path d="M1818 1741C1801.52 1751.81 1749.54 1815.35 1747 1887 1750.8 1862.67 1782.5 1773.44 1818 1741Z" fill="#FFFFFF" fill-rule="evenodd"/><path d="M1857 2024.36C1857 2024.36 1872.12 2029.82 1878.42 2031.18 1884.72 2032.55 1885.98 2032.55 1894.8 2025.73 1903.62 2018.91 1907.4 2012.09 1911.18 2010.73 1916.22 2008 1920 2009.36 1920 2009.36 1914.96 2010.73 1912.44 2014.82 1907.4 2020.27 1902.36 2027.09 1894.8 2036.64 1884.72 2038 1873.38 2038 1857 2024.36 1857 2024.36Z" fill="#FFFFFF" fill-rule="evenodd"/><path d="M2018.5 1729C2012.25 1729 2013.5 1733.05 2012.25 1754.63 2009.75 1776.21 2008.5 1803.19 2001 1826.12 1994.75 1849.05 1987.25 1869.28 1984.75 1877.37 1981 1886.81 1989.75 1900.3 2002.25 1909.74 2014.75 1920.54 2028.5 1932.67 2037.25 1939.42 2046 1944.81 2042.25 1950.21 2041 1961 2046 1940.77 2046 1935.37 2034.75 1927.28 2022.25 1917.84 2003.5 1900.3 1998.5 1885.47 1992.25 1870.63 2007.25 1840.95 2011 1819.37 2014.75 1797.79 2017.25 1758.67 2016 1747.88 2014.75 1737.09 2017.25 1729 2018.5 1729Z" fill="#FFFFFF" fill-rule="evenodd"/><path d="M2038.89 2051.33C2013.58 2074.27 1973.1 2102.6 1944 2108 2037.62 2095.86 2111 2006.81 2111 1904.26 2111 1904.26 2111 1896.17 2111 1886.72 2108.47 1815.21 2056.6 1751.79 2040.15 1741 2060.39 1767.99 2111 1827.35 2099.61 1933.94 2086.96 2006.81 2038.89 2051.33 2038.89 2051.33Z" fill="#E43B75" fill-rule="evenodd"/><path d="M2002 2024.36C2002 2024.36 1986.94 2029.82 1980.67 2031.18 1974.39 2032.55 1973.14 2032.55 1964.35 2025.73 1955.57 2018.91 1951.8 2012.09 1946.78 2010.73 1943.02 2008 1938 2009.36 1938 2009.36 1943.02 2010.73 1945.53 2014.82 1950.55 2020.27 1955.57 2027.09 1963.1 2036.64 1974.39 2038 1984.43 2038 2002 2024.36 2002 2024.36Z" fill="#FFFFFF" fill-rule="evenodd"/><path d="M1928.94 1702C1927.67 1702 1927.67 1702 1927.67 1702 1880.74 1702 1850.3 1714.11 1830 1724.87 1830 1724.87 1830 1724.87 1830 1724.87 1842.68 1718.15 1849.03 1723.53 1850.3 1732.95 1851.56 1739.68 1851.56 1776.01 1857.91 1809.65 1864.25 1839.25 1875.66 1866.16 1879.47 1878.27 1879.47 1879.62 1879.47 1880.96 1879.47 1882.31 1880.74 1882.31 1882.01 1882.31 1882.01 1880.96 1895.96 1871.54 1911.18 1876.93 1930.21 1875.58 1949.23 1875.58 1972.07 1874.24 1977.14 1885 1977.14 1882.31 1977.14 1880.96 1978.41 1878.27 1980.95 1866.16 1992.36 1839.25 1998.7 1809.65 2005.05 1782.74 2006.32 1754.48 2006.32 1741.02 2006.32 1741.02 2006.32 1741.02 2006.32 1741.02 2006.32 1739.68 2006.32 1739.68 2006.32 1739.68 2006.32 1738.33 2006.32 1738.33 2006.32 1738.33 2006.32 1736.99 2006.32 1736.99 2006.32 1736.99 2006.32 1735.64 2006.32 1735.64 2006.32 1735.64 2006.32 1735.64 2006.32 1734.29 2006.32 1734.29 2006.32 1734.29 2006.32 1734.29 2006.32 1732.95 2007.58 1731.6 2007.58 1731.6 2007.58 1730.26 2007.58 1730.26 2007.58 1730.26 2007.58 1730.26 2007.58 1728.91 2007.58 1728.91 2008.85 1727.57 2010.12 1723.53 2012.66 1722.18 2017.73 1722.18 2019 1720.84 2019 1720.84 2019 1720.84 1998.7 1711.42 1970.8 1702 1928.94 1702ZM1996.17 1765.24C1994.9 1786.77 1991.09 1824.45 1980.95 1844.63 1972.07 1864.82 1968.26 1863.47 1956.85 1863.47 1946.7 1863.47 1912.45 1863.47 1903.57 1862.13 1882.01 1858.09 1883.28 1823.1 1876.93 1797.54 1870.59 1770.62 1871.86 1738.33 1902.3 1731.6 1923.87 1727.57 1959.38 1727.57 1982.21 1731.6 1992.36 1735.64 1997.44 1745.06 1996.17 1765.24Z" fill="#D1005D" fill-rule="evenodd"/><path d="M1943.3 1717.34C1948.36 1718.69 1954.68 1718.69 1961 1720.03 1954.68 1718.69 1948.36 1718.69 1943.3 1717.34ZM1873.76 1737.51C1885.14 1726.75 1914.22 1717.34 1943.3 1717.34 1909.16 1716 1872.49 1720.03 1851 1736.16 1852.26 1746.92 1852.26 1779.18 1858.59 1810.1 1864.91 1839.67 1876.29 1866.56 1880.08 1878.66 1880.08 1878.66 1880.08 1880 1880.08 1880 1880.08 1880 1880.08 1880 1880.08 1880 1880.08 1880 1877.55 1857.15 1872.49 1830.26 1867.44 1803.38 1853.53 1754.98 1873.76 1737.51Z" fill="#AD004E" fill-rule="evenodd"/><path d="M1981 1845C1991.93 1823.51 1998 1773.81 1994.36 1755 1993.14 1764.4 1987.07 1824.85 1981 1845Z" fill="#FFFFFF" fill-rule="evenodd"/><path d="M1858.07 1809.67C1864.4 1839.33 1875.8 1866.29 1879.6 1878.43 1880.87 1882.47 1879.6 1886.52 1878.33 1889.21 1875.8 1895.95 1869.47 1904.04 1859.33 1913.48 1826.4 1943.14 1826.4 1943.14 1826.4 1943.14 1822.6 1945.83 1821.33 1949.88 1821.33 1953.92 1828.93 1999.76 1828.93 1999.76 1828.93 1999.76 1828.93 2003.8 1831.47 2007.85 1835.27 2009.19 1877.07 2025.37 1877.07 2025.37 1877.07 2025.37 1880.87 2026.72 1884.67 2026.72 1888.47 2024.02 1888.47 2024.02 1906.2 2007.85 1907.47 2007.85 1911.27 2005.15 1913.8 2005.15 1916.33 2005.15 1927.73 2005.15 1929 2007.85 1929 2018.63 1929 2029.42 1929 2102.22 1929 2102.22 1927.73 2110.3 1921.4 2113 1915.07 2113 1816.27 2100.87 1739 2010.54 1739 1902.69 1739 1829.89 1773.2 1766.53 1825.13 1728.79 1840.33 1718 1849.2 1722.04 1850.47 1732.83 1851.73 1739.57 1851.73 1775.97 1858.07 1809.67Z" stroke="#000000" stroke-width="4.0106" stroke-linecap="round" stroke-linejoin="round" stroke-miterlimit="10" fill="none" fill-rule="evenodd"/><path d="M1998.77 1809.67C1992.42 1839.33 1981.01 1866.29 1978.47 1878.43 1977.2 1882.47 1978.47 1886.52 1978.47 1889.21 1981.01 1895.95 1987.35 1904.04 1997.5 1913.48 2031.74 1943.14 2031.74 1943.14 2031.74 1943.14 2035.55 1945.83 2036.82 1949.88 2035.55 1953.92 2029.21 1999.76 2029.21 1999.76 2029.21 1999.76 2027.94 2003.8 2025.4 2007.85 2021.6 2009.19 1981.01 2025.37 1981.01 2025.37 1981.01 2025.37 1977.2 2026.72 1973.4 2026.72 1969.59 2024.02 1969.59 2024.02 1951.83 2007.85 1950.56 2007.85 1946.76 2005.15 1942.95 2005.15 1940.42 2005.15 1929 2005.15 1929 2007.85 1929 2018.63 1929 2029.42 1929 2102.22 1929 2102.22 1929 2110.3 1935.34 2113 1942.95 2113 2041.89 2100.87 2118 2010.54 2118 1902.69 2118 1829.89 2083.75 1766.53 2031.74 1728.79 2016.52 1718 2007.64 1722.04 2006.38 1732.83 2006.38 1739.57 2006.38 1775.97 1998.77 1809.67Z" stroke="#000000" stroke-width="4.0106" stroke-linecap="round" stroke-linejoin="round" stroke-miterlimit="10" fill="none" fill-rule="evenodd"/><path d="M1850.23 1732.97C1851.5 1739.7 1851.5 1776.05 1857.82 1809.71 1864.14 1839.33 1875.52 1866.26 1879.32 1878.38 1880.58 1882.42 1879.32 1886.46 1878.05 1889.15 1876.79 1894.54 1871.73 1901.27 1865.41 1908 1883.11 1893.19 1880.58 1887.8 1927.37 1887.8 1928.63 1887.8 1928.63 1887.8 1928.63 1887.8 1975.42 1887.8 1974.15 1893.19 1991.86 1908 1985.54 1901.27 1980.48 1894.54 1977.95 1889.15 1977.95 1886.46 1976.68 1882.42 1977.95 1878.38 1980.48 1866.26 1991.86 1839.33 1998.18 1809.71 2005.77 1776.05 2005.77 1739.7 2005.77 1732.97 2007.03 1723.54 2014.62 1718.16 2026 1724.89 2026 1724.89 2026 1724.89 2026 1724.89 2007.03 1714.12 1975.42 1702 1928.63 1702 1927.37 1702 1927.37 1702 1927.37 1702 1880.58 1702 1850.23 1714.12 1830 1724.89 1830 1724.89 1830 1724.89 1830 1724.89 1842.65 1718.16 1848.97 1723.54 1850.23 1732.97Z" stroke="#000000" stroke-width="4.0106" stroke-linecap="round" stroke-linejoin="round" stroke-miterlimit="10" fill="none" fill-rule="evenodd"/></g></svg>