<svg width="394" height="393" xmlns="http://www.w3.org/2000/svg" xmlns:xlink="http://www.w3.org/1999/xlink" xml:space="preserve" overflow="hidden"><g transform="translate(-3046 -537)"><path d="M3216.82 628.601C3209.21 656.89 3207.94 686.526 3205.41 698.65 3204.14 704.038 3201.6 706.732 3200.33 708.079 3195.26 713.467 3186.38 717.509 3172.42 721.55 3130.56 730.979 3130.56 730.979 3130.56 730.979 3126.75 732.327 3122.95 735.021 3121.68 739.062 3108.99 783.516 3108.99 783.516 3108.99 783.516 3107.73 787.557 3107.73 791.598 3111.53 795.639 3140.71 829.316 3140.71 829.316 3140.71 829.316 3143.25 833.358 3147.05 834.705 3150.86 833.358 3150.86 833.358 3173.69 827.969 3176.23 827.969 3180.03 827.969 3182.57 829.316 3185.11 830.663 3195.26 836.052 3193.99 838.746 3190.18 848.175 3185.11 857.605 3153.39 923.612 3153.39 923.612 3149.59 929 3143.25 929 3136.9 924.959 3054.45 867.034 3024 749.839 3070.94 654.196 3101.38 589.536 3158.47 549.124 3221.9 539.694 3239.66 537 3246 546.43 3242.19 555.859 3239.66 562.594 3224.43 594.924 3216.82 628.601Z" fill="#3085B5" fill-rule="evenodd"/><path d="M3269.18 628.601C3275.52 656.89 3278.06 686.526 3279.33 698.65 3280.59 704.038 3283.13 706.732 3284.4 708.079 3290.74 713.467 3299.62 717.509 3312.31 721.55 3355.44 730.979 3355.44 730.979 3355.44 730.979 3359.25 732.327 3363.05 735.021 3364.32 739.062 3377.01 783.516 3377.01 783.516 3377.01 783.516 3378.27 787.557 3377.01 791.598 3374.47 795.639 3345.29 829.316 3345.29 829.316 3345.29 829.316 3342.75 833.358 3338.95 834.705 3335.14 833.358 3335.14 833.358 3312.31 827.969 3309.77 827.969 3305.97 827.969 3303.43 829.316 3300.89 830.663 3290.74 836.052 3290.74 838.746 3295.82 848.175 3300.89 857.605 3331.34 923.612 3331.34 923.612 3335.14 929 3342.75 929 3347.83 924.959 3431.55 867.034 3462 749.839 3415.06 654.196 3384.62 589.536 3326.26 549.124 3264.1 539.694 3245.07 537 3240 546.43 3243.81 555.859 3246.34 562.594 3261.57 594.924 3269.18 628.601Z" fill="#3085B5" fill-rule="evenodd"/><path d="M3331.2 923.333C3331.2 923.333 3300.79 858 3295.72 848.667 3294.45 844.667 3293.19 842 3293.19 839.333 3286.85 830 3275.45 826 3242.5 826 3242.5 826 3242.5 826 3242.5 826 3208.29 826 3196.88 830 3191.82 840.667 3191.82 842 3191.82 842 3191.82 842 3191.82 843.333 3190.55 846 3189.28 848.667 3184.21 858 3152.53 923.333 3152.53 923.333 3152.53 924.667 3151.27 924.667 3150 926 3170.27 916.667 3199.42 907.333 3242.5 907.333 3242.5 907.333 3242.5 907.333 3242.5 907.333 3285.58 907.333 3314.73 916.667 3335 926 3333.73 924.667 3332.47 924.667 3331.2 923.333Z" fill="#006195" fill-rule="evenodd"/><path d="M3284.74 708.311C3283.48 706.966 3280.96 704.277 3279.7 698.899 3278.43 686.798 3275.91 657.218 3269.61 628.983 3262.04 595.37 3246.91 563.101 3244.39 556.378 3243.13 555.034 3243.13 553.689 3243.13 551 3243.13 551 3243.13 551 3243.13 551 3243.13 553.689 3241.87 555.034 3241.87 556.378 3239.35 563.101 3224.22 595.37 3216.65 628.983 3209.09 657.218 3207.83 686.798 3205.3 698.899 3204.04 704.277 3201.52 706.966 3200.26 708.311 3200.26 709.655 3199 709.655 3199 711 3199 711 3199 711 3199 711 3205.3 705.622 3217.91 702.933 3243.13 702.933 3243.13 702.933 3243.13 702.933 3243.13 702.933 3267.09 702.933 3278.43 704.277 3286 709.655 3286 709.655 3286 709.655 3286 709.655 3286 709.655 3284.74 708.311 3284.74 708.311Z" fill="#006195" fill-rule="evenodd"/><path d="M3376.74 783.971C3364.12 739.437 3364.12 739.437 3364.12 739.437 3362.86 735.388 3359.07 732.689 3355.29 731.34 3312.39 721.893 3312.39 721.893 3312.39 721.893 3299.78 717.845 3292.21 715.146 3285.9 709.747 3285.9 709.747 3285.9 709.747 3285.9 709.747 3278.33 704.349 3266.97 703 3243 703 3243 703 3243 703 3243 703 3217.77 703 3205.15 705.699 3198.84 711.097 3198.84 711.097 3198.84 711.097 3198.84 711.097 3192.53 715.146 3183.7 719.194 3172.35 721.893 3130.71 731.34 3130.71 731.34 3130.71 731.34 3126.93 732.689 3123.14 735.388 3121.88 739.437 3109.26 783.971 3109.26 783.971 3109.26 783.971 3108 788.019 3108 792.068 3111.78 796.116 3140.8 829.854 3140.8 829.854 3140.8 829.854 3143.33 833.903 3147.11 835.252 3150.9 833.903 3150.9 833.903 3173.61 828.505 3176.13 828.505 3179.92 828.505 3182.44 829.854 3184.96 831.204 3191.27 835.252 3193.79 837.951 3192.53 842 3192.53 842 3192.53 842 3192.53 842 3192.53 840.65 3192.53 840.65 3192.53 840.65 3197.58 829.854 3208.93 825.806 3243 825.806 3243 825.806 3243 825.806 3243 825.806 3275.8 825.806 3287.16 829.854 3293.47 839.301 3293.47 839.301 3293.47 840.65 3293.47 840.65 3292.21 836.602 3294.73 833.903 3301.04 831.204 3303.56 829.854 3306.08 828.505 3309.87 828.505 3312.39 828.505 3335.1 833.903 3335.1 833.903 3338.89 835.252 3342.67 833.903 3345.2 829.854 3374.21 796.116 3374.21 796.116 3374.21 796.116 3376.74 792.068 3378 788.019 3376.74 783.971Z" fill="#003E61" fill-rule="evenodd"/><path d="M3376.74 783.971C3364.12 739.437 3364.12 739.437 3364.12 739.437 3362.86 735.388 3359.07 732.689 3355.29 731.34 3312.39 721.893 3312.39 721.893 3312.39 721.893 3299.78 717.845 3292.21 715.146 3285.9 709.747 3285.9 709.747 3285.9 709.747 3285.9 709.747 3278.33 704.349 3266.97 703 3243 703 3243 703 3243 703 3243 703 3217.77 703 3205.15 705.699 3198.84 711.097 3198.84 711.097 3198.84 711.097 3198.84 711.097 3192.53 715.146 3183.7 719.194 3172.35 721.893 3130.71 731.34 3130.71 731.34 3130.71 731.34 3126.93 732.689 3123.14 735.388 3121.88 739.437 3109.26 783.971 3109.26 783.971 3109.26 783.971 3108 788.019 3108 792.068 3111.78 796.116 3140.8 829.854 3140.8 829.854 3140.8 829.854 3143.33 833.903 3147.11 835.252 3150.9 833.903 3150.9 833.903 3173.61 828.505 3176.13 828.505 3179.92 828.505 3182.44 829.854 3184.96 831.204 3191.27 835.252 3193.79 837.951 3192.53 842 3192.53 842 3192.53 842 3192.53 842 3192.53 840.65 3192.53 840.65 3192.53 840.65 3197.58 829.854 3208.93 825.806 3243 825.806 3243 825.806 3243 825.806 3243 825.806 3275.8 825.806 3287.16 829.854 3293.47 839.301 3293.47 839.301 3293.47 840.65 3293.47 840.65 3292.21 836.602 3294.73 833.903 3301.04 831.204 3303.56 829.854 3306.08 828.505 3309.87 828.505 3312.39 828.505 3335.1 833.903 3335.1 833.903 3338.89 835.252 3342.67 833.903 3345.2 829.854 3374.21 796.116 3374.21 796.116 3374.21 796.116 3376.74 792.068 3378 788.019 3376.74 783.971Z" fill="#003E61" fill-rule="evenodd"/><path d="M3364.12 739.437C3362.86 735.388 3359.07 732.689 3355.29 731.34 3312.39 721.893 3312.39 721.893 3312.39 721.893 3299.78 717.845 3292.21 715.146 3285.9 709.747 3285.9 709.747 3285.9 709.747 3285.9 709.747 3278.33 704.349 3266.97 703 3243 703 3243 703 3243 703 3243 703 3217.77 703 3205.15 705.699 3198.84 711.097 3198.84 711.097 3198.84 711.097 3198.84 711.097 3192.53 715.146 3183.7 719.194 3172.35 721.893 3130.71 731.34 3130.71 731.34 3130.71 731.34 3126.93 732.689 3123.14 735.388 3121.88 739.437 3109.26 783.971 3109.26 783.971 3109.26 783.971 3108 788.019 3108 792.068 3111.78 796.116 3140.8 829.854 3140.8 829.854 3140.8 829.854 3143.33 833.903 3147.11 835.252 3150.9 833.903 3150.9 833.903 3173.61 828.505 3176.13 828.505 3179.92 828.505 3182.44 829.854 3184.96 831.204 3191.27 835.252 3193.79 837.951 3192.53 842 3192.53 842 3192.53 842 3192.53 842 3192.53 840.65 3192.53 840.65 3192.53 840.65 3197.58 829.854 3208.93 825.806 3243 825.806 3243 825.806 3243 825.806 3243 825.806 3275.8 825.806 3287.16 829.854 3293.47 839.301 3293.47 839.301 3293.47 840.65 3293.47 840.65 3292.21 836.602 3294.73 833.903 3301.04 831.204 3303.56 829.854 3306.08 828.505 3309.87 828.505 3312.39 828.505 3335.1 833.903 3335.1 833.903 3338.89 835.252 3342.67 833.903 3345.2 829.854 3374.21 796.116 3374.21 796.116 3374.21 796.116 3376.74 792.068 3378 788.019 3376.74 783.971L3364.12 739.437ZM3369.17 790.718C3340.15 824.456 3340.15 824.456 3340.15 824.456 3340.15 824.456 3337.63 825.806 3336.36 825.806 3313.65 820.408 3311.13 820.408 3309.87 820.408 3304.82 820.408 3301.04 821.757 3297.25 823.107 3295.99 824.456 3294.73 825.806 3292.21 827.155 3282.11 819.058 3266.97 817.709 3243 817.709 3243 817.709 3243 817.709 3243 817.709 3219.03 817.709 3203.89 819.058 3193.79 827.155 3191.27 825.806 3190.01 824.456 3187.49 823.107 3184.96 821.757 3181.18 820.408 3174.87 820.408 3174.87 820.408 3172.35 820.408 3149.64 825.806 3147.11 825.806 3145.85 824.456 3145.85 824.456 3116.83 790.718 3116.83 790.718 3116.83 790.718 3115.57 789.369 3115.57 788.019 3115.57 786.67 3129.45 742.136 3129.45 742.136 3129.45 742.136 3129.45 740.786 3130.71 739.437 3131.97 739.437 3174.87 729.99 3174.87 729.99 3174.87 729.99 3187.49 725.942 3196.32 721.893 3202.63 717.845 3207.67 713.796 3220.29 711.097 3243 711.097 3243 711.097 3243 711.097 3243 711.097 3265.71 711.097 3275.8 712.447 3282.11 716.495 3280.85 715.146 3280.85 715.146 3280.85 715.146 3287.16 721.893 3297.25 725.942 3311.13 729.99 3354.03 739.437 3354.03 739.437 3354.03 739.437 3355.29 739.437 3356.55 740.786 3356.55 742.136 3369.17 786.67 3369.17 786.67 3369.17 786.67 3370.43 788.019 3370.43 789.369 3369.17 790.718Z" fill="#002540" fill-rule="evenodd"/><path d="M3136.91 891.244C3152.12 896.645 3172.4 870.99 3180 857.487 3177.47 862.888 3155.92 908.797 3152.12 915.548 3149.59 922.299 3144.52 925 3139.45 919.599 3060.88 864.239 3033 750.817 3076.09 659 3046.94 721.112 3059.61 861.538 3136.91 891.244Z" fill="#006195" fill-rule="evenodd"/><path d="M3231.67 547C3238 551.027 3235.47 553.712 3227.88 573.849 3220.29 592.644 3210.16 618.151 3206.37 642.315 3203.84 665.137 3201.31 687.959 3201.31 696.014 3200.04 705.411 3186.12 713.466 3170.94 716.151 3154.49 720.178 3138.04 724.205 3127.92 725.548 3116.53 726.89 3117.8 732.26 3114 743 3117.8 721.52 3120.33 717.493 3135.51 716.151 3149.43 713.466 3173.47 708.096 3184.86 696.014 3196.24 685.274 3196.24 651.712 3201.31 631.575 3207.63 610.096 3221.55 575.192 3226.61 565.794 3231.67 556.397 3234.2 548.342 3231.67 547Z" fill="#D0DBE9" fill-rule="evenodd"/><path d="M3207 548C3188.02 549.338 3114.63 581.451 3083 643 3096.92 622.93 3161.45 560.042 3207 548Z" fill="#FFFFFF" fill-rule="evenodd"/><path d="M3124 819C3124 819 3134.12 830.864 3139.18 834.818 3144.24 838.773 3145.51 838.773 3156.9 837.455 3167.02 836.136 3173.35 832.182 3178.41 832.182 3183.47 832.182 3186 836.136 3186 836.136 3182.2 834.818 3177.14 836.136 3170.82 840.091 3163.22 842.727 3153.1 848 3142.98 842.727 3132.86 838.773 3124 819 3124 819Z" fill="#FFFFFF" fill-rule="evenodd"/><path d="M3254.58 548C3247 552.027 3250.79 554.712 3258.36 574.849 3265.94 594.986 3276.04 619.151 3279.83 643.315 3282.35 666.137 3284.88 688.959 3286.14 697.014 3286.14 706.411 3300.03 714.466 3316.44 717.151 3331.6 719.836 3348.01 725.205 3359.37 726.548 3369.47 727.89 3368.21 733.26 3372 744 3368.21 722.52 3365.69 718.493 3351.8 715.808 3336.65 714.466 3312.66 709.096 3301.29 697.014 3289.93 686.274 3289.93 652.712 3284.88 632.575 3279.83 611.096 3264.68 576.192 3259.63 566.794 3254.58 557.397 3252.05 549.342 3254.58 548Z" fill="#FFFFFF" fill-rule="evenodd"/><path d="M3406.61 825.304C3395.26 859 3370.04 902.13 3347.35 921 3425.52 865.739 3452 751.174 3409.13 659.522 3409.13 659.522 3405.35 652.783 3401.57 644.696 3370.04 582.696 3296.91 550.348 3278 549 3307 562.478 3376.35 592.13 3411.65 691.87 3431.83 763.304 3406.61 825.304 3406.61 825.304Z" fill="#006195" fill-rule="evenodd"/><path d="M3363 819C3363 819 3351.48 832.478 3346.36 836.522 3341.24 840.565 3339.96 840.565 3329.72 839.218 3318.2 837.87 3313.08 833.826 3307.96 833.826 3302.84 833.826 3299 837.87 3299 837.87 3304.12 836.522 3307.96 837.87 3315.64 841.913 3322.04 844.609 3333.56 850 3343.8 844.609 3354.04 840.565 3363 819 3363 819Z" fill="#FFFFFF" fill-rule="evenodd"/><path d="M3284.74 708.311C3283.48 706.966 3280.96 704.277 3279.7 698.899 3278.43 686.798 3275.91 657.218 3269.61 628.983 3267.09 616.882 3263.3 604.781 3259.52 594.025 3259.52 594.025 3259.52 592.681 3258.26 592.681 3257 588.647 3255.74 585.958 3254.48 581.924 3254.48 581.924 3254.48 581.924 3254.48 581.924 3254.48 580.58 3254.48 580.58 3253.22 579.235 3253.22 579.235 3253.22 579.235 3253.22 579.235 3249.43 568.479 3245.65 559.067 3244.39 556.378 3243.13 555.034 3243.13 553.689 3243.13 551 3243.13 551 3243.13 551 3243.13 551 3243.13 553.689 3241.87 555.034 3241.87 556.378 3239.35 563.101 3224.22 595.37 3216.65 628.983 3209.09 657.218 3207.83 686.798 3205.3 698.899 3204.04 704.277 3201.52 706.966 3200.26 708.311 3200.26 709.655 3199 709.655 3199 711 3199 711 3199 711 3199 711 3205.3 705.622 3217.91 702.933 3243.13 702.933 3243.13 702.933 3243.13 702.933 3243.13 702.933 3258.26 702.933 3268.35 704.277 3275.91 705.622 3273.39 704.277 3272.13 702.933 3270.87 701.588 3253.22 688.143 3224.22 692.176 3224.22 676.042 3224.22 659.908 3230.52 627.639 3236.83 608.815 3239.35 603.437 3241.87 599.403 3244.39 596.714 3253.22 594.025 3262.04 619.571 3265.83 649.151 3269.61 673.353 3272.13 696.21 3278.43 705.622 3280.96 706.966 3283.48 708.311 3286 709.655 3286 709.655 3286 709.655 3286 709.655 3286 709.655 3284.74 708.311 3284.74 708.311Z" fill="#00507C" fill-rule="evenodd"/><path d="M3255 615C3258.92 623.105 3265.46 652.825 3266.77 669.035 3268.08 685.246 3272 692 3272 692 3264.15 683.895 3262.85 669.035 3261.54 658.228 3258.92 647.421 3257.62 624.456 3255 615Z" fill="#FFFFFF" fill-rule="evenodd"/><path d="M3235.09 702.933C3236.33 702.933 3236.33 702.933 3236.33 701.588 3232.6 700.244 3221.4 698.899 3216.42 696.21 3211.44 693.521 3216.42 662.597 3218.91 645.118 3221.4 627.639 3228.87 600.748 3233.84 588.647 3240.07 576.546 3247.53 573.857 3255 585.958 3251.27 575.202 3251.27 575.202 3251.27 575.202 3247.53 565.79 3245.04 559.067 3243.8 556.378 3242.56 555.034 3242.56 553.689 3242.56 551 3242.56 551 3242.56 551 3242.56 551 3242.56 553.689 3241.31 555.034 3241.31 556.378 3238.82 563.101 3223.89 595.37 3216.42 628.983 3208.96 657.218 3207.71 686.798 3205.22 698.899 3203.98 704.277 3201.49 706.966 3200.24 708.311 3200.24 709.655 3199 709.655 3199 711 3199 711 3199 711 3199 711 3205.22 705.622 3215.18 702.933 3235.09 702.933Z" fill="#003E61" fill-rule="evenodd"/><path d="M3191.82 841.677C3191.82 843.016 3190.55 845.692 3189.28 848.369 3184.21 857.739 3152.53 923.323 3152.53 923.323 3152.53 924.662 3151.27 924.662 3150 926 3170.27 916.631 3199.42 907.262 3242.5 907.262 3242.5 907.262 3242.5 907.262 3242.5 907.262 3285.58 907.262 3314.73 916.631 3335 926 3333.73 924.662 3332.47 924.662 3331.2 923.323 3331.2 923.323 3300.79 857.739 3295.72 848.369 3294.45 844.354 3293.19 841.677 3293.19 839 3293.19 839 3293.19 857.739 3299.52 875.139 3304.59 892.539 3314.73 911.277 3299.52 904.585 3271.64 893.877 3207.02 899.231 3194.35 891.2 3181.68 883.169 3186.75 855.062 3191.82 840.339L3191.82 841.677Z" fill="#00507C" fill-rule="evenodd"/><path d="M3195 847C3198.75 837.667 3205 833.667 3220 833.667 3235 832.333 3266.25 831 3275 835 3258.75 833.667 3201.25 836.333 3195 847Z" fill="#FFFFFF" fill-rule="evenodd"/><path d="M3236.2 906.096C3219.72 903.442 3196.9 903.442 3182.96 902.115 3167.75 899.462 3177.89 872.923 3185.49 857 3184.23 858.327 3184.23 858.327 3184.23 858.327 3174.08 878.231 3152.54 923.346 3152.54 923.346 3152.54 924.673 3151.27 924.673 3150 926 3169.01 916.712 3198.17 907.423 3240 907.423 3238.73 906.096 3237.46 906.096 3236.2 906.096Z" fill="#003E61" fill-rule="evenodd"/><path d="M3316.04 893C3318.65 898.333 3319.96 907.667 3316.04 911.667 3312.13 914.333 3306.91 913 3303 915.667 3308.22 915.667 3312.13 917 3316.04 918.333 3321.26 919.667 3327.78 923.667 3333 925 3330.39 919.667 3325.17 905 3319.96 901" fill="#003E61" fill-rule="evenodd"/><path d="M3216.82 628.601C3209.21 656.89 3207.94 686.526 3205.41 698.65 3204.14 704.038 3201.6 706.732 3200.33 708.079 3195.26 713.467 3186.38 717.509 3172.42 721.55 3130.56 730.979 3130.56 730.979 3130.56 730.979 3126.75 732.327 3122.95 735.021 3121.68 739.062 3108.99 783.516 3108.99 783.516 3108.99 783.516 3107.73 787.557 3107.73 791.598 3111.53 795.639 3140.71 829.316 3140.71 829.316 3140.71 829.316 3143.25 833.358 3147.05 834.705 3150.86 833.358 3150.86 833.358 3173.69 827.969 3176.23 827.969 3180.03 827.969 3182.57 829.316 3185.11 830.663 3195.26 836.052 3193.99 838.746 3190.18 848.175 3185.11 857.605 3153.39 923.612 3153.39 923.612 3149.59 929 3143.25 929 3136.9 924.959 3054.45 867.034 3024 749.839 3070.94 654.196 3101.38 589.536 3158.47 549.124 3221.9 539.694 3239.66 537 3246 546.43 3242.19 555.859 3239.66 562.594 3224.43 594.924 3216.82 628.601Z" stroke="#000000" stroke-width="4.0106" stroke-linecap="round" stroke-linejoin="round" stroke-miterlimit="10" fill="none" fill-rule="evenodd"/><path d="M3269.18 628.601C3275.52 656.89 3278.06 686.526 3279.33 698.65 3280.59 704.038 3283.13 706.732 3284.4 708.079 3290.74 713.467 3299.62 717.509 3312.31 721.55 3355.44 730.979 3355.44 730.979 3355.44 730.979 3359.25 732.327 3363.05 735.021 3364.32 739.062 3377.01 783.516 3377.01 783.516 3377.01 783.516 3378.27 787.557 3377.01 791.598 3374.47 795.639 3345.29 829.316 3345.29 829.316 3345.29 829.316 3342.75 833.358 3338.95 834.705 3335.14 833.358 3335.14 833.358 3312.31 827.969 3309.77 827.969 3305.97 827.969 3303.43 829.316 3300.89 830.663 3290.74 836.052 3290.74 838.746 3295.82 848.175 3300.89 857.605 3331.34 923.612 3331.34 923.612 3335.14 929 3342.75 929 3347.83 924.959 3431.55 867.034 3462 749.839 3415.06 654.196 3384.62 589.536 3326.26 549.124 3264.1 539.694 3245.07 537 3240 546.43 3243.81 555.859 3246.34 562.594 3261.57 594.924 3269.18 628.601Z" stroke="#000000" stroke-width="4.0106" stroke-linecap="round" stroke-linejoin="round" stroke-miterlimit="10" fill="none" fill-rule="evenodd"/><path d="M3331.2 923.333C3331.2 923.333 3300.79 858 3295.72 848.667 3294.45 844.667 3293.19 842 3293.19 839.333 3286.85 830 3275.45 826 3242.5 826 3242.5 826 3242.5 826 3242.5 826 3208.29 826 3196.88 830 3191.82 840.667 3191.82 842 3191.82 842 3191.82 842 3191.82 843.333 3190.55 846 3189.28 848.667 3184.21 858 3152.53 923.333 3152.53 923.333 3152.53 924.667 3151.27 924.667 3150 926 3170.27 916.667 3199.42 907.333 3242.5 907.333 3242.5 907.333 3242.5 907.333 3242.5 907.333 3285.58 907.333 3314.73 916.667 3335 926 3333.73 924.667 3332.47 924.667 3331.2 923.333Z" stroke="#000000" stroke-width="4.0106" stroke-linecap="round" stroke-linejoin="round" stroke-miterlimit="10" fill="none" fill-rule="evenodd"/><path d="M3284.74 708.311C3283.48 706.966 3280.96 704.277 3279.7 698.899 3278.43 686.798 3275.91 657.218 3269.61 628.983 3262.04 595.37 3246.91 563.101 3244.39 556.378 3243.13 555.034 3243.13 553.689 3243.13 551 3243.13 551 3243.13 551 3243.13 551 3243.13 553.689 3241.87 555.034 3241.87 556.378 3239.35 563.101 3224.22 595.37 3216.65 628.983 3209.09 657.218 3207.83 686.798 3205.3 698.899 3204.04 704.277 3201.52 706.966 3200.26 708.311 3200.26 709.655 3199 709.655 3199 711 3199 711 3199 711 3199 711 3205.3 705.622 3217.91 702.933 3243.13 702.933 3243.13 702.933 3243.13 702.933 3243.13 702.933 3267.09 702.933 3278.43 704.277 3286 709.655 3286 709.655 3286 709.655 3286 709.655 3286 709.655 3284.74 708.311 3284.74 708.311Z" stroke="#000000" stroke-width="4.0106" stroke-linecap="round" stroke-linejoin="round" stroke-miterlimit="10" fill="none" fill-rule="evenodd"/></g></svg>