<svg width="392" height="392" xmlns="http://www.w3.org/2000/svg" xmlns:xlink="http://www.w3.org/1999/xlink" xml:space="preserve" overflow="hidden"><g transform="translate(-2259 -1712)"><path d="M2427.95 1802.6C2420.38 1830.89 2419.11 1860.53 2416.59 1872.65 2416.59 1878.04 2412.8 1880.73 2411.54 1882.08 2406.49 1887.47 2397.65 1891.51 2385.02 1895.55 2342.08 1904.98 2342.08 1904.98 2342.08 1904.98 2338.29 1906.33 2334.5 1909.02 2333.24 1913.06 2320.61 1957.52 2320.61 1957.52 2320.61 1957.52 2319.35 1961.56 2319.35 1965.6 2323.14 1969.64 2352.18 2003.32 2352.18 2003.32 2352.18 2003.32 2354.71 2007.36 2358.5 2008.7 2362.29 2007.36 2362.29 2007.36 2385.02 2001.97 2387.54 2001.97 2391.33 2001.97 2393.86 2003.32 2396.38 2004.66 2406.49 2010.05 2405.22 2012.75 2401.43 2022.18 2396.38 2031.6 2364.81 2097.61 2364.81 2097.61 2361.02 2103 2354.71 2103 2348.39 2098.96 2266.31 2041.03 2236 1923.84 2282.73 1828.2 2313.03 1763.54 2369.86 1723.12 2433.01 1713.69 2450.69 1711 2457 1720.43 2453.21 1729.86 2450.69 1736.59 2435.53 1768.92 2427.95 1802.6Z" fill="#EF96AB" fill-rule="evenodd"/><path d="M2481.05 1802.6C2488.62 1830.89 2489.89 1860.53 2492.41 1872.65 2492.41 1878.04 2494.94 1880.73 2496.2 1882.08 2502.51 1887.47 2511.35 1891.51 2523.98 1895.55 2566.92 1904.98 2566.92 1904.98 2566.92 1904.98 2570.71 1906.33 2574.5 1909.02 2575.76 1913.06 2588.39 1957.52 2588.39 1957.52 2588.39 1957.52 2589.65 1961.56 2588.39 1965.6 2585.86 1969.64 2556.82 2003.32 2556.82 2003.32 2556.82 2003.32 2554.29 2007.36 2550.5 2008.7 2546.71 2007.36 2546.71 2007.36 2523.98 2001.97 2521.46 2001.97 2517.67 2001.97 2515.14 2003.32 2512.62 2004.66 2502.51 2010.05 2502.51 2012.75 2507.57 2022.18 2512.62 2031.6 2542.93 2097.61 2542.93 2097.61 2546.71 2103 2554.29 2103 2559.34 2098.96 2642.69 2041.03 2673 1923.84 2626.27 1828.2 2595.97 1763.54 2539.14 1723.12 2475.99 1713.69 2457.05 1711 2452 1720.43 2455.79 1729.86 2458.31 1736.59 2473.47 1768.92 2481.05 1802.6Z" fill="#EF96AB" fill-rule="evenodd"/><path d="M2543.2 2097.31C2543.2 2097.31 2512.79 2031.32 2507.72 2021.89 2506.45 2017.85 2505.18 2015.16 2505.18 2012.47 2498.85 2003.04 2487.45 1999 2454.5 1999 2454.5 1999 2454.5 1999 2454.5 1999 2420.29 1999 2408.88 2003.04 2403.81 2013.81 2403.81 2015.16 2403.81 2015.16 2403.81 2015.16 2403.81 2016.51 2402.55 2019.2 2401.28 2021.89 2396.21 2031.32 2364.53 2097.31 2364.53 2097.31 2364.53 2098.65 2363.27 2098.65 2362 2100 2382.27 2090.57 2411.42 2081.15 2454.5 2081.15 2454.5 2081.15 2454.5 2081.15 2454.5 2081.15 2497.58 2081.15 2526.73 2090.57 2547 2100 2545.73 2098.65 2544.47 2098.65 2543.2 2097.31Z" fill="#E43B75" fill-rule="evenodd"/><path d="M2495.74 1882.29C2494.48 1880.94 2491.96 1878.24 2491.96 1872.82 2489.43 1860.65 2488.17 1830.88 2480.61 1802.47 2473.04 1768.65 2457.91 1736.18 2455.39 1729.41 2454.13 1728.06 2454.13 1726.71 2454.13 1724 2454.13 1724 2454.13 1724 2454.13 1724 2454.13 1726.71 2452.87 1728.06 2452.87 1729.41 2450.35 1736.18 2435.22 1768.65 2427.65 1802.47 2420.09 1830.88 2418.83 1860.65 2416.3 1872.82 2416.3 1878.24 2412.52 1880.94 2411.26 1882.29 2411.26 1883.65 2410 1883.65 2410 1885 2410 1885 2410 1885 2410 1885 2416.3 1879.59 2428.91 1876.88 2454.13 1876.88 2454.13 1876.88 2454.13 1876.88 2454.13 1876.88 2478.09 1876.88 2489.43 1878.24 2497 1883.65 2497 1883.65 2497 1883.65 2497 1883.65 2497 1883.65 2497 1882.29 2495.74 1882.29Z" fill="#E43B75" fill-rule="evenodd"/><path d="M2588.73 1957.55C2576.07 1912.7 2576.07 1912.7 2576.07 1912.7 2574.8 1908.62 2571 1905.9 2567.21 1904.54 2524.15 1895.03 2524.15 1895.03 2524.15 1895.03 2512.75 1890.95 2503.89 1888.23 2497.56 1882.8 2497.56 1882.8 2497.56 1882.8 2497.56 1882.8 2489.96 1877.36 2478.56 1876 2454.5 1876 2454.5 1876 2454.5 1876 2454.5 1876 2429.17 1876 2416.51 1878.72 2410.18 1884.16 2410.18 1884.16 2410.18 1884.16 2410.18 1884.16 2403.85 1888.23 2394.98 1892.31 2384.85 1895.03 2341.79 1904.54 2341.79 1904.54 2341.79 1904.54 2338 1905.9 2334.2 1908.62 2332.93 1912.7 2320.27 1957.55 2320.27 1957.55 2320.27 1957.55 2319 1961.63 2319 1965.71 2322.8 1969.79 2351.93 2003.77 2351.93 2003.77 2351.93 2003.77 2354.46 2007.84 2358.26 2009.2 2362.06 2007.84 2362.06 2007.84 2384.85 2002.41 2387.38 2002.41 2391.18 2002.41 2393.72 2003.77 2396.25 2005.13 2403.85 2009.2 2405.11 2011.92 2403.85 2016 2403.85 2016 2403.85 2016 2403.85 2016 2403.85 2014.64 2403.85 2014.64 2403.85 2014.64 2408.91 2003.77 2420.31 1999.69 2454.5 1999.69 2454.5 1999.69 2454.5 1999.69 2454.5 1999.69 2487.43 1999.69 2498.82 2003.77 2505.15 2013.28 2505.15 2013.28 2505.15 2014.64 2505.15 2014.64 2503.89 2010.56 2506.42 2007.84 2512.75 2005.13 2515.29 2003.77 2517.82 2002.41 2521.62 2002.41 2524.15 2002.41 2546.94 2007.84 2546.94 2007.84 2550.74 2009.2 2554.54 2007.84 2557.07 2003.77 2586.2 1969.79 2586.2 1969.79 2586.2 1969.79 2588.73 1965.71 2590 1961.63 2588.73 1957.55Z" fill="#AD004E" fill-rule="evenodd"/><path d="M2588.73 1957.55C2576.07 1912.7 2576.07 1912.7 2576.07 1912.7 2574.8 1908.62 2571 1905.9 2567.21 1904.54 2524.15 1895.03 2524.15 1895.03 2524.15 1895.03 2512.75 1890.95 2503.89 1888.23 2497.56 1882.8 2497.56 1882.8 2497.56 1882.8 2497.56 1882.8 2489.96 1877.36 2478.56 1876 2454.5 1876 2454.5 1876 2454.5 1876 2454.5 1876 2429.17 1876 2416.51 1878.72 2410.18 1884.16 2410.18 1884.16 2410.18 1884.16 2410.18 1884.16 2403.85 1888.23 2394.98 1892.31 2384.85 1895.03 2341.79 1904.54 2341.79 1904.54 2341.79 1904.54 2338 1905.9 2334.2 1908.62 2332.93 1912.7 2320.27 1957.55 2320.27 1957.55 2320.27 1957.55 2319 1961.63 2319 1965.71 2322.8 1969.79 2351.93 2003.77 2351.93 2003.77 2351.93 2003.77 2354.46 2007.84 2358.26 2009.2 2362.06 2007.84 2362.06 2007.84 2384.85 2002.41 2387.38 2002.41 2391.18 2002.41 2393.72 2003.77 2396.25 2005.13 2403.85 2009.2 2405.11 2011.92 2403.85 2016 2403.85 2016 2403.85 2016 2403.85 2016 2403.85 2014.64 2403.85 2014.64 2403.85 2014.64 2408.91 2003.77 2420.31 1999.69 2454.5 1999.69 2454.5 1999.69 2454.5 1999.69 2454.5 1999.69 2487.43 1999.69 2498.82 2003.77 2505.15 2013.28 2505.15 2013.28 2505.15 2014.64 2505.15 2014.64 2503.89 2010.56 2506.42 2007.84 2512.75 2005.13 2515.29 2003.77 2517.82 2002.41 2521.62 2002.41 2524.15 2002.41 2546.94 2007.84 2546.94 2007.84 2550.74 2009.2 2554.54 2007.84 2557.07 2003.77 2586.2 1969.79 2586.2 1969.79 2586.2 1969.79 2588.73 1965.71 2590 1961.63 2588.73 1957.55Z" fill="#AD004E" fill-rule="evenodd"/><path d="M2576.07 1912.7C2574.8 1908.62 2571 1905.9 2567.21 1904.54 2524.15 1895.03 2524.15 1895.03 2524.15 1895.03 2512.75 1890.95 2503.89 1888.23 2497.56 1882.8 2497.56 1882.8 2497.56 1882.8 2497.56 1882.8 2489.96 1877.36 2478.56 1876 2454.5 1876 2454.5 1876 2454.5 1876 2454.5 1876 2429.17 1876 2416.51 1878.72 2410.18 1884.16 2410.18 1884.16 2410.18 1884.16 2410.18 1884.16 2403.85 1888.23 2394.98 1892.31 2384.85 1895.03 2341.79 1904.54 2341.79 1904.54 2341.79 1904.54 2338 1905.9 2334.2 1908.62 2332.93 1912.7 2320.27 1957.55 2320.27 1957.55 2320.27 1957.55 2319 1961.63 2319 1965.71 2322.8 1969.79 2351.93 2003.77 2351.93 2003.77 2351.93 2003.77 2354.46 2007.84 2358.26 2009.2 2362.06 2007.84 2362.06 2007.84 2384.85 2002.41 2387.38 2002.41 2391.18 2002.41 2393.72 2003.77 2396.25 2005.13 2403.85 2009.2 2405.11 2011.92 2403.85 2016 2403.85 2016 2403.85 2016 2403.85 2016 2403.85 2014.64 2403.85 2014.64 2403.85 2014.64 2408.91 2003.77 2420.31 1999.69 2454.5 1999.69 2454.5 1999.69 2454.5 1999.69 2454.5 1999.69 2487.43 1999.69 2498.82 2003.77 2505.15 2013.28 2505.15 2013.28 2505.15 2014.64 2505.15 2014.64 2503.89 2010.56 2506.42 2007.84 2512.75 2005.13 2515.29 2003.77 2517.82 2002.41 2521.62 2002.41 2524.15 2002.41 2546.94 2007.84 2546.94 2007.84 2550.74 2009.2 2554.54 2007.84 2557.07 2003.77 2586.2 1969.79 2586.2 1969.79 2586.2 1969.79 2588.73 1965.71 2590 1961.63 2588.73 1957.55L2576.07 1912.7ZM2581.14 1964.35C2552.01 1998.33 2552.01 1998.33 2552.01 1998.33 2552.01 1998.33 2549.48 1999.69 2548.21 1999.69 2525.42 1994.25 2522.88 1994.25 2521.62 1994.25 2516.55 1994.25 2512.75 1995.61 2508.95 1996.97 2507.69 1998.33 2506.42 1999.69 2503.89 2001.05 2493.76 1992.89 2478.56 1991.53 2454.5 1991.53 2454.5 1991.53 2454.5 1991.53 2454.5 1991.53 2430.44 1991.53 2415.24 1992.89 2405.11 2001.05 2402.58 1999.69 2401.31 1998.33 2398.78 1996.97 2396.25 1995.61 2392.45 1994.25 2386.12 1994.25 2386.12 1994.25 2383.58 1994.25 2360.79 1999.69 2359.52 1999.69 2356.99 1998.33 2356.99 1998.33 2327.86 1964.35 2327.86 1964.35 2327.86 1964.35 2326.6 1962.99 2326.6 1961.63 2326.6 1960.27 2340.53 1915.42 2340.53 1915.42 2340.53 1915.42 2340.53 1914.06 2341.79 1912.7 2343.06 1912.7 2386.12 1903.18 2386.12 1903.18 2386.12 1903.18 2398.78 1899.11 2407.65 1895.03 2413.98 1890.95 2420.31 1886.87 2431.71 1884.16 2454.5 1884.16 2454.5 1884.16 2454.5 1884.16 2454.5 1884.16 2477.29 1884.16 2487.43 1885.51 2493.76 1889.59 2492.49 1888.23 2492.49 1888.23 2492.49 1888.23 2498.82 1895.03 2508.95 1899.11 2522.88 1903.18 2565.94 1912.7 2565.94 1912.7 2565.94 1912.7 2567.21 1912.7 2568.47 1914.06 2568.47 1915.42 2581.14 1960.27 2581.14 1960.27 2581.14 1960.27 2582.4 1961.63 2582.4 1962.99 2581.14 1964.35Z" fill="#872412" fill-rule="evenodd"/><path d="M2348.21 2065.24C2364.57 2070.64 2383.45 2044.99 2391 2031.49 2388.48 2036.89 2367.09 2082.8 2364.57 2089.55 2360.79 2096.3 2355.76 2099 2350.72 2093.6 2272.69 2038.24 2245 1924.82 2287.79 1833 2258.84 1895.11 2271.43 2035.54 2348.21 2065.24Z" fill="#E43B75" fill-rule="evenodd"/><path d="M2442.42 1720C2450 1724.05 2446.21 1726.75 2438.64 1746.99 2431.06 1765.88 2420.96 1791.51 2418.43 1815.8 2414.65 1838.74 2412.12 1861.68 2412.12 1869.77 2410.86 1879.22 2396.97 1887.32 2381.82 1890.01 2365.4 1894.06 2348.99 1898.11 2338.89 1899.46 2328.79 1900.81 2328.79 1906.21 2325 1917 2328.79 1895.41 2331.31 1891.36 2346.46 1890.01 2360.35 1887.32 2384.34 1881.92 2395.71 1869.77 2408.33 1858.98 2407.07 1825.25 2412.12 1805.01 2418.43 1783.42 2432.32 1748.34 2437.37 1738.89 2442.42 1729.45 2444.95 1721.35 2442.42 1720Z" fill="#F6C5CE" fill-rule="evenodd"/><path d="M2419 1722C2400.02 1723.34 2326.63 1755.45 2295 1817 2308.92 1796.93 2373.45 1734.04 2419 1722Z" fill="#FFFFFF" fill-rule="evenodd"/><path d="M2336 1993C2336 1993 2346.12 2004.86 2351.18 2008.82 2356.25 2012.77 2358.78 2012.77 2368.9 2011.45 2379.02 2010.14 2385.35 2006.18 2390.41 2006.18 2395.47 2006.18 2398 2010.14 2398 2010.14 2394.2 2008.82 2390.41 2010.14 2382.82 2014.09 2375.22 2016.73 2365.1 2022 2354.98 2016.73 2344.86 2012.77 2336 1993 2336 1993Z" fill="#FFFFFF" fill-rule="evenodd"/><path d="M2465.58 1722C2458 1726.03 2461.79 1728.71 2469.36 1748.85 2476.94 1768.99 2487.04 1793.15 2490.83 1817.32 2494.62 1840.14 2495.88 1862.96 2497.14 1871.01 2497.14 1880.41 2511.03 1888.47 2527.44 1891.15 2542.6 1893.84 2560.27 1899.21 2570.37 1900.55 2580.47 1901.89 2579.21 1907.26 2583 1918 2579.21 1896.52 2576.69 1892.49 2562.8 1889.81 2547.65 1888.47 2523.66 1883.1 2512.29 1871.01 2500.93 1860.27 2500.93 1826.71 2495.88 1806.58 2490.83 1785.1 2475.68 1750.19 2470.63 1740.79 2465.58 1731.4 2463.05 1723.34 2465.58 1722Z" fill="#FFFFFF" fill-rule="evenodd"/><path d="M2618.61 1999.3C2607.26 2033 2582.04 2076.13 2559.35 2095 2637.52 2039.74 2664 1925.17 2621.13 1833.52 2621.13 1833.52 2617.35 1826.78 2613.57 1818.7 2582.04 1756.7 2508.91 1724.35 2490 1723 2519 1736.48 2588.35 1766.13 2623.65 1865.87 2643.83 1937.3 2618.61 1999.3 2618.61 1999.3Z" fill="#E43B75" fill-rule="evenodd"/><path d="M2575 1993C2575 1993 2563.48 2006.48 2558.36 2010.52 2553.24 2014.57 2551.96 2014.57 2541.72 2013.22 2530.2 2011.87 2525.08 2007.83 2519.96 2007.83 2514.84 2007.83 2511 2011.87 2511 2011.87 2516.12 2010.52 2519.96 2011.87 2527.64 2015.91 2534.04 2018.61 2545.56 2024 2555.8 2018.61 2566.04 2014.57 2575 1993 2575 1993Z" fill="#FFFFFF" fill-rule="evenodd"/><path d="M2495.74 1882.29C2494.48 1880.94 2491.96 1878.24 2491.96 1872.82 2489.43 1860.65 2488.17 1830.88 2480.61 1802.47 2478.09 1790.29 2474.3 1778.12 2470.52 1767.29 2470.52 1767.29 2470.52 1765.94 2469.26 1765.94 2468 1761.88 2466.74 1759.18 2465.48 1755.12 2465.48 1755.12 2465.48 1755.12 2465.48 1755.12 2465.48 1753.76 2465.48 1753.76 2464.22 1752.41 2464.22 1752.41 2464.22 1752.41 2464.22 1752.41 2460.43 1741.59 2456.65 1732.12 2455.39 1729.41 2454.13 1728.06 2454.13 1726.71 2454.13 1724 2454.13 1724 2454.13 1724 2454.13 1724 2454.13 1726.71 2452.87 1728.06 2452.87 1729.41 2450.35 1736.18 2435.22 1768.65 2427.65 1802.47 2420.09 1830.88 2418.83 1860.65 2416.3 1872.82 2416.3 1878.24 2412.52 1880.94 2411.26 1882.29 2411.26 1883.65 2410 1883.65 2410 1885 2410 1885 2410 1885 2410 1885 2416.3 1879.59 2428.91 1876.88 2454.13 1876.88 2454.13 1876.88 2454.13 1876.88 2454.13 1876.88 2469.26 1876.88 2479.35 1878.24 2486.91 1879.59 2485.65 1878.24 2483.13 1876.88 2481.87 1875.53 2465.48 1862 2435.22 1866.06 2435.22 1849.82 2435.22 1833.59 2441.52 1801.12 2447.83 1782.18 2450.35 1776.76 2452.87 1772.71 2456.65 1770 2464.22 1767.29 2473.04 1793 2476.83 1822.76 2480.61 1847.12 2483.13 1870.12 2489.43 1879.59 2491.96 1880.94 2494.48 1882.29 2497 1883.65 2497 1883.65 2497 1883.65 2497 1883.65 2497 1883.65 2497 1882.29 2495.74 1882.29Z" fill="#D1005D" fill-rule="evenodd"/><path d="M2467 1789C2470.92 1797.11 2477.46 1826.82 2478.77 1843.03 2480.08 1859.25 2484 1866 2484 1866 2477.46 1857.89 2476.15 1843.03 2473.54 1832.23 2470.92 1821.42 2470.92 1798.46 2467 1789Z" fill="#FFFFFF" fill-rule="evenodd"/><path d="M2446.73 1876.88C2448 1876.88 2448 1876.88 2448 1875.53 2444.2 1874.18 2432.8 1872.82 2427.73 1870.12 2422.67 1867.41 2427.73 1836.29 2430.27 1818.71 2432.8 1801.12 2440.4 1774.06 2445.47 1761.88 2451.8 1749.71 2459.4 1747 2467 1759.18 2463.2 1748.35 2463.2 1748.35 2463.2 1748.35 2459.4 1738.88 2456.87 1732.12 2455.6 1729.41 2454.33 1728.06 2454.33 1726.71 2454.33 1724 2454.33 1724 2454.33 1724 2454.33 1724 2454.33 1726.71 2453.07 1728.06 2453.07 1729.41 2450.53 1736.18 2435.33 1768.65 2427.73 1802.47 2420.13 1830.88 2418.87 1860.65 2416.33 1872.82 2416.33 1878.24 2412.53 1880.94 2411.27 1882.29 2411.27 1883.65 2410 1883.65 2410 1885 2410 1885 2410 1885 2410 1885 2416.33 1879.59 2426.47 1876.88 2446.73 1876.88Z" fill="#AD004E" fill-rule="evenodd"/><path d="M2403.81 2015.68C2403.81 2017.02 2402.55 2019.69 2401.28 2022.37 2396.21 2031.74 2364.53 2097.32 2364.53 2097.32 2364.53 2098.66 2363.27 2098.66 2362 2100 2382.27 2090.63 2411.42 2081.26 2454.5 2081.26 2454.5 2081.26 2454.5 2081.26 2454.5 2081.26 2497.58 2081.26 2526.73 2090.63 2547 2100 2545.73 2098.66 2544.47 2098.66 2543.2 2097.32 2543.2 2097.32 2512.79 2031.74 2507.72 2022.37 2506.45 2018.35 2505.18 2015.68 2505.18 2013 2505.18 2013 2505.18 2031.74 2511.52 2049.14 2516.59 2066.54 2526.73 2085.28 2511.52 2078.58 2483.64 2067.88 2419.02 2073.23 2406.35 2065.2 2393.68 2057.17 2398.75 2029.06 2403.81 2014.34L2403.81 2015.68Z" fill="#D1005D" fill-rule="evenodd"/><path d="M2406 2021C2409.8 2011.67 2416.12 2007.67 2431.31 2007.67 2446.5 2006.33 2478.14 2005 2487 2009 2470.55 2007.67 2412.33 2010.33 2406 2021Z" fill="#FFFFFF" fill-rule="evenodd"/><path d="M2448.2 2079.81C2431.72 2077.12 2408.9 2077.12 2394.96 2075.77 2379.75 2073.08 2389.89 2046.15 2397.49 2030 2396.23 2031.35 2396.23 2031.35 2396.23 2031.35 2386.08 2051.54 2364.54 2097.31 2364.54 2097.31 2364.54 2098.65 2363.27 2098.65 2362 2100 2381.01 2090.58 2410.17 2081.15 2452 2081.15 2450.73 2079.81 2449.46 2079.81 2448.2 2079.81Z" fill="#AD004E" fill-rule="evenodd"/><path d="M2527.61 2067C2530.13 2072.33 2531.39 2081.67 2527.61 2085.67 2523.83 2088.33 2518.78 2087 2515 2089.67 2520.04 2089.67 2523.83 2091 2527.61 2092.33 2532.65 2093.67 2538.96 2097.67 2544 2099 2541.48 2093.67 2536.43 2079 2531.39 2075" fill="#AD004E" fill-rule="evenodd"/><path d="M2428.45 1803.1C2420.88 1831.39 2419.61 1861.03 2417.09 1873.15 2417.09 1878.54 2413.3 1881.23 2412.04 1882.58 2406.99 1887.97 2398.15 1892.01 2385.52 1896.05 2342.58 1905.48 2342.58 1905.48 2342.58 1905.48 2338.79 1906.83 2335 1909.52 2333.74 1913.56 2321.11 1958.02 2321.11 1958.02 2321.11 1958.02 2319.85 1962.06 2319.85 1966.1 2323.64 1970.14 2352.68 2003.82 2352.68 2003.82 2352.68 2003.82 2355.21 2007.86 2359 2009.2 2362.79 2007.86 2362.79 2007.86 2385.52 2002.47 2388.04 2002.47 2391.83 2002.47 2394.36 2003.82 2396.88 2005.16 2406.99 2010.55 2405.72 2013.25 2401.93 2022.68 2396.88 2032.1 2365.31 2098.11 2365.31 2098.11 2361.52 2103.5 2355.21 2103.5 2348.89 2099.46 2266.81 2041.53 2236.5 1924.34 2283.23 1828.7 2313.53 1764.04 2370.36 1723.62 2433.51 1714.19 2451.19 1711.5 2457.5 1720.93 2453.71 1730.36 2451.19 1737.09 2436.03 1769.42 2428.45 1803.1Z" stroke="#000000" stroke-width="3.4375" stroke-linecap="round" stroke-linejoin="round" stroke-miterlimit="10" fill="none" fill-rule="evenodd"/><path d="M2481.55 1803.1C2489.12 1831.39 2490.39 1861.03 2492.91 1873.15 2492.91 1878.54 2495.44 1881.23 2496.7 1882.58 2503.01 1887.97 2511.85 1892.01 2524.48 1896.05 2567.42 1905.48 2567.42 1905.48 2567.42 1905.48 2571.21 1906.83 2575 1909.52 2576.26 1913.56 2588.89 1958.02 2588.89 1958.02 2588.89 1958.02 2590.15 1962.06 2588.89 1966.1 2586.36 1970.14 2557.32 2003.82 2557.32 2003.82 2557.32 2003.82 2554.79 2007.86 2551 2009.2 2547.21 2007.86 2547.21 2007.86 2524.48 2002.47 2521.96 2002.47 2518.17 2002.47 2515.64 2003.82 2513.12 2005.16 2503.01 2010.55 2503.01 2013.25 2508.07 2022.68 2513.12 2032.1 2543.43 2098.11 2543.43 2098.11 2547.21 2103.5 2554.79 2103.5 2559.84 2099.46 2643.19 2041.53 2673.5 1924.34 2626.77 1828.7 2596.47 1764.04 2539.64 1723.62 2476.49 1714.19 2457.55 1711.5 2452.5 1720.93 2456.29 1730.36 2458.81 1737.09 2473.97 1769.42 2481.55 1803.1Z" stroke="#000000" stroke-width="3.4375" stroke-linecap="round" stroke-linejoin="round" stroke-miterlimit="10" fill="none" fill-rule="evenodd"/><path d="M2543.7 2097.81C2543.7 2097.81 2513.29 2031.82 2508.22 2022.39 2506.95 2018.35 2505.68 2015.66 2505.68 2012.97 2499.35 2003.54 2487.95 1999.5 2455 1999.5 2455 1999.5 2455 1999.5 2455 1999.5 2420.79 1999.5 2409.38 2003.54 2404.31 2014.31 2404.31 2015.66 2404.31 2015.66 2404.31 2015.66 2404.31 2017.01 2403.05 2019.7 2401.78 2022.39 2396.71 2031.82 2365.03 2097.81 2365.03 2097.81 2365.03 2099.15 2363.77 2099.15 2362.5 2100.5 2382.77 2091.07 2411.92 2081.65 2455 2081.65 2455 2081.65 2455 2081.65 2455 2081.65 2498.08 2081.65 2527.23 2091.07 2547.5 2100.5 2546.23 2099.15 2544.97 2099.15 2543.7 2097.81Z" stroke="#000000" stroke-width="3.4375" stroke-linecap="round" stroke-linejoin="round" stroke-miterlimit="10" fill="none" fill-rule="evenodd"/><path d="M2496.24 1882.79C2494.98 1881.44 2492.46 1878.74 2492.46 1873.32 2489.93 1861.15 2488.67 1831.38 2481.11 1802.97 2473.54 1769.15 2458.41 1736.68 2455.89 1729.91 2454.63 1728.56 2454.63 1727.21 2454.63 1724.5 2454.63 1724.5 2454.63 1724.5 2454.63 1724.5 2454.63 1727.21 2453.37 1728.56 2453.37 1729.91 2450.85 1736.68 2435.72 1769.15 2428.15 1802.97 2420.59 1831.38 2419.33 1861.15 2416.8 1873.32 2416.8 1878.74 2413.02 1881.44 2411.76 1882.79 2411.76 1884.15 2410.5 1884.15 2410.5 1885.5 2410.5 1885.5 2410.5 1885.5 2410.5 1885.5 2416.8 1880.09 2429.41 1877.38 2454.63 1877.38 2454.63 1877.38 2454.63 1877.38 2454.63 1877.38 2478.59 1877.38 2489.93 1878.74 2497.5 1884.15 2497.5 1884.15 2497.5 1884.15 2497.5 1884.15 2497.5 1884.15 2497.5 1882.79 2496.24 1882.79Z" stroke="#000000" stroke-width="3.4375" stroke-linecap="round" stroke-linejoin="round" stroke-miterlimit="10" fill="none" fill-rule="evenodd"/></g></svg>