<svg width="285" height="435" xmlns="http://www.w3.org/2000/svg" xmlns:xlink="http://www.w3.org/1999/xlink" xml:space="preserve" overflow="hidden"><g transform="translate(-2358 -529)"><path d="M2610.56 659.68C2617 690.526 2596.4 725.228 2596.4 762.5 2596.4 797.202 2617 829.333 2611.85 857.609 2600.26 920.586 2575.8 963 2548.77 963 2510.15 963 2505 873.032 2505 762.5 2505 651.968 2510.15 562 2548.77 562 2575.8 562 2597.69 600.558 2610.56 659.68Z" fill="#FF636E" fill-rule="evenodd"/><path d="M2512 761.993C2512 848.003 2517 910.906 2530.75 943 2530.75 943 2530.75 943 2530.75 943 2517 912.19 2518.25 848.003 2518.25 761.993 2518.25 686.253 2515.75 600.242 2537 572 2537 572 2537 572 2537 572 2517 598.958 2512 663.145 2512 761.993Z" fill="#FFFFFF" fill-rule="evenodd"/><path d="M2583.19 597.717C2590.96 614.439 2598.74 635.019 2603.93 660.744 2607.81 676.179 2603.93 694.187 2598.74 712.195 2594.85 728.916 2589.67 745.637 2589.67 762.359 2589.67 779.08 2594.85 794.515 2598.74 808.664 2603.93 826.672 2609.11 842.107 2606.52 857.542 2602.63 876.836 2597.44 893.557 2590.96 907.706 2583.19 924.428 2583.19 927 2590.96 912.851 2598.74 898.702 2606.52 880.695 2610.41 857.542 2613 842.107 2609.11 825.385 2603.93 807.378 2598.74 793.229 2594.85 777.794 2594.85 762.359 2594.85 745.637 2598.74 728.916 2602.63 713.481 2607.81 694.187 2613 676.179 2609.11 659.458 2603.93 635.019 2594.85 614.439 2584.48 599.004 2579.3 591.286 2578 590 2583.19 597.717Z" fill="#FFFFFF" fill-rule="evenodd"/><path d="M2568 576C2582 591.423 2589.64 623.553 2597.27 660.825 2601.09 676.248 2596 694.241 2590.91 712.234 2587.09 728.942 2582 745.65 2582 762.358 2582 779.065 2587.09 794.488 2590.91 808.626 2596 826.619 2602.36 844.612 2599.82 858.749 2592.18 901.162 2583.27 932.007 2568 950 2568 950 2568 950 2568 950 2583.27 932.007 2598.55 899.876 2606.18 857.464 2610 842.041 2604.91 825.333 2599.82 807.34 2594.73 793.203 2590.91 777.78 2590.91 762.358 2590.91 745.65 2594.73 728.942 2598.55 713.519 2603.64 694.241 2608.73 676.248 2604.91 659.54 2597.27 620.983 2583.27 592.708 2568 576Z" fill="#FF3549" fill-rule="evenodd"/><path d="M2361.66 659.68C2355.28 690.526 2375.69 725.228 2375.69 762.5 2375.69 797.202 2354 829.333 2360.38 857.609 2371.86 920.586 2394.83 963 2421.62 963 2461.17 963 2465 873.032 2465 762.5 2465 651.968 2461.17 562 2421.62 562 2396.1 562 2373.14 600.558 2361.66 659.68Z" fill="#FF636E" fill-rule="evenodd"/><path d="M2365.13 659.364C2361.28 676.093 2366.41 694.108 2371.54 713.411 2375.38 728.853 2379.23 745.581 2379.23 762.31 2379.23 777.752 2375.38 793.194 2370.26 807.349 2365.13 825.364 2360 842.093 2363.85 857.535 2366.41 872.977 2372.82 887.132 2376.67 900 2376.67 900 2376.67 900 2376.67 900 2372.82 887.132 2371.54 872.977 2367.69 857.535 2365.13 842.093 2372.82 826.651 2377.95 808.636 2383.08 794.481 2389.49 779.039 2389.49 762.31 2389.49 745.581 2383.08 728.853 2379.23 712.124 2374.1 694.108 2366.41 676.093 2368.97 660.651 2379.23 615.612 2392.05 580.868 2410 568 2410 568 2410 568 2410 568 2392.05 582.155 2374.1 613.039 2365.13 659.364Z" fill="#FFFFFF" fill-rule="evenodd"/><path d="M2438.08 568C2448.34 605.313 2450.9 664.498 2450.9 732.69 2450.9 843.342 2445.77 933.407 2406.04 933.407 2394.51 933.407 2382.97 924.401 2374 910.247 2386.82 943.7 2403.48 963 2421.42 963 2461.16 963 2465 872.935 2465 762.283 2465 669.645 2462.44 592.446 2438.08 568Z" fill="#FF3A4F" fill-rule="evenodd"/><path d="M2438.17 568.286C2462.44 592.714 2459.89 681.428 2459.89 762.428 2459.89 862.714 2457.33 963 2419 963 2419 963 2419 963 2419 963 2461.17 963 2465 869.143 2465 762.428 2465 658.286 2459.89 590.143 2436.89 567L2438.17 568.286Z" fill="#FFFFFF" fill-rule="evenodd"/><path d="M2426 963C2426 963 2427.28 963 2428.56 963 2427.28 963 2426 963 2426 963ZM2537.39 564.159C2538.67 564.159 2539.95 562.872 2539.95 562.872 2539.95 562.872 2539.95 562.872 2541.23 562.872 2563 551.293 2524.59 541 2488.74 544.86 2461.85 548.72 2431.12 557.726 2442.64 571.878 2442.64 571.878 2442.64 571.878 2442.64 571.878 2463.13 600.183 2465.69 674.805 2465.69 762.293 2465.69 866.506 2461.85 952.707 2428.56 963 2465.69 951.421 2509.22 952.707 2543.79 963 2543.79 963 2543.79 963 2543.79 963 2510.5 953.994 2505.38 867.793 2505.38 762.293 2505.38 663.226 2509.22 580.884 2537.39 564.159Z" fill="#F60D2A" fill-rule="evenodd"/><path d="M2491 557.053C2502.63 555.789 2522 552 2522 559.579 2522 568.421 2509.08 577.263 2505.21 600 2506.5 581.053 2518.13 564.632 2515.54 562.105 2511.67 557.053 2492.29 558.316 2491 557.053Z" fill="#FFC2C2" fill-rule="evenodd"/><path d="M2426 963C2426 963 2427.28 963 2428.56 963 2427.28 963 2426 963 2426 963ZM2537.39 564.159C2538.67 564.159 2539.95 562.872 2539.95 562.872 2539.95 562.872 2539.95 562.872 2541.23 562.872 2563 551.293 2524.59 541 2488.74 544.86 2461.85 548.72 2431.12 557.726 2442.64 571.878 2442.64 571.878 2442.64 571.878 2442.64 571.878 2463.13 600.183 2465.69 674.805 2465.69 762.293 2465.69 866.506 2461.85 952.707 2428.56 963 2465.69 951.421 2509.22 952.707 2543.79 963 2543.79 963 2543.79 963 2543.79 963 2510.5 953.994 2505.38 867.793 2505.38 762.293 2505.38 663.226 2509.22 580.884 2537.39 564.159ZM2522.03 562.872C2498.98 589.89 2493.86 656.793 2493.86 762.293 2493.86 849.78 2497.7 911.536 2511.78 944.988 2505.38 943.701 2498.98 943.701 2491.3 943.701 2481.06 942.414 2469.53 912.823 2472.09 890.951 2475.93 857.5 2477.21 815.043 2477.21 762.293 2477.21 668.372 2473.37 602.756 2455.45 571.878 2454.17 570.591 2455.45 565.445 2458.01 564.159 2464.41 561.585 2475.93 557.726 2490.02 556.439 2501.54 555.152 2510.5 556.439 2519.47 556.439 2522.03 556.439 2523.31 561.585 2522.03 562.872ZM2532.27 553.866C2532.27 553.866 2532.27 553.866 2532.27 553.866Z" fill="#DD0010" fill-rule="evenodd"/><path d="M2624.17 751.06C2624.17 713.81 2644.72 677.845 2638.29 648.302 2633.16 621.328 2629.31 593.069 2601.05 562.241 2563.81 521.138 2448.23 516 2402 568.664 2402 568.664 2402 568.664 2402 568.664 2408.42 564.81 2414.84 562.241 2421.26 562.241 2430.25 562.241 2436.67 566.095 2441.81 572.517 2441.81 572.517 2441.81 572.517 2441.81 572.517 2430.25 558.388 2461.07 549.396 2488.04 545.543 2524 541.69 2562.53 551.965 2540.69 563.526 2541.98 562.241 2541.98 562.241 2541.98 562.241 2543.26 562.241 2543.26 562.241 2543.26 562.241 2544.55 562.241 2544.55 562.241 2545.83 562.241 2547.12 562.241 2547.12 562.241 2548.4 562.241 2549.68 562.241 2550.97 562.241 2552.25 562.241 2552.25 562.241 2552.25 562.241 2552.25 562.241 2553.54 562.241 2554.82 562.241 2554.82 562.241 2554.82 562.241 2554.82 562.241 2556.11 562.241 2556.11 563.526 2557.39 563.526 2558.67 563.526 2558.67 563.526 2558.67 563.526 2558.67 563.526 2559.96 563.526 2561.24 564.81 2561.24 564.81 2562.53 564.81 2562.53 564.81 2562.53 564.81 2562.53 566.095 2563.81 566.095 2565.09 567.379 2565.09 567.379 2565.09 567.379 2565.09 567.379 2566.38 567.379 2567.66 568.664 2567.66 568.664 2568.95 569.948 2568.95 569.948 2568.95 569.948 2570.23 571.233 2570.23 571.233 2570.23 571.233 2571.52 571.233 2571.52 572.517 2571.52 572.517 2572.8 572.517 2572.8 573.802 2574.08 575.086 2574.08 575.086 2574.08 575.086 2574.08 575.086 2575.37 576.371 2575.37 576.371 2576.65 577.655 2576.65 577.655 2576.65 578.94 2577.94 578.94 2577.94 580.224 2579.22 580.224 2579.22 581.509 2579.22 581.509 2580.51 581.509 2580.51 582.793 2580.51 582.793 2581.79 584.078 2583.07 585.362 2583.07 586.646 2583.07 586.646 2583.07 586.646 2583.07 587.931 2584.36 589.215 2585.64 590.5 2585.64 590.5 2585.64 590.5 2585.64 590.5 2586.93 591.784 2586.93 593.069 2588.21 594.353 2588.21 595.638 2588.21 595.638 2588.21 595.638 2589.49 596.922 2589.49 598.207 2590.78 599.491 2590.78 600.776 2590.78 600.776 2590.78 600.776 2592.06 602.06 2592.06 603.345 2593.35 604.629 2593.35 605.914 2593.35 605.914 2593.35 605.914 2594.63 607.198 2594.63 609.767 2595.92 611.052 2601.05 625.181 2606.19 641.879 2610.04 659.862 2616.46 690.69 2595.92 725.371 2595.92 762.621 2595.92 797.302 2616.46 829.414 2611.33 857.672 2599.77 916.758 2579.22 957.862 2553.54 963 2554.82 963 2554.82 963 2554.82 963 2562.53 963 2581.79 955.293 2595.92 942.448 2613.89 927.034 2631.87 892.353 2640.86 846.112 2646 817.853 2624.17 785.741 2624.17 751.06ZM2543.26 963C2543.26 963 2543.26 963 2543.26 963 2543.26 963 2543.26 963 2543.26 963Z" fill="#FF3549" fill-rule="evenodd"/><path d="M2577.56 577C2591.67 593.708 2605.77 623.268 2613.46 660.54 2616.03 675.962 2610.9 693.956 2605.77 711.949 2601.92 728.657 2598.08 745.364 2598.08 762.072 2598.08 778.78 2601.92 794.203 2607.05 808.34 2610.9 826.333 2618.59 844.327 2614.74 858.464 2607.05 900.876 2590.38 934.292 2575 951 2575 951 2575 951 2575 951 2591.67 933.007 2613.46 899.591 2622.44 857.179 2625 841.756 2619.87 825.048 2614.74 807.055 2610.9 792.918 2605.77 777.495 2605.77 762.072 2605.77 745.364 2610.9 728.657 2614.74 713.234 2619.87 693.956 2623.72 675.962 2621.15 659.254 2612.18 620.698 2592.95 593.708 2577.56 577Z" fill="#F61B32" fill-rule="evenodd"/><path d="M2610.56 659.68C2617 690.526 2596.4 725.228 2596.4 762.5 2596.4 797.202 2617 829.333 2611.85 857.609 2600.26 920.586 2575.8 963 2548.77 963 2510.15 963 2505 873.032 2505 762.5 2505 651.968 2510.15 562 2548.77 562 2575.8 562 2597.69 600.558 2610.56 659.68Z" stroke="#660000" stroke-width="2.29167" stroke-linecap="round" stroke-linejoin="round" stroke-miterlimit="10" fill="none" fill-rule="evenodd"/><path d="M2361.66 659.68C2355.28 690.526 2375.69 725.228 2375.69 762.5 2375.69 797.202 2354 829.333 2360.38 857.609 2371.86 920.586 2394.83 963 2421.62 963 2461.17 963 2465 873.032 2465 762.5 2465 651.968 2461.17 562 2421.62 562 2396.1 562 2373.14 600.558 2361.66 659.68Z" stroke="#660000" stroke-width="2.29167" stroke-linecap="round" stroke-linejoin="round" stroke-miterlimit="10" fill="none" fill-rule="evenodd"/><path d="M2426 963C2426 963 2427.28 963 2428.56 963 2427.28 963 2426 963 2426 963ZM2537.39 564.159C2538.67 564.159 2539.95 562.872 2539.95 562.872 2539.95 562.872 2539.95 562.872 2541.23 562.872 2563 551.293 2524.59 541 2488.74 544.86 2461.85 548.72 2431.12 557.726 2442.64 571.878 2442.64 571.878 2442.64 571.878 2442.64 571.878 2463.13 600.183 2465.69 674.805 2465.69 762.293 2465.69 866.506 2461.85 952.707 2428.56 963 2465.69 951.421 2509.22 952.707 2543.79 963 2543.79 963 2543.79 963 2543.79 963 2510.5 953.994 2505.38 867.793 2505.38 762.293 2505.38 663.226 2509.22 580.884 2537.39 564.159Z" stroke="#660000" stroke-width="2.29167" stroke-linecap="round" stroke-linejoin="round" stroke-miterlimit="10" fill="none" fill-rule="evenodd"/><path d="M2624.17 751.06C2624.17 713.81 2644.72 677.845 2638.29 648.302 2633.16 621.328 2629.31 593.069 2601.05 562.241 2563.81 521.138 2448.23 516 2402 568.664 2402 568.664 2402 568.664 2402 568.664 2408.42 564.81 2414.84 562.241 2421.26 562.241 2430.25 562.241 2436.67 566.095 2441.81 572.517 2441.81 572.517 2441.81 572.517 2441.81 572.517 2430.25 558.388 2461.07 549.396 2488.04 545.543 2524 541.69 2562.53 551.965 2540.69 563.526 2541.98 562.241 2541.98 562.241 2541.98 562.241 2543.26 562.241 2543.26 562.241 2543.26 562.241 2544.55 562.241 2544.55 562.241 2545.83 562.241 2547.12 562.241 2547.12 562.241 2548.4 562.241 2549.68 562.241 2550.97 562.241 2552.25 562.241 2552.25 562.241 2552.25 562.241 2552.25 562.241 2553.54 562.241 2554.82 562.241 2554.82 562.241 2554.82 562.241 2554.82 562.241 2556.11 562.241 2556.11 563.526 2557.39 563.526 2558.67 563.526 2558.67 563.526 2558.67 563.526 2558.67 563.526 2559.96 563.526 2561.24 564.81 2561.24 564.81 2562.53 564.81 2562.53 564.81 2562.53 564.81 2562.53 566.095 2563.81 566.095 2565.09 567.379 2565.09 567.379 2565.09 567.379 2565.09 567.379 2566.38 567.379 2567.66 568.664 2567.66 568.664 2568.95 569.948 2568.95 569.948 2568.95 569.948 2570.23 571.233 2570.23 571.233 2570.23 571.233 2571.52 571.233 2571.52 572.517 2571.52 572.517 2572.8 572.517 2572.8 573.802 2574.08 575.086 2574.08 575.086 2574.08 575.086 2574.08 575.086 2575.37 576.371 2575.37 576.371 2576.65 577.655 2576.65 577.655 2576.65 578.94 2577.94 578.94 2577.94 580.224 2579.22 580.224 2579.22 581.509 2579.22 581.509 2580.51 581.509 2580.51 582.793 2580.51 582.793 2581.79 584.078 2583.07 585.362 2583.07 586.646 2583.07 586.646 2583.07 586.646 2583.07 587.931 2584.36 589.215 2585.64 590.5 2585.64 590.5 2585.64 590.5 2585.64 590.5 2586.93 591.784 2586.93 593.069 2588.21 594.353 2588.21 595.638 2588.21 595.638 2588.21 595.638 2589.49 596.922 2589.49 598.207 2590.78 599.491 2590.78 600.776 2590.78 600.776 2590.78 600.776 2592.06 602.06 2592.06 603.345 2593.35 604.629 2593.35 605.914 2593.35 605.914 2593.35 605.914 2594.63 607.198 2594.63 609.767 2595.92 611.052 2601.05 625.181 2606.19 641.879 2610.04 659.862 2616.46 690.69 2595.92 725.371 2595.92 762.621 2595.92 797.302 2616.46 829.414 2611.33 857.672 2599.77 916.758 2579.22 957.862 2553.54 963 2554.82 963 2554.82 963 2554.82 963 2562.53 963 2581.79 955.293 2595.92 942.448 2613.89 927.034 2631.87 892.353 2640.86 846.112 2646 817.853 2624.17 785.741 2624.17 751.06ZM2543.26 963C2543.26 963 2543.26 963 2543.26 963 2543.26 963 2543.26 963 2543.26 963Z" stroke="#660000" stroke-width="2.29167" stroke-linecap="round" stroke-linejoin="round" stroke-miterlimit="10" fill="none" fill-rule="evenodd"/></g></svg>