<svg width="256" height="432" xmlns="http://www.w3.org/2000/svg" xmlns:xlink="http://www.w3.org/1999/xlink" xml:space="preserve" overflow="hidden"><g transform="translate(-3111 -1158)"><path d="M3363.56 1271.68C3370 1302.53 3349.4 1337.23 3349.4 1374.5 3349.4 1409.2 3370 1441.33 3364.85 1469.61 3353.26 1532.59 3330.09 1575 3303.06 1575 3263.15 1575 3258 1485.03 3258 1374.5 3258 1263.97 3263.15 1174 3303.06 1174 3328.8 1174 3350.69 1212.56 3363.56 1271.68Z" fill="#FFFF61" fill-rule="evenodd"/><path d="M3114.66 1271.68C3108.28 1302.53 3128.69 1337.23 3128.69 1374.5 3128.69 1409.2 3107 1441.33 3113.38 1469.61 3124.86 1532.59 3147.83 1575 3174.62 1575 3214.17 1575 3218 1485.03 3218 1374.5 3218 1263.97 3214.17 1174 3174.62 1174 3149.1 1174 3126.14 1212.56 3114.66 1271.68Z" fill="#FFFF61" fill-rule="evenodd"/><path d="M3303.03 1574.88C3263.32 1574.88 3258.2 1485.03 3258.2 1374.64 3258.2 1264.25 3263.32 1174.4 3303.03 1174.4 3304.31 1174.4 3306.88 1174.4 3309.44 1174.4 3295.35 1165.42 3268.45 1159 3237.7 1159 3206.96 1159 3180.06 1165.42 3165.97 1175.69 3168.53 1174.4 3172.37 1174.4 3174.93 1174.4 3214.64 1174.4 3218.49 1264.25 3218.49 1374.64 3218.49 1485.03 3214.64 1574.88 3174.93 1574.88 3168.53 1574.88 3162.12 1573.6 3157 1568.46 3169.81 1580.02 3201.83 1589 3237.7 1589 3268.45 1589 3295.35 1582.58 3312 1573.6 3308.16 1574.88 3305.59 1574.88 3303.03 1574.88Z" fill="#F3B31D" fill-rule="evenodd"/><path d="M3312 1573.6C3308.16 1574.88 3305.59 1574.88 3303.03 1574.88 3263.32 1574.88 3258.2 1485.03 3258.2 1374.64 3258.2 1264.25 3263.32 1174.4 3303.03 1174.4 3304.31 1174.4 3306.88 1174.4 3309.44 1174.4 3295.35 1165.42 3268.45 1159 3237.7 1159 3206.96 1159 3180.06 1165.42 3165.97 1175.69 3168.53 1174.4 3172.37 1174.4 3174.93 1174.4 3214.64 1174.4 3218.49 1264.25 3218.49 1374.64 3218.49 1485.03 3214.64 1574.88 3174.93 1574.88 3168.53 1574.88 3162.12 1573.6 3157 1568.46 3169.81 1580.02 3201.83 1589 3237.7 1589 3268.45 1589 3295.35 1582.58 3312 1573.6ZM3208.24 1565.9C3228.74 1532.52 3230.02 1459.36 3230.02 1374.64 3230.02 1288.64 3228.74 1212.91 3205.68 1180.82 3204.4 1178.25 3224.89 1170.55 3237.7 1170.55 3251.79 1170.55 3273.57 1178.25 3272.29 1179.54 3249.23 1212.91 3246.67 1288.64 3246.67 1374.64 3246.67 1459.36 3249.23 1533.81 3271.01 1567.18 3272.29 1569.75 3250.51 1577.45 3237.7 1577.45 3224.89 1577.45 3205.68 1569.75 3208.24 1565.9Z" fill="#DA9503" fill-rule="evenodd"/><path d="M3264 1376.85C3264 1462.93 3270.67 1525.88 3285.33 1558 3285.33 1558 3285.33 1558 3285.33 1558 3270.67 1527.17 3272 1462.93 3272 1376.85 3272 1301.06 3269.33 1216.26 3292 1188 3292 1188 3292 1188 3292 1188 3270.67 1213.69 3264 1279.22 3264 1376.85Z" fill="#FFFFFF" fill-rule="evenodd"/><path d="M3336.78 1213.98C3345.59 1229.37 3353.15 1251.17 3358.19 1275.53 3361.96 1290.92 3356.93 1308.88 3353.15 1328.11 3348.11 1343.5 3344.33 1360.18 3344.33 1376.85 3344.33 1393.52 3349.37 1408.91 3353.15 1424.3 3358.19 1440.97 3363.22 1457.64 3359.44 1471.75 3356.93 1490.98 3350.63 1508.94 3345.59 1523.05 3338.04 1538.44 3338.04 1541 3345.59 1528.18 3353.15 1512.79 3360.7 1494.83 3364.48 1473.03 3367 1457.64 3363.22 1440.97 3358.19 1423.02 3353.15 1407.63 3349.37 1392.24 3349.37 1376.85 3349.37 1360.18 3353.15 1344.79 3356.93 1329.4 3361.96 1310.16 3367 1292.21 3363.22 1274.25 3358.19 1249.89 3349.37 1230.65 3339.3 1215.26 3334.26 1206.28 3333 1205 3336.78 1213.98Z" fill="#FFFFFF" fill-rule="evenodd"/><path d="M3323 1191C3336.75 1207.66 3344.25 1238.43 3351.75 1275.6 3355.5 1290.98 3349.25 1308.92 3345.5 1328.15 3340.5 1343.53 3336.75 1360.2 3336.75 1376.86 3336.75 1393.52 3341.75 1408.9 3345.5 1424.29 3350.5 1440.95 3356.75 1458.89 3354.25 1474.28 3346.75 1515.29 3338 1547.34 3323 1564 3323 1564 3323 1564 3323 1564 3338 1546.06 3353 1515.29 3360.5 1472.99 3363 1457.61 3359.25 1440.95 3354.25 1423 3349.25 1407.62 3345.5 1392.24 3345.5 1376.86 3345.5 1360.2 3349.25 1344.81 3353 1329.43 3358 1310.21 3363 1292.26 3359.25 1274.32 3351.75 1237.14 3338 1207.66 3323 1191Z" fill="#FFDB3C" fill-rule="evenodd"/><path d="M3120.13 1274.09C3116.28 1292.05 3121.41 1310.01 3126.54 1329.26 3130.38 1344.65 3134.23 1360.05 3134.23 1376.72 3134.23 1392.12 3129.1 1407.52 3125.26 1422.91 3120.13 1440.87 3115 1457.55 3118.85 1472.95 3121.41 1488.34 3127.82 1501.17 3131.67 1514 3131.67 1514 3131.67 1514 3131.67 1514 3127.82 1502.45 3126.54 1487.06 3122.69 1471.66 3120.13 1457.55 3127.82 1440.87 3132.95 1424.19 3136.79 1408.8 3144.49 1393.4 3144.49 1376.72 3144.49 1360.05 3138.08 1343.37 3132.95 1327.97 3129.1 1308.73 3121.41 1290.77 3123.97 1275.37 3134.23 1231.75 3147.05 1195.83 3165 1183 3165 1183 3165 1183 3165 1183 3145.77 1197.11 3129.1 1227.9 3120.13 1274.09Z" fill="#FFFFFF" fill-rule="evenodd"/><path d="M3193.08 1185C3203.34 1220.84 3204.62 1279.73 3204.62 1347.58 3204.62 1457.67 3200.77 1547.28 3161.04 1547.28 3149.51 1547.28 3137.97 1539.6 3129 1524.23 3140.54 1557.52 3158.48 1578 3176.42 1578 3216.16 1578 3220 1488.39 3220 1377.02 3220 1284.85 3217.44 1208.04 3193.08 1185Z" fill="#FFE042" fill-rule="evenodd"/><path d="M3192.58 1184.56C3217.39 1207.63 3214.78 1297.34 3214.78 1376.8 3214.78 1478.04 3212.17 1578 3173 1578 3173 1578 3173 1578 3173 1578 3216.08 1578 3220 1484.45 3220 1376.8 3220 1274.27 3214.78 1205.07 3191.28 1182L3192.58 1184.56Z" fill="#FFFFFF" fill-rule="evenodd"/><path d="M3243 1172.62C3227.52 1170 3212.03 1189.62 3215.9 1204 3214.61 1196.15 3203 1187 3203 1180.46 3210.74 1175.23 3218.48 1170 3235.26 1173.92" fill="#DA9503" fill-rule="evenodd"/><path d="M3199 1181C3200.28 1179.73 3200.28 1179.73 3200.28 1179.73 3207.98 1174.64 3222.1 1172.09 3237.5 1172.09 3252.9 1172.09 3267.02 1174.64 3273.43 1179.73 3276 1179.73 3276 1179.73 3276 1179.73 3267.02 1174.64 3254.18 1167 3237.5 1167 3220.82 1167 3207.98 1174.64 3199 1181Z" fill="#FFFFFF" fill-rule="evenodd"/><path d="M3363.56 1271.68C3370 1302.53 3349.4 1337.23 3349.4 1374.5 3349.4 1409.2 3370 1441.33 3364.85 1469.61 3353.26 1532.59 3330.09 1575 3303.06 1575 3263.15 1575 3258 1485.03 3258 1374.5 3258 1263.97 3263.15 1174 3303.06 1174 3328.8 1174 3350.69 1212.56 3363.56 1271.68Z" stroke="#639C00" stroke-width="2.29167" stroke-linecap="round" stroke-linejoin="round" stroke-miterlimit="10" fill="none" fill-rule="evenodd"/><path d="M3114.66 1271.68C3108.28 1302.53 3128.69 1337.23 3128.69 1374.5 3128.69 1409.2 3107 1441.33 3113.38 1469.61 3124.86 1532.59 3147.83 1575 3174.62 1575 3214.17 1575 3218 1485.03 3218 1374.5 3218 1263.97 3214.17 1174 3174.62 1174 3149.1 1174 3126.14 1212.56 3114.66 1271.68Z" stroke="#639C00" stroke-width="2.29167" stroke-linecap="round" stroke-linejoin="round" stroke-miterlimit="10" fill="none" fill-rule="evenodd"/><path d="M3303.03 1574.88C3263.32 1574.88 3258.2 1485.03 3258.2 1374.64 3258.2 1264.25 3263.32 1174.4 3303.03 1174.4 3304.31 1174.4 3306.88 1174.4 3309.44 1174.4 3295.35 1165.42 3268.45 1159 3237.7 1159 3206.96 1159 3180.06 1165.42 3165.97 1175.69 3168.53 1174.4 3172.37 1174.4 3174.93 1174.4 3214.64 1174.4 3218.49 1264.25 3218.49 1374.64 3218.49 1485.03 3214.64 1574.88 3174.93 1574.88 3168.53 1574.88 3162.12 1573.6 3157 1568.46 3169.81 1580.02 3201.83 1589 3237.7 1589 3268.45 1589 3295.35 1582.58 3312 1573.6 3308.16 1574.88 3305.59 1574.88 3303.03 1574.88Z" stroke="#639C00" stroke-width="2.29167" stroke-linecap="round" stroke-linejoin="round" stroke-miterlimit="10" fill="none" fill-rule="evenodd"/><path d="M3275 1181C3268.56 1175.86 3254.39 1172 3237.64 1172 3220.9 1172 3206.73 1175.86 3199 1181" stroke="#639C00" stroke-width="2.29167" stroke-linecap="round" stroke-linejoin="round" stroke-miterlimit="10" fill="none" fill-rule="evenodd"/><path d="M3204 1568C3209.13 1573.6 3225.81 1575 3241.21 1575 3254.04 1575 3264.3 1572.2 3272 1568" stroke="#639C00" stroke-width="2.29167" stroke-linecap="round" stroke-linejoin="round" stroke-miterlimit="10" fill="none" fill-rule="evenodd"/><path d="M3266 1188C3258 1200.96 3252.67 1234.67 3250 1258 3250 1238.56 3256.67 1197.07 3266 1188Z" fill="#FFFFB5" fill-rule="evenodd"/></g></svg>