<svg width="255" height="431" xmlns="http://www.w3.org/2000/svg" xmlns:xlink="http://www.w3.org/1999/xlink" xml:space="preserve" overflow="hidden"><g transform="translate(-3112 -1776)"><path d="M3363.62 1889.44C3370 1920.21 3349.59 1954.82 3349.59 1992 3349.59 2026.62 3370 2058.67 3364.9 2086.87 3353.41 2149.69 3330.45 2192 3303.66 2192 3264.1 2192 3259 2102.26 3259 1992 3259 1881.74 3264.1 1792 3303.66 1792 3329.17 1792 3350.86 1830.46 3363.62 1889.44Z" fill="#6F3AAB" fill-rule="evenodd"/><path d="M3115.66 1889.44C3109.28 1920.21 3129.69 1954.82 3129.69 1992 3129.69 2026.62 3108 2058.67 3114.38 2086.87 3125.86 2149.69 3148.83 2192 3175.62 2192 3215.17 2192 3219 2102.26 3219 1992 3219 1881.74 3215.17 1792 3175.62 1792 3150.1 1792 3127.14 1830.46 3115.66 1889.44Z" fill="#6F3AAB" fill-rule="evenodd"/><path d="M3303.98 2191.91C3264.01 2191.91 3258.85 2102.27 3258.85 1992.14 3258.85 1882.01 3264.01 1792.37 3303.98 1792.37 3305.26 1792.37 3307.84 1792.37 3310.42 1792.37 3296.24 1783.4 3269.17 1777 3238.22 1777 3207.28 1777 3180.21 1783.4 3166.02 1793.65 3168.6 1792.37 3172.47 1792.37 3175.05 1792.37 3215.02 1792.37 3218.88 1882.01 3218.88 1992.14 3218.88 2102.27 3215.02 2191.91 3175.05 2191.91 3168.6 2191.91 3162.16 2190.63 3157 2185.51 3169.89 2197.04 3202.12 2206 3238.22 2206 3269.17 2206 3296.24 2199.6 3313 2190.63 3309.13 2191.91 3306.55 2191.91 3303.98 2191.91Z" fill="#4B0067" fill-rule="evenodd"/><path d="M3313 2190.63C3309.13 2191.91 3306.55 2191.91 3303.98 2191.91 3264.01 2191.91 3258.85 2102.27 3258.85 1992.14 3258.85 1882.01 3264.01 1792.37 3303.98 1792.37 3305.26 1792.37 3307.84 1792.37 3310.42 1792.37 3296.24 1783.4 3269.17 1777 3238.22 1777 3207.28 1777 3180.21 1783.4 3166.02 1793.65 3168.6 1792.37 3172.47 1792.37 3175.05 1792.37 3215.02 1792.37 3218.88 1882.01 3218.88 1992.14 3218.88 2102.27 3215.02 2191.91 3175.05 2191.91 3168.6 2191.91 3162.16 2190.63 3157 2185.51 3169.89 2197.04 3202.12 2206 3238.22 2206 3269.17 2206 3296.24 2199.6 3313 2190.63ZM3208.57 2182.95C3229.2 2149.65 3230.49 2076.66 3230.49 1992.14 3230.49 1906.34 3229.2 1830.78 3205.99 1798.77 3204.7 1796.21 3225.33 1788.53 3238.22 1788.53 3252.41 1788.53 3274.32 1796.21 3273.03 1797.49 3249.83 1830.78 3247.25 1906.34 3247.25 1992.14 3247.25 2076.66 3249.83 2150.93 3271.74 2184.23 3273.03 2186.79 3251.12 2194.47 3238.22 2194.47 3225.33 2194.47 3205.99 2186.79 3208.57 2182.95Z" fill="#32004D" fill-rule="evenodd"/><path d="M3265 1994.85C3265 2080.93 3271.43 2143.88 3285.57 2176 3285.57 2176 3285.57 2176 3285.57 2176 3271.43 2145.17 3272.71 2080.93 3272.71 1994.85 3272.71 1919.06 3270.14 1834.26 3292 1806 3292 1806 3292 1806 3292 1806 3271.43 1831.69 3265 1897.22 3265 1994.85Z" fill="#FFFFFF" fill-rule="evenodd"/><path d="M3337.78 1831.98C3346.59 1847.37 3354.15 1869.17 3359.19 1893.53 3362.96 1908.92 3357.93 1926.88 3354.15 1946.11 3349.11 1961.5 3345.33 1978.18 3345.33 1994.85 3345.33 2011.52 3350.37 2026.91 3354.15 2042.3 3359.19 2058.97 3364.22 2075.64 3360.44 2089.75 3357.93 2108.98 3351.63 2126.94 3346.59 2141.05 3339.04 2156.44 3339.04 2159 3346.59 2146.18 3354.15 2130.79 3361.7 2112.83 3365.48 2091.03 3368 2075.64 3364.22 2058.97 3359.19 2041.02 3354.15 2025.63 3350.37 2010.24 3350.37 1994.85 3350.37 1978.18 3354.15 1962.79 3357.93 1947.4 3362.96 1928.16 3368 1910.21 3364.22 1892.25 3359.19 1867.89 3350.37 1848.65 3340.3 1833.26 3335.26 1824.28 3334 1823 3337.78 1831.98Z" fill="#FFFFFF" fill-rule="evenodd"/><path d="M3323 1809C3337.09 1825.66 3344.78 1856.43 3352.47 1893.6 3356.31 1908.98 3349.91 1926.92 3346.06 1946.15 3340.94 1961.53 3337.09 1978.2 3337.09 1994.86 3337.09 2011.52 3342.22 2026.9 3346.06 2042.29 3351.19 2058.95 3357.59 2076.89 3355.03 2092.27 3347.34 2133.29 3338.38 2165.34 3323 2182 3323 2182 3323 2182 3323 2182 3338.38 2164.06 3353.75 2133.29 3361.44 2090.99 3364 2075.61 3360.16 2058.95 3355.03 2041 3349.91 2025.62 3346.06 2010.24 3346.06 1994.86 3346.06 1978.2 3349.91 1962.81 3353.75 1947.43 3358.88 1928.21 3364 1910.26 3360.16 1892.32 3352.47 1855.14 3338.38 1825.66 3323 1809Z" fill="#610C86" fill-rule="evenodd"/><path d="M3120.13 1892.09C3116.28 1910.05 3121.41 1928.01 3126.54 1947.26 3130.38 1962.65 3134.23 1978.05 3134.23 1994.72 3134.23 2010.12 3129.1 2025.52 3125.26 2040.91 3120.13 2058.87 3115 2075.55 3118.85 2090.95 3121.41 2106.34 3127.82 2119.17 3131.67 2132 3131.67 2132 3131.67 2132 3131.67 2132 3127.82 2120.45 3126.54 2105.06 3122.69 2089.66 3120.13 2075.55 3127.82 2058.87 3132.95 2042.19 3136.79 2026.8 3144.49 2011.4 3144.49 1994.72 3144.49 1978.05 3138.08 1961.37 3132.95 1945.97 3129.1 1926.73 3121.41 1908.77 3123.97 1893.37 3134.23 1849.75 3147.05 1813.83 3165 1801 3165 1801 3165 1801 3165 1801 3145.77 1815.11 3129.1 1845.9 3120.13 1892.09Z" fill="#FFFFFF" fill-rule="evenodd"/><path d="M3193.79 1802C3204.16 1837.93 3205.45 1896.97 3205.45 1964.99 3205.45 2075.36 3201.56 2165.2 3161.39 2165.2 3149.73 2165.2 3138.07 2157.5 3129 2142.1 3140.66 2175.47 3158.8 2196 3176.94 2196 3217.11 2196 3221 2106.16 3221 1994.51 3221 1902.1 3218.41 1825.1 3193.79 1802Z" fill="#64118C" fill-rule="evenodd"/><path d="M3193.58 1801.57C3218.39 1824.7 3215.78 1914.63 3215.78 1994.29 3215.78 2095.79 3213.17 2196 3174 2196 3174 2196 3174 2196 3174 2196 3217.08 2196 3221 2102.21 3221 1994.29 3221 1891.5 3215.78 1822.13 3192.28 1799L3193.58 1801.57Z" fill="#FFFFFF" fill-rule="evenodd"/><path d="M3243 1790.62C3227.9 1788 3212.81 1807.62 3216.58 1822 3215.32 1814.15 3204 1805 3204 1798.46 3211.55 1793.23 3219.1 1788 3235.45 1791.92" fill="#32004D" fill-rule="evenodd"/><path d="M3200 1798C3201.28 1796.73 3201.28 1796.73 3201.28 1796.73 3208.98 1791.64 3223.1 1789.09 3238.5 1789.09 3253.9 1789.09 3268.02 1791.64 3274.43 1796.73 3277 1796.73 3277 1796.73 3277 1796.73 3268.02 1791.64 3255.18 1784 3238.5 1784 3221.82 1784 3208.98 1791.64 3200 1798Z" fill="#FFFFFF" fill-rule="evenodd"/><path d="M3363.62 1889.44C3370 1920.21 3349.59 1954.82 3349.59 1992 3349.59 2026.62 3370 2058.67 3364.9 2086.87 3353.41 2149.69 3330.45 2192 3303.66 2192 3264.1 2192 3259 2102.26 3259 1992 3259 1881.74 3264.1 1792 3303.66 1792 3329.17 1792 3350.86 1830.46 3363.62 1889.44Z" stroke="#000033" stroke-width="2.29167" stroke-linecap="round" stroke-linejoin="round" stroke-miterlimit="10" fill="none" fill-rule="evenodd"/><path d="M3115.66 1889.44C3109.28 1920.21 3129.69 1954.82 3129.69 1992 3129.69 2026.62 3108 2058.67 3114.38 2086.87 3125.86 2149.69 3148.83 2192 3175.62 2192 3215.17 2192 3219 2102.26 3219 1992 3219 1881.74 3215.17 1792 3175.62 1792 3150.1 1792 3127.14 1830.46 3115.66 1889.44Z" stroke="#000033" stroke-width="2.29167" stroke-linecap="round" stroke-linejoin="round" stroke-miterlimit="10" fill="none" fill-rule="evenodd"/><path d="M3303.98 2191.91C3264.01 2191.91 3258.85 2102.27 3258.85 1992.14 3258.85 1882.01 3264.01 1792.37 3303.98 1792.37 3305.26 1792.37 3307.84 1792.37 3310.42 1792.37 3296.24 1783.4 3269.17 1777 3238.22 1777 3207.28 1777 3180.21 1783.4 3166.02 1793.65 3168.6 1792.37 3172.47 1792.37 3175.05 1792.37 3215.02 1792.37 3218.88 1882.01 3218.88 1992.14 3218.88 2102.27 3215.02 2191.91 3175.05 2191.91 3168.6 2191.91 3162.16 2190.63 3157 2185.51 3169.89 2197.04 3202.12 2206 3238.22 2206 3269.17 2206 3296.24 2199.6 3313 2190.63 3309.13 2191.91 3306.55 2191.91 3303.98 2191.91Z" stroke="#000033" stroke-width="2.29167" stroke-linecap="round" stroke-linejoin="round" stroke-miterlimit="10" fill="none" fill-rule="evenodd"/><path d="M3275 1798C3268.64 1792.86 3254.66 1789 3238.14 1789 3221.61 1789 3207.63 1792.86 3200 1798" stroke="#000033" stroke-width="2.29167" stroke-linecap="round" stroke-linejoin="round" stroke-miterlimit="10" fill="none" fill-rule="evenodd"/><path d="M3205 2186C3210.13 2190.8 3226.81 2192 3242.21 2192 3255.04 2192 3265.3 2189.6 3273 2186" stroke="#000033" stroke-width="2.29167" stroke-linecap="round" stroke-linejoin="round" stroke-miterlimit="10" fill="none" fill-rule="evenodd"/><path d="M3267 1806C3259 1818.78 3253.67 1852 3251 1875 3251 1855.83 3257.67 1814.94 3267 1806Z" fill="#8799FF" fill-rule="evenodd"/></g></svg>