<svg width="191" height="440" xmlns="http://www.w3.org/2000/svg" xmlns:xlink="http://www.w3.org/1999/xlink" xml:space="preserve" overflow="hidden"><g transform="translate(-3501 -1163)"><path d="M3502 1382.5C3502 1269.56 3522.82 1178 3548.5 1178 3574.18 1178 3595 1269.56 3595 1382.5 3595 1495.44 3574.18 1587 3548.5 1587 3522.82 1587 3502 1495.44 3502 1382.5Z" fill="#FFA976" fill-rule="evenodd"/><path d="M3597 1382.5C3597 1269.56 3617.82 1178 3643.5 1178 3669.18 1178 3690 1269.56 3690 1382.5 3690 1495.44 3669.18 1587 3643.5 1587 3617.82 1587 3597 1495.44 3597 1382.5Z" fill="#FFA976" fill-rule="evenodd"/><path d="M3642.86 1586.82C3618.43 1586.82 3596.57 1495.29 3596.57 1381.86 3596.57 1269.7 3618.43 1178.18 3642.86 1178.18 3648 1178.18 3653.14 1182.05 3657 1187.2 3648 1174.31 3628.71 1164 3595.29 1164 3568.29 1164 3552.86 1170.45 3540 1180.76 3542.57 1179.47 3543.86 1178.18 3546.43 1178.18 3572.14 1178.18 3594 1269.7 3594 1381.86 3594 1495.29 3572.14 1586.82 3546.43 1586.82 3545.14 1586.82 3542.57 1585.53 3541.29 1585.53 3554.14 1594.55 3568.29 1601 3595.29 1601 3628.71 1601 3648 1586.82 3642.86 1586.82Z" fill="#FF9100" fill-rule="evenodd"/><path d="M3595.29 1164C3568.29 1164 3552.86 1170.45 3540 1180.76 3542.57 1179.47 3543.86 1178.18 3546.43 1178.18 3572.14 1178.18 3594 1269.7 3594 1381.86 3594 1495.29 3572.14 1586.82 3546.43 1586.82 3545.14 1586.82 3542.57 1585.53 3541.29 1585.53 3554.14 1594.55 3568.29 1601 3595.29 1601 3628.71 1601 3648 1586.82 3642.86 1586.82 3618.43 1586.82 3596.57 1495.29 3596.57 1381.86 3596.57 1269.7 3618.43 1178.18 3642.86 1178.18 3648 1178.18 3653.14 1182.05 3657 1187.2 3648 1174.31 3628.71 1164 3595.29 1164ZM3617.14 1579.09C3618.43 1581.66 3609.43 1588.11 3595.29 1588.11 3583.71 1588.11 3570.86 1581.66 3572.14 1579.09 3596.57 1540.41 3595.29 1447.6 3595.29 1385.72 3595.29 1447.6 3594 1540.41 3617.14 1579.09ZM3614.57 1189.78C3592.71 1231.03 3595.29 1319.98 3595.29 1379.28 3595.29 1319.98 3596.57 1232.32 3574.71 1191.07 3573.43 1185.91 3581.14 1178.18 3595.29 1178.18 3608.14 1178.18 3617.14 1185.91 3614.57 1189.78Z" fill="#FF7300" fill-rule="evenodd"/><path d="M3564.95 1194C3572.79 1231.39 3578.02 1280.39 3578.02 1335.84 3578.02 1449.32 3557.11 1539.58 3530.98 1539.58 3525.76 1539.58 3519.23 1534.42 3514 1524.11 3521.84 1562.79 3533.6 1586 3546.66 1586 3572.79 1586 3595 1495.74 3595 1382.26 3595 1298.45 3581.94 1224.95 3564.95 1194Z" fill="#FFA044" fill-rule="evenodd"/><path d="M3559.85 1187C3575.47 1220.57 3585.89 1289.01 3585.89 1370.36 3585.89 1482.7 3567.66 1578.25 3542.92 1578.25 3537.72 1578.25 3531.21 1570.5 3526 1565.34 3532.51 1579.54 3540.32 1586 3546.83 1586 3572.87 1586 3595 1495.61 3595 1381.98 3595 1290.3 3579.38 1211.53 3559.85 1187Z" fill="#FFFFFF" fill-rule="evenodd"/><path d="M3519.54 1516.31C3513.13 1480.17 3516.97 1432.41 3516.97 1380.78 3516.97 1277.52 3529.79 1184.58 3552.87 1184.58 3552.87 1184.58 3558 1188.45 3558 1189.74 3555.44 1184.58 3551.59 1182 3547.74 1182 3524.67 1182 3508 1271.06 3508 1374.33 3508 1432.41 3511.85 1484.04 3518.26 1520.18 3524.67 1546 3522.1 1539.55 3519.54 1516.31Z" fill="#FFFFFF" fill-rule="evenodd"/><path d="M3661.51 1194C3670.57 1231.39 3674.46 1280.39 3674.46 1335.84 3674.46 1449.32 3655.03 1539.58 3629.13 1539.58 3622.66 1539.58 3616.18 1534.42 3611 1524.11 3620.07 1562.79 3631.72 1586 3644.67 1586 3669.28 1586 3690 1495.74 3690 1382.26 3690 1298.45 3678.34 1224.95 3661.51 1194Z" fill="#FFA044" fill-rule="evenodd"/><path d="M3657.65 1187C3673.18 1220.57 3683.53 1289.01 3683.53 1370.36 3683.53 1482.7 3665.41 1578.25 3639.53 1578.25 3634.35 1578.25 3627.88 1570.5 3624 1565.34 3630.47 1579.54 3636.94 1586 3644.71 1586 3669.29 1586 3690 1495.61 3690 1381.98 3690 1290.3 3675.76 1211.53 3657.65 1187Z" fill="#FFFFFF" fill-rule="evenodd"/><path d="M3615.7 1516.31C3610.5 1480.17 3613.1 1432.41 3613.1 1380.78 3613.1 1277.52 3627.4 1184.58 3649.5 1184.58 3650.8 1184.58 3654.7 1188.45 3656 1189.74 3652.1 1184.58 3648.2 1182 3644.3 1182 3620.9 1182 3604 1271.06 3604 1374.33 3604 1432.41 3607.9 1484.04 3615.7 1520.18 3620.9 1546 3619.6 1539.55 3615.7 1516.31Z" fill="#FFFFFF" fill-rule="evenodd"/><path d="M3598 1181C3585 1182.26 3578.5 1192.37 3581.1 1205 3579.8 1199.95 3573.3 1192.37 3572 1187.32 3572 1186.05 3573.3 1186.05 3574.6 1186.05" fill="#FF7300" fill-rule="evenodd"/><path d="M3582.72 1555C3578.89 1566.7 3576.33 1581 3591.67 1586.2 3607 1591.4 3581.44 1594 3581.44 1594 3561 1583.6 3561 1583.6 3561 1583.6" fill="#FF7300" fill-rule="evenodd"/><path d="M3593 1488.82C3594.33 1477.21 3595.67 1478.5 3598.33 1487.53 3594.33 1472.05 3601 1503 3599.67 1448.84 3595.67 1405 3595.67 1405 3595.67 1405" fill="#FF7300" fill-rule="evenodd"/><path d="M3577 1184.56C3578.25 1184.56 3578.25 1184.56 3578.25 1184.56 3583.25 1180.89 3585.75 1178.44 3597 1178.44 3612 1178.44 3614.5 1183.33 3617 1187 3617 1187 3617 1187 3617 1187 3613.25 1180.89 3612 1176 3595.75 1176 3584.5 1176 3583.25 1179.67 3577 1184.56Z" fill="#FFFFFF" fill-rule="evenodd"/><path d="M3502.5 1383C3502.5 1270.06 3523.32 1178.5 3549 1178.5 3574.68 1178.5 3595.5 1270.06 3595.5 1383 3595.5 1495.94 3574.68 1587.5 3549 1587.5 3523.32 1587.5 3502.5 1495.94 3502.5 1383Z" stroke="#750000" stroke-width="2.86476" stroke-linecap="round" stroke-linejoin="round" stroke-miterlimit="10" fill="none" fill-rule="evenodd"/><path d="M3597.5 1383C3597.5 1270.06 3618.32 1178.5 3644 1178.5 3669.68 1178.5 3690.5 1270.06 3690.5 1383 3690.5 1495.94 3669.68 1587.5 3644 1587.5 3618.32 1587.5 3597.5 1495.94 3597.5 1383Z" stroke="#750000" stroke-width="2.86476" stroke-linecap="round" stroke-linejoin="round" stroke-miterlimit="10" fill="none" fill-rule="evenodd"/><path d="M3643.36 1587.32C3618.93 1587.32 3597.07 1495.8 3597.07 1382.36 3597.07 1270.21 3618.93 1178.68 3643.36 1178.68 3648.5 1178.68 3653.64 1182.55 3657.5 1187.7 3648.5 1174.81 3629.21 1164.5 3595.79 1164.5 3568.79 1164.5 3553.36 1170.95 3540.5 1181.26 3543.07 1179.97 3544.36 1178.68 3546.93 1178.68 3572.64 1178.68 3594.5 1270.21 3594.5 1382.36 3594.5 1495.8 3572.64 1587.32 3546.93 1587.32 3545.64 1587.32 3543.07 1586.03 3541.79 1586.03 3554.64 1595.05 3568.79 1601.5 3595.79 1601.5 3629.21 1601.5 3648.5 1587.32 3643.36 1587.32Z" stroke="#750000" stroke-width="2.86476" stroke-linecap="round" stroke-linejoin="round" stroke-miterlimit="10" fill="none" fill-rule="evenodd"/><path d="M3566.5 1578.5C3574.29 1583.64 3580.78 1587.5 3597.65 1587.5 3618.42 1587.5 3627.5 1578.5 3624.9 1578.5" stroke="#750000" stroke-width="2.86476" stroke-linecap="round" stroke-linejoin="round" stroke-miterlimit="10" fill="none" fill-rule="evenodd"/><path d="M3617.5 1186.5C3615 1180.9 3606.25 1179.5 3598.75 1179.5 3591.25 1179.5 3582.5 1182.3 3577.5 1186.5" stroke="#750000" stroke-width="2.86476" stroke-linecap="round" stroke-linejoin="round" stroke-miterlimit="10" fill="none" fill-rule="evenodd"/><path d="M3610 1201C3604.8 1210.05 3599.6 1238.49 3597 1254 3597 1238.49 3602.2 1208.76 3610 1201Z" fill="#FFB5B5" fill-rule="evenodd"/></g></svg>