<svg width="210" height="442" xmlns="http://www.w3.org/2000/svg" xmlns:xlink="http://www.w3.org/1999/xlink" xml:space="preserve" overflow="hidden"><g transform="translate(-1333 -551)"><path d="M1334 771.5C1334 658.558 1354.59 567 1380 567 1405.41 567 1426 658.558 1426 771.5 1426 884.442 1405.41 976 1380 976 1354.59 976 1334 884.442 1334 771.5Z" fill="#FFF3C0" fill-rule="evenodd"/><path d="M1449 771.5C1449 658.558 1469.59 567 1495 567 1520.41 567 1541 658.558 1541 771.5 1541 884.442 1520.41 976 1495 976 1469.59 976 1449 884.442 1449 771.5Z" fill="#FFF3C0" fill-rule="evenodd"/><path d="M1494.72 976.755C1470.06 976.755 1449.29 884.811 1449.29 770.853 1449.29 658.189 1470.06 566.245 1494.72 566.245 1499.91 566.245 1505.11 570.13 1509 575.31 1501.21 562.36 1472.65 552 1437.61 552 1410.35 552 1385.68 558.475 1374 568.835 1375.3 567.54 1377.89 566.245 1380.49 566.245 1405.15 566.245 1425.92 658.189 1425.92 770.853 1425.92 884.811 1405.15 976.755 1380.49 976.755 1377.89 976.755 1376.6 975.46 1374 975.46 1386.98 984.525 1410.35 991 1437.61 991 1471.36 991 1499.91 976.755 1494.72 976.755Z" fill="#FFDB43" fill-rule="evenodd"/><path d="M1437.61 552C1410.35 552 1385.68 558.475 1374 568.835 1375.3 567.54 1377.89 566.245 1380.49 566.245 1405.15 566.245 1418.13 658.189 1418.13 770.853 1418.13 884.811 1405.15 976.755 1380.49 976.755 1377.89 976.755 1376.6 975.46 1374 975.46 1386.98 984.525 1410.35 991 1437.61 991 1471.36 991 1499.91 976.755 1494.72 976.755 1470.06 976.755 1457.08 884.811 1457.08 770.853 1457.08 658.189 1470.06 566.245 1494.72 566.245 1499.91 566.245 1505.11 570.13 1509 575.31 1501.21 562.36 1472.65 552 1437.61 552ZM1468.76 968.985C1470.06 971.575 1450.59 979.345 1437.61 979.345 1424.62 979.345 1405.15 971.575 1406.45 968.985 1429.82 930.136 1437.61 836.897 1437.61 774.737 1437.61 836.897 1445.39 930.136 1468.76 968.985ZM1466.16 577.9C1444.1 619.339 1437.61 708.693 1437.61 768.263 1437.61 708.693 1431.12 620.634 1409.05 579.195 1406.45 574.015 1423.33 566.245 1437.61 566.245 1451.88 566.245 1468.76 574.015 1466.16 577.9Z" fill="#FFBD00" fill-rule="evenodd"/><path d="M1397.35 582C1406.38 619.49 1410.25 668.615 1410.25 724.204 1410.25 837.967 1389.6 928.46 1365.07 928.46 1358.62 928.46 1352.16 923.289 1347 912.947 1356.04 951.73 1367.65 975 1380.56 975 1405.09 975 1418 884.506 1418 770.743 1418 686.714 1414.13 613.026 1397.35 582Z" fill="#FEEA8E" fill-rule="evenodd"/><path d="M1393.91 576C1409.57 609.573 1420 678.01 1420 759.359 1420 871.699 1401.74 967.252 1375.65 967.252 1370.43 967.252 1363.91 959.505 1360 954.34 1366.52 968.544 1373.04 975 1380.87 975 1405.65 975 1418.7 884.612 1418.7 770.981 1418.7 679.301 1412.17 600.534 1393.91 576Z" fill="#FFFFFF" fill-rule="evenodd"/><path d="M1352.47 905.23C1347.38 868.989 1349.92 821.099 1349.92 769.326 1349.92 665.78 1362.67 572.589 1385.62 572.589 1386.9 572.589 1390.72 576.472 1392 577.766 1388.17 572.589 1384.35 570 1380.52 570 1357.57 570 1341 659.308 1341 762.855 1341 821.099 1344.82 872.872 1352.47 909.113 1357.57 935 1356.3 928.528 1352.47 905.23Z" fill="#FFFFFF" fill-rule="evenodd"/><path d="M1512.51 582C1521.57 619.49 1525.46 668.615 1525.46 724.204 1525.46 837.967 1506.03 928.46 1480.13 928.46 1473.66 928.46 1467.18 923.289 1462 912.947 1471.07 951.73 1482.72 975 1495.67 975 1520.28 975 1541 884.506 1541 770.743 1541 686.714 1529.34 613.026 1512.51 582Z" fill="#FEEA8E" fill-rule="evenodd"/><path d="M1508.65 576C1524.18 609.573 1534.53 678.01 1534.53 759.359 1534.53 871.699 1516.41 967.252 1490.53 967.252 1486.65 967.252 1478.88 959.505 1475 954.34 1481.47 968.544 1487.94 975 1495.71 975 1520.29 975 1541 884.612 1541 770.981 1541 679.301 1528.06 600.534 1508.65 576Z" fill="#FFFFFF" fill-rule="evenodd"/><path d="M1467.7 905.23C1462.5 868.989 1465.1 821.099 1465.1 769.326 1465.1 665.78 1479.4 572.589 1502.8 572.589 1502.8 572.589 1506.7 576.472 1508 577.766 1504.1 572.589 1500.2 570 1496.3 570 1472.9 570 1456 659.308 1456 762.855 1456 821.099 1459.9 872.872 1467.7 909.113 1472.9 935 1471.6 928.528 1467.7 905.23Z" fill="#FFFFFF" fill-rule="evenodd"/><path d="M1440 569C1427.31 570.316 1412.08 580.842 1415.88 594 1414.62 588.737 1408.27 580.842 1407 575.579 1407 574.263 1408.27 574.263 1409.54 574.263" fill="#FFBD00" fill-rule="evenodd"/><path d="M1417.35 944C1414.76 955.7 1410.86 970 1426.43 975.2 1442 980.4 1416.05 983 1416.05 983 1394 972.6 1394 972.6 1394 972.6" fill="#FFBD00" fill-rule="evenodd"/><path d="M1431 871.273C1434.75 859.682 1438.5 862.258 1442.25 871.273 1446 879 1446 836.5 1446 836.5 1438.5 794 1438.5 794 1438.5 794" fill="#FFBD00" fill-rule="evenodd"/><path d="M1409 573.4C1411.61 573.4 1411.61 573.4 1411.61 573.4 1416.83 569.5 1427.26 566.9 1439 566.9 1454.65 566.9 1466.39 572.1 1469 576 1469 576 1469 576 1469 576 1465.09 569.5 1454.65 563 1439 563 1425.96 563 1415.52 568.2 1409 573.4Z" fill="#FFFFFF" fill-rule="evenodd"/><path d="M1334.5 772C1334.5 659.058 1353.3 567.5 1376.5 567.5 1399.7 567.5 1418.5 659.058 1418.5 772 1418.5 884.942 1399.7 976.5 1376.5 976.5 1353.3 976.5 1334.5 884.942 1334.5 772Z" stroke="#333333" stroke-width="2.86476" stroke-linecap="round" stroke-linejoin="round" stroke-miterlimit="10" fill="none" fill-rule="evenodd"/><path d="M1457.5 772C1457.5 659.058 1476.3 567.5 1499.5 567.5 1522.7 567.5 1541.5 659.058 1541.5 772 1541.5 884.942 1522.7 976.5 1499.5 976.5 1476.3 976.5 1457.5 884.942 1457.5 772Z" stroke="#333333" stroke-width="2.86476" stroke-linecap="round" stroke-linejoin="round" stroke-miterlimit="10" fill="none" fill-rule="evenodd"/><path d="M1495.22 977.255C1470.56 977.255 1457.58 885.311 1457.58 771.352 1457.58 658.689 1470.56 566.745 1495.22 566.745 1500.41 566.745 1505.61 570.63 1509.5 575.81 1501.71 562.86 1473.15 552.5 1438.11 552.5 1410.85 552.5 1386.18 558.975 1374.5 569.335 1375.8 568.04 1378.39 566.745 1380.99 566.745 1405.65 566.745 1418.63 658.689 1418.63 771.352 1418.63 885.311 1405.65 977.255 1380.99 977.255 1378.39 977.255 1377.1 975.96 1374.5 975.96 1387.48 985.025 1410.85 991.5 1438.11 991.5 1471.86 991.5 1500.41 977.255 1495.22 977.255Z" stroke="#333333" stroke-width="2.86476" stroke-linecap="round" stroke-linejoin="round" stroke-miterlimit="10" fill="none" fill-rule="evenodd"/><path d="M1399.5 967.5C1408.57 972.643 1422.81 976.5 1439.65 976.5 1460.37 976.5 1478.5 967.5 1475.91 967.5" stroke="#333333" stroke-width="2.86476" stroke-linecap="round" stroke-linejoin="round" stroke-miterlimit="10" fill="none" fill-rule="evenodd"/><path d="M1470.5 577.5C1466.59 572.357 1454.85 568.5 1439.2 568.5 1426.15 568.5 1415.72 571.071 1410.5 574.929" stroke="#333333" stroke-width="2.86476" stroke-linecap="round" stroke-linejoin="round" stroke-miterlimit="10" fill="none" fill-rule="evenodd"/><path d="M1461 590C1455.8 599.049 1450.6 627.488 1448 643 1448 627.488 1454.5 597.756 1461 590Z" fill="#FFFFFF" fill-rule="evenodd"/></g></svg>