<svg width="235" height="432" xmlns="http://www.w3.org/2000/svg" xmlns:xlink="http://www.w3.org/1999/xlink" xml:space="preserve" overflow="hidden"><g transform="translate(-754 -551)"><path d="M755 777.5C755 665.11 773.58 574 796.5 574 819.42 574 838 665.11 838 777.5 838 889.89 819.42 981 796.5 981 773.58 981 755 889.89 755 777.5Z" fill="#FFF3C0" fill-rule="evenodd"/><path d="M813.808 594C820.25 630.054 824.115 678.983 824.115 733.064 824.115 843.799 807.365 933.933 785.462 933.933 780.308 933.933 775.154 927.495 770 917.194 777.731 955.823 788.038 979 798.346 979 820.25 979 837 888.866 837 778.13 837 695.722 826.692 623.615 813.808 594Z" fill="#FEEA8E" fill-rule="evenodd"/><path d="M813.647 583C827.882 616.489 838.235 684.754 838.235 765.9 838.235 877.958 820.118 973.272 795.529 973.272 790.353 973.272 783.882 965.544 780 960.392 785.176 974.56 792.941 981 799.412 981 825.294 981 846 890.838 846 777.492 846 686.042 831.765 607.472 813.647 583Z" fill="#FFFFFF" fill-rule="evenodd"/><path d="M772.539 912.312C766.128 876.17 769.974 828.411 769.974 776.78 769.974 673.518 782.795 580.581 805.872 580.581 807.154 580.581 811 584.454 811 585.745 808.436 580.581 804.59 578 800.744 578 777.667 578 761 667.064 761 770.326 761 828.411 764.846 880.042 771.256 916.184 777.667 942 776.385 935.546 772.539 912.312Z" fill="#FFFFFF" fill-rule="evenodd"/><path d="M963.706 594.514C958.529 585.496 948.176 568.748 930.059 561.018 917.118 554.577 900.294 552 877 552 827.823 552 799.353 566.171 789 579.054 792.882 575.189 795.47 573.901 799.353 573.901 825.235 573.901 845.941 665.369 845.941 777.451 845.941 881.802 827.823 968.117 805.823 979.712 805.823 981 805.823 981 805.823 981 818.765 973.27 836.882 969.405 857.588 969.405 878.294 969.405 896.412 974.559 910.647 981 910.647 981 910.647 981 910.647 981 909.353 981 909.353 979.712 908.059 979.712 908.059 979.712 908.059 979.712 908.059 979.712 908.059 979.712 906.765 978.423 906.765 978.423 906.765 978.423 906.765 978.423 906.765 978.423 905.47 977.135 904.176 977.135 904.176 975.847 904.176 975.847 904.176 975.847 904.176 975.847 902.882 975.847 902.882 974.559 901.588 973.27 901.588 973.27 901.588 973.27 901.588 973.27 901.588 973.27 900.294 971.982 900.294 970.694 900.294 970.694 900.294 970.694 900.294 970.694 899 969.405 899 969.405 897.706 968.117 897.706 968.117 897.706 968.117 897.706 968.117 897.706 966.829 896.412 965.541 896.412 964.252 896.412 964.252 896.412 964.252 896.412 964.252 895.118 962.964 895.118 961.676 893.823 960.387 893.823 960.387 893.823 960.387 893.823 960.387 893.823 959.099 892.529 957.811 892.529 955.234 892.529 955.234 892.529 955.234 892.529 955.234 888.647 944.928 893.823 932.045 891.235 915.297 891.235 915.297 891.235 915.297 891.235 915.297 891.235 914.009 889.941 911.432 889.941 910.144 889.941 908.856 889.941 908.856 889.941 908.856 889.941 906.279 888.647 904.991 888.647 903.703 888.647 902.414 888.647 901.126 888.647 901.126 888.647 899.838 887.353 897.261 887.353 895.973 887.353 894.685 887.353 894.685 887.353 893.396 887.353 892.108 886.059 889.532 886.059 888.243 886.059 886.955 886.059 885.667 886.059 885.667 886.059 883.09 886.059 881.802 884.765 880.514 884.765 879.225 884.765 877.937 884.765 876.649 884.765 875.36 884.765 874.072 884.765 872.784 883.47 871.496 883.47 870.207 883.47 868.919 883.47 866.342 883.47 865.054 883.47 863.766 883.47 862.478 883.47 861.189 883.47 859.901 882.176 858.613 882.176 856.036 882.176 854.748 882.176 853.459 882.176 852.171 882.176 850.883 882.176 849.595 882.176 847.018 882.176 845.73 882.176 844.442 880.882 843.153 880.882 841.865 880.882 839.288 880.882 838 880.882 836.712 880.882 835.423 880.882 832.847 880.882 831.559 880.882 830.27 880.882 828.982 880.882 827.694 880.882 825.117 879.588 823.829 879.588 822.541 879.588 821.252 879.588 818.676 879.588 817.387 879.588 816.099 879.588 813.523 879.588 812.234 879.588 810.946 879.588 809.658 879.588 808.369 879.588 805.793 879.588 804.505 879.588 801.928 879.588 800.64 879.588 799.351 879.588 798.063 879.588 795.487 879.588 792.91 879.588 791.622 879.588 790.333 879.588 789.045 879.588 787.757 879.588 783.892 879.588 781.315 879.588 777.451 879.588 665.369 888.647 573.901 914.529 573.901 940.412 573.901 959.823 665.369 959.823 777.451 959.823 886.955 941.706 975.847 917.118 981 917.118 981 918.412 981 918.412 981 926.176 981 949.47 968.117 962.412 947.505 977.941 915.297 987 850.883 987 769.721 987 688.559 977.941 628.009 963.706 594.514Z" fill="#FEEC9A" fill-rule="evenodd"/><path d="M907.965 979.715C907.965 979.715 906.675 978.43 906.675 978.43 906.675 978.43 906.675 978.43 906.675 978.43 905.384 977.144 904.093 977.144 904.093 975.859 904.093 975.859 904.093 975.859 904.093 975.859 902.802 975.859 902.802 974.574 901.512 973.288 901.512 973.288 901.512 973.288 901.512 973.288 901.512 973.288 900.221 972.003 900.221 970.718 900.221 970.718 900.221 970.718 900.221 970.718 898.93 969.433 898.93 969.433 897.64 968.147 897.64 968.147 897.64 968.147 897.64 968.147 897.64 966.862 896.349 965.577 896.349 964.292 896.349 964.292 896.349 964.292 896.349 964.292 895.058 963.006 895.058 961.721 893.768 960.436 893.768 960.436 893.768 960.436 893.768 960.436 893.768 959.15 892.477 957.865 892.477 955.295 892.477 955.295 892.477 955.295 892.477 955.295 888.605 945.012 893.768 932.16 891.186 915.451 891.186 915.451 891.186 915.451 891.186 915.451 891.186 914.166 889.896 911.595 889.896 910.31 889.896 909.025 889.896 909.025 889.896 909.025 889.896 906.454 888.605 905.169 888.605 903.884 888.605 902.598 888.605 901.313 888.605 901.313 888.605 900.028 887.314 897.457 887.314 896.172 887.314 894.887 887.314 894.887 887.314 893.601 887.314 892.316 886.023 889.745 886.023 888.46 886.023 887.175 886.023 885.89 886.023 885.89 886.023 883.319 886.023 882.034 884.733 880.749 884.733 879.463 884.733 878.178 884.733 876.893 884.733 875.607 884.733 874.322 884.733 873.037 883.442 871.752 883.442 870.466 883.442 869.181 883.442 866.61 883.442 865.325 883.442 864.04 883.442 862.755 883.442 861.469 883.442 860.184 882.151 858.899 882.151 856.328 882.151 855.043 882.151 853.758 882.151 852.472 882.151 851.187 882.151 849.902 882.151 847.331 882.151 846.046 882.151 844.761 880.861 843.476 880.861 842.19 880.861 839.62 880.861 838.334 880.861 837.049 880.861 835.764 880.861 833.193 880.861 831.908 880.861 830.623 880.861 829.338 880.861 828.052 880.861 825.482 879.57 824.196 879.57 822.911 879.57 821.626 879.57 819.055 879.57 817.77 879.57 816.485 879.57 813.914 879.57 812.629 879.57 811.344 879.57 810.058 879.57 808.773 879.57 806.203 879.57 804.917 879.57 802.347 879.57 801.061 879.57 799.776 879.57 798.491 879.57 795.92 879.57 793.35 879.57 792.065 879.57 790.779 879.57 789.494 879.57 788.209 879.57 784.353 879.57 781.782 879.57 777.926 879.57 681.531 883.442 600.558 904.093 579.994 904.093 578.709 904.093 578.709 904.093 578.709 917 567.141 880.861 562 861.5 564.571 831.814 567.141 817.616 578.709 817.616 588.991 817.616 590.276 817.616 590.276 817.616 590.276 834.396 619.837 846.012 693.098 846.012 777.926 846.012 882.034 827.942 968.147 806 979.715 806 981 806 981 806 981 818.907 973.288 836.977 969.433 857.628 969.433 878.279 969.433 896.349 974.574 910.547 981 910.547 981 910.547 981 910.547 981 909.256 981 909.256 979.715 907.965 979.715 907.965 979.715 907.965 979.715 907.965 979.715Z" fill="#FFDB43" fill-rule="evenodd"/><path d="M907.965 979.715C907.965 979.715 906.675 978.43 906.675 978.43 906.675 978.43 906.675 978.43 906.675 978.43 905.384 977.144 904.093 977.144 904.093 975.859 904.093 975.859 904.093 975.859 904.093 975.859 902.802 975.859 902.802 974.574 901.512 973.288 901.512 973.288 901.512 973.288 901.512 973.288 901.512 973.288 900.221 972.003 900.221 970.718 900.221 970.718 900.221 970.718 900.221 970.718 898.93 969.433 898.93 969.433 897.64 968.147 897.64 968.147 897.64 968.147 897.64 968.147 897.64 966.862 896.349 965.577 896.349 964.292 896.349 964.292 896.349 964.292 896.349 964.292 895.058 963.006 895.058 961.721 893.768 960.436 893.768 960.436 893.768 960.436 893.768 960.436 893.768 959.15 892.477 957.865 892.477 955.295 892.477 955.295 892.477 955.295 892.477 955.295 888.605 945.012 893.768 932.16 891.186 915.451 891.186 915.451 891.186 915.451 891.186 915.451 891.186 914.166 889.896 911.595 889.896 910.31 889.896 909.025 889.896 909.025 889.896 909.025 889.896 906.454 888.605 905.169 888.605 903.884 888.605 902.598 888.605 901.313 888.605 901.313 888.605 900.028 887.314 897.457 887.314 896.172 887.314 894.887 887.314 894.887 887.314 893.601 887.314 892.316 886.023 889.745 886.023 888.46 886.023 887.175 886.023 885.89 886.023 885.89 886.023 883.319 886.023 882.034 884.733 880.749 884.733 879.463 884.733 878.178 884.733 876.893 884.733 875.607 884.733 874.322 884.733 873.037 883.442 871.752 883.442 870.466 883.442 869.181 883.442 866.61 883.442 865.325 883.442 864.04 883.442 862.755 883.442 861.469 883.442 860.184 882.151 858.899 882.151 856.328 882.151 855.043 882.151 853.758 882.151 852.472 882.151 851.187 882.151 849.902 882.151 847.331 882.151 846.046 882.151 844.761 880.861 843.476 880.861 842.19 880.861 839.62 880.861 838.334 880.861 837.049 880.861 835.764 880.861 833.193 880.861 831.908 880.861 830.623 880.861 829.338 880.861 828.052 880.861 825.482 879.57 824.196 879.57 822.911 879.57 821.626 879.57 819.055 879.57 817.77 879.57 816.485 879.57 813.914 879.57 812.629 879.57 811.344 879.57 810.058 879.57 808.773 879.57 806.203 879.57 804.917 879.57 802.347 879.57 801.061 879.57 799.776 879.57 798.491 879.57 795.92 879.57 793.35 879.57 792.065 879.57 790.779 879.57 789.494 879.57 788.209 879.57 784.353 879.57 781.782 879.57 777.926 879.57 681.531 883.442 600.558 904.093 579.994 904.093 578.709 904.093 578.709 904.093 578.709 917 567.141 880.861 562 861.5 564.571 831.814 567.141 817.616 578.709 817.616 588.991 817.616 590.276 817.616 590.276 817.616 590.276 834.396 619.837 839.558 693.098 839.558 777.926 839.558 882.034 827.942 968.147 806 979.715 806 981 806 981 806 981 818.907 973.288 836.977 969.433 857.628 969.433 878.279 969.433 896.349 974.574 910.547 981 910.547 981 910.547 981 910.547 981 909.256 981 909.256 979.715 907.965 979.715 907.965 979.715 907.965 979.715 907.965 979.715ZM855.047 713.663C852.465 675.104 846.012 640.402 839.558 614.696 835.686 604.414 834.396 581.279 849.884 577.423 853.756 577.423 857.628 577.423 862.791 576.138 870.535 576.138 876.989 574.853 883.442 576.138 888.605 576.138 888.605 581.279 887.314 583.85 871.826 610.841 862.791 660.966 858.919 714.948 857.628 735.512 856.337 732.942 855.047 713.663ZM871.826 959.15C869.244 959.15 866.663 959.15 864.082 957.865 848.593 955.295 839.558 945.012 846.012 911.595 853.756 874.322 857.628 826.767 857.628 781.782 857.628 784.353 857.628 788.209 857.628 788.209 857.628 788.209 857.628 790.779 857.628 790.779 857.628 798.491 857.628 798.491 857.628 798.491 857.628 798.491 857.628 808.773 857.628 808.773 857.628 819.055 857.628 819.055 857.628 819.055 857.628 819.055 857.628 822.911 857.628 822.911 857.628 822.911 858.919 828.052 858.919 828.052 858.919 828.052 858.919 833.193 858.919 833.193 858.919 833.193 858.919 838.334 858.919 838.334 858.919 843.476 858.919 843.476 858.919 843.476 860.209 847.331 860.209 847.331 860.209 847.331 860.209 847.331 860.209 851.187 860.209 851.187 860.209 851.187 860.209 856.328 860.209 856.328 860.209 856.328 861.5 861.469 861.5 861.469 861.5 865.325 861.5 865.325 861.5 865.325 861.5 865.325 861.5 870.466 861.5 870.466 861.5 870.466 862.791 878.178 862.791 878.178 862.791 878.178 864.082 883.319 864.082 883.319 864.082 887.175 864.082 887.175 864.082 887.175 864.082 887.175 864.082 889.745 864.082 889.745 864.082 889.745 865.372 894.887 865.372 894.887 865.372 894.887 866.663 902.598 866.663 902.598 866.663 902.598 866.663 905.169 866.663 905.169 866.663 905.169 867.954 910.31 867.954 910.31 867.954 910.31 867.954 911.595 867.954 911.595 867.954 912.88 869.244 918.022 869.244 918.022 871.826 930.874 875.698 942.442 878.279 952.724 879.57 955.295 875.698 959.15 871.826 959.15Z" fill="#FFBD00" fill-rule="evenodd"/><path d="M860 575.2C873.044 573.9 890 570 890 577.8 890 586.9 876.957 599.9 873.044 622 875.652 599.9 886.087 581.7 883.478 579.1 879.565 573.9 862.609 576.5 860 575.2Z" fill="#FFFFFF" fill-rule="evenodd"/><path d="M929 583C929 583 929 583 929 583 946.818 608.779 959.546 686.117 959.546 777.633 959.546 865.282 948.091 938.753 931.546 968.399 931.546 980 931.546 980 931.546 980 953.182 968.399 971 882.039 971 777.633 971 692.562 962.091 622.958 929 583Z" fill="#FFDB43" fill-rule="evenodd"/><path d="M854 858.839C856.5 847.226 859 854.968 861.5 858.839 864 864 862.75 834.323 862.75 834.323 861.5 791.742 861.5 791.742 861.5 791.742 854 784 854 784 854 784" fill="#FFBD00" fill-rule="evenodd"/><path d="M876 777.5C876 665.11 894.58 574 917.5 574 940.42 574 959 665.11 959 777.5 959 889.89 940.42 981 917.5 981 894.58 981 876 889.89 876 777.5Z" fill="#FFF3C0" fill-rule="evenodd"/><path d="M932.552 589C940.31 626.395 945.483 675.395 945.483 730.842 945.483 844.316 924.793 934.579 900.224 934.579 893.758 934.579 891.172 929.421 886 919.105 893.758 957.789 901.517 981 914.448 981 940.31 981 961 890.737 961 777.263 961 693.447 949.362 619.947 932.552 589Z" fill="#FEEA8E" fill-rule="evenodd"/><path d="M928.647 583C942.882 616.489 953.235 684.754 953.235 765.9 953.235 877.958 935.118 973.272 910.53 973.272 905.353 973.272 898.882 965.544 895 960.392 900.177 974.56 907.941 981 914.412 981 940.294 981 961 890.838 961 777.492 961 686.042 946.765 607.472 928.647 583Z" fill="#FFFFFF" fill-rule="evenodd"/><path d="M891.5 912.336C886.389 876.223 888.944 828.502 888.944 776.912 888.944 673.732 896.611 578.29 919.611 578.29 920.889 578.29 926 583.449 926 583.449 922.167 579.58 920.889 577 917.056 577 894.056 577 880 667.283 880 770.463 880 828.502 883.833 880.092 891.5 916.205 896.611 942 895.333 935.551 891.5 912.336Z" fill="#FFFFFF" fill-rule="evenodd"/><path d="M806.5 980.278C806.5 981.5 806.5 981.5 806.5 981.5 819.463 974.167 837.611 970.5 858.352 970.5 879.093 970.5 897.241 975.389 911.5 981.5" stroke="#333333" stroke-width="2.86476" stroke-linecap="round" stroke-linejoin="round" stroke-miterlimit="10" fill="none" fill-rule="evenodd"/><path d="M905.54 577.658C914.5 567.553 881.22 562.5 862.02 565.026 833.86 567.553 821.06 577.658 818.5 586.5" stroke="#333333" stroke-width="2.86476" stroke-linecap="round" stroke-linejoin="round" stroke-miterlimit="10" fill="none" fill-rule="evenodd"/><path d="M876.5 778C876.5 665.61 895.08 574.5 918 574.5 940.92 574.5 959.5 665.61 959.5 778 959.5 890.39 940.92 981.5 918 981.5 895.08 981.5 876.5 890.39 876.5 778Z" stroke="#333333" stroke-width="2.86476" stroke-linecap="round" stroke-linejoin="round" stroke-miterlimit="10" fill="none" fill-rule="evenodd"/><path d="M755.5 778C755.5 665.61 774.08 574.5 797 574.5 819.92 574.5 838.5 665.61 838.5 778 838.5 890.39 819.92 981.5 797 981.5 774.08 981.5 755.5 890.39 755.5 778Z" stroke="#333333" stroke-width="2.86476" stroke-linecap="round" stroke-linejoin="round" stroke-miterlimit="10" fill="none" fill-rule="evenodd"/><path d="M915.03 574.401C940.912 574.401 960.324 665.869 960.324 777.95 960.324 781.815 960.324 785.68 960.324 788.257 960.324 789.545 960.324 790.833 960.324 792.122 960.324 794.698 960.324 795.986 960.324 798.563 960.324 799.851 960.324 801.14 960.324 802.428 960.324 805.004 960.324 806.293 960.324 808.869 960.324 810.158 960.324 811.446 960.324 812.734 960.324 815.311 960.324 816.599 960.324 819.176 960.324 820.464 960.324 821.752 960.324 823.04 960.324 824.329 959.03 826.905 959.03 828.194 959.03 829.482 959.03 830.77 959.03 833.347 959.03 834.635 959.03 835.923 959.03 838.5 959.03 839.788 959.03 841.076 959.03 842.365 959.03 843.653 957.735 846.23 957.735 847.518 957.735 848.806 957.735 850.094 957.735 851.383 957.735 852.671 957.735 855.248 957.735 856.536 957.735 857.824 957.735 859.112 956.441 860.401 956.441 861.689 956.441 864.266 956.441 865.554 956.441 866.842 956.441 868.13 956.441 869.419 956.441 870.707 955.147 871.995 955.147 874.572 955.147 875.86 955.147 877.149 955.147 878.437 955.147 879.725 955.147 881.013 953.853 882.302 953.853 883.59 953.853 884.878 953.853 886.167 953.853 887.455 953.853 888.743 953.853 891.32 952.559 892.608 952.559 893.896 952.559 895.185 952.559 896.473 952.559 897.761 952.559 899.049 951.265 900.338 951.265 901.626 951.265 902.914 951.265 904.203 951.265 905.491 951.265 906.779 949.971 908.067 949.971 909.356 949.971 909.356 949.971 910.644 949.971 911.932 949.971 913.221 948.677 914.509 948.677 915.797 948.677 917.085 948.677 918.374 948.677 919.662 947.382 920.95 947.382 922.239 947.382 923.527 947.382 923.527 947.382 924.815 946.088 926.104 946.088 927.392 946.088 928.68 946.088 929.968 946.088 931.257 944.794 931.257 944.794 932.545 944.794 933.833 944.794 935.121 943.5 936.41 943.5 936.41 943.5 937.698 943.5 938.986 943.5 940.275 942.206 940.275 942.206 941.563 942.206 942.851 942.206 944.14 940.912 944.14 940.912 945.428 940.912 946.716 940.912 948.004 940.912 948.004 939.618 949.293 939.618 950.581 939.618 950.581 939.618 951.869 938.324 953.158 938.324 953.158 938.324 954.446 938.324 954.446 937.03 955.734 937.03 957.022 937.03 957.022 937.03 958.311 935.735 959.599 935.735 959.599 935.735 960.887 935.735 960.887 934.441 962.176 934.441 962.176 934.441 963.464 934.441 963.464 933.147 964.752 933.147 964.752 933.147 966.04 933.147 966.04 931.853 967.329 931.853 967.329 931.853 968.617 931.853 968.617 930.559 969.905 930.559 969.905 930.559 971.194 930.559 971.194 929.265 971.194 929.265 972.482 929.265 972.482 927.971 973.77 927.971 973.77 927.971 973.77 927.971 973.77 926.677 975.058 926.677 975.058 926.677 976.347 925.382 976.347 925.382 976.347 925.382 976.347 925.382 977.635 924.088 977.635 924.088 977.635 924.088 978.923 924.088 978.923 922.794 978.923 922.794 978.923 922.794 978.923 921.5 980.212 921.5 980.212 921.5 980.212 921.5 980.212 920.206 980.212 920.206 981.5 920.206 981.5 918.912 981.5 918.912 981.5 918.912 981.5 918.912 981.5 917.618 981.5 917.618 981.5 917.618 981.5 918.912 981.5 918.912 981.5 926.677 981.5 949.971 968.617 962.912 948.004 978.441 915.797 987.5 851.383 987.5 770.221 987.5 689.058 978.441 628.509 964.206 595.013 959.03 585.995 948.677 569.248 930.559 561.518 917.618 555.076 900.794 552.5 877.5 552.5 828.324 552.5 799.853 566.671 789.5 579.554" stroke="#333333" stroke-width="2.86476" stroke-linecap="round" stroke-linejoin="round" stroke-miterlimit="10" fill="none" fill-rule="evenodd"/></g></svg>