<svg width="286" height="435" xmlns="http://www.w3.org/2000/svg" xmlns:xlink="http://www.w3.org/1999/xlink" xml:space="preserve" overflow="hidden"><g transform="translate(-698 -1162)"><path d="M950.563 1292.68C957 1323.53 936.402 1358.23 936.402 1395.5 936.402 1430.2 957 1462.33 951.851 1490.61 940.264 1553.59 915.805 1596 888.77 1596 850.149 1596 845 1506.03 845 1395.5 845 1284.97 850.149 1195 888.77 1195 915.805 1195 937.69 1233.56 950.563 1292.68Z" fill="#FFC92E" fill-rule="evenodd"/><path d="M852 1395.51C852 1481.75 857 1544.82 870.75 1577 870.75 1577 870.75 1577 870.75 1577 857 1546.11 858.25 1481.75 858.25 1395.51 858.25 1319.56 855.75 1233.32 877 1205 877 1205 877 1205 877 1205 857 1232.03 852 1296.39 852 1395.51Z" fill="#FFFFFF" fill-rule="evenodd"/><path d="M924.037 1230.72C931.592 1247.44 939.148 1268.02 944.185 1293.74 947.963 1309.18 944.185 1327.19 939.148 1345.19 935.37 1361.92 930.333 1378.64 930.333 1395.36 930.333 1412.08 935.37 1427.52 939.148 1441.66 944.185 1459.67 949.222 1475.11 946.704 1490.54 942.926 1509.84 937.889 1526.56 931.592 1540.71 924.037 1557.43 924.037 1560 931.592 1545.85 939.148 1531.7 946.704 1513.69 950.481 1490.54 953 1475.11 949.222 1458.39 944.185 1440.38 939.148 1426.23 935.37 1410.79 935.37 1395.36 935.37 1378.64 939.148 1361.92 942.926 1346.48 947.963 1327.19 953 1309.18 949.222 1292.46 944.185 1268.02 935.37 1247.44 925.296 1232 920.259 1224.29 919 1223 924.037 1230.72Z" fill="#FFFFFF" fill-rule="evenodd"/><path d="M908 1209C922.333 1224.42 930.151 1256.55 937.97 1293.82 941.879 1309.25 936.667 1327.24 931.455 1345.23 927.545 1361.94 922.333 1378.65 922.333 1395.36 922.333 1412.07 927.545 1427.49 931.455 1441.63 936.667 1459.62 943.182 1477.61 940.576 1491.75 932.758 1534.16 923.636 1565.01 908 1583 908 1583 908 1583 908 1583 923.636 1565.01 939.273 1532.88 947.091 1490.46 951 1475.04 945.788 1458.33 940.576 1440.34 935.364 1426.2 931.455 1410.78 931.455 1395.36 931.455 1378.65 935.364 1361.94 939.273 1346.52 944.485 1327.24 949.697 1309.25 945.788 1292.54 937.97 1253.98 923.636 1225.71 908 1209Z" fill="#FF9B09" fill-rule="evenodd"/><path d="M701.724 1292.68C695.287 1323.53 715.885 1358.23 715.885 1395.5 715.885 1430.2 694 1462.33 700.437 1490.61 712.023 1553.59 735.195 1596 762.23 1596 802.138 1596 806 1506.03 806 1395.5 806 1284.97 802.138 1195 762.23 1195 736.483 1195 713.31 1233.56 701.724 1292.68Z" fill="#FFC92E" fill-rule="evenodd"/><path d="M705.128 1292.36C701.282 1309.09 706.41 1327.11 711.538 1346.41 715.385 1361.85 719.231 1378.58 719.231 1395.31 719.231 1410.75 715.385 1426.19 710.256 1440.35 705.128 1458.36 700 1475.09 703.846 1490.54 706.41 1505.98 712.82 1520.13 716.667 1533 716.667 1533 716.667 1533 716.667 1533 712.82 1520.13 711.538 1505.98 707.692 1490.54 705.128 1475.09 712.82 1459.65 717.949 1441.64 723.077 1427.48 729.487 1412.04 729.487 1395.31 729.487 1378.58 723.077 1361.85 719.231 1345.12 714.102 1327.11 706.41 1309.09 708.974 1293.65 719.231 1248.61 732.051 1213.87 750 1201 750 1201 750 1201 750 1201 732.051 1215.16 714.102 1246.04 705.128 1292.36Z" fill="#FFFFFF" fill-rule="evenodd"/><path d="M778.789 1201C789.155 1238.31 791.747 1297.5 791.747 1365.69 791.747 1476.34 786.563 1566.41 746.394 1566.41 734.732 1566.41 723.07 1557.4 714 1543.25 726.958 1576.7 743.803 1596 761.944 1596 802.113 1596 806 1505.93 806 1395.28 806 1302.65 803.409 1225.45 778.789 1201Z" fill="#FFA00F" fill-rule="evenodd"/><path d="M779.167 1201.29C803.445 1225.71 800.889 1314.43 800.889 1395.43 800.889 1495.71 798.333 1596 760 1596 760 1596 760 1596 760 1596 802.167 1596 806 1502.14 806 1395.43 806 1291.29 800.889 1223.14 777.889 1200L779.167 1201.29Z" fill="#FFFFFF" fill-rule="evenodd"/><path d="M766 1596C766 1596 767.28 1596 768.561 1596 767.28 1596 766 1596 766 1596ZM877.393 1197.16C878.673 1197.16 879.953 1195.87 879.953 1195.87 879.953 1195.87 879.953 1195.87 881.234 1195.87 903 1184.29 864.589 1174 828.738 1177.86 801.85 1181.72 771.121 1190.73 782.645 1204.88 782.645 1204.88 782.645 1204.88 782.645 1204.88 803.131 1233.18 805.692 1307.8 805.692 1395.29 805.692 1499.51 801.85 1585.71 768.561 1596 805.692 1584.42 849.224 1585.71 883.794 1596 883.794 1596 883.794 1596 883.794 1596 850.505 1586.99 845.383 1500.79 845.383 1395.29 845.383 1296.23 849.224 1213.88 877.393 1197.16Z" fill="#FF7300" fill-rule="evenodd"/><path d="M831 1190.16C842.625 1188.87 862 1185 862 1192.74 862 1201.76 849.083 1210.79 845.208 1234 846.5 1214.66 858.125 1197.89 855.542 1195.32 851.667 1190.16 832.292 1191.45 831 1190.16Z" fill="#FFFF82" fill-rule="evenodd"/><path d="M766 1596C766 1596 767.28 1596 768.561 1596 767.28 1596 766 1596 766 1596ZM877.393 1197.16C878.673 1197.16 879.953 1195.87 879.953 1195.87 879.953 1195.87 879.953 1195.87 881.234 1195.87 903 1184.29 864.589 1174 828.738 1177.86 801.85 1181.72 771.121 1190.73 782.645 1204.88 782.645 1204.88 782.645 1204.88 782.645 1204.88 803.131 1233.18 805.692 1307.8 805.692 1395.29 805.692 1499.51 801.85 1585.71 768.561 1596 805.692 1584.42 849.224 1585.71 883.794 1596 883.794 1596 883.794 1596 883.794 1596 850.505 1586.99 845.383 1500.79 845.383 1395.29 845.383 1296.23 849.224 1213.88 877.393 1197.16ZM862.028 1195.87C838.981 1222.89 833.86 1289.79 833.86 1395.29 833.86 1482.78 837.701 1544.54 851.785 1577.99 845.383 1576.7 838.981 1576.7 831.299 1576.7 821.056 1575.41 809.533 1545.82 812.093 1523.95 815.935 1490.5 817.215 1448.04 817.215 1395.29 817.215 1301.37 813.374 1235.76 795.448 1204.88 794.168 1203.59 795.448 1198.45 798.009 1197.16 804.411 1194.59 815.935 1190.73 830.019 1189.44 841.542 1188.15 850.505 1189.44 859.467 1189.44 862.028 1189.44 863.308 1194.59 862.028 1195.87ZM872.271 1186.87C872.271 1186.87 872.271 1186.87 872.271 1186.87Z" fill="#EA5500" fill-rule="evenodd"/><path d="M965.168 1384.06C965.168 1346.81 985.716 1310.84 979.295 1281.3 974.158 1254.33 970.305 1226.07 942.052 1195.24 904.81 1154.14 789.231 1149 743 1201.66 743 1201.66 743 1201.66 743 1201.66 749.421 1197.81 755.842 1195.24 762.263 1195.24 771.252 1195.24 777.674 1199.09 782.81 1205.52 782.81 1205.52 782.81 1205.52 782.81 1205.52 771.252 1191.39 802.074 1182.4 829.042 1178.54 865 1174.69 903.526 1184.97 881.695 1196.53 882.979 1195.24 882.979 1195.24 882.979 1195.24 884.263 1195.24 884.263 1195.24 884.263 1195.24 885.547 1195.24 885.547 1195.24 886.831 1195.24 888.116 1195.24 888.116 1195.24 889.4 1195.24 890.684 1195.24 891.968 1195.24 893.253 1195.24 893.253 1195.24 893.253 1195.24 893.253 1195.24 894.537 1195.24 895.821 1195.24 895.821 1195.24 895.821 1195.24 895.821 1195.24 897.105 1195.24 897.105 1196.53 898.389 1196.53 899.674 1196.53 899.674 1196.53 899.674 1196.53 899.674 1196.53 900.958 1196.53 902.242 1197.81 902.242 1197.81 903.526 1197.81 903.526 1197.81 903.526 1197.81 903.526 1199.09 904.81 1199.09 906.095 1200.38 906.095 1200.38 906.095 1200.38 906.095 1200.38 907.379 1200.38 908.663 1201.66 908.663 1201.66 909.947 1202.95 909.947 1202.95 909.947 1202.95 911.231 1204.23 911.231 1204.23 911.231 1204.23 912.516 1204.23 912.516 1205.52 912.516 1205.52 913.8 1205.52 913.8 1206.8 915.084 1208.09 915.084 1208.09 915.084 1208.09 915.084 1208.09 916.368 1209.37 916.368 1209.37 917.652 1210.66 917.652 1210.66 917.652 1211.94 918.937 1211.94 918.937 1213.22 920.221 1213.22 920.221 1214.51 920.221 1214.51 921.505 1214.51 921.505 1215.79 921.505 1215.79 922.789 1217.08 924.074 1218.36 924.074 1219.65 924.074 1219.65 924.074 1219.65 924.074 1220.93 925.358 1222.22 926.642 1223.5 926.642 1223.5 926.642 1223.5 926.642 1223.5 927.926 1224.78 927.926 1226.07 929.21 1227.35 929.21 1228.64 929.21 1228.64 929.21 1228.64 930.495 1229.92 930.495 1231.21 931.779 1232.49 931.779 1233.78 931.779 1233.78 931.779 1233.78 933.063 1235.06 933.063 1236.34 934.347 1237.63 934.347 1238.91 934.347 1238.91 934.347 1238.91 935.631 1240.2 935.631 1242.77 936.916 1244.05 942.052 1258.18 947.189 1274.88 951.042 1292.86 957.463 1323.69 936.916 1358.37 936.916 1395.62 936.916 1430.3 957.463 1462.41 952.326 1490.67 940.768 1549.76 920.221 1590.86 894.537 1596 895.821 1596 895.821 1596 895.821 1596 903.526 1596 922.789 1588.29 936.916 1575.45 954.895 1560.03 972.874 1525.35 981.863 1479.11 987 1450.85 965.168 1418.74 965.168 1384.06ZM884.263 1596C884.263 1596 884.263 1596 884.263 1596 884.263 1596 884.263 1596 884.263 1596Z" fill="#FF9B09" fill-rule="evenodd"/><path d="M917.564 1210C931.667 1226.71 945.769 1256.27 953.461 1293.54 956.026 1308.96 950.897 1326.96 945.769 1344.95 941.923 1361.66 938.077 1378.36 938.077 1395.07 938.077 1411.78 941.923 1427.2 947.051 1441.34 950.897 1459.33 958.59 1477.33 954.744 1491.46 947.051 1533.88 930.385 1567.29 915 1584 915 1584 915 1584 915 1584 931.667 1566.01 953.461 1532.59 962.436 1490.18 965 1474.76 959.872 1458.05 954.744 1440.05 950.897 1425.92 945.769 1410.49 945.769 1395.07 945.769 1378.36 950.897 1361.66 954.744 1346.23 959.872 1326.96 963.718 1308.96 961.154 1292.25 952.179 1253.7 932.949 1226.71 917.564 1210Z" fill="#FF8100" fill-rule="evenodd"/><path d="M950.563 1292.68C957 1323.53 936.402 1358.23 936.402 1395.5 936.402 1430.2 957 1462.33 951.851 1490.61 940.264 1553.59 915.805 1596 888.77 1596 850.149 1596 845 1506.03 845 1395.5 845 1284.97 850.149 1195 888.77 1195 915.805 1195 937.69 1233.56 950.563 1292.68Z" stroke="#735C00" stroke-width="2.29167" stroke-linecap="round" stroke-linejoin="round" stroke-miterlimit="10" fill="none" fill-rule="evenodd"/><path d="M701.724 1292.68C695.287 1323.53 715.885 1358.23 715.885 1395.5 715.885 1430.2 694 1462.33 700.437 1490.61 712.023 1553.59 735.195 1596 762.23 1596 802.138 1596 806 1506.03 806 1395.5 806 1284.97 802.138 1195 762.23 1195 736.483 1195 713.31 1233.56 701.724 1292.68Z" stroke="#735C00" stroke-width="2.29167" stroke-linecap="round" stroke-linejoin="round" stroke-miterlimit="10" fill="none" fill-rule="evenodd"/><path d="M766 1596C766 1596 767.28 1596 768.561 1596 767.28 1596 766 1596 766 1596ZM877.393 1197.16C878.673 1197.16 879.953 1195.87 879.953 1195.87 879.953 1195.87 879.953 1195.87 881.234 1195.87 903 1184.29 864.589 1174 828.738 1177.86 801.85 1181.72 771.121 1190.73 782.645 1204.88 782.645 1204.88 782.645 1204.88 782.645 1204.88 803.131 1233.18 805.692 1307.8 805.692 1395.29 805.692 1499.51 801.85 1585.71 768.561 1596 805.692 1584.42 849.224 1585.71 883.794 1596 883.794 1596 883.794 1596 883.794 1596 850.505 1586.99 845.383 1500.79 845.383 1395.29 845.383 1296.23 849.224 1213.88 877.393 1197.16Z" stroke="#735C00" stroke-width="2.29167" stroke-linecap="round" stroke-linejoin="round" stroke-miterlimit="10" fill="none" fill-rule="evenodd"/><path d="M965.168 1384.06C965.168 1346.81 985.716 1310.84 979.295 1281.3 974.158 1254.33 970.305 1226.07 942.052 1195.24 904.81 1154.14 789.231 1149 743 1201.66 743 1201.66 743 1201.66 743 1201.66 749.421 1197.81 755.842 1195.24 762.263 1195.24 771.252 1195.24 777.674 1199.09 782.81 1205.52 782.81 1205.52 782.81 1205.52 782.81 1205.52 771.252 1191.39 802.074 1182.4 829.042 1178.54 865 1174.69 903.526 1184.97 881.695 1196.53 882.979 1195.24 882.979 1195.24 882.979 1195.24 884.263 1195.24 884.263 1195.24 884.263 1195.24 885.547 1195.24 885.547 1195.24 886.831 1195.24 888.116 1195.24 888.116 1195.24 889.4 1195.24 890.684 1195.24 891.968 1195.24 893.253 1195.24 893.253 1195.24 893.253 1195.24 893.253 1195.24 894.537 1195.24 895.821 1195.24 895.821 1195.24 895.821 1195.24 895.821 1195.24 897.105 1195.24 897.105 1196.53 898.389 1196.53 899.674 1196.53 899.674 1196.53 899.674 1196.53 899.674 1196.53 900.958 1196.53 902.242 1197.81 902.242 1197.81 903.526 1197.81 903.526 1197.81 903.526 1197.81 903.526 1199.09 904.81 1199.09 906.095 1200.38 906.095 1200.38 906.095 1200.38 906.095 1200.38 907.379 1200.38 908.663 1201.66 908.663 1201.66 909.947 1202.95 909.947 1202.95 909.947 1202.95 911.231 1204.23 911.231 1204.23 911.231 1204.23 912.516 1204.23 912.516 1205.52 912.516 1205.52 913.8 1205.52 913.8 1206.8 915.084 1208.09 915.084 1208.09 915.084 1208.09 915.084 1208.09 916.368 1209.37 916.368 1209.37 917.652 1210.66 917.652 1210.66 917.652 1211.94 918.937 1211.94 918.937 1213.22 920.221 1213.22 920.221 1214.51 920.221 1214.51 921.505 1214.51 921.505 1215.79 921.505 1215.79 922.789 1217.08 924.074 1218.36 924.074 1219.65 924.074 1219.65 924.074 1219.65 924.074 1220.93 925.358 1222.22 926.642 1223.5 926.642 1223.5 926.642 1223.5 926.642 1223.5 927.926 1224.78 927.926 1226.07 929.21 1227.35 929.21 1228.64 929.21 1228.64 929.21 1228.64 930.495 1229.92 930.495 1231.21 931.779 1232.49 931.779 1233.78 931.779 1233.78 931.779 1233.78 933.063 1235.06 933.063 1236.34 934.347 1237.63 934.347 1238.91 934.347 1238.91 934.347 1238.91 935.631 1240.2 935.631 1242.77 936.916 1244.05 942.052 1258.18 947.189 1274.88 951.042 1292.86 957.463 1323.69 936.916 1358.37 936.916 1395.62 936.916 1430.3 957.463 1462.41 952.326 1490.67 940.768 1549.76 920.221 1590.86 894.537 1596 895.821 1596 895.821 1596 895.821 1596 903.526 1596 922.789 1588.29 936.916 1575.45 954.895 1560.03 972.874 1525.35 981.863 1479.11 987 1450.85 965.168 1418.74 965.168 1384.06ZM884.263 1596C884.263 1596 884.263 1596 884.263 1596 884.263 1596 884.263 1596 884.263 1596Z" stroke="#735C00" stroke-width="2.29167" stroke-linecap="round" stroke-linejoin="round" stroke-miterlimit="10" fill="none" fill-rule="evenodd"/></g></svg>