<svg width="237" height="432" xmlns="http://www.w3.org/2000/svg" xmlns:xlink="http://www.w3.org/1999/xlink" xml:space="preserve" overflow="hidden"><g transform="translate(-3470 -1159)"><path d="M3703.56 1272.68C3710 1303.53 3689.4 1338.23 3689.4 1375.5 3689.4 1410.2 3710 1442.33 3704.85 1470.61 3693.27 1533.59 3668.81 1576 3641.78 1576 3603.16 1576 3589 1486.03 3589 1375.5 3589 1264.97 3603.16 1175 3641.78 1175 3668.81 1175 3690.69 1213.56 3703.56 1272.68Z" fill="#FFFF61" fill-rule="evenodd"/><path d="M3473.44 1272.68C3468.29 1303.53 3488.88 1338.23 3488.88 1375.5 3488.88 1410.2 3467 1442.33 3472.15 1470.61 3485.02 1533.59 3508.19 1576 3535.22 1576 3575.13 1576 3588 1486.03 3588 1375.5 3588 1264.97 3575.13 1175 3535.22 1175 3509.48 1175 3486.31 1213.56 3473.44 1272.68Z" fill="#FFFF61" fill-rule="evenodd"/><path d="M3641.74 1575.88C3603.25 1575.88 3589.13 1486.03 3589.13 1375.64 3589.13 1265.25 3603.25 1175.4 3641.74 1175.4 3644.3 1175.4 3646.87 1175.4 3648.15 1175.4 3635.32 1166.42 3621.21 1160 3590.42 1160 3558.34 1160 3539.09 1166.42 3526.26 1176.69 3528.83 1175.4 3532.68 1175.4 3535.25 1175.4 3575.02 1175.4 3587.85 1265.25 3587.85 1375.64 3587.85 1486.03 3575.02 1575.88 3535.25 1575.88 3528.83 1575.88 3522.41 1574.6 3516 1569.46 3530.11 1581.01 3560.91 1590 3598.11 1590 3628.91 1590 3635.32 1583.58 3652 1574.6 3648.15 1575.88 3645.58 1575.88 3641.74 1575.88Z" fill="#F3B31D" fill-rule="evenodd"/><path d="M3652 1574.6C3648.15 1575.88 3645.58 1575.88 3641.74 1575.88 3603.25 1575.88 3589.13 1486.03 3589.13 1375.64 3589.13 1265.25 3603.25 1175.4 3641.74 1175.4 3644.3 1175.4 3646.87 1175.4 3648.15 1175.4 3635.32 1166.42 3621.21 1160 3590.42 1160 3558.34 1160 3539.09 1166.42 3526.26 1176.69 3528.83 1175.4 3532.68 1175.4 3535.25 1175.4 3575.02 1175.4 3587.85 1265.25 3587.85 1375.64 3587.85 1486.03 3575.02 1575.88 3535.25 1575.88 3528.83 1575.88 3522.41 1574.6 3516 1569.46 3530.11 1581.01 3560.91 1590 3598.11 1590 3628.91 1590 3635.32 1583.58 3652 1574.6ZM3567.32 1566.9C3587.85 1533.52 3590.42 1460.36 3590.42 1375.64 3590.42 1289.64 3587.85 1213.91 3566.04 1181.82 3564.75 1179.25 3585.28 1171.55 3598.11 1171.55 3612.23 1171.55 3613.51 1179.25 3612.23 1180.54 3589.13 1213.91 3587.85 1289.64 3587.85 1375.64 3587.85 1460.36 3589.13 1534.81 3609.66 1568.18 3612.23 1570.75 3610.94 1578.45 3598.11 1578.45 3585.28 1578.45 3566.04 1570.75 3567.32 1566.9Z" fill="#DA9503" fill-rule="evenodd"/><path d="M3597 1377.85C3597 1463.93 3609.69 1526.88 3624.92 1559 3624.92 1559 3624.92 1559 3624.92 1559 3610.96 1528.17 3604.62 1463.93 3604.62 1377.85 3604.62 1302.06 3609.69 1217.26 3630 1189 3630 1189 3630 1189 3630 1189 3610.96 1214.69 3597 1280.22 3597 1377.85Z" fill="#FFFFFF" fill-rule="evenodd"/><path d="M3676.78 1215C3685.59 1230.44 3693.15 1252.31 3698.19 1276.74 3701.96 1292.18 3696.93 1310.19 3691.89 1329.48 3688.11 1344.92 3684.33 1361.64 3684.33 1378.36 3684.33 1395.08 3689.37 1410.52 3693.15 1425.95 3698.19 1442.67 3701.96 1459.39 3699.44 1473.54 3695.67 1492.84 3690.63 1510.84 3685.59 1524.99 3678.04 1540.43 3678.04 1543 3685.59 1530.14 3693.15 1514.7 3700.7 1496.69 3704.48 1474.83 3707 1459.39 3701.96 1442.67 3696.93 1424.66 3693.15 1409.23 3689.37 1393.79 3689.37 1378.36 3689.37 1361.64 3693.15 1346.2 3696.93 1330.77 3701.96 1311.47 3705.74 1293.47 3703.22 1275.46 3698.19 1251.02 3689.37 1231.73 3679.3 1216.29 3674.26 1207.29 3673 1206 3676.78 1215Z" fill="#FFFFFF" fill-rule="evenodd"/><path d="M3662 1192C3676.09 1208.71 3683.78 1239.55 3691.47 1276.82 3695.31 1292.25 3688.91 1310.24 3683.78 1329.52 3679.94 1344.94 3676.09 1361.65 3676.09 1378.36 3676.09 1395.07 3681.22 1410.49 3685.06 1425.91 3690.19 1442.62 3696.59 1460.61 3694.03 1476.03 3686.34 1517.16 3677.38 1549.29 3662 1566 3662 1566 3662 1566 3662 1566 3677.38 1548.01 3692.75 1517.16 3700.44 1474.75 3703 1459.33 3699.16 1442.62 3694.03 1424.63 3688.91 1409.2 3685.06 1393.78 3685.06 1378.36 3685.06 1361.65 3688.91 1346.23 3692.75 1330.8 3697.88 1311.53 3703 1293.53 3699.16 1275.54 3691.47 1238.27 3677.38 1208.71 3662 1192Z" fill="#FFDB3C" fill-rule="evenodd"/><path d="M3478.85 1276.09C3476.28 1294.05 3480.13 1312.01 3485.26 1331.26 3489.1 1346.65 3494.23 1362.05 3494.23 1378.72 3494.23 1394.12 3489.1 1409.52 3485.26 1424.91 3480.13 1442.87 3475 1459.55 3477.56 1474.95 3481.41 1490.34 3486.54 1503.17 3491.67 1516 3491.67 1516 3491.67 1516 3491.67 1516 3486.54 1504.45 3485.26 1489.06 3482.69 1473.66 3480.13 1459.55 3487.82 1442.87 3492.95 1426.19 3496.79 1410.8 3503.21 1395.4 3503.21 1378.72 3503.21 1362.05 3496.79 1345.37 3492.95 1329.97 3487.82 1310.73 3480.13 1292.77 3483.97 1277.37 3492.95 1233.75 3507.05 1197.83 3525 1185 3525 1185 3525 1185 3525 1185 3505.77 1199.11 3489.1 1229.9 3478.85 1276.09Z" fill="#FFFFFF" fill-rule="evenodd"/><path d="M3553.2 1186C3563.43 1221.9 3572.38 1291.12 3572.38 1359.07 3572.38 1469.31 3560.87 1548.8 3521.24 1548.8 3509.73 1548.8 3498.23 1541.1 3488 1525.72 3500.78 1559.05 3514.85 1577 3534.03 1577 3572.38 1577 3589 1489.83 3589 1378.3 3589 1285.99 3576.22 1209.08 3553.2 1186Z" fill="#FFE042" fill-rule="evenodd"/><path d="M3553.02 1186.56C3577.64 1209.62 3582.82 1299.29 3582.82 1378.72 3582.82 1479.92 3569.86 1576 3531 1576 3531 1576 3531 1576 3531 1576 3573.75 1576 3588 1486.33 3588 1378.72 3588 1276.24 3575.05 1207.06 3551.73 1184L3553.02 1186.56Z" fill="#FFFFFF" fill-rule="evenodd"/><path d="M3593.36 1174.54C3577.52 1172 3570.92 1191.04 3576.2 1205 3574.88 1197.38 3563 1188.5 3563 1182.15 3569.6 1177.08 3577.52 1172 3596 1175.81" fill="#DA9503" fill-rule="evenodd"/><path d="M3560 1182C3561.27 1180.7 3561.27 1180.7 3561.27 1180.7 3568.91 1175.5 3574 1172.9 3589.27 1172.9 3604.55 1172.9 3605.82 1175.5 3613.45 1180.7 3616 1180.7 3616 1180.7 3616 1180.7 3607.09 1175.5 3607.09 1169 3590.55 1169 3574 1169 3567.64 1175.5 3560 1182Z" fill="#FFFFFF" fill-rule="evenodd"/><path d="M3703.56 1272.68C3710 1303.53 3689.4 1338.23 3689.4 1375.5 3689.4 1410.2 3710 1442.33 3704.85 1470.61 3693.27 1533.59 3668.81 1576 3641.78 1576 3603.16 1576 3589 1486.03 3589 1375.5 3589 1264.97 3603.16 1175 3641.78 1175 3668.81 1175 3690.69 1213.56 3703.56 1272.68Z" stroke="#639C00" stroke-width="2.29167" stroke-linecap="round" stroke-linejoin="round" stroke-miterlimit="10" fill="none" fill-rule="evenodd"/><path d="M3473.44 1272.68C3468.29 1303.53 3488.88 1338.23 3488.88 1375.5 3488.88 1410.2 3467 1442.33 3472.15 1470.61 3485.02 1533.59 3508.19 1576 3535.22 1576 3575.13 1576 3588 1486.03 3588 1375.5 3588 1264.97 3575.13 1175 3535.22 1175 3509.48 1175 3486.31 1213.56 3473.44 1272.68Z" stroke="#639C00" stroke-width="2.29167" stroke-linecap="round" stroke-linejoin="round" stroke-miterlimit="10" fill="none" fill-rule="evenodd"/><path d="M3641.74 1575.88C3603.25 1575.88 3589.13 1486.03 3589.13 1375.64 3589.13 1265.25 3603.25 1175.4 3641.74 1175.4 3644.3 1175.4 3646.87 1175.4 3648.15 1175.4 3635.32 1166.42 3621.21 1160 3590.42 1160 3558.34 1160 3539.09 1166.42 3526.26 1176.69 3528.83 1175.4 3532.68 1175.4 3535.25 1175.4 3575.02 1175.4 3587.85 1265.25 3587.85 1375.64 3587.85 1486.03 3575.02 1575.88 3535.25 1575.88 3528.83 1575.88 3522.41 1574.6 3516 1569.46 3530.11 1581.01 3560.91 1590 3598.11 1590 3628.91 1590 3635.32 1583.58 3652 1574.6 3648.15 1575.88 3645.58 1575.88 3641.74 1575.88Z" stroke="#639C00" stroke-width="2.29167" stroke-linecap="round" stroke-linejoin="round" stroke-miterlimit="10" fill="none" fill-rule="evenodd"/><path d="M3615 1182C3607.33 1176.86 3606.05 1173 3589.42 1173 3572.79 1173 3567.67 1176.86 3560 1182" stroke="#639C00" stroke-width="2.29167" stroke-linecap="round" stroke-linejoin="round" stroke-miterlimit="10" fill="none" fill-rule="evenodd"/><path d="M3565 1570C3570.11 1574.8 3575.22 1576 3590.56 1576 3603.33 1576 3604.61 1573.6 3611 1570" stroke="#639C00" stroke-width="2.29167" stroke-linecap="round" stroke-linejoin="round" stroke-miterlimit="10" fill="none" fill-rule="evenodd"/><path d="M3606 1189C3598.5 1201.96 3593.5 1235.67 3591 1259 3591 1239.56 3597.25 1198.07 3606 1189Z" fill="#FFFFB5" fill-rule="evenodd"/></g></svg>