<svg width="261" height="437" xmlns="http://www.w3.org/2000/svg" xmlns:xlink="http://www.w3.org/1999/xlink" xml:space="preserve" overflow="hidden"><g transform="translate(-1088 -524)"><path d="M1316.59 655.895C1321.72 686.719 1301.2 721.396 1301.2 758.642 1301.2 793.319 1323 825.428 1317.87 853.684 1305.04 916.617 1281.96 959 1255.02 959 1216.54 959 1205 869.096 1205 758.642 1205 646.904 1216.54 557 1255.02 557 1280.67 557 1303.76 596.815 1316.59 655.895Z" fill="#E7A0AB" fill-rule="evenodd"/><path d="M1216 758.625C1216 844.469 1221.2 907.25 1236.8 938 1236.8 938 1236.8 938 1236.8 938 1222.5 907.25 1223.8 843.188 1223.8 758.625 1223.8 681.75 1221.2 597.187 1242 569 1242 569 1242 569 1242 569 1222.5 595.906 1216 659.969 1216 758.625Z" fill="#FFFFFF" fill-rule="evenodd"/><path d="M1287.89 594.695C1296.96 611.367 1304.74 631.886 1309.93 657.534 1313.81 672.924 1308.63 690.878 1303.44 708.832 1299.56 725.504 1295.67 740.893 1295.67 758.847 1295.67 774.237 1300.85 790.908 1304.74 805.015 1309.93 822.969 1313.81 838.359 1311.22 853.748 1307.33 872.985 1302.15 889.656 1296.96 903.763 1289.19 920.435 1289.19 923 1296.96 908.893 1304.74 894.786 1312.52 875.55 1316.41 853.748 1319 838.359 1313.81 821.687 1308.63 803.733 1304.74 789.626 1300.85 774.237 1300.85 758.847 1300.85 742.176 1304.74 725.504 1308.63 710.115 1313.81 690.878 1317.7 672.924 1315.11 656.252 1309.93 631.886 1300.85 611.367 1290.48 595.977 1285.3 587 1284 587 1287.89 594.695Z" fill="#FFFFFF" fill-rule="evenodd"/><path d="M1274 572C1288.09 587.423 1295.78 618.268 1303.47 656.825 1307.31 672.247 1300.91 690.241 1295.78 708.234 1291.94 724.942 1288.09 740.364 1288.09 758.357 1288.09 773.78 1291.94 790.488 1297.06 804.625 1302.19 822.619 1308.59 840.612 1306.03 854.749 1298.34 897.161 1289.37 928.007 1274 946 1274 946 1274 946 1274 946 1289.37 928.007 1304.75 895.876 1312.44 853.464 1315 838.041 1311.16 821.333 1306.03 803.34 1300.91 789.203 1297.06 773.78 1297.06 758.357 1297.06 741.649 1300.91 724.942 1304.75 709.519 1309.87 690.241 1315 672.247 1311.16 655.539 1303.47 616.983 1288.09 588.708 1274 572Z" fill="#D97286" fill-rule="evenodd"/><path d="M1091.43 655.895C1085 686.719 1105.57 721.396 1105.57 758.642 1105.57 793.319 1085 825.428 1090.14 853.684 1103 916.617 1126.14 959 1153.14 959 1191.71 959 1202 869.096 1202 758.642 1202 646.904 1191.71 557 1153.14 557 1127.43 557 1104.29 596.815 1091.43 655.895Z" fill="#E7A0AB" fill-rule="evenodd"/><path d="M1097.13 656.089C1093.28 672.768 1097.13 690.729 1102.26 709.973 1106.1 725.368 1111.23 742.047 1111.23 758.725 1111.23 774.12 1106.1 789.516 1102.26 803.628 1097.13 821.589 1092 838.268 1095.85 853.663 1098.41 869.058 1103.54 883.171 1108.67 896 1108.67 896 1108.67 896 1108.67 896 1103.54 883.171 1102.26 867.775 1099.69 853.663 1097.13 838.268 1104.82 822.872 1109.95 804.911 1113.79 790.799 1120.21 774.12 1120.21 758.725 1120.21 740.764 1113.79 725.368 1109.95 708.69 1106.1 690.729 1098.41 672.768 1100.97 657.372 1109.95 612.469 1124.05 577.83 1142 565 1142 565 1142 565 1142 565 1122.77 579.113 1106.1 609.903 1097.13 656.089Z" fill="#FFFFFF" fill-rule="evenodd"/><path d="M1170.09 565C1180.3 600.935 1181.58 661.254 1181.58 727.99 1181.58 839.645 1177.75 929.482 1138.18 929.482 1126.7 929.482 1115.21 920.498 1105 906.381 1117.76 938.466 1134.36 959 1153.5 959 1191.79 959 1202 869.163 1202 758.792 1202 666.388 1193.07 588.101 1170.09 565Z" fill="#DC778C" fill-rule="evenodd"/><path d="M1170.12 565.283C1194.35 589.649 1198.18 678.14 1198.18 758.935 1198.18 858.968 1187.98 959 1151 959 1151 959 1151 959 1151 959 1193.08 959 1202 865.38 1202 758.935 1202 655.055 1191.8 587.085 1168.85 564L1170.12 565.283Z" fill="#FFFFFF" fill-rule="evenodd"/><path d="M1243.57 561.104C1244.86 561.104 1244.86 559.82 1246.14 559.82 1246.14 559.82 1246.14 559.82 1246.14 559.82 1268 548.268 1230.71 538 1194.71 541.851 1167.71 544.418 1162.57 554.686 1174.14 568.805 1174.14 568.805 1174.14 568.805 1174.14 568.805 1194.71 597.043 1202.43 671.488 1202.43 758.768 1202.43 862.735 1193.43 948.732 1160 957.716 1196 947.448 1215.29 947.448 1250 959 1250 959 1250 959 1250 959 1215.29 950.015 1205 864.018 1205 758.768 1205 659.936 1215.29 577.79 1243.57 561.104Z" fill="#C34A67" fill-rule="evenodd"/><path d="M1195 554.053C1208.2 551.526 1228 549 1228 556.579 1228 564.158 1214.8 574.263 1209.52 597 1212.16 578.053 1224.04 561.632 1221.4 559.105 1216.12 554.053 1197.64 555.316 1195 554.053Z" fill="#FFFFFF" fill-rule="evenodd"/><path d="M1243.57 561.104C1244.86 561.104 1244.86 559.82 1246.14 559.82 1246.14 559.82 1246.14 559.82 1246.14 559.82 1268 548.268 1230.71 538 1194.71 541.851 1167.71 544.418 1162.57 554.686 1174.14 568.805 1174.14 568.805 1174.14 568.805 1174.14 568.805 1194.71 597.043 1202.43 671.488 1202.43 758.768 1202.43 862.735 1193.43 948.732 1160 957.716 1196 947.448 1215.29 947.448 1250 959 1250 959 1250 959 1250 959 1215.29 950.015 1205 864.018 1205 758.768 1205 659.936 1215.29 577.79 1243.57 561.104Z" fill="#AA2C4D" fill-rule="evenodd"/><path d="M1226.41 559.703C1204.35 586.663 1201.76 653.422 1201.76 758.696 1201.76 845.997 1203.05 906.336 1217.32 941 1210.84 939.716 1203.05 939.716 1196.57 938.432 1186.19 938.432 1200.46 908.904 1203.05 887.079 1206.95 853.7 1205.65 811.333 1205.65 758.696 1205.65 664.977 1204.35 599.502 1186.19 568.69 1184.89 566.122 1186.19 562.271 1188.78 560.987 1195.27 558.419 1181 554.568 1195.27 553.284 1205.65 552 1216.03 552 1223.81 553.284 1227.7 553.284 1229 558.419 1226.41 559.703Z" fill="#AA2C4D" fill-rule="evenodd"/><rect x="1237" y="551" width="0.999634" height="0.999695" fill="#AA2C4D"/><path d="M1330.46 747.195C1330.46 709.969 1351 674.026 1344.58 644.502 1339.44 617.545 1335.59 589.304 1307.34 558.496 1270.11 517.419 1180.22 511 1134 563.63 1134 564.914 1134 564.914 1134 564.914 1140.42 559.78 1146.84 557.212 1153.26 557.212 1160.96 557.212 1167.38 562.347 1173.8 568.765 1173.8 568.765 1173.8 568.765 1173.8 568.765 1162.25 554.645 1167.38 544.375 1194.35 541.808 1230.3 537.957 1267.54 548.227 1245.71 559.78 1246.99 559.78 1248.28 558.496 1248.28 558.496 1248.28 558.496 1249.56 558.496 1249.56 558.496 1249.56 558.496 1250.85 558.496 1250.85 558.496 1252.13 557.212 1253.41 557.212 1254.7 557.212 1255.98 557.212 1257.27 557.212 1257.27 558.496 1258.55 558.496 1258.55 558.496 1258.55 558.496 1259.83 558.496 1259.83 558.496 1261.12 558.496 1261.12 558.496 1261.12 558.496 1261.12 558.496 1262.4 558.496 1263.69 559.78 1264.97 559.78 1264.97 559.78 1264.97 559.78 1264.97 559.78 1266.25 559.78 1266.25 561.063 1267.54 561.063 1267.54 561.063 1267.54 561.063 1268.82 561.063 1268.82 562.347 1270.11 562.347 1270.11 562.347 1270.11 562.347 1271.39 562.347 1271.39 563.63 1271.39 563.63 1272.67 564.914 1273.96 564.914 1273.96 564.914 1273.96 564.914 1273.96 566.198 1275.24 566.198 1276.53 567.482 1276.53 567.482 1276.53 567.482 1276.53 567.482 1277.81 568.765 1277.81 568.765 1279.09 570.049 1280.38 571.333 1280.38 571.333 1280.38 571.333 1280.38 571.333 1280.38 571.333 1281.66 572.616 1282.95 573.9 1282.95 573.9 1282.95 573.9 1282.95 575.184 1284.23 575.184 1284.23 576.467 1285.51 577.751 1285.51 577.751 1285.51 577.751 1285.51 577.751 1286.8 579.035 1288.08 580.318 1288.08 581.602 1288.08 581.602 1288.08 581.602 1288.08 581.602 1289.37 582.885 1290.65 584.169 1290.65 585.453 1290.65 586.737 1291.93 586.737 1291.93 586.737 1291.93 588.02 1293.22 589.304 1293.22 590.588 1293.22 590.588 1294.5 590.588 1294.5 591.871 1294.5 593.155 1295.79 594.439 1295.79 595.722 1297.07 595.722 1297.07 597.006 1297.07 597.006 1297.07 598.29 1298.35 599.573 1298.35 600.857 1298.35 600.857 1299.64 602.141 1299.64 602.141 1299.64 603.424 1300.92 604.708 1300.92 607.275 1307.34 621.396 1312.48 638.083 1316.33 656.055 1321.47 686.863 1300.92 721.522 1300.92 758.748 1300.92 793.407 1322.75 825.499 1317.62 853.739 1306.06 912.788 1284.23 953.865 1259.83 959 1259.83 959 1259.83 959 1261.12 959 1267.54 959 1288.08 951.298 1300.92 938.461 1320.18 923.057 1336.88 888.398 1345.86 842.186 1351 813.946 1330.46 780.57 1330.46 747.195Z" fill="#D97286" fill-rule="evenodd"/><path d="M1282.56 574C1296.67 590.663 1309.49 618.863 1318.46 657.316 1321.03 672.698 1315.9 690.643 1310.77 708.588 1306.92 725.251 1301.79 740.632 1301.79 758.577 1301.79 773.959 1306.92 790.622 1310.77 804.722 1315.9 822.667 1322.31 840.612 1319.74 854.711 1312.05 897.01 1295.38 930.337 1280 947 1280 947 1280 947 1280 947 1295.38 929.055 1318.46 895.729 1326.15 853.43 1330 838.048 1324.87 821.385 1319.74 803.44 1315.9 789.34 1310.77 773.959 1310.77 758.577 1310.77 741.914 1314.62 725.251 1319.74 709.87 1323.59 690.643 1328.72 672.698 1324.87 656.034 1317.18 617.581 1296.67 590.663 1282.56 574Z" fill="#C3586F" fill-rule="evenodd"/><path d="M1317.09 656.395C1322.22 687.219 1301.7 721.896 1301.7 759.142 1301.7 793.819 1323.5 825.928 1318.37 854.184 1305.54 917.117 1282.46 959.5 1255.52 959.5 1217.04 959.5 1205.5 869.596 1205.5 759.142 1205.5 647.404 1217.04 557.5 1255.52 557.5 1281.17 557.5 1304.26 597.315 1317.09 656.395Z" stroke="#333333" stroke-width="2.86476" stroke-linecap="round" stroke-linejoin="round" stroke-miterlimit="10" fill="none" fill-rule="evenodd"/><path d="M1091.93 656.395C1085.5 687.219 1106.07 721.896 1106.07 759.142 1106.07 793.819 1085.5 825.928 1090.64 854.184 1103.5 917.117 1126.64 959.5 1153.64 959.5 1192.21 959.5 1202.5 869.596 1202.5 759.142 1202.5 647.404 1192.21 557.5 1153.64 557.5 1127.93 557.5 1104.79 597.315 1091.93 656.395Z" stroke="#333333" stroke-width="2.86476" stroke-linecap="round" stroke-linejoin="round" stroke-miterlimit="10" fill="none" fill-rule="evenodd"/><path d="M1244.07 561.604C1245.36 561.604 1245.36 560.32 1246.64 560.32 1246.64 560.32 1246.64 560.32 1246.64 560.32 1268.5 548.768 1231.21 538.5 1195.21 542.351 1168.21 544.918 1163.07 555.186 1174.64 569.305 1174.64 569.305 1174.64 569.305 1174.64 569.305 1195.21 597.543 1202.93 671.988 1202.93 759.268 1202.93 863.235 1193.93 949.232 1160.5 958.216 1196.5 947.948 1215.79 947.948 1250.5 959.5 1250.5 959.5 1250.5 959.5 1250.5 959.5 1215.79 950.515 1205.5 864.518 1205.5 759.268 1205.5 660.436 1215.79 578.29 1244.07 561.604Z" stroke="#333333" stroke-width="2.86476" stroke-linecap="round" stroke-linejoin="round" stroke-miterlimit="10" fill="none" fill-rule="evenodd"/><path d="M1330.96 747.695C1330.96 710.468 1351.5 674.526 1345.08 645.001 1339.94 618.044 1336.09 589.804 1307.84 558.996 1270.61 517.918 1180.72 511.5 1134.5 564.13 1134.5 565.414 1134.5 565.414 1134.5 565.414 1140.92 560.279 1147.34 557.712 1153.76 557.712 1161.46 557.712 1167.88 562.847 1174.3 569.265 1174.3 569.265 1174.3 569.265 1174.3 569.265 1162.75 555.145 1167.88 544.875 1194.85 542.308 1230.8 538.457 1268.04 548.726 1246.21 560.279 1247.49 560.279 1248.78 558.996 1248.78 558.996 1248.78 558.996 1250.06 558.996 1250.06 558.996 1250.06 558.996 1251.35 558.996 1251.35 558.996 1252.63 557.712 1253.91 557.712 1255.2 557.712 1256.48 557.712 1257.77 557.712 1257.77 558.996 1259.05 558.996 1259.05 558.996 1259.05 558.996 1260.33 558.996 1260.33 558.996 1261.62 558.996 1261.62 558.996 1261.62 558.996 1261.62 558.996 1262.9 558.996 1264.19 560.279 1265.47 560.279 1265.47 560.279 1265.47 560.279 1265.47 560.279 1266.75 560.279 1266.75 561.563 1268.04 561.563 1268.04 561.563 1268.04 561.563 1269.32 561.563 1269.32 562.847 1270.61 562.847 1270.61 562.847 1270.61 562.847 1271.89 562.847 1271.89 564.13 1271.89 564.13 1273.17 565.414 1274.46 565.414 1274.46 565.414 1274.46 565.414 1274.46 566.698 1275.74 566.698 1277.03 567.981 1277.03 567.981 1277.03 567.981 1277.03 567.981 1278.31 569.265 1278.31 569.265 1279.59 570.549 1280.88 571.832 1280.88 571.832 1280.88 571.832 1280.88 571.832 1280.88 571.832 1282.16 573.116 1283.45 574.4 1283.45 574.4 1283.45 574.4 1283.45 575.683 1284.73 575.683 1284.73 576.967 1286.01 578.251 1286.01 578.251 1286.01 578.251 1286.01 578.251 1287.3 579.534 1288.58 580.818 1288.58 582.102 1288.58 582.102 1288.58 582.102 1288.58 582.102 1289.87 583.385 1291.15 584.669 1291.15 585.953 1291.15 587.236 1292.43 587.236 1292.43 587.236 1292.43 588.52 1293.72 589.804 1293.72 591.087 1293.72 591.087 1295 591.087 1295 592.371 1295 593.655 1296.29 594.938 1296.29 596.222 1297.57 596.222 1297.57 597.506 1297.57 597.506 1297.57 598.789 1298.86 600.073 1298.86 601.357 1298.86 601.357 1300.14 602.64 1300.14 602.64 1300.14 603.924 1301.42 605.208 1301.42 607.775 1307.84 621.895 1312.98 638.583 1316.83 656.554 1321.97 687.362 1301.42 722.021 1301.42 759.248 1301.42 793.907 1323.25 825.999 1318.12 854.239 1306.56 913.288 1284.73 954.365 1260.33 959.5 1260.33 959.5 1260.33 959.5 1261.62 959.5 1268.04 959.5 1288.58 951.798 1301.42 938.961 1320.68 923.557 1337.38 888.898 1346.36 842.686 1351.5 814.445 1330.96 781.07 1330.96 747.695Z" stroke="#333333" stroke-width="2.86476" stroke-linecap="round" stroke-linejoin="round" stroke-miterlimit="10" fill="none" fill-rule="evenodd"/></g></svg>