<svg width="312" height="399" xmlns="http://www.w3.org/2000/svg" xmlns:xlink="http://www.w3.org/1999/xlink" xml:space="preserve" overflow="hidden"><g transform="translate(-1939 -1568)"><path d="M1940 1591C1940 1579.35 1968.58 1569 2002.35 1569 2037.42 1569 2066 1579.35 2066 1591 2066 1591 2066 1591 2066 1591 2066 1944.29 2066 1944.29 2066 1944.29 2066 1955.94 2037.42 1965 2002.35 1965 1968.58 1965 1940 1955.94 1940 1944.29 1940 1591 1940 1591 1940 1591Z" fill="#007C1D" fill-rule="evenodd"/><path d="M1947.3 1940.26C1959.02 1600.81 1959.02 1600.81 1959.02 1600.81 1959.02 1589.2 1987.67 1580.16 2022.84 1580.16 2037.16 1580.16 2047.58 1584.03 2058 1585.33 2046.28 1580.16 2029.35 1575 2008.51 1575 1973.35 1575 1946 1585.33 1946 1596.94 1946 1941.55 1946 1941.55 1946 1941.55 1946 1948 1947.3 1944.13 1947.3 1940.26Z" fill="#FFFFFF" fill-rule="evenodd"/><path d="M2056.7 1593.77C2043.67 1934.39 2043.67 1934.39 2043.67 1934.39 2043.67 1946.05 2016.33 1955.11 1981.16 1955.11 1966.84 1955.11 1956.42 1951.23 1946 1948.64 1956.42 1953.82 1973.35 1959 1995.49 1959 2029.35 1959 2058 1949.93 2058 1938.28 2058 1592.48 2058 1592.48 2058 1592.48 2058 1586 2056.7 1589.89 2056.7 1593.77Z" fill="#00670D" fill-rule="evenodd"/><path d="M2249 1591C2249 1579.35 2220.71 1569 2186 1569 2151.29 1569 2123 1579.35 2123 1591 2123 1591 2123 1591 2123 1591 2123 1944.29 2123 1944.29 2123 1944.29 2123 1955.94 2151.29 1965 2186 1965 2220.71 1965 2249 1955.94 2249 1944.29 2249 1591 2249 1591 2249 1591Z" fill="#007C1D" fill-rule="evenodd"/><path d="M2122.29 1944.29C2122.29 1591 2122.29 1591 2122.29 1591 2122.29 1591 2122.29 1591 2122.29 1591 2122.29 1584.53 2128.71 1580.65 2139 1576.76 2127.43 1572.88 2112 1569 2094 1569 2076 1569 2059.29 1571.59 2049 1576.76 2059.29 1579.35 2065.71 1584.53 2065.71 1591 2065.71 1591 2065.71 1591 2065.71 1591 2065.71 1944.29 2065.71 1944.29 2065.71 1944.29 2065.71 1949.47 2059.29 1954.65 2049 1958.53 2059.29 1962.41 2076 1965 2094 1965 2112 1965 2127.43 1962.41 2139 1958.53 2128.71 1954.65 2122.29 1949.47 2122.29 1944.29Z" fill="#005000" fill-rule="evenodd"/><path d="M2122.29 1944.29C2122.29 1591 2122.29 1591 2122.29 1591 2122.29 1584.53 2128.71 1580.65 2139 1576.76 2127.43 1572.88 2112 1569 2094 1569 2076 1569 2059.29 1571.59 2049 1576.76 2059.29 1579.35 2065.71 1584.53 2065.71 1591 2065.71 1944.29 2065.71 1944.29 2065.71 1944.29 2065.71 1949.47 2059.29 1954.65 2049 1958.53 2059.29 1962.41 2076 1965 2094 1965 2112 1965 2127.43 1962.41 2139 1958.53 2128.71 1954.65 2122.29 1949.47 2122.29 1944.29ZM2108.14 1954.65C2103 1955.94 2099.14 1955.94 2094 1955.94 2090.14 1955.94 2085 1955.94 2081.14 1955.94 2076 1954.65 2074.71 1946.88 2074.71 1944.29 2074.71 1591 2074.71 1591 2074.71 1591 2074.71 1589.71 2074.71 1587.12 2074.71 1585.82 2073.43 1584.53 2076 1579.35 2079.86 1579.35 2083.71 1579.35 2088.86 1579.35 2094 1579.35 2099.14 1579.35 2104.29 1579.35 2109.43 1579.35 2112 1579.35 2114.57 1584.53 2114.57 1585.82 2113.29 1587.12 2113.29 1589.71 2113.29 1591 2113.29 1944.29 2113.29 1944.29 2113.29 1944.29 2113.29 1946.88 2114.57 1954.65 2108.14 1954.65Z" fill="#003200" fill-rule="evenodd"/><path d="M2057.44 1593C2054.88 1938.31 2054.88 1938.31 2054.88 1938.31 2054.88 1947.36 2030.56 1959 1996 1959 1996 1959 1996 1959 1996 1959 2026.72 1959 2060 1953.83 2060 1938.31 2057.44 1593 2057.44 1593 2057.44 1593Z" fill="#FFFFFF" fill-rule="evenodd"/><path d="M2130.3 1940.26C2143.33 1600.81 2143.33 1600.81 2143.33 1600.81 2143.33 1589.2 2170.67 1580.16 2205.84 1580.16 2220.16 1580.16 2230.58 1584.03 2241 1585.33 2230.58 1580.16 2213.65 1575 2191.51 1575 2157.65 1575 2129 1585.33 2129 1596.94 2129 1941.55 2129 1941.55 2129 1941.55 2129 1948 2130.3 1944.13 2130.3 1940.26Z" fill="#FFFFFF" fill-rule="evenodd"/><path d="M2239.7 1593.77C2227.98 1934.39 2227.98 1934.39 2227.98 1934.39 2227.98 1946.05 2199.33 1955.11 2164.16 1955.11 2149.84 1955.11 2139.42 1951.23 2129 1948.64 2140.72 1953.82 2157.65 1959 2178.49 1959 2213.65 1959 2241 1949.93 2241 1938.28 2241 1592.48 2241 1592.48 2241 1592.48 2241 1586 2239.7 1589.89 2239.7 1593.77Z" fill="#00670D" fill-rule="evenodd"/><path d="M2240.4 1593C2239.1 1938.31 2239.1 1938.31 2239.1 1938.31 2239.1 1947.36 2213.1 1959 2178 1959 2178 1959 2178 1959 2178 1959 2209.2 1959 2243 1953.83 2243 1938.31 2240.4 1593 2240.4 1593 2240.4 1593Z" fill="#FFFFFF" fill-rule="evenodd"/><path d="M1940.5 1591.5C1940.5 1579.85 1969.08 1569.5 2002.85 1569.5 2037.92 1569.5 2066.5 1579.85 2066.5 1591.5 2066.5 1591.5 2066.5 1591.5 2066.5 1591.5 2066.5 1944.79 2066.5 1944.79 2066.5 1944.79 2066.5 1956.44 2037.92 1965.5 2002.85 1965.5 1969.08 1965.5 1940.5 1956.44 1940.5 1944.79 1940.5 1591.5 1940.5 1591.5 1940.5 1591.5Z" stroke="#333333" stroke-width="2.86476" stroke-linecap="round" stroke-linejoin="round" stroke-miterlimit="10" fill="none" fill-rule="evenodd"/><path d="M2249.5 1591.5C2249.5 1579.85 2221.21 1569.5 2186.5 1569.5 2151.79 1569.5 2123.5 1579.85 2123.5 1591.5 2123.5 1591.5 2123.5 1591.5 2123.5 1591.5 2123.5 1944.79 2123.5 1944.79 2123.5 1944.79 2123.5 1956.44 2151.79 1965.5 2186.5 1965.5 2221.21 1965.5 2249.5 1956.44 2249.5 1944.79 2249.5 1591.5 2249.5 1591.5 2249.5 1591.5Z" stroke="#333333" stroke-width="2.86476" stroke-linecap="round" stroke-linejoin="round" stroke-miterlimit="10" fill="none" fill-rule="evenodd"/><path d="M2122.79 1944.79C2122.79 1591.5 2122.79 1591.5 2122.79 1591.5 2122.79 1591.5 2122.79 1591.5 2122.79 1591.5 2122.79 1585.03 2129.21 1581.15 2139.5 1577.26 2127.93 1573.38 2112.5 1569.5 2094.5 1569.5 2076.5 1569.5 2059.79 1572.09 2049.5 1577.26 2059.79 1579.85 2066.21 1585.03 2066.21 1591.5 2066.21 1591.5 2066.21 1591.5 2066.21 1591.5 2066.21 1944.79 2066.21 1944.79 2066.21 1944.79 2066.21 1949.97 2059.79 1955.15 2049.5 1959.03 2059.79 1962.91 2076.5 1965.5 2094.5 1965.5 2112.5 1965.5 2127.93 1962.91 2139.5 1959.03 2129.21 1955.15 2122.79 1949.97 2122.79 1944.79Z" stroke="#333333" stroke-width="2.86476" stroke-linecap="round" stroke-linejoin="round" stroke-miterlimit="10" fill="none" fill-rule="evenodd"/></g></svg>