<svg width="256" height="431" xmlns="http://www.w3.org/2000/svg" xmlns:xlink="http://www.w3.org/1999/xlink" xml:space="preserve" overflow="hidden"><g transform="translate(-1444 -1164)"><path d="M1696.56 1277.44C1703 1308.21 1682.4 1342.82 1682.4 1380 1682.4 1414.62 1703 1446.67 1697.85 1474.87 1686.26 1537.69 1663.09 1580 1636.06 1580 1596.15 1580 1591 1490.26 1591 1380 1591 1269.74 1596.15 1180 1636.06 1180 1661.8 1180 1683.69 1218.46 1696.56 1277.44Z" fill="#FFC92E" fill-rule="evenodd"/><path d="M1447.72 1277.44C1441.29 1308.21 1461.89 1342.82 1461.89 1380 1461.89 1414.62 1440 1446.67 1446.44 1474.87 1458.02 1537.69 1481.2 1580 1508.23 1580 1548.14 1580 1552 1490.26 1552 1380 1552 1269.74 1548.14 1180 1508.23 1180 1482.48 1180 1459.31 1218.46 1447.72 1277.44Z" fill="#FFC92E" fill-rule="evenodd"/><path d="M1636.98 1579.91C1597.01 1579.91 1591.85 1490.27 1591.85 1380.14 1591.85 1270.01 1597.01 1180.37 1636.98 1180.37 1638.26 1180.37 1640.84 1180.37 1643.42 1180.37 1629.24 1171.4 1602.17 1165 1571.22 1165 1540.28 1165 1513.21 1171.4 1499.02 1181.65 1501.6 1180.37 1505.47 1180.37 1508.05 1180.37 1548.02 1180.37 1551.88 1270.01 1551.88 1380.14 1551.88 1490.27 1548.02 1579.91 1508.05 1579.91 1501.6 1579.91 1495.16 1578.63 1490 1573.51 1502.89 1585.04 1535.12 1594 1571.22 1594 1602.17 1594 1629.24 1587.6 1646 1578.63 1642.13 1579.91 1639.55 1579.91 1636.98 1579.91Z" fill="#FF7300" fill-rule="evenodd"/><path d="M1646 1578.63C1642.13 1579.91 1639.55 1579.91 1636.98 1579.91 1597.01 1579.91 1591.85 1490.27 1591.85 1380.14 1591.85 1270.01 1597.01 1180.37 1636.98 1180.37 1638.26 1180.37 1640.84 1180.37 1643.42 1180.37 1629.24 1171.4 1602.17 1165 1571.22 1165 1540.28 1165 1513.21 1171.4 1499.02 1181.65 1501.6 1180.37 1505.47 1180.37 1508.05 1180.37 1548.02 1180.37 1551.88 1270.01 1551.88 1380.14 1551.88 1490.27 1548.02 1579.91 1508.05 1579.91 1501.6 1579.91 1495.16 1578.63 1490 1573.51 1502.89 1585.04 1535.12 1594 1571.22 1594 1602.17 1594 1629.24 1587.6 1646 1578.63ZM1541.57 1570.95C1562.2 1537.65 1563.49 1464.66 1563.49 1380.14 1563.49 1294.34 1562.2 1218.79 1538.99 1186.77 1537.7 1184.21 1558.33 1176.53 1571.22 1176.53 1585.4 1176.53 1607.32 1184.21 1606.03 1185.49 1582.83 1218.79 1580.25 1294.34 1580.25 1380.14 1580.25 1464.66 1582.83 1538.93 1604.74 1572.23 1606.03 1574.79 1584.12 1582.47 1571.22 1582.47 1558.33 1582.47 1538.99 1574.79 1541.57 1570.95Z" fill="#EA5500" fill-rule="evenodd"/><path d="M1598 1382.85C1598 1468.93 1604.43 1531.88 1618.57 1564 1618.57 1564 1618.57 1564 1618.57 1564 1604.43 1533.17 1605.71 1468.93 1605.71 1382.85 1605.71 1307.06 1603.14 1222.26 1625 1194 1625 1194 1625 1194 1625 1194 1604.43 1219.69 1598 1285.22 1598 1382.85Z" fill="#FFFFFF" fill-rule="evenodd"/><path d="M1669.89 1219.98C1678.96 1235.37 1686.74 1257.17 1691.93 1281.53 1695.81 1296.92 1690.63 1314.88 1686.74 1334.11 1681.56 1349.5 1677.67 1366.18 1677.67 1382.85 1677.67 1399.52 1682.85 1414.91 1686.74 1430.3 1691.93 1446.97 1697.11 1463.64 1693.22 1477.75 1690.63 1496.98 1684.15 1514.94 1678.96 1529.05 1671.19 1544.43 1671.19 1547 1678.96 1534.18 1686.74 1518.79 1694.52 1500.83 1698.41 1479.03 1701 1463.64 1697.11 1446.97 1691.93 1429.02 1686.74 1413.63 1682.85 1398.24 1682.85 1382.85 1682.85 1366.18 1686.74 1350.79 1690.63 1335.4 1695.81 1316.16 1701 1298.21 1697.11 1280.25 1691.93 1255.89 1682.85 1236.65 1672.48 1221.26 1667.3 1212.28 1666 1211 1669.89 1219.98Z" fill="#FFFFFF" fill-rule="evenodd"/><path d="M1656 1197C1670.09 1213.66 1677.78 1244.43 1685.47 1281.6 1689.31 1296.98 1682.91 1314.92 1679.06 1334.15 1673.94 1349.53 1670.09 1366.2 1670.09 1382.86 1670.09 1399.52 1675.22 1414.9 1679.06 1430.29 1684.19 1446.95 1690.59 1464.89 1688.03 1480.27 1680.34 1521.29 1671.38 1553.34 1656 1570 1656 1570 1656 1570 1656 1570 1671.38 1552.05 1686.75 1521.29 1694.44 1478.99 1697 1463.61 1693.16 1446.95 1688.03 1429 1682.91 1413.62 1679.06 1398.24 1679.06 1382.86 1679.06 1366.2 1682.91 1350.81 1686.75 1335.43 1691.88 1316.21 1697 1298.26 1693.16 1280.32 1685.47 1243.14 1671.38 1213.66 1656 1197Z" fill="#FF9B09" fill-rule="evenodd"/><path d="M1453.13 1280.09C1449.28 1298.05 1454.41 1316.01 1459.54 1335.26 1463.38 1350.65 1467.23 1366.05 1467.23 1382.72 1467.23 1398.12 1462.1 1413.52 1458.26 1428.91 1453.13 1446.87 1448 1463.55 1451.85 1478.95 1454.41 1494.34 1460.82 1507.17 1464.67 1520 1464.67 1520 1464.67 1520 1464.67 1520 1460.82 1508.45 1459.54 1493.06 1455.69 1477.66 1453.13 1463.55 1460.82 1446.87 1465.95 1430.19 1469.79 1414.8 1477.49 1399.4 1477.49 1382.72 1477.49 1366.05 1471.08 1349.37 1465.95 1333.97 1462.1 1314.73 1454.41 1296.77 1456.97 1281.37 1467.23 1237.75 1480.05 1201.83 1498 1189 1498 1189 1498 1189 1498 1189 1478.77 1203.11 1462.1 1233.9 1453.13 1280.09Z" fill="#FFFFFF" fill-rule="evenodd"/><path d="M1526.08 1190C1536.34 1225.93 1537.62 1284.97 1537.62 1352.99 1537.62 1463.36 1533.77 1553.2 1494.04 1553.2 1482.51 1553.2 1470.97 1545.5 1462 1530.1 1473.54 1563.47 1491.48 1584 1509.42 1584 1549.16 1584 1553 1494.16 1553 1382.51 1553 1290.1 1550.44 1213.1 1526.08 1190Z" fill="#FFA00F" fill-rule="evenodd"/><path d="M1526.17 1190.56C1550.44 1213.63 1547.89 1303.34 1547.89 1382.8 1547.89 1484.04 1545.33 1584 1507 1584 1507 1584 1507 1584 1507 1584 1549.17 1584 1553 1490.45 1553 1382.8 1553 1280.27 1547.89 1211.07 1524.89 1188L1526.17 1190.56Z" fill="#FFFFFF" fill-rule="evenodd"/><path d="M1576 1178.62C1560.52 1176 1545.03 1195.62 1548.9 1210 1547.61 1202.15 1536 1193 1536 1186.46 1543.74 1181.23 1551.48 1176 1568.26 1179.92" fill="#EA5500" fill-rule="evenodd"/><path d="M1533 1186C1534.28 1184.73 1534.28 1184.73 1534.28 1184.73 1541.98 1179.64 1556.1 1177.09 1571.5 1177.09 1586.9 1177.09 1601.02 1179.64 1607.43 1184.73 1610 1184.73 1610 1184.73 1610 1184.73 1601.02 1179.64 1588.18 1172 1571.5 1172 1554.82 1172 1541.98 1179.64 1533 1186Z" fill="#FFFFFF" fill-rule="evenodd"/><path d="M1696.56 1277.44C1703 1308.21 1682.4 1342.82 1682.4 1380 1682.4 1414.62 1703 1446.67 1697.85 1474.87 1686.26 1537.69 1663.09 1580 1636.06 1580 1596.15 1580 1591 1490.26 1591 1380 1591 1269.74 1596.15 1180 1636.06 1180 1661.8 1180 1683.69 1218.46 1696.56 1277.44Z" stroke="#735C00" stroke-width="2.29167" stroke-linecap="round" stroke-linejoin="round" stroke-miterlimit="10" fill="none" fill-rule="evenodd"/><path d="M1447.72 1277.44C1441.29 1308.21 1461.89 1342.82 1461.89 1380 1461.89 1414.62 1440 1446.67 1446.44 1474.87 1458.02 1537.69 1481.2 1580 1508.23 1580 1548.14 1580 1552 1490.26 1552 1380 1552 1269.74 1548.14 1180 1508.23 1180 1482.48 1180 1459.31 1218.46 1447.72 1277.44Z" stroke="#735C00" stroke-width="2.29167" stroke-linecap="round" stroke-linejoin="round" stroke-miterlimit="10" fill="none" fill-rule="evenodd"/><path d="M1636.98 1579.91C1597.01 1579.91 1591.85 1490.27 1591.85 1380.14 1591.85 1270.01 1597.01 1180.37 1636.98 1180.37 1638.26 1180.37 1640.84 1180.37 1643.42 1180.37 1629.24 1171.4 1602.17 1165 1571.22 1165 1540.28 1165 1513.21 1171.4 1499.02 1181.65 1501.6 1180.37 1505.47 1180.37 1508.05 1180.37 1548.02 1180.37 1551.88 1270.01 1551.88 1380.14 1551.88 1490.27 1548.02 1579.91 1508.05 1579.91 1501.6 1579.91 1495.16 1578.63 1490 1573.51 1502.89 1585.04 1535.12 1594 1571.22 1594 1602.17 1594 1629.24 1587.6 1646 1578.63 1642.13 1579.91 1639.55 1579.91 1636.98 1579.91Z" stroke="#735C00" stroke-width="2.29167" stroke-linecap="round" stroke-linejoin="round" stroke-miterlimit="10" fill="none" fill-rule="evenodd"/><path d="M1608 1186C1601.64 1180.86 1587.66 1177 1571.14 1177 1554.61 1177 1540.63 1180.86 1533 1186" stroke="#735C00" stroke-width="2.29167" stroke-linecap="round" stroke-linejoin="round" stroke-miterlimit="10" fill="none" fill-rule="evenodd"/><path d="M1538 1574C1543.06 1578.8 1559.49 1580 1574.66 1580 1587.3 1580 1597.42 1577.6 1605 1574" stroke="#735C00" stroke-width="2.29167" stroke-linecap="round" stroke-linejoin="round" stroke-miterlimit="10" fill="none" fill-rule="evenodd"/><path d="M1600 1194C1592 1206.96 1586.67 1240.67 1584 1264 1584 1244.56 1590.67 1203.07 1600 1194Z" fill="#FFFF82" fill-rule="evenodd"/></g></svg>