<svg width="191" height="441" xmlns="http://www.w3.org/2000/svg" xmlns:xlink="http://www.w3.org/1999/xlink" xml:space="preserve" overflow="hidden"><g transform="translate(-2593 -1786)"><path d="M2594 2005.5C2594 1892.56 2614.59 1801 2640 1801 2665.41 1801 2686 1892.56 2686 2005.5 2686 2118.44 2665.41 2210 2640 2210 2614.59 2210 2594 2118.44 2594 2005.5Z" fill="#FF5280" fill-rule="evenodd"/><path d="M2689 2005.5C2689 1892.56 2709.82 1801 2735.5 1801 2761.18 1801 2782 1892.56 2782 2005.5 2782 2118.44 2761.18 2210 2735.5 2210 2709.82 2210 2689 2118.44 2689 2005.5Z" fill="#FF5280" fill-rule="evenodd"/><path d="M2734.86 2210.79C2710.43 2210.79 2688.57 2119.05 2688.57 2005.35 2688.57 1892.95 2710.43 1801.21 2734.86 1801.21 2740 1801.21 2745.14 1805.09 2749 1810.26 2740 1797.34 2720.71 1787 2687.29 1787 2660.29 1787 2644.86 1793.46 2632 1803.8 2634.57 1802.5 2635.86 1801.21 2638.43 1801.21 2664.14 1801.21 2686 1892.95 2686 2005.35 2686 2119.05 2664.14 2210.79 2638.43 2210.79 2637.14 2210.79 2634.57 2209.5 2633.29 2209.5 2646.14 2218.54 2660.29 2225 2687.29 2225 2720.71 2225 2740 2210.79 2734.86 2210.79Z" fill="#FF3A03" fill-rule="evenodd"/><path d="M2687.29 1787C2660.29 1787 2644.86 1793.46 2632 1803.8 2634.57 1802.5 2635.86 1801.21 2638.43 1801.21 2664.14 1801.21 2686 1892.95 2686 2005.35 2686 2119.05 2664.14 2210.79 2638.43 2210.79 2637.14 2210.79 2634.57 2209.5 2633.29 2209.5 2646.14 2218.54 2660.29 2225 2687.29 2225 2720.71 2225 2740 2210.79 2734.86 2210.79 2710.43 2210.79 2688.57 2119.05 2688.57 2005.35 2688.57 1892.95 2710.43 1801.21 2734.86 1801.21 2740 1801.21 2745.14 1805.09 2749 1810.26 2740 1797.34 2720.71 1787 2687.29 1787ZM2709.14 2203.04C2710.43 2205.62 2701.43 2212.08 2687.29 2212.08 2675.71 2212.08 2662.86 2205.62 2664.14 2203.04 2688.57 2164.27 2687.29 2071.25 2687.29 2009.23 2687.29 2071.25 2686 2164.27 2709.14 2203.04ZM2706.57 1812.84C2684.71 1854.19 2687.29 1943.34 2687.29 2002.77 2687.29 1943.34 2688.57 1855.48 2666.71 1814.13 2665.43 1808.96 2673.14 1801.21 2687.29 1801.21 2700.14 1801.21 2709.14 1808.96 2706.57 1812.84Z" fill="#FF1C00" fill-rule="evenodd"/><path d="M2656.32 1817C2664.06 1854.39 2669.23 1903.39 2669.23 1958.84 2669.23 2072.32 2648.58 2162.58 2622.77 2162.58 2617.61 2162.58 2611.16 2157.42 2606 2147.11 2613.74 2185.79 2625.35 2209 2638.26 2209 2664.06 2209 2686 2118.74 2686 2005.26 2686 1921.45 2673.1 1847.95 2656.32 1817Z" fill="#FE494E" fill-rule="evenodd"/><path d="M2651.36 1810C2666.75 1843.57 2677.02 1912.01 2677.02 1993.36 2677.02 2105.7 2659.06 2201.25 2634.68 2201.25 2629.55 2201.25 2623.13 2193.5 2618 2188.34 2624.42 2202.54 2632.11 2209 2638.53 2209 2664.19 2209 2686 2118.61 2686 2004.98 2686 1913.3 2670.6 1834.53 2651.36 1810Z" fill="#FFFFFF" fill-rule="evenodd"/><path d="M2611.54 2139.39C2605.13 2103.35 2608.97 2055.72 2608.97 2004.23 2608.97 1901.26 2621.79 1808.57 2644.87 1808.57 2644.87 1808.57 2650 1812.44 2650 1813.72 2647.44 1808.57 2643.59 1806 2639.74 1806 2616.67 1806 2600 1894.82 2600 1997.8 2600 2055.72 2603.85 2107.21 2610.26 2143.26 2616.67 2169 2614.1 2162.56 2611.54 2139.39Z" fill="#FFFFFF" fill-rule="evenodd"/><path d="M2753.51 1817C2762.57 1854.39 2766.46 1903.39 2766.46 1958.84 2766.46 2072.32 2747.03 2162.58 2721.13 2162.58 2714.66 2162.58 2708.18 2157.42 2703 2147.11 2712.07 2185.79 2723.72 2209 2736.67 2209 2761.28 2209 2782 2118.74 2782 2005.26 2782 1921.45 2770.34 1847.95 2753.51 1817Z" fill="#FE494E" fill-rule="evenodd"/><path d="M2749.65 1810C2765.18 1843.57 2775.53 1912.01 2775.53 1993.36 2775.53 2105.7 2757.41 2201.25 2731.53 2201.25 2726.35 2201.25 2719.88 2193.5 2716 2188.34 2722.47 2202.54 2728.94 2209 2736.71 2209 2761.29 2209 2782 2118.61 2782 2004.98 2782 1913.3 2767.76 1834.53 2749.65 1810Z" fill="#FFFFFF" fill-rule="evenodd"/><path d="M2707.7 2139.39C2702.5 2103.35 2705.1 2055.72 2705.1 2004.23 2705.1 1901.26 2719.4 1808.57 2741.5 1808.57 2742.8 1808.57 2746.7 1812.44 2748 1813.72 2744.1 1808.57 2740.2 1806 2736.3 1806 2712.9 1806 2696 1894.82 2696 1997.8 2696 2055.72 2699.9 2107.21 2707.7 2143.26 2712.9 2169 2711.6 2162.56 2707.7 2139.39Z" fill="#FFFFFF" fill-rule="evenodd"/><path d="M2690 1804C2677 1805.26 2670.5 1815.37 2673.1 1828 2671.8 1822.95 2665.3 1815.37 2664 1810.32 2664 1809.05 2665.3 1809.05 2666.6 1809.05" fill="#FF1C00" fill-rule="evenodd"/><path d="M2674.72 2178C2670.89 2189.7 2668.33 2204 2683.67 2209.2 2699 2214.4 2673.44 2217 2673.44 2217 2653 2206.6 2653 2206.6 2653 2206.6" fill="#FF1C00" fill-rule="evenodd"/><path d="M2685 2112.67C2686.17 2100.95 2687.33 2102.25 2689.67 2111.37 2686.17 2095.74 2692 2127 2690.83 2072.29 2687.33 2028 2687.33 2028 2687.33 2028" fill="#FF1C00" fill-rule="evenodd"/><path d="M2668 1807.56C2669.28 1807.56 2669.28 1807.56 2669.28 1807.56 2674.41 1803.89 2676.97 1801.44 2688.5 1801.44 2703.88 1801.44 2706.44 1806.33 2709 1810 2709 1810 2709 1810 2709 1810 2705.16 1803.89 2703.88 1799 2687.22 1799 2675.69 1799 2674.41 1802.67 2668 1807.56Z" fill="#FFFFFF" fill-rule="evenodd"/><path d="M2594.5 2006C2594.5 1893.06 2615.1 1801.5 2640.5 1801.5 2665.91 1801.5 2686.5 1893.06 2686.5 2006 2686.5 2118.94 2665.91 2210.5 2640.5 2210.5 2615.1 2210.5 2594.5 2118.94 2594.5 2006Z" stroke="#330000" stroke-width="2.86476" stroke-linecap="round" stroke-linejoin="round" stroke-miterlimit="10" fill="none" fill-rule="evenodd"/><path d="M2689.5 2006C2689.5 1893.06 2710.32 1801.5 2736 1801.5 2761.68 1801.5 2782.5 1893.06 2782.5 2006 2782.5 2118.94 2761.68 2210.5 2736 2210.5 2710.32 2210.5 2689.5 2118.94 2689.5 2006Z" stroke="#330000" stroke-width="2.86476" stroke-linecap="round" stroke-linejoin="round" stroke-miterlimit="10" fill="none" fill-rule="evenodd"/><path d="M2735.36 2211.29C2710.93 2211.29 2689.07 2119.55 2689.07 2005.85 2689.07 1893.45 2710.93 1801.71 2735.36 1801.71 2740.5 1801.71 2745.64 1805.59 2749.5 1810.76 2740.5 1797.84 2721.21 1787.5 2687.79 1787.5 2660.79 1787.5 2645.36 1793.96 2632.5 1804.3 2635.07 1803 2636.36 1801.71 2638.93 1801.71 2664.64 1801.71 2686.5 1893.45 2686.5 2005.85 2686.5 2119.55 2664.64 2211.29 2638.93 2211.29 2637.64 2211.29 2635.07 2210 2633.79 2210 2646.64 2219.04 2660.79 2225.5 2687.79 2225.5 2721.21 2225.5 2740.5 2211.29 2735.36 2211.29Z" stroke="#330000" stroke-width="2.86476" stroke-linecap="round" stroke-linejoin="round" stroke-miterlimit="10" fill="none" fill-rule="evenodd"/><path d="M2658.5 2202.5C2666.29 2207.07 2672.78 2210.5 2689.65 2210.5 2710.41 2210.5 2719.5 2202.5 2716.9 2202.5" stroke="#330000" stroke-width="2.86476" stroke-linecap="round" stroke-linejoin="round" stroke-miterlimit="10" fill="none" fill-rule="evenodd"/><path d="M2709.5 1809.5C2706.94 1804.7 2697.97 1803.5 2690.28 1803.5 2682.59 1803.5 2673.62 1805.9 2668.5 1809.5" stroke="#330000" stroke-width="2.86476" stroke-linecap="round" stroke-linejoin="round" stroke-miterlimit="10" fill="none" fill-rule="evenodd"/><path d="M2702 1825C2696.8 1834.05 2691.6 1862.49 2689 1878 2689 1862.49 2694.2 1832.76 2702 1825Z" fill="#FF5EBF" fill-rule="evenodd"/></g></svg>