<svg width="235" height="432" xmlns="http://www.w3.org/2000/svg" xmlns:xlink="http://www.w3.org/1999/xlink" xml:space="preserve" overflow="hidden"><g transform="translate(-1056 -1163)"><path d="M1264.54 1206.51C1260.67 1197.5 1250.37 1180.75 1232.35 1173.02 1219.47 1166.58 1202.73 1164 1179.56 1164 1130.63 1164 1102.3 1178.17 1092 1191.05 1095.86 1187.19 1098.44 1185.9 1102.3 1185.9 1128.05 1185.9 1148.65 1277.37 1148.65 1389.45 1148.65 1493.8 1130.63 1580.12 1107.45 1591.71 1107.45 1593 1107.45 1593 1107.45 1593 1121.61 1585.27 1139.64 1581.41 1158.95 1581.41 1180.84 1581.41 1198.87 1586.56 1213.03 1593 1213.03 1593 1213.03 1593 1213.03 1593 1211.75 1593 1211.75 1591.71 1210.46 1591.71 1210.46 1591.71 1210.46 1591.71 1210.46 1591.71 1209.17 1590.42 1209.17 1590.42 1209.17 1590.42 1207.88 1590.42 1207.88 1590.42 1207.88 1590.42 1207.88 1589.14 1206.59 1589.14 1206.59 1587.85 1206.59 1587.85 1206.59 1587.85 1206.59 1587.85 1205.31 1587.85 1205.31 1586.56 1204.02 1585.27 1204.02 1585.27 1204.02 1585.27 1204.02 1585.27 1204.02 1585.27 1202.73 1583.98 1202.73 1582.69 1202.73 1582.69 1202.73 1582.69 1202.73 1582.69 1201.44 1581.41 1201.44 1581.41 1200.16 1580.12 1200.16 1580.12 1200.16 1580.12 1200.16 1580.12 1200.16 1578.83 1198.87 1577.54 1198.87 1576.25 1198.87 1576.25 1198.87 1576.25 1198.87 1576.25 1197.58 1574.96 1197.58 1573.68 1196.29 1572.39 1196.29 1572.39 1196.29 1572.39 1196.29 1572.39 1196.29 1571.1 1195.01 1569.81 1195.01 1567.23 1195.01 1567.23 1195.01 1567.23 1195.01 1567.23 1189.86 1556.93 1185.99 1544.04 1183.42 1527.3 1183.42 1527.3 1183.42 1527.3 1183.42 1527.3 1183.42 1526.01 1182.13 1523.43 1182.13 1522.14 1182.13 1520.86 1182.13 1520.86 1182.13 1520.86 1182.13 1518.28 1180.84 1516.99 1180.84 1515.7 1180.84 1514.41 1180.84 1513.13 1180.84 1513.13 1180.84 1511.84 1179.56 1509.26 1179.56 1507.97 1179.56 1506.68 1179.56 1506.68 1179.56 1505.4 1179.56 1504.11 1178.27 1501.53 1178.27 1500.24 1178.27 1498.95 1178.27 1497.67 1178.27 1497.67 1178.27 1495.09 1178.27 1493.8 1176.98 1492.51 1176.98 1491.23 1176.98 1489.94 1176.98 1488.65 1176.98 1487.36 1176.98 1486.07 1176.98 1484.78 1175.69 1483.5 1175.69 1482.21 1175.69 1480.92 1175.69 1478.34 1175.69 1477.05 1175.69 1475.77 1175.69 1474.48 1175.69 1473.19 1174.41 1471.9 1174.41 1470.61 1174.41 1468.04 1174.41 1466.75 1174.41 1465.46 1174.41 1464.17 1174.41 1462.88 1174.41 1461.59 1174.41 1459.02 1174.41 1457.73 1173.12 1456.44 1173.12 1455.15 1173.12 1453.86 1173.12 1451.29 1173.12 1450 1173.12 1448.71 1173.12 1447.42 1173.12 1444.85 1173.12 1443.56 1173.12 1442.27 1173.12 1440.98 1173.12 1439.69 1173.12 1437.12 1171.83 1435.83 1171.83 1434.54 1171.83 1433.25 1171.83 1430.68 1171.83 1429.39 1171.83 1428.1 1171.83 1425.52 1171.83 1424.23 1171.83 1422.95 1171.83 1421.66 1171.83 1420.37 1171.83 1417.79 1171.83 1416.5 1171.83 1413.93 1171.83 1412.64 1171.83 1411.35 1171.83 1410.06 1171.83 1407.49 1171.83 1404.91 1171.83 1403.62 1171.83 1402.33 1171.83 1401.04 1171.83 1399.76 1171.83 1395.89 1171.83 1393.32 1171.83 1389.45 1171.83 1277.37 1191.14 1185.9 1216.9 1185.9 1241.36 1185.9 1261.96 1277.37 1261.96 1389.45 1261.96 1498.95 1242.65 1587.85 1219.47 1593 1220.76 1593 1220.76 1593 1220.76 1593 1228.48 1593 1250.37 1580.12 1264.54 1559.5 1278.7 1527.3 1289 1462.88 1289 1381.72 1289 1300.56 1279.99 1240.01 1264.54 1206.51Z" fill="#166DDA" fill-rule="evenodd"/><path d="M1209.99 1591.71C1208.7 1590.42 1208.7 1590.42 1208.7 1590.42 1207.41 1590.42 1207.41 1590.42 1207.41 1590.42 1207.41 1589.13 1206.13 1589.13 1206.13 1587.85 1206.13 1587.85 1206.13 1587.85 1206.13 1587.85 1204.84 1587.85 1204.84 1586.56 1203.55 1585.27 1203.55 1585.27 1203.55 1585.27 1203.55 1585.27 1203.55 1585.27 1202.26 1583.98 1202.26 1582.69 1202.26 1582.69 1202.26 1582.69 1202.26 1582.69 1200.98 1581.4 1200.98 1581.4 1199.69 1580.12 1199.69 1580.12 1199.69 1580.12 1199.69 1580.12 1199.69 1578.83 1198.4 1577.54 1198.4 1576.25 1198.4 1576.25 1198.4 1576.25 1198.4 1576.25 1197.11 1574.96 1197.11 1573.67 1195.83 1572.39 1195.83 1572.39 1195.83 1572.39 1195.83 1572.39 1195.83 1571.1 1194.54 1569.81 1194.54 1567.23 1194.54 1567.23 1194.54 1567.23 1194.54 1567.23 1189.39 1556.93 1185.53 1544.04 1182.95 1527.29 1182.95 1527.29 1182.95 1527.29 1182.95 1527.29 1182.95 1526.01 1181.67 1523.43 1181.67 1522.14 1181.67 1520.85 1181.67 1520.85 1181.67 1520.85 1181.67 1518.28 1180.38 1516.99 1180.38 1515.7 1180.38 1514.41 1180.38 1513.12 1180.38 1513.12 1180.38 1511.83 1179.09 1509.26 1179.09 1507.97 1179.09 1506.68 1179.09 1506.68 1179.09 1505.39 1179.09 1504.1 1177.8 1501.53 1177.8 1500.24 1177.8 1498.95 1177.8 1497.66 1177.8 1497.66 1177.8 1495.09 1177.8 1493.8 1176.52 1492.51 1176.52 1491.22 1176.52 1489.93 1176.52 1488.64 1176.52 1487.36 1176.52 1486.07 1176.52 1484.78 1175.23 1483.49 1175.23 1482.2 1175.23 1480.91 1175.23 1478.34 1175.23 1477.05 1175.23 1475.76 1175.23 1474.47 1175.23 1473.18 1173.94 1471.9 1173.94 1470.61 1173.94 1468.03 1173.94 1466.74 1173.94 1465.45 1173.94 1464.17 1173.94 1462.88 1173.94 1461.59 1173.94 1459.01 1173.94 1457.72 1172.66 1456.44 1172.66 1455.15 1172.66 1453.86 1172.66 1451.28 1172.66 1449.99 1172.66 1448.71 1172.66 1447.42 1172.66 1444.84 1172.66 1443.55 1172.66 1442.26 1172.66 1440.98 1172.66 1439.69 1172.66 1437.11 1171.37 1435.82 1171.37 1434.53 1171.37 1433.25 1171.37 1430.67 1171.37 1429.38 1171.37 1428.09 1171.37 1425.52 1171.37 1424.23 1171.37 1422.94 1171.37 1421.65 1171.37 1420.36 1171.37 1417.79 1171.37 1416.5 1171.37 1413.92 1171.37 1412.63 1171.37 1411.34 1171.37 1410.06 1171.37 1407.48 1171.37 1404.9 1171.37 1403.61 1171.37 1402.33 1171.37 1401.04 1171.37 1399.75 1171.37 1395.88 1171.37 1393.31 1171.37 1389.44 1171.37 1292.82 1185.53 1211.65 1206.13 1191.04 1206.13 1189.75 1206.13 1189.75 1206.13 1189.75 1219 1178.15 1182.95 1173 1163.64 1175.58 1134.03 1178.15 1119.87 1189.75 1119.87 1200.06 1119.87 1201.34 1119.87 1201.34 1119.87 1201.34 1135.32 1230.98 1148.2 1304.41 1148.2 1389.44 1148.2 1493.8 1130.17 1580.12 1107 1591.71 1107 1593 1107 1593 1107 1593 1121.16 1585.27 1139.18 1581.4 1158.49 1581.4 1180.38 1581.4 1198.4 1586.56 1212.56 1593 1212.56 1593 1212.56 1593 1212.56 1593 1211.28 1593 1211.28 1591.71 1209.99 1591.71 1209.99 1591.71 1209.99 1591.71 1209.99 1591.71Z" fill="#175C83" fill-rule="evenodd"/><path d="M1209.99 1591.71C1208.7 1590.42 1208.7 1590.42 1208.7 1590.42 1207.41 1590.42 1207.41 1590.42 1207.41 1590.42 1207.41 1589.13 1206.13 1589.13 1206.13 1587.85 1206.13 1587.85 1206.13 1587.85 1206.13 1587.85 1204.84 1587.85 1204.84 1586.56 1203.55 1585.27 1203.55 1585.27 1203.55 1585.27 1203.55 1585.27 1203.55 1585.27 1202.26 1583.98 1202.26 1582.69 1202.26 1582.69 1202.26 1582.69 1202.26 1582.69 1200.98 1581.4 1200.98 1581.4 1199.69 1580.12 1199.69 1580.12 1199.69 1580.12 1199.69 1580.12 1199.69 1578.83 1198.4 1577.54 1198.4 1576.25 1198.4 1576.25 1198.4 1576.25 1198.4 1576.25 1197.11 1574.96 1197.11 1573.67 1195.83 1572.39 1195.83 1572.39 1195.83 1572.39 1195.83 1572.39 1195.83 1571.1 1194.54 1569.81 1194.54 1567.23 1194.54 1567.23 1194.54 1567.23 1194.54 1567.23 1189.39 1556.93 1185.53 1544.04 1182.95 1527.29 1182.95 1527.29 1182.95 1527.29 1182.95 1527.29 1182.95 1526.01 1181.67 1523.43 1181.67 1522.14 1181.67 1520.85 1181.67 1520.85 1181.67 1520.85 1181.67 1518.28 1180.38 1516.99 1180.38 1515.7 1180.38 1514.41 1180.38 1513.12 1180.38 1513.12 1180.38 1511.83 1179.09 1509.26 1179.09 1507.97 1179.09 1506.68 1179.09 1506.68 1179.09 1505.39 1179.09 1504.1 1177.8 1501.53 1177.8 1500.24 1177.8 1498.95 1177.8 1497.66 1177.8 1497.66 1177.8 1495.09 1177.8 1493.8 1176.52 1492.51 1176.52 1491.22 1176.52 1489.93 1176.52 1488.64 1176.52 1487.36 1176.52 1486.07 1176.52 1484.78 1175.23 1483.49 1175.23 1482.2 1175.23 1480.91 1175.23 1478.34 1175.23 1477.05 1175.23 1475.76 1175.23 1474.47 1175.23 1473.18 1173.94 1471.9 1173.94 1470.61 1173.94 1468.03 1173.94 1466.74 1173.94 1465.45 1173.94 1464.17 1173.94 1462.88 1173.94 1461.59 1173.94 1459.01 1173.94 1457.72 1172.66 1456.44 1172.66 1455.15 1172.66 1453.86 1172.66 1451.28 1172.66 1449.99 1172.66 1448.71 1172.66 1447.42 1172.66 1444.84 1172.66 1443.55 1172.66 1442.26 1172.66 1440.98 1172.66 1439.69 1172.66 1437.11 1171.37 1435.82 1171.37 1434.53 1171.37 1433.25 1171.37 1430.67 1171.37 1429.38 1171.37 1428.09 1171.37 1425.52 1171.37 1424.23 1171.37 1422.94 1171.37 1421.65 1171.37 1420.36 1171.37 1417.79 1171.37 1416.5 1171.37 1413.92 1171.37 1412.63 1171.37 1411.34 1171.37 1410.06 1171.37 1407.48 1171.37 1404.9 1171.37 1403.61 1171.37 1402.33 1171.37 1401.04 1171.37 1399.75 1171.37 1395.88 1171.37 1393.31 1171.37 1389.44 1171.37 1292.82 1185.53 1211.65 1206.13 1191.04 1206.13 1189.75 1206.13 1189.75 1206.13 1189.75 1219 1178.15 1182.95 1173 1163.64 1175.58 1134.03 1178.15 1119.87 1189.75 1119.87 1200.06 1119.87 1201.34 1119.87 1201.34 1119.87 1201.34 1135.32 1230.98 1148.2 1304.41 1148.2 1389.44 1148.2 1493.8 1130.17 1580.12 1107 1591.71 1107 1593 1107 1593 1107 1593 1121.16 1585.27 1139.18 1581.4 1158.49 1581.4 1180.38 1581.4 1198.4 1586.56 1212.56 1593 1212.56 1593 1212.56 1593 1212.56 1593 1211.28 1593 1211.28 1591.71 1209.99 1591.71 1209.99 1591.71 1209.99 1591.71 1209.99 1591.71ZM1158.49 1319.87C1155.92 1281.22 1150.77 1247.72 1143.05 1221.96 1140.47 1211.65 1136.61 1192.33 1152.06 1188.46 1155.92 1188.46 1159.78 1188.46 1164.93 1187.17 1171.37 1187.17 1179.09 1185.88 1185.53 1187.17 1190.68 1187.17 1190.68 1192.33 1189.39 1194.9 1173.94 1221.96 1163.64 1261.9 1159.78 1316.01 1158.49 1336.62 1159.78 1339.2 1158.49 1319.87Z" fill="#173E40" fill-rule="evenodd"/><path d="M1057 1389.5C1057 1277.11 1079.39 1186 1107 1186 1134.61 1186 1157 1277.11 1157 1389.5 1157 1501.89 1134.61 1593 1107 1593 1079.39 1593 1057 1501.89 1057 1389.5Z" fill="#1774FF" fill-rule="evenodd"/><path d="M1161 1389.5C1161 1277.11 1183.61 1186 1211.5 1186 1239.39 1186 1262 1277.11 1262 1389.5 1262 1501.89 1239.39 1593 1211.5 1593 1183.61 1593 1161 1501.89 1161 1389.5Z" fill="#1774FF" fill-rule="evenodd"/><path d="M1120.51 1201C1128.28 1238.39 1137.34 1296.42 1137.34 1351.87 1137.34 1464.05 1112.74 1546.58 1086.84 1546.58 1081.66 1546.58 1075.18 1541.42 1070 1531.11 1077.77 1569.79 1089.43 1593 1102.38 1593 1128.28 1593 1149 1502.74 1149 1389.26 1149 1305.45 1137.34 1231.95 1120.51 1201Z" fill="#166BCE" fill-rule="evenodd"/><path d="M1115.56 1195C1131.05 1228.49 1145.25 1303.19 1145.25 1383.05 1145.25 1495.11 1123.31 1585.27 1098.78 1585.27 1093.62 1585.27 1087.16 1577.54 1082 1572.39 1088.45 1586.56 1096.2 1593 1102.65 1593 1128.47 1593 1153 1507.99 1153 1395.93 1153 1303.19 1134.93 1219.47 1115.56 1195Z" fill="#FFFFFF" fill-rule="evenodd"/><path d="M1075.54 1523.39C1069.13 1487.35 1072.97 1439.72 1072.97 1388.23 1072.97 1285.26 1085.79 1192.57 1108.87 1192.57 1108.87 1192.57 1114 1196.44 1114 1197.72 1111.44 1192.57 1107.59 1190 1103.74 1190 1080.67 1190 1064 1278.82 1064 1381.8 1064 1439.72 1067.85 1491.21 1074.26 1527.26 1080.67 1553 1078.1 1546.56 1075.54 1523.39Z" fill="#FFFFFF" fill-rule="evenodd"/><path d="M1163 1187.1C1175.61 1185.83 1192 1182 1192 1189.65 1192 1198.58 1179.39 1211.33 1175.61 1233 1178.13 1211.33 1188.22 1193.48 1185.7 1190.93 1181.91 1185.83 1164.26 1188.38 1163 1187.1Z" fill="#FFFFFF" fill-rule="evenodd"/><path d="M1234.71 1201C1242.43 1238.39 1247.57 1287.39 1247.57 1342.84 1247.57 1456.32 1228.29 1554.32 1202.57 1554.32 1196.14 1554.32 1187.14 1545.29 1182 1534.97 1191 1573.66 1203.86 1593 1216.71 1593 1242.43 1593 1263 1502.74 1263 1389.26 1263 1305.45 1251.43 1231.95 1234.71 1201Z" fill="#166BCE" fill-rule="evenodd"/><path d="M1230.65 1195C1244.88 1228.49 1255.24 1296.75 1255.24 1377.9 1255.24 1489.96 1237.12 1585.27 1212.53 1585.27 1207.35 1585.27 1200.88 1577.54 1197 1572.39 1202.18 1586.56 1209.94 1593 1216.41 1593 1242.29 1593 1263 1502.84 1263 1389.49 1263 1298.04 1248.76 1219.47 1230.65 1195Z" fill="#FFFFFF" fill-rule="evenodd"/><path d="M1182.25 1524.05C1177.17 1489.22 1175.9 1445.37 1175.9 1393.78 1175.9 1290.6 1200.04 1192.58 1222.92 1192.58 1224.19 1192.58 1228 1196.45 1228 1197.74 1225.46 1192.58 1221.65 1190 1217.83 1190 1194.96 1190 1167 1284.15 1167 1387.33 1167 1445.37 1174.62 1493.09 1182.25 1529.21 1187.33 1555 1186.06 1548.55 1182.25 1524.05Z" fill="#FFFFFF" fill-rule="evenodd"/><path d="M1231 1195C1231 1195 1231 1195 1231 1195 1249.24 1220.78 1262.27 1298.12 1262.27 1389.63 1262.27 1477.28 1250.55 1550.75 1233.61 1580.4 1233.61 1592 1233.61 1592 1233.61 1592 1255.76 1580.4 1274 1494.04 1274 1389.63 1274 1304.56 1264.88 1234.96 1231 1195Z" fill="#175C83" fill-rule="evenodd"/><path d="M1155 1483.85C1157.5 1472.26 1161.25 1479.99 1162.5 1483.85 1165 1489 1162.5 1447.79 1162.5 1447.79 1161.25 1406.59 1161.25 1406.59 1161.25 1406.59 1160 1395 1160 1395 1160 1395" fill="#173E40" fill-rule="evenodd"/><path d="M1177 1567C1169.22 1563.09 1149.78 1564.39 1142 1567 1145.89 1559.17 1157.56 1522.65 1157.56 1507 1158.85 1520.04 1167.93 1560.48 1177 1567Z" fill="#175C83" fill-rule="evenodd"/><path d="M1057.5 1390C1057.5 1277.61 1079.89 1186.5 1107.5 1186.5 1135.11 1186.5 1157.5 1277.61 1157.5 1390 1157.5 1502.39 1135.11 1593.5 1107.5 1593.5 1079.89 1593.5 1057.5 1502.39 1057.5 1390Z" stroke="#000073" stroke-width="2.86476" stroke-linecap="round" stroke-linejoin="round" stroke-miterlimit="10" fill="none" fill-rule="evenodd"/><path d="M1161.5 1390C1161.5 1277.61 1184.11 1186.5 1212 1186.5 1239.89 1186.5 1262.5 1277.61 1262.5 1390 1262.5 1502.39 1239.89 1593.5 1212 1593.5 1184.11 1593.5 1161.5 1502.39 1161.5 1390Z" stroke="#000073" stroke-width="2.86476" stroke-linecap="round" stroke-linejoin="round" stroke-miterlimit="10" fill="none" fill-rule="evenodd"/><path d="M1107.5 1593.5C1121.72 1586.17 1139.82 1582.5 1159.21 1582.5 1181.18 1582.5 1199.28 1587.39 1213.5 1593.5" stroke="#000073" stroke-width="2.86476" stroke-linecap="round" stroke-linejoin="round" stroke-miterlimit="10" fill="none" fill-rule="evenodd"/><path d="M1206.64 1190.21C1219.5 1178.64 1183.5 1173.5 1164.21 1176.07 1134.64 1178.64 1120.5 1190.21 1120.5 1200.5" stroke="#000073" stroke-width="2.86476" stroke-linecap="round" stroke-linejoin="round" stroke-miterlimit="10" fill="none" fill-rule="evenodd"/><path d="M1289.5 1382.5C1289.5 1301.23 1280.49 1240.61 1265.04 1207.07 1261.17 1198.04 1250.87 1181.27 1232.85 1173.53 1219.97 1167.08 1203.23 1164.5 1180.06 1164.5 1131.13 1164.5 1102.8 1178.69 1092.5 1191.59" stroke="#000073" stroke-width="2.86476" stroke-linecap="round" stroke-linejoin="round" stroke-miterlimit="10" fill="none" fill-rule="evenodd"/><path d="M1221.5 1593.5C1229.2 1593.5 1251.01 1580.63 1265.12 1560.05 1279.24 1527.88 1289.5 1463.56 1289.5 1382.5" stroke="#000073" stroke-width="2.86476" stroke-linecap="round" stroke-linejoin="round" stroke-miterlimit="10" fill="none" fill-rule="evenodd"/><path d="M1107.5 1593.5C1121.72 1586.17 1139.82 1582.5 1159.21 1582.5 1181.18 1582.5 1199.28 1587.39 1213.5 1593.5" stroke="#000073" stroke-width="2.86476" stroke-linecap="round" stroke-linejoin="round" stroke-miterlimit="10" fill="none" fill-rule="evenodd"/></g></svg>