<svg width="255" height="437" xmlns="http://www.w3.org/2000/svg" xmlns:xlink="http://www.w3.org/1999/xlink" xml:space="preserve" overflow="hidden"><g transform="translate(-2725 -723)"><path d="M2799 744.5C2799 733.178 2827.21 724 2862 724 2896.79 724 2925 733.178 2925 744.5 2925 755.822 2896.79 765 2862 765 2827.21 765 2799 755.822 2799 744.5Z" fill="#FFD009" fill-rule="evenodd"/><path d="M2878.24 782.823C2878.24 773.765 2897.72 766 2925 763.412 2925 744 2925 744 2925 744 2925 755.647 2896.42 764.706 2862.65 764.706 2827.58 764.706 2799 755.647 2799 744 2799 767.294 2799 767.294 2799 767.294 2811.99 771.176 2821.08 776.353 2821.08 782.823 2821.08 1112.82 2821.08 1112.82 2821.08 1112.82 2831.47 1116.71 2845.76 1118 2862.65 1118 2867.85 1118 2873.04 1118 2878.24 1118L2878.24 782.823Z" fill="#E09D00" fill-rule="evenodd"/><path d="M2925 763.412C2925 744 2925 744 2925 744 2925 755.647 2896.42 764.706 2862.65 764.706 2827.58 764.706 2799 755.647 2799 744 2799 767.294 2799 767.294 2799 767.294 2811.99 771.176 2821.08 776.353 2821.08 782.823 2821.08 1112.82 2821.08 1112.82 2821.08 1112.82 2831.47 1116.71 2845.76 1118 2862.65 1118 2867.85 1118 2873.04 1118 2878.24 1118 2878.24 782.823 2878.24 782.823 2878.24 782.823 2878.24 773.765 2897.72 766 2925 763.412ZM2869.14 782.823C2869.14 782.823 2869.14 1092.12 2869.14 1108.94 2865.25 1108.94 2862.65 1108.94 2862.65 1108.94 2850.96 1108.94 2839.27 1107.65 2830.18 1105.06 2830.18 1092.12 2830.18 782.823 2830.18 782.823 2830.18 778.941 2828.88 775.059 2823.68 769.882 2835.37 772.47 2848.36 773.765 2862.65 773.765 2865.25 773.765 2869.14 773.765 2873.04 773.765 2870.44 776.353 2869.14 780.235 2869.14 782.823Z" fill="#AC7F00" fill-rule="evenodd"/><path d="M2799.5 745C2799.5 733.678 2827.71 724.5 2862.5 724.5 2897.29 724.5 2925.5 733.678 2925.5 745 2925.5 756.322 2897.29 765.5 2862.5 765.5 2827.71 765.5 2799.5 756.322 2799.5 745Z" stroke="#333333" stroke-width="2.86476" stroke-linecap="round" stroke-linejoin="round" stroke-miterlimit="10" fill="none" fill-rule="evenodd"/><path d="M2878.74 783.324C2878.74 774.265 2898.22 766.5 2925.5 763.912 2925.5 744.5 2925.5 744.5 2925.5 744.5 2925.5 756.147 2896.92 765.206 2863.15 765.206 2828.08 765.206 2799.5 756.147 2799.5 744.5 2799.5 767.794 2799.5 767.794 2799.5 767.794 2812.49 771.677 2821.58 776.853 2821.58 783.324 2821.58 1113.32 2821.58 1113.32 2821.58 1113.32 2831.97 1117.21 2846.26 1118.5 2863.15 1118.5 2868.35 1118.5 2873.54 1118.5 2878.74 1118.5L2878.74 783.324Z" stroke="#333333" stroke-width="2.86476" stroke-linecap="round" stroke-linejoin="round" stroke-miterlimit="10" fill="none" fill-rule="evenodd"/><path d="M2852 783.5C2852 771.626 2880.21 762 2915 762 2949.79 762 2978 771.626 2978 783.5 2978 795.374 2949.79 805 2915 805 2880.21 805 2852 795.374 2852 783.5Z" fill="#FFD009" fill-rule="evenodd"/><path d="M2852 1137.31C2852 1147.66 2879.28 1158 2914.35 1158 2949.42 1158 2978 1147.66 2978 1137.31 2978 783 2978 783 2978 783 2978 794.638 2949.42 804.983 2914.35 804.983 2879.28 804.983 2852 794.638 2852 783L2852 1137.31Z" fill="#FFC903" fill-rule="evenodd"/><path d="M2857.3 799C2856 800.292 2856 800.292 2856 800.292 2856 1100 2856 1100 2856 1100 2856 1100 2856 1100 2856 1100 2856 1100 2859.91 894.596 2861.22 826.129 2861.22 814.502 2869.04 808.043 2874.26 809.335 2886 810.626 2900.35 810.626 2916 810.626 2916 810.626 2916 810.626 2916 810.626 2892.52 810.626 2870.35 805.459 2859.91 799 2859.91 799 2858.61 799 2857.3 799Z" fill="#FFFFFF" fill-rule="evenodd"/><path d="M2969.71 812.762C2956.84 1127.13 2956.84 1127.13 2956.84 1127.13 2956.84 1138.77 2928.52 1147.83 2893.76 1147.83 2880.89 1147.83 2869.3 1143.94 2859 1141.36 2870.59 1147.83 2887.32 1153 2907.92 1153 2942.68 1153 2971 1142.65 2971 1131.01 2971 811.468 2971 811.468 2971 811.468 2971 805 2969.71 808.881 2969.71 812.762Z" fill="#FFB400" fill-rule="evenodd"/><path d="M2971.41 812C2968.82 1131.04 2968.82 1131.04 2968.82 1131.04 2968.82 1140.08 2944.24 1153 2908 1153 2908 1153 2908 1153 2908 1153 2940.35 1153 2974 1146.54 2974 1131.04 2971.41 812 2971.41 812 2971.41 812Z" fill="#FFFFFF" fill-rule="evenodd"/><path d="M2852.5 784C2852.5 772.126 2880.71 762.5 2915.5 762.5 2950.29 762.5 2978.5 772.126 2978.5 784 2978.5 795.874 2950.29 805.5 2915.5 805.5 2880.71 805.5 2852.5 795.874 2852.5 784Z" stroke="#333333" stroke-width="2.86476" stroke-linecap="round" stroke-linejoin="round" stroke-miterlimit="10" fill="none" fill-rule="evenodd"/><path d="M2852.5 1137.81C2852.5 1148.16 2879.78 1158.5 2914.85 1158.5 2949.92 1158.5 2978.5 1148.16 2978.5 1137.81 2978.5 783.5 2978.5 783.5 2978.5 783.5 2978.5 795.138 2949.92 805.483 2914.85 805.483 2879.78 805.483 2852.5 795.138 2852.5 783.5L2852.5 1137.81Z" stroke="#333333" stroke-width="2.86476" stroke-linecap="round" stroke-linejoin="round" stroke-miterlimit="10" fill="none" fill-rule="evenodd"/><path d="M2726 783.5C2726 771.626 2753.98 762 2788.5 762 2823.02 762 2851 771.626 2851 783.5 2851 795.374 2823.02 805 2788.5 805 2753.98 805 2726 795.374 2726 783.5Z" fill="#FFD009" fill-rule="evenodd"/><path d="M2726 1137.31C2726 1147.66 2753.06 1158 2787.86 1158 2822.65 1158 2851 1147.66 2851 1137.31 2851 783 2851 783 2851 783 2851 794.638 2822.65 804.983 2787.86 804.983 2753.06 804.983 2726 794.638 2726 783L2726 1137.31Z" fill="#FFC903" fill-rule="evenodd"/><path d="M2731.28 799C2730 799 2730 800.292 2730 800.292 2730 1100 2730 1100 2730 1100 2730 1100 2730 1100 2730 1100 2730 1100 2732.57 894.596 2733.85 826.129 2733.85 814.502 2742.83 808.043 2747.96 809.335 2758.22 810.626 2772.33 810.626 2787.72 810.626 2789 810.626 2789 810.626 2789 810.626 2764.63 810.626 2742.83 805.459 2733.85 799 2732.57 799 2731.28 799 2731.28 799Z" fill="#FFFFFF" fill-rule="evenodd"/><path d="M2842.7 812.762C2830.98 1127.13 2830.98 1127.13 2830.98 1127.13 2830.98 1138.77 2802.33 1147.83 2767.16 1147.83 2752.84 1147.83 2742.42 1143.94 2732 1141.36 2743.72 1147.83 2760.65 1153 2781.49 1153 2816.65 1153 2844 1142.65 2844 1131.01 2844 811.468 2844 811.468 2844 811.468 2844 805 2842.7 808.881 2842.7 812.762Z" fill="#FFB400" fill-rule="evenodd"/><path d="M2843.4 812C2842.1 1131.04 2842.1 1131.04 2842.1 1131.04 2842.1 1140.08 2816.1 1153 2781 1153 2781 1153 2781 1153 2781 1153 2812.2 1153 2846 1146.54 2846 1131.04 2843.4 812 2843.4 812 2843.4 812Z" fill="#FFFFFF" fill-rule="evenodd"/><path d="M2726.5 784C2726.5 772.126 2754.48 762.5 2789 762.5 2823.52 762.5 2851.5 772.126 2851.5 784 2851.5 795.874 2823.52 805.5 2789 805.5 2754.48 805.5 2726.5 795.874 2726.5 784Z" stroke="#333333" stroke-width="2.86476" stroke-linecap="round" stroke-linejoin="round" stroke-miterlimit="10" fill="none" fill-rule="evenodd"/><path d="M2726.5 1137.81C2726.5 1148.16 2753.56 1158.5 2788.36 1158.5 2823.15 1158.5 2851.5 1148.16 2851.5 1137.81 2851.5 783.5 2851.5 783.5 2851.5 783.5 2851.5 795.138 2823.15 805.483 2788.36 805.483 2753.56 805.483 2726.5 795.138 2726.5 783.5L2726.5 1137.81Z" stroke="#333333" stroke-width="2.86476" stroke-linecap="round" stroke-linejoin="round" stroke-miterlimit="10" fill="none" fill-rule="evenodd"/></g></svg>