<svg width="237" height="432" xmlns="http://www.w3.org/2000/svg" xmlns:xlink="http://www.w3.org/1999/xlink" xml:space="preserve" overflow="hidden"><g transform="translate(-1821 -1780)"><path d="M2054.56 1893.68C2061 1924.53 2040.4 1959.23 2040.4 1996.5 2040.4 2031.2 2061 2063.33 2055.85 2091.61 2044.27 2154.59 2019.81 2197 1992.78 2197 1954.16 2197 1940 2107.03 1940 1996.5 1940 1885.97 1954.16 1796 1992.78 1796 2019.81 1796 2041.69 1834.56 2054.56 1893.68Z" fill="#9BC6AB" fill-rule="evenodd"/><path d="M1824.44 1893.68C1819.29 1924.53 1839.88 1959.23 1839.88 1996.5 1839.88 2031.2 1818 2063.33 1823.15 2091.61 1836.02 2154.59 1859.19 2197 1886.22 2197 1926.13 2197 1939 2107.03 1939 1996.5 1939 1885.97 1926.13 1796 1886.22 1796 1860.48 1796 1837.31 1834.56 1824.44 1893.68Z" fill="#9BC6AB" fill-rule="evenodd"/><path d="M1992.74 2196.88C1954.25 2196.88 1940.13 2107.03 1940.13 1996.64 1940.13 1886.25 1954.25 1796.4 1992.74 1796.4 1995.3 1796.4 1997.87 1796.4 1999.15 1796.4 1986.32 1787.42 1972.21 1781 1941.42 1781 1909.34 1781 1890.09 1787.42 1877.26 1797.69 1879.83 1796.4 1883.68 1796.4 1886.25 1796.4 1926.02 1796.4 1938.85 1886.25 1938.85 1996.64 1938.85 2107.03 1926.02 2196.88 1886.25 2196.88 1879.83 2196.88 1873.42 2195.6 1867 2190.46 1881.11 2202.01 1911.91 2211 1949.11 2211 1979.91 2211 1986.32 2204.58 2003 2195.6 1999.15 2196.88 1996.58 2196.88 1992.74 2196.88Z" fill="#777067" fill-rule="evenodd"/><path d="M2003 2195.6C1999.15 2196.88 1996.58 2196.88 1992.74 2196.88 1954.25 2196.88 1940.13 2107.03 1940.13 1996.64 1940.13 1886.25 1954.25 1796.4 1992.74 1796.4 1995.3 1796.4 1997.87 1796.4 1999.15 1796.4 1986.32 1787.42 1972.21 1781 1941.42 1781 1909.34 1781 1890.09 1787.42 1877.26 1797.69 1879.83 1796.4 1883.68 1796.4 1886.25 1796.4 1926.02 1796.4 1938.85 1886.25 1938.85 1996.64 1938.85 2107.03 1926.02 2196.88 1886.25 2196.88 1879.83 2196.88 1873.42 2195.6 1867 2190.46 1881.11 2202.01 1911.91 2211 1949.11 2211 1979.91 2211 1986.32 2204.58 2003 2195.6ZM1918.32 2187.9C1938.85 2154.52 1941.42 2081.36 1941.42 1996.64 1941.42 1910.64 1938.85 1834.91 1917.04 1802.82 1915.75 1800.25 1936.28 1792.55 1949.11 1792.55 1963.23 1792.55 1964.51 1800.25 1963.23 1801.54 1940.13 1834.91 1938.85 1910.64 1938.85 1996.64 1938.85 2081.36 1940.13 2155.81 1960.66 2189.18 1963.23 2191.75 1961.94 2199.45 1949.11 2199.45 1936.28 2199.45 1917.04 2191.75 1918.32 2187.9Z" fill="#5E524D" fill-rule="evenodd"/><path d="M1948 1998.85C1948 2084.93 1960.69 2147.88 1975.92 2180 1975.92 2180 1975.92 2180 1975.92 2180 1961.96 2149.17 1955.62 2084.93 1955.62 1998.85 1955.62 1923.06 1960.69 1838.26 1981 1810 1981 1810 1981 1810 1981 1810 1961.96 1835.69 1948 1901.22 1948 1998.85Z" fill="#FFFFFF" fill-rule="evenodd"/><path d="M2027.78 1835.98C2036.59 1851.37 2044.15 1873.17 2049.19 1897.53 2052.96 1912.92 2047.93 1930.88 2042.89 1950.11 2039.11 1965.5 2035.33 1982.18 2035.33 1998.85 2035.33 2015.52 2040.37 2030.91 2044.15 2046.3 2049.19 2062.97 2052.96 2079.64 2050.44 2093.75 2046.67 2112.98 2041.63 2130.94 2036.59 2145.05 2029.04 2160.44 2029.04 2163 2036.59 2150.18 2044.15 2134.79 2051.7 2116.83 2055.48 2095.03 2058 2079.64 2052.96 2062.97 2047.93 2045.02 2044.15 2029.63 2040.37 2014.24 2040.37 1998.85 2040.37 1982.18 2044.15 1966.79 2047.93 1951.4 2052.96 1932.16 2056.74 1914.21 2054.22 1896.25 2049.19 1871.89 2040.37 1852.65 2030.3 1837.26 2025.26 1828.28 2024 1827 2027.78 1835.98Z" fill="#FFFFFF" fill-rule="evenodd"/><path d="M2014 1813C2027.75 1829.66 2035.25 1860.43 2042.75 1897.6 2046.5 1912.98 2040.25 1930.92 2035.25 1950.15 2031.5 1965.53 2027.75 1982.2 2027.75 1998.86 2027.75 2015.52 2032.75 2030.9 2036.5 2046.29 2041.5 2062.95 2047.75 2080.89 2045.25 2096.27 2037.75 2137.29 2029 2169.34 2014 2186 2014 2186 2014 2186 2014 2186 2029 2168.05 2044 2137.29 2051.5 2094.99 2054 2079.61 2050.25 2062.95 2045.25 2045 2040.25 2029.62 2036.5 2014.24 2036.5 1998.86 2036.5 1982.2 2040.25 1966.81 2044 1951.43 2049 1932.21 2054 1914.26 2050.25 1896.32 2042.75 1859.14 2029 1829.66 2014 1813Z" fill="#8D9886" fill-rule="evenodd"/><path d="M1829.85 1896.09C1827.28 1914.05 1831.13 1932.01 1836.26 1951.26 1840.1 1966.65 1845.23 1982.05 1845.23 1998.72 1845.23 2014.12 1840.1 2029.52 1836.26 2044.91 1831.13 2062.87 1826 2079.55 1828.56 2094.95 1832.41 2110.34 1837.54 2123.17 1842.67 2136 1842.67 2136 1842.67 2136 1842.67 2136 1837.54 2124.45 1836.26 2109.06 1833.69 2093.66 1831.13 2079.55 1838.82 2062.87 1843.95 2046.19 1847.79 2030.8 1854.21 2015.4 1854.21 1998.72 1854.21 1982.05 1847.79 1965.37 1843.95 1949.97 1838.82 1930.73 1831.13 1912.77 1834.97 1897.37 1843.95 1853.75 1858.05 1817.83 1876 1805 1876 1805 1876 1805 1876 1805 1856.77 1819.11 1840.1 1849.9 1829.85 1896.09Z" fill="#FFFFFF" fill-rule="evenodd"/><path d="M1904.2 1806C1914.43 1841.99 1923.38 1911.39 1923.38 1979.51 1923.38 2090.04 1911.87 2169.72 1872.24 2169.72 1860.73 2169.72 1849.23 2162.01 1839 2146.59 1851.78 2180.01 1865.85 2198 1885.03 2198 1923.38 2198 1940 2110.6 1940 1998.79 1940 1906.25 1927.22 1829.13 1904.2 1806Z" fill="#909D8C" fill-rule="evenodd"/><path d="M1904.64 1806.57C1928.82 1829.69 1933.91 1919.59 1933.91 1999.22 1933.91 2100.68 1921.18 2197 1883 2197 1883 2197 1883 2197 1883 2197 1925 2197 1939 2107.1 1939 1999.22 1939 1896.47 1926.27 1827.12 1903.36 1804L1904.64 1806.57Z" fill="#FFFFFF" fill-rule="evenodd"/><path d="M1944.44 1794.62C1929.08 1792 1922.68 1811.62 1927.8 1826 1926.52 1818.15 1915 1809 1915 1802.46 1921.4 1797.23 1929.08 1792 1947 1795.92" fill="#5E524D" fill-rule="evenodd"/><path d="M1911 1802C1912.27 1800.8 1912.27 1800.8 1912.27 1800.8 1919.91 1796 1925 1793.6 1940.27 1793.6 1955.55 1793.6 1956.82 1796 1964.45 1800.8 1967 1800.8 1967 1800.8 1967 1800.8 1958.09 1796 1958.09 1790 1941.55 1790 1925 1790 1918.64 1796 1911 1802Z" fill="#FFFFFF" fill-rule="evenodd"/><path d="M2054.56 1893.68C2061 1924.53 2040.4 1959.23 2040.4 1996.5 2040.4 2031.2 2061 2063.33 2055.85 2091.61 2044.27 2154.59 2019.81 2197 1992.78 2197 1954.16 2197 1940 2107.03 1940 1996.5 1940 1885.97 1954.16 1796 1992.78 1796 2019.81 1796 2041.69 1834.56 2054.56 1893.68Z" stroke="#005933" stroke-width="2.29167" stroke-linecap="round" stroke-linejoin="round" stroke-miterlimit="10" fill="none" fill-rule="evenodd"/><path d="M1824.44 1893.68C1819.29 1924.53 1839.88 1959.23 1839.88 1996.5 1839.88 2031.2 1818 2063.33 1823.15 2091.61 1836.02 2154.59 1859.19 2197 1886.22 2197 1926.13 2197 1939 2107.03 1939 1996.5 1939 1885.97 1926.13 1796 1886.22 1796 1860.48 1796 1837.31 1834.56 1824.44 1893.68Z" stroke="#005933" stroke-width="2.29167" stroke-linecap="round" stroke-linejoin="round" stroke-miterlimit="10" fill="none" fill-rule="evenodd"/><path d="M1992.74 2196.88C1954.25 2196.88 1940.13 2107.03 1940.13 1996.64 1940.13 1886.25 1954.25 1796.4 1992.74 1796.4 1995.3 1796.4 1997.87 1796.4 1999.15 1796.4 1986.32 1787.42 1972.21 1781 1941.42 1781 1909.34 1781 1890.09 1787.42 1877.26 1797.69 1879.83 1796.4 1883.68 1796.4 1886.25 1796.4 1926.02 1796.4 1938.85 1886.25 1938.85 1996.64 1938.85 2107.03 1926.02 2196.88 1886.25 2196.88 1879.83 2196.88 1873.42 2195.6 1867 2190.46 1881.11 2202.01 1911.91 2211 1949.11 2211 1979.91 2211 1986.32 2204.58 2003 2195.6 1999.15 2196.88 1996.58 2196.88 1992.74 2196.88Z" stroke="#005933" stroke-width="2.29167" stroke-linecap="round" stroke-linejoin="round" stroke-miterlimit="10" fill="none" fill-rule="evenodd"/><path d="M1966 1802C1958.33 1797.43 1957.05 1794 1940.42 1794 1923.79 1794 1918.67 1797.43 1911 1802" stroke="#005933" stroke-width="2.29167" stroke-linecap="round" stroke-linejoin="round" stroke-miterlimit="10" fill="none" fill-rule="evenodd"/><path d="M1916 2190C1921.11 2195.6 1926.22 2197 1941.56 2197 1954.33 2197 1955.61 2194.2 1962 2190" stroke="#005933" stroke-width="2.29167" stroke-linecap="round" stroke-linejoin="round" stroke-miterlimit="10" fill="none" fill-rule="evenodd"/><path d="M1957 1810C1949.5 1822.78 1944.5 1856 1942 1879 1942 1859.83 1948.25 1818.94 1957 1810Z" fill="#B3FFFF" fill-rule="evenodd"/></g></svg>