<svg width="312" height="399" xmlns="http://www.w3.org/2000/svg" xmlns:xlink="http://www.w3.org/1999/xlink" xml:space="preserve" overflow="hidden"><g transform="translate(-1498 -760)"><path d="M1499 783C1499 771.353 1527.58 761 1561.35 761 1596.42 761 1625 771.353 1625 783 1625 783 1625 783 1625 783 1625 1136.29 1625 1136.29 1625 1136.29 1625 1147.94 1596.42 1157 1561.35 1157 1527.58 1157 1499 1147.94 1499 1136.29 1499 783 1499 783 1499 783Z" fill="#C6E2E8" fill-rule="evenodd"/><path d="M1506.29 1133.24C1517.91 792.882 1517.91 792.882 1517.91 792.882 1517.91 781.235 1546.3 772.176 1581.15 772.176 1595.35 772.176 1605.67 776.059 1616 777.353 1604.38 772.176 1587.6 767 1566.95 767 1532.1 767 1505 777.353 1505 789 1505 1134.53 1505 1134.53 1505 1134.53 1505 1141 1506.29 1137.12 1506.29 1133.24Z" fill="#FFFFFF" fill-rule="evenodd"/><path d="M1614.71 785.771C1601.8 1126.39 1601.8 1126.39 1601.8 1126.39 1601.8 1138.05 1574.7 1147.11 1539.85 1147.11 1525.65 1147.11 1515.33 1143.23 1505 1140.64 1515.33 1145.82 1532.1 1151 1554.05 1151 1587.6 1151 1616 1141.93 1616 1130.28 1616 784.476 1616 784.476 1616 784.476 1616 778 1614.71 781.885 1614.71 785.771Z" fill="#9FCDD8" fill-rule="evenodd"/><path d="M1808 783C1808 771.353 1779.49 761 1744.5 761 1709.51 761 1681 771.353 1681 783 1681 783 1681 783 1681 783 1681 1136.29 1681 1136.29 1681 1136.29 1681 1147.94 1709.51 1157 1744.5 1157 1779.49 1157 1808 1147.94 1808 1136.29 1808 783 1808 783 1808 783Z" fill="#C6E2E8" fill-rule="evenodd"/><path d="M1681.29 1136.29C1681.29 783 1681.29 783 1681.29 783 1681.29 783 1681.29 783 1681.29 783 1681.29 776.529 1687.71 772.647 1698 768.765 1686.43 764.882 1671 761 1653 761 1635 761 1618.29 763.588 1608 768.765 1618.29 771.353 1624.71 776.529 1624.71 783 1624.71 783 1624.71 783 1624.71 783 1624.71 1136.29 1624.71 1136.29 1624.71 1136.29 1624.71 1141.47 1618.29 1146.65 1608 1150.53 1618.29 1154.41 1635 1157 1653 1157 1671 1157 1686.43 1154.41 1698 1150.53 1687.71 1146.65 1681.29 1141.47 1681.29 1136.29Z" fill="#7AB6C5" fill-rule="evenodd"/><path d="M1681.29 1136.29C1681.29 783 1681.29 783 1681.29 783 1681.29 776.529 1687.71 772.647 1698 768.765 1686.43 764.882 1671 761 1653 761 1635 761 1618.29 763.588 1608 768.765 1618.29 771.353 1624.71 776.529 1624.71 783 1624.71 1136.29 1624.71 1136.29 1624.71 1136.29 1624.71 1141.47 1618.29 1146.65 1608 1150.53 1618.29 1154.41 1635 1157 1653 1157 1671 1157 1686.43 1154.41 1698 1150.53 1687.71 1146.65 1681.29 1141.47 1681.29 1136.29ZM1667.14 1146.65C1662 1147.94 1658.14 1147.94 1653 1147.94 1649.14 1147.94 1644 1147.94 1640.14 1147.94 1635 1146.65 1633.71 1138.88 1633.71 1136.29 1633.71 783 1633.71 783 1633.71 783 1633.71 781.706 1633.71 779.118 1633.71 777.824 1632.43 776.529 1635 771.353 1638.86 771.353 1642.71 771.353 1647.86 771.353 1653 771.353 1658.14 771.353 1663.29 771.353 1668.43 771.353 1671 771.353 1673.57 776.529 1673.57 777.824 1672.29 779.118 1672.29 781.706 1672.29 783 1672.29 1136.29 1672.29 1136.29 1672.29 1136.29 1672.29 1138.88 1673.57 1146.65 1667.14 1146.65Z" fill="#4698AC" fill-rule="evenodd"/><path d="M1616.44 785C1613.88 1130.31 1613.88 1130.31 1613.88 1130.31 1613.88 1139.36 1589.56 1151 1555 1151 1555 1151 1555 1151 1555 1151 1585.72 1151 1619 1145.83 1619 1130.31 1616.44 785 1616.44 785 1616.44 785Z" fill="#FFFFFF" fill-rule="evenodd"/><path d="M1689.29 1133.24C1702.2 792.882 1702.2 792.882 1702.2 792.882 1702.2 781.235 1729.3 772.176 1764.15 772.176 1778.35 772.176 1788.67 776.059 1799 777.353 1788.67 772.176 1771.9 767 1749.95 767 1716.4 767 1688 777.353 1688 789 1688 1134.53 1688 1134.53 1688 1134.53 1688 1141 1689.29 1137.12 1689.29 1133.24Z" fill="#FFFFFF" fill-rule="evenodd"/><path d="M1797.71 785.771C1786.09 1126.39 1786.09 1126.39 1786.09 1126.39 1786.09 1138.05 1757.7 1147.11 1722.85 1147.11 1708.65 1147.11 1698.33 1143.23 1688 1140.64 1699.62 1145.82 1716.4 1151 1737.05 1151 1771.9 1151 1799 1141.93 1799 1130.28 1799 784.476 1799 784.476 1799 784.476 1799 778 1797.71 781.885 1797.71 785.771Z" fill="#9FCDD8" fill-rule="evenodd"/><path d="M1799.4 785C1798.1 1130.31 1798.1 1130.31 1798.1 1130.31 1798.1 1139.36 1772.1 1151 1737 1151 1737 1151 1737 1151 1737 1151 1768.2 1151 1802 1145.83 1802 1130.31 1799.4 785 1799.4 785 1799.4 785Z" fill="#FFFFFF" fill-rule="evenodd"/><path d="M1499.5 783.5C1499.5 771.853 1528.08 761.5 1561.85 761.5 1596.92 761.5 1625.5 771.853 1625.5 783.5 1625.5 783.5 1625.5 783.5 1625.5 783.5 1625.5 1136.79 1625.5 1136.79 1625.5 1136.79 1625.5 1148.44 1596.92 1157.5 1561.85 1157.5 1528.08 1157.5 1499.5 1148.44 1499.5 1136.79 1499.5 783.5 1499.5 783.5 1499.5 783.5Z" stroke="#333333" stroke-width="2.86476" stroke-linecap="round" stroke-linejoin="round" stroke-miterlimit="10" fill="none" fill-rule="evenodd"/><path d="M1808.5 783.5C1808.5 771.853 1779.99 761.5 1745 761.5 1710.01 761.5 1681.5 771.853 1681.5 783.5 1681.5 783.5 1681.5 783.5 1681.5 783.5 1681.5 1136.79 1681.5 1136.79 1681.5 1136.79 1681.5 1148.44 1710.01 1157.5 1745 1157.5 1779.99 1157.5 1808.5 1148.44 1808.5 1136.79 1808.5 783.5 1808.5 783.5 1808.5 783.5Z" stroke="#333333" stroke-width="2.86476" stroke-linecap="round" stroke-linejoin="round" stroke-miterlimit="10" fill="none" fill-rule="evenodd"/><path d="M1681.79 1136.79C1681.79 783.5 1681.79 783.5 1681.79 783.5 1681.79 783.5 1681.79 783.5 1681.79 783.5 1681.79 777.029 1688.21 773.147 1698.5 769.265 1686.93 765.382 1671.5 761.5 1653.5 761.5 1635.5 761.5 1618.79 764.088 1608.5 769.265 1618.79 771.853 1625.21 777.029 1625.21 783.5 1625.21 783.5 1625.21 783.5 1625.21 783.5 1625.21 1136.79 1625.21 1136.79 1625.21 1136.79 1625.21 1141.97 1618.79 1147.15 1608.5 1151.03 1618.79 1154.91 1635.5 1157.5 1653.5 1157.5 1671.5 1157.5 1686.93 1154.91 1698.5 1151.03 1688.21 1147.15 1681.79 1141.97 1681.79 1136.79Z" stroke="#333333" stroke-width="2.86476" stroke-linecap="round" stroke-linejoin="round" stroke-miterlimit="10" fill="none" fill-rule="evenodd"/></g></svg>