<svg width="256" height="431" xmlns="http://www.w3.org/2000/svg" xmlns:xlink="http://www.w3.org/1999/xlink" xml:space="preserve" overflow="hidden"><g transform="translate(-3106 -535)"><path d="M3358.56 648.436C3365 679.205 3344.4 713.821 3344.4 751 3344.4 785.616 3365 817.667 3359.85 845.872 3348.26 908.693 3325.09 951 3298.06 951 3258.15 951 3253 861.257 3253 751 3253 640.744 3258.15 551 3298.06 551 3323.8 551 3345.69 589.462 3358.56 648.436Z" fill="#FF636E" fill-rule="evenodd"/><path d="M3109.66 648.436C3103.28 679.205 3123.69 713.821 3123.69 751 3123.69 785.616 3102 817.667 3108.38 845.872 3119.86 908.693 3142.83 951 3169.62 951 3209.17 951 3213 861.257 3213 751 3213 640.744 3209.17 551 3169.62 551 3144.1 551 3121.14 589.462 3109.66 648.436Z" fill="#FF636E" fill-rule="evenodd"/><path d="M3298.03 950.913C3258.32 950.913 3253.2 861.271 3253.2 751.14 3253.2 641.009 3258.32 551.367 3298.03 551.367 3299.31 551.367 3301.88 551.367 3304.44 551.367 3290.35 542.403 3263.45 536 3232.7 536 3201.96 536 3175.06 542.403 3160.97 552.648 3163.53 551.367 3167.37 551.367 3169.93 551.367 3209.64 551.367 3213.49 641.009 3213.49 751.14 3213.49 861.271 3209.64 950.913 3169.93 950.913 3163.53 950.913 3157.12 949.633 3152 944.51 3164.81 956.036 3196.83 965 3232.7 965 3263.45 965 3290.35 958.597 3307 949.633 3303.16 950.913 3300.59 950.913 3298.03 950.913Z" fill="#F60D2A" fill-rule="evenodd"/><path d="M3307 949.633C3303.16 950.913 3300.59 950.913 3298.03 950.913 3258.32 950.913 3253.2 861.271 3253.2 751.14 3253.2 641.009 3258.32 551.367 3298.03 551.367 3299.31 551.367 3301.88 551.367 3304.44 551.367 3290.35 542.403 3263.45 536 3232.7 536 3201.96 536 3175.06 542.403 3160.97 552.648 3163.53 551.367 3167.37 551.367 3169.93 551.367 3209.64 551.367 3213.49 641.009 3213.49 751.14 3213.49 861.271 3209.64 950.913 3169.93 950.913 3163.53 950.913 3157.12 949.633 3152 944.51 3164.81 956.036 3196.83 965 3232.7 965 3263.45 965 3290.35 958.597 3307 949.633ZM3203.24 941.949C3223.74 908.654 3225.02 835.66 3225.02 751.14 3225.02 665.34 3223.74 589.785 3200.68 557.77 3199.4 555.209 3219.89 547.525 3232.7 547.525 3246.79 547.525 3268.57 555.209 3267.29 556.489 3244.23 589.785 3241.67 665.34 3241.67 751.14 3241.67 835.66 3244.23 909.934 3266.01 943.23 3267.29 945.791 3245.51 953.474 3232.7 953.474 3219.89 953.474 3200.68 945.791 3203.24 941.949Z" fill="#DD0010" fill-rule="evenodd"/><path d="M3259 753.854C3259 839.931 3265.67 902.882 3280.33 935 3280.33 935 3280.33 935 3280.33 935 3265.67 904.167 3267 839.931 3267 753.854 3267 678.056 3264.33 593.264 3287 565 3287 565 3287 565 3287 565 3265.67 590.695 3259 656.215 3259 753.854Z" fill="#FFFFFF" fill-rule="evenodd"/><path d="M3331.78 590.977C3340.59 606.366 3348.15 628.168 3353.19 652.534 3356.96 667.924 3351.93 685.878 3348.15 705.115 3343.11 720.504 3339.33 737.176 3339.33 753.847 3339.33 770.519 3344.37 785.908 3348.15 801.298 3353.19 817.97 3358.22 834.641 3354.44 848.748 3351.93 867.985 3345.63 885.939 3340.59 900.046 3333.04 915.435 3333.04 918 3340.59 905.176 3348.15 889.786 3355.7 871.832 3359.48 850.031 3362 834.641 3358.22 817.97 3353.19 800.015 3348.15 784.626 3344.37 769.237 3344.37 753.847 3344.37 737.176 3348.15 721.786 3351.93 706.397 3356.96 687.16 3362 669.206 3358.22 651.252 3353.19 626.885 3344.37 607.649 3334.3 592.259 3329.26 583.282 3328 582 3331.78 590.977Z" fill="#FFFFFF" fill-rule="evenodd"/><path d="M3317 568C3331.09 584.663 3338.78 615.426 3346.47 652.598 3350.31 667.979 3343.91 685.924 3340.06 705.151 3334.94 720.533 3331.09 737.196 3331.09 753.859 3331.09 770.522 3336.22 785.904 3340.06 801.285 3345.19 817.948 3351.59 835.893 3349.03 851.275 3341.34 892.292 3332.37 924.337 3317 941 3317 941 3317 941 3317 941 3332.37 923.055 3347.75 892.292 3355.44 849.993 3358 834.612 3354.16 817.948 3349.03 800.003 3343.91 784.622 3340.06 769.24 3340.06 753.859 3340.06 737.196 3343.91 721.814 3347.75 706.433 3352.88 687.206 3358 669.261 3354.16 651.316 3346.47 614.144 3332.37 584.663 3317 568Z" fill="#FF3549" fill-rule="evenodd"/><path d="M3114.13 651.089C3110.28 669.05 3115.41 687.012 3120.54 706.256 3124.38 721.651 3128.23 737.046 3128.23 753.725 3128.23 769.12 3123.1 784.516 3119.26 799.911 3114.13 817.872 3109 834.55 3112.85 849.946 3115.41 865.341 3121.82 878.171 3125.67 891 3125.67 891 3125.67 891 3125.67 891 3121.82 879.453 3120.54 864.058 3116.69 848.663 3114.13 834.55 3121.82 817.872 3126.95 801.194 3130.79 785.798 3138.49 770.403 3138.49 753.725 3138.49 737.046 3132.08 720.368 3126.95 704.973 3123.1 685.729 3115.41 667.767 3117.97 652.372 3128.23 608.752 3141.05 572.829 3159 560 3159 560 3159 560 3159 560 3139.77 574.112 3123.1 604.903 3114.13 651.089Z" fill="#FFFFFF" fill-rule="evenodd"/><path d="M3188.08 561C3198.34 596.935 3199.62 655.971 3199.62 723.99 3199.62 834.362 3195.77 924.199 3156.04 924.199 3144.51 924.199 3132.97 916.498 3124 901.098 3135.54 934.466 3153.48 955 3171.42 955 3211.16 955 3215 865.163 3215 753.508 3215 661.104 3212.44 584.101 3188.08 561Z" fill="#FF3A4F" fill-rule="evenodd"/><path d="M3187.58 560.569C3212.39 583.696 3209.78 673.631 3209.78 753.288 3209.78 854.786 3207.17 955 3168 955 3168 955 3168 955 3168 955 3211.08 955 3215 861.21 3215 753.288 3215 650.505 3209.78 581.126 3186.28 558L3187.58 560.569Z" fill="#FFFFFF" fill-rule="evenodd"/><path d="M3238 549.615C3222.52 547 3207.03 566.615 3210.9 581 3209.61 573.154 3198 564 3198 557.461 3205.74 552.231 3213.48 547 3230.26 550.923" fill="#DD0010" fill-rule="evenodd"/><path d="M3194 557C3195.28 555.727 3195.28 555.727 3195.28 555.727 3202.98 550.636 3217.1 548.091 3232.5 548.091 3247.9 548.091 3262.02 550.636 3268.43 555.727 3271 555.727 3271 555.727 3271 555.727 3262.02 550.636 3249.18 543 3232.5 543 3215.82 543 3202.98 550.636 3194 557Z" fill="#FFFFFF" fill-rule="evenodd"/><path d="M3358.56 648.436C3365 679.205 3344.4 713.821 3344.4 751 3344.4 785.616 3365 817.667 3359.85 845.872 3348.26 908.693 3325.09 951 3298.06 951 3258.15 951 3253 861.257 3253 751 3253 640.744 3258.15 551 3298.06 551 3323.8 551 3345.69 589.462 3358.56 648.436Z" stroke="#660000" stroke-width="2.29167" stroke-linecap="round" stroke-linejoin="round" stroke-miterlimit="10" fill="none" fill-rule="evenodd"/><path d="M3109.66 648.436C3103.28 679.205 3123.69 713.821 3123.69 751 3123.69 785.616 3102 817.667 3108.38 845.872 3119.86 908.693 3142.83 951 3169.62 951 3209.17 951 3213 861.257 3213 751 3213 640.744 3209.17 551 3169.62 551 3144.1 551 3121.14 589.462 3109.66 648.436Z" stroke="#660000" stroke-width="2.29167" stroke-linecap="round" stroke-linejoin="round" stroke-miterlimit="10" fill="none" fill-rule="evenodd"/><path d="M3298.03 950.913C3258.32 950.913 3253.2 861.271 3253.2 751.14 3253.2 641.009 3258.32 551.367 3298.03 551.367 3299.31 551.367 3301.88 551.367 3304.44 551.367 3290.35 542.403 3263.45 536 3232.7 536 3201.96 536 3175.06 542.403 3160.97 552.648 3163.53 551.367 3167.37 551.367 3169.93 551.367 3209.64 551.367 3213.49 641.009 3213.49 751.14 3213.49 861.271 3209.64 950.913 3169.93 950.913 3163.53 950.913 3157.12 949.633 3152 944.51 3164.81 956.036 3196.83 965 3232.7 965 3263.45 965 3290.35 958.597 3307 949.633 3303.16 950.913 3300.59 950.913 3298.03 950.913Z" stroke="#660000" stroke-width="2.29167" stroke-linecap="round" stroke-linejoin="round" stroke-miterlimit="10" fill="none" fill-rule="evenodd"/><path d="M3270 557C3263.56 551.857 3249.39 548 3232.64 548 3215.9 548 3201.73 551.857 3194 557" stroke="#660000" stroke-width="2.29167" stroke-linecap="round" stroke-linejoin="round" stroke-miterlimit="10" fill="none" fill-rule="evenodd"/><path d="M3199 945C3204.13 949.8 3220.81 951 3236.21 951 3249.04 951 3259.3 948.6 3267 945" stroke="#660000" stroke-width="2.29167" stroke-linecap="round" stroke-linejoin="round" stroke-miterlimit="10" fill="none" fill-rule="evenodd"/><path d="M3261 565C3253 577.963 3247.67 611.667 3245 635 3245 615.556 3251.67 574.074 3261 565Z" fill="#FFC2C2" fill-rule="evenodd"/></g></svg>