<svg width="260" height="436" xmlns="http://www.w3.org/2000/svg" xmlns:xlink="http://www.w3.org/1999/xlink" xml:space="preserve" overflow="hidden"><g transform="translate(-2746 -531)"><path d="M2973.59 662.649C2978.72 693.396 2958.2 727.987 2958.2 765.141 2958.2 799.732 2980 831.76 2974.87 859.946 2962.04 922.722 2938.96 965 2912.02 965 2873.54 965 2862 875.319 2862 765.141 2862 653.681 2873.54 564 2912.02 564 2937.67 564 2960.76 603.716 2973.59 662.649Z" fill="#FF636E" fill-rule="evenodd"/><path d="M2874 765.139C2874 851.215 2879.2 914.167 2894.8 945 2894.8 945 2894.8 945 2894.8 945 2880.5 914.167 2881.8 849.931 2881.8 765.139 2881.8 688.056 2879.2 603.264 2900 575 2900 575 2900 575 2900 575 2880.5 601.979 2874 666.215 2874 765.139Z" fill="#FFFFFF" fill-rule="evenodd"/><path d="M2945.78 600.717C2954.59 617.439 2962.15 638.019 2967.19 663.744 2970.96 679.179 2965.93 697.187 2960.89 715.195 2957.11 731.916 2953.33 747.351 2953.33 765.359 2953.33 780.794 2958.37 797.515 2962.15 811.664 2967.19 829.672 2970.96 845.107 2968.44 860.542 2964.67 879.836 2959.63 896.557 2954.59 910.706 2947.04 927.427 2947.04 930 2954.59 915.851 2962.15 901.702 2969.7 882.408 2973.48 860.542 2976 845.107 2970.96 828.385 2965.93 810.378 2962.15 796.229 2958.37 780.794 2958.37 765.359 2958.37 748.637 2962.15 731.916 2965.93 716.481 2970.96 697.187 2974.74 679.179 2972.22 662.458 2967.19 638.019 2958.37 617.439 2948.3 602.004 2943.26 593 2942 593 2945.78 600.717Z" fill="#FFFFFF" fill-rule="evenodd"/><path d="M2932 579C2946.09 594.381 2953.78 625.144 2961.47 663.598 2965.31 678.979 2958.91 696.924 2953.78 714.869 2949.94 731.533 2946.09 746.914 2946.09 764.859 2946.09 780.24 2949.94 796.904 2955.06 811.003 2960.19 828.948 2966.59 846.893 2964.03 860.993 2956.34 903.292 2947.37 934.055 2932 952 2932 952 2932 952 2932 952 2947.37 934.055 2962.75 902.01 2970.44 859.711 2973 844.33 2969.16 827.667 2964.03 809.721 2958.91 795.622 2955.06 780.24 2955.06 764.859 2955.06 748.196 2958.91 731.533 2962.75 716.151 2967.88 696.924 2973 678.979 2969.16 662.316 2961.47 623.862 2946.09 595.663 2932 579Z" fill="#FF3549" fill-rule="evenodd"/><path d="M2749.37 662.649C2743 693.396 2763.4 727.987 2763.4 765.141 2763.4 799.732 2743 831.76 2748.1 859.946 2760.85 922.722 2783.79 965 2810.56 965 2848.8 965 2859 875.319 2859 765.141 2859 653.681 2848.8 564 2810.56 564 2785.07 564 2762.12 603.716 2749.37 662.649Z" fill="#FF636E" fill-rule="evenodd"/><path d="M2754.13 662.814C2750.28 679.442 2754.13 697.349 2759.26 716.535 2763.1 731.884 2768.23 748.512 2768.23 765.14 2768.23 780.488 2763.1 795.837 2759.26 809.907 2754.13 827.814 2749 844.442 2752.85 859.791 2755.41 875.14 2760.54 889.209 2765.67 902 2765.67 902 2765.67 902 2765.67 902 2760.54 889.209 2759.26 873.86 2756.69 859.791 2754.13 844.442 2761.82 829.093 2766.95 811.186 2770.79 797.116 2777.21 780.488 2777.21 765.14 2777.21 747.233 2770.79 731.884 2766.95 715.256 2763.1 697.349 2755.41 679.442 2757.97 664.093 2766.95 619.326 2781.05 584.791 2799 572 2799 572 2799 572 2799 572 2779.77 586.07 2763.1 616.767 2754.13 662.814Z" fill="#FFFFFF" fill-rule="evenodd"/><path d="M2827.09 572C2837.3 607.844 2838.58 668.01 2838.58 734.577 2838.58 845.948 2834.75 935.557 2795.18 935.557 2783.7 935.557 2772.21 926.596 2762 912.515 2774.76 944.518 2791.36 965 2810.5 965 2848.79 965 2859 875.391 2859 765.3 2859 673.13 2850.07 595.042 2827.09 572Z" fill="#FF3A4F" fill-rule="evenodd"/><path d="M2827.12 571.282C2851.35 595.649 2855.17 684.14 2855.17 764.935 2855.17 864.967 2844.97 965 2808 965 2808 965 2808 965 2808 965 2850.07 965 2859 871.38 2859 764.935 2859 661.055 2848.8 593.084 2825.85 570L2827.12 571.282Z" fill="#FFC2C2" fill-rule="evenodd"/><path d="M2900.57 568.049C2901.86 568.049 2901.86 566.768 2903.14 566.768 2903.14 566.768 2903.14 566.768 2903.14 566.768 2925 555.244 2887.71 545 2851.71 548.841 2824.71 551.402 2819.57 561.646 2831.14 575.732 2831.14 575.732 2831.14 575.732 2831.14 575.732 2851.71 603.902 2859.43 678.171 2859.43 765.244 2859.43 868.963 2850.43 954.756 2817 963.719 2853 953.475 2872.29 953.475 2907 965 2907 965 2907 965 2907 965 2872.29 956.036 2862 870.244 2862 765.244 2862 666.646 2872.29 584.695 2900.57 568.049Z" fill="#F60D2A" fill-rule="evenodd"/><path d="M2853 560.158C2866.2 557.579 2886 555 2886 562.737 2886 570.474 2872.8 580.79 2867.52 604 2870.16 584.658 2882.04 567.895 2879.4 565.316 2874.12 560.158 2855.64 561.448 2853 560.158Z" fill="#FFC2C2" fill-rule="evenodd"/><path d="M2900.57 568.049C2901.86 568.049 2901.86 566.768 2903.14 566.768 2903.14 566.768 2903.14 566.768 2903.14 566.768 2925 555.244 2887.71 545 2851.71 548.841 2824.71 551.402 2819.57 561.646 2831.14 575.732 2831.14 575.732 2831.14 575.732 2831.14 575.732 2851.71 603.902 2859.43 678.171 2859.43 765.244 2859.43 868.963 2850.43 954.756 2817 963.719 2853 953.475 2872.29 953.475 2907 965 2907 965 2907 965 2907 965 2872.29 956.036 2862 870.244 2862 765.244 2862 666.646 2872.29 584.695 2900.57 568.049Z" fill="#DD0010" fill-rule="evenodd"/><path d="M2884.41 566.683C2862.35 593.574 2859.76 660.162 2859.76 765.165 2859.76 852.241 2861.05 912.426 2875.32 947 2868.84 945.719 2861.05 945.719 2854.57 944.439 2844.19 944.439 2858.46 914.987 2861.05 893.218 2864.95 859.924 2863.65 817.667 2863.65 765.165 2863.65 671.686 2862.35 606.38 2844.19 575.647 2842.89 573.086 2844.19 569.244 2846.78 567.964 2853.27 565.403 2839 561.561 2853.27 560.28 2863.65 559 2874.03 559 2881.81 560.28 2885.7 560.28 2887 565.403 2884.41 566.683Z" fill="#DD0010" fill-rule="evenodd"/><path d="M2987.46 753.668C2987.46 716.524 3008 680.662 3001.58 651.203 2996.44 624.307 2992.59 596.129 2964.34 565.39 2927.11 524.404 2837.22 518 2791 570.513 2791 571.794 2791 571.794 2791 571.794 2797.42 566.671 2803.84 564.109 2810.26 564.109 2817.96 564.109 2824.38 569.232 2830.8 575.636 2830.8 575.636 2830.8 575.636 2830.8 575.636 2819.25 561.547 2824.38 551.301 2851.35 548.739 2887.3 544.897 2924.54 555.143 2902.71 566.671 2903.99 566.671 2905.28 565.39 2905.28 565.39 2906.56 565.39 2906.56 565.39 2906.56 565.39 2907.85 565.39 2907.85 565.39 2907.85 565.39 2909.13 564.109 2910.41 564.109 2911.7 564.109 2912.98 564.109 2914.27 564.109 2914.27 565.39 2915.55 565.39 2915.55 565.39 2915.55 565.39 2916.83 565.39 2916.83 565.39 2918.12 565.39 2918.12 565.39 2918.12 565.39 2918.12 565.39 2919.4 565.39 2920.69 566.671 2921.97 566.671 2921.97 566.671 2921.97 566.671 2921.97 566.671 2923.25 566.671 2923.25 567.951 2924.54 567.951 2924.54 567.951 2924.54 567.951 2925.82 567.951 2925.82 569.232 2927.11 569.232 2927.11 569.232 2927.11 569.232 2928.39 569.232 2928.39 570.513 2928.39 570.513 2929.67 571.794 2930.96 571.794 2930.96 571.794 2930.96 571.794 2930.96 573.075 2932.24 573.075 2933.53 574.355 2933.53 574.355 2933.53 574.355 2933.53 574.355 2934.81 575.636 2934.81 575.636 2936.09 576.917 2937.38 578.198 2937.38 578.198 2937.38 578.198 2937.38 578.198 2937.38 578.198 2938.66 579.479 2939.95 580.759 2939.95 580.759 2939.95 580.759 2939.95 582.04 2941.23 582.04 2941.23 583.321 2942.51 584.602 2942.51 584.602 2942.51 584.602 2942.51 584.602 2943.8 585.883 2945.08 587.163 2945.08 588.444 2945.08 588.444 2945.08 588.444 2945.08 588.444 2946.37 589.725 2947.65 591.006 2947.65 592.287 2947.65 593.567 2948.94 593.567 2948.94 593.567 2948.94 594.848 2950.22 596.129 2950.22 597.41 2950.22 597.41 2951.5 597.41 2951.5 598.691 2951.5 599.971 2952.79 601.252 2952.79 602.533 2954.07 602.533 2954.07 603.814 2954.07 603.814 2954.07 605.095 2955.36 606.375 2955.36 607.656 2956.64 608.937 2956.64 608.937 2956.64 608.937 2956.64 610.218 2957.92 611.499 2957.92 614.06 2964.34 628.149 2969.48 644.799 2973.33 662.731 2978.47 693.47 2957.92 728.052 2957.92 765.195 2957.92 799.776 2979.75 831.797 2974.62 859.974 2963.06 918.891 2941.23 959.877 2916.83 965 2916.83 965 2916.83 965 2918.12 965 2924.54 965 2945.08 957.315 2957.92 944.507 2977.18 929.137 2993.88 894.556 3002.86 848.447 3008 820.269 2987.46 786.969 2987.46 753.668Z" fill="#FF3549" fill-rule="evenodd"/><path d="M2940.56 580C2954.67 596.708 2967.49 624.983 2976.46 663.539 2979.03 678.962 2973.9 696.955 2968.77 714.948 2964.92 731.656 2959.79 747.079 2959.79 765.072 2959.79 780.495 2964.92 797.203 2968.77 811.34 2973.9 829.333 2980.31 847.326 2977.74 861.464 2970.05 903.876 2953.38 937.292 2938 954 2938 954 2938 954 2938 954 2953.38 936.007 2976.46 902.591 2984.15 860.179 2988 844.756 2982.87 828.048 2977.74 810.055 2973.9 795.917 2968.77 780.495 2968.77 765.072 2968.77 748.364 2972.62 731.656 2977.74 716.234 2981.59 696.955 2986.72 678.962 2982.87 662.254 2975.18 623.697 2954.67 596.708 2940.56 580Z" fill="#F61B32" fill-rule="evenodd"/><path d="M2974.09 663.149C2979.22 693.896 2958.7 728.487 2958.7 765.641 2958.7 800.232 2980.5 832.26 2975.37 860.446 2962.54 923.222 2939.46 965.5 2912.52 965.5 2874.04 965.5 2862.5 875.82 2862.5 765.641 2862.5 654.18 2874.04 564.5 2912.52 564.5 2938.17 564.5 2961.26 604.216 2974.09 663.149Z" stroke="#660000" stroke-width="2.86476" stroke-linecap="round" stroke-linejoin="round" stroke-miterlimit="10" fill="none" fill-rule="evenodd"/><path d="M2749.87 663.149C2743.5 693.896 2763.9 728.487 2763.9 765.641 2763.9 800.232 2743.5 832.26 2748.6 860.446 2761.35 923.222 2784.29 965.5 2811.06 965.5 2849.3 965.5 2859.5 875.82 2859.5 765.641 2859.5 654.18 2849.3 564.5 2811.06 564.5 2785.57 564.5 2762.62 604.216 2749.87 663.149Z" stroke="#660000" stroke-width="2.86476" stroke-linecap="round" stroke-linejoin="round" stroke-miterlimit="10" fill="none" fill-rule="evenodd"/><path d="M2901.07 568.549C2902.36 568.549 2902.36 567.268 2903.64 567.268 2903.64 567.268 2903.64 567.268 2903.64 567.268 2925.5 555.744 2888.21 545.5 2852.21 549.342 2825.21 551.903 2820.07 562.146 2831.64 576.232 2831.64 576.232 2831.64 576.232 2831.64 576.232 2852.21 604.403 2859.93 678.671 2859.93 765.744 2859.93 869.464 2850.93 955.256 2817.5 964.22 2853.5 953.976 2872.79 953.976 2907.5 965.5 2907.5 965.5 2907.5 965.5 2907.5 965.5 2872.79 956.537 2862.5 870.744 2862.5 765.744 2862.5 667.146 2872.79 585.195 2901.07 568.549Z" stroke="#660000" stroke-width="2.86476" stroke-linecap="round" stroke-linejoin="round" stroke-miterlimit="10" fill="none" fill-rule="evenodd"/><path d="M2987.96 754.168C2987.96 717.024 3008.5 681.162 3002.08 651.703 2996.94 624.807 2993.09 596.629 2964.84 565.89 2927.61 524.904 2837.72 518.5 2791.5 571.013 2791.5 572.294 2791.5 572.294 2791.5 572.294 2797.92 567.17 2804.34 564.609 2810.76 564.609 2818.46 564.609 2824.88 569.732 2831.3 576.136 2831.3 576.136 2831.3 576.136 2831.3 576.136 2819.75 562.047 2824.88 551.801 2851.85 549.239 2887.8 545.397 2925.04 555.643 2903.21 567.17 2904.49 567.17 2905.78 565.89 2905.78 565.89 2907.06 565.89 2907.06 565.89 2907.06 565.89 2908.35 565.89 2908.35 565.89 2908.35 565.89 2909.63 564.609 2910.91 564.609 2912.2 564.609 2913.48 564.609 2914.77 564.609 2914.77 565.89 2916.05 565.89 2916.05 565.89 2916.05 565.89 2917.33 565.89 2917.33 565.89 2918.62 565.89 2918.62 565.89 2918.62 565.89 2918.62 565.89 2919.9 565.89 2921.19 567.17 2922.47 567.17 2922.47 567.17 2922.47 567.17 2922.47 567.17 2923.75 567.17 2923.75 568.451 2925.04 568.451 2925.04 568.451 2925.04 568.451 2926.32 568.451 2926.32 569.732 2927.61 569.732 2927.61 569.732 2927.61 569.732 2928.89 569.732 2928.89 571.013 2928.89 571.013 2930.17 572.294 2931.46 572.294 2931.46 572.294 2931.46 572.294 2931.46 573.574 2932.74 573.574 2934.03 574.855 2934.03 574.855 2934.03 574.855 2934.03 574.855 2935.31 576.136 2935.31 576.136 2936.59 577.417 2937.88 578.698 2937.88 578.698 2937.88 578.698 2937.88 578.698 2937.88 578.698 2939.16 579.978 2940.45 581.259 2940.45 581.259 2940.45 581.259 2940.45 582.54 2941.73 582.54 2941.73 583.821 2943.01 585.102 2943.01 585.102 2943.01 585.102 2943.01 585.102 2944.3 586.382 2945.58 587.663 2945.58 588.944 2945.58 588.944 2945.58 588.944 2945.58 588.944 2946.87 590.225 2948.15 591.506 2948.15 592.786 2948.15 594.067 2949.43 594.067 2949.43 594.067 2949.43 595.348 2950.72 596.629 2950.72 597.91 2950.72 597.91 2952 597.91 2952 599.19 2952 600.471 2953.29 601.752 2953.29 603.033 2954.57 603.033 2954.57 604.314 2954.57 604.314 2954.57 605.594 2955.85 606.875 2955.85 608.156 2957.14 609.437 2957.14 609.437 2957.14 609.437 2957.14 610.718 2958.42 611.998 2958.42 614.56 2964.84 628.649 2969.98 645.299 2973.83 663.231 2978.97 693.97 2958.42 728.552 2958.42 765.695 2958.42 800.276 2980.25 832.297 2975.12 860.474 2963.56 919.391 2941.73 960.377 2917.33 965.5 2917.33 965.5 2917.33 965.5 2918.62 965.5 2925.04 965.5 2945.58 957.815 2958.42 945.007 2977.68 929.638 2994.38 895.056 3003.36 848.947 3008.5 820.769 2987.96 787.469 2987.96 754.168Z" stroke="#660000" stroke-width="2.86476" stroke-linecap="round" stroke-linejoin="round" stroke-miterlimit="10" fill="none" fill-rule="evenodd"/></g></svg>