<svg width="261" height="436" xmlns="http://www.w3.org/2000/svg" xmlns:xlink="http://www.w3.org/1999/xlink" xml:space="preserve" overflow="hidden"><g transform="translate(-1083 -1786)"><path d="M1311.59 1917.65C1316.72 1948.4 1296.2 1982.99 1296.2 2020.14 1296.2 2054.73 1318 2086.76 1312.87 2114.95 1300.04 2177.72 1276.96 2220 1250.02 2220 1211.54 2220 1200 2130.32 1200 2020.14 1200 1908.68 1211.54 1819 1250.02 1819 1275.67 1819 1298.76 1858.72 1311.59 1917.65Z" fill="#9BC6AB" fill-rule="evenodd"/><path d="M1211 2019.62C1211 2105.47 1216.2 2168.25 1231.8 2199 1231.8 2199 1231.8 2199 1231.8 2199 1217.5 2168.25 1218.8 2104.19 1218.8 2019.62 1218.8 1942.75 1216.2 1858.19 1237 1830 1237 1830 1237 1830 1237 1830 1217.5 1856.91 1211 1920.97 1211 2019.62Z" fill="#FFFFFF" fill-rule="evenodd"/><path d="M1282.89 1855.69C1291.96 1872.37 1299.74 1892.89 1304.93 1918.53 1308.81 1933.92 1303.63 1951.88 1298.44 1969.83 1294.56 1986.5 1290.67 2001.89 1290.67 2019.85 1290.67 2035.24 1295.85 2051.91 1299.74 2066.02 1304.93 2083.97 1308.81 2099.36 1306.22 2114.75 1302.33 2133.98 1297.15 2150.66 1291.96 2164.76 1284.19 2181.44 1284.19 2184 1291.96 2169.89 1299.74 2155.79 1307.52 2136.55 1311.41 2114.75 1314 2099.36 1308.81 2082.69 1303.63 2064.73 1299.74 2050.63 1295.85 2035.24 1295.85 2019.85 1295.85 2003.18 1299.74 1986.5 1303.63 1971.11 1308.81 1951.88 1312.7 1933.92 1310.11 1917.25 1304.93 1892.89 1295.85 1872.37 1285.48 1856.98 1280.3 1848 1279 1848 1282.89 1855.69Z" fill="#FFFFFF" fill-rule="evenodd"/><path d="M1269 1834C1283.09 1849.38 1290.78 1880.14 1298.47 1918.6 1302.31 1933.98 1295.91 1951.92 1290.78 1969.87 1286.94 1986.53 1283.09 2001.91 1283.09 2019.86 1283.09 2035.24 1286.94 2051.9 1292.06 2066 1297.19 2083.95 1303.59 2101.89 1301.03 2115.99 1293.34 2158.29 1284.38 2189.05 1269 2207 1269 2207 1269 2207 1269 2207 1284.38 2189.05 1299.75 2157.01 1307.44 2114.71 1310 2099.33 1306.16 2082.67 1301.03 2064.72 1295.91 2050.62 1292.06 2035.24 1292.06 2019.86 1292.06 2003.2 1295.91 1986.53 1299.75 1971.15 1304.88 1951.92 1310 1933.98 1306.16 1917.32 1298.47 1878.86 1283.09 1850.66 1269 1834Z" fill="#8D9886" fill-rule="evenodd"/><path d="M1086.43 1917.65C1080 1948.4 1100.57 1982.99 1100.57 2020.14 1100.57 2054.73 1080 2086.76 1085.14 2114.95 1098 2177.72 1121.14 2220 1148.14 2220 1186.71 2220 1197 2130.32 1197 2020.14 1197 1908.68 1186.71 1819 1148.14 1819 1122.43 1819 1099.29 1858.72 1086.43 1917.65Z" fill="#9BC6AB" fill-rule="evenodd"/><path d="M1091.13 1917.09C1087.28 1933.77 1091.13 1951.73 1096.26 1970.97 1100.1 1986.37 1105.23 2003.05 1105.23 2019.72 1105.23 2035.12 1100.1 2050.52 1096.26 2064.63 1091.13 2082.59 1086 2099.27 1089.85 2114.66 1092.41 2130.06 1097.54 2144.17 1102.67 2157 1102.67 2157 1102.67 2157 1102.67 2157 1097.54 2144.17 1096.26 2128.78 1093.69 2114.66 1091.13 2099.27 1098.82 2083.87 1103.95 2065.91 1107.79 2051.8 1114.21 2035.12 1114.21 2019.72 1114.21 2001.76 1107.79 1986.37 1103.95 1969.69 1100.1 1951.73 1092.41 1933.77 1094.97 1918.37 1103.95 1873.47 1118.05 1838.83 1136 1826 1136 1826 1136 1826 1136 1826 1116.77 1840.11 1100.1 1870.9 1091.13 1917.09Z" fill="#FFFFFF" fill-rule="evenodd"/><path d="M1165.09 1826C1175.3 1861.93 1176.58 1922.25 1176.58 1988.99 1176.58 2100.65 1172.75 2190.48 1133.18 2190.48 1121.7 2190.48 1110.21 2181.5 1100 2167.38 1112.76 2199.47 1129.36 2220 1148.5 2220 1186.79 2220 1197 2130.16 1197 2019.79 1197 1927.39 1188.07 1849.1 1165.09 1826Z" fill="#909D8C" fill-rule="evenodd"/><path d="M1165.13 1826.28C1189.35 1850.65 1193.18 1939.14 1193.18 2019.94 1193.18 2119.97 1182.97 2220 1146 2220 1146 2220 1146 2220 1146 2220 1188.08 2220 1197 2126.38 1197 2019.94 1197 1916.06 1186.8 1848.08 1163.85 1825L1165.13 1826.28Z" fill="#B3FFFF" fill-rule="evenodd"/><path d="M1238.35 1822.1C1239.64 1822.1 1239.64 1820.82 1240.94 1820.82 1240.94 1820.82 1240.94 1820.82 1240.94 1820.82 1263 1809.27 1225.37 1799 1189.04 1802.85 1161.79 1805.42 1156.6 1815.69 1168.27 1829.8 1168.27 1829.8 1168.27 1829.8 1168.27 1829.8 1189.04 1858.04 1196.82 1932.49 1196.82 2019.77 1196.82 2123.73 1187.74 2209.73 1154 2218.72 1190.33 2208.45 1209.8 2208.45 1244.83 2220 1244.83 2220 1244.83 2220 1244.83 2220 1209.8 2211.02 1199.42 2125.02 1199.42 2019.77 1199.42 1920.94 1209.8 1838.79 1238.35 1822.1Z" fill="#777067" fill-rule="evenodd"/><path d="M1190 1815.05C1203.2 1812.53 1223 1810 1223 1817.58 1223 1825.16 1209.8 1835.26 1204.52 1858 1207.16 1839.05 1219.04 1822.63 1216.4 1820.11 1211.12 1815.05 1192.64 1816.32 1190 1815.05Z" fill="#B3FFFF" fill-rule="evenodd"/><path d="M1238.35 1822.1C1239.64 1822.1 1239.64 1820.82 1240.94 1820.82 1240.94 1820.82 1240.94 1820.82 1240.94 1820.82 1263 1809.27 1225.37 1799 1189.04 1802.85 1161.79 1805.42 1156.6 1815.69 1168.27 1829.8 1168.27 1829.8 1168.27 1829.8 1168.27 1829.8 1189.04 1858.04 1196.82 1932.49 1196.82 2019.77 1196.82 2123.73 1187.74 2209.73 1154 2218.72 1190.33 2208.45 1209.8 2208.45 1244.83 2220 1244.83 2220 1244.83 2220 1244.83 2220 1209.8 2211.02 1199.42 2125.02 1199.42 2019.77 1199.42 1920.94 1209.8 1838.79 1238.35 1822.1Z" fill="#5E524D" fill-rule="evenodd"/><path d="M1221.41 1820.7C1199.35 1847.66 1196.76 1914.42 1196.76 2019.7 1196.76 2107 1198.05 2167.34 1212.32 2202 1205.84 2200.72 1198.05 2200.72 1191.57 2199.43 1181.19 2199.43 1195.46 2169.9 1198.05 2148.08 1201.95 2114.7 1200.65 2072.33 1200.65 2019.7 1200.65 1925.98 1199.35 1860.5 1181.19 1829.69 1179.89 1827.12 1181.19 1823.27 1183.78 1821.99 1190.27 1819.42 1176 1815.57 1190.27 1814.28 1200.65 1813 1211.03 1813 1218.81 1814.28 1222.7 1814.28 1224 1819.42 1221.41 1820.7Z" fill="#5E524D" fill-rule="evenodd"/><path d="M1325.46 2008.67C1325.46 1971.52 1346 1935.66 1339.58 1906.2 1334.44 1879.31 1330.59 1851.13 1302.34 1820.39 1265.11 1779.4 1175.22 1773 1129 1825.51 1129 1826.79 1129 1826.79 1129 1826.79 1135.42 1821.67 1141.84 1819.11 1148.26 1819.11 1155.96 1819.11 1162.38 1824.23 1168.8 1830.64 1168.8 1830.64 1168.8 1830.64 1168.8 1830.64 1157.25 1816.55 1162.38 1806.3 1189.35 1803.74 1225.3 1799.9 1262.54 1810.14 1240.71 1821.67 1241.99 1821.67 1243.28 1820.39 1243.28 1820.39 1244.56 1820.39 1244.56 1820.39 1244.56 1820.39 1245.85 1820.39 1245.85 1820.39 1245.85 1820.39 1247.13 1819.11 1248.41 1819.11 1249.7 1819.11 1250.98 1819.11 1252.27 1819.11 1252.27 1820.39 1253.55 1820.39 1253.55 1820.39 1253.55 1820.39 1254.83 1820.39 1254.83 1820.39 1256.12 1820.39 1256.12 1820.39 1256.12 1820.39 1256.12 1820.39 1257.4 1820.39 1258.69 1821.67 1259.97 1821.67 1259.97 1821.67 1259.97 1821.67 1259.97 1821.67 1261.25 1821.67 1261.25 1822.95 1262.54 1822.95 1262.54 1822.95 1262.54 1822.95 1263.82 1822.95 1263.82 1824.23 1265.11 1824.23 1265.11 1824.23 1265.11 1824.23 1266.39 1824.23 1266.39 1825.51 1266.39 1825.51 1267.67 1826.79 1268.96 1826.79 1268.96 1826.79 1268.96 1826.79 1268.96 1828.07 1270.24 1828.07 1271.53 1829.36 1271.53 1829.36 1271.53 1829.36 1271.53 1829.36 1272.81 1830.64 1272.81 1830.64 1274.09 1831.92 1275.38 1833.2 1275.38 1833.2 1275.38 1833.2 1275.38 1833.2 1275.38 1833.2 1276.66 1834.48 1277.95 1835.76 1277.95 1835.76 1277.95 1835.76 1277.95 1837.04 1279.23 1837.04 1279.23 1838.32 1280.51 1839.6 1280.51 1839.6 1280.51 1839.6 1280.51 1839.6 1281.8 1840.88 1283.08 1842.16 1283.08 1843.44 1283.08 1843.44 1283.08 1843.44 1283.08 1843.44 1284.37 1844.72 1285.65 1846.01 1285.65 1847.29 1285.65 1848.57 1286.93 1848.57 1286.93 1848.57 1286.93 1849.85 1288.22 1851.13 1288.22 1852.41 1288.22 1852.41 1289.5 1852.41 1289.5 1853.69 1289.5 1854.97 1290.79 1856.25 1290.79 1857.53 1292.07 1857.53 1292.07 1858.81 1292.07 1858.81 1292.07 1860.09 1293.36 1861.38 1293.36 1862.66 1294.64 1863.94 1294.64 1863.94 1294.64 1863.94 1294.64 1865.22 1295.92 1866.5 1295.92 1869.06 1302.34 1883.15 1307.48 1899.8 1311.33 1917.73 1316.47 1948.47 1295.92 1983.05 1295.92 2020.19 1295.92 2054.78 1317.75 2086.8 1312.62 2114.97 1301.06 2173.89 1279.23 2214.88 1254.83 2220 1254.83 2220 1254.83 2220 1256.12 2220 1262.54 2220 1283.08 2212.32 1295.92 2199.51 1315.18 2184.14 1331.88 2149.56 1340.86 2103.45 1346 2075.27 1325.46 2041.97 1325.46 2008.67Z" fill="#8D9886" fill-rule="evenodd"/><path d="M1277.62 1835C1292 1851.71 1305.08 1879.98 1314.23 1918.54 1316.85 1933.96 1311.62 1951.96 1306.38 1969.95 1302.46 1986.66 1297.23 2002.08 1297.23 2020.07 1297.23 2035.49 1302.46 2052.2 1306.38 2066.34 1311.62 2084.33 1318.15 2102.33 1315.54 2116.46 1307.69 2158.88 1290.69 2192.29 1275 2209 1275 2209 1275 2209 1275 2209 1290.69 2191.01 1314.23 2157.59 1322.08 2115.18 1326 2099.76 1320.77 2083.05 1315.54 2065.05 1311.62 2050.92 1306.38 2035.49 1306.38 2020.07 1306.38 2003.36 1310.31 1986.66 1315.54 1971.23 1319.46 1951.96 1324.69 1933.96 1320.77 1917.25 1312.92 1878.7 1292 1851.71 1277.62 1835Z" fill="#777E6F" fill-rule="evenodd"/><path d="M1312.09 1918.15C1317.22 1948.9 1296.7 1983.49 1296.7 2020.64 1296.7 2055.23 1318.5 2087.26 1313.37 2115.45 1300.54 2178.22 1277.46 2220.5 1250.52 2220.5 1212.04 2220.5 1200.5 2130.82 1200.5 2020.64 1200.5 1909.18 1212.04 1819.5 1250.52 1819.5 1276.17 1819.5 1299.26 1859.22 1312.09 1918.15Z" stroke="#005933" stroke-width="2.86476" stroke-linecap="round" stroke-linejoin="round" stroke-miterlimit="10" fill="none" fill-rule="evenodd"/><path d="M1086.93 1918.15C1080.5 1948.9 1101.07 1983.49 1101.07 2020.64 1101.07 2055.23 1080.5 2087.26 1085.64 2115.45 1098.5 2178.22 1121.64 2220.5 1148.64 2220.5 1187.21 2220.5 1197.5 2130.82 1197.5 2020.64 1197.5 1909.18 1187.21 1819.5 1148.64 1819.5 1122.93 1819.5 1099.79 1859.22 1086.93 1918.15Z" stroke="#005933" stroke-width="2.86476" stroke-linecap="round" stroke-linejoin="round" stroke-miterlimit="10" fill="none" fill-rule="evenodd"/><path d="M1238.85 1822.6C1240.14 1822.6 1240.14 1821.32 1241.44 1821.32 1241.44 1821.32 1241.44 1821.32 1241.44 1821.32 1263.5 1809.77 1225.87 1799.5 1189.54 1803.35 1162.29 1805.92 1157.1 1816.19 1168.77 1830.3 1168.77 1830.3 1168.77 1830.3 1168.77 1830.3 1189.54 1858.54 1197.32 1932.99 1197.32 2020.27 1197.32 2124.23 1188.24 2210.23 1154.5 2219.22 1190.83 2208.95 1210.3 2208.95 1245.33 2220.5 1245.33 2220.5 1245.33 2220.5 1245.33 2220.5 1210.3 2211.52 1199.92 2125.52 1199.92 2020.27 1199.92 1921.44 1210.3 1839.29 1238.85 1822.6Z" stroke="#005933" stroke-width="2.86476" stroke-linecap="round" stroke-linejoin="round" stroke-miterlimit="10" fill="none" fill-rule="evenodd"/><path d="M1325.96 2009.17C1325.96 1972.02 1346.5 1936.16 1340.08 1906.7 1334.94 1879.81 1331.09 1851.63 1302.84 1820.89 1265.61 1779.9 1175.72 1773.5 1129.5 1826.01 1129.5 1827.29 1129.5 1827.29 1129.5 1827.29 1135.92 1822.17 1142.34 1819.61 1148.76 1819.61 1156.46 1819.61 1162.88 1824.73 1169.3 1831.14 1169.3 1831.14 1169.3 1831.14 1169.3 1831.14 1157.75 1817.05 1162.88 1806.8 1189.85 1804.24 1225.8 1800.4 1263.04 1810.64 1241.21 1822.17 1242.49 1822.17 1243.78 1820.89 1243.78 1820.89 1245.06 1820.89 1245.06 1820.89 1245.06 1820.89 1246.35 1820.89 1246.35 1820.89 1246.35 1820.89 1247.63 1819.61 1248.91 1819.61 1250.2 1819.61 1251.48 1819.61 1252.77 1819.61 1252.77 1820.89 1254.05 1820.89 1254.05 1820.89 1254.05 1820.89 1255.33 1820.89 1255.33 1820.89 1256.62 1820.89 1256.62 1820.89 1256.62 1820.89 1256.62 1820.89 1257.9 1820.89 1259.19 1822.17 1260.47 1822.17 1260.47 1822.17 1260.47 1822.17 1260.47 1822.17 1261.75 1822.17 1261.75 1823.45 1263.04 1823.45 1263.04 1823.45 1263.04 1823.45 1264.32 1823.45 1264.32 1824.73 1265.61 1824.73 1265.61 1824.73 1265.61 1824.73 1266.89 1824.73 1266.89 1826.01 1266.89 1826.01 1268.17 1827.29 1269.46 1827.29 1269.46 1827.29 1269.46 1827.29 1269.46 1828.57 1270.74 1828.57 1272.03 1829.86 1272.03 1829.86 1272.03 1829.86 1272.03 1829.86 1273.31 1831.14 1273.31 1831.14 1274.59 1832.42 1275.88 1833.7 1275.88 1833.7 1275.88 1833.7 1275.88 1833.7 1275.88 1833.7 1277.16 1834.98 1278.45 1836.26 1278.45 1836.26 1278.45 1836.26 1278.45 1837.54 1279.73 1837.54 1279.73 1838.82 1281.01 1840.1 1281.01 1840.1 1281.01 1840.1 1281.01 1840.1 1282.3 1841.38 1283.58 1842.66 1283.58 1843.94 1283.58 1843.94 1283.58 1843.94 1283.58 1843.94 1284.87 1845.22 1286.15 1846.51 1286.15 1847.79 1286.15 1849.07 1287.43 1849.07 1287.43 1849.07 1287.43 1850.35 1288.72 1851.63 1288.72 1852.91 1288.72 1852.91 1290 1852.91 1290 1854.19 1290 1855.47 1291.29 1856.75 1291.29 1858.03 1292.57 1858.03 1292.57 1859.31 1292.57 1859.31 1292.57 1860.59 1293.86 1861.88 1293.86 1863.16 1295.14 1864.44 1295.14 1864.44 1295.14 1864.44 1295.14 1865.72 1296.42 1867 1296.42 1869.56 1302.84 1883.65 1307.98 1900.3 1311.83 1918.23 1316.97 1948.97 1296.42 1983.55 1296.42 2020.69 1296.42 2055.28 1318.25 2087.3 1313.12 2115.47 1301.56 2174.39 1279.73 2215.38 1255.33 2220.5 1255.33 2220.5 1255.33 2220.5 1256.62 2220.5 1263.04 2220.5 1283.58 2212.82 1296.42 2200.01 1315.68 2184.64 1332.38 2150.06 1341.36 2103.95 1346.5 2075.77 1325.96 2042.47 1325.96 2009.17Z" stroke="#005933" stroke-width="2.86476" stroke-linecap="round" stroke-linejoin="round" stroke-miterlimit="10" fill="none" fill-rule="evenodd"/></g></svg>