<svg width="235" height="432" xmlns="http://www.w3.org/2000/svg" xmlns:xlink="http://www.w3.org/1999/xlink" xml:space="preserve" overflow="hidden"><g transform="translate(-2629 -1163)"><path d="M2630 1389.5C2630 1277.11 2648.58 1186 2671.5 1186 2694.42 1186 2713 1277.11 2713 1389.5 2713 1501.89 2694.42 1593 2671.5 1593 2648.58 1593 2630 1501.89 2630 1389.5Z" fill="#FFA976" fill-rule="evenodd"/><path d="M2688.81 1205C2695.25 1241.15 2699.12 1290.2 2699.12 1344.42 2699.12 1455.45 2682.37 1545.82 2660.46 1545.82 2655.31 1545.82 2650.15 1539.36 2645 1529.03 2652.73 1567.76 2663.04 1591 2673.35 1591 2695.25 1591 2712 1500.63 2712 1389.61 2712 1306.99 2701.69 1234.69 2688.81 1205Z" fill="#FFA044" fill-rule="evenodd"/><path d="M2688.65 1195C2702.88 1228.49 2713.24 1296.75 2713.24 1377.9 2713.24 1489.96 2695.12 1585.27 2670.53 1585.27 2665.35 1585.27 2658.88 1577.54 2655 1572.39 2660.18 1586.56 2667.94 1593 2674.41 1593 2700.29 1593 2721 1502.84 2721 1389.49 2721 1298.04 2706.76 1219.47 2688.65 1195Z" fill="#FFFFFF" fill-rule="evenodd"/><path d="M2647.54 1523.39C2641.13 1487.35 2644.97 1439.72 2644.97 1388.23 2644.97 1285.26 2657.79 1192.57 2680.87 1192.57 2682.15 1192.57 2686 1196.44 2686 1197.72 2683.44 1192.57 2679.59 1190 2675.74 1190 2652.67 1190 2636 1278.82 2636 1381.8 2636 1439.72 2639.85 1491.21 2646.26 1527.26 2652.67 1553 2651.38 1546.56 2647.54 1523.39Z" fill="#FFFFFF" fill-rule="evenodd"/><path d="M2838.82 1206.51C2833.67 1197.5 2823.37 1180.75 2805.35 1173.02 2792.47 1166.58 2775.73 1164 2752.56 1164 2703.63 1164 2675.3 1178.17 2665 1191.05 2668.86 1187.19 2671.44 1185.9 2675.3 1185.9 2701.05 1185.9 2721.65 1277.37 2721.65 1389.45 2721.65 1493.8 2703.63 1580.12 2681.74 1591.71 2681.74 1593 2681.74 1593 2681.74 1593 2694.61 1585.27 2712.64 1581.41 2733.24 1581.41 2753.84 1581.41 2771.87 1586.56 2786.03 1593 2786.03 1593 2786.03 1593 2786.03 1593 2784.75 1593 2784.75 1591.71 2783.46 1591.71 2783.46 1591.71 2783.46 1591.71 2783.46 1591.71 2782.17 1590.42 2782.17 1590.42 2782.17 1590.42 2782.17 1590.42 2782.17 1590.42 2782.17 1590.42 2780.88 1589.14 2779.59 1589.14 2779.59 1587.85 2779.59 1587.85 2779.59 1587.85 2779.59 1587.85 2778.31 1587.85 2778.31 1586.56 2777.02 1585.27 2777.02 1585.27 2777.02 1585.27 2777.02 1585.27 2777.02 1585.27 2775.73 1583.98 2775.73 1582.69 2775.73 1582.69 2775.73 1582.69 2775.73 1582.69 2774.44 1581.41 2774.44 1581.41 2773.16 1580.12 2773.16 1580.12 2773.16 1580.12 2773.16 1580.12 2773.16 1578.83 2771.87 1577.54 2771.87 1576.25 2771.87 1576.25 2771.87 1576.25 2771.87 1576.25 2770.58 1574.96 2770.58 1573.68 2769.29 1572.39 2769.29 1572.39 2769.29 1572.39 2769.29 1572.39 2769.29 1571.1 2768.01 1569.81 2768.01 1567.23 2768.01 1567.23 2768.01 1567.23 2768.01 1567.23 2764.14 1556.93 2769.29 1544.04 2766.72 1527.3 2766.72 1527.3 2766.72 1527.3 2766.72 1527.3 2766.72 1526.01 2765.43 1523.43 2765.43 1522.14 2765.43 1520.86 2765.43 1520.86 2765.43 1520.86 2765.43 1518.28 2764.14 1516.99 2764.14 1515.7 2764.14 1514.41 2764.14 1513.13 2764.14 1513.13 2764.14 1511.84 2762.86 1509.26 2762.86 1507.97 2762.86 1506.68 2762.86 1506.68 2762.86 1505.4 2762.86 1504.11 2761.57 1501.53 2761.57 1500.24 2761.57 1498.95 2761.57 1497.67 2761.57 1497.67 2761.57 1495.09 2761.57 1493.8 2760.28 1492.51 2760.28 1491.23 2760.28 1489.94 2760.28 1488.65 2760.28 1487.36 2760.28 1486.07 2760.28 1484.78 2758.99 1483.5 2758.99 1482.21 2758.99 1480.92 2758.99 1478.34 2758.99 1477.05 2758.99 1475.77 2758.99 1474.48 2758.99 1473.19 2758.99 1471.9 2757.71 1470.61 2757.71 1468.04 2757.71 1466.75 2757.71 1465.46 2757.71 1464.17 2757.71 1462.88 2757.71 1461.59 2757.71 1459.02 2757.71 1457.73 2757.71 1456.44 2756.42 1455.15 2756.42 1453.86 2756.42 1451.29 2756.42 1450 2756.42 1448.71 2756.42 1447.42 2756.42 1444.85 2756.42 1443.56 2756.42 1442.27 2756.42 1440.98 2756.42 1439.69 2756.42 1437.12 2755.13 1435.83 2755.13 1434.54 2755.13 1433.25 2755.13 1430.68 2755.13 1429.39 2755.13 1428.1 2755.13 1425.52 2755.13 1424.23 2755.13 1422.95 2755.13 1421.66 2755.13 1420.37 2755.13 1417.79 2755.13 1416.5 2755.13 1413.93 2755.13 1412.64 2755.13 1411.35 2755.13 1410.06 2755.13 1407.49 2755.13 1404.91 2755.13 1403.62 2755.13 1402.33 2755.13 1401.04 2755.13 1399.76 2755.13 1395.89 2755.13 1393.32 2755.13 1389.45 2755.13 1277.37 2764.14 1185.9 2789.9 1185.9 2815.65 1185.9 2834.96 1277.37 2834.96 1389.45 2834.96 1498.95 2816.93 1587.85 2792.47 1593 2793.76 1593 2793.76 1593 2793.76 1593 2801.48 1593 2824.66 1580.12 2837.54 1559.5 2852.99 1527.3 2862 1462.88 2862 1381.72 2862 1300.56 2852.99 1240.01 2838.82 1206.51Z" fill="#FFA250" fill-rule="evenodd"/><path d="M2782.97 1591.71C2781.67 1590.42 2781.67 1590.42 2781.67 1590.42 2781.67 1590.42 2781.67 1590.42 2781.67 1590.42 2780.38 1589.13 2779.09 1589.13 2779.09 1587.85 2779.09 1587.85 2779.09 1587.85 2779.09 1587.85 2777.8 1587.85 2777.8 1586.56 2776.51 1585.27 2776.51 1585.27 2776.51 1585.27 2776.51 1585.27 2776.51 1585.27 2775.22 1583.98 2775.22 1582.69 2775.22 1582.69 2775.22 1582.69 2775.22 1582.69 2773.93 1581.4 2773.93 1581.4 2772.64 1580.12 2772.64 1580.12 2772.64 1580.12 2772.64 1580.12 2772.64 1578.83 2771.35 1577.54 2771.35 1576.25 2771.35 1576.25 2771.35 1576.25 2771.35 1576.25 2770.06 1574.96 2770.06 1573.67 2768.77 1572.39 2768.77 1572.39 2768.77 1572.39 2768.77 1572.39 2768.77 1571.1 2767.48 1569.81 2767.48 1567.23 2767.48 1567.23 2767.48 1567.23 2767.48 1567.23 2763.6 1556.93 2768.77 1544.04 2766.19 1527.29 2766.19 1527.29 2766.19 1527.29 2766.19 1527.29 2766.19 1526.01 2764.9 1523.43 2764.9 1522.14 2764.9 1520.85 2764.9 1520.85 2764.9 1520.85 2764.9 1518.28 2763.6 1516.99 2763.6 1515.7 2763.6 1514.41 2763.6 1513.12 2763.6 1513.12 2763.6 1511.83 2762.31 1509.26 2762.31 1507.97 2762.31 1506.68 2762.31 1506.68 2762.31 1505.39 2762.31 1504.1 2761.02 1501.53 2761.02 1500.24 2761.02 1498.95 2761.02 1497.66 2761.02 1497.66 2761.02 1495.09 2761.02 1493.8 2759.73 1492.51 2759.73 1491.22 2759.73 1489.93 2759.73 1488.64 2759.73 1487.36 2759.73 1486.07 2759.73 1484.78 2758.44 1483.49 2758.44 1482.2 2758.44 1480.91 2758.44 1478.34 2758.44 1477.05 2758.44 1475.76 2758.44 1474.47 2758.44 1473.18 2758.44 1471.9 2757.15 1470.61 2757.15 1468.03 2757.15 1466.74 2757.15 1465.45 2757.15 1464.17 2757.15 1462.88 2757.15 1461.59 2757.15 1459.01 2757.15 1457.72 2757.15 1456.44 2755.86 1455.15 2755.86 1453.86 2755.86 1451.28 2755.86 1449.99 2755.86 1448.71 2755.86 1447.42 2755.86 1444.84 2755.86 1443.55 2755.86 1442.26 2755.86 1440.98 2755.86 1439.69 2755.86 1437.11 2754.57 1435.82 2754.57 1434.53 2754.57 1433.25 2754.57 1430.67 2754.57 1429.38 2754.57 1428.09 2754.57 1425.52 2754.57 1424.23 2754.57 1422.94 2754.57 1421.65 2754.57 1420.36 2754.57 1417.79 2754.57 1416.5 2754.57 1413.92 2754.57 1412.63 2754.57 1411.34 2754.57 1410.06 2754.57 1407.48 2754.57 1404.9 2754.57 1403.61 2754.57 1402.33 2754.57 1401.04 2754.57 1399.75 2754.57 1395.88 2754.57 1393.31 2754.57 1389.44 2754.57 1292.82 2758.44 1211.65 2779.09 1191.04 2779.09 1189.75 2779.09 1189.75 2779.09 1189.75 2792 1178.15 2755.86 1173 2736.5 1175.58 2706.81 1178.15 2692.62 1189.75 2692.62 1200.06 2692.62 1201.34 2692.62 1201.34 2692.62 1201.34 2709.4 1230.98 2721.01 1304.41 2721.01 1389.44 2721.01 1493.8 2702.94 1580.12 2681 1591.71 2681 1593 2681 1593 2681 1593 2693.91 1585.27 2711.98 1581.4 2732.63 1581.4 2753.28 1581.4 2771.35 1586.56 2785.55 1593 2785.55 1593 2785.55 1593 2785.55 1593 2784.26 1593 2784.26 1591.71 2782.97 1591.71 2782.97 1591.71 2782.97 1591.71 2782.97 1591.71Z" fill="#FF9100" fill-rule="evenodd"/><path d="M2782.97 1591.71C2781.67 1590.42 2781.67 1590.42 2781.67 1590.42 2781.67 1590.42 2781.67 1590.42 2781.67 1590.42 2780.38 1589.13 2779.09 1589.13 2779.09 1587.85 2779.09 1587.85 2779.09 1587.85 2779.09 1587.85 2777.8 1587.85 2777.8 1586.56 2776.51 1585.27 2776.51 1585.27 2776.51 1585.27 2776.51 1585.27 2776.51 1585.27 2775.22 1583.98 2775.22 1582.69 2775.22 1582.69 2775.22 1582.69 2775.22 1582.69 2773.93 1581.4 2773.93 1581.4 2772.64 1580.12 2772.64 1580.12 2772.64 1580.12 2772.64 1580.12 2772.64 1578.83 2771.35 1577.54 2771.35 1576.25 2771.35 1576.25 2771.35 1576.25 2771.35 1576.25 2770.06 1574.96 2770.06 1573.67 2768.77 1572.39 2768.77 1572.39 2768.77 1572.39 2768.77 1572.39 2768.77 1571.1 2767.48 1569.81 2767.48 1567.23 2767.48 1567.23 2767.48 1567.23 2767.48 1567.23 2763.6 1556.93 2768.77 1544.04 2766.19 1527.29 2766.19 1527.29 2766.19 1527.29 2766.19 1527.29 2766.19 1526.01 2764.9 1523.43 2764.9 1522.14 2764.9 1520.85 2764.9 1520.85 2764.9 1520.85 2764.9 1518.28 2763.6 1516.99 2763.6 1515.7 2763.6 1514.41 2763.6 1513.12 2763.6 1513.12 2763.6 1511.83 2762.31 1509.26 2762.31 1507.97 2762.31 1506.68 2762.31 1506.68 2762.31 1505.39 2762.31 1504.1 2761.02 1501.53 2761.02 1500.24 2761.02 1498.95 2761.02 1497.66 2761.02 1497.66 2761.02 1495.09 2761.02 1493.8 2759.73 1492.51 2759.73 1491.22 2759.73 1489.93 2759.73 1488.64 2759.73 1487.36 2759.73 1486.07 2759.73 1484.78 2758.44 1483.49 2758.44 1482.2 2758.44 1480.91 2758.44 1478.34 2758.44 1477.05 2758.44 1475.76 2758.44 1474.47 2758.44 1473.18 2758.44 1471.9 2757.15 1470.61 2757.15 1468.03 2757.15 1466.74 2757.15 1465.45 2757.15 1464.17 2757.15 1462.88 2757.15 1461.59 2757.15 1459.01 2757.15 1457.72 2757.15 1456.44 2755.86 1455.15 2755.86 1453.86 2755.86 1451.28 2755.86 1449.99 2755.86 1448.71 2755.86 1447.42 2755.86 1444.84 2755.86 1443.55 2755.86 1442.26 2755.86 1440.98 2755.86 1439.69 2755.86 1437.11 2754.57 1435.82 2754.57 1434.53 2754.57 1433.25 2754.57 1430.67 2754.57 1429.38 2754.57 1428.09 2754.57 1425.52 2754.57 1424.23 2754.57 1422.94 2754.57 1421.65 2754.57 1420.36 2754.57 1417.79 2754.57 1416.5 2754.57 1413.92 2754.57 1412.63 2754.57 1411.34 2754.57 1410.06 2754.57 1407.48 2754.57 1404.9 2754.57 1403.61 2754.57 1402.33 2754.57 1401.04 2754.57 1399.75 2754.57 1395.88 2754.57 1393.31 2754.57 1389.44 2754.57 1292.82 2758.44 1211.65 2779.09 1191.04 2779.09 1189.75 2779.09 1189.75 2779.09 1189.75 2792 1178.15 2755.86 1173 2736.5 1175.58 2706.81 1178.15 2692.62 1189.75 2692.62 1200.06 2692.62 1201.34 2692.62 1201.34 2692.62 1201.34 2709.4 1230.98 2714.56 1304.41 2714.56 1389.44 2714.56 1493.8 2702.94 1580.12 2681 1591.71 2681 1593 2681 1593 2681 1593 2693.91 1585.27 2711.98 1581.4 2732.63 1581.4 2753.28 1581.4 2771.35 1586.56 2785.55 1593 2785.55 1593 2785.55 1593 2785.55 1593 2784.26 1593 2784.26 1591.71 2782.97 1591.71 2782.97 1591.71 2782.97 1591.71 2782.97 1591.71ZM2730.05 1325.02C2727.47 1286.37 2721.01 1251.59 2714.56 1225.82 2710.69 1215.52 2709.4 1192.33 2724.88 1188.46 2728.76 1188.46 2732.63 1188.46 2737.79 1187.17 2745.53 1187.17 2751.99 1185.88 2758.44 1187.17 2763.6 1187.17 2763.6 1192.33 2762.31 1194.9 2746.83 1221.96 2737.79 1272.2 2733.92 1326.31 2732.63 1346.93 2731.34 1344.35 2730.05 1325.02ZM2746.83 1571.1C2744.24 1571.1 2741.66 1571.1 2739.08 1569.81 2723.59 1567.23 2714.56 1556.93 2721.01 1523.43 2728.76 1486.07 2732.63 1438.4 2732.63 1393.31 2732.63 1395.88 2732.63 1399.75 2732.63 1399.75 2732.63 1402.33 2732.63 1402.33 2732.63 1402.33 2732.63 1410.06 2732.63 1410.06 2732.63 1410.06 2732.63 1420.36 2732.63 1420.36 2732.63 1420.36 2732.63 1430.67 2732.63 1430.67 2732.63 1430.67 2732.63 1434.53 2732.63 1434.53 2732.63 1434.53 2733.92 1439.69 2733.92 1439.69 2733.92 1439.69 2733.92 1444.84 2733.92 1444.84 2733.92 1444.84 2733.92 1449.99 2733.92 1449.99 2733.92 1449.99 2733.92 1455.15 2733.92 1455.15 2733.92 1455.15 2735.21 1459.01 2735.21 1459.01 2735.21 1459.01 2735.21 1462.88 2735.21 1462.88 2735.21 1462.88 2735.21 1468.03 2735.21 1468.03 2735.21 1468.03 2736.5 1473.18 2736.5 1473.18 2736.5 1473.18 2736.5 1477.05 2736.5 1477.05 2736.5 1477.05 2736.5 1482.2 2736.5 1482.2 2736.5 1482.2 2737.79 1489.93 2737.79 1489.93 2737.79 1489.93 2739.08 1495.09 2739.08 1495.09 2739.08 1495.09 2739.08 1498.95 2739.08 1498.95 2739.08 1498.95 2739.08 1501.53 2739.08 1501.53 2739.08 1501.53 2740.37 1506.68 2740.37 1506.68 2740.37 1506.68 2741.66 1514.41 2741.66 1514.41 2741.66 1514.41 2741.66 1516.99 2741.66 1516.99 2741.66 1516.99 2742.95 1522.14 2742.95 1522.14 2742.95 1522.14 2742.95 1523.43 2742.95 1523.43 2742.95 1523.43 2742.95 1524.72 2744.24 1529.87 2744.24 1529.87 2746.83 1542.75 2750.7 1554.35 2753.28 1564.66 2754.57 1567.23 2750.7 1571.1 2746.83 1571.1Z" fill="#FF7300" fill-rule="evenodd"/><path d="M2736 1187.1C2748.61 1185.83 2765 1182 2765 1189.65 2765 1198.58 2752.39 1211.33 2748.61 1233 2751.13 1211.33 2761.22 1193.48 2758.7 1190.93 2754.91 1185.83 2738.52 1188.38 2736 1187.1Z" fill="#FFFFFF" fill-rule="evenodd"/><path d="M2804 1195C2804 1195 2804 1195 2804 1195 2821.82 1220.78 2834.55 1298.12 2834.55 1389.63 2834.55 1477.28 2823.09 1550.75 2806.55 1580.4 2806.55 1592 2806.55 1592 2806.55 1592 2828.18 1580.4 2846 1494.04 2846 1389.63 2846 1304.56 2837.09 1234.96 2804 1195Z" fill="#FF9100" fill-rule="evenodd"/><path d="M2729 1470.84C2731.5 1459.23 2734 1466.97 2736.5 1470.84 2739 1476 2737.75 1446.32 2737.75 1446.32 2736.5 1403.74 2736.5 1403.74 2736.5 1403.74 2729 1396 2729 1396 2729 1396" fill="#FF7300" fill-rule="evenodd"/><path d="M2751 1389.5C2751 1277.11 2769.58 1186 2792.5 1186 2815.42 1186 2834 1277.11 2834 1389.5 2834 1501.89 2815.42 1593 2792.5 1593 2769.58 1593 2751 1501.89 2751 1389.5Z" fill="#FFA976" fill-rule="evenodd"/><path d="M2807.55 1201C2815.31 1238.39 2820.48 1287.39 2820.48 1342.84 2820.48 1456.32 2799.79 1546.58 2775.22 1546.58 2768.76 1546.58 2766.17 1541.42 2761 1531.11 2768.76 1569.79 2776.52 1593 2789.45 1593 2815.31 1593 2836 1502.74 2836 1389.26 2836 1305.45 2824.36 1231.95 2807.55 1201Z" fill="#FFA044" fill-rule="evenodd"/><path d="M2803.65 1195C2817.88 1228.49 2828.24 1296.75 2828.24 1377.9 2828.24 1489.96 2810.12 1585.27 2785.53 1585.27 2780.35 1585.27 2773.88 1577.54 2770 1572.39 2775.18 1586.56 2782.94 1593 2789.41 1593 2815.29 1593 2836 1502.84 2836 1389.49 2836 1298.04 2821.76 1219.47 2803.65 1195Z" fill="#FFFFFF" fill-rule="evenodd"/><path d="M2766.5 1523.34C2761.39 1487.22 2763.94 1439.5 2763.94 1387.91 2763.94 1284.73 2771.61 1189.29 2794.61 1189.29 2795.89 1189.29 2801 1194.45 2801 1194.45 2797.17 1190.58 2795.89 1188 2792.06 1188 2769.06 1188 2755 1278.28 2755 1381.46 2755 1439.5 2758.83 1491.09 2766.5 1527.21 2771.61 1553 2770.33 1546.55 2766.5 1523.34Z" fill="#FFFFFF" fill-rule="evenodd"/><path d="M2681.5 1592.28C2681.5 1593.5 2681.5 1593.5 2681.5 1593.5 2694.46 1586.17 2712.61 1582.5 2733.35 1582.5 2754.09 1582.5 2772.24 1587.39 2786.5 1593.5" stroke="#750000" stroke-width="2.86476" stroke-linecap="round" stroke-linejoin="round" stroke-miterlimit="10" fill="none" fill-rule="evenodd"/><path d="M2781.45 1188.66C2790.5 1178.55 2756.87 1173.5 2737.47 1176.03 2709.02 1178.55 2696.09 1188.66 2693.5 1197.5" stroke="#750000" stroke-width="2.86476" stroke-linecap="round" stroke-linejoin="round" stroke-miterlimit="10" fill="none" fill-rule="evenodd"/><path d="M2751.5 1390C2751.5 1277.61 2770.08 1186.5 2793 1186.5 2815.92 1186.5 2834.5 1277.61 2834.5 1390 2834.5 1502.39 2815.92 1593.5 2793 1593.5 2770.08 1593.5 2751.5 1502.39 2751.5 1390Z" stroke="#750000" stroke-width="2.86476" stroke-linecap="round" stroke-linejoin="round" stroke-miterlimit="10" fill="none" fill-rule="evenodd"/><path d="M2630.5 1390C2630.5 1277.61 2649.08 1186.5 2672 1186.5 2694.92 1186.5 2713.5 1277.61 2713.5 1390 2713.5 1502.39 2694.92 1593.5 2672 1593.5 2649.08 1593.5 2630.5 1502.39 2630.5 1390Z" stroke="#750000" stroke-width="2.86476" stroke-linecap="round" stroke-linejoin="round" stroke-miterlimit="10" fill="none" fill-rule="evenodd"/><path d="M2790.4 1186.4C2816.15 1186.4 2835.46 1277.87 2835.46 1389.95 2835.46 1393.82 2835.46 1397.68 2835.46 1400.26 2835.46 1401.55 2835.46 1402.83 2835.46 1404.12 2835.46 1406.7 2835.46 1407.99 2835.46 1410.56 2835.46 1411.85 2835.46 1413.14 2835.46 1414.43 2835.46 1417 2835.46 1418.29 2835.46 1420.87 2835.46 1422.16 2835.46 1423.45 2835.46 1424.73 2835.46 1427.31 2835.46 1428.6 2835.46 1431.18 2835.46 1432.46 2835.46 1433.75 2835.46 1435.04 2835.46 1436.33 2834.17 1438.91 2834.17 1440.19 2834.17 1441.48 2834.17 1442.77 2834.17 1445.35 2834.17 1446.64 2834.17 1447.92 2834.17 1450.5 2834.17 1451.79 2834.17 1453.08 2834.17 1454.36 2834.17 1455.65 2832.89 1458.23 2832.89 1459.52 2832.89 1460.81 2832.89 1462.09 2832.89 1463.38 2832.89 1464.67 2832.89 1467.25 2832.89 1468.54 2832.89 1469.82 2832.89 1471.11 2831.6 1472.4 2831.6 1473.69 2831.6 1476.27 2831.6 1477.55 2831.6 1478.84 2831.6 1480.13 2831.6 1481.42 2831.6 1482.71 2830.31 1484 2830.31 1486.57 2830.31 1487.86 2830.31 1489.15 2830.31 1490.44 2830.31 1491.73 2830.31 1493.01 2829.02 1494.3 2829.02 1495.59 2829.02 1496.88 2829.02 1498.17 2829.02 1499.46 2829.02 1500.74 2829.02 1503.32 2827.74 1504.61 2827.74 1505.9 2827.74 1507.18 2827.74 1508.47 2827.74 1509.76 2827.74 1511.05 2826.45 1512.34 2826.45 1513.63 2826.45 1514.91 2826.45 1516.2 2826.45 1517.49 2826.45 1518.78 2825.16 1520.07 2825.16 1521.36 2825.16 1521.36 2825.16 1522.64 2825.16 1523.93 2825.16 1525.22 2823.87 1526.51 2823.87 1527.8 2823.87 1529.09 2823.87 1530.37 2823.87 1531.66 2822.58 1532.95 2822.58 1534.24 2822.58 1535.53 2822.58 1535.53 2822.58 1536.82 2821.3 1538.1 2821.3 1539.39 2821.3 1540.68 2821.3 1541.97 2821.3 1543.26 2820.01 1543.26 2820.01 1544.55 2820.01 1545.83 2820.01 1547.12 2818.72 1548.41 2818.72 1548.41 2818.72 1549.7 2818.72 1550.99 2818.72 1552.27 2817.43 1552.27 2817.43 1553.56 2817.43 1554.85 2817.43 1556.14 2816.15 1556.14 2816.15 1557.43 2816.15 1558.72 2816.15 1560 2816.15 1560 2814.86 1561.29 2814.86 1562.58 2814.86 1562.58 2814.86 1563.87 2813.57 1565.16 2813.57 1565.16 2813.57 1566.45 2813.57 1566.45 2812.28 1567.73 2812.28 1569.02 2812.28 1569.02 2812.28 1570.31 2811 1571.6 2811 1571.6 2811 1572.89 2809.71 1574.18 2809.71 1574.18 2809.71 1574.18 2809.71 1575.46 2809.71 1575.46 2808.42 1576.75 2808.42 1578.04 2808.42 1578.04 2808.42 1578.04 2807.13 1579.33 2807.13 1579.33 2807.13 1580.62 2805.85 1581.91 2805.85 1581.91 2805.85 1581.91 2805.85 1583.19 2805.85 1583.19 2804.56 1583.19 2804.56 1584.48 2804.56 1584.48 2803.27 1585.77 2803.27 1585.77 2803.27 1585.77 2803.27 1585.77 2801.98 1587.06 2801.98 1587.06 2801.98 1588.35 2800.7 1588.35 2800.7 1588.35 2800.7 1588.35 2800.7 1589.64 2799.41 1589.64 2799.41 1589.64 2799.41 1590.92 2799.41 1590.92 2798.12 1590.92 2798.12 1590.92 2798.12 1590.92 2796.83 1592.21 2796.83 1592.21 2796.83 1592.21 2796.83 1592.21 2795.55 1592.21 2795.55 1593.5 2795.55 1593.5 2794.26 1593.5 2794.26 1593.5 2794.26 1593.5 2792.97 1593.5 2792.97 1593.5 2792.97 1593.5 2794.26 1593.5 2794.26 1593.5 2794.26 1593.5 2801.98 1593.5 2825.16 1580.62 2838.04 1560 2853.49 1527.8 2862.5 1463.38 2862.5 1382.22 2862.5 1301.06 2853.49 1240.51 2839.32 1207.01 2834.17 1198 2823.87 1181.25 2805.85 1173.52 2792.97 1167.08 2776.23 1164.5 2753.06 1164.5 2704.13 1164.5 2675.8 1178.67 2665.5 1191.55" stroke="#750000" stroke-width="2.86476" stroke-linecap="round" stroke-linejoin="round" stroke-miterlimit="10" fill="none" fill-rule="evenodd"/></g></svg>