<svg width="312" height="399" xmlns="http://www.w3.org/2000/svg" xmlns:xlink="http://www.w3.org/1999/xlink" xml:space="preserve" overflow="hidden"><g transform="translate(-2974 -1568)"><path d="M2975 1591C2975 1579.35 3003.58 1569 3037.35 1569 3072.42 1569 3101 1579.35 3101 1591 3101 1591 3101 1591 3101 1591 3101 1944.29 3101 1944.29 3101 1944.29 3101 1955.94 3072.42 1965 3037.35 1965 3003.58 1965 2975 1955.94 2975 1944.29 2975 1591 2975 1591 2975 1591Z" fill="#0080FF" fill-rule="evenodd"/><path d="M2982.29 1940.26C2993.91 1600.81 2993.91 1600.81 2993.91 1600.81 2993.91 1589.2 3022.3 1580.16 3057.15 1580.16 3071.35 1580.16 3081.67 1584.03 3092 1585.33 3080.38 1580.16 3063.6 1575 3042.95 1575 3008.1 1575 2981 1585.33 2981 1596.94 2981 1941.55 2981 1941.55 2981 1941.55 2981 1948 2982.29 1944.13 2982.29 1940.26Z" fill="#FFFFFF" fill-rule="evenodd"/><path d="M3090.71 1593.77C3077.8 1934.39 3077.8 1934.39 3077.8 1934.39 3077.8 1946.05 3050.7 1955.11 3015.85 1955.11 3001.65 1955.11 2991.33 1951.23 2981 1948.64 2991.33 1953.82 3008.1 1959 3030.05 1959 3063.6 1959 3092 1949.93 3092 1938.28 3092 1592.48 3092 1592.48 3092 1592.48 3092 1586 3090.71 1589.89 3090.71 1593.77Z" fill="#0080FF" fill-rule="evenodd"/><path d="M3284 1591C3284 1579.35 3255.49 1569 3220.5 1569 3185.51 1569 3157 1579.35 3157 1591 3157 1591 3157 1591 3157 1591 3157 1944.29 3157 1944.29 3157 1944.29 3157 1955.94 3185.51 1965 3220.5 1965 3255.49 1965 3284 1955.94 3284 1944.29 3284 1591 3284 1591 3284 1591Z" fill="#0080FF" fill-rule="evenodd"/><path d="M3157.29 1944.29C3157.29 1591 3157.29 1591 3157.29 1591 3157.29 1591 3157.29 1591 3157.29 1591 3157.29 1584.53 3163.71 1580.65 3174 1576.76 3162.43 1572.88 3147 1569 3129 1569 3111 1569 3094.29 1571.59 3084 1576.76 3094.29 1579.35 3100.71 1584.53 3100.71 1591 3100.71 1591 3100.71 1591 3100.71 1591 3100.71 1944.29 3100.71 1944.29 3100.71 1944.29 3100.71 1949.47 3094.29 1954.65 3084 1958.53 3094.29 1962.41 3111 1965 3129 1965 3147 1965 3162.43 1962.41 3174 1958.53 3163.71 1954.65 3157.29 1949.47 3157.29 1944.29Z" fill="#0080F9" fill-rule="evenodd"/><path d="M3157.29 1944.29C3157.29 1591 3157.29 1591 3157.29 1591 3157.29 1584.53 3163.71 1580.65 3174 1576.76 3162.43 1572.88 3147 1569 3129 1569 3111 1569 3094.29 1571.59 3084 1576.76 3094.29 1579.35 3100.71 1584.53 3100.71 1591 3100.71 1944.29 3100.71 1944.29 3100.71 1944.29 3100.71 1949.47 3094.29 1954.65 3084 1958.53 3094.29 1962.41 3111 1965 3129 1965 3147 1965 3162.43 1962.41 3174 1958.53 3163.71 1954.65 3157.29 1949.47 3157.29 1944.29ZM3143.14 1954.65C3138 1955.94 3134.14 1955.94 3129 1955.94 3125.14 1955.94 3120 1955.94 3116.14 1955.94 3111 1954.65 3109.71 1946.88 3109.71 1944.29 3109.71 1591 3109.71 1591 3109.71 1591 3109.71 1589.71 3109.71 1587.12 3109.71 1585.82 3108.43 1584.53 3111 1579.35 3114.86 1579.35 3118.71 1579.35 3123.86 1579.35 3129 1579.35 3134.14 1579.35 3139.29 1579.35 3144.43 1579.35 3147 1579.35 3149.57 1584.53 3149.57 1585.82 3148.29 1587.12 3148.29 1589.71 3148.29 1591 3148.29 1944.29 3148.29 1944.29 3148.29 1944.29 3148.29 1946.88 3149.57 1954.65 3143.14 1954.65Z" fill="#0080E0" fill-rule="evenodd"/><path d="M3092.4 1593C3089.8 1938.31 3089.8 1938.31 3089.8 1938.31 3089.8 1947.36 3065.1 1959 3030 1959 3030 1959 3030 1959 3030 1959 3061.2 1959 3095 1953.83 3095 1938.31 3092.4 1593 3092.4 1593 3092.4 1593Z" fill="#FFFFFF" fill-rule="evenodd"/><path d="M3164.3 1940.26C3177.33 1600.81 3177.33 1600.81 3177.33 1600.81 3177.33 1589.2 3204.67 1580.16 3239.84 1580.16 3254.16 1580.16 3264.58 1584.03 3275 1585.33 3264.58 1580.16 3247.65 1575 3225.51 1575 3191.65 1575 3163 1585.33 3163 1596.94 3163 1941.55 3163 1941.55 3163 1941.55 3163 1948 3164.3 1944.13 3164.3 1940.26Z" fill="#FFFFFF" fill-rule="evenodd"/><path d="M3273.7 1593.77C3261.98 1934.39 3261.98 1934.39 3261.98 1934.39 3261.98 1946.05 3233.33 1955.11 3198.16 1955.11 3183.84 1955.11 3173.42 1951.23 3163 1948.64 3174.72 1953.82 3191.65 1959 3212.49 1959 3247.65 1959 3275 1949.93 3275 1938.28 3275 1592.48 3275 1592.48 3275 1592.48 3275 1586 3273.7 1589.89 3273.7 1593.77Z" fill="#0080FF" fill-rule="evenodd"/><path d="M3274.44 1593C3273.16 1938.31 3273.16 1938.31 3273.16 1938.31 3273.16 1947.36 3247.56 1959 3213 1959 3213 1959 3213 1959 3213 1959 3243.72 1959 3277 1953.83 3277 1938.31 3274.44 1593 3274.44 1593 3274.44 1593Z" fill="#FFFFFF" fill-rule="evenodd"/><path d="M2975.5 1591.5C2975.5 1579.85 3004.08 1569.5 3037.85 1569.5 3072.92 1569.5 3101.5 1579.85 3101.5 1591.5 3101.5 1591.5 3101.5 1591.5 3101.5 1591.5 3101.5 1944.79 3101.5 1944.79 3101.5 1944.79 3101.5 1956.44 3072.92 1965.5 3037.85 1965.5 3004.08 1965.5 2975.5 1956.44 2975.5 1944.79 2975.5 1591.5 2975.5 1591.5 2975.5 1591.5Z" stroke="#333333" stroke-width="2.86476" stroke-linecap="round" stroke-linejoin="round" stroke-miterlimit="10" fill="none" fill-rule="evenodd"/><path d="M3284.5 1591.5C3284.5 1579.85 3255.99 1569.5 3221 1569.5 3186.01 1569.5 3157.5 1579.85 3157.5 1591.5 3157.5 1591.5 3157.5 1591.5 3157.5 1591.5 3157.5 1944.79 3157.5 1944.79 3157.5 1944.79 3157.5 1956.44 3186.01 1965.5 3221 1965.5 3255.99 1965.5 3284.5 1956.44 3284.5 1944.79 3284.5 1591.5 3284.5 1591.5 3284.5 1591.5Z" stroke="#333333" stroke-width="2.86476" stroke-linecap="round" stroke-linejoin="round" stroke-miterlimit="10" fill="none" fill-rule="evenodd"/><path d="M3157.79 1944.79C3157.79 1591.5 3157.79 1591.5 3157.79 1591.5 3157.79 1591.5 3157.79 1591.5 3157.79 1591.5 3157.79 1585.03 3164.21 1581.15 3174.5 1577.26 3162.93 1573.38 3147.5 1569.5 3129.5 1569.5 3111.5 1569.5 3094.79 1572.09 3084.5 1577.26 3094.79 1579.85 3101.21 1585.03 3101.21 1591.5 3101.21 1591.5 3101.21 1591.5 3101.21 1591.5 3101.21 1944.79 3101.21 1944.79 3101.21 1944.79 3101.21 1949.97 3094.79 1955.15 3084.5 1959.03 3094.79 1962.91 3111.5 1965.5 3129.5 1965.5 3147.5 1965.5 3162.93 1962.91 3174.5 1959.03 3164.21 1955.15 3157.79 1949.97 3157.79 1944.79Z" stroke="#333333" stroke-width="2.86476" stroke-linecap="round" stroke-linejoin="round" stroke-miterlimit="10" fill="none" fill-rule="evenodd"/></g></svg>