<svg width="310" height="437" xmlns="http://www.w3.org/2000/svg" xmlns:xlink="http://www.w3.org/1999/xlink" xml:space="preserve" overflow="hidden"><g transform="translate(-2334 -723)"><path d="M2335 783.5C2335 771.626 2362.98 762 2397.5 762 2432.02 762 2460 771.626 2460 783.5 2460 795.374 2432.02 805 2397.5 805 2362.98 805 2335 795.374 2335 783.5Z" fill="#FFD009" fill-rule="evenodd"/><path d="M2335 1137.31C2335 1147.66 2362.06 1158 2396.86 1158 2431.65 1158 2460 1147.66 2460 1137.31 2460 783 2460 783 2460 783 2460 794.638 2431.65 804.983 2396.86 804.983 2362.06 804.983 2335 794.638 2335 783L2335 1137.31Z" fill="#FFC903" fill-rule="evenodd"/><path d="M2339.3 799C2338 799 2338 800.292 2338 800.292 2338 1100 2338 1100 2338 1100 2338 1100 2338 1100 2338 1100 2338 1100 2340.61 894.596 2341.91 826.129 2341.91 814.502 2351.04 808.043 2356.26 809.335 2366.7 810.626 2381.04 810.626 2396.7 810.626 2398 810.626 2398 810.626 2398 810.626 2373.22 810.626 2351.04 805.459 2341.91 799 2340.61 799 2339.3 799 2339.3 799Z" fill="#FFFFFF" fill-rule="evenodd"/><path d="M2517 783.5C2517 771.626 2544.98 762 2579.5 762 2614.02 762 2642 771.626 2642 783.5 2642 795.374 2614.02 805 2579.5 805 2544.98 805 2517 795.374 2517 783.5Z" fill="#FFD009" fill-rule="evenodd"/><path d="M2517 1137.31C2517 1147.66 2545.35 1158 2580.14 1158 2614.94 1158 2642 1147.66 2642 1137.31 2642 783 2642 783 2642 783 2642 794.638 2614.94 804.983 2580.14 804.983 2545.35 804.983 2517 794.638 2517 783L2517 1137.31Z" fill="#FFC903" fill-rule="evenodd"/><path d="M2438 744.5C2438 733.178 2465.98 724 2500.5 724 2535.02 724 2563 733.178 2563 744.5 2563 755.822 2535.02 765 2500.5 765 2465.98 765 2438 755.822 2438 744.5Z" fill="#FFD009" fill-rule="evenodd"/><path d="M2516.61 782.823C2516.61 773.765 2535.94 766 2563 763.412 2563 744 2563 744 2563 744 2563 755.647 2534.65 764.706 2501.14 764.706 2466.35 764.706 2438 755.647 2438 744 2438 767.294 2438 767.294 2438 767.294 2450.89 771.176 2459.91 776.353 2459.91 782.823 2459.91 1112.82 2459.91 1112.82 2459.91 1112.82 2470.22 1116.71 2484.39 1118 2501.14 1118 2506.3 1118 2511.45 1118 2516.61 1118L2516.61 782.823Z" fill="#E09D00" fill-rule="evenodd"/><path d="M2563 763.412C2563 744 2563 744 2563 744 2563 755.647 2534.65 764.706 2501.14 764.706 2466.35 764.706 2438 755.647 2438 744 2438 767.294 2438 767.294 2438 767.294 2450.89 771.176 2459.91 776.353 2459.91 782.823 2459.91 1112.82 2459.91 1112.82 2459.91 1112.82 2470.22 1116.71 2484.39 1118 2501.14 1118 2506.3 1118 2511.45 1118 2516.61 1118 2516.61 782.823 2516.61 782.823 2516.61 782.823 2516.61 773.765 2535.94 766 2563 763.412ZM2507.59 782.823C2507.59 782.823 2507.59 1092.12 2507.59 1108.94 2503.72 1108.94 2501.14 1108.94 2501.14 1108.94 2489.55 1108.94 2477.95 1107.65 2468.93 1105.06 2468.93 1092.12 2468.93 782.823 2468.93 782.823 2468.93 778.941 2467.64 775.059 2462.48 769.882 2474.08 772.47 2486.97 773.765 2501.14 773.765 2503.72 773.765 2507.59 773.765 2510.16 773.765 2508.88 776.353 2507.59 780.235 2507.59 782.823Z" fill="#AC7F00" fill-rule="evenodd"/><path d="M2450.71 812.784C2439.09 1128.05 2439.09 1128.05 2439.09 1128.05 2439.09 1139.73 2410.7 1148.81 2375.85 1148.81 2361.65 1148.81 2351.33 1144.92 2341 1142.32 2352.62 1148.81 2369.4 1154 2390.05 1154 2424.9 1154 2452 1143.62 2452 1131.94 2452 811.487 2452 811.487 2452 811.487 2452 805 2450.71 808.892 2450.71 812.784Z" fill="#FFB400" fill-rule="evenodd"/><path d="M2452.4 812C2451.1 1131.98 2451.1 1131.98 2451.1 1131.98 2451.1 1141.05 2425.1 1154 2390 1154 2390 1154 2390 1154 2390 1154 2421.2 1154 2455 1147.52 2455 1131.98 2452.4 812 2452.4 812 2452.4 812Z" fill="#FFFFFF" fill-rule="evenodd"/><path d="M2523.3 799C2522 799 2522 800.292 2522 800.292 2522 1100 2522 1100 2522 1100 2522 1100 2522 1100 2522 1100 2522 1100 2524.61 894.596 2525.91 826.129 2525.91 814.502 2535.04 808.043 2540.26 809.335 2550.7 810.626 2565.04 810.626 2580.7 810.626 2582 810.626 2582 810.626 2582 810.626 2557.22 810.626 2535.04 805.459 2525.91 799 2524.61 799 2524.61 799 2523.3 799Z" fill="#FFFFFF" fill-rule="evenodd"/><path d="M2634.43 812.784C2622.84 1128.05 2622.84 1128.05 2622.84 1128.05 2622.84 1139.73 2594.52 1148.81 2559.76 1148.81 2545.6 1148.81 2535.3 1144.92 2525 1142.32 2536.59 1148.81 2553.32 1154 2573.92 1154 2608.68 1154 2637 1143.62 2637 1131.94 2637 811.487 2637 811.487 2637 811.487 2637 805 2634.43 808.892 2634.43 812.784Z" fill="#FFB400" fill-rule="evenodd"/><path d="M2636.72 812C2634.16 1131.98 2634.16 1131.98 2634.16 1131.98 2634.16 1141.05 2609.84 1154 2574 1154 2574 1154 2574 1154 2574 1154 2604.72 1154 2638 1147.52 2638 1131.98 2636.72 812 2636.72 812 2636.72 812Z" fill="#FFFFFF" fill-rule="evenodd"/><path d="M2335.5 784C2335.5 772.126 2363.48 762.5 2398 762.5 2432.52 762.5 2460.5 772.126 2460.5 784 2460.5 795.874 2432.52 805.5 2398 805.5 2363.48 805.5 2335.5 795.874 2335.5 784Z" stroke="#333333" stroke-width="2.86476" stroke-linecap="round" stroke-linejoin="round" stroke-miterlimit="10" fill="none" fill-rule="evenodd"/><path d="M2335.5 1137.81C2335.5 1148.16 2362.56 1158.5 2397.36 1158.5 2432.15 1158.5 2460.5 1148.16 2460.5 1137.81 2460.5 783.5 2460.5 783.5 2460.5 783.5 2460.5 795.138 2432.15 805.483 2397.36 805.483 2362.56 805.483 2335.5 795.138 2335.5 783.5L2335.5 1137.81Z" stroke="#333333" stroke-width="2.86476" stroke-linecap="round" stroke-linejoin="round" stroke-miterlimit="10" fill="none" fill-rule="evenodd"/><path d="M2517.5 784C2517.5 772.126 2545.48 762.5 2580 762.5 2614.52 762.5 2642.5 772.126 2642.5 784 2642.5 795.874 2614.52 805.5 2580 805.5 2545.48 805.5 2517.5 795.874 2517.5 784Z" stroke="#333333" stroke-width="2.86476" stroke-linecap="round" stroke-linejoin="round" stroke-miterlimit="10" fill="none" fill-rule="evenodd"/><path d="M2517.5 1137.81C2517.5 1148.16 2545.85 1158.5 2580.64 1158.5 2615.44 1158.5 2642.5 1148.16 2642.5 1137.81 2642.5 783.5 2642.5 783.5 2642.5 783.5 2642.5 795.138 2615.44 805.483 2580.64 805.483 2545.85 805.483 2517.5 795.138 2517.5 783.5L2517.5 1137.81Z" stroke="#333333" stroke-width="2.86476" stroke-linecap="round" stroke-linejoin="round" stroke-miterlimit="10" fill="none" fill-rule="evenodd"/><path d="M2438.5 745C2438.5 733.678 2466.48 724.5 2501 724.5 2535.52 724.5 2563.5 733.678 2563.5 745 2563.5 756.322 2535.52 765.5 2501 765.5 2466.48 765.5 2438.5 756.322 2438.5 745Z" stroke="#333333" stroke-width="2.86476" stroke-linecap="round" stroke-linejoin="round" stroke-miterlimit="10" fill="none" fill-rule="evenodd"/><path d="M2517.11 783.324C2517.11 774.265 2536.44 766.5 2563.5 763.912 2563.5 744.5 2563.5 744.5 2563.5 744.5 2563.5 756.147 2535.15 765.206 2501.64 765.206 2466.85 765.206 2438.5 756.147 2438.5 744.5 2438.5 767.794 2438.5 767.794 2438.5 767.794 2451.39 771.677 2460.41 776.853 2460.41 783.324 2460.41 1113.32 2460.41 1113.32 2460.41 1113.32 2470.72 1117.21 2484.89 1118.5 2501.64 1118.5 2506.8 1118.5 2511.95 1118.5 2517.11 1118.5L2517.11 783.324Z" stroke="#333333" stroke-width="2.86476" stroke-linecap="round" stroke-linejoin="round" stroke-miterlimit="10" fill="none" fill-rule="evenodd"/></g></svg>