<svg width="253" height="399" xmlns="http://www.w3.org/2000/svg" xmlns:xlink="http://www.w3.org/1999/xlink" xml:space="preserve" overflow="hidden"><g transform="translate(-3365 -1568)"><path d="M3519.16 1944.29C3519.16 1591 3519.16 1591 3519.16 1591 3519.16 1591 3519.16 1591 3519.16 1591 3519.16 1584.53 3525.63 1580.65 3536 1576.76 3524.34 1572.88 3508.79 1569 3490.65 1569 3472.51 1569 3455.66 1571.59 3444 1576.76 3455.66 1579.35 3462.14 1584.53 3462.14 1591 3462.14 1591 3462.14 1591 3462.14 1591 3462.14 1944.29 3462.14 1944.29 3462.14 1944.29 3462.14 1949.47 3455.66 1954.65 3444 1958.53 3455.66 1962.41 3472.51 1965 3490.65 1965 3508.79 1965 3524.34 1962.41 3536 1958.53 3525.63 1954.65 3519.16 1949.47 3519.16 1944.29Z" fill="#0080F9" fill-rule="evenodd"/><path d="M3519.16 1944.29C3519.16 1591 3519.16 1591 3519.16 1591 3519.16 1584.53 3525.63 1580.65 3536 1576.76 3524.34 1572.88 3508.79 1569 3490.65 1569 3472.51 1569 3455.66 1571.59 3444 1576.76 3455.66 1579.35 3462.14 1584.53 3462.14 1591 3462.14 1944.29 3462.14 1944.29 3462.14 1944.29 3462.14 1949.47 3455.66 1954.65 3444 1958.53 3455.66 1962.41 3472.51 1965 3490.65 1965 3508.79 1965 3524.34 1962.41 3536 1958.53 3525.63 1954.65 3519.16 1949.47 3519.16 1944.29ZM3504.9 1954.65C3499.72 1955.94 3494.54 1955.94 3490.65 1955.94 3485.46 1955.94 3481.58 1955.94 3477.69 1955.94 3471.21 1954.65 3471.21 1946.88 3471.21 1944.29 3471.21 1591 3471.21 1591 3471.21 1591 3471.21 1589.71 3471.21 1587.12 3469.92 1585.82 3469.92 1584.53 3472.51 1579.35 3475.1 1579.35 3480.28 1579.35 3485.46 1579.35 3490.65 1579.35 3495.83 1579.35 3501.01 1579.35 3506.2 1579.35 3508.79 1579.35 3511.38 1584.53 3511.38 1585.82 3510.08 1587.12 3510.08 1589.71 3510.08 1591 3510.08 1944.29 3510.08 1944.29 3510.08 1944.29 3510.08 1946.88 3510.08 1954.65 3504.9 1954.65Z" fill="#0080E0" fill-rule="evenodd"/><path d="M3519.65 1944.79C3519.65 1591.5 3519.65 1591.5 3519.65 1591.5 3519.65 1591.5 3519.65 1591.5 3519.65 1591.5 3519.65 1585.03 3526.13 1581.15 3536.5 1577.26 3524.84 1573.38 3509.29 1569.5 3491.15 1569.5 3473.01 1569.5 3456.16 1572.09 3444.5 1577.26 3456.16 1579.85 3462.64 1585.03 3462.64 1591.5 3462.64 1591.5 3462.64 1591.5 3462.64 1591.5 3462.64 1944.79 3462.64 1944.79 3462.64 1944.79 3462.64 1949.97 3456.16 1955.15 3444.5 1959.03 3456.16 1962.91 3473.01 1965.5 3491.15 1965.5 3509.29 1965.5 3524.84 1962.91 3536.5 1959.03 3526.13 1955.15 3519.65 1949.97 3519.65 1944.79Z" stroke="#333333" stroke-width="2.86476" stroke-linecap="round" stroke-linejoin="round" stroke-miterlimit="10" fill="none" fill-rule="evenodd"/><path d="M3616 1591C3616 1579.35 3587.65 1569 3552.86 1569 3518.06 1569 3491 1579.35 3491 1591 3491 1591 3491 1591 3491 1591 3491 1944.29 3491 1944.29 3491 1944.29 3491 1955.94 3518.06 1965 3552.86 1965 3587.65 1965 3616 1955.94 3616 1944.29 3616 1591 3616 1591 3616 1591Z" fill="#0080FF" fill-rule="evenodd"/><path d="M3497.3 1940.26C3510.29 1600.81 3510.29 1600.81 3510.29 1600.81 3510.29 1589.2 3538.86 1580.16 3572.63 1580.16 3586.92 1580.16 3598.61 1584.03 3609 1585.33 3597.31 1580.16 3580.43 1575 3559.64 1575 3524.57 1575 3496 1585.33 3496 1596.94 3496 1941.55 3496 1941.55 3496 1941.55 3496 1948 3497.3 1944.13 3497.3 1940.26Z" fill="#FFFFFF" fill-rule="evenodd"/><path d="M3606.4 1593.77C3594.71 1934.39 3594.71 1934.39 3594.71 1934.39 3594.71 1946.05 3566.14 1955.11 3531.07 1955.11 3518.08 1955.11 3506.39 1951.23 3496 1948.64 3507.69 1953.82 3524.57 1959 3545.36 1959 3580.43 1959 3609 1949.93 3609 1938.28 3609 1592.48 3609 1592.48 3609 1592.48 3609 1586 3606.4 1589.89 3606.4 1593.77Z" fill="#0080FF" fill-rule="evenodd"/><path d="M3608.7 1593C3606.1 1938.31 3606.1 1938.31 3606.1 1938.31 3606.1 1947.36 3581.4 1959 3545 1959 3545 1959 3545 1959 3545 1959 3576.2 1959 3610 1953.83 3610 1938.31 3608.7 1593 3608.7 1593 3608.7 1593Z" fill="#FFFFFF" fill-rule="evenodd"/><path d="M3616.5 1591.5C3616.5 1579.85 3588.15 1569.5 3553.36 1569.5 3518.56 1569.5 3491.5 1579.85 3491.5 1591.5 3491.5 1591.5 3491.5 1591.5 3491.5 1591.5 3491.5 1944.79 3491.5 1944.79 3491.5 1944.79 3491.5 1956.44 3518.56 1965.5 3553.36 1965.5 3588.15 1965.5 3616.5 1956.44 3616.5 1944.79 3616.5 1591.5 3616.5 1591.5 3616.5 1591.5Z" stroke="#333333" stroke-width="2.86476" stroke-linecap="round" stroke-linejoin="round" stroke-miterlimit="10" fill="none" fill-rule="evenodd"/><path d="M3366 1591C3366 1579.35 3394.58 1569 3429.65 1569 3463.42 1569 3492 1579.35 3492 1591 3492 1591 3492 1591 3492 1591 3492 1944.29 3492 1944.29 3492 1944.29 3492 1955.94 3463.42 1965 3429.65 1965 3394.58 1965 3366 1955.94 3366 1944.29 3366 1591 3366 1591 3366 1591Z" fill="#0080FF" fill-rule="evenodd"/><path d="M3374.29 1940.26C3387.2 1600.81 3387.2 1600.81 3387.2 1600.81 3387.2 1589.2 3414.3 1580.16 3449.15 1580.16 3463.35 1580.16 3473.67 1584.03 3484 1585.33 3473.67 1580.16 3456.9 1575 3434.95 1575 3401.4 1575 3373 1585.33 3373 1596.94 3373 1941.55 3373 1941.55 3373 1941.55 3373 1948 3374.29 1944.13 3374.29 1940.26Z" fill="#FFFFFF" fill-rule="evenodd"/><path d="M3482.71 1593.77C3471.09 1934.39 3471.09 1934.39 3471.09 1934.39 3471.09 1946.05 3442.7 1955.11 3407.85 1955.11 3393.65 1955.11 3383.33 1951.23 3373 1948.64 3384.62 1953.82 3401.4 1959 3422.05 1959 3456.9 1959 3484 1949.93 3484 1938.28 3484 1592.48 3484 1592.48 3484 1592.48 3484 1586 3482.71 1589.89 3482.71 1593.77Z" fill="#0080FF" fill-rule="evenodd"/><path d="M3484.4 1593C3483.1 1938.31 3483.1 1938.31 3483.1 1938.31 3483.1 1947.36 3457.1 1959 3422 1959 3422 1959 3422 1959 3422 1959 3453.2 1959 3487 1953.83 3487 1938.31 3484.4 1593 3484.4 1593 3484.4 1593Z" fill="#FFFFFF" fill-rule="evenodd"/><path d="M3366.5 1591.5C3366.5 1579.85 3395.08 1569.5 3430.15 1569.5 3463.92 1569.5 3492.5 1579.85 3492.5 1591.5 3492.5 1591.5 3492.5 1591.5 3492.5 1591.5 3492.5 1944.79 3492.5 1944.79 3492.5 1944.79 3492.5 1956.44 3463.92 1965.5 3430.15 1965.5 3395.08 1965.5 3366.5 1956.44 3366.5 1944.79 3366.5 1591.5 3366.5 1591.5 3366.5 1591.5Z" stroke="#333333" stroke-width="2.86476" stroke-linecap="round" stroke-linejoin="round" stroke-miterlimit="10" fill="none" fill-rule="evenodd"/></g></svg>