<svg width="237" height="432" xmlns="http://www.w3.org/2000/svg" xmlns:xlink="http://www.w3.org/1999/xlink" xml:space="preserve" overflow="hidden"><g transform="translate(-1804 -545)"><path d="M2037.56 659.436C2044 690.205 2023.4 724.821 2023.4 762 2023.4 796.616 2044 828.667 2038.85 856.872 2027.27 919.693 2002.81 962 1975.78 962 1937.16 962 1923 872.257 1923 762 1923 651.744 1937.16 562 1975.78 562 2002.81 562 2024.69 600.462 2037.56 659.436Z" fill="#E7A0AB" fill-rule="evenodd"/><path d="M1807.44 659.436C1802.29 690.205 1822.88 724.821 1822.88 762 1822.88 796.616 1801 828.667 1806.15 856.872 1819.02 919.693 1842.19 962 1869.22 962 1909.13 962 1922 872.257 1922 762 1922 651.744 1909.13 562 1869.22 562 1843.48 562 1820.31 600.462 1807.44 659.436Z" fill="#E7A0AB" fill-rule="evenodd"/><path d="M1975.74 961.88C1937.25 961.88 1923.13 872.03 1923.13 761.642 1923.13 651.254 1937.25 561.403 1975.74 561.403 1978.3 561.403 1980.87 561.403 1982.15 561.403 1969.32 552.418 1955.21 546 1924.42 546 1892.34 546 1873.09 552.418 1860.26 562.686 1862.83 561.403 1866.68 561.403 1869.25 561.403 1909.02 561.403 1921.85 651.254 1921.85 761.642 1921.85 872.03 1909.02 961.88 1869.25 961.88 1862.83 961.88 1856.42 960.597 1850 955.463 1864.11 967.015 1894.91 976 1932.11 976 1962.91 976 1969.32 969.582 1986 960.597 1982.15 961.88 1979.58 961.88 1975.74 961.88Z" fill="#C34A67" fill-rule="evenodd"/><path d="M1986 960.597C1982.15 961.88 1979.58 961.88 1975.74 961.88 1937.25 961.88 1923.13 872.03 1923.13 761.642 1923.13 651.254 1937.25 561.403 1975.74 561.403 1978.3 561.403 1980.87 561.403 1982.15 561.403 1969.32 552.418 1955.21 546 1924.42 546 1892.34 546 1873.09 552.418 1860.26 562.686 1862.83 561.403 1866.68 561.403 1869.25 561.403 1909.02 561.403 1921.85 651.254 1921.85 761.642 1921.85 872.03 1909.02 961.88 1869.25 961.88 1862.83 961.88 1856.42 960.597 1850 955.463 1864.11 967.015 1894.91 976 1932.11 976 1962.91 976 1969.32 969.582 1986 960.597ZM1901.32 952.895C1921.85 919.522 1924.42 846.358 1924.42 761.642 1924.42 675.642 1921.85 599.91 1900.04 567.821 1898.75 565.254 1919.28 557.552 1932.11 557.552 1946.23 557.552 1947.51 565.254 1946.23 566.537 1923.13 599.91 1921.85 675.642 1921.85 761.642 1921.85 846.358 1923.13 920.806 1943.66 954.179 1946.23 956.746 1944.94 964.448 1932.11 964.448 1919.28 964.448 1900.04 956.746 1901.32 952.895Z" fill="#AA2C4D" fill-rule="evenodd"/><path d="M1931 764.344C1931 850.188 1943.69 912.969 1958.92 945 1958.92 945 1958.92 945 1958.92 945 1944.96 914.25 1938.62 850.188 1938.62 764.344 1938.62 688.75 1943.69 604.188 1964 576 1964 576 1964 576 1964 576 1944.96 601.625 1931 666.969 1931 764.344Z" fill="#FFFFFF" fill-rule="evenodd"/><path d="M2009.89 601.004C2018.96 616.439 2026.74 638.305 2031.93 662.744 2035.81 678.179 2030.63 696.187 2025.44 715.481 2021.56 730.916 2017.67 747.637 2017.67 764.359 2017.67 781.08 2022.85 796.515 2026.74 811.95 2031.93 828.672 2035.81 845.393 2033.22 859.542 2029.33 878.836 2024.15 896.844 2018.96 910.993 2011.19 926.428 2011.19 929 2018.96 916.138 2026.74 900.702 2034.52 882.695 2038.41 860.828 2041 845.393 2035.81 828.672 2030.63 810.664 2026.74 795.229 2022.85 779.794 2022.85 764.359 2022.85 747.637 2026.74 732.202 2030.63 716.767 2035.81 697.473 2039.7 679.466 2037.11 661.458 2031.93 637.019 2022.85 617.725 2012.48 602.29 2007.3 593.286 2006 592 2009.89 601.004Z" fill="#FFFFFF" fill-rule="evenodd"/><path d="M1996 578C2010.09 594.708 2017.78 625.553 2025.47 662.825 2029.31 678.247 2022.91 696.24 2017.78 715.519 2013.94 730.941 2010.09 747.649 2010.09 764.357 2010.09 781.065 2015.22 796.488 2019.06 811.91 2024.19 828.618 2030.59 846.612 2028.03 862.034 2020.34 903.161 2011.38 935.292 1996 952 1996 952 1996 952 1996 952 2011.38 934.007 2026.75 903.161 2034.44 860.749 2037 845.326 2033.16 828.618 2028.03 810.625 2022.91 795.203 2019.06 779.78 2019.06 764.357 2019.06 747.649 2022.91 732.227 2026.75 716.804 2031.88 697.526 2037 679.532 2033.16 661.539 2025.47 624.268 2011.38 594.708 1996 578Z" fill="#D97286" fill-rule="evenodd"/><path d="M1812.85 661.364C1810.28 679.38 1814.13 697.395 1819.26 716.698 1823.1 732.14 1828.23 747.581 1828.23 764.31 1828.23 779.752 1823.1 795.194 1819.26 810.636 1814.13 828.651 1809 845.38 1811.56 860.822 1815.41 876.264 1820.54 889.132 1825.67 902 1825.67 902 1825.67 902 1825.67 902 1820.54 890.419 1819.26 874.977 1816.69 859.535 1814.13 845.38 1821.82 828.651 1826.95 811.922 1830.79 796.481 1837.21 781.039 1837.21 764.31 1837.21 747.581 1830.79 730.853 1826.95 715.411 1821.82 696.109 1814.13 678.093 1817.97 662.651 1826.95 618.899 1841.05 582.868 1859 570 1859 570 1859 570 1859 570 1839.77 584.155 1823.1 615.039 1812.85 661.364Z" fill="#FFFFFF" fill-rule="evenodd"/><path d="M1886.85 572C1897.18 607.895 1906.22 677.121 1906.22 745.065 1906.22 855.315 1894.59 934.797 1854.57 934.797 1842.95 934.797 1831.33 927.105 1821 911.721 1833.91 945.052 1848.11 963 1867.48 963 1906.22 963 1923 875.826 1923 764.295 1923 671.993 1910.09 595.075 1886.85 572Z" fill="#DC778C" fill-rule="evenodd"/><path d="M1887.02 571.568C1911.64 594.686 1916.82 684.588 1916.82 764.216 1916.82 865.677 1903.86 962 1865 962 1865 962 1865 962 1865 962 1907.75 962 1922 872.098 1922 764.216 1922 661.471 1909.05 592.118 1885.73 569L1887.02 571.568Z" fill="#FFFFFF" fill-rule="evenodd"/><path d="M1926.44 560.538C1911.08 558 1904.68 577.038 1909.8 591 1908.52 583.385 1897 574.5 1897 568.154 1903.4 563.077 1911.08 558 1929 561.808" fill="#AA2C4D" fill-rule="evenodd"/><path d="M1894 568C1895.27 566.7 1895.27 566.7 1895.27 566.7 1902.91 561.5 1908 558.9 1923.27 558.9 1938.55 558.9 1939.82 561.5 1947.45 566.7 1950 566.7 1950 566.7 1950 566.7 1941.09 561.5 1941.09 555 1924.55 555 1908 555 1901.64 561.5 1894 568Z" fill="#FFFFFF" fill-rule="evenodd"/><path d="M2037.56 659.436C2044 690.205 2023.4 724.821 2023.4 762 2023.4 796.616 2044 828.667 2038.85 856.872 2027.27 919.693 2002.81 962 1975.78 962 1937.16 962 1923 872.257 1923 762 1923 651.744 1937.16 562 1975.78 562 2002.81 562 2024.69 600.462 2037.56 659.436Z" stroke="#333333" stroke-width="2.29167" stroke-linecap="round" stroke-linejoin="round" stroke-miterlimit="10" fill="none" fill-rule="evenodd"/><path d="M1807.44 659.436C1802.29 690.205 1822.88 724.821 1822.88 762 1822.88 796.616 1801 828.667 1806.15 856.872 1819.02 919.693 1842.19 962 1869.22 962 1909.13 962 1922 872.257 1922 762 1922 651.744 1909.13 562 1869.22 562 1843.48 562 1820.31 600.462 1807.44 659.436Z" stroke="#333333" stroke-width="2.29167" stroke-linecap="round" stroke-linejoin="round" stroke-miterlimit="10" fill="none" fill-rule="evenodd"/><path d="M1975.74 961.88C1937.25 961.88 1923.13 872.03 1923.13 761.642 1923.13 651.254 1937.25 561.403 1975.74 561.403 1978.3 561.403 1980.87 561.403 1982.15 561.403 1969.32 552.418 1955.21 546 1924.42 546 1892.34 546 1873.09 552.418 1860.26 562.686 1862.83 561.403 1866.68 561.403 1869.25 561.403 1909.02 561.403 1921.85 651.254 1921.85 761.642 1921.85 872.03 1909.02 961.88 1869.25 961.88 1862.83 961.88 1856.42 960.597 1850 955.463 1864.11 967.015 1894.91 976 1932.11 976 1962.91 976 1969.32 969.582 1986 960.597 1982.15 961.88 1979.58 961.88 1975.74 961.88Z" stroke="#333333" stroke-width="2.29167" stroke-linecap="round" stroke-linejoin="round" stroke-miterlimit="10" fill="none" fill-rule="evenodd"/><path d="M1949 568C1941.33 562.857 1940.05 559 1923.42 559 1906.79 559 1901.67 562.857 1894 568" stroke="#333333" stroke-width="2.29167" stroke-linecap="round" stroke-linejoin="round" stroke-miterlimit="10" fill="none" fill-rule="evenodd"/><path d="M1899 956C1904.11 960.8 1909.22 962 1924.56 962 1937.33 962 1938.61 959.6 1945 956" stroke="#333333" stroke-width="2.29167" stroke-linecap="round" stroke-linejoin="round" stroke-miterlimit="10" fill="none" fill-rule="evenodd"/><path d="M1940 576C1932 588.778 1926.67 622 1924 645 1924 625.833 1930.67 584.945 1940 576Z" fill="#FFFFFF" fill-rule="evenodd"/></g></svg>