<svg width="261" height="436" xmlns="http://www.w3.org/2000/svg" xmlns:xlink="http://www.w3.org/1999/xlink" xml:space="preserve" overflow="hidden"><g transform="translate(-2748 -1159)"><path d="M2976.59 1290.65C2981.72 1321.4 2961.2 1355.99 2961.2 1393.14 2961.2 1427.73 2983 1459.76 2977.87 1487.95 2965.04 1550.72 2941.96 1593 2915.02 1593 2876.54 1593 2865 1503.32 2865 1393.14 2865 1281.68 2876.54 1192 2915.02 1192 2940.67 1192 2963.76 1231.72 2976.59 1290.65Z" fill="#FFFF61" fill-rule="evenodd"/><path d="M2876 1393.14C2876 1479.22 2881.4 1542.17 2897.6 1573 2897.6 1573 2897.6 1573 2897.6 1573 2882.75 1542.17 2884.1 1477.93 2884.1 1393.14 2884.1 1316.06 2881.4 1231.26 2903 1203 2903 1203 2903 1203 2903 1203 2882.75 1229.98 2876 1294.22 2876 1393.14Z" fill="#FFFFFF" fill-rule="evenodd"/><path d="M2948.78 1228.69C2957.59 1245.37 2965.15 1265.89 2970.19 1291.53 2973.96 1306.92 2968.93 1324.88 2963.89 1342.83 2960.11 1359.5 2956.33 1374.89 2956.33 1392.85 2956.33 1408.24 2961.37 1424.91 2965.15 1439.02 2970.19 1456.97 2973.96 1472.36 2971.44 1487.75 2967.67 1506.98 2962.63 1523.66 2957.59 1537.76 2950.04 1554.43 2950.04 1557 2957.59 1542.89 2965.15 1528.79 2972.7 1509.55 2976.48 1487.75 2979 1472.36 2973.96 1455.69 2968.93 1437.73 2965.15 1423.63 2961.37 1408.24 2961.37 1392.85 2961.37 1376.18 2965.15 1359.5 2968.93 1344.11 2973.96 1324.88 2977.74 1306.92 2975.22 1290.25 2970.19 1265.89 2961.37 1245.37 2951.3 1229.98 2946.26 1221 2945 1221 2948.78 1228.69Z" fill="#FFFFFF" fill-rule="evenodd"/><path d="M2935 1207C2948.75 1222.38 2956.25 1253.14 2963.75 1291.6 2967.5 1306.98 2961.25 1324.92 2956.25 1342.87 2952.5 1359.53 2948.75 1374.91 2948.75 1392.86 2948.75 1408.24 2952.5 1424.9 2957.5 1439 2962.5 1456.95 2968.75 1474.89 2966.25 1488.99 2958.75 1531.29 2950 1562.05 2935 1580 2935 1580 2935 1580 2935 1580 2950 1562.05 2965 1530.01 2972.5 1487.71 2975 1472.33 2971.25 1455.67 2966.25 1437.72 2961.25 1423.62 2957.5 1408.24 2957.5 1392.86 2957.5 1376.2 2961.25 1359.53 2965 1344.15 2970 1324.92 2975 1306.98 2971.25 1290.32 2963.75 1251.86 2948.75 1223.66 2935 1207Z" fill="#FFDB3C" fill-rule="evenodd"/><path d="M2751.43 1290.65C2745 1321.4 2765.57 1355.99 2765.57 1393.14 2765.57 1427.73 2745 1459.76 2750.14 1487.95 2763 1550.72 2786.14 1593 2813.14 1593 2851.71 1593 2862 1503.32 2862 1393.14 2862 1281.68 2851.71 1192 2813.14 1192 2787.43 1192 2764.29 1231.72 2751.43 1290.65Z" fill="#FFFF61" fill-rule="evenodd"/><path d="M2757.13 1290.81C2753.28 1307.44 2757.13 1325.35 2762.26 1344.53 2766.1 1359.88 2771.23 1376.51 2771.23 1393.14 2771.23 1408.49 2766.1 1423.84 2762.26 1437.91 2757.13 1455.81 2752 1472.44 2755.85 1487.79 2758.41 1503.14 2763.54 1517.21 2768.67 1530 2768.67 1530 2768.67 1530 2768.67 1530 2763.54 1517.21 2762.26 1501.86 2759.69 1487.79 2757.13 1472.44 2764.82 1457.09 2769.95 1439.19 2773.79 1425.12 2780.21 1408.49 2780.21 1393.14 2780.21 1375.23 2773.79 1359.88 2769.95 1343.26 2766.1 1325.35 2758.41 1307.44 2760.97 1292.09 2769.95 1247.33 2784.05 1212.79 2802 1200 2802 1200 2802 1200 2802 1200 2782.77 1214.07 2766.1 1244.77 2757.13 1290.81Z" fill="#FFFFFF" fill-rule="evenodd"/><path d="M2830.09 1200C2840.3 1235.84 2841.58 1296.01 2841.58 1362.58 2841.58 1473.95 2837.75 1563.56 2798.18 1563.56 2786.7 1563.56 2775.21 1554.6 2765 1540.51 2777.76 1572.52 2794.36 1593 2813.5 1593 2851.79 1593 2862 1503.39 2862 1393.3 2862 1301.13 2853.07 1223.04 2830.09 1200Z" fill="#FFE042" fill-rule="evenodd"/><path d="M2830.12 1199.28C2854.35 1223.65 2858.18 1312.14 2858.18 1392.94 2858.18 1492.97 2847.97 1593 2811 1593 2811 1593 2811 1593 2811 1593 2853.07 1593 2862 1499.38 2862 1392.94 2862 1289.06 2851.8 1221.08 2828.85 1198L2830.12 1199.28Z" fill="#FFFFB5" fill-rule="evenodd"/><path d="M2903.57 1195.1C2904.86 1195.1 2904.86 1193.82 2906.14 1193.82 2906.14 1193.82 2906.14 1193.82 2906.14 1193.82 2928 1182.27 2890.71 1172 2854.71 1175.85 2827.71 1178.42 2822.57 1188.69 2834.14 1202.8 2834.14 1202.8 2834.14 1202.8 2834.14 1202.8 2854.71 1231.04 2862.43 1305.49 2862.43 1392.77 2862.43 1496.73 2853.43 1582.73 2820 1591.72 2856 1581.45 2875.29 1581.45 2910 1593 2910 1593 2910 1593 2910 1593 2875.29 1584.02 2865 1498.02 2865 1392.77 2865 1293.94 2875.29 1211.79 2903.57 1195.1Z" fill="#F3B31D" fill-rule="evenodd"/><path d="M2856 1188.16C2868.8 1185.58 2888 1183 2888 1190.74 2888 1198.47 2875.2 1208.79 2870.08 1232 2872.64 1212.66 2884.16 1195.89 2881.6 1193.32 2876.48 1188.16 2858.56 1189.45 2856 1188.16Z" fill="#FFFFB5" fill-rule="evenodd"/><path d="M2903.57 1195.1C2904.86 1195.1 2904.86 1193.82 2906.14 1193.82 2906.14 1193.82 2906.14 1193.82 2906.14 1193.82 2928 1182.27 2890.71 1172 2854.71 1175.85 2827.71 1178.42 2822.57 1188.69 2834.14 1202.8 2834.14 1202.8 2834.14 1202.8 2834.14 1202.8 2854.71 1231.04 2862.43 1305.49 2862.43 1392.77 2862.43 1496.73 2853.43 1582.73 2820 1591.72 2856 1581.45 2875.29 1581.45 2910 1593 2910 1593 2910 1593 2910 1593 2875.29 1584.02 2865 1498.02 2865 1392.77 2865 1293.94 2875.29 1211.79 2903.57 1195.1Z" fill="#DA9503" fill-rule="evenodd"/><path d="M2886.46 1194.68C2864.86 1221.57 2862.32 1288.16 2862.32 1393.17 2862.32 1480.24 2863.59 1540.43 2877.57 1575 2871.22 1573.72 2863.59 1573.72 2857.24 1572.44 2847.08 1572.44 2861.05 1542.99 2863.59 1521.22 2867.41 1487.92 2866.14 1445.67 2866.14 1393.17 2866.14 1299.69 2864.86 1234.38 2847.08 1203.65 2845.81 1201.09 2847.08 1197.24 2849.62 1195.96 2855.97 1193.4 2842 1189.56 2855.97 1188.28 2866.14 1187 2876.3 1187 2883.92 1188.28 2887.73 1188.28 2889 1193.4 2886.46 1194.68Z" fill="#DA9503" fill-rule="evenodd"/><path d="M2990.46 1381.67C2990.46 1344.52 3011 1308.66 3004.58 1279.2 2999.44 1252.31 2995.59 1224.13 2967.34 1193.39 2930.11 1152.4 2840.22 1146 2794 1198.51 2794 1199.79 2794 1199.79 2794 1199.79 2800.42 1194.67 2806.84 1192.11 2813.26 1192.11 2820.96 1192.11 2827.38 1197.23 2833.8 1203.64 2833.8 1203.64 2833.8 1203.64 2833.8 1203.64 2822.25 1189.55 2827.38 1179.3 2854.35 1176.74 2890.3 1172.9 2927.54 1183.14 2905.71 1194.67 2906.99 1194.67 2908.28 1193.39 2908.28 1193.39 2909.56 1193.39 2909.56 1193.39 2909.56 1193.39 2910.85 1193.39 2910.85 1193.39 2910.85 1193.39 2912.13 1192.11 2913.41 1192.11 2914.7 1192.11 2915.98 1192.11 2917.27 1192.11 2917.27 1193.39 2918.55 1193.39 2918.55 1193.39 2918.55 1193.39 2919.83 1193.39 2919.83 1193.39 2921.12 1193.39 2921.12 1193.39 2921.12 1193.39 2921.12 1193.39 2922.4 1193.39 2923.69 1194.67 2924.97 1194.67 2924.97 1194.67 2924.97 1194.67 2924.97 1194.67 2926.25 1194.67 2926.25 1195.95 2927.54 1195.95 2927.54 1195.95 2927.54 1195.95 2928.82 1195.95 2928.82 1197.23 2930.11 1197.23 2930.11 1197.23 2930.11 1197.23 2931.39 1197.23 2931.39 1198.51 2931.39 1198.51 2932.67 1199.79 2933.96 1199.79 2933.96 1199.79 2933.96 1199.79 2933.96 1201.07 2935.24 1201.07 2936.53 1202.36 2936.53 1202.36 2936.53 1202.36 2936.53 1202.36 2937.81 1203.64 2937.81 1203.64 2939.09 1204.92 2940.38 1206.2 2940.38 1206.2 2940.38 1206.2 2940.38 1206.2 2940.38 1206.2 2941.66 1207.48 2942.95 1208.76 2942.95 1208.76 2942.95 1208.76 2942.95 1210.04 2944.23 1210.04 2944.23 1211.32 2945.51 1212.6 2945.51 1212.6 2945.51 1212.6 2945.51 1212.6 2946.8 1213.88 2948.08 1215.16 2948.08 1216.44 2948.08 1216.44 2948.08 1216.44 2948.08 1216.44 2949.37 1217.72 2950.65 1219.01 2950.65 1220.29 2950.65 1221.57 2951.93 1221.57 2951.93 1221.57 2951.93 1222.85 2953.22 1224.13 2953.22 1225.41 2953.22 1225.41 2954.5 1225.41 2954.5 1226.69 2954.5 1227.97 2955.79 1229.25 2955.79 1230.53 2957.07 1230.53 2957.07 1231.81 2957.07 1231.81 2957.07 1233.09 2958.35 1234.38 2958.35 1235.66 2959.64 1236.94 2959.64 1236.94 2959.64 1236.94 2959.64 1238.22 2960.92 1239.5 2960.92 1242.06 2967.34 1256.15 2972.48 1272.8 2976.33 1290.73 2981.47 1321.47 2960.92 1356.05 2960.92 1393.19 2960.92 1427.78 2982.75 1459.8 2977.62 1487.97 2966.06 1546.89 2944.23 1587.88 2919.83 1593 2919.83 1593 2919.83 1593 2921.12 1593 2927.54 1593 2948.08 1585.32 2960.92 1572.51 2980.18 1557.14 2996.88 1522.56 3005.86 1476.45 3011 1448.27 2990.46 1414.97 2990.46 1381.67Z" fill="#FFDB3C" fill-rule="evenodd"/><path d="M2943.56 1208C2957.67 1224.71 2970.49 1252.98 2979.46 1291.54 2982.03 1306.96 2976.9 1324.96 2971.77 1342.95 2967.92 1359.66 2962.79 1375.08 2962.79 1393.07 2962.79 1408.49 2967.92 1425.2 2971.77 1439.34 2976.9 1457.33 2983.31 1475.33 2980.74 1489.46 2973.05 1531.88 2956.38 1565.29 2941 1582 2941 1582 2941 1582 2941 1582 2956.38 1564.01 2979.46 1530.59 2987.15 1488.18 2991 1472.76 2985.87 1456.05 2980.74 1438.05 2976.9 1423.92 2971.77 1408.49 2971.77 1393.07 2971.77 1376.36 2975.62 1359.66 2980.74 1344.23 2984.59 1324.96 2989.72 1306.96 2985.87 1290.25 2978.18 1251.7 2957.67 1224.71 2943.56 1208Z" fill="#F3C125" fill-rule="evenodd"/><path d="M2977.09 1291.15C2982.22 1321.9 2961.7 1356.49 2961.7 1393.64 2961.7 1428.23 2983.5 1460.26 2978.37 1488.45 2965.54 1551.22 2942.46 1593.5 2915.52 1593.5 2877.04 1593.5 2865.5 1503.82 2865.5 1393.64 2865.5 1282.18 2877.04 1192.5 2915.52 1192.5 2941.17 1192.5 2964.26 1232.22 2977.09 1291.15Z" stroke="#639C00" stroke-width="2.86476" stroke-linecap="round" stroke-linejoin="round" stroke-miterlimit="10" fill="none" fill-rule="evenodd"/><path d="M2751.93 1291.15C2745.5 1321.9 2766.07 1356.49 2766.07 1393.64 2766.07 1428.23 2745.5 1460.26 2750.64 1488.45 2763.5 1551.22 2786.64 1593.5 2813.64 1593.5 2852.21 1593.5 2862.5 1503.82 2862.5 1393.64 2862.5 1282.18 2852.21 1192.5 2813.64 1192.5 2787.93 1192.5 2764.79 1232.22 2751.93 1291.15Z" stroke="#639C00" stroke-width="2.86476" stroke-linecap="round" stroke-linejoin="round" stroke-miterlimit="10" fill="none" fill-rule="evenodd"/><path d="M2904.07 1195.6C2905.36 1195.6 2905.36 1194.32 2906.64 1194.32 2906.64 1194.32 2906.64 1194.32 2906.64 1194.32 2928.5 1182.77 2891.21 1172.5 2855.21 1176.35 2828.21 1178.92 2823.07 1189.19 2834.64 1203.3 2834.64 1203.3 2834.64 1203.3 2834.64 1203.3 2855.21 1231.54 2862.93 1305.99 2862.93 1393.27 2862.93 1497.23 2853.93 1583.23 2820.5 1592.22 2856.5 1581.95 2875.79 1581.95 2910.5 1593.5 2910.5 1593.5 2910.5 1593.5 2910.5 1593.5 2875.79 1584.52 2865.5 1498.52 2865.5 1393.27 2865.5 1294.44 2875.79 1212.29 2904.07 1195.6Z" stroke="#639C00" stroke-width="2.86476" stroke-linecap="round" stroke-linejoin="round" stroke-miterlimit="10" fill="none" fill-rule="evenodd"/><path d="M2990.96 1382.17C2990.96 1345.02 3011.5 1309.16 3005.08 1279.7 2999.94 1252.81 2996.09 1224.63 2967.84 1193.89 2930.61 1152.9 2840.72 1146.5 2794.5 1199.01 2794.5 1200.29 2794.5 1200.29 2794.5 1200.29 2800.92 1195.17 2807.34 1192.61 2813.76 1192.61 2821.46 1192.61 2827.88 1197.73 2834.3 1204.14 2834.3 1204.14 2834.3 1204.14 2834.3 1204.14 2822.75 1190.05 2827.88 1179.8 2854.85 1177.24 2890.8 1173.4 2928.04 1183.64 2906.21 1195.17 2907.49 1195.17 2908.78 1193.89 2908.78 1193.89 2910.06 1193.89 2910.06 1193.89 2910.06 1193.89 2911.35 1193.89 2911.35 1193.89 2911.35 1193.89 2912.63 1192.61 2913.91 1192.61 2915.2 1192.61 2916.48 1192.61 2917.77 1192.61 2917.77 1193.89 2919.05 1193.89 2919.05 1193.89 2919.05 1193.89 2920.33 1193.89 2920.33 1193.89 2921.62 1193.89 2921.62 1193.89 2921.62 1193.89 2921.62 1193.89 2922.9 1193.89 2924.19 1195.17 2925.47 1195.17 2925.47 1195.17 2925.47 1195.17 2925.47 1195.17 2926.75 1195.17 2926.75 1196.45 2928.04 1196.45 2928.04 1196.45 2928.04 1196.45 2929.32 1196.45 2929.32 1197.73 2930.61 1197.73 2930.61 1197.73 2930.61 1197.73 2931.89 1197.73 2931.89 1199.01 2931.89 1199.01 2933.17 1200.29 2934.46 1200.29 2934.46 1200.29 2934.46 1200.29 2934.46 1201.57 2935.74 1201.57 2937.03 1202.86 2937.03 1202.86 2937.03 1202.86 2937.03 1202.86 2938.31 1204.14 2938.31 1204.14 2939.59 1205.42 2940.88 1206.7 2940.88 1206.7 2940.88 1206.7 2940.88 1206.7 2940.88 1206.7 2942.16 1207.98 2943.45 1209.26 2943.45 1209.26 2943.45 1209.26 2943.45 1210.54 2944.73 1210.54 2944.73 1211.82 2946.01 1213.1 2946.01 1213.1 2946.01 1213.1 2946.01 1213.1 2947.3 1214.38 2948.58 1215.66 2948.58 1216.94 2948.58 1216.94 2948.58 1216.94 2948.58 1216.94 2949.87 1218.22 2951.15 1219.51 2951.15 1220.79 2951.15 1222.07 2952.43 1222.07 2952.43 1222.07 2952.43 1223.35 2953.72 1224.63 2953.72 1225.91 2953.72 1225.91 2955 1225.91 2955 1227.19 2955 1228.47 2956.29 1229.75 2956.29 1231.03 2957.57 1231.03 2957.57 1232.31 2957.57 1232.31 2957.57 1233.59 2958.85 1234.88 2958.85 1236.16 2960.14 1237.44 2960.14 1237.44 2960.14 1237.44 2960.14 1238.72 2961.42 1240 2961.42 1242.56 2967.84 1256.65 2972.98 1273.3 2976.83 1291.23 2981.97 1321.97 2961.42 1356.55 2961.42 1393.69 2961.42 1428.28 2983.25 1460.3 2978.12 1488.47 2966.56 1547.39 2944.73 1588.38 2920.33 1593.5 2920.33 1593.5 2920.33 1593.5 2921.62 1593.5 2928.04 1593.5 2948.58 1585.82 2961.42 1573.01 2980.68 1557.64 2997.38 1523.06 3006.36 1476.95 3011.5 1448.77 2990.96 1415.47 2990.96 1382.17Z" stroke="#639C00" stroke-width="2.86476" stroke-linecap="round" stroke-linejoin="round" stroke-miterlimit="10" fill="none" fill-rule="evenodd"/></g></svg>