<svg width="236" height="432" xmlns="http://www.w3.org/2000/svg" xmlns:xlink="http://www.w3.org/1999/xlink" xml:space="preserve" overflow="hidden"><g transform="translate(-1801 -1163)"><path d="M2033.62 1276.68C2040 1307.53 2019.57 1342.23 2019.57 1379.5 2019.57 1414.2 2040 1446.33 2034.89 1474.61 2023.4 1537.59 1999.15 1580 1972.34 1580 1934.04 1580 1920 1490.03 1920 1379.5 1920 1268.97 1934.04 1179 1972.34 1179 1999.15 1179 2020.85 1217.56 2033.62 1276.68Z" fill="#FFC92E" fill-rule="evenodd"/><path d="M1804.38 1276.68C1799.28 1307.53 1819.7 1342.23 1819.7 1379.5 1819.7 1414.2 1798 1446.33 1803.11 1474.61 1815.87 1537.59 1838.85 1580 1865.66 1580 1905.23 1580 1918 1490.03 1918 1379.5 1918 1268.97 1905.23 1179 1865.66 1179 1840.13 1179 1817.15 1217.56 1804.38 1276.68Z" fill="#FFC92E" fill-rule="evenodd"/><path d="M1972.74 1579.88C1934.25 1579.88 1920.13 1490.03 1920.13 1379.64 1920.13 1269.25 1934.25 1179.4 1972.74 1179.4 1975.3 1179.4 1977.87 1179.4 1979.15 1179.4 1966.32 1170.42 1952.21 1164 1921.42 1164 1889.34 1164 1870.09 1170.42 1857.26 1180.69 1859.83 1179.4 1863.68 1179.4 1866.25 1179.4 1906.02 1179.4 1918.85 1269.25 1918.85 1379.64 1918.85 1490.03 1906.02 1579.88 1866.25 1579.88 1859.83 1579.88 1853.42 1578.6 1847 1573.46 1861.11 1585.01 1891.91 1594 1929.11 1594 1959.91 1594 1966.32 1587.58 1983 1578.6 1979.15 1579.88 1976.59 1579.88 1972.74 1579.88Z" fill="#FF7300" fill-rule="evenodd"/><path d="M1983 1578.6C1979.15 1579.88 1976.59 1579.88 1972.74 1579.88 1934.25 1579.88 1920.13 1490.03 1920.13 1379.64 1920.13 1269.25 1934.25 1179.4 1972.74 1179.4 1975.3 1179.4 1977.87 1179.4 1979.15 1179.4 1966.32 1170.42 1952.21 1164 1921.42 1164 1889.34 1164 1870.09 1170.42 1857.26 1180.69 1859.83 1179.4 1863.68 1179.4 1866.25 1179.4 1906.02 1179.4 1918.85 1269.25 1918.85 1379.64 1918.85 1490.03 1906.02 1579.88 1866.25 1579.88 1859.83 1579.88 1853.42 1578.6 1847 1573.46 1861.11 1585.01 1891.91 1594 1929.11 1594 1959.91 1594 1966.32 1587.58 1983 1578.6ZM1898.32 1570.9C1918.85 1537.52 1921.42 1464.36 1921.42 1379.64 1921.42 1293.64 1918.85 1217.91 1897.04 1185.82 1895.75 1183.25 1916.28 1175.55 1929.11 1175.55 1943.23 1175.55 1944.51 1183.25 1943.23 1184.54 1920.13 1217.91 1918.85 1293.64 1918.85 1379.64 1918.85 1464.36 1920.13 1538.81 1940.66 1572.18 1943.23 1574.75 1941.94 1582.45 1929.11 1582.45 1916.28 1582.45 1897.04 1574.75 1898.32 1570.9Z" fill="#EA5500" fill-rule="evenodd"/><path d="M1927 1381.85C1927 1467.93 1940.08 1530.88 1955.77 1563 1955.77 1563 1955.77 1563 1955.77 1563 1941.38 1532.17 1934.85 1467.93 1934.85 1381.85 1934.85 1306.06 1940.08 1221.26 1961 1193 1961 1193 1961 1193 1961 1193 1941.38 1218.69 1927 1284.22 1927 1381.85Z" fill="#FFFFFF" fill-rule="evenodd"/><path d="M2006.78 1218.98C2015.59 1234.37 2023.15 1256.17 2028.19 1280.53 2031.96 1295.92 2026.93 1313.88 2021.89 1333.11 2018.11 1348.5 2014.33 1365.18 2014.33 1381.85 2014.33 1398.52 2019.37 1413.91 2023.15 1429.3 2028.19 1445.97 2031.96 1462.64 2029.44 1476.75 2025.67 1495.98 2020.63 1513.94 2015.59 1528.05 2008.04 1543.43 2008.04 1546 2015.59 1533.18 2023.15 1517.79 2030.7 1499.83 2034.48 1478.03 2037 1462.64 2031.96 1445.97 2026.93 1428.02 2023.15 1412.63 2019.37 1397.24 2019.37 1381.85 2019.37 1365.18 2023.15 1349.79 2026.93 1334.4 2031.96 1315.16 2035.74 1297.21 2033.22 1279.25 2028.19 1254.89 2019.37 1235.65 2009.3 1220.26 2004.26 1211.28 2003 1210 2006.78 1218.98Z" fill="#FFFFFF" fill-rule="evenodd"/><path d="M1993 1196C2007.09 1212.66 2014.78 1243.43 2022.47 1280.6 2026.31 1295.98 2019.91 1313.92 2014.78 1333.15 2010.94 1348.53 2007.09 1365.2 2007.09 1381.86 2007.09 1398.52 2012.22 1413.9 2016.06 1429.29 2021.19 1445.95 2027.59 1463.89 2025.03 1479.27 2017.34 1520.29 2008.38 1552.34 1993 1569 1993 1569 1993 1569 1993 1569 2008.38 1551.05 2023.75 1520.29 2031.44 1477.99 2034 1462.61 2030.16 1445.95 2025.03 1428 2019.91 1412.62 2016.06 1397.24 2016.06 1381.86 2016.06 1365.2 2019.91 1349.81 2023.75 1334.43 2028.88 1315.21 2034 1297.26 2030.16 1279.32 2022.47 1242.14 2008.38 1212.66 1993 1196Z" fill="#FF9B09" fill-rule="evenodd"/><path d="M1808.85 1279.09C1806.28 1297.05 1810.13 1315.01 1815.26 1334.26 1819.1 1349.65 1824.23 1365.05 1824.23 1381.72 1824.23 1397.12 1819.1 1412.52 1815.26 1427.91 1810.13 1445.87 1805 1462.55 1807.56 1477.95 1811.41 1493.34 1816.54 1506.17 1821.67 1519 1821.67 1519 1821.67 1519 1821.67 1519 1816.54 1507.45 1815.26 1492.06 1812.69 1476.66 1810.13 1462.55 1817.82 1445.87 1822.95 1429.19 1826.79 1413.8 1833.21 1398.4 1833.21 1381.72 1833.21 1365.05 1826.79 1348.37 1822.95 1332.97 1817.82 1313.73 1810.13 1295.77 1813.97 1280.37 1822.95 1236.75 1837.05 1200.83 1855 1188 1855 1188 1855 1188 1855 1188 1835.77 1202.11 1819.1 1232.9 1808.85 1279.09Z" fill="#FFFFFF" fill-rule="evenodd"/><path d="M1883.85 1189C1894.18 1224.99 1903.22 1294.39 1903.22 1362.51 1903.22 1473.04 1891.59 1552.72 1851.57 1552.72 1839.95 1552.72 1828.33 1545.01 1818 1529.59 1830.91 1563.01 1845.11 1581 1864.48 1581 1903.22 1581 1920 1493.6 1920 1381.79 1920 1289.25 1907.09 1212.13 1883.85 1189Z" fill="#FFA00F" fill-rule="evenodd"/><path d="M1883.64 1189.57C1907.82 1212.69 1912.91 1302.59 1912.91 1382.22 1912.91 1483.68 1900.18 1580 1862 1580 1862 1580 1862 1580 1862 1580 1904 1580 1918 1490.1 1918 1382.22 1918 1279.47 1905.27 1210.12 1882.36 1187L1883.64 1189.57Z" fill="#FFFFFF" fill-rule="evenodd"/><path d="M1923.44 1177.62C1908.08 1175 1901.68 1194.62 1906.8 1209 1905.52 1201.15 1894 1192 1894 1185.46 1900.4 1180.23 1908.08 1175 1926 1178.92" fill="#EA5500" fill-rule="evenodd"/><path d="M1890 1185C1891.3 1183.8 1891.3 1183.8 1891.3 1183.8 1899.07 1179 1904.25 1176.6 1919.8 1176.6 1935.34 1176.6 1936.64 1179 1944.41 1183.8 1947 1183.8 1947 1183.8 1947 1183.8 1937.93 1179 1937.93 1173 1921.09 1173 1904.25 1173 1897.77 1179 1890 1185Z" fill="#FFFFFF" fill-rule="evenodd"/><path d="M2033.62 1276.68C2040 1307.53 2019.57 1342.23 2019.57 1379.5 2019.57 1414.2 2040 1446.33 2034.89 1474.61 2023.4 1537.59 1999.15 1580 1972.34 1580 1934.04 1580 1920 1490.03 1920 1379.5 1920 1268.97 1934.04 1179 1972.34 1179 1999.15 1179 2020.85 1217.56 2033.62 1276.68Z" stroke="#735C00" stroke-width="2.29167" stroke-linecap="round" stroke-linejoin="round" stroke-miterlimit="10" fill="none" fill-rule="evenodd"/><path d="M1804.38 1276.68C1799.28 1307.53 1819.7 1342.23 1819.7 1379.5 1819.7 1414.2 1798 1446.33 1803.11 1474.61 1815.87 1537.59 1838.85 1580 1865.66 1580 1905.23 1580 1918 1490.03 1918 1379.5 1918 1268.97 1905.23 1179 1865.66 1179 1840.13 1179 1817.15 1217.56 1804.38 1276.68Z" stroke="#735C00" stroke-width="2.29167" stroke-linecap="round" stroke-linejoin="round" stroke-miterlimit="10" fill="none" fill-rule="evenodd"/><path d="M1972.74 1579.88C1934.25 1579.88 1920.13 1490.03 1920.13 1379.64 1920.13 1269.25 1934.25 1179.4 1972.74 1179.4 1975.3 1179.4 1977.87 1179.4 1979.15 1179.4 1966.32 1170.42 1952.21 1164 1921.42 1164 1889.34 1164 1870.09 1170.42 1857.26 1180.69 1859.83 1179.4 1863.68 1179.4 1866.25 1179.4 1906.02 1179.4 1918.85 1269.25 1918.85 1379.64 1918.85 1490.03 1906.02 1579.88 1866.25 1579.88 1859.83 1579.88 1853.42 1578.6 1847 1573.46 1861.11 1585.01 1891.91 1594 1929.11 1594 1959.91 1594 1966.32 1587.58 1983 1578.6 1979.15 1579.88 1976.59 1579.88 1972.74 1579.88Z" stroke="#735C00" stroke-width="2.29167" stroke-linecap="round" stroke-linejoin="round" stroke-miterlimit="10" fill="none" fill-rule="evenodd"/><path d="M1945 1185C1937.33 1180.43 1936.05 1177 1919.42 1177 1902.79 1177 1897.67 1180.43 1890 1185" stroke="#735C00" stroke-width="2.29167" stroke-linecap="round" stroke-linejoin="round" stroke-miterlimit="10" fill="none" fill-rule="evenodd"/><path d="M1895 1573C1900.11 1578.6 1905.22 1580 1920.56 1580 1933.33 1580 1934.61 1577.2 1941 1573" stroke="#735C00" stroke-width="2.29167" stroke-linecap="round" stroke-linejoin="round" stroke-miterlimit="10" fill="none" fill-rule="evenodd"/><path d="M1936 1193C1928.5 1205.78 1923.5 1239 1921 1262 1921 1242.83 1927.25 1201.94 1936 1193Z" fill="#FFFF82" fill-rule="evenodd"/></g></svg>