<svg width="235" height="432" xmlns="http://www.w3.org/2000/svg" xmlns:xlink="http://www.w3.org/1999/xlink" xml:space="preserve" overflow="hidden"><g transform="translate(-2926 -1163)"><path d="M3134.54 1206.51C3130.67 1197.5 3120.37 1180.75 3102.35 1173.02 3089.47 1166.58 3072.73 1164 3049.56 1164 3000.63 1164 2972.3 1178.17 2962 1191.05 2965.86 1187.19 2968.44 1185.9 2972.3 1185.9 2998.05 1185.9 3018.65 1277.37 3018.65 1389.45 3018.65 1493.8 3000.63 1580.12 2977.45 1591.71 2977.45 1593 2977.45 1593 2977.45 1593 2991.61 1585.27 3009.64 1581.41 3028.95 1581.41 3050.84 1581.41 3068.87 1586.56 3083.03 1593 3083.03 1593 3083.03 1593 3083.03 1593 3081.75 1593 3081.75 1591.71 3080.46 1591.71 3080.46 1591.71 3080.46 1591.71 3080.46 1591.71 3079.17 1590.42 3079.17 1590.42 3079.17 1590.42 3077.88 1590.42 3077.88 1590.42 3077.88 1590.42 3077.88 1589.14 3076.59 1589.14 3076.59 1587.85 3076.59 1587.85 3076.59 1587.85 3076.59 1587.85 3075.31 1587.85 3075.31 1586.56 3074.02 1585.27 3074.02 1585.27 3074.02 1585.27 3074.02 1585.27 3074.02 1585.27 3072.73 1583.98 3072.73 1582.69 3072.73 1582.69 3072.73 1582.69 3072.73 1582.69 3071.44 1581.41 3071.44 1581.41 3070.16 1580.12 3070.16 1580.12 3070.16 1580.12 3070.16 1580.12 3070.16 1578.83 3068.87 1577.54 3068.87 1576.25 3068.87 1576.25 3068.87 1576.25 3068.87 1576.25 3067.58 1574.96 3067.58 1573.68 3066.29 1572.39 3066.29 1572.39 3066.29 1572.39 3066.29 1572.39 3066.29 1571.1 3065.01 1569.81 3065.01 1567.23 3065.01 1567.23 3065.01 1567.23 3065.01 1567.23 3059.86 1556.93 3055.99 1544.04 3053.42 1527.3 3053.42 1527.3 3053.42 1527.3 3053.42 1527.3 3053.42 1526.01 3052.13 1523.43 3052.13 1522.14 3052.13 1520.86 3052.13 1520.86 3052.13 1520.86 3052.13 1518.28 3050.84 1516.99 3050.84 1515.7 3050.84 1514.41 3050.84 1513.13 3050.84 1513.13 3050.84 1511.84 3049.56 1509.26 3049.56 1507.97 3049.56 1506.68 3049.56 1506.68 3049.56 1505.4 3049.56 1504.11 3048.27 1501.53 3048.27 1500.24 3048.27 1498.95 3048.27 1497.67 3048.27 1497.67 3048.27 1495.09 3048.27 1493.8 3046.98 1492.51 3046.98 1491.23 3046.98 1489.94 3046.98 1488.65 3046.98 1487.36 3046.98 1486.07 3046.98 1484.78 3045.69 1483.5 3045.69 1482.21 3045.69 1480.92 3045.69 1478.34 3045.69 1477.05 3045.69 1475.77 3045.69 1474.48 3045.69 1473.19 3044.41 1471.9 3044.41 1470.61 3044.41 1468.04 3044.41 1466.75 3044.41 1465.46 3044.41 1464.17 3044.41 1462.88 3044.41 1461.59 3044.41 1459.02 3044.41 1457.73 3043.12 1456.44 3043.12 1455.15 3043.12 1453.86 3043.12 1451.29 3043.12 1450 3043.12 1448.71 3043.12 1447.42 3043.12 1444.85 3043.12 1443.56 3043.12 1442.27 3043.12 1440.98 3043.12 1439.69 3043.12 1437.12 3041.83 1435.83 3041.83 1434.54 3041.83 1433.25 3041.83 1430.68 3041.83 1429.39 3041.83 1428.1 3041.83 1425.52 3041.83 1424.23 3041.83 1422.95 3041.83 1421.66 3041.83 1420.37 3041.83 1417.79 3041.83 1416.5 3041.83 1413.93 3041.83 1412.64 3041.83 1411.35 3041.83 1410.06 3041.83 1407.49 3041.83 1404.91 3041.83 1403.62 3041.83 1402.33 3041.83 1401.04 3041.83 1399.76 3041.83 1395.89 3041.83 1393.32 3041.83 1389.45 3041.83 1277.37 3061.14 1185.9 3086.9 1185.9 3111.36 1185.9 3131.96 1277.37 3131.96 1389.45 3131.96 1498.95 3112.65 1587.85 3089.47 1593 3090.76 1593 3090.76 1593 3090.76 1593 3098.48 1593 3120.37 1580.12 3134.54 1559.5 3148.7 1527.3 3159 1462.88 3159 1381.72 3159 1300.56 3149.99 1240.01 3134.54 1206.51Z" fill="#FFA250" fill-rule="evenodd"/><path d="M3079.99 1591.71C3078.7 1590.42 3078.7 1590.42 3078.7 1590.42 3077.41 1590.42 3077.41 1590.42 3077.41 1590.42 3077.41 1589.13 3076.13 1589.13 3076.13 1587.85 3076.13 1587.85 3076.13 1587.85 3076.13 1587.85 3074.84 1587.85 3074.84 1586.56 3073.55 1585.27 3073.55 1585.27 3073.55 1585.27 3073.55 1585.27 3073.55 1585.27 3072.26 1583.98 3072.26 1582.69 3072.26 1582.69 3072.26 1582.69 3072.26 1582.69 3070.98 1581.4 3070.98 1581.4 3069.69 1580.12 3069.69 1580.12 3069.69 1580.12 3069.69 1580.12 3069.69 1578.83 3068.4 1577.54 3068.4 1576.25 3068.4 1576.25 3068.4 1576.25 3068.4 1576.25 3067.11 1574.96 3067.11 1573.67 3065.83 1572.39 3065.83 1572.39 3065.83 1572.39 3065.83 1572.39 3065.83 1571.1 3064.54 1569.81 3064.54 1567.23 3064.54 1567.23 3064.54 1567.23 3064.54 1567.23 3059.39 1556.93 3055.53 1544.04 3052.95 1527.29 3052.95 1527.29 3052.95 1527.29 3052.95 1527.29 3052.95 1526.01 3051.67 1523.43 3051.67 1522.14 3051.67 1520.85 3051.67 1520.85 3051.67 1520.85 3051.67 1518.28 3050.38 1516.99 3050.38 1515.7 3050.38 1514.41 3050.38 1513.12 3050.38 1513.12 3050.38 1511.83 3049.09 1509.26 3049.09 1507.97 3049.09 1506.68 3049.09 1506.68 3049.09 1505.39 3049.09 1504.1 3047.8 1501.53 3047.8 1500.24 3047.8 1498.95 3047.8 1497.66 3047.8 1497.66 3047.8 1495.09 3047.8 1493.8 3046.52 1492.51 3046.52 1491.22 3046.52 1489.93 3046.52 1488.64 3046.52 1487.36 3046.52 1486.07 3046.52 1484.78 3045.23 1483.49 3045.23 1482.2 3045.23 1480.91 3045.23 1478.34 3045.23 1477.05 3045.23 1475.76 3045.23 1474.47 3045.23 1473.18 3043.94 1471.9 3043.94 1470.61 3043.94 1468.03 3043.94 1466.74 3043.94 1465.45 3043.94 1464.17 3043.94 1462.88 3043.94 1461.59 3043.94 1459.01 3043.94 1457.72 3042.66 1456.44 3042.66 1455.15 3042.66 1453.86 3042.66 1451.28 3042.66 1449.99 3042.66 1448.71 3042.66 1447.42 3042.66 1444.84 3042.66 1443.55 3042.66 1442.26 3042.66 1440.98 3042.66 1439.69 3042.66 1437.11 3041.37 1435.82 3041.37 1434.53 3041.37 1433.25 3041.37 1430.67 3041.37 1429.38 3041.37 1428.09 3041.37 1425.52 3041.37 1424.23 3041.37 1422.94 3041.37 1421.65 3041.37 1420.36 3041.37 1417.79 3041.37 1416.5 3041.37 1413.92 3041.37 1412.63 3041.37 1411.34 3041.37 1410.06 3041.37 1407.48 3041.37 1404.9 3041.37 1403.61 3041.37 1402.33 3041.37 1401.04 3041.37 1399.75 3041.37 1395.88 3041.37 1393.31 3041.37 1389.44 3041.37 1292.82 3055.53 1211.65 3076.13 1191.04 3076.13 1189.75 3076.13 1189.75 3076.13 1189.75 3089 1178.15 3052.95 1173 3033.64 1175.58 3004.03 1178.15 2989.87 1189.75 2989.87 1200.06 2989.87 1201.34 2989.87 1201.34 2989.87 1201.34 3005.32 1230.98 3018.2 1304.41 3018.2 1389.44 3018.2 1493.8 3000.17 1580.12 2977 1591.71 2977 1593 2977 1593 2977 1593 2991.16 1585.27 3009.18 1581.4 3028.49 1581.4 3050.38 1581.4 3068.4 1586.56 3082.56 1593 3082.56 1593 3082.56 1593 3082.56 1593 3081.28 1593 3081.28 1591.71 3079.99 1591.71 3079.99 1591.71 3079.99 1591.71 3079.99 1591.71Z" fill="#FF9100" fill-rule="evenodd"/><path d="M3079.99 1591.71C3078.7 1590.42 3078.7 1590.42 3078.7 1590.42 3077.41 1590.42 3077.41 1590.42 3077.41 1590.42 3077.41 1589.13 3076.13 1589.13 3076.13 1587.85 3076.13 1587.85 3076.13 1587.85 3076.13 1587.85 3074.84 1587.85 3074.84 1586.56 3073.55 1585.27 3073.55 1585.27 3073.55 1585.27 3073.55 1585.27 3073.55 1585.27 3072.26 1583.98 3072.26 1582.69 3072.26 1582.69 3072.26 1582.69 3072.26 1582.69 3070.98 1581.4 3070.98 1581.4 3069.69 1580.12 3069.69 1580.12 3069.69 1580.12 3069.69 1580.12 3069.69 1578.83 3068.4 1577.54 3068.4 1576.25 3068.4 1576.25 3068.4 1576.25 3068.4 1576.25 3067.11 1574.96 3067.11 1573.67 3065.83 1572.39 3065.83 1572.39 3065.83 1572.39 3065.83 1572.39 3065.83 1571.1 3064.54 1569.81 3064.54 1567.23 3064.54 1567.23 3064.54 1567.23 3064.54 1567.23 3059.39 1556.93 3055.53 1544.04 3052.95 1527.29 3052.95 1527.29 3052.95 1527.29 3052.95 1527.29 3052.95 1526.01 3051.67 1523.43 3051.67 1522.14 3051.67 1520.85 3051.67 1520.85 3051.67 1520.85 3051.67 1518.28 3050.38 1516.99 3050.38 1515.7 3050.38 1514.41 3050.38 1513.12 3050.38 1513.12 3050.38 1511.83 3049.09 1509.26 3049.09 1507.97 3049.09 1506.68 3049.09 1506.68 3049.09 1505.39 3049.09 1504.1 3047.8 1501.53 3047.8 1500.24 3047.8 1498.95 3047.8 1497.66 3047.8 1497.66 3047.8 1495.09 3047.8 1493.8 3046.52 1492.51 3046.52 1491.22 3046.52 1489.93 3046.52 1488.64 3046.52 1487.36 3046.52 1486.07 3046.52 1484.78 3045.23 1483.49 3045.23 1482.2 3045.23 1480.91 3045.23 1478.34 3045.23 1477.05 3045.23 1475.76 3045.23 1474.47 3045.23 1473.18 3043.94 1471.9 3043.94 1470.61 3043.94 1468.03 3043.94 1466.74 3043.94 1465.45 3043.94 1464.17 3043.94 1462.88 3043.94 1461.59 3043.94 1459.01 3043.94 1457.72 3042.66 1456.44 3042.66 1455.15 3042.66 1453.86 3042.66 1451.28 3042.66 1449.99 3042.66 1448.71 3042.66 1447.42 3042.66 1444.84 3042.66 1443.55 3042.66 1442.26 3042.66 1440.98 3042.66 1439.69 3042.66 1437.11 3041.37 1435.82 3041.37 1434.53 3041.37 1433.25 3041.37 1430.67 3041.37 1429.38 3041.37 1428.09 3041.37 1425.52 3041.37 1424.23 3041.37 1422.94 3041.37 1421.65 3041.37 1420.36 3041.37 1417.79 3041.37 1416.5 3041.37 1413.92 3041.37 1412.63 3041.37 1411.34 3041.37 1410.06 3041.37 1407.48 3041.37 1404.9 3041.37 1403.61 3041.37 1402.33 3041.37 1401.04 3041.37 1399.75 3041.37 1395.88 3041.37 1393.31 3041.37 1389.44 3041.37 1292.82 3055.53 1211.65 3076.13 1191.04 3076.13 1189.75 3076.13 1189.75 3076.13 1189.75 3089 1178.15 3052.95 1173 3033.64 1175.58 3004.03 1178.15 2989.87 1189.75 2989.87 1200.06 2989.87 1201.34 2989.87 1201.34 2989.87 1201.34 3005.32 1230.98 3018.2 1304.41 3018.2 1389.44 3018.2 1493.8 3000.17 1580.12 2977 1591.71 2977 1593 2977 1593 2977 1593 2991.16 1585.27 3009.18 1581.4 3028.49 1581.4 3050.38 1581.4 3068.4 1586.56 3082.56 1593 3082.56 1593 3082.56 1593 3082.56 1593 3081.28 1593 3081.28 1591.71 3079.99 1591.71 3079.99 1591.71 3079.99 1591.71 3079.99 1591.71ZM3028.49 1319.87C3025.92 1281.22 3020.77 1247.72 3013.05 1221.96 3010.47 1211.65 3006.61 1192.33 3022.06 1188.46 3025.92 1188.46 3029.78 1188.46 3034.93 1187.17 3041.37 1187.17 3049.09 1185.88 3055.53 1187.17 3060.68 1187.17 3060.68 1192.33 3059.39 1194.9 3043.94 1221.96 3033.64 1261.9 3029.78 1316.01 3028.49 1336.62 3029.78 1339.2 3028.49 1319.87Z" fill="#FF7300" fill-rule="evenodd"/><path d="M2927 1389.5C2927 1277.11 2949.39 1186 2977 1186 3004.61 1186 3027 1277.11 3027 1389.5 3027 1501.89 3004.61 1593 2977 1593 2949.39 1593 2927 1501.89 2927 1389.5Z" fill="#FFA976" fill-rule="evenodd"/><path d="M3031 1389.5C3031 1277.11 3053.61 1186 3081.5 1186 3109.39 1186 3132 1277.11 3132 1389.5 3132 1501.89 3109.39 1593 3081.5 1593 3053.61 1593 3031 1501.89 3031 1389.5Z" fill="#FFA976" fill-rule="evenodd"/><path d="M2990.51 1201C2998.28 1238.39 3007.34 1296.42 3007.34 1351.87 3007.34 1464.05 2982.74 1546.58 2956.84 1546.58 2951.66 1546.58 2945.18 1541.42 2940 1531.11 2947.77 1569.79 2959.43 1593 2972.38 1593 2998.28 1593 3019 1502.74 3019 1389.26 3019 1305.45 3007.34 1231.95 2990.51 1201Z" fill="#FFA044" fill-rule="evenodd"/><path d="M2985.56 1195C3001.05 1228.49 3015.25 1303.19 3015.25 1383.05 3015.25 1495.11 2993.31 1585.27 2968.78 1585.27 2963.62 1585.27 2957.16 1577.54 2952 1572.39 2958.45 1586.56 2966.2 1593 2972.65 1593 2998.47 1593 3023 1507.99 3023 1395.93 3023 1303.19 3004.93 1219.47 2985.56 1195Z" fill="#FFFFFF" fill-rule="evenodd"/><path d="M2945.54 1523.39C2939.13 1487.35 2942.97 1439.72 2942.97 1388.23 2942.97 1285.26 2955.79 1192.57 2978.87 1192.57 2978.87 1192.57 2984 1196.44 2984 1197.72 2981.44 1192.57 2977.59 1190 2973.74 1190 2950.67 1190 2934 1278.82 2934 1381.8 2934 1439.72 2937.85 1491.21 2944.26 1527.26 2950.67 1553 2948.1 1546.56 2945.54 1523.39Z" fill="#FFFFFF" fill-rule="evenodd"/><path d="M3033 1187.1C3045.61 1185.83 3062 1182 3062 1189.65 3062 1198.58 3049.39 1211.33 3045.61 1233 3048.13 1211.33 3058.22 1193.48 3055.7 1190.93 3051.91 1185.83 3034.26 1188.38 3033 1187.1Z" fill="#FFFFFF" fill-rule="evenodd"/><path d="M3104.71 1201C3112.43 1238.39 3117.57 1287.39 3117.57 1342.84 3117.57 1456.32 3098.29 1554.32 3072.57 1554.32 3066.14 1554.32 3057.14 1545.29 3052 1534.97 3061 1573.66 3073.86 1593 3086.71 1593 3112.43 1593 3133 1502.74 3133 1389.26 3133 1305.45 3121.43 1231.95 3104.71 1201Z" fill="#FFA044" fill-rule="evenodd"/><path d="M3100.65 1195C3114.88 1228.49 3125.24 1296.75 3125.24 1377.9 3125.24 1489.96 3107.12 1585.27 3082.53 1585.27 3077.35 1585.27 3070.88 1577.54 3067 1572.39 3072.18 1586.56 3079.94 1593 3086.41 1593 3112.29 1593 3133 1502.84 3133 1389.49 3133 1298.04 3118.76 1219.47 3100.65 1195Z" fill="#FFFFFF" fill-rule="evenodd"/><path d="M3052.25 1524.05C3047.17 1489.22 3045.9 1445.37 3045.9 1393.78 3045.9 1290.6 3070.04 1192.58 3092.92 1192.58 3094.19 1192.58 3098 1196.45 3098 1197.74 3095.46 1192.58 3091.65 1190 3087.83 1190 3064.96 1190 3037 1284.15 3037 1387.33 3037 1445.37 3044.62 1493.09 3052.25 1529.21 3057.33 1555 3056.06 1548.55 3052.25 1524.05Z" fill="#FFFFFF" fill-rule="evenodd"/><path d="M3101 1195C3101 1195 3101 1195 3101 1195 3119.24 1220.78 3132.27 1298.12 3132.27 1389.63 3132.27 1477.28 3120.55 1550.75 3103.61 1580.4 3103.61 1592 3103.61 1592 3103.61 1592 3125.76 1580.4 3144 1494.04 3144 1389.63 3144 1304.56 3134.88 1234.96 3101 1195Z" fill="#FF9100" fill-rule="evenodd"/><path d="M3025 1483.85C3027.5 1472.26 3031.25 1479.99 3032.5 1483.85 3035 1489 3032.5 1447.79 3032.5 1447.79 3031.25 1406.59 3031.25 1406.59 3031.25 1406.59 3030 1395 3030 1395 3030 1395" fill="#FF7300" fill-rule="evenodd"/><path d="M3047 1567C3039.22 1563.09 3019.78 1564.39 3012 1567 3015.89 1559.17 3027.56 1522.65 3027.56 1507 3028.85 1520.04 3037.93 1560.48 3047 1567Z" fill="#FF9100" fill-rule="evenodd"/><path d="M2927.5 1390C2927.5 1277.61 2949.89 1186.5 2977.5 1186.5 3005.11 1186.5 3027.5 1277.61 3027.5 1390 3027.5 1502.39 3005.11 1593.5 2977.5 1593.5 2949.89 1593.5 2927.5 1502.39 2927.5 1390Z" stroke="#750000" stroke-width="2.86476" stroke-linecap="round" stroke-linejoin="round" stroke-miterlimit="10" fill="none" fill-rule="evenodd"/><path d="M3031.5 1390C3031.5 1277.61 3054.11 1186.5 3082 1186.5 3109.89 1186.5 3132.5 1277.61 3132.5 1390 3132.5 1502.39 3109.89 1593.5 3082 1593.5 3054.11 1593.5 3031.5 1502.39 3031.5 1390Z" stroke="#750000" stroke-width="2.86476" stroke-linecap="round" stroke-linejoin="round" stroke-miterlimit="10" fill="none" fill-rule="evenodd"/><path d="M2977.5 1593.5C2991.72 1586.17 3009.82 1582.5 3029.21 1582.5 3051.18 1582.5 3069.28 1587.39 3083.5 1593.5" stroke="#750000" stroke-width="2.86476" stroke-linecap="round" stroke-linejoin="round" stroke-miterlimit="10" fill="none" fill-rule="evenodd"/><path d="M3076.64 1190.21C3089.5 1178.64 3053.5 1173.5 3034.21 1176.07 3004.64 1178.64 2990.5 1190.21 2990.5 1200.5" stroke="#750000" stroke-width="2.86476" stroke-linecap="round" stroke-linejoin="round" stroke-miterlimit="10" fill="none" fill-rule="evenodd"/><path d="M3159.5 1382.5C3159.5 1301.23 3150.49 1240.61 3135.04 1207.07 3131.17 1198.04 3120.87 1181.27 3102.85 1173.53 3089.97 1167.08 3073.23 1164.5 3050.06 1164.5 3001.13 1164.5 2972.8 1178.69 2962.5 1191.59" stroke="#750000" stroke-width="2.86476" stroke-linecap="round" stroke-linejoin="round" stroke-miterlimit="10" fill="none" fill-rule="evenodd"/><path d="M3091.5 1593.5C3099.2 1593.5 3121.01 1580.63 3135.12 1560.05 3149.24 1527.88 3159.5 1463.56 3159.5 1382.5" stroke="#750000" stroke-width="2.86476" stroke-linecap="round" stroke-linejoin="round" stroke-miterlimit="10" fill="none" fill-rule="evenodd"/><path d="M2977.5 1593.5C2991.72 1586.17 3009.82 1582.5 3029.21 1582.5 3051.18 1582.5 3069.28 1587.39 3083.5 1593.5" stroke="#750000" stroke-width="2.86476" stroke-linecap="round" stroke-linejoin="round" stroke-miterlimit="10" fill="none" fill-rule="evenodd"/></g></svg>