<svg width="191" height="440" xmlns="http://www.w3.org/2000/svg" xmlns:xlink="http://www.w3.org/1999/xlink" xml:space="preserve" overflow="hidden"><g transform="translate(-1644 -1163)"><path d="M1645 1382.5C1645 1269.56 1665.82 1178 1691.5 1178 1717.18 1178 1738 1269.56 1738 1382.5 1738 1495.44 1717.18 1587 1691.5 1587 1665.82 1587 1645 1495.44 1645 1382.5Z" fill="#1774FF" fill-rule="evenodd"/><path d="M1740 1382.5C1740 1269.56 1760.82 1178 1786.5 1178 1812.18 1178 1833 1269.56 1833 1382.5 1833 1495.44 1812.18 1587 1786.5 1587 1760.82 1587 1740 1495.44 1740 1382.5Z" fill="#1774FF" fill-rule="evenodd"/><path d="M1786.86 1586.82C1762.43 1586.82 1740.57 1495.29 1740.57 1381.86 1740.57 1269.7 1762.43 1178.18 1786.86 1178.18 1792 1178.18 1797.14 1182.05 1801 1187.2 1792 1174.31 1772.71 1164 1739.29 1164 1712.29 1164 1696.86 1170.45 1684 1180.76 1686.57 1179.47 1687.86 1178.18 1690.43 1178.18 1716.14 1178.18 1738 1269.7 1738 1381.86 1738 1495.29 1716.14 1586.82 1690.43 1586.82 1689.14 1586.82 1686.57 1585.53 1685.29 1585.53 1698.14 1594.55 1712.29 1601 1739.29 1601 1772.71 1601 1792 1586.82 1786.86 1586.82Z" fill="#175C83" fill-rule="evenodd"/><path d="M1739.29 1164C1712.29 1164 1696.86 1170.45 1684 1180.76 1686.57 1179.47 1687.86 1178.18 1690.43 1178.18 1716.14 1178.18 1738 1269.7 1738 1381.86 1738 1495.29 1716.14 1586.82 1690.43 1586.82 1689.14 1586.82 1686.57 1585.53 1685.29 1585.53 1698.14 1594.55 1712.29 1601 1739.29 1601 1772.71 1601 1792 1586.82 1786.86 1586.82 1762.43 1586.82 1740.57 1495.29 1740.57 1381.86 1740.57 1269.7 1762.43 1178.18 1786.86 1178.18 1792 1178.18 1797.14 1182.05 1801 1187.2 1792 1174.31 1772.71 1164 1739.29 1164ZM1761.14 1579.09C1762.43 1581.66 1753.43 1588.11 1739.29 1588.11 1727.71 1588.11 1714.86 1581.66 1716.14 1579.09 1740.57 1540.41 1739.29 1447.6 1739.29 1385.72 1739.29 1447.6 1738 1540.41 1761.14 1579.09ZM1758.57 1189.78C1736.71 1231.03 1739.29 1319.98 1739.29 1379.28 1739.29 1319.98 1740.57 1232.32 1718.71 1191.07 1717.43 1185.91 1725.14 1178.18 1739.29 1178.18 1752.14 1178.18 1761.14 1185.91 1758.57 1189.78Z" fill="#173E40" fill-rule="evenodd"/><path d="M1708.32 1194C1716.06 1231.39 1721.23 1280.39 1721.23 1335.84 1721.23 1449.32 1700.58 1539.58 1674.77 1539.58 1669.61 1539.58 1663.16 1534.42 1658 1524.11 1665.74 1562.79 1677.35 1586 1690.26 1586 1716.06 1586 1738 1495.74 1738 1382.26 1738 1298.45 1725.1 1224.95 1708.32 1194Z" fill="#166BCE" fill-rule="evenodd"/><path d="M1703.36 1187C1718.75 1220.57 1729.02 1289.01 1729.02 1370.36 1729.02 1482.7 1711.06 1578.25 1686.68 1578.25 1681.55 1578.25 1675.13 1570.5 1670 1565.34 1676.42 1579.54 1684.11 1586 1690.53 1586 1716.19 1586 1738 1495.61 1738 1381.98 1738 1290.3 1722.6 1211.53 1703.36 1187Z" fill="#FFFFFF" fill-rule="evenodd"/><path d="M1663.54 1516.31C1657.13 1480.17 1660.97 1432.41 1660.97 1380.78 1660.97 1277.52 1673.79 1184.58 1696.87 1184.58 1696.87 1184.58 1702 1188.45 1702 1189.74 1699.44 1184.58 1695.59 1182 1691.74 1182 1668.67 1182 1652 1271.06 1652 1374.33 1652 1432.41 1655.85 1484.04 1662.26 1520.18 1668.67 1546 1666.1 1539.55 1663.54 1516.31Z" fill="#FFFFFF" fill-rule="evenodd"/><path d="M1804.87 1194C1813.82 1231.39 1817.66 1280.39 1817.66 1335.84 1817.66 1449.32 1798.48 1539.58 1772.9 1539.58 1766.51 1539.58 1760.11 1534.42 1755 1524.11 1763.95 1562.79 1775.46 1586 1788.25 1586 1812.54 1586 1833 1495.74 1833 1382.26 1833 1298.45 1821.49 1224.95 1804.87 1194Z" fill="#166BCE" fill-rule="evenodd"/><path d="M1801.14 1187C1816.43 1220.57 1826.63 1289.01 1826.63 1370.36 1826.63 1482.7 1808.78 1578.25 1783.29 1578.25 1778.2 1578.25 1771.82 1570.5 1768 1565.34 1774.37 1579.54 1780.74 1586 1788.39 1586 1812.61 1586 1833 1495.61 1833 1381.98 1833 1290.3 1818.98 1211.53 1801.14 1187Z" fill="#FFFFFF" fill-rule="evenodd"/><path d="M1759.7 1516.31C1754.5 1480.17 1757.1 1432.41 1757.1 1380.78 1757.1 1277.52 1771.4 1184.58 1793.5 1184.58 1794.8 1184.58 1798.7 1188.45 1800 1189.74 1796.1 1184.58 1792.2 1182 1788.3 1182 1764.9 1182 1748 1271.06 1748 1374.33 1748 1432.41 1751.9 1484.04 1759.7 1520.18 1764.9 1546 1763.6 1539.55 1759.7 1516.31Z" fill="#FFFFFF" fill-rule="evenodd"/><path d="M1742 1181C1729 1182.26 1722.5 1192.37 1725.1 1205 1723.8 1199.95 1717.3 1192.37 1716 1187.32 1716 1186.05 1717.3 1186.05 1718.6 1186.05" fill="#173E40" fill-rule="evenodd"/><path d="M1726.19 1555C1722.28 1566.7 1719.67 1581 1735.33 1586.2 1751 1591.4 1724.89 1594 1724.89 1594 1704 1583.6 1704 1583.6 1704 1583.6" fill="#173E40" fill-rule="evenodd"/><path d="M1737 1488.82C1738.17 1477.21 1739.33 1478.5 1741.67 1487.53 1738.17 1472.05 1744 1503 1742.83 1448.84 1739.33 1405 1739.33 1405 1739.33 1405" fill="#173E40" fill-rule="evenodd"/><path d="M1720 1184.56C1721.28 1184.56 1721.28 1184.56 1721.28 1184.56 1726.41 1180.89 1728.97 1178.44 1740.5 1178.44 1755.88 1178.44 1758.44 1183.33 1761 1187 1761 1187 1761 1187 1761 1187 1757.16 1180.89 1755.88 1176 1739.22 1176 1727.69 1176 1726.41 1179.67 1720 1184.56Z" fill="#FFFFFF" fill-rule="evenodd"/><path d="M1645.5 1383C1645.5 1270.06 1666.32 1178.5 1692 1178.5 1717.68 1178.5 1738.5 1270.06 1738.5 1383 1738.5 1495.94 1717.68 1587.5 1692 1587.5 1666.32 1587.5 1645.5 1495.94 1645.5 1383Z" stroke="#000073" stroke-width="2.86476" stroke-linecap="round" stroke-linejoin="round" stroke-miterlimit="10" fill="none" fill-rule="evenodd"/><path d="M1740.5 1383C1740.5 1270.06 1761.32 1178.5 1787 1178.5 1812.68 1178.5 1833.5 1270.06 1833.5 1383 1833.5 1495.94 1812.68 1587.5 1787 1587.5 1761.32 1587.5 1740.5 1495.94 1740.5 1383Z" stroke="#000073" stroke-width="2.86476" stroke-linecap="round" stroke-linejoin="round" stroke-miterlimit="10" fill="none" fill-rule="evenodd"/><path d="M1787.36 1587.32C1762.93 1587.32 1741.07 1495.8 1741.07 1382.36 1741.07 1270.21 1762.93 1178.68 1787.36 1178.68 1792.5 1178.68 1797.64 1182.55 1801.5 1187.7 1792.5 1174.81 1773.21 1164.5 1739.79 1164.5 1712.79 1164.5 1697.36 1170.95 1684.5 1181.26 1687.07 1179.97 1688.36 1178.68 1690.93 1178.68 1716.64 1178.68 1738.5 1270.21 1738.5 1382.36 1738.5 1495.8 1716.64 1587.32 1690.93 1587.32 1689.64 1587.32 1687.07 1586.03 1685.79 1586.03 1698.64 1595.05 1712.79 1601.5 1739.79 1601.5 1773.21 1601.5 1792.5 1587.32 1787.36 1587.32Z" stroke="#000073" stroke-width="2.86476" stroke-linecap="round" stroke-linejoin="round" stroke-miterlimit="10" fill="none" fill-rule="evenodd"/><path d="M1710.5 1578.5C1718.29 1583.64 1724.78 1587.5 1741.65 1587.5 1762.41 1587.5 1771.5 1578.5 1768.9 1578.5" stroke="#000073" stroke-width="2.86476" stroke-linecap="round" stroke-linejoin="round" stroke-miterlimit="10" fill="none" fill-rule="evenodd"/><path d="M1761.5 1186.5C1758.94 1180.9 1749.97 1179.5 1742.28 1179.5 1734.59 1179.5 1725.62 1182.3 1720.5 1186.5" stroke="#000073" stroke-width="2.86476" stroke-linecap="round" stroke-linejoin="round" stroke-miterlimit="10" fill="none" fill-rule="evenodd"/><path d="M1754 1201C1748.4 1210.05 1742.8 1238.49 1740 1254 1740 1238.49 1745.6 1208.76 1754 1201Z" fill="#1780FF" fill-rule="evenodd"/></g></svg>