<svg width="256" height="432" xmlns="http://www.w3.org/2000/svg" xmlns:xlink="http://www.w3.org/1999/xlink" xml:space="preserve" overflow="hidden"><g transform="translate(-1453 -1783)"><path d="M1705.62 1896.68C1712 1927.53 1691.59 1962.23 1691.59 1999.5 1691.59 2034.2 1712 2066.33 1706.9 2094.61 1695.41 2157.59 1672.45 2200 1645.66 2200 1606.1 2200 1601 2110.03 1601 1999.5 1601 1888.97 1606.1 1799 1645.66 1799 1671.17 1799 1692.86 1837.56 1705.62 1896.68Z" fill="#9BC6AB" fill-rule="evenodd"/><path d="M1456.72 1896.68C1450.29 1927.53 1470.88 1962.23 1470.88 1999.5 1470.88 2034.2 1449 2066.33 1455.44 2094.61 1467.02 2157.59 1490.2 2200 1517.23 2200 1557.14 2200 1561 2110.03 1561 1999.5 1561 1888.97 1557.14 1799 1517.23 1799 1491.48 1799 1468.31 1837.56 1456.72 1896.68Z" fill="#9BC6AB" fill-rule="evenodd"/><path d="M1645.98 2199.88C1606.01 2199.88 1600.85 2110.03 1600.85 1999.64 1600.85 1889.25 1606.01 1799.4 1645.98 1799.4 1647.26 1799.4 1649.84 1799.4 1652.42 1799.4 1638.24 1790.42 1611.17 1784 1580.22 1784 1549.28 1784 1522.21 1790.42 1508.02 1800.69 1510.6 1799.4 1514.47 1799.4 1517.05 1799.4 1557.02 1799.4 1560.88 1889.25 1560.88 1999.64 1560.88 2110.03 1557.02 2199.88 1517.05 2199.88 1510.6 2199.88 1504.16 2198.6 1499 2193.46 1511.89 2205.02 1544.12 2214 1580.22 2214 1611.17 2214 1638.24 2207.58 1655 2198.6 1651.13 2199.88 1648.55 2199.88 1645.98 2199.88Z" fill="#777067" fill-rule="evenodd"/><path d="M1655 2198.6C1651.13 2199.88 1648.55 2199.88 1645.98 2199.88 1606.01 2199.88 1600.85 2110.03 1600.85 1999.64 1600.85 1889.25 1606.01 1799.4 1645.98 1799.4 1647.26 1799.4 1649.84 1799.4 1652.42 1799.4 1638.24 1790.42 1611.17 1784 1580.22 1784 1549.28 1784 1522.21 1790.42 1508.02 1800.69 1510.6 1799.4 1514.47 1799.4 1517.05 1799.4 1557.02 1799.4 1560.88 1889.25 1560.88 1999.64 1560.88 2110.03 1557.02 2199.88 1517.05 2199.88 1510.6 2199.88 1504.16 2198.6 1499 2193.46 1511.89 2205.02 1544.12 2214 1580.22 2214 1611.17 2214 1638.24 2207.58 1655 2198.6ZM1550.57 2190.9C1571.2 2157.52 1572.49 2084.36 1572.49 1999.64 1572.49 1913.64 1571.2 1837.91 1547.99 1805.82 1546.7 1803.25 1567.33 1795.55 1580.22 1795.55 1594.41 1795.55 1616.32 1803.25 1615.03 1804.54 1591.83 1837.91 1589.25 1913.64 1589.25 1999.64 1589.25 2084.36 1591.83 2158.81 1613.74 2192.18 1615.03 2194.75 1593.12 2202.45 1580.22 2202.45 1567.33 2202.45 1547.99 2194.75 1550.57 2190.9Z" fill="#5E524D" fill-rule="evenodd"/><path d="M1607 2001.85C1607 2087.93 1613.43 2150.88 1627.57 2183 1627.57 2183 1627.57 2183 1627.57 2183 1613.43 2152.17 1614.71 2087.93 1614.71 2001.85 1614.71 1926.06 1612.14 1841.26 1634 1813 1634 1813 1634 1813 1634 1813 1613.43 1838.69 1607 1904.22 1607 2001.85Z" fill="#FFFFFF" fill-rule="evenodd"/><path d="M1679.78 1838.98C1688.59 1854.37 1696.15 1876.17 1701.19 1900.53 1704.96 1915.92 1699.93 1933.88 1696.15 1953.11 1691.11 1968.5 1687.33 1985.18 1687.33 2001.85 1687.33 2018.52 1692.37 2033.91 1696.15 2049.3 1701.19 2065.97 1706.22 2082.64 1702.44 2096.75 1699.93 2115.98 1693.63 2133.94 1688.59 2148.05 1681.04 2163.44 1681.04 2166 1688.59 2153.18 1696.15 2137.79 1703.7 2119.83 1707.48 2098.03 1710 2082.64 1706.22 2065.97 1701.19 2048.02 1696.15 2032.63 1692.37 2017.24 1692.37 2001.85 1692.37 1985.18 1696.15 1969.79 1699.93 1954.4 1704.96 1935.16 1710 1917.21 1706.22 1899.25 1701.19 1874.89 1692.37 1855.65 1682.3 1840.26 1677.26 1831.28 1676 1830 1679.78 1838.98Z" fill="#FFFFFF" fill-rule="evenodd"/><path d="M1665 1816C1679.09 1832.66 1686.78 1863.43 1694.47 1900.6 1698.31 1915.98 1691.91 1933.92 1688.06 1953.15 1682.94 1968.53 1679.09 1985.2 1679.09 2001.86 1679.09 2018.52 1684.22 2033.9 1688.06 2049.29 1693.19 2065.95 1699.59 2083.89 1697.03 2099.27 1689.34 2140.29 1680.38 2172.34 1665 2189 1665 2189 1665 2189 1665 2189 1680.38 2171.05 1695.75 2140.29 1703.44 2097.99 1706 2082.61 1702.16 2065.95 1697.03 2048 1691.91 2032.62 1688.06 2017.24 1688.06 2001.86 1688.06 1985.2 1691.91 1969.81 1695.75 1954.43 1700.88 1935.21 1706 1917.26 1702.16 1899.32 1694.47 1862.14 1680.38 1832.66 1665 1816Z" fill="#8D9886" fill-rule="evenodd"/><path d="M1462.13 1899.81C1458.28 1917.72 1463.41 1935.63 1468.54 1954.81 1472.38 1970.16 1476.23 1985.51 1476.23 2002.14 1476.23 2017.49 1471.1 2032.84 1467.26 2048.19 1462.13 2066.09 1457 2082.72 1460.85 2098.07 1463.41 2113.42 1469.82 2126.21 1473.67 2139 1473.67 2139 1473.67 2139 1473.67 2139 1469.82 2127.49 1468.54 2112.14 1464.69 2096.79 1462.13 2082.72 1469.82 2066.09 1474.95 2049.47 1478.79 2034.12 1486.49 2018.77 1486.49 2002.14 1486.49 1985.51 1480.08 1968.88 1474.95 1953.54 1471.1 1934.35 1463.41 1916.44 1465.97 1901.09 1476.23 1857.6 1489.05 1821.79 1507 1809 1507 1809 1507 1809 1507 1809 1487.77 1823.07 1471.1 1853.77 1462.13 1899.81Z" fill="#FFFFFF" fill-rule="evenodd"/><path d="M1535.08 1810C1545.34 1845.84 1546.62 1904.73 1546.62 1972.58 1546.62 2082.67 1542.77 2172.28 1503.04 2172.28 1491.51 2172.28 1479.97 2164.6 1471 2149.23 1482.54 2182.52 1500.48 2203 1518.42 2203 1558.15 2203 1562 2113.39 1562 2002.02 1562 1909.85 1559.44 1833.04 1535.08 1810Z" fill="#909D8C" fill-rule="evenodd"/><path d="M1535.17 1809.56C1559.44 1832.63 1556.89 1922.34 1556.89 2001.8 1556.89 2103.04 1554.33 2203 1516 2203 1516 2203 1516 2203 1516 2203 1558.17 2203 1562 2109.45 1562 2001.8 1562 1899.27 1556.89 1830.07 1533.89 1807L1535.17 1809.56Z" fill="#FFFFFF" fill-rule="evenodd"/><path d="M1585 1797.62C1569.9 1795 1554.81 1814.62 1558.58 1829 1557.32 1821.15 1546 1812 1546 1805.46 1553.55 1800.23 1561.1 1795 1577.45 1798.92" fill="#5E524D" fill-rule="evenodd"/><path d="M1542 1806C1543.28 1804.73 1543.28 1804.73 1543.28 1804.73 1550.98 1799.64 1565.1 1797.09 1580.5 1797.09 1595.9 1797.09 1610.02 1799.64 1616.43 1804.73 1619 1804.73 1619 1804.73 1619 1804.73 1610.02 1799.64 1597.18 1792 1580.5 1792 1563.82 1792 1550.98 1799.64 1542 1806Z" fill="#FFFFFF" fill-rule="evenodd"/><path d="M1705.62 1896.68C1712 1927.53 1691.59 1962.23 1691.59 1999.5 1691.59 2034.2 1712 2066.33 1706.9 2094.61 1695.41 2157.59 1672.45 2200 1645.66 2200 1606.1 2200 1601 2110.03 1601 1999.5 1601 1888.97 1606.1 1799 1645.66 1799 1671.17 1799 1692.86 1837.56 1705.62 1896.68Z" stroke="#005933" stroke-width="2.29167" stroke-linecap="round" stroke-linejoin="round" stroke-miterlimit="10" fill="none" fill-rule="evenodd"/><path d="M1456.72 1896.68C1450.29 1927.53 1470.88 1962.23 1470.88 1999.5 1470.88 2034.2 1449 2066.33 1455.44 2094.61 1467.02 2157.59 1490.2 2200 1517.23 2200 1557.14 2200 1561 2110.03 1561 1999.5 1561 1888.97 1557.14 1799 1517.23 1799 1491.48 1799 1468.31 1837.56 1456.72 1896.68Z" stroke="#005933" stroke-width="2.29167" stroke-linecap="round" stroke-linejoin="round" stroke-miterlimit="10" fill="none" fill-rule="evenodd"/><path d="M1645.98 2199.88C1606.01 2199.88 1600.85 2110.03 1600.85 1999.64 1600.85 1889.25 1606.01 1799.4 1645.98 1799.4 1647.26 1799.4 1649.84 1799.4 1652.42 1799.4 1638.24 1790.42 1611.17 1784 1580.22 1784 1549.28 1784 1522.21 1790.42 1508.02 1800.69 1510.6 1799.4 1514.47 1799.4 1517.05 1799.4 1557.02 1799.4 1560.88 1889.25 1560.88 1999.64 1560.88 2110.03 1557.02 2199.88 1517.05 2199.88 1510.6 2199.88 1504.16 2198.6 1499 2193.46 1511.89 2205.02 1544.12 2214 1580.22 2214 1611.17 2214 1638.24 2207.58 1655 2198.6 1651.13 2199.88 1648.55 2199.88 1645.98 2199.88Z" stroke="#005933" stroke-width="2.29167" stroke-linecap="round" stroke-linejoin="round" stroke-miterlimit="10" fill="none" fill-rule="evenodd"/><path d="M1617 1806C1610.64 1800.86 1596.66 1797 1580.14 1797 1563.61 1797 1549.63 1800.86 1542 1806" stroke="#005933" stroke-width="2.29167" stroke-linecap="round" stroke-linejoin="round" stroke-miterlimit="10" fill="none" fill-rule="evenodd"/><path d="M1547 2193C1552.13 2198.6 1568.81 2200 1584.21 2200 1597.04 2200 1607.3 2197.2 1615 2193" stroke="#005933" stroke-width="2.29167" stroke-linecap="round" stroke-linejoin="round" stroke-miterlimit="10" fill="none" fill-rule="evenodd"/><path d="M1609 1813C1601 1825.96 1595.67 1859.67 1593 1883 1593 1863.56 1599.67 1822.07 1609 1813Z" fill="#B3FFFF" fill-rule="evenodd"/></g></svg>