<svg width="236" height="432" xmlns="http://www.w3.org/2000/svg" xmlns:xlink="http://www.w3.org/1999/xlink" xml:space="preserve" overflow="hidden"><g transform="translate(-3471 -1777)"><path d="M3703.62 1890.68C3710 1921.53 3689.57 1956.23 3689.57 1993.5 3689.57 2028.2 3710 2060.33 3704.89 2088.61 3693.4 2151.59 3669.15 2194 3642.34 2194 3604.04 2194 3590 2104.03 3590 1993.5 3590 1882.97 3604.04 1793 3642.34 1793 3669.15 1793 3690.85 1831.56 3703.62 1890.68Z" fill="#6F3AAB" fill-rule="evenodd"/><path d="M3474.38 1890.68C3469.28 1921.53 3489.7 1956.23 3489.7 1993.5 3489.7 2028.2 3468 2060.33 3473.11 2088.61 3485.87 2151.59 3508.85 2194 3535.66 2194 3575.23 2194 3588 2104.03 3588 1993.5 3588 1882.97 3575.23 1793 3535.66 1793 3510.13 1793 3487.15 1831.56 3474.38 1890.68Z" fill="#6F3AAB" fill-rule="evenodd"/><path d="M3642.74 2193.88C3604.25 2193.88 3590.13 2104.03 3590.13 1993.64 3590.13 1883.25 3604.25 1793.4 3642.74 1793.4 3645.3 1793.4 3647.87 1793.4 3649.15 1793.4 3636.32 1784.42 3622.21 1778 3591.42 1778 3559.34 1778 3540.09 1784.42 3527.26 1794.69 3529.83 1793.4 3533.68 1793.4 3536.25 1793.4 3576.02 1793.4 3588.85 1883.25 3588.85 1993.64 3588.85 2104.03 3576.02 2193.88 3536.25 2193.88 3529.83 2193.88 3523.42 2192.6 3517 2187.46 3531.11 2199.01 3561.91 2208 3599.11 2208 3629.91 2208 3636.32 2201.58 3653 2192.6 3649.15 2193.88 3646.58 2193.88 3642.74 2193.88Z" fill="#4B0067" fill-rule="evenodd"/><path d="M3653 2192.6C3649.15 2193.88 3646.58 2193.88 3642.74 2193.88 3604.25 2193.88 3590.13 2104.03 3590.13 1993.64 3590.13 1883.25 3604.25 1793.4 3642.74 1793.4 3645.3 1793.4 3647.87 1793.4 3649.15 1793.4 3636.32 1784.42 3622.21 1778 3591.42 1778 3559.34 1778 3540.09 1784.42 3527.26 1794.69 3529.83 1793.4 3533.68 1793.4 3536.25 1793.4 3576.02 1793.4 3588.85 1883.25 3588.85 1993.64 3588.85 2104.03 3576.02 2193.88 3536.25 2193.88 3529.83 2193.88 3523.42 2192.6 3517 2187.46 3531.11 2199.01 3561.91 2208 3599.11 2208 3629.91 2208 3636.32 2201.58 3653 2192.6ZM3568.32 2184.9C3588.85 2151.52 3591.42 2078.36 3591.42 1993.64 3591.42 1907.64 3588.85 1831.91 3567.04 1799.82 3565.75 1797.25 3586.28 1789.55 3599.11 1789.55 3613.23 1789.55 3614.51 1797.25 3613.23 1798.54 3590.13 1831.91 3588.85 1907.64 3588.85 1993.64 3588.85 2078.36 3590.13 2152.81 3610.66 2186.18 3613.23 2188.75 3611.94 2196.45 3599.11 2196.45 3586.28 2196.45 3567.04 2188.75 3568.32 2184.9Z" fill="#32004D" fill-rule="evenodd"/><path d="M3597 1995.85C3597 2081.93 3610.08 2144.88 3625.77 2177 3625.77 2177 3625.77 2177 3625.77 2177 3611.38 2146.17 3604.85 2081.93 3604.85 1995.85 3604.85 1920.06 3610.08 1835.26 3631 1807 3631 1807 3631 1807 3631 1807 3611.38 1832.69 3597 1898.22 3597 1995.85Z" fill="#FFFFFF" fill-rule="evenodd"/><path d="M3676.78 1832.98C3685.59 1848.37 3693.15 1870.17 3698.19 1894.53 3701.96 1909.92 3696.93 1927.88 3691.89 1947.11 3688.11 1962.5 3684.33 1979.18 3684.33 1995.85 3684.33 2012.52 3689.37 2027.91 3693.15 2043.3 3698.19 2059.97 3701.96 2076.64 3699.44 2090.75 3695.67 2109.98 3690.63 2127.94 3685.59 2142.05 3678.04 2157.44 3678.04 2160 3685.59 2147.18 3693.15 2131.79 3700.7 2113.83 3704.48 2092.03 3707 2076.64 3701.96 2059.97 3696.93 2042.02 3693.15 2026.63 3689.37 2011.24 3689.37 1995.85 3689.37 1979.18 3693.15 1963.79 3696.93 1948.4 3701.96 1929.16 3705.74 1911.21 3703.22 1893.25 3698.19 1868.89 3689.37 1849.65 3679.3 1834.26 3674.26 1825.28 3673 1824 3676.78 1832.98Z" fill="#FFFFFF" fill-rule="evenodd"/><path d="M3663 1810C3677.09 1826.71 3684.78 1857.55 3692.47 1894.82 3696.31 1910.25 3689.91 1928.24 3684.78 1947.52 3680.94 1962.94 3677.09 1979.65 3677.09 1996.36 3677.09 2013.07 3682.22 2028.49 3686.06 2043.91 3691.19 2060.62 3697.59 2078.61 3695.03 2094.03 3687.34 2135.16 3678.38 2167.29 3663 2184 3663 2184 3663 2184 3663 2184 3678.38 2166.01 3693.75 2135.16 3701.44 2092.75 3704 2077.33 3700.16 2060.62 3695.03 2042.63 3689.91 2027.2 3686.06 2011.78 3686.06 1996.36 3686.06 1979.65 3689.91 1964.23 3693.75 1948.8 3698.88 1929.53 3704 1911.53 3700.16 1893.54 3692.47 1856.27 3678.38 1826.71 3663 1810Z" fill="#610C86" fill-rule="evenodd"/><path d="M3478.85 1893.36C3476.28 1911.38 3480.13 1929.4 3485.26 1948.7 3489.1 1964.14 3494.23 1979.58 3494.23 1996.31 3494.23 2011.75 3489.1 2027.19 3485.26 2042.64 3480.13 2060.65 3475 2077.38 3477.56 2092.82 3481.41 2108.26 3486.54 2121.13 3491.67 2134 3491.67 2134 3491.67 2134 3491.67 2134 3486.54 2122.42 3485.26 2106.98 3482.69 2091.53 3480.13 2077.38 3487.82 2060.65 3492.95 2043.92 3496.79 2028.48 3503.21 2013.04 3503.21 1996.31 3503.21 1979.58 3496.79 1962.85 3492.95 1947.41 3487.82 1928.11 3480.13 1910.09 3483.97 1894.65 3492.95 1850.9 3507.05 1814.87 3525 1802 3525 1802 3525 1802 3525 1802 3505.77 1816.15 3489.1 1847.04 3478.85 1893.36Z" fill="#FFFFFF" fill-rule="evenodd"/><path d="M3554.2 1803C3564.43 1838.99 3573.38 1908.39 3573.38 1976.51 3573.38 2087.04 3561.87 2166.72 3522.24 2166.72 3510.73 2166.72 3499.23 2159.01 3489 2143.59 3501.78 2177.01 3515.85 2195 3535.03 2195 3573.38 2195 3590 2107.6 3590 1995.79 3590 1903.25 3577.22 1826.13 3554.2 1803Z" fill="#64118C" fill-rule="evenodd"/><path d="M3553.64 1803.57C3577.82 1826.69 3582.91 1916.59 3582.91 1996.22 3582.91 2097.68 3570.18 2194 3532 2194 3532 2194 3532 2194 3532 2194 3574 2194 3588 2104.1 3588 1996.22 3588 1893.47 3575.27 1824.12 3552.36 1801L3553.64 1803.57Z" fill="#FFFFFF" fill-rule="evenodd"/><path d="M3593.44 1791.62C3578.08 1789 3571.68 1808.62 3576.8 1823 3575.52 1815.15 3564 1806 3564 1799.46 3570.4 1794.23 3578.08 1789 3596 1792.92" fill="#32004D" fill-rule="evenodd"/><path d="M3560 1799C3561.3 1797.8 3561.3 1797.8 3561.3 1797.8 3569.07 1793 3574.25 1790.6 3589.8 1790.6 3605.34 1790.6 3606.64 1793 3614.41 1797.8 3617 1797.8 3617 1797.8 3617 1797.8 3607.93 1793 3607.93 1787 3591.09 1787 3574.25 1787 3567.77 1793 3560 1799Z" fill="#FFFFFF" fill-rule="evenodd"/><path d="M3703.62 1890.68C3710 1921.53 3689.57 1956.23 3689.57 1993.5 3689.57 2028.2 3710 2060.33 3704.89 2088.61 3693.4 2151.59 3669.15 2194 3642.34 2194 3604.04 2194 3590 2104.03 3590 1993.5 3590 1882.97 3604.04 1793 3642.34 1793 3669.15 1793 3690.85 1831.56 3703.62 1890.68Z" stroke="#000033" stroke-width="2.29167" stroke-linecap="round" stroke-linejoin="round" stroke-miterlimit="10" fill="none" fill-rule="evenodd"/><path d="M3474.38 1890.68C3469.28 1921.53 3489.7 1956.23 3489.7 1993.5 3489.7 2028.2 3468 2060.33 3473.11 2088.61 3485.87 2151.59 3508.85 2194 3535.66 2194 3575.23 2194 3588 2104.03 3588 1993.5 3588 1882.97 3575.23 1793 3535.66 1793 3510.13 1793 3487.15 1831.56 3474.38 1890.68Z" stroke="#000033" stroke-width="2.29167" stroke-linecap="round" stroke-linejoin="round" stroke-miterlimit="10" fill="none" fill-rule="evenodd"/><path d="M3642.74 2193.88C3604.25 2193.88 3590.13 2104.03 3590.13 1993.64 3590.13 1883.25 3604.25 1793.4 3642.74 1793.4 3645.3 1793.4 3647.87 1793.4 3649.15 1793.4 3636.32 1784.42 3622.21 1778 3591.42 1778 3559.34 1778 3540.09 1784.42 3527.26 1794.69 3529.83 1793.4 3533.68 1793.4 3536.25 1793.4 3576.02 1793.4 3588.85 1883.25 3588.85 1993.64 3588.85 2104.03 3576.02 2193.88 3536.25 2193.88 3529.83 2193.88 3523.42 2192.6 3517 2187.46 3531.11 2199.01 3561.91 2208 3599.11 2208 3629.91 2208 3636.32 2201.58 3653 2192.6 3649.15 2193.88 3646.58 2193.88 3642.74 2193.88Z" stroke="#000033" stroke-width="2.29167" stroke-linecap="round" stroke-linejoin="round" stroke-miterlimit="10" fill="none" fill-rule="evenodd"/><path d="M3615 1799C3607.33 1794.43 3606.05 1791 3589.42 1791 3572.79 1791 3567.67 1794.43 3560 1799" stroke="#000033" stroke-width="2.29167" stroke-linecap="round" stroke-linejoin="round" stroke-miterlimit="10" fill="none" fill-rule="evenodd"/><path d="M3565 2187C3570.11 2192.6 3575.22 2194 3590.56 2194 3603.33 2194 3604.61 2191.2 3611 2187" stroke="#000033" stroke-width="2.29167" stroke-linecap="round" stroke-linejoin="round" stroke-miterlimit="10" fill="none" fill-rule="evenodd"/><path d="M3606 1807C3598.5 1819.96 3593.5 1853.67 3591 1877 3591 1857.56 3597.25 1816.07 3606 1807Z" fill="#8799FF" fill-rule="evenodd"/></g></svg>