<svg width="261" height="436" xmlns="http://www.w3.org/2000/svg" xmlns:xlink="http://www.w3.org/1999/xlink" xml:space="preserve" overflow="hidden"><g transform="translate(-1085 -1157)"><path d="M1313.59 1288.65C1318.72 1319.4 1298.2 1353.99 1298.2 1391.14 1298.2 1425.73 1320 1457.76 1314.87 1485.95 1302.04 1548.72 1278.96 1591 1252.02 1591 1213.54 1591 1202 1501.32 1202 1391.14 1202 1279.68 1213.54 1190 1252.02 1190 1277.67 1190 1300.76 1229.72 1313.59 1288.65Z" fill="#FFC92E" fill-rule="evenodd"/><path d="M1213 1390.62C1213 1476.47 1218.2 1539.25 1233.8 1570 1233.8 1570 1233.8 1570 1233.8 1570 1219.5 1539.25 1220.8 1475.19 1220.8 1390.62 1220.8 1313.75 1218.2 1229.19 1239 1201 1239 1201 1239 1201 1239 1201 1219.5 1227.91 1213 1291.97 1213 1390.62Z" fill="#FFFFFF" fill-rule="evenodd"/><path d="M1285.78 1226.69C1294.59 1243.37 1302.15 1263.89 1307.19 1289.53 1310.96 1304.92 1305.93 1322.88 1300.89 1340.83 1297.11 1357.5 1293.33 1372.89 1293.33 1390.85 1293.33 1406.24 1298.37 1422.91 1302.15 1437.02 1307.19 1454.97 1310.96 1470.36 1308.44 1485.75 1304.67 1504.98 1299.63 1521.66 1294.59 1535.76 1287.04 1552.44 1287.04 1555 1294.59 1540.89 1302.15 1526.79 1309.7 1507.55 1313.48 1485.75 1316 1470.36 1310.96 1453.69 1305.93 1435.73 1302.15 1421.63 1298.37 1406.24 1298.37 1390.85 1298.37 1374.18 1302.15 1357.5 1305.93 1342.11 1310.96 1322.88 1314.74 1304.92 1312.22 1288.25 1307.19 1263.89 1298.37 1243.37 1288.3 1227.98 1283.26 1219 1282 1219 1285.78 1226.69Z" fill="#FFFFFF" fill-rule="evenodd"/><path d="M1271 1205C1285.09 1220.38 1292.78 1251.14 1300.47 1289.6 1304.31 1304.98 1297.91 1322.92 1292.78 1340.87 1288.94 1357.53 1285.09 1372.91 1285.09 1390.86 1285.09 1406.24 1288.94 1422.9 1294.06 1437 1299.19 1454.95 1305.59 1472.89 1303.03 1486.99 1295.34 1529.29 1286.38 1560.06 1271 1578 1271 1578 1271 1578 1271 1578 1286.38 1560.06 1301.75 1528.01 1309.44 1485.71 1312 1470.33 1308.16 1453.67 1303.03 1435.72 1297.91 1421.62 1294.06 1406.24 1294.06 1390.86 1294.06 1374.2 1297.91 1357.53 1301.75 1342.15 1306.88 1322.92 1312 1304.98 1308.16 1288.32 1300.47 1249.86 1285.09 1221.66 1271 1205Z" fill="#FF9B09" fill-rule="evenodd"/><path d="M1088.43 1288.65C1082 1319.4 1102.57 1353.99 1102.57 1391.14 1102.57 1425.73 1082 1457.76 1087.14 1485.95 1100 1548.72 1123.14 1591 1150.14 1591 1188.71 1591 1199 1501.32 1199 1391.14 1199 1279.68 1188.71 1190 1150.14 1190 1124.43 1190 1101.29 1229.72 1088.43 1288.65Z" fill="#FFC92E" fill-rule="evenodd"/><path d="M1094.13 1288.09C1090.28 1304.77 1094.13 1322.73 1099.26 1341.97 1103.1 1357.37 1108.23 1374.05 1108.23 1390.72 1108.23 1406.12 1103.1 1421.52 1099.26 1435.63 1094.13 1453.59 1089 1470.27 1092.85 1485.66 1095.41 1501.06 1100.54 1515.17 1105.67 1528 1105.67 1528 1105.67 1528 1105.67 1528 1100.54 1515.17 1099.26 1499.78 1096.69 1485.66 1094.13 1470.27 1101.82 1454.87 1106.95 1436.91 1110.79 1422.8 1117.21 1406.12 1117.21 1390.72 1117.21 1372.76 1110.79 1357.37 1106.95 1340.69 1103.1 1322.73 1095.41 1304.77 1097.97 1289.37 1106.95 1244.47 1121.05 1209.83 1139 1197 1139 1197 1139 1197 1139 1197 1119.77 1211.11 1103.1 1241.9 1094.13 1288.09Z" fill="#FFFFFF" fill-rule="evenodd"/><path d="M1167.09 1197C1177.3 1232.93 1178.58 1293.25 1178.58 1359.99 1178.58 1471.64 1174.75 1561.48 1135.18 1561.48 1123.7 1561.48 1112.21 1552.5 1102 1538.38 1114.76 1570.47 1131.36 1591 1150.5 1591 1188.79 1591 1199 1501.16 1199 1390.79 1199 1298.39 1190.07 1220.1 1167.09 1197Z" fill="#FFA00F" fill-rule="evenodd"/><path d="M1167.13 1197.28C1191.35 1221.65 1195.18 1310.14 1195.18 1390.93 1195.18 1490.97 1184.97 1591 1148 1591 1148 1591 1148 1591 1148 1591 1190.08 1591 1199 1497.38 1199 1390.93 1199 1287.06 1188.8 1219.08 1165.85 1196L1167.13 1197.28Z" fill="#FFFF82" fill-rule="evenodd"/><path d="M1240.57 1193.1C1241.86 1193.1 1241.86 1191.82 1243.14 1191.82 1243.14 1191.82 1243.14 1191.82 1243.14 1191.82 1265 1180.27 1227.71 1170 1191.71 1173.85 1164.71 1176.42 1159.57 1186.69 1171.14 1200.8 1171.14 1200.8 1171.14 1200.8 1171.14 1200.8 1191.71 1229.04 1199.43 1303.49 1199.43 1390.77 1199.43 1494.73 1190.43 1580.73 1157 1589.72 1193 1579.45 1212.29 1579.45 1247 1591 1247 1591 1247 1591 1247 1591 1212.29 1582.02 1202 1496.02 1202 1390.77 1202 1291.94 1212.29 1209.79 1240.57 1193.1Z" fill="#FF7300" fill-rule="evenodd"/><path d="M1193 1185.16C1205.8 1182.58 1225 1180 1225 1187.74 1225 1195.47 1212.2 1205.79 1207.08 1229 1209.64 1209.66 1221.16 1192.89 1218.6 1190.32 1213.48 1185.16 1195.56 1186.45 1193 1185.16Z" fill="#FFFF82" fill-rule="evenodd"/><path d="M1240.57 1193.1C1241.86 1193.1 1241.86 1191.82 1243.14 1191.82 1243.14 1191.82 1243.14 1191.82 1243.14 1191.82 1265 1180.27 1227.71 1170 1191.71 1173.85 1164.71 1176.42 1159.57 1186.69 1171.14 1200.8 1171.14 1200.8 1171.14 1200.8 1171.14 1200.8 1191.71 1229.04 1199.43 1303.49 1199.43 1390.77 1199.43 1494.73 1190.43 1580.73 1157 1589.72 1193 1579.45 1212.29 1579.45 1247 1591 1247 1591 1247 1591 1247 1591 1212.29 1582.02 1202 1496.02 1202 1390.77 1202 1291.94 1212.29 1209.79 1240.57 1193.1Z" fill="#EA5500" fill-rule="evenodd"/><path d="M1223.41 1191.7C1201.35 1218.66 1198.76 1285.42 1198.76 1390.7 1198.76 1478 1200.05 1538.34 1214.32 1573 1207.84 1571.72 1200.05 1571.72 1193.57 1570.43 1183.19 1570.43 1197.46 1540.9 1200.05 1519.08 1203.95 1485.7 1202.65 1443.33 1202.65 1390.7 1202.65 1296.98 1201.35 1231.5 1183.19 1200.69 1181.89 1198.12 1183.19 1194.27 1185.78 1192.99 1192.27 1190.42 1178 1186.57 1192.27 1185.28 1202.65 1184 1213.03 1184 1220.81 1185.28 1224.7 1185.28 1226 1190.42 1223.41 1191.7Z" fill="#EA5500" fill-rule="evenodd"/><path d="M1327.46 1379.67C1327.46 1342.52 1348 1306.66 1341.58 1277.2 1336.44 1250.31 1332.59 1222.13 1304.34 1191.39 1267.11 1150.4 1177.22 1144 1131 1196.51 1131 1197.79 1131 1197.79 1131 1197.79 1137.42 1192.67 1143.84 1190.11 1150.26 1190.11 1157.96 1190.11 1164.38 1195.23 1170.8 1201.64 1170.8 1201.64 1170.8 1201.64 1170.8 1201.64 1159.25 1187.55 1164.38 1177.3 1191.35 1174.74 1227.3 1170.9 1264.54 1181.14 1242.71 1192.67 1243.99 1192.67 1245.28 1191.39 1245.28 1191.39 1246.56 1191.39 1246.56 1191.39 1246.56 1191.39 1247.85 1191.39 1247.85 1191.39 1247.85 1191.39 1249.13 1190.11 1250.41 1190.11 1251.7 1190.11 1252.98 1190.11 1254.27 1190.11 1254.27 1191.39 1255.55 1191.39 1255.55 1191.39 1255.55 1191.39 1256.83 1191.39 1256.83 1191.39 1258.12 1191.39 1258.12 1191.39 1258.12 1191.39 1258.12 1191.39 1259.4 1191.39 1260.69 1192.67 1261.97 1192.67 1261.97 1192.67 1261.97 1192.67 1261.97 1192.67 1263.25 1192.67 1263.25 1193.95 1264.54 1193.95 1264.54 1193.95 1264.54 1193.95 1265.82 1193.95 1265.82 1195.23 1267.11 1195.23 1267.11 1195.23 1267.11 1195.23 1268.39 1195.23 1268.39 1196.51 1268.39 1196.51 1269.67 1197.79 1270.96 1197.79 1270.96 1197.79 1270.96 1197.79 1270.96 1199.07 1272.24 1199.07 1273.53 1200.36 1273.53 1200.36 1273.53 1200.36 1273.53 1200.36 1274.81 1201.64 1274.81 1201.64 1276.09 1202.92 1277.38 1204.2 1277.38 1204.2 1277.38 1204.2 1277.38 1204.2 1277.38 1204.2 1278.66 1205.48 1279.95 1206.76 1279.95 1206.76 1279.95 1206.76 1279.95 1208.04 1281.23 1208.04 1281.23 1209.32 1282.51 1210.6 1282.51 1210.6 1282.51 1210.6 1282.51 1210.6 1283.8 1211.88 1285.08 1213.16 1285.08 1214.44 1285.08 1214.44 1285.08 1214.44 1285.08 1214.44 1286.37 1215.72 1287.65 1217.01 1287.65 1218.29 1287.65 1219.57 1288.93 1219.57 1288.93 1219.57 1288.93 1220.85 1290.22 1222.13 1290.22 1223.41 1290.22 1223.41 1291.5 1223.41 1291.5 1224.69 1291.5 1225.97 1292.79 1227.25 1292.79 1228.53 1294.07 1228.53 1294.07 1229.81 1294.07 1229.81 1294.07 1231.09 1295.35 1232.38 1295.35 1233.66 1296.64 1234.94 1296.64 1234.94 1296.64 1234.94 1296.64 1236.22 1297.92 1237.5 1297.92 1240.06 1304.34 1254.15 1309.48 1270.8 1313.33 1288.73 1318.47 1319.47 1297.92 1354.05 1297.92 1391.19 1297.92 1425.78 1319.75 1457.8 1314.62 1485.97 1303.06 1544.89 1281.23 1585.88 1256.83 1591 1256.83 1591 1256.83 1591 1258.12 1591 1264.54 1591 1285.08 1583.32 1297.92 1570.51 1317.18 1555.14 1333.88 1520.56 1342.86 1474.45 1348 1446.27 1327.46 1412.97 1327.46 1379.67Z" fill="#FF9B09" fill-rule="evenodd"/><path d="M1279.62 1206C1294 1222.71 1307.08 1250.98 1316.23 1289.54 1318.85 1304.96 1313.62 1322.96 1308.38 1340.95 1304.46 1357.66 1299.23 1373.08 1299.23 1391.07 1299.23 1406.49 1304.46 1423.2 1308.38 1437.34 1313.62 1455.33 1320.15 1473.33 1317.54 1487.46 1309.69 1529.88 1292.69 1563.29 1277 1580 1277 1580 1277 1580 1277 1580 1292.69 1562.01 1316.23 1528.59 1324.08 1486.18 1328 1470.76 1322.77 1454.05 1317.54 1436.05 1313.62 1421.92 1308.38 1406.49 1308.38 1391.07 1308.38 1374.36 1312.31 1357.66 1317.54 1342.23 1321.46 1322.96 1326.69 1304.96 1322.77 1288.25 1314.92 1249.7 1294 1222.71 1279.62 1206Z" fill="#FF8100" fill-rule="evenodd"/><path d="M1314.09 1289.15C1319.22 1319.9 1298.7 1354.49 1298.7 1391.64 1298.7 1426.23 1320.5 1458.26 1315.37 1486.45 1302.54 1549.22 1279.46 1591.5 1252.52 1591.5 1214.04 1591.5 1202.5 1501.82 1202.5 1391.64 1202.5 1280.18 1214.04 1190.5 1252.52 1190.5 1278.17 1190.5 1301.26 1230.22 1314.09 1289.15Z" stroke="#735C00" stroke-width="2.86476" stroke-linecap="round" stroke-linejoin="round" stroke-miterlimit="10" fill="none" fill-rule="evenodd"/><path d="M1088.93 1289.15C1082.5 1319.9 1103.07 1354.49 1103.07 1391.64 1103.07 1426.23 1082.5 1458.26 1087.64 1486.45 1100.5 1549.22 1123.64 1591.5 1150.64 1591.5 1189.21 1591.5 1199.5 1501.82 1199.5 1391.64 1199.5 1280.18 1189.21 1190.5 1150.64 1190.5 1124.93 1190.5 1101.79 1230.22 1088.93 1289.15Z" stroke="#735C00" stroke-width="2.86476" stroke-linecap="round" stroke-linejoin="round" stroke-miterlimit="10" fill="none" fill-rule="evenodd"/><path d="M1241.07 1193.6C1242.36 1193.6 1242.36 1192.32 1243.64 1192.32 1243.64 1192.32 1243.64 1192.32 1243.64 1192.32 1265.5 1180.77 1228.21 1170.5 1192.21 1174.35 1165.21 1176.92 1160.07 1187.19 1171.64 1201.3 1171.64 1201.3 1171.64 1201.3 1171.64 1201.3 1192.21 1229.54 1199.93 1303.99 1199.93 1391.27 1199.93 1495.23 1190.93 1581.23 1157.5 1590.22 1193.5 1579.95 1212.79 1579.95 1247.5 1591.5 1247.5 1591.5 1247.5 1591.5 1247.5 1591.5 1212.79 1582.52 1202.5 1496.52 1202.5 1391.27 1202.5 1292.44 1212.79 1210.29 1241.07 1193.6Z" stroke="#735C00" stroke-width="2.86476" stroke-linecap="round" stroke-linejoin="round" stroke-miterlimit="10" fill="none" fill-rule="evenodd"/><path d="M1327.96 1380.17C1327.96 1343.02 1348.5 1307.16 1342.08 1277.7 1336.94 1250.81 1333.09 1222.63 1304.84 1191.89 1267.61 1150.9 1177.72 1144.5 1131.5 1197.01 1131.5 1198.29 1131.5 1198.29 1131.5 1198.29 1137.92 1193.17 1144.34 1190.61 1150.76 1190.61 1158.46 1190.61 1164.88 1195.73 1171.3 1202.14 1171.3 1202.14 1171.3 1202.14 1171.3 1202.14 1159.75 1188.05 1164.88 1177.8 1191.85 1175.24 1227.8 1171.4 1265.04 1181.64 1243.21 1193.17 1244.49 1193.17 1245.78 1191.89 1245.78 1191.89 1247.06 1191.89 1247.06 1191.89 1247.06 1191.89 1248.35 1191.89 1248.35 1191.89 1248.35 1191.89 1249.63 1190.61 1250.91 1190.61 1252.2 1190.61 1253.48 1190.61 1254.77 1190.61 1254.77 1191.89 1256.05 1191.89 1256.05 1191.89 1256.05 1191.89 1257.33 1191.89 1257.33 1191.89 1258.62 1191.89 1258.62 1191.89 1258.62 1191.89 1258.62 1191.89 1259.9 1191.89 1261.19 1193.17 1262.47 1193.17 1262.47 1193.17 1262.47 1193.17 1262.47 1193.17 1263.75 1193.17 1263.75 1194.45 1265.04 1194.45 1265.04 1194.45 1265.04 1194.45 1266.32 1194.45 1266.32 1195.73 1267.61 1195.73 1267.61 1195.73 1267.61 1195.73 1268.89 1195.73 1268.89 1197.01 1268.89 1197.01 1270.17 1198.29 1271.46 1198.29 1271.46 1198.29 1271.46 1198.29 1271.46 1199.57 1272.74 1199.57 1274.03 1200.86 1274.03 1200.86 1274.03 1200.86 1274.03 1200.86 1275.31 1202.14 1275.31 1202.14 1276.59 1203.42 1277.88 1204.7 1277.88 1204.7 1277.88 1204.7 1277.88 1204.7 1277.88 1204.7 1279.16 1205.98 1280.45 1207.26 1280.45 1207.26 1280.45 1207.26 1280.45 1208.54 1281.73 1208.54 1281.73 1209.82 1283.01 1211.1 1283.01 1211.1 1283.01 1211.1 1283.01 1211.1 1284.3 1212.38 1285.58 1213.66 1285.58 1214.94 1285.58 1214.94 1285.58 1214.94 1285.58 1214.94 1286.87 1216.22 1288.15 1217.51 1288.15 1218.79 1288.15 1220.07 1289.43 1220.07 1289.43 1220.07 1289.43 1221.35 1290.72 1222.63 1290.72 1223.91 1290.72 1223.91 1292 1223.91 1292 1225.19 1292 1226.47 1293.29 1227.75 1293.29 1229.03 1294.57 1229.03 1294.57 1230.31 1294.57 1230.31 1294.57 1231.59 1295.86 1232.88 1295.86 1234.16 1297.14 1235.44 1297.14 1235.44 1297.14 1235.44 1297.14 1236.72 1298.42 1238 1298.42 1240.56 1304.84 1254.65 1309.98 1271.3 1313.83 1289.23 1318.97 1319.97 1298.42 1354.55 1298.42 1391.69 1298.42 1426.28 1320.25 1458.3 1315.12 1486.47 1303.56 1545.39 1281.73 1586.38 1257.33 1591.5 1257.33 1591.5 1257.33 1591.5 1258.62 1591.5 1265.04 1591.5 1285.58 1583.82 1298.42 1571.01 1317.68 1555.64 1334.38 1521.06 1343.36 1474.95 1348.5 1446.77 1327.96 1413.47 1327.96 1380.17Z" stroke="#735C00" stroke-width="2.86476" stroke-linecap="round" stroke-linejoin="round" stroke-miterlimit="10" fill="none" fill-rule="evenodd"/></g></svg>