<svg width="236" height="433" xmlns="http://www.w3.org/2000/svg" xmlns:xlink="http://www.w3.org/1999/xlink" xml:space="preserve" overflow="hidden"><g transform="translate(-1998 -1786)"><path d="M2207.41 1829.61C2203.53 1820.57 2193.18 1803.79 2175.06 1796.04 2162.12 1789.58 2145.29 1787 2122 1787 2072.82 1787 2044.35 1801.2 2034 1814.12 2037.88 1810.24 2040.47 1808.95 2044.35 1808.95 2070.24 1808.95 2090.94 1900.63 2090.94 2012.98 2090.94 2117.57 2072.82 2204.09 2049.53 2215.71 2049.53 2217 2049.53 2217 2049.53 2217 2063.76 2209.25 2081.88 2205.38 2101.29 2205.38 2123.29 2205.38 2141.41 2210.54 2155.65 2217 2155.65 2217 2155.65 2217 2155.65 2217 2154.35 2217 2154.35 2215.71 2153.06 2215.71 2153.06 2215.71 2153.06 2215.71 2153.06 2215.71 2151.76 2214.42 2151.76 2214.42 2151.76 2214.42 2150.47 2214.42 2150.47 2214.42 2150.47 2214.42 2150.47 2213.13 2149.18 2213.13 2149.18 2211.83 2149.18 2211.83 2149.18 2211.83 2149.18 2211.83 2147.88 2211.83 2147.88 2210.54 2146.59 2209.25 2146.59 2209.25 2146.59 2209.25 2146.59 2209.25 2146.59 2209.25 2145.29 2207.96 2145.29 2206.67 2145.29 2206.67 2145.29 2206.67 2145.29 2206.67 2144 2205.38 2144 2205.38 2142.71 2204.09 2142.71 2204.09 2142.71 2204.09 2142.71 2204.09 2142.71 2202.8 2141.41 2201.5 2141.41 2200.21 2141.41 2200.21 2141.41 2200.21 2141.41 2200.21 2140.12 2198.92 2140.12 2197.63 2138.82 2196.34 2138.82 2196.34 2138.82 2196.34 2138.82 2196.34 2138.82 2195.05 2137.53 2193.76 2137.53 2191.17 2137.53 2191.17 2137.53 2191.17 2137.53 2191.17 2132.35 2180.84 2128.47 2167.93 2125.88 2151.14 2125.88 2151.14 2125.88 2151.14 2125.88 2151.14 2125.88 2149.85 2124.59 2147.27 2124.59 2145.98 2124.59 2144.69 2124.59 2144.69 2124.59 2144.69 2124.59 2142.1 2123.29 2140.81 2123.29 2139.52 2123.29 2138.23 2123.29 2136.94 2123.29 2136.94 2123.29 2135.65 2122 2133.07 2122 2131.77 2122 2130.48 2122 2130.48 2122 2129.19 2122 2127.9 2120.71 2125.32 2120.71 2124.03 2120.71 2122.74 2120.71 2121.44 2120.71 2121.44 2120.71 2118.86 2120.71 2117.57 2119.41 2116.28 2119.41 2114.99 2119.41 2113.7 2119.41 2112.41 2119.41 2111.11 2119.41 2109.82 2119.41 2108.53 2118.12 2107.24 2118.12 2105.95 2118.12 2104.66 2118.12 2102.07 2118.12 2100.78 2118.12 2099.49 2118.12 2098.2 2118.12 2096.91 2116.82 2095.62 2116.82 2094.33 2116.82 2091.74 2116.82 2090.45 2116.82 2089.16 2116.82 2087.87 2116.82 2086.58 2116.82 2085.29 2116.82 2082.71 2116.82 2081.41 2115.53 2080.12 2115.53 2078.83 2115.53 2077.54 2115.53 2074.96 2115.53 2073.67 2115.53 2072.38 2115.53 2071.08 2115.53 2068.5 2115.53 2067.21 2115.53 2065.92 2115.53 2064.63 2115.53 2063.34 2115.53 2060.75 2114.24 2059.46 2114.24 2058.17 2114.24 2056.88 2114.24 2054.3 2114.24 2053.01 2114.24 2051.71 2114.24 2049.13 2114.24 2047.84 2114.24 2046.55 2114.24 2045.26 2114.24 2043.97 2114.24 2041.38 2114.24 2040.09 2114.24 2037.51 2114.24 2036.22 2114.24 2034.93 2114.24 2033.64 2114.24 2031.05 2114.24 2028.47 2114.24 2027.18 2114.24 2025.89 2114.24 2024.6 2114.24 2023.31 2114.24 2019.43 2114.24 2016.85 2114.24 2012.98 2114.24 1900.63 2133.65 1808.95 2159.53 1808.95 2184.12 1808.95 2204.82 1900.63 2204.82 2012.98 2204.82 2122.74 2185.41 2211.83 2162.12 2217 2163.41 2217 2163.41 2217 2163.41 2217 2171.18 2217 2193.18 2204.09 2207.41 2183.43 2221.65 2151.14 2232 2086.58 2232 2005.23 2232 1923.88 2222.94 1863.19 2207.41 1829.61Z" fill="#FE4B5A" fill-rule="evenodd"/><path d="M2152.99 2215.71C2151.7 2214.42 2151.7 2214.42 2151.7 2214.42 2150.41 2214.42 2150.41 2214.42 2150.41 2214.42 2150.41 2213.13 2149.13 2213.13 2149.13 2211.83 2149.13 2211.83 2149.13 2211.83 2149.13 2211.83 2147.84 2211.83 2147.84 2210.54 2146.55 2209.25 2146.55 2209.25 2146.55 2209.25 2146.55 2209.25 2146.55 2209.25 2145.26 2207.96 2145.26 2206.67 2145.26 2206.67 2145.26 2206.67 2145.26 2206.67 2143.98 2205.38 2143.98 2205.38 2142.69 2204.09 2142.69 2204.09 2142.69 2204.09 2142.69 2204.09 2142.69 2202.79 2141.4 2201.5 2141.4 2200.21 2141.4 2200.21 2141.4 2200.21 2141.4 2200.21 2140.11 2198.92 2140.11 2197.63 2138.83 2196.34 2138.83 2196.34 2138.83 2196.34 2138.83 2196.34 2138.83 2195.05 2137.54 2193.75 2137.54 2191.17 2137.54 2191.17 2137.54 2191.17 2137.54 2191.17 2132.39 2180.84 2128.53 2167.93 2125.95 2151.14 2125.95 2151.14 2125.95 2151.14 2125.95 2151.14 2125.95 2149.85 2124.67 2147.26 2124.67 2145.97 2124.67 2144.68 2124.67 2144.68 2124.67 2144.68 2124.67 2142.1 2123.38 2140.81 2123.38 2139.52 2123.38 2138.22 2123.38 2136.93 2123.38 2136.93 2123.38 2135.64 2122.09 2133.06 2122.09 2131.77 2122.09 2130.48 2122.09 2130.48 2122.09 2129.18 2122.09 2127.89 2120.8 2125.31 2120.8 2124.02 2120.8 2122.73 2120.8 2121.44 2120.8 2121.44 2120.8 2118.85 2120.8 2117.56 2119.52 2116.27 2119.52 2114.98 2119.52 2113.69 2119.52 2112.4 2119.52 2111.1 2119.52 2109.81 2119.52 2108.52 2118.23 2107.23 2118.23 2105.94 2118.23 2104.65 2118.23 2102.06 2118.23 2100.77 2118.23 2099.48 2118.23 2098.19 2118.23 2096.9 2116.94 2095.61 2116.94 2094.32 2116.94 2091.73 2116.94 2090.44 2116.94 2089.15 2116.94 2087.86 2116.94 2086.57 2116.94 2085.28 2116.94 2082.69 2116.94 2081.4 2115.66 2080.11 2115.66 2078.82 2115.66 2077.53 2115.66 2074.94 2115.66 2073.65 2115.66 2072.36 2115.66 2071.07 2115.66 2068.49 2115.66 2067.2 2115.66 2065.9 2115.66 2064.61 2115.66 2063.32 2115.66 2060.74 2114.37 2059.45 2114.37 2058.16 2114.37 2056.86 2114.37 2054.28 2114.37 2052.99 2114.37 2051.7 2114.37 2049.12 2114.37 2047.83 2114.37 2046.53 2114.37 2045.24 2114.37 2043.95 2114.37 2041.37 2114.37 2040.08 2114.37 2037.49 2114.37 2036.2 2114.37 2034.91 2114.37 2033.62 2114.37 2031.04 2114.37 2028.45 2114.37 2027.16 2114.37 2025.87 2114.37 2024.58 2114.37 2023.29 2114.37 2019.41 2114.37 2016.83 2114.37 2012.96 2114.37 1916.1 2128.53 1834.74 2149.13 1814.08 2149.13 1812.79 2149.13 1812.79 2149.13 1812.79 2162 1801.17 2125.95 1796 2106.64 1798.58 2077.03 1801.17 2062.87 1812.79 2062.87 1823.12 2062.87 1824.41 2062.87 1824.41 2062.87 1824.41 2078.32 1854.11 2091.2 1927.72 2091.2 2012.96 2091.2 2117.56 2073.17 2204.09 2050 2215.71 2050 2217 2050 2217 2050 2217 2064.16 2209.25 2082.18 2205.38 2101.49 2205.38 2123.38 2205.38 2141.4 2210.54 2155.56 2217 2155.56 2217 2155.56 2217 2155.56 2217 2154.28 2217 2154.28 2215.71 2152.99 2215.71 2152.99 2215.71 2152.99 2215.71 2152.99 2215.71Z" fill="#FF3A03" fill-rule="evenodd"/><path d="M2152.99 2215.71C2151.7 2214.42 2151.7 2214.42 2151.7 2214.42 2150.41 2214.42 2150.41 2214.42 2150.41 2214.42 2150.41 2213.13 2149.13 2213.13 2149.13 2211.83 2149.13 2211.83 2149.13 2211.83 2149.13 2211.83 2147.84 2211.83 2147.84 2210.54 2146.55 2209.25 2146.55 2209.25 2146.55 2209.25 2146.55 2209.25 2146.55 2209.25 2145.26 2207.96 2145.26 2206.67 2145.26 2206.67 2145.26 2206.67 2145.26 2206.67 2143.98 2205.38 2143.98 2205.38 2142.69 2204.09 2142.69 2204.09 2142.69 2204.09 2142.69 2204.09 2142.69 2202.79 2141.4 2201.5 2141.4 2200.21 2141.4 2200.21 2141.4 2200.21 2141.4 2200.21 2140.11 2198.92 2140.11 2197.63 2138.83 2196.34 2138.83 2196.34 2138.83 2196.34 2138.83 2196.34 2138.83 2195.05 2137.54 2193.75 2137.54 2191.17 2137.54 2191.17 2137.54 2191.17 2137.54 2191.17 2132.39 2180.84 2128.53 2167.93 2125.95 2151.14 2125.95 2151.14 2125.95 2151.14 2125.95 2151.14 2125.95 2149.85 2124.67 2147.26 2124.67 2145.97 2124.67 2144.68 2124.67 2144.68 2124.67 2144.68 2124.67 2142.1 2123.38 2140.81 2123.38 2139.52 2123.38 2138.22 2123.38 2136.93 2123.38 2136.93 2123.38 2135.64 2122.09 2133.06 2122.09 2131.77 2122.09 2130.48 2122.09 2130.48 2122.09 2129.18 2122.09 2127.89 2120.8 2125.31 2120.8 2124.02 2120.8 2122.73 2120.8 2121.44 2120.8 2121.44 2120.8 2118.85 2120.8 2117.56 2119.52 2116.27 2119.52 2114.98 2119.52 2113.69 2119.52 2112.4 2119.52 2111.1 2119.52 2109.81 2119.52 2108.52 2118.23 2107.23 2118.23 2105.94 2118.23 2104.65 2118.23 2102.06 2118.23 2100.77 2118.23 2099.48 2118.23 2098.19 2118.23 2096.9 2116.94 2095.61 2116.94 2094.32 2116.94 2091.73 2116.94 2090.44 2116.94 2089.15 2116.94 2087.86 2116.94 2086.57 2116.94 2085.28 2116.94 2082.69 2116.94 2081.4 2115.66 2080.11 2115.66 2078.82 2115.66 2077.53 2115.66 2074.94 2115.66 2073.65 2115.66 2072.36 2115.66 2071.07 2115.66 2068.49 2115.66 2067.2 2115.66 2065.9 2115.66 2064.61 2115.66 2063.32 2115.66 2060.74 2114.37 2059.45 2114.37 2058.16 2114.37 2056.86 2114.37 2054.28 2114.37 2052.99 2114.37 2051.7 2114.37 2049.12 2114.37 2047.83 2114.37 2046.53 2114.37 2045.24 2114.37 2043.95 2114.37 2041.37 2114.37 2040.08 2114.37 2037.49 2114.37 2036.2 2114.37 2034.91 2114.37 2033.62 2114.37 2031.04 2114.37 2028.45 2114.37 2027.16 2114.37 2025.87 2114.37 2024.58 2114.37 2023.29 2114.37 2019.41 2114.37 2016.83 2114.37 2012.96 2114.37 1916.1 2128.53 1834.74 2149.13 1814.08 2149.13 1812.79 2149.13 1812.79 2149.13 1812.79 2162 1801.17 2125.95 1796 2106.64 1798.58 2077.03 1801.17 2062.87 1812.79 2062.87 1823.12 2062.87 1824.41 2062.87 1824.41 2062.87 1824.41 2078.32 1854.11 2091.2 1927.72 2091.2 2012.96 2091.2 2117.56 2073.17 2204.09 2050 2215.71 2050 2217 2050 2217 2050 2217 2064.16 2209.25 2082.18 2205.38 2101.49 2205.38 2123.38 2205.38 2141.4 2210.54 2155.56 2217 2155.56 2217 2155.56 2217 2155.56 2217 2154.28 2217 2154.28 2215.71 2152.99 2215.71 2152.99 2215.71 2152.99 2215.71 2152.99 2215.71ZM2101.49 1943.22C2098.92 1904.48 2093.77 1870.9 2086.05 1845.07 2083.47 1834.74 2079.61 1815.37 2095.06 1811.5 2098.92 1811.5 2102.78 1811.5 2107.93 1810.21 2114.37 1810.21 2122.09 1808.91 2128.53 1810.21 2133.68 1810.21 2133.68 1815.37 2132.39 1817.95 2116.94 1845.07 2106.64 1885.11 2102.78 1939.35 2101.49 1960.01 2102.78 1962.59 2101.49 1943.22Z" fill="#FF1C00" fill-rule="evenodd"/><path d="M1999 2013C1999 1900.33 2021.61 1809 2049.5 1809 2077.39 1809 2100 1900.33 2100 2013 2100 2125.67 2077.39 2217 2049.5 2217 2021.61 2217 1999 2125.67 1999 2013Z" fill="#FF5280" fill-rule="evenodd"/><path d="M2104 2013C2104 1900.33 2126.39 1809 2154 1809 2181.61 1809 2204 1900.33 2204 2013 2204 2125.67 2181.61 2217 2154 2217 2126.39 2217 2104 2125.67 2104 2013Z" fill="#FF5280" fill-rule="evenodd"/><path d="M2062.87 1825C2070.54 1862.39 2079.49 1920.42 2079.49 1975.87 2079.49 2088.05 2055.2 2170.58 2029.62 2170.58 2024.51 2170.58 2018.11 2165.42 2013 2155.11 2020.67 2193.79 2032.18 2217 2044.97 2217 2070.54 2217 2091 2126.74 2091 2013.26 2091 1929.45 2079.49 1855.95 2062.87 1825Z" fill="#FE494E" fill-rule="evenodd"/><path d="M2057.56 1818C2073.05 1851.57 2087.25 1926.47 2087.25 2006.52 2087.25 2118.86 2065.31 2209.25 2040.78 2209.25 2035.62 2209.25 2029.16 2201.5 2024 2196.34 2030.45 2210.54 2038.2 2217 2044.65 2217 2070.47 2217 2095 2131.78 2095 2019.44 2095 1926.47 2076.93 1842.53 2057.56 1818Z" fill="#FFFFFF" fill-rule="evenodd"/><path d="M2017.54 2147.31C2011.13 2111.17 2014.97 2063.41 2014.97 2011.78 2014.97 1908.52 2027.79 1815.58 2050.87 1815.58 2050.87 1815.58 2056 1819.45 2056 1820.74 2053.44 1815.58 2049.59 1813 2045.74 1813 2022.67 1813 2006 1902.06 2006 2005.33 2006 2063.41 2009.85 2115.04 2016.26 2151.18 2022.67 2177 2020.1 2170.55 2017.54 2147.31Z" fill="#FFFFFF" fill-rule="evenodd"/><path d="M2105 1810.2C2118.04 1808.9 2135 1805 2135 1812.8 2135 1821.9 2121.96 1834.9 2118.04 1857 2120.65 1834.9 2131.09 1816.7 2128.48 1814.1 2124.57 1808.9 2106.3 1811.5 2105 1810.2Z" fill="#FFFFFF" fill-rule="evenodd"/><path d="M2177.71 1825C2185.43 1862.39 2190.57 1911.39 2190.57 1966.84 2190.57 2080.32 2171.29 2178.32 2145.57 2178.32 2139.14 2178.32 2130.14 2169.29 2125 2158.97 2134 2197.66 2146.86 2217 2159.71 2217 2185.43 2217 2206 2126.74 2206 2013.26 2206 1929.45 2194.43 1855.95 2177.71 1825Z" fill="#FE494E" fill-rule="evenodd"/><path d="M2173.65 1818C2187.88 1851.57 2198.24 1920.01 2198.24 2001.36 2198.24 2113.7 2180.12 2209.25 2155.53 2209.25 2150.35 2209.25 2143.88 2201.5 2140 2196.34 2145.18 2210.54 2152.94 2217 2159.41 2217 2185.29 2217 2206 2126.61 2206 2012.98 2206 1921.3 2191.76 1842.53 2173.65 1818Z" fill="#FFFFFF" fill-rule="evenodd"/><path d="M2124.5 2147.05C2119.33 2112.22 2118.04 2068.37 2118.04 2016.78 2118.04 1913.6 2142.58 1815.58 2165.83 1815.58 2167.13 1815.58 2171 1819.45 2171 1820.74 2168.42 1815.58 2164.54 1813 2160.67 1813 2137.42 1813 2109 1907.15 2109 2010.33 2109 2068.37 2116.75 2116.09 2124.5 2152.2 2129.67 2178 2128.38 2171.55 2124.5 2147.05Z" fill="#FFFFFF" fill-rule="evenodd"/><path d="M2174 1818C2174 1818 2174 1818 2174 1818 2191.82 1843.84 2204.55 1921.38 2204.55 2013.12 2204.55 2100.99 2193.09 2174.65 2176.55 2204.37 2176.55 2216 2176.55 2216 2176.55 2216 2198.18 2204.37 2216 2117.79 2216 2013.12 2216 1927.84 2207.09 1858.06 2174 1818Z" fill="#FF3A03" fill-rule="evenodd"/><path d="M2097 2106.85C2099.75 2095.26 2103.87 2102.99 2105.25 2106.85 2108 2112 2105.25 2070.79 2105.25 2070.79 2103.87 2029.59 2103.87 2029.59 2103.87 2029.59 2102.5 2018 2102.5 2018 2102.5 2018" fill="#FF1C00" fill-rule="evenodd"/><path d="M2120 2190C2112.22 2186.09 2092.78 2187.39 2085 2190 2088.89 2182.17 2100.56 2145.65 2100.56 2130 2101.85 2143.04 2110.93 2183.48 2120 2190Z" fill="#FF3A03" fill-rule="evenodd"/><path d="M1999.5 2013.5C1999.5 1900.83 2022.11 1809.5 2050 1809.5 2077.89 1809.5 2100.5 1900.83 2100.5 2013.5 2100.5 2126.17 2077.89 2217.5 2050 2217.5 2022.11 2217.5 1999.5 2126.17 1999.5 2013.5Z" stroke="#330000" stroke-width="2.86476" stroke-linecap="round" stroke-linejoin="round" stroke-miterlimit="10" fill="none" fill-rule="evenodd"/><path d="M2104.5 2013.5C2104.5 1900.83 2126.89 1809.5 2154.5 1809.5 2182.11 1809.5 2204.5 1900.83 2204.5 2013.5 2204.5 2126.17 2182.11 2217.5 2154.5 2217.5 2126.89 2217.5 2104.5 2126.17 2104.5 2013.5Z" stroke="#330000" stroke-width="2.86476" stroke-linecap="round" stroke-linejoin="round" stroke-miterlimit="10" fill="none" fill-rule="evenodd"/><path d="M2050.5 2217.5C2064.72 2209.5 2082.82 2205.5 2102.21 2205.5 2124.18 2205.5 2142.28 2210.83 2156.5 2217.5" stroke="#330000" stroke-width="2.86476" stroke-linecap="round" stroke-linejoin="round" stroke-miterlimit="10" fill="none" fill-rule="evenodd"/><path d="M2149.64 1813.83C2162.5 1801.83 2126.5 1796.5 2107.21 1799.17 2077.64 1801.83 2063.5 1813.83 2063.5 1824.5" stroke="#330000" stroke-width="2.86476" stroke-linecap="round" stroke-linejoin="round" stroke-miterlimit="10" fill="none" fill-rule="evenodd"/><path d="M2232.5 2005.5C2232.5 1924.23 2223.44 1863.61 2207.91 1830.07 2204.03 1821.04 2193.68 1804.27 2175.56 1796.53 2162.62 1790.08 2145.79 1787.5 2122.5 1787.5 2073.32 1787.5 2044.85 1801.69 2034.5 1814.59" stroke="#330000" stroke-width="2.86476" stroke-linecap="round" stroke-linejoin="round" stroke-miterlimit="10" fill="none" fill-rule="evenodd"/><path d="M2163.5 2217.5C2171.31 2217.5 2193.44 2204.57 2207.76 2183.89 2222.08 2151.57 2232.5 2086.94 2232.5 2005.5" stroke="#330000" stroke-width="2.86476" stroke-linecap="round" stroke-linejoin="round" stroke-miterlimit="10" fill="none" fill-rule="evenodd"/><path d="M2050.5 2217.5C2064.72 2209.5 2082.82 2205.5 2102.21 2205.5 2124.18 2205.5 2142.28 2210.83 2156.5 2217.5" stroke="#330000" stroke-width="2.86476" stroke-linecap="round" stroke-linejoin="round" stroke-miterlimit="10" fill="none" fill-rule="evenodd"/></g></svg>