<svg width="254" height="400" xmlns="http://www.w3.org/2000/svg" xmlns:xlink="http://www.w3.org/1999/xlink" xml:space="preserve" overflow="hidden"><g transform="translate(-1899 -760)"><path d="M2053.16 1137.24C2053.16 783.056 2053.16 783.056 2053.16 783.056 2053.16 783.056 2053.16 783.056 2053.16 783.056 2053.16 776.569 2059.63 772.677 2070 768.784 2058.34 764.892 2042.79 761 2024.65 761 2006.51 761 1989.66 763.595 1978 768.784 1989.66 771.379 1996.14 776.569 1996.14 783.056 1996.14 783.056 1996.14 783.056 1996.14 783.056 1996.14 1137.24 1996.14 1137.24 1996.14 1137.24 1996.14 1142.43 1989.66 1147.62 1978 1151.51 1989.66 1155.41 2006.51 1158 2024.65 1158 2042.79 1158 2058.34 1155.41 2070 1151.51 2059.63 1147.62 2053.16 1142.43 2053.16 1137.24Z" fill="#7AB6C5" fill-rule="evenodd"/><path d="M2053.16 1137.24C2053.16 783.056 2053.16 783.056 2053.16 783.056 2053.16 776.569 2059.63 772.677 2070 768.784 2058.34 764.892 2042.79 761 2024.65 761 2006.51 761 1989.66 763.595 1978 768.784 1989.66 771.379 1996.14 776.569 1996.14 783.056 1996.14 1137.24 1996.14 1137.24 1996.14 1137.24 1996.14 1142.43 1989.66 1147.62 1978 1151.51 1989.66 1155.41 2006.51 1158 2024.65 1158 2042.79 1158 2058.34 1155.41 2070 1151.51 2059.63 1147.62 2053.16 1142.43 2053.16 1137.24ZM2038.9 1147.62C2033.72 1148.92 2028.54 1148.92 2024.65 1148.92 2019.46 1148.92 2015.58 1148.92 2011.69 1148.92 2005.21 1147.62 2005.21 1139.84 2005.21 1137.24 2005.21 783.056 2005.21 783.056 2005.21 783.056 2005.21 781.758 2005.21 779.163 2003.92 777.866 2003.92 776.569 2006.51 771.379 2009.1 771.379 2014.28 771.379 2019.46 771.379 2024.65 771.379 2029.83 771.379 2035.01 771.379 2040.2 771.379 2042.79 771.379 2045.38 776.569 2045.38 777.866 2044.08 779.163 2044.08 781.758 2044.08 783.056 2044.08 1137.24 2044.08 1137.24 2044.08 1137.24 2044.08 1139.84 2044.08 1147.62 2038.9 1147.62Z" fill="#4698AC" fill-rule="evenodd"/><path d="M2053.65 1137.74C2053.65 783.555 2053.65 783.555 2053.65 783.555 2053.65 783.555 2053.65 783.555 2053.65 783.555 2053.65 777.068 2060.13 773.176 2070.5 769.284 2058.84 765.392 2043.29 761.5 2025.15 761.5 2007.01 761.5 1990.16 764.095 1978.5 769.284 1990.16 771.879 1996.64 777.068 1996.64 783.555 1996.64 783.555 1996.64 783.555 1996.64 783.555 1996.64 1137.74 1996.64 1137.74 1996.64 1137.74 1996.64 1142.93 1990.16 1148.12 1978.5 1152.01 1990.16 1155.91 2007.01 1158.5 2025.15 1158.5 2043.29 1158.5 2058.84 1155.91 2070.5 1152.01 2060.13 1148.12 2053.65 1142.93 2053.65 1137.74Z" stroke="#333333" stroke-width="2.86476" stroke-linecap="round" stroke-linejoin="round" stroke-miterlimit="10" fill="none" fill-rule="evenodd"/><path d="M2151 783.056C2151 771.379 2122.42 761 2087.35 761 2052.28 761 2025 771.379 2025 783.056 2025 783.056 2025 783.056 2025 783.056 2025 1137.24 2025 1137.24 2025 1137.24 2025 1148.92 2052.28 1158 2087.35 1158 2122.42 1158 2151 1148.92 2151 1137.24 2151 783.056 2151 783.056 2151 783.056Z" fill="#C6E2E8" fill-rule="evenodd"/><path d="M2031.3 1133.24C2044.29 792.882 2044.29 792.882 2044.29 792.882 2044.29 781.235 2072.86 772.176 2106.63 772.176 2120.92 772.176 2132.61 776.059 2143 777.353 2131.31 772.176 2114.43 767 2093.64 767 2058.57 767 2030 777.353 2030 789 2030 1134.53 2030 1134.53 2030 1134.53 2030 1141 2031.3 1137.12 2031.3 1133.24Z" fill="#FFFFFF" fill-rule="evenodd"/><path d="M2140.4 785.792C2128.71 1127.33 2128.71 1127.33 2128.71 1127.33 2128.71 1139.01 2100.14 1148.1 2065.07 1148.1 2052.08 1148.1 2040.39 1144.21 2030 1141.61 2041.69 1146.81 2058.57 1152 2079.36 1152 2114.43 1152 2143 1142.91 2143 1131.22 2143 784.493 2143 784.493 2143 784.493 2143 778 2140.4 781.896 2140.4 785.792Z" fill="#9FCDD8" fill-rule="evenodd"/><path d="M2142.72 785C2140.16 1131.25 2140.16 1131.25 2140.16 1131.25 2140.16 1140.33 2115.84 1152 2080 1152 2080 1152 2080 1152 2080 1152 2110.72 1152 2144 1146.81 2144 1131.25 2142.72 785 2142.72 785 2142.72 785Z" fill="#FFFFFF" fill-rule="evenodd"/><path d="M2151.5 783.555C2151.5 771.879 2122.92 761.5 2087.85 761.5 2052.78 761.5 2025.5 771.879 2025.5 783.555 2025.5 783.555 2025.5 783.555 2025.5 783.555 2025.5 1137.74 2025.5 1137.74 2025.5 1137.74 2025.5 1149.42 2052.78 1158.5 2087.85 1158.5 2122.92 1158.5 2151.5 1149.42 2151.5 1137.74 2151.5 783.555 2151.5 783.555 2151.5 783.555Z" stroke="#333333" stroke-width="2.86476" stroke-linecap="round" stroke-linejoin="round" stroke-miterlimit="10" fill="none" fill-rule="evenodd"/><path d="M1900 783.056C1900 771.379 1928.58 761 1963.65 761 1997.42 761 2026 771.379 2026 783.056 2026 783.056 2026 783.056 2026 783.056 2026 1137.24 2026 1137.24 2026 1137.24 2026 1148.92 1997.42 1158 1963.65 1158 1928.58 1158 1900 1148.92 1900 1137.24 1900 783.056 1900 783.056 1900 783.056Z" fill="#C6E2E8" fill-rule="evenodd"/><path d="M1908.3 1133.24C1921.33 792.882 1921.33 792.882 1921.33 792.882 1921.33 781.235 1948.67 772.176 1983.84 772.176 1998.16 772.176 2008.58 776.059 2019 777.353 2008.58 772.176 1991.65 767 1969.51 767 1935.65 767 1907 777.353 1907 789 1907 1134.53 1907 1134.53 1907 1134.53 1907 1141 1908.3 1137.12 1908.3 1133.24Z" fill="#FFFFFF" fill-rule="evenodd"/><path d="M2017.7 785.792C2005.98 1127.33 2005.98 1127.33 2005.98 1127.33 2005.98 1139.01 1977.33 1148.1 1942.16 1148.1 1927.84 1148.1 1917.42 1144.21 1907 1141.61 1918.72 1146.81 1935.65 1152 1956.49 1152 1991.65 1152 2019 1142.91 2019 1131.22 2019 784.493 2019 784.493 2019 784.493 2019 778 2017.7 781.896 2017.7 785.792Z" fill="#9FCDD8" fill-rule="evenodd"/><path d="M2018.4 785C2017.1 1131.25 2017.1 1131.25 2017.1 1131.25 2017.1 1140.33 1991.1 1152 1956 1152 1956 1152 1956 1152 1956 1152 1987.2 1152 2021 1146.81 2021 1131.25 2018.4 785 2018.4 785 2018.4 785Z" fill="#FFFFFF" fill-rule="evenodd"/><path d="M1900.5 783.555C1900.5 771.879 1929.08 761.5 1964.15 761.5 1997.92 761.5 2026.5 771.879 2026.5 783.555 2026.5 783.555 2026.5 783.555 2026.5 783.555 2026.5 1137.74 2026.5 1137.74 2026.5 1137.74 2026.5 1149.42 1997.92 1158.5 1964.15 1158.5 1929.08 1158.5 1900.5 1149.42 1900.5 1137.74 1900.5 783.555 1900.5 783.555 1900.5 783.555Z" stroke="#333333" stroke-width="2.86476" stroke-linecap="round" stroke-linejoin="round" stroke-miterlimit="10" fill="none" fill-rule="evenodd"/></g></svg>