<svg width="255" height="437" xmlns="http://www.w3.org/2000/svg" xmlns:xlink="http://www.w3.org/1999/xlink" xml:space="preserve" overflow="hidden"><g transform="translate(-755 -723)"><path d="M829 744.5C829 733.178 857.206 724 892 724 926.794 724 955 733.178 955 744.5 955 755.822 926.794 765 892 765 857.206 765 829 755.822 829 744.5Z" fill="#D4E9EE" fill-rule="evenodd"/><path d="M908.237 782.823C908.237 773.765 927.722 766 955 763.412 955 744 955 744 955 744 955 755.647 926.423 764.706 892.65 764.706 857.577 764.706 829 755.647 829 744 829 767.294 829 767.294 829 767.294 841.99 771.176 851.083 776.353 851.083 782.823 851.083 1112.82 851.083 1112.82 851.083 1112.82 861.474 1116.71 875.763 1118 892.65 1118 897.845 1118 903.041 1118 908.237 1118L908.237 782.823Z" fill="#7AB6C5" fill-rule="evenodd"/><path d="M955 763.412C955 744 955 744 955 744 955 755.647 926.423 764.706 892.65 764.706 857.577 764.706 829 755.647 829 744 829 767.294 829 767.294 829 767.294 841.99 771.176 851.083 776.353 851.083 782.823 851.083 1112.82 851.083 1112.82 851.083 1112.82 861.474 1116.71 875.763 1118 892.65 1118 897.845 1118 903.041 1118 908.237 1118 908.237 782.823 908.237 782.823 908.237 782.823 908.237 773.765 927.722 766 955 763.412ZM899.144 782.823C899.144 782.823 899.144 1092.12 899.144 1108.94 895.247 1108.94 892.65 1108.94 892.65 1108.94 880.959 1108.94 869.268 1107.65 860.175 1105.06 860.175 1092.12 860.175 782.823 860.175 782.823 860.175 778.941 858.876 775.059 853.68 769.882 865.371 772.47 878.361 773.765 892.65 773.765 895.247 773.765 899.144 773.765 903.041 773.765 900.443 776.353 899.144 780.235 899.144 782.823Z" fill="#4698AC" fill-rule="evenodd"/><path d="M829.5 745C829.5 733.678 857.706 724.5 892.5 724.5 927.294 724.5 955.5 733.678 955.5 745 955.5 756.322 927.294 765.5 892.5 765.5 857.706 765.5 829.5 756.322 829.5 745Z" stroke="#333333" stroke-width="2.86476" stroke-linecap="round" stroke-linejoin="round" stroke-miterlimit="10" fill="none" fill-rule="evenodd"/><path d="M908.737 783.324C908.737 774.265 928.222 766.5 955.5 763.912 955.5 744.5 955.5 744.5 955.5 744.5 955.5 756.147 926.923 765.206 893.15 765.206 858.077 765.206 829.5 756.147 829.5 744.5 829.5 767.794 829.5 767.794 829.5 767.794 842.49 771.677 851.582 776.853 851.582 783.324 851.582 1113.32 851.582 1113.32 851.582 1113.32 861.974 1117.21 876.263 1118.5 893.15 1118.5 898.345 1118.5 903.541 1118.5 908.737 1118.5L908.737 783.324Z" stroke="#333333" stroke-width="2.86476" stroke-linecap="round" stroke-linejoin="round" stroke-miterlimit="10" fill="none" fill-rule="evenodd"/><path d="M883 783.5C883 771.626 910.982 762 945.5 762 980.018 762 1008 771.626 1008 783.5 1008 795.374 980.018 805 945.5 805 910.982 805 883 795.374 883 783.5Z" fill="#D4E9EE" fill-rule="evenodd"/><path d="M883 1137.31C883 1147.66 910.062 1158 944.856 1158 979.649 1158 1008 1147.66 1008 1137.31 1008 783 1008 783 1008 783 1008 794.638 979.649 804.983 944.856 804.983 910.062 804.983 883 794.638 883 783L883 1137.31Z" fill="#C6E2E8" fill-rule="evenodd"/><path d="M887.304 799C887.304 799 886 800.292 886 800.292 886 1100 886 1100 886 1100 886 1100 886 1100 886 1100 886 1100 889.913 894.596 891.217 826.129 891.217 814.502 899.043 808.043 904.261 809.335 916 810.626 930.348 810.626 946 810.626 946 810.626 946 810.626 946 810.626 922.522 810.626 900.348 805.459 889.913 799 889.913 799 888.609 799 887.304 799Z" fill="#FFFFFF" fill-rule="evenodd"/><path d="M999.713 812.762C986.839 1127.13 986.839 1127.13 986.839 1127.13 986.839 1138.77 958.517 1147.83 923.759 1147.83 910.885 1147.83 899.299 1143.94 889 1141.36 900.586 1147.83 917.322 1153 937.919 1153 972.678 1153 1001 1142.65 1001 1131.01 1001 811.468 1001 811.468 1001 811.468 1001 805 999.713 808.881 999.713 812.762Z" fill="#9FCDD8" fill-rule="evenodd"/><path d="M1001.41 812C998.824 1131.04 998.824 1131.04 998.824 1131.04 998.824 1140.08 974.235 1153 938 1153 938 1153 938 1153 938 1153 970.353 1153 1004 1146.54 1004 1131.04 1001.41 812 1001.41 812 1001.41 812Z" fill="#FFFFFF" fill-rule="evenodd"/><path d="M883.5 784C883.5 772.126 911.482 762.5 946 762.5 980.518 762.5 1008.5 772.126 1008.5 784 1008.5 795.874 980.518 805.5 946 805.5 911.482 805.5 883.5 795.874 883.5 784Z" stroke="#333333" stroke-width="2.86476" stroke-linecap="round" stroke-linejoin="round" stroke-miterlimit="10" fill="none" fill-rule="evenodd"/><path d="M883.5 1137.81C883.5 1148.16 910.562 1158.5 945.356 1158.5 980.15 1158.5 1008.5 1148.16 1008.5 1137.81 1008.5 783.5 1008.5 783.5 1008.5 783.5 1008.5 795.138 980.15 805.483 945.356 805.483 910.562 805.483 883.5 795.138 883.5 783.5L883.5 1137.81Z" stroke="#333333" stroke-width="2.86476" stroke-linecap="round" stroke-linejoin="round" stroke-miterlimit="10" fill="none" fill-rule="evenodd"/><path d="M756 783.5C756 771.626 783.982 762 818.5 762 853.018 762 881 771.626 881 783.5 881 795.374 853.018 805 818.5 805 783.982 805 756 795.374 756 783.5Z" fill="#D4E9EE" fill-rule="evenodd"/><path d="M756 1137.31C756 1147.66 783.062 1158 817.856 1158 852.649 1158 881 1147.66 881 1137.31 881 783 881 783 881 783 881 794.638 852.649 804.983 817.856 804.983 783.062 804.983 756 794.638 756 783L756 1137.31Z" fill="#C6E2E8" fill-rule="evenodd"/><path d="M761.283 799C760 799 760 800.292 760 800.292 760 1100 760 1100 760 1100 760 1100 760 1100 760 1100 760 1100 762.565 894.596 763.848 826.129 763.848 814.502 772.826 808.043 777.957 809.335 788.218 810.626 802.326 810.626 817.718 810.626 819 810.626 819 810.626 819 810.626 794.631 810.626 772.826 805.459 763.848 799 762.565 799 761.283 799 761.283 799Z" fill="#FFFFFF" fill-rule="evenodd"/><path d="M871.709 812.762C860.093 1127.13 860.093 1127.13 860.093 1127.13 860.093 1138.77 831.698 1147.83 796.849 1147.83 782.651 1147.83 772.326 1143.94 762 1141.36 773.616 1147.83 790.396 1153 811.047 1153 845.896 1153 873 1142.65 873 1131.01 873 811.468 873 811.468 873 811.468 873 805 871.709 808.881 871.709 812.762Z" fill="#9FCDD8" fill-rule="evenodd"/><path d="M873.4 812C872.1 1131.04 872.1 1131.04 872.1 1131.04 872.1 1140.08 846.1 1153 811 1153 811 1153 811 1153 811 1153 842.2 1153 876 1146.54 876 1131.04 873.4 812 873.4 812 873.4 812Z" fill="#FFFFFF" fill-rule="evenodd"/><path d="M756.5 784C756.5 772.126 784.482 762.5 819 762.5 853.518 762.5 881.5 772.126 881.5 784 881.5 795.874 853.518 805.5 819 805.5 784.482 805.5 756.5 795.874 756.5 784Z" stroke="#333333" stroke-width="2.86476" stroke-linecap="round" stroke-linejoin="round" stroke-miterlimit="10" fill="none" fill-rule="evenodd"/><path d="M756.5 1137.81C756.5 1148.16 783.562 1158.5 818.356 1158.5 853.149 1158.5 881.5 1148.16 881.5 1137.81 881.5 783.5 881.5 783.5 881.5 783.5 881.5 795.138 853.149 805.483 818.356 805.483 783.562 805.483 756.5 795.138 756.5 783.5L756.5 1137.81Z" stroke="#333333" stroke-width="2.86476" stroke-linecap="round" stroke-linejoin="round" stroke-miterlimit="10" fill="none" fill-rule="evenodd"/></g></svg>