<svg width="286" height="435" xmlns="http://www.w3.org/2000/svg" xmlns:xlink="http://www.w3.org/1999/xlink" xml:space="preserve" overflow="hidden"><g transform="translate(-696 -526)"><path d="M948.621 657.436C955 688.205 934.586 722.82 934.586 760 934.586 794.615 955 826.667 949.896 854.872 938.414 917.692 914.172 960 887.379 960 849.103 960 844 870.256 844 760 844 649.744 849.103 560 887.379 560 914.172 560 935.862 598.461 948.621 657.436Z" fill="#E7A0AB" fill-rule="evenodd"/><path d="M850 759.993C850 846.003 855.2 908.906 869.5 941 869.5 941 869.5 941 869.5 941 855.2 910.19 856.5 846.003 856.5 759.993 856.5 684.253 853.9 598.242 876 570 876 570 876 570 876 570 855.2 596.958 850 661.145 850 759.993Z" fill="#FFFFFF" fill-rule="evenodd"/><path d="M921.185 595.695C928.963 612.367 936.741 632.886 941.926 658.534 945.815 673.924 941.926 691.878 936.741 709.832 932.852 726.504 927.667 743.176 927.667 759.847 927.667 776.519 932.852 791.909 936.741 806.015 941.926 823.97 947.111 839.359 944.519 854.748 940.63 873.985 935.445 890.656 928.963 904.763 921.185 921.435 921.185 924 928.963 909.893 936.741 895.786 944.519 877.832 948.408 854.748 951 839.359 947.111 822.687 941.926 804.733 936.741 790.626 932.852 775.237 932.852 759.847 932.852 743.176 936.741 726.504 940.63 711.115 945.815 691.878 951 673.924 947.111 657.252 941.926 632.886 932.852 612.367 922.482 596.977 917.296 589.283 916 588 921.185 595.695Z" fill="#FFFFFF" fill-rule="evenodd"/><path d="M907 574C920.667 589.382 928.121 621.426 935.576 658.598 939.303 673.979 934.333 691.924 929.364 709.87 925.636 726.533 920.667 743.196 920.667 759.859 920.667 776.522 925.636 791.904 929.364 806.003 934.333 823.948 940.546 841.893 938.061 855.993 930.606 898.292 921.909 929.055 907 947 907 947 907 947 907 947 921.909 929.055 936.818 897.01 944.273 854.711 948 839.33 943.03 822.667 938.061 804.722 933.091 790.622 929.364 775.241 929.364 759.859 929.364 743.196 933.091 726.533 936.818 711.151 941.788 691.924 946.758 673.979 943.03 657.316 935.576 618.863 921.909 590.663 907 574Z" fill="#D97286" fill-rule="evenodd"/><path d="M699.724 657.436C693.287 688.205 713.885 722.82 713.885 760 713.885 794.615 692 826.667 698.437 854.872 710.023 917.692 733.195 960 760.23 960 800.138 960 804 870.256 804 760 804 649.744 800.138 560 760.23 560 734.483 560 711.31 598.461 699.724 657.436Z" fill="#E7A0AB" fill-rule="evenodd"/><path d="M704.128 657.089C700.282 673.768 705.41 691.729 710.538 710.973 714.385 726.368 718.231 743.047 718.231 759.725 718.231 775.12 714.385 790.516 709.256 804.628 704.128 822.589 699 839.267 702.846 854.663 705.41 870.058 711.82 884.17 715.667 897 715.667 897 715.667 897 715.667 897 711.82 884.17 710.538 870.058 706.692 854.663 704.128 839.267 711.82 823.872 716.949 805.911 722.077 791.798 728.487 776.403 728.487 759.725 728.487 743.047 722.077 726.368 718.231 709.69 713.102 691.729 705.41 673.768 707.974 658.372 718.231 613.469 731.051 578.83 749 566 749 566 749 566 749 566 731.051 580.113 713.102 610.903 704.128 657.089Z" fill="#FFFFFF" fill-rule="evenodd"/><path d="M777.085 566C787.338 603.218 789.901 662.254 789.901 730.274 789.901 840.645 784.775 930.482 745.042 930.482 733.507 930.482 721.972 921.499 713 907.381 725.817 940.749 742.479 960 760.423 960 800.155 960 804 870.163 804 759.792 804 667.388 801.437 590.385 777.085 566Z" fill="#DC778C" fill-rule="evenodd"/><path d="M777.167 565.286C801.444 589.714 798.889 678.429 798.889 759.429 798.889 859.714 796.333 960 758 960 758 960 758 960 758 960 800.167 960 804 866.143 804 759.429 804 655.286 798.889 587.143 775.889 564L777.167 565.286Z" fill="#FFFFFF" fill-rule="evenodd"/><path d="M764 960C764 960 765.281 960 766.561 960 765.281 960 764 960 764 960ZM875.393 562.104C876.673 562.104 877.953 560.82 877.953 560.82 877.953 560.82 877.953 560.82 879.234 560.82 901 549.268 862.589 539 826.738 542.851 799.851 546.701 769.122 555.686 780.645 569.805 780.645 569.805 780.645 569.805 780.645 569.805 801.131 598.043 803.692 672.488 803.692 759.768 803.692 863.735 799.851 949.732 766.561 960 803.692 948.448 847.224 949.732 881.794 960 881.794 960 881.794 960 881.794 960 848.505 951.015 843.383 865.018 843.383 759.768 843.383 660.936 847.224 578.79 875.393 562.104Z" fill="#C34A67" fill-rule="evenodd"/><path d="M830 554.158C841.25 552.868 860 549 860 556.737 860 565.763 847.5 574.789 843.75 598 845 578.658 856.25 561.895 853.75 559.316 850 554.158 831.25 555.447 830 554.158Z" fill="#FFFFFF" fill-rule="evenodd"/><path d="M764 960C764 960 765.281 960 766.561 960 765.281 960 764 960 764 960ZM875.393 562.104C876.673 562.104 877.953 560.82 877.953 560.82 877.953 560.82 877.953 560.82 879.234 560.82 901 549.268 862.589 539 826.738 542.851 799.851 546.701 769.122 555.686 780.645 569.805 780.645 569.805 780.645 569.805 780.645 569.805 801.131 598.043 803.692 672.488 803.692 759.768 803.692 863.735 799.851 949.732 766.561 960 803.692 948.448 847.224 949.732 881.794 960 881.794 960 881.794 960 881.794 960 848.505 951.015 843.383 865.018 843.383 759.768 843.383 660.936 847.224 578.79 875.393 562.104ZM860.028 560.82C836.981 587.774 831.86 654.518 831.86 759.768 831.86 847.049 835.701 908.659 849.785 942.031 843.383 940.747 836.981 940.747 829.299 940.747 819.056 939.464 807.533 909.942 810.094 888.122 813.935 854.75 815.215 812.393 815.215 759.768 815.215 666.07 811.374 600.61 793.449 569.805 792.168 568.521 793.449 563.387 796.009 562.104 802.411 559.537 813.935 555.686 828.019 554.402 839.542 553.119 848.505 554.402 857.467 554.402 860.028 554.402 861.308 559.537 860.028 560.82ZM870.271 551.835C870.271 551.835 870.271 551.835 870.271 551.835Z" fill="#AA2C4D" fill-rule="evenodd"/><path d="M963.168 748.06C963.168 710.81 983.716 674.845 977.295 645.302 972.158 618.328 968.305 590.069 940.052 559.241 902.81 518.138 787.232 513 741 565.664 741 565.664 741 565.664 741 565.664 747.421 561.81 753.842 559.241 760.263 559.241 769.253 559.241 775.674 563.095 780.811 569.517 780.811 569.517 780.811 569.517 780.811 569.517 769.253 555.388 800.074 546.396 827.042 542.543 863 538.69 901.526 548.965 879.695 560.526 879.695 560.526 880.979 559.241 880.979 559.241 882.263 559.241 882.263 559.241 882.263 559.241 883.547 559.241 883.547 559.241 884.832 559.241 886.116 559.241 886.116 559.241 887.4 559.241 888.684 559.241 889.968 559.241 891.253 559.241 891.253 559.241 891.253 559.241 891.253 559.241 892.537 559.241 893.821 559.241 893.821 559.241 893.821 559.241 893.821 559.241 895.105 559.241 895.105 560.526 896.389 560.526 897.674 560.526 897.674 560.526 897.674 560.526 897.674 560.526 898.958 560.526 900.242 561.81 900.242 561.81 900.242 561.81 901.526 561.81 901.526 561.81 901.526 563.095 902.81 563.095 904.095 564.379 904.095 564.379 904.095 564.379 904.095 564.379 905.379 564.379 906.663 565.664 906.663 565.664 906.663 565.664 907.947 566.948 907.947 566.948 907.947 566.948 909.232 568.233 909.232 568.233 910.516 568.233 910.516 569.517 910.516 569.517 911.8 569.517 911.8 570.802 913.084 572.086 913.084 572.086 913.084 572.086 913.084 572.086 914.368 573.371 914.368 573.371 915.653 574.655 915.653 574.655 915.653 575.94 916.937 575.94 916.937 577.224 918.221 577.224 918.221 578.509 918.221 578.509 919.505 578.509 919.505 579.793 919.505 579.793 920.789 581.078 922.074 582.362 922.074 583.646 922.074 583.646 922.074 583.646 922.074 584.931 923.358 586.215 924.642 587.5 924.642 587.5 924.642 587.5 924.642 587.5 925.926 588.784 925.926 590.069 927.21 591.353 927.21 591.353 927.21 592.638 927.21 592.638 928.495 593.922 928.495 595.207 929.779 596.491 929.779 597.776 929.779 597.776 929.779 597.776 931.063 599.06 931.063 600.345 932.347 601.629 932.347 601.629 932.347 602.914 932.347 602.914 933.631 604.198 933.631 606.767 934.916 608.052 940.052 622.181 945.189 638.879 949.042 656.862 955.463 687.69 934.916 722.371 934.916 759.621 934.916 794.302 955.463 826.414 950.326 854.672 938.768 913.759 918.221 954.862 892.537 960 893.821 960 893.821 960 893.821 960 901.526 960 920.789 952.293 934.916 939.448 952.895 924.035 970.874 889.354 979.863 843.112 985 814.854 963.168 782.741 963.168 748.06ZM882.263 960C882.263 960 882.263 960 882.263 960 882.263 960 882.263 960 882.263 960Z" fill="#D97286" fill-rule="evenodd"/><path d="M915.564 575C929.667 591.708 943.769 621.268 951.461 658.54 954.026 673.962 948.897 691.955 943.769 709.949 939.923 726.656 936.077 743.364 936.077 760.072 936.077 776.78 939.923 792.203 945.051 806.34 948.897 824.333 956.59 842.327 952.743 856.464 945.051 898.876 928.385 932.292 913 949 913 949 913 949 913 949 929.667 931.007 951.461 897.591 960.436 855.179 963 839.756 957.872 823.048 952.743 805.055 948.897 790.918 943.769 775.495 943.769 760.072 943.769 743.364 948.897 726.656 952.743 711.234 957.872 691.955 961.718 673.962 959.154 657.254 950.179 618.698 930.949 591.708 915.564 575Z" fill="#C3586F" fill-rule="evenodd"/><path d="M948.621 657.436C955 688.205 934.586 722.82 934.586 760 934.586 794.615 955 826.667 949.896 854.872 938.414 917.692 914.172 960 887.379 960 849.103 960 844 870.256 844 760 844 649.744 849.103 560 887.379 560 914.172 560 935.862 598.461 948.621 657.436Z" stroke="#333333" stroke-width="2.29167" stroke-linecap="round" stroke-linejoin="round" stroke-miterlimit="10" fill="none" fill-rule="evenodd"/><path d="M699.724 657.436C693.287 688.205 713.885 722.82 713.885 760 713.885 794.615 692 826.667 698.437 854.872 710.023 917.692 733.195 960 760.23 960 800.138 960 804 870.256 804 760 804 649.744 800.138 560 760.23 560 734.483 560 711.31 598.461 699.724 657.436Z" stroke="#333333" stroke-width="2.29167" stroke-linecap="round" stroke-linejoin="round" stroke-miterlimit="10" fill="none" fill-rule="evenodd"/><path d="M764 960C764 960 765.281 960 766.561 960 765.281 960 764 960 764 960ZM875.393 562.104C876.673 562.104 877.953 560.82 877.953 560.82 877.953 560.82 877.953 560.82 879.234 560.82 901 549.268 862.589 539 826.738 542.851 799.851 546.701 769.122 555.686 780.645 569.805 780.645 569.805 780.645 569.805 780.645 569.805 801.131 598.043 803.692 672.488 803.692 759.768 803.692 863.735 799.851 949.732 766.561 960 803.692 948.448 847.224 949.732 881.794 960 881.794 960 881.794 960 881.794 960 848.505 951.015 843.383 865.018 843.383 759.768 843.383 660.936 847.224 578.79 875.393 562.104Z" stroke="#333333" stroke-width="2.29167" stroke-linecap="round" stroke-linejoin="round" stroke-miterlimit="10" fill="none" fill-rule="evenodd"/><path d="M963.168 748.06C963.168 710.81 983.716 674.845 977.295 645.302 972.158 618.328 968.305 590.069 940.052 559.241 902.81 518.138 787.232 513 741 565.664 741 565.664 741 565.664 741 565.664 747.421 561.81 753.842 559.241 760.263 559.241 769.253 559.241 775.674 563.095 780.811 569.517 780.811 569.517 780.811 569.517 780.811 569.517 769.253 555.388 800.074 546.396 827.042 542.543 863 538.69 901.526 548.965 879.695 560.526 879.695 560.526 880.979 559.241 880.979 559.241 882.263 559.241 882.263 559.241 882.263 559.241 883.547 559.241 883.547 559.241 884.832 559.241 886.116 559.241 886.116 559.241 887.4 559.241 888.684 559.241 889.968 559.241 891.253 559.241 891.253 559.241 891.253 559.241 891.253 559.241 892.537 559.241 893.821 559.241 893.821 559.241 893.821 559.241 893.821 559.241 895.105 559.241 895.105 560.526 896.389 560.526 897.674 560.526 897.674 560.526 897.674 560.526 897.674 560.526 898.958 560.526 900.242 561.81 900.242 561.81 900.242 561.81 901.526 561.81 901.526 561.81 901.526 563.095 902.81 563.095 904.095 564.379 904.095 564.379 904.095 564.379 904.095 564.379 905.379 564.379 906.663 565.664 906.663 565.664 906.663 565.664 907.947 566.948 907.947 566.948 907.947 566.948 909.232 568.233 909.232 568.233 910.516 568.233 910.516 569.517 910.516 569.517 911.8 569.517 911.8 570.802 913.084 572.086 913.084 572.086 913.084 572.086 913.084 572.086 914.368 573.371 914.368 573.371 915.653 574.655 915.653 574.655 915.653 575.94 916.937 575.94 916.937 577.224 918.221 577.224 918.221 578.509 918.221 578.509 919.505 578.509 919.505 579.793 919.505 579.793 920.789 581.078 922.074 582.362 922.074 583.646 922.074 583.646 922.074 583.646 922.074 584.931 923.358 586.215 924.642 587.5 924.642 587.5 924.642 587.5 924.642 587.5 925.926 588.784 925.926 590.069 927.21 591.353 927.21 591.353 927.21 592.638 927.21 592.638 928.495 593.922 928.495 595.207 929.779 596.491 929.779 597.776 929.779 597.776 929.779 597.776 931.063 599.06 931.063 600.345 932.347 601.629 932.347 601.629 932.347 602.914 932.347 602.914 933.631 604.198 933.631 606.767 934.916 608.052 940.052 622.181 945.189 638.879 949.042 656.862 955.463 687.69 934.916 722.371 934.916 759.621 934.916 794.302 955.463 826.414 950.326 854.672 938.768 913.759 918.221 954.862 892.537 960 893.821 960 893.821 960 893.821 960 901.526 960 920.789 952.293 934.916 939.448 952.895 924.035 970.874 889.354 979.863 843.112 985 814.854 963.168 782.741 963.168 748.06ZM882.263 960C882.263 960 882.263 960 882.263 960 882.263 960 882.263 960 882.263 960Z" stroke="#333333" stroke-width="2.29167" stroke-linecap="round" stroke-linejoin="round" stroke-miterlimit="10" fill="none" fill-rule="evenodd"/></g></svg>