<svg width="235" height="433" xmlns="http://www.w3.org/2000/svg" xmlns:xlink="http://www.w3.org/1999/xlink" xml:space="preserve" overflow="hidden"><g transform="translate(-2923 -552)"><path d="M3131.54 595.613C3127.67 586.574 3117.37 569.787 3099.35 562.039 3086.47 555.583 3069.73 553 3046.56 553 2997.63 553 2969.3 567.204 2959 580.117 2962.86 576.243 2965.44 574.952 2969.3 574.952 2995.05 574.952 3015.65 666.634 3015.65 778.976 3015.65 883.571 2997.63 970.087 2974.45 981.709 2974.45 983 2974.45 983 2974.45 983 2988.61 975.252 3006.64 971.379 3025.95 971.379 3047.84 971.379 3065.87 976.544 3080.03 983 3080.03 983 3080.03 983 3080.03 983 3078.75 983 3078.75 981.709 3077.46 981.709 3077.46 981.709 3077.46 981.709 3077.46 981.709 3076.17 980.418 3076.17 980.418 3076.17 980.418 3074.88 980.418 3074.88 980.418 3074.88 980.418 3074.88 979.126 3073.59 979.126 3073.59 977.835 3073.59 977.835 3073.59 977.835 3073.59 977.835 3072.31 977.835 3072.31 976.544 3071.02 975.252 3071.02 975.252 3071.02 975.252 3071.02 975.252 3071.02 975.252 3069.73 973.961 3069.73 972.67 3069.73 972.67 3069.73 972.67 3069.73 972.67 3068.44 971.379 3068.44 971.379 3067.16 970.087 3067.16 970.087 3067.16 970.087 3067.16 970.087 3067.16 968.796 3065.87 967.505 3065.87 966.213 3065.87 966.213 3065.87 966.213 3065.87 966.213 3064.58 964.922 3064.58 963.631 3063.29 962.339 3063.29 962.339 3063.29 962.339 3063.29 962.339 3063.29 961.048 3062.01 959.757 3062.01 957.174 3062.01 957.174 3062.01 957.174 3062.01 957.174 3056.86 946.844 3052.99 933.931 3050.42 917.144 3050.42 917.144 3050.42 917.144 3050.42 917.144 3050.42 915.853 3049.13 913.27 3049.13 911.979 3049.13 910.688 3049.13 910.688 3049.13 910.688 3049.13 908.105 3047.84 906.814 3047.84 905.523 3047.84 904.231 3047.84 902.94 3047.84 902.94 3047.84 901.649 3046.56 899.066 3046.56 897.775 3046.56 896.484 3046.56 896.484 3046.56 895.192 3046.56 893.901 3045.27 891.318 3045.27 890.027 3045.27 888.736 3045.27 887.445 3045.27 887.445 3045.27 884.862 3045.27 883.571 3043.98 882.279 3043.98 880.988 3043.98 879.697 3043.98 878.406 3043.98 877.114 3043.98 875.823 3043.98 874.532 3042.69 873.24 3042.69 871.949 3042.69 870.658 3042.69 868.075 3042.69 866.784 3042.69 865.493 3042.69 864.201 3042.69 862.91 3041.41 861.619 3041.41 860.327 3041.41 857.745 3041.41 856.454 3041.41 855.162 3041.41 853.871 3041.41 852.58 3041.41 851.288 3041.41 848.706 3041.41 847.415 3040.12 846.123 3040.12 844.832 3040.12 843.541 3040.12 840.958 3040.12 839.667 3040.12 838.375 3040.12 837.084 3040.12 834.502 3040.12 833.21 3040.12 831.919 3040.12 830.628 3040.12 829.336 3040.12 826.754 3038.83 825.463 3038.83 824.171 3038.83 822.88 3038.83 820.297 3038.83 819.006 3038.83 817.715 3038.83 815.132 3038.83 813.841 3038.83 812.55 3038.83 811.258 3038.83 809.967 3038.83 807.385 3038.83 806.093 3038.83 803.511 3038.83 802.219 3038.83 800.928 3038.83 799.637 3038.83 797.054 3038.83 794.472 3038.83 793.18 3038.83 791.889 3038.83 790.598 3038.83 789.306 3038.83 785.433 3038.83 782.85 3038.83 778.976 3038.83 666.634 3058.14 574.952 3083.9 574.952 3108.36 574.952 3128.96 666.634 3128.96 778.976 3128.96 888.736 3109.65 977.835 3086.47 983 3087.76 983 3087.76 983 3087.76 983 3095.48 983 3117.37 970.087 3131.54 949.427 3145.7 917.144 3156 852.58 3156 771.228 3156 689.877 3146.99 629.186 3131.54 595.613Z" fill="#72EC55" fill-rule="evenodd"/><path d="M3076.99 981.712C3075.7 980.423 3075.7 980.423 3075.7 980.423 3074.41 980.423 3074.41 980.423 3074.41 980.423 3074.41 979.135 3073.13 979.135 3073.13 977.847 3073.13 977.847 3073.13 977.847 3073.13 977.847 3071.84 977.847 3071.84 976.558 3070.55 975.27 3070.55 975.27 3070.55 975.27 3070.55 975.27 3070.55 975.27 3069.26 973.982 3069.26 972.693 3069.26 972.693 3069.26 972.693 3069.26 972.693 3067.98 971.405 3067.98 971.405 3066.69 970.117 3066.69 970.117 3066.69 970.117 3066.69 970.117 3066.69 968.828 3065.4 967.54 3065.4 966.252 3065.4 966.252 3065.4 966.252 3065.4 966.252 3064.11 964.963 3064.11 963.675 3062.83 962.387 3062.83 962.387 3062.83 962.387 3062.83 962.387 3062.83 961.098 3061.54 959.81 3061.54 957.233 3061.54 957.233 3061.54 957.233 3061.54 957.233 3056.39 946.927 3052.53 934.043 3049.95 917.295 3049.95 917.295 3049.95 917.295 3049.95 917.295 3049.95 916.006 3048.67 913.43 3048.67 912.141 3048.67 910.853 3048.67 910.853 3048.67 910.853 3048.67 908.276 3047.38 906.988 3047.38 905.699 3047.38 904.411 3047.38 903.123 3047.38 903.123 3047.38 901.834 3046.09 899.258 3046.09 897.969 3046.09 896.681 3046.09 896.681 3046.09 895.393 3046.09 894.104 3044.8 891.528 3044.8 890.239 3044.8 888.951 3044.8 887.663 3044.8 887.663 3044.8 885.086 3044.8 883.798 3043.52 882.509 3043.52 881.221 3043.52 879.933 3043.52 878.644 3043.52 877.356 3043.52 876.068 3043.52 874.779 3042.23 873.491 3042.23 872.203 3042.23 870.914 3042.23 868.338 3042.23 867.049 3042.23 865.761 3042.23 864.473 3042.23 863.184 3040.94 861.896 3040.94 860.607 3040.94 858.031 3040.94 856.742 3040.94 855.454 3040.94 854.166 3040.94 852.877 3040.94 851.589 3040.94 849.012 3040.94 847.724 3039.66 846.436 3039.66 845.147 3039.66 843.859 3039.66 841.282 3039.66 839.994 3039.66 838.706 3039.66 837.417 3039.66 834.841 3039.66 833.552 3039.66 832.264 3039.66 830.976 3039.66 829.687 3039.66 827.111 3038.37 825.822 3038.37 824.534 3038.37 823.245 3038.37 820.669 3038.37 819.38 3038.37 818.092 3038.37 815.515 3038.37 814.227 3038.37 812.939 3038.37 811.65 3038.37 810.362 3038.37 807.785 3038.37 806.497 3038.37 803.92 3038.37 802.632 3038.37 801.344 3038.37 800.055 3038.37 797.479 3038.37 794.902 3038.37 793.614 3038.37 792.325 3038.37 791.037 3038.37 789.749 3038.37 785.884 3038.37 783.307 3038.37 779.442 3038.37 682.816 3052.53 601.65 3073.13 581.037 3073.13 579.749 3073.13 579.749 3073.13 579.749 3086 568.153 3049.95 563 3030.64 565.577 3001.03 568.153 2986.87 579.749 2986.87 590.055 2986.87 591.344 2986.87 591.344 2986.87 591.344 3002.32 620.976 3015.2 694.411 3015.2 779.442 3015.2 883.798 2997.17 970.117 2974 981.712 2974 983 2974 983 2974 983 2988.16 975.27 3006.18 971.405 3025.49 971.405 3047.38 971.405 3065.4 976.558 3079.56 983 3079.56 983 3079.56 983 3079.56 983 3078.28 983 3078.28 981.712 3076.99 981.712 3076.99 981.712 3076.99 981.712 3076.99 981.712Z" fill="#73DB00" fill-rule="evenodd"/><path d="M3076.99 981.712C3075.7 980.423 3075.7 980.423 3075.7 980.423 3074.41 980.423 3074.41 980.423 3074.41 980.423 3074.41 979.135 3073.13 979.135 3073.13 977.847 3073.13 977.847 3073.13 977.847 3073.13 977.847 3071.84 977.847 3071.84 976.558 3070.55 975.27 3070.55 975.27 3070.55 975.27 3070.55 975.27 3070.55 975.27 3069.26 973.982 3069.26 972.693 3069.26 972.693 3069.26 972.693 3069.26 972.693 3067.98 971.405 3067.98 971.405 3066.69 970.117 3066.69 970.117 3066.69 970.117 3066.69 970.117 3066.69 968.828 3065.4 967.54 3065.4 966.252 3065.4 966.252 3065.4 966.252 3065.4 966.252 3064.11 964.963 3064.11 963.675 3062.83 962.387 3062.83 962.387 3062.83 962.387 3062.83 962.387 3062.83 961.098 3061.54 959.81 3061.54 957.233 3061.54 957.233 3061.54 957.233 3061.54 957.233 3056.39 946.927 3052.53 934.043 3049.95 917.295 3049.95 917.295 3049.95 917.295 3049.95 917.295 3049.95 916.006 3048.67 913.43 3048.67 912.141 3048.67 910.853 3048.67 910.853 3048.67 910.853 3048.67 908.276 3047.38 906.988 3047.38 905.699 3047.38 904.411 3047.38 903.123 3047.38 903.123 3047.38 901.834 3046.09 899.258 3046.09 897.969 3046.09 896.681 3046.09 896.681 3046.09 895.393 3046.09 894.104 3044.8 891.528 3044.8 890.239 3044.8 888.951 3044.8 887.663 3044.8 887.663 3044.8 885.086 3044.8 883.798 3043.52 882.509 3043.52 881.221 3043.52 879.933 3043.52 878.644 3043.52 877.356 3043.52 876.068 3043.52 874.779 3042.23 873.491 3042.23 872.203 3042.23 870.914 3042.23 868.338 3042.23 867.049 3042.23 865.761 3042.23 864.473 3042.23 863.184 3040.94 861.896 3040.94 860.607 3040.94 858.031 3040.94 856.742 3040.94 855.454 3040.94 854.166 3040.94 852.877 3040.94 851.589 3040.94 849.012 3040.94 847.724 3039.66 846.436 3039.66 845.147 3039.66 843.859 3039.66 841.282 3039.66 839.994 3039.66 838.706 3039.66 837.417 3039.66 834.841 3039.66 833.552 3039.66 832.264 3039.66 830.976 3039.66 829.687 3039.66 827.111 3038.37 825.822 3038.37 824.534 3038.37 823.245 3038.37 820.669 3038.37 819.38 3038.37 818.092 3038.37 815.515 3038.37 814.227 3038.37 812.939 3038.37 811.65 3038.37 810.362 3038.37 807.785 3038.37 806.497 3038.37 803.92 3038.37 802.632 3038.37 801.344 3038.37 800.055 3038.37 797.479 3038.37 794.902 3038.37 793.614 3038.37 792.325 3038.37 791.037 3038.37 789.749 3038.37 785.884 3038.37 783.307 3038.37 779.442 3038.37 682.816 3052.53 601.65 3073.13 581.037 3073.13 579.749 3073.13 579.749 3073.13 579.749 3086 568.153 3049.95 563 3030.64 565.577 3001.03 568.153 2986.87 579.749 2986.87 590.055 2986.87 591.344 2986.87 591.344 2986.87 591.344 3002.32 620.976 3015.2 694.411 3015.2 779.442 3015.2 883.798 2997.17 970.117 2974 981.712 2974 983 2974 983 2974 983 2988.16 975.27 3006.18 971.405 3025.49 971.405 3047.38 971.405 3065.4 976.558 3079.56 983 3079.56 983 3079.56 983 3079.56 983 3078.28 983 3078.28 981.712 3076.99 981.712 3076.99 981.712 3076.99 981.712 3076.99 981.712ZM3025.49 709.871C3022.92 671.221 3017.77 637.724 3010.05 611.957 3007.47 601.65 3003.61 582.325 3019.06 578.46 3022.92 578.46 3026.78 578.46 3031.93 577.172 3038.37 577.172 3046.09 575.883 3052.53 577.172 3057.68 577.172 3057.68 582.325 3056.39 584.902 3040.94 611.957 3030.64 651.896 3026.78 706.006 3025.49 726.62 3026.78 729.196 3025.49 709.871Z" fill="#73BD00" fill-rule="evenodd"/><path d="M2924 779.5C2924 667.11 2946.61 576 2974.5 576 3002.39 576 3025 667.11 3025 779.5 3025 891.89 3002.39 983 2974.5 983 2946.61 983 2924 891.89 2924 779.5Z" fill="#73F37B" fill-rule="evenodd"/><path d="M3028 779.5C3028 667.11 3050.61 576 3078.5 576 3106.39 576 3129 667.11 3129 779.5 3129 891.89 3106.39 983 3078.5 983 3050.61 983 3028 891.89 3028 779.5Z" fill="#73F37B" fill-rule="evenodd"/><path d="M2987.51 591C2995.28 628.395 3004.34 686.421 3004.34 741.868 3004.34 854.053 2979.74 936.579 2953.84 936.579 2948.66 936.579 2942.18 931.421 2937 921.105 2944.77 959.79 2956.43 983 2969.38 983 2995.28 983 3016 892.737 3016 779.263 3016 695.447 3004.34 621.947 2987.51 591Z" fill="#72EA49" fill-rule="evenodd"/><path d="M2982.56 585C2998.05 618.489 3012.25 693.194 3012.25 773.052 3012.25 885.11 2990.31 975.272 2965.78 975.272 2960.62 975.272 2954.16 967.544 2949 962.392 2955.45 976.56 2963.2 983 2969.65 983 2995.47 983 3020 897.99 3020 785.932 3020 693.194 3001.93 609.473 2982.56 585Z" fill="#FFFFFF" fill-rule="evenodd"/><path d="M2942.54 913.393C2936.13 877.351 2939.97 829.723 2939.97 778.234 2939.97 675.255 2952.79 582.574 2975.87 582.574 2975.87 582.574 2981 586.436 2981 587.723 2978.44 582.574 2974.59 580 2970.74 580 2947.67 580 2931 668.819 2931 771.798 2931 829.723 2934.85 881.213 2941.26 917.255 2947.67 943 2945.1 936.564 2942.54 913.393Z" fill="#FFFFFF" fill-rule="evenodd"/><path d="M3030 576.2C3043.04 574.9 3060 571 3060 578.8 3060 587.9 3046.96 600.9 3043.04 623 3045.65 600.9 3056.09 582.7 3053.48 580.1 3049.57 574.9 3031.3 577.5 3030 576.2Z" fill="#FFFFFF" fill-rule="evenodd"/><path d="M3102.36 591C3110.17 628.395 3115.38 677.395 3115.38 732.842 3115.38 846.316 3095.86 944.316 3069.83 944.316 3063.32 944.316 3054.21 935.29 3049 924.974 3058.11 963.658 3071.13 983 3084.14 983 3110.17 983 3131 892.737 3131 779.263 3131 695.447 3119.29 621.947 3102.36 591Z" fill="#72EA49" fill-rule="evenodd"/><path d="M3098.16 585C3112.61 618.489 3123.12 686.754 3123.12 767.9 3123.12 879.958 3104.73 975.272 3079.76 975.272 3074.51 975.272 3067.94 967.544 3064 962.392 3069.25 976.56 3077.14 983 3083.71 983 3109.98 983 3131 892.838 3131 779.492 3131 688.042 3116.55 609.473 3098.16 585Z" fill="#FFFFFF" fill-rule="evenodd"/><path d="M3049.5 913.131C3044.33 878.403 3043.04 834.671 3043.04 783.223 3043.04 680.325 3067.58 582.572 3090.83 582.572 3092.13 582.572 3096 586.431 3096 587.717 3093.42 582.572 3089.54 580 3085.67 580 3062.42 580 3034 673.894 3034 776.791 3034 834.671 3041.75 882.261 3049.5 918.276 3054.67 944 3053.38 937.569 3049.5 913.131Z" fill="#FFFFFF" fill-rule="evenodd"/><path d="M3098 585C3098 585 3098 585 3098 585 3116.24 610.779 3129.27 688.117 3129.27 779.633 3129.27 867.283 3117.55 940.753 3100.61 970.399 3100.61 982 3100.61 982 3100.61 982 3122.76 970.399 3141 884.039 3141 779.633 3141 694.562 3131.88 624.958 3098 585Z" fill="#73DB00" fill-rule="evenodd"/><path d="M3022 873.794C3024.5 862.082 3028.25 869.89 3029.5 873.794 3032 879 3029.5 837.356 3029.5 837.356 3028.25 795.712 3028.25 795.712 3028.25 795.712 3027 784 3027 784 3027 784" fill="#73BD00" fill-rule="evenodd"/><path d="M3044 956C3036.22 952.152 3016.78 953.435 3009 956 3012.89 948.304 3024.56 912.391 3024.56 897 3025.85 909.826 3034.93 949.587 3044 956Z" fill="#73DB00" fill-rule="evenodd"/><path d="M2924.5 780C2924.5 667.61 2947.11 576.5 2975 576.5 3002.89 576.5 3025.5 667.61 3025.5 780 3025.5 892.39 3002.89 983.5 2975 983.5 2947.11 983.5 2924.5 892.39 2924.5 780Z" stroke="#003300" stroke-width="2.86476" stroke-linecap="round" stroke-linejoin="round" stroke-miterlimit="10" fill="none" fill-rule="evenodd"/><path d="M3028.5 780C3028.5 667.61 3051.11 576.5 3079 576.5 3106.89 576.5 3129.5 667.61 3129.5 780 3129.5 892.39 3106.89 983.5 3079 983.5 3051.11 983.5 3028.5 892.39 3028.5 780Z" stroke="#003300" stroke-width="2.86476" stroke-linecap="round" stroke-linejoin="round" stroke-miterlimit="10" fill="none" fill-rule="evenodd"/><path d="M2974.5 983.5C2988.72 976.167 3006.82 972.5 3026.21 972.5 3048.18 972.5 3066.28 977.389 3080.5 983.5" stroke="#003300" stroke-width="2.86476" stroke-linecap="round" stroke-linejoin="round" stroke-miterlimit="10" fill="none" fill-rule="evenodd"/><path d="M3073.64 580.214C3086.5 568.643 3050.5 563.5 3031.21 566.071 3001.64 568.643 2987.5 580.214 2987.5 590.5" stroke="#003300" stroke-width="2.86476" stroke-linecap="round" stroke-linejoin="round" stroke-miterlimit="10" fill="none" fill-rule="evenodd"/><path d="M3156.5 772.5C3156.5 690.861 3147.49 629.956 3132.04 596.263 3128.17 587.192 3117.87 570.346 3099.85 562.571 3086.97 556.092 3070.23 553.5 3047.06 553.5 2998.13 553.5 2969.8 567.754 2959.5 580.713" stroke="#003300" stroke-width="2.86476" stroke-linecap="round" stroke-linejoin="round" stroke-miterlimit="10" fill="none" fill-rule="evenodd"/><path d="M3088.5 983.5C3096.2 983.5 3118.01 970.634 3132.12 950.049 3146.24 917.884 3156.5 853.555 3156.5 772.5" stroke="#003300" stroke-width="2.86476" stroke-linecap="round" stroke-linejoin="round" stroke-miterlimit="10" fill="none" fill-rule="evenodd"/><path d="M2974.5 983.5C2988.72 976.167 3006.82 972.5 3026.21 972.5 3048.18 972.5 3066.28 977.389 3080.5 983.5" stroke="#003300" stroke-width="2.86476" stroke-linecap="round" stroke-linejoin="round" stroke-miterlimit="10" fill="none" fill-rule="evenodd"/></g></svg>