<svg width="285" height="434" xmlns="http://www.w3.org/2000/svg" xmlns:xlink="http://www.w3.org/1999/xlink" xml:space="preserve" overflow="hidden"><g transform="translate(-2358 -1161)"><path d="M2610.56 1291.44C2617 1322.21 2596.4 1356.82 2596.4 1394 2596.4 1428.62 2617 1460.67 2611.85 1488.87 2600.26 1551.69 2575.8 1594 2548.77 1594 2510.15 1594 2505 1504.26 2505 1394 2505 1283.74 2510.15 1194 2548.77 1194 2575.8 1194 2597.69 1232.46 2610.56 1291.44Z" fill="#FFFF61" fill-rule="evenodd"/><path d="M2512 1393.99C2512 1480 2517 1542.91 2530.75 1575 2530.75 1575 2530.75 1575 2530.75 1575 2517 1544.19 2518.25 1480 2518.25 1393.99 2518.25 1318.25 2515.75 1232.24 2537 1204 2537 1204 2537 1204 2537 1204 2517 1230.96 2512 1295.15 2512 1393.99Z" fill="#FFFFFF" fill-rule="evenodd"/><path d="M2583.19 1229.72C2590.96 1246.44 2598.74 1267.02 2603.93 1292.74 2607.81 1308.18 2603.93 1326.19 2598.74 1344.19 2594.85 1360.92 2589.67 1377.64 2589.67 1394.36 2589.67 1411.08 2594.85 1426.52 2598.74 1440.66 2603.93 1458.67 2609.11 1474.11 2606.52 1489.54 2602.63 1508.84 2597.44 1525.56 2590.96 1539.71 2583.19 1556.43 2583.19 1559 2590.96 1544.85 2598.74 1530.7 2606.52 1512.69 2610.41 1489.54 2613 1474.11 2609.11 1457.39 2603.93 1439.38 2598.74 1425.23 2594.85 1409.79 2594.85 1394.36 2594.85 1377.64 2598.74 1360.92 2602.63 1345.48 2607.81 1326.19 2613 1308.18 2609.11 1291.46 2603.93 1267.02 2594.85 1246.44 2584.48 1231 2579.3 1223.29 2578 1222 2583.19 1229.72Z" fill="#FFFFFF" fill-rule="evenodd"/><path d="M2568 1208C2582 1223.42 2589.64 1255.55 2597.27 1292.82 2601.09 1308.25 2596 1326.24 2590.91 1344.23 2587.09 1360.94 2582 1377.65 2582 1394.36 2582 1411.07 2587.09 1426.49 2590.91 1440.63 2596 1458.62 2602.36 1476.61 2599.82 1490.75 2592.18 1533.16 2583.27 1564.01 2568 1582 2568 1582 2568 1582 2568 1582 2583.27 1564.01 2598.55 1531.88 2606.18 1489.46 2610 1474.04 2604.91 1457.33 2599.82 1439.34 2594.73 1425.2 2590.91 1409.78 2590.91 1394.36 2590.91 1377.65 2594.73 1360.94 2598.55 1345.52 2603.64 1326.24 2608.73 1308.25 2604.91 1291.54 2597.27 1252.98 2583.27 1224.71 2568 1208Z" fill="#FFDB3C" fill-rule="evenodd"/><path d="M2361.66 1291.44C2355.28 1322.21 2375.69 1356.82 2375.69 1394 2375.69 1428.62 2354 1460.67 2360.38 1488.87 2371.86 1551.69 2394.83 1594 2421.62 1594 2461.17 1594 2465 1504.26 2465 1394 2465 1283.74 2461.17 1194 2421.62 1194 2396.1 1194 2373.14 1232.46 2361.66 1291.44Z" fill="#FFFF61" fill-rule="evenodd"/><path d="M2365.13 1291.36C2361.28 1308.09 2366.41 1326.11 2371.54 1345.41 2375.38 1360.85 2379.23 1377.58 2379.23 1394.31 2379.23 1409.75 2375.38 1425.19 2370.26 1439.35 2365.13 1457.36 2360 1474.09 2363.85 1489.53 2366.41 1504.98 2372.82 1519.13 2376.67 1532 2376.67 1532 2376.67 1532 2376.67 1532 2372.82 1519.13 2371.54 1504.98 2367.69 1489.53 2365.13 1474.09 2372.82 1458.65 2377.95 1440.64 2383.08 1426.48 2389.49 1411.04 2389.49 1394.31 2389.49 1377.58 2383.08 1360.85 2379.23 1344.12 2374.1 1326.11 2366.41 1308.09 2368.97 1292.65 2379.23 1247.61 2392.05 1212.87 2410 1200 2410 1200 2410 1200 2410 1200 2392.05 1214.16 2374.1 1245.04 2365.13 1291.36Z" fill="#FFFFFF" fill-rule="evenodd"/><path d="M2438.08 1200C2448.34 1237.22 2450.9 1296.25 2450.9 1364.27 2450.9 1474.64 2445.77 1564.48 2406.04 1564.48 2394.51 1564.48 2382.97 1555.5 2374 1541.38 2386.82 1574.75 2403.48 1594 2421.42 1594 2461.16 1594 2465 1504.16 2465 1393.79 2465 1301.39 2462.44 1224.38 2438.08 1200Z" fill="#FFE042" fill-rule="evenodd"/><path d="M2438.17 1200.28C2462.44 1224.65 2459.89 1313.14 2459.89 1393.94 2459.89 1493.97 2457.33 1594 2419 1594 2419 1594 2419 1594 2419 1594 2461.17 1594 2465 1500.38 2465 1393.94 2465 1290.06 2459.89 1222.08 2436.89 1199L2438.17 1200.28Z" fill="#FFFFFF" fill-rule="evenodd"/><path d="M2426 1594C2426 1594 2427.28 1594 2428.56 1594 2427.28 1594 2426 1594 2426 1594ZM2537.39 1196.1C2538.67 1196.1 2539.95 1194.82 2539.95 1194.82 2539.95 1194.82 2539.95 1194.82 2541.23 1194.82 2563 1183.27 2524.59 1173 2488.74 1176.85 2461.85 1180.7 2431.12 1189.69 2442.64 1203.8 2442.64 1203.8 2442.64 1203.8 2442.64 1203.8 2463.13 1232.04 2465.69 1306.49 2465.69 1393.77 2465.69 1497.73 2461.85 1583.73 2428.56 1594 2465.69 1582.45 2509.22 1583.73 2543.79 1594 2543.79 1594 2543.79 1594 2543.79 1594 2510.5 1585.02 2505.38 1499.02 2505.38 1393.77 2505.38 1294.94 2509.22 1212.79 2537.39 1196.1Z" fill="#F3B31D" fill-rule="evenodd"/><path d="M2491 1188.16C2502.63 1186.87 2522 1183 2522 1190.74 2522 1199.76 2509.08 1208.79 2505.21 1232 2506.5 1212.66 2518.13 1195.89 2515.54 1193.32 2511.67 1188.16 2492.29 1189.45 2491 1188.16Z" fill="#FFFFB5" fill-rule="evenodd"/><path d="M2426 1594C2426 1594 2427.28 1594 2428.56 1594 2427.28 1594 2426 1594 2426 1594ZM2537.39 1196.1C2538.67 1196.1 2539.95 1194.82 2539.95 1194.82 2539.95 1194.82 2539.95 1194.82 2541.23 1194.82 2563 1183.27 2524.59 1173 2488.74 1176.85 2461.85 1180.7 2431.12 1189.69 2442.64 1203.8 2442.64 1203.8 2442.64 1203.8 2442.64 1203.8 2463.13 1232.04 2465.69 1306.49 2465.69 1393.77 2465.69 1497.73 2461.85 1583.73 2428.56 1594 2465.69 1582.45 2509.22 1583.73 2543.79 1594 2543.79 1594 2543.79 1594 2543.79 1594 2510.5 1585.02 2505.38 1499.02 2505.38 1393.77 2505.38 1294.94 2509.22 1212.79 2537.39 1196.1ZM2522.03 1194.82C2498.98 1221.77 2493.86 1288.52 2493.86 1393.77 2493.86 1481.05 2497.7 1542.66 2511.78 1576.03 2505.38 1574.75 2498.98 1574.75 2491.3 1574.75 2481.06 1573.46 2469.53 1543.94 2472.09 1522.12 2475.93 1488.75 2477.21 1446.39 2477.21 1393.77 2477.21 1300.07 2473.37 1234.61 2455.45 1203.8 2454.17 1202.52 2455.45 1197.39 2458.01 1196.1 2464.41 1193.54 2475.93 1189.69 2490.02 1188.4 2501.54 1187.12 2510.5 1188.4 2519.47 1188.4 2522.03 1188.4 2523.31 1193.54 2522.03 1194.82ZM2532.27 1185.84C2532.27 1185.84 2532.27 1185.84 2532.27 1185.84Z" fill="#DA9503" fill-rule="evenodd"/><path d="M2624.17 1382.53C2624.17 1345.37 2644.72 1309.48 2638.29 1280.01 2633.16 1253.09 2629.31 1224.9 2601.05 1194.14 2563.81 1153.13 2448.23 1148 2402 1200.55 2402 1200.55 2402 1200.55 2402 1200.55 2408.42 1196.7 2414.84 1194.14 2421.26 1194.14 2430.25 1194.14 2436.67 1197.98 2441.81 1204.39 2441.81 1204.39 2441.81 1204.39 2441.81 1204.39 2430.25 1190.29 2461.07 1181.32 2488.04 1177.48 2524 1173.63 2562.53 1183.89 2540.69 1195.42 2541.98 1194.14 2541.98 1194.14 2541.98 1194.14 2543.26 1194.14 2543.26 1194.14 2543.26 1194.14 2544.55 1194.14 2544.55 1194.14 2545.83 1194.14 2547.12 1194.14 2547.12 1194.14 2548.4 1194.14 2549.68 1194.14 2550.97 1194.14 2552.25 1194.14 2552.25 1194.14 2552.25 1194.14 2552.25 1194.14 2553.54 1194.14 2554.82 1194.14 2554.82 1194.14 2554.82 1194.14 2554.82 1194.14 2556.11 1194.14 2556.11 1195.42 2557.39 1195.42 2558.67 1195.42 2558.67 1195.42 2558.67 1195.42 2558.67 1195.42 2559.96 1195.42 2561.24 1196.7 2561.24 1196.7 2562.53 1196.7 2562.53 1196.7 2562.53 1196.7 2562.53 1197.98 2563.81 1197.98 2565.09 1199.26 2565.09 1199.26 2565.09 1199.26 2565.09 1199.26 2566.38 1199.26 2567.66 1200.55 2567.66 1200.55 2568.95 1201.83 2568.95 1201.83 2568.95 1201.83 2570.23 1203.11 2570.23 1203.11 2570.23 1203.11 2571.52 1203.11 2571.52 1204.39 2571.52 1204.39 2572.8 1204.39 2572.8 1205.67 2574.08 1206.95 2574.08 1206.95 2574.08 1206.95 2574.08 1206.95 2575.37 1208.24 2575.37 1208.24 2576.65 1209.52 2576.65 1209.52 2576.65 1210.8 2577.94 1210.8 2577.94 1212.08 2579.22 1212.08 2579.22 1213.36 2579.22 1213.36 2580.51 1213.36 2580.51 1214.64 2580.51 1214.64 2581.79 1215.93 2583.07 1217.21 2583.07 1218.49 2583.07 1218.49 2583.07 1218.49 2583.07 1219.77 2584.36 1221.05 2585.64 1222.33 2585.64 1222.33 2585.64 1222.33 2585.64 1222.33 2586.93 1223.61 2586.93 1224.9 2588.21 1226.18 2588.21 1227.46 2588.21 1227.46 2588.21 1227.46 2589.49 1228.74 2589.49 1230.02 2590.78 1231.3 2590.78 1232.59 2590.78 1232.59 2590.78 1232.59 2592.06 1233.87 2592.06 1235.15 2593.35 1236.43 2593.35 1237.71 2593.35 1237.71 2593.35 1237.71 2594.63 1238.99 2594.63 1241.56 2595.92 1242.84 2601.05 1256.94 2606.19 1273.6 2610.04 1291.54 2616.46 1322.3 2595.92 1356.9 2595.92 1394.07 2595.92 1428.67 2616.46 1460.71 2611.33 1488.91 2599.77 1547.86 2579.22 1588.87 2553.54 1594 2554.82 1594 2554.82 1594 2554.82 1594 2562.53 1594 2581.79 1586.31 2595.92 1573.49 2613.89 1558.11 2631.87 1523.51 2640.86 1477.37 2646 1449.18 2624.17 1417.14 2624.17 1382.53ZM2543.26 1594C2543.26 1594 2543.26 1594 2543.26 1594 2543.26 1594 2543.26 1594 2543.26 1594Z" fill="#FFDB3C" fill-rule="evenodd"/><path d="M2577.56 1209C2591.67 1225.71 2605.77 1255.27 2613.46 1292.54 2616.03 1307.96 2610.9 1325.96 2605.77 1343.95 2601.92 1360.66 2598.08 1377.36 2598.08 1394.07 2598.08 1410.78 2601.92 1426.2 2607.05 1440.34 2610.9 1458.33 2618.59 1476.33 2614.74 1490.46 2607.05 1532.88 2590.38 1566.29 2575 1583 2575 1583 2575 1583 2575 1583 2591.67 1565.01 2613.46 1531.59 2622.44 1489.18 2625 1473.76 2619.87 1457.05 2614.74 1439.05 2610.9 1424.92 2605.77 1409.49 2605.77 1394.07 2605.77 1377.36 2610.9 1360.66 2614.74 1345.23 2619.87 1325.96 2623.72 1307.96 2621.15 1291.25 2612.18 1252.7 2592.95 1225.71 2577.56 1209Z" fill="#F3C125" fill-rule="evenodd"/><path d="M2610.56 1291.44C2617 1322.21 2596.4 1356.82 2596.4 1394 2596.4 1428.62 2617 1460.67 2611.85 1488.87 2600.26 1551.69 2575.8 1594 2548.77 1594 2510.15 1594 2505 1504.26 2505 1394 2505 1283.74 2510.15 1194 2548.77 1194 2575.8 1194 2597.69 1232.46 2610.56 1291.44Z" stroke="#639C00" stroke-width="2.29167" stroke-linecap="round" stroke-linejoin="round" stroke-miterlimit="10" fill="none" fill-rule="evenodd"/><path d="M2361.66 1291.44C2355.28 1322.21 2375.69 1356.82 2375.69 1394 2375.69 1428.62 2354 1460.67 2360.38 1488.87 2371.86 1551.69 2394.83 1594 2421.62 1594 2461.17 1594 2465 1504.26 2465 1394 2465 1283.74 2461.17 1194 2421.62 1194 2396.1 1194 2373.14 1232.46 2361.66 1291.44Z" stroke="#639C00" stroke-width="2.29167" stroke-linecap="round" stroke-linejoin="round" stroke-miterlimit="10" fill="none" fill-rule="evenodd"/><path d="M2426 1594C2426 1594 2427.28 1594 2428.56 1594 2427.28 1594 2426 1594 2426 1594ZM2537.39 1196.1C2538.67 1196.1 2539.95 1194.82 2539.95 1194.82 2539.95 1194.82 2539.95 1194.82 2541.23 1194.82 2563 1183.27 2524.59 1173 2488.74 1176.85 2461.85 1180.7 2431.12 1189.69 2442.64 1203.8 2442.64 1203.8 2442.64 1203.8 2442.64 1203.8 2463.13 1232.04 2465.69 1306.49 2465.69 1393.77 2465.69 1497.73 2461.85 1583.73 2428.56 1594 2465.69 1582.45 2509.22 1583.73 2543.79 1594 2543.79 1594 2543.79 1594 2543.79 1594 2510.5 1585.02 2505.38 1499.02 2505.38 1393.77 2505.38 1294.94 2509.22 1212.79 2537.39 1196.1Z" stroke="#639C00" stroke-width="2.29167" stroke-linecap="round" stroke-linejoin="round" stroke-miterlimit="10" fill="none" fill-rule="evenodd"/><path d="M2624.17 1382.53C2624.17 1345.37 2644.72 1309.48 2638.29 1280.01 2633.16 1253.09 2629.31 1224.9 2601.05 1194.14 2563.81 1153.13 2448.23 1148 2402 1200.55 2402 1200.55 2402 1200.55 2402 1200.55 2408.42 1196.7 2414.84 1194.14 2421.26 1194.14 2430.25 1194.14 2436.67 1197.98 2441.81 1204.39 2441.81 1204.39 2441.81 1204.39 2441.81 1204.39 2430.25 1190.29 2461.07 1181.32 2488.04 1177.48 2524 1173.63 2562.53 1183.89 2540.69 1195.42 2541.98 1194.14 2541.98 1194.14 2541.98 1194.14 2543.26 1194.14 2543.26 1194.14 2543.26 1194.14 2544.55 1194.14 2544.55 1194.14 2545.83 1194.14 2547.12 1194.14 2547.12 1194.14 2548.4 1194.14 2549.68 1194.14 2550.97 1194.14 2552.25 1194.14 2552.25 1194.14 2552.25 1194.14 2552.25 1194.14 2553.54 1194.14 2554.82 1194.14 2554.82 1194.14 2554.82 1194.14 2554.82 1194.14 2556.11 1194.14 2556.11 1195.42 2557.39 1195.42 2558.67 1195.42 2558.67 1195.42 2558.67 1195.42 2558.67 1195.42 2559.96 1195.42 2561.24 1196.7 2561.24 1196.7 2562.53 1196.7 2562.53 1196.7 2562.53 1196.7 2562.53 1197.98 2563.81 1197.98 2565.09 1199.26 2565.09 1199.26 2565.09 1199.26 2565.09 1199.26 2566.38 1199.26 2567.66 1200.55 2567.66 1200.55 2568.95 1201.83 2568.95 1201.83 2568.95 1201.83 2570.23 1203.11 2570.23 1203.11 2570.23 1203.11 2571.52 1203.11 2571.52 1204.39 2571.52 1204.39 2572.8 1204.39 2572.8 1205.67 2574.08 1206.95 2574.08 1206.95 2574.08 1206.95 2574.08 1206.95 2575.37 1208.24 2575.37 1208.24 2576.65 1209.52 2576.65 1209.52 2576.65 1210.8 2577.94 1210.8 2577.94 1212.08 2579.22 1212.08 2579.22 1213.36 2579.22 1213.36 2580.51 1213.36 2580.51 1214.64 2580.51 1214.64 2581.79 1215.93 2583.07 1217.21 2583.07 1218.49 2583.07 1218.49 2583.07 1218.49 2583.07 1219.77 2584.36 1221.05 2585.64 1222.33 2585.64 1222.33 2585.64 1222.33 2585.64 1222.33 2586.93 1223.61 2586.93 1224.9 2588.21 1226.18 2588.21 1227.46 2588.21 1227.46 2588.21 1227.46 2589.49 1228.74 2589.49 1230.02 2590.78 1231.3 2590.78 1232.59 2590.78 1232.59 2590.78 1232.59 2592.06 1233.87 2592.06 1235.15 2593.35 1236.43 2593.35 1237.71 2593.35 1237.71 2593.35 1237.71 2594.63 1238.99 2594.63 1241.56 2595.92 1242.84 2601.05 1256.94 2606.19 1273.6 2610.04 1291.54 2616.46 1322.3 2595.92 1356.9 2595.92 1394.07 2595.92 1428.67 2616.46 1460.71 2611.33 1488.91 2599.77 1547.86 2579.22 1588.87 2553.54 1594 2554.82 1594 2554.82 1594 2554.82 1594 2562.53 1594 2581.79 1586.31 2595.92 1573.49 2613.89 1558.11 2631.87 1523.51 2640.86 1477.37 2646 1449.18 2624.17 1417.14 2624.17 1382.53ZM2543.26 1594C2543.26 1594 2543.26 1594 2543.26 1594 2543.26 1594 2543.26 1594 2543.26 1594Z" stroke="#639C00" stroke-width="2.29167" stroke-linecap="round" stroke-linejoin="round" stroke-miterlimit="10" fill="none" fill-rule="evenodd"/></g></svg>