<svg width="253" height="399" xmlns="http://www.w3.org/2000/svg" xmlns:xlink="http://www.w3.org/1999/xlink" xml:space="preserve" overflow="hidden"><g transform="translate(-1178 -1568)"><path d="M1331.34 1944.29C1331.34 1591 1331.34 1591 1331.34 1591 1331.34 1591 1331.34 1591 1331.34 1591 1331.34 1584.53 1337.75 1580.65 1348 1576.76 1336.46 1572.88 1321.08 1569 1303.14 1569 1285.2 1569 1268.54 1571.59 1257 1576.76 1268.54 1579.35 1274.94 1584.53 1274.94 1591 1274.94 1591 1274.94 1591 1274.94 1591 1274.94 1944.29 1274.94 1944.29 1274.94 1944.29 1274.94 1949.47 1268.54 1954.65 1257 1958.53 1268.54 1962.41 1285.2 1965 1303.14 1965 1321.08 1965 1336.46 1962.41 1348 1958.53 1337.75 1954.65 1331.34 1949.47 1331.34 1944.29Z" fill="#940000" fill-rule="evenodd"/><path d="M1331.34 1944.29C1331.34 1591 1331.34 1591 1331.34 1591 1331.34 1584.53 1337.75 1580.65 1348 1576.76 1336.46 1572.88 1321.08 1569 1303.14 1569 1285.2 1569 1268.54 1571.59 1257 1576.76 1268.54 1579.35 1274.94 1584.53 1274.94 1591 1274.94 1944.29 1274.94 1944.29 1274.94 1944.29 1274.94 1949.47 1268.54 1954.65 1257 1958.53 1268.54 1962.41 1285.2 1965 1303.14 1965 1321.08 1965 1336.46 1962.41 1348 1958.53 1337.75 1954.65 1331.34 1949.47 1331.34 1944.29ZM1317.24 1954.65C1312.11 1955.94 1306.99 1955.94 1303.14 1955.94 1298.01 1955.94 1294.17 1955.94 1290.32 1955.94 1283.92 1954.65 1283.92 1946.88 1283.92 1944.29 1283.92 1591 1283.92 1591 1283.92 1591 1283.92 1589.71 1283.92 1587.12 1282.63 1585.82 1282.63 1584.53 1285.2 1579.35 1287.76 1579.35 1292.89 1579.35 1298.01 1579.35 1303.14 1579.35 1308.27 1579.35 1313.39 1579.35 1318.52 1579.35 1321.08 1579.35 1323.65 1584.53 1323.65 1585.82 1322.37 1587.12 1322.37 1589.71 1322.37 1591 1322.37 1944.29 1322.37 1944.29 1322.37 1944.29 1322.37 1946.88 1322.37 1954.65 1317.24 1954.65Z" fill="#600000" fill-rule="evenodd"/><path d="M1331.84 1944.79C1331.84 1591.5 1331.84 1591.5 1331.84 1591.5 1331.84 1591.5 1331.84 1591.5 1331.84 1591.5 1331.84 1585.03 1338.25 1581.15 1348.5 1577.26 1336.96 1573.38 1321.58 1569.5 1303.64 1569.5 1285.7 1569.5 1269.04 1572.09 1257.5 1577.26 1269.04 1579.85 1275.44 1585.03 1275.44 1591.5 1275.44 1591.5 1275.44 1591.5 1275.44 1591.5 1275.44 1944.79 1275.44 1944.79 1275.44 1944.79 1275.44 1949.97 1269.04 1955.15 1257.5 1959.03 1269.04 1962.91 1285.7 1965.5 1303.64 1965.5 1321.58 1965.5 1336.96 1962.91 1348.5 1959.03 1338.25 1955.15 1331.84 1949.97 1331.84 1944.79Z" stroke="#333333" stroke-width="2.86476" stroke-linecap="round" stroke-linejoin="round" stroke-miterlimit="10" fill="none" fill-rule="evenodd"/><path d="M1429 1591C1429 1579.35 1400.42 1569 1365.35 1569 1330.28 1569 1303 1579.35 1303 1591 1303 1591 1303 1591 1303 1591 1303 1944.29 1303 1944.29 1303 1944.29 1303 1955.94 1330.28 1965 1365.35 1965 1400.42 1965 1429 1955.94 1429 1944.29 1429 1591 1429 1591 1429 1591Z" fill="#E00000" fill-rule="evenodd"/><path d="M1309.3 1940.26C1322.29 1600.81 1322.29 1600.81 1322.29 1600.81 1322.29 1589.2 1350.86 1580.16 1384.63 1580.16 1398.92 1580.16 1410.61 1584.03 1421 1585.33 1409.31 1580.16 1392.43 1575 1371.64 1575 1336.57 1575 1308 1585.33 1308 1596.94 1308 1941.55 1308 1941.55 1308 1941.55 1308 1948 1309.3 1944.13 1309.3 1940.26Z" fill="#FFFFFF" fill-rule="evenodd"/><path d="M1418.4 1593.77C1406.71 1934.39 1406.71 1934.39 1406.71 1934.39 1406.71 1946.05 1378.14 1955.11 1343.07 1955.11 1330.08 1955.11 1318.39 1951.23 1308 1948.64 1319.69 1953.82 1336.57 1959 1357.36 1959 1392.43 1959 1421 1949.93 1421 1938.28 1421 1592.48 1421 1592.48 1421 1592.48 1421 1586 1418.4 1589.89 1418.4 1593.77Z" fill="#B90000" fill-rule="evenodd"/><path d="M1420.72 1593C1418.16 1938.31 1418.16 1938.31 1418.16 1938.31 1418.16 1947.36 1393.84 1959 1358 1959 1358 1959 1358 1959 1358 1959 1388.72 1959 1422 1953.83 1422 1938.31 1420.72 1593 1420.72 1593 1420.72 1593Z" fill="#FFFFFF" fill-rule="evenodd"/><path d="M1429.5 1591.5C1429.5 1579.85 1400.92 1569.5 1365.85 1569.5 1330.78 1569.5 1303.5 1579.85 1303.5 1591.5 1303.5 1591.5 1303.5 1591.5 1303.5 1591.5 1303.5 1944.79 1303.5 1944.79 1303.5 1944.79 1303.5 1956.44 1330.78 1965.5 1365.85 1965.5 1400.92 1965.5 1429.5 1956.44 1429.5 1944.79 1429.5 1591.5 1429.5 1591.5 1429.5 1591.5Z" stroke="#333333" stroke-width="2.86476" stroke-linecap="round" stroke-linejoin="round" stroke-miterlimit="10" fill="none" fill-rule="evenodd"/><path d="M1179 1591C1179 1579.35 1207.58 1569 1242.65 1569 1276.42 1569 1305 1579.35 1305 1591 1305 1591 1305 1591 1305 1591 1305 1944.29 1305 1944.29 1305 1944.29 1305 1955.94 1276.42 1965 1242.65 1965 1207.58 1965 1179 1955.94 1179 1944.29 1179 1591 1179 1591 1179 1591Z" fill="#E00000" fill-rule="evenodd"/><path d="M1187.29 1940.26C1200.2 1600.81 1200.2 1600.81 1200.2 1600.81 1200.2 1589.2 1227.3 1580.16 1262.15 1580.16 1276.35 1580.16 1286.67 1584.03 1297 1585.33 1286.67 1580.16 1269.9 1575 1247.95 1575 1214.4 1575 1186 1585.33 1186 1596.94 1186 1941.55 1186 1941.55 1186 1941.55 1186 1948 1187.29 1944.13 1187.29 1940.26Z" fill="#FFFFFF" fill-rule="evenodd"/><path d="M1295.71 1593.77C1284.09 1934.39 1284.09 1934.39 1284.09 1934.39 1284.09 1946.05 1255.7 1955.11 1220.85 1955.11 1206.65 1955.11 1196.33 1951.23 1186 1948.64 1197.62 1953.82 1214.4 1959 1235.05 1959 1269.9 1959 1297 1949.93 1297 1938.28 1297 1592.48 1297 1592.48 1297 1592.48 1297 1586 1295.71 1589.89 1295.71 1593.77Z" fill="#B90000" fill-rule="evenodd"/><path d="M1297.36 1593C1296.04 1938.31 1296.04 1938.31 1296.04 1938.31 1296.04 1947.36 1269.64 1959 1234 1959 1234 1959 1234 1959 1234 1959 1265.68 1959 1300 1953.83 1300 1938.31 1297.36 1593 1297.36 1593 1297.36 1593Z" fill="#FFFFFF" fill-rule="evenodd"/><path d="M1179.5 1591.5C1179.5 1579.85 1208.08 1569.5 1243.15 1569.5 1276.92 1569.5 1305.5 1579.85 1305.5 1591.5 1305.5 1591.5 1305.5 1591.5 1305.5 1591.5 1305.5 1944.79 1305.5 1944.79 1305.5 1944.79 1305.5 1956.44 1276.92 1965.5 1243.15 1965.5 1208.08 1965.5 1179.5 1956.44 1179.5 1944.79 1179.5 1591.5 1179.5 1591.5 1179.5 1591.5Z" stroke="#333333" stroke-width="2.86476" stroke-linecap="round" stroke-linejoin="round" stroke-miterlimit="10" fill="none" fill-rule="evenodd"/></g></svg>