<svg width="235" height="432" xmlns="http://www.w3.org/2000/svg" xmlns:xlink="http://www.w3.org/1999/xlink" xml:space="preserve" overflow="hidden"><g transform="translate(-752 -1163)"><path d="M753 1389.5C753 1277.11 771.58 1186 794.5 1186 817.42 1186 836 1277.11 836 1389.5 836 1501.89 817.42 1593 794.5 1593 771.58 1593 753 1501.89 753 1389.5Z" fill="#1774FF" fill-rule="evenodd"/><path d="M811.808 1205C818.25 1241.15 822.115 1290.2 822.115 1344.42 822.115 1455.45 805.365 1545.82 783.461 1545.82 778.308 1545.82 773.154 1539.36 768 1529.03 775.731 1567.76 786.038 1591 796.346 1591 818.25 1591 835 1500.63 835 1389.61 835 1306.99 824.692 1234.69 811.808 1205Z" fill="#166BCE" fill-rule="evenodd"/><path d="M812.157 1195C826.608 1228.49 837.118 1296.75 837.118 1377.9 837.118 1489.96 818.725 1585.27 793.765 1585.27 788.51 1585.27 781.941 1577.54 778 1572.39 783.255 1586.56 791.137 1593 797.706 1593 823.98 1593 845 1502.84 845 1389.49 845 1298.04 830.549 1219.47 812.157 1195Z" fill="#FFFFFF" fill-rule="evenodd"/><path d="M770.769 1523.39C764.231 1487.35 768.154 1439.72 768.154 1388.23 768.154 1285.26 781.231 1192.57 804.769 1192.57 806.077 1192.57 810 1196.44 810 1197.72 807.385 1192.57 803.461 1190 799.538 1190 776 1190 759 1278.82 759 1381.8 759 1439.72 762.923 1491.21 769.461 1527.26 776 1553 774.692 1546.56 770.769 1523.39Z" fill="#FFFFFF" fill-rule="evenodd"/><path d="M961.823 1206.51C956.673 1197.5 946.372 1180.75 928.346 1173.02 915.47 1166.58 898.732 1164 875.555 1164 826.627 1164 798.301 1178.17 788 1191.05 791.863 1187.19 794.438 1185.9 798.301 1185.9 824.052 1185.9 844.653 1277.37 844.653 1389.45 844.653 1493.8 826.627 1580.12 804.738 1591.71 804.738 1593 804.738 1593 804.738 1593 817.614 1585.27 835.64 1581.41 856.242 1581.41 876.843 1581.41 894.869 1586.56 909.033 1593 909.033 1593 909.033 1593 909.033 1593 907.745 1593 907.745 1591.71 906.457 1591.71 906.457 1591.71 906.457 1591.71 906.457 1591.71 905.17 1590.42 905.17 1590.42 905.17 1590.42 905.17 1590.42 905.17 1590.42 905.17 1590.42 903.882 1589.14 902.595 1589.14 902.595 1587.85 902.595 1587.85 902.595 1587.85 902.595 1587.85 901.307 1587.85 901.307 1586.56 900.019 1585.27 900.019 1585.27 900.019 1585.27 900.019 1585.27 900.019 1585.27 898.732 1583.98 898.732 1582.69 898.732 1582.69 898.732 1582.69 898.732 1582.69 897.444 1581.41 897.444 1581.41 896.157 1580.12 896.157 1580.12 896.157 1580.12 896.157 1580.12 896.157 1578.83 894.869 1577.54 894.869 1576.25 894.869 1576.25 894.869 1576.25 894.869 1576.25 893.582 1574.96 893.582 1573.68 892.294 1572.39 892.294 1572.39 892.294 1572.39 892.294 1572.39 892.294 1571.1 891.006 1569.81 891.006 1567.23 891.006 1567.23 891.006 1567.23 891.006 1567.23 887.144 1556.93 892.294 1544.04 889.719 1527.3 889.719 1527.3 889.719 1527.3 889.719 1527.3 889.719 1526.01 888.431 1523.43 888.431 1522.14 888.431 1520.86 888.431 1520.86 888.431 1520.86 888.431 1518.28 887.144 1516.99 887.144 1515.7 887.144 1514.41 887.144 1513.13 887.144 1513.13 887.144 1511.84 885.856 1509.26 885.856 1507.97 885.856 1506.68 885.856 1506.68 885.856 1505.4 885.856 1504.11 884.568 1501.53 884.568 1500.24 884.568 1498.95 884.568 1497.67 884.568 1497.67 884.568 1495.09 884.568 1493.8 883.281 1492.51 883.281 1491.23 883.281 1489.94 883.281 1488.65 883.281 1487.36 883.281 1486.07 883.281 1484.78 881.993 1483.5 881.993 1482.21 881.993 1480.92 881.993 1478.34 881.993 1477.05 881.993 1475.77 881.993 1474.48 881.993 1473.19 881.993 1471.9 880.706 1470.61 880.706 1468.04 880.706 1466.75 880.706 1465.46 880.706 1464.17 880.706 1462.88 880.706 1461.59 880.706 1459.02 880.706 1457.73 880.706 1456.44 879.418 1455.15 879.418 1453.86 879.418 1451.29 879.418 1450 879.418 1448.71 879.418 1447.42 879.418 1444.85 879.418 1443.56 879.418 1442.27 879.418 1440.98 879.418 1439.69 879.418 1437.12 878.131 1435.83 878.131 1434.54 878.131 1433.25 878.131 1430.68 878.131 1429.39 878.131 1428.1 878.131 1425.52 878.131 1424.23 878.131 1422.95 878.131 1421.66 878.131 1420.37 878.131 1417.79 878.131 1416.5 878.131 1413.93 878.131 1412.64 878.131 1411.35 878.131 1410.06 878.131 1407.49 878.131 1404.91 878.131 1403.62 878.131 1402.33 878.131 1401.04 878.131 1399.76 878.131 1395.89 878.131 1393.32 878.131 1389.45 878.131 1277.37 887.144 1185.9 912.895 1185.9 938.647 1185.9 957.961 1277.37 957.961 1389.45 957.961 1498.95 939.935 1587.85 915.47 1593 916.758 1593 916.758 1593 916.758 1593 924.484 1593 947.66 1580.12 960.536 1559.5 975.987 1527.3 985 1462.88 985 1381.72 985 1300.56 975.987 1240.01 961.823 1206.51Z" fill="#166DDA" fill-rule="evenodd"/><path d="M905.965 1591.71C904.674 1590.42 904.674 1590.42 904.674 1590.42 904.674 1590.42 904.674 1590.42 904.674 1590.42 903.384 1589.13 902.093 1589.13 902.093 1587.85 902.093 1587.85 902.093 1587.85 902.093 1587.85 900.802 1587.85 900.802 1586.56 899.512 1585.27 899.512 1585.27 899.512 1585.27 899.512 1585.27 899.512 1585.27 898.221 1583.98 898.221 1582.69 898.221 1582.69 898.221 1582.69 898.221 1582.69 896.93 1581.4 896.93 1581.4 895.64 1580.12 895.64 1580.12 895.64 1580.12 895.64 1580.12 895.64 1578.83 894.349 1577.54 894.349 1576.25 894.349 1576.25 894.349 1576.25 894.349 1576.25 893.058 1574.96 893.058 1573.67 891.768 1572.39 891.768 1572.39 891.768 1572.39 891.768 1572.39 891.768 1571.1 890.477 1569.81 890.477 1567.23 890.477 1567.23 890.477 1567.23 890.477 1567.23 886.605 1556.93 891.768 1544.04 889.186 1527.29 889.186 1527.29 889.186 1527.29 889.186 1527.29 889.186 1526.01 887.895 1523.43 887.895 1522.14 887.895 1520.85 887.895 1520.85 887.895 1520.85 887.895 1518.28 886.605 1516.99 886.605 1515.7 886.605 1514.41 886.605 1513.12 886.605 1513.12 886.605 1511.83 885.314 1509.26 885.314 1507.97 885.314 1506.68 885.314 1506.68 885.314 1505.39 885.314 1504.1 884.023 1501.53 884.023 1500.24 884.023 1498.95 884.023 1497.66 884.023 1497.66 884.023 1495.09 884.023 1493.8 882.733 1492.51 882.733 1491.22 882.733 1489.93 882.733 1488.64 882.733 1487.36 882.733 1486.07 882.733 1484.78 881.442 1483.49 881.442 1482.2 881.442 1480.91 881.442 1478.34 881.442 1477.05 881.442 1475.76 881.442 1474.47 881.442 1473.18 881.442 1471.9 880.151 1470.61 880.151 1468.03 880.151 1466.74 880.151 1465.45 880.151 1464.17 880.151 1462.88 880.151 1461.59 880.151 1459.01 880.151 1457.72 880.151 1456.44 878.861 1455.15 878.861 1453.86 878.861 1451.28 878.861 1449.99 878.861 1448.71 878.861 1447.42 878.861 1444.84 878.861 1443.55 878.861 1442.26 878.861 1440.98 878.861 1439.69 878.861 1437.11 877.57 1435.82 877.57 1434.53 877.57 1433.25 877.57 1430.67 877.57 1429.38 877.57 1428.09 877.57 1425.52 877.57 1424.23 877.57 1422.94 877.57 1421.65 877.57 1420.36 877.57 1417.79 877.57 1416.5 877.57 1413.92 877.57 1412.63 877.57 1411.34 877.57 1410.06 877.57 1407.48 877.57 1404.9 877.57 1403.61 877.57 1402.33 877.57 1401.04 877.57 1399.75 877.57 1395.88 877.57 1393.31 877.57 1389.44 877.57 1292.82 881.442 1211.65 902.093 1191.04 902.093 1189.75 902.093 1189.75 902.093 1189.75 915 1178.15 878.861 1173 859.5 1175.58 829.814 1178.15 815.616 1189.75 815.616 1200.06 815.616 1201.34 815.616 1201.34 815.616 1201.34 832.395 1230.98 844.012 1304.41 844.012 1389.44 844.012 1493.8 825.942 1580.12 804 1591.71 804 1593 804 1593 804 1593 816.907 1585.27 834.977 1581.4 855.628 1581.4 876.279 1581.4 894.349 1586.56 908.547 1593 908.547 1593 908.547 1593 908.547 1593 907.256 1593 907.256 1591.71 905.965 1591.71 905.965 1591.71 905.965 1591.71 905.965 1591.71Z" fill="#175C83" fill-rule="evenodd"/><path d="M905.965 1591.71C904.674 1590.42 904.674 1590.42 904.674 1590.42 904.674 1590.42 904.674 1590.42 904.674 1590.42 903.384 1589.13 902.093 1589.13 902.093 1587.85 902.093 1587.85 902.093 1587.85 902.093 1587.85 900.802 1587.85 900.802 1586.56 899.512 1585.27 899.512 1585.27 899.512 1585.27 899.512 1585.27 899.512 1585.27 898.221 1583.98 898.221 1582.69 898.221 1582.69 898.221 1582.69 898.221 1582.69 896.93 1581.4 896.93 1581.4 895.64 1580.12 895.64 1580.12 895.64 1580.12 895.64 1580.12 895.64 1578.83 894.349 1577.54 894.349 1576.25 894.349 1576.25 894.349 1576.25 894.349 1576.25 893.058 1574.96 893.058 1573.67 891.768 1572.39 891.768 1572.39 891.768 1572.39 891.768 1572.39 891.768 1571.1 890.477 1569.81 890.477 1567.23 890.477 1567.23 890.477 1567.23 890.477 1567.23 886.605 1556.93 891.768 1544.04 889.186 1527.29 889.186 1527.29 889.186 1527.29 889.186 1527.29 889.186 1526.01 887.895 1523.43 887.895 1522.14 887.895 1520.85 887.895 1520.85 887.895 1520.85 887.895 1518.28 886.605 1516.99 886.605 1515.7 886.605 1514.41 886.605 1513.12 886.605 1513.12 886.605 1511.83 885.314 1509.26 885.314 1507.97 885.314 1506.68 885.314 1506.68 885.314 1505.39 885.314 1504.1 884.023 1501.53 884.023 1500.24 884.023 1498.95 884.023 1497.66 884.023 1497.66 884.023 1495.09 884.023 1493.8 882.733 1492.51 882.733 1491.22 882.733 1489.93 882.733 1488.64 882.733 1487.36 882.733 1486.07 882.733 1484.78 881.442 1483.49 881.442 1482.2 881.442 1480.91 881.442 1478.34 881.442 1477.05 881.442 1475.76 881.442 1474.47 881.442 1473.18 881.442 1471.9 880.151 1470.61 880.151 1468.03 880.151 1466.74 880.151 1465.45 880.151 1464.17 880.151 1462.88 880.151 1461.59 880.151 1459.01 880.151 1457.72 880.151 1456.44 878.861 1455.15 878.861 1453.86 878.861 1451.28 878.861 1449.99 878.861 1448.71 878.861 1447.42 878.861 1444.84 878.861 1443.55 878.861 1442.26 878.861 1440.98 878.861 1439.69 878.861 1437.11 877.57 1435.82 877.57 1434.53 877.57 1433.25 877.57 1430.67 877.57 1429.38 877.57 1428.09 877.57 1425.52 877.57 1424.23 877.57 1422.94 877.57 1421.65 877.57 1420.36 877.57 1417.79 877.57 1416.5 877.57 1413.92 877.57 1412.63 877.57 1411.34 877.57 1410.06 877.57 1407.48 877.57 1404.9 877.57 1403.61 877.57 1402.33 877.57 1401.04 877.57 1399.75 877.57 1395.88 877.57 1393.31 877.57 1389.44 877.57 1292.82 881.442 1211.65 902.093 1191.04 902.093 1189.75 902.093 1189.75 902.093 1189.75 915 1178.15 878.861 1173 859.5 1175.58 829.814 1178.15 815.616 1189.75 815.616 1200.06 815.616 1201.34 815.616 1201.34 815.616 1201.34 832.395 1230.98 837.558 1304.41 837.558 1389.44 837.558 1493.8 825.942 1580.12 804 1591.71 804 1593 804 1593 804 1593 816.907 1585.27 834.977 1581.4 855.628 1581.4 876.279 1581.4 894.349 1586.56 908.547 1593 908.547 1593 908.547 1593 908.547 1593 907.256 1593 907.256 1591.71 905.965 1591.71 905.965 1591.71 905.965 1591.71 905.965 1591.71ZM853.047 1325.02C850.465 1286.37 844.012 1251.59 837.558 1225.82 833.686 1215.52 832.395 1192.33 847.884 1188.46 851.756 1188.46 855.628 1188.46 860.791 1187.17 868.535 1187.17 874.988 1185.88 881.442 1187.17 886.605 1187.17 886.605 1192.33 885.314 1194.9 869.826 1221.96 860.791 1272.2 856.919 1326.31 855.628 1346.93 854.337 1344.35 853.047 1325.02ZM869.826 1571.1C867.244 1571.1 864.663 1571.1 862.081 1569.81 846.593 1567.23 837.558 1556.93 844.012 1523.43 851.756 1486.07 855.628 1438.4 855.628 1393.31 855.628 1395.88 855.628 1399.75 855.628 1399.75 855.628 1402.33 855.628 1402.33 855.628 1402.33 855.628 1410.06 855.628 1410.06 855.628 1410.06 855.628 1420.36 855.628 1420.36 855.628 1420.36 855.628 1430.67 855.628 1430.67 855.628 1430.67 855.628 1434.53 855.628 1434.53 855.628 1434.53 856.919 1439.69 856.919 1439.69 856.919 1439.69 856.919 1444.84 856.919 1444.84 856.919 1444.84 856.919 1449.99 856.919 1449.99 856.919 1449.99 856.919 1455.15 856.919 1455.15 856.919 1455.15 858.209 1459.01 858.209 1459.01 858.209 1459.01 858.209 1462.88 858.209 1462.88 858.209 1462.88 858.209 1468.03 858.209 1468.03 858.209 1468.03 859.5 1473.18 859.5 1473.18 859.5 1473.18 859.5 1477.05 859.5 1477.05 859.5 1477.05 859.5 1482.2 859.5 1482.2 859.5 1482.2 860.791 1489.93 860.791 1489.93 860.791 1489.93 862.081 1495.09 862.081 1495.09 862.081 1495.09 862.081 1498.95 862.081 1498.95 862.081 1498.95 862.081 1501.53 862.081 1501.53 862.081 1501.53 863.372 1506.68 863.372 1506.68 863.372 1506.68 864.663 1514.41 864.663 1514.41 864.663 1514.41 864.663 1516.99 864.663 1516.99 864.663 1516.99 865.954 1522.14 865.954 1522.14 865.954 1522.14 865.954 1523.43 865.954 1523.43 865.954 1523.43 865.954 1524.72 867.244 1529.87 867.244 1529.87 869.826 1542.75 873.698 1554.35 876.279 1564.66 877.57 1567.23 873.698 1571.1 869.826 1571.1Z" fill="#173E40" fill-rule="evenodd"/><path d="M859 1187.1C871.609 1185.83 888 1182 888 1189.65 888 1198.58 875.391 1211.33 871.609 1233 874.13 1211.33 884.217 1193.48 881.696 1190.93 877.913 1185.83 861.522 1188.38 859 1187.1Z" fill="#FFFFFF" fill-rule="evenodd"/><path d="M927 1195C927 1195 927 1195 927 1195 945.243 1220.78 958.273 1298.12 958.273 1389.63 958.273 1477.28 946.546 1550.75 929.606 1580.4 929.606 1592 929.606 1592 929.606 1592 951.758 1580.4 970 1494.04 970 1389.63 970 1304.56 960.879 1234.96 927 1195Z" fill="#175C83" fill-rule="evenodd"/><path d="M852 1470.84C854.75 1459.23 857.5 1466.97 860.25 1470.84 863 1476 861.625 1446.32 861.625 1446.32 860.25 1403.74 860.25 1403.74 860.25 1403.74 852 1396 852 1396 852 1396" fill="#173E40" fill-rule="evenodd"/><path d="M874 1389.5C874 1277.11 892.804 1186 916 1186 939.196 1186 958 1277.11 958 1389.5 958 1501.89 939.196 1593 916 1593 892.804 1593 874 1501.89 874 1389.5Z" fill="#1774FF" fill-rule="evenodd"/><path d="M930.552 1201C938.31 1238.39 943.483 1287.39 943.483 1342.84 943.483 1456.32 922.793 1546.58 898.224 1546.58 891.759 1546.58 889.173 1541.42 884 1531.11 891.759 1569.79 899.517 1593 912.448 1593 938.31 1593 959 1502.74 959 1389.26 959 1305.45 947.362 1231.95 930.552 1201Z" fill="#166BCE" fill-rule="evenodd"/><path d="M926.647 1195C940.882 1228.49 951.235 1296.75 951.235 1377.9 951.235 1489.96 933.118 1585.27 908.529 1585.27 903.353 1585.27 896.882 1577.54 893 1572.39 898.177 1586.56 905.941 1593 912.412 1593 938.294 1593 959 1502.84 959 1389.49 959 1298.04 944.765 1219.47 926.647 1195Z" fill="#FFFFFF" fill-rule="evenodd"/><path d="M889.5 1523.34C884.389 1487.22 886.944 1439.5 886.944 1387.91 886.944 1284.73 894.611 1189.29 917.611 1189.29 918.889 1189.29 924 1194.45 924 1194.45 920.167 1190.58 918.889 1188 915.056 1188 892.056 1188 878 1278.28 878 1381.46 878 1439.5 881.833 1491.09 889.5 1527.21 894.611 1553 893.333 1546.55 889.5 1523.34Z" fill="#FFFFFF" fill-rule="evenodd"/><path d="M804.5 1592.28C804.5 1593.5 804.5 1593.5 804.5 1593.5 817.463 1586.17 835.611 1582.5 856.352 1582.5 877.093 1582.5 895.241 1587.39 909.5 1593.5" stroke="#000073" stroke-width="2.86476" stroke-linecap="round" stroke-linejoin="round" stroke-miterlimit="10" fill="none" fill-rule="evenodd"/><path d="M904.446 1188.66C913.5 1178.55 879.873 1173.5 860.473 1176.03 832.02 1178.55 819.087 1188.66 816.5 1197.5" stroke="#000073" stroke-width="2.86476" stroke-linecap="round" stroke-linejoin="round" stroke-miterlimit="10" fill="none" fill-rule="evenodd"/><path d="M874.5 1390C874.5 1277.61 893.304 1186.5 916.5 1186.5 939.696 1186.5 958.5 1277.61 958.5 1390 958.5 1502.39 939.696 1593.5 916.5 1593.5 893.304 1593.5 874.5 1502.39 874.5 1390Z" stroke="#000073" stroke-width="2.86476" stroke-linecap="round" stroke-linejoin="round" stroke-miterlimit="10" fill="none" fill-rule="evenodd"/><path d="M753.5 1390C753.5 1277.61 772.08 1186.5 795 1186.5 817.92 1186.5 836.5 1277.61 836.5 1390 836.5 1502.39 817.92 1593.5 795 1593.5 772.08 1593.5 753.5 1502.39 753.5 1390Z" stroke="#000073" stroke-width="2.86476" stroke-linecap="round" stroke-linejoin="round" stroke-miterlimit="10" fill="none" fill-rule="evenodd"/><path d="M913.395 1186.4C939.147 1186.4 958.461 1277.87 958.461 1389.95 958.461 1393.82 958.461 1397.68 958.461 1400.26 958.461 1401.55 958.461 1402.83 958.461 1404.12 958.461 1406.7 958.461 1407.99 958.461 1410.56 958.461 1411.85 958.461 1413.14 958.461 1414.43 958.461 1417 958.461 1418.29 958.461 1420.87 958.461 1422.16 958.461 1423.45 958.461 1424.73 958.461 1427.31 958.461 1428.6 958.461 1431.18 958.461 1432.46 958.461 1433.75 958.461 1435.04 958.461 1436.33 957.173 1438.91 957.173 1440.19 957.173 1441.48 957.173 1442.77 957.173 1445.35 957.173 1446.64 957.173 1447.92 957.173 1450.5 957.173 1451.79 957.173 1453.08 957.173 1454.36 957.173 1455.65 955.886 1458.23 955.886 1459.52 955.886 1460.81 955.886 1462.09 955.886 1463.38 955.886 1464.67 955.886 1467.25 955.886 1468.54 955.886 1469.82 955.886 1471.11 954.598 1472.4 954.598 1473.69 954.598 1476.27 954.598 1477.55 954.598 1478.84 954.598 1480.13 954.598 1481.42 954.598 1482.71 953.31 1484 953.31 1486.57 953.31 1487.86 953.31 1489.15 953.31 1490.44 953.31 1491.73 953.31 1493.01 952.023 1494.3 952.023 1495.59 952.023 1496.88 952.023 1498.17 952.023 1499.46 952.023 1500.74 952.023 1503.32 950.735 1504.61 950.735 1505.9 950.735 1507.18 950.735 1508.47 950.735 1509.76 950.735 1511.05 949.448 1512.34 949.448 1513.63 949.448 1514.91 949.448 1516.2 949.448 1517.49 949.448 1518.78 948.16 1520.07 948.16 1521.36 948.16 1521.36 948.16 1522.64 948.16 1523.93 948.16 1525.22 946.873 1526.51 946.873 1527.8 946.873 1529.09 946.873 1530.37 946.873 1531.66 945.585 1532.95 945.585 1534.24 945.585 1535.53 945.585 1535.53 945.585 1536.82 944.297 1538.1 944.297 1539.39 944.297 1540.68 944.297 1541.97 944.297 1543.26 943.01 1543.26 943.01 1544.55 943.01 1545.83 943.01 1547.12 941.722 1548.41 941.722 1548.41 941.722 1549.7 941.722 1550.99 941.722 1552.27 940.435 1552.27 940.435 1553.56 940.435 1554.85 940.435 1556.14 939.147 1556.14 939.147 1557.43 939.147 1558.72 939.147 1560 939.147 1560 937.859 1561.29 937.859 1562.58 937.859 1562.58 937.859 1563.87 936.572 1565.16 936.572 1565.16 936.572 1566.45 936.572 1566.45 935.284 1567.73 935.284 1569.02 935.284 1569.02 935.284 1570.31 933.997 1571.6 933.997 1571.6 933.997 1572.89 932.709 1574.18 932.709 1574.18 932.709 1574.18 932.709 1575.46 932.709 1575.46 931.422 1576.75 931.422 1578.04 931.422 1578.04 931.422 1578.04 930.134 1579.33 930.134 1579.33 930.134 1580.62 928.846 1581.91 928.846 1581.91 928.846 1581.91 928.846 1583.19 928.846 1583.19 927.559 1583.19 927.559 1584.48 927.559 1584.48 926.271 1585.77 926.271 1585.77 926.271 1585.77 926.271 1585.77 924.984 1587.06 924.984 1587.06 924.984 1588.35 923.696 1588.35 923.696 1588.35 923.696 1588.35 923.696 1589.64 922.409 1589.64 922.409 1589.64 922.409 1590.92 922.409 1590.92 921.121 1590.92 921.121 1590.92 921.121 1590.92 919.833 1592.21 919.833 1592.21 919.833 1592.21 919.833 1592.21 918.546 1592.21 918.546 1593.5 918.546 1593.5 917.258 1593.5 917.258 1593.5 917.258 1593.5 915.971 1593.5 915.971 1593.5 915.971 1593.5 917.258 1593.5 917.258 1593.5 917.258 1593.5 924.984 1593.5 948.16 1580.62 961.036 1560 976.487 1527.8 985.5 1463.38 985.5 1382.22 985.5 1301.06 976.487 1240.51 962.324 1207.01 957.173 1198 946.873 1181.25 928.846 1173.52 915.971 1167.08 899.232 1164.5 876.056 1164.5 827.128 1164.5 798.801 1178.67 788.5 1191.55" stroke="#000073" stroke-width="2.86476" stroke-linecap="round" stroke-linejoin="round" stroke-miterlimit="10" fill="none" fill-rule="evenodd"/></g></svg>