<svg width="210" height="441" xmlns="http://www.w3.org/2000/svg" xmlns:xlink="http://www.w3.org/1999/xlink" xml:space="preserve" overflow="hidden"><g transform="translate(-3227 -1163)"><path d="M3228 1383C3228 1269.78 3248.6 1178 3274 1178 3299.41 1178 3320 1269.78 3320 1383 3320 1496.22 3299.41 1588 3274 1588 3248.6 1588 3228 1496.22 3228 1383Z" fill="#FFA976" fill-rule="evenodd"/><path d="M3343 1383C3343 1269.78 3363.59 1178 3389 1178 3414.41 1178 3435 1269.78 3435 1383 3435 1496.22 3414.41 1588 3389 1588 3363.59 1588 3343 1496.22 3343 1383Z" fill="#FFA976" fill-rule="evenodd"/><path d="M3387.83 1587.79C3363.35 1587.79 3342.73 1496.05 3342.73 1382.35 3342.73 1269.95 3363.35 1178.21 3387.83 1178.21 3392.98 1178.21 3398.13 1182.09 3402 1187.26 3394.27 1174.34 3365.92 1164 3331.13 1164 3304.08 1164 3279.6 1170.46 3268 1180.8 3269.29 1179.5 3271.87 1178.21 3274.44 1178.21 3298.92 1178.21 3319.54 1269.95 3319.54 1382.35 3319.54 1496.05 3298.92 1587.79 3274.44 1587.79 3271.87 1587.79 3270.58 1586.5 3268 1586.5 3280.88 1595.54 3304.08 1602 3331.13 1602 3364.63 1602 3392.98 1587.79 3387.83 1587.79Z" fill="#FF9100" fill-rule="evenodd"/><path d="M3331.13 1164C3304.08 1164 3279.6 1170.46 3268 1180.8 3269.29 1179.5 3271.87 1178.21 3274.44 1178.21 3298.92 1178.21 3311.81 1269.95 3311.81 1382.35 3311.81 1496.05 3298.92 1587.79 3274.44 1587.79 3271.87 1587.79 3270.58 1586.5 3268 1586.5 3280.88 1595.54 3304.08 1602 3331.13 1602 3364.63 1602 3392.98 1587.79 3387.83 1587.79 3363.35 1587.79 3350.46 1496.05 3350.46 1382.35 3350.46 1269.95 3363.35 1178.21 3387.83 1178.21 3392.98 1178.21 3398.13 1182.09 3402 1187.26 3394.27 1174.34 3365.92 1164 3331.13 1164ZM3362.06 1580.04C3363.35 1582.62 3344.02 1590.37 3331.13 1590.37 3318.25 1590.37 3298.92 1582.62 3300.21 1580.04 3323.4 1541.27 3331.13 1448.25 3331.13 1386.23 3331.13 1448.25 3338.87 1541.27 3362.06 1580.04ZM3359.48 1189.84C3337.58 1231.19 3331.13 1320.34 3331.13 1379.77 3331.13 1320.34 3324.69 1232.48 3302.79 1191.13 3300.21 1185.96 3316.96 1178.21 3331.13 1178.21 3345.31 1178.21 3362.06 1185.96 3359.48 1189.84Z" fill="#FF7300" fill-rule="evenodd"/><path d="M3291.05 1194C3300.22 1231.49 3304.15 1280.62 3304.15 1336.2 3304.15 1449.97 3283.2 1540.46 3258.33 1540.46 3251.78 1540.46 3245.24 1535.29 3240 1524.95 3249.16 1563.73 3260.95 1587 3274.04 1587 3298.91 1587 3312 1496.51 3312 1382.74 3312 1298.71 3308.07 1225.03 3291.05 1194Z" fill="#FFA044" fill-rule="evenodd"/><path d="M3287.35 1187C3302.74 1220.66 3313 1289.27 3313 1370.82 3313 1483.44 3295.04 1579.23 3269.39 1579.23 3264.26 1579.23 3257.85 1571.47 3254 1566.29 3260.41 1580.53 3266.83 1587 3274.52 1587 3298.89 1587 3311.72 1496.39 3311.72 1382.47 3311.72 1290.56 3305.3 1211.6 3287.35 1187Z" fill="#FFFFFF" fill-rule="evenodd"/><path d="M3245.7 1517.23C3240.5 1480.99 3243.1 1433.1 3243.1 1381.33 3243.1 1277.78 3256.1 1184.59 3279.5 1184.59 3280.8 1184.59 3284.7 1188.47 3286 1189.77 3282.1 1184.59 3278.2 1182 3274.3 1182 3250.9 1182 3234 1271.31 3234 1374.85 3234 1433.1 3237.9 1484.87 3245.7 1521.11 3250.9 1547 3249.6 1540.53 3245.7 1517.23Z" fill="#FFFFFF" fill-rule="evenodd"/><path d="M3406.51 1194C3415.57 1231.49 3419.46 1280.62 3419.46 1336.2 3419.46 1449.97 3400.03 1540.46 3374.13 1540.46 3367.66 1540.46 3361.18 1535.29 3356 1524.95 3365.07 1563.73 3376.72 1587 3389.67 1587 3414.28 1587 3435 1496.51 3435 1382.74 3435 1298.71 3423.34 1225.03 3406.51 1194Z" fill="#FFA044" fill-rule="evenodd"/><path d="M3402.16 1187C3417.92 1220.66 3428.43 1289.27 3428.43 1370.82 3428.43 1483.44 3410.04 1579.23 3383.76 1579.23 3379.82 1579.23 3371.94 1571.47 3368 1566.29 3374.57 1580.53 3381.14 1587 3389.02 1587 3413.98 1587 3435 1496.39 3435 1382.47 3435 1290.56 3421.86 1211.6 3402.16 1187Z" fill="#FFFFFF" fill-rule="evenodd"/><path d="M3360.7 1517.23C3355.5 1480.99 3358.1 1433.1 3358.1 1381.33 3358.1 1277.78 3372.4 1184.59 3395.8 1184.59 3395.8 1184.59 3399.7 1188.47 3401 1189.77 3397.1 1184.59 3393.2 1182 3389.3 1182 3365.9 1182 3349 1271.31 3349 1374.85 3349 1433.1 3352.9 1484.87 3360.7 1521.11 3365.9 1547 3364.6 1540.53 3360.7 1517.23Z" fill="#FFFFFF" fill-rule="evenodd"/><path d="M3334 1181C3320.92 1182.26 3305.23 1192.37 3309.15 1205 3307.85 1199.95 3301.31 1192.37 3300 1187.32 3300 1186.05 3301.31 1186.05 3302.62 1186.05" fill="#FF7300" fill-rule="evenodd"/><path d="M3310.35 1555C3307.76 1566.7 3303.86 1581 3319.43 1586.2 3335 1591.4 3309.05 1594 3309.05 1594 3287 1583.6 3287 1583.6 3287 1583.6" fill="#FF7300" fill-rule="evenodd"/><path d="M3325 1483.18C3328.75 1471.45 3332.5 1474.06 3336.25 1483.18 3340 1491 3340 1448 3340 1448 3332.5 1405 3332.5 1405 3332.5 1405" fill="#FF7300" fill-rule="evenodd"/><path d="M3303 1184.4C3305.57 1184.4 3305.57 1184.4 3305.57 1184.4 3310.7 1180.5 3320.96 1177.9 3332.5 1177.9 3347.89 1177.9 3359.43 1183.1 3362 1187 3362 1187 3362 1187 3362 1187 3358.15 1180.5 3347.89 1174 3332.5 1174 3319.67 1174 3309.41 1179.2 3303 1184.4Z" fill="#FFFFFF" fill-rule="evenodd"/><path d="M3228.5 1383.5C3228.5 1270.28 3247.3 1178.5 3270.5 1178.5 3293.7 1178.5 3312.5 1270.28 3312.5 1383.5 3312.5 1496.72 3293.7 1588.5 3270.5 1588.5 3247.3 1588.5 3228.5 1496.72 3228.5 1383.5Z" stroke="#750000" stroke-width="2.86476" stroke-linecap="round" stroke-linejoin="round" stroke-miterlimit="10" fill="none" fill-rule="evenodd"/><path d="M3350.5 1383.5C3350.5 1270.28 3369.53 1178.5 3393 1178.5 3416.47 1178.5 3435.5 1270.28 3435.5 1383.5 3435.5 1496.72 3416.47 1588.5 3393 1588.5 3369.53 1588.5 3350.5 1496.72 3350.5 1383.5Z" stroke="#750000" stroke-width="2.86476" stroke-linecap="round" stroke-linejoin="round" stroke-miterlimit="10" fill="none" fill-rule="evenodd"/><path d="M3388.33 1588.29C3363.85 1588.29 3350.96 1496.55 3350.96 1382.85 3350.96 1270.45 3363.85 1178.71 3388.33 1178.71 3393.48 1178.71 3398.63 1182.59 3402.5 1187.76 3394.77 1174.84 3366.42 1164.5 3331.63 1164.5 3304.58 1164.5 3280.1 1170.96 3268.5 1181.3 3269.79 1180 3272.37 1178.71 3274.94 1178.71 3299.42 1178.71 3312.31 1270.45 3312.31 1382.85 3312.31 1496.55 3299.42 1588.29 3274.94 1588.29 3272.37 1588.29 3271.08 1587 3268.5 1587 3281.38 1596.04 3304.58 1602.5 3331.63 1602.5 3365.13 1602.5 3393.48 1588.29 3388.33 1588.29Z" stroke="#750000" stroke-width="2.86476" stroke-linecap="round" stroke-linejoin="round" stroke-miterlimit="10" fill="none" fill-rule="evenodd"/><path d="M3292.5 1579.5C3301.57 1584.64 3315.81 1588.5 3332.65 1588.5 3353.37 1588.5 3371.5 1579.5 3368.91 1579.5" stroke="#750000" stroke-width="2.86476" stroke-linecap="round" stroke-linejoin="round" stroke-miterlimit="10" fill="none" fill-rule="evenodd"/><path d="M3364.5 1188.5C3360.59 1183.36 3348.85 1179.5 3333.2 1179.5 3320.15 1179.5 3309.72 1182.07 3304.5 1185.93" stroke="#750000" stroke-width="2.86476" stroke-linecap="round" stroke-linejoin="round" stroke-miterlimit="10" fill="none" fill-rule="evenodd"/><path d="M3354 1201C3349.2 1210.05 3344.4 1238.49 3342 1254 3342 1238.49 3348 1208.76 3354 1201Z" fill="#FFB5B5" fill-rule="evenodd"/></g></svg>