<svg width="1872" height="820" xmlns="http://www.w3.org/2000/svg" xmlns:xlink="http://www.w3.org/1999/xlink" xml:space="preserve" overflow="hidden"><g transform="translate(-741 -906)"><path d="M743 1724C743 1273.86 1161.76 908 1677 908 2192.24 908 2611 1273.86 2611 1724L743 1724Z" fill="#FEBD5F" fill-rule="evenodd"/><path d="M743 1724C743 1273.86 1161.76 908 1677 908 2192.24 908 2611 1273.86 2611 1724L743 1724Z" fill="#FF7F00" fill-rule="evenodd"/><path d="M1171 1724C2611 1724 2611 1724 2611 1724 2611 1719.89 2611 1713.71 2611 1709.6 2439.2 1532.7 2240.38 1327 1860.12 1327 1564.78 1327 1171 1501.84 1171 1724Z" fill="#FF920E" fill-rule="evenodd"/><path d="M1677 908C1161.76 908 743 1273.86 743 1724 883.872 1724 883.872 1724 883.872 1724 930.186 1573.95 930.186 1573.95 930.186 1573.95 999.657 1454.74 999.657 1454.74 999.657 1454.74 1018.95 1436.24 1018.95 1436.24 1018.95 1436.24 1018.95 1436.24 1020.88 1372.52 1018.95 1364.3 1015.09 1356.08 1049.83 1294.42 1049.83 1294.42 1096.14 1302.64 1096.14 1302.64 1096.14 1302.64 1152.11 1317.03 1152.11 1317.03 1152.11 1317.03 1424.2 1206.04 1424.2 1206.04 1424.2 1206.04 1530.34 1175.2 1530.34 1175.2 1530.34 1175.2 1551.57 1142.32 1551.57 1142.32 1551.57 1142.32 1590.16 1090.93 1590.16 1090.93 1590.16 1090.93 1638.41 1090.93 1638.41 1090.93 1638.41 1090.93 1678.93 1115.6 1678.93 1115.6 1678.93 1115.6 1690.51 1173.15 1690.51 1173.15 1690.51 1173.15 1862.26 1195.76 1862.26 1195.76 1862.26 1195.76 2116.98 1273.86 2116.98 1273.86 2116.98 1273.86 2184.52 1298.53 2184.52 1298.53 2184.52 1298.53 2201.89 1321.14 2201.89 1321.14 2201.89 1321.14 2242.42 1290.31 2242.42 1290.31 2242.42 1290.31 2323.47 1294.42 2323.47 1294.42 2323.47 1294.42 2340.83 1343.75 2340.83 1343.75 2340.83 1343.75 2319.61 1417.74 2319.61 1417.74 2319.61 1417.74 2425.74 1584.23 2425.74 1584.23 2425.74 1584.23 2458.55 1721.94 2458.55 1721.94 2458.55 1721.94 2458.55 1721.94 2460.48 1721.94 2462.41 1724 2611 1724 2611 1724 2611 1724 2611 1273.86 2192.24 908 1677 908Z" fill="#FEE2B4" fill-rule="evenodd"/><path d="M1206.34 1132.11C1191 1107.35 1208.26 1070.21 1244.69 1051.63 1281.13 1031 1323.32 1037.19 1338.66 1061.95 1354 1086.71 1336.74 1121.79 1300.31 1142.43 1263.87 1161 1221.68 1156.87 1206.34 1132.11Z" fill="#FEBD5F" fill-rule="evenodd"/><path d="M2095.27 1057.45C2114.54 1039 2156.93 1043.1 2189.68 1067.7 2222.44 1090.25 2234 1125.1 2214.73 1143.55 2195.46 1162 2153.07 1157.9 2120.32 1133.3 2087.56 1110.75 2076 1075.9 2095.27 1057.45Z" fill="#FEBD5F" fill-rule="evenodd"/><path d="M829.279 1518.55C808 1498.05 809.935 1455 831.213 1420.15 850.557 1385.3 885.377 1373 904.721 1393.5 926 1411.95 926 1455 904.721 1489.85 883.443 1524.7 848.623 1537 829.279 1518.55Z" fill="#FEBD5F" fill-rule="evenodd"/><path d="M1206.34 1132.11C1191 1107.35 1208.26 1070.21 1244.69 1051.63 1281.13 1031 1323.32 1037.19 1338.66 1061.95 1354 1086.71 1336.74 1121.79 1300.31 1142.43 1263.87 1161 1221.68 1156.87 1206.34 1132.11Z" fill="#FEC066" fill-rule="evenodd"/><path d="M2095.27 1057.45C2114.54 1039 2156.93 1043.1 2189.68 1067.7 2222.44 1090.25 2234 1125.1 2214.73 1143.55 2195.46 1162 2153.07 1157.9 2120.32 1133.3 2087.56 1110.75 2076 1075.9 2095.27 1057.45Z" fill="#FEC066" fill-rule="evenodd"/><path d="M829.279 1518.55C808 1498.05 809.935 1455 831.213 1420.15 850.557 1385.3 885.377 1373 904.721 1393.5 926 1411.95 926 1455 904.721 1489.85 883.443 1524.7 848.623 1537 829.279 1518.55Z" fill="#FEC066" fill-rule="evenodd"/><path d="M2498.43 1455C2527.44 1455 2556.46 1487.86 2562.26 1528.95 2570 1572.08 2552.59 1607 2525.51 1607 2496.49 1607 2467.48 1574.14 2459.74 1531 2452 1489.92 2469.41 1455 2498.43 1455Z" fill="#FEC066" fill-rule="evenodd"/><path d="M1299.88 1142.52C1330.63 1125.98 1346 1099.09 1344.08 1076.34 1322.94 1066 1294.11 1068.07 1269.13 1082.55 1238.38 1099.09 1223 1125.98 1224.92 1148.73 1246.06 1157 1274.89 1157 1299.88 1142.52Z" fill="#FF7F00" fill-rule="evenodd"/><path d="M1809.74 1049.47C1815.55 1020.53 1852.31 1004 1889.08 1014.33 1925.84 1022.6 1951 1053.6 1945.19 1082.53 1937.45 1111.47 1902.62 1128 1863.92 1119.73 1827.16 1111.47 1802 1080.47 1809.74 1049.47Z" fill="#FEBD5F" fill-rule="evenodd"/><path d="M1809.74 1049.47C1815.55 1020.53 1852.31 1004 1889.08 1014.33 1925.84 1022.6 1951 1053.6 1945.19 1082.53 1937.45 1111.47 1902.62 1128 1863.92 1119.73 1827.16 1111.47 1802 1080.47 1809.74 1049.47Z" fill="#FEC066" fill-rule="evenodd"/><path d="M1863.92 1119.76C1894.69 1126 1923.54 1117.68 1937 1096.89 1931.23 1076.11 1910.08 1059.47 1883.15 1053.24 1854.31 1047 1825.46 1055.32 1812 1076.11 1817.77 1094.82 1838.92 1113.53 1863.92 1119.76Z" fill="#FF7F00" fill-rule="evenodd"/><path d="M2085 1086.28C2088.87 1102.65 2100.49 1121.07 2119.86 1133.35 2148.9 1155.86 2185.7 1162 2207 1149.72 2205.06 1133.35 2193.44 1116.98 2174.08 1102.65 2145.03 1080.14 2108.24 1074 2085 1086.28Z" fill="#FF7F00" fill-rule="evenodd"/><path d="M1454.87 963.103C1458.74 948.621 1487.75 934.138 1518.7 932.069 1547.72 930 1569 942.414 1565.13 956.896 1561.26 973.448 1532.25 987.931 1503.23 990 1472.28 990 1451 979.655 1454.87 963.103Z" fill="#FEBD5F" fill-rule="evenodd"/><path d="M1454.87 963.103C1458.74 948.621 1487.75 934.138 1518.7 932.069 1547.72 930 1569 942.414 1565.13 956.896 1561.26 973.448 1532.25 987.931 1503.23 990 1472.28 990 1451 979.655 1454.87 963.103Z" fill="#FEC066" fill-rule="evenodd"/><path d="M1462 979.722C1469.77 985.889 1485.31 990 1502.79 990 1529.98 987.944 1555.23 975.611 1563 963.278 1555.23 957.111 1539.69 953 1522.21 955.055 1495.02 955.055 1469.77 967.389 1462 979.722Z" fill="#FF7F00" fill-rule="evenodd"/><path d="M866.25 1440.9C848.925 1469.6 847 1504.45 856.625 1527 873.95 1524.95 891.275 1512.65 904.75 1490.1 922.075 1461.4 924 1426.55 914.375 1404 897.05 1406.05 879.725 1420.4 866.25 1440.9Z" fill="#FF7F00" fill-rule="evenodd"/><path d="M2471.57 1469C2459.89 1483.42 2456 1506.09 2459.89 1530.82 2467.68 1567.91 2489.08 1596.76 2512.43 1605 2524.11 1590.58 2528 1567.91 2524.11 1543.18 2516.32 1508.15 2494.92 1477.24 2471.57 1469Z" fill="#FF7F00" fill-rule="evenodd"/><path d="M2313.44 1267.57C2280.5 1247 2239.81 1261.4 2222.38 1298.43 2222.38 1300.49 2220.44 1302.54 2220.44 1304.6 2220.44 1304.6 2220.44 1304.6 2220.44 1304.6 2204.94 1329.29 2204.94 1329.29 2204.94 1329.29 2204.94 1329.29 2203 1333.4 2206.88 1329.29 2226.25 1308.71 2268.88 1281.97 2301.81 1306.66 2327 1325.17 2334.75 1360.14 2325.06 1391 2330.88 1384.83 2336.69 1378.66 2342.5 1368.37 2358 1331.34 2346.38 1286.09 2313.44 1267.57Z" fill="#FDD089" fill-rule="evenodd"/><path d="M1685.93 1144C1685.93 1174.77 1685.93 1174.77 1685.93 1174.77 1685.93 1174.77 1684 1185.03 1697.52 1187.08 1882.96 1189.13 2058.74 1246.58 2188.16 1332.74 2199.75 1343 2205.55 1330.69 2205.55 1330.69 2221 1304.02 2221 1304.02 2221 1304.02 2078.06 1205.55 1890.69 1146.05 1685.93 1144Z" fill="#FEF0D6" fill-rule="evenodd"/><path d="M1545.22 1153C1387.21 1171.48 1242.69 1228.97 1129 1309.04 1144.42 1333.68 1144.42 1333.68 1144.42 1333.68 1144.42 1333.68 1150.2 1346 1165.61 1335.73 1269.67 1265.93 1396.84 1216.65 1537.51 1196.12 1551 1194.06 1549.07 1181.74 1549.07 1181.74L1545.22 1153Z" fill="#FEF0D6" fill-rule="evenodd"/><path d="M1612.57 1072.05C1573.92 1072.05 1543 1106.96 1544.93 1148.04 1544.93 1150.09 1544.93 1150.09 1544.93 1152.14 1544.93 1152.14 1544.93 1152.14 1544.93 1152.14 1548.8 1180.89 1548.8 1180.89 1548.8 1180.89 1548.8 1180.89 1548.8 1182.95 1548.8 1185 1548.8 1185 1548.8 1185 1548.8 1185 1550.73 1148.04 1573.92 1102.86 1616.43 1102.86 1647.35 1102.86 1674.41 1123.39 1686 1154.2 1686 1150.09 1686 1148.04 1686 1143.93 1684.07 1102.86 1651.22 1070 1612.57 1072.05Z" fill="#FDD089" fill-rule="evenodd"/><path d="M1037.42 1430.76C1014.18 1395.75 1023.86 1350.44 1054.85 1325.73 1081.96 1307.19 1118.76 1309.25 1142 1331.9 1128.44 1309.25 1128.44 1309.25 1128.44 1309.25 1128.44 1309.25 1128.44 1309.25 1128.44 1309.25 1105.2 1274.24 1060.66 1266 1029.67 1288.65 996.747 1313.37 989 1358.68 1010.3 1393.69 1012.24 1397.81 1016.11 1399.87 1018.05 1401.93 1018.05 1403.99 1018.05 1403.99 1018.05 1403.99 1033.54 1428.7 1033.54 1428.7 1033.54 1428.7 1033.54 1428.7 1039.35 1432.82 1039.35 1439 1039.35 1439 1039.35 1439 1039.35 1439 1039.35 1439 1037.42 1432.82 1037.42 1430.76Z" fill="#FDD089" fill-rule="evenodd"/><path d="M899.526 1724C913.011 1623.49 961.168 1529.13 1036.29 1447.08 1044 1438.87 1034.37 1428.62 1034.37 1428.62 1018.96 1404 1018.96 1404 1018.96 1404 932.274 1494.26 876.411 1605.03 861 1724L899.526 1724Z" fill="#FEF0D6" fill-rule="evenodd"/><path d="M2450.51 1724C2493 1724 2493 1724 2493 1724 2477.55 1600.65 2417.68 1485.52 2324.97 1393 2309.52 1411.5 2309.52 1411.5 2309.52 1411.5 2309.52 1411.5 2296 1421.78 2311.45 1438.23 2386.77 1518.41 2436.99 1619.15 2450.51 1724Z" fill="#FEF0D6" fill-rule="evenodd"/><path d="M1209 1033C1070.43 1099.03 935.717 1237.29 903 1293 941.491 1253.79 1110.85 1084.59 1209 1033Z" fill="#FFFFFF" fill-rule="evenodd"/><path d="M1341.15 1046C1352.7 1056.28 1383.52 1117.94 1293 1157 1337.3 1146.72 1397 1101.5 1341.15 1046Z" fill="#FFFFFF" fill-rule="evenodd"/><path d="M895 1374C908.447 1376.07 958.395 1430.01 898.842 1513 931.5 1479.81 968 1392.67 895 1374Z" fill="#FFFFFF" fill-rule="evenodd"/><path d="M1952.67 1062C1958.47 1076.34 1952.67 1146 1856 1127.56 1898.53 1143.95 1972 1139.85 1952.67 1062Z" fill="#FFFFFF" fill-rule="evenodd"/><path d="M2234.07 1113C2236 1129.6 2214.76 1196 2124 1150.35 2162.62 1179.4 2234.07 1196 2234.07 1113Z" fill="#FFFFFF" fill-rule="evenodd"/><path d="M2566 1588.33C2562.15 1602.67 2523.63 1655.9 2462 1574 2483.19 1617 2533.26 1660 2566 1588.33Z" fill="#FFFFFF" fill-rule="evenodd"/><path d="M1562.57 932C1578.02 940.235 1585.75 983.471 1522 993.765 1558.7 1002 1607 960.823 1562.57 932Z" fill="#FFFFFF" fill-rule="evenodd"/><path d="M1578.42 1085C1565 1097.29 1557.33 1107.54 1549.67 1123.93 1545.83 1136.22 1542 1156.71 1549.67 1169 1563.08 1146.46 1563.08 1117.78 1588 1103.44 1574.58 1111.63 1570.75 1099.34 1574.58 1087.05" fill="#FEBC5C" fill-rule="evenodd"/><path d="M1014.47 1305C1004.8 1323.54 999 1335.9 999 1358.56 1000.93 1366.8 1000.93 1379.16 1004.8 1387.4 1008.67 1393.58 1016.4 1405.94 1024.13 1408 1026.07 1399.76 1022.2 1389.46 1022.2 1379.16 1022.2 1368.86 1028 1358.56 1028 1350.32 1022.2 1356.5 1020.27 1362.68 1012.53 1354.44 1006.73 1348.26 1004.8 1329.72 1006.73 1319.42" fill="#FEBC5C" fill-rule="evenodd"/><path d="M2228.69 1288.19C2228.69 1294.41 2221 1306.85 2222.92 1311 2242.15 1300.63 2253.69 1296.48 2274.85 1292.33 2259.46 1294.41 2280.62 1261.22 2296 1263.3 2286.38 1255 2263.31 1263.3 2251.77 1267.44" fill="#FEBC5C" fill-rule="evenodd"/><path d="M2516.25 1508C2516.25 1499.86 2520.08 1493.76 2525.83 1489.69 2527.75 1489.69 2539.25 1487.66 2539.25 1487.66 2545 1479.52 2527.75 1469.34 2522 1465.28 2508.58 1459.17 2485.58 1449 2476 1465.28 2491.33 1473.41 2500.92 1487.66 2510.5 1499.86" fill="#FEAA3B" fill-rule="evenodd"/><path d="M2157.3 1056.16C2139.98 1050 2088 1050 2089.93 1080.79 2114.95 1074.63 2143.82 1072.58 2165 1089 2149.6 1078.74 2151.52 1068.47 2161.15 1056.16" fill="#FEAA3B" fill-rule="evenodd"/><path d="M1893 1018.21C1877.57 1012 1856.36 1016.14 1840.93 1022.34 1819.71 1030.62 1813.93 1049.24 1812 1072 1821.64 1063.72 1823.57 1055.45 1835.14 1049.24 1848.64 1045.1 1864.07 1047.17 1877.57 1047.17 1854.43 1040.97 1881.43 1020.28 1891.07 1016.14" fill="#FEAA3B" fill-rule="evenodd"/><path d="M1497.3 940.111C1479.96 940.111 1453 952.445 1460.7 973 1472.26 962.722 1485.74 958.611 1501.15 954.5 1491.52 948.333 1497.3 940.111 1505 936" fill="#FEAA3B" fill-rule="evenodd"/><path d="M1252.14 1047C1232.86 1059.39 1217.43 1067.65 1209.71 1088.3 1202 1106.89 1205.86 1129.61 1219.36 1142 1221.29 1115.15 1234.79 1096.57 1256 1082.11 1234.79 1090.37 1238.64 1063.52 1248.29 1053.2" fill="#FEAA3B" fill-rule="evenodd"/><path d="M830 1425.94C843.4 1413.56 879.771 1362 897 1401.19 879.771 1411.5 849.143 1438.31 849.143 1461 849.143 1452.75 862.543 1405.31 839.572 1423.87" fill="#FEAA3B" fill-rule="evenodd"/><path d="M2554.33 1535C2562 1555.71 2550.5 1578.5 2539 1593" fill="#FFFFFF" fill-rule="evenodd"/><path d="M2195 1081C2207 1087 2217 1109 2219 1117" fill="#FFFFFF" fill-rule="evenodd"/><path d="M1914 1037C1925.54 1039.08 1935.15 1055.69 1939 1064" fill="#FFFFFF" fill-rule="evenodd"/><path d="M1275 1051.67C1288.46 1043 1315.38 1049.5 1325 1056" fill="#FFFFFF" fill-rule="evenodd"/><path d="M822 1479C822 1491.75 827.625 1504.5 837 1513" fill="#FFFFFF" fill-rule="evenodd"/><path d="M1044 1269.5C1065.2 1263.33 1096.02 1259.22 1123 1288 1107.59 1263.33 1082.54 1251 1044 1269.5Z" fill="#FFFFFF" fill-rule="evenodd"/><path d="M1690 1126C1684.22 1090.87 1661.11 1074.33 1638 1066.07 1661.11 1064 1690 1076.4 1690 1126Z" fill="#FFFFFF" fill-rule="evenodd"/><path d="M2351.67 1303C2359.44 1315.29 2363.33 1352.17 2340 1387 2355.56 1372.66 2375 1337.83 2351.67 1303Z" fill="#FFFFFF" fill-rule="evenodd"/><path d="M2452 1490C2453.94 1456.97 2488.94 1432.19 2522 1452.84 2500.61 1426 2455.89 1428.06 2452 1490Z" fill="#FDC979" fill-rule="evenodd"/><path d="M2080.14 1107C2064.6 1078.3 2080.14 1039.35 2119 1035.25 2085.97 1025 2051 1055.75 2080.14 1107Z" fill="#FDC979" fill-rule="evenodd"/><path d="M1806.09 1082C1788.6 1053.3 1804.14 1012.3 1843 1008.2 1811.91 1000 1775 1028.7 1806.09 1082Z" fill="#FDC979" fill-rule="evenodd"/><path d="M1193.93 1128C1178.47 1099.11 1211.33 1045.45 1250 1041.32 1217.13 1031 1163 1076.4 1193.93 1128Z" fill="#FDC979" fill-rule="evenodd"/><path d="M845 1543C814.067 1538.92 792.8 1477.69 814.067 1443 787 1463.41 787 1534.84 845 1543Z" fill="#FDC979" fill-rule="evenodd"/><path d="M1470 934C1456.41 942.444 1440.88 953 1446.71 972 1437 959.333 1442.82 940.333 1470 934Z" fill="#FDC979" fill-rule="evenodd"/><path d="M1464 1150C1489.09 1145.89 1519.96 1141.79 1527.68 1135.63 1537.33 1129.47 1537.33 1092.53 1574 1072 1554.7 1078.16 1533.47 1096.63 1525.75 1113.05 1518.04 1127.42 1489.09 1147.95 1464 1150Z" fill="#FDC979" fill-rule="evenodd"/><path d="M2138 1241C2164.85 1253.27 2195.53 1273.73 2205.12 1279.86 2214.71 1286 2233.89 1243.05 2278 1247.14 2249.23 1245.09 2230.05 1249.18 2214.71 1257.36 2197.45 1267.59 2161.01 1253.27 2138 1241Z" fill="#FDC979" fill-rule="evenodd"/><path d="M989.552 1354C991.483 1372.47 997.276 1390.95 1001.14 1397.11 1005 1405.32 972.173 1429.95 949 1471 958.655 1442.26 981.828 1413.53 987.621 1401.21 991.483 1388.89 985.69 1368.37 989.552 1354Z" fill="#FDC979" fill-rule="evenodd"/><path d="M743 1724C743 1273.86 1161.76 908 1677 908 2192.24 908 2611 1273.86 2611 1724" stroke="#333333" stroke-width="4.0106" stroke-linecap="round" stroke-linejoin="round" stroke-miterlimit="10" fill="none" fill-rule="evenodd"/><path d="M1206.34 1132.11C1191 1107.35 1208.26 1070.21 1244.69 1051.63 1281.13 1031 1323.32 1037.19 1338.66 1061.95 1354 1086.71 1336.74 1121.79 1300.31 1142.43 1263.87 1161 1221.68 1156.87 1206.34 1132.11Z" stroke="#333333" stroke-width="4.0106" stroke-linecap="round" stroke-linejoin="round" stroke-miterlimit="10" fill="none" fill-rule="evenodd"/><path d="M2095.27 1057.45C2114.54 1039 2156.93 1043.1 2189.68 1067.7 2222.44 1090.25 2234 1125.1 2214.73 1143.55 2195.46 1162 2153.07 1157.9 2120.32 1133.3 2087.56 1110.75 2076 1075.9 2095.27 1057.45Z" stroke="#333333" stroke-width="4.0106" stroke-linecap="round" stroke-linejoin="round" stroke-miterlimit="10" fill="none" fill-rule="evenodd"/><path d="M829.279 1518.55C808 1498.05 809.935 1455 831.213 1420.15 850.557 1385.3 885.377 1373 904.721 1393.5 926 1411.95 926 1455 904.721 1489.85 883.443 1524.7 848.623 1537 829.279 1518.55Z" stroke="#333333" stroke-width="4.0106" stroke-linecap="round" stroke-linejoin="round" stroke-miterlimit="10" fill="none" fill-rule="evenodd"/><path d="M1206.34 1132.11C1191 1107.35 1208.26 1070.21 1244.69 1051.63 1281.13 1031 1323.32 1037.19 1338.66 1061.95 1354 1086.71 1336.74 1121.79 1300.31 1142.43 1263.87 1161 1221.68 1156.87 1206.34 1132.11Z" stroke="#333333" stroke-width="4.0106" stroke-linecap="round" stroke-linejoin="round" stroke-miterlimit="10" fill="none" fill-rule="evenodd"/><path d="M2095.27 1057.45C2114.54 1039 2156.93 1043.1 2189.68 1067.7 2222.44 1090.25 2234 1125.1 2214.73 1143.55 2195.46 1162 2153.07 1157.9 2120.32 1133.3 2087.56 1110.75 2076 1075.9 2095.27 1057.45Z" stroke="#333333" stroke-width="4.0106" stroke-linecap="round" stroke-linejoin="round" stroke-miterlimit="10" fill="none" fill-rule="evenodd"/><path d="M829.279 1518.55C808 1498.05 809.935 1455 831.213 1420.15 850.557 1385.3 885.377 1373 904.721 1393.5 926 1411.95 926 1455 904.721 1489.85 883.443 1524.7 848.623 1537 829.279 1518.55Z" stroke="#333333" stroke-width="4.0106" stroke-linecap="round" stroke-linejoin="round" stroke-miterlimit="10" fill="none" fill-rule="evenodd"/><path d="M2498.43 1455C2527.44 1455 2556.46 1487.86 2562.26 1528.95 2570 1572.08 2552.59 1607 2525.51 1607 2496.49 1607 2467.48 1574.14 2459.74 1531 2452 1489.92 2469.41 1455 2498.43 1455Z" stroke="#333333" stroke-width="4.0106" stroke-linecap="round" stroke-linejoin="round" stroke-miterlimit="10" fill="none" fill-rule="evenodd"/><path d="M2221 1306.66C2221 1304.6 2222.93 1300.49 2222.93 1298.43 2240.3 1261.4 2280.82 1247 2313.62 1267.57 2346.42 1286.09 2358 1331.34 2342.56 1368.37 2336.77 1378.66 2330.99 1384.83 2325.2 1391" stroke="#333333" stroke-width="4.0106" stroke-linecap="round" stroke-linejoin="round" stroke-miterlimit="10" fill="none" fill-rule="evenodd"/><path d="M1299.88 1142.52C1330.63 1125.98 1346 1099.09 1344.08 1076.34 1322.94 1066 1294.11 1068.07 1269.13 1082.55 1238.38 1099.09 1223 1125.98 1224.92 1148.73 1246.06 1157 1274.89 1157 1299.88 1142.52Z" stroke="#333333" stroke-width="4.0106" stroke-linecap="round" stroke-linejoin="round" stroke-miterlimit="10" fill="none" fill-rule="evenodd"/><path d="M1809.74 1049.47C1815.55 1020.53 1852.31 1004 1889.08 1014.33 1925.84 1022.6 1951 1053.6 1945.19 1082.53 1937.45 1111.47 1902.62 1128 1863.92 1119.73 1827.16 1111.47 1802 1080.47 1809.74 1049.47Z" stroke="#333333" stroke-width="4.0106" stroke-linecap="round" stroke-linejoin="round" stroke-miterlimit="10" fill="none" fill-rule="evenodd"/><path d="M1809.74 1049.47C1815.55 1020.53 1852.31 1004 1889.08 1014.33 1925.84 1022.6 1951 1053.6 1945.19 1082.53 1937.45 1111.47 1902.62 1128 1863.92 1119.73 1827.16 1111.47 1802 1080.47 1809.74 1049.47Z" stroke="#333333" stroke-width="4.0106" stroke-linecap="round" stroke-linejoin="round" stroke-miterlimit="10" fill="none" fill-rule="evenodd"/><path d="M1863.92 1119.76C1894.69 1126 1923.54 1117.68 1937 1096.89 1931.23 1076.11 1910.08 1059.47 1883.15 1053.24 1854.31 1047 1825.46 1055.32 1812 1076.11 1817.77 1094.82 1838.92 1113.53 1863.92 1119.76Z" stroke="#333333" stroke-width="4.0106" stroke-linecap="round" stroke-linejoin="round" stroke-miterlimit="10" fill="none" fill-rule="evenodd"/><path d="M2085 1086.28C2088.87 1102.65 2100.49 1121.07 2119.86 1133.35 2148.9 1155.86 2185.7 1162 2207 1149.72 2205.06 1133.35 2193.44 1116.98 2174.08 1102.65 2145.03 1080.14 2108.24 1074 2085 1086.28Z" stroke="#333333" stroke-width="4.0106" stroke-linecap="round" stroke-linejoin="round" stroke-miterlimit="10" fill="none" fill-rule="evenodd"/><path d="M1454.87 963.103C1458.74 948.621 1487.75 934.138 1518.7 932.069 1547.72 930 1569 942.414 1565.13 956.896 1561.26 973.448 1532.25 987.931 1503.23 990 1472.28 990 1451 979.655 1454.87 963.103Z" stroke="#333333" stroke-width="4.0106" stroke-linecap="round" stroke-linejoin="round" stroke-miterlimit="10" fill="none" fill-rule="evenodd"/><path d="M1454.87 963.103C1458.74 948.621 1487.75 934.138 1518.7 932.069 1547.72 930 1569 942.414 1565.13 956.896 1561.26 973.448 1532.25 987.931 1503.23 990 1472.28 990 1451 979.655 1454.87 963.103Z" stroke="#333333" stroke-width="4.0106" stroke-linecap="round" stroke-linejoin="round" stroke-miterlimit="10" fill="none" fill-rule="evenodd"/><path d="M1462 979.722C1469.77 985.889 1485.31 990 1502.79 990 1529.98 987.944 1555.23 975.611 1563 963.278 1555.23 957.111 1539.69 953 1522.21 955.055 1495.02 955.055 1469.77 967.389 1462 979.722Z" stroke="#333333" stroke-width="4.0106" stroke-linecap="round" stroke-linejoin="round" stroke-miterlimit="10" fill="none" fill-rule="evenodd"/><path d="M866.25 1440.9C848.925 1469.6 847 1504.45 856.625 1527 873.95 1524.95 891.275 1512.65 904.75 1490.1 922.075 1461.4 924 1426.55 914.375 1404 897.05 1406.05 879.725 1420.4 866.25 1440.9Z" stroke="#333333" stroke-width="4.0106" stroke-linecap="round" stroke-linejoin="round" stroke-miterlimit="10" fill="none" fill-rule="evenodd"/><path d="M2471.57 1469C2459.89 1483.42 2456 1506.09 2459.89 1530.82 2467.68 1567.91 2489.08 1596.76 2512.43 1605 2524.11 1590.58 2528 1567.91 2524.11 1543.18 2516.32 1508.15 2494.92 1477.24 2471.57 1469Z" stroke="#333333" stroke-width="4.0106" stroke-linecap="round" stroke-linejoin="round" stroke-miterlimit="10" fill="none" fill-rule="evenodd"/><path d="M2313.44 1267.57C2280.5 1247 2239.81 1261.4 2222.38 1298.43 2222.38 1300.49 2220.44 1302.54 2220.44 1304.6 2220.44 1304.6 2220.44 1304.6 2220.44 1304.6 2204.94 1329.29 2204.94 1329.29 2204.94 1329.29 2204.94 1329.29 2203 1333.4 2206.88 1329.29 2226.25 1308.71 2268.88 1281.97 2301.81 1306.66 2327 1325.17 2334.75 1360.14 2325.06 1391 2330.88 1384.83 2336.69 1378.66 2342.5 1368.37 2358 1331.34 2346.38 1286.09 2313.44 1267.57Z" stroke="#333333" stroke-width="4.0106" stroke-linecap="round" stroke-linejoin="round" stroke-miterlimit="10" fill="none" fill-rule="evenodd"/><path d="M1685.93 1144C1685.93 1174.77 1685.93 1174.77 1685.93 1174.77 1685.93 1174.77 1684 1185.03 1697.52 1187.08 1882.96 1189.13 2058.74 1246.58 2188.16 1332.74 2199.75 1343 2205.55 1330.69 2205.55 1330.69 2221 1304.02 2221 1304.02 2221 1304.02 2078.06 1205.55 1890.69 1146.05 1685.93 1144Z" stroke="#333333" stroke-width="4.0106" stroke-linecap="round" stroke-linejoin="round" stroke-miterlimit="10" fill="none" fill-rule="evenodd"/><path d="M1545.22 1153C1387.21 1171.48 1242.69 1228.97 1129 1309.04 1144.42 1333.68 1144.42 1333.68 1144.42 1333.68 1144.42 1333.68 1150.2 1346 1165.61 1335.73 1269.67 1265.93 1396.84 1216.65 1537.51 1196.12 1551 1194.06 1549.07 1181.74 1549.07 1181.74L1545.22 1153Z" stroke="#333333" stroke-width="4.0106" stroke-linecap="round" stroke-linejoin="round" stroke-miterlimit="10" fill="none" fill-rule="evenodd"/><path d="M1612.57 1072.05C1573.92 1072.05 1543 1106.96 1544.93 1148.04 1544.93 1150.09 1544.93 1150.09 1544.93 1152.14 1544.93 1152.14 1544.93 1152.14 1544.93 1152.14 1548.8 1180.89 1548.8 1180.89 1548.8 1180.89 1548.8 1180.89 1548.8 1182.95 1548.8 1185 1548.8 1185 1548.8 1185 1548.8 1185 1550.73 1148.04 1573.92 1102.86 1616.43 1102.86 1647.35 1102.86 1674.41 1123.39 1686 1154.2 1686 1150.09 1686 1148.04 1686 1143.93 1684.07 1102.86 1651.22 1070 1612.57 1072.05Z" stroke="#333333" stroke-width="4.0106" stroke-linecap="round" stroke-linejoin="round" stroke-miterlimit="10" fill="none" fill-rule="evenodd"/><path d="M1037.42 1430.76C1014.18 1395.75 1023.86 1350.44 1054.85 1325.73 1081.96 1307.19 1118.76 1309.25 1142 1331.9 1128.44 1309.25 1128.44 1309.25 1128.44 1309.25 1128.44 1309.25 1128.44 1309.25 1128.44 1309.25 1105.2 1274.24 1060.66 1266 1029.67 1288.65 996.747 1313.37 989 1358.68 1010.3 1393.69 1012.24 1397.81 1016.11 1399.87 1018.05 1401.93 1018.05 1403.99 1018.05 1403.99 1018.05 1403.99 1033.54 1428.7 1033.54 1428.7 1033.54 1428.7 1033.54 1428.7 1039.35 1432.82 1039.35 1439 1039.35 1439 1039.35 1439 1039.35 1439 1039.35 1439 1037.42 1432.82 1037.42 1430.76Z" stroke="#333333" stroke-width="4.0106" stroke-linecap="round" stroke-linejoin="round" stroke-miterlimit="10" fill="none" fill-rule="evenodd"/><path d="M899.526 1724C913.011 1623.49 961.168 1529.13 1036.29 1447.08 1044 1438.87 1034.37 1428.62 1034.37 1428.62 1018.96 1404 1018.96 1404 1018.96 1404 932.274 1494.26 876.411 1605.03 861 1724" stroke="#333333" stroke-width="4.0106" stroke-linecap="round" stroke-linejoin="round" stroke-miterlimit="10" fill="none" fill-rule="evenodd"/><path d="M2493 1724C2477.55 1600.65 2417.68 1485.52 2324.97 1393 2309.52 1411.5 2309.52 1411.5 2309.52 1411.5 2309.52 1411.5 2296 1421.78 2311.45 1438.23 2386.77 1518.41 2436.99 1619.15 2450.51 1724" stroke="#333333" stroke-width="4.0106" stroke-linecap="round" stroke-linejoin="round" stroke-miterlimit="10" fill="none" fill-rule="evenodd"/></g></svg>