<svg width="817" height="904" xmlns="http://www.w3.org/2000/svg" xmlns:xlink="http://www.w3.org/1999/xlink" xml:space="preserve" overflow="hidden"><g transform="translate(-2777 -858)"><path d="M3114.05 903.702C3103.35 903.702 3098 912.255 3100.67 920.808 3100.67 932.213 3108.7 937.915 3119.39 935.064 3138.11 932.213 3159.51 929.362 3180.9 929.362 3271.83 929.362 3357.4 963.574 3424.26 1026.3 3429.61 1032 3440.3 1032 3445.65 1023.45 3451 1017.74 3451 1006.34 3442.98 1000.64 3370.77 932.213 3277.17 898 3180.9 898 3159.51 898 3135.44 898 3114.05 903.702Z" fill="#F6DDE8" fill-rule="evenodd"/><path d="M3491.11 1074.71C3483.06 1080.42 3480.38 1091.85 3485.75 1097.56 3531.35 1166.1 3555.49 1246.06 3555.49 1328.88 3555.49 1443.11 3507.21 1554.48 3424.05 1631.59 3416 1637.3 3416 1645.87 3421.36 1654.43 3426.73 1660.14 3437.46 1663 3442.83 1657.29 3534.03 1574.47 3585 1454.53 3585 1328.88 3585 1237.49 3560.86 1151.82 3512.57 1077.57 3507.21 1071.86 3496.48 1069 3491.11 1074.71Z" fill="#F6DDE8" fill-rule="evenodd"/><path d="M3381.31 1662.86C3319.93 1705.71 3253.2 1725.71 3181.14 1725.71 3130.43 1725.71 3082.39 1714.29 3037.02 1694.29 3029.01 1691.43 3021.01 1694.29 3015.67 1702.86 3013 1711.43 3015.67 1722.86 3023.68 1725.71 3074.39 1748.57 3127.76 1760 3181.14 1760 3258.54 1760 3333.27 1737.14 3397.32 1691.43 3405.33 1688.57 3408 1677.14 3402.66 1668.57 3397.32 1662.86 3386.65 1660 3381.31 1662.86Z" fill="#F6DDE8" fill-rule="evenodd"/><path d="M2820.65 1480.69C2812.66 1483.54 2810 1492.08 2812.66 1500.62 2844.6 1580.31 2897.84 1645.77 2964.38 1691.31 2972.37 1697 2983.01 1694.15 2985.68 1685.62 2991 1679.92 2988.34 1668.54 2983.01 1662.85 2919.13 1620.15 2871.22 1560.38 2839.28 1489.23 2836.62 1480.69 2828.63 1475 2820.65 1480.69Z" fill="#F6DDE8" fill-rule="evenodd"/><path d="M3050.92 921.848C2887.7 981.67 2778 1144.04 2778 1329.21 2778 1363.39 2783.35 1397.57 2788.7 1431.76 2791.38 1440.3 2799.41 1446 2810.11 1443.15 2818.14 1440.3 2823.49 1431.76 2820.81 1423.21 2812.78 1391.88 2810.11 1360.54 2810.11 1329.21 2810.11 1158.29 2911.78 1007.31 3061.62 953.184 3069.65 950.335 3075 938.94 3072.32 930.394 3069.65 921.848 3058.95 919 3050.92 921.848Z" fill="#F6DDE8" fill-rule="evenodd"/><path d="M3555 1328.95C3555 1246.32 3530.97 1166.53 3485.58 1098.15 3480.24 1092.45 3482.91 1081.05 3490.92 1075.36 3493.59 1072.51 3496.26 1072.51 3498.93 1072.51 3504.27 1044.01 3469.55 1006.97 3450.86 1018.37 3448.19 1015.52 3448.19 1015.52 3448.19 1015.52 3448.19 1018.37 3448.19 1021.22 3445.52 1024.07 3440.18 1032.62 3429.5 1032.62 3424.16 1026.92 3357.41 964.233 3271.96 930.041 3181.18 930.041 3159.81 930.041 3138.45 932.89 3119.76 935.74 3109.08 938.589 3101.07 932.89 3101.07 921.493 3101.07 918.644 3101.07 912.945 3103.74 910.096 3103.74 910.096 3103.74 910.096 3103.74 910.096 3095.73 893 3061.02 904.397 3061.02 918.644 3061.02 921.493 3061.02 921.493 3061.02 921.493 3063.69 921.493 3069.03 924.343 3071.7 930.041 3074.37 938.589 3069.03 949.986 3061.02 952.836 2930.18 998.425 2839.39 1118.1 2815.36 1260.56 2818.03 1257.71 2820.7 1254.86 2823.37 1254.86 2834.05 1254.86 2844.73 1271.96 2844.73 1294.75 2844.73 1314.7 2834.05 1331.79 2823.37 1331.79 2818.03 1331.79 2812.69 1328.95 2810.02 1320.4 2810.02 1323.25 2810.02 1326.1 2810.02 1328.95 2810.02 1360.29 2812.69 1391.63 2820.7 1422.97 2823.37 1431.52 2818.03 1440.07 2810.02 1442.92 2802.01 1442.92 2796.67 1442.92 2794 1437.22 2807.35 1451.47 2815.36 1477.11 2810.02 1491.36 2810.02 1491.36 2810.02 1491.36 2810.02 1491.36 2812.69 1485.66 2815.36 1479.96 2820.7 1479.96 2828.71 1474.26 2836.72 1479.96 2839.39 1488.51 2871.44 1559.74 2919.5 1619.58 2983.58 1662.31 2988.92 1668.01 2991.59 1679.41 2986.25 1685.11 2983.58 1690.81 2980.91 1693.66 2975.57 1693.66 2975.57 1693.66 2975.57 1693.66 2975.57 1693.66 2994.26 1687.96 3010.28 1702.21 3015.62 1713.6 3015.62 1710.75 3015.62 1705.05 3015.62 1702.21 3020.96 1693.66 3028.98 1690.81 3036.99 1693.66 3082.38 1713.6 3130.44 1725 3181.18 1725 3253.27 1725 3320.02 1705.05 3381.44 1662.31 3386.78 1659.47 3397.46 1662.31 3402.8 1668.01 3405.47 1673.71 3405.47 1682.26 3402.8 1687.96 3402.8 1685.11 3402.8 1685.11 3402.8 1685.11 3408.14 1670.86 3421.49 1662.31 3432.17 1659.47 3426.83 1659.47 3424.16 1656.62 3421.49 1653.77 3416.15 1645.22 3416.15 1636.67 3424.16 1630.97 3506.94 1554.04 3555 1442.92 3555 1328.95ZM3039.66 1502.75C3023.64 1502.75 3012.95 1488.51 3012.95 1471.41 3012.95 1454.31 3023.64 1442.92 3039.66 1442.92 3053.01 1442.92 3063.69 1454.31 3063.69 1471.41 3063.69 1488.51 3053.01 1502.75 3039.66 1502.75ZM3042.33 1246.32C3026.31 1246.32 3012.95 1232.07 3012.95 1212.12 3012.95 1195.03 3026.31 1177.93 3042.33 1177.93 3058.35 1177.93 3071.7 1195.03 3071.7 1212.12 3071.7 1232.07 3058.35 1246.32 3042.33 1246.32ZM3167.82 1323.25C3167.82 1311.85 3178.51 1300.45 3189.19 1300.45 3202.54 1300.45 3210.55 1311.85 3210.55 1323.25 3210.55 1337.49 3202.54 1348.89 3189.19 1348.89 3178.51 1348.89 3167.82 1337.49 3167.82 1323.25ZM3226.57 1596.78C3210.55 1596.78 3197.2 1585.38 3197.2 1571.14 3197.2 1556.89 3210.55 1545.49 3226.57 1545.49 3239.92 1545.49 3253.27 1556.89 3253.27 1571.14 3253.27 1585.38 3239.92 1596.78 3226.57 1596.78ZM3309.34 1006.97C3293.32 1006.97 3282.64 992.726 3282.64 975.63 3282.64 964.233 3287.98 955.685 3295.99 949.986 3306.67 952.836 3320.02 958.534 3333.38 964.233 3333.38 967.082 3333.38 972.781 3333.38 975.63 3333.38 992.726 3322.69 1006.97 3309.34 1006.97ZM3392.12 1394.48C3373.43 1394.48 3357.41 1377.38 3357.41 1354.59 3357.41 1331.79 3373.43 1311.85 3392.12 1311.85 3410.81 1311.85 3424.16 1331.79 3424.16 1354.59 3424.16 1377.38 3410.81 1394.48 3392.12 1394.48Z" fill="#CF0267" fill-rule="evenodd"/><path d="M3485.58 1098.15C3480.24 1092.45 3482.91 1081.05 3490.92 1075.36 3493.59 1072.51 3496.26 1072.51 3498.93 1072.51 3504.27 1044.01 3469.55 1006.97 3450.86 1018.37 3448.19 1015.52 3448.19 1015.52 3448.19 1015.52 3448.19 1018.37 3448.19 1021.22 3445.52 1024.07 3440.18 1032.62 3429.5 1032.62 3424.16 1026.92 3357.41 964.233 3271.96 930.041 3181.18 930.041 3159.81 930.041 3138.45 932.89 3119.76 935.74 3109.08 938.589 3101.07 932.89 3101.07 921.493 3101.07 918.644 3101.07 912.945 3103.74 910.096 3103.74 910.096 3103.74 910.096 3103.74 910.096 3095.73 893 3061.02 904.397 3061.02 918.644 3061.02 921.493 3061.02 921.493 3061.02 921.493 3063.69 921.493 3069.03 924.343 3071.7 930.041 3074.37 938.589 3069.03 949.986 3061.02 952.836 2930.18 998.425 2839.39 1118.1 2815.36 1260.56 2818.03 1257.71 2820.7 1254.86 2823.37 1254.86 2834.05 1254.86 2844.73 1271.96 2844.73 1294.75 2844.73 1314.7 2834.05 1331.79 2823.37 1331.79 2818.03 1331.79 2812.69 1328.95 2810.02 1320.4 2810.02 1323.25 2810.02 1326.1 2810.02 1328.95 2810.02 1360.29 2812.69 1391.63 2820.7 1422.97 2823.37 1431.52 2818.03 1440.07 2810.02 1442.92 2802.01 1442.92 2796.67 1442.92 2794 1437.22 2807.35 1451.47 2815.36 1477.11 2810.02 1491.36 2810.02 1491.36 2810.02 1491.36 2810.02 1491.36 2812.69 1485.66 2815.36 1479.96 2820.7 1479.96 2828.71 1474.26 2836.72 1479.96 2839.39 1488.51 2871.44 1559.74 2919.5 1619.58 2983.58 1662.31 2988.92 1668.01 2991.59 1679.41 2986.25 1685.11 2983.58 1690.81 2980.91 1693.66 2975.57 1693.66 2975.57 1693.66 2975.57 1693.66 2975.57 1693.66 2994.26 1687.96 3010.28 1702.21 3015.62 1713.6 3015.62 1710.75 3015.62 1705.05 3015.62 1702.21 3020.96 1693.66 3028.98 1690.81 3036.99 1693.66 3082.38 1713.6 3130.44 1725 3181.18 1725 3226.57 1725 3269.29 1716.45 3309.34 1699.36 3285.31 1707.9 3258.61 1710.75 3231.91 1710.75 3055.68 1710.75 2914.16 1559.74 2914.16 1371.68 2914.16 1183.63 3055.68 1029.77 3231.91 1029.77 3408.14 1029.77 3552.33 1180.78 3552.33 1368.84 3552.33 1354.59 3555 1343.19 3555 1328.95 3555 1246.32 3530.97 1166.53 3485.58 1098.15ZM3309.34 1006.97C3293.32 1006.97 3282.64 992.726 3282.64 975.63 3282.64 964.233 3287.98 955.685 3295.99 949.986 3306.67 952.836 3320.02 958.534 3333.38 964.233 3333.38 967.082 3333.38 972.781 3333.38 975.63 3333.38 992.726 3322.69 1006.97 3309.34 1006.97Z" fill="#CF0267" fill-rule="evenodd"/><path d="M3555.5 1329.45C3555.5 1246.82 3531.47 1167.03 3486.08 1098.65 3480.73 1092.95 3483.41 1081.55 3491.42 1075.86 3494.09 1073.01 3496.76 1073.01 3499.43 1073.01 3504.77 1044.51 3470.05 1007.47 3451.36 1018.87 3448.69 1016.02 3448.69 1016.02 3448.69 1016.02 3448.69 1018.87 3448.69 1021.72 3446.02 1024.57 3440.68 1033.12 3430 1033.12 3424.66 1027.42 3357.91 964.733 3272.46 930.541 3181.68 930.541 3160.31 930.541 3138.95 933.39 3120.26 936.24 3109.58 939.089 3101.57 933.39 3101.57 921.993 3101.57 919.144 3101.57 913.445 3104.24 910.596 3104.24 910.596 3104.24 910.596 3104.24 910.596 3096.23 893.5 3061.52 904.897 3061.52 919.144 3061.52 921.993 3061.52 921.993 3061.52 921.993 3064.19 921.993 3069.53 924.842 3072.2 930.541 3074.87 939.089 3069.53 950.486 3061.52 953.336 2930.68 998.925 2839.89 1118.6 2815.86 1261.06 2818.53 1258.21 2821.2 1255.36 2823.87 1255.36 2834.55 1255.36 2845.23 1272.46 2845.23 1295.25 2845.23 1315.2 2834.55 1332.29 2823.87 1332.29 2818.53 1332.29 2813.19 1329.45 2810.52 1320.9 2810.52 1323.75 2810.52 1326.6 2810.52 1329.45 2810.52 1360.79 2813.19 1392.13 2821.2 1423.47 2823.87 1432.02 2818.53 1440.57 2810.52 1443.42 2802.51 1443.42 2797.17 1443.42 2794.5 1437.72 2807.85 1451.97 2815.86 1477.61 2810.52 1491.86 2810.52 1491.86 2810.52 1491.86 2810.52 1491.86 2813.19 1486.16 2815.86 1480.46 2821.2 1480.46 2829.21 1474.76 2837.22 1480.46 2839.89 1489.01 2871.93 1560.24 2920 1620.08 2984.08 1662.82 2989.42 1668.51 2992.09 1679.91 2986.75 1685.61 2984.08 1691.31 2981.41 1694.16 2976.07 1694.16 2976.07 1694.16 2976.07 1694.16 2976.07 1694.16 2994.76 1688.46 3010.78 1702.71 3016.12 1714.1 3016.12 1711.25 3016.12 1705.55 3016.12 1702.71 3021.46 1694.16 3029.48 1691.31 3037.49 1694.16 3082.88 1714.1 3130.94 1725.5 3181.68 1725.5 3253.77 1725.5 3320.52 1705.55 3381.94 1662.82 3387.28 1659.97 3397.96 1662.82 3403.3 1668.51 3405.97 1674.21 3405.97 1682.76 3403.3 1688.46 3403.3 1685.61 3403.3 1685.61 3403.3 1685.61 3408.64 1671.36 3421.99 1662.82 3432.67 1659.97 3427.33 1659.97 3424.66 1657.12 3421.99 1654.27 3416.65 1645.72 3416.65 1637.17 3424.66 1631.47 3507.44 1554.54 3555.5 1443.42 3555.5 1329.45ZM3040.16 1503.25C3024.13 1503.25 3013.45 1489.01 3013.45 1471.91 3013.45 1454.82 3024.13 1443.42 3040.16 1443.42 3053.51 1443.42 3064.19 1454.82 3064.19 1471.91 3064.19 1489.01 3053.51 1503.25 3040.16 1503.25ZM3042.83 1246.82C3026.8 1246.82 3013.45 1232.57 3013.45 1212.62 3013.45 1195.53 3026.8 1178.43 3042.83 1178.43 3058.85 1178.43 3072.2 1195.53 3072.2 1212.62 3072.2 1232.57 3058.85 1246.82 3042.83 1246.82ZM3168.32 1323.75C3168.32 1312.35 3179.01 1300.95 3189.69 1300.95 3203.04 1300.95 3211.05 1312.35 3211.05 1323.75 3211.05 1337.99 3203.04 1349.39 3189.69 1349.39 3179.01 1349.39 3168.32 1337.99 3168.32 1323.75ZM3227.07 1597.28C3211.05 1597.28 3197.7 1585.88 3197.7 1571.64 3197.7 1557.39 3211.05 1545.99 3227.07 1545.99 3240.42 1545.99 3253.77 1557.39 3253.77 1571.64 3253.77 1585.88 3240.42 1597.28 3227.07 1597.28ZM3309.84 1007.47C3293.82 1007.47 3283.14 993.226 3283.14 976.13 3283.14 964.733 3288.48 956.185 3296.49 950.486 3307.17 953.336 3320.52 959.034 3333.88 964.733 3333.88 967.582 3333.88 973.281 3333.88 976.13 3333.88 993.226 3323.19 1007.47 3309.84 1007.47ZM3392.62 1394.98C3373.93 1394.98 3357.91 1377.88 3357.91 1355.09 3357.91 1332.29 3373.93 1312.35 3392.62 1312.35 3411.31 1312.35 3424.66 1332.29 3424.66 1355.09 3424.66 1377.88 3411.31 1394.98 3392.62 1394.98Z" stroke="#333333" stroke-width="2.86476" stroke-linecap="round" stroke-linejoin="round" stroke-miterlimit="10" fill="none" fill-rule="evenodd"/><path d="M3485.58 1098.15C3480.24 1092.45 3482.91 1081.05 3490.92 1075.36 3493.59 1072.51 3496.26 1072.51 3498.93 1072.51 3504.27 1044.01 3469.55 1006.97 3450.86 1018.37 3448.19 1015.52 3448.19 1015.52 3448.19 1015.52 3448.19 1018.37 3448.19 1021.22 3445.52 1024.07 3440.18 1032.62 3429.5 1032.62 3424.16 1026.92 3357.41 964.233 3271.96 930.041 3181.18 930.041 3159.81 930.041 3138.45 932.89 3119.76 935.74 3109.08 938.589 3101.07 932.89 3101.07 921.493 3101.07 918.644 3101.07 912.945 3103.74 910.096 3103.74 910.096 3103.74 910.096 3103.74 910.096 3095.73 893 3061.02 904.397 3061.02 918.644 3061.02 921.493 3061.02 921.493 3061.02 921.493 3063.69 921.493 3069.03 924.343 3071.7 930.041 3074.37 938.589 3069.03 949.986 3061.02 952.836 2930.18 998.425 2839.39 1118.1 2815.36 1260.56 2818.03 1257.71 2820.7 1254.86 2823.37 1254.86 2834.05 1254.86 2844.73 1271.96 2844.73 1294.75 2844.73 1314.7 2834.05 1331.79 2823.37 1331.79 2818.03 1331.79 2812.69 1328.95 2810.02 1320.4 2810.02 1323.25 2810.02 1326.1 2810.02 1328.95 2810.02 1360.29 2812.69 1391.63 2820.7 1422.97 2823.37 1431.52 2818.03 1440.07 2810.02 1442.92 2802.01 1442.92 2796.67 1442.92 2794 1437.22 2807.35 1451.47 2815.36 1477.11 2810.02 1491.36 2810.02 1491.36 2810.02 1491.36 2810.02 1491.36 2812.69 1485.66 2815.36 1479.96 2820.7 1479.96 2828.71 1474.26 2836.72 1479.96 2839.39 1488.51 2871.44 1559.74 2919.5 1619.58 2983.58 1662.31 2988.92 1668.01 2991.59 1679.41 2986.25 1685.11 2983.58 1690.81 2980.91 1693.66 2975.57 1693.66 2975.57 1693.66 2975.57 1693.66 2975.57 1693.66 2994.26 1687.96 3010.28 1702.21 3015.62 1713.6 3015.62 1710.75 3015.62 1705.05 3015.62 1702.21 3020.96 1693.66 3028.98 1690.81 3036.99 1693.66 3082.38 1713.6 3130.44 1725 3181.18 1725 3226.57 1725 3269.29 1716.45 3309.34 1699.36 3285.31 1707.9 3258.61 1710.75 3231.91 1710.75 3055.68 1710.75 2914.16 1559.74 2914.16 1371.68 2914.16 1183.63 3055.68 1029.77 3231.91 1029.77 3408.14 1029.77 3552.33 1180.78 3552.33 1368.84 3552.33 1354.59 3555 1343.19 3555 1328.95 3555 1246.32 3530.97 1166.53 3485.58 1098.15ZM3309.34 1006.97C3293.32 1006.97 3282.64 992.726 3282.64 975.63 3282.64 964.233 3287.98 955.685 3295.99 949.986 3306.67 952.836 3320.02 958.534 3333.38 964.233 3333.38 967.082 3333.38 972.781 3333.38 975.63 3333.38 992.726 3322.69 1006.97 3309.34 1006.97Z" fill="#B9015C" fill-rule="evenodd"/><path d="M2834 1480.55C2834 1460.5 2828.67 1443.32 2820.67 1429 2818 1437.59 2815.33 1440.45 2810 1443.32 2802 1443.32 2796.67 1443.32 2794 1437.59 2807.33 1451.91 2815.33 1477.68 2810 1492 2810 1492 2810 1492 2810 1492 2812.67 1486.27 2815.33 1480.55 2820.67 1480.55 2826 1477.68 2831.33 1477.68 2834 1480.55Z" fill="#C83E80" fill-rule="evenodd"/><path d="M2988.57 1670.87C2988.57 1676.62 2988.57 1682.37 2985.86 1685.25 2983.14 1691 2980.43 1693.87 2975 1693.87 2975 1693.87 2975 1693.87 2975 1693.87 2994 1688.12 3010.29 1702.5 3015.71 1714 3015.71 1711.12 3015.71 1705.37 3015.71 1702.5 3018.43 1696.75 3023.86 1693.87 3032 1693.87 3021.14 1679.5 3002.14 1668 2988.57 1670.87Z" fill="#C83E80" fill-rule="evenodd"/><path d="M3421.25 1653.89C3415.88 1648.21 3415.88 1639.68 3421.25 1634 3407.81 1636.84 3391.69 1648.21 3389 1659.58 3389 1662.42 3389 1662.42 3389 1662.42 3394.38 1662.42 3399.75 1665.26 3402.44 1668.11 3405.12 1673.79 3405.12 1682.32 3402.44 1688 3402.44 1685.16 3402.44 1685.16 3402.44 1685.16 3407.81 1670.95 3421.25 1662.42 3432 1659.58 3426.62 1659.58 3423.94 1656.74 3421.25 1653.89Z" fill="#C83E80" fill-rule="evenodd"/><path d="M3483.46 1090C3483.46 1090 3483.46 1090 3483.46 1090 3483.46 1084.21 3486.15 1078.41 3491.54 1075.52 3494.23 1072.62 3496.92 1072.62 3499.62 1072.62 3505 1043.66 3470 1006 3451.15 1017.59 3448.46 1014.69 3448.46 1014.69 3448.46 1014.69 3448.46 1017.59 3448.46 1020.48 3445.77 1023.38 3443.08 1026.28 3440.38 1029.17 3435 1029.17 3435 1029.17 3435 1029.17 3435 1029.17 3448.46 1023.38 3486.15 1043.66 3483.46 1090Z" fill="#C83E80" fill-rule="evenodd"/><path d="M3071.75 944C3077.12 918.5 3093.25 921.333 3104 929.833 3101.31 927 3101.31 924.167 3101.31 921.333 3101.31 918.5 3101.31 912.833 3104 910 3104 910 3104 910 3104 910 3095.94 893 3061 904.333 3061 918.5 3061 921.333 3061 921.333 3061 921.333 3063.69 921.333 3069.06 924.167 3071.75 929.833 3071.75 935.5 3071.75 941.167 3069.06 944L3071.75 944Z" fill="#C83E80" fill-rule="evenodd"/><path d="M3592 1274.85C3592 1044.14 3418.42 859 3204.78 859 3079.26 859 2967.1 924.511 2895 1024.2 2937.73 978.629 2991.14 941.601 3049.89 921.663 3052.56 918.815 3057.9 918.815 3060.57 921.663 3060.57 918.815 3060.57 918.815 3060.57 918.815 3060.57 904.573 3095.29 893.18 3103.3 910.27 3103.3 910.27 3103.3 910.27 3103.3 910.27 3105.97 907.421 3108.64 904.573 3113.98 904.573 3135.34 898.876 3159.38 898.876 3180.74 898.876 3276.88 898.876 3370.35 933.056 3442.45 1001.42 3447.79 1004.26 3450.46 1009.96 3447.79 1015.66 3450.46 1018.51 3450.46 1018.51 3450.46 1018.51 3469.16 1007.11 3503.87 1044.14 3498.53 1072.62 3503.87 1072.62 3509.21 1075.47 3511.88 1078.32 3559.95 1152.38 3583.99 1237.83 3583.99 1328.97 3583.99 1340.37 3583.99 1354.61 3583.99 1366 3589.33 1337.52 3592 1306.19 3592 1274.85Z" fill="#EF92BE" fill-rule="evenodd"/><path d="M3055.4 1237.52C3039.5 1237.52 3026.25 1220.57 3026.25 1203.61 3026.25 1195.13 3028.9 1186.65 3031.55 1181 3020.95 1186.65 3013 1197.96 3013 1212.09 3013 1231.87 3026.25 1246 3042.15 1246 3052.75 1246 3060.7 1243.17 3066 1234.7 3060.7 1234.7 3058.05 1237.52 3055.4 1237.52Z" fill="#D15A92" fill-rule="evenodd"/><path d="M3050.88 1493.57C3034.65 1493.57 3023.82 1479.52 3023.82 1462.67 3023.82 1454.24 3026.53 1448.62 3029.24 1443 3018.41 1448.62 3013 1459.86 3013 1471.1 3013 1487.95 3023.82 1502 3040.06 1502 3048.18 1502 3056.29 1496.38 3059 1490.76 3056.29 1490.76 3053.59 1493.57 3050.88 1493.57Z" fill="#D15A92" fill-rule="evenodd"/><path d="M2831.82 1319.75C2820.91 1319.75 2812.73 1305.69 2812.73 1286 2810 1297.25 2810 1308.5 2810 1319.75 2812.73 1328.19 2818.18 1331 2823.64 1331 2831.82 1331 2837.27 1325.38 2840 1316.94 2837.27 1316.94 2834.55 1319.75 2831.82 1319.75Z" fill="#D15A92" fill-rule="evenodd"/><path d="M3237.26 1587.53C3221.16 1587.53 3207.74 1576.24 3207.74 1562.12 3207.74 1556.47 3210.42 1550.82 3213.1 1548 3205.05 1550.82 3197 1559.29 3197 1570.59 3197 1584.71 3210.42 1596 3226.53 1596 3234.58 1596 3242.63 1593.18 3248 1587.53 3245.32 1587.53 3239.95 1587.53 3237.26 1587.53Z" fill="#D15A92" fill-rule="evenodd"/><path d="M3405.52 1379.71C3386.65 1379.71 3370.48 1362.57 3370.48 1339.71 3370.48 1331.14 3373.17 1322.57 3378.57 1314 3365.09 1319.71 3357 1336.86 3357 1354 3357 1376.86 3373.17 1394 3392.04 1394 3402.83 1394 3410.91 1388.29 3419 1376.86 3413.61 1379.71 3408.22 1379.71 3405.52 1379.71Z" fill="#D15A92" fill-rule="evenodd"/><path d="M3295.53 950C3287.41 955.6 3282 964 3282 975.2 3282 992 3292.82 1006 3309.06 1006 3317.18 1006 3322.59 1000.4 3328 994.8 3325.29 994.8 3322.59 997.6 3319.88 997.6 3303.65 997.6 3292.82 983.6 3292.82 966.8 3292.82 961.2 3292.82 955.6 3295.53 950 3295.53 950 3295.53 950 3295.53 950Z" fill="#D15A92" fill-rule="evenodd"/><path d="M3199.2 1339.75C3186.2 1339.75 3175.8 1328.75 3175.8 1317.75 3175.8 1312.25 3178.4 1306.75 3181 1304 3173.2 1306.75 3168 1315 3168 1323.25 3168 1337 3178.4 1348 3188.8 1348 3196.6 1348 3201.8 1342.5 3207 1337 3204.4 1339.75 3201.8 1339.75 3199.2 1339.75Z" fill="#D15A92" fill-rule="evenodd"/><path d="M3398 921C3280.25 853 3167.85 864.333 3117 881.333 3135.73 878.5 3256.16 855.833 3398 921Z" fill="#FEEFF6" fill-rule="evenodd"/><path d="M3521 1032C3526.26 1043.41 3531.52 1054.82 3534.15 1069.09 3539.41 1089.06 3539.41 1094.76 3526.26 1100.47 3521 1086.21 3521 1086.21 3521 1086.21 3521 1091.91 3523.63 1097.62 3528.89 1106.18 3528.89 1106.18 3528.89 1109.03 3531.52 1109.03 3531.52 1114.74 3534.15 1117.59 3536.78 1120.44 3565.7 1177.5 3581.48 1240.26 3584.11 1305.88 3586.74 1311.59 3589.37 1317.29 3589.37 1323 3592 1305.88 3592 1288.76 3592 1274.5 3592 1183.21 3565.7 1097.62 3521 1032Z" fill="#E16CA4" fill-rule="evenodd"/><path d="M3309 1671C3456.35 1616.68 3523.32 1442.3 3526 1408 3496.53 1490.9 3405.44 1628.12 3309 1671Z" fill="#EE82B4" fill-rule="evenodd"/><path d="M3114.55 904.202C3103.85 904.202 3098.5 912.755 3101.17 921.309 3101.17 932.713 3109.2 938.415 3119.89 935.564 3138.61 932.713 3160.01 929.862 3181.4 929.862 3272.33 929.862 3357.9 964.075 3424.76 1026.8 3430.11 1032.5 3440.8 1032.5 3446.15 1023.95 3451.5 1018.24 3451.5 1006.84 3443.48 1001.14 3371.27 932.713 3277.67 898.5 3181.4 898.5 3160.01 898.5 3135.94 898.5 3114.55 904.202Z" stroke="#333333" stroke-width="2.86476" stroke-linecap="round" stroke-linejoin="round" stroke-miterlimit="10" fill="none" fill-rule="evenodd"/><path d="M3491.61 1075.21C3483.56 1080.92 3480.88 1092.35 3486.25 1098.06 3531.85 1166.6 3555.99 1246.56 3555.99 1329.37 3555.99 1443.61 3507.71 1554.98 3424.55 1632.09 3416.5 1637.8 3416.5 1646.37 3421.86 1654.93 3427.23 1660.64 3437.96 1663.5 3443.33 1657.79 3534.53 1574.97 3585.5 1455.03 3585.5 1329.37 3585.5 1237.99 3561.36 1152.32 3513.07 1078.07 3507.71 1072.36 3496.98 1069.5 3491.61 1075.21Z" stroke="#333333" stroke-width="2.86476" stroke-linecap="round" stroke-linejoin="round" stroke-miterlimit="10" fill="none" fill-rule="evenodd"/><path d="M3381.81 1663.36C3320.43 1706.21 3253.7 1726.21 3181.64 1726.21 3130.93 1726.21 3082.89 1714.79 3037.52 1694.79 3029.51 1691.93 3021.51 1694.79 3016.17 1703.36 3013.5 1711.93 3016.17 1723.36 3024.18 1726.21 3074.89 1749.07 3128.26 1760.5 3181.64 1760.5 3259.04 1760.5 3333.77 1737.64 3397.82 1691.93 3405.83 1689.07 3408.5 1677.64 3403.16 1669.07 3397.82 1663.36 3387.15 1660.5 3381.81 1663.36Z" stroke="#333333" stroke-width="2.86476" stroke-linecap="round" stroke-linejoin="round" stroke-miterlimit="10" fill="none" fill-rule="evenodd"/><path d="M2821.15 1481.19C2813.16 1484.04 2810.5 1492.58 2813.16 1501.12 2845.1 1580.81 2898.34 1646.27 2964.88 1691.81 2972.87 1697.5 2983.51 1694.65 2986.18 1686.12 2991.5 1680.42 2988.84 1669.04 2983.51 1663.35 2919.63 1620.65 2871.72 1560.88 2839.78 1489.73 2837.12 1481.19 2829.13 1475.5 2821.15 1481.19Z" stroke="#333333" stroke-width="2.86476" stroke-linecap="round" stroke-linejoin="round" stroke-miterlimit="10" fill="none" fill-rule="evenodd"/><path d="M3051.42 922.349C2888.2 982.17 2778.5 1144.54 2778.5 1329.71 2778.5 1363.89 2783.85 1398.07 2789.2 1432.26 2791.88 1440.8 2799.91 1446.5 2810.61 1443.65 2818.64 1440.8 2823.99 1432.26 2821.31 1423.71 2813.28 1392.38 2810.61 1361.04 2810.61 1329.71 2810.61 1158.79 2912.28 1007.81 3062.12 953.684 3070.15 950.835 3075.5 939.441 3072.82 930.895 3070.15 922.349 3059.45 919.5 3051.42 922.349Z" stroke="#333333" stroke-width="2.86476" stroke-linecap="round" stroke-linejoin="round" stroke-miterlimit="10" fill="none" fill-rule="evenodd"/><path d="M3421.99 1654.27C3416.65 1645.72 3416.65 1637.17 3424.66 1631.47 3507.44 1554.54 3555.5 1443.42 3555.5 1329.45 3555.5 1246.82 3531.47 1167.03 3486.08 1098.65 3480.73 1092.95 3483.41 1081.55 3491.42 1075.86 3494.09 1073.01 3496.76 1073.01 3499.43 1073.01 3504.77 1044.51 3470.05 1007.47 3451.36 1018.87 3448.69 1016.02 3448.69 1016.02 3448.69 1016.02 3448.69 1018.87 3448.69 1021.72 3446.02 1024.57 3440.68 1033.12 3430 1033.12 3424.66 1027.42 3357.91 964.733 3272.46 930.541 3181.68 930.541 3160.31 930.541 3138.95 933.39 3120.26 936.24 3109.58 939.089 3101.57 933.39 3101.57 921.993 3101.57 919.144 3101.57 913.445 3104.24 910.596 3104.24 910.596 3104.24 910.596 3104.24 910.596 3096.23 893.5 3061.52 904.897 3061.52 919.144 3061.52 921.993 3061.52 921.993 3061.52 921.993 3064.19 921.993 3069.53 924.842 3072.2 930.541 3074.87 939.089 3069.53 950.486 3061.52 953.336 2911.99 1007.47 2810.52 1158.49 2810.52 1329.45 2810.52 1360.79 2813.19 1392.13 2821.2 1423.47 2823.87 1432.02 2818.53 1440.57 2810.52 1443.42 2802.51 1443.42 2797.17 1443.42 2794.5 1437.72 2807.85 1451.97 2815.86 1477.61 2810.52 1491.86 2810.52 1491.86 2810.52 1491.86 2810.52 1491.86 2813.19 1486.16 2815.86 1480.46 2821.2 1480.46 2829.21 1474.76 2837.22 1480.46 2839.89 1489.01 2871.93 1560.24 2920 1620.08 2984.08 1662.82 2989.42 1668.51 2992.09 1679.91 2986.75 1685.61 2984.08 1691.31 2981.41 1694.16 2976.07 1694.16 2976.07 1694.16 2976.07 1694.16 2976.07 1694.16 2994.76 1688.46 3010.78 1702.71 3016.12 1714.1 3016.12 1711.25 3016.12 1705.55 3016.12 1702.71 3021.46 1694.16 3029.48 1691.31 3037.49 1694.16 3082.88 1714.1 3130.94 1725.5 3181.68 1725.5 3253.77 1725.5 3320.52 1705.55 3381.94 1662.82 3387.28 1659.97 3397.96 1662.82 3403.3 1668.51 3405.97 1674.21 3405.97 1682.76 3403.3 1688.46 3403.3 1685.61 3403.3 1685.61 3403.3 1685.61 3408.64 1671.36 3421.99 1662.82 3432.67 1659.97 3427.33 1659.97 3424.66 1657.12 3421.99 1654.27Z" stroke="#333333" stroke-width="2.86476" stroke-linecap="round" stroke-linejoin="round" stroke-miterlimit="10" fill="none" fill-rule="evenodd"/><path d="M2834.5 1481.05C2834.5 1461 2829.17 1443.82 2821.17 1429.5 2818.5 1438.09 2815.83 1440.95 2810.5 1443.82 2802.5 1443.82 2797.17 1443.82 2794.5 1438.09 2807.83 1452.41 2815.83 1478.18 2810.5 1492.5 2810.5 1492.5 2810.5 1492.5 2810.5 1492.5 2813.17 1486.77 2815.83 1481.05 2821.17 1481.05 2826.5 1478.18 2831.83 1478.18 2834.5 1481.05Z" stroke="#333333" stroke-width="2.86476" stroke-linecap="round" stroke-linejoin="round" stroke-miterlimit="10" fill="none" fill-rule="evenodd"/><path d="M2989.07 1671.38C2989.07 1677.13 2989.07 1682.88 2986.36 1685.75 2983.64 1691.5 2980.93 1694.38 2975.5 1694.38 2975.5 1694.38 2975.5 1694.38 2975.5 1694.38 2994.5 1688.63 3010.79 1703 3016.21 1714.5 3016.21 1711.63 3016.21 1705.88 3016.21 1703 3018.93 1697.25 3024.36 1694.38 3032.5 1694.38 3021.64 1680 3002.64 1668.5 2989.07 1671.38Z" stroke="#333333" stroke-width="2.86476" stroke-linecap="round" stroke-linejoin="round" stroke-miterlimit="10" fill="none" fill-rule="evenodd"/><path d="M3421.75 1654.39C3416.37 1648.71 3416.37 1640.18 3421.75 1634.5 3408.31 1637.34 3392.19 1648.71 3389.5 1660.08 3389.5 1662.92 3389.5 1662.92 3389.5 1662.92 3394.87 1662.92 3400.25 1665.76 3402.94 1668.61 3405.62 1674.29 3405.62 1682.82 3402.94 1688.5 3402.94 1685.66 3402.94 1685.66 3402.94 1685.66 3408.31 1671.45 3421.75 1662.92 3432.5 1660.08 3427.12 1660.08 3424.44 1657.24 3421.75 1654.39Z" stroke="#333333" stroke-width="2.86476" stroke-linecap="round" stroke-linejoin="round" stroke-miterlimit="10" fill="none" fill-rule="evenodd"/><path d="M3483.96 1090.5C3483.96 1090.5 3483.96 1090.5 3483.96 1090.5 3483.96 1084.71 3486.65 1078.91 3492.04 1076.02 3494.73 1073.12 3497.42 1073.12 3500.12 1073.12 3505.5 1044.16 3470.5 1006.5 3451.65 1018.09 3448.96 1015.19 3448.96 1015.19 3448.96 1015.19 3448.96 1018.09 3448.96 1020.98 3446.27 1023.88 3443.58 1026.78 3440.88 1029.67 3435.5 1029.67 3435.5 1029.67 3435.5 1029.67 3435.5 1029.67 3448.96 1023.88 3486.65 1044.16 3483.96 1090.5Z" stroke="#333333" stroke-width="2.86476" stroke-linecap="round" stroke-linejoin="round" stroke-miterlimit="10" fill="none" fill-rule="evenodd"/><path d="M3072.25 944.5C3077.62 919 3093.75 921.833 3104.5 930.333 3101.81 927.5 3101.81 924.667 3101.81 921.833 3101.81 919 3101.81 913.333 3104.5 910.5 3104.5 910.5 3104.5 910.5 3104.5 910.5 3096.44 893.5 3061.5 904.833 3061.5 919 3061.5 921.833 3061.5 921.833 3061.5 921.833 3064.19 921.833 3069.56 924.667 3072.25 930.333 3072.25 936 3072.25 941.667 3069.56 944.5L3072.25 944.5Z" stroke="#333333" stroke-width="2.86476" stroke-linecap="round" stroke-linejoin="round" stroke-miterlimit="10" fill="none" fill-rule="evenodd"/><path d="M3592.5 1275.35C3592.5 1044.64 3418.92 859.5 3205.28 859.5 3079.76 859.5 2967.6 925.011 2895.5 1024.7 2938.23 979.129 2991.64 942.101 3050.39 922.163 3053.06 919.315 3058.4 919.315 3061.07 922.163 3061.07 919.315 3061.07 919.315 3061.07 919.315 3061.07 905.073 3095.79 893.68 3103.8 910.77 3103.8 910.77 3103.8 910.77 3103.8 910.77 3106.47 907.921 3109.14 905.073 3114.48 905.073 3135.84 899.376 3159.88 899.376 3181.24 899.376 3277.38 899.376 3370.85 933.556 3442.95 1001.92 3448.29 1004.76 3450.96 1010.46 3448.29 1016.16 3450.96 1019.01 3450.96 1019.01 3450.96 1019.01 3469.66 1007.61 3504.37 1044.64 3499.03 1073.12 3504.37 1073.12 3509.71 1075.97 3512.39 1078.82 3560.45 1152.88 3584.49 1238.33 3584.49 1329.47 3584.49 1340.87 3584.49 1355.11 3584.49 1366.5 3589.83 1338.02 3592.5 1306.69 3592.5 1275.35Z" stroke="#333333" stroke-width="2.86476" stroke-linecap="round" stroke-linejoin="round" stroke-miterlimit="10" fill="none" fill-rule="evenodd"/><path d="M3013.5 1212C3013.5 1192.95 3026.71 1177.5 3043 1177.5 3059.29 1177.5 3072.5 1192.95 3072.5 1212 3072.5 1231.05 3059.29 1246.5 3043 1246.5 3026.71 1246.5 3013.5 1231.05 3013.5 1212Z" stroke="#333333" stroke-width="2.86476" stroke-linecap="round" stroke-linejoin="round" stroke-miterlimit="10" fill="none" fill-rule="evenodd"/><path d="M3055.9 1238.02C3040 1238.02 3026.75 1221.07 3026.75 1204.11 3026.75 1195.63 3029.4 1187.15 3032.05 1181.5 3021.45 1187.15 3013.5 1198.46 3013.5 1212.59 3013.5 1232.37 3026.75 1246.5 3042.65 1246.5 3053.25 1246.5 3061.2 1243.67 3066.5 1235.2 3061.2 1235.2 3058.55 1238.02 3055.9 1238.02Z" stroke="#333333" stroke-width="2.86476" stroke-linecap="round" stroke-linejoin="round" stroke-miterlimit="10" fill="none" fill-rule="evenodd"/><path d="M3013.5 1473C3013.5 1456.71 3024.92 1443.5 3039 1443.5 3053.08 1443.5 3064.5 1456.71 3064.5 1473 3064.5 1489.29 3053.08 1502.5 3039 1502.5 3024.92 1502.5 3013.5 1489.29 3013.5 1473Z" stroke="#333333" stroke-width="2.86476" stroke-linecap="round" stroke-linejoin="round" stroke-miterlimit="10" fill="none" fill-rule="evenodd"/><path d="M3051.38 1494.07C3035.15 1494.07 3024.32 1480.02 3024.32 1463.17 3024.32 1454.74 3027.03 1449.12 3029.74 1443.5 3018.91 1449.12 3013.5 1460.36 3013.5 1471.6 3013.5 1488.45 3024.32 1502.5 3040.56 1502.5 3048.68 1502.5 3056.79 1496.88 3059.5 1491.26 3056.79 1491.26 3054.09 1494.07 3051.38 1494.07Z" stroke="#333333" stroke-width="2.86476" stroke-linecap="round" stroke-linejoin="round" stroke-miterlimit="10" fill="none" fill-rule="evenodd"/><path d="M2845.5 1294.43C2845.5 1271.61 2834.73 1254.5 2823.96 1254.5 2821.27 1254.5 2818.58 1257.35 2815.88 1260.2 2813.19 1280.17 2810.5 1300.13 2810.5 1320.09 2813.19 1328.65 2818.58 1331.5 2823.96 1331.5 2834.73 1331.5 2845.5 1314.39 2845.5 1294.43Z" stroke="#333333" stroke-width="2.86476" stroke-linecap="round" stroke-linejoin="round" stroke-miterlimit="10" fill="none" fill-rule="evenodd"/><path d="M2832.32 1320.25C2821.41 1320.25 2813.23 1306.19 2813.23 1286.5 2810.5 1297.75 2810.5 1309 2810.5 1320.25 2813.23 1328.69 2818.68 1331.5 2824.14 1331.5 2832.32 1331.5 2837.77 1325.87 2840.5 1317.44 2837.77 1317.44 2835.05 1320.25 2832.32 1320.25Z" stroke="#333333" stroke-width="2.86476" stroke-linecap="round" stroke-linejoin="round" stroke-miterlimit="10" fill="none" fill-rule="evenodd"/><path d="M3197.5 1571C3197.5 1556.92 3210.04 1545.5 3225.5 1545.5 3240.96 1545.5 3253.5 1556.92 3253.5 1571 3253.5 1585.08 3240.96 1596.5 3225.5 1596.5 3210.04 1596.5 3197.5 1585.08 3197.5 1571Z" stroke="#333333" stroke-width="2.86476" stroke-linecap="round" stroke-linejoin="round" stroke-miterlimit="10" fill="none" fill-rule="evenodd"/><path d="M3237.76 1588.03C3221.66 1588.03 3208.24 1576.74 3208.24 1562.62 3208.24 1556.97 3210.92 1551.32 3213.61 1548.5 3205.55 1551.32 3197.5 1559.79 3197.5 1571.09 3197.5 1585.21 3210.92 1596.5 3227.03 1596.5 3235.08 1596.5 3243.13 1593.68 3248.5 1588.03 3245.82 1588.03 3240.45 1588.03 3237.76 1588.03Z" stroke="#333333" stroke-width="2.86476" stroke-linecap="round" stroke-linejoin="round" stroke-miterlimit="10" fill="none" fill-rule="evenodd"/><path d="M3357.5 1353.5C3357.5 1330.86 3372.5 1312.5 3391 1312.5 3409.5 1312.5 3424.5 1330.86 3424.5 1353.5 3424.5 1376.14 3409.5 1394.5 3391 1394.5 3372.5 1394.5 3357.5 1376.14 3357.5 1353.5Z" stroke="#333333" stroke-width="2.86476" stroke-linecap="round" stroke-linejoin="round" stroke-miterlimit="10" fill="none" fill-rule="evenodd"/><path d="M3406.02 1380.21C3387.15 1380.21 3370.98 1363.07 3370.98 1340.21 3370.98 1331.64 3373.67 1323.07 3379.07 1314.5 3365.59 1320.21 3357.5 1337.36 3357.5 1354.5 3357.5 1377.36 3373.67 1394.5 3392.54 1394.5 3403.33 1394.5 3411.41 1388.79 3419.5 1377.36 3414.11 1380.21 3408.72 1380.21 3406.02 1380.21Z" stroke="#333333" stroke-width="2.86476" stroke-linecap="round" stroke-linejoin="round" stroke-miterlimit="10" fill="none" fill-rule="evenodd"/><path d="M3282.5 975.7C3282.5 992.5 3293.24 1006.5 3309.34 1006.5 3322.76 1006.5 3333.5 992.5 3333.5 975.7 3333.5 972.9 3333.5 967.3 3333.5 964.5 3320.08 958.9 3306.66 953.3 3295.92 950.5 3287.87 956.1 3282.5 964.5 3282.5 975.7Z" stroke="#333333" stroke-width="2.86476" stroke-linecap="round" stroke-linejoin="round" stroke-miterlimit="10" fill="none" fill-rule="evenodd"/><path d="M3296.03 950.5C3287.91 956.1 3282.5 964.5 3282.5 975.7 3282.5 992.5 3293.32 1006.5 3309.56 1006.5 3317.68 1006.5 3323.09 1000.9 3328.5 995.3 3325.79 995.3 3323.09 998.1 3320.38 998.1 3304.15 998.1 3293.32 984.1 3293.32 967.3 3293.32 961.7 3293.32 956.1 3296.03 950.5 3296.03 950.5 3296.03 950.5 3296.03 950.5Z" stroke="#333333" stroke-width="2.86476" stroke-linecap="round" stroke-linejoin="round" stroke-miterlimit="10" fill="none" fill-rule="evenodd"/><path d="M3168.5 1324.5C3168.5 1311.25 3178.13 1300.5 3190 1300.5 3201.87 1300.5 3211.5 1311.25 3211.5 1324.5 3211.5 1337.75 3201.87 1348.5 3190 1348.5 3178.13 1348.5 3168.5 1337.75 3168.5 1324.5Z" stroke="#333333" stroke-width="2.86476" stroke-linecap="round" stroke-linejoin="round" stroke-miterlimit="10" fill="none" fill-rule="evenodd"/><path d="M3199.7 1340.25C3186.7 1340.25 3176.3 1329.25 3176.3 1318.25 3176.3 1312.75 3178.9 1307.25 3181.5 1304.5 3173.7 1307.25 3168.5 1315.5 3168.5 1323.75 3168.5 1337.5 3178.9 1348.5 3189.3 1348.5 3197.1 1348.5 3202.3 1343 3207.5 1337.5 3204.9 1340.25 3202.3 1340.25 3199.7 1340.25Z" stroke="#333333" stroke-width="2.86476" stroke-linecap="round" stroke-linejoin="round" stroke-miterlimit="10" fill="none" fill-rule="evenodd"/></g></svg>