<svg width="715" height="363" xmlns="http://www.w3.org/2000/svg" xmlns:xlink="http://www.w3.org/1999/xlink" xml:space="preserve" overflow="hidden"><g transform="translate(-853 -612)"><path d="M1566 973C1564.19 787.079 1421.06 638.924 1249.86 615.683 1177.39 606 1104.02 623.43 1039.7 661.195 998.936 684.435 965.42 716.391 938.244 751.251 893.857 806.446 863.964 874.23 855.812 948.792 854.906 956.538 854 965.253 854 973L1566 973Z" fill="#FFF5AD" fill-rule="evenodd"/><path d="M1550 973C1550 904.36 1529.17 838.621 1489.33 781.582 1432.27 700.374 1344.43 646.235 1247.53 632.701 1180.52 624 1109.89 639.468 1046.49 677.172 1046.49 677.172 1046.49 677.172 1046.49 677.172 1010.27 697.474 978.576 725.51 948.691 763.213 905.223 817.352 878.056 883.091 870.811 950.765 869.906 958.499 869 965.266 869 973L1550 973Z" fill="#F8D09E" fill-rule="evenodd"/><path d="M1566.5 973.5C1564.69 787.579 1421.56 639.423 1250.36 616.183 1177.89 606.5 1104.52 623.93 1040.2 661.695 999.436 684.935 965.92 716.89 938.744 751.751 894.358 806.946 864.464 874.729 856.312 949.292 855.406 957.038 854.5 965.753 854.5 973.5" stroke="#58585A" stroke-width="2.86476" stroke-linecap="round" stroke-linejoin="round" stroke-miterlimit="10" fill="none" fill-rule="evenodd"/><path d="M1550 973C1550 904.36 1529.17 838.621 1489.33 781.582 1432.27 700.374 1344.43 646.235 1247.53 632.701 1180.52 624 1109.89 639.468 1046.49 677.172 1046.49 677.172 1046.49 677.172 1046.49 677.172 1010.27 697.474 978.576 725.51 948.691 763.213 905.223 817.352 878.056 883.091 870.811 950.765 869.906 958.499 869 965.266 869 973" stroke="#58585A" stroke-width="1.71893" stroke-linecap="round" stroke-linejoin="round" stroke-miterlimit="10" fill="none" fill-rule="evenodd"/></g></svg>