<svg width="715" height="362" xmlns="http://www.w3.org/2000/svg" xmlns:xlink="http://www.w3.org/1999/xlink" xml:space="preserve" overflow="hidden"><g transform="translate(-1843 -1006)"><path d="M712 366C710.189 180.586 567.064 32.8338 396.764 9.65699 323.389 0 250.015 17.3826 186.606 55.0449 144.936 78.2217 111.42 110.09 84.2443 144.855 40.7634 199.9 9.96438 267.499 1.81171 341.858 0.905853 349.583 0.905853 358.275 0 366L712 366Z" fill="#FFF5AD" fill-rule="evenodd" transform="matrix(1 0 0 -1 1844 1373)"/><path d="M682 349C681.094 280.36 660.263 214.621 620.412 157.582 564.258 76.374 476.404 22.2355 379.493 8.70084 312.47 0 240.919 15.4682 178.425 53.1718 177.519 53.1718 177.519 53.1718 177.519 53.1718 142.197 73.4737 109.591 101.51 79.7025 139.213 36.2284 193.352 9.05711 259.092 1.81142 326.765 0.90571 334.499 0.90571 341.266 0 349L682 349Z" fill="#D1A9BD" fill-rule="evenodd" transform="matrix(1 0 0 -1 1859 1356)"/><path d="M712 366C710.188 180.586 567.064 32.8338 396.763 9.65699 323.389 0 250.015 17.3826 186.606 55.0449 144.936 78.2217 111.42 110.09 84.2443 144.855 40.7634 199.9 9.96437 267.499 1.8117 341.858 0.905852 349.583 0.905852 358.275 0 366" stroke="#58585A" stroke-width="2.86476" stroke-linecap="round" stroke-linejoin="round" stroke-miterlimit="10" fill="none" fill-rule="evenodd" transform="matrix(1 0 0 -1 1844.5 1373.5)"/><path d="M682 349C681.094 280.36 660.263 214.621 620.412 157.582 564.258 76.374 476.404 22.2355 379.493 8.70084 312.47 0 240.919 15.4682 178.425 53.1718 177.519 53.1718 177.519 53.1718 177.519 53.1718 142.197 73.4737 109.591 101.51 79.7025 139.213 36.2284 193.352 9.05711 259.092 1.81142 326.765 0.90571 334.499 0.90571 341.266 0 349" stroke="#58585A" stroke-width="1.71893" stroke-linecap="round" stroke-linejoin="round" stroke-miterlimit="10" fill="none" fill-rule="evenodd" transform="matrix(1 0 0 -1 1859 1356)"/></g></svg>