<svg width="715" height="363" xmlns="http://www.w3.org/2000/svg" xmlns:xlink="http://www.w3.org/1999/xlink" xml:space="preserve" overflow="hidden"><g transform="translate(-2805 -611)"><path d="M3518 972C3516.19 786.079 3373.06 637.923 3202.76 614.683 3129.39 605 3056.02 622.43 2992.61 660.195 2950.94 683.435 2917.42 715.391 2890.24 750.251 2846.76 805.446 2815.96 873.23 2807.81 947.792 2806.91 955.538 2806.91 964.253 2806 972L3518 972Z" fill="#FFF5AD" fill-rule="evenodd"/><path d="M3504 972C3503.09 903.163 3482.26 837.235 3442.41 780.033 3386.26 698.593 3298.4 644.299 3201.49 630.726 3134.47 622 3062.92 637.512 3000.42 675.324 2999.52 675.324 2999.52 675.324 2999.52 675.324 2964.2 695.684 2931.59 723.8 2901.7 761.612 2858.23 815.906 2831.06 881.834 2823.81 949.701 2822.91 957.457 2822.91 964.244 2822 972L3504 972Z" fill="#EE9986" fill-rule="evenodd"/><path d="M3518.5 972.5C3516.69 786.579 3373.56 638.423 3203.26 615.183 3129.89 605.5 3056.52 622.93 2993.11 660.695 2951.44 683.935 2917.92 715.89 2890.74 750.751 2847.26 805.946 2816.46 873.729 2808.31 948.292 2807.41 956.038 2807.41 964.753 2806.5 972.5" stroke="#58585A" stroke-width="2.86476" stroke-linecap="round" stroke-linejoin="round" stroke-miterlimit="10" fill="none" fill-rule="evenodd"/><path d="M3504 972C3503.09 903.163 3482.26 837.235 3442.41 780.033 3386.26 698.593 3298.4 644.299 3201.49 630.726 3134.47 622 3062.92 637.512 3000.42 675.324 2999.52 675.324 2999.52 675.324 2999.52 675.324 2964.2 695.684 2931.59 723.8 2901.7 761.612 2858.23 815.906 2831.06 881.834 2823.81 949.701 2822.91 957.457 2822.91 964.244 2822 972" stroke="#58585A" stroke-width="1.71893" stroke-linecap="round" stroke-linejoin="round" stroke-miterlimit="10" fill="none" fill-rule="evenodd"/></g></svg>