<svg width="716" height="362" xmlns="http://www.w3.org/2000/svg" xmlns:xlink="http://www.w3.org/1999/xlink" xml:space="preserve" overflow="hidden"><g transform="translate(-2807 -1003)"><path d="M713 366C711.186 180.586 567.86 32.8337 397.321 9.65699 323.843 0 250.366 17.3826 186.868 55.0448 145.14 78.2216 111.576 110.09 84.3626 144.855 40.8206 199.9 9.97837 267.499 1.81425 341.857 0.907125 349.583 0.907125 358.274 0 366L713 366Z" fill="#FFF5AD" fill-rule="evenodd" transform="matrix(1 0 0 -1 2808 1370)"/><path d="M682 349C681.094 280.36 660.263 214.62 620.412 157.582 564.258 76.3739 476.404 22.2355 379.493 8.70083 312.47 0 240.919 15.4681 178.425 53.1717 177.519 53.1717 177.519 53.1717 177.519 53.1717 142.197 73.4737 109.591 101.51 79.7025 139.213 36.2284 193.352 9.05711 259.091 1.81142 326.764 0.90571 334.499 0.90571 341.266 0 349L682 349Z" fill="#EE9986" fill-rule="evenodd" transform="matrix(1 0 0 -1 2824 1353)"/><path d="M713 366C711.186 180.586 567.86 32.8338 397.321 9.65699 323.843 0 250.366 17.3826 186.868 55.0449 145.14 78.2217 111.576 110.09 84.3626 144.855 40.8206 199.9 9.97837 267.499 1.81425 341.858 0.907125 349.583 0.907125 358.275 0 366" stroke="#58585A" stroke-width="2.86476" stroke-linecap="round" stroke-linejoin="round" stroke-miterlimit="10" fill="none" fill-rule="evenodd" transform="matrix(1 0 0 -1 2808.5 1370.5)"/><path d="M682 349C681.094 280.36 660.263 214.62 620.412 157.582 564.258 76.3739 476.404 22.2355 379.493 8.70083 312.47 0 240.919 15.4681 178.425 53.1717 177.519 53.1717 177.519 53.1717 177.519 53.1717 142.197 73.4737 109.591 101.51 79.7025 139.213 36.2284 193.352 9.05711 259.091 1.81142 326.764 0.90571 334.499 0.90571 341.266 0 349" stroke="#58585A" stroke-width="1.71893" stroke-linecap="round" stroke-linejoin="round" stroke-miterlimit="10" fill="none" fill-rule="evenodd" transform="matrix(1 0 0 -1 2824 1353)"/></g></svg>