<svg width="355" height="361" xmlns="http://www.w3.org/2000/svg" xmlns:xlink="http://www.w3.org/1999/xlink" xml:space="preserve" overflow="hidden"><g transform="translate(-2213 -1604)"><path d="M2214 1963C2272.52 1963 2330.13 1944.72 2381.45 1914.88 2421.96 1891.79 2455.27 1860.03 2482.28 1825.38 2526.39 1770.53 2556.1 1703.16 2564.2 1629.06 2565.1 1621.36 2566 1612.7 2566 1605 2214 1605 2214 1605 2214 1605 2214 1732.03 2214 1890.82 2214 1963Z" fill="#FFF5AD" fill-rule="evenodd"/><path d="M2214 1946C2268.06 1946 2323.93 1929.62 2374.39 1899.76 2374.39 1899.76 2374.39 1899.76 2374.39 1899.76 2410.43 1879.53 2441.97 1851.6 2471.71 1814.03 2514.96 1760.09 2541.99 1694.58 2549.2 1627.16 2550.1 1619.45 2551 1612.71 2551 1605 2214 1605 2214 1605 2214 1605 2214 1723.48 2214 1867.97 2214 1946Z" fill="#E1A9A7" fill-rule="evenodd"/><path d="M2214.5 1963.5C2273.02 1963.5 2330.63 1945.22 2381.95 1915.38 2422.46 1892.29 2455.77 1860.53 2482.78 1825.88 2526.89 1771.03 2556.6 1703.66 2564.7 1629.56 2565.6 1621.86 2566.5 1613.2 2566.5 1605.5" stroke="#58585A" stroke-width="2.86476" stroke-linecap="round" stroke-linejoin="round" stroke-miterlimit="10" fill="none" fill-rule="evenodd"/><path d="M2214 1946C2268.06 1946 2323.93 1929.62 2374.39 1899.76 2374.39 1899.76 2374.39 1899.76 2374.39 1899.76 2410.43 1879.53 2441.97 1851.6 2471.71 1814.03 2514.96 1760.09 2541.99 1694.58 2549.2 1627.16 2550.1 1619.45 2551 1612.71 2551 1605" stroke="#58585A" stroke-width="1.71893" stroke-linecap="round" stroke-linejoin="round" stroke-miterlimit="10" fill="none" fill-rule="evenodd"/></g></svg>