<svg width="355" height="361" xmlns="http://www.w3.org/2000/svg" xmlns:xlink="http://www.w3.org/1999/xlink" xml:space="preserve" overflow="hidden"><g transform="translate(-3189 -1604)"><path d="M352 0C293.483 0 235.867 18.285 184.552 48.1183 144.041 71.2151 110.731 102.973 83.7238 137.618 39.6113 192.473 9.90281 259.839 1.80051 333.941 0.900256 341.64 0 350.301 0 358 352 358 352 358 352 358 352 230.968 352 72.1775 352 0Z" fill="#FFF5AD" fill-rule="evenodd" transform="matrix(-1 0 0 1 3542 1605)"/><path d="M337 0C282.936 0 227.069 16.3277 176.61 46.1017 176.61 46.1017 176.61 46.1017 176.61 46.1017 140.567 66.2712 109.029 94.1244 79.2941 131.582 36.0428 185.367 9.01069 250.678 1.80214 317.91 0.901069 325.594 0 332.317 0 340 337 340 337 340 337 340 337 221.865 337 77.7967 337 0Z" fill="#80CCDE" fill-rule="evenodd" transform="matrix(-1 0 0 1 3527 1623)"/><path d="M352 0C293.483 0 235.867 18.2849 184.552 48.1183 144.041 71.215 110.731 102.973 83.7238 137.618 39.6113 192.473 9.90281 259.839 1.80051 333.941 0.900256 341.64 0 350.301 0 358" stroke="#58585A" stroke-width="2.86476" stroke-linecap="round" stroke-linejoin="round" stroke-miterlimit="10" fill="none" fill-rule="evenodd" transform="matrix(-1 0 0 1 3542.5 1605.5)"/><path d="M337 0C282.936 0 227.069 16.3277 176.61 46.1017 176.61 46.1017 176.61 46.1017 176.61 46.1017 140.567 66.2712 109.029 94.1244 79.2941 131.582 36.0428 185.367 9.01069 250.678 1.80214 317.91 0.901069 325.594 0 332.317 0 340" stroke="#58585A" stroke-width="1.71893" stroke-linecap="round" stroke-linejoin="round" stroke-miterlimit="10" fill="none" fill-rule="evenodd" transform="matrix(-1 0 0 1 3527 1623)"/></g></svg>