<svg width="715" height="753" xmlns="http://www.w3.org/2000/svg" xmlns:xlink="http://www.w3.org/1999/xlink" xml:space="preserve" overflow="hidden"><g transform="translate(-853 -612)"><path d="M1566 973C1564.19 787.079 1421.06 638.924 1249.86 615.683 1177.39 606 1104.02 623.43 1039.7 661.195 998.936 684.435 965.42 716.391 938.244 751.251 893.857 806.446 863.964 874.23 855.812 948.792 854.906 956.538 854 965.253 854 973L1566 973Z" fill="#FFF5AD" fill-rule="evenodd"/><path d="M1550 973C1550 904.36 1529.17 838.621 1489.33 781.582 1432.27 700.374 1344.43 646.235 1247.53 632.701 1180.52 624 1109.89 639.468 1046.49 677.172 1046.49 677.172 1046.49 677.172 1046.49 677.172 1010.27 697.474 978.576 725.51 948.691 763.213 905.223 817.352 878.056 883.091 870.811 950.765 869.906 958.499 869 965.266 869 973L1550 973Z" fill="#F8D09E" fill-rule="evenodd"/><path d="M1566.5 973.5C1564.69 787.579 1421.56 639.423 1250.36 616.183 1177.89 606.5 1104.52 623.93 1040.2 661.695 999.436 684.935 965.92 716.89 938.744 751.751 894.358 806.946 864.464 874.729 856.312 949.292 855.406 957.038 854.5 965.753 854.5 973.5" stroke="#58585A" stroke-width="2.86476" stroke-linecap="round" stroke-linejoin="round" stroke-miterlimit="10" fill="none" fill-rule="evenodd"/><path d="M1550 973C1550 904.36 1529.17 838.621 1489.33 781.582 1432.27 700.374 1344.43 646.235 1247.53 632.701 1180.52 624 1109.89 639.468 1046.49 677.172 1046.49 677.172 1046.49 677.172 1046.49 677.172 1010.27 697.474 978.576 725.51 948.691 763.213 905.223 817.352 878.056 883.091 870.811 950.765 869.906 958.499 869 965.266 869 973" stroke="#58585A" stroke-width="1.71893" stroke-linecap="round" stroke-linejoin="round" stroke-miterlimit="10" fill="none" fill-rule="evenodd"/><path d="M712 366C710.189 180.586 567.064 32.8337 395.858 9.65699 323.389 0 250.015 17.3826 185.7 55.0448 144.936 78.2216 111.42 110.09 84.2443 144.855 39.8575 199.9 9.96438 267.499 1.81171 341.857 0.905853 349.583 0 358.274 0 366L712 366Z" fill="#FFF5AD" fill-rule="evenodd" transform="matrix(1 0 0 -1 854 1370)"/><path d="M681 349C681 280.36 660.172 214.62 620.326 157.582 563.274 76.3739 475.432 22.2355 378.535 8.70083 311.521 0 240.886 15.4681 177.495 53.1717 177.495 53.1717 177.495 53.1717 177.495 53.1717 141.271 73.4737 109.576 101.51 79.6915 139.213 36.2234 193.352 9.05585 259.091 1.81117 326.764 0.905585 334.499 0 341.266 0 349L681 349Z" fill="#F8D09E" fill-rule="evenodd" transform="matrix(1 0 0 -1 869 1353)"/><path d="M712 366C710.188 180.586 567.064 32.8338 395.857 9.65699 323.389 0 250.015 17.3826 185.7 55.0449 144.936 78.2217 111.42 110.09 84.2443 144.855 39.8575 199.9 9.96437 267.499 1.8117 341.858 0.905852 349.583 0 358.275 0 366" stroke="#58585A" stroke-width="2.86476" stroke-linecap="round" stroke-linejoin="round" stroke-miterlimit="10" fill="none" fill-rule="evenodd" transform="matrix(1 0 0 -1 854.5 1370.5)"/><path d="M681 349C681 280.36 660.172 214.62 620.326 157.582 563.274 76.3739 475.432 22.2355 378.535 8.70083 311.521 0 240.886 15.4681 177.495 53.1717 177.495 53.1717 177.495 53.1717 177.495 53.1717 141.271 73.4737 109.576 101.51 79.6915 139.213 36.2234 193.352 9.05585 259.091 1.81117 326.764 0.905585 334.499 0 341.266 0 349" stroke="#58585A" stroke-width="1.71893" stroke-linecap="round" stroke-linejoin="round" stroke-miterlimit="10" fill="none" fill-rule="evenodd" transform="matrix(1 0 0 -1 869 1353)"/></g></svg>