<svg width="715" height="752" xmlns="http://www.w3.org/2000/svg" xmlns:xlink="http://www.w3.org/1999/xlink" xml:space="preserve" overflow="hidden"><g transform="translate(-1843 -616)"><path d="M2556 976C2554.19 790.586 2411.06 642.834 2240.76 619.657 2167.39 610 2094.02 627.383 2030.61 665.045 1988.94 688.222 1955.42 720.09 1928.24 754.855 1884.76 809.9 1853.96 877.499 1845.81 951.857 1844.91 959.583 1844.91 968.274 1844 976L2556 976Z" fill="#FFF5AD" fill-rule="evenodd"/><path d="M2542 976C2541.09 907.36 2520.26 841.62 2480.41 784.582 2424.26 703.374 2336.4 649.235 2239.49 635.701 2172.47 627 2100.92 642.468 2038.42 680.172 2037.52 680.172 2037.52 680.172 2037.52 680.172 2002.2 700.474 1969.59 728.51 1939.7 766.213 1896.23 820.352 1869.06 886.091 1861.81 953.764 1860.91 961.499 1860.91 968.266 1860 976L2542 976Z" fill="#D1A9BD" fill-rule="evenodd"/><path d="M2556.5 976.5C2554.69 791.086 2411.56 643.334 2241.26 620.157 2167.89 610.5 2094.52 627.883 2031.11 665.545 1989.44 688.722 1955.92 720.59 1928.74 755.355 1885.26 810.4 1854.46 877.999 1846.31 952.358 1845.41 960.083 1845.41 968.775 1844.5 976.5" stroke="#58585A" stroke-width="2.86476" stroke-linecap="round" stroke-linejoin="round" stroke-miterlimit="10" fill="none" fill-rule="evenodd"/><path d="M2542 976C2541.09 907.36 2520.26 841.62 2480.41 784.582 2424.26 703.374 2336.4 649.235 2239.49 635.701 2172.47 627 2100.92 642.468 2038.42 680.172 2037.52 680.172 2037.52 680.172 2037.52 680.172 2002.2 700.474 1969.59 728.51 1939.7 766.213 1896.23 820.352 1869.06 886.091 1861.81 953.764 1860.91 961.499 1860.91 968.266 1860 976" stroke="#58585A" stroke-width="1.71893" stroke-linecap="round" stroke-linejoin="round" stroke-miterlimit="10" fill="none" fill-rule="evenodd"/><path d="M712 366C710.189 180.586 567.064 32.8338 396.764 9.65699 323.389 0 250.015 17.3826 186.606 55.0449 144.936 78.2217 111.42 110.09 84.2443 144.855 40.7634 199.9 9.96438 267.499 1.81171 341.858 0.905853 349.583 0.905853 358.275 0 366L712 366Z" fill="#FFF5AD" fill-rule="evenodd" transform="matrix(1 0 0 -1 1844 1373)"/><path d="M682 349C681.094 280.36 660.263 214.621 620.412 157.582 564.258 76.374 476.404 22.2355 379.493 8.70084 312.47 0 240.919 15.4682 178.425 53.1718 177.519 53.1718 177.519 53.1718 177.519 53.1718 142.197 73.4737 109.591 101.51 79.7025 139.213 36.2284 193.352 9.05711 259.092 1.81142 326.765 0.90571 334.499 0.90571 341.266 0 349L682 349Z" fill="#D1A9BD" fill-rule="evenodd" transform="matrix(1 0 0 -1 1859 1356)"/><path d="M712 366C710.188 180.586 567.064 32.8338 396.763 9.65699 323.389 0 250.015 17.3826 186.606 55.0449 144.936 78.2217 111.42 110.09 84.2443 144.855 40.7634 199.9 9.96437 267.499 1.8117 341.858 0.905852 349.583 0.905852 358.275 0 366" stroke="#58585A" stroke-width="2.86476" stroke-linecap="round" stroke-linejoin="round" stroke-miterlimit="10" fill="none" fill-rule="evenodd" transform="matrix(1 0 0 -1 1844.5 1373.5)"/><path d="M682 349C681.094 280.36 660.263 214.621 620.412 157.582 564.258 76.374 476.404 22.2355 379.493 8.70084 312.47 0 240.919 15.4682 178.425 53.1718 177.519 53.1718 177.519 53.1718 177.519 53.1718 142.197 73.4737 109.591 101.51 79.7025 139.213 36.2284 193.352 9.05711 259.092 1.81142 326.765 0.90571 334.499 0.90571 341.266 0 349" stroke="#58585A" stroke-width="1.71893" stroke-linecap="round" stroke-linejoin="round" stroke-miterlimit="10" fill="none" fill-rule="evenodd" transform="matrix(1 0 0 -1 1859 1356)"/></g></svg>