<svg width="737" height="358" xmlns="http://www.w3.org/2000/svg" xmlns:xlink="http://www.w3.org/1999/xlink" xml:space="preserve" overflow="hidden"><g transform="translate(-852 -1607)"><path d="M1202 1608C1143.98 1608 1086.86 1626.13 1035.98 1655.72 995.813 1678.62 962.788 1710.11 936.01 1744.47 892.273 1798.86 862.818 1865.66 854.785 1939.14 853.892 1946.78 853 1955.37 853 1963 1202 1963 1202 1963 1202 1963 1202 1837.03 1202 1679.57 1202 1608Z" fill="#FFF5AD" fill-rule="evenodd"/><path d="M1202 1625C1148.26 1625 1092.72 1641.23 1042.56 1670.83 1042.56 1670.83 1042.56 1670.83 1042.56 1670.83 1006.73 1690.88 975.382 1718.57 945.823 1755.81 902.829 1809.28 875.957 1874.2 868.791 1941.04 867.896 1948.68 867 1955.36 867 1963 1202 1963 1202 1963 1202 1963 1202 1845.56 1202 1702.34 1202 1625Z" fill="#D6C3AE" fill-rule="evenodd"/><path d="M1202.5 1608.5C1144.48 1608.5 1087.36 1626.63 1036.48 1656.21 996.313 1679.12 963.288 1710.61 936.51 1744.96 892.774 1799.36 863.318 1866.16 855.285 1939.64 854.393 1947.28 853.5 1955.87 853.5 1963.5" stroke="#58585A" stroke-width="2.86476" stroke-linecap="round" stroke-linejoin="round" stroke-miterlimit="10" fill="none" fill-rule="evenodd"/><path d="M1202 1625C1148.26 1625 1092.72 1641.23 1042.56 1670.83 1042.56 1670.83 1042.56 1670.83 1042.56 1670.83 1006.73 1690.88 975.382 1718.57 945.823 1755.81 902.829 1809.28 875.957 1874.2 868.791 1941.04 867.896 1948.68 867 1955.36 867 1963" stroke="#58585A" stroke-width="1.71893" stroke-linecap="round" stroke-linejoin="round" stroke-miterlimit="10" fill="none" fill-rule="evenodd"/><path d="M349 0C290.982 0 233.857 18.1317 182.98 47.7151 142.813 70.6183 109.788 102.11 83.0103 136.465 39.2737 190.86 9.81842 257.661 1.78517 331.143 0.892584 338.777 0 347.366 0 355 349 355 349 355 349 355 349 229.032 349 71.5726 349 0Z" fill="#FFF5AD" fill-rule="evenodd" transform="matrix(-1 0 0 1 1587 1608)"/><path d="M334 0C280.417 0 225.048 16.2317 175.038 45.8305 175.038 45.8305 175.038 45.8305 175.038 45.8305 139.316 65.8814 108.059 93.5707 78.5883 130.808 35.7219 184.277 8.93048 249.204 1.7861 316.04 0.893048 323.678 0 330.362 0 338 334 338 334 338 334 338 334 220.559 334 77.339 334 0Z" fill="#D6C3AE" fill-rule="evenodd" transform="matrix(-1 0 0 1 1572 1625)"/><path d="M349 0C290.982 0 233.857 18.1317 182.979 47.7151 142.813 70.6183 109.788 102.11 83.0102 136.465 39.2736 190.86 9.81841 257.661 1.78517 331.143 0.892583 338.777 0 347.366 0 355" stroke="#58585A" stroke-width="2.86476" stroke-linecap="round" stroke-linejoin="round" stroke-miterlimit="10" fill="none" fill-rule="evenodd" transform="matrix(-1 0 0 1 1587.5 1608.5)"/><path d="M334 0C280.417 0 225.048 16.2317 175.038 45.8305 175.038 45.8305 175.038 45.8305 175.038 45.8305 139.316 65.8814 108.059 93.5707 78.5883 130.808 35.7219 184.277 8.93048 249.204 1.7861 316.04 0.893048 323.678 0 330.362 0 338" stroke="#58585A" stroke-width="1.71893" stroke-linecap="round" stroke-linejoin="round" stroke-miterlimit="10" fill="none" fill-rule="evenodd" transform="matrix(-1 0 0 1 1572 1625)"/></g></svg>