<svg width="740" height="361" xmlns="http://www.w3.org/2000/svg" xmlns:xlink="http://www.w3.org/1999/xlink" xml:space="preserve" overflow="hidden"><g transform="translate(-2804 -1604)"><path d="M3157 1605C3098.48 1605 3040.87 1623.28 2989.55 1653.12 2949.04 1676.22 2915.73 1707.97 2888.72 1742.62 2844.61 1797.47 2814.9 1864.84 2806.8 1938.94 2805.9 1946.64 2805 1955.3 2805 1963 3157 1963 3157 1963 3157 1963 3157 1835.97 3157 1677.18 3157 1605Z" fill="#FFF5AD" fill-rule="evenodd"/><path d="M3157 1623C3102.94 1623 3047.07 1639.33 2996.61 1669.1 2996.61 1669.1 2996.61 1669.1 2996.61 1669.1 2960.57 1689.27 2929.03 1717.12 2899.29 1754.58 2856.04 1808.37 2829.01 1873.68 2821.8 1940.91 2820.9 1948.59 2820 1955.32 2820 1963 3157 1963 3157 1963 3157 1963 3157 1844.86 3157 1700.8 3157 1623Z" fill="#80CCDE" fill-rule="evenodd"/><path d="M3157.5 1605.5C3098.98 1605.5 3041.37 1623.79 2990.05 1653.62 2949.54 1676.72 2916.23 1708.47 2889.22 1743.12 2845.11 1797.97 2815.4 1865.34 2807.3 1939.44 2806.4 1947.14 2805.5 1955.8 2805.5 1963.5" stroke="#58585A" stroke-width="2.86476" stroke-linecap="round" stroke-linejoin="round" stroke-miterlimit="10" fill="none" fill-rule="evenodd"/><path d="M3157 1623C3102.94 1623 3047.07 1639.33 2996.61 1669.1 2996.61 1669.1 2996.61 1669.1 2996.61 1669.1 2960.57 1689.27 2929.03 1717.12 2899.29 1754.58 2856.04 1808.37 2829.01 1873.68 2821.8 1940.91 2820.9 1948.59 2820 1955.32 2820 1963" stroke="#58585A" stroke-width="1.71893" stroke-linecap="round" stroke-linejoin="round" stroke-miterlimit="10" fill="none" fill-rule="evenodd"/><path d="M352 0C293.483 0 235.867 18.285 184.552 48.1183 144.041 71.2151 110.731 102.973 83.7238 137.618 39.6113 192.473 9.90281 259.839 1.80051 333.941 0.900256 341.64 0 350.301 0 358 352 358 352 358 352 358 352 230.968 352 72.1775 352 0Z" fill="#FFF5AD" fill-rule="evenodd" transform="matrix(-1 0 0 1 3542 1605)"/><path d="M337 0C282.936 0 227.069 16.3277 176.61 46.1017 176.61 46.1017 176.61 46.1017 176.61 46.1017 140.567 66.2712 109.029 94.1244 79.2941 131.582 36.0428 185.367 9.01069 250.678 1.80214 317.91 0.901069 325.594 0 332.317 0 340 337 340 337 340 337 340 337 221.865 337 77.7967 337 0Z" fill="#80CCDE" fill-rule="evenodd" transform="matrix(-1 0 0 1 3527 1623)"/><path d="M352 0C293.483 0 235.867 18.2849 184.552 48.1183 144.041 71.215 110.731 102.973 83.7238 137.618 39.6113 192.473 9.90281 259.839 1.80051 333.941 0.900256 341.64 0 350.301 0 358" stroke="#58585A" stroke-width="2.86476" stroke-linecap="round" stroke-linejoin="round" stroke-miterlimit="10" fill="none" fill-rule="evenodd" transform="matrix(-1 0 0 1 3542.5 1605.5)"/><path d="M337 0C282.936 0 227.069 16.3277 176.61 46.1017 176.61 46.1017 176.61 46.1017 176.61 46.1017 140.567 66.2712 109.029 94.1244 79.2941 131.582 36.0428 185.367 9.01069 250.678 1.80214 317.91 0.901069 325.594 0 332.317 0 340" stroke="#58585A" stroke-width="1.71893" stroke-linecap="round" stroke-linejoin="round" stroke-miterlimit="10" fill="none" fill-rule="evenodd" transform="matrix(-1 0 0 1 3527 1623)"/></g></svg>